<svg width="293" height="236" viewBox="0 0 293 236" fill="none" xmlns="http://www.w3.org/2000/svg">
<g filter="url(#filter0_d_10271_9075)">
<rect width="246.03" height="149.16" rx="36.7439" transform="matrix(0.966797 -0.255546 0.262809 0.964848 7.74414 77.398)" fill="#BB8954"/>
<rect width="233.483" height="137.006" rx="41.8121" transform="matrix(0.966797 -0.255546 0.262809 0.964848 15.7224 81.8282)" fill="#DBA266"/>
<g filter="url(#filter1_i_10271_9075)">
<rect width="210.147" height="114.478" rx="35.4769" transform="matrix(0.966797 -0.255546 0.262809 0.964848 30.0256 89.8579)" fill="#6EC281"/>
</g>
<rect x="-3.1159" y="-1.79742" width="215.215" height="119.546" rx="38.011" transform="matrix(0.966797 -0.255546 0.262809 0.964848 30.3946 88.9985)" stroke="#D5FFDF" stroke-width="5.06813"/>
<g filter="url(#filter2_d_10271_9075)">
<mask id="mask0_10271_9075" style="mask-type:alpha" maskUnits="userSpaceOnUse" x="75" y="149" width="10" height="10">
<ellipse cx="79.8458" cy="154.085" rx="4.20515" ry="4.13478" transform="rotate(-30.0264 79.8458 154.085)" fill="#FFF7F8"/>
</mask>
<g mask="url(#mask0_10271_9075)">
<ellipse cx="79.8458" cy="154.085" rx="4.20515" ry="4.13478" transform="rotate(-30.0264 79.8458 154.085)" fill="#BEEFC9"/>
<g filter="url(#filter3_f_10271_9075)">
<ellipse cx="80.2643" cy="151.413" rx="2.16475" ry="2.12852" transform="rotate(-30.0264 80.2643 151.413)" fill="white"/>
</g>
</g>
</g>
<g filter="url(#filter4_d_10271_9075)">
<mask id="mask1_10271_9075" style="mask-type:alpha" maskUnits="userSpaceOnUse" x="96" y="144" width="9" height="9">
<ellipse cx="100.772" cy="148.468" rx="4.20515" ry="4.13478" transform="rotate(-30.0264 100.772 148.468)" fill="#FFF7F8"/>
</mask>
<g mask="url(#mask1_10271_9075)">
<ellipse cx="100.772" cy="148.468" rx="4.20515" ry="4.13478" transform="rotate(-30.0264 100.772 148.468)" fill="#BEEFC9"/>
<g filter="url(#filter5_f_10271_9075)">
<ellipse cx="101.191" cy="145.795" rx="2.16475" ry="2.12852" transform="rotate(-30.0264 101.191 145.795)" fill="white"/>
</g>
</g>
</g>
<g filter="url(#filter6_d_10271_9075)">
<mask id="mask2_10271_9075" style="mask-type:alpha" maskUnits="userSpaceOnUse" x="117" y="138" width="9" height="10">
<ellipse cx="121.698" cy="142.85" rx="4.20515" ry="4.13478" transform="rotate(-30.0264 121.698 142.85)" fill="#FFF7F8"/>
</mask>
<g mask="url(#mask2_10271_9075)">
<ellipse cx="121.698" cy="142.85" rx="4.20515" ry="4.13478" transform="rotate(-30.0264 121.698 142.85)" fill="#BEEFC9"/>
<g filter="url(#filter7_f_10271_9075)">
<ellipse cx="122.116" cy="140.178" rx="2.16475" ry="2.12852" transform="rotate(-30.0264 122.116 140.178)" fill="white"/>
</g>
</g>
</g>
<g filter="url(#filter8_d_10271_9075)">
<mask id="mask3_10271_9075" style="mask-type:alpha" maskUnits="userSpaceOnUse" x="138" y="133" width="9" height="9">
<ellipse cx="142.625" cy="137.232" rx="4.20515" ry="4.13478" transform="rotate(-30.0264 142.625 137.232)" fill="#FFF7F8"/>
</mask>
<g mask="url(#mask3_10271_9075)">
<ellipse cx="142.625" cy="137.232" rx="4.20515" ry="4.13478" transform="rotate(-30.0264 142.625 137.232)" fill="#BEEFC9"/>
<g filter="url(#filter9_f_10271_9075)">
<ellipse cx="143.044" cy="134.56" rx="2.16475" ry="2.12852" transform="rotate(-30.0264 143.044 134.56)" fill="white"/>
</g>
</g>
</g>
<g filter="url(#filter10_d_10271_9075)">
<mask id="mask4_10271_9075" style="mask-type:alpha" maskUnits="userSpaceOnUse" x="159" y="127" width="9" height="9">
<ellipse cx="163.552" cy="131.615" rx="4.20515" ry="4.13478" transform="rotate(-30.0264 163.552 131.615)" fill="#FFF7F8"/>
</mask>
<g mask="url(#mask4_10271_9075)">
<ellipse cx="163.552" cy="131.615" rx="4.20515" ry="4.13478" transform="rotate(-30.0264 163.552 131.615)" fill="#BEEFC9"/>
<g filter="url(#filter11_f_10271_9075)">
<ellipse cx="163.972" cy="128.943" rx="2.16475" ry="2.12852" transform="rotate(-30.0264 163.972 128.943)" fill="white"/>
</g>
</g>
</g>
<g filter="url(#filter12_d_10271_9075)">
<mask id="mask5_10271_9075" style="mask-type:alpha" maskUnits="userSpaceOnUse" x="180" y="121" width="9" height="10">
<ellipse cx="184.477" cy="125.998" rx="4.20515" ry="4.13478" transform="rotate(-30.0264 184.477 125.998)" fill="#FFF7F8"/>
</mask>
<g mask="url(#mask5_10271_9075)">
<ellipse cx="184.477" cy="125.998" rx="4.20515" ry="4.13478" transform="rotate(-30.0264 184.477 125.998)" fill="#BEEFC9"/>
<g filter="url(#filter13_f_10271_9075)">
<ellipse cx="184.896" cy="123.325" rx="2.16475" ry="2.12852" transform="rotate(-30.0264 184.896 123.325)" fill="white"/>
</g>
</g>
</g>
<g filter="url(#filter14_d_10271_9075)">
<mask id="mask6_10271_9075" style="mask-type:alpha" maskUnits="userSpaceOnUse" x="201" y="116" width="9" height="9">
<ellipse cx="205.404" cy="120.38" rx="4.20515" ry="4.13478" transform="rotate(-30.0264 205.404 120.38)" fill="#FFF7F8"/>
</mask>
<g mask="url(#mask6_10271_9075)">
<ellipse cx="205.404" cy="120.38" rx="4.20515" ry="4.13478" transform="rotate(-30.0264 205.404 120.38)" fill="#BEEFC9"/>
<g filter="url(#filter15_f_10271_9075)">
<ellipse cx="205.823" cy="117.707" rx="2.16475" ry="2.12852" transform="rotate(-30.0264 205.823 117.707)" fill="white"/>
</g>
</g>
</g>
<g filter="url(#filter16_d_10271_9075)">
<mask id="mask7_10271_9075" style="mask-type:alpha" maskUnits="userSpaceOnUse" x="222" y="110" width="9" height="9">
<ellipse cx="226.331" cy="114.763" rx="4.20515" ry="4.13478" transform="rotate(-30.0264 226.331 114.763)" fill="#FFF7F8"/>
</mask>
<g mask="url(#mask7_10271_9075)">
<ellipse cx="226.331" cy="114.763" rx="4.20515" ry="4.13478" transform="rotate(-30.0264 226.331 114.763)" fill="#BEEFC9"/>
<g filter="url(#filter17_f_10271_9075)">
<ellipse cx="226.749" cy="112.091" rx="2.16475" ry="2.12852" transform="rotate(-30.0264 226.749 112.091)" fill="white"/>
</g>
</g>
</g>
<g filter="url(#filter18_d_10271_9075)">
<path d="M81.7685 133.353L80.115 127.161L69.9855 129.866L71.9162 137.096L74.0209 136.649L74.8333 139.691L66.1714 142.004L65.3972 139.105L66.5497 138.682C67.2226 138.426 67.4794 137.999 67.3201 137.403L62.8757 120.759L60.8068 121.196L59.9944 118.154L68.6563 115.841L69.4305 118.74L68.278 119.163C67.9089 119.313 67.6632 119.493 67.5408 119.705C67.412 119.893 67.4049 120.201 67.5196 120.631L69.0011 126.179L79.1305 123.474L77.3719 116.888L75.303 117.325L74.4906 114.283L83.1525 111.97L83.9267 114.869L82.7742 115.292C82.1013 115.548 81.8573 116.023 82.042 116.715L86.4482 133.215L88.5171 132.778L89.3295 135.82L80.6676 138.133L79.8934 135.234L81.0459 134.811C81.3911 134.668 81.6281 134.502 81.7569 134.315C81.8793 134.103 81.8832 133.782 81.7685 133.353ZM91.871 130.847L93.1798 112.629L90.8675 113.016L90.0933 110.117L98.2899 107.928L111.107 126.631L111.142 126.621L113.211 126.184L114.024 129.226L104.789 131.692L104.015 128.793L105.346 128.322C105.739 128.166 105.988 127.997 106.093 127.816C106.198 127.635 106.14 127.369 105.919 127.019L104.574 125.001L96.1988 127.237L95.9661 130.674L98.1423 130.208L98.9547 133.25L90.6865 135.458L89.9124 132.559L91.0649 132.136C91.5532 131.954 91.8219 131.525 91.871 130.847ZM96.7833 112.625L96.1785 123.715L102.836 121.937L96.8906 112.596L96.7833 112.625ZM112.617 108.665L121.265 121.809L121.444 121.761L122.317 104.925L120.095 105.365L119.283 102.322L127.515 100.124L128.289 103.023L127.137 103.446C126.833 103.553 126.632 103.709 126.533 103.914C126.428 104.095 126.355 104.396 126.314 104.816L124.815 126.344L120.162 127.587L107.345 108.884L105.277 109.322L104.464 106.279L113.699 103.813L114.473 106.713L113.32 107.135C112.594 107.381 112.3 107.766 112.44 108.291C112.472 108.41 112.531 108.535 112.617 108.665ZM152.279 119.011L135.277 123.551L134.503 120.652L135.656 120.229C136.329 119.972 136.585 119.546 136.426 118.949L131.982 102.306L129.913 102.743L129.1 99.7006L145.494 95.3231L147.08 101.265L143.496 102.49L143.114 101.058C143.006 100.653 142.87 100.382 142.706 100.247C142.542 100.112 142.233 100.105 141.78 100.226L136.482 101.641L138.117 107.761L146.385 105.553L147.36 109.204L139.092 111.412L140.879 118.105L146.642 116.567C147.071 116.452 147.323 116.295 147.398 116.096C147.466 115.873 147.446 115.559 147.338 115.154L146.86 113.364L150.578 112.64L152.279 119.011ZM166.748 89.1874C169.588 88.4291 172.23 88.7973 174.674 90.292C177.118 91.7866 178.891 94.598 179.994 98.7262C181.09 102.83 180.967 106.199 179.625 108.833C178.301 111.436 176.016 113.171 172.77 114.037C169.549 114.898 166.739 114.523 164.341 112.914C161.943 111.305 160.209 108.496 159.138 104.487C158.552 102.292 158.361 100.285 158.566 98.4661C158.764 96.6238 159.267 95.109 160.075 93.9219C161.708 91.5174 163.933 89.9392 166.748 89.1874ZM163.565 103.113C165.145 109.031 167.987 111.442 172.091 110.346C174.287 109.76 175.584 108.442 175.982 106.393C176.367 104.577 176.25 102.512 175.632 100.198C175.078 98.1217 174.21 96.3083 173.029 94.7575C172.368 93.9114 171.547 93.3254 170.565 92.9996C169.608 92.6674 168.472 92.6765 167.16 93.027C165.848 93.3774 164.829 94.1096 164.104 95.2235C163.403 96.331 163.035 97.5411 163.002 98.8536C162.97 100.166 163.157 101.586 163.565 103.113ZM185.785 110.064L185.01 107.165L186.27 106.713C186.878 106.5 187.099 106.083 186.933 105.462L182.489 88.8187L180.42 89.2561L179.608 86.2137L186.05 84.4933L200.567 98.2174L200.638 98.1983L197.092 84.9191L194.701 85.4425L193.889 82.4001L202.622 80.068L203.397 82.9673L202.137 83.4187C201.577 83.6194 201.389 84.0657 201.574 84.7577L206.831 104.444L202.643 105.562L187.845 91.6448L187.773 91.6639L191.386 105.194L193.741 104.68L194.554 107.722L185.785 110.064ZM228.095 98.7658L211.093 103.306L210.319 100.407L211.471 99.9837C212.144 99.7273 212.401 99.3009 212.242 98.7043L207.797 82.0606L205.728 82.498L204.916 79.4556L221.309 75.0781L222.896 81.0197L219.312 82.2452L218.93 80.8135C218.821 80.4078 218.685 80.1374 218.521 80.0022C218.357 79.867 218.049 79.86 217.595 79.9811L212.298 81.3956L213.932 87.5162L222.2 85.3084L223.175 88.9593L214.907 91.1671L216.694 97.8604L222.457 96.3216C222.887 96.2069 223.139 96.0501 223.213 95.8512C223.282 95.6285 223.262 95.3143 223.154 94.9086L222.676 93.119L226.393 92.3946L228.095 98.7658Z" fill="#F1FFF4"/>
</g>
</g>
<defs>
<filter id="filter0_d_10271_9075" x="11.0344" y="22.6841" width="270.482" height="200.609" filterUnits="userSpaceOnUse" color-interpolation-filters="sRGB">
<feFlood flood-opacity="0" result="BackgroundImageFix"/>
<feColorMatrix in="SourceAlpha" type="matrix" values="0 0 0 0 0 0 0 0 0 0 0 0 0 0 0 0 0 0 127 0" result="hardAlpha"/>
<feOffset dy="5.06813"/>
<feGaussianBlur stdDeviation="2.53406"/>
<feComposite in2="hardAlpha" operator="out"/>
<feColorMatrix type="matrix" values="0 0 0 0 0 0 0 0 0 0 0 0 0 0 0 0 0 0 0.25 0"/>
<feBlend mode="normal" in2="BackgroundImageFix" result="effect1_dropShadow_10271_9075"/>
<feBlend mode="normal" in="SourceGraphic" in2="effect1_dropShadow_10271_9075" result="shape"/>
</filter>
<filter id="filter1_i_10271_9075" x="33.0168" y="38.9732" width="227.273" height="158.521" filterUnits="userSpaceOnUse" color-interpolation-filters="sRGB">
<feFlood flood-opacity="0" result="BackgroundImageFix"/>
<feBlend mode="normal" in="SourceGraphic" in2="BackgroundImageFix" result="shape"/>
<feColorMatrix in="SourceAlpha" type="matrix" values="0 0 0 0 0 0 0 0 0 0 0 0 0 0 0 0 0 0 127 0" result="hardAlpha"/>
<feMorphology radius="3.8011" operator="erode" in="SourceAlpha" result="effect1_innerShadow_10271_9075"/>
<feOffset/>
<feGaussianBlur stdDeviation="3.8011"/>
<feComposite in2="hardAlpha" operator="arithmetic" k2="-1" k3="1"/>
<feColorMatrix type="matrix" values="0 0 0 0 0.224854 0 0 0 0 0.716046 0 0 0 0 0.335957 0 0 0 1 0"/>
<feBlend mode="normal" in2="shape" result="effect1_innerShadow_10271_9075"/>
</filter>
<filter id="filter2_d_10271_9075" x="73.1234" y="148.665" width="13.4448" height="13.3748" filterUnits="userSpaceOnUse" color-interpolation-filters="sRGB">
<feFlood flood-opacity="0" result="BackgroundImageFix"/>
<feColorMatrix in="SourceAlpha" type="matrix" values="0 0 0 0 0 0 0 0 0 0 0 0 0 0 0 0 0 0 127 0" result="hardAlpha"/>
<feOffset dy="1.26703"/>
<feGaussianBlur stdDeviation="1.26703"/>
<feComposite in2="hardAlpha" operator="out"/>
<feColorMatrix type="matrix" values="0 0 0 0 0.176458 0 0 0 0 0.483361 0 0 0 0 0.245877 0 0 0 1 0"/>
<feBlend mode="normal" in2="BackgroundImageFix" result="effect1_dropShadow_10271_9075"/>
<feBlend mode="normal" in="SourceGraphic" in2="effect1_dropShadow_10271_9075" result="shape"/>
</filter>
<filter id="filter3_f_10271_9075" x="74.3071" y="145.474" width="11.9144" height="11.8781" filterUnits="userSpaceOnUse" color-interpolation-filters="sRGB">
<feFlood flood-opacity="0" result="BackgroundImageFix"/>
<feBlend mode="normal" in="SourceGraphic" in2="BackgroundImageFix" result="shape"/>
<feGaussianBlur stdDeviation="1.90055" result="effect1_foregroundBlur_10271_9075"/>
</filter>
<filter id="filter4_d_10271_9075" x="94.0497" y="143.047" width="13.4448" height="13.3748" filterUnits="userSpaceOnUse" color-interpolation-filters="sRGB">
<feFlood flood-opacity="0" result="BackgroundImageFix"/>
<feColorMatrix in="SourceAlpha" type="matrix" values="0 0 0 0 0 0 0 0 0 0 0 0 0 0 0 0 0 0 127 0" result="hardAlpha"/>
<feOffset dy="1.26703"/>
<feGaussianBlur stdDeviation="1.26703"/>
<feComposite in2="hardAlpha" operator="out"/>
<feColorMatrix type="matrix" values="0 0 0 0 0.176458 0 0 0 0 0.483361 0 0 0 0 0.245877 0 0 0 1 0"/>
<feBlend mode="normal" in2="BackgroundImageFix" result="effect1_dropShadow_10271_9075"/>
<feBlend mode="normal" in="SourceGraphic" in2="effect1_dropShadow_10271_9075" result="shape"/>
</filter>
<filter id="filter5_f_10271_9075" x="95.2341" y="139.856" width="11.9144" height="11.8781" filterUnits="userSpaceOnUse" color-interpolation-filters="sRGB">
<feFlood flood-opacity="0" result="BackgroundImageFix"/>
<feBlend mode="normal" in="SourceGraphic" in2="BackgroundImageFix" result="shape"/>
<feGaussianBlur stdDeviation="1.90055" result="effect1_foregroundBlur_10271_9075"/>
</filter>
<filter id="filter6_d_10271_9075" x="114.976" y="137.43" width="13.4448" height="13.3748" filterUnits="userSpaceOnUse" color-interpolation-filters="sRGB">
<feFlood flood-opacity="0" result="BackgroundImageFix"/>
<feColorMatrix in="SourceAlpha" type="matrix" values="0 0 0 0 0 0 0 0 0 0 0 0 0 0 0 0 0 0 127 0" result="hardAlpha"/>
<feOffset dy="1.26703"/>
<feGaussianBlur stdDeviation="1.26703"/>
<feComposite in2="hardAlpha" operator="out"/>
<feColorMatrix type="matrix" values="0 0 0 0 0.176458 0 0 0 0 0.483361 0 0 0 0 0.245877 0 0 0 1 0"/>
<feBlend mode="normal" in2="BackgroundImageFix" result="effect1_dropShadow_10271_9075"/>
<feBlend mode="normal" in="SourceGraphic" in2="effect1_dropShadow_10271_9075" result="shape"/>
</filter>
<filter id="filter7_f_10271_9075" x="116.159" y="134.239" width="11.9144" height="11.8781" filterUnits="userSpaceOnUse" color-interpolation-filters="sRGB">
<feFlood flood-opacity="0" result="BackgroundImageFix"/>
<feBlend mode="normal" in="SourceGraphic" in2="BackgroundImageFix" result="shape"/>
<feGaussianBlur stdDeviation="1.90055" result="effect1_foregroundBlur_10271_9075"/>
</filter>
<filter id="filter8_d_10271_9075" x="135.902" y="131.812" width="13.4448" height="13.3748" filterUnits="userSpaceOnUse" color-interpolation-filters="sRGB">
<feFlood flood-opacity="0" result="BackgroundImageFix"/>
<feColorMatrix in="SourceAlpha" type="matrix" values="0 0 0 0 0 0 0 0 0 0 0 0 0 0 0 0 0 0 127 0" result="hardAlpha"/>
<feOffset dy="1.26703"/>
<feGaussianBlur stdDeviation="1.26703"/>
<feComposite in2="hardAlpha" operator="out"/>
<feColorMatrix type="matrix" values="0 0 0 0 0.176458 0 0 0 0 0.483361 0 0 0 0 0.245877 0 0 0 1 0"/>
<feBlend mode="normal" in2="BackgroundImageFix" result="effect1_dropShadow_10271_9075"/>
<feBlend mode="normal" in="SourceGraphic" in2="effect1_dropShadow_10271_9075" result="shape"/>
</filter>
<filter id="filter9_f_10271_9075" x="137.087" y="128.621" width="11.9144" height="11.8781" filterUnits="userSpaceOnUse" color-interpolation-filters="sRGB">
<feFlood flood-opacity="0" result="BackgroundImageFix"/>
<feBlend mode="normal" in="SourceGraphic" in2="BackgroundImageFix" result="shape"/>
<feGaussianBlur stdDeviation="1.90055" result="effect1_foregroundBlur_10271_9075"/>
</filter>
<filter id="filter10_d_10271_9075" x="156.83" y="126.194" width="13.4448" height="13.3748" filterUnits="userSpaceOnUse" color-interpolation-filters="sRGB">
<feFlood flood-opacity="0" result="BackgroundImageFix"/>
<feColorMatrix in="SourceAlpha" type="matrix" values="0 0 0 0 0 0 0 0 0 0 0 0 0 0 0 0 0 0 127 0" result="hardAlpha"/>
<feOffset dy="1.26703"/>
<feGaussianBlur stdDeviation="1.26703"/>
<feComposite in2="hardAlpha" operator="out"/>
<feColorMatrix type="matrix" values="0 0 0 0 0.176458 0 0 0 0 0.483361 0 0 0 0 0.245877 0 0 0 1 0"/>
<feBlend mode="normal" in2="BackgroundImageFix" result="effect1_dropShadow_10271_9075"/>
<feBlend mode="normal" in="SourceGraphic" in2="effect1_dropShadow_10271_9075" result="shape"/>
</filter>
<filter id="filter11_f_10271_9075" x="158.014" y="123.004" width="11.9144" height="11.8781" filterUnits="userSpaceOnUse" color-interpolation-filters="sRGB">
<feFlood flood-opacity="0" result="BackgroundImageFix"/>
<feBlend mode="normal" in="SourceGraphic" in2="BackgroundImageFix" result="shape"/>
<feGaussianBlur stdDeviation="1.90055" result="effect1_foregroundBlur_10271_9075"/>
</filter>
<filter id="filter12_d_10271_9075" x="177.755" y="120.577" width="13.4448" height="13.3748" filterUnits="userSpaceOnUse" color-interpolation-filters="sRGB">
<feFlood flood-opacity="0" result="BackgroundImageFix"/>
<feColorMatrix in="SourceAlpha" type="matrix" values="0 0 0 0 0 0 0 0 0 0 0 0 0 0 0 0 0 0 127 0" result="hardAlpha"/>
<feOffset dy="1.26703"/>
<feGaussianBlur stdDeviation="1.26703"/>
<feComposite in2="hardAlpha" operator="out"/>
<feColorMatrix type="matrix" values="0 0 0 0 0.176458 0 0 0 0 0.483361 0 0 0 0 0.245877 0 0 0 1 0"/>
<feBlend mode="normal" in2="BackgroundImageFix" result="effect1_dropShadow_10271_9075"/>
<feBlend mode="normal" in="SourceGraphic" in2="effect1_dropShadow_10271_9075" result="shape"/>
</filter>
<filter id="filter13_f_10271_9075" x="178.939" y="117.386" width="11.9144" height="11.8781" filterUnits="userSpaceOnUse" color-interpolation-filters="sRGB">
<feFlood flood-opacity="0" result="BackgroundImageFix"/>
<feBlend mode="normal" in="SourceGraphic" in2="BackgroundImageFix" result="shape"/>
<feGaussianBlur stdDeviation="1.90055" result="effect1_foregroundBlur_10271_9075"/>
</filter>
<filter id="filter14_d_10271_9075" x="198.682" y="114.96" width="13.4448" height="13.3748" filterUnits="userSpaceOnUse" color-interpolation-filters="sRGB">
<feFlood flood-opacity="0" result="BackgroundImageFix"/>
<feColorMatrix in="SourceAlpha" type="matrix" values="0 0 0 0 0 0 0 0 0 0 0 0 0 0 0 0 0 0 127 0" result="hardAlpha"/>
<feOffset dy="1.26703"/>
<feGaussianBlur stdDeviation="1.26703"/>
<feComposite in2="hardAlpha" operator="out"/>
<feColorMatrix type="matrix" values="0 0 0 0 0.176458 0 0 0 0 0.483361 0 0 0 0 0.245877 0 0 0 1 0"/>
<feBlend mode="normal" in2="BackgroundImageFix" result="effect1_dropShadow_10271_9075"/>
<feBlend mode="normal" in="SourceGraphic" in2="effect1_dropShadow_10271_9075" result="shape"/>
</filter>
<filter id="filter15_f_10271_9075" x="199.866" y="111.768" width="11.9144" height="11.8781" filterUnits="userSpaceOnUse" color-interpolation-filters="sRGB">
<feFlood flood-opacity="0" result="BackgroundImageFix"/>
<feBlend mode="normal" in="SourceGraphic" in2="BackgroundImageFix" result="shape"/>
<feGaussianBlur stdDeviation="1.90055" result="effect1_foregroundBlur_10271_9075"/>
</filter>
<filter id="filter16_d_10271_9075" x="219.609" y="109.342" width="13.4448" height="13.3748" filterUnits="userSpaceOnUse" color-interpolation-filters="sRGB">
<feFlood flood-opacity="0" result="BackgroundImageFix"/>
<feColorMatrix in="SourceAlpha" type="matrix" values="0 0 0 0 0 0 0 0 0 0 0 0 0 0 0 0 0 0 127 0" result="hardAlpha"/>
<feOffset dy="1.26703"/>
<feGaussianBlur stdDeviation="1.26703"/>
<feComposite in2="hardAlpha" operator="out"/>
<feColorMatrix type="matrix" values="0 0 0 0 0.176458 0 0 0 0 0.483361 0 0 0 0 0.245877 0 0 0 1 0"/>
<feBlend mode="normal" in2="BackgroundImageFix" result="effect1_dropShadow_10271_9075"/>
<feBlend mode="normal" in="SourceGraphic" in2="effect1_dropShadow_10271_9075" result="shape"/>
</filter>
<filter id="filter17_f_10271_9075" x="220.792" y="106.152" width="11.9144" height="11.8781" filterUnits="userSpaceOnUse" color-interpolation-filters="sRGB">
<feFlood flood-opacity="0" result="BackgroundImageFix"/>
<feBlend mode="normal" in="SourceGraphic" in2="BackgroundImageFix" result="shape"/>
<feGaussianBlur stdDeviation="1.90055" result="effect1_foregroundBlur_10271_9075"/>
</filter>
<filter id="filter18_d_10271_9075" x="58.4337" y="74.5337" width="171.052" height="70.4696" filterUnits="userSpaceOnUse" color-interpolation-filters="sRGB">
<feFlood flood-opacity="0" result="BackgroundImageFix"/>
<feColorMatrix in="SourceAlpha" type="matrix" values="0 0 0 0 0 0 0 0 0 0 0 0 0 0 0 0 0 0 127 0" result="hardAlpha"/>
<feOffset dy="1.26703"/>
<feGaussianBlur stdDeviation="0.633516"/>
<feComposite in2="hardAlpha" operator="out"/>
<feColorMatrix type="matrix" values="0 0 0 0 0.26888 0 0 0 0 0.589675 0 0 0 0 0.34144 0 0 0 1 0"/>
<feBlend mode="normal" in2="BackgroundImageFix" result="effect1_dropShadow_10271_9075"/>
<feBlend mode="normal" in="SourceGraphic" in2="effect1_dropShadow_10271_9075" result="shape"/>
</filter>
</defs>
</svg>
