<svg width="412" height="506" viewBox="0 0 412 506" fill="none" xmlns="http://www.w3.org/2000/svg">
<g clip-path="url(#clip0_1511_11473)">
<ellipse cx="331.417" cy="-344.383" rx="209.347" ry="180.299" transform="rotate(36.6495 331.417 -344.383)" fill="url(#paint0_radial_1511_11473)"/>
<g filter="url(#filter1_df_1511_11473)">
<ellipse cx="29.9223" cy="-21.2399" rx="173.056" ry="211.217" transform="rotate(36.6495 29.9223 -21.2399)" fill="url(#paint1_radial_1511_11473)" shape-rendering="crispEdges"/>
</g>
<g filter="url(#filter2_dddddd_1511_11473)">
<path d="M706.043 368.18C706.043 539.836 485.794 766.5 240 766.5C-5.79434 766.5 -286.023 556.675 -286.023 385.019C-286.023 213.363 -34.1471 96.894 211.647 96.894C457.442 96.894 706.043 196.525 706.043 368.18Z" fill="url(#paint2_radial_1511_11473)"/>
</g>
<g filter="url(#filter3_ii_1511_11473)">
<path d="M83.3746 239.56C83.3746 242.542 76.4453 242.832 66.6867 242.832C56.928 242.832 50.6532 244.795 49.6715 240.869C49.6715 237.887 53.3287 234.324 63.0873 234.324C72.846 234.324 83.3746 235.797 83.3746 239.56Z" fill="url(#paint3_linear_1511_11473)"/>
<path d="M325.841 192.441C325.841 195.423 318.912 195.713 309.153 195.713C299.394 195.713 293.12 197.676 292.138 193.75C292.138 190.768 295.795 187.205 305.554 187.205C315.312 187.205 325.841 188.678 325.841 192.441Z" fill="url(#paint4_linear_1511_11473)"/>
<path d="M450.51 258.961C450.51 261.997 439.881 262.292 424.911 262.292C409.941 262.292 400.316 264.291 398.81 260.293C398.81 257.257 404.42 253.63 419.39 253.63C434.359 253.63 450.51 255.129 450.51 258.961Z" fill="url(#paint5_linear_1511_11473)"/>
<path d="M349.728 279.242C349.728 283.579 339.098 284.002 324.129 284.002C309.159 284.002 299.533 286.857 298.028 281.146C298.028 276.809 303.638 271.627 318.607 271.627C333.577 271.627 349.728 273.769 349.728 279.242Z" fill="url(#paint6_linear_1511_11473)"/>
<path d="M44.9294 151.763C45.4597 154.532 38.904 156.067 29.5987 157.849C20.2934 159.631 14.6592 162.6 13.0248 159.133C12.4945 156.364 15.3482 152.389 24.6535 150.606C33.9588 148.824 44.2602 148.269 44.9294 151.763Z" fill="url(#paint7_linear_1511_11473)"/>
<path d="M267.597 118.586C267.597 121.622 263.493 121.917 257.714 121.917C251.934 121.917 248.218 123.916 247.637 119.918C247.637 116.882 249.802 113.255 255.582 113.255C261.361 113.255 267.597 114.754 267.597 118.586Z" fill="url(#paint8_linear_1511_11473)"/>
<path d="M397.501 291.682C397.501 294.718 393.397 295.014 387.618 295.014C381.838 295.014 378.122 297.013 377.541 293.015C377.541 289.979 379.707 286.351 385.486 286.351C391.266 286.351 397.501 287.851 397.501 291.682Z" fill="url(#paint9_linear_1511_11473)"/>
<path d="M83.3747 197.92C83.3747 204.209 68.7761 204.821 48.2166 204.821C27.6571 204.821 14.4372 208.962 12.3691 200.681C12.3691 194.392 20.074 186.878 40.6335 186.878C61.193 186.878 83.3747 189.984 83.3747 197.92Z" fill="url(#paint10_linear_1511_11473)"/>
<path d="M467.074 221.384C465.14 227.689 431.947 218.098 408.323 215.03C383.909 211.86 361.073 203.267 369.944 198.711C375.81 195.697 381.756 192.4 405.455 194.468C428.544 196.482 469.516 213.428 467.074 221.384Z" fill="url(#paint11_linear_1511_11473)"/>
<path d="M-46.5747 259.066C-36.4565 266 -26.2485 271.127 2.37737 271.127C31.0032 271.127 49.4098 278.363 52.2893 263.89C52.2893 252.9 35.6748 254.424 12.9357 239.77C-11.5404 223.996 -65.2917 246.241 -46.5747 259.066Z" fill="url(#paint12_linear_1511_11473)"/>
<path d="M306.069 140.239C313.384 145.234 320.764 148.927 341.458 148.927C362.152 148.927 375.459 154.14 377.541 143.714C377.541 135.798 365.53 136.896 349.091 126.339C331.396 114.976 292.538 131.001 306.069 140.239Z" fill="url(#paint13_linear_1511_11473)"/>
<path d="M66.7812 165.435C71.2925 170.429 75.8439 174.123 88.607 174.123C101.37 174.123 109.577 179.335 110.861 168.91C110.861 160.993 103.453 162.091 93.3145 151.535C82.4016 140.172 58.4361 156.197 66.7812 165.435Z" fill="url(#paint14_linear_1511_11473)"/>
<path d="M333.119 223.479C341.604 220.198 352.104 227.925 368.702 224.507C388.265 220.479 408.847 232.599 400.012 240.92C388.873 251.413 386.569 244.798 367.738 251.44C347.468 258.59 317.425 229.546 333.119 223.479Z" fill="url(#paint15_linear_1511_11473)"/>
<path d="M131.803 277.68C123.044 280.137 122.691 279.858 105.843 281.679C85.9856 283.826 66.6509 269.801 76.2384 262.358C88.3269 252.974 89.99 259.779 109.368 254.961C130.227 249.774 148.004 273.135 131.803 277.68Z" fill="url(#paint16_linear_1511_11473)"/>
<path d="M92.6918 337.828C83.3346 341.67 74.0492 331.983 56.3274 335.824C35.4398 340.352 16.6484 325.071 27.3477 315.057C40.8381 302.432 41.9173 310.587 62.5621 302.84C84.7839 294.502 110.001 330.72 92.6918 337.828Z" fill="url(#paint17_linear_1511_11473)"/>
<path d="M139.32 125.48C132.589 127.538 120.725 126.335 106.658 129.407C90.0792 133.029 67.7289 131.634 73.2658 127.929C80.247 123.257 84.3261 125.087 99.4558 120.721C115.741 116.022 151.77 121.672 139.32 125.48Z" fill="url(#paint18_linear_1511_11473)"/>
<path d="M277.929 317.284C285.243 312.29 292.623 308.596 313.318 308.596C334.012 308.596 347.319 303.384 349.4 313.809C349.4 321.726 337.389 320.628 320.951 331.184C303.256 342.547 264.398 326.522 277.929 317.284Z" fill="url(#paint19_linear_1511_11473)"/>
</g>
<path fill-rule="evenodd" clip-rule="evenodd" d="M278.357 167.162C278.357 159.828 274.739 153.307 269.128 149.166C269.683 148.561 270.139 147.807 270.516 146.93C271.484 147.78 272.483 148.677 273.519 149.678C273.355 150.08 273.476 150.318 274.046 150.256C274.046 150.256 278.239 153.256 278.864 152.979C279.489 152.702 279.468 151.923 279.363 151.014C280.563 151.103 281.965 150.982 282.289 150.59C282.591 150.225 280.907 146.961 279.424 146.064C279.551 145.589 279.517 144.936 278.62 145.151C276.349 142.508 274.275 140.534 272.027 138.892C272.212 135.021 271.927 129.974 270.911 123.453C270.332 121.144 268.457 119.395 265.882 118.178C265.636 116.464 265.281 114.532 264.891 112.413L264.891 112.412L264.891 112.412C264.764 111.719 264.633 111.006 264.5 110.274C265.462 109.917 265.677 109.486 264.28 109.04L264.266 108.957C264.618 106.915 262.731 102.764 262.179 102.842C261.595 102.924 260.596 103.233 259.965 104.156C259.247 103.497 258.58 103.001 257.874 103.453C257.169 103.905 256.684 109.905 256.684 109.905C256.101 110.176 255.324 110.797 256.882 111.109C256.894 111.111 256.906 111.114 256.919 111.116C256.955 112.938 256.978 114.553 256.987 116.094C256.257 116.05 255.534 116.035 254.804 116.045C254.105 116.012 253.424 116.021 252.744 116.064C252.753 114.534 252.776 112.93 252.812 111.121L252.825 111.118L252.842 111.113L252.856 111.109C254.207 110.693 253.546 110.133 253.047 109.905C253.047 109.905 252.562 103.905 251.856 103.453C251.151 103.001 250.484 103.497 249.765 104.156C249.134 103.233 248.136 102.924 247.551 102.841C247.027 102.767 245.295 106.517 245.429 108.641C244.188 109.236 244.375 109.762 245.247 110.182C245.109 110.945 244.973 111.688 244.84 112.409L244.84 112.412V112.412C244.461 114.474 244.114 116.359 243.869 118.038C241.009 119.284 239.002 121.102 238.652 123.453C238.075 127.333 237.675 132.588 237.817 137.438C234.732 139.803 232.266 142.509 229.55 146.544C229.501 146.536 229.461 146.533 229.43 146.537C228.825 146.615 228.797 147.065 228.988 147.308C227.635 148.41 226.364 151.761 226.7 152.086C227.067 152.44 228.473 152.403 229.655 152.179C229.653 153.094 229.72 153.871 230.372 154.076C231.024 154.281 234.854 150.83 234.854 150.83C235.336 150.73 235.449 150.501 235.312 150.196C236.545 148.702 237.734 147.403 238.875 146.157L238.935 146.091L238.947 146.133C239.342 147.545 239.832 148.551 240.403 149.255C234.86 153.401 231.293 159.88 231.293 167.162C231.293 179.678 241.829 189.823 254.825 189.823C267.822 189.823 278.357 179.678 278.357 167.162ZM194.561 132.967C194.593 133.078 194.626 133.187 194.66 133.292C192.836 135.971 191.886 139.146 192.14 142.476C192.793 151.019 201.123 157.35 210.746 156.615C220.369 155.88 227.642 148.359 226.99 139.815C226.763 136.855 225.616 134.16 223.812 131.933C223.918 131.55 224.013 131.151 224.1 130.738C224.724 131.069 225.346 131.39 226.038 131.61C227.196 131.978 228.377 131.825 229.17 131.037C229.86 130.351 229.349 129.199 228.941 128.279C228.869 128.117 228.801 127.963 228.742 127.819C228.342 126.833 227.176 126.032 226.312 125.715C225.733 125.503 225.185 125.303 224.608 125.144C224.643 122.061 224.356 118.234 223.611 113.512C223.083 111.466 221.322 109.92 218.907 108.853C218.979 105.662 218.475 103.05 215.721 102.882C213.418 102.742 212.92 104.701 212.728 107.247C211.474 107.09 210.276 107.025 209.055 107.035C208.042 106.984 207.067 107.027 206.075 107.134C205.497 104.58 204.72 102.645 202.425 103.141C200.063 103.653 199.692 105.755 200.009 108.379C197.722 109.173 195.912 110.313 194.996 111.781C194.27 111.426 193.137 111.654 192.511 111.886C191.351 112.316 190.358 113.042 189.369 113.765L189.369 113.765L189.367 113.766C189.259 113.846 189.151 113.925 189.042 114.004C185.545 116.542 182.366 120.364 182.52 124.915C182.56 126.108 182.775 127.375 183.593 128.303C183.829 128.57 184.058 128.843 184.287 129.115L184.287 129.115L184.287 129.116L184.288 129.116L184.288 129.116L184.288 129.116L184.288 129.117L184.288 129.117L184.289 129.117L184.289 129.117L184.289 129.118L184.289 129.118L184.289 129.118L184.29 129.118L184.29 129.119L184.29 129.119L184.29 129.119L184.291 129.119L184.291 129.12L184.291 129.12L184.291 129.12C184.896 129.84 185.5 130.559 186.218 131.174C187.027 131.866 188.06 132.345 189.091 132.594L190.35 132.899C191.111 133.42 191.946 133.763 192.892 133.54C193.505 133.335 194.033 133.145 194.546 132.918L194.561 132.967ZM143.071 121.416C143.222 121.565 143.352 121.722 143.461 121.886C143.607 121.697 143.766 121.513 143.937 121.334C143.841 120.802 143.736 120.266 143.632 119.727C143.312 118.08 142.987 116.411 142.861 114.783L142.841 114.785C142.672 114.828 142.359 114.582 142.461 114.278C142.534 114.058 142.565 113.669 142.627 112.891C142.672 112.322 142.734 111.544 142.841 110.472C142.291 110.007 141.217 108.696 141.319 107.174C141.446 105.271 148.169 98.547 152.356 106.793C152.599 107.372 153.003 108.409 153.387 109.396L153.388 109.396C153.874 110.644 154.329 111.811 154.386 111.867C154.512 111.994 154.639 112.121 154.512 112.375C154.507 112.386 154.48 112.401 154.434 112.419C155.099 114.453 155.621 116.374 155.809 117.084C156.595 117.02 157.38 116.999 158.188 117.038H158.201C158.839 117.029 159.47 117.04 160.106 117.073C160.156 116.905 160.747 114.924 161.549 112.69C161.469 112.661 161.423 112.639 161.415 112.624C161.288 112.37 161.415 112.243 161.542 112.117C161.599 112.06 162.054 110.893 162.54 109.645L162.54 109.645L162.54 109.645C162.925 108.658 163.329 107.621 163.572 107.042C167.758 98.7962 174.482 105.52 174.609 107.423C174.71 108.945 173.636 110.256 173.087 110.721L173.089 110.747C173.277 111.611 173.343 112.501 173.322 113.408C173.371 114.011 173.403 114.334 173.467 114.527C173.548 114.768 173.368 114.972 173.205 115.026C173.017 116.631 172.637 118.268 172.262 119.883C172.168 120.286 172.075 120.688 171.985 121.088C172.94 121.993 173.617 123.053 173.923 124.273C174.871 130.359 175.167 135.129 175.034 138.84C177.078 139.371 179.263 140.255 181.396 141.6C183.392 142.656 186.227 144.776 188.3 146.868C188.363 146.901 188.429 146.962 188.493 147.064C188.896 147.48 189.267 147.894 189.593 148.297C191.328 149.966 193.225 152.897 191.316 155.596C188.488 159.594 186.999 159.957 184.434 158.746C182.381 157.778 181.17 155.826 180.82 154.971C180.902 154.743 181.05 154.432 181.272 154.048C180.238 152.483 178.883 150.885 176.656 149.782C175.54 148.983 174.436 148.244 173.378 147.554C173.274 147.774 173.164 147.984 173.048 148.186C178.731 152.616 182.166 159.476 181.647 166.897C180.798 179.017 169.722 188.042 156.909 187.056C144.095 186.069 134.395 175.445 135.243 163.325C135.669 157.246 138.668 151.945 143.169 148.295C140.552 146.507 137.379 142.949 135.651 137.95C134.764 135.903 133.887 132.533 133.567 129.628C133.398 129.619 133.157 129.433 133.453 128.74C132.861 126.541 132.616 121.864 136.371 120.748C140.284 119.584 141.905 119.832 143.071 121.416Z" fill="url(#paint20_linear_1511_11473)" fill-opacity="0.14"/>
<g filter="url(#filter4_i_1511_11473)">
<g filter="url(#filter5_d_1511_11473)">
<path d="M218.964 94.9899C219.195 98.7818 218.987 102.167 215.839 102.359C212.69 102.551 212.916 98.8194 212.685 95.0275C212.455 91.2356 210.298 89.4569 215.914 89.1151C219.062 88.9235 218.733 91.198 218.964 94.9899Z" fill="#BDD4D4"/>
<path d="M200.573 94.3415C199.769 98.0544 199.46 101.432 202.543 102.1C205.626 102.767 205.969 99.0449 206.773 95.3319C207.577 91.619 209.978 90.1883 204.48 88.9979C201.397 88.3305 201.377 90.6286 200.573 94.3415Z" fill="#BDD4D4"/>
<path d="M190.706 72.2849C191.824 72.0143 192.937 73.0494 193.759 73.5764C194.305 74.2235 194.784 75.1931 194.968 76.0201C195.081 76.5298 195.058 77.0719 195.169 77.5799C195.271 78.0476 195.375 78.4843 195.367 78.9685C195.358 79.5522 195.511 80.1147 195.525 80.6956C195.54 81.3218 195.575 81.9773 195.68 82.5948C195.884 83.7944 195.865 84.9871 195.949 86.1976C196.031 87.3878 195.998 88.5885 196.02 89.7793C196.041 90.8555 196.208 92.1539 195.564 93.0818C194.977 93.9277 193.409 93.6443 192.629 93.3552C191.342 92.8777 190.259 92.0352 189.16 91.2374C185.663 88.6989 182.485 84.8772 182.638 80.3261C182.678 79.133 182.893 77.8655 183.711 76.9381C184.57 75.964 185.345 74.9167 186.336 74.0673C187.145 73.3746 188.179 72.8961 189.209 72.6467L190.706 72.2849Z" fill="#271B1B"/>
<path d="M196.168 73.1257C195.088 72.4499 194.213 72.1026 193.01 71.7011C191.967 71.4551 191.057 71.8978 190.234 72.5097C189.229 73.2572 188.924 74.3395 189.484 75.4587C189.869 76.2294 190.869 77.0134 191.647 77.3857C192.727 77.9027 193.864 78.8399 195.098 78.8861C195.664 78.9072 196.26 79.0244 196.773 78.7221C197.28 78.4238 197.627 78.1295 198.042 77.7149C198.821 76.9364 198.814 76.0308 198.194 75.0279C197.608 74.0818 197.081 73.6967 196.168 73.1257Z" fill="#BDD4D4"/>
<path d="M221.384 75.9641C220.627 76.3936 219.936 76.4081 219.231 77.0326C218.204 79.3287 221.026 80.5294 222.539 80.6499C223.14 80.6977 223.799 80.3278 224.41 80.179C225.107 80.0094 225.746 79.7766 226.43 79.5259C227.294 79.2093 228.46 78.4084 228.86 77.4223C229.25 76.4614 230.099 75.0109 229.288 74.2041C228.495 73.416 227.314 73.2632 226.156 73.6314C224.996 74.0003 224.034 74.6522 222.922 75.1634C222.395 75.4058 221.897 75.6735 221.384 75.9641Z" fill="#BDD4D4"/>
<path d="M203.303 58.1628C207.218 55.9942 210.05 55.4945 214.522 58.1081C217.715 59.1839 219.572 63.4614 220.06 64.7506C220.472 65.8413 221.044 66.8645 221.399 67.9891C221.89 69.547 222.394 71.0729 222.774 72.6711C223.499 75.7119 224.178 78.7679 224.296 81.93C224.382 84.2494 224.27 86.5749 224.037 88.8921C223.905 90.2086 223.568 91.6339 222.623 92.5243C221.641 93.4489 220.756 94.1763 219.603 94.815C217.473 95.9949 215.182 96.7669 212.818 97.0619C210.622 97.3359 208.367 97.5698 206.168 97.4019C205.177 97.3263 204.198 97.1547 203.225 96.9722C202.363 96.8105 201.658 96.3639 200.841 96.0976C199.606 95.6948 198.677 94.6331 197.869 93.5988C197.004 92.4917 196.286 91.4109 195.896 89.985C195.386 88.1175 195.044 86.2536 195.195 84.274C195.279 83.1815 195.273 82.0706 195.357 80.9672C195.444 79.8222 195.621 78.7018 195.709 77.5531C195.903 75.0102 196.182 72.3095 196.887 69.8633C197.158 68.921 197.276 67.8097 197.702 66.9334C197.89 66.545 198.05 65.9948 198.169 65.5727C198.339 64.9742 198.658 64.4179 198.888 63.8433C199.385 62.5972 200.151 61.4441 200.929 60.3975C201.535 59.5827 202.434 58.6439 203.303 58.1628Z" fill="url(#paint21_linear_1511_11473)"/>
<path d="M210.086 69.4061C209.751 69.1381 209.165 69.1449 208.737 69.1744C208.052 69.6211 208.859 70.3909 209.601 70.0802C209.874 69.9658 210.471 69.7144 210.086 69.4061Z" fill="#0B080A" stroke="#0B080A" stroke-width="0.65443" stroke-linecap="round"/>
<path d="M209.972 72.7078C210.006 72.3701 210.024 72.0298 210.049 71.6913C209.764 71.4875 209.394 71.2404 209.162 70.9951C208.893 70.7115 208.635 71.0068 208.36 71.1134C208.037 71.2386 207.897 71.3341 207.872 71.6697C207.85 71.9619 207.814 72.2804 207.794 72.5415C207.695 72.8994 208.057 73.0105 208.399 73.0366L209.336 73.1081C209.609 73.0787 209.943 72.989 209.972 72.7078Z" fill="#C7A98E"/>
<path d="M212.414 71.7772C211.217 72.4044 209.175 71.7533 209.052 70.33C208.634 71.5519 207.148 72.2317 205.592 71.0149" stroke="#0B080A" stroke-width="0.981645" stroke-linecap="round"/>
</g>
<path d="M216.293 60.8803C217.809 61.3118 218.976 59.8275 219.682 58.6702C220.16 57.5344 219.33 56.6242 218.349 56.2685C217.19 55.8481 215.189 57.0987 214.865 58.3024C214.75 58.729 215.162 58.8066 215.425 59.2055C215.711 59.6409 215.767 60.7308 216.293 60.8803Z" fill="#87624E"/>
<path d="M200.722 56.083C201.936 56.3126 203.393 57.8464 203.327 59.1142C203.232 60.3537 202.289 61.2975 200.97 60.8679C200.301 60.65 199.681 60.2608 199.217 59.7204C198.861 59.3051 198.35 58.7444 198.344 58.1588C198.33 56.8397 199.446 55.8418 200.722 56.083Z" fill="#87624E"/>
<g opacity="0.5" filter="url(#filter6_i_1511_11473)">
<ellipse cx="17.4753" cy="15.5147" rx="17.4753" ry="15.5147" transform="matrix(-0.997098 -0.0761305 -0.0761305 0.997098 228.289 49.9564)" fill="#A2FFFA" fill-opacity="0.5"/>
</g>
<g opacity="0.65" filter="url(#filter7_f_1511_11473)">
<path d="M201.754 52.1492C200.054 53.4572 197.721 55.9607 195.764 60.5796C195.745 60.6255 195.716 60.667 195.679 60.7013C195.643 60.7356 195.599 60.7621 195.552 60.7789C195.504 60.7956 195.454 60.8024 195.404 60.7987C195.353 60.795 195.304 60.781 195.26 60.7575L194.272 60.2297C194.197 60.1902 194.14 60.1257 194.11 60.048C194.08 59.9702 194.079 59.8843 194.107 59.8056C194.56 58.5581 196.639 53.535 201.392 51.5511C201.472 51.5158 201.562 51.5105 201.645 51.5361C201.728 51.5617 201.799 51.6166 201.844 51.6903C201.888 51.764 201.904 51.8513 201.887 51.9359C201.871 52.0205 201.823 52.0963 201.754 52.1492Z" fill="#BDFFEC"/>
</g>
<g filter="url(#filter8_i_1511_11473)">
<path d="M219.039 68.3263L198.215 68.4338C192.797 68.4617 193.194 83.707 194.512 91.8792C195.829 100.051 221.437 100.626 223.728 91.7283C226.856 71.921 221.905 67.8739 219.039 68.3263Z" fill="#99A2A2"/>
<path d="M216.698 97.269C216.643 86.7132 201.585 86.6775 201.64 97.3467L201.705 97.3594C204.501 97.9001 206.723 98.3299 209.173 98.2059C211.569 98.2255 213.878 97.957 216.698 97.269Z" fill="#707070" fill-opacity="0.69" stroke="#666666" stroke-opacity="0.24" stroke-width="0.327215"/>
<path d="M224.47 75.9006C212.707 78.2022 205.784 78.3859 194.001 76.0579C194.56 70.6979 195.964 68.8636 197.843 68.4049L219.96 68.2907C222.67 69.0625 223.861 71.9749 224.47 75.9006Z" fill="#707070" fill-opacity="0.69"/>
<rect x="200.933" y="74.4508" width="16.5082" height="9.87804" rx="3.89121" transform="rotate(-0.295774 200.933 74.4508)" fill="#B7D9D7"/>
</g>
<path d="M279.423 59.2813C273.642 66.2223 269.321 68.7852 260.681 72.2103C260.287 71.4895 260.347 69.7957 260.793 69.0545C264.749 62.4796 269.026 60.1482 274.209 55.0029L279.423 59.2813Z" fill="#BDD4D4"/>
<path d="M279.543 59.1764C281.025 58.2794 282.709 55.0159 282.407 54.6508C282.083 54.2581 280.681 54.1373 279.482 54.2264C279.586 53.3175 279.607 52.5382 278.982 52.2614C278.357 51.9847 274.164 54.9842 274.164 54.9842C271.819 54.7301 277.068 59.5506 278.552 60.0369C279.63 60.3899 279.678 59.6825 279.543 59.1764Z" fill="#B4BDBD"/>
<path d="M229.265 58.0908C234.229 65.6367 238.236 68.6686 246.437 73.042C246.909 72.3699 247.039 70.6801 246.679 69.8935C243.487 62.9162 239.499 60.1193 234.926 54.4247L229.265 58.0908Z" fill="#BDD4D4"/>
<path d="M226.819 53.1545C227.185 52.8006 228.591 52.8379 229.774 53.0612C229.772 52.1462 229.839 51.3695 230.491 51.1646C231.142 50.9598 234.973 54.4111 234.973 54.4111C237.425 54.9158 230.306 58.8005 229.549 58.7035C228.943 58.6259 228.915 58.1759 229.106 57.9327C227.753 56.8309 226.483 53.4793 226.819 53.1545Z" fill="#B4BDBD"/>
<path d="M265.286 79.3046H256.973C257.159 85.7458 257.151 89.6281 256.973 96.9912H264.261C265.794 88.0976 267.499 81.6283 265.286 79.3046Z" fill="#BDD4D4"/>
<path d="M262.298 102.399C261.713 102.316 260.715 102.007 260.084 101.084C259.365 101.743 258.698 102.239 257.993 101.787C257.287 101.335 256.802 95.3355 256.802 95.3355C256.219 95.0641 255.442 94.4434 257.001 94.1317C258.949 93.742 268.492 94.9111 264.37 96.2101C264.782 98.2238 262.856 102.478 262.298 102.399Z" fill="#B4BDBD"/>
<path d="M244.681 79.3044H252.994C252.808 85.7457 252.816 89.628 252.994 96.991H245.706C244.173 88.0975 242.468 81.6282 244.681 79.3044Z" fill="#BDD4D4"/>
<path d="M249.883 101.085C249.252 102.008 248.254 102.317 247.669 102.399C247.145 102.473 245.413 98.724 245.547 96.5999C241.757 94.7814 251.285 93.6123 252.974 94.1319C254.325 94.5476 253.664 95.1077 253.165 95.3359C253.165 95.3359 252.68 101.336 251.974 101.788C251.269 102.24 250.602 101.743 249.883 101.085Z" fill="#B4BDBD"/>
<path d="M264.671 37.6076C264.669 37.6063 264.667 37.605 264.666 37.6035L262.057 35.464C262.057 35.464 261.848 30.2584 262.057 28.7272C262.266 27.1961 262.684 24.8994 263.834 25.3588C264.984 25.8182 263.834 30.5644 265.089 30.2583C266.344 29.9521 267.285 23.2152 268.017 21.9903C268.749 20.7654 271.172 23.0922 270.212 25.3588C269.255 27.619 264.095 37.0968 264.666 37.6035L264.671 37.6076Z" fill="#4E4545"/>
<path d="M245.405 37.6077C245.407 37.6064 245.409 37.6051 245.411 37.6037L248.08 35.4642C248.08 35.4642 248.294 30.2585 248.08 28.7273C247.866 27.1962 247.438 24.8995 246.261 25.3589C245.085 25.8183 246.261 30.5645 244.978 30.2584C243.694 29.9522 242.731 23.2153 241.982 21.9904C241.233 20.7655 238.753 23.0923 239.735 25.3589C240.714 27.6192 245.995 37.0969 245.411 37.6037L245.405 37.6077Z" fill="#4E4545"/>
<path d="M267.775 31.5349C264.82 31.2394 263.934 36.3609 263.934 36.3609L266.889 40.596C266.889 40.596 273.094 40.2021 273.783 36.3609C274.472 32.5197 273.783 30.6484 272.7 30.3529C271.616 30.0575 270.73 31.8303 267.775 31.5349Z" fill="#A9764F"/>
<path d="M267.948 35.964C266.224 35.8451 265.707 37.9067 265.707 37.9067L267.431 39.6115C267.431 39.6115 271.052 39.4529 271.455 37.9067C271.857 36.3605 271.455 35.6072 270.823 35.4883C270.19 35.3693 269.673 36.083 267.948 35.964Z" fill="#CB9F7C"/>
<path d="M241.853 31.535C244.807 31.2395 245.694 36.361 245.694 36.361L242.739 40.5962C242.739 40.5962 236.534 40.2022 235.845 36.361C235.155 32.5199 235.845 30.6485 236.928 30.3531C238.011 30.0576 238.898 31.8304 241.853 31.535Z" fill="#A9764F"/>
<path d="M241.679 35.964C243.404 35.8451 243.921 37.9067 243.921 37.9067L242.197 39.6115C242.197 39.6115 238.575 39.4529 238.173 37.9067C237.771 36.3605 238.173 35.6072 238.805 35.4883C239.438 35.3693 239.955 36.083 241.679 35.964Z" fill="#CB9F7C"/>
<ellipse cx="255.07" cy="45.9799" rx="14.3798" ry="13.2963" fill="#A9764F"/>
<g opacity="0.5" filter="url(#filter9_i_1511_11473)">
<ellipse cx="23.2702" cy="21.9983" rx="23.2702" ry="21.9983" transform="matrix(0.997051 -0.0767478 0.0698438 0.997558 230.354 17.6804)" fill="#A2FFFA" fill-opacity="0.5"/>
</g>
<g opacity="0.65" filter="url(#filter10_f_1511_11473)">
<path d="M238.589 25.9471C237.275 27.9276 235.719 31.3503 235.286 36.7288C235.282 36.7822 235.266 36.835 235.24 36.8837C235.214 36.9325 235.178 36.9761 235.134 37.0118C235.091 37.0475 235.04 37.0744 234.987 37.0908C234.933 37.1071 234.878 37.1127 234.824 37.1069L233.613 36.9761C233.522 36.9664 233.44 36.9252 233.382 36.8598C233.324 36.7944 233.293 36.7093 233.295 36.6195C233.334 35.197 233.753 29.3678 238.005 25.4965C238.076 25.4294 238.168 25.3881 238.263 25.3804C238.359 25.3726 238.451 25.3991 238.523 25.4546C238.595 25.5101 238.641 25.5909 238.654 25.6816C238.666 25.7724 238.643 25.8669 238.589 25.9471Z" fill="#BDFFEC"/>
</g>
<g filter="url(#filter11_i_1511_11473)">
<path d="M265.985 54.6804H242.993C237.011 54.6804 237.362 72.3237 238.77 81.788C240.178 91.2524 268.449 92.0703 271.03 81.788C274.596 58.8867 269.153 54.1741 265.985 54.6804Z" fill="#99A2A2"/>
<path d="M263.235 88.1572C263.235 75.9423 246.609 75.811 246.609 88.1572L246.681 88.1723C249.765 88.8147 252.215 89.3253 254.922 89.1964C257.567 89.2334 260.118 88.9365 263.235 88.1572Z" fill="#707070" fill-opacity="0.69" stroke="#666666" stroke-opacity="0.24" stroke-width="0.327215"/>
<path d="M271.938 63.4776C258.938 66.0707 251.293 66.2419 238.296 63.4776C238.944 57.2787 240.504 55.1645 242.582 54.6449H267.002C269.99 55.5541 271.289 58.9313 271.938 63.4776Z" fill="#707070" fill-opacity="0.69"/>
<rect x="245.96" y="61.6592" width="18.227" height="11.4305" rx="3.89121" fill="#B7D9D7"/>
</g>
<g filter="url(#filter12_d_1511_11473)">
<path d="M144.584 70.714C141.726 76.8555 146.221 81.8149 142.696 84.2278C139.171 86.6408 135.155 82.7699 133.984 80.3494C132.812 77.9289 134.276 70.7368 135.769 67.2913C138.571 59.1848 145.173 54.8693 147.042 55.7389C149.942 57.088 146.759 62.964 144.584 70.714Z" fill="#BDD4D3"/>
<path d="M133.572 76.5007C133.267 75.7903 133.529 75.6127 133.699 75.6127C139.788 75.6127 143.34 76.8813 144.355 77.5156C144.609 78.4036 144.862 80.6871 143.847 82.7169C142.579 85.2542 141.183 85.8885 136.489 84.493C132.734 83.3766 132.98 78.6996 133.572 76.5007Z" fill="#B4BEBE" stroke="#B4BDBD" stroke-width="0.327215"/>
<path d="M176.774 55.4588C182.844 52.4522 182.437 45.7716 186.697 46.0922C190.956 46.4127 191.67 51.9446 191.071 54.5662C190.472 57.1877 184.833 61.8855 181.514 63.6412C174.259 68.2161 166.408 67.456 165.493 65.6089C164.073 62.743 170.232 60.1474 176.774 55.4588Z" fill="#BDD4D3"/>
<path d="M188.789 57.7319C188.589 58.4786 188.273 58.4562 188.14 58.3517C183.353 54.5885 181.344 51.3959 180.938 50.2701C181.288 49.4151 182.5 47.4631 184.552 46.4945C187.117 45.2837 188.606 45.6474 191.434 49.6453C193.696 52.8436 190.613 56.369 188.789 57.7319Z" fill="#B4BEBE" stroke="#B4BDBD" stroke-width="0.327215"/>
<path d="M143.655 95.8733C142.073 92.0781 143.445 87.5153 144.163 83.298C149.369 81.6677 152.037 82.2298 156.002 87.8679C156.002 87.8679 153.116 99.1449 151.277 99.0261C149.438 98.9074 144.911 98.8867 143.655 95.8733Z" fill="#BDD4D3"/>
<path d="M142.579 90.9632C142.477 90.6587 142.79 90.4134 142.959 90.4557C146.977 91.0054 154.529 92.663 154.631 92.866C154.757 93.1197 154.631 93.2466 154.504 93.3735C154.402 93.4749 153.024 97.137 152.474 98.4479C148.288 106.694 141.564 99.9704 141.437 98.0674C141.336 96.5451 142.41 95.2342 142.959 94.769C142.706 92.2318 142.706 91.3438 142.579 90.9632Z" fill="#B4BDBD" stroke="#B4BDBD" stroke-width="0.327215"/>
<path d="M172.852 95.7075C174.295 91.8573 172.757 87.3473 171.887 83.1589C166.625 81.7188 163.98 82.3775 160.221 88.1559C160.221 88.1559 163.515 99.3206 165.349 99.1351C167.183 98.9496 171.706 98.7645 172.852 95.7075Z" fill="#BDD4D3"/>
<path d="M173.585 90.7139C173.687 90.4095 173.374 90.1641 173.205 90.2064C169.188 90.7561 161.635 92.4138 161.534 92.6167C161.407 92.8705 161.534 92.9973 161.661 93.1242C161.762 93.2257 163.141 96.8878 163.69 98.1987C167.877 106.445 174.6 99.7211 174.727 97.8182C174.829 96.2958 173.755 94.9849 173.205 94.5198C173.459 91.9825 173.459 91.0945 173.585 90.7139Z" fill="#B4BDBD" stroke="#B4BDBD" stroke-width="0.327215"/>
<path d="M176.353 45.4191C176.507 53.8195 174.214 56.8231 158.628 57.1098C142.197 57.412 140.641 54.4793 140.486 46.0788C140.332 37.6783 148.197 28.6551 158.102 28.4729C168.006 28.2907 176.198 37.0186 176.353 45.4191Z" fill="#AB764E"/>
<path d="M173.01 36.3779C178.741 30.3812 169.216 24.4307 165.915 30.9L173.01 36.3779Z" fill="#AB764E"/>
<path d="M171.517 35.2741C175.367 31.2466 168.969 27.25 166.752 31.595L171.517 35.2741Z" fill="#CB9F7C"/>
<path d="M143.789 36.9155C137.841 31.1337 147.141 24.8369 150.677 31.1804L143.789 36.9155Z" fill="#AB764E"/>
<path d="M145.24 35.7578C141.245 31.8746 147.491 27.6454 149.866 31.906L145.24 35.7578Z" fill="#CB9F7C"/>
<g opacity="0.5" filter="url(#filter13_i_1511_11473)">
<ellipse cx="23.2702" cy="21.9983" rx="23.2702" ry="21.9983" transform="matrix(0.997051 -0.0767478 0.0698438 0.997558 133.825 19.9713)" fill="#A2FFFA" fill-opacity="0.5"/>
</g>
<g opacity="0.65" filter="url(#filter14_f_1511_11473)">
<path d="M142.06 28.2382C140.747 30.2186 139.19 33.6413 138.757 39.0198C138.753 39.0732 138.738 39.126 138.711 39.1748C138.685 39.2235 138.649 39.2672 138.606 39.3028C138.562 39.3385 138.512 39.3654 138.459 39.3818C138.405 39.3982 138.349 39.4037 138.295 39.3979L137.085 39.2671C136.994 39.2574 136.912 39.2162 136.854 39.1508C136.795 39.0855 136.765 39.0003 136.767 38.9105C136.806 37.488 137.225 31.6588 141.477 27.7875C141.547 27.7204 141.639 27.6791 141.735 27.6714C141.83 27.6636 141.923 27.6901 141.995 27.7456C142.067 27.8011 142.113 27.8819 142.125 27.9726C142.137 28.0634 142.114 28.1579 142.06 28.2382Z" fill="#BDFFEC"/>
</g>
<g filter="url(#filter15_i_1511_11473)">
<path d="M169.115 54.4925H146.659C140.816 54.4925 141.16 71.7243 142.534 80.9678C143.909 90.2113 171.521 91.0101 174.041 80.9678C177.524 58.6008 172.208 53.998 169.115 54.4925Z" fill="#99A2A2"/>
</g>
</g>
<path d="M166.429 87.1882C166.429 75.2583 150.191 75.1301 150.191 87.1882L150.261 87.2029C153.273 87.8303 155.666 88.329 158.31 88.2031C160.893 88.2392 163.384 87.9493 166.429 87.1882Z" fill="#707070" fill-opacity="0.69" stroke="#666666" stroke-opacity="0.24" stroke-width="0.327215"/>
<path d="M174.928 63.0845C162.231 65.6171 154.765 65.7843 142.071 63.0845C142.705 57.0302 144.228 54.9653 146.258 54.4579H170.108C173.026 55.3459 174.294 58.6443 174.928 63.0845Z" fill="#707070" fill-opacity="0.69"/>
<rect x="149.556" y="61.3083" width="17.8018" height="11.1638" rx="3.89121" fill="#B7D9D7"/>
</g>
<g filter="url(#filter16_d_1511_11473)">
<path d="M-23.1894 84.6564C-33.8601 67.651 -33.226 58.2302 -16.9638 41.6805C3.27093 24.2339 28.7417 20.1897 34.1604 18.4588C47.2138 14.2892 66.4685 22.3501 78.6087 47.3179C82.389 55.0925 84.7119 57.1117 92.1289 70.4444C103.595 91.0554 91.2565 130.589 63.3835 127.112C26.1973 122.287 -11.3329 102.416 -23.1894 84.6564Z" fill="url(#paint22_radial_1511_11473)"/>
<mask id="mask0_1511_11473" style="mask-type:alpha" maskUnits="userSpaceOnUse" x="-31" y="17" width="128" height="111">
<path d="M-23.1894 84.6561C-33.8602 67.6507 -33.2261 58.23 -16.9639 41.6802C3.27087 24.2337 28.7416 20.1894 34.1604 18.4585C47.2138 14.2889 66.4684 22.3499 78.6086 47.3176C82.3889 55.0922 84.7118 57.1115 92.1288 70.4441C103.595 91.0551 91.2565 130.589 63.3835 127.112C26.1973 122.287 -11.333 102.416 -23.1894 84.6561Z" fill="#A8458E"/>
</mask>
<g mask="url(#mask0_1511_11473)">
<path d="M46.1805 60.7892L43.308 57.3976C41.0754 54.7614 37.3831 53.9303 34.2968 55.3692C31.0496 56.8832 29.3423 60.4988 30.2117 64.0206L31.0298 67.3348C31.8942 70.8367 34.2968 73.7729 37.5543 75.3085L48.924 80.6681C51.928 82.0842 55.4261 81.8423 58.1638 80.0291L59.6573 79.04C62.001 77.4878 63.138 74.6373 62.5222 71.8579C61.9843 69.4303 60.1947 67.4614 57.8353 66.7015L52.377 64.9435C49.971 64.1686 47.8227 62.7283 46.1805 60.7892Z" fill="#FFD6F4"/>
<path d="M27.9542 34.1861L19.0445 34.2695C16.3133 34.295 13.7145 33.0128 12.0451 30.8161C8.64194 26.3378 10.2708 19.898 15.3623 17.7019L37.5 8.15335C48.9242 3.22579 62.3338 7.59544 68.8863 18.3809L74.0146 26.822C78.0537 33.4704 76.2906 42.0565 69.9903 46.4208C64.9345 49.9229 58.185 49.8075 53.1498 46.1329L43.7672 39.2857C39.1584 35.9222 33.6108 34.1332 27.9542 34.1861Z" fill="#FFD6F4"/>
<path d="M82.2501 80.8392L83.404 77.6881C85.9488 70.7387 94.2617 68.0153 100.518 72.0813C104.445 74.6337 106.513 79.272 105.774 83.8717L104.604 91.155C104.332 92.8496 103.769 94.4797 102.94 95.9731L95.1618 109.984C92.3857 114.984 85.0609 114.526 82.7798 109.209C82.0099 107.414 82.0197 105.388 82.8069 103.623L83.349 102.408C84.3546 100.153 84.4828 97.591 83.7088 95.2214L82.0978 90.2898C81.0876 87.1972 81.1412 83.8672 82.2501 80.8392Z" fill="#FFD6F4"/>
</g>
<path d="M30.4314 48.0451C25.3755 50.5155 3.34006 63.1909 -4.13184 70.1495L70.1936 108.036C74.5872 104.08 72.4093 77.1682 69.5135 72.9378C65.0477 66.4139 65.435 73.4286 54.2715 52.3894C47.2466 39.1499 34.4761 46.0689 30.4314 48.0451Z" fill="#D775BD" fill-opacity="0.45"/>
<path d="M70.054 110.11C63.0856 123.326 41.0296 119.614 25.27 110.645C4.42402 101.453 -12.648 88.3587 -8.05131 75.3013C-3.45458 62.2439 21.6043 59.5317 40.7856 68.2161C64.2479 78.8387 76.8984 90.924 70.054 110.11Z" fill="#D775BD"/>
<path d="M-16.3279 121.211C-37.5888 123.727 -45.4886 130.914 -56.1699 148.632C-61.5172 161.373 -64.4153 169.999 -69.1342 192.07L-53.6705 226.414L-4.30377 242.796C11.9663 224.111 1.37043 200.258 1.6116 184.76C-0.0526547 166.007 3.85125 157.426 15.3666 142.079C18.4272 138.699 40.1095 109.106 33.9307 104.944L19.3873 98.0618C20.9387 108.863 7.20751 116.65 -16.3279 121.211Z" fill="url(#paint23_linear_1511_11473)"/>
<path d="M51.1428 107.217C48.4216 113.176 38.4835 113.159 26.4612 106.53C14.4389 99.9003 8.26754 92.6017 10.9887 86.6431C12.9124 82.4307 25.2556 77.2096 37.2779 83.8391C49.3002 90.4686 52.6396 100.959 51.1428 107.217Z" fill="#E2B0D5"/>
<mask id="mask1_1511_11473" style="mask-type:alpha" maskUnits="userSpaceOnUse" x="-70" y="80" width="122" height="163">
<path d="M-16.3227 120.738C-37.5835 123.254 -45.4834 130.441 -56.1647 148.158C-61.5119 160.9 -64.41 169.526 -69.1289 191.596L-53.6652 225.941L-4.29852 242.323C11.9715 223.638 1.37568 199.785 1.61685 184.287C-0.0474044 165.533 3.8565 156.953 15.3718 141.606C18.4324 138.226 40.1148 108.632 33.9359 104.471L19.3925 97.5885C20.9439 108.39 7.21276 116.177 -16.3227 120.738Z" fill="url(#paint24_linear_1511_11473)"/>
<path d="M51.1477 106.744C48.4266 112.703 38.4885 112.686 26.4662 106.057C14.4439 99.4273 8.27249 92.1287 10.9937 86.1701C12.9174 81.9577 25.2605 76.7366 37.2828 83.3661C49.3051 89.9956 52.6446 100.486 51.1477 106.744Z" fill="#E2B0D5"/>
</mask>
<g mask="url(#mask1_1511_11473)">
<g filter="url(#filter17_f_1511_11473)">
<path d="M2.71417 121.488C2.30676 121.772 1.79583 121.669 1.56261 121.306C1.32939 120.942 1.43167 120.41 1.83908 120.125C2.24649 119.84 2.75742 119.944 2.99064 120.307C3.22386 120.67 3.12158 121.203 2.71417 121.488Z" stroke="white" stroke-opacity="0.26" stroke-width="0.542447"/>
<path d="M1.80721 121.546C-0.852941 124.057 -2.90643 125.626 -5.69629 127.015L-5.55063 131.069C-7.6587 132.628 -21.9475 136.702 -22.9497 136.847" stroke="white" stroke-opacity="0.26" stroke-width="0.542447"/>
<path d="M10.5282 124.97C10.2723 125.432 9.7651 125.569 9.41747 125.365C9.06984 125.162 8.92523 124.644 9.18107 124.182C9.43691 123.72 9.94416 123.583 10.2918 123.787C10.6394 123.99 10.784 124.509 10.5282 124.97Z" stroke="white" stroke-opacity="0.26" stroke-width="0.542447"/>
<path d="M4.95719 139.419C4.77223 139.921 4.28978 140.139 3.91858 139.999C3.54737 139.859 3.32402 139.374 3.50898 138.872C3.69394 138.37 4.17639 138.152 4.54759 138.292C4.91879 138.433 5.14215 138.917 4.95719 139.419Z" stroke="white" stroke-opacity="0.26" stroke-width="0.542447"/>
<path d="M2.52074 142.582C2.2649 143.044 1.75765 143.18 1.41002 142.977C1.06239 142.773 0.917788 142.255 1.17362 141.793C1.42946 141.331 1.93671 141.195 2.28434 141.398C2.63197 141.602 2.77657 142.12 2.52074 142.582Z" stroke="white" stroke-opacity="0.26" stroke-width="0.542447"/>
<path d="M23.928 112.317C23.6722 112.779 23.1649 112.915 22.8173 112.712C22.4697 112.508 22.3251 111.99 22.5809 111.528C22.8367 111.066 23.344 110.929 23.6916 111.133C24.0393 111.337 24.1839 111.855 23.928 112.317Z" stroke="white" stroke-opacity="0.26" stroke-width="0.542447"/>
<path d="M27.0258 119.756C26.77 120.218 26.2627 120.355 25.9151 120.151C25.5675 119.948 25.4229 119.43 25.6787 118.968C25.9345 118.506 26.4418 118.369 26.7894 118.573C27.137 118.776 27.2816 119.295 27.0258 119.756Z" stroke="white" stroke-opacity="0.26" stroke-width="0.542447"/>
<path d="M21.0839 118.157C20.8281 118.619 20.3208 118.756 19.9732 118.552C19.6256 118.348 19.481 117.83 19.7368 117.368C19.9926 116.906 20.4999 116.77 20.8475 116.973C21.1951 117.177 21.3397 117.695 21.0839 118.157Z" stroke="white" stroke-opacity="0.26" stroke-width="0.542447"/>
<path d="M7.74248 128.806C7.48664 129.268 6.97939 129.405 6.63176 129.201C6.28413 128.998 6.13953 128.48 6.39536 128.018C6.6512 127.556 7.15845 127.419 7.50608 127.623C7.85371 127.826 7.99832 128.345 7.74248 128.806Z" stroke="white" stroke-opacity="0.26" stroke-width="0.542447"/>
<path d="M1.38838 143.055C-0.958062 146.679 -1.68885 147.848 -3.12127 149.184L-6.45242 149.761" stroke="white" stroke-opacity="0.26" stroke-width="0.542447"/>
<path d="M7.75103 128.901L10.6366 129.398L16.914 114.942C19.577 114.554 21.0005 114.379 22.7102 112.487" stroke="white" stroke-opacity="0.26" stroke-width="0.542447"/>
<path d="M16.8765 120.115C20.5145 121.027 22.4497 121.071 25.6541 120.045" stroke="white" stroke-opacity="0.26" stroke-width="0.542447"/>
</g>
<path d="M2.71417 121.488C2.30676 121.772 1.79583 121.669 1.56261 121.306C1.32939 120.942 1.43167 120.41 1.83908 120.125C2.24649 119.84 2.75742 119.944 2.99064 120.307C3.22386 120.67 3.12158 121.203 2.71417 121.488Z" stroke="white" stroke-opacity="0.26" stroke-width="0.542447"/>
<path d="M1.80721 121.546C-0.852941 124.057 -2.90643 125.626 -5.69629 127.015L-5.55063 131.069C-7.6587 132.628 -21.9475 136.702 -22.9497 136.847" stroke="white" stroke-opacity="0.26" stroke-width="0.542447"/>
<path d="M10.5282 124.97C10.2723 125.432 9.7651 125.569 9.41747 125.365C9.06984 125.162 8.92523 124.644 9.18107 124.182C9.43691 123.72 9.94416 123.583 10.2918 123.787C10.6394 123.99 10.784 124.509 10.5282 124.97Z" stroke="white" stroke-opacity="0.26" stroke-width="0.542447"/>
<path d="M4.95701 139.419C4.77205 139.921 4.28959 140.139 3.91839 139.999C3.54719 139.859 3.32384 139.374 3.5088 138.872C3.69375 138.37 4.17621 138.152 4.54741 138.292C4.91861 138.433 5.14196 138.917 4.95701 139.419Z" stroke="white" stroke-opacity="0.26" stroke-width="0.542447"/>
<path d="M2.52074 142.582C2.2649 143.044 1.75765 143.18 1.41002 142.977C1.06239 142.773 0.917788 142.255 1.17362 141.793C1.42946 141.331 1.93671 141.195 2.28434 141.398C2.63197 141.602 2.77657 142.12 2.52074 142.582Z" stroke="white" stroke-opacity="0.26" stroke-width="0.542447"/>
<path d="M23.928 112.317C23.6722 112.779 23.1649 112.915 22.8173 112.712C22.4697 112.508 22.3251 111.99 22.5809 111.528C22.8367 111.066 23.344 110.929 23.6916 111.133C24.0393 111.337 24.1839 111.855 23.928 112.317Z" stroke="white" stroke-opacity="0.26" stroke-width="0.542447"/>
<path d="M27.0257 119.756C26.7698 120.218 26.2626 120.355 25.915 120.151C25.5673 119.948 25.4227 119.43 25.6786 118.968C25.9344 118.506 26.4417 118.369 26.7893 118.573C27.1369 118.776 27.2815 119.295 27.0257 119.756Z" stroke="white" stroke-opacity="0.26" stroke-width="0.542447"/>
<path d="M21.0839 118.157C20.8281 118.619 20.3208 118.756 19.9732 118.552C19.6256 118.348 19.481 117.83 19.7368 117.368C19.9926 116.906 20.4999 116.77 20.8475 116.973C21.1951 117.177 21.3397 117.695 21.0839 118.157Z" stroke="white" stroke-opacity="0.26" stroke-width="0.542447"/>
<path d="M7.74248 128.806C7.48664 129.268 6.97939 129.405 6.63176 129.201C6.28413 128.998 6.13953 128.48 6.39536 128.018C6.6512 127.556 7.15845 127.419 7.50608 127.623C7.85371 127.826 7.99832 128.345 7.74248 128.806Z" stroke="white" stroke-opacity="0.26" stroke-width="0.542447"/>
<path d="M1.38838 143.055C-0.958062 146.679 -1.68885 147.848 -3.12127 149.184L-6.45242 149.761" stroke="white" stroke-opacity="0.26" stroke-width="0.542447"/>
<path d="M7.75084 128.901L10.6364 129.398L16.9138 114.942C19.5768 114.554 21.0003 114.379 22.71 112.487" stroke="white" stroke-opacity="0.26" stroke-width="0.542447"/>
<path d="M16.8765 120.115C20.5145 121.027 22.4497 121.071 25.6541 120.045" stroke="white" stroke-opacity="0.26" stroke-width="0.542447"/>
<g filter="url(#filter18_f_1511_11473)">
<path d="M4.68734 119.24C4.20741 119.576 3.60094 119.456 3.32238 119.022C3.04383 118.589 3.16815 117.958 3.64808 117.622C4.12801 117.287 4.73448 117.407 5.01303 117.84C5.29159 118.274 5.16727 118.905 4.68734 119.24Z" stroke="white" stroke-width="0.542447"/>
<path d="M19.2893 108.959C18.8093 109.295 18.2029 109.175 17.9243 108.741C17.6458 108.307 17.7701 107.676 18.25 107.341C18.7299 107.005 19.3364 107.125 19.615 107.559C19.8935 107.993 19.7692 108.623 19.2893 108.959Z" stroke="white" stroke-width="0.542447"/>
<path d="M16.8479 87.1307C16.728 86.5215 17.0684 85.967 17.5368 85.8443C18.0052 85.7215 18.5197 86.0519 18.6396 86.6611C18.7595 87.2703 18.4192 87.8247 17.9507 87.9475C17.4823 88.0703 16.9678 87.7399 16.8479 87.1307Z" stroke="white" stroke-width="0.542447"/>
<path d="M18.2341 108.994C15.2005 111.858 12.8587 113.646 9.67721 115.231L9.84332 119.854C7.43931 121.632 -8.85542 126.278 -9.99834 126.443" stroke="white" stroke-width="0.542447"/>
<path d="M3.4116 118.745C-3.39629 121.325 -7.25107 122.462 -14.1983 123.914L-16.4135 129.931C-26.5519 130.936 -32.7602 133.021 -40.1015 140.287" stroke="white" stroke-width="0.542447"/>
<path d="M13.7056 116.981C13.4057 117.523 12.8056 117.69 12.3876 117.445C11.9695 117.201 11.8035 116.585 12.1034 116.043C12.4033 115.502 13.0034 115.334 13.4214 115.579C13.8395 115.824 14.0055 116.44 13.7056 116.981Z" stroke="white" stroke-width="0.542447"/>
<path d="M28.2125 112.918C27.9126 113.459 27.3125 113.627 26.8945 113.382C26.4764 113.138 26.3104 112.521 26.6103 111.98C26.9102 111.439 27.5103 111.271 27.9283 111.516C28.3464 111.761 28.5124 112.377 28.2125 112.918Z" stroke="white" stroke-width="0.542447"/>
<path d="M21.862 129.389C21.6454 129.977 21.0758 130.241 20.6287 130.072C20.1817 129.904 19.9225 129.326 20.1391 128.739C20.3557 128.151 20.9253 127.886 21.3724 128.055C21.8194 128.224 22.0786 128.802 21.862 129.389Z" stroke="white" stroke-width="0.542447"/>
<path d="M-8.45096 167.727C-12.7705 184.852 -11.0831 201.835 -9.20687 220.263C-7.98703 225.626 -7.88622 229.161 -14.3783 241.522" stroke="white" stroke-width="0.542447"/>
<path d="M19.0807 133.002C18.7809 133.543 18.1808 133.711 17.7628 133.466C17.3447 133.221 17.1787 132.605 17.4786 132.064C17.7785 131.522 18.3786 131.355 18.7966 131.6C19.2147 131.844 19.3806 132.46 19.0807 133.002Z" stroke="white" stroke-width="0.542447"/>
<path d="M43.4933 98.488C43.1935 99.0294 42.5934 99.197 42.1754 98.9523C41.7573 98.7075 41.5913 98.0914 41.8912 97.55C42.1911 97.0086 42.7912 96.841 43.2092 97.0857C43.6273 97.3305 43.7932 97.9466 43.4933 98.488Z" stroke="white" stroke-width="0.542447"/>
<path d="M47.0259 106.972C46.726 107.514 46.1259 107.681 45.7079 107.437C45.2898 107.192 45.1239 106.576 45.4237 106.034C45.7236 105.493 46.3237 105.325 46.7417 105.57C47.1598 105.815 47.3258 106.431 47.0259 106.972Z" stroke="white" stroke-width="0.542447"/>
<path d="M40.2499 105.148C39.95 105.69 39.35 105.857 38.9319 105.612C38.5139 105.368 38.3479 104.752 38.6478 104.21C38.9477 103.669 39.5478 103.501 39.9658 103.746C40.3839 103.991 40.5498 104.607 40.2499 105.148Z" stroke="white" stroke-width="0.542447"/>
<path d="M25.0355 117.293C24.7356 117.834 24.1356 118.002 23.7175 117.757C23.2995 117.512 23.1335 116.896 23.4334 116.355C23.7333 115.813 24.3333 115.646 24.7514 115.89C25.1694 116.135 25.3354 116.751 25.0355 117.293Z" stroke="white" stroke-width="0.542447"/>
<path d="M11.7063 131.075C11.4064 131.616 10.8064 131.784 10.3883 131.539C9.97025 131.294 9.80428 130.678 10.1042 130.137C10.4041 129.595 11.0041 129.428 11.4222 129.672C11.8402 129.917 12.0062 130.533 11.7063 131.075Z" stroke="white" stroke-width="0.542447"/>
<path d="M7.78882 134.337C7.48892 134.879 6.88887 135.046 6.47082 134.802C6.05277 134.557 5.8868 133.941 6.18669 133.399C6.48658 132.858 7.08663 132.69 7.50468 132.935C7.92273 133.18 8.08871 133.796 7.78882 134.337Z" stroke="white" stroke-width="0.542447"/>
<path d="M1.09846 220.986C0.930125 221.592 0.383218 221.907 -0.075411 221.78C-0.53404 221.654 -0.840429 221.104 -0.672091 220.498C-0.503753 219.892 0.0431537 219.577 0.501783 219.703C0.960412 219.83 1.2668 220.38 1.09846 220.986Z" stroke="white" stroke-width="0.542447"/>
<path d="M-0.0826413 221.836C-0.331922 225.115 -0.634435 226.894 -2.28607 229.66" stroke="white" stroke-width="0.542447"/>
<path d="M-2.32092 182.893C-2.00711 195.298 -1.21207 202.33 1.04046 214.974L5.90755 221.884L3.71352 235.287L-5.69799 235.47L-12.2963 250.412" stroke="white" stroke-width="0.542447"/>
<path d="M7.59005 134.56L8.27142 136.974C1.72142 145.677 -1.21058 150.166 -5.51856 159.209L-3.80444 163.77C-6.60939 178.034 -7.55821 186.073 -5.99411 200.637" stroke="white" stroke-width="0.542447"/>
<path d="M11.1299 131.724L12.0178 136.635C5.37394 146.164 2.8831 148.063 -1.39468 158.442" stroke="white" stroke-width="0.542447"/>
<path d="M17.7566 133.522C15.0807 137.655 14.2473 138.988 12.6138 140.512L8.81503 141.17" stroke="white" stroke-width="0.542447"/>
<path d="M19.4188 107.393L23.7187 96.1572C21.2215 92.9649 19.1521 92.3671 18.137 87.9762" stroke="white" stroke-width="0.542447"/>
<path d="M25.0123 117.381L28.303 117.948L35.4616 101.462C38.4985 101.02 40.1219 100.82 42.0716 98.6634" stroke="white" stroke-width="0.542447"/>
<path d="M35.4189 107.361C39.5676 108.401 41.7745 108.452 45.4287 107.281" stroke="white" stroke-width="0.542447"/>
</g>
<path d="M4.68734 119.24C4.20741 119.576 3.60094 119.456 3.32238 119.022C3.04383 118.589 3.16815 117.958 3.64808 117.622C4.12801 117.287 4.73448 117.407 5.01303 117.84C5.29159 118.274 5.16727 118.905 4.68734 119.24Z" stroke="white" stroke-width="0.542447"/>
<path d="M19.2893 108.959C18.8093 109.295 18.2029 109.175 17.9243 108.741C17.6458 108.307 17.7701 107.676 18.25 107.341C18.7299 107.005 19.3364 107.125 19.615 107.559C19.8935 107.993 19.7692 108.623 19.2893 108.959Z" stroke="white" stroke-width="0.542447"/>
<path d="M16.8479 87.1307C16.728 86.5215 17.0684 85.967 17.5368 85.8443C18.0052 85.7215 18.5197 86.0519 18.6396 86.6611C18.7595 87.2703 18.4192 87.8247 17.9507 87.9475C17.4823 88.0703 16.9678 87.7399 16.8479 87.1307Z" stroke="white" stroke-width="0.542447"/>
<path d="M18.2341 108.994C15.2005 111.858 12.8587 113.646 9.67721 115.231L9.84332 119.854C7.43931 121.632 -8.85542 126.278 -9.99834 126.443" stroke="white" stroke-width="0.542447"/>
<path d="M3.4116 118.745C-3.39629 121.325 -7.25107 122.462 -14.1983 123.914L-16.4135 129.931C-26.5519 130.936 -32.7602 133.021 -40.1015 140.287" stroke="white" stroke-width="0.542447"/>
<path d="M13.7056 116.981C13.4057 117.523 12.8056 117.69 12.3876 117.445C11.9695 117.201 11.8035 116.585 12.1034 116.043C12.4033 115.502 13.0034 115.334 13.4214 115.579C13.8395 115.824 14.0055 116.44 13.7056 116.981Z" stroke="white" stroke-width="0.542447"/>
<path d="M28.2125 112.918C27.9126 113.459 27.3125 113.627 26.8945 113.382C26.4764 113.138 26.3104 112.521 26.6103 111.98C26.9102 111.439 27.5103 111.271 27.9283 111.516C28.3464 111.761 28.5124 112.377 28.2125 112.918Z" stroke="white" stroke-width="0.542447"/>
<path d="M21.862 129.389C21.6454 129.977 21.0758 130.241 20.6287 130.072C20.1817 129.904 19.9225 129.326 20.1391 128.739C20.3557 128.151 20.9253 127.886 21.3724 128.055C21.8194 128.224 22.0786 128.802 21.862 129.389Z" stroke="white" stroke-width="0.542447"/>
<path d="M-8.45096 167.727C-12.7705 184.852 -11.0831 201.835 -9.20687 220.263C-7.98703 225.626 -7.88622 229.161 -14.3783 241.522" stroke="white" stroke-width="0.542447"/>
<path d="M19.0807 133.002C18.7809 133.543 18.1808 133.711 17.7628 133.466C17.3447 133.221 17.1787 132.605 17.4786 132.064C17.7785 131.522 18.3786 131.355 18.7966 131.6C19.2147 131.844 19.3806 132.46 19.0807 133.002Z" stroke="white" stroke-width="0.542447"/>
<path d="M43.4933 98.488C43.1935 99.0294 42.5934 99.197 42.1754 98.9523C41.7573 98.7075 41.5913 98.0914 41.8912 97.55C42.1911 97.0086 42.7912 96.841 43.2092 97.0857C43.6273 97.3305 43.7932 97.9466 43.4933 98.488Z" stroke="white" stroke-width="0.542447"/>
<path d="M47.0259 106.972C46.726 107.514 46.1259 107.681 45.7079 107.437C45.2898 107.192 45.1239 106.576 45.4237 106.034C45.7236 105.493 46.3237 105.325 46.7417 105.57C47.1598 105.815 47.3258 106.431 47.0259 106.972Z" stroke="white" stroke-width="0.542447"/>
<path d="M40.2499 105.148C39.95 105.69 39.35 105.857 38.9319 105.612C38.5139 105.368 38.3479 104.752 38.6478 104.21C38.9477 103.669 39.5478 103.501 39.9658 103.746C40.3839 103.991 40.5498 104.607 40.2499 105.148Z" stroke="white" stroke-width="0.542447"/>
<path d="M25.0355 117.293C24.7356 117.834 24.1356 118.002 23.7175 117.757C23.2995 117.512 23.1335 116.896 23.4334 116.355C23.7333 115.813 24.3333 115.646 24.7514 115.89C25.1694 116.135 25.3354 116.751 25.0355 117.293Z" stroke="white" stroke-width="0.542447"/>
<path d="M11.7063 131.075C11.4064 131.616 10.8064 131.784 10.3883 131.539C9.97025 131.294 9.80428 130.678 10.1042 130.137C10.4041 129.595 11.0041 129.428 11.4222 129.672C11.8402 129.917 12.0062 130.533 11.7063 131.075Z" stroke="white" stroke-width="0.542447"/>
<path d="M7.78882 134.337C7.48892 134.879 6.88887 135.046 6.47082 134.802C6.05277 134.557 5.8868 133.941 6.18669 133.399C6.48658 132.858 7.08663 132.69 7.50468 132.935C7.92273 133.18 8.08871 133.796 7.78882 134.337Z" stroke="white" stroke-width="0.542447"/>
<path d="M1.09846 220.986C0.930125 221.592 0.383218 221.907 -0.075411 221.78C-0.53404 221.654 -0.840429 221.104 -0.672091 220.498C-0.503753 219.892 0.0431537 219.577 0.501783 219.703C0.960412 219.83 1.2668 220.38 1.09846 220.986Z" stroke="white" stroke-width="0.542447"/>
<path d="M-0.0826413 221.836C-0.331922 225.115 -0.634435 226.894 -2.28607 229.66" stroke="white" stroke-width="0.542447"/>
<path d="M-2.32092 182.893C-2.00711 195.298 -1.21207 202.33 1.04046 214.974L5.90755 221.884L3.71352 235.287L-5.69799 235.47L-12.2963 250.412" stroke="white" stroke-width="0.542447"/>
<path d="M7.59005 134.56L8.27142 136.974C1.72142 145.677 -1.21058 150.166 -5.51856 159.209L-3.80444 163.77C-6.60939 178.034 -7.55821 186.073 -5.99411 200.637" stroke="white" stroke-width="0.542447"/>
<path d="M11.1299 131.724L12.0178 136.635C5.37394 146.164 2.8831 148.063 -1.39468 158.442" stroke="white" stroke-width="0.542447"/>
<path d="M17.7566 133.522C15.0807 137.655 14.2473 138.988 12.6138 140.512L8.81503 141.17" stroke="white" stroke-width="0.542447"/>
<path d="M19.4188 107.393L23.7187 96.1572C21.2215 92.9649 19.1521 92.3671 18.137 87.9762" stroke="white" stroke-width="0.542447"/>
<path d="M25.0123 117.381L28.303 117.948L35.4616 101.462C38.4985 101.02 40.1219 100.82 42.0716 98.6634" stroke="white" stroke-width="0.542447"/>
<path d="M35.4189 107.361C39.5676 108.401 41.7745 108.452 45.4287 107.281" stroke="white" stroke-width="0.542447"/>
</g>
</g>
<g filter="url(#filter19_d_1511_11473)">
<mask id="mask2_1511_11473" style="mask-type:alpha" maskUnits="userSpaceOnUse" x="-52" y="160" width="88" height="57">
<path d="M-46.6792 180.796C-44.2685 183.024 -36.0587 190.176 -28.84 197.284L-7.92718 216.613C-7.92718 216.613 4.22265 213.866 8.42291 215.609C12.6232 217.352 18.6192 215.138 25.8688 209.913C25.8688 209.913 22.0843 207.841 19.2749 206.528C16.4654 205.215 10.59 203.35 10.59 203.35C10.59 203.35 17.5765 205.101 22.1015 202.865C26.6264 200.63 35.5821 194.93 35.5821 194.93C35.5821 194.93 28.6789 194.54 22.1065 190.89C15.5342 187.24 7.99886 189.83 7.99886 189.83C7.99886 189.83 13.2765 184.725 15.3583 180.659C17.44 176.593 19.7382 169.875 19.7382 169.875C19.7382 169.875 6.93163 172.728 1.88424 178.189C-3.16315 183.65 -6.63743 191.278 -6.63743 191.278C-6.63743 191.278 -4.35301 181.552 -4.06696 177.252C-3.78091 172.953 -6.52691 169.274 -9.98847 167.215C-13.45 165.157 -15.8684 160.64 -15.8684 160.64C-15.8684 160.64 -17.8992 166.464 -18.3506 169.612C-18.8019 172.761 -17.5906 180.156 -17.8179 182.941C-18.0452 185.726 -21.4717 197.534 -21.4717 197.534C-21.4717 197.534 -20.235 185.556 -22.9207 181.932C-25.6064 178.309 -32.7536 174.555 -39.9087 174.075C-47.0638 173.594 -51.9966 172.886 -51.9966 172.886C-51.9966 172.886 -49.0899 178.567 -46.6792 180.796Z" fill="#D9D9D9"/>
</mask>
<g mask="url(#mask2_1511_11473)">
<path d="M-46.6792 180.796C-44.2685 183.024 -36.0587 190.176 -28.84 197.284L-7.92718 216.613C-7.92718 216.613 4.22265 213.866 8.42291 215.609C12.6232 217.352 18.6192 215.138 25.8688 209.913C25.8688 209.913 22.0843 207.841 19.2749 206.528C16.4654 205.215 10.59 203.35 10.59 203.35C10.59 203.35 17.5765 205.101 22.1015 202.865C26.6264 200.63 35.5821 194.93 35.5821 194.93C35.5821 194.93 28.6789 194.54 22.1065 190.89C15.5342 187.24 7.99886 189.83 7.99886 189.83C7.99886 189.83 13.2765 184.725 15.3583 180.659C17.44 176.593 19.7382 169.875 19.7382 169.875C19.7382 169.875 6.93163 172.728 1.88424 178.189C-3.16315 183.65 -6.63743 191.278 -6.63743 191.278C-6.63743 191.278 -4.35301 181.552 -4.06696 177.252C-3.78091 172.953 -6.52691 169.274 -9.98847 167.215C-13.45 165.157 -15.8684 160.64 -15.8684 160.64C-15.8684 160.64 -17.8992 166.464 -18.3506 169.612C-18.8019 172.761 -17.5906 180.156 -17.8179 182.941C-18.0452 185.726 -21.4717 197.534 -21.4717 197.534C-21.4717 197.534 -20.235 185.556 -22.9207 181.932C-25.6064 178.309 -32.7536 174.555 -39.9087 174.075C-47.0638 173.594 -51.9966 172.886 -51.9966 172.886C-51.9966 172.886 -49.0899 178.567 -46.6792 180.796Z" fill="#1E6A66"/>
<path d="M5.14219 208.155C10.2788 206.764 14.0273 206.798 20.7969 206.936C41.9217 214.381 16.1169 220.151 0.25186 229.164L-55.7367 177.416L-49.4097 170.57C-40.4591 172.785 -35.7159 175.545 -27.6389 182.563C-32.5196 180.58 -34.6831 180.433 -37.9589 181.154C-20.5411 186.128 -21.3496 193.653 -20.7289 207.49C-15.6285 198.037 -13.1449 192.852 -14.7831 185.46C-12.984 188.466 -12.3461 190.62 -12.2552 195.783C-7.85207 186.304 -2.6326 175.96 -10.916 170.636C-9.01254 173.812 -10.8187 176.416 -12.5822 179.935C-11.712 174.037 -13.1941 167.648 -15.8902 160.904C-6.85908 165.947 -3.81499 170.59 -0.53298 180.804C-4.65161 189.156 -6.15723 193.312 -6.9856 199.513C-0.435518 189.167 -1.99703 189.247 5.51711 182.117C1.38305 187.996 -0.873128 191.595 -4.68143 199.076C9.00612 187.573 14.33 181.19 19.7983 169.93L17.1876 187.627C7.62799 191.298 2.78223 195.085 -4.75739 205.566C10.7492 198.22 15.8464 204.07 24.0795 199.274C20.4267 199.013 18.7836 198.197 16.1611 196.234C23.2028 197.744 27.8314 196.164 36.3206 194.614C18.608 208.196 17.5486 204.647 10.5898 203.35C6.1025 203.463 -1.43925 205.435 -14.4131 211.902L-11.0984 214.966C-2.27547 211.902 2.54976 209.484 12.036 210.248C10.8086 208.926 9.2618 208.482 5.14219 208.155Z" fill="#3EA07C"/>
</g>
</g>
<g filter="url(#filter20_d_1511_11473)">
<path d="M-34.4718 216.762C-21.6956 232.11 -29.7161 243.644 -38.4778 252.245L-18.5647 276.167C-12.2768 270.409 -8.92107 266.531 -3.47536 266.116C7.63385 266.468 12.8652 269.86 26.6566 281.043C24.9096 268.062 19.0628 262.365 7.20808 254.712C26.2764 255.228 37.7608 241.961 38.8915 240.83C40.0222 239.7 11.3863 248.302 6.08003 245.589C15.2423 240.102 28.4884 229.828 37.4547 230.205C34.6872 227.541 31.9065 227.027 23.4428 228.554C19.4832 229.268 8.23534 232.863 2.28516 236.927C11.8613 224.688 21.8324 202.04 21.8324 202.04L17.2112 205.887C7.48234 213.986 -1.22592 221.827 -4.23655 229.093C-1.42669 216.837 2.46673 203.686 -3.74893 195.889C-7.24365 206.473 -14.5207 220.638 -13.6227 229.689C-19.0481 217.73 -35.3605 208.192 -44.6557 204.528L-34.4718 216.762Z" fill="#EC4BFC"/>
<g filter="url(#filter21_d_1511_11473)">
<path d="M-38.7137 225.392C-28.6772 237.449 -33.1436 245.242 -39.6205 251.661L-25.2568 268.916C-20.5997 264.628 -18.2374 264.151 -14.1071 263.948C-5.65591 264.454 -1.60774 267.17 9.11196 276.05C7.50871 266.045 2.94379 261.546 -6.22894 255.418C11.878 255.136 21.9598 249.742 23.2367 249.501C17.2245 242.279 1.20433 246.231 -5.65168 247.665C-4.63075 242.576 11.1028 231.253 26.5966 234.625C24.4366 232.52 16.2579 229.55 9.92044 229.649C0.866977 229.79 -5.29093 235.368 -9.72725 238.363C-2.70842 229.167 2.78566 208.225 2.78566 208.225L-0.645127 211.081C-7.8679 217.094 -13.3371 229.987 -15.4712 235.502C-13.5955 226.151 -15.6893 212.717 -20.579 206.598C-23.0107 214.651 -23.4672 228.792 -22.5927 235.761C-26.9701 226.463 -39.571 218.792 -46.7137 215.782L-38.7137 225.392Z" fill="#F27BFE"/>
</g>
<path d="M-9.20434 242.242C6.75799 228.954 20.5464 231.404 25.6562 234.176C18.3127 230.872 8.20461 231.94 -2.72858 238.453C-5.33172 240.004 -7.60645 241.774 -7.60645 241.774C-7.60645 241.774 -12.1206 245.532 -14.05 246.152C-12.5128 245.612 -11.3712 244.045 -9.20434 242.242Z" fill="#F8ADFF"/>
<path d="M-15.5494 240.128C-11.5425 229.151 -3.56546 217.128 1.64001 209.549C-6.05533 222.175 -11.1649 229.851 -13.8339 238.7C-15.9289 243.895 -19.0557 250.703 -31.9277 260.664L-32.7762 259.645C-27.7267 255.709 -17.7683 246.207 -15.5494 240.128Z" fill="#F8ADFF"/>
<path d="M22.2368 249.348C17.7293 249.099 0.837462 248.796 -9.35752 250.504C2.53319 250.466 9.51399 250.829 22.2368 249.348Z" fill="#F8ADFF"/>
<path d="M-11.8356 258.36C-9.43118 257.385 -1.82384 261.773 8.46957 274.49C-2.81896 262.89 -3.93005 262.399 -11.8356 258.36Z" fill="#F8ADFF"/>
</g>
<path d="M361.614 191.282C336.927 179.389 315.566 177.185 297.532 134.195C325.305 132.634 343.515 140.607 368.957 150.643C373.108 178.008 378.287 153.435 361.614 191.282Z" fill="#535353" fill-opacity="0.14"/>
<path d="M361.614 191.282C378.287 153.435 373.108 178.008 368.957 150.643C385.651 139.666 398.938 129.869 420.618 135.044C393.655 169.879 401.884 165.967 361.614 191.282Z" fill="#535353" fill-opacity="0.14"/>
<g filter="url(#filter22_d_1511_11473)">
<path d="M357.248 61.136C373.944 102.141 373.154 121.899 368.997 151.547C391.727 139.926 402.917 135.008 421.354 135.145C407.923 90.6758 393.817 73.8318 357.248 61.136Z" fill="url(#paint25_linear_1511_11473)"/>
<path fill-rule="evenodd" clip-rule="evenodd" d="M357.248 61.136C323.576 73.0335 310.558 90.1231 297.471 135.145C325.283 136.837 341.583 140.889 368.997 151.547C373.154 121.899 373.944 102.141 357.248 61.136ZM341.17 96.7405C356.217 98.7407 357.43 112.616 354.568 138.546L355.805 141.946L310.457 132.545L313.961 130.345C322.355 104.119 328.498 95.056 341.17 96.7405Z" fill="url(#paint26_linear_1511_11473)"/>
<path d="M313.961 130.345L354.568 138.546C357.43 112.616 356.217 98.7407 341.17 96.7405C328.498 95.056 322.355 104.119 313.961 130.345Z" fill="url(#paint27_linear_1511_11473)"/>
<path d="M354.568 138.546L313.961 130.345L310.457 132.545L355.805 141.946L354.568 138.546Z" fill="#C67624"/>
</g>
<path d="M313.991 130.117C330.198 121.978 336.628 114.592 340.703 96.5479C328.676 95.6681 322.92 102.658 313.991 130.117Z" fill="#C67624"/>
<path d="M340.703 96.5479C338.483 114.693 340.682 123.731 354.592 138.272C357.885 108.57 355.098 99.0514 340.703 96.5479Z" fill="#C67624"/>
<rect width="0.694864" height="2.05566" transform="matrix(0.862662 -0.505781 0.528546 0.848905 315.566 128.09)" fill="#CCDEDE"/>
<rect width="0.694864" height="2.05566" transform="matrix(0.862662 -0.505781 0.528546 0.848905 320.819 125.031)" fill="#CCDEDE"/>
<rect width="0.692575" height="2.0626" transform="matrix(0.797267 -0.603626 0.626603 0.779339 325.721 121.36)" fill="#CCDEDE"/>
<rect width="0.692575" height="2.0626" transform="matrix(0.797267 -0.603626 0.626603 0.779339 329.923 117.622)" fill="#CCDEDE"/>
<rect width="0.692575" height="2.0626" transform="matrix(0.797267 -0.603626 0.626603 0.779339 333.075 113.885)" fill="#CCDEDE"/>
<rect width="0.692575" height="2.0626" transform="matrix(0.797267 -0.603626 0.626603 0.779339 335.526 109.127)" fill="#CCDEDE"/>
<rect width="0.685396" height="2.08407" transform="matrix(0.398478 -0.917178 0.927548 0.373704 336.993 106.304)" fill="#CCDEDE"/>
<rect width="0.694864" height="2.05566" transform="matrix(0.862662 -0.505781 0.528546 0.848905 317.317 127.07)" fill="#CCDEDE"/>
<rect width="0.694864" height="2.05566" transform="matrix(0.862662 -0.505781 0.528546 0.848905 322.57 124.012)" fill="#CCDEDE"/>
<rect width="0.692575" height="2.0626" transform="matrix(0.797267 -0.603626 0.626603 0.779339 327.122 120.001)" fill="#CCDEDE"/>
<rect width="0.692575" height="2.0626" transform="matrix(0.797267 -0.603626 0.626603 0.779339 330.974 116.263)" fill="#CCDEDE"/>
<rect width="0.692575" height="2.0626" transform="matrix(0.797267 -0.603626 0.626603 0.779339 333.775 112.185)" fill="#CCDEDE"/>
<rect width="0.692575" height="2.0626" transform="matrix(0.797267 -0.603626 0.626603 0.779339 334.644 110.863)" fill="#CCDEDE"/>
<rect width="0.694409" height="2.05704" transform="matrix(0.850111 -0.526603 0.549575 0.835444 324.321 122.667)" fill="#CCDEDE"/>
<rect width="0.692575" height="2.0626" transform="matrix(0.797267 -0.603626 0.626603 0.779339 328.523 118.982)" fill="#CCDEDE"/>
<rect width="0.692575" height="2.0626" transform="matrix(0.797267 -0.603626 0.626603 0.779339 332.024 115.244)" fill="#CCDEDE"/>
<rect width="0.692575" height="2.0626" transform="matrix(0.678826 -0.7343 0.753769 0.657139 336.137 107.599)" fill="#CCDEDE"/>
<rect width="0.681018" height="2.09695" transform="matrix(-0.265634 -0.964074 0.96795 -0.251144 339.559 114.65)" fill="#CCDEDE"/>
<rect width="0.679787" height="2.10054" transform="matrix(0.0932937 -0.995639 0.99613 0.0878951 338.678 105.892)" fill="#CCDEDE"/>
<rect width="0.679924" height="2.10014" transform="matrix(-0.124988 -0.992158 0.993037 -0.117802 338.465 108.229)" fill="#CCDEDE"/>
<rect width="0.681304" height="2.09611" transform="matrix(-0.291371 -0.95661 0.961243 -0.275703 338.578 110.031)" fill="#CCDEDE"/>
<rect width="0.681304" height="2.09611" transform="matrix(-0.291371 -0.95661 0.961243 -0.275703 338.877 111.526)" fill="#CCDEDE"/>
<rect width="0.681304" height="2.09611" transform="matrix(-0.291371 -0.95661 0.961243 -0.275703 339.227 112.997)" fill="#CCDEDE"/>
<rect width="0.694864" height="2.05566" transform="matrix(0.862662 -0.505781 0.528546 0.848905 319.068 126.051)" fill="#CCDEDE"/>
<rect width="0.69377" height="2.05898" transform="matrix(-0.636816 -0.760086 -0.791766 0.624664 354.014 136.112)" fill="#CCDEDE"/>
<rect width="0.69377" height="2.05898" transform="matrix(-0.636816 -0.760086 -0.791766 0.624664 350.135 131.511)" fill="#CCDEDE"/>
<rect width="0.692002" height="2.06433" transform="matrix(-0.540643 -0.830226 -0.860391 0.527605 346.799 126.449)" fill="#CCDEDE"/>
<rect width="0.692002" height="2.06433" transform="matrix(-0.540643 -0.830226 -0.860391 0.527605 344.146 121.553)" fill="#CCDEDE"/>
<rect width="0.692002" height="2.06433" transform="matrix(-0.540643 -0.830226 -0.860391 0.527605 342.481 117.001)" fill="#CCDEDE"/>
<rect width="0.69377" height="2.05898" transform="matrix(-0.636816 -0.760086 -0.791766 0.624664 352.721 134.579)" fill="#CCDEDE"/>
<rect width="0.69377" height="2.05898" transform="matrix(-0.636816 -0.760086 -0.791766 0.624664 348.842 129.978)" fill="#CCDEDE"/>
<rect width="0.692002" height="2.06433" transform="matrix(-0.540643 -0.830226 -0.860391 0.527605 345.954 124.71)" fill="#CCDEDE"/>
<rect width="0.692002" height="2.06433" transform="matrix(-0.540643 -0.830226 -0.860391 0.527605 343.631 119.929)" fill="#CCDEDE"/>
<rect width="0.692002" height="2.06433" transform="matrix(-0.540643 -0.830226 -0.860391 0.527605 341.879 115.4)" fill="#CCDEDE"/>
<rect width="0.693418" height="2.06005" transform="matrix(-0.617632 -0.775478 -0.806973 0.605226 347.663 128.138)" fill="#CCDEDE"/>
<rect width="0.692002" height="2.06433" transform="matrix(-0.540643 -0.830226 -0.860391 0.527605 344.991 123.292)" fill="#CCDEDE"/>
<rect width="0.692002" height="2.06433" transform="matrix(-0.540643 -0.830226 -0.860391 0.527605 342.996 118.625)" fill="#CCDEDE"/>
<rect width="0.69377" height="2.05898" transform="matrix(-0.636816 -0.760086 -0.791766 0.624664 351.428 133.045)" fill="#CCDEDE"/>
<path d="M370.949 106.805C375.707 125.019 375.299 139.97 374.755 155.329" stroke="#70451D" stroke-width="0.815522"/>
<path d="M374.338 155.786C374.301 155.725 374.262 155.673 374.224 155.628C374.124 155.512 374.071 155.338 374.143 155.203L376.682 150.433C376.769 150.269 376.991 150.239 377.119 150.374L378.549 151.882C378.651 151.99 378.648 152.159 378.543 152.263L374.858 155.89C374.708 156.037 374.449 155.965 374.338 155.786Z" fill="#5C3613"/>
<path d="M311.945 96.6857C307.469 104.197 296.588 122.954 295.649 136.164" stroke="#70451D" stroke-width="0.709293"/>
<path d="M296.235 137.19C296.27 137.139 296.306 137.095 296.341 137.058C296.433 136.962 296.486 136.813 296.429 136.692L294.429 132.439C294.36 132.293 294.169 132.258 294.052 132.369L292.745 133.618C292.652 133.707 292.647 133.854 292.734 133.949L295.779 137.258C295.903 137.393 296.131 137.341 296.235 137.19Z" fill="#5C3613"/>
<g filter="url(#filter23_d_1511_11473)">
<path d="M408.164 99.6546C398.572 95.2977 379.415 103.856 370.78 108.506C370.603 108.601 370.395 108.479 370.384 108.279C369.573 93.8859 361.884 73.1568 356.95 61C385.488 65.8983 403.276 87.7944 408.553 99.294C408.661 99.5293 408.4 99.7617 408.164 99.6546Z" fill="#AB5802"/>
<path d="M311.741 97.0082C347.449 76.6759 351.305 86.9289 369.923 108.291C370.088 108.481 370.403 108.38 370.397 108.129C370.073 95.3195 361.307 71.3605 356.95 61C333.637 64.4064 316.76 84.9818 311.342 96.6852C311.232 96.9228 311.513 97.1377 311.741 97.0082Z" fill="#E4831F"/>
</g>
</g>
<rect x="-0.5" y="-6292.5" width="413" height="6799" stroke="black"/>
<defs>
<filter id="filter1_df_1511_11473" x="-220.123" y="-280.921" width="500.09" height="521.98" filterUnits="userSpaceOnUse" color-interpolation-filters="sRGB">
<feFlood flood-opacity="0" result="BackgroundImageFix"/>
<feColorMatrix in="SourceAlpha" type="matrix" values="0 0 0 0 0 0 0 0 0 0 0 0 0 0 0 0 0 0 127 0" result="hardAlpha"/>
<feMorphology radius="55.6265" operator="dilate" in="SourceAlpha" result="effect1_dropShadow_1511_11473"/>
<feOffset dy="1.30886"/>
<feGaussianBlur stdDeviation="3.43576"/>
<feComposite in2="hardAlpha" operator="out"/>
<feColorMatrix type="matrix" values="0 0 0 0 0.0862745 0 0 0 0 0.0509804 0 0 0 0 0.160784 0 0 0 1 0"/>
<feBlend mode="normal" in2="BackgroundImageFix" result="effect1_dropShadow_1511_11473"/>
<feBlend mode="normal" in="SourceGraphic" in2="effect1_dropShadow_1511_11473" result="shape"/>
<feGaussianBlur stdDeviation="3.27215" result="effect2_foregroundBlur_1511_11473"/>
</filter>
<filter id="filter2_dddddd_1511_11473" x="-376.796" y="6.12053" width="1173.61" height="851.153" filterUnits="userSpaceOnUse" color-interpolation-filters="sRGB">
<feFlood flood-opacity="0" result="BackgroundImageFix"/>
<feColorMatrix in="SourceAlpha" type="matrix" values="0 0 0 0 0 0 0 0 0 0 0 0 0 0 0 0 0 0 127 0" result="hardAlpha"/>
<feOffset/>
<feGaussianBlur stdDeviation="1.08064"/>
<feColorMatrix type="matrix" values="0 0 0 0 0.478431 0 0 0 0 0.207843 0 0 0 0 0.752941 0 0 0 1 0"/>
<feBlend mode="normal" in2="BackgroundImageFix" result="effect1_dropShadow_1511_11473"/>
<feColorMatrix in="SourceAlpha" type="matrix" values="0 0 0 0 0 0 0 0 0 0 0 0 0 0 0 0 0 0 127 0" result="hardAlpha"/>
<feOffset/>
<feGaussianBlur stdDeviation="2.16127"/>
<feColorMatrix type="matrix" values="0 0 0 0 0.478431 0 0 0 0 0.207843 0 0 0 0 0.752941 0 0 0 1 0"/>
<feBlend mode="normal" in2="effect1_dropShadow_1511_11473" result="effect2_dropShadow_1511_11473"/>
<feColorMatrix in="SourceAlpha" type="matrix" values="0 0 0 0 0 0 0 0 0 0 0 0 0 0 0 0 0 0 127 0" result="hardAlpha"/>
<feOffset/>
<feGaussianBlur stdDeviation="7.56446"/>
<feColorMatrix type="matrix" values="0 0 0 0 0.478431 0 0 0 0 0.207843 0 0 0 0 0.752941 0 0 0 1 0"/>
<feBlend mode="normal" in2="effect2_dropShadow_1511_11473" result="effect3_dropShadow_1511_11473"/>
<feColorMatrix in="SourceAlpha" type="matrix" values="0 0 0 0 0 0 0 0 0 0 0 0 0 0 0 0 0 0 127 0" result="hardAlpha"/>
<feOffset/>
<feGaussianBlur stdDeviation="15.1289"/>
<feColorMatrix type="matrix" values="0 0 0 0 0.478431 0 0 0 0 0.207843 0 0 0 0 0.752941 0 0 0 1 0"/>
<feBlend mode="normal" in2="effect3_dropShadow_1511_11473" result="effect4_dropShadow_1511_11473"/>
<feColorMatrix in="SourceAlpha" type="matrix" values="0 0 0 0 0 0 0 0 0 0 0 0 0 0 0 0 0 0 127 0" result="hardAlpha"/>
<feOffset/>
<feGaussianBlur stdDeviation="25.9353"/>
<feColorMatrix type="matrix" values="0 0 0 0 0.478431 0 0 0 0 0.207843 0 0 0 0 0.752941 0 0 0 1 0"/>
<feBlend mode="normal" in2="effect4_dropShadow_1511_11473" result="effect5_dropShadow_1511_11473"/>
<feColorMatrix in="SourceAlpha" type="matrix" values="0 0 0 0 0 0 0 0 0 0 0 0 0 0 0 0 0 0 127 0" result="hardAlpha"/>
<feOffset/>
<feGaussianBlur stdDeviation="45.3868"/>
<feColorMatrix type="matrix" values="0 0 0 0 0.478431 0 0 0 0 0.207843 0 0 0 0 0.752941 0 0 0 1 0"/>
<feBlend mode="normal" in2="effect5_dropShadow_1511_11473" result="effect6_dropShadow_1511_11473"/>
<feBlend mode="normal" in="SourceGraphic" in2="effect6_dropShadow_1511_11473" result="shape"/>
</filter>
<filter id="filter3_ii_1511_11473" x="-50.4562" y="113.255" width="519.598" height="227.456" filterUnits="userSpaceOnUse" color-interpolation-filters="sRGB">
<feFlood flood-opacity="0" result="BackgroundImageFix"/>
<feBlend mode="normal" in="SourceGraphic" in2="BackgroundImageFix" result="shape"/>
<feColorMatrix in="SourceAlpha" type="matrix" values="0 0 0 0 0 0 0 0 0 0 0 0 0 0 0 0 0 0 127 0" result="hardAlpha"/>
<feOffset dx="4.58101" dy="1.96329"/>
<feGaussianBlur stdDeviation="0.981645"/>
<feComposite in2="hardAlpha" operator="arithmetic" k2="-1" k3="1"/>
<feColorMatrix type="matrix" values="0 0 0 0 0 0 0 0 0 0 0 0 0 0 0 0 0 0 0.33 0"/>
<feBlend mode="normal" in2="shape" result="effect1_innerShadow_1511_11473"/>
<feColorMatrix in="SourceAlpha" type="matrix" values="0 0 0 0 0 0 0 0 0 0 0 0 0 0 0 0 0 0 127 0" result="hardAlpha"/>
<feOffset dy="1.30886"/>
<feGaussianBlur stdDeviation="0.65443"/>
<feComposite in2="hardAlpha" operator="arithmetic" k2="-1" k3="1"/>
<feColorMatrix type="matrix" values="0 0 0 0 0.854902 0 0 0 0 0.286275 0 0 0 0 0.933333 0 0 0 0.7 0"/>
<feBlend mode="normal" in2="effect1_innerShadow_1511_11473" result="effect2_innerShadow_1511_11473"/>
</filter>
<filter id="filter4_i_1511_11473" x="133.066" y="15.8208" width="149.377" height="88.1085" filterUnits="userSpaceOnUse" color-interpolation-filters="sRGB">
<feFlood flood-opacity="0" result="BackgroundImageFix"/>
<feBlend mode="normal" in="SourceGraphic" in2="BackgroundImageFix" result="shape"/>
<feColorMatrix in="SourceAlpha" type="matrix" values="0 0 0 0 0 0 0 0 0 0 0 0 0 0 0 0 0 0 127 0" result="hardAlpha"/>
<feOffset dy="1.30886"/>
<feGaussianBlur stdDeviation="0.65443"/>
<feComposite in2="hardAlpha" operator="arithmetic" k2="-1" k3="1"/>
<feColorMatrix type="matrix" values="0 0 0 0 0 0 0 0 0 0 0 0 0 0 0 0 0 0 0.25 0"/>
<feBlend mode="normal" in2="shape" result="effect1_innerShadow_1511_11473"/>
</filter>
<filter id="filter5_d_1511_11473" x="181.324" y="56.3362" width="49.612" height="48.6476" filterUnits="userSpaceOnUse" color-interpolation-filters="sRGB">
<feFlood flood-opacity="0" result="BackgroundImageFix"/>
<feColorMatrix in="SourceAlpha" type="matrix" values="0 0 0 0 0 0 0 0 0 0 0 0 0 0 0 0 0 0 127 0" result="hardAlpha"/>
<feOffset dy="1.30886"/>
<feGaussianBlur stdDeviation="0.65443"/>
<feComposite in2="hardAlpha" operator="out"/>
<feColorMatrix type="matrix" values="0 0 0 0 0 0 0 0 0 0 0 0 0 0 0 0 0 0 0.25 0"/>
<feBlend mode="normal" in2="BackgroundImageFix" result="effect1_dropShadow_1511_11473"/>
<feBlend mode="normal" in="SourceGraphic" in2="effect1_dropShadow_1511_11473" result="shape"/>
</filter>
<filter id="filter6_i_1511_11473" x="192.218" y="48.568" width="34.9306" height="32.6914" filterUnits="userSpaceOnUse" color-interpolation-filters="sRGB">
<feFlood flood-opacity="0" result="BackgroundImageFix"/>
<feBlend mode="normal" in="SourceGraphic" in2="BackgroundImageFix" result="shape"/>
<feColorMatrix in="SourceAlpha" type="matrix" values="0 0 0 0 0 0 0 0 0 0 0 0 0 0 0 0 0 0 127 0" result="hardAlpha"/>
<feMorphology radius="0.327215" operator="erode" in="SourceAlpha" result="effect1_innerShadow_1511_11473"/>
<feOffset dy="1.63607"/>
<feGaussianBlur stdDeviation="1.47247"/>
<feComposite in2="hardAlpha" operator="arithmetic" k2="-1" k3="1"/>
<feColorMatrix type="matrix" values="0 0 0 0 0.291821 0 0 0 0 0.961512 0 0 0 0 0.961512 0 0 0 1 0"/>
<feBlend mode="normal" in2="shape" result="effect1_innerShadow_1511_11473"/>
</filter>
<filter id="filter7_f_1511_11473" x="191.142" y="48.5752" width="13.6972" height="15.1694" filterUnits="userSpaceOnUse" color-interpolation-filters="sRGB">
<feFlood flood-opacity="0" result="BackgroundImageFix"/>
<feBlend mode="normal" in="SourceGraphic" in2="BackgroundImageFix" result="shape"/>
<feGaussianBlur stdDeviation="1.47247" result="effect1_foregroundBlur_1511_11473"/>
</filter>
<filter id="filter8_i_1511_11473" x="193.675" y="68.2908" width="31.0535" height="31.4091" filterUnits="userSpaceOnUse" color-interpolation-filters="sRGB">
<feFlood flood-opacity="0" result="BackgroundImageFix"/>
<feBlend mode="normal" in="SourceGraphic" in2="BackgroundImageFix" result="shape"/>
<feColorMatrix in="SourceAlpha" type="matrix" values="0 0 0 0 0 0 0 0 0 0 0 0 0 0 0 0 0 0 127 0" result="hardAlpha"/>
<feOffset dy="1.30886"/>
<feGaussianBlur stdDeviation="0.65443"/>
<feComposite in2="hardAlpha" operator="arithmetic" k2="-1" k3="1"/>
<feColorMatrix type="matrix" values="0 0 0 0 0 0 0 0 0 0 0 0 0 0 0 0 0 0 0.25 0"/>
<feBlend mode="normal" in2="shape" result="effect1_innerShadow_1511_11473"/>
</filter>
<filter id="filter9_i_1511_11473" x="231.838" y="15.8208" width="46.5066" height="45.6727" filterUnits="userSpaceOnUse" color-interpolation-filters="sRGB">
<feFlood flood-opacity="0" result="BackgroundImageFix"/>
<feBlend mode="normal" in="SourceGraphic" in2="BackgroundImageFix" result="shape"/>
<feColorMatrix in="SourceAlpha" type="matrix" values="0 0 0 0 0 0 0 0 0 0 0 0 0 0 0 0 0 0 127 0" result="hardAlpha"/>
<feMorphology radius="0.327215" operator="erode" in="SourceAlpha" result="effect1_innerShadow_1511_11473"/>
<feOffset dy="1.63607"/>
<feGaussianBlur stdDeviation="1.47247"/>
<feComposite in2="hardAlpha" operator="arithmetic" k2="-1" k3="1"/>
<feColorMatrix type="matrix" values="0 0 0 0 0.291821 0 0 0 0 0.961512 0 0 0 0 0.961512 0 0 0 1 0"/>
<feBlend mode="normal" in2="shape" result="effect1_innerShadow_1511_11473"/>
</filter>
<filter id="filter10_f_1511_11473" x="230.35" y="22.4341" width="11.2512" height="17.62" filterUnits="userSpaceOnUse" color-interpolation-filters="sRGB">
<feFlood flood-opacity="0" result="BackgroundImageFix"/>
<feBlend mode="normal" in="SourceGraphic" in2="BackgroundImageFix" result="shape"/>
<feGaussianBlur stdDeviation="1.47247" result="effect1_foregroundBlur_1511_11473"/>
</filter>
<filter id="filter11_i_1511_11473" x="237.906" y="54.6449" width="34.2915" height="36.044" filterUnits="userSpaceOnUse" color-interpolation-filters="sRGB">
<feFlood flood-opacity="0" result="BackgroundImageFix"/>
<feBlend mode="normal" in="SourceGraphic" in2="BackgroundImageFix" result="shape"/>
<feColorMatrix in="SourceAlpha" type="matrix" values="0 0 0 0 0 0 0 0 0 0 0 0 0 0 0 0 0 0 127 0" result="hardAlpha"/>
<feOffset dy="1.30886"/>
<feGaussianBlur stdDeviation="0.65443"/>
<feComposite in2="hardAlpha" operator="arithmetic" k2="-1" k3="1"/>
<feColorMatrix type="matrix" values="0 0 0 0 0 0 0 0 0 0 0 0 0 0 0 0 0 0 0.25 0"/>
<feBlend mode="normal" in2="shape" result="effect1_innerShadow_1511_11473"/>
</filter>
<filter id="filter12_d_1511_11473" x="131.757" y="18.1117" width="61.9471" height="87.1265" filterUnits="userSpaceOnUse" color-interpolation-filters="sRGB">
<feFlood flood-opacity="0" result="BackgroundImageFix"/>
<feColorMatrix in="SourceAlpha" type="matrix" values="0 0 0 0 0 0 0 0 0 0 0 0 0 0 0 0 0 0 127 0" result="hardAlpha"/>
<feOffset dy="1.30886"/>
<feGaussianBlur stdDeviation="0.65443"/>
<feComposite in2="hardAlpha" operator="out"/>
<feColorMatrix type="matrix" values="0 0 0 0 0 0 0 0 0 0 0 0 0 0 0 0 0 0 0.25 0"/>
<feBlend mode="normal" in2="BackgroundImageFix" result="effect1_dropShadow_1511_11473"/>
<feBlend mode="normal" in="SourceGraphic" in2="effect1_dropShadow_1511_11473" result="shape"/>
</filter>
<filter id="filter13_i_1511_11473" x="135.31" y="18.1117" width="46.5066" height="45.6727" filterUnits="userSpaceOnUse" color-interpolation-filters="sRGB">
<feFlood flood-opacity="0" result="BackgroundImageFix"/>
<feBlend mode="normal" in="SourceGraphic" in2="BackgroundImageFix" result="shape"/>
<feColorMatrix in="SourceAlpha" type="matrix" values="0 0 0 0 0 0 0 0 0 0 0 0 0 0 0 0 0 0 127 0" result="hardAlpha"/>
<feMorphology radius="0.327215" operator="erode" in="SourceAlpha" result="effect1_innerShadow_1511_11473"/>
<feOffset dy="1.63607"/>
<feGaussianBlur stdDeviation="1.47247"/>
<feComposite in2="hardAlpha" operator="arithmetic" k2="-1" k3="1"/>
<feColorMatrix type="matrix" values="0 0 0 0 0.291821 0 0 0 0 0.961512 0 0 0 0 0.961512 0 0 0 1 0"/>
<feBlend mode="normal" in2="shape" result="effect1_innerShadow_1511_11473"/>
</filter>
<filter id="filter14_f_1511_11473" x="133.822" y="24.7251" width="11.2512" height="17.62" filterUnits="userSpaceOnUse" color-interpolation-filters="sRGB">
<feFlood flood-opacity="0" result="BackgroundImageFix"/>
<feBlend mode="normal" in="SourceGraphic" in2="BackgroundImageFix" result="shape"/>
<feGaussianBlur stdDeviation="1.47247" result="effect1_foregroundBlur_1511_11473"/>
</filter>
<filter id="filter15_i_1511_11473" x="141.691" y="54.4579" width="33.4915" height="35.0541" filterUnits="userSpaceOnUse" color-interpolation-filters="sRGB">
<feFlood flood-opacity="0" result="BackgroundImageFix"/>
<feBlend mode="normal" in="SourceGraphic" in2="BackgroundImageFix" result="shape"/>
<feColorMatrix in="SourceAlpha" type="matrix" values="0 0 0 0 0 0 0 0 0 0 0 0 0 0 0 0 0 0 127 0" result="hardAlpha"/>
<feOffset dy="1.96329"/>
<feGaussianBlur stdDeviation="0.65443"/>
<feComposite in2="hardAlpha" operator="arithmetic" k2="-1" k3="1"/>
<feColorMatrix type="matrix" values="0 0 0 0 0 0 0 0 0 0 0 0 0 0 0 0 0 0 0.41 0"/>
<feBlend mode="normal" in2="shape" result="effect1_innerShadow_1511_11473"/>
</filter>
<filter id="filter16_d_1511_11473" x="-79.9323" y="6.61646" width="187.125" height="246.978" filterUnits="userSpaceOnUse" color-interpolation-filters="sRGB">
<feFlood flood-opacity="0" result="BackgroundImageFix"/>
<feColorMatrix in="SourceAlpha" type="matrix" values="0 0 0 0 0 0 0 0 0 0 0 0 0 0 0 0 0 0 127 0" result="hardAlpha"/>
<feOffset/>
<feGaussianBlur stdDeviation="5.39905"/>
<feComposite in2="hardAlpha" operator="out"/>
<feColorMatrix type="matrix" values="0 0 0 0 0.858333 0 0 0 0 0.565069 0 0 0 0 0.780529 0 0 0 0.8 0"/>
<feBlend mode="normal" in2="BackgroundImageFix" result="effect1_dropShadow_1511_11473"/>
<feBlend mode="normal" in="SourceGraphic" in2="effect1_dropShadow_1511_11473" result="shape"/>
</filter>
<filter id="filter17_f_1511_11473" x="-71.3245" y="109.458" width="100.057" height="130.055" filterUnits="userSpaceOnUse" color-interpolation-filters="sRGB">
<feFlood flood-opacity="0" result="BackgroundImageFix"/>
<feBlend mode="normal" in="SourceGraphic" in2="BackgroundImageFix" result="shape"/>
<feGaussianBlur stdDeviation="0.65443" result="effect1_foregroundBlur_1511_11473"/>
</filter>
<filter id="filter18_f_1511_11473" x="-70.1957" y="84.0961" width="119.089" height="167.874" filterUnits="userSpaceOnUse" color-interpolation-filters="sRGB">
<feFlood flood-opacity="0" result="BackgroundImageFix"/>
<feBlend mode="normal" in="SourceGraphic" in2="BackgroundImageFix" result="shape"/>
<feGaussianBlur stdDeviation="0.723263" result="effect1_foregroundBlur_1511_11473"/>
</filter>
<filter id="filter19_d_1511_11473" x="-51.9966" y="160.64" width="90.1963" height="58.5911" filterUnits="userSpaceOnUse" color-interpolation-filters="sRGB">
<feFlood flood-opacity="0" result="BackgroundImageFix"/>
<feColorMatrix in="SourceAlpha" type="matrix" values="0 0 0 0 0 0 0 0 0 0 0 0 0 0 0 0 0 0 127 0" result="hardAlpha"/>
<feOffset dx="1.30886" dy="1.30886"/>
<feGaussianBlur stdDeviation="0.65443"/>
<feComposite in2="hardAlpha" operator="out"/>
<feColorMatrix type="matrix" values="0 0 0 0 0 0 0 0 0 0 0 0 0 0 0 0 0 0 0.25 0"/>
<feBlend mode="normal" in2="BackgroundImageFix" result="effect1_dropShadow_1511_11473"/>
<feBlend mode="normal" in="SourceGraphic" in2="effect1_dropShadow_1511_11473" result="shape"/>
</filter>
<filter id="filter20_d_1511_11473" x="-46.7137" y="195.889" width="88.2555" height="87.7718" filterUnits="userSpaceOnUse" color-interpolation-filters="sRGB">
<feFlood flood-opacity="0" result="BackgroundImageFix"/>
<feColorMatrix in="SourceAlpha" type="matrix" values="0 0 0 0 0 0 0 0 0 0 0 0 0 0 0 0 0 0 127 0" result="hardAlpha"/>
<feOffset dx="1.30886" dy="1.30886"/>
<feGaussianBlur stdDeviation="0.65443"/>
<feComposite in2="hardAlpha" operator="out"/>
<feColorMatrix type="matrix" values="0 0 0 0 0 0 0 0 0 0 0 0 0 0 0 0 0 0 0.25 0"/>
<feBlend mode="normal" in2="BackgroundImageFix" result="effect1_dropShadow_1511_11473"/>
<feBlend mode="normal" in="SourceGraphic" in2="effect1_dropShadow_1511_11473" result="shape"/>
</filter>
<filter id="filter21_d_1511_11473" x="-46.7137" y="206.598" width="75.928" height="72.0699" filterUnits="userSpaceOnUse" color-interpolation-filters="sRGB">
<feFlood flood-opacity="0" result="BackgroundImageFix"/>
<feColorMatrix in="SourceAlpha" type="matrix" values="0 0 0 0 0 0 0 0 0 0 0 0 0 0 0 0 0 0 127 0" result="hardAlpha"/>
<feOffset dx="1.30886" dy="1.30886"/>
<feGaussianBlur stdDeviation="0.65443"/>
<feComposite in2="hardAlpha" operator="out"/>
<feColorMatrix type="matrix" values="0 0 0 0 0 0 0 0 0 0 0 0 0 0 0 0 0 0 0.25 0"/>
<feBlend mode="normal" in2="BackgroundImageFix" result="effect1_dropShadow_1511_11473"/>
<feBlend mode="normal" in="SourceGraphic" in2="effect1_dropShadow_1511_11473" result="shape"/>
</filter>
<filter id="filter22_d_1511_11473" x="296.384" y="61.136" width="126.057" height="92.5861" filterUnits="userSpaceOnUse" color-interpolation-filters="sRGB">
<feFlood flood-opacity="0" result="BackgroundImageFix"/>
<feColorMatrix in="SourceAlpha" type="matrix" values="0 0 0 0 0 0 0 0 0 0 0 0 0 0 0 0 0 0 127 0" result="hardAlpha"/>
<feOffset dy="1.08736"/>
<feGaussianBlur stdDeviation="0.543681"/>
<feComposite in2="hardAlpha" operator="out"/>
<feColorMatrix type="matrix" values="0 0 0 0 0 0 0 0 0 0 0 0 0 0 0 0 0 0 0.25 0"/>
<feBlend mode="normal" in2="BackgroundImageFix" result="effect1_dropShadow_1511_11473"/>
<feBlend mode="normal" in="SourceGraphic" in2="effect1_dropShadow_1511_11473" result="shape"/>
</filter>
<filter id="filter23_d_1511_11473" x="306.696" y="55.0195" width="105.96" height="56.2375" filterUnits="userSpaceOnUse" color-interpolation-filters="sRGB">
<feFlood flood-opacity="0" result="BackgroundImageFix"/>
<feColorMatrix in="SourceAlpha" type="matrix" values="0 0 0 0 0 0 0 0 0 0 0 0 0 0 0 0 0 0 127 0" result="hardAlpha"/>
<feOffset dx="-0.271841" dy="-1.63104"/>
<feGaussianBlur stdDeviation="2.17473"/>
<feComposite in2="hardAlpha" operator="out"/>
<feColorMatrix type="matrix" values="0 0 0 0 0 0 0 0 0 0 0 0 0 0 0 0 0 0 0.25 0"/>
<feBlend mode="normal" in2="BackgroundImageFix" result="effect1_dropShadow_1511_11473"/>
<feBlend mode="normal" in="SourceGraphic" in2="effect1_dropShadow_1511_11473" result="shape"/>
</filter>
<radialGradient id="paint0_radial_1511_11473" cx="0" cy="0" r="1" gradientUnits="userSpaceOnUse" gradientTransform="translate(331.277 -369.102) rotate(90) scale(290.209 170.557)">
<stop stop-color="#1F1060"/>
<stop offset="1" stop-color="#1C114B" stop-opacity="0"/>
</radialGradient>
<radialGradient id="paint1_radial_1511_11473" cx="0" cy="0" r="1" gradientUnits="userSpaceOnUse" gradientTransform="translate(29.8069 -50.1984) rotate(90) scale(339.976 140.99)">
<stop stop-color="#1F1060"/>
<stop offset="1" stop-color="#1C114B" stop-opacity="0"/>
</radialGradient>
<radialGradient id="paint2_radial_1511_11473" cx="0" cy="0" r="1" gradientUnits="userSpaceOnUse" gradientTransform="translate(211.881 364.906) rotate(90) scale(249.771 681.406)">
<stop offset="0.160492" stop-color="#5E1696"/>
<stop offset="0.567222" stop-color="#7B29A1"/>
<stop offset="1" stop-color="#EF4BFF"/>
</radialGradient>
<linearGradient id="paint3_linear_1511_11473" x1="52.2968" y1="238.879" x2="84.0531" y2="238.568" gradientUnits="userSpaceOnUse">
<stop stop-color="#6B26B3"/>
<stop offset="1" stop-color="#57228B"/>
</linearGradient>
<linearGradient id="paint4_linear_1511_11473" x1="294.763" y1="191.76" x2="326.52" y2="191.449" gradientUnits="userSpaceOnUse">
<stop stop-color="#6B26B3"/>
<stop offset="1" stop-color="#57228B"/>
</linearGradient>
<linearGradient id="paint5_linear_1511_11473" x1="402.837" y1="258.267" x2="451.545" y2="257.549" gradientUnits="userSpaceOnUse">
<stop stop-color="#6B26B3"/>
<stop offset="1" stop-color="#57228B"/>
</linearGradient>
<linearGradient id="paint6_linear_1511_11473" x1="302.055" y1="278.252" x2="350.768" y2="277.749" gradientUnits="userSpaceOnUse">
<stop stop-color="#6B26B3"/>
<stop offset="1" stop-color="#57228B"/>
</linearGradient>
<linearGradient id="paint7_linear_1511_11473" x1="15.1743" y1="156.806" x2="45.3969" y2="150.702" gradientUnits="userSpaceOnUse">
<stop stop-color="#6B26B3"/>
<stop offset="1" stop-color="#57228B"/>
</linearGradient>
<linearGradient id="paint8_linear_1511_11473" x1="249.191" y1="117.892" x2="268" y2="117.785" gradientUnits="userSpaceOnUse">
<stop stop-color="#6B26B3"/>
<stop offset="1" stop-color="#57228B"/>
</linearGradient>
<linearGradient id="paint9_linear_1511_11473" x1="379.096" y1="290.989" x2="397.904" y2="290.881" gradientUnits="userSpaceOnUse">
<stop stop-color="#6B26B3"/>
<stop offset="1" stop-color="#57228B"/>
</linearGradient>
<linearGradient id="paint10_linear_1511_11473" x1="17.9" y1="196.484" x2="84.8042" y2="195.83" gradientUnits="userSpaceOnUse">
<stop stop-color="#6B26B3"/>
<stop offset="1" stop-color="#57228B"/>
</linearGradient>
<linearGradient id="paint11_linear_1511_11473" x1="377.651" y1="196.039" x2="468.739" y2="222.863" gradientUnits="userSpaceOnUse">
<stop stop-color="#6B26B3"/>
<stop offset="1" stop-color="#57228B"/>
</linearGradient>
<linearGradient id="paint12_linear_1511_11473" x1="44.286" y1="253.867" x2="-52.5292" y2="253.194" gradientUnits="userSpaceOnUse">
<stop stop-color="#6B26B3"/>
<stop offset="1" stop-color="#57228B"/>
</linearGradient>
<linearGradient id="paint13_linear_1511_11473" x1="371.755" y1="136.494" x2="301.764" y2="136.006" gradientUnits="userSpaceOnUse">
<stop stop-color="#6B26B3"/>
<stop offset="1" stop-color="#57228B"/>
</linearGradient>
<linearGradient id="paint14_linear_1511_11473" x1="107.292" y1="161.69" x2="64.1251" y2="161.504" gradientUnits="userSpaceOnUse">
<stop stop-color="#6B26B3"/>
<stop offset="1" stop-color="#57228B"/>
</linearGradient>
<linearGradient id="paint15_linear_1511_11473" x1="393.536" y1="245.542" x2="328.294" y2="224.826" gradientUnits="userSpaceOnUse">
<stop stop-color="#6B26B3"/>
<stop offset="1" stop-color="#57228B"/>
</linearGradient>
<linearGradient id="paint16_linear_1511_11473" x1="83.126" y1="258.375" x2="146.097" y2="285.211" gradientUnits="userSpaceOnUse">
<stop stop-color="#6B26B3"/>
<stop offset="1" stop-color="#57228B"/>
</linearGradient>
<linearGradient id="paint17_linear_1511_11473" x1="34.9033" y1="309.529" x2="97.845" y2="336.436" gradientUnits="userSpaceOnUse">
<stop stop-color="#6B26B3"/>
<stop offset="1" stop-color="#57228B"/>
</linearGradient>
<linearGradient id="paint18_linear_1511_11473" x1="77.7685" y1="125.683" x2="143.276" y2="123.615" gradientUnits="userSpaceOnUse">
<stop stop-color="#6B26B3"/>
<stop offset="1" stop-color="#57228B"/>
</linearGradient>
<linearGradient id="paint19_linear_1511_11473" x1="343.615" y1="321.029" x2="273.624" y2="321.518" gradientUnits="userSpaceOnUse">
<stop stop-color="#6B26B3"/>
<stop offset="1" stop-color="#57228B"/>
</linearGradient>
<linearGradient id="paint20_linear_1511_11473" x1="207.718" y1="189.823" x2="207.718" y2="102.784" gradientUnits="userSpaceOnUse">
<stop stop-color="#545050" stop-opacity="0.48"/>
<stop offset="1"/>
</linearGradient>
<linearGradient id="paint21_linear_1511_11473" x1="211.864" y1="56.6749" x2="208.739" y2="97.5984" gradientUnits="userSpaceOnUse">
<stop stop-color="#835B48"/>
<stop offset="1" stop-color="#B16F4C"/>
</linearGradient>
<radialGradient id="paint22_radial_1511_11473" cx="0" cy="0" r="1" gradientUnits="userSpaceOnUse" gradientTransform="translate(82.9454 17.3798) rotate(123.534) scale(92.2595 149.508)">
<stop offset="0.114583" stop-color="#6329A1" stop-opacity="0.6"/>
<stop offset="1" stop-color="#CE4CAC" stop-opacity="0.73"/>
</radialGradient>
<linearGradient id="paint23_linear_1511_11473" x1="23.2525" y1="89.092" x2="-26.1743" y2="240.594" gradientUnits="userSpaceOnUse">
<stop stop-color="#E2B0D5"/>
<stop offset="1" stop-color="#A23986" stop-opacity="0.5"/>
</linearGradient>
<linearGradient id="paint24_linear_1511_11473" x1="23.2578" y1="88.6188" x2="-26.1691" y2="240.121" gradientUnits="userSpaceOnUse">
<stop stop-color="#E2B0D5"/>
<stop offset="1" stop-color="#A23986" stop-opacity="0.5"/>
</linearGradient>
<linearGradient id="paint25_linear_1511_11473" x1="359.412" y1="61.136" x2="412.595" y2="135.703" gradientUnits="userSpaceOnUse">
<stop stop-color="#F37E05"/>
<stop offset="1" stop-color="#964E04"/>
</linearGradient>
<linearGradient id="paint26_linear_1511_11473" x1="332.138" y1="71.0576" x2="359.412" y2="151.547" gradientUnits="userSpaceOnUse">
<stop stop-color="#FF9B35"/>
<stop offset="1" stop-color="#D27719"/>
</linearGradient>
<linearGradient id="paint27_linear_1511_11473" x1="348.93" y1="97.6986" x2="340.775" y2="144.727" gradientUnits="userSpaceOnUse">
<stop stop-color="#E18526"/>
<stop offset="1" stop-color="#895016" stop-opacity="0.8"/>
</linearGradient>
<clipPath id="clip0_1511_11473">
<rect x="-1" y="-6293" width="414" height="6800" fill="white"/>
</clipPath>
</defs>
</svg>
