<svg width="428" height="1450" viewBox="0 0 428 1450" fill="none" xmlns="http://www.w3.org/2000/svg">
<g clip-path="url(#clip0_38_4056)">
<path d="M-98.0811 1241.7C-109.817 1245.94 -191.514 1228.36 -191.514 1228.36L-76.4368 1231.34C-72.4114 1229.58 -68.485 1228.36 -64.68 1228.36C-60.2528 1228.36 -43.759 1230.46 -25 1232.67C0.229431 1235.65 29.5559 1238.84 39.1345 1237.45C55.8351 1235.03 124.443 1225.33 137.533 1223.51C150.622 1221.69 158.747 1204.72 170.031 1204.72C181.315 1204.72 243.152 1210.78 263.464 1204.72C283.776 1198.66 378.253 1193.21 411.203 1200.48C444.152 1207.75 515.778 1204.72 540.152 1204.72H820V1292L491.5 1456.5H154H-25.0001L-25 1232.67L-76.4368 1231.34C-83.3939 1234.37 -90.6469 1239.01 -98.0811 1241.7Z" fill="url(#paint0_linear_38_4056)"/>
<path d="M244.156 1242.66C240.969 1251.31 237.228 1258.69 230.226 1256.49C223.223 1254.28 227.339 1246.15 230.527 1237.49C233.714 1228.84 230.775 1223.07 243.265 1227C250.268 1229.21 247.344 1234.01 244.156 1242.66Z" fill="url(#paint1_linear_38_4056)"/>
<path d="M191.279 1235.69C190.069 1244.79 189.95 1253 197.24 1254.04C204.531 1255.08 204.669 1246.04 205.879 1236.94C207.09 1227.83 212.423 1223.94 199.419 1222.08C192.128 1221.04 192.489 1226.59 191.279 1235.69Z" fill="url(#paint2_linear_38_4056)"/>
<g filter="url(#filter0_d_38_4056)">
<path d="M200.084 1195.26C199.001 1197.95 197.812 1199.77 196.057 1202.14C194.374 1204.01 191.878 1204.5 189.289 1204.56C186.126 1204.64 183.829 1203.17 183.184 1200.43C182.74 1198.54 183.496 1195.78 184.454 1194.05C185.785 1191.65 186.571 1188.43 188.944 1186.64C190.032 1185.82 191.029 1184.79 192.52 1184.61C193.991 1184.43 195.139 1184.47 196.61 1184.62C199.373 1184.91 200.778 1186.51 201.119 1189.12C201.441 1191.59 200.999 1193 200.084 1195.26Z" fill="url(#paint3_linear_38_4056)"/>
<path d="M244.853 1196.53C243.713 1198.19 242.21 1198.96 241.424 1200.94C241.991 1206.55 249.69 1205.86 253.175 1204.47C254.557 1203.92 255.554 1202.49 256.718 1201.54C258.044 1200.45 259.166 1199.31 260.364 1198.08C261.877 1196.54 263.461 1193.71 263.128 1191.35C262.803 1189.05 262.885 1185.29 260.103 1184.58C257.385 1183.89 254.593 1184.86 252.495 1186.83C250.392 1188.8 249.076 1191.11 247.256 1193.31C246.393 1194.35 245.625 1195.41 244.853 1196.53Z" fill="url(#paint4_linear_38_4056)"/>
<path d="M204.357 1152.4C213.607 1147.23 220.243 1146.07 230.547 1152.47C237.947 1155.13 242.063 1165.5 243.136 1168.63C244.044 1171.27 245.327 1173.76 246.097 1176.48C247.164 1180.26 248.263 1183.95 249.07 1187.82C250.606 1195.19 252.035 1202.59 252.149 1210.23C252.233 1215.84 251.852 1221.46 251.191 1227.06C250.815 1230.24 249.957 1233.68 247.704 1235.81C245.365 1238.03 243.264 1239.77 240.539 1241.3C235.506 1244.11 230.119 1245.93 224.586 1246.6C219.447 1247.23 214.17 1247.75 209.045 1247.31C206.735 1247.1 204.459 1246.67 202.197 1246.21C200.194 1245.81 198.57 1244.71 196.677 1244.06C193.815 1243.06 191.7 1240.48 189.867 1237.96C187.904 1235.27 186.282 1232.64 185.446 1229.19C184.351 1224.67 183.648 1220.15 184.102 1215.37C184.352 1212.73 184.394 1210.05 184.647 1207.38C184.909 1204.61 185.379 1201.91 185.642 1199.13C186.225 1192.99 187.014 1186.47 188.784 1180.57C189.466 1178.29 189.798 1175.61 190.835 1173.5C191.295 1172.56 191.696 1171.23 191.996 1170.22C192.423 1168.77 193.196 1167.43 193.761 1166.05C194.986 1163.05 196.832 1160.27 198.702 1157.76C200.158 1155.8 202.304 1153.54 204.357 1152.4Z" fill="url(#paint5_linear_38_4056)"/>
<path d="M236.691 1160.3C240.296 1161.06 241.775 1158.27 243.211 1155.35C244.12 1152.52 242.028 1150.48 239.684 1149.8C236.912 1149 233.802 1151.09 233.263 1154.06C233.072 1155.11 232.72 1156.51 233.401 1157.43C234.145 1158.42 235.442 1160.04 236.691 1160.3Z" fill="#AE8873"/>
<path d="M197.954 1149.66C200.821 1149.99 204.483 1153.42 204.553 1156.49C204.553 1159.5 202.527 1161.95 199.381 1161.16C197.786 1160.75 196.275 1159.93 195.1 1158.71C194.198 1157.78 192.91 1156.52 192.792 1155.11C192.525 1151.93 194.944 1149.32 197.954 1149.66Z" fill="#AE8873"/>
<path d="M207.692 1195.54C210.126 1195.31 212.309 1198.17 213.964 1199.73C215.01 1201.46 215.855 1203.94 216.095 1205.97C216.243 1207.22 216.095 1208.5 216.239 1209.74C216.371 1210.89 216.514 1211.96 216.408 1213.11C216.282 1214.49 216.507 1215.88 216.43 1217.26C216.347 1218.75 216.303 1220.32 216.415 1221.82C216.631 1224.74 216.371 1227.57 216.329 1230.47C216.288 1233.32 215.999 1236.16 215.829 1238.99C215.676 1241.55 215.796 1244.69 214.254 1246.65C212.848 1248.44 209.558 1247.19 207.949 1246.22C205.292 1244.61 203.139 1242.22 200.942 1239.92C193.953 1232.61 187.875 1222.37 189.031 1211.64C189.334 1208.82 190.024 1205.89 191.936 1204C193.945 1202 195.788 1199.8 198.055 1198.16C199.905 1196.81 202.195 1196.06 204.438 1195.85L207.692 1195.54Z" fill="#543A3A"/>
</g>
<path d="M242.347 1160.34C242.321 1158.54 237.606 1148.04 236.372 1146.41C234.119 1145.19 229.86 1143.26 218.058 1143.15C206.257 1143.04 202.326 1146.53 200.108 1147.84C198.922 1149.52 194.17 1159.51 194.195 1161.3C194.195 1161.3 206.732 1158.39 218.088 1158.5C229.445 1158.6 242.347 1160.34 242.347 1160.34Z" fill="#8F9D2F"/>
<g filter="url(#filter1_d_38_4056)">
<path d="M249.539 1171.17C249.517 1169.57 243.455 1160.27 241.862 1158.83C238.943 1157.76 233.423 1156.08 218.098 1156.08C202.773 1156.08 197.648 1159.21 194.76 1160.4C193.21 1161.9 186.98 1170.83 187.003 1172.42C187.003 1172.42 203.35 1166.57 218.098 1166.57C232.845 1166.57 249.539 1171.17 249.539 1171.17Z" fill="url(#paint6_linear_38_4056)"/>
</g>
<path d="M368.64 1142.34C339.827 1141.3 329.576 1110.32 357.185 1117.11L368.64 1142.34Z" fill="#E1C7B3"/>
<path d="M345.244 1149.22C361.088 1158.68 371.154 1160.69 390.126 1161.43C390.395 1159.77 389.131 1156.55 387.77 1155.42C375.69 1145.44 365.867 1143.84 352.391 1137.44L345.244 1149.22Z" fill="#C49E80"/>
<path d="M336.353 1142.32C335.994 1143.3 342.337 1149.18 345.691 1149.18C350.855 1145.19 351.616 1142.43 352.464 1137.38C352.464 1137.38 342.349 1134.44 341.333 1135.39C340.317 1136.35 340.885 1137.84 341.703 1139.52C339.33 1140.16 336.711 1141.34 336.353 1142.32Z" fill="url(#paint7_linear_38_4056)"/>
<path d="M334.646 1183.75C338.516 1165.71 343.901 1156.97 356.281 1142.57C357.677 1143.5 359.176 1146.63 359.073 1148.39C358.157 1164.04 352.632 1172.31 348.139 1186.54L334.646 1183.75Z" fill="url(#paint8_linear_38_4056)"/>
<path d="M333.641 1194.96C332.682 1194.56 332.696 1185.9 334.978 1183.45C341.42 1182.39 343.961 1183.71 348.238 1186.53C348.238 1186.53 343.498 1195.94 342.105 1196.03C340.713 1196.12 340.01 1194.69 339.337 1192.95C337.251 1194.25 334.601 1195.36 333.641 1194.96Z" fill="#776969"/>
<path d="M395.264 1188.31H378.282C378.662 1201.47 378.647 1209.4 378.282 1224.44H393.171C396.303 1206.27 399.787 1193.06 395.264 1188.31Z" fill="#C49E80"/>
<path d="M389.16 1235.49C390.353 1235.66 394.611 1226.12 393.242 1222.3C387.112 1219.67 383.746 1219.25 377.933 1221.06C377.933 1221.06 378.923 1233.32 380.365 1234.24C381.807 1235.16 383.169 1234.15 384.637 1232.8C385.926 1234.69 387.966 1235.32 389.16 1235.49Z" fill="#776969"/>
<path d="M353.229 1188.31H370.211C369.832 1201.47 369.847 1209.4 370.211 1224.44H355.323C352.191 1206.27 348.707 1193.06 353.229 1188.31Z" fill="#C49E80"/>
<path d="M359.334 1235.49C358.14 1235.66 353.882 1226.12 355.251 1222.3C361.381 1219.67 364.747 1219.25 370.56 1221.06C370.56 1221.06 369.57 1233.32 368.128 1234.24C366.686 1235.16 365.324 1234.15 363.857 1232.8C362.567 1234.69 360.527 1235.32 359.334 1235.49Z" fill="#776969"/>
<path d="M358.326 1138.06H394.516C394.516 1138.06 407.366 1169.96 405.268 1187.87C403.17 1205.78 376.421 1203.2 376.421 1203.2C376.421 1203.2 349.672 1205.78 347.574 1187.87C345.476 1169.96 358.326 1138.06 358.326 1138.06Z" fill="#C49E80"/>
<g filter="url(#filter2_d_38_4056)">
<path d="M386.076 1139.64L365.062 1135.74C354.351 1151.19 352.196 1171.82 345.362 1182.02C336.101 1195.84 380.052 1212.49 386.076 1201.48C392.1 1190.48 391.499 1165.19 386.076 1139.64Z" fill="url(#paint9_linear_38_4056)"/>
<path d="M373.958 1139.64L391.14 1135.74C399.898 1151.19 401.66 1171.82 407.247 1182.02C414.82 1195.84 378.884 1212.49 373.958 1201.48C369.032 1190.48 369.523 1165.19 373.958 1139.64Z" fill="url(#paint10_linear_38_4056)"/>
</g>
<ellipse cx="376.653" cy="1114.1" rx="33.964" ry="31.4051" fill="url(#paint11_linear_38_4056)"/>
<path d="M406.663 1079.98C399.684 1079.29 397.59 1091.38 397.59 1091.38L404.569 1101.39C404.569 1101.39 419.225 1100.46 420.853 1091.38C422.482 1082.31 420.853 1077.89 418.294 1077.19C415.735 1076.49 413.642 1080.68 406.663 1079.98Z" fill="url(#paint12_linear_38_4056)"/>
<path d="M345.436 1079.98C352.415 1079.29 354.509 1091.38 354.509 1091.38L347.53 1101.39C347.53 1101.39 332.874 1100.46 331.246 1091.38C329.617 1082.31 331.246 1077.89 333.805 1077.19C336.364 1076.49 338.457 1080.68 345.436 1079.98Z" fill="url(#paint13_linear_38_4056)"/>
<path d="M398.022 1091.48C397.996 1091.47 397.972 1091.45 397.952 1091.43L392.778 1087.73C392.778 1087.73 389.311 1081.38 389.022 1077.74C388.732 1074.1 388.54 1068.59 391.426 1069.07C394.311 1069.55 394.049 1081.08 396.79 1079.74C399.531 1078.4 398.308 1062.38 399.379 1059.19C400.451 1055.99 407.216 1060.14 406.144 1065.85C405.088 1071.48 396.673 1090.12 397.952 1091.43L398.022 1091.48Z" fill="#776969"/>
<path d="M342.38 1068.11C344.758 1073.76 356.568 1095.59 355.069 1096.73L362.579 1093.26C362.579 1093.26 363.097 1080.31 362.579 1076.5C362.061 1072.69 361.025 1066.97 358.177 1068.11C355.328 1069.26 358.177 1081.07 355.069 1080.31C351.962 1079.55 349.631 1062.78 347.818 1059.73C346.005 1056.68 340.003 1062.47 342.38 1068.11Z" fill="#776969"/>
<path d="M282.9 1146.7C249.334 1137.25 246.133 1097.91 276.642 1113.78L282.9 1146.7Z" fill="#E1C7B3"/>
<path d="M329.216 1146.04C304.52 1152.62 314.027 1156.25 287.359 1146.66C252.6 1134.15 258.998 1106.26 270.791 1088.38C285.155 1066.59 306.958 1058.26 328.541 1072.49C350.125 1086.72 343.581 1124.25 329.216 1146.04Z" fill="#C59E80"/>
<path d="M296.493 1221.44C298.139 1232.18 295.128 1241.55 286.195 1242.92C277.262 1244.29 270.859 1236.36 269.213 1225.62C267.567 1214.88 264.302 1206.47 280.235 1204.03C289.168 1202.66 294.847 1210.7 296.493 1221.44Z" fill="url(#paint14_linear_38_4056)"/>
<path d="M298.583 1218.44C296.813 1229.18 299.716 1238.6 308.633 1240.07C317.55 1241.54 324.044 1233.66 325.814 1222.92C327.583 1212.19 330.945 1203.8 315.04 1201.18C306.123 1199.71 300.352 1207.7 298.583 1218.44Z" fill="url(#paint15_linear_38_4056)"/>
<path d="M293.999 1164.52C302.18 1148.92 301.621 1140.72 314.33 1141.14C325.097 1145.17 322.728 1161.76 316.476 1174.5C308.196 1195.22 290.512 1205.61 285.764 1203.12C278.397 1199.26 287.392 1184.39 293.999 1164.52Z" fill="url(#paint16_linear_38_4056)"/>
<path d="M304.349 1168.52C303.005 1186.09 298.18 1192.74 309.177 1199.13C320.437 1201.43 327.237 1186.11 328.696 1171.99C332.668 1150.04 323.194 1131.85 317.849 1131.44C309.555 1130.8 309.289 1148.18 304.349 1168.52Z" fill="url(#paint17_linear_38_4056)"/>
<path d="M324.866 1083.92C340.057 1066.77 315.573 1048.94 306.68 1067.6L324.866 1083.92Z" fill="#C59E80"/>
<path d="M334.733 1174.65C337.737 1204.02 324.096 1217.21 297.387 1217.21C273.514 1217.21 254.516 1211.81 260.041 1174.65C264.633 1143.77 276.761 1132.1 297.387 1132.1C318.013 1132.1 331.197 1140.1 334.733 1174.65Z" fill="#C59E80"/>
<g filter="url(#filter3_d_38_4056)">
<ellipse rx="54.4269" ry="19.4133" transform="matrix(-0.941201 -0.337847 -0.186698 0.982417 306.397 1088.23)" fill="url(#paint18_linear_38_4056)"/>
</g>
<path d="M287.235 1071.04C285.38 1078.68 295.429 1086.03 309.893 1092.06C324.357 1098.09 337.758 1100.51 339.613 1092.87C341.468 1085.23 333.721 1063.94 319.257 1057.91C304.793 1051.89 289.09 1063.4 287.235 1071.04Z" fill="url(#paint19_linear_38_4056)"/>
<path d="M282.251 1078.44C289.852 1062.13 313.488 1071.77 305.937 1092.04C305.348 1093.62 303.401 1094.11 301.869 1093.18L283.554 1082.03C282.281 1081.25 281.661 1079.71 282.251 1078.44Z" fill="#A78B75"/>
<path fill-rule="evenodd" clip-rule="evenodd" d="M283.51 1082C288.316 1070.2 299.169 1073.45 296.635 1089.99L283.553 1082.03C283.539 1082.02 283.524 1082.01 283.51 1082Z" fill="#E1C7B3"/>
<g filter="url(#filter4_d_38_4056)">
<path d="M256.951 1143.27C275.514 1138.74 285.316 1143.01 301.752 1150.26C306.594 1142.36 311.775 1143.53 315.993 1146.2C314.824 1152.66 314.22 1153.39 308.751 1154.94C314.549 1157.18 313.693 1160.55 311.961 1166.47C308.783 1164.19 305.031 1161.34 302.355 1155.79C281.846 1169.06 268.081 1177.73 249.059 1177.19C244.656 1169.75 245.82 1165.99 252.798 1159.82C253.669 1154.72 254.618 1153.44 257.317 1154.7C254.714 1149.43 254.617 1146.92 256.951 1143.27Z" fill="#FFD80B"/>
<path fill-rule="evenodd" clip-rule="evenodd" d="M256.388 1152.68C265.824 1157.32 271.29 1157.05 278.914 1156.68C280.994 1156.58 283.234 1156.47 285.76 1156.45C282.25 1156.9 279.483 1157.61 276.984 1158.24C271.525 1159.64 267.339 1160.71 259.474 1158.07L257.15 1154.62C257.205 1154.65 257.261 1154.67 257.317 1154.7C256.96 1153.98 256.65 1153.31 256.388 1152.68ZM252.804 1159.78C259.706 1163.25 265.187 1163.75 273.558 1162.94C268.397 1164.06 267.356 1164.19 260.625 1163.82C254.944 1163.51 253.119 1160.77 252.688 1159.92C252.725 1159.89 252.761 1159.85 252.798 1159.82C252.8 1159.81 252.802 1159.8 252.804 1159.78Z" fill="black" fill-opacity="0.07"/>
</g>
<path d="M285.184 1142.95C258.561 1170.49 249.768 1189.44 289.052 1211.4L287.591 1212.11C241.473 1189.7 249.042 1172.08 285.184 1142.95Z" fill="#D94B4B"/>
<path d="M268.172 1140.92C255.011 1129.21 252.183 1121.86 241.655 1125.37C234.21 1131.58 242.88 1145.6 253.266 1155.27C268.566 1171.46 287.633 1176.23 290.628 1172.87C295.275 1167.64 281.722 1156.78 268.172 1140.92Z" fill="url(#paint20_linear_38_4056)"/>
<g filter="url(#filter5_d_38_4056)">
<path d="M328.95 1149.01C328.406 1148.02 327.556 1147.21 326.547 1146.72C309.645 1138.55 300.275 1138.05 286.278 1143.1C284.898 1143.6 283.886 1144.75 283.532 1146.19C277.277 1171.69 277.776 1186.26 283.457 1209.33C283.888 1211.08 285.204 1212.55 286.899 1213.17C300.652 1218.23 309.531 1220.64 326.441 1216.19C327.557 1215.9 328.498 1215.18 329.078 1214.2C343.904 1189.05 342.867 1174.26 328.95 1149.01Z" fill="#E67070"/>
<path d="M282.811 1145.33C280.871 1154.81 297.498 1169.85 311.496 1172.72C352.017 1184.65 341.022 1169.97 340.355 1160.75C339.532 1149.37 332.52 1141.26 318.522 1138.4C304.523 1135.53 284.751 1135.85 282.811 1145.33Z" fill="#D94B4B"/>
<path d="M317.008 1138.09C334.359 1144.99 337.654 1175.57 331.353 1187.39L326.197 1187.55C333.043 1175.44 329.644 1145.81 312.031 1137.37C314.44 1137.51 315.17 1137.7 317.008 1138.09Z" fill="#D9D9D9"/>
<rect width="10.064" height="5.2955" rx="2.64775" transform="matrix(-0.999933 -0.011571 0.112973 0.993598 334.785 1160.52)" fill="#D9D9D9"/>
<rect width="10.1671" height="5.20825" rx="2.60413" transform="matrix(-0.992191 -0.124726 -0.0722726 0.997385 333.947 1186.91)" fill="#D9D9D9"/>
</g>
<g filter="url(#filter6_d_38_4056)">
<path d="M20.3202 1228.12C15.0001 1244.3 15.0001 1262.1 15.0001 1262.1H42.1606C57.607 1273.78 64.9172 1270.63 78.0014 1265.34C87.7794 1269.94 92.8298 1270.39 101.802 1271C102.006 1270.75 102.07 1270.12 101.802 1265.34L124.482 1262.1V1255.22C124.482 1255.22 122.522 1243.9 117.762 1242.28C113.002 1240.66 111.882 1231.36 109.362 1228.12C106.842 1224.89 103.01 1215.78 90.0417 1205.07C90.0417 1205.07 88.9217 1179.58 86.4016 1175.94C83.8815 1172.3 81.6415 1175.13 80.5215 1173.11C79.4014 1171.09 74.9214 1149.65 73.2413 1146.82C71.5613 1143.99 65.1211 1143.18 62.6011 1141.56C60.081 1139.94 54.7609 1128.21 52.2409 1130.23C49.7208 1132.26 50.5608 1139.54 44.9607 1149.65C39.3606 1159.76 34.2563 1193.43 30.4004 1222.46C25.5283 1211.2 25.6403 1211.94 20.3202 1228.12Z" fill="#6B6465"/>
</g>
<path d="M79.5654 1263.26C79.5654 1270.68 52.9012 1275.23 41.4038 1263.26C45.3232 1196.42 44.7044 1289.04 55.6371 1213.34C59.1523 1189 64.7133 1219.73 64.7133 1219.73C64.7133 1219.73 79.5654 1255.83 79.5654 1263.26Z" fill="#5A5555"/>
<path d="M124.328 1260.16C122.228 1261.88 116.885 1263.37 101.431 1264.29C101.083 1262.62 98.1896 1252.25 89.6729 1222C97.7091 1231.77 98.7779 1235.62 101.431 1242.83C101.431 1242.83 100.812 1219.32 95.2424 1210.86C89.6729 1202.4 102.968 1216.68 109.888 1227.57C111.948 1236.32 113.935 1239.58 118.758 1242.83C123.731 1249.77 124.994 1253.56 124.328 1260.16Z" fill="#5A5555"/>
<path d="M79.1583 1196C78.4851 1194.81 77.4209 1186.7 73.3825 1149.8C72.6476 1143.14 76.1179 1154.88 81.6278 1175.59C86.7849 1172.49 85.7592 1186.31 85.7592 1186.31C84.7866 1186.42 86.7849 1190.44 81.6278 1178.68C80.3611 1186.84 80.2276 1191.46 79.1583 1196Z" fill="#5A5555"/>
<path d="M700.587 278.294C656.066 273.714 628.397 301.017 588.168 249.058C564.487 251.697 551.002 255.986 529.294 231.87C506.576 245.066 482.335 247.389 479.016 230.123C453.486 227.492 443.158 223.519 440.146 206.77C428.114 222.755 417.927 222.915 395.574 212.503C374.118 214.371 364.402 214.086 371.013 199.798C356.113 205.592 348.234 205.549 338.107 178.325L337.976 178.51C325.137 196.584 317.898 206.774 291.525 191.781C256.471 215.466 249.07 207.991 239.112 195.956C222.961 197.852 214.216 199.007 206.851 195.533C199.669 192.146 194.074 194.283 190.217 184.888C163.409 215.399 144.873 218.573 111.904 207.928C87.201 215.267 72.8565 215.791 53.1701 200.214C40.4372 218.908 29.6436 220.556 6.53755 214.176C-14.6032 227.976 -23.4316 240.928 -60.602 227.093C-83.293 236.498 -91.83 235.314 -100.498 223.069C-100.121 246.187 -105.963 254.108 -133.46 254.007C-151.541 253.483 -160.207 251.252 -171.27 241.5L-203.507 246.942L-226.09 235.971L-200.843 -14.3581C-192.464 -35.8673 -186.797 -45.7521 -161.494 -29.3105C-140.675 -30.6041 -137.413 -25.2029 -133.152 -14.4347C-134.767 -42.3264 -122.662 -34.9795 -104.946 -28.7211C-78.4512 -23.8095 -66.48 -19.1719 -61.3582 -0.290296C-31.5491 -6.39289 -18.6292 -63.0428 6.53754 -29.3105C53.223 -20.3814 101.289 -50.1496 111.904 -28.721C151.391 -37.0351 141.298 -38.7143 153.5 -14.4347C139.958 -118.903 199.056 -132.427 239.112 -28.721C249.346 -51.9826 273.864 -30.6868 306.5 -21.5C318.994 -40.0598 322.512 -37.7151 338.107 -29.3105C330.676 -42.4394 349.894 -29.8041 371.013 -28.721C383.646 -37.0729 432.309 -33.231 441.921 -14.3581C456.847 -28.5337 416.9 67.8984 441.921 79.3611C466.699 68.6047 474.133 78.4842 490.139 89.3378C503.976 94.4427 511.433 97.4458 499.921 114.359C513.938 108.837 521.766 107.902 535.554 117.953C548.686 130.259 552.263 136.002 549.676 142.645C552.167 136.248 555.846 138.14 569.22 141.036C587.881 124.558 594.027 132.747 607.929 135.48C629.791 130.797 634.223 136.436 640.485 148.224C648.75 122.017 662.304 118.599 691.721 119.129C706.194 113.185 713.335 116.071 724.913 128.613C731.351 112.123 738.378 109.466 756.925 116.245C780.202 112.857 790.83 113.503 795.572 129.603C804.282 117.228 810.383 117.468 822.099 122.818C834.562 118.299 841.517 115.981 851.13 130.86C887.48 133.529 888.696 143.527 885.984 163.523C913.19 175.898 916.104 185.093 906.494 204.201C931.339 222.027 927.532 228.003 916.347 237.667C908.049 254.895 915.383 267.426 882.364 278.729C878.556 291.674 882.337 302.888 844.031 292.761C843.939 311.721 841.239 319.799 817.114 315.615C791.086 322.928 776.201 332.038 751.94 309.042C718.794 311.059 708.213 303.617 700.587 278.294Z" fill="#002F4D"/>
</g>
<defs>
<filter id="filter0_d_38_4056" x="179.033" y="1148.08" width="88.1603" height="107.517" filterUnits="userSpaceOnUse" color-interpolation-filters="sRGB">
<feFlood flood-opacity="0" result="BackgroundImageFix"/>
<feColorMatrix in="SourceAlpha" type="matrix" values="0 0 0 0 0 0 0 0 0 0 0 0 0 0 0 0 0 0 127 0" result="hardAlpha"/>
<feOffset dy="4.02083"/>
<feGaussianBlur stdDeviation="2.01042"/>
<feComposite in2="hardAlpha" operator="out"/>
<feColorMatrix type="matrix" values="0 0 0 0 0 0 0 0 0 0 0 0 0 0 0 0 0 0 0.25 0"/>
<feBlend mode="normal" in2="BackgroundImageFix" result="effect1_dropShadow_38_4056"/>
<feBlend mode="normal" in="SourceGraphic" in2="effect1_dropShadow_38_4056" result="shape"/>
</filter>
<filter id="filter1_d_38_4056" x="183.002" y="1156.08" width="70.5371" height="24.3401" filterUnits="userSpaceOnUse" color-interpolation-filters="sRGB">
<feFlood flood-opacity="0" result="BackgroundImageFix"/>
<feColorMatrix in="SourceAlpha" type="matrix" values="0 0 0 0 0 0 0 0 0 0 0 0 0 0 0 0 0 0 127 0" result="hardAlpha"/>
<feOffset dy="4"/>
<feGaussianBlur stdDeviation="2"/>
<feComposite in2="hardAlpha" operator="out"/>
<feColorMatrix type="matrix" values="0 0 0 0 0 0 0 0 0 0 0 0 0 0 0 0 0 0 0.25 0"/>
<feBlend mode="normal" in2="BackgroundImageFix" result="effect1_dropShadow_38_4056"/>
<feBlend mode="normal" in="SourceGraphic" in2="effect1_dropShadow_38_4056" result="shape"/>
</filter>
<filter id="filter2_d_38_4056" x="340.065" y="1135.74" width="72.2477" height="77.3655" filterUnits="userSpaceOnUse" color-interpolation-filters="sRGB">
<feFlood flood-opacity="0" result="BackgroundImageFix"/>
<feColorMatrix in="SourceAlpha" type="matrix" values="0 0 0 0 0 0 0 0 0 0 0 0 0 0 0 0 0 0 127 0" result="hardAlpha"/>
<feOffset dy="4.02083"/>
<feGaussianBlur stdDeviation="2.01042"/>
<feComposite in2="hardAlpha" operator="out"/>
<feColorMatrix type="matrix" values="0 0 0 0 0 0 0 0 0 0 0 0 0 0 0 0 0 0 0.25 0"/>
<feBlend mode="normal" in2="BackgroundImageFix" result="effect1_dropShadow_38_4056"/>
<feBlend mode="normal" in="SourceGraphic" in2="effect1_dropShadow_38_4056" result="shape"/>
</filter>
<filter id="filter3_d_38_4056" x="251.02" y="1061.73" width="110.756" height="61.027" filterUnits="userSpaceOnUse" color-interpolation-filters="sRGB">
<feFlood flood-opacity="0" result="BackgroundImageFix"/>
<feColorMatrix in="SourceAlpha" type="matrix" values="0 0 0 0 0 0 0 0 0 0 0 0 0 0 0 0 0 0 127 0" result="hardAlpha"/>
<feOffset dy="4.02083"/>
<feGaussianBlur stdDeviation="2.01042"/>
<feComposite in2="hardAlpha" operator="out"/>
<feColorMatrix type="matrix" values="0 0 0 0 0 0 0 0 0 0 0 0 0 0 0 0 0 0 0.25 0"/>
<feBlend mode="normal" in2="BackgroundImageFix" result="effect1_dropShadow_38_4056"/>
<feBlend mode="normal" in="SourceGraphic" in2="effect1_dropShadow_38_4056" result="shape"/>
</filter>
<filter id="filter4_d_38_4056" x="242.462" y="1141.4" width="77.5303" height="43.8097" filterUnits="userSpaceOnUse" color-interpolation-filters="sRGB">
<feFlood flood-opacity="0" result="BackgroundImageFix"/>
<feColorMatrix in="SourceAlpha" type="matrix" values="0 0 0 0 0 0 0 0 0 0 0 0 0 0 0 0 0 0 127 0" result="hardAlpha"/>
<feOffset dy="4"/>
<feGaussianBlur stdDeviation="2"/>
<feComposite in2="hardAlpha" operator="out"/>
<feColorMatrix type="matrix" values="0 0 0 0 0 0 0 0 0 0 0 0 0 0 0 0 0 0 0.25 0"/>
<feBlend mode="normal" in2="BackgroundImageFix" result="effect1_dropShadow_38_4056"/>
<feBlend mode="normal" in="SourceGraphic" in2="effect1_dropShadow_38_4056" result="shape"/>
</filter>
<filter id="filter5_d_38_4056" x="274.996" y="1136.81" width="71.2306" height="89.7516" filterUnits="userSpaceOnUse" color-interpolation-filters="sRGB">
<feFlood flood-opacity="0" result="BackgroundImageFix"/>
<feColorMatrix in="SourceAlpha" type="matrix" values="0 0 0 0 0 0 0 0 0 0 0 0 0 0 0 0 0 0 127 0" result="hardAlpha"/>
<feOffset dy="4.02083"/>
<feGaussianBlur stdDeviation="2.01042"/>
<feComposite in2="hardAlpha" operator="out"/>
<feColorMatrix type="matrix" values="0 0 0 0 0 0 0 0 0 0 0 0 0 0 0 0 0 0 0.25 0"/>
<feBlend mode="normal" in2="BackgroundImageFix" result="effect1_dropShadow_38_4056"/>
<feBlend mode="normal" in="SourceGraphic" in2="effect1_dropShadow_38_4056" result="shape"/>
</filter>
<filter id="filter6_d_38_4056" x="10.9792" y="1130" width="117.524" height="149.042" filterUnits="userSpaceOnUse" color-interpolation-filters="sRGB">
<feFlood flood-opacity="0" result="BackgroundImageFix"/>
<feColorMatrix in="SourceAlpha" type="matrix" values="0 0 0 0 0 0 0 0 0 0 0 0 0 0 0 0 0 0 127 0" result="hardAlpha"/>
<feOffset dy="4.02083"/>
<feGaussianBlur stdDeviation="2.01042"/>
<feComposite in2="hardAlpha" operator="out"/>
<feColorMatrix type="matrix" values="0 0 0 0 0 0 0 0 0 0 0 0 0 0 0 0 0 0 0.25 0"/>
<feBlend mode="normal" in2="BackgroundImageFix" result="effect1_dropShadow_38_4056"/>
<feBlend mode="normal" in="SourceGraphic" in2="effect1_dropShadow_38_4056" result="shape"/>
</filter>
<linearGradient id="paint0_linear_38_4056" x1="168.453" y1="1229.12" x2="168.453" y2="1374.79" gradientUnits="userSpaceOnUse">
<stop stop-color="#76736E"/>
<stop offset="0.4375" stop-color="#92908A"/>
</linearGradient>
<linearGradient id="paint1_linear_38_4056" x1="244.125" y1="1227.4" x2="234.105" y2="1259.22" gradientUnits="userSpaceOnUse">
<stop stop-color="#AE806B"/>
<stop offset="1" stop-color="#B29278"/>
</linearGradient>
<linearGradient id="paint2_linear_38_4056" x1="198.462" y1="1222.07" x2="193.757" y2="1254.99" gradientUnits="userSpaceOnUse">
<stop stop-color="#B0826D"/>
<stop offset="1" stop-color="#B29278"/>
</linearGradient>
<linearGradient id="paint3_linear_38_4056" x1="189.446" y1="1201.82" x2="196.287" y2="1181.1" gradientUnits="userSpaceOnUse">
<stop stop-color="#AD806B"/>
<stop offset="0.674683" stop-color="#C99A81"/>
</linearGradient>
<linearGradient id="paint4_linear_38_4056" x1="249.395" y1="1203.03" x2="252.98" y2="1193.28" gradientUnits="userSpaceOnUse">
<stop stop-color="#B0826D"/>
<stop offset="0.901042" stop-color="#C89980"/>
</linearGradient>
<linearGradient id="paint5_linear_38_4056" x1="224.416" y1="1148.96" x2="215.807" y2="1247.89" gradientUnits="userSpaceOnUse">
<stop stop-color="#AD806B"/>
<stop offset="1" stop-color="#C99A81"/>
</linearGradient>
<linearGradient id="paint6_linear_38_4056" x1="218.047" y1="1156.06" x2="218.362" y2="1171.79" gradientUnits="userSpaceOnUse">
<stop stop-color="#8F9D2F"/>
<stop offset="0.932292" stop-color="#697421"/>
<stop offset="1" stop-color="#57601B"/>
</linearGradient>
<linearGradient id="paint7_linear_38_4056" x1="349.617" y1="1145.68" x2="340.588" y2="1136.1" gradientUnits="userSpaceOnUse">
<stop stop-color="#776969"/>
<stop offset="1" stop-color="#625858"/>
</linearGradient>
<linearGradient id="paint8_linear_38_4056" x1="346.862" y1="1142.57" x2="346.862" y2="1186.54" gradientUnits="userSpaceOnUse">
<stop offset="0.286458" stop-color="#C59F81"/>
<stop offset="0.734375" stop-color="#BD9678"/>
<stop offset="1" stop-color="#9C7352"/>
</linearGradient>
<linearGradient id="paint9_linear_38_4056" x1="367.229" y1="1135.74" x2="367.229" y2="1205.06" gradientUnits="userSpaceOnUse">
<stop offset="0.796875" stop-color="#485199"/>
<stop offset="1" stop-color="#353D7C"/>
</linearGradient>
<linearGradient id="paint10_linear_38_4056" x1="389.369" y1="1135.74" x2="389.369" y2="1205.06" gradientUnits="userSpaceOnUse">
<stop offset="0.796875" stop-color="#485199"/>
<stop offset="1" stop-color="#353D7C"/>
</linearGradient>
<linearGradient id="paint11_linear_38_4056" x1="376.653" y1="1082.7" x2="376.653" y2="1145.51" gradientUnits="userSpaceOnUse">
<stop offset="0.786458" stop-color="#C49E80"/>
<stop offset="0.96875" stop-color="#B6957B"/>
<stop offset="1" stop-color="#A78B75"/>
</linearGradient>
<linearGradient id="paint12_linear_38_4056" x1="409.548" y1="1077.11" x2="409.548" y2="1101.39" gradientUnits="userSpaceOnUse">
<stop stop-color="#C49E80"/>
<stop offset="1" stop-color="#AC8C73"/>
</linearGradient>
<linearGradient id="paint13_linear_38_4056" x1="342.551" y1="1077.11" x2="342.551" y2="1101.39" gradientUnits="userSpaceOnUse">
<stop stop-color="#C49E80"/>
<stop offset="1" stop-color="#AC8C73"/>
</linearGradient>
<linearGradient id="paint14_linear_38_4056" x1="279.836" y1="1204.09" x2="285.796" y2="1242.98" gradientUnits="userSpaceOnUse">
<stop stop-color="#A68770"/>
<stop offset="0.0001" stop-color="#B49379"/>
<stop offset="0.0002" stop-color="#BF9A7E"/>
<stop offset="0.661458" stop-color="#C39D80"/>
<stop offset="0.9999" stop-color="#9F8168"/>
</linearGradient>
<linearGradient id="paint15_linear_38_4056" x1="315.438" y1="1201.24" x2="309.031" y2="1240.13" gradientUnits="userSpaceOnUse">
<stop offset="0.536458" stop-color="#C59E80"/>
<stop offset="1" stop-color="#8B7462"/>
</linearGradient>
<linearGradient id="paint16_linear_38_4056" x1="286.864" y1="1203.7" x2="318.516" y2="1143.34" gradientUnits="userSpaceOnUse">
<stop stop-color="#C59E80"/>
<stop offset="1" stop-color="#B29278"/>
</linearGradient>
<linearGradient id="paint17_linear_38_4056" x1="319.087" y1="1131.53" x2="313.889" y2="1199.49" gradientUnits="userSpaceOnUse">
<stop stop-color="#C59E80"/>
<stop offset="1" stop-color="#B29278"/>
</linearGradient>
<linearGradient id="paint18_linear_38_4056" x1="54.4269" y1="0" x2="54.4269" y2="38.8266" gradientUnits="userSpaceOnUse">
<stop stop-color="#FFD80B"/>
<stop offset="1" stop-color="#FAE161"/>
</linearGradient>
<linearGradient id="paint19_linear_38_4056" x1="319.257" y1="1057.91" x2="307.393" y2="1086.38" gradientUnits="userSpaceOnUse">
<stop stop-color="#FFD80B"/>
<stop offset="1" stop-color="#E7CE4F"/>
</linearGradient>
<linearGradient id="paint20_linear_38_4056" x1="289.933" y1="1173.65" x2="239.015" y2="1128.34" gradientUnits="userSpaceOnUse">
<stop offset="0.713542" stop-color="#C59E80"/>
<stop offset="0.875" stop-color="#C09C7F"/>
</linearGradient>
<clipPath id="clip0_38_4056">
<rect width="428" height="1450" fill="white"/>
</clipPath>
</defs>
</svg>
