<svg width="428" height="1135" viewBox="0 0 428 1135" fill="none" xmlns="http://www.w3.org/2000/svg">
<g clip-path="url(#clip0_38_3927)">
<g filter="url(#filter0_f_38_3927)">
<path d="M7.93427 806.961C13.3745 786.134 7.93427 771.161 37.7176 759.973C67.5009 748.784 92.6305 759.973 92.6305 759.973C92.6305 759.973 118.619 772.121 128.929 783.094C148.569 772.371 156.851 783.094 195.011 783.094C233.171 783.094 257.369 806.961 257.369 806.961C257.369 806.961 261.092 798.011 308.56 806.961C356.027 815.912 330.897 824.862 330.897 824.862C354.751 818.094 386.311 829.435 437 845H-87L-46.9787 824.862C-46.9787 824.862 -63.7318 818.895 -46.9787 806.961C-30.2256 795.027 -8.18211 798.433 7.93427 806.961Z" fill="white" fill-opacity="0.42"/>
</g>
<g filter="url(#filter1_f_38_3927)">
<path d="M566.437 209.075C562.336 189.404 566.437 175.263 543.986 164.696C521.535 154.13 502.591 164.696 502.591 164.696C502.591 164.696 483.001 176.17 475.229 186.533C460.424 176.406 454.181 186.533 425.416 186.533C396.65 186.533 378.409 209.075 378.409 209.075C378.409 209.075 375.602 200.621 339.821 209.075C304.039 217.528 322.982 225.981 322.982 225.981C305.001 219.589 281.21 230.3 243 245H638L607.831 225.981C607.831 225.981 620.46 220.346 607.831 209.075C595.202 197.804 578.586 201.02 566.437 209.075Z" fill="white" fill-opacity="0.9"/>
<path d="M566.437 209.075C562.336 189.404 566.437 175.263 543.986 164.696C521.535 154.13 502.591 164.696 502.591 164.696C502.591 164.696 483.001 176.17 475.229 186.533C460.424 176.406 454.181 186.533 425.416 186.533C396.65 186.533 378.409 209.075 378.409 209.075C378.409 209.075 375.602 200.621 339.821 209.075C304.039 217.528 322.982 225.981 322.982 225.981C305.001 219.589 281.21 230.3 243 245H638L607.831 225.981C607.831 225.981 620.46 220.346 607.831 209.075C595.202 197.804 578.586 201.02 566.437 209.075Z" stroke="white" stroke-opacity="0.85" stroke-width="3.01562"/>
</g>
</g>
<defs>
<filter id="filter0_f_38_3927" x="-91.0208" y="750.979" width="532.042" height="98.0417" filterUnits="userSpaceOnUse" color-interpolation-filters="sRGB">
<feFlood flood-opacity="0" result="BackgroundImageFix"/>
<feBlend mode="normal" in="SourceGraphic" in2="BackgroundImageFix" result="shape"/>
<feGaussianBlur stdDeviation="2.01042" result="effect1_foregroundBlur_38_3927"/>
</filter>
<filter id="filter1_f_38_3927" x="238.438" y="154.471" width="408.802" height="96.0573" filterUnits="userSpaceOnUse" color-interpolation-filters="sRGB">
<feFlood flood-opacity="0" result="BackgroundImageFix"/>
<feBlend mode="normal" in="SourceGraphic" in2="BackgroundImageFix" result="shape"/>
<feGaussianBlur stdDeviation="2.01042" result="effect1_foregroundBlur_38_3927"/>
</filter>
<clipPath id="clip0_38_3927">
<rect width="428" height="1135" fill="white"/>
</clipPath>
</defs>
</svg>
