<svg width="1440" height="1175" viewBox="0 0 1440 1175" fill="none" xmlns="http://www.w3.org/2000/svg">
<g clip-path="url(#clip0_20_2156)">
<g filter="url(#filter0_d_20_2156)">
<g filter="url(#filter1_d_20_2156)">
<path d="M659.222 910.596L572.235 956.733H788.419L814.252 891.897C814.698 890.777 815.046 889.622 815.291 888.442L830.512 815.382L837.267 754.589L837.268 754.579C837.289 754.389 840.483 725.633 849.22 709.888C851.674 705.467 855.554 700.29 858.829 696.209C862.529 691.598 868.189 689.102 874.101 689.102H893.393C902.257 686.43 901.244 673.566 892.071 672.315L885.597 671.433L883.341 669.831C874.705 663.702 863.548 662.376 853.715 666.309L844.011 670.191C841.944 671.017 839.944 671.999 838.148 673.314C832.911 677.148 821.47 686.815 814.922 702.093C805.381 724.355 784.72 824.86 779.674 849.788C778.922 853.5 777.514 857.041 775.503 860.249L764.005 878.591C759.362 885.997 751.824 891.115 743.226 892.696L674.172 905.396C668.952 906.356 663.91 908.109 659.222 910.596Z" fill="#872E87"/>
</g>
<path d="M755.725 903.978C735.092 919.947 728.137 910.214 700.594 913.6C692.048 914.65 672.502 918.223 668.42 925.804C656.369 948.186 715.384 934.964 739.096 925.804C750.625 921.35 757.275 918.282 766.638 910.214C775.835 902.289 785.866 885.789 785.866 885.789C785.866 885.789 795.48 856.559 785.866 859.806C778.899 862.158 777.032 876.435 777.032 876.435C777.032 876.435 766.479 895.654 755.725 903.978Z" fill="#AC5EAC"/>
<path fill-rule="evenodd" clip-rule="evenodd" d="M878.258 673.85C877.986 673.052 877.267 672.42 876.397 672.003C875.462 671.554 874.309 671.331 873.211 671.417C872.112 671.503 871.043 671.901 870.314 672.724C869.581 673.55 869.227 674.765 869.479 676.412C869.502 676.56 869.646 676.663 869.801 676.644C869.956 676.624 870.064 676.488 870.041 676.34C869.806 674.805 870.145 673.757 870.75 673.075C871.358 672.389 872.271 672.033 873.264 671.955C873.98 671.899 874.726 671.989 875.401 672.195C874.081 672.291 872.982 673.261 872.831 674.56C872.658 676.041 873.781 677.388 875.339 677.57C876.896 677.752 878.299 676.698 878.472 675.218C878.528 674.736 878.447 674.268 878.258 673.85Z" fill="black"/>
</g>
<path d="M1200.29 764.296L1249.21 898.615L1264.62 906.445L1255.79 883.128C1255.23 881.676 1255.27 880.065 1255.9 878.642L1269.54 847.457L1280.57 828.082L1291.6 808.707L1305.43 776.828L1310.15 759.946C1310.79 757.651 1308.03 755.945 1306.27 757.546L1301.85 761.555L1288.84 772.721L1277.58 782.388C1276.43 783.383 1275.4 784.523 1274.53 785.78L1265.18 799.325C1263.94 801.114 1262.96 803.063 1262.25 805.119L1256.76 821.135C1256.54 821.753 1256.38 822.389 1256.28 823.034L1250.04 860.375C1249.84 861.592 1248.14 861.731 1247.75 860.563L1236.59 827.923C1236.18 826.719 1236.17 825.416 1236.55 824.204L1240.69 811.18L1262.59 755.058L1270.38 725.882C1270.99 723.572 1268.2 721.9 1266.46 723.538L1253 736.178C1252.75 736.418 1252.51 736.68 1252.3 736.961L1243.45 748.858C1241.63 751.312 1240.29 754.094 1239.52 757.053L1236.71 767.844L1230.26 803.461C1230.04 804.689 1228.32 804.788 1227.95 803.593L1223.13 787.648C1223.07 787.43 1223.07 787.198 1223.13 786.979L1233.92 749.135L1245.85 711.368C1246.18 710.335 1246.36 709.262 1246.4 708.18L1246.7 698.869C1246.78 696.509 1243.74 695.493 1242.38 697.424L1227.3 718.871C1225.65 721.21 1224.44 723.825 1223.73 726.593L1218.68 746.108C1218.52 746.724 1218.41 747.351 1218.35 747.984L1215.9 774.443C1215.8 775.556 1214.35 775.923 1213.73 774.995L1204.83 761.73L1199.46 722.976L1193.68 699.915C1193.58 699.508 1193.43 699.113 1193.25 698.737L1184.39 680.748C1183.25 678.434 1179.76 679.336 1179.89 681.912L1181.31 711.424C1181.39 713.01 1181.62 714.585 1182.01 716.125L1188.62 742.135C1188.86 743.102 1189.23 744.035 1189.71 744.911L1200.21 764.132C1200.24 764.185 1200.27 764.24 1200.29 764.296Z" fill="#C56593"/>
<path d="M1208.46 857.249L1239.9 873.224L1234.07 855.85L1200.89 832.746L1179.6 821.928C1177.03 820.621 1174.24 819.793 1171.37 819.485L1120.62 814.038C1118.09 813.766 1116.96 817.138 1119.15 818.443L1161.99 843.94C1163.97 845.121 1166.12 846.007 1168.36 846.569L1203.48 855.385C1205.21 855.818 1206.88 856.443 1208.46 857.249Z" fill="#C56593"/>
<path d="M1206.38 814.879L1223.14 823.395L1213.05 798.576L1199.01 786.979C1197.28 785.552 1195.35 784.377 1193.3 783.489L1169.02 773.008C1166.36 771.858 1163.51 771.206 1160.61 771.083L1136.55 770.061C1134.22 769.962 1133.16 772.936 1135.03 774.336L1176.6 805.506C1179.23 807.479 1182.24 808.884 1185.44 809.633L1203.7 813.902C1204.63 814.119 1205.53 814.447 1206.38 814.879Z" fill="#C56593"/>
<path d="M1143.58 732.83L1210.13 790.367L1205.77 776.621L1194.01 764.401L1177.16 751.035L1144.99 730.923C1143.75 730.146 1142.47 731.871 1143.58 732.83Z" fill="#C56593"/>
<path d="M1370.1 850.145L1358.01 865.034L1330.39 895.193L1302.77 925.351L1330.95 939.673L1349.34 914.04C1350.05 913.06 1350.67 912.028 1351.22 910.953L1369.46 875.054C1370.59 872.844 1371.36 870.471 1371.75 868.022L1374.29 852.017C1374.68 849.617 1371.64 848.259 1370.1 850.145Z" fill="#C56593"/>
<g filter="url(#filter2_d_20_2156)">
<path d="M15.5831 911.86C-12.4821 754.984 -7.20543 729.966 -2.76855 633.508C3.78666 745.263 4.76647 808.355 24.7576 917.932L15.5831 911.86Z" fill="#6CB236"/>
<path d="M89.0027 556.312C2.83349 510.271 -23.1892 595.215 1.09784 630.095C-38.4053 598.768 -47.6132 608.581 -60.038 634.542C-62.2147 645.944 -57.959 654.651 -42.6755 673.407C-15.1938 706.501 -2.52849 708.787 20.7429 716.904C-0.147538 679.801 -1.44615 666.699 18.3101 659.675C9.57696 681.872 14.551 695.937 35.465 723C55.1015 732.228 68.2441 733.722 97.3337 726.589C73.9283 724.397 63.2131 721.771 59.6458 708.038C50.7132 674.673 51.0048 665.598 66.6813 676.961C69.6225 707.557 83.7315 716.604 117.693 727.016C124.525 727.268 130.55 727.372 136.163 727.087C113.901 698.709 106.406 686.13 124.395 684.645C127.88 701.762 135.185 710.264 157.352 723.305C164.87 720.784 172.625 716.789 181.801 710.599C179.803 700.164 183.7 678.848 171.824 662.321C119.163 665.651 109.498 667.718 116.484 661.562C123.47 655.406 143.844 647.001 171.549 645.3L171.471 645.146C167.033 636.39 164.521 631.434 140.573 631.587C56.0359 647.022 54.7749 643.496 73.9104 632.843C104.258 621.896 129.373 609.447 147.411 609.92C147.411 609.92 146.443 603.007 137.458 597.433C131.329 591.346 91.1757 599.846 52.1411 616.842C73.8719 595.762 81.214 580.26 126.424 577.034C128.071 565.981 121.861 562.228 97.9624 560.338C71.698 566.332 58.3046 572.822 37.252 591.092C47.9867 568.028 56.1912 557.367 89.0027 556.312Z" fill="#27844C"/>
<path d="M170.838 704.559C133.079 676.42 94.9062 661.235 17.9396 631.835C10.7784 629.032 8.23385 629.676 4.76874 632.44C74.2375 657.938 108.647 670.17 170.838 704.559Z" fill="#6CB236"/>
</g>
<g filter="url(#filter3_f_20_2156)">
<path d="M743.484 22.9708C701.744 -0.242478 688.389 -12.4606 743.484 -28L1200.39 -28C1246.56 -19.2811 1252.41 -6.0613 1226.36 32.746C1285.1 60.3542 1264.08 71.336 1226.89 90.7702L1226.36 91.0481C1235.6 125.184 1234.55 141.632 1163.2 140.972C1140.04 156.031 1127.04 164.447 1085.87 154.936C1031.08 164.935 1002.14 166.76 970.755 127.007C937.502 128.85 918.43 130.483 914.675 91.0481C863.85 94.6941 839.728 92.1566 818.454 64.8645C761.822 59.8197 736.154 54.4752 743.484 22.9708Z" fill="#023F48"/>
</g>
<path d="M1789.52 836.029C1831.26 859.242 1844.61 871.461 1789.52 887L1332.61 887C1286.44 878.281 1280.59 865.061 1306.64 826.254C1247.9 798.646 1268.92 787.664 1306.11 768.23L1306.64 767.952C1297.4 733.816 1298.45 717.368 1369.8 718.028C1392.96 702.969 1405.96 694.553 1447.13 704.064C1501.92 694.065 1530.86 692.24 1562.24 731.993C1595.5 730.15 1614.57 728.517 1618.32 767.952C1669.15 764.306 1693.27 766.843 1714.55 794.135C1771.18 799.18 1796.85 804.525 1789.52 836.029Z" fill="#11693C"/>
<g filter="url(#filter4_f_20_2156)">
<path d="M268.47 72.2114C214.391 55.4878 193.716 43.0035 232.59 -3.68451L645.688 -198.98C693.569 -205.732 708.163 -188.548 711.933 -119.63C784.473 -103.627 773.203 -78.2928 753.259 -33.4591L752.974 -32.8179C785.36 14.0603 795.988 39.0014 731.009 68.5167C720.675 100.837 714.843 118.927 670.923 122.364C628.43 160.668 603.549 175.755 547.187 129.979C518.419 146.937 502.325 157.521 471.171 100.407C427.785 127.56 404.189 134.092 365.743 102.547C310.989 119.242 284.02 122.255 268.47 72.2114Z" fill="#11693C"/>
</g>
<mask id="mask0_20_2156" style="mask-type:alpha" maskUnits="userSpaceOnUse" x="439" y="790" width="309" height="200">
<path d="M713.064 989.247C700.746 989.247 659.909 988.046 621.914 989.247H515.06C515.06 989.247 488.578 950.734 472.565 944.839C456.552 938.944 445.668 917.574 439 884.711C439 884.711 454.705 888.641 465.79 892.178C476.876 895.715 497.816 905.54 497.816 905.54C497.816 905.54 474.105 892.571 467.33 874.886C460.556 857.202 450.394 818.688 450.394 818.688C450.394 818.688 470.41 835.194 497.816 841.875C525.222 848.556 539.387 874.886 539.387 874.886C539.387 874.886 537.848 847.377 542.467 830.871C547.086 814.366 557.864 790 557.864 790C557.864 790 585.886 830.478 585.886 858.381C585.886 886.283 576.032 916.151 576.032 916.151C576.032 916.151 594.508 883.532 604.67 870.957C614.832 858.381 631.768 855.237 646.549 858.381C661.33 861.525 679.499 855.237 679.499 855.237C679.499 855.237 670.26 876.458 663.486 886.283C656.711 896.108 634.54 913.4 628.073 921.653C621.606 929.906 600.975 971.17 600.975 971.17C600.975 971.17 628.073 935.014 644.702 931.87C661.33 928.727 690.584 936.586 711.524 953.485C732.464 970.384 747.861 980.995 747.861 980.995C747.861 980.995 725.381 989.247 713.064 989.247Z" fill="#D9D9D9"/>
</mask>
<g mask="url(#mask0_20_2156)">
<path d="M713.064 989.247C700.746 989.247 659.909 988.046 621.914 989.247H515.06C515.06 989.247 488.578 950.734 472.565 944.839C456.552 938.944 445.668 917.574 439 884.711C439 884.711 454.705 888.641 465.79 892.178C476.876 895.715 497.816 905.54 497.816 905.54C497.816 905.54 474.105 892.571 467.33 874.886C460.556 857.202 450.394 818.688 450.394 818.688C450.394 818.688 470.41 835.194 497.816 841.875C525.222 848.556 539.387 874.886 539.387 874.886C539.387 874.886 537.848 847.377 542.467 830.871C547.086 814.366 557.864 790 557.864 790C557.864 790 585.886 830.478 585.886 858.381C585.886 886.283 576.032 916.151 576.032 916.151C576.032 916.151 594.508 883.532 604.67 870.957C614.832 858.381 631.768 855.237 646.549 858.381C661.33 861.525 679.499 855.237 679.499 855.237C679.499 855.237 670.26 876.458 663.486 886.283C656.711 896.108 634.54 913.4 628.073 921.653C621.606 929.906 600.975 971.17 600.975 971.17C600.975 971.17 628.073 935.014 644.702 931.87C661.33 928.727 690.584 936.586 711.524 953.485C732.464 970.384 747.861 980.995 747.861 980.995C747.861 980.995 725.381 989.247 713.064 989.247Z" fill="#E0939E"/>
<path d="M500.587 932.656C489.977 915.74 479.562 906.286 460.555 889.427C383.384 856.141 439.794 937.761 460.555 1003H746.629V968.026C716.324 951.333 696.224 946.859 656.095 945.625C674.594 952.591 680.93 957.697 688.121 968.026C627.457 937.372 610.52 960.166 573.568 996.714C583.591 957.675 589.953 937.062 613.292 920.867C600.68 924.566 593.436 928.878 580.035 942.874C592.044 905.54 604.006 863.744 640.39 870.171C627.059 874.072 625.403 885.847 621.298 900.038C633.924 881.567 654.278 867.738 678.882 856.023C641.155 846.917 620.941 851.958 585.885 871.743C575.963 905.246 569.527 920.533 556.016 939.73C564.316 894.541 568.417 898.736 565.87 859.953C562.287 886.682 559.339 902.344 550.781 932.656C542.359 866.102 543.946 834.954 557.555 790L519.679 845.412C536.671 879.874 540.378 902.651 534.46 950.734C510.441 890.999 481.495 894.139 471.025 859.953C481.755 868.537 488.361 870.473 500.587 871.743C477.337 857.97 468.607 841.828 449.162 815.938C463.378 898.474 475.336 891.392 497.816 905.54C509.891 917.281 525.65 941.923 544.93 992.784H527.993C511.485 961.872 504.347 942.92 476.26 920.867C483.011 920.348 488.403 923.065 500.587 932.656Z" fill="#C56593"/>
</g>
<g filter="url(#filter5_d_20_2156)">
<path d="M331.124 812.248L310.213 947.301L297.183 958.703L301.151 935.07C301.386 933.671 301.029 932.239 300.166 931.114L281.525 906.824L267.527 892.431L253.529 878.039L234.786 853.455C234.63 853.249 234.489 853.032 234.365 852.805L226.439 838.287C225.487 836.542 227.334 834.603 229.123 835.469L235.069 838.347L249.39 844.772L261.733 850.31C263.045 850.898 264.267 851.668 265.364 852.597L276.493 862.022C278.078 863.365 279.449 864.941 280.56 866.697L288.605 879.426C288.936 879.949 289.218 880.501 289.449 881.075L302.435 913.385C302.827 914.358 304.256 914.18 304.396 913.14L308.876 879.838C309.03 878.693 308.791 877.53 308.199 876.538L301.88 865.956L270.781 821.441L257.488 796.32C256.556 794.557 258.442 792.639 260.22 793.542L276.258 801.69C276.553 801.839 276.832 802.017 277.092 802.22L287.434 810.307C289.733 812.106 291.621 814.376 292.97 816.966L297.522 825.707L310.421 856.462C310.831 857.44 312.276 857.223 312.38 856.167L313.998 839.757C314.019 839.55 313.976 839.343 313.876 839.162L296.644 808.03L278.389 777.331C277.87 776.459 277.485 775.515 277.244 774.53L274.953 765.133C274.487 763.22 276.73 761.819 278.244 763.077L297.037 778.691C299.137 780.435 300.865 782.582 302.121 785.006L310.402 800.983C310.676 801.512 310.903 802.064 311.081 802.633L318.396 826.013C318.682 826.927 319.957 826.98 320.318 826.093L326.372 811.219L324.171 774.718L325.303 752.208C325.321 751.852 325.376 751.5 325.467 751.155L330.786 731.093C331.353 728.953 334.443 729.117 334.781 731.304L339.103 759.277C339.318 760.667 339.388 762.077 339.314 763.482L337.95 789.119C337.905 789.96 337.757 790.793 337.507 791.599L331.158 812.102C331.143 812.15 331.131 812.199 331.124 812.248Z" fill="#2FB5A6"/>
<path d="M341.274 898.087L314.231 921.752L316.466 904.426L343.356 874.234L362.095 857.835C363.786 856.355 365.709 855.164 367.788 854.31L415.739 834.615C417.812 833.764 419.546 836.386 417.951 837.96L381.481 873.958C380.209 875.214 378.777 876.298 377.222 877.181L344.635 895.698C343.437 896.379 342.311 897.179 341.274 898.087Z" fill="#2FB5A6"/>
<path d="M335.096 859.43L320.679 872.047L325.523 846.802L337.03 831.78C338.086 830.402 339.313 829.164 340.682 828.096L362.928 810.737C364.718 809.341 366.728 808.252 368.876 807.516L392.386 799.461C394.343 798.791 395.943 801.118 394.617 802.705L360.392 843.672C358.759 845.626 356.775 847.258 354.542 848.484L336.909 858.163C336.261 858.518 335.653 858.943 335.096 859.43Z" fill="#2FB5A6"/>
<path d="M387.645 755.548L326.735 838.568L328.268 824.93L337.044 810.589L350.395 793.782L387.645 755.548Z" fill="#2FB5A6"/>
</g>
<g filter="url(#filter6_d_20_2156)">
<path d="M1111.97 836.467L1191.75 931.506L1190.5 945.984L1176.75 929.161C1175.94 928.167 1174.78 927.516 1173.51 927.336L1143.06 923.045L1123.06 922.211L1103.05 921.378L1072.17 916.939L1057.21 912.78C1055.2 912.221 1055.22 909.365 1057.23 908.835L1062.17 907.54L1076.82 903.288L1089.67 899.556C1090.86 899.21 1092.09 899.01 1093.33 898.961L1108.59 898.352C1110.34 898.282 1112.09 898.437 1113.8 898.814L1129.01 902.164C1129.53 902.278 1130.04 902.432 1130.53 902.625L1162.13 914.965C1163.13 915.354 1163.97 914.145 1163.27 913.341L1143.54 890.773C1142.84 889.98 1141.92 889.42 1140.9 889.172L1128.86 886.247L1075.63 876.683L1049.83 869.2C1047.82 868.617 1047.88 865.749 1049.91 865.252L1065.73 861.382C1066.01 861.315 1066.29 861.27 1066.58 861.25L1080.3 860.246C1082.76 860.066 1085.23 860.333 1087.59 861.032L1097.57 863.987L1127.87 875.367C1128.88 875.748 1129.71 874.5 1128.97 873.712L1119.09 863.187C1118.96 863.05 1118.8 862.951 1118.62 862.901L1084.57 853.618L1049.94 845.148C1049.08 844.939 1048.26 844.619 1047.48 844.197L1040.3 840.29C1038.49 839.302 1039.12 836.553 1041.18 836.454L1064.92 835.316C1067.22 835.206 1069.53 835.486 1071.74 836.144L1089.49 841.432C1089.98 841.58 1090.47 841.765 1090.93 841.986L1112.46 852.16C1113.33 852.572 1114.24 851.657 1113.82 850.79L1107.87 838.549L1080.74 817.358L1065.81 802.899C1065.55 802.647 1065.32 802.369 1065.12 802.068L1055.56 787.765C1054.32 785.918 1056.51 783.705 1058.37 784.916L1080.52 799.314C1081.64 800.042 1082.68 800.877 1083.64 801.808L1100.5 818.233C1101.12 818.835 1101.66 819.513 1102.11 820.251L1111.88 836.34C1111.9 836.385 1111.93 836.427 1111.97 836.467Z" fill="#27844C"/>
<path d="M1179.23 884.153L1176.7 913.49L1166.15 901.553L1164.15 869.083C1164.08 868.081 1164.1 867.075 1164.18 866.074L1165.75 847.894C1165.97 845.268 1166.71 842.711 1167.9 840.363L1187.65 801.651C1188.63 799.724 1191.54 800.446 1191.51 802.61L1190.9 844.633C1190.86 846.751 1190.5 848.85 1189.83 850.857L1180.22 879.384C1179.7 880.928 1179.37 882.529 1179.23 884.153Z" fill="#27844C"/>
<path d="M1147.8 863.585L1146.45 879.224L1132.2 860.921L1129.96 845.969C1129.66 843.936 1129.66 841.868 1129.97 839.836L1133.27 818.414C1133.67 815.805 1134.58 813.299 1135.93 811.034L1146.49 793.385C1147.5 791.695 1150.08 792.273 1150.28 794.233L1154.59 837.698C1154.88 840.698 1154.51 843.728 1153.5 846.569L1148.35 861.034C1148.06 861.857 1147.87 862.715 1147.8 863.585Z" fill="#27844C"/>
<path d="M1114.43 781.445L1127.29 855.162L1118.82 845.895L1115.38 833.446C1115.12 832.514 1114.93 831.566 1114.81 830.608L1112.68 814.061L1112.4 781.629C1112.39 780.374 1114.22 780.209 1114.43 781.445Z" fill="#27844C"/>
<path d="M1098.08 995.822L1114.95 993.907L1151 987.762L1187.05 981.617L1184.77 1008.1L1156.35 1009.71C1155.38 1009.77 1154.41 1009.76 1153.44 1009.67L1116.9 1006.53C1114.9 1006.35 1112.94 1005.89 1111.08 1005.15L1097.55 999.751C1095.58 998.964 1095.97 996.062 1098.08 995.822Z" fill="#27844C"/>
</g>
<g filter="url(#filter7_d_20_2156)">
<path d="M67.4481 985.633C97.9997 802.182 112.624 800.141 145.77 783.957C128.653 779.29 81.8093 802.438 58.0947 983.357L67.4481 985.633Z" fill="#6CB236"/>
<path d="M96.5053 746.294C129.078 742.727 137.638 752.787 148.105 776.693C145.987 761.32 146.678 753.91 159.639 748.25C171.008 742.55 177.224 745.712 188.282 752.429C201.142 758.036 201.56 760.02 204.982 764.017C178.935 756.552 178.277 759.863 176.725 765.566C185.497 762.598 194.909 763.604 220.219 770.53C232.781 780.195 233.677 785.9 235.259 795.975L235.288 796.161C187.485 771.442 187.017 774.633 184.25 779.072C198.988 782.537 210.342 787.232 237.579 801.868C244.092 813.036 242.928 817.95 239.567 826.357C198.342 787.62 188.574 784.016 183.485 794.32C208.168 801.96 220.436 812.768 240.994 837.535C241.389 846.549 240.214 850.297 236.844 855.786C198.732 805.434 192.115 802.78 188.126 811.6C214.088 828.424 224.02 840.623 231.75 868.348C230.73 875.15 228.431 876.615 224.174 879.015C219.854 860.522 215.09 853.594 203.543 845.723L203.662 845.896C213.492 860.265 219.039 868.374 219.27 884.428C216.851 890.118 215.464 893.262 211.214 896.281C204.692 896.132 201.348 895.404 196.554 891.683C184.99 878.062 187.823 869.064 186.387 853.964C182.199 867.877 177.607 874.603 188.88 895.912C184.417 898.307 179.208 897.284 172.895 893.25C162.692 868.309 183.302 828.171 173.606 824.027C161.758 827.862 164.199 863.12 170.144 894.022C162.129 893.303 157.913 891.809 151.213 885.93C139.817 856.585 165.465 811.37 160.29 806.098C155.114 800.826 139.905 820.695 138.784 874.498C129.98 866.588 124.192 861.29 118.598 849.461C117.738 814 134.109 805.197 144.493 792.949C154.877 780.7 105.733 795.014 96.6834 832.028C90.117 820.695 87.3161 813.635 89.7095 795.118C97.1813 782.572 107.298 781.422 130.138 776.245C117.921 766.294 107.039 765.964 87.9569 787.416C85.7814 781.309 83.769 779.712 86.3918 762.551C91.0499 756.71 96.5868 755.736 113.187 759.265C109.714 754.55 107.605 751.998 89.1791 755.677C88.1443 753.165 88.1222 751.593 96.5053 746.294Z" fill="#27844C"/>
<path d="M207.681 881.393C191.002 831.753 177.644 803.941 148.866 777.269L150.119 784.201C170.918 801.713 183.86 827.262 207.681 881.393Z" fill="#6CB236"/>
</g>
<g filter="url(#filter8_d_20_2156)">
<path d="M13.6939 873.706C117.265 860.988 98.8625 707.328 85.3202 700.392C71.7778 693.456 -32.4131 814.642 13.6939 873.706Z" fill="#11693C"/>
<path d="M77.1604 723.32C16.4437 836.496 -12.3152 905.534 -4.85436 1028.66L3.57719 1023.93C-8.06707 905.184 21.261 836.151 77.1604 723.32Z" fill="#D4B131"/>
</g>
<g filter="url(#filter9_d_20_2156)">
<g filter="url(#filter10_i_20_2156)">
<path d="M1181.35 870.046C1108.9 870.191 1068.78 821.723 995.543 898.872C957.831 890.776 936.811 881.677 897.931 916.992C863.485 892.048 824.821 884.369 816.671 911.638C775.125 911.729 750.276 942.935 750.276 942.935C750.276 942.935 707.517 922.262 679.42 926.463C662.132 929.048 637.799 942.935 637.799 942.935C637.799 942.935 602.046 929.973 581.313 972.173L581.132 971.855C563.39 940.66 553.386 923.071 508.477 942.935C455.866 899.096 442.731 909.931 424.739 927.698C399.036 922.02 385.139 918.74 372.712 923.138C360.595 927.426 351.931 923.077 344.193 937.581C305.972 884.086 276.635 875.964 221.807 887.754C183.213 871.921 160.195 868.747 125.959 890.636C108.488 858.46 91.3719 854.053 53.1217 860.575C21.3148 834.914 9.1998 812.62 -52.9131 828.866C-87.9305 810.032 -101.872 810.552 -117.822 828.866C-113.459 791.693 -121.582 777.988 -165.885 773.684C-195.09 771.59 -209.409 773.776 -228.812 787.685L-279.847 773.684L-318 787.685V1194.96C-307.999 1230.96 -300.478 1247.8 -257.055 1225.43C-223.735 1230.9 -217.604 1222.73 -208.992 1206.08C-216.124 1250.74 -195.434 1240.87 -165.885 1233.67C-122.416 1230.06 -102.382 1224.54 -91.0658 1194.96C-44.0476 1209.63 -17.6649 1219.26 28.3472 1169.02C104.988 1162.22 125.201 1147.86 145.778 1115.07C208.024 1134.87 226.731 1122.13 250.326 1085.01C294.114 1093.37 315.872 1087.35 352.893 1069.77C370.172 1083.89 386.116 1084.86 422.261 1078.01C434.965 1117.13 454.422 1124.56 508.477 1115.07C525.585 1146.99 539.966 1142.96 566.449 1131.95C564.986 1147.01 565.457 1154.97 599.647 1156.66C618.635 1172.16 629.163 1169.02 647.709 1140.19C669.446 1165.44 690.277 1162.82 732.438 1148.42C770.598 1169.77 784.175 1155.07 811.716 1140.19C834.832 1134.21 847.33 1130.59 831.536 1101.48C853.215 1112.65 865.669 1115.43 889.508 1101.48C912.658 1083.79 919.352 1075.12 916.265 1064C919.237 1074.71 925.469 1072.26 947.48 1069.77C974.858 1099.34 986.086 1087.15 1008.92 1085.01C1043.37 1096.1 1051.42 1087.74 1063.42 1069.77C1072.48 1113.32 1093.75 1121.03 1141.22 1124.95C1163.56 1136.88 1175.53 1133.39 1196.22 1115.07C1203.91 1142.67 1214.79 1148.09 1245.77 1140.19C1282.7 1149.43 1299.93 1150.11 1310.18 1124.95C1322.2 1146.3 1332.06 1146.9 1351.8 1140.19C1371.14 1149.49 1381.96 1154.35 1399.86 1131.95C1458.84 1133.56 1462.42 1117.65 1461.3 1085.01C1507.13 1069.5 1513.32 1055.16 1500.94 1022.82C1543.85 998.151 1538.69 987.907 1522.25 970.526C1511.68 941.431 1525.53 922.44 1474.19 898.872C1470.15 877.405 1478.07 859.958 1414.73 870.046C1417.66 839.495 1414.62 826.047 1375.09 828.866C1334.36 812.86 1311.86 795.77 1269.05 828.866C1216 820.234 1197.75 830.501 1181.35 870.046Z" fill="#005158"/>
</g>
</g>
<g filter="url(#filter11_b_20_2156)">
<path d="M1522.08 -81.4023C1540.57 -103.049 1547.9 -79.8221 1562.47 -55.8578V248.895C1516.79 234.657 1483.21 227.363 1491.19 208.499C1462.54 213.547 1446.67 215.622 1422.87 201.964C1404.03 198.249 1404.45 182.36 1404.45 182.36C1404.45 182.36 1341.69 197.169 1367.03 182.36C1321 175.722 1319.37 171.217 1343.86 160.38C1313.99 166.783 1296.73 168.935 1264.26 168.103C1240.13 164.536 1224.1 164.637 1211.38 151.469C1201.74 142.927 1199.93 138.725 1219.11 134.835C1195.65 131.646 1191.76 127.386 1192.97 117.608C1206.21 97.234 1218.74 89.3107 1270.79 95.6274C1249.09 89.1546 1241.84 84.1829 1245.84 70.6769C1257.26 54.9381 1270.43 54.6923 1297.52 58.7957C1318.38 45.0903 1333.22 51.2891 1360.49 65.9245C1346.71 50.6984 1347.15 42.6226 1374.16 29.6868C1326.39 42.5755 1301.94 43.4672 1260.69 38.5977C1240.73 36.1678 1230.55 34.4626 1240.49 21.964C1235.43 12.4859 1239.96 8.76796 1260.69 4.73627C1227.86 5.29855 1212.13 4.89777 1192.97 1.76598C1169.04 -3.3132 1166.62 -7.61912 1180.49 -17.838C1174.38 -33.4314 1183.4 -35.9767 1219.11 -30.9073C1209.22 -40.9763 1252.97 -30.9073 1252.97 -30.9073C1252.97 -30.9073 1272.11 -47.0784 1297.52 -37.4419C1287.42 -44.4574 1281.03 -48.3692 1285.64 -55.8578C1294.91 -79.9146 1309.36 -73.6852 1330.2 -73.0855C1354.55 -96.5316 1366.78 -84.6727 1389.6 -81.4023C1406.16 -90.6132 1415.88 -87.688 1433.56 -76.0558C1456.64 -74.5699 1452.64 -67.6245 1447.23 -55.8578C1465.82 -62.8248 1472.2 -59.0136 1480.49 -46.3528C1479.02 -54.5796 1479.71 -58.2862 1491.19 -58.8281C1492 -86.8932 1504.38 -82.2304 1522.08 -81.4023Z" fill="#386441"/>
</g>
<g filter="url(#filter12_b_20_2156)">
<path d="M1323.97 84.6893C1369.51 77.1371 1382.9 72.7079 1364.37 64.1255C1367.29 56.1819 1373.48 53.4377 1354.84 58.1453C1371.54 52.2965 1372.18 49.7182 1357.03 35.8907C1347.79 28.9444 1343.37 31.5122 1336.1 41.3371C1336.25 34.4465 1332.94 34.8804 1324.35 39.1068C1333.06 31.6869 1334.92 27.9133 1314.61 24.1868C1303.35 22.4712 1299.96 28.8306 1293.51 39.1978C1299.85 23.879 1301.74 15.8957 1283.16 9.62999C1275.19 -0.00769852 1270.54 -5.0738 1250.07 9.249C1241.88 -3.70076 1237.38 -7.95121 1229.91 1.2743C1222.01 -8.58056 1216.44 -7.99359 1201.6 19.2211C1197.54 10.5317 1192.05 11.9107 1176.18 25.8346C1166.98 21.2971 1161.58 22.4258 1150.95 39.2767C1129.69 30.0818 1115.9 22.0732 1111.38 38.4704C1090.87 46.2621 1081.5 50.7119 1090.83 59.685L1090.46 60.0764C1080.37 70.6643 1074.59 76.7228 1109.05 74.5116C1100.3 81.4531 1108.38 87.2842 1142.15 76.6893C1127 91.1578 1146.52 100.413 1158.63 98.8359C1139.44 109.022 1150.95 111.115 1167.86 113.684C1171.35 117.132 1147.71 127.154 1188.55 121.833C1181.13 132.402 1194.87 123.972 1210.34 122.721C1227.86 127.629 1226.47 132.083 1252.48 120.444C1236.47 133.14 1294.7 129.692 1303.13 113.845C1358.03 103.478 1395.64 89.5378 1365.66 84.8876C1370.39 80.8397 1340.41 85.514 1323.97 84.6893Z" fill="#69933A"/>
</g>
<g filter="url(#filter13_f_20_2156)">
<path d="M254.5 154.037C266.488 151.037 264 154.037 259.093 156.745H262.814L264.488 154.888H269.326C274.871 146.996 279.008 148.095 287.5 152.037C278.254 150.187 274.464 152.987 274.907 158.046L278.628 160.646L295 165.662L276.953 162.875C270.901 164.778 268.953 164.176 265.977 160.646C254.768 164.399 248.917 165.958 241.233 179.037C242.163 169.192 245.685 164.712 260.581 158.603L256 157.037C246.912 159.194 242.321 157.835 238.5 160.037C240.675 157.651 247 156.745 254.5 154.037Z" fill="#046C6B"/>
</g>
<g filter="url(#filter14_f_20_2156)">
<path d="M208.811 208.566C215.807 205.69 216.515 205.795 213.993 209.35H216.585L217.751 208.043H221.12C226.473 204.768 228.695 206.22 233.558 207.39C228.375 207.782 226.115 208.616 225.007 210.265L227.598 212.095L239 215.625L226.432 213.664C222.217 215.002 220.86 214.579 218.787 212.095C210.899 216.041 206.738 218.501 201.555 225.037C202.203 218.109 204.656 214.956 215.03 210.657H212.309C205.98 212.176 202.661 213.029 200 214.579C201.515 212.9 203.074 212.636 208.811 208.566Z" fill="#046C6B"/>
</g>
<ellipse rx="23.4032" ry="6.10895" transform="matrix(0.985085 -0.172069 0.166398 0.986059 1370.71 658.902)" fill="#78861C"/>
<path d="M1359.01 710.994C1359.12 717.538 1359.92 723.327 1365.35 723.24C1370.79 723.153 1369.91 716.774 1369.8 710.23C1369.7 703.686 1373.17 700.346 1363.48 700.5C1358.04 700.587 1358.91 704.45 1359.01 710.994Z" fill="#AE8873"/>
<path d="M1390.52 707.452C1392.39 713.724 1393.37 719.486 1388.16 721.039C1382.95 722.592 1381.87 716.244 1380 709.972C1378.13 703.7 1373.81 701.56 1383.1 698.789C1388.31 697.236 1388.65 701.18 1390.52 707.452Z" fill="#AE8873"/>
<g filter="url(#filter15_d_20_2156)">
<path d="M1344.13 667.557C1346.06 667.121 1347.95 668.933 1349.35 669.863C1350.27 670.992 1351.07 672.675 1351.37 674.105C1351.55 674.986 1351.5 675.919 1351.67 676.797C1351.84 677.605 1352 678.36 1351.98 679.194C1351.95 680.199 1352.2 681.172 1352.2 682.173C1352.21 683.253 1352.26 684.383 1352.42 685.449C1352.74 687.521 1352.68 689.575 1352.79 691.663C1352.9 693.715 1352.81 695.783 1352.82 697.834C1352.82 699.689 1353.08 701.93 1351.94 703.511C1350.91 704.953 1348.22 704.423 1346.88 703.904C1344.67 703.048 1342.83 701.568 1340.96 700.164C1335 695.699 1329.63 689.031 1330.01 681.195C1330.12 679.141 1330.52 676.963 1331.95 675.388C1333.46 673.732 1334.82 671.949 1336.55 670.512C1337.96 669.34 1339.76 668.543 1341.54 668.141L1344.13 667.557Z" fill="#543A3A"/>
<path d="M1398.03 666.529C1396.1 667.569 1394.83 668.581 1393.2 670.039C1391.94 671.391 1391.83 673.129 1392.04 674.883C1392.3 677.026 1393.66 678.405 1395.82 678.524C1397.3 678.605 1399.32 677.777 1400.55 676.931C1402.24 675.756 1404.61 674.853 1405.74 673.046C1406.25 672.217 1406.94 671.426 1406.92 670.399C1406.91 669.386 1406.76 668.617 1406.5 667.642C1406 665.812 1404.64 665.049 1402.6 665.121C1400.69 665.189 1399.66 665.65 1398.03 666.529Z" fill="url(#paint0_linear_20_2156)"/>
<path d="M1348.1 675.126C1349.29 674.216 1349.78 673.132 1351.25 672.436C1355.58 672.36 1355.57 677.643 1354.74 680.124C1354.41 681.108 1353.38 681.903 1352.73 682.77C1351.99 683.76 1351.19 684.615 1350.33 685.53C1349.25 686.684 1347.19 687.992 1345.36 687.959C1343.57 687.928 1340.7 688.292 1339.97 686.462C1339.25 684.674 1339.81 682.698 1341.18 681.112C1342.54 679.522 1344.23 678.439 1345.79 677.023C1346.53 676.351 1347.29 675.743 1348.1 675.126Z" fill="url(#paint1_linear_20_2156)"/>
<path d="M1381.05 645.666C1374.04 642.458 1369.11 641.974 1361.77 647.054C1356.43 649.323 1353.81 656.916 1353.14 659.195C1352.57 661.123 1351.73 662.956 1351.26 664.935C1350.63 667.676 1349.96 670.363 1349.52 673.159C1348.68 678.478 1347.91 683.817 1348.13 689.264C1348.29 693.26 1348.79 697.24 1349.49 701.189C1349.89 703.433 1350.66 705.837 1352.4 707.242C1354.21 708.701 1355.83 709.833 1357.89 710.778C1361.71 712.524 1365.74 713.547 1369.84 713.742C1373.65 713.923 1377.56 714.027 1381.31 713.448C1383 713.187 1384.66 712.763 1386.31 712.321C1387.77 711.93 1388.92 711.07 1390.29 710.504C1392.36 709.649 1393.81 707.703 1395.07 705.819C1396.4 703.804 1397.5 701.852 1397.98 699.351C1398.61 696.076 1398.95 692.829 1398.43 689.449C1398.14 687.583 1398 685.674 1397.71 683.79C1397.41 681.835 1396.96 679.933 1396.66 677.972C1395.99 673.629 1395.15 669.027 1393.62 664.918C1393.03 663.335 1392.68 661.442 1391.83 659.993C1391.46 659.35 1391.11 658.426 1390.85 657.717C1390.48 656.711 1389.86 655.798 1389.39 654.841C1388.37 652.766 1386.9 650.887 1385.42 649.192C1384.28 647.872 1382.61 646.378 1381.05 645.666Z" fill="url(#paint2_linear_20_2156)"/>
<path d="M1370.89 665.875C1371.43 665.37 1372.43 665.305 1373.17 665.299C1374.41 665.976 1373.12 667.404 1371.81 666.969C1371.32 666.808 1370.26 666.455 1370.89 665.875Z" fill="#372831" stroke="#372831" stroke-width="2" stroke-linecap="round"/>
<path d="M1371.52 671.532C1371.41 670.956 1371.34 670.374 1371.25 669.796C1371.71 669.408 1372.31 668.935 1372.68 668.483C1373.11 667.96 1373.59 668.433 1374.07 668.58C1374.65 668.752 1374.9 668.898 1374.99 669.471C1375.06 669.97 1375.17 670.512 1375.23 670.958C1375.45 671.56 1374.85 671.799 1374.26 671.889L1372.66 672.135C1372.19 672.121 1371.6 672.011 1371.52 671.532Z" fill="#E0D0C1"/>
<path d="M1367.2 670.255C1369.34 671.174 1372.76 669.787 1372.78 667.325C1373.66 669.369 1376.3 670.341 1378.82 668.045" stroke="#372831" stroke-linecap="round"/>
</g>
<path d="M1366.43 661.781C1366.67 663.384 1365.82 664.847 1364.7 665.019C1363.58 665.192 1362.37 664.346 1362.12 662.742C1361.87 661.139 1362.68 659.386 1363.8 659.214C1364.93 659.041 1366.18 660.178 1366.43 661.781Z" fill="#372831"/>
<path d="M1380.65 659.589C1380.9 661.192 1380.04 662.654 1378.92 662.827C1377.8 663 1376.59 662.153 1376.34 660.55C1376.1 658.947 1376.91 657.194 1378.03 657.021C1379.15 656.848 1380.41 657.985 1380.65 659.589Z" fill="#372831"/>
<path d="M1387.21 647.684C1386.98 646.361 1382.3 639.131 1381.2 638.064C1379.4 637.417 1376.03 636.478 1367.29 637.743C1358.55 639.008 1356.04 642.033 1354.54 643.256C1353.86 644.635 1351.48 652.562 1351.71 653.885C1351.71 653.885 1360.65 650.306 1369.06 649.089C1377.47 647.872 1387.21 647.684 1387.21 647.684Z" fill="#8F9D2F"/>
<path d="M1393.76 654.875C1393.56 653.698 1388.02 647.508 1386.68 646.623C1384.4 646.165 1380.12 645.553 1368.79 647.3C1357.46 649.047 1354.02 651.947 1352.02 653.154C1351.05 654.443 1347.46 661.752 1347.65 662.929C1347.65 662.929 1359.08 656.738 1369.99 655.057C1380.89 653.376 1393.76 654.875 1393.76 654.875Z" fill="#8F9D2F"/>
<path d="M1354.79 655.699C1352.24 656.64 1350.04 654.245 1348.68 652.35C1347.71 650.462 1349.01 648.789 1350.65 648.048C1352.58 647.173 1356.19 649.057 1356.9 651.082C1357.16 651.8 1356.46 651.987 1356.06 652.707C1355.63 653.493 1355.67 655.372 1354.79 655.699Z" fill="#AE8873"/>
<path d="M1385.48 643.022C1383.42 643.577 1381.12 646.404 1381.4 648.573C1381.73 650.689 1383.47 652.186 1385.68 651.274C1386.8 650.811 1387.82 650.061 1388.54 649.071C1389.1 648.311 1389.9 647.28 1389.84 646.274C1389.69 644.006 1387.64 642.439 1385.48 643.022Z" fill="#AE8873"/>
<g filter="url(#filter16_d_20_2156)">
<path d="M115.517 207.076C92.6303 226.263 114.743 248.622 114.743 248.622C114.743 248.622 120.447 255.122 120.778 249.193C121.11 243.264 138.34 222.418 115.517 207.076Z" fill="#47BE6C"/>
<path d="M115.517 207.076C92.6303 226.263 114.743 248.622 114.743 248.622C114.743 248.622 120.447 255.122 120.778 249.193C121.11 243.264 138.34 222.418 115.517 207.076Z" stroke="#6CB236" stroke-width="1.11776"/>
</g>
<g filter="url(#filter17_d_20_2156)">
<path d="M159.766 174.318C136.879 193.504 158.992 215.863 158.992 215.863C158.992 215.863 164.696 222.363 165.027 216.434C165.359 210.505 182.589 189.659 159.766 174.318Z" fill="#47BE6C"/>
<path d="M159.766 174.318C136.879 193.504 158.992 215.863 158.992 215.863C158.992 215.863 164.696 222.363 165.027 216.434C165.359 210.505 182.589 189.659 159.766 174.318Z" stroke="#6CB236" stroke-width="1.11776"/>
</g>
<g filter="url(#filter18_d_20_2156)">
<path d="M33.5711 225.682C10.684 244.869 32.797 267.228 32.797 267.228C32.797 267.228 38.5003 273.728 38.8322 267.799C39.1641 261.87 56.394 241.024 33.5711 225.682Z" fill="#47BE6C"/>
<path d="M33.5711 225.682C10.684 244.869 32.797 267.228 32.797 267.228C32.797 267.228 38.5003 273.728 38.8322 267.799C39.1641 261.87 56.394 241.024 33.5711 225.682Z" stroke="#6CB236" stroke-width="1.11776"/>
</g>
<g filter="url(#filter19_d_20_2156)">
<path d="M191.579 142.729C183.272 171.765 150.724 157.202 150.724 157.202C150.724 157.202 141.602 153.688 147.329 151.403C153.056 149.118 165.66 125.147 191.579 142.729Z" fill="#47BE6C"/>
<path d="M191.579 142.729C183.272 171.765 150.724 157.202 150.724 157.202C150.724 157.202 141.602 153.688 147.329 151.403C153.056 149.118 165.66 125.147 191.579 142.729Z" stroke="#6CB236" stroke-width="1.11776"/>
</g>
<g filter="url(#filter20_d_20_2156)">
<path d="M133.097 187.627C124.791 216.663 92.243 202.1 92.243 202.1C92.243 202.1 83.1209 198.586 88.8476 196.301C94.5743 194.016 107.179 170.045 133.097 187.627Z" fill="#47BE6C"/>
<path d="M133.097 187.627C124.791 216.663 92.243 202.1 92.243 202.1C92.243 202.1 83.1209 198.586 88.8476 196.301C94.5743 194.016 107.179 170.045 133.097 187.627Z" stroke="#6CB236" stroke-width="1.11776"/>
</g>
<path d="M-14.0002 167C-3.50026 231.5 59.4988 281.864 218.382 118.2" stroke="#6CB236" stroke-width="5.5888" stroke-linecap="round"/>
<g filter="url(#filter21_d_20_2156)">
<path d="M1340.66 -149.797C1268.22 -151.217 1229.15 -200.54 1154.27 -124.991C1116.74 -133.9 1095.92 -143.451 1056.29 -108.984C1022.39 -134.666 983.899 -143.179 975.162 -116.092C933.624 -116.899 916.246 -112.552 908.105 -86.2364C891.924 -114.29 875.589 -116.556 837.623 -104.235C803.518 -111.467 787.851 -112.926 795.655 -88.666C772.857 -100.914 760.191 -102.397 738.551 -60.655L738.377 -60.9773C721.312 -92.5481 711.691 -110.348 666.363 -91.4595C614.712 -136.425 601.346 -125.876 582.974 -108.502C557.399 -114.734 543.577 -118.313 531.058 -114.185C518.851 -110.159 510.283 -114.695 502.233 -100.361C465.177 -154.669 436.022 -163.423 380.952 -152.821C342.709 -169.484 319.765 -173.154 285.064 -152.009C268.292 -184.555 251.276 -189.331 212.893 -183.637C181.648 -209.978 170.018 -232.529 107.568 -217.629C72.9659 -237.215 59.016 -236.996 42.6743 -219.031C47.8392 -256.101 40.0145 -269.978 -4.18498 -275.238C-33.3387 -277.962 -47.701 -276.087 -67.3999 -262.6L-118.121 -277.7L-156.567 -264.526L-165.365 142.652C-156.144 178.863 -148.989 195.862 -105.092 174.435C-71.8979 180.619 -65.5917 172.584 -56.6228 156.123C-64.7176 200.618 -43.8194 191.201 -14.1212 184.639C29.4157 181.972 49.564 176.881 61.5164 147.554C108.207 163.237 134.375 173.431 181.462 124.196C258.231 119.056 278.75 105.135 300.031 72.7993C361.835 93.9437 380.812 81.6067 405.204 45.003C448.8 54.3088 470.683 48.765 508.076 31.9854C525.046 46.4783 540.965 47.7886 577.25 41.718C589.106 81.1099 608.397 88.9589 662.645 80.634C679.059 112.918 693.525 109.195 720.239 98.7663C718.451 113.792 718.749 121.761 752.895 124.186C771.544 140.096 782.138 137.183 801.302 108.756C822.488 134.475 843.371 132.303 885.833 118.82C923.523 140.988 937.414 126.581 965.271 112.299C988.51 106.825 1001.08 103.471 985.922 74.0262C1007.35 85.6625 1019.75 88.7075 1043.88 75.2785C1067.41 58.0956 1074.29 49.5735 1071.44 38.3907C1074.18 49.1593 1080.46 46.8461 1102.52 44.8293C1129.26 74.9841 1140.75 63.0385 1163.62 61.3897C1197.82 73.224 1206.06 65.039 1218.44 47.3338C1226.55 91.069 1247.66 99.2334 1295.02 104.183C1317.11 116.588 1329.15 113.358 1350.22 95.4901C1357.32 123.255 1368.08 128.908 1399.22 121.675C1435.95 131.708 1453.15 132.765 1463.95 107.833C1475.5 129.434 1485.35 130.251 1505.23 123.965C1524.36 133.684 1535.08 138.779 1553.46 116.769C1612.39 119.648 1616.31 103.824 1615.9 71.1617C1662.05 56.6434 1668.54 42.4457 1656.87 9.85016C1700.3 -13.8914 1695.37 -24.2442 1679.3 -41.9764C1669.37 -71.2929 1683.62 -89.9803 1632.8 -114.652C1629.23 -136.2 1637.52 -153.473 1573.98 -144.756C1577.57 -175.236 1574.82 -188.747 1535.24 -186.783C1494.86 -203.664 1472.74 -221.237 1429.23 -189.073C1376.37 -198.849 1357.9 -188.979 1340.66 -149.797Z" fill="#014C58"/>
</g>
<g filter="url(#filter22_d_20_2156)">
<path d="M1535.86 948.195C1487.03 847.788 1473.72 835.799 1431.41 783.012C1473.81 848.996 1499.28 885.125 1533.17 955.419L1535.86 948.195Z" fill="#6CB236"/>
<path d="M1347.59 777.166C1377.39 715.544 1427.17 752.904 1427.81 782.675C1437.25 748.638 1446.51 750.395 1464.26 759.969C1470.2 765.527 1471.38 772.213 1470.47 789.139C1468.56 819.216 1462.33 825.737 1452.5 839.935C1449.02 810.306 1444.35 802.352 1430.27 806.526C1444.37 815.491 1447.36 825.508 1446.68 849.46C1439.37 862.787 1432.54 869.056 1413.13 877.019C1425.48 866.121 1430.46 860.213 1426.82 850.965C1418.11 828.388 1414.2 823.369 1410.01 836.271C1420.97 854.81 1416.71 865.753 1401.78 885.661C1398.01 888.623 1394.65 891.168 1391.35 893.323C1392.25 868.069 1391.3 857.854 1380.5 864.435C1385.59 875.565 1384.96 883.393 1377.79 899.923C1372.49 901.597 1366.45 902.535 1358.71 902.816C1355.53 896.083 1344.53 885.622 1344.44 871.364C1375.63 851.521 1381.95 848.704 1375.46 848.1C1368.96 847.497 1353.96 851.144 1337.57 861.612L1337.55 861.493C1336.45 854.704 1335.83 850.861 1349.45 841.067C1403.69 814.927 1402.94 812.41 1387.71 814.273C1366.01 820.596 1346.66 823.909 1336.64 831.62C1336.64 831.62 1334.33 827.306 1337.12 820.442C1338.08 814.467 1364.32 802.713 1393.44 796.231C1372.44 793.261 1361.88 787.513 1334.95 804.34C1329.46 798.761 1331.43 794.073 1344.18 783.143C1361.52 775.7 1371.79 773.849 1391.24 775.508C1375.65 766.877 1366.61 764.226 1347.59 777.166Z" fill="#27844C"/>
<path d="M1362.42 894.873C1372.19 863.361 1387.54 839.012 1418.99 790.609C1421.89 786.067 1423.6 785.382 1426.7 785.518C1397.88 828.618 1383.45 849.742 1362.42 894.873Z" fill="#6CB236"/>
</g>
<path d="M1199.99 1020.41C1127.56 1018.99 1088.48 969.668 1013.6 1045.22C976.076 1036.31 955.256 1026.76 915.623 1061.22C881.723 1035.54 843.235 1027.03 834.498 1054.12C792.96 1053.31 775.582 1057.66 767.441 1083.97C751.26 1055.92 734.925 1053.65 696.959 1065.97C662.854 1058.74 647.187 1057.28 654.991 1081.54C632.193 1069.29 619.527 1067.81 597.887 1109.55L597.713 1109.23C580.648 1077.66 571.027 1059.86 525.699 1078.75C474.048 1033.78 460.682 1044.33 442.31 1061.71C416.735 1055.47 402.912 1051.89 390.394 1056.02C378.187 1060.05 369.619 1055.51 361.569 1069.85C324.513 1015.54 295.358 1006.79 240.288 1017.39C202.045 1000.72 179.101 997.054 144.4 1018.2C127.628 985.653 110.612 980.877 72.2293 986.571C40.9841 960.23 29.3535 937.679 -33.0957 952.579C-67.6982 932.993 -81.6481 933.212 -97.9898 951.177C-92.8248 914.107 -100.65 900.23 -144.849 894.97C-174.003 892.246 -188.365 894.121 -208.064 907.608L-258.785 892.508L-297.231 905.682L-306.029 1312.86C-296.808 1349.07 -289.653 1366.07 -245.756 1344.64C-212.562 1350.83 -206.256 1342.79 -197.287 1326.33C-205.382 1370.83 -184.483 1361.41 -154.785 1354.85C-111.248 1352.18 -91.1001 1347.09 -79.1477 1317.76C-32.4573 1333.45 -6.28869 1343.64 40.7979 1294.4C117.567 1289.26 138.086 1275.34 159.367 1243.01C221.17 1264.15 240.148 1251.81 264.54 1215.21C308.136 1224.52 330.019 1218.97 367.412 1202.19C384.382 1216.69 400.301 1218 436.586 1211.93C448.441 1251.32 467.733 1259.17 521.981 1250.84C538.395 1283.13 552.861 1279.4 579.574 1268.97C577.787 1284 578.085 1291.97 612.231 1294.39C630.88 1310.3 641.473 1307.39 660.638 1278.96C681.824 1304.68 702.707 1302.51 745.169 1289.03C782.859 1311.2 796.75 1296.79 824.607 1282.51C847.846 1277.03 860.419 1273.68 845.258 1244.23C866.69 1255.87 879.082 1258.92 903.217 1245.49C926.743 1228.3 933.623 1219.78 930.776 1208.6C933.517 1219.37 939.8 1217.05 961.86 1215.04C988.592 1245.19 1000.08 1233.25 1022.96 1231.6C1057.16 1243.43 1065.39 1235.25 1077.78 1217.54C1085.89 1261.28 1106.99 1269.44 1154.36 1274.39C1176.44 1286.8 1188.48 1283.57 1209.56 1265.7C1216.65 1293.46 1227.42 1299.12 1258.55 1291.88C1295.28 1301.92 1312.49 1302.97 1323.28 1278.04C1334.84 1299.64 1344.68 1300.46 1364.56 1294.17C1383.7 1303.89 1394.41 1308.99 1412.79 1286.98C1471.72 1289.86 1475.65 1274.03 1475.23 1241.37C1521.39 1226.85 1527.88 1212.65 1516.21 1180.06C1559.64 1156.32 1554.7 1145.96 1538.64 1128.23C1528.7 1098.92 1542.96 1080.23 1492.13 1055.56C1488.57 1034.01 1496.86 1016.74 1433.31 1025.45C1436.9 994.972 1434.16 981.461 1394.57 983.425C1354.19 966.544 1332.08 948.971 1288.56 981.135C1235.7 971.359 1217.24 981.229 1199.99 1020.41Z" fill="#002F4D"/>
<path d="M1199.99 1020.41C1127.56 1018.99 1088.48 969.668 1013.6 1045.22C976.076 1036.31 955.256 1026.76 915.623 1061.22C881.723 1035.54 843.235 1027.03 834.498 1054.12C792.96 1053.31 775.582 1057.66 767.441 1083.97C751.26 1055.92 734.925 1053.65 696.959 1065.97C662.854 1058.74 647.187 1057.28 654.991 1081.54C632.193 1069.29 619.527 1067.81 597.887 1109.55L597.713 1109.23C580.648 1077.66 571.027 1059.86 525.699 1078.75C474.048 1033.78 460.682 1044.33 442.31 1061.71C416.735 1055.47 402.912 1051.89 390.394 1056.02C378.187 1060.05 369.619 1055.51 361.569 1069.85C324.513 1015.54 295.358 1006.79 240.288 1017.39C202.045 1000.72 179.101 997.054 144.4 1018.2C127.628 985.653 110.612 980.877 72.2293 986.571C40.9841 960.23 29.3535 937.679 -33.0957 952.579C-67.6982 932.993 -81.6481 933.212 -97.9898 951.177C-92.8248 914.107 -100.65 900.23 -144.849 894.97C-174.003 892.246 -188.365 894.121 -208.064 907.608L-258.785 892.508L-297.231 905.682L-306.029 1312.86C-296.808 1349.07 -289.653 1366.07 -245.756 1344.64C-212.562 1350.83 -206.256 1342.79 -197.287 1326.33C-205.382 1370.83 -184.483 1361.41 -154.785 1354.85C-111.248 1352.18 -91.1001 1347.09 -79.1477 1317.76C-32.4573 1333.45 -6.28869 1343.64 40.7979 1294.4C117.567 1289.26 138.086 1275.34 159.367 1243.01C221.17 1264.15 240.148 1251.81 264.54 1215.21C308.136 1224.52 330.019 1218.97 367.412 1202.19C384.382 1216.69 400.301 1218 436.586 1211.93C448.441 1251.32 467.733 1259.17 521.981 1250.84C538.395 1283.13 552.861 1279.4 579.574 1268.97C577.787 1284 578.085 1291.97 612.231 1294.39C630.88 1310.3 641.473 1307.39 660.638 1278.96C681.824 1304.68 702.707 1302.51 745.169 1289.03C782.859 1311.2 796.75 1296.79 824.607 1282.51C847.846 1277.03 860.419 1273.68 845.258 1244.23C866.69 1255.87 879.082 1258.92 903.217 1245.49C926.743 1228.3 933.623 1219.78 930.776 1208.6C933.517 1219.37 939.8 1217.05 961.86 1215.04C988.592 1245.19 1000.08 1233.25 1022.96 1231.6C1057.16 1243.43 1065.39 1235.25 1077.78 1217.54C1085.89 1261.28 1106.99 1269.44 1154.36 1274.39C1176.44 1286.8 1188.48 1283.57 1209.56 1265.7C1216.65 1293.46 1227.42 1299.12 1258.55 1291.88C1295.28 1301.92 1312.49 1302.97 1323.28 1278.04C1334.84 1299.64 1344.68 1300.46 1364.56 1294.17C1383.7 1303.89 1394.41 1308.99 1412.79 1286.98C1471.72 1289.86 1475.65 1274.03 1475.23 1241.37C1521.39 1226.85 1527.88 1212.65 1516.21 1180.06C1559.64 1156.32 1554.7 1145.96 1538.64 1128.23C1528.7 1098.92 1542.96 1080.23 1492.13 1055.56C1488.57 1034.01 1496.86 1016.74 1433.31 1025.45C1436.9 994.972 1434.16 981.461 1394.57 983.425C1354.19 966.544 1332.08 948.971 1288.56 981.135C1235.7 971.359 1217.24 981.229 1199.99 1020.41Z" fill="#002F4D"/>
<g filter="url(#filter23_f_20_2156)">
<path d="M1344.55 280.875C1355.32 276.47 1356.41 276.63 1352.53 282.076H1356.51L1358.31 280.074H1363.49C1371.73 275.056 1375.15 277.282 1382.63 279.073C1374.65 279.673 1371.18 280.952 1369.47 283.478L1373.46 286.282L1391 291.689L1371.66 288.685C1365.18 290.736 1363.09 290.087 1359.9 286.282C1347.77 292.327 1341.37 296.096 1333.39 306.109C1334.39 295.495 1338.16 290.666 1354.12 284.079H1349.94C1340.2 286.405 1335.09 287.713 1331 290.087C1333.33 287.516 1335.73 287.11 1344.55 280.875Z" fill="#046C6B"/>
</g>
</g>
<defs>
<filter id="filter0_d_20_2156" x="570.486" y="664.079" width="330.787" height="296.153" filterUnits="userSpaceOnUse" color-interpolation-filters="sRGB">
<feFlood flood-opacity="0" result="BackgroundImageFix"/>
<feColorMatrix in="SourceAlpha" type="matrix" values="0 0 0 0 0 0 0 0 0 0 0 0 0 0 0 0 0 0 127 0" result="hardAlpha"/>
<feOffset dy="1.74956"/>
<feGaussianBlur stdDeviation="0.874781"/>
<feComposite in2="hardAlpha" operator="out"/>
<feColorMatrix type="matrix" values="0 0 0 0 0.533333 0 0 0 0 0.733333 0 0 0 0 0.760784 0 0 0 1 0"/>
<feBlend mode="normal" in2="BackgroundImageFix" result="effect1_dropShadow_20_2156"/>
<feBlend mode="normal" in="SourceGraphic" in2="effect1_dropShadow_20_2156" result="shape"/>
</filter>
<filter id="filter1_d_20_2156" x="567.861" y="664.079" width="336.036" height="301.402" filterUnits="userSpaceOnUse" color-interpolation-filters="sRGB">
<feFlood flood-opacity="0" result="BackgroundImageFix"/>
<feColorMatrix in="SourceAlpha" type="matrix" values="0 0 0 0 0 0 0 0 0 0 0 0 0 0 0 0 0 0 127 0" result="hardAlpha"/>
<feOffset dy="4.3739"/>
<feGaussianBlur stdDeviation="2.18695"/>
<feComposite in2="hardAlpha" operator="out"/>
<feColorMatrix type="matrix" values="0 0 0 0 0 0 0 0 0 0 0 0 0 0 0 0 0 0 0.25 0"/>
<feBlend mode="normal" in2="BackgroundImageFix" result="effect1_dropShadow_20_2156"/>
<feBlend mode="normal" in="SourceGraphic" in2="effect1_dropShadow_20_2156" result="shape"/>
</filter>
<filter id="filter2_d_20_2156" x="-64.0011" y="542.951" width="249.233" height="381.843" filterUnits="userSpaceOnUse" color-interpolation-filters="sRGB">
<feFlood flood-opacity="0" result="BackgroundImageFix"/>
<feColorMatrix in="SourceAlpha" type="matrix" values="0 0 0 0 0 0 0 0 0 0 0 0 0 0 0 0 0 0 127 0" result="hardAlpha"/>
<feOffset dy="3.43077"/>
<feGaussianBlur stdDeviation="1.71539"/>
<feComposite in2="hardAlpha" operator="out"/>
<feColorMatrix type="matrix" values="0 0 0 0 0 0 0 0 0 0 0 0 0 0 0 0 0 0 0.25 0"/>
<feBlend mode="normal" in2="BackgroundImageFix" result="effect1_dropShadow_20_2156"/>
<feBlend mode="normal" in="SourceGraphic" in2="effect1_dropShadow_20_2156" result="shape"/>
</filter>
<filter id="filter3_f_20_2156" x="703" y="-32" width="564" height="197" filterUnits="userSpaceOnUse" color-interpolation-filters="sRGB">
<feFlood flood-opacity="0" result="BackgroundImageFix"/>
<feBlend mode="normal" in="SourceGraphic" in2="BackgroundImageFix" result="shape"/>
<feGaussianBlur stdDeviation="2" result="effect1_foregroundBlur_20_2156"/>
</filter>
<filter id="filter4_f_20_2156" x="208.533" y="-204.338" width="574.096" height="366.604" filterUnits="userSpaceOnUse" color-interpolation-filters="sRGB">
<feFlood flood-opacity="0" result="BackgroundImageFix"/>
<feBlend mode="normal" in="SourceGraphic" in2="BackgroundImageFix" result="shape"/>
<feGaussianBlur stdDeviation="2" result="effect1_foregroundBlur_20_2156"/>
</filter>
<filter id="filter5_d_20_2156" x="222.093" y="729.573" width="200.568" height="237.304" filterUnits="userSpaceOnUse" color-interpolation-filters="sRGB">
<feFlood flood-opacity="0" result="BackgroundImageFix"/>
<feColorMatrix in="SourceAlpha" type="matrix" values="0 0 0 0 0 0 0 0 0 0 0 0 0 0 0 0 0 0 127 0" result="hardAlpha"/>
<feOffset dy="4.08692"/>
<feGaussianBlur stdDeviation="2.04346"/>
<feComposite in2="hardAlpha" operator="out"/>
<feColorMatrix type="matrix" values="0 0 0 0 0 0 0 0 0 0 0 0 0 0 0 0 0 0 0.25 0"/>
<feBlend mode="normal" in2="BackgroundImageFix" result="effect1_dropShadow_20_2156"/>
<feBlend mode="normal" in="SourceGraphic" in2="effect1_dropShadow_20_2156" result="shape"/>
</filter>
<filter id="filter6_d_20_2156" x="1035.15" y="780.598" width="160.69" height="237.323" filterUnits="userSpaceOnUse" color-interpolation-filters="sRGB">
<feFlood flood-opacity="0" result="BackgroundImageFix"/>
<feColorMatrix in="SourceAlpha" type="matrix" values="0 0 0 0 0 0 0 0 0 0 0 0 0 0 0 0 0 0 127 0" result="hardAlpha"/>
<feOffset dy="4.08692"/>
<feGaussianBlur stdDeviation="2.04346"/>
<feComposite in2="hardAlpha" operator="out"/>
<feColorMatrix type="matrix" values="0 0 0 0 0 0 0 0 0 0 0 0 0 0 0 0 0 0 0.25 0"/>
<feBlend mode="normal" in2="BackgroundImageFix" result="effect1_dropShadow_20_2156"/>
<feBlend mode="normal" in="SourceGraphic" in2="effect1_dropShadow_20_2156" result="shape"/>
</filter>
<filter id="filter7_d_20_2156" x="54.664" y="745.292" width="191.049" height="247.203" filterUnits="userSpaceOnUse" color-interpolation-filters="sRGB">
<feFlood flood-opacity="0" result="BackgroundImageFix"/>
<feColorMatrix in="SourceAlpha" type="matrix" values="0 0 0 0 0 0 0 0 0 0 0 0 0 0 0 0 0 0 127 0" result="hardAlpha"/>
<feOffset dy="3.43077"/>
<feGaussianBlur stdDeviation="1.71539"/>
<feComposite in2="hardAlpha" operator="out"/>
<feColorMatrix type="matrix" values="0 0 0 0 0 0 0 0 0 0 0 0 0 0 0 0 0 0 0.25 0"/>
<feBlend mode="normal" in2="BackgroundImageFix" result="effect1_dropShadow_20_2156"/>
<feBlend mode="normal" in="SourceGraphic" in2="effect1_dropShadow_20_2156" result="shape"/>
</filter>
<filter id="filter8_d_20_2156" x="-10.7642" y="700.106" width="111.441" height="338.058" filterUnits="userSpaceOnUse" color-interpolation-filters="sRGB">
<feFlood flood-opacity="0" result="BackgroundImageFix"/>
<feColorMatrix in="SourceAlpha" type="matrix" values="0 0 0 0 0 0 0 0 0 0 0 0 0 0 0 0 0 0 127 0" result="hardAlpha"/>
<feOffset dy="4.75248"/>
<feGaussianBlur stdDeviation="2.37624"/>
<feComposite in2="hardAlpha" operator="out"/>
<feColorMatrix type="matrix" values="0 0 0 0 0 0 0 0 0 0 0 0 0 0 0 0 0 0 0.25 0"/>
<feBlend mode="normal" in2="BackgroundImageFix" result="effect1_dropShadow_20_2156"/>
<feBlend mode="normal" in="SourceGraphic" in2="effect1_dropShadow_20_2156" result="shape"/>
</filter>
<filter id="filter9_d_20_2156" x="-322.752" y="773" width="1861.78" height="476.436" filterUnits="userSpaceOnUse" color-interpolation-filters="sRGB">
<feFlood flood-opacity="0" result="BackgroundImageFix"/>
<feColorMatrix in="SourceAlpha" type="matrix" values="0 0 0 0 0 0 0 0 0 0 0 0 0 0 0 0 0 0 127 0" result="hardAlpha"/>
<feOffset dy="4.75248"/>
<feGaussianBlur stdDeviation="2.37624"/>
<feComposite in2="hardAlpha" operator="out"/>
<feColorMatrix type="matrix" values="0 0 0 0 0 0 0 0 0 0 0 0 0 0 0 0 0 0 0.25 0"/>
<feBlend mode="normal" in2="BackgroundImageFix" result="effect1_dropShadow_20_2156"/>
<feBlend mode="normal" in="SourceGraphic" in2="effect1_dropShadow_20_2156" result="shape"/>
</filter>
<filter id="filter10_i_20_2156" x="-318" y="773" width="1852.28" height="470.931" filterUnits="userSpaceOnUse" color-interpolation-filters="sRGB">
<feFlood flood-opacity="0" result="BackgroundImageFix"/>
<feBlend mode="normal" in="SourceGraphic" in2="BackgroundImageFix" result="shape"/>
<feColorMatrix in="SourceAlpha" type="matrix" values="0 0 0 0 0 0 0 0 0 0 0 0 0 0 0 0 0 0 127 0" result="hardAlpha"/>
<feOffset dy="5"/>
<feGaussianBlur stdDeviation="2"/>
<feComposite in2="hardAlpha" operator="arithmetic" k2="-1" k3="1"/>
<feColorMatrix type="matrix" values="0 0 0 0 0.976471 0 0 0 0 0.87451 0 0 0 0 0.639216 0 0 0 0.25 0"/>
<feBlend mode="normal" in2="shape" result="effect1_innerShadow_20_2156"/>
</filter>
<filter id="filter11_b_20_2156" x="1167.25" y="-94.7525" width="399.979" height="348.399" filterUnits="userSpaceOnUse" color-interpolation-filters="sRGB">
<feFlood flood-opacity="0" result="BackgroundImageFix"/>
<feGaussianBlur in="BackgroundImage" stdDeviation="2.37624"/>
<feComposite in2="SourceAlpha" operator="in" result="effect1_backgroundBlur_20_2156"/>
<feBlend mode="normal" in="SourceGraphic" in2="effect1_backgroundBlur_20_2156" result="shape"/>
</filter>
<filter id="filter12_b_20_2156" x="1078.69" y="-8.55664" width="301.578" height="140.734" filterUnits="userSpaceOnUse" color-interpolation-filters="sRGB">
<feFlood flood-opacity="0" result="BackgroundImageFix"/>
<feGaussianBlur in="BackgroundImage" stdDeviation="2"/>
<feComposite in2="SourceAlpha" operator="in" result="effect1_backgroundBlur_20_2156"/>
<feBlend mode="normal" in="SourceGraphic" in2="effect1_backgroundBlur_20_2156" result="shape"/>
</filter>
<filter id="filter13_f_20_2156" x="234.5" y="145" width="64.5" height="38.0366" filterUnits="userSpaceOnUse" color-interpolation-filters="sRGB">
<feFlood flood-opacity="0" result="BackgroundImageFix"/>
<feBlend mode="normal" in="SourceGraphic" in2="BackgroundImageFix" result="shape"/>
<feGaussianBlur stdDeviation="2" result="effect1_foregroundBlur_20_2156"/>
</filter>
<filter id="filter14_f_20_2156" x="196" y="202.037" width="47" height="27" filterUnits="userSpaceOnUse" color-interpolation-filters="sRGB">
<feFlood flood-opacity="0" result="BackgroundImageFix"/>
<feBlend mode="normal" in="SourceGraphic" in2="BackgroundImageFix" result="shape"/>
<feGaussianBlur stdDeviation="2" result="effect1_foregroundBlur_20_2156"/>
</filter>
<filter id="filter15_d_20_2156" x="1326" y="643.243" width="84.9268" height="78.6418" filterUnits="userSpaceOnUse" color-interpolation-filters="sRGB">
<feFlood flood-opacity="0" result="BackgroundImageFix"/>
<feColorMatrix in="SourceAlpha" type="matrix" values="0 0 0 0 0 0 0 0 0 0 0 0 0 0 0 0 0 0 127 0" result="hardAlpha"/>
<feOffset dy="4"/>
<feGaussianBlur stdDeviation="2"/>
<feComposite in2="hardAlpha" operator="out"/>
<feColorMatrix type="matrix" values="0 0 0 0 0 0 0 0 0 0 0 0 0 0 0 0 0 0 0.25 0"/>
<feBlend mode="normal" in2="BackgroundImageFix" result="effect1_dropShadow_20_2156"/>
<feBlend mode="normal" in="SourceGraphic" in2="effect1_dropShadow_20_2156" result="shape"/>
</filter>
<filter id="filter16_d_20_2156" x="102.347" y="206.378" width="27.7728" height="50.3397" filterUnits="userSpaceOnUse" color-interpolation-filters="sRGB">
<feFlood flood-opacity="0" result="BackgroundImageFix"/>
<feColorMatrix in="SourceAlpha" type="matrix" values="0 0 0 0 0 0 0 0 0 0 0 0 0 0 0 0 0 0 127 0" result="hardAlpha"/>
<feOffset dy="2.23552"/>
<feGaussianBlur stdDeviation="1.11776"/>
<feComposite in2="hardAlpha" operator="out"/>
<feColorMatrix type="matrix" values="0 0 0 0 0 0 0 0 0 0 0 0 0 0 0 0 0 0 0.25 0"/>
<feBlend mode="normal" in2="BackgroundImageFix" result="effect1_dropShadow_20_2156"/>
<feBlend mode="normal" in="SourceGraphic" in2="effect1_dropShadow_20_2156" result="shape"/>
</filter>
<filter id="filter17_d_20_2156" x="146.596" y="173.619" width="27.7728" height="50.3397" filterUnits="userSpaceOnUse" color-interpolation-filters="sRGB">
<feFlood flood-opacity="0" result="BackgroundImageFix"/>
<feColorMatrix in="SourceAlpha" type="matrix" values="0 0 0 0 0 0 0 0 0 0 0 0 0 0 0 0 0 0 127 0" result="hardAlpha"/>
<feOffset dy="2.23552"/>
<feGaussianBlur stdDeviation="1.11776"/>
<feComposite in2="hardAlpha" operator="out"/>
<feColorMatrix type="matrix" values="0 0 0 0 0 0 0 0 0 0 0 0 0 0 0 0 0 0 0.25 0"/>
<feBlend mode="normal" in2="BackgroundImageFix" result="effect1_dropShadow_20_2156"/>
<feBlend mode="normal" in="SourceGraphic" in2="effect1_dropShadow_20_2156" result="shape"/>
</filter>
<filter id="filter18_d_20_2156" x="20.4002" y="224.984" width="27.7728" height="50.3397" filterUnits="userSpaceOnUse" color-interpolation-filters="sRGB">
<feFlood flood-opacity="0" result="BackgroundImageFix"/>
<feColorMatrix in="SourceAlpha" type="matrix" values="0 0 0 0 0 0 0 0 0 0 0 0 0 0 0 0 0 0 127 0" result="hardAlpha"/>
<feOffset dy="2.23552"/>
<feGaussianBlur stdDeviation="1.11776"/>
<feComposite in2="hardAlpha" operator="out"/>
<feColorMatrix type="matrix" values="0 0 0 0 0 0 0 0 0 0 0 0 0 0 0 0 0 0 0.25 0"/>
<feBlend mode="normal" in2="BackgroundImageFix" result="effect1_dropShadow_20_2156"/>
<feBlend mode="normal" in="SourceGraphic" in2="effect1_dropShadow_20_2156" result="shape"/>
</filter>
<filter id="filter19_d_20_2156" x="142.645" y="135.77" width="51.8177" height="30.1136" filterUnits="userSpaceOnUse" color-interpolation-filters="sRGB">
<feFlood flood-opacity="0" result="BackgroundImageFix"/>
<feColorMatrix in="SourceAlpha" type="matrix" values="0 0 0 0 0 0 0 0 0 0 0 0 0 0 0 0 0 0 127 0" result="hardAlpha"/>
<feOffset dy="2.23552"/>
<feGaussianBlur stdDeviation="1.11776"/>
<feComposite in2="hardAlpha" operator="out"/>
<feColorMatrix type="matrix" values="0 0 0 0 0 0 0 0 0 0 0 0 0 0 0 0 0 0 0.25 0"/>
<feBlend mode="normal" in2="BackgroundImageFix" result="effect1_dropShadow_20_2156"/>
<feBlend mode="normal" in="SourceGraphic" in2="effect1_dropShadow_20_2156" result="shape"/>
</filter>
<filter id="filter20_d_20_2156" x="84.1639" y="180.668" width="51.8177" height="30.1136" filterUnits="userSpaceOnUse" color-interpolation-filters="sRGB">
<feFlood flood-opacity="0" result="BackgroundImageFix"/>
<feColorMatrix in="SourceAlpha" type="matrix" values="0 0 0 0 0 0 0 0 0 0 0 0 0 0 0 0 0 0 127 0" result="hardAlpha"/>
<feOffset dy="2.23552"/>
<feGaussianBlur stdDeviation="1.11776"/>
<feComposite in2="hardAlpha" operator="out"/>
<feColorMatrix type="matrix" values="0 0 0 0 0 0 0 0 0 0 0 0 0 0 0 0 0 0 0.25 0"/>
<feBlend mode="normal" in2="BackgroundImageFix" result="effect1_dropShadow_20_2156"/>
<feBlend mode="normal" in="SourceGraphic" in2="effect1_dropShadow_20_2156" result="shape"/>
</filter>
<filter id="filter21_d_20_2156" x="-169.365" y="-277.7" width="1864.26" height="475.953" filterUnits="userSpaceOnUse" color-interpolation-filters="sRGB">
<feFlood flood-opacity="0" result="BackgroundImageFix"/>
<feColorMatrix in="SourceAlpha" type="matrix" values="0 0 0 0 0 0 0 0 0 0 0 0 0 0 0 0 0 0 127 0" result="hardAlpha"/>
<feOffset dy="4"/>
<feGaussianBlur stdDeviation="2"/>
<feComposite in2="hardAlpha" operator="out"/>
<feColorMatrix type="matrix" values="0 0 0 0 0 0 0 0 0 0 0 0 0 0 0 0 0 0 0.25 0"/>
<feBlend mode="normal" in2="BackgroundImageFix" result="effect1_dropShadow_20_2156"/>
<feBlend mode="normal" in="SourceGraphic" in2="effect1_dropShadow_20_2156" result="shape"/>
</filter>
<filter id="filter22_d_20_2156" x="1328.64" y="743.907" width="210.656" height="218.374" filterUnits="userSpaceOnUse" color-interpolation-filters="sRGB">
<feFlood flood-opacity="0" result="BackgroundImageFix"/>
<feColorMatrix in="SourceAlpha" type="matrix" values="0 0 0 0 0 0 0 0 0 0 0 0 0 0 0 0 0 0 127 0" result="hardAlpha"/>
<feOffset dy="3.43077"/>
<feGaussianBlur stdDeviation="1.71539"/>
<feComposite in2="hardAlpha" operator="out"/>
<feColorMatrix type="matrix" values="0 0 0 0 0 0 0 0 0 0 0 0 0 0 0 0 0 0 0.25 0"/>
<feBlend mode="normal" in2="BackgroundImageFix" result="effect1_dropShadow_20_2156"/>
<feBlend mode="normal" in="SourceGraphic" in2="effect1_dropShadow_20_2156" result="shape"/>
</filter>
<filter id="filter23_f_20_2156" x="1327" y="273" width="68" height="37.1089" filterUnits="userSpaceOnUse" color-interpolation-filters="sRGB">
<feFlood flood-opacity="0" result="BackgroundImageFix"/>
<feBlend mode="normal" in="SourceGraphic" in2="BackgroundImageFix" result="shape"/>
<feGaussianBlur stdDeviation="2" result="effect1_foregroundBlur_20_2156"/>
</filter>
<linearGradient id="paint0_linear_20_2156" x1="1394.12" y1="674.461" x2="1408.63" y2="666.397" gradientUnits="userSpaceOnUse">
<stop stop-color="#AD806B"/>
<stop offset="0.674683" stop-color="#C99A81"/>
</linearGradient>
<linearGradient id="paint1_linear_20_2156" x1="1353.38" y1="677.676" x2="1346.43" y2="681.42" gradientUnits="userSpaceOnUse">
<stop stop-color="#B0826D"/>
<stop offset="0.901042" stop-color="#C89980"/>
</linearGradient>
<linearGradient id="paint2_linear_20_2156" x1="1366.15" y1="644.241" x2="1376.92" y2="714.125" gradientUnits="userSpaceOnUse">
<stop stop-color="#AD806B"/>
<stop offset="1" stop-color="#C99A81"/>
</linearGradient>
<clipPath id="clip0_20_2156">
<rect width="1440" height="1175" fill="white"/>
</clipPath>
</defs>
</svg>
