<svg width="1440" height="1375" viewBox="0 0 1440 1375" fill="none" xmlns="http://www.w3.org/2000/svg">
<g clip-path="url(#clip0_35_2096)">
<g filter="url(#filter0_d_35_2096)">
<g filter="url(#filter1_d_35_2096)">
<path d="M659.221 1010.6L572.234 1056.73H788.418L814.251 991.897C814.697 990.777 815.045 989.622 815.29 988.442L830.511 915.382L837.266 854.589L837.267 854.579C837.288 854.389 840.482 825.633 849.219 809.888C851.673 805.467 855.553 800.29 858.828 796.209C862.528 791.598 868.188 789.102 874.1 789.102H893.392C902.256 786.43 901.243 773.566 892.07 772.315L885.596 771.433L883.34 769.831C874.704 763.702 863.547 762.376 853.714 766.309L844.01 770.191C841.943 771.017 839.943 771.999 838.147 773.314C832.91 777.148 821.469 786.815 814.921 802.093C805.38 824.355 784.719 924.86 779.673 949.788C778.921 953.5 777.513 957.041 775.502 960.249L764.004 978.591C759.361 985.997 751.823 991.115 743.225 992.696L674.171 1005.4C668.951 1006.36 663.909 1008.11 659.221 1010.6Z" fill="#872E87"/>
</g>
<path d="M755.724 1003.98C735.091 1019.95 728.136 1010.21 700.593 1013.6C692.047 1014.65 672.501 1018.22 668.419 1025.8C656.368 1048.19 715.383 1034.96 739.095 1025.8C750.624 1021.35 757.274 1018.28 766.637 1010.21C775.834 1002.29 785.865 985.789 785.865 985.789C785.865 985.789 795.479 956.559 785.865 959.806C778.898 962.158 777.031 976.435 777.031 976.435C777.031 976.435 766.478 995.654 755.724 1003.98Z" fill="#AC5EAC"/>
<path fill-rule="evenodd" clip-rule="evenodd" d="M878.258 773.85C877.986 773.052 877.267 772.42 876.397 772.003C875.462 771.554 874.309 771.331 873.211 771.417C872.112 771.503 871.043 771.901 870.314 772.724C869.581 773.55 869.227 774.765 869.479 776.412C869.502 776.56 869.646 776.663 869.801 776.644C869.956 776.624 870.064 776.488 870.041 776.34C869.806 774.805 870.145 773.757 870.75 773.075C871.358 772.388 872.271 772.033 873.264 771.955C873.98 771.899 874.726 771.989 875.401 772.195C874.081 772.291 872.982 773.261 872.831 774.56C872.658 776.041 873.781 777.388 875.339 777.57C876.896 777.752 878.299 776.698 878.472 775.218C878.528 774.736 878.447 774.268 878.258 773.85Z" fill="black"/>
</g>
<path d="M1200.29 864.296L1249.22 998.615L1264.62 1006.45L1255.79 983.128C1255.24 981.676 1255.28 980.065 1255.9 978.642L1269.54 947.457L1280.57 928.082L1291.6 908.707L1305.43 876.828L1310.15 859.946C1310.79 857.651 1308.03 855.945 1306.27 857.546L1301.85 861.555L1288.84 872.721L1277.59 882.388C1276.43 883.383 1275.4 884.523 1274.53 885.78L1265.18 899.325C1263.94 901.114 1262.96 903.063 1262.25 905.119L1256.76 921.135C1256.55 921.753 1256.38 922.389 1256.28 923.034L1250.04 960.375C1249.84 961.592 1248.15 961.731 1247.75 960.563L1236.6 927.923C1236.18 926.719 1236.17 925.416 1236.56 924.204L1240.69 911.18L1262.59 855.058L1270.38 825.882C1271 823.572 1268.2 821.9 1266.46 823.538L1253 836.178C1252.75 836.418 1252.51 836.68 1252.3 836.961L1243.45 848.858C1241.63 851.312 1240.29 854.094 1239.52 857.053L1236.71 867.844L1230.26 903.461C1230.04 904.689 1228.32 904.788 1227.96 903.593L1223.13 887.648C1223.07 887.43 1223.07 887.198 1223.13 886.979L1233.92 849.135L1245.85 811.368C1246.18 810.335 1246.36 809.262 1246.4 808.18L1246.7 798.869C1246.78 796.509 1243.74 795.493 1242.38 797.424L1227.3 818.871C1225.65 821.21 1224.45 823.825 1223.73 826.593L1218.68 846.108C1218.52 846.724 1218.41 847.351 1218.36 847.984L1215.9 874.443C1215.8 875.556 1214.35 875.923 1213.73 874.995L1204.83 861.73L1199.46 822.976L1193.68 799.915C1193.58 799.508 1193.43 799.113 1193.25 798.737L1184.39 780.748C1183.25 778.434 1179.76 779.336 1179.89 781.912L1181.31 811.424C1181.39 813.01 1181.62 814.585 1182.01 816.125L1188.62 842.135C1188.86 843.102 1189.23 844.035 1189.71 844.911L1200.21 864.132C1200.24 864.185 1200.27 864.24 1200.29 864.296Z" fill="#C56593"/>
<path d="M1208.46 957.249L1239.9 973.224L1234.07 955.85L1200.89 932.746L1179.6 921.928C1177.03 920.621 1174.24 919.793 1171.37 919.485L1120.62 914.038C1118.09 913.766 1116.96 917.138 1119.15 918.443L1161.99 943.94C1163.97 945.121 1166.12 946.007 1168.36 946.569L1203.48 955.385C1205.21 955.818 1206.88 956.443 1208.46 957.249Z" fill="#C56593"/>
<path d="M1206.38 914.879L1223.14 923.395L1213.05 898.576L1199.01 886.979C1197.28 885.552 1195.35 884.377 1193.3 883.489L1169.02 873.008C1166.36 871.858 1163.51 871.206 1160.61 871.083L1136.55 870.061C1134.22 869.962 1133.16 872.936 1135.03 874.336L1176.6 905.506C1179.23 907.479 1182.24 908.884 1185.44 909.633L1203.7 913.902C1204.63 914.119 1205.53 914.447 1206.38 914.879Z" fill="#C56593"/>
<path d="M1143.58 832.83L1210.13 890.367L1205.77 876.621L1194.01 864.401L1177.17 851.035L1144.99 830.923C1143.75 830.146 1142.47 831.871 1143.58 832.83Z" fill="#C56593"/>
<path d="M1370.1 950.145L1358.01 965.034L1330.39 995.192L1302.77 1025.35L1330.95 1039.67L1349.34 1014.04C1350.05 1013.06 1350.67 1012.03 1351.22 1010.95L1369.46 975.054C1370.59 972.843 1371.36 970.471 1371.75 968.022L1374.29 952.017C1374.68 949.617 1371.63 948.259 1370.1 950.145Z" fill="#C56593"/>
<g filter="url(#filter2_d_35_2096)">
<path d="M15.5821 1011.86C-12.4831 854.984 -7.20641 829.966 -2.76953 733.508C3.78568 845.263 4.7655 908.355 24.7566 1017.93L15.5821 1011.86Z" fill="#6CB236"/>
<path d="M89.0018 656.312C2.83251 610.271 -23.1902 695.215 1.09686 730.095C-38.4063 698.768 -47.6142 708.581 -60.039 734.542C-62.2157 745.944 -57.96 754.651 -42.6765 773.407C-15.1948 806.501 -2.52947 808.787 20.7419 816.904C-0.148514 779.801 -1.44712 766.699 18.3091 759.675C9.57599 781.872 14.55 795.937 35.464 823C55.1005 832.228 68.2431 833.722 97.3327 826.589C73.9274 824.397 63.2122 821.771 59.6448 808.038C50.7122 774.673 51.0038 765.598 66.6803 776.961C69.6215 807.557 83.7305 816.604 117.692 827.016C124.524 827.268 130.549 827.372 136.162 827.087C113.9 798.709 106.405 786.13 124.394 784.645C127.879 801.762 135.184 810.264 157.351 823.305C164.869 820.784 172.624 816.789 181.8 810.599C179.802 800.164 183.699 778.848 171.823 762.321C119.162 765.651 109.497 767.718 116.483 761.562C123.469 755.406 143.843 747.001 171.548 745.3L171.47 745.146C167.032 736.39 164.52 731.434 140.572 731.587C56.0349 747.022 54.7739 743.496 73.9094 732.843C104.257 721.896 129.372 709.447 147.41 709.92C147.41 709.92 146.442 703.007 137.457 697.433C131.328 691.346 91.1747 699.846 52.1401 716.842C73.8709 695.762 81.2131 680.26 126.423 677.034C128.07 665.981 121.86 662.228 97.9615 660.338C71.697 666.332 58.3037 672.822 37.2511 691.092C47.9857 668.028 56.1902 657.367 89.0018 656.312Z" fill="#27844C"/>
<path d="M170.837 804.559C133.077 776.42 94.9042 761.235 17.9377 731.835C10.7765 729.032 8.2319 729.676 4.76679 732.44C74.2355 757.938 108.646 770.17 170.837 804.559Z" fill="#6CB236"/>
</g>
<g filter="url(#filter3_f_35_2096)">
<path d="M743.484 122.971C701.744 99.7575 688.389 87.5394 743.484 72L1200.39 72C1246.56 80.7189 1252.41 93.9387 1226.36 132.746C1285.1 160.354 1264.08 171.336 1226.89 190.77L1226.36 191.048C1235.6 225.184 1234.55 241.632 1163.2 240.972C1140.04 256.031 1127.04 264.447 1085.87 254.936C1031.08 264.935 1002.14 266.76 970.755 227.007C937.502 228.85 918.43 230.483 914.675 191.048C863.85 194.694 839.728 192.157 818.454 164.865C761.822 159.82 736.154 154.475 743.484 122.971Z" fill="#023F48"/>
</g>
<path d="M1789.52 936.029C1831.26 959.242 1844.61 971.461 1789.52 987L1332.61 987C1286.44 978.281 1280.59 965.061 1306.64 926.254C1247.9 898.646 1268.92 887.664 1306.11 868.23L1306.64 867.952C1297.4 833.816 1298.45 817.368 1369.8 818.028C1392.96 802.969 1405.96 794.553 1447.13 804.064C1501.92 794.065 1530.86 792.24 1562.24 831.993C1595.5 830.15 1614.57 828.517 1618.32 867.952C1669.15 864.306 1693.27 866.843 1714.55 894.135C1771.18 899.18 1796.85 904.525 1789.52 936.029Z" fill="#11693C"/>
<g filter="url(#filter4_f_35_2096)">
<path d="M268.47 172.211C214.391 155.488 193.716 143.003 232.59 96.3155L645.688 -98.9796C693.569 -105.732 708.163 -88.5475 711.933 -19.6304C784.473 -3.62744 773.203 21.7072 753.259 66.5409L752.974 67.1821C785.36 114.06 795.988 139.001 731.009 168.517C720.675 200.837 714.843 218.927 670.923 222.364C628.43 260.668 603.549 275.755 547.187 229.979C518.419 246.937 502.325 257.521 471.171 200.407C427.785 227.56 404.189 234.092 365.743 202.547C310.989 219.242 284.02 222.255 268.47 172.211Z" fill="#11693C"/>
</g>
<mask id="mask0_35_2096" style="mask-type:alpha" maskUnits="userSpaceOnUse" x="439" y="890" width="309" height="200">
<path d="M713.064 1089.25C700.746 1089.25 659.909 1088.05 621.914 1089.25H515.06C515.06 1089.25 488.578 1050.73 472.565 1044.84C456.552 1038.94 445.668 1017.57 439 984.711C439 984.711 454.705 988.641 465.79 992.178C476.876 995.715 497.816 1005.54 497.816 1005.54C497.816 1005.54 474.105 992.571 467.33 974.886C460.556 957.202 450.394 918.688 450.394 918.688C450.394 918.688 470.41 935.194 497.816 941.875C525.222 948.556 539.387 974.886 539.387 974.886C539.387 974.886 537.848 947.377 542.467 930.871C547.086 914.366 557.864 890 557.864 890C557.864 890 585.886 930.478 585.886 958.381C585.886 986.283 576.032 1016.15 576.032 1016.15C576.032 1016.15 594.508 983.532 604.67 970.957C614.832 958.381 631.768 955.237 646.549 958.381C661.33 961.525 679.499 955.237 679.499 955.237C679.499 955.237 670.26 976.458 663.486 986.283C656.711 996.108 634.54 1013.4 628.073 1021.65C621.606 1029.91 600.975 1071.17 600.975 1071.17C600.975 1071.17 628.073 1035.01 644.702 1031.87C661.33 1028.73 690.584 1036.59 711.524 1053.49C732.464 1070.38 747.861 1080.99 747.861 1080.99C747.861 1080.99 725.381 1089.25 713.064 1089.25Z" fill="#D9D9D9"/>
</mask>
<g mask="url(#mask0_35_2096)">
<path d="M713.064 1089.25C700.746 1089.25 659.909 1088.05 621.914 1089.25H515.06C515.06 1089.25 488.578 1050.73 472.565 1044.84C456.552 1038.94 445.668 1017.57 439 984.711C439 984.711 454.705 988.641 465.79 992.178C476.876 995.715 497.816 1005.54 497.816 1005.54C497.816 1005.54 474.105 992.571 467.33 974.886C460.556 957.202 450.394 918.688 450.394 918.688C450.394 918.688 470.41 935.194 497.816 941.875C525.222 948.556 539.387 974.886 539.387 974.886C539.387 974.886 537.848 947.377 542.467 930.871C547.086 914.366 557.864 890 557.864 890C557.864 890 585.886 930.478 585.886 958.381C585.886 986.283 576.032 1016.15 576.032 1016.15C576.032 1016.15 594.508 983.532 604.67 970.957C614.832 958.381 631.768 955.237 646.549 958.381C661.33 961.525 679.499 955.237 679.499 955.237C679.499 955.237 670.26 976.458 663.486 986.283C656.711 996.108 634.54 1013.4 628.073 1021.65C621.606 1029.91 600.975 1071.17 600.975 1071.17C600.975 1071.17 628.073 1035.01 644.702 1031.87C661.33 1028.73 690.584 1036.59 711.524 1053.49C732.464 1070.38 747.861 1080.99 747.861 1080.99C747.861 1080.99 725.381 1089.25 713.064 1089.25Z" fill="#E0939E"/>
<path d="M500.588 1032.66C489.978 1015.74 479.563 1006.29 460.556 989.427C383.385 956.141 439.795 1037.76 460.556 1103H746.63V1068.03C716.325 1051.33 696.225 1046.86 656.096 1045.63C674.595 1052.59 680.931 1057.7 688.122 1068.03C627.458 1037.37 610.521 1060.17 573.569 1096.71C583.592 1057.67 589.954 1037.06 613.293 1020.87C600.681 1024.57 593.437 1028.88 580.036 1042.87C592.045 1005.54 604.007 963.744 640.391 970.171C627.06 974.072 625.404 985.847 621.299 1000.04C633.925 981.567 654.279 967.738 678.883 956.023C641.156 946.917 620.942 951.958 585.886 971.743C575.964 1005.25 569.528 1020.53 556.017 1039.73C564.317 994.541 568.418 998.736 565.871 959.953C562.288 986.682 559.34 1002.34 550.782 1032.66C542.36 966.102 543.947 934.954 557.556 890L519.68 945.412C536.672 979.874 540.379 1002.65 534.461 1050.73C510.442 990.999 481.496 994.139 471.026 959.953C481.756 968.537 488.362 970.473 500.588 971.743C477.338 957.97 468.608 941.828 449.163 915.938C463.379 998.474 475.337 991.392 497.817 1005.54C509.892 1017.28 525.651 1041.92 544.931 1092.78H527.994C511.486 1061.87 504.348 1042.92 476.261 1020.87C483.012 1020.35 488.404 1023.07 500.588 1032.66Z" fill="#C56593"/>
</g>
<g filter="url(#filter5_d_35_2096)">
<path d="M331.126 912.248L310.215 1047.3L297.185 1058.7L301.153 1035.07C301.388 1033.67 301.031 1032.24 300.168 1031.11L281.527 1006.82L267.529 992.431L253.531 978.039L234.788 953.455C234.632 953.249 234.491 953.032 234.367 952.805L226.441 938.287C225.489 936.542 227.336 934.603 229.125 935.469L235.071 938.347L249.391 944.772L261.735 950.31C263.047 950.898 264.269 951.668 265.366 952.597L276.494 962.022C278.08 963.365 279.451 964.941 280.561 966.697L288.607 979.426C288.938 979.949 289.22 980.501 289.451 981.075L302.437 1013.38C302.829 1014.36 304.258 1014.18 304.398 1013.14L308.878 979.838C309.032 978.693 308.793 977.53 308.201 976.538L301.881 965.956L270.783 921.441L257.49 896.32C256.558 894.557 258.444 892.639 260.222 893.542L276.26 901.69C276.555 901.839 276.834 902.017 277.094 902.22L287.436 910.307C289.735 912.106 291.623 914.376 292.972 916.966L297.524 925.707L310.423 956.462C310.833 957.44 312.278 957.223 312.382 956.167L314 939.757C314.021 939.55 313.978 939.343 313.878 939.162L296.646 908.03L278.391 877.331C277.872 876.459 277.487 875.515 277.246 874.53L274.955 865.133C274.489 863.22 276.732 861.819 278.246 863.077L297.039 878.691C299.139 880.435 300.867 882.582 302.123 885.006L310.404 900.983C310.678 901.512 310.905 902.064 311.083 902.633L318.398 926.013C318.684 926.927 319.959 926.98 320.32 926.093L326.373 911.219L324.173 874.718L325.305 852.208C325.323 851.852 325.378 851.5 325.469 851.155L330.788 831.093C331.355 828.953 334.445 829.117 334.783 831.304L339.105 859.277C339.32 860.667 339.39 862.077 339.316 863.482L337.952 889.119C337.907 889.96 337.759 890.793 337.509 891.599L331.159 912.102C331.145 912.15 331.133 912.199 331.126 912.248Z" fill="#2FB5A6"/>
<path d="M341.275 998.087L314.232 1021.75L316.467 1004.43L343.357 974.234L362.096 957.835C363.787 956.355 365.71 955.164 367.789 954.31L415.74 934.615C417.813 933.764 419.547 936.386 417.952 937.96L381.482 973.958C380.21 975.214 378.778 976.298 377.223 977.181L344.636 995.698C343.438 996.379 342.312 997.179 341.275 998.087Z" fill="#2FB5A6"/>
<path d="M335.097 959.43L320.68 972.047L325.524 946.802L337.031 931.78C338.087 930.402 339.314 929.164 340.682 928.096L362.929 910.737C364.719 909.341 366.729 908.252 368.877 907.516L392.387 899.461C394.344 898.791 395.944 901.118 394.618 902.705L360.393 943.672C358.76 945.626 356.776 947.258 354.543 948.484L336.91 958.163C336.262 958.518 335.654 958.943 335.097 959.43Z" fill="#2FB5A6"/>
<path d="M387.646 855.548L326.736 938.568L328.269 924.93L337.045 910.589L350.396 893.782L387.646 855.548Z" fill="#2FB5A6"/>
</g>
<g filter="url(#filter6_d_35_2096)">
<path d="M1111.97 936.467L1191.75 1031.51L1190.5 1045.98L1176.75 1029.16C1175.94 1028.17 1174.78 1027.52 1173.51 1027.34L1143.06 1023.04L1123.06 1022.21L1103.05 1021.38L1072.17 1016.94L1057.21 1012.78C1055.2 1012.22 1055.22 1009.36 1057.23 1008.83L1062.17 1007.54L1076.82 1003.29L1089.67 999.556C1090.86 999.21 1092.09 999.01 1093.33 998.961L1108.59 998.352C1110.34 998.282 1112.09 998.437 1113.8 998.814L1129.01 1002.16C1129.53 1002.28 1130.04 1002.43 1130.53 1002.63L1162.13 1014.96C1163.13 1015.35 1163.97 1014.15 1163.27 1013.34L1143.54 990.773C1142.84 989.98 1141.92 989.42 1140.9 989.172L1128.86 986.247L1075.63 976.683L1049.83 969.2C1047.82 968.617 1047.88 965.749 1049.91 965.252L1065.73 961.382C1066.01 961.315 1066.29 961.27 1066.58 961.25L1080.3 960.246C1082.76 960.066 1085.23 960.333 1087.59 961.032L1097.57 963.987L1127.87 975.367C1128.88 975.748 1129.71 974.5 1128.97 973.712L1119.09 963.187C1118.96 963.05 1118.8 962.951 1118.62 962.901L1084.57 953.618L1049.94 945.148C1049.08 944.939 1048.26 944.619 1047.48 944.197L1040.3 940.29C1038.49 939.302 1039.12 936.553 1041.18 936.454L1064.92 935.316C1067.22 935.206 1069.53 935.486 1071.74 936.144L1089.49 941.432C1089.98 941.58 1090.47 941.765 1090.93 941.986L1112.46 952.16C1113.33 952.572 1114.24 951.657 1113.82 950.79L1107.87 938.549L1080.74 917.358L1065.81 902.899C1065.55 902.647 1065.32 902.369 1065.12 902.068L1055.56 887.765C1054.32 885.918 1056.51 883.705 1058.37 884.916L1080.52 899.314C1081.64 900.042 1082.68 900.877 1083.64 901.808L1100.5 918.233C1101.12 918.835 1101.66 919.513 1102.11 920.251L1111.88 936.34C1111.9 936.385 1111.93 936.427 1111.97 936.467Z" fill="#27844C"/>
<path d="M1179.23 984.153L1176.7 1013.49L1166.15 1001.55L1164.15 969.083C1164.08 968.081 1164.1 967.075 1164.18 966.074L1165.75 947.894C1165.97 945.268 1166.71 942.711 1167.9 940.363L1187.65 901.651C1188.63 899.724 1191.54 900.446 1191.51 902.61L1190.9 944.633C1190.86 946.751 1190.5 948.85 1189.83 950.857L1180.22 979.384C1179.7 980.928 1179.37 982.529 1179.23 984.153Z" fill="#27844C"/>
<path d="M1147.8 963.585L1146.45 979.224L1132.2 960.921L1129.96 945.969C1129.66 943.936 1129.66 941.868 1129.97 939.836L1133.27 918.414C1133.68 915.805 1134.58 913.299 1135.93 911.034L1146.49 893.385C1147.5 891.695 1150.08 892.273 1150.28 894.233L1154.59 937.698C1154.88 940.698 1154.51 943.728 1153.5 946.569L1148.35 961.034C1148.06 961.857 1147.87 962.715 1147.8 963.585Z" fill="#27844C"/>
<path d="M1114.43 881.445L1127.29 955.162L1118.82 945.895L1115.38 933.446C1115.12 932.514 1114.93 931.566 1114.81 930.608L1112.68 914.061L1112.4 881.629C1112.39 880.374 1114.22 880.209 1114.43 881.445Z" fill="#27844C"/>
<path d="M1098.08 1095.82L1114.95 1093.91L1151 1087.76L1187.05 1081.62L1184.77 1108.1L1156.35 1109.71C1155.38 1109.77 1154.41 1109.76 1153.44 1109.67L1116.9 1106.53C1114.9 1106.35 1112.94 1105.89 1111.08 1105.15L1097.55 1099.75C1095.58 1098.96 1095.97 1096.06 1098.08 1095.82Z" fill="#27844C"/>
</g>
<g filter="url(#filter7_d_35_2096)">
<path d="M67.4491 1085.63C98.0007 902.182 112.625 900.141 145.771 883.957C128.654 879.29 81.8102 902.438 58.0957 1083.36L67.4491 1085.63Z" fill="#6CB236"/>
<path d="M96.5053 846.294C129.078 842.728 137.638 852.787 148.105 876.694C145.987 861.32 146.678 853.91 159.639 848.25C171.008 842.55 177.224 845.712 188.282 852.429C201.142 858.036 201.56 860.02 204.982 864.017C178.935 856.552 178.277 859.863 176.725 865.566C185.497 862.598 194.909 863.604 220.219 870.53C232.781 880.195 233.677 885.901 235.259 895.975L235.288 896.161C187.485 871.442 187.017 874.633 184.25 879.073C198.988 882.538 210.342 887.232 237.579 901.868C244.092 913.036 242.928 917.951 239.567 926.358C198.342 887.621 188.574 884.017 183.485 894.32C208.168 901.96 220.436 912.769 240.994 937.536C241.389 946.55 240.214 950.297 236.844 955.786C198.732 905.434 192.115 902.781 188.126 911.6C214.088 928.424 224.02 940.624 231.75 968.348C230.73 975.15 228.431 976.616 224.174 979.016C219.854 960.522 215.09 953.595 203.543 945.723L203.662 945.896C213.492 960.265 219.039 968.374 219.27 984.428C216.851 990.119 215.464 993.262 211.214 996.281C204.692 996.132 201.348 995.404 196.554 991.683C184.99 978.062 187.823 969.065 186.387 953.964C182.199 967.877 177.607 974.603 188.88 995.912C184.417 998.308 179.208 997.284 172.895 993.251C162.692 968.31 183.302 928.171 173.606 924.027C161.758 927.862 164.199 963.12 170.144 994.022C162.129 993.303 157.913 991.809 151.213 985.93C139.817 956.585 165.465 911.37 160.29 906.098C155.114 900.826 139.905 920.695 138.784 974.498C129.98 966.588 124.192 961.29 118.598 949.461C117.738 914 134.109 905.197 144.493 892.949C154.877 880.701 105.733 895.014 96.6834 932.029C90.117 920.695 87.3161 913.635 89.7095 895.118C97.1813 882.573 107.298 881.422 130.138 876.245C117.921 866.294 107.039 865.964 87.9569 887.416C85.7814 881.309 83.769 879.712 86.3918 862.551C91.0499 856.711 96.5868 855.736 113.187 859.265C109.714 854.55 107.605 851.999 89.1791 855.677C88.1443 853.166 88.1222 851.593 96.5053 846.294Z" fill="#27844C"/>
<path d="M207.682 981.393C191.003 931.753 177.645 903.941 148.867 877.269L150.119 884.201C170.919 901.713 183.861 927.262 207.682 981.393Z" fill="#6CB236"/>
</g>
<g filter="url(#filter8_d_35_2096)">
<path d="M13.6949 973.706C117.266 960.988 98.8635 807.328 85.3212 800.391C71.7788 793.455 -32.4121 914.642 13.6949 973.706Z" fill="#11693C"/>
<path d="M77.1604 823.32C16.4437 936.496 -12.3152 1005.53 -4.85436 1128.66L3.57719 1123.93C-8.06707 1005.18 21.261 936.151 77.1604 823.32Z" fill="#D4B131"/>
</g>
<g filter="url(#filter9_d_35_2096)">
<g filter="url(#filter10_i_35_2096)">
<path d="M1181.35 970.046C1108.9 970.191 1068.78 921.723 995.543 998.872C957.831 990.776 936.811 981.677 897.931 1016.99C863.485 992.048 824.821 984.369 816.671 1011.64C775.125 1011.73 750.276 1042.94 750.276 1042.94C750.276 1042.94 707.517 1022.26 679.42 1026.46C662.132 1029.05 637.799 1042.94 637.799 1042.94C637.799 1042.94 602.046 1029.97 581.313 1072.17L581.132 1071.85C563.39 1040.66 553.386 1023.07 508.477 1042.94C455.866 999.096 442.731 1009.93 424.739 1027.7C399.036 1022.02 385.139 1018.74 372.712 1023.14C360.595 1027.43 351.931 1023.08 344.193 1037.58C305.972 984.086 276.635 975.964 221.807 987.754C183.213 971.921 160.195 968.747 125.959 990.636C108.488 958.46 91.3719 954.053 53.1217 960.575C21.3148 934.914 9.1998 912.62 -52.9131 928.866C-87.9305 910.032 -101.872 910.552 -117.822 928.866C-113.459 891.693 -121.582 877.988 -165.885 873.684C-195.09 871.59 -209.409 873.776 -228.812 887.685L-279.847 873.684L-318 887.685V1294.96C-307.999 1330.96 -300.478 1347.8 -257.055 1325.43C-223.735 1330.9 -217.604 1322.73 -208.992 1306.08C-216.124 1350.74 -195.434 1340.87 -165.885 1333.67C-122.416 1330.06 -102.382 1324.54 -91.0658 1294.96C-44.0476 1309.63 -17.6649 1319.26 28.3472 1269.02C104.988 1262.22 125.201 1247.86 145.778 1215.07C208.024 1234.87 226.731 1222.13 250.326 1185.01C294.114 1193.37 315.872 1187.35 352.893 1169.77C370.172 1183.89 386.116 1184.86 422.261 1178.01C434.965 1217.13 454.422 1224.56 508.477 1215.07C525.585 1246.99 539.966 1242.96 566.449 1231.95C564.986 1247.01 565.457 1254.97 599.647 1256.66C618.635 1272.16 629.163 1269.02 647.709 1240.19C669.446 1265.44 690.277 1262.82 732.438 1248.42C770.598 1269.77 784.175 1255.07 811.716 1240.19C834.832 1234.21 847.33 1230.59 831.536 1201.48C853.215 1212.65 865.669 1215.43 889.508 1201.48C912.658 1183.79 919.352 1175.12 916.265 1164C919.237 1174.71 925.469 1172.26 947.48 1169.77C974.858 1199.34 986.086 1187.15 1008.92 1185.01C1043.37 1196.1 1051.42 1187.74 1063.42 1169.77C1072.48 1213.32 1093.75 1221.03 1141.22 1224.95C1163.56 1236.88 1175.53 1233.39 1196.22 1215.07C1203.91 1242.67 1214.79 1248.09 1245.77 1240.19C1282.7 1249.43 1299.93 1250.11 1310.18 1224.95C1322.2 1246.3 1332.06 1246.9 1351.8 1240.19C1371.14 1249.49 1381.96 1254.35 1399.86 1231.95C1458.84 1233.56 1462.42 1217.65 1461.3 1185.01C1507.13 1169.5 1513.32 1155.16 1500.94 1122.82C1543.85 1098.15 1538.69 1087.91 1522.25 1070.53C1511.68 1041.43 1525.53 1022.44 1474.19 998.872C1470.15 977.405 1478.07 959.958 1414.73 970.046C1417.66 939.495 1414.62 926.047 1375.09 928.866C1334.36 912.86 1311.86 895.77 1269.05 928.866C1216 920.234 1197.75 930.501 1181.35 970.046Z" fill="#005158"/>
</g>
</g>
<g filter="url(#filter11_b_35_2096)">
<path d="M1522.08 18.5977C1540.57 -3.04864 1547.9 20.1779 1562.47 44.1422V348.895C1516.79 334.657 1483.21 327.363 1491.19 308.499C1462.54 313.547 1446.67 315.622 1422.87 301.964C1404.03 298.249 1404.45 282.36 1404.45 282.36C1404.45 282.36 1341.69 297.169 1367.03 282.36C1321 275.722 1319.37 271.217 1343.86 260.38C1313.99 266.783 1296.73 268.935 1264.26 268.103C1240.13 264.536 1224.1 264.637 1211.38 251.469C1201.74 242.927 1199.93 238.725 1219.11 234.835C1195.65 231.646 1191.76 227.386 1192.97 217.608C1206.21 197.234 1218.74 189.311 1270.79 195.627C1249.09 189.155 1241.84 184.183 1245.84 170.677C1257.26 154.938 1270.43 154.692 1297.52 158.796C1318.38 145.09 1333.22 151.289 1360.49 165.924C1346.71 150.698 1347.15 142.623 1374.16 129.687C1326.39 142.576 1301.94 143.467 1260.69 138.598C1240.73 136.168 1230.55 134.463 1240.49 121.964C1235.43 112.486 1239.96 108.768 1260.69 104.736C1227.86 105.299 1212.13 104.898 1192.97 101.766C1169.04 96.6868 1166.62 92.3809 1180.49 82.162C1174.38 66.5686 1183.4 64.0233 1219.11 69.0927C1209.22 59.0237 1252.97 69.0927 1252.97 69.0927C1252.97 69.0927 1272.11 52.9216 1297.52 62.5581C1287.42 55.5426 1281.03 51.6308 1285.64 44.1422C1294.91 20.0854 1309.36 26.3148 1330.2 26.9145C1354.55 3.46837 1366.78 15.3273 1389.6 18.5977C1406.16 9.38675 1415.88 12.312 1433.56 23.9442C1456.64 25.4301 1452.64 32.3755 1447.23 44.1422C1465.82 37.1752 1472.2 40.9864 1480.49 53.6472C1479.02 45.4204 1479.71 41.7138 1491.19 41.1719C1492 13.1068 1504.38 17.7696 1522.08 18.5977Z" fill="#386441"/>
</g>
<g filter="url(#filter12_b_35_2096)">
<path d="M1323.97 184.689C1369.51 177.137 1382.9 172.708 1364.37 164.126C1367.29 156.182 1373.48 153.438 1354.84 158.145C1371.54 152.296 1372.18 149.718 1357.02 135.891C1347.78 128.944 1343.36 131.512 1336.1 141.337C1336.24 134.447 1332.94 134.88 1324.35 139.107C1333.06 131.687 1334.92 127.913 1314.61 124.187C1303.35 122.471 1299.95 128.831 1293.51 139.198C1299.85 123.879 1301.74 115.896 1283.16 109.63C1275.19 99.9923 1270.54 94.9262 1250.07 109.249C1241.88 96.2992 1237.38 92.0488 1229.91 101.274C1222.01 91.4194 1216.44 92.0064 1201.6 119.221C1197.54 110.532 1192.05 111.911 1176.18 125.835C1166.98 121.297 1161.58 122.426 1150.95 139.277C1129.69 130.082 1115.9 122.073 1111.38 138.47C1090.87 146.262 1081.5 150.712 1090.83 159.685L1090.45 160.076C1080.36 170.664 1074.59 176.723 1109.05 174.512C1100.3 181.453 1108.38 187.284 1142.15 176.689C1127 191.158 1146.52 200.413 1158.63 198.836C1139.44 209.022 1150.95 211.115 1167.86 213.684C1171.35 217.132 1147.71 227.154 1188.55 221.833C1181.13 232.402 1194.87 223.972 1210.33 222.721C1227.86 227.629 1226.46 232.083 1252.47 220.444C1236.46 233.14 1294.7 229.692 1303.13 213.845C1358.03 203.478 1395.64 189.538 1365.66 184.888C1370.39 180.84 1340.41 185.514 1323.97 184.689Z" fill="#69933A"/>
</g>
<g filter="url(#filter13_f_35_2096)">
<path d="M254.5 254.037C266.488 251.037 264 254.037 259.093 256.745H262.814L264.488 254.888H269.326C274.871 246.996 279.008 248.095 287.5 252.037C278.254 250.187 274.464 252.987 274.907 258.046L278.628 260.646L295 265.662L276.953 262.875C270.901 264.778 268.953 264.176 265.977 260.646C254.768 264.399 248.917 265.958 241.233 279.037C242.163 269.192 245.685 264.712 260.581 258.603L256 257.037C246.912 259.194 242.321 257.835 238.5 260.037C240.675 257.651 247 256.745 254.5 254.037Z" fill="#046C6B"/>
</g>
<g filter="url(#filter14_f_35_2096)">
<path d="M208.811 308.566C215.807 305.69 216.515 305.795 213.993 309.35H216.585L217.751 308.043H221.12C226.473 304.768 228.695 306.22 233.558 307.39C228.375 307.782 226.115 308.616 225.007 310.265L227.598 312.095L239 315.625L226.432 313.664C222.217 315.002 220.86 314.579 218.787 312.095C210.899 316.041 206.738 318.501 201.555 325.037C202.203 318.109 204.656 314.956 215.03 310.657H212.309C205.98 312.176 202.661 313.029 200 314.579C201.515 312.9 203.074 312.636 208.811 308.566Z" fill="#046C6B"/>
</g>
<ellipse rx="23.4032" ry="6.10895" transform="matrix(0.985085 -0.172069 0.166398 0.986059 1370.71 758.902)" fill="#78861C"/>
<path d="M1359.01 810.994C1359.12 817.538 1359.92 823.327 1365.35 823.24C1370.79 823.153 1369.91 816.774 1369.8 810.23C1369.7 803.686 1373.17 800.346 1363.48 800.5C1358.04 800.587 1358.91 804.45 1359.01 810.994Z" fill="#AE8873"/>
<path d="M1390.52 807.452C1392.39 813.724 1393.37 819.486 1388.16 821.039C1382.95 822.592 1381.87 816.244 1380 809.972C1378.13 803.7 1373.81 801.56 1383.1 798.789C1388.31 797.236 1388.65 801.18 1390.52 807.452Z" fill="#AE8873"/>
<g filter="url(#filter15_d_35_2096)">
<path d="M1344.13 767.557C1346.06 767.121 1347.95 768.933 1349.35 769.863C1350.28 770.992 1351.08 772.675 1351.37 774.105C1351.55 774.986 1351.5 775.919 1351.67 776.797C1351.84 777.605 1352.01 778.36 1351.98 779.194C1351.95 780.199 1352.2 781.172 1352.21 782.173C1352.21 783.253 1352.26 784.383 1352.42 785.449C1352.74 787.521 1352.68 789.575 1352.79 791.663C1352.9 793.715 1352.81 795.783 1352.82 797.834C1352.82 799.689 1353.08 801.93 1351.94 803.511C1350.91 804.953 1348.22 804.423 1346.88 803.904C1344.68 803.048 1342.83 801.568 1340.96 800.164C1335.01 795.699 1329.63 789.031 1330.02 781.195C1330.12 779.141 1330.52 776.963 1331.95 775.388C1333.46 773.732 1334.82 771.949 1336.55 770.512C1337.96 769.34 1339.76 768.543 1341.54 768.141L1344.13 767.557Z" fill="#543A3A"/>
<path d="M1398.03 766.529C1396.1 767.569 1394.83 768.581 1393.2 770.039C1391.95 771.391 1391.83 773.129 1392.04 774.883C1392.31 777.026 1393.67 778.405 1395.82 778.524C1397.3 778.605 1399.33 777.777 1400.55 776.931C1402.24 775.756 1404.62 774.853 1405.74 773.046C1406.25 772.217 1406.94 771.426 1406.92 770.399C1406.91 769.386 1406.76 768.617 1406.5 767.642C1406 765.812 1404.64 765.049 1402.61 765.121C1400.69 765.189 1399.66 765.65 1398.03 766.529Z" fill="url(#paint0_linear_35_2096)"/>
<path d="M1348.1 775.126C1349.29 774.216 1349.78 773.132 1351.25 772.436C1355.58 772.36 1355.57 777.643 1354.74 780.124C1354.41 781.108 1353.38 781.903 1352.73 782.77C1351.99 783.76 1351.19 784.615 1350.33 785.53C1349.25 786.684 1347.19 787.992 1345.36 787.959C1343.57 787.928 1340.7 788.292 1339.97 786.462C1339.25 784.674 1339.81 782.698 1341.18 781.112C1342.54 779.522 1344.23 778.439 1345.79 777.023C1346.53 776.351 1347.29 775.743 1348.1 775.126Z" fill="url(#paint1_linear_35_2096)"/>
<path d="M1381.05 745.666C1374.04 742.458 1369.11 741.974 1361.77 747.054C1356.43 749.323 1353.81 756.916 1353.14 759.195C1352.57 761.123 1351.73 762.956 1351.27 764.935C1350.63 767.676 1349.96 770.363 1349.52 773.159C1348.68 778.478 1347.92 783.817 1348.13 789.264C1348.29 793.26 1348.79 797.24 1349.49 801.189C1349.9 803.433 1350.66 805.837 1352.4 807.242C1354.21 808.701 1355.83 809.833 1357.89 810.778C1361.71 812.524 1365.74 813.547 1369.84 813.742C1373.65 813.923 1377.56 814.027 1381.31 813.448C1383.01 813.187 1384.66 812.763 1386.31 812.321C1387.77 811.93 1388.92 811.07 1390.29 810.504C1392.36 809.649 1393.81 807.703 1395.07 805.819C1396.41 803.804 1397.5 801.852 1397.98 799.351C1398.61 796.076 1398.95 792.829 1398.43 789.449C1398.14 787.583 1398 785.674 1397.71 783.79C1397.41 781.835 1396.96 779.933 1396.66 777.972C1395.99 773.629 1395.15 769.027 1393.62 764.918C1393.03 763.335 1392.68 761.442 1391.83 759.993C1391.46 759.35 1391.11 758.426 1390.85 757.717C1390.48 756.711 1389.86 755.798 1389.39 754.841C1388.37 752.766 1386.9 750.887 1385.43 749.192C1384.28 747.872 1382.61 746.378 1381.05 745.666Z" fill="url(#paint2_linear_35_2096)"/>
<path d="M1370.89 765.875C1371.43 765.37 1372.43 765.305 1373.17 765.299C1374.41 765.976 1373.12 767.404 1371.81 766.969C1371.32 766.808 1370.26 766.455 1370.89 765.875Z" fill="#372831" stroke="#372831" stroke-width="2" stroke-linecap="round"/>
<path d="M1371.52 771.532C1371.41 770.956 1371.34 770.374 1371.25 769.796C1371.71 769.408 1372.32 768.935 1372.68 768.483C1373.11 767.96 1373.59 768.433 1374.08 768.58C1374.65 768.752 1374.9 768.898 1374.99 769.471C1375.06 769.97 1375.17 770.512 1375.24 770.958C1375.45 771.56 1374.85 771.799 1374.26 771.889L1372.66 772.135C1372.19 772.121 1371.6 772.011 1371.52 771.532Z" fill="#E0D0C1"/>
<path d="M1367.2 770.255C1369.34 771.174 1372.76 769.787 1372.78 767.325C1373.66 769.369 1376.3 770.341 1378.82 768.045" stroke="#372831" stroke-linecap="round"/>
</g>
<path d="M1366.43 761.781C1366.67 763.384 1365.82 764.847 1364.7 765.019C1363.57 765.192 1362.36 764.346 1362.12 762.742C1361.87 761.139 1362.68 759.386 1363.8 759.214C1364.92 759.041 1366.18 760.178 1366.43 761.781Z" fill="#372831"/>
<path d="M1380.65 759.589C1380.9 761.192 1380.04 762.654 1378.92 762.827C1377.8 763 1376.59 762.153 1376.34 760.55C1376.09 758.947 1376.9 757.194 1378.03 757.021C1379.15 756.848 1380.4 757.985 1380.65 759.589Z" fill="#372831"/>
<path d="M1387.21 747.684C1386.99 746.361 1382.3 739.131 1381.2 738.064C1379.4 737.417 1376.03 736.478 1367.29 737.743C1358.55 739.008 1356.04 742.033 1354.55 743.256C1353.86 744.635 1351.48 752.562 1351.71 753.885C1351.71 753.885 1360.65 750.306 1369.06 749.089C1377.47 747.872 1387.21 747.684 1387.21 747.684Z" fill="#8F9D2F"/>
<path d="M1393.76 754.875C1393.56 753.698 1388.02 747.508 1386.68 746.623C1384.4 746.165 1380.12 745.553 1368.79 747.3C1357.46 749.047 1354.02 751.947 1352.02 753.154C1351.05 754.443 1347.46 761.752 1347.65 762.929C1347.65 762.929 1359.08 756.738 1369.99 755.057C1380.89 753.376 1393.76 754.875 1393.76 754.875Z" fill="#8F9D2F"/>
<path d="M1354.79 755.699C1352.24 756.64 1350.04 754.245 1348.68 752.35C1347.71 750.462 1349.01 748.789 1350.65 748.048C1352.59 747.173 1356.19 749.057 1356.9 751.082C1357.16 751.8 1356.46 751.987 1356.06 752.707C1355.63 753.493 1355.67 755.372 1354.79 755.699Z" fill="#AE8873"/>
<path d="M1385.48 743.022C1383.42 743.577 1381.12 746.404 1381.4 748.573C1381.73 750.689 1383.48 752.186 1385.69 751.274C1386.81 750.811 1387.82 750.061 1388.54 749.071C1389.1 748.311 1389.9 747.28 1389.84 746.274C1389.69 744.006 1387.64 742.439 1385.48 743.022Z" fill="#AE8873"/>
<g filter="url(#filter16_d_35_2096)">
<path d="M115.519 307.076C92.6323 326.263 114.745 348.622 114.745 348.622C114.745 348.622 120.449 355.122 120.78 349.193C121.112 343.264 138.342 322.418 115.519 307.076Z" fill="#47BE6C"/>
<path d="M115.519 307.076C92.6323 326.263 114.745 348.622 114.745 348.622C114.745 348.622 120.449 355.122 120.78 349.193C121.112 343.264 138.342 322.418 115.519 307.076Z" stroke="#6CB236" stroke-width="1.11776"/>
</g>
<g filter="url(#filter17_d_35_2096)">
<path d="M159.767 274.318C136.88 293.504 158.993 315.863 158.993 315.863C158.993 315.863 164.697 322.363 165.028 316.434C165.36 310.505 182.59 289.659 159.767 274.318Z" fill="#47BE6C"/>
<path d="M159.767 274.318C136.88 293.504 158.993 315.863 158.993 315.863C158.993 315.863 164.697 322.363 165.028 316.434C165.36 310.505 182.59 289.659 159.767 274.318Z" stroke="#6CB236" stroke-width="1.11776"/>
</g>
<g filter="url(#filter18_d_35_2096)">
<path d="M33.572 325.682C10.685 344.869 32.798 367.228 32.798 367.228C32.798 367.228 38.5012 373.728 38.8332 367.799C39.1651 361.87 56.395 341.024 33.572 325.682Z" fill="#47BE6C"/>
<path d="M33.572 325.682C10.685 344.869 32.798 367.228 32.798 367.228C32.798 367.228 38.5012 373.728 38.8332 367.799C39.1651 361.87 56.395 341.024 33.572 325.682Z" stroke="#6CB236" stroke-width="1.11776"/>
</g>
<g filter="url(#filter19_d_35_2096)">
<path d="M191.58 242.729C183.273 271.765 150.725 257.202 150.725 257.202C150.725 257.202 141.603 253.688 147.33 251.403C153.057 249.118 165.661 225.147 191.58 242.729Z" fill="#47BE6C"/>
<path d="M191.58 242.729C183.273 271.765 150.725 257.202 150.725 257.202C150.725 257.202 141.603 253.688 147.33 251.403C153.057 249.118 165.661 225.147 191.58 242.729Z" stroke="#6CB236" stroke-width="1.11776"/>
</g>
<g filter="url(#filter20_d_35_2096)">
<path d="M133.099 287.627C124.793 316.663 92.245 302.1 92.245 302.1C92.245 302.1 83.1229 298.586 88.8495 296.301C94.5762 294.016 107.181 270.045 133.099 287.627Z" fill="#47BE6C"/>
<path d="M133.099 287.627C124.793 316.663 92.245 302.1 92.245 302.1C92.245 302.1 83.1229 298.586 88.8495 296.301C94.5762 294.016 107.181 270.045 133.099 287.627Z" stroke="#6CB236" stroke-width="1.11776"/>
</g>
<path d="M-13.9993 267C-3.49928 331.5 59.4998 381.864 218.383 218.2" stroke="#6CB236" stroke-width="5.5888" stroke-linecap="round"/>
<g filter="url(#filter21_d_35_2096)">
<path d="M1340.66 -49.7968C1268.22 -51.2168 1229.15 -100.54 1154.27 -24.9909C1116.74 -33.9003 1095.92 -43.4505 1056.29 -8.98436C1022.39 -34.6658 983.899 -43.1788 975.162 -16.0919C933.624 -16.8987 905.64 -71.071 897.5 -44.7555C881.319 -72.8096 875.589 -16.5562 837.623 -4.23521C803.518 -11.4674 777.195 -77.0805 785 -52.8207C762.202 -65.0683 741.878 -130.815 720.239 -89.073C703.065 -120.845 708.127 -63.7087 662.645 -44.7555C610.994 -89.721 601.346 -25.8757 582.974 -8.50192C557.399 -14.7336 543.577 -18.3134 531.058 -14.1848C518.851 -10.1591 510.283 -14.6948 502.233 -0.360847C465.177 -54.669 436.022 -63.4228 380.952 -52.8207C342.709 -69.4837 319.765 -73.1539 285.064 -52.0092C268.292 -84.5552 251.276 -89.3313 212.893 -83.6372C181.648 -109.978 170.018 -132.529 107.568 -117.629C72.9659 -137.215 59.016 -136.996 42.6743 -119.031C47.8392 -156.101 40.0145 -169.978 -4.18498 -175.238C-33.3387 -177.962 -47.701 -176.087 -67.3999 -162.6L-118.121 -177.7L-156.567 -164.526L-165.365 242.652C-156.144 278.863 -148.989 295.862 -105.092 274.435C-71.8979 280.619 -65.5917 272.584 -56.6228 256.123C-64.7176 300.618 -43.8194 291.201 -14.1212 284.639C29.4157 281.972 49.564 276.881 61.5164 247.554C108.207 263.237 134.375 273.431 181.462 224.196C258.231 219.056 278.75 205.135 300.031 172.799C361.835 193.944 380.812 181.607 405.204 145.003C448.8 154.309 470.683 148.765 508.076 131.985C525.046 146.478 540.965 147.789 577.25 141.718C589.106 181.11 608.397 188.959 662.645 180.634C679.059 212.918 693.525 209.195 720.239 198.766C718.451 213.792 718.749 221.761 752.895 224.186C771.544 240.096 782.138 237.183 801.302 208.756C822.488 234.475 843.371 232.303 885.833 218.82C923.523 240.988 937.414 226.581 965.271 212.299C988.51 206.825 1001.08 203.471 985.922 174.026C1007.35 185.663 1019.75 188.707 1043.88 175.278C1067.41 158.096 1074.29 149.574 1071.44 138.391C1074.18 149.159 1080.46 146.846 1102.52 144.829C1129.26 174.984 1140.75 163.039 1163.62 161.39C1197.82 173.224 1206.06 165.039 1218.44 147.334C1226.55 191.069 1247.66 199.233 1295.02 204.183C1317.11 216.588 1329.15 213.358 1350.22 195.49C1357.32 223.255 1368.08 228.908 1399.22 221.675C1435.95 231.708 1453.15 232.765 1463.95 207.833C1475.5 229.434 1485.35 230.251 1505.23 223.965C1524.36 233.684 1535.08 238.779 1553.46 216.769C1612.39 219.648 1616.31 203.824 1615.9 171.162C1662.05 156.643 1668.54 142.446 1656.87 109.85C1700.3 86.1086 1695.37 75.7558 1679.3 58.0236C1669.37 28.7071 1683.62 10.0197 1632.8 -14.6516C1629.23 -36.2004 1637.52 -53.4728 1573.98 -44.7555C1577.57 -75.2356 1574.82 -88.7467 1535.24 -86.7825C1494.86 -103.664 1472.74 -121.237 1429.23 -89.073C1376.37 -98.8488 1357.9 -88.9788 1340.66 -49.7968Z" fill="#014C58"/>
</g>
<g filter="url(#filter22_d_35_2096)">
<path d="M1535.86 1048.19C1487.03 947.788 1473.72 935.799 1431.41 883.012C1473.8 948.996 1499.28 985.125 1533.17 1055.42L1535.86 1048.19Z" fill="#6CB236"/>
<path d="M1347.59 877.166C1377.39 815.544 1427.17 852.904 1427.81 882.675C1437.25 848.638 1446.51 850.395 1464.26 859.969C1470.2 865.527 1471.38 872.213 1470.47 889.139C1468.56 919.216 1462.33 925.737 1452.5 939.935C1449.02 910.306 1444.35 902.352 1430.27 906.526C1444.37 915.491 1447.36 925.508 1446.68 949.46C1439.37 962.787 1432.54 969.056 1413.13 977.019C1425.48 966.121 1430.46 960.213 1426.82 950.965C1418.11 928.388 1414.2 923.369 1410.01 936.271C1420.97 954.81 1416.71 965.753 1401.78 985.661C1398.01 988.623 1394.65 991.168 1391.35 993.323C1392.25 968.069 1391.3 957.854 1380.5 964.435C1385.59 975.565 1384.96 983.393 1377.79 999.923C1372.49 1001.6 1366.45 1002.54 1358.71 1002.82C1355.53 996.083 1344.53 985.622 1344.44 971.364C1375.63 951.521 1381.95 948.704 1375.46 948.1C1368.96 947.497 1353.96 951.144 1337.57 961.612L1337.55 961.493C1336.45 954.704 1335.83 950.861 1349.45 941.067C1403.69 914.927 1402.94 912.41 1387.71 914.273C1366.01 920.596 1346.66 923.909 1336.64 931.62C1336.64 931.62 1334.33 927.306 1337.12 920.442C1338.08 914.467 1364.32 902.713 1393.44 896.231C1372.44 893.261 1361.88 887.513 1334.95 904.34C1329.46 898.761 1331.43 894.073 1344.18 883.143C1361.52 875.7 1371.79 873.849 1391.24 875.508C1375.65 866.877 1366.61 864.226 1347.59 877.166Z" fill="#27844C"/>
<path d="M1362.42 994.873C1372.19 963.361 1387.54 939.012 1418.99 890.609C1421.89 886.067 1423.6 885.382 1426.7 885.518C1397.88 928.618 1383.45 949.742 1362.42 994.873Z" fill="#6CB236"/>
</g>
<path d="M1199.99 1120.41C1127.56 1118.99 1088.48 1069.67 1013.6 1145.22C976.076 1136.31 955.256 1126.76 915.623 1161.22C881.723 1135.54 843.235 1127.03 834.498 1154.12C792.96 1153.31 775.582 1157.66 767.441 1183.97C751.26 1155.92 734.925 1153.65 696.959 1165.97C662.854 1158.74 647.187 1157.28 654.991 1181.54C632.193 1169.29 619.527 1167.81 597.887 1209.55L597.713 1209.23C580.648 1177.66 571.027 1159.86 525.699 1178.75C474.048 1133.78 460.682 1144.33 442.31 1161.71C416.735 1155.47 402.912 1151.89 390.394 1156.02C378.187 1160.05 369.619 1155.51 361.569 1169.85C324.513 1115.54 295.358 1106.79 240.288 1117.39C202.045 1100.72 179.101 1097.05 144.4 1118.2C127.628 1085.65 110.612 1080.88 72.2293 1086.57C40.9841 1060.23 29.3535 1037.68 -33.0957 1052.58C-67.6982 1032.99 -81.6481 1033.21 -97.9898 1051.18C-92.8248 1014.11 -100.65 1000.23 -144.849 994.97C-174.003 992.246 -188.365 994.121 -208.064 1007.61L-258.785 992.508L-297.231 1005.68L-306.029 1412.86C-296.808 1449.07 -289.653 1466.07 -245.756 1444.64C-212.562 1450.83 -206.256 1442.79 -197.287 1426.33C-205.382 1470.83 -184.483 1461.41 -154.785 1454.85C-111.248 1452.18 -91.1001 1447.09 -79.1477 1417.76C-32.4573 1433.45 -6.28869 1443.64 40.7979 1394.4C117.567 1389.26 138.086 1375.34 159.367 1343.01C221.17 1364.15 240.148 1351.81 264.54 1315.21C308.136 1324.52 330.019 1318.97 367.412 1302.19C384.382 1316.69 400.301 1318 436.586 1311.93C448.441 1351.32 467.733 1359.17 521.981 1350.84C538.395 1383.13 552.861 1379.4 579.574 1368.97C577.787 1384 578.085 1391.97 612.231 1394.39C630.88 1410.3 641.473 1407.39 660.638 1378.96C681.824 1404.68 702.707 1402.51 745.169 1389.03C782.859 1411.2 796.75 1396.79 824.607 1382.51C847.846 1377.03 860.419 1373.68 845.258 1344.23C866.69 1355.87 879.082 1358.92 903.217 1345.49C926.743 1328.3 933.623 1319.78 930.776 1308.6C933.517 1319.37 939.8 1317.05 961.86 1315.04C988.592 1345.19 1000.08 1333.25 1022.96 1331.6C1057.16 1343.43 1065.39 1335.25 1077.78 1317.54C1085.89 1361.28 1106.99 1369.44 1154.36 1374.39C1176.44 1386.8 1188.48 1383.57 1209.56 1365.7C1216.65 1393.46 1227.42 1399.12 1258.55 1391.88C1295.28 1401.92 1312.49 1402.97 1323.28 1378.04C1334.84 1399.64 1344.68 1400.46 1364.56 1394.17C1383.7 1403.89 1394.41 1408.99 1412.79 1386.98C1471.72 1389.86 1475.65 1374.03 1475.23 1341.37C1521.39 1326.85 1527.88 1312.65 1516.21 1280.06C1559.64 1256.32 1554.7 1245.96 1538.64 1228.23C1528.7 1198.92 1542.96 1180.23 1492.13 1155.56C1488.57 1134.01 1496.86 1116.74 1433.31 1125.45C1436.9 1094.97 1434.16 1081.46 1394.57 1083.43C1354.19 1066.54 1332.08 1048.97 1288.56 1081.14C1235.7 1071.36 1217.24 1081.23 1199.99 1120.41Z" fill="#002F4D"/>
<path d="M1013.6 1145.22C1088.48 1069.67 1127.56 1118.99 1199.99 1120.41C1217.24 1081.23 1235.7 1071.36 1288.56 1081.14C1332.08 1048.97 1354.19 1066.54 1394.57 1083.43C1434.16 1081.46 1436.9 1094.97 1433.31 1125.45C1496.86 1116.74 1488.57 1134.01 1492.13 1155.56C1542.96 1180.23 1528.7 1198.92 1538.64 1228.23C1554.7 1245.96 1559.64 1256.32 1516.21 1280.06C1527.88 1312.65 1521.39 1326.85 1475.23 1341.37C1475.65 1374.03 1471.72 1389.86 1412.79 1386.98C1394.41 1408.99 1383.7 1403.89 1364.56 1394.17C1344.68 1400.46 1340.05 1434.46 1328.5 1412.86C1317.71 1437.79 1295.28 1401.92 1258.55 1391.88C1227.42 1399.12 1221.09 1440.63 1214 1412.86C1192.92 1430.73 1176.58 1425.27 1154.5 1412.86C1107.13 1407.91 1098.61 1461.5 1090.5 1417.76C1078.11 1435.47 1076.2 1403.72 1042 1391.88C1019.12 1393.53 1040.34 1447.92 1013.6 1417.76C991.543 1419.78 978.741 1437.1 976 1426.33C978.846 1437.51 954.303 1395.68 930.776 1412.86C906.642 1426.29 912.933 1437.97 891.5 1426.33C906.661 1455.78 847.846 1377.03 824.607 1382.51C796.75 1396.79 805.131 1439.93 767.441 1417.76C724.979 1431.25 698.186 1443.48 677 1417.76C657.836 1446.19 630.88 1410.3 612.231 1394.39C584.331 1392.41 591.255 1437.25 595.696 1445.52C596.428 1445.22 597.158 1444.93 597.887 1444.64C597.56 1447.39 596.69 1447.37 595.696 1445.52C569.597 1456.22 541.666 1476.05 525.699 1444.64C471.451 1452.97 454.165 1457.15 442.31 1417.76C406.024 1423.83 394.47 1459.14 377.5 1444.64C340.108 1461.42 328.096 1453.95 284.5 1444.64C260.108 1481.25 206.204 1438.91 144.4 1417.76C123.119 1450.1 117.567 1389.26 40.7979 1394.4C-6.28869 1443.64 -32.4573 1433.45 -79.1477 1417.76C-91.1001 1447.09 -111.248 1452.18 -154.785 1454.85C-184.483 1461.41 -205.382 1470.83 -197.287 1426.33C-206.256 1442.79 -212.562 1450.83 -245.756 1444.64C-289.653 1466.07 -296.808 1449.07 -306.029 1412.86L-297.231 1005.68L-258.785 992.508L-208.064 1007.61C-188.365 994.121 -174.003 992.246 -144.849 994.97C-100.65 1000.23 -92.8248 1014.11 -97.9898 1051.18C-81.6481 1033.21 -67.6982 1032.99 -33.0957 1052.58C29.3535 1037.68 40.9841 1060.23 72.2293 1086.57C110.612 1080.88 127.628 1085.65 144.4 1118.2C179.101 1097.05 202.045 1100.72 240.288 1117.39C295.358 1106.79 324.513 1115.54 361.569 1169.85C369.619 1155.51 378.187 1160.05 390.394 1156.02C402.912 1151.89 416.735 1155.47 442.31 1161.71C460.682 1144.33 474.048 1133.78 525.699 1178.75C571.027 1159.86 580.648 1177.66 597.713 1209.23L597.887 1209.55C619.527 1167.81 632.193 1169.29 654.991 1181.54C647.187 1157.28 662.854 1158.74 696.959 1165.97C734.925 1153.65 751.26 1155.92 767.441 1183.97C775.582 1157.66 792.96 1153.31 834.498 1154.12C843.235 1127.03 881.723 1135.54 915.623 1161.22C955.256 1126.76 976.076 1136.31 1013.6 1145.22Z" fill="#002F4D"/>
<g filter="url(#filter23_f_35_2096)">
<path d="M1344.55 380.875C1355.32 376.47 1356.41 376.63 1352.53 382.076H1356.51L1358.31 380.074H1363.49C1371.73 375.056 1375.15 377.282 1382.63 379.073C1374.65 379.673 1371.18 380.952 1369.47 383.478L1373.46 386.282L1391 391.689L1371.66 388.685C1365.18 390.736 1363.09 390.087 1359.9 386.282C1347.77 392.327 1341.37 396.096 1333.39 406.109C1334.39 395.495 1338.16 390.666 1354.12 384.079H1349.94C1340.2 386.405 1335.09 387.713 1331 390.087C1333.33 387.516 1335.73 387.11 1344.55 380.875Z" fill="#046C6B"/>
</g>
</g>
<defs>
<filter id="filter0_d_35_2096" x="570.485" y="764.079" width="330.788" height="296.153" filterUnits="userSpaceOnUse" color-interpolation-filters="sRGB">
<feFlood flood-opacity="0" result="BackgroundImageFix"/>
<feColorMatrix in="SourceAlpha" type="matrix" values="0 0 0 0 0 0 0 0 0 0 0 0 0 0 0 0 0 0 127 0" result="hardAlpha"/>
<feOffset dy="1.74956"/>
<feGaussianBlur stdDeviation="0.874781"/>
<feComposite in2="hardAlpha" operator="out"/>
<feColorMatrix type="matrix" values="0 0 0 0 0.533333 0 0 0 0 0.733333 0 0 0 0 0.760784 0 0 0 1 0"/>
<feBlend mode="normal" in2="BackgroundImageFix" result="effect1_dropShadow_35_2096"/>
<feBlend mode="normal" in="SourceGraphic" in2="effect1_dropShadow_35_2096" result="shape"/>
</filter>
<filter id="filter1_d_35_2096" x="567.86" y="764.079" width="336.037" height="301.402" filterUnits="userSpaceOnUse" color-interpolation-filters="sRGB">
<feFlood flood-opacity="0" result="BackgroundImageFix"/>
<feColorMatrix in="SourceAlpha" type="matrix" values="0 0 0 0 0 0 0 0 0 0 0 0 0 0 0 0 0 0 127 0" result="hardAlpha"/>
<feOffset dy="4.3739"/>
<feGaussianBlur stdDeviation="2.18695"/>
<feComposite in2="hardAlpha" operator="out"/>
<feColorMatrix type="matrix" values="0 0 0 0 0 0 0 0 0 0 0 0 0 0 0 0 0 0 0.25 0"/>
<feBlend mode="normal" in2="BackgroundImageFix" result="effect1_dropShadow_35_2096"/>
<feBlend mode="normal" in="SourceGraphic" in2="effect1_dropShadow_35_2096" result="shape"/>
</filter>
<filter id="filter2_d_35_2096" x="-64.0011" y="642.951" width="249.233" height="381.843" filterUnits="userSpaceOnUse" color-interpolation-filters="sRGB">
<feFlood flood-opacity="0" result="BackgroundImageFix"/>
<feColorMatrix in="SourceAlpha" type="matrix" values="0 0 0 0 0 0 0 0 0 0 0 0 0 0 0 0 0 0 127 0" result="hardAlpha"/>
<feOffset dy="3.43077"/>
<feGaussianBlur stdDeviation="1.71539"/>
<feComposite in2="hardAlpha" operator="out"/>
<feColorMatrix type="matrix" values="0 0 0 0 0 0 0 0 0 0 0 0 0 0 0 0 0 0 0.25 0"/>
<feBlend mode="normal" in2="BackgroundImageFix" result="effect1_dropShadow_35_2096"/>
<feBlend mode="normal" in="SourceGraphic" in2="effect1_dropShadow_35_2096" result="shape"/>
</filter>
<filter id="filter3_f_35_2096" x="703" y="68" width="564" height="197" filterUnits="userSpaceOnUse" color-interpolation-filters="sRGB">
<feFlood flood-opacity="0" result="BackgroundImageFix"/>
<feBlend mode="normal" in="SourceGraphic" in2="BackgroundImageFix" result="shape"/>
<feGaussianBlur stdDeviation="2" result="effect1_foregroundBlur_35_2096"/>
</filter>
<filter id="filter4_f_35_2096" x="208.533" y="-104.338" width="574.096" height="366.604" filterUnits="userSpaceOnUse" color-interpolation-filters="sRGB">
<feFlood flood-opacity="0" result="BackgroundImageFix"/>
<feBlend mode="normal" in="SourceGraphic" in2="BackgroundImageFix" result="shape"/>
<feGaussianBlur stdDeviation="2" result="effect1_foregroundBlur_35_2096"/>
</filter>
<filter id="filter5_d_35_2096" x="222.095" y="829.573" width="200.566" height="237.304" filterUnits="userSpaceOnUse" color-interpolation-filters="sRGB">
<feFlood flood-opacity="0" result="BackgroundImageFix"/>
<feColorMatrix in="SourceAlpha" type="matrix" values="0 0 0 0 0 0 0 0 0 0 0 0 0 0 0 0 0 0 127 0" result="hardAlpha"/>
<feOffset dy="4.08692"/>
<feGaussianBlur stdDeviation="2.04346"/>
<feComposite in2="hardAlpha" operator="out"/>
<feColorMatrix type="matrix" values="0 0 0 0 0 0 0 0 0 0 0 0 0 0 0 0 0 0 0.25 0"/>
<feBlend mode="normal" in2="BackgroundImageFix" result="effect1_dropShadow_35_2096"/>
<feBlend mode="normal" in="SourceGraphic" in2="effect1_dropShadow_35_2096" result="shape"/>
</filter>
<filter id="filter6_d_35_2096" x="1035.15" y="880.598" width="160.689" height="237.323" filterUnits="userSpaceOnUse" color-interpolation-filters="sRGB">
<feFlood flood-opacity="0" result="BackgroundImageFix"/>
<feColorMatrix in="SourceAlpha" type="matrix" values="0 0 0 0 0 0 0 0 0 0 0 0 0 0 0 0 0 0 127 0" result="hardAlpha"/>
<feOffset dy="4.08692"/>
<feGaussianBlur stdDeviation="2.04346"/>
<feComposite in2="hardAlpha" operator="out"/>
<feColorMatrix type="matrix" values="0 0 0 0 0 0 0 0 0 0 0 0 0 0 0 0 0 0 0.25 0"/>
<feBlend mode="normal" in2="BackgroundImageFix" result="effect1_dropShadow_35_2096"/>
<feBlend mode="normal" in="SourceGraphic" in2="effect1_dropShadow_35_2096" result="shape"/>
</filter>
<filter id="filter7_d_35_2096" x="54.6649" y="845.292" width="191.047" height="247.202" filterUnits="userSpaceOnUse" color-interpolation-filters="sRGB">
<feFlood flood-opacity="0" result="BackgroundImageFix"/>
<feColorMatrix in="SourceAlpha" type="matrix" values="0 0 0 0 0 0 0 0 0 0 0 0 0 0 0 0 0 0 127 0" result="hardAlpha"/>
<feOffset dy="3.43077"/>
<feGaussianBlur stdDeviation="1.71539"/>
<feComposite in2="hardAlpha" operator="out"/>
<feColorMatrix type="matrix" values="0 0 0 0 0 0 0 0 0 0 0 0 0 0 0 0 0 0 0.25 0"/>
<feBlend mode="normal" in2="BackgroundImageFix" result="effect1_dropShadow_35_2096"/>
<feBlend mode="normal" in="SourceGraphic" in2="effect1_dropShadow_35_2096" result="shape"/>
</filter>
<filter id="filter8_d_35_2096" x="-10.7642" y="800.106" width="111.442" height="338.058" filterUnits="userSpaceOnUse" color-interpolation-filters="sRGB">
<feFlood flood-opacity="0" result="BackgroundImageFix"/>
<feColorMatrix in="SourceAlpha" type="matrix" values="0 0 0 0 0 0 0 0 0 0 0 0 0 0 0 0 0 0 127 0" result="hardAlpha"/>
<feOffset dy="4.75248"/>
<feGaussianBlur stdDeviation="2.37624"/>
<feComposite in2="hardAlpha" operator="out"/>
<feColorMatrix type="matrix" values="0 0 0 0 0 0 0 0 0 0 0 0 0 0 0 0 0 0 0.25 0"/>
<feBlend mode="normal" in2="BackgroundImageFix" result="effect1_dropShadow_35_2096"/>
<feBlend mode="normal" in="SourceGraphic" in2="effect1_dropShadow_35_2096" result="shape"/>
</filter>
<filter id="filter9_d_35_2096" x="-322.752" y="873" width="1861.78" height="476.436" filterUnits="userSpaceOnUse" color-interpolation-filters="sRGB">
<feFlood flood-opacity="0" result="BackgroundImageFix"/>
<feColorMatrix in="SourceAlpha" type="matrix" values="0 0 0 0 0 0 0 0 0 0 0 0 0 0 0 0 0 0 127 0" result="hardAlpha"/>
<feOffset dy="4.75248"/>
<feGaussianBlur stdDeviation="2.37624"/>
<feComposite in2="hardAlpha" operator="out"/>
<feColorMatrix type="matrix" values="0 0 0 0 0 0 0 0 0 0 0 0 0 0 0 0 0 0 0.25 0"/>
<feBlend mode="normal" in2="BackgroundImageFix" result="effect1_dropShadow_35_2096"/>
<feBlend mode="normal" in="SourceGraphic" in2="effect1_dropShadow_35_2096" result="shape"/>
</filter>
<filter id="filter10_i_35_2096" x="-318" y="873" width="1852.28" height="470.931" filterUnits="userSpaceOnUse" color-interpolation-filters="sRGB">
<feFlood flood-opacity="0" result="BackgroundImageFix"/>
<feBlend mode="normal" in="SourceGraphic" in2="BackgroundImageFix" result="shape"/>
<feColorMatrix in="SourceAlpha" type="matrix" values="0 0 0 0 0 0 0 0 0 0 0 0 0 0 0 0 0 0 127 0" result="hardAlpha"/>
<feOffset dy="5"/>
<feGaussianBlur stdDeviation="2"/>
<feComposite in2="hardAlpha" operator="arithmetic" k2="-1" k3="1"/>
<feColorMatrix type="matrix" values="0 0 0 0 0.976471 0 0 0 0 0.87451 0 0 0 0 0.639216 0 0 0 0.25 0"/>
<feBlend mode="normal" in2="shape" result="effect1_innerShadow_35_2096"/>
</filter>
<filter id="filter11_b_35_2096" x="1167.25" y="5.24752" width="399.978" height="348.399" filterUnits="userSpaceOnUse" color-interpolation-filters="sRGB">
<feFlood flood-opacity="0" result="BackgroundImageFix"/>
<feGaussianBlur in="BackgroundImage" stdDeviation="2.37624"/>
<feComposite in2="SourceAlpha" operator="in" result="effect1_backgroundBlur_35_2096"/>
<feBlend mode="normal" in="SourceGraphic" in2="effect1_backgroundBlur_35_2096" result="shape"/>
</filter>
<filter id="filter12_b_35_2096" x="1078.69" y="91.4434" width="301.578" height="140.734" filterUnits="userSpaceOnUse" color-interpolation-filters="sRGB">
<feFlood flood-opacity="0" result="BackgroundImageFix"/>
<feGaussianBlur in="BackgroundImage" stdDeviation="2"/>
<feComposite in2="SourceAlpha" operator="in" result="effect1_backgroundBlur_35_2096"/>
<feBlend mode="normal" in="SourceGraphic" in2="effect1_backgroundBlur_35_2096" result="shape"/>
</filter>
<filter id="filter13_f_35_2096" x="234.5" y="245" width="64.5" height="38.0366" filterUnits="userSpaceOnUse" color-interpolation-filters="sRGB">
<feFlood flood-opacity="0" result="BackgroundImageFix"/>
<feBlend mode="normal" in="SourceGraphic" in2="BackgroundImageFix" result="shape"/>
<feGaussianBlur stdDeviation="2" result="effect1_foregroundBlur_35_2096"/>
</filter>
<filter id="filter14_f_35_2096" x="196" y="302.037" width="47" height="27" filterUnits="userSpaceOnUse" color-interpolation-filters="sRGB">
<feFlood flood-opacity="0" result="BackgroundImageFix"/>
<feBlend mode="normal" in="SourceGraphic" in2="BackgroundImageFix" result="shape"/>
<feGaussianBlur stdDeviation="2" result="effect1_foregroundBlur_35_2096"/>
</filter>
<filter id="filter15_d_35_2096" x="1326" y="743.243" width="84.9277" height="78.6418" filterUnits="userSpaceOnUse" color-interpolation-filters="sRGB">
<feFlood flood-opacity="0" result="BackgroundImageFix"/>
<feColorMatrix in="SourceAlpha" type="matrix" values="0 0 0 0 0 0 0 0 0 0 0 0 0 0 0 0 0 0 127 0" result="hardAlpha"/>
<feOffset dy="4"/>
<feGaussianBlur stdDeviation="2"/>
<feComposite in2="hardAlpha" operator="out"/>
<feColorMatrix type="matrix" values="0 0 0 0 0 0 0 0 0 0 0 0 0 0 0 0 0 0 0.25 0"/>
<feBlend mode="normal" in2="BackgroundImageFix" result="effect1_dropShadow_35_2096"/>
<feBlend mode="normal" in="SourceGraphic" in2="effect1_dropShadow_35_2096" result="shape"/>
</filter>
<filter id="filter16_d_35_2096" x="102.348" y="306.378" width="27.7718" height="50.3397" filterUnits="userSpaceOnUse" color-interpolation-filters="sRGB">
<feFlood flood-opacity="0" result="BackgroundImageFix"/>
<feColorMatrix in="SourceAlpha" type="matrix" values="0 0 0 0 0 0 0 0 0 0 0 0 0 0 0 0 0 0 127 0" result="hardAlpha"/>
<feOffset dy="2.23552"/>
<feGaussianBlur stdDeviation="1.11776"/>
<feComposite in2="hardAlpha" operator="out"/>
<feColorMatrix type="matrix" values="0 0 0 0 0 0 0 0 0 0 0 0 0 0 0 0 0 0 0.25 0"/>
<feBlend mode="normal" in2="BackgroundImageFix" result="effect1_dropShadow_35_2096"/>
<feBlend mode="normal" in="SourceGraphic" in2="effect1_dropShadow_35_2096" result="shape"/>
</filter>
<filter id="filter17_d_35_2096" x="146.597" y="273.619" width="27.7718" height="50.3397" filterUnits="userSpaceOnUse" color-interpolation-filters="sRGB">
<feFlood flood-opacity="0" result="BackgroundImageFix"/>
<feColorMatrix in="SourceAlpha" type="matrix" values="0 0 0 0 0 0 0 0 0 0 0 0 0 0 0 0 0 0 127 0" result="hardAlpha"/>
<feOffset dy="2.23552"/>
<feGaussianBlur stdDeviation="1.11776"/>
<feComposite in2="hardAlpha" operator="out"/>
<feColorMatrix type="matrix" values="0 0 0 0 0 0 0 0 0 0 0 0 0 0 0 0 0 0 0.25 0"/>
<feBlend mode="normal" in2="BackgroundImageFix" result="effect1_dropShadow_35_2096"/>
<feBlend mode="normal" in="SourceGraphic" in2="effect1_dropShadow_35_2096" result="shape"/>
</filter>
<filter id="filter18_d_35_2096" x="20.4012" y="324.984" width="27.7718" height="50.3397" filterUnits="userSpaceOnUse" color-interpolation-filters="sRGB">
<feFlood flood-opacity="0" result="BackgroundImageFix"/>
<feColorMatrix in="SourceAlpha" type="matrix" values="0 0 0 0 0 0 0 0 0 0 0 0 0 0 0 0 0 0 127 0" result="hardAlpha"/>
<feOffset dy="2.23552"/>
<feGaussianBlur stdDeviation="1.11776"/>
<feComposite in2="hardAlpha" operator="out"/>
<feColorMatrix type="matrix" values="0 0 0 0 0 0 0 0 0 0 0 0 0 0 0 0 0 0 0.25 0"/>
<feBlend mode="normal" in2="BackgroundImageFix" result="effect1_dropShadow_35_2096"/>
<feBlend mode="normal" in="SourceGraphic" in2="effect1_dropShadow_35_2096" result="shape"/>
</filter>
<filter id="filter19_d_35_2096" x="142.647" y="235.77" width="51.8167" height="30.1136" filterUnits="userSpaceOnUse" color-interpolation-filters="sRGB">
<feFlood flood-opacity="0" result="BackgroundImageFix"/>
<feColorMatrix in="SourceAlpha" type="matrix" values="0 0 0 0 0 0 0 0 0 0 0 0 0 0 0 0 0 0 127 0" result="hardAlpha"/>
<feOffset dy="2.23552"/>
<feGaussianBlur stdDeviation="1.11776"/>
<feComposite in2="hardAlpha" operator="out"/>
<feColorMatrix type="matrix" values="0 0 0 0 0 0 0 0 0 0 0 0 0 0 0 0 0 0 0.25 0"/>
<feBlend mode="normal" in2="BackgroundImageFix" result="effect1_dropShadow_35_2096"/>
<feBlend mode="normal" in="SourceGraphic" in2="effect1_dropShadow_35_2096" result="shape"/>
</filter>
<filter id="filter20_d_35_2096" x="84.1668" y="280.668" width="51.8167" height="30.1136" filterUnits="userSpaceOnUse" color-interpolation-filters="sRGB">
<feFlood flood-opacity="0" result="BackgroundImageFix"/>
<feColorMatrix in="SourceAlpha" type="matrix" values="0 0 0 0 0 0 0 0 0 0 0 0 0 0 0 0 0 0 127 0" result="hardAlpha"/>
<feOffset dy="2.23552"/>
<feGaussianBlur stdDeviation="1.11776"/>
<feComposite in2="hardAlpha" operator="out"/>
<feColorMatrix type="matrix" values="0 0 0 0 0 0 0 0 0 0 0 0 0 0 0 0 0 0 0.25 0"/>
<feBlend mode="normal" in2="BackgroundImageFix" result="effect1_dropShadow_35_2096"/>
<feBlend mode="normal" in="SourceGraphic" in2="effect1_dropShadow_35_2096" result="shape"/>
</filter>
<filter id="filter21_d_35_2096" x="-169.365" y="-177.7" width="1864.26" height="475.953" filterUnits="userSpaceOnUse" color-interpolation-filters="sRGB">
<feFlood flood-opacity="0" result="BackgroundImageFix"/>
<feColorMatrix in="SourceAlpha" type="matrix" values="0 0 0 0 0 0 0 0 0 0 0 0 0 0 0 0 0 0 127 0" result="hardAlpha"/>
<feOffset dy="4"/>
<feGaussianBlur stdDeviation="2"/>
<feComposite in2="hardAlpha" operator="out"/>
<feColorMatrix type="matrix" values="0 0 0 0 0 0 0 0 0 0 0 0 0 0 0 0 0 0 0.25 0"/>
<feBlend mode="normal" in2="BackgroundImageFix" result="effect1_dropShadow_35_2096"/>
<feBlend mode="normal" in="SourceGraphic" in2="effect1_dropShadow_35_2096" result="shape"/>
</filter>
<filter id="filter22_d_35_2096" x="1328.64" y="843.907" width="210.655" height="218.374" filterUnits="userSpaceOnUse" color-interpolation-filters="sRGB">
<feFlood flood-opacity="0" result="BackgroundImageFix"/>
<feColorMatrix in="SourceAlpha" type="matrix" values="0 0 0 0 0 0 0 0 0 0 0 0 0 0 0 0 0 0 127 0" result="hardAlpha"/>
<feOffset dy="3.43077"/>
<feGaussianBlur stdDeviation="1.71539"/>
<feComposite in2="hardAlpha" operator="out"/>
<feColorMatrix type="matrix" values="0 0 0 0 0 0 0 0 0 0 0 0 0 0 0 0 0 0 0.25 0"/>
<feBlend mode="normal" in2="BackgroundImageFix" result="effect1_dropShadow_35_2096"/>
<feBlend mode="normal" in="SourceGraphic" in2="effect1_dropShadow_35_2096" result="shape"/>
</filter>
<filter id="filter23_f_35_2096" x="1327" y="373" width="68" height="37.1089" filterUnits="userSpaceOnUse" color-interpolation-filters="sRGB">
<feFlood flood-opacity="0" result="BackgroundImageFix"/>
<feBlend mode="normal" in="SourceGraphic" in2="BackgroundImageFix" result="shape"/>
<feGaussianBlur stdDeviation="2" result="effect1_foregroundBlur_35_2096"/>
</filter>
<linearGradient id="paint0_linear_35_2096" x1="1394.12" y1="774.461" x2="1408.63" y2="766.397" gradientUnits="userSpaceOnUse">
<stop stop-color="#AD806B"/>
<stop offset="0.674683" stop-color="#C99A81"/>
</linearGradient>
<linearGradient id="paint1_linear_35_2096" x1="1353.38" y1="777.676" x2="1346.43" y2="781.42" gradientUnits="userSpaceOnUse">
<stop stop-color="#B0826D"/>
<stop offset="0.901042" stop-color="#C89980"/>
</linearGradient>
<linearGradient id="paint2_linear_35_2096" x1="1366.15" y1="744.241" x2="1376.92" y2="814.125" gradientUnits="userSpaceOnUse">
<stop stop-color="#AD806B"/>
<stop offset="1" stop-color="#C99A81"/>
</linearGradient>
<clipPath id="clip0_35_2096">
<rect width="1440" height="1375" fill="white"/>
</clipPath>
</defs>
</svg>
