<svg width="1925" height="891" viewBox="0 0 1925 891" fill="none" xmlns="http://www.w3.org/2000/svg">
<g filter="url(#filter0_df_1803_211)">
<path d="M1906.45 871.068C1524.5 372.521 595.306 98.8798 178.454 34V634.573C284.49 598.826 474.125 507 995.125 507C1395.05 507 1728.04 740.921 1865.13 840L1906.45 871.068Z" fill="url(#paint0_linear_1803_211)" fill-opacity="0.8" shape-rendering="crispEdges"/>
<path d="M1906.45 871.068C1524.5 372.521 595.306 98.8798 178.454 34V634.573C284.49 598.826 474.125 507 995.125 507C1395.05 507 1728.04 740.921 1865.13 840L1906.45 871.068Z" fill="url(#paint1_linear_1803_211)" fill-opacity="0.25" shape-rendering="crispEdges"/>
</g>
<g filter="url(#filter1_df_1803_211)">
<path d="M212.394 161.221C431.365 192.803 831.226 276.754 1178.35 413.851C1432.02 511.766 1585.01 613.934 1647.55 673.734C1528.19 572.393 1360.53 485.803 1178.35 413.851C944.622 323.633 625.41 237.026 212.704 190.5L212.394 161.221Z" fill="white"/>
</g>
<g filter="url(#filter2_df_1803_211)">
<path d="M1197.55 421.077C1130.47 378.144 939.611 309.445 849.199 285.114C754.433 310.513 913.191 313.791 1025.51 350.631C1137.82 387.471 1238.64 447.376 1197.55 421.077Z" fill="#EC4BFC"/>
</g>
<g filter="url(#filter3_df_1803_211)">
<path d="M425.625 492.5C343.339 495.585 135.537 516.381 45.6248 542.499C36.168 545.247 17.1246 547 27.6248 568.136C39.1248 623.5 145.922 548.432 225.125 530C340.253 503.206 474.379 490.671 425.625 492.5Z" fill="#F25379"/>
</g>
<g opacity="0.45" filter="url(#filter4_f_1803_211)">
<path d="M1293.62 485.183C1224.58 463.056 1087.13 420 975.625 406.5C959.252 404.518 1017.3 402.888 1144.13 438.5C1302.65 483.015 1374.97 515.89 1293.62 485.183Z" fill="#17FFAC"/>
</g>
<g filter="url(#filter5_d_1803_211)">
<path d="M715.804 478.961C630.524 478.92 430.256 504.882 340.781 517.868C321.57 521.983 328.86 519.16 483.341 505.589C676.443 488.625 902.18 479.052 715.804 478.961Z" fill="#FF3A9B"/>
</g>
<g filter="url(#filter6_df_1803_211)">
<path d="M1094.91 436.519C1077.63 415.999 1279.09 481.025 1322.12 502.5C1323.06 502.965 1323.97 503.418 1324.86 503.859C1362.31 519.201 1369.05 525.781 1324.86 503.859C1291.93 490.373 1235.28 470.116 1168.63 456.5C1082.9 438.988 1083.92 434.619 1094.91 436.519Z" fill="#FF3ADF"/>
</g>
<g filter="url(#filter7_df_1803_211)">
<path d="M1511.93 566.855C1553.73 595.294 1645.3 660.047 1680.71 693.853C1719.7 727.171 1728.42 740.101 1681.86 694.963C1681.49 694.597 1681.1 694.227 1680.71 693.853C1656.5 673.164 1620.61 644.613 1579.05 617.223C1505.99 569.079 1502.25 561.331 1511.93 566.855Z" fill="#0038FF"/>
</g>
<g filter="url(#filter8_d_1803_211)">
<path d="M754.113 218.719C685.023 196.777 519.407 153.794 445.236 135.045C429.139 131.455 428.674 133.092 555.591 168.365C714.236 212.456 835.552 249.208 754.113 218.719Z" fill="#CA48FF"/>
</g>
<g filter="url(#filter9_df_1803_211)">
<path d="M524.951 197.572C454.17 181.92 287.18 150.516 211.625 138.5C202.625 136 199.125 136.499 199.125 142C196.625 164.5 232.125 153.5 322.71 165.24C486.003 186.404 742.625 256 524.951 197.572Z" fill="#CA48FF"/>
</g>
<g filter="url(#filter10_f_1803_211)">
<path d="M1651.29 679.839C1628.49 666.932 1573.11 639.395 1548.27 627.239C1542.84 624.77 1542.56 625.315 1584.82 647.243C1637.65 674.654 1677.83 696.688 1651.29 679.839Z" fill="#B15DF0"/>
</g>
<g filter="url(#filter11_f_1803_211)">
<path d="M1601.82 660.689C1578.74 648.285 1522.77 621.967 1497.67 610.359C1492.19 608.009 1491.92 608.56 1534.65 629.557C1588.07 655.803 1628.72 676.952 1601.82 660.689Z" fill="#B15DF0"/>
</g>
<g filter="url(#filter12_f_1803_211)">
<path d="M1478.13 526.5C1507.15 544.332 1591.4 606.448 1619.76 633.724C1620.76 634.68 1621.68 635.557 1622.52 636.357C1631.85 644.493 1632.7 646.033 1622.52 636.357C1610.61 625.973 1584.89 604.845 1550.65 582.579C1502.97 551.568 1470.93 523.519 1478.13 526.5Z" fill="#7304C6"/>
</g>
<g filter="url(#filter13_df_1803_211)">
<path d="M1110.73 482.082C880.687 431.528 461.795 450.675 254.454 468.5C437.996 447.692 851.854 423.395 1110.73 482.082C1125.89 485.412 1140.22 489.044 1153.62 493C1139.88 489.077 1125.56 485.443 1110.73 482.082Z" fill="#D9D9D9"/>
</g>
<path d="M207.536 504.348C427.517 475.877 746.454 445 995.454 471" stroke="#EEEEEE" stroke-opacity="0.7" stroke-width="1.3"/>
<path d="M1189.13 485C1505.13 584.5 1669.79 676.271 1875.53 818.917" stroke="#8760F4" stroke-opacity="0.7" stroke-width="1.3"/>
<path d="M1016.45 296C1172.95 351.5 1253.45 388.5 1400.45 478.5" stroke="#EEEEEE"/>
<path d="M1071.45 340.601C1227.95 396.101 1308.45 433.101 1455.45 523.101" stroke="#8084E8"/>
<g filter="url(#filter14_f_1803_211)">
<path d="M1442.95 559.5C1542.63 605 1608.63 639.499 1666.51 682.888" stroke="white"/>
</g>
<g filter="url(#filter15_f_1803_211)">
<path d="M1434.12 560.553C1533.8 606.053 1599.74 638.112 1657.63 681.5" stroke="white"/>
</g>
<g filter="url(#filter16_d_1803_211)">
<path d="M76.6252 127.434C325.412 147.033 456.675 169.382 705.113 242.759" stroke="#EEEEEE"/>
</g>
<g filter="url(#filter17_f_1803_211)">
<path d="M209.625 282V222C462.025 222 943.792 380.667 1153.12 460C780.725 320.8 368.958 283.333 209.625 282Z" fill="url(#paint2_linear_1803_211)"/>
</g>
<g filter="url(#filter18_df_1803_211)">
<path d="M173.581 65.8932L178.623 33C431.415 71.7457 900.597 232.685 1103.59 308.312C742.308 174.833 333.05 91.0832 173.581 65.8932Z" fill="url(#paint3_linear_1803_211)" shape-rendering="crispEdges"/>
</g>
<g filter="url(#filter19_f_1803_211)">
<path d="M203.424 85L202.664 97.9366M202.664 97.9366C534.681 157.67 1304.62 364.5 1683.62 693.5C1553.12 580.216 1058.69 254.087 201.956 127.208L202.664 97.9366Z" stroke="url(#paint4_linear_1803_211)" stroke-width="2"/>
</g>
<g filter="url(#filter20_df_1803_211)">
<path d="M1375.03 509.279C1375.32 509.023 1375.73 508.966 1376.07 509.147C1381.87 512.221 1431.55 538.603 1453.52 551.497C1475.3 564.286 1525.41 597.533 1532 601.917C1532.41 602.192 1532.52 602.732 1532.27 603.159L1530.97 605.335C1530.71 605.785 1530.15 605.943 1529.7 605.666C1523.87 602.025 1486.48 578.756 1449.62 558.04C1413.53 537.749 1373.13 523.446 1365.4 520.788C1364.77 520.57 1364.58 519.786 1365.02 519.284L1369.68 513.993L1375.03 509.279Z" fill="url(#paint5_linear_1803_211)" shape-rendering="crispEdges"/>
</g>
<g filter="url(#filter21_df_1803_211)">
<path d="M609.122 350.745C609.534 350.022 610.316 349.625 611.137 349.755C625.033 351.959 744.144 370.921 797.665 381.799C850.75 392.588 975.486 425.185 991.911 429.492C992.941 429.762 993.536 430.781 993.317 431.824L992.204 437.137C991.974 438.237 990.949 438.946 989.855 438.692C975.503 435.361 883.469 414.169 794.318 397.777C707 381.721 615.111 380.803 597.599 380.781C596.168 380.779 595.23 379.321 595.777 377.998L601.549 364.026L609.122 350.745Z" fill="url(#paint6_linear_1803_211)" shape-rendering="crispEdges"/>
</g>
<g filter="url(#filter22_df_1803_211)">
<path d="M551.122 325.745C551.534 325.022 552.316 324.625 553.137 324.755C567.033 326.959 686.144 345.921 739.665 356.799C792.75 367.588 917.486 400.185 933.911 404.492C934.941 404.762 935.536 405.781 935.317 406.824L934.204 412.137C933.974 413.237 932.949 413.946 931.855 413.692C917.503 410.361 825.469 389.169 736.318 372.777C649 356.721 557.111 355.803 539.599 355.781C538.168 355.779 537.23 354.321 537.777 352.998L543.549 339.026L551.122 325.745Z" fill="url(#paint7_linear_1803_211)" fill-opacity="0.4" shape-rendering="crispEdges"/>
</g>
<defs>
<filter id="filter0_df_1803_211" x="160.454" y="16" width="1764" height="874.068" filterUnits="userSpaceOnUse" color-interpolation-filters="sRGB">
<feFlood flood-opacity="0" result="BackgroundImageFix"/>
<feColorMatrix in="SourceAlpha" type="matrix" values="0 0 0 0 0 0 0 0 0 0 0 0 0 0 0 0 0 0 127 0" result="hardAlpha"/>
<feOffset dy="10"/>
<feGaussianBlur stdDeviation="4.5"/>
<feComposite in2="hardAlpha" operator="out"/>
<feColorMatrix type="matrix" values="0 0 0 0 0.20136 0 0 0 0 0.115439 0 0 0 0 0.729161 0 0 0 0.6 0"/>
<feBlend mode="normal" in2="BackgroundImageFix" result="effect1_dropShadow_1803_211"/>
<feBlend mode="normal" in="SourceGraphic" in2="effect1_dropShadow_1803_211" result="shape"/>
<feGaussianBlur stdDeviation="9" result="effect2_foregroundBlur_1803_211"/>
</filter>
<filter id="filter1_df_1803_211" x="189.394" y="144.221" width="1481.15" height="558.513" filterUnits="userSpaceOnUse" color-interpolation-filters="sRGB">
<feFlood flood-opacity="0" result="BackgroundImageFix"/>
<feColorMatrix in="SourceAlpha" type="matrix" values="0 0 0 0 0 0 0 0 0 0 0 0 0 0 0 0 0 0 127 0" result="hardAlpha"/>
<feOffset dy="6"/>
<feGaussianBlur stdDeviation="11.5"/>
<feComposite in2="hardAlpha" operator="out"/>
<feColorMatrix type="matrix" values="0 0 0 0 0.186662 0 0 0 0 0 0 0 0 0 0.933312 0 0 0 1 0"/>
<feBlend mode="normal" in2="BackgroundImageFix" result="effect1_dropShadow_1803_211"/>
<feBlend mode="normal" in="SourceGraphic" in2="effect1_dropShadow_1803_211" result="shape"/>
<feGaussianBlur stdDeviation="4" result="effect2_foregroundBlur_1803_211"/>
</filter>
<filter id="filter2_df_1803_211" x="796.251" y="265.114" width="434.663" height="190.439" filterUnits="userSpaceOnUse" color-interpolation-filters="sRGB">
<feFlood flood-opacity="0" result="BackgroundImageFix"/>
<feColorMatrix in="SourceAlpha" type="matrix" values="0 0 0 0 0 0 0 0 0 0 0 0 0 0 0 0 0 0 127 0" result="hardAlpha"/>
<feOffset dy="4"/>
<feGaussianBlur stdDeviation="12"/>
<feComposite in2="hardAlpha" operator="out"/>
<feColorMatrix type="matrix" values="0 0 0 0 0.846745 0 0 0 0 0 0 0 0 0 0.457242 0 0 0 1 0"/>
<feBlend mode="normal" in2="BackgroundImageFix" result="effect1_dropShadow_1803_211"/>
<feBlend mode="normal" in="SourceGraphic" in2="effect1_dropShadow_1803_211" result="shape"/>
<feGaussianBlur stdDeviation="6.5" result="effect2_foregroundBlur_1803_211"/>
</filter>
<filter id="filter3_df_1803_211" x="0.554718" y="472.325" width="459.358" height="143.832" filterUnits="userSpaceOnUse" color-interpolation-filters="sRGB">
<feFlood flood-opacity="0" result="BackgroundImageFix"/>
<feColorMatrix in="SourceAlpha" type="matrix" values="0 0 0 0 0 0 0 0 0 0 0 0 0 0 0 0 0 0 127 0" result="hardAlpha"/>
<feOffset dy="4"/>
<feGaussianBlur stdDeviation="12"/>
<feComposite in2="hardAlpha" operator="out"/>
<feColorMatrix type="matrix" values="0 0 0 0 0.846745 0 0 0 0 0 0 0 0 0 0.457242 0 0 0 1 0"/>
<feBlend mode="normal" in2="BackgroundImageFix" result="effect1_dropShadow_1803_211"/>
<feBlend mode="normal" in="SourceGraphic" in2="effect1_dropShadow_1803_211" result="shape"/>
<feGaussianBlur stdDeviation="6.5" result="effect2_foregroundBlur_1803_211"/>
</filter>
<filter id="filter4_f_1803_211" x="968.916" y="401.636" width="362.378" height="99.5376" filterUnits="userSpaceOnUse" color-interpolation-filters="sRGB">
<feFlood flood-opacity="0" result="BackgroundImageFix"/>
<feBlend mode="normal" in="SourceGraphic" in2="BackgroundImageFix" result="shape"/>
<feGaussianBlur stdDeviation="2" result="effect1_foregroundBlur_1803_211"/>
</filter>
<filter id="filter5_d_1803_211" x="319.194" y="462.961" width="480.235" height="68.6484" filterUnits="userSpaceOnUse" color-interpolation-filters="sRGB">
<feFlood flood-opacity="0" result="BackgroundImageFix"/>
<feColorMatrix in="SourceAlpha" type="matrix" values="0 0 0 0 0 0 0 0 0 0 0 0 0 0 0 0 0 0 127 0" result="hardAlpha"/>
<feOffset dy="-2"/>
<feGaussianBlur stdDeviation="7"/>
<feComposite in2="hardAlpha" operator="out"/>
<feColorMatrix type="matrix" values="0 0 0 0 1 0 0 0 0 0 0 0 0 0 0.66 0 0 0 0.85 0"/>
<feBlend mode="normal" in2="BackgroundImageFix" result="effect1_dropShadow_1803_211"/>
<feBlend mode="normal" in="SourceGraphic" in2="effect1_dropShadow_1803_211" result="shape"/>
</filter>
<filter id="filter6_df_1803_211" x="1075.7" y="416.567" width="293.826" height="113.373" filterUnits="userSpaceOnUse" color-interpolation-filters="sRGB">
<feFlood flood-opacity="0" result="BackgroundImageFix"/>
<feColorMatrix in="SourceAlpha" type="matrix" values="0 0 0 0 0 0 0 0 0 0 0 0 0 0 0 0 0 0 127 0" result="hardAlpha"/>
<feOffset dy="-2"/>
<feGaussianBlur stdDeviation="7"/>
<feComposite in2="hardAlpha" operator="out"/>
<feColorMatrix type="matrix" values="0 0 0 0 1 0 0 0 0 0 0 0 0 0 0.66 0 0 0 0.85 0"/>
<feBlend mode="normal" in2="BackgroundImageFix" result="effect1_dropShadow_1803_211"/>
<feBlend mode="normal" in="SourceGraphic" in2="effect1_dropShadow_1803_211" result="shape"/>
<feGaussianBlur stdDeviation="3" result="effect2_foregroundBlur_1803_211"/>
</filter>
<filter id="filter7_df_1803_211" x="1494.05" y="549.319" width="233.421" height="186.742" filterUnits="userSpaceOnUse" color-interpolation-filters="sRGB">
<feFlood flood-opacity="0" result="BackgroundImageFix"/>
<feColorMatrix in="SourceAlpha" type="matrix" values="0 0 0 0 0 0 0 0 0 0 0 0 0 0 0 0 0 0 127 0" result="hardAlpha"/>
<feOffset dy="-2"/>
<feGaussianBlur stdDeviation="7"/>
<feComposite in2="hardAlpha" operator="out"/>
<feColorMatrix type="matrix" values="0 0 0 0 0 0 0 0 0 0.52 0 0 0 0 1 0 0 0 0.85 0"/>
<feBlend mode="normal" in2="BackgroundImageFix" result="effect1_dropShadow_1803_211"/>
<feBlend mode="normal" in="SourceGraphic" in2="effect1_dropShadow_1803_211" result="shape"/>
<feGaussianBlur stdDeviation="2" result="effect2_foregroundBlur_1803_211"/>
</filter>
<filter id="filter8_d_1803_211" x="421.811" y="119.737" width="374.373" height="128.183" filterUnits="userSpaceOnUse" color-interpolation-filters="sRGB">
<feFlood flood-opacity="0" result="BackgroundImageFix"/>
<feColorMatrix in="SourceAlpha" type="matrix" values="0 0 0 0 0 0 0 0 0 0 0 0 0 0 0 0 0 0 127 0" result="hardAlpha"/>
<feOffset dy="2"/>
<feGaussianBlur stdDeviation="8"/>
<feComposite in2="hardAlpha" operator="out"/>
<feColorMatrix type="matrix" values="0 0 0 0 1 0 0 0 0 0.1125 0 0 0 0 0.9645 0 0 0 1 0"/>
<feBlend mode="normal" in2="BackgroundImageFix" result="effect1_dropShadow_1803_211"/>
<feBlend mode="normal" in="SourceGraphic" in2="effect1_dropShadow_1803_211" result="shape"/>
</filter>
<filter id="filter9_df_1803_211" x="175.002" y="117.058" width="457.729" height="131.359" filterUnits="userSpaceOnUse" color-interpolation-filters="sRGB">
<feFlood flood-opacity="0" result="BackgroundImageFix"/>
<feColorMatrix in="SourceAlpha" type="matrix" values="0 0 0 0 0 0 0 0 0 0 0 0 0 0 0 0 0 0 127 0" result="hardAlpha"/>
<feOffset dy="4"/>
<feGaussianBlur stdDeviation="12"/>
<feComposite in2="hardAlpha" operator="out"/>
<feColorMatrix type="matrix" values="0 0 0 0 0.846745 0 0 0 0 0 0 0 0 0 0.457242 0 0 0 1 0"/>
<feBlend mode="normal" in2="BackgroundImageFix" result="effect1_dropShadow_1803_211"/>
<feBlend mode="normal" in="SourceGraphic" in2="effect1_dropShadow_1803_211" result="shape"/>
<feGaussianBlur stdDeviation="6.5" result="effect2_foregroundBlur_1803_211"/>
</filter>
<filter id="filter10_f_1803_211" x="1541.74" y="622.236" width="121.96" height="67.479" filterUnits="userSpaceOnUse" color-interpolation-filters="sRGB">
<feFlood flood-opacity="0" result="BackgroundImageFix"/>
<feBlend mode="normal" in="SourceGraphic" in2="BackgroundImageFix" result="shape"/>
<feGaussianBlur stdDeviation="2" result="effect1_foregroundBlur_1803_211"/>
</filter>
<filter id="filter11_f_1803_211" x="1491.12" y="605.411" width="123.234" height="64.9707" filterUnits="userSpaceOnUse" color-interpolation-filters="sRGB">
<feFlood flood-opacity="0" result="BackgroundImageFix"/>
<feBlend mode="normal" in="SourceGraphic" in2="BackgroundImageFix" result="shape"/>
<feGaussianBlur stdDeviation="2" result="effect1_foregroundBlur_1803_211"/>
</filter>
<filter id="filter12_f_1803_211" x="1473.12" y="522.282" width="160.722" height="124.767" filterUnits="userSpaceOnUse" color-interpolation-filters="sRGB">
<feFlood flood-opacity="0" result="BackgroundImageFix"/>
<feBlend mode="normal" in="SourceGraphic" in2="BackgroundImageFix" result="shape"/>
<feGaussianBlur stdDeviation="2" result="effect1_foregroundBlur_1803_211"/>
</filter>
<filter id="filter13_df_1803_211" x="246.454" y="436.348" width="915.171" height="63.6519" filterUnits="userSpaceOnUse" color-interpolation-filters="sRGB">
<feFlood flood-opacity="0" result="BackgroundImageFix"/>
<feColorMatrix in="SourceAlpha" type="matrix" values="0 0 0 0 0 0 0 0 0 0 0 0 0 0 0 0 0 0 127 0" result="hardAlpha"/>
<feOffset dy="-1"/>
<feGaussianBlur stdDeviation="4"/>
<feComposite in2="hardAlpha" operator="out"/>
<feColorMatrix type="matrix" values="0 0 0 0 0 0 0 0 0 0.34 0 0 0 0 1 0 0 0 1 0"/>
<feBlend mode="normal" in2="BackgroundImageFix" result="effect1_dropShadow_1803_211"/>
<feBlend mode="normal" in="SourceGraphic" in2="effect1_dropShadow_1803_211" result="shape"/>
<feGaussianBlur stdDeviation="2" result="effect2_foregroundBlur_1803_211"/>
</filter>
<filter id="filter14_f_1803_211" x="1440.75" y="557.045" width="228.059" height="128.243" filterUnits="userSpaceOnUse" color-interpolation-filters="sRGB">
<feFlood flood-opacity="0" result="BackgroundImageFix"/>
<feBlend mode="normal" in="SourceGraphic" in2="BackgroundImageFix" result="shape"/>
<feGaussianBlur stdDeviation="1" result="effect1_foregroundBlur_1803_211"/>
</filter>
<filter id="filter15_f_1803_211" x="1431.92" y="558.098" width="228.008" height="125.802" filterUnits="userSpaceOnUse" color-interpolation-filters="sRGB">
<feFlood flood-opacity="0" result="BackgroundImageFix"/>
<feBlend mode="normal" in="SourceGraphic" in2="BackgroundImageFix" result="shape"/>
<feGaussianBlur stdDeviation="1" result="effect1_foregroundBlur_1803_211"/>
</filter>
<filter id="filter16_d_1803_211" x="71.5859" y="125.936" width="638.668" height="126.303" filterUnits="userSpaceOnUse" color-interpolation-filters="sRGB">
<feFlood flood-opacity="0" result="BackgroundImageFix"/>
<feColorMatrix in="SourceAlpha" type="matrix" values="0 0 0 0 0 0 0 0 0 0 0 0 0 0 0 0 0 0 127 0" result="hardAlpha"/>
<feOffset dy="4"/>
<feGaussianBlur stdDeviation="2.5"/>
<feComposite in2="hardAlpha" operator="out"/>
<feColorMatrix type="matrix" values="0 0 0 0 0.541667 0 0 0 0 0.0833333 0 0 0 0 1 0 0 0 0.25 0"/>
<feBlend mode="normal" in2="BackgroundImageFix" result="effect1_dropShadow_1803_211"/>
<feBlend mode="normal" in="SourceGraphic" in2="effect1_dropShadow_1803_211" result="shape"/>
</filter>
<filter id="filter17_f_1803_211" x="195.625" y="208" width="971.5" height="266" filterUnits="userSpaceOnUse" color-interpolation-filters="sRGB">
<feFlood flood-opacity="0" result="BackgroundImageFix"/>
<feBlend mode="normal" in="SourceGraphic" in2="BackgroundImageFix" result="shape"/>
<feGaussianBlur stdDeviation="7" result="effect1_foregroundBlur_1803_211"/>
</filter>
<filter id="filter18_df_1803_211" x="149.581" y="0" width="976.008" height="322.312" filterUnits="userSpaceOnUse" color-interpolation-filters="sRGB">
<feFlood flood-opacity="0" result="BackgroundImageFix"/>
<feColorMatrix in="SourceAlpha" type="matrix" values="0 0 0 0 0 0 0 0 0 0 0 0 0 0 0 0 0 0 127 0" result="hardAlpha"/>
<feOffset dx="-1" dy="-10"/>
<feGaussianBlur stdDeviation="11.5"/>
<feComposite in2="hardAlpha" operator="out"/>
<feColorMatrix type="matrix" values="0 0 0 0 0.075 0 0 0 0 0.3895 0 0 0 0 1 0 0 0 1 0"/>
<feBlend mode="normal" in2="BackgroundImageFix" result="effect1_dropShadow_1803_211"/>
<feBlend mode="normal" in="SourceGraphic" in2="effect1_dropShadow_1803_211" result="shape"/>
<feGaussianBlur stdDeviation="7" result="effect2_foregroundBlur_1803_211"/>
</filter>
<filter id="filter19_f_1803_211" x="198.935" y="82.9414" width="1487.35" height="613.314" filterUnits="userSpaceOnUse" color-interpolation-filters="sRGB">
<feFlood flood-opacity="0" result="BackgroundImageFix"/>
<feBlend mode="normal" in="SourceGraphic" in2="BackgroundImageFix" result="shape"/>
<feGaussianBlur stdDeviation="1" result="effect1_foregroundBlur_1803_211"/>
</filter>
<filter id="filter20_df_1803_211" x="1358.25" y="504.377" width="180.682" height="109.821" filterUnits="userSpaceOnUse" color-interpolation-filters="sRGB">
<feFlood flood-opacity="0" result="BackgroundImageFix"/>
<feColorMatrix in="SourceAlpha" type="matrix" values="0 0 0 0 0 0 0 0 0 0 0 0 0 0 0 0 0 0 127 0" result="hardAlpha"/>
<feOffset dy="1.86557"/>
<feGaussianBlur stdDeviation="3.26474"/>
<feComposite in2="hardAlpha" operator="out"/>
<feColorMatrix type="matrix" values="0 0 0 0 1 0 0 0 0 1 0 0 0 0 1 0 0 0 0.25 0"/>
<feBlend mode="normal" in2="BackgroundImageFix" result="effect1_dropShadow_1803_211"/>
<feBlend mode="normal" in="SourceGraphic" in2="effect1_dropShadow_1803_211" result="shape"/>
<feGaussianBlur stdDeviation="1.39917" result="effect2_foregroundBlur_1803_211"/>
</filter>
<filter id="filter21_df_1803_211" x="581.619" y="339.73" width="425.743" height="117.014" filterUnits="userSpaceOnUse" color-interpolation-filters="sRGB">
<feFlood flood-opacity="0" result="BackgroundImageFix"/>
<feColorMatrix in="SourceAlpha" type="matrix" values="0 0 0 0 0 0 0 0 0 0 0 0 0 0 0 0 0 0 127 0" result="hardAlpha"/>
<feOffset dy="4"/>
<feGaussianBlur stdDeviation="7"/>
<feComposite in2="hardAlpha" operator="out"/>
<feColorMatrix type="matrix" values="0 0 0 0 1 0 0 0 0 1 0 0 0 0 1 0 0 0 0.25 0"/>
<feBlend mode="normal" in2="BackgroundImageFix" result="effect1_dropShadow_1803_211"/>
<feBlend mode="normal" in="SourceGraphic" in2="effect1_dropShadow_1803_211" result="shape"/>
<feGaussianBlur stdDeviation="3" result="effect2_foregroundBlur_1803_211"/>
</filter>
<filter id="filter22_df_1803_211" x="523.619" y="314.73" width="425.743" height="117.014" filterUnits="userSpaceOnUse" color-interpolation-filters="sRGB">
<feFlood flood-opacity="0" result="BackgroundImageFix"/>
<feColorMatrix in="SourceAlpha" type="matrix" values="0 0 0 0 0 0 0 0 0 0 0 0 0 0 0 0 0 0 127 0" result="hardAlpha"/>
<feOffset dy="4"/>
<feGaussianBlur stdDeviation="7"/>
<feComposite in2="hardAlpha" operator="out"/>
<feColorMatrix type="matrix" values="0 0 0 0 1 0 0 0 0 1 0 0 0 0 1 0 0 0 0.25 0"/>
<feBlend mode="normal" in2="BackgroundImageFix" result="effect1_dropShadow_1803_211"/>
<feBlend mode="normal" in="SourceGraphic" in2="effect1_dropShadow_1803_211" result="shape"/>
<feGaussianBlur stdDeviation="3" result="effect2_foregroundBlur_1803_211"/>
</filter>
<linearGradient id="paint0_linear_1803_211" x1="204.954" y1="382.5" x2="1604.95" y2="675.5" gradientUnits="userSpaceOnUse">
<stop stop-color="#2C049D"/>
<stop offset="1" stop-color="#030117" stop-opacity="0.8"/>
</linearGradient>
<linearGradient id="paint1_linear_1803_211" x1="343.625" y1="67" x2="294.625" y2="453" gradientUnits="userSpaceOnUse">
<stop offset="0.15948" stop-color="#180256"/>
<stop offset="0.479187" stop-color="#CEBDFF"/>
<stop offset="1" stop-color="#170844"/>
</linearGradient>
<linearGradient id="paint2_linear_1803_211" x1="303.625" y1="222" x2="992.125" y2="419.5" gradientUnits="userSpaceOnUse">
<stop stop-color="#00E8BF"/>
<stop offset="1" stop-color="#1360D4" stop-opacity="0.3"/>
</linearGradient>
<linearGradient id="paint3_linear_1803_211" x1="272.769" y1="47.4298" x2="811.246" y2="444.013" gradientUnits="userSpaceOnUse">
<stop stop-color="white"/>
<stop offset="0.40625" stop-color="#5F9AF4" stop-opacity="0.3"/>
</linearGradient>
<linearGradient id="paint4_linear_1803_211" x1="1012.62" y1="325.5" x2="1662.62" y2="686.5" gradientUnits="userSpaceOnUse">
<stop stop-color="white"/>
<stop offset="0.838544" stop-color="white" stop-opacity="0.937503"/>
<stop offset="1" stop-color="white" stop-opacity="0"/>
</linearGradient>
<linearGradient id="paint5_linear_1803_211" x1="1374.45" y1="522.133" x2="1504.02" y2="576.373" gradientUnits="userSpaceOnUse">
<stop stop-color="#F6922B"/>
<stop offset="1" stop-color="#D9D9D9" stop-opacity="0"/>
</linearGradient>
<linearGradient id="paint6_linear_1803_211" x1="616.881" y1="377.22" x2="917.393" y2="397.139" gradientUnits="userSpaceOnUse">
<stop stop-color="#F6922B"/>
<stop offset="1" stop-color="#D9D9D9" stop-opacity="0"/>
</linearGradient>
<linearGradient id="paint7_linear_1803_211" x1="558.881" y1="352.22" x2="859.393" y2="372.139" gradientUnits="userSpaceOnUse">
<stop stop-color="#F6922B"/>
<stop offset="1" stop-color="#D9D9D9" stop-opacity="0"/>
</linearGradient>
</defs>
</svg>
