<svg width="1440" height="1175" viewBox="0 0 1440 1175" fill="none" xmlns="http://www.w3.org/2000/svg">
<g clip-path="url(#clip0_20_3804)">
<g filter="url(#filter0_f_20_3804)">
<path d="M80 766.697C46.956 765.365 1 797.197 1 797.197V1174.7H1438V890.197C1438 890.197 1341.17 808.163 1258.5 790.197C1216.57 781.084 1164.2 818.315 1122.5 808.197C1078.27 797.466 1071.85 788.552 1028.5 774.697C995.955 764.296 955.436 777.433 923 766.697C899.954 759.068 886.275 757.101 863.5 748.697C840.696 740.282 829.315 715.313 806.5 723.697C797.701 726.931 795.692 734.186 787 737.697C773.24 743.254 763.57 734.879 749 737.697C736.749 740.067 731.243 746.286 719 748.697C703.865 751.678 694.735 746.28 679.5 748.697C650.177 753.349 640.891 778.496 611.5 782.697C580.339 787.151 563.951 767.993 532.5 766.697C492.984 765.069 471.826 786.888 432.5 782.697C408.761 780.167 396.275 759.54 373.5 766.697C362.442 770.172 352.072 782.028 340.5 782.697C327.757 783.434 317.09 772.044 305.5 766.697C281.07 755.427 279.043 740.247 253.5 748.697C234.733 754.906 235.674 780.77 216 782.697C200.154 784.25 194.381 767.841 178.5 766.697C159.345 765.318 151.194 782.065 132 782.697C110.765 783.396 101.23 767.553 80 766.697Z" fill="#85A5AC" fill-opacity="0.34"/>
</g>
<g opacity="0.9" filter="url(#filter1_f_20_3804)">
<path d="M1009.12 185.682C1011.59 170.177 1009.12 159.031 1022.65 150.702C1036.17 142.373 1047.59 150.702 1047.59 150.702C1047.59 150.702 1059.39 159.745 1064.07 167.914C1073 159.932 1076.76 167.914 1094.09 167.914C1111.42 167.914 1122.41 185.682 1122.41 185.682C1122.41 185.682 1124.1 179.019 1145.66 185.682C1167.22 192.346 1155.81 199.008 1155.81 199.008C1166.64 193.97 1180.98 202.413 1204 214H966L984.178 199.008C984.178 199.008 976.568 194.567 984.178 185.682C991.787 176.798 1001.8 179.333 1009.12 185.682Z" fill="white"/>
<path d="M1009.12 185.682C1011.59 170.177 1009.12 159.031 1022.65 150.702C1036.17 142.373 1047.59 150.702 1047.59 150.702C1047.59 150.702 1059.39 159.745 1064.07 167.914C1073 159.932 1076.76 167.914 1094.09 167.914C1111.42 167.914 1122.41 185.682 1122.41 185.682C1122.41 185.682 1124.1 179.019 1145.66 185.682C1167.22 192.346 1155.81 199.008 1155.81 199.008C1166.64 193.97 1180.98 202.413 1204 214H966L984.178 199.008C984.178 199.008 976.568 194.567 984.178 185.682C991.787 176.798 1001.8 179.333 1009.12 185.682Z" stroke="white" stroke-width="3"/>
</g>
<g filter="url(#filter2_f_20_3804)">
<path d="M109.729 815.064C62.2968 820.037 0 868.584 0 868.584V1174.7H1438V889.591C1438 889.591 1329.51 867.368 1259.63 855.079C1201.65 844.882 1168.41 843.241 1110.82 831.07C1084.07 825.417 1066.74 828.007 1042.68 815.064C1029.38 807.912 1026.6 793.942 1011.61 792.055C997.794 790.316 991.85 802.269 978.04 804.06C969.697 805.142 964.808 802.758 956.495 804.06C944.865 805.882 939.907 812.416 928.437 815.064C892.65 823.326 872.815 782.9 837.247 792.055C811.387 798.712 807.296 825.736 781.13 831.07C767.901 833.766 759.971 829.532 746.557 831.07C719.254 834.2 707.841 853.24 680.419 855.079C652.192 856.971 636.926 846.999 609.772 839.073C573.15 828.383 556.737 803.866 518.582 804.06C497.591 804.166 485.231 806.727 465.972 815.064C450.138 821.919 444.93 832.7 428.895 839.073C412.992 845.393 402.276 842.428 385.805 847.076C341.687 859.525 329.361 898.357 284.093 905.597C208.306 917.72 186.062 807.061 109.729 815.064Z" fill="url(#paint0_linear_20_3804)" fill-opacity="0.37"/>
</g>
</g>
<defs>
<filter id="filter0_f_20_3804" x="-3" y="718" width="1445" height="460.697" filterUnits="userSpaceOnUse" color-interpolation-filters="sRGB">
<feFlood flood-opacity="0" result="BackgroundImageFix"/>
<feBlend mode="normal" in="SourceGraphic" in2="BackgroundImageFix" result="shape"/>
<feGaussianBlur stdDeviation="2" result="effect1_foregroundBlur_20_3804"/>
</filter>
<filter id="filter1_f_20_3804" x="957.823" y="141.5" width="250.852" height="77.9995" filterUnits="userSpaceOnUse" color-interpolation-filters="sRGB">
<feFlood flood-opacity="0" result="BackgroundImageFix"/>
<feBlend mode="normal" in="SourceGraphic" in2="BackgroundImageFix" result="shape"/>
<feGaussianBlur stdDeviation="2" result="effect1_foregroundBlur_20_3804"/>
</filter>
<filter id="filter2_f_20_3804" x="-4" y="786.697" width="1446" height="392" filterUnits="userSpaceOnUse" color-interpolation-filters="sRGB">
<feFlood flood-opacity="0" result="BackgroundImageFix"/>
<feBlend mode="normal" in="SourceGraphic" in2="BackgroundImageFix" result="shape"/>
<feGaussianBlur stdDeviation="2" result="effect1_foregroundBlur_20_3804"/>
</filter>
<linearGradient id="paint0_linear_20_3804" x1="719" y1="790.697" x2="719" y2="1174.7" gradientUnits="userSpaceOnUse">
<stop stop-color="#667AA3"/>
<stop offset="1" stop-color="#324367" stop-opacity="0"/>
</linearGradient>
<clipPath id="clip0_20_3804">
<rect width="1440" height="1175" fill="white"/>
</clipPath>
</defs>
</svg>
