<svg width="1440" height="1723" viewBox="0 0 1440 1723" fill="none" xmlns="http://www.w3.org/2000/svg">
<g filter="url(#filter0_f_20_5659)">
<path d="M357.895 92.0332C361.041 73.9824 357.895 61.0059 375.117 51.3095C392.339 41.6131 406.87 51.3095 406.87 51.3095C406.87 51.3095 421.898 61.838 427.86 71.3482C439.217 62.0552 444.005 71.3482 466.071 71.3482C488.137 71.3482 502.13 92.0332 502.13 92.0332C502.13 92.0332 504.282 84.276 531.73 92.0332C559.178 99.7903 544.647 107.547 544.647 107.547C558.44 101.682 576.689 111.51 606 125H303L326.142 107.547C326.142 107.547 316.455 102.376 326.142 92.0332C335.829 81.6903 348.576 84.6419 357.895 92.0332Z" fill="white" fill-opacity="0.9"/>
<path d="M357.895 92.0332C361.041 73.9824 357.895 61.0059 375.117 51.3095C392.339 41.6131 406.87 51.3095 406.87 51.3095C406.87 51.3095 421.898 61.838 427.86 71.3482C439.217 62.0552 444.005 71.3482 466.071 71.3482C488.137 71.3482 502.13 92.0332 502.13 92.0332C502.13 92.0332 504.282 84.276 531.73 92.0332C559.178 99.7903 544.647 107.547 544.647 107.547C558.44 101.682 576.689 111.51 606 125H303L326.142 107.547C326.142 107.547 316.455 102.376 326.142 92.0332C335.829 81.6903 348.576 84.6419 357.895 92.0332Z" stroke="white" stroke-width="3"/>
</g>
<defs>
<filter id="filter0_f_20_5659" x="294.52" y="41.5002" width="316.107" height="88.9998" filterUnits="userSpaceOnUse" color-interpolation-filters="sRGB">
<feFlood flood-opacity="0" result="BackgroundImageFix"/>
<feBlend mode="normal" in="SourceGraphic" in2="BackgroundImageFix" result="shape"/>
<feGaussianBlur stdDeviation="2" result="effect1_foregroundBlur_20_5659"/>
</filter>
</defs>
</svg>
