<svg width="1440" height="1723" viewBox="0 0 1440 1723" fill="none" xmlns="http://www.w3.org/2000/svg">
<g clip-path="url(#clip0_20_2982)">
<rect x="-1" y="1584" width="1440" height="139" fill="#8C5050"/>
<rect x="-1" y="1584" width="1440" height="139" fill="#8C5050"/>
<path fill-rule="evenodd" clip-rule="evenodd" d="M1440 1534H0V1598V1648.37C0 1656.88 12.1824 1667.46 22.0306 1667.46C26.0677 1667.46 30.7326 1666.92 35.5914 1666.36C45.9416 1665.15 57.1721 1663.85 65.0904 1667.46C75.7618 1672.33 84.0484 1668.73 93.6973 1664.53C96.0428 1663.51 98.4689 1662.46 101.029 1661.48C116.089 1655.74 132.034 1653.48 148.058 1651.21C154.268 1650.33 160.489 1649.45 166.676 1648.37C178.938 1646.21 197.922 1643.35 208.289 1651.84C219.785 1661.25 234.235 1667.71 249.458 1671.8C280.558 1680.17 309.326 1687.11 342.364 1684.73C352.193 1684.02 360.17 1679.7 368.188 1675.35C376.81 1670.68 385.48 1665.99 396.551 1665.73C400.341 1665.64 403.177 1666.44 405.872 1667.19C409.745 1668.28 413.326 1669.29 419.026 1667.46C428.32 1664.49 445.007 1660.9 454.186 1665.73C455.727 1666.54 457.387 1667.79 459.112 1669.1C462.226 1671.45 465.55 1673.96 468.762 1674.31C479.208 1675.44 489.77 1674.58 500.351 1673.72C509.521 1672.97 518.707 1672.22 527.844 1672.77C528.79 1672.82 529.733 1672.88 530.675 1672.94C543.058 1673.68 555.116 1674.41 567.677 1674.41C578.755 1674.41 586.075 1671.57 594.781 1668.19C596.846 1667.39 598.99 1666.56 601.28 1665.73C615.911 1660.42 627.062 1657.09 642.893 1660.9C646.064 1661.67 648.867 1663.1 651.661 1664.52C654.15 1665.79 656.632 1667.06 659.36 1667.85C667.917 1670.32 673.624 1669.94 682.111 1669.37C682.46 1669.34 682.813 1669.32 683.171 1669.3C686.029 1669.1 688.905 1668.95 691.789 1668.8C702.976 1668.21 714.269 1667.61 725.007 1664.76C730.31 1663.36 735.531 1661.72 740.755 1660.09C747.097 1658.1 753.444 1656.12 759.944 1654.54C776.76 1650.46 786.533 1649.01 804.673 1653.57C810.202 1654.97 815.233 1657.15 820.24 1659.31C825.704 1661.68 831.139 1664.04 837.163 1665.34C847.577 1667.6 857.316 1664.54 866.923 1661.51C874.062 1659.27 881.128 1657.05 888.345 1657.05C895.978 1657.05 902.688 1660.17 909.309 1663.24C915.759 1666.24 922.126 1669.2 929.179 1669.2C937.784 1669.2 946.169 1668.53 954.469 1667.87C971.339 1666.52 987.862 1665.2 1005.17 1669.58C1010.46 1670.92 1016.55 1673.31 1022.91 1675.8C1034.57 1680.36 1047.16 1685.29 1057.47 1684.82C1063.77 1684.54 1070.03 1682.3 1076.1 1680.13C1078.76 1679.18 1081.38 1678.24 1083.95 1677.49C1086.78 1676.67 1089.66 1675.79 1092.58 1674.89C1105.74 1670.87 1119.71 1666.6 1133.24 1665.82C1133.92 1665.78 1134.63 1665.74 1135.37 1665.69C1139.62 1665.41 1144.72 1665.08 1148.6 1665.82C1151.05 1666.3 1153.03 1668.64 1155.04 1671.03C1156.73 1673.04 1158.45 1675.08 1160.5 1676.05C1171.07 1681.04 1183.64 1680.5 1195.22 1677.49C1207.12 1674.4 1222.11 1670.65 1234.6 1670.93C1246.58 1671.21 1259.71 1675.87 1270.79 1679.81L1271.32 1680C1272.7 1680.49 1274.02 1681.11 1275.29 1681.7C1278.77 1683.33 1281.89 1684.79 1285.01 1682.99C1294.2 1677.68 1303.21 1670.08 1310.71 1663.12C1312.31 1661.64 1313.97 1659.74 1315.73 1657.72C1320.46 1652.31 1325.91 1646.07 1332.74 1644.99C1341.17 1643.66 1348.9 1650.68 1354.87 1656.1C1356.1 1657.22 1357.26 1658.27 1358.33 1659.17C1361.81 1662.07 1378.3 1674.45 1383.92 1672.29C1386.19 1671.41 1388.15 1670.46 1389.95 1669.58C1395.59 1666.84 1399.7 1664.84 1406.95 1668.33C1420.34 1674.77 1433.38 1651.49 1438.8 1641.8C1439.26 1641 1439.66 1640.28 1440 1639.69V1598V1534Z" fill="url(#paint0_linear_20_2982)"/>
<mask id="mask0_20_2982" style="mask-type:alpha" maskUnits="userSpaceOnUse" x="-58" y="1409" width="267" height="149">
<path d="M-58 1557.15H208.834C208.834 1480.83 152.885 1408.14 142.556 1415.1C132.227 1422.06 132.227 1445.84 132.227 1445.84L118.455 1415.1C89.1892 1405.56 48.7337 1404.5 17.7465 1432.06V1456.44C17.7465 1456.44 7.41743 1439.48 -0.329369 1442.66C-8.07617 1445.84 -40.201 1509.09 -58 1557.15Z" fill="#27844C"/>
</mask>
<g mask="url(#mask0_20_2982)">
<path d="M-58 1557.15H208.834C208.834 1480.83 152.885 1408.14 142.556 1415.1C132.227 1422.06 132.227 1445.84 132.227 1445.84L118.455 1415.1C89.1892 1405.56 48.7337 1404.5 17.7465 1432.06V1456.44C17.7465 1456.44 7.41743 1439.48 -0.329369 1442.66C-8.07617 1445.84 -40.201 1509.09 -58 1557.15Z" fill="#27844C"/>
<rect width="5.22458" height="117.515" transform="matrix(0.880959 -0.473192 0.333808 0.942641 -28.7344 1456.22)" fill="#B1DF9C"/>
<rect width="5.02191" height="171.859" transform="matrix(0.999658 -0.0261357 0.017234 0.999851 62.5059 1392.17)" fill="#B1DF9C"/>
<rect width="5.03361" height="171.595" transform="matrix(0.992824 0.119582 -0.0791582 0.996862 101.776 1390.07)" fill="#B1DF9C"/>
<rect width="5.30889" height="165.062" transform="matrix(0.831061 0.556181 -0.403671 0.914904 204.883 1421.72)" fill="#B1DF9C"/>
</g>
<mask id="mask1_20_2982" style="mask-type:alpha" maskUnits="userSpaceOnUse" x="85" y="1483" width="215" height="83">
<path d="M85.9023 1565.83H300C300 1523.41 255.108 1483 246.821 1486.87C238.533 1490.74 238.533 1503.96 238.533 1503.96L227.483 1486.87C204.001 1481.57 171.541 1480.98 146.678 1496.3V1509.85C146.678 1509.85 138.391 1500.42 132.175 1502.19C125.959 1503.96 100.184 1539.11 85.9023 1565.83Z" fill="#27844C"/>
</mask>
<g mask="url(#mask1_20_2982)">
<path d="M85.9023 1565.83H300C300 1523.41 255.108 1483 246.821 1486.87C238.533 1490.74 238.533 1503.96 238.533 1503.96L227.483 1486.87C204.001 1481.57 171.541 1480.98 146.678 1496.3V1509.85C146.678 1509.85 138.391 1500.42 132.175 1502.19C125.959 1503.96 100.184 1539.11 85.9023 1565.83Z" fill="#185E8B"/>
<rect width="3.94035" height="69.1499" transform="matrix(0.937221 -0.348735 0.455163 0.890408 109.384 1509.73)" fill="#2FB5A6"/>
<rect width="4.02867" height="95.5398" transform="matrix(0.999836 -0.0181085 0.0248739 0.999691 182.592 1474.13)" fill="#2FB5A6"/>
<rect width="4.02372" height="95.7008" transform="matrix(0.996537 0.0831492 -0.113882 0.993494 214.102 1472.96)" fill="#2FB5A6"/>
<rect width="3.90197" height="99.5189" transform="matrix(0.907242 0.420609 -0.537205 0.843452 296.83 1490.55)" fill="#2FB5A6"/>
</g>
<g style="mix-blend-mode:multiply" opacity="0.5">
<ellipse cx="400" cy="1551.36" rx="11" ry="5.5" fill="url(#paint1_linear_20_2982)"/>
</g>
<g style="mix-blend-mode:multiply" opacity="0.5">
<ellipse cx="468.5" cy="1551.36" rx="25.5" ry="5.5" fill="url(#paint2_linear_20_2982)"/>
</g>
<g style="mix-blend-mode:multiply" opacity="0.5">
<ellipse cx="618.5" cy="1549.36" rx="90.5" ry="5.5" fill="url(#paint3_linear_20_2982)"/>
</g>
<g style="mix-blend-mode:multiply" opacity="0.5">
<ellipse cx="813.5" cy="1549.36" rx="71.5" ry="5.5" fill="url(#paint4_linear_20_2982)"/>
</g>
<g style="mix-blend-mode:multiply" opacity="0.5">
<ellipse cx="1033" cy="1569.86" rx="117" ry="10" fill="url(#paint5_linear_20_2982)"/>
</g>
<g filter="url(#filter0_d_20_2982)">
<path d="M924.753 1535.72L940.034 1514.18C943.296 1509.58 949.712 1508.59 954.213 1511.98L956.158 1513.45C960.622 1516.82 961.457 1523.19 958.011 1527.6L941.708 1548.43C938.249 1552.85 931.831 1553.56 927.492 1550L926.568 1549.24C922.507 1545.91 921.714 1540.01 924.753 1535.72Z" fill="#DD8831"/>
<path d="M1018.74 1530.87L1016.38 1530.78C1011.94 1530.61 1007.92 1533.39 1006.52 1537.61L1002.98 1548.22C1000.74 1554.94 1006 1561.8 1013.07 1561.37L1013.72 1561.33C1017.28 1561.11 1020.46 1559.01 1022.06 1555.82L1027.3 1545.33C1030.55 1538.83 1026 1531.14 1018.74 1530.87Z" fill="#DD8831"/>
<path d="M1070.96 1513.65C1072.56 1498 1065.73 1490.89 1060.55 1479.22C1043.14 1440.02 960.324 1456.18 951.288 1474.71C936.472 1505.1 933.081 1518.68 964.258 1531.76C993.147 1543.87 1066.66 1555.55 1070.96 1513.65Z" fill="#FD9223"/>
<path d="M939.254 1345.97C943.215 1403.2 952.803 1426.53 970.382 1467.92L939.358 1506.74C922.353 1454.17 910.287 1426.36 919.848 1356.35L939.254 1345.97Z" fill="#FD9223"/>
<path fill-rule="evenodd" clip-rule="evenodd" d="M938.749 1506.23C937.667 1502.89 936.608 1499.65 935.574 1496.49C920.851 1451.5 911.35 1422.46 919.352 1360.1L919.357 1360.09L923.849 1360.41C921.675 1400.36 947.17 1491.96 967.493 1506.42C974.271 1511.25 983.239 1512.55 992.383 1513.88C1008.93 1516.29 1026.05 1518.78 1031.85 1542.35C1005.53 1545.12 972.972 1537.94 957.514 1529.51C949.957 1525.39 944.958 1521.07 942.099 1516.42L938.749 1506.23Z" fill="#FEBB24"/>
<path d="M986.404 1502.5L977.563 1499.82C971.74 1498.05 965.705 1501.86 964.78 1507.87L957.349 1556.21C956.472 1561.92 960.6 1567.18 966.354 1567.69L969.35 1567.96C974.114 1568.38 978.508 1565.37 979.836 1560.77L993.112 1514.84C994.632 1509.59 991.642 1504.08 986.404 1502.5Z" fill="#FD9223"/>
<path d="M1040.96 1527.74L1039.35 1528.01C1034.14 1528.86 1030.49 1533.63 1031.02 1538.88L1033.06 1558.99C1033.68 1565.09 1039.6 1569.2 1045.54 1567.65L1046.91 1567.29C1051.64 1566.06 1054.78 1561.59 1054.34 1556.72L1052.54 1536.71C1052.02 1530.93 1046.69 1526.8 1040.96 1527.74Z" fill="#FD9223"/>
<path d="M934.552 1346.59C934.569 1354.2 925.802 1360.39 914.97 1360.42C904.137 1360.44 894.018 1357.74 894 1350.13C893.982 1342.52 902.749 1336.34 913.582 1336.31C924.414 1336.28 934.534 1338.98 934.552 1346.59Z" fill="#FD9223"/>
<path d="M939.256 1345.97C936.287 1328.57 921.283 1322.87 908.126 1336.86L931.49 1350.78L939.256 1345.97Z" fill="#FD9223"/>
<path d="M1157.5 1539.24C1111.21 1537.15 1084.13 1527.43 1060.82 1480.11C1060.37 1479.2 1058.99 1479.41 1058.88 1480.41L1052.61 1537.19C1052.56 1537.6 1052.79 1538 1053.16 1538.19C1098.64 1561.49 1120.76 1552.32 1157.76 1541.28C1158.85 1540.95 1158.64 1539.29 1157.5 1539.24Z" fill="#FD9223"/>
<path fill-rule="evenodd" clip-rule="evenodd" d="M917.794 1338.82C918.096 1337.87 918.905 1337.12 919.887 1336.63C920.942 1336.11 922.244 1335.85 923.487 1335.96C924.73 1336.07 925.942 1336.55 926.772 1337.53C927.606 1338.52 928.014 1339.96 927.74 1341.92C927.716 1342.09 927.554 1342.22 927.378 1342.19C927.203 1342.17 927.08 1342.01 927.105 1341.83C927.36 1340.01 926.97 1338.76 926.281 1337.95C925.589 1337.13 924.554 1336.7 923.43 1336.6C922.62 1336.53 921.777 1336.63 921.015 1336.87C922.508 1336.99 923.758 1338.15 923.938 1339.7C924.143 1341.46 922.883 1343.05 921.122 1343.26C919.362 1343.46 917.768 1342.2 917.563 1340.44C917.496 1339.87 917.585 1339.31 917.794 1338.82Z" fill="#585858"/>
</g>
<g filter="url(#filter1_d_20_2982)">
<path d="M775.002 1445.03L757.335 1463.65C761.24 1478.86 764.401 1486.42 771.538 1498.38L790.332 1469.97C781.71 1460.72 778.984 1455.15 775.002 1445.03Z" fill="#96A820"/>
<path d="M835.453 1481.4C824.973 1471.44 807.154 1468.31 788.513 1469.54C769.871 1470.76 769.546 1481.4 769.546 1481.4C769.546 1481.4 769.493 1493.46 772.231 1500.46C776.841 1512.24 788.041 1516 799.944 1520.29C815.256 1525.81 831.967 1523.8 840.562 1509.98C847.136 1499.41 845.932 1491.36 835.453 1481.4Z" fill="#96A820"/>
<path fill-rule="evenodd" clip-rule="evenodd" d="M800.867 1469.4C798.088 1469.27 795.255 1469.25 792.39 1469.35C791.46 1472.46 790.6 1476.53 791.202 1479.66C791.597 1481.71 792.127 1481.72 793.384 1481.74C793.775 1481.75 794.238 1481.76 794.789 1481.83C799.488 1482.46 800.642 1474.89 800.867 1469.4ZM826.856 1475.44C828.812 1476.43 830.647 1477.55 832.344 1478.8C831.494 1480.78 828.86 1486.2 825.36 1486.31C823.467 1486.37 823.279 1486.16 822.619 1485.42C822.469 1485.25 822.294 1485.06 822.069 1484.83C819.536 1482.28 824.311 1477.62 826.856 1475.44ZM810.786 1470.43C813.757 1470.93 816.619 1471.59 819.335 1472.43C817.421 1476.58 813.901 1483.65 811.99 1484.14C809.277 1484.83 807.835 1484.31 806.461 1482.35C805.468 1480.93 808.704 1474.09 810.786 1470.43Z" fill="#78861C"/>
<path d="M836.492 1515.09C829.563 1522.54 826.705 1476.99 834.413 1480.54C842.121 1484.09 855.198 1484.69 855.198 1484.69C855.198 1484.69 865.461 1486.55 868.796 1481.4C871.827 1476.73 871.48 1475.51 868.276 1472.92C861.365 1467.31 844.989 1464.44 848.097 1462.96C852.081 1461.05 870.524 1464.45 875.204 1467.03C879.74 1469.53 883.426 1472.04 884.644 1477.07C886.365 1484.18 883.432 1489.29 876.763 1493.27C863.175 1501.39 843.42 1507.65 836.492 1515.09Z" fill="#96A820"/>
<path d="M765.576 1482.27L773.79 1489.53C773.79 1489.53 772.688 1495.44 769.925 1497.52C767.521 1499.34 762.436 1499.34 762.436 1499.34C762.436 1499.34 762.224 1503.02 760.972 1504.27C760.626 1504.61 760.626 1504.58 759.96 1503.88C759.327 1503.21 759.071 1500.78 758.027 1500.85C757.151 1500.91 756.844 1502.47 756.122 1502.97C755.134 1503.66 755.343 1503.49 755.068 1503.21C752.967 1501.11 753.297 1497.98 755.068 1495.59C756.855 1493.17 762.436 1496.07 762.436 1493.41C762.436 1490.74 762.877 1485.38 765.576 1482.27Z" fill="#78861C"/>
<path d="M790.46 1528.04C788.074 1524.96 788.13 1518.48 788.14 1517.9C788.141 1517.87 788.142 1517.84 788.143 1517.81C788.536 1509.57 795.512 1511.8 800.316 1512.92C806.539 1514.38 798.76 1524.18 801.068 1529.27C801.334 1529.86 801.844 1530.41 802.409 1530.88C803.831 1532.06 805.035 1533.63 804.888 1535.47C804.712 1537.67 804.181 1540.53 802.668 1542.1C800.815 1544.02 799.111 1545.56 796.493 1545.04C795.089 1544.76 794.075 1544.42 793.317 1543.2C791.776 1540.73 798.346 1540.5 798.218 1537.59C798.145 1535.95 797.385 1535.11 796.412 1533.79C795.162 1532.09 791.752 1529.7 790.46 1528.04Z" fill="#78861C"/>
<path d="M796.788 1545.12C796.557 1544.24 796.24 1543.92 795.402 1543.64C794.162 1544.46 793.539 1544.93 793.41 1545.89C794.805 1546.01 795.522 1545.72 796.788 1545.12Z" fill="#ECECEC"/>
<path d="M794.103 1543.99C794.206 1543.44 793.951 1543.11 793.41 1542.52C792.369 1543.23 791.875 1543.64 791.938 1544.51C792.748 1544.7 793.228 1544.53 794.103 1543.99Z" fill="#ECECEC"/>
<path fill-rule="evenodd" clip-rule="evenodd" d="M823.79 1522.15C816.37 1524.01 807.966 1523.18 799.945 1520.29C799.64 1520.18 799.336 1520.07 799.032 1519.96L799.032 1519.96C787.472 1515.8 776.723 1511.94 772.231 1500.46C771.974 1499.8 771.742 1499.1 771.532 1498.37C766.607 1490.11 763.576 1483.96 760.887 1475.93C761.123 1475.75 761.382 1475.58 761.666 1475.43C768.498 1471.8 772.59 1479.08 777.067 1487.03C780.014 1492.27 783.128 1497.8 787.301 1500.72C792.068 1504.05 796.395 1505.11 800.915 1506.21C804.444 1507.07 808.09 1507.96 812.156 1509.98C813.483 1510.64 814.766 1511.08 815.98 1511.48C818.572 1512.35 820.846 1513.12 822.549 1515.79C823.634 1517.49 823.889 1519.86 823.79 1522.15Z" fill="#C5D26E"/>
<path d="M776.215 1511.98C774.606 1502.06 774.613 1496.77 783.632 1493.36C783.632 1493.36 795.495 1497.49 792.295 1504.21C789.095 1510.93 780.229 1513.94 775.594 1521.55C774.557 1523.25 773.963 1525.31 771.798 1526.96C771.453 1527.22 771.019 1527.02 770.412 1525.66C769.719 1524.1 772.468 1522.68 771.146 1521.55C769.66 1520.28 768.911 1523.55 767.467 1525.14C766.688 1526 765.995 1523.42 765.995 1523.42C766.09 1515.42 767.467 1513.97 776.215 1511.98Z" fill="#96A820"/>
<path d="M816.965 1526.52C814.606 1521.92 816.301 1513.44 816.437 1512.78C816.444 1512.75 816.45 1512.72 816.457 1512.69C818.976 1502.08 827.491 1506.68 833.453 1509.32C841.174 1512.73 828.682 1523.54 830.432 1530.72C830.701 1531.83 831.552 1532.94 832.422 1533.85C833.704 1535.18 834.547 1536.97 834.114 1538.76C833.415 1541.66 831.988 1545.9 829.372 1547.76C826.496 1549.8 823.91 1551.38 820.639 1550.06C818.885 1549.35 817.652 1548.67 816.965 1546.91C815.569 1543.32 824.154 1544.62 824.699 1540.81C825.006 1538.67 824.223 1537.4 823.284 1535.44C822.077 1532.93 818.235 1529 816.965 1526.52Z" fill="#96A820"/>
<path d="M817.958 1548.44C818.185 1547.01 817.891 1546.36 817.092 1545.32C814.687 1545.57 813.786 1546.18 813.628 1548.78C815.31 1549.29 816.261 1549.04 817.958 1548.44Z" fill="#ECECEC"/>
<path d="M817.092 1551.55C817.44 1548.96 818.985 1548.3 820.989 1548.44L822.115 1550.43C820.815 1551.49 819.189 1551.98 817.092 1551.55Z" fill="#ECECEC"/>
<path d="M823.154 1550.43C823.437 1549.7 823.732 1549.37 824.973 1549.13C826.11 1550.49 826.349 1551.16 825.233 1551.99C824.462 1551.87 824.02 1551.69 823.154 1550.43Z" fill="#ECECEC"/>
<path d="M749.978 1432.98C742.175 1438.7 736.373 1435.22 728.336 1441.38C722.384 1445.94 720.291 1453.19 723.498 1459.97C725.182 1463.53 726.161 1464.56 730.627 1467.1C735.094 1469.65 750.966 1467.13 764.617 1467.1C770.384 1467.09 776.55 1459.54 776.329 1456.66C777.49 1456.76 775.993 1446.2 773.911 1442.14C771.829 1438.08 758.966 1426.38 749.978 1432.98Z" fill="#96A820"/>
<path d="M737.919 1464.42C736.585 1464.02 736.035 1463.57 735.613 1462.14L738.441 1460.85C737.909 1462.47 737.77 1463.26 737.919 1464.42Z" fill="white"/>
<path d="M743.059 1461.96C741.371 1462.04 741.328 1461.29 741.278 1459.92L743.601 1459.26C743.601 1459.26 742.658 1460.99 743.059 1461.96Z" fill="white"/>
<path fill-rule="evenodd" clip-rule="evenodd" d="M730.685 1463.82C728.767 1463.85 726.713 1463.23 723.907 1461.63C723.667 1461.49 723.583 1461.19 723.72 1460.95C723.857 1460.71 724.163 1460.62 724.402 1460.76C727.129 1462.32 729 1462.85 730.666 1462.82C732.347 1462.78 733.881 1462.18 735.975 1461.31C736.054 1461.28 736.134 1461.25 736.214 1461.21C740.399 1459.48 746.479 1456.96 759.218 1456.65C759.494 1456.65 759.723 1456.87 759.73 1457.14C759.736 1457.42 759.518 1457.65 759.242 1457.65C746.687 1457.95 740.731 1460.42 736.614 1462.13C736.528 1462.17 736.442 1462.2 736.358 1462.24C734.292 1463.09 732.586 1463.78 730.685 1463.82Z" fill="#78861C"/>
<path fill-rule="evenodd" clip-rule="evenodd" d="M751.767 1440.41C752.063 1439.49 752.852 1438.76 753.81 1438.28C754.84 1437.77 756.112 1437.52 757.325 1437.62C758.539 1437.73 759.722 1438.2 760.533 1439.16C761.347 1440.12 761.746 1441.54 761.479 1443.44C761.455 1443.62 761.296 1443.74 761.125 1443.71C760.954 1443.69 760.834 1443.53 760.858 1443.36C761.107 1441.58 760.726 1440.36 760.054 1439.56C759.378 1438.76 758.367 1438.35 757.27 1438.25C756.479 1438.18 755.656 1438.28 754.912 1438.51C756.37 1438.63 757.59 1439.77 757.766 1441.27C757.966 1442.99 756.735 1444.55 755.016 1444.75C753.297 1444.95 751.741 1443.72 751.541 1442C751.476 1441.44 751.562 1440.9 751.767 1440.41Z" fill="#585858"/>
</g>
<g filter="url(#filter2_d_20_2982)">
<path d="M610.09 1482.59L612.996 1488.33C613.161 1488.65 613.49 1488.86 613.855 1488.88L620.659 1489.1C621.056 1489.11 621.423 1488.89 621.594 1488.53L624.223 1483.05C624.373 1482.73 624.35 1482.36 624.161 1482.07L617.761 1472.16C617.364 1471.55 616.464 1471.55 616.074 1472.17L610.136 1481.6C609.949 1481.9 609.932 1482.27 610.09 1482.59Z" fill="#F18A25"/>
<path d="M627.948 1483.39L628.346 1488.88C628.372 1489.24 628.595 1489.56 628.927 1489.71L634.214 1492.13C634.575 1492.3 635 1492.23 635.296 1491.97L639.168 1488.52C639.427 1488.29 639.548 1487.94 639.487 1487.6L637.71 1477.67C637.581 1476.95 636.749 1476.61 636.15 1477.03L628.371 1482.5C628.083 1482.7 627.923 1483.04 627.948 1483.39Z" fill="#F18A25"/>
<path d="M641.621 1490.79L640.986 1494.71C640.928 1495.07 641.07 1495.43 641.358 1495.66L644.667 1498.24C644.98 1498.48 645.407 1498.52 645.757 1498.33L649.028 1496.56C649.334 1496.4 649.533 1496.09 649.552 1495.74L649.958 1488.47C649.998 1487.74 649.268 1487.21 648.588 1487.49L642.238 1490.02C641.911 1490.15 641.677 1490.44 641.621 1490.79Z" fill="#F18A25"/>
<path d="M590.336 1489.55L590.909 1493.48C590.962 1493.84 590.814 1494.2 590.522 1494.42L587.174 1496.95C586.857 1497.19 586.429 1497.21 586.083 1497.02L582.839 1495.2C582.536 1495.03 582.342 1494.72 582.328 1494.37L582.037 1487.1C582.008 1486.37 582.747 1485.85 583.422 1486.13L589.732 1488.77C590.056 1488.9 590.285 1489.2 590.336 1489.55Z" fill="#F18A25"/>
<path d="M580.056 1496.67L581.456 1499.55C581.616 1499.87 581.584 1500.26 581.373 1500.56L579.422 1503.32C579.192 1503.64 578.793 1503.8 578.404 1503.72L575.49 1503.12C575.15 1503.05 574.87 1502.81 574.751 1502.48L572.752 1496.97C572.503 1496.28 573.051 1495.57 573.78 1495.63L579.245 1496.11C579.595 1496.14 579.903 1496.35 580.056 1496.67Z" fill="#F18A25"/>
<path d="M650.867 1498.11L649.468 1500.99C649.308 1501.32 649.34 1501.7 649.551 1502L651.502 1504.76C651.732 1505.08 652.131 1505.24 652.52 1505.16L655.434 1504.56C655.774 1504.49 656.054 1504.25 656.172 1503.92L658.172 1498.41C658.421 1497.72 657.872 1497.01 657.144 1497.07L651.679 1497.55C651.329 1497.58 651.021 1497.8 650.867 1498.11Z" fill="#F18A25"/>
<path d="M605.656 1483.56L604.717 1488.98C604.654 1489.34 604.401 1489.63 604.055 1489.75L598.554 1491.64C598.178 1491.76 597.762 1491.66 597.493 1491.37L593.983 1487.55C593.748 1487.29 593.662 1486.93 593.757 1486.6L596.51 1476.9C596.71 1476.2 597.572 1475.94 598.126 1476.42L605.324 1482.63C605.59 1482.86 605.716 1483.21 605.656 1483.56Z" fill="#F18A25"/>
<path d="M616.11 1533.13C613.412 1529.4 613.321 1525.8 613.736 1520.49C613.814 1519.49 614.395 1518.58 615.299 1518.15C620.809 1515.48 624.095 1516.16 628.311 1519.63C629.509 1520.62 629.628 1522.39 628.783 1523.69C627.272 1526.02 625.233 1529.72 625.331 1532.59C625.389 1534.3 625.857 1536.11 626.419 1537.71C627.184 1539.89 625.662 1542.45 623.353 1542.45H616.585C615.044 1542.45 613.574 1541.17 614.301 1539.81C614.576 1539.3 614.982 1538.8 615.546 1538.29C616.996 1536.96 617.261 1534.72 616.11 1533.13Z" fill="#239282"/>
<path d="M580.176 1532.44C580.651 1530.81 581.843 1529.09 583.054 1527.65C584.465 1525.98 584.072 1523.27 582.088 1522.35L578.355 1520.62C577.146 1520.06 575.713 1520.36 574.91 1521.43C573.413 1523.41 571.184 1526.75 570.655 1529.6C570.265 1531.69 569.919 1534.05 569.683 1535.77C569.485 1537.22 570.379 1538.58 571.778 1539L575.091 1539.99C576.872 1540.52 578.712 1539.32 579.038 1537.49C579.315 1535.93 579.697 1534.08 580.176 1532.44Z" fill="#239282"/>
<path d="M688.572 1520.93L685.373 1520.16C684.53 1519.96 684.319 1518.84 684.995 1518.3C687.686 1516.14 689.196 1514.01 690.577 1511.15C691.038 1510.19 692.477 1510.44 692.466 1511.5C692.426 1515.21 691.732 1517.76 689.574 1520.58C689.34 1520.89 688.946 1521.02 688.572 1520.93Z" fill="#F18A25"/>
<path d="M701.978 1521.8H700.297C699.234 1521.8 698.778 1520.1 699.492 1519.31C700.261 1518.46 700.744 1517.52 701.101 1516.44C701.417 1515.47 702.84 1515.35 703.103 1516.33C703.526 1517.9 703.579 1519.34 702.876 1521.2C702.736 1521.57 702.374 1521.8 701.978 1521.8Z" fill="#F18A25"/>
<path d="M554.968 1501.15C547.765 1496.11 545.124 1502.33 534.56 1507.16C531.201 1508.69 529.445 1507.64 528.317 1511.16C527.02 1515.21 529.758 1519.08 535.52 1519.32C541.283 1519.56 544.164 1520.84 552.327 1519.88C560.49 1518.92 563.852 1517.72 579.218 1525.88C594.584 1534.05 639.483 1529.96 656.05 1522.04C667.334 1523.24 710.792 1525.4 712.713 1522.04C714.633 1518.68 672.702 1525.88 650.287 1501.15C627.872 1476.42 587.141 1490.35 579.218 1501.15C571.295 1511.95 562.171 1506.19 554.968 1501.15Z" fill="#1EAB97"/>
<path fill-rule="evenodd" clip-rule="evenodd" d="M651.14 1524.01C645.183 1521.62 631.421 1519.94 615.396 1519.94C597.133 1519.94 581.81 1522.12 577.628 1525.05C578.143 1525.32 578.673 1525.59 579.218 1525.88C593.252 1533.34 631.92 1530.58 651.14 1524.01Z" fill="#7CD9CC"/>
<path d="M585.127 1534.38C585.145 1531.38 583.863 1527.73 582.693 1525.02C581.866 1523.11 582.989 1520.82 585.041 1520.48L591.589 1519.38C592.983 1519.15 594.347 1519.92 594.795 1521.26C595.843 1524.39 597.482 1530.14 597.088 1534.38C596.722 1538.32 594.393 1543.31 593.124 1545.78C592.633 1546.74 591.64 1547.31 590.564 1547.31H585.976C583.676 1547.31 582.169 1544.79 583.048 1542.67C584.091 1540.15 585.111 1537.01 585.127 1534.38Z" fill="#1EAB97"/>
<path d="M631.507 1537.15C627.741 1532.34 627.654 1527.85 628.205 1520.97C628.285 1519.97 628.866 1519.07 629.764 1518.62C636.739 1515.15 640.754 1516.08 646.097 1520.63C647.276 1521.63 647.402 1523.39 646.545 1524.68C644.716 1527.43 641.969 1532.2 642.093 1535.87C642.176 1538.29 642.939 1540.89 643.766 1543.03C644.595 1545.18 643.074 1547.73 640.767 1547.73H631.056C629.514 1547.73 628.065 1546.49 628.627 1545.05C629.009 1544.08 629.746 1543.19 630.951 1542.2C632.471 1540.96 632.716 1538.69 631.507 1537.15Z" fill="#1EAB97"/>
<path fill-rule="evenodd" clip-rule="evenodd" d="M546.276 1505.72C546.467 1505.12 546.977 1504.65 547.595 1504.34C548.26 1504.01 549.082 1503.85 549.866 1503.91C550.65 1503.98 551.414 1504.29 551.938 1504.91C552.464 1505.53 552.721 1506.44 552.549 1507.67C552.533 1507.78 552.431 1507.86 552.32 1507.85C552.209 1507.83 552.132 1507.73 552.148 1507.62C552.309 1506.47 552.062 1505.68 551.628 1505.17C551.192 1504.65 550.539 1504.38 549.83 1504.32C549.319 1504.27 548.789 1504.34 548.308 1504.49C549.249 1504.57 550.037 1505.3 550.15 1506.27C550.28 1507.38 549.485 1508.39 548.374 1508.52C547.264 1508.65 546.259 1507.85 546.13 1506.74C546.088 1506.38 546.143 1506.03 546.276 1505.72Z" fill="#585858"/>
</g>
<mask id="mask2_20_2982" style="mask-type:alpha" maskUnits="userSpaceOnUse" x="1279" y="1421" width="354" height="179">
<path d="M1592.34 1599.5C1578.26 1599.5 1531.57 1598.42 1488.13 1599.5H1365.96C1365.96 1599.5 1335.68 1565 1317.38 1559.72C1299.07 1554.43 1286.62 1535.29 1279 1505.85C1279 1505.85 1296.96 1509.37 1309.63 1512.54C1322.3 1515.71 1346.25 1524.51 1346.25 1524.51C1346.25 1524.51 1319.14 1512.89 1311.39 1497.05C1303.64 1481.2 1292.03 1446.7 1292.03 1446.7C1292.03 1446.7 1314.91 1461.49 1346.25 1467.47C1377.58 1473.46 1393.78 1497.05 1393.78 1497.05C1393.78 1497.05 1392.01 1472.4 1397.3 1457.62C1402.58 1442.83 1414.9 1421 1414.9 1421C1414.9 1421 1446.94 1457.26 1446.94 1482.26C1446.94 1507.26 1435.67 1534.01 1435.67 1534.01C1435.67 1534.01 1456.8 1504.79 1468.41 1493.53C1480.03 1482.26 1499.4 1479.44 1516.3 1482.26C1533.2 1485.08 1553.97 1479.44 1553.97 1479.44C1553.97 1479.44 1543.41 1498.46 1535.66 1507.26C1527.91 1516.06 1502.57 1531.55 1495.17 1538.94C1487.78 1546.34 1464.19 1583.3 1464.19 1583.3C1464.19 1583.3 1495.17 1550.91 1514.18 1548.1C1533.2 1545.28 1566.64 1552.32 1590.58 1567.46C1614.52 1582.6 1632.13 1592.11 1632.13 1592.11C1632.13 1592.11 1606.43 1599.5 1592.34 1599.5Z" fill="#D9D9D9"/>
</mask>
<g mask="url(#mask2_20_2982)">
<path d="M1592.34 1599.5C1578.26 1599.5 1531.57 1598.42 1488.13 1599.5H1365.96C1365.96 1599.5 1335.68 1565 1317.38 1559.72C1299.07 1554.43 1286.62 1535.29 1279 1505.85C1279 1505.85 1296.96 1509.37 1309.63 1512.54C1322.3 1515.71 1346.25 1524.51 1346.25 1524.51C1346.25 1524.51 1319.14 1512.89 1311.39 1497.05C1303.64 1481.2 1292.03 1446.7 1292.03 1446.7C1292.03 1446.7 1314.91 1461.49 1346.25 1467.47C1377.58 1473.46 1393.78 1497.05 1393.78 1497.05C1393.78 1497.05 1392.01 1472.4 1397.3 1457.62C1402.58 1442.83 1414.9 1421 1414.9 1421C1414.9 1421 1446.94 1457.26 1446.94 1482.26C1446.94 1507.26 1435.67 1534.01 1435.67 1534.01C1435.67 1534.01 1456.8 1504.79 1468.41 1493.53C1480.03 1482.26 1499.4 1479.44 1516.3 1482.26C1533.2 1485.08 1553.97 1479.44 1553.97 1479.44C1553.97 1479.44 1543.41 1498.46 1535.66 1507.26C1527.91 1516.06 1502.57 1531.55 1495.17 1538.94C1487.78 1546.34 1464.19 1583.3 1464.19 1583.3C1464.19 1583.3 1495.17 1550.91 1514.18 1548.1C1533.2 1545.28 1566.64 1552.32 1590.58 1567.46C1614.52 1582.6 1632.13 1592.11 1632.13 1592.11C1632.13 1592.11 1606.43 1599.5 1592.34 1599.5Z" fill="#E0939E"/>
<path d="M1349.41 1548.8C1337.28 1533.65 1325.38 1525.18 1303.64 1510.07C1215.41 1480.25 1279.91 1553.37 1303.64 1611.82H1630.72V1580.49C1596.07 1565.53 1573.09 1561.53 1527.21 1560.42C1548.36 1566.66 1555.6 1571.23 1563.83 1580.49C1494.47 1553.03 1475.1 1573.45 1432.85 1606.19C1444.31 1571.21 1451.59 1552.75 1478.27 1538.24C1463.85 1541.55 1455.57 1545.42 1440.25 1557.96C1453.98 1524.51 1467.66 1487.07 1509.25 1492.82C1494.01 1496.32 1492.12 1506.87 1487.43 1519.58C1501.86 1503.03 1525.13 1490.64 1553.26 1480.15C1510.13 1471.99 1487.02 1476.51 1446.94 1494.23C1435.59 1524.25 1428.23 1537.94 1412.79 1555.14C1422.28 1514.66 1426.96 1518.41 1424.05 1483.67C1419.96 1507.61 1416.59 1521.65 1406.8 1548.8C1397.17 1489.18 1398.99 1461.27 1414.55 1421L1371.24 1470.64C1390.67 1501.52 1394.91 1521.92 1388.14 1565C1360.68 1511.48 1327.59 1514.29 1315.62 1483.67C1327.88 1491.36 1335.44 1493.09 1349.41 1494.23C1322.83 1481.89 1312.85 1467.43 1290.62 1444.24C1306.87 1518.18 1320.54 1511.83 1346.25 1524.51C1360.05 1535.03 1378.07 1557.1 1400.11 1602.67H1380.75C1361.87 1574.97 1353.71 1558 1321.6 1538.24C1329.32 1537.77 1335.48 1540.21 1349.41 1548.8Z" fill="#C56593"/>
</g>
<g filter="url(#filter3_d_20_2982)">
<path d="M387.394 1531.8C392.222 1527.99 394.044 1525.09 396.529 1519.27C396.046 1518.99 394.892 1519 394.379 1519.29C389.833 1521.87 388.169 1524.74 384.574 1528.17L387.394 1531.8Z" fill="#C49E80"/>
<path d="M387.394 1531.8C392.222 1527.99 394.044 1525.09 396.529 1519.27C396.046 1518.99 394.892 1519 394.379 1519.29C389.833 1521.87 388.169 1524.74 384.574 1528.17L387.394 1531.8Z" fill="url(#paint6_linear_20_2982)"/>
<path d="M384.189 1533.75C384.451 1533.98 387.037 1532.7 387.437 1531.66C386.806 1529.57 386.036 1529.01 384.563 1528.14C384.563 1528.14 382.447 1530.95 382.624 1531.38C382.801 1531.81 383.332 1531.81 383.953 1531.75C383.87 1532.57 383.928 1533.52 384.189 1533.75Z" fill="#776969"/>
<path d="M394.524 1518.13L396.273 1517.08C396.464 1522.59 394.888 1529.28 394.978 1532.9C395.1 1537.82 386.949 1540.67 387.056 1536.83C387.162 1533 389.51 1523.67 394.524 1518.13Z" fill="#485199"/>
<path d="M392.487 1535.42L398.076 1536.32C397.257 1540.63 396.843 1543.24 396.169 1548.21L391.269 1547.42C391.197 1541.28 390.748 1536.74 392.487 1535.42Z" fill="#C49E80"/>
<path d="M392.487 1535.42L398.076 1536.32C397.257 1540.63 396.843 1543.24 396.169 1548.21L391.269 1547.42C391.197 1541.28 390.748 1536.74 392.487 1535.42Z" fill="url(#paint7_linear_20_2982)"/>
<path d="M392.007 1551.27C391.605 1551.26 390.707 1547.9 391.359 1546.71C393.515 1546.17 394.646 1546.21 396.463 1547.11C396.463 1547.11 395.491 1551.09 394.967 1551.32C394.444 1551.55 394.049 1551.14 393.637 1550.62C393.113 1551.18 392.409 1551.28 392.007 1551.27Z" fill="#776969"/>
<path d="M399.508 1535.31L395.022 1538.77C397.798 1542.16 399.407 1544.26 402.369 1548.31L406.302 1545.28C403.435 1539.85 401.668 1535.65 399.508 1535.31Z" fill="#C49E80"/>
<path d="M407.489 1549.02C407.838 1548.82 407.024 1545.43 405.885 1544.7C403.732 1545.26 402.757 1545.83 401.589 1547.49C401.589 1547.49 404.343 1550.52 404.911 1550.47C405.48 1550.43 405.634 1549.88 405.748 1549.23C406.472 1549.46 407.139 1549.22 407.489 1549.02Z" fill="#776969"/>
<path d="M403.113 1518.02L394.279 1518.72C394.279 1518.72 389.064 1528.65 389.665 1534.63C390.266 1540.6 397.929 1539.74 397.929 1539.74C397.929 1539.74 405.592 1540.6 406.193 1534.63C406.794 1528.65 403.113 1518.02 403.113 1518.02Z" fill="#C49E80"/>
<path d="M403.113 1518.02L394.279 1518.72C394.279 1518.72 389.064 1528.65 389.665 1534.63C390.266 1540.6 397.929 1539.74 397.929 1539.74C397.929 1539.74 405.592 1540.6 406.193 1534.63C406.794 1528.65 403.113 1518.02 403.113 1518.02Z" fill="url(#paint8_linear_20_2982)"/>
<path d="M403.699 1517.38L400.058 1518.66C400.058 1518.66 399.319 1521.75 398.695 1525.71C398.198 1528.86 397.249 1531.61 397.433 1534.25C397.846 1540.23 394.31 1539.99 394.31 1539.99C396.335 1540.35 404.123 1540.54 405.619 1539.46C406.497 1538.83 407.433 1536.43 407.433 1534.25C407.433 1532.08 406.794 1528.86 406.297 1525.71C405.672 1521.75 403.699 1517.38 403.699 1517.38Z" fill="#485199"/>
<path d="M397.12 1518.07L400.612 1517.6C401.423 1523.05 400.613 1529.88 401.112 1533.47C401.788 1538.34 393.144 1542.33 392.817 1538.5C392.491 1534.7 394.821 1526.33 397.07 1518.25L397.12 1518.07Z" fill="#485199"/>
<path d="M397.015 1524.21C397.046 1523.92 397.339 1523.7 397.625 1523.75C397.679 1523.76 397.729 1523.78 397.774 1523.8L397.897 1523.88C398.265 1524.1 398.468 1524.5 398.434 1524.95L398.337 1526.23C398.272 1527.09 397.47 1527.87 397.003 1527.2C396.857 1526.99 396.756 1526.61 396.786 1526.34L397.015 1524.21Z" fill="#747ECB"/>
<path d="M398.66 1524.68C398.654 1524.11 397.189 1523.07 397.023 1523.32C396.858 1523.58 396.469 1525.93 397.043 1526.07C397.618 1526.21 398.665 1525.26 398.66 1524.68Z" fill="#5E69C5"/>
<path d="M395.744 1531.12C395.787 1530.76 396.208 1530.55 396.498 1530.75L396.792 1530.99C397.472 1531.54 397.813 1532.4 397.706 1533.3L397.519 1534.88C397.383 1536.02 396.301 1537.12 395.703 1536.18C395.471 1535.82 395.261 1535.19 395.313 1534.75L395.744 1531.12Z" fill="#747ECB"/>
<path d="M398.098 1532.53C398.125 1531.71 396.056 1529.89 395.802 1530.24C395.548 1530.58 394.864 1534.05 395.684 1534.32C396.504 1534.59 398.07 1533.36 398.098 1532.53Z" fill="#5E69C5"/>
<path d="M396.806 1498.06C394.535 1498.62 395.22 1502.65 395.22 1502.65L398.524 1505.02C398.524 1505.02 403.027 1503.1 402.532 1500.07C402.037 1497.04 401.034 1495.83 400.152 1495.89C399.27 1495.96 399.077 1497.51 396.806 1498.06Z" fill="#C49E80"/>
<path d="M396.806 1498.06C394.535 1498.62 395.22 1502.65 395.22 1502.65L398.524 1505.02C398.524 1505.02 403.027 1503.1 402.532 1500.07C402.037 1497.04 401.034 1495.83 400.152 1495.89C399.27 1495.96 399.077 1497.51 396.806 1498.06Z" fill="url(#paint9_linear_20_2982)"/>
<path d="M398.096 1501.3C396.785 1501.67 396.941 1503.33 396.941 1503.33L398.668 1504.15C398.668 1504.15 401.315 1503.08 401.209 1501.83C401.102 1500.57 400.606 1500.12 400.105 1500.2C399.605 1500.27 399.408 1500.94 398.096 1501.3Z" fill="#E1C7B3"/>
<path d="M407.916 1496.04C406.364 1497.2 399.062 1501.63 399.292 1502.18L397.942 1500.06C397.942 1500.06 400.283 1496.06 401.032 1495.1C401.781 1494.14 402.975 1492.75 403.576 1493.52C404.176 1494.28 401.513 1497.06 402.488 1497.35C403.463 1497.64 406.773 1493.42 407.756 1492.88C408.739 1492.34 409.467 1494.88 407.916 1496.04Z" fill="#776969"/>
<circle r="10.4554" transform="matrix(-0.964969 -0.262364 -0.262364 0.964969 398.119 1510.39)" fill="#C49E80"/>
<path d="M404.843 1502.7C404.843 1502.7 404.843 1502.7 404.843 1502.7L404.904 1500.01C404.904 1500.01 408.057 1497.38 409.117 1496.78C410.177 1496.18 411.818 1495.35 412.094 1496.31C412.369 1497.26 408.838 1498.8 409.644 1499.46C410.449 1500.11 415.123 1497.49 416.247 1497.37C417.372 1497.26 417.103 1499.92 415.216 1500.39C413.334 1500.86 404.881 1502.09 404.843 1502.7L404.843 1502.7Z" fill="#776969"/>
<path fill-rule="evenodd" clip-rule="evenodd" d="M388.076 1515.15C384.861 1513.76 384.855 1510.17 385.935 1508C386.451 1506.97 387.477 1506.77 388.758 1507C390.228 1507.58 390.868 1509.26 391.039 1511.16C391.248 1513.49 390.641 1515.5 388.991 1515.53C388.652 1515.39 388.344 1515.26 388.076 1515.15Z" fill="#E1C7B3"/>
<path d="M386.154 1509.66C386.597 1509.56 388.167 1509.05 387.683 1508.47C387.467 1508.21 386.177 1508.59 385.813 1508.48C385.528 1509.52 385.159 1510.07 386.154 1509.66Z" fill="#776969"/>
<path fill-rule="evenodd" clip-rule="evenodd" d="M386.205 1508.24C386.024 1508.25 385.923 1508.25 385.886 1508.24L385.639 1508.16L385.571 1508.41C385.52 1508.6 385.466 1508.77 385.417 1508.93C385.4 1508.98 385.383 1509.03 385.367 1509.09C385.311 1509.27 385.256 1509.46 385.253 1509.61C385.252 1509.69 385.263 1509.79 385.331 1509.89C385.407 1509.99 385.517 1510.03 385.617 1510.04C385.711 1510.05 385.81 1510.03 385.906 1510.01C386 1509.98 386.108 1509.94 386.23 1509.9C386.475 1509.84 386.983 1509.68 387.386 1509.46C387.588 1509.35 387.798 1509.21 387.919 1509.02C387.983 1508.93 388.029 1508.81 388.024 1508.67C388.019 1508.54 387.963 1508.41 387.875 1508.31C387.8 1508.22 387.698 1508.18 387.618 1508.16C387.534 1508.13 387.443 1508.13 387.355 1508.13C387.178 1508.12 386.97 1508.14 386.773 1508.17C386.71 1508.18 386.649 1508.18 386.59 1508.19C386.453 1508.21 386.324 1508.23 386.205 1508.24ZM387.502 1508.64C387.523 1508.67 387.524 1508.69 387.524 1508.69C387.524 1508.7 387.524 1508.71 387.501 1508.75C387.45 1508.83 387.331 1508.92 387.146 1509.02C386.786 1509.22 386.306 1509.37 386.1 1509.41L386.079 1509.42L386.059 1509.42C385.939 1509.47 385.848 1509.51 385.778 1509.52C385.773 1509.53 385.769 1509.53 385.765 1509.53C385.779 1509.46 385.805 1509.36 385.845 1509.23C385.859 1509.19 385.875 1509.14 385.892 1509.08C385.924 1508.98 385.96 1508.87 385.996 1508.75C386.081 1508.75 386.169 1508.74 386.25 1508.73C386.379 1508.72 386.523 1508.7 386.664 1508.69C386.722 1508.68 386.778 1508.67 386.833 1508.66C387.031 1508.64 387.208 1508.62 387.346 1508.62C387.415 1508.63 387.462 1508.63 387.492 1508.64C387.496 1508.64 387.499 1508.64 387.502 1508.64ZM385.754 1509.63C385.754 1509.63 385.754 1509.63 385.754 1509.63L385.754 1509.63Z" fill="#776969"/>
<path fill-rule="evenodd" clip-rule="evenodd" d="M385.702 1509.35C385.568 1509.32 385.431 1509.4 385.395 1509.53L384.994 1511L384.992 1511.03C384.961 1511.52 385.066 1511.91 385.292 1512.2C385.519 1512.48 385.844 1512.64 386.192 1512.69C386.876 1512.79 387.702 1512.52 388.318 1512.04C388.427 1511.95 388.447 1511.8 388.362 1511.69C388.277 1511.58 388.12 1511.56 388.011 1511.64C387.474 1512.06 386.783 1512.27 386.266 1512.2C386.014 1512.16 385.816 1512.05 385.686 1511.89C385.557 1511.72 385.47 1511.47 385.49 1511.09L385.877 1509.66C385.914 1509.53 385.835 1509.39 385.702 1509.35Z" fill="#776969"/>
<ellipse rx="1.39584" ry="2.1713" transform="matrix(-0.964969 -0.262364 -0.262364 0.964969 392.38 1506.65)" fill="#372831"/>
<path d="M404.93 1498.19C402.746 1497.36 401.015 1501.07 401.015 1501.07L402.385 1504.89C402.385 1504.89 407.18 1505.88 408.498 1503.1C409.815 1500.32 409.678 1498.76 408.916 1498.31C408.154 1497.86 407.114 1499.03 404.93 1498.19Z" fill="#C49E80"/>
<path d="M404.93 1498.19C402.746 1497.36 401.015 1501.07 401.015 1501.07L402.385 1504.89C402.385 1504.89 407.18 1505.88 408.498 1503.1C409.815 1500.32 409.678 1498.76 408.916 1498.31C408.154 1497.86 407.114 1499.03 404.93 1498.19Z" fill="url(#paint10_linear_20_2982)"/>
<path d="M404.147 1501.59C402.861 1501.15 402.043 1502.61 402.043 1502.61L403.001 1504.26C403.001 1504.26 405.785 1504.89 406.41 1503.79C407.035 1502.7 406.885 1502.05 406.429 1501.83C405.973 1501.6 405.433 1502.04 404.147 1501.59Z" fill="#E1C7B3"/>
<path d="M412.626 1533.94C409.892 1528.43 408.228 1525.88 403.044 1522.24C402.67 1522.66 401.959 1523.75 401.68 1524.32C400.501 1526.73 405.876 1531.72 408.497 1535.95L412.626 1533.94Z" fill="#C49E80"/>
<path d="M413.873 1537.48C414.15 1537.27 413.434 1534.47 412.494 1533.87C410.326 1534.06 409.614 1534.69 408.465 1535.96C408.465 1535.96 410.77 1538.6 411.227 1538.52C411.685 1538.44 411.794 1537.92 411.868 1537.3C412.649 1537.55 413.596 1537.69 413.873 1537.48Z" fill="#776969"/>
</g>
<g filter="url(#filter4_d_20_2982)">
<path d="M452.779 1550.27C457.266 1548.7 460.642 1544.26 464.102 1540.59L453.466 1533.86C453.466 1533.86 443.92 1545.34 445.164 1546.68C446.407 1548.02 449.216 1551.52 452.779 1550.27Z" fill="url(#paint11_linear_20_2982)"/>
<path d="M457.48 1525.57C460.285 1522.61 466.264 1515.33 463.226 1512.46C459.04 1508.49 454.606 1511.39 449.384 1517.99C443.976 1524.82 443.144 1528.59 445.679 1530.99C448.215 1533.39 449.786 1533.69 457.48 1525.57Z" fill="url(#paint12_linear_20_2982)"/>
<ellipse rx="3.10041" ry="3.20732" transform="matrix(-1 0 0 1 479.731 1534.37)" fill="#B39379"/>
<path d="M452.079 1525.49C450.286 1536.7 459.575 1544.59 467.437 1544.14C475.3 1543.69 483.189 1532.52 478.613 1518.4C472.964 1500.98 473.057 1504.74 465.194 1505.19C457.332 1505.65 454.785 1508.57 452.079 1525.49Z" fill="#C49E80"/>
<path fill-rule="evenodd" clip-rule="evenodd" d="M458.594 1541.35C454.14 1538.16 450.963 1532.46 452.079 1525.49C453.161 1518.72 454.218 1514.19 455.599 1511.17C459.752 1512.09 463.25 1518.37 463.698 1526.15C464.099 1533.11 461.934 1539.16 458.594 1541.35Z" fill="#E1C7B3"/>
<path d="M481.62 1547.47C482.306 1542.23 479.489 1536.88 477.498 1531.78C471.249 1531.26 468.442 1532.76 465.627 1541.03C465.627 1541.03 472.026 1554.39 474.037 1553.7C476.048 1553 481.075 1551.64 481.62 1547.47Z" fill="url(#paint13_linear_20_2982)"/>
<path d="M447.692 1496.95C447.155 1500.81 448.542 1506.35 453.157 1506.99C457.772 1507.63 470.351 1508.8 470.887 1504.94C471.424 1501.08 462.228 1495.15 457.613 1494.51C452.999 1493.87 448.229 1493.09 447.692 1496.95Z" fill="#C49E80"/>
<path d="M450.806 1493.8C451.326 1502.82 454.171 1508.28 463.602 1507.73C473.034 1507.19 482.599 1501.02 482.079 1492C481.56 1482.98 473.493 1476.11 464.061 1476.65C454.63 1477.2 450.287 1484.78 450.806 1493.8Z" fill="#C59E80"/>
<ellipse rx="18.5747" ry="5.90145" transform="matrix(-0.89334 -0.449381 -0.449381 0.89334 470.044 1483.99)" fill="#FFD80B"/>
<path d="M463.016 1476.58C461.941 1478.72 465.087 1481.3 469.864 1483.71C474.642 1486.11 479.241 1487.42 480.316 1485.28C481.391 1483.15 479.823 1476.62 475.045 1474.21C470.268 1471.81 464.09 1474.45 463.016 1476.58Z" fill="url(#paint14_linear_20_2982)"/>
<path d="M461.786 1476.88C463.78 1471.56 468.58 1473.88 468.649 1480.02C468.674 1482.23 466.024 1482.95 464.419 1481.44L462.545 1479.66C461.785 1478.94 461.419 1477.86 461.786 1476.88Z" fill="#A78B75"/>
<path fill-rule="evenodd" clip-rule="evenodd" d="M461.969 1478.92C463.314 1474.05 466.203 1475.36 465.658 1482.14C465.22 1482.02 464.791 1481.79 464.419 1481.44L462.545 1479.66C462.313 1479.44 462.118 1479.19 461.969 1478.92Z" fill="#E1C7B3"/>
<path d="M486.69 1506.71C486.014 1505.85 485.054 1505.25 483.976 1505.06C480.144 1504.39 477.861 1504.97 475.384 1507.03C474.295 1507.94 473.808 1509.37 473.929 1510.78C474.608 1518.67 475.932 1523.41 478.822 1529.61C479.55 1531.17 481.068 1532.26 482.791 1532.33C485.484 1532.44 487.622 1532.06 490.421 1530.09C491.403 1529.4 492.014 1528.3 492.176 1527.11C493.389 1518.15 491.851 1513.29 486.69 1506.71Z" fill="#E67070"/>
<path d="M473.551 1509.18C473.91 1512.64 479.65 1516.18 483.585 1515.77C495.308 1515.84 491.08 1511.87 490.06 1508.76C488.801 1504.91 486.22 1502.81 482.285 1503.22C478.35 1503.63 473.192 1505.71 473.551 1509.18Z" fill="#D94B4B"/>
<path d="M481.859 1503.26C487.043 1503.91 490.709 1514.14 490.138 1518.85L488.8 1519.42C489.487 1514.56 485.881 1504.67 480.488 1503.51C481.133 1503.32 481.341 1503.31 481.859 1503.26Z" fill="#D9D9D9"/>
<rect width="2.82066" height="1.8692" rx="0.934599" transform="matrix(-0.939777 0.341788 0.341788 0.939777 488.577 1509.23)" fill="#D9D9D9"/>
<rect width="2.82066" height="1.8692" rx="0.934599" transform="matrix(-0.979446 0.201707 0.201707 0.979446 490.775 1518.43)" fill="#D9D9D9"/>
<path d="M471.88 1520.98C473.592 1524.78 478.147 1533.26 482.047 1531.51C487.42 1529.09 486.402 1523.77 482.194 1516.27C477.837 1508.51 474.594 1506.25 471.34 1507.72C468.085 1509.18 467.185 1510.55 471.88 1520.98Z" fill="url(#paint15_linear_20_2982)"/>
<path d="M454.493 1507.13C461.641 1504.28 465.996 1504.59 473.305 1505.14C474.586 1502.56 476.793 1502.43 478.738 1502.79C478.826 1504.66 478.644 1504.91 476.557 1505.81C479.107 1505.92 479.053 1506.91 478.864 1508.68C477.374 1508.33 475.602 1507.88 474.032 1506.6C466.853 1512 462.014 1515.57 454.238 1517.08C451.801 1515.43 451.947 1514.3 454.246 1512.01C454.155 1510.54 454.43 1510.11 455.636 1510.22C454.12 1509.01 453.863 1508.33 454.493 1507.13Z" fill="#FFD80B"/>
<path fill-rule="evenodd" clip-rule="evenodd" d="M455.082 1509.75C459.321 1510.19 461.518 1509.65 464.584 1508.88C465.42 1508.67 466.321 1508.45 467.345 1508.22C465.958 1508.65 464.896 1509.08 463.935 1509.48C461.839 1510.33 460.231 1510.99 456.806 1510.95L455.561 1510.21C455.586 1510.21 455.611 1510.22 455.636 1510.22C455.428 1510.05 455.244 1509.9 455.082 1509.75ZM454.245 1512C457.351 1512.34 459.622 1512.01 462.952 1511.05C460.953 1511.81 460.54 1511.94 457.774 1512.42C455.439 1512.83 454.458 1512.24 454.209 1512.05C454.221 1512.03 454.233 1512.02 454.245 1512.01C454.245 1512.01 454.245 1512 454.245 1512Z" fill="black" fill-opacity="0.07"/>
<ellipse rx="1.60366" ry="2.9935" transform="matrix(-0.998346 0.0574952 0.0574952 0.998346 455.734 1493.84)" fill="#372831"/>
<path fill-rule="evenodd" clip-rule="evenodd" d="M453.157 1506.99C448.542 1506.35 447.156 1500.81 447.692 1496.95C447.949 1495.1 449.175 1494.32 450.89 1494.07C452.98 1494.29 454.436 1496.57 455.387 1499.44C456.547 1502.95 456.55 1506.34 454.469 1507.16C453.984 1507.1 453.543 1507.05 453.157 1506.99Z" fill="#E1C7B3"/>
<path d="M474.265 1525.54C470.053 1517.98 468.595 1512.84 474.388 1507.22L474.163 1507.02C467.339 1512.72 468.603 1517.49 474.265 1525.54Z" fill="#D94B4B"/>
<path fill-rule="evenodd" clip-rule="evenodd" d="M447.872 1501.25C447.936 1501.54 448.011 1501.83 448.097 1502.11C448.423 1502.36 448.706 1502.57 448.962 1502.72C449.314 1502.93 449.641 1503.06 449.995 1503.07C450.347 1503.08 450.686 1502.97 451.058 1502.8C451.427 1502.62 451.859 1502.36 452.395 1502.04C452.546 1501.95 452.595 1501.75 452.503 1501.6C452.411 1501.45 452.214 1501.4 452.062 1501.49C451.518 1501.82 451.117 1502.06 450.784 1502.22C450.454 1502.37 450.221 1502.43 450.014 1502.43C449.809 1502.42 449.59 1502.35 449.291 1502.17C448.987 1501.99 448.625 1501.71 448.135 1501.32C448.058 1501.26 447.962 1501.24 447.872 1501.25Z" fill="#776969"/>
<path fill-rule="evenodd" clip-rule="evenodd" d="M447.655 1497.25C447.666 1497.15 447.678 1497.05 447.692 1496.95C447.823 1496.01 448.207 1495.34 448.78 1494.88C449.346 1494.85 450.083 1494.89 450.39 1495.29C451.4 1496.59 448.476 1497.47 447.655 1497.25Z" fill="#776969"/>
</g>
</g>
<defs>
<filter id="filter0_d_20_2982" x="892" y="1329" width="268.476" height="242.996" filterUnits="userSpaceOnUse" color-interpolation-filters="sRGB">
<feFlood flood-opacity="0" result="BackgroundImageFix"/>
<feColorMatrix in="SourceAlpha" type="matrix" values="0 0 0 0 0 0 0 0 0 0 0 0 0 0 0 0 0 0 127 0" result="hardAlpha"/>
<feOffset dy="2"/>
<feGaussianBlur stdDeviation="1"/>
<feComposite in2="hardAlpha" operator="out"/>
<feColorMatrix type="matrix" values="0 0 0 0 0 0 0 0 0 0 0 0 0 0 0 0 0 0 0.25 0"/>
<feBlend mode="normal" in2="BackgroundImageFix" result="effect1_dropShadow_20_2982"/>
<feBlend mode="normal" in="SourceGraphic" in2="effect1_dropShadow_20_2982" result="shape"/>
</filter>
<filter id="filter1_d_20_2982" x="720" y="1431" width="167.127" height="124.987" filterUnits="userSpaceOnUse" color-interpolation-filters="sRGB">
<feFlood flood-opacity="0" result="BackgroundImageFix"/>
<feColorMatrix in="SourceAlpha" type="matrix" values="0 0 0 0 0 0 0 0 0 0 0 0 0 0 0 0 0 0 127 0" result="hardAlpha"/>
<feOffset dy="2"/>
<feGaussianBlur stdDeviation="1"/>
<feComposite in2="hardAlpha" operator="out"/>
<feColorMatrix type="matrix" values="0 0 0 0 0 0 0 0 0 0 0 0 0 0 0 0 0 0 0.25 0"/>
<feBlend mode="normal" in2="BackgroundImageFix" result="effect1_dropShadow_20_2982"/>
<feBlend mode="normal" in="SourceGraphic" in2="effect1_dropShadow_20_2982" result="shape"/>
</filter>
<filter id="filter2_d_20_2982" x="526" y="1471.7" width="188.776" height="80.0264" filterUnits="userSpaceOnUse" color-interpolation-filters="sRGB">
<feFlood flood-opacity="0" result="BackgroundImageFix"/>
<feColorMatrix in="SourceAlpha" type="matrix" values="0 0 0 0 0 0 0 0 0 0 0 0 0 0 0 0 0 0 127 0" result="hardAlpha"/>
<feOffset dy="2"/>
<feGaussianBlur stdDeviation="1"/>
<feComposite in2="hardAlpha" operator="out"/>
<feColorMatrix type="matrix" values="0 0 0 0 0 0 0 0 0 0 0 0 0 0 0 0 0 0 0.25 0"/>
<feBlend mode="normal" in2="BackgroundImageFix" result="effect1_dropShadow_20_2982"/>
<feBlend mode="normal" in="SourceGraphic" in2="effect1_dropShadow_20_2982" result="shape"/>
</filter>
<filter id="filter3_d_20_2982" x="380.613" y="1492.81" width="38.3008" height="62.5814" filterUnits="userSpaceOnUse" color-interpolation-filters="sRGB">
<feFlood flood-opacity="0" result="BackgroundImageFix"/>
<feColorMatrix in="SourceAlpha" type="matrix" values="0 0 0 0 0 0 0 0 0 0 0 0 0 0 0 0 0 0 127 0" result="hardAlpha"/>
<feOffset dy="2"/>
<feGaussianBlur stdDeviation="1"/>
<feComposite in2="hardAlpha" operator="out"/>
<feColorMatrix type="matrix" values="0 0 0 0 0 0 0 0 0 0 0 0 0 0 0 0 0 0 0.25 0"/>
<feBlend mode="normal" in2="BackgroundImageFix" result="effect1_dropShadow_20_2982"/>
<feBlend mode="normal" in="SourceGraphic" in2="effect1_dropShadow_20_2982" result="shape"/>
</filter>
<filter id="filter4_d_20_2982" x="442.307" y="1473.26" width="52.2617" height="84.4625" filterUnits="userSpaceOnUse" color-interpolation-filters="sRGB">
<feFlood flood-opacity="0" result="BackgroundImageFix"/>
<feColorMatrix in="SourceAlpha" type="matrix" values="0 0 0 0 0 0 0 0 0 0 0 0 0 0 0 0 0 0 127 0" result="hardAlpha"/>
<feOffset dy="2"/>
<feGaussianBlur stdDeviation="1"/>
<feComposite in2="hardAlpha" operator="out"/>
<feColorMatrix type="matrix" values="0 0 0 0 0 0 0 0 0 0 0 0 0 0 0 0 0 0 0.25 0"/>
<feBlend mode="normal" in2="BackgroundImageFix" result="effect1_dropShadow_20_2982"/>
<feBlend mode="normal" in="SourceGraphic" in2="effect1_dropShadow_20_2982" result="shape"/>
</filter>
<linearGradient id="paint0_linear_20_2982" x1="720" y1="1534" x2="720" y2="1685.2" gradientUnits="userSpaceOnUse">
<stop offset="0.114287" stop-color="#8EC374"/>
<stop offset="1" stop-color="#5FA042"/>
</linearGradient>
<linearGradient id="paint1_linear_20_2982" x1="396.5" y1="1545.86" x2="405.238" y2="1555.24" gradientUnits="userSpaceOnUse">
<stop stop-color="#6B6465"/>
<stop offset="1" stop-color="#B6B5AE"/>
</linearGradient>
<linearGradient id="paint2_linear_20_2982" x1="460.386" y1="1545.86" x2="466.447" y2="1560.95" gradientUnits="userSpaceOnUse">
<stop stop-color="#6B6465"/>
<stop offset="1" stop-color="#B6B5AE"/>
</linearGradient>
<linearGradient id="paint3_linear_20_2982" x1="589.705" y1="1543.86" x2="591.663" y2="1561.16" gradientUnits="userSpaceOnUse">
<stop stop-color="#6B6465"/>
<stop offset="1" stop-color="#B6B5AE"/>
</linearGradient>
<linearGradient id="paint4_linear_20_2982" x1="790.75" y1="1543.86" x2="793.21" y2="1561.03" gradientUnits="userSpaceOnUse">
<stop stop-color="#6B6465"/>
<stop offset="1" stop-color="#B6B5AE"/>
</linearGradient>
<linearGradient id="paint5_linear_20_2982" x1="995.773" y1="1559.86" x2="1000.72" y2="1590.93" gradientUnits="userSpaceOnUse">
<stop stop-color="#6B6465"/>
<stop offset="1" stop-color="#B6B5AE"/>
</linearGradient>
<linearGradient id="paint6_linear_20_2982" x1="385.418" y1="1528.06" x2="395.831" y2="1523.57" gradientUnits="userSpaceOnUse">
<stop stop-color="#C49E80"/>
<stop offset="1" stop-color="#9F826A"/>
</linearGradient>
<linearGradient id="paint7_linear_20_2982" x1="394.925" y1="1535.81" x2="393.018" y2="1547.7" gradientUnits="userSpaceOnUse">
<stop stop-color="#9F826A"/>
<stop offset="1" stop-color="#C49E80"/>
</linearGradient>
<linearGradient id="paint8_linear_20_2982" x1="398.261" y1="1538.58" x2="397.65" y2="1521.74" gradientUnits="userSpaceOnUse">
<stop stop-color="#C49E80"/>
<stop offset="1" stop-color="#9F826A"/>
</linearGradient>
<linearGradient id="paint9_linear_20_2982" x1="397.307" y1="1504.18" x2="400.037" y2="1495.68" gradientUnits="userSpaceOnUse">
<stop stop-color="#C49E80"/>
<stop offset="1" stop-color="#9F826A"/>
</linearGradient>
<linearGradient id="paint10_linear_20_2982" x1="401.863" y1="1503.51" x2="408.943" y2="1498.07" gradientUnits="userSpaceOnUse">
<stop stop-color="#C49E80"/>
<stop offset="1" stop-color="#9F826A"/>
</linearGradient>
<linearGradient id="paint11_linear_20_2982" x1="458.739" y1="1536.88" x2="449.414" y2="1550.36" gradientUnits="userSpaceOnUse">
<stop stop-color="#B39278"/>
<stop offset="1" stop-color="#C49E80"/>
</linearGradient>
<linearGradient id="paint12_linear_20_2982" x1="445.098" y1="1530.44" x2="462.644" y2="1511.91" gradientUnits="userSpaceOnUse">
<stop stop-color="#C49E80"/>
<stop offset="1" stop-color="#B29278"/>
</linearGradient>
<linearGradient id="paint13_linear_20_2982" x1="469.599" y1="1533.47" x2="479.941" y2="1550.97" gradientUnits="userSpaceOnUse">
<stop stop-color="#C49E80"/>
<stop offset="1" stop-color="#B29278"/>
</linearGradient>
<linearGradient id="paint14_linear_20_2982" x1="475.045" y1="1474.21" x2="470.78" y2="1482.69" gradientUnits="userSpaceOnUse">
<stop stop-color="#FFD80B"/>
<stop offset="1" stop-color="#E7CE4F"/>
</linearGradient>
<linearGradient id="paint15_linear_20_2982" x1="472.086" y1="1507.38" x2="482.793" y2="1531.17" gradientUnits="userSpaceOnUse">
<stop stop-color="#C49E80"/>
<stop offset="1" stop-color="#B29278"/>
</linearGradient>
<clipPath id="clip0_20_2982">
<rect width="1440" height="1723" fill="white"/>
</clipPath>
</defs>
</svg>
