<svg width="1440" height="1723" viewBox="0 0 1440 1723" fill="none" xmlns="http://www.w3.org/2000/svg">
<g clip-path="url(#clip0_20_5286)">
<mask id="mask0_20_5286" style="mask-type:alpha" maskUnits="userSpaceOnUse" x="-157" y="90" width="375" height="254">
<path d="M185.489 268.581C173.016 273.256 131.128 287.323 93.1908 303.175L-15.0099 343.73C-15.0099 343.73 -59.0238 307.899 -77.8706 306.953C-96.7174 306.008 -117.282 284.679 -138.708 248.059C-138.708 248.059 -121.05 246.78 -108.246 246.787C-95.4408 246.793 -69.8501 250.55 -69.8501 250.55C-69.8501 250.55 -99.6511 244.099 -114.408 225.602C-129.165 207.104 -156.652 165.078 -156.652 165.078C-156.652 165.078 -129.014 177.145 -98.2788 174.703C-67.5437 172.26 -41.4426 198.253 -41.4426 198.253C-41.4426 198.253 -55.2857 166.064 -57.9788 144.647C-60.6719 123.23 -60.6384 90.1111 -60.6384 90.1111C-60.6384 90.1111 -14.188 127.699 -1.72853 160.941C10.7309 194.183 14.0897 233.506 14.0897 233.506C14.0897 233.506 18.2334 187.633 22.9079 168.794C27.5823 149.955 43.3284 139.781 59.6995 137.917C76.0706 136.053 91.6601 121.666 91.6601 121.666C91.6601 121.666 91.7818 150.455 89.309 164.731C86.8361 179.007 72.1066 208.022 69.2436 220.309C66.3807 232.595 63.9149 289.586 63.9149 289.586C63.9149 289.586 75.2101 236.227 90.6444 226.17C106.079 216.114 139.211 214.375 167.961 226.559C196.71 238.744 217.039 245.542 217.039 245.542C217.039 245.542 197.962 263.906 185.489 268.581Z" fill="#D9D9D9"/>
</mask>
<g mask="url(#mask0_20_5286)">
<path d="M185.489 268.581C173.016 273.256 131.128 287.323 93.1908 303.175L-15.0099 343.73C-15.0099 343.73 -59.0238 307.899 -77.8706 306.953C-96.7174 306.008 -117.282 284.679 -138.708 248.059C-138.708 248.059 -121.05 246.78 -108.246 246.787C-95.4408 246.793 -69.8501 250.55 -69.8501 250.55C-69.8501 250.55 -99.6511 244.099 -114.408 225.602C-129.165 207.104 -156.652 165.078 -156.652 165.078C-156.652 165.078 -129.014 177.145 -98.2788 174.703C-67.5437 172.26 -41.4426 198.253 -41.4426 198.253C-41.4426 198.253 -55.2857 166.064 -57.9788 144.647C-60.6719 123.23 -60.6384 90.1111 -60.6384 90.1111C-60.6384 90.1111 -14.188 127.699 -1.72853 160.941C10.7309 194.183 14.0897 233.506 14.0897 233.506C14.0897 233.506 18.2334 187.633 22.9079 168.794C27.5823 149.955 43.3284 139.781 59.6995 137.917C76.0706 136.053 91.6601 121.666 91.6601 121.666C91.6601 121.666 91.7818 150.455 89.309 164.731C86.8361 179.007 72.1066 208.022 69.2436 220.309C66.3807 232.595 63.9149 289.586 63.9149 289.586C63.9149 289.586 75.2101 236.227 90.6444 226.17C106.079 216.114 139.211 214.375 167.961 226.559C196.71 238.744 217.039 245.542 217.039 245.542C217.039 245.542 197.962 263.906 185.489 268.581Z" fill="#2C8C4A"/>
<path d="M-54.9354 281.804C-73.2333 265.678 -88.0007 258.367 -114.775 245.496C-207.783 235.13 -114.215 310.959 -64.0597 380.804L225.619 272.228L210.001 230.559C171.861 222.173 149.509 224.472 108.324 238.233C130.167 239.511 138.862 243.189 150.755 252.765C75.6393 239.27 68.6675 272.853 47.5695 330.42C40.2861 280.106 37.524 253.134 53.9253 224.982C42.8066 234.177 37.3962 242.062 30.0762 263.823C25.566 214.787 19.0154 160.453 58.7276 154.3C46.9701 164.008 50.5521 178.665 52.7318 197.129C57.2685 170.332 71.7045 146.132 91.3873 122.836C49.1178 126.307 30.9007 139.985 4.23782 176.86C9.15097 220.54 9.4598 241.194 4.35054 269.194C-7.42367 212.207 -1.39765 215.649 -21.2949 170.411C-12.9867 203.614 -8.97831 223.392 -4.10909 262.753C-42.3558 186.659 -54.6579 148.949 -60.9504 90.228L-74.5605 170.619C-41.9658 205.227 -28.0411 230.955 -12.5631 290.484C-63.5587 228.435 -91.4677 243.161 -117.335 206.408C-102.636 212.562 -95.0826 212.361 -82.1356 209.234C-111.829 201.651 -127.876 185.733 -159.128 162.268C-107.877 255.203 -98.9304 242.227 -69.8502 250.55C-52.3795 259.955 -25.4189 283.332 16.8157 336.607L-0.334311 343.036C-30.8548 312.473 -46.5451 292.604 -84.8335 276.991C-78.2292 273.81 -71.556 275.002 -54.9354 281.804Z" fill="#016751"/>
</g>
<mask id="mask1_20_5286" style="mask-type:alpha" maskUnits="userSpaceOnUse" x="-5" y="327" width="1440" height="1217">
<rect x="-5" y="327.232" width="1440" height="1216.76" fill="#29E5F8"/>
</mask>
<g mask="url(#mask1_20_5286)">
<rect x="-5" y="327.232" width="1440" height="1216.76" fill="#29E5F8"/>
<path d="M1071.14 794.829C1091.3 596.911 1051.44 523.058 913.247 440.316C913.247 440.316 967.57 426.332 1004.5 444.021C1041.43 461.71 1082.43 511.95 1082.43 511.95C1082.43 511.95 1094.99 601.382 1093.21 645.897C1091.44 690.412 1102.38 820.383 1102.38 820.383C1102.38 820.383 1105.37 1014.79 1100.21 1144.11C1095.04 1273.42 1104.37 1443.81 1104.37 1443.81L1077.53 1442.72L1074.33 1118.77L1056.06 1441.84L1007.75 1439.88L1020.33 1124.67L1035.88 1408.64C1050.93 1141.73 1053.93 971.238 1050.75 632.094L1071.14 794.829Z" fill="url(#paint0_linear_20_5286)"/>
<path d="M475.308 499.453L514.538 419.012C514.538 419.012 491 419.011 459.615 440.668C428.231 462.325 416.462 477.796 408.615 511.829C400.769 545.862 408.615 601.552 408.615 601.552C416.887 520.495 433.427 491.257 475.308 453.045C431.9 519.422 402.64 655.337 408.615 678.9C428.231 756.248 428.231 873.816 428.231 923.318C428.231 972.821 389 1112.05 389 1112.05L428.231 1065.64L420.385 1204.86L436.077 1149.17L436.017 1153.43C434.549 1256.9 433.707 1316.23 436.077 1405.97C417.913 1370.61 407.567 1343.83 389 1282.21C390.995 1387.25 392.419 1445.43 408.615 1517.35H514.538L542 1065.64C542 1065.64 514.538 1136.8 514.538 1170.83C514.538 1204.86 487.077 1220.33 487.077 1276.02C487.077 1331.71 463.538 1350.9 463.538 1341V1238.9L475.308 1112.05V1000.67C475.308 1000.67 491 886.192 487.077 815.032C483.154 743.872 455.692 672.712 459.615 617.022C463.538 561.331 475.308 499.453 475.308 499.453Z" fill="url(#paint1_linear_20_5286)"/>
<path d="M1211.69 499.453L1172.46 419.012C1172.46 419.012 1196 419.011 1227.38 440.668C1258.77 462.325 1270.54 477.796 1278.38 511.829C1286.23 545.862 1278.38 601.552 1278.38 601.552C1270.11 520.495 1253.57 491.257 1211.69 453.045C1255.1 519.422 1284.36 655.337 1278.38 678.9C1258.77 756.248 1258.77 873.816 1258.77 923.318C1258.77 972.821 1298 1112.05 1298 1112.05L1258.77 1065.64L1266.62 1204.86L1250.92 1149.17L1250.98 1153.43C1252.45 1256.9 1253.29 1316.23 1250.92 1405.97C1269.09 1370.61 1279.43 1343.83 1298 1282.21C1296 1387.25 1294.58 1445.43 1278.38 1517.35H1172.46L1145 1065.64C1145 1065.64 1172.46 1136.8 1172.46 1170.83C1172.46 1204.86 1199.92 1220.33 1199.92 1276.02C1199.92 1331.71 1223.46 1350.9 1223.46 1341V1238.9L1211.69 1112.05V1000.67C1211.69 1000.67 1196 886.192 1199.92 815.032C1203.85 743.872 1231.31 672.712 1227.38 617.022C1223.46 561.331 1211.69 499.453 1211.69 499.453Z" fill="url(#paint2_linear_20_5286)"/>
<path d="M701.866 1325.64C691.453 1078.28 689.741 943.793 719.461 737.462L732.657 837.414L745.854 752.839L772.246 945.056L794.24 564.467C832.269 914.046 794.24 1137.27 772.246 1548.61C761.041 1387.22 766.131 1272.25 719.461 1187.25L701.866 1325.64Z" fill="url(#paint3_linear_20_5286)"/>
<path d="M820.632 452.982L794.24 426.072C794.24 426.072 869.019 426.072 886.614 483.737C904.209 541.402 869.019 1098.83 869.019 1098.83C869.019 1098.83 855.822 564.467 847.025 541.402C838.227 518.336 820.632 452.982 820.632 452.982Z" fill="url(#paint4_linear_20_5286)"/>
<path d="M886.614 1152.65C886.614 1083.45 935 610.599 935 610.599C935 610.599 935 925.834 917.405 1075.76C899.81 1225.69 917.405 1525.55 917.405 1525.55C917.405 1525.55 886.614 1221.85 886.614 1152.65Z" fill="url(#paint5_linear_20_5286)"/>
<path d="M289.393 1325.64C297.897 1078.28 299.295 943.793 275.023 737.462L264.246 837.414L253.469 752.839L231.916 945.056L213.954 564.467C182.897 914.046 213.954 1137.27 231.916 1548.61C241.067 1387.22 236.91 1272.25 275.023 1187.25L289.393 1325.64Z" fill="url(#paint6_linear_20_5286)"/>
<path d="M192.4 452.982L213.954 426.072C213.954 426.072 152.885 426.072 138.516 483.737C124.146 541.402 152.885 1098.83 152.885 1098.83C152.885 1098.83 163.662 564.467 170.846 541.402C178.031 518.336 192.4 452.982 192.4 452.982Z" fill="url(#paint7_linear_20_5286)"/>
<path d="M138.516 1152.65C138.516 1083.45 99 610.599 99 610.599C99 610.599 99 925.834 113.369 1075.76C127.739 1225.69 113.369 1525.55 113.369 1525.55C113.369 1525.55 138.516 1221.85 138.516 1152.65Z" fill="url(#paint8_linear_20_5286)"/>
</g>
<path opacity="0.8" d="M119.5 327H65H1.5V385H124C133 379.333 151.5 380 149 377.5C146.5 375 111.5 369 106.5 366.5C101.5 364 126 363 115.5 362C105 361 55.5 359.5 52.5 358.5C49.5 357.5 74 355.5 72.5 353.5C71 351.5 58.5 352 56 351C53.5 350 66 347.6 74 348C82 348.4 95.5 349.5 93 346.5C90.5 343.5 58.5 346.5 60.5 345C62.5 343.5 117.637 338.452 114 337C110.363 335.548 75.8668 337.273 84.5 333L119.5 327Z" fill="white"/>
<g style="mix-blend-mode:overlay">
<path d="M358.842 327H193.567H1V385H372.488C399.781 379.333 455.884 380 448.302 377.5C440.721 375 334.581 369 319.419 366.5C304.256 364 378.553 363 346.712 362C314.87 361 164.758 359.5 155.66 358.5C146.563 357.5 220.86 355.5 216.312 353.5C211.763 351.5 173.856 352 166.274 351C158.693 350 196.6 347.6 220.86 348C245.121 348.4 286.06 349.5 278.479 346.5C270.898 343.5 173.856 346.5 179.921 345C185.986 343.5 353.192 338.452 342.163 337C331.133 335.548 226.521 337.273 252.702 333L358.842 327Z" fill="white"/>
</g>
<path d="M56.6909 302.837C50.9778 295.946 5.84644 301.64 -5 319.573V1541H124.729V451.491C121.093 439.678 113.947 437.841 108.628 435.74C103.31 433.639 103.954 417.035 103.954 417.035L132 400.299C125.715 371.73 117.581 366.908 98.7601 368.796C89.4028 357.165 83.0677 351.955 52.5359 365.843H9.94728C9.94728 365.843 18.2572 359.936 22.9316 357.967C27.606 355.998 45.784 360.921 48.3809 357.967C50.9778 355.013 47.3422 352.061 48.3809 348.122C49.4196 344.184 68.6365 340.247 70.7139 338.278C72.7914 336.309 62.404 309.728 56.6909 302.837Z" fill="#00435D"/>
<path d="M1277.26 327H1435V402.966C1394.91 402.798 1311 402.563 1296 402.966C1281.01 403.368 1283.51 400.115 1286.63 398.438C1292.01 398.438 1304.96 397.029 1313.7 391.395C1324.64 384.352 1289.76 393.91 1287.67 388.879C1286.01 384.855 1325.68 386.658 1325.68 383.5C1325.68 380.342 1308.76 382.317 1320 379.5C1334.06 375.978 1356.86 386.828 1376 383.5C1399 379.5 1365.58 379.515 1363.5 377C1361.42 374.485 1386.59 374.793 1408.97 373.284C1431.36 371.775 1368.22 363.222 1380.86 368.253C1393.5 373.284 1316.95 365.398 1325.68 363.725C1342.5 360.5 1350.9 364.579 1344.5 362C1339.06 359.809 1331.4 359.701 1309.02 358.191C1291.11 356.984 1318 356 1327.5 355.5C1337 355 1303 350 1324.5 349C1346 348 1300.01 347.123 1289.76 347.123C1279.5 347.123 1296 343 1291.32 342.093C1286.63 341.185 1267.5 341.407 1264 339.5C1260.5 337.593 1287.67 337 1289.76 333.037C1291.84 329.074 1277.26 327 1277.26 327Z" fill="white"/>
<g style="mix-blend-mode:overlay">
<path d="M1025.26 327H1435V384.974C1330.87 384.846 1112.88 384.667 1073.94 384.974C1034.99 385.281 1041.48 382.798 1049.6 381.519C1063.57 381.519 1097.2 380.444 1119.92 376.143C1148.31 370.768 1057.71 378.063 1052.3 374.224C1047.97 371.152 1151.02 372.528 1151.02 370.118C1151.02 367.709 1107.06 369.216 1136.27 367.066C1172.79 364.378 1232.03 372.658 1281.74 370.118C1341.49 367.066 1254.68 367.078 1249.27 365.158C1243.86 363.238 1309.24 363.474 1367.39 362.322C1425.53 361.17 1261.52 354.643 1294.36 358.483C1327.2 362.322 1128.36 356.303 1151.02 355.027C1194.72 352.566 1216.54 355.678 1199.92 353.711C1185.79 352.038 1165.89 351.956 1107.75 350.804C1061.23 349.882 1131.08 349.132 1155.76 348.75C1180.43 348.368 1092.11 344.553 1147.96 343.789C1203.81 343.026 1084.35 342.357 1057.71 342.357C1031.07 342.357 1073.94 339.211 1061.77 338.518C1049.6 337.825 999.899 337.995 990.807 336.539C981.716 335.084 1052.3 334.632 1057.71 331.607C1063.12 328.583 1025.26 327 1025.26 327Z" fill="white"/>
</g>
<g style="mix-blend-mode:overlay">
<path d="M1025.26 327H1435V384.974C1330.87 384.846 1112.88 384.667 1073.94 384.974C1034.99 385.281 1041.48 382.798 1049.6 381.519C1063.57 381.519 1097.2 380.444 1119.92 376.143C1148.31 370.768 1057.71 378.063 1052.3 374.224C1047.97 371.152 1151.02 372.528 1151.02 370.118C1151.02 367.709 1107.06 369.216 1136.27 367.066C1172.79 364.378 1232.03 372.658 1281.74 370.118C1341.49 367.066 1254.68 367.078 1249.27 365.158C1243.86 363.238 1309.24 363.474 1367.39 362.322C1425.53 361.17 1261.52 354.643 1294.36 358.483C1327.2 362.322 1128.36 356.303 1151.02 355.027C1194.72 352.566 1216.54 355.678 1199.92 353.711C1185.79 352.038 1165.89 351.956 1107.75 350.804C1061.23 349.882 1131.08 349.132 1155.76 348.75C1180.43 348.368 1092.11 344.553 1147.96 343.789C1203.81 343.026 1084.35 342.357 1057.71 342.357C1031.07 342.357 1073.94 339.211 1061.77 338.518C1049.6 337.825 999.899 337.995 990.807 336.539C981.716 335.084 1052.3 334.632 1057.71 331.607C1063.12 328.583 1025.26 327 1025.26 327Z" fill="white"/>
</g>
<path d="M1328.37 301.504C1337.12 295.585 1388.34 308.567 1421.03 315.708H1456V1541H1308.27C1308.27 1541 1284.67 723.252 1306.52 604.701C1328.37 486.15 1306.52 411.993 1306.52 411.993C1306.52 395.42 1343.74 377.98 1351.5 379.63C1359.26 381.28 1379.07 387.916 1385.19 386.732C1391.31 385.549 1390.44 381.997 1398.31 379.63C1406.17 377.262 1437.64 379.63 1432.4 374.895C1410.74 362.409 1386.76 362.58 1347.61 360.69C1347.61 360.69 1351.98 344.118 1347.61 342.934C1343.23 341.75 1295.16 341.75 1295.16 341.75C1294.32 330.753 1296.67 326.753 1306.52 323.995C1306.52 323.995 1319.63 307.422 1328.37 301.504Z" fill="#00435D"/>
<path d="M1397.39 203.457C1413.11 202.145 1421.79 201.24 1431.99 192.86C1446.23 198.398 1451.41 195.887 1458.6 187.31V48.7987C1456.78 34.8045 1452.66 30.0106 1439.38 27.3535C1419.32 24.1328 1408.17 22.7699 1392.07 37.4453C1380.93 28.1761 1373.26 24.2742 1348.6 27.3535C1333.84 23.0852 1333.99 18.0864 1313.71 33.1569C1314.15 29.2301 1304.79 28.2937 1300.7 27.3535C1284.37 27.1213 1289.63 26.9401 1289.46 37.4453C1274.54 39.6315 1270.27 42.0358 1279.12 48.7987C1279.47 53.7699 1280.15 55.0267 1289.46 56.8728L1289.16 56.8875C1276.88 57.4867 1263.07 58.1605 1266.7 69.2354C1258.47 73.2407 1269.36 77.0566 1272.91 78.8227C1258.91 82.7349 1263.24 84.8905 1269.65 90.4283C1263.5 95.2837 1276.44 100.04 1298.04 105.566C1275.98 106.358 1261.81 105.299 1266.7 110.359C1257.48 116.073 1243.58 118.523 1254.28 124.236C1236.26 124.521 1222.59 128.398 1224.12 139.626C1223.42 145.445 1250.61 156.164 1300.7 154.511L1300.55 154.691C1293.93 162.743 1290.17 167.313 1306.02 172.172C1304.08 179.514 1306.38 181.546 1318.44 180.246C1311.9 187.19 1316.35 189.713 1332.34 192.86C1354.05 200.269 1363.85 206.521 1397.39 203.457Z" fill="#2C8C4A"/>
<path d="M1318.56 208.224C1330.12 208.671 1336.19 209.284 1337.37 219.04C1351.51 218.383 1352.08 219.437 1346.37 222.618C1358.62 225.258 1360.1 228.699 1357.2 236.858C1364.61 245.478 1359.77 246.927 1345.7 247.463C1335.5 254.124 1329.89 257.512 1323.46 251.412C1313.53 253.137 1309.5 251.314 1303.28 246.32C1307.3 253.38 1300.62 254.168 1285.18 254.322C1259.62 252.566 1242.63 251.955 1254.2 244.996C1236.28 238.885 1230.6 235.408 1243.41 228.939C1245.42 220.951 1247.21 216.909 1261.32 216.99C1274.51 214.085 1277.72 216.116 1282.14 220.886C1285.44 214.264 1285.67 209.075 1299.06 211.64C1305.66 204.915 1310.14 205.269 1318.56 208.224Z" fill="#2C8C4A"/>
<path d="M1432.68 173.353C1465 172.222 1474.7 170.347 1462.59 162.663C1465.33 157.378 1469.87 156.024 1456.5 157.616C1468.63 155.05 1469.3 153.307 1460.01 142.266C1454.21 136.571 1450.91 137.963 1444.98 144.166C1445.7 139.365 1443.37 139.368 1437.02 141.538C1443.73 137.147 1445.36 134.68 1431.59 130.227C1423.91 128.003 1420.99 132.138 1415.58 138.795C1421.36 128.668 1423.38 123.262 1411.03 117.193C1406.36 109.734 1403.58 105.771 1388.08 113.915C1383.54 104.121 1380.8 100.741 1374.78 106.507C1370.17 98.9026 1366.25 98.8056 1353.5 116.469C1351.46 110.028 1347.52 110.492 1335.25 118.777C1329.26 114.769 1325.4 115.065 1316.51 125.872C1302.56 117.512 1293.7 110.661 1289.08 121.706C1274.14 125.283 1267.23 127.539 1272.91 134.658L1272.61 134.897C1264.65 141.377 1260.1 145.084 1284.24 146.676C1277.54 150.73 1282.63 155.54 1307.05 151.211C1295.22 159.941 1307.96 168.185 1316.51 168.185C1302.27 173.556 1310.08 176.065 1321.6 179.4C1323.72 182.127 1306.39 186.977 1335.25 186.977C1329.14 193.686 1339.45 189.048 1350.31 189.581C1362.04 194.606 1360.68 197.591 1379.79 191.827C1367.53 199.24 1408.31 202.132 1415.58 191.827C1454.66 189.581 1482.04 183.265 1461.63 177.287C1465.27 174.889 1444.03 175.426 1432.68 173.353Z" fill="#016751"/>
<path d="M1386.76 182.43C1383.43 191.22 1406.61 208.648 1416.17 227.289C1418.14 231.153 1417.33 235.545 1419.8 239.11C1422.33 242.754 1420.65 240.2 1424.05 243.05C1430.9 248.799 1444.35 253.659 1444.35 253.659V287C1444.35 287 1432.98 275.218 1424.05 270.026C1418.55 266.833 1415.37 264.864 1409.19 263.358C1401.14 261.395 1396.23 264.065 1387.98 263.358C1377.15 262.432 1376.9 264.248 1366.46 261.236C1358.11 258.828 1354.15 254.846 1345.54 253.659C1339.91 252.882 1330.86 251.098 1325.24 250.325C1314.98 248.917 1310.95 241.659 1300.68 240.323C1294.7 239.543 1298.84 239.074 1292.8 239.11C1290.2 239.126 1281.15 240.383 1278.56 240.626C1274.56 241 1268.56 243.05 1268.56 243.05L1262.8 240.626L1270.37 240.323L1277.65 236.685L1264.92 228.502L1268.56 224.864C1268.56 224.864 1272.28 228.391 1274.92 230.32C1279.58 233.721 1283.71 237.292 1287.95 237.292C1292.2 237.292 1293.57 233.749 1295.83 230.32L1299.17 224.864L1301.9 230.32L1299.17 234.867C1299.17 236.685 1312.53 240.891 1321.6 243.05C1329.27 244.876 1340.09 248.506 1341.6 245.778C1343.12 243.05 1325.24 231.836 1325.24 231.836C1325.24 231.836 1328.49 230.138 1330.69 230.32C1333.83 230.58 1334.86 232.946 1337.36 234.867C1343.07 239.253 1344.26 244.127 1350.39 247.9C1358.68 253.001 1364.92 254.117 1374.64 253.659C1382.76 253.276 1388.82 253.567 1394.65 247.9C1398.07 244.574 1399.84 241.985 1400.71 237.292C1402 230.259 1405.4 231.41 1402.53 224.864C1395.54 208.964 1377.37 193.948 1377.37 188.189C1377.37 182.43 1375.49 176.098 1374.64 170.913C1373.76 165.538 1370.4 163.638 1365.24 160.607C1360.09 157.576 1339.78 153.03 1339.78 153.03C1339.78 153.03 1346.26 152.762 1350.39 153.03C1359.2 153.6 1370.4 159.395 1372.52 157.576C1374.64 155.758 1362.82 143.937 1362.82 143.937C1362.82 143.937 1361.98 141.788 1357.06 140.906C1342.96 138.376 1327.79 143.56 1313.72 140.906C1306.66 139.576 1302.78 138.206 1296.09 135.842L1295.83 135.753C1288.93 133.316 1278.56 128.479 1278.56 128.479L1292.2 126.357C1292.2 126.357 1298.34 131.493 1302.81 133.935C1320.67 143.696 1354.94 133.935 1354.94 133.935C1354.94 133.935 1343.77 130.196 1337.36 126.357C1330.57 122.294 1321.6 113.627 1321.6 113.627L1320.08 106.656L1326.75 110.899C1326.75 110.899 1333 116.366 1337.36 119.386C1348.68 127.226 1367.97 138.178 1369.49 133.935C1371 129.691 1372.52 116.355 1372.52 116.355L1376.76 119.386C1376.76 119.386 1371.92 132.361 1372.52 140.906C1373.34 152.633 1385.25 168.185 1385.25 168.185C1401.43 159.933 1405.61 155.416 1412.95 147.466L1413.13 147.271C1413.13 147.271 1413.74 152.424 1413.13 155.758C1412.53 159.092 1390.1 173.641 1386.76 182.43Z" fill="#5B0F3E"/>
<path d="M1441.38 155.12C1462.25 151.748 1467.99 149.805 1458.2 146.138C1464.5 141.973 1465 139.843 1454.08 136.81C1457.05 132.93 1456.67 131.535 1448.25 131.974C1444.43 128.765 1442.34 130.429 1438.63 136.81L1438.66 136.705C1440.54 128.002 1441.6 123.09 1420.09 122.646C1415.28 118.747 1412.72 117.873 1408.76 122.646C1404.08 124.674 1403.76 126.842 1406.02 131.974C1399.42 128.044 1397.4 130.095 1394.34 135.083C1386.69 143.282 1389.9 144.081 1399.84 143.374C1384.56 152.018 1389.06 153.287 1408.76 152.356C1401.66 155.9 1398.03 157.863 1424.9 159.265C1433.08 162.176 1437.92 164.478 1441.38 155.12Z" fill="#6CB236"/>
<path d="M-37.7805 521.78C-19.993 546.621 -8.98611 557.991 13.0732 572.268L2.82927 588.732C-19.5329 567.453 -27.1789 549.305 -37.7805 521.78Z" fill="#185E8B"/>
<path d="M26.6097 549.22L16.7317 564.585C-16.3819 521.998 -14.1697 506.871 -11.8049 487.024C-1.93271 516.349 5.52108 530.905 26.6097 549.22Z" fill="#185E8B"/>
<path d="M-0.463417 596.415L-7.78049 612.146C-38.1149 594.489 -56.0732 570.073 -59 534.951C-41.4723 561.771 -30.7362 582.136 -0.463417 596.415Z" fill="#185E8B"/>
<path d="M43.439 522.146L33.561 533.122C10.8005 514.578 7.96279 498.862 13.0732 467.634C18.093 494.904 23.8091 507.658 43.439 522.146Z" fill="#185E8B"/>
<path d="M59.1707 499.829L51.4878 508.244C37.5485 499.745 36.2526 485.482 39.7805 451.537L39.8062 451.733C43.0613 476.562 44.8943 490.543 59.1707 499.829Z" fill="#185E8B"/>
<path d="M77.8293 476.78L71.6097 484.098C61.1682 463.991 67.436 451.47 77.8293 429.22C74.6835 450.093 72.2622 462.276 77.8293 476.78Z" fill="#185E8B"/>
<path d="M100.146 455.195L92.4634 461.415C86.2555 442.623 94.1009 435.731 106.732 423C99.0828 435.739 93.8452 442.912 100.146 455.195Z" fill="#185E8B"/>
<path d="M146.244 436.902C130.769 444.509 122.274 449.288 104.902 451.537L96.8537 461.415C114.78 460.683 130.691 448.732 146.244 436.902Z" fill="#185E8B"/>
<path d="M146.244 461.415C121.015 470.544 106.977 475.012 83.3171 474.585L75.6341 484.098C105.239 482.132 120.379 476.076 146.244 461.415Z" fill="#185E8B"/>
<path d="M122.463 489.951C99.6208 494.574 82.1128 501.36 63.1951 499.829L52.9512 512.634C74.6458 513.489 112.219 500.195 122.463 489.951Z" fill="#185E8B"/>
<path d="M118.805 511.537C77.0975 525.805 61.1673 526.301 39.7805 528.366L31 540.073C70.9769 533.646 107.834 522.896 118.805 511.537Z" fill="#185E8B"/>
<path d="M106 533.122C72.5094 548.215 55.1703 551.793 24.0488 555.805L15.6341 570.805C68.8088 562.684 97.9512 548.488 106 533.122Z" fill="#185E8B"/>
<path d="M91 560.561C54.0094 576.284 36.5508 580.34 9.41463 581.78L0.634144 596.415C35.0593 596.271 55.8713 580.514 91 560.561Z" fill="#185E8B"/>
<path d="M70.5122 593.488C47.2301 602.773 22.6992 607.031 -1.19513 607.024L-5.58537 620.927C20.2286 622.179 46.8742 609.724 70.5122 593.488Z" fill="#185E8B"/>
<path d="M109.293 446.78C116.605 436.084 122.418 431.105 133.805 423C126.054 435.459 120.332 440.05 109.293 446.78Z" fill="#185E8B"/>
<path d="M115.878 441.293C67.1321 481.176 39.9067 502.734 -19.8535 627.146L-9.24376 633C13.4654 566.483 43.9895 516.289 115.878 441.293Z" fill="#00A4B9"/>
<path d="M129.629 597.638C136.81 603.041 136.81 617.448 136.81 617.448C138.915 686.026 124.373 772.443 143.96 806.418C163.547 840.393 155.469 1011.81 163.547 1100.14C173.478 1248.84 104.717 1426.32 221 1544H-5V597.638C-5 597.638 38.6797 558.917 51.8435 558.017C65.0072 557.117 122.449 592.235 129.629 597.638Z" fill="#0E304B"/>
<path d="M1334.14 733.452C1301.71 741.589 1289.75 830.31 1289.75 830.31C1289.75 830.31 1235.46 1006.07 1247.62 1083.5C1259.78 1160.92 1247.62 1275.04 1209.31 1313.75C1171 1352.46 1171 1544 1171 1544H1456V749.725C1448.66 713.755 1366.57 725.315 1334.14 733.452Z" fill="#0E304B"/>
<path d="M350.273 339.4C353.958 341.669 365.321 340.346 370.542 339.4H383.44C390.35 339.4 388.968 333.728 391.271 332.31C393.574 330.892 393.114 321.439 392.653 317.185C392.192 312.93 383.44 303.004 381.137 297.332C378.833 291.66 375.609 290.714 376.53 285.988C377.451 281.261 378.806 266.225 374.66 266.224C372.357 266.224 371.436 270.006 367.75 270.951C364.065 271.896 368.211 282.206 365.908 285.988C363.605 289.769 360.841 289.859 356.234 289.859C351.628 289.859 347.509 302.148 347.509 308.293C347.509 314.438 339.651 312.075 337.808 315.383C335.965 318.692 330.926 318.603 329.083 321.439C327.24 324.275 335.071 324.747 335.071 325.693C335.071 326.638 335.071 330.42 329.083 330.892C323.094 331.365 315.263 333.728 318.949 336.092C322.634 338.455 330.004 335.146 335.071 336.092C340.139 337.037 345.666 336.564 350.273 339.4Z" fill="#EDFFFD"/>
<path d="M358.859 265.504C360.8 268.02 363.58 275.43 363.58 279.684C363.58 282.205 360.66 280.277 358.859 277.321C357.131 274.485 354.367 270.703 353.445 269.758C352.211 268.491 344.693 261.722 346.996 259.359C349.3 256.996 356.67 262.668 358.859 265.504Z" fill="#EDFFFD"/>
<path d="M373.996 247.218C370.013 250.247 367.103 259.997 366.921 263.62C366.63 266.44 370.29 262.44 371.529 258.847C372.795 255.172 378.91 249.122 379.543 247.285C380.176 245.448 378.975 243.431 373.996 247.218Z" fill="#EDFFFD"/>
<path d="M359.919 249.298C359.551 247.407 357.482 245.302 357.155 243.626C355.773 236.535 359.348 239.437 359.919 240.317C360.84 241.735 361.762 246.934 361.762 249.298C361.762 251.661 360.38 251.661 359.919 249.298Z" fill="#EDFFFD"/>
<path d="M334.584 290.421C339.006 292.69 341.033 299.245 341.493 302.238C344.718 314.055 334.584 296.093 332.741 293.257C330.898 290.421 329.056 287.585 334.584 290.421Z" fill="#EDFFFD"/>
<path d="M323.292 293.73C321.45 292.973 323.753 290.421 325.135 290.421C326.056 290.421 327.438 292.312 327.438 293.257C327.438 294.202 325.595 294.675 323.292 293.73Z" fill="#EDFFFD"/>
<path d="M385.102 241.477C383.902 242.636 382.146 242.88 383.258 239.775C383.575 238.887 384.758 238.326 385.19 238.489C385.802 238.719 386.602 240.028 385.102 241.477Z" fill="#EDFFFD"/>
<path d="M347.652 252.345C347.921 252.729 349.929 254.928 350.695 255.341C352.978 256.569 352.039 253.188 349.488 251.576C346.936 249.963 346.017 250.01 347.652 252.345Z" fill="#EDFFFD"/>
<path d="M1052.81 327.541C1057.36 328.493 1071.38 327.938 1077.82 327.541H1093.73C1102.26 327.541 1100.55 325.162 1103.39 324.567C1106.24 323.972 1105.67 320.006 1105.1 318.221C1104.53 316.436 1093.73 312.272 1090.89 309.892C1088.05 307.512 1084.07 307.116 1085.21 305.133C1086.34 303.15 1088.02 296.841 1082.9 296.841C1080.06 296.841 1078.92 298.428 1074.38 298.824C1069.83 299.221 1074.95 303.546 1072.1 305.133C1069.26 306.719 1065.85 306.757 1060.17 306.757C1054.49 306.757 1049.41 311.913 1049.41 314.491C1049.41 317.069 1039.71 316.077 1037.44 317.465C1035.16 318.854 1028.95 318.816 1026.67 320.006C1024.4 321.196 1034.06 321.394 1034.06 321.791C1034.06 322.187 1034.06 323.774 1026.67 323.972C1019.29 324.17 1009.62 325.162 1014.17 326.153C1018.72 327.145 1027.81 325.757 1034.06 326.153C1040.31 326.55 1047.13 326.352 1052.81 327.541Z" fill="#EDFFFD"/>
<path d="M1063.41 296.539C1065.8 297.595 1069.23 300.704 1069.23 302.488C1069.23 303.546 1065.63 302.737 1063.41 301.497C1061.27 300.307 1057.86 298.72 1056.73 298.324C1055.21 297.792 1045.93 294.953 1048.77 293.961C1051.61 292.97 1060.71 295.349 1063.41 296.539Z" fill="#EDFFFD"/>
<path d="M1082.08 288.867C1077.17 290.138 1073.58 294.229 1073.35 295.748C1072.99 296.932 1077.51 295.253 1079.04 293.746C1080.6 292.204 1088.14 289.666 1088.92 288.895C1089.71 288.125 1088.22 287.278 1082.08 288.867Z" fill="#EDFFFD"/>
<path d="M1064.72 289.74C1064.26 288.947 1061.71 288.063 1061.31 287.36C1059.6 284.386 1064.01 285.603 1064.72 285.972C1065.85 286.567 1066.99 288.748 1066.99 289.74C1066.99 290.731 1065.28 290.731 1064.72 289.74Z" fill="#EDFFFD"/>
<path d="M1033.46 306.993C1038.91 307.945 1041.41 310.694 1041.98 311.95C1045.96 316.908 1033.46 309.372 1031.19 308.183C1028.91 306.993 1026.64 305.803 1033.46 306.993Z" fill="#EDFFFD"/>
<path d="M1019.53 308.381C1017.26 308.064 1020.1 306.993 1021.8 306.993C1022.94 306.993 1024.64 307.786 1024.64 308.183C1024.64 308.579 1022.37 308.778 1019.53 308.381Z" fill="#EDFFFD"/>
<path d="M1095.78 286.459C1094.3 286.945 1092.14 287.048 1093.51 285.745C1093.9 285.372 1095.36 285.137 1095.89 285.205C1096.65 285.302 1097.63 285.851 1095.78 286.459Z" fill="#EDFFFD"/>
<path d="M1049.58 291.018C1049.91 291.179 1052.39 292.102 1053.34 292.275C1056.15 292.79 1054.99 291.372 1051.85 290.695C1048.7 290.019 1047.56 290.038 1049.58 291.018Z" fill="#EDFFFD"/>
<path d="M365.014 348.179C366.425 348.862 367.772 348.881 368.268 348.805C370.626 349.076 371.605 351.505 371.414 352.497C371.223 353.489 368.994 352.546 368.065 352.367C367.135 352.188 365.371 351.334 363.607 350.48C361.843 349.626 362.034 348.634 361.665 348.049C361.295 347.463 363.25 347.325 365.014 348.179Z" fill="#EDFFFD"/>
<path d="M378.316 337.907H391.482C412.749 334.614 460.098 327.375 463.12 327.961C464.939 328.314 465.647 328.242 469.673 331.464C471.566 332.979 469.432 333.849 471.813 338.536C472.891 340.658 477.02 340.557 476.62 345.493C476.467 347.383 474.703 350.648 470.146 350.648C465.589 350.648 469.7 348.377 462.104 348.377C454.509 348.377 454.821 354.683 450.264 354.683C445.706 354.683 445.921 356.56 441.871 356.56C437.82 356.56 436.021 356.846 430.763 355.521C426.899 354.547 423.762 357.683 419.838 358.187C415.787 358.706 411.736 355.066 408.192 354.027C404.749 353.017 404.918 355.521 399.855 355.521C394.791 355.521 377.639 356.56 373.776 350.841C369.136 343.972 366.858 349.831 362.185 344.081C356.691 337.321 377.641 339.121 378.316 337.907Z" fill="#EDFFFD"/>
<path d="M460.98 351.242C462.683 350.198 463.844 350.644 464.474 351.115C465.104 351.586 465.397 352.905 465.429 353.239C465.486 353.83 465.861 355.129 464.199 356.078C462.537 357.028 458.611 355.266 458.292 354.557C457.865 353.607 458.851 352.547 460.98 351.242Z" fill="#EDFFFD"/>
<path d="M401.131 357.109C402.82 356.551 404.322 355.895 404.862 355.637C408.593 354.165 411.586 357.688 412.003 358.263C412.42 358.838 412.125 360.836 409.254 359.885C406.382 358.935 401.596 360.756 400.197 360.031C398.799 359.307 399.02 357.808 401.131 357.109Z" fill="#EDFFFD"/>
<path d="M289.113 1431.01C312 1492.51 312 1560.17 312 1560.17H195.153C129.418 1604.1 97.9353 1592.84 42.7754 1573.12L40.9642 1572.47C-1.10129 1589.98 -22.8284 1591.67 -61.4271 1594C-62.3064 1593.04 -62.5816 1590.64 -61.4271 1572.47L-159 1560.17V1534.03C-159 1534.03 -150.568 1490.98 -130.09 1484.82C-109.611 1478.67 -104.793 1443.31 -93.9514 1431.01C-83.11 1418.71 -66.6234 1384.08 -10.8338 1343.36C-10.8338 1343.36 -6.01535 1246.48 4.82608 1232.65C15.6675 1218.81 25.3043 1229.57 30.1228 1221.88C34.9412 1214.19 54.2148 1132.7 61.4424 1121.93C68.6701 1111.17 96.3759 1108.09 107.217 1101.94C118.059 1095.79 140.946 1051.2 151.788 1058.89C162.629 1066.58 159.015 1094.25 183.107 1132.7C207.199 1171.14 229.158 1299.14 245.747 1409.48C266.707 1366.69 266.225 1369.5 289.113 1431.01Z" fill="#00435D"/>
<path d="M353.3 317.631C347.693 328.924 347.693 341.346 347.693 341.346H376.317C392.42 349.411 400.132 347.344 413.645 343.724L414.088 343.605C424.393 346.82 429.716 347.13 439.171 347.557C439.386 347.381 439.454 346.941 439.171 343.605L463.073 341.346V336.547C463.073 336.547 461.008 328.641 455.991 327.512C450.975 326.383 449.794 319.889 447.138 317.631C444.483 315.372 440.444 309.016 426.777 301.538C426.777 301.538 425.597 283.752 422.941 281.211C420.285 278.67 417.925 280.646 416.744 279.235C415.564 277.823 410.842 262.86 409.072 260.883C407.301 258.907 400.514 258.343 397.859 257.213C395.203 256.084 389.596 247.896 386.94 249.308C384.284 250.72 385.17 255.802 379.268 262.86C373.366 269.918 367.987 293.42 363.923 313.678C358.789 305.822 358.907 306.338 353.3 317.631Z" fill="url(#paint9_linear_20_5286)"/>
<mask id="mask2_20_5286" style="mask-type:alpha" maskUnits="userSpaceOnUse" x="1208" y="1288" width="175" height="180">
<path d="M1223.11 1467.45L1382.85 1386.38C1350.85 1323.33 1286.88 1280.29 1283.62 1289.17C1280.35 1298.06 1290.32 1317.71 1290.32 1317.71L1269.19 1296.5C1247.67 1297.51 1223.01 1308.92 1216.01 1341.1L1226.23 1361.24C1226.23 1361.24 1212.94 1350.37 1209.64 1355.35C1206.33 1360.33 1213.61 1422.34 1223.11 1467.45Z" fill="#27844C"/>
</mask>
<g mask="url(#mask2_20_5286)">
<path d="M1223.11 1467.45L1382.85 1386.38C1350.85 1323.33 1286.88 1280.29 1283.62 1289.17C1280.35 1298.06 1290.32 1317.71 1290.32 1317.71L1269.19 1296.5C1247.67 1297.51 1223.01 1308.92 1216.01 1341.1L1226.23 1361.24C1226.23 1361.24 1212.94 1350.37 1209.64 1355.35C1206.33 1360.33 1213.61 1422.34 1223.11 1467.45Z" fill="#E0939E"/>
<rect width="3.84604" height="105.942" transform="matrix(0.446931 -0.894569 0.660006 0.751261 1198.31 1375.18)" fill="#C46593"/>
<rect width="3.37235" height="159.192" transform="matrix(0.874843 -0.484406 0.463652 0.886017 1226.08 1294.55)" fill="#C46593"/>
<rect width="3.40093" height="158.722" transform="matrix(0.95387 -0.30022 0.400571 0.916266 1248.71 1280.89)" fill="#C46593"/>
<rect width="4.03167" height="146.873" transform="matrix(0.962147 0.272532 0.159469 0.987203 1323.71 1275.71)" fill="#C46593"/>
</g>
<mask id="mask3_20_5286" style="mask-type:alpha" maskUnits="userSpaceOnUse" x="1149" y="1422" width="173" height="168">
<path d="M1150.13 1589.97L1321.49 1537.35C1300.9 1469.13 1245.36 1415.19 1240.6 1423.45C1235.85 1431.71 1242.26 1452.97 1242.26 1452.97L1225.12 1428.2C1203.75 1425.45 1177.49 1432.48 1165.02 1463.22L1171.6 1485.02C1171.6 1485.02 1160.39 1471.89 1156.27 1476.26C1152.16 1480.63 1148.59 1543.5 1150.13 1589.97Z" fill="#27844C"/>
</mask>
<g mask="url(#mask3_20_5286)">
<path d="M1150.13 1589.97L1321.49 1537.35C1300.9 1469.13 1245.36 1415.19 1240.6 1423.45C1235.85 1431.71 1242.26 1452.97 1242.26 1452.97L1225.12 1428.2C1203.75 1425.45 1177.49 1432.48 1165.02 1463.22L1171.6 1485.02C1171.6 1485.02 1160.39 1471.89 1156.27 1476.26C1152.16 1480.63 1148.59 1543.5 1150.13 1589.97Z" fill="#27844C"/>
<rect width="3.85858" height="106.727" transform="matrix(0.593189 -0.807891 0.51608 0.85521 1141.69 1493.98)" fill="#B1DF9C"/>
<rect width="3.37484" height="160.442" transform="matrix(0.944825 -0.328102 0.300817 0.95362 1183 1418.74)" fill="#B1DF9C"/>
<rect width="3.40407" height="159.964" transform="matrix(0.99054 -0.131461 0.233981 0.97252 1207.66 1409.12)" fill="#B1DF9C"/>
<rect width="4.04785" height="147.929" transform="matrix(0.8968 0.437041 -0.0138339 1.00128 1282.42 1417.08)" fill="#B1DF9C"/>
</g>
<path d="M1260.31 1544H1499.94C1499.94 1544 1506.83 1361.4 1499.94 1328.3C1493.05 1295.2 1461.77 1231.29 1461.24 1207.33C1460.71 1183.36 1453.28 1056.68 1448.51 1039.56C1443.74 1022.44 1429.96 959.671 1421.48 956.248C1412.99 952.824 1389.67 985.921 1378 992.769C1366.34 999.616 1340.89 968.802 1321.28 1079.5C1301.66 1190.21 1283.64 1168.52 1280.99 1218.74C1278.34 1268.96 1269.32 1284.93 1267.73 1328.3C1266.14 1371.67 1267.2 1404.77 1260.31 1432.16C1253.42 1459.55 1264.55 1515.09 1260.31 1544Z" fill="#00435D"/>
<g opacity="0.75" filter="url(#filter0_f_20_5286)">
<mask id="mask4_20_5286" style="mask-type:alpha" maskUnits="userSpaceOnUse" x="179" y="1279" width="1071" height="265">
<path d="M1043.76 1425.25C1089.05 1417.19 1160.96 1469.13 1173.96 1493.9C1186.97 1518.68 1241.7 1500.28 1248.98 1511.43C1252.71 1517.15 1246.06 1533.39 1231.99 1543.57H179C179 1543.57 222.875 1501.21 245.52 1502.67C268.165 1504.13 273.826 1501.21 282.318 1495.36C290.81 1489.52 300.717 1473.45 300.717 1461.77C300.717 1450.08 287.979 1435.47 300.717 1422.32C313.455 1409.18 333.269 1381.42 333.269 1381.42C385.196 1357.19 396.584 1374.63 422.434 1396.03C429.713 1355.32 451.356 1351.85 535.659 1396.03C558.2 1394.19 561.134 1398.95 576.703 1377.04C592.271 1355.13 548.397 1344.9 576.703 1327.37C605.009 1309.84 568.211 1299.62 605.009 1285.01C641.807 1270.4 673.68 1282.75 722.48 1336.14C753.329 1308.66 769.113 1325.6 796.076 1381.42C831.292 1412.69 834.269 1428.07 831.459 1454.46C864.034 1458.37 865.944 1469.37 871.088 1488.06C876.551 1476.52 917.862 1484.79 927.7 1493.9C937.538 1503.01 953.176 1473.45 965.914 1471.99C978.652 1470.53 1004.13 1473.45 1008.37 1454.46C1012.62 1435.47 998.466 1433.31 1043.76 1425.25Z" fill="url(#paint10_linear_20_5286)"/>
</mask>
<g mask="url(#mask4_20_5286)">
<path d="M1043.76 1425.25C1089.05 1417.19 1160.96 1469.13 1173.96 1493.9C1186.97 1518.68 1241.7 1500.28 1248.98 1511.43C1252.71 1517.15 1246.06 1533.39 1231.99 1543.57H179C179 1543.57 222.875 1501.21 245.52 1502.67C268.165 1504.13 273.826 1501.21 282.318 1495.36C290.81 1489.52 300.717 1473.45 300.717 1461.77C300.717 1450.08 287.979 1435.47 300.717 1422.32C313.455 1409.18 333.269 1381.42 333.269 1381.42C385.196 1357.19 396.584 1374.63 422.434 1396.03C429.713 1355.32 451.356 1351.85 535.659 1396.03C558.2 1394.19 561.134 1398.95 576.703 1377.04C592.271 1355.13 548.397 1344.9 576.703 1327.37C605.009 1309.84 568.211 1299.62 605.009 1285.01C641.807 1270.4 673.68 1282.75 722.48 1336.14C753.329 1308.66 769.113 1325.6 796.076 1381.42C831.292 1412.69 834.269 1428.07 831.459 1454.46C864.034 1458.37 865.944 1469.37 871.088 1488.06C876.551 1476.52 917.862 1484.79 927.7 1493.9C937.538 1503.01 953.176 1473.45 965.914 1471.99C978.652 1470.53 1004.13 1473.45 1008.37 1454.46C1012.62 1435.47 998.466 1433.31 1043.76 1425.25Z" fill="url(#paint11_linear_20_5286)"/>
<path d="M969.756 1485.76C1015.05 1477.7 1086.96 1529.64 1099.96 1554.42C1112.97 1579.2 1167.7 1560.8 1174.98 1571.95C1178.71 1577.67 1172.06 1593.91 1157.99 1604.09H105C105 1604.09 148.875 1561.72 171.52 1563.18C194.165 1564.64 199.826 1561.72 208.318 1555.88C216.81 1550.04 226.717 1533.97 226.717 1522.28C226.717 1510.59 213.979 1495.99 226.717 1482.84C239.455 1469.69 259.269 1441.94 259.269 1441.94C311.196 1417.71 322.584 1435.14 348.434 1456.54C355.713 1415.84 377.356 1412.36 461.659 1456.54C484.2 1454.7 487.134 1459.47 502.703 1437.55C518.271 1415.64 474.397 1405.42 502.703 1387.89C531.009 1370.36 494.211 1360.13 531.009 1345.52C567.807 1330.92 599.68 1343.26 648.48 1396.65C679.329 1369.17 695.113 1386.11 722.076 1441.94C757.292 1473.2 760.269 1488.58 757.459 1514.98C790.034 1518.88 791.944 1529.89 797.088 1548.58C802.551 1537.04 843.862 1545.31 853.7 1554.42C863.538 1563.53 879.176 1533.97 891.914 1532.51C904.652 1531.05 930.127 1533.97 934.373 1514.98C938.619 1495.99 924.466 1493.82 969.756 1485.76Z" fill="url(#paint12_linear_20_5286)" fill-opacity="0.5"/>
</g>
</g>
<path d="M1511.92 788.668C1429.15 632.313 1414.98 634.926 1379.44 630.411C1393.93 620.98 1444.23 627.61 1519.91 783.763L1511.92 788.668Z" fill="#2FB5A6"/>
<path d="M1413.94 581.387C1382.69 588.092 1377.73 599.784 1375.12 624.563C1372.53 610.034 1369.69 603.554 1355.99 602.391C1343.76 600.708 1338.93 605.457 1330.67 614.893C1320.41 623.875 1320.61 625.794 1318.63 630.446C1340.37 615.893 1342.13 618.511 1345.21 623.115L1345.29 623.235C1336.27 623.227 1327.84 627.004 1306.43 640.97C1297.65 653.527 1298.52 658.952 1300.04 668.531L1300.07 668.708C1337.05 631.82 1338.43 634.559 1342.32 637.725C1329.68 645.345 1320.55 653.044 1299.64 674.56C1296.91 686.63 1299.45 690.713 1305.06 697.281C1331.79 649.738 1339.78 643.507 1347.55 651.261C1326.93 665.682 1318.77 679.18 1307.06 707.81C1309.37 716.071 1311.57 719.097 1316.32 723.026C1336.71 665.943 1342.06 661.531 1348.38 668.279C1329.3 691.384 1323.71 705.427 1324.77 732.819C1327.74 738.65 1330.3 739.273 1334.96 740.143C1333.48 722.127 1335.84 714.419 1344.21 703.792L1344.15 703.984C1339.3 719.955 1336.56 728.969 1341.12 743.537C1345.05 747.939 1347.27 750.354 1352.1 751.786C1358.11 749.664 1360.99 747.988 1364.33 743.167C1371.01 727.343 1365.71 720.08 1362.56 706.006C1370.57 717.294 1376.83 721.969 1372.7 744.648C1377.55 745.451 1382.08 742.939 1386.73 737.373C1388.79 711.741 1357.77 681.774 1365.53 675.077C1377.65 674.93 1385.85 707.514 1389.51 737.231C1396.73 734.14 1400.19 731.506 1404.66 724.155C1406.52 694.183 1369.32 661.167 1372.55 654.829C1375.79 648.491 1395.79 661.8 1412.79 710.045C1418.61 700.219 1422.4 693.671 1424.08 681.284C1414.35 648.999 1396.56 646.038 1383.3 638.141C1370.03 630.245 1419.85 628.196 1439.22 658.864C1441.95 646.629 1442.45 639.399 1434.74 623.407C1424.08 614.355 1414.36 616.398 1391.65 618.683C1400.02 605.974 1410.02 602.36 1434.07 615.918C1434.28 609.74 1435.67 607.684 1428.15 592.987C1422.09 589.132 1416.67 589.939 1402.33 598.183C1404.15 592.868 1405.35 589.921 1423.52 587.629C1423.74 585.045 1423.29 583.618 1413.94 581.387Z" fill="#185E8B"/>
<path d="M1350.96 737.265C1351.69 687.355 1355.82 658.169 1374.59 625.314L1375.49 631.956C1361.4 654.108 1356.98 681.124 1350.96 737.265Z" fill="#2FB5A6"/>
<path d="M-22.2534 216.754C53.1857 74.2494 66.0962 76.6307 98.4837 72.5156C85.281 63.9206 39.435 69.9632 -29.5419 212.284L-22.2534 216.754Z" fill="#2FB5A6"/>
<path d="M67.0405 27.8351C95.5307 33.9459 100.043 44.6024 102.422 67.1858C104.79 53.9444 107.379 48.0378 119.862 46.9785C131.011 45.4442 135.408 49.773 142.937 58.3724C152.287 66.5588 152.103 68.308 153.914 72.5481C133.922 59.1699 132.471 61.7126 129.617 65.9754C137.832 65.9684 145.514 69.4107 165.028 82.1402C173.03 93.5841 172.243 98.5284 170.855 107.259L170.829 107.421C137.12 73.8002 135.862 76.2964 132.322 79.182C143.839 86.1269 152.164 93.1439 171.221 112.754C173.704 123.755 171.392 127.477 166.277 133.462C141.918 90.1307 134.639 84.4519 127.552 91.5188C146.343 104.662 153.787 116.965 164.459 143.059C162.356 150.588 160.349 153.346 156.016 156.927C137.429 104.901 132.555 100.879 126.799 107.03C144.187 128.088 149.281 140.887 148.313 165.852C145.612 171.167 143.273 171.735 139.026 172.528C140.377 156.107 138.226 149.082 130.598 139.397L130.651 139.572C135.071 154.128 137.565 162.343 133.418 175.621C129.835 179.633 127.812 181.834 123.404 183.139C117.933 181.205 115.304 179.677 112.26 175.284C106.171 160.861 110.999 154.242 113.871 141.415C106.569 151.703 100.868 155.964 104.631 176.633C100.212 177.365 96.0861 175.076 91.8423 170.003C89.9674 146.642 118.241 119.33 111.168 113.226C100.118 113.092 92.644 142.789 89.3094 169.874C82.7311 167.056 79.5721 164.656 75.501 157.956C73.8084 130.639 107.712 100.548 104.765 94.771C101.817 88.9945 83.5898 101.124 68.0895 145.096C62.7895 136.14 59.3314 130.172 57.804 118.883C66.6694 89.4577 82.8845 86.7589 94.9726 79.5617C107.061 72.3646 61.6599 70.4974 44.0005 98.4488C41.5173 87.2972 41.0601 80.7082 48.0913 66.1326C57.7987 57.882 66.6587 59.7447 87.3604 61.8268C79.7275 50.2439 70.6215 46.9499 48.6935 59.3067C48.507 53.6764 47.2385 51.8028 54.0966 38.407C59.6128 34.8935 64.5552 35.6293 77.6284 43.1435C75.9692 38.2989 74.8774 35.613 58.3113 33.5235C58.1164 31.1688 58.523 29.8683 67.0405 27.8351Z" fill="#185E8B"/>
<path d="M124.446 169.904C123.779 124.416 120.014 97.8152 102.909 67.8707L102.092 73.9238C114.932 94.1135 118.958 118.736 124.446 169.904Z" fill="#2FB5A6"/>
<path d="M1504.07 1026.97C1480.34 912.705 1469.77 897.243 1440.09 833.124C1466.34 910.722 1483.06 953.761 1499.36 1033.69L1504.07 1026.97Z" fill="#2FB5A6"/>
<path d="M1354.94 806.784C1402.21 751.185 1443.74 801.389 1436.46 831.905C1455.31 799.489 1464.42 803.533 1480.23 817.612C1484.88 824.723 1484.32 831.829 1478.86 848.868C1468.86 879.078 1460.68 884.213 1446.72 896.302C1451.03 865.241 1448.32 855.994 1432.64 856.826C1444.83 869.398 1445.25 880.339 1438.16 904.601C1427.04 916.415 1418.31 921.148 1396.1 924.549C1411.78 916.437 1418.51 911.624 1417.21 901.306C1414.22 876.164 1411.52 870.096 1403.74 882.235C1410.13 903.805 1402.81 913.931 1382.05 930.602C1377.36 932.707 1373.2 934.483 1369.21 935.879C1376.88 910.343 1378.63 899.696 1365.7 903.782C1368 916.369 1365.26 924.2 1353.43 939.314C1347.5 939.734 1341 939.221 1332.91 937.624C1331.42 929.986 1322.83 916.642 1326.54 902.079C1364.1 889.427 1371.4 888.092 1364.84 885.898C1358.28 883.703 1341.79 883.774 1322.04 890.465L1322.05 890.338C1322.72 883.148 1323.11 879.077 1339.81 872.402C1402.9 858.931 1402.8 856.184 1386.55 854.381C1362.41 855.553 1341.5 854.225 1329.08 859.652C1329.08 859.652 1327.85 854.692 1332.56 848.371C1335.15 842.511 1365.44 836.905 1397.28 837.373C1376.35 829.237 1366.97 820.81 1334.62 831.422C1330.42 824.397 1333.71 820.095 1349.82 812.049C1369.75 808.676 1380.86 809.283 1400.54 815.705C1386.72 803.113 1378.07 798.21 1354.94 806.784Z" fill="#185E8B"/>
<path d="M1338.87 930.427C1357.39 900.666 1379.77 879.567 1425.22 837.852C1429.43 833.925 1431.38 833.641 1434.55 834.534C1393.24 871.481 1372.67 889.514 1338.87 930.427Z" fill="#2FB5A6"/>
<path d="M46.6531 1157.79C30.8193 1156.22 22.0769 1155.13 11.8057 1145.05C-2.53545 1151.71 -7.7543 1148.69 -15 1138.37V971.775C-13.1665 954.943 -9.01302 949.177 4.35966 945.981C24.5677 942.107 35.798 940.468 52.0142 958.119C63.2372 946.97 70.9566 942.277 95.7968 945.981C110.668 940.847 110.512 934.835 130.942 952.961C130.501 948.238 139.928 947.112 144.047 945.981C160.492 945.702 155.198 945.484 155.365 958.119C170.396 960.748 174.702 963.64 165.789 971.775C165.432 977.754 164.746 979.265 155.365 981.486L155.668 981.504C168.037 982.224 181.948 983.035 178.299 996.355C186.584 1001.17 175.618 1005.76 172.044 1007.89C186.137 1012.59 181.775 1015.18 175.32 1021.85C181.52 1027.69 168.483 1033.41 146.728 1040.05C168.951 1041.01 183.216 1039.73 178.299 1045.82C187.579 1052.69 201.583 1055.64 190.808 1062.51C208.953 1062.85 222.723 1067.51 221.188 1081.02C221.887 1088.02 194.506 1100.91 144.047 1098.92L144.196 1099.14C150.868 1108.82 154.654 1114.32 138.686 1120.16C140.643 1129 138.328 1131.44 126.177 1129.88C132.763 1138.23 128.284 1141.26 112.178 1145.05C90.3104 1153.96 80.4375 1161.48 46.6531 1157.79Z" fill="#2C8C4A"/>
<path d="M144.263 1154.67C129.655 1155.37 121.978 1156.34 120.484 1171.73C102.613 1170.69 101.892 1172.36 109.107 1177.38C93.623 1181.54 91.7506 1186.97 95.4096 1199.84C86.0512 1213.44 92.1678 1215.72 109.953 1216.57C122.844 1227.08 129.942 1232.42 138.069 1222.8C150.623 1225.52 155.714 1222.64 163.577 1214.76C158.492 1225.9 166.941 1227.14 186.465 1227.39C218.778 1224.62 240.249 1223.65 225.628 1212.68C248.28 1203.04 255.458 1197.55 239.263 1187.35C236.718 1174.75 234.465 1168.37 216.624 1168.5C199.948 1163.92 195.888 1167.12 190.308 1174.64C186.131 1164.2 185.837 1156.01 168.912 1160.06C160.567 1149.45 154.908 1150.01 144.263 1154.67Z" fill="#2C8C4A"/>
<path d="M78.2792 1041.03C37.4225 1039.25 25.1552 1036.29 40.4624 1024.17C37.0045 1015.83 31.2543 1013.7 48.163 1016.21C32.828 1012.16 31.9756 1009.41 43.7227 991.993C51.0537 983.01 55.2271 985.205 62.7221 994.991C61.8133 987.417 64.7628 987.421 72.7937 990.845C64.3004 983.918 62.2414 980.026 79.6573 973.002C89.3558 969.494 93.0567 976.016 99.889 986.517C92.5883 970.543 90.027 962.015 105.64 952.441C111.548 940.674 115.056 934.423 134.659 947.27C140.392 931.82 143.862 926.49 151.469 935.585C157.292 923.589 162.252 923.436 178.372 951.3C180.954 941.139 185.929 941.871 201.443 954.94C209.014 948.617 213.889 949.085 225.127 966.132C242.766 952.944 253.972 942.137 259.803 959.56C278.698 965.203 287.429 968.762 280.254 979.991C290.541 990.446 296.819 996.407 265.923 998.95C274.394 1005.34 267.956 1012.93 237.091 1006.1C252.042 1019.87 235.942 1032.88 225.127 1032.88C243.13 1041.35 233.26 1045.31 218.699 1050.57C216.017 1054.87 237.923 1062.52 201.443 1062.52C209.16 1073.11 196.131 1065.79 182.407 1066.63C167.57 1074.56 169.297 1079.27 145.131 1070.17C160.631 1081.87 109.085 1086.43 99.889 1070.17C50.489 1066.63 15.8707 1056.67 41.6812 1047.24C37.0692 1043.45 63.93 1044.3 78.2792 1041.03Z" fill="#016751"/>
<path d="M58.0439 1113.98C62.2588 1127.85 32.9515 1155.34 20.8767 1184.74C18.3742 1190.84 19.4101 1197.77 16.2787 1203.39C13.0782 1209.14 15.2127 1205.11 10.9144 1209.61C2.2461 1218.67 -14.7578 1226.34 -14.7578 1226.34V1278.93C-14.7578 1278.93 -0.384175 1260.35 10.9144 1252.16C17.8642 1247.12 21.8811 1244.02 29.6896 1241.64C39.8659 1238.54 46.0749 1242.76 56.5112 1241.64C70.1952 1240.18 70.5204 1243.04 83.7161 1238.29C94.2674 1234.5 99.276 1228.21 110.155 1226.34C117.27 1225.12 128.711 1222.3 135.827 1221.08C148.793 1218.86 153.885 1207.41 166.863 1205.3C174.432 1204.07 169.193 1203.33 176.826 1203.39C180.118 1203.41 191.557 1205.4 194.835 1205.78C199.893 1206.37 207.479 1209.61 207.479 1209.61L214.759 1205.78L205.18 1205.3L195.984 1199.57L212.077 1186.66L207.479 1180.92C207.479 1180.92 202.777 1186.48 199.433 1189.52C193.537 1194.89 188.321 1200.52 182.956 1200.52C177.592 1200.52 175.857 1194.93 172.994 1189.52L168.779 1180.92L165.331 1189.52L168.779 1196.7C168.779 1199.57 151.892 1206.2 140.425 1209.61C130.728 1212.49 117.052 1218.21 115.136 1213.91C113.22 1209.61 135.827 1191.92 135.827 1191.92C135.827 1191.92 131.716 1189.24 128.93 1189.52C124.959 1189.93 123.659 1193.67 120.5 1196.7C113.285 1203.62 111.774 1211.3 104.024 1217.26C93.5454 1225.3 85.6608 1227.06 73.3706 1226.34C63.1049 1225.74 55.4505 1226.2 48.0816 1217.26C43.7564 1212.01 41.5082 1207.92 40.4182 1200.52C38.7849 1189.43 34.4821 1191.24 38.1192 1180.92C46.954 1155.84 69.9221 1132.15 69.9221 1123.07C69.9221 1113.98 72.3015 1103.99 73.3706 1095.81C74.4789 1087.33 78.7349 1084.34 85.2488 1079.56C91.7626 1074.77 117.435 1067.6 117.435 1067.6C117.435 1067.6 109.25 1067.18 104.024 1067.6C92.8956 1068.5 78.7349 1077.64 76.0528 1074.77C73.3706 1071.91 88.3141 1053.26 88.3141 1053.26C88.3141 1053.26 89.3787 1049.87 95.5943 1048.48C113.415 1044.49 132.595 1052.66 150.387 1048.48C159.304 1046.38 164.208 1044.22 172.674 1040.49L172.994 1040.35C181.721 1036.51 194.835 1028.87 194.835 1028.87L177.592 1025.53C177.592 1025.53 169.829 1033.63 164.181 1037.48C141.595 1052.88 98.2764 1037.48 98.2764 1037.48C98.2764 1037.48 112.391 1031.58 120.5 1025.53C129.083 1019.12 140.425 1005.45 140.425 1005.45L142.341 994.449L133.911 1001.14C133.911 1001.14 126.014 1009.77 120.5 1014.53C106.185 1026.9 81.8003 1044.17 79.8844 1037.48C77.9686 1030.79 76.0528 1009.75 76.0528 1009.75L70.6884 1014.53C70.6884 1014.53 76.8075 1035 76.0528 1048.48C75.017 1066.98 59.9597 1091.51 59.9597 1091.51C39.5011 1078.49 34.2243 1071.37 24.9361 1058.83L24.7084 1058.52C24.7084 1058.52 23.9421 1066.65 24.7084 1071.91C25.4747 1077.16 53.8291 1100.11 58.0439 1113.98Z" fill="#5B0F3E"/>
<path d="M209.239 1185.77C182.857 1180.46 175.598 1177.39 187.971 1171.6C180.011 1165.03 179.384 1161.67 193.18 1156.89C189.43 1150.77 189.916 1148.57 200.558 1149.26C205.379 1144.2 208.031 1146.82 212.712 1156.89L212.683 1156.72C210.3 1143 208.956 1135.25 236.15 1134.55C242.23 1128.4 245.476 1127.02 250.473 1134.55C256.396 1137.75 256.792 1141.17 253.945 1149.26C262.287 1143.06 264.832 1146.3 268.703 1154.17C278.371 1167.1 274.318 1168.36 261.758 1167.25C281.07 1180.88 275.377 1182.88 250.473 1181.41C259.456 1187 264.038 1190.1 230.073 1192.31C219.733 1196.9 213.61 1200.54 209.239 1185.77Z" fill="#6CB236"/>
<path d="M969.392 326.794C972.22 323.965 975.177 325.615 979.355 326.794C1009.46 325.722 1070.44 323.066 1073.53 321.009C1076.61 318.952 1081.4 321.652 1083.81 323.259C1085.74 324.544 1090.62 324.608 1093.45 323.58C1096.99 322.294 1102.13 325.187 1104.7 326.794C1107.27 328.401 1105.34 330.651 1104.7 333.543C1104.06 336.436 1094.09 334.829 1093.45 336.757C1092.81 338.686 1090.56 338.364 1089.92 340.293C1089.27 342.221 1086.38 342.542 1084.45 342.542C1082.52 342.542 1080.6 342.542 1080.92 340.293C1081.24 338.043 1074.17 339.007 1072.24 340.293C1070.31 341.578 1059.71 342.542 1058.74 342.542C1057.78 342.542 1047.81 341.578 1046.85 342.542C1045.88 343.507 1043.31 341.9 1042.99 344.471C1042.67 347.042 1036.89 344.471 1034.96 344.471C1033.03 344.471 1028.85 342.864 1024.35 344.471C1019.85 346.078 1020.82 345.756 1020.49 347.042C1020.17 348.328 1015.67 347.042 1014.07 348.97C1012.46 350.899 1009.57 347.042 1008.6 345.756C1007.64 344.471 1001.85 344.471 1003.14 347.042C1004.42 349.613 1000.89 349.292 990.604 348.97C980.32 348.649 987.069 346.721 981.605 344.471C976.141 342.221 977.106 345.435 970.035 344.471C962.964 343.507 956.215 341.578 955.25 340.293C952.599 336.757 960.071 335.15 961.035 333.222C962.501 330.29 965.856 330.329 969.392 326.794Z" fill="#EDFFFD"/>
<path d="M971.657 348.053C971.914 347.281 974.978 346.446 976.478 346.124C977.121 345.977 981.62 346.124 981.942 347.41C982.263 348.695 978.728 349.981 977.442 350.624C976.157 351.267 971.336 349.017 971.657 348.053Z" fill="#EDFFFD"/>
<path d="M953.157 334.094C953.552 333.452 954.802 331.737 956.512 331.201C959.669 329.916 960.064 331.202 959.472 331.845L957.893 333.774C957.301 334.416 952.032 335.926 953.157 334.094Z" fill="#EDFFFD"/>
<path d="M1066.11 344.236C1066.93 342.807 1071.31 342.628 1072.79 342.396C1073.43 342.296 1073.94 341.92 1075.13 341.213C1076.62 340.329 1079.61 342.788 1079.76 343.741C1079.91 344.694 1078.27 344.5 1075.73 344.899C1073.19 345.297 1069.75 346.721 1067.1 346.721C1064.92 346.72 1065.09 346.023 1066.11 344.236Z" fill="#EDFFFD"/>
<path d="M1029.49 347.363C1029.49 346.592 1032.17 346.185 1033.35 346.078C1035.6 346.078 1038.17 347.042 1038.49 347.685C1038.81 348.328 1035.92 349.292 1034.64 348.649C1033.35 348.006 1029.49 348.328 1029.49 347.363Z" fill="#EDFFFD"/>
<path d="M1008.12 336.742C994.227 342.531 985.336 339.36 970 336.742C983.984 308.187 988.798 302.879 994.516 303.559C995.028 301.78 995.053 299.812 1001.32 299.812C1007.58 299.812 1007.68 299.498 1011.52 303.559C1012.77 302.31 1013.84 299.812 1022.25 297.85C1028.69 293.568 1034.22 297.788 1041.22 299.812C1046.07 301.213 1056.07 303.559 1058.94 309.624C1061.5 309.214 1060.51 306.976 1062.87 308.019C1069.83 311.084 1085.24 319.793 1089 330.854C1075.32 333.569 1067.31 334.401 1051.42 332.639L1022.25 336.742C1017.32 338.967 1014.17 338.78 1008.12 336.742Z" fill="url(#paint13_linear_20_5286)"/>
<path d="M1039.16 308.014C1039.07 311.752 1038.59 315.055 1035.49 314.985C1032.39 314.915 1032.91 311.274 1033 307.536C1033.08 303.798 1031.11 301.876 1036.65 302.001C1039.75 302.071 1039.24 304.275 1039.16 308.014Z" fill="url(#paint14_linear_20_5286)"/>
<path d="M1021.17 305.87C1020.08 309.446 1019.5 312.734 1022.47 313.641C1025.44 314.548 1026.08 310.926 1027.17 307.35C1028.27 303.774 1030.74 302.568 1025.44 300.949C1022.47 300.042 1022.27 302.294 1021.17 305.87Z" fill="url(#paint15_linear_20_5286)"/>
<g filter="url(#filter1_d_20_5286)">
<path d="M1047.83 283.256C1046.73 282.999 1045.64 284.027 1044.83 284.553C1044.3 285.194 1043.84 286.153 1043.67 286.968C1043.56 287.471 1043.59 288.004 1043.48 288.505C1043.39 288.967 1043.29 289.397 1043.3 289.874C1043.31 290.448 1043.17 291.003 1043.16 291.575C1043.15 292.191 1043.12 292.837 1043.02 293.445C1042.83 294.628 1042.86 295.802 1042.79 296.994C1042.72 298.166 1042.76 299.347 1042.75 300.52C1042.74 301.579 1042.58 302.858 1043.23 303.766C1043.81 304.594 1045.35 304.301 1046.12 304.01C1047.38 303.529 1048.44 302.69 1049.51 301.896C1052.93 299.368 1056.03 295.579 1055.84 291.101C1055.79 289.927 1055.57 288.681 1054.75 287.775C1053.9 286.824 1053.13 285.8 1052.14 284.972C1051.34 284.298 1050.32 283.835 1049.3 283.599L1047.83 283.256Z" fill="#543A3A"/>
<path d="M1017.04 282.462C1018.14 283.063 1018.86 283.646 1019.78 284.485C1020.5 285.263 1020.55 286.256 1020.43 287.258C1020.27 288.481 1019.49 289.263 1018.26 289.323C1017.41 289.364 1016.25 288.883 1015.56 288.395C1014.6 287.717 1013.24 287.192 1012.61 286.156C1012.32 285.68 1011.93 285.225 1011.94 284.639C1011.95 284.06 1012.04 283.621 1012.2 283.065C1012.49 282.022 1013.27 281.591 1014.43 281.64C1015.52 281.686 1016.11 281.953 1017.04 282.462Z" fill="url(#paint16_linear_20_5286)"/>
<path d="M1045.53 287.564C1044.85 287.039 1044.58 286.418 1043.74 286.015C1041.27 285.955 1041.25 288.974 1041.72 290.394C1041.9 290.957 1042.49 291.415 1042.85 291.914C1043.27 292.482 1043.73 292.974 1044.21 293.499C1044.83 294.163 1046 294.918 1047.05 294.906C1048.07 294.895 1049.71 295.114 1050.13 294.071C1050.55 293.052 1050.24 291.922 1049.46 291.01C1048.69 290.097 1047.73 289.471 1046.84 288.656C1046.42 288.27 1045.99 287.919 1045.53 287.564Z" fill="url(#paint17_linear_20_5286)"/>
<ellipse rx="12.4336" ry="2.51575" transform="matrix(-0.993308 -0.115495 -0.173099 0.984904 1032.45 276.232)" fill="#78861C"/>
<path d="M1026.82 270.608C1030.84 268.802 1033.65 268.544 1037.83 271.474C1040.87 272.791 1042.34 277.139 1042.71 278.444C1043.03 279.547 1043.51 280.598 1043.76 281.73C1044.11 283.298 1044.48 284.836 1044.73 286.435C1045.19 289.477 1045.6 292.53 1045.46 295.641C1045.35 297.923 1045.05 300.195 1044.63 302.449C1044.4 303.729 1043.95 305.1 1042.95 305.896C1041.91 306.722 1040.98 307.363 1039.8 307.895C1037.61 308.878 1035.3 309.447 1032.96 309.542C1030.78 309.631 1028.55 309.676 1026.41 309.331C1025.44 309.175 1024.5 308.927 1023.56 308.668C1022.73 308.439 1022.07 307.943 1021.29 307.615C1020.11 307.118 1019.29 306.001 1018.58 304.92C1017.82 303.763 1017.21 302.644 1016.94 301.214C1016.6 299.34 1016.41 297.484 1016.72 295.555C1016.9 294.49 1016.98 293.4 1017.15 292.325C1017.33 291.209 1017.6 290.124 1017.78 289.005C1018.18 286.526 1018.67 283.9 1019.56 281.559C1019.91 280.657 1020.12 279.576 1020.6 278.752C1020.82 278.386 1021.02 277.86 1021.17 277.455C1021.39 276.882 1021.75 276.363 1022.02 275.818C1022.61 274.637 1023.46 273.568 1024.31 272.606C1024.97 271.856 1025.93 271.009 1026.82 270.608Z" fill="url(#paint18_linear_20_5286)"/>
<path d="M1023.46 271.789C1023.55 271.244 1025.92 268.238 1026.49 267.791C1027.44 267.509 1029.22 267.093 1033.9 267.53C1038.57 267.967 1039.96 269.183 1040.78 269.671C1041.17 270.229 1042.57 273.456 1042.48 274C1042.48 274 1037.65 272.616 1033.15 272.196C1028.65 271.775 1023.46 271.789 1023.46 271.789Z" fill="#8F9D2F"/>
<path d="M1020.09 274.796C1020.18 274.312 1023.02 271.724 1023.72 271.349C1024.93 271.14 1027.2 270.85 1033.26 271.46C1039.33 272.071 1041.21 273.227 1042.3 273.703C1042.84 274.223 1044.88 277.184 1044.8 277.668C1044.8 277.668 1038.6 275.238 1032.76 274.65C1026.92 274.062 1020.09 274.796 1020.09 274.796Z" fill="#8F9D2F"/>
<path d="M1041.59 275.995C1043.04 276.543 1043.84 275.52 1044.62 274.443C1045.19 273.368 1044.45 272.407 1043.51 271.978C1042.41 271.471 1040.98 272.102 1040.57 273.256C1040.42 273.665 1040.18 274.206 1040.4 274.619C1040.65 275.069 1041.09 275.805 1041.59 275.995Z" fill="#AE8873"/>
<path d="M1023.64 268.974C1024.81 269.299 1026.11 270.922 1025.94 272.16C1025.75 273.368 1024.75 274.217 1023.49 273.687C1022.85 273.419 1022.27 272.986 1021.86 272.418C1021.55 271.982 1021.09 271.39 1021.13 270.815C1021.23 269.52 1022.4 268.633 1023.64 268.974Z" fill="#AE8873"/>
<path d="M1030.76 281.905C1031.15 281.726 1031.71 281.867 1032.11 281.994C1032.66 282.579 1031.71 283.13 1031.07 282.662C1030.84 282.489 1030.32 282.112 1030.76 281.905Z" fill="#372831" stroke="#372831" stroke-width="0.372662" stroke-linecap="round"/>
<path d="M1030.12 285.091C1030.16 284.76 1030.22 284.43 1030.27 284.1C1030.59 283.971 1031.01 283.82 1031.28 283.638C1031.61 283.429 1031.79 283.771 1032.02 283.936C1032.3 284.13 1032.42 284.253 1032.36 284.58C1032.32 284.865 1032.28 285.178 1032.24 285.433C1032.25 285.798 1031.88 285.821 1031.55 285.768L1030.63 285.62C1030.38 285.529 1030.08 285.367 1030.12 285.091Z" fill="#E0D0C1"/>
<path d="M1027.99 283.639C1028.99 284.514 1031.1 284.361 1031.54 283.027C1031.66 284.292 1032.93 285.285 1034.7 284.478" stroke="#372831" stroke-width="0.558993" stroke-linecap="round"/>
</g>
<path d="M1025.9 278.648C1026.34 277.993 1027.69 277.052 1029.49 278.532" stroke="#372831" stroke-width="0.931655"/>
<path d="M1037.47 280.016C1037.21 279.25 1036.15 277.947 1033.9 278.869" stroke="#372831" stroke-width="0.931655"/>
<path d="M145.994 350.635C145.453 349.206 103.309 350.635 97.9059 350.635C92.5028 350.635 84.9384 352.42 84.9384 352.42C83.4976 352.896 80.6159 354.206 82.7771 354.92C84.9384 355.634 124.381 357.777 122.76 356.705C121.139 355.634 109.252 354.92 110.333 353.849C111.414 352.777 146.534 352.063 145.994 350.635Z" fill="white"/>
<path d="M120.009 365.883C120.813 363.896 183.509 365.883 191.547 365.883C199.585 365.883 171.656 374.325 171.656 374.325C173.799 374.987 178.086 376.808 174.871 377.801C171.656 378.795 152.161 375.815 154.572 374.325C156.984 372.835 174.667 371.842 173.06 370.352C171.452 368.862 119.205 367.869 120.009 365.883Z" fill="white"/>
<path d="M199.608 338.085C195.763 335.787 171.922 335.022 160.386 332.723C148.85 330.425 108.089 330.426 111.165 332.723C114.241 335.021 136.545 333.489 143.466 335.021C150.388 336.553 148.85 338.851 163.462 340.383C178.074 341.915 203.454 340.383 199.608 338.085Z" fill="white"/>
<path d="M1322.99 361.635C1322.45 360.206 1280.31 361.635 1274.91 361.635C1269.5 361.635 1261.94 363.42 1261.94 363.42C1260.5 363.896 1257.62 365.206 1259.78 365.92C1261.94 366.634 1301.38 368.777 1299.76 367.705C1298.14 366.634 1286.25 365.92 1287.33 364.849C1288.41 363.777 1323.53 363.063 1322.99 361.635Z" fill="white"/>
<path d="M1284 344.747C1283.73 343.066 1263.12 344.747 1260.48 344.747C1257.84 344.747 1267.02 351.891 1267.02 351.891C1266.31 352.451 1264.9 353.992 1265.96 354.832C1267.02 355.672 1273.43 353.151 1272.63 351.891C1271.84 350.63 1266.03 349.79 1266.56 348.529C1267.08 347.268 1284.26 346.428 1284 344.747Z" fill="white"/>
<path d="M1248.27 384.96C1250.95 383.351 1267.56 382.815 1275.6 381.206C1283.63 379.598 1312.03 379.598 1309.88 381.206C1307.74 382.815 1292.2 381.743 1287.38 382.815C1282.56 383.887 1283.63 385.496 1273.45 386.568C1263.27 387.641 1245.59 386.568 1248.27 384.96Z" fill="white"/>
</g>
<defs>
<filter id="filter0_f_20_5286" x="174" y="1274.33" width="1081" height="274.246" filterUnits="userSpaceOnUse" color-interpolation-filters="sRGB">
<feFlood flood-opacity="0" result="BackgroundImageFix"/>
<feBlend mode="normal" in="SourceGraphic" in2="BackgroundImageFix" result="shape"/>
<feGaussianBlur stdDeviation="2.5" result="effect1_foregroundBlur_20_5286"/>
</filter>
<filter id="filter1_d_20_5286" x="1011.2" y="267.34" width="45.3949" height="43.7562" filterUnits="userSpaceOnUse" color-interpolation-filters="sRGB">
<feFlood flood-opacity="0" result="BackgroundImageFix"/>
<feColorMatrix in="SourceAlpha" type="matrix" values="0 0 0 0 0 0 0 0 0 0 0 0 0 0 0 0 0 0 127 0" result="hardAlpha"/>
<feOffset dy="0.745324"/>
<feGaussianBlur stdDeviation="0.372662"/>
<feComposite in2="hardAlpha" operator="out"/>
<feColorMatrix type="matrix" values="0 0 0 0 0 0 0 0 0 0 0 0 0 0 0 0 0 0 0.25 0"/>
<feBlend mode="normal" in2="BackgroundImageFix" result="effect1_dropShadow_20_5286"/>
<feBlend mode="normal" in="SourceGraphic" in2="effect1_dropShadow_20_5286" result="shape"/>
</filter>
<linearGradient id="paint0_linear_20_5286" x1="1026.28" y1="437.711" x2="984.872" y2="1457.34" gradientUnits="userSpaceOnUse">
<stop stop-color="#AFFFF6" stop-opacity="0"/>
<stop offset="0.0591853" stop-color="#AFFFF6"/>
<stop offset="1" stop-color="#AFFFF6" stop-opacity="0"/>
</linearGradient>
<linearGradient id="paint1_linear_20_5286" x1="467.261" y1="419.012" x2="467.261" y2="1537.49" gradientUnits="userSpaceOnUse">
<stop stop-color="#AFFFF6" stop-opacity="0"/>
<stop offset="0.0591853" stop-color="#AFFFF6"/>
<stop offset="1" stop-color="#AFFFF6" stop-opacity="0"/>
</linearGradient>
<linearGradient id="paint2_linear_20_5286" x1="1219.74" y1="419.012" x2="1219.74" y2="1537.49" gradientUnits="userSpaceOnUse">
<stop stop-color="#AFFFF6" stop-opacity="0"/>
<stop offset="0.0591853" stop-color="white"/>
<stop offset="1" stop-color="#AFFFF6" stop-opacity="0"/>
</linearGradient>
<linearGradient id="paint3_linear_20_5286" x1="812.237" y1="426.072" x2="812.237" y2="1569.2" gradientUnits="userSpaceOnUse">
<stop stop-color="#AFFFF6" stop-opacity="0"/>
<stop offset="0.0591853" stop-color="#AFFFF6"/>
<stop offset="1" stop-color="#AFFFF6" stop-opacity="0"/>
</linearGradient>
<linearGradient id="paint4_linear_20_5286" x1="812.237" y1="426.072" x2="812.237" y2="1569.2" gradientUnits="userSpaceOnUse">
<stop stop-color="#AFFFF6" stop-opacity="0"/>
<stop offset="0.0591853" stop-color="#AFFFF6"/>
<stop offset="1" stop-color="#AFFFF6" stop-opacity="0"/>
</linearGradient>
<linearGradient id="paint5_linear_20_5286" x1="812.237" y1="426.072" x2="812.237" y2="1569.2" gradientUnits="userSpaceOnUse">
<stop stop-color="#AFFFF6" stop-opacity="0"/>
<stop offset="0.0591853" stop-color="#AFFFF6"/>
<stop offset="1" stop-color="#AFFFF6" stop-opacity="0"/>
</linearGradient>
<linearGradient id="paint6_linear_20_5286" x1="199.256" y1="426.072" x2="199.256" y2="1569.2" gradientUnits="userSpaceOnUse">
<stop stop-color="#AFFFF6" stop-opacity="0"/>
<stop offset="0.0591853" stop-color="white"/>
<stop offset="1" stop-color="#AFFFF6" stop-opacity="0"/>
</linearGradient>
<linearGradient id="paint7_linear_20_5286" x1="199.256" y1="426.072" x2="199.256" y2="1569.2" gradientUnits="userSpaceOnUse">
<stop stop-color="#AFFFF6" stop-opacity="0"/>
<stop offset="0.0591853" stop-color="white"/>
<stop offset="1" stop-color="#AFFFF6" stop-opacity="0"/>
</linearGradient>
<linearGradient id="paint8_linear_20_5286" x1="199.256" y1="426.072" x2="199.256" y2="1569.2" gradientUnits="userSpaceOnUse">
<stop stop-color="#AFFFF6" stop-opacity="0"/>
<stop offset="0.0591853" stop-color="white"/>
<stop offset="1" stop-color="#AFFFF6" stop-opacity="0"/>
</linearGradient>
<linearGradient id="paint9_linear_20_5286" x1="405.383" y1="249.145" x2="405.383" y2="347.557" gradientUnits="userSpaceOnUse">
<stop stop-color="#005158"/>
<stop offset="1" stop-color="#00435D"/>
</linearGradient>
<linearGradient id="paint10_linear_20_5286" x1="714" y1="1411.45" x2="714" y2="1685.78" gradientUnits="userSpaceOnUse">
<stop stop-color="white"/>
<stop offset="1" stop-color="white" stop-opacity="0"/>
</linearGradient>
<linearGradient id="paint11_linear_20_5286" x1="714" y1="1411.45" x2="714" y2="1685.78" gradientUnits="userSpaceOnUse">
<stop stop-color="white"/>
<stop offset="1" stop-color="white" stop-opacity="0"/>
</linearGradient>
<linearGradient id="paint12_linear_20_5286" x1="640" y1="1471.96" x2="640" y2="1746.29" gradientUnits="userSpaceOnUse">
<stop stop-color="#AFFFF6"/>
<stop offset="1" stop-color="white" stop-opacity="0"/>
</linearGradient>
<linearGradient id="paint13_linear_20_5286" x1="1029.5" y1="296" x2="1029.5" y2="340" gradientUnits="userSpaceOnUse">
<stop stop-color="#005158"/>
<stop offset="1" stop-color="#00435D"/>
</linearGradient>
<linearGradient id="paint14_linear_20_5286" x1="1037.05" y1="302.061" x2="1036.74" y2="315.598" gradientUnits="userSpaceOnUse">
<stop stop-color="#AE806B"/>
<stop offset="1" stop-color="#B29278"/>
</linearGradient>
<linearGradient id="paint15_linear_20_5286" x1="1025.05" y1="300.881" x2="1021.09" y2="313.83" gradientUnits="userSpaceOnUse">
<stop stop-color="#B0826D"/>
<stop offset="1" stop-color="#B29278"/>
</linearGradient>
<linearGradient id="paint16_linear_20_5286" x1="1019.24" y1="287.008" x2="1010.98" y2="282.346" gradientUnits="userSpaceOnUse">
<stop stop-color="#AD806B"/>
<stop offset="0.674683" stop-color="#C99A81"/>
</linearGradient>
<linearGradient id="paint17_linear_20_5286" x1="1042.5" y1="289.001" x2="1046.46" y2="291.166" gradientUnits="userSpaceOnUse">
<stop stop-color="#B0826D"/>
<stop offset="0.901042" stop-color="#C89980"/>
</linearGradient>
<linearGradient id="paint18_linear_20_5286" x1="1035.34" y1="269.851" x2="1028.92" y2="309.734" gradientUnits="userSpaceOnUse">
<stop stop-color="#AD806B"/>
<stop offset="1" stop-color="#C99A81"/>
</linearGradient>
<clipPath id="clip0_20_5286">
<rect width="1440" height="1723" fill="white"/>
</clipPath>
</defs>
</svg>
