<svg width="557" height="278" viewBox="0 0 557 278" fill="none" xmlns="http://www.w3.org/2000/svg">
<g opacity="0.7">
<path d="M51.4502 21.6239C83.4667 -2.62151 134.07 1.93459 154.719 7.18503C180.53 13.7481 426.5 -16.5 414.5 14C411.709 21.0944 392.499 22.3311 378.235 22.2412C411.089 24.9791 448.808 35.9058 473 39.5C594.829 57.6001 570.5 204 480.671 233.576C442.04 246.295 196.737 247.767 169.725 235.954C165.924 234.641 157.6 233.591 154.719 239.892C151.117 247.767 163.122 249.08 169.725 250.393C176.328 251.705 244.157 256.956 265.166 255.643C286.175 254.33 374.5 268.769 275.97 275.332C272.421 275.569 175.128 281.895 137.912 268.769C154.319 274.895 164.923 283.471 76.0853 268.769C-34.9619 250.393 -1.7101 147.251 34.3052 131.5C-3.69477 125.5 -9.08101 28.1868 51.4502 21.6239Z" fill="url(#paint0_linear_5683_6398)"/>
<path d="M51.4502 21.6239C83.4667 -2.62151 134.07 1.93459 154.719 7.18503C180.53 13.7481 426.5 -16.5 414.5 14C411.709 21.0944 392.499 22.3311 378.235 22.2412C411.089 24.9791 448.808 35.9058 473 39.5C594.829 57.6001 570.5 204 480.671 233.576C442.04 246.295 196.737 247.767 169.725 235.954C165.924 234.641 157.6 233.591 154.719 239.892C151.117 247.767 163.122 249.08 169.725 250.393C176.328 251.705 244.157 256.956 265.166 255.643C286.175 254.33 374.5 268.769 275.97 275.332C272.421 275.569 175.128 281.895 137.912 268.769C154.319 274.895 164.923 283.471 76.0853 268.769C-34.9619 250.393 -1.7101 147.251 34.3052 131.5C-3.69477 125.5 -9.08101 28.1868 51.4502 21.6239Z" fill="url(#paint1_linear_5683_6398)" fill-opacity="0.1"/>
</g>
<defs>
<linearGradient id="paint0_linear_5683_6398" x1="220.5" y1="1.99976" x2="254.949" y2="248.217" gradientUnits="userSpaceOnUse">
<stop stop-color="#EEF0ED"/>
<stop offset="1" stop-color="#EDEFF0" stop-opacity="0.3"/>
</linearGradient>
<linearGradient id="paint1_linear_5683_6398" x1="97.6186" y1="-9.8792" x2="178.222" y2="0.234015" gradientUnits="userSpaceOnUse">
<stop stop-color="#F8D574"/>
<stop offset="1" stop-color="#FDBA00" stop-opacity="0"/>
</linearGradient>
</defs>
</svg>
