<svg width="541" height="279" viewBox="0 0 541 279" fill="none" xmlns="http://www.w3.org/2000/svg">
<path opacity="0.7" d="M63.0367 259.11C91.809 283.443 137.285 278.871 155.842 273.601C179.037 267.014 309.58 288.092 314.435 273.601C318.319 262.008 309.04 259.11 309.04 259.11C341.227 259.549 444.062 255.013 448.765 254.91C568.35 252.275 575.094 71.5719 448.765 46.3898C411.24 36.3232 334.007 33.269 286.929 32.8394C319.749 32.7501 356.491 30.8564 342.5 11.0693C331 -5.19482 174.182 -2.10434 140.737 11.0693C155.482 4.92163 165.012 -3.68518 85.1756 11.0693C-14.6194 29.5125 -12.4881 129.854 19.8778 145.663C8.90937 159.276 8.63907 252.523 63.0367 259.11Z" fill="url(#paint0_linear_5683_5289)"/>
<defs>
<linearGradient id="paint0_linear_5683_5289" x1="186.122" y1="290.727" x2="180.562" y2="41.3211" gradientUnits="userSpaceOnUse">
<stop stop-color="#EEF0ED" stop-opacity="0.3"/>
<stop offset="0.75998" stop-color="#EEF0ED"/>
</linearGradient>
</defs>
</svg>
