<svg width="345" height="355" viewBox="0 0 345 355" fill="none" xmlns="http://www.w3.org/2000/svg">
<g filter="url(#filter0_i_3553_5007)">
<path d="M233.785 176.217C241.692 175.798 250.18 182.271 250.861 195.129C251.542 207.986 242.485 218.092 234.578 218.511C226.671 218.93 222.909 209.504 222.228 196.646C221.547 183.788 225.878 176.636 233.785 176.217Z" fill="#876F5E"/>
<path d="M194.985 101.489C201.458 96.929 212.545 98.5428 220.809 110.274C229.074 122.005 227.413 136.279 220.94 140.84C214.467 145.4 205.634 138.519 197.369 126.788C189.105 115.057 188.513 106.049 194.985 101.489Z" fill="#876F5E"/>
<path d="M215.304 267.469C209.108 266.139 202.807 263.926 202.28 262.953C213.127 256.342 223.243 233.927 225.359 227.504C236.481 233.331 235.089 247.36 233.796 249.948C229.51 256.191 221.499 268.8 215.304 267.469Z" fill="#876F5E"/>
<path d="M151.78 82.5227C157.494 85.3847 159.987 93.6306 159.934 94.8122C148.107 93.5546 129.187 106.445 124.388 110.643C118.382 98.4427 123.76 89.7079 129.379 87.3984C135.816 84.753 146.573 79.9144 151.78 82.5227Z" fill="#876F5E"/>
<path d="M127.882 101.374C154.131 81.1973 199.136 90.788 223.17 134.644C247.203 178.501 241.165 240.015 214.916 260.192C188.667 280.368 147.905 261.172 123.871 217.316C99.8374 173.459 101.633 121.55 127.882 101.374Z" fill="#A68B75"/>
<path d="M206.011 173.12C212.977 199.291 227.658 221.309 235.678 225.045C244.409 218.257 248.714 185.086 238.206 157.482C226.612 127.028 211.843 107.955 204.224 111.007C202.147 119.701 199.045 146.948 206.011 173.12Z" fill="#C2A28A"/>
<path d="M114.773 107.848C147.247 97.3094 172.652 113.542 194.441 155.908C216.371 205.313 207.052 253.837 180.076 262.277C148.292 270.068 108.07 262.875 86.1395 213.47C64.2094 164.065 87.3916 120.002 114.773 107.848Z" fill="#C2A28A"/>
<path d="M180.592 134.119C191.236 130.876 209.32 144.821 216.154 167.257C222.989 189.693 217.013 217.338 205.728 216.6C194.915 215.894 188.039 212.884 178.637 178.586C167.676 156.038 170.433 139.049 180.592 134.119Z" fill="#E8D5C7"/>
<ellipse cx="3.38833" cy="3.41718" rx="3.38833" ry="3.41718" transform="matrix(0.827815 -0.561001 0.471247 0.882002 172.216 208.312)" fill="#3F3D3B"/>
<ellipse cx="3.62014" cy="3.41718" rx="3.62014" ry="3.41718" transform="matrix(0.996108 -0.0881362 -0.0166401 0.999862 152.558 143.517)" fill="#3F3D3B"/>
<path d="M79.4804 133.7C89.7092 115.03 106.429 119.754 113.51 124.45C100.125 142.527 98.93 158.292 100.006 163.914C88.9019 161.622 69.2517 152.37 79.4804 133.7Z" fill="#DAB9A0"/>
<path d="M116.728 258.505C101.748 243.378 111.043 228.699 117.563 223.251C131.074 241.234 145.844 246.873 151.54 247.445C146.177 257.435 131.707 273.632 116.728 258.505Z" fill="#DAB9A0"/>
<path d="M90.0407 135.579C94.7436 127.575 105.626 127.218 110.331 129.129C101.169 142.855 100.046 154.309 99.7313 157.514L99.7254 157.573C94.6628 155.879 80.6608 151.543 90.0407 135.579Z" fill="#3F3D3B"/>
<path d="M126.559 253.192C135.163 257.223 144.636 251.172 147.545 246.807C131.855 240.535 124.317 231.493 122.207 228.963L122.168 228.916C118.83 233.306 109.398 245.152 126.559 253.192Z" fill="#3F3D3B"/>
<path d="M185.673 177.208L201.556 170.364" stroke="#3F3D3B" stroke-width="2.20564"/>
<path d="M202.456 170.938L206.593 175.34" stroke="#3F3D3B" stroke-width="2.20564" stroke-linecap="round"/>
<path d="M201.883 169.949L204.262 163.105" stroke="#3F3D3B" stroke-width="2.20564" stroke-linecap="round"/>
<path d="M186.985 170.28C189.246 170.098 192.219 172.004 193.102 174.616C193.984 177.227 193.3 180.369 190.87 181.773C187.969 183.448 186.52 180.958 185.448 177.785C184.375 174.611 183.812 171.353 186.985 170.28Z" fill="#3F3D3B"/>
</g>
<defs>
<filter id="filter0_i_3553_5007" x="76.6201" y="81.7744" width="174.277" height="186.439" filterUnits="userSpaceOnUse" color-interpolation-filters="sRGB">
<feFlood flood-opacity="0" result="BackgroundImageFix"/>
<feBlend mode="normal" in="SourceGraphic" in2="BackgroundImageFix" result="shape"/>
<feColorMatrix in="SourceAlpha" type="matrix" values="0 0 0 0 0 0 0 0 0 0 0 0 0 0 0 0 0 0 127 0" result="hardAlpha"/>
<feOffset dx="-2.66188" dy="0.887292"/>
<feComposite in2="hardAlpha" operator="arithmetic" k2="-1" k3="1"/>
<feColorMatrix type="matrix" values="0 0 0 0 1 0 0 0 0 0.905882 0 0 0 0 0.572549 0 0 0 1 0"/>
<feBlend mode="normal" in2="shape" result="effect1_innerShadow_3553_5007"/>
</filter>
</defs>
</svg>
