<svg width="1440" height="775" viewBox="0 0 1440 775" fill="none" xmlns="http://www.w3.org/2000/svg">

<path d="M-4.70306 244.745C-4.70306 244.745 1141.5 175.63 1398.77 282.617C1531.01 337.611 1438.51 908.77 1438.51 908.77H-4.70306V244.745Z" fill="url(#paint0_linear_1_9292)"/>
<path d="M-13.9306 328.635H1342.44L1358.04 340.326H-13.9306V328.635Z" fill="#454444"/>
<path d="M-12.3507 381.768C-12.3507 377.902 -9.2167 374.768 -5.35071 374.768H1375.11C1375.25 374.768 1375.37 374.771 1375.5 374.781C1377.84 374.966 1401.43 377.296 1408.79 396.779C1412.89 407.634 1429.15 443.686 1437.21 461.424C1439.33 466.098 1435.87 471.388 1430.74 471.328L-5.43274 454.506C-9.2665 454.461 -12.3507 451.341 -12.3507 447.507V381.768Z" fill="#373737"/>
<path d="M1019.5 357.571C1019.5 357.289 1018.8 357.16 1018.46 357.131C1018.46 357.09 1018.48 357.006 1018.57 357.006C1018.68 357.006 1019.34 357.234 1019.5 357.383C1019.62 357.502 1019.55 357.04 1019.5 356.794H1019.74C1019.69 357.014 1019.63 357.439 1019.74 357.383C1019.85 357.326 1020.5 357.108 1020.81 357.006L1020.91 357.131C1020 357.232 1019.75 357.467 1019.74 357.571C1019.63 359.088 1020.06 358.907 1020.08 359.135C1020.09 359.362 1019.13 359.394 1019.34 359.017C1019.54 358.64 1019.5 357.925 1019.5 357.571Z" fill="#AD8B68"/>
<path d="M1018.79 356.793C1018.91 356.746 1018.86 356.629 1018.81 356.576C1018.87 356.481 1018.76 356.45 1018.7 356.447C1018.64 356.325 1018.55 356.395 1018.51 356.445C1018.42 356.385 1018.31 356.446 1018.27 356.484C1018.16 356.443 1018.04 356.554 1018 356.614C1017.85 356.662 1017.89 356.773 1017.92 356.822C1017.79 356.892 1017.89 357.02 1017.96 357.076C1017.97 357.161 1018.1 357.176 1018.16 357.173C1018.3 357.329 1018.47 357.206 1018.55 357.125C1018.66 357.217 1018.75 357.087 1018.78 357.01C1018.89 356.982 1018.83 356.854 1018.79 356.793Z" fill="#97B476"/>
<path d="M1018.57 355.752C1018.23 355.756 1018.25 356.098 1018.3 356.268C1018.07 356.451 1018.31 356.635 1018.46 356.705C1018.48 357.062 1018.78 356.979 1018.93 356.893C1019.09 357.128 1019.42 357.082 1019.56 357.031C1019.79 357.238 1020.19 357.076 1020.36 356.969C1020.76 356.99 1020.79 356.683 1020.75 356.527C1021.14 356.482 1021.02 356.064 1020.91 355.86C1020.95 355.633 1020.66 355.474 1020.51 355.424C1020.31 354.9 1019.75 355.034 1019.49 355.166C1019.31 354.828 1018.95 355.061 1018.8 355.22C1018.49 355.183 1018.52 355.559 1018.57 355.752Z" fill="url(#paint1_linear_1_9292)"/>
<path d="M1021.05 358.28C1020.71 358.283 1020.73 358.626 1020.78 358.796C1020.55 358.979 1020.79 359.163 1020.95 359.232C1020.97 359.59 1021.26 359.507 1021.41 359.421C1021.57 359.655 1021.9 359.61 1022.05 359.558C1022.27 359.765 1022.67 359.604 1022.84 359.497C1023.24 359.518 1023.27 359.211 1023.23 359.055C1023.63 359.009 1023.5 358.592 1023.39 358.388C1023.43 358.161 1023.14 358.002 1022.99 357.952C1022.79 357.428 1022.23 357.561 1021.98 357.693C1021.79 357.356 1021.44 357.589 1021.28 357.748C1020.98 357.711 1021 358.087 1021.05 358.28Z" fill="url(#paint2_linear_1_9292)"/>
<path d="M1019.67 359.331C1019.42 359.334 1019.43 359.594 1019.47 359.724C1019.29 359.863 1019.48 360.003 1019.59 360.056C1019.61 360.328 1019.84 360.265 1019.95 360.199C1020.07 360.378 1020.32 360.343 1020.43 360.304C1020.6 360.461 1020.9 360.338 1021.03 360.257C1021.34 360.273 1021.36 360.039 1021.34 359.921C1021.63 359.886 1021.54 359.568 1021.45 359.413C1021.48 359.24 1021.26 359.12 1021.15 359.081C1021 358.683 1020.57 358.784 1020.38 358.885C1020.24 358.628 1019.97 358.805 1019.85 358.926C1019.62 358.898 1019.64 359.184 1019.67 359.331Z" fill="url(#paint3_linear_1_9292)"/>
<path d="M1021.37 357.052C1021.53 357.022 1021.49 356.871 1021.45 356.798C1021.54 356.697 1021.42 356.635 1021.34 356.617C1021.3 356.459 1021.18 356.521 1021.12 356.572C1021.03 356.48 1020.88 356.528 1020.82 356.564C1020.7 356.49 1020.54 356.595 1020.47 356.658C1020.28 356.682 1020.3 356.822 1020.33 356.889C1020.15 356.942 1020.25 357.119 1020.31 357.2C1020.31 357.306 1020.46 357.352 1020.53 357.362C1020.66 357.58 1020.9 357.474 1021.01 357.393C1021.12 357.529 1021.26 357.394 1021.32 357.31C1021.45 357.301 1021.41 357.135 1021.37 357.052Z" fill="#97B476"/>
<path d="M1449.05 438.595C1407.48 383.372 1342.21 333.227 1302.71 330.707C1253.33 327.557 868 252.5 -5.5 316" stroke="#535353" stroke-width="120" stroke-linecap="round"/>
<path d="M1263.5 251.5C1381.72 222.147 1404.6 46.3913 1421 -45.0001C1421 -45.0001 1481.07 93.1977 1434.5 166.5C1387.81 239.997 1378 271.5 1378 271.5L1263.5 251.5Z" fill="url(#paint4_linear_1_9292)"/>
<g filter="url(#filter0_dd_1_9292)">
<g filter="url(#filter1_f_1_9292)">
<path d="M-12.1634 304.098C321.163 283.032 1057.11 258.695 1334.31 329.88C1367.92 348.378 1448.57 403.658 1502.36 476.792" stroke="url(#paint5_linear_1_9292)" stroke-width="19" stroke-linecap="round"/>
</g>
<g filter="url(#filter2_f_1_9292)">
<path d="M74.8792 328.134L2.54839 332.144L-26.1909 333.737C-26.7424 333.767 -27.1642 334.239 -27.1331 334.791L-22.9158 409.638C-22.8856 410.173 -22.4391 410.59 -21.9033 410.583L44.5208 409.714C70.2097 411.311 59.5805 386.889 58.7038 371.329C57.8093 355.454 61.2391 342.398 75.5944 329.969C76.3312 329.331 75.8526 328.08 74.8792 328.134Z" fill="url(#paint6_linear_1_9292)" stroke="#44413E" stroke-width="5"/>
<line y1="-2.5" x2="90.3887" y2="-2.5" transform="matrix(0.998449 -0.0553487 0.0562578 0.998431 -26.3596 348.517)" stroke="#44413E" stroke-width="5"/>
<line y1="-2.5" x2="82.3985" y2="-2.5" transform="matrix(0.998449 -0.0553487 0.0562578 0.998431 -25.3791 365.919)" stroke="#44413E" stroke-width="5"/>
<line y1="-2.5" x2="82.3985" y2="-2.5" transform="matrix(0.998449 -0.0553487 0.0562578 0.998431 -24.3608 383.99)" stroke="#44413E" stroke-width="5"/>
<line y1="-2.5" x2="85.3948" y2="-2.5" transform="matrix(0.998449 -0.0553487 0.0562578 0.998431 -23.4935 399.385)" stroke="#605B50" stroke-width="5"/>
</g>
<g filter="url(#filter3_d_1_9292)">
<path d="M1681.18 754.603L1285.84 351.552L1012.12 245.919L850.615 316.246L629.512 249.921L407.884 320.877L195.874 270.81L-314.04 566.125L-81.0975 593.593L264.844 706.42L622.84 604.621L987.081 681.706L1305.06 587.68L1681.18 754.603Z" fill="url(#paint7_linear_1_9292)"/>
</g>
<path d="M1010.81 247.96L1302.98 582.49" stroke="url(#paint8_linear_1_9292)" stroke-width="5"/>
<path d="M850.83 316.612L985.016 677.077" stroke="url(#paint9_linear_1_9292)" stroke-width="5"/>
<path d="M629.811 250.96L622.98 600.913" stroke="url(#paint10_linear_1_9292)" stroke-width="5"/>
<path d="M407.807 320.96L267.023 701.729" stroke="url(#paint11_linear_1_9292)" stroke-width="5"/>
<path d="M197.807 272.96L-89.3335 569.849" stroke="url(#paint12_linear_1_9292)" stroke-width="5"/>
</g>
<path d="M1084.49 577.695L1198.81 619.46L1166.81 628.46L1071.31 582.46L1084.49 577.695Z" fill="url(#paint13_linear_1_9292)"/>
<path d="M1216.32 524.579L1071.99 575.329C1070.07 576.004 1068.99 578.265 1069.62 580.331C1070.24 582.392 1072.3 583.452 1074.19 582.68L1216.32 524.579Z" fill="#AC897E"/>
<path d="M686.002 381.191L685.883 328.775C685.872 324.18 690.216 320.822 694.66 321.988L739.107 333.656C743.544 334.821 747.884 331.473 747.884 326.886L747.884 321.563C747.884 318.522 745.869 315.812 742.972 314.887C661.905 289.028 651.938 290.567 653.242 275.739L653.2 257.083" stroke="url(#paint14_linear_1_9292)" stroke-width="4"/>
<path d="M1025.81 320.96L1012.43 301.729C1011.04 299.737 1011.73 296.979 1013.9 295.879L1037.74 283.754C1038.74 283.248 1039.9 283.181 1040.95 283.57L1277.81 371.46" stroke="#EEE3E2" stroke-width="4"/>
<path d="M829.186 645.081L819.293 544.502C818.815 539.641 823.337 535.797 828.057 537.051L877.973 550.316C883.207 551.706 887.969 546.883 886.513 541.668L869.423 480.458C868.734 477.993 866.682 476.083 864.188 475.507C762.634 452.084 760.686 456.551 760.686 434.96L760.686 408.46" stroke="url(#paint15_linear_1_9292)" stroke-width="4"/>
<path d="M1075.3 577.96L1207.17 530.086C1216.22 526.801 1218.69 515.162 1211.75 508.492L1192.22 489.729C1188.67 486.32 1183.5 485.206 1178.86 486.851L1058.8 529.439C1052.73 531.594 1045.99 528.973 1042.97 523.281L1024.17 487.845C1020.56 481.042 1023.62 472.61 1030.75 469.709L1124.44 431.613C1132.56 428.312 1135.15 418.086 1129.59 411.315L1054.51 319.99C1050.75 315.416 1044.38 313.96 1039.01 316.45L924.988 369.279C918.718 372.184 915.816 379.487 918.383 385.902L952.931 472.273C955.615 478.985 952.31 486.597 945.572 489.217L933.994 493.72C927.274 496.333 919.711 492.979 917.138 486.244L872.693 369.923C871.23 366.093 868.046 363.178 864.102 362.058L796.417 342.829C788.114 340.47 779.86 346.709 779.864 355.34L779.882 395.486C779.886 404.3 771.304 410.563 762.912 407.871L635.397 366.975C630.017 365.25 626.367 360.246 626.367 354.596L626.367 332.905C626.367 324.673 618.812 318.514 610.749 320.172L581.889 326.106C578.919 326.717 576.375 323.93 577.255 321.028L578.662 316.386C579.681 313.02 582.433 310.445 585.827 309.523C621.459 299.836 613.017 293.218 615.306 277.96C617.706 261.96 596.806 271.96 556.806 284.46" stroke="url(#paint16_linear_1_9292)" stroke-width="5" stroke-linecap="square"/>
<path d="M1093.81 572.96L1088.36 575.23C1085.91 576.25 1085.89 579.712 1088.33 580.756L1088.81 580.96" stroke="#AA887C" stroke-width="3"/>
<g filter="url(#filter4_f_1_9292)">
<g filter="url(#filter5_d_1_9292)">
<path d="M547.377 313.96C552.846 311.331 546.164 310.018 551.806 307.96C551.878 307.934 551.95 307.907 552.023 307.882C559.876 305.067 568.117 303.208 575.643 299.61C584.792 295.236 585.662 293.86 582.306 290.96C572.691 282.651 544.839 296.277 547.377 289.347C550.375 281.158 513.876 289.69 488.379 299.194C468.884 306.461 465.568 313.732 478.327 320.457C497.306 330.46 538.349 318.299 547.377 313.96Z" fill="url(#paint17_linear_1_9292)"/>
</g>
<g filter="url(#filter6_d_1_9292)">
<path d="M530.215 244.944C523.669 260.72 513.056 279.21 501.617 288.881C508.9 296.272 531.093 306.66 539.871 304.705C550.843 302.262 554.765 289.501 564.981 291.51C575.198 293.518 573.79 289.1 571.624 285.392C558.165 273.023 538.397 225.224 530.215 244.944Z" fill="#C3D5A6"/>
</g>
<g filter="url(#filter7_d_1_9292)">
<path d="M519.613 268.93C518.775 270.947 519.364 265.641 521.887 262.514C524.928 255.629 529.926 240.746 533.693 239.974C541.528 238.367 554.69 259.837 554.9 261.661C555.11 263.486 551.829 260.323 550.577 262.28C549.326 264.237 547.476 261.146 543.968 259.512C540.46 257.878 540.595 260.212 539.039 267.459C537.483 274.706 530.519 265.567 529.185 262.892C527.851 260.217 520.66 266.408 519.613 268.93Z" fill="#F2F5FF"/>
</g>
<g filter="url(#filter8_d_1_9292)">
<path d="M1049.68 416.012C1042.49 418.96 1062.3 419.883 1055.34 424.086C1043.86 431.023 981.806 442.46 958.933 431.792C955.412 430.15 960.78 427.32 965.945 424.093L973.306 416.012C970.489 405.96 922.306 407.263 963.602 389.801C996.124 376.05 1049.16 366.625 1045.56 383.251C1042.51 397.32 1087.73 377.358 1100.36 397.415C1104.21 403.519 1096.36 408.554 1085.55 413.283C1074.54 418.093 1060.79 411.461 1049.68 416.012Z" fill="url(#paint18_linear_1_9292)"/>
</g>
<g filter="url(#filter9_d_1_9292)">
<path d="M497.135 279.917C493.251 289.288 486.954 300.271 480.168 306.017C484.487 310.405 494.426 318.892 499.633 317.73C506.142 316.277 511.667 308.028 517.752 307.568C524.505 307.057 525.884 304.259 524.174 302.686C516.193 295.341 501.991 268.203 497.135 279.917Z" fill="#B3CA9C"/>
</g>
<g filter="url(#filter10_d_1_9292)">
<path d="M493.003 293.428C492.456 294.694 492.285 291.79 492.268 290.18C494.254 285.859 497.499 276.509 499.998 276.048C505.198 275.089 514.06 288.719 514.209 289.871C514.358 291.023 512.161 289.006 511.339 290.231C510.517 291.456 509.271 289.494 506.931 288.44C504.591 287.385 504.692 288.858 503.696 293.417C502.7 297.976 498.812 288.362 497.911 286.666C497.01 284.97 493.686 291.845 493.003 293.428Z" fill="#F2F5FF"/>
</g>
</g>
<g filter="url(#filter11_d_1_9292)">
<path d="M1009.13 324.718C1021.45 343.746 1039.52 365.256 1056.83 375.926C1057.81 376.528 1058.09 377.87 1057.33 378.793C1048.31 389.728 1026.77 398.26 1015.85 405.369C1002.56 414.022 987.413 401.208 974.543 402.28C960.47 403.453 953.981 401.843 963.184 389.643C978.31 369.591 993.187 300.092 1009.13 324.718Z" fill="#C2E1B3"/>
</g>
<g filter="url(#filter12_d_1_9292)">
<path d="M1024.57 353.611C1027.27 354.846 1026.59 351.068 1025.97 347.615C1020.15 339.063 1008.48 318.973 1003.2 318.862C992.212 318.631 978.043 354.208 978.211 356.726C978.379 359.244 981.955 351.282 985.391 358.926C986.402 361.175 989.239 348.26 993.576 345.183C997.912 342.106 995.197 364.64 1000.29 364.215C1002.61 364.022 1007.68 352.989 1008.82 349.043C1009.97 345.098 1019.75 351.398 1024.57 353.611Z" fill="#F1F9FB"/>
</g>
<g filter="url(#filter13_d_1_9292)">
<path d="M1065.34 362.045C1073.29 374.33 1080.82 381.492 1090.52 401.63C1091.17 402.987 1090.13 404.623 1088.64 404.769C1079.81 405.633 1079.12 410.855 1071.87 410.577C1061.79 410.19 1051.04 405.818 1042.21 408.801C1025.73 414.373 1032.11 410.949 1034.66 404.855C1034.72 404.712 1034.79 404.582 1034.87 404.454C1044.23 390.417 1054.97 346.014 1065.34 362.045Z" fill="#B3D7AA"/>
<g filter="url(#filter14_d_1_9292)">
<path d="M1075.35 380.963C1076.35 382.526 1075.94 379.1 1075.54 376.727C1075.47 376.322 1075.31 375.943 1075.09 375.606C1071.15 369.616 1064.46 357.57 1061.07 357.469C1053.81 357.253 1045.72 378.898 1045.85 380.593C1045.97 382.288 1048.36 378.886 1049.81 380.468C1051.26 382.05 1052.38 378.942 1055.23 376.896C1058.08 374.85 1058.36 376.997 1060.98 383.348C1063.6 389.699 1066.12 374.962 1066.86 372.314C1067.59 369.666 1073.99 378.834 1075.35 380.963Z" fill="#F1F9FB"/>
</g>
</g>
<g filter="url(#filter15_di_1_9292)">
<path d="M994.834 427.917C1007.17 426.664 1030.18 424.723 1027.88 423.364C1025 421.664 1008.93 422.311 1017.72 420.335C1026.51 418.36 1051.35 413.473 1034.13 413.814C1031.66 413.863 1027.2 413.255 1024.72 413.501C1024.72 413.501 1013.52 412.412 1013.36 410.744C1013.2 409.075 1037.05 401.372 1037.5 400.825C1037.68 400.611 1038.04 399.828 1038.26 399.347C1038.31 399.305 1038.34 399.267 1038.35 399.234C1038.53 398.767 1038.44 398.959 1038.26 399.347C1036.86 400.653 1020.23 406.354 1013.23 409.476C1009.22 411.271 1016.36 412.26 1020.21 413.983C1010.45 414.125 1003.83 414.536 1006.09 416.901C1008.82 419.772 998.264 420.47 990.379 422.434C990.079 422.509 986.461 423.433 986.203 423.521C982.074 424.917 981.182 427.764 987.744 427.782L994.834 427.917Z" fill="url(#paint19_linear_1_9292)" shape-rendering="crispEdges"/>
</g>
<g filter="url(#filter16_df_1_9292)">
<path d="M536.156 254.682C530.204 260.077 545.367 258.908 553.692 257.649C558.369 260.023 564.852 258.638 567.509 257.649C571.051 258.998 581.306 258.623 581.306 252.46C581.306 249.238 574.681 250.96 571.228 247.939C565.064 242.544 560.866 245.691 559.538 247.939C549.547 242.544 546.164 250.187 545.721 254.682C545.013 252.434 542.108 249.287 536.156 254.682Z" fill="url(#paint20_linear_1_9292)" shape-rendering="crispEdges"/>
</g>
<g filter="url(#filter17_df_1_9292)">
<path d="M953.026 370.988C947.651 375.997 961.346 374.912 968.866 373.743C973.09 375.947 978.945 374.661 981.345 373.743C984.545 374.995 993.807 374.647 993.807 368.924C993.807 365.932 987.823 367.531 984.705 364.726C979.137 359.716 975.345 362.639 974.145 364.726C965.122 359.716 962.066 366.813 961.666 370.988C961.026 368.9 958.402 365.978 953.026 370.988Z" fill="url(#paint21_linear_1_9292)" shape-rendering="crispEdges"/>
</g>
<g filter="url(#filter18_df_1_9292)">
<path d="M494.145 297.432C497.058 299.359 489.638 298.941 485.564 298.492C483.275 299.34 480.103 298.845 478.802 298.492C477.069 298.974 473.289 299.436 472.041 297.432C470.793 295.428 474.815 294.992 476.982 295.024C479.999 293.097 482.053 294.221 482.703 295.024C487.592 293.097 489.248 295.827 489.464 297.432C489.811 296.629 491.233 295.505 494.145 297.432Z" fill="url(#paint22_linear_1_9292)" shape-rendering="crispEdges"/>
</g>
<g clip-path="url(#clip0_1_9292)">
<ellipse cx="1290.34" cy="512.442" rx="17.1408" ry="11.9986" transform="rotate(21.4817 1290.34 512.442)" fill="url(#paint23_radial_1_9292)"/>
<path d="M1309.9 422.099C1308.22 421.577 1306.45 422.617 1306.08 424.344L1287.86 510.527C1287.09 514.142 1292.27 515.673 1293.59 512.223L1325.11 430.157C1325.73 428.537 1324.86 426.728 1323.2 426.215L1309.9 422.099Z" fill="url(#paint24_linear_1_9292)"/>
<path d="M1310.03 439.281C1359.2 453.174 1402.43 452.499 1406.59 437.773C1410.75 423.047 1374.26 399.848 1325.09 385.955C1275.93 372.062 1232.69 372.737 1228.53 387.463C1224.37 402.188 1260.86 425.388 1310.03 439.281Z" fill="#5667CF"/>
<path d="M1357.52 268.714C1401.66 281.187 1440.11 284.359 1442.14 277.176C1444.17 269.992 1410.03 254.058 1365.89 241.585C1321.74 229.111 1284.31 224.823 1282.28 232.006C1280.25 239.19 1307.92 254.699 1357.52 268.714Z" fill="#5667CF"/>
<g filter="url(#filter19_d_1_9292)">
<path d="M1319.25 263.169C1319.01 263.088 1318.77 263.158 1318.66 263.381C1315.55 269.505 1273.06 353.61 1262.89 387.272C1262.85 387.424 1262.87 387.562 1262.97 387.686C1264.7 389.904 1282.36 411.516 1318.79 420.689C1355.26 429.872 1378.13 417.445 1380.36 416.157C1380.49 416.085 1380.55 415.986 1380.58 415.844C1381.2 412.101 1390.16 357.785 1395.35 285.091C1395.37 284.844 1395.2 284.617 1394.96 284.563C1390.77 283.633 1355.94 275.761 1319.25 263.169Z" fill="url(#paint25_linear_1_9292)"/>
</g>
<path d="M1442.14 277.176L1439.33 287.128C1439.33 287.128 1422.67 295.549 1355.96 276.702C1289.26 257.855 1279.31 242.521 1279.31 242.521L1282.28 232.021C1282.28 232.021 1284.29 247.139 1358.46 267.875C1427.48 287.173 1442.14 277.19 1442.14 277.19L1442.14 277.176Z" fill="url(#paint26_linear_1_9292)"/>
</g>
<g filter="url(#filter20_b_1_9292)">
<path d="M0.5 243.5L-3 -2H1440V330.5C1436.83 321.471 1420.5 290 1402 284.5C1332.45 241.683 1009 223.881 802.058 223.881C637.899 223.881 197 233 0.5 243.5Z" fill="url(#paint27_radial_1_9292)"/>
</g>
<defs>
<filter id="filter0_dd_1_9292" x="-474.04" y="-25.0811" width="2315.22" height="879.684" filterUnits="userSpaceOnUse" color-interpolation-filters="sRGB">
<feFlood flood-opacity="0" result="BackgroundImageFix"/>
<feColorMatrix in="SourceAlpha" type="matrix" values="0 0 0 0 0 0 0 0 0 0 0 0 0 0 0 0 0 0 127 0" result="hardAlpha"/>
<feOffset dy="-111"/>
<feGaussianBlur stdDeviation="80"/>
<feComposite in2="hardAlpha" operator="out"/>
<feColorMatrix type="matrix" values="0 0 0 0 1 0 0 0 0 0.843667 0 0 0 0 0.441667 0 0 0 0.3 0"/>
<feBlend mode="normal" in2="BackgroundImageFix" result="effect1_dropShadow_1_9292"/>
<feColorMatrix in="SourceAlpha" type="matrix" values="0 0 0 0 0 0 0 0 0 0 0 0 0 0 0 0 0 0 127 0" result="hardAlpha"/>
<feOffset dy="34"/>
<feGaussianBlur stdDeviation="33"/>
<feComposite in2="hardAlpha" operator="out"/>
<feColorMatrix type="matrix" values="0 0 0 0 0.230625 0 0 0 0 0.258813 0 0 0 0 0.5125 0 0 0 0.17 0"/>
<feBlend mode="normal" in2="effect1_drop Shadow_1_9292" result="effect2_dropShadow_1_9292"/>
<feBlend mode="normal" in="SourceGraphic" in2="effect2_dropShadow_1_9292" result="shape"/>
</filter>
<filter id="filter1_f_1_9292" x="-43.6636" y="250.893" width="1577.52" height="257.4" filterUnits="userSpaceOnUse" color-interpolation-filters="sRGB">
<feFlood flood-opacity="0" result="BackgroundImageFix"/>
<feBlend mode="normal" in="SourceGraphic" in2="BackgroundImageFix" result="shape"/>
<feGaussianBlur stdDeviation="11" result="effect1_foregroundBlur_1_9292"/>
</filter>
<filter id="filter2_f_1_9292" x="-33.6349" y="321.632" width="116.076" height="95.4512" filterUnits="userSpaceOnUse" color-interpolation-filters="sRGB">
<feFlood flood-opacity="0" result="BackgroundImageFix"/>
<feBlend mode="normal" in="SourceGraphic" in2="BackgroundImageFix" result="shape"/>
<feGaussianBlur stdDeviation="2" result="effect1_foregroundBlur_1_9292"/>
</filter>
<filter id="filter3_d_1_9292" x="-382.04" y="189.919" width="2071.22" height="550.684" filterUnits="userSpaceOnUse" color-interpolation-filters="sRGB">
<feFlood flood-opacity="0" result="BackgroundImageFix"/>
<feColorMatrix in="SourceAlpha" type="matrix" values="0 0 0 0 0 0 0 0 0 0 0 0 0 0 0 0 0 0 127 0" result="hardAlpha"/>
<feOffset dy="-25"/>
<feGaussianBlur stdDeviation="19"/>
<feComponentTransfer>
<feFuncA type="gamma" exponent="3" amplitude="1.5"/>
</feComponentTransfer>
<feComposite in2="hardAlpha" operator="out"/>
<feColorMatrix type="matrix" values="0 0 0 0 0.958333 0 0 0 0 0.808514 0 0 0 0 0.423264 0 0 0 0.33 0"/>
<feBlend mode="normal" in2="BackgroundImageFix" result="effect1_dropShadow_1_9292"/>
<feBlend mode="normal" in="SourceGraphic" in2="effect1_dropShadow_1_9292" result="shape"/>
</filter>
<filter id="filter4_f_1_9292" x="469.738" y="238.888" width="632.616" height="198.257" filterUnits="userSpaceOnUse" color-interpolation-filters="sRGB">
<feFlood flood-opacity="0" result="BackgroundImageFix"/>
<feBlend mode="normal" in="SourceGraphic" in2="BackgroundImageFix" result="shape"/>
<feGaussianBlur stdDeviation="0.5" result="effect1_foregroundBlur_1_9292"/>
</filter>
<filter id="filter5_d_1_9292" x="463.738" y="283.055" width="127.366" height="52.25" filterUnits="userSpaceOnUse" color-interpolation-filters="sRGB">
<feFlood flood-opacity="0" result="BackgroundImageFix"/>
<feColorMatrix in="SourceAlpha" type="matrix" values="0 0 0 0 0 0 0 0 0 0 0 0 0 0 0 0 0 0 127 0" result="hardAlpha"/>
<feOffset dy="4"/>
<feGaussianBlur stdDeviation="3.5"/>
<feComposite in2="hardAlpha" operator="out"/>
<feColorMatrix type="matrix" values="0 0 0 0 0.533813 0 0 0 0 0.8125 0 0 0 0 0.314844 0 0 0 0.19 0"/>
<feBlend mode="normal" in2="BackgroundImageFix" result="effect1_dropShadow_1_9292"/>
<feBlend mode="normal" in="SourceGraphic" in2="effect1_dropShadow_1_9292" result="shape"/>
</filter>
<filter id="filter6_d_1_9292" x="488.617" y="231.234" width="97.5512" height="90.7114" filterUnits="userSpaceOnUse" color-interpolation-filters="sRGB">
<feFlood flood-opacity="0" result="BackgroundImageFix"/>
<feColorMatrix in="SourceAlpha" type="matrix" values="0 0 0 0 0 0 0 0 0 0 0 0 0 0 0 0 0 0 127 0" result="hardAlpha"/>
<feOffset dy="4"/>
<feGaussianBlur stdDeviation="6.5"/>
<feComposite in2="hardAlpha" operator="out"/>
<feColorMatrix type="matrix" values="0 0 0 0 0 0 0 0 0 0 0 0 0 0 0 0 0 0 0.16 0"/>
<feBlend mode="normal" in2="BackgroundImageFix" result="effect1_dropShadow_1_9292"/>
<feBlend mode="normal" in="SourceGraphic" in2="effect1_dropShadow_1_9292" result="shape"/>
</filter>
<filter id="filter7_d_1_9292" x="501.256" y="225.888" width="71.6537" height="66.3074" filterUnits="userSpaceOnUse" color-interpolation-filters="sRGB">
<feFlood flood-opacity="0" result="BackgroundImageFix"/>
<feColorMatrix in="SourceAlpha" type="matrix" values="0 0 0 0 0 0 0 0 0 0 0 0 0 0 0 0 0 0 127 0" result="hardAlpha"/>
<feOffset dy="4"/>
<feGaussianBlur stdDeviation="9"/>
<feComposite in2="hardAlpha" operator="out"/>
<feColorMatrix type="matrix" values="0 0 0 0 0.216354 0 0 0 0 0.3875 0 0 0 0 0.274544 0 0 0 0.18 0"/>
<feBlend mode="normal" in2="BackgroundImageFix" result="effect1_dropShadow_1_9292"/>
<feBlend mode="normal" in="SourceGraphic" in2="effect1_dropShadow_1_9292" result="shape"/>
</filter>
<filter id="filter8_d_1_9292" x="937.953" y="369.39" width="172.401" height="79.7549" filterUnits="userSpaceOnUse" color-interpolation-filters="sRGB">
<feFlood flood-opacity="0" result="BackgroundImageFix"/>
<feColorMatrix in="SourceAlpha" type="matrix" values="0 0 0 0 0 0 0 0 0 0 0 0 0 0 0 0 0 0 127 0" result="hardAlpha"/>
<feOffset dy="4"/>
<feGaussianBlur stdDeviation="4.5"/>
<feComposite in2="hardAlpha" operator="out"/>
<feColorMatrix type="matrix" values="0 0 0 0 0.831072 0 0 0 0 0.945833 0 0 0 0 0.740903 0 0 0 1 0"/>
<feBlend mode="normal" in2="BackgroundImageFix" result="effect1_dropShadow_1_9292"/>
<feBlend mode="normal" in="SourceGraphic" in2="effect1_dropShadow_1_9292" result="shape"/>
</filter>
<filter id="filter9_d_1_9292" x="469.168" y="270.022" width="66.6739" height="62.8164" filterUnits="userSpaceOnUse" color-interpolation-filters="sRGB">
<feFlood flood-opacity="0" result="BackgroundImageFix"/>
<feColorMatrix in="SourceAlpha" type="matrix" values="0 0 0 0 0 0 0 0 0 0 0 0 0 0 0 0 0 0 127 0" result="hardAlpha"/>
<feOffset dy="4"/>
<feGaussianBlur stdDeviation="5.5"/>
<feComposite in2="hardAlpha" operator="out"/>
<feColorMatrix type="matrix" values="0 0 0 0 0 0 0 0 0 0 0 0 0 0 0 0 0 0 0.24 0"/>
<feBlend mode="normal" in2="BackgroundImageFix" result="effect1_dropShadow_1_9292"/>
<feBlend mode="normal" in="SourceGraphic" in2="effect1_dropShadow_1_9292" result="shape"/>
</filter>
<filter id="filter10_d_1_9292" x="474.268" y="262" width="57.9483" height="54.6326" filterUnits="userSpaceOnUse" color-interpolation-filters="sRGB">
<feFlood flood-opacity="0" result="BackgroundImageFix"/>
<feColorMatrix in="SourceAlpha" type="matrix" values="0 0 0 0 0 0 0 0 0 0 0 0 0 0 0 0 0 0 127 0" result="hardAlpha"/>
<feOffset dy="4"/>
<feGaussianBlur stdDeviation="9"/>
<feComposite in2="hardAlpha" operator="out"/>
<feColorMatrix type="matrix" values="0 0 0 0 0.216354 0 0 0 0 0.3875 0 0 0 0 0.274544 0 0 0 0.18 0"/>
<feBlend mode="normal" in2="BackgroundImageFix" result="effect1_dropShadow_1_9292"/>
<feBlend mode="normal" in="SourceGraphic" in2="effect1_dropShadow_1_9292" result="shape"/>
</filter>
<filter id="filter11_d_1_9292" x="945.904" y="310.503" width="124.86" height="114.884" filterUnits="userSpaceOnUse" color-interpolation-filters="sRGB">
<feFlood flood-opacity="0" result="BackgroundImageFix"/>
<feColorMatrix in="SourceAlpha" type="matrix" values="0 0 0 0 0 0 0 0 0 0 0 0 0 0 0 0 0 0 127 0" result="hardAlpha"/>
<feOffset dy="4"/>
<feGaussianBlur stdDeviation="6.5"/>
<feComposite in2="hardAlpha" operator="out"/>
<feColorMatrix type="matrix" values="0 0 0 0 0.0405729 0 0 0 0 0.2375 0 0 0 0 0.119344 0 0 0 0.12 0"/>
<feBlend mode="normal" in2="BackgroundImageFix" result="effect1_dropShadow_1_9292"/>
<feBlend mode="normal" in="SourceGraphic" in2="effect1_dropShadow_1_9292" result="shape"/>
</filter>
<filter id="filter12_d_1_9292" x="960.209" y="318.861" width="84.3191" height="81.3606" filterUnits="userSpaceOnUse" color-interpolation-filters="sRGB">
<feFlood flood-opacity="0" result="BackgroundImageFix"/>
<feColorMatrix in="SourceAlpha" type="matrix" values="0 0 0 0 0 0 0 0 0 0 0 0 0 0 0 0 0 0 127 0" result="hardAlpha"/>
<feOffset dy="18"/>
<feGaussianBlur stdDeviation="9"/>
<feComposite in2="hardAlpha" operator="out"/>
<feColorMatrix type="matrix" values="0 0 0 0 0.296981 0 0 0 0 0.5875 0 0 0 0 0.271719 0 0 0 0.2 0"/>
<feBlend mode="normal" in2="BackgroundImageFix" result="effect1_dropShadow_1_9292"/>
<feBlend mode="normal" in="SourceGraphic" in2="effect1_dropShadow_1_9292" result="shape"/>
</filter>
<filter id="filter13_d_1_9292" x="1018.29" y="348.468" width="85.4299" height="80.1494" filterUnits="userSpaceOnUse" color-interpolation-filters="sRGB">
<feFlood flood-opacity="0" result="BackgroundImageFix"/>
<feColorMatrix in="SourceAlpha" type="matrix" values="0 0 0 0 0 0 0 0 0 0 0 0 0 0 0 0 0 0 127 0" result="hardAlpha"/>
<feOffset dy="4"/>
<feGaussianBlur stdDeviation="6.5"/>
<feComposite in2="hardAlpha" operator="out"/>
<feColorMatrix type="matrix" values="0 0 0 0 0 0 0 0 0 0 0 0 0 0 0 0 0 0 0.16 0"/>
<feBlend mode="normal" in2="BackgroundImageFix" result="effect1_dropShadow_1_9292"/>
<feBlend mode="normal" in="SourceGraphic" in2="effect1_dropShadow_1_9292" result="shape"/>
</filter>
<filter id="filter14_d_1_9292" x="1027.85" y="357.468" width="66.1289" height="63.4546" filterUnits="userSpaceOnUse" color-interpolation-filters="sRGB">
<feFlood flood-opacity="0" result="BackgroundImageFix"/>
<feOffset dy="18"/>
<feGaussianBlur stdDeviation="9"/>
<feComposite in2="hardAlpha" operator="out"/>
<feColorMatrix type="matrix" values="0 0 0 0 0.296981 0 0 0 0 0.5875 0 0 0 0 0.271719 0 0 0 0.2 0"/>
<feBlend mode="normal" in2="BackgroundImageFix" result="effect1_dropShadow_1_9292"/>
<feBlend mode="normal" in="SourceGraphic" in2="effect1_dropShadow_1_9292" result="shape"/>
</filter>
<filter id="filter15_di_1_9292" x="960.515" y="395.96" width="83.5514" height="36.9565" filterUnits="userSpaceOnUse" color-interpolation-filters="sRGB">
<feFlood flood-opacity="0" result="BackgroundImageFix"/>
<feColorMatrix in="SourceAlpha" type="matrix" values="0 0 0 0 0 0 0 0 0 0 0 0 0 0 0 0 0 0 127 0" result="hardAlpha"/>
<feOffset dy="1"/>
<feGaussianBlur stdDeviation="2"/>
<feComposite in2="hardAlpha" operator="out"/>
<feColorMatrix type="matrix" values="0 0 0 0 0.121771 0 0 0 0 0.351396 0 0 0 0 0.695833 0 0 0 0.25 0"/>
<feBlend mode="normal" in2="BackgroundImageFix" result="effect1_dropShadow_1_9292"/>
<feBlend mode="normal" in="SourceGraphic" in2="effect1_dropShadow_1_9292" result="shape"/>
<feColorMatrix in="SourceAlpha" type="matrix" values="0 0 0 0 0 0 0 0 0 0 0 0 0 0 0 0 0 0 127 0" result="hardAlpha"/>
<feOffset dy="1"/>
<feGaussianBlur stdDeviation="13.5"/>
<feComposite in2="hardAlpha" operator="arithmetic" k2="-1" k3="1"/>
<feColorMatrix type="matrix" values="0 0 0 0 0.418125 0 0 0 0 0.683867 0 0 0 0 0.929167 0 0 0 0.23 0"/>
<feBlend mode="normal" in2="shape" result="effect2_innerShadow_1_9292"/>
</filter>
<filter id="filter16_df_1_9292" x="530.806" y="243.46" width="54.5" height="23.5" filterUnits="userSpaceOnUse" color-interpolation-filters="sRGB">
<feFlood flood-opacity="0" result="BackgroundImageFix"/>
<feColorMatrix in="SourceAlpha" type="matrix" values="0 0 0 0 0 0 0 0 0 0 0 0 0 0 0 0 0 0 127 0" result="hardAlpha"/>
<feOffset dy="4"/>
<feGaussianBlur stdDeviation="2"/>
<feComposite in2="hardAlpha" operator="out"/>
<feColorMatrix type="matrix" values="0 0 0 0 0 0 0 0 0 0 0 0 0 0 0 0 0 0 0.17 0"/>
<feBlend mode="normal" in2="BackgroundImageFix" result="effect1_dropShadow_1_9292"/>
<feBlend mode="normal" in="SourceGraphic" in2="effect1_dropShadow_1_9292" result="shape"/>
<feGaussianBlur stdDeviation="0.75" result="effect2_foregroundBlur_1_9292"/>
</filter>
<filter id="filter17_df_1_9292" x="947.807" y="360.46" width="50" height="22.5" filterUnits="userSpaceOnUse" color-interpolation-filters="sRGB">
<feFlood flood-opacity="0" result="BackgroundImageFix"/>
<feColorMatrix in="SourceAlpha" type="matrix" values="0 0 0 0 0 0 0 0 0 0 0 0 0 0 0 0 0 0 127 0" result="hardAlpha"/>
<feOffset dy="4"/>
<feGaussianBlur stdDeviation="2"/>
<feComposite in2="hardAlpha" operator="out"/>
<feColorMatrix type="matrix" values="0 0 0 0 0 0 0 0 0 0 0 0 0 0 0 0 0 0 0.06 0"/>
<feBlend mode="normal" in2="BackgroundImageFix" result="effect1_dropShadow_1_9292"/>
<feBlend mode="normal" in="SourceGraphic" in2="effect1_dropShadow_1_9292" result="shape"/>
<feGaussianBlur stdDeviation="0.75" result="effect2_foregroundBlur_1_9292"/>
</filter>
<filter id="filter18_df_1_9292" x="467.806" y="292.46" width="31" height="14.5" filterUnits="userSpaceOnUse" color-interpolation-filters="sRGB">
<feFlood flood-opacity="0" result="BackgroundImageFix"/>
<feColorMatrix in="SourceAlpha" type="matrix" values="0 0 0 0 0 0 0 0 0 0 0 0 0 0 0 0 0 0 127 0" result="hardAlpha"/>
<feOffset dy="4"/>
<feGaussianBlur stdDeviation="2"/>
<feComposite in2="hardAlpha" operator="out"/>
<feColorMatrix type="matrix" values="0 0 0 0 0 0 0 0 0 0 0 0 0 0 0 0 0 0 0.17 0"/>
<feBlend mode="normal" in2="BackgroundImageFix" result="effect1_dropShadow_1_9292"/>
<feBlend mode="normal" in="SourceGraphic" in2="effect1_dropShadow_1_9292" result="shape"/>
<feGaussianBlur stdDeviation="0.75" result="effect2_foregroundBlur_1_9292"/>
</filter>
<filter id="filter19_d_1_9292" x="1242.87" y="247.136" width="172.482" height="200.91" filterUnits="userSpaceOnUse" color-interpolation-filters="sRGB">
<feFlood flood-opacity="0" result="BackgroundImageFix"/>
<feColorMatrix in="SourceAlpha" type="matrix" values="0 0 0 0 0 0 0 0 0 0 0 0 0 0 0 0 0 0 127 0" result="hardAlpha"/>
<feOffset dy="4"/>
<feGaussianBlur stdDeviation="10"/>
<feComposite in2="hardAlpha" operator="out"/>
<feColorMatrix type="matrix" values="0 0 0 0 0.266667 0 0 0 0 0.0611111 0 0 0 0 0.0611111 0 0 0 0.25 0"/>
<feBlend mode="normal" in2="BackgroundImageFix" result="effect1_dropShadow_1_9292"/>
<feBlend mode="normal" in="SourceGraphic" in2="effect1_dropShadow_1_9292" result="shape"/>
</filter>
<filter id="filter20_b_1_9292" x="-9" y="-8" width="1455" height="344.5" filterUnits="userSpaceOnUse" color-interpolation-filters="sRGB">
<feFlood flood-opacity="0" result="BackgroundImageFix"/>
<feGaussianBlur in="BackgroundImageFix" stdDeviation="3"/>
<feComposite in2="SourceAlpha" operator="in" result="effect1_backgroundBlur_1_9292"/>
<feBlend mode="normal" in="SourceGraphic" in2="effect1_backgroundBlur_1_9292" result="shape"/>
</filter>
<linearGradient id="paint0_linear_1_9292" x1="732.63" y1="222.783" x2="732.788" y2="712.864" gradientUnits="userSpaceOnUse">
<stop stop-color="#454545"/>
<stop offset="0.25" stop-color="#757677"/>
<stop offset="0.5" stop-color="#6673CE"/>
<stop offset="1" stop-color="#F9CBC6" stop-opacity="0"/>
</linearGradient>
<linearGradient id="paint1_linear_1_9292" x1="1019.59" y1="357.25" x2="1020.5" y2="354.571" gradientUnits="userSpaceOnUse">
<stop stop-color="#BEDB9E"/>
<stop offset="1" stop-color="#BFD9A2"/>
</linearGradient>
<linearGradient id="paint2_linear_1_9292" x1="1022.07" y1="359.777" x2="1022.98" y2="357.099" gradientUnits="userSpaceOnUse">
<stop stop-color="#7CA351"/>
<stop offset="1" stop-color="#6FA036"/>
</linearGradient>
<linearGradient id="paint3_linear_1_9292" x1="1020.45" y1="360.47" x2="1021.15" y2="358.432" gradientUnits="userSpaceOnUse">
<stop stop-color="#A8CA82"/>
<stop offset="1" stop-color="#AEBF9B"/>
<stop offset="1" stop-color="#C3DCA6"/>
</linearGradient>
<linearGradient id="paint4_linear_1_9292" x1="1336.33" y1="156.205" x2="1385.44" y2="279.148" gradientUnits="userSpaceOnUse">
<stop stop-color="#8C8C8C"/>
<stop offset="0.832515" stop-color="#5B5B5B"/>
</linearGradient>
<linearGradient id="paint5_linear_1_9292" x1="745.049" y1="282.424" x2="744.85" y2="339.895" gradientUnits="userSpaceOnUse">
<stop stop-color="#595650"/>
<stop offset="1" stop-color="#927745"/>
</linearGradient>
<linearGradient id="paint6_linear_1_9292" x1="25.414" y1="330.876" x2="29.8433" y2="410.778" gradientUnits="userSpaceOnUse">
<stop stop-color="#52504B"/>
<stop offset="0.48121" stop-color="#706A5B"/>
<stop offset="1" stop-color="#797366"/>
</linearGradient>
<linearGradient id="paint7_linear_1_9292" x1="679.691" y1="249.396" x2="685.084" y2="765.022" gradientUnits="userSpaceOnUse">
<stop stop-color="#FAF3F0"/>
<stop offset="1" stop-color="#F9E9E2"/>
</linearGradient>
<linearGradient id="paint8_linear_1_9292" x1="1153.48" y1="244.837" x2="1160.93" y2="585.599" gradientUnits="userSpaceOnUse">
<stop stop-color="#F5DFDE" stop-opacity="0.4"/>
<stop offset="1" stop-color="#F5E9DE"/>
</linearGradient>
<linearGradient id="paint9_linear_1_9292" x1="914.282" y1="315.223" x2="922.232" y2="678.451" gradientUnits="userSpaceOnUse">
<stop stop-color="#F5DFDE" stop-opacity="0.4"/>
<stop offset="1" stop-color="#F5E9DE"/>
</linearGradient>
<linearGradient id="paint10_linear_1_9292" x1="630.311" y1="250.97" x2="623.48" y2="600.923" gradientUnits="userSpaceOnUse">
<stop stop-color="#F5DFDE" stop-opacity="0.4"/>
<stop offset="1" stop-color="#F5E9DE"/>
</linearGradient>
<linearGradient id="paint11_linear_1_9292" x1="408.275" y1="321.133" x2="267.492" y2="701.902" gradientUnits="userSpaceOnUse">
<stop stop-color="#F5DFDE" stop-opacity="0.4"/>
<stop offset="1" stop-color="#F5E9DE"/>
</linearGradient>
<linearGradient id="paint12_linear_1_9292" x1="198.166" y1="273.307" x2="-88.9744" y2="570.196" gradientUnits="userSpaceOnUse">
<stop stop-color="#F5DFDE" stop-opacity="0.4"/>
<stop offset="1" stop-color="#F5E9DE"/>
</linearGradient>
<linearGradient id="paint13_linear_1_9292" x1="1083.41" y1="581.726" x2="1193.45" y2="623.738" gradientUnits="userSpaceOnUse">
<stop stop-color="#A9877B"/>
<stop offset="1" stop-color="#FAECEC"/>
</linearGradient>
<linearGradient id="paint14_linear_1_9292" x1="690.007" y1="382.209" x2="647.076" y2="246.512" gradientUnits="userSpaceOnUse">
<stop stop-color="#EDD9D7"/>
<stop offset="1" stop-color="#EDD9D7" stop-opacity="0.2"/>
</linearGradient>
<linearGradient id="paint15_linear_1_9292" x1="758.686" y1="405.081" x2="840.186" y2="668.581" gradientUnits="userSpaceOnUse">
<stop stop-color="#EDD9D7"/>
<stop offset="1" stop-color="#EDD9D7" stop-opacity="0.2"/>
</linearGradient>
<linearGradient id="paint16_linear_1_9292" x1="726.684" y1="314.121" x2="744.77" y2="595.415" gradientUnits="userSpaceOnUse">
<stop stop-color="#F2D0D0" stop-opacity="0.7"/>
<stop offset="1" stop-color="#AC897E"/>
</linearGradient>
<linearGradient id="paint17_linear_1_9292" x1="501.682" y1="324.212" x2="493.901" y2="284.976" gradientUnits="userSpaceOnUse">
<stop stop-color="#ECFAD6"/>
<stop offset="1" stop-color="#D8EFB8"/>
</linearGradient>
<linearGradient id="paint18_linear_1_9292" x1="987.838" y1="445.745" x2="976.586" y2="360.51" gradientUnits="userSpaceOnUse">
<stop stop-color="#E8FBD5"/>
<stop offset="1" stop-color="#D8EFB8"/>
</linearGradient>
<linearGradient id="paint19_linear_1_9292" x1="1003.93" y1="427.249" x2="1034.32" y2="399.129" gradientUnits="userSpaceOnUse">
<stop stop-color="#BAFAE3"/>
<stop offset="0.973958" stop-color="#628ED1" stop-opacity="0.2"/>
</linearGradient>
<linearGradient id="paint20_linear_1_9292" x1="558.306" y1="244.96" x2="558.306" y2="258.96" gradientUnits="userSpaceOnUse">
<stop stop-color="#FEFCFA" stop-opacity="0.9"/>
<stop offset="1" stop-color="#D2ECF8" stop-opacity="0.9"/>
</linearGradient>
<linearGradient id="paint21_linear_1_9292" x1="973.033" y1="361.96" x2="973.033" y2="374.96" gradientUnits="userSpaceOnUse">
<stop stop-color="#FEFCFA" stop-opacity="0.9"/>
<stop offset="1" stop-color="#D2ECF8" stop-opacity="0.9"/>
</linearGradient>
<linearGradient id="paint22_linear_1_9292" x1="483.306" y1="293.96" x2="483.306" y2="298.96" gradientUnits="userSpaceOnUse">
<stop stop-color="#FEFCFA" stop-opacity="0.9"/>
<stop offset="1" stop-color="#D2ECF8" stop-opacity="0.9"/>
</linearGradient>
<radialGradient id="paint23_radial_1_9292" cx="0" cy="0" r="1" gradientUnits="userSpaceOnUse" gradientTransform="translate(1290.34 512.442) rotate(89.0523) scale(11.5757 16.5367)">
<stop stop-color="#725150"/>
<stop offset="1" stop-color="#D9D9D9" stop-opacity="0"/>
</radialGradient>
<linearGradient id="paint24_linear_1_9292" x1="1316.58" y1="423.901" x2="1281.53" y2="547.954" gradientUnits="userSpaceOnUse">
<stop stop-color="#726C6C"/>
<stop offset="1" stop-color="#514E4E"/>
</linearGradient>
<linearGradient id="paint25_linear_1_9292" x1="1357.78" y1="274.031" x2="1314.58" y2="426.915" gradientUnits="userSpaceOnUse">
<stop stop-color="#6371CD"/>
<stop offset="1" stop-color="#949BE9"/>
</linearGradient>
<linearGradient id="paint26_linear_1_9292" x1="1313.42" y1="253.444" x2="1434.29" y2="287.596" gradientUnits="userSpaceOnUse">
<stop stop-color="#4455C1"/>
<stop offset="1" stop-color="#98A2E8"/>
</linearGradient>
<radialGradient id="paint27_radial_1_9292" cx="0" cy="0" r="1" gradientUnits="userSpaceOnUse" gradientTransform="translate(9.97942 7.58015) rotate(12.1913) scale(1440.36 951.508)">
<stop stop-color="white" stop-opacity="0.4"/>
<stop offset="1" stop-color="white" stop-opacity="0"/>
</radialGradient>
<clipPath id="clip0_1_9292">
<rect width="213.387" height="329.779" fill="white" transform="translate(1265 200.607) rotate(15.7781)"/>
</clipPath>
</defs>
</svg>
