<svg width="1440" height="775" viewBox="0 0 1440 775" fill="none" xmlns="http://www.w3.org/2000/svg">
<g clip-path="url(#clip0_201_6984)">
<ellipse cx="153.411" cy="161.957" rx="15.7413" ry="1.90568" transform="rotate(-2.67014 153.411 161.957)" fill="#AAC06C" fill-opacity="0.5"/>
<path d="M-4.70312 244.745C-4.70312 244.745 1141.5 175.63 1398.77 282.617C1531.01 337.611 1438.51 908.77 1438.51 908.77H-4.70312V244.745Z" fill="url(#paint0_linear_201_6984)"/>
<path d="M-13.9307 328.635H1342.44L1358.04 340.326H-13.9307V328.635Z" fill="#454444"/>
<path d="M-12.3508 381.768C-12.3508 377.902 -9.21682 374.768 -5.35083 374.768H1375.11C1375.25 374.768 1375.37 374.771 1375.5 374.781C1377.84 374.966 1401.43 377.296 1408.79 396.779C1412.89 407.634 1429.15 443.686 1437.21 461.424C1439.33 466.098 1435.87 471.388 1430.74 471.328L-5.43287 454.506C-9.26662 454.461 -12.3508 451.341 -12.3508 447.507V381.768Z" fill="#373737"/>
<path d="M1019.5 357.571C1019.5 357.289 1018.8 357.16 1018.46 357.131C1018.46 357.09 1018.48 357.006 1018.57 357.006C1018.68 357.006 1019.34 357.234 1019.5 357.383C1019.62 357.502 1019.55 357.04 1019.5 356.794H1019.74C1019.69 357.014 1019.63 357.439 1019.74 357.383C1019.85 357.326 1020.5 357.108 1020.81 357.006L1020.91 357.131C1020 357.232 1019.75 357.467 1019.74 357.571C1019.63 359.088 1020.06 358.907 1020.08 359.135C1020.09 359.362 1019.13 359.394 1019.34 359.017C1019.54 358.64 1019.5 357.925 1019.5 357.571Z" fill="#AD8B68"/>
<path d="M1018.79 356.793C1018.91 356.746 1018.86 356.629 1018.81 356.576C1018.87 356.481 1018.76 356.45 1018.7 356.447C1018.64 356.325 1018.55 356.395 1018.51 356.445C1018.42 356.385 1018.31 356.446 1018.27 356.484C1018.16 356.443 1018.04 356.554 1018 356.614C1017.85 356.662 1017.89 356.773 1017.92 356.822C1017.79 356.892 1017.89 357.02 1017.96 357.076C1017.97 357.161 1018.1 357.176 1018.16 357.173C1018.3 357.329 1018.47 357.206 1018.55 357.125C1018.66 357.217 1018.75 357.087 1018.78 357.01C1018.89 356.982 1018.83 356.854 1018.79 356.793Z" fill="#97B476"/>
<path d="M1018.57 355.752C1018.23 355.756 1018.25 356.098 1018.3 356.268C1018.07 356.451 1018.31 356.635 1018.46 356.705C1018.48 357.062 1018.78 356.979 1018.93 356.893C1019.09 357.128 1019.42 357.082 1019.56 357.031C1019.79 357.238 1020.19 357.076 1020.36 356.969C1020.76 356.99 1020.79 356.683 1020.75 356.527C1021.14 356.482 1021.02 356.064 1020.91 355.86C1020.95 355.633 1020.66 355.474 1020.51 355.424C1020.31 354.9 1019.75 355.034 1019.49 355.166C1019.31 354.828 1018.95 355.061 1018.8 355.22C1018.49 355.183 1018.52 355.559 1018.57 355.752Z" fill="url(#paint1_linear_201_6984)"/>
<path d="M1021.05 358.28C1020.71 358.283 1020.73 358.626 1020.78 358.796C1020.55 358.979 1020.79 359.163 1020.95 359.232C1020.97 359.59 1021.26 359.507 1021.41 359.421C1021.57 359.655 1021.9 359.61 1022.05 359.558C1022.27 359.765 1022.67 359.604 1022.84 359.497C1023.24 359.518 1023.27 359.211 1023.23 359.055C1023.63 359.009 1023.5 358.592 1023.39 358.388C1023.43 358.161 1023.14 358.002 1022.99 357.952C1022.79 357.428 1022.23 357.561 1021.98 357.693C1021.79 357.356 1021.44 357.589 1021.28 357.748C1020.98 357.711 1021 358.087 1021.05 358.28Z" fill="url(#paint2_linear_201_6984)"/>
<path d="M1019.67 359.331C1019.42 359.334 1019.43 359.594 1019.47 359.724C1019.29 359.863 1019.48 360.003 1019.59 360.056C1019.61 360.328 1019.84 360.265 1019.95 360.199C1020.07 360.378 1020.32 360.343 1020.43 360.304C1020.6 360.461 1020.91 360.338 1021.03 360.257C1021.34 360.273 1021.36 360.039 1021.34 359.921C1021.63 359.886 1021.54 359.568 1021.45 359.413C1021.49 359.24 1021.26 359.12 1021.15 359.081C1021 358.683 1020.57 358.784 1020.38 358.885C1020.24 358.628 1019.97 358.805 1019.85 358.926C1019.62 358.898 1019.64 359.184 1019.67 359.331Z" fill="url(#paint3_linear_201_6984)"/>
<path d="M1021.37 357.052C1021.53 357.022 1021.49 356.871 1021.45 356.798C1021.54 356.697 1021.42 356.635 1021.34 356.617C1021.3 356.459 1021.18 356.521 1021.12 356.572C1021.03 356.48 1020.88 356.528 1020.82 356.564C1020.7 356.49 1020.54 356.595 1020.47 356.658C1020.28 356.682 1020.3 356.822 1020.33 356.889C1020.15 356.942 1020.25 357.119 1020.31 357.2C1020.31 357.306 1020.46 357.352 1020.53 357.362C1020.66 357.58 1020.9 357.474 1021.01 357.393C1021.12 357.529 1021.26 357.394 1021.32 357.31C1021.45 357.301 1021.41 357.135 1021.37 357.052Z" fill="#97B476"/>
<path d="M1449.05 438.595C1407.48 383.372 1342.21 333.227 1302.71 330.707C1253.33 327.557 868 252.5 -5.5 316" stroke="#535353" stroke-width="120" stroke-linecap="round"/>
<path d="M1263.5 250.5C1381.72 221.147 1404.6 45.3913 1421 -46.0001C1421 -46.0001 1481.07 92.1977 1434.5 165.5C1387.81 238.997 1378 270.5 1378 270.5L1263.5 250.5Z" fill="url(#paint4_linear_201_6984)"/>
<g filter="url(#filter0_dd_201_6984)">
<g filter="url(#filter1_f_201_6984)">
<path d="M-11.9697 304.139C321.356 283.072 1057.31 258.735 1334.51 329.92C1368.11 348.418 1448.77 403.698 1502.55 476.833" stroke="url(#paint5_linear_201_6984)" stroke-width="19" stroke-linecap="round"/>
</g>
<g filter="url(#filter2_f_201_6984)">
<path d="M75.0729 328.174L2.74218 332.184L-25.9972 333.777C-26.5486 333.807 -26.9704 334.279 -26.9393 334.831L-22.722 409.678C-22.6918 410.213 -22.2453 410.63 -21.7095 410.623L44.7146 409.754C70.4035 411.351 59.7743 386.929 58.8976 371.369C58.003 355.494 61.4329 342.438 75.7882 330.009C76.525 329.371 76.0464 328.12 75.0729 328.174Z" fill="url(#paint6_linear_201_6984)" stroke="#44413E" stroke-width="5"/>
<line y1="-2.5" x2="90.3887" y2="-2.5" transform="matrix(0.998449 -0.0553487 0.0562578 0.998431 -26.1658 348.557)" stroke="#44413E" stroke-width="5"/>
<line y1="-2.5" x2="82.3985" y2="-2.5" transform="matrix(0.998449 -0.0553487 0.0562578 0.998431 -25.1853 365.959)" stroke="#44413E" stroke-width="5"/>
<line y1="-2.5" x2="82.3985" y2="-2.5" transform="matrix(0.998449 -0.0553487 0.0562578 0.998431 -24.167 384.031)" stroke="#44413E" stroke-width="5"/>
<line y1="-2.5" x2="85.3948" y2="-2.5" transform="matrix(0.998449 -0.0553487 0.0562578 0.998431 -23.2998 399.425)" stroke="#605B50" stroke-width="5"/>
</g>
<g filter="url(#filter3_d_201_6984)">
<path d="M1681.38 754.643L1286.03 351.592L1012.31 245.959L850.809 316.286L629.706 249.961L408.077 320.917L196.067 270.85L-313.846 566.165L-80.9037 593.633L265.038 706.46L623.034 604.661L987.275 681.746L1305.26 587.72L1681.38 754.643Z" fill="url(#paint7_linear_201_6984)"/>
</g>
<path d="M1011 248L1303.17 582.53" stroke="url(#paint8_linear_201_6984)" stroke-width="5"/>
<path d="M851.024 316.652L985.21 677.117" stroke="url(#paint9_linear_201_6984)" stroke-width="5"/>
<path d="M630.005 251L623.174 600.953" stroke="url(#paint10_linear_201_6984)" stroke-width="5"/>
<path d="M408 321L267.217 701.769" stroke="url(#paint11_linear_201_6984)" stroke-width="5"/>
<path d="M198 273L-89.1397 569.889" stroke="url(#paint12_linear_201_6984)" stroke-width="5"/>
</g>
<path d="M1084.68 577.735L1199 619.5L1167 628.5L1071.5 582.5L1084.68 577.735Z" fill="url(#paint13_linear_201_6984)"/>
<path d="M1216.51 524.619L1072.18 575.369C1070.26 576.044 1069.19 578.305 1069.81 580.371C1070.43 582.432 1072.49 583.492 1074.38 582.72L1216.51 524.619Z" fill="#AC897E"/>
<path d="M686.196 381.231L686.077 328.815C686.066 324.22 690.41 320.862 694.854 322.028L739.301 333.696C743.738 334.861 748.078 331.513 748.078 326.926L748.078 321.603C748.078 318.562 746.063 315.852 743.166 314.928C662.099 289.068 652.132 290.607 653.436 275.779L653.393 257.123" stroke="url(#paint14_linear_201_6984)" stroke-width="4"/>
<path d="M1026 321L1012.62 301.769C1011.24 299.777 1011.93 297.019 1014.09 295.919L1037.94 283.794C1038.93 283.288 1040.1 283.221 1041.14 283.61L1278 371.5" stroke="#EEE3E2" stroke-width="4"/>
<path d="M829.379 645.121L819.487 544.542C819.009 539.681 823.531 535.837 828.251 537.091L878.167 550.356C883.4 551.746 888.163 546.923 886.707 541.708L869.617 480.498C868.928 478.033 866.876 476.123 864.382 475.547C762.828 452.124 760.88 456.591 760.88 435L760.88 408.5" stroke="url(#paint15_linear_201_6984)" stroke-width="4"/>
<path d="M1075.5 578L1207.37 530.126C1216.42 526.841 1218.88 515.202 1211.94 508.532L1192.41 489.769C1188.86 486.36 1183.69 485.246 1179.06 486.891L1058.99 529.479C1052.92 531.634 1046.18 529.013 1043.16 523.321L1024.36 487.885C1020.75 481.082 1023.81 472.65 1030.95 469.749L1124.64 431.653C1132.76 428.352 1135.35 418.126 1129.78 411.355L1054.71 320.03C1050.95 315.456 1044.57 314.001 1039.2 316.49L925.181 369.319C918.911 372.224 916.01 379.527 918.576 385.942L953.125 472.313C955.809 479.025 952.503 486.637 945.766 489.257L934.187 493.76C927.468 496.373 919.905 493.019 917.332 486.284L872.887 369.963C871.424 366.133 868.24 363.218 864.296 362.098L796.611 342.869C788.308 340.51 780.054 346.749 780.058 355.38L780.076 395.526C780.08 404.34 771.498 410.603 763.106 407.911L635.591 367.015C630.211 365.29 626.561 360.286 626.561 354.636L626.561 332.945C626.561 324.713 619.006 318.554 610.942 320.212L582.082 326.146C579.112 326.757 576.569 323.97 577.449 321.068L578.855 316.426C579.875 313.06 582.627 310.486 586.02 309.563C621.653 299.876 613.211 293.258 615.5 278C617.9 262 597 272 557 284.5" stroke="url(#paint16_linear_201_6984)" stroke-width="5" stroke-linecap="square"/>
<path d="M1094 573L1088.55 575.27C1086.1 576.29 1086.09 579.752 1088.52 580.796L1089 581" stroke="#AA887C" stroke-width="3"/>
<g filter="url(#filter4_f_201_6984)">
<g filter="url(#filter5_d_201_6984)">
<path d="M547.571 314C553.04 311.371 546.358 310.058 552 308C552.072 307.974 552.144 307.948 552.217 307.922C560.07 305.107 568.311 303.248 575.837 299.65C584.986 295.276 585.856 293.9 582.5 291C572.885 282.691 545.033 296.317 547.571 289.387C550.569 281.198 514.07 289.73 488.573 299.234C469.078 306.501 465.762 313.772 478.521 320.497C497.5 330.5 538.543 318.339 547.571 314Z" fill="url(#paint17_linear_201_6984)"/>
</g>
<g filter="url(#filter6_d_201_6984)">
<path d="M530.408 244.984C523.862 260.761 513.25 279.25 501.811 288.921C509.094 296.312 531.287 306.7 540.065 304.745C551.037 302.302 554.959 289.541 565.175 291.55C575.391 293.558 573.984 289.141 571.818 285.432C558.359 273.063 538.591 225.264 530.408 244.984Z" fill="#C3D5A6"/>
</g>
<g filter="url(#filter7_d_201_6984)">
<path d="M519.807 268.97C518.97 270.987 519.558 265.681 522.081 262.554C525.122 255.669 530.121 240.786 533.887 240.014C541.722 238.407 554.884 259.877 555.094 261.701C555.304 263.526 552.023 260.363 550.772 262.32C549.52 264.277 547.67 261.186 544.162 259.552C540.654 257.918 540.789 260.252 539.233 267.499C537.677 274.746 530.713 265.607 529.379 262.932C528.045 260.257 520.854 266.448 519.807 268.97Z" fill="#F2F5FF"/>
</g>
<g filter="url(#filter8_d_201_6984)">
<path d="M1049.88 416.052C1042.68 419 1062.5 419.923 1055.54 424.126C1044.05 431.063 982 442.5 959.127 431.832C955.606 430.19 960.973 427.36 966.139 424.133L973.5 416.052C970.683 406 922.5 407.303 963.796 389.841C996.318 376.09 1049.36 366.665 1045.75 383.291C1042.71 397.36 1087.92 377.398 1100.56 397.455C1104.4 403.559 1096.56 408.594 1085.74 413.323C1074.74 418.133 1060.99 411.501 1049.88 416.052Z" fill="url(#paint18_linear_201_6984)"/>
</g>
<g filter="url(#filter9_d_201_6984)">
<path d="M497.329 279.957C493.444 289.328 487.147 300.311 480.361 306.057C484.68 310.445 494.62 318.933 499.827 317.77C506.335 316.317 511.861 308.069 517.945 307.608C524.698 307.097 526.077 304.299 524.368 302.726C516.386 295.381 502.185 268.243 497.329 279.957Z" fill="#B3CA9C"/>
</g>
<g filter="url(#filter10_d_201_6984)">
<path d="M493.197 293.468C492.65 294.734 492.479 291.83 492.462 290.22C494.447 285.899 497.693 276.549 500.192 276.088C505.392 275.129 514.254 288.759 514.403 289.911C514.552 291.063 512.355 289.046 511.533 290.271C510.711 291.496 509.465 289.534 507.125 288.48C504.784 287.425 504.886 288.898 503.89 293.457C502.893 298.016 499.006 288.402 498.105 286.706C497.204 285.01 493.88 291.885 493.197 293.468Z" fill="#F2F5FF"/>
</g>
</g>
<g filter="url(#filter11_d_201_6984)">
<path d="M1009.32 324.758C1021.64 343.786 1039.72 365.296 1057.03 375.966C1058 376.568 1058.28 377.91 1057.52 378.834C1048.51 389.768 1026.96 398.3 1016.05 405.409C1002.75 414.062 987.607 401.248 974.737 402.32C960.663 403.493 954.175 401.883 963.378 389.683C978.503 369.631 993.38 300.132 1009.32 324.758Z" fill="#C2E1B3"/>
</g>
<g filter="url(#filter12_d_201_6984)">
<path d="M1024.77 353.651C1027.46 354.886 1026.78 351.108 1026.16 347.655C1020.34 339.103 1008.67 319.013 1003.39 318.902C992.405 318.671 978.236 354.248 978.404 356.766C978.572 359.284 982.149 351.323 985.585 358.966C986.595 361.215 989.433 348.3 993.769 345.223C998.106 342.146 995.391 364.68 1000.49 364.255C1002.8 364.062 1007.88 353.029 1009.02 349.083C1010.16 345.138 1019.94 351.438 1024.77 353.651Z" fill="#F1F9FB"/>
</g>
<g filter="url(#filter13_d_201_6984)">
<path d="M1065.54 362.085C1073.49 374.37 1081.01 381.532 1090.71 401.67C1091.37 403.027 1090.33 404.663 1088.84 404.809C1080.01 405.673 1079.31 410.895 1072.07 410.617C1061.99 410.23 1051.24 405.858 1042.41 408.841C1025.92 414.413 1032.3 410.989 1034.86 404.895C1034.92 404.752 1034.98 404.622 1035.07 404.494C1044.42 390.457 1055.17 346.054 1065.54 362.085Z" fill="#B3D7AA"/>
<g filter="url(#filter14_d_201_6984)">
<path d="M1075.55 381.003C1076.55 382.566 1076.14 379.14 1075.73 376.767C1075.66 376.362 1075.51 375.983 1075.28 375.646C1071.35 369.656 1064.65 357.61 1061.26 357.509C1054 357.294 1045.92 378.938 1046.04 380.633C1046.16 382.328 1048.55 378.926 1050 380.508C1051.45 382.091 1052.57 378.982 1055.42 376.936C1058.27 374.89 1058.55 377.037 1061.17 383.388C1063.79 389.739 1066.31 375.002 1067.05 372.354C1067.78 369.706 1074.18 378.874 1075.55 381.003Z" fill="#F1F9FB"/>
</g>
</g>
<g filter="url(#filter15_di_201_6984)">
<path d="M995.028 427.957C1007.36 426.704 1030.37 424.763 1028.07 423.404C1025.2 421.704 1009.13 422.351 1017.92 420.375C1026.71 418.4 1051.54 413.513 1034.32 413.854C1031.85 413.903 1027.4 413.295 1024.91 413.541C1024.91 413.541 1013.72 412.452 1013.55 410.784C1013.39 409.115 1037.25 401.412 1037.7 400.865C1037.87 400.651 1038.23 399.868 1038.46 399.387C1038.5 399.345 1038.53 399.307 1038.54 399.274C1038.72 398.807 1038.64 398.999 1038.46 399.387C1037.05 400.693 1020.42 406.394 1013.43 409.517C1009.41 411.311 1016.55 412.3 1020.4 414.023C1010.64 414.165 1004.03 414.576 1006.28 416.941C1009.02 419.812 998.458 420.511 990.573 422.474C990.273 422.549 986.655 423.473 986.397 423.561C982.267 424.957 981.376 427.804 987.937 427.822L995.028 427.957Z" fill="url(#paint19_linear_201_6984)" shape-rendering="crispEdges"/>
</g>
<g filter="url(#filter16_df_201_6984)">
<path d="M536.35 254.722C530.398 260.117 545.561 258.948 553.886 257.689C558.562 260.063 565.045 258.678 567.702 257.689C571.245 259.038 581.5 258.663 581.5 252.5C581.5 249.278 574.874 251 571.422 247.979C565.258 242.584 561.06 245.731 559.731 247.979C549.741 242.584 546.358 250.227 545.915 254.722C545.206 252.474 542.301 249.327 536.35 254.722Z" fill="url(#paint20_linear_201_6984)" shape-rendering="crispEdges"/>
</g>
<g filter="url(#filter17_df_201_6984)">
<path d="M953.22 371.028C947.844 376.037 961.54 374.952 969.059 373.783C973.283 375.987 979.139 374.701 981.538 373.783C984.738 375.035 994 374.687 994 368.964C994 365.972 988.016 367.571 984.898 364.766C979.331 359.757 975.539 362.679 974.339 364.766C965.315 359.757 962.259 366.853 961.859 371.028C961.22 368.941 958.596 366.018 953.22 371.028Z" fill="url(#paint21_linear_201_6984)" shape-rendering="crispEdges"/>
</g>
<g filter="url(#filter18_df_201_6984)">
<path d="M494.339 297.472C497.251 299.399 489.831 298.981 485.757 298.532C483.469 299.38 480.296 298.885 478.996 298.532C477.262 299.014 473.483 299.476 472.235 297.472C470.987 295.468 475.009 295.032 477.176 295.064C480.192 293.137 482.247 294.261 482.897 295.064C487.786 293.137 489.441 295.867 489.658 297.472C490.005 296.669 491.426 295.546 494.339 297.472Z" fill="url(#paint22_linear_201_6984)" shape-rendering="crispEdges"/>
</g>
<g filter="url(#filter19_b_201_6984)">
<path d="M0.5 243.5L-3 -2H1440V330.5C1436.83 321.471 1420.5 290 1402 284.5C1332.45 241.683 1009 223.881 802.058 223.881C637.899 223.881 197 233 0.5 243.5Z" fill="url(#paint23_radial_201_6984)"/>
</g>
<path d="M1167 628.5L1199 619V646L1170 662.5L1167 628.5Z" fill="url(#paint24_linear_201_6984)"/>
<g clip-path="url(#clip1_201_6984)">
<ellipse cx="1290.34" cy="512.442" rx="17.1408" ry="11.9986" transform="rotate(21.4817 1290.34 512.442)" fill="url(#paint25_radial_201_6984)"/>
<path d="M1309.9 422.099C1308.22 421.577 1306.45 422.617 1306.08 424.344L1287.86 510.527C1287.09 514.142 1292.27 515.673 1293.59 512.223L1325.11 430.157C1325.73 428.537 1324.86 426.728 1323.2 426.215L1309.9 422.099Z" fill="url(#paint26_linear_201_6984)"/>
<path d="M1310.03 439.281C1359.2 453.174 1402.43 452.499 1406.59 437.773C1410.75 423.047 1374.26 399.848 1325.09 385.955C1275.93 372.062 1232.69 372.737 1228.53 387.463C1224.37 402.188 1260.86 425.388 1310.03 439.281Z" fill="#5667CF"/>
<path d="M1357.52 268.714C1401.66 281.187 1440.11 284.359 1442.14 277.176C1444.17 269.992 1410.03 254.058 1365.89 241.585C1321.74 229.111 1284.31 224.823 1282.28 232.006C1280.25 239.19 1307.92 254.699 1357.52 268.714Z" fill="#5667CF"/>
<g filter="url(#filter20_d_201_6984)">
<path d="M1319.25 263.169C1319.01 263.088 1318.77 263.158 1318.66 263.381C1315.55 269.505 1273.06 353.61 1262.89 387.272C1262.85 387.424 1262.87 387.562 1262.97 387.686C1264.7 389.904 1282.36 411.516 1318.79 420.689C1355.26 429.872 1378.13 417.445 1380.36 416.157C1380.49 416.085 1380.55 415.986 1380.58 415.844C1381.2 412.101 1390.16 357.785 1395.35 285.091C1395.37 284.844 1395.2 284.617 1394.96 284.563C1390.77 283.633 1355.94 275.761 1319.25 263.169Z" fill="url(#paint27_linear_201_6984)"/>
</g>
<path d="M1442.14 277.176L1439.33 287.128C1439.33 287.128 1422.67 295.549 1355.96 276.702C1289.26 257.855 1279.31 242.521 1279.31 242.521L1282.28 232.021C1282.28 232.021 1284.29 247.139 1358.46 267.875C1427.48 287.173 1442.14 277.19 1442.14 277.19L1442.14 277.176Z" fill="url(#paint28_linear_201_6984)"/>
</g>
</g>
<defs>
<filter id="filter0_dd_201_6984" x="-473.846" y="-25.041" width="2315.22" height="879.684" filterUnits="userSpaceOnUse" color-interpolation-filters="sRGB">
<feFlood flood-opacity="0" result="BackgroundImageFix"/>
<feColorMatrix in="SourceAlpha" type="matrix" values="0 0 0 0 0 0 0 0 0 0 0 0 0 0 0 0 0 0 127 0" result="hardAlpha"/>
<feOffset dy="-111"/>
<feGaussianBlur stdDeviation="80"/>
<feComposite in2="hardAlpha" operator="out"/>
<feColorMatrix type="matrix" values="0 0 0 0 1 0 0 0 0 0.843667 0 0 0 0 0.441667 0 0 0 0.3 0"/>
<feBlend mode="normal" in2="BackgroundImageFix" result="effect1_dropShadow_201_6984"/>
<feColorMatrix in="SourceAlpha" type="matrix" values="0 0 0 0 0 0 0 0 0 0 0 0 0 0 0 0 0 0 127 0" result="hardAlpha"/>
<feOffset dy="34"/>
<feGaussianBlur stdDeviation="33"/>
<feComposite in2="hardAlpha" operator="out"/>
<feColorMatrix type="matrix" values="0 0 0 0 0.230625 0 0 0 0 0.258813 0 0 0 0 0.5125 0 0 0 0.17 0"/>
<feBlend mode="normal" in2="effect1_dropShadow_201_6984" result="effect2_dropShadow_201_6984"/>
<feBlend mode="normal" in="SourceGraphic" in2="effect2_dropShadow_201_6984" result="shape"/>
</filter>
<filter id="filter1_f_201_6984" x="-43.47" y="250.933" width="1577.52" height="257.4" filterUnits="userSpaceOnUse" color-interpolation-filters="sRGB">
<feFlood flood-opacity="0" result="BackgroundImageFix"/>
<feBlend mode="normal" in="SourceGraphic" in2="BackgroundImageFix" result="shape"/>
<feGaussianBlur stdDeviation="11" result="effect1_foregroundBlur_201_6984"/>
</filter>
<filter id="filter2_f_201_6984" x="-33.4412" y="321.672" width="116.076" height="95.4512" filterUnits="userSpaceOnUse" color-interpolation-filters="sRGB">
<feFlood flood-opacity="0" result="BackgroundImageFix"/>
<feBlend mode="normal" in="SourceGraphic" in2="BackgroundImageFix" result="shape"/>
<feGaussianBlur stdDeviation="2" result="effect1_foregroundBlur_201_6984"/>
</filter>
<filter id="filter3_d_201_6984" x="-351.846" y="189.959" width="2071.22" height="584.684" filterUnits="userSpaceOnUse" color-interpolation-filters="sRGB">
<feFlood flood-opacity="0" result="BackgroundImageFix"/>
<feColorMatrix in="SourceAlpha" type="matrix" values="0 0 0 0 0 0 0 0 0 0 0 0 0 0 0 0 0 0 127 0" result="hardAlpha"/>
<feOffset dy="-18"/>
<feGaussianBlur stdDeviation="19"/>
<feComposite in2="hardAlpha" operator="out"/>
<feColorMatrix type="matrix" values="0 0 0 0 0.958333 0 0 0 0 0.808514 0 0 0 0 0.423264 0 0 0 0.53 0"/>
<feBlend mode="normal" in2="BackgroundImageFix" result="effect1_dropShadow_201_6984"/>
<feBlend mode="normal" in="SourceGraphic" in2="effect1_dropShadow_201_6984" result="shape"/>
</filter>
<filter id="filter4_f_201_6984" x="469.932" y="238.928" width="632.616" height="198.257" filterUnits="userSpaceOnUse" color-interpolation-filters="sRGB">
<feFlood flood-opacity="0" result="BackgroundImageFix"/>
<feBlend mode="normal" in="SourceGraphic" in2="BackgroundImageFix" result="shape"/>
<feGaussianBlur stdDeviation="0.5" result="effect1_foregroundBlur_201_6984"/>
</filter>
<filter id="filter5_d_201_6984" x="463.932" y="283.095" width="127.366" height="52.25" filterUnits="userSpaceOnUse" color-interpolation-filters="sRGB">
<feFlood flood-opacity="0" result="BackgroundImageFix"/>
<feColorMatrix in="SourceAlpha" type="matrix" values="0 0 0 0 0 0 0 0 0 0 0 0 0 0 0 0 0 0 127 0" result="hardAlpha"/>
<feOffset dy="4"/>
<feGaussianBlur stdDeviation="3.5"/>
<feComposite in2="hardAlpha" operator="out"/>
<feColorMatrix type="matrix" values="0 0 0 0 0.533813 0 0 0 0 0.8125 0 0 0 0 0.314844 0 0 0 0.19 0"/>
<feBlend mode="normal" in2="BackgroundImageFix" result="effect1_dropShadow_201_6984"/>
<feBlend mode="normal" in="SourceGraphic" in2="effect1_dropShadow_201_6984" result="shape"/>
</filter>
<filter id="filter6_d_201_6984" x="488.811" y="231.274" width="97.5513" height="90.7114" filterUnits="userSpaceOnUse" color-interpolation-filters="sRGB">
<feFlood flood-opacity="0" result="BackgroundImageFix"/>
<feColorMatrix in="SourceAlpha" type="matrix" values="0 0 0 0 0 0 0 0 0 0 0 0 0 0 0 0 0 0 127 0" result="hardAlpha"/>
<feOffset dy="4"/>
<feGaussianBlur stdDeviation="6.5"/>
<feComposite in2="hardAlpha" operator="out"/>
<feColorMatrix type="matrix" values="0 0 0 0 0 0 0 0 0 0 0 0 0 0 0 0 0 0 0.16 0"/>
<feBlend mode="normal" in2="BackgroundImageFix" result="effect1_dropShadow_201_6984"/>
<feBlend mode="normal" in="SourceGraphic" in2="effect1_dropShadow_201_6984" result="shape"/>
</filter>
<filter id="filter7_d_201_6984" x="501.45" y="225.928" width="71.6538" height="66.3074" filterUnits="userSpaceOnUse" color-interpolation-filters="sRGB">
<feFlood flood-opacity="0" result="BackgroundImageFix"/>
<feColorMatrix in="SourceAlpha" type="matrix" values="0 0 0 0 0 0 0 0 0 0 0 0 0 0 0 0 0 0 127 0" result="hardAlpha"/>
<feOffset dy="4"/>
<feGaussianBlur stdDeviation="9"/>
<feComposite in2="hardAlpha" operator="out"/>
<feColorMatrix type="matrix" values="0 0 0 0 0.216354 0 0 0 0 0.3875 0 0 0 0 0.274544 0 0 0 0.18 0"/>
<feBlend mode="normal" in2="BackgroundImageFix" result="effect1_dropShadow_201_6984"/>
<feBlend mode="normal" in="SourceGraphic" in2="effect1_dropShadow_201_6984" result="shape"/>
</filter>
<filter id="filter8_d_201_6984" x="938.147" y="369.43" width="172.401" height="79.7549" filterUnits="userSpaceOnUse" color-interpolation-filters="sRGB">
<feFlood flood-opacity="0" result="BackgroundImageFix"/>
<feColorMatrix in="SourceAlpha" type="matrix" values="0 0 0 0 0 0 0 0 0 0 0 0 0 0 0 0 0 0 127 0" result="hardAlpha"/>
<feOffset dy="4"/>
<feGaussianBlur stdDeviation="4.5"/>
<feComposite in2="hardAlpha" operator="out"/>
<feColorMatrix type="matrix" values="0 0 0 0 0.831072 0 0 0 0 0.945833 0 0 0 0 0.740903 0 0 0 1 0"/>
<feBlend mode="normal" in2="BackgroundImageFix" result="effect1_dropShadow_201_6984"/>
<feBlend mode="normal" in="SourceGraphic" in2="effect1_dropShadow_201_6984" result="shape"/>
</filter>
<filter id="filter9_d_201_6984" x="469.361" y="270.062" width="66.6738" height="62.8164" filterUnits="userSpaceOnUse" color-interpolation-filters="sRGB">
<feFlood flood-opacity="0" result="BackgroundImageFix"/>
<feColorMatrix in="SourceAlpha" type="matrix" values="0 0 0 0 0 0 0 0 0 0 0 0 0 0 0 0 0 0 127 0" result="hardAlpha"/>
<feOffset dy="4"/>
<feGaussianBlur stdDeviation="5.5"/>
<feComposite in2="hardAlpha" operator="out"/>
<feColorMatrix type="matrix" values="0 0 0 0 0 0 0 0 0 0 0 0 0 0 0 0 0 0 0.24 0"/>
<feBlend mode="normal" in2="BackgroundImageFix" result="effect1_dropShadow_201_6984"/>
<feBlend mode="normal" in="SourceGraphic" in2="effect1_dropShadow_201_6984" result="shape"/>
</filter>
<filter id="filter10_d_201_6984" x="474.462" y="262.04" width="57.9482" height="54.6326" filterUnits="userSpaceOnUse" color-interpolation-filters="sRGB">
<feFlood flood-opacity="0" result="BackgroundImageFix"/>
<feColorMatrix in="SourceAlpha" type="matrix" values="0 0 0 0 0 0 0 0 0 0 0 0 0 0 0 0 0 0 127 0" result="hardAlpha"/>
<feOffset dy="4"/>
<feGaussianBlur stdDeviation="9"/>
<feComposite in2="hardAlpha" operator="out"/>
<feColorMatrix type="matrix" values="0 0 0 0 0.216354 0 0 0 0 0.3875 0 0 0 0 0.274544 0 0 0 0.18 0"/>
<feBlend mode="normal" in2="BackgroundImageFix" result="effect1_dropShadow_201_6984"/>
<feBlend mode="normal" in="SourceGraphic" in2="effect1_dropShadow_201_6984" result="shape"/>
</filter>
<filter id="filter11_d_201_6984" x="946.098" y="310.543" width="124.86" height="114.884" filterUnits="userSpaceOnUse" color-interpolation-filters="sRGB">
<feFlood flood-opacity="0" result="BackgroundImageFix"/>
<feColorMatrix in="SourceAlpha" type="matrix" values="0 0 0 0 0 0 0 0 0 0 0 0 0 0 0 0 0 0 127 0" result="hardAlpha"/>
<feOffset dy="4"/>
<feGaussianBlur stdDeviation="6.5"/>
<feComposite in2="hardAlpha" operator="out"/>
<feColorMatrix type="matrix" values="0 0 0 0 0.0405729 0 0 0 0 0.2375 0 0 0 0 0.119344 0 0 0 0.12 0"/>
<feBlend mode="normal" in2="BackgroundImageFix" result="effect1_dropShadow_201_6984"/>
<feBlend mode="normal" in="SourceGraphic" in2="effect1_dropShadow_201_6984" result="shape"/>
</filter>
<filter id="filter12_d_201_6984" x="960.403" y="318.901" width="84.3188" height="81.3606" filterUnits="userSpaceOnUse" color-interpolation-filters="sRGB">
<feFlood flood-opacity="0" result="BackgroundImageFix"/>
<feColorMatrix in="SourceAlpha" type="matrix" values="0 0 0 0 0 0 0 0 0 0 0 0 0 0 0 0 0 0 127 0" result="hardAlpha"/>
<feOffset dy="18"/>
<feGaussianBlur stdDeviation="9"/>
<feComposite in2="hardAlpha" operator="out"/>
<feColorMatrix type="matrix" values="0 0 0 0 0.296981 0 0 0 0 0.5875 0 0 0 0 0.271719 0 0 0 0.2 0"/>
<feBlend mode="normal" in2="BackgroundImageFix" result="effect1_dropShadow_201_6984"/>
<feBlend mode="normal" in="SourceGraphic" in2="effect1_dropShadow_201_6984" result="shape"/>
</filter>
<filter id="filter13_d_201_6984" x="1018.48" y="348.508" width="85.4297" height="80.1494" filterUnits="userSpaceOnUse" color-interpolation-filters="sRGB">
<feFlood flood-opacity="0" result="BackgroundImageFix"/>
<feColorMatrix in="SourceAlpha" type="matrix" values="0 0 0 0 0 0 0 0 0 0 0 0 0 0 0 0 0 0 127 0" result="hardAlpha"/>
<feOffset dy="4"/>
<feGaussianBlur stdDeviation="6.5"/>
<feComposite in2="hardAlpha" operator="out"/>
<feColorMatrix type="matrix" values="0 0 0 0 0 0 0 0 0 0 0 0 0 0 0 0 0 0 0.16 0"/>
<feBlend mode="normal" in2="BackgroundImageFix" result="effect1_dropShadow_201_6984"/>
<feBlend mode="normal" in="SourceGraphic" in2="effect1_dropShadow_201_6984" result="shape"/>
</filter>
<filter id="filter14_d_201_6984" x="1028.04" y="357.508" width="66.1289" height="63.4546" filterUnits="userSpaceOnUse" color-interpolation-filters="sRGB">
<feFlood flood-opacity="0" result="BackgroundImageFix"/>
<feColorMatrix in="SourceAlpha" type="matrix" values="0 0 0 0 0 0 0 0 0 0 0 0 0 0 0 0 0 0 127 0" result="hardAlpha"/>
<feOffset dy="18"/>
<feGaussianBlur stdDeviation="9"/>
<feComposite in2="hardAlpha" operator="out"/>
<feColorMatrix type="matrix" values="0 0 0 0 0.296981 0 0 0 0 0.5875 0 0 0 0 0.271719 0 0 0 0.2 0"/>
<feBlend mode="normal" in2="BackgroundImageFix" result="effect1_dropShadow_201_6984"/>
<feBlend mode="normal" in="SourceGraphic" in2="effect1_dropShadow_201_6984" result="shape"/>
</filter>
<filter id="filter15_di_201_6984" x="960.709" y="396" width="83.5513" height="36.9565" filterUnits="userSpaceOnUse" color-interpolation-filters="sRGB">
<feFlood flood-opacity="0" result="BackgroundImageFix"/>
<feColorMatrix in="SourceAlpha" type="matrix" values="0 0 0 0 0 0 0 0 0 0 0 0 0 0 0 0 0 0 127 0" result="hardAlpha"/>
<feOffset dy="1"/>
<feGaussianBlur stdDeviation="2"/>
<feComposite in2="hardAlpha" operator="out"/>
<feColorMatrix type="matrix" values="0 0 0 0 0.121771 0 0 0 0 0.351396 0 0 0 0 0.695833 0 0 0 0.25 0"/>
<feBlend mode="normal" in2="BackgroundImageFix" result="effect1_dropShadow_201_6984"/>
<feBlend mode="normal" in="SourceGraphic" in2="effect1_dropShadow_201_6984" result="shape"/>
<feColorMatrix in="SourceAlpha" type="matrix" values="0 0 0 0 0 0 0 0 0 0 0 0 0 0 0 0 0 0 127 0" result="hardAlpha"/>
<feOffset dy="1"/>
<feGaussianBlur stdDeviation="13.5"/>
<feComposite in2="hardAlpha" operator="arithmetic" k2="-1" k3="1"/>
<feColorMatrix type="matrix" values="0 0 0 0 0.418125 0 0 0 0 0.683867 0 0 0 0 0.929167 0 0 0 0.23 0"/>
<feBlend mode="normal" in2="shape" result="effect2_innerShadow_201_6984"/>
</filter>
<filter id="filter16_df_201_6984" x="531" y="243.5" width="54.5" height="23.5" filterUnits="userSpaceOnUse" color-interpolation-filters="sRGB">
<feFlood flood-opacity="0" result="BackgroundImageFix"/>
<feColorMatrix in="SourceAlpha" type="matrix" values="0 0 0 0 0 0 0 0 0 0 0 0 0 0 0 0 0 0 127 0" result="hardAlpha"/>
<feOffset dy="4"/>
<feGaussianBlur stdDeviation="2"/>
<feComposite in2="hardAlpha" operator="out"/>
<feColorMatrix type="matrix" values="0 0 0 0 0 0 0 0 0 0 0 0 0 0 0 0 0 0 0.17 0"/>
<feBlend mode="normal" in2="BackgroundImageFix" result="effect1_dropShadow_201_6984"/>
<feBlend mode="normal" in="SourceGraphic" in2="effect1_dropShadow_201_6984" result="shape"/>
<feGaussianBlur stdDeviation="0.75" result="effect2_foregroundBlur_201_6984"/>
</filter>
<filter id="filter17_df_201_6984" x="948" y="360.5" width="50" height="22.5" filterUnits="userSpaceOnUse" color-interpolation-filters="sRGB">
<feFlood flood-opacity="0" result="BackgroundImageFix"/>
<feColorMatrix in="SourceAlpha" type="matrix" values="0 0 0 0 0 0 0 0 0 0 0 0 0 0 0 0 0 0 127 0" result="hardAlpha"/>
<feOffset dy="4"/>
<feGaussianBlur stdDeviation="2"/>
<feComposite in2="hardAlpha" operator="out"/>
<feColorMatrix type="matrix" values="0 0 0 0 0 0 0 0 0 0 0 0 0 0 0 0 0 0 0.06 0"/>
<feBlend mode="normal" in2="BackgroundImageFix" result="effect1_dropShadow_201_6984"/>
<feBlend mode="normal" in="SourceGraphic" in2="effect1_dropShadow_201_6984" result="shape"/>
<feGaussianBlur stdDeviation="0.75" result="effect2_foregroundBlur_201_6984"/>
</filter>
<filter id="filter18_df_201_6984" x="468" y="292.5" width="31" height="14.5" filterUnits="userSpaceOnUse" color-interpolation-filters="sRGB">
<feFlood flood-opacity="0" result="BackgroundImageFix"/>
<feColorMatrix in="SourceAlpha" type="matrix" values="0 0 0 0 0 0 0 0 0 0 0 0 0 0 0 0 0 0 127 0" result="hardAlpha"/>
<feOffset dy="4"/>
<feGaussianBlur stdDeviation="2"/>
<feComposite in2="hardAlpha" operator="out"/>
<feColorMatrix type="matrix" values="0 0 0 0 0 0 0 0 0 0 0 0 0 0 0 0 0 0 0.17 0"/>
<feBlend mode="normal" in2="BackgroundImageFix" result="effect1_dropShadow_201_6984"/>
<feBlend mode="normal" in="SourceGraphic" in2="effect1_dropShadow_201_6984" result="shape"/>
<feGaussianBlur stdDeviation="0.75" result="effect2_foregroundBlur_201_6984"/>
</filter>
<filter id="filter19_b_201_6984" x="-9" y="-8" width="1455" height="344.5" filterUnits="userSpaceOnUse" color-interpolation-filters="sRGB">
<feFlood flood-opacity="0" result="BackgroundImageFix"/>
<feGaussianBlur in="BackgroundImageFix" stdDeviation="3"/>
<feComposite in2="SourceAlpha" operator="in" result="effect1_backgroundBlur_201_6984"/>
<feBlend mode="normal" in="SourceGraphic" in2="effect1_backgroundBlur_201_6984" result="shape"/>
</filter>
<filter id="filter20_d_201_6984" x="1242.87" y="247.136" width="172.482" height="200.91" filterUnits="userSpaceOnUse" color-interpolation-filters="sRGB">
<feFlood flood-opacity="0" result="BackgroundImageFix"/>
<feColorMatrix in="SourceAlpha" type="matrix" values="0 0 0 0 0 0 0 0 0 0 0 0 0 0 0 0 0 0 127 0" result="hardAlpha"/>
<feOffset dy="4"/>
<feGaussianBlur stdDeviation="10"/>
<feComposite in2="hardAlpha" operator="out"/>
<feColorMatrix type="matrix" values="0 0 0 0 0.266667 0 0 0 0 0.0611111 0 0 0 0 0.0611111 0 0 0 0.25 0"/>
<feBlend mode="normal" in2="BackgroundImageFix" result="effect1_dropShadow_201_6984"/>
<feBlend mode="normal" in="SourceGraphic" in2="effect1_dropShadow_201_6984" result="shape"/>
</filter>
<linearGradient id="paint0_linear_201_6984" x1="732.63" y1="222.783" x2="732.788" y2="712.864" gradientUnits="userSpaceOnUse">
<stop stop-color="#454545"/>
<stop offset="0.25" stop-color="#757677"/>
<stop offset="0.5" stop-color="#6673CE"/>
<stop offset="1" stop-color="#F9CBC6" stop-opacity="0"/>
</linearGradient>
<linearGradient id="paint1_linear_201_6984" x1="1019.59" y1="357.25" x2="1020.5" y2="354.571" gradientUnits="userSpaceOnUse">
<stop stop-color="#BEDB9E"/>
<stop offset="1" stop-color="#BFD9A2"/>
</linearGradient>
<linearGradient id="paint2_linear_201_6984" x1="1022.07" y1="359.777" x2="1022.98" y2="357.099" gradientUnits="userSpaceOnUse">
<stop stop-color="#7CA351"/>
<stop offset="1" stop-color="#6FA036"/>
</linearGradient>
<linearGradient id="paint3_linear_201_6984" x1="1020.45" y1="360.47" x2="1021.15" y2="358.432" gradientUnits="userSpaceOnUse">
<stop stop-color="#A8CA82"/>
<stop offset="1" stop-color="#AEBF9B"/>
<stop offset="1" stop-color="#C3DCA6"/>
</linearGradient>
<linearGradient id="paint4_linear_201_6984" x1="1336.33" y1="155.205" x2="1385.44" y2="278.148" gradientUnits="userSpaceOnUse">
<stop stop-color="#8C8C8C"/>
<stop offset="0.832515" stop-color="#5B5B5B"/>
</linearGradient>
<linearGradient id="paint5_linear_201_6984" x1="745.243" y1="282.464" x2="745.044" y2="339.935" gradientUnits="userSpaceOnUse">
<stop stop-color="#595650"/>
<stop offset="1" stop-color="#927745"/>
</linearGradient>
<linearGradient id="paint6_linear_201_6984" x1="25.6078" y1="330.916" x2="30.0371" y2="410.818" gradientUnits="userSpaceOnUse">
<stop stop-color="#52504B"/>
<stop offset="0.48121" stop-color="#706A5B"/>
<stop offset="1" stop-color="#797366"/>
</linearGradient>
<linearGradient id="paint7_linear_201_6984" x1="679.885" y1="249.436" x2="685.278" y2="765.062" gradientUnits="userSpaceOnUse">
<stop stop-color="#FAF3F0"/>
<stop offset="1" stop-color="#F9E9E2"/>
</linearGradient>
<linearGradient id="paint8_linear_201_6984" x1="1153.67" y1="244.877" x2="1161.13" y2="585.639" gradientUnits="userSpaceOnUse">
<stop stop-color="#F5DFDE" stop-opacity="0.4"/>
<stop offset="1" stop-color="#F5E9DE"/>
</linearGradient>
<linearGradient id="paint9_linear_201_6984" x1="914.476" y1="315.264" x2="922.426" y2="678.491" gradientUnits="userSpaceOnUse">
<stop stop-color="#F5DFDE" stop-opacity="0.4"/>
<stop offset="1" stop-color="#F5E9DE"/>
</linearGradient>
<linearGradient id="paint10_linear_201_6984" x1="630.505" y1="251.01" x2="623.674" y2="600.963" gradientUnits="userSpaceOnUse">
<stop stop-color="#F5DFDE" stop-opacity="0.4"/>
<stop offset="1" stop-color="#F5E9DE"/>
</linearGradient>
<linearGradient id="paint11_linear_201_6984" x1="408.469" y1="321.173" x2="267.686" y2="701.942" gradientUnits="userSpaceOnUse">
<stop stop-color="#F5DFDE" stop-opacity="0.4"/>
<stop offset="1" stop-color="#F5E9DE"/>
</linearGradient>
<linearGradient id="paint12_linear_201_6984" x1="198.36" y1="273.347" x2="-88.7806" y2="570.236" gradientUnits="userSpaceOnUse">
<stop stop-color="#F5DFDE" stop-opacity="0.4"/>
<stop offset="1" stop-color="#F5E9DE"/>
</linearGradient>
<linearGradient id="paint13_linear_201_6984" x1="1083.6" y1="581.766" x2="1193.65" y2="623.778" gradientUnits="userSpaceOnUse">
<stop stop-color="#A9877B"/>
<stop offset="1" stop-color="#FAECEC"/>
</linearGradient>
<linearGradient id="paint14_linear_201_6984" x1="690.201" y1="382.249" x2="647.27" y2="246.552" gradientUnits="userSpaceOnUse">
<stop stop-color="#EDD9D7"/>
<stop offset="1" stop-color="#EDD9D7" stop-opacity="0.2"/>
</linearGradient>
<linearGradient id="paint15_linear_201_6984" x1="758.88" y1="405.121" x2="840.38" y2="668.621" gradientUnits="userSpaceOnUse">
<stop stop-color="#EDD9D7"/>
<stop offset="1" stop-color="#EDD9D7" stop-opacity="0.2"/>
</linearGradient>
<linearGradient id="paint16_linear_201_6984" x1="726.877" y1="314.161" x2="744.964" y2="595.455" gradientUnits="userSpaceOnUse">
<stop stop-color="#F2D0D0" stop-opacity="0.7"/>
<stop offset="1" stop-color="#AC897E"/>
</linearGradient>
<linearGradient id="paint17_linear_201_6984" x1="501.876" y1="324.252" x2="494.095" y2="285.016" gradientUnits="userSpaceOnUse">
<stop stop-color="#ECFAD6"/>
<stop offset="1" stop-color="#D8EFB8"/>
</linearGradient>
<linearGradient id="paint18_linear_201_6984" x1="988.032" y1="445.785" x2="976.78" y2="360.55" gradientUnits="userSpaceOnUse">
<stop stop-color="#E8FBD5"/>
<stop offset="1" stop-color="#D8EFB8"/>
</linearGradient>
<linearGradient id="paint19_linear_201_6984" x1="1004.13" y1="427.289" x2="1034.51" y2="399.169" gradientUnits="userSpaceOnUse">
<stop stop-color="#BAFAE3"/>
<stop offset="0.973958" stop-color="#628ED1" stop-opacity="0.2"/>
</linearGradient>
<linearGradient id="paint20_linear_201_6984" x1="558.5" y1="245" x2="558.5" y2="259" gradientUnits="userSpaceOnUse">
<stop stop-color="#FEFCFA" stop-opacity="0.9"/>
<stop offset="1" stop-color="#D2ECF8" stop-opacity="0.9"/>
</linearGradient>
<linearGradient id="paint21_linear_201_6984" x1="973.226" y1="362" x2="973.226" y2="375" gradientUnits="userSpaceOnUse">
<stop stop-color="#FEFCFA" stop-opacity="0.9"/>
<stop offset="1" stop-color="#D2ECF8" stop-opacity="0.9"/>
</linearGradient>
<linearGradient id="paint22_linear_201_6984" x1="483.5" y1="294" x2="483.5" y2="299" gradientUnits="userSpaceOnUse">
<stop stop-color="#FEFCFA" stop-opacity="0.9"/>
<stop offset="1" stop-color="#D2ECF8" stop-opacity="0.9"/>
</linearGradient>
<radialGradient id="paint23_radial_201_6984" cx="0" cy="0" r="1" gradientUnits="userSpaceOnUse" gradientTransform="translate(9.97942 7.58015) rotate(12.1913) scale(1440.36 951.508)">
<stop stop-color="white" stop-opacity="0.4"/>
<stop offset="1" stop-color="white" stop-opacity="0"/>
</radialGradient>
<linearGradient id="paint24_linear_201_6984" x1="1185.29" y1="619.639" x2="1185.29" y2="660.832" gradientUnits="userSpaceOnUse">
<stop stop-color="#E7D5D2"/>
<stop offset="1" stop-color="#F3E6E8"/>
</linearGradient>
<radialGradient id="paint25_radial_201_6984" cx="0" cy="0" r="1" gradientUnits="userSpaceOnUse" gradientTransform="translate(1290.34 512.442) rotate(89.0523) scale(11.5757 16.5367)">
<stop stop-color="#725150"/>
<stop offset="1" stop-color="#D9D9D9" stop-opacity="0"/>
</radialGradient>
<linearGradient id="paint26_linear_201_6984" x1="1316.58" y1="423.901" x2="1281.53" y2="547.954" gradientUnits="userSpaceOnUse">
<stop stop-color="#726C6C"/>
<stop offset="1" stop-color="#514E4E"/>
</linearGradient>
<linearGradient id="paint27_linear_201_6984" x1="1357.78" y1="274.031" x2="1314.58" y2="426.915" gradientUnits="userSpaceOnUse">
<stop stop-color="#6371CD"/>
<stop offset="1" stop-color="#949BE9"/>
</linearGradient>
<linearGradient id="paint28_linear_201_6984" x1="1313.42" y1="253.444" x2="1434.29" y2="287.596" gradientUnits="userSpaceOnUse">
<stop stop-color="#4455C1"/>
<stop offset="1" stop-color="#98A2E8"/>
</linearGradient>
<clipPath id="clip0_201_6984">
<rect width="1440" height="775" fill="white"/>
</clipPath>
<clipPath id="clip1_201_6984">
<rect width="213.387" height="329.779" fill="white" transform="translate(1265 200.607) rotate(15.7781)"/>
</clipPath>
</defs>
</svg>
