<svg width="233" height="285" viewBox="0 0 233 285" fill="none" xmlns="http://www.w3.org/2000/svg">
<rect width="233" height="285" rx="15" fill="white"/>
<path d="M5 15C5 9.47715 9.47715 5 15 5H217C222.523 5 227 9.47715 227 15V48H5V15Z" fill="#847AC2"/>
<circle cx="116.5" cy="203.5" r="65.5" fill="#CDC5FF"/>
<path d="M52.5112 80V63.272H55.5112V70.016H62.8312V63.272H65.8312V80H62.8312V72.776H55.5112V80H52.5112ZM79.1936 73.928C79.1936 74.288 79.1696 74.648 79.1216 75.032H71.0096C71.1296 76.592 72.0896 77.624 73.9616 77.624C75.0176 77.624 75.9776 77.288 76.7936 76.352L78.7856 78.104C77.4896 79.544 75.9296 80.24 73.9376 80.24C69.8576 80.24 68.1296 77.312 68.1296 74.144C68.1296 71.048 69.8096 67.928 73.7456 67.928C77.4176 67.928 79.1936 70.64 79.1936 73.928ZM70.9856 72.752H76.4336C76.3856 71.24 75.2336 70.328 73.7216 70.328C71.9696 70.328 71.1536 71.576 70.9856 72.752ZM85.6929 67.928C88.8129 67.928 90.7569 69.68 90.7569 72.536V80H88.1169L87.8769 78.464C87.1809 79.568 85.8369 80.24 84.2769 80.24C81.7809 80.24 80.0049 78.632 80.0049 76.376C80.0049 74.984 80.6289 73.928 81.7809 73.4C82.5729 73.04 83.5809 72.872 84.9249 72.872H87.8769V72.536C87.8769 71.24 87.0129 70.448 85.6449 70.448C84.4449 70.448 83.3169 71.072 82.4529 72.224L80.3649 70.472C81.7809 68.768 83.5329 67.928 85.6929 67.928ZM84.7329 77.792C86.4609 77.792 87.8769 76.568 87.8769 75.032H85.3089C84.3249 75.032 83.7489 75.152 83.3649 75.44C83.0529 75.656 82.8849 75.992 82.8849 76.424C82.8849 77.264 83.5809 77.792 84.7329 77.792ZM96.0026 80.24C94.3946 80.24 93.2186 79.28 93.2186 77.168V63.272H96.0986V76.976C96.0986 77.504 96.4106 77.72 96.9386 77.72C97.2026 77.72 97.5146 77.672 97.8506 77.576V79.88C97.2026 80.12 96.5546 80.24 96.0026 80.24ZM105.88 70.448H102.928V76.472C102.928 77.408 103.504 77.84 104.44 77.84C104.848 77.84 105.352 77.744 105.88 77.576V79.88C105.16 80.12 104.44 80.24 103.72 80.24C101.728 80.24 100.048 79.208 100.048 76.688V70.448H98.1283V68.168H100.048V65.888L102.928 63.752V68.168H105.88V70.448ZM113.848 67.928C116.512 67.928 118.024 69.536 118.024 72.368V80H115.144V73.088C115.144 71.288 114.448 70.448 112.96 70.448C111.064 70.448 110.272 71.864 110.272 75.272V80H107.392V63.272H110.272V69.512C111.064 68.48 112.288 67.928 113.848 67.928ZM125.38 80.24C121.516 80.24 119.644 77.24 119.644 74.12C119.644 71 121.492 67.928 125.356 67.928C127.708 67.928 129.556 69.056 130.468 71.408L127.732 72.488C127.42 71.24 126.532 70.448 125.356 70.448C123.364 70.448 122.596 72.248 122.596 74.12C122.596 75.992 123.34 77.72 125.356 77.72C126.508 77.72 127.42 76.952 127.732 75.728L130.348 76.736C129.556 78.944 127.732 80.24 125.38 80.24ZM136.623 67.928C139.743 67.928 141.687 69.68 141.687 72.536V80H139.047L138.807 78.464C138.111 79.568 136.767 80.24 135.207 80.24C132.711 80.24 130.935 78.632 130.935 76.376C130.935 74.984 131.559 73.928 132.711 73.4C133.503 73.04 134.511 72.872 135.855 72.872H138.807V72.536C138.807 71.24 137.943 70.448 136.575 70.448C135.375 70.448 134.247 71.072 133.383 72.224L131.295 70.472C132.711 68.768 134.463 67.928 136.623 67.928ZM135.663 77.792C137.391 77.792 138.807 76.568 138.807 75.032H136.239C135.255 75.032 134.679 75.152 134.295 75.44C133.983 75.656 133.815 75.992 133.815 76.424C133.815 77.264 134.511 77.792 135.663 77.792ZM150.34 67.928C151.132 67.928 151.828 68.12 152.596 68.6L151.204 71.144C150.796 70.88 150.34 70.736 149.764 70.736C148.012 70.736 147.148 71.816 147.148 74.048V80H144.268V68.168H147.172V70.184C147.676 68.72 148.996 67.928 150.34 67.928ZM163.086 73.928C163.086 74.288 163.062 74.648 163.014 75.032H154.902C155.022 76.592 155.982 77.624 157.854 77.624C158.91 77.624 159.87 77.288 160.686 76.352L162.678 78.104C161.382 79.544 159.822 80.24 157.83 80.24C153.75 80.24 152.022 77.312 152.022 74.144C152.022 71.048 153.702 67.928 157.638 67.928C161.31 67.928 163.086 70.64 163.086 73.928ZM154.878 72.752H160.326C160.278 71.24 159.126 70.328 157.614 70.328C155.862 70.328 155.046 71.576 154.878 72.752ZM183.418 79.088L181.378 80.888L179.17 78.368C177.826 79.544 176.074 80.264 174.13 80.264C171.058 80.264 168.634 78.776 168.634 76.088C168.634 73.544 170.53 72.104 172.522 70.952C171.802 70.208 170.53 68.792 170.53 67.016C170.53 64.568 172.882 63.08 175.162 63.08C177.586 63.08 179.602 64.784 179.602 66.992C179.602 69.008 178.234 70.328 176.602 71.432L178.954 74.072C179.218 73.352 179.362 72.56 179.362 71.768L182.17 72.056C182.098 73.592 181.642 75.032 180.922 76.28L183.418 79.088ZM173.314 67.064C173.314 67.928 174.202 69.056 174.73 69.68C175.978 68.912 176.938 68.12 176.938 67.04C176.938 66.128 176.338 65.336 175.186 65.336C174.202 65.336 173.314 65.936 173.314 67.064ZM174.058 77.816C175.426 77.816 176.602 77.288 177.49 76.424L174.322 72.824C172.762 73.784 171.442 74.744 171.442 76.136C171.442 77.264 172.498 77.816 174.058 77.816ZM64.9646 106L63.6926 102.544H57.1406L55.8686 106H52.6046L59.3006 89.272H61.5566L68.2286 106H64.9646ZM58.1726 99.784H62.6846L60.4286 93.688L58.1726 99.784ZM74.0285 106.24C70.1645 106.24 68.2925 103.24 68.2925 100.12C68.2925 97 70.1405 93.928 74.0045 93.928C76.3565 93.928 78.2045 95.056 79.1165 97.408L76.3805 98.488C76.0685 97.24 75.1805 96.448 74.0045 96.448C72.0125 96.448 71.2445 98.248 71.2445 100.12C71.2445 101.992 71.9885 103.72 74.0045 103.72C75.1565 103.72 76.0685 102.952 76.3805 101.728L78.9965 102.736C78.2045 104.944 76.3805 106.24 74.0285 106.24ZM85.3207 106.24C81.4567 106.24 79.5847 103.24 79.5847 100.12C79.5847 97 81.4327 93.928 85.2967 93.928C87.6487 93.928 89.4967 95.056 90.4087 97.408L87.6727 98.488C87.3607 97.24 86.4727 96.448 85.2967 96.448C83.3047 96.448 82.5367 98.248 82.5367 100.12C82.5367 101.992 83.2807 103.72 85.2967 103.72C86.4487 103.72 87.3607 102.952 87.6727 101.728L90.2887 102.736C89.4967 104.944 87.6727 106.24 85.3207 106.24ZM101.989 99.928C101.989 100.288 101.965 100.648 101.917 101.032H93.8049C93.9249 102.592 94.8849 103.624 96.7569 103.624C97.8129 103.624 98.7729 103.288 99.5889 102.352L101.581 104.104C100.285 105.544 98.7249 106.24 96.7329 106.24C92.6529 106.24 90.9249 103.312 90.9249 100.144C90.9249 97.048 92.6049 93.928 96.5409 93.928C100.213 93.928 101.989 96.64 101.989 99.928ZM93.7809 98.752H99.2289C99.1809 97.24 98.0289 96.328 96.5169 96.328C94.7649 96.328 93.9489 97.576 93.7809 98.752ZM107.624 106.24C105.128 106.24 103.232 104.728 102.656 102.928L104.96 101.896C105.272 102.76 105.896 103.84 107.48 103.84C108.824 103.84 109.4 103.072 109.4 102.448C109.4 100.456 103.304 101.776 103.304 97.384C103.304 95.104 105.368 93.928 107.648 93.928C109.688 93.928 111.248 94.888 112.136 96.496L109.904 97.72C109.496 96.976 108.848 96.208 107.552 96.208C106.616 96.208 106.04 96.664 106.04 97.216C106.04 99.016 112.232 97.96 112.232 102.28C112.232 105.04 109.856 106.24 107.624 106.24ZM117.932 106.24C115.436 106.24 113.54 104.728 112.964 102.928L115.268 101.896C115.58 102.76 116.204 103.84 117.788 103.84C119.132 103.84 119.708 103.072 119.708 102.448C119.708 100.456 113.612 101.776 113.612 97.384C113.612 95.104 115.676 93.928 117.956 93.928C119.996 93.928 121.556 94.888 122.444 96.496L120.212 97.72C119.804 96.976 119.156 96.208 117.86 96.208C116.924 96.208 116.348 96.664 116.348 97.216C116.348 99.016 122.54 97.96 122.54 102.28C122.54 105.04 120.164 106.24 117.932 106.24ZM124.448 91.936V89.272H127.472V91.936H124.448ZM124.52 106V94.168H127.4V106H124.52ZM136.616 93.928C139.52 93.928 141.608 96.208 141.608 100.072C141.608 103.624 139.832 106.24 136.616 106.24C135.344 106.24 134.024 105.832 133.208 104.824V106H130.328V89.272H133.208V95.368C133.952 94.48 135.272 93.928 136.616 93.928ZM135.92 103.576C137.84 103.576 138.728 102.28 138.728 100.096C138.728 97.888 137.816 96.544 135.896 96.544C133.832 96.544 132.944 98.128 132.944 100.096C132.944 102.064 133.832 103.576 135.92 103.576ZM143.54 91.936V89.272H146.564V91.936H143.54ZM143.612 106V94.168H146.492V106H143.612ZM152.06 106.24C150.452 106.24 149.276 105.28 149.276 103.168V89.272H152.156V102.976C152.156 103.504 152.468 103.72 152.996 103.72C153.26 103.72 153.572 103.672 153.908 103.576V105.88C153.26 106.12 152.612 106.24 152.06 106.24ZM155.554 91.936V89.272H158.578V91.936H155.554ZM155.626 106V94.168H158.506V106H155.626ZM167.722 96.448H164.77V102.472C164.77 103.408 165.346 103.84 166.282 103.84C166.69 103.84 167.194 103.744 167.722 103.576V105.88C167.002 106.12 166.282 106.24 165.562 106.24C163.57 106.24 161.89 105.208 161.89 102.688V96.448H159.97V94.168H161.89V91.888L164.77 89.752V94.168H167.722V96.448ZM170.774 110.896L172.886 105.688L168.254 94.168H171.422L174.422 102.376L177.446 94.168H180.614L173.894 110.896H170.774Z" fill="#55525B"/>
<mask id="mask0_4501_529" style="mask-type:alpha" maskUnits="userSpaceOnUse" x="51" y="138" width="131" height="131">
<circle cx="116.5" cy="203.5" r="65.5" fill="#847AC2"/>
</mask>
<g mask="url(#mask0_4501_529)">
<path d="M57.9437 255.994C53.8614 251.253 63.8496 226.081 72.0927 212.78C80.3357 199.478 85.8131 214.904 85.8131 214.904L77.57 261.13C72.7288 261.394 62.026 260.735 57.9437 255.994Z" fill="#876F5E"/>
<path d="M177.77 252.488C181.814 247.877 171.919 223.399 163.753 210.464C155.588 197.529 150.161 212.53 150.161 212.53L158.327 257.483C163.123 257.739 173.726 257.098 177.77 252.488Z" fill="#876F5E"/>
<path d="M71.0159 307.273C57.1712 298.422 69.0822 251.695 74.3705 227.275C79.6588 202.855 86.2636 196.067 86.2636 196.067L142.557 196.067C142.557 196.067 153.921 195.316 161.265 221.726C168.61 248.136 181.52 300.042 171.015 307.273C157.884 316.311 127.734 316.741 124.166 312.816C121.197 309.551 121.712 297.362 122.977 290.677L117.818 290.677C117.818 298.427 118.645 309.219 114.681 312.816C110.32 315.433 84.8605 316.123 71.0159 307.273Z" fill="#A68B75"/>
<path d="M133.918 132.449C122.557 128.663 107.643 129.377 93.9634 132.977C81.6443 137.231 67.8731 149.609 66.1331 175.747C64.2906 203.423 83.9241 211.321 95.1245 212.862C112.019 214.628 121.922 214.926 142.801 210.291C153.572 207.5 169.36 195.877 165.024 169.382C161.536 148.063 151.515 138.314 133.918 132.449Z" fill="#D9D9D9"/>
<path d="M147.185 187.512C148.061 198.742 139.686 209.191 119.955 210.238C100.224 211.286 86.1626 198.646 87.6055 187.512C90.0428 168.706 96.852 167.436 116.583 166.388C136.314 165.341 145.876 170.726 147.185 187.512Z" fill="#F5F5F5"/>
<path d="M117.574 183.825C117.579 184.123 117.827 184.362 118.127 184.358C118.426 184.354 118.664 184.109 118.658 183.81L117.574 183.825ZM117.426 176.326L117.574 183.825L118.658 183.81L118.511 176.311L117.426 176.326Z" fill="#797979"/>
<ellipse cx="2.61145" cy="2.69855" rx="2.61145" ry="2.69855" transform="matrix(0.998167 0.0605213 -0.0887465 0.996054 93.2266 160.792)" fill="#797979"/>
<ellipse cx="2.61145" cy="2.69855" rx="2.61145" ry="2.69855" transform="matrix(0.998167 0.0605213 -0.0887465 0.996054 133.308 160.25)" fill="#797979"/>
<path d="M153.953 249.349C153.953 269.661 135.901 277.824 117.072 277.824C98.2426 277.824 81.9151 272.098 81.915 251.007C81.915 226.871 98.2426 217.65 117.072 217.65C135.901 217.65 153.953 229.817 153.953 249.349Z" fill="#C2A28A"/>
<path d="M118.205 184.624L114.413 185.707" stroke="#797979" stroke-width="1.08327" stroke-linecap="round"/>
<path d="M118.205 184.624L122.463 185.447" stroke="#797979" stroke-width="1.08327" stroke-linecap="round"/>
<path d="M122.538 174.062C122.538 175.707 120.598 177.583 118.205 177.583C115.812 177.583 113.872 175.707 113.872 174.062C113.872 172.417 115.812 171.625 118.205 171.625C120.598 171.625 122.538 172.417 122.538 174.062Z" fill="#797979"/>
<ellipse cx="79.2072" cy="137.231" rx="10.8327" ry="10.0203" fill="#D9D9D9"/>
<ellipse cx="150.161" cy="137.231" rx="10.8327" ry="10.0203" fill="#D9D9D9"/>
<path d="M85.9771 136.96C81.8288 137.994 79.1619 141.863 77.8526 143.188C74.6936 142.449 70.145 135.793 76.2277 132.085C81.554 128.838 85.2549 134.703 85.9771 136.96Z" fill="#797979"/>
<path d="M152.436 143.198C149.987 139.203 145.664 137.587 144.316 136.963C144.213 133.72 149.465 127.604 154.621 132.519C159.136 136.824 154.429 141.917 152.436 143.198Z" fill="#797979"/>
<path d="M165.885 173.612C165.995 173.518 166.008 173.354 165.915 173.244C165.821 173.134 165.656 173.121 165.546 173.214L165.885 173.612ZM151.046 180.771C154.366 179.985 160.195 178.459 165.885 173.612L165.546 173.214C159.952 177.979 154.222 179.482 150.925 180.263L151.046 180.771Z" fill="#55525B"/>
<path d="M66.0296 173.612C65.9198 173.518 65.9066 173.354 66.0002 173.244C66.0937 173.134 66.2586 173.121 66.3684 173.214L66.0296 173.612ZM83.0135 180.771C79.7246 179.992 71.7294 178.467 66.0296 173.612L66.3684 173.214C71.9524 177.971 79.8058 179.474 83.1339 180.262L83.0135 180.771Z" fill="#55525B"/>
<path d="M165.059 186.565C165.164 186.466 165.168 186.3 165.069 186.196C164.969 186.091 164.804 186.087 164.699 186.186L165.059 186.565ZM152.657 193.555C156.025 192.087 160.837 190.576 165.059 186.565L164.699 186.186C160.563 190.116 155.872 191.584 152.448 193.076L152.657 193.555Z" fill="#55525B"/>
<path d="M66.4373 186.146C66.3327 186.047 66.3284 185.882 66.4278 185.777C66.5271 185.673 66.6925 185.668 66.7971 185.768L66.4373 186.146ZM83.4918 193.033C82.6623 192.671 81.4556 192.311 80.0278 191.91C78.6071 191.511 76.9764 191.074 75.3228 190.558C72.0251 189.531 68.5753 188.177 66.4373 186.146L66.7971 185.768C68.8382 187.707 72.1801 189.032 75.4782 190.06C77.1225 190.572 78.7408 191.006 80.169 191.407C81.5902 191.807 82.8323 192.175 83.7006 192.554L83.4918 193.033Z" fill="#55525B"/>
<path d="M80.8339 189.72C91.7054 211.045 103.413 212.731 123.484 211.463C129.097 211.109 138.75 210.227 152.814 193.51C153.378 191.421 153.859 189.592 153.859 189.592C153.859 188.286 154.161 187.069 153.859 185.674C152.858 181.061 154.903 180.063 148.896 178.883C134.269 176.01 127.712 173.204 118.048 172.159C98.9804 174.51 79.5402 177.955 79.9977 181.358C79.737 184.921 79.9976 184.129 79.9976 185.957C79.9976 187.263 79.9257 187.543 80.8339 189.72Z" fill="#8C898F"/>
<path d="M85.5634 185.307C94.9637 191.928 100.783 193.707 108.9 196.188C111.114 196.865 113.499 197.594 116.174 198.488C112.403 197.54 109.385 197.037 106.658 196.582C100.705 195.589 96.139 194.828 88.1484 190.167L86.1243 186.934C86.1795 186.97 86.2352 187.008 86.2916 187.047C86.0052 186.416 85.7621 185.838 85.5634 185.307Z" fill="#55525B"/>
<path d="M115.449 194.253C127.551 190.632 141.363 195.271 152.811 185.339C140.692 189.821 129.211 189.027 115.449 194.253Z" fill="#55525B"/>
<path d="M144.389 209.791C144.872 211.318 145.257 215.867 142.943 221.846" stroke="#55525B" stroke-width="1.92879"/>
<path d="M87.8915 227.93L87.5778 227.278L86.2743 227.906L86.588 228.557L87.8915 227.93ZM102.749 244.063C103.12 243.915 103.301 243.494 103.153 243.123C103.005 242.752 102.584 242.571 102.213 242.719L102.749 244.063ZM86.588 228.557C87.7636 231 89.5511 234.684 91.093 237.799C91.8636 239.356 92.5745 240.774 93.1173 241.824C93.3884 242.349 93.6202 242.787 93.7978 243.106C93.8861 243.265 93.965 243.401 94.0308 243.507C94.0634 243.56 94.0973 243.612 94.1309 243.658C94.1532 243.69 94.2134 243.773 94.2986 243.845L95.2345 242.742C95.2958 242.794 95.3235 242.839 95.3052 242.814C95.2981 242.804 95.2831 242.782 95.2591 242.743C95.2116 242.667 95.1459 242.554 95.062 242.403C94.8952 242.103 94.6713 241.68 94.4024 241.16C93.8654 240.121 93.159 238.712 92.3894 237.157C90.8508 234.049 89.0658 230.369 87.8915 227.93L86.588 228.557ZM94.2986 243.845C94.4675 243.989 95.102 244.756 96.4591 245.069C97.7978 245.378 99.7657 245.253 102.749 244.063L102.213 242.719C99.3806 243.849 97.7297 243.878 96.7844 243.659C95.8575 243.445 95.5428 243.004 95.2345 242.742L94.2986 243.845Z" fill="white"/>
<path d="M95.519 225.569L95.3972 224.856L96.8232 224.613L96.9449 225.326L95.519 225.569ZM92.751 247.343C92.3627 247.436 91.9719 247.198 91.8781 246.809C91.7843 246.421 92.023 246.03 92.4113 245.936L92.751 247.343ZM96.9449 225.326C97.4017 228.001 98.0793 232.044 98.6274 235.481C98.9013 237.199 99.1434 238.768 99.3095 239.941C99.3925 240.526 99.4572 241.018 99.4975 241.381C99.5175 241.562 99.5324 241.719 99.54 241.844C99.5438 241.905 99.5464 241.968 99.546 242.025C99.5458 242.063 99.5452 242.166 99.5176 242.275L98.1158 241.918C98.0959 241.996 98.0993 242.048 98.0995 242.017C98.0995 242.005 98.0989 241.978 98.0961 241.932C98.0906 241.842 98.0787 241.712 98.0597 241.54C98.0219 241.199 97.9595 240.724 97.8772 240.143C97.7129 238.984 97.4724 237.424 97.1988 235.709C96.6519 232.279 95.9752 228.241 95.519 225.569L96.9449 225.326ZM99.5176 242.275C99.463 242.489 99.39 243.483 98.4646 244.524C97.5517 245.552 95.874 246.588 92.751 247.343L92.4113 245.936C95.3763 245.22 96.7391 244.288 97.3833 243.563C98.0151 242.852 98.0159 242.31 98.1158 241.918L99.5176 242.275Z" fill="white"/>
<path d="M90.0326 211.882C88.7782 215.645 89.035 215.707 89.4208 219.179M89.4208 219.179C87.9742 219.983 85.515 222.94 87.2509 228.341M89.4208 219.179C90.9477 219.098 94.4356 220.191 96.1716 225.206" stroke="#55525B" stroke-width="1.92879"/>
<ellipse cx="141.255" cy="225.779" rx="5.06307" ry="5.37951" fill="#767676"/>
<circle cx="141.255" cy="225.462" r="5.06307" fill="white"/>
<circle cx="141.255" cy="225.462" r="1.26577" fill="#8C898F"/>
<circle cx="103.289" cy="243.047" r="1.20549" fill="#8C898F"/>
<circle cx="91.7172" cy="246.905" r="1.20549" fill="#8C898F"/>
</g>
<path d="M133.964 132.449C122.603 128.663 107.689 129.377 94.0093 132.977C81.6902 137.231 67.919 149.609 66.179 175.747C64.3365 203.423 83.97 211.321 95.1704 212.862C112.065 214.628 121.968 214.926 142.847 210.291C153.618 207.5 169.406 195.877 165.07 169.382C161.582 148.063 151.561 138.314 133.964 132.449Z" fill="#C2A28A"/>
<path d="M147.231 187.512C148.107 198.742 139.732 209.191 120.001 210.238C100.27 211.286 86.2085 198.646 87.6514 187.512C90.0887 168.706 96.8979 167.436 116.629 166.388C136.36 165.341 145.922 170.726 147.231 187.512Z" fill="#E8D5C7"/>
<path d="M117.619 183.825C117.625 184.123 117.873 184.362 118.172 184.358C118.472 184.354 118.71 184.109 118.704 183.81L117.619 183.825ZM117.472 176.326L117.619 183.825L118.704 183.81L118.557 176.311L117.472 176.326Z" fill="#797979"/>
<ellipse cx="2.61145" cy="2.69855" rx="2.61145" ry="2.69855" transform="matrix(0.998167 0.0605213 -0.0887465 0.996054 93.2725 160.792)" fill="#3F3D3B"/>
<ellipse cx="2.61145" cy="2.69855" rx="2.61145" ry="2.69855" transform="matrix(0.998167 0.0605213 -0.0887465 0.996054 133.354 160.25)" fill="#3F3D3B"/>
<ellipse cx="79.2526" cy="137.23" rx="10.8327" ry="10.0203" fill="#C2A28A"/>
<ellipse cx="150.207" cy="137.23" rx="10.8327" ry="10.0203" fill="#C2A28A"/>
<path d="M86.023 136.96C81.8747 137.994 79.2078 141.863 77.8985 143.188C74.7395 142.449 70.1909 135.793 76.2736 132.085C81.5999 128.838 85.3008 134.703 86.023 136.96Z" fill="#3F3D3B"/>
<path d="M152.481 143.198C150.032 139.202 145.709 137.587 144.362 136.962C144.258 133.72 149.51 127.603 154.666 132.519C159.181 136.824 154.474 141.916 152.481 143.198Z" fill="#3F3D3B"/>
<path d="M165.93 173.611C166.04 173.518 166.053 173.353 165.96 173.243C165.866 173.133 165.702 173.12 165.592 173.214L165.93 173.611ZM151.091 180.771C154.411 179.984 160.241 178.458 165.93 173.611L165.592 173.214C159.998 177.979 154.267 179.482 150.971 180.262L151.091 180.771Z" fill="#55525B"/>
<path d="M66.0751 173.611C65.9652 173.518 65.9521 173.353 66.0456 173.243C66.1391 173.133 66.304 173.12 66.4138 173.214L66.0751 173.611ZM83.0589 180.77C79.7701 179.991 71.7748 178.467 66.0751 173.611L66.4138 173.214C71.9978 177.971 79.8512 179.474 83.1793 180.262L83.0589 180.77Z" fill="#55525B"/>
<path d="M165.105 186.564C165.209 186.465 165.214 186.3 165.114 186.195C165.015 186.091 164.849 186.086 164.745 186.186L165.105 186.564ZM152.703 193.555C156.07 192.087 160.883 190.575 165.105 186.564L164.745 186.186C160.609 190.115 155.917 191.584 152.494 193.076L152.703 193.555Z" fill="#55525B"/>
<path d="M66.4827 186.146C66.3781 186.047 66.3738 185.881 66.4732 185.777C66.5726 185.672 66.7379 185.668 66.8425 185.767L66.4827 186.146ZM83.5372 193.032C82.7077 192.671 81.501 192.311 80.0732 191.91C78.6525 191.511 77.0219 191.073 75.3682 190.558C72.0705 189.53 68.6207 188.177 66.4827 186.146L66.8425 185.767C68.8836 187.706 72.2255 189.031 75.5236 190.059C77.1679 190.571 78.7862 191.006 80.2144 191.407C81.6356 191.806 82.8777 192.175 83.746 192.553L83.5372 193.032Z" fill="#55525B"/>
<path d="M80.8793 189.72C91.7508 211.045 103.459 212.731 123.529 211.463C129.143 211.108 138.796 210.226 152.859 193.51C153.423 191.42 153.904 189.592 153.904 189.592C153.904 188.286 154.207 187.068 153.904 185.674C152.903 181.061 154.949 180.063 148.941 178.883C134.314 176.009 127.758 173.203 118.093 172.158C99.0258 174.509 79.5857 177.955 80.0432 181.357C79.7824 184.921 80.043 184.128 80.043 185.957C80.043 187.263 79.9711 187.542 80.8793 189.72Z" fill="#7B7697"/>
<path d="M85.6088 185.306C95.0091 191.928 100.828 193.706 108.945 196.188C111.159 196.865 113.544 197.594 116.219 198.488C112.448 197.539 109.43 197.036 106.704 196.581C100.75 195.589 96.1844 194.827 88.1938 190.167L86.1698 186.933C86.2249 186.97 86.2806 187.007 86.3371 187.046C86.0506 186.416 85.8075 185.838 85.6088 185.306Z" fill="#4A4568"/>
<path d="M115.494 194.253C127.596 190.632 141.409 195.271 152.857 185.338C140.737 189.82 129.257 189.026 115.494 194.253Z" fill="#4A4568"/>
</svg>
