<svg width="233" height="285" viewBox="0 0 233 285" fill="none" xmlns="http://www.w3.org/2000/svg">
<rect width="233" height="285" rx="15" fill="white"/>
<path d="M5 15C5 9.47715 9.47715 5 15 5H217C222.523 5 227 9.47715 227 15V48H5V15Z" fill="#DCB551"/>
<circle cx="116.5" cy="203.5" r="65.5" fill="#FFF1CE"/>
<path d="M55.2618 80.36C50.3178 80.36 47.1498 76.976 47.1498 71.624C47.1498 66.272 50.3178 62.888 55.2618 62.888C58.7898 62.888 61.4538 64.592 62.6778 67.784L59.9178 68.864C59.1738 66.776 57.5418 65.744 55.2618 65.744C52.0218 65.744 50.1498 67.856 50.1498 71.6C50.1498 75.368 52.0458 77.504 55.2618 77.504C57.5658 77.504 59.1978 76.424 59.9178 74.312L62.7258 75.368C61.5258 78.608 58.8378 80.36 55.2618 80.36ZM68.9559 80.24C65.2839 80.24 63.0279 77.408 63.0279 74.072C63.0279 70.712 65.2839 67.928 68.9559 67.928C72.6039 67.928 74.8839 70.712 74.8839 74.072C74.8839 77.408 72.6039 80.24 68.9559 80.24ZM68.9559 77.72C71.1399 77.72 72.0039 75.992 72.0039 74.072C72.0039 72.128 71.1399 70.448 68.9559 70.448C66.7719 70.448 65.9079 72.128 65.9079 74.072C65.9079 75.992 66.7719 77.72 68.9559 77.72ZM89.9595 67.928C92.8155 67.928 94.0875 70.088 94.0875 72.464V80H91.2075V73.328C91.2075 72.392 91.0875 70.448 89.1915 70.448C86.7675 70.448 86.8635 73.112 86.8635 75.488V80H83.9835V73.328C83.9835 72.392 83.8635 70.448 81.9915 70.448C79.5675 70.448 79.6395 73.112 79.6395 75.488V80H76.7595L76.7355 68.168H79.5195V69.656C80.2875 68.336 81.5115 67.928 82.6875 67.928C83.9835 67.928 85.4235 68.432 86.1435 70.256C87.0555 68.48 88.4235 67.928 89.9595 67.928ZM109.924 67.928C112.78 67.928 114.052 70.088 114.052 72.464V80H111.172V73.328C111.172 72.392 111.052 70.448 109.156 70.448C106.732 70.448 106.828 73.112 106.828 75.488V80H103.948V73.328C103.948 72.392 103.828 70.448 101.956 70.448C99.5315 70.448 99.6035 73.112 99.6035 75.488V80H96.7235L96.6995 68.168H99.4835V69.656C100.252 68.336 101.476 67.928 102.652 67.928C103.948 67.928 105.388 68.432 106.108 70.256C107.02 68.48 108.388 67.928 109.924 67.928ZM124.034 68.168H126.914V80H124.034V78.632C123.194 79.76 121.898 80.24 120.506 80.24C117.53 80.24 116.282 78.08 116.282 75.56V68.168H119.162V74.84C119.162 75.656 119.162 77.72 121.346 77.72C124.034 77.72 124.034 74.768 124.034 72.656V68.168ZM136.287 67.928C138.951 67.928 140.463 69.56 140.463 72.368V80H137.583V73.088C137.583 72.272 137.583 70.448 135.399 70.448C132.711 70.448 132.711 73.16 132.711 75.272V80H129.831V68.168H132.711V69.536C133.551 68.408 134.847 67.928 136.287 67.928ZM143.043 65.936V63.272H146.067V65.936H143.043ZM143.115 80V68.168H145.995V80H143.115ZM155.212 70.448H152.26V76.472C152.26 77.408 152.836 77.84 153.772 77.84C154.18 77.84 154.684 77.744 155.212 77.576V79.88C154.492 80.12 153.772 80.24 153.052 80.24C151.06 80.24 149.38 79.208 149.38 76.688V70.448H147.46V68.168H149.38V65.888L152.26 63.752V68.168H155.212V70.448ZM158.263 84.896L160.375 79.688L155.743 68.168H158.911L161.911 76.376L164.935 68.168H168.103L161.383 84.896H158.263ZM187.627 79.088L185.587 80.888L183.379 78.368C182.035 79.544 180.283 80.264 178.339 80.264C175.267 80.264 172.843 78.776 172.843 76.088C172.843 73.544 174.739 72.104 176.731 70.952C176.011 70.208 174.739 68.792 174.739 67.016C174.739 64.568 177.091 63.08 179.371 63.08C181.795 63.08 183.811 64.784 183.811 66.992C183.811 69.008 182.443 70.328 180.811 71.432L183.163 74.072C183.427 73.352 183.571 72.56 183.571 71.768L186.379 72.056C186.307 73.592 185.851 75.032 185.131 76.28L187.627 79.088ZM177.523 67.064C177.523 67.928 178.411 69.056 178.939 69.68C180.187 68.912 181.147 68.12 181.147 67.04C181.147 66.128 180.547 65.336 179.395 65.336C178.411 65.336 177.523 65.936 177.523 67.064ZM178.267 77.816C179.635 77.816 180.811 77.288 181.699 76.424L178.531 72.824C176.971 73.784 175.651 74.744 175.651 76.136C175.651 77.264 176.707 77.816 178.267 77.816ZM65.8743 106.36C60.9303 106.36 57.7623 102.976 57.7623 97.624C57.7623 92.272 60.9303 88.888 65.8743 88.888C69.4023 88.888 72.0663 90.592 73.2903 93.784L70.5303 94.864C69.7863 92.776 68.1543 91.744 65.8743 91.744C62.6343 91.744 60.7623 93.856 60.7623 97.6C60.7623 101.368 62.6583 103.504 65.8743 103.504C68.1783 103.504 69.8103 102.424 70.5303 100.312L73.3383 101.368C72.1383 104.608 69.4503 106.36 65.8743 106.36ZM79.5684 106.24C75.8964 106.24 73.6404 103.408 73.6404 100.072C73.6404 96.712 75.8964 93.928 79.5684 93.928C83.2164 93.928 85.4964 96.712 85.4964 100.072C85.4964 103.408 83.2164 106.24 79.5684 106.24ZM79.5684 103.72C81.7524 103.72 82.6164 101.992 82.6164 100.072C82.6164 98.128 81.7524 96.448 79.5684 96.448C77.3844 96.448 76.5204 98.128 76.5204 100.072C76.5204 101.992 77.3844 103.72 79.5684 103.72ZM93.804 93.928C96.468 93.928 97.98 95.56 97.98 98.368V106H95.1V99.088C95.1 98.272 95.1 96.448 92.916 96.448C90.228 96.448 90.228 99.16 90.228 101.272V106H87.348V94.168H90.228V95.536C91.068 94.408 92.364 93.928 93.804 93.928ZM107.088 93.928C109.752 93.928 111.264 95.56 111.264 98.368V106H108.384V99.088C108.384 98.272 108.384 96.448 106.2 96.448C103.512 96.448 103.512 99.16 103.512 101.272V106H100.632V94.168H103.512V95.536C104.352 94.408 105.648 93.928 107.088 93.928ZM123.997 99.928C123.997 100.288 123.973 100.648 123.925 101.032H115.813C115.933 102.592 116.893 103.624 118.765 103.624C119.821 103.624 120.781 103.288 121.597 102.352L123.589 104.104C122.293 105.544 120.733 106.24 118.741 106.24C114.661 106.24 112.933 103.312 112.933 100.144C112.933 97.048 114.613 93.928 118.549 93.928C122.221 93.928 123.997 96.64 123.997 99.928ZM115.789 98.752H121.237C121.189 97.24 120.037 96.328 118.525 96.328C116.773 96.328 115.957 97.576 115.789 98.752ZM130.616 106.24C126.752 106.24 124.88 103.24 124.88 100.12C124.88 97 126.728 93.928 130.592 93.928C132.944 93.928 134.792 95.056 135.704 97.408L132.968 98.488C132.656 97.24 131.768 96.448 130.592 96.448C128.6 96.448 127.832 98.248 127.832 100.12C127.832 101.992 128.576 103.72 130.592 103.72C131.744 103.72 132.656 102.952 132.968 101.728L135.584 102.736C134.792 104.944 132.968 106.24 130.616 106.24ZM143.633 96.448H140.681V102.472C140.681 103.408 141.257 103.84 142.193 103.84C142.601 103.84 143.105 103.744 143.633 103.576V105.88C142.913 106.12 142.193 106.24 141.473 106.24C139.481 106.24 137.801 105.208 137.801 102.688V96.448H135.881V94.168H137.801V91.888L140.681 89.752V94.168H143.633V96.448ZM145.635 91.936V89.272H148.659V91.936H145.635ZM145.707 106V94.168H148.587V106H145.707ZM156.364 106.24C152.692 106.24 150.436 103.408 150.436 100.072C150.436 96.712 152.692 93.928 156.364 93.928C160.012 93.928 162.292 96.712 162.292 100.072C162.292 103.408 160.012 106.24 156.364 106.24ZM156.364 103.72C158.548 103.72 159.412 101.992 159.412 100.072C159.412 98.128 158.548 96.448 156.364 96.448C154.18 96.448 153.316 98.128 153.316 100.072C153.316 101.992 154.18 103.72 156.364 103.72ZM170.599 93.928C173.263 93.928 174.775 95.56 174.775 98.368V106H171.895V99.088C171.895 98.272 171.895 96.448 169.711 96.448C167.023 96.448 167.023 99.16 167.023 101.272V106H164.143V94.168H167.023V95.536C167.863 94.408 169.159 93.928 170.599 93.928Z" fill="#55525B"/>
<mask id="mask0_4501_602" style="mask-type:alpha" maskUnits="userSpaceOnUse" x="51" y="138" width="131" height="131">
<circle cx="116.5" cy="203.5" r="65.5" fill="#DCB551"/>
</mask>
<g mask="url(#mask0_4501_602)">
<path d="M56.877 233.882C54.9293 231.14 59.6947 216.581 63.6276 208.888C67.5604 201.195 70.1736 210.117 70.1736 210.117L66.2408 236.853C63.9311 237.005 58.8247 236.624 56.877 233.882Z" fill="#9A765C"/>
<path d="M112.723 233.485C114.652 230.818 109.932 216.661 106.036 209.18C102.14 201.699 99.5509 210.375 99.5509 210.375L103.447 236.374C105.735 236.522 110.794 236.151 112.723 233.485Z" fill="#B4B1B1"/>
<path d="M63.5267 262.809C56.9213 257.69 62.6041 230.666 65.1272 216.542C67.6503 202.419 70.8015 198.492 70.8015 198.492L97.6593 198.492C97.6593 198.492 100.964 201.267 104.468 216.542C107.973 231.817 116.418 260.509 111.407 264.691C105.142 269.919 90.5872 268.285 88.8849 266.015C87.4686 264.127 87.7143 257.077 88.3175 253.211L85.8562 253.211C85.8562 257.693 86.2509 263.935 84.3595 266.015C82.279 267.528 70.1321 267.928 63.5267 262.809Z" fill="#B18D71"/>
<path d="M95.0635 161.854C90.469 158.856 76.5308 160.535 72.9435 161.934C67.8574 164.331 58.6105 171.415 57.8255 186.535C56.9942 202.546 67.9193 207.228 74.1317 208.183C83.4982 209.3 88.984 209.529 100.513 206.963C106.458 205.408 116.006 198.574 112.539 183.408C108.422 165.396 100.807 165.601 95.0635 161.854Z" fill="#D9D9D9"/>
<path d="M101.365 141.493C101.865 151.017 96.383 158.599 93.5791 161.2C93.4715 170.206 104.562 172.396 106.785 171.55C108.564 170.874 118.969 164.028 123.302 160.93C129.603 155.382 127.158 151.088 122.79 151.473C118.422 151.858 118.229 148.98 119.325 147.253C120.619 145.732 123.504 140.693 124.693 132.698C125.882 124.704 122.241 125.522 120.271 126.931C118.705 128.348 116.363 133.744 113.1 138.756C109.838 143.768 108.74 142.024 108.316 140.391L107.865 137.887C106.398 133.131 100.864 131.968 101.365 141.493Z" fill="#868686"/>
<path d="M71.4467 140.454C70.3434 149.974 75.3543 157.926 77.9977 160.712C77.5362 169.752 66.2913 171.242 64.1185 170.253C62.3803 169.461 52.3936 161.934 48.2505 158.551C42.2906 152.586 45.0109 148.436 49.3608 149.1C53.7107 149.764 54.0859 146.89 53.0968 145.088C51.8972 143.481 49.3266 138.243 48.6413 130.151C47.9559 122.058 51.551 123.11 53.4342 124.648C54.9128 126.169 56.9176 131.729 59.8676 136.963C62.8177 142.197 64.0281 140.517 64.555 138.907L65.1657 136.424C66.9346 131.748 72.5501 130.934 71.4467 140.454Z" fill="#868686"/>
<path d="M104.101 194.957C104.519 201.452 96.6587 205.062 87.245 205.667C77.8312 206.273 68.1685 202.846 68.196 196.336C68.2413 185.56 75.1931 180.771 84.6069 180.165C94.0207 179.56 103.476 185.249 104.101 194.957Z" fill="#F5F5F5"/>
<path d="M83.52 185.23C83.1944 183.432 84.9743 184.499 85.905 185.258C87.434 184.325 88.9599 183.664 88.5068 185.289C87.8804 187.536 86.9648 187.309 85.8783 187.5C85.0135 187.286 83.8455 187.027 83.52 185.23Z" fill="#797979"/>
<path d="M85.7479 191.466C85.7513 191.675 85.9234 191.842 86.1323 191.838C86.3412 191.835 86.5078 191.663 86.5044 191.454L85.7479 191.466ZM85.6774 187.129L85.7479 191.466L86.5044 191.454L86.4339 187.117L85.6774 187.129Z" fill="#797979"/>
<ellipse cx="72.9502" cy="178.307" rx="1.41357" ry="1.76697" transform="rotate(4.20367 72.9502 178.307)" fill="#797979"/>
<ellipse cx="96.8335" cy="178.406" rx="1.41357" ry="1.76697" transform="rotate(4.20367 96.8335 178.406)" fill="#797979"/>
<path d="M54.6543 166.113C58.697 163.483 62.8355 168.405 64.9427 170.401C64.5421 171.128 65.2041 171.334 61.9782 173.343C58.6543 175.413 53.2582 171.616 51.4711 169.396C49.9176 167.458 50.3062 165.929 52.0261 167.06C52.8783 167.62 54.1995 166.529 54.6543 166.113Z" fill="#D9D9D9"/>
<path d="M115.141 168.48C111.495 165.613 107.109 169.972 104.919 171.703C105.24 172.433 104.589 172.574 107.506 174.775C110.511 177.042 116.005 173.87 117.908 171.897C119.562 170.175 119.321 168.676 117.577 169.612C116.712 170.075 115.541 168.917 115.141 168.48Z" fill="#D9D9D9"/>
<path d="M102.145 230.267C104.415 241.048 94.484 245.777 85.5006 245.777C76.5171 245.777 67.1541 240.103 69.6129 230.267C71.8826 221.189 76.5171 210.975 85.5006 210.975C94.484 210.975 99.1186 219.486 102.145 230.267Z" fill="#DDC4B2"/>
<path d="M85.8589 235.942L87.372 237.455" stroke="#C9C9C9" stroke-width="0.37828" stroke-linecap="round"/>
<path d="M87.3721 235.942L85.859 237.455" stroke="#C9C9C9" stroke-width="0.37828" stroke-linecap="round"/>
<path d="M85.9849 191.568L83.3369 192.325" stroke="#797979" stroke-width="0.75656" stroke-linecap="round"/>
<path d="M85.9849 191.568L88.9591 192.143" stroke="#797979" stroke-width="0.75656" stroke-linecap="round"/>
<path d="M111.904 233.281C109.545 230.542 115.315 216.002 120.077 208.318C124.838 200.635 128.002 209.546 128.002 209.546L123.241 236.248C120.444 236.4 114.262 236.02 111.904 233.281Z" fill="#B4B1B1"/>
<path d="M181.121 231.256C183.457 228.592 177.741 214.452 173.024 206.981C168.307 199.509 165.173 208.174 165.173 208.174L169.89 234.141C172.66 234.289 178.785 233.919 181.121 231.256Z" fill="#876F5E"/>
<path d="M119.454 262.902C111.457 257.79 118.337 230.798 121.392 216.692C124.447 202.586 128.262 198.665 128.262 198.665L160.78 198.665C160.78 198.665 167.344 198.231 171.587 213.487C175.829 228.742 183.286 258.725 177.218 262.902C169.633 268.123 152.217 268.371 150.156 266.104C148.441 264.218 148.739 257.177 149.469 253.316L146.489 253.316C146.489 257.793 146.967 264.026 144.677 266.104C142.158 267.616 127.452 268.014 119.454 262.902Z" fill="#A68B75"/>
<path d="M155.79 161.916C149.228 159.729 140.612 160.142 132.71 162.221C125.594 164.678 117.64 171.829 116.634 186.927C115.57 202.914 126.911 207.476 133.381 208.367C143.14 209.386 148.861 209.559 160.921 206.881C167.143 205.269 176.263 198.555 173.759 183.25C171.743 170.936 165.955 165.304 155.79 161.916Z" fill="#D9D9D9"/>
<path d="M163.454 193.723C163.96 200.21 159.122 206.246 147.725 206.851C136.327 207.455 128.204 200.154 129.038 193.723C130.446 182.86 134.379 182.126 145.777 181.521C157.174 180.916 162.698 184.027 163.454 193.723Z" fill="#F5F5F5"/>
<path d="M146.349 191.593C146.352 191.765 146.495 191.903 146.668 191.901C146.841 191.898 146.979 191.757 146.975 191.584L146.349 191.593ZM146.263 187.261L146.349 191.593L146.975 191.584L146.89 187.253L146.263 187.261Z" fill="#797979"/>
<ellipse cx="1.50849" cy="1.5588" rx="1.50849" ry="1.5588" transform="matrix(0.998167 0.0605213 -0.0887465 0.996054 132.285 178.288)" fill="#797979"/>
<ellipse cx="1.50849" cy="1.5588" rx="1.50849" ry="1.5588" transform="matrix(0.998167 0.0605213 -0.0887465 0.996054 155.438 177.975)" fill="#797979"/>
<path d="M167.363 229.443C167.363 241.175 156.935 245.891 146.059 245.891C135.182 245.891 125.75 242.583 125.75 230.4C125.75 216.458 135.182 211.132 146.059 211.132C156.935 211.132 167.363 218.16 167.363 229.443Z" fill="#C2A28A"/>
<path d="M146.493 236.068L148.325 237.579" stroke="#C9C9C9" stroke-width="0.312874" stroke-linecap="round"/>
<path d="M148.325 236.068L146.493 237.579" stroke="#C9C9C9" stroke-width="0.312874" stroke-linecap="round"/>
<path d="M146.713 192.055L144.523 192.68" stroke="#797979" stroke-width="0.625748" stroke-linecap="round"/>
<path d="M146.713 192.055L149.173 192.53" stroke="#797979" stroke-width="0.625748" stroke-linecap="round"/>
<path d="M149.216 185.953C149.216 186.904 148.095 187.987 146.713 187.987C145.331 187.987 144.21 186.904 144.21 185.953C144.21 185.003 145.331 184.545 146.713 184.545C148.095 184.545 149.216 185.003 149.216 185.953Z" fill="#797979"/>
<ellipse cx="124.186" cy="164.678" rx="6.25748" ry="5.78817" fill="#D9D9D9"/>
<ellipse cx="165.173" cy="164.678" rx="6.25748" ry="5.78817" fill="#D9D9D9"/>
<path d="M128.097 164.522C125.701 165.119 124.16 167.354 123.404 168.12C121.579 167.692 118.952 163.848 122.465 161.706C125.542 159.83 127.68 163.218 128.097 164.522Z" fill="#797979"/>
<path d="M166.487 168.125C165.072 165.817 162.575 164.884 161.797 164.523C161.737 162.65 164.771 159.117 167.749 161.956C170.357 164.443 167.638 167.385 166.487 168.125Z" fill="#797979"/>
<path d="M141.039 210.774C135.115 210.62 130.666 217.537 129.043 221.934C128.045 234.172 129.262 255.712 142.123 243.962C154.983 232.213 157.396 225.687 155.045 217.87C153.543 212.873 145.405 210.888 141.039 210.774Z" fill="#8C898F"/>
<path d="M83.9341 243.43C84.6863 240.079 90.0456 231.519 92.6312 227.659C92.6312 233.08 92.4902 244.416 91.9261 246.387C91.3619 248.359 89.1837 248.523 88.1651 248.359C86.4414 248.112 83.1819 246.782 83.9341 243.43Z" fill="#B4B1B1"/>
<path d="M148.932 241.915C148.17 238.571 142.735 230.032 140.113 226.18C140.113 231.589 140.256 242.899 140.828 244.865C141.4 246.832 143.609 246.996 144.642 246.832C146.39 246.586 149.695 245.259 148.932 241.915Z" fill="#B4B1B1"/>
<path d="M99.0092 270.555C98.5265 265.833 98.8081 257.93 99.0092 254.569L115.503 256.537C116.106 259.406 117.112 266.226 116.308 270.555C115.503 274.883 110.877 275.801 108.664 275.719C105.647 275.965 99.492 275.277 99.0092 270.555Z" fill="#A3856C"/>
<path d="M118.284 271.048C117.801 266.326 118.082 258.424 118.284 255.062L134.777 257.03C135.381 259.899 136.387 266.72 135.582 271.048C134.777 275.376 130.151 276.294 127.939 276.212C124.921 276.458 118.766 275.77 118.284 271.048Z" fill="#A3856C"/>
<path d="M99.7755 264.566C83.0693 257.865 91.7985 218.852 97.927 205.655H129.092C148.029 230.94 146.082 254.863 138.789 261.125C131.496 267.386 116.482 271.267 99.7755 264.566Z" fill="#C9C9C9"/>
<path d="M129.752 209.235C127.778 208.19 127.726 205.895 128.955 202.934C130.408 199.433 133.333 199.372 135.308 200.417C137.282 201.461 138.623 203.937 136.105 206.717C133.826 209.235 131.727 210.28 129.752 209.235Z" fill="#D9D9D9"/>
<path d="M99.553 209.146C97.6704 210.142 95.5777 209.087 93.4959 206.745C91.0344 203.977 92.3737 201.734 94.2563 200.738C96.1389 199.742 99.0083 199.908 100.313 203.138C101.495 206.063 101.436 208.149 99.553 209.146Z" fill="#D9D9D9"/>
<path d="M91.6914 221.355C91.8768 217.278 95.7072 205.219 98.1785 199.698H131.078C133.672 204.794 138.26 214.136 140.113 221.355C128.251 218.128 104.048 220.01 91.6914 221.355Z" fill="#BDBAC3"/>
<ellipse cx="114.628" cy="199.911" rx="16.6812" ry="1.91089" fill="#8C898F"/>
<ellipse cx="1.10541" cy="1.44788" rx="1.10541" ry="1.44788" transform="matrix(0.997044 0.0768285 -0.0699359 0.997552 106.591 222.914)" fill="#3F3D3B"/>
<ellipse cx="1.10541" cy="1.44788" rx="1.10541" ry="1.44788" transform="matrix(0.997044 0.0768285 -0.0699359 0.997552 123.515 223.042)" fill="#3F3D3B"/>
<path d="M115.488 228.365C115.58 228.232 115.731 228.152 115.893 228.152H116.827C117.017 228.152 117.191 228.262 117.272 228.434L118.095 230.175C118.126 230.241 118.142 230.313 118.142 230.386V231.602C118.142 231.874 117.921 232.095 117.649 232.095H114.874C114.602 232.095 114.381 231.874 114.381 231.602V230.125C114.381 230.025 114.411 229.928 114.468 229.845L115.488 228.365Z" fill="white"/>
<path d="M118.142 226.93C118.142 227.47 117.603 227.681 116.639 228.152C115.815 227.896 114.851 227.441 114.851 226.902C114.851 226.362 115.585 226.18 116.533 226.18C117.482 226.18 118.142 226.391 118.142 226.93Z" fill="#3F3D3B"/>
<path d="M116.194 227.659C115.583 229.419 114.545 229.98 112.03 230.584" stroke="#3F3D3B" stroke-width="0.985724" stroke-linecap="round"/>
<path d="M116.797 227.868C117.343 229.879 118.431 230.338 121.118 230.531" stroke="#3F3D3B" stroke-width="0.985724" stroke-linecap="round"/>
</g>
<path d="M112.723 233.485C114.652 230.818 109.932 216.661 106.036 209.18C102.14 201.699 99.5509 210.375 99.5509 210.375L103.447 236.374C105.735 236.522 110.794 236.151 112.723 233.485Z" fill="#B4B1B1"/>
<path d="M95.0635 161.854C90.469 158.856 76.5308 160.535 72.9435 161.934C67.8574 164.331 58.6105 171.415 57.8255 186.535C56.9942 202.546 67.9193 207.228 74.1317 208.183C83.4982 209.3 88.984 209.529 100.513 206.963C106.458 205.408 116.006 198.574 112.539 183.408C108.422 165.396 100.807 165.601 95.0635 161.854Z" fill="#C6A083"/>
<path d="M101.365 141.493C101.865 151.017 96.383 158.599 93.5791 161.2C93.4715 170.206 104.562 172.396 106.785 171.55C108.564 170.874 118.969 164.028 123.302 160.93C129.603 155.382 127.158 151.088 122.79 151.473C118.422 151.858 118.229 148.98 119.325 147.253C120.619 145.732 123.504 140.693 124.693 132.698C125.882 124.704 122.241 125.522 120.271 126.931C118.705 128.348 116.363 133.744 113.1 138.756C109.838 143.768 108.74 142.024 108.316 140.391L107.865 137.887C106.398 133.131 100.864 131.968 101.365 141.493Z" fill="#DABDA7"/>
<path d="M71.4467 140.454C70.3434 149.974 75.3543 157.926 77.9977 160.712C77.5362 169.752 66.2913 171.242 64.1185 170.253C62.3803 169.461 52.3936 161.934 48.2505 158.551C42.2906 152.586 45.0109 148.436 49.3608 149.1C53.7107 149.764 54.0859 146.89 53.0968 145.088C51.8972 143.481 49.3266 138.243 48.6413 130.151C47.9559 122.058 51.551 123.11 53.4342 124.648C54.9128 126.169 56.9176 131.729 59.8676 136.963C62.8177 142.197 64.0281 140.517 64.555 138.907L65.1657 136.424C66.9346 131.748 72.5501 130.934 71.4467 140.454Z" fill="#DABDA7"/>
<path d="M104.101 194.957C104.519 201.452 96.6587 205.062 87.245 205.667C77.8312 206.273 68.1685 202.846 68.196 196.336C68.2413 185.56 75.1931 180.771 84.6069 180.165C94.0207 179.56 103.476 185.249 104.101 194.957Z" fill="#E8D5C7"/>
<path d="M83.52 185.23C83.1944 183.432 84.9743 184.499 85.905 185.258C87.434 184.325 88.9599 183.664 88.5068 185.289C87.8804 187.536 86.9648 187.309 85.8783 187.5C85.0135 187.286 83.8455 187.027 83.52 185.23Z" fill="#3F3D3B"/>
<path d="M85.7479 191.466C85.7513 191.675 85.9234 191.842 86.1323 191.838C86.3412 191.835 86.5078 191.663 86.5044 191.454L85.7479 191.466ZM85.6774 187.129L85.7479 191.466L86.5044 191.454L86.4339 187.117L85.6774 187.129Z" fill="#3F3D3B"/>
<ellipse cx="72.9502" cy="178.307" rx="1.41357" ry="1.76697" transform="rotate(4.20367 72.9502 178.307)" fill="#3F3D3B"/>
<ellipse cx="96.8335" cy="178.406" rx="1.41357" ry="1.76697" transform="rotate(4.20367 96.8335 178.406)" fill="#3F3D3B"/>
<path d="M54.6543 166.113C58.697 163.483 62.8355 168.405 64.9427 170.401C64.5421 171.128 65.2041 171.334 61.9782 173.343C58.6543 175.413 53.2582 171.616 51.4711 169.396C49.9176 167.458 50.3062 165.929 52.0261 167.06C52.8783 167.62 54.1995 166.529 54.6543 166.113Z" fill="#C6A083"/>
<path d="M115.141 168.48C111.495 165.613 107.109 169.972 104.919 171.703C105.24 172.433 104.589 172.574 107.506 174.775C110.511 177.042 116.005 173.87 117.908 171.897C119.562 170.175 119.321 168.676 117.577 169.612C116.712 170.075 115.541 168.917 115.141 168.48Z" fill="#C6A083"/>
<path d="M85.8589 235.942L87.372 237.455" stroke="#C9C9C9" stroke-width="0.37828" stroke-linecap="round"/>
<path d="M87.3721 235.942L85.859 237.455" stroke="#C9C9C9" stroke-width="0.37828" stroke-linecap="round"/>
<path d="M85.9849 191.568L83.3369 192.325" stroke="#3F3D3B" stroke-width="0.75656" stroke-linecap="round"/>
<path d="M85.9849 191.568L88.9591 192.143" stroke="#3F3D3B" stroke-width="0.75656" stroke-linecap="round"/>
<path d="M111.904 233.281C109.545 230.542 115.315 216.002 120.077 208.318C124.838 200.635 128.002 209.546 128.002 209.546L123.241 236.248C120.444 236.4 114.262 236.02 111.904 233.281Z" fill="#B4B1B1"/>
<path d="M155.79 161.916C149.228 159.729 140.612 160.142 132.71 162.221C125.594 164.678 117.64 171.829 116.634 186.927C115.57 202.914 126.911 207.476 133.381 208.367C143.14 209.386 148.861 209.559 160.921 206.881C167.143 205.269 176.263 198.555 173.759 183.25C171.743 170.936 165.955 165.304 155.79 161.916Z" fill="#C2A28A"/>
<path d="M163.454 193.723C163.96 200.21 159.122 206.246 147.725 206.851C136.327 207.455 128.204 200.154 129.038 193.723C130.446 182.86 134.379 182.126 145.777 181.521C157.174 180.916 162.698 184.027 163.454 193.723Z" fill="#E8D5C7"/>
<path d="M146.349 191.593C146.352 191.765 146.495 191.903 146.668 191.901C146.841 191.898 146.979 191.757 146.975 191.584L146.349 191.593ZM146.263 187.261L146.349 191.593L146.975 191.584L146.89 187.253L146.263 187.261Z" fill="#3F3D3B"/>
<ellipse cx="1.50849" cy="1.5588" rx="1.50849" ry="1.5588" transform="matrix(0.998167 0.0605213 -0.0887465 0.996054 132.285 178.288)" fill="#3F3D3B"/>
<ellipse cx="1.50849" cy="1.5588" rx="1.50849" ry="1.5588" transform="matrix(0.998167 0.0605213 -0.0887465 0.996054 155.438 177.975)" fill="#3F3D3B"/>
<path d="M146.493 236.068L148.325 237.579" stroke="#C9C9C9" stroke-width="0.312874" stroke-linecap="round"/>
<path d="M148.325 236.068L146.493 237.579" stroke="#C9C9C9" stroke-width="0.312874" stroke-linecap="round"/>
<path d="M146.713 192.055L144.523 192.68" stroke="#3F3D3B" stroke-width="0.625748" stroke-linecap="round"/>
<path d="M146.713 192.055L149.173 192.53" stroke="#3F3D3B" stroke-width="0.625748" stroke-linecap="round"/>
<path d="M149.216 185.953C149.216 186.904 148.095 187.987 146.713 187.987C145.331 187.987 144.21 186.904 144.21 185.953C144.21 185.003 145.331 184.545 146.713 184.545C148.095 184.545 149.216 185.003 149.216 185.953Z" fill="#3F3D3B"/>
<ellipse cx="124.186" cy="164.678" rx="6.25748" ry="5.78817" fill="#C2A28A"/>
<ellipse cx="165.173" cy="164.678" rx="6.25748" ry="5.78817" fill="#C2A28A"/>
<path d="M128.097 164.522C125.701 165.119 124.16 167.354 123.404 168.12C121.579 167.692 118.952 163.848 122.465 161.706C125.542 159.83 127.68 163.218 128.097 164.522Z" fill="#3F3D3B"/>
<path d="M166.487 168.125C165.072 165.817 162.575 164.884 161.797 164.523C161.737 162.65 164.771 159.117 167.749 161.956C170.357 164.443 167.638 167.385 166.487 168.125Z" fill="#3F3D3B"/>
<path d="M141.039 210.774C135.115 210.62 130.666 217.537 129.043 221.934C128.045 234.172 129.262 255.712 142.123 243.962C154.983 232.213 157.396 225.687 155.045 217.87C153.543 212.873 145.405 210.888 141.039 210.774Z" fill="#876B57"/>
<path d="M83.9341 243.43C84.6863 240.079 90.0456 231.519 92.6312 227.659C92.6312 233.08 92.4902 244.416 91.9261 246.387C91.3619 248.359 89.1837 248.523 88.1651 248.359C86.4414 248.112 83.1819 246.782 83.9341 243.43Z" fill="#A3856C"/>
<path d="M148.932 241.915C148.17 238.571 142.735 230.032 140.113 226.18C140.113 231.589 140.256 242.899 140.828 244.865C141.4 246.832 143.609 246.996 144.642 246.832C146.39 246.586 149.695 245.259 148.932 241.915Z" fill="#A3856C"/>
<path d="M99.7755 264.566C83.0693 257.865 91.7985 218.852 97.927 205.655H129.092C148.029 230.94 146.082 254.863 138.789 261.125C131.496 267.386 116.482 271.267 99.7755 264.566Z" fill="#C2A28A"/>
<path d="M129.752 209.235C127.778 208.19 127.726 205.895 128.955 202.934C130.408 199.433 133.333 199.372 135.308 200.417C137.282 201.461 138.623 203.937 136.105 206.717C133.826 209.235 131.727 210.28 129.752 209.235Z" fill="#C2A28A"/>
<path d="M99.553 209.146C97.6704 210.142 95.5777 209.087 93.4959 206.745C91.0344 203.977 92.3737 201.734 94.2563 200.738C96.1389 199.742 99.0083 199.908 100.313 203.138C101.495 206.063 101.436 208.149 99.553 209.146Z" fill="#C2A28A"/>
<path d="M91.6914 221.355C91.8768 217.278 95.7072 205.219 98.1785 199.698H131.078C133.672 204.794 138.26 214.136 140.113 221.355C128.251 218.128 104.048 220.01 91.6914 221.355Z" fill="#FAD883"/>
<ellipse cx="114.628" cy="199.911" rx="16.6812" ry="1.91089" fill="#FAD883"/>
<ellipse cx="1.10541" cy="1.44788" rx="1.10541" ry="1.44788" transform="matrix(0.997044 0.0768285 -0.0699359 0.997552 106.591 222.914)" fill="#3F3D3B"/>
<ellipse cx="1.10541" cy="1.44788" rx="1.10541" ry="1.44788" transform="matrix(0.997044 0.0768285 -0.0699359 0.997552 123.515 223.042)" fill="#3F3D3B"/>
<path d="M115.488 228.365C115.58 228.232 115.731 228.152 115.893 228.152H116.827C117.017 228.152 117.191 228.262 117.272 228.434L118.095 230.175C118.126 230.241 118.142 230.313 118.142 230.386V231.602C118.142 231.874 117.921 232.095 117.649 232.095H114.874C114.602 232.095 114.381 231.874 114.381 231.602V230.125C114.381 230.025 114.411 229.928 114.468 229.845L115.488 228.365Z" fill="white"/>
<path d="M118.142 226.93C118.142 227.47 117.603 227.681 116.639 228.152C115.815 227.896 114.851 227.441 114.851 226.902C114.851 226.362 115.585 226.18 116.533 226.18C117.482 226.18 118.142 226.391 118.142 226.93Z" fill="#3F3D3B"/>
<path d="M116.194 227.659C115.583 229.419 114.545 229.98 112.03 230.584" stroke="#3F3D3B" stroke-width="0.985724" stroke-linecap="round"/>
<path d="M116.797 227.868C117.343 229.879 118.431 230.338 121.118 230.531" stroke="#3F3D3B" stroke-width="0.985724" stroke-linecap="round"/>
</svg>
