<svg width="1440" height="530" viewBox="0 0 1440 530" fill="none" xmlns="http://www.w3.org/2000/svg">
<g clip-path="url(#clip0_206_34200)">
<path d="M1 0H1443V530H1V0Z" fill="url(#paint0_radial_206_34200)"/>
<path d="M0.444333 278.035H1460.26L1439.5 456.5C1439.5 456.5 1439.5 334 666.5 348.166C-106.5 362.333 0.444333 375 0.444333 375V278.035Z" fill="#9F9F9F"/>
<g filter="url(#filter0_i_206_34200)">
<path d="M-5.26465 271.621L-1.48854 368.117L170 360.5C170 360.5 304.087 355.728 450.569 345.617C597.052 335.506 967.537 330.707 1112.91 318.7C1258.28 306.693 900.234 270.513 849.084 270.513L689.3 270.513C540.385 270.513 -5.26465 271.621 -5.26465 271.621Z" fill="url(#paint1_linear_206_34200)"/>
</g>
<g filter="url(#filter1_i_206_34200)">
<path d="M183.787 291.657C195.955 286.95 57.7551 286.389 -12.8657 286.697V344.702C22.9312 348.065 13.0986 338.397 41.9819 334.278C70.8653 330.159 132.78 323.434 107.584 322.593C82.3879 321.752 199.765 315.448 297.477 310.908C395.189 306.369 179.178 306.705 128.171 303.763C77.1643 300.82 168.577 297.542 183.787 291.657Z" fill="url(#paint2_linear_206_34200)"/>
</g>
<path d="M1032.26 342.955L1081.56 337.033L1093.36 338.834L1054.24 345.371L1032.26 342.955Z" fill="#D9D9D9"/>
<path d="M1101.09 332.43C1101.09 332.43 1116.19 330.14 1119.34 329.655C1122.48 329.17 1129.05 327.536 1129.05 327.536L1136.37 327.923C1136.37 327.923 1128.28 330.566 1125.6 331.077C1122.92 331.588 1113.51 333.438 1113.51 333.438L1101.09 332.43Z" fill="#D9D9D9"/>
<g filter="url(#filter2_i_206_34200)">
<path d="M1442.89 271.617V407.355V455.5C1442.89 455.5 1317.13 374.01 1217.56 362.059C1117.98 350.108 1114.18 350.699 1114.18 345.387C1114.18 340.076 1163.58 343.764 1217.56 318.682C1271.54 293.6 896.988 273.682 873.559 271.764H944.322C1049.75 271.764 1442.89 271.617 1442.89 271.617Z" fill="url(#paint3_linear_206_34200)"/>
</g>
<g opacity="0.75" filter="url(#filter3_f_206_34200)">
<mask id="mask0_206_34200" style="mask-type:alpha" maskUnits="userSpaceOnUse" x="1058" y="179" width="458" height="51">
<path d="M1427.87 207.048C1447.22 205.544 1477.95 215.233 1483.51 219.855C1489.07 224.477 1512.45 221.045 1515.56 223.125C1517.16 224.192 1514.32 227.221 1508.31 229.12H1058.34C1058.34 229.12 1077.09 221.218 1086.77 221.49C1096.44 221.763 1098.86 221.218 1102.49 220.128C1106.12 219.038 1110.35 216.04 1110.35 213.86C1110.35 211.68 1104.91 208.955 1110.35 206.503C1115.8 204.05 1124.26 198.873 1124.26 198.873C1146.45 194.353 1151.32 197.605 1162.37 201.598C1165.48 194.004 1174.72 193.356 1210.75 201.598C1220.38 201.254 1221.63 202.143 1228.29 198.055C1234.94 193.968 1216.19 192.06 1228.29 188.79C1240.38 185.52 1224.66 183.613 1240.38 180.888C1256.11 178.163 1269.73 180.466 1290.58 190.425C1303.76 185.299 1310.51 188.459 1322.03 198.873C1337.08 204.705 1338.35 207.574 1337.15 212.498C1351.07 213.226 1351.89 215.279 1354.08 218.765C1356.42 216.613 1374.07 218.156 1378.28 219.855C1382.48 221.555 1389.16 216.04 1394.6 215.768C1400.05 215.495 1410.93 216.04 1412.75 212.498C1414.56 208.955 1408.51 208.551 1427.87 207.048Z" fill="url(#paint4_linear_206_34200)"/>
</mask>
<g mask="url(#mask0_206_34200)">
<path d="M1427.87 207.048C1447.22 205.544 1477.95 215.233 1483.51 219.855C1489.07 224.477 1512.45 221.045 1515.56 223.125C1517.16 224.192 1514.32 227.221 1508.31 229.12H1070.69C1070.69 229.12 1077.09 221.218 1086.77 221.49C1096.44 221.763 1098.86 221.218 1102.49 220.128C1106.12 219.038 1110.35 216.04 1110.35 213.86C1110.35 211.68 1105.67 209.795 1110.35 206.503C1115.03 203.21 1124.26 198.873 1124.26 198.873C1146.45 194.353 1151.32 197.605 1162.37 201.598C1165.48 194.004 1174.72 193.355 1210.75 201.598C1220.38 201.254 1221.63 202.143 1228.29 198.055C1234.94 193.968 1216.19 192.06 1228.29 188.79C1240.38 185.52 1245.52 180.144 1255.34 180.144C1265.16 180.144 1269.73 180.466 1290.58 190.425C1303.76 185.299 1310.51 188.459 1322.03 198.873C1337.08 204.705 1338.35 207.574 1337.15 212.498C1351.07 213.226 1351.89 215.279 1354.08 218.765C1356.42 216.613 1374.07 218.156 1378.28 219.855C1382.48 221.554 1389.16 216.04 1394.6 215.768C1400.05 215.495 1410.93 216.04 1412.75 212.498C1414.56 208.955 1408.51 208.551 1427.87 207.048Z" fill="url(#paint5_linear_206_34200)"/>
<path d="M1396.25 218.336C1415.6 216.833 1446.33 226.522 1451.89 231.144C1457.45 235.766 1480.83 232.334 1483.94 234.414C1485.54 235.48 1482.69 238.51 1476.68 240.409H1026.72C1026.72 240.409 1045.47 232.506 1055.15 232.779C1064.82 233.051 1067.24 232.506 1070.87 231.416C1074.5 230.326 1078.73 227.329 1078.73 225.149C1078.73 222.969 1073.29 220.244 1078.73 217.791C1084.18 215.339 1092.64 210.161 1092.64 210.161C1114.83 205.641 1119.7 208.894 1130.74 212.886C1133.85 205.292 1143.1 204.644 1179.13 212.886C1188.76 212.543 1190.01 213.431 1196.67 209.344C1203.32 205.256 1184.57 203.349 1196.67 200.079C1208.76 196.809 1193.04 194.901 1208.76 192.176C1224.49 189.451 1238.11 191.754 1258.96 201.714C1272.14 196.588 1278.89 199.748 1290.41 210.161C1305.46 215.993 1306.73 218.863 1305.53 223.786C1319.45 224.515 1320.26 226.567 1322.46 230.054C1324.8 227.901 1342.45 229.444 1346.65 231.144C1350.86 232.843 1357.54 227.329 1362.98 227.056C1368.43 226.784 1379.31 227.329 1381.13 223.786C1382.94 220.244 1376.89 219.84 1396.25 218.336Z" fill="url(#paint6_linear_206_34200)" fill-opacity="0.5"/>
</g>
</g>
<g filter="url(#filter4_d_206_34200)">
<path d="M757.142 269.881C719.676 269.881 740.825 269.881 717.824 269.881C694.822 269.881 727.444 269.881 673.845 269.881C673.845 246.846 692.491 228.172 715.493 228.172C738.495 228.172 757.142 246.846 757.142 269.881Z" fill="url(#paint7_radial_206_34200)"/>
</g>
<g opacity="0.75" filter="url(#filter5_f_206_34200)">
<mask id="mask1_206_34200" style="mask-type:alpha" maskUnits="userSpaceOnUse" x="281" y="200" width="251" height="50">
<path d="M483.33 227.902C493.924 226.399 510.745 236.088 513.788 240.71C516.83 245.332 529.633 241.9 531.334 243.98C532.207 245.046 530.652 248.076 527.361 249.975H281.049C281.049 249.975 291.312 242.072 296.609 242.345C301.906 242.617 303.23 242.072 305.217 240.982C307.203 239.892 309.521 236.895 309.521 234.715C309.521 232.535 306.541 229.81 309.521 227.357C312.5 224.905 317.135 219.727 317.135 219.727C329.282 215.207 331.946 218.46 337.992 222.452C339.695 214.858 344.758 214.21 364.478 222.452C369.75 222.109 370.437 222.997 374.078 218.91C377.72 214.822 367.457 212.915 374.078 209.645C380.7 206.375 372.092 204.467 380.7 201.742C389.307 199.017 396.763 201.32 408.178 211.28C415.394 206.154 419.086 209.314 425.393 219.727C433.631 225.559 434.327 228.429 433.67 233.352C441.29 234.08 441.737 236.133 442.94 239.62C444.218 237.467 453.881 239.01 456.183 240.71C458.484 242.409 462.142 236.895 465.121 236.622C468.101 236.35 474.06 236.895 475.053 233.352C476.046 229.81 472.736 229.406 483.33 227.902Z" fill="url(#paint8_linear_206_34200)"/>
</mask>
<g mask="url(#mask1_206_34200)">
<path d="M488.342 229.12C494.518 229.12 510.745 236.088 513.788 240.71C516.83 245.332 529.633 241.9 531.334 243.98C532.207 245.046 530.652 248.076 527.361 249.975H281.049C281.049 249.975 291.312 242.072 296.609 242.345C301.906 242.617 303.23 242.072 305.217 240.982C307.203 239.892 309.521 236.895 309.521 234.715C309.521 232.535 308.221 230.018 309.521 227.357C310.821 224.696 316.68 221.221 316.68 221.221C328.827 216.701 331.946 218.46 337.992 222.452C342.809 215.217 344.758 214.21 364.478 222.452C369.75 222.109 370.437 222.997 374.078 218.91C377.72 214.822 367.457 212.915 374.078 209.645C380.7 206.375 372.092 204.467 380.7 201.742C389.307 199.017 396.763 201.32 408.178 211.28C415.394 206.154 419.086 209.314 425.393 219.727C433.631 225.559 434.327 228.429 433.67 233.352C441.29 234.08 441.737 236.133 442.94 239.62C444.218 237.467 453.881 239.01 456.183 240.71C458.484 242.409 462.142 236.895 465.121 236.622C468.101 236.35 474.06 236.895 475.053 233.352C476.046 229.81 482.166 229.12 488.342 229.12Z" fill="url(#paint9_linear_206_34200)"/>
<path d="M466.02 239.191C476.614 237.687 493.436 247.376 496.478 251.998C499.521 256.62 512.323 253.188 514.025 255.268C514.897 256.335 513.342 259.364 510.052 261.263H263.74C263.74 261.263 274.003 253.361 279.3 253.633C284.597 253.906 285.921 253.361 287.907 252.271C289.894 251.181 292.211 248.183 292.211 246.003C292.211 243.823 289.232 241.098 292.211 238.646C295.191 236.193 299.826 231.016 299.826 231.016C311.972 226.496 314.636 229.748 320.683 233.741C322.386 226.147 327.448 225.499 347.168 233.741C352.441 233.397 353.127 234.286 356.769 230.198C360.411 226.111 350.148 224.203 356.769 220.933C363.39 217.663 354.782 215.756 363.39 213.031C371.998 210.306 379.453 212.609 390.869 222.568C398.085 217.442 401.777 220.602 408.084 231.016C416.321 236.848 417.018 239.717 416.361 244.641C423.98 245.369 424.427 247.422 425.63 250.908C426.908 248.756 436.572 250.299 438.873 251.998C441.174 253.698 444.832 248.183 447.812 247.911C450.791 247.638 456.75 248.183 457.744 244.641C458.737 241.098 455.426 240.694 466.02 239.191Z" fill="url(#paint10_linear_206_34200)" fill-opacity="0.5"/>
</g>
</g>
<g opacity="0.75" filter="url(#filter6_f_206_34200)">
<mask id="mask2_206_34200" style="mask-type:alpha" maskUnits="userSpaceOnUse" x="-220" y="116" width="502" height="99">
<path d="M184.562 170.44C205.75 167.433 239.393 186.811 245.478 196.055C251.562 205.299 277.167 198.435 280.57 202.595C282.316 204.729 279.205 210.787 272.625 214.585H-220C-220 214.585 -199.474 198.78 -188.88 199.325C-178.286 199.87 -175.637 198.78 -171.664 196.6C-167.691 194.42 -163.057 188.425 -163.057 184.065C-163.057 179.705 -169.016 174.255 -163.057 169.35C-157.097 164.445 -147.828 154.09 -147.828 154.09C-123.534 145.05 -118.207 151.555 -106.113 159.54C-102.708 144.353 -92.5826 143.056 -53.143 159.54C-42.5976 158.853 -41.2247 160.63 -33.9413 152.455C-26.6579 144.281 -47.1839 140.465 -33.9413 133.925C-20.6987 127.385 -37.9141 123.57 -20.6987 118.121C-3.48331 112.671 11.4279 117.276 34.2581 137.195C48.6901 126.944 56.0747 133.263 68.6888 154.09C85.164 165.754 86.5565 171.493 85.2421 181.34C100.482 182.797 101.375 186.902 103.782 193.875C106.338 189.571 125.664 192.656 130.267 196.055C134.869 199.454 142.185 188.425 148.144 187.88C154.104 187.335 166.022 188.425 168.008 181.34C169.995 174.255 163.373 173.447 184.562 170.44Z" fill="url(#paint11_linear_206_34200)"/>
</mask>
<g mask="url(#mask2_206_34200)">
<path d="M210.356 176.984C218.908 176.984 239.393 186.811 245.477 196.055C251.562 205.299 255.078 199.503 266.638 203.052C274.873 205.58 279.205 210.787 272.625 214.585H-220C-220 214.585 -199.474 198.78 -188.88 199.325C-178.286 199.87 -175.638 198.78 -171.665 196.6C-167.692 194.42 -163.057 188.425 -163.057 184.065C-163.057 179.705 -169.016 174.255 -163.057 169.35C-157.098 164.445 -147.828 154.09 -147.828 154.09C-123.535 145.05 -118.207 151.555 -106.114 159.54C-102.708 144.353 -92.583 143.056 -53.1435 159.54C-42.598 158.853 -41.2249 160.63 -33.9416 152.455C-26.6582 144.281 -47.1842 140.465 -33.9416 133.925C-20.6989 127.385 -37.9144 123.57 -20.699 118.12C-3.48358 112.671 11.4276 117.276 34.2578 137.195C48.6898 126.944 59.5046 149.572 63.9382 159.54C81.8328 159.54 86.5562 171.493 85.2418 181.34C100.482 182.797 101.375 186.902 103.781 193.875C106.337 189.571 125.664 192.656 130.267 196.055C134.869 199.454 142.185 188.425 148.144 187.88C154.103 187.335 169.592 196.186 176.784 187.88C183.976 179.574 201.805 176.984 210.356 176.984Z" fill="url(#paint12_linear_206_34200)"/>
<path d="M149.942 193.017C171.13 190.01 204.773 209.388 210.858 218.632C216.943 227.876 242.547 221.012 245.951 225.172C247.696 227.305 244.585 233.364 238.005 237.162H-254.619C-254.619 237.162 -234.093 221.357 -223.499 221.902C-212.905 222.447 -210.257 221.357 -206.284 219.177C-202.311 216.997 -197.676 211.002 -197.676 206.642C-197.676 202.282 -203.635 196.832 -197.676 191.927C-191.717 187.022 -182.447 176.667 -182.447 176.667C-158.154 167.627 -152.826 174.132 -140.733 182.117C-137.327 166.929 -127.202 165.632 -87.7627 182.117C-77.2172 181.43 -75.8443 183.207 -68.5609 175.032C-61.2775 166.857 -81.8035 163.042 -68.5609 156.502C-55.3183 149.962 -72.5337 146.147 -55.3183 140.697C-38.1029 135.247 -23.1918 139.853 -0.361557 159.772C14.0705 149.52 21.4551 155.839 34.0692 176.667C50.5444 188.331 51.9369 194.07 50.6225 203.917C65.8623 205.373 66.7555 209.479 69.1621 216.452C71.7179 212.147 91.0447 215.233 95.6473 218.632C100.25 222.03 107.565 211.002 113.525 210.457C119.484 209.912 131.402 211.002 133.389 203.917C135.375 196.832 128.754 196.024 149.942 193.017Z" fill="url(#paint13_linear_206_34200)" fill-opacity="0.5"/>
</g>
</g>
<path d="M1439.04 270.895V164.029C1426.05 181.84 1394.1 217.462 1370.16 217.462C1340.23 217.462 1319.01 192.835 1299.69 196.111C1280.37 199.387 1238.41 258.13 1221.94 246.381C1205.47 234.633 1209.91 261.293 1179.98 257C1150.05 252.707 1130.73 225.03 1117.12 225.03C1103.5 225.03 1102.23 257 1064.7 257C1027.18 257 1031.61 231.244 1007.7 238.812C983.788 246.381 956.869 257 934.383 257C911.898 257 904.466 233.111 877.905 257C861.649 271.622 833.991 250.561 807.072 257C780.153 263.439 697.654 275.187 625.764 257C553.874 238.812 607.871 264.569 546.432 265.585C484.993 266.602 434.341 211.136 413.185 211.136C392.029 211.136 371.141 257 321.737 257C272.332 257 259.031 238.812 237.971 238.812C216.911 238.812 198.859 267.619 164.497 257C130.136 246.381 128.552 197.241 85.1653 211.136C41.7781 225.03 26.8934 263.439 8.8418 244.235C0.365356 235.217 -3.32483 225.006 -4.61768 216.594V202.55C-5.25 205.645 -5.52747 210.674 -4.61768 216.594V273.041L1439.04 270.895Z" fill="url(#paint14_linear_206_34200)"/>
<path d="M-5.26465 164.029V270.895L1442.82 273.041V202.55C1444.36 210.044 1457.31 128.637 1442.82 144C1424.72 163.204 1396.28 225.03 1352.76 211.136C1309.24 197.241 1307.65 246.381 1273.19 257C1238.72 267.619 1220.61 238.812 1199.49 238.812C1178.36 238.812 1165.02 257 1115.47 257C1065.91 257 1076.53 225.03 1030.98 225.03C1011.12 225.03 951.708 266.602 890.081 265.585C828.453 264.569 800.4 237.968 782.292 252.187C752.23 275.791 644.002 252.82 617 246.381C589.998 239.942 588.913 225.03 577 225.03C565.087 225.03 523.493 257 500.938 257C478.384 257 451.382 246.381 427.398 238.812C403.414 231.244 407.862 257 370.218 257C332.575 257 331.304 225.03 317.644 225.03C303.985 225.03 284.607 252.707 254.587 257C224.568 261.293 229.015 234.633 212.496 246.381C195.978 258.13 153.887 199.387 134.509 196.111C115.131 192.835 86.5196 196.111 56.5001 196.111C32.4844 196.111 7.75972 181.84 -5.26465 164.029Z" fill="url(#paint15_radial_206_34200)"/>
<path d="M263.481 350.267L679.5 259L751 262C921.002 300.433 1017.4 328.853 1178.17 366.031C1185.22 366.851 1211.35 373.617 1211.35 373.617C1199.98 371.045 1188.93 368.518 1178.17 366.031C1177.93 366.003 1177.71 365.982 1177.52 365.968C1038.06 356.214 1113.57 345.481 721.462 345.481C329.359 345.481 191.964 359.114 191.964 359.114L263.481 350.267Z" fill="url(#paint16_linear_206_34200)" fill-opacity="0.65"/>
<g filter="url(#filter7_b_206_34200)">
<path d="M0.5 243.5L-3 -2H1440V330.5C1436.83 321.471 1420.5 290 1402 284.5C1332.45 241.683 1009 223.881 802.058 223.881C637.899 223.881 197 233 0.5 243.5Z" fill="url(#paint17_radial_206_34200)"/>
</g>
</g>
<defs>
<filter id="filter0_i_206_34200" x="-5.26465" y="267.513" width="1161.66" height="100.604" filterUnits="userSpaceOnUse" color-interpolation-filters="sRGB">
<feFlood flood-opacity="0" result="BackgroundImageFix"/>
<feBlend mode="normal" in="SourceGraphic" in2="BackgroundImageFix" result="shape"/>
<feColorMatrix in="SourceAlpha" type="matrix" values="0 0 0 0 0 0 0 0 0 0 0 0 0 0 0 0 0 0 127 0" result="hardAlpha"/>
<feOffset dx="9" dy="-3"/>
<feGaussianBlur stdDeviation="27"/>
<feComposite in2="hardAlpha" operator="arithmetic" k2="-1" k3="1"/>
<feColorMatrix type="matrix" values="0 0 0 0 0.610379 0 0 0 0 0.7875 0 0 0 0 0.410156 0 0 0 1 0"/>
<feBlend mode="normal" in2="shape" result="effect1_innerShadow_206_34200"/>
</filter>
<filter id="filter1_i_206_34200" x="-12.8657" y="286.628" width="335.405" height="59.7717" filterUnits="userSpaceOnUse" color-interpolation-filters="sRGB">
<feFlood flood-opacity="0" result="BackgroundImageFix"/>
<feBlend mode="normal" in="SourceGraphic" in2="BackgroundImageFix" result="shape"/>
<feColorMatrix in="SourceAlpha" type="matrix" values="0 0 0 0 0 0 0 0 0 0 0 0 0 0 0 0 0 0 127 0" result="hardAlpha"/>
<feOffset dy="1"/>
<feGaussianBlur stdDeviation="15"/>
<feComposite in2="hardAlpha" operator="arithmetic" k2="-1" k3="1"/>
<feColorMatrix type="matrix" values="0 0 0 0 0.0364583 0 0 0 0 0.452083 0 0 0 0 0.583333 0 0 0 0.6 0"/>
<feBlend mode="normal" in2="shape" result="effect1_innerShadow_206_34200"/>
</filter>
<filter id="filter2_i_206_34200" x="873.559" y="263.617" width="579.333" height="191.883" filterUnits="userSpaceOnUse" color-interpolation-filters="sRGB">
<feFlood flood-opacity="0" result="BackgroundImageFix"/>
<feBlend mode="normal" in="SourceGraphic" in2="BackgroundImageFix" result="shape"/>
<feColorMatrix in="SourceAlpha" type="matrix" values="0 0 0 0 0 0 0 0 0 0 0 0 0 0 0 0 0 0 127 0" result="hardAlpha"/>
<feOffset dx="10" dy="-8"/>
<feGaussianBlur stdDeviation="27"/>
<feComposite in2="hardAlpha" operator="arithmetic" k2="-1" k3="1"/>
<feColorMatrix type="matrix" values="0 0 0 0 0.760784 0 0 0 0 0.87451 0 0 0 0 0.556863 0 0 0 1 0"/>
<feBlend mode="normal" in2="shape" result="effect1_innerShadow_206_34200"/>
</filter>
<filter id="filter3_f_206_34200" x="1055.36" y="177.166" width="463.613" height="54.9308" filterUnits="userSpaceOnUse" color-interpolation-filters="sRGB">
<feFlood flood-opacity="0" result="BackgroundImageFix"/>
<feBlend mode="normal" in="SourceGraphic" in2="BackgroundImageFix" result="shape"/>
<feGaussianBlur stdDeviation="1.48855" result="effect1_foregroundBlur_206_34200"/>
</filter>
<filter id="filter4_d_206_34200" x="565.845" y="124.172" width="299.297" height="257.709" filterUnits="userSpaceOnUse" color-interpolation-filters="sRGB">
<feFlood flood-opacity="0" result="BackgroundImageFix"/>
<feColorMatrix in="SourceAlpha" type="matrix" values="0 0 0 0 0 0 0 0 0 0 0 0 0 0 0 0 0 0 127 0" result="hardAlpha"/>
<feOffset dy="4"/>
<feGaussianBlur stdDeviation="54"/>
<feComposite in2="hardAlpha" operator="out"/>
<feColorMatrix type="matrix" values="0 0 0 0 0.991667 0 0 0 0 0.928944 0 0 0 0 0.706563 0 0 0 1 0"/>
<feBlend mode="normal" in2="BackgroundImageFix" result="effect1_dropShadow_206_34200"/>
<feBlend mode="normal" in="SourceGraphic" in2="effect1_dropShadow_206_34200" result="shape"/>
</filter>
<filter id="filter5_f_206_34200" x="278.072" y="197.705" width="256.479" height="55.2467" filterUnits="userSpaceOnUse" color-interpolation-filters="sRGB">
<feFlood flood-opacity="0" result="BackgroundImageFix"/>
<feBlend mode="normal" in="SourceGraphic" in2="BackgroundImageFix" result="shape"/>
<feGaussianBlur stdDeviation="1.48855" result="effect1_foregroundBlur_206_34200"/>
</filter>
<filter id="filter6_f_206_34200" x="-222.977" y="113.023" width="501.782" height="104.539" filterUnits="userSpaceOnUse" color-interpolation-filters="sRGB">
<feFlood flood-opacity="0" result="BackgroundImageFix"/>
<feBlend mode="normal" in="SourceGraphic" in2="BackgroundImageFix" result="shape"/>
<feGaussianBlur stdDeviation="1.48855" result="effect1_foregroundBlur_206_34200"/>
</filter>
<filter id="filter7_b_206_34200" x="-9" y="-8" width="1455" height="344.5" filterUnits="userSpaceOnUse" color-interpolation-filters="sRGB">
<feFlood flood-opacity="0" result="BackgroundImageFix"/>
<feGaussianBlur in="BackgroundImageFix" stdDeviation="3"/>
<feComposite in2="SourceAlpha" operator="in" result="effect1_backgroundBlur_206_34200"/>
<feBlend mode="normal" in="SourceGraphic" in2="effect1_backgroundBlur_206_34200" result="shape"/>
</filter>
<radialGradient id="paint0_radial_206_34200" cx="0" cy="0" r="1" gradientUnits="userSpaceOnUse" gradientTransform="translate(732.773 251.634) rotate(-91.8601) scale(327.012 889.967)">
<stop stop-color="#FDEDB4"/>
<stop offset="0.369792" stop-color="#FCD69C"/>
<stop offset="0.991685" stop-color="#DAC2F9"/>
</radialGradient>
<linearGradient id="paint1_linear_206_34200" x1="1280.5" y1="304.5" x2="165.003" y2="293.741" gradientUnits="userSpaceOnUse">
<stop stop-color="#99E38D"/>
<stop offset="0.515625" stop-color="#E1F7A2"/>
<stop offset="1" stop-color="#9CD781"/>
</linearGradient>
<linearGradient id="paint2_linear_206_34200" x1="154.837" y1="286.628" x2="154.837" y2="345.4" gradientUnits="userSpaceOnUse">
<stop stop-color="#82ECDF"/>
<stop offset="0.927083" stop-color="#B2EDED"/>
</linearGradient>
<linearGradient id="paint3_linear_206_34200" x1="1115.44" y1="271.617" x2="1115.44" y2="442.617" gradientUnits="userSpaceOnUse">
<stop stop-color="#B6DDA4"/>
<stop offset="1" stop-color="#63A246"/>
</linearGradient>
<linearGradient id="paint4_linear_206_34200" x1="1286.96" y1="204.474" x2="1286.96" y2="255.648" gradientUnits="userSpaceOnUse">
<stop stop-color="white"/>
<stop offset="1" stop-color="white" stop-opacity="0"/>
</linearGradient>
<linearGradient id="paint5_linear_206_34200" x1="1286.96" y1="204.474" x2="1286.96" y2="255.648" gradientUnits="userSpaceOnUse">
<stop stop-color="white"/>
<stop offset="1" stop-color="white" stop-opacity="0"/>
</linearGradient>
<linearGradient id="paint6_linear_206_34200" x1="1255.34" y1="215.762" x2="1255.34" y2="266.936" gradientUnits="userSpaceOnUse">
<stop stop-color="#AFFFF6"/>
<stop offset="1" stop-color="white" stop-opacity="0"/>
</linearGradient>
<radialGradient id="paint7_radial_206_34200" cx="0" cy="0" r="1" gradientUnits="userSpaceOnUse" gradientTransform="translate(715.56 269.881) rotate(-160.818) scale(44.236 79.58)">
<stop stop-color="#FFD74A"/>
<stop offset="1" stop-color="#F7E39C"/>
</radialGradient>
<linearGradient id="paint8_linear_206_34200" x1="406.194" y1="225.328" x2="406.194" y2="276.502" gradientUnits="userSpaceOnUse">
<stop stop-color="white"/>
<stop offset="1" stop-color="white" stop-opacity="0"/>
</linearGradient>
<linearGradient id="paint9_linear_206_34200" x1="406.194" y1="225.328" x2="406.194" y2="276.502" gradientUnits="userSpaceOnUse">
<stop stop-color="white"/>
<stop offset="1" stop-color="white" stop-opacity="0"/>
</linearGradient>
<linearGradient id="paint10_linear_206_34200" x1="388.885" y1="236.617" x2="388.885" y2="287.791" gradientUnits="userSpaceOnUse">
<stop stop-color="#AFFFF6"/>
<stop offset="1" stop-color="white" stop-opacity="0"/>
</linearGradient>
<linearGradient id="paint11_linear_206_34200" x1="30.2908" y1="165.292" x2="30.2908" y2="267.64" gradientUnits="userSpaceOnUse">
<stop stop-color="white"/>
<stop offset="1" stop-color="white" stop-opacity="0"/>
</linearGradient>
<linearGradient id="paint12_linear_206_34200" x1="30.2906" y1="165.292" x2="30.2906" y2="267.64" gradientUnits="userSpaceOnUse">
<stop stop-color="white"/>
<stop offset="1" stop-color="white" stop-opacity="0"/>
</linearGradient>
<linearGradient id="paint13_linear_206_34200" x1="-4.32881" y1="187.869" x2="-4.32878" y2="290.217" gradientUnits="userSpaceOnUse">
<stop stop-color="#9CDCD5"/>
<stop offset="1" stop-color="white" stop-opacity="0.2"/>
</linearGradient>
<linearGradient id="paint14_linear_206_34200" x1="716.918" y1="164.029" x2="716.918" y2="273.041" gradientUnits="userSpaceOnUse">
<stop stop-color="#D4E2E7"/>
<stop offset="1" stop-color="#CED9DD" stop-opacity="0.7"/>
</linearGradient>
<radialGradient id="paint15_radial_206_34200" cx="0" cy="0" r="1" gradientUnits="userSpaceOnUse" gradientTransform="translate(719.072 231.017) rotate(160.775) scale(789.757 10451.4)">
<stop stop-color="#DBD6E4"/>
<stop offset="1" stop-color="#97ACBF"/>
</radialGradient>
<linearGradient id="paint16_linear_206_34200" x1="717.198" y1="278.769" x2="715.516" y2="361.286" gradientUnits="userSpaceOnUse">
<stop stop-color="#FFEDCB" stop-opacity="0.79"/>
<stop offset="1" stop-color="#FDE0A7" stop-opacity="0.2"/>
<stop offset="1" stop-color="#FDE0A7" stop-opacity="0.5"/>
</linearGradient>
<radialGradient id="paint17_radial_206_34200" cx="0" cy="0" r="1" gradientUnits="userSpaceOnUse" gradientTransform="translate(9.97942 7.58015) rotate(12.1913) scale(1440.36 951.508)">
<stop stop-color="white" stop-opacity="0.4"/>
<stop offset="1" stop-color="white" stop-opacity="0"/>
</radialGradient>
<clipPath id="clip0_206_34200">
<rect width="1440" height="530" fill="white"/>
</clipPath>
</defs>
</svg>
