<svg width="1440" height="992" viewBox="0 0 1440 992" fill="none" xmlns="http://www.w3.org/2000/svg">
<g clip-path="url(#clip0_7203_643)">
<path d="M630.831 678.358C626.582 676.943 619.218 677.615 619.218 679.417L619.217 708.605C619.217 710.175 621.275 711.745 624.955 712.983L1805.84 1110.08L3015.95 790.859L3015.95 753.677L1805.84 1069.69L630.831 678.358Z" fill="#061B26"/>
<path d="M623.381 681.426C618.142 679.681 618.226 677.135 623.569 675.74L1828.8 361L3020.12 757.766L1805.21 1075.03L623.381 681.426Z" fill="#133141"/>
<path d="M750.951 685.641C745.711 683.896 745.795 681.35 751.139 679.954L1827.55 398.856L2892.55 753.551L1806.46 1037.18L750.951 685.641Z" fill="#476A7D"/>
<path d="M781.744 686.659C776.504 684.913 776.588 682.368 781.932 680.972L904.408 648.988L1033.99 692.146L901.842 726.657L781.744 686.659Z" fill="#809CAA"/>
<rect width="136.584" height="136.584" transform="matrix(0.967552 -0.25267 0.948765 0.315984 904.408 648.988)" fill="#133141"/>
<rect width="136.584" height="136.584" transform="matrix(0.967552 -0.25267 0.948765 0.315984 1036.56 614.478)" fill="#809CAA"/>
<rect width="136.584" height="136.584" transform="matrix(0.967552 -0.25267 0.948765 0.315984 1168.71 579.967)" fill="#133141"/>
<rect width="136.584" height="136.584" transform="matrix(0.967552 -0.25267 0.948765 0.315984 1300.86 545.456)" fill="#809CAA"/>
<rect width="136.584" height="136.584" transform="matrix(0.967552 -0.25267 0.948765 0.315984 1433.02 510.946)" fill="#133141"/>
<rect width="136.584" height="136.584" transform="matrix(-0.967552 0.25267 0.948765 0.315984 1554.2 708.354)" fill="#133141"/>
<rect width="136.584" height="136.584" transform="matrix(-0.967552 0.25267 0.948765 0.315984 1422.05 742.865)" fill="#809CAA"/>
<rect width="136.584" height="136.584" transform="matrix(-0.967552 0.25267 0.948765 0.315984 1289.9 777.375)" fill="#133141"/>
<rect width="136.584" height="136.584" transform="matrix(0.967552 -0.25267 0.948765 0.315984 1029.25 769.091)" fill="#809CAA"/>
<rect width="136.584" height="136.584" transform="matrix(0.967552 -0.25267 0.948765 0.315984 1161.4 734.58)" fill="#133141"/>
<rect width="136.584" height="136.584" transform="matrix(0.967552 -0.25267 0.948765 0.315984 1293.55 700.069)" fill="#809CAA"/>
<rect width="136.584" height="136.584" transform="matrix(0.967552 -0.25267 0.948765 0.315984 1425.71 665.559)" fill="#133141"/>
<rect width="136.584" height="136.584" transform="matrix(-0.967552 0.25267 0.948765 0.315984 1546.89 862.966)" fill="#133141"/>
<rect width="136.584" height="136.584" transform="matrix(-0.967552 0.25267 0.948765 0.315984 1561.51 553.742)" fill="#133141"/>
<rect width="136.584" height="136.584" transform="matrix(-0.967552 0.25267 0.948765 0.315984 1429.36 588.252)" fill="#809CAA"/>
<rect width="136.584" height="136.584" transform="matrix(-0.967552 0.25267 0.948765 0.315984 1297.21 622.763)" fill="#133141"/>
<rect width="136.584" height="136.584" transform="matrix(-0.967552 0.25267 0.948765 0.315984 1165.06 657.274)" fill="#809CAA"/>
<rect width="136.584" height="136.584" transform="matrix(-0.967552 0.25267 0.948765 0.315984 1032.91 691.784)" fill="#133141"/>
<rect width="136.584" height="136.584" transform="matrix(0.967552 -0.25267 0.948765 0.315984 1286.24 854.681)" fill="#809CAA"/>
<rect width="136.584" height="136.584" transform="matrix(0.967552 -0.25267 0.948765 0.315984 1418.39 820.171)" fill="#133141"/>
<path d="M-21.355 619.877C-22.9012 615.238 -16.8452 611.501 -13.624 610.213C-25.9936 590.112 -0.73901 567.048 13.4345 558.029C17.3 548.365 19.2327 542.567 28.8964 532.903C42.5958 519.204 47.5797 474.921 46.2912 451.728V418.871C41.6526 417.325 32.7619 407.919 28.8964 403.409C24.3867 402.12 16.1403 398.384 19.2327 393.745C22.3251 389.107 26.9637 386.658 28.8964 386.014C28.8964 379.829 35.3389 375.706 38.5602 374.418L40.4929 349.292C34.6947 344.138 23.4847 329.578 25.0309 312.57C26.9637 291.31 34.6947 283.579 46.2912 273.915C55.5683 266.184 61.7531 250.078 63.6859 242.991C57.8876 239.126 55.9549 233.327 57.8876 225.596C60.7867 214 69.4841 214 73.3496 214C78.7477 214 86.8788 219.798 86.8788 227.529C86.8788 235.26 84.9461 239.126 81.0806 242.991C81.0806 248.789 86.8788 264.251 96.5425 273.915C106.206 283.579 117.803 291.31 119.735 312.57C121.282 329.578 107.495 345.427 100.408 351.225V374.418C111.231 377.51 112.649 383.437 112.005 386.014C115.226 386.658 121.668 389.107 121.668 393.745C121.668 398.384 113.937 402.12 110.072 403.409C110.072 408.048 101.052 415.65 96.5425 418.871V451.728L96.5425 452.565C96.5396 475.892 96.5347 515.985 115.87 532.903C131.332 546.432 131.976 556.096 131.332 558.029C166.894 584.314 162.9 603.77 156.458 610.213C160.323 610.213 169.987 617.944 164.189 621.809C158.39 625.675 142.928 629.54 67.5514 629.54C-7.82573 629.54 -19.4222 625.675 -21.355 619.877Z" fill="#F9DFAC"/>
<path d="M-164.988 607.811C-162.361 609.048 -145.177 610.674 -136.913 611.333C-137.23 616.201 -56.1851 625.194 -15.6233 629.083C4.47427 632.271 15.7351 634.15 47.7982 637.839C93.2511 643.068 159.077 656.577 185.507 663.316L226.716 673.02C219.083 673.076 212.533 675.085 210.212 676.083C202.521 676.074 190.19 676.465 202.389 678.103C214.589 679.74 227.232 680.863 232.029 681.221C239.786 683.047 258.252 684.822 266.516 685.48L302.017 693.068C296.516 694.089 291.644 697.421 316.167 702.578C346.82 709.023 372.471 711.975 408.522 715.83C437.364 718.915 470.328 724.206 483.205 726.466C476.087 727.107 479.371 728.652 493.056 731.102C513.583 734.778 531.531 735.529 539.508 735.863C550.648 736.329 560.156 735.319 550.46 733.036C540.763 730.753 531.927 729.444 519.102 727.969C511.829 726.256 504.402 722.191 512.225 720.172C520.047 718.152 534.282 716.871 511.606 710.759C493.465 705.87 445.135 699.998 423.238 697.673L394.15 690.823C412.607 690.845 408.098 689.217 403.536 688.4C409.376 688.488 419.601 688.322 413.783 686.952C407.965 685.582 387.324 683.811 377.731 683.096C371.913 681.726 343.765 678.702 330.418 677.361L289.209 667.657C260.12 660.807 208.375 648.719 227.283 645.353C242.223 642.693 231.432 639.894 227.678 639.268C268.095 634.578 208.227 627.69 186.845 625.23L186.836 625.229C194.813 625.563 177.951 615.949 161.137 614.307C144.323 612.664 161.919 619.15 6.36512 612.638C-149.188 606.126 -168.272 606.266 -164.988 607.811Z" fill="#172E3B"/>
<path d="M-16.355 619.877C-17.9012 615.238 -11.8452 611.501 -8.62399 610.213C-20.9936 590.112 4.26099 567.048 18.4345 558.029C22.3 548.365 24.2327 542.567 33.8964 532.903C47.5958 519.204 52.5796 474.921 51.2912 451.728V418.871C46.6526 417.325 37.7619 407.919 33.8964 403.409C29.3867 402.12 21.1403 398.384 24.2327 393.745C27.3251 389.107 31.9637 386.658 33.8964 386.014C33.8964 379.829 40.3389 375.706 43.5602 374.418L45.4929 349.292C39.6947 344.138 28.4847 329.578 30.0309 312.57C31.9637 291.31 39.6947 283.579 51.2912 273.915C60.5683 266.184 66.7531 250.078 68.6859 242.991C62.8876 239.126 60.9549 233.327 62.8876 225.596C65.7867 214 74.4841 214 78.3496 214C83.7477 214 91.8788 219.798 91.8788 227.529C91.8788 235.26 89.9461 239.126 86.0806 242.991C86.0806 248.789 91.8788 264.251 101.543 273.915C111.206 283.579 122.803 291.31 124.735 312.57C126.282 329.578 112.495 345.427 105.408 351.225V374.418C116.231 377.51 117.649 383.437 117.005 386.014C120.226 386.658 126.668 389.107 126.668 393.745C126.668 398.384 118.937 402.12 115.072 403.409C115.072 408.048 106.052 415.65 101.543 418.871V451.728L101.542 452.565C101.54 475.892 101.535 515.985 120.87 532.903C136.332 546.432 136.976 556.096 136.332 558.029C171.894 584.314 167.9 603.77 161.458 610.213C165.323 610.213 174.987 617.944 169.189 621.809C163.39 625.675 147.928 629.54 72.5514 629.54C-2.82573 629.54 -14.4222 625.675 -16.355 619.877Z" fill="#A8C0CC"/>
<path d="M116.408 386.139C89.6649 392.772 49.9339 389.384 33.4113 386.861C15.0712 393.821 25.8683 400.594 33.5593 403.361C81.6142 409.443 106.084 404.896 115.056 401.651C119.375 399.947 127.702 396.841 126.46 392.051C125.218 387.262 119.241 386.114 116.408 386.139Z" fill="#436577"/>
<path d="M85.9715 621.809C85.9715 611.67 66.3785 611.501 69.5997 610.213C126.358 610.213 115.183 572.751 96.6582 558.029C100.524 548.365 81.1457 544.101 88.9796 532.903C93.3348 526.677 88.2089 510.326 88.2089 451.728V418.871C83.1995 412.835 97.0717 411.509 97.0717 406.5C102.466 403.803 108 403 108 396C108 389 97.0717 392.124 97.0717 387.5C97.0717 381.315 86.9083 375.706 90.1296 374.418L92.0623 349.292C86.2641 344.138 100.154 333.841 100.154 309.564C100.154 288.216 74.375 283.579 85.9715 273.915C95.2487 266.184 80.1168 249.837 79.3461 242.13C86.6675 237.891 86.6675 231.34 86.6675 227.529C86.6675 219.78 74.4839 214 78.3494 214C83.7475 214 91.8786 219.798 91.8786 227.529C91.8786 235.26 89.9459 239.126 86.0804 242.991C86.0804 248.789 91.8786 264.251 101.542 273.915C111.206 283.579 122.803 291.31 124.735 312.57C126.281 329.578 112.495 345.427 105.408 351.225V374.418C116.231 377.51 117.649 383.437 117.004 386.014C120.226 386.658 126.668 389.107 126.668 393.745C126.668 398.384 118.937 402.12 115.072 403.409C115.072 408.048 106.052 415.65 101.542 418.871V451.728L101.542 452.565C101.539 475.892 101.534 515.985 120.87 532.903C136.332 546.432 136.976 556.096 136.332 558.029C171.894 584.314 167.9 603.77 161.457 610.213C165.323 610.213 174.987 617.944 169.188 621.809C163.39 625.675 147.928 629.54 72.5512 629.54C44.6656 629.54 85.9715 627.921 85.9715 621.809Z" fill="#436577"/>
<path d="M-4 610C21.7163 612.264 87.3192 615.433 144 610" stroke="#436577" stroke-width="5"/>
<path d="M67.9304 390.461C68.0326 391.963 31.2913 392.356 30.4378 386.782C29.5842 381.208 31.7231 383.985 32.8624 384.273C34.0016 384.561 41.8668 387.057 45.8224 387.693C58.2177 389.684 67.8282 388.96 67.9304 390.461Z" fill="#F9DFAC"/>
<path opacity="0.4" d="M1692.61 532.571L1136.79 424.993L1205.29 383.144L1906.02 411.761C1906.02 411.761 1883.05 498.266 1826.72 522.309C1770.39 546.352 1692.61 532.571 1692.61 532.571Z" fill="#031119"/>
<path d="M1153 304.79C1157.15 305.682 1157.2 310.521 1156.71 312.828C1177.23 309.997 1188.1 326.818 1189.57 345.24C1191.3 345.612 1198.84 352.664 1200.82 360.33C1204.27 373.747 1212.49 373.395 1217.62 374.806L1247.04 381.128C1260.89 384.104 1265.84 377.925 1270.04 375.207C1274.25 372.49 1280.68 359.388 1284.39 367.427C1287.35 373.858 1286.36 383.542 1285.49 387.58L1292.41 389.068C1293.16 385.606 1316.28 370.66 1336.18 387.61C1353.23 402.138 1346.68 439.84 1323.53 446.453C1300.39 453.066 1287.93 435.181 1284.6 425.412L1277.68 423.924C1276.93 427.386 1272.97 437.398 1268.4 441.846C1264.73 445.404 1262.25 442.337 1261.47 440.358C1258.42 420.871 1246.12 413.52 1240.35 412.28L1210.93 405.958C1198.81 403.354 1193.86 409.533 1187.18 415.34C1181.84 419.985 1175.64 421.309 1173.21 421.39C1155.51 444.746 1139.19 444.86 1128.57 435.334C1127.08 442.257 1123.49 442.09 1121.89 441.141C1115.46 437.346 1118.02 428.239 1118.31 424.077C1119.82 391.809 1138.53 321.596 1141.74 315.045C1144.87 308.69 1147.81 303.674 1153 304.79Z" fill="#0B1C25"/>
<mask id="mask0_7203_643" style="mask-type:alpha" maskUnits="userSpaceOnUse" x="1117" y="304" width="229" height="144">
<path d="M1153 304.791C1157.15 305.683 1157.2 310.522 1156.71 312.829C1177.23 309.998 1188.1 326.819 1189.57 345.241C1191.3 345.613 1198.84 352.665 1200.82 360.331C1204.27 373.748 1212.49 373.396 1217.62 374.807L1247.04 381.129C1260.89 384.105 1265.84 377.926 1270.04 375.208C1274.25 372.491 1280.68 359.389 1284.39 367.428C1287.35 373.859 1286.36 383.543 1285.49 387.581L1292.41 389.069C1293.16 385.607 1316.28 370.661 1336.18 387.611C1353.23 402.139 1346.68 439.841 1323.53 446.454C1300.39 453.067 1287.93 435.182 1284.6 425.413L1277.68 423.925C1276.93 427.387 1272.97 437.399 1268.4 441.847C1264.73 445.405 1262.25 442.338 1261.47 440.359C1258.42 420.872 1246.12 413.521 1240.35 412.281L1210.93 405.959C1198.81 403.355 1193.86 409.534 1187.18 415.341C1181.84 419.986 1175.64 421.31 1173.21 421.391C1155.51 444.747 1139.19 444.861 1128.57 435.335C1127.08 442.258 1123.49 442.091 1121.89 441.142C1115.46 437.347 1118.02 428.24 1118.31 424.078C1119.82 391.81 1138.53 321.597 1141.74 315.046C1144.87 308.691 1147.81 303.675 1153 304.791Z" fill="#D3E3EB"/>
</mask>
<g mask="url(#mask0_7203_643)">
<path d="M1125.13 413.999C1129.28 414.892 1138.62 402.631 1138.12 404.938C1140.8 413.275 1154.09 428.403 1174.85 404.205C1176.58 404.577 1189.46 390.04 1191.44 397.706C1194.89 411.123 1206.11 398.809 1211.24 400.22L1240.66 406.543C1254.5 409.518 1257.18 410.123 1261.3 411.153C1266.15 412.369 1266.15 413.97 1271.38 415.281C1278.25 417.001 1279.79 409.704 1278.92 413.742L1285.84 415.23C1289.98 421.911 1299.61 431.074 1310.07 433.695C1326.1 437.708 1338.11 430.387 1341.76 426.137C1345.78 421.444 1344.27 438.304 1323.51 446.449C1301.1 455.243 1287.91 435.177 1284.58 425.408L1277.66 423.92C1276.92 427.382 1272.95 437.394 1268.38 441.842C1264.71 445.4 1262.24 442.333 1261.45 440.354C1258.4 420.867 1246.1 413.516 1240.33 412.276L1210.91 405.954C1198.79 403.35 1193.84 409.529 1187.16 415.336C1181.82 419.981 1175.62 421.305 1173.19 421.386C1155.5 444.742 1139.18 444.856 1128.55 435.33C1127.06 442.253 1123.48 442.086 1121.87 441.137C1115.44 437.342 1118 428.235 1118.29 424.073C1119.8 391.805 1124.59 376.46 1127.1 369.607C1130.36 360.721 1119.93 412.883 1125.13 413.999Z" fill="#020E14"/>
<path d="M1277.47 424.933C1278.2 414.634 1282.51 395.711 1285 387.864L1292.41 389.124C1286.05 402.456 1285.19 419.646 1285.26 426.733L1277.47 424.933Z" fill="#020E14"/>
</g>
<g filter="url(#filter0_i_7203_643)">
<path d="M1364.34 555.115C1353.03 551.343 1357.27 546.472 1360.8 544.507C1350.43 530.364 1368.27 514.256 1378.48 507.97C1378.48 501.37 1386.34 491.863 1390.27 487.934C1366.7 467.898 1390.27 441.968 1399.7 429.003C1407.24 418.632 1420.13 403.467 1425.63 397.181C1428.46 394.352 1428.38 385.788 1427.98 381.859C1420.91 391.288 1407.95 390.109 1405.59 388.931C1403.23 387.752 1396.16 387.752 1390.27 392.466C1384.38 397.181 1371.41 396.002 1369.05 392.466C1367.68 390.405 1371.23 387.385 1374.78 385.137C1372.47 385.86 1369.64 386.353 1367.88 386.573C1364.34 367.716 1382.02 364.18 1386.73 364.18C1391.45 364.18 1413.84 345.322 1418.56 342.965C1423.27 340.608 1432.7 345.322 1431.52 342.965C1430.58 341.079 1434.27 333.536 1436.24 330C1440.01 333.772 1444.09 341.786 1445.66 345.322H1452.74C1456.27 364.18 1476.31 350.036 1473.95 364.18C1471.59 378.323 1482.2 388.931 1482.2 392.466C1482.2 396.002 1473.95 401.895 1476.31 412.503C1478.67 423.11 1473.95 430.182 1471.59 436.075C1469.24 441.968 1476.31 452.576 1473.95 458.469C1472.07 463.183 1471.59 472.219 1471.59 476.148C1462.16 478.505 1446.14 485.105 1457.45 492.648C1468.76 500.192 1469.24 506.006 1468.06 507.97C1491.63 524.942 1489.67 539.4 1485.74 544.507C1489.27 546.865 1495.17 550.4 1482.2 555.115C1469.24 559.829 1378.48 559.829 1364.34 555.115Z" fill="#0B1C25"/>
<mask id="mask1_7203_643" style="mask-type:alpha" maskUnits="userSpaceOnUse" x="1357" y="330" width="134" height="229">
<path d="M1364.34 555.115C1353.03 551.343 1357.27 546.472 1360.8 544.507C1350.43 530.364 1368.27 514.256 1378.48 507.97C1378.48 501.37 1386.34 491.863 1390.27 487.934C1366.7 467.898 1390.27 441.968 1399.7 429.003C1407.24 418.632 1420.13 403.467 1425.63 397.181C1428.46 394.352 1428.38 385.788 1427.98 381.859C1420.91 391.288 1407.95 390.109 1405.59 388.931C1403.23 387.752 1396.16 387.752 1390.27 392.466C1384.38 397.181 1371.41 396.002 1369.05 392.466C1367.68 390.405 1371.23 387.385 1374.78 385.137C1372.47 385.86 1369.64 386.353 1367.88 386.573C1364.34 367.716 1382.02 364.18 1386.73 364.18C1391.45 364.18 1413.84 345.322 1418.56 342.965C1423.27 340.608 1432.7 345.322 1431.52 342.965C1430.58 341.079 1434.27 333.536 1436.24 330C1440.01 333.772 1444.09 341.786 1445.66 345.322H1452.74C1456.27 364.18 1476.31 350.036 1473.95 364.18C1471.59 378.323 1482.2 388.931 1482.2 392.466C1482.2 396.002 1473.95 401.895 1476.31 412.503C1478.67 423.11 1473.95 430.182 1471.59 436.075C1469.24 441.968 1476.31 452.576 1473.95 458.469C1472.07 463.183 1471.59 472.219 1471.59 476.148C1462.16 478.505 1446.14 485.105 1457.45 492.648C1468.76 500.192 1469.24 506.006 1468.06 507.97C1491.63 524.942 1489.67 539.4 1485.74 544.507C1489.27 546.865 1495.17 550.4 1482.2 555.115C1469.24 559.829 1378.48 559.829 1364.34 555.115Z" fill="#6D520B"/>
</mask>
<g mask="url(#mask1_7203_643)">
<path d="M1453.5 488C1434.3 490.4 1403.83 489 1391 488L1377.5 490L1379 507C1421 515 1455.83 510.333 1468 507H1475.5L1453.5 488Z" fill="#04141D"/>
</g>
</g>
<path d="M888 626.5H870V671L888 662V626.5Z" fill="#353333"/>
<path d="M1574.5 832.5L567 575.5L1212.5 447L2218 646L1574.5 832.5Z" fill="#031119" fill-opacity="0.4"/>
<path d="M615 561C617.733 569.359 625.984 585.314 635.897 584.643C636.28 584.598 636.648 584.55 637 584.5C636.63 584.571 636.263 584.618 635.897 584.643C627.389 585.644 611.419 585.306 598.5 581C604.5 580.833 616.2 576.6 615 561Z" fill="#A1948F"/>
<path d="M467.499 206.12C464.237 197.953 454.98 182.559 445.13 183.864C444.751 183.933 444.387 184.005 444.039 184.077C444.404 183.983 444.767 183.912 445.13 183.864C453.557 182.32 469.516 181.634 482.684 185.104C476.707 185.654 465.303 190.628 467.499 206.12Z" fill="#958681"/>
<path d="M960.407 27.3965C960.407 27.3965 1042.97 81.1459 1045.5 84C1048.03 86.8541 1052.5 91.5 1052.5 91.5L1036.5 86.2188L465.276 185.173C462.26 185.695 459.17 184.807 456.892 182.764L380.23 114L370 112L375.5 109.5L960.407 27.3965Z" fill="#A69A96"/>
<g filter="url(#filter1_i_7203_643)">
<path d="M597.776 580.944L222.664 499.002C212.075 253.945 312.695 141.414 369.517 112.327C372.998 110.545 377.168 111.258 380.081 113.868L458.301 183.977C459.419 184.979 460.297 186.22 460.87 187.608L614.842 560.566C619.462 571.757 609.604 583.528 597.776 580.944Z" fill="#D3CDCC"/>
</g>
<path d="M597.752 580.913L295 514.5C284.305 266.994 371.685 187.933 427.434 161.836C429.912 160.676 432.807 161.169 434.845 162.993L459.148 184.738C459.708 185.239 460.149 185.861 460.436 186.556L614.831 560.537C619.453 571.734 609.583 583.509 597.752 580.913Z" fill="#CCC4C1"/>
<path d="M597.619 580.84L410.5 539.5C404.5 455.333 418 349.5 509.5 307.5L614.705 560.433C619.367 571.643 609.474 583.46 597.619 580.84Z" fill="#C5BBB7"/>
<path d="M620.943 575.396L466.609 203.179C462.934 194.314 468.413 184.325 477.864 182.661L1036.97 84.2145C1043.73 83.0237 1050.44 86.5778 1053.25 92.8424L1207.92 437.263C1211.8 445.913 1206.78 455.952 1197.54 458.039L638.101 584.283C630.982 585.89 623.739 582.139 620.943 575.396Z" fill="#72635E"/>
<g filter="url(#filter2_i_7203_643)">
<path d="M453.118 124.748V116.913L490.299 150.18V158C490.299 158.96 493.266 161.233 494.5 162.5C494.5 162.5 491 163.5 490.299 163.421L455.971 131.322C454.151 129.62 453.118 127.24 453.118 124.748Z" fill="#D3CDCC"/>
<path d="M452.933 117L721.667 72.4044L932.246 1.57332C935.195 0.581535 938.437 1.01846 941.018 2.75539L990.5 36.0577C990.689 36.0577 991.5 36.5 991.5 37.5L989.5 36.0577L754.934 103.714L488.799 150.679L452.933 117Z" fill="#B8AFAC"/>
<path d="M751.5 104.5L718 73H721L755.5 103.5L751.5 104.5Z" fill="#AB9D97"/>
<path d="M989.16 35.9629L754.934 103.714V117.412L985.21 73.641C988.985 72.9235 991.716 69.6239 991.716 65.7817V37.8841C991.716 36.5527 990.439 35.5929 989.16 35.9629Z" fill="#72635E"/>
<path d="M755 117.401L491.345 163.589C490.121 163.804 489 162.862 489 161.619V150.452L755 103.667V117.401Z" fill="#72635E"/>
</g>
<path d="M1137.53 373.608L624.537 476.285C623.605 476.471 622.671 475.977 622.302 475.102L564.905 339.231C564.407 338.051 565.131 336.713 566.391 336.485L1080.96 243.281C1081.86 243.116 1082.77 243.595 1083.14 244.441L1138.97 370.839C1139.49 372.009 1138.79 373.357 1137.53 373.608Z" fill="#746560"/>
<path d="M800.266 500.139L651.392 531.453C648.655 532.029 645.988 530.245 645.391 527.512C642.392 513.785 638.491 504.267 630.042 490.882C628.136 487.863 629.798 483.825 633.3 483.131L782.368 453.607C784.244 453.236 786.176 453.968 787.309 455.508C797.947 469.957 801.934 479.592 804.141 494.665C804.516 497.225 802.797 499.607 800.266 500.139Z" fill="#D3CDCC"/>
<path d="M979.766 464.139L830.892 495.453C828.155 496.029 825.488 494.245 824.891 491.512C821.893 477.785 817.991 468.267 809.542 454.882C807.636 451.863 809.298 447.825 812.801 447.131L961.869 417.607C963.744 417.236 965.676 417.968 966.809 419.508C977.447 433.957 981.434 443.592 983.642 458.665C984.016 461.225 982.297 463.607 979.766 464.139Z" fill="#D3CDCC"/>
<path d="M826.511 493.001L983.708 459.2L984.083 463.199L826.785 496.868L826.511 493.001Z" fill="#A1948F"/>
<path d="M645.581 530L803.708 496L804.081 500L645.851 533.868L645.581 530Z" fill="#A1948F"/>
<path d="M1155.27 428.139L1006.39 459.453C1003.66 460.029 1000.99 458.244 1000.37 455.517C997.245 441.842 992.743 432.586 984.135 419.262C982.199 416.265 983.855 412.231 987.354 411.533L1137.36 381.612C1139.24 381.238 1141.18 381.97 1142.31 383.512C1152.95 397.959 1156.93 407.594 1159.14 422.665C1159.52 425.225 1157.8 427.607 1155.27 428.139Z" fill="#D3CDCC"/>
<path d="M1001.53 456.592L1159.21 423.29L1159.57 427.291L1001.79 460.46L1001.53 456.592Z" fill="#A1948F"/>
<path d="M645.314 531.135L629.203 489.41C628.814 488.402 630.064 487.591 630.725 488.447C632.876 491.233 635.621 496.199 640.433 508.5C644.321 518.436 646.054 526.048 646.696 530.839C646.84 531.908 645.703 532.141 645.314 531.135Z" fill="white"/>
<path d="M826.244 495.883L808.893 453.612C808.478 452.602 809.549 451.939 810.159 452.845C812.346 456.089 815.197 461.546 820.434 473C824.961 482.904 826.92 490.723 827.619 495.571C827.771 496.627 826.649 496.87 826.244 495.883Z" fill="white"/>
<path d="M1001.24 459.514L983.51 417.735C983.08 416.723 984.245 415.966 984.902 416.847C987.223 419.961 990.275 425.216 995.434 436.5C999.998 446.485 1001.95 454.35 1002.64 459.189C1002.78 460.239 1001.66 460.491 1001.24 459.514Z" fill="white"/>
<path d="M660.825 506.12L658.749 502.15L670.542 499.723L672.618 503.694L660.825 506.12ZM774.344 489.947L770.73 483.035L763.09 484.607L760.755 480.14L768.395 478.568L764.818 471.727L769.716 470.719L773.292 477.56L780.932 475.988L783.267 480.455L775.627 482.027L779.241 488.939L774.344 489.947Z" fill="#70605A"/>
<path d="M589.158 310.099L572.699 274.707L584.287 272.701C597.144 270.475 607.561 275.695 612.897 287.171C618.14 298.444 613.824 305.829 600.691 308.102L589.158 310.099ZM594.421 301.287L596.408 300.943C604.243 299.587 608.004 296.906 604.037 288.375C600.212 280.149 594.75 278.79 587.522 280.041L584.763 280.519L594.421 301.287ZM648.638 299.803L643.369 294.241L628.912 296.744L629.215 303.165L619.779 304.798L619.322 266.637L625.668 265.538L658.074 298.17L648.638 299.803ZM628.546 288.906L636.988 287.445L628.048 277.965L628.546 288.906ZM664.909 296.987L658.415 283.023L633.883 264.116L644.091 262.349L658.988 274.639L661.307 259.37L671.515 257.603L667.079 281.524L673.572 295.488L664.909 296.987ZM702.19 291.357C694.189 292.742 685.844 289.413 681.545 282.86L689.232 279.39C691.555 283.487 695.211 284.939 699.074 284.27C701.888 283.783 703.615 282.113 702.363 279.421C701.608 277.797 699.275 276.883 693.38 275.874C683.742 274.25 679.463 271.973 676.936 266.54C674.197 260.65 677.282 255.617 684.842 254.308C690.194 253.382 695.561 254.922 700.169 259.062L694.909 264.417C692.545 262.028 690.055 261.032 687.848 261.414C685.862 261.758 684.749 263.213 685.529 264.888C686.332 266.615 688.388 267.575 694.827 268.601C704.474 270.113 708.303 272.194 710.641 277.221C713.899 284.228 710.026 290.001 702.19 291.357ZM762.09 280.166L745.631 244.774L754.294 243.275L760.552 256.731L775.506 254.142L769.248 240.686L777.911 239.187L794.37 274.579L785.707 276.078L778.906 261.454L763.952 264.043L770.753 278.667L762.09 280.166ZM833.09 267.877L823.047 269.615L807.622 257.087L805.47 257.46L804.643 257.603L811.184 271.669L802.576 273.159L786.117 237.767L799.636 235.427C809.347 233.746 814.925 237.279 817.854 243.575C820.191 248.602 819.354 252.314 815.782 254.633L833.09 267.877ZM801.242 250.291L805.27 249.594C808.029 249.116 810.773 248.477 809.238 245.176C807.726 241.927 804.857 242.423 802.153 242.891L798.125 243.589L801.242 250.291ZM848.916 265.961C840.915 267.345 832.571 264.017 828.271 257.464L835.958 253.993C838.281 258.09 841.937 259.542 845.8 258.874C848.614 258.387 850.341 256.716 849.089 254.025C848.334 252.4 846.001 251.487 840.106 250.477C830.468 248.854 826.189 246.577 823.663 241.143C820.923 235.253 824.008 230.22 831.568 228.912C836.92 227.985 842.287 229.525 846.895 233.666L841.635 239.02C839.272 236.631 836.782 235.636 834.574 236.018C832.588 236.362 831.476 237.816 832.255 239.492C833.058 241.218 835.114 242.179 841.553 243.204C851.2 244.717 855.029 246.797 857.367 251.824C860.626 258.831 856.752 264.604 848.916 265.961ZM921.327 214.363L933.687 212.224L950.146 247.616L941.483 249.115L930.36 225.199L932.159 247.273L923.827 248.715L906.404 229.455L917.479 253.27L908.816 254.77L892.357 219.378L904.717 217.238L923.471 238.462L921.327 214.363ZM958.355 246.195L941.896 210.803L950.559 209.304L967.018 244.696L958.355 246.195ZM982.12 203.841L990.783 202.341L1007.24 237.733L998.358 239.271L973.818 220.091L983.901 241.773L975.238 243.273L958.779 207.881L967.608 206.353L992.156 225.421L982.12 203.841ZM1027.51 235.049C1019.51 236.434 1011.16 233.105 1006.86 226.552L1014.55 223.082C1016.87 227.179 1020.53 228.631 1024.39 227.962C1027.2 227.475 1028.93 225.804 1027.68 223.113C1026.92 221.488 1024.59 220.575 1018.7 219.566C1009.06 217.942 1004.78 215.665 1002.25 210.232C999.513 204.341 1002.6 199.309 1010.16 198C1015.51 197.074 1020.88 198.614 1025.49 202.754L1020.22 208.109C1017.86 205.719 1015.37 204.724 1013.16 205.106C1011.18 205.45 1010.07 206.904 1010.84 208.58C1011.65 210.306 1013.7 211.267 1020.14 212.292C1029.79 213.805 1033.62 215.885 1035.96 220.912C1039.22 227.92 1035.34 233.693 1027.51 235.049Z" fill="white"/>
<path d="M602.924 231.141L596.172 232.269L584.429 222.599L582.73 222.883L581.487 223.09L586.437 233.897L580.638 234.866L568.447 208.251L578.223 206.617C585.307 205.433 589.547 207.972 591.716 212.707C593.465 216.525 592.72 219.281 589.913 220.942L602.924 231.141ZM579.214 218.126L582.61 217.558C585.303 217.108 587.082 216.318 585.91 213.759C584.755 211.239 582.592 211.19 579.899 211.64L576.502 212.208L579.214 218.126ZM618.742 218.302C619.004 218.874 619.208 219.416 619.44 220.117L605.728 222.409C606.886 224.353 608.983 225.524 611.924 225.032C613.623 224.748 614.993 223.944 615.63 222.316L620.976 224.834C619.812 227.454 617.555 229.147 614.034 229.736C606.743 230.954 601.64 226.628 599.383 221.702C597.179 216.891 597.653 211.303 604.695 210.126C611.074 209.06 616.223 212.803 618.742 218.302ZM603.885 218.483L612.418 217.057C611.391 215.008 608.95 214.06 606.63 214.448C603.772 214.926 603.434 216.914 603.885 218.483ZM633.6 222.724C638.875 222.459 643.801 222.211 645.795 226.564C647.684 230.688 644.523 233.231 638.972 234.159C632.965 235.163 628.181 233.578 626.449 229.798C626.274 229.416 626.158 229.066 626.101 228.746L628.454 226.873C626.613 226.359 625 225.272 624.073 223.248C623.321 221.606 623.442 220.311 624.105 219.132C622.545 218.159 621.283 216.767 620.531 215.125C618.589 210.887 621.213 207.365 625.853 206.589C627.551 206.305 629.341 206.417 631.041 206.914L633.076 203.861L637.504 206.615L635.553 209.366C636.488 210.238 637.268 211.258 637.81 212.442C639.734 216.643 637.33 219.963 632.525 220.766C631.075 221.009 629.644 221.001 628.275 220.737C628.172 221.001 628.188 221.327 628.328 221.632C628.905 222.892 630.909 222.886 633.6 222.724ZM627.912 210.89C626.006 211.209 625.413 212.541 626.182 214.221C626.917 215.825 628.44 217.009 630.553 216.656C632.583 216.317 632.899 214.866 632.147 213.224C631.36 211.506 629.776 210.579 627.912 210.89ZM637.471 230.299C639.791 229.911 640.954 229.141 640.517 228.186C639.888 226.812 637.267 227.127 634.517 227.257C634.002 227.302 633.512 227.302 632.98 227.309L632.1 228.894C632.094 228.978 632.147 229.092 632.181 229.169C632.776 230.467 634.986 230.714 637.471 230.299ZM638.373 201.619L636.221 196.922L642.021 195.953L644.172 200.649L638.373 201.619ZM648.495 223.523L639.872 204.698L645.506 203.756L654.129 222.581L648.495 223.523ZM666.408 220.981C662.017 221.715 657.555 219.665 655.325 217.037L658.918 214.463C659.958 215.564 661.567 217.227 664.342 216.763C666.372 216.424 666.68 215.345 666.331 214.581C665.001 211.679 655.639 215.094 652.508 208.259C650.707 204.326 653.672 201.939 657.483 201.302C661.128 200.693 664.556 201.846 667.284 204.103L663.991 207.038C662.897 206.111 661.314 204.896 659.16 205.256C657.793 205.484 657.286 206.227 657.618 206.952C658.843 209.625 668.394 206.138 671.595 213.125C673.677 217.669 670.261 220.337 666.408 220.981ZM683.202 201.812L678.065 202.671L682.053 211.377C682.56 212.485 683.565 213.509 685.636 213.163C686.423 213.031 687.223 212.733 688.012 212.313L689.884 216.399C688.792 217.034 687.595 217.439 686.228 217.668C682.583 218.277 678.682 217.161 676.653 212.732L672.473 203.606L669.159 204.16L667.305 200.112L670.619 199.558L669.15 196.351L672.993 191.597L676.211 198.623L681.348 197.765L683.202 201.812ZM696.16 194.837C697.527 194.608 698.928 194.744 700.662 195.317L700.086 200.388C699.289 200.11 698.214 200.002 697.22 200.168C694.61 200.604 693.877 202.412 695.452 205.849L699.632 214.975L693.998 215.917L685.375 197.092L691.05 196.143L692.415 199.121C692.346 196.831 693.923 195.211 696.16 194.837ZM710.749 192.398C716.341 191.463 721.074 193.714 723.137 198.22L728.595 210.134L723.458 210.992L722.047 208.885C721.471 211.037 719.508 212.105 717.436 212.451C713.004 213.192 708.607 211.09 706.911 207.386C705.896 205.172 706.239 203.388 707.701 202.198C708.746 201.366 710.281 200.821 712.352 200.475L717.737 199.575L717.545 199.155C716.758 197.436 714.884 196.558 712.564 196.945C710.741 197.25 709.334 198.266 708.464 200.262L702.97 197.809C704.266 194.797 707.103 193.007 710.749 192.398ZM716.389 208.022C718.999 207.586 720.442 205.577 719.487 203.393L714.888 204.162C713.728 204.356 713.011 204.64 712.672 205.067C712.314 205.455 712.276 205.955 712.538 206.528C713.063 207.674 714.483 208.34 716.389 208.022ZM738.333 192.597L733.196 193.455L737.184 202.161C737.691 203.269 738.696 204.293 740.767 203.947C741.554 203.815 742.354 203.517 743.143 203.098L745.014 207.183C743.923 207.818 742.726 208.224 741.359 208.452C737.714 209.061 733.813 207.946 731.784 203.516L727.604 194.39L724.29 194.944L722.436 190.897L725.75 190.343L724.281 187.135L728.124 182.382L731.342 189.408L736.479 188.549L738.333 192.597ZM739.29 184.75L737.138 180.053L742.938 179.083L745.089 183.78L739.29 184.75ZM749.412 206.654L740.789 187.829L746.423 186.887L755.046 205.712L749.412 206.654ZM769.355 203.772C762.892 204.853 756.882 200.883 754.486 195.652C752.072 190.382 753.843 185.194 760.347 184.107C766.809 183.027 772.785 186.92 775.198 192.189C777.595 197.421 775.776 202.699 769.355 203.772ZM767.273 199.228C770.836 198.633 770.848 195.835 769.606 193.124C768.347 190.375 766.015 188.011 762.411 188.613C758.848 189.209 758.819 191.968 760.078 194.717C761.303 197.39 763.669 199.831 767.273 199.228ZM786.078 179.806C790.759 179.024 794.641 181.17 796.617 185.485L802.267 197.819L796.674 198.753L791.777 188.062C791.147 186.687 789.923 184.014 786.402 184.603C782.176 185.309 783.943 189.166 785.185 191.877L788.928 200.048L783.294 200.99L774.671 182.165L780.305 181.223L781.197 183.171C781.883 181.165 783.758 180.194 786.078 179.806ZM826.589 194.205C820.127 195.285 814.117 191.316 811.72 186.084C809.307 180.815 811.078 175.627 817.581 174.54C824.044 173.46 830.019 177.353 832.433 182.622C834.829 187.853 833.01 193.132 826.589 194.205ZM824.508 189.661C828.07 189.065 828.082 186.268 826.841 183.557C825.581 180.808 823.249 178.443 819.645 179.046C816.083 179.641 816.053 182.4 817.313 185.15C818.537 187.823 820.904 190.263 824.508 189.661ZM842.981 170.294C848.49 169.373 853.432 173.151 855.985 178.726C858.871 185.027 856.711 189.17 851.988 189.959C849.876 190.312 847.313 189.878 845.434 188.794L849.772 198.264L844.138 199.205L831.947 172.591L837.581 171.649L838.315 173.253C839.101 171.559 841.034 170.62 842.981 170.294ZM848.416 185.665C851.357 185.173 851.967 183.098 850.376 179.623C848.784 176.148 846.553 174.589 843.654 175.074C840.174 175.655 839.963 178.116 841.345 181.132C842.709 184.111 845.102 186.219 848.416 185.665ZM877.921 174.977C878.183 175.55 878.387 176.092 878.619 176.793L864.907 179.085C866.065 181.029 868.162 182.199 871.103 181.708C872.802 181.424 874.172 180.619 874.809 178.992L880.155 181.51C878.991 184.13 876.734 185.823 873.213 186.411C865.922 187.63 860.819 183.304 858.562 178.378C856.358 173.566 856.832 167.979 863.874 166.802C870.253 165.735 875.402 169.479 877.921 174.977ZM863.064 175.159L871.597 173.732C870.57 171.684 868.129 170.736 865.809 171.123C862.951 171.601 862.613 173.59 863.064 175.159ZM888.926 162.614C893.607 161.832 897.489 163.978 899.465 168.293L905.115 180.626L899.522 181.561L894.625 170.87C893.995 169.495 892.771 166.822 889.25 167.411C885.024 168.117 886.791 171.974 888.033 174.685L891.776 182.856L886.142 183.798L877.519 164.973L883.153 164.031L884.045 165.979C884.731 163.973 886.606 163.002 888.926 162.614ZM916.959 179.099C912.568 179.833 908.106 177.783 905.877 175.155L909.47 172.581C910.509 173.682 912.118 175.345 914.894 174.881C916.924 174.542 917.232 173.462 916.882 172.699C915.553 169.797 906.191 173.212 903.06 166.376C901.258 162.443 904.223 160.057 908.035 159.42C911.68 158.81 915.107 159.964 917.836 162.221L914.542 165.156C913.448 164.229 911.866 163.013 909.712 163.374C908.345 163.602 907.838 164.345 908.17 165.07C909.394 167.743 918.946 164.255 922.147 171.243C924.228 175.787 920.812 178.455 916.959 179.099ZM929.249 152.996L927.097 148.299L932.897 147.33L935.048 152.027L929.249 152.996ZM939.371 174.9L930.748 156.075L936.382 155.133L945.005 173.958L939.371 174.9ZM953.372 151.841C958.053 151.059 961.935 153.205 963.911 157.52L969.561 169.854L963.968 170.789L959.071 160.097C958.441 158.722 957.217 156.049 953.696 156.638C949.47 157.344 951.237 161.201 952.479 163.912L956.222 172.083L950.588 173.025L941.965 154.2L947.599 153.258L948.491 155.206C949.178 153.2 951.052 152.229 953.372 151.841ZM969.823 156.08L967.427 150.848L973.392 149.851L975.788 155.082L969.823 156.08ZM975.665 168.833L973.286 163.64L979.252 162.643L981.63 167.836L975.665 168.833Z" fill="white"/>
<path d="M846.953 460.728C848.86 460.344 850.48 461.171 851.348 462.912L853.829 467.889L851.551 468.348L849.399 464.033C849.123 463.479 848.585 462.4 847.15 462.689C845.429 463.036 846.204 464.592 846.75 465.686L848.394 468.983L846.099 469.445L842.311 461.849L844.606 461.387L844.998 462.173C845.252 461.341 846.007 460.918 846.953 460.728ZM857.346 467.181L850.959 460.108L853.39 459.619L856.896 463.745L856.091 459.075L858.032 458.684L861.59 462.767L860.732 458.141L863.18 457.648L864.351 465.771L862.326 466.179L858.545 461.837L859.406 466.767L857.346 467.181ZM868.4 464.956L863.045 454.216L865.425 453.737L867.522 457.944L872.384 456.965L870.286 452.759L872.666 452.28L878.021 463.02L875.641 463.499L873.375 458.953L868.514 459.932L870.78 464.477L868.4 464.956ZM879.966 454.083C882.245 453.624 884.214 454.482 885.121 456.301L887.518 461.108L885.425 461.53L884.818 460.685C884.611 461.575 883.821 462.039 882.977 462.209C881.171 462.572 879.342 461.771 878.596 460.276C878.151 459.382 878.267 458.647 878.85 458.139C879.267 457.784 879.888 457.54 880.732 457.371L882.927 456.929L882.842 456.759C882.496 456.066 881.717 455.731 880.771 455.922C880.029 456.071 879.466 456.506 879.136 457.336L876.852 456.405C877.342 455.154 878.481 454.382 879.966 454.083ZM882.488 460.408C883.552 460.194 884.116 459.351 883.695 458.47L881.821 458.847C881.349 458.942 881.059 459.068 880.925 459.248C880.784 459.412 880.775 459.617 880.89 459.848C881.121 460.31 881.712 460.564 882.488 460.408ZM893.012 460.189C890.193 460.756 887.91 459.046 886.926 457.073C885.927 455.07 886.253 452.817 889.038 452.257C890.743 451.914 892.428 452.388 893.821 453.803L892.052 455.024C891.507 454.303 890.687 453.926 889.945 454.075C888.645 454.337 888.727 455.507 889.272 456.601C889.81 457.68 890.764 458.624 892.064 458.362C892.806 458.213 893.167 457.631 892.983 456.854L895.412 457.18C895.561 458.709 894.7 459.849 893.012 460.189ZM897.946 459.009L892.591 448.269L894.886 447.807L897.844 453.74L899.171 450.404L902.226 449.789L900.599 453.304L906.335 457.321L903.617 457.868L899.655 454.986L899.135 456.328L900.241 458.547L897.946 459.009ZM910.08 456.753C908.291 457.113 906.435 456.334 905.486 455.287L906.923 454.184C907.364 454.621 908.046 455.281 909.177 455.053C910.004 454.887 910.116 454.44 909.962 454.132C909.378 452.961 905.588 454.487 904.213 451.729C903.422 450.142 904.604 449.124 906.157 448.811C907.643 448.512 909.062 448.938 910.211 449.826L908.901 451.073C908.44 450.708 907.776 450.232 906.898 450.408C906.341 450.52 906.143 450.831 906.289 451.124C906.827 452.203 910.693 450.645 912.099 453.464C913.014 455.298 911.65 456.437 910.08 456.753ZM921.784 452.041L926.325 451.127L927.308 453.099L919.037 454.764L918.192 453.069C919.551 451.659 922.098 448.722 920.9 446.318C920.47 445.455 919.683 444.884 918.62 445.099C917.236 445.377 917.416 446.596 917.85 447.576L915.528 447.874C914.567 445.948 914.98 443.61 917.664 443.07C919.842 442.632 922.095 443.687 923.125 445.752C924.17 447.847 923.402 450.443 921.784 452.041ZM933.408 452.041C929.611 452.805 927.555 449.54 926.449 447.321C925.365 445.148 924.053 441.733 927.817 440.975C931.429 440.248 933.569 443.31 934.744 445.668C935.943 448.072 936.953 451.327 933.408 452.041ZM932.376 450.044C934.013 449.715 933.24 447.904 932.372 446.162C931.465 444.344 930.487 442.642 928.816 442.978C927.161 443.311 927.911 445.076 928.818 446.895C929.686 448.636 930.688 450.384 932.376 450.044ZM942.068 447.958L946.609 447.044L947.592 449.016L939.321 450.681L938.476 448.986C939.835 447.576 942.382 444.639 941.184 442.235C940.753 441.372 939.967 440.802 938.904 441.016C937.52 441.294 937.7 442.513 938.133 443.494L935.812 443.791C934.851 441.865 935.264 439.527 937.948 438.987C940.125 438.549 942.379 439.604 943.409 441.669C944.453 443.764 943.686 446.36 942.068 447.958ZM950.09 440.324C952.504 439.838 955.011 441.215 955.987 443.172C957.009 445.222 956.147 447.481 953.582 447.997C951.286 448.459 948.776 447.337 947.592 445.557L949.668 444.766C950.129 445.504 951.199 446.272 952.549 446.001C953.967 445.715 954.017 444.586 953.556 443.662C953.118 442.783 952.172 442.041 950.754 442.327C949.792 442.52 949.434 443.067 949.359 443.625L946.994 443.575L945.306 437.658L951.991 436.313L952.982 438.301L948.171 439.269L948.656 440.986C949.091 440.593 949.634 440.416 950.09 440.324Z" fill="#564D4A"/>
<path d="M1135 414C1133.8 409.6 1130.83 400.167 1129.5 398L1143 403.5L1135 414Z" fill="#564D4A"/>
<path d="M1102.34 366.843L630.851 459.335C626.1 460.267 621.364 457.662 619.607 453.151L584.403 362.751C582.121 356.891 585.751 350.403 591.939 349.282L1062.32 264.08C1066.88 263.254 1071.41 265.67 1073.27 269.917L1109.58 353.027C1112.14 358.888 1108.61 365.612 1102.34 366.843Z" fill="#D3CDCC" stroke="#564D4A" stroke-width="8"/>
<path d="M1105.81 359.34L1096.31 355.84L622.807 450.34C624.407 454.74 626.807 456.007 628.807 455.84C784.307 425.34 1099.01 363.64 1101.81 362.84C1105.31 361.84 1104.81 360.84 1105.81 359.34Z" fill="#AEAAA9"/>
<path d="M587.307 357.84C587.307 358.84 588.307 362.34 588.307 362.34L1069.9 272.646C1068.81 266.84 1063.97 267.398 1061.96 267.537C906.064 295.921 593.562 352.88 590.751 353.642C587.94 354.403 587.307 356.84 587.307 357.84Z" fill="#AEAAA9"/>
<path d="M1106.81 355.84L1068.81 269.84C1068.46 269.04 1066.66 268.007 1065.81 267.84L1061.81 273.84L1096.31 355.84L1105.81 359.34C1106.31 358.84 1107.14 356.673 1106.81 355.84Z" fill="#8B8381"/>
<g opacity="0.3">
<path opacity="0.7" d="M745.434 432L657.434 449.5L799.934 314.5L872.434 302L745.434 432Z" fill="#DDD9D8"/>
<path opacity="0.7" d="M768.434 427.5L754.934 430.5L883.434 300L894.934 297.5L768.434 427.5Z" fill="#DDD9D8"/>
</g>
<path opacity="0.4" d="M1473.54 805.726L1091 700.86L1269.66 690L1625.93 753.53C1625.93 753.53 1608.41 791.942 1567.78 805.726C1527.14 819.511 1473.54 805.726 1473.54 805.726Z" fill="#031119"/>
<path d="M1093.87 703.548C1085.96 701.288 1090.57 695.071 1093.87 692.245C1085.39 676.702 1103.76 661.16 1113.65 654.095C1121.56 648.444 1125.42 633.843 1126.37 627.249L1132.02 528.344C1125.24 523.822 1122.6 515.156 1122.13 511.388C1110.82 502.345 1116.48 497.259 1120.71 495.846L1120.71 469L1139.08 469L1139.08 487.368C1144.73 489.629 1152.74 488.31 1156.04 487.368L1156.04 469L1177.23 469L1177.23 487.368C1182.88 489.629 1189.01 488.31 1191.36 487.368L1191.36 469L1205.49 469L1205.49 495.846C1214.53 500.367 1206.43 508.091 1201.25 511.388C1200.12 519.301 1194.19 525.989 1191.36 528.344C1191.36 533.995 1194.19 604.642 1197.01 627.249C1199.27 645.335 1203.61 652.682 1205.49 654.095C1230.36 669.92 1229.98 686.122 1226.68 692.245C1235.73 697.896 1230.45 702.135 1226.68 703.548C1204.08 707.787 1103.76 706.374 1093.87 703.548Z" fill="#FEE9C1"/>
<path d="M1098.37 703.548C1090.24 702.268 1095.07 695.071 1098.37 692.245C1089.89 676.702 1108.26 661.16 1118.15 654.095C1126.06 648.444 1129.92 633.843 1130.87 627.249L1136.52 528.344C1129.74 523.822 1127.1 515.156 1126.63 511.388C1115.32 502.345 1120.98 497.259 1125.21 495.846L1125.21 469L1143.58 469L1143.58 487.368C1149.23 489.629 1157.24 488.31 1160.54 487.368L1160.54 469L1181.73 469L1181.73 487.368C1187.38 489.629 1193.51 488.31 1195.86 487.368L1195.86 469L1209.99 469L1209.99 495.846C1219.03 500.367 1210.93 508.091 1205.75 511.388C1204.62 519.301 1198.69 525.989 1195.86 528.344C1195.86 533.995 1198.69 604.642 1201.51 627.249C1203.77 645.335 1208.11 652.682 1209.99 654.095C1234.86 669.92 1234.48 686.122 1231.19 692.245C1240.23 697.896 1234.95 702.135 1231.19 703.548C1208.58 707.787 1126.63 708 1098.37 703.548Z" fill="#809CAA"/>
<path d="M1093 692C1108.56 695.338 1174.99 701.348 1232 692" stroke="#436577" stroke-width="6"/>
<path d="M1165.5 707C1155.77 707 1190.2 695.071 1193.5 692.245C1200.1 686.59 1201.51 678.706 1191.68 666.565C1185.56 659.009 1182.35 633.843 1183.29 627.249L1180.37 528.344C1190.3 522.806 1190.77 513.329 1190.3 509.562C1191.04 509.01 1191.68 508.4 1192.23 507.751C1195.8 503.532 1195.38 497.689 1192.23 495.846L1192.23 488.315L1195.86 487.368L1195.86 469L1209.99 469L1209.99 495.846C1219.03 500.367 1210.93 508.091 1205.75 511.388C1204.62 519.301 1198.69 525.989 1195.86 528.344C1195.86 533.995 1198.69 604.642 1201.51 627.249C1203.77 645.335 1208.11 652.682 1209.99 654.095C1234.86 669.92 1234.48 686.122 1231.18 692.245C1240.23 697.896 1234.95 702.135 1231.18 703.548C1208.58 707.787 1175.79 707 1165.5 707Z" fill="#436577"/>
<path d="M1209.5 496C1186.7 501.2 1143.67 498.167 1125 496H1120.5C1109.7 499.2 1117.33 507.333 1122.5 511C1157.7 518.6 1192.5 514.167 1205.5 511C1218.7 501.8 1213.67 497.167 1209.5 496Z" fill="#436577"/>
<path d="M1159.07 498.606C1159.19 500.106 1122.45 500.887 1121.54 495.322C1120.63 489.757 1122.79 492.511 1123.94 492.788C1125.08 493.064 1132.97 495.477 1136.93 496.071C1149.35 497.93 1158.95 497.105 1159.07 498.606Z" fill="#FDEAC4"/>
<path opacity="0.4" d="M1643.56 937.136L1220 821.024L1417.82 809L1812.29 879.342C1812.29 879.342 1792.9 921.873 1747.9 937.136C1702.91 952.399 1643.56 937.136 1643.56 937.136Z" fill="#031119"/>
<path d="M1219.5 815.749C1219.35 811.281 1224.28 809.997 1226.76 809.913C1218.63 789.687 1233.02 774.293 1251.44 768.082C1251.38 766.22 1256.65 756.725 1263.97 752.751C1276.78 745.796 1274.32 737.493 1274.45 731.898L1273.39 700.252C1272.88 685.36 1265.31 681.887 1261.46 678.29C1257.62 674.692 1242.6 671.471 1249.86 665.636C1255.66 660.968 1265.8 659.508 1270.14 659.361L1269.89 651.915C1266.17 652.041 1245 632.253 1257.22 607.615C1267.69 586.496 1307.85 583.547 1320.51 605.483C1333.18 627.42 1318.11 644.7 1308.99 650.598L1309.24 658.045C1312.96 657.919 1324.19 659.405 1329.9 662.939C1334.47 665.767 1331.97 669.082 1330.15 670.386C1311.04 678.484 1306.68 692.918 1306.89 699.124L1307.96 730.769C1308.4 743.8 1315.97 747.272 1323.6 752.606C1329.71 756.873 1332.65 762.862 1333.35 765.323C1361.71 777.413 1366 794.041 1358.99 807.323C1366.44 807.072 1367.18 810.775 1366.63 812.657C1364.39 820.187 1354.45 819.901 1350.12 820.667C1316.8 827.381 1240.36 826.228 1232.85 824.618C1225.56 823.055 1219.69 821.333 1219.5 815.749Z" fill="#FDEAC4"/>
<path d="M1223.58 815.97C1223.43 811.502 1228.35 810.218 1230.84 810.134C1222.7 789.908 1237.09 774.514 1255.52 768.303C1255.45 766.441 1260.73 756.945 1268.05 752.971C1280.86 746.017 1278.4 737.714 1278.53 732.119L1277.46 700.473C1276.96 685.581 1269.39 682.108 1265.54 678.51C1261.69 674.913 1246.67 671.691 1253.93 665.856C1259.74 661.188 1269.88 659.728 1274.22 659.582L1273.97 652.136C1270.25 652.261 1249.08 632.474 1261.29 607.835C1271.77 586.717 1311.92 583.767 1324.59 605.704C1337.25 627.641 1322.18 644.921 1313.06 650.819L1313.31 658.265C1317.03 658.14 1328.27 659.625 1333.98 663.16C1338.54 665.988 1336.05 669.303 1334.23 670.606C1315.12 678.704 1310.76 693.139 1310.97 699.344L1312.03 730.99C1312.47 744.021 1320.04 747.493 1327.68 752.827C1333.79 757.094 1336.72 763.083 1337.42 765.544C1365.79 777.634 1370.07 794.262 1363.07 807.544C1370.51 807.293 1371.26 810.995 1370.7 812.878C1368.47 820.407 1358.52 820.121 1354.2 820.888C1320.88 827.601 1244.43 826.449 1236.92 824.838C1229.64 823.276 1223.77 821.554 1223.58 815.97Z" fill="#A8C0CC"/>
<mask id="mask2_7203_643" style="mask-type:alpha" maskUnits="userSpaceOnUse" x="1223" y="590" width="148" height="237">
<path d="M1223.58 815.97C1223.43 811.502 1228.35 810.218 1230.84 810.134C1222.7 789.908 1237.09 774.514 1255.52 768.303C1255.45 766.441 1260.73 756.945 1268.05 752.971C1280.86 746.017 1278.4 737.714 1278.53 732.119L1277.46 700.473C1276.96 685.581 1269.39 682.108 1265.54 678.51C1261.69 674.913 1246.67 671.691 1253.93 665.856C1259.74 661.188 1269.88 659.728 1274.22 659.582L1273.97 652.136C1270.25 652.261 1249.08 632.474 1261.29 607.835C1271.77 586.717 1311.92 583.767 1324.59 605.704C1337.25 627.641 1322.18 644.921 1313.06 650.819L1313.31 658.265C1317.03 658.14 1328.27 659.625 1333.98 663.16C1338.54 665.988 1336.05 669.303 1334.23 670.606C1315.12 678.704 1310.76 693.139 1310.97 699.344L1312.03 730.99C1312.47 744.021 1320.04 747.493 1327.68 752.827C1333.79 757.094 1336.72 763.083 1337.42 765.544C1365.79 777.634 1370.07 794.262 1363.07 807.544C1370.51 807.293 1371.26 810.995 1370.7 812.878C1368.47 820.407 1358.52 820.121 1354.2 820.888C1320.88 827.601 1244.43 826.449 1236.92 824.838C1229.64 823.276 1223.77 821.554 1223.58 815.97Z" fill="#809CAA"/>
</mask>
<g mask="url(#mask2_7203_643)">
<path d="M1334 812.898C1333.44 812.917 1333.54 812.884 1334.04 812.872C1341.85 807.945 1349.41 783.236 1319.46 768.261C1319.4 766.399 1301.27 756.966 1308.59 752.992C1321.4 746.038 1305.97 737.735 1306.1 732.139L1305.03 700.493C1304.53 685.602 1304.46 682.711 1304.46 678.251C1304.46 672.983 1306.1 672.574 1306.1 666.898C1306.1 659.448 1298.26 659.749 1302.6 659.602L1302.35 652.156C1308.11 646.22 1315 634.057 1315 622.704C1315 605.319 1304.46 594.931 1299.19 592.295C1293.37 589.386 1310.97 586.619 1324.59 605.724C1339.29 626.351 1322.18 644.942 1313.06 650.84L1313.31 658.286C1317.03 658.16 1328.27 659.646 1333.98 663.181C1338.54 666.009 1336.05 669.323 1334.23 670.627C1315.12 678.725 1310.76 693.16 1310.97 699.365L1312.03 731.011C1312.47 744.041 1320.04 747.514 1327.68 752.847C1333.79 757.114 1336.72 763.103 1337.42 765.565C1365.79 777.654 1370.07 794.283 1363.07 807.564C1370.51 807.314 1371.26 811.016 1370.7 812.898C1368.47 820.428 1358.52 820.142 1354.2 820.909C1320.88 827.622 1303.99 826.646 1296.35 825.835C1286.45 824.785 1342.36 822.094 1342.17 816.51C1342.05 813.055 1335.75 812.834 1334.04 812.872C1334.03 812.881 1334.01 812.89 1334 812.898Z" fill="#436577"/>
<path d="M1313.5 658.5C1301.9 660.1 1279.83 660.167 1270.5 659.5L1270 652C1286.4 655.2 1305.67 652.167 1313.5 650.5V658.5Z" fill="#436577"/>
<path d="M1227.5 809C1243 814 1306.7 821.5 1363.5 807.5" stroke="#436577" stroke-width="4"/>
</g>
<g opacity="0.45">
<path d="M960.5 680L1124.32 721C1124.32 721 1146.59 743.245 1124.32 750.8C1102.04 758.355 1072.67 754.64 1072.67 754.64C1030.5 767.5 1011 763.64 1005.5 754.64C1002.61 749.907 1009.67 746.678 1017.02 744.68C985.041 744.225 919.153 715.133 863 692.172L960.5 680Z" fill="#031119"/>
</g>
<g filter="url(#filter3_i_7203_643)">
<path d="M855.573 650.883C855.573 653.972 857.657 654.951 860.534 654.951C863.411 654.951 865.743 653.464 865.743 650.375C865.743 647.285 863.411 644.781 860.534 644.781C857.657 644.781 855.573 647.794 855.573 650.883Z" fill="#876F5E"/>
<path d="M963.102 612.626C962.124 608.388 942.288 599.854 932.002 593.999L933.835 617.977L940.862 623.554C947.95 630.022 953.388 630.338 955.222 629.688C958.582 627.178 964.079 616.864 963.102 612.626Z" fill="#816C5D"/>
<path d="M960.097 688.245C960.097 681.259 948.829 663.837 943.196 655.999C932.464 655.999 911.002 660.097 911.002 676.489C911.002 692.881 920.124 700.338 924.684 702.017C936.489 700.338 960.097 695.232 960.097 688.245Z" fill="#876F5E"/>
<path d="M927.784 669.495C958.346 647.173 935.061 602.302 919.598 582.657L876.96 580.379C855.403 633.45 858.541 659.53 870.479 663.516C864.75 669.495 859.061 682.335 860.502 688.5C863.881 702.957 894.502 699.5 905.496 700.751C908.168 701.055 902.54 683.668 905.496 677.5C911.226 673.4 926.306 670.444 927.784 669.495Z" fill="#9F8A7B"/>
<path d="M929.833 668.187C963.745 657.291 932.092 599.814 924.645 600.262C918.647 600.567 914.273 608.466 913.002 612.249C906.661 636.18 906.273 675.757 929.833 668.187Z" fill="#C2A28A"/>
<path d="M905.456 701.499C898.19 704.696 878.692 699.807 867.002 695.999C859.544 694.133 858.502 691.499 861.1 679.211C861.037 678.07 861.005 676.86 861.003 675.578C860.991 669.118 861.612 660.672 863.037 649.999L945.003 644.999C947.015 652.973 946.927 654.94 947.003 662.999C947.014 664.246 955.002 675.578 955.002 675.578C961.855 682.272 960.995 690.281 959.235 691.499C950.225 699.347 926.91 704.092 922.503 701.499C915.003 697.087 909.235 691.499 909.037 683.861C909.093 682.772 909.16 681.612 909.235 680.374H905.456C905.529 681.624 905.586 682.783 905.624 683.861C905.9 691.679 907.82 698.065 905.456 701.499Z" fill="#A8C0CC"/>
<path d="M905.456 680.374C889.988 675.785 882.081 672.117 861.003 675.578M905.456 680.374H909.235M905.456 680.374C905.529 681.624 905.586 682.783 905.624 683.861M861.003 675.578C860.991 669.118 861.612 660.672 863.037 649.999L945.003 644.999C947.015 652.973 946.927 654.94 947.003 662.999M861.003 675.578C861.005 676.86 861.037 678.07 861.1 679.211M909.235 680.374C925.021 673.474 928.222 659.626 947.003 662.999M909.235 680.374C909.16 681.612 909.093 682.772 909.037 683.861M947.003 662.999C947.014 664.246 955.002 675.578 955.002 675.578M861.1 679.211C858.502 691.499 859.544 694.133 867.002 695.999C878.692 699.807 898.19 704.696 905.456 701.499C907.82 698.065 905.9 691.679 905.624 683.861M861.1 679.211C878.504 679.485 888.249 680.623 905.624 683.861M909.037 683.861C909.235 691.499 915.003 697.087 922.503 701.499C926.91 704.092 950.225 699.347 959.235 691.499C960.995 690.281 961.855 682.272 955.002 675.578M909.037 683.861C925.603 680.068 936.865 675.242 955.002 675.578" stroke="#809CAA" stroke-width="1.16266"/>
<path d="M868.902 591.845C893.482 599.558 907.127 600.51 930.232 590.683C934.302 588.357 941.132 592.147 944.765 599.268L937.507 605.227C940.446 612.532 941.973 617.682 943.893 625.853C944.613 628.835 944.966 630.484 945.492 633.411C945.492 633.411 913.869 639.5 887.869 638C861.869 636.5 858.002 633.411 858.002 633.411C858.282 630.462 858.547 628.807 859.165 625.853C860.472 618.075 861.498 613.031 863.349 606.233C863.792 604.61 864.281 602.886 864.833 601.001L868.902 591.845Z" fill="#A8C0CC"/>
<path d="M930.232 590.683C907.127 600.51 893.482 599.558 868.902 591.845L864.833 601.001M930.232 590.683L935.755 601.001M930.232 590.683C934.302 588.357 941.132 592.147 944.765 599.268L937.507 605.227M935.755 601.001C930.232 609.5 925.369 612.432 919.869 612.432M935.755 601.001C936.393 602.502 936.973 603.9 937.507 605.227M864.833 601.001C878.227 609.038 908.249 612.731 919.869 612.432M864.833 601.001C864.281 602.886 863.792 604.61 863.349 606.233C861.498 613.031 860.472 618.075 859.165 625.853M859.165 625.853C883.505 633.543 896.761 633.027 919.869 625.853M859.165 625.853C858.547 628.807 858.282 630.462 858.002 633.411C858.002 633.411 861.869 636.5 887.869 638C913.869 639.5 945.492 633.411 945.492 633.411C944.966 630.484 944.613 628.835 943.893 625.853M919.869 625.853V612.432M919.869 625.853H943.893M943.893 625.853C941.973 617.682 940.446 612.532 937.507 605.227" stroke="#809CAA" stroke-width="1.16266"/>
<path d="M868.311 647.96C871.001 646.996 890.896 619.748 892.046 613.117C893.196 606.486 880.046 604.617 873.046 604.617C866.046 604.617 849.854 630.54 849.854 637.211C851.411 639.89 865.622 648.923 868.311 647.96Z" fill="#9F826A"/>
<ellipse cx="11.1705" cy="11.3463" rx="11.1705" ry="11.3463" transform="matrix(-0.293054 0.956096 0.970941 0.239319 887.569 508)" fill="#876F5E"/>
<path d="M860.658 555.543C857.261 583.67 874.896 595.146 897.015 595.146C929.255 595.146 942.766 585.5 941.419 557.893C939.943 527.624 924.864 519.856 901.247 517.661C876.018 517.661 863.129 535.082 860.658 555.543Z" fill="#B7957B"/>
<ellipse cx="2.4796" cy="2.66242" rx="2.4796" ry="2.66242" transform="matrix(-0.99802 0.0629045 0.0853966 0.996347 915.601 548.17)" fill="#3F3D3B"/>
<mask id="mask3_7203_643" style="mask-type:alpha" maskUnits="userSpaceOnUse" x="860" y="517" width="82" height="79">
<path d="M860.9 555.528C857.503 583.655 875.137 595.13 897.256 595.13C929.497 595.13 943.007 585.484 941.661 557.877C940.184 527.609 925.106 519.841 901.489 517.646C876.26 517.646 863.371 535.067 860.9 555.528Z" fill="#CCBEB3"/>
</mask>
<g mask="url(#mask3_7203_643)">
<ellipse cx="2.4796" cy="2.66242" rx="2.4796" ry="2.66242" transform="matrix(-0.99802 0.0629045 0.0853966 0.996347 942.493 544.102)" fill="#3F3D3B"/>
</g>
<path d="M917.026 565.05C915.091 574.415 916.022 581.725 927.363 583.495C937.788 584.202 946.968 576.882 947.867 567.144C948.766 557.406 942.096 548.509 931.301 549.526C924.554 550.161 920.299 552.777 917.026 565.05Z" fill="#C9B19F"/>
<path d="M940.527 566.73C938.376 568.002 938.107 568.256 936.225 568.764" stroke="#3F3D3B" stroke-width="1.01697" stroke-linecap="round"/>
<path d="M941.321 566.985C942.679 567.747 942.948 568.002 944.023 568.256" stroke="#3F3D3B" stroke-width="1.01697" stroke-linecap="round"/>
<path d="M941.304 566.817C941.263 567.092 941.004 567.276 940.724 567.229C940.445 567.181 940.251 566.92 940.292 566.645L941.304 566.817ZM940.16 556.747C940.919 558.384 941.368 559.833 941.543 561.42C941.718 563.001 941.617 564.695 941.304 566.817L940.292 566.645C940.599 564.562 940.688 562.963 940.527 561.502C940.366 560.047 939.955 558.706 939.233 557.146L940.16 556.747Z" fill="#3F3D3B"/>
<path d="M935.418 556.56C935.418 558.104 937.344 559.865 939.721 559.865C942.097 559.865 944.023 558.104 944.023 556.56C944.023 555.015 942.097 554.271 939.721 554.271C937.344 554.271 935.418 555.015 935.418 556.56Z" fill="#3F3D3B"/>
<ellipse cx="11.1705" cy="11.3463" rx="11.1705" ry="11.3463" transform="matrix(-0.293054 0.956096 0.970941 0.239319 876.274 510.034)" fill="#B7957B"/>
<path d="M881.673 530.032C883.59 525.45 888.674 523.908 890.976 523.71C891.118 520.395 885.175 514.107 879.26 519.099C874.081 523.47 879.41 528.708 881.673 530.032Z" fill="#3F3D3B"/>
<path d="M896.031 621H844.002V663.001C844.367 670.221 851.234 673.84 870.017 679.86C889.134 674.591 894.494 670.845 896.031 663.001V621Z" fill="#434343"/>
<path d="M850.002 626.5H868.002V671L850.002 662V626.5Z" fill="#595454"/>
<g filter="url(#filter4_i_7203_643)">
<path d="M861.89 488.006C883.393 476.633 904.627 491.244 898.754 505.014L889.878 505.187C888.958 504.134 888.014 504.123 886.72 504.748C882.854 506.614 879.532 514.345 875.061 523.45C870.553 534.285 865.868 542.901 853.264 544.161C834.418 546.044 828.023 539.803 823.821 521.545C822.937 517.704 838.342 530.058 842.483 523.339C839.125 521.883 836.452 519.714 836.452 514.936C836.452 510.832 838.772 508.161 842.206 508.291C841.518 513.226 846.394 516.061 848.048 510.832C852.585 496.486 853.204 492.601 861.89 488.006Z" fill="#DCB551"/>
</g>
<path d="M899.276 494.023V498.115H908.287V494.023C905.809 491.067 901.979 490.84 899.276 494.023Z" fill="#969593"/>
<path d="M865.995 529.943C868.321 485.325 935.61 484.889 938.371 529.943H865.995Z" fill="#B5CBD7"/>
<path d="M879.502 514.5C883.114 508 887.502 507.5 890.502 504.5C893.502 501.5 884.502 504 880.502 509C876.502 514 875.89 521 879.502 514.5Z" fill="#F0E9E9"/>
<path d="M866.002 530L861.002 546.5C879.346 545.632 931.428 529.78 940.002 538.5L937.585 514C909.116 525.321 893.419 528.916 866.002 530Z" fill="#A8C0CC"/>
<path d="M920.002 520.5L916.002 537C918.002 536.5 936.002 534 940.002 538.5L937.585 514C930.502 517 920.002 520.5 920.002 520.5Z" fill="#809CAA"/>
<path d="M890.302 530.109L874.746 533.822C874.746 533.822 872.939 533.252 874.07 531.295C874.269 524.171 884.929 520.715 889.232 527.236L890.302 530.109Z" fill="#B0ACA5"/>
</g>
<path d="M154.907 566.65C154.718 562.405 159.391 561.344 161.752 561.344C153.806 541.891 167.339 527.743 184.805 522.438C184.726 520.67 189.644 511.828 196.568 508.291C208.684 502.101 206.258 494.144 206.324 488.838L204.988 458.775C204.359 444.627 197.121 441.09 193.424 437.553C189.726 434.016 175.407 430.479 182.252 425.174C187.728 420.93 197.358 419.869 201.489 419.869L201.174 412.795C197.634 412.795 177.297 393.342 188.667 370.353C198.412 350.647 236.581 349.132 248.853 370.353C261.126 391.574 246.963 407.49 238.348 412.795L238.663 419.869C242.203 419.869 252.903 421.637 258.37 425.174C262.745 428.004 260.403 431.069 258.685 432.248C240.589 439.322 236.589 452.88 236.851 458.775L238.188 488.838C238.738 501.217 245.976 504.754 253.292 510.059C259.145 514.304 261.998 520.081 262.693 522.438C289.796 534.817 294.044 550.733 287.513 563.113C294.594 563.113 295.341 566.65 294.83 568.418C292.784 575.492 283.317 574.902 279.213 575.492C247.585 580.797 174.85 577.26 167.691 575.492C160.745 573.776 155.142 571.955 154.907 566.65Z" fill="#F9DFAC"/>
<path d="M166.088 578.965C171.362 580.207 168.054 580.989 172.276 581.166C183.781 586.327 204.278 586.493 242.533 589.371C244.731 589.888 265.216 592.873 282.276 594.438C312.13 597.177 318.312 599.35 325.443 600.924L362.797 609.72C380.375 613.859 372.105 614.364 370.167 615.134C368.229 615.904 347.293 615.878 366.55 617.96C381.955 619.626 400.583 620.661 407.971 620.971L416.76 623.04C410.428 622.775 399.768 627.009 450.497 634.663C493.979 641.223 564.254 644.53 558.152 639.169C552.049 633.809 505.676 628.039 483.253 625.824L474.464 623.754C480.796 624.019 497.597 624.297 502.701 623.66C506.785 623.15 498.543 622.068 493.912 621.59C452.193 618.142 427.115 613.831 419.791 612.106L382.437 603.31C367.056 599.688 375.327 599.184 381.4 598.162C386.259 597.344 383.725 595.848 381.851 595.203C413.965 593.569 400.522 589.178 372.475 585.026C385.14 585.556 381.801 584.565 378.549 584.004C365.538 581.757 268.037 571.147 259.917 570.665C196.331 566.727 176.308 572.343 165.84 572.33C155.685 572.317 159.497 577.413 166.088 578.965Z" fill="#172E3B"/>
<path d="M158.136 566.575C157.947 562.331 162.62 561.27 164.981 561.27C157.035 541.817 170.568 527.669 188.034 522.364C187.955 520.595 192.873 511.753 199.797 508.216C211.913 502.027 209.487 494.069 209.553 488.764L208.217 458.7C207.588 444.553 200.35 441.016 196.653 437.479C192.955 433.942 178.636 430.405 185.481 425.1C190.957 420.856 200.273 420.5 204.403 420.5L204.403 412.721C200.863 412.721 180.526 393.268 191.896 370.278C201.641 350.573 239.81 349.058 252.082 370.278C264.355 391.499 250.192 407.416 241.577 412.721L241.892 419.795C245.432 419.795 256.132 421.563 261.599 425.1C265.974 427.929 263.632 430.995 261.914 432.174C243.818 439.248 239.818 452.806 240.08 458.7L241.417 488.764C241.967 501.143 249.205 504.68 256.521 509.985C262.374 514.229 265.227 520.006 265.922 522.364C293.025 534.743 297.273 550.659 290.742 563.038C297.823 563.038 298.57 566.575 298.059 568.344C296.013 575.417 286.546 574.828 282.442 575.417C250.814 580.723 178.079 577.186 170.92 575.417C163.974 573.702 158.371 571.881 158.136 566.575Z" fill="#A8C0CC"/>
<mask id="mask4_7203_643" style="mask-type:alpha" maskUnits="userSpaceOnUse" x="158" y="354" width="141" height="225">
<path d="M158.136 566.575C157.947 562.331 162.62 561.27 164.98 561.27C157.035 541.817 170.568 527.669 188.034 522.364C187.955 520.595 192.873 511.753 199.796 508.216C211.913 502.027 209.487 494.069 209.553 488.764L208.217 458.7C207.588 444.553 200.35 441.016 196.653 437.479C192.955 433.942 178.636 430.405 185.481 425.1C190.957 420.856 200.273 420.5 204.403 420.5L204.403 412.721C200.863 412.721 180.526 393.268 191.896 370.278C201.641 350.573 239.81 349.058 252.082 370.278C264.355 391.499 250.192 407.416 241.577 412.721L241.891 419.795C245.432 419.795 256.132 421.563 261.599 425.1C265.974 427.929 263.631 430.995 261.914 432.174C243.818 439.248 239.818 452.806 240.08 458.7L241.416 488.764C241.967 501.143 249.205 504.68 256.521 509.985C262.374 514.229 265.227 520.006 265.922 522.364C293.025 534.743 297.273 550.659 290.742 563.038C297.823 563.038 298.57 566.575 298.059 568.344C296.013 575.417 286.546 574.828 282.442 575.417C250.814 580.723 178.079 577.186 170.92 575.417C163.974 573.702 158.371 571.881 158.136 566.575Z" fill="#D3E3EB"/>
</mask>
<g mask="url(#mask4_7203_643)">
<path d="M270.954 570.879C270.766 566.635 259.553 563.059 261.914 563.059C269.307 558.692 277.558 539.564 248.864 524.369C248.785 522.601 231.443 513.07 238.366 509.533C250.482 503.343 235.715 494.971 235.78 489.666L234.444 459.602C233.816 445.455 233.722 442.71 233.677 438.477C233.623 433.478 235.174 433.143 235.116 427.757C235.04 420.687 227.586 420.722 231.716 420.722L231.402 413.648C236.822 408.199 243.255 396.877 243.139 386.105C242.962 369.608 232.829 359.413 227.788 356.744C222.223 353.797 238.932 351.734 252.082 370.299C266.279 390.342 250.192 407.436 241.577 412.741L241.892 419.815C245.432 419.815 256.132 421.583 261.599 425.12C265.974 427.95 263.632 431.015 261.914 432.194C243.818 439.268 239.818 452.826 240.08 458.721L241.416 488.784C241.967 501.163 249.205 504.7 256.521 510.006C262.374 514.25 265.227 520.027 265.922 522.385C293.025 534.763 297.273 550.679 290.742 563.059C297.823 563.059 298.57 566.596 298.059 568.364C296.013 575.438 286.546 574.848 282.442 575.438C250.814 580.743 234.738 579.277 227.465 578.264C218.036 576.951 271.19 576.185 270.954 570.879Z" fill="#436577"/>
<path d="M242.387 420.264C231.139 421.526 209.843 420.891 200.859 419.914L200.629 412.248C216.347 416.034 235.041 413.554 242.657 412.104L242.387 420.264Z" fill="#436577"/>
<path d="M198.231 563.099C196.853 563.028 195.677 564.089 195.606 565.467C195.536 566.846 196.596 568.022 197.975 568.092L198.231 563.099ZM197.975 568.092C217.315 569.085 255.754 572.449 291.588 558.265L289.748 553.616C255.113 567.326 217.835 564.106 198.231 563.099L197.975 568.092Z" fill="#436577"/>
<path d="M189.27 562.015C190.643 562.164 191.634 563.397 191.485 564.77C191.336 566.143 190.102 567.135 188.73 566.985L189.27 562.015ZM188.73 566.985C177.187 565.731 170.575 564.646 165.435 563.453C160.347 562.272 156.653 560.964 151.299 559.4L152.701 554.6C158.347 556.25 161.653 557.442 166.565 558.583C171.425 559.711 177.813 560.769 189.27 562.015L188.73 566.985Z" fill="#F9DFAC"/>
</g>
<path d="M208.858 432.317C208.858 433.817 182.858 433.817 182.523 428.244C182.187 422.67 183.293 426.096 184.358 425.765C186.858 428.243 190.592 428.641 193.358 429.317C202.027 431.437 208.858 430.817 208.858 432.317Z" fill="#F9DFAC"/>
<path opacity="0.2" d="M612.245 173.718C612.894 190.55 590.5 197 561.245 185.5C531.99 174 514.547 156.648 513.897 139.816C513.248 122.984 536.411 122.936 561.245 121.978C586.079 121.02 611.596 156.886 612.245 173.718Z" fill="black"/>
<path d="M1276.49 777.566C1276.8 780.589 1247.77 776.037 1245.78 772.768C1243.79 769.5 1249.64 769.177 1260.74 773.642C1271 777.767 1276.19 774.544 1276.49 777.566Z" fill="#FDEAC4"/>
<path d="M1275.5 674C1275.5 675.5 1249.5 675.5 1249.16 669.926C1248.83 664.352 1249.93 667.778 1251 667.447C1253.5 669.926 1257.23 670.323 1260 671C1268.67 673.12 1275.5 672.499 1275.5 674Z" fill="#FDEAC4"/>
<path d="M1009.5 422.5L1006 423.5C1009.6 428.7 1012.17 435.5 1013 438.5L1016.5 437.5C1015.3 431.5 1011.33 425 1009.5 422.5Z" fill="#564D4A"/>
<path d="M1017 420.5L1013.5 421.5C1017.1 426.7 1019.67 433.5 1020.5 436.5L1024 435.5C1022.8 429.5 1018.83 423 1017 420.5Z" fill="#564D4A"/>
</g>
<defs>
<filter id="filter0_i_7203_643" x="1357" y="330" width="133.188" height="228.651" filterUnits="userSpaceOnUse" color-interpolation-filters="sRGB">
<feFlood flood-opacity="0" result="BackgroundImageFix"/>
<feBlend mode="normal" in="SourceGraphic" in2="BackgroundImageFix" result="shape"/>
<feColorMatrix in="SourceAlpha" type="matrix" values="0 0 0 0 0 0 0 0 0 0 0 0 0 0 0 0 0 0 127 0" result="hardAlpha"/>
<feOffset dx="-5" dy="3"/>
<feComposite in2="hardAlpha" operator="arithmetic" k2="-1" k3="1"/>
<feColorMatrix type="matrix" values="0 0 0 0 0 0 0 0 0 0 0 0 0 0 0 0 0 0 0.25 0"/>
<feBlend mode="normal" in2="shape" result="effect1_innerShadow_7203_643"/>
</filter>
<filter id="filter1_i_7203_643" x="221.89" y="111.343" width="394.114" height="469.961" filterUnits="userSpaceOnUse" color-interpolation-filters="sRGB">
<feFlood flood-opacity="0" result="BackgroundImageFix"/>
<feBlend mode="normal" in="SourceGraphic" in2="BackgroundImageFix" result="shape"/>
<feColorMatrix in="SourceAlpha" type="matrix" values="0 0 0 0 0 0 0 0 0 0 0 0 0 0 0 0 0 0 127 0" result="hardAlpha"/>
<feOffset dx="7" dy="1.5"/>
<feComposite in2="hardAlpha" operator="arithmetic" k2="-1" k3="1"/>
<feColorMatrix type="matrix" values="0 0 0 0 0.975575 0 0 0 0 0.875316 0 0 0 0 0.674797 0 0 0 1 0"/>
<feBlend mode="normal" in2="shape" result="effect1_innerShadow_7203_643"/>
</filter>
<filter id="filter2_i_7203_643" x="452.933" y="1.05151" width="538.783" height="162.568" filterUnits="userSpaceOnUse" color-interpolation-filters="sRGB">
<feFlood flood-opacity="0" result="BackgroundImageFix"/>
<feBlend mode="normal" in="SourceGraphic" in2="BackgroundImageFix" result="shape"/>
<feColorMatrix in="SourceAlpha" type="matrix" values="0 0 0 0 0 0 0 0 0 0 0 0 0 0 0 0 0 0 127 0" result="hardAlpha"/>
<feOffset dx="2" dy="1"/>
<feComposite in2="hardAlpha" operator="arithmetic" k2="-1" k3="1"/>
<feColorMatrix type="matrix" values="0 0 0 0 0.97609 0 0 0 0 0.901595 0 0 0 0 0.724667 0 0 0 1 0"/>
<feBlend mode="normal" in2="shape" result="effect1_innerShadow_7203_643"/>
</filter>
<filter id="filter3_i_7203_643" x="823.784" y="483.929" width="139.432" height="219.186" filterUnits="userSpaceOnUse" color-interpolation-filters="sRGB">
<feFlood flood-opacity="0" result="BackgroundImageFix"/>
<feBlend mode="normal" in="SourceGraphic" in2="BackgroundImageFix" result="shape"/>
<feColorMatrix in="SourceAlpha" type="matrix" values="0 0 0 0 0 0 0 0 0 0 0 0 0 0 0 0 0 0 127 0" result="hardAlpha"/>
<feOffset dx="0.5" dy="1.5"/>
<feComposite in2="hardAlpha" operator="arithmetic" k2="-1" k3="1"/>
<feColorMatrix type="matrix" values="0 0 0 0 1 0 0 0 0 0.930479 0 0 0 0 0.791436 0 0 0 1 0"/>
<feBlend mode="normal" in2="shape" result="effect1_innerShadow_7203_643"/>
</filter>
<filter id="filter4_i_7203_643" x="823.784" y="483.929" width="75.9612" height="60.5532" filterUnits="userSpaceOnUse" color-interpolation-filters="sRGB">
<feFlood flood-opacity="0" result="BackgroundImageFix"/>
<feBlend mode="normal" in="SourceGraphic" in2="BackgroundImageFix" result="shape"/>
<feColorMatrix in="SourceAlpha" type="matrix" values="0 0 0 0 0 0 0 0 0 0 0 0 0 0 0 0 0 0 127 0" result="hardAlpha"/>
<feOffset dx="1"/>
<feComposite in2="hardAlpha" operator="arithmetic" k2="-1" k3="1"/>
<feColorMatrix type="matrix" values="0 0 0 0 0.996712 0 0 0 0 0.922102 0 0 0 0 0.730246 0 0 0 1 0"/>
<feBlend mode="normal" in2="shape" result="effect1_innerShadow_7203_643"/>
</filter>
<clipPath id="clip0_7203_643">
<rect width="1440" height="992" fill="white"/>
</clipPath>
</defs>
</svg>
