<svg width="1440" height="1027" viewBox="0 0 1440 1027" fill="none" xmlns="http://www.w3.org/2000/svg">
<g clip-path="url(#clip0_59_6405)">
<path opacity="0.4" d="M1672.61 532.571L1116.78 424.993L1185.29 383.144L1886.02 411.761C1886.02 411.761 1863.05 498.266 1806.72 522.309C1750.39 546.352 1672.61 532.571 1672.61 532.571Z" fill="#031119"/>
<path d="M1133 304.79C1137.15 305.682 1137.2 310.521 1136.71 312.828C1157.23 309.997 1168.1 326.818 1169.57 345.24C1171.3 345.612 1178.84 352.664 1180.82 360.33C1184.27 373.747 1192.49 373.395 1197.62 374.806L1227.04 381.128C1240.89 384.104 1245.84 377.925 1250.04 375.207C1254.25 372.49 1260.68 359.388 1264.39 367.427C1267.35 373.858 1266.36 383.542 1265.49 387.58L1272.41 389.068C1273.16 385.606 1296.28 370.66 1316.18 387.61C1333.23 402.138 1326.68 439.84 1303.53 446.453C1280.39 453.066 1267.93 435.181 1264.6 425.412L1257.68 423.924C1256.93 427.386 1252.97 437.398 1248.4 441.846C1244.73 445.404 1242.25 442.337 1241.47 440.358C1238.42 420.871 1226.12 413.52 1220.35 412.28L1190.93 405.958C1178.81 403.354 1173.86 409.533 1167.18 415.34C1161.84 419.985 1155.64 421.309 1153.21 421.39C1135.51 444.746 1119.19 444.86 1108.57 435.334C1107.08 442.257 1103.49 442.09 1101.89 441.141C1095.46 437.346 1098.02 428.239 1098.31 424.077C1099.82 391.809 1118.53 321.596 1121.74 315.045C1124.87 308.69 1127.81 303.674 1133 304.79Z" fill="#0B1C25"/>
<mask id="mask0_59_6405" style="mask-type:alpha" maskUnits="userSpaceOnUse" x="1097" y="304" width="229" height="144">
<path d="M1133 304.791C1137.15 305.683 1137.2 310.522 1136.71 312.829C1157.23 309.998 1168.1 326.819 1169.57 345.241C1171.3 345.613 1178.84 352.665 1180.82 360.331C1184.27 373.748 1192.49 373.396 1197.62 374.807L1227.04 381.129C1240.89 384.105 1245.84 377.926 1250.04 375.208C1254.25 372.491 1260.68 359.389 1264.39 367.428C1267.35 373.859 1266.36 383.543 1265.49 387.581L1272.41 389.069C1273.16 385.607 1296.28 370.661 1316.18 387.611C1333.23 402.139 1326.68 439.841 1303.53 446.454C1280.39 453.067 1267.93 435.182 1264.6 425.413L1257.68 423.925C1256.93 427.387 1252.97 437.399 1248.4 441.847C1244.73 445.405 1242.25 442.338 1241.47 440.359C1238.42 420.872 1226.12 413.521 1220.35 412.281L1190.93 405.959C1178.81 403.355 1173.86 409.534 1167.18 415.341C1161.84 419.986 1155.64 421.31 1153.21 421.391C1135.51 444.747 1119.19 444.861 1108.57 435.335C1107.08 442.258 1103.49 442.091 1101.89 441.142C1095.46 437.347 1098.02 428.24 1098.31 424.078C1099.82 391.81 1118.53 321.597 1121.74 315.046C1124.87 308.691 1127.81 303.675 1133 304.791Z" fill="#D3E3EB"/>
</mask>
<g mask="url(#mask0_59_6405)">
<path d="M1105.13 413.999C1109.28 414.892 1118.62 402.631 1118.12 404.939C1120.8 413.276 1134.09 428.403 1154.85 404.205C1156.58 404.577 1169.46 390.04 1171.44 397.706C1174.89 411.123 1186.11 398.81 1191.24 400.22L1220.66 406.543C1234.5 409.518 1237.18 410.124 1241.3 411.153C1246.15 412.369 1246.15 413.971 1251.38 415.281C1258.25 417.001 1259.79 409.704 1258.92 413.742L1265.84 415.23C1269.98 421.912 1279.61 431.074 1290.07 433.695C1306.1 437.708 1318.11 430.388 1321.76 426.137C1325.78 421.445 1324.27 438.304 1303.51 446.449C1281.1 455.243 1267.91 435.177 1264.58 425.408L1257.66 423.92C1256.92 427.382 1252.95 437.394 1248.38 441.842C1244.71 445.401 1242.24 442.333 1241.45 440.354C1238.4 420.868 1226.1 413.516 1220.33 412.277L1190.91 405.954C1178.79 403.35 1173.84 409.529 1167.16 415.336C1161.82 419.982 1155.62 421.305 1153.19 421.386C1135.5 444.743 1119.18 444.857 1108.55 435.33C1107.06 442.253 1103.48 442.086 1101.87 441.137C1095.44 437.342 1098 428.236 1098.29 424.074C1099.8 391.806 1104.59 376.461 1107.1 369.607C1110.36 360.722 1099.93 412.883 1105.13 413.999Z" fill="#020E14"/>
<path d="M1257.47 424.933C1258.2 414.634 1262.51 395.711 1265 387.864L1272.41 389.124C1266.05 402.456 1265.19 419.647 1265.26 426.734L1257.47 424.933Z" fill="#020E14"/>
</g>
<path d="M1554.5 832.5L547 575.5L1192.5 447L2198 646L1554.5 832.5Z" fill="#031119" fill-opacity="0.4"/>
<path d="M595 561C597.733 569.359 605.984 585.314 615.897 584.643C616.28 584.598 616.648 584.55 617 584.5C616.63 584.571 616.263 584.618 615.897 584.643C607.389 585.644 591.419 585.306 578.5 581C584.5 580.833 596.2 576.6 595 561Z" fill="#A1948F"/>
<path d="M447.499 206.12C444.237 197.953 434.98 182.559 425.13 183.864C424.751 183.933 424.387 184.005 424.039 184.077C424.404 183.983 424.767 183.912 425.13 183.864C433.557 182.32 449.516 181.634 462.684 185.104C456.707 185.654 445.303 190.628 447.499 206.12Z" fill="#958681"/>
<path d="M940.407 27.3965C940.407 27.3965 1022.97 81.1459 1025.5 84C1028.03 86.8541 1032.5 91.5 1032.5 91.5L1016.5 86.2188L445.276 185.173C442.26 185.695 439.17 184.807 436.892 182.764L360.23 114L350 112L355.5 109.5L940.407 27.3965Z" fill="#A69A96"/>
<g filter="url(#filter0_i_59_6405)">
<path d="M577.776 580.944L202.664 499.002C192.075 253.945 292.695 141.414 349.517 112.327C352.998 110.545 357.168 111.258 360.081 113.868L438.301 183.977C439.419 184.979 440.297 186.22 440.87 187.608L594.842 560.566C599.462 571.757 589.604 583.528 577.776 580.944Z" fill="#D3CDCC"/>
</g>
<path d="M577.752 580.913L275 514.5C264.305 266.994 351.685 187.933 407.434 161.836C409.912 160.676 412.807 161.169 414.845 162.993L439.148 184.738C439.708 185.239 440.149 185.861 440.436 186.556L594.831 560.537C599.453 571.734 589.583 583.509 577.752 580.913Z" fill="#CCC4C1"/>
<path d="M577.619 580.84L390.5 539.5C384.5 455.333 398 349.5 489.5 307.5L594.705 560.433C599.367 571.643 589.474 583.46 577.619 580.84Z" fill="#C5BBB7"/>
<path d="M600.943 575.396L446.609 203.179C442.934 194.314 448.413 184.325 457.864 182.661L1016.97 84.2145C1023.73 83.0237 1030.44 86.5778 1033.25 92.8424L1187.92 437.263C1191.8 445.913 1186.78 455.952 1177.54 458.039L618.101 584.283C610.982 585.89 603.739 582.139 600.943 575.396Z" fill="#72635E"/>
<g filter="url(#filter1_i_59_6405)">
<path d="M433.118 124.748V116.913L470.299 150.18V158C470.299 158.96 473.266 161.233 474.5 162.5C474.5 162.5 471 163.5 470.299 163.421L435.971 131.322C434.151 129.62 433.118 127.24 433.118 124.748Z" fill="#D3CDCC"/>
<path d="M432.933 117L701.667 72.4044L912.246 1.57332C915.195 0.581535 918.437 1.01846 921.018 2.75539L970.5 36.0577C970.689 36.0577 971.5 36.5 971.5 37.5L969.5 36.0577L734.934 103.714L468.799 150.679L432.933 117Z" fill="#B8AFAC"/>
<path d="M731.5 104.5L698 73H701L735.5 103.5L731.5 104.5Z" fill="#AB9D97"/>
<path d="M969.16 35.9629L734.934 103.714V117.412L965.21 73.641C968.985 72.9235 971.716 69.6239 971.716 65.7817V37.8841C971.716 36.5527 970.439 35.5929 969.16 35.9629Z" fill="#72635E"/>
<path d="M735 117.401L471.345 163.589C470.121 163.804 469 162.862 469 161.619V150.452L735 103.667V117.401Z" fill="#72635E"/>
</g>
<path d="M1117.53 373.608L604.537 476.285C603.605 476.471 602.671 475.977 602.302 475.102L544.905 339.231C544.407 338.051 545.131 336.713 546.391 336.485L1060.96 243.281C1061.86 243.116 1062.77 243.595 1063.14 244.441L1118.97 370.839C1119.49 372.009 1118.79 373.357 1117.53 373.608Z" fill="#746560"/>
<path d="M780.266 500.139L631.392 531.453C628.655 532.029 625.988 530.245 625.391 527.512C622.392 513.785 618.491 504.267 610.042 490.882C608.136 487.863 609.798 483.825 613.3 483.131L762.368 453.607C764.244 453.236 766.176 453.968 767.309 455.508C777.947 469.957 781.934 479.592 784.141 494.665C784.516 497.225 782.797 499.607 780.266 500.139Z" fill="#D3CDCC"/>
<path d="M959.766 464.139L810.892 495.453C808.155 496.029 805.488 494.245 804.891 491.512C801.893 477.785 797.991 468.267 789.542 454.882C787.636 451.863 789.298 447.825 792.801 447.131L941.869 417.607C943.744 417.236 945.676 417.968 946.809 419.508C957.447 433.957 961.434 443.592 963.642 458.665C964.016 461.225 962.297 463.607 959.766 464.139Z" fill="#D3CDCC"/>
<path d="M806.511 493.001L963.708 459.2L964.083 463.199L806.785 496.868L806.511 493.001Z" fill="#A1948F"/>
<path d="M625.581 530L783.708 496L784.081 500L625.851 533.868L625.581 530Z" fill="#A1948F"/>
<path d="M1135.27 428.139L986.392 459.453C983.655 460.029 980.991 458.244 980.368 455.517C977.245 441.842 972.743 432.586 964.135 419.262C962.199 416.265 963.855 412.231 967.354 411.533L1117.36 381.612C1119.24 381.238 1121.18 381.97 1122.31 383.512C1132.95 397.959 1136.93 407.594 1139.14 422.665C1139.52 425.225 1137.8 427.607 1135.27 428.139Z" fill="#D3CDCC"/>
<path d="M981.533 456.592L1139.21 423.29L1139.57 427.291L981.792 460.46L981.533 456.592Z" fill="#A1948F"/>
<path d="M625.314 531.135L609.203 489.41C608.814 488.402 610.064 487.591 610.725 488.447C612.876 491.233 615.621 496.199 620.433 508.5C624.321 518.436 626.054 526.048 626.696 530.839C626.84 531.908 625.703 532.141 625.314 531.135Z" fill="white"/>
<path d="M806.244 495.883L788.893 453.612C788.478 452.602 789.549 451.939 790.159 452.845C792.346 456.089 795.197 461.546 800.434 473C804.961 482.904 806.92 490.723 807.619 495.571C807.771 496.627 806.649 496.87 806.244 495.883Z" fill="white"/>
<path d="M981.242 459.514L963.51 417.735C963.08 416.723 964.245 415.966 964.902 416.847C967.223 419.961 970.275 425.216 975.434 436.5C979.998 446.485 981.951 454.35 982.636 459.189C982.785 460.239 981.656 460.491 981.242 459.514Z" fill="white"/>
<path d="M640.825 506.12L638.749 502.15L650.542 499.723L652.618 503.694L640.825 506.12ZM754.344 489.947L750.73 483.035L743.09 484.607L740.755 480.14L748.395 478.568L744.818 471.727L749.716 470.719L753.292 477.56L760.932 475.988L763.267 480.455L755.627 482.027L759.241 488.939L754.344 489.947Z" fill="#70605A"/>
<path d="M569.158 310.099L552.699 274.707L564.287 272.701C577.144 270.475 587.561 275.695 592.897 287.171C598.14 298.444 593.824 305.829 580.691 308.102L569.158 310.099ZM574.421 301.287L576.408 300.943C584.243 299.587 588.004 296.906 584.037 288.375C580.212 280.149 574.75 278.79 567.522 280.041L564.763 280.519L574.421 301.287ZM628.638 299.803L623.369 294.241L608.912 296.744L609.215 303.165L599.779 304.798L599.322 266.637L605.668 265.538L638.074 298.17L628.638 299.803ZM608.546 288.906L616.988 287.445L608.048 277.965L608.546 288.906ZM644.909 296.987L638.415 283.023L613.883 264.116L624.091 262.349L638.988 274.639L641.307 259.37L651.515 257.603L647.079 281.524L653.572 295.488L644.909 296.987ZM682.19 291.357C674.189 292.742 665.844 289.413 661.545 282.86L669.232 279.39C671.555 283.487 675.211 284.939 679.074 284.27C681.888 283.783 683.615 282.113 682.363 279.421C681.608 277.797 679.275 276.883 673.38 275.874C663.742 274.25 659.463 271.973 656.936 266.54C654.197 260.65 657.282 255.617 664.842 254.308C670.194 253.382 675.561 254.922 680.169 259.062L674.909 264.417C672.545 262.028 670.055 261.032 667.848 261.414C665.862 261.758 664.749 263.213 665.529 264.888C666.332 266.615 668.388 267.575 674.827 268.601C684.474 270.113 688.303 272.194 690.641 277.221C693.899 284.228 690.026 290.001 682.19 291.357ZM742.09 280.166L725.631 244.774L734.294 243.275L740.552 256.731L755.506 254.142L749.248 240.686L757.911 239.187L774.37 274.579L765.707 276.078L758.906 261.454L743.952 264.043L750.753 278.667L742.09 280.166ZM813.09 267.877L803.047 269.615L787.622 257.087L785.47 257.46L784.643 257.603L791.184 271.669L782.576 273.159L766.117 237.767L779.636 235.427C789.347 233.746 794.925 237.279 797.854 243.575C800.191 248.602 799.354 252.314 795.782 254.633L813.09 267.877ZM781.242 250.291L785.27 249.594C788.029 249.116 790.773 248.477 789.238 245.176C787.726 241.927 784.857 242.423 782.153 242.891L778.125 243.589L781.242 250.291ZM828.916 265.961C820.915 267.345 812.571 264.017 808.271 257.464L815.958 253.993C818.281 258.09 821.937 259.542 825.8 258.874C828.614 258.387 830.341 256.716 829.089 254.025C828.334 252.4 826.001 251.487 820.106 250.477C810.468 248.854 806.189 246.577 803.663 241.143C800.923 235.253 804.008 230.22 811.568 228.912C816.92 227.985 822.287 229.525 826.895 233.666L821.635 239.02C819.272 236.631 816.782 235.636 814.574 236.018C812.588 236.362 811.476 237.816 812.255 239.492C813.058 241.218 815.114 242.179 821.553 243.204C831.2 244.717 835.029 246.797 837.367 251.824C840.626 258.831 836.752 264.604 828.916 265.961ZM901.327 214.363L913.687 212.224L930.146 247.616L921.483 249.115L910.36 225.199L912.159 247.273L903.827 248.715L886.404 229.455L897.479 253.27L888.816 254.77L872.357 219.378L884.717 217.238L903.471 238.462L901.327 214.363ZM938.355 246.195L921.896 210.803L930.559 209.304L947.018 244.696L938.355 246.195ZM962.12 203.841L970.783 202.341L987.242 237.733L978.358 239.271L953.818 220.091L963.901 241.773L955.238 243.273L938.779 207.881L947.608 206.353L972.156 225.421L962.12 203.841ZM1007.51 235.049C999.505 236.434 991.16 233.105 986.861 226.552L994.548 223.082C996.871 227.179 1000.53 228.631 1004.39 227.962C1007.2 227.475 1008.93 225.804 1007.68 223.113C1006.92 221.488 1004.59 220.575 998.696 219.566C989.058 217.942 984.779 215.665 982.252 210.232C979.513 204.341 982.598 199.309 990.158 198C995.51 197.074 1000.88 198.614 1005.49 202.754L1000.22 208.109C997.861 205.719 995.371 204.724 993.164 205.106C991.178 205.45 990.065 206.904 990.845 208.58C991.648 210.306 993.704 211.267 1000.14 212.292C1009.79 213.805 1013.62 215.885 1015.96 220.912C1019.22 227.92 1015.34 233.693 1007.51 235.049Z" fill="white"/>
<path d="M582.924 231.141L576.172 232.269L564.429 222.599L562.73 222.883L561.487 223.09L566.437 233.897L560.638 234.866L548.447 208.251L558.223 206.617C565.307 205.433 569.547 207.972 571.716 212.707C573.465 216.525 572.72 219.281 569.913 220.942L582.924 231.141ZM559.214 218.126L562.61 217.558C565.303 217.108 567.082 216.318 565.91 213.759C564.755 211.239 562.592 211.19 559.899 211.64L556.502 212.208L559.214 218.126ZM598.742 218.302C599.004 218.874 599.208 219.416 599.44 220.117L585.728 222.409C586.886 224.353 588.983 225.524 591.924 225.032C593.623 224.748 594.993 223.944 595.63 222.316L600.976 224.834C599.812 227.454 597.555 229.147 594.034 229.736C586.743 230.954 581.64 226.628 579.383 221.702C577.179 216.891 577.653 211.303 584.695 210.126C591.074 209.06 596.223 212.803 598.742 218.302ZM583.885 218.483L592.418 217.057C591.391 215.008 588.95 214.06 586.63 214.448C583.772 214.926 583.434 216.914 583.885 218.483ZM613.6 222.724C618.875 222.459 623.801 222.211 625.795 226.564C627.684 230.688 624.523 233.231 618.972 234.159C612.965 235.163 608.181 233.578 606.449 229.798C606.274 229.416 606.158 229.066 606.101 228.746L608.454 226.873C606.613 226.359 605 225.272 604.073 223.248C603.321 221.606 603.442 220.311 604.105 219.132C602.545 218.159 601.283 216.767 600.531 215.125C598.589 210.887 601.213 207.365 605.853 206.589C607.551 206.305 609.341 206.417 611.041 206.914L613.076 203.861L617.504 206.615L615.553 209.366C616.488 210.238 617.268 211.258 617.81 212.442C619.734 216.643 617.33 219.963 612.525 220.766C611.075 221.009 609.644 221.001 608.275 220.737C608.172 221.001 608.188 221.327 608.328 221.632C608.905 222.892 610.909 222.886 613.6 222.724ZM607.912 210.89C606.006 211.209 605.413 212.541 606.182 214.221C606.917 215.825 608.44 217.009 610.553 216.656C612.583 216.317 612.899 214.866 612.147 213.224C611.36 211.506 609.776 210.579 607.912 210.89ZM617.471 230.299C619.791 229.911 620.954 229.141 620.517 228.186C619.888 226.812 617.267 227.127 614.517 227.257C614.002 227.302 613.512 227.302 612.98 227.309L612.1 228.894C612.094 228.978 612.147 229.092 612.181 229.169C612.776 230.467 614.986 230.714 617.471 230.299ZM618.373 201.619L616.221 196.922L622.021 195.953L624.172 200.649L618.373 201.619ZM628.495 223.523L619.872 204.698L625.506 203.756L634.129 222.581L628.495 223.523ZM646.408 220.981C642.017 221.715 637.555 219.665 635.325 217.037L638.918 214.463C639.958 215.564 641.567 217.227 644.342 216.763C646.372 216.424 646.68 215.345 646.331 214.581C645.001 211.679 635.639 215.094 632.508 208.259C630.707 204.326 633.672 201.939 637.483 201.302C641.128 200.693 644.556 201.846 647.284 204.103L643.991 207.038C642.897 206.111 641.314 204.896 639.16 205.256C637.793 205.484 637.286 206.227 637.618 206.952C638.843 209.625 648.394 206.138 651.595 213.125C653.677 217.669 650.261 220.337 646.408 220.981ZM663.202 201.812L658.065 202.671L662.053 211.377C662.56 212.485 663.565 213.509 665.636 213.163C666.423 213.031 667.223 212.733 668.012 212.313L669.884 216.399C668.792 217.034 667.595 217.439 666.228 217.668C662.583 218.277 658.682 217.161 656.653 212.732L652.473 203.606L649.159 204.16L647.305 200.112L650.619 199.558L649.15 196.351L652.993 191.597L656.211 198.623L661.348 197.765L663.202 201.812ZM676.16 194.837C677.527 194.608 678.928 194.744 680.662 195.317L680.086 200.388C679.289 200.11 678.214 200.002 677.22 200.168C674.61 200.604 673.877 202.412 675.452 205.849L679.632 214.975L673.998 215.917L665.375 197.092L671.05 196.143L672.415 199.121C672.346 196.831 673.923 195.211 676.16 194.837ZM690.749 192.398C696.341 191.463 701.074 193.714 703.137 198.22L708.595 210.134L703.458 210.992L702.047 208.885C701.471 211.037 699.508 212.105 697.436 212.451C693.004 213.192 688.607 211.09 686.911 207.386C685.896 205.172 686.239 203.388 687.701 202.198C688.746 201.366 690.281 200.821 692.352 200.475L697.737 199.575L697.545 199.155C696.758 197.436 694.884 196.558 692.564 196.945C690.741 197.25 689.334 198.266 688.464 200.262L682.97 197.809C684.266 194.797 687.103 193.007 690.749 192.398ZM696.389 208.022C698.999 207.586 700.442 205.577 699.487 203.393L694.888 204.162C693.728 204.356 693.011 204.64 692.672 205.067C692.314 205.455 692.276 205.955 692.538 206.528C693.063 207.674 694.483 208.34 696.389 208.022ZM718.333 192.597L713.196 193.455L717.184 202.161C717.691 203.269 718.696 204.293 720.767 203.947C721.554 203.815 722.354 203.517 723.143 203.098L725.014 207.183C723.923 207.818 722.726 208.224 721.359 208.452C717.714 209.061 713.813 207.946 711.784 203.516L707.604 194.39L704.29 194.944L702.436 190.897L705.75 190.343L704.281 187.135L708.124 182.382L711.342 189.408L716.479 188.549L718.333 192.597ZM719.29 184.75L717.138 180.053L722.938 179.083L725.089 183.78L719.29 184.75ZM729.412 206.654L720.789 187.829L726.423 186.887L735.046 205.712L729.412 206.654ZM749.355 203.772C742.892 204.853 736.882 200.883 734.486 195.652C732.072 190.382 733.843 185.194 740.347 184.107C746.809 183.027 752.785 186.92 755.198 192.189C757.595 197.421 755.776 202.699 749.355 203.772ZM747.273 199.228C750.836 198.633 750.848 195.835 749.606 193.124C748.347 190.375 746.015 188.011 742.411 188.613C738.848 189.209 738.819 191.968 740.078 194.717C741.303 197.39 743.669 199.831 747.273 199.228ZM766.078 179.806C770.759 179.024 774.641 181.17 776.617 185.485L782.267 197.819L776.674 198.753L771.777 188.062C771.147 186.687 769.923 184.014 766.402 184.603C762.176 185.309 763.943 189.166 765.185 191.877L768.928 200.048L763.294 200.99L754.671 182.165L760.305 181.223L761.197 183.171C761.883 181.165 763.758 180.194 766.078 179.806ZM806.382 194.24C799.464 195.396 794.036 191.042 791.797 186.154C789.523 181.19 790.498 175.724 797.333 174.581C801.517 173.882 805.588 175.175 808.869 178.737L804.459 181.571C803.188 179.769 801.22 178.783 799.397 179.087C796.207 179.62 796.313 182.48 797.555 185.191C798.779 187.864 801.028 190.243 804.218 189.709C806.041 189.405 806.966 188.017 806.582 186.108L812.475 187.096C812.717 190.837 810.525 193.547 806.382 194.24ZM823.504 191.377C820.646 191.855 817.733 190.657 816.124 187.144L806.067 165.187L811.659 164.253L821.472 185.674C821.874 186.553 822.476 186.699 823.305 186.56C823.719 186.491 824.181 186.331 824.667 186.127L826.539 190.213C825.53 190.833 824.457 191.218 823.504 191.377ZM839.096 188.771C832.633 189.851 826.623 185.882 824.227 180.651C821.813 175.381 823.584 170.193 830.088 169.106C836.55 168.026 842.525 171.919 844.939 177.188C847.335 182.42 845.516 187.698 839.096 188.771ZM837.014 184.227C840.577 183.632 840.589 180.834 839.347 178.123C838.087 175.374 835.756 173.009 832.152 173.612C828.589 174.207 828.56 176.967 829.819 179.716C831.043 182.389 833.41 184.83 837.014 184.227ZM859.731 185.322C855.34 186.056 850.878 184.006 848.648 181.378L852.241 178.804C853.28 179.905 854.89 181.568 857.665 181.104C859.695 180.765 860.003 179.686 859.653 178.922C858.324 176.02 848.962 179.435 845.831 172.6C844.03 168.667 846.995 166.28 850.806 165.643C854.451 165.034 857.879 166.187 860.607 168.444L857.313 171.379C856.22 170.452 854.637 169.237 852.483 169.597C851.116 169.825 850.609 170.568 850.941 171.293C852.166 173.966 861.717 170.478 864.918 177.466C867 182.01 863.583 184.678 859.731 185.322ZM885.006 170.45C885.269 171.022 885.472 171.564 885.704 172.265L871.992 174.557C873.15 176.501 875.247 177.672 878.188 177.18C879.887 176.896 881.258 176.092 881.895 174.464L887.24 176.982C886.077 179.602 883.82 181.295 880.298 181.884C873.008 183.102 867.904 178.776 865.648 173.85C863.444 169.039 863.917 163.451 870.959 162.274C877.339 161.208 882.487 164.951 885.006 170.45ZM870.149 170.631L878.683 169.205C877.655 167.157 875.214 166.208 872.894 166.596C870.036 167.074 869.698 169.062 870.149 170.631ZM899.923 178.603C895.532 179.337 891.07 177.288 888.841 174.66L892.434 172.086C893.473 173.186 895.082 174.849 897.858 174.386C899.887 174.046 900.196 172.967 899.846 172.203C898.517 169.301 889.155 172.716 886.024 165.881C884.222 161.948 887.187 159.561 890.998 158.924C894.644 158.315 898.071 159.469 900.8 161.726L897.506 164.66C896.412 163.733 894.83 162.518 892.676 162.878C891.309 163.107 890.801 163.849 891.134 164.575C892.358 167.248 901.91 163.76 905.111 170.748C907.192 175.292 903.776 177.959 899.923 178.603ZM912.213 152.501L910.061 147.804L915.861 146.834L918.012 151.531L912.213 152.501ZM922.335 174.405L913.712 155.58L919.346 154.638L927.969 173.463L922.335 174.405ZM936.336 151.346C941.017 150.563 944.899 152.71 946.875 157.025L952.525 169.358L946.932 170.293L942.035 159.601C941.405 158.227 940.181 155.554 936.66 156.142C932.434 156.849 934.201 160.705 935.443 163.416L939.186 171.588L933.552 172.53L924.929 153.705L930.563 152.763L931.455 154.71C932.141 152.705 934.016 151.734 936.336 151.346ZM952.787 155.584L950.391 150.353L956.356 149.356L958.752 154.587L952.787 155.584ZM958.629 168.338L956.25 163.145L962.215 162.148L964.594 167.341L958.629 168.338Z" fill="white"/>
<path d="M826.953 460.728C828.86 460.344 830.48 461.171 831.348 462.912L833.829 467.889L831.551 468.348L829.399 464.033C829.123 463.479 828.585 462.4 827.15 462.689C825.429 463.036 826.204 464.592 826.75 465.686L828.394 468.983L826.099 469.445L822.311 461.849L824.606 461.387L824.998 462.173C825.252 461.341 826.007 460.918 826.953 460.728ZM837.346 467.181L830.959 460.108L833.39 459.619L836.896 463.745L836.091 459.075L838.032 458.684L841.59 462.767L840.732 458.141L843.18 457.648L844.351 465.771L842.326 466.179L838.545 461.837L839.406 466.767L837.346 467.181ZM848.4 464.956L843.045 454.216L845.425 453.737L847.522 457.944L852.384 456.965L850.286 452.759L852.666 452.28L858.021 463.02L855.641 463.499L853.375 458.953L848.514 459.932L850.78 464.477L848.4 464.956ZM859.966 454.083C862.245 453.624 864.214 454.482 865.121 456.301L867.518 461.108L865.425 461.53L864.818 460.685C864.611 461.575 863.821 462.039 862.977 462.209C861.171 462.572 859.342 461.771 858.596 460.276C858.151 459.382 858.267 458.647 858.85 458.139C859.267 457.784 859.888 457.54 860.732 457.371L862.927 456.929L862.842 456.759C862.496 456.066 861.717 455.731 860.771 455.922C860.029 456.071 859.466 456.506 859.136 457.336L856.852 456.405C857.342 455.154 858.481 454.382 859.966 454.083ZM862.488 460.408C863.552 460.194 864.116 459.351 863.695 458.47L861.821 458.847C861.349 458.942 861.059 459.068 860.925 459.248C860.784 459.412 860.775 459.617 860.89 459.848C861.121 460.31 861.712 460.564 862.488 460.408ZM873.012 460.189C870.193 460.756 867.91 459.046 866.926 457.073C865.927 455.07 866.253 452.817 869.038 452.257C870.743 451.914 872.428 452.388 873.821 453.803L872.052 455.024C871.507 454.303 870.687 453.926 869.945 454.075C868.645 454.337 868.727 455.507 869.272 456.601C869.81 457.68 870.764 458.624 872.064 458.362C872.806 458.213 873.167 457.631 872.983 456.854L875.412 457.18C875.561 458.709 874.7 459.849 873.012 460.189ZM877.946 459.009L872.591 448.269L874.886 447.807L877.844 453.74L879.171 450.404L882.226 449.789L880.599 453.304L886.335 457.321L883.617 457.868L879.655 454.986L879.135 456.328L880.241 458.547L877.946 459.009ZM890.08 456.753C888.291 457.113 886.435 456.334 885.486 455.287L886.923 454.184C887.364 454.621 888.046 455.281 889.177 455.053C890.004 454.887 890.116 454.44 889.962 454.132C889.378 452.961 885.588 454.487 884.213 451.729C883.422 450.142 884.604 449.124 886.157 448.811C887.643 448.512 889.062 448.938 890.211 449.826L888.901 451.073C888.44 450.708 887.776 450.232 886.898 450.408C886.341 450.52 886.143 450.831 886.289 451.124C886.827 452.203 890.693 450.645 892.099 453.464C893.014 455.298 891.65 456.437 890.08 456.753ZM901.784 452.041L906.325 451.127L907.308 453.099L899.037 454.764L898.192 453.069C899.551 451.659 902.098 448.722 900.9 446.318C900.47 445.455 899.683 444.884 898.62 445.099C897.236 445.377 897.416 446.596 897.85 447.576L895.528 447.874C894.567 445.948 894.98 443.61 897.664 443.07C899.842 442.632 902.095 443.687 903.125 445.752C904.17 447.847 903.402 450.443 901.784 452.041ZM913.408 452.041C909.611 452.805 907.555 449.54 906.449 447.321C905.365 445.148 904.053 441.733 907.817 440.975C911.429 440.248 913.569 443.31 914.744 445.668C915.943 448.072 916.953 451.327 913.408 452.041ZM912.376 450.044C914.013 449.715 913.24 447.904 912.372 446.162C911.465 444.344 910.487 442.642 908.816 442.978C907.161 443.311 907.911 445.076 908.818 446.895C909.686 448.636 910.688 450.384 912.376 450.044ZM922.068 447.958L926.609 447.044L927.592 449.016L919.321 450.681L918.476 448.986C919.835 447.576 922.382 444.639 921.184 442.235C920.753 441.372 919.967 440.802 918.904 441.016C917.52 441.294 917.7 442.513 918.133 443.494L915.812 443.791C914.851 441.865 915.264 439.527 917.948 438.987C920.125 438.549 922.379 439.604 923.409 441.669C924.453 443.764 923.686 446.36 922.068 447.958ZM934.183 442.722L936.057 442.344L937.048 444.332L935.174 444.709L936.434 447.236L934.156 447.695L932.896 445.168L927.511 446.252L926.896 445.019L929.104 436.894L931.079 436.496L934.183 442.722ZM929.389 443.686L931.904 443.18L930.291 439.944L929.389 443.686Z" fill="#564D4A"/>
<path d="M1115 414C1113.8 409.6 1110.83 400.167 1109.5 398L1123 403.5L1115 414Z" fill="#564D4A"/>
<path d="M1082.34 366.843L610.851 459.334C606.1 460.266 601.364 457.661 599.607 453.15L564.403 362.751C562.121 356.89 565.751 350.403 571.939 349.282L1042.32 264.08C1046.88 263.254 1051.41 265.67 1053.27 269.917L1089.58 353.027C1092.14 358.888 1088.61 365.612 1082.34 366.843Z" fill="#D3CDCC" stroke="#564D4A" stroke-width="8"/>
<path d="M1085.81 359.34L1076.31 355.84L602.807 450.34C604.407 454.74 606.807 456.007 608.807 455.84C764.307 425.34 1079.01 363.64 1081.81 362.84C1085.31 361.84 1084.81 360.84 1085.81 359.34Z" fill="#AEAAA9"/>
<path d="M567.307 357.84C567.307 358.84 568.307 362.34 568.307 362.34L1049.9 272.645C1048.81 266.84 1043.97 267.398 1041.96 267.537C886.064 295.921 573.561 352.879 570.751 353.641C567.94 354.403 567.307 356.84 567.307 357.84Z" fill="#AEAAA9"/>
<path d="M1086.81 355.84L1048.81 269.84C1048.46 269.04 1046.66 268.007 1045.81 267.84L1041.81 273.84L1076.31 355.84L1085.81 359.34C1086.31 358.84 1087.14 356.673 1086.81 355.84Z" fill="#8B8381"/>
<g opacity="0.3">
<path opacity="0.7" d="M725.434 432L637.434 449.5L779.934 314.5L852.434 302L725.434 432Z" fill="#DDD9D8"/>
<path opacity="0.7" d="M748.434 427.5L734.934 430.5L863.434 300L874.934 297.5L748.434 427.5Z" fill="#DDD9D8"/>
</g>
<path d="M134.907 566.65C134.718 562.405 139.391 561.344 141.752 561.344C133.806 541.891 147.339 527.743 164.805 522.438C164.726 520.67 169.644 511.828 176.568 508.291C188.684 502.101 186.258 494.144 186.324 488.838L184.988 458.775C184.359 444.627 177.121 441.09 173.424 437.553C169.726 434.016 155.407 430.479 162.252 425.174C167.728 420.93 177.358 419.869 181.489 419.869L181.174 412.795C177.634 412.795 157.297 393.342 168.667 370.353C178.412 350.647 216.581 349.132 228.853 370.353C241.126 391.574 226.963 407.49 218.348 412.795L218.663 419.869C222.203 419.869 232.903 421.637 238.37 425.174C242.745 428.004 240.403 431.069 238.685 432.248C220.589 439.322 216.589 452.88 216.851 458.775L218.188 488.838C218.738 501.217 225.976 504.754 233.292 510.059C239.145 514.304 241.998 520.081 242.693 522.438C269.796 534.817 274.044 550.733 267.513 563.113C274.594 563.113 275.341 566.65 274.83 568.418C272.784 575.492 263.317 574.902 259.213 575.492C227.585 580.797 154.85 577.26 147.691 575.492C140.745 573.776 135.142 571.955 134.907 566.65Z" fill="#F9DFAC"/>
<path d="M146.088 578.965C151.362 580.207 148.054 580.989 152.276 581.166C163.781 586.327 184.278 586.493 222.533 589.371C224.731 589.888 245.216 592.873 262.276 594.438C292.13 597.177 298.312 599.35 305.443 600.924L342.797 609.72C360.375 613.859 352.105 614.364 350.167 615.134C348.229 615.904 327.293 615.878 346.55 617.96C361.955 619.626 380.583 620.661 387.971 620.971L396.76 623.04C390.428 622.775 379.768 627.009 430.497 634.663C473.979 641.223 544.254 644.53 538.152 639.169C532.049 633.809 485.676 628.039 463.253 625.824L454.464 623.754C460.796 624.019 477.597 624.297 482.701 623.66C486.785 623.15 478.543 622.068 473.912 621.59C432.193 618.142 407.115 613.831 399.791 612.106L362.437 603.31C347.056 599.688 355.327 599.184 361.4 598.162C366.259 597.344 363.725 595.848 361.851 595.203C393.965 593.569 380.522 589.178 352.475 585.026C365.14 585.556 361.801 584.565 358.549 584.004C345.538 581.757 248.037 571.147 239.917 570.665C176.331 566.727 156.308 572.343 145.84 572.33C135.685 572.317 139.497 577.413 146.088 578.965Z" fill="#172E3B"/>
<path d="M138.136 566.575C137.947 562.331 142.62 561.27 144.981 561.27C137.035 541.817 150.568 527.669 168.034 522.364C167.955 520.595 172.873 511.753 179.797 508.216C191.913 502.027 189.487 494.069 189.553 488.764L188.217 458.7C187.588 444.553 180.35 441.016 176.653 437.479C172.955 433.942 158.636 430.405 165.481 425.1C170.957 420.856 180.273 420.5 184.403 420.5L184.403 412.721C180.863 412.721 160.526 393.268 171.896 370.278C181.641 350.573 219.81 349.058 232.082 370.278C244.355 391.499 230.192 407.416 221.577 412.721L221.892 419.795C225.432 419.795 236.132 421.563 241.599 425.1C245.974 427.929 243.632 430.995 241.914 432.174C223.818 439.248 219.818 452.806 220.08 458.7L221.417 488.764C221.967 501.143 229.205 504.68 236.521 509.985C242.374 514.229 245.227 520.006 245.922 522.364C273.025 534.743 277.273 550.659 270.742 563.038C277.823 563.038 278.57 566.575 278.059 568.344C276.013 575.417 266.546 574.828 262.442 575.417C230.814 580.723 158.079 577.186 150.92 575.417C143.974 573.702 138.371 571.881 138.136 566.575Z" fill="#A8C0CC"/>
<mask id="mask1_59_6405" style="mask-type:alpha" maskUnits="userSpaceOnUse" x="138" y="354" width="141" height="225">
<path d="M138.136 566.575C137.947 562.331 142.62 561.27 144.981 561.27C137.035 541.817 150.568 527.669 168.034 522.364C167.955 520.595 172.873 511.753 179.797 508.216C191.913 502.027 189.488 494.069 189.553 488.764L188.217 458.7C187.588 444.553 180.35 441.016 176.653 437.479C172.955 433.942 158.636 430.405 165.481 425.1C170.957 420.856 180.273 420.5 184.403 420.5L184.403 412.721C180.863 412.721 160.526 393.268 171.896 370.278C181.641 350.573 219.81 349.058 232.082 370.278C244.355 391.499 230.192 407.416 221.577 412.721L221.892 419.795C225.432 419.795 236.132 421.563 241.599 425.1C245.974 427.929 243.632 430.995 241.914 432.174C223.818 439.248 219.818 452.806 220.08 458.7L221.417 488.764C221.967 501.143 229.205 504.68 236.521 509.985C242.374 514.229 245.227 520.006 245.922 522.364C273.025 534.743 277.273 550.659 270.742 563.038C277.823 563.038 278.57 566.575 278.059 568.344C276.013 575.417 266.546 574.828 262.442 575.417C230.814 580.723 158.079 577.186 150.92 575.417C143.974 573.702 138.371 571.881 138.136 566.575Z" fill="#D3E3EB"/>
</mask>
<g mask="url(#mask1_59_6405)">
<path d="M250.954 570.879C250.766 566.635 239.553 563.059 241.914 563.059C249.307 558.692 257.558 539.564 228.864 524.369C228.785 522.601 211.443 513.07 218.366 509.533C230.482 503.343 215.715 494.971 215.78 489.666L214.444 459.602C213.816 445.455 213.722 442.71 213.677 438.477C213.623 433.478 215.174 433.143 215.116 427.757C215.04 420.687 207.586 420.722 211.716 420.722L211.402 413.648C216.822 408.199 223.255 396.877 223.139 386.105C222.962 369.608 212.829 359.413 207.788 356.744C202.223 353.797 218.932 351.734 232.082 370.299C246.279 390.342 230.192 407.436 221.577 412.741L221.892 419.815C225.432 419.815 236.132 421.583 241.599 425.12C245.974 427.95 243.632 431.015 241.914 432.194C223.818 439.268 219.818 452.826 220.08 458.721L221.416 488.784C221.967 501.163 229.205 504.7 236.521 510.006C242.374 514.25 245.227 520.027 245.922 522.385C273.025 534.763 277.273 550.679 270.742 563.059C277.823 563.059 278.57 566.596 278.059 568.364C276.013 575.438 266.546 574.848 262.442 575.438C230.814 580.743 214.738 579.277 207.465 578.264C198.036 576.951 251.19 576.185 250.954 570.879Z" fill="#436577"/>
<path d="M222.387 420.264C211.139 421.526 189.843 420.891 180.859 419.914L180.629 412.248C196.347 416.034 215.041 413.554 222.657 412.104L222.387 420.264Z" fill="#436577"/>
<path d="M178.231 563.099C176.852 563.028 175.677 564.089 175.606 565.467C175.536 566.846 176.596 568.022 177.975 568.092L178.231 563.099ZM177.975 568.092C197.315 569.085 235.754 572.449 271.588 558.265L269.748 553.616C235.113 567.326 197.835 564.106 178.231 563.099L177.975 568.092Z" fill="#436577"/>
<path d="M169.27 562.015C170.643 562.164 171.635 563.397 171.485 564.77C171.336 566.143 170.102 567.135 168.73 566.985L169.27 562.015ZM168.73 566.985C157.187 565.731 150.575 564.646 145.435 563.453C140.347 562.272 136.653 560.964 131.299 559.4L132.701 554.6C138.347 556.25 141.653 557.442 146.565 558.583C151.425 559.711 157.813 560.769 169.27 562.015L168.73 566.985Z" fill="#F9DFAC"/>
</g>
<path d="M188.858 432.317C188.858 433.817 162.858 433.817 162.523 428.244C162.188 422.67 163.293 426.096 164.358 425.765C166.858 428.243 170.592 428.641 173.358 429.317C182.028 431.437 188.858 430.817 188.858 432.317Z" fill="#F9DFAC"/>
<path d="M-41.3548 619.877C-42.901 615.238 -36.8451 611.501 -33.6239 610.213C-45.9935 590.112 -20.7389 567.048 -6.56541 558.029C-2.69992 548.365 -0.767166 542.567 8.89656 532.903C22.5959 519.204 27.5798 474.921 26.2913 451.728V418.871C21.6527 417.325 12.7621 407.919 8.89656 403.409C4.38682 402.12 -3.85956 398.384 -0.76717 393.745C2.32522 389.107 6.96381 386.658 8.89656 386.014C8.89656 379.829 15.339 375.706 18.5603 374.418L20.493 349.292C14.6948 344.138 3.48487 329.578 5.03107 312.57C6.96381 291.31 14.6948 283.579 26.2913 273.915C35.5685 266.184 41.7532 250.078 43.686 242.991C37.8877 239.126 35.955 233.327 37.8877 225.596C40.7869 214 49.4842 214 53.3497 214C58.7478 214 66.8789 219.798 66.8789 227.529C66.8789 235.26 64.9462 239.126 61.0807 242.991C61.0807 248.789 66.8789 264.251 76.5427 273.915C86.2064 283.579 97.8029 291.31 99.7356 312.57C101.282 329.578 87.4949 345.427 80.4081 351.225V374.418C91.2315 377.51 92.6489 383.437 92.0046 386.014C95.2259 386.658 101.668 389.107 101.668 393.745C101.668 398.384 93.9374 402.12 90.0719 403.409C90.0719 408.048 81.0524 415.65 76.5427 418.871V451.728L76.5426 452.565C76.5397 475.892 76.5348 515.985 95.8701 532.903C111.332 546.432 111.976 556.096 111.332 558.029C146.895 584.314 142.9 603.77 136.458 610.213C140.323 610.213 149.987 617.944 144.189 621.809C138.391 625.675 122.929 629.54 47.5515 629.54C-27.8256 629.54 -39.4221 625.675 -41.3548 619.877Z" fill="#F9DFAC"/>
<path d="M-184.988 607.811C-182.361 609.048 -165.177 610.674 -156.913 611.333C-157.23 616.201 -76.1851 625.194 -35.6233 629.083C-15.5257 632.271 -4.26494 634.15 27.7982 637.839C73.2511 643.068 139.077 656.577 165.507 663.316L206.716 673.02C199.083 673.076 192.533 675.085 190.212 676.083C182.521 676.074 170.19 676.465 182.389 678.103C194.589 679.74 207.232 680.863 212.029 681.221C219.786 683.047 238.252 684.822 246.516 685.48L282.017 693.068C276.516 694.089 271.644 697.421 296.167 702.578C326.82 709.023 352.471 711.975 388.522 715.83C417.364 718.915 450.328 724.206 463.205 726.466C456.087 727.107 459.371 728.652 473.056 731.102C493.583 734.778 511.531 735.529 519.508 735.863C530.648 736.329 540.156 735.319 530.46 733.036C520.763 730.753 511.927 729.444 499.102 727.969C491.829 726.256 484.402 722.191 492.225 720.172C500.047 718.152 514.282 716.871 491.606 710.759C473.465 705.87 425.135 699.998 403.238 697.673L374.15 690.823C392.607 690.845 388.098 689.217 383.536 688.4C389.376 688.488 399.601 688.322 393.783 686.952C387.965 685.582 367.324 683.811 357.731 683.096C351.913 681.726 323.765 678.702 310.418 677.361L269.209 667.657C240.12 660.807 188.375 648.719 207.283 645.353C222.223 642.693 211.432 639.894 207.678 639.268C248.095 634.578 188.227 627.69 166.845 625.23L166.836 625.229C174.813 625.563 157.951 615.949 141.137 614.307C124.323 612.664 141.919 619.15 -13.6349 612.638C-169.188 606.126 -188.272 606.266 -184.988 607.811Z" fill="#172E3B"/>
<path d="M-36.3548 619.877C-37.901 615.238 -31.8451 611.501 -28.6239 610.213C-40.9935 590.112 -15.7389 567.048 -1.56541 558.029C2.30009 548.365 4.23283 542.567 13.8966 532.903C27.5959 519.204 32.5798 474.921 31.2913 451.728V418.871C26.6527 417.325 17.7621 407.919 13.8966 403.409C9.38682 402.12 1.14044 398.384 4.23283 393.745C7.32523 389.107 11.9638 386.658 13.8966 386.014C13.8966 379.829 20.339 375.706 23.5603 374.418L25.493 349.292C19.6948 344.138 8.48487 329.578 10.0311 312.57C11.9638 291.31 19.6948 283.579 31.2913 273.915C40.5685 266.184 46.7532 250.078 48.686 242.991C42.8877 239.126 40.955 233.327 42.8877 225.596C45.7869 214 54.4842 214 58.3497 214C63.7478 214 71.8789 219.798 71.8789 227.529C71.8789 235.26 69.9462 239.126 66.0807 242.991C66.0807 248.789 71.8789 264.251 81.5427 273.915C91.2064 283.579 102.803 291.31 104.736 312.57C106.282 329.578 92.4949 345.427 85.4081 351.225V374.418C96.2315 377.51 97.6489 383.437 97.0046 386.014C100.226 386.658 106.668 389.107 106.668 393.745C106.668 398.384 98.9374 402.12 95.0719 403.409C95.0719 408.048 86.0524 415.65 81.5427 418.871V451.728L81.5426 452.565C81.5397 475.892 81.5348 515.985 100.87 532.903C116.332 546.432 116.976 556.096 116.332 558.029C151.895 584.314 147.9 603.77 141.458 610.213C145.323 610.213 154.987 617.944 149.189 621.809C143.391 625.675 127.929 629.54 52.5515 629.54C-22.8256 629.54 -34.4221 625.675 -36.3548 619.877Z" fill="#A8C0CC"/>
<path d="M96.4081 386.139C69.6649 392.772 29.9339 389.385 13.4113 386.862C-4.9288 393.822 5.86827 400.595 13.5593 403.361C61.6142 409.443 86.0842 404.896 95.0562 401.651C99.3749 399.947 107.702 396.841 106.46 392.052C105.218 387.262 99.2414 386.114 96.4081 386.139Z" fill="#436577"/>
<path d="M65.9714 621.809C65.9714 611.67 46.3784 611.501 49.5996 610.213C106.357 610.213 95.1826 572.751 76.6581 558.029C80.5236 548.365 61.1456 544.101 68.9795 532.903C73.3347 526.677 68.2088 510.326 68.2088 451.728V418.871C63.1994 412.835 77.0716 411.509 77.0716 406.5C82.4663 403.803 87.9998 403 87.9998 396C87.9998 389 77.0716 392.124 77.0716 387.5C77.0716 381.315 66.9082 375.706 70.1294 374.418L72.0622 349.292C66.264 344.138 80.1543 333.841 80.1543 309.564C80.1543 288.216 54.3749 283.579 65.9714 273.915C75.2486 266.184 60.1166 249.837 59.346 242.13C66.6674 237.891 66.6674 231.34 66.6674 227.529C66.6674 219.78 54.4838 214 58.3493 214C63.7474 214 71.8785 219.798 71.8785 227.529C71.8785 235.26 69.9457 239.126 66.0803 242.991C66.0803 248.789 71.8785 264.251 81.5422 273.915C91.206 283.579 102.802 291.31 104.735 312.57C106.281 329.578 92.4945 345.427 85.4077 351.225V374.418C96.2311 377.51 97.6484 383.437 97.0042 386.014C100.225 386.658 106.668 389.107 106.668 393.745C106.668 398.384 98.9369 402.12 95.0714 403.409C95.0714 408.048 86.052 415.65 81.5422 418.871V451.728L81.5422 452.565C81.5393 475.892 81.5344 515.985 100.87 532.903C116.332 546.432 116.976 556.096 116.332 558.029C151.894 584.314 147.9 603.77 141.457 610.213C145.323 610.213 154.987 617.944 149.188 621.809C143.39 625.675 127.928 629.54 52.5511 629.54C24.6655 629.54 65.9714 627.921 65.9714 621.809Z" fill="#436577"/>
<path d="M-24 610C1.71631 612.264 67.3192 615.433 124 610" stroke="#436577" stroke-width="5"/>
<path d="M610.831 678.358C606.582 676.943 599.218 677.615 599.218 679.417L599.217 708.605C599.217 710.175 601.275 711.745 604.955 712.983L1785.84 1110.08L2995.95 790.859L2995.95 753.677L1785.84 1069.69L610.831 678.358Z" fill="#061B26"/>
<path d="M603.381 681.426C598.142 679.681 598.226 677.135 603.569 675.74L1808.8 361.001L3000.12 757.766L1785.21 1075.03L603.381 681.426Z" fill="#133141"/>
<path d="M730.951 685.641C725.711 683.896 725.795 681.35 731.139 679.955L1807.55 398.856L2872.55 753.552L1786.46 1037.18L730.951 685.641Z" fill="#476A7D"/>
<path d="M761.744 686.659C756.504 684.914 756.588 682.368 761.932 680.972L884.408 648.988L1013.99 692.147L881.842 726.657L761.744 686.659Z" fill="#809CAA"/>
<rect width="136.584" height="136.584" transform="matrix(0.967552 -0.25267 0.948765 0.315984 884.408 648.988)" fill="#133141"/>
<rect width="136.584" height="136.584" transform="matrix(0.967552 -0.25267 0.948765 0.315984 1016.56 614.478)" fill="#809CAA"/>
<rect width="136.584" height="136.584" transform="matrix(0.967552 -0.25267 0.948765 0.315984 1148.71 579.967)" fill="#133141"/>
<rect width="136.584" height="136.584" transform="matrix(0.967552 -0.25267 0.948765 0.315984 1280.86 545.457)" fill="#809CAA"/>
<rect width="136.584" height="136.584" transform="matrix(0.967552 -0.25267 0.948765 0.315984 1413.02 510.946)" fill="#133141"/>
<rect width="136.584" height="136.584" transform="matrix(-0.967552 0.25267 0.948765 0.315984 1534.2 708.354)" fill="#133141"/>
<rect width="136.584" height="136.584" transform="matrix(-0.967552 0.25267 0.948765 0.315984 1402.05 742.864)" fill="#809CAA"/>
<rect width="136.584" height="136.584" transform="matrix(-0.967552 0.25267 0.948765 0.315984 1269.9 777.375)" fill="#133141"/>
<rect width="136.584" height="136.584" transform="matrix(0.967552 -0.25267 0.948765 0.315984 1009.25 769.091)" fill="#809CAA"/>
<rect width="136.584" height="136.584" transform="matrix(0.967552 -0.25267 0.948765 0.315984 1141.4 734.58)" fill="#133141"/>
<rect width="136.584" height="136.584" transform="matrix(0.967552 -0.25267 0.948765 0.315984 1273.55 700.069)" fill="#809CAA"/>
<rect width="136.584" height="136.584" transform="matrix(0.967552 -0.25267 0.948765 0.315984 1405.71 665.559)" fill="#133141"/>
<rect width="136.584" height="136.584" transform="matrix(-0.967552 0.25267 0.948765 0.315984 1526.89 862.966)" fill="#133141"/>
<rect width="136.584" height="136.584" transform="matrix(-0.967552 0.25267 0.948765 0.315984 1541.51 553.741)" fill="#133141"/>
<rect width="136.584" height="136.584" transform="matrix(-0.967552 0.25267 0.948765 0.315984 1409.36 588.252)" fill="#809CAA"/>
<rect width="136.584" height="136.584" transform="matrix(-0.967552 0.25267 0.948765 0.315984 1277.21 622.763)" fill="#133141"/>
<rect width="136.584" height="136.584" transform="matrix(-0.967552 0.25267 0.948765 0.315984 1145.06 657.273)" fill="#809CAA"/>
<rect width="136.584" height="136.584" transform="matrix(-0.967552 0.25267 0.948765 0.315984 1012.91 691.784)" fill="#133141"/>
<rect width="136.584" height="136.584" transform="matrix(0.967552 -0.25267 0.948765 0.315984 1266.24 854.681)" fill="#809CAA"/>
<rect width="136.584" height="136.584" transform="matrix(0.967552 -0.25267 0.948765 0.315984 1398.4 820.17)" fill="#133141"/>
<g filter="url(#filter2_i_59_6405)">
<path d="M1344.34 555.115C1333.03 551.343 1337.27 546.472 1340.8 544.507C1330.43 530.364 1348.27 514.256 1358.48 507.97C1358.48 501.37 1366.34 491.863 1370.27 487.934C1346.7 467.898 1370.27 441.968 1379.7 429.003C1387.24 418.632 1400.13 403.467 1405.63 397.181C1408.46 394.352 1408.38 385.788 1407.98 381.859C1400.91 391.288 1387.95 390.109 1385.59 388.931C1383.23 387.752 1376.16 387.752 1370.27 392.466C1364.38 397.181 1351.41 396.002 1349.05 392.466C1347.68 390.405 1351.23 387.385 1354.78 385.137C1352.47 385.86 1349.64 386.353 1347.88 386.573C1344.34 367.716 1362.02 364.18 1366.73 364.18C1371.45 364.18 1393.84 345.322 1398.56 342.965C1403.27 340.608 1412.7 345.322 1411.52 342.965C1410.58 341.079 1414.27 333.536 1416.24 330C1420.01 333.772 1424.09 341.786 1425.66 345.322H1432.74C1436.27 364.18 1456.31 350.036 1453.95 364.18C1451.59 378.323 1462.2 388.931 1462.2 392.466C1462.2 396.002 1453.95 401.895 1456.31 412.503C1458.67 423.11 1453.95 430.182 1451.59 436.075C1449.24 441.968 1456.31 452.576 1453.95 458.469C1452.07 463.183 1451.59 472.219 1451.59 476.148C1442.16 478.505 1426.14 485.105 1437.45 492.648C1448.76 500.192 1449.24 506.006 1448.06 507.97C1471.63 524.942 1469.67 539.4 1465.74 544.507C1469.27 546.865 1475.17 550.4 1462.2 555.115C1449.24 559.829 1358.48 559.829 1344.34 555.115Z" fill="#0B1C25"/>
<mask id="mask2_59_6405" style="mask-type:alpha" maskUnits="userSpaceOnUse" x="1337" y="330" width="134" height="229">
<path d="M1344.34 555.115C1333.03 551.343 1337.27 546.472 1340.8 544.507C1330.43 530.364 1348.27 514.256 1358.48 507.97C1358.48 501.37 1366.34 491.863 1370.27 487.934C1346.7 467.898 1370.27 441.968 1379.7 429.003C1387.24 418.632 1400.13 403.467 1405.63 397.181C1408.46 394.352 1408.38 385.788 1407.98 381.859C1400.91 391.288 1387.95 390.109 1385.59 388.931C1383.23 387.752 1376.16 387.752 1370.27 392.466C1364.38 397.181 1351.41 396.002 1349.05 392.466C1347.68 390.405 1351.23 387.385 1354.78 385.137C1352.47 385.86 1349.64 386.353 1347.88 386.573C1344.34 367.716 1362.02 364.18 1366.73 364.18C1371.45 364.18 1393.84 345.322 1398.56 342.965C1403.27 340.608 1412.7 345.322 1411.52 342.965C1410.58 341.079 1414.27 333.536 1416.24 330C1420.01 333.772 1424.09 341.786 1425.66 345.322H1432.74C1436.27 364.18 1456.31 350.036 1453.95 364.18C1451.59 378.323 1462.2 388.931 1462.2 392.466C1462.2 396.002 1453.95 401.895 1456.31 412.503C1458.67 423.11 1453.95 430.182 1451.59 436.075C1449.24 441.968 1456.31 452.576 1453.95 458.469C1452.07 463.183 1451.59 472.219 1451.59 476.148C1442.16 478.505 1426.14 485.105 1437.45 492.648C1448.76 500.192 1449.24 506.006 1448.06 507.97C1471.63 524.942 1469.67 539.4 1465.74 544.507C1469.27 546.865 1475.17 550.4 1462.2 555.115C1449.24 559.829 1358.48 559.829 1344.34 555.115Z" fill="#6D520B"/>
</mask>
<g mask="url(#mask2_59_6405)">
<path d="M1433.5 488C1414.3 490.4 1383.83 489 1371 488L1357.5 490L1359 507C1401 515 1435.83 510.333 1448 507H1455.5L1433.5 488Z" fill="#04141D"/>
</g>
</g>
<g opacity="0.45">
<path d="M940.5 680L1104.32 721C1104.32 721 1126.59 743.245 1104.32 750.8C1082.04 758.355 1052.67 754.64 1052.67 754.64C1010.5 767.5 991 763.64 985.5 754.64C982.608 749.907 989.671 746.678 997.019 744.68C965.041 744.225 899.153 715.133 843 692.172L940.5 680Z" fill="#031119"/>
</g>
<g filter="url(#filter3_i_59_6405)">
<path d="M835.573 650.883C835.573 653.972 837.657 654.951 840.534 654.951C843.411 654.951 845.743 653.464 845.743 650.375C845.743 647.285 843.411 644.781 840.534 644.781C837.657 644.781 835.573 647.794 835.573 650.883Z" fill="#876F5E"/>
<path d="M943.102 612.626C942.124 608.388 922.288 599.854 912.002 593.999L913.835 617.977L920.862 623.554C927.95 630.022 933.388 630.338 935.222 629.688C938.582 627.178 944.079 616.864 943.102 612.626Z" fill="#816C5D"/>
<path d="M940.097 688.245C940.097 681.259 928.829 663.837 923.196 655.999C912.464 655.999 891.002 660.097 891.002 676.489C891.002 692.881 900.124 700.338 904.684 702.017C916.489 700.338 940.097 695.232 940.097 688.245Z" fill="#876F5E"/>
<path d="M907.784 669.495C938.347 647.173 915.061 602.302 899.598 582.657L856.961 580.379C835.403 633.45 838.541 659.53 850.48 663.516C844.751 669.495 839.061 682.335 840.502 688.5C843.881 702.957 874.502 699.5 885.496 700.751C888.168 701.055 882.54 683.668 885.496 677.5C891.227 673.4 906.306 670.444 907.784 669.495Z" fill="#9F8A7B"/>
<path d="M909.833 668.187C943.745 657.291 912.092 599.814 904.645 600.262C898.648 600.567 894.273 608.466 893.002 612.249C886.662 636.18 886.273 675.757 909.833 668.187Z" fill="#C2A28A"/>
<path d="M885.456 701.499C878.189 704.696 858.692 699.807 847.002 695.999C839.544 694.133 838.502 691.499 841.1 679.211C841.037 678.07 841.005 676.86 841.002 675.578C840.991 669.118 841.612 660.672 843.037 649.999L925.002 644.999C927.014 652.973 926.927 654.94 927.002 662.999C927.014 664.246 935.002 675.578 935.002 675.578C941.855 682.272 940.995 690.281 939.235 691.499C930.225 699.347 906.91 704.092 902.502 701.499C895.002 697.087 889.235 691.499 889.037 683.861C889.093 682.772 889.16 681.612 889.235 680.374H885.456C885.529 681.624 885.586 682.783 885.624 683.861C885.899 691.679 887.82 698.065 885.456 701.499Z" fill="#A8C0CC"/>
<path d="M885.456 680.374C869.988 675.785 862.08 672.117 841.002 675.578M885.456 680.374H889.235M885.456 680.374C885.529 681.624 885.586 682.783 885.624 683.861M841.002 675.578C840.991 669.118 841.612 660.672 843.037 649.999L925.002 644.999C927.014 652.973 926.927 654.94 927.002 662.999M841.002 675.578C841.005 676.86 841.037 678.07 841.1 679.211M889.235 680.374C905.021 673.474 908.222 659.626 927.002 662.999M889.235 680.374C889.16 681.612 889.093 682.772 889.037 683.861M927.002 662.999C927.014 664.246 935.002 675.578 935.002 675.578M841.1 679.211C838.502 691.499 839.544 694.133 847.002 695.999C858.692 699.807 878.189 704.696 885.456 701.499C887.82 698.065 885.899 691.679 885.624 683.861M841.1 679.211C858.504 679.485 868.248 680.623 885.624 683.861M889.037 683.861C889.235 691.499 895.002 697.087 902.502 701.499C906.91 704.092 930.225 699.347 939.235 691.499C940.995 690.281 941.855 682.272 935.002 675.578M889.037 683.861C905.603 680.068 916.865 675.242 935.002 675.578" stroke="#809CAA" stroke-width="1.16266"/>
<path d="M848.902 591.845C873.482 599.558 887.127 600.51 910.232 590.683C914.302 588.357 921.132 592.147 924.765 599.268L917.507 605.227C920.446 612.532 921.973 617.682 923.893 625.853C924.613 628.835 924.966 630.484 925.492 633.411C925.492 633.411 893.869 639.5 867.869 638C841.869 636.5 838.002 633.411 838.002 633.411C838.282 630.462 838.547 628.807 839.165 625.853C840.472 618.075 841.498 613.031 843.349 606.233C843.792 604.61 844.281 602.886 844.833 601.001L848.902 591.845Z" fill="#A8C0CC"/>
<path d="M910.232 590.683C887.127 600.51 873.482 599.558 848.902 591.845L844.833 601.001M910.232 590.683L915.755 601.001M910.232 590.683C914.302 588.357 921.132 592.147 924.765 599.268L917.507 605.227M915.755 601.001C910.232 609.5 905.369 612.432 899.869 612.432M915.755 601.001C916.393 602.502 916.973 603.9 917.507 605.227M844.833 601.001C858.227 609.038 888.249 612.731 899.869 612.432M844.833 601.001C844.281 602.886 843.792 604.61 843.349 606.233C841.498 613.031 840.472 618.075 839.165 625.853M839.165 625.853C863.505 633.543 876.761 633.027 899.869 625.853M839.165 625.853C838.547 628.807 838.282 630.462 838.002 633.411C838.002 633.411 841.869 636.5 867.869 638C893.869 639.5 925.492 633.411 925.492 633.411C924.966 630.484 924.613 628.835 923.893 625.853M899.869 625.853V612.432M899.869 625.853H923.893M923.893 625.853C921.973 617.682 920.446 612.532 917.507 605.227" stroke="#809CAA" stroke-width="1.16266"/>
<path d="M848.311 647.96C851 646.996 870.895 619.748 872.045 613.117C873.196 606.486 860.045 604.617 853.045 604.617C846.045 604.617 829.853 630.54 829.853 637.211C831.41 639.89 845.622 648.923 848.311 647.96Z" fill="#9F826A"/>
<ellipse cx="11.1705" cy="11.3463" rx="11.1705" ry="11.3463" transform="matrix(-0.293054 0.956096 0.970941 0.239319 867.568 508)" fill="#876F5E"/>
<path d="M840.658 555.543C837.261 583.67 854.895 595.146 877.014 595.146C909.255 595.146 922.765 585.5 921.419 557.893C919.942 527.624 904.864 519.856 881.247 517.661C856.018 517.661 843.129 535.082 840.658 555.543Z" fill="#B7957B"/>
<ellipse cx="2.4796" cy="2.66242" rx="2.4796" ry="2.66242" transform="matrix(-0.99802 0.0629045 0.0853966 0.996347 895.601 548.17)" fill="#3F3D3B"/>
<mask id="mask3_59_6405" style="mask-type:alpha" maskUnits="userSpaceOnUse" x="840" y="517" width="82" height="79">
<path d="M840.899 555.528C837.502 583.655 855.137 595.13 877.256 595.13C909.496 595.13 923.007 585.484 921.66 557.877C920.184 527.609 905.106 519.841 881.488 517.646C856.26 517.646 843.37 535.067 840.899 555.528Z" fill="#CCBEB3"/>
</mask>
<g mask="url(#mask3_59_6405)">
<ellipse cx="2.4796" cy="2.66242" rx="2.4796" ry="2.66242" transform="matrix(-0.99802 0.0629045 0.0853966 0.996347 922.493 544.102)" fill="#3F3D3B"/>
</g>
<path d="M897.026 565.05C895.091 574.415 896.021 581.725 907.362 583.495C917.788 584.202 926.968 576.882 927.867 567.144C928.766 557.406 922.096 548.509 911.301 549.526C904.554 550.161 900.299 552.777 897.026 565.05Z" fill="#C9B19F"/>
<path d="M920.527 566.73C918.376 568.002 918.107 568.256 916.224 568.764" stroke="#3F3D3B" stroke-width="1.01697" stroke-linecap="round"/>
<path d="M921.32 566.984C922.678 567.747 922.947 568.001 924.023 568.256" stroke="#3F3D3B" stroke-width="1.01697" stroke-linecap="round"/>
<path d="M921.304 566.817C921.263 567.092 921.004 567.276 920.724 567.228C920.445 567.181 920.251 566.919 920.292 566.644L921.304 566.817ZM920.16 556.747C920.918 558.383 921.368 559.832 921.543 561.42C921.717 563.001 921.616 564.695 921.304 566.817L920.292 566.644C920.599 564.562 920.687 562.962 920.526 561.502C920.366 560.047 919.955 558.706 919.232 557.146L920.16 556.747Z" fill="#3F3D3B"/>
<path d="M915.417 556.56C915.417 558.104 917.344 559.865 919.72 559.865C922.097 559.865 924.023 558.104 924.023 556.56C924.023 555.015 922.097 554.271 919.72 554.271C917.344 554.271 915.417 555.015 915.417 556.56Z" fill="#3F3D3B"/>
<ellipse cx="11.1705" cy="11.3463" rx="11.1705" ry="11.3463" transform="matrix(-0.293054 0.956096 0.970941 0.239319 856.273 510.034)" fill="#B7957B"/>
<path d="M861.673 530.032C863.589 525.45 868.674 523.908 870.976 523.71C871.117 520.395 865.174 514.107 859.259 519.099C854.08 523.47 859.41 528.708 861.673 530.032Z" fill="#3F3D3B"/>
<path d="M876.031 621H824.002V663.001C824.366 670.221 831.234 673.84 850.016 679.86C869.134 674.591 874.494 670.845 876.031 663.001V621Z" fill="#434343"/>
<path d="M830.002 626.5H848.002V671L830.002 662V626.5Z" fill="#595454"/>
<g filter="url(#filter4_i_59_6405)">
<path d="M841.89 488.006C863.393 476.633 884.627 491.244 878.754 505.014L869.877 505.187C868.957 504.134 868.014 504.123 866.72 504.748C862.854 506.614 859.532 514.345 855.061 523.45C850.553 534.285 845.868 542.901 833.264 544.161C814.418 546.044 808.022 539.803 803.821 521.545C802.937 517.704 818.342 530.058 822.483 523.339C819.124 521.883 816.451 519.714 816.451 514.936C816.451 510.832 818.772 508.161 822.205 508.291C821.518 513.226 826.394 516.061 828.048 510.832C832.585 496.486 833.203 492.601 841.89 488.006Z" fill="#DCB551"/>
</g>
<path d="M879.276 494.023V498.115H888.286V494.023C885.809 491.067 881.979 490.84 879.276 494.023Z" fill="#969593"/>
<path d="M845.995 529.943C848.32 485.325 915.609 484.889 918.371 529.943H845.995Z" fill="#B5CBD7"/>
<path d="M859.502 514.5C863.114 508 867.502 507.5 870.502 504.5C873.502 501.5 864.502 504 860.502 509C856.502 514 855.89 521 859.502 514.5Z" fill="#F0E9E9"/>
<path d="M846.002 530L841.002 546.5C859.346 545.632 911.427 529.78 920.002 538.5L917.584 514C889.116 525.321 873.418 528.916 846.002 530Z" fill="#A8C0CC"/>
<path d="M900.002 520.5L896.002 537C898.002 536.5 916.002 534 920.002 538.5L917.584 514C910.502 517 900.002 520.5 900.002 520.5Z" fill="#809CAA"/>
<path d="M870.302 530.109L854.746 533.822C854.746 533.822 852.939 533.252 854.07 531.295C854.269 524.171 864.929 520.715 869.232 527.236L870.302 530.109Z" fill="#B0ACA5"/>
</g>
<path opacity="0.4" d="M1453.54 805.726L1071 700.86L1249.66 690L1605.93 753.53C1605.93 753.53 1588.41 791.942 1547.78 805.726C1507.14 819.511 1453.54 805.726 1453.54 805.726Z" fill="#031119"/>
<path d="M1073.87 703.548C1065.96 701.288 1070.57 695.071 1073.87 692.245C1065.39 676.702 1083.76 661.16 1093.65 654.095C1101.56 648.444 1105.42 633.843 1106.37 627.249L1112.02 528.344C1105.24 523.822 1102.6 515.156 1102.13 511.388C1090.82 502.345 1096.48 497.259 1100.71 495.846L1100.71 469L1119.08 469L1119.08 487.368C1124.73 489.629 1132.74 488.31 1136.04 487.368L1136.04 469L1157.23 469L1157.23 487.368C1162.88 489.629 1169.01 488.31 1171.36 487.368L1171.36 469L1185.49 469L1185.49 495.846C1194.53 500.367 1186.43 508.091 1181.25 511.388C1180.12 519.301 1174.19 525.989 1171.36 528.344C1171.36 533.995 1174.19 604.642 1177.01 627.249C1179.27 645.335 1183.61 652.682 1185.49 654.095C1210.36 669.92 1209.98 686.122 1206.68 692.245C1215.73 697.896 1210.45 702.135 1206.68 703.548C1184.08 707.787 1083.76 706.374 1073.87 703.548Z" fill="#FEE9C1"/>
<path d="M1078.37 703.548C1070.24 702.268 1075.07 695.071 1078.37 692.245C1069.89 676.702 1088.26 661.16 1098.15 654.095C1106.06 648.444 1109.92 633.843 1110.87 627.249L1116.52 528.344C1109.74 523.822 1107.1 515.156 1106.63 511.388C1095.32 502.345 1100.98 497.259 1105.21 495.846L1105.21 469L1123.58 469L1123.58 487.368C1129.23 489.629 1137.24 488.31 1140.54 487.368L1140.54 469L1161.73 469L1161.73 487.368C1167.38 489.629 1173.51 488.31 1175.86 487.368L1175.86 469L1189.99 469L1189.99 495.846C1199.03 500.367 1190.93 508.091 1185.75 511.388C1184.62 519.301 1178.69 525.989 1175.86 528.344C1175.86 533.995 1178.69 604.642 1181.51 627.249C1183.77 645.335 1188.11 652.682 1189.99 654.095C1214.86 669.92 1214.48 686.122 1211.19 692.245C1220.23 697.896 1214.95 702.135 1211.19 703.548C1188.58 707.787 1106.63 708 1078.37 703.548Z" fill="#809CAA"/>
<path d="M1073 692C1088.56 695.338 1154.99 701.348 1212 692" stroke="#436577" stroke-width="6"/>
<path d="M1145.5 707C1135.77 707 1170.2 695.071 1173.5 692.245C1180.1 686.59 1181.51 678.706 1171.68 666.565C1165.56 659.009 1162.35 633.843 1163.29 627.249L1160.37 528.344C1170.3 522.806 1170.77 513.329 1170.3 509.562C1171.04 509.01 1171.68 508.4 1172.23 507.751C1175.8 503.532 1175.38 497.689 1172.23 495.846L1172.23 488.315L1175.86 487.368L1175.86 469L1189.99 469L1189.99 495.846C1199.03 500.367 1190.93 508.091 1185.75 511.388C1184.62 519.301 1178.69 525.989 1175.86 528.344C1175.86 533.995 1178.69 604.642 1181.51 627.249C1183.77 645.335 1188.11 652.682 1189.99 654.095C1214.86 669.92 1214.48 686.122 1211.19 692.245C1220.23 697.896 1214.95 702.135 1211.19 703.548C1188.58 707.787 1155.79 707 1145.5 707Z" fill="#436577"/>
<path d="M1189.5 496C1166.7 501.2 1123.67 498.167 1105 496H1100.5C1089.7 499.2 1097.33 507.333 1102.5 511C1137.7 518.6 1172.5 514.167 1185.5 511C1198.7 501.8 1193.67 497.167 1189.5 496Z" fill="#436577"/>
<path d="M1139.07 498.606C1139.19 500.106 1102.45 500.887 1101.54 495.322C1100.63 489.757 1102.79 492.511 1103.94 492.788C1105.08 493.064 1112.97 495.477 1116.93 496.071C1129.35 497.93 1138.95 497.105 1139.07 498.606Z" fill="#FDEAC4"/>
<path opacity="0.4" d="M1623.56 937.136L1200 821.024L1397.82 809L1792.29 879.342C1792.29 879.342 1772.9 921.873 1727.9 937.136C1682.91 952.399 1623.56 937.136 1623.56 937.136Z" fill="#031119"/>
<path d="M1199.5 815.749C1199.35 811.281 1204.28 809.997 1206.76 809.913C1198.63 789.687 1213.02 774.293 1231.44 768.082C1231.38 766.22 1236.65 756.725 1243.97 752.751C1256.78 745.796 1254.32 737.493 1254.45 731.898L1253.39 700.252C1252.88 685.36 1245.31 681.887 1241.46 678.29C1237.62 674.692 1222.6 671.471 1229.86 665.636C1235.66 660.968 1245.8 659.508 1250.14 659.361L1249.89 651.915C1246.17 652.041 1225 632.253 1237.22 607.615C1247.69 586.496 1287.85 583.547 1300.51 605.483C1313.18 627.42 1298.11 644.7 1288.99 650.598L1289.24 658.045C1292.96 657.919 1304.19 659.405 1309.9 662.939C1314.47 665.767 1311.97 669.082 1310.15 670.386C1291.04 678.484 1286.68 692.918 1286.89 699.124L1287.96 730.769C1288.4 743.8 1295.97 747.272 1303.6 752.606C1309.71 756.873 1312.65 762.862 1313.35 765.323C1341.71 777.413 1346 794.041 1338.99 807.323C1346.44 807.072 1347.18 810.775 1346.63 812.657C1344.39 820.187 1334.45 819.901 1330.12 820.667C1296.8 827.381 1220.36 826.228 1212.85 824.618C1205.56 823.055 1199.69 821.333 1199.5 815.749Z" fill="#FDEAC4"/>
<path d="M1203.58 815.97C1203.43 811.502 1208.35 810.218 1210.84 810.134C1202.7 789.908 1217.09 774.514 1235.52 768.303C1235.45 766.441 1240.73 756.945 1248.05 752.971C1260.86 746.017 1258.4 737.714 1258.53 732.119L1257.46 700.473C1256.96 685.581 1249.39 682.108 1245.54 678.51C1241.69 674.913 1226.67 671.691 1233.93 665.856C1239.74 661.188 1249.88 659.728 1254.22 659.582L1253.97 652.136C1250.25 652.261 1229.08 632.474 1241.29 607.835C1251.77 586.717 1291.92 583.767 1304.59 605.704C1317.25 627.641 1302.18 644.921 1293.06 650.819L1293.31 658.265C1297.03 658.14 1308.27 659.625 1313.98 663.16C1318.54 665.988 1316.05 669.303 1314.23 670.606C1295.12 678.704 1290.76 693.139 1290.97 699.344L1292.03 730.99C1292.47 744.021 1300.04 747.493 1307.68 752.827C1313.79 757.094 1316.72 763.083 1317.42 765.544C1345.79 777.634 1350.07 794.262 1343.07 807.544C1350.51 807.293 1351.26 810.995 1350.7 812.878C1348.47 820.407 1338.52 820.121 1334.2 820.888C1300.88 827.601 1224.43 826.449 1216.92 824.838C1209.64 823.276 1203.77 821.554 1203.58 815.97Z" fill="#A8C0CC"/>
<mask id="mask4_59_6405" style="mask-type:alpha" maskUnits="userSpaceOnUse" x="1203" y="590" width="148" height="237">
<path d="M1203.58 815.97C1203.43 811.502 1208.35 810.218 1210.84 810.134C1202.7 789.908 1217.09 774.514 1235.52 768.303C1235.45 766.441 1240.73 756.945 1248.05 752.971C1260.86 746.017 1258.4 737.714 1258.53 732.119L1257.46 700.473C1256.96 685.581 1249.39 682.108 1245.54 678.51C1241.69 674.913 1226.67 671.691 1233.93 665.856C1239.74 661.188 1249.88 659.728 1254.22 659.582L1253.97 652.136C1250.25 652.261 1229.08 632.474 1241.29 607.835C1251.77 586.717 1291.92 583.767 1304.59 605.704C1317.25 627.641 1302.18 644.921 1293.06 650.819L1293.31 658.265C1297.03 658.14 1308.27 659.625 1313.98 663.16C1318.54 665.988 1316.05 669.303 1314.23 670.606C1295.12 678.704 1290.76 693.139 1290.97 699.344L1292.03 730.99C1292.47 744.021 1300.04 747.493 1307.68 752.827C1313.79 757.094 1316.72 763.083 1317.42 765.544C1345.79 777.634 1350.07 794.262 1343.07 807.544C1350.51 807.293 1351.26 810.995 1350.7 812.878C1348.47 820.407 1338.52 820.121 1334.2 820.888C1300.88 827.601 1224.43 826.449 1216.92 824.838C1209.64 823.276 1203.77 821.554 1203.58 815.97Z" fill="#809CAA"/>
</mask>
<g mask="url(#mask4_59_6405)">
<path d="M1314 812.898C1313.44 812.917 1313.54 812.884 1314.04 812.872C1321.85 807.946 1329.41 783.237 1299.46 768.261C1299.4 766.4 1281.27 756.966 1288.59 752.992C1301.4 746.038 1285.97 737.735 1286.1 732.14L1285.03 700.494C1284.53 685.602 1284.46 682.711 1284.46 678.251C1284.46 672.983 1286.1 672.575 1286.1 666.898C1286.1 659.448 1278.26 659.749 1282.6 659.603L1282.35 652.157C1288.11 646.22 1295 634.057 1295 622.704C1295 605.319 1284.46 594.931 1279.19 592.295C1273.37 589.386 1290.97 586.619 1304.59 605.724C1319.29 626.351 1302.18 644.942 1293.06 650.84L1293.31 658.286C1297.03 658.161 1308.27 659.646 1313.98 663.181C1318.54 666.009 1316.05 669.323 1314.23 670.627C1295.12 678.725 1290.76 693.16 1290.97 699.365L1292.03 731.011C1292.47 744.042 1300.04 747.514 1307.68 752.848C1313.79 757.115 1316.72 763.104 1317.42 765.565C1345.79 777.655 1350.07 794.283 1343.07 807.565C1350.51 807.314 1351.26 811.016 1350.7 812.898C1348.47 820.428 1338.52 820.142 1334.2 820.909C1300.88 827.622 1283.99 826.646 1276.35 825.836C1266.45 824.785 1322.36 822.095 1322.17 816.51C1322.05 813.055 1315.75 812.834 1314.04 812.872C1314.03 812.881 1314.01 812.89 1314 812.898Z" fill="#436577"/>
<path d="M1293.5 658.5C1281.9 660.1 1259.83 660.167 1250.5 659.5L1250 652C1266.4 655.2 1285.67 652.167 1293.5 650.5V658.5Z" fill="#436577"/>
<path d="M1207.5 809C1223 814 1286.7 821.5 1343.5 807.5" stroke="#436577" stroke-width="4"/>
</g>
</g>
<defs>
<filter id="filter0_i_59_6405" x="201.89" y="111.343" width="394.114" height="469.961" filterUnits="userSpaceOnUse" color-interpolation-filters="sRGB">
<feFlood flood-opacity="0" result="BackgroundImageFix"/>
<feBlend mode="normal" in="SourceGraphic" in2="BackgroundImageFix" result="shape"/>
<feColorMatrix in="SourceAlpha" type="matrix" values="0 0 0 0 0 0 0 0 0 0 0 0 0 0 0 0 0 0 127 0" result="hardAlpha"/>
<feOffset dx="7" dy="1.5"/>
<feComposite in2="hardAlpha" operator="arithmetic" k2="-1" k3="1"/>
<feColorMatrix type="matrix" values="0 0 0 0 0.975575 0 0 0 0 0.875316 0 0 0 0 0.674797 0 0 0 1 0"/>
<feBlend mode="normal" in2="shape" result="effect1_innerShadow_59_6405"/>
</filter>
<filter id="filter1_i_59_6405" x="432.933" y="1.05127" width="538.782" height="162.568" filterUnits="userSpaceOnUse" color-interpolation-filters="sRGB">
<feFlood flood-opacity="0" result="BackgroundImageFix"/>
<feBlend mode="normal" in="SourceGraphic" in2="BackgroundImageFix" result="shape"/>
<feColorMatrix in="SourceAlpha" type="matrix" values="0 0 0 0 0 0 0 0 0 0 0 0 0 0 0 0 0 0 127 0" result="hardAlpha"/>
<feOffset dx="2" dy="1"/>
<feComposite in2="hardAlpha" operator="arithmetic" k2="-1" k3="1"/>
<feColorMatrix type="matrix" values="0 0 0 0 0.97609 0 0 0 0 0.901595 0 0 0 0 0.724667 0 0 0 1 0"/>
<feBlend mode="normal" in2="shape" result="effect1_innerShadow_59_6405"/>
</filter>
<filter id="filter2_i_59_6405" x="1337" y="330" width="133.188" height="228.651" filterUnits="userSpaceOnUse" color-interpolation-filters="sRGB">
<feFlood flood-opacity="0" result="BackgroundImageFix"/>
<feBlend mode="normal" in="SourceGraphic" in2="BackgroundImageFix" result="shape"/>
<feColorMatrix in="SourceAlpha" type="matrix" values="0 0 0 0 0 0 0 0 0 0 0 0 0 0 0 0 0 0 127 0" result="hardAlpha"/>
<feOffset dx="-5" dy="3"/>
<feComposite in2="hardAlpha" operator="arithmetic" k2="-1" k3="1"/>
<feColorMatrix type="matrix" values="0 0 0 0 0 0 0 0 0 0 0 0 0 0 0 0 0 0 0.25 0"/>
<feBlend mode="normal" in2="shape" result="effect1_innerShadow_59_6405"/>
</filter>
<filter id="filter3_i_59_6405" x="803.784" y="483.929" width="139.432" height="219.186" filterUnits="userSpaceOnUse" color-interpolation-filters="sRGB">
<feFlood flood-opacity="0" result="BackgroundImageFix"/>
<feBlend mode="normal" in="SourceGraphic" in2="BackgroundImageFix" result="shape"/>
<feColorMatrix in="SourceAlpha" type="matrix" values="0 0 0 0 0 0 0 0 0 0 0 0 0 0 0 0 0 0 127 0" result="hardAlpha"/>
<feOffset dx="0.5" dy="1.5"/>
<feComposite in2="hardAlpha" operator="arithmetic" k2="-1" k3="1"/>
<feColorMatrix type="matrix" values="0 0 0 0 1 0 0 0 0 0.930479 0 0 0 0 0.791436 0 0 0 1 0"/>
<feBlend mode="normal" in2="shape" result="effect1_innerShadow_59_6405"/>
</filter>
<filter id="filter4_i_59_6405" x="803.784" y="483.929" width="75.9614" height="60.5532" filterUnits="userSpaceOnUse" color-interpolation-filters="sRGB">
<feFlood flood-opacity="0" result="BackgroundImageFix"/>
<feBlend mode="normal" in="SourceGraphic" in2="BackgroundImageFix" result="shape"/>
<feColorMatrix in="SourceAlpha" type="matrix" values="0 0 0 0 0 0 0 0 0 0 0 0 0 0 0 0 0 0 127 0" result="hardAlpha"/>
<feOffset dx="1"/>
<feComposite in2="hardAlpha" operator="arithmetic" k2="-1" k3="1"/>
<feColorMatrix type="matrix" values="0 0 0 0 0.996712 0 0 0 0 0.922102 0 0 0 0 0.730246 0 0 0 1 0"/>
<feBlend mode="normal" in2="shape" result="effect1_innerShadow_59_6405"/>
</filter>
<clipPath id="clip0_59_6405">
<rect width="1440" height="1027" fill="white"/>
</clipPath>
</defs>
</svg>
