<svg width="284" height="291" viewBox="0 0 284 291" fill="none" xmlns="http://www.w3.org/2000/svg">
<g filter="url(#filter0_i_3553_4977)">
<path d="M213.75 193.2C220.414 196.725 225.046 204.531 220.923 212.326C216.8 220.121 205.659 221.675 198.995 218.15C192.331 214.625 192.667 207.356 196.79 199.561C200.913 191.766 207.086 189.675 213.75 193.2Z" fill="#9A765C"/>
<path d="M237.318 141.747C243.982 145.272 248.614 153.078 244.491 160.873C240.368 168.667 229.227 170.222 222.563 166.697C215.899 163.172 216.235 155.903 220.358 148.108C224.481 140.313 230.654 138.222 237.318 141.747Z" fill="#9A765C"/>
<path d="M211.731 114.494C231.977 123.587 243.8 154.983 230.047 185.608C216.294 216.233 182.173 234.489 161.926 225.397C141.68 216.304 136.416 184.107 150.17 153.482C163.923 122.858 191.485 105.402 211.731 114.494Z" fill="#B18D71"/>
<path d="M160.129 230.492C158.102 226.383 162.334 217.371 162.808 216.639C164.085 213.045 179.972 207.928 183.545 213.144C188.725 220.708 197.153 222.836 185.088 231.255C179.055 235.465 164.506 239.364 160.129 230.492Z" fill="#9A765C"/>
<path d="M205.234 115.821L205.235 115.831C204.64 119.01 217.294 131.093 219.763 127.318C223.987 120.864 225.29 125.246 225.629 118.806C225.961 112.499 215.281 105.86 208.296 110.356C205.075 112.429 205.199 115.065 205.234 115.821Z" fill="#9A765C"/>
<path d="M189.264 104.663C217.514 122.2 217.845 140.767 205.382 171.037C188.932 204.307 159.489 212.021 137.114 202.554C110.135 184.675 103.302 165.517 118.614 134.548C135.064 101.278 167.171 93.7397 189.264 104.663Z" fill="#C6A083"/>
<path d="M121.507 87.1835C116.296 85.7457 111.75 80.3652 112.925 76.2988C114.1 72.2323 122.109 74.072 124.444 68.1036C125.356 65.1813 125.621 56.4735 122.417 48.6067C119.213 40.74 118.392 35.7172 120.484 33.9493C123.947 30.4082 134.338 37.6127 139.502 45.5445C141.932 49.2768 148.177 57.7033 149.166 47.5233C150.155 37.3433 152.938 36.3442 157.608 42.2351C169.99 63.0026 176.235 103.463 173.691 108.565C161.186 133.638 148.86 126.47 148.643 121.121C148.293 116.704 146.051 105.975 139.891 98.3924C133.731 90.8103 127.985 89.3942 121.507 87.1835Z" fill="#DABDA7"/>
<path d="M87.6298 156.408C83.3152 152.895 76.1063 152.294 73.4134 155.708C70.7204 159.121 77.0427 164.741 73.455 170.263C71.5603 172.773 64.4488 178.195 55.966 180.204C47.4833 182.213 42.7986 184.523 42.5731 187.333C41.6864 192.353 53.911 196.768 63.6198 196.365C68.1883 196.175 78.9553 196.383 71.0472 203.29C63.139 210.198 63.9681 213.129 71.6771 213.53C96.4161 211.518 136.389 190.819 136.668 187.42C150.128 161.96 139.285 157.806 132.181 158.911C128.619 159.013 117.987 165.779 107.975 165.138C97.9632 164.497 93.347 160.523 87.6298 156.408Z" fill="#DABDA7"/>
<path d="M209.838 135.534C218.762 143.102 217.553 156.105 209.827 173.479C201.89 189.493 191.839 196.158 180.625 194.572C173.169 193.517 174.795 176.616 183.558 159.979C192.322 143.341 201.548 130.116 209.838 135.534Z" fill="#E8D5C7"/>
<path d="M192.633 165.378C190.286 167.345 189.324 167.062 188.207 166.064C187.345 165.294 189.711 163.825 190.816 163.284C190.511 162.037 190.551 159.22 191.53 159.4C192.906 159.653 194.805 160.663 193.608 164.01C193.417 164.545 193.069 165.013 192.633 165.378Z" fill="#3F3D3B"/>
<path d="M191.199 163.108C191.082 163.158 190.953 163.216 190.816 163.284M190.816 163.284C189.711 163.825 187.345 165.294 188.207 166.064C189.324 167.062 190.286 167.345 192.633 165.378C193.069 165.013 193.417 164.545 193.608 164.01C194.805 160.663 192.906 159.653 191.53 159.4C190.551 159.22 190.511 162.037 190.816 163.284Z" stroke="#3F3D3B" stroke-width="1.05003"/>
<line y1="-0.677929" x2="6.57178" y2="-0.677929" transform="matrix(0.922884 0.385078 -0.442054 0.896988 192.748 165.369)" stroke="#3F3D3B" stroke-width="1.35586"/>
<path d="M199.183 167.761L199.628 172.349" stroke="#3F3D3B" stroke-width="1.35586" stroke-linecap="round"/>
<path d="M199.296 166.917L203.895 164.392" stroke="#3F3D3B" stroke-width="1.35586" stroke-linecap="round"/>
<ellipse cx="3.04328" cy="2.5921" rx="3.04328" ry="2.5921" transform="matrix(0.950017 0.312199 -0.296138 0.955145 167.592 173.149)" fill="#3F3D3B"/>
<ellipse cx="3.04547" cy="2.73322" rx="3.04547" ry="2.73322" transform="matrix(0.848554 0.529108 -0.514763 0.857333 187.588 135.905)" fill="#3F3D3B"/>
<path d="M172.412 101.87C161.189 105.137 157.924 124.757 160.159 125.739C179.345 124.431 187.009 100.181 180.471 95.9884C178.485 96.8032 183.636 98.6033 172.412 101.87Z" fill="#9A765C"/>
<path d="M171.395 101.408C160.257 104.938 156.548 125.631 160.158 125.74C177.421 122.119 185.712 99.0785 180.552 95.6996C178.588 96.561 182.533 97.8774 171.395 101.408Z" fill="#C6A083"/>
<path d="M125.005 189.062C122.87 176.765 140.974 163.937 143.037 165.577C150.975 184.48 130.348 203.787 122.991 199.643C122.851 197.351 127.139 201.359 125.005 189.062Z" fill="#9A765C"/>
<path d="M124.05 188.324C122.221 175.978 141.187 162.195 143.038 165.577C147.728 183.796 128.616 203.1 122.739 199.864C122.656 197.569 125.879 200.67 124.05 188.324Z" fill="#C6A083"/>
<path d="M212.44 174.304C205.458 189.665 208.121 204.402 210.325 209.851C216.937 210.75 227.252 199.641 233.175 181.973C239.711 162.482 238.781 148.013 234.126 145.897C229.807 148.965 219.422 158.942 212.44 174.304Z" fill="#DDC4B2"/>
</g>
<defs>
<filter id="filter0_i_3553_4977" x="42.5276" y="33.0234" width="203.522" height="202.823" filterUnits="userSpaceOnUse" color-interpolation-filters="sRGB">
<feFlood flood-opacity="0" result="BackgroundImageFix"/>
<feBlend mode="normal" in="SourceGraphic" in2="BackgroundImageFix" result="shape"/>
<feColorMatrix in="SourceAlpha" type="matrix" values="0 0 0 0 0 0 0 0 0 0 0 0 0 0 0 0 0 0 127 0" result="hardAlpha"/>
<feOffset dx="-2.71171" dy="-0.903905"/>
<feComposite in2="hardAlpha" operator="arithmetic" k2="-1" k3="1"/>
<feColorMatrix type="matrix" values="0 0 0 0 1 0 0 0 0 0.913725 0 0 0 0 0.603922 0 0 0 1 0"/>
<feBlend mode="normal" in2="shape" result="effect1_innerShadow_3553_4977"/>
</filter>
</defs>
</svg>
