<svg width="332" height="111" viewBox="0 0 332 111" fill="none" xmlns="http://www.w3.org/2000/svg">
<path d="M83.0265 56.3651C85.4272 57.3226 87.75 58.9827 91.8604 59.332C94.3723 59.5455 99.6524 61.9113 103.645 60.8323C108.635 59.4835 108.348 60.8997 113.844 61.4222C119.34 61.9447 119.508 62.5685 126.083 62.1301C132.658 61.6917 131.411 62.0289 135.945 61.4725C140.48 60.9161 143.936 61.3206 151.927 61.1688C159.918 61.017 159.008 62.6017 164.335 62.5005C169.663 62.3992 175.108 60.2581 181.227 60.6121C187.347 60.966 186.268 61.927 193.467 61.32C200.665 60.713 221.806 59.6843 231.213 59.8191C240.62 59.9538 240.451 59.3301 248.055 55.2671C255.658 51.2041 255.54 53.2439 252.37 51.4233C248.577 49.7712 242.104 55.5369 236.776 55.6381C231.449 55.7393 227.201 54.8796 222.16 53.5647C217.119 52.2498 211.792 52.351 201.812 55.0485C191.831 57.746 191.612 54.4586 182.492 52.9077C173.371 51.3569 171.213 53.2788 165.768 55.4199C160.323 57.561 154.321 55.1671 148.202 54.8132C142.082 54.4593 131.309 56.7016 127.567 57.7131C123.824 58.7247 115.277 54.3416 110.573 54.2742C105.87 54.2069 99.177 56.6852 96.0075 54.8645C92.8381 53.0439 80.0257 55.1682 83.0265 56.3651Z" fill="url(#paint0_linear_208_75804)"/>
<path d="M307.162 18.4203C341.784 38.8657 343.3 67.1859 206.996 85.4096" stroke="#50C7E1" stroke-width="4.29453" stroke-linecap="round"/>
<path d="M286.648 33.9513C304.711 43.8108 305.97 58.219 236.543 69.7112" stroke="#50C7E1" stroke-width="1.71781" stroke-linecap="round"/>
<path d="M24.0065 19.2792C-10.6152 39.7246 -12.1312 68.0448 124.173 86.2685" stroke="#50C7E1" stroke-width="4.29453" stroke-linecap="round"/>
<path d="M39.0758 29.0156C20.6928 38.2642 18.9517 52.6221 87.9546 66.4349" stroke="#50C7E1" stroke-width="2.57672" stroke-linecap="round"/>
<path d="M100.338 70.0819C126.259 74.7247 139.572 75.5836 163.923 72.7043" stroke="#50C7E1" stroke-width="2.57672" stroke-linecap="round"/>
<defs>
<linearGradient id="paint0_linear_208_75804" x1="174.559" y1="47.9967" x2="174.625" y2="76.8799" gradientUnits="userSpaceOnUse">
<stop stop-color="white"/>
<stop offset="1" stop-color="white" stop-opacity="0"/>
</linearGradient>
</defs>
</svg>
