<svg width="285" height="243" viewBox="0 0 285 243" fill="none" xmlns="http://www.w3.org/2000/svg">
<path d="M179.659 103.263C182.556 115.948 204.614 112.249 191.714 112.911C178.813 113.573 154.246 120.49 153.53 106.529C152.813 92.5687 168.532 82.0189 181.432 81.3568C194.332 80.6948 179.101 92.3836 179.659 103.263Z" fill="#F2E786"/>
<path d="M279.882 168.058C269.49 239.171 224.816 231.198 154.659 234.798C84.5024 238.399 17.8562 232.195 22.2927 174.861C26.7292 117.528 85.506 114.191 155.663 110.59C238.216 106.354 288.905 106.319 279.882 168.058Z" fill="#F2E786"/>
<path d="M188.472 68.5046C190.918 116.16 124.198 128.888 81.9625 131.055C39.727 133.223 31.744 108.972 30.0844 76.6331C31.5599 42.8715 60.7175 10.8974 106.794 8.53275C159.27 5.83968 188.568 32.8679 188.472 68.5046Z" fill="#F2E786"/>
<path d="M44.2669 94.327C45.1178 98.4035 56.2547 121.623 22.2253 109.524C14.4803 108.638 4.58224 103.309 4.35551 98.8914C3.93115 90.6225 13.2162 97.5751 24.3215 87.0093C34.7976 59.8438 43.4161 90.2506 44.2669 94.327Z" fill="#DAA06B"/>
<path d="M55.8681 95.3358C56.1765 101.344 55.5073 100.808 46.3186 109.3C38.779 118.67 25.9094 105.449 25.6011 99.4406C25.2927 93.4323 31.5316 82.1479 39.1304 81.758C42.7407 89.5931 55.5598 89.3274 55.8681 95.3358Z" fill="#DAA06B"/>
<g filter="url(#filter0_d_208_75686)">
<path d="M249.555 156.975C258.08 179.316 210.142 206.479 192.47 207.386C174.798 208.293 127.794 216.159 121.212 175.432C120.306 157.761 141.592 142.625 159.264 141.718C176.935 140.812 248.258 131.697 249.555 156.975Z" fill="url(#paint0_linear_208_75686)"/>
</g>
<path d="M83.724 70.091C84.8073 78.6974 77.4399 85.1712 71.3439 85.1633C65.8657 85.4444 60.511 80.3711 60.1936 74.186C59.8762 68.0008 65.5283 60.117 71.0066 59.8359C77.3732 58.8674 82.8437 63.0973 83.724 70.091Z" fill="#403E3E"/>
<path d="M70.7577 67.4872C70.8303 68.9009 69.6256 70.4327 68.0258 70.5148C66.1059 70.6133 65.4167 69.6862 65.0146 68.1027C64.9421 66.689 65.7939 64.5338 68.0337 64.4188C69.9536 64.3203 70.6852 66.0734 70.7577 67.4872Z" fill="#D9D9D9"/>
<path d="M209.291 131.12C212.4 133.295 216.973 133.605 221.06 134.28L220.876 124.859C220.876 124.859 208.677 123.548 208.318 124.875C207.958 126.202 206.822 129.393 209.291 131.12Z" fill="url(#paint1_linear_208_75686)"/>
<path d="M219.089 119.236C221.457 117.084 226.524 111.779 224.087 109.556C220.73 106.493 217.024 108.56 212.592 113.375C208.003 118.361 207.24 121.164 209.274 123.019C211.308 124.875 212.593 125.14 219.089 119.236Z" fill="url(#paint2_linear_208_75686)"/>
<ellipse rx="2.54966" ry="2.40139" transform="matrix(-0.999606 -0.028078 -0.028078 0.999606 237.193 126.338)" fill="#B39379"/>
<path d="M214.65 119.05C212.94 127.398 220.41 133.522 226.883 133.364C233.356 133.207 240.075 125.033 236.611 114.362C232.334 101.189 232.331 104.008 225.858 104.165C219.385 104.323 217.23 106.452 214.65 119.05Z" fill="#C49E80"/>
<path fill-rule="evenodd" clip-rule="evenodd" d="M219.673 131.075C216.078 128.581 213.586 124.247 214.65 119.05C215.682 114.012 216.645 110.649 217.844 108.416C221.239 109.206 223.983 113.979 224.187 119.815C224.371 125.037 222.464 129.51 219.673 131.075Z" fill="#E1C7B3"/>
<path d="M219.807 133.772C221.206 134.653 223.358 134.858 225.578 134.784C230.849 134.606 239.531 130.134 235.716 126.432C235.074 125.808 233.968 125.458 232.267 125.53C232.267 125.53 218.327 125.013 218.083 126.589C217.838 128.165 216.957 131.977 219.807 133.772Z" fill="url(#paint3_linear_208_75686)"/>
<path d="M211.643 97.5925C211.121 100.469 212.144 104.648 215.924 105.235C219.705 105.821 230.02 106.986 230.543 104.109C231.065 101.233 223.63 96.5805 219.85 95.9938C216.07 95.4071 212.165 94.7161 211.643 97.5925Z" fill="#C49E80"/>
<path d="M214.269 95.3069C214.507 102.069 216.731 106.22 224.495 106.031C232.26 105.842 240.252 101.443 240.015 94.681C239.777 87.919 233.291 82.5903 225.526 82.779C217.761 82.9678 214.032 88.5448 214.269 95.3069Z" fill="#C59E80"/>
<ellipse rx="15.009" ry="4.50968" transform="matrix(-0.897134 -0.44176 -0.50799 0.861363 230.291 88.4061)" fill="#FFD80B"/>
<path d="M224.668 82.7014C223.74 84.2753 226.272 86.2842 230.148 88.1931C234.025 90.102 237.778 91.1881 238.707 89.6141C239.635 88.0401 238.483 83.1167 234.607 81.2078C230.73 79.2989 225.596 81.1274 224.668 82.7014Z" fill="url(#paint4_linear_208_75686)"/>
<path d="M223.776 82.6353C225.559 79.0941 229.21 80.8699 229.228 85.246C229.235 87.0547 227.05 87.5801 225.703 86.3518L224.405 85.169C223.687 84.5144 223.345 83.4915 223.776 82.6353Z" fill="#A78B75"/>
<path fill-rule="evenodd" clip-rule="evenodd" d="M223.79 84.3346C225.006 80.8306 227.31 81.9043 226.723 86.925C226.363 86.8219 226.011 86.6327 225.703 86.3516L224.405 85.1688C224.144 84.9308 223.932 84.6442 223.79 84.3346Z" fill="#E1C7B3"/>
<path d="M243.602 105.93C242.998 105.183 242.149 104.654 241.209 104.482C238.197 103.932 236.34 104.288 234.335 105.68C233.329 106.38 232.853 107.597 232.94 108.836C233.337 114.464 234.297 117.97 236.41 122.465C237.054 123.835 238.402 124.802 239.91 124.889C242.025 125.012 243.749 124.764 245.998 123.425C246.869 122.906 247.434 122.019 247.607 121.019C248.733 114.507 247.586 110.858 243.602 105.93Z" fill="#E67070"/>
<path d="M232.644 107.34C232.866 109.941 237.51 112.719 240.753 112.505C250.389 112.832 246.996 109.764 246.223 107.406C245.27 104.498 243.192 102.869 239.949 103.083C236.705 103.297 232.421 104.738 232.644 107.34Z" fill="#D94B4B"/>
<path d="M239.598 103.107C243.846 103.713 246.644 111.453 246.076 114.964L244.964 115.358C245.631 111.734 242.874 104.25 238.465 103.262C238.999 103.132 239.171 103.131 239.598 103.107Z" fill="#D9D9D9"/>
<rect width="2.30598" height="1.40936" rx="0.704681" transform="matrix(-0.953746 0.286354 0.34643 0.943305 244.995 107.728)" fill="#D9D9D9"/>
<rect width="2.31556" height="1.40244" rx="0.701222" transform="matrix(-0.985934 0.156344 0.193552 0.983218 246.608 114.661)" fill="#D9D9D9"/>
<path d="M231.021 116.137C232.348 119.022 235.915 125.472 239.157 124.248C243.625 122.562 242.9 118.559 239.599 112.849C236.18 106.936 233.562 105.177 230.856 106.198C228.15 107.219 227.381 108.221 231.021 116.137Z" fill="url(#paint5_linear_208_75686)"/>
<path d="M217.02 105.369C222.956 103.4 226.529 103.735 232.526 104.314C233.633 102.415 235.45 102.368 237.042 102.683C237.074 104.081 236.919 104.264 235.185 104.89C237.279 105.028 237.213 105.771 237.021 107.088C235.804 106.795 234.356 106.417 233.092 105.422C227.078 109.302 223.025 111.858 216.601 112.807C214.633 111.517 214.776 110.676 216.714 109.016C216.671 107.914 216.906 107.598 217.895 107.707C216.674 106.766 216.476 106.254 217.02 105.369Z" fill="#FFD80B"/>
<path fill-rule="evenodd" clip-rule="evenodd" d="M217.45 107.342C220.924 107.774 222.742 107.414 225.278 106.912C225.97 106.775 226.715 106.628 227.562 106.483C226.413 106.772 225.53 107.071 224.733 107.342C222.991 107.934 221.656 108.388 218.841 108.283L217.833 107.701C217.853 107.703 217.874 107.705 217.895 107.707C217.727 107.578 217.579 107.457 217.45 107.342ZM216.714 109.008C219.259 109.338 221.133 109.137 223.891 108.501C222.232 109.021 221.89 109.105 219.606 109.405C217.677 109.658 216.884 109.193 216.683 109.042C216.694 109.034 216.704 109.025 216.714 109.016C216.714 109.013 216.714 109.011 216.714 109.008Z" fill="black" fill-opacity="0.07"/>
<ellipse rx="1.31842" ry="2.24206" transform="matrix(-0.999705 0.0243013 0.0350818 0.999384 218.319 95.4491)" fill="#372831"/>
<path fill-rule="evenodd" clip-rule="evenodd" d="M215.924 105.234C212.144 104.648 211.121 100.468 211.643 97.592C211.893 96.2155 212.917 95.656 214.332 95.511C216.046 95.7203 217.195 97.4667 217.916 99.6355C218.796 102.284 218.727 104.822 216.999 105.391C216.601 105.336 216.24 105.283 215.924 105.234Z" fill="#E1C7B3"/>
<path d="M232.887 119.603C229.583 113.847 228.493 109.967 233.373 105.895L233.191 105.74C227.463 109.846 228.401 113.446 232.887 119.603Z" fill="#D94B4B"/>
<path fill-rule="evenodd" clip-rule="evenodd" d="M211.701 100.818C211.747 101.035 211.803 101.25 211.867 101.462C212.13 101.66 212.358 101.821 212.566 101.942C212.851 102.107 213.117 102.208 213.408 102.224C213.697 102.24 213.977 102.169 214.287 102.046C214.594 101.924 214.954 101.74 215.402 101.51C215.528 101.445 215.572 101.298 215.5 101.183C215.428 101.067 215.267 101.027 215.14 101.092C214.686 101.326 214.351 101.496 214.074 101.606C213.8 101.715 213.607 101.754 213.437 101.745C213.268 101.735 213.09 101.677 212.848 101.537C212.602 101.394 212.31 101.179 211.915 100.872C211.853 100.825 211.775 100.807 211.701 100.818Z" fill="#776969"/>
<path fill-rule="evenodd" clip-rule="evenodd" d="M211.606 97.8138C211.617 97.7392 211.629 97.6655 211.643 97.5925C211.77 96.8898 212.1 96.3999 212.58 96.0695C213.046 96.0568 213.651 96.1059 213.896 96.4104C214.698 97.4089 212.277 97.9965 211.606 97.8138Z" fill="#776969"/>
<defs>
<filter id="filter0_d_208_75686" x="116.89" y="135.088" width="146.555" height="86.3777" filterUnits="userSpaceOnUse" color-interpolation-filters="sRGB">
<feFlood flood-opacity="0" result="BackgroundImageFix"/>
<feColorMatrix in="SourceAlpha" type="matrix" values="0 0 0 0 0 0 0 0 0 0 0 0 0 0 0 0 0 0 127 0" result="hardAlpha"/>
<feOffset dx="4.29453" dy="4.29453"/>
<feGaussianBlur stdDeviation="4.29453"/>
<feComposite in2="hardAlpha" operator="out"/>
<feColorMatrix type="matrix" values="0 0 0 0 0 0 0 0 0 0 0 0 0 0 0 0 0 0 0.05 0"/>
<feBlend mode="normal" in2="BackgroundImageFix" result="effect1_dropShadow_208_75686"/>
<feBlend mode="normal" in="SourceGraphic" in2="effect1_dropShadow_208_75686" result="shape"/>
</filter>
<linearGradient id="paint0_linear_208_75686" x1="100.262" y1="67.2564" x2="190.322" y2="259.296" gradientUnits="userSpaceOnUse">
<stop offset="0.396047" stop-color="#F2E786"/>
<stop offset="1" stop-color="#EFAF74"/>
</linearGradient>
<linearGradient id="paint1_linear_208_75686" x1="221.187" y1="129.399" x2="207.712" y2="129.047" gradientUnits="userSpaceOnUse">
<stop stop-color="#B39278"/>
<stop offset="1" stop-color="#C49E80"/>
</linearGradient>
<linearGradient id="paint2_linear_208_75686" x1="208.808" y1="122.594" x2="222.24" y2="107.87" gradientUnits="userSpaceOnUse">
<stop stop-color="#C49E80"/>
<stop offset="1" stop-color="#B29278"/>
</linearGradient>
<linearGradient id="paint3_linear_208_75686" x1="234.557" y1="130.589" x2="217.896" y2="131.729" gradientUnits="userSpaceOnUse">
<stop stop-color="#C49E80"/>
<stop offset="1" stop-color="#B29278"/>
</linearGradient>
<linearGradient id="paint4_linear_208_75686" x1="234.607" y1="81.2078" x2="231.412" y2="87.6964" gradientUnits="userSpaceOnUse">
<stop stop-color="#FFD80B"/>
<stop offset="1" stop-color="#E7CE4F"/>
</linearGradient>
<linearGradient id="paint5_linear_208_75686" x1="231.476" y1="105.964" x2="238.474" y2="124.506" gradientUnits="userSpaceOnUse">
<stop stop-color="#C49E80"/>
<stop offset="1" stop-color="#B29278"/>
</linearGradient>
</defs>
</svg>
