<svg width="1602" height="1260" viewBox="0 0 1602 1260" fill="none" xmlns="http://www.w3.org/2000/svg">
<g filter="url(#filter0_d_211_6841)">
<path d="M1080.4 928.548C1074.72 932.784 1064.88 929.408 1058.41 921.009C1051.93 912.609 1051.29 902.367 1056.97 898.131" stroke="url(#paint0_linear_211_6841)" stroke-width="8"/>
<path d="M999.951 729.123C1001.2 721.381 1000.22 716.402 987.342 713.157C983.869 711.294 960.504 743.696 980.473 747.387C997.365 750.51 998.385 738.801 999.951 729.123Z" stroke="#A4A0A0" stroke-width="10"/>
<g filter="url(#filter1_i_211_6841)">
<path d="M982.688 708.982L970.688 725.483C837.152 607.713 769.629 711.083 611.841 511.858C473.291 336.923 325.594 244.91 243.736 310.413C187.367 460.021 267.111 722.174 523.142 765.709C790.979 811.25 956.188 687.482 969.688 729.983C673.781 846.249 156.656 855.199 181.071 480.607C186.799 392.712 209.514 337.797 243.736 310.413C261.077 264.389 291.3 229.016 333.234 213.935C481.463 160.629 464.713 253.135 644.068 443.036C823.423 632.937 905.054 579.529 982.688 708.982Z" fill="url(#paint1_linear_211_6841)"/>
</g>
<path d="M1010.33 729.254C1013.05 732.781 1014.4 736.52 1014.59 739.551C1014.79 742.623 1013.83 744.36 1012.75 745.16C1011.68 745.96 1009.72 746.406 1006.77 745.39C1003.86 744.387 1000.56 742.098 997.845 738.57C995.127 735.043 993.776 731.304 993.581 728.273C993.384 725.201 994.349 723.464 995.421 722.664C996.493 721.864 998.453 721.418 1001.41 722.434C1004.32 723.437 1007.61 725.726 1010.33 729.254Z" stroke="url(#paint2_linear_211_6841)" stroke-width="10"/>
<g filter="url(#filter2_d_211_6841)">
<path d="M736.688 1051.48C625.872 1085.53 516.789 1108.79 495.188 1038.48C473.587 968.179 556.872 911.531 667.688 877.482C778.505 843.434 885.5 818.474 907.101 888.778C928.702 959.081 847.505 1017.43 736.688 1051.48Z" fill="url(#paint3_linear_211_6841)"/>
<path d="M736.248 1050.05C680.835 1067.07 626.036 1081.34 582.439 1082.62C560.645 1083.25 541.792 1080.64 527.099 1073.61C512.468 1066.61 501.895 1055.2 496.622 1038.04C486.067 1003.69 501.024 972.528 532.754 945.529C564.504 918.513 612.808 895.914 668.129 878.916C723.554 861.887 777.831 847.196 820.91 845.497C842.443 844.648 861.031 847.053 875.521 853.921C889.948 860.758 900.393 872.052 905.668 889.218C916.229 923.592 901.766 955.184 870.561 982.599C839.335 1010.03 791.558 1033.05 736.248 1050.05Z" stroke="#E6C8A5" stroke-width="3"/>
</g>
<path d="M1007.41 737.754C960.38 786.825 935.188 798.982 919.188 855.983" stroke="#E8EEFF" stroke-width="5"/>
<g filter="url(#filter3_d_211_6841)">
<circle cx="873.581" cy="887.375" r="10.5435" transform="rotate(14.8402 873.581 887.375)" fill="#C8B77A"/>
</g>
<circle cx="935.11" cy="824.904" r="12.2083" transform="rotate(6.01859 935.11 824.904)" fill="#F5F5EB"/>
<circle cx="935.11" cy="824.904" r="12.2083" transform="rotate(6.01859 935.11 824.904)" fill="url(#paint4_radial_211_6841)"/>
<circle cx="935.11" cy="824.904" r="12.2083" transform="rotate(6.01859 935.11 824.904)" fill="url(#paint5_radial_211_6841)"/>
<path d="M928.706 802.477L941.063 781.657C954.14 785.163 957.892 785.393 965.836 800.359L947.907 816.123C936.509 812.62 936.745 816.76 928.706 802.477Z" fill="url(#paint6_linear_211_6841)"/>
<path d="M965.776 800.114C954.435 794.795 948.715 790.729 939.942 780.999C948.647 782.854 952.991 784.95 956.355 786.925C959.718 788.901 959.462 790.728 965.776 800.114Z" fill="#A2E7EC"/>
<g filter="url(#filter4_d_211_6841)">
<circle cx="963.72" cy="776.514" r="12.7632" transform="rotate(6.01859 963.72 776.514)" fill="#F5F5EB"/>
<circle cx="963.72" cy="776.514" r="12.7632" transform="rotate(6.01859 963.72 776.514)" fill="url(#paint7_radial_211_6841)"/>
</g>
<ellipse cx="982.226" cy="761.007" rx="12.2083" ry="13.3182" transform="rotate(6.01859 982.226 761.007)" fill="#F5F5EB"/>
<ellipse cx="982.226" cy="761.007" rx="12.2083" ry="13.3182" transform="rotate(6.01859 982.226 761.007)" fill="url(#paint8_radial_211_6841)"/>
<circle cx="925.72" cy="847.514" r="12.7632" transform="rotate(6.01859 925.72 847.514)" fill="url(#paint9_radial_211_6841)"/>
<path d="M1114.72 736.69C1084.1 732.541 1105.77 755.637 1076.4 751.657" stroke="#E8EEFF" stroke-width="5" stroke-linecap="round"/>
<g filter="url(#filter5_d_211_6841)">
<rect x="1094.44" y="642.099" width="412.863" height="215.31" rx="20" transform="rotate(-8.27517 1094.44 642.099)" fill="url(#paint10_linear_211_6841)" shape-rendering="crispEdges"/>
</g>
<path d="M1118.24 720.907L1110.12 665.07C1108.93 656.872 1114.6 649.26 1122.8 648.067L1477.52 596.477C1485.71 595.285 1493.33 600.964 1494.52 609.162L1518.16 771.675C1519.35 779.873 1513.67 787.486 1505.47 788.678L1150.76 840.268C1142.56 841.46 1134.95 835.781 1133.75 827.583L1125.84 773.164" stroke="#D1D1D1" stroke-width="3"/>
<rect x="1114.29" y="732.299" width="9.98861" height="25.5265" rx="4.99431" transform="rotate(-8.27517 1114.29 732.299)" fill="url(#paint11_linear_211_6841)"/>
<path d="M1119.83 739.235C1068.9 792.372 1050.18 692.783 1001.34 743.744" stroke="#E8EEFF" stroke-width="5" stroke-linecap="round"/>
<path d="M1052.69 887.982C1045.69 863.482 1087.8 796.822 1008.58 740.044" stroke="#E8EEFF" stroke-width="5" stroke-linecap="round"/>
<circle cx="1089.64" cy="753.054" r="12.2083" transform="rotate(6.01859 1089.64 753.054)" fill="#F5F5EB"/>
<circle cx="1089.64" cy="753.054" r="12.2083" transform="rotate(6.01859 1089.64 753.054)" fill="url(#paint12_radial_211_6841)"/>
<g filter="url(#filter6_d_211_6841)">
<path d="M1032.18 720.933L1056.07 724.823C1057.59 738.275 1058.75 741.852 1047.72 754.717L1026.5 743.794C1025.59 731.905 1021.82 733.638 1032.18 720.933Z" fill="url(#paint13_linear_211_6841)"/>
</g>
<path d="M1048.02 756.517C1048.82 744.016 1050.51 737.205 1056.36 725.483C1057.82 734.262 1057.46 739.072 1056.85 742.925C1056.24 746.778 1054.44 747.208 1048.02 756.517Z" fill="#C6908C"/>
<circle cx="1065.33" cy="745.469" r="12.7632" transform="rotate(6.01859 1065.33 745.469)" fill="#F5F5EB"/>
<circle cx="1065.33" cy="745.469" r="12.7632" transform="rotate(6.01859 1065.33 745.469)" fill="url(#paint14_radial_211_6841)"/>
<ellipse cx="1054.23" cy="807.007" rx="12.2083" ry="13.3182" transform="rotate(6.01859 1054.23 807.007)" fill="#F5F5EB"/>
<ellipse cx="1054.23" cy="807.007" rx="12.2083" ry="13.3182" transform="rotate(6.01859 1054.23 807.007)" fill="url(#paint15_radial_211_6841)"/>
<ellipse cx="1031.23" cy="762.007" rx="12.2083" ry="13.3182" transform="rotate(6.01859 1031.23 762.007)" fill="#F5F5EB"/>
<ellipse cx="1031.23" cy="762.007" rx="12.2083" ry="13.3182" transform="rotate(6.01859 1031.23 762.007)" fill="url(#paint16_radial_211_6841)"/>
<ellipse cx="1057.23" cy="833.007" rx="12.2083" ry="13.3182" transform="rotate(6.01859 1057.23 833.007)" fill="url(#paint17_radial_211_6841)"/>
<ellipse cx="1051.32" cy="857.842" rx="12.2083" ry="13.3182" transform="rotate(-17.4016 1051.32 857.842)" fill="#F0D798"/>
<ellipse cx="1051.32" cy="857.842" rx="12.2083" ry="13.3182" transform="rotate(-17.4016 1051.32 857.842)" fill="url(#paint18_radial_211_6841)"/>
<ellipse cx="1053.32" cy="883.842" rx="12.2083" ry="13.3182" transform="rotate(-17.4016 1053.32 883.842)" fill="#F5F5EB"/>
<ellipse cx="1053.32" cy="883.842" rx="12.2083" ry="13.3182" transform="rotate(-17.4016 1053.32 883.842)" fill="url(#paint19_radial_211_6841)"/>
<ellipse cx="1046.23" cy="782.007" rx="12.2083" ry="13.3182" transform="rotate(6.01859 1046.23 782.007)" fill="#F5F5EB"/>
<ellipse cx="1046.23" cy="782.007" rx="12.2083" ry="13.3182" transform="rotate(6.01859 1046.23 782.007)" fill="url(#paint20_radial_211_6841)"/>
<path d="M1176.1 708.31L1170.94 730.816L1171.1 730.938C1171.31 730.713 1171.65 730.519 1172.11 730.355C1172.61 730.136 1173.26 729.968 1174.07 729.851C1175.35 729.664 1176.59 729.8 1177.77 730.259C1178.95 730.718 1179.92 731.377 1180.68 732.237C1181.08 732.711 1181.42 733.196 1181.69 733.691C1181.95 734.186 1182.22 734.85 1182.49 735.685C1182.71 736.526 1182.94 737.608 1183.18 738.931C1183.41 740.207 1183.67 741.842 1183.96 743.837C1184.21 745.499 1184.38 746.88 1184.49 747.98C1184.6 749.032 1184.65 749.921 1184.66 750.647C1184.63 751.428 1184.53 752.097 1184.37 752.654C1184.26 753.204 1184.08 753.788 1183.83 754.406C1183.11 756.112 1182 757.51 1180.51 758.6C1179.07 759.683 1177.35 760.369 1175.35 760.66C1173.36 760.95 1171.51 760.781 1169.82 760.154C1168.12 759.48 1166.69 758.452 1165.52 757.07C1165.05 756.555 1164.66 756.054 1164.35 755.566C1164.09 755.071 1163.85 754.45 1163.64 753.704C1163.4 753.012 1163.18 752.147 1162.98 751.109C1162.77 750.024 1162.55 748.65 1162.3 746.987C1162.08 745.42 1161.91 744.134 1161.81 743.129C1161.71 742.077 1161.65 741.164 1161.63 740.391C1161.63 739.664 1161.68 739.002 1161.78 738.405C1161.88 737.76 1162 737.087 1162.14 736.388L1167.98 709.491L1176.1 708.31ZM1175.96 739.835C1175.8 738.743 1175.32 737.916 1174.51 737.354C1173.7 736.793 1172.82 736.581 1171.87 736.719C1170.92 736.858 1170.14 737.311 1169.52 738.08C1168.9 738.848 1168.68 739.779 1168.84 740.871L1170.2 750.276C1170.36 751.369 1170.85 752.196 1171.66 752.757C1172.46 753.319 1173.34 753.53 1174.29 753.392C1175.24 753.254 1176.03 752.8 1176.64 752.032C1177.26 751.263 1177.49 750.333 1177.33 749.24L1175.96 739.835ZM1203.65 756.107L1202.55 748.554L1188.09 750.658L1187.09 743.818L1192.28 705.957L1199.98 704.838L1194.36 742.761L1201.56 741.714L1199.45 727.251L1206.72 726.194L1208.83 740.657L1212.32 740.15L1213.31 746.99L1209.82 747.497L1210.92 755.05L1203.65 756.107ZM1230.16 752.251L1229.06 744.699L1214.6 746.802L1213.6 739.962L1218.79 702.101L1226.49 700.982L1220.87 738.905L1228.07 737.859L1225.96 723.395L1233.23 722.338L1235.34 736.802L1238.83 736.294L1239.82 743.134L1236.33 743.642L1237.43 751.194L1230.16 752.251ZM1284.65 744.327L1277.27 693.596L1284.54 692.539L1287.7 714.271L1296.67 712.965L1293.51 691.234L1300.78 690.177L1308.16 740.907L1300.89 741.964L1297.61 719.378L1288.63 720.683L1291.92 743.27L1284.65 744.327ZM1327.08 720.038L1320.85 702.174L1320.7 702.195L1319.81 721.095L1327.08 720.038ZM1311.71 740.391L1315.66 688.013L1321.71 687.132L1340.42 736.215L1333.15 737.272L1329.43 726.682L1319.53 728.122L1318.97 739.334L1311.71 740.391ZM1364.98 717.873L1365.44 721.008C1365.67 722.576 1365.57 724.117 1365.16 725.632C1364.79 727.092 1364.17 728.444 1363.28 729.689C1362.39 730.933 1361.29 731.992 1359.96 732.864C1358.67 733.682 1357.22 734.208 1355.6 734.443C1354.23 734.644 1352.8 734.657 1351.32 734.485C1349.84 734.312 1348.46 733.833 1347.18 733.049C1345.9 732.265 1344.78 731.192 1343.8 729.83C1342.87 728.414 1342.23 726.542 1341.89 724.214L1337.83 696.284C1337.59 694.621 1337.65 693.036 1338.01 691.528C1338.38 690.02 1339 688.668 1339.9 687.471C1340.79 686.274 1341.91 685.287 1343.25 684.51C1344.63 683.678 1346.2 683.134 1347.96 682.879C1351.38 682.381 1354.32 683.093 1356.78 685.015C1357.99 685.956 1358.98 687.144 1359.78 688.581C1360.61 689.964 1361.15 691.534 1361.41 693.292L1361.82 696.142L1354.55 697.199L1354.2 694.776C1353.99 693.351 1353.41 692.175 1352.45 691.247C1351.49 690.32 1350.32 689.956 1348.94 690.157C1347.14 690.419 1346.01 691.165 1345.56 692.395C1345.15 693.57 1345.07 695.013 1345.32 696.723L1349.09 722.658C1349.3 724.131 1349.79 725.321 1350.55 726.229C1351.36 727.129 1352.6 727.459 1354.26 727.217C1354.74 727.148 1355.23 727.004 1355.73 726.786C1356.27 726.513 1356.75 726.152 1357.17 725.703C1357.54 725.261 1357.82 724.686 1358.01 723.98C1358.2 723.273 1358.22 722.421 1358.08 721.424L1357.71 718.93L1364.98 717.873ZM1373.01 731.474L1365.64 680.744L1372.9 679.687L1376.27 702.844L1376.41 702.823L1383.66 678.122L1390.93 677.065L1383.98 698.812L1400.16 727.526L1392.47 728.645L1380.93 707.332L1378.07 715.241L1380.28 730.417L1373.01 731.474ZM1403.35 727.062L1395.97 676.332L1417.63 673.182L1418.63 680.022L1404.24 682.115L1406.4 697.006L1418.94 695.182L1419.94 702.022L1407.4 703.846L1409.56 718.738L1423.95 716.644L1425.01 723.912L1403.35 727.062ZM1430.61 678.28L1432.91 694.097L1437.04 693.496C1438.32 693.31 1439.32 692.995 1440.03 692.552C1440.74 692.061 1441.25 691.452 1441.58 690.725C1441.87 690.005 1442.01 689.159 1442.02 688.189C1442.01 687.17 1441.92 686.02 1441.73 684.738C1441.55 683.455 1441.31 682.349 1441.03 681.42C1440.74 680.443 1440.33 679.63 1439.8 678.979C1438.71 677.78 1436.9 677.364 1434.38 677.73L1430.61 678.28ZM1429.72 723.227L1422.34 672.497L1434.03 670.797C1442.58 669.553 1447.58 673.895 1449.02 683.823C1449.46 686.816 1449.35 689.426 1448.7 691.654C1448.11 693.875 1446.74 695.797 1444.59 697.418L1455.8 719.434L1448.11 720.553L1438.19 699.878L1433.84 700.51L1436.99 722.17L1429.72 723.227ZM1478.32 679.271L1471.05 680.328L1470.81 678.689C1470.57 677.027 1469.96 675.66 1468.98 674.59C1468.04 673.466 1466.64 673.038 1464.79 673.308C1463.79 673.453 1463.01 673.76 1462.45 674.23C1461.89 674.7 1461.46 675.247 1461.16 675.873C1460.87 676.545 1460.71 677.296 1460.69 678.124C1460.66 678.905 1460.7 679.723 1460.83 680.578C1460.97 681.575 1461.12 682.403 1461.26 683.061C1461.45 683.712 1461.73 684.278 1462.09 684.759C1462.45 685.241 1462.92 685.633 1463.5 685.937C1464.12 686.234 1464.94 686.504 1465.95 686.745L1471.82 688.146C1473.53 688.529 1474.94 689.075 1476.06 689.785C1477.18 690.447 1478.1 691.283 1478.83 692.293C1479.52 693.357 1480.06 694.611 1480.47 696.056C1480.87 697.453 1481.2 699.078 1481.47 700.931C1481.78 703.068 1481.86 705.095 1481.7 707.009C1481.53 708.876 1481.07 710.52 1480.31 711.941C1479.5 713.416 1478.35 714.651 1476.84 715.646C1475.34 716.641 1473.42 717.308 1471.09 717.646C1469.34 717.902 1467.65 717.831 1466.04 717.435C1464.43 717.038 1463 716.373 1461.75 715.44C1460.5 714.506 1459.44 713.375 1458.57 712.047C1457.73 710.664 1457.19 709.118 1456.95 707.408L1456.55 704.7L1463.82 703.643L1464.15 705.923C1464.34 707.253 1464.9 708.409 1465.82 709.391C1466.78 710.319 1468.19 710.648 1470.04 710.379C1471.27 710.199 1472.2 709.895 1472.81 709.465C1473.47 708.982 1473.94 708.38 1474.23 707.659C1474.51 706.939 1474.61 706.124 1474.53 705.215C1474.48 704.251 1474.38 703.199 1474.21 702.059C1474.02 700.729 1473.81 699.644 1473.59 698.802C1473.37 697.961 1473.08 697.3 1472.72 696.819C1472.31 696.345 1471.8 695.983 1471.18 695.733C1470.61 695.477 1469.85 695.224 1468.89 694.976L1463.38 693.595C1460.05 692.768 1457.7 691.389 1456.3 689.458C1454.94 687.473 1454.03 684.889 1453.57 681.706C1453.29 679.806 1453.29 677.963 1453.57 676.177C1453.84 674.391 1454.41 672.804 1455.28 671.417C1456.09 670.037 1457.21 668.881 1458.63 667.947C1460.08 666.959 1461.88 666.31 1464.02 665.999C1465.82 665.736 1467.51 665.83 1469.08 666.281C1470.7 666.725 1472.13 667.414 1473.38 668.347C1475.9 670.31 1477.37 672.763 1477.8 675.708L1478.32 679.271Z" fill="#2A6DCC"/>
<path d="M563.406 1028.99L550.142 988.843L545.01 996.068L542.638 988.89L547.77 981.665L554.55 979.425L570.186 1026.75L563.406 1028.99ZM580.094 1023.48L577.986 1017.09L582.595 989.99C582.835 988.633 582.86 987.519 582.67 986.648C582.466 985.732 582.152 984.632 581.727 983.347C581.537 982.771 581.317 982.18 581.068 981.574C580.848 980.91 580.547 980.37 580.164 979.956C579.782 979.542 579.318 979.253 578.772 979.089C578.212 978.881 577.511 978.916 576.669 979.194C575.65 979.531 574.925 980.09 574.495 980.871C574.11 981.637 574.1 982.574 574.466 983.682L575.739 987.537L568.96 989.777L567.73 986.055C567.262 984.637 567.088 983.22 567.21 981.803C567.332 980.387 567.704 979.06 568.327 977.822C568.906 976.598 569.728 975.516 570.793 974.574C571.843 973.588 573.078 972.861 574.495 972.393C576.268 971.807 577.884 971.641 579.345 971.896C580.835 972.092 582.183 972.605 583.391 973.434C584.555 974.279 585.548 975.351 586.371 976.652C587.239 977.938 587.936 979.379 588.463 980.974C588.843 982.126 589.143 983.108 589.363 983.92C589.567 984.688 589.72 985.449 589.821 986.202C589.923 986.955 589.935 987.737 589.859 988.548C589.784 989.36 589.648 990.363 589.453 991.558L585.83 1014.06L598.059 1010.02L600.299 1016.8L580.094 1023.48ZM604.824 1015.3L602.716 1008.92L607.325 981.819C607.565 980.462 607.59 979.348 607.4 978.477C607.196 977.561 606.882 976.461 606.457 975.176C606.267 974.6 606.047 974.009 605.798 973.403C605.578 972.739 605.277 972.199 604.895 971.785C604.512 971.371 604.048 971.082 603.502 970.918C602.942 970.71 602.241 970.745 601.399 971.023C600.38 971.36 599.655 971.919 599.225 972.7C598.84 973.466 598.83 974.403 599.196 975.511L600.469 979.366L593.69 981.606L592.46 977.884C591.992 976.466 591.818 975.049 591.94 973.632C592.062 972.216 592.434 970.889 593.057 969.651C593.636 968.428 594.458 967.345 595.523 966.403C596.573 965.417 597.808 964.69 599.226 964.222C600.998 963.636 602.614 963.471 604.075 963.725C605.565 963.921 606.914 964.434 608.121 965.263C609.285 966.108 610.278 967.18 611.101 968.481C611.969 969.767 612.666 971.208 613.193 972.803C613.573 973.955 613.873 974.937 614.093 975.75C614.297 976.517 614.45 977.278 614.551 978.031C614.653 978.784 614.665 979.566 614.59 980.377C614.514 981.189 614.378 982.192 614.183 983.387L610.56 1005.89L622.79 1001.85L625.03 1008.63L604.824 1015.3ZM642.817 1002.75L627.181 955.427L637.35 952.068C639.211 951.453 640.932 951.155 642.51 951.174C644.089 951.193 645.66 951.632 647.222 952.492C648.784 953.352 650.065 954.551 651.064 956.088C652.049 957.581 653.01 959.746 653.947 962.582C654.65 964.709 655.11 966.547 655.327 968.097C655.588 969.633 655.533 971.175 655.16 972.723C654.742 974.582 653.903 976.21 652.645 977.609C651.373 978.963 649.473 980.057 646.948 980.892L643.492 982.034L649.597 1000.51L642.817 1002.75ZM636.069 959.568L641.383 975.653L644.64 974.577C646.014 974.123 647.011 973.572 647.633 972.925C648.254 972.277 648.625 971.54 648.746 970.714C648.88 969.932 648.809 969.047 648.531 968.057C648.298 967.053 647.983 965.953 647.588 964.756C647.222 963.649 646.856 962.615 646.489 961.654C646.108 960.65 645.616 959.83 645.013 959.193C644.409 958.557 643.687 958.157 642.847 957.992C642.006 957.828 640.921 957.965 639.592 958.404L636.069 959.568ZM663.136 950.625L668.011 965.381L671.866 964.107C673.062 963.712 673.964 963.242 674.57 962.698C675.162 962.109 675.555 961.438 675.749 960.686C675.898 959.949 675.893 959.115 675.733 958.185C675.559 957.21 675.274 956.125 674.878 954.929C674.483 953.732 674.073 952.713 673.647 951.871C673.207 950.984 672.677 950.274 672.059 949.741C670.807 948.779 669.007 948.686 666.658 949.461L663.136 950.625ZM669.884 993.808L654.248 946.485L665.148 942.883C673.124 940.248 678.642 943.561 681.702 952.822C682.624 955.613 682.964 958.13 682.722 960.373C682.525 962.601 681.538 964.671 679.762 966.585L694.21 985.771L687.032 988.143L674.042 970.023L669.987 971.363L676.663 991.568L669.884 993.808ZM685.838 948.432C685.209 946.527 684.985 944.733 685.166 943.051C685.348 941.37 685.832 939.858 686.617 938.517C687.373 937.236 688.335 936.131 689.504 935.205C690.716 934.263 692.009 933.566 693.383 933.112C694.757 932.658 696.189 932.455 697.679 932.504C699.214 932.537 700.689 932.836 702.104 933.401C703.489 934.024 704.756 934.957 705.904 936.2C707.052 937.442 707.94 939.016 708.57 940.922L716.827 965.913C717.486 967.907 717.717 969.723 717.521 971.36C717.325 972.998 716.849 974.458 716.093 975.74C715.307 977.08 714.308 978.221 713.095 979.163C711.927 980.089 710.656 980.78 709.282 981.233C707.909 981.687 706.455 981.897 704.92 981.864C703.43 981.816 701.992 981.48 700.606 980.856C699.191 980.292 697.917 979.41 696.784 978.212C695.65 977.014 694.754 975.418 694.096 973.424L685.838 948.432ZM700.875 971.184C701.417 972.823 702.263 973.895 703.412 974.4C704.592 974.846 705.802 974.864 707.042 974.454C708.283 974.044 709.222 973.316 709.859 972.27C710.526 971.165 710.589 969.793 710.047 968.153L701.79 943.162C701.249 941.522 700.388 940.48 699.209 940.034C698.059 939.529 696.864 939.482 695.623 939.892C694.382 940.301 693.428 941.059 692.761 942.164C692.124 943.21 692.076 944.553 692.618 946.192L700.875 971.184ZM726.6 922.579L738.547 958.737C739.616 961.971 739.489 965.011 738.169 967.856C737.501 969.256 736.56 970.501 735.347 971.589C734.179 972.664 732.664 973.508 730.803 974.123C728.632 974.84 726.661 974.975 724.891 974.528C723.151 974.022 721.707 973.442 720.557 972.79L724.469 966.779C725.118 967.106 725.811 967.344 726.548 967.493C727.315 967.584 728.053 967.512 728.762 967.278C729.161 967.146 729.604 966.926 730.092 966.617C730.565 966.264 730.972 965.786 731.313 965.181C731.669 964.622 731.885 963.936 731.961 963.124C732.022 962.269 731.855 961.243 731.46 960.046L719.821 924.819L726.6 922.579ZM748.617 967.795L732.982 920.471L753.187 913.795L755.295 920.176L741.869 924.612L746.459 938.503L758.157 934.638L760.265 941.019L748.567 944.884L753.157 958.775L766.583 954.339L768.823 961.119L748.617 967.795ZM790.295 939.059L791.261 941.983C791.744 943.446 791.917 944.937 791.78 946.456C791.673 947.917 791.301 949.318 790.662 950.659C790.024 952 789.143 953.201 788.019 954.26C786.924 955.261 785.623 956.01 784.117 956.508C782.832 956.933 781.466 957.187 780.02 957.272C778.573 957.357 777.172 957.132 775.816 956.597C774.459 956.062 773.2 955.225 772.037 954.085C770.904 952.887 769.979 951.202 769.261 949.031L760.653 922.976C760.14 921.425 759.93 919.898 760.023 918.393C760.115 916.888 760.488 915.487 761.141 914.19C761.794 912.893 762.697 911.759 763.85 910.788C765.034 909.758 766.445 908.972 768.085 908.43C771.275 907.376 774.211 907.561 776.893 908.985C778.205 909.682 779.361 910.652 780.361 911.894C781.391 913.077 782.177 914.489 782.718 916.128L783.597 918.787L776.817 921.027L776.071 918.767C775.631 917.438 774.874 916.41 773.799 915.684C772.723 914.958 771.543 914.807 770.258 915.232C768.574 915.788 767.62 916.693 767.395 917.947C767.2 919.142 767.366 920.537 767.893 922.132L775.887 946.326C776.341 947.699 777.01 948.756 777.893 949.497C778.821 950.222 780.06 950.329 781.611 949.816C782.054 949.67 782.498 949.45 782.941 949.156C783.414 948.803 783.814 948.376 784.14 947.875C784.421 947.389 784.593 946.792 784.654 946.083C784.714 945.375 784.591 944.556 784.284 943.625L783.515 941.299L790.295 939.059ZM804.738 949.253L791.21 908.309L783.367 910.901L781.259 904.52L803.724 897.097L805.833 903.478L797.99 906.069L811.517 947.013L804.738 949.253ZM833.153 902.487L826.374 904.727L825.868 903.198C825.356 901.647 824.54 900.443 823.421 899.584C822.331 898.666 820.922 898.492 819.194 899.063C818.264 899.371 817.569 899.797 817.11 900.342C816.651 900.887 816.332 901.483 816.154 902.132C815.989 902.825 815.965 903.571 816.081 904.368C816.183 905.121 816.365 905.896 816.628 906.694C816.936 907.624 817.214 908.392 817.464 908.998C817.757 909.589 818.117 910.084 818.544 910.484C818.971 910.883 819.487 911.18 820.091 911.373C820.74 911.552 821.566 911.672 822.57 911.734L828.435 912.082C830.132 912.16 831.577 912.444 832.771 912.934C833.951 913.38 834.975 914.025 835.843 914.868C836.682 915.771 837.417 916.879 838.048 918.194C838.664 919.465 839.258 920.965 839.829 922.693C840.488 924.687 840.903 926.614 841.076 928.474C841.233 930.289 841.066 931.942 840.575 933.431C840.055 934.979 839.158 936.356 837.886 937.563C836.614 938.77 834.892 939.732 832.721 940.449C831.081 940.991 829.457 941.208 827.849 941.1C826.241 940.993 824.759 940.598 823.403 939.915C822.047 939.233 820.839 938.33 819.78 937.205C818.75 936.022 817.971 934.633 817.444 933.038L816.61 930.512L823.389 928.272L824.092 930.399C824.502 931.64 825.23 932.652 826.276 933.437C827.351 934.163 828.753 934.241 830.481 933.67C831.633 933.289 832.468 932.841 832.986 932.326C833.533 931.752 833.882 931.096 834.031 930.359C834.181 929.621 834.139 928.824 833.905 927.968C833.701 927.052 833.423 926.063 833.071 924.999C832.662 923.759 832.28 922.754 831.928 921.986C831.576 921.217 831.187 920.633 830.76 920.234C830.289 919.849 829.736 919.589 829.102 919.455C828.512 919.306 827.737 919.193 826.778 919.117L821.267 918.726C817.948 918.496 815.456 917.574 813.793 915.961C812.159 914.289 810.852 911.969 809.871 909C809.285 907.228 808.973 905.463 808.933 903.707C808.893 901.951 809.171 900.336 809.765 898.861C810.315 897.402 811.189 896.106 812.387 894.972C813.615 893.78 815.226 892.855 817.22 892.196C818.904 891.64 820.535 891.445 822.114 891.611C823.737 891.763 825.226 892.18 826.582 892.863C829.323 894.316 831.147 896.417 832.055 899.164L833.153 902.487Z" fill="url(#paint21_linear_211_6841)"/>
<path d="M669.097 1041.79L664.496 1027.87L667.298 1026.94L667.742 1028.29L667.797 1028.27C667.945 1027.73 668.175 1027.26 668.487 1026.85C668.811 1026.42 669.294 1026.1 669.935 1025.89C670.283 1025.77 670.652 1025.72 671.042 1025.73C671.426 1025.73 671.801 1025.82 672.167 1026C672.532 1026.19 672.87 1026.47 673.18 1026.85C673.484 1027.22 673.739 1027.72 673.944 1028.34L677.475 1039.02L674.673 1039.95L671.488 1030.31C671.318 1029.8 671.066 1029.43 670.731 1029.22C670.396 1029 670.009 1028.97 669.57 1029.11C669.039 1029.29 668.727 1029.58 668.634 1029.97C668.542 1030.37 668.598 1030.88 668.804 1031.5L671.899 1040.87L669.097 1041.79ZM688.713 1019.86L690.018 1034.88L687.546 1035.7L683.276 1027.94L683.221 1027.95L684.415 1036.73L681.943 1037.55L674.046 1024.71L677.012 1023.73L681.574 1031.82L681.629 1031.8L680.336 1022.63L682.533 1021.91L686.875 1030.07L686.93 1030.05L685.747 1020.84L688.713 1019.86ZM694.664 1033.34L688.202 1013.79L691.004 1012.86L693.772 1021.24L697.233 1020.1L694.465 1011.72L697.267 1010.79L703.728 1030.35L700.927 1031.28L698.05 1022.57L694.589 1023.71L697.466 1032.42L694.664 1033.34ZM711.495 1027.78L711.024 1026.35L710.969 1026.37C710.772 1027.01 710.526 1027.52 710.233 1027.93C709.957 1028.32 709.481 1028.63 708.803 1028.86C708.474 1028.96 708.117 1029.02 707.732 1029.03C707.373 1029.04 706.992 1028.97 706.59 1028.79C706.194 1028.64 705.816 1028.36 705.457 1027.95C705.111 1027.52 704.811 1026.91 704.557 1026.15C704.296 1025.36 704.134 1024.65 704.068 1024.02C703.997 1023.38 704.068 1022.79 704.283 1022.28C704.486 1021.78 704.841 1021.35 705.348 1020.98C705.849 1020.59 706.539 1020.25 707.418 1019.96C707.509 1019.93 707.61 1019.9 707.72 1019.86C707.83 1019.82 707.934 1019.8 708.031 1019.79C708.129 1019.78 708.242 1019.75 708.37 1019.71C708.498 1019.66 708.638 1019.63 708.791 1019.6L708.31 1018.14C708.153 1017.67 707.922 1017.31 707.618 1017.06C707.313 1016.82 706.896 1016.78 706.365 1016.96C705.998 1017.08 705.699 1017.31 705.466 1017.65C705.252 1017.98 705.175 1018.4 705.234 1018.88L702.515 1019.78C702.177 1018.51 702.265 1017.37 702.78 1016.34C703.026 1015.86 703.371 1015.43 703.817 1015.06C704.258 1014.67 704.798 1014.37 705.439 1014.16C706.025 1013.96 706.605 1013.87 707.178 1013.89C707.751 1013.9 708.29 1014.03 708.796 1014.26C709.283 1014.51 709.727 1014.87 710.129 1015.35C710.53 1015.82 710.852 1016.43 711.094 1017.16L714.297 1026.86L711.495 1027.78ZM709.517 1021.8C709.188 1021.84 708.922 1021.9 708.721 1021.97C708.116 1022.17 707.643 1022.49 707.3 1022.92C706.97 1023.34 706.929 1023.92 707.177 1024.67C707.352 1025.2 707.623 1025.59 707.988 1025.83C708.353 1026.08 708.765 1026.13 709.222 1025.97C709.699 1025.82 710.013 1025.54 710.167 1025.15C710.339 1024.74 710.331 1024.26 710.143 1023.69L709.517 1021.8ZM718.002 1021.19C718.147 1021.62 718.378 1021.92 718.695 1022.08C719.03 1022.24 719.408 1022.24 719.829 1022.1C720.36 1021.93 720.657 1021.66 720.719 1021.29C720.799 1020.92 720.806 1020.57 720.74 1020.25L723.541 1019.32C723.947 1020.55 723.898 1021.66 723.395 1022.66C723.156 1023.17 722.816 1023.62 722.376 1024.01C721.936 1024.39 721.396 1024.69 720.755 1024.91C719.876 1025.2 719.065 1025.26 718.321 1025.1C717.596 1024.93 716.968 1024.6 716.439 1024.11C716.117 1023.81 715.84 1023.43 715.61 1022.98C715.379 1022.53 715.17 1022.02 714.982 1021.45L713.467 1016.86C713.279 1016.3 713.144 1015.76 713.059 1015.26C712.975 1014.76 712.974 1014.3 713.054 1013.86C713.184 1013.15 713.491 1012.51 713.974 1011.94C714.475 1011.37 715.166 1010.94 716.045 1010.65C716.686 1010.44 717.299 1010.36 717.884 1010.41C718.488 1010.45 719.036 1010.61 719.529 1010.87C720.534 1011.45 721.254 1012.4 721.69 1013.72L718.888 1014.65C718.701 1014.08 718.436 1013.71 718.095 1013.54C717.767 1013.34 717.392 1013.31 716.97 1013.45C716.549 1013.59 716.256 1013.84 716.09 1014.2C715.937 1014.54 715.948 1014.97 716.123 1015.5L718.002 1021.19ZM726.205 1022.92L719.743 1003.37L722.545 1002.44L726.411 1014.14L726.466 1014.12L727.839 1006.94L730.64 1006.01L729.186 1012.77L735.928 1019.71L732.879 1020.72L728.365 1015.54L727.718 1018.1L729.006 1022L726.205 1022.92ZM738.65 1007.69C738.474 1007.22 738.2 1006.92 737.829 1006.77C737.475 1006.63 737.116 1006.61 736.749 1006.73C736.31 1006.88 736.019 1007.14 735.878 1007.51C735.731 1007.86 735.718 1008.22 735.839 1008.59C735.923 1008.85 736.072 1009.08 736.285 1009.3C736.492 1009.49 736.894 1009.6 737.492 1009.63L739.358 1009.74C740.535 1009.8 741.43 1010.11 742.045 1010.68C742.677 1011.25 743.13 1011.94 743.402 1012.76C743.596 1013.35 743.667 1013.93 743.617 1014.52C743.579 1015.08 743.44 1015.61 743.201 1016.12C742.962 1016.62 742.622 1017.07 742.182 1017.46C741.742 1017.85 741.22 1018.14 740.616 1018.34C739.48 1018.72 738.41 1018.68 737.405 1018.22C736.906 1018 736.452 1017.67 736.045 1017.23C735.631 1016.78 735.3 1016.21 735.052 1015.52L737.689 1014.65C737.871 1015.02 738.117 1015.33 738.427 1015.59C738.756 1015.85 739.186 1015.89 739.717 1015.72C740.12 1015.58 740.435 1015.34 740.661 1014.98C740.9 1014.59 740.941 1014.16 740.783 1013.69C740.656 1013.3 740.447 1013.01 740.155 1012.8C739.862 1012.59 739.418 1012.47 738.82 1012.45L737.311 1012.4C736.323 1012.36 735.467 1012.1 734.742 1011.63C734.03 1011.14 733.52 1010.42 733.211 1009.49C733.017 1008.9 732.949 1008.33 733.005 1007.76C733.055 1007.17 733.212 1006.63 733.476 1006.14C733.721 1005.65 734.061 1005.24 734.495 1004.89C734.923 1004.53 735.42 1004.25 735.988 1004.06C736.556 1003.87 737.111 1003.8 737.653 1003.85C738.214 1003.88 738.729 1004.03 739.198 1004.28C739.667 1004.53 740.087 1004.88 740.458 1005.33C740.823 1005.75 741.099 1006.25 741.286 1006.82L738.65 1007.69ZM751.414 1014.59L750.543 1011.96L752.447 1000.76C752.547 1000.2 752.557 999.735 752.479 999.375C752.394 998.997 752.264 998.542 752.089 998.011C752.01 997.773 751.919 997.529 751.816 997.278C751.726 997.004 751.601 996.781 751.443 996.609C751.285 996.438 751.093 996.319 750.868 996.251C750.636 996.165 750.346 996.18 749.999 996.295C749.577 996.434 749.278 996.665 749.1 996.988C748.941 997.304 748.937 997.691 749.088 998.149L749.614 999.742L746.813 1000.67L746.304 999.13C746.111 998.544 746.039 997.958 746.09 997.373C746.14 996.788 746.294 996.239 746.551 995.728C746.79 995.222 747.13 994.775 747.57 994.385C748.004 993.978 748.514 993.678 749.1 993.484C749.833 993.242 750.501 993.174 751.104 993.279C751.72 993.36 752.277 993.572 752.777 993.914C753.257 994.263 753.668 994.707 754.008 995.244C754.366 995.776 754.655 996.371 754.872 997.03C755.03 997.506 755.154 997.912 755.244 998.248C755.329 998.565 755.392 998.879 755.434 999.191C755.476 999.502 755.481 999.825 755.45 1000.16C755.418 1000.5 755.362 1000.91 755.282 1001.4L753.784 1010.7L758.838 1009.03L759.764 1011.84L751.414 1014.59ZM756.506 995.698C756.288 995.039 756.205 994.417 756.255 993.831C756.324 993.24 756.49 992.698 756.753 992.204C757.017 991.711 757.365 991.291 757.799 990.945C758.246 990.574 758.743 990.298 759.293 990.116C759.842 989.935 760.397 989.863 760.958 989.901C761.531 989.915 762.071 990.041 762.576 990.281C763.082 990.52 763.529 990.859 763.918 991.299C764.326 991.734 764.638 992.28 764.856 992.939L768.65 1004.42C768.867 1005.08 768.942 1005.71 768.873 1006.3C768.823 1006.88 768.666 1007.42 768.403 1007.91C768.139 1008.41 767.784 1008.84 767.338 1009.21C766.904 1009.56 766.413 1009.82 765.863 1010C765.314 1010.18 764.753 1010.27 764.179 1010.25C763.618 1010.22 763.085 1010.08 762.58 1009.84C762.074 1009.6 761.617 1009.26 761.21 1008.83C760.821 1008.39 760.517 1007.84 760.3 1007.18L756.506 995.698ZM763.101 1006.25C763.234 1006.66 763.474 1006.95 763.822 1007.14C764.163 1007.31 764.535 1007.33 764.937 1007.2C765.34 1007.07 765.628 1006.83 765.799 1006.49C765.965 1006.13 765.981 1005.75 765.848 1005.35L762.055 993.865C761.921 993.462 761.684 993.175 761.343 993.003C760.996 992.813 760.621 992.785 760.218 992.918C759.815 993.051 759.531 993.297 759.366 993.657C759.194 993.998 759.175 994.37 759.308 994.773L763.101 1006.25ZM771.853 1007.84L770.982 1005.2L772.887 994.003C772.986 993.442 772.997 992.982 772.918 992.622C772.834 992.243 772.704 991.789 772.528 991.258C772.45 991.019 772.359 990.775 772.256 990.525C772.165 990.25 772.041 990.027 771.883 989.856C771.725 989.685 771.533 989.566 771.307 989.498C771.076 989.412 770.786 989.426 770.438 989.541C770.017 989.681 769.718 989.911 769.54 990.234C769.38 990.551 769.376 990.938 769.528 991.396L770.054 992.989L767.252 993.915L766.744 992.377C766.55 991.791 766.479 991.205 766.529 990.62C766.58 990.034 766.733 989.486 766.991 988.974C767.23 988.469 767.57 988.021 768.01 987.632C768.444 987.225 768.954 986.924 769.54 986.731C770.272 986.489 770.94 986.42 771.544 986.526C772.16 986.606 772.717 986.818 773.216 987.161C773.697 987.51 774.108 987.953 774.448 988.491C774.806 989.022 775.094 989.618 775.312 990.277C775.469 990.753 775.593 991.159 775.684 991.495C775.768 991.812 775.832 992.126 775.873 992.437C775.915 992.748 775.921 993.072 775.889 993.407C775.858 993.742 775.802 994.157 775.721 994.651L774.224 1003.95L779.278 1002.28L780.204 1005.08L771.853 1007.84ZM782.073 1004.46L781.202 1001.83L783.107 990.626C783.206 990.065 783.216 989.605 783.138 989.245C783.054 988.867 782.924 988.412 782.748 987.881C782.67 987.643 782.579 987.399 782.476 987.148C782.385 986.874 782.261 986.651 782.103 986.48C781.944 986.308 781.753 986.189 781.527 986.121C781.296 986.035 781.006 986.05 780.658 986.165C780.237 986.304 779.937 986.535 779.76 986.858C779.6 987.174 779.596 987.562 779.747 988.019L780.274 989.612L777.472 990.538L776.964 989C776.77 988.414 776.699 987.828 776.749 987.243C776.799 986.658 776.953 986.109 777.211 985.598C777.45 985.092 777.79 984.645 778.23 984.256C778.664 983.848 779.174 983.548 779.76 983.354C780.492 983.112 781.16 983.044 781.764 983.149C782.379 983.23 782.937 983.442 783.436 983.784C783.917 984.133 784.327 984.577 784.668 985.114C785.026 985.646 785.314 986.241 785.532 986.9C785.689 987.376 785.813 987.782 785.904 988.118C785.988 988.435 786.051 988.75 786.093 989.061C786.135 989.372 786.14 989.695 786.109 990.03C786.078 990.366 786.022 990.78 785.941 991.274L784.444 1000.57L789.498 998.904L790.423 1001.71L782.073 1004.46Z" fill="url(#paint22_linear_211_6841)"/>
<path d="M1212.52 673.842L1216.61 673.262C1218.71 672.963 1220.18 671.573 1219.88 669.469C1219.68 668.113 1218.67 667.032 1217.41 666.86C1218.16 666.392 1218.72 665.375 1218.55 664.232C1218.25 662.063 1216.45 661.438 1214.56 661.705L1210.87 662.229L1212.52 673.842ZM1213.02 666.98L1212.51 663.339L1214.78 663.017C1216.12 662.826 1217.06 663.305 1217.23 664.505C1217.41 665.779 1216.6 666.472 1215.57 666.618L1213.02 666.98ZM1213.77 672.256L1213.2 668.237L1216.03 667.835C1217.35 667.649 1218.26 668.357 1218.42 669.516C1218.62 670.872 1217.92 671.667 1216.43 671.879L1213.77 672.256ZM1225.99 672.071C1227.33 671.881 1228.25 671.314 1229.03 670.206L1227.94 669.497C1227.36 670.318 1226.72 670.676 1225.82 670.805C1224.28 671.023 1223.31 670.155 1222.98 668.592L1228.89 667.753C1228.9 667.625 1228.89 667.291 1228.85 666.987C1228.61 665.294 1227.4 663.211 1224.64 663.602C1222.13 663.959 1221.13 666.163 1221.45 668.423C1221.78 670.732 1223.39 672.44 1225.99 672.071ZM1222.83 667.573C1222.79 666.113 1223.41 664.976 1224.8 664.778C1226.18 664.582 1227.04 665.408 1227.32 666.407C1227.38 666.567 1227.4 666.739 1227.43 666.92L1222.83 667.573ZM1233.19 662.388C1231.69 662.601 1230.79 663.374 1230.15 664.58L1231.33 665.201C1231.71 664.367 1232.34 663.75 1233.38 663.602C1234.93 663.381 1235.56 664.054 1235.8 665.655L1233.48 665.986C1231.45 666.273 1230.18 667.116 1230.42 668.817C1230.65 670.445 1232 671.217 1233.67 670.98C1234.8 670.82 1235.86 670.125 1236.29 668.973L1236.59 670.423L1237.75 670.259L1237.03 665.254C1236.75 663.216 1235.34 662.082 1233.19 662.388ZM1233.78 669.75C1232.66 669.908 1231.97 669.461 1231.86 668.663C1231.74 667.833 1232.32 667.189 1233.7 666.993L1235.95 666.674L1236.02 667.209C1235.93 668.48 1235.16 669.552 1233.78 669.75ZM1242.83 669.679C1243.82 669.538 1244.73 668.948 1245.15 667.932L1245.33 669.181L1246.71 668.985L1245.55 660.775L1244.17 660.971L1244.84 665.705C1245.06 667.241 1244.33 668.15 1243.02 668.335C1241.78 668.511 1241.01 667.757 1240.82 666.401L1240.13 661.544L1238.75 661.74L1239.47 666.844C1239.75 668.599 1240.83 669.963 1242.83 669.679ZM1252.12 668.359C1252.63 668.286 1253.11 668.118 1253.36 667.982L1253.17 666.717C1252.95 666.858 1252.56 667.038 1252.19 667.092C1251.43 667.199 1250.94 666.867 1250.79 665.831L1250.15 661.319L1252.37 661.004L1252.2 659.829L1249.98 660.144L1249.52 656.873L1248.29 658.071L1248.61 660.339L1247.24 660.534L1247.41 661.709L1248.76 661.517L1249.44 666.259C1249.65 667.804 1250.62 668.572 1252.12 668.359ZM1253.99 657.882L1255.44 657.675L1255.2 655.933L1253.74 656.139L1253.99 657.882ZM1255.42 667.747L1256.81 667.55L1255.65 659.34L1254.26 659.537L1255.42 667.747ZM1260.1 667.083L1261.54 666.879L1260.54 659.844L1262.78 659.525L1262.62 658.35L1260.37 658.668L1260.22 657.592C1260.1 656.737 1260.48 656.305 1261.17 656.207C1261.41 656.174 1261.67 656.229 1261.93 656.327L1262.22 655.119C1261.79 654.979 1261.33 654.919 1260.87 654.984C1259.49 655.18 1258.55 656.135 1258.77 657.655L1258.94 658.872L1257.29 659.106L1257.46 660.282L1259.1 660.048L1260.1 667.083ZM1267.96 666.109C1268.95 665.967 1269.86 665.378 1270.29 664.361L1270.46 665.611L1271.84 665.414L1270.68 657.204L1269.3 657.401L1269.97 662.134C1270.19 663.671 1269.46 664.579 1268.15 664.765C1266.91 664.941 1266.14 664.187 1265.95 662.831L1265.26 657.974L1263.88 658.17L1264.61 663.273C1264.88 665.029 1265.96 666.392 1267.96 666.109ZM1276.16 664.943C1276.56 664.887 1277.04 664.752 1277.41 664.616L1277.23 663.442C1277 663.517 1276.77 663.574 1276.61 663.597C1275.93 663.693 1275.74 663.31 1275.66 662.76L1274.3 653.218L1272.91 653.417L1274.31 663.328C1274.49 664.585 1275.07 665.099 1276.16 664.943ZM1283.76 663.721L1287.84 663.141C1289.95 662.842 1291.41 661.452 1291.11 659.348C1290.92 657.992 1289.91 656.912 1288.65 656.739C1289.4 656.271 1289.95 655.254 1289.79 654.112C1289.48 651.942 1287.68 651.317 1285.8 651.585L1282.11 652.109L1283.76 663.721ZM1284.26 656.859L1283.74 653.218L1286.01 652.896C1287.35 652.706 1288.29 653.184 1288.46 654.384C1288.64 655.658 1287.84 656.351 1286.81 656.497L1284.26 656.859ZM1285.01 662.135L1284.44 658.117L1287.27 657.715C1288.58 657.528 1289.5 658.237 1289.66 659.395C1289.85 660.751 1289.15 661.547 1287.66 661.758L1285.01 662.135ZM1293.82 662.292L1295.17 662.101L1294.61 658.148C1294.3 655.97 1295.37 654.938 1296.4 654.791C1296.73 654.744 1297.05 654.79 1297.36 654.906L1297.83 653.665C1297.42 653.405 1296.9 653.337 1296.41 653.405C1295.45 653.542 1294.46 654.261 1294.24 655.5L1294.01 653.89L1292.65 654.082L1293.82 662.292ZM1298.99 651.488L1300.45 651.281L1300.2 649.539L1298.74 649.746L1298.99 651.488ZM1300.43 661.354L1301.82 661.156L1300.65 652.946L1299.26 653.144L1300.43 661.354ZM1307.22 660.531C1307.73 660.459 1308.21 660.29 1308.46 660.154L1308.27 658.89C1308.04 659.03 1307.66 659.211 1307.28 659.265C1306.53 659.372 1306.03 659.039 1305.89 658.004L1305.25 653.492L1307.46 653.177L1307.3 652.002L1305.08 652.317L1304.61 649.046L1303.38 650.244L1303.71 652.512L1302.33 652.707L1302.5 653.882L1303.86 653.689L1304.53 658.431C1304.75 659.976 1305.71 660.745 1307.22 660.531ZM1309.08 650.054L1310.54 649.848L1310.29 648.105L1308.84 648.312L1309.08 650.054ZM1310.52 659.92L1311.91 659.723L1310.74 651.512L1309.35 651.71L1310.52 659.92ZM1317.13 659.123C1318.72 658.898 1320.03 657.856 1319.78 656.131C1319.34 653.032 1314.91 654.803 1314.65 653.027C1314.57 652.411 1315.09 651.884 1316.02 651.752C1316.98 651.616 1317.66 652.08 1318.12 652.686L1319.11 651.95C1318.36 650.941 1317.24 650.447 1315.91 650.636C1314.33 650.86 1313.13 651.852 1313.35 653.397C1313.77 656.348 1318.14 654.444 1318.42 656.391C1318.52 657.114 1318.03 657.804 1316.9 657.965C1315.69 658.137 1314.89 657.479 1314.5 656.738L1313.45 657.391C1314.03 658.582 1315.47 659.359 1317.13 659.123ZM1322.25 658.253L1323.67 658.052L1323.03 653.54C1322.81 652.044 1323.43 650.859 1324.83 650.659C1326.19 650.467 1326.79 651.311 1326.98 652.626L1327.67 657.483L1329.08 657.282L1328.36 652.171C1328.08 650.415 1326.97 649.064 1324.97 649.348C1323.98 649.489 1323.1 650.075 1322.68 651.091L1322.02 646.439L1320.6 646.64L1322.25 658.253ZM1340.82 655.757C1343.1 655.434 1344.65 654.073 1345.26 651.84L1343.85 651.479C1343.39 653.255 1342.34 654.132 1340.63 654.376C1337.85 654.771 1336.39 652.915 1336.02 650.302C1335.65 647.655 1336.66 645.608 1339.35 645.226C1341.09 644.978 1342.42 645.503 1343.19 647.095L1344.47 646.36C1343.29 644.381 1341.46 643.517 1339.17 643.843C1335.54 644.359 1334.12 647.202 1334.59 650.564C1335.07 653.917 1337.24 656.266 1340.82 655.757ZM1350.76 654.345C1353.17 654.003 1354.55 651.854 1354.21 649.503C1353.88 647.169 1351.96 645.514 1349.55 645.856C1347.14 646.198 1345.78 648.321 1346.11 650.655C1346.44 653.005 1348.35 654.688 1350.76 654.345ZM1350.59 653.137C1348.9 653.377 1347.79 652.117 1347.56 650.449C1347.32 648.789 1348.04 647.303 1349.72 647.064C1351.42 646.824 1352.53 648.057 1352.77 649.709C1353 651.369 1352.28 652.897 1350.59 653.137ZM1358.39 653.261C1358.79 653.205 1359.27 653.069 1359.64 652.933L1359.46 651.759C1359.23 651.834 1359 651.891 1358.84 651.915C1358.17 652.01 1357.97 651.628 1357.89 651.077L1356.53 641.536L1355.14 641.734L1356.55 651.645C1356.72 652.903 1357.3 653.416 1358.39 653.261ZM1364.06 652.455C1365.06 652.314 1365.96 651.724 1366.39 650.708L1366.57 651.957L1367.95 651.761L1366.78 643.551L1365.4 643.747L1366.07 648.481C1366.29 650.018 1365.57 650.926 1364.26 651.111C1363.02 651.288 1362.25 650.533 1362.06 649.177L1361.37 644.32L1359.98 644.516L1360.71 649.62C1360.98 651.375 1362.07 652.739 1364.06 652.455ZM1370.72 651.367L1372.11 651.169L1371.44 646.419C1371.25 645.104 1371.89 644.007 1373.18 643.825C1374.42 643.648 1375.03 644.449 1375.22 645.748L1375.91 650.629L1377.3 650.432L1376.63 645.682C1376.44 644.367 1377.09 643.269 1378.35 643.089C1379.64 642.907 1380.22 643.746 1380.43 645.217L1381.1 649.893L1382.49 649.694L1381.81 644.854C1381.53 642.873 1380.44 641.467 1378.44 641.752C1377.29 641.915 1376.37 642.591 1375.99 643.827C1375.42 642.676 1374.37 642.33 1373.26 642.488C1372.24 642.632 1371.41 643.187 1371.07 644.257L1370.89 642.967L1369.54 643.159L1370.72 651.367ZM1389.24 648.878C1391.47 648.561 1392.45 646.443 1392.13 644.134C1391.8 641.816 1390.27 640.072 1388.01 640.392C1386.86 640.556 1385.91 641.286 1385.52 642.397L1384.83 637.516L1383.39 637.72L1385.04 649.332L1386.48 649.128L1386.27 647.641C1386.95 648.608 1388.09 649.041 1389.24 648.878ZM1388.72 647.635C1387.12 647.863 1386.01 646.721 1385.77 645.036C1385.53 643.352 1386.28 641.929 1387.88 641.702C1389.48 641.474 1390.49 642.664 1390.73 644.332C1390.97 646.001 1390.33 647.408 1388.72 647.635ZM1393.39 638.077L1394.84 637.871L1394.59 636.129L1393.14 636.335L1393.39 638.077ZM1394.82 647.943L1396.21 647.746L1395.04 639.536L1393.66 639.733L1394.82 647.943ZM1400.63 638.6C1399.13 638.813 1398.23 639.586 1397.59 640.792L1398.77 641.413C1399.15 640.579 1399.77 639.962 1400.82 639.814C1402.37 639.593 1403 640.266 1403.24 641.867L1400.91 642.198C1398.89 642.485 1397.62 643.328 1397.86 645.029C1398.09 646.657 1399.44 647.429 1401.11 647.192C1402.24 647.032 1403.3 646.337 1403.73 645.185L1404.03 646.635L1405.18 646.471L1404.47 641.466C1404.18 639.428 1402.78 638.294 1400.63 638.6ZM1401.21 645.962C1400.1 646.12 1399.41 645.673 1399.3 644.875C1399.18 644.045 1399.76 643.401 1401.14 643.205L1403.38 642.886L1403.46 643.421C1403.36 644.692 1402.6 645.764 1401.21 645.962Z" fill="#2A6DCC"/>
<path d="M1245.32 737.714L1244.81 717.115C1247.55 715.24 1253.35 711.714 1254.65 712.606C1256.28 713.721 1255.18 719.434 1258.64 715.617C1262.1 711.799 1268.53 707.66 1267.62 711.2C1266.72 714.741 1269.93 712.671 1272.94 710.624C1274.29 709.702 1274.9 709.234 1275.12 709.019L1275.12 708.882C1275.24 708.838 1275.3 708.852 1275.12 709.019L1275.94 728.372C1275.44 728.425 1273.93 728.891 1271.85 730.321C1269.24 732.109 1267.21 733.19 1267.38 730.805C1267.55 728.42 1266.28 728.558 1264.53 730.254C1262.77 731.95 1256.69 737.343 1255.68 734.01C1254.67 730.676 1254.74 731.314 1252.71 732.395C1250.67 733.476 1246.3 736.748 1245.32 737.714Z" fill="#1277DC"/>
<path d="M1244.41 733.205C1247.55 730.427 1253.88 725.337 1254.08 727.208C1254.34 729.547 1254.8 733.8 1259.65 728.971C1264.51 724.142 1266.16 723.532 1266.42 725.872C1266.67 728.211 1266.95 728.826 1271.52 725.318C1272.39 724.722 1274.38 723.545 1275.42 723.605" stroke="#F4F5EF" stroke-width="0.5"/>
<path d="M1244.32 728.481C1247.47 725.702 1253.8 720.612 1254 722.484C1254.25 724.823 1254.72 729.076 1259.57 724.247C1264.43 719.418 1266.08 718.808 1266.33 721.147C1266.59 723.486 1266.87 724.101 1271.44 720.594C1272.31 719.998 1274.3 718.821 1275.34 718.88" stroke="#F4F5EF" stroke-width="0.5"/>
<rect x="1256.22" y="773.691" width="132.059" height="30.1582" rx="5" transform="rotate(-8.33325 1256.22 773.691)" fill="#FCCC85"/>
<path d="M1271.01 793.756L1269.34 781.703L1271.76 781.367L1271.92 782.532L1271.97 782.525C1272.17 782.109 1272.43 781.759 1272.74 781.472C1273.07 781.168 1273.52 780.978 1274.07 780.901C1274.37 780.859 1274.68 780.873 1275 780.942C1275.31 780.995 1275.6 781.124 1275.87 781.329C1276.15 781.534 1276.38 781.816 1276.57 782.177C1276.77 782.522 1276.9 782.963 1276.98 783.502L1278.26 792.75L1275.83 793.086L1274.68 784.742C1274.61 784.298 1274.46 783.964 1274.22 783.739C1273.98 783.514 1273.67 783.428 1273.29 783.481C1272.83 783.544 1272.53 783.731 1272.4 784.04C1272.26 784.35 1272.23 784.774 1272.31 785.313L1273.43 793.419L1271.01 793.756ZM1290.53 778.762L1289.35 791.21L1287.21 791.507L1284.89 784.536L1284.84 784.543L1284.5 791.883L1282.36 792.18L1277.84 780.523L1280.41 780.167L1282.92 787.451L1282.97 787.444L1283.28 779.768L1285.18 779.504L1287.51 786.814L1287.55 786.807L1287.97 779.118L1290.53 778.762ZM1293.61 790.619L1291.26 773.693L1293.69 773.357L1294.69 780.607L1297.69 780.192L1296.68 772.941L1299.11 772.605L1301.46 789.53L1299.03 789.867L1297.99 782.331L1294.99 782.747L1296.04 790.283L1293.61 790.619ZM1308.42 788.565L1308.24 787.328L1308.2 787.335C1307.94 787.823 1307.66 788.209 1307.36 788.493C1307.08 788.774 1306.64 788.956 1306.06 789.037C1305.77 789.077 1305.47 789.07 1305.16 789.017C1304.86 788.977 1304.56 788.857 1304.26 788.657C1303.96 788.472 1303.69 788.186 1303.46 787.798C1303.25 787.392 1303.09 786.856 1303 786.191C1302.9 785.509 1302.88 784.907 1302.92 784.385C1302.96 783.846 1303.1 783.382 1303.35 782.992C1303.59 782.619 1303.95 782.32 1304.42 782.093C1304.88 781.85 1305.5 781.676 1306.26 781.571C1306.34 781.56 1306.42 781.548 1306.52 781.535C1306.61 781.521 1306.7 781.517 1306.78 781.522C1306.87 781.527 1306.96 781.522 1307.07 781.506C1307.18 781.491 1307.3 781.482 1307.43 781.48L1307.26 780.221C1307.2 779.809 1307.07 779.48 1306.85 779.235C1306.64 778.989 1306.31 778.899 1305.85 778.962C1305.53 779.006 1305.25 779.15 1305.01 779.394C1304.79 779.635 1304.66 779.959 1304.64 780.366L1302.28 780.693C1302.2 779.606 1302.44 778.684 1303.01 777.926C1303.29 777.565 1303.63 777.267 1304.05 777.031C1304.47 776.779 1304.96 776.615 1305.51 776.538C1306.02 776.467 1306.5 776.481 1306.97 776.577C1307.44 776.674 1307.86 776.858 1308.23 777.129C1308.6 777.402 1308.9 777.763 1309.16 778.212C1309.42 778.661 1309.59 779.203 1309.68 779.837L1310.84 788.228L1308.42 788.565ZM1307.7 783.382C1307.42 783.372 1307.2 783.379 1307.02 783.403C1306.5 783.476 1306.06 783.665 1305.72 783.972C1305.39 784.26 1305.27 784.729 1305.36 785.379C1305.42 785.838 1305.58 786.195 1305.84 786.45C1306.11 786.704 1306.44 786.804 1306.83 786.749C1307.24 786.692 1307.54 786.513 1307.73 786.213C1307.93 785.911 1307.99 785.514 1307.92 785.023L1307.7 783.382ZM1314.95 784.12C1315 784.501 1315.15 784.78 1315.38 784.957C1315.63 785.132 1315.94 785.195 1316.3 785.144C1316.76 785.08 1317.05 784.904 1317.15 784.614C1317.27 784.323 1317.33 784.04 1317.32 783.767L1319.75 783.43C1319.9 784.492 1319.69 785.393 1319.13 786.133C1318.86 786.51 1318.52 786.824 1318.1 787.076C1317.68 787.327 1317.19 787.492 1316.64 787.569C1315.88 787.674 1315.21 787.606 1314.62 787.364C1314.06 787.119 1313.6 786.756 1313.24 786.272C1313.02 785.979 1312.85 785.631 1312.73 785.228C1312.61 784.825 1312.51 784.378 1312.45 783.886L1311.89 779.916C1311.83 779.425 1311.8 778.969 1311.8 778.548C1311.81 778.127 1311.88 777.746 1312.01 777.405C1312.22 776.843 1312.57 776.366 1313.04 775.977C1313.54 775.585 1314.17 775.337 1314.93 775.231C1315.48 775.154 1315.99 775.18 1316.46 775.308C1316.95 775.435 1317.38 775.642 1317.74 775.931C1318.47 776.556 1318.92 777.44 1319.08 778.581L1316.65 778.917C1316.58 778.426 1316.42 778.085 1316.17 777.894C1315.93 777.684 1315.63 777.605 1315.26 777.656C1314.9 777.706 1314.62 777.866 1314.43 778.134C1314.26 778.385 1314.2 778.74 1314.27 779.199L1314.95 784.12ZM1321.62 786.732L1319.27 769.806L1321.7 769.47L1323.1 779.597L1323.15 779.59L1325.35 773.931L1327.77 773.594L1325.57 778.89L1330.04 785.564L1327.4 785.93L1324.49 781.028L1323.58 783.02L1324.05 786.396L1321.62 786.732ZM1334.29 776.13C1334.22 775.72 1334.04 775.429 1333.76 775.259C1333.49 775.086 1333.2 775.021 1332.89 775.065C1332.5 775.118 1332.23 775.285 1332.06 775.567C1331.89 775.834 1331.82 776.125 1331.86 776.442C1331.9 776.664 1331.98 776.878 1332.12 777.085C1332.26 777.276 1332.57 777.426 1333.06 777.537L1334.56 777.909C1335.52 778.133 1336.2 778.522 1336.62 779.078C1337.05 779.632 1337.31 780.266 1337.41 780.979C1337.48 781.486 1337.45 781.975 1337.33 782.445C1337.21 782.897 1337.02 783.311 1336.75 783.688C1336.48 784.065 1336.13 784.379 1335.71 784.631C1335.3 784.883 1334.83 785.045 1334.3 785.117C1333.32 785.254 1332.45 785.059 1331.7 784.533C1331.33 784.278 1331.01 783.943 1330.74 783.528C1330.47 783.097 1330.29 782.582 1330.19 781.982L1332.47 781.665C1332.56 781.991 1332.72 782.285 1332.93 782.546C1333.16 782.805 1333.5 782.902 1333.96 782.839C1334.31 782.79 1334.61 782.636 1334.84 782.377C1335.1 782.1 1335.19 781.755 1335.14 781.343C1335.09 781.01 1334.96 780.737 1334.76 780.524C1334.55 780.31 1334.2 780.148 1333.72 780.037L1332.5 779.771C1331.7 779.591 1331.04 779.255 1330.51 778.762C1330.01 778.251 1329.7 777.591 1329.59 776.783C1329.52 776.276 1329.55 775.795 1329.68 775.341C1329.81 774.871 1330.01 774.454 1330.3 774.091C1330.58 773.73 1330.92 773.44 1331.32 773.223C1331.72 772.989 1332.17 772.838 1332.66 772.77C1333.15 772.702 1333.62 772.726 1334.05 772.843C1334.51 772.958 1334.91 773.153 1335.25 773.428C1335.6 773.704 1335.89 774.051 1336.12 774.47C1336.36 774.874 1336.51 775.322 1336.57 775.813L1334.29 776.13ZM1344.15 783.605L1343.84 781.323L1347.07 772.467C1347.23 772.024 1347.31 771.65 1347.3 771.345C1347.28 771.023 1347.25 770.633 1347.18 770.173C1347.15 769.967 1347.12 769.754 1347.07 769.535C1347.04 769.297 1346.97 769.097 1346.87 768.933C1346.76 768.77 1346.62 768.644 1346.45 768.555C1346.27 768.45 1346.03 768.418 1345.73 768.46C1345.37 768.511 1345.09 768.655 1344.9 768.891C1344.72 769.126 1344.66 769.441 1344.71 769.838L1344.9 771.216L1342.48 771.553L1342.3 770.222C1342.22 769.714 1342.25 769.226 1342.38 768.756C1342.51 768.286 1342.72 767.861 1343.01 767.482C1343.28 767.105 1343.62 766.791 1344.04 766.539C1344.45 766.272 1344.91 766.103 1345.42 766.032C1346.05 765.944 1346.61 765.988 1347.09 766.164C1347.58 766.323 1348 766.579 1348.36 766.933C1348.7 767.29 1348.97 767.713 1349.16 768.202C1349.38 768.69 1349.52 769.219 1349.6 769.789C1349.66 770.201 1349.7 770.551 1349.72 770.839C1349.74 771.11 1349.75 771.376 1349.74 771.636C1349.72 771.896 1349.68 772.161 1349.6 772.43C1349.53 772.699 1349.42 773.029 1349.28 773.42L1346.67 780.785L1351.04 780.178L1351.38 782.603L1344.15 783.605ZM1351.37 768.914C1351.29 768.343 1351.32 767.823 1351.45 767.353C1351.59 766.88 1351.81 766.463 1352.1 766.099C1352.38 765.736 1352.73 765.446 1353.14 765.228C1353.56 764.992 1354 764.841 1354.48 764.775C1354.96 764.709 1355.42 764.734 1355.87 764.849C1356.34 764.945 1356.76 765.129 1357.14 765.4C1357.51 765.671 1357.83 766.015 1358.08 766.432C1358.35 766.847 1358.52 767.34 1358.6 767.911L1359.98 777.848C1360.06 778.418 1360.02 778.94 1359.88 779.412C1359.75 779.882 1359.54 780.299 1359.25 780.662C1358.96 781.025 1358.61 781.324 1358.19 781.56C1357.78 781.778 1357.34 781.92 1356.87 781.986C1356.39 782.052 1355.92 782.037 1355.46 781.94C1355 781.825 1354.59 781.632 1354.21 781.361C1353.84 781.09 1353.51 780.747 1353.25 780.332C1352.99 779.915 1352.83 779.421 1352.75 778.85L1351.37 768.914ZM1355.17 778.514C1355.22 778.863 1355.37 779.14 1355.63 779.347C1355.88 779.538 1356.18 779.61 1356.53 779.561C1356.88 779.513 1357.15 779.362 1357.34 779.11C1357.53 778.841 1357.6 778.533 1357.55 778.184L1356.17 768.247C1356.12 767.899 1355.97 767.629 1355.72 767.438C1355.47 767.231 1355.17 767.151 1354.82 767.2C1354.47 767.248 1354.2 767.407 1354.01 767.675C1353.82 767.928 1353.75 768.229 1353.8 768.577L1355.17 778.514ZM1362.32 781.085L1362 778.802L1365.23 769.946C1365.4 769.504 1365.47 769.129 1365.46 768.824C1365.45 768.503 1365.41 768.112 1365.35 767.652C1365.32 767.446 1365.28 767.234 1365.24 767.014C1365.2 766.776 1365.13 766.576 1365.03 766.412C1364.93 766.249 1364.79 766.123 1364.61 766.034C1364.44 765.929 1364.2 765.898 1363.9 765.939C1363.53 765.99 1363.26 766.134 1363.06 766.371C1362.88 766.605 1362.82 766.921 1362.88 767.317L1363.07 768.696L1360.65 769.032L1360.46 767.701C1360.39 767.194 1360.42 766.705 1360.55 766.235C1360.68 765.765 1360.88 765.34 1361.17 764.961C1361.44 764.584 1361.79 764.27 1362.2 764.018C1362.62 763.751 1363.08 763.582 1363.59 763.511C1364.22 763.423 1364.78 763.467 1365.25 763.644C1365.74 763.802 1366.17 764.058 1366.52 764.412C1366.86 764.769 1367.13 765.192 1367.33 765.682C1367.54 766.169 1367.69 766.698 1367.77 767.268C1367.82 767.681 1367.86 768.03 1367.89 768.318C1367.91 768.589 1367.91 768.855 1367.9 769.115C1367.89 769.376 1367.85 769.64 1367.77 769.909C1367.69 770.178 1367.59 770.508 1367.45 770.899L1364.83 778.264L1369.21 777.657L1369.54 780.082L1362.32 781.085ZM1371.4 779.824L1371.08 777.542L1374.31 768.686C1374.48 768.243 1374.56 767.869 1374.55 767.564C1374.53 767.242 1374.49 766.852 1374.43 766.392C1374.4 766.186 1374.36 765.973 1374.32 765.754C1374.29 765.516 1374.22 765.315 1374.11 765.152C1374.01 764.989 1373.87 764.862 1373.7 764.774C1373.52 764.669 1373.28 764.637 1372.98 764.679C1372.62 764.73 1372.34 764.873 1372.15 765.11C1371.97 765.345 1371.91 765.66 1371.96 766.056L1372.15 767.435L1369.73 767.772L1369.54 766.44C1369.47 765.933 1369.5 765.445 1369.63 764.974C1369.76 764.504 1369.97 764.08 1370.25 763.701C1370.52 763.324 1370.87 763.01 1371.29 762.758C1371.7 762.49 1372.16 762.321 1372.67 762.251C1373.3 762.163 1373.86 762.207 1374.33 762.383C1374.83 762.541 1375.25 762.798 1375.6 763.152C1375.94 763.509 1376.21 763.932 1376.41 764.421C1376.62 764.909 1376.77 765.438 1376.85 766.008C1376.91 766.42 1376.95 766.77 1376.97 767.057C1376.99 767.329 1377 767.595 1376.98 767.855C1376.97 768.115 1376.93 768.38 1376.85 768.649C1376.78 768.918 1376.67 769.248 1376.53 769.638L1373.92 777.003L1378.29 776.397L1378.63 778.821L1371.4 779.824Z" fill="#504947"/>
<path d="M1075.15 1085.55L1074.77 1083.33C1074.48 1081.7 1075.67 1080.23 1077.3 1080.19L1084.96 1080.01C1086.93 1079.97 1088.33 1082.01 1087.58 1083.84L1086.38 1086.74C1085.94 1087.81 1084.87 1088.46 1083.73 1088.36L1077.64 1087.85C1076.4 1087.74 1075.37 1086.79 1075.15 1085.55Z" fill="#E9C59A"/>
<path d="M1084.37 1088.14L1083.85 1085.88C1083.46 1084.18 1084.72 1082.57 1086.45 1082.6L1096.03 1082.72C1097.99 1082.74 1099.31 1084.81 1098.52 1086.61L1097.21 1089.56C1096.75 1090.61 1095.67 1091.24 1094.53 1091.11L1086.77 1090.29C1085.61 1090.16 1084.64 1089.29 1084.37 1088.14Z" fill="#FFDAAD"/>
<path d="M1138.59 1096.47L1139.92 1094.7C1140.89 1093.39 1140.48 1091.48 1139.05 1090.66L1132.14 1086.68C1130.41 1085.69 1128.29 1086.82 1128.16 1088.81L1127.96 1091.98C1127.89 1093.14 1128.55 1094.24 1129.61 1094.71L1135.39 1097.28C1136.53 1097.79 1137.85 1097.45 1138.59 1096.47Z" fill="#E9C59A"/>
<path d="M1153.01 1105.9L1154.44 1104.15C1155.52 1102.83 1155.1 1100.81 1153.57 1099.98L1145.21 1095.48C1143.46 1094.53 1141.38 1095.71 1141.3 1097.69L1141.15 1100.95C1141.1 1102.1 1141.78 1103.19 1142.85 1103.64L1149.92 1106.64C1151.02 1107.1 1152.26 1106.81 1153.01 1105.9Z" fill="#FFDAAD"/>
<path d="M1075.54 1016.06C1077.21 1007.77 1078.97 1004.45 1084.49 1002.31L1186.78 1030.92C1188.7 1038.55 1188.19 1043.08 1183.64 1051.72C1183.02 1068.34 1180.03 1073.38 1173.85 1080.99C1172.68 1090.04 1171.24 1093.87 1165.36 1095.42C1162.64 1103.18 1160.9 1105.56 1157.19 1104.28C1154.2 1106.3 1152.77 1106.33 1151.09 1102.7C1148.88 1103.77 1147.64 1103.67 1145.41 1101.22C1142.97 1101.26 1142.52 1100.5 1143.04 1098.06C1141.21 1097.14 1140.96 1096.33 1141.07 1094.67C1135.57 1094.69 1132.62 1094.34 1129.18 1089.04C1126.41 1086.51 1126.26 1084.56 1128.88 1079.98C1127.06 1077.31 1126.75 1075.61 1128.73 1071.85C1118.66 1069.51 1113.95 1071.11 1106.73 1077.68C1106.73 1077.68 1105.77 1085.09 1102.4 1087.53C1099.04 1089.98 1097.25 1090.71 1095.05 1085.63C1092.97 1088.44 1091.36 1088.97 1089.06 1086.63C1086.65 1087.16 1085.23 1087.74 1083.54 1085.2C1081.15 1086.89 1079.7 1087.04 1076.96 1086.04C1074.49 1087.17 1074.17 1085.05 1074.01 1082.73C1073.84 1080.4 1069.87 1080.14 1071.57 1074.11C1067.98 1070.51 1068.06 1067.57 1070.85 1061.18C1066.35 1058.48 1065.13 1055.95 1066.16 1048.88C1064.05 1044.5 1062.79 1042.1 1066.33 1033.63C1066.75 1023.97 1068.93 1020.27 1075.54 1016.06Z" fill="#FBF8F3"/>
<path d="M1143.19 926.629C1154.85 920.871 1157.51 922.411 1167.73 932.988C1173.1 930.931 1178.87 930.462 1182.5 940.802C1186.76 941.853 1188 944.003 1189.02 949.475C1196.27 948.88 1192.69 962.639 1193.58 959.742C1194.46 956.844 1205.32 959.809 1203.18 975.528C1201.03 991.246 1205.5 996.682 1203.51 1009.64C1201.26 1018.02 1199.67 1022.35 1191.84 1024.46C1193.17 1034.91 1185.43 1038.2 1178.59 1041.08L1079.8 1012.72C1075.87 1009.71 1070.08 1006.76 1074.62 995.859C1072.14 990.366 1070.16 987.473 1072.89 980.339C1077.65 970.527 1079.44 964.838 1082.17 954.595C1085.22 944.319 1087.1 941.548 1090.7 941.622C1093.54 934.315 1095.85 931.513 1103.13 932.208C1108.64 926.064 1111.69 925.714 1117.07 929.28C1120.62 923.966 1123.27 922.991 1129.39 925.492C1135.53 920.623 1138.47 921.488 1143.19 926.629Z" fill="#FEFDF9"/>
<path d="M1098.5 1014.23C1102.17 1016.08 1080.44 1005.93 1073.95 995.484" stroke="#CBC6B3" stroke-width="1.35493" stroke-linecap="round"/>
<path d="M1161.9 1031.55C1157.84 1031.4 1182.97 1030.61 1193.3 1024.52" stroke="#CBC6B3" stroke-width="1.35493" stroke-linecap="round"/>
<path d="M1108.26 950.368C1098.08 955.044 1097.12 959.288 1099.26 968.178C1094.77 974.217 1094.55 977.629 1099.24 983.776C1106.93 983.281 1109.33 985.465 1111.51 992.044C1116.17 993.604 1120.35 995.06 1123.3 1000.96C1130.81 998.867 1133.79 1000.95 1138.41 1006.54C1144.29 1005.77 1147.24 1006.84 1152.19 1010.11C1156.86 1004.76 1159.8 1004.91 1165.3 1007.86C1167.34 1002.25 1170.51 1002.28 1173.74 1002.51C1179.76 1002.92 1182.71 999.969 1183.61 990.03C1190.61 978.066 1190.14 973.188 1182.41 967.365C1180.21 956.954 1174.81 954.353 1167.55 955.217C1164.16 947.282 1155.45 945.603 1148.62 947.878C1141.98 939.924 1137.58 940.051 1129.02 945.235C1121.58 938.783 1113.18 941.888 1108.26 950.368Z" fill="#FFDAAB"/>
<path d="M1094.73 1012.44C1093.74 1011.74 1093.14 1007.34 1095.25 1007.11C1097.37 1006.88 1098.15 1009.74 1096.67 1012.94" stroke="#CBC6B3" stroke-width="1.35493"/>
<path d="M1167.61 1031.04C1168.79 1030.9 1172.44 1027.97 1170.67 1026.74C1168.89 1025.5 1165.76 1026.97 1165.67 1030.53" stroke="#CBC6B3" stroke-width="1.35493"/>
<path d="M1095.5 1013.33C1093.86 1017.38 1092.48 1018.43 1089.58 1019.1" stroke="#B5B0A0" stroke-width="1.35493" stroke-linecap="round"/>
<path d="M1096.1 1015.03C1095.66 1016.09 1091.78 1018.73 1091.01 1016.76C1090.24 1014.78 1092.52 1012.24 1096.11 1013.08" stroke="#CBC6B3" stroke-width="1.35493"/>
<path d="M1166.54 1032.26C1166.21 1036.24 1166.84 1037.69 1168.76 1039.48" stroke="#B5B0A0" stroke-width="1.35493" stroke-linecap="round"/>
<path d="M1166.61 1032.43C1166.54 1033.59 1168.82 1037.83 1170.37 1036.46C1171.92 1035.08 1171 1031.71 1167.45 1030.71" stroke="#CBC6B3" stroke-width="1.35493"/>
<rect width="76.8141" height="35.8077" transform="matrix(0.961083 0.27895 -0.256086 0.965816 1094.66 1009.24)" fill="#ABD6AA"/>
<rect width="76.6213" height="7.07577" transform="matrix(0.961083 0.27895 -0.256086 0.965816 1087.4 1037.13)" fill="#CBB042"/>
<g filter="url(#filter7_d_211_6841)">
<path d="M1173.09 980.247C1171.83 985.711 1168.25 985.694 1164.09 984.616C1159.93 983.538 1156.76 981.808 1158.02 976.343C1159.29 970.879 1163.69 967.323 1167.85 968.401C1172.01 969.479 1174.36 974.782 1173.09 980.247Z" fill="#483E32"/>
</g>
<g filter="url(#filter8_d_211_6841)">
<path d="M1128.49 968.947C1127.23 974.412 1123.66 974.395 1119.49 973.317C1115.33 972.239 1112.16 970.508 1113.43 965.044C1114.69 959.579 1119.09 956.023 1123.25 957.101C1127.41 958.179 1129.76 963.483 1128.49 968.947Z" fill="#483E32"/>
</g>
<path d="M1142.83 973.595C1148.85 975.662 1151.76 979.085 1152.56 984.398C1151.84 985.906 1154.42 992.351 1146.52 992.506C1136.14 991.191 1129.41 987.225 1128.39 982.775C1127.37 978.325 1136.81 971.529 1142.83 973.595Z" fill="#F9F5F1" fill-opacity="0.44"/>
<path d="M1141.25 981.613L1140.33 985.581" stroke="#483E32" stroke-width="1.35493" stroke-linecap="round"/>
<path d="M1143.8 981.376L1142.96 981.738C1141.77 982.253 1140.36 981.82 1139.63 980.71L1138.99 979.75C1137.92 978.129 1138.8 975.907 1140.71 976.079C1141.81 976.178 1142.85 976.448 1143.94 976.896C1145.95 977.724 1145.76 980.526 1143.8 981.376Z" fill="#A68A5B"/>
<path d="M1134.19 985.4C1136.03 986.116 1137.45 986.053 1140.29 985.568" stroke="black" stroke-width="1.35493" stroke-linecap="round"/>
<path d="M1145.55 988.437C1143.61 988.138 1142.39 987.369 1140.12 985.515" stroke="black" stroke-width="1.35493" stroke-linecap="round"/>
<path d="M1096.2 906.332C1113.8 904.363 1119.54 922.333 1119.22 926.93C1118.91 931.526 1119.12 931.23 1118.3 930.904C1110.62 926.826 1106.82 927.398 1101.23 934.905C1098.79 929.814 1090.01 936.181 1090.98 942.671C1091.96 949.161 1086.71 941.518 1082.26 943.404C1077.45 945.722 1075.45 948.956 1076.69 953.6C1078.41 960.031 1084.54 960.221 1091.21 957.363C1087.79 966.58 1087.09 975.14 1074.31 977.704C1070.95 978.378 1064.17 974.498 1059.26 967.928C1052.54 954.802 1054.54 945.423 1066.23 925.838C1073.92 914.819 1079.9 910.052 1096.2 906.332Z" fill="url(#paint23_linear_211_6841)"/>
<path d="M1070.89 957.274L1076.92 954.516" stroke="#CBB042" stroke-width="1.35493"/>
<path d="M1098.05 922.13C1101.73 924.767 1103.2 926.627 1105.34 930.249" stroke="#CBB042" stroke-width="1.35493"/>
<path d="M1069.55 938.879C1074.26 940.169 1076.29 941.566 1079.46 945.028" stroke="#CBB042" stroke-width="1.35493"/>
<path d="M1081.14 936.346L1075.41 941.728" stroke="#CBB042" stroke-width="1.35493"/>
<path d="M1107.87 920.024L1102.71 925.551" stroke="#CBB042" stroke-width="1.35493" stroke-linecap="round"/>
<path d="M1079.46 921.299L1071.71 929.034" stroke="url(#paint24_linear_211_6841)" stroke-width="1.35493"/>
<path d="M1079.46 921.299L1071.71 929.034" stroke="url(#paint25_linear_211_6841)" stroke-width="1.35493"/>
<path d="M1110.18 909.774L1105.05 915.752" stroke="url(#paint26_linear_211_6841)" stroke-width="1.35493"/>
<path d="M1081.24 936.372C1077.47 932.304 1075.74 930.538 1071.7 929.102" stroke="#CBB042" stroke-width="1.35493" stroke-linecap="round"/>
<path d="M1107.92 920.039C1107.74 918.495 1106.9 916.999 1105.03 915.745" stroke="#CBB042" stroke-width="1.35493" stroke-linecap="round"/>
<path d="M1082.74 925.913C1079.98 921.548 1078.09 919.662 1074.26 917.072" stroke="#A68432" stroke-width="1.35493" stroke-linecap="round"/>
<path d="M1070.5 957.947C1070.35 958.596 1069.67 959.024 1068.93 958.833C1068.19 958.642 1067.77 957.928 1067.92 957.279C1068.07 956.63 1068.76 956.202 1069.49 956.393C1070.23 956.584 1070.65 957.298 1070.5 957.947Z" stroke="#CBB042" stroke-width="1.35493"/>
<path d="M1096.46 922.906C1095.71 922.865 1095.15 922.245 1095.16 921.572C1095.17 920.898 1095.74 920.341 1096.5 920.382C1097.25 920.423 1097.81 921.043 1097.8 921.717C1097.79 922.39 1097.21 922.948 1096.46 922.906Z" stroke="#CBB042" stroke-width="1.35493"/>
<path d="M1067.98 939.726C1067.23 939.724 1066.64 939.134 1066.61 938.458C1066.58 937.782 1067.13 937.195 1067.88 937.196C1068.63 937.198 1069.22 937.788 1069.24 938.465C1069.27 939.141 1068.73 939.728 1067.98 939.726Z" stroke="#CBB042" stroke-width="1.35493"/>
<path d="M1083.78 925.879C1084.5 925.754 1085.19 926.234 1085.34 926.908C1085.49 927.581 1085.06 928.253 1084.33 928.377C1083.6 928.502 1082.92 928.022 1082.77 927.349C1082.62 926.675 1083.05 926.004 1083.78 925.879Z" stroke="#A68432" stroke-width="1.35493"/>
<path d="M1211.17 936.12C1196.42 925.767 1183.48 938.9 1181.75 943.13C1180.02 947.359 1179.96 946.993 1180.83 947.104C1189.42 947.244 1192.54 949.605 1194.22 958.997C1198.6 955.672 1203.61 965.613 1199.91 970.891C1196.2 976.169 1204.2 971.955 1207.32 975.805C1210.57 980.213 1210.93 984.057 1207.8 987.569C1203.47 992.432 1197.95 989.603 1193.28 983.806C1192.28 993.651 1189.16 1001.58 1199.37 1010.1C1202.06 1012.35 1209.77 1012.22 1216.99 1008.8C1228.69 1000.44 1231.02 991.146 1229.21 968.064C1227.21 954.534 1224 947.387 1211.17 936.12Z" fill="url(#paint27_linear_211_6841)"/>
<path d="M1211.33 993.659L1207.2 988.271" stroke="#CBB042" stroke-width="1.35493"/>
<path d="M1202.62 949.223C1198.2 949.761 1196.09 950.692 1192.6 952.858" stroke="#CBB042" stroke-width="1.35493"/>
<path d="M1220.57 978.007C1215.83 976.849 1213.42 977.096 1209.09 978.615" stroke="#CBB042" stroke-width="1.35493"/>
<path d="M1211.4 970.097L1214.12 977.665" stroke="#CBB042" stroke-width="1.35493"/>
<path d="M1194.84 942.555L1197 949.979" stroke="#CBB042" stroke-width="1.35493" stroke-linecap="round"/>
<path d="M1219.47 957.572L1222.96 968.218" stroke="url(#paint28_linear_211_6841)" stroke-width="1.35493"/>
<path d="M1219.47 957.572L1222.96 968.218" stroke="url(#paint29_linear_211_6841)" stroke-width="1.35493"/>
<path d="M1197.27 932.336L1199.2 940.144" stroke="url(#paint30_linear_211_6841)" stroke-width="1.35493"/>
<path d="M1211.3 970.071C1216.42 968.302 1218.72 967.582 1222.94 968.287" stroke="#CBB042" stroke-width="1.35493" stroke-linecap="round"/>
<path d="M1194.78 942.541C1195.62 941.262 1197.02 940.346 1199.23 940.151" stroke="#CBB042" stroke-width="1.35493" stroke-linecap="round"/>
<path d="M1214.54 960.06C1218.9 957.54 1221.4 956.791 1225.93 956.369" stroke="#A68432" stroke-width="1.35493" stroke-linecap="round"/>
<path d="M1211.39 994.448C1211.24 995.097 1211.66 995.811 1212.39 996.002C1213.13 996.193 1213.81 995.765 1213.97 995.116C1214.12 994.467 1213.7 993.753 1212.96 993.562C1212.22 993.371 1211.54 993.799 1211.39 994.448Z" stroke="#CBB042" stroke-width="1.35493"/>
<path d="M1203.69 950.689C1204.38 951.02 1205.14 950.744 1205.43 950.141C1205.71 949.539 1205.45 948.763 1204.76 948.432C1204.08 948.101 1203.31 948.378 1203.03 948.98C1202.74 949.582 1203.01 950.358 1203.69 950.689Z" stroke="#CBB042" stroke-width="1.35493"/>
<path d="M1221.59 979.525C1222.26 979.89 1223.04 979.656 1223.36 979.069C1223.68 978.483 1223.45 977.696 1222.79 977.331C1222.12 976.966 1221.34 977.2 1221.02 977.787C1220.7 978.373 1220.93 979.16 1221.59 979.525Z" stroke="#CBB042" stroke-width="1.35493"/>
<path d="M1213.64 959.523C1213.05 959.057 1212.23 959.147 1211.8 959.672C1211.38 960.196 1211.47 961.003 1212.06 961.469C1212.65 961.934 1213.46 961.845 1213.89 961.32C1214.32 960.795 1214.23 959.988 1213.64 959.523Z" stroke="#A68432" stroke-width="1.35493"/>
<ellipse rx="1.67395" ry="1.60807" transform="matrix(0.968039 0.250801 -0.225775 0.974179 1160.86 1033.06)" fill="#CBB042"/>
<ellipse rx="1.67395" ry="1.60807" transform="matrix(0.968039 0.250801 -0.225775 0.974179 1099.28 1014.62)" fill="#CBB042"/>
<ellipse cx="1123.08" cy="962.411" rx="2.58345" ry="2.46307" transform="rotate(30.142 1123.08 962.411)" fill="white"/>
<ellipse cx="1166.53" cy="973.756" rx="2.58345" ry="2.46307" transform="rotate(30.142 1166.53 973.756)" fill="white"/>
<rect width="7.47117" height="16.4975" transform="matrix(0.962822 0.270138 -0.272193 0.962243 1106.86 1020.91)" fill="#483E32"/>
<rect width="7.47117" height="16.4975" transform="matrix(0.962822 0.270138 -0.272193 0.962243 1119.15 1024.26)" fill="#483E32"/>
<rect width="7.47117" height="16.4975" transform="matrix(0.962822 0.270138 -0.272193 0.962243 1131.45 1027.61)" fill="#483E32"/>
<rect width="7.47117" height="16.4975" transform="matrix(0.962822 0.270138 -0.272193 0.962243 1143.75 1030.97)" fill="#483E32"/>
<path d="M878.925 896.632C874.189 888.482 875.18 875.453 885.655 865.146C896.129 854.838 910.098 853.724 916.856 860.806C920.3 863.198 928.189 877.483 910.689 885.483" stroke="url(#paint31_linear_211_6841)" stroke-width="6"/>
<path d="M1080.4 928.548C1086.06 924.324 1085.4 914.09 1078.93 905.691C1072.46 897.292 1062.63 893.907 1056.97 898.131" stroke="url(#paint32_linear_211_6841)" stroke-width="8"/>
</g>
<defs>
<filter id="filter0_d_211_6841" x="170.236" y="193.009" width="1371.09" height="927.848" filterUnits="userSpaceOnUse" color-interpolation-filters="sRGB">
<feFlood flood-opacity="0" result="BackgroundImageFix"/>
<feColorMatrix in="SourceAlpha" type="matrix" values="0 0 0 0 0 0 0 0 0 0 0 0 0 0 0 0 0 0 127 0" result="hardAlpha"/>
<feOffset dy="4"/>
<feGaussianBlur stdDeviation="5"/>
<feComposite in2="hardAlpha" operator="out"/>
<feColorMatrix type="matrix" values="0 0 0 0 0 0 0 0 0 0 0 0 0 0 0 0 0 0 0.25 0"/>
<feBlend mode="normal" in2="BackgroundImageFix" result="effect1_dropShadow_211_6841"/>
<feBlend mode="normal" in="SourceGraphic" in2="effect1_dropShadow_211_6841" result="shape"/>
</filter>
<filter id="filter1_i_211_6841" x="180.236" y="199.009" width="806.452" height="605.966" filterUnits="userSpaceOnUse" color-interpolation-filters="sRGB">
<feFlood flood-opacity="0" result="BackgroundImageFix"/>
<feBlend mode="normal" in="SourceGraphic" in2="BackgroundImageFix" result="shape"/>
<feColorMatrix in="SourceAlpha" type="matrix" values="0 0 0 0 0 0 0 0 0 0 0 0 0 0 0 0 0 0 127 0" result="hardAlpha"/>
<feOffset dx="25" dy="4"/>
<feGaussianBlur stdDeviation="2"/>
<feComposite in2="hardAlpha" operator="arithmetic" k2="-1" k3="1"/>
<feColorMatrix type="matrix" values="0 0 0 0 0.417639 0 0 0 0 0.779031 0 0 0 0 0.808333 0 0 0 1 0"/>
<feBlend mode="normal" in2="shape" result="effect1_innerShadow_211_6841"/>
</filter>
<filter id="filter2_d_211_6841" x="491.763" y="843.833" width="427.27" height="247.606" filterUnits="userSpaceOnUse" color-interpolation-filters="sRGB">
<feFlood flood-opacity="0" result="BackgroundImageFix"/>
<feColorMatrix in="SourceAlpha" type="matrix" values="0 0 0 0 0 0 0 0 0 0 0 0 0 0 0 0 0 0 127 0" result="hardAlpha"/>
<feOffset dx="7.23197" dy="6.02664"/>
<feGaussianBlur stdDeviation="0.602664"/>
<feComposite in2="hardAlpha" operator="out"/>
<feColorMatrix type="matrix" values="0 0 0 0 0.779167 0 0 0 0 0.673135 0 0 0 0 0.548663 0 0 0 1 0"/>
<feBlend mode="normal" in2="BackgroundImageFix" result="effect1_dropShadow_211_6841"/>
<feBlend mode="normal" in="SourceGraphic" in2="effect1_dropShadow_211_6841" result="shape"/>
</filter>
<filter id="filter3_d_211_6841" x="859.035" y="876.829" width="29.0918" height="29.0923" filterUnits="userSpaceOnUse" color-interpolation-filters="sRGB">
<feFlood flood-opacity="0" result="BackgroundImageFix"/>
<feColorMatrix in="SourceAlpha" type="matrix" values="0 0 0 0 0 0 0 0 0 0 0 0 0 0 0 0 0 0 127 0" result="hardAlpha"/>
<feOffset dy="4"/>
<feGaussianBlur stdDeviation="2"/>
<feComposite in2="hardAlpha" operator="out"/>
<feColorMatrix type="matrix" values="0 0 0 0 0 0 0 0 0 0 0 0 0 0 0 0 0 0 0.25 0"/>
<feBlend mode="normal" in2="BackgroundImageFix" result="effect1_dropShadow_211_6841"/>
<feBlend mode="normal" in="SourceGraphic" in2="effect1_dropShadow_211_6841" result="shape"/>
</filter>
<filter id="filter4_d_211_6841" x="946.956" y="763.749" width="33.5283" height="33.5286" filterUnits="userSpaceOnUse" color-interpolation-filters="sRGB">
<feFlood flood-opacity="0" result="BackgroundImageFix"/>
<feColorMatrix in="SourceAlpha" type="matrix" values="0 0 0 0 0 0 0 0 0 0 0 0 0 0 0 0 0 0 127 0" result="hardAlpha"/>
<feOffset dy="4"/>
<feGaussianBlur stdDeviation="2"/>
<feComposite in2="hardAlpha" operator="out"/>
<feColorMatrix type="matrix" values="0 0 0 0 0.8 0 0 0 0 0.613333 0 0 0 0 0.613333 0 0 0 0.25 0"/>
<feBlend mode="normal" in2="BackgroundImageFix" result="effect1_dropShadow_211_6841"/>
<feBlend mode="normal" in="SourceGraphic" in2="effect1_dropShadow_211_6841" result="shape"/>
</filter>
<filter id="filter5_d_211_6841" x="1097.11" y="585.345" width="439.218" height="271.155" filterUnits="userSpaceOnUse" color-interpolation-filters="sRGB">
<feFlood flood-opacity="0" result="BackgroundImageFix"/>
<feColorMatrix in="SourceAlpha" type="matrix" values="0 0 0 0 0 0 0 0 0 0 0 0 0 0 0 0 0 0 127 0" result="hardAlpha"/>
<feOffset dx="5" dy="4"/>
<feComposite in2="hardAlpha" operator="out"/>
<feColorMatrix type="matrix" values="0 0 0 0 0.629167 0 0 0 0 0.626545 0 0 0 0 0.626545 0 0 0 1 0"/>
<feBlend mode="normal" in2="BackgroundImageFix" result="effect1_dropShadow_211_6841"/>
<feBlend mode="normal" in="SourceGraphic" in2="effect1_dropShadow_211_6841" result="shape"/>
</filter>
<filter id="filter6_d_211_6841" x="1021.08" y="720.933" width="39.9521" height="41.7839" filterUnits="userSpaceOnUse" color-interpolation-filters="sRGB">
<feFlood flood-opacity="0" result="BackgroundImageFix"/>
<feColorMatrix in="SourceAlpha" type="matrix" values="0 0 0 0 0 0 0 0 0 0 0 0 0 0 0 0 0 0 127 0" result="hardAlpha"/>
<feOffset dy="4"/>
<feGaussianBlur stdDeviation="2"/>
<feComposite in2="hardAlpha" operator="out"/>
<feColorMatrix type="matrix" values="0 0 0 0 0 0 0 0 0 0 0 0 0 0 0 0 0 0 0.25 0"/>
<feBlend mode="normal" in2="BackgroundImageFix" result="effect1_dropShadow_211_6841"/>
<feBlend mode="normal" in="SourceGraphic" in2="effect1_dropShadow_211_6841" result="shape"/>
</filter>
<filter id="filter7_d_211_6841" x="1149.61" y="961.163" width="31.9526" height="33.2322" filterUnits="userSpaceOnUse" color-interpolation-filters="sRGB">
<feFlood flood-opacity="0" result="BackgroundImageFix"/>
<feColorMatrix in="SourceAlpha" type="matrix" values="0 0 0 0 0 0 0 0 0 0 0 0 0 0 0 0 0 0 127 0" result="hardAlpha"/>
<feOffset dy="1.08395"/>
<feGaussianBlur stdDeviation="4.0648"/>
<feComposite in2="hardAlpha" operator="out"/>
<feColorMatrix type="matrix" values="0 0 0 0 0.741176 0 0 0 0 0.992157 0 0 0 0 0.898039 0 0 0 1 0"/>
<feBlend mode="normal" in2="BackgroundImageFix" result="effect1_dropShadow_211_6841"/>
<feBlend mode="normal" in="SourceGraphic" in2="effect1_dropShadow_211_6841" result="shape"/>
</filter>
<filter id="filter8_d_211_6841" x="1105.01" y="949.863" width="31.9526" height="33.2322" filterUnits="userSpaceOnUse" color-interpolation-filters="sRGB">
<feFlood flood-opacity="0" result="BackgroundImageFix"/>
<feColorMatrix in="SourceAlpha" type="matrix" values="0 0 0 0 0 0 0 0 0 0 0 0 0 0 0 0 0 0 127 0" result="hardAlpha"/>
<feOffset dy="1.08395"/>
<feGaussianBlur stdDeviation="4.0648"/>
<feComposite in2="hardAlpha" operator="out"/>
<feColorMatrix type="matrix" values="0 0 0 0 0.741176 0 0 0 0 0.992157 0 0 0 0 0.898039 0 0 0 1 0"/>
<feBlend mode="normal" in2="BackgroundImageFix" result="effect1_dropShadow_211_6841"/>
<feBlend mode="normal" in="SourceGraphic" in2="effect1_dropShadow_211_6841" result="shape"/>
</filter>
<linearGradient id="paint0_linear_211_6841" x1="1056.97" y1="898.131" x2="1079.93" y2="928.901" gradientUnits="userSpaceOnUse">
<stop stop-color="#A49F9F"/>
<stop offset="1" stop-color="#5F5F5F"/>
</linearGradient>
<linearGradient id="paint1_linear_211_6841" x1="416.135" y1="184.122" x2="820.638" y2="712.161" gradientUnits="userSpaceOnUse">
<stop stop-color="#3389B9"/>
<stop offset="1" stop-color="#7CCACA"/>
</linearGradient>
<linearGradient id="paint2_linear_211_6841" x1="992.37" y1="718.704" x2="1015.33" y2="749.474" gradientUnits="userSpaceOnUse">
<stop stop-color="#A49F9F"/>
<stop offset="1" stop-color="#5F5F5F"/>
</linearGradient>
<linearGradient id="paint3_linear_211_6841" x1="907.101" y1="888.778" x2="505.8" y2="1012.08" gradientUnits="userSpaceOnUse">
<stop stop-color="#F4E2BF"/>
<stop offset="1" stop-color="#D0B37B"/>
</linearGradient>
<radialGradient id="paint4_radial_211_6841" cx="0" cy="0" r="1" gradientUnits="userSpaceOnUse" gradientTransform="translate(942.212 824.125) rotate(117.093) scale(13.1326 16.7451)">
<stop stop-color="white"/>
<stop stop-color="white"/>
<stop offset="1" stop-color="#F8EADB"/>
</radialGradient>
<radialGradient id="paint5_radial_211_6841" cx="0" cy="0" r="1" gradientUnits="userSpaceOnUse" gradientTransform="translate(939.455 822.071) rotate(120.959) scale(13.1218 12.5672)">
<stop stop-color="#FBEBC1"/>
<stop offset="1" stop-color="#E1C375"/>
</radialGradient>
<linearGradient id="paint6_linear_211_6841" x1="956.296" y1="787.363" x2="936.309" y2="812.954" gradientUnits="userSpaceOnUse">
<stop stop-color="#96E4EB"/>
<stop offset="1" stop-color="#CCF6F8"/>
</linearGradient>
<radialGradient id="paint7_radial_211_6841" cx="0" cy="0" r="1" gradientUnits="userSpaceOnUse" gradientTransform="translate(971.144 775.7) rotate(117.093) scale(13.7295 17.5062)">
<stop stop-color="white"/>
<stop stop-color="white"/>
<stop offset="1" stop-color="#F8EADB"/>
</radialGradient>
<radialGradient id="paint8_radial_211_6841" cx="0" cy="0" r="1" gradientUnits="userSpaceOnUse" gradientTransform="translate(989.328 760.158) rotate(115.124) scale(14.0872 17.0295)">
<stop stop-color="white"/>
<stop stop-color="white"/>
<stop offset="1" stop-color="#F8EADB"/>
</radialGradient>
<radialGradient id="paint9_radial_211_6841" cx="0" cy="0" r="1" gradientUnits="userSpaceOnUse" gradientTransform="translate(933.144 846.7) rotate(117.093) scale(13.7295 17.5062)">
<stop stop-color="white"/>
<stop stop-color="white"/>
<stop offset="1" stop-color="#F8EADB"/>
</radialGradient>
<linearGradient id="paint10_linear_211_6841" x1="1300.87" y1="642.099" x2="1300.87" y2="857.409" gradientUnits="userSpaceOnUse">
<stop stop-color="#FCF8F4"/>
<stop offset="1" stop-color="#F2EDE6" stop-opacity="0.9"/>
<stop offset="1" stop-color="#F4EDE4" stop-opacity="0.9"/>
</linearGradient>
<linearGradient id="paint11_linear_211_6841" x1="1119.28" y1="732.299" x2="1119.28" y2="757.825" gradientUnits="userSpaceOnUse">
<stop stop-color="#A0A0A0"/>
<stop offset="1" stop-color="#95A4AA"/>
</linearGradient>
<radialGradient id="paint12_radial_211_6841" cx="0" cy="0" r="1" gradientUnits="userSpaceOnUse" gradientTransform="translate(1096.74 752.275) rotate(117.093) scale(13.1326 16.7451)">
<stop stop-color="white"/>
<stop stop-color="white"/>
<stop offset="1" stop-color="#F8EADB"/>
</radialGradient>
<linearGradient id="paint13_linear_211_6841" x1="1056.33" y1="741.087" x2="1025.21" y2="731.84" gradientUnits="userSpaceOnUse">
<stop stop-color="#C6969F"/>
<stop offset="1" stop-color="#CC7878"/>
</linearGradient>
<radialGradient id="paint14_radial_211_6841" cx="0" cy="0" r="1" gradientUnits="userSpaceOnUse" gradientTransform="translate(1072.76 744.655) rotate(117.093) scale(13.7295 17.5062)">
<stop stop-color="white"/>
<stop stop-color="white"/>
<stop offset="1" stop-color="#F8EADB"/>
</radialGradient>
<radialGradient id="paint15_radial_211_6841" cx="0" cy="0" r="1" gradientUnits="userSpaceOnUse" gradientTransform="translate(1061.33 806.158) rotate(115.124) scale(14.0872 17.0295)">
<stop stop-color="white"/>
<stop stop-color="white"/>
<stop offset="1" stop-color="#F8EADB"/>
</radialGradient>
<radialGradient id="paint16_radial_211_6841" cx="0" cy="0" r="1" gradientUnits="userSpaceOnUse" gradientTransform="translate(1038.33 761.158) rotate(115.124) scale(14.0872 17.0295)">
<stop stop-color="white"/>
<stop stop-color="white"/>
<stop offset="1" stop-color="#F8EADB"/>
</radialGradient>
<radialGradient id="paint17_radial_211_6841" cx="0" cy="0" r="1" gradientUnits="userSpaceOnUse" gradientTransform="translate(1061.57 829.917) rotate(118.806) scale(14.0089 12.8415)">
<stop stop-color="#FBEBC1"/>
<stop offset="1" stop-color="#E1C375"/>
</radialGradient>
<radialGradient id="paint18_radial_211_6841" cx="0" cy="0" r="1" gradientUnits="userSpaceOnUse" gradientTransform="translate(1055.67 854.752) rotate(118.806) scale(14.0089 12.8415)">
<stop stop-color="#FBEBC1"/>
<stop offset="1" stop-color="#E1C375"/>
</radialGradient>
<radialGradient id="paint19_radial_211_6841" cx="0" cy="0" r="1" gradientUnits="userSpaceOnUse" gradientTransform="translate(1060.42 882.993) rotate(115.124) scale(14.0872 17.0295)">
<stop stop-color="white"/>
<stop stop-color="white"/>
<stop offset="1" stop-color="#F8EADB"/>
</radialGradient>
<radialGradient id="paint20_radial_211_6841" cx="0" cy="0" r="1" gradientUnits="userSpaceOnUse" gradientTransform="translate(1053.33 781.158) rotate(115.124) scale(14.0872 17.0295)">
<stop stop-color="white"/>
<stop stop-color="white"/>
<stop offset="1" stop-color="#F8EADB"/>
</radialGradient>
<linearGradient id="paint21_linear_211_6841" x1="804.688" y1="902.983" x2="578.188" y2="1026.48" gradientUnits="userSpaceOnUse">
<stop stop-color="#FDFDFD"/>
<stop offset="1" stop-color="#FAE9D6"/>
</linearGradient>
<linearGradient id="paint22_linear_211_6841" x1="829.728" y1="970.868" x2="626.008" y2="1076.72" gradientUnits="userSpaceOnUse">
<stop stop-color="#FDFDFD"/>
<stop offset="1" stop-color="#FDF2E5"/>
</linearGradient>
<linearGradient id="paint23_linear_211_6841" x1="1095.57" y1="904.66" x2="1076.38" y2="978.733" gradientUnits="userSpaceOnUse">
<stop stop-color="#DBD4B7"/>
<stop offset="1" stop-color="#A6D6A8"/>
</linearGradient>
<linearGradient id="paint24_linear_211_6841" x1="1075.76" y1="929.02" x2="1075.74" y2="921.312" gradientUnits="userSpaceOnUse">
<stop stop-color="#CBB042"/>
<stop offset="1" stop-color="#A68432"/>
</linearGradient>
<linearGradient id="paint25_linear_211_6841" x1="1075.76" y1="929.02" x2="1075.74" y2="921.312" gradientUnits="userSpaceOnUse">
<stop stop-color="#CBB042"/>
<stop offset="1" stop-color="#A68432"/>
</linearGradient>
<linearGradient id="paint26_linear_211_6841" x1="1107.82" y1="915.638" x2="1107.48" y2="907.382" gradientUnits="userSpaceOnUse">
<stop stop-color="#CBB042"/>
<stop offset="1" stop-color="#A68432"/>
</linearGradient>
<linearGradient id="paint27_linear_211_6841" x1="1212.46" y1="934.944" x2="1193.27" y2="1009.02" gradientUnits="userSpaceOnUse">
<stop stop-color="#DBD4B7"/>
<stop offset="1" stop-color="#A6D6A8"/>
</linearGradient>
<linearGradient id="paint28_linear_211_6841" x1="1219.37" y1="966.226" x2="1223.07" y2="959.572" gradientUnits="userSpaceOnUse">
<stop stop-color="#CBB042"/>
<stop offset="1" stop-color="#A68432"/>
</linearGradient>
<linearGradient id="paint29_linear_211_6841" x1="1219.37" y1="966.226" x2="1223.07" y2="959.572" gradientUnits="userSpaceOnUse">
<stop stop-color="#CBB042"/>
<stop offset="1" stop-color="#A68432"/>
</linearGradient>
<linearGradient id="paint30_linear_211_6841" x1="1196.8" y1="938.691" x2="1201.01" y2="931.719" gradientUnits="userSpaceOnUse">
<stop stop-color="#CBB042"/>
<stop offset="1" stop-color="#A68432"/>
</linearGradient>
<linearGradient id="paint31_linear_211_6841" x1="916.856" y1="859.306" x2="878.359" y2="896.039" gradientUnits="userSpaceOnUse">
<stop stop-color="#A49F9F"/>
<stop offset="1" stop-color="#5F5F5F"/>
</linearGradient>
<linearGradient id="paint32_linear_211_6841" x1="1056.97" y1="898.131" x2="1079.93" y2="928.901" gradientUnits="userSpaceOnUse">
<stop stop-color="#A49F9F"/>
<stop offset="1" stop-color="#5F5F5F"/>
</linearGradient>
</defs>
</svg>
