<svg width="1500" height="1110" viewBox="0 0 1500 1110" fill="none" xmlns="http://www.w3.org/2000/svg">
<g filter="url(#filter0_d_2501_15351)">
<path d="M1056.17 822.574C1050.97 827.382 1040.82 825.057 1033.5 817.383C1026.19 809.708 1024.47 799.59 1029.67 794.782" stroke="url(#paint0_linear_2501_15351)" stroke-width="8"/>
<path d="M955.252 632.684C955.685 624.853 954.19 620.005 941.038 618.127C937.389 616.639 917.551 651.312 937.797 652.889C954.923 654.224 954.71 642.473 955.252 632.684Z" stroke="#A4A0A0" stroke-width="10"/>
<g filter="url(#filter1_i_2501_15351)">
<path d="M935.973 614.464L925.769 632.132C780.621 529.012 724.308 638.892 546.501 457.31C390.373 297.866 233.843 221.847 159.304 295.572C118.931 450.265 225.723 702.612 484.908 719.062C756.043 736.269 907.365 595.861 925.247 636.712C643.161 783.364 129.825 846.485 114.829 471.398C111.31 383.387 128.142 326.393 159.304 295.572C171.724 247.983 198.071 209.636 238.193 190.242C380.015 121.687 373.057 215.44 571.335 385.488C769.612 555.537 845.193 493.864 935.973 614.464Z" fill="url(#paint1_linear_2501_15351)"/>
</g>
<path d="M965.587 631.726C968.66 634.949 970.396 638.525 970.907 641.519C971.426 644.554 970.648 646.382 969.666 647.29C968.683 648.198 966.781 648.847 963.738 648.146C960.736 647.454 957.221 645.523 954.149 642.3C951.076 639.076 949.34 635.5 948.829 632.507C948.31 629.472 949.088 627.644 950.071 626.736C951.053 625.828 952.955 625.178 955.998 625.879C959 626.571 962.515 628.503 965.587 631.726Z" stroke="url(#paint2_linear_2501_15351)" stroke-width="10"/>
<g filter="url(#filter2_d_2501_15351)">
<path d="M727.241 980.87C620.605 1026.35 514.562 1060.91 485.709 993.263C456.855 925.612 533.741 860.544 640.377 815.064C747.012 769.583 850.801 733.543 879.654 801.194C908.508 868.845 833.876 935.39 727.241 980.87Z" fill="url(#paint3_linear_2501_15351)"/>
<path d="M726.652 979.49C673.33 1002.23 620.329 1022.16 577.105 1028C555.499 1030.92 536.475 1030.3 521.127 1024.85C505.842 1019.42 494.131 1009.19 487.088 992.674C472.99 959.618 484.597 927.06 513.321 896.883C542.063 866.687 587.731 839.148 640.965 816.443C694.299 793.696 746.736 773.396 789.4 767.189C810.726 764.086 829.463 764.53 844.594 769.84C859.658 775.128 871.23 785.264 878.275 801.782C892.382 834.86 881.311 867.793 853.153 898.329C824.976 928.886 779.876 956.79 726.652 979.49Z" stroke="#E6C8A5" stroke-width="3"/>
</g>
<path d="M963.574 640.485C921.95 694.217 898.172 708.949 888.237 767.312" stroke="#E8EEFF" stroke-width="5"/>
<g filter="url(#filter3_d_2501_15351)">
<circle cx="846.172" cy="803.313" r="10.5435" transform="rotate(8.8216 846.172 803.313)" fill="#C8B77A"/>
</g>
<circle cx="900.811" cy="734.735" r="12.2083" fill="#F5F5EB"/>
<circle cx="900.811" cy="734.735" r="12.2083" fill="url(#paint4_radial_2501_15351)"/>
<circle cx="900.811" cy="734.735" r="12.2083" fill="url(#paint5_radial_2501_15351)"/>
<path d="M892.091 713.104L902.197 691.102C915.569 693.218 919.325 693.053 928.794 707.104L912.616 724.661C900.914 722.373 901.583 726.465 892.091 713.104Z" fill="url(#paint6_linear_2501_15351)"/>
<path d="M928.708 706.866C916.872 702.767 910.757 699.322 901.013 690.566C909.864 691.498 914.404 693.127 917.956 694.739C921.508 696.35 921.445 698.195 928.708 706.866Z" fill="#A2E7EC"/>
<g filter="url(#filter4_d_2501_15351)">
<circle cx="924.19" cy="683.612" r="12.7632" fill="#F5F5EB"/>
<circle cx="924.19" cy="683.612" r="12.7632" fill="url(#paint7_radial_2501_15351)"/>
</g>
<ellipse cx="940.968" cy="666.251" rx="12.2083" ry="13.3182" fill="#F5F5EB"/>
<ellipse cx="940.968" cy="666.251" rx="12.2083" ry="13.3182" fill="url(#paint8_radial_2501_15351)"/>
<circle cx="893.843" cy="758.205" r="12.7632" fill="url(#paint9_radial_2501_15351)"/>
<path d="M1070.18 628.176C1039.29 627.26 1063.27 647.956 1033.64 647.078" stroke="#E8EEFF" stroke-width="5" stroke-linecap="round"/>
<g filter="url(#filter5_d_2501_15351)">
<rect x="1040.1" y="536.232" width="412.863" height="215.31" rx="20" transform="rotate(-14.2938 1040.1 536.232)" fill="url(#paint10_linear_2501_15351)" shape-rendering="crispEdges"/>
</g>
<path d="M1072.03 612.11L1058.1 557.433C1056.05 549.405 1060.9 541.239 1068.93 539.194L1416.28 450.696C1424.31 448.65 1432.47 453.5 1434.52 461.528L1475.06 620.667C1477.11 628.695 1472.26 636.861 1464.23 638.906L1116.88 727.404C1108.85 729.449 1100.69 724.6 1098.64 716.572L1085.06 663.282" stroke="#D1D1D1" stroke-width="3"/>
<rect x="1069.29" y="623.854" width="9.98861" height="25.5265" rx="4.99431" transform="rotate(-14.2938 1069.29 623.854)" fill="url(#paint11_linear_2501_15351)"/>
<path d="M1075.53 630.171C1030.46 688.354 1001.4 591.277 958.171 647.078" stroke="#E8EEFF" stroke-width="5" stroke-linecap="round"/>
<path d="M1024.36 785.138C1014.83 761.507 1049.71 690.799 964.981 642.639" stroke="#E8EEFF" stroke-width="5" stroke-linecap="round"/>
<circle cx="1046.96" cy="647.079" r="12.2083" fill="#F5F5EB"/>
<circle cx="1046.96" cy="647.079" r="12.2083" fill="url(#paint12_radial_2501_15351)"/>
<g filter="url(#filter6_d_2501_15351)">
<path d="M986.442 621.161L1010.62 622.523C1013.54 635.742 1015.06 639.178 1005.45 653.128L983.19 644.491C981.041 632.762 977.477 634.881 986.442 621.161Z" fill="url(#paint13_linear_2501_15351)"/>
</g>
<path d="M1005.92 654.887C1005.41 642.371 1006.38 635.42 1010.97 623.149C1013.34 631.728 1013.48 636.549 1013.28 640.444C1013.08 644.34 1011.34 644.956 1005.92 654.887Z" fill="#C6908C"/>
<circle cx="1021.99" cy="642.085" r="12.7632" fill="#F5F5EB"/>
<circle cx="1021.99" cy="642.085" r="12.7632" fill="url(#paint14_radial_2501_15351)"/>
<ellipse cx="1017.39" cy="704.448" rx="12.2083" ry="13.3182" fill="#F5F5EB"/>
<ellipse cx="1017.39" cy="704.448" rx="12.2083" ry="13.3182" fill="url(#paint15_radial_2501_15351)"/>
<ellipse cx="989.803" cy="662.108" rx="12.2083" ry="13.3182" fill="#F5F5EB"/>
<ellipse cx="989.803" cy="662.108" rx="12.2083" ry="13.3182" fill="url(#paint16_radial_2501_15351)"/>
<ellipse cx="1023.1" cy="729.99" rx="12.2083" ry="13.3182" fill="url(#paint17_radial_2501_15351)"/>
<ellipse cx="1019.84" cy="755.307" rx="12.2083" ry="13.3182" transform="rotate(-23.4202 1019.84 755.307)" fill="#F0D798"/>
<ellipse cx="1019.84" cy="755.307" rx="12.2083" ry="13.3182" transform="rotate(-23.4202 1019.84 755.307)" fill="url(#paint18_radial_2501_15351)"/>
<ellipse cx="1024.55" cy="780.954" rx="12.2083" ry="13.3182" transform="rotate(-23.4202 1024.55 780.954)" fill="#F5F5EB"/>
<ellipse cx="1024.55" cy="780.954" rx="12.2083" ry="13.3182" transform="rotate(-23.4202 1024.55 780.954)" fill="url(#paint19_radial_2501_15351)"/>
<ellipse cx="1006.82" cy="680.425" rx="12.2083" ry="13.3182" fill="#F5F5EB"/>
<ellipse cx="1006.82" cy="680.425" rx="12.2083" ry="13.3182" fill="url(#paint20_radial_2501_15351)"/>
<path d="M1128.25 593.516L1125.47 616.439L1125.65 616.543C1125.83 616.298 1126.15 616.07 1126.59 615.858C1127.06 615.588 1127.7 615.352 1128.49 615.151C1129.74 614.831 1130.98 614.837 1132.21 615.169C1133.43 615.501 1134.47 616.056 1135.31 616.832C1135.76 617.26 1136.15 617.707 1136.47 618.171C1136.78 618.635 1137.12 619.268 1137.47 620.07C1137.78 620.884 1138.12 621.936 1138.5 623.226C1138.86 624.47 1139.3 626.069 1139.79 628.023C1140.21 629.651 1140.53 631.005 1140.75 632.087C1140.97 633.122 1141.12 634.001 1141.2 634.722C1141.25 635.502 1141.23 636.177 1141.12 636.748C1141.07 637.307 1140.95 637.907 1140.77 638.548C1140.23 640.32 1139.27 641.826 1137.9 643.067C1136.58 644.295 1134.95 645.158 1132.99 645.656C1131.04 646.153 1129.19 646.179 1127.44 645.733C1125.68 645.24 1124.14 644.368 1122.83 643.117C1122.32 642.653 1121.88 642.196 1121.52 641.743C1121.2 641.279 1120.9 640.687 1120.62 639.966C1120.3 639.304 1119.99 638.467 1119.68 637.456C1119.36 636.398 1119 635.055 1118.58 633.427C1118.19 631.892 1117.89 630.63 1117.69 629.641C1117.48 628.606 1117.32 627.705 1117.23 626.937C1117.14 626.215 1117.12 625.552 1117.16 624.946C1117.2 624.294 1117.25 623.613 1117.31 622.902L1120.3 595.542L1128.25 593.516ZM1131.41 624.882C1131.14 623.812 1130.57 623.041 1129.71 622.567C1128.85 622.094 1127.95 621.976 1127.02 622.213C1126.09 622.45 1125.36 622.983 1124.83 623.812C1124.29 624.641 1124.16 625.59 1124.44 626.66L1126.78 635.869C1127.06 636.939 1127.62 637.711 1128.49 638.184C1129.35 638.658 1130.25 638.776 1131.18 638.539C1132.11 638.302 1132.84 637.769 1133.37 636.94C1133.9 636.111 1134.03 635.162 1133.76 634.092L1131.41 624.882ZM1154.21 586.902L1151.43 609.825L1151.61 609.929C1151.79 609.684 1152.11 609.456 1152.55 609.244C1153.02 608.974 1153.66 608.738 1154.45 608.537C1155.7 608.217 1156.94 608.223 1158.17 608.555C1159.39 608.887 1160.43 609.441 1161.27 610.218C1161.72 610.646 1162.11 611.093 1162.43 611.557C1162.74 612.021 1163.08 612.654 1163.43 613.456C1163.74 614.27 1164.08 615.322 1164.46 616.612C1164.82 617.856 1165.25 619.455 1165.75 621.409C1166.17 623.037 1166.49 624.391 1166.71 625.473C1166.93 626.508 1167.08 627.387 1167.16 628.108C1167.21 628.888 1167.19 629.563 1167.08 630.134C1167.03 630.693 1166.91 631.293 1166.73 631.934C1166.19 633.706 1165.23 635.212 1163.86 636.453C1162.54 637.681 1160.91 638.544 1158.95 639.042C1157 639.539 1155.15 639.565 1153.4 639.119C1151.64 638.626 1150.1 637.754 1148.79 636.503C1148.28 636.039 1147.84 635.582 1147.48 635.129C1147.16 634.665 1146.86 634.072 1146.58 633.352C1146.26 632.69 1145.95 631.853 1145.64 630.842C1145.32 629.784 1144.96 628.441 1144.54 626.813C1144.15 625.278 1143.85 624.016 1143.65 623.027C1143.44 621.992 1143.28 621.09 1143.19 620.323C1143.1 619.601 1143.08 618.938 1143.12 618.332C1143.16 617.68 1143.21 616.999 1143.27 616.288L1146.26 588.928L1154.21 586.902ZM1157.37 618.268C1157.1 617.198 1156.53 616.427 1155.67 615.953C1154.81 615.48 1153.91 615.362 1152.98 615.599C1152.05 615.836 1151.32 616.369 1150.79 617.197C1150.25 618.026 1150.12 618.976 1150.4 620.046L1152.74 629.255C1153.02 630.325 1153.58 631.097 1154.45 631.57C1155.31 632.044 1156.21 632.162 1157.14 631.925C1158.07 631.688 1158.8 631.155 1159.33 630.326C1159.86 629.497 1159.99 628.548 1159.72 627.478L1157.37 618.268ZM1182.75 579.63L1184.46 586.328L1170.37 589.919L1173.78 603.315C1174.26 602.498 1174.97 601.749 1175.88 601.07C1176.79 600.344 1177.87 599.821 1179.12 599.501C1181.54 598.885 1183.68 599.132 1185.55 600.241C1187.45 601.292 1188.78 603.282 1189.53 606.213L1192.8 619.051C1193.22 620.725 1193.3 622.291 1193.03 623.747C1192.8 625.192 1192.32 626.504 1191.58 627.683C1190.84 628.862 1189.88 629.873 1188.71 630.717C1187.57 631.502 1186.31 632.072 1184.91 632.428C1183.52 632.783 1182.11 632.894 1180.69 632.761C1179.3 632.569 1178 632.133 1176.79 631.451C1175.57 630.77 1174.5 629.855 1173.56 628.707C1172.67 627.546 1172.01 626.129 1171.59 624.455L1171.05 622.361L1178.17 620.548L1178.63 622.362C1178.94 623.572 1179.51 624.442 1180.34 624.974C1181.2 625.447 1182.17 625.548 1183.24 625.275C1184.31 625.003 1185.04 624.47 1185.43 623.676C1185.87 622.871 1185.94 621.887 1185.64 620.724L1182.68 609.072C1182.43 608.096 1181.89 607.341 1181.06 606.81C1180.28 606.266 1179.4 606.119 1178.42 606.367C1177.82 606.521 1177.33 606.768 1176.97 607.107C1176.6 607.4 1176.31 607.722 1176.11 608.072C1175.9 608.422 1175.77 608.778 1175.71 609.139C1175.58 609.617 1175.51 609.908 1175.49 610.013L1169.21 611.613L1162.38 584.821L1182.75 579.63ZM1239.97 617.953L1227.32 568.276L1234.43 566.463L1239.86 587.743L1248.65 585.503L1243.22 564.223L1250.34 562.41L1263 612.087L1255.88 613.9L1250.25 591.783L1241.45 594.022L1247.09 616.14L1239.97 617.953ZM1279.63 589.349L1271.55 572.237L1271.41 572.273L1272.51 591.162L1279.63 589.349ZM1266.47 611.202L1264.91 558.698L1270.84 557.187L1294.59 604.038L1287.47 605.851L1282.66 595.71L1272.96 598.18L1273.59 609.389L1266.47 611.202ZM1317.09 583.222L1317.87 586.292C1318.26 587.827 1318.33 589.369 1318.09 590.919C1317.87 592.41 1317.39 593.821 1316.64 595.151C1315.89 596.482 1314.9 597.65 1313.67 598.657C1312.47 599.605 1311.08 600.281 1309.5 600.684C1308.15 601.028 1306.73 601.191 1305.24 601.175C1303.75 601.158 1302.33 600.827 1300.98 600.181C1299.63 599.535 1298.39 598.586 1297.28 597.334C1296.2 596.023 1295.38 594.228 1294.79 591.949L1287.83 564.599C1287.41 562.971 1287.31 561.388 1287.51 559.85C1287.71 558.313 1288.19 556.902 1288.96 555.618C1289.72 554.334 1290.73 553.235 1291.98 552.321C1293.27 551.349 1294.77 550.644 1296.49 550.205C1299.84 549.352 1302.84 549.752 1305.49 551.405C1306.79 552.214 1307.9 553.292 1308.84 554.638C1309.81 555.926 1310.52 557.43 1310.96 559.151L1311.67 561.942L1304.55 563.755L1303.95 561.383C1303.59 559.987 1302.89 558.879 1301.84 558.057C1300.79 557.235 1299.59 556.996 1298.24 557.34C1296.47 557.79 1295.43 558.65 1295.1 559.921C1294.82 561.133 1294.89 562.576 1295.32 564.251L1301.79 589.647C1302.15 591.089 1302.76 592.222 1303.62 593.044C1304.52 593.855 1305.78 594.053 1307.41 593.638C1307.88 593.52 1308.35 593.326 1308.82 593.056C1309.33 592.728 1309.77 592.318 1310.14 591.828C1310.47 591.349 1310.69 590.748 1310.8 590.026C1310.91 589.304 1310.84 588.454 1310.6 587.477L1309.97 585.035L1317.09 583.222ZM1326.51 595.906L1313.85 546.229L1320.97 544.416L1326.74 567.092L1326.88 567.056L1331.5 541.732L1338.62 539.919L1333.99 562.274L1353.09 589.133L1345.55 591.053L1331.84 571.068L1329.84 579.232L1333.62 594.093L1326.51 595.906ZM1356.21 588.337L1343.56 538.66L1364.77 533.256L1366.47 539.954L1352.38 543.545L1356.09 558.127L1368.37 554.999L1370.08 561.697L1357.8 564.825L1361.52 579.408L1375.61 575.817L1377.42 582.933L1356.21 588.337ZM1378.2 536.966L1382.15 552.455L1386.2 551.424C1387.45 551.104 1388.41 550.686 1389.07 550.171C1389.72 549.609 1390.17 548.95 1390.42 548.192C1390.63 547.446 1390.69 546.59 1390.59 545.624C1390.48 544.612 1390.26 543.478 1389.94 542.222C1389.62 540.966 1389.28 539.891 1388.9 538.996C1388.51 538.055 1388.02 537.288 1387.42 536.697C1386.21 535.62 1384.37 535.396 1381.9 536.024L1378.2 536.966ZM1382.04 581.758L1369.38 532.081L1380.82 529.166C1389.19 527.033 1394.62 530.827 1397.1 540.548C1397.84 543.478 1398.01 546.086 1397.6 548.369C1397.24 550.641 1396.08 552.695 1394.12 554.532L1407.57 575.252L1400.04 577.172L1388.01 557.65L1383.75 558.734L1389.15 579.945L1382.04 581.758ZM1425.76 532.949L1418.64 534.762L1418.23 533.158C1417.82 531.53 1417.06 530.235 1415.98 529.273C1414.93 528.254 1413.49 527.975 1411.68 528.437C1410.7 528.686 1409.96 529.073 1409.45 529.6C1408.94 530.126 1408.57 530.715 1408.34 531.368C1408.12 532.068 1408.04 532.831 1408.1 533.657C1408.15 534.437 1408.29 535.245 1408.5 536.083C1408.75 537.059 1408.98 537.867 1409.19 538.507C1409.45 539.134 1409.78 539.668 1410.19 540.109C1410.6 540.549 1411.11 540.891 1411.72 541.132C1412.37 541.362 1413.21 541.545 1414.23 541.68L1420.23 542.456C1421.96 542.658 1423.43 543.053 1424.62 543.641C1425.79 544.183 1426.8 544.918 1427.63 545.846C1428.43 546.832 1429.1 548.022 1429.65 549.416C1430.2 550.764 1430.7 552.345 1431.16 554.159C1431.69 556.253 1431.98 558.26 1432.02 560.18C1432.06 562.054 1431.77 563.738 1431.16 565.231C1430.51 566.782 1429.49 568.131 1428.1 569.278C1426.71 570.426 1424.87 571.29 1422.6 571.87C1420.87 572.309 1419.19 572.415 1417.55 572.19C1415.91 571.964 1414.41 571.453 1413.07 570.656C1411.73 569.858 1410.56 568.845 1409.55 567.616C1408.58 566.328 1407.88 564.847 1407.45 563.172L1406.78 560.521L1413.89 558.708L1414.46 560.94C1414.79 562.243 1415.47 563.334 1416.48 564.214C1417.54 565.036 1418.97 565.216 1420.78 564.754C1421.99 564.445 1422.88 564.046 1423.45 563.554C1424.05 563.004 1424.46 562.356 1424.66 561.61C1424.87 560.864 1424.88 560.044 1424.7 559.148C1424.56 558.194 1424.35 557.159 1424.06 556.042C1423.73 554.74 1423.41 553.682 1423.1 552.869C1422.8 552.055 1422.44 551.428 1422.03 550.987C1421.57 550.559 1421.03 550.253 1420.38 550.069C1419.79 549.874 1419 549.703 1418.02 549.556L1412.4 548.76C1409.01 548.287 1406.52 547.163 1404.93 545.389C1403.37 543.556 1402.19 541.082 1401.4 537.966C1400.93 536.105 1400.73 534.272 1400.82 532.467C1400.9 530.663 1401.3 529.025 1402.02 527.555C1402.69 526.097 1403.68 524.829 1404.99 523.752C1406.33 522.617 1408.05 521.783 1410.14 521.249C1411.91 520.799 1413.6 520.716 1415.21 521C1416.86 521.272 1418.36 521.806 1419.7 522.603C1422.41 524.291 1424.13 526.577 1424.87 529.461L1425.76 532.949Z" fill="#2A6DCC"/>
<path d="M552.555 976.669L535.154 938.135L530.808 945.859L527.696 938.968L532.043 931.245L538.55 928.307L559.062 973.73L552.555 976.669ZM564.423 939.666C566.379 938.782 567.613 937.943 568.125 937.149C568.679 936.335 568.572 935.078 567.804 933.377L565.154 927.507C564.731 926.572 564.088 925.94 563.223 925.614C562.402 925.268 561.502 925.316 560.523 925.758C559.375 926.276 558.709 927.012 558.525 927.966C558.384 928.9 558.467 929.708 558.774 930.388L560.445 934.088L553.937 937.027L552.238 933.263C551.642 931.944 551.331 930.574 551.304 929.153C551.276 927.732 551.517 926.394 552.026 925.14C552.535 923.886 553.27 922.735 554.23 921.687C555.191 920.639 556.351 919.808 557.712 919.193C559.499 918.386 561.129 918.085 562.604 918.29C564.102 918.432 565.312 918.731 566.234 919.185C566.89 919.503 567.482 919.851 568.01 920.226C568.581 920.583 569.136 921.075 569.675 921.702C570.692 922.933 571.824 924.93 573.073 927.695C573.783 929.269 574.317 930.564 574.673 931.58C575.073 932.578 575.289 933.453 575.322 934.206C575.331 935.021 575.165 935.787 574.823 936.505C574.524 937.203 574.032 938.04 573.346 939.016C574.655 939.193 575.689 939.442 576.449 939.765C577.252 940.068 577.944 940.524 578.526 941.131C579.126 941.782 579.688 942.629 580.211 943.673C580.714 944.675 581.331 945.983 582.061 947.6C582.733 949.088 583.247 950.341 583.604 951.357C584.003 952.355 584.283 953.201 584.444 953.897C584.623 954.635 584.712 955.286 584.711 955.85C584.71 956.414 584.654 957.028 584.544 957.692C584.274 959.248 583.683 960.718 582.772 962.102C581.885 963.424 580.42 964.547 578.378 965.468C577.358 965.929 576.196 966.249 574.894 966.427C573.592 966.606 572.301 966.523 571.019 966.18C569.738 965.837 568.5 965.193 567.305 964.248C566.152 963.283 565.173 961.908 564.366 960.121L562.695 956.421L569.203 953.483L570.729 956.864C571.19 957.885 571.851 958.611 572.711 959.041C573.595 959.41 574.526 959.374 575.504 958.932C576.482 958.491 577.103 957.826 577.368 956.938C577.656 955.989 577.551 954.961 577.052 953.856L574.113 947.348C573.306 945.562 572.438 944.546 571.508 944.3C570.971 944.133 570.344 944.16 569.625 944.383C568.948 944.586 568.079 944.927 567.015 945.407L564.423 939.666ZM600.029 955.231L582.628 916.698L578.282 924.421L575.17 917.531L579.517 909.808L586.024 906.869L606.536 952.293L600.029 955.231ZM628.777 942.25L608.265 896.826L618.026 892.418C619.812 891.612 621.492 891.135 623.064 890.988C624.636 890.842 626.244 891.114 627.888 891.806C629.531 892.497 630.931 893.555 632.086 894.979C633.222 896.361 634.404 898.412 635.633 901.134C636.555 903.176 637.205 904.956 637.584 906.475C638.005 907.974 638.111 909.514 637.903 911.093C637.682 912.985 637.019 914.692 635.915 916.215C634.791 917.695 633.017 918.983 630.593 920.078L627.275 921.576L635.284 939.311L628.777 942.25ZM617.538 900.012L624.51 915.451L627.636 914.039C628.954 913.444 629.889 912.792 630.439 912.082C630.989 911.373 631.28 910.601 631.313 909.767C631.366 908.976 631.202 908.102 630.822 907.148C630.484 906.173 630.056 905.112 629.538 903.964C629.058 902.901 628.585 901.911 628.12 900.994C627.636 900.035 627.06 899.271 626.393 898.702C625.727 898.132 624.967 897.81 624.113 897.734C623.26 897.659 622.195 897.909 620.919 898.485L617.538 900.012ZM643.518 888.281L649.913 902.444L653.614 900.773C654.762 900.254 655.609 899.692 656.155 899.087C656.682 898.44 657.002 897.732 657.116 896.964C657.188 896.214 657.095 895.386 656.839 894.478C656.563 893.527 656.166 892.477 655.647 891.329C655.129 890.181 654.614 889.21 654.102 888.417C653.571 887.581 652.97 886.931 652.299 886.466C650.953 885.64 649.153 885.736 646.899 886.754L643.518 888.281ZM654.757 930.518L634.245 885.094L644.708 880.37C652.363 876.913 658.198 879.629 662.212 888.518C663.422 891.197 664.024 893.665 664.019 895.92C664.056 898.157 663.291 900.32 661.726 902.409L678.106 919.974L671.216 923.085L656.398 906.428L652.506 908.185L661.264 927.58L654.757 930.518ZM665.866 883.719C665.04 881.89 664.629 880.13 664.633 878.438C664.637 876.747 664.96 875.193 665.601 873.777C666.218 872.423 667.059 871.224 668.124 870.18C669.231 869.117 670.444 868.288 671.762 867.692C673.081 867.097 674.484 866.745 675.971 866.637C677.501 866.509 678.999 866.652 680.465 867.065C681.909 867.54 683.266 868.335 684.538 869.45C685.81 870.566 686.858 872.038 687.684 873.867L698.516 897.854C699.38 899.768 699.801 901.55 699.778 903.199C699.754 904.848 699.434 906.35 698.816 907.704C698.176 909.119 697.302 910.359 696.194 911.422C695.13 912.466 693.938 913.286 692.62 913.881C691.301 914.477 689.877 914.838 688.347 914.966C686.86 915.074 685.395 914.891 683.952 914.416C682.485 914.003 681.125 913.26 679.873 912.187C678.62 911.114 677.562 909.621 676.698 907.707L665.866 883.719ZM683.205 904.768C683.916 906.342 684.869 907.32 686.065 907.701C687.285 908.021 688.49 907.912 689.681 907.374C690.872 906.836 691.73 906.014 692.254 904.907C692.801 903.738 692.72 902.367 692.009 900.793L681.177 876.805C680.466 875.231 679.501 874.285 678.282 873.965C677.085 873.584 675.892 873.662 674.701 874.2C673.51 874.737 672.641 875.591 672.093 876.759C671.569 877.867 671.662 879.207 672.373 880.781L683.205 904.768ZM703.692 853.735L719.364 888.44C720.766 891.545 720.959 894.581 719.944 897.549C719.427 899.011 718.622 900.347 717.53 901.558C716.48 902.748 715.062 903.747 713.276 904.554C711.192 905.495 709.246 905.836 707.44 905.576C705.656 905.255 704.159 904.83 702.947 904.302L706.207 897.915C706.886 898.171 707.6 898.335 708.349 898.406C709.122 898.416 709.848 898.267 710.529 897.96C710.912 897.787 711.329 897.522 711.782 897.164C712.216 896.763 712.57 896.244 712.846 895.608C713.141 895.014 713.284 894.309 713.274 893.494C713.246 892.637 712.972 891.634 712.453 890.486L697.185 856.673L703.692 853.735ZM730.329 896.392L709.817 850.969L729.211 842.211L731.977 848.336L719.09 854.155L725.111 867.489L736.339 862.418L739.105 868.543L727.877 873.613L733.898 886.947L746.785 881.127L749.723 887.635L730.329 896.392ZM768.763 863.445L770.031 866.252C770.665 867.656 770.993 869.12 771.016 870.646C771.063 872.11 770.839 873.542 770.345 874.943C769.851 876.344 769.101 877.63 768.094 878.801C767.11 879.911 765.895 880.793 764.449 881.446C763.216 882.003 761.884 882.399 760.455 882.635C759.025 882.871 757.608 882.794 756.203 882.404C754.798 882.015 753.458 881.314 752.182 880.303C750.929 879.23 749.833 877.652 748.891 875.568L737.599 850.559C736.926 849.071 736.557 847.573 736.492 846.067C736.426 844.56 736.649 843.128 737.163 841.77C737.676 840.411 738.455 839.189 739.501 838.103C740.569 836.954 741.891 836.025 743.464 835.314C746.527 833.931 749.466 833.807 752.283 834.942C753.66 835.498 754.911 836.341 756.036 837.471C757.184 838.54 758.114 839.861 758.824 841.435L759.977 843.987L753.469 846.925L752.49 844.756C751.914 843.48 751.053 842.538 749.907 841.929C748.762 841.319 747.572 841.293 746.339 841.85C744.723 842.58 743.869 843.58 743.777 844.851C743.708 846.059 744.019 847.429 744.711 848.96L755.197 872.183C755.792 873.501 756.568 874.482 757.524 875.126C758.523 875.75 759.767 875.726 761.256 875.054C761.681 874.862 762.099 874.596 762.509 874.257C762.942 873.857 763.295 873.39 763.567 872.858C763.796 872.345 763.904 871.733 763.89 871.022C763.876 870.312 763.668 869.51 763.264 868.617L762.256 866.384L768.763 863.445ZM784.195 872.068L766.449 832.769L758.921 836.169L756.156 830.044L777.719 820.307L780.485 826.431L772.957 829.831L790.703 869.13L784.195 872.068ZM807.551 822.581L801.044 825.52L800.381 824.052C799.709 822.564 798.771 821.451 797.568 820.714C796.388 819.916 794.969 819.891 793.31 820.64C792.417 821.043 791.771 821.54 791.371 822.13C790.972 822.72 790.718 823.347 790.608 824.011C790.517 824.717 790.571 825.461 790.77 826.241C790.95 826.98 791.213 827.731 791.558 828.497C791.962 829.39 792.319 830.125 792.631 830.701C792.984 831.258 793.395 831.713 793.861 832.066C794.328 832.418 794.872 832.659 795.493 832.788C796.157 832.898 796.991 832.931 797.995 832.887L803.865 832.617C805.56 832.517 807.028 832.648 808.267 833.011C809.486 833.33 810.572 833.864 811.524 834.612C812.453 835.421 813.3 836.447 814.066 837.689C814.812 838.888 815.56 840.317 816.309 841.975C817.173 843.889 817.788 845.762 818.154 847.594C818.501 849.383 818.509 851.043 818.177 852.576C817.821 854.17 817.074 855.634 815.936 856.967C814.797 858.301 813.185 859.438 811.101 860.379C809.528 861.09 807.935 861.476 806.325 861.538C804.714 861.599 803.199 861.362 801.779 860.826C800.359 860.289 799.063 859.517 797.892 858.51C796.743 857.441 795.823 856.141 795.132 854.61L794.037 852.186L800.545 849.248L801.466 851.289C802.004 852.48 802.834 853.411 803.956 854.082C805.102 854.691 806.504 854.621 808.163 853.872C809.269 853.373 810.052 852.84 810.513 852.273C810.997 851.645 811.275 850.956 811.347 850.207C811.418 849.458 811.292 848.67 810.97 847.842C810.671 846.953 810.291 845.998 809.83 844.978C809.292 843.787 808.808 842.828 808.377 842.101C807.947 841.373 807.498 840.834 807.032 840.481C806.523 840.148 805.946 839.947 805.301 839.88C804.699 839.794 803.917 839.763 802.955 839.787L797.433 839.976C794.108 840.096 791.533 839.44 789.71 838.011C787.91 836.519 786.367 834.349 785.08 831.499C784.312 829.798 783.816 828.076 783.592 826.334C783.369 824.591 783.475 822.956 783.911 821.428C784.305 819.919 785.039 818.538 786.112 817.285C787.208 815.971 788.713 814.882 790.627 814.017C792.243 813.288 793.845 812.923 795.432 812.923C797.062 812.904 798.587 813.162 800.007 813.699C802.885 814.857 804.92 816.754 806.11 819.391L807.551 822.581Z" fill="url(#paint21_linear_2501_15351)"/>
<path d="M659.006 978.319L652.97 964.952L655.659 963.738L656.243 965.03L656.295 965.006C656.386 964.457 656.565 963.964 656.833 963.525C657.11 963.062 657.556 962.691 658.172 962.413C658.506 962.262 658.867 962.173 659.257 962.145C659.638 962.1 660.021 962.15 660.403 962.294C660.786 962.439 661.152 962.686 661.5 963.037C661.841 963.369 662.146 963.835 662.416 964.432L667.047 974.688L664.358 975.902L660.179 966.648C659.957 966.156 659.668 965.821 659.313 965.643C658.957 965.465 658.569 965.471 658.147 965.662C657.637 965.892 657.357 966.209 657.307 966.613C657.256 967.016 657.366 967.517 657.636 968.114L661.695 977.105L659.006 978.319ZM676.215 954.456L679.087 969.251L676.714 970.323L671.655 963.054L671.602 963.077L673.709 971.68L671.336 972.751L662.136 960.813L664.984 959.527L670.368 967.094L670.421 967.07L668.174 958.087L670.283 957.134L675.457 964.796L675.51 964.773L673.368 955.742L676.215 954.456ZM683.546 967.238L675.07 948.466L677.759 947.252L681.39 955.293L684.712 953.793L681.081 945.752L683.77 944.537L692.247 963.309L689.557 964.523L685.783 956.166L682.462 957.666L686.235 966.023L683.546 967.238ZM699.702 959.942L699.083 958.571L699.03 958.595C698.901 959.246 698.711 959.787 698.461 960.217C698.229 960.639 697.787 960.997 697.137 961.291C696.821 961.434 696.472 961.528 696.09 961.573C695.734 961.628 695.347 961.591 694.929 961.463C694.519 961.352 694.114 961.111 693.715 960.742C693.325 960.346 692.963 959.78 692.63 959.041C692.288 958.286 692.052 957.599 691.921 956.981C691.782 956.345 691.793 955.759 691.952 955.221C692.102 954.709 692.409 954.242 692.875 953.821C693.332 953.381 693.983 952.971 694.827 952.59C694.915 952.55 695.011 952.507 695.117 952.459C695.222 952.411 695.323 952.377 695.419 952.354C695.514 952.332 695.624 952.294 695.747 952.238C695.87 952.182 696.006 952.132 696.154 952.086L695.523 950.688C695.317 950.231 695.05 949.897 694.721 949.686C694.393 949.474 693.974 949.484 693.464 949.714C693.113 949.872 692.839 950.134 692.644 950.497C692.466 950.852 692.432 951.27 692.542 951.749L689.932 952.927C689.463 951.7 689.431 950.551 689.835 949.48C690.028 948.969 690.327 948.507 690.732 948.091C691.129 947.658 691.635 947.302 692.25 947.025C692.812 946.771 693.379 946.62 693.951 946.574C694.522 946.527 695.072 946.597 695.6 946.781C696.11 946.974 696.59 947.287 697.039 947.719C697.488 948.151 697.871 948.718 698.189 949.421L702.391 958.728L699.702 959.942ZM697.107 954.195C696.784 954.277 696.526 954.362 696.333 954.449C695.753 954.711 695.315 955.078 695.02 955.55C694.735 955.996 694.755 956.579 695.081 957.3C695.311 957.81 695.62 958.167 696.009 958.372C696.398 958.578 696.812 958.581 697.252 958.383C697.709 958.176 697.993 957.868 698.104 957.458C698.233 957.04 698.174 956.559 697.928 956.014L697.107 954.195ZM705.481 952.699C705.671 953.121 705.932 953.394 706.264 953.519C706.613 953.637 706.99 953.604 707.394 953.422C707.904 953.192 708.17 952.891 708.194 952.521C708.235 952.143 708.205 951.797 708.105 951.482L710.794 950.268C711.326 951.445 711.395 952.557 710.999 953.603C710.814 954.131 710.524 954.611 710.127 955.044C709.73 955.478 709.224 955.833 708.609 956.111C707.765 956.492 706.965 956.642 706.209 956.56C705.47 956.47 704.811 956.207 704.233 955.77C703.881 955.505 703.567 955.161 703.29 954.735C703.013 954.31 702.752 953.825 702.506 953.28L700.518 948.877C700.272 948.333 700.081 947.816 699.945 947.327C699.808 946.838 699.758 946.375 699.792 945.936C699.847 945.213 700.085 944.545 700.506 943.931C700.945 943.31 701.586 942.809 702.43 942.428C703.045 942.15 703.646 942.005 704.234 941.994C704.839 941.975 705.4 942.07 705.918 942.281C706.979 942.754 707.794 943.624 708.366 944.889L705.677 946.103C705.431 945.559 705.129 945.219 704.772 945.084C704.424 944.923 704.048 944.934 703.644 945.117C703.24 945.299 702.974 945.578 702.847 945.953C702.73 946.302 702.786 946.732 703.016 947.241L705.481 952.699ZM713.821 953.567L705.344 934.795L708.033 933.581L713.105 944.812L713.158 944.789L713.769 937.498L716.459 936.283L715.721 943.155L723.154 949.352L720.227 950.674L715.194 945.995L714.819 948.609L716.51 952.353L713.821 953.567ZM724.6 937.114C724.376 936.665 724.072 936.39 723.687 936.288C723.32 936.179 722.961 936.204 722.61 936.362C722.188 936.553 721.926 936.84 721.825 937.225C721.715 937.591 721.74 937.951 721.899 938.302C722.01 938.548 722.182 938.766 722.417 938.957C722.643 939.13 723.054 939.198 723.651 939.161L725.519 939.08C726.695 939.014 727.619 939.232 728.29 939.733C728.978 940.226 729.501 940.868 729.858 941.659C730.112 942.222 730.244 942.797 730.256 943.384C730.277 943.946 730.195 944.491 730.01 945.018C729.825 945.546 729.534 946.027 729.137 946.46C728.74 946.893 728.252 947.241 727.672 947.503C726.582 947.995 725.514 948.065 724.466 947.712C723.946 947.545 723.461 947.267 723.01 946.878C722.551 946.472 722.162 945.938 721.843 945.278L724.374 944.135C724.593 944.481 724.871 944.768 725.207 944.997C725.561 945.218 725.993 945.214 726.503 944.983C726.889 944.809 727.177 944.531 727.364 944.15C727.562 943.744 727.557 943.312 727.351 942.855C727.184 942.486 726.944 942.213 726.632 942.037C726.32 941.86 725.865 941.791 725.268 941.827L723.762 941.936C722.775 942.001 721.897 941.837 721.127 941.444C720.367 941.025 719.784 940.368 719.38 939.471C719.126 938.909 718.997 938.343 718.994 937.773C718.982 937.186 719.082 936.633 719.292 936.115C719.485 935.604 719.779 935.154 720.174 934.764C720.561 934.357 721.027 934.03 721.572 933.784C722.117 933.538 722.662 933.408 723.206 933.395C723.768 933.374 724.295 933.464 724.788 933.665C725.28 933.865 725.735 934.168 726.15 934.573C726.558 934.96 726.885 935.426 727.131 935.971L724.6 937.114ZM738.017 942.64L736.874 940.11L737.594 928.77C737.634 928.202 737.596 927.743 737.481 927.394C737.357 927.026 737.18 926.588 736.95 926.078C736.847 925.849 736.731 925.616 736.602 925.378C736.483 925.114 736.336 924.906 736.161 924.752C735.986 924.598 735.782 924.5 735.551 924.456C735.312 924.395 735.025 924.44 734.691 924.59C734.287 924.773 734.013 925.034 733.87 925.374C733.745 925.705 733.782 926.091 733.98 926.53L734.671 928.059L731.981 929.274L731.315 927.797C731.061 927.235 730.928 926.66 730.917 926.073C730.905 925.485 731.001 924.924 731.203 924.388C731.388 923.86 731.679 923.379 732.076 922.946C732.465 922.496 732.941 922.143 733.503 921.889C734.206 921.572 734.863 921.434 735.475 921.475C736.095 921.491 736.672 921.643 737.204 921.932C737.719 922.229 738.174 922.626 738.568 923.125C738.981 923.616 739.33 924.178 739.615 924.811C739.822 925.268 739.987 925.658 740.113 925.983C740.23 926.29 740.326 926.595 740.4 926.9C740.474 927.205 740.514 927.526 740.517 927.863C740.521 928.2 740.509 928.618 740.481 929.118L739.967 938.523L744.818 936.332L746.032 939.021L738.017 942.64ZM741.1 923.315C740.815 922.682 740.666 922.072 740.655 921.485C740.661 920.889 740.769 920.333 740.98 919.815C741.19 919.296 741.493 918.842 741.888 918.452C742.293 918.037 742.759 917.71 743.286 917.472C743.814 917.234 744.358 917.104 744.92 917.083C745.492 917.037 746.041 917.106 746.569 917.291C747.097 917.475 747.577 917.766 748.011 918.163C748.461 918.552 748.829 919.063 749.115 919.696L754.092 930.716C754.377 931.349 754.517 931.963 754.511 932.558C754.522 933.146 754.423 933.698 754.212 934.217C754.002 934.735 753.694 935.202 753.289 935.617C752.894 936.007 752.433 936.321 751.906 936.56C751.378 936.798 750.829 936.94 750.257 936.986C749.696 937.007 749.151 936.925 748.623 936.741C748.095 936.556 747.606 936.269 747.155 935.88C746.722 935.483 746.362 934.968 746.077 934.335L741.1 923.315ZM748.766 933.121C748.941 933.508 749.21 933.777 749.576 933.93C749.933 934.065 750.305 934.045 750.691 933.87C751.078 933.696 751.339 933.43 751.474 933.073C751.601 932.698 751.577 932.317 751.402 931.93L746.426 920.91C746.251 920.523 745.986 920.263 745.628 920.128C745.263 919.975 744.887 919.986 744.501 920.161C744.114 920.335 743.857 920.61 743.73 920.985C743.595 921.342 743.615 921.714 743.79 922.101L748.766 933.121ZM757.636 933.781L756.493 931.25L757.213 919.911C757.253 919.343 757.215 918.884 757.099 918.534C756.976 918.167 756.799 917.728 756.569 917.219C756.466 916.99 756.35 916.757 756.221 916.519C756.102 916.255 755.955 916.046 755.78 915.893C755.604 915.739 755.401 915.641 755.17 915.597C754.931 915.536 754.644 915.58 754.31 915.731C753.906 915.914 753.632 916.175 753.489 916.514C753.364 916.846 753.401 917.232 753.599 917.671L754.29 919.2L751.6 920.415L750.934 918.938C750.68 918.376 750.547 917.801 750.536 917.213C750.524 916.626 750.62 916.064 750.822 915.529C751.007 915.001 751.298 914.52 751.695 914.087C752.084 913.636 752.56 913.284 753.122 913.03C753.825 912.713 754.482 912.575 755.093 912.616C755.714 912.632 756.291 912.784 756.823 913.073C757.338 913.369 757.793 913.767 758.187 914.266C758.599 914.757 758.948 915.319 759.234 915.952C759.441 916.409 759.606 916.799 759.732 917.124C759.849 917.43 759.945 917.736 760.019 918.041C760.093 918.346 760.132 918.667 760.136 919.004C760.14 919.341 760.128 919.759 760.1 920.258L759.586 929.664L764.437 927.473L765.651 930.162L757.636 933.781ZM765.731 917.049C766.539 916.684 767.049 916.337 767.261 916.009C767.49 915.673 767.446 915.153 767.128 914.45L766.033 912.025C765.858 911.638 765.592 911.377 765.235 911.242C764.896 911.099 764.524 911.119 764.12 911.302C763.645 911.516 763.37 911.82 763.294 912.214C763.235 912.6 763.27 912.934 763.397 913.215L764.087 914.744L761.398 915.959L760.695 914.403C760.449 913.858 760.321 913.292 760.309 912.705C760.298 912.117 760.398 911.565 760.608 911.046C760.818 910.528 761.122 910.052 761.519 909.619C761.916 909.186 762.395 908.843 762.958 908.589C763.696 908.255 764.37 908.131 764.979 908.215C765.599 908.274 766.099 908.398 766.48 908.585C766.751 908.717 766.995 908.86 767.214 909.016C767.449 909.163 767.679 909.366 767.902 909.626C768.322 910.134 768.79 910.96 769.306 912.102C769.599 912.752 769.82 913.288 769.967 913.708C770.132 914.12 770.221 914.482 770.235 914.793C770.239 915.13 770.17 915.446 770.029 915.743C769.906 916.031 769.702 916.377 769.418 916.78C769.959 916.854 770.387 916.957 770.701 917.09C771.033 917.215 771.319 917.404 771.559 917.655C771.807 917.924 772.039 918.274 772.255 918.705C772.464 919.119 772.718 919.66 773.02 920.328C773.298 920.943 773.51 921.461 773.658 921.881C773.823 922.293 773.938 922.643 774.005 922.93C774.079 923.235 774.116 923.504 774.115 923.737C774.115 923.97 774.092 924.224 774.046 924.498C773.935 925.141 773.69 925.749 773.314 926.321C772.947 926.868 772.342 927.331 771.498 927.712C771.076 927.903 770.596 928.035 770.058 928.108C769.52 928.182 768.987 928.148 768.457 928.006C767.927 927.865 767.416 927.598 766.922 927.208C766.446 926.809 766.041 926.241 765.708 925.503L765.017 923.973L767.706 922.759L768.337 924.156C768.528 924.578 768.801 924.878 769.156 925.056C769.521 925.209 769.906 925.194 770.31 925.011C770.714 924.829 770.971 924.554 771.081 924.187C771.2 923.795 771.156 923.37 770.95 922.913L769.736 920.224C769.402 919.486 769.043 919.066 768.659 918.964C768.437 918.895 768.178 918.907 767.881 918.998C767.601 919.082 767.242 919.223 766.802 919.422L765.731 917.049Z" fill="url(#paint22_linear_2501_15351)"/>
<path d="M1158.22 545.927L1162.22 544.92C1163.37 544.633 1164.32 544.668 1165.09 545.024C1165.87 545.367 1166.37 545.994 1166.6 546.907C1166.73 547.445 1166.74 547.951 1166.63 548.424C1166.51 548.886 1166.28 549.283 1165.93 549.616C1167.29 549.752 1168.16 550.54 1168.52 551.98C1168.79 553.035 1168.66 553.942 1168.15 554.701C1167.64 555.461 1166.8 555.988 1165.62 556.284L1161.11 557.419L1158.22 545.927ZM1163.37 549.487C1163.89 549.358 1164.25 549.15 1164.46 548.863C1164.68 548.575 1164.74 548.216 1164.63 547.787C1164.52 547.347 1164.3 547.047 1163.96 546.885C1163.63 546.712 1163.21 546.689 1162.7 546.816L1160.76 547.305L1161.43 549.976L1163.37 549.487ZM1164.98 554.429C1165.55 554.285 1165.97 554.029 1166.23 553.661C1166.48 553.281 1166.55 552.838 1166.42 552.333C1166.3 551.849 1166.04 551.521 1165.66 551.348C1165.29 551.162 1164.8 551.144 1164.19 551.296L1161.9 551.872L1162.69 555.005L1164.98 554.429ZM1177.13 548.956C1177.2 549.198 1177.24 549.455 1177.28 549.727L1171.7 551.127C1171.89 551.666 1172.19 552.052 1172.61 552.285C1173.03 552.518 1173.55 552.556 1174.18 552.399C1174.97 552.2 1175.55 551.746 1175.9 551.036L1177.58 551.896C1177.25 552.504 1176.84 552.997 1176.35 553.377C1175.87 553.754 1175.3 554.029 1174.61 554.2C1173.72 554.424 1172.93 554.419 1172.23 554.186C1171.54 553.951 1170.97 553.556 1170.53 553.001C1170.08 552.435 1169.76 551.773 1169.57 551.015C1169.38 550.267 1169.35 549.535 1169.46 548.817C1169.58 548.097 1169.88 547.467 1170.35 546.928C1170.83 546.375 1171.5 545.99 1172.36 545.775C1173.17 545.571 1173.9 545.579 1174.55 545.801C1175.21 546.023 1175.75 546.413 1176.18 546.97C1176.62 547.525 1176.94 548.187 1177.13 548.956ZM1175.04 548.625C1174.9 548.122 1174.62 547.766 1174.19 547.558C1173.76 547.339 1173.28 547.295 1172.75 547.428C1172.19 547.569 1171.8 547.844 1171.56 548.254C1171.33 548.65 1171.24 549.087 1171.29 549.565L1175.04 548.625ZM1180.87 543.635C1181.95 543.364 1182.87 543.437 1183.63 543.854C1184.4 544.257 1184.9 544.948 1185.15 545.926L1186.44 551.054L1184.62 551.51L1184.19 550.496C1184.05 550.941 1183.78 551.329 1183.4 551.66C1183.02 551.976 1182.56 552.202 1182.03 552.337C1181.47 552.478 1180.93 552.495 1180.43 552.389C1179.93 552.269 1179.5 552.037 1179.15 551.694C1178.79 551.35 1178.55 550.926 1178.42 550.42C1178.3 549.937 1178.3 549.493 1178.42 549.089C1178.54 548.684 1178.78 548.345 1179.13 548.069C1179.6 547.695 1180.29 547.393 1181.2 547.164L1183.23 546.654L1183.17 546.424C1183.06 545.984 1182.83 545.672 1182.5 545.488C1182.15 545.294 1181.75 545.256 1181.28 545.374C1180.86 545.479 1180.49 545.683 1180.17 545.986C1179.85 546.289 1179.59 546.675 1179.39 547.146L1177.65 546.302C1178.33 544.894 1179.4 544.005 1180.87 543.635ZM1181.92 550.577C1182.51 550.428 1182.97 550.119 1183.3 549.652C1183.63 549.17 1183.73 548.666 1183.6 548.138L1181.84 548.582C1181.2 548.742 1180.78 548.947 1180.57 549.197C1180.39 549.407 1180.34 549.659 1180.41 549.956C1180.48 550.242 1180.65 550.445 1180.91 550.566C1181.19 550.673 1181.52 550.676 1181.92 550.577ZM1193.47 540.645L1195.51 548.774L1193.53 549.271L1193.3 548.331C1193.12 548.774 1192.84 549.142 1192.45 549.437C1192.08 549.718 1191.65 549.92 1191.15 550.045C1190.18 550.288 1189.38 550.168 1188.75 549.685C1188.11 549.202 1187.68 548.493 1187.44 547.559L1186.17 542.48L1188.14 541.983L1189.3 546.567C1189.43 547.083 1189.63 547.523 1189.91 547.886C1190.18 548.237 1190.64 548.331 1191.29 548.168C1191.86 548.025 1192.24 547.744 1192.41 547.326C1192.6 546.905 1192.66 546.457 1192.6 545.982C1192.55 545.503 1192.44 544.918 1192.27 544.226L1191.49 541.142L1193.47 540.645ZM1198.48 541.05L1199.52 545.189C1199.6 545.507 1199.75 545.722 1199.97 545.831C1200.19 545.938 1200.47 545.95 1200.8 545.868C1201.07 545.798 1201.39 545.655 1201.74 545.438L1202.14 547.02C1201.69 547.31 1201.21 547.516 1200.72 547.641C1199.98 547.826 1199.33 547.78 1198.76 547.503C1198.18 547.215 1197.79 546.659 1197.58 545.834L1196.51 541.547L1195.19 541.879L1194.79 540.313L1196.11 539.981L1195.64 538.085L1197.25 536.121L1198.09 539.484L1200.12 538.974L1200.51 540.541L1198.48 541.05ZM1201.85 538.539L1203.83 538.042L1205.87 546.17L1203.9 546.667L1201.85 538.539ZM1200.96 535.188L1203.04 534.666L1203.5 536.496L1201.42 537.018L1200.96 535.188ZM1207.01 538.909L1205.46 539.298L1205.06 537.732L1206.63 537.338L1206.4 536.415C1205.96 534.678 1206.56 533.604 1208.2 533.193C1208.75 533.055 1209.29 533.036 1209.82 533.137L1209.55 534.816C1209.31 534.736 1209.07 534.727 1208.83 534.788C1208.52 534.865 1208.35 535.008 1208.31 535.217C1208.28 535.423 1208.29 535.653 1208.36 535.906L1208.59 536.845L1210.49 536.369L1210.88 537.935L1208.99 538.412L1210.63 544.974L1208.66 545.471L1207.01 538.909ZM1218.67 534.314L1220.71 542.442L1218.73 542.939L1218.5 541.999C1218.31 542.442 1218.03 542.811 1217.65 543.105C1217.28 543.386 1216.84 543.589 1216.35 543.713C1215.38 543.956 1214.58 543.836 1213.95 543.353C1213.31 542.87 1212.87 542.161 1212.64 541.227L1211.36 536.149L1213.34 535.652L1214.49 540.235C1214.62 540.752 1214.83 541.192 1215.11 541.554C1215.38 541.906 1215.84 542 1216.49 541.837C1217.06 541.693 1217.44 541.412 1217.61 540.994C1217.8 540.574 1217.86 540.126 1217.8 539.65C1217.75 539.172 1217.64 538.587 1217.46 537.894L1216.69 534.811L1218.67 534.314ZM1224.89 541.566C1224.31 541.712 1223.8 541.654 1223.36 541.39C1222.93 541.124 1222.63 540.64 1222.45 539.936L1220.05 530.39L1222.03 529.893L1224.4 539.307C1224.48 539.648 1224.72 539.77 1225.1 539.673C1225.29 539.626 1225.49 539.541 1225.7 539.417L1226.1 541C1225.7 541.275 1225.3 541.464 1224.89 541.566ZM1229.03 528.134L1233.04 527.128C1234.18 526.84 1235.14 526.875 1235.9 527.231C1236.68 527.574 1237.18 528.201 1237.41 529.114C1237.55 529.652 1237.56 530.158 1237.44 530.631C1237.32 531.093 1237.09 531.49 1236.74 531.823C1238.11 531.959 1238.97 532.747 1239.33 534.187C1239.6 535.242 1239.48 536.149 1238.97 536.909C1238.45 537.668 1237.61 538.195 1236.44 538.491L1231.92 539.626L1229.03 528.134ZM1234.18 531.695C1234.7 531.565 1235.06 531.357 1235.27 531.071C1235.49 530.782 1235.55 530.423 1235.44 529.994C1235.33 529.555 1235.11 529.254 1234.78 529.092C1234.44 528.919 1234.02 528.897 1233.51 529.024L1231.57 529.512L1232.24 532.183L1234.18 531.695ZM1235.79 536.636C1236.37 536.493 1236.78 536.236 1237.04 535.868C1237.29 535.488 1237.36 535.046 1237.23 534.54C1237.11 534.056 1236.86 533.728 1236.47 533.555C1236.1 533.369 1235.61 533.352 1235.01 533.504L1232.72 534.079L1233.5 537.212L1235.79 536.636ZM1244.05 527.762C1244.58 527.627 1245.14 527.651 1245.71 527.834L1245.19 529.822C1244.86 529.707 1244.51 529.696 1244.13 529.79C1242.94 530.091 1242.53 531 1242.91 532.517L1243.94 536.606L1241.96 537.103L1239.92 528.975L1241.91 528.474L1242.26 529.859C1242.3 529.334 1242.49 528.884 1242.81 528.51C1243.15 528.133 1243.56 527.883 1244.05 527.762ZM1246.65 527.284L1248.62 526.787L1250.67 534.915L1248.69 535.412L1246.65 527.284ZM1245.75 523.933L1247.83 523.411L1248.29 525.241L1246.21 525.763L1245.75 523.933ZM1253.63 527.194L1254.67 531.332C1254.75 531.651 1254.9 531.865 1255.11 531.975C1255.34 532.082 1255.62 532.094 1255.95 532.011C1256.22 531.942 1256.53 531.799 1256.89 531.581L1257.29 533.164C1256.83 533.453 1256.36 533.66 1255.86 533.784C1255.13 533.969 1254.47 533.923 1253.9 533.646C1253.33 533.358 1252.94 532.802 1252.73 531.978L1251.65 527.691L1250.33 528.023L1249.94 526.456L1251.26 526.125L1250.78 524.229L1252.39 522.264L1253.24 525.628L1255.26 525.118L1255.66 526.684L1253.63 527.194ZM1257 524.682L1258.98 524.185L1261.02 532.314L1259.04 532.811L1257 524.682ZM1256.1 521.331L1258.18 520.809L1258.64 522.64L1256.56 523.162L1256.1 521.331ZM1265.92 531.257C1265.1 531.465 1264.32 531.432 1263.58 531.161C1262.86 530.876 1262.31 530.436 1261.94 529.84L1263.34 528.733C1263.88 529.543 1264.57 529.843 1265.41 529.634C1265.84 529.526 1266.14 529.345 1266.31 529.092C1266.49 528.836 1266.55 528.588 1266.49 528.346C1266.43 528.104 1266.26 527.952 1266 527.889C1265.74 527.826 1265.33 527.784 1264.76 527.762C1264.18 527.758 1263.68 527.724 1263.28 527.661C1262.88 527.587 1262.5 527.419 1262.16 527.155C1261.81 526.881 1261.56 526.469 1261.42 525.919C1261.24 525.172 1261.38 524.517 1261.84 523.956C1262.32 523.392 1262.98 523.005 1263.81 522.795C1264.5 522.621 1265.15 522.622 1265.76 522.797C1266.36 522.972 1266.89 523.301 1267.34 523.785L1266.02 525.011C1265.77 524.744 1265.5 524.55 1265.2 524.426C1264.9 524.292 1264.55 524.276 1264.14 524.378C1263.83 524.455 1263.6 524.585 1263.43 524.766C1263.28 524.945 1263.23 525.134 1263.28 525.332C1263.33 525.551 1263.49 525.693 1263.75 525.756C1264.02 525.816 1264.42 525.85 1264.95 525.857C1265.56 525.879 1266.08 525.925 1266.49 525.996C1266.91 526.067 1267.29 526.238 1267.66 526.51C1268.02 526.781 1268.27 527.192 1268.4 527.742C1268.56 528.346 1268.53 528.89 1268.32 529.374C1268.13 529.856 1267.81 530.256 1267.38 530.575C1266.95 530.895 1266.46 531.122 1265.92 531.257ZM1273.08 520.466C1273.99 520.237 1274.76 520.324 1275.39 520.727C1276.03 521.128 1276.47 521.817 1276.72 522.795L1278.03 528.038L1276.06 528.535L1274.86 523.787C1274.71 523.172 1274.47 522.746 1274.16 522.51C1273.84 522.274 1273.42 522.221 1272.91 522.35C1272.26 522.513 1271.85 522.896 1271.69 523.498C1271.53 524.087 1271.6 524.963 1271.89 526.128L1272.71 529.376L1270.73 529.874L1267.84 518.382L1269.82 517.885L1270.9 522.171C1271.28 521.305 1272.01 520.737 1273.08 520.466ZM1289.32 525.467C1288.19 525.749 1287.15 525.754 1286.18 525.483C1285.22 525.198 1284.4 524.663 1283.71 523.878C1283.03 523.079 1282.54 522.075 1282.23 520.866C1281.93 519.657 1281.89 518.545 1282.12 517.53C1282.35 516.502 1282.82 515.641 1283.53 514.947C1284.26 514.24 1285.18 513.746 1286.3 513.464C1287.52 513.157 1288.64 513.185 1289.67 513.547C1290.69 513.897 1291.55 514.564 1292.24 515.547L1290.53 516.766C1290.1 516.115 1289.56 515.682 1288.92 515.469C1288.29 515.241 1287.58 515.227 1286.79 515.426C1285.68 515.705 1284.91 516.273 1284.47 517.132C1284.03 517.979 1283.97 519.045 1284.29 520.331C1284.61 521.617 1285.17 522.54 1285.97 523.1C1286.76 523.649 1287.71 523.784 1288.82 523.505C1289.61 523.306 1290.24 522.956 1290.7 522.455C1291.15 521.944 1291.41 521.295 1291.47 520.508L1293.58 520.749C1293.45 521.961 1293.02 522.976 1292.28 523.794C1291.53 524.6 1290.55 525.158 1289.32 525.467ZM1299.01 522.943C1298.2 523.147 1297.43 523.141 1296.71 522.925C1296 522.695 1295.4 522.297 1294.9 521.732C1294.41 521.166 1294.07 520.498 1293.87 519.729C1293.68 518.96 1293.67 518.215 1293.84 517.494C1294.01 516.763 1294.35 516.133 1294.87 515.605C1295.4 515.063 1296.07 514.689 1296.89 514.485C1297.7 514.281 1298.46 514.293 1299.17 514.523C1299.88 514.742 1300.48 515.135 1300.98 515.7C1301.48 516.252 1301.83 516.913 1302.02 517.682C1302.21 518.452 1302.22 519.204 1302.04 519.938C1301.88 520.669 1301.53 521.304 1301.01 521.844C1300.49 522.372 1299.82 522.739 1299.01 522.943ZM1298.58 521.212C1299.28 521.035 1299.74 520.668 1299.96 520.109C1300.2 519.548 1300.22 518.905 1300.04 518.18C1299.86 517.454 1299.53 516.905 1299.07 516.531C1298.61 516.144 1298.02 516.039 1297.32 516.216C1296.62 516.393 1296.15 516.762 1295.92 517.323C1295.69 517.87 1295.67 518.506 1295.85 519.232C1296.03 519.957 1296.36 520.514 1296.82 520.901C1297.29 521.285 1297.87 521.389 1298.58 521.212ZM1306.49 521.063C1305.91 521.209 1305.4 521.15 1304.96 520.887C1304.53 520.621 1304.23 520.136 1304.05 519.433L1301.65 509.887L1303.63 509.389L1306 518.804C1306.08 519.144 1306.32 519.267 1306.7 519.17C1306.89 519.123 1307.09 519.037 1307.3 518.913L1307.7 520.496C1307.3 520.772 1306.9 520.96 1306.49 521.063ZM1314.24 510.299L1316.29 518.427L1314.31 518.924L1314.07 517.984C1313.89 518.427 1313.61 518.796 1313.23 519.09C1312.85 519.371 1312.42 519.574 1311.93 519.698C1310.96 519.941 1310.16 519.821 1309.52 519.338C1308.89 518.855 1308.45 518.146 1308.22 517.212L1306.94 512.134L1308.92 511.637L1310.07 516.22C1310.2 516.737 1310.4 517.177 1310.68 517.539C1310.96 517.891 1311.42 517.985 1312.07 517.822C1312.64 517.678 1313.01 517.398 1313.19 516.979C1313.37 516.559 1313.44 516.111 1313.38 515.635C1313.33 515.157 1313.21 514.572 1313.04 513.879L1312.27 510.796L1314.24 510.299ZM1325.6 507.27C1326.52 507.038 1327.3 507.164 1327.94 507.647C1328.57 508.119 1329 508.794 1329.22 509.674L1330.52 514.851L1328.54 515.348L1327.39 510.764C1327.06 509.445 1326.43 508.902 1325.51 509.134C1324.99 509.264 1324.66 509.522 1324.51 509.91C1324.36 510.287 1324.32 510.701 1324.38 511.151C1324.45 511.591 1324.58 512.207 1324.78 512.998L1325.56 516.098L1323.58 516.595L1322.43 512.011C1322.1 510.692 1321.47 510.147 1320.56 510.377C1320.04 510.506 1319.71 510.765 1319.56 511.153C1319.41 511.53 1319.37 511.95 1319.43 512.415C1319.49 512.866 1319.62 513.476 1319.82 514.245L1320.59 517.345L1318.62 517.842L1316.56 509.718L1318.47 509.237L1318.73 510.259C1318.99 509.352 1319.61 508.774 1320.6 508.525C1321.11 508.398 1321.6 508.403 1322.08 508.54C1322.57 508.674 1323 509.004 1323.38 509.528C1323.53 508.882 1323.8 508.383 1324.18 508.03C1324.55 507.667 1325.03 507.414 1325.6 507.27ZM1334.88 504.939C1335.55 504.771 1336.18 504.792 1336.78 505.003C1337.38 505.203 1337.91 505.586 1338.35 506.152C1338.81 506.715 1339.15 507.43 1339.37 508.299C1339.68 509.552 1339.63 510.65 1339.23 511.593C1338.82 512.525 1338.08 513.127 1337 513.398C1336.54 513.514 1336.08 513.547 1335.62 513.498C1335.16 513.438 1334.76 513.276 1334.42 513.013L1334.62 513.821L1332.64 514.318L1329.75 502.826L1331.73 502.329L1332.78 506.517C1332.96 506.146 1333.23 505.82 1333.61 505.539C1333.99 505.255 1334.41 505.055 1334.88 504.939ZM1336.06 511.688C1336.71 511.525 1337.14 511.2 1337.36 510.713C1337.57 510.215 1337.58 509.582 1337.39 508.812C1337.2 508.032 1336.88 507.474 1336.44 507.139C1336.02 506.791 1335.48 506.698 1334.83 506.861C1334.16 507.029 1333.71 507.382 1333.49 507.918C1333.26 508.454 1333.24 509.085 1333.42 509.811C1333.6 510.525 1333.91 511.059 1334.36 511.413C1334.81 511.767 1335.38 511.859 1336.06 511.688ZM1340.03 503.819L1342.01 503.322L1344.05 511.45L1342.07 511.947L1340.03 503.819ZM1339.14 500.468L1341.21 499.946L1341.67 501.776L1339.6 502.298L1339.14 500.468ZM1347.42 501.787C1348.5 501.516 1349.42 501.589 1350.18 502.006C1350.94 502.409 1351.45 503.1 1351.7 504.078L1352.99 509.206L1351.17 509.662L1350.74 508.648C1350.6 509.093 1350.33 509.481 1349.95 509.811C1349.57 510.128 1349.11 510.354 1348.58 510.489C1348.01 510.63 1347.48 510.647 1346.98 510.541C1346.48 510.42 1346.05 510.189 1345.7 509.845C1345.34 509.502 1345.1 509.078 1344.97 508.572C1344.85 508.089 1344.85 507.645 1344.97 507.24C1345.09 506.836 1345.33 506.496 1345.68 506.221C1346.15 505.847 1346.84 505.545 1347.75 505.316L1349.78 504.806L1349.72 504.575C1349.61 504.136 1349.38 503.824 1349.05 503.64C1348.7 503.445 1348.3 503.407 1347.82 503.526C1347.41 503.631 1347.04 503.835 1346.72 504.138C1346.4 504.441 1346.14 504.827 1345.94 505.297L1344.2 504.454C1344.88 503.046 1345.95 502.157 1347.42 501.787ZM1348.47 508.729C1349.06 508.58 1349.52 508.271 1349.85 507.804C1350.18 507.322 1350.28 506.818 1350.15 506.29L1348.39 506.733C1347.75 506.894 1347.33 507.099 1347.12 507.349C1346.94 507.558 1346.89 507.811 1346.96 508.108C1347.03 508.394 1347.2 508.597 1347.46 508.718C1347.74 508.825 1348.07 508.828 1348.47 508.729Z" fill="#2A6DCC"/>
<path d="M1200.17 615.499L1197.51 595.067C1200.03 592.916 1205.43 588.802 1206.82 589.552C1208.55 590.49 1208.05 596.287 1211.09 592.128C1214.13 587.97 1220.1 583.178 1219.57 586.794C1219.04 590.41 1222.02 588.014 1224.8 585.664C1226.05 584.605 1226.6 584.076 1226.8 583.838L1226.78 583.703C1226.89 583.646 1226.95 583.654 1226.8 583.838L1229.64 602.999C1229.15 603.104 1227.7 603.726 1225.77 605.367C1223.37 607.418 1221.46 608.706 1221.38 606.316C1221.31 603.926 1220.05 604.197 1218.49 606.068C1216.92 607.938 1211.43 613.939 1210.08 610.73C1208.73 607.52 1208.87 608.148 1206.96 609.436C1205.05 610.724 1201.04 614.437 1200.17 615.499Z" fill="#1277DC"/>
<path d="M1198.79 611.112C1201.62 608.019 1207.38 602.294 1207.78 604.133C1208.28 606.433 1209.18 610.614 1213.51 605.303C1217.83 599.991 1219.41 599.211 1219.91 601.511C1220.41 603.811 1220.75 604.393 1224.93 600.426C1225.73 599.742 1227.59 598.362 1228.63 598.312" stroke="#F4F5EF" stroke-width="0.5"/>
<path d="M1198.21 606.423C1201.04 603.33 1206.81 597.604 1207.21 599.444C1207.7 601.743 1208.61 605.925 1212.93 600.613C1217.25 595.301 1218.83 594.522 1219.33 596.821C1219.83 599.121 1220.17 599.703 1224.35 595.736C1225.15 595.052 1227.01 593.672 1228.05 593.623" stroke="#F4F5EF" stroke-width="0.5"/>
<rect x="1214.78" y="650.136" width="132.059" height="30.1582" rx="5" transform="rotate(-14.3518 1214.78 650.136)" fill="#FCCC85"/>
<path d="M1231.59 668.539L1228.67 656.729L1231.04 656.14L1231.32 657.281L1231.37 657.27C1231.53 656.836 1231.75 656.46 1232.03 656.142C1232.33 655.805 1232.75 655.569 1233.29 655.434C1233.58 655.361 1233.89 655.342 1234.22 655.378C1234.53 655.398 1234.84 655.496 1235.13 655.671C1235.42 655.846 1235.68 656.103 1235.91 656.441C1236.14 656.763 1236.32 657.189 1236.45 657.717L1238.7 666.779L1236.32 667.367L1234.29 659.191C1234.19 658.756 1234 658.439 1233.74 658.241C1233.47 658.042 1233.16 657.989 1232.78 658.082C1232.33 658.193 1232.06 658.41 1231.96 658.732C1231.85 659.054 1231.87 659.479 1232 660.007L1233.97 667.951L1231.59 668.539ZM1249.44 651.581L1249.57 664.084L1247.47 664.604L1244.43 657.915L1244.38 657.927L1244.82 665.262L1242.72 665.782L1237 654.664L1239.51 654.04L1242.78 661.02L1242.82 661.009L1242.33 653.342L1244.2 652.88L1247.27 659.906L1247.32 659.895L1246.92 652.204L1249.44 651.581ZM1253.74 663.05L1249.63 646.464L1252.01 645.875L1253.77 652.98L1256.7 652.253L1254.94 645.148L1257.32 644.559L1261.43 661.145L1259.05 661.734L1257.22 654.349L1254.29 655.077L1256.12 662.461L1253.74 663.05ZM1268.25 659.455L1267.95 658.243L1267.9 658.255C1267.7 658.767 1267.46 659.18 1267.2 659.493C1266.94 659.803 1266.53 660.029 1265.95 660.172C1265.67 660.241 1265.38 660.266 1265.06 660.246C1264.76 660.237 1264.45 660.149 1264.13 659.982C1263.81 659.83 1263.51 659.573 1263.24 659.212C1262.98 658.831 1262.77 658.314 1262.61 657.662C1262.45 656.994 1262.36 656.398 1262.34 655.874C1262.32 655.335 1262.42 654.858 1262.63 654.443C1262.83 654.048 1263.15 653.713 1263.59 653.438C1264.03 653.148 1264.62 652.91 1265.37 652.726C1265.45 652.707 1265.53 652.685 1265.63 652.662C1265.72 652.639 1265.81 652.626 1265.89 652.622C1265.97 652.618 1266.06 652.603 1266.17 652.576C1266.28 652.549 1266.4 652.528 1266.53 652.513L1266.22 651.278C1266.12 650.874 1265.95 650.562 1265.72 650.34C1265.48 650.118 1265.14 650.063 1264.69 650.175C1264.38 650.252 1264.12 650.424 1263.9 650.691C1263.7 650.955 1263.61 651.29 1263.63 651.698L1261.33 652.269C1261.13 651.198 1261.27 650.255 1261.76 649.441C1262 649.054 1262.31 648.721 1262.7 648.442C1263.09 648.148 1263.56 647.933 1264.1 647.799C1264.6 647.676 1265.08 647.638 1265.55 647.685C1266.03 647.733 1266.47 647.871 1266.87 648.101C1267.26 648.335 1267.6 648.662 1267.9 649.081C1268.21 649.501 1268.43 650.021 1268.59 650.643L1270.63 658.866L1268.25 659.455ZM1266.99 654.376C1266.72 654.395 1266.49 654.426 1266.32 654.468C1265.81 654.595 1265.4 654.829 1265.09 655.17C1264.79 655.491 1264.72 655.971 1264.87 656.607C1264.98 657.058 1265.18 657.396 1265.47 657.621C1265.76 657.847 1266.09 657.912 1266.48 657.815C1266.89 657.715 1267.16 657.506 1267.32 657.189C1267.48 656.867 1267.51 656.465 1267.39 655.984L1266.99 654.376ZM1274.28 654.35C1274.37 654.723 1274.55 654.985 1274.8 655.137C1275.07 655.285 1275.38 655.314 1275.73 655.226C1276.19 655.114 1276.45 654.909 1276.52 654.611C1276.61 654.308 1276.64 654.021 1276.6 653.749L1278.98 653.16C1279.24 654.201 1279.13 655.118 1278.65 655.913C1278.42 656.316 1278.11 656.665 1277.72 656.959C1277.33 657.253 1276.87 657.467 1276.32 657.602C1275.58 657.787 1274.9 657.789 1274.3 657.61C1273.71 657.426 1273.21 657.113 1272.8 656.669C1272.56 656.401 1272.35 656.073 1272.19 655.684C1272.03 655.296 1271.89 654.861 1271.77 654.38L1270.8 650.489C1270.68 650.008 1270.6 649.558 1270.57 649.138C1270.53 648.719 1270.56 648.333 1270.65 647.98C1270.8 647.398 1271.1 646.889 1271.53 646.451C1271.98 646.01 1272.58 645.697 1273.33 645.512C1273.87 645.377 1274.38 645.349 1274.86 645.428C1275.36 645.502 1275.8 645.664 1276.2 645.913C1276.99 646.458 1277.53 647.29 1277.8 648.408L1275.43 648.997C1275.31 648.516 1275.11 648.193 1274.84 648.03C1274.58 647.847 1274.27 647.799 1273.92 647.888C1273.56 647.976 1273.3 648.164 1273.14 648.451C1272.99 648.718 1272.97 649.077 1273.09 649.528L1274.28 654.35ZM1281.19 656.248L1277.08 639.661L1279.46 639.072L1281.92 648.996L1281.96 648.985L1283.55 643.126L1285.93 642.537L1284.3 648.035L1289.44 654.204L1286.85 654.845L1283.44 650.274L1282.75 652.351L1283.57 655.659L1281.19 656.248ZM1292.68 644.375C1292.56 643.975 1292.36 643.705 1292.06 643.565C1291.78 643.421 1291.48 643.387 1291.17 643.464C1290.8 643.556 1290.54 643.752 1290.4 644.05C1290.25 644.333 1290.22 644.63 1290.3 644.941C1290.35 645.158 1290.46 645.362 1290.62 645.553C1290.78 645.728 1291.11 645.845 1291.6 645.904L1293.14 646.117C1294.11 646.239 1294.83 646.555 1295.3 647.064C1295.79 647.569 1296.12 648.172 1296.29 648.87C1296.41 649.367 1296.44 649.856 1296.36 650.337C1296.29 650.799 1296.14 651.231 1295.91 651.635C1295.68 652.038 1295.37 652.386 1294.99 652.68C1294.6 652.975 1294.15 653.185 1293.63 653.312C1292.67 653.551 1291.79 653.448 1290.99 653.004C1290.59 652.79 1290.23 652.49 1289.92 652.105C1289.61 651.705 1289.37 651.212 1289.21 650.625L1291.45 650.071C1291.57 650.386 1291.76 650.662 1292 650.899C1292.25 651.132 1292.61 651.193 1293.06 651.082C1293.4 650.997 1293.67 650.813 1293.88 650.53C1294.11 650.228 1294.17 649.875 1294.07 649.471C1293.99 649.145 1293.83 648.887 1293.6 648.696C1293.37 648.505 1293.01 648.381 1292.52 648.321L1291.27 648.185C1290.46 648.09 1289.77 647.825 1289.2 647.389C1288.64 646.934 1288.26 646.31 1288.07 645.518C1287.94 645.021 1287.92 644.54 1288.01 644.075C1288.08 643.594 1288.25 643.157 1288.5 642.766C1288.73 642.378 1289.04 642.055 1289.42 641.796C1289.8 641.521 1290.23 641.324 1290.71 641.205C1291.19 641.085 1291.65 641.061 1292.1 641.132C1292.56 641.199 1292.98 641.351 1293.35 641.588C1293.72 641.826 1294.05 642.141 1294.32 642.533C1294.6 642.91 1294.8 643.339 1294.92 643.821L1292.68 644.375ZM1303.27 650.776L1302.71 648.539L1305 639.394C1305.12 638.936 1305.15 638.556 1305.11 638.253C1305.06 637.935 1304.99 637.55 1304.87 637.1C1304.82 636.898 1304.76 636.69 1304.7 636.477C1304.64 636.244 1304.55 636.052 1304.43 635.9C1304.31 635.748 1304.16 635.638 1303.98 635.567C1303.79 635.482 1303.55 635.475 1303.25 635.548C1302.9 635.637 1302.63 635.809 1302.47 636.065C1302.31 636.317 1302.29 636.637 1302.38 637.025L1302.72 638.376L1300.34 638.965L1300.02 637.661C1299.9 637.164 1299.87 636.675 1299.95 636.194C1300.03 635.713 1300.19 635.269 1300.44 634.862C1300.67 634.458 1300.98 634.11 1301.37 633.816C1301.75 633.506 1302.19 633.29 1302.69 633.166C1303.31 633.013 1303.87 632.998 1304.36 633.123C1304.86 633.229 1305.31 633.44 1305.7 633.755C1306.08 634.074 1306.39 634.466 1306.64 634.932C1306.9 635.395 1307.1 635.906 1307.24 636.465C1307.34 636.868 1307.42 637.212 1307.47 637.495C1307.52 637.763 1307.55 638.027 1307.57 638.287C1307.58 638.547 1307.57 638.815 1307.52 639.09C1307.47 639.366 1307.4 639.705 1307.3 640.109L1305.48 647.707L1309.76 646.645L1310.35 649.021L1303.27 650.776ZM1308.91 635.408C1308.77 634.849 1308.74 634.329 1308.82 633.848C1308.91 633.363 1309.08 632.925 1309.33 632.534C1309.58 632.142 1309.9 631.817 1310.28 631.558C1310.67 631.279 1311.1 631.082 1311.57 630.966C1312.03 630.851 1312.49 630.827 1312.96 630.894C1313.43 630.941 1313.87 631.08 1314.27 631.31C1314.67 631.539 1315.02 631.849 1315.32 632.237C1315.63 632.622 1315.85 633.094 1315.99 633.653L1318.4 643.391C1318.54 643.95 1318.56 644.472 1318.47 644.956C1318.39 645.438 1318.23 645.874 1317.98 646.265C1317.73 646.657 1317.41 646.992 1317.02 647.27C1316.63 647.529 1316.21 647.717 1315.74 647.832C1315.28 647.948 1314.81 647.982 1314.34 647.934C1313.87 647.867 1313.44 647.719 1313.04 647.489C1312.64 647.259 1312.28 646.952 1311.97 646.567C1311.68 646.179 1311.46 645.705 1311.32 645.146L1308.91 635.408ZM1313.7 644.557C1313.78 644.898 1313.96 645.159 1314.24 645.338C1314.51 645.501 1314.81 645.541 1315.16 645.456C1315.5 645.371 1315.75 645.193 1315.91 644.922C1316.07 644.635 1316.11 644.321 1316.03 643.979L1313.61 634.242C1313.53 633.9 1313.35 633.648 1313.08 633.484C1312.8 633.305 1312.5 633.258 1312.15 633.343C1311.81 633.427 1311.56 633.613 1311.4 633.9C1311.24 634.171 1311.2 634.478 1311.28 634.819L1313.7 644.557ZM1321.07 646.364L1320.52 644.128L1322.8 634.982C1322.92 634.524 1322.95 634.144 1322.91 633.841C1322.87 633.523 1322.79 633.139 1322.68 632.688C1322.63 632.487 1322.57 632.279 1322.5 632.065C1322.44 631.832 1322.35 631.64 1322.23 631.488C1322.11 631.337 1321.96 631.226 1321.78 631.156C1321.59 631.07 1321.35 631.064 1321.05 631.137C1320.7 631.225 1320.43 631.397 1320.27 631.653C1320.12 631.905 1320.09 632.225 1320.18 632.614L1320.52 633.965L1318.14 634.554L1317.82 633.249C1317.7 632.752 1317.67 632.263 1317.75 631.782C1317.83 631.301 1317.99 630.857 1318.24 630.45C1318.47 630.047 1318.78 629.698 1319.17 629.404C1319.55 629.094 1319.99 628.878 1320.49 628.755C1321.11 628.601 1321.67 628.587 1322.16 628.712C1322.66 628.818 1323.11 629.028 1323.5 629.343C1323.88 629.662 1324.19 630.055 1324.44 630.521C1324.7 630.983 1324.9 631.494 1325.04 632.053C1325.14 632.457 1325.22 632.8 1325.27 633.084C1325.32 633.352 1325.35 633.616 1325.37 633.876C1325.38 634.136 1325.37 634.403 1325.32 634.679C1325.27 634.954 1325.2 635.294 1325.1 635.697L1323.28 643.295L1327.56 642.233L1328.15 644.609L1321.07 646.364ZM1330.41 633.862C1331.12 633.685 1331.59 633.479 1331.81 633.242C1332.05 633.002 1332.09 632.571 1331.94 631.95L1331.41 629.807C1331.32 629.465 1331.15 629.213 1330.87 629.049C1330.62 628.882 1330.31 628.842 1329.95 628.931C1329.54 629.035 1329.27 629.242 1329.14 629.552C1329.04 629.859 1329.02 630.136 1329.08 630.384L1329.41 631.736L1327.04 632.324L1326.7 630.95C1326.58 630.469 1326.56 629.987 1326.64 629.506C1326.71 629.025 1326.88 628.589 1327.13 628.198C1327.38 627.806 1327.7 627.463 1328.08 627.169C1328.47 626.875 1328.92 626.667 1329.41 626.543C1330.06 626.382 1330.63 626.381 1331.12 626.541C1331.61 626.682 1332 626.857 1332.29 627.067C1332.49 627.215 1332.67 627.369 1332.82 627.528C1332.99 627.684 1333.15 627.884 1333.29 628.129C1333.56 628.607 1333.82 629.35 1334.07 630.36C1334.21 630.934 1334.31 631.404 1334.37 631.769C1334.44 632.13 1334.46 632.439 1334.42 632.695C1334.38 632.97 1334.27 633.218 1334.11 633.439C1333.97 633.656 1333.75 633.908 1333.46 634.194C1333.89 634.335 1334.22 634.483 1334.46 634.639C1334.71 634.791 1334.92 634.987 1335.08 635.228C1335.24 635.484 1335.38 635.805 1335.49 636.189C1335.6 636.558 1335.72 637.038 1335.87 637.628C1336 638.171 1336.1 638.626 1336.16 638.991C1336.23 639.352 1336.27 639.654 1336.28 639.899C1336.3 640.159 1336.29 640.384 1336.25 640.574C1336.22 640.764 1336.16 640.968 1336.08 641.185C1335.9 641.693 1335.61 642.152 1335.21 642.563C1334.83 642.954 1334.27 643.242 1333.52 643.426C1333.15 643.519 1332.74 643.555 1332.29 643.535C1331.84 643.514 1331.41 643.407 1331 643.212C1330.59 643.017 1330.21 642.723 1329.86 642.33C1329.53 641.934 1329.29 641.41 1329.13 640.757L1328.79 639.406L1331.17 638.817L1331.47 640.052C1331.57 640.425 1331.74 640.71 1332.01 640.909C1332.28 641.088 1332.6 641.133 1332.96 641.045C1333.31 640.956 1333.56 640.77 1333.71 640.487C1333.86 640.185 1333.89 639.832 1333.79 639.428L1333.2 637.052C1333.04 636.4 1332.81 636.003 1332.51 635.863C1332.34 635.773 1332.13 635.744 1331.87 635.774C1331.63 635.801 1331.32 635.863 1330.93 635.959L1330.41 633.862Z" fill="#504947"/>
<path d="M1067.41 979.258L1066.79 977.094C1066.34 975.505 1067.37 973.911 1068.98 973.704L1076.59 972.727C1078.54 972.476 1080.14 974.361 1079.59 976.256L1078.7 979.27C1078.37 980.375 1077.38 981.132 1076.23 981.157L1070.13 981.285C1068.88 981.311 1067.76 980.473 1067.41 979.258Z" fill="#E9C59A"/>
<path d="M1076.85 980.868L1076.1 978.681C1075.53 977.024 1076.62 975.298 1078.34 975.14L1087.87 974.257C1089.83 974.077 1091.36 975.993 1090.76 977.861L1089.77 980.94C1089.42 982.033 1088.41 982.765 1087.26 982.763L1079.47 982.753C1078.3 982.751 1077.24 981.99 1076.85 980.868Z" fill="#FFDAAD"/>
<path d="M1131.64 983.468L1132.78 981.565C1133.61 980.164 1133 978.311 1131.49 977.639L1124.2 974.412C1122.38 973.604 1120.39 974.956 1120.47 976.944L1120.6 980.12C1120.65 981.28 1121.43 982.3 1122.53 982.659L1128.55 984.612C1129.74 984.998 1131.01 984.526 1131.64 983.468Z" fill="#E9C59A"/>
<path d="M1146.97 991.336L1148.21 989.448C1149.15 988.021 1148.52 986.052 1146.92 985.393L1138.12 981.786C1136.29 981.033 1134.34 982.425 1134.46 984.402L1134.66 987.652C1134.74 988.81 1135.53 989.813 1136.63 990.151L1143.98 992.396C1145.12 992.743 1146.33 992.314 1146.97 991.336Z" fill="#FFDAAD"/>
<path d="M1060.51 910.118C1061.3 901.69 1062.71 898.206 1067.97 895.502L1172.7 913.227C1175.4 920.619 1175.37 925.175 1171.76 934.242C1172.88 950.841 1170.43 956.162 1165.08 964.381C1164.87 973.504 1163.84 977.456 1158.16 979.62C1156.26 987.617 1154.78 990.172 1150.96 989.284C1148.2 991.605 1146.78 991.793 1144.73 988.352C1142.65 989.651 1141.4 989.684 1138.92 987.483C1136.5 987.77 1135.97 987.07 1136.23 984.586C1134.32 983.86 1133.98 983.08 1133.93 981.42C1128.45 982.014 1125.48 981.973 1121.5 977.066C1118.48 974.847 1118.13 972.921 1120.26 968.093C1118.17 965.627 1117.69 963.967 1119.25 960.022C1109 958.744 1104.48 960.837 1097.99 968.125C1097.99 968.125 1097.81 975.591 1094.72 978.377C1091.63 981.164 1089.93 982.076 1087.2 977.253C1085.43 980.264 1083.89 980.958 1081.35 978.873C1079.01 979.657 1077.66 980.382 1075.71 978.03C1073.51 979.96 1072.09 980.27 1069.26 979.56C1066.92 980.942 1066.38 978.866 1065.98 976.573C1065.57 974.28 1061.59 974.437 1062.65 968.264C1058.7 965.054 1058.48 962.122 1060.57 955.477C1055.82 953.267 1054.34 950.871 1054.63 943.739C1052.07 939.601 1050.56 937.345 1053.19 928.552C1052.6 918.906 1054.38 914.995 1060.51 910.118Z" fill="#FBF8F3"/>
<path d="M1118.42 814.082C1129.41 807.133 1132.21 808.387 1143.49 817.832C1148.61 815.224 1154.29 814.154 1158.99 824.056C1163.33 824.654 1164.8 826.662 1166.39 831.996C1173.53 830.645 1171.42 844.704 1171.99 841.729C1172.57 838.755 1183.68 840.565 1183.19 856.422C1182.71 872.279 1187.72 877.216 1187.1 890.308C1185.74 898.877 1184.62 903.353 1177.05 906.269C1179.47 916.525 1172.11 920.61 1165.61 924.193L1064.4 906.344C1060.18 903.759 1054.11 901.441 1057.47 890.121C1054.44 884.917 1052.17 882.248 1054.13 874.868C1057.84 864.609 1059.02 858.765 1060.66 848.292C1062.62 837.752 1064.19 834.801 1067.78 834.496C1069.84 826.932 1071.85 823.902 1079.16 823.831C1084 817.143 1086.99 816.475 1092.71 819.458C1095.68 813.801 1098.22 812.552 1104.57 814.398C1110.17 808.912 1113.18 809.465 1118.42 814.082Z" fill="#FEFDF9"/>
<path d="M1083.16 905.887C1086.99 907.343 1064.33 899.528 1056.77 889.818" stroke="#CBC6B3" stroke-width="1.35493" stroke-linecap="round"/>
<path d="M1148.02 916.468C1143.97 916.745 1168.88 913.323 1178.51 906.183" stroke="#CBC6B3" stroke-width="1.35493" stroke-linecap="round"/>
<path d="M1086.16 841.353C1076.53 847.071 1076.02 851.392 1079.08 860.008C1075.24 866.485 1075.39 869.901 1080.7 875.522C1088.29 874.224 1090.9 876.145 1093.76 882.459C1098.56 883.521 1102.87 884.531 1106.43 890.093C1113.67 887.22 1116.86 888.975 1122.04 894.053C1127.8 892.668 1130.85 893.427 1136.11 896.158C1140.2 890.347 1143.13 890.186 1148.91 892.549C1150.36 886.759 1153.51 886.454 1156.74 886.337C1162.78 886.121 1165.4 882.874 1165.25 872.896C1170.96 860.264 1169.99 855.462 1161.68 850.482C1158.4 840.358 1152.76 838.338 1145.64 839.959C1141.44 832.422 1132.59 831.666 1126.04 834.645C1118.6 827.432 1114.24 828.018 1106.27 834.071C1098.2 828.434 1090.17 832.403 1086.16 841.353Z" fill="#FFDAAB"/>
<path d="M1079.21 904.5C1078.16 903.909 1077.1 899.593 1079.18 899.145C1081.26 898.698 1082.34 901.455 1081.2 904.797" stroke="#CBC6B3" stroke-width="1.35493"/>
<path d="M1153.65 915.353C1154.8 915.092 1158.13 911.797 1156.24 910.756C1154.34 909.714 1151.37 911.501 1151.66 915.056" stroke="#CBC6B3" stroke-width="1.35493"/>
<path d="M1080.07 905.303C1078.87 909.502 1077.61 910.691 1074.79 911.665" stroke="#B5B0A0" stroke-width="1.35493" stroke-linecap="round"/>
<path d="M1080.85 906.93C1080.52 908.033 1076.94 911.07 1075.97 909.185C1074.99 907.3 1077 904.53 1080.65 904.996" stroke="#CBC6B3" stroke-width="1.35493"/>
<path d="M1152.71 916.685C1152.8 920.679 1153.57 922.047 1155.67 923.63" stroke="#B5B0A0" stroke-width="1.35493" stroke-linecap="round"/>
<path d="M1152.79 916.846C1152.84 918.006 1155.56 921.985 1156.95 920.454C1158.35 918.924 1157.09 915.665 1153.45 915.041" stroke="#CBC6B3" stroke-width="1.35493"/>
<rect width="76.8141" height="35.8077" transform="matrix(0.985034 0.176642 -0.153407 0.987344 1078.81 901.329)" fill="#ABD6AA"/>
<rect width="76.6213" height="7.07577" transform="matrix(0.985034 0.176642 -0.153407 0.987344 1074.51 929.824)" fill="#CBB042"/>
<g filter="url(#filter7_d_2501_15351)">
<path d="M1153.77 864.269C1153.08 869.836 1149.53 870.194 1145.28 869.558C1141.03 868.922 1137.69 867.534 1138.38 861.967C1139.06 856.4 1143.07 852.402 1147.32 853.038C1151.57 853.674 1154.46 858.702 1153.77 864.269Z" fill="#483E32"/>
</g>
<g filter="url(#filter8_d_2501_15351)">
<path d="M1108.23 857.708C1107.55 863.275 1103.99 863.633 1099.74 862.997C1095.49 862.361 1092.15 860.973 1092.84 855.406C1093.53 849.839 1097.53 845.841 1101.78 846.477C1106.03 847.113 1108.92 852.141 1108.23 857.708Z" fill="#483E32"/>
</g>
<path d="M1122.98 860.827C1129.18 862.251 1132.43 865.351 1133.79 870.55C1133.23 872.125 1136.47 878.264 1128.63 879.247C1118.17 879.028 1111.06 875.789 1109.58 871.471C1108.1 867.152 1116.78 859.403 1122.98 860.827Z" fill="#F9F5F1" fill-opacity="0.44"/>
<path d="M1122.25 868.966L1121.75 873.01" stroke="#483E32" stroke-width="1.35493" stroke-linecap="round"/>
<path d="M1124.76 868.464L1123.96 868.912C1122.83 869.549 1121.39 869.266 1120.54 868.239L1119.8 867.351C1118.57 865.851 1119.21 863.549 1121.13 863.52C1122.23 863.503 1123.3 863.663 1124.43 863.994C1126.52 864.606 1126.62 867.412 1124.76 868.464Z" fill="#A68A5B"/>
<path d="M1115.62 873.473C1117.53 873.992 1118.94 873.781 1121.71 873.001" stroke="black" stroke-width="1.35493" stroke-linecap="round"/>
<path d="M1127.24 875.302C1125.28 875.208 1123.99 874.572 1121.53 872.966" stroke="black" stroke-width="1.35493" stroke-linecap="round"/>
<path d="M1069.55 798.825C1086.85 795.02 1094.44 812.291 1094.61 816.895C1094.78 821.499 1094.96 821.182 1094.11 820.943C1086.04 817.693 1082.33 818.66 1077.55 826.713C1074.59 821.904 1066.52 829.158 1068.17 835.51C1069.82 841.861 1063.81 834.81 1059.58 837.153C1055.03 839.964 1053.39 843.388 1055.11 847.877C1057.49 854.093 1063.61 853.638 1069.94 850.097C1067.51 859.622 1067.71 868.208 1055.27 872.097C1051.99 873.121 1044.84 869.974 1039.27 863.954C1031.22 851.604 1032.22 842.068 1041.79 821.365C1048.29 809.6 1053.73 804.234 1069.55 798.825Z" fill="url(#paint23_linear_2501_15351)"/>
<path d="M1049.73 852.139L1055.43 848.765" stroke="#CBB042" stroke-width="1.35493"/>
<path d="M1073.05 814.341C1076.99 816.578 1078.64 818.273 1081.15 821.651" stroke="#CBB042" stroke-width="1.35493"/>
<path d="M1046.46 833.987C1051.28 834.776 1053.44 835.952 1056.96 839.063" stroke="#CBB042" stroke-width="1.35493"/>
<path d="M1057.72 830.252L1052.59 836.204" stroke="#CBB042" stroke-width="1.35493"/>
<path d="M1082.59 811.217L1078.04 817.255" stroke="#CBB042" stroke-width="1.35493" stroke-linecap="round"/>
<path d="M1054.47 815.464L1047.58 823.969" stroke="url(#paint24_linear_2501_15351)" stroke-width="1.35493"/>
<path d="M1054.47 815.464L1047.58 823.969" stroke="url(#paint25_linear_2501_15351)" stroke-width="1.35493"/>
<path d="M1083.82 800.781L1079.34 807.264" stroke="url(#paint26_linear_2501_15351)" stroke-width="1.35493"/>
<path d="M1057.82 830.268C1053.65 826.616 1051.75 825.042 1047.57 824.038" stroke="#CBB042" stroke-width="1.35493" stroke-linecap="round"/>
<path d="M1082.65 811.226C1082.3 809.71 1081.31 808.31 1079.32 807.26" stroke="#CBB042" stroke-width="1.35493" stroke-linecap="round"/>
<path d="M1058.22 819.709C1055.02 815.657 1052.94 813.979 1048.86 811.806" stroke="#A68432" stroke-width="1.35493" stroke-linecap="round"/>
<path d="M1049.41 852.849C1049.33 853.511 1048.69 854.008 1047.94 853.895C1047.18 853.783 1046.69 853.117 1046.77 852.455C1046.86 851.794 1047.49 851.297 1048.24 851.41C1049 851.522 1049.49 852.188 1049.41 852.849Z" stroke="#CBB042" stroke-width="1.35493"/>
<path d="M1071.55 815.28C1070.79 815.318 1070.17 814.76 1070.11 814.089C1070.05 813.418 1070.57 812.804 1071.32 812.766C1072.07 812.728 1072.69 813.286 1072.75 813.957C1072.81 814.628 1072.3 815.242 1071.55 815.28Z" stroke="#CBB042" stroke-width="1.35493"/>
<path d="M1044.99 834.993C1044.24 835.07 1043.59 834.545 1043.49 833.876C1043.39 833.206 1043.87 832.565 1044.62 832.488C1045.37 832.411 1046.02 832.936 1046.11 833.606C1046.21 834.276 1045.73 834.916 1044.99 834.993Z" stroke="#CBB042" stroke-width="1.35493"/>
<path d="M1059.25 819.566C1059.96 819.366 1060.69 819.771 1060.91 820.425C1061.13 821.08 1060.77 821.793 1060.06 821.993C1059.35 822.193 1058.62 821.788 1058.4 821.133C1058.18 820.479 1058.54 819.766 1059.25 819.566Z" stroke="#A68432" stroke-width="1.35493"/>
<path d="M1187.01 816.393C1171.26 807.644 1159.77 822.062 1158.49 826.449C1157.21 830.837 1157.11 830.479 1157.99 830.498C1166.55 829.736 1169.9 831.757 1172.55 840.922C1176.56 837.155 1182.58 846.517 1179.46 852.154C1176.33 857.79 1183.83 852.762 1187.34 856.263C1191.04 860.306 1191.8 864.091 1189.06 867.912C1185.26 873.202 1179.47 870.968 1174.22 865.692C1174.26 875.588 1171.98 883.804 1183.03 891.207C1185.94 893.155 1193.6 892.222 1200.42 888.057C1211.17 878.519 1212.52 869.035 1208.31 846.269C1204.9 833.024 1200.95 826.253 1187.01 816.393Z" fill="url(#paint27_linear_2501_15351)"/>
<path d="M1193.21 873.598L1188.53 868.673" stroke="#CBB042" stroke-width="1.35493"/>
<path d="M1179.89 830.32C1175.55 831.318 1173.54 832.466 1170.3 834.985" stroke="#CBB042" stroke-width="1.35493"/>
<path d="M1200.75 857.064C1195.92 856.409 1193.55 856.907 1189.4 858.872" stroke="#CBB042" stroke-width="1.35493"/>
<path d="M1190.81 850.158L1194.31 857.4" stroke="#CBB042" stroke-width="1.35493"/>
<path d="M1171.44 824.506L1174.37 831.662" stroke="#CBB042" stroke-width="1.35493" stroke-linecap="round"/>
<path d="M1197.51 836.857L1202.1 847.079" stroke="url(#paint28_linear_2501_15351)" stroke-width="1.35493"/>
<path d="M1197.51 836.857L1202.1 847.079" stroke="url(#paint29_linear_2501_15351)" stroke-width="1.35493"/>
<path d="M1172.79 814.088L1175.53 821.65" stroke="url(#paint30_linear_2501_15351)" stroke-width="1.35493"/>
<path d="M1190.7 850.143C1195.61 847.848 1197.82 846.89 1202.09 847.148" stroke="#CBB042" stroke-width="1.35493" stroke-linecap="round"/>
<path d="M1171.39 824.498C1172.08 823.138 1173.38 822.08 1175.56 821.654" stroke="#CBB042" stroke-width="1.35493" stroke-linecap="round"/>
<path d="M1192.87 839.848C1196.94 836.884 1199.35 835.878 1203.81 834.983" stroke="#A68432" stroke-width="1.35493" stroke-linecap="round"/>
<path d="M1193.34 874.377C1193.26 875.038 1193.75 875.704 1194.51 875.817C1195.26 875.929 1195.9 875.432 1195.98 874.771C1196.06 874.11 1195.57 873.444 1194.81 873.331C1194.06 873.219 1193.43 873.716 1193.34 874.377Z" stroke="#CBB042" stroke-width="1.35493"/>
<path d="M1181.1 831.666C1181.82 831.923 1182.55 831.568 1182.77 830.939C1182.99 830.31 1182.65 829.567 1181.93 829.309C1181.21 829.052 1180.48 829.407 1180.26 830.036C1180.04 830.665 1180.39 831.409 1181.1 831.666Z" stroke="#CBB042" stroke-width="1.35493"/>
<path d="M1201.93 858.466C1202.63 858.759 1203.38 858.444 1203.64 857.827C1203.9 857.211 1203.59 856.452 1202.89 856.159C1202.19 855.866 1201.43 856.18 1201.18 856.797C1200.92 857.414 1201.23 858.173 1201.93 858.466Z" stroke="#CBB042" stroke-width="1.35493"/>
<path d="M1191.92 839.408C1191.28 839.007 1190.48 839.182 1190.11 839.749C1189.74 840.315 1189.92 841.108 1190.55 841.509C1191.19 841.911 1191.99 841.736 1192.36 841.169C1192.73 840.602 1192.55 839.81 1191.92 839.408Z" stroke="#A68432" stroke-width="1.35493"/>
<ellipse cx="1.67395" cy="1.60807" rx="1.67395" ry="1.60807" transform="matrix(0.988999 0.147918 -0.122386 0.992482 1145.69 916.228)" fill="#CBB042"/>
<ellipse cx="1.67395" cy="1.60807" rx="1.67395" ry="1.60807" transform="matrix(0.988999 0.147918 -0.122386 0.992482 1082.51 904.348)" fill="#CBB042"/>
<ellipse cx="1102.16" cy="851.775" rx="2.58345" ry="2.46307" transform="rotate(24.1235 1102.16 851.775)" fill="white"/>
<ellipse cx="1146.56" cy="858.502" rx="2.58345" ry="2.46307" transform="rotate(24.1235 1146.56 858.502)" fill="white"/>
<rect width="7.47117" height="16.4975" transform="matrix(0.985839 0.167696 -0.1698 0.985479 1092.16 911.653)" fill="#483E32"/>
<rect width="7.47117" height="16.4975" transform="matrix(0.985839 0.167696 -0.1698 0.985479 1104.75 913.697)" fill="#483E32"/>
<rect width="7.47117" height="16.4975" transform="matrix(0.985839 0.167696 -0.1698 0.985479 1117.33 915.741)" fill="#483E32"/>
<rect width="7.47117" height="16.4975" transform="matrix(0.985839 0.167696 -0.1698 0.985479 1129.91 917.785)" fill="#483E32"/>
<path d="M852.456 811.959C846.892 804.351 846.512 791.29 855.848 779.941C865.184 768.592 878.959 766.019 886.422 772.353C890.098 774.371 899.441 787.75 882.876 797.541" stroke="url(#paint31_linear_2501_15351)" stroke-width="6"/>
<path d="M1056.17 822.574C1061.36 817.78 1059.63 807.672 1052.31 799.997C1045 792.323 1034.86 789.988 1029.67 794.782" stroke="url(#paint32_linear_2501_15351)" stroke-width="8"/>
</g>
<defs>
<filter id="filter0_d_2501_15351" x="104.368" y="161.638" width="1394.65" height="883.589" filterUnits="userSpaceOnUse" color-interpolation-filters="sRGB">
<feFlood flood-opacity="0" result="BackgroundImageFix"/>
<feColorMatrix in="SourceAlpha" type="matrix" values="0 0 0 0 0 0 0 0 0 0 0 0 0 0 0 0 0 0 127 0" result="hardAlpha"/>
<feOffset dy="4"/>
<feGaussianBlur stdDeviation="5"/>
<feComposite in2="hardAlpha" operator="out"/>
<feColorMatrix type="matrix" values="0 0 0 0 0 0 0 0 0 0 0 0 0 0 0 0 0 0 0.25 0"/>
<feBlend mode="normal" in2="BackgroundImageFix" result="effect1_dropShadow_2501_15351"/>
<feBlend mode="normal" in="SourceGraphic" in2="effect1_dropShadow_2501_15351" result="shape"/>
</filter>
<filter id="filter1_i_2501_15351" x="114.368" y="167.638" width="825.604" height="587.989" filterUnits="userSpaceOnUse" color-interpolation-filters="sRGB">
<feFlood flood-opacity="0" result="BackgroundImageFix"/>
<feBlend mode="normal" in="SourceGraphic" in2="BackgroundImageFix" result="shape"/>
<feColorMatrix in="SourceAlpha" type="matrix" values="0 0 0 0 0 0 0 0 0 0 0 0 0 0 0 0 0 0 127 0" result="hardAlpha"/>
<feOffset dx="25" dy="4"/>
<feGaussianBlur stdDeviation="2"/>
<feComposite in2="hardAlpha" operator="arithmetic" k2="-1" k3="1"/>
<feColorMatrix type="matrix" values="0 0 0 0 0.417639 0 0 0 0 0.779031 0 0 0 0 0.808333 0 0 0 1 0"/>
<feBlend mode="normal" in2="shape" result="effect1_innerShadow_2501_15351"/>
</filter>
<filter id="filter2_d_2501_15351" x="479.595" y="763.752" width="414.74" height="274.707" filterUnits="userSpaceOnUse" color-interpolation-filters="sRGB">
<feFlood flood-opacity="0" result="BackgroundImageFix"/>
<feColorMatrix in="SourceAlpha" type="matrix" values="0 0 0 0 0 0 0 0 0 0 0 0 0 0 0 0 0 0 127 0" result="hardAlpha"/>
<feOffset dx="7.23197" dy="6.02664"/>
<feGaussianBlur stdDeviation="0.602664"/>
<feComposite in2="hardAlpha" operator="out"/>
<feColorMatrix type="matrix" values="0 0 0 0 0.779167 0 0 0 0 0.673135 0 0 0 0 0.548663 0 0 0 1 0"/>
<feBlend mode="normal" in2="BackgroundImageFix" result="effect1_dropShadow_2501_15351"/>
<feBlend mode="normal" in="SourceGraphic" in2="effect1_dropShadow_2501_15351" result="shape"/>
</filter>
<filter id="filter3_d_2501_15351" x="831.627" y="792.768" width="29.0898" height="29.0901" filterUnits="userSpaceOnUse" color-interpolation-filters="sRGB">
<feFlood flood-opacity="0" result="BackgroundImageFix"/>
<feColorMatrix in="SourceAlpha" type="matrix" values="0 0 0 0 0 0 0 0 0 0 0 0 0 0 0 0 0 0 127 0" result="hardAlpha"/>
<feOffset dy="4"/>
<feGaussianBlur stdDeviation="2"/>
<feComposite in2="hardAlpha" operator="out"/>
<feColorMatrix type="matrix" values="0 0 0 0 0 0 0 0 0 0 0 0 0 0 0 0 0 0 0.25 0"/>
<feBlend mode="normal" in2="BackgroundImageFix" result="effect1_dropShadow_2501_15351"/>
<feBlend mode="normal" in="SourceGraphic" in2="effect1_dropShadow_2501_15351" result="shape"/>
</filter>
<filter id="filter4_d_2501_15351" x="907.427" y="670.849" width="33.5264" height="33.5265" filterUnits="userSpaceOnUse" color-interpolation-filters="sRGB">
<feFlood flood-opacity="0" result="BackgroundImageFix"/>
<feColorMatrix in="SourceAlpha" type="matrix" values="0 0 0 0 0 0 0 0 0 0 0 0 0 0 0 0 0 0 127 0" result="hardAlpha"/>
<feOffset dy="4"/>
<feGaussianBlur stdDeviation="2"/>
<feComposite in2="hardAlpha" operator="out"/>
<feColorMatrix type="matrix" values="0 0 0 0 0.8 0 0 0 0 0.613333 0 0 0 0 0.613333 0 0 0 0.25 0"/>
<feBlend mode="normal" in2="BackgroundImageFix" result="effect1_dropShadow_2501_15351"/>
<feBlend mode="normal" in="SourceGraphic" in2="effect1_dropShadow_2501_15351" result="shape"/>
</filter>
<filter id="filter5_d_2501_15351" x="1044.41" y="438.613" width="449.612" height="305.95" filterUnits="userSpaceOnUse" color-interpolation-filters="sRGB">
<feFlood flood-opacity="0" result="BackgroundImageFix"/>
<feColorMatrix in="SourceAlpha" type="matrix" values="0 0 0 0 0 0 0 0 0 0 0 0 0 0 0 0 0 0 127 0" result="hardAlpha"/>
<feOffset dx="5" dy="4"/>
<feComposite in2="hardAlpha" operator="out"/>
<feColorMatrix type="matrix" values="0 0 0 0 0.629167 0 0 0 0 0.626545 0 0 0 0 0.626545 0 0 0 1 0"/>
<feBlend mode="normal" in2="BackgroundImageFix" result="effect1_dropShadow_2501_15351"/>
<feBlend mode="normal" in="SourceGraphic" in2="effect1_dropShadow_2501_15351" result="shape"/>
</filter>
<filter id="filter6_d_2501_15351" x="976.647" y="621.161" width="40.1875" height="39.9676" filterUnits="userSpaceOnUse" color-interpolation-filters="sRGB">
<feFlood flood-opacity="0" result="BackgroundImageFix"/>
<feColorMatrix in="SourceAlpha" type="matrix" values="0 0 0 0 0 0 0 0 0 0 0 0 0 0 0 0 0 0 127 0" result="hardAlpha"/>
<feOffset dy="4"/>
<feGaussianBlur stdDeviation="2"/>
<feComposite in2="hardAlpha" operator="out"/>
<feColorMatrix type="matrix" values="0 0 0 0 0 0 0 0 0 0 0 0 0 0 0 0 0 0 0.25 0"/>
<feBlend mode="normal" in2="BackgroundImageFix" result="effect1_dropShadow_2501_15351"/>
<feBlend mode="normal" in="SourceGraphic" in2="effect1_dropShadow_2501_15351" result="shape"/>
</filter>
<filter id="filter7_d_2501_15351" x="1130.16" y="845.926" width="31.8442" height="33.0762" filterUnits="userSpaceOnUse" color-interpolation-filters="sRGB">
<feFlood flood-opacity="0" result="BackgroundImageFix"/>
<feColorMatrix in="SourceAlpha" type="matrix" values="0 0 0 0 0 0 0 0 0 0 0 0 0 0 0 0 0 0 127 0" result="hardAlpha"/>
<feOffset dy="1.08395"/>
<feGaussianBlur stdDeviation="4.0648"/>
<feComposite in2="hardAlpha" operator="out"/>
<feColorMatrix type="matrix" values="0 0 0 0 0.741176 0 0 0 0 0.992157 0 0 0 0 0.898039 0 0 0 1 0"/>
<feBlend mode="normal" in2="BackgroundImageFix" result="effect1_dropShadow_2501_15351"/>
<feBlend mode="normal" in="SourceGraphic" in2="effect1_dropShadow_2501_15351" result="shape"/>
</filter>
<filter id="filter8_d_2501_15351" x="1084.62" y="839.365" width="31.8442" height="33.0762" filterUnits="userSpaceOnUse" color-interpolation-filters="sRGB">
<feFlood flood-opacity="0" result="BackgroundImageFix"/>
<feColorMatrix in="SourceAlpha" type="matrix" values="0 0 0 0 0 0 0 0 0 0 0 0 0 0 0 0 0 0 127 0" result="hardAlpha"/>
<feOffset dy="1.08395"/>
<feGaussianBlur stdDeviation="4.0648"/>
<feComposite in2="hardAlpha" operator="out"/>
<feColorMatrix type="matrix" values="0 0 0 0 0.741176 0 0 0 0 0.992157 0 0 0 0 0.898039 0 0 0 1 0"/>
<feBlend mode="normal" in2="BackgroundImageFix" result="effect1_dropShadow_2501_15351"/>
<feBlend mode="normal" in="SourceGraphic" in2="effect1_dropShadow_2501_15351" result="shape"/>
</filter>
<linearGradient id="paint0_linear_2501_15351" x1="1029.67" y1="794.782" x2="1055.74" y2="822.975" gradientUnits="userSpaceOnUse">
<stop stop-color="#A49F9F"/>
<stop offset="1" stop-color="#5F5F5F"/>
</linearGradient>
<linearGradient id="paint1_linear_2501_15351" x1="317.511" y1="151.9" x2="775.149" y2="634.617" gradientUnits="userSpaceOnUse">
<stop stop-color="#3389B9"/>
<stop offset="1" stop-color="#7CCACA"/>
</linearGradient>
<linearGradient id="paint2_linear_2501_15351" x1="946.62" y1="623.117" x2="972.682" y2="651.31" gradientUnits="userSpaceOnUse">
<stop stop-color="#A49F9F"/>
<stop offset="1" stop-color="#5F5F5F"/>
</linearGradient>
<linearGradient id="paint3_linear_2501_15351" x1="879.655" y1="801.194" x2="493.493" y2="965.892" gradientUnits="userSpaceOnUse">
<stop stop-color="#F4E2BF"/>
<stop offset="1" stop-color="#D0B37B"/>
</linearGradient>
<radialGradient id="paint4_radial_2501_15351" cx="0" cy="0" r="1" gradientUnits="userSpaceOnUse" gradientTransform="translate(907.912 733.956) rotate(117.093) scale(13.1326 16.7451)">
<stop stop-color="white"/>
<stop stop-color="white"/>
<stop offset="1" stop-color="#F8EADB"/>
</radialGradient>
<radialGradient id="paint5_radial_2501_15351" cx="0" cy="0" r="1" gradientUnits="userSpaceOnUse" gradientTransform="translate(905.156 731.902) rotate(120.959) scale(13.1218 12.5672)">
<stop stop-color="#FBEBC1"/>
<stop offset="1" stop-color="#E1C375"/>
</radialGradient>
<linearGradient id="paint6_linear_2501_15351" x1="917.944" y1="695.18" x2="900.75" y2="722.726" gradientUnits="userSpaceOnUse">
<stop stop-color="#96E4EB"/>
<stop offset="1" stop-color="#CCF6F8"/>
</linearGradient>
<radialGradient id="paint7_radial_2501_15351" cx="0" cy="0" r="1" gradientUnits="userSpaceOnUse" gradientTransform="translate(931.614 682.798) rotate(117.093) scale(13.7295 17.5062)">
<stop stop-color="white"/>
<stop stop-color="white"/>
<stop offset="1" stop-color="#F8EADB"/>
</radialGradient>
<radialGradient id="paint8_radial_2501_15351" cx="0" cy="0" r="1" gradientUnits="userSpaceOnUse" gradientTransform="translate(948.07 665.401) rotate(115.124) scale(14.0872 17.0295)">
<stop stop-color="white"/>
<stop stop-color="white"/>
<stop offset="1" stop-color="#F8EADB"/>
</radialGradient>
<radialGradient id="paint9_radial_2501_15351" cx="0" cy="0" r="1" gradientUnits="userSpaceOnUse" gradientTransform="translate(901.268 757.391) rotate(117.093) scale(13.7295 17.5062)">
<stop stop-color="white"/>
<stop stop-color="white"/>
<stop offset="1" stop-color="#F8EADB"/>
</radialGradient>
<linearGradient id="paint10_linear_2501_15351" x1="1246.53" y1="536.232" x2="1246.53" y2="751.542" gradientUnits="userSpaceOnUse">
<stop stop-color="#FCF8F4"/>
<stop offset="1" stop-color="#F2EDE6" stop-opacity="0.9"/>
<stop offset="1" stop-color="#F4EDE4" stop-opacity="0.9"/>
</linearGradient>
<linearGradient id="paint11_linear_2501_15351" x1="1074.29" y1="623.854" x2="1074.29" y2="649.38" gradientUnits="userSpaceOnUse">
<stop stop-color="#A0A0A0"/>
<stop offset="1" stop-color="#95A4AA"/>
</linearGradient>
<radialGradient id="paint12_radial_2501_15351" cx="0" cy="0" r="1" gradientUnits="userSpaceOnUse" gradientTransform="translate(1054.06 646.3) rotate(117.093) scale(13.1326 16.7451)">
<stop stop-color="white"/>
<stop stop-color="white"/>
<stop offset="1" stop-color="#F8EADB"/>
</radialGradient>
<linearGradient id="paint13_linear_2501_15351" x1="1012.58" y1="638.67" x2="980.653" y2="632.738" gradientUnits="userSpaceOnUse">
<stop stop-color="#C6969F"/>
<stop offset="1" stop-color="#CC7878"/>
</linearGradient>
<radialGradient id="paint14_radial_2501_15351" cx="0" cy="0" r="1" gradientUnits="userSpaceOnUse" gradientTransform="translate(1029.41 641.27) rotate(117.093) scale(13.7295 17.5062)">
<stop stop-color="white"/>
<stop stop-color="white"/>
<stop offset="1" stop-color="#F8EADB"/>
</radialGradient>
<radialGradient id="paint15_radial_2501_15351" cx="0" cy="0" r="1" gradientUnits="userSpaceOnUse" gradientTransform="translate(1024.5 703.598) rotate(115.124) scale(14.0872 17.0295)">
<stop stop-color="white"/>
<stop stop-color="white"/>
<stop offset="1" stop-color="#F8EADB"/>
</radialGradient>
<radialGradient id="paint16_radial_2501_15351" cx="0" cy="0" r="1" gradientUnits="userSpaceOnUse" gradientTransform="translate(996.905 661.258) rotate(115.124) scale(14.0872 17.0295)">
<stop stop-color="white"/>
<stop stop-color="white"/>
<stop offset="1" stop-color="#F8EADB"/>
</radialGradient>
<radialGradient id="paint17_radial_2501_15351" cx="0" cy="0" r="1" gradientUnits="userSpaceOnUse" gradientTransform="translate(1027.45 726.9) rotate(118.806) scale(14.0089 12.8415)">
<stop stop-color="#FBEBC1"/>
<stop offset="1" stop-color="#E1C375"/>
</radialGradient>
<radialGradient id="paint18_radial_2501_15351" cx="0" cy="0" r="1" gradientUnits="userSpaceOnUse" gradientTransform="translate(1024.18 752.217) rotate(118.806) scale(14.0089 12.8415)">
<stop stop-color="#FBEBC1"/>
<stop offset="1" stop-color="#E1C375"/>
</radialGradient>
<radialGradient id="paint19_radial_2501_15351" cx="0" cy="0" r="1" gradientUnits="userSpaceOnUse" gradientTransform="translate(1031.65 780.105) rotate(115.124) scale(14.0872 17.0295)">
<stop stop-color="white"/>
<stop stop-color="white"/>
<stop offset="1" stop-color="#F8EADB"/>
</radialGradient>
<radialGradient id="paint20_radial_2501_15351" cx="0" cy="0" r="1" gradientUnits="userSpaceOnUse" gradientTransform="translate(1013.92 679.575) rotate(115.124) scale(14.0872 17.0295)">
<stop stop-color="white"/>
<stop stop-color="white"/>
<stop offset="1" stop-color="#F8EADB"/>
</radialGradient>
<linearGradient id="paint21_linear_2501_15351" x1="779.295" y1="826.058" x2="566.993" y2="972.626" gradientUnits="userSpaceOnUse">
<stop stop-color="#FDFDFD"/>
<stop offset="1" stop-color="#FAE9D6"/>
</linearGradient>
<linearGradient id="paint22_linear_2501_15351" x1="811.315" y1="890.944" x2="619.817" y2="1017.57" gradientUnits="userSpaceOnUse">
<stop stop-color="#FDFDFD"/>
<stop offset="1" stop-color="#FDF2E5"/>
</linearGradient>
<linearGradient id="paint23_linear_2501_15351" x1="1068.75" y1="797.227" x2="1057.43" y2="872.904" gradientUnits="userSpaceOnUse">
<stop stop-color="#DBD4B7"/>
<stop offset="1" stop-color="#A6D6A8"/>
</linearGradient>
<linearGradient id="paint24_linear_2501_15351" x1="1051.61" y1="823.53" x2="1050.77" y2="815.867" gradientUnits="userSpaceOnUse">
<stop stop-color="#CBB042"/>
<stop offset="1" stop-color="#A68432"/>
</linearGradient>
<linearGradient id="paint25_linear_2501_15351" x1="1051.61" y1="823.53" x2="1050.77" y2="815.867" gradientUnits="userSpaceOnUse">
<stop stop-color="#CBB042"/>
<stop offset="1" stop-color="#A68432"/>
</linearGradient>
<linearGradient id="paint26_linear_2501_15351" x1="1082.08" y1="806.861" x2="1080.88" y2="798.685" gradientUnits="userSpaceOnUse">
<stop stop-color="#CBB042"/>
<stop offset="1" stop-color="#A68432"/>
</linearGradient>
<linearGradient id="paint27_linear_2501_15351" x1="1188.17" y1="815.088" x2="1176.85" y2="890.765" gradientUnits="userSpaceOnUse">
<stop stop-color="#DBD4B7"/>
<stop offset="1" stop-color="#A6D6A8"/>
</linearGradient>
<linearGradient id="paint28_linear_2501_15351" x1="1198.32" y1="845.473" x2="1201.3" y2="838.469" gradientUnits="userSpaceOnUse">
<stop stop-color="#CBB042"/>
<stop offset="1" stop-color="#A68432"/>
</linearGradient>
<linearGradient id="paint29_linear_2501_15351" x1="1198.32" y1="845.473" x2="1201.3" y2="838.469" gradientUnits="userSpaceOnUse">
<stop stop-color="#CBB042"/>
<stop offset="1" stop-color="#A68432"/>
</linearGradient>
<linearGradient id="paint30_linear_2501_15351" x1="1172.99" y1="820.457" x2="1176.45" y2="813.081" gradientUnits="userSpaceOnUse">
<stop stop-color="#CBB042"/>
<stop offset="1" stop-color="#A68432"/>
</linearGradient>
<linearGradient id="paint31_linear_2501_15351" x1="886.265" y1="770.861" x2="851.832" y2="811.429" gradientUnits="userSpaceOnUse">
<stop stop-color="#A49F9F"/>
<stop offset="1" stop-color="#5F5F5F"/>
</linearGradient>
<linearGradient id="paint32_linear_2501_15351" x1="1029.67" y1="794.782" x2="1055.73" y2="822.975" gradientUnits="userSpaceOnUse">
<stop stop-color="#A49F9F"/>
<stop offset="1" stop-color="#5F5F5F"/>
</linearGradient>
</defs>
</svg>
