<svg width="119" height="31" viewBox="0 0 119 31" fill="none" xmlns="http://www.w3.org/2000/svg">
<path d="M12.6115 24.3024C13.307 24.3024 14.1235 24.1512 14.94 23.8488V20.9458C14.5166 21.0667 14.1235 21.1272 13.7909 21.1272C13.1256 21.1272 12.7325 20.855 12.7325 20.1898V2.92272H9.10367V20.4317C9.10367 23.0928 10.5854 24.3024 12.6115 24.3024ZM17.0946 6.27936H20.9048V2.92272H17.0946V6.27936ZM17.1853 24H20.8141V9.09168H17.1853V24ZM57.8572 16.3493C57.8572 12.2064 55.6195 8.78928 50.9927 8.78928C46.0334 8.78928 43.9166 12.7205 43.9166 16.6214C43.9166 20.6131 46.0939 24.3024 51.2347 24.3024C53.7446 24.3024 55.7102 23.4254 57.3431 21.611L54.8332 19.4035C53.8051 20.5829 52.5955 21.0062 51.2649 21.0062C48.9062 21.0062 47.6966 19.7059 47.5454 17.7403H57.7665C57.827 17.2565 57.8572 16.8029 57.8572 16.3493ZM47.5151 14.8675C47.7268 13.3858 48.755 11.8133 50.9625 11.8133C52.8676 11.8133 54.3191 12.9624 54.3796 14.8675H47.5151ZM68.3046 8.78928C66.7019 8.78928 65.0387 9.30336 64.0106 10.5734V9.09168H60.3818V30.169H64.0106V22.488C64.948 23.6069 66.6112 24.3024 68.3046 24.3024C71.9637 24.3024 74.5946 21.4296 74.5946 16.561C74.5946 12.0854 72.3568 8.78928 68.3046 8.78928ZM67.3974 21.1272C64.7968 21.1272 63.6779 19.1314 63.6779 16.5307C63.6779 13.8696 64.7968 11.9645 67.4277 11.9645C69.8469 11.9645 70.9658 13.5974 70.9658 16.5307C70.9658 19.4338 69.8166 21.1272 67.3974 21.1272ZM89.9012 16.3493C89.9012 12.2064 87.6634 8.78928 83.0367 8.78928C78.0773 8.78928 75.9605 12.7205 75.9605 16.6214C75.9605 20.6131 78.1378 24.3024 83.2786 24.3024C85.7885 24.3024 87.7541 23.4254 89.3871 21.611L86.8772 19.4035C85.849 20.5829 84.6394 21.0062 83.3088 21.0062C80.9501 21.0062 79.7405 19.7059 79.5893 17.7403H89.8104C89.8709 17.2565 89.9012 16.8029 89.9012 16.3493ZM79.5591 14.8675C79.7708 13.3858 80.7989 11.8133 83.0064 11.8133C84.9116 11.8133 86.3631 12.9624 86.4236 14.8675H79.5591ZM105.096 16.3493C105.096 12.2064 102.858 8.78928 98.2318 8.78928C93.2724 8.78928 91.1556 12.7205 91.1556 16.6214C91.1556 20.6131 93.3329 24.3024 98.4737 24.3024C100.984 24.3024 102.949 23.4254 104.582 21.611L102.072 19.4035C101.044 20.5829 99.8345 21.0062 98.5039 21.0062C96.1452 21.0062 94.9356 19.7059 94.7844 17.7403H105.006C105.066 17.2565 105.096 16.8029 105.096 16.3493ZM94.7542 14.8675C94.9659 13.3858 95.994 11.8133 98.2015 11.8133C100.107 11.8133 101.558 12.9624 101.619 14.8675H94.7542ZM115.241 8.78928C113.548 8.78928 111.885 9.7872 111.25 11.6318V9.09168H107.591V24H111.219V16.5005C111.219 13.6882 112.308 12.3274 114.515 12.3274C115.241 12.3274 115.816 12.5088 116.33 12.8414L118.084 9.636C117.116 9.0312 116.239 8.78928 115.241 8.78928Z" fill="#433860"/>
<rect x="32.0166" y="21.0859" width="2.67429" height="2.67429" fill="#433860"/>
<rect x="26" y="11.0571" width="2.67429" height="2.67429" fill="#433860"/>
<rect x="32.0166" y="11.0571" width="2.67429" height="2.67429" fill="#433860"/>
<rect x="37.3652" y="11.0571" width="2.67429" height="2.67429" fill="#433860"/>
<rect x="34.6914" y="16.4058" width="2.67429" height="2.67429" fill="#433860"/>
<rect x="28.6738" y="16.4058" width="2.67429" height="2.67429" fill="#433860"/>
</svg>
