<svg width="154" height="154" viewBox="0 0 154 154" fill="none" xmlns="http://www.w3.org/2000/svg">
<g filter="url(#filter0_i_4530_2709)">
<ellipse cx="10.9655" cy="9.93617" rx="10.9655" ry="9.93617" transform="matrix(0.934767 -0.355262 0.397342 0.917671 41.2627 34.8379)" fill="#A3856C"/>
<ellipse cx="11.97" cy="9.70575" rx="11.97" ry="9.70575" transform="matrix(0.98506 0.17221 -0.141272 0.989971 84.8555 26.3506)" fill="#A3856C"/>
<path d="M108.576 41.9046C130.013 57.8093 123.075 66.217 106.898 96.8424C87.1518 116.185 74.9907 117.549 52.2669 103.522C30.8303 87.6174 15.1162 73.0794 31.8344 51.0643C48.5526 29.0493 87.1399 25.9998 108.576 41.9046Z" fill="#C2A28A"/>
<path d="M95.0639 118.469C79.201 134.068 60.9964 124.412 55.5642 115.957C53.7649 113.157 50.6529 106.319 59.0002 110.006C67.3474 113.693 88.211 112.556 93.1565 110.227C98.1019 107.897 98.0778 115.448 95.0639 118.469Z" fill="#876B57"/>
<ellipse cx="34.3982" cy="42.9571" rx="34.3982" ry="42.9571" transform="matrix(-0.0956291 -0.995417 0.998639 -0.0521605 35.0317 117.881)" fill="#95383A"/>
<ellipse cx="26.5389" cy="33.1423" rx="26.5389" ry="33.1423" transform="matrix(-0.0956291 -0.995417 0.998639 -0.0521605 41.8281 113.85)" fill="#AA4245"/>
<path d="M20.3262 70.615C21.1009 76.5228 27.9217 76.9515 30.3655 76.4111C28.6422 69.8448 31.0742 66.4581 33.1929 64.2933C31.7819 59.286 26.832 58.0717 24.7159 59.3991C22.9299 60.6762 19.5516 64.7072 20.3262 70.615Z" fill="#A3856C"/>
<path d="M121.535 56.2642C116.811 52.3548 111.773 56.6448 110.459 58.7027C116.308 62.4648 117.019 66.6504 117.082 69.7074C121.61 72.5107 125.906 70.0753 126.435 67.6485C126.77 65.4826 126.259 60.1736 121.535 56.2642Z" fill="#A3856C"/>
<path d="M100.193 86.6316C96.7562 87.8403 94.7812 85.787 94.2232 84.6093C98.3439 83.4348 101.128 79.2036 102.005 77.2348C102.833 79.8635 103.629 85.4229 100.193 86.6316Z" fill="#C2A28A"/>
<path d="M45.3505 91.76C42.3707 89.4974 43.0521 86.8459 43.7654 85.8031C47.0992 88.6514 52.3466 88.8858 54.5536 88.6469C52.7275 90.6274 48.3303 94.0227 45.3505 91.76Z" fill="#C2A28A"/>
</g>
<defs>
<filter id="filter0_i_4530_2709" x="20.2129" y="28.1914" width="106.304" height="98.5742" filterUnits="userSpaceOnUse" color-interpolation-filters="sRGB">
<feFlood flood-opacity="0" result="BackgroundImageFix"/>
<feBlend mode="normal" in="SourceGraphic" in2="BackgroundImageFix" result="shape"/>
<feColorMatrix in="SourceAlpha" type="matrix" values="0 0 0 0 0 0 0 0 0 0 0 0 0 0 0 0 0 0 127 0" result="hardAlpha"/>
<feOffset dx="1" dy="2"/>
<feComposite in2="hardAlpha" operator="arithmetic" k2="-1" k3="1"/>
<feColorMatrix type="matrix" values="0 0 0 0 1 0 0 0 0 0.913725 0 0 0 0 0.596078 0 0 0 1 0"/>
<feBlend mode="normal" in2="shape" result="effect1_innerShadow_4530_2709"/>
</filter>
</defs>
</svg>
