<svg width="126" height="86" viewBox="0 0 126 86" fill="none" xmlns="http://www.w3.org/2000/svg">
<path fill-rule="evenodd" clip-rule="evenodd" d="M103.184 65.1958L105.783 60.4265L110.229 61.0527C111.472 61.2279 112.567 60.2273 112.505 58.9732L109.106 -9.57226C109.055 -10.6133 108.212 -11.4402 107.17 -11.4723L58.2509 -12.9802L58.2509 -12.9796L17.0843 -0.327509C16.1925 -0.0534328 15.6087 0.800791 15.6773 1.73121L20.4976 67.1497C20.5943 68.4626 21.9112 69.3256 23.1536 68.8902L28.2344 67.1097L29.0224 72.5494C29.1763 73.6122 30.1421 74.3637 31.2101 74.2518L101.413 66.8955C102.345 66.7978 103.056 66.0766 103.184 65.1958Z" fill="#385661" fill-opacity="0.3"/>
<path d="M105.571 50.0086L99.7631 60.6679L91.0126 52.1176L98.1875 33.2415L105.571 50.0086Z" fill="#494676"/>
<path d="M25.8632 67.5395L24.389 57.3624C24.338 57.0105 24.3817 56.6514 24.5157 56.322L36.0811 27.8921C36.4556 26.9716 37.4492 26.4657 38.4139 26.7043L96.0646 40.9639C96.8543 41.1593 97.4471 41.8135 97.5637 42.6187L100.025 59.6098C100.188 60.7336 99.3834 61.7673 98.2541 61.8856L28.051 69.2419C26.9829 69.3538 26.0172 68.6023 25.8632 67.5395Z" fill="#5E5B8A"/>
<path d="M60.9114 49.542L55.0927 -17.9891L104.012 -16.4812C105.054 -16.4491 105.896 -15.6223 105.948 -14.5812L109.347 53.9643C109.409 55.2184 108.314 56.2189 107.07 56.0437L60.9114 49.542Z" fill="#6D6A9C"/>
<path d="M60.9117 49.5414L55.093 -17.9897L13.9261 -5.33746C13.0343 -5.06338 12.4505 -4.20916 12.5191 -3.27874L17.3394 62.1398C17.4361 63.4527 18.753 64.3156 19.9954 63.8803L60.9117 49.5414Z" fill="#8683C8"/>
<ellipse cx="57.9595" cy="13.891" rx="10.7876" ry="8.82622" transform="rotate(-3.14004 57.9595 13.891)" fill="#5E5B8A"/>
<ellipse cx="57.852" cy="11.933" rx="10.7876" ry="8.82622" transform="rotate(-3.14004 57.852 11.933)" fill="#8D8BCB"/>
</svg>
