<svg width="89" height="86" viewBox="0 0 89 86" fill="none" xmlns="http://www.w3.org/2000/svg">
<path fill-rule="evenodd" clip-rule="evenodd" d="M85.037 45.6513L3.30908 38.9775L1.21246 64.6532L1.18293 65.0148L1.1961 65.0158C1.1295 72.6833 18.7065 80.2792 40.9248 82.0935C63.143 83.9078 81.7195 79.2641 82.8977 71.6875L82.9109 71.6885L82.9404 71.3269L85.037 45.6513Z" fill="url(#paint0_linear_206_34451)"/>
<ellipse cx="44.1435" cy="42.6762" rx="41" ry="14.1504" transform="rotate(4.66831 44.1435 42.6762)" fill="#68655D"/>
<path d="M26.7233 43.0803L26.5189 42.4359C26.2661 41.6391 26.7596 40.799 27.5787 40.6318L30.3459 40.067C31.3577 39.8605 32.2398 40.7779 31.9939 41.7808L31.7497 42.7764C31.6068 43.3593 31.1098 43.7874 30.5122 43.8424L28.1935 44.0559C27.5351 44.1166 26.9233 43.7106 26.7233 43.0803Z" fill="#E9C59A"/>
<path d="M30.8814 43.5315L30.6369 42.8822C30.3243 42.0524 30.8479 41.1439 31.7225 40.9983L35.3219 40.3991C36.3328 40.2308 37.1787 41.165 36.9112 42.1543L36.6309 43.191C36.4743 43.7701 35.9678 44.1862 35.3693 44.2274L32.2949 44.4393C31.6749 44.482 31.1004 44.113 30.8814 43.5315Z" fill="#FFDAAD"/>
<path d="M55.0652 43.0218L55.3783 42.4206C55.7669 41.6744 55.4182 40.7562 54.6322 40.4562L51.9162 39.4192C50.9525 39.0513 49.9336 39.8111 50.0113 40.8397L50.0889 41.8675C50.1341 42.4661 50.5541 42.9701 51.1347 43.1225L53.46 43.7328C54.0955 43.8996 54.7618 43.6045 55.0652 43.0218Z" fill="#E9C59A"/>
<path d="M61.9084 46.1262L62.2537 45.5266C62.6938 44.7624 62.3305 43.7863 61.4979 43.4959L58.1301 42.3209C57.162 41.9832 56.1693 42.7611 56.2658 43.7819L56.3665 44.8468C56.423 45.4442 56.8521 45.94 57.4352 46.0816L60.3569 46.7914C60.9644 46.9389 61.5964 46.668 61.9084 46.1262Z" fill="#FFDAAD"/>
<path d="M22.6652 12.1145C22.8777 8.27002 23.4409 6.64777 25.704 5.26001L71.8798 10.0673C73.1826 13.3346 73.2389 15.4003 71.798 19.6216C72.5492 27.1104 71.56 29.5978 69.3455 33.4878C69.3948 37.6293 69.0045 39.4523 66.5497 40.6079C65.8442 44.2911 65.236 45.4947 63.5483 45.2101C62.3725 46.347 61.7557 46.4757 60.801 44.9795C59.9093 45.6326 59.3636 45.6859 58.2418 44.7647C57.1847 44.9695 56.9438 44.6682 57.0185 43.5343C56.1667 43.2645 56.0092 42.9211 55.9581 42.1705C53.5675 42.6081 52.2658 42.6811 50.4445 40.58C49.0866 39.6669 48.9028 38.8046 49.7593 36.5509C48.805 35.4976 48.5669 34.7599 49.1921 32.924C44.6776 32.6606 42.7311 33.7482 39.9981 37.2516C39.9981 37.2516 40.0382 40.641 38.7279 41.9991C37.4177 43.3572 36.6866 43.8233 35.416 41.7211C34.6867 43.1402 34.0222 43.5025 32.8758 42.6356C31.863 43.0633 31.2843 43.4335 30.3919 42.4271C29.4584 43.37 28.8414 43.5541 27.5882 43.3195C26.5836 44.0182 26.3167 43.0938 26.1015 42.067C25.8862 41.0402 24.1446 41.234 24.514 38.4035C22.7312 37.07 22.5881 35.7478 23.4033 32.6717C21.2864 31.8162 20.5999 30.776 20.6129 27.5343C19.4257 25.7378 18.7296 24.7619 19.7468 20.6952C19.334 16.3413 20.053 14.5139 22.6652 12.1145Z" fill="white"/>
<path fill-rule="evenodd" clip-rule="evenodd" d="M20.4821 2.75783C20.6315 2.63368 20.8533 2.65417 20.9774 2.80359C21.8068 3.80189 23.0466 4.73716 24.4352 5.57263C25.8199 6.40578 27.3326 7.12792 28.6905 7.70613C30.0477 8.28403 31.2446 8.71581 31.9952 8.96908C32.2207 9.04518 32.4048 9.10477 32.5401 9.14719C32.5699 9.14864 32.6 9.15394 32.6297 9.1634C32.7308 9.19553 32.8079 9.22112 32.844 9.23608C32.8486 9.23798 32.8639 9.24431 32.8814 9.25373C32.8861 9.2563 32.914 9.27094 32.944 9.29652C32.9626 9.31355 33.0081 9.36849 33.0313 9.40861C33.0603 9.49252 33.0431 9.69394 32.9835 9.79297C32.9276 9.84553 32.825 9.89907 32.7868 9.90922C32.7651 9.913 32.7296 9.91623 32.7159 9.91651C32.6914 9.91656 32.6721 9.91398 32.6658 9.91312C32.6501 9.91097 32.6371 9.90814 32.6317 9.90696C32.609 9.90195 32.5787 9.89357 32.5497 9.88525C32.4236 9.84909 32.1514 9.76427 31.7703 9.63568C31.0062 9.37787 29.7919 8.93978 28.4149 8.35343C27.0386 7.7674 25.4942 7.03091 24.0725 6.17546C22.6545 5.32233 21.3385 4.33904 20.4363 3.25319C20.3121 3.10376 20.3326 2.88198 20.4821 2.75783Z" fill="#CBC6B3"/>
<path fill-rule="evenodd" clip-rule="evenodd" d="M74.5841 6.46632C74.4574 6.31899 74.2353 6.30223 74.088 6.42887C72.0932 8.14366 68.4147 9.5888 65.4009 10.5805C63.904 11.0731 62.5895 11.4482 61.7562 11.6855L61.7091 11.6989C61.3225 11.809 61.0323 11.8916 60.8911 11.9398C60.8581 11.9511 60.8119 11.9675 60.7731 11.9874C60.7621 11.993 60.7437 12.003 60.7233 12.0173L60.7229 12.0176C60.7101 12.0266 60.6589 12.0625 60.6195 12.1286C60.5971 12.1662 60.5681 12.2309 60.5694 12.3157C60.5708 12.4075 60.607 12.4854 60.6548 12.5409C60.7296 12.6281 60.8226 12.6507 60.8406 12.6551L60.8418 12.6554C60.8931 12.668 60.9393 12.667 60.9526 12.6667L60.9536 12.6667C60.9752 12.6663 60.9971 12.6647 61.0167 12.6629C61.0566 12.6593 61.1064 12.653 61.1637 12.6449C61.2523 12.6324 61.3286 12.5878 61.3824 12.5245C61.525 12.4828 61.7115 12.4297 61.9393 12.3648L61.9489 12.3621C62.7831 12.1246 64.1094 11.7462 65.6208 11.2488C68.6236 10.2607 72.4319 8.78025 74.5466 6.96238C74.6939 6.83573 74.7107 6.61364 74.5841 6.46632Z" fill="#CBC6B3"/>
<path fill-rule="evenodd" clip-rule="evenodd" d="M31.0892 6.92785C31.0129 6.88224 30.914 6.86162 30.7729 6.90325C30.688 6.92834 30.6216 6.98827 30.577 7.13008C30.5289 7.28263 30.5206 7.49718 30.5559 7.74001C30.5907 7.97886 30.6635 8.21637 30.7504 8.40169C30.7938 8.49422 30.8373 8.56664 30.876 8.6173C30.9119 8.66421 30.9324 8.67784 30.9322 8.67811C30.9322 8.67816 30.9315 8.67781 30.9303 8.67717L30.6153 9.30628C30.4891 9.2431 30.3906 9.14079 30.317 9.04447C30.2401 8.94385 30.1719 8.82529 30.1133 8.70023C29.9962 8.45034 29.9041 8.14614 29.8597 7.8413C29.816 7.54044 29.8144 7.20932 29.9059 6.91877C30.0008 6.61748 30.2067 6.33687 30.5737 6.22852C30.8847 6.13671 31.1893 6.16808 31.4501 6.32393C31.7027 6.47488 31.8803 6.72188 31.9932 7.00333C32.2176 7.56227 32.2231 8.33854 31.9862 9.1624L31.3101 8.96799C31.5188 8.24221 31.4888 7.63539 31.3403 7.26536C31.2669 7.08232 31.1738 6.97837 31.0892 6.92785Z" fill="#CBC6B3"/>
<path fill-rule="evenodd" clip-rule="evenodd" d="M63.5121 10.0006C63.8361 9.69871 64.2125 9.64323 64.4725 9.77027C64.5176 9.79235 64.5271 9.81058 64.53 9.81643C64.5349 9.82619 64.5443 9.85304 64.5387 9.91078C64.5262 10.0371 64.4502 10.2231 64.3074 10.4404C64.1696 10.6501 63.9915 10.8559 63.8204 11.0165C63.6358 11.1897 63.5038 11.2682 63.461 11.2813L63.6666 11.9541C63.8752 11.8904 64.1076 11.7118 64.3018 11.5296C64.5094 11.3348 64.7244 11.087 64.8954 10.8267C65.0614 10.5741 65.2098 10.2739 65.2388 9.97973C65.2538 9.82725 65.2382 9.66031 65.1599 9.50298C65.0796 9.34174 64.9479 9.21957 64.7814 9.13819C64.1945 8.8514 63.5112 9.03982 63.0325 9.48584C62.544 9.94099 62.2368 10.6797 62.3389 11.5837L63.038 11.5048C62.9591 10.8066 63.1978 10.2934 63.5121 10.0006Z" fill="#CBC6B3"/>
<path fill-rule="evenodd" clip-rule="evenodd" d="M31.2432 8.98717C31.4322 9.03207 31.549 9.2217 31.5041 9.41071C31.2701 10.3958 31.0078 11.0826 30.6196 11.5944C30.2243 12.1158 29.7237 12.4227 29.0871 12.6985C28.9088 12.7757 28.7017 12.6938 28.6245 12.5155C28.5473 12.3372 28.6292 12.1301 28.8075 12.0529C29.3911 11.8001 29.7673 11.554 30.059 11.1693C30.3579 10.7753 30.5927 10.2032 30.8196 9.2481C30.8645 9.05909 31.0542 8.94226 31.2432 8.98717Z" fill="#B5B0A0"/>
<path fill-rule="evenodd" clip-rule="evenodd" d="M29.9115 10.0738C29.6266 10.4129 29.5905 10.7916 29.7307 11.0447C29.755 11.0887 29.7737 11.0973 29.7797 11.0999C29.7897 11.1042 29.817 11.1123 29.8744 11.1036C29.9999 11.0847 30.1817 10.9993 30.3914 10.8456C30.5938 10.6972 30.7903 10.5088 30.9419 10.3296C31.1054 10.1364 31.177 10.0005 31.1879 9.95715L31.8704 10.128C31.8174 10.3396 31.6509 10.5808 31.4789 10.7841C31.295 11.0014 31.0585 11.2288 30.8074 11.413C30.5636 11.5917 30.2714 11.7553 29.9791 11.7993C29.8276 11.8221 29.6601 11.8151 29.499 11.7449C29.3338 11.6731 29.2051 11.5477 29.1153 11.3856C28.7988 10.8143 28.9519 10.1222 29.3728 9.62123C29.8023 9.11 30.5243 8.7654 31.4324 8.82108L31.3894 9.52329C30.688 9.48029 30.1877 9.74496 29.9115 10.0738Z" fill="#CBC6B3"/>
<path fill-rule="evenodd" clip-rule="evenodd" d="M63.1539 11.899C62.9599 11.9099 62.8115 12.076 62.8224 12.27C62.874 13.1875 62.993 13.8447 63.2452 14.3649C63.5034 14.8975 63.884 15.2519 64.3821 15.5962C64.5419 15.7066 64.761 15.6666 64.8715 15.5068C64.9819 15.347 64.9419 15.1279 64.7821 15.0174C64.3356 14.7088 64.0628 14.4386 63.8783 14.058C63.6878 13.6651 63.5749 13.1204 63.5248 12.2305C63.5139 12.0365 63.3478 11.8881 63.1539 11.899Z" fill="#B5B0A0"/>
<path fill-rule="evenodd" clip-rule="evenodd" d="M64.8026 12.6209C65.027 13.0027 64.9995 13.3822 64.819 13.6083C64.7877 13.6477 64.7678 13.653 64.7615 13.6545C64.7509 13.6572 64.7227 13.6605 64.6675 13.6425C64.5469 13.6029 64.3819 13.4884 64.2007 13.3018C64.0259 13.1218 63.8636 12.9033 63.744 12.7013C63.615 12.4836 63.567 12.3377 63.5635 12.2931L62.8621 12.3478C62.8791 12.5652 63.003 12.8308 63.1387 13.0599C63.2838 13.3049 63.4791 13.5685 63.696 13.7919C63.9066 14.0088 64.1674 14.2189 64.4483 14.311C64.5939 14.3587 64.7602 14.3797 64.9308 14.3374C65.1056 14.2941 65.2535 14.1919 65.369 14.0471C65.7763 13.5364 65.7407 12.8285 65.4092 12.2644C65.0709 11.6887 64.4164 11.2286 63.5118 11.1321L63.4372 11.8317C64.1358 11.9062 64.585 12.2506 64.8026 12.6209Z" fill="#CBC6B3"/>
<path d="M30.5459 7.56689L63.9196 11.3858L62.0666 27.5795L28.6929 23.7606L30.5459 7.56689Z" fill="#ABD6AA"/>
<path d="M29.1099 20.6147L62.3998 24.4241L62.0336 27.624L28.7437 23.8147L29.1099 20.6147Z" fill="#CBB042"/>
<path d="M61.487 13.1117C61.4532 13.5145 61.0992 13.8137 60.6963 13.7799C60.2935 13.7461 59.9943 13.3921 60.0281 12.9892C60.0619 12.5863 60.4159 12.2872 60.8188 12.321C61.2217 12.3548 61.5208 12.7088 61.487 13.1117Z" fill="#CBB042"/>
<path d="M33.6013 10.0853C33.5675 10.4882 33.2135 10.7873 32.8106 10.7535C32.4077 10.7197 32.1086 10.3657 32.1424 9.96284C32.1762 9.55998 32.5302 9.26081 32.9331 9.29462C33.3359 9.32844 33.6351 9.68243 33.6013 10.0853Z" fill="#CBB042"/>
<path d="M34.5986 11.2817L38.5876 11.7334L37.5714 20.5396L33.5824 20.0879L34.5986 11.2817Z" fill="#483E32"/>
<path d="M41.4102 12.002L45.3991 12.4536L44.3829 21.2598L40.3939 20.8081L41.4102 12.002Z" fill="#483E32"/>
<path d="M48.2222 12.7217L52.2112 13.1734L51.1949 21.9795L47.206 21.5278L48.2222 12.7217Z" fill="#483E32"/>
<path d="M55.0337 13.4419L59.0227 13.8936L58.0065 22.6997L54.0175 22.2481L55.0337 13.4419Z" fill="#483E32"/>
<defs>
<linearGradient id="paint0_linear_206_34451" x1="44.1731" y1="42.3144" x2="40.9248" y2="82.0935" gradientUnits="userSpaceOnUse">
<stop stop-color="#68655C"/>
<stop offset="1" stop-color="#959595"/>
</linearGradient>
</defs>
</svg>
