<svg width="90" height="86" viewBox="0 0 90 86" fill="none" xmlns="http://www.w3.org/2000/svg">
<g filter="url(#filter0_f_206_34451)">
<path fill-rule="evenodd" clip-rule="evenodd" d="M86.037 45.6513L4.30908 38.9775L2.21246 64.6532L2.18293 65.0148L2.1961 65.0158C2.1295 72.6833 19.7065 80.2792 41.9248 82.0935C64.143 83.9078 82.7195 79.2641 83.8977 71.6875L83.9109 71.6885L83.9404 71.3269L86.037 45.6513Z" fill="url(#paint0_linear_206_34451)"/>
<ellipse cx="45.1435" cy="42.6762" rx="41" ry="14.1504" transform="rotate(4.66831 45.1435 42.6762)" fill="#68655D"/>
<path d="M27.7233 43.0803L27.5189 42.4359C27.2661 41.6391 27.7596 40.799 28.5787 40.6318L31.3459 40.067C32.3577 39.8605 33.2398 40.7779 32.9939 41.7808L32.7497 42.7764C32.6068 43.3593 32.1098 43.7874 31.5122 43.8424L29.1935 44.0559C28.5351 44.1166 27.9233 43.7106 27.7233 43.0803Z" fill="#E9C59A"/>
<path d="M31.8814 43.5315L31.6369 42.8822C31.3243 42.0524 31.8479 41.1439 32.7225 40.9983L36.3219 40.3991C37.3328 40.2308 38.1787 41.165 37.9112 42.1543L37.6309 43.191C37.4743 43.7701 36.9678 44.1862 36.3693 44.2274L33.2949 44.4393C32.6749 44.482 32.1004 44.113 31.8814 43.5315Z" fill="#FFDAAD"/>
<path d="M56.0652 43.0218L56.3783 42.4206C56.7669 41.6744 56.4182 40.7562 55.6322 40.4562L52.9162 39.4192C51.9525 39.0513 50.9336 39.8111 51.0113 40.8397L51.0889 41.8675C51.1341 42.4661 51.5541 42.9701 52.1347 43.1225L54.46 43.7328C55.0955 43.8996 55.7618 43.6045 56.0652 43.0218Z" fill="#E9C59A"/>
<path d="M62.9084 46.1262L63.2537 45.5266C63.6938 44.7624 63.3305 43.7863 62.4979 43.4959L59.1301 42.3209C58.162 41.9832 57.1693 42.7611 57.2658 43.7819L57.3665 44.8468C57.423 45.4442 57.8521 45.94 58.4352 46.0816L61.3569 46.7914C61.9644 46.9389 62.5964 46.668 62.9084 46.1262Z" fill="#FFDAAD"/>
<path d="M23.6652 12.1145C23.8777 8.27002 24.4409 6.64777 26.704 5.26001L72.8798 10.0673C74.1826 13.3346 74.2389 15.4003 72.798 19.6216C73.5492 27.1104 72.56 29.5978 70.3455 33.4878C70.3948 37.6293 70.0045 39.4523 67.5497 40.6079C66.8442 44.2911 66.236 45.4947 64.5483 45.2101C63.3725 46.347 62.7557 46.4757 61.801 44.9795C60.9093 45.6326 60.3636 45.6859 59.2418 44.7647C58.1847 44.9695 57.9438 44.6682 58.0185 43.5343C57.1667 43.2645 57.0092 42.9211 56.9581 42.1705C54.5675 42.6081 53.2658 42.6811 51.4445 40.58C50.0866 39.6669 49.9028 38.8046 50.7593 36.5509C49.805 35.4976 49.5669 34.7599 50.1921 32.924C45.6776 32.6606 43.7311 33.7482 40.9981 37.2516C40.9981 37.2516 41.0382 40.641 39.7279 41.9991C38.4177 43.3572 37.6866 43.8233 36.416 41.7211C35.6867 43.1402 35.0222 43.5025 33.8758 42.6356C32.863 43.0633 32.2843 43.4335 31.3919 42.4271C30.4584 43.37 29.8414 43.5541 28.5882 43.3195C27.5836 44.0182 27.3167 43.0938 27.1015 42.067C26.8862 41.0402 25.1446 41.234 25.514 38.4035C23.7312 37.07 23.5881 35.7478 24.4033 32.6717C22.2864 31.8162 21.5999 30.776 21.6129 27.5343C20.4257 25.7378 19.7296 24.7619 20.7468 20.6952C20.334 16.3413 21.053 14.5139 23.6652 12.1145Z" fill="white"/>
<path fill-rule="evenodd" clip-rule="evenodd" d="M21.4821 2.75783C21.6315 2.63368 21.8533 2.65417 21.9774 2.80359C22.8068 3.80189 24.0466 4.73716 25.4352 5.57263C26.8199 6.40578 28.3326 7.12792 29.6905 7.70613C31.0477 8.28403 32.2446 8.71581 32.9952 8.96908C33.2207 9.04518 33.4048 9.10477 33.5401 9.14719C33.5699 9.14864 33.6 9.15394 33.6297 9.1634C33.7308 9.19553 33.8079 9.22112 33.844 9.23608C33.8486 9.23798 33.8639 9.24431 33.8814 9.25373C33.8861 9.2563 33.914 9.27094 33.944 9.29652C33.9626 9.31355 34.0081 9.36849 34.0313 9.40861C34.0603 9.49252 34.0431 9.69394 33.9835 9.79297C33.9276 9.84553 33.825 9.89907 33.7868 9.90922C33.7651 9.913 33.7296 9.91623 33.7159 9.91651C33.6914 9.91656 33.6721 9.91398 33.6658 9.91312C33.6501 9.91097 33.6371 9.90814 33.6317 9.90696C33.609 9.90195 33.5787 9.89357 33.5497 9.88525C33.4236 9.84909 33.1514 9.76427 32.7703 9.63568C32.0062 9.37787 30.7919 8.93978 29.4149 8.35343C28.0386 7.7674 26.4942 7.03091 25.0725 6.17546C23.6545 5.32233 22.3385 4.33904 21.4363 3.25319C21.3121 3.10376 21.3326 2.88198 21.4821 2.75783Z" fill="#CBC6B3"/>
<path fill-rule="evenodd" clip-rule="evenodd" d="M75.5841 6.46632C75.4574 6.31899 75.2353 6.30223 75.088 6.42887C73.0932 8.14366 69.4147 9.5888 66.4009 10.5805C64.904 11.0731 63.5895 11.4482 62.7562 11.6855L62.7091 11.6989C62.3225 11.809 62.0323 11.8916 61.8911 11.9398C61.8581 11.9511 61.8119 11.9675 61.7731 11.9874C61.7621 11.993 61.7437 12.003 61.7233 12.0173L61.7229 12.0176C61.7101 12.0266 61.6589 12.0625 61.6195 12.1286C61.5971 12.1662 61.5681 12.2309 61.5694 12.3157C61.5708 12.4075 61.607 12.4854 61.6548 12.5409C61.7296 12.6281 61.8226 12.6507 61.8406 12.6551L61.8418 12.6554C61.8931 12.668 61.9393 12.667 61.9526 12.6667L61.9536 12.6667C61.9752 12.6663 61.9971 12.6647 62.0167 12.6629C62.0566 12.6593 62.1064 12.653 62.1637 12.6449C62.2523 12.6324 62.3286 12.5878 62.3824 12.5245C62.525 12.4828 62.7115 12.4297 62.9393 12.3648L62.9489 12.3621C63.7831 12.1246 65.1094 11.7462 66.6208 11.2488C69.6236 10.2607 73.4319 8.78025 75.5466 6.96238C75.6939 6.83573 75.7107 6.61364 75.5841 6.46632Z" fill="#CBC6B3"/>
<path fill-rule="evenodd" clip-rule="evenodd" d="M32.0892 6.92785C32.0129 6.88224 31.914 6.86162 31.7729 6.90325C31.688 6.92834 31.6216 6.98827 31.577 7.13008C31.5289 7.28263 31.5206 7.49718 31.5559 7.74001C31.5907 7.97886 31.6635 8.21637 31.7504 8.40169C31.7938 8.49422 31.8373 8.56664 31.876 8.6173C31.9119 8.66421 31.9324 8.67784 31.9322 8.67811C31.9322 8.67816 31.9315 8.67781 31.9303 8.67717L31.6153 9.30628C31.4891 9.2431 31.3906 9.14079 31.317 9.04447C31.2401 8.94385 31.1719 8.82529 31.1133 8.70023C30.9962 8.45034 30.9041 8.14614 30.8597 7.8413C30.816 7.54044 30.8144 7.20932 30.9059 6.91877C31.0008 6.61748 31.2067 6.33687 31.5737 6.22852C31.8847 6.13671 32.1893 6.16808 32.4501 6.32393C32.7027 6.47488 32.8803 6.72188 32.9932 7.00333C33.2176 7.56227 33.2231 8.33854 32.9862 9.1624L32.3101 8.96799C32.5188 8.24221 32.4888 7.63539 32.3403 7.26536C32.2669 7.08232 32.1738 6.97837 32.0892 6.92785Z" fill="#CBC6B3"/>
<path fill-rule="evenodd" clip-rule="evenodd" d="M64.5121 10.0006C64.8361 9.69871 65.2125 9.64323 65.4725 9.77027C65.5176 9.79235 65.5271 9.81058 65.53 9.81643C65.5349 9.82619 65.5443 9.85304 65.5387 9.91078C65.5262 10.0371 65.4502 10.2231 65.3074 10.4404C65.1696 10.6501 64.9915 10.8559 64.8204 11.0165C64.6358 11.1897 64.5038 11.2682 64.461 11.2813L64.6666 11.9541C64.8752 11.8904 65.1076 11.7118 65.3018 11.5296C65.5094 11.3348 65.7244 11.087 65.8954 10.8267C66.0614 10.5741 66.2098 10.2739 66.2388 9.97973C66.2538 9.82725 66.2382 9.66031 66.1599 9.50298C66.0796 9.34174 65.9479 9.21957 65.7814 9.13819C65.1945 8.8514 64.5112 9.03982 64.0325 9.48584C63.544 9.94099 63.2368 10.6797 63.3389 11.5837L64.038 11.5048C63.9591 10.8066 64.1978 10.2934 64.5121 10.0006Z" fill="#CBC6B3"/>
<path fill-rule="evenodd" clip-rule="evenodd" d="M32.2432 8.98717C32.4322 9.03207 32.549 9.2217 32.5041 9.41071C32.2701 10.3958 32.0078 11.0826 31.6196 11.5944C31.2243 12.1158 30.7237 12.4227 30.0871 12.6985C29.9088 12.7757 29.7017 12.6938 29.6245 12.5155C29.5473 12.3372 29.6292 12.1301 29.8075 12.0529C30.3911 11.8001 30.7673 11.554 31.059 11.1693C31.3579 10.7753 31.5927 10.2032 31.8196 9.2481C31.8645 9.05909 32.0542 8.94226 32.2432 8.98717Z" fill="#B5B0A0"/>
<path fill-rule="evenodd" clip-rule="evenodd" d="M30.9115 10.0738C30.6266 10.4129 30.5905 10.7916 30.7307 11.0447C30.755 11.0887 30.7737 11.0973 30.7797 11.0999C30.7897 11.1042 30.817 11.1123 30.8744 11.1036C30.9999 11.0847 31.1817 10.9993 31.3914 10.8456C31.5938 10.6972 31.7903 10.5088 31.9419 10.3296C32.1054 10.1364 32.177 10.0005 32.1879 9.95715L32.8704 10.128C32.8174 10.3396 32.6509 10.5808 32.4789 10.7841C32.295 11.0014 32.0585 11.2288 31.8074 11.413C31.5636 11.5917 31.2714 11.7553 30.9791 11.7993C30.8276 11.8221 30.6601 11.8151 30.499 11.7449C30.3338 11.6731 30.2051 11.5477 30.1153 11.3856C29.7988 10.8143 29.9519 10.1222 30.3728 9.62123C30.8023 9.11 31.5243 8.7654 32.4324 8.82108L32.3894 9.52329C31.688 9.48029 31.1877 9.74496 30.9115 10.0738Z" fill="#CBC6B3"/>
<path fill-rule="evenodd" clip-rule="evenodd" d="M64.1539 11.899C63.9599 11.9099 63.8115 12.076 63.8224 12.27C63.874 13.1875 63.993 13.8447 64.2452 14.3649C64.5034 14.8975 64.884 15.2519 65.3821 15.5962C65.5419 15.7066 65.761 15.6666 65.8715 15.5068C65.9819 15.347 65.9419 15.1279 65.7821 15.0174C65.3356 14.7088 65.0628 14.4386 64.8783 14.058C64.6878 13.6651 64.5749 13.1204 64.5248 12.2305C64.5139 12.0365 64.3478 11.8881 64.1539 11.899Z" fill="#B5B0A0"/>
<path fill-rule="evenodd" clip-rule="evenodd" d="M65.8026 12.6209C66.027 13.0027 65.9995 13.3822 65.819 13.6083C65.7877 13.6477 65.7678 13.653 65.7615 13.6545C65.7509 13.6572 65.7227 13.6605 65.6675 13.6425C65.5469 13.6029 65.3819 13.4884 65.2007 13.3018C65.0259 13.1218 64.8636 12.9033 64.744 12.7013C64.615 12.4836 64.567 12.3377 64.5635 12.2931L63.8621 12.3478C63.8791 12.5652 64.003 12.8308 64.1387 13.0599C64.2838 13.3049 64.4791 13.5685 64.696 13.7919C64.9066 14.0088 65.1674 14.2189 65.4483 14.311C65.5939 14.3587 65.7602 14.3797 65.9308 14.3374C66.1056 14.2941 66.2535 14.1919 66.369 14.0471C66.7763 13.5364 66.7407 12.8285 66.4092 12.2644C66.0709 11.6887 65.4164 11.2286 64.5118 11.1321L64.4372 11.8317C65.1358 11.9062 65.585 12.2506 65.8026 12.6209Z" fill="#CBC6B3"/>
<path d="M31.5459 7.56689L64.9196 11.3858L63.0666 27.5795L29.6929 23.7606L31.5459 7.56689Z" fill="#ABD6AA"/>
<path d="M30.1099 20.6147L63.3998 24.4241L63.0336 27.624L29.7437 23.8147L30.1099 20.6147Z" fill="#CBB042"/>
<path d="M62.487 13.1117C62.4532 13.5145 62.0992 13.8137 61.6963 13.7799C61.2935 13.7461 60.9943 13.3921 61.0281 12.9892C61.0619 12.5863 61.4159 12.2872 61.8188 12.321C62.2217 12.3548 62.5208 12.7088 62.487 13.1117Z" fill="#CBB042"/>
<path d="M34.6013 10.0853C34.5675 10.4882 34.2135 10.7873 33.8106 10.7535C33.4077 10.7197 33.1086 10.3657 33.1424 9.96284C33.1762 9.55998 33.5302 9.26081 33.9331 9.29462C34.3359 9.32844 34.6351 9.68243 34.6013 10.0853Z" fill="#CBB042"/>
<path d="M35.5986 11.2817L39.5876 11.7334L38.5714 20.5396L34.5824 20.0879L35.5986 11.2817Z" fill="#483E32"/>
<path d="M42.4102 12.002L46.3991 12.4536L45.3829 21.2598L41.3939 20.8081L42.4102 12.002Z" fill="#483E32"/>
<path d="M49.2222 12.7217L53.2112 13.1734L52.1949 21.9795L48.206 21.5278L49.2222 12.7217Z" fill="#483E32"/>
<path d="M56.0337 13.4419L60.0227 13.8936L59.0065 22.6997L55.0175 22.2481L56.0337 13.4419Z" fill="#483E32"/>
</g>
<defs>
<filter id="filter0_f_206_34451" x="0.183105" y="0.676758" width="87.854" height="83.8096" filterUnits="userSpaceOnUse" color-interpolation-filters="sRGB">
<feFlood flood-opacity="0" result="BackgroundImageFix"/>
<feBlend mode="normal" in="SourceGraphic" in2="BackgroundImageFix" result="shape"/>
<feGaussianBlur stdDeviation="1" result="effect1_foregroundBlur_206_34451"/>
</filter>
<linearGradient id="paint0_linear_206_34451" x1="45.1731" y1="42.3144" x2="41.9248" y2="82.0935" gradientUnits="userSpaceOnUse">
<stop stop-color="#68655C"/>
<stop offset="1" stop-color="#959595"/>
</linearGradient>
</defs>
</svg>
