<svg width="88" height="69" viewBox="0 0 88 69" fill="none" xmlns="http://www.w3.org/2000/svg">
<path d="M39.0477 10.6873C42.0946 4.98323 45.6234 4.9702 50.1333 10.573C53.0668 7.43942 54.6024 8.1424 57.2136 12.2588C59.1318 12.216 59.8831 13.0137 60.8835 15.2988C63.9019 14.1776 63.8016 20.6531 63.8781 19.274C63.9546 17.8949 68.8756 17.9109 69.5883 25.0776C70.301 32.2444 72.7603 34.1053 73.2527 40.0382C73.1631 43.9898 72.9372 46.0837 69.824 47.9391C71.4691 52.3784 68.5198 54.7436 65.9112 56.8223L21.0041 56.064C19.0227 55.2051 16.2568 54.5986 17.0579 49.2648C15.4388 47.1425 14.2985 46.1051 14.721 42.6447C15.7316 37.7644 15.9027 35.0508 16.0055 30.2224C16.2415 25.3411 16.7507 23.9008 18.2906 23.5058C18.7431 19.9555 19.4349 18.4491 22.5989 17.892C24.3072 14.5362 25.5666 14.0209 28.219 14.9516C29.179 12.1934 30.2057 11.4499 33.0666 11.8238C35.1727 8.9542 36.5087 8.98676 39.0477 10.6873Z" fill="white"/>
<path d="M26.6538 25.2698C22.8113 28.5334 22.8411 30.5138 24.6712 34.1687C23.3843 37.3576 23.6465 38.8837 26.2752 41.0305C29.4915 39.9008 30.7342 40.5776 32.3402 43.212C35.1649 42.7826 36.4085 43.4901 38.2735 45.7363C41.2459 43.9238 42.7295 44.484 45.2697 46.396C47.6893 45.3585 49.053 45.4815 51.492 46.3318C52.9264 43.4245 54.1889 43.1415 56.8319 43.7888C57.1198 41.0812 57.8359 40.4873 59.2299 40.2029C63.0288 40.0384 63.4151 38.2532 62.7711 33.7759C64.5098 27.6843 63.8073 25.5946 59.9191 23.9512C58.1716 19.3984 56.4712 18.7166 52.3516 20.3705C49.2978 16.0433 47.3792 15.7959 43.5483 19.388C39.9041 16.6782 38.0501 17.2549 34.9474 20.5499C31.1198 18.5947 29.3114 19.6882 26.6538 25.2698Z" fill="#FFDAAB"/>
<path d="M42.6792 31.4684C45.5971 30.7085 46.1817 30.9863 48.3821 33.4975C48.6638 34.4989 51.1536 36.5116 48.3541 38.9974C44.1283 41.4759 41.1106 40.9479 39.1411 38.9505C37.1716 36.9532 39.7612 32.2284 42.6792 31.4684Z" fill="#F9F5F1" fill-opacity="0.44"/>
<g filter="url(#filter0_d_206_34405)">
<path d="M57.2913 30.7208C57.3176 33.2741 55.7982 33.6902 53.9187 33.7095C52.0392 33.7289 50.5115 33.3443 50.4852 30.791C50.4588 28.2378 51.9611 26.1523 53.8406 26.1329C55.72 26.1135 57.265 28.1676 57.2913 30.7208Z" fill="#483E32"/>
</g>
<g filter="url(#filter1_d_206_34405)">
<path d="M37.1727 31.0407C37.199 33.5939 35.6795 34.01 33.8 34.0294C31.9206 34.0487 30.3928 33.6641 30.3665 31.1108C30.3402 28.5576 31.8425 26.4721 33.7219 26.4527C35.6014 26.4333 37.1463 28.4874 37.1727 31.0407Z" fill="#483E32"/>
</g>
<path fill-rule="evenodd" clip-rule="evenodd" d="M43.8981 34.7459C44.0924 34.7439 44.2515 34.8997 44.2535 35.094L44.2726 36.9483C44.2746 37.1426 44.1188 37.3017 43.9245 37.3037C43.7302 37.3057 43.5711 37.1498 43.5691 36.9556L43.55 35.1013C43.548 34.907 43.7039 34.7479 43.8981 34.7459Z" fill="#483E32"/>
<path d="M43.339 32.6915C43.6577 32.6517 43.9766 32.6479 44.3096 32.6771C45.3843 32.7714 45.625 34.1511 44.7874 34.8311C44.2546 35.2637 43.4842 35.2361 42.9836 34.7666L42.9077 34.6954C42.1957 34.0276 42.3703 32.8126 43.339 32.6915Z" fill="#A68A5B"/>
<path fill-rule="evenodd" clip-rule="evenodd" d="M40.9426 37.5616C40.9642 37.3685 41.1383 37.2296 41.3313 37.2512C42.0869 37.3357 42.6075 37.1775 43.7508 36.6336C43.9263 36.5501 44.1361 36.6247 44.2196 36.8001C44.3031 36.9755 44.2285 37.1854 44.0531 37.2689C42.8847 37.8248 42.2133 38.0578 41.2531 37.9503C41.06 37.9287 40.921 37.7547 40.9426 37.5616Z" fill="black"/>
<path fill-rule="evenodd" clip-rule="evenodd" d="M46.7849 37.5484C46.7626 37.3554 46.5881 37.217 46.3951 37.2392C45.6398 37.3264 45.1186 37.17 43.9735 36.6299C43.7978 36.5471 43.5882 36.6224 43.5053 36.7981C43.4224 36.9738 43.4977 37.1834 43.6734 37.2663C44.8437 37.8181 45.5159 38.0489 46.4757 37.9381C46.6687 37.9159 46.8071 37.7413 46.7849 37.5484Z" fill="black"/>
<path d="M16.9803 7.33455C24.2589 4.38046 28.5508 11.6035 28.8921 13.6621C29.2333 15.7208 29.2929 15.5654 28.9112 15.5189C25.2247 14.6369 23.6722 15.3381 22.0701 19.3033C20.5095 17.3529 17.4334 21.1951 18.5184 23.9333C19.6034 26.6716 16.5853 23.9324 14.8873 25.2902C13.0815 26.8805 12.5666 28.5393 13.5734 30.4347C14.9674 33.0591 17.5927 32.4154 20.1339 30.3671C19.6324 34.8261 20.2195 38.6735 15.0525 41.3167C13.6928 42.0123 10.41 41.1104 7.6453 38.8032C3.43715 33.8265 3.31521 29.4656 6.26128 19.4663C8.39061 13.7084 10.4378 10.9036 16.9803 7.33455Z" fill="url(#paint0_linear_206_34405)"/>
<path fill-rule="evenodd" clip-rule="evenodd" d="M13.9915 31.079L11.7176 33.0058L11.2628 32.469L13.5367 30.5423L13.9915 31.079Z" fill="#CBB042"/>
<path fill-rule="evenodd" clip-rule="evenodd" d="M21.3736 15.4717C20.8089 15.0738 20.1723 14.7442 19.2705 14.3895L19.5281 13.7348C20.4645 14.1032 21.1551 14.457 21.7789 14.8965C22.4008 15.3348 22.9442 15.8497 23.5913 16.5246L23.0835 17.0115C22.4468 16.3474 21.9402 15.8708 21.3736 15.4717Z" fill="#CBB042"/>
<path fill-rule="evenodd" clip-rule="evenodd" d="M11.4932 25.4807C10.8089 25.2582 10.0635 25.1644 9.01597 25.1601L9.01882 24.4566C10.1066 24.461 10.9317 24.5584 11.7107 24.8116C12.488 25.0643 13.1976 25.4651 14.0608 26.0451L13.6685 26.6291C12.8256 26.0628 12.1792 25.7036 11.4932 25.4807Z" fill="#CBB042"/>
<path fill-rule="evenodd" clip-rule="evenodd" d="M11.5051 25.1804L13.3805 22.1353L13.9795 22.5043L12.1041 25.5494L11.5051 25.1804Z" fill="#CBB042"/>
<path fill-rule="evenodd" clip-rule="evenodd" d="M21.5608 15.3356C21.3954 15.248 21.3381 15.0331 21.4327 14.8556L23.055 11.8131C23.1497 11.6356 23.3605 11.5627 23.5258 11.6503C23.6912 11.7379 23.7486 11.9528 23.6539 12.1303L22.0316 15.1728C21.9369 15.3503 21.7261 15.4232 21.5608 15.3356Z" fill="#CBB042"/>
<path fill-rule="evenodd" clip-rule="evenodd" d="M8.61655 20.0458L11.1098 15.7255L11.7191 16.0771L9.2259 20.3975L8.61655 20.0458Z" fill="url(#paint1_linear_206_34405)"/>
<path fill-rule="evenodd" clip-rule="evenodd" d="M8.61655 20.0458L11.1098 15.7255L11.7191 16.0771L9.2259 20.3975L8.61655 20.0458Z" fill="url(#paint2_linear_206_34405)"/>
<path fill-rule="evenodd" clip-rule="evenodd" d="M21.4089 10.2819L22.9711 7.04481L23.5842 7.33394L22.022 10.5711L21.4089 10.2819Z" fill="url(#paint3_linear_206_34405)"/>
<path fill-rule="evenodd" clip-rule="evenodd" d="M8.57096 20.2253C8.58668 20.0316 8.75639 19.8874 8.95003 19.9031C10.9155 20.0626 11.8987 20.6819 13.9204 22.0268C14.0821 22.1344 14.126 22.3527 14.0184 22.5145C13.9108 22.6762 13.6925 22.7201 13.5307 22.6125C11.5145 21.2713 10.6631 20.748 8.89312 20.6043C8.69948 20.5886 8.55525 20.4189 8.57096 20.2253Z" fill="#CBB042"/>
<path fill-rule="evenodd" clip-rule="evenodd" d="M21.3882 10.3148C21.4586 10.1244 21.6571 10.0203 21.8316 10.0823C22.8341 10.4384 23.4229 11.0597 23.6983 11.8213C23.7642 12.0036 23.6748 12.2186 23.4986 12.3015C23.3224 12.3844 23.1262 12.3039 23.0603 12.1216C22.8605 11.5691 22.4263 11.0737 21.5766 10.7718C21.4021 10.7098 21.3178 10.5052 21.3882 10.3148Z" fill="#CBB042"/>
<path fill-rule="evenodd" clip-rule="evenodd" d="M8.43516 14.5402C8.5011 14.3575 8.70269 14.2628 8.88543 14.3287C9.8463 14.6755 10.5959 15.008 11.3153 15.4626C12.0339 15.9168 12.7097 16.4847 13.5318 17.2899C13.6705 17.4259 13.6729 17.6486 13.5369 17.7874C13.401 17.9262 13.1783 17.9285 13.0395 17.7925C12.2362 17.0057 11.6002 16.4749 10.9394 16.0573C10.2794 15.6402 9.5819 15.328 8.64664 14.9905C8.4639 14.9246 8.36921 14.723 8.43516 14.5402Z" fill="#A68432"/>
<path fill-rule="evenodd" clip-rule="evenodd" d="M10.8126 33.261C10.9091 33.26 10.9866 33.1809 10.9856 33.0843C10.9846 32.9877 10.9055 32.9102 10.809 32.9112C10.7124 32.9122 10.6349 32.9913 10.6359 33.0879C10.6369 33.1845 10.716 33.262 10.8126 33.261ZM10.8198 33.9645C11.3049 33.9595 11.6941 33.5622 11.6891 33.077C11.6841 32.5919 11.2868 32.2027 10.8017 32.2077C10.3166 32.2127 9.92739 32.6101 9.9324 33.0952C9.9374 33.5803 10.3347 33.9695 10.8198 33.9645Z" fill="#CBB042"/>
<path fill-rule="evenodd" clip-rule="evenodd" d="M18.5104 14.0724C18.5311 14.1667 18.6243 14.2264 18.7186 14.2058C18.813 14.1851 18.8727 14.0918 18.852 13.9975C18.8313 13.9031 18.7381 13.8434 18.6437 13.8641C18.5494 13.8848 18.4897 13.978 18.5104 14.0724ZM17.8232 14.2231C17.9271 14.6969 18.3955 14.9969 18.8693 14.893C19.3432 14.7891 19.6431 14.3207 19.5392 13.8468C19.4353 13.3729 18.9669 13.073 18.493 13.1769C18.0192 13.2808 17.7193 13.7492 17.8232 14.2231Z" fill="#CBB042"/>
<path fill-rule="evenodd" clip-rule="evenodd" d="M8.11714 24.863C8.14286 24.9561 8.23919 25.0108 8.33228 24.985C8.42538 24.9593 8.47999 24.863 8.45427 24.7699C8.42854 24.6768 8.33222 24.6222 8.23913 24.6479C8.14603 24.6736 8.09142 24.77 8.11714 24.863ZM7.43902 25.0504C7.56823 25.518 8.05204 25.7924 8.51965 25.6632C8.98726 25.5339 9.26159 25.0501 9.13239 24.5825C9.00318 24.1149 8.51936 23.8406 8.05176 23.9698C7.58415 24.099 7.30982 24.5828 7.43902 25.0504Z" fill="#CBB042"/>
<path fill-rule="evenodd" clip-rule="evenodd" d="M14.1259 17.8448C14.0844 17.7576 13.98 17.7206 13.8929 17.7622C13.8057 17.8037 13.7686 17.908 13.8102 17.9952C13.8517 18.0824 13.9561 18.1195 14.0433 18.0779C14.1305 18.0364 14.1675 17.932 14.1259 17.8448ZM14.7611 17.5423C14.5525 17.1043 14.0283 16.9184 13.5903 17.127C13.1523 17.3356 12.9664 17.8598 13.175 18.2978C13.3836 18.7358 13.9078 18.9217 14.3458 18.7131C14.7838 18.5045 14.9697 17.9803 14.7611 17.5423Z" fill="#A68432"/>
<path d="M68.9148 6.79934C61.5768 3.99595 57.4347 11.3059 57.136 13.3712C56.8373 15.4364 56.7745 15.2823 57.1551 15.2279C60.8227 14.2701 62.3893 14.9391 64.0728 18.8704C65.5929 16.8883 68.7476 20.6663 67.7193 23.4263C66.691 26.1864 69.6519 23.3855 71.3776 24.708C73.2157 26.2607 73.7647 27.9085 72.7972 29.8244C71.4577 32.4769 68.8196 31.8875 66.2368 29.892C66.8301 34.3397 66.3224 38.1984 71.5428 40.7345C72.9166 41.4019 76.18 40.4325 78.8966 38.0688C83.0013 33.0064 83.0333 28.644 79.8817 18.7075C77.6341 12.9947 75.5295 10.2328 68.9148 6.79934Z" fill="url(#paint4_linear_206_34405)"/>
<path fill-rule="evenodd" clip-rule="evenodd" d="M72.3927 30.4774L74.7059 32.3568L75.1495 31.8108L72.8364 29.9314L72.3927 30.4774Z" fill="#CBB042"/>
<path fill-rule="evenodd" clip-rule="evenodd" d="M64.6904 15.0253C65.2468 14.6158 65.8765 14.2732 66.7708 13.9L66.4998 13.2507C65.5711 13.6383 64.888 14.0064 64.2734 14.4586C63.6606 14.9096 63.128 15.4356 62.4949 16.1237L63.0127 16.6C63.6356 15.9229 64.1322 15.4361 64.6904 15.0253Z" fill="#CBB042"/>
<path fill-rule="evenodd" clip-rule="evenodd" d="M74.775 24.8283C75.4546 24.5918 76.198 24.4826 77.2451 24.4567L77.2278 23.7534C76.1404 23.7802 75.3174 23.8946 74.5438 24.1638C73.7719 24.4325 73.0707 24.8479 72.2196 25.4455L72.6239 26.0213C73.4549 25.4378 74.0938 25.0654 74.775 24.8283Z" fill="#CBB042"/>
<path fill-rule="evenodd" clip-rule="evenodd" d="M74.7568 24.5289L72.819 21.5231L72.2277 21.9043L74.1655 24.9101L74.7568 24.5289Z" fill="#CBB042"/>
<path fill-rule="evenodd" clip-rule="evenodd" d="M64.5001 14.8932C64.6636 14.8022 64.7165 14.5862 64.6182 14.4107L62.9335 11.4022C62.8352 11.2267 62.623 11.1582 62.4595 11.2492C62.2959 11.3402 62.243 11.5562 62.3413 11.7317L64.026 14.7402C64.1243 14.9157 64.3366 14.9842 64.5001 14.8932Z" fill="#CBB042"/>
<path fill-rule="evenodd" clip-rule="evenodd" d="M77.539 19.3353L74.9572 15.0672L74.3552 15.4313L76.937 19.6994L77.539 19.3353Z" fill="url(#paint5_linear_206_34405)"/>
<path fill-rule="evenodd" clip-rule="evenodd" d="M77.539 19.3353L74.9572 15.0672L74.3552 15.4313L76.937 19.6994L77.539 19.3353Z" fill="url(#paint6_linear_206_34405)"/>
<path fill-rule="evenodd" clip-rule="evenodd" d="M64.5479 9.83743L62.9193 6.6332L62.3123 6.93491L63.9409 10.1391L64.5479 9.83743Z" fill="url(#paint7_linear_206_34405)"/>
<path fill-rule="evenodd" clip-rule="evenodd" d="M77.5883 19.5135C77.5686 19.3202 77.3959 19.1795 77.2026 19.1992C75.2409 19.3992 74.2707 20.0387 72.2771 21.4249C72.1176 21.5358 72.0782 21.755 72.1892 21.9145C72.3001 22.074 72.5193 22.1134 72.6788 22.0025C74.6669 20.62 75.5073 20.0793 77.274 19.8991C77.4673 19.8794 77.608 19.7068 77.5883 19.5135Z" fill="#CBB042"/>
<path fill-rule="evenodd" clip-rule="evenodd" d="M64.5692 9.86983C64.4949 9.68091 64.2943 9.5809 64.1212 9.64646C63.1262 10.0232 62.5503 10.6565 62.2907 11.4236C62.2285 11.6072 62.3224 11.8203 62.5002 11.8996C62.6781 11.9789 62.8726 11.8943 62.9348 11.7107C63.1231 11.1542 63.547 10.65 64.3903 10.3306C64.5634 10.265 64.6435 10.0588 64.5692 9.86983Z" fill="#CBB042"/>
<path fill-rule="evenodd" clip-rule="evenodd" d="M77.6068 13.8276C77.5371 13.6463 77.3336 13.5558 77.1523 13.6255C76.1988 13.9919 75.4562 14.3398 74.7463 14.8092C74.0372 15.278 73.3733 15.8598 72.568 16.6818C72.432 16.8206 72.4343 17.0433 72.5731 17.1793C72.7119 17.3152 72.9346 17.3129 73.0705 17.1741C73.8575 16.3709 74.4824 15.8271 75.1344 15.396C75.7856 14.9654 76.4766 14.6389 77.4047 14.2822C77.586 14.2125 77.6765 14.009 77.6068 13.8276Z" fill="#A68432"/>
<path fill-rule="evenodd" clip-rule="evenodd" d="M75.6159 32.5931C75.5193 32.594 75.4402 32.5166 75.4392 32.42C75.4382 32.3234 75.5157 32.2443 75.6123 32.2433C75.7089 32.2423 75.788 32.3198 75.789 32.4164C75.79 32.513 75.7125 32.5921 75.6159 32.5931ZM75.6231 33.2965C75.138 33.3015 74.7407 32.9123 74.7357 32.4272C74.7307 31.9421 75.1199 31.5448 75.605 31.5398C76.0901 31.5348 76.4875 31.924 76.4925 32.4091C76.4975 32.8942 76.1083 33.2915 75.6231 33.2965Z" fill="#CBB042"/>
<path fill-rule="evenodd" clip-rule="evenodd" d="M67.524 13.5675C67.5053 13.6623 67.4133 13.7239 67.3185 13.7052C67.2238 13.6864 67.1622 13.5944 67.1809 13.4997C67.1996 13.4049 67.2916 13.3433 67.3864 13.362C67.4811 13.3808 67.5427 13.4728 67.524 13.5675ZM68.2142 13.704C68.1201 14.1799 67.658 14.4894 67.182 14.3953C66.7061 14.3012 66.3966 13.8391 66.4907 13.3632C66.5848 12.8873 67.0469 12.5778 67.5229 12.6719C67.9988 12.766 68.3083 13.2281 68.2142 13.704Z" fill="#CBB042"/>
<path fill-rule="evenodd" clip-rule="evenodd" d="M78.1374 24.1411C78.1136 24.2347 78.0184 24.2913 77.9248 24.2675C77.8312 24.2437 77.7746 24.1486 77.7984 24.055C77.8222 23.9613 77.9174 23.9048 78.011 23.9286C78.1046 23.9524 78.1612 24.0475 78.1374 24.1411ZM78.8192 24.3145C78.6997 24.7847 78.2216 25.0689 77.7514 24.9494C77.2813 24.8298 76.997 24.3518 77.1166 23.8816C77.2361 23.4114 77.7142 23.1272 78.1843 23.2467C78.6545 23.3663 78.9388 23.8443 78.8192 24.3145Z" fill="#CBB042"/>
<path fill-rule="evenodd" clip-rule="evenodd" d="M71.9852 17.2485C72.0249 17.1605 72.1285 17.1213 72.2165 17.1611C72.3046 17.2008 72.3437 17.3044 72.304 17.3924C72.2643 17.4804 72.1607 17.5196 72.0727 17.4799C71.9846 17.4401 71.9455 17.3366 71.9852 17.2485ZM71.3439 16.9592C71.5435 16.517 72.0637 16.3203 72.5059 16.5198C72.9481 16.7193 73.1448 17.2396 72.9453 17.6818C72.7457 18.124 72.2255 18.3207 71.7833 18.1211C71.3411 17.9216 71.1444 17.4014 71.3439 16.9592Z" fill="#A68432"/>
<path d="M35.309 29.6708C35.1499 30.2718 34.5337 30.6299 33.9327 30.4708C33.3318 30.3116 32.9736 29.6955 33.1327 29.0945C33.2919 28.4935 33.9081 28.1354 34.509 28.2945C35.11 28.4536 35.4682 29.0698 35.309 29.6708Z" fill="white"/>
<path d="M54.9404 29.1923C54.7812 29.7932 54.1651 30.1514 53.5641 29.9923C52.9631 29.8331 52.605 29.2169 52.7641 28.616C52.9232 28.015 53.5394 27.6568 54.1404 27.816C54.7414 27.9751 55.0995 28.5913 54.9404 29.1923Z" fill="white"/>
<defs>
<filter id="filter0_d_206_34405" x="20.4849" y="0.132812" width="66.8066" height="67.5776" filterUnits="userSpaceOnUse" color-interpolation-filters="sRGB">
<feFlood flood-opacity="0" result="BackgroundImageFix"/>
<feColorMatrix in="SourceAlpha" type="matrix" values="0 0 0 0 0 0 0 0 0 0 0 0 0 0 0 0 0 0 127 0" result="hardAlpha"/>
<feOffset dy="4"/>
<feGaussianBlur stdDeviation="15"/>
<feComposite in2="hardAlpha" operator="out"/>
<feColorMatrix type="matrix" values="0 0 0 0 0.741176 0 0 0 0 0.992157 0 0 0 0 0.898039 0 0 0 1 0"/>
<feBlend mode="normal" in2="BackgroundImageFix" result="effect1_dropShadow_206_34405"/>
<feBlend mode="normal" in="SourceGraphic" in2="effect1_dropShadow_206_34405" result="shape"/>
</filter>
<filter id="filter1_d_206_34405" x="0.366211" y="0.452637" width="66.8066" height="67.5776" filterUnits="userSpaceOnUse" color-interpolation-filters="sRGB">
<feFlood flood-opacity="0" result="BackgroundImageFix"/>
<feColorMatrix in="SourceAlpha" type="matrix" values="0 0 0 0 0 0 0 0 0 0 0 0 0 0 0 0 0 0 127 0" result="hardAlpha"/>
<feOffset dy="4"/>
<feGaussianBlur stdDeviation="15"/>
<feComposite in2="hardAlpha" operator="out"/>
<feColorMatrix type="matrix" values="0 0 0 0 0.741176 0 0 0 0 0.992157 0 0 0 0 0.898039 0 0 0 1 0"/>
<feBlend mode="normal" in2="BackgroundImageFix" result="effect1_dropShadow_206_34405"/>
<feBlend mode="normal" in="SourceGraphic" in2="effect1_dropShadow_206_34405" result="shape"/>
</filter>
<linearGradient id="paint0_linear_206_34405" x1="16.5411" y1="6.67343" x2="16.9003" y2="41.5152" gradientUnits="userSpaceOnUse">
<stop stop-color="#DBD4B7"/>
<stop offset="1" stop-color="#A6D6A8"/>
</linearGradient>
<linearGradient id="paint1_linear_206_34405" x1="10.6413" y1="19.7351" x2="9.6944" y2="16.3879" gradientUnits="userSpaceOnUse">
<stop stop-color="#CBB042"/>
<stop offset="1" stop-color="#A68432"/>
</linearGradient>
<linearGradient id="paint2_linear_206_34405" x1="10.6413" y1="19.7351" x2="9.6944" y2="16.3879" gradientUnits="userSpaceOnUse">
<stop stop-color="#CBB042"/>
<stop offset="1" stop-color="#A68432"/>
</linearGradient>
<linearGradient id="paint3_linear_206_34405" x1="22.88" y1="10.0484" x2="21.73" y2="6.50733" gradientUnits="userSpaceOnUse">
<stop stop-color="#CBB042"/>
<stop offset="1" stop-color="#A68432"/>
</linearGradient>
<linearGradient id="paint4_linear_206_34405" x1="69.3403" y1="6.1293" x2="69.6995" y2="40.971" gradientUnits="userSpaceOnUse">
<stop stop-color="#DBD4B7"/>
<stop offset="1" stop-color="#A6D6A8"/>
</linearGradient>
<linearGradient id="paint5_linear_206_34405" x1="75.5082" y1="19.0663" x2="76.3859" y2="15.7003" gradientUnits="userSpaceOnUse">
<stop stop-color="#CBB042"/>
<stop offset="1" stop-color="#A68432"/>
</linearGradient>
<linearGradient id="paint6_linear_206_34405" x1="75.5082" y1="19.0663" x2="76.3859" y2="15.7003" gradientUnits="userSpaceOnUse">
<stop stop-color="#CBB042"/>
<stop offset="1" stop-color="#A68432"/>
</linearGradient>
<linearGradient id="paint7_linear_206_34405" x1="63.0723" y1="9.63423" x2="64.149" y2="6.07025" gradientUnits="userSpaceOnUse">
<stop stop-color="#CBB042"/>
<stop offset="1" stop-color="#A68432"/>
</linearGradient>
</defs>
</svg>
