<svg width="141" height="130" viewBox="0 0 141 130" fill="none" xmlns="http://www.w3.org/2000/svg">
<path fill-rule="evenodd" clip-rule="evenodd" d="M131.047 77.9452L131.387 71.3312L138.169 67.3522C139.2 66.7474 139.474 65.3794 138.755 64.4245L95.5874 7.06992C95.0096 6.30222 93.9675 6.05389 93.1056 6.47851L49.3287 28.0446L49.0702 27.7176L48.1256 28.6373L47.9625 28.7177L47.9983 28.7613L8.09361 67.6125C7.35517 68.3314 7.28398 69.4938 7.92917 70.2975L54.1404 127.861C54.8602 128.758 56.1861 128.864 57.0398 128.094L60.3017 125.151L61.11 126.094C61.4891 126.536 62.1645 126.562 62.5764 126.15L62.9674 125.759C63.1574 125.758 63.3518 125.701 63.5286 125.577L130.621 78.7138C130.874 78.537 131.031 78.2534 131.047 77.9452Z" fill="#244556" fill-opacity="0.3"/>
<path d="M47.8113 110.312L57.7894 121.954C58.1685 122.396 58.8439 122.422 59.2558 122.01L72.1442 109.121C72.7929 108.473 72.2987 107.366 71.3827 107.416L48.516 108.663C47.6883 108.708 47.2718 109.683 47.8113 110.312Z" fill="#6F413E"/>
<path d="M127.727 73.8049L128.334 61.9863C128.369 61.3013 127.72 60.7851 127.061 60.9735L87.9693 72.1421C87.758 72.2025 87.5725 72.3308 87.4414 72.5072L58.8331 111.008C58.705 111.18 58.6358 111.389 58.6358 111.604L58.6356 120.617C58.6356 121.426 59.5454 121.9 60.2082 121.437L127.301 74.5734C127.554 74.3967 127.711 74.113 127.727 73.8049Z" fill="#8D514E"/>
<path d="M95.3712 86.3724L44.6417 24.5771L91.0783 5.84359C91.9134 5.50669 92.8707 5.76944 93.4168 6.48545L136.056 62.3898C136.807 63.3745 136.491 64.7983 135.395 65.3737L95.3712 86.3724Z" fill="#BD6F6F"/>
<path d="M53.7202 123.954L95.3718 86.373L45.7507 23.5776L4.77402 63.4725C4.03558 64.1915 3.96439 65.3538 4.60958 66.1575L50.8208 123.721C51.5406 124.618 52.8665 124.724 53.7202 123.954Z" fill="#9D5F5B"/>
<path d="M77.2179 49.9824C73.3624 45.6684 66.9398 44.4436 62.5137 48.17C58.0989 51.8868 58.2229 58.3647 61.7555 62.9283C65.3239 67.5382 71.6922 69.2256 76.4055 65.7949C81.4047 62.156 81.3382 54.5928 77.2179 49.9824Z" fill="#AE6763"/>
<path d="M77.3253 47.874C73.4698 43.56 67.0472 42.3352 62.6211 46.0616C58.2064 49.7784 58.3303 56.2563 61.8629 60.8199C65.4314 65.4298 71.7996 67.1172 76.5129 63.6865C81.5121 60.0476 81.4457 52.4844 77.3253 47.874Z" fill="#CF7D7D"/>
</svg>
