<svg width="121" height="130" viewBox="0 0 121 130" fill="none" xmlns="http://www.w3.org/2000/svg">
<path fill-rule="evenodd" clip-rule="evenodd" d="M-52.2964 83.5954L-19.0884 62.5868C-18.994 62.3653 -18.2549 62.0869 -16.5845 61.7852C-12.3606 60.9584 -3.38411 60.3439 7.71381 59.9315C15.3542 59.6368 24.9869 59.4015 37.0433 59.2763C80.1808 58.8285 92.3112 60.1924 93.1702 60.9907L93.223 60.9572C93.5449 60.9924 95.867 62.7716 102.58 69.6027L102.585 69.5994L102.617 69.621C102.643 69.6386 102.669 69.6568 102.696 69.6754C103.142 69.8076 103.984 70.2028 104.285 70.8977L104.224 70.9367L104.235 70.9468L104.241 70.9426L104.235 70.9475C106.147 72.7387 108.621 75.8037 109.989 79.8563C110.532 79.9233 111.583 80.3051 111.488 81.3054L72.6033 105.916L71.883 105.843L71.8602 105.828L71.8431 105.815L55.118 105.962C55.1045 106.638 54.1628 108.09 50.5358 109.36C49.2616 109.98 47.351 110.362 45.0002 110.384C39.6159 110.433 33.9611 108.569 32.3699 106.221C31.5472 105.008 31.9717 103.902 33.3176 103.11C34.3871 102.365 35.3398 101.862 36.1187 101.532C31.2419 102.345 30.2375 104.833 30.4443 106.215L-8.48371 106.593C-8.46625 107.276 -9.44226 108.834 -13.4525 110.155C-14.7055 110.647 -16.4321 110.945 -18.499 110.964C-23.8833 111.014 -29.5381 109.15 -31.1293 106.802C-31.9734 105.557 -31.5045 104.425 -30.0744 103.629C-28.9863 102.893 -28.0267 102.409 -27.2584 102.102C-31.817 102.848 -33.0051 105.337 -32.9555 106.756L-48.3521 106.928L-48.3588 106.921L-48.3822 106.936C-48.9235 106.871 -49.9822 106.49 -49.8868 105.486L-49.8436 105.459C-53.5785 101.351 -55.1385 98.6632 -55.6467 97.2051L-55.9079 97.2091C-56.1313 96.9161 -56.4872 96.2001 -56.1236 95.6802C-56.1218 95.6776 -56.118 95.675 -56.1122 95.6723C-56.4704 95.0613 -56.8772 94.1878 -57.2383 93.2205C-58.4753 90.3093 -58.4282 88.4839 -58.0828 87.5768C-58.0381 87.4404 -57.983 87.3148 -57.9168 87.2016C-57.8418 87.0737 -57.6699 86.9493 -57.4068 86.8284L-57.155 86.6691L-57.1589 86.6691L-52.2964 83.5954ZM71.3448 104.23C71.351 104.221 71.3572 104.213 71.3635 104.205C71.1153 103.571 70.8093 102.864 70.4462 102.121C70.8051 102.873 71.1048 103.588 71.3448 104.23ZM65.643 95.3684C65.6725 95.395 65.7018 95.4218 65.731 95.4488L65.6881 95.4085L65.645 95.3683L65.643 95.3684Z" fill="#244556" fill-opacity="0.4"/>
<path d="M21.2543 77.3414C21.3217 69.1964 15.542 65.5694 12.3597 64.6104C11.9355 64.4437 10.51 64.5786 8.20135 66.4525L16.2547 81.1047C19.7157 80.5654 21.0299 78.3711 21.2543 77.3414Z" fill="#4E1A1B"/>
<path d="M61.8227 97.0069C61.89 88.8619 56.1104 85.235 52.9281 84.276C52.5039 84.1092 51.0783 84.2441 48.7697 86.118L56.823 100.77C60.284 100.231 61.5982 98.0366 61.8227 97.0069Z" fill="#4E1A1B"/>
<ellipse cx="7.11346" cy="7.1913" rx="7.11346" ry="7.1913" transform="matrix(-0.873498 -0.426348 0.0237693 0.997213 59.5312 89.0176)" fill="#672628"/>
<ellipse cx="7.11345" cy="7.1913" rx="7.11345" ry="7.1913" transform="matrix(-0.873498 -0.426348 0.0237693 0.997213 19.0601 69.2639)" fill="#672628"/>
<ellipse cx="3.89397" cy="3.93658" rx="3.89397" ry="3.93658" transform="matrix(-0.873498 -0.426348 0.0237693 0.997213 56.8296 90.8896)" fill="#8D3E41"/>
<ellipse cx="3.89397" cy="3.93658" rx="3.89397" ry="3.93658" transform="matrix(-0.873499 -0.426348 0.0237693 0.997213 16.2979 71.1702)" fill="#8D3E41"/>
<path d="M29.7245 41.8448L-4.18285 64.967C-4.50059 64.696 -5.02326 63.7936 -4.57202 62.3522L29.6536 38.8701L30.0819 39.21C30.4498 40.5396 29.9969 41.5206 29.7245 41.8448Z" fill="#FFF3DB"/>
<path d="M-4.6142 45.9364L71.9893 82.4177C73.7698 88.1625 73.0493 98.1583 72.4642 102.344L60.7009 96.5908C60.6712 94.0382 59.306 88.2181 54.0831 85.358C48.8601 82.4979 46.5563 86.9203 46.0572 89.489L20.2171 76.9145C20.1294 74.5406 18.721 68.9957 13.789 65.8065C8.85709 62.6173 6.31759 67.0799 5.66433 69.7098L-4.16063 64.9651C-5.69713 53.785 -5.10321 47.6209 -4.6142 45.9364Z" fill="#772B2D"/>
<path d="M72.5099 102.292L106.415 79.0756C107.865 69.4052 106.766 61.7882 106.034 59.1885L72.0372 82.4607C73.7076 88.2912 73.0483 98.1111 72.5099 102.292Z" fill="#AA4245"/>
<path d="M71.9903 82.4649L106.035 59.2357C104.436 47.0012 103.655 43.63 103.465 43.4737L69.378 66.8959C69.7675 69.1321 71.3125 78.1885 71.9903 82.4649Z" fill="#C46467"/>
<path d="M-4.69078 46.6529L72.1479 83.2077C71.7086 79.793 70.2795 71.4234 69.4278 67.0333C68.3632 61.5456 0.644254 27.5752 -2.54332 32.9259C-3.98646 35.3483 -4.78712 43.9171 -4.69078 46.6529Z" fill="#AB5052"/>
<path d="M31.636 9.44796L-1.85543 32.3907L69.3781 66.8958L103.422 43.6194C103.579 42.3907 96.8181 36.5021 68.5133 22.7776C40.2085 9.05318 32.1347 8.17266 31.636 9.44796Z" fill="#CD6F72"/>
<path d="M106.606 61.6447C106.69 60.4636 106.261 59.578 106.036 59.2828L71.9891 82.4176C46.6039 69.9913 -4.27474 45.2999 -4.70761 45.9446C-5.14048 46.5894 -5.19362 47.7551 -5.1661 48.2573L72.6112 85.0113L106.606 61.6447Z" fill="#9A4548"/>
<path d="M33.7175 45.8379C59.4971 58.6166 68.2173 65.2023 69.3783 66.8957L-1.80754 32.4336C2.4209 31.1814 23.6377 40.8481 33.7175 45.8379Z" fill="#9E4245"/>
<path d="M106.73 76.6338L72.8229 99.756C72.5504 100.08 72.0976 101.061 72.4654 102.391L72.8938 102.731L107.119 79.2486C107.571 77.8072 107.048 76.9048 106.73 76.6338Z" fill="#CE676A"/>
<path d="M69.9681 79.9028L68.2379 68.0398L51.2854 60.0579L51.5498 71.1541L69.9681 79.9028Z" fill="#843134"/>
<path d="M49.6114 70.1459L49.3503 59.1914L22.3296 46.0609L22.602 57.4876L49.6114 70.1459Z" fill="#843134"/>
<path d="M20.5779 45.036L20.8559 56.6988L-3.32537 45.1576C-3.1048 38.7402 -2.09472 35.4093 -1.61725 34.546L20.5779 45.036Z" fill="#843134"/>
<path d="M73.0476 79.8142L71.1709 67.6805L86.788 56.8552L88.7658 69.311L73.0476 79.8142Z" fill="#843134"/>
<path d="M90.1937 68.4724L88.0284 55.9862L102.823 45.8975L104.707 58.3618L90.1937 68.4724Z" fill="#843134"/>
<path d="M92.8555 86.1189C96.372 73.8015 103.458 64.7047 106.561 61.696C99.1399 66.9082 93.924 78.0571 92.18 83.246C84.6766 78.7367 75.9966 82.7185 72.6582 85.0071C80.1755 80.6948 89.2553 83.9515 92.8555 86.1189Z" fill="#CA5F62"/>
<ellipse cx="2.81023" cy="2.84098" rx="2.81023" ry="2.84098" transform="matrix(-0.849469 0.581778 0.0237694 0.997213 82.2974 85.8884)" fill="#F29497"/>
<ellipse cx="2.81023" cy="2.84098" rx="2.81023" ry="2.84098" transform="matrix(-0.849469 0.581778 0.0237694 0.997213 104.996 70.4968)" fill="#F29497"/>
<path d="M81.7774 87.3709C81.792 87.3803 81.8062 87.3895 81.8199 87.3985C81.8058 87.389 81.7916 87.3798 81.7774 87.3709C81.2724 87.0433 80.2867 86.4168 80.0667 86.3263C79.7838 86.2099 78.1963 86.2111 76.8582 88.8398C75.7878 90.9427 76.473 92.2657 76.9494 92.6644L78.2545 93.443C78.3263 93.4985 78.3978 93.54 78.4651 93.5687L78.2545 93.443C77.7388 93.0447 77.2089 91.9284 78.1398 89.7178C78.7594 88.553 80.3459 86.4721 81.7774 87.3709Z" fill="#672628"/>
<path d="M104.523 71.9932C104.538 72.0027 104.552 72.0118 104.565 72.0208C104.551 72.0113 104.537 72.0021 104.523 71.9932C104.018 71.6656 103.032 71.0392 102.812 70.9486C102.529 70.8322 100.942 70.8334 99.6038 73.4621C98.5334 75.565 99.2186 76.888 99.695 77.2867L101 78.0653C101.072 78.1208 101.143 78.1624 101.211 78.191L101 78.0653C100.484 77.667 99.9545 76.5507 100.885 74.3402C101.505 73.1754 103.092 71.0944 104.523 71.9932Z" fill="#672628"/>
<path d="M82.6609 91.3445C83.5022 89.4232 82.3579 87.7756 81.8197 87.3983C78.335 88.5076 78.1468 91.9726 78.465 93.5685C79.5903 93.7667 81.714 93.507 82.6609 91.3445Z" fill="#F29497"/>
<path d="M105.259 75.9146C106.1 73.9933 104.956 72.3457 104.418 71.9684C100.933 73.0777 100.745 76.5427 101.063 78.1386C102.188 78.3368 104.312 78.0771 105.259 75.9146Z" fill="#F29497"/>
<path d="M51.994 78.0226L55.6243 79.4932L55.3184 80.3726L52.0075 78.5892L51.994 78.0226Z" fill="#974649"/>
<path d="M22.7201 64.3856L26.3504 65.8563L26.0445 66.7356L22.7336 64.9523L22.7201 64.3856Z" fill="#974649"/>
<ellipse cx="0.793305" cy="0.804945" rx="0.793305" ry="0.804945" transform="matrix(-0.998424 0.0900681 0.0237693 0.997213 56.5493 79.126)" fill="#974649"/>
<ellipse cx="0.793305" cy="0.804945" rx="0.793305" ry="0.804945" transform="matrix(-0.998424 0.0900681 0.0237693 0.997213 27.2754 65.4888)" fill="#974649"/>
</svg>
