<svg width="416" height="263" viewBox="0 0 416 263" fill="none" xmlns="http://www.w3.org/2000/svg">
<path d="M147.977 126.494C156.864 134.866 201.918 137.866 223.334 138.319C240.697 132.721 274.657 117.941 271.593 103.611C267.763 85.6994 238.804 79.5168 238.391 73.1209C237.978 66.725 219.591 63.7067 212.516 59.143C205.44 54.5792 195.483 45.8002 199.797 26.7754C203.248 11.5556 199.545 8.06722 197.262 8.22551L5.31653 74.0886C14.0365 73.8189 24.7543 84.7983 34.9973 88.9293C45.2404 93.0603 60.2944 91.9251 74.0136 97.8856C87.7327 103.846 88.084 109.79 103.509 111.369C118.934 112.948 136.868 116.028 147.977 126.494Z" fill="url(#paint0_linear_208_75688)"/>
<path d="M287.451 191.349V179.62L173.504 108.283L169.435 116.582L287.451 191.349Z" fill="#DCDCDC"/>
<path d="M287.45 191.27V179.62L401.477 151.053L406.504 161.028L287.45 191.27Z" fill="#F3F3F3"/>
<path d="M287.45 179.62L173.504 108.284L287.45 79.7173L401.397 150.974L287.45 179.62Z" fill="#E9E9E9"/>
<path d="M287.531 161.028V148.66L358.708 129.828V142.196L287.531 161.028Z" fill="#F3F3F3"/>
<path d="M287.531 148.66V161.028L216.274 116.263V103.815L287.531 148.66Z" fill="#DCDCDC"/>
<path d="M292.718 132.222L287.531 148.66L216.274 103.815L228.483 91.8463L292.718 132.222Z" fill="#E6E6E6"/>
<path d="M358.628 129.828L287.531 148.66L292.718 132.222L337.642 120.253L358.628 129.828Z" fill="#EAEAEA"/>
<path d="M292.718 132.222L228.483 91.8462L274.285 80.5154L337.642 120.253L292.718 132.222Z" fill="#E4E4E4"/>
<path d="M319.209 140.281L333.492 136.531V138.127V140.082V142.037L319.209 145.867V143.872V141.877V140.281Z" fill="#D8D8D8"/>
<path d="M243.883 121.21L258.166 130.227V132.222V134.057V135.892L243.883 127.035V125.08V123.125V121.21Z" fill="#BDBDBD"/>
<path d="M251.703 98.549L246.676 103.257L274.923 120.971L278.434 115.306L251.703 98.549Z" fill="#DCDCDC"/>
<path d="M278.435 115.305L274.924 120.971L320.088 109.241L314.502 105.73L278.435 115.305Z" fill="#F5F5F5"/>
<path d="M337.642 120.253L358.708 129.828L287.691 84.9041L274.285 80.5154L337.642 120.253Z" fill="#D9D9D9"/>
<path d="M270.694 101.182L278.434 115.306L314.502 105.73L318.491 89.7715L270.694 101.182Z" fill="#F5F5F5"/>
<path d="M251.703 98.5491L278.354 115.226L270.694 101.182L240.372 83.3882L251.703 98.5491Z" fill="#EDEDED"/>
<path d="M252.984 97.7275L248.274 91.3561C247.836 90.7628 248.53 89.9964 249.164 90.374L269.025 102.208C269.126 102.268 269.209 102.353 269.267 102.454L272.804 108.673C273.15 109.282 272.453 109.952 271.858 109.58L253.169 97.8989C253.097 97.8539 253.034 97.7957 252.984 97.7275Z" fill="url(#paint1_linear_208_75688)" fill-opacity="0.88"/>
<path d="M270.774 101.262C260.741 95.3155 240.705 83.5445 240.221 83.3104C240.216 83.3098 240.214 83.3089 240.213 83.3079C240.211 83.3059 240.213 83.3068 240.221 83.3104C240.778 83.392 267.637 80.7172 280.987 79.3979L270.774 101.262Z" fill="#EEEEEE"/>
<path d="M280.988 79.3979L270.774 101.182L318.492 89.7712L280.988 79.3979Z" fill="#F5F5F5"/>
<path d="M280.987 79.4218L287.53 72.1368L318.491 89.7714L280.987 79.4218Z" fill="#F5F5F5"/>
<path d="M287.451 72.2166L240.213 83.3878L280.988 79.3981L287.451 72.2166Z" fill="#EBEBEB"/>
<path d="M279.22 112.606L274.225 103.39C274.014 103 274.229 102.516 274.66 102.412L314.61 92.7478C315.104 92.6282 315.549 93.0773 315.424 93.5705L312.765 104.066C312.704 104.305 312.518 104.492 312.28 104.554L279.984 112.938C279.683 113.017 279.368 112.88 279.22 112.606Z" fill="url(#paint2_linear_208_75688)"/>
<path d="M279.631 79.4775V25.9354L281.307 25.5364L282.344 25.9354V79.7169L280.668 80.0944L279.631 79.4775Z" fill="#F5F5F5"/>
<path d="M283.671 32.3191L284.898 32.6754V33.2692L278.151 34.8725L277.078 34.4569V33.8037L283.671 32.3191Z" fill="#F5F5F5"/>
<path d="M283.671 38.7027L284.898 39.059V39.6528L278.151 41.2561L277.078 40.8404V40.1872L283.671 38.7027Z" fill="#F5F5F5"/>
<path d="M283.671 44.9269L284.898 45.2832V45.877L278.151 47.4803L277.078 47.0646V46.4114L283.671 44.9269Z" fill="#F5F5F5"/>
<path d="M290.371 50.9912L291.441 51.3702V51.7492L282.314 54.0234L281.387 53.518V53.139L290.371 50.9912Z" fill="#F5F5F5"/>
<path d="M279.631 65.8328L280.589 66.2007V66.5685L271.317 68.7054L270.375 68.285V67.9172L279.631 65.8328Z" fill="#F5F5F5"/>
<path d="M285.172 24.6589L286.175 25.0379V25.417L276.468 27.6911L275.482 27.1857V26.8067L285.172 24.6589Z" fill="#F5F5F5"/>
<path d="M288.488 57.5345L289.526 57.8848V58.5094L273.279 62.3222L272.29 61.8551V61.2712L288.488 57.5345Z" fill="#F5F5F5"/>
<path d="M290.962 51.2304V49.3951L286.175 48.1184L296.149 50.7516" stroke="#B1B1B1" stroke-width="0.675694"/>
<path d="M270.934 68.147V66.3117L275.722 65.035L265.747 67.6682" stroke="#B1B1B1" stroke-width="0.675694"/>
<path d="M277.557 40.379L256.172 92.6444" stroke="black" stroke-width="0.337847"/>
<path d="M284.26 38.8625L302.692 80.7547" stroke="black" stroke-width="0.337847"/>
<path d="M292.717 132.222V128.392" stroke="#BBBBBB" stroke-width="0.675694"/>
<path d="M320.087 109.241V105.411M320.087 105.411L337.721 116.582M320.087 105.411L315.299 102.379M337.721 116.582V120.288M337.721 116.582L292.717 128.392M317.134 125.679V121.984M292.76 128.381L276.599 118.338L228.562 88.0955" stroke="#BBBBBB" stroke-width="0.675694"/>
<path d="M284.1 122.966V126.876" stroke="#BBBBBB" stroke-width="0.675694"/>
<path d="M305.325 125.04V128.95" stroke="#BBBBBB" stroke-width="0.675694"/>
<path d="M328.306 118.976V122.806" stroke="#BBBBBB" stroke-width="0.675694"/>
<path d="M328.306 110.678V114.348" stroke="#BBBBBB" stroke-width="0.675694"/>
<path d="M276.599 118.338V122.168" stroke="#BBBBBB" stroke-width="0.675694"/>
<path d="M246.756 99.5061V103.177" stroke="#BBBBBB" stroke-width="0.675694"/>
<path d="M264.948 110.997V114.667" stroke="#BBBBBB" stroke-width="0.675694"/>
<path d="M237.34 93.6016V97.4318" stroke="#BBBBBB" stroke-width="0.675694"/>
<path d="M255.533 105.092V108.922" stroke="#BBBBBB" stroke-width="0.675694"/>
<path d="M239.096 85.4623V89.2924" stroke="#BBBBBB" stroke-width="0.675694"/>
<path d="M228.643 88.0954L241.41 84.9036" stroke="#BBBBBB" stroke-width="0.675694"/>
<path d="M228.562 88.0159V91.8461" stroke="#BBBBBB" stroke-width="0.675694"/>
<path d="M287.451 214.171V191.27L406.505 161.028L415.681 179.62L287.451 214.171Z" fill="#888888"/>
<path d="M287.451 226.3V214.171L415.681 179.62V193.185L287.451 226.3Z" fill="#395995"/>
<path d="M287.451 231.486V226.3L415.681 193.185V197.733L287.451 231.486Z" fill="#354C79"/>
<path d="M287.451 233.72V231.486L415.681 197.733V199.728L287.451 233.72Z" fill="#2B2B2B"/>
<path d="M394.855 182.812H403.871L304.687 209.543L303.649 206.989L394.855 182.812Z" fill="#6F6F6F"/>
<path d="M394.854 182.812V163.98L403.871 182.812H394.854Z" fill="#737272"/>
<path d="M298.144 192.002V193.337C298.144 193.448 298.165 193.557 298.207 193.659L302.488 204.067C302.65 204.46 303.08 204.672 303.49 204.56L319.224 200.296C319.592 200.196 319.848 199.862 319.848 199.481V186.778C319.848 186.225 319.325 185.821 318.79 185.961L298.775 191.185C298.403 191.282 298.144 191.618 298.144 192.002Z" fill="url(#paint3_linear_208_75688)" fill-opacity="0.88" stroke="#414141" stroke-width="0.168923"/>
<path d="M322.721 198.392V185.622C322.721 185.236 322.982 184.899 323.357 184.804L348.877 178.293C349.411 178.156 349.931 178.56 349.931 179.111V191.656C349.931 192.04 349.672 192.375 349.302 192.473L323.781 199.209C323.245 199.35 322.721 198.946 322.721 198.392Z" fill="url(#paint4_linear_208_75688)" fill-opacity="0.88" stroke="#414141" stroke-width="0.168923"/>
<path d="M352.403 190.486V177.958C352.403 177.574 352.662 177.238 353.034 177.141L378.475 170.481C379.01 170.341 379.533 170.745 379.533 171.298V183.602C379.533 183.983 379.278 184.317 378.909 184.417L353.469 191.301C352.932 191.446 352.403 191.042 352.403 190.486Z" fill="url(#paint5_linear_208_75688)" fill-opacity="0.88" stroke="#414141" stroke-width="0.168923"/>
<path d="M382.087 182.421V170.141C382.087 169.756 382.348 169.419 382.722 169.323L393.8 166.484C394.334 166.347 394.854 166.751 394.854 167.303V179.375C394.854 179.755 394.6 180.088 394.233 180.189L383.155 183.236C382.618 183.384 382.087 182.979 382.087 182.421Z" fill="url(#paint6_linear_208_75688)" fill-opacity="0.88" stroke="#414141" stroke-width="0.168923"/>
<path d="M305.325 233.8L299.341 230.529L405.228 202.361L400.919 208.106L305.325 233.8Z" fill="#2E4776"/>
<path d="M294.792 231.726L305.325 233.8L299.34 230.529L294.792 231.726Z" fill="#243255"/>
<path d="M415.681 184.248C373.996 201.994 312.826 214.091 287.451 217.921V220.794C358.053 206.559 402.355 192.414 415.681 187.121V184.248Z" fill="#EAB970"/>
<path d="M415.681 179.62L287.451 214.171V217.921C353.393 207.388 400.414 191.084 415.681 184.248V179.62Z" fill="#7A7A7A"/>
<path d="M179.729 151.692L270.056 210.661V204.038L278.753 185.844L179.729 123.126V151.692Z" fill="#666666"/>
<path d="M188.665 157.517V128.791L202.948 137.808V166.853L188.665 157.517Z" fill="#656565" stroke="black" stroke-width="0.168923"/>
<path d="M245.16 194.382V164.619L259.443 173.635V203.718L245.16 194.382Z" fill="#656565" stroke="black" stroke-width="0.168923"/>
<path d="M171.59 155.283L179.729 151.692L270.056 210.66V220.076L171.59 155.283Z" fill="#949494"/>
<path d="M175.819 166.454L171.749 157.597L270.215 222.31L263.513 224.944L175.819 166.454Z" fill="#2E4776"/>
<path d="M273.806 224.704L263.513 224.943L270.215 222.31L273.806 224.704Z" fill="#243255"/>
<path d="M270.056 205.314V206.99L179.729 148.261V146.904C224.158 166.247 258.459 193.903 270.056 205.314Z" fill="#CA9F5F"/>
<path d="M270.056 206.99V210.66L179.729 151.692V148.181C220.456 166.821 256.916 195.153 270.056 206.99Z" fill="#35538C"/>
<path d="M270.056 210.66C256.198 197.6 218.732 167.523 179.729 151.692L270.056 210.66Z" fill="#DCDCDC"/>
<path d="M179.728 123.125L169.435 116.582L160.737 133.977L171.589 140.201L179.728 123.125Z" fill="#767676"/>
<path d="M160.737 133.978V148.181L171.589 155.283V140.202L160.737 133.978Z" fill="#6F6F6F"/>
<path d="M179.729 151.692V123.126L171.59 140.202V155.283L179.729 151.692Z" fill="#5C5C5C"/>
<path d="M171.59 150.415L179.729 146.984V148.261L171.59 151.692V150.415Z" fill="#A07E4B"/>
<path d="M179.729 148.261V151.692L171.59 155.283V151.692L179.729 148.261Z" fill="#2A3F68"/>
<path d="M171.589 155.283L160.737 148.181V144.75C163.738 147.495 169.222 150.522 171.589 151.692V155.283Z" fill="#334F85"/>
<path d="M171.35 150.654L178.172 154.97M207.895 174.433L199.357 168.858M199.357 168.858V173.874M199.357 168.858L191.551 163.741M191.551 163.741V168.768M191.551 163.741L184.755 159.285M184.755 159.285V164.219M184.755 159.285L178.172 154.97M178.172 154.97V159.99" stroke="#6B6B6B" stroke-width="0.675694"/>
<path d="M160.737 143.872L171.589 150.415V151.692C165.908 148.883 161.987 145.893 160.737 144.75V143.872Z" fill="#CA9F5F"/>
<path d="M207.497 162.704L215.796 145.947L234.388 157.756L226.329 174.354L207.497 162.704Z" fill="#767676"/>
<path d="M226.328 174.274L234.387 157.756V187.44L226.328 191.27V174.274Z" fill="#5C5C5C"/>
<path d="M226.329 174.354V191.27L207.497 178.902V162.704L226.329 174.354Z" fill="#6F6F6F"/>
<path d="M226.328 191.27L234.387 187.44V182.333L226.328 185.924V191.27Z" fill="#ACACAC"/>
<path d="M226.328 185.924L234.387 182.333V179.62L226.328 183.211V185.924Z" fill="#2A3F68"/>
<path d="M226.328 183.211L234.387 179.62V177.226L226.328 180.737V183.211Z" fill="#A07E4B"/>
<path d="M270.455 215.448L261.358 209.511M225.85 186.243L233.909 191.528M233.909 191.528V196.616M233.909 191.528L243.325 197.697M243.325 197.697V202.521M243.325 197.697L252.661 203.813M252.661 203.813V208.905M252.661 203.813L261.358 209.511M261.358 209.511V214.49" stroke="#6B6B6B" stroke-width="0.675694"/>
<path d="M207.497 173.795C215.157 176.348 223.243 182.945 226.329 185.924V191.27L207.497 178.902V173.795Z" fill="#DCDCDC"/>
<path d="M226.329 183.211V185.924C218.221 178.328 210.396 174.673 207.497 173.795V171.162L226.329 183.211Z" fill="#334F85"/>
<path d="M207.497 171.161L226.329 183.21V180.737L207.497 168.847V171.161Z" fill="#CA9F5F"/>
<path d="M160.737 150.416L287.451 233.721V231.327L160.737 148.022V150.416Z" fill="#2B2B2B"/>
<path d="M246.276 181.282V167.161C246.276 167.028 246.424 166.947 246.536 167.019L250.826 169.756C250.875 169.787 250.904 169.84 250.904 169.898V183.944C250.904 184.077 250.759 184.158 250.646 184.088L246.356 181.425C246.307 181.394 246.276 181.34 246.276 181.282Z" fill="url(#paint7_linear_208_75688)" fill-opacity="0.88" stroke="#414141" stroke-width="0.168923"/>
<path d="M189.782 145.534V131.413C189.782 131.28 189.93 131.199 190.042 131.271L194.332 134.008C194.381 134.039 194.41 134.092 194.41 134.15V148.197C194.41 148.329 194.265 148.41 194.152 148.34L189.862 145.677C189.812 145.647 189.782 145.592 189.782 145.534Z" fill="url(#paint8_linear_208_75688)" fill-opacity="0.88" stroke="#414141" stroke-width="0.168923"/>
<path d="M253.458 185.91V171.789C253.458 171.656 253.605 171.575 253.718 171.647L258.008 174.384C258.057 174.415 258.086 174.469 258.086 174.526V188.573C258.086 188.705 257.941 188.786 257.828 188.716L253.538 186.053C253.488 186.023 253.458 185.968 253.458 185.91Z" fill="url(#paint9_linear_208_75688)" fill-opacity="0.88" stroke="#414141" stroke-width="0.168923"/>
<path d="M196.964 150.162V136.041C196.964 135.908 197.111 135.827 197.224 135.899L201.514 138.636C201.563 138.667 201.592 138.72 201.592 138.778V152.825C201.592 152.957 201.446 153.038 201.334 152.968L197.044 150.305C196.994 150.274 196.964 150.22 196.964 150.162Z" fill="url(#paint10_linear_208_75688)" fill-opacity="0.88" stroke="#414141" stroke-width="0.168923"/>
<path d="M252.182 169.087V199.01" stroke="#414141" stroke-width="0.168923"/>
<path d="M195.687 133.18V162.065" stroke="#414141" stroke-width="0.168923"/>
<path d="M188.665 157.517V128.791L202.948 137.808V166.853L188.665 157.517Z" stroke="#414141" stroke-width="0.168923"/>
<path d="M245.159 194.382V164.619L259.442 173.635V203.718L245.159 194.382Z" stroke="#414141" stroke-width="0.168923"/>
<path d="M287.451 231.486V214.091L270.056 204.037V220.076L287.451 231.486Z" fill="#334F85"/>
<path d="M287.451 214.091V191.35L278.753 185.844L270.056 204.037L287.451 214.091Z" fill="#767676"/>
<path d="M270.056 204.037L287.451 214.011V217.921C280.365 215.049 272.902 210.075 270.056 207.947V204.037Z" fill="#6F6F6F"/>
<path d="M270.056 207.947C277.907 213.628 284.924 216.964 287.451 217.921V220.794C277.237 215.879 271.598 212.043 270.056 210.74V207.947Z" fill="#CA9F5F"/>
<path d="M291.61 235.146C293.419 235.403 295.291 236.155 298.172 235.709C299.933 235.437 303.954 236.18 306.515 234.773C309.717 233.014 309.756 234.034 313.618 233.476C317.479 232.917 317.699 233.318 322.141 231.919C326.583 230.521 325.782 230.961 328.804 229.822C331.825 228.683 334.266 228.384 339.728 226.946C345.19 225.508 344.83 226.748 348.471 225.789C352.113 224.831 355.495 222.452 359.756 221.673C364.018 220.895 363.437 221.735 368.28 220.117C373.122 218.499 387.468 214.264 393.95 212.787C400.433 211.309 400.213 210.909 404.756 206.85C409.299 202.791 409.559 204.211 407.078 203.49C404.198 202.988 400.714 208.028 397.073 208.987C393.431 209.946 390.371 210.064 386.689 210.002C383.008 209.941 379.367 210.899 372.963 214.417C366.56 217.936 365.861 215.715 359.339 216.172C352.817 216.629 351.656 218.309 348.273 220.688C344.891 223.067 340.37 222.425 336.109 223.203C331.847 223.981 324.824 227.319 322.422 228.638C320.021 229.958 313.42 228.374 310.179 229.113C306.937 229.852 302.755 232.671 300.274 231.949C297.794 231.228 289.35 234.825 291.61 235.146Z" fill="url(#paint11_linear_208_75688)"/>
<path d="M269.227 227.235C267.435 226.884 265.419 226.98 262.844 225.613C261.271 224.778 257.229 224.16 255.271 221.99C252.824 219.278 252.452 220.229 248.988 218.434C245.524 216.639 245.185 216.945 241.448 214.166C237.711 211.387 238.323 212.065 235.843 209.997C233.362 207.93 231.155 206.846 226.467 203.695C221.78 200.543 221.713 201.833 218.588 199.733C215.463 197.632 213.05 194.274 209.28 192.14C205.51 190.006 205.782 190.99 201.74 187.872C197.697 184.754 185.536 176.045 179.897 172.521C174.259 168.998 174.598 168.692 171.639 163.367C168.68 158.041 167.969 159.298 170.548 159.431C173.434 159.903 175.07 165.807 178.195 167.907C181.32 170.008 184.173 171.125 187.67 172.275C191.167 173.425 194.292 175.526 199.186 180.951C204.08 186.376 205.469 184.508 211.48 187.08C217.491 189.653 218.036 191.621 220.45 194.979C222.863 198.336 227.345 199.213 231.115 201.347C234.885 203.481 240.424 208.94 242.259 210.974C244.094 213.009 250.849 213.68 253.668 215.441C256.487 217.203 259.513 221.239 262.093 221.372C264.672 221.504 271.468 227.674 269.227 227.235Z" fill="url(#paint12_linear_208_75688)"/>
<defs>
<linearGradient id="paint0_linear_208_75688" x1="107.312" y1="27.8903" x2="146.658" y2="148.796" gradientUnits="userSpaceOnUse">
<stop offset="0.152124" stop-color="#E9E9E9" stop-opacity="0"/>
<stop offset="0.979167" stop-color="white"/>
</linearGradient>
<linearGradient id="paint1_linear_208_75688" x1="267.902" y1="96.8733" x2="260.8" y2="109.96" gradientUnits="userSpaceOnUse">
<stop offset="0.221242"/>
<stop offset="1" stop-color="#77FFFF" stop-opacity="0"/>
</linearGradient>
<linearGradient id="paint2_linear_208_75688" x1="291.202" y1="98.07" x2="294.753" y2="113.071" gradientUnits="userSpaceOnUse">
<stop stop-color="#2C2C2C"/>
<stop offset="1" stop-color="#86F8FF" stop-opacity="0"/>
</linearGradient>
<linearGradient id="paint3_linear_208_75688" x1="308.996" y1="185.684" x2="308.996" y2="204.755" gradientUnits="userSpaceOnUse">
<stop/>
<stop offset="1" stop-color="#383838" stop-opacity="0"/>
</linearGradient>
<linearGradient id="paint4_linear_208_75688" x1="336.326" y1="178.024" x2="336.326" y2="199.489" gradientUnits="userSpaceOnUse">
<stop/>
<stop offset="1" stop-color="#383838" stop-opacity="0"/>
</linearGradient>
<linearGradient id="paint5_linear_208_75688" x1="365.968" y1="170.204" x2="365.968" y2="191.589" gradientUnits="userSpaceOnUse">
<stop/>
<stop offset="1" stop-color="#383838" stop-opacity="0"/>
</linearGradient>
<linearGradient id="paint6_linear_208_75688" x1="388.47" y1="166.214" x2="388.47" y2="183.53" gradientUnits="userSpaceOnUse">
<stop/>
<stop offset="1" stop-color="#383838" stop-opacity="0"/>
</linearGradient>
<linearGradient id="paint7_linear_208_75688" x1="248.59" y1="166.853" x2="248.59" y2="180.338" gradientUnits="userSpaceOnUse">
<stop offset="0.0677083"/>
<stop offset="1" stop-color="#383838" stop-opacity="0"/>
</linearGradient>
<linearGradient id="paint8_linear_208_75688" x1="192.096" y1="131.105" x2="192.096" y2="144.59" gradientUnits="userSpaceOnUse">
<stop offset="0.0677083"/>
<stop offset="1" stop-color="#383838" stop-opacity="0"/>
</linearGradient>
<linearGradient id="paint9_linear_208_75688" x1="255.772" y1="171.481" x2="255.772" y2="184.967" gradientUnits="userSpaceOnUse">
<stop offset="0.0677083"/>
<stop offset="1" stop-color="#383838" stop-opacity="0"/>
</linearGradient>
<linearGradient id="paint10_linear_208_75688" x1="199.278" y1="135.733" x2="199.278" y2="149.218" gradientUnits="userSpaceOnUse">
<stop offset="0.0677083"/>
<stop offset="1" stop-color="#383838" stop-opacity="0"/>
</linearGradient>
<linearGradient id="paint11_linear_208_75688" x1="353.072" y1="214.123" x2="357.937" y2="233.947" gradientUnits="userSpaceOnUse">
<stop stop-color="white"/>
<stop offset="1" stop-color="white" stop-opacity="0"/>
</linearGradient>
<linearGradient id="paint12_linear_208_75688" x1="218.072" y1="187.202" x2="206.969" y2="204.331" gradientUnits="userSpaceOnUse">
<stop stop-color="white"/>
<stop offset="1" stop-color="white" stop-opacity="0"/>
</linearGradient>
</defs>
</svg>
