<svg width="1440" height="900" viewBox="0 0 1440 900" fill="none" xmlns="http://www.w3.org/2000/svg">
<path d="M648.813 238.415V217.07L635.197 212.286C654.922 206.397 670.649 208.36 676.047 210.077L712.48 222.248V200.877C705.856 198.669 688.237 192.144 676.047 188.39C663.532 184.536 647.955 187.628 640.717 189.469C619.225 193.59 614.097 199.773 614.22 202.349V223.694C614.22 226.344 617.9 227.987 619.74 228.478L648.813 238.415Z" fill="#647B8A"/>
<path d="M382 187.462V166.308L582.936 234.39V255.735L382 187.462Z" fill="#6A8394"/>
<path d="M420.5 186.938V198.938C416.5 199.771 417.5 215.938 416.5 222.938C429.833 228.938 442.4 233.738 464 226.938L491 213.938L470.262 229.938C464.762 231.438 445.762 236.438 433.262 239.438C420.529 242.494 405.737 243.854 398.499 242.014C377.007 237.893 371.879 231.71 372.002 229.134V207.789C372.002 205.139 375.682 203.495 377.522 203.005L394.5 192.438L420.5 186.938Z" fill="#607685"/>
<path d="M497.925 225.683V204.706L443.458 185.938L416.52 197.411C412.104 198.588 411.5 202.18 411 202.938V221.695C411 223.756 413.133 225.285 413.944 226.111C415.5 227.695 427 233.195 435.73 234.516C450.349 236.727 461.368 235.865 465.171 234.516L497.925 225.683Z" fill="#748FA1"/>
<path d="M649.179 238.439V217.094L582.568 234.391V255.735L649.179 238.439Z" fill="#4B6578"/>
<path d="M764 208.629V187.652L712.478 200.901V222.246L764 208.629Z" fill="#4B6578"/>
<path d="M561.592 119.938L382 166.307L441 186.438L424 191.438C416 193.438 402.62 203.946 418 210.938C434.5 218.438 456.5 218.938 469 215.438L498 206.438L582.936 234.39L649.179 217.094L618.266 206.421C613.236 203.968 610.17 197.294 638.139 190.228C644.763 188.266 661.176 185.076 673.836 188.02C674.818 188.266 677.884 189.124 682.301 190.596C686.717 192.069 704.259 198.079 712.478 200.901L764 187.652L561.592 119.938Z" fill="#89ABC2"/>
<path d="M521.666 250.937V272.282L535.283 277.066C515.557 282.954 499.831 280.991 494.433 279.274L457.999 267.104V288.474C464.624 290.683 482.243 297.207 494.433 300.961C506.948 304.815 522.525 301.723 529.762 299.883C551.255 295.761 556.382 289.579 556.26 287.002V265.658C556.26 263.008 552.579 261.364 550.739 260.873L521.666 250.937Z" fill="#4B6578"/>
<path d="M573.001 258.629V237.652L521.479 250.901V272.246L573.001 258.629Z" fill="#4B6578"/>
<path d="M191 237.462V216.308L250 235.938V256.938L191 237.462Z" fill="#E4EDF2"/>
<path d="M306.5 277.437V256.437L323 251.437C315.5 240.937 282.897 247.22 277.5 248.937L249.999 256.64V235.937C255.5 234.437 274.5 229.437 287 226.437C299.733 223.381 314.525 222.021 321.762 223.861C343.255 227.982 348.382 234.165 348.26 236.741V258.086C348.26 260.736 344.579 262.38 342.739 262.87L306.5 277.437Z" fill="#ADC1CF"/>
<path d="M306.5 277.438V255.938L392 283.938V305.938L306.5 277.438Z" fill="#E4EDF2"/>
<path d="M324.5 283.438L325 261.938L318 281.438L324.5 283.438Z" fill="#133141" fill-opacity="0.3"/>
<path d="M241.5 254.438L242 232.938L235 252.438L241.5 254.438Z" fill="#133141" fill-opacity="0.3"/>
<path d="M458.179 288.439V267.094L392 283.938V305.938L458.179 288.439Z" fill="#4B6578"/>
<path d="M550.74 260.874L521.5 250.438L458 267.104L494.433 279.275C499.831 280.992 515.557 282.955 535.283 277.067C542.275 275.171 556.26 270.235 556.26 265.658C556.26 263.008 552.5 261.438 550.74 260.874Z" fill="#89ABC2"/>
<path d="M370.592 169.938L191 216.307L250 235.938L264 232.438C286 227.438 300.452 226.099 317 227.938C335 229.938 348 245.438 318.5 252.438L306.5 255.938L391.936 284.39L458.179 267.094L521.478 250.901L573 237.652L498 212.438L474 220.438C452 226.438 424.977 220.679 417.5 217.938C402.5 212.438 400.8 204.138 406 196.938C411.2 189.738 417.734 187.938 420.5 186.938L370.592 169.938Z" fill="#89ABC2"/>
<path d="M267.813 526.413V505.068L254.197 500.284C273.922 494.395 289.649 496.358 295.047 498.075L331.48 510.246V488.875C324.856 486.667 307.237 480.142 295.047 476.388C282.532 472.534 266.955 475.627 259.717 477.467C238.225 481.588 233.097 487.771 233.22 490.347V511.692C233.22 514.342 236.9 515.986 238.74 516.476L267.813 526.413Z" fill="#647B8A"/>
<path d="M1.00098 475.46V454.306L201.937 522.389V543.733L1.00098 475.46Z" fill="#E4EDF2"/>
<path d="M268.179 526.436V505.091L201.568 522.388V543.733L268.179 526.436Z" fill="#587284"/>
<path d="M383 496.627V475.65L331.478 488.899V510.244L383 496.627Z" fill="#4B6578"/>
<path d="M116.926 513.923V492.947L62.4593 474.178L35.5212 485.651C31.105 486.829 30.001 489.331 30.001 490.435V509.935C30.001 511.996 32.1341 513.526 32.9451 514.351C34.501 515.935 46.001 521.435 54.731 522.756C69.3499 524.967 80.3694 524.105 84.1722 522.756L116.926 513.923Z" fill="#E4EDF2"/>
<path d="M239 428.124V449.101L293.466 467.87L320.405 456.397C324.821 455.219 325.925 452.717 325.925 451.613V432.113C325.925 430.052 325.311 427.263 324.5 426.438C322.944 424.854 309.925 420.613 301.195 419.292C286.576 417.08 275.556 417.943 271.754 419.292L239 428.124Z" fill="#5B7180"/>
<path d="M180.592 407.936L1.00098 454.305L60.001 474.436L44.501 478.936C35.001 481.436 22.001 491.436 36.001 498.436C44.001 501.936 66.501 509.436 89.501 502.936L117.001 494.436L201.937 522.388L268.18 505.092L237.267 494.419C232.237 491.966 229.171 485.292 257.14 478.226C263.764 476.264 280.177 473.074 292.837 476.018C293.819 476.264 296.885 477.122 301.302 478.595C305.718 480.067 323.26 486.077 331.479 488.899L383.001 475.65L180.592 407.936Z" fill="#9CBBD0"/>
<path d="M1 454.677L201.5 521.938L239.5 475.438L291.5 465.938L381 475.438L297.5 446.938L311 443.438C324.5 439.938 332.15 428.598 318.5 420.938C307 414.486 288 414.438 265 420.938L239.5 427.391L182.064 407.939L115.821 425.235L146.734 435.908C151.764 438.361 154.83 445.035 126.861 452.1C120.237 454.063 103.824 457.253 91.1638 454.309C90.1824 454.063 87.1156 453.204 82.6994 451.732C78.2832 450.26 60.7412 444.249 52.5222 441.428L1 454.677Z" fill="#9CBBD0"/>
<path opacity="0.5" d="M183.263 438.555L331.5 487.943L345 508.437L340.5 508.437L331.5 495.013L159.994 438.357L183.263 438.555Z" fill="#0F2736"/>
<g filter="url(#filter0_i_115_3028)">
<path d="M235.5 236.438L222 233.437L161 438.705L173.993 441.937L235.5 236.438Z" fill="#558EAB"/>
<path d="M242.5 232.937L235 236.437L173.859 441.937L181.611 438.476L242.5 232.937Z" fill="#35637A"/>
<path d="M230.973 229.937L222 233.438L235.2 236.506L242.5 232.937L230.973 229.937Z" fill="#4D829C"/>
<path d="M303 289.938L229 263.438L230.167 259.938L304.167 286.438L303 289.938Z" fill="#558EAB"/>
<path d="M233.167 259.938H230.167L304.167 286.438L306.667 285.438L233.167 259.938Z" fill="#4D829C"/>
<path d="M289 335.938L215 309.438L216.167 305.938L290.167 332.438L289 335.938Z" fill="#558EAB"/>
<path d="M219.167 305.938H216.167L290.167 332.438L292.667 331.438L219.167 305.938Z" fill="#4D829C"/>
<path d="M275 382.938L201 356.438L202.167 352.938L276.167 379.438L275 382.938Z" fill="#558EAB"/>
<path d="M205.167 352.938H202.167L276.167 379.438L278.667 378.438L205.167 352.938Z" fill="#4D829C"/>
<path d="M261 429.938L187 403.438L188.167 399.938L262.167 426.438L261 429.938Z" fill="#558EAB"/>
<path d="M191.167 399.938H188.167L262.167 426.438L264.667 425.438L191.167 399.938Z" fill="#4D829C"/>
<path d="M318.5 264.438L305 260.937L244 466.705L256.993 469.937L318.5 264.438Z" fill="#558EAB"/>
<path d="M325.5 260.937L318 264.437L256.859 469.937L264.611 466.476L325.5 260.937Z" fill="#35637A"/>
<path d="M313.973 257.937L305 260.938L318.201 264.506L325.5 260.937L313.973 257.937Z" fill="#4D829C"/>
</g>
<path opacity="0.5" d="M309.046 245.437C309.68 245.437 310.336 245.346 310.999 245.166L632.665 157.95C640.674 155.778 643.843 144.01 636.972 141.955L557.02 118.042C555.92 117.713 554.672 117.72 553.39 118.062L233.321 203.413C225.296 205.553 222.094 217.357 228.981 219.417L263.727 229.81C266.055 230.506 267.48 232.626 267.48 235.395L267.48 251.932L274 249.937L279.5 248.438L281.5 247.938L284 247.438L287 246.938L294.5 245.937L303.5 245.437L309.046 245.437Z" fill="#0C2837"/>
<g filter="url(#filter1_i_115_3028)">
<path d="M579.613 36.4969C578.274 36.0879 576.718 36.0674 575.043 36.514L562.611 32.7132C564.286 32.2666 565.842 32.2871 567.181 32.6961L579.613 36.4969Z" fill="#A1B0B9"/>
<path d="M575.043 36.5137L246.969 124L234.537 120.199L562.611 32.7129L575.043 36.5137Z" fill="#A1B0B9"/>
<path d="M233.444 213.491C233.276 217.276 235.165 220.026 238.09 220.921L225.661 217.121C222.734 216.227 220.844 213.476 221.012 209.69L233.444 213.491Z" fill="#EEEFF0"/>
<path d="M236.864 136.567L233.445 213.492L221.013 209.691L224.432 132.767L236.864 136.567Z" fill="#EEEFF0"/>
<path d="M236.864 136.567C237.109 131.049 241.634 125.423 246.97 124L234.538 120.199C229.202 121.622 224.677 127.249 224.432 132.766L236.864 136.567Z" fill="#D3D5D6"/>
</g>
<rect x="2.30459" y="1.85338" width="354.538" height="92" rx="7.5" transform="matrix(0.966235 -0.257663 -0.0444006 0.999014 237.467 127.173)" fill="#2B546B" stroke="#204C65" stroke-width="5"/>
<path d="M248.139 187.29L250.086 158.081L255.808 156.555L254.224 180.316L266.074 177.156L265.711 182.604L248.139 187.29ZM278.302 158.501C283.78 157.04 286.942 159.243 286.612 164.188L285.74 177.263L280.708 178.605L280.462 176.325C278.902 178.799 276.619 180.148 274.59 180.689C270.248 181.847 267.316 179.789 267.587 175.724C267.749 173.293 268.921 171.252 270.812 169.801C272.155 168.784 273.798 168.058 275.827 167.517L281.103 166.11L281.133 165.649C281.259 163.763 280.001 162.905 277.728 163.511C275.943 163.987 274.185 165.238 272.436 167.557L268.688 165.181C271.313 161.682 274.73 159.454 278.302 158.501ZM275.796 175.758C278.353 175.076 280.623 172.7 280.823 170.301L276.319 171.502C275.182 171.805 274.4 172.178 273.888 172.685C273.379 173.15 273.102 173.718 273.06 174.347C272.976 175.604 273.929 176.255 275.796 175.758ZM297.008 174.711C292.706 175.858 289.691 173.864 288.961 171.053L293.437 167.884C293.838 169.053 294.478 170.817 297.197 170.092C299.185 169.562 299.985 168.319 300.041 167.481C300.254 164.296 290.185 168.833 290.685 161.332C290.973 157.016 294.795 154.103 298.528 153.107C302.099 152.155 304.62 153.212 305.978 155.566L301.595 159.123C301.062 158.153 300.229 156.894 298.119 157.456C296.779 157.813 295.964 158.69 295.911 159.486C295.715 162.419 305.989 157.786 305.478 165.455C305.145 170.442 300.782 173.705 297.008 174.711ZM321.392 151.826L316.36 153.168L315.723 162.723C315.642 163.938 316.048 165.024 318.077 164.483C318.848 164.277 319.711 163.882 320.624 163.351L320.325 167.835C319.036 168.631 317.764 169.176 316.425 169.533C312.854 170.486 309.889 169.506 310.214 164.645L310.881 154.629L307.635 155.495L307.931 151.053L311.177 150.187L311.412 146.667L317.17 141.015L316.656 148.726L321.688 147.384L321.392 151.826ZM345.289 169.781L349.553 159.629L343.218 141.643L349.306 140.02L352.908 152.354L358.64 137.531L364.686 135.918L351.254 168.19L345.289 169.781ZM382.812 141.169C382.77 141.798 382.691 142.395 382.559 143.171L369.126 146.753C369.225 148.868 370.542 150.039 373.423 149.271C375.087 148.827 376.709 147.819 378.07 145.933L381.653 148.394C379.337 151.44 376.488 153.517 373.039 154.436C365.896 156.341 363.408 151.818 363.768 146.412C364.12 141.132 367.254 134.781 374.153 132.941C380.403 131.274 383.214 135.135 382.812 141.169ZM369.374 142.448L377.734 140.218C377.803 137.977 376.069 137.081 373.797 137.687C370.997 138.434 369.729 140.707 369.374 142.448ZM395.286 127.305C400.764 125.845 403.926 128.047 403.596 132.992L402.724 146.067L397.692 147.409L397.446 145.129C395.886 147.603 393.603 148.952 391.574 149.494C387.232 150.652 384.3 148.593 384.571 144.528C384.733 142.098 385.905 140.056 387.796 138.605C389.139 137.589 390.782 136.862 392.811 136.321L398.087 134.914L398.118 134.453C398.243 132.568 396.985 131.709 394.712 132.315C392.927 132.792 391.169 134.042 389.42 136.361L385.672 133.985C388.297 130.486 391.714 128.258 395.286 127.305ZM392.78 144.562C395.337 143.88 397.608 141.505 397.807 139.105L393.303 140.306C392.167 140.609 391.384 140.983 390.872 141.49C390.363 141.955 390.086 142.522 390.044 143.151C389.96 144.408 390.913 145.06 392.78 144.562ZM419.814 120.765C421.153 120.407 422.345 120.46 423.626 120.983L420.65 126.757C420.069 126.5 419.155 126.456 418.182 126.716C415.625 127.397 414.09 129.494 413.839 133.266L413.171 143.282L407.652 144.753L409.029 124.093L414.589 122.611L414.371 125.879C415.42 123.295 417.623 121.349 419.814 120.765ZM438.271 136.588L433.399 117.595L439.243 116.036L441.612 127.136L445.736 114.305L450.403 113.06L452.94 124.033L456.896 111.329L462.78 109.76L455.113 132.097L450.243 133.396L447.553 121.723L443.222 135.268L438.271 136.588ZM481.704 114.798C481.662 115.427 481.582 116.024 481.451 116.8L468.018 120.382C468.116 122.496 469.433 123.668 472.315 122.9C473.978 122.456 475.6 121.447 476.962 119.561L480.544 122.022C478.229 125.069 475.38 127.145 471.93 128.065C464.788 129.97 462.299 125.447 462.66 120.041C463.012 114.761 466.146 108.409 473.044 106.57C479.294 104.903 482.106 108.764 481.704 114.798ZM468.265 116.077L476.625 113.847C476.695 111.606 474.961 110.71 472.688 111.316C469.888 112.063 468.62 114.335 468.265 116.077ZM507.862 97.2851C512.407 96.0731 514.898 98.1666 514.58 102.944L513.677 116.48L508.199 117.941L509.006 105.83C509.191 103.064 508.141 102.068 505.787 102.696C502.581 103.55 501.51 106.471 501.135 112.086L500.61 119.965L495.091 121.436L497.038 92.2272L502.557 90.7554L501.845 101.442C503.261 99.3353 505.305 97.9669 507.862 97.2851ZM528.082 91.893C533.561 90.432 536.723 92.6349 536.393 97.58L535.521 110.655L530.489 111.997L530.242 109.716C528.682 112.19 526.4 113.54 524.371 114.081C520.029 115.239 517.097 113.181 517.368 109.116C517.53 106.685 518.702 104.644 520.593 103.193C521.936 102.176 523.579 101.45 525.608 100.909L530.884 99.5019L530.914 99.0409C531.04 97.1551 529.782 96.2969 527.509 96.9029C525.724 97.3791 523.966 98.6298 522.217 100.949L518.469 98.5727C521.094 95.0737 524.511 92.8453 528.082 91.893ZM525.577 109.149C528.133 108.468 530.404 106.092 530.604 103.693L526.1 104.894C524.963 105.197 524.181 105.57 523.669 106.077C523.16 106.542 522.883 107.11 522.841 107.739C522.757 108.996 523.71 109.647 525.577 109.149ZM554.613 76.874L560.091 75.413L558.144 104.622L552.665 106.083L552.788 104.239C551.297 106.283 549.064 107.496 547.116 108.016C541.799 109.434 539.104 105.625 539.517 99.4224C539.973 92.5915 543.847 87.6891 548.554 86.4338C550.705 85.8602 552.795 86.2086 553.917 87.3088L554.613 76.874ZM548.891 102.315C552.218 101.428 553.636 98.7034 553.84 95.6442C554.038 92.6688 552.997 90.3533 549.669 91.2407C546.869 91.9874 545.268 94.4723 545.033 97.9925C544.796 101.555 546.131 103.051 548.891 102.315ZM565.671 88.867L566.054 83.1257L571.897 81.5674L571.515 87.3086L565.671 88.867ZM564.738 102.864L565.118 97.1645L570.961 95.6062L570.581 101.306L564.738 102.864Z" fill="#F3F5F4"/>
<path opacity="0.3" fill-rule="evenodd" clip-rule="evenodd" d="M522.101 279.909C527.788 280.058 532.571 281.792 534 286.938C534.066 287.176 534.135 287.408 534.205 287.635L534.307 287.7L534.231 287.716C535.029 290.253 536.08 292.098 536.875 293.495C538.674 296.655 539.169 297.524 532.5 298.938C531.142 299.226 529.693 299.575 528.192 299.938C518.735 302.219 507.216 304.999 503.5 295.938C501.536 291.148 500.411 288.156 500.708 286.119L470.902 274.505C461.904 275.254 453.158 275.11 449.601 273.305C443.817 270.37 441.449 269.071 441.449 269.071C428.866 253.718 437.997 255.617 448.387 257.778C453.351 258.81 458.603 259.903 461.911 259.202C464.867 258.575 467.661 257.938 470.31 257.335C481.529 254.779 490.136 252.817 497.385 254.74L502.885 262.24C502.694 263.371 501.971 264.742 500.525 266.139L522.101 279.909Z" fill="#071821"/>
<g filter="url(#filter2_i_115_3028)">
<path d="M497.999 256.938C494.499 265.437 483.896 267.938 466.499 267.938C454.999 267.938 437.499 264.437 434.999 256.938V245.085C439.493 238.846 453.016 238.938 466.499 238.938C479.233 238.938 493.034 239.713 497.999 245.408V256.938Z" fill="#386881"/>
<ellipse cx="466.499" cy="244.938" rx="31.5" ry="12" fill="#558EAB"/>
<path d="M485.999 244.142L476.249 201.938H456.388L446.999 244.142C446.999 244.142 454.943 248.938 466.86 248.938C478.777 248.938 485.999 244.142 485.999 244.142Z" fill="#386881"/>
<ellipse cx="466.499" cy="188.681" rx="17.2358" ry="16.7438" fill="#558EAB"/>
</g>
<defs>
<filter id="filter0_i_115_3028" x="161" y="229.938" width="164.5" height="240" filterUnits="userSpaceOnUse" color-interpolation-filters="sRGB">
<feFlood flood-opacity="0" result="BackgroundImageFix"/>
<feBlend mode="normal" in="SourceGraphic" in2="BackgroundImageFix" result="shape"/>
<feColorMatrix in="SourceAlpha" type="matrix" values="0 0 0 0 0 0 0 0 0 0 0 0 0 0 0 0 0 0 127 0" result="hardAlpha"/>
<feOffset dx="2" dy="1"/>
<feComposite in2="hardAlpha" operator="arithmetic" k2="-1" k3="1"/>
<feColorMatrix type="matrix" values="0 0 0 0 0.96741 0 0 0 0 0.862863 0 0 0 0 0.653771 0 0 0 1 0"/>
<feBlend mode="normal" in2="shape" result="effect1_innerShadow_115_3028"/>
</filter>
<filter id="filter1_i_115_3028" x="221.002" y="32.3838" width="358.611" height="188.538" filterUnits="userSpaceOnUse" color-interpolation-filters="sRGB">
<feFlood flood-opacity="0" result="BackgroundImageFix"/>
<feBlend mode="normal" in="SourceGraphic" in2="BackgroundImageFix" result="shape"/>
<feColorMatrix in="SourceAlpha" type="matrix" values="0 0 0 0 0 0 0 0 0 0 0 0 0 0 0 0 0 0 127 0" result="hardAlpha"/>
<feOffset dx="1" dy="1"/>
<feComposite in2="hardAlpha" operator="arithmetic" k2="-1" k3="1"/>
<feColorMatrix type="matrix" values="0 0 0 0 0.968627 0 0 0 0 0.862745 0 0 0 0 0.654902 0 0 0 1 0"/>
<feBlend mode="normal" in2="shape" result="effect1_innerShadow_115_3028"/>
</filter>
<filter id="filter2_i_115_3028" x="434.999" y="171.938" width="63" height="96" filterUnits="userSpaceOnUse" color-interpolation-filters="sRGB">
<feFlood flood-opacity="0" result="BackgroundImageFix"/>
<feBlend mode="normal" in="SourceGraphic" in2="BackgroundImageFix" result="shape"/>
<feColorMatrix in="SourceAlpha" type="matrix" values="0 0 0 0 0 0 0 0 0 0 0 0 0 0 0 0 0 0 127 0" result="hardAlpha"/>
<feOffset dx="1" dy="1"/>
<feComposite in2="hardAlpha" operator="arithmetic" k2="-1" k3="1"/>
<feColorMatrix type="matrix" values="0 0 0 0 0.984314 0 0 0 0 0.854902 0 0 0 0 0.596078 0 0 0 1 0"/>
<feBlend mode="normal" in2="shape" result="effect1_innerShadow_115_3028"/>
</filter>
</defs>
</svg>
