<svg width="1440" height="900" viewBox="0 0 1440 900" fill="none" xmlns="http://www.w3.org/2000/svg">
<path d="M873.813 349.415V328.07L860.197 323.286C879.922 317.397 895.649 319.36 901.047 321.077L937.48 333.248V311.877C930.856 309.669 913.237 303.144 901.047 299.39C888.532 295.536 872.955 298.628 865.717 300.469C844.225 304.59 839.097 310.773 839.22 313.349V334.694C839.22 337.344 842.9 338.987 844.74 339.478L873.813 349.415Z" fill="#647B8A"/>
<path d="M675.596 282.807V261.463L661.979 256.678C681.705 250.79 697.431 252.753 702.829 254.47L739.262 266.641V245.27C732.638 243.062 715.019 236.537 702.829 232.783C690.314 228.929 675 232.423 667.499 233.861C646.007 237.983 640.879 244.166 641.002 246.742V268.087C641.002 270.737 644.682 272.38 646.522 272.871L675.596 282.807Z" fill="#E9F5FD"/>
<path d="M874.179 349.439V328.094L808 344.938V365.938L874.179 349.439Z" fill="#587284"/>
<path d="M989 319.629V298.652L937.478 311.901V333.246L989 319.629Z" fill="#587284"/>
<path d="M786.592 230.938L607 276.938L666 296.938L722.5 300.438L741 311.438L723 316.938L808 344.938L874.179 328.094L843.266 317.421C838.236 314.968 835.17 308.294 863.139 301.228C869.763 299.266 886.176 296.076 898.836 299.02C899.818 299.266 902.884 300.124 907.301 301.596C911.717 303.069 929.259 309.079 937.478 311.901L989 298.652L786.592 230.938Z" fill="#91B5CE"/>
<path d="M607 298.092V276.938L666 296.568V317.568L607 298.092Z" fill="#E9F5FD"/>
<path d="M737.762 284.491C759.255 288.613 764.382 294.795 764.26 297.372C764.173 299.814 759 306.172 739 312.068C731.5 301.568 698.897 307.85 693.5 309.568L665.999 317.27V296.568C671.5 295.068 690.5 290.068 703 287.067C715.733 284.012 730.5 283.098 737.762 284.491Z" fill="#C9D9E4"/>
<path d="M723 337.938V316.938L808 344.938V365.938L723 337.938Z" fill="#E9F5FD"/>
<path d="M786.592 230.938L607 277.307L666 296.938L680 293.438C702 288.438 716.452 287.099 733 288.938C751 290.938 764 306.438 734.5 313.438L722.5 316.938L807.936 345.39L874.179 328.094L824.5 321.438L848.5 294.938L900 292.438L937.478 311.901L989 298.652L786.592 230.938Z" fill="#91B5CE"/>
<path d="M665.003 233.769C643.511 237.891 640.881 243.361 641.004 245.938C640.99 247.536 644.666 251.904 659.483 256.586L673.1 261.37L738.5 244.938C731.876 242.729 714.69 236.191 702.5 232.438C689.985 228.584 672.504 232.33 665.003 233.769Z" fill="#91B5CE"/>
<path opacity="0.4" d="M783.5 246.095L964 304.937L978.5 322.437L969 324.937L950.5 308.937L763.5 245.937L783.5 246.095Z" fill="#0F2736"/>
<path d="M512.596 510.997V489.652L498.979 484.868C518.705 478.98 534.431 480.942 539.829 482.66L576.262 494.83V473.459C569.638 471.251 552.019 464.727 539.829 460.973C527.314 457.119 512 460.613 504.499 462.051C483.007 466.173 477.879 472.355 478.002 474.931V496.276C478.002 498.926 481.682 500.57 483.522 501.061L512.596 510.997Z" fill="#647B8A"/>
<path d="M502.003 461.958C480.511 466.08 477.881 471.551 478.004 474.127C477.99 475.726 481.5 479.938 496.483 484.775L513.5 489.938L575.5 473.127C568.876 470.919 551.69 464.381 539.5 460.627C526.985 456.773 509.504 460.52 502.003 461.958Z" fill="#89ABC2"/>
<path d="M826 549.129V528.152L771.5 541.938V562.438L826 549.129Z" fill="#7894A8"/>
<path d="M444 527.962V506.808L497 524.438V542.938L444 527.962Z" fill="#6A8394"/>
<path d="M571.077 569.529V548.529C571.077 548.529 582.5 549.938 580 539.938C577.5 529.938 540.5 527.938 523.781 533.529L496 541.232L496.505 523.619C502.061 522.119 520.75 516.119 533.378 513.119C546.241 510.063 561.184 506.612 568.495 508.453C590.207 512.574 594.495 515.619 595 521.619V541.619C595 544.269 591.545 546.971 589.686 547.462L571.077 569.529Z" fill="#5B7180"/>
<path d="M568.5 568.438V549.438L645 574.438V595.938L568.5 568.438Z" fill="#6A8394"/>
<path d="M714 576.438V556.938L645 574.438V595.938L714 576.438Z" fill="#587284"/>
<path d="M712.5 557.438L644.936 574.89L568.5 549.438L578 545.438C593 538.938 593 523.223 571 516.938C556.252 512.724 543 512.938 521 517.938L497 524.438L444 506.807L564 510.938L596 499.438L619 488.938L623.592 460.438L673.5 477.438C670.734 478.438 664.2 480.238 659 487.438C653.8 494.638 655.5 502.938 670.5 508.438C677.977 511.179 705 516.938 727 510.938L751 502.938L826 528.152L774.478 541.401L712.5 557.438Z" fill="#89ABC2"/>
<path d="M682 480.625V501.602L736.466 520.371L763.405 508.898C767.821 507.72 768.925 505.218 768.925 504.114V484.614C768.925 482.553 768.311 479.764 767.5 478.939C765.944 477.355 752.925 473.114 744.195 471.793C729.576 469.581 718.556 470.444 714.754 471.793L682 480.625Z" fill="#5B7180"/>
<path d="M824 527.938L740.5 499.438L754 495.938C767.5 492.438 775.15 481.098 761.5 473.438C750 466.986 731 466.938 708 473.438L682.5 479.891L624 459.938L576 472.438L508 490.438L444 506.938L587.5 515.938L644.5 574.438L682.5 527.938L735 521.938L824 527.938Z" fill="#89ABC2"/>
<path d="M920.596 531.997V510.652L906.979 505.868C926.705 499.98 942.431 501.942 947.829 503.66L984.262 515.83V494.459C977.638 492.251 960.019 485.727 947.829 481.973C935.314 478.119 920 481.613 912.499 483.051C891.007 487.173 885.879 493.355 886.002 495.931V517.276C886.002 519.926 889.682 521.57 891.522 522.061L920.596 531.997Z" fill="#647B8A"/>
<path d="M910.003 482.958C888.511 487.08 885.881 492.551 886.004 495.127C885.99 496.726 889.666 501.094 904.483 505.775L918.1 510.559L983.5 494.127C976.876 491.919 959.69 485.381 947.5 481.627C934.985 477.773 917.504 481.52 910.003 482.958Z" fill="#89ABC2"/>
<path d="M982.5 492.938V514.938L997.283 520.364C977.557 526.252 961.831 524.289 956.433 522.572L919.999 510.558V531.772C926.624 533.98 944.243 540.505 956.433 544.259C968.948 548.113 984.525 545.021 991.762 543.181C1013.25 539.059 1018.38 532.876 1018.26 530.3V508.955C1018.26 506.306 1016.34 504.226 1014.5 503.735L982.5 492.938Z" fill="#BBBBBB"/>
<path d="M1234 569.129V548.152L1182.48 561.401V582.746L1234 569.129Z" fill="#4C6577"/>
<path d="M852 547.962V526.808L911 546.438V567.438L852 547.962Z" fill="#6A8394"/>
<path d="M957.5 584.347V563.347L974 558.347C966.5 547.847 933.897 554.13 928.5 555.847L900.999 563.55V542.847C906.5 541.347 925.5 536.347 938 533.347C950.733 530.291 965.525 528.931 972.762 530.771C994.255 534.893 999.382 541.075 999.26 543.651V564.996C999.26 567.646 995.579 569.29 993.739 569.78L957.5 584.347Z" fill="#647B8A"/>
<path d="M896.5 552.37L896 571.535L950.466 590.304L977.405 578.831C981.821 577.653 982.925 575.15 982.925 574.046V554.546C982.925 552.486 981.811 550.196 981 549.37C979.444 547.787 966.925 543.046 958.195 541.726C943.576 539.514 932.803 542.521 929 543.87L912.5 548.37L896.5 552.37Z" fill="#5B7180"/>
<path d="M974.5 588.438V568.938L1052.5 594.714V616.068L974.5 588.438Z" fill="#6A8394"/>
<path d="M1118.6 598.807L1119 578.438L1105 573.938C1129 565.438 1140.43 568.753 1145.83 570.47L1182.5 582.728V561.438C1175.88 559.229 1158.02 552.537 1145.83 548.783C1133.31 544.929 1117.74 548.021 1110.5 549.861C1089.01 553.983 1083.88 560.166 1084 562.742V584.087C1084 586.736 1087.68 588.38 1089.52 588.871L1118.6 598.807Z" fill="#647B8A"/>
<path d="M1119.18 598.938V578.092L1052.57 594.89V616.235L1119.18 598.938Z" fill="#4C6577"/>
<path d="M1118.5 577.938L1052.94 594.89L974.5 568.938L982.5 564.438C995 556.938 987.5 544.188 978 539.438C963.71 532.293 948 531.438 926 536.438L901 543.438L852 526.807L972 530.938L1004 519.438L1027 508.938L1031.59 480.438L1081.5 497.438C1078.73 498.438 1072.2 500.238 1067 507.438C1061.8 514.638 1063.5 522.938 1078.5 528.438C1085.98 531.179 1113 536.938 1135 530.938L1159 522.938L1234 548.152L1182.48 561.401L1159 543.438L1103.5 538.938L1070 569.938L1118.5 577.938Z" fill="#89ABC2"/>
<path d="M1090 500.625V521.602L1144.47 540.371L1171.4 528.898C1175.82 527.72 1176.92 525.218 1176.92 524.114V504.614C1176.92 502.553 1176.31 499.764 1175.5 498.939C1173.94 497.355 1160.92 493.114 1152.19 491.793C1137.58 489.581 1126.56 490.444 1122.75 491.793L1090 500.625Z" fill="#5B7180"/>
<path d="M1031.59 480.938L852 527.307L901 543.438L923.5 516.438L1001 531.938L1012 570.438L974.5 568.938L1052.94 595.39L1119.18 578.094L1088.27 567.421C1083.24 564.968 1080.17 558.294 1108.14 551.228C1114.76 549.266 1131.18 546.076 1143.84 549.02C1144.82 549.266 1147.88 550.124 1152.3 551.596C1156.72 553.069 1174.26 559.079 1182.48 561.901L1234 548.652L1031.59 480.938Z" fill="#89ABC2"/>
<path d="M1232 547.938L1148.5 519.438L1162 515.938C1175.5 512.438 1183.15 501.098 1169.5 493.438C1158 486.986 1139 486.938 1116 493.438L1090.5 499.891L1032 479.938L982.5 492.938L919 509.438L852 526.938L995.5 535.938L1052.5 594.438L1090.5 547.938L1143 541.938L1232 547.938Z" fill="#89ABC2"/>
<path d="M788 541.438V563.438L800 567.438C829.5 577.438 767.331 579.655 761.933 577.938L716.5 559.938V577.938C723.124 580.146 749.743 589.005 761.933 592.759C774.448 596.613 790.025 593.521 797.262 591.681C818.755 587.559 823.882 581.376 823.76 578.8V557.455C823.76 554.806 821.84 552.726 820 552.235L788 541.438Z" fill="#5C7180"/>
<path d="M1039.5 617.629V596.652L987.979 609.901V631.246L1039.5 617.629Z" fill="#4C6577"/>
<path d="M657.5 596.462V575.308L716.5 594.938V615.938L657.5 596.462Z" fill="#6A8394"/>
<path d="M773.5 539.437L778 561.937L792.783 565.066C773.057 570.954 757.331 568.991 751.933 567.274L716.5 554.437V576.937C723.124 579.145 739.743 585.207 751.933 588.961C764.448 592.815 780.025 589.723 787.263 587.883C808.755 583.761 808.123 577.013 808 574.437L808 555.437C808 550.937 799 548.937 796.5 547.937L773.5 539.437Z" fill="#6A8394"/>
<path d="M773 636.437V615.437L789.5 610.437C782 599.937 749.397 606.22 744 607.937L716.499 615.64V594.937C722 593.437 741 588.437 753.5 585.437C766.233 582.381 781.025 581.021 788.262 582.861C809.755 586.982 814.882 593.165 814.76 595.741V617.086C814.76 619.736 811.079 621.38 809.239 621.87L773 636.437Z" fill="#647B8A"/>
<path d="M773 636.438V614.938L858 643.214V664.568L773 636.438Z" fill="#6A8394"/>
<path d="M924.096 647.307L924.5 626.938L910.5 622.438C934.5 613.938 945.931 617.253 951.329 618.97L988 631.228V609.938C981.376 607.729 963.519 601.037 951.329 597.283C938.814 593.429 923.237 596.521 915.999 598.361C894.507 602.483 889.379 608.666 889.502 611.242V632.587C889.502 635.236 893.182 636.88 895.022 637.371L924.096 647.307Z" fill="#647B8A"/>
<path d="M924.679 647.438V626.592L858.068 643.39V664.735L924.679 647.438Z" fill="#4C6577"/>
<path d="M924 626.438L858.436 643.39L773 614.938L785 611.438C814.5 604.438 801.5 588.938 783.5 586.938C766.952 585.099 752.5 586.438 730.5 591.438L716.5 594.938L657.5 575.307L777.5 579.438L812.5 575.938L832.5 557.438L837.092 528.938L887 545.938C884.234 546.938 877.7 548.738 872.5 555.938C867.3 563.138 869 571.438 884 576.938C891.477 579.679 918.5 585.438 940.5 579.438L964.5 571.438L1039.5 596.652L987.978 609.901L964.5 591.938L909 587.438L875.5 618.438L924 626.438Z" fill="#89ABC2"/>
<path d="M837.092 529.438L1039.5 597.152L987.978 610.401C979.759 607.579 962.217 601.569 957.801 600.096C953.384 598.624 950.318 597.766 949.336 597.52C936.676 594.576 920.263 597.766 913.639 599.728C885.67 606.794 888.736 613.468 893.766 615.921L924.679 626.594L858.436 643.89L773 614.938L817.5 618.938L806.5 580.438L771.379 577.245L745.5 580.438L734.173 579.842L716.5 594.938L657.5 575.807L734.173 579.842L740.5 574.438L771.379 577.245L822.5 570.938L837.092 529.438Z" fill="#89ABC2"/>
<path d="M1037.5 596.438L954 567.938L967.5 564.438C981 560.938 988.65 549.598 975 541.938C963.5 535.486 944.5 535.438 921.5 541.938L896 548.391L837.5 528.438L788 541.438L855 552.438L840.5 579.438L717.5 572.938L714.5 560.438L657.5 575.438L801 584.438L858 642.938L896 596.438L948.5 590.438L1037.5 596.438Z" fill="#D9D9D9"/>
<path d="M1037.5 596.438L954 567.938L967.5 564.438C981 560.938 988.65 549.598 975 541.938C963.5 535.486 944.5 535.438 921.5 541.938L896 548.391L837.5 528.438L788 541.438C803.5 546.938 806 546.938 811 549.938C816.59 553.292 815 562.938 807.5 568.438C800 573.938 771.5 578.938 746 569.938L716.5 559.938L657.5 575.438L801 584.438L858 642.938L896 596.438L948.5 590.438L1037.5 596.438Z" fill="#89ABC2"/>
<path d="M802.5 549.937L773.5 539.437L716.5 554.437L748 565.937C755.5 568.937 773.5 572.937 797.5 566.437C804.551 564.527 808 560.014 808 555.437C808 552.788 805 550.937 802.5 549.937Z" fill="#89ABC2"/>
<g filter="url(#filter0_i_115_3804)">
<path d="M837.5 44.4375L824 41.4375L763.5 245.938L775.993 249.937L837.5 44.4375Z" fill="#847AC2"/>
<path d="M844.5 40.9375L837 44.4375L775.859 249.937L783.611 246.476L844.5 40.9375Z" fill="#6D63A5"/>
<path d="M832.973 37.9375L824 41.4375L837.2 44.5057L844.5 40.9375L832.973 37.9375Z" fill="#756CAE"/>
<path d="M905 97.9375L831 71.4375L832.167 67.9375L906.167 94.4375L905 97.9375Z" fill="#847AC2"/>
<path d="M835.167 67.9375H832.167L906.167 94.4375L908.667 93.4375L835.167 67.9375Z" fill="#756CAE"/>
<path d="M891 143.938L817 117.438L818.167 113.938L892.167 140.438L891 143.938Z" fill="#847AC2"/>
<path d="M821.167 113.938H818.167L892.167 140.438L894.667 139.438L821.167 113.938Z" fill="#756CAE"/>
<path d="M877 190.938L803 164.438L804.167 160.938L878.167 187.438L877 190.938Z" fill="#847AC2"/>
<path d="M807.167 160.938H804.167L878.167 187.438L880.667 186.438L807.167 160.938Z" fill="#756CAE"/>
<path d="M863 237.938L789 211.438L790.167 207.938L864.167 234.438L863 237.938Z" fill="#847AC2"/>
<path d="M793.167 207.938H790.167L864.167 234.438L866.667 233.438L793.167 207.938Z" fill="#756CAE"/>
<path d="M919.5 134.938V95.9375L904 129.938L919.5 134.938Z" fill="#133141" fill-opacity="0.5"/>
<path d="M920.5 72.4375L907 68.9375L846.5 273.938L859 277.937L920.5 72.4375Z" fill="#847AC2"/>
<path d="M927.5 68.9375L920 72.4375L858.859 277.937L866.611 274.476L927.5 68.9375Z" fill="#6D63A5"/>
<path d="M915.973 65.9375L907 68.9375L920.201 72.5057L927.5 68.9375L915.973 65.9375Z" fill="#756CAE"/>
</g>
<g filter="url(#filter1_i_115_3804)">
<path d="M800.458 108.317C800.782 112.792 810.066 122.631 817.956 128.323C825.847 134.015 825.618 123.9 825.618 123.9L806.776 99.0473C802.875 99.53 800.182 104.505 800.458 108.317Z" fill="#C09476"/>
<path d="M805.527 189.546C797.751 181.528 810.357 155.073 816.357 136.86C822.357 118.647 827.267 114.045 827.267 114.045L862.806 119.106C862.806 119.106 867.252 135.731 866.612 142.812C865.972 149.893 868.648 143.138 872.995 152.8C876.801 162.007 875.131 183.358 865.976 181.951C847.158 179.058 845.439 176.382 847.016 171.604C848.21 167.988 845.283 163.306 841.759 163.025C838.234 162.744 834.321 187.612 833.888 189.545C833.043 195.476 832.916 194.92 829.5 197.972C826.462 199.582 813.303 197.563 805.527 189.546Z" fill="#B2896D"/>
<path d="M896.102 126.273C892.21 128.439 873.219 138.941 863.76 137.551C854.301 136.161 861.161 127.444 861.161 127.444C866.275 122.351 894.562 105.182 899.988 112.149C903.248 116.336 903.143 122.355 896.102 126.273Z" fill="#A77F64"/>
<path d="M864.719 64.8588C858.898 60.3995 840.153 61.2297 835.23 62.7318C828.21 65.4128 815.17 73.9199 812.597 93.9923C809.872 115.246 823.959 122.59 832.143 124.491C844.513 126.926 851.801 127.784 867.426 125.53C875.506 124.057 888.921 115.913 885.833 95.3504C882.165 70.9295 871.995 70.433 864.719 64.8588Z" fill="#C39878"/>
<path d="M875.174 38.3589C874.879 51.1033 866.806 60.6544 862.807 63.8368C861.754 75.83 876.314 79.868 879.362 78.9656C881.801 78.2436 896.359 70.1714 902.447 66.4795C911.406 59.7215 908.58 53.7519 902.72 53.8241C896.859 53.8963 896.893 50.0407 898.529 47.8499C900.407 45.954 904.761 39.5286 907.153 28.9943C909.545 18.46 904.609 19.1827 901.842 20.8609C899.612 22.592 895.945 29.5469 891.091 35.897C886.237 42.2471 884.949 39.8111 884.55 37.593L884.201 34.2091C882.727 27.7225 875.469 25.6146 875.174 38.3589Z" fill="#DABDA7"/>
<path d="M835.405 33.9535C832.973 46.5297 838.848 57.6343 842.09 61.6146C840.561 73.6154 825.424 74.4656 822.628 72.9275C820.392 71.697 807.842 60.657 802.662 55.7299C795.321 47.1781 799.366 41.9212 805.096 43.2457C810.827 44.5702 811.617 40.7773 810.481 38.2763C809.044 36.0131 806.147 28.7728 806.051 17.918C805.955 7.06316 810.64 8.82863 812.995 11.0682C814.812 13.245 816.922 20.8582 820.325 28.1314C823.728 35.4046 825.511 33.2884 826.376 31.1958L827.441 27.948C830.271 21.8943 837.837 21.3773 835.405 33.9535Z" fill="#DABDA7"/>
<path d="M810.432 66.454C816.086 63.3567 821.105 70.3345 823.711 73.2082C823.104 74.1362 823.965 74.4782 819.463 76.8295C814.824 79.2522 808.016 73.6471 805.858 70.5083C803.984 67.7686 804.656 65.7691 806.834 67.4502C807.913 68.283 809.784 66.9619 810.432 66.454Z" fill="#C39878"/>
<path d="M890.807 75.7177C886.237 71.5293 879.951 76.895 876.858 78.981C877.213 79.9868 876.33 80.1088 879.995 83.3366C883.772 86.6624 891.415 82.9889 894.149 80.5523C896.528 78.4237 896.358 76.4023 893.939 77.4728C892.74 78.0032 891.296 76.3406 890.807 75.7177Z" fill="#C39878"/>
<path d="M848.8 163.989C849.282 167.839 844.853 168.928 841.036 168.434C837.22 167.941 833.496 165.467 834.98 162.203C836.349 159.191 838.774 155.916 842.591 156.409C846.407 156.903 847.996 160.098 848.8 163.989Z" fill="#DDC4B2"/>
</g>
<path opacity="0.5" fill-rule="evenodd" clip-rule="evenodd" d="M1012.09 513.937L1000.95 514.483L989.337 517.279L1008.14 523.56L966 534.937L969.858 536.081L1011.24 524.597L1039.76 534.124L987.5 548.437L988.296 550.305L1042.86 535.162L1072 544.896L1009.33 562.016L989 555.437L989 555.937L988.5 557.937L987.5 559.937L985.717 562.016L984 563.437L982.885 564.217L1048.93 586.282L1058.51 585.939L1058.56 585.955L1058.65 585.934L1058.71 585.932L1058.69 585.925L1071.71 582.845L1045.13 573.972L1107.35 556.706L1107.35 565.472L1107.35 573.972L1119.41 570.972L1119.41 570.632C1120.33 570.425 1121.33 570.205 1122.41 569.972C1130.91 568.472 1135.91 568.972 1135.91 568.972C1136.2 566.649 1135.31 564.157 1133.11 562.435L1139.41 548.6L1119.02 535.588C1120.41 534.221 1121.11 532.883 1121.3 531.775L1115.8 524.275C1108.55 522.352 1099.94 524.313 1088.72 526.87C1086.07 527.473 1083.28 528.11 1080.32 528.736C1077.01 529.438 1071.76 528.345 1066.8 527.313C1060.22 525.945 1054.15 524.683 1053.77 527.831L1012.09 513.937ZM908 539.198L982 563.922L982 552.937L980.631 552.432L982.151 552.011L982.151 550.937L982 549.937L977.081 551.247L949 541.87L963.343 537.889L958.5 537.437L945.452 540.685L930.575 535.717L919.616 536.402L908 539.198ZM1041.58 572.786L1012.88 563.202L1075.1 545.934L1104.24 555.668L1041.58 572.786Z" fill="#071821" fill-opacity="0.8"/>
<path d="M851 355.937L851 334.437L857 332.937L862.5 335.437L862.5 353.437L851 355.937Z" fill="#133141" fill-opacity="0.3"/>
<path d="M937 333.936L937 312.436L943 310.936L948.5 313.436L948.5 331.436L937 333.936Z" fill="#133141" fill-opacity="0.3"/>
<path d="M941.868 312.098L955.451 309.498L1010.35 516.48L997.268 519.327L941.868 312.098Z" fill="#832E30"/>
<path d="M934.974 308.392L942.368 312.112L997.402 519.331L989.757 515.642L934.974 308.392Z" fill="#AA4245"/>
<path d="M946.585 305.734L955.45 309.498L942.165 312.174L934.974 308.392L946.585 305.734Z" fill="#C7595C"/>
<path d="M872.815 363.577L947.567 339.278L946.504 335.745L871.752 360.044L872.815 363.577Z" fill="#832E30"/>
<path d="M943.505 335.656L946.504 335.745L871.752 360.044L869.283 358.971L943.505 335.656Z" fill="#C7595C"/>
<path d="M885.448 409.971L960.199 385.672L959.137 382.139L884.385 406.438L885.448 409.971Z" fill="#832E30"/>
<path d="M956.138 382.05L959.137 382.139L884.385 406.439L881.916 405.365L956.138 382.05Z" fill="#C7595C"/>
<path d="M898.051 457.365L972.803 433.065L971.74 429.532L896.989 453.832L898.051 457.365Z" fill="#832E30"/>
<path d="M968.742 429.444L971.74 429.533L896.989 453.832L894.519 452.759L968.742 429.444Z" fill="#C7595C"/>
<path d="M910.655 504.759L985.406 480.459L984.344 476.926L909.592 501.226L910.655 504.759Z" fill="#832E30"/>
<path d="M981.345 476.838L984.344 476.926L909.592 501.226L907.123 500.152L981.345 476.838Z" fill="#C7595C"/>
<path d="M858.076 337.63L871.673 334.531L926.56 542.013L913.476 544.86L858.076 337.63Z" fill="#832E30"/>
<path d="M851.182 333.924L858.576 337.644L913.61 544.863L905.965 541.174L851.182 333.924Z" fill="#AA4245"/>
<path d="M862.793 331.267L871.673 334.531L858.373 337.707L851.182 333.924L862.793 331.267Z" fill="#C7595C"/>
<path opacity="0.5" d="M563.07 469.202C567.128 468.247 571.455 468.292 574.615 469.321L994.684 606.174C997.427 607.068 999 608.61 999 610.405L999 623.983C999 626.647 995.559 629.376 990.441 630.772L988 631.437L934 626.438L918.478 624.155C917.497 624.011 916.586 623.797 915.768 623.519L894.34 616.242C891.91 615.416 890.591 613.994 890.748 612.366V612.366C890.907 610.709 889.537 609.266 887.027 608.449L520.887 489.165C513.269 486.683 516.187 480.235 525.97 477.932L563.07 469.202Z" fill="#133141"/>
<path d="M885.27 416.528L553 306.938L569.625 304.357C571.987 303.99 574.402 304.193 576.67 304.949L899.759 412.645L885.27 416.528Z" fill="#457995"/>
<path d="M892.312 591.574C896.606 590.422 899.501 586.516 899.501 580.932L913.989 577.05C913.989 582.634 911.095 586.54 906.801 587.691L892.312 591.574Z" fill="#2D607C"/>
<path d="M899.5 580.932V436.271L913.989 432.389V577.049L899.5 580.932Z" fill="#2D607C"/>
<path d="M899.5 436.271C899.5 427.987 893.129 419.148 885.27 416.528L899.758 412.646C907.618 415.265 913.989 424.105 913.989 432.389L899.5 436.271Z" fill="#376B87"/>
<rect x="1.89737" y="2.63246" width="370.203" height="170.661" rx="13" transform="matrix(0.948683 0.316228 0 1 544.597 302.337)" fill="#E9F5FD" stroke="#BED1E0" stroke-width="4"/>
<path opacity="0.5" d="M563.07 469.202C567.128 468.247 571.455 468.292 574.615 469.321L994.684 606.174C997.427 607.068 999 608.61 999 610.405L999 623.983C999 626.647 995.559 629.376 990.441 630.772L988 631.437L934 626.438L918.478 624.155C917.497 624.011 916.586 623.797 915.768 623.519L894.34 616.242C891.91 615.416 890.591 613.994 890.748 612.366V612.366C890.907 610.709 889.537 609.266 887.027 608.449L520.887 489.165C513.269 486.683 516.187 480.235 525.97 477.932L563.07 469.202Z" fill="#133141"/>
<path d="M885.27 416.528L553 306.938L569.625 304.357C571.987 303.99 574.402 304.193 576.67 304.949L899.759 412.645L885.27 416.528Z" fill="#457995"/>
<path d="M892.312 591.574C896.606 590.422 899.501 586.516 899.501 580.932L913.989 577.05C913.989 582.634 911.095 586.54 906.801 587.691L892.312 591.574Z" fill="#2D607C"/>
<path d="M899.5 580.932V436.271L913.989 432.389V577.049L899.5 580.932Z" fill="#2D607C"/>
<path d="M899.5 436.271C899.5 427.987 893.129 419.148 885.27 416.528L899.758 412.646C907.618 415.265 913.989 424.105 913.989 432.389L899.5 436.271Z" fill="#376B87"/>
<rect x="1.89737" y="2.63246" width="370.203" height="170.661" rx="13" transform="matrix(0.948683 0.316228 0 1 544.597 302.337)" fill="#E9F5FD" stroke="#BED1E0" stroke-width="4"/>
<path d="M583.485 431.718C590.817 434.161 596.598 441.765 596.936 449.374C597.304 457.654 591.18 461.179 583.583 458.647C575.88 456.079 569.251 448.248 568.888 440.08C568.776 437.562 569.35 435.163 570.68 433.291L580.867 418.719L590.11 421.8L582.689 431.452L583.485 431.718ZM583.225 450.591C586.466 451.671 588.975 450.413 588.808 446.664C588.641 442.916 585.994 439.884 582.701 438.786C579.407 437.688 576.898 438.947 577.067 442.751C577.234 446.499 579.931 449.493 583.225 450.591ZM600.567 425.286L627.396 434.229L627.587 438.537L613.722 468.087L604.478 465.005L617.607 438.903L600.925 433.342L600.567 425.286ZM632.646 435.979L659.475 444.922L659.666 449.23L645.801 478.78L636.557 475.698L649.685 449.595L633.004 444.035L632.646 435.979ZM680.871 490.47L679.138 451.476L687.479 454.257L688.138 469.082L702.535 473.881L701.876 459.056L710.217 461.836L711.95 500.829L703.609 498.049L702.893 481.937L688.496 477.138L689.212 493.25L680.871 490.47ZM728.375 478.526C735.812 481.005 740.459 486.633 740.75 493.178L741.528 510.689L734.197 508.245L733.544 505.327C731.55 507.583 728.752 507.036 726.84 506.399C720.943 504.433 716.521 499.156 716.27 493.506C716.128 490.317 717.407 488.484 719.582 487.941C721.186 487.539 723.238 487.782 725.576 488.561L732.801 490.969L732.781 490.522C732.694 488.564 731.038 486.634 728.116 485.66C726.15 485.005 724.159 484.947 721.926 486.518L715.909 479.496C719.041 476.958 723.806 477.003 728.375 478.526ZM727.814 500.055C730.683 501.011 733.039 499.867 733.077 497.179L727.021 495.16C726.17 494.877 725.487 494.815 725.024 494.991C724.51 495.206 724.269 495.676 724.299 496.348C724.361 497.746 725.529 499.293 727.814 500.055ZM757.952 516.77C748.814 513.724 744.4 505.087 744.087 498.038C743.764 490.765 747.693 484.965 756.618 487.94C762.143 489.782 766.462 493.922 768.679 500.228L761.277 500.902C760.79 498.205 759.069 495.977 756.944 495.269C753.225 494.03 752.162 497.203 752.321 500.783C752.478 504.308 753.748 508.148 757.52 509.405C759.592 510.096 761.22 509.04 761.588 506.738L768.945 512.112C767.423 516.73 763.424 518.594 757.952 516.77ZM773.095 521.211L771.362 482.218L779.384 484.892L780.297 505.423L787.436 498.819L798.114 502.379L789.014 509.597L800.243 530.26L790.733 527.091L783.421 513.299L780.762 515.885L781.117 523.885L773.095 521.211ZM823.999 524.841C824.034 525.624 824.013 526.334 823.959 527.473L806.746 521.736C807.162 524.024 808.83 526.233 812.283 527.384C814.249 528.04 816.286 527.947 817.689 526.541L823.443 533.529C820.827 535.909 817.19 536.516 812.568 534.975C802.899 531.752 798.915 523.369 798.6 516.264C798.294 509.383 801.513 502.905 810.863 506.022C819.044 508.749 823.621 516.337 823.999 524.841ZM806.364 515.49L816.192 518.766C815.971 516.158 813.724 513.865 811.067 512.98C807.72 511.864 806.603 513.806 806.364 515.49ZM816.133 519.794L816.184 519.756L816.133 519.794ZM842.153 516.452C843.959 517.054 845.575 518.089 847.492 519.995L844.005 526.329C843.239 525.577 841.835 524.614 840.56 524.188C837.745 523.25 835.98 524.756 836.196 529.623L836.765 542.435L828.743 539.761L827.518 512.18L835.593 514.872L835.779 519.067C836.872 516.566 839.337 515.513 842.153 516.452ZM858.713 550.357C852.922 548.426 848.602 543.073 847.201 538.638L853.391 537.78C853.989 539.468 854.802 542.439 858.361 543.626C860.593 544.369 861.185 543.575 861.148 542.736C860.979 538.931 848.526 536.654 848.093 526.92C847.817 520.71 852.863 520.022 857.592 521.598C862.426 523.21 865.989 526.822 868.222 531.149L862.219 532.676C861.527 531.232 860.365 528.64 857.761 527.773C856.274 527.277 855.56 527.7 855.6 528.595C855.761 532.232 868.496 533.776 868.959 544.182C869.267 551.119 863.6 551.986 858.713 550.357Z" fill="#305E77"/>
<path d="M583.18 352.157L591.203 354.831L592.936 393.825L584.913 391.151L583.742 364.801L575.455 362.038L575.159 355.381L579.356 356.78C582.012 357.665 583.399 357.08 583.26 353.947L583.18 352.157ZM618.45 402.881C611.119 400.437 604.079 393.957 603.676 384.894L611.623 387.046C611.79 390.795 614.745 393.709 618.358 394.913C621.227 395.869 624.2 395.648 624.026 391.732C623.82 387.089 619.688 385.987 616.129 384.8L615.836 378.199C620.883 379.881 621.491 378.265 621.407 376.363C621.282 373.566 619.31 371.586 616.919 370.789C614.263 369.903 612.693 371.089 612.762 373.812L604.821 370.614C604.483 363.006 610.186 360.608 616.88 362.839C623.308 364.982 629.063 370.813 629.371 377.751C629.516 380.995 628.411 383.217 626.135 383.837C630.202 387.011 631.894 390.937 632.066 394.798C632.454 403.525 625.676 405.289 618.45 402.881ZM650.309 405.123L663.644 409.568L663.997 417.512L637.859 408.799L637.561 402.086C642.673 400.538 653.793 396.363 653.423 388.027C653.303 385.342 652.035 382.715 649.007 381.705C644.969 380.359 644.248 384.142 644.169 387.092L636.277 383.8C635.974 376.975 640.25 370.739 648.856 373.608C655.763 375.91 661.036 382.684 661.379 390.404C661.675 397.061 657.133 403.209 650.309 405.123ZM684.086 424.208L682.353 385.215L695.369 389.553C703.922 392.404 708.392 397.587 708.735 405.307C709.081 413.084 704.853 415.698 696.406 412.882L691.677 411.306L692.373 426.971L684.086 424.208ZM691.319 403.25L695.197 404.543C698.598 405.676 700.538 405.772 700.399 402.639C700.267 399.674 698.542 398.548 694.877 397.326L690.998 396.033L691.319 403.25ZM726.391 410.531C728.197 411.133 729.813 412.168 731.73 414.075L728.243 420.408C727.477 419.657 726.073 418.693 724.798 418.268C721.982 417.329 720.218 418.835 720.434 423.702L721.003 436.514L712.981 433.84L711.755 406.259L719.831 408.951L720.017 413.147C721.11 410.645 723.575 409.593 726.391 410.531ZM744.933 445.097C736.432 442.263 731.133 433.717 730.797 426.165C730.461 418.612 735.099 413.434 743.652 416.285C752.099 419.101 757.394 427.535 757.732 435.143C758.068 442.696 753.326 447.895 744.933 445.097ZM744.607 437.768C748.91 439.202 749.864 435.938 749.71 432.469C749.556 429.001 748.334 425.066 743.978 423.614C739.621 422.162 738.662 425.314 738.819 428.839C738.968 432.195 740.197 436.298 744.607 437.768ZM760.906 418.895L760.568 411.286L768.749 414.013L769.087 421.622L760.906 418.895ZM763.845 462.644C762.304 462.131 760.377 461.158 758.758 460.067L758.407 453.336C759.211 453.769 759.96 454.129 760.544 454.324C761.819 454.749 762.553 454.773 762.468 452.871L761.128 422.717L769.15 425.391L770.57 457.335C770.804 462.594 767.989 464.026 763.845 462.644ZM799.301 449.275C799.336 450.058 799.315 450.768 799.261 451.907L782.048 446.17C782.464 448.458 784.133 450.667 787.586 451.819C789.551 452.474 791.589 452.381 792.992 450.975L798.745 457.964C796.13 460.343 792.493 460.95 787.871 459.409C778.202 456.186 774.218 447.803 773.902 440.699C773.596 433.817 776.815 427.339 786.165 430.456C794.347 433.183 798.923 440.772 799.301 449.275ZM781.666 439.924L791.495 443.201C791.274 440.592 789.026 438.299 786.37 437.414C783.023 436.298 781.905 438.24 781.666 439.924ZM791.436 444.228L791.486 444.19L791.436 444.228ZM814.964 468.44C805.826 465.395 801.412 456.758 801.099 449.709C800.776 442.436 804.705 436.636 813.63 439.611C819.156 441.453 823.474 445.593 825.691 451.899L818.289 452.573C817.803 449.876 816.081 447.648 813.956 446.94C810.237 445.7 809.175 448.873 809.334 452.454C809.49 455.978 810.76 459.819 814.532 461.076C816.604 461.767 818.232 460.711 818.601 458.409L825.958 463.782C824.436 468.401 820.436 470.264 814.964 468.44ZM844.898 457.089L838.204 454.857L838.714 466.326C838.761 467.389 838.863 469.683 842.157 470.781C843.22 471.135 844.378 471.301 845.53 471.299L845.768 477.826C844.095 477.875 842.407 477.588 840.548 476.968C835.607 475.321 831.093 471.502 830.78 464.453L830.235 452.201L826.038 450.802L825.747 444.256L829.944 445.655L829.763 441.571L837.456 438.018L837.913 448.312L844.607 450.543L844.898 457.089ZM859.713 483.357C853.922 481.426 849.602 476.073 848.201 471.638L854.391 470.78C854.989 472.468 855.802 475.439 859.361 476.626C861.593 477.369 862.185 476.575 862.148 475.736C861.979 471.931 849.526 469.654 849.093 459.92C848.817 453.71 853.863 453.022 858.592 454.598C863.426 456.21 866.989 459.822 869.222 464.149L863.219 465.676C862.527 464.232 861.365 461.64 858.761 460.773C857.274 460.277 856.56 460.7 856.6 461.595C856.761 465.232 869.496 466.776 869.959 477.182C870.267 484.119 864.6 484.986 859.713 483.357Z" fill="#305E77"/>
<g filter="url(#filter2_i_115_3804)">
<path d="M1115 526.938C1111.5 535.437 1100.9 537.938 1083.5 537.938C1072 537.938 1054.5 534.437 1052 526.938V515.085C1056.49 508.846 1070.02 508.938 1083.5 508.938C1096.23 508.938 1110.03 509.713 1115 515.408V526.938Z" fill="#832E30"/>
<ellipse cx="1083.5" cy="514.938" rx="31.5" ry="12" fill="#AA4245"/>
<path d="M1103 514.142L1093.25 471.938H1073.39L1064 514.142C1064 514.142 1071.94 518.938 1083.86 518.938C1095.78 518.938 1103 514.142 1103 514.142Z" fill="#832E30"/>
<ellipse cx="1083.5" cy="458.681" rx="17.2358" ry="16.7438" fill="#AA4245"/>
</g>
<path d="M1127.6 725.997V704.652L1113.98 699.868C1133.7 693.98 1149.43 695.942 1154.83 697.66L1191.26 709.83V688.459C1184.64 686.251 1167.02 679.727 1154.83 675.973C1142.31 672.119 1127 675.613 1119.5 677.051C1098.01 681.173 1092.88 687.355 1093 689.931V711.276C1093 713.926 1096.68 715.57 1098.52 716.061L1127.6 725.997Z" fill="#647B8A"/>
<path d="M1117 676.958C1095.51 681.08 1092.88 686.551 1093 689.127C1092.99 690.726 1096.67 695.094 1111.48 699.775L1125.1 704.559L1190.5 688.127C1183.88 685.919 1166.69 679.381 1154.5 675.627C1141.99 671.773 1124.5 675.52 1117 676.958Z" fill="#89ABC2"/>
<path d="M1324.81 793.415V772.07L1311.2 767.286C1330.92 761.397 1346.65 763.36 1352.05 765.077L1388.48 777.248V755.877C1381.86 753.669 1364.24 747.144 1352.05 743.39C1339.53 739.536 1323.95 742.628 1316.72 744.469C1295.22 748.59 1290.1 754.773 1290.22 757.349V778.694C1290.22 781.344 1293.9 782.987 1295.74 783.478L1324.81 793.415Z" fill="#BBBBBB"/>
<path d="M1058 742.462V721.308L1258.94 789.39V810.735L1058 742.462Z" fill="#6A8394"/>
<path d="M1325.18 793.439V772.094L1258.57 789.391V810.735L1325.18 793.439Z" fill="#E7E7E7"/>
<path d="M1440 763.629V742.652L1388.48 755.901V777.246L1440 763.629Z" fill="#E7E7E7"/>
<path d="M1173.92 781.683V760.706L1119.46 741.938L1092.52 753.411C1088.1 754.588 1087 757.091 1087 758.195V777.695C1087 779.756 1089.13 781.285 1089.94 782.111C1091.5 783.695 1103 789.195 1111.73 790.516C1126.35 792.727 1137.37 791.865 1141.17 790.516L1173.92 781.683Z" fill="#748FA1"/>
<path d="M1237.59 674.938L1058 721.307L1117 741.438L1100 746.438C1092 748.438 1078.62 758.946 1094 765.938C1110.5 773.438 1132.5 773.938 1145 770.438L1174 761.438L1258.94 789.39L1325.18 772.094L1294.27 761.421C1289.24 758.968 1286.17 752.294 1314.14 745.228C1320.76 743.266 1337.18 740.076 1349.84 743.02C1350.82 743.266 1353.88 744.124 1358.3 745.596C1362.72 747.069 1380.26 753.079 1388.48 755.901L1440 742.652L1237.59 674.938Z" fill="#89ABC2"/>
<defs>
<filter id="filter0_i_115_3804" x="763.5" y="37.9375" width="164" height="240" filterUnits="userSpaceOnUse" color-interpolation-filters="sRGB">
<feFlood flood-opacity="0" result="BackgroundImageFix"/>
<feBlend mode="normal" in="SourceGraphic" in2="BackgroundImageFix" result="shape"/>
<feColorMatrix in="SourceAlpha" type="matrix" values="0 0 0 0 0 0 0 0 0 0 0 0 0 0 0 0 0 0 127 0" result="hardAlpha"/>
<feOffset dx="2" dy="1"/>
<feComposite in2="hardAlpha" operator="arithmetic" k2="-1" k3="1"/>
<feColorMatrix type="matrix" values="0 0 0 0 0.984314 0 0 0 0 0.854902 0 0 0 0 0.596078 0 0 0 1 0"/>
<feBlend mode="normal" in2="shape" result="effect1_innerShadow_115_3804"/>
</filter>
<filter id="filter1_i_115_3804" x="798.692" y="9.38477" width="109.489" height="189.1" filterUnits="userSpaceOnUse" color-interpolation-filters="sRGB">
<feFlood flood-opacity="0" result="BackgroundImageFix"/>
<feBlend mode="normal" in="SourceGraphic" in2="BackgroundImageFix" result="shape"/>
<feColorMatrix in="SourceAlpha" type="matrix" values="0 0 0 0 0 0 0 0 0 0 0 0 0 0 0 0 0 0 127 0" result="hardAlpha"/>
<feOffset dx="2" dy="1"/>
<feComposite in2="hardAlpha" operator="arithmetic" k2="-1" k3="1"/>
<feColorMatrix type="matrix" values="0 0 0 0 0.96741 0 0 0 0 0.862863 0 0 0 0 0.653771 0 0 0 1 0"/>
<feBlend mode="normal" in2="shape" result="effect1_innerShadow_115_3804"/>
</filter>
<filter id="filter2_i_115_3804" x="1052" y="441.938" width="63" height="96" filterUnits="userSpaceOnUse" color-interpolation-filters="sRGB">
<feFlood flood-opacity="0" result="BackgroundImageFix"/>
<feBlend mode="normal" in="SourceGraphic" in2="BackgroundImageFix" result="shape"/>
<feColorMatrix in="SourceAlpha" type="matrix" values="0 0 0 0 0 0 0 0 0 0 0 0 0 0 0 0 0 0 127 0" result="hardAlpha"/>
<feOffset dx="1" dy="2"/>
<feComposite in2="hardAlpha" operator="arithmetic" k2="-1" k3="1"/>
<feColorMatrix type="matrix" values="0 0 0 0 0.984314 0 0 0 0 0.854902 0 0 0 0 0.596078 0 0 0 1 0"/>
<feBlend mode="normal" in2="shape" result="effect1_innerShadow_115_3804"/>
</filter>
</defs>
</svg>
