<svg width="1440" height="900" viewBox="0 0 1440 900" fill="none" xmlns="http://www.w3.org/2000/svg">
<g clip-path="url(#clip0_59_9200)">
<path d="M648.814 238.415V217.07L635.197 212.286C654.923 206.397 670.649 208.36 676.047 210.077L712.481 222.248V200.877C705.856 198.669 688.237 192.144 676.047 188.39C663.532 184.536 647.955 187.628 640.718 189.469C619.225 193.59 614.098 199.773 614.22 202.349V223.694C614.22 226.344 617.901 227.987 619.741 228.478L648.814 238.415Z" fill="#647B8A"/>
<path d="M382 187.462V166.308L582.937 234.39V255.735L382 187.462Z" fill="#6A8394"/>
<path d="M420.5 186.938V198.938C416.5 199.771 417.5 215.938 416.5 222.938C429.834 228.938 442.4 233.738 464 226.938L491 213.938L470.263 229.938C464.763 231.438 445.763 236.438 433.263 239.438C420.53 242.494 405.737 243.854 398.5 242.014C377.008 237.893 371.88 231.71 372.003 229.134V207.789C372.003 205.139 375.683 203.495 377.523 203.005L394.5 192.438L420.5 186.938Z" fill="#607685"/>
<path d="M497.925 225.683V204.706L443.459 185.938L416.521 197.411C412.105 198.588 411.5 202.18 411 202.938V221.695C411 223.756 413.134 225.285 413.945 226.111C415.5 227.695 427 233.195 435.731 234.516C450.349 236.727 461.369 235.865 465.172 234.516L497.925 225.683Z" fill="#748FA1"/>
<path d="M649.18 238.439V217.094L582.569 234.391V255.735L649.18 238.439Z" fill="#4B6578"/>
<path d="M764 208.629V187.652L712.478 200.901V222.246L764 208.629Z" fill="#4B6578"/>
<path d="M561.592 119.938L382 166.307L441 186.438L424 191.438C416 193.438 402.62 203.946 418 210.938C434.5 218.438 456.5 218.938 469 215.438L498 206.438L582.937 234.39L649.18 217.094L618.266 206.421C613.237 203.968 610.17 197.294 638.139 190.228C644.763 188.266 661.177 185.076 673.837 188.02C674.818 188.266 677.885 189.124 682.301 190.596C686.717 192.069 704.259 198.079 712.478 200.901L764 187.652L561.592 119.938Z" fill="#89ABC2"/>
<path d="M521.667 250.937V272.282L535.284 277.066C515.558 282.954 499.832 280.991 494.434 279.274L458 267.104V288.474C464.625 290.683 482.244 297.207 494.434 300.961C506.949 304.815 522.526 301.723 529.763 299.883C551.256 295.761 556.383 289.579 556.261 287.002V265.658C556.261 263.008 552.58 261.364 550.74 260.873L521.667 250.937Z" fill="#4B6578"/>
<path d="M573.001 258.629V237.652L521.479 250.901V272.246L573.001 258.629Z" fill="#4B6578"/>
<path d="M191 237.462V216.308L250 235.938V256.938L191 237.462Z" fill="#E4EDF2"/>
<path d="M306.5 277.437V256.437L323 251.437C315.5 240.937 282.898 247.22 277.5 248.937L250 256.64V235.937C255.5 234.437 274.5 229.437 287 226.437C299.734 223.381 314.526 222.021 321.763 223.861C343.256 227.982 348.383 234.165 348.261 236.741V258.086C348.261 260.736 344.58 262.38 342.74 262.87L306.5 277.437Z" fill="#ADC1CF"/>
<path d="M306.5 277.438V255.938L392 283.938V305.938L306.5 277.438Z" fill="#E4EDF2"/>
<path d="M324.5 283.438L325 261.938L318 281.438L324.5 283.438Z" fill="#133141" fill-opacity="0.3"/>
<path d="M241.5 254.438L242 232.938L235 252.438L241.5 254.438Z" fill="#133141" fill-opacity="0.3"/>
<path d="M458.18 288.439V267.094L392 283.938V305.938L458.18 288.439Z" fill="#4B6578"/>
<path d="M550.741 260.874L521.5 250.438L458.001 267.104L494.434 279.275C499.832 280.992 515.558 282.955 535.284 277.067C542.276 275.171 556.261 270.235 556.261 265.658C556.261 263.008 552.5 261.438 550.741 260.874Z" fill="#89ABC2"/>
<path d="M370.592 169.938L191 216.307L250 235.938L264 232.438C286 227.438 300.452 226.099 317 227.938C335 229.938 348 245.438 318.5 252.438L306.5 255.938L391.937 284.39L458.18 267.094L521.478 250.901L573 237.652L498 212.438L474 220.438C452 226.438 424.978 220.679 417.5 217.938C402.5 212.438 400.8 204.138 406 196.938C411.2 189.738 417.735 187.938 420.5 186.938L370.592 169.938Z" fill="#89ABC2"/>
<path d="M267.813 526.413V505.068L254.197 500.284C273.922 494.395 289.649 496.358 295.047 498.075L331.48 510.246V488.875C324.856 486.667 307.237 480.142 295.047 476.388C282.532 472.534 266.955 475.627 259.717 477.467C238.225 481.588 233.097 487.771 233.22 490.347V511.692C233.22 514.342 236.9 515.986 238.74 516.476L267.813 526.413Z" fill="#647B8A"/>
<path d="M1.00049 475.46V454.306L201.937 522.389V543.733L1.00049 475.46Z" fill="#E4EDF2"/>
<path d="M268.18 526.436V505.091L201.569 522.388V543.733L268.18 526.436Z" fill="#587284"/>
<path d="M383 496.627V475.65L331.478 488.899V510.244L383 496.627Z" fill="#4B6578"/>
<path d="M116.926 513.923V492.947L62.4593 474.178L35.5212 485.651C31.105 486.829 30.001 489.331 30.001 490.435V509.935C30.001 511.996 32.1341 513.526 32.9451 514.351C34.501 515.935 46.001 521.435 54.731 522.756C69.3499 524.967 80.3694 524.105 84.1722 522.756L116.926 513.923Z" fill="#E4EDF2"/>
<path d="M239 428.124V449.101L293.466 467.87L320.405 456.397C324.821 455.219 325.925 452.717 325.925 451.613V432.113C325.925 430.052 325.311 427.263 324.5 426.438C322.944 424.854 309.925 420.613 301.195 419.292C286.576 417.08 275.556 417.943 271.754 419.292L239 428.124Z" fill="#5B7180"/>
<path d="M180.592 407.936L1.00049 454.305L60.0005 474.436L44.5005 478.936C35.0005 481.436 22.0005 491.436 36.0005 498.436C44.0005 501.936 66.5005 509.436 89.5005 502.936L117 494.436L201.937 522.388L268.18 505.092L237.266 494.419C232.237 491.966 229.17 485.292 257.139 478.226C263.763 476.264 280.177 473.074 292.837 476.018C293.818 476.264 296.885 477.122 301.301 478.595C305.717 480.067 323.259 486.077 331.478 488.899L383 475.65L180.592 407.936Z" fill="#9CBBD0"/>
<path d="M1 454.677L201.5 521.938L239.5 475.438L291.5 465.938L381 475.438L297.5 446.938L311 443.438C324.5 439.938 332.15 428.598 318.5 420.938C307 414.486 288 414.438 265 420.938L239.5 427.391L182.064 407.939L115.821 425.235L146.734 435.908C151.764 438.361 154.83 445.035 126.861 452.1C120.237 454.063 103.824 457.253 91.1638 454.309C90.1824 454.063 87.1156 453.204 82.6994 451.732C78.2832 450.26 60.7412 444.249 52.5222 441.428L1 454.677Z" fill="#9CBBD0"/>
<path opacity="0.5" d="M183.263 438.555L331.5 487.943L345 508.437L340.5 508.437L331.5 495.013L159.994 438.357L183.263 438.555Z" fill="#0F2736"/>
<g filter="url(#filter0_i_59_9200)">
<path d="M235.5 236.438L222 233.437L161 438.705L173.993 441.937L235.5 236.438Z" fill="#558EAB"/>
<path d="M242.5 232.937L235 236.437L173.859 441.937L181.611 438.476L242.5 232.937Z" fill="#35637A"/>
<path d="M230.973 229.937L222 233.438L235.2 236.506L242.5 232.937L230.973 229.937Z" fill="#4D829C"/>
<path d="M303 289.938L229 263.438L230.167 259.938L304.167 286.438L303 289.938Z" fill="#558EAB"/>
<path d="M233.167 259.938H230.167L304.167 286.438L306.667 285.438L233.167 259.938Z" fill="#4D829C"/>
<path d="M289 335.938L215 309.438L216.167 305.938L290.167 332.438L289 335.938Z" fill="#558EAB"/>
<path d="M219.167 305.938H216.167L290.167 332.438L292.667 331.438L219.167 305.938Z" fill="#4D829C"/>
<path d="M275 382.938L201 356.438L202.167 352.938L276.167 379.438L275 382.938Z" fill="#558EAB"/>
<path d="M205.167 352.938H202.167L276.167 379.438L278.667 378.438L205.167 352.938Z" fill="#4D829C"/>
<path d="M261 429.938L187 403.438L188.167 399.938L262.167 426.438L261 429.938Z" fill="#558EAB"/>
<path d="M191.167 399.938H188.167L262.167 426.438L264.667 425.438L191.167 399.938Z" fill="#4D829C"/>
<path d="M318.5 264.438L305 260.937L244 466.705L256.993 469.937L318.5 264.438Z" fill="#558EAB"/>
<path d="M325.5 260.937L318 264.437L256.859 469.937L264.611 466.476L325.5 260.937Z" fill="#35637A"/>
<path d="M313.973 257.937L305 260.938L318.201 264.506L325.5 260.937L313.973 257.937Z" fill="#4D829C"/>
</g>
<path opacity="0.5" d="M309.045 245.437C309.679 245.437 310.336 245.346 310.998 245.166L632.665 157.95C640.674 155.778 643.843 144.01 636.972 141.955L557.02 118.042C555.92 117.713 554.672 117.72 553.39 118.062L233.321 203.413C225.295 205.553 222.094 217.357 228.98 219.417L263.727 229.81C266.055 230.506 267.479 232.626 267.479 235.395L267.479 251.932L274 249.937L279.5 248.438L281.5 247.938L284 247.438L287 246.938L294.5 245.937L303.5 245.437L309.045 245.437Z" fill="#0C2837"/>
<g filter="url(#filter1_i_59_9200)">
<path d="M579.613 36.4969C578.274 36.0879 576.718 36.0674 575.043 36.514L562.611 32.7132C564.286 32.2666 565.842 32.2871 567.181 32.6961L579.613 36.4969Z" fill="#A1B0B9"/>
<path d="M575.043 36.5137L246.97 124L234.538 120.199L562.611 32.7129L575.043 36.5137Z" fill="#A1B0B9"/>
<path d="M233.444 213.491C233.276 217.276 235.165 220.026 238.09 220.921L225.661 217.121C222.734 216.227 220.844 213.476 221.012 209.69L233.444 213.491Z" fill="#EEEFF0"/>
<path d="M236.863 136.567L233.444 213.492L221.012 209.691L224.431 132.767L236.863 136.567Z" fill="#EEEFF0"/>
<path d="M236.863 136.567C237.108 131.049 241.633 125.423 246.969 124L234.538 120.199C229.201 121.622 224.676 127.249 224.431 132.766L236.863 136.567Z" fill="#D3D5D6"/>
</g>
<rect x="2.30459" y="1.85338" width="354.538" height="92" rx="7.5" transform="matrix(0.966235 -0.257663 -0.0444006 0.999014 237.467 127.173)" fill="#2B546B" stroke="#204C65" stroke-width="5"/>
<path d="M248.138 187.29L250.086 158.081L255.808 156.555L254.224 180.316L266.074 177.156L265.71 182.604L248.138 187.29ZM278.301 158.501C283.78 157.04 286.941 159.243 286.611 164.188L285.74 177.263L280.708 178.605L280.461 176.325C278.901 178.799 276.619 180.148 274.59 180.689C270.247 181.847 267.315 179.789 267.586 175.724C267.748 173.293 268.921 171.252 270.811 169.801C272.155 168.784 273.797 168.058 275.827 167.517L281.102 166.11L281.133 165.649C281.259 163.763 280 162.905 277.728 163.511C275.942 163.987 274.185 165.238 272.436 167.557L268.688 165.181C271.313 161.682 274.73 159.454 278.301 158.501ZM275.795 175.758C278.352 175.076 280.623 172.7 280.823 170.301L276.318 171.502C275.182 171.805 274.4 172.178 273.888 172.685C273.378 173.15 273.101 173.718 273.059 174.347C272.976 175.604 273.929 176.255 275.795 175.758ZM297.008 174.711C292.706 175.858 289.69 173.864 288.961 171.053L293.437 167.884C293.837 169.053 294.477 170.817 297.196 170.092C299.185 169.562 299.985 168.319 300.041 167.481C300.253 164.296 290.185 168.833 290.685 161.332C290.973 157.016 294.794 154.103 298.528 153.107C302.099 152.155 304.619 153.212 305.977 155.566L301.595 159.123C301.061 158.153 300.228 156.894 298.118 157.456C296.779 157.813 295.963 158.69 295.91 159.486C295.715 162.419 305.989 157.786 305.477 165.455C305.145 170.442 300.782 173.705 297.008 174.711ZM321.391 151.826L316.359 153.168L315.722 162.723C315.641 163.938 316.047 165.024 318.076 164.483C318.847 164.277 319.711 163.882 320.623 163.351L320.324 167.835C319.035 168.631 317.763 169.176 316.424 169.533C312.853 170.486 309.889 169.506 310.213 164.645L310.881 154.629L307.634 155.495L307.93 151.053L311.177 150.187L311.412 146.667L317.17 141.015L316.655 148.726L321.688 147.384L321.391 151.826ZM345.288 169.781L349.552 159.629L343.218 141.643L349.305 140.02L352.907 152.354L358.639 137.531L364.686 135.918L351.254 168.19L345.288 169.781ZM382.812 141.169C382.77 141.798 382.69 142.395 382.559 143.171L369.126 146.753C369.224 148.868 370.541 150.039 373.423 149.271C375.086 148.827 376.708 147.819 378.07 145.933L381.652 148.394C379.337 151.44 376.488 153.517 373.038 154.436C365.896 156.341 363.407 151.818 363.768 146.412C364.12 141.132 367.254 134.781 374.152 132.941C380.402 131.274 383.214 135.135 382.812 141.169ZM369.373 142.448L377.733 140.218C377.803 137.977 376.069 137.081 373.796 137.687C370.996 138.434 369.728 140.707 369.373 142.448ZM395.285 127.305C400.764 125.845 403.925 128.047 403.596 132.992L402.724 146.067L397.692 147.409L397.445 145.129C395.885 147.603 393.603 148.952 391.574 149.494C387.232 150.652 384.299 148.593 384.57 144.528C384.733 142.098 385.905 140.056 387.795 138.605C389.139 137.589 390.782 136.862 392.811 136.321L398.086 134.914L398.117 134.453C398.243 132.568 396.985 131.709 394.712 132.315C392.926 132.792 391.169 134.042 389.42 136.361L385.672 133.985C388.297 130.486 391.714 128.258 395.285 127.305ZM392.779 144.562C395.336 143.88 397.607 141.505 397.807 139.105L393.302 140.306C392.166 140.609 391.384 140.983 390.872 141.49C390.362 141.955 390.085 142.522 390.043 143.151C389.96 144.408 390.913 145.06 392.779 144.562ZM419.813 120.765C421.153 120.407 422.345 120.46 423.625 120.983L420.65 126.757C420.069 126.5 419.155 126.456 418.181 126.716C415.624 127.397 414.089 129.494 413.838 133.266L413.17 143.282L407.651 144.753L409.029 124.093L414.588 122.611L414.37 125.879C415.42 123.295 417.622 121.349 419.813 120.765ZM438.271 136.588L433.398 117.595L439.242 116.036L441.611 127.136L445.735 114.305L450.402 113.06L452.939 124.033L456.895 111.329L462.78 109.76L455.112 132.097L450.242 133.396L447.553 121.723L443.222 135.268L438.271 136.588ZM481.703 114.798C481.661 115.427 481.582 116.024 481.45 116.8L468.017 120.382C468.116 122.496 469.433 123.668 472.314 122.9C473.978 122.456 475.6 121.447 476.961 119.561L480.544 122.022C478.228 125.069 475.379 127.145 471.93 128.065C464.787 129.97 462.299 125.447 462.659 120.041C463.011 114.761 466.145 108.409 473.044 106.57C479.294 104.903 482.105 108.764 481.703 114.798ZM468.265 116.077L476.625 113.847C476.694 111.606 474.96 110.71 472.688 111.316C469.888 112.063 468.62 114.335 468.265 116.077ZM507.861 97.2851C512.407 96.0731 514.898 98.1666 514.579 102.944L513.677 116.48L508.198 117.941L509.006 105.83C509.19 103.064 508.14 102.068 505.787 102.696C502.581 103.55 501.509 106.471 501.135 112.086L500.609 119.965L495.09 121.436L497.038 92.2272L502.557 90.7554L501.844 101.442C503.26 99.3353 505.305 97.9669 507.861 97.2851ZM528.082 91.893C533.56 90.432 536.722 92.6349 536.392 97.58L535.521 110.655L530.489 111.997L530.242 109.716C528.682 112.19 526.4 113.54 524.371 114.081C520.028 115.239 517.096 113.181 517.367 109.116C517.529 106.685 518.702 104.644 520.592 103.193C521.936 102.176 523.578 101.45 525.607 100.909L530.883 99.5019L530.914 99.0409C531.04 97.1551 529.781 96.2969 527.509 96.9029C525.723 97.3791 523.966 98.6298 522.217 100.949L518.469 98.5727C521.094 95.0737 524.511 92.8453 528.082 91.893ZM525.576 109.149C528.133 108.468 530.404 106.092 530.604 103.693L526.099 104.894C524.963 105.197 524.181 105.57 523.668 106.077C523.159 106.542 522.882 107.11 522.84 107.739C522.756 108.996 523.709 109.647 525.576 109.149ZM554.612 76.874L560.091 75.413L558.144 104.622L552.665 106.083L552.788 104.239C551.296 106.283 549.063 107.496 547.115 108.016C541.799 109.434 539.103 105.625 539.517 99.4224C539.972 92.5915 543.846 87.6891 548.554 86.4338C550.705 85.8602 552.794 86.2086 553.917 87.3088L554.612 76.874ZM548.89 102.315C552.218 101.428 553.635 98.7034 553.839 95.6442C554.038 92.6688 552.996 90.3533 549.668 91.2407C546.868 91.9874 545.268 94.4723 545.033 97.9925C544.795 101.555 546.131 103.051 548.89 102.315ZM565.67 88.867L566.053 83.1257L571.897 81.5674L571.514 87.3086L565.67 88.867ZM564.737 102.864L565.117 97.1645L570.961 95.6062L570.581 101.306L564.737 102.864Z" fill="#F3F5F4"/>
<path opacity="0.3" fill-rule="evenodd" clip-rule="evenodd" d="M522.101 279.909C527.788 280.058 532.571 281.792 534 286.938C534.066 287.176 534.135 287.408 534.205 287.635L534.307 287.7L534.231 287.716C535.029 290.253 536.08 292.098 536.875 293.495C538.674 296.655 539.169 297.524 532.5 298.938C531.142 299.226 529.693 299.575 528.192 299.938C518.735 302.219 507.216 304.999 503.5 295.938C501.536 291.148 500.411 288.156 500.708 286.119L470.902 274.505C461.904 275.254 453.158 275.11 449.601 273.305C443.817 270.37 441.449 269.071 441.449 269.071C428.866 253.718 437.997 255.617 448.387 257.778C453.351 258.81 458.603 259.903 461.911 259.202C464.867 258.575 467.661 257.938 470.31 257.335C481.529 254.779 490.136 252.817 497.385 254.74L502.885 262.24C502.694 263.371 501.971 264.742 500.525 266.139L522.101 279.909Z" fill="#071821"/>
<g filter="url(#filter2_i_59_9200)">
<path d="M498 256.938C494.5 265.437 483.896 267.938 466.5 267.938C455 267.938 437.499 264.437 435 256.938V245.085C439.493 238.846 453.016 238.938 466.5 238.938C479.234 238.938 493.034 239.713 498 245.408V256.938Z" fill="#386881"/>
<ellipse cx="466.5" cy="244.938" rx="31.5" ry="12" fill="#558EAB"/>
<path d="M486 244.142L476.25 201.938H456.388L447 244.142C447 244.142 454.944 248.938 466.861 248.938C478.777 248.938 486 244.142 486 244.142Z" fill="#386881"/>
<ellipse cx="466.499" cy="188.681" rx="17.2358" ry="16.7438" fill="#558EAB"/>
</g>
<path d="M1067.81 349.415V328.07L1054.2 323.286C1073.92 317.397 1089.65 319.36 1095.05 321.077L1131.48 333.248V311.877C1124.86 309.669 1107.24 303.144 1095.05 299.39C1082.53 295.536 1066.95 298.628 1059.72 300.469C1038.22 304.59 1033.1 310.773 1033.22 313.349V334.694C1033.22 337.344 1036.9 338.987 1038.74 339.478L1067.81 349.415Z" fill="#647B8A"/>
<path d="M869.596 282.807V261.463L855.979 256.678C875.705 250.79 891.431 252.753 896.829 254.47L933.262 266.641V245.27C926.638 243.062 909.019 236.537 896.829 232.783C884.314 228.929 869 232.423 861.499 233.861C840.007 237.983 834.879 244.166 835.002 246.742V268.087C835.002 270.737 838.682 272.38 840.522 272.871L869.596 282.807Z" fill="#E9F5FD"/>
<path d="M1068.18 349.439V328.094L1002 344.938V365.938L1068.18 349.439Z" fill="#587284"/>
<path d="M1183 319.629V298.652L1131.48 311.901V333.246L1183 319.629Z" fill="#587284"/>
<path d="M980.592 230.938L801 276.938L860 296.938L916.5 300.438L935 311.438L917 316.938L1002 344.938L1068.18 328.094L1037.27 317.421C1032.24 314.968 1029.17 308.294 1057.14 301.228C1063.76 299.266 1080.18 296.076 1092.84 299.02C1093.82 299.266 1096.88 300.124 1101.3 301.596C1105.72 303.069 1123.26 309.079 1131.48 311.901L1183 298.652L980.592 230.938Z" fill="#91B5CE"/>
<path d="M801 298.092V276.938L860 296.568V317.568L801 298.092Z" fill="#E9F5FD"/>
<path d="M931.763 284.491C953.255 288.613 958.383 294.795 958.26 297.372C958.173 299.814 953 306.172 933 312.068C925.5 301.568 892.898 307.85 887.5 309.568L860 317.27V296.568C865.5 295.068 884.5 290.068 897 287.067C909.733 284.012 924.5 283.098 931.763 284.491Z" fill="#C9D9E4"/>
<path d="M917 337.938V316.938L1002 344.938V365.938L917 337.938Z" fill="#E9F5FD"/>
<path d="M980.592 230.938L801 277.307L860 296.938L874 293.438C896 288.438 910.452 287.099 927 288.938C945 290.938 958 306.438 928.5 313.438L916.5 316.938L1001.94 345.39L1068.18 328.094L1018.5 321.438L1042.5 294.938L1094 292.438L1131.48 311.901L1183 298.652L980.592 230.938Z" fill="#91B5CE"/>
<path d="M859.003 233.769C837.511 237.891 834.881 243.361 835.004 245.938C834.99 247.536 838.666 251.904 853.483 256.586L867.1 261.37L932.5 244.938C925.876 242.729 908.69 236.191 896.5 232.438C883.985 228.584 866.504 232.33 859.003 233.769Z" fill="#91B5CE"/>
<path opacity="0.4" d="M977.5 246.095L1158 304.937L1172.5 322.437L1163 324.937L1144.5 308.937L957.5 245.937L977.5 246.095Z" fill="#0F2736"/>
<path d="M706.596 510.997V489.652L692.979 484.868C712.705 478.98 728.431 480.942 733.829 482.66L770.262 494.83V473.459C763.638 471.251 746.019 464.727 733.829 460.973C721.314 457.119 706 460.613 698.499 462.051C677.007 466.173 671.879 472.355 672.002 474.931V496.276C672.002 498.926 675.682 500.57 677.522 501.061L706.596 510.997Z" fill="#647B8A"/>
<path d="M696.003 461.958C674.511 466.08 671.881 471.551 672.004 474.127C671.99 475.726 675.5 479.938 690.483 484.775L707.5 489.938L769.5 473.127C762.876 470.919 745.69 464.381 733.5 460.627C720.985 456.773 703.504 460.52 696.003 461.958Z" fill="#89ABC2"/>
<path d="M1020 549.129V528.152L965.5 541.938V562.438L1020 549.129Z" fill="#7894A8"/>
<path d="M638 527.962V506.808L691 524.438V542.938L638 527.962Z" fill="#6A8394"/>
<path d="M765.077 569.529V548.529C765.077 548.529 776.5 549.938 774 539.938C771.5 529.938 734.5 527.938 717.781 533.529L690 541.232L690.505 523.619C696.061 522.119 714.75 516.119 727.378 513.119C740.241 510.063 755.184 506.612 762.495 508.453C784.207 512.574 788.495 515.619 789 521.619V541.619C789 544.269 785.545 546.971 783.686 547.462L765.077 569.529Z" fill="#5B7180"/>
<path d="M762.5 568.438V549.438L839 574.438V595.938L762.5 568.438Z" fill="#6A8394"/>
<path d="M908 576.438V556.938L839 574.438V595.938L908 576.438Z" fill="#587284"/>
<path d="M906.5 557.438L838.936 574.89L762.5 549.438L772 545.438C787 538.938 787 523.223 765 516.938C750.252 512.724 737 512.938 715 517.938L691 524.438L638 506.807L758 510.938L790 499.438L813 488.938L817.592 460.438L867.5 477.438C864.734 478.438 858.2 480.238 853 487.438C847.8 494.638 849.5 502.938 864.5 508.438C871.977 511.179 899 516.938 921 510.938L945 502.938L1020 528.152L968.478 541.401L906.5 557.438Z" fill="#89ABC2"/>
<path d="M876 480.625V501.602L930.466 520.371L957.405 508.898C961.821 507.72 962.925 505.218 962.925 504.114V484.614C962.925 482.553 962.311 479.764 961.5 478.939C959.944 477.355 946.925 473.114 938.195 471.793C923.576 469.581 912.556 470.444 908.754 471.793L876 480.625Z" fill="#5B7180"/>
<path d="M1018 527.938L934.5 499.438L948 495.938C961.5 492.438 969.15 481.098 955.5 473.438C944 466.986 925 466.938 902 473.438L876.5 479.891L818 459.938L770 472.438L702 490.438L638 506.938L781.5 515.938L838.5 574.438L876.5 527.938L929 521.938L1018 527.938Z" fill="#89ABC2"/>
<path d="M1114.6 531.997V510.652L1100.98 505.868C1120.7 499.98 1136.43 501.942 1141.83 503.66L1178.26 515.83V494.459C1171.64 492.251 1154.02 485.727 1141.83 481.973C1129.31 478.119 1114 481.613 1106.5 483.051C1085.01 487.173 1079.88 493.355 1080 495.931V517.276C1080 519.926 1083.68 521.57 1085.52 522.061L1114.6 531.997Z" fill="#647B8A"/>
<path d="M1104 482.958C1082.51 487.08 1079.88 492.551 1080 495.127C1079.99 496.726 1083.67 501.094 1098.48 505.775L1112.1 510.559L1177.5 494.127C1170.88 491.919 1153.69 485.381 1141.5 481.627C1128.99 477.773 1111.5 481.52 1104 482.958Z" fill="#89ABC2"/>
<path d="M1176.5 492.938V514.938L1191.28 520.364C1171.56 526.252 1155.83 524.289 1150.43 522.572L1114 510.558V531.772C1120.62 533.98 1138.24 540.505 1150.43 544.259C1162.95 548.113 1178.53 545.021 1185.76 543.181C1207.26 539.059 1212.38 532.876 1212.26 530.3V508.955C1212.26 506.306 1210.34 504.226 1208.5 503.735L1176.5 492.938Z" fill="#BBBBBB"/>
<path d="M1428 569.129V548.152L1376.48 561.401V582.746L1428 569.129Z" fill="#4C6577"/>
<path d="M1046 547.962V526.808L1105 546.438V567.438L1046 547.962Z" fill="#6A8394"/>
<path d="M1151.5 584.347V563.347L1168 558.347C1160.5 547.847 1127.9 554.13 1122.5 555.847L1095 563.55V542.847C1100.5 541.347 1119.5 536.347 1132 533.347C1144.73 530.291 1159.53 528.931 1166.76 530.771C1188.26 534.893 1193.38 541.075 1193.26 543.651V564.996C1193.26 567.646 1189.58 569.29 1187.74 569.78L1151.5 584.347Z" fill="#647B8A"/>
<path d="M1090.5 552.37L1090 571.535L1144.47 590.304L1171.4 578.831C1175.82 577.653 1176.92 575.15 1176.92 574.046V554.546C1176.92 552.486 1175.81 550.196 1175 549.37C1173.44 547.787 1160.92 543.046 1152.19 541.726C1137.58 539.514 1126.8 542.521 1123 543.87L1106.5 548.37L1090.5 552.37Z" fill="#5B7180"/>
<path d="M1168.5 588.438V568.938L1246.5 594.714V616.068L1168.5 588.438Z" fill="#6A8394"/>
<path d="M1312.6 598.807L1313 578.438L1299 573.938C1323 565.438 1334.43 568.753 1339.83 570.47L1376.5 582.728V561.438C1369.88 559.229 1352.02 552.537 1339.83 548.783C1327.31 544.929 1311.74 548.021 1304.5 549.861C1283.01 553.983 1277.88 560.166 1278 562.742V584.087C1278 586.736 1281.68 588.38 1283.52 588.871L1312.6 598.807Z" fill="#647B8A"/>
<path d="M1313.18 598.938V578.092L1246.57 594.89V616.235L1313.18 598.938Z" fill="#4C6577"/>
<path d="M1312.5 577.938L1246.94 594.89L1168.5 568.938L1176.5 564.438C1189 556.938 1181.5 544.188 1172 539.438C1157.71 532.293 1142 531.438 1120 536.438L1095 543.438L1046 526.807L1166 530.938L1198 519.438L1221 508.938L1225.59 480.438L1275.5 497.438C1272.73 498.438 1266.2 500.238 1261 507.438C1255.8 514.638 1257.5 522.938 1272.5 528.438C1279.98 531.179 1307 536.938 1329 530.938L1353 522.938L1428 548.152L1376.48 561.401L1353 543.438L1297.5 538.938L1264 569.938L1312.5 577.938Z" fill="#89ABC2"/>
<path d="M1284 500.625V521.602L1338.47 540.371L1365.4 528.898C1369.82 527.72 1370.92 525.218 1370.92 524.114V504.614C1370.92 502.553 1370.31 499.764 1369.5 498.939C1367.94 497.355 1354.92 493.114 1346.19 491.793C1331.58 489.581 1320.56 490.444 1316.75 491.793L1284 500.625Z" fill="#5B7180"/>
<path d="M1225.59 480.938L1046 527.307L1095 543.438L1117.5 516.438L1195 531.938L1206 570.438L1168.5 568.938L1246.94 595.39L1313.18 578.094L1282.27 567.421C1277.24 564.968 1274.17 558.294 1302.14 551.228C1308.76 549.266 1325.18 546.076 1337.84 549.02C1338.82 549.266 1341.88 550.124 1346.3 551.596C1350.72 553.069 1368.26 559.079 1376.48 561.901L1428 548.652L1225.59 480.938Z" fill="#89ABC2"/>
<path d="M1426 547.938L1342.5 519.438L1356 515.938C1369.5 512.438 1377.15 501.098 1363.5 493.438C1352 486.986 1333 486.938 1310 493.438L1284.5 499.891L1226 479.938L1176.5 492.938L1113 509.438L1046 526.938L1189.5 535.938L1246.5 594.438L1284.5 547.938L1337 541.938L1426 547.938Z" fill="#89ABC2"/>
<path d="M982 541.438V563.438L994 567.438C1023.5 577.438 961.331 579.655 955.933 577.938L910.5 559.938V577.938C917.124 580.146 943.743 589.005 955.933 592.759C968.448 596.613 984.025 593.521 991.263 591.681C1012.76 587.559 1017.88 581.376 1017.76 578.8V557.455C1017.76 554.806 1015.84 552.726 1014 552.235L982 541.438Z" fill="#5C7180"/>
<path d="M1233.5 617.629V596.652L1181.98 609.901V631.246L1233.5 617.629Z" fill="#4C6577"/>
<path d="M851.5 596.462V575.308L910.5 594.938V615.938L851.5 596.462Z" fill="#6A8394"/>
<path d="M967.5 539.437L972 561.937L986.783 565.066C967.057 570.954 951.331 568.991 945.933 567.274L910.5 554.437V576.937C917.124 579.145 933.743 585.207 945.933 588.961C958.448 592.815 974.025 589.723 981.263 587.883C1002.75 583.761 1002.12 577.013 1002 574.437L1002 555.437C1002 550.937 993 548.937 990.5 547.937L967.5 539.437Z" fill="#6A8394"/>
<path d="M967 636.437V615.437L983.5 610.437C976 599.937 943.398 606.22 938 607.937L910.5 615.64V594.937C916 593.437 935 588.437 947.5 585.437C960.233 582.381 975.025 581.021 982.263 582.861C1003.76 586.982 1008.88 593.165 1008.76 595.741V617.086C1008.76 619.736 1005.08 621.38 1003.24 621.87L967 636.437Z" fill="#647B8A"/>
<path d="M967 636.438V614.938L1052 643.214V664.568L967 636.438Z" fill="#6A8394"/>
<path d="M1118.1 647.307L1118.5 626.938L1104.5 622.438C1128.5 613.938 1139.93 617.253 1145.33 618.97L1182 631.228V609.938C1175.38 607.729 1157.52 601.037 1145.33 597.283C1132.81 593.429 1117.24 596.521 1110 598.361C1088.51 602.483 1083.38 608.666 1083.5 611.242V632.587C1083.5 635.236 1087.18 636.88 1089.02 637.371L1118.1 647.307Z" fill="#647B8A"/>
<path d="M1118.68 647.438V626.592L1052.07 643.39V664.735L1118.68 647.438Z" fill="#4C6577"/>
<path d="M1118 626.438L1052.44 643.39L967 614.938L979 611.438C1008.5 604.438 995.5 588.938 977.5 586.938C960.952 585.099 946.5 586.438 924.5 591.438L910.5 594.938L851.5 575.307L971.5 579.438L1006.5 575.938L1026.5 557.438L1031.09 528.938L1081 545.938C1078.23 546.938 1071.7 548.738 1066.5 555.938C1061.3 563.138 1063 571.438 1078 576.938C1085.48 579.679 1112.5 585.438 1134.5 579.438L1158.5 571.438L1233.5 596.652L1181.98 609.901L1158.5 591.938L1103 587.438L1069.5 618.438L1118 626.438Z" fill="#89ABC2"/>
<path d="M1031.09 529.438L1233.5 597.152L1181.98 610.401C1173.76 607.579 1156.22 601.569 1151.8 600.096C1147.38 598.624 1144.32 597.766 1143.34 597.52C1130.68 594.576 1114.26 597.766 1107.64 599.728C1079.67 606.794 1082.74 613.468 1087.77 615.921L1118.68 626.594L1052.44 643.89L967 614.938L1011.5 618.938L1000.5 580.438L965.379 577.245L939.5 580.438L928.173 579.842L910.5 594.938L851.5 575.807L928.173 579.842L934.5 574.438L965.379 577.245L1016.5 570.938L1031.09 529.438Z" fill="#89ABC2"/>
<path d="M1231.5 596.438L1148 567.938L1161.5 564.438C1175 560.938 1182.65 549.598 1169 541.938C1157.5 535.486 1138.5 535.438 1115.5 541.938L1090 548.391L1031.5 528.438L982 541.438L1049 552.438L1034.5 579.438L911.5 572.938L908.5 560.438L851.5 575.438L995 584.438L1052 642.938L1090 596.438L1142.5 590.438L1231.5 596.438Z" fill="#D9D9D9"/>
<path d="M1231.5 596.438L1148 567.938L1161.5 564.438C1175 560.938 1182.65 549.598 1169 541.938C1157.5 535.486 1138.5 535.438 1115.5 541.938L1090 548.391L1031.5 528.438L982 541.438C997.5 546.938 1000 546.938 1005 549.938C1010.59 553.292 1009 562.938 1001.5 568.438C994 573.938 965.5 578.938 940 569.938L910.5 559.938L851.5 575.438L995 584.438L1052 642.938L1090 596.438L1142.5 590.438L1231.5 596.438Z" fill="#89ABC2"/>
<path d="M996.5 549.937L967.5 539.437L910.5 554.437L942 565.937C949.5 568.937 967.5 572.937 991.5 566.437C998.551 564.527 1002 560.014 1002 555.437C1002 552.788 999 550.937 996.5 549.937Z" fill="#89ABC2"/>
<g filter="url(#filter3_i_59_9200)">
<path d="M1031.5 44.4375L1018 41.4375L957.5 245.938L969.993 249.937L1031.5 44.4375Z" fill="#847AC2"/>
<path d="M1038.5 40.9375L1031 44.4375L969.859 249.937L977.611 246.476L1038.5 40.9375Z" fill="#6D63A5"/>
<path d="M1026.97 37.9375L1018 41.4375L1031.2 44.5057L1038.5 40.9375L1026.97 37.9375Z" fill="#756CAE"/>
<path d="M1099 97.9375L1025 71.4375L1026.17 67.9375L1100.17 94.4375L1099 97.9375Z" fill="#847AC2"/>
<path d="M1029.17 67.9375H1026.17L1100.17 94.4375L1102.67 93.4375L1029.17 67.9375Z" fill="#756CAE"/>
<path d="M1085 143.938L1011 117.438L1012.17 113.938L1086.17 140.438L1085 143.938Z" fill="#847AC2"/>
<path d="M1015.17 113.938H1012.17L1086.17 140.438L1088.67 139.438L1015.17 113.938Z" fill="#756CAE"/>
<path d="M1071 190.938L997 164.438L998.167 160.938L1072.17 187.438L1071 190.938Z" fill="#847AC2"/>
<path d="M1001.17 160.938H998.167L1072.17 187.438L1074.67 186.438L1001.17 160.938Z" fill="#756CAE"/>
<path d="M1057 237.938L983 211.438L984.167 207.938L1058.17 234.438L1057 237.938Z" fill="#847AC2"/>
<path d="M987.167 207.938H984.167L1058.17 234.438L1060.67 233.438L987.167 207.938Z" fill="#756CAE"/>
<path d="M1113.5 134.938V95.9375L1098 129.938L1113.5 134.938Z" fill="#133141" fill-opacity="0.5"/>
<path d="M1114.5 72.4375L1101 68.9375L1040.5 273.938L1053 277.937L1114.5 72.4375Z" fill="#847AC2"/>
<path d="M1121.5 68.9375L1114 72.4375L1052.86 277.937L1060.61 274.476L1121.5 68.9375Z" fill="#6D63A5"/>
<path d="M1109.97 65.9375L1101 68.9375L1114.2 72.5057L1121.5 68.9375L1109.97 65.9375Z" fill="#756CAE"/>
</g>
<g filter="url(#filter4_i_59_9200)">
<path d="M994.457 108.317C994.781 112.792 1004.07 122.631 1011.96 128.323C1019.85 134.015 1019.62 123.9 1019.62 123.9L1000.78 99.0473C996.875 99.53 994.181 104.505 994.457 108.317Z" fill="#C09476"/>
<path d="M999.526 189.546C991.75 181.528 1004.36 155.073 1010.36 136.86C1016.36 118.647 1021.27 114.045 1021.27 114.045L1056.81 119.106C1056.81 119.106 1061.25 135.731 1060.61 142.812C1059.97 149.893 1062.65 143.138 1066.99 152.8C1070.8 162.007 1069.13 183.358 1059.98 181.951C1041.16 179.058 1039.44 176.382 1041.02 171.604C1042.21 167.988 1039.28 163.306 1035.76 163.025C1032.23 162.744 1028.32 187.612 1027.89 189.545C1027.04 195.476 1026.92 194.92 1023.5 197.972C1020.46 199.582 1007.3 197.563 999.526 189.546Z" fill="#B2896D"/>
<path d="M1090.1 126.273C1086.21 128.439 1067.22 138.941 1057.76 137.551C1048.3 136.161 1055.16 127.444 1055.16 127.444C1060.27 122.351 1088.56 105.182 1093.99 112.149C1097.25 116.336 1097.14 122.355 1090.1 126.273Z" fill="#A77F64"/>
<path d="M1058.72 64.8588C1052.9 60.3995 1034.15 61.2297 1029.23 62.7318C1022.21 65.4128 1009.17 73.9199 1006.6 93.9923C1003.87 115.246 1017.96 122.59 1026.14 124.491C1038.51 126.926 1045.8 127.784 1061.42 125.53C1069.51 124.057 1082.92 115.913 1079.83 95.3504C1076.16 70.9295 1065.99 70.433 1058.72 64.8588Z" fill="#C39878"/>
<path d="M1069.17 38.3589C1068.88 51.1033 1060.81 60.6544 1056.81 63.8368C1055.75 75.83 1070.31 79.868 1073.36 78.9656C1075.8 78.2436 1090.36 70.1714 1096.45 66.4795C1105.4 59.7215 1102.58 53.7519 1096.72 53.8241C1090.86 53.8963 1090.89 50.0407 1092.53 47.8499C1094.41 45.954 1098.76 39.5286 1101.15 28.9943C1103.54 18.46 1098.61 19.1827 1095.84 20.8609C1093.61 22.592 1089.94 29.5469 1085.09 35.897C1080.24 42.2471 1078.95 39.8111 1078.55 37.593L1078.2 34.2091C1076.73 27.7225 1069.47 25.6146 1069.17 38.3589Z" fill="#DABDA7"/>
<path d="M1029.4 33.9535C1026.97 46.5297 1032.85 57.6343 1036.09 61.6146C1034.56 73.6154 1019.42 74.4656 1016.63 72.9275C1014.39 71.697 1001.84 60.657 996.661 55.7299C989.32 47.1781 993.365 41.9212 999.095 43.2457C1004.83 44.5702 1005.62 40.7773 1004.48 38.2763C1003.04 36.0131 1000.15 28.7728 1000.05 17.918C999.954 7.06316 1004.64 8.82863 1006.99 11.0682C1008.81 13.245 1010.92 20.8582 1014.32 28.1314C1017.73 35.4046 1019.51 33.2884 1020.38 31.1958L1021.44 27.948C1024.27 21.8943 1031.84 21.3773 1029.4 33.9535Z" fill="#DABDA7"/>
<path d="M1004.43 66.454C1010.09 63.3567 1015.1 70.3345 1017.71 73.2082C1017.1 74.1362 1017.97 74.4782 1013.46 76.8295C1008.82 79.2522 1002.02 73.6471 999.858 70.5083C997.984 67.7686 998.656 65.7691 1000.83 67.4502C1001.91 68.283 1003.78 66.9619 1004.43 66.454Z" fill="#C39878"/>
<path d="M1084.81 75.7177C1080.24 71.5293 1073.95 76.895 1070.86 78.981C1071.21 79.9868 1070.33 80.1088 1074 83.3366C1077.77 86.6624 1085.41 82.9889 1088.15 80.5523C1090.53 78.4237 1090.36 76.4023 1087.94 77.4728C1086.74 78.0032 1085.3 76.3406 1084.81 75.7177Z" fill="#C39878"/>
<path d="M1042.8 163.989C1043.28 167.839 1038.85 168.928 1035.04 168.434C1031.22 167.941 1027.5 165.467 1028.98 162.203C1030.35 159.191 1032.77 155.916 1036.59 156.409C1040.41 156.903 1042 160.098 1042.8 163.989Z" fill="#DDC4B2"/>
</g>
<path opacity="0.5" fill-rule="evenodd" clip-rule="evenodd" d="M1206.09 513.937L1194.95 514.483L1183.34 517.279L1202.14 523.56L1160 534.937L1163.86 536.081L1205.24 524.597L1233.76 534.124L1181.5 548.437L1182.3 550.305L1236.86 535.162L1266 544.896L1203.33 562.016L1183 555.437L1183 555.937L1182.5 557.937L1181.5 559.937L1179.72 562.016L1178 563.437L1176.89 564.217L1242.93 586.282L1252.51 585.939L1252.56 585.955L1252.65 585.934L1252.71 585.932L1252.69 585.925L1265.71 582.845L1239.13 573.972L1301.35 556.706L1301.35 565.472L1301.35 573.972L1313.41 570.972L1313.41 570.632C1314.33 570.425 1315.33 570.205 1316.41 569.972C1324.91 568.472 1329.91 568.972 1329.91 568.972C1330.2 566.649 1329.31 564.157 1327.11 562.435L1333.41 548.6L1313.02 535.588C1314.41 534.221 1315.11 532.883 1315.3 531.775L1309.8 524.275C1302.55 522.352 1293.94 524.313 1282.72 526.87C1280.07 527.473 1277.28 528.11 1274.32 528.736C1271.01 529.438 1265.76 528.345 1260.8 527.313C1254.22 525.945 1248.15 524.683 1247.77 527.831L1206.09 513.937ZM1102 539.198L1176 563.922L1176 552.937L1174.63 552.432L1176.15 552.011L1176.15 550.937L1176 549.937L1171.08 551.247L1143 541.87L1157.34 537.889L1152.5 537.437L1139.45 540.685L1124.57 535.717L1113.62 536.402L1102 539.198ZM1235.58 572.786L1206.88 563.202L1269.1 545.934L1298.24 555.668L1235.58 572.786Z" fill="#071821" fill-opacity="0.8"/>
<path d="M1045 355.937L1045 334.437L1051 332.937L1056.5 335.437L1056.5 353.437L1045 355.937Z" fill="#133141" fill-opacity="0.3"/>
<path d="M1131 333.936L1131 312.436L1137 310.936L1142.5 313.436L1142.5 331.436L1131 333.936Z" fill="#133141" fill-opacity="0.3"/>
<path d="M1135.87 312.098L1149.45 309.498L1204.35 516.48L1191.27 519.327L1135.87 312.098Z" fill="#832E30"/>
<path d="M1128.97 308.392L1136.37 312.112L1191.4 519.331L1183.76 515.642L1128.97 308.392Z" fill="#AA4245"/>
<path d="M1140.59 305.734L1149.45 309.498L1136.17 312.174L1128.97 308.392L1140.59 305.734Z" fill="#C7595C"/>
<path d="M1066.82 363.577L1141.57 339.278L1140.5 335.745L1065.75 360.044L1066.82 363.577Z" fill="#832E30"/>
<path d="M1137.51 335.656L1140.5 335.745L1065.75 360.044L1063.28 358.971L1137.51 335.656Z" fill="#C7595C"/>
<path d="M1079.45 409.971L1154.2 385.672L1153.14 382.139L1078.39 406.438L1079.45 409.971Z" fill="#832E30"/>
<path d="M1150.14 382.05L1153.14 382.139L1078.39 406.439L1075.92 405.365L1150.14 382.05Z" fill="#C7595C"/>
<path d="M1092.05 457.365L1166.8 433.065L1165.74 429.532L1090.99 453.832L1092.05 457.365Z" fill="#832E30"/>
<path d="M1162.74 429.444L1165.74 429.533L1090.99 453.832L1088.52 452.759L1162.74 429.444Z" fill="#C7595C"/>
<path d="M1104.66 504.759L1179.41 480.459L1178.34 476.926L1103.59 501.226L1104.66 504.759Z" fill="#832E30"/>
<path d="M1175.35 476.838L1178.34 476.926L1103.59 501.226L1101.12 500.152L1175.35 476.838Z" fill="#C7595C"/>
<path d="M1052.08 337.63L1065.67 334.531L1120.56 542.013L1107.48 544.86L1052.08 337.63Z" fill="#832E30"/>
<path d="M1045.18 333.924L1052.58 337.644L1107.61 544.863L1099.97 541.174L1045.18 333.924Z" fill="#AA4245"/>
<path d="M1056.79 331.267L1065.67 334.531L1052.37 337.707L1045.18 333.924L1056.79 331.267Z" fill="#C7595C"/>
<path opacity="0.5" d="M757.07 469.202C761.128 468.247 765.455 468.292 768.615 469.321L1188.68 606.174C1191.43 607.068 1193 608.61 1193 610.405L1193 623.983C1193 626.647 1189.56 629.376 1184.44 630.772L1182 631.437L1128 626.438L1112.48 624.155C1111.5 624.011 1110.59 623.797 1109.77 623.519L1088.34 616.242C1085.91 615.416 1084.59 613.994 1084.75 612.366V612.366C1084.91 610.709 1083.54 609.266 1081.03 608.449L714.887 489.165C707.269 486.683 710.187 480.235 719.97 477.932L757.07 469.202Z" fill="#133141"/>
<path d="M1079.27 416.528L747 306.938L763.626 304.357C765.987 303.99 768.403 304.193 770.67 304.949L1093.76 412.645L1079.27 416.528Z" fill="#457995"/>
<path d="M1086.31 591.574C1090.61 590.422 1093.5 586.516 1093.5 580.932L1107.99 577.05C1107.99 582.634 1105.1 586.54 1100.8 587.691L1086.31 591.574Z" fill="#2D607C"/>
<path d="M1093.5 580.932V436.271L1107.99 432.389V577.049L1093.5 580.932Z" fill="#2D607C"/>
<path d="M1093.5 436.271C1093.5 427.987 1087.13 419.148 1079.27 416.528L1093.76 412.646C1101.62 415.265 1107.99 424.105 1107.99 432.389L1093.5 436.271Z" fill="#376B87"/>
<rect x="1.89737" y="2.63246" width="370.203" height="170.661" rx="13" transform="matrix(0.948683 0.316228 0 1 738.598 302.337)" fill="#E9F5FD" stroke="#BED1E0" stroke-width="4"/>
<path opacity="0.5" d="M757.07 469.202C761.128 468.247 765.455 468.292 768.615 469.321L1188.68 606.174C1191.43 607.068 1193 608.61 1193 610.405L1193 623.983C1193 626.647 1189.56 629.376 1184.44 630.772L1182 631.437L1128 626.438L1112.48 624.155C1111.5 624.011 1110.59 623.797 1109.77 623.519L1088.34 616.242C1085.91 615.416 1084.59 613.994 1084.75 612.366V612.366C1084.91 610.709 1083.54 609.266 1081.03 608.449L714.887 489.165C707.269 486.683 710.187 480.235 719.97 477.932L757.07 469.202Z" fill="#133141"/>
<path d="M1079.27 416.528L747 306.938L763.626 304.357C765.987 303.99 768.403 304.193 770.67 304.949L1093.76 412.645L1079.27 416.528Z" fill="#457995"/>
<path d="M1086.31 591.574C1090.61 590.422 1093.5 586.516 1093.5 580.932L1107.99 577.05C1107.99 582.634 1105.1 586.54 1100.8 587.691L1086.31 591.574Z" fill="#2D607C"/>
<path d="M1093.5 580.932V436.271L1107.99 432.389V577.049L1093.5 580.932Z" fill="#2D607C"/>
<path d="M1093.5 436.271C1093.5 427.987 1087.13 419.148 1079.27 416.528L1093.76 412.646C1101.62 415.265 1107.99 424.105 1107.99 432.389L1093.5 436.271Z" fill="#376B87"/>
<rect x="1.89737" y="2.63246" width="370.203" height="170.661" rx="13" transform="matrix(0.948683 0.316228 0 1 738.598 302.337)" fill="#E9F5FD" stroke="#BED1E0" stroke-width="4"/>
<path d="M777.486 431.718C784.817 434.161 790.599 441.765 790.937 449.374C791.305 457.654 785.181 461.179 777.584 458.647C769.88 456.079 763.252 448.248 762.889 440.08C762.777 437.562 763.35 435.163 764.68 433.291L774.867 418.719L784.111 421.8L776.689 431.452L777.486 431.718ZM777.226 450.591C780.466 451.671 782.975 450.413 782.808 446.664C782.642 442.916 779.995 439.884 776.701 438.786C773.407 437.688 770.898 438.947 771.068 442.751C771.234 446.499 773.932 449.493 777.226 450.591ZM794.567 425.286L821.396 434.229L821.588 438.537L807.723 468.087L798.479 465.005L811.607 438.903L794.925 433.342L794.567 425.286ZM826.646 435.979L853.475 444.922L853.666 449.23L839.801 478.78L830.557 475.698L843.686 449.595L827.004 444.035L826.646 435.979ZM874.872 490.47L873.139 451.476L881.479 454.257L882.138 469.082L896.536 473.881L895.877 459.056L904.217 461.836L905.951 500.829L897.61 498.049L896.894 481.937L882.496 477.138L883.212 493.25L874.872 490.47ZM922.375 478.526C929.813 481.005 934.46 486.633 934.75 493.178L935.529 510.689L928.197 508.245L927.544 505.327C925.551 507.583 922.753 507.036 920.84 506.399C914.943 504.433 910.521 499.156 910.27 493.506C910.129 490.317 911.408 488.484 913.582 487.941C915.187 487.539 917.239 487.782 919.576 488.561L926.801 490.969L926.782 490.522C926.694 488.564 925.039 486.634 922.117 485.66C920.151 485.005 918.159 484.947 915.926 486.518L909.909 479.496C913.042 476.958 917.806 477.003 922.375 478.526ZM921.814 500.055C924.683 501.011 927.04 499.867 927.077 497.179L921.021 495.16C920.171 494.877 919.488 494.815 919.025 494.991C918.511 495.206 918.27 495.676 918.3 496.348C918.362 497.746 919.53 499.293 921.814 500.055ZM951.952 516.77C942.815 513.724 938.401 505.087 938.087 498.038C937.764 490.765 941.693 484.965 950.619 487.94C956.144 489.782 960.463 493.922 962.679 500.228L955.277 500.902C954.791 498.205 953.069 495.977 950.944 495.269C947.226 494.03 946.163 497.203 946.322 500.783C946.479 504.308 947.748 508.148 951.52 509.405C953.592 510.096 955.22 509.04 955.589 506.738L962.946 512.112C961.424 516.73 957.424 518.594 951.952 516.77ZM967.096 521.211L965.363 482.218L973.385 484.892L974.297 505.423L981.436 498.819L992.114 502.379L983.014 509.597L994.243 530.26L984.734 527.091L977.421 513.299L974.762 515.885L975.118 523.885L967.096 521.211ZM1018 524.841C1018.03 525.624 1018.01 526.334 1017.96 527.473L1000.75 521.736C1001.16 524.024 1002.83 526.233 1006.28 527.384C1008.25 528.04 1010.29 527.947 1011.69 526.541L1017.44 533.529C1014.83 535.909 1011.19 536.516 1006.57 534.975C996.9 531.752 992.916 523.369 992.6 516.264C992.294 509.383 995.513 502.905 1004.86 506.022C1013.04 508.749 1017.62 516.337 1018 524.841ZM1000.36 515.49L1010.19 518.766C1009.97 516.158 1007.72 513.865 1005.07 512.98C1001.72 511.864 1000.6 513.806 1000.36 515.49ZM1010.13 519.794L1010.18 519.756L1010.13 519.794ZM1036.15 516.452C1037.96 517.054 1039.58 518.089 1041.49 519.995L1038.01 526.329C1037.24 525.577 1035.84 524.614 1034.56 524.188C1031.75 523.25 1029.98 524.756 1030.2 529.623L1030.77 542.435L1022.74 539.761L1021.52 512.18L1029.59 514.872L1029.78 519.067C1030.87 516.566 1033.34 515.513 1036.15 516.452ZM1052.71 550.357C1046.92 548.426 1042.6 543.073 1041.2 538.638L1047.39 537.78C1047.99 539.468 1048.8 542.439 1052.36 543.626C1054.59 544.369 1055.19 543.575 1055.15 542.736C1054.98 538.931 1042.53 536.654 1042.09 526.92C1041.82 520.71 1046.86 520.022 1051.59 521.598C1056.43 523.21 1059.99 526.822 1062.22 531.149L1056.22 532.676C1055.53 531.232 1054.37 528.64 1051.76 527.773C1050.27 527.277 1049.56 527.7 1049.6 528.595C1049.76 532.232 1062.5 533.776 1062.96 544.182C1063.27 551.119 1057.6 551.986 1052.71 550.357Z" fill="#305E77"/>
<path d="M777.181 352.157L785.203 354.831L786.936 393.825L778.914 391.151L777.743 364.801L769.455 362.038L769.159 355.381L773.356 356.78C776.013 357.665 777.4 357.08 777.261 353.947L777.181 352.157ZM812.451 402.881C805.119 400.437 798.08 393.957 797.677 384.894L805.623 387.046C805.79 390.795 808.746 393.709 812.358 394.913C815.227 395.869 818.201 395.648 818.027 391.732C817.82 387.089 813.689 385.987 810.129 384.8L809.836 378.199C814.883 379.881 815.492 378.265 815.407 376.363C815.283 373.566 813.311 371.586 810.92 370.789C808.264 369.903 806.694 371.089 806.762 373.812L798.822 370.614C798.484 363.006 804.187 360.608 810.881 362.839C817.309 364.982 823.064 370.813 823.372 377.751C823.516 380.995 822.411 383.217 820.136 383.837C824.202 387.011 825.895 390.937 826.066 394.798C826.454 403.525 819.676 405.289 812.451 402.881ZM844.31 405.123L857.645 409.568L857.998 417.512L831.86 408.799L831.561 402.086C836.674 400.538 847.794 396.363 847.423 388.027C847.304 385.342 846.036 382.715 843.007 381.705C838.97 380.359 838.248 384.142 838.17 387.092L830.277 383.8C829.974 376.975 834.25 370.739 842.857 373.608C849.763 375.91 855.037 382.684 855.38 390.404C855.676 397.061 851.134 403.209 844.31 405.123ZM878.086 424.208L876.353 385.215L889.369 389.553C897.922 392.404 902.392 397.587 902.735 405.307C903.081 413.084 898.853 415.698 890.406 412.882L885.678 411.306L886.374 426.971L878.086 424.208ZM885.32 403.25L889.198 404.543C892.598 405.676 894.539 405.772 894.4 402.639C894.268 399.674 892.543 398.548 888.877 397.326L884.999 396.033L885.32 403.25ZM920.391 410.531C922.198 411.133 923.814 412.168 925.73 414.075L922.243 420.408C921.477 419.657 920.074 418.693 918.799 418.268C915.983 417.329 914.218 418.835 914.434 423.702L915.004 436.514L906.982 433.84L905.756 406.259L913.831 408.951L914.018 413.147C915.11 410.645 917.576 409.593 920.391 410.531ZM938.933 445.097C930.433 442.263 925.133 433.717 924.797 426.165C924.462 418.612 929.099 413.434 937.653 416.285C946.1 419.101 951.394 427.535 951.732 435.143C952.068 442.696 947.327 447.895 938.933 445.097ZM938.607 437.768C942.911 439.202 943.865 435.938 943.71 432.469C943.556 429.001 942.335 425.066 937.978 423.614C933.622 422.162 932.663 425.314 932.82 428.839C932.969 432.195 934.198 436.298 938.607 437.768ZM954.906 418.895L954.568 411.286L962.75 414.013L963.088 421.622L954.906 418.895ZM957.845 462.644C956.305 462.131 954.377 461.158 952.759 460.067L952.407 453.336C953.211 453.769 953.96 454.129 954.545 454.324C955.82 454.749 956.553 454.773 956.469 452.871L955.129 422.717L963.151 425.391L964.57 457.335C964.804 462.594 961.989 464.026 957.845 462.644ZM993.302 449.275C993.337 450.058 993.316 450.768 993.262 451.907L976.049 446.17C976.465 448.458 978.133 450.667 981.586 451.819C983.552 452.474 985.589 452.381 986.992 450.975L992.746 457.964C990.13 460.343 986.493 460.95 981.871 459.409C972.202 456.186 968.218 447.803 967.903 440.699C967.597 433.817 970.816 427.339 980.166 430.456C988.347 433.183 992.924 440.772 993.302 449.275ZM975.667 439.924L985.495 443.201C985.274 440.592 983.027 438.299 980.37 437.414C977.023 436.298 975.906 438.24 975.667 439.924ZM985.436 444.228L985.487 444.19L985.436 444.228ZM1008.96 468.44C999.827 465.395 995.413 456.758 995.1 449.709C994.776 442.436 998.706 436.636 1007.63 439.611C1013.16 441.453 1017.47 445.593 1019.69 451.899L1012.29 452.573C1011.8 449.876 1010.08 447.648 1007.96 446.94C1004.24 445.7 1003.18 448.873 1003.33 452.454C1003.49 455.978 1004.76 459.819 1008.53 461.076C1010.6 461.767 1012.23 460.711 1012.6 458.409L1019.96 463.782C1018.44 468.401 1014.44 470.264 1008.96 468.44ZM1038.9 457.089L1032.2 454.857L1032.71 466.326C1032.76 467.389 1032.86 469.683 1036.16 470.781C1037.22 471.135 1038.38 471.301 1039.53 471.299L1039.77 477.826C1038.1 477.875 1036.41 477.588 1034.55 476.968C1029.61 475.321 1025.09 471.502 1024.78 464.453L1024.24 452.201L1020.04 450.802L1019.75 444.256L1023.94 445.655L1023.76 441.571L1031.46 438.018L1031.91 448.312L1038.61 450.543L1038.9 457.089ZM1053.71 483.357C1047.92 481.426 1043.6 476.073 1042.2 471.638L1048.39 470.78C1048.99 472.468 1049.8 475.439 1053.36 476.626C1055.59 477.369 1056.19 476.575 1056.15 475.736C1055.98 471.931 1043.53 469.654 1043.09 459.92C1042.82 453.71 1047.86 453.022 1052.59 454.598C1057.43 456.21 1060.99 459.822 1063.22 464.149L1057.22 465.676C1056.53 464.232 1055.37 461.64 1052.76 460.773C1051.27 460.277 1050.56 460.7 1050.6 461.595C1050.76 465.232 1063.5 466.776 1063.96 477.182C1064.27 484.119 1058.6 484.986 1053.71 483.357Z" fill="#305E77"/>
<g filter="url(#filter5_i_59_9200)">
<path d="M1309 526.938C1305.5 535.437 1294.9 537.938 1277.5 537.938C1266 537.938 1248.5 534.437 1246 526.938V515.085C1250.49 508.846 1264.02 508.938 1277.5 508.938C1290.23 508.938 1304.03 509.713 1309 515.408V526.938Z" fill="#832E30"/>
<ellipse cx="1277.5" cy="514.938" rx="31.5" ry="12" fill="#AA4245"/>
<path d="M1297 514.142L1287.25 471.938H1267.39L1258 514.142C1258 514.142 1265.94 518.938 1277.86 518.938C1289.78 518.938 1297 514.142 1297 514.142Z" fill="#832E30"/>
<ellipse cx="1277.5" cy="458.681" rx="17.2358" ry="16.7438" fill="#AA4245"/>
</g>
<path d="M467.596 583.997V562.652L453.979 557.868C473.705 551.98 489.431 553.942 494.829 555.66L531.262 567.83V546.459C524.638 544.251 507.019 537.727 494.829 533.973C482.314 530.119 467 533.613 459.499 535.051C438.007 539.173 432.879 545.355 433.002 547.931V569.276C433.002 571.926 436.682 573.57 438.522 574.061L467.596 583.997Z" fill="#647B8A"/>
<path d="M457.003 534.958C435.511 539.08 432.881 544.551 433.004 547.127C432.99 548.726 436.666 553.094 451.483 557.775L465.1 562.559L530.5 546.127C523.876 543.919 506.69 537.381 494.5 533.627C481.985 529.773 464.504 533.52 457.003 534.958Z" fill="#89ABC2"/>
<path d="M667.813 650.415V629.07L654.197 624.286C673.922 618.397 689.649 620.36 695.047 622.077L731.48 634.248V612.877C724.856 610.669 707.237 604.144 695.047 600.39C682.532 596.536 666.955 599.628 659.717 601.469C638.225 605.59 633.097 611.773 633.22 614.349V635.694C633.22 638.344 636.9 639.987 638.74 640.478L667.813 650.415Z" fill="#4C6577"/>
<path d="M401 599.462V578.308L601.936 646.39V667.735L401 599.462Z" fill="#6A8394"/>
<path d="M668.179 650.439V629.094L601.568 646.391V667.735L668.179 650.439Z" fill="#4C6577"/>
<path d="M783 620.629V599.652L731.478 612.901V634.246L783 620.629Z" fill="#4C6577"/>
<path d="M441.5 598.438V610.438C437.5 611.271 426 622.938 425 629.938C438.333 635.938 463.4 645.238 485 638.438L512 625.438L491.262 641.438C485.762 642.938 466.762 647.938 454.262 650.938C441.529 653.994 426.737 655.354 419.499 653.514C398.007 649.393 392.879 643.21 393.002 640.634V619.289C393.002 616.639 396.682 614.995 398.522 614.505L415.5 603.938L441.5 598.438Z" fill="#607685"/>
<path d="M516.925 637.926V616.949L462.459 598.181L429.337 606.645C424.921 607.823 423.817 610.325 423.817 611.429V632.774C423.817 634.835 425.78 636.577 426.761 637.19C432.281 640.134 436.697 642.711 454.73 646.759C469.156 649.997 480.369 648.108 484.171 646.759L516.925 637.926Z" fill="#748FA1"/>
<path d="M639 553.124V574.101L693.466 592.87L720.405 581.397C724.821 580.219 725.925 577.717 725.925 576.613V557.113C725.925 555.052 725.311 552.263 724.5 551.438C722.944 549.854 709.925 545.613 701.195 544.292C686.576 542.08 675.556 542.943 671.754 544.292L639 553.124Z" fill="#5B7180"/>
<path d="M580.592 531.938L401 578.307L460 598.438L430 606.438C424.5 607.938 418 612.438 433.5 619.938C442.823 623.495 463.807 629.176 480 625.938L516.5 617.438L601.936 646.39L668.179 629.094L637.266 618.421C632.236 615.968 629.17 609.294 657.139 602.228C663.763 600.266 680.176 597.076 692.836 600.02C693.818 600.266 696.884 601.124 701.301 602.596C705.717 604.069 723.259 610.079 731.478 612.901L783 599.652L580.592 531.938Z" fill="#89ABC2"/>
<path d="M592 670.629V649.652L534 664.438V686.438L592 670.629Z" fill="#587284"/>
<path d="M210 649.462V628.308L269 647.938V668.938L210 649.462Z" fill="#C9D9E4"/>
<path d="M325.5 689.438V667.938L411 695.938V717.938L325.5 689.438Z" fill="#C9D9E4"/>
<path d="M487 698.938V676.438L410.568 696.39V717.735L487 698.938Z" fill="#587284"/>
<path d="M391 581.438L210 628.307L269 647.938L283 644.438C305 639.438 319.452 638.099 336 639.938C354 641.938 367 657.438 337.5 664.438L325.5 667.938L410.936 696.39L477.179 679.094L540.478 662.901L592 649.652L517 623.938L492.5 630.938C470.5 636.938 441 630.938 430.5 626.438C417.526 620.877 413.5 613.938 418 607.438C421.342 602.61 434.5 599.938 441.5 598.438L391 581.438Z" fill="#89ABC2"/>
<path d="M325.925 689.925V667.437L271.458 650.18L244.52 661.653C240.104 662.83 239 665.333 239 666.437V685.937C239 687.998 241.133 689.528 241.944 690.353C243.5 691.937 255 697.437 263.73 698.758C278.349 700.969 289.368 700.107 293.171 698.758L325.925 689.925Z" fill="#C9D9E4"/>
<path d="M277.596 632.997V611.652L263.979 606.868C283.705 600.98 299.431 602.942 304.829 604.66L341.262 616.83V595.459C334.638 593.251 317.019 586.727 304.829 582.973C292.314 579.119 277 582.613 269.499 584.051C248.007 588.173 242.879 594.355 243.002 596.931V618.276C243.002 620.926 246.682 622.57 248.522 623.061L277.596 632.997Z" fill="#647B8A"/>
<path d="M267.003 583.958C245.511 588.08 242.881 593.551 243.004 596.127C242.99 597.726 246.666 602.094 261.483 606.775L275.1 611.559L340.5 595.127C333.876 592.919 316.69 586.381 304.5 582.627C291.985 578.773 274.504 582.52 267.003 583.958Z" fill="#89ABC2"/>
<path d="M389.592 581.938L210 628.307L269 648.438L253.5 652.938C244 655.438 231 665.438 245 672.438C253 675.938 275.5 683.438 298.5 676.938L326 668.438L410.936 696.39L477.179 679.094L446.266 668.421C441.236 665.968 438.17 659.294 466.139 652.228C472.763 650.266 489.176 647.076 501.836 650.02C502.818 650.266 505.884 651.124 510.301 652.596C514.717 654.069 532.259 660.079 540.478 662.901L592 649.652L404 636.438L389.592 581.938Z" fill="#89ABC2"/>
<path d="M753.667 734.437V755.782L767.283 760.566C747.558 766.455 731.831 764.492 726.433 762.775L690 750.604V771.975C696.624 774.183 714.243 780.708 726.433 784.462C738.948 788.316 754.525 785.223 761.763 783.383C783.255 779.262 788.383 773.079 788.26 770.503V749.158C788.26 746.508 784.58 744.865 782.74 744.374L753.667 734.437Z" fill="#4C6577"/>
<path d="M555 665.438V681.955L568.283 693.364C548.558 699.252 532.831 697.289 527.433 695.572L491 683.558V704.772C497.624 706.98 515.243 713.505 527.433 717.259C539.948 721.113 555.525 718.021 562.763 716.181C584.255 712.059 589.383 705.876 589.26 703.3V681.955C589.26 679.306 587.84 676.428 586 675.938L555 665.438Z" fill="#5C7180"/>
<path d="M577 695.938L577 681.282H550.667L564.283 686.066C544.558 691.955 528.831 689.992 523.434 688.275L487 676.104V697.475C493.624 699.683 511.243 706.208 523.434 709.962C535.948 713.816 551.526 710.723 558.763 708.883C580.255 704.762 577.123 698.514 577 695.938Z" fill="#6A8394"/>
<path d="M571.5 676.437L536 663.937L487.5 676.437L521 687.937C526.397 689.655 540 694.437 559 689.937C560.5 689.582 577 686.014 577 681.437C577 678.788 573.26 677.001 571.5 676.437Z" fill="#89ABC2"/>
<path d="M805 742.129V721.152L753.478 734.401V755.746L805 742.129Z" fill="#4C6577"/>
<path d="M782.74 744.374L753.5 733.938L690 750.604L726.434 762.775C731.831 764.492 747.558 766.455 767.283 760.567C774.276 758.671 788.26 753.735 788.26 749.158C788.26 746.508 784.5 744.938 782.74 744.374Z" fill="#89ABC2"/>
<path d="M423 720.962V699.807L482 719.437V740.437L423 720.962Z" fill="#C9D9E4"/>
<path d="M538.5 760.937V739.937L555 734.937C547.5 724.437 514.898 730.72 509.5 732.437L482 740.14V719.437C487.5 717.937 506.5 712.937 519 709.937C531.733 706.881 546.525 705.521 553.763 707.361C575.255 711.482 580.383 717.665 580.26 720.241V741.586C580.26 744.236 576.58 745.88 574.74 746.37L538.5 760.937Z" fill="#C9D9E4"/>
<path d="M538.5 760.938V739.438L623.5 767.714V789.068L538.5 760.938Z" fill="#C9D9E4"/>
<path d="M690.179 771.938V750.593L623.568 767.89V789.235L690.179 771.938Z" fill="#4C6577"/>
<path d="M690.179 750.594L623.936 767.89L538.5 739.438L550.5 735.938C580 728.938 567 713.438 549 711.438C532.452 709.599 518 710.938 496 715.938L482 719.438L423 699.807L543 703.938L575 692.438L598 681.938L602.592 653.438L652.5 670.438C649.734 671.438 643.2 673.238 638 680.438C632.8 687.638 634.5 695.938 649.5 701.438C656.977 704.179 684 709.938 706 703.938L730 695.938L805 721.152L753.478 734.401L690.179 750.594Z" fill="#89ABC2"/>
<path d="M661 673.625V694.602L715.466 713.371L742.405 701.898C746.821 700.72 747.925 698.218 747.925 697.114V677.614C747.925 675.553 747.311 672.764 746.5 671.939C744.944 670.355 731.925 666.114 723.195 664.793C708.576 662.581 697.556 663.444 693.754 664.793L661 673.625Z" fill="#5B7180"/>
<path d="M803 720.938L719.5 692.438L733 688.938C746.5 685.438 754.15 674.098 740.5 666.438C729 659.986 710 659.938 687 666.438L661.5 672.891L603 652.938L555 665.438C570.5 670.938 577.503 673.389 578.5 673.938C592 681.363 579.167 691.438 571 693.938C549.4 700.738 528 698.271 522.5 696.438L487 683.438L423 699.938L566.5 708.938L623.5 767.438L661.5 720.938L714 714.938L803 720.938Z" fill="#89ABC2"/>
<path d="M781 599.938L697.5 571.438L711.5 566.938C724.5 562.438 732.15 553.098 718.5 545.438C707 538.986 688 538.938 665 545.438L639.5 551.891L581 531.938L533 544.438C548.5 549.938 555.503 552.389 556.5 552.938C570 560.363 557.167 570.438 549 572.938C527.4 579.738 506 577.271 500.5 575.438L465 562.438L401 578.938L544.5 587.938L601.5 646.438L639.5 599.938L692 593.938L781 599.938Z" fill="#89ABC2"/>
<path opacity="0.4" fill-rule="evenodd" clip-rule="evenodd" d="M550.081 593.949C548.483 593.298 546.138 593.158 544.615 593.624L524.404 599.81C522.595 600.364 522.674 601.535 524.573 602.309L542.774 609.73C544.372 610.382 546.717 610.521 548.24 610.055L549.812 609.574L552.757 610.58C552.602 610.681 552.451 610.785 552.304 610.892L556.679 611.919L565.455 614.915C565.312 615.001 565.172 615.088 565.037 615.178L569.294 616.226L576.85 618.806C577.045 618.872 577.261 618.926 577.484 618.966C577.5 618.979 577.521 618.991 577.545 619.002C578.143 619.277 580.853 619.019 583.599 618.426C586.344 617.833 588.084 617.129 587.486 616.854C587.45 616.838 587.407 616.823 587.356 616.81C587.314 616.738 587.237 616.663 587.124 616.59L582.202 613.406L580.936 611.775C580.566 611.774 580.155 611.78 579.71 611.794L574.047 608.131L574.097 608.132L572.949 606.467C572.503 606.461 572.011 606.462 571.481 606.472L567.776 604.075L568.451 603.869C570.26 603.315 570.181 602.144 568.282 601.37L550.081 593.949Z" fill="#0B1D28"/>
<g filter="url(#filter6_i_59_9200)">
<path d="M539.615 591.227C541.138 590.761 543.483 590.9 545.081 591.551L563.282 598.973C565.181 599.747 565.26 600.917 563.451 601.471L543.24 607.657C541.717 608.123 539.372 607.984 537.774 607.333L519.573 599.911C517.674 599.137 517.595 597.967 519.404 597.413L539.615 591.227Z" fill="#EBCE15"/>
</g>
<g filter="url(#filter7_d_59_9200)">
<path d="M534.934 571.502L527.76 596.647C527.581 597.273 527.867 597.942 528.458 598.215C537.979 602.62 548.892 600.288 554.192 598.18C554.817 597.931 555.132 597.246 554.951 596.597L547.97 571.511C547.805 570.918 547.265 570.508 546.65 570.508H536.251C535.639 570.508 535.102 570.914 534.934 571.502Z" fill="#EBCE15"/>
</g>
<g filter="url(#filter8_i_59_9200)">
<mask id="mask0_59_9200" style="mask-type:alpha" maskUnits="userSpaceOnUse" x="527" y="570" width="29" height="31">
<path d="M534.934 571.502L527.76 596.647C527.581 597.273 527.867 597.942 528.458 598.215C537.979 602.62 548.892 600.288 554.192 598.18C554.817 597.931 555.132 597.246 554.951 596.597L547.97 571.511C547.805 570.918 547.265 570.508 546.65 570.508H536.251C535.639 570.508 535.102 570.914 534.934 571.502Z" fill="#DCB551"/>
</mask>
<g mask="url(#mask0_59_9200)">
<path d="M529.234 588.937C532.898 590.37 542.851 592.377 553.346 588.937" stroke="#F5F5F5" stroke-width="3.56201"/>
<path d="M532.248 578.867C535.017 579.871 542.538 581.276 550.469 578.867" stroke="#F5F5F5" stroke-width="3.56201"/>
</g>
</g>
<ellipse cx="541.427" cy="570.982" rx="6.30202" ry="1.04494" fill="#DCB551"/>
<g filter="url(#filter9_i_59_9200)">
<path d="M585.622 543.824C586.759 543.476 588.509 543.58 589.701 544.066L603.284 549.604C604.7 550.182 604.759 551.056 603.409 551.469L588.327 556.085C587.191 556.433 585.441 556.329 584.249 555.843L570.666 550.305C569.249 549.727 569.19 548.854 570.54 548.44L585.622 543.824Z" fill="#EBCE15"/>
<g filter="url(#filter10_d_59_9200)">
<path d="M582.129 529.105L576.776 547.868C576.643 548.336 576.855 548.835 577.296 549.039C584.402 552.326 592.545 550.586 596.5 549.013C596.967 548.827 597.201 548.315 597.067 547.832L591.857 529.111C591.734 528.669 591.331 528.363 590.872 528.363H583.112C582.656 528.363 582.254 528.666 582.129 529.105Z" fill="#EBCE15"/>
</g>
<mask id="mask1_59_9200" style="mask-type:alpha" maskUnits="userSpaceOnUse" x="576" y="528" width="22" height="23">
<path d="M582.129 529.105L576.776 547.868C576.643 548.336 576.855 548.835 577.296 549.039C584.402 552.326 592.545 550.586 596.5 549.013C596.967 548.827 597.201 548.315 597.067 547.832L591.857 529.111C591.734 528.669 591.331 528.363 590.872 528.363H583.112C582.656 528.363 582.254 528.666 582.129 529.105Z" fill="#DCB551"/>
</mask>
<g mask="url(#mask1_59_9200)">
<path d="M577.876 542.115C580.611 543.185 588.038 544.682 595.869 542.115" stroke="#F5F5F5" stroke-width="2.6581"/>
<path d="M580.125 534.601C582.191 535.349 587.804 536.398 593.722 534.601" stroke="#F5F5F5" stroke-width="2.6581"/>
</g>
</g>
<ellipse cx="586.975" cy="528.717" rx="4.70279" ry="0.779769" fill="#DCB551"/>
<path d="M45 831.462V810.308L245.936 878.39V899.735L45 831.462Z" fill="#E4EDF2"/>
<path d="M427 852.938V832.15L245.568 878.39V899.735L427 852.938Z" fill="#4C6577"/>
<path d="M225 765.438L45 810.438L104 830.438L161 850.438L245.936 878.39L312.179 861.094L281.266 850.421C276.236 847.968 273.17 841.294 301.139 834.228C307.763 832.266 324.176 829.076 336.836 832.02C337.818 832.266 340.884 833.124 345.301 834.596C349.717 836.069 367.259 842.079 375.478 844.901L426 831.938L260.5 816.438L225 765.438Z" fill="#9CBBD0"/>
<path d="M276.5 780.938V796.938C272.5 797.771 256.5 801.938 255.5 808.938C268.833 814.938 298.4 827.738 320 820.938L347 807.938L326.262 823.937C320.762 825.437 301.762 830.437 289.262 833.437C276.529 836.493 261.737 837.854 254.499 836.014C233.007 831.892 227.879 825.709 228.002 823.133V801.788C228.002 799.139 231.682 797.495 233.522 797.004L250.5 786.437L276.5 780.938Z" fill="#607685"/>
<path d="M115.596 814.997V793.652L101.979 788.868C121.705 782.98 137.431 784.942 142.829 786.66L179.262 798.83V777.459C172.638 775.251 155.019 768.727 142.829 764.973C130.314 761.119 115 764.613 107.499 766.051C86.0071 770.173 80.8795 776.355 81.0021 778.931V800.276C81.0021 802.926 84.6823 804.57 86.5224 805.061L115.596 814.997Z" fill="#E4EDF2"/>
<path d="M105.003 765.958C83.5112 770.08 80.8813 775.551 81.0039 778.127C80.99 779.726 84.6664 784.094 99.4831 788.775L113.1 793.559L178.5 777.127C171.876 774.919 154.69 768.381 142.5 764.627C129.985 760.773 112.504 764.52 105.003 765.958Z" fill="#9CBBD0"/>
<path d="M226 763.938L45 810.807L104 830.438L118 826.938C140 821.938 154.452 820.599 171 822.438C189 824.438 202 839.938 172.5 846.938L160.5 850.438L245.936 878.89L312.179 861.594L375.478 845.401L427 832.152L352 806.438L327.5 813.438C305.5 819.438 276 813.438 265.5 808.938C252.526 803.377 248.5 796.438 253 789.938C256.342 785.11 269.5 782.438 276.5 780.938L226 763.938Z" fill="#9CBBD0"/>
<path d="M377.667 844.437V865.782L391.283 870.566C371.558 876.455 355.831 874.492 350.433 872.775L314 860.604V881.975C320.624 884.183 338.243 890.708 350.433 894.462C362.948 898.316 378.525 895.223 385.763 893.383C407.255 889.262 412.383 883.079 412.26 880.503V859.158C412.26 856.508 408.58 854.865 406.74 854.374L377.667 844.437Z" fill="#4C6577"/>
<path d="M406.74 854.374L377.5 843.938L314 860.604L350.434 872.775C355.831 874.492 371.558 876.455 391.283 870.567C398.276 868.671 412.26 863.735 412.26 859.158C412.26 856.508 408.5 854.938 406.74 854.374Z" fill="#9CBBD0"/>
<path opacity="0.5" d="M285.501 817.437L412.5 858.937L412.001 879.437L410.001 870.437L407.501 864.437L271.546 820.095L285.501 817.437Z" fill="#0F2736"/>
<g filter="url(#filter11_i_59_9200)">
<path d="M324 688.438L331.5 691.438V670.309L324 688.438Z" fill="#133141" fill-opacity="0.3"/>
<path d="M385 709.438L393 711.938V690.938L385 709.438Z" fill="#133141" fill-opacity="0.3"/>
<path d="M327.254 669.758L317.242 667.533L272 819.773L281.637 822.171L327.254 669.758Z" fill="#EEC55A"/>
<path d="M332.446 667.163L326.883 669.758L281.537 822.171L287.286 819.604L332.446 667.163Z" fill="#AF8D36"/>
<path d="M323.896 664.937L317.242 667.533L327.032 669.809L332.446 667.162L323.896 664.937Z" fill="#DAB453"/>
<path d="M377.317 709.437L322.433 689.783L323.299 687.188L378.182 706.842L377.317 709.437Z" fill="#EEC55A"/>
<path d="M325.524 687.188H323.299L378.182 706.842L380.036 706.1L325.524 687.188Z" fill="#DAB453"/>
<path d="M366.933 743.555L312.05 723.901L312.915 721.305L367.798 740.959L366.933 743.555Z" fill="#EEC55A"/>
<path d="M315.14 721.305H312.915L367.798 740.959L369.653 740.217L315.14 721.305Z" fill="#DAB453"/>
<path d="M356.55 778.413L301.666 758.758L302.532 756.163L357.415 775.817L356.55 778.413Z" fill="#EEC55A"/>
<path d="M304.757 756.163H302.532L357.415 775.817L359.269 775.075L304.757 756.163Z" fill="#DAB453"/>
<path d="M346.166 813.271L291.283 793.617L292.148 791.021L347.032 810.675L346.166 813.271Z" fill="#EEC55A"/>
<path d="M294.373 791.021H292.148L347.032 810.675L348.886 809.933L294.373 791.021Z" fill="#DAB453"/>
<path d="M388.813 690.525L378.8 687.929L333.559 840.54L343.195 842.937L388.813 690.525Z" fill="#EEC55A"/>
<path d="M394.004 687.929L388.442 690.525L343.096 842.937L348.845 840.37L394.004 687.929Z" fill="#AF8D36"/>
<path d="M385.455 685.704L378.8 687.929L388.591 690.576L394.004 687.929L385.455 685.704Z" fill="#DAB453"/>
</g>
<path opacity="0.3" d="M644 574.938C675.026 582.146 689.893 588.899 705.5 603.437C705.5 603.437 702.5 606.175 702.5 612.175L702.5 624.438C689.5 620.937 674.1 617.638 654.5 624.437L626.436 614.463C624.431 613.825 622.277 613.061 620 612.175C607.945 607.486 592.459 599.382 577.5 588.437L644 574.938Z" fill="#0B151C"/>
<g filter="url(#filter12_i_59_9200)">
<path d="M603.449 556.728C602.401 561.045 595.853 562.176 599.704 561.04C603.555 559.903 610.808 559.53 611.221 555.035C611.635 550.541 607.081 548.841 603.23 549.977C599.38 551.114 603.771 553.225 603.449 556.728Z" fill="#EEC55A"/>
<path d="M567.997 578.13C576.753 594.296 591.738 594.971 607.287 595.671C628.009 596.605 653.456 581.979 647.751 562.885C642.045 543.792 624.438 547.781 605.613 542.5C584.359 536.537 570.889 557.81 560.514 554.798C559.625 560.232 562.265 567.546 567.997 578.13Z" fill="#DCB551"/>
<path d="M598.751 542.191C603.137 554.671 619.679 559.053 632.287 555.333C644.894 551.612 647.629 543.102 648.587 532.691C648.627 522.156 636.742 511.019 622.015 511.694C595.935 512.89 596.453 535.651 598.751 542.191Z" fill="#EEC55A"/>
<path d="M644.09 539.772C643.777 541.151 640.113 549.664 650.469 542.283C652.799 541.194 655.467 539.416 655.598 537.994C655.843 535.332 653.335 537.56 650.163 535.374C647.415 527.867 644.403 538.392 644.09 539.772Z" fill="#C09D43"/>
<path d="M640.604 541.302C640.426 543.236 640.634 542.996 643.262 544.726C645.385 546.906 649.424 541.377 649.602 539.443C649.78 537.509 648.074 534.587 645.806 535.257C644.614 538.114 640.782 539.367 640.604 541.302Z" fill="#C09D43"/>
<mask id="mask2_59_9200" style="mask-type:alpha" maskUnits="userSpaceOnUse" x="640" y="532" width="16" height="14">
<path d="M644.09 539.772C643.777 541.151 640.113 549.664 650.469 542.283C652.799 541.194 655.467 539.416 655.598 537.994C655.843 535.332 653.335 537.56 650.163 535.374C647.415 527.867 644.403 538.392 644.09 539.772Z" fill="#DAA06B"/>
<path d="M640.604 541.302C640.426 543.236 640.634 542.996 643.262 544.726C645.385 546.906 649.424 541.377 649.602 539.443C649.78 537.509 648.074 534.587 645.806 535.257C644.614 538.114 640.782 539.367 640.604 541.302Z" fill="#DAA06B"/>
</mask>
<g mask="url(#mask2_59_9200)">
<path d="M642.194 542.542C645.595 543.268 649.423 542.245 651.891 541.691L651.302 552.59C646.908 548.736 640.281 542.134 642.194 542.542Z" fill="#B2913C"/>
</g>
<g filter="url(#filter13_d_59_9200)">
<path d="M582.399 576.896C579.53 584.858 593.487 588.456 598.762 586.899C604.038 585.342 617.991 582.928 620.541 569.348C621.064 563.659 614.91 561.088 609.635 562.645C604.36 564.202 583.148 568.758 582.399 576.896Z" fill="#C9A23D"/>
</g>
<path d="M631.631 533.634C631.222 536.015 633.191 537.908 634.886 537.982C636.407 538.129 637.96 536.785 638.126 535.068C638.291 533.352 636.818 531.088 635.298 530.941C633.539 530.592 631.964 531.7 631.631 533.634Z" fill="#755B17"/>
<path d="M635.271 533.072C635.233 533.464 635.549 533.905 635.993 533.948C636.526 533.999 636.73 533.75 636.861 533.315C636.899 532.922 636.689 532.312 636.068 532.252C635.535 532.201 635.309 532.679 635.271 533.072Z" fill="#F3D994"/>
</g>
<g filter="url(#filter14_i_59_9200)">
<path opacity="0.3" d="M194.454 805.455L156.134 790.46L122.909 813.637L129.864 827.083L170.554 836.976L191.666 817.248L191.665 817.247L194.454 805.455Z" fill="#062131"/>
<path d="M130.119 827.581L126.246 764.641L180.133 787.403L130.119 827.581Z" fill="#5A86A6"/>
<path d="M113.217 811.531L126.246 764.641L130.119 827.581L113.217 811.531Z" fill="#7096B2"/>
<path d="M173.598 769.547L126.246 764.641L180.133 787.403L173.598 769.547Z" fill="#41627A"/>
<path d="M175.728 824.267L180.133 787.402L130.119 827.581L175.728 824.267Z" fill="#3B596F"/>
<path d="M148.595 797.287C147.287 798.236 145.459 798.422 144.366 796.917C143.664 795.949 143.668 794.822 144.343 793.879C143.523 794.021 142.688 793.704 142.138 792.945C141.252 791.725 141.83 790.232 142.918 789.442C144.094 788.589 145.631 788.648 146.5 789.846C147.043 790.593 147.056 791.49 146.673 792.188C147.767 791.846 148.838 792.211 149.532 793.167C150.625 794.673 149.903 796.338 148.595 797.287ZM145.359 792.806C146.183 792.207 146.383 791.257 145.793 790.444C145.242 789.685 144.269 789.569 143.444 790.168C142.686 790.718 142.37 791.669 142.944 792.461C143.558 793.307 144.524 793.412 145.359 792.806ZM148.069 796.562C149.036 795.86 149.51 794.71 148.744 793.655C148.018 792.654 146.797 792.567 145.731 793.341C144.654 794.123 144.358 795.311 145.084 796.311C145.85 797.366 147.09 797.272 148.069 796.562Z" fill="#365063"/>
<path d="M165.366 818.318L170.335 815.083L169.915 814.793L160.129 812.587L159.352 813.093L168.843 815.189L164.72 817.873L165.366 818.318Z" fill="#273A48"/>
<path d="M156.728 768.692C157.836 768.592 159.468 768.769 160.508 769.082C161.581 769.406 161.621 769.759 160.446 769.865C159.38 769.961 157.888 769.813 156.808 769.554L157.294 769.475C158.103 769.669 159.14 769.773 159.909 769.703C160.78 769.625 160.663 769.371 159.891 769.138C159.143 768.913 158.035 768.778 157.181 768.855C156.615 768.906 156.452 769.026 156.57 769.178L155.824 769.185L153.431 768.255L156.483 767.979L157.019 768.14L154.449 768.373L155.948 768.957C155.987 768.813 156.297 768.731 156.728 768.692Z" fill="#2E4658"/>
<path d="M117.987 799.667L120.575 797.932L120.429 798.464L117.031 800.742L117.174 800.218C118.552 798.613 120.409 796.392 120.824 794.877C121.021 794.157 120.801 793.93 120.167 794.355C119.419 794.856 118.908 795.714 118.67 796.562L118.202 796.842C118.509 795.721 119.3 794.496 120.315 793.815C121.189 793.229 121.616 793.458 121.315 794.555C120.916 796.012 119.484 797.921 117.987 799.667Z" fill="#466982"/>
</g>
<path opacity="0.4" fill-rule="evenodd" clip-rule="evenodd" d="M407.793 645.949C388.439 651.183 378.676 655.338 381.695 659.67L391.072 664.117L391.117 664.121C391.222 664.182 391.334 664.241 391.456 664.299C394.857 665.912 404.098 665.643 415.317 663.91L450.112 674.191C447.614 676.7 448.455 679.515 453.078 681.708C454.719 682.284 458.9 683.337 462.5 682.937L462.5 689.438L487 683.438L490 684.437L490 677.438C492.119 676.203 495.371 673.254 491.428 671.336C486.912 669.194 479.814 668.133 472.57 668.247L454.043 653.423C461.714 650.046 464.934 646.951 461.544 645.343C461.505 645.325 461.464 645.306 461.424 645.288L461.424 645.287L451.784 640.714C442.903 638.573 420.587 642.489 407.793 645.949Z" fill="#0B1C25"/>
<g filter="url(#filter15_i_59_9200)">
<path d="M384.033 654.911C377.715 648.234 379.781 637.538 386.912 621.67C391.626 611.18 401.992 596.653 409.858 597.447L420.669 602.305C424.518 608.962 418.891 621.259 413.364 633.557C408.144 645.172 401.78 657.442 394.549 659.637L384.033 654.911Z" fill="#665D96"/>
<ellipse cx="407.891" cy="631.098" rx="31.5" ry="12" transform="rotate(114.199 407.891 631.098)" fill="#7C6FC2"/>
<path d="M400.624 649.21L443.116 657.617L451.257 639.501L416.61 613.637C416.61 613.637 408.979 618.918 404.094 629.787C399.21 640.657 400.624 649.21 400.624 649.21Z" fill="#665D96"/>
<ellipse cx="459.204" cy="654.157" rx="17.2358" ry="16.7438" transform="rotate(114.199 459.204 654.157)" fill="#7C6FC2"/>
</g>
<path d="M86.8134 725.415V704.07L73.1968 699.286C92.9224 693.397 108.649 695.36 114.047 697.077L150.48 709.248V687.877C143.856 685.669 126.237 679.144 114.047 675.39C101.532 671.536 85.9547 674.628 78.717 676.469C57.2249 680.59 52.0972 686.773 52.2199 689.349V710.694C52.2199 713.344 55.9001 714.987 57.7401 715.478L86.8134 725.415Z" fill="#647B8A"/>
<path d="M-180 674.462V653.308L20.9364 721.39V742.735L-180 674.462Z" fill="#E4EDF2"/>
<path d="M87.1791 725.439V704.094L20.5684 721.391V742.735L87.1791 725.439Z" fill="#587284"/>
<path d="M202 695.629V674.652L150.478 687.901V709.246L202 695.629Z" fill="#587284"/>
<path d="M58.0001 628.124V649.101L112.466 667.87L139.405 656.397C143.821 655.219 144.925 652.717 144.925 651.613V632.113C144.925 628.605 144.311 627.263 143.5 626.438C141.944 624.854 128.925 620.613 120.195 619.292C105.576 617.08 94.5563 617.943 90.7535 619.292L58.0001 628.124Z" fill="#5B7180"/>
<path d="M-0.408478 606.938L-180 653.307L-121 673.438L-64 693.438L20.9364 721.39L87.1792 704.094L56.2659 693.421C51.2364 690.968 48.1696 684.294 76.1387 677.228C82.763 675.266 99.1765 672.076 111.836 675.02C112.818 675.266 115.884 676.124 120.301 677.596C124.717 679.069 142.259 685.079 150.478 687.901L202 674.652L-0.408478 606.938Z" fill="#AECBDE"/>
<path d="M200 674.938L116.5 646.438L130 642.938C143.5 639.438 151.15 628.098 137.5 620.438C126 613.986 107 613.938 84 620.438L58.5 626.891L0 606.938L-48 619.438C-32.5 624.938 -25.4967 627.389 -24.5 627.938C-11 635.363 -23.8333 645.438 -32 647.938C-53.6 654.738 -75 652.271 -80.5 650.438L-116 637.438L-180 653.938L-36.5 662.938L20.5 721.438L58.5 674.938L111 668.938L200 674.938Z" fill="#AECBDE"/>
<path opacity="0.4" fill-rule="evenodd" clip-rule="evenodd" d="M73.5 699.437L77.9999 697.937C78.299 695.545 77.2728 693.152 74.8681 691.57L79.5 676.437L60.957 665.006C62.3135 663.655 62.9966 662.335 63.1813 661.24L57.6813 653.74C50.4329 651.818 41.8259 653.779 30.6067 656.335L30.6063 656.335C27.9579 656.938 25.1639 657.575 22.2079 658.202C18.8997 658.903 13.6479 657.811 8.68357 656.778C-1.70645 654.617 -10.8372 652.718 1.74607 668.071C1.74607 668.071 4.11353 669.37 9.89743 672.305C13.2901 674.027 21.403 674.237 29.9526 673.603L54.5 686.437L56 693.436L59.9472 694.598L73.5 699.437Z" fill="#071821"/>
<g filter="url(#filter16_i_59_9200)">
<path d="M58 657.938C54.5 666.437 43.897 668.938 26.5 668.938C15 668.938 -2.50008 665.437 -5 657.938V646.085C-0.506174 639.846 13.0167 639.938 26.5 639.938C39.234 639.938 53.0346 640.713 58 646.408V657.938Z" fill="#B2913C"/>
<ellipse cx="26.5" cy="645.938" rx="31.5" ry="12" fill="#DCB551"/>
<path d="M46 645.142L36.25 602.938H16.3889L7 645.142C7 645.142 14.9444 649.938 26.8611 649.938C38.7778 649.938 46 645.142 46 645.142Z" fill="#B2913C"/>
<ellipse cx="26.4995" cy="589.681" rx="17.2358" ry="16.7438" fill="#DCB551"/>
</g>
<path d="M1321.6 725.997V704.652L1307.98 699.868C1327.7 693.98 1343.43 695.942 1348.83 697.66L1385.26 709.83V688.459C1378.64 686.251 1361.02 679.727 1348.83 675.973C1336.31 672.119 1321 675.613 1313.5 677.051C1292.01 681.173 1286.88 687.355 1287 689.931V711.276C1287 713.926 1290.68 715.57 1292.52 716.061L1321.6 725.997Z" fill="#647B8A"/>
<path d="M1311 676.958C1289.51 681.08 1286.88 686.551 1287 689.127C1286.99 690.726 1290.67 695.094 1305.48 699.775L1319.1 704.559L1384.5 688.127C1377.88 685.919 1360.69 679.381 1348.5 675.627C1335.99 671.773 1318.5 675.52 1311 676.958Z" fill="#89ABC2"/>
<path d="M1252 742.462V721.308L1452.94 789.39V810.735L1252 742.462Z" fill="#6A8394"/>
<path d="M1367.92 781.683V760.706L1313.46 741.938L1286.52 753.411C1282.1 754.588 1281 757.091 1281 758.195V777.695C1281 779.756 1283.13 781.285 1283.94 782.111C1285.5 783.695 1297 789.195 1305.73 790.516C1320.35 792.727 1331.37 791.865 1335.17 790.516L1367.92 781.683Z" fill="#748FA1"/>
<path d="M1431.59 674.938L1252 721.307L1311 741.438L1294 746.438C1286 748.438 1272.62 758.946 1288 765.938C1304.5 773.438 1326.5 773.938 1339 770.438L1368 761.438L1452.94 789.39L1519.18 772.094L1488.27 761.421C1483.24 758.968 1480.17 752.294 1508.14 745.228C1514.76 743.266 1531.18 740.076 1543.84 743.02C1544.82 743.266 1547.88 744.124 1552.3 745.596C1556.72 747.069 1574.26 753.079 1582.48 755.901L1634 742.652L1431.59 674.938Z" fill="#89ABC2"/>
</g>
<defs>
<filter id="filter0_i_59_9200" x="161" y="229.938" width="164.5" height="240" filterUnits="userSpaceOnUse" color-interpolation-filters="sRGB">
<feFlood flood-opacity="0" result="BackgroundImageFix"/>
<feBlend mode="normal" in="SourceGraphic" in2="BackgroundImageFix" result="shape"/>
<feColorMatrix in="SourceAlpha" type="matrix" values="0 0 0 0 0 0 0 0 0 0 0 0 0 0 0 0 0 0 127 0" result="hardAlpha"/>
<feOffset dx="2" dy="1"/>
<feComposite in2="hardAlpha" operator="arithmetic" k2="-1" k3="1"/>
<feColorMatrix type="matrix" values="0 0 0 0 0.96741 0 0 0 0 0.862863 0 0 0 0 0.653771 0 0 0 1 0"/>
<feBlend mode="normal" in2="shape" result="effect1_innerShadow_59_9200"/>
</filter>
<filter id="filter1_i_59_9200" x="221.002" y="32.3838" width="358.611" height="188.538" filterUnits="userSpaceOnUse" color-interpolation-filters="sRGB">
<feFlood flood-opacity="0" result="BackgroundImageFix"/>
<feBlend mode="normal" in="SourceGraphic" in2="BackgroundImageFix" result="shape"/>
<feColorMatrix in="SourceAlpha" type="matrix" values="0 0 0 0 0 0 0 0 0 0 0 0 0 0 0 0 0 0 127 0" result="hardAlpha"/>
<feOffset dx="1" dy="1"/>
<feComposite in2="hardAlpha" operator="arithmetic" k2="-1" k3="1"/>
<feColorMatrix type="matrix" values="0 0 0 0 0.968627 0 0 0 0 0.862745 0 0 0 0 0.654902 0 0 0 1 0"/>
<feBlend mode="normal" in2="shape" result="effect1_innerShadow_59_9200"/>
</filter>
<filter id="filter2_i_59_9200" x="435" y="171.938" width="63" height="96" filterUnits="userSpaceOnUse" color-interpolation-filters="sRGB">
<feFlood flood-opacity="0" result="BackgroundImageFix"/>
<feBlend mode="normal" in="SourceGraphic" in2="BackgroundImageFix" result="shape"/>
<feColorMatrix in="SourceAlpha" type="matrix" values="0 0 0 0 0 0 0 0 0 0 0 0 0 0 0 0 0 0 127 0" result="hardAlpha"/>
<feOffset dx="1" dy="1"/>
<feComposite in2="hardAlpha" operator="arithmetic" k2="-1" k3="1"/>
<feColorMatrix type="matrix" values="0 0 0 0 0.984314 0 0 0 0 0.854902 0 0 0 0 0.596078 0 0 0 1 0"/>
<feBlend mode="normal" in2="shape" result="effect1_innerShadow_59_9200"/>
</filter>
<filter id="filter3_i_59_9200" x="957.5" y="37.9375" width="164" height="240" filterUnits="userSpaceOnUse" color-interpolation-filters="sRGB">
<feFlood flood-opacity="0" result="BackgroundImageFix"/>
<feBlend mode="normal" in="SourceGraphic" in2="BackgroundImageFix" result="shape"/>
<feColorMatrix in="SourceAlpha" type="matrix" values="0 0 0 0 0 0 0 0 0 0 0 0 0 0 0 0 0 0 127 0" result="hardAlpha"/>
<feOffset dx="2" dy="1"/>
<feComposite in2="hardAlpha" operator="arithmetic" k2="-1" k3="1"/>
<feColorMatrix type="matrix" values="0 0 0 0 0.984314 0 0 0 0 0.854902 0 0 0 0 0.596078 0 0 0 1 0"/>
<feBlend mode="normal" in2="shape" result="effect1_innerShadow_59_9200"/>
</filter>
<filter id="filter4_i_59_9200" x="992.692" y="9.38477" width="109.488" height="189.1" filterUnits="userSpaceOnUse" color-interpolation-filters="sRGB">
<feFlood flood-opacity="0" result="BackgroundImageFix"/>
<feBlend mode="normal" in="SourceGraphic" in2="BackgroundImageFix" result="shape"/>
<feColorMatrix in="SourceAlpha" type="matrix" values="0 0 0 0 0 0 0 0 0 0 0 0 0 0 0 0 0 0 127 0" result="hardAlpha"/>
<feOffset dx="2" dy="1"/>
<feComposite in2="hardAlpha" operator="arithmetic" k2="-1" k3="1"/>
<feColorMatrix type="matrix" values="0 0 0 0 0.96741 0 0 0 0 0.862863 0 0 0 0 0.653771 0 0 0 1 0"/>
<feBlend mode="normal" in2="shape" result="effect1_innerShadow_59_9200"/>
</filter>
<filter id="filter5_i_59_9200" x="1246" y="441.938" width="63" height="96" filterUnits="userSpaceOnUse" color-interpolation-filters="sRGB">
<feFlood flood-opacity="0" result="BackgroundImageFix"/>
<feBlend mode="normal" in="SourceGraphic" in2="BackgroundImageFix" result="shape"/>
<feColorMatrix in="SourceAlpha" type="matrix" values="0 0 0 0 0 0 0 0 0 0 0 0 0 0 0 0 0 0 127 0" result="hardAlpha"/>
<feOffset dx="1" dy="2"/>
<feComposite in2="hardAlpha" operator="arithmetic" k2="-1" k3="1"/>
<feColorMatrix type="matrix" values="0 0 0 0 0.984314 0 0 0 0 0.854902 0 0 0 0 0.596078 0 0 0 1 0"/>
<feBlend mode="normal" in2="shape" result="effect1_innerShadow_59_9200"/>
</filter>
<filter id="filter6_i_59_9200" x="518.097" y="590.952" width="46.6616" height="16.98" filterUnits="userSpaceOnUse" color-interpolation-filters="sRGB">
<feFlood flood-opacity="0" result="BackgroundImageFix"/>
<feBlend mode="normal" in="SourceGraphic" in2="BackgroundImageFix" result="shape"/>
<feColorMatrix in="SourceAlpha" type="matrix" values="0 0 0 0 0 0 0 0 0 0 0 0 0 0 0 0 0 0 127 0" result="hardAlpha"/>
<feOffset dx="1" dy="1"/>
<feComposite in2="hardAlpha" operator="arithmetic" k2="-1" k3="1"/>
<feColorMatrix type="matrix" values="0 0 0 0 0.907617 0 0 0 0 0.907617 0 0 0 0 0.907617 0 0 0 1 0"/>
<feBlend mode="normal" in2="shape" result="effect1_innerShadow_59_9200"/>
</filter>
<filter id="filter7_d_59_9200" x="527.023" y="570.508" width="28.6639" height="31.715" filterUnits="userSpaceOnUse" color-interpolation-filters="sRGB">
<feFlood flood-opacity="0" result="BackgroundImageFix"/>
<feColorMatrix in="SourceAlpha" type="matrix" values="0 0 0 0 0 0 0 0 0 0 0 0 0 0 0 0 0 0 127 0" result="hardAlpha"/>
<feOffset dy="0.822003"/>
<feGaussianBlur stdDeviation="0.342501"/>
<feComposite in2="hardAlpha" operator="out"/>
<feColorMatrix type="matrix" values="0 0 0 0 0.841667 0 0 0 0 0.582122 0 0 0 0 0.340174 0 0 0 1 0"/>
<feBlend mode="normal" in2="BackgroundImageFix" result="effect1_dropShadow_59_9200"/>
<feBlend mode="normal" in="SourceGraphic" in2="effect1_dropShadow_59_9200" result="shape"/>
</filter>
<filter id="filter8_i_59_9200" x="528.585" y="577.163" width="25.3159" height="15.4546" filterUnits="userSpaceOnUse" color-interpolation-filters="sRGB">
<feFlood flood-opacity="0" result="BackgroundImageFix"/>
<feBlend mode="normal" in="SourceGraphic" in2="BackgroundImageFix" result="shape"/>
<feColorMatrix in="SourceAlpha" type="matrix" values="0 0 0 0 0 0 0 0 0 0 0 0 0 0 0 0 0 0 127 0" result="hardAlpha"/>
<feOffset dx="1" dy="1"/>
<feComposite in2="hardAlpha" operator="arithmetic" k2="-1" k3="1"/>
<feColorMatrix type="matrix" values="0 0 0 0 0.907617 0 0 0 0 0.907617 0 0 0 0 0.907617 0 0 0 1 0"/>
<feBlend mode="normal" in2="shape" result="effect1_innerShadow_59_9200"/>
</filter>
<filter id="filter9_i_59_9200" x="569.564" y="528.363" width="34.8208" height="27.9272" filterUnits="userSpaceOnUse" color-interpolation-filters="sRGB">
<feFlood flood-opacity="0" result="BackgroundImageFix"/>
<feBlend mode="normal" in="SourceGraphic" in2="BackgroundImageFix" result="shape"/>
<feColorMatrix in="SourceAlpha" type="matrix" values="0 0 0 0 0 0 0 0 0 0 0 0 0 0 0 0 0 0 127 0" result="hardAlpha"/>
<feOffset dx="1" dy="1"/>
<feComposite in2="hardAlpha" operator="arithmetic" k2="-1" k3="1"/>
<feColorMatrix type="matrix" values="0 0 0 0 0.907617 0 0 0 0 0.907617 0 0 0 0 0.907617 0 0 0 1 0"/>
<feBlend mode="normal" in2="shape" result="effect1_innerShadow_59_9200"/>
</filter>
<filter id="filter10_d_59_9200" x="576.225" y="528.363" width="21.3905" height="23.6671" filterUnits="userSpaceOnUse" color-interpolation-filters="sRGB">
<feFlood flood-opacity="0" result="BackgroundImageFix"/>
<feColorMatrix in="SourceAlpha" type="matrix" values="0 0 0 0 0 0 0 0 0 0 0 0 0 0 0 0 0 0 127 0" result="hardAlpha"/>
<feOffset dy="0.613407"/>
<feGaussianBlur stdDeviation="0.255586"/>
<feComposite in2="hardAlpha" operator="out"/>
<feColorMatrix type="matrix" values="0 0 0 0 0.841667 0 0 0 0 0.582122 0 0 0 0 0.340174 0 0 0 1 0"/>
<feBlend mode="normal" in2="BackgroundImageFix" result="effect1_dropShadow_59_9200"/>
<feBlend mode="normal" in="SourceGraphic" in2="effect1_dropShadow_59_9200" result="shape"/>
</filter>
<filter id="filter11_i_59_9200" x="272" y="664.938" width="122.004" height="178" filterUnits="userSpaceOnUse" color-interpolation-filters="sRGB">
<feFlood flood-opacity="0" result="BackgroundImageFix"/>
<feBlend mode="normal" in="SourceGraphic" in2="BackgroundImageFix" result="shape"/>
<feColorMatrix in="SourceAlpha" type="matrix" values="0 0 0 0 0 0 0 0 0 0 0 0 0 0 0 0 0 0 127 0" result="hardAlpha"/>
<feOffset dx="1" dy="1"/>
<feComposite in2="hardAlpha" operator="arithmetic" k2="-1" k3="1"/>
<feColorMatrix type="matrix" values="0 0 0 0 0.968627 0 0 0 0 0.862745 0 0 0 0 0.654902 0 0 0 1 0"/>
<feBlend mode="normal" in2="shape" result="effect1_innerShadow_59_9200"/>
</filter>
<filter id="filter12_i_59_9200" x="560.345" y="511.665" width="95.2695" height="84.0493" filterUnits="userSpaceOnUse" color-interpolation-filters="sRGB">
<feFlood flood-opacity="0" result="BackgroundImageFix"/>
<feBlend mode="normal" in="SourceGraphic" in2="BackgroundImageFix" result="shape"/>
<feColorMatrix in="SourceAlpha" type="matrix" values="0 0 0 0 0 0 0 0 0 0 0 0 0 0 0 0 0 0 127 0" result="hardAlpha"/>
<feOffset dx="1" dy="1"/>
<feComposite in2="hardAlpha" operator="arithmetic" k2="-1" k3="1"/>
<feColorMatrix type="matrix" values="0 0 0 0 0.968627 0 0 0 0 0.862745 0 0 0 0 0.654902 0 0 0 1 0"/>
<feBlend mode="normal" in2="shape" result="effect1_innerShadow_59_9200"/>
</filter>
<filter id="filter13_d_59_9200" x="577.72" y="557.903" width="55.7357" height="42.2347" filterUnits="userSpaceOnUse" color-interpolation-filters="sRGB">
<feFlood flood-opacity="0" result="BackgroundImageFix"/>
<feColorMatrix in="SourceAlpha" type="matrix" values="0 0 0 0 0 0 0 0 0 0 0 0 0 0 0 0 0 0 127 0" result="hardAlpha"/>
<feOffset dx="4.29453" dy="4.29453"/>
<feGaussianBlur stdDeviation="4.29453"/>
<feComposite in2="hardAlpha" operator="out"/>
<feColorMatrix type="matrix" values="0 0 0 0 0 0 0 0 0 0 0 0 0 0 0 0 0 0 0.05 0"/>
<feBlend mode="normal" in2="BackgroundImageFix" result="effect1_dropShadow_59_9200"/>
<feBlend mode="normal" in="SourceGraphic" in2="effect1_dropShadow_59_9200" result="shape"/>
</filter>
<filter id="filter14_i_59_9200" x="113.217" y="764.641" width="81.2368" height="72.3354" filterUnits="userSpaceOnUse" color-interpolation-filters="sRGB">
<feFlood flood-opacity="0" result="BackgroundImageFix"/>
<feBlend mode="normal" in="SourceGraphic" in2="BackgroundImageFix" result="shape"/>
<feColorMatrix in="SourceAlpha" type="matrix" values="0 0 0 0 0 0 0 0 0 0 0 0 0 0 0 0 0 0 127 0" result="hardAlpha"/>
<feOffset dx="1" dy="1"/>
<feComposite in2="hardAlpha" operator="arithmetic" k2="-1" k3="1"/>
<feColorMatrix type="matrix" values="0 0 0 0 0.968627 0 0 0 0 0.862745 0 0 0 0 0.654902 0 0 0 1 0"/>
<feBlend mode="normal" in2="shape" result="effect1_innerShadow_59_9200"/>
</filter>
<filter id="filter15_i_59_9200" x="380.261" y="597.416" width="95.7744" height="73.8999" filterUnits="userSpaceOnUse" color-interpolation-filters="sRGB">
<feFlood flood-opacity="0" result="BackgroundImageFix"/>
<feBlend mode="normal" in="SourceGraphic" in2="BackgroundImageFix" result="shape"/>
<feColorMatrix in="SourceAlpha" type="matrix" values="0 0 0 0 0 0 0 0 0 0 0 0 0 0 0 0 0 0 127 0" result="hardAlpha"/>
<feOffset dx="1" dy="1"/>
<feComposite in2="hardAlpha" operator="arithmetic" k2="-1" k3="1"/>
<feColorMatrix type="matrix" values="0 0 0 0 0.968627 0 0 0 0 0.862745 0 0 0 0 0.654902 0 0 0 1 0"/>
<feBlend mode="normal" in2="shape" result="effect1_innerShadow_59_9200"/>
</filter>
<filter id="filter16_i_59_9200" x="-5" y="572.938" width="63" height="96" filterUnits="userSpaceOnUse" color-interpolation-filters="sRGB">
<feFlood flood-opacity="0" result="BackgroundImageFix"/>
<feBlend mode="normal" in="SourceGraphic" in2="BackgroundImageFix" result="shape"/>
<feColorMatrix in="SourceAlpha" type="matrix" values="0 0 0 0 0 0 0 0 0 0 0 0 0 0 0 0 0 0 127 0" result="hardAlpha"/>
<feOffset dx="2" dy="3"/>
<feComposite in2="hardAlpha" operator="arithmetic" k2="-1" k3="1"/>
<feColorMatrix type="matrix" values="0 0 0 0 0.968627 0 0 0 0 0.862745 0 0 0 0 0.654902 0 0 0 1 0"/>
<feBlend mode="normal" in2="shape" result="effect1_innerShadow_59_9200"/>
</filter>
<clipPath id="clip0_59_9200">
<rect width="1440" height="900" fill="white"/>
</clipPath>
</defs>
</svg>
