<svg width="1440" height="857" viewBox="0 0 1440 857" fill="none" xmlns="http://www.w3.org/2000/svg">
<g clip-path="url(#clip0_20_4794)">
<g opacity="0.9" filter="url(#filter0_f_20_4794)">
<path d="M228.428 395.663C223.009 369.744 228.428 351.111 198.758 337.188C169.089 323.265 144.055 337.188 144.055 337.188C144.055 337.188 118.166 352.306 107.895 365.961C88.3297 352.618 80.0799 365.961 42.0657 365.961C4.0515 365.961 -20.0551 395.663 -20.0551 395.663C-20.0551 395.663 -23.7638 384.525 -71.0497 395.663C-118.336 406.801 -93.302 417.939 -93.302 417.939C-117.065 409.517 -148.505 423.63 -199 443H323L283.131 417.939C283.131 417.939 299.821 410.514 283.131 395.663C266.442 380.812 244.483 385.05 228.428 395.663Z" fill="white"/>
<path d="M228.428 395.663C223.009 369.744 228.428 351.111 198.758 337.188C169.089 323.265 144.055 337.188 144.055 337.188C144.055 337.188 118.166 352.306 107.895 365.961C88.3297 352.618 80.0799 365.961 42.0657 365.961C4.0515 365.961 -20.0551 395.663 -20.0551 395.663C-20.0551 395.663 -23.7638 384.525 -71.0497 395.663C-118.336 406.801 -93.302 417.939 -93.302 417.939C-117.065 409.517 -148.505 423.63 -199 443H323L283.131 417.939C283.131 417.939 299.821 410.514 283.131 395.663C266.442 380.812 244.483 385.05 228.428 395.663Z" stroke="white" stroke-width="3"/>
</g>
<g opacity="0.9" filter="url(#filter1_f_20_4794)">
<path d="M1226.02 205.18C1231.52 170.235 1226.02 145.114 1256.15 126.343C1286.27 107.572 1311.69 126.343 1311.69 126.343C1311.69 126.343 1337.97 146.725 1348.4 165.136C1368.27 147.145 1376.64 165.136 1415.24 165.136C1453.84 165.136 1478.31 205.18 1478.31 205.18C1478.31 205.18 1482.08 190.163 1530.09 205.18C1578.1 220.197 1552.68 235.213 1552.68 235.213C1576.81 223.858 1608.73 242.886 1660 269H1130L1170.48 235.213C1170.48 235.213 1153.53 225.202 1170.48 205.18C1187.42 185.157 1209.72 190.871 1226.02 205.18Z" fill="white"/>
<path d="M1226.02 205.18C1231.52 170.235 1226.02 145.114 1256.15 126.343C1286.27 107.572 1311.69 126.343 1311.69 126.343C1311.69 126.343 1337.97 146.725 1348.4 165.136C1368.27 147.145 1376.64 165.136 1415.24 165.136C1453.84 165.136 1478.31 205.18 1478.31 205.18C1478.31 205.18 1482.08 190.163 1530.09 205.18C1578.1 220.197 1552.68 235.213 1552.68 235.213C1576.81 223.858 1608.73 242.886 1660 269H1130L1170.48 235.213C1170.48 235.213 1153.53 225.202 1170.48 205.18C1187.42 185.157 1209.72 190.871 1226.02 205.18Z" stroke="white" stroke-width="3"/>
</g>
</g>
<defs>
<filter id="filter0_f_20_4794" x="-203.537" y="325.5" width="535.742" height="123" filterUnits="userSpaceOnUse" color-interpolation-filters="sRGB">
<feFlood flood-opacity="0" result="BackgroundImageFix"/>
<feBlend mode="normal" in="SourceGraphic" in2="BackgroundImageFix" result="shape"/>
<feGaussianBlur stdDeviation="2" result="effect1_foregroundBlur_20_4794"/>
</filter>
<filter id="filter1_f_20_4794" x="1121.86" y="112.5" width="542.818" height="162" filterUnits="userSpaceOnUse" color-interpolation-filters="sRGB">
<feFlood flood-opacity="0" result="BackgroundImageFix"/>
<feBlend mode="normal" in="SourceGraphic" in2="BackgroundImageFix" result="shape"/>
<feGaussianBlur stdDeviation="2" result="effect1_foregroundBlur_20_4794"/>
</filter>
<clipPath id="clip0_20_4794">
<rect width="1440" height="857" fill="white"/>
</clipPath>
</defs>
</svg>
