<svg width="1440" height="1057" viewBox="0 0 1440 1057" fill="none" xmlns="http://www.w3.org/2000/svg">
<g clip-path="url(#clip0_35_2304)">
<path d="M759.012 108.334C736.351 125.757 712.663 133.814 669.98 144.849C623.167 151.439 595.916 158.55 555.054 169.214C549.972 170.54 544.679 171.922 539.111 173.364C503.718 200.547 492.142 207.445 486.995 204.094L462.095 194.681C437.607 188.773 423.249 190.788 399.943 194.06C398.499 194.263 397.02 194.47 395.502 194.681C372.288 224.497 350.605 243.008 319.066 247.835C301.351 239.956 294.593 237.779 288.954 238.422C271.528 250.179 208.072 258.756 144.97 267.286C76.2962 276.569 8.04258 285.795 0 299L-9 -23.5L737.5 -6.5H1451.5L1440 299C1406.54 271.944 1384.06 258.111 1333.32 237.278C1235.62 214.536 1134.36 192.051 1113.98 190.987C1104.73 190.504 1092.66 184.529 1078.47 177.505C1061.41 169.055 1041.27 159.086 1019.29 155.337C946.503 145.44 911.982 140.169 876.655 131.925C857.351 139.125 845.568 139.752 826.517 140.767C825.283 140.832 824.018 140.9 822.718 140.971C822.718 140.971 805.937 131.925 792.753 140.971C784.25 146.804 776.736 135.159 767.977 121.585C765.144 117.194 762.181 112.602 759.012 108.334Z" fill="url(#paint0_linear_35_2304)"/>
<g filter="url(#filter0_d_35_2304)">
<path d="M-50.15 264.188C-58.4879 241.188 -58.9134 215.742 -58.9134 215.742L-18.3213 215.063C4.48444 197.977 42.8106 193.613 62.4918 200.852C64.8344 199.748 66.2824 199.03 67.12 198.597C68.7814 197.737 68.0419 197.998 67.12 198.597C65.6291 199.565 63.6614 201.419 70.6012 200.85C70.9127 201.205 104.997 206.166 104.71 213.006L104.875 222.837C104.875 222.837 102.216 239.079 95.1409 241.511C88.0655 243.944 86.6141 257.273 82.9252 261.963C79.2363 266.652 81.6001 256.369 62.4751 272.01C62.4751 272.01 49.8076 307.765 49.8132 283.646C48.1877 286.566 39.3696 362.226 33.0368 375.756C26.7041 389.286 23.3638 359.854 19.6362 362.23C15.9086 364.606 3.71117 406.172 -0.10347 403.343C-3.91811 400.515 -2.83674 390.084 -11.448 375.766C-20.0593 361.448 -28.4928 313.434 -34.9495 272.032C-41.9618 288.248 -41.8122 287.188 -50.15 264.188Z" fill="url(#paint1_linear_35_2304)"/>
<path d="M-50.15 264.188C-58.4879 241.188 -58.9134 215.742 -58.9134 215.742L-18.3213 215.063C4.48444 197.977 42.8106 193.613 62.4918 200.852C64.8344 199.748 66.2824 199.03 67.12 198.597C68.7814 197.737 68.0419 197.998 67.12 198.597C65.6291 199.565 63.6614 201.419 70.6012 200.85C70.9127 201.205 104.997 206.166 104.71 213.006L104.875 222.837C104.875 222.837 102.216 239.079 95.1409 241.511C88.0655 243.944 86.6141 257.273 82.9252 261.963C79.2363 266.652 81.6001 256.369 62.4751 272.01C62.4751 272.01 49.8076 307.765 49.8132 283.646C48.1877 286.566 39.3696 362.226 33.0368 375.756C26.7041 389.286 23.3638 359.854 19.6362 362.23C15.9086 364.606 3.71117 406.172 -0.10347 403.343C-3.91811 400.515 -2.83674 390.084 -11.448 375.766C-20.0593 361.448 -28.4928 313.434 -34.9495 272.032C-41.9618 288.248 -41.8122 287.188 -50.15 264.188Z" fill="url(#paint2_linear_35_2304)"/>
</g>
<g filter="url(#filter1_d_35_2304)">
<path d="M323.275 243.714C331.32 240.874 310.332 232.482 310.332 232.482C305.848 236.633 296.825 227.683 274.743 201.344C264.98 205.502 261.459 208.395 256.64 213.974C260.965 237.41 266.375 294.035 272.866 298.653C279.357 303.271 297.215 285.264 309.899 254.938C309.899 254.938 315.231 246.555 323.275 243.714Z" fill="url(#paint3_linear_35_2304)"/>
<path d="M323.275 243.714C331.32 240.874 310.332 232.482 310.332 232.482C305.848 236.633 296.825 227.683 274.743 201.344C264.98 205.502 261.459 208.395 256.64 213.974C260.965 237.41 266.375 294.035 272.866 298.653C279.357 303.271 297.215 285.264 309.899 254.938C309.899 254.938 315.231 246.555 323.275 243.714Z" fill="url(#paint4_linear_35_2304)"/>
</g>
<g filter="url(#filter2_d_35_2304)">
<path d="M1027.11 155C1018.61 152 1038.53 144.5 1038.53 144.5C1043.21 148.744 1038.58 140.954 1062.61 115C1072.91 119.353 1091.1 138.819 1096.11 144.5C1091.03 167.89 1069.61 207 1062.61 211.5C1055.61 216 1051.4 197.619 1038.53 167C1038.53 167 1035.61 158 1027.11 155Z" fill="url(#paint5_linear_35_2304)"/>
<path d="M1027.11 155C1018.61 152 1038.53 144.5 1038.53 144.5C1043.21 148.744 1038.58 140.954 1062.61 115C1072.91 119.353 1091.1 138.819 1096.11 144.5C1091.03 167.89 1069.61 207 1062.61 211.5C1055.61 216 1051.4 197.619 1038.53 167C1038.53 167 1035.61 158 1027.11 155Z" fill="url(#paint6_linear_35_2304)"/>
</g>
<path d="M660.42 132.46C665.865 127.933 647.96 133.497 647.96 133.497C645.525 137.035 636.577 137.315 613.64 136.247C607.198 142.021 605.201 144.655 602.846 148.9C611.616 156.334 628.98 176.428 634.991 175.508C641.002 174.587 650.351 159.912 652.887 142.557C652.887 142.557 654.974 136.987 660.42 132.46Z" fill="url(#paint7_linear_35_2304)"/>
<path d="M660.42 132.46C665.865 127.933 647.96 133.497 647.96 133.497C645.525 137.035 636.577 137.315 613.64 136.247C607.198 142.021 605.201 144.655 602.846 148.9C611.616 156.334 628.98 176.428 634.991 175.508C641.002 174.587 650.351 159.912 652.887 142.557C652.887 142.557 654.974 136.987 660.42 132.46Z" fill="url(#paint8_linear_35_2304)"/>
<g filter="url(#filter3_d_35_2304)">
<path d="M1176.2 209.805C1164.52 198.875 1165.37 187.915 1165.37 187.915L1228.95 192.853C1265.27 188.516 1282.26 191.67 1312.03 197.195L1313 197.377C1336.11 196.318 1331.55 229.857 1352.58 231.111C1362.07 231.677 1376.21 238.514 1375.36 241.408L1410.47 247.795L1410.14 252.03C1410.14 252.03 1405.01 258.647 1393.79 258.778C1382.57 258.909 1379.5 264.434 1373.45 265.969C1367.39 267.503 1355.37 269.442 1332.21 262.766C1332.21 262.766 1328.37 278.254 1322.29 280.038C1316.22 281.821 1311.11 279.67 1308.39 280.712C1305.67 281.754 1294.16 294.141 1290.09 295.579C1286.02 297.017 1270.91 296.344 1264.93 296.882C1258.96 297.42 1245.94 303.676 1240.14 301.973C1234.34 300.269 1236.65 295.939 1224.02 288.694C1211.4 281.449 1207.16 233.699 1199.52 215.125C1187.58 221.171 1187.88 220.736 1176.2 209.805Z" fill="url(#paint9_linear_35_2304)"/>
<path d="M1176.2 209.805C1164.52 198.875 1165.37 187.915 1165.37 187.915L1228.95 192.853C1265.27 188.516 1282.26 191.67 1312.03 197.195L1313 197.377C1336.11 196.318 1331.55 229.857 1352.58 231.111C1362.07 231.677 1376.21 238.514 1375.36 241.408L1410.47 247.795L1410.14 252.03C1410.14 252.03 1405.01 258.647 1393.79 258.778C1382.57 258.909 1379.5 264.434 1373.45 265.969C1367.39 267.503 1355.37 269.442 1332.21 262.766C1332.21 262.766 1328.37 278.254 1322.29 280.038C1316.22 281.821 1311.11 279.67 1308.39 280.712C1305.67 281.754 1294.16 294.141 1290.09 295.579C1286.02 297.017 1270.91 296.344 1264.93 296.882C1258.96 297.42 1245.94 303.676 1240.14 301.973C1234.34 300.269 1236.65 295.939 1224.02 288.694C1211.4 281.449 1207.16 233.699 1199.52 215.125C1187.58 221.171 1187.88 220.736 1176.2 209.805Z" fill="url(#paint10_linear_35_2304)"/>
</g>
</g>
<defs>
<filter id="filter0_d_35_2304" x="-62.9141" y="197.498" width="171.789" height="213.984" filterUnits="userSpaceOnUse" color-interpolation-filters="sRGB">
<feFlood flood-opacity="0" result="BackgroundImageFix"/>
<feColorMatrix in="SourceAlpha" type="matrix" values="0 0 0 0 0 0 0 0 0 0 0 0 0 0 0 0 0 0 127 0" result="hardAlpha"/>
<feOffset dy="4"/>
<feGaussianBlur stdDeviation="2"/>
<feComposite in2="hardAlpha" operator="out"/>
<feColorMatrix type="matrix" values="0 0 0 0 0 0 0 0 0 0 0 0 0 0 0 0 0 0 0.25 0"/>
<feBlend mode="normal" in2="BackgroundImageFix" result="effect1_dropShadow_35_2304"/>
<feBlend mode="normal" in="SourceGraphic" in2="effect1_dropShadow_35_2304" result="shape"/>
</filter>
<filter id="filter1_d_35_2304" x="252.639" y="201.344" width="76.4727" height="106.027" filterUnits="userSpaceOnUse" color-interpolation-filters="sRGB">
<feFlood flood-opacity="0" result="BackgroundImageFix"/>
<feColorMatrix in="SourceAlpha" type="matrix" values="0 0 0 0 0 0 0 0 0 0 0 0 0 0 0 0 0 0 127 0" result="hardAlpha"/>
<feOffset dy="4"/>
<feGaussianBlur stdDeviation="2"/>
<feComposite in2="hardAlpha" operator="out"/>
<feColorMatrix type="matrix" values="0 0 0 0 0 0 0 0 0 0 0 0 0 0 0 0 0 0 0.25 0"/>
<feBlend mode="normal" in2="BackgroundImageFix" result="effect1_dropShadow_35_2304"/>
<feBlend mode="normal" in="SourceGraphic" in2="effect1_dropShadow_35_2304" result="shape"/>
</filter>
<filter id="filter2_d_35_2304" x="1021" y="115" width="79.1113" height="105.174" filterUnits="userSpaceOnUse" color-interpolation-filters="sRGB">
<feFlood flood-opacity="0" result="BackgroundImageFix"/>
<feColorMatrix in="SourceAlpha" type="matrix" values="0 0 0 0 0 0 0 0 0 0 0 0 0 0 0 0 0 0 127 0" result="hardAlpha"/>
<feOffset dy="4"/>
<feGaussianBlur stdDeviation="2"/>
<feComposite in2="hardAlpha" operator="out"/>
<feColorMatrix type="matrix" values="0 0 0 0 0 0 0 0 0 0 0 0 0 0 0 0 0 0 0.25 0"/>
<feBlend mode="normal" in2="BackgroundImageFix" result="effect1_dropShadow_35_2304"/>
<feBlend mode="normal" in="SourceGraphic" in2="effect1_dropShadow_35_2304" result="shape"/>
</filter>
<filter id="filter3_d_35_2304" x="1161.35" y="187.916" width="253.115" height="122.35" filterUnits="userSpaceOnUse" color-interpolation-filters="sRGB">
<feFlood flood-opacity="0" result="BackgroundImageFix"/>
<feColorMatrix in="SourceAlpha" type="matrix" values="0 0 0 0 0 0 0 0 0 0 0 0 0 0 0 0 0 0 127 0" result="hardAlpha"/>
<feOffset dy="4"/>
<feGaussianBlur stdDeviation="2"/>
<feComposite in2="hardAlpha" operator="out"/>
<feColorMatrix type="matrix" values="0 0 0 0 0 0 0 0 0 0 0 0 0 0 0 0 0 0 0.25 0"/>
<feBlend mode="normal" in2="BackgroundImageFix" result="effect1_dropShadow_35_2304"/>
<feBlend mode="normal" in="SourceGraphic" in2="effect1_dropShadow_35_2304" result="shape"/>
</filter>
<linearGradient id="paint0_linear_35_2304" x1="1129" y1="100" x2="1129" y2="324.5" gradientUnits="userSpaceOnUse">
<stop stop-color="#92908A"/>
<stop offset="1" stop-color="#8C8C86"/>
</linearGradient>
<linearGradient id="paint1_linear_35_2304" x1="-105.918" y1="282.718" x2="-19.5383" y2="201.415" gradientUnits="userSpaceOnUse">
<stop stop-color="#706A6A"/>
<stop offset="0.797524" stop-color="#716769"/>
</linearGradient>
<linearGradient id="paint2_linear_35_2304" x1="26.0554" y1="403.051" x2="22.6227" y2="197.776" gradientUnits="userSpaceOnUse">
<stop stop-color="#918F8A"/>
<stop offset="1" stop-color="#908F89" stop-opacity="0"/>
</linearGradient>
<linearGradient id="paint3_linear_35_2304" x1="235.478" y1="259.083" x2="275.913" y2="292.895" gradientUnits="userSpaceOnUse">
<stop stop-color="#706A6A"/>
<stop offset="0.797524" stop-color="#716769"/>
</linearGradient>
<linearGradient id="paint4_linear_35_2304" x1="291.383" y1="201.665" x2="289.494" y2="299.647" gradientUnits="userSpaceOnUse">
<stop stop-color="#918F8A"/>
<stop offset="1" stop-color="#908F89" stop-opacity="0"/>
</linearGradient>
<linearGradient id="paint5_linear_35_2304" x1="1117.02" y1="172.992" x2="1075.98" y2="207.287" gradientUnits="userSpaceOnUse">
<stop stop-color="#706A6A"/>
<stop offset="0.797524" stop-color="#716769"/>
</linearGradient>
<linearGradient id="paint6_linear_35_2304" x1="1060.56" y1="115" x2="1060.56" y2="212.174" gradientUnits="userSpaceOnUse">
<stop stop-color="#918F8A"/>
<stop offset="1" stop-color="#908F89" stop-opacity="0"/>
</linearGradient>
<linearGradient id="paint7_linear_35_2304" x1="597.331" y1="175.686" x2="625.795" y2="190.924" gradientUnits="userSpaceOnUse">
<stop stop-color="#706A6A"/>
<stop offset="0.797524" stop-color="#716769"/>
</linearGradient>
<linearGradient id="paint8_linear_35_2304" x1="626.354" y1="129.332" x2="647.853" y2="168.865" gradientUnits="userSpaceOnUse">
<stop stop-color="#918F8A"/>
<stop offset="1" stop-color="#908F89" stop-opacity="0"/>
</linearGradient>
<linearGradient id="paint9_linear_35_2304" x1="1089.23" y1="222.757" x2="1128.9" y2="141.819" gradientUnits="userSpaceOnUse">
<stop stop-color="#706A6A"/>
<stop offset="0.797524" stop-color="#716769"/>
</linearGradient>
<linearGradient id="paint10_linear_35_2304" x1="1281.13" y1="305.301" x2="1289.88" y2="192.64" gradientUnits="userSpaceOnUse">
<stop stop-color="#918F8A"/>
<stop offset="1" stop-color="#908F89" stop-opacity="0"/>
</linearGradient>
<clipPath id="clip0_35_2304">
<rect width="1440" height="1057" fill="white"/>
</clipPath>
</defs>
</svg>
