<svg width="1440" height="857" viewBox="0 0 1440 857" fill="none" xmlns="http://www.w3.org/2000/svg">
<g clip-path="url(#clip0_20_1606)">
<path d="M759.012 8.33388C736.351 25.757 712.663 33.8144 669.98 44.8489C623.167 51.4388 595.916 58.5505 555.054 69.214C549.972 70.5404 544.679 71.9217 539.111 73.3639C503.718 100.547 492.142 107.445 486.995 104.094L462.095 94.6809C437.607 88.7726 423.249 90.7881 399.943 94.0598C398.499 94.2625 397.02 94.4701 395.502 94.6809C372.288 124.497 350.605 143.008 319.066 147.835C301.351 139.956 294.593 137.779 288.954 138.422C271.528 150.179 208.072 158.756 144.97 167.286C76.2962 176.569 8.04258 185.795 0 199V0H752H1440V199C1406.54 171.944 1384.06 158.111 1333.32 137.278C1235.62 114.536 1134.36 92.0508 1113.98 90.9866C1104.73 90.5036 1092.66 84.5287 1078.47 77.505C1061.41 69.0546 1041.27 59.086 1019.29 55.3369C946.503 45.4396 911.982 40.1686 876.655 31.9251C857.351 39.1252 845.568 39.7524 826.517 40.7666C825.283 40.8324 824.018 40.8997 822.718 40.9706C822.718 40.9706 805.937 31.9251 792.753 40.9706C784.25 46.8036 776.736 35.1588 767.977 21.5849C765.144 17.1943 762.181 12.6019 759.012 8.33388Z" fill="url(#paint0_linear_20_1606)"/>
<g filter="url(#filter0_d_20_1606)">
<path d="M-50.1491 164.188C-58.4869 141.188 -58.9124 115.742 -58.9124 115.742L-18.3203 115.063C4.48542 97.9774 42.8116 93.613 62.4928 100.852C64.8354 99.7483 66.2834 99.0301 67.121 98.5967C68.7824 97.737 68.0429 97.9977 67.121 98.5967C65.6301 99.5654 63.6624 101.419 70.6022 100.85C70.9137 101.205 104.998 106.166 104.711 113.006L104.876 122.837C104.876 122.837 102.217 139.079 95.1419 141.511C88.0665 143.944 86.6151 157.273 82.9261 161.963C79.2372 166.652 81.6011 156.369 62.4761 172.01C62.4761 172.01 49.8085 207.765 49.8142 183.646C48.1886 186.566 39.3706 262.226 33.0378 275.756C26.7051 289.286 23.3647 259.854 19.6371 262.23C15.9096 264.606 3.71214 306.172 -0.102494 303.343C-3.91713 300.515 -2.83577 290.084 -11.447 275.766C-20.0583 261.448 -28.4918 213.434 -34.9485 172.032C-41.9608 188.248 -41.8112 187.188 -50.1491 164.188Z" fill="url(#paint1_linear_20_1606)"/>
<path d="M-50.1491 164.188C-58.4869 141.188 -58.9124 115.742 -58.9124 115.742L-18.3203 115.063C4.48542 97.9774 42.8116 93.613 62.4928 100.852C64.8354 99.7483 66.2834 99.0301 67.121 98.5967C68.7824 97.737 68.0429 97.9977 67.121 98.5967C65.6301 99.5654 63.6624 101.419 70.6022 100.85C70.9137 101.205 104.998 106.166 104.711 113.006L104.876 122.837C104.876 122.837 102.217 139.079 95.1419 141.511C88.0665 143.944 86.6151 157.273 82.9261 161.963C79.2372 166.652 81.6011 156.369 62.4761 172.01C62.4761 172.01 49.8085 207.765 49.8142 183.646C48.1886 186.566 39.3706 262.226 33.0378 275.756C26.7051 289.286 23.3647 259.854 19.6371 262.23C15.9096 264.606 3.71214 306.172 -0.102494 303.343C-3.91713 300.515 -2.83577 290.084 -11.447 275.766C-20.0583 261.448 -28.4918 213.434 -34.9485 172.032C-41.9608 188.248 -41.8112 187.188 -50.1491 164.188Z" fill="url(#paint2_linear_20_1606)"/>
</g>
<g filter="url(#filter1_d_20_1606)">
<path d="M323.275 143.714C331.32 140.874 310.332 132.482 310.332 132.482C305.848 136.633 296.825 127.683 274.743 101.344C264.98 105.502 261.459 108.395 256.64 113.974C260.965 137.41 266.375 194.035 272.866 198.653C279.357 203.271 297.215 185.264 309.899 154.938C309.899 154.938 315.231 146.555 323.275 143.714Z" fill="url(#paint3_linear_20_1606)"/>
<path d="M323.275 143.714C331.32 140.874 310.332 132.482 310.332 132.482C305.848 136.633 296.825 127.683 274.743 101.344C264.98 105.502 261.459 108.395 256.64 113.974C260.965 137.41 266.375 194.035 272.866 198.653C279.357 203.271 297.215 185.264 309.899 154.938C309.899 154.938 315.231 146.555 323.275 143.714Z" fill="url(#paint4_linear_20_1606)"/>
</g>
<g filter="url(#filter2_d_20_1606)">
<path d="M1027.11 55C1018.61 52 1038.53 44.5 1038.53 44.5C1043.21 48.7437 1038.58 40.9545 1062.61 15C1072.91 19.3528 1091.1 38.8187 1096.11 44.5C1091.03 67.8896 1069.61 107 1062.61 111.5C1055.61 116 1051.4 97.6189 1038.53 67C1038.53 67 1035.61 58 1027.11 55Z" fill="url(#paint5_linear_20_1606)"/>
<path d="M1027.11 55C1018.61 52 1038.53 44.5 1038.53 44.5C1043.21 48.7437 1038.58 40.9545 1062.61 15C1072.91 19.3528 1091.1 38.8187 1096.11 44.5C1091.03 67.8896 1069.61 107 1062.61 111.5C1055.61 116 1051.4 97.6189 1038.53 67C1038.53 67 1035.61 58 1027.11 55Z" fill="url(#paint6_linear_20_1606)"/>
</g>
<path d="M660.421 32.4601C665.866 27.9334 647.961 33.4967 647.961 33.4967C645.526 37.0349 636.578 37.3151 613.641 36.2467C607.199 42.0212 605.202 44.6548 602.847 48.8996C611.617 56.3339 628.981 76.4285 634.992 75.5075C641.003 74.5866 650.352 59.9117 652.888 42.5569C652.888 42.5569 654.975 36.9867 660.421 32.4601Z" fill="url(#paint7_linear_20_1606)"/>
<path d="M660.421 32.4601C665.866 27.9334 647.961 33.4967 647.961 33.4967C645.526 37.0349 636.578 37.3151 613.641 36.2467C607.199 42.0212 605.202 44.6548 602.847 48.8996C611.617 56.3339 628.981 76.4285 634.992 75.5075C641.003 74.5866 650.352 59.9117 652.888 42.5569C652.888 42.5569 654.975 36.9867 660.421 32.4601Z" fill="url(#paint8_linear_20_1606)"/>
<g filter="url(#filter3_d_20_1606)">
<path d="M1176.2 109.805C1164.52 98.8748 1165.37 87.9154 1165.37 87.9154L1228.95 92.8533C1265.27 88.5162 1282.26 91.6699 1312.03 97.1952L1313 97.3766C1336.11 96.3178 1331.55 129.857 1352.59 131.111C1362.07 131.677 1376.21 138.514 1375.36 141.408L1410.47 147.795L1410.14 152.03C1410.14 152.03 1405.01 158.647 1393.79 158.778C1382.57 158.909 1379.5 164.434 1373.45 165.969C1367.4 167.503 1355.37 169.442 1332.21 162.766C1332.21 162.766 1328.37 178.254 1322.29 180.038C1316.22 181.821 1311.11 179.67 1308.39 180.712C1305.67 181.754 1294.16 194.141 1290.09 195.579C1286.02 197.017 1270.91 196.344 1264.93 196.882C1258.96 197.42 1245.94 203.676 1240.14 201.973C1234.34 200.269 1236.65 195.939 1224.03 188.694C1211.4 181.449 1207.16 133.699 1199.52 115.125C1187.58 121.171 1187.88 120.736 1176.2 109.805Z" fill="url(#paint9_linear_20_1606)"/>
<path d="M1176.2 109.805C1164.52 98.8748 1165.37 87.9154 1165.37 87.9154L1228.95 92.8533C1265.27 88.5162 1282.26 91.6699 1312.03 97.1952L1313 97.3766C1336.11 96.3178 1331.55 129.857 1352.59 131.111C1362.07 131.677 1376.21 138.514 1375.36 141.408L1410.47 147.795L1410.14 152.03C1410.14 152.03 1405.01 158.647 1393.79 158.778C1382.57 158.909 1379.5 164.434 1373.45 165.969C1367.4 167.503 1355.37 169.442 1332.21 162.766C1332.21 162.766 1328.37 178.254 1322.29 180.038C1316.22 181.821 1311.11 179.67 1308.39 180.712C1305.67 181.754 1294.16 194.141 1290.09 195.579C1286.02 197.017 1270.91 196.344 1264.93 196.882C1258.96 197.42 1245.94 203.676 1240.14 201.973C1234.34 200.269 1236.65 195.939 1224.03 188.694C1211.4 181.449 1207.16 133.699 1199.52 115.125C1187.58 121.171 1187.88 120.736 1176.2 109.805Z" fill="url(#paint10_linear_20_1606)"/>
</g>
</g>
<defs>
<filter id="filter0_d_20_1606" x="-62.9121" y="97.4978" width="171.788" height="213.984" filterUnits="userSpaceOnUse" color-interpolation-filters="sRGB">
<feFlood flood-opacity="0" result="BackgroundImageFix"/>
<feColorMatrix in="SourceAlpha" type="matrix" values="0 0 0 0 0 0 0 0 0 0 0 0 0 0 0 0 0 0 127 0" result="hardAlpha"/>
<feOffset dy="4"/>
<feGaussianBlur stdDeviation="2"/>
<feComposite in2="hardAlpha" operator="out"/>
<feColorMatrix type="matrix" values="0 0 0 0 0 0 0 0 0 0 0 0 0 0 0 0 0 0 0.25 0"/>
<feBlend mode="normal" in2="BackgroundImageFix" result="effect1_dropShadow_20_1606"/>
<feBlend mode="normal" in="SourceGraphic" in2="effect1_dropShadow_20_1606" result="shape"/>
</filter>
<filter id="filter1_d_20_1606" x="252.64" y="101.344" width="76.4727" height="106.027" filterUnits="userSpaceOnUse" color-interpolation-filters="sRGB">
<feFlood flood-opacity="0" result="BackgroundImageFix"/>
<feColorMatrix in="SourceAlpha" type="matrix" values="0 0 0 0 0 0 0 0 0 0 0 0 0 0 0 0 0 0 127 0" result="hardAlpha"/>
<feOffset dy="4"/>
<feGaussianBlur stdDeviation="2"/>
<feComposite in2="hardAlpha" operator="out"/>
<feColorMatrix type="matrix" values="0 0 0 0 0 0 0 0 0 0 0 0 0 0 0 0 0 0 0.25 0"/>
<feBlend mode="normal" in2="BackgroundImageFix" result="effect1_dropShadow_20_1606"/>
<feBlend mode="normal" in="SourceGraphic" in2="effect1_dropShadow_20_1606" result="shape"/>
</filter>
<filter id="filter2_d_20_1606" x="1021" y="15" width="79.1104" height="105.174" filterUnits="userSpaceOnUse" color-interpolation-filters="sRGB">
<feFlood flood-opacity="0" result="BackgroundImageFix"/>
<feColorMatrix in="SourceAlpha" type="matrix" values="0 0 0 0 0 0 0 0 0 0 0 0 0 0 0 0 0 0 127 0" result="hardAlpha"/>
<feOffset dy="4"/>
<feGaussianBlur stdDeviation="2"/>
<feComposite in2="hardAlpha" operator="out"/>
<feColorMatrix type="matrix" values="0 0 0 0 0 0 0 0 0 0 0 0 0 0 0 0 0 0 0.25 0"/>
<feBlend mode="normal" in2="BackgroundImageFix" result="effect1_dropShadow_20_1606"/>
<feBlend mode="normal" in="SourceGraphic" in2="effect1_dropShadow_20_1606" result="shape"/>
</filter>
<filter id="filter3_d_20_1606" x="1161.35" y="87.9155" width="253.116" height="122.35" filterUnits="userSpaceOnUse" color-interpolation-filters="sRGB">
<feFlood flood-opacity="0" result="BackgroundImageFix"/>
<feColorMatrix in="SourceAlpha" type="matrix" values="0 0 0 0 0 0 0 0 0 0 0 0 0 0 0 0 0 0 127 0" result="hardAlpha"/>
<feOffset dy="4"/>
<feGaussianBlur stdDeviation="2"/>
<feComposite in2="hardAlpha" operator="out"/>
<feColorMatrix type="matrix" values="0 0 0 0 0 0 0 0 0 0 0 0 0 0 0 0 0 0 0.25 0"/>
<feBlend mode="normal" in2="BackgroundImageFix" result="effect1_dropShadow_20_1606"/>
<feBlend mode="normal" in="SourceGraphic" in2="effect1_dropShadow_20_1606" result="shape"/>
</filter>
<linearGradient id="paint0_linear_20_1606" x1="1129" y1="0" x2="1129" y2="224.5" gradientUnits="userSpaceOnUse">
<stop stop-color="#92908A"/>
<stop offset="1" stop-color="#8C8C86"/>
</linearGradient>
<linearGradient id="paint1_linear_20_1606" x1="-105.917" y1="182.718" x2="-19.5374" y2="101.415" gradientUnits="userSpaceOnUse">
<stop stop-color="#706A6A"/>
<stop offset="0.797524" stop-color="#716769"/>
</linearGradient>
<linearGradient id="paint2_linear_20_1606" x1="26.0564" y1="303.051" x2="22.6237" y2="97.7755" gradientUnits="userSpaceOnUse">
<stop stop-color="#918F8A"/>
<stop offset="1" stop-color="#908F89" stop-opacity="0"/>
</linearGradient>
<linearGradient id="paint3_linear_20_1606" x1="235.478" y1="159.083" x2="275.913" y2="192.895" gradientUnits="userSpaceOnUse">
<stop stop-color="#706A6A"/>
<stop offset="0.797524" stop-color="#716769"/>
</linearGradient>
<linearGradient id="paint4_linear_20_1606" x1="291.383" y1="101.665" x2="289.494" y2="199.647" gradientUnits="userSpaceOnUse">
<stop stop-color="#918F8A"/>
<stop offset="1" stop-color="#908F89" stop-opacity="0"/>
</linearGradient>
<linearGradient id="paint5_linear_20_1606" x1="1117.02" y1="72.9923" x2="1075.98" y2="107.287" gradientUnits="userSpaceOnUse">
<stop stop-color="#706A6A"/>
<stop offset="0.797524" stop-color="#716769"/>
</linearGradient>
<linearGradient id="paint6_linear_20_1606" x1="1060.56" y1="15" x2="1060.56" y2="112.174" gradientUnits="userSpaceOnUse">
<stop stop-color="#918F8A"/>
<stop offset="1" stop-color="#908F89" stop-opacity="0"/>
</linearGradient>
<linearGradient id="paint7_linear_20_1606" x1="597.332" y1="75.6856" x2="625.796" y2="90.9243" gradientUnits="userSpaceOnUse">
<stop stop-color="#706A6A"/>
<stop offset="0.797524" stop-color="#716769"/>
</linearGradient>
<linearGradient id="paint8_linear_20_1606" x1="626.355" y1="29.3324" x2="647.854" y2="68.8648" gradientUnits="userSpaceOnUse">
<stop stop-color="#918F8A"/>
<stop offset="1" stop-color="#908F89" stop-opacity="0"/>
</linearGradient>
<linearGradient id="paint9_linear_20_1606" x1="1089.23" y1="122.757" x2="1128.9" y2="41.8193" gradientUnits="userSpaceOnUse">
<stop stop-color="#706A6A"/>
<stop offset="0.797524" stop-color="#716769"/>
</linearGradient>
<linearGradient id="paint10_linear_20_1606" x1="1281.13" y1="205.301" x2="1289.88" y2="92.6401" gradientUnits="userSpaceOnUse">
<stop stop-color="#918F8A"/>
<stop offset="1" stop-color="#908F89" stop-opacity="0"/>
</linearGradient>
<clipPath id="clip0_20_1606">
<rect width="1440" height="857" fill="white"/>
</clipPath>
</defs>
</svg>
