<svg width="16" height="19" viewBox="0 0 16 19" fill="none" xmlns="http://www.w3.org/2000/svg">
<path d="M15.5426 8.99683L1.12724 0.225471C1.01014 0.154635 0.875792 0.11944 0.739902 0.124001C0.604012 0.128562 0.472197 0.172691 0.359869 0.251226C0.247542 0.329762 0.159344 0.43946 0.10559 0.567493C0.0518352 0.695525 0.0347452 0.836601 0.0563181 0.974224L2.75849 17.9351C2.78194 18.084 2.84959 18.2219 2.95222 18.3301C3.05486 18.4382 3.1875 18.5113 3.33209 18.5394C3.47298 18.5668 3.61867 18.5503 3.75029 18.4919C3.8819 18.4335 3.99337 18.3359 4.07027 18.2118L8.04931 11.8105L15.3149 10.3499C15.458 10.3238 15.59 10.2538 15.6933 10.149C15.7966 10.0443 15.8664 9.90979 15.8934 9.76341C15.9204 9.61703 15.9033 9.4657 15.8444 9.32951C15.7855 9.19332 15.6876 9.07872 15.5637 9.00093L15.5426 8.99683ZM7.47468 10.4215L7.17194 10.4824L7.00615 10.7491L3.83762 15.7982L1.71583 2.2896L13.2082 9.24664L7.47468 10.4215Z" fill="#45171A"/>
</svg>
