<svg width="265" height="223" viewBox="0 0 265 223" fill="none" xmlns="http://www.w3.org/2000/svg">
<g filter="url(#filter0_d_1667_8734)">
<path d="M134.347 52.2205C128.219 91.1202 73.4117 134.704 44.8626 140.215L217.447 141.338C176.733 128.527 137.078 84.9621 134.347 52.2205Z" fill="url(#paint0_linear_1667_8734)"/>
<mask id="mask0_1667_8734" style="mask-type:alpha" maskUnits="userSpaceOnUse" x="44" y="51" width="174" height="90">
<path d="M134.346 51.8572C128.219 90.7569 73.4114 134.34 44.8623 139.851L217.447 140.974C176.732 128.164 137.078 84.5988 134.346 51.8572Z" fill="#F0DADA"/>
</mask>
<g mask="url(#mask0_1667_8734)">
<path d="M158.409 137.006C149.791 131.962 138.485 81.6981 134.158 58.1887C130.568 83.5184 112.839 118.823 102.752 139.578C124.895 140.823 167.028 142.05 158.409 137.006Z" fill="url(#paint1_linear_1667_8734)"/>
<path d="M178.841 134.898C170.769 134.904 134.722 87.1473 137.182 64.3378L223.445 144.777C217.727 152.083 187.372 134.891 178.841 134.898Z" fill="url(#paint2_linear_1667_8734)"/>
<path d="M80.5123 137.229C87.9947 133.174 124.618 98.3298 132.357 63.2568L20.1755 140.454C25.89 147.739 73.0299 141.284 80.5123 137.229Z" fill="url(#paint3_linear_1667_8734)"/>
<path d="M134.692 43.7172L143.036 70.3033C143.036 70.3033 139.566 76.9847 134.182 76.9018C127.368 76.797 124.584 70.3186 124.584 70.3186L134.692 43.7172Z" fill="url(#paint4_linear_1667_8734)"/>
</g>
<path d="M134.33 43.8019L134.336 51.1383C134.337 51.5809 134.583 51.9835 134.955 52.2227C137.745 54.0145 142.595 58.6592 148.632 56.3692C153.422 54.5524 156.452 54.7452 158.451 55.4211C159.339 55.7212 160.39 55.136 160.389 54.1989L160.383 46.5274C160.383 46.4491 160.376 46.3718 160.357 46.2959C159.899 44.4746 156.982 41.5337 148.622 43.5249C143.806 44.6719 140.259 43.7607 137.864 42.3049C136.787 41.6497 134.329 42.5409 134.33 43.8019Z" fill="url(#paint5_linear_1667_8734)"/>
<path d="M44.8636 140.214C62.1673 136.641 103.816 133.138 133.918 133.113C164.021 133.088 202.309 137.49 217.448 141.517C220.468 169.323 244.39 224.212 279.636 224.857C282.627 224.858 283.019 224.86 280.292 224.863C280.073 224.863 279.854 224.861 279.636 224.857C256.441 224.846 76.9517 224.871 -15.6691 225.109C34.0621 203.72 40.6967 176.398 44.8636 140.214Z" fill="url(#paint6_linear_1667_8734)"/>
<mask id="mask1_1667_8734" style="mask-type:alpha" maskUnits="userSpaceOnUse" x="-16" y="133" width="299" height="93">
<path d="M44.8634 140.216C62.167 136.644 103.808 133.618 133.911 133.593C164.013 133.568 202.309 137.492 217.448 141.52C220.468 169.325 244.39 224.214 279.636 224.859C282.626 224.86 283.019 224.862 280.291 224.865C280.072 224.865 279.854 224.863 279.636 224.859C256.441 224.848 76.9514 224.873 -15.6694 225.111C34.0618 203.722 40.6964 176.4 44.8634 140.216Z" fill="#CDCACA"/>
</mask>
<g mask="url(#mask1_1667_8734)">
<path d="M219.508 236.778C170.843 235.369 151.161 167.504 147.402 133.748C137.457 112.498 117.216 82.7535 115.815 133.774C114.413 184.795 67.5155 223.799 53.8084 236.916C122.94 237.462 268.172 238.187 219.508 236.778Z" fill="url(#paint7_linear_1667_8734)"/>
<path d="M1.34557 236.493C36.5899 235.74 94.9997 170.565 87.1925 136.586C85.2603 113.498 80.7946 81.8063 68.0337 136.602C52.1536 204.792 0.121496 224.554 -42.9777 234.721C-44.1585 235.627 -33.8988 237.246 1.34557 236.493Z" fill="url(#paint8_linear_1667_8734)"/>
<path d="M261.125 236.278C225.88 235.584 171.342 171.226 177.283 136.512C179.177 113.421 185.948 81.3664 197.183 136.496C211.368 206.107 263.837 234.467 305.445 234.432C306.628 235.336 296.371 236.972 261.125 236.278Z" fill="url(#paint9_linear_1667_8734)"/>
</g>
<path d="M46.2283 161.909L40.1655 153.542L35.224 160.483L46.2283 161.909Z" fill="#52BE17"/>
<path d="M34.0229 177.605L29.0647 168.127L22.7988 175.083L34.0229 177.605Z" fill="#C315A2"/>
<path d="M17.0743 194.702L13.5271 184.464L7.02444 190.405L17.0743 194.702Z" fill="#00B6FA"/>
<path d="M0.342977 209.068L-2.11612 198.469L-8.67205 203.349L0.342977 209.068Z" fill="#52BE17"/>
<path d="M46.2113 141.578C30.9296 173.403 -17.7765 222.477 -78.8081 234.009" stroke="#561B20" stroke-width="3.5671"/>
<path d="M217.25 163.2L223.299 154.823L228.252 161.756L217.25 163.2Z" fill="#C315A2"/>
<path d="M229.481 178.875L234.424 169.39L240.701 176.335L229.481 178.875Z" fill="#52BE17"/>
<path d="M246.458 195.944L249.988 185.7L256.501 191.63L246.458 195.944Z" fill="#00B6FA"/>
<path d="M263.213 210.284L265.654 199.68L272.218 204.549L263.213 210.284Z" fill="#C315A2"/>
<path d="M217.233 142.87C232.568 174.669 281.355 223.662 342.406 235.093" stroke="#561B20" stroke-width="3.5671"/>
<path d="M55.668 139.425C54.2995 142.869 45.9336 151.535 42.9825 151.5C40.0314 151.466 41.2971 146.276 42.3305 144.158L44.9764 138.736C50.3738 134.661 71.0851 131.048 119.31 131.205C167.535 131.363 212.217 131.729 222.012 144C223.83 146.278 220.847 158.644 219.8 153.554C218.962 149.483 217.133 144.275 212.436 142.572C212.207 146.393 210.309 154.094 204.55 154.327C198.792 154.561 186.424 142.581 180.96 136.563C181.094 140.889 179.738 149.637 173.24 150.012C166.742 150.388 156.085 140.467 151.354 134.832C149.727 142.044 143.246 147.941 133.605 147.669C125.164 147.431 120.362 139.052 119.003 134.335C115.446 138.744 105.932 147.835 96.3261 148.926C84.3193 150.29 87.8414 133.03 86.8906 135.464C85.9398 137.898 71.7481 152.588 61.9722 152.474C52.1964 152.36 57.3785 135.119 55.668 139.425Z" fill="url(#paint10_linear_1667_8734)"/>
<path d="M213.719 225.131L38.9644 225.426C73.189 223.027 99.1813 195.888 99.1637 174.722C105.495 174.717 120.687 169.82 132.975 153.568C144.929 169.981 153.251 170.878 165.194 174.668C165.228 215.009 213.719 225.131 213.719 225.131Z" fill="#8F1522"/>
<path d="M193.092 225.145C183.801 224.858 137.015 178.946 132.975 153.709C127.388 179.583 87.0402 221.953 62.4812 225.406C114.263 225.213 193.626 225.162 193.092 225.145Z" fill="url(#paint11_linear_1667_8734)"/>
</g>
<path opacity="0.1" fill-rule="evenodd" clip-rule="evenodd" d="M134.337 51.1369L134.331 43.8005C134.33 42.5395 136.788 41.6483 137.865 42.3035C140.259 43.7593 143.806 44.6704 148.622 43.5235C156.983 41.5323 159.899 44.4732 160.358 46.2945C160.377 46.3704 160.383 46.4476 160.383 46.5259L160.39 54.1975C160.391 55.1346 159.34 55.7198 158.452 55.4197C156.452 54.7437 153.422 54.551 148.633 56.3678C143.503 58.3136 139.23 55.2525 136.35 53.1892C135.841 52.8243 135.375 52.4906 134.956 52.2213C134.583 51.9821 134.337 51.5795 134.337 51.1369ZM63.8156 133.064C53.4027 134.334 47.5459 136.08 45.0138 137.956L42.3193 143.355C41.8488 144.297 41.3263 145.854 41.1562 147.292C32.7721 161.742 18.4109 178.806 -0.267714 194.021C-21.8137 211.571 -48.9824 226.559 -79.1383 232.257L-78.4761 235.762C-67.0109 233.595 -55.9837 230.122 -45.5294 225.698L-38.0185 230.881L-39.4394 222.985C-34.3634 220.61 -29.4351 218.018 -24.6712 215.253L-18.0643 220.086L-18.8808 211.758C-14.9649 209.303 -11.1716 206.736 -7.51101 204.085L0.343641 209.068L-1.80584 199.803C-0.523712 198.807 0.740086 197.801 1.98506 196.786C4.27656 194.92 6.50564 193.025 8.66919 191.109L17.0749 194.703L14.1031 186.125C17.8094 182.605 21.2922 179.039 24.5332 175.473L34.0234 177.605L29.7664 169.469C32.2386 166.507 34.5351 163.563 36.6452 160.666L41.6532 161.315C36.1852 187.319 23.8989 208.093 -15.6687 225.11C1.48768 225.066 21.6246 225.029 43.1966 224.999C41.8009 225.182 40.3897 225.325 38.9641 225.425L62.6295 225.385C62.5804 225.392 62.5313 225.399 62.4823 225.406C66.4096 225.392 70.4955 225.378 74.6931 225.365L213.718 225.131C213.718 225.131 213.32 225.047 212.596 224.866C246.43 224.855 271.847 224.855 279.636 224.858C279.764 224.861 279.891 224.862 280.019 224.863C280.11 224.864 280.201 224.864 280.292 224.864C283.019 224.862 282.627 224.86 279.636 224.858C252.016 224.353 231.349 190.536 222.247 162.546L226.832 161.944C228.947 164.837 231.248 167.776 233.725 170.733L229.481 178.878L238.969 176.73C242.215 180.289 245.703 183.849 249.414 187.363L246.456 195.947L254.858 192.338C257.024 194.251 259.257 196.142 261.551 198.005C262.797 199.016 264.063 200.02 265.346 201.014L263.212 210.284L271.059 205.287C274.724 207.932 278.522 210.493 282.442 212.941L281.639 221.271L288.238 216.427C293.007 219.184 297.939 221.768 303.019 224.134L301.611 232.034L309.115 226.837C319.576 231.244 330.609 234.699 342.077 236.846L342.733 233.34C312.568 227.692 285.374 212.749 263.799 195.235C245.228 180.159 230.909 163.252 222.477 148.882C222.634 147.112 222.538 145.501 221.995 144.807C219.182 141.218 213.417 138.606 205.471 136.693C169.273 120.043 136.81 81.735 134.347 52.2214C129.404 83.6038 92.7773 118.034 63.8156 133.064ZM220.162 155.494C220.536 155.794 220.994 155.123 221.408 153.984C221.791 154.59 222.183 155.2 222.584 155.813L220.897 158.149C220.639 157.255 220.394 156.369 220.162 155.494ZM43.3061 150.665C43.3393 150.659 43.373 150.651 43.4071 150.644C43.4467 150.635 43.487 150.624 43.5278 150.613C43.2215 152.707 42.8914 154.769 42.5285 156.801L40.8825 154.529C41.7322 153.226 42.5404 151.937 43.3061 150.665Z" fill="url(#paint12_linear_1667_8734)"/>
<path d="M65.9683 17.9517C49.5286 20.9995 38.8431 22.8454 25.0608 32.7111C30.3007 33.4604 34.212 34.5043 37.1934 36.235C34.1019 39.6323 33.0869 42.4487 27.8855 51.955C42.389 44.7658 53.6933 41.7219 68.6491 42.8052L65.9683 17.9517Z" fill="#C28D5D"/>
<path d="M68.6692 30.2228L68.7095 42.8811L51.2644 39.448L51.2497 34.8262L68.6692 30.2228Z" fill="#AF845C"/>
<path d="M202.868 17.3491C219.327 20.3189 230.024 22.113 243.869 31.9785C238.634 32.768 234.729 33.8462 231.759 35.6114C234.872 39.0193 235.905 41.8543 241.167 51.4121C226.618 44.2515 215.295 41.2527 200.346 42.4413L202.868 17.3491Z" fill="#C28D5D"/>
<path d="M200.381 29.7895L200.421 42.5609L217.729 39.1263L217.713 33.9576L200.381 29.7895Z" fill="#AF845C"/>
<path d="M227.442 12.1004C153.821 -4.20106 113.545 -3.14256 43.0754 12.6872L51.4036 40.1425C122.967 24.961 145.226 24.4098 217.673 39.6133L227.442 12.1004Z" fill="#D19763"/>
<path d="M69.6763 15.7458L71.6377 15.3545L73.8194 26.291L71.7796 26.6979L65.6891 20.049L67.1979 27.612L65.2366 28.0032L63.0548 17.0667L65.0789 16.6629L71.1788 23.2774L69.6763 15.7458Z" fill="#45171A"/>
<path d="M79.4342 25.5366C77.0158 25.916 75.2373 24.284 74.8926 22.0869C74.5453 19.874 75.7434 17.8073 78.1619 17.4278C80.5645 17.0508 82.3538 18.6487 82.701 20.8616C83.0458 23.0587 81.8368 25.1596 79.4342 25.5366ZM79.1738 23.8769C80.6122 23.6512 81.0027 22.4238 80.8042 21.1593C80.6033 19.8789 79.8607 18.8618 78.4223 19.0875C76.9839 19.3132 76.5885 20.5089 76.7894 21.7893C76.9878 23.0538 77.7354 24.1026 79.1738 23.8769Z" fill="#45171A"/>
<path d="M86.9771 24.2453L83.5949 16.7156L85.6274 16.4641L87.5683 21.2056L88.4379 16.1163L90.0735 15.914L92.1554 20.6219L92.8999 15.5642L94.9324 15.3127L93.4875 23.4397L91.7725 23.6519L89.5977 18.7136L88.692 24.0331L86.9771 24.2453Z" fill="#45171A"/>
<path d="M103.005 22.4685L102.056 11.357L104.049 11.1867L104.998 22.2982L103.005 22.4685Z" fill="#45171A"/>
<path d="M112.397 13.6792C114.169 13.5643 115.245 14.5848 115.366 16.4529L115.695 21.5302L113.779 21.6544L113.481 17.0561C113.446 16.5132 113.368 15.2998 111.915 15.3939C110.126 15.5099 110.243 17.3141 110.334 18.7191L110.538 21.8645L108.622 21.9888L108.112 14.1173L110.028 13.9931L110.087 14.9032C110.597 14.1165 111.439 13.7413 112.397 13.6792Z" fill="#45171A"/>
<path d="M126.302 21.0841L126.192 16.7335L121.781 10.043L124.133 9.98343L127.103 14.7898L129.859 9.83843L132.226 9.77848L128.192 16.6828L128.302 21.0334L126.302 21.0841Z" fill="#45171A"/>
<path d="M137.356 21.085C134.908 21.0794 133.408 19.188 133.413 16.964C133.419 14.724 134.927 12.8714 137.375 12.8771C139.807 12.8826 141.323 14.7421 141.317 16.9821C141.312 19.2061 139.788 21.0906 137.356 21.085ZM137.36 19.405C138.816 19.4084 139.394 18.2577 139.397 16.9777C139.4 15.6817 138.827 14.5604 137.371 14.5571C135.915 14.5537 135.336 15.6724 135.333 16.9684C135.33 18.2484 135.904 19.4017 137.36 19.405Z" fill="#45171A"/>
<path d="M149.133 13.225L151.052 13.2817L150.819 21.1663L148.9 21.1096L148.927 20.198C148.345 20.9331 147.472 21.2275 146.545 21.2C144.561 21.1415 143.772 19.6775 143.822 17.9982L143.967 13.0724L145.887 13.1291L145.755 17.5752C145.739 18.1189 145.699 19.4943 147.154 19.5373C148.945 19.5902 149.003 17.6231 149.045 16.2157L149.133 13.225Z" fill="#45171A"/>
<path d="M158.237 13.4729C158.764 13.5013 159.221 13.654 159.715 14.0011L158.697 15.6448C158.435 15.4544 158.136 15.3422 157.753 15.3216C156.587 15.2589 155.973 15.9469 155.893 17.4328L155.68 21.395L153.763 21.2919L154.186 13.4153L156.119 13.5193L156.047 14.8614C156.435 13.9048 157.342 13.4248 158.237 13.4729Z" fill="#45171A"/>
<path d="M167.784 22.2421L168.661 12.9715L165.189 12.643L165.362 10.8112L174.314 11.6581L174.141 13.4899L170.668 13.1614L169.791 22.432L167.784 22.2421Z" fill="#45171A"/>
<path d="M178.418 23.5436C175.99 23.233 174.737 21.1694 175.02 18.9633C175.304 16.7415 177.031 15.0913 179.459 15.402C181.872 15.7106 183.144 17.7445 182.86 19.9664C182.577 22.1724 180.83 23.8523 178.418 23.5436ZM178.631 21.8772C180.075 22.062 180.793 20.9924 180.955 19.7228C181.12 18.4372 180.69 17.2532 179.246 17.0684C177.802 16.8836 177.088 17.9215 176.924 19.207C176.762 20.4767 177.187 21.6924 178.631 21.8772Z" fill="#45171A"/>
<path d="M186.349 24.462L185.255 16.2804L187.275 16.6191L187.783 21.7173L190.068 17.0874L191.693 17.36L192.346 22.4662L194.502 17.8309L196.522 18.1696L192.819 25.5468L191.115 25.2611L190.439 19.9076L188.053 24.7478L186.349 24.462Z" fill="#45171A"/>
<path d="M202.633 19.2839C204.37 19.6518 205.131 20.925 204.743 22.7564L203.689 27.7341L201.811 27.3364L202.765 22.8283C202.878 22.2961 203.13 21.1065 201.705 20.8049C199.952 20.4337 199.578 22.2024 199.286 23.5799L198.633 26.6635L196.755 26.2658L198.389 18.5489L200.267 18.9466L200.078 19.8389C200.782 19.2192 201.693 19.0851 202.633 19.2839Z" fill="#45171A"/>
<defs>
<filter id="filter0_d_1667_8734" x="-111.2" y="10.0232" width="485.995" height="258.883" filterUnits="userSpaceOnUse" color-interpolation-filters="sRGB">
<feFlood flood-opacity="0" result="BackgroundImageFix"/>
<feColorMatrix in="SourceAlpha" type="matrix" values="0 0 0 0 0 0 0 0 0 0 0 0 0 0 0 0 0 0 127 0" result="hardAlpha"/>
<feOffset/>
<feGaussianBlur stdDeviation="16.0304"/>
<feComposite in2="hardAlpha" operator="out"/>
<feColorMatrix type="matrix" values="0 0 0 0 1 0 0 0 0 0.96425 0 0 0 0 0.8375 0 0 0 0.5 0"/>
<feBlend mode="normal" in2="BackgroundImageFix" result="effect1_dropShadow_1667_8734"/>
<feBlend mode="normal" in="SourceGraphic" in2="effect1_dropShadow_1667_8734" result="shape"/>
</filter>
<linearGradient id="paint0_linear_1667_8734" x1="131.081" y1="52.2232" x2="131.155" y2="141.409" gradientUnits="userSpaceOnUse">
<stop stop-color="#FEF6E0"/>
<stop offset="1" stop-color="#FEC5AA"/>
</linearGradient>
<linearGradient id="paint1_linear_1667_8734" x1="132" y1="40.0271" x2="129.921" y2="175.153" gradientUnits="userSpaceOnUse">
<stop stop-color="#F73F45"/>
<stop offset="1" stop-color="#9E0E1D"/>
</linearGradient>
<linearGradient id="paint2_linear_1667_8734" x1="131.905" y1="61.7954" x2="178.79" y2="134.875" gradientUnits="userSpaceOnUse">
<stop stop-color="#E33137"/>
<stop offset="1" stop-color="#9F0E1E"/>
</linearGradient>
<linearGradient id="paint3_linear_1667_8734" x1="136.791" y1="55.173" x2="69.0127" y2="138.095" gradientUnits="userSpaceOnUse">
<stop stop-color="#E33137"/>
<stop offset="1" stop-color="#9F0E1E"/>
</linearGradient>
<linearGradient id="paint4_linear_1667_8734" x1="133.788" y1="43.7179" x2="133.211" y2="85.7379" gradientUnits="userSpaceOnUse">
<stop offset="0.144561" stop-color="#F9EDD8"/>
<stop offset="1" stop-color="#E5C3B4"/>
</linearGradient>
<linearGradient id="paint5_linear_1667_8734" x1="127.552" y1="49.2895" x2="173.23" y2="50.4191" gradientUnits="userSpaceOnUse">
<stop stop-color="#FF5063"/>
<stop offset="1" stop-color="#B12231"/>
</linearGradient>
<linearGradient id="paint6_linear_1667_8734" x1="134.11" y1="120.676" x2="140.596" y2="227.707" gradientUnits="userSpaceOnUse">
<stop stop-color="#DDB4A7"/>
<stop offset="1" stop-color="#FEF6E0"/>
</linearGradient>
<linearGradient id="paint7_linear_1667_8734" x1="135.302" y1="214.231" x2="137.999" y2="116.672" gradientUnits="userSpaceOnUse">
<stop stop-color="#EB0820"/>
<stop offset="1" stop-color="#8D292F"/>
</linearGradient>
<linearGradient id="paint8_linear_1667_8734" x1="13.9255" y1="235.806" x2="103.659" y2="109.683" gradientUnits="userSpaceOnUse">
<stop stop-color="#EB0820"/>
<stop offset="1" stop-color="#8D2830"/>
</linearGradient>
<linearGradient id="paint9_linear_1667_8734" x1="229.156" y1="224.526" x2="178.498" y2="112.032" gradientUnits="userSpaceOnUse">
<stop stop-color="#EB0820"/>
<stop offset="1" stop-color="#8D2830"/>
</linearGradient>
<linearGradient id="paint10_linear_1667_8734" x1="135.282" y1="127.065" x2="134.441" y2="156.888" gradientUnits="userSpaceOnUse">
<stop stop-color="#F86F71"/>
<stop offset="1" stop-color="#BB0D20"/>
</linearGradient>
<linearGradient id="paint11_linear_1667_8734" x1="133.071" y1="157.022" x2="133.817" y2="263.964" gradientUnits="userSpaceOnUse">
<stop stop-color="#440F15"/>
<stop offset="0.627817" stop-color="#642227"/>
</linearGradient>
<linearGradient id="paint12_linear_1667_8734" x1="134.424" y1="52.0105" x2="133.761" y2="264.899" gradientUnits="userSpaceOnUse">
<stop stop-color="#94C5FF"/>
<stop offset="0.785" stop-color="#C6DEFF"/>
</linearGradient>
</defs>
</svg>
