<svg width="428" height="1129" viewBox="0 0 428 1129" fill="none" xmlns="http://www.w3.org/2000/svg">
<g clip-path="url(#clip0_38_4694)">
<g filter="url(#filter0_f_38_4694)">
<path d="M69.8952 725.033C73.041 706.982 69.8952 694.006 87.1172 684.31C104.339 674.613 118.87 684.31 118.87 684.31C118.87 684.31 133.898 694.838 139.86 704.348C151.217 695.055 156.005 704.348 178.071 704.348C200.137 704.348 214.13 725.033 214.13 725.033C214.13 725.033 216.282 717.276 243.73 725.033C271.178 732.79 256.647 740.547 256.647 740.547C270.44 734.682 288.689 744.51 318 758H15L38.1421 740.547C38.1421 740.547 28.4547 735.376 38.1421 725.033C47.8295 714.69 60.576 717.642 69.8952 725.033Z" fill="white" fill-opacity="0.9"/>
<path d="M69.8952 725.033C73.041 706.982 69.8952 694.006 87.1172 684.31C104.339 674.613 118.87 684.31 118.87 684.31C118.87 684.31 133.898 694.838 139.86 704.348C151.217 695.055 156.005 704.348 178.071 704.348C200.137 704.348 214.13 725.033 214.13 725.033C214.13 725.033 216.282 717.276 243.73 725.033C271.178 732.79 256.647 740.547 256.647 740.547C270.44 734.682 288.689 744.51 318 758H15L38.1421 740.547C38.1421 740.547 28.4547 735.376 38.1421 725.033C47.8295 714.69 60.576 717.642 69.8952 725.033Z" stroke="white" stroke-width="3"/>
</g>
<path d="M437.391 989.457C453.11 988.145 461.79 987.24 471.987 978.86C486.225 984.398 491.406 981.887 498.599 973.31V834.799C496.779 820.804 492.655 816.011 479.379 813.353C459.317 810.133 448.168 808.77 432.069 823.445C420.927 814.176 413.263 810.274 388.602 813.353C373.838 809.085 373.993 804.086 353.71 819.157C354.148 815.23 344.789 814.294 340.7 813.353C324.374 813.121 329.63 812.94 329.464 823.445C314.541 825.631 310.266 828.036 319.115 834.799C319.469 839.77 320.151 841.027 329.464 842.873L329.163 842.887C316.883 843.487 303.073 844.161 306.695 855.235C298.47 859.241 309.357 863.057 312.905 864.823C298.914 868.735 303.245 870.891 309.652 876.428C303.497 881.284 316.441 886.04 338.039 891.566C315.976 892.358 301.814 891.299 306.695 896.359C297.482 902.073 283.579 904.523 294.276 910.236C276.263 910.521 262.592 914.398 264.116 925.626C263.421 931.445 290.605 942.164 340.7 940.511L340.552 940.691C333.928 948.743 330.169 953.313 346.022 958.172C344.079 965.514 346.378 967.546 358.441 966.246C351.903 973.19 356.349 975.713 372.339 978.86C394.049 986.269 403.85 992.521 437.391 989.457Z" fill="#2C8C4A"/>
<path d="M358.559 994.224C370.115 994.671 376.188 995.284 377.37 1005.04C391.507 1004.38 392.077 1005.44 386.37 1008.62C398.618 1011.26 400.099 1014.7 397.205 1022.86C404.607 1031.48 399.769 1032.93 385.7 1033.46C375.503 1040.12 369.888 1043.51 363.459 1037.41C353.529 1039.14 349.502 1037.31 343.281 1032.32C347.304 1039.38 340.621 1040.17 325.176 1040.32C299.615 1038.57 282.631 1037.95 294.197 1031C276.278 1024.88 270.6 1021.41 283.411 1014.94C285.424 1006.95 287.206 1002.91 301.319 1002.99C314.511 1000.09 317.722 1002.12 322.136 1006.89C325.44 1000.26 325.673 995.075 339.062 997.64C345.663 990.915 350.139 991.269 358.559 994.224Z" fill="#2C8C4A"/>
<path d="M472.676 959.353C504.995 958.222 514.699 956.347 502.59 948.663C505.326 943.378 509.874 942.024 496.499 943.616C508.629 941.05 509.304 939.307 500.011 928.266C494.212 922.571 490.911 923.963 484.982 930.166C485.701 925.365 483.368 925.368 477.015 927.538C483.734 923.147 485.362 920.68 471.586 916.227C463.914 914.003 460.986 918.138 455.582 924.795C461.357 914.668 463.383 909.262 451.032 903.193C446.359 895.734 443.584 891.771 428.077 899.915C423.542 890.121 420.797 886.741 414.78 892.507C410.174 884.903 406.25 884.806 393.498 902.469C391.456 896.028 387.52 896.492 375.249 904.777C369.26 900.769 365.403 901.065 356.513 911.872C342.56 903.512 333.696 896.661 329.083 907.706C314.137 911.283 307.23 913.539 312.906 920.658L312.612 920.897C304.653 927.377 300.098 931.084 324.242 932.676C317.541 936.73 322.634 941.54 347.049 937.211C335.223 945.941 347.959 954.185 356.513 954.185C342.272 959.556 350.08 962.065 361.598 965.4C363.72 968.127 346.391 972.977 375.249 972.977C369.144 979.686 379.45 975.048 390.307 975.581C402.043 980.606 400.677 983.591 419.793 977.827C407.532 985.24 448.307 988.132 455.582 977.827C494.659 975.581 522.043 969.265 501.626 963.287C505.274 960.889 484.027 961.426 472.676 959.353Z" fill="#016751"/>
<path d="M426.765 968.43C423.43 977.22 446.614 994.648 456.165 1013.29C458.145 1017.15 457.325 1021.55 459.802 1025.11C462.334 1028.75 460.646 1026.2 464.046 1029.05C470.903 1034.8 484.354 1039.66 484.354 1039.66V1073C484.354 1073 472.983 1061.22 464.046 1056.03C458.548 1052.83 455.371 1050.86 449.194 1049.36C441.144 1047.4 436.233 1050.06 427.977 1049.36C417.152 1048.43 416.895 1050.25 406.457 1047.24C398.11 1044.83 394.148 1040.85 385.543 1039.66C379.915 1038.88 370.864 1037.1 365.235 1036.32C354.979 1034.92 350.951 1027.66 340.684 1026.32C334.697 1025.54 338.841 1025.07 332.804 1025.11C330.2 1025.13 321.151 1026.38 318.558 1026.63C314.556 1027 308.556 1029.05 308.556 1029.05L302.797 1026.63L310.374 1026.32L317.649 1022.69L304.918 1014.5L308.556 1010.86C308.556 1010.86 312.275 1014.39 314.921 1016.32C319.585 1019.72 323.711 1023.29 327.954 1023.29C332.197 1023.29 333.57 1019.75 335.835 1016.32L339.169 1010.86L341.897 1016.32L339.169 1020.87C339.169 1022.69 352.527 1026.89 361.598 1029.05C369.268 1030.88 380.087 1034.51 381.603 1031.78C383.118 1029.05 365.235 1017.84 365.235 1017.84C365.235 1017.84 368.487 1016.14 370.691 1016.32C373.832 1016.58 374.86 1018.95 377.359 1020.87C383.067 1025.25 384.262 1030.13 390.393 1033.9C398.681 1039 404.919 1040.12 414.641 1039.66C422.761 1039.28 428.816 1039.57 434.645 1033.9C438.066 1030.57 439.845 1027.98 440.707 1023.29C441.999 1016.26 445.403 1017.41 442.526 1010.86C435.537 994.964 417.368 979.948 417.368 974.189C417.368 968.43 415.486 962.098 414.641 956.913C413.764 951.538 410.397 949.638 405.244 946.607C400.092 943.576 379.784 939.03 379.784 939.03C379.784 939.03 386.258 938.762 390.393 939.03C399.196 939.6 410.397 945.395 412.519 943.576C414.641 941.758 402.82 929.937 402.82 929.937C402.82 929.937 401.978 927.788 397.061 926.906C382.963 924.376 367.792 929.56 353.717 926.906C346.664 925.576 342.785 924.206 336.088 921.842L335.835 921.753C328.931 919.316 318.558 914.479 318.558 914.479L332.197 912.357C332.197 912.357 338.338 917.493 342.806 919.935C360.672 929.696 394.939 919.935 394.939 919.935C394.939 919.935 383.774 916.196 377.359 912.357C370.57 908.294 361.598 899.627 361.598 899.627L360.083 892.656L366.751 896.899C366.751 896.899 372.997 902.366 377.359 905.386C388.683 913.226 407.972 924.178 409.488 919.935C411.003 915.691 412.519 902.355 412.519 902.355L416.762 905.386C416.762 905.386 411.922 918.361 412.519 926.906C413.338 938.633 425.249 954.185 425.249 954.185C441.433 945.933 445.607 941.416 452.954 933.466L453.134 933.271C453.134 933.271 453.74 938.424 453.134 941.758C452.528 945.092 430.099 959.641 426.765 968.43Z" fill="#5B0F3E"/>
<path d="M481.38 941.12C502.249 937.748 507.991 935.805 498.203 932.138C504.5 927.973 504.996 925.843 494.083 922.81C497.05 918.93 496.665 917.535 488.247 917.974C484.433 914.765 482.335 916.429 478.633 922.81L478.656 922.705C480.54 914.002 481.604 909.09 460.092 908.646C455.282 904.747 452.715 903.873 448.762 908.646C444.077 910.674 443.764 912.842 446.015 917.974C439.417 914.044 437.404 916.095 434.342 921.083C426.694 929.282 429.9 930.081 439.835 929.374C424.559 938.018 429.062 939.287 448.762 938.356C441.657 941.9 438.031 943.863 464.899 945.265C473.078 948.176 477.922 950.478 481.38 941.12Z" fill="#6CB236"/>
</g>
<defs>
<filter id="filter0_f_38_4694" x="6.52002" y="674.5" width="316.107" height="88.9998" filterUnits="userSpaceOnUse" color-interpolation-filters="sRGB">
<feFlood flood-opacity="0" result="BackgroundImageFix"/>
<feBlend mode="normal" in="SourceGraphic" in2="BackgroundImageFix" result="shape"/>
<feGaussianBlur stdDeviation="2" result="effect1_foregroundBlur_38_4694"/>
</filter>
<clipPath id="clip0_38_4694">
<rect width="428" height="1129" fill="white"/>
</clipPath>
</defs>
</svg>
