<svg width="428" height="1129" viewBox="0 0 428 1129" fill="none" xmlns="http://www.w3.org/2000/svg">
<g clip-path="url(#clip0_38_4979)">
<path d="M323.566 331.135C336.547 406.309 356.231 469.116 361.271 558.057C370.371 718.649 323.126 830.025 303.424 966.707C219.573 965.094 135.764 963.474 51.9999 961.846C69.2922 885.776 92.5458 822.742 102.685 732.279C120.386 574.354 82.7205 462.042 72.1423 326.249C155.9 327.885 239.708 329.514 323.566 331.135Z" fill="#F9F1D5"/>
<path d="M340.782 322.497L327.014 336.778L72.616 336.332L55.2333 321.995L340.782 322.497Z" fill="#AD795E"/>
<path d="M269.782 320.346C268.908 317.189 256.772 294.527 261.3 280.278C262.735 275.759 257.792 275.521 255.223 277.248C253.237 278.584 250.501 280.699 249.586 284.309C248.434 288.855 240.832 286.734 249.632 295.817C255.672 302.05 257.897 314.348 260.279 316.227C262.661 318.107 270.186 321.805 269.782 320.346Z" fill="#DC5757"/>
<path d="M274.689 327.506C274.3 324.928 268.738 319.42 267.311 314.709C265.68 309.325 263.909 308.984 263.163 308.748C260.902 308.033 258.643 312.436 259.011 313.988C259.423 315.725 259.921 316.463 262.075 319.79C264.63 323.736 269.834 329.725 271.456 330.434C273.077 331.143 275.001 329.571 274.689 327.506Z" fill="#DC5757"/>
<path d="M276.483 332.387C275.157 332.974 270.925 330.329 268.975 328.933C269.79 328.508 271.548 327.943 272.055 329.075C272.562 330.206 275.218 331.754 276.483 332.387Z" fill="url(#paint0_linear_38_4979)"/>
<path d="M280.953 329.288C279.792 330.476 274.165 328.798 271.496 327.81C272.183 327.004 273.813 325.687 274.834 326.874C275.855 328.06 279.339 328.978 280.953 329.288Z" fill="url(#paint1_linear_38_4979)"/>
<path d="M279.401 324.232C278.861 325.424 274.414 325.965 272.258 326.086C272.552 325.308 273.397 323.882 274.421 324.405C275.444 324.928 278.167 324.507 279.401 324.232Z" fill="url(#paint2_linear_38_4979)"/>
<path d="M29.6882 170.976C107.183 140.53 176.81 202.935 202.267 238.083L210.863 251.351L168.875 245.392C149.369 194.765 102.725 172.867 75.6147 170.976C40.5699 168.532 24.9826 173.618 26.0515 172.791C27.0433 172.023 28.8066 171.325 29.6882 170.976Z" fill="url(#paint3_linear_38_4979)"/>
<path d="M134.496 225.657C149.912 202.248 183.742 180.218 198.729 172.129C156.621 232.081 171.252 219.948 169.467 231.724C168.04 241.145 145.558 231.605 134.496 225.657Z" fill="#DC5757"/>
<path d="M150.198 236.546C153.338 236.546 157.216 232.977 158.762 231.193C143.774 232.264 141.276 228.338 141.276 232.977C141.276 236.689 116.059 262.359 103.45 274.73C111.657 274.016 146.272 236.546 150.198 236.546Z" fill="url(#paint4_linear_38_4979)"/>
<path d="M65.0649 250.994C75.3423 240.716 115.738 229.82 134.652 225.657C143.811 226.966 161.559 229.939 159.275 231.367C156.42 233.151 146.071 237.433 143.573 234.578C141.575 232.295 90.4016 244.57 65.0649 250.994Z" fill="url(#paint5_linear_38_4979)"/>
<path d="M234.772 229.583C227.932 238.335 199.312 253.609 192.306 254.976L202.637 259.421C204.774 260.333 211.899 261.609 223.298 259.421C237.547 256.686 238.782 252.695 241.822 244.719C247.165 230.701 246.812 230.83 259.99 203.35C273.17 175.863 297.037 167.45 300.6 165.741C317.567 157.598 342.991 158.219 352.609 159.245C361.113 160.152 383.244 165.399 395 168.476C311.999 134.628 271.389 173.604 261.771 186.938C252.153 200.272 243.322 218.642 234.772 229.583Z" fill="#DC5757"/>
<path d="M314.708 179.074C327.554 170.684 375.254 169.201 395 168.368C329.339 143.745 287.23 164.442 270.814 184.426C257.682 200.413 239.887 240.288 236.199 253.849C246.548 260.986 249.403 260.629 252.258 267.766C254.542 273.476 269.387 284.063 274.026 287.036C274.383 285.609 274.026 278.472 275.81 265.982C281.008 229.595 297.222 190.493 314.708 179.074Z" fill="url(#paint6_linear_38_4979)"/>
<path d="M95.2419 177.839C96.0309 176.121 100.595 175.698 102.379 175.698C108.802 176.054 111.091 180.19 112.5 181.733C113.18 182.478 110.586 184.619 108.089 185.333C106.546 185.773 100.741 185.262 98.0965 183.192C96.6692 182.074 94.2555 179.986 95.2419 177.839Z" fill="#AE5C5C"/>
<path d="M176.127 239.575C173.272 235.578 171.966 233.395 169.111 226.614C164.115 228.756 157.214 236.476 152.575 239.331C148.863 241.615 147.938 250.399 148.057 254.206C149.008 254.206 151.083 250.888 154.123 250.28C157.692 249.566 163.758 248.496 168.99 251.107C171.737 252.478 178.032 261.7 179.459 269.551C180.822 277.044 187.667 283.468 195.04 287.507C211.734 296.651 243.693 298.813 250.946 298.326C255.815 297.999 273.912 292.474 274.74 286.68C277.238 269.194 262.25 262.77 261.179 262.057C254.514 257.612 236.436 253.249 228.942 251.821C221.448 250.394 179.696 244.571 176.127 239.575Z" fill="#DC5757"/>
<path d="M153.766 242.429C157.368 237.626 160.546 231.724 159.322 230.892C143.331 242.301 151.982 231.367 141.276 242.786C136.352 248.038 115.047 268.048 103.807 274.903C114.903 275.5 146.272 257.774 150.911 251.707C153.052 249.209 151.625 245.284 153.766 242.429Z" fill="url(#paint7_linear_38_4979)"/>
<path d="M178.746 266.696C203.774 264.873 230.951 288.995 236.556 297.742C227.561 297.378 206.829 293.367 199.013 290.453C185.325 285.351 180.887 277.401 178.746 266.696Z" fill="url(#paint8_linear_38_4979)"/>
<path fill-rule="evenodd" clip-rule="evenodd" d="M144.289 220.168C144.573 219.332 145.325 218.67 146.236 218.233C147.215 217.763 148.422 217.53 149.572 217.62C150.722 217.71 151.841 218.127 152.603 218.987C153.37 219.853 153.741 221.124 153.477 222.848C153.453 223.002 153.303 223.111 153.14 223.09C152.978 223.069 152.866 222.927 152.889 222.772C153.135 221.166 152.78 220.069 152.148 219.355C151.511 218.637 150.555 218.265 149.516 218.183C148.766 218.125 147.986 218.219 147.279 218.435C148.66 218.534 149.811 219.55 149.97 220.91C150.15 222.46 148.975 223.87 147.345 224.06C145.714 224.25 144.246 223.148 144.066 221.598C144.007 221.094 144.092 220.605 144.289 220.168Z" fill="black"/>
<path d="M269.502 172.703C270.9 173.975 272.074 175.385 272.413 176.158C272.112 181.815 267.224 183.206 265.326 184.082C263.429 184.957 259.278 180.545 258.77 179.023C258.262 177.502 258.57 175.498 261.344 173.604C264.118 171.711 267.754 171.112 269.502 172.703Z" fill="#DC5757"/>
<path d="M259.395 169.469C261.108 168.613 265.343 170.778 267.246 171.967C266.176 172.562 263.963 173.466 263.678 172.324C263.392 171.182 260.704 169.945 259.395 169.469Z" fill="#D9D9D9"/>
<path d="M89.1331 182.547C89.1368 180.551 93.5396 178.256 95.7405 177.359C95.7992 178.643 95.5868 181.097 94.2682 180.637C92.9495 180.178 90.2953 181.719 89.1331 182.547Z" fill="#D9D9D9"/>
<path d="M253.731 171.935C255.527 170.487 260.969 172.291 263.466 173.375C262.357 174.355 259.989 175.971 259.39 174.597C258.79 173.223 255.367 172.25 253.731 171.935Z" fill="#D9D9D9"/>
<path d="M91.7644 186.204C91.3226 183.835 95.948 180.022 98.3159 178.412C98.6714 179.922 98.972 182.886 97.3304 182.667C95.6888 182.448 92.9357 184.934 91.7644 186.204Z" fill="#D9D9D9"/>
<path d="M253.119 178.085C254.067 176.421 258.79 175.865 261.033 175.795C260.474 176.884 259.138 178.866 258.266 178.076C257.394 177.286 254.471 177.753 253.119 178.085Z" fill="#D9D9D9"/>
<path d="M95.8246 189.091C95.3876 187.226 98.4732 183.607 100.071 182.03C100.402 183.209 100.769 185.571 99.5924 185.585C98.4154 185.598 96.5902 187.928 95.8246 189.091Z" fill="#D9D9D9"/>
<path d="M197.811 250.744C183.948 246.515 189.489 243.891 193.993 243.108C225.418 235.472 228.355 241.639 230.117 246.632C231.879 251.625 215.138 256.03 197.811 250.744Z" fill="url(#paint9_linear_38_4979)"/>
<path d="M254.878 321.207C254.327 316.815 238.534 279.7 243.962 285.603C247.344 289.281 236.163 270.796 235.453 269.907C233.302 267.216 228.292 264.052 226.88 267.096C225.101 270.931 210.797 270.33 223.532 277.79C230.478 281.859 249.042 321.01 249.362 324.361C249.616 327.015 255.01 322.258 254.878 321.207Z" fill="#DC5757"/>
<path d="M262.028 334.676C261.77 332.746 256.311 327.394 255.652 323.776C255.013 320.266 253.202 318.633 252.644 318.449C250.958 317.893 249.45 322.134 249.362 323.704C249.247 325.775 251.158 328.285 251.991 329.614C253.857 332.588 257.519 336.509 258.726 337.055C259.934 337.601 262.235 336.222 262.028 334.676Z" fill="#DC5757"/>
<path d="M265.604 339.579C264.439 340.416 260.167 338.032 258.176 336.735C258.884 336.15 260.455 335.279 261.067 336.476C261.679 337.672 264.346 339.043 265.604 339.579Z" fill="url(#paint10_linear_38_4979)"/>
<path d="M267.248 334.433C266.598 336.024 260.965 335.736 258.231 335.393C258.581 334.34 259.611 332.484 260.927 333.485C262.243 334.487 265.689 334.535 267.248 334.433Z" fill="url(#paint11_linear_38_4979)"/>
<path d="M266.289 331.254C265.855 332.553 261.63 332.976 259.572 333.025C259.799 332.174 260.51 330.627 261.527 331.247C262.545 331.868 265.126 331.51 266.289 331.254Z" fill="url(#paint12_linear_38_4979)"/>
<path d="M177.873 405.799C177.857 400.747 181.618 396.469 186.636 395.876C226.402 391.176 248.11 390.925 268.912 394.955C273.426 395.83 276.569 399.862 276.584 404.461L276.776 463.999C276.795 469.872 271.773 474.484 265.913 474.104C242.883 472.61 222.339 472.955 188.627 474.685C182.909 474.979 178.082 470.442 178.063 464.716L177.873 405.799Z" fill="#E5D0B0"/>
<path d="M211.543 458.903C219.159 458.943 226.516 454.893 226.562 446.157C226.582 442.294 224.976 438.869 220.786 436.999C223.258 435.612 224.559 432.987 224.576 429.739C224.613 422.795 218.754 418.788 211.978 418.753C204.922 418.715 198.683 423.051 198.643 430.667L206.984 431.27C207.054 428.527 208.8 426.8 211.6 426.815C214.12 426.828 216.128 428.182 216.114 430.982C216.104 432.886 215.366 434.731 210.046 434.703L210.011 441.31C213.763 441.33 218.133 441.073 218.108 445.721C218.088 449.641 214.889 450.856 211.865 450.84C208.057 450.82 205.044 448.845 205.063 445.093L196.661 445.552C196.613 454.624 203.815 458.862 211.543 458.903ZM246.621 431.255C245.277 431.248 243.653 431.351 241.969 432.126L242.889 427.539L258.625 427.622L258.667 419.558L236.043 419.439L232.014 440.194L239.788 442.139C240.692 440.632 242.38 439.128 245.404 439.144C249.884 439.168 251.269 441.975 251.255 444.719C251.24 447.631 249.765 451.095 245.341 451.072C241.029 451.05 239.254 447.848 239.154 445.552L230.859 446.908C231.664 453.632 237.683 459.096 245.411 459.137C254.091 459.182 260.176 452.214 260.215 444.766C260.252 437.71 254.797 431.298 246.621 431.255Z" fill="#532A2A"/>
<path d="M128.62 501.908L131.596 501.924L131.633 494.988L134.129 495.001C137.824 495.02 139.826 493.303 139.843 490.063C139.859 486.871 137.924 485.229 134.18 485.209L128.708 485.18L128.62 501.908ZM131.647 492.228L131.669 487.956L133.853 487.967C135.989 487.978 136.85 488.583 136.842 490.095C136.834 491.607 135.943 492.25 133.831 492.239L131.647 492.228ZM147.397 489.934C146.053 489.927 144.729 490.712 144.217 492.174L144.228 490.158L141.324 490.142L141.261 501.974L144.141 501.989L144.173 496.037C144.184 493.806 145.054 492.73 146.806 492.739C147.382 492.742 147.837 492.889 148.244 493.155L149.649 490.618C148.884 490.134 148.189 489.938 147.397 489.934ZM154.869 502.286C158.517 502.305 160.812 499.485 160.83 496.149C160.847 492.789 158.582 489.993 154.934 489.974C151.262 489.955 148.992 492.727 148.974 496.087C148.956 499.423 151.198 502.266 154.869 502.286ZM154.883 499.766C152.699 499.754 151.844 498.022 151.854 496.102C151.864 494.158 152.737 492.482 154.921 492.494C157.105 492.505 157.96 494.19 157.95 496.134C157.94 498.054 157.067 499.777 154.883 499.766ZM162.676 488.023L165.7 488.038L165.714 485.374L162.69 485.359L162.676 488.023ZM162.743 507.223C164.351 507.232 165.532 506.278 165.543 504.166L165.616 490.27L162.736 490.255L162.664 503.959C162.662 504.487 162.348 504.701 161.82 504.698C161.556 504.697 161.245 504.647 160.909 504.549L160.897 506.853C161.544 507.097 162.191 507.22 162.743 507.223ZM178.593 496.098C178.61 492.81 176.849 490.089 173.177 490.07C169.241 490.049 167.544 493.16 167.528 496.256C167.511 499.424 169.224 502.361 173.304 502.383C175.296 502.393 176.86 501.705 178.163 500.272L176.18 498.51C175.36 499.441 174.398 499.772 173.342 499.767C171.47 499.757 170.515 498.72 170.403 497.159L178.515 497.202C178.565 496.818 178.591 496.458 178.593 496.098ZM170.391 494.879C170.566 493.704 171.388 492.46 173.14 492.47C174.652 492.478 175.799 493.396 175.839 494.908L170.391 494.879ZM185.179 502.445C187.531 502.457 189.362 501.171 190.166 498.967L187.555 497.945C187.236 499.168 186.32 499.931 185.168 499.925C183.152 499.914 182.418 498.182 182.427 496.31C182.437 494.438 183.215 492.642 185.207 492.653C186.383 492.659 187.266 493.456 187.572 494.705L190.313 493.64C189.414 491.283 187.572 490.145 185.22 490.133C181.356 490.113 179.492 493.175 179.475 496.295C179.459 499.415 181.315 502.425 185.179 502.445ZM198.248 492.721L198.26 490.441L195.308 490.426L195.334 485.53L192.442 487.651L192.428 490.411L190.508 490.401L190.496 492.681L192.416 492.691L192.383 498.931C192.37 501.451 194.044 502.491 196.036 502.502C196.756 502.506 197.477 502.39 198.198 502.153L198.21 499.849C197.681 500.015 197.177 500.108 196.769 500.106C195.833 500.101 195.259 499.666 195.264 498.73L195.296 492.706L198.248 492.721ZM209.306 502.572C211.538 502.583 213.92 501.396 213.935 498.636C213.957 494.316 207.76 495.339 207.769 493.539C207.772 492.987 208.35 492.534 209.286 492.539C210.582 492.546 211.226 493.318 211.63 494.064L213.869 492.851C212.989 491.239 211.434 490.271 209.394 490.26C207.114 490.248 205.044 491.413 205.032 493.693C205.009 498.085 211.112 496.797 211.102 498.789C211.098 499.413 210.518 500.178 209.174 500.171C207.59 500.163 206.972 499.079 206.665 498.214L204.355 499.234C204.922 501.037 206.81 502.559 209.306 502.572ZM223.327 490.573L223.303 495.061C223.292 497.173 223.277 500.125 220.589 500.111C218.405 500.099 218.416 498.035 218.42 497.219L218.455 490.548L215.575 490.532L215.536 497.924C215.523 500.444 216.76 502.611 219.736 502.626C221.128 502.634 222.426 502.161 223.272 501.037L223.265 502.405L226.145 502.42L226.207 490.588L223.327 490.573ZM235.437 490.397C234.093 490.39 232.77 490.935 232.022 491.819L232.054 485.723L229.174 485.708L229.086 502.436L231.966 502.451L231.972 501.275C232.783 502.287 234.1 502.702 235.372 502.709C238.588 502.725 240.378 500.119 240.397 496.567C240.417 492.703 238.341 490.412 235.437 490.397ZM234.69 500.041C232.602 500.03 231.722 498.513 231.733 496.545C231.743 494.577 232.639 492.998 234.703 493.009C236.623 493.019 237.528 494.368 237.517 496.576C237.505 498.76 236.61 500.051 234.69 500.041ZM255.657 490.503C254.121 490.495 252.75 491.04 251.828 492.811C251.118 490.983 249.681 490.472 248.385 490.465C247.209 490.459 245.983 490.86 245.208 492.176L245.216 490.688L242.432 490.673L242.393 502.505L245.273 502.521L245.297 498.009C245.31 495.633 245.252 492.968 247.675 492.981C249.547 492.991 249.657 494.935 249.652 495.871L249.617 502.543L252.497 502.558L252.521 498.047C252.533 495.671 252.451 493.006 254.875 493.019C256.771 493.029 256.881 494.973 256.876 495.909L256.841 502.581L259.721 502.596L259.761 495.061C259.773 492.685 258.513 490.518 255.657 490.503ZM262.335 488.546L265.359 488.562L265.373 485.898L262.349 485.882L262.335 488.546ZM262.333 502.61L265.213 502.625L265.275 490.793L262.395 490.778L262.333 502.61ZM271.836 502.9C274.068 502.912 276.45 501.724 276.465 498.964C276.488 494.644 270.29 495.668 270.3 493.868C270.302 493.316 270.881 492.863 271.817 492.868C273.113 492.875 273.757 493.646 274.161 494.392L276.399 493.18C275.52 491.567 273.965 490.599 271.925 490.588C269.645 490.576 267.575 491.742 267.563 494.021C267.54 498.413 273.643 497.125 273.632 499.117C273.629 499.741 273.049 500.506 271.705 500.499C270.121 500.491 269.502 499.408 269.195 498.542L266.886 499.562C267.452 501.365 269.34 502.887 271.836 502.9ZM282.144 502.954C284.376 502.966 286.758 501.778 286.773 499.018C286.795 494.698 280.598 495.722 280.607 493.922C280.61 493.37 281.189 492.917 282.125 492.922C283.421 492.929 284.064 493.7 284.469 494.446L286.707 493.234C285.827 491.621 284.272 490.653 282.232 490.642C279.953 490.631 277.882 491.796 277.87 494.076C277.847 498.468 283.95 497.18 283.94 499.172C283.936 499.796 283.356 500.561 282.012 500.553C280.428 500.545 279.81 499.462 279.503 498.596L277.193 499.616C277.76 501.419 279.648 502.941 282.144 502.954ZM288.735 488.685L291.759 488.7L291.773 486.037L288.749 486.021L288.735 488.685ZM288.733 502.749L291.613 502.764L291.675 490.932L288.795 490.917L288.733 502.749ZM299.388 503.045C303.036 503.064 305.331 500.244 305.348 496.908C305.366 493.548 303.1 490.752 299.452 490.733C295.78 490.714 293.51 493.486 293.492 496.846C293.475 500.182 295.716 503.025 299.388 503.045ZM299.401 500.525C297.217 500.513 296.362 498.781 296.372 496.861C296.382 494.917 297.255 493.241 299.439 493.253C301.623 493.264 302.478 494.949 302.468 496.893C302.458 498.813 301.585 500.536 299.401 500.525ZM313.688 490.808C312.248 490.8 310.949 491.273 310.103 492.397L310.111 491.029L307.231 491.014L307.169 502.846L310.048 502.861L310.073 498.133C310.084 496.021 310.099 493.309 312.787 493.323C314.971 493.334 314.961 495.158 314.957 495.974L314.92 502.886L317.8 502.901L317.84 495.27C317.855 492.462 316.352 490.822 313.688 490.808ZM324.171 503.175C326.403 503.187 328.786 501.999 328.8 499.239C328.823 494.919 322.625 495.943 322.635 494.143C322.638 493.591 323.216 493.138 324.152 493.143C325.448 493.149 326.092 493.921 326.496 494.667L328.734 493.455C327.855 491.842 326.3 490.874 324.26 490.863C321.98 490.851 319.91 492.016 319.898 494.296C319.875 498.688 325.978 497.4 325.967 499.392C325.964 500.016 325.384 500.781 324.04 500.774C322.456 500.766 321.838 499.683 321.53 498.817L319.221 499.837C319.787 501.64 321.675 503.162 324.171 503.175Z" fill="#482C16"/>
<path d="M175.36 609.039C175.343 603.911 179.23 599.595 184.332 599.083C233.546 594.14 259.828 593.893 285.294 598.146C289.971 598.927 293.312 603.033 293.327 607.775L293.518 667.156C293.537 672.971 288.606 677.567 282.8 677.236C253.855 675.585 228.711 675.953 186.021 677.835C180.334 678.085 175.568 673.559 175.549 667.866L175.36 609.039Z" fill="#E5D0B0"/>
<path d="M200.952 630.316C199.608 630.316 197.984 630.428 196.304 631.212L197.2 626.62H212.936V618.556H190.312L186.392 639.332L194.176 641.236C195.072 639.724 196.752 638.212 199.776 638.212C204.256 638.212 205.656 641.012 205.656 643.756C205.656 646.668 204.2 650.14 199.776 650.14C195.464 650.14 193.672 646.948 193.56 644.652L185.272 646.052C186.112 652.772 192.16 658.204 199.888 658.204C208.568 658.204 214.616 651.204 214.616 643.756C214.616 636.7 209.128 630.316 200.952 630.316ZM233.757 658.148C241.373 658.148 248.709 654.06 248.709 645.324C248.709 641.46 247.085 638.044 242.885 636.196C245.349 634.796 246.637 632.164 246.637 628.916C246.637 621.972 240.757 617.996 233.981 617.996C226.925 617.996 220.709 622.364 220.709 629.98L229.053 630.54C229.109 627.796 230.845 626.06 233.645 626.06C236.165 626.06 238.181 627.404 238.181 630.204C238.181 632.108 237.453 633.956 232.133 633.956V640.564C235.885 640.564 240.253 640.284 240.253 644.932C240.253 648.852 237.061 650.084 234.037 650.084C230.229 650.084 227.205 648.124 227.205 644.372L218.805 644.876C218.805 653.948 226.029 658.148 233.757 658.148ZM269.194 630.876H268.354L276.754 618.556H267.01L255.418 636.812C253.906 639.164 253.178 641.796 253.178 644.316C253.178 652.492 259.898 658.204 268.018 658.204C276.026 658.204 282.746 652.548 282.746 644.26C282.746 636.644 276.922 630.876 269.194 630.876ZM268.018 650.14C264.546 650.14 261.802 648.012 261.802 644.26C261.802 640.452 264.546 638.324 268.018 638.324C271.49 638.324 274.178 640.508 274.178 644.26C274.178 648.012 271.434 650.14 268.018 650.14Z" fill="#532A2A"/>
<path d="M139.16 701.588H142.16V694.364H149.48V701.588H152.48V684.86H149.48V691.604H142.16V684.86H139.16V701.588ZM160.369 689.516C158.209 689.516 156.457 690.356 155.041 692.06L157.129 693.812C157.993 692.66 159.121 692.036 160.321 692.036C161.689 692.036 162.553 692.828 162.553 694.124V694.46H159.601C158.257 694.46 157.249 694.628 156.457 694.988C155.305 695.516 154.681 696.572 154.681 697.964C154.681 700.22 156.457 701.828 158.953 701.828C160.513 701.828 161.857 701.156 162.553 700.052L162.793 701.588H165.433V694.124C165.433 691.268 163.489 689.516 160.369 689.516ZM159.409 699.38C158.257 699.38 157.561 698.852 157.561 698.012C157.561 697.58 157.729 697.244 158.041 697.028C158.425 696.74 159.001 696.62 159.985 696.62H162.553C162.553 698.156 161.137 699.38 159.409 699.38ZM172.672 701.828C175.024 701.828 176.848 700.532 177.64 698.324L175.024 697.316C174.712 698.54 173.8 699.308 172.648 699.308C170.632 699.308 169.888 697.58 169.888 695.708C169.888 693.836 170.656 692.036 172.648 692.036C173.824 692.036 174.712 692.828 175.024 694.076L177.76 692.996C176.848 690.644 175 689.516 172.648 689.516C168.784 689.516 166.936 692.588 166.936 695.708C166.936 698.828 168.808 701.828 172.672 701.828ZM179.402 701.588H182.282V698.132L184.106 696.116L187.562 701.588H190.994L186.074 694.34L190.49 689.756H186.626L182.282 694.556V684.86H179.402V701.588ZM201.617 695.516C201.617 692.228 199.841 689.516 196.169 689.516C192.233 689.516 190.553 692.636 190.553 695.732C190.553 698.9 192.281 701.828 196.361 701.828C198.353 701.828 199.913 701.132 201.209 699.692L199.217 697.94C198.401 698.876 197.441 699.212 196.385 699.212C194.513 699.212 193.553 698.18 193.433 696.62H201.545C201.593 696.236 201.617 695.876 201.617 695.516ZM193.409 694.34C193.577 693.164 194.393 691.916 196.145 691.916C197.657 691.916 198.809 692.828 198.857 694.34H193.409ZM209.604 689.516C208.26 689.516 206.94 690.308 206.436 691.772V689.756H203.532V701.588H206.412V695.636C206.412 693.404 207.276 692.324 209.028 692.324C209.604 692.324 210.06 692.468 210.468 692.732L211.86 690.188C211.092 689.708 210.396 689.516 209.604 689.516ZM216.201 701.828C218.433 701.828 220.809 700.628 220.809 697.868C220.809 693.548 214.617 694.604 214.617 692.804C214.617 692.252 215.193 691.796 216.129 691.796C217.425 691.796 218.073 692.564 218.481 693.308L220.713 692.084C219.825 690.476 218.265 689.516 216.225 689.516C213.945 689.516 211.881 690.692 211.881 692.972C211.881 697.364 217.977 696.044 217.977 698.036C217.977 698.66 217.401 699.428 216.057 699.428C214.473 699.428 213.849 698.348 213.537 697.484L211.233 698.516C211.809 700.316 213.705 701.828 216.201 701.828ZM234.247 689.516C232.903 689.516 231.583 690.308 231.079 691.772V689.756H228.175V701.588H231.055V695.636C231.055 693.404 231.919 692.324 233.671 692.324C234.247 692.324 234.703 692.468 235.111 692.732L236.503 690.188C235.735 689.708 235.039 689.516 234.247 689.516ZM246.992 695.516C246.992 692.228 245.216 689.516 241.544 689.516C237.608 689.516 235.928 692.636 235.928 695.732C235.928 698.9 237.656 701.828 241.736 701.828C243.728 701.828 245.288 701.132 246.584 699.692L244.592 697.94C243.776 698.876 242.816 699.212 241.76 699.212C239.888 699.212 238.928 698.18 238.808 696.62H246.92C246.968 696.236 246.992 695.876 246.992 695.516ZM238.784 694.34C238.952 693.164 239.768 691.916 241.52 691.916C243.032 691.916 244.184 692.828 244.232 694.34H238.784ZM253.443 699.788C251.955 699.596 250.755 699.356 250.755 698.492C250.755 698.204 250.875 698.012 251.091 697.868C251.787 698.156 252.555 698.324 253.371 698.324C255.963 698.324 258.171 696.644 258.171 694.004C258.171 693.236 257.979 692.54 257.667 691.94L259.371 690.548L257.859 688.724L256.059 690.26C255.267 689.78 254.307 689.516 253.275 689.516C250.635 689.516 248.427 691.292 248.427 693.86C248.427 694.892 248.787 695.828 249.387 696.572C248.691 697.172 248.283 697.916 248.283 698.948C248.283 700.172 248.859 700.916 249.699 701.372L247.995 702.452C247.971 702.572 247.947 702.692 247.947 702.98C247.947 705.428 249.963 706.724 253.491 706.724C256.683 706.724 258.939 705.668 258.939 703.196C258.939 700.364 255.843 700.1 253.443 699.788ZM253.323 691.916C254.547 691.916 255.291 692.708 255.291 693.932C255.291 695.084 254.643 695.972 253.323 695.972C251.979 695.972 251.307 695.06 251.307 693.932C251.307 692.732 252.099 691.916 253.323 691.916ZM253.611 704.564C252.267 704.564 250.803 704.252 250.803 703.244C250.803 703.196 250.803 703.124 250.827 703.052L251.859 702.068L252.843 702.212C254.547 702.452 256.059 702.548 256.059 703.46C256.059 704.276 254.835 704.564 253.611 704.564ZM260.713 687.524H263.737V684.86H260.713V687.524ZM260.785 701.588H263.665V689.756H260.785V701.588ZM270.29 701.828C272.522 701.828 274.898 700.628 274.898 697.868C274.898 693.548 268.706 694.604 268.706 692.804C268.706 692.252 269.282 691.796 270.218 691.796C271.514 691.796 272.162 692.564 272.57 693.308L274.802 692.084C273.914 690.476 272.354 689.516 270.314 689.516C268.034 689.516 265.97 690.692 265.97 692.972C265.97 697.364 272.066 696.044 272.066 698.036C272.066 698.66 271.49 699.428 270.146 699.428C268.562 699.428 267.938 698.348 267.626 697.484L265.322 698.516C265.898 700.316 267.794 701.828 270.29 701.828ZM283.19 692.036V689.756H280.238V684.86L277.358 686.996V689.756H275.438V692.036H277.358V698.276C277.358 700.796 279.038 701.828 281.03 701.828C281.75 701.828 282.47 701.708 283.19 701.468V699.164C282.662 699.332 282.158 699.428 281.75 699.428C280.814 699.428 280.238 698.996 280.238 698.06V692.036H283.19ZM295.226 695.516C295.226 692.228 293.45 689.516 289.778 689.516C285.842 689.516 284.162 692.636 284.162 695.732C284.162 698.9 285.89 701.828 289.97 701.828C291.962 701.828 293.522 701.132 294.818 699.692L292.826 697.94C292.01 698.876 291.05 699.212 289.994 699.212C288.122 699.212 287.162 698.18 287.042 696.62H295.154C295.202 696.236 295.226 695.876 295.226 695.516ZM287.018 694.34C287.186 693.164 288.002 691.916 289.754 691.916C291.266 691.916 292.418 692.828 292.466 694.34H287.018ZM303.214 689.516C301.87 689.516 300.55 690.308 300.046 691.772V689.756H297.142V701.588H300.022V695.636C300.022 693.404 300.886 692.324 302.638 692.324C303.214 692.324 303.67 692.468 304.078 692.732L305.47 690.188C304.702 689.708 304.006 689.516 303.214 689.516ZM315.959 695.516C315.959 692.228 314.183 689.516 310.511 689.516C306.575 689.516 304.895 692.636 304.895 695.732C304.895 698.9 306.623 701.828 310.703 701.828C312.695 701.828 314.255 701.132 315.551 699.692L313.559 697.94C312.743 698.876 311.783 699.212 310.727 699.212C308.855 699.212 307.895 698.18 307.775 696.62H315.887C315.935 696.236 315.959 695.876 315.959 695.516ZM307.751 694.34C307.919 693.164 308.735 691.916 310.487 691.916C311.999 691.916 313.151 692.828 313.199 694.34H307.751ZM325.363 684.86V690.956C324.619 690.068 323.299 689.516 321.955 689.516C319.051 689.516 316.963 691.796 316.963 695.66C316.963 699.212 318.739 701.828 321.955 701.828C323.227 701.828 324.547 701.42 325.363 700.412V701.588H328.243V684.86H325.363ZM322.651 699.164C320.731 699.164 319.843 697.868 319.843 695.684C319.843 693.476 320.755 692.132 322.675 692.132C324.739 692.132 325.627 693.716 325.627 695.684C325.627 697.652 324.739 699.164 322.651 699.164Z" fill="#482C16"/>
<path d="M143.043 807.799C143.027 802.747 146.788 798.469 151.806 797.876C191.572 793.176 213.28 792.925 234.081 796.955C238.596 797.83 241.739 801.862 241.754 806.461L241.946 865.999C241.965 871.872 236.943 876.484 231.082 876.104C208.053 874.61 187.508 874.955 153.797 876.685C148.079 876.979 143.252 872.442 143.233 866.716L143.043 807.799Z" fill="#E5D0B0"/>
<path d="M175.435 850.048C182.827 845.792 187.979 838.008 187.979 831.344C187.979 823.616 182.659 818.52 175.379 818.52C166.307 818.52 161.435 826.304 161.435 833.136L169.723 833.808C169.947 830.784 170.899 826.696 175.155 826.696C178.347 826.696 179.579 828.936 179.579 831.624C179.579 839.968 167.483 847.976 161.939 851.28V858H189.491V850.048H175.435ZM207.681 818.968V820.76C207.681 823.896 206.169 824.96 203.369 824.96H198.945V831.624H207.681V858H216.137V818.968H207.681Z" fill="#532A2A"/>
<path d="M164.12 885.272L159.8 897.056L155.504 885.272H151.208V902H154.208V889.496L158.36 900.536H161.264L165.416 889.496V902H168.416V885.272H164.12ZM181.758 895.928C181.758 892.64 179.982 889.928 176.31 889.928C172.374 889.928 170.694 893.048 170.694 896.144C170.694 899.312 172.422 902.24 176.502 902.24C178.494 902.24 180.054 901.544 181.35 900.104L179.358 898.352C178.542 899.288 177.582 899.624 176.526 899.624C174.654 899.624 173.694 898.592 173.574 897.032H181.686C181.734 896.648 181.758 896.288 181.758 895.928ZM173.55 894.752C173.718 893.576 174.534 892.328 176.286 892.328C177.798 892.328 178.95 893.24 178.998 894.752H173.55ZM190.129 889.928C188.689 889.928 187.393 890.408 186.553 891.536V890.168H183.673V902H186.553V897.272C186.553 895.16 186.553 892.448 189.241 892.448C191.425 892.448 191.425 894.272 191.425 895.088V902H194.305V894.368C194.305 891.56 192.793 889.928 190.129 889.928ZM203.269 892.448V890.168H200.317V885.272L197.437 887.408V890.168H195.517V892.448H197.437V898.688C197.437 901.208 199.117 902.24 201.109 902.24C201.829 902.24 202.549 902.12 203.269 901.88V899.576C202.741 899.744 202.237 899.84 201.829 899.84C200.893 899.84 200.317 899.408 200.317 898.472V892.448H203.269ZM210.098 902.24C213.746 902.24 216.026 899.408 216.026 896.072C216.026 892.712 213.746 889.928 210.098 889.928C206.426 889.928 204.17 892.712 204.17 896.072C204.17 899.408 206.426 902.24 210.098 902.24ZM210.098 899.72C207.914 899.72 207.05 897.992 207.05 896.072C207.05 894.128 207.914 892.448 210.098 892.448C212.282 892.448 213.146 894.128 213.146 896.072C213.146 897.992 212.282 899.72 210.098 899.72ZM223.95 889.928C222.606 889.928 221.286 890.72 220.782 892.184V890.168H217.878V902H220.758V896.048C220.758 893.816 221.622 892.736 223.374 892.736C223.95 892.736 224.406 892.88 224.814 893.144L226.206 890.6C225.438 890.12 224.742 889.928 223.95 889.928ZM230.546 902.24C232.778 902.24 235.154 901.04 235.154 898.28C235.154 893.96 228.962 895.016 228.962 893.216C228.962 892.664 229.538 892.208 230.474 892.208C231.77 892.208 232.418 892.976 232.826 893.72L235.058 892.496C234.17 890.888 232.61 889.928 230.57 889.928C228.29 889.928 226.226 891.104 226.226 893.384C226.226 897.776 232.322 896.456 232.322 898.448C232.322 899.072 231.746 899.84 230.402 899.84C228.818 899.84 228.194 898.76 227.882 897.896L225.578 898.928C226.154 900.728 228.05 902.24 230.546 902.24Z" fill="#482C16"/>
<path d="M61.4924 978.548L62.8604 976.55L63.4544 978.548L64.6964 977.756L63.5624 976.19L65.6864 975.884L65.5064 974.606L63.4724 975.416L64.1384 973.454H62.7704L62.6624 975.416L60.9344 974.606L60.2504 975.884L62.2304 976.19L60.5204 977.756L61.4924 978.548ZM71.234 986H72.836L73.9521 980.33H80.126L79.0101 986H80.63L83.0781 973.454H81.4581L80.4141 978.836H74.2401L75.2841 973.454H73.6821L71.234 986ZM91.5055 977.126L91.2715 978.314C90.7855 977.504 89.7775 976.964 88.5895 976.964C85.7455 976.964 83.7475 979.79 83.7475 982.67C83.7475 984.74 84.8815 986.162 87.0235 986.162C88.1215 986.162 89.2555 985.748 90.0115 984.866L89.7955 986H91.3435L93.0715 977.126H91.5055ZM90.8755 980.942C90.7135 982.958 89.3275 984.722 87.3655 984.722C86.0155 984.722 85.2775 983.894 85.2775 982.526C85.2775 980.51 86.6635 978.386 88.7695 978.386C90.2635 978.386 91.0015 979.412 90.8755 980.942ZM97.4905 986.162C99.1285 986.162 100.605 985.28 101.487 983.696L100.173 983.048C99.6505 984.11 98.6785 984.794 97.5985 984.794C96.2125 984.794 95.6545 983.84 95.6545 982.652C95.6545 980.546 96.9865 978.332 99.0025 978.332C99.9745 978.332 100.677 978.944 100.803 980.006L102.351 979.52C102.009 977.864 100.821 976.964 99.1105 976.964C96.2305 976.964 94.1065 979.664 94.1065 982.616C94.1065 984.596 95.2045 986.162 97.4905 986.162ZM102.9 986H104.448L104.97 983.39L107.184 981.446L109.218 986H111.036L108.39 980.492L112.314 977.126H110.208L105.312 981.464L106.896 973.454H105.348L102.9 986ZM115.501 986.162C117.139 986.162 118.615 985.28 119.497 983.696L118.183 983.048C117.661 984.11 116.689 984.794 115.609 984.794C114.223 984.794 113.665 983.84 113.665 982.652C113.665 980.546 114.997 978.332 117.013 978.332C117.985 978.332 118.687 978.944 118.813 980.006L120.361 979.52C120.019 977.864 118.831 976.964 117.121 976.964C114.241 976.964 112.117 979.664 112.117 982.616C112.117 984.596 113.215 986.162 115.501 986.162ZM128.617 977.126L128.383 978.314C127.897 977.504 126.889 976.964 125.701 976.964C122.857 976.964 120.859 979.79 120.859 982.67C120.859 984.74 121.993 986.162 124.135 986.162C125.233 986.162 126.367 985.748 127.123 984.866L126.907 986H128.455L130.183 977.126H128.617ZM127.987 980.942C127.825 982.958 126.439 984.722 124.477 984.722C123.127 984.722 122.389 983.894 122.389 982.526C122.389 980.51 123.775 978.386 125.881 978.386C127.375 978.386 128.113 979.412 127.987 980.942ZM142.305 976.964C141.135 976.964 139.965 977.432 139.119 978.692C138.885 977.45 137.931 976.964 136.887 976.964C135.987 976.964 134.961 977.306 134.205 978.188L134.439 977.126H132.927L131.217 986H132.765L133.539 982.094C133.917 980.186 134.601 978.332 136.419 978.332C137.427 978.332 137.787 978.962 137.787 979.826C137.787 980.132 137.733 980.492 137.661 980.852L136.671 986H138.219L138.975 982.094C139.353 980.204 140.037 978.332 141.855 978.332C142.935 978.332 143.241 979.034 143.241 979.808C143.241 980.168 143.169 980.6 143.115 980.924L142.125 986H143.673L144.717 980.6C144.771 980.222 144.843 979.988 144.843 979.538C144.843 978.08 144.105 976.964 142.305 976.964ZM152.265 976.964C151.203 976.964 150.123 977.324 149.367 978.08L149.565 977.126H147.945L145.479 989.672H147.117L148.053 984.884C148.557 985.658 149.529 986.162 150.699 986.162C153.543 986.162 155.523 983.336 155.523 980.456C155.523 978.386 154.407 976.964 152.265 976.964ZM150.501 984.776C149.007 984.776 148.269 983.732 148.395 982.202C148.557 980.168 149.943 978.368 151.923 978.368C153.273 978.368 154.011 979.196 154.011 980.582C154.011 982.598 152.625 984.776 150.501 984.776ZM170.546 976.388C170.546 974.444 169.196 973.31 167.216 973.31C164.624 973.31 162.932 975.236 162.464 977.63L163.94 977.864C164.3 976.226 165.218 974.804 167.09 974.804C168.296 974.804 169.016 975.416 169.016 976.568C169.016 979.898 163.94 982.904 160.862 984.614L160.61 986H169.322L169.61 984.542H163.454C166.658 982.832 170.546 979.79 170.546 976.388ZM175.31 986.162C178.298 986.162 179.792 983.12 180.44 979.88C181.106 976.478 180.71 973.274 177.542 973.274C174.104 973.274 172.916 976.838 172.376 979.628C171.818 982.49 171.728 986.162 175.31 986.162ZM175.418 984.668C173.258 984.668 173.456 982.256 173.924 979.862C174.428 977.306 175.22 974.768 177.398 974.768C179.414 974.768 179.324 977.036 178.82 979.61C178.316 982.202 177.434 984.668 175.418 984.668ZM190.982 976.388C190.982 974.444 189.632 973.31 187.652 973.31C185.06 973.31 183.368 975.236 182.9 977.63L184.376 977.864C184.736 976.226 185.654 974.804 187.526 974.804C188.732 974.804 189.452 975.416 189.452 976.568C189.452 979.898 184.376 982.904 181.298 984.614L181.046 986H189.758L190.046 984.542H183.89C187.094 982.832 190.982 979.79 190.982 976.388ZM198.195 973.454L198.051 974.318C197.907 975.056 197.367 975.434 196.611 975.434H194.703L194.433 976.748H197.493L195.711 986H197.259L199.689 973.454H198.195ZM209.712 986.162C211.674 986.162 213.258 985.01 213.258 983.174C213.258 980.474 209.064 981.014 209.064 979.466C209.064 978.692 209.874 978.278 210.828 978.278C211.836 978.278 212.412 978.71 212.736 979.466L214.032 978.89C213.528 977.684 212.466 976.964 210.9 976.964C208.992 976.964 207.534 978.044 207.534 979.628C207.534 982.184 211.746 981.68 211.746 983.336C211.746 984.308 210.864 984.812 209.73 984.812C208.38 984.812 207.75 984.074 207.57 983.264L206.184 983.732C206.454 985.082 207.786 986.162 209.712 986.162ZM218.111 978.296H220.271L220.487 977.126H218.327L219.011 973.616L217.229 974.786L216.779 977.126H215.321L215.087 978.296H216.545L215.501 983.732C215.465 983.912 215.429 984.164 215.429 984.416C215.429 985.604 216.257 986.162 217.391 986.162C217.823 986.162 218.327 986.072 218.831 985.91L218.993 984.65C218.579 984.776 218.183 984.866 217.859 984.866C217.301 984.866 216.995 984.668 216.995 984.146C216.995 984.038 217.013 983.876 217.049 983.732L218.111 978.296ZM228.451 977.126L228.217 978.314C227.731 977.504 226.723 976.964 225.535 976.964C222.691 976.964 220.693 979.79 220.693 982.67C220.693 984.74 221.827 986.162 223.969 986.162C225.067 986.162 226.201 985.748 226.957 984.866L226.741 986H228.289L230.017 977.126H228.451ZM227.821 980.942C227.659 982.958 226.273 984.722 224.311 984.722C222.961 984.722 222.223 983.894 222.223 982.526C222.223 980.51 223.609 978.386 225.715 978.386C227.209 978.386 227.947 979.412 227.821 980.942ZM234.346 978.296H236.506L236.722 977.126H234.562L235.246 973.616L233.464 974.786L233.014 977.126H231.556L231.322 978.296H232.78L231.736 983.732C231.7 983.912 231.664 984.164 231.664 984.416C231.664 985.604 232.492 986.162 233.626 986.162C234.058 986.162 234.562 986.072 235.066 985.91L235.228 984.65C234.814 984.776 234.418 984.866 234.094 984.866C233.536 984.866 233.23 984.668 233.23 984.146C233.23 984.038 233.248 983.876 233.284 983.732L234.346 978.296ZM239.014 975.344H240.634L240.994 973.454H239.374L239.014 975.344ZM236.98 986H238.528L240.256 977.126H238.708L236.98 986ZM244.28 986.162C246.242 986.162 247.826 985.01 247.826 983.174C247.826 980.474 243.632 981.014 243.632 979.466C243.632 978.692 244.442 978.278 245.396 978.278C246.404 978.278 246.98 978.71 247.304 979.466L248.6 978.89C248.096 977.684 247.034 976.964 245.468 976.964C243.56 976.964 242.102 978.044 242.102 979.628C242.102 982.184 246.314 981.68 246.314 983.336C246.314 984.308 245.432 984.812 244.298 984.812C242.948 984.812 242.318 984.074 242.138 983.264L240.752 983.732C241.022 985.082 242.354 986.162 244.28 986.162ZM252.679 978.296H254.839L255.055 977.126H252.895L253.579 973.616L251.797 974.786L251.347 977.126H249.889L249.655 978.296H251.113L250.069 983.732C250.033 983.912 249.997 984.164 249.997 984.416C249.997 985.604 250.825 986.162 251.959 986.162C252.391 986.162 252.895 986.072 253.399 985.91L253.561 984.65C253.147 984.776 252.751 984.866 252.427 984.866C251.869 984.866 251.563 984.668 251.563 984.146C251.563 984.038 251.581 983.876 251.617 983.732L252.679 978.296ZM257.347 975.344H258.967L259.327 973.454H257.707L257.347 975.344ZM255.313 986H256.861L258.589 977.126H257.041L255.313 986ZM263.063 986.162C264.701 986.162 266.177 985.28 267.059 983.696L265.745 983.048C265.223 984.11 264.251 984.794 263.171 984.794C261.785 984.794 261.227 983.84 261.227 982.652C261.227 980.546 262.559 978.332 264.575 978.332C265.547 978.332 266.249 978.944 266.375 980.006L267.923 979.52C267.581 977.864 266.393 976.964 264.683 976.964C261.803 976.964 259.679 979.664 259.679 982.616C259.679 984.596 260.777 986.162 263.063 986.162ZM271.442 986.162C273.404 986.162 274.988 985.01 274.988 983.174C274.988 980.474 270.794 981.014 270.794 979.466C270.794 978.692 271.604 978.278 272.558 978.278C273.566 978.278 274.142 978.71 274.466 979.466L275.762 978.89C275.258 977.684 274.196 976.964 272.63 976.964C270.722 976.964 269.264 978.044 269.264 979.628C269.264 982.184 273.476 981.68 273.476 983.336C273.476 984.308 272.594 984.812 271.46 984.812C270.11 984.812 269.48 984.074 269.3 983.264L267.914 983.732C268.184 985.082 269.516 986.162 271.442 986.162Z" fill="#482C16"/>
</g>
<defs>
<linearGradient id="paint0_linear_38_4979" x1="269.277" y1="327.816" x2="274.98" y2="335.548" gradientUnits="userSpaceOnUse">
<stop stop-color="#D9D9D9"/>
<stop offset="0.932352" stop-color="#B9AEAE"/>
</linearGradient>
<linearGradient id="paint1_linear_38_4979" x1="271.342" y1="326.351" x2="281.447" y2="332.404" gradientUnits="userSpaceOnUse">
<stop stop-color="#D9D9D9"/>
<stop offset="0.932352" stop-color="#B9AEAE"/>
</linearGradient>
<linearGradient id="paint2_linear_38_4979" x1="271.789" y1="325.106" x2="280.393" y2="326.889" gradientUnits="userSpaceOnUse">
<stop stop-color="#D9D9D9"/>
<stop offset="0.932352" stop-color="#B9AEAE"/>
</linearGradient>
<linearGradient id="paint3_linear_38_4979" x1="52.4325" y1="160.58" x2="191.937" y2="251.331" gradientUnits="userSpaceOnUse">
<stop stop-color="#BC6767"/>
<stop offset="1" stop-color="#924545"/>
<stop offset="1" stop-color="#893737"/>
</linearGradient>
<linearGradient id="paint4_linear_38_4979" x1="103.535" y1="272.477" x2="146.415" y2="235.472" gradientUnits="userSpaceOnUse">
<stop stop-color="#942535"/>
<stop offset="1" stop-color="#4F0B15"/>
</linearGradient>
<linearGradient id="paint5_linear_38_4979" x1="112.27" y1="225.657" x2="112.346" y2="243.695" gradientUnits="userSpaceOnUse">
<stop stop-color="#DC8947"/>
<stop offset="1" stop-color="#F4AB70"/>
</linearGradient>
<linearGradient id="paint6_linear_38_4979" x1="315.6" y1="157.141" x2="348.475" y2="252.212" gradientUnits="userSpaceOnUse">
<stop stop-color="#E99999"/>
<stop offset="1" stop-color="#F7C8C8" stop-opacity="0.75"/>
</linearGradient>
<linearGradient id="paint7_linear_38_4979" x1="140.834" y1="231.36" x2="128.181" y2="278.331" gradientUnits="userSpaceOnUse">
<stop stop-color="#EA9E61"/>
<stop offset="1" stop-color="#D57F3A" stop-opacity="0.93"/>
</linearGradient>
<linearGradient id="paint8_linear_38_4979" x1="207.651" y1="266.598" x2="207.651" y2="297.742" gradientUnits="userSpaceOnUse">
<stop offset="0.136478" stop-color="#E9A7A7"/>
<stop offset="0.945611" stop-color="#DD8E8E"/>
</linearGradient>
<linearGradient id="paint9_linear_38_4979" x1="200.454" y1="243.108" x2="203.391" y2="256.324" gradientUnits="userSpaceOnUse">
<stop stop-color="#B15F5F"/>
<stop offset="1" stop-color="#B75858" stop-opacity="0"/>
</linearGradient>
<linearGradient id="paint10_linear_38_4979" x1="258.32" y1="335.446" x2="265.767" y2="341.975" gradientUnits="userSpaceOnUse">
<stop stop-color="#D9D9D9"/>
<stop offset="0.932352" stop-color="#B9AEAE"/>
</linearGradient>
<linearGradient id="paint11_linear_38_4979" x1="257.605" y1="333.864" x2="269.046" y2="335.774" gradientUnits="userSpaceOnUse">
<stop stop-color="#D9D9D9"/>
<stop offset="0.932352" stop-color="#B9AEAE"/>
</linearGradient>
<linearGradient id="paint12_linear_38_4979" x1="259.054" y1="331.92" x2="267.581" y2="332.916" gradientUnits="userSpaceOnUse">
<stop stop-color="#D9D9D9"/>
<stop offset="0.932352" stop-color="#B9AEAE"/>
</linearGradient>
<clipPath id="clip0_38_4979">
<rect width="428" height="1129" fill="white"/>
</clipPath>
</defs>
</svg>
