<svg width="428" height="1129" viewBox="0 0 428 1129" fill="none" xmlns="http://www.w3.org/2000/svg">
<g clip-path="url(#clip0_38_4694)">
<rect width="428" height="1129" fill="url(#paint0_linear_38_4694)"/>
<g filter="url(#filter0_f_38_4694)">
<path d="M69.8952 725.033C73.041 706.982 69.8952 694.006 87.1172 684.31C104.339 674.613 118.87 684.31 118.87 684.31C118.87 684.31 133.898 694.838 139.86 704.348C151.217 695.055 156.005 704.348 178.071 704.348C200.137 704.348 214.13 725.033 214.13 725.033C214.13 725.033 216.282 717.276 243.73 725.033C271.178 732.79 256.647 740.547 256.647 740.547C270.44 734.682 288.689 744.51 318 758H15L38.1421 740.547C38.1421 740.547 28.4547 735.376 38.1421 725.033C47.8295 714.69 60.576 717.642 69.8952 725.033Z" fill="white" fill-opacity="0.9"/>
<path d="M69.8952 725.033C73.041 706.982 69.8952 694.006 87.1172 684.31C104.339 674.613 118.87 684.31 118.87 684.31C118.87 684.31 133.898 694.838 139.86 704.348C151.217 695.055 156.005 704.348 178.071 704.348C200.137 704.348 214.13 725.033 214.13 725.033C214.13 725.033 216.282 717.276 243.73 725.033C271.178 732.79 256.647 740.547 256.647 740.547C270.44 734.682 288.689 744.51 318 758H15L38.1421 740.547C38.1421 740.547 28.4547 735.376 38.1421 725.033C47.8295 714.69 60.576 717.642 69.8952 725.033Z" stroke="white" stroke-width="3"/>
</g>
<path d="M437.391 989.457C453.11 988.145 461.79 987.24 471.987 978.86C486.225 984.398 491.406 981.887 498.599 973.31V834.799C496.779 820.804 492.655 816.011 479.379 813.353C459.317 810.133 448.168 808.77 432.069 823.445C420.927 814.176 413.263 810.274 388.602 813.353C373.838 809.085 373.993 804.086 353.71 819.157C354.148 815.23 344.789 814.294 340.7 813.353C324.374 813.121 329.63 812.94 329.464 823.445C314.541 825.631 310.266 828.036 319.115 834.799C319.469 839.77 320.151 841.027 329.464 842.873L329.163 842.887C316.883 843.487 303.073 844.161 306.695 855.235C298.47 859.241 309.357 863.057 312.905 864.823C298.914 868.735 303.245 870.891 309.652 876.428C303.497 881.284 316.441 886.04 338.039 891.566C315.976 892.358 301.814 891.299 306.695 896.359C297.482 902.073 283.579 904.523 294.276 910.236C276.263 910.521 262.592 914.398 264.116 925.626C263.421 931.445 290.605 942.164 340.7 940.511L340.552 940.691C333.928 948.743 330.169 953.313 346.022 958.172C344.079 965.514 346.378 967.546 358.441 966.246C351.903 973.19 356.349 975.713 372.339 978.86C394.049 986.269 403.85 992.521 437.391 989.457Z" fill="#2C8C4A"/>
<path d="M358.559 994.224C370.115 994.671 376.188 995.284 377.37 1005.04C391.507 1004.38 392.077 1005.44 386.37 1008.62C398.618 1011.26 400.099 1014.7 397.205 1022.86C404.607 1031.48 399.769 1032.93 385.7 1033.46C375.503 1040.12 369.888 1043.51 363.459 1037.41C353.529 1039.14 349.502 1037.31 343.281 1032.32C347.304 1039.38 340.621 1040.17 325.176 1040.32C299.615 1038.57 282.631 1037.95 294.197 1031C276.278 1024.88 270.6 1021.41 283.411 1014.94C285.424 1006.95 287.206 1002.91 301.319 1002.99C314.511 1000.09 317.722 1002.12 322.136 1006.89C325.44 1000.26 325.673 995.075 339.062 997.64C345.663 990.915 350.139 991.269 358.559 994.224Z" fill="#2C8C4A"/>
<path d="M472.676 959.353C504.995 958.222 514.699 956.347 502.59 948.663C505.326 943.378 509.874 942.024 496.499 943.616C508.629 941.05 509.304 939.307 500.011 928.266C494.212 922.571 490.911 923.963 484.982 930.166C485.701 925.365 483.368 925.368 477.015 927.538C483.734 923.147 485.362 920.68 471.586 916.227C463.914 914.003 460.986 918.138 455.582 924.795C461.357 914.668 463.383 909.262 451.032 903.193C446.359 895.734 443.584 891.771 428.077 899.915C423.542 890.121 420.797 886.741 414.78 892.507C410.174 884.903 406.25 884.806 393.498 902.469C391.456 896.028 387.52 896.492 375.249 904.777C369.26 900.769 365.403 901.065 356.513 911.872C342.56 903.512 333.696 896.661 329.083 907.706C314.137 911.283 307.23 913.539 312.906 920.658L312.612 920.897C304.653 927.377 300.098 931.084 324.242 932.676C317.541 936.73 322.634 941.54 347.049 937.211C335.223 945.941 347.959 954.185 356.513 954.185C342.272 959.556 350.08 962.065 361.598 965.4C363.72 968.127 346.391 972.977 375.249 972.977C369.144 979.686 379.45 975.048 390.307 975.581C402.043 980.606 400.677 983.591 419.793 977.827C407.532 985.24 448.307 988.132 455.582 977.827C494.659 975.581 522.043 969.265 501.626 963.287C505.274 960.889 484.027 961.426 472.676 959.353Z" fill="#016751"/>
<path d="M426.765 968.43C423.43 977.22 446.614 994.648 456.165 1013.29C458.145 1017.15 457.325 1021.55 459.802 1025.11C462.334 1028.75 460.646 1026.2 464.046 1029.05C470.903 1034.8 484.354 1039.66 484.354 1039.66V1073C484.354 1073 472.983 1061.22 464.046 1056.03C458.548 1052.83 455.371 1050.86 449.194 1049.36C441.144 1047.4 436.233 1050.06 427.977 1049.36C417.152 1048.43 416.895 1050.25 406.457 1047.24C398.11 1044.83 394.148 1040.85 385.543 1039.66C379.915 1038.88 370.864 1037.1 365.235 1036.32C354.979 1034.92 350.951 1027.66 340.684 1026.32C334.697 1025.54 338.841 1025.07 332.804 1025.11C330.2 1025.13 321.151 1026.38 318.558 1026.63C314.556 1027 308.556 1029.05 308.556 1029.05L302.797 1026.63L310.374 1026.32L317.649 1022.69L304.918 1014.5L308.556 1010.86C308.556 1010.86 312.275 1014.39 314.921 1016.32C319.585 1019.72 323.711 1023.29 327.954 1023.29C332.197 1023.29 333.57 1019.75 335.835 1016.32L339.169 1010.86L341.897 1016.32L339.169 1020.87C339.169 1022.69 352.527 1026.89 361.598 1029.05C369.268 1030.88 380.087 1034.51 381.603 1031.78C383.118 1029.05 365.235 1017.84 365.235 1017.84C365.235 1017.84 368.487 1016.14 370.691 1016.32C373.832 1016.58 374.86 1018.95 377.359 1020.87C383.067 1025.25 384.262 1030.13 390.393 1033.9C398.681 1039 404.919 1040.12 414.641 1039.66C422.761 1039.28 428.816 1039.57 434.645 1033.9C438.066 1030.57 439.845 1027.98 440.707 1023.29C441.999 1016.26 445.403 1017.41 442.526 1010.86C435.537 994.964 417.368 979.948 417.368 974.189C417.368 968.43 415.486 962.098 414.641 956.913C413.764 951.538 410.397 949.638 405.244 946.607C400.092 943.576 379.784 939.03 379.784 939.03C379.784 939.03 386.258 938.762 390.393 939.03C399.196 939.6 410.397 945.395 412.519 943.576C414.641 941.758 402.82 929.937 402.82 929.937C402.82 929.937 401.978 927.788 397.061 926.906C382.963 924.376 367.792 929.56 353.717 926.906C346.664 925.576 342.785 924.206 336.088 921.842L335.835 921.753C328.931 919.316 318.558 914.479 318.558 914.479L332.197 912.357C332.197 912.357 338.338 917.493 342.806 919.935C360.672 929.696 394.939 919.935 394.939 919.935C394.939 919.935 383.774 916.196 377.359 912.357C370.57 908.294 361.598 899.627 361.598 899.627L360.083 892.656L366.751 896.899C366.751 896.899 372.997 902.366 377.359 905.386C388.683 913.226 407.972 924.178 409.488 919.935C411.003 915.691 412.519 902.355 412.519 902.355L416.762 905.386C416.762 905.386 411.922 918.361 412.519 926.906C413.338 938.633 425.249 954.185 425.249 954.185C441.433 945.933 445.607 941.416 452.954 933.466L453.134 933.271C453.134 933.271 453.74 938.424 453.134 941.758C452.528 945.092 430.099 959.641 426.765 968.43Z" fill="#5B0F3E"/>
<path d="M481.38 941.12C502.249 937.748 507.991 935.805 498.203 932.138C504.5 927.973 504.996 925.843 494.083 922.81C497.05 918.93 496.665 917.535 488.247 917.974C484.433 914.765 482.335 916.429 478.633 922.81L478.656 922.705C480.54 914.002 481.604 909.09 460.092 908.646C455.282 904.747 452.715 903.873 448.762 908.646C444.077 910.674 443.764 912.842 446.015 917.974C439.417 914.044 437.404 916.095 434.342 921.083C426.694 929.282 429.9 930.081 439.835 929.374C424.559 938.018 429.062 939.287 448.762 938.356C441.657 941.9 438.031 943.863 464.899 945.265C473.078 948.176 477.922 950.478 481.38 941.12Z" fill="#6CB236"/>
<path d="M109.848 114.84C117.8 114.84 123.96 109.632 123.96 101.904C123.96 96.36 121.272 93.56 112.872 90.312C107.272 88.128 105.76 86.784 105.76 84.88C105.76 83.032 107.44 81.744 109.456 81.744C111.696 81.744 113.6 83.2 114.776 86.056L122.056 81.52C119.536 76.48 115.168 73.96 109.736 73.96C102.064 73.96 96.968 78.552 96.968 85.048C96.968 91.04 99.992 94.12 108.336 97.48C113.432 99.552 115.224 100.896 115.224 102.688C115.224 105.656 112.872 107.056 110.016 107.056C106.096 107.056 103.296 104.928 102.904 100.336L94.168 102.52C95.344 109.968 101.728 114.84 109.848 114.84ZM145.012 92.944V86.392H137.956V74.968L129.556 81.184V86.392H125.132V92.944H129.556V105.208C129.556 112.264 134.204 114.616 139.412 114.616C141.372 114.616 143.164 114.336 144.956 113.72L145.012 107.168C143.78 107.56 142.548 107.784 141.428 107.784C137.956 107.784 137.956 105.488 137.956 104.424V92.944H145.012ZM161.528 85.776C156.712 85.776 151.616 87.344 148.144 90.984L154.248 96.08C156.712 93.728 158.84 93.112 160.912 93.112C163.992 93.112 165.672 94.512 165.672 96.472V96.92H158.056C155.592 96.92 153.408 97.368 151.672 98.32C149.32 99.608 147.864 101.904 147.864 105.096C147.864 110.752 152.344 114.616 158.56 114.616C160.576 114.616 163.544 114.224 165.784 111.256L166.344 114H174.072V96.472C174.072 89.92 169.368 85.776 161.528 85.776ZM159.904 107.84C157.496 107.84 156.32 106.664 156.32 105.264C156.32 104.592 156.6 104.032 157.16 103.64C157.664 103.304 158.392 103.136 159.288 103.136H165.672C165.504 105.88 162.928 107.84 159.904 107.84ZM196.452 92.944V86.392H189.396V74.968L180.996 81.184V86.392H176.572V92.944H180.996V105.208C180.996 112.264 185.644 114.616 190.852 114.616C192.812 114.616 194.604 114.336 196.396 113.72L196.452 107.168C195.22 107.56 193.988 107.784 192.868 107.784C189.396 107.784 189.396 105.488 189.396 104.424V92.944H196.452ZM201.492 82.584H210.116V74.968H201.492V82.584ZM201.548 114H210.004V86.392H201.548V114ZM225.563 114.616C230.715 114.616 236.819 111.816 236.819 104.872C236.819 94.456 223.267 97.2 223.267 93.56C223.267 92.664 224.051 91.992 225.619 91.992C228.363 91.992 229.483 94.232 230.155 95.464L236.651 91.88C234.467 88.24 230.827 85.776 225.731 85.776C220.747 85.776 215.315 88.184 215.315 94.4C215.315 104.144 228.531 102.24 228.531 106.048C228.531 106.888 227.859 107.896 225.507 107.896C221.755 107.896 221.027 105.152 220.467 103.64L213.803 106.608C215.091 110.64 219.459 114.616 225.563 114.616ZM257.918 92.944V86.392H250.862V74.968L242.462 81.184V86.392H238.038V92.944H242.462V105.208C242.462 112.264 247.11 114.616 252.318 114.616C254.278 114.616 256.07 114.336 257.862 113.72L257.918 107.168C256.686 107.56 255.454 107.784 254.334 107.784C250.862 107.784 250.862 105.488 250.862 104.424V92.944H257.918ZM262.958 82.584H271.582V74.968H262.958V82.584ZM263.014 114H271.47V86.392H263.014V114ZM289.605 114.616C295.373 114.616 299.741 111.368 301.589 106.16L293.973 103.192C293.469 105.656 291.677 107.28 289.493 107.28C285.517 107.28 284.341 103.808 284.341 100.28C284.341 96.696 285.629 93.112 289.549 93.112C291.789 93.112 293.525 94.792 293.917 97.368L301.869 94.176C299.797 88.52 295.373 85.776 289.549 85.776C280.141 85.776 275.661 93 275.661 100.28C275.661 107.336 279.973 114.616 289.605 114.616ZM314.445 114.616C319.597 114.616 325.701 111.816 325.701 104.872C325.701 94.456 312.149 97.2 312.149 93.56C312.149 92.664 312.933 91.992 314.501 91.992C317.245 91.992 318.365 94.232 319.037 95.464L325.533 91.88C323.349 88.24 319.709 85.776 314.613 85.776C309.629 85.776 304.197 88.184 304.197 94.4C304.197 104.144 317.413 102.24 317.413 106.048C317.413 106.888 316.741 107.896 314.389 107.896C310.637 107.896 309.909 105.152 309.349 103.64L302.685 106.608C303.973 110.64 308.341 114.616 314.445 114.616Z" fill="#002F4D"/>
</g>
<defs>
<filter id="filter0_f_38_4694" x="6.52002" y="674.5" width="316.107" height="88.9998" filterUnits="userSpaceOnUse" color-interpolation-filters="sRGB">
<feFlood flood-opacity="0" result="BackgroundImageFix"/>
<feBlend mode="normal" in="SourceGraphic" in2="BackgroundImageFix" result="shape"/>
<feGaussianBlur stdDeviation="2" result="effect1_foregroundBlur_38_4694"/>
</filter>
<linearGradient id="paint0_linear_38_4694" x1="214" y1="0" x2="214" y2="1129" gradientUnits="userSpaceOnUse">
<stop stop-color="#A4DCF1"/>
<stop offset="1" stop-color="#F1B695"/>
</linearGradient>
<clipPath id="clip0_38_4694">
<rect width="428" height="1129" fill="white"/>
</clipPath>
</defs>
</svg>
