<svg width="583" height="253" viewBox="0 0 583 253" fill="none" xmlns="http://www.w3.org/2000/svg">
<path d="M505.388 96.935C534.877 104.306 545.961 103.976 557.609 129.282C562.695 147.035 563.79 170.192 566.194 200.073L536.233 202.557L448.304 210.032C441.131 200.468 438.4 180.643 439.244 168.043C445.2 143.739 455.681 143.227 442.401 120.874C438.737 115.85 428.154 70.2441 437.666 65.962L459.494 59.7081C455.228 73.5928 473.087 86.4441 505.388 96.935Z" fill="url(#paint0_linear_1858_267)" fill-opacity="0.8"/>
<mask id="mask0_1858_267" style="mask-type:alpha" maskUnits="userSpaceOnUse" x="433" y="59" width="134" height="152">
<path d="M505.388 96.935C534.877 104.306 545.961 103.976 557.609 129.282C562.695 147.035 563.79 170.192 566.194 200.073L536.233 202.557L448.304 210.032C441.131 200.468 438.4 180.643 439.244 168.043C445.2 143.739 455.681 143.227 442.401 120.874C438.737 115.85 428.154 70.2441 437.666 65.962L459.494 59.7081C455.228 73.5928 473.086 86.4441 505.388 96.935Z" fill="url(#paint1_linear_1858_267)" fill-opacity="0.7"/>
</mask>
<g mask="url(#mask0_1858_267)">
<g filter="url(#filter0_f_1858_267)">
<path d="M553.652 167.52L556.812 217.014" stroke="white" stroke-opacity="0.53" stroke-width="0.758005"/>
<path d="M449.683 82.0774C449.893 82.8911 449.467 83.6637 448.827 83.8606C448.188 84.0576 447.454 83.642 447.244 82.8283C447.034 82.0146 447.461 81.242 448.1 81.0451C448.74 80.8482 449.473 81.2638 449.683 82.0774Z" stroke="white" stroke-opacity="0.53" stroke-width="0.758005"/>
<path d="M502.514 115.994C503.212 116.354 503.507 117.191 503.213 117.85C502.92 118.508 502.128 118.784 501.43 118.423C500.733 118.063 500.438 117.226 500.731 116.567C501.025 115.909 501.817 115.633 502.514 115.994Z" stroke="white" stroke-opacity="0.53" stroke-width="0.758005"/>
<path d="M514.967 122.707C515.665 123.068 515.96 123.905 515.666 124.563C515.373 125.222 514.581 125.497 513.883 125.137C513.186 124.776 512.891 123.939 513.184 123.281C513.478 122.622 514.27 122.347 514.967 122.707Z" stroke="white" stroke-opacity="0.53" stroke-width="0.758005"/>
<path d="M528.871 127.987C529.569 128.347 529.864 129.184 529.57 129.842C529.277 130.501 528.485 130.776 527.787 130.416C527.09 130.055 526.795 129.218 527.088 128.56C527.382 127.902 528.174 127.626 528.871 127.987Z" stroke="white" stroke-opacity="0.53" stroke-width="0.758005"/>
<path d="M539.404 129.746C540.102 130.107 540.397 130.944 540.103 131.602C539.81 132.261 539.018 132.536 538.32 132.176C537.623 131.815 537.328 130.978 537.621 130.32C537.915 129.661 538.707 129.386 539.404 129.746Z" stroke="white" stroke-opacity="0.53" stroke-width="0.758005"/>
<path d="M546.276 148.455C546.628 149.207 546.354 150.052 545.758 150.375C545.161 150.697 544.367 150.431 544.015 149.678C543.662 148.925 543.937 148.081 544.533 147.758C545.13 147.435 545.924 147.702 546.276 148.455Z" stroke="white" stroke-opacity="0.53" stroke-width="0.758005"/>
<path d="M552.175 193.329C552.527 194.082 552.253 194.926 551.656 195.249C551.059 195.572 550.265 195.305 549.913 194.552C549.561 193.8 549.835 192.955 550.432 192.633C551.028 192.31 551.822 192.577 552.175 193.329Z" stroke="white" stroke-opacity="0.53" stroke-width="0.758005"/>
<path d="M554.841 166.263C554.799 167.107 554.162 167.701 553.499 167.681C552.835 167.661 552.26 167.03 552.302 166.186C552.345 165.341 552.982 164.747 553.645 164.767C554.309 164.787 554.884 165.418 554.841 166.263Z" stroke="white" stroke-opacity="0.53" stroke-width="0.758005"/>
<path d="M482.525 113.028C483.223 113.389 483.518 114.226 483.224 114.884C482.93 115.543 482.139 115.818 481.441 115.458C480.743 115.097 480.448 114.26 480.742 113.602C481.036 112.943 481.827 112.668 482.525 113.028Z" stroke="white" stroke-opacity="0.53" stroke-width="0.758005"/>
<path d="M510.677 159.161C517.526 159.978 521.395 164.211 528.373 180.499L525.845 187.098L530.058 221.414" stroke="white" stroke-opacity="0.53" stroke-width="0.758005"/>
<path d="M466.936 113.468C467.634 113.829 467.929 114.666 467.635 115.324C467.341 115.983 466.55 116.258 465.852 115.898C465.154 115.537 464.859 114.7 465.153 114.042C465.447 113.383 466.238 113.108 466.936 113.468Z" stroke="white" stroke-opacity="0.53" stroke-width="0.758005"/>
<path d="M447.7 98.3261C447.721 99.1714 447.131 99.816 446.468 99.8503C445.805 99.8845 445.184 99.3025 445.163 98.4572C445.142 97.612 445.732 96.9673 446.395 96.9331C447.058 96.8988 447.679 97.4809 447.7 98.3261Z" stroke="white" stroke-opacity="0.53" stroke-width="0.758005"/>
<path d="M445.963 116.045C446.179 116.857 445.757 117.633 445.119 117.834C444.48 118.036 443.745 117.626 443.529 116.814C443.314 116.002 443.735 115.226 444.374 115.024C445.012 114.823 445.748 115.233 445.963 116.045Z" stroke="white" stroke-opacity="0.53" stroke-width="0.758005"/>
<path d="M453.902 162.147C454.118 162.959 453.696 163.735 453.058 163.936C452.42 164.138 451.684 163.727 451.468 162.915C451.253 162.103 451.674 161.327 452.313 161.126C452.951 160.924 453.687 161.335 453.902 162.147Z" stroke="white" stroke-opacity="0.53" stroke-width="0.758005"/>
<path d="M453.376 163.781L458.642 170.16C450.877 179.139 451.058 192.157 457.589 215.254" stroke="white" stroke-opacity="0.53" stroke-width="0.758005"/>
<path d="M539.962 157.566C540.35 158.297 540.119 159.156 539.538 159.511C538.956 159.866 538.15 159.641 537.763 158.909C537.375 158.178 537.606 157.319 538.187 156.964C538.769 156.609 539.575 156.835 539.962 157.566Z" stroke="white" stroke-opacity="0.53" stroke-width="0.758005"/>
<path d="M510.511 156.791C511.149 157.265 511.31 158.141 510.923 158.738C510.536 159.335 509.714 159.482 509.075 159.007C508.436 158.533 508.276 157.657 508.663 157.06C509.049 156.463 509.872 156.317 510.511 156.791Z" stroke="white" stroke-opacity="0.53" stroke-width="0.758005"/>
<path d="M529.853 167.786C530.24 168.517 530.009 169.376 529.428 169.731C528.846 170.086 528.041 169.861 527.653 169.129C527.265 168.398 527.496 167.54 528.078 167.184C528.659 166.829 529.465 167.055 529.853 167.786Z" stroke="white" stroke-opacity="0.53" stroke-width="0.758005"/>
<path d="M545.02 158.107C545.408 158.839 545.177 159.697 544.596 160.052C544.014 160.407 543.208 160.182 542.821 159.451C542.433 158.719 542.664 157.861 543.245 157.506C543.827 157.151 544.633 157.376 545.02 158.107Z" stroke="white" stroke-opacity="0.53" stroke-width="0.758005"/>
<path d="M545.02 158.107C545.408 158.839 545.177 159.697 544.596 160.052C544.014 160.407 543.208 160.182 542.821 159.451C542.433 158.719 542.664 157.861 543.245 157.506C543.827 157.151 544.633 157.376 545.02 158.107Z" stroke="white" stroke-opacity="0.53" stroke-width="0.758005"/>
<path d="M449.163 83.9307L460.328 98.8888L463.067 107.468L472.336 111.427L479.709 108.788C487.523 112.512 492.043 114.369 500.565 116.927" stroke="white" stroke-opacity="0.53" stroke-width="0.758005"/>
<path d="M483.29 114.947C492.28 119.748 497.468 120.843 506.674 123.306L514.258 119.786C521.777 121.387 525.94 122.516 532.796 127.045L534.271 133.425C540.596 137.123 542.437 140.487 544.383 147.503" stroke="white" stroke-opacity="0.53" stroke-width="0.758005"/>
<path d="M515.943 124.406C520.177 124.814 522.394 126.123 526.898 128.585" stroke="white" stroke-opacity="0.53" stroke-width="0.758005"/>
<path d="M531.384 187.976C531.573 188.796 531.126 189.555 530.482 189.734C529.838 189.912 529.116 189.476 528.927 188.656C528.738 187.836 529.185 187.076 529.829 186.898C530.473 186.72 531.196 187.156 531.384 187.976Z" stroke="white" stroke-opacity="0.53" stroke-width="0.758005"/>
<path d="M533.393 203.06C533.504 203.897 532.988 204.607 532.332 204.719C531.676 204.831 530.997 204.325 530.885 203.488C530.773 202.651 531.29 201.941 531.946 201.829C532.602 201.717 533.281 202.224 533.393 203.06Z" stroke="white" stroke-opacity="0.53" stroke-width="0.758005"/>
<path d="M530.454 189.738C530.836 194.278 531.141 196.737 531.924 201.819" stroke="white" stroke-opacity="0.53" stroke-width="0.758005"/>
<path d="M539.538 131.885C546.814 137.774 548.428 142.53 550.914 151.242L548.386 164.001C550.071 176.319 550.914 186.878 550.914 192.597" stroke="white" stroke-opacity="0.53" stroke-width="0.758005"/>
<path d="M448.419 196.023C448.629 196.837 448.203 197.61 447.563 197.806C446.924 198.003 446.191 197.588 445.98 196.774C445.77 195.96 446.197 195.188 446.836 194.991C447.476 194.794 448.209 195.21 448.419 196.023Z" stroke="white" stroke-opacity="0.53" stroke-width="0.758005"/>
<path d="M449.262 202.182C449.472 202.996 449.046 203.769 448.406 203.966C447.766 204.163 447.033 203.747 446.823 202.933C446.613 202.12 447.04 201.347 447.679 201.15C448.319 200.953 449.052 201.369 449.262 202.182Z" stroke="white" stroke-opacity="0.53" stroke-width="0.758005"/>
<path d="M449.262 202.182C449.472 202.996 449.046 203.769 448.406 203.966C447.766 204.163 447.033 203.747 446.823 202.933C446.613 202.12 447.04 201.347 447.679 201.15C448.319 200.953 449.052 201.369 449.262 202.182Z" stroke="white" stroke-opacity="0.53" stroke-width="0.758005"/>
<path d="M447.925 171.021C447.558 171.766 446.747 172.043 446.142 171.737C445.538 171.432 445.266 170.608 445.632 169.863C445.998 169.118 446.81 168.841 447.415 169.147C448.019 169.452 448.291 170.275 447.925 171.021Z" stroke="white" stroke-opacity="0.53" stroke-width="0.758005"/>
<path d="M456.601 142.337C459.548 149.273 449.818 153.815 447.056 164.001L452.323 170.16C445.313 181.303 445.401 187.163 447.056 195.017" stroke="white" stroke-opacity="0.53" stroke-width="0.758005"/>
<path d="M446.635 99.7687C448.109 112.967 448.684 121.97 466.437 134.271C478.866 142.883 488.189 146.495 509.413 151.462C521.631 154.322 525.634 159.601 528.162 167.3" stroke="white" stroke-opacity="0.53" stroke-width="0.758005"/>
</g>
<path d="M553.652 167.52L556.812 217.014" stroke="white" stroke-opacity="0.35" stroke-width="0.758005"/>
<path d="M449.683 82.0774C449.893 82.8911 449.467 83.6637 448.827 83.8606C448.188 84.0576 447.454 83.642 447.244 82.8283C447.034 82.0146 447.461 81.242 448.1 81.0451C448.74 80.8482 449.473 81.2638 449.683 82.0774Z" stroke="white" stroke-opacity="0.35" stroke-width="0.758005"/>
<path d="M502.514 115.994C503.212 116.354 503.507 117.191 503.213 117.85C502.92 118.508 502.128 118.784 501.43 118.423C500.733 118.063 500.438 117.226 500.731 116.567C501.025 115.909 501.817 115.633 502.514 115.994Z" stroke="white" stroke-opacity="0.35" stroke-width="0.758005"/>
<path d="M514.967 122.707C515.665 123.068 515.96 123.905 515.666 124.563C515.373 125.221 514.581 125.497 513.883 125.137C513.186 124.776 512.891 123.939 513.184 123.281C513.478 122.622 514.27 122.347 514.967 122.707Z" stroke="white" stroke-opacity="0.35" stroke-width="0.758005"/>
<path d="M528.871 127.987C529.569 128.347 529.864 129.184 529.57 129.842C529.277 130.501 528.485 130.776 527.787 130.416C527.09 130.055 526.795 129.218 527.088 128.56C527.382 127.902 528.174 127.626 528.871 127.987Z" stroke="white" stroke-opacity="0.35" stroke-width="0.758005"/>
<path d="M539.404 129.746C540.102 130.107 540.397 130.944 540.103 131.602C539.81 132.261 539.018 132.536 538.32 132.176C537.623 131.815 537.328 130.978 537.621 130.32C537.915 129.661 538.707 129.386 539.404 129.746Z" stroke="white" stroke-opacity="0.35" stroke-width="0.758005"/>
<path d="M546.276 148.455C546.628 149.207 546.354 150.052 545.758 150.375C545.161 150.697 544.367 150.431 544.015 149.678C543.662 148.925 543.937 148.081 544.533 147.758C545.13 147.435 545.924 147.702 546.276 148.455Z" stroke="white" stroke-opacity="0.35" stroke-width="0.758005"/>
<path d="M552.175 193.329C552.527 194.082 552.253 194.926 551.656 195.249C551.059 195.572 550.265 195.305 549.913 194.552C549.561 193.8 549.835 192.955 550.432 192.633C551.028 192.31 551.822 192.577 552.175 193.329Z" stroke="white" stroke-opacity="0.35" stroke-width="0.758005"/>
<path d="M554.841 166.263C554.799 167.107 554.162 167.701 553.499 167.681C552.835 167.661 552.26 167.03 552.302 166.186C552.345 165.341 552.982 164.747 553.645 164.767C554.309 164.787 554.884 165.418 554.841 166.263Z" stroke="white" stroke-opacity="0.35" stroke-width="0.758005"/>
<path d="M482.525 113.028C483.223 113.389 483.518 114.226 483.224 114.884C482.93 115.543 482.139 115.818 481.441 115.458C480.743 115.097 480.448 114.26 480.742 113.602C481.036 112.943 481.827 112.668 482.525 113.028Z" stroke="white" stroke-opacity="0.35" stroke-width="0.758005"/>
<path d="M510.677 159.161C517.526 159.978 521.395 164.211 528.373 180.499L525.845 187.098L530.058 221.414" stroke="white" stroke-opacity="0.35" stroke-width="0.758005"/>
<path d="M466.936 113.468C467.634 113.829 467.929 114.666 467.635 115.324C467.341 115.983 466.55 116.258 465.852 115.898C465.154 115.537 464.859 114.7 465.153 114.042C465.447 113.383 466.238 113.108 466.936 113.468Z" stroke="white" stroke-opacity="0.35" stroke-width="0.758005"/>
<path d="M447.7 98.3261C447.721 99.1714 447.131 99.816 446.468 99.8502C445.805 99.8845 445.184 99.3024 445.163 98.4572C445.142 97.6119 445.732 96.9673 446.395 96.9331C447.058 96.8988 447.679 97.4809 447.7 98.3261Z" stroke="white" stroke-opacity="0.35" stroke-width="0.758005"/>
<path d="M445.963 116.045C446.179 116.857 445.757 117.633 445.119 117.834C444.48 118.036 443.745 117.626 443.529 116.814C443.314 116.002 443.735 115.226 444.374 115.024C445.012 114.823 445.748 115.233 445.963 116.045Z" stroke="white" stroke-opacity="0.35" stroke-width="0.758005"/>
<path d="M453.902 162.147C454.118 162.959 453.696 163.735 453.058 163.936C452.42 164.138 451.684 163.727 451.468 162.915C451.253 162.103 451.674 161.327 452.313 161.126C452.951 160.924 453.687 161.335 453.902 162.147Z" stroke="white" stroke-opacity="0.35" stroke-width="0.758005"/>
<path d="M453.376 163.781L458.642 170.16C450.877 179.138 451.058 192.157 457.589 215.254" stroke="white" stroke-opacity="0.35" stroke-width="0.758005"/>
<path d="M539.962 157.566C540.35 158.297 540.119 159.156 539.538 159.511C538.956 159.866 538.15 159.641 537.763 158.909C537.375 158.178 537.606 157.319 538.187 156.964C538.769 156.609 539.575 156.835 539.962 157.566Z" stroke="white" stroke-opacity="0.35" stroke-width="0.758005"/>
<path d="M510.511 156.791C511.149 157.265 511.31 158.141 510.923 158.738C510.536 159.335 509.714 159.482 509.075 159.007C508.436 158.533 508.276 157.657 508.663 157.06C509.049 156.463 509.872 156.317 510.511 156.791Z" stroke="white" stroke-opacity="0.35" stroke-width="0.758005"/>
<path d="M529.853 167.786C530.24 168.517 530.009 169.376 529.428 169.731C528.846 170.086 528.041 169.861 527.653 169.129C527.265 168.398 527.496 167.54 528.078 167.184C528.659 166.829 529.465 167.055 529.853 167.786Z" stroke="white" stroke-opacity="0.35" stroke-width="0.758005"/>
<path d="M545.02 158.107C545.408 158.839 545.177 159.697 544.596 160.052C544.014 160.407 543.208 160.182 542.821 159.451C542.433 158.719 542.664 157.861 543.245 157.506C543.827 157.151 544.633 157.376 545.02 158.107Z" stroke="white" stroke-opacity="0.35" stroke-width="0.758005"/>
<path d="M545.02 158.107C545.408 158.839 545.177 159.697 544.596 160.052C544.014 160.407 543.208 160.182 542.821 159.451C542.433 158.719 542.664 157.861 543.245 157.506C543.827 157.151 544.633 157.376 545.02 158.107Z" stroke="white" stroke-opacity="0.35" stroke-width="0.758005"/>
<path d="M449.163 83.9307L460.328 98.8888L463.067 107.468L472.336 111.427L479.709 108.788C487.523 112.512 492.043 114.369 500.565 116.927" stroke="white" stroke-opacity="0.35" stroke-width="0.758005"/>
<path d="M483.29 114.947C492.28 119.748 497.468 120.843 506.674 123.306L514.258 119.786C521.777 121.387 525.94 122.516 532.796 127.045L534.271 133.425C540.596 137.123 542.437 140.487 544.383 147.503" stroke="white" stroke-opacity="0.35" stroke-width="0.758005"/>
<path d="M515.943 124.406C520.177 124.814 522.394 126.123 526.898 128.585" stroke="white" stroke-opacity="0.35" stroke-width="0.758005"/>
<path d="M531.384 187.976C531.573 188.796 531.126 189.555 530.482 189.734C529.838 189.912 529.116 189.476 528.927 188.656C528.738 187.836 529.185 187.076 529.829 186.898C530.473 186.72 531.196 187.156 531.384 187.976Z" stroke="white" stroke-opacity="0.35" stroke-width="0.758005"/>
<path d="M533.393 203.06C533.504 203.897 532.988 204.607 532.332 204.719C531.676 204.831 530.997 204.325 530.885 203.488C530.773 202.651 531.29 201.941 531.946 201.829C532.602 201.717 533.281 202.224 533.393 203.06Z" stroke="white" stroke-opacity="0.35" stroke-width="0.758005"/>
<path d="M530.454 189.738C530.836 194.278 531.141 196.737 531.924 201.819" stroke="white" stroke-opacity="0.35" stroke-width="0.758005"/>
<path d="M539.538 131.885C546.814 137.774 548.428 142.53 550.914 151.242L548.386 164.001C550.071 176.319 550.914 186.878 550.914 192.597" stroke="white" stroke-opacity="0.35" stroke-width="0.758005"/>
<path d="M448.419 196.023C448.629 196.837 448.203 197.61 447.563 197.806C446.924 198.003 446.191 197.588 445.98 196.774C445.77 195.96 446.197 195.188 446.836 194.991C447.476 194.794 448.209 195.21 448.419 196.023Z" stroke="white" stroke-opacity="0.35" stroke-width="0.758005"/>
<path d="M449.262 202.182C449.472 202.996 449.046 203.769 448.406 203.966C447.766 204.163 447.033 203.747 446.823 202.933C446.613 202.12 447.04 201.347 447.679 201.15C448.319 200.953 449.052 201.369 449.262 202.182Z" stroke="white" stroke-opacity="0.35" stroke-width="0.758005"/>
<path d="M449.262 202.182C449.472 202.996 449.046 203.769 448.406 203.966C447.766 204.163 447.033 203.747 446.823 202.933C446.613 202.12 447.04 201.347 447.679 201.15C448.319 200.953 449.052 201.369 449.262 202.182Z" stroke="white" stroke-opacity="0.35" stroke-width="0.758005"/>
<path d="M447.925 171.021C447.558 171.766 446.747 172.043 446.142 171.737C445.538 171.432 445.266 170.608 445.632 169.863C445.998 169.118 446.81 168.841 447.415 169.147C448.019 169.452 448.291 170.275 447.925 171.021Z" stroke="white" stroke-opacity="0.35" stroke-width="0.758005"/>
<path d="M456.601 142.337C459.548 149.273 449.818 153.815 447.056 164.001L452.323 170.16C445.313 181.303 445.401 187.163 447.056 195.017" stroke="white" stroke-opacity="0.35" stroke-width="0.758005"/>
<path d="M446.635 99.7687C448.109 112.967 448.684 121.97 466.437 134.271C478.866 142.883 488.189 146.495 509.413 151.462C521.631 154.322 525.634 159.601 528.162 167.3" stroke="white" stroke-opacity="0.35" stroke-width="0.758005"/>
</g>
<g filter="url(#filter1_f_1858_267)">
<path d="M558.774 152.77L561.934 202.264" stroke="white" stroke-width="0.758005"/>
<path d="M420.797 66.8554C420.511 67.6414 419.732 68.0075 419.102 67.7749C418.472 67.5424 418.113 66.7563 418.399 65.9703C418.685 65.1843 419.463 64.8182 420.094 65.0508C420.724 65.2833 421.083 66.0693 420.797 66.8554Z" stroke="white" stroke-width="0.758005"/>
<path d="M451.575 125.87C451.785 126.684 451.358 127.456 450.719 127.653C450.079 127.85 449.346 127.434 449.136 126.621C448.926 125.807 449.352 125.034 449.992 124.838C450.632 124.641 451.365 125.056 451.575 125.87Z" stroke="white" stroke-width="0.758005"/>
<path d="M454.805 67.327C455.015 68.1407 454.588 68.9133 453.949 69.1102C453.309 69.3071 452.576 68.8915 452.366 68.0779C452.156 67.2642 452.583 66.4916 453.222 66.2947C453.862 66.0978 454.595 66.5133 454.805 67.327Z" stroke="white" stroke-width="0.758005"/>
<path d="M450.63 46.8411C450.724 47.6804 450.191 48.378 449.533 48.4741C448.875 48.5703 448.208 48.0481 448.114 47.2088C448.021 46.3695 448.553 45.672 449.211 45.5758C449.869 45.4797 450.537 46.0018 450.63 46.8411Z" stroke="white" stroke-width="0.758005"/>
<path d="M449.228 48.5028C449.469 55.2883 449.448 59.7806 446.7 65.0007C445.343 81.937 444.954 87.184 449.228 100.196" stroke="white" stroke-width="0.758005"/>
<path d="M507.636 101.243C508.334 101.604 508.629 102.441 508.335 103.099C508.042 103.758 507.25 104.033 506.552 103.673C505.855 103.312 505.559 102.475 505.853 101.817C506.147 101.159 506.939 100.883 507.636 101.243Z" stroke="white" stroke-width="0.758005"/>
<path d="M512.505 103.117C513.203 103.478 513.498 104.315 513.204 104.973C512.911 105.632 512.119 105.907 511.421 105.547C510.724 105.186 510.429 104.349 510.722 103.691C511.016 103.032 511.808 102.757 512.505 103.117Z" stroke="white" stroke-width="0.758005"/>
<path d="M520.089 107.957C520.787 108.317 521.082 109.154 520.788 109.813C520.494 110.471 519.703 110.747 519.005 110.386C518.308 110.026 518.012 109.189 518.306 108.53C518.6 107.872 519.392 107.596 520.089 107.957Z" stroke="white" stroke-width="0.758005"/>
<path d="M533.993 113.236C534.691 113.597 534.986 114.434 534.692 115.092C534.398 115.75 533.607 116.026 532.909 115.665C532.212 115.305 531.916 114.468 532.21 113.81C532.504 113.151 533.295 112.876 533.993 113.236Z" stroke="white" stroke-width="0.758005"/>
<path d="M544.526 114.996C545.224 115.356 545.519 116.193 545.225 116.852C544.932 117.51 544.14 117.786 543.442 117.425C542.745 117.065 542.449 116.228 542.743 115.569C543.037 114.911 543.829 114.636 544.526 114.996Z" stroke="white" stroke-width="0.758005"/>
<path d="M551.398 133.704C551.75 134.457 551.476 135.301 550.879 135.624C550.283 135.947 549.489 135.68 549.136 134.928C548.784 134.175 549.058 133.33 549.655 133.008C550.252 132.685 551.046 132.952 551.398 133.704Z" stroke="white" stroke-width="0.758005"/>
<path d="M557.296 178.579C557.649 179.331 557.374 180.176 556.778 180.499C556.181 180.821 555.387 180.555 555.035 179.802C554.683 179.049 554.957 178.205 555.553 177.882C556.15 177.559 556.944 177.826 557.296 178.579Z" stroke="white" stroke-width="0.758005"/>
<path d="M559.963 151.512C559.921 152.357 559.284 152.951 558.62 152.931C557.957 152.911 557.382 152.28 557.424 151.435C557.467 150.591 558.103 149.997 558.767 150.017C559.43 150.037 560.006 150.668 559.963 151.512Z" stroke="white" stroke-width="0.758005"/>
<path d="M487.647 98.278C488.345 98.6385 488.64 99.4754 488.346 100.134C488.052 100.792 487.261 101.068 486.563 100.707C485.865 100.347 485.57 99.5099 485.864 98.8515C486.158 98.193 486.949 97.9176 487.647 98.278Z" stroke="white" stroke-width="0.758005"/>
<path d="M515.799 144.411C522.648 145.227 526.517 149.46 533.494 165.748L530.966 172.347L535.18 206.663" stroke="white" stroke-width="0.758005"/>
<path d="M472.058 98.718C472.755 99.0784 473.051 99.9154 472.757 100.574C472.463 101.232 471.671 101.508 470.974 101.147C470.276 100.787 469.981 99.9499 470.275 99.2914C470.569 98.633 471.36 98.3575 472.058 98.718Z" stroke="white" stroke-width="0.758005"/>
<path d="M452.822 83.5757C452.843 84.4209 452.253 85.0655 451.59 85.0998C450.927 85.134 450.306 84.552 450.285 83.7067C450.264 82.8615 450.854 82.2168 451.517 82.1826C452.18 82.1483 452.801 82.7304 452.822 83.5757Z" stroke="white" stroke-width="0.758005"/>
<path d="M451.085 101.295C451.3 102.107 450.879 102.883 450.241 103.084C449.602 103.286 448.866 102.875 448.651 102.063C448.436 101.251 448.857 100.475 449.495 100.274C450.134 100.072 450.87 100.483 451.085 101.295Z" stroke="white" stroke-width="0.758005"/>
<path d="M459.024 147.396C459.24 148.208 458.818 148.984 458.18 149.186C457.541 149.387 456.806 148.977 456.59 148.165C456.375 147.353 456.796 146.577 457.435 146.375C458.073 146.174 458.809 146.584 459.024 147.396Z" stroke="white" stroke-width="0.758005"/>
<path d="M458.498 149.03L463.764 155.41C455.999 164.388 456.18 177.407 462.711 200.504" stroke="white" stroke-width="0.758005"/>
<path d="M545.084 142.816C545.472 143.547 545.241 144.405 544.659 144.76C544.078 145.115 543.272 144.89 542.884 144.159C542.496 143.428 542.728 142.569 543.309 142.214C543.891 141.859 544.696 142.084 545.084 142.816Z" stroke="white" stroke-width="0.758005"/>
<path d="M515.632 142.04C516.271 142.515 516.432 143.391 516.045 143.988C515.658 144.585 514.836 144.731 514.197 144.257C513.558 143.782 513.398 142.906 513.784 142.309C514.171 141.712 514.994 141.566 515.632 142.04Z" stroke="white" stroke-width="0.758005"/>
<path d="M534.975 153.036C535.362 153.767 535.131 154.625 534.55 154.98C533.968 155.335 533.162 155.11 532.775 154.379C532.387 153.648 532.618 152.789 533.199 152.434C533.781 152.079 534.587 152.304 534.975 153.036Z" stroke="white" stroke-width="0.758005"/>
<path d="M550.142 143.357C550.53 144.088 550.299 144.947 549.717 145.302C549.136 145.657 548.33 145.431 547.942 144.7C547.554 143.969 547.786 143.11 548.367 142.755C548.949 142.4 549.754 142.625 550.142 143.357Z" stroke="white" stroke-width="0.758005"/>
<path d="M550.142 143.357C550.53 144.088 550.299 144.947 549.717 145.302C549.136 145.657 548.33 145.431 547.942 144.7C547.554 143.969 547.786 143.11 548.367 142.755C548.949 142.4 549.754 142.625 550.142 143.357Z" stroke="white" stroke-width="0.758005"/>
<path d="M527.629 118.491C528.398 118.557 528.972 119.217 528.931 119.949C528.891 120.681 528.248 121.238 527.48 121.172C526.711 121.106 526.137 120.446 526.178 119.714C526.219 118.982 526.861 118.425 527.629 118.491Z" stroke="white" stroke-width="0.758005"/>
<path d="M454.285 69.1803L465.45 84.1384L468.188 92.7173L477.458 96.6769L484.831 94.0372C492.645 97.7615 497.165 99.619 505.687 102.176" stroke="white" stroke-width="0.758005"/>
<path d="M488.412 100.196C497.401 104.998 502.59 106.093 511.796 108.555L519.38 105.036C526.898 106.637 531.062 107.765 537.918 112.295L539.393 118.674C545.718 122.372 547.559 125.737 549.505 132.752" stroke="white" stroke-width="0.758005"/>
<path d="M521.065 109.655C525.298 110.064 527.516 111.372 532.02 113.835" stroke="white" stroke-width="0.758005"/>
<path d="M536.506 173.225C536.695 174.045 536.248 174.805 535.604 174.983C534.96 175.162 534.238 174.726 534.049 173.906C533.86 173.086 534.307 172.326 534.951 172.148C535.595 171.969 536.317 172.405 536.506 173.225Z" stroke="white" stroke-width="0.758005"/>
<path d="M538.514 188.31C538.626 189.146 538.109 189.857 537.453 189.968C536.797 190.08 536.118 189.574 536.007 188.737C535.895 187.901 536.412 187.191 537.068 187.079C537.724 186.967 538.403 187.473 538.514 188.31Z" stroke="white" stroke-width="0.758005"/>
<path d="M535.576 174.987C535.958 179.527 536.263 181.986 537.046 187.068" stroke="white" stroke-width="0.758005"/>
<path d="M544.66 117.134C551.936 123.024 553.55 127.779 556.035 136.492L553.507 149.25C555.193 161.569 556.035 172.127 556.035 177.847" stroke="white" stroke-width="0.758005"/>
<path d="M453.541 181.273C453.751 182.087 453.325 182.859 452.685 183.056C452.046 183.253 451.312 182.837 451.102 182.024C450.892 181.21 451.319 180.437 451.958 180.24C452.598 180.044 453.331 180.459 453.541 181.273Z" stroke="white" stroke-width="0.758005"/>
<path d="M454.384 187.432C454.594 188.246 454.167 189.018 453.528 189.215C452.888 189.412 452.155 188.997 451.945 188.183C451.735 187.369 452.161 186.597 452.801 186.4C453.44 186.203 454.174 186.618 454.384 187.432Z" stroke="white" stroke-width="0.758005"/>
<path d="M454.384 187.432C454.594 188.246 454.167 189.018 453.528 189.215C452.888 189.412 452.155 188.997 451.945 188.183C451.735 187.369 452.161 186.597 452.801 186.4C453.44 186.203 454.174 186.618 454.384 187.432Z" stroke="white" stroke-width="0.758005"/>
<path d="M464.496 201.51C464.706 202.324 464.279 203.097 463.64 203.294C463 203.49 462.267 203.075 462.057 202.261C461.847 201.448 462.273 200.675 462.913 200.478C463.552 200.281 464.286 200.697 464.496 201.51Z" stroke="white" stroke-width="0.758005"/>
<path d="M453.046 156.27C452.68 157.016 451.868 157.292 451.264 156.987C450.659 156.681 450.388 155.858 450.754 155.113C451.12 154.367 451.932 154.091 452.536 154.396C453.141 154.701 453.412 155.525 453.046 156.27Z" stroke="white" stroke-width="0.758005"/>
<path d="M449.924 161.233C449.558 161.978 448.746 162.255 448.142 161.95C447.537 161.644 447.266 160.821 447.632 160.076C447.998 159.33 448.81 159.054 449.414 159.359C450.019 159.664 450.29 160.488 449.924 161.233Z" stroke="white" stroke-width="0.758005"/>
<path d="M447.964 162.009C443.206 174.063 443.81 181.334 447.964 194.785L453.231 198.084L458.498 210.623" stroke="white" stroke-width="0.758005"/>
<path d="M450.914 127.913C453.861 134.849 454.94 139.064 452.178 149.25L457.445 155.41C450.435 166.552 450.523 172.412 452.178 180.266" stroke="white" stroke-width="0.758005"/>
<path d="M421 67.2005C427.267 69.3755 431.318 69.2782 439.327 67.2005C437.027 91.3176 441.056 103.487 449.65 124.833" stroke="white" stroke-width="0.758005"/>
<path d="M472.612 100.636C490.016 109.233 500.715 112.188 520.854 115.374V124.833C533.371 124.277 536.215 126.517 543.395 142.211M528.86 120.214C536.476 120.951 540.762 124.703 548.451 142.211" stroke="white" stroke-width="0.758005"/>
<path d="M451.756 85.0182C453.231 98.2165 453.806 107.219 471.559 119.521C483.988 128.133 493.311 131.745 514.534 136.712C526.753 139.571 530.755 144.851 533.283 152.55" stroke="white" stroke-width="0.758005"/>
</g>
<g filter="url(#filter2_f_1858_267)">
<path d="M558.774 152.77L561.934 202.264" stroke="white" stroke-width="0.758005"/>
<path d="M420.797 66.8554C420.511 67.6414 419.732 68.0075 419.102 67.7749C418.472 67.5424 418.113 66.7563 418.399 65.9703C418.685 65.1843 419.463 64.8182 420.094 65.0508C420.724 65.2833 421.083 66.0693 420.797 66.8554Z" stroke="white" stroke-width="0.758005"/>
<path d="M451.575 125.87C451.785 126.684 451.358 127.456 450.719 127.653C450.079 127.85 449.346 127.434 449.136 126.621C448.926 125.807 449.352 125.034 449.992 124.838C450.632 124.641 451.365 125.056 451.575 125.87Z" stroke="white" stroke-width="0.758005"/>
<path d="M454.805 67.327C455.015 68.1407 454.588 68.9133 453.949 69.1102C453.309 69.3071 452.576 68.8915 452.366 68.0779C452.156 67.2642 452.583 66.4916 453.222 66.2947C453.862 66.0978 454.595 66.5133 454.805 67.327Z" stroke="white" stroke-width="0.758005"/>
<path d="M450.63 46.8411C450.724 47.6804 450.191 48.378 449.533 48.4741C448.875 48.5703 448.208 48.0481 448.114 47.2088C448.021 46.3695 448.553 45.672 449.211 45.5758C449.869 45.4797 450.537 46.0018 450.63 46.8411Z" stroke="white" stroke-width="0.758005"/>
<path d="M449.228 48.5028C449.469 55.2883 449.448 59.7806 446.7 65.0007C445.343 81.937 444.954 87.184 449.228 100.196" stroke="white" stroke-width="0.758005"/>
<path d="M507.636 101.243C508.334 101.604 508.629 102.441 508.335 103.099C508.042 103.758 507.25 104.033 506.552 103.673C505.855 103.312 505.559 102.475 505.853 101.817C506.147 101.159 506.939 100.883 507.636 101.243Z" stroke="white" stroke-width="0.758005"/>
<path d="M512.505 103.117C513.203 103.478 513.498 104.315 513.204 104.973C512.911 105.632 512.119 105.907 511.421 105.547C510.724 105.186 510.429 104.349 510.722 103.691C511.016 103.032 511.808 102.757 512.505 103.117Z" stroke="white" stroke-width="0.758005"/>
<path d="M520.089 107.957C520.787 108.317 521.082 109.154 520.788 109.813C520.494 110.471 519.703 110.747 519.005 110.386C518.308 110.026 518.012 109.189 518.306 108.53C518.6 107.872 519.392 107.596 520.089 107.957Z" stroke="white" stroke-width="0.758005"/>
<path d="M533.993 113.236C534.691 113.597 534.986 114.434 534.692 115.092C534.398 115.75 533.607 116.026 532.909 115.665C532.212 115.305 531.916 114.468 532.21 113.81C532.504 113.151 533.295 112.876 533.993 113.236Z" stroke="white" stroke-width="0.758005"/>
<path d="M544.526 114.996C545.224 115.356 545.519 116.193 545.225 116.852C544.932 117.51 544.14 117.786 543.442 117.425C542.745 117.065 542.449 116.228 542.743 115.569C543.037 114.911 543.829 114.636 544.526 114.996Z" stroke="white" stroke-width="0.758005"/>
<path d="M551.398 133.704C551.75 134.457 551.476 135.301 550.879 135.624C550.283 135.947 549.489 135.68 549.136 134.928C548.784 134.175 549.058 133.33 549.655 133.008C550.252 132.685 551.046 132.952 551.398 133.704Z" stroke="white" stroke-width="0.758005"/>
<path d="M557.296 178.579C557.649 179.331 557.374 180.176 556.778 180.499C556.181 180.821 555.387 180.555 555.035 179.802C554.683 179.049 554.957 178.205 555.553 177.882C556.15 177.559 556.944 177.826 557.296 178.579Z" stroke="white" stroke-width="0.758005"/>
<path d="M559.963 151.512C559.921 152.357 559.284 152.951 558.62 152.931C557.957 152.911 557.382 152.28 557.424 151.435C557.467 150.591 558.103 149.997 558.767 150.017C559.43 150.037 560.006 150.668 559.963 151.512Z" stroke="white" stroke-width="0.758005"/>
<path d="M487.647 98.278C488.345 98.6385 488.64 99.4754 488.346 100.134C488.052 100.792 487.261 101.068 486.563 100.707C485.865 100.347 485.57 99.5099 485.864 98.8515C486.158 98.193 486.949 97.9176 487.647 98.278Z" stroke="white" stroke-width="0.758005"/>
<path d="M515.799 144.411C522.648 145.227 526.517 149.46 533.494 165.748L530.966 172.347L535.18 206.663" stroke="white" stroke-width="0.758005"/>
<path d="M472.058 98.718C472.755 99.0784 473.051 99.9154 472.757 100.574C472.463 101.232 471.671 101.508 470.974 101.147C470.276 100.787 469.981 99.9499 470.275 99.2914C470.569 98.633 471.36 98.3575 472.058 98.718Z" stroke="white" stroke-width="0.758005"/>
<path d="M452.822 83.5757C452.843 84.4209 452.253 85.0655 451.59 85.0998C450.927 85.134 450.306 84.552 450.285 83.7067C450.264 82.8615 450.854 82.2168 451.517 82.1826C452.18 82.1483 452.801 82.7304 452.822 83.5757Z" stroke="white" stroke-width="0.758005"/>
<path d="M451.085 101.295C451.3 102.107 450.879 102.883 450.241 103.084C449.602 103.286 448.866 102.875 448.651 102.063C448.436 101.251 448.857 100.475 449.495 100.274C450.134 100.072 450.87 100.483 451.085 101.295Z" stroke="white" stroke-width="0.758005"/>
<path d="M459.024 147.396C459.24 148.208 458.818 148.984 458.18 149.186C457.541 149.387 456.806 148.977 456.59 148.165C456.375 147.353 456.796 146.577 457.435 146.375C458.073 146.174 458.809 146.584 459.024 147.396Z" stroke="white" stroke-width="0.758005"/>
<path d="M458.498 149.03L463.764 155.41C455.999 164.388 456.18 177.407 462.711 200.504" stroke="white" stroke-width="0.758005"/>
<path d="M545.084 142.816C545.472 143.547 545.241 144.405 544.659 144.76C544.078 145.115 543.272 144.89 542.884 144.159C542.496 143.428 542.728 142.569 543.309 142.214C543.891 141.859 544.696 142.084 545.084 142.816Z" stroke="white" stroke-width="0.758005"/>
<path d="M515.632 142.04C516.271 142.515 516.432 143.391 516.045 143.988C515.658 144.585 514.836 144.731 514.197 144.257C513.558 143.782 513.398 142.906 513.784 142.309C514.171 141.712 514.994 141.566 515.632 142.04Z" stroke="white" stroke-width="0.758005"/>
<path d="M534.975 153.036C535.362 153.767 535.131 154.625 534.55 154.98C533.968 155.335 533.162 155.11 532.775 154.379C532.387 153.648 532.618 152.789 533.199 152.434C533.781 152.079 534.587 152.304 534.975 153.036Z" stroke="white" stroke-width="0.758005"/>
<path d="M550.142 143.357C550.53 144.088 550.299 144.947 549.717 145.302C549.136 145.657 548.33 145.431 547.942 144.7C547.554 143.969 547.786 143.11 548.367 142.755C548.949 142.4 549.754 142.625 550.142 143.357Z" stroke="white" stroke-width="0.758005"/>
<path d="M550.142 143.357C550.53 144.088 550.299 144.947 549.717 145.302C549.136 145.657 548.33 145.431 547.942 144.7C547.554 143.969 547.786 143.11 548.367 142.755C548.949 142.4 549.754 142.625 550.142 143.357Z" stroke="white" stroke-width="0.758005"/>
<path d="M527.629 118.491C528.398 118.557 528.972 119.217 528.931 119.949C528.891 120.681 528.248 121.238 527.48 121.172C526.711 121.106 526.137 120.446 526.178 119.714C526.219 118.982 526.861 118.425 527.629 118.491Z" stroke="white" stroke-width="0.758005"/>
<path d="M454.285 69.1803L465.45 84.1384L468.188 92.7173L477.458 96.6769L484.831 94.0372C492.645 97.7615 497.165 99.619 505.687 102.176" stroke="white" stroke-width="0.758005"/>
<path d="M488.412 100.196C497.401 104.998 502.59 106.093 511.796 108.555L519.38 105.036C526.898 106.637 531.062 107.765 537.918 112.295L539.393 118.674C545.718 122.372 547.559 125.737 549.505 132.752" stroke="white" stroke-width="0.758005"/>
<path d="M521.065 109.655C525.298 110.064 527.516 111.372 532.02 113.835" stroke="white" stroke-width="0.758005"/>
<path d="M536.506 173.225C536.695 174.045 536.248 174.805 535.604 174.983C534.96 175.162 534.238 174.726 534.049 173.906C533.86 173.086 534.307 172.326 534.951 172.148C535.595 171.969 536.317 172.405 536.506 173.225Z" stroke="white" stroke-width="0.758005"/>
<path d="M538.514 188.31C538.626 189.146 538.109 189.857 537.453 189.968C536.797 190.08 536.118 189.574 536.007 188.737C535.895 187.901 536.412 187.191 537.068 187.079C537.724 186.967 538.403 187.473 538.514 188.31Z" stroke="white" stroke-width="0.758005"/>
<path d="M535.576 174.987C535.958 179.527 536.263 181.986 537.046 187.068" stroke="white" stroke-width="0.758005"/>
<path d="M544.66 117.134C551.936 123.024 553.55 127.779 556.035 136.492L553.507 149.25C555.193 161.569 556.035 172.127 556.035 177.847" stroke="white" stroke-width="0.758005"/>
<path d="M453.541 181.273C453.751 182.087 453.325 182.859 452.685 183.056C452.046 183.253 451.312 182.837 451.102 182.024C450.892 181.21 451.319 180.437 451.958 180.24C452.598 180.044 453.331 180.459 453.541 181.273Z" stroke="white" stroke-width="0.758005"/>
<path d="M454.384 187.432C454.594 188.246 454.167 189.018 453.528 189.215C452.888 189.412 452.155 188.997 451.945 188.183C451.735 187.369 452.161 186.597 452.801 186.4C453.44 186.203 454.174 186.618 454.384 187.432Z" stroke="white" stroke-width="0.758005"/>
<path d="M454.384 187.432C454.594 188.246 454.167 189.018 453.528 189.215C452.888 189.412 452.155 188.997 451.945 188.183C451.735 187.369 452.161 186.597 452.801 186.4C453.44 186.203 454.174 186.618 454.384 187.432Z" stroke="white" stroke-width="0.758005"/>
<path d="M464.496 201.51C464.706 202.324 464.279 203.097 463.64 203.294C463 203.49 462.267 203.075 462.057 202.261C461.847 201.448 462.273 200.675 462.913 200.478C463.552 200.281 464.286 200.697 464.496 201.51Z" stroke="white" stroke-width="0.758005"/>
<path d="M453.046 156.27C452.68 157.016 451.868 157.292 451.264 156.987C450.659 156.681 450.388 155.858 450.754 155.113C451.12 154.367 451.932 154.091 452.536 154.396C453.141 154.701 453.412 155.525 453.046 156.27Z" stroke="white" stroke-width="0.758005"/>
<path d="M449.924 161.233C449.558 161.978 448.746 162.255 448.142 161.95C447.537 161.644 447.266 160.821 447.632 160.076C447.998 159.33 448.81 159.054 449.414 159.359C450.019 159.664 450.29 160.488 449.924 161.233Z" stroke="white" stroke-width="0.758005"/>
<path d="M447.964 162.009C443.206 174.063 443.81 181.334 447.964 194.785L453.231 198.084L458.498 210.623" stroke="white" stroke-width="0.758005"/>
<path d="M450.914 127.913C453.861 134.849 454.94 139.064 452.178 149.25L457.445 155.41C450.435 166.552 450.523 172.412 452.178 180.266" stroke="white" stroke-width="0.758005"/>
<path d="M421 67.2005C427.267 69.3755 431.318 69.2782 439.327 67.2005C437.027 91.3176 441.056 103.487 449.65 124.833" stroke="white" stroke-width="0.758005"/>
<path d="M472.612 100.636C490.016 109.233 500.715 112.188 520.854 115.374V124.833C533.371 124.277 536.215 126.517 543.395 142.211M528.86 120.214C536.476 120.951 540.762 124.703 548.451 142.211" stroke="white" stroke-width="0.758005"/>
<path d="M451.756 85.0182C453.231 98.2165 453.806 107.219 471.559 119.521C483.988 128.133 493.311 131.745 514.534 136.712C526.753 139.571 530.755 144.851 533.283 152.55" stroke="white" stroke-width="0.758005"/>
</g>
<path d="M558.774 152.77L561.934 202.264" stroke="white" stroke-width="0.758005"/>
<path d="M420.797 66.8554C420.511 67.6414 419.732 68.0075 419.102 67.7749C418.472 67.5424 418.113 66.7563 418.399 65.9703C418.685 65.1843 419.463 64.8182 420.094 65.0508C420.724 65.2833 421.083 66.0693 420.797 66.8554Z" stroke="white" stroke-width="0.758005"/>
<path d="M451.575 125.87C451.785 126.684 451.358 127.456 450.719 127.653C450.079 127.85 449.346 127.434 449.136 126.621C448.926 125.807 449.352 125.034 449.992 124.838C450.632 124.641 451.365 125.056 451.575 125.87Z" stroke="white" stroke-width="0.758005"/>
<path d="M454.805 67.327C455.015 68.1407 454.588 68.9133 453.949 69.1102C453.309 69.3071 452.576 68.8915 452.366 68.0779C452.156 67.2642 452.583 66.4916 453.222 66.2947C453.862 66.0978 454.595 66.5133 454.805 67.327Z" stroke="white" stroke-width="0.758005"/>
<path d="M450.63 46.8411C450.724 47.6804 450.191 48.378 449.533 48.4741C448.875 48.5703 448.208 48.0481 448.114 47.2088C448.021 46.3695 448.553 45.672 449.211 45.5758C449.869 45.4797 450.537 46.0018 450.63 46.8411Z" stroke="white" stroke-width="0.758005"/>
<path d="M449.228 48.5028C449.469 55.2883 449.448 59.7806 446.7 65.0007C445.343 81.937 444.954 87.184 449.228 100.196" stroke="white" stroke-width="0.758005"/>
<path d="M507.636 101.243C508.334 101.604 508.629 102.441 508.335 103.099C508.042 103.758 507.25 104.033 506.552 103.673C505.855 103.312 505.559 102.475 505.853 101.817C506.147 101.159 506.939 100.883 507.636 101.243Z" stroke="white" stroke-width="0.758005"/>
<path d="M512.505 103.117C513.203 103.478 513.498 104.315 513.204 104.973C512.911 105.632 512.119 105.907 511.421 105.547C510.724 105.186 510.429 104.349 510.722 103.691C511.016 103.032 511.808 102.757 512.505 103.117Z" stroke="white" stroke-width="0.758005"/>
<path d="M520.089 107.957C520.787 108.317 521.082 109.154 520.788 109.813C520.494 110.471 519.703 110.747 519.005 110.386C518.308 110.026 518.012 109.189 518.306 108.53C518.6 107.872 519.392 107.596 520.089 107.957Z" stroke="white" stroke-width="0.758005"/>
<path d="M533.993 113.236C534.691 113.597 534.986 114.434 534.692 115.092C534.398 115.75 533.607 116.026 532.909 115.665C532.212 115.305 531.916 114.468 532.21 113.81C532.504 113.151 533.295 112.876 533.993 113.236Z" stroke="white" stroke-width="0.758005"/>
<path d="M544.526 114.996C545.224 115.356 545.519 116.193 545.225 116.852C544.932 117.51 544.14 117.786 543.442 117.425C542.745 117.065 542.449 116.228 542.743 115.569C543.037 114.911 543.829 114.636 544.526 114.996Z" stroke="white" stroke-width="0.758005"/>
<path d="M551.398 133.704C551.75 134.457 551.476 135.301 550.879 135.624C550.283 135.947 549.489 135.68 549.136 134.928C548.784 134.175 549.058 133.33 549.655 133.008C550.252 132.685 551.046 132.952 551.398 133.704Z" stroke="white" stroke-width="0.758005"/>
<path d="M557.296 178.579C557.649 179.331 557.374 180.176 556.778 180.499C556.181 180.821 555.387 180.555 555.035 179.802C554.683 179.049 554.957 178.205 555.553 177.882C556.15 177.559 556.944 177.826 557.296 178.579Z" stroke="white" stroke-width="0.758005"/>
<path d="M559.963 151.512C559.921 152.357 559.284 152.951 558.62 152.931C557.957 152.911 557.382 152.28 557.424 151.435C557.467 150.591 558.103 149.997 558.767 150.017C559.43 150.037 560.006 150.668 559.963 151.512Z" stroke="white" stroke-width="0.758005"/>
<path d="M487.647 98.278C488.345 98.6385 488.64 99.4754 488.346 100.134C488.052 100.792 487.261 101.068 486.563 100.707C485.865 100.347 485.57 99.5099 485.864 98.8515C486.158 98.193 486.949 97.9176 487.647 98.278Z" stroke="white" stroke-width="0.758005"/>
<path d="M515.799 144.411C522.648 145.227 526.517 149.46 533.494 165.748L530.966 172.347L535.18 206.663" stroke="white" stroke-width="0.758005"/>
<path d="M472.058 98.718C472.755 99.0784 473.051 99.9154 472.757 100.574C472.463 101.232 471.671 101.508 470.974 101.147C470.276 100.787 469.981 99.9499 470.275 99.2914C470.569 98.633 471.36 98.3575 472.058 98.718Z" stroke="white" stroke-width="0.758005"/>
<path d="M452.822 83.5757C452.843 84.4209 452.253 85.0655 451.59 85.0998C450.927 85.134 450.306 84.552 450.285 83.7067C450.264 82.8615 450.854 82.2168 451.517 82.1826C452.18 82.1483 452.801 82.7304 452.822 83.5757Z" stroke="white" stroke-width="0.758005"/>
<path d="M451.085 101.295C451.3 102.107 450.879 102.883 450.241 103.084C449.602 103.286 448.866 102.875 448.651 102.063C448.436 101.251 448.857 100.475 449.495 100.274C450.134 100.072 450.87 100.483 451.085 101.295Z" stroke="white" stroke-width="0.758005"/>
<path d="M459.024 147.396C459.24 148.208 458.818 148.984 458.18 149.186C457.541 149.387 456.806 148.977 456.59 148.165C456.375 147.353 456.796 146.577 457.435 146.375C458.073 146.174 458.809 146.584 459.024 147.396Z" stroke="white" stroke-width="0.758005"/>
<path d="M458.498 149.03L463.764 155.41C455.999 164.388 456.18 177.407 462.711 200.504" stroke="white" stroke-width="0.758005"/>
<path d="M545.084 142.816C545.472 143.547 545.241 144.405 544.659 144.76C544.078 145.115 543.272 144.89 542.884 144.159C542.496 143.428 542.728 142.569 543.309 142.214C543.891 141.859 544.696 142.084 545.084 142.816Z" stroke="white" stroke-width="0.758005"/>
<path d="M515.632 142.04C516.271 142.515 516.432 143.391 516.045 143.988C515.658 144.585 514.836 144.731 514.197 144.257C513.558 143.782 513.398 142.906 513.784 142.309C514.171 141.712 514.994 141.566 515.632 142.04Z" stroke="white" stroke-width="0.758005"/>
<path d="M534.975 153.036C535.362 153.767 535.131 154.625 534.55 154.98C533.968 155.335 533.162 155.11 532.775 154.379C532.387 153.648 532.618 152.789 533.199 152.434C533.781 152.079 534.587 152.304 534.975 153.036Z" stroke="white" stroke-width="0.758005"/>
<path d="M550.142 143.357C550.53 144.088 550.299 144.947 549.717 145.302C549.136 145.657 548.33 145.431 547.942 144.7C547.554 143.969 547.786 143.11 548.367 142.755C548.949 142.4 549.754 142.625 550.142 143.357Z" stroke="white" stroke-width="0.758005"/>
<path d="M550.142 143.357C550.53 144.088 550.299 144.947 549.717 145.302C549.136 145.657 548.33 145.431 547.942 144.7C547.554 143.969 547.786 143.11 548.367 142.755C548.949 142.4 549.754 142.625 550.142 143.357Z" stroke="white" stroke-width="0.758005"/>
<path d="M527.629 118.491C528.398 118.557 528.972 119.217 528.931 119.949C528.891 120.681 528.248 121.238 527.48 121.172C526.711 121.106 526.137 120.446 526.178 119.714C526.219 118.982 526.861 118.425 527.629 118.491Z" stroke="white" stroke-width="0.758005"/>
<path d="M454.285 69.1803L465.45 84.1384L468.188 92.7173L477.458 96.6769L484.831 94.0372C492.645 97.7615 497.165 99.619 505.687 102.176" stroke="white" stroke-width="0.758005"/>
<path d="M488.412 100.196C497.401 104.998 502.59 106.093 511.796 108.555L519.38 105.036C526.898 106.637 531.062 107.765 537.918 112.295L539.393 118.674C545.718 122.372 547.559 125.737 549.505 132.752" stroke="white" stroke-width="0.758005"/>
<path d="M521.065 109.655C525.298 110.064 527.516 111.372 532.02 113.835" stroke="white" stroke-width="0.758005"/>
<path d="M536.506 173.225C536.695 174.045 536.248 174.805 535.604 174.983C534.96 175.162 534.238 174.726 534.049 173.906C533.86 173.086 534.307 172.326 534.951 172.148C535.595 171.969 536.317 172.405 536.506 173.225Z" stroke="white" stroke-width="0.758005"/>
<path d="M538.514 188.31C538.626 189.146 538.109 189.857 537.453 189.968C536.797 190.08 536.118 189.574 536.007 188.737C535.895 187.901 536.412 187.191 537.068 187.079C537.724 186.967 538.403 187.473 538.514 188.31Z" stroke="white" stroke-width="0.758005"/>
<path d="M535.576 174.987C535.958 179.527 536.263 181.986 537.046 187.068" stroke="white" stroke-width="0.758005"/>
<path d="M544.66 117.134C551.936 123.024 553.55 127.779 556.035 136.492L553.507 149.25C555.193 161.569 556.035 172.127 556.035 177.847" stroke="white" stroke-width="0.758005"/>
<path d="M453.541 181.273C453.751 182.087 453.325 182.859 452.685 183.056C452.046 183.253 451.312 182.837 451.102 182.024C450.892 181.21 451.319 180.437 451.958 180.24C452.598 180.044 453.331 180.459 453.541 181.273Z" stroke="white" stroke-width="0.758005"/>
<path d="M454.384 187.432C454.594 188.246 454.167 189.018 453.528 189.215C452.888 189.412 452.155 188.997 451.945 188.183C451.735 187.369 452.161 186.597 452.801 186.4C453.44 186.203 454.174 186.618 454.384 187.432Z" stroke="white" stroke-width="0.758005"/>
<path d="M454.384 187.432C454.594 188.246 454.167 189.018 453.528 189.215C452.888 189.412 452.155 188.997 451.945 188.183C451.735 187.369 452.161 186.597 452.801 186.4C453.44 186.203 454.174 186.618 454.384 187.432Z" stroke="white" stroke-width="0.758005"/>
<path d="M464.496 201.51C464.706 202.324 464.279 203.097 463.64 203.294C463 203.49 462.267 203.075 462.057 202.261C461.847 201.448 462.273 200.675 462.913 200.478C463.552 200.281 464.286 200.697 464.496 201.51Z" stroke="white" stroke-width="0.758005"/>
<path d="M453.046 156.27C452.68 157.016 451.868 157.292 451.264 156.987C450.659 156.681 450.388 155.858 450.754 155.113C451.12 154.367 451.932 154.091 452.536 154.396C453.141 154.701 453.412 155.525 453.046 156.27Z" stroke="white" stroke-width="0.758005"/>
<path d="M449.924 161.233C449.558 161.978 448.746 162.255 448.142 161.95C447.537 161.644 447.266 160.821 447.632 160.076C447.998 159.33 448.81 159.054 449.414 159.359C450.019 159.664 450.29 160.488 449.924 161.233Z" stroke="white" stroke-width="0.758005"/>
<path d="M447.964 162.009C443.206 174.063 443.81 181.334 447.964 194.785L453.231 198.084L458.498 210.623" stroke="white" stroke-width="0.758005"/>
<path d="M450.914 127.913C453.861 134.849 454.94 139.064 452.178 149.25L457.445 155.41C450.435 166.552 450.523 172.412 452.178 180.266" stroke="white" stroke-width="0.758005"/>
<path d="M421 67.2005C427.267 69.3755 431.318 69.2782 439.327 67.2005C437.027 91.3176 441.056 103.487 449.65 124.833" stroke="white" stroke-width="0.758005"/>
<path d="M472.612 100.636C490.016 109.233 500.715 112.188 520.854 115.374V124.833C533.371 124.277 536.215 126.517 543.395 142.211M528.86 120.214C536.476 120.951 540.762 124.703 548.451 142.211" stroke="white" stroke-width="0.758005"/>
<path d="M451.756 85.0182C453.231 98.2165 453.806 107.219 471.559 119.521C483.988 128.133 493.311 131.745 514.534 136.712C526.753 139.571 530.755 144.851 533.283 152.55" stroke="white" stroke-width="0.758005"/>
<path d="M68.2529 99.9329C44.1287 106.957 36.3785 116.776 27.4521 139.275C23.735 155.004 22.0543 165.511 20.8752 191.873L45.4428 228.473L105.772 237.788C120.98 213.088 104.084 187.641 101.355 169.725C95.7885 148.426 98.6424 137.775 108.994 117.847C111.881 113.356 131.238 75.0307 123.277 71.4307L105.105 66.316C108.998 78.4686 94.6133 90.11 68.2529 99.9329Z" fill="url(#paint2_linear_1858_267)"/>
<mask id="mask1_1858_267" style="mask-type:alpha" maskUnits="userSpaceOnUse" x="20" y="44" width="124" height="194">
<path d="M68.1675 99.3862C44.0433 106.411 36.2931 116.229 27.3667 138.729C23.6497 154.457 21.9689 164.964 20.7898 191.326L45.3574 227.926L105.686 237.241C120.894 212.541 103.999 187.094 101.27 169.179C95.7031 147.879 98.557 137.229 108.909 117.301C111.796 112.81 131.152 74.484 123.192 70.884L105.02 65.7693C108.912 77.9219 94.5279 89.5633 68.1675 99.3862Z" fill="url(#paint3_linear_1858_267)"/>
<path d="M143.558 70.1674C141.565 77.5654 130.057 79.4733 114.852 74.1611C99.648 68.849 91.0871 61.6306 93.0807 54.2327C94.49 49.0028 107.766 40.5892 122.97 45.9014C138.174 51.2136 144.076 62.6615 143.558 70.1674Z" fill="#E2B0D5"/>
</mask>
<g mask="url(#mask1_1858_267)">
<g filter="url(#filter3_f_1858_267)">
<path d="M63.2564 120.648C62.8425 121.053 62.2354 121.032 61.898 120.662C61.5606 120.292 61.5749 119.663 61.9887 119.258C62.4026 118.853 63.0097 118.874 63.3471 119.244C63.6845 119.614 63.6702 120.243 63.2564 120.648Z" stroke="white" stroke-opacity="0.26" stroke-width="0.64994"/>
<path d="M77.2731 109.432C76.8592 109.837 76.2522 109.816 75.9147 109.446C75.5773 109.075 75.5916 108.446 76.0055 108.041C76.4193 107.636 77.0264 107.657 77.3638 108.027C77.7012 108.398 77.687 109.027 77.2731 109.432Z" stroke="white" stroke-opacity="0.26" stroke-width="0.64994"/>
<path d="M35.2113 140.098C34.7975 140.503 34.1904 140.482 33.853 140.112C33.5156 139.741 33.5299 139.112 33.9437 138.707C34.3576 138.302 34.9647 138.323 35.3021 138.694C35.6395 139.064 35.6252 139.693 35.2113 140.098Z" stroke="white" stroke-opacity="0.26" stroke-width="0.64994"/>
<path d="M90.3457 96.5537C89.9319 96.9587 89.3248 96.9376 88.9874 96.5675C88.65 96.1975 88.6643 95.5683 89.0781 95.1633C89.492 94.7583 90.0991 94.7794 90.4365 95.1495C90.7739 95.5196 90.7596 96.1487 90.3457 96.5537Z" stroke="white" stroke-opacity="0.26" stroke-width="0.64994"/>
<path d="M89.3122 96.803C86.7201 100.214 84.6473 102.421 81.6873 104.564L82.6427 109.209C80.5049 111.416 64.7544 118.884 63.6222 119.246" stroke="white" stroke-opacity="0.26" stroke-width="0.64994"/>
<path d="M75.9252 109.182C69.4535 112.949 65.7338 114.754 58.9286 117.403L57.7039 123.864C47.5832 126.604 41.6356 129.767 35.42 138.363" stroke="white" stroke-opacity="0.26" stroke-width="0.64994"/>
<path d="M100.066 99.057C99.8614 99.6351 99.3048 99.8889 98.8662 99.7229C98.4276 99.5569 98.1615 98.9917 98.3666 98.4137C98.5716 97.8356 99.1282 97.5818 99.5668 97.7478C100.005 97.9138 100.272 98.4789 100.066 99.057Z" stroke="white" stroke-opacity="0.26" stroke-width="0.64994"/>
<path d="M96.4212 116.798C96.3053 117.408 95.793 117.75 95.3394 117.661C94.8858 117.572 94.5358 117.061 94.6516 116.451C94.7675 115.841 95.2799 115.498 95.7335 115.587C96.1871 115.676 96.5371 116.188 96.4212 116.798Z" stroke="white" stroke-opacity="0.26" stroke-width="0.64994"/>
<path d="M60.6279 137.717C60.3272 138.237 59.7361 138.38 59.3282 138.126C58.9204 137.872 58.7642 137.264 59.065 136.744C59.3658 136.224 59.9569 136.08 60.3647 136.334C60.7726 136.588 60.9287 137.197 60.6279 137.717Z" stroke="white" stroke-opacity="0.26" stroke-width="0.64994"/>
<path d="M57.243 160.826C56.9422 161.346 56.3512 161.489 55.9433 161.235C55.5354 160.981 55.3793 160.373 55.6801 159.852C55.9809 159.332 56.5719 159.189 56.9798 159.443C57.3877 159.697 57.5438 160.306 57.243 160.826Z" stroke="white" stroke-opacity="0.26" stroke-width="0.64994"/>
<path d="M59.1655 138.126C55.6236 146.464 53.2802 150.559 52.8607 163.961L55.8406 166.957L57.7856 185.034L54.2129 190.325C59.1054 209.661 60.9215 219.764 59.5385 234.11" stroke="white" stroke-opacity="0.26" stroke-width="0.64994"/>
<path d="M94.2148 120.916C94.0097 121.494 93.4531 121.748 93.0146 121.582C92.576 121.416 92.3099 120.851 92.5149 120.273C92.72 119.694 93.2766 119.441 93.7152 119.607C94.1538 119.773 94.4199 120.338 94.2148 120.916Z" stroke="white" stroke-opacity="0.26" stroke-width="0.64994"/>
<path d="M113.123 81.869C112.918 82.447 112.361 82.7008 111.922 82.5348C111.484 82.3688 111.218 81.8037 111.423 81.2256C111.628 80.6476 112.184 80.3938 112.623 80.5598C113.062 80.7257 113.328 81.2909 113.123 81.869Z" stroke="white" stroke-opacity="0.26" stroke-width="0.64994"/>
<path d="M118.153 89.846C117.948 90.4241 117.391 90.6779 116.952 90.5119C116.514 90.3459 116.248 89.7807 116.453 89.2027C116.658 88.6246 117.214 88.3708 117.653 88.5368C118.092 88.7028 118.358 89.268 118.153 89.846Z" stroke="white" stroke-opacity="0.26" stroke-width="0.64994"/>
<path d="M110.964 89.1542C110.759 89.7323 110.202 89.9861 109.763 89.8201C109.325 89.6541 109.059 89.089 109.264 88.5109C109.469 87.9329 110.026 87.6791 110.464 87.845C110.903 88.011 111.169 88.5762 110.964 89.1542Z" stroke="white" stroke-opacity="0.26" stroke-width="0.64994"/>
<path d="M97.5859 104.02C97.3809 104.598 96.8243 104.852 96.3857 104.686C95.9471 104.52 95.681 103.955 95.8861 103.377C96.0911 102.799 96.6477 102.545 97.0863 102.711C97.5249 102.877 97.791 103.442 97.5859 104.02Z" stroke="white" stroke-opacity="0.26" stroke-width="0.64994"/>
<path d="M86.4008 120.221C86.1957 120.8 85.6391 121.053 85.2005 120.887C84.7619 120.721 84.4958 120.156 84.7009 119.578C84.9059 119 85.4625 118.746 85.9011 118.912C86.3397 119.078 86.6058 119.643 86.4008 120.221Z" stroke="white" stroke-opacity="0.26" stroke-width="0.64994"/>
<path d="M82.9793 124.186C82.7742 124.764 82.2176 125.018 81.779 124.852C81.3404 124.686 81.0743 124.121 81.2794 123.543C81.4845 122.965 82.0411 122.711 82.4797 122.877C82.9182 123.043 83.1843 123.608 82.9793 124.186Z" stroke="white" stroke-opacity="0.26" stroke-width="0.64994"/>
<path d="M74.2408 126.804C74.0357 127.382 73.4791 127.636 73.0405 127.47C72.602 127.304 72.3359 126.739 72.5409 126.161C72.746 125.582 73.3026 125.329 73.7412 125.495C74.1797 125.661 74.4458 126.226 74.2408 126.804Z" stroke="white" stroke-opacity="0.26" stroke-width="0.64994"/>
<path d="M78.1948 151.223C78.1293 151.843 77.6466 152.231 77.1889 152.184C76.7312 152.138 76.3401 151.66 76.4056 151.041C76.4712 150.421 76.9538 150.033 77.4115 150.08C77.8692 150.126 78.2604 150.604 78.1948 151.223Z" stroke="white" stroke-opacity="0.26" stroke-width="0.64994"/>
<path d="M90.9329 212.942C90.8673 213.562 90.3847 213.95 89.927 213.903C89.4693 213.856 89.0781 213.379 89.1437 212.759C89.2092 212.139 89.6918 211.751 90.1496 211.798C90.6073 211.845 90.9984 212.322 90.9329 212.942Z" stroke="white" stroke-opacity="0.26" stroke-width="0.64994"/>
<path d="M89.7243 223.546C89.6587 224.166 89.1761 224.554 88.7184 224.507C88.2607 224.461 87.8696 223.983 87.9351 223.363C88.0007 222.744 88.4833 222.356 88.941 222.402C89.3987 222.449 89.7898 222.926 89.7243 223.546Z" stroke="white" stroke-opacity="0.26" stroke-width="0.64994"/>
<path d="M89.9238 214.007C90.2288 217.364 90.2245 219.214 89.0186 222.292" stroke="white" stroke-opacity="0.26" stroke-width="0.64994"/>
<path d="M77.5137 216.709C77.5917 217.328 77.2131 217.83 76.7587 217.902C76.3043 217.974 75.8168 217.61 75.7389 216.991C75.661 216.372 76.0396 215.871 76.4939 215.799C76.9483 215.726 77.4358 216.09 77.5137 216.709Z" stroke="white" stroke-opacity="0.26" stroke-width="0.64994"/>
<path d="M76.9724 217.933C78.0324 222.544 77.5109 227.071 75.3293 237.322" stroke="white" stroke-opacity="0.26" stroke-width="0.64994"/>
<path d="M81.5246 194.517C81.6245 195.132 81.2646 195.649 80.8127 195.739C80.3608 195.83 79.861 195.485 79.7611 194.87C79.6613 194.255 80.0212 193.738 80.4731 193.648C80.925 193.557 81.4247 193.902 81.5246 194.517Z" stroke="white" stroke-opacity="0.26" stroke-width="0.64994"/>
<path d="M82.8581 124.461L83.9608 126.786C78.7929 136.699 76.5805 141.736 73.7464 151.612L76.2628 155.932C75.8431 170.83 76.2483 179.12 80.3147 193.578" stroke="white" stroke-opacity="0.26" stroke-width="0.64994"/>
<path d="M85.9692 120.992L87.7064 125.807C82.5838 136.571 80.3785 138.914 77.8025 150.136" stroke="white" stroke-opacity="0.26" stroke-width="0.64994"/>
<path d="M93.0022 121.683C90.9893 126.317 90.3702 127.807 88.9712 129.625L85.2269 130.936" stroke="white" stroke-opacity="0.26" stroke-width="0.64994"/>
<path d="M27.23 170.38C27.025 170.958 26.4684 171.212 26.0298 171.046C25.5912 170.88 25.3251 170.315 25.5301 169.737C25.7352 169.159 26.2918 168.905 26.7304 169.071C27.169 169.237 27.4351 169.802 27.23 170.38Z" stroke="white" stroke-opacity="0.26" stroke-width="0.64994"/>
<path d="M26.9286 164.355L26.6335 168.83" stroke="white" stroke-opacity="0.26" stroke-width="0.64994"/>
<path d="M27.8277 163.42C27.6226 163.998 27.066 164.252 26.6274 164.086C26.1888 163.92 25.9227 163.355 26.1278 162.777C26.3328 162.199 26.8894 161.945 27.328 162.111C27.7666 162.277 28.0327 162.842 27.8277 163.42Z" stroke="white" stroke-opacity="0.26" stroke-width="0.64994"/>
<path d="M34.0227 140.678C30.6596 147.476 29.0666 151.765 28.1557 158.558L30.6727 163.044L29.7733 172.821L25.7288 177.281C23.5887 189.374 23.6789 197.875 23.0404 209.098" stroke="white" stroke-opacity="0.26" stroke-width="0.64994"/>
<path d="M97.6207 104.13L101.058 104.144L105.519 86.2581C108.526 85.2951 110.14 84.8167 111.752 82.3044" stroke="white" stroke-opacity="0.26" stroke-width="0.64994"/>
<path d="M106.479 92.2297C110.868 92.5758 113.117 92.2518 116.627 90.4467" stroke="white" stroke-opacity="0.26" stroke-width="0.64994"/>
<path d="M60.5648 136.474C64.338 131.371 67.1173 129.554 72.5577 127.072" stroke="white" stroke-opacity="0.26" stroke-width="0.64994"/>
</g>
<path d="M63.2564 120.648C62.8425 121.053 62.2354 121.032 61.898 120.662C61.5606 120.292 61.5749 119.663 61.9887 119.258C62.4026 118.853 63.0097 118.874 63.3471 119.244C63.6845 119.614 63.6702 120.243 63.2564 120.648Z" stroke="white" stroke-opacity="0.26" stroke-width="0.64994"/>
<path d="M77.2731 109.432C76.8592 109.837 76.2522 109.816 75.9147 109.446C75.5773 109.075 75.5916 108.446 76.0055 108.041C76.4193 107.636 77.0264 107.657 77.3638 108.027C77.7012 108.398 77.687 109.027 77.2731 109.432Z" stroke="white" stroke-opacity="0.26" stroke-width="0.64994"/>
<path d="M35.2113 140.098C34.7975 140.503 34.1904 140.482 33.853 140.112C33.5156 139.741 33.5299 139.112 33.9437 138.707C34.3576 138.302 34.9647 138.323 35.3021 138.693C35.6395 139.064 35.6252 139.693 35.2113 140.098Z" stroke="white" stroke-opacity="0.26" stroke-width="0.64994"/>
<path d="M90.3457 96.5535C89.9319 96.9585 89.3248 96.9375 88.9874 96.5674C88.65 96.1973 88.6643 95.5682 89.0781 95.1632C89.492 94.7582 90.0991 94.7792 90.4365 95.1493C90.7739 95.5194 90.7596 96.1485 90.3457 96.5535Z" stroke="white" stroke-opacity="0.26" stroke-width="0.64994"/>
<path d="M89.3122 96.8029C86.7201 100.214 84.6473 102.421 81.6873 104.564L82.6427 109.209C80.5049 111.416 64.7544 118.884 63.6222 119.246" stroke="white" stroke-opacity="0.26" stroke-width="0.64994"/>
<path d="M75.9251 109.182C69.4534 112.949 65.7337 114.754 58.9285 117.403L57.7038 123.863C47.5832 126.604 41.6356 129.767 35.4199 138.363" stroke="white" stroke-opacity="0.26" stroke-width="0.64994"/>
<path d="M100.066 99.0569C99.8614 99.635 99.3048 99.8888 98.8662 99.7228C98.4276 99.5568 98.1615 98.9917 98.3666 98.4136C98.5716 97.8356 99.1282 97.5818 99.5668 97.7478C100.005 97.9137 100.272 98.4789 100.066 99.0569Z" stroke="white" stroke-opacity="0.26" stroke-width="0.64994"/>
<path d="M96.4212 116.798C96.3053 117.408 95.793 117.75 95.3394 117.661C94.8858 117.572 94.5358 117.06 94.6516 116.451C94.7675 115.841 95.2799 115.498 95.7335 115.587C96.1871 115.676 96.5371 116.188 96.4212 116.798Z" stroke="white" stroke-opacity="0.26" stroke-width="0.64994"/>
<path d="M60.6279 137.717C60.3272 138.237 59.7361 138.38 59.3282 138.126C58.9204 137.872 58.7642 137.264 59.065 136.744C59.3658 136.223 59.9569 136.08 60.3647 136.334C60.7726 136.588 60.9287 137.197 60.6279 137.717Z" stroke="white" stroke-opacity="0.26" stroke-width="0.64994"/>
<path d="M57.243 160.826C56.9422 161.346 56.3512 161.489 55.9433 161.235C55.5354 160.981 55.3793 160.372 55.6801 159.852C55.9808 159.332 56.5719 159.189 56.9798 159.443C57.3877 159.697 57.5438 160.305 57.243 160.826Z" stroke="white" stroke-opacity="0.26" stroke-width="0.64994"/>
<path d="M59.1655 138.126C55.6236 146.464 53.2802 150.559 52.8607 163.961L55.8406 166.957L57.7856 185.034L54.2129 190.324C59.1054 209.66 60.9215 219.764 59.5385 234.11" stroke="white" stroke-opacity="0.26" stroke-width="0.64994"/>
<path d="M94.2148 120.916C94.0097 121.494 93.4531 121.748 93.0146 121.582C92.576 121.416 92.3099 120.851 92.5149 120.272C92.72 119.694 93.2766 119.441 93.7152 119.607C94.1538 119.773 94.4199 120.338 94.2148 120.916Z" stroke="white" stroke-opacity="0.26" stroke-width="0.64994"/>
<path d="M113.123 81.8687C112.918 82.4468 112.361 82.7006 111.922 82.5346C111.484 82.3686 111.218 81.8035 111.423 81.2254C111.628 80.6473 112.184 80.3935 112.623 80.5595C113.062 80.7255 113.328 81.2907 113.123 81.8687Z" stroke="white" stroke-opacity="0.26" stroke-width="0.64994"/>
<path d="M118.153 89.8459C117.948 90.424 117.391 90.6778 116.952 90.5118C116.514 90.3458 116.248 89.7807 116.453 89.2026C116.658 88.6246 117.214 88.3708 117.653 88.5368C118.092 88.7027 118.358 89.2679 118.153 89.8459Z" stroke="white" stroke-opacity="0.26" stroke-width="0.64994"/>
<path d="M110.964 89.1541C110.759 89.7322 110.202 89.986 109.763 89.82C109.325 89.654 109.059 89.0889 109.264 88.5108C109.469 87.9327 110.026 87.6789 110.464 87.8449C110.903 88.0109 111.169 88.5761 110.964 89.1541Z" stroke="white" stroke-opacity="0.26" stroke-width="0.64994"/>
<path d="M97.5859 104.02C97.3809 104.598 96.8243 104.852 96.3857 104.686C95.9471 104.52 95.681 103.955 95.8861 103.377C96.0911 102.799 96.6477 102.545 97.0863 102.711C97.5249 102.877 97.791 103.442 97.5859 104.02Z" stroke="white" stroke-opacity="0.26" stroke-width="0.64994"/>
<path d="M86.4008 120.221C86.1957 120.799 85.6391 121.053 85.2005 120.887C84.7619 120.721 84.4958 120.156 84.7009 119.578C84.9059 119 85.4625 118.746 85.9011 118.912C86.3397 119.078 86.6058 119.643 86.4008 120.221Z" stroke="white" stroke-opacity="0.26" stroke-width="0.64994"/>
<path d="M82.9793 124.186C82.7742 124.764 82.2176 125.018 81.779 124.852C81.3404 124.686 81.0743 124.121 81.2794 123.543C81.4845 122.965 82.0411 122.711 82.4797 122.877C82.9182 123.043 83.1843 123.608 82.9793 124.186Z" stroke="white" stroke-opacity="0.26" stroke-width="0.64994"/>
<path d="M74.2408 126.804C74.0357 127.382 73.4791 127.636 73.0405 127.47C72.602 127.304 72.3359 126.739 72.5409 126.16C72.746 125.582 73.3026 125.329 73.7412 125.495C74.1797 125.661 74.4458 126.226 74.2408 126.804Z" stroke="white" stroke-opacity="0.26" stroke-width="0.64994"/>
<path d="M78.1948 151.223C78.1293 151.843 77.6466 152.231 77.1889 152.184C76.7312 152.138 76.3401 151.66 76.4056 151.041C76.4712 150.421 76.9538 150.033 77.4115 150.08C77.8692 150.126 78.2604 150.604 78.1948 151.223Z" stroke="white" stroke-opacity="0.26" stroke-width="0.64994"/>
<path d="M90.9329 212.942C90.8673 213.561 90.3847 213.949 89.927 213.903C89.4693 213.856 89.0781 213.379 89.1437 212.759C89.2092 212.139 89.6918 211.751 90.1496 211.798C90.6073 211.844 90.9984 212.322 90.9329 212.942Z" stroke="white" stroke-opacity="0.26" stroke-width="0.64994"/>
<path d="M89.7243 223.546C89.6587 224.166 89.1761 224.554 88.7184 224.507C88.2607 224.46 87.8696 223.983 87.9351 223.363C88.0007 222.743 88.4833 222.356 88.941 222.402C89.3987 222.449 89.7898 222.926 89.7243 223.546Z" stroke="white" stroke-opacity="0.26" stroke-width="0.64994"/>
<path d="M89.9239 214.007C90.2289 217.364 90.2246 219.214 89.0188 222.292" stroke="white" stroke-opacity="0.26" stroke-width="0.64994"/>
<path d="M77.5137 216.709C77.5917 217.328 77.2131 217.83 76.7587 217.902C76.3043 217.974 75.8168 217.61 75.7389 216.991C75.661 216.372 76.0396 215.871 76.4939 215.799C76.9483 215.726 77.4358 216.09 77.5137 216.709Z" stroke="white" stroke-opacity="0.26" stroke-width="0.64994"/>
<path d="M76.9724 217.933C78.0324 222.544 77.5109 227.071 75.3293 237.322" stroke="white" stroke-opacity="0.26" stroke-width="0.64994"/>
<path d="M81.5246 194.517C81.6245 195.132 81.2646 195.649 80.8127 195.739C80.3608 195.83 79.861 195.485 79.7611 194.87C79.6613 194.255 80.0212 193.738 80.4731 193.648C80.925 193.557 81.4247 193.902 81.5246 194.517Z" stroke="white" stroke-opacity="0.26" stroke-width="0.64994"/>
<path d="M82.8581 124.461L83.9608 126.786C78.7929 136.699 76.5805 141.736 73.7464 151.611L76.2628 155.932C75.8431 170.83 76.2483 179.12 80.3147 193.578" stroke="white" stroke-opacity="0.26" stroke-width="0.64994"/>
<path d="M85.9692 120.992L87.7064 125.807C82.5838 136.571 80.3785 138.914 77.8025 150.136" stroke="white" stroke-opacity="0.26" stroke-width="0.64994"/>
<path d="M93.0022 121.683C90.9893 126.317 90.3702 127.807 88.9712 129.624L85.2269 130.936" stroke="white" stroke-opacity="0.26" stroke-width="0.64994"/>
<path d="M27.23 170.38C27.0249 170.958 26.4683 171.212 26.0297 171.046C25.5912 170.88 25.3251 170.315 25.5301 169.737C25.7352 169.159 26.2918 168.905 26.7304 169.071C27.169 169.237 27.4351 169.802 27.23 170.38Z" stroke="white" stroke-opacity="0.26" stroke-width="0.64994"/>
<path d="M26.9286 164.355L26.6335 168.83" stroke="white" stroke-opacity="0.26" stroke-width="0.64994"/>
<path d="M27.8277 163.42C27.6226 163.998 27.066 164.252 26.6274 164.086C26.1888 163.92 25.9227 163.355 26.1278 162.777C26.3328 162.199 26.8894 161.945 27.328 162.111C27.7666 162.277 28.0327 162.842 27.8277 163.42Z" stroke="white" stroke-opacity="0.26" stroke-width="0.64994"/>
<path d="M34.0227 140.678C30.6596 147.476 29.0666 151.765 28.1557 158.558L30.6727 163.044L29.7733 172.821L25.7288 177.281C23.5887 189.373 23.6789 197.875 23.0404 209.098" stroke="white" stroke-opacity="0.26" stroke-width="0.64994"/>
<path d="M97.6207 104.13L101.058 104.144L105.519 86.2581C108.526 85.2951 110.14 84.8166 111.752 82.3044" stroke="white" stroke-opacity="0.26" stroke-width="0.64994"/>
<path d="M106.479 92.2297C110.868 92.5758 113.117 92.2518 116.627 90.4467" stroke="white" stroke-opacity="0.26" stroke-width="0.64994"/>
<path d="M60.5648 136.473C64.338 131.371 67.1173 129.554 72.5577 127.072" stroke="white" stroke-opacity="0.26" stroke-width="0.64994"/>
<g filter="url(#filter4_f_1858_267)">
<path d="M76.2096 106.371C75.7216 106.849 75.0008 106.828 74.5972 106.385C74.1936 105.942 74.2143 105.196 74.7023 104.718C75.1903 104.241 75.9111 104.262 76.3147 104.704C76.7183 105.147 76.6976 105.894 76.2096 106.371Z" stroke="white" stroke-width="0.64994"/>
<path d="M92.1941 93.5801C91.7062 94.0576 90.9854 94.0365 90.5818 93.5938C90.1782 93.1511 90.1989 92.4043 90.6868 91.9268C91.1748 91.4493 91.8956 91.4704 92.2992 91.9131C92.7028 92.3558 92.6821 93.1026 92.1941 93.5801Z" stroke="white" stroke-width="0.64994"/>
<path d="M44.2277 128.551C43.7397 129.029 43.0189 129.008 42.6153 128.565C42.2117 128.122 42.2324 127.375 42.7204 126.898C43.2084 126.42 43.9292 126.442 44.3328 126.884C44.7364 127.327 44.7157 128.074 44.2277 128.551Z" stroke="white" stroke-width="0.64994"/>
<path d="M107.102 78.8941C106.614 79.3716 105.893 79.3504 105.49 78.9078C105.086 78.4651 105.107 77.7183 105.595 77.2408C106.083 76.7633 106.804 76.7844 107.207 77.2271C107.611 77.6698 107.59 78.4165 107.102 78.8941Z" stroke="white" stroke-width="0.64994"/>
<path d="M100.051 54.2023C99.795 53.5272 100.08 52.8264 100.595 52.5955C101.11 52.3646 101.766 52.6438 102.021 53.3189C102.277 53.994 101.992 54.6949 101.477 54.9258C100.962 55.1567 100.306 54.8774 100.051 54.2023Z" stroke="white" stroke-width="0.64994"/>
<path d="M105.893 79.1445C102.937 83.0346 100.573 85.5508 97.1972 87.9949L98.2867 93.2925C95.8488 95.8087 77.8871 104.326 76.596 104.738" stroke="white" stroke-width="0.64994"/>
<path d="M90.626 93.2619C83.2457 97.5575 79.0038 99.6155 71.2433 102.637L69.8467 110.004C58.3052 113.13 51.5226 116.737 44.4344 126.539" stroke="white" stroke-width="0.64994"/>
<path d="M35.2584 137.523C35.0178 138.201 34.3598 138.509 33.8317 138.309C33.3036 138.109 32.9938 137.435 33.2344 136.757C33.475 136.079 34.133 135.771 34.6611 135.971C35.1892 136.171 35.4991 136.845 35.2584 137.523Z" stroke="white" stroke-width="0.64994"/>
<path d="M31.5156 147.929C31.275 148.608 30.617 148.915 30.0889 148.715C29.5608 148.515 29.2509 147.842 29.4915 147.163C29.7322 146.485 30.3902 146.177 30.9183 146.377C31.4464 146.577 31.7562 147.251 31.5156 147.929Z" stroke="white" stroke-width="0.64994"/>
<path d="M102.194 89.2293C101.953 89.9076 101.295 90.2152 100.767 90.0153C100.239 89.8154 99.9294 89.1416 100.17 88.4633C100.411 87.785 101.069 87.4773 101.597 87.6772C102.125 87.8771 102.435 88.551 102.194 89.2293Z" stroke="white" stroke-width="0.64994"/>
<path d="M118.199 81.7313C117.958 82.4096 117.3 82.7172 116.772 82.5174C116.244 82.3175 115.934 81.6436 116.175 80.9653C116.416 80.287 117.074 79.9794 117.602 80.1792C118.13 80.3791 118.44 81.053 118.199 81.7313Z" stroke="white" stroke-width="0.64994"/>
<path d="M114.045 101.955C113.909 102.67 113.304 103.083 112.757 102.976C112.211 102.868 111.801 102.257 111.937 101.542C112.073 100.827 112.677 100.414 113.224 100.521C113.771 100.628 114.18 101.24 114.045 101.955Z" stroke="white" stroke-width="0.64994"/>
<path d="M88.3291 130.429C88.1932 131.144 87.589 131.557 87.042 131.449C86.4951 131.342 86.0855 130.73 86.2214 130.015C86.3573 129.3 86.9615 128.887 87.5084 128.995C88.0554 129.102 88.4649 129.714 88.3291 130.429Z" stroke="white" stroke-width="0.64994"/>
<path d="M90.4461 125.144C90.3103 125.859 89.7061 126.272 89.1591 126.165C88.6121 126.057 88.2026 125.446 88.3385 124.731C88.4743 124.016 89.0785 123.603 89.6255 123.71C90.1725 123.817 90.582 124.429 90.4461 125.144Z" stroke="white" stroke-width="0.64994"/>
<path d="M73.2204 125.826C72.8669 126.438 72.1665 126.614 71.6766 126.308C71.1867 126.003 71.0068 125.279 71.3603 124.668C71.7138 124.057 72.4142 123.881 72.9041 124.186C73.394 124.491 73.5739 125.215 73.2204 125.826Z" stroke="white" stroke-width="0.64994"/>
<path d="M69.3603 152.179C69.0067 152.791 68.3064 152.967 67.8164 152.661C67.3265 152.356 67.1466 151.632 67.5002 151.021C67.8537 150.41 68.5541 150.234 69.044 150.539C69.5339 150.844 69.7138 151.568 69.3603 152.179Z" stroke="white" stroke-width="0.64994"/>
<path d="M71.5133 126.269C67.4742 135.778 64.8018 140.447 64.3233 155.731L67.7216 159.147L69.9396 179.762L65.8654 185.795C71.4448 207.846 73.5158 219.368 71.9387 235.727" stroke="white" stroke-width="0.64994"/>
<path d="M89.1505 126.15L87.9144 128.981" stroke="white" stroke-width="0.64994"/>
<path d="M86.8549 131.434C82.5785 146.199 78.6505 156.791 83.6601 180.384" stroke="white" stroke-width="0.64994"/>
<path d="M40.7271 181.158L39.3724 199.301L34.936 203.82L34.9779 214.596" stroke="white" stroke-width="0.64994"/>
<path d="M82.9562 182.649L79.7648 186.607C82.2145 194.483 83.3014 198.827 84.8304 206.477" stroke="white" stroke-width="0.64994"/>
<path d="M86.4006 152.038C84.7239 172.62 89.9739 191.875 95.7226 212.758C98.1756 218.705 98.9785 222.762 93.8621 238.272" stroke="white" stroke-width="0.64994"/>
<path d="M111.526 106.659C111.286 107.337 110.627 107.644 110.099 107.445C109.571 107.245 109.261 106.571 109.502 105.893C109.743 105.214 110.401 104.907 110.929 105.107C111.457 105.306 111.767 105.98 111.526 106.659Z" stroke="white" stroke-width="0.64994"/>
<path d="M133.088 62.13C132.848 62.8083 132.19 63.116 131.662 62.9161C131.133 62.7162 130.824 62.0424 131.064 61.364C131.305 60.6857 131.963 60.3781 132.491 60.578C133.019 60.7779 133.329 61.4517 133.088 62.13Z" stroke="white" stroke-width="0.64994"/>
<path d="M138.825 71.227C138.584 71.9053 137.926 72.2129 137.398 72.013C136.87 71.8132 136.56 71.1393 136.801 70.461C137.041 69.7827 137.699 69.4751 138.227 69.6749C138.755 69.8748 139.065 70.5487 138.825 71.227Z" stroke="white" stroke-width="0.64994"/>
<path d="M130.626 70.4382C130.386 71.1165 129.728 71.4241 129.2 71.2243C128.671 71.0244 128.362 70.3505 128.602 69.6722C128.843 68.9939 129.501 68.6863 130.029 68.8862C130.557 69.086 130.867 69.7599 130.626 70.4382Z" stroke="white" stroke-width="0.64994"/>
<path d="M115.371 87.3913C115.13 88.0696 114.472 88.3772 113.944 88.1774C113.416 87.9775 113.106 87.3036 113.347 86.6253C113.587 85.947 114.245 85.6394 114.773 85.8393C115.301 86.0391 115.611 86.713 115.371 87.3913Z" stroke="white" stroke-width="0.64994"/>
<path d="M102.615 105.867C102.374 106.545 101.716 106.853 101.188 106.653C100.66 106.453 100.35 105.779 100.591 105.101C100.832 104.423 101.49 104.115 102.018 104.315C102.546 104.515 102.856 105.189 102.615 105.867Z" stroke="white" stroke-width="0.64994"/>
<path d="M98.7131 110.388C98.4725 111.067 97.8145 111.374 97.2864 111.174C96.7583 110.975 96.4484 110.301 96.689 109.622C96.9297 108.944 97.5877 108.636 98.1158 108.836C98.6439 109.036 98.9537 109.71 98.7131 110.388Z" stroke="white" stroke-width="0.64994"/>
<path d="M88.7479 113.373C88.5073 114.052 87.8493 114.359 87.3212 114.159C86.7931 113.96 86.4832 113.286 86.7238 112.607C86.9645 111.929 87.6225 111.621 88.1506 111.821C88.6787 112.021 88.9885 112.695 88.7479 113.373Z" stroke="white" stroke-width="0.64994"/>
<path d="M93.2601 141.21C93.1833 141.936 92.6149 142.403 92.0628 142.346C91.5106 142.29 91.0521 141.718 91.1289 140.992C91.2057 140.265 91.774 139.799 92.3262 139.855C92.8783 139.912 93.3369 140.483 93.2601 141.21Z" stroke="white" stroke-width="0.64994"/>
<path d="M87.5971 151.017C87.5203 151.744 86.952 152.21 86.3999 152.154C85.8477 152.097 85.3891 151.526 85.466 150.799C85.5428 150.073 86.1111 149.606 86.6633 149.663C87.2154 149.719 87.674 150.291 87.5971 151.017Z" stroke="white" stroke-width="0.64994"/>
<path d="M97.2793 166.936C97.2025 167.662 96.6342 168.129 96.082 168.072C95.5299 168.016 95.0713 167.444 95.1482 166.718C95.225 165.991 95.7933 165.525 96.3454 165.581C96.8976 165.638 97.3562 166.209 97.2793 166.936Z" stroke="white" stroke-width="0.64994"/>
<path d="M107.786 211.592C107.709 212.319 107.141 212.785 106.589 212.729C106.037 212.672 105.578 212.101 105.655 211.374C105.732 210.648 106.3 210.181 106.852 210.238C107.404 210.294 107.863 210.866 107.786 211.592Z" stroke="white" stroke-width="0.64994"/>
<path d="M106.408 223.685C106.331 224.412 105.763 224.878 105.21 224.822C104.658 224.766 104.2 224.194 104.277 223.468C104.353 222.741 104.922 222.275 105.474 222.331C106.026 222.387 106.485 222.959 106.408 223.685Z" stroke="white" stroke-width="0.64994"/>
<path d="M106.59 212.802C106.938 216.631 106.933 218.74 105.558 222.25" stroke="white" stroke-width="0.64994"/>
<path d="M96.4406 168.336C99.2116 182.578 101.497 190.531 106.559 204.673L113.534 211.695L113.596 227.575L102.736 229.611L97.9977 248.119" stroke="white" stroke-width="0.64994"/>
<path d="M84.8568 181.355C84.9482 182.08 84.5045 182.68 83.9565 182.767C83.4084 182.854 82.8342 182.416 82.7428 181.691C82.6515 180.965 83.0951 180.365 83.6432 180.278C84.1912 180.191 84.7655 180.629 84.8568 181.355Z" stroke="white" stroke-width="0.64994"/>
<path d="M85.6022 187.493C85.6936 188.218 85.2499 188.818 84.7019 188.905C84.1539 188.992 83.5796 188.554 83.4883 187.829C83.3969 187.103 83.8405 186.503 84.3886 186.416C84.9366 186.329 85.5109 186.767 85.6022 187.493Z" stroke="white" stroke-width="0.64994"/>
<path d="M86.6921 192.79C86.7834 193.516 86.3398 194.116 85.7917 194.203C85.2437 194.29 84.6694 193.852 84.5781 193.126C84.4867 192.4 84.9304 191.801 85.4784 191.714C86.0264 191.626 86.6007 192.065 86.6921 192.79Z" stroke="white" stroke-width="0.64994"/>
<path d="M88.1364 197.711C88.2278 198.437 87.7841 199.037 87.2361 199.124C86.688 199.211 86.1138 198.773 86.0224 198.047C85.9311 197.321 86.3747 196.722 86.9228 196.634C87.4708 196.547 88.0451 196.986 88.1364 197.711Z" stroke="white" stroke-width="0.64994"/>
<path d="M87.4742 199.114C88.9481 203.891 89.623 206.497 90.1922 210.846L86.2844 213.855C89.3062 220.118 88.1006 226.015 85.4833 236.915" stroke="white" stroke-width="0.64994"/>
<path d="M86.038 207.911C86.1293 208.637 85.6857 209.237 85.1377 209.324C84.5896 209.411 84.0153 208.973 83.924 208.247C83.8327 207.521 84.2763 206.922 84.8243 206.834C85.3724 206.747 85.9467 207.186 86.038 207.911Z" stroke="white" stroke-width="0.64994"/>
<path d="M92.4826 215.877C92.5739 216.602 92.1303 217.202 91.5822 217.289C91.0342 217.376 90.4599 216.938 90.3686 216.213C90.2773 215.487 90.7209 214.887 91.2689 214.8C91.817 214.713 92.3913 215.151 92.4826 215.877Z" stroke="white" stroke-width="0.64994"/>
<path d="M91.8206 217.28C93.0293 222.538 92.4346 227.701 89.9468 239.391" stroke="white" stroke-width="0.64994"/>
<path d="M98.4626 196.431C98.3858 197.158 97.8175 197.624 97.2653 197.568C96.7132 197.512 96.2546 196.94 96.3314 196.214C96.4083 195.487 96.9766 195.021 97.5287 195.077C98.0809 195.133 98.5394 195.705 98.4626 196.431Z" stroke="white" stroke-width="0.64994"/>
<path d="M97.979 197.455C99.4146 200.107 99.4138 199.918 100.863 206.162L95.7217 212.569" stroke="white" stroke-width="0.64994"/>
<path d="M97.0565 190.567C97.1736 191.288 96.7522 191.906 96.2073 192.015C95.6623 192.124 95.0732 191.709 94.9562 190.988C94.8391 190.267 95.2604 189.649 95.8054 189.54C96.3503 189.431 96.9394 189.846 97.0565 190.567Z" stroke="white" stroke-width="0.64994"/>
<path d="M98.5324 110.686L99.7899 113.337C93.8965 124.642 91.3735 130.386 88.1415 141.647L91.0112 146.574C90.5326 163.564 90.9946 173.018 95.6319 189.506" stroke="white" stroke-width="0.64994"/>
<path d="M102.08 106.73L104.061 112.22C98.2197 124.495 95.7048 127.168 92.7672 139.965" stroke="white" stroke-width="0.64994"/>
<path d="M110.1 107.518C107.805 112.802 107.099 114.501 105.504 116.574L101.234 118.069" stroke="white" stroke-width="0.64994"/>
<path d="M30.0894 148.6L27.6562 164.281L21.6112 167.47L19.8825 181.075L25.0624 184.498L23.6871 197.348" stroke="white" stroke-width="0.64994"/>
<path d="M35.1379 163.067C34.8973 163.746 34.2393 164.053 33.7112 163.853C33.1831 163.654 32.8732 162.98 33.1138 162.301C33.3544 161.623 34.0125 161.315 34.5406 161.515C35.0687 161.715 35.3785 162.389 35.1379 163.067Z" stroke="white" stroke-width="0.64994"/>
<path d="M41.8446 146.836C41.6039 147.515 40.9459 147.822 40.4178 147.622C39.8897 147.422 39.5799 146.749 39.8205 146.07C40.0611 145.392 40.7191 145.084 41.2472 145.284C41.7753 145.484 42.0852 146.158 41.8446 146.836Z" stroke="white" stroke-width="0.64994"/>
<path d="M36.3936 195.977C36.3732 196.708 35.8429 197.223 35.2891 197.215C34.7352 197.207 34.2341 196.677 34.2544 195.945C34.2748 195.213 34.8051 194.699 35.3589 194.707C35.9128 194.715 36.4139 195.245 36.3936 195.977Z" stroke="white" stroke-width="0.64994"/>
<path d="M41.9903 180.122C41.9699 180.853 41.4396 181.368 40.8858 181.36C40.332 181.351 39.8308 180.822 39.8512 180.09C39.8716 179.358 40.4018 178.844 40.9557 178.852C41.5095 178.86 42.0107 179.39 41.9903 180.122Z" stroke="white" stroke-width="0.64994"/>
<path d="M40.7744 147.508L44.5371 153.005L42.8157 168.5L36.7818 174.525L35.614 194.938" stroke="white" stroke-width="0.64994"/>
<path d="M34.7509 156.18L34.4144 161.283" stroke="white" stroke-width="0.64994"/>
<path d="M35.8194 155.13C35.5788 155.809 34.9208 156.116 34.3927 155.916C33.8645 155.716 33.5547 155.043 33.7953 154.364C34.0359 153.686 34.6939 153.378 35.2221 153.578C35.7502 153.778 36.06 154.452 35.8194 155.13Z" stroke="white" stroke-width="0.64994"/>
<path d="M63.7783 107.144C48.3774 111.941 41.8136 117.833 35.0288 135.953" stroke="white" stroke-width="0.64994"/>
<path d="M42.841 129.179C39.0058 136.932 37.1891 141.822 36.1503 149.569L39.0207 154.685L37.9951 165.834L33.3828 170.92C30.9422 184.711 31.0451 194.406 30.317 207.204" stroke="white" stroke-width="0.64994"/>
<path d="M33.5381 142.416C33.2839 143.108 32.5591 143.479 31.9194 143.245C31.2796 143.011 30.9671 142.261 31.2214 141.569C31.4756 140.877 32.2003 140.505 32.8401 140.739C33.4798 140.973 33.7923 141.724 33.5381 142.416Z" stroke="white" stroke-width="0.64994"/>
<path d="M106.953 77.0692L109.75 63.2801C106.24 60.0838 103.728 59.7958 101.701 54.9301" stroke="white" stroke-width="0.64994"/>
<path d="M65.881 107.464C65.393 107.942 64.6722 107.921 64.2686 107.478C63.865 107.035 63.8857 106.289 64.3737 105.811C64.8616 105.334 65.5824 105.355 65.986 105.797C66.3896 106.24 66.3689 106.987 65.881 107.464Z" stroke="white" stroke-width="0.64994"/>
<path d="M115.367 87.5002L119.287 87.5159L124.374 67.1193C127.804 66.0212 129.645 65.4755 131.483 62.6106" stroke="white" stroke-width="0.64994"/>
<path d="M125.47 73.9294C130.474 74.324 133.039 73.9546 137.042 71.8961" stroke="white" stroke-width="0.64994"/>
<path d="M73.1097 124.384C77.4125 118.565 80.582 116.493 86.7861 113.663" stroke="white" stroke-width="0.64994"/>
</g>
<path d="M76.2096 106.371C75.7216 106.849 75.0008 106.828 74.5972 106.385C74.1936 105.942 74.2143 105.196 74.7023 104.718C75.1903 104.241 75.9111 104.262 76.3147 104.704C76.7183 105.147 76.6976 105.894 76.2096 106.371Z" stroke="white" stroke-width="0.64994"/>
<path d="M92.1941 93.5801C91.7062 94.0576 90.9854 94.0365 90.5818 93.5938C90.1782 93.1511 90.1989 92.4043 90.6868 91.9268C91.1748 91.4493 91.8956 91.4704 92.2992 91.9131C92.7028 92.3558 92.6821 93.1026 92.1941 93.5801Z" stroke="white" stroke-width="0.64994"/>
<path d="M44.2277 128.551C43.7397 129.029 43.0189 129.008 42.6153 128.565C42.2117 128.122 42.2324 127.375 42.7204 126.898C43.2084 126.42 43.9292 126.442 44.3328 126.884C44.7364 127.327 44.7157 128.074 44.2277 128.551Z" stroke="white" stroke-width="0.64994"/>
<path d="M107.102 78.8941C106.614 79.3716 105.893 79.3504 105.49 78.9078C105.086 78.4651 105.107 77.7183 105.595 77.2408C106.083 76.7633 106.804 76.7844 107.207 77.2271C107.611 77.6698 107.59 78.4165 107.102 78.8941Z" stroke="white" stroke-width="0.64994"/>
<path d="M100.051 54.2023C99.795 53.5272 100.08 52.8264 100.595 52.5955C101.11 52.3646 101.766 52.6438 102.021 53.3189C102.277 53.994 101.992 54.6949 101.477 54.9258C100.962 55.1567 100.306 54.8774 100.051 54.2023Z" stroke="white" stroke-width="0.64994"/>
<path d="M105.893 79.1445C102.937 83.0346 100.573 85.5508 97.1972 87.9949L98.2867 93.2925C95.8488 95.8087 77.8871 104.326 76.596 104.738" stroke="white" stroke-width="0.64994"/>
<path d="M90.626 93.2619C83.2457 97.5575 79.0038 99.6155 71.2433 102.637L69.8467 110.004C58.3052 113.13 51.5226 116.737 44.4344 126.539" stroke="white" stroke-width="0.64994"/>
<path d="M35.2584 137.523C35.0178 138.201 34.3598 138.509 33.8317 138.309C33.3036 138.109 32.9938 137.435 33.2344 136.757C33.475 136.079 34.133 135.771 34.6611 135.971C35.1892 136.171 35.4991 136.845 35.2584 137.523Z" stroke="white" stroke-width="0.64994"/>
<path d="M31.5156 147.929C31.275 148.608 30.617 148.915 30.0889 148.715C29.5608 148.515 29.2509 147.842 29.4915 147.163C29.7322 146.485 30.3902 146.177 30.9183 146.377C31.4464 146.577 31.7562 147.251 31.5156 147.929Z" stroke="white" stroke-width="0.64994"/>
<path d="M102.194 89.2293C101.953 89.9076 101.295 90.2152 100.767 90.0153C100.239 89.8154 99.9294 89.1416 100.17 88.4633C100.411 87.785 101.069 87.4773 101.597 87.6772C102.125 87.8771 102.435 88.551 102.194 89.2293Z" stroke="white" stroke-width="0.64994"/>
<path d="M118.199 81.7313C117.958 82.4096 117.3 82.7172 116.772 82.5174C116.244 82.3175 115.934 81.6436 116.175 80.9653C116.416 80.287 117.074 79.9794 117.602 80.1792C118.13 80.3791 118.44 81.053 118.199 81.7313Z" stroke="white" stroke-width="0.64994"/>
<path d="M114.045 101.955C113.909 102.67 113.304 103.083 112.757 102.976C112.211 102.868 111.801 102.257 111.937 101.542C112.073 100.827 112.677 100.414 113.224 100.521C113.771 100.628 114.18 101.24 114.045 101.955Z" stroke="white" stroke-width="0.64994"/>
<path d="M88.3291 130.429C88.1932 131.144 87.589 131.557 87.042 131.449C86.4951 131.342 86.0855 130.73 86.2214 130.015C86.3573 129.3 86.9615 128.887 87.5084 128.995C88.0554 129.102 88.4649 129.714 88.3291 130.429Z" stroke="white" stroke-width="0.64994"/>
<path d="M90.4461 125.144C90.3103 125.859 89.7061 126.272 89.1591 126.165C88.6121 126.057 88.2026 125.446 88.3385 124.731C88.4743 124.016 89.0785 123.603 89.6255 123.71C90.1725 123.817 90.582 124.429 90.4461 125.144Z" stroke="white" stroke-width="0.64994"/>
<path d="M73.2204 125.826C72.8669 126.438 72.1665 126.614 71.6766 126.308C71.1867 126.003 71.0068 125.279 71.3603 124.668C71.7138 124.057 72.4142 123.881 72.9041 124.186C73.394 124.491 73.5739 125.215 73.2204 125.826Z" stroke="white" stroke-width="0.64994"/>
<path d="M69.3603 152.179C69.0067 152.791 68.3064 152.967 67.8164 152.661C67.3265 152.356 67.1466 151.632 67.5002 151.021C67.8537 150.41 68.5541 150.234 69.044 150.539C69.5339 150.844 69.7138 151.568 69.3603 152.179Z" stroke="white" stroke-width="0.64994"/>
<path d="M71.5133 126.269C67.4742 135.778 64.8018 140.447 64.3233 155.731L67.7216 159.147L69.9396 179.762L65.8654 185.795C71.4448 207.846 73.5158 219.368 71.9387 235.727" stroke="white" stroke-width="0.64994"/>
<path d="M89.1505 126.15L87.9144 128.981" stroke="white" stroke-width="0.64994"/>
<path d="M86.8549 131.434C82.5785 146.199 78.6505 156.791 83.6601 180.384" stroke="white" stroke-width="0.64994"/>
<path d="M40.7271 181.158L39.3724 199.301L34.936 203.82L34.9779 214.596" stroke="white" stroke-width="0.64994"/>
<path d="M82.9562 182.649L79.7648 186.607C82.2145 194.483 83.3014 198.827 84.8304 206.477" stroke="white" stroke-width="0.64994"/>
<path d="M86.4006 152.038C84.7239 172.62 89.9739 191.875 95.7226 212.758C98.1756 218.705 98.9785 222.762 93.8621 238.272" stroke="white" stroke-width="0.64994"/>
<path d="M111.526 106.659C111.286 107.337 110.627 107.644 110.099 107.445C109.571 107.245 109.261 106.571 109.502 105.893C109.743 105.214 110.401 104.907 110.929 105.107C111.457 105.306 111.767 105.98 111.526 106.659Z" stroke="white" stroke-width="0.64994"/>
<path d="M133.088 62.13C132.848 62.8083 132.19 63.116 131.662 62.9161C131.133 62.7162 130.824 62.0424 131.064 61.364C131.305 60.6857 131.963 60.3781 132.491 60.578C133.019 60.7779 133.329 61.4517 133.088 62.13Z" stroke="white" stroke-width="0.64994"/>
<path d="M138.825 71.227C138.584 71.9053 137.926 72.2129 137.398 72.013C136.87 71.8132 136.56 71.1393 136.801 70.461C137.041 69.7827 137.699 69.4751 138.227 69.6749C138.755 69.8748 139.065 70.5487 138.825 71.227Z" stroke="white" stroke-width="0.64994"/>
<path d="M130.626 70.4382C130.386 71.1165 129.728 71.4241 129.2 71.2243C128.671 71.0244 128.362 70.3505 128.602 69.6722C128.843 68.9939 129.501 68.6863 130.029 68.8862C130.557 69.086 130.867 69.7599 130.626 70.4382Z" stroke="white" stroke-width="0.64994"/>
<path d="M115.371 87.3913C115.13 88.0696 114.472 88.3772 113.944 88.1774C113.416 87.9775 113.106 87.3036 113.347 86.6253C113.587 85.947 114.245 85.6394 114.773 85.8393C115.301 86.0391 115.611 86.713 115.371 87.3913Z" stroke="white" stroke-width="0.64994"/>
<path d="M102.615 105.867C102.374 106.545 101.716 106.853 101.188 106.653C100.66 106.453 100.35 105.779 100.591 105.101C100.832 104.423 101.49 104.115 102.018 104.315C102.546 104.515 102.856 105.189 102.615 105.867Z" stroke="white" stroke-width="0.64994"/>
<path d="M98.7131 110.388C98.4725 111.067 97.8145 111.374 97.2864 111.174C96.7583 110.975 96.4484 110.301 96.689 109.622C96.9297 108.944 97.5877 108.636 98.1158 108.836C98.6439 109.036 98.9537 109.71 98.7131 110.388Z" stroke="white" stroke-width="0.64994"/>
<path d="M88.7479 113.373C88.5073 114.052 87.8493 114.359 87.3212 114.159C86.7931 113.96 86.4832 113.286 86.7238 112.607C86.9645 111.929 87.6225 111.621 88.1506 111.821C88.6787 112.021 88.9885 112.695 88.7479 113.373Z" stroke="white" stroke-width="0.64994"/>
<path d="M93.2601 141.21C93.1833 141.936 92.6149 142.403 92.0628 142.346C91.5106 142.29 91.0521 141.718 91.1289 140.992C91.2057 140.265 91.774 139.799 92.3262 139.855C92.8783 139.912 93.3369 140.483 93.2601 141.21Z" stroke="white" stroke-width="0.64994"/>
<path d="M87.5971 151.017C87.5203 151.744 86.952 152.21 86.3999 152.154C85.8477 152.097 85.3891 151.526 85.466 150.799C85.5428 150.073 86.1111 149.606 86.6633 149.663C87.2154 149.719 87.674 150.291 87.5971 151.017Z" stroke="white" stroke-width="0.64994"/>
<path d="M97.2793 166.936C97.2025 167.662 96.6342 168.129 96.082 168.072C95.5299 168.016 95.0713 167.444 95.1482 166.718C95.225 165.991 95.7933 165.525 96.3454 165.581C96.8976 165.638 97.3562 166.209 97.2793 166.936Z" stroke="white" stroke-width="0.64994"/>
<path d="M107.786 211.592C107.709 212.319 107.141 212.785 106.589 212.729C106.037 212.672 105.578 212.101 105.655 211.374C105.732 210.648 106.3 210.181 106.852 210.238C107.404 210.294 107.863 210.866 107.786 211.592Z" stroke="white" stroke-width="0.64994"/>
<path d="M106.408 223.685C106.331 224.412 105.763 224.878 105.21 224.822C104.658 224.766 104.2 224.194 104.277 223.468C104.353 222.741 104.922 222.275 105.474 222.331C106.026 222.387 106.485 222.959 106.408 223.685Z" stroke="white" stroke-width="0.64994"/>
<path d="M106.59 212.802C106.938 216.631 106.933 218.74 105.558 222.25" stroke="white" stroke-width="0.64994"/>
<path d="M96.4406 168.336C99.2116 182.578 101.497 190.531 106.559 204.673L113.534 211.695L113.596 227.575L102.736 229.611L97.9977 248.119" stroke="white" stroke-width="0.64994"/>
<path d="M84.8568 181.355C84.9482 182.08 84.5045 182.68 83.9565 182.767C83.4084 182.854 82.8342 182.416 82.7428 181.691C82.6515 180.965 83.0951 180.365 83.6432 180.278C84.1912 180.191 84.7655 180.629 84.8568 181.355Z" stroke="white" stroke-width="0.64994"/>
<path d="M85.6022 187.493C85.6936 188.218 85.2499 188.818 84.7019 188.905C84.1539 188.992 83.5796 188.554 83.4883 187.829C83.3969 187.103 83.8405 186.503 84.3886 186.416C84.9366 186.329 85.5109 186.767 85.6022 187.493Z" stroke="white" stroke-width="0.64994"/>
<path d="M86.6921 192.79C86.7834 193.516 86.3398 194.116 85.7917 194.203C85.2437 194.29 84.6694 193.852 84.5781 193.126C84.4867 192.4 84.9304 191.801 85.4784 191.714C86.0264 191.626 86.6007 192.065 86.6921 192.79Z" stroke="white" stroke-width="0.64994"/>
<path d="M88.1364 197.711C88.2278 198.437 87.7841 199.037 87.2361 199.124C86.688 199.211 86.1138 198.773 86.0224 198.047C85.9311 197.321 86.3747 196.722 86.9228 196.634C87.4708 196.547 88.0451 196.986 88.1364 197.711Z" stroke="white" stroke-width="0.64994"/>
<path d="M87.4742 199.114C88.9481 203.891 89.623 206.497 90.1922 210.846L86.2844 213.855C89.3062 220.118 88.1006 226.015 85.4833 236.915" stroke="white" stroke-width="0.64994"/>
<path d="M86.038 207.911C86.1293 208.637 85.6857 209.237 85.1377 209.324C84.5896 209.411 84.0153 208.973 83.924 208.247C83.8327 207.521 84.2763 206.922 84.8243 206.834C85.3724 206.747 85.9467 207.186 86.038 207.911Z" stroke="white" stroke-width="0.64994"/>
<path d="M92.4826 215.877C92.5739 216.602 92.1303 217.202 91.5822 217.289C91.0342 217.376 90.4599 216.938 90.3686 216.213C90.2773 215.487 90.7209 214.887 91.2689 214.8C91.817 214.713 92.3913 215.151 92.4826 215.877Z" stroke="white" stroke-width="0.64994"/>
<path d="M91.8206 217.28C93.0293 222.538 92.4346 227.701 89.9468 239.391" stroke="white" stroke-width="0.64994"/>
<path d="M98.4626 196.431C98.3858 197.158 97.8175 197.624 97.2653 197.568C96.7132 197.512 96.2546 196.94 96.3314 196.214C96.4083 195.487 96.9766 195.021 97.5287 195.077C98.0809 195.133 98.5394 195.705 98.4626 196.431Z" stroke="white" stroke-width="0.64994"/>
<path d="M97.979 197.455C99.4146 200.107 99.4138 199.918 100.863 206.162L95.7217 212.569" stroke="white" stroke-width="0.64994"/>
<path d="M97.0565 190.567C97.1736 191.288 96.7522 191.906 96.2073 192.015C95.6623 192.124 95.0732 191.709 94.9562 190.988C94.8391 190.267 95.2604 189.649 95.8054 189.54C96.3503 189.431 96.9394 189.846 97.0565 190.567Z" stroke="white" stroke-width="0.64994"/>
<path d="M98.5324 110.686L99.7899 113.337C93.8965 124.642 91.3735 130.386 88.1415 141.647L91.0112 146.574C90.5326 163.564 90.9946 173.018 95.6319 189.506" stroke="white" stroke-width="0.64994"/>
<path d="M102.08 106.73L104.061 112.22C98.2197 124.495 95.7048 127.168 92.7672 139.965" stroke="white" stroke-width="0.64994"/>
<path d="M110.1 107.518C107.805 112.802 107.099 114.501 105.504 116.574L101.234 118.069" stroke="white" stroke-width="0.64994"/>
<path d="M30.0894 148.6L27.6562 164.281L21.6112 167.47L19.8825 181.075L25.0624 184.498L23.6871 197.348" stroke="white" stroke-width="0.64994"/>
<path d="M35.1379 163.067C34.8973 163.746 34.2393 164.053 33.7112 163.853C33.1831 163.654 32.8732 162.98 33.1138 162.301C33.3544 161.623 34.0125 161.315 34.5406 161.515C35.0687 161.715 35.3785 162.389 35.1379 163.067Z" stroke="white" stroke-width="0.64994"/>
<path d="M41.8446 146.836C41.6039 147.515 40.9459 147.822 40.4178 147.622C39.8897 147.422 39.5799 146.749 39.8205 146.07C40.0611 145.392 40.7191 145.084 41.2472 145.284C41.7753 145.484 42.0852 146.158 41.8446 146.836Z" stroke="white" stroke-width="0.64994"/>
<path d="M36.3936 195.977C36.3732 196.708 35.8429 197.223 35.2891 197.215C34.7352 197.207 34.2341 196.677 34.2544 195.945C34.2748 195.213 34.8051 194.699 35.3589 194.707C35.9128 194.715 36.4139 195.245 36.3936 195.977Z" stroke="white" stroke-width="0.64994"/>
<path d="M41.9903 180.122C41.9699 180.853 41.4396 181.368 40.8858 181.36C40.332 181.351 39.8308 180.822 39.8512 180.09C39.8716 179.358 40.4018 178.844 40.9557 178.852C41.5095 178.86 42.0107 179.39 41.9903 180.122Z" stroke="white" stroke-width="0.64994"/>
<path d="M40.7744 147.508L44.5371 153.005L42.8157 168.5L36.7818 174.525L35.614 194.938" stroke="white" stroke-width="0.64994"/>
<path d="M34.7509 156.18L34.4144 161.283" stroke="white" stroke-width="0.64994"/>
<path d="M35.8194 155.13C35.5788 155.809 34.9208 156.116 34.3927 155.916C33.8645 155.716 33.5547 155.043 33.7953 154.364C34.0359 153.686 34.6939 153.378 35.2221 153.578C35.7502 153.778 36.06 154.452 35.8194 155.13Z" stroke="white" stroke-width="0.64994"/>
<path d="M63.7783 107.144C48.3774 111.941 41.8136 117.833 35.0288 135.953" stroke="white" stroke-width="0.64994"/>
<path d="M42.841 129.179C39.0058 136.932 37.1891 141.822 36.1503 149.569L39.0207 154.685L37.9951 165.834L33.3828 170.92C30.9422 184.711 31.0451 194.406 30.317 207.204" stroke="white" stroke-width="0.64994"/>
<path d="M33.5381 142.416C33.2839 143.108 32.5591 143.479 31.9194 143.245C31.2796 143.011 30.9671 142.261 31.2214 141.569C31.4756 140.877 32.2003 140.505 32.8401 140.739C33.4798 140.973 33.7923 141.724 33.5381 142.416Z" stroke="white" stroke-width="0.64994"/>
<path d="M106.953 77.0692L109.75 63.2801C106.24 60.0838 103.728 59.7958 101.701 54.9301" stroke="white" stroke-width="0.64994"/>
<path d="M65.881 107.464C65.393 107.942 64.6722 107.921 64.2686 107.478C63.865 107.035 63.8857 106.289 64.3737 105.811C64.8616 105.334 65.5824 105.355 65.986 105.797C66.3896 106.24 66.3689 106.987 65.881 107.464Z" stroke="white" stroke-width="0.64994"/>
<path d="M115.367 87.5002L119.287 87.5159L124.374 67.1193C127.804 66.0212 129.645 65.4755 131.483 62.6106" stroke="white" stroke-width="0.64994"/>
<path d="M125.47 73.9294C130.474 74.324 133.039 73.9546 137.042 71.8961" stroke="white" stroke-width="0.64994"/>
<path d="M73.1097 124.384C77.4125 118.565 80.582 116.493 86.7861 113.663" stroke="white" stroke-width="0.64994"/>
</g>
<defs>
<filter id="filter0_f_1858_267" x="441.078" y="78.5907" width="118.134" height="144.89" filterUnits="userSpaceOnUse" color-interpolation-filters="sRGB">
<feFlood flood-opacity="0" result="BackgroundImageFix"/>
<feBlend mode="normal" in="SourceGraphic" in2="BackgroundImageFix" result="shape"/>
<feGaussianBlur stdDeviation="1.01067" result="effect1_foregroundBlur_1858_267"/>
</filter>
<filter id="filter1_f_1858_267" x="415.395" y="42.6567" width="149.444" height="170.639" filterUnits="userSpaceOnUse" color-interpolation-filters="sRGB">
<feFlood flood-opacity="0" result="BackgroundImageFix"/>
<feBlend mode="normal" in="SourceGraphic" in2="BackgroundImageFix" result="shape"/>
<feGaussianBlur stdDeviation="1.26334" result="effect1_foregroundBlur_1858_267"/>
</filter>
<filter id="filter2_f_1858_267" x="415.9" y="43.1621" width="148.433" height="169.629" filterUnits="userSpaceOnUse" color-interpolation-filters="sRGB">
<feFlood flood-opacity="0" result="BackgroundImageFix"/>
<feBlend mode="normal" in="SourceGraphic" in2="BackgroundImageFix" result="shape"/>
<feGaussianBlur stdDeviation="1.01067" result="effect1_foregroundBlur_1858_267"/>
</filter>
<filter id="filter3_f_1858_267" x="21.1477" y="78.6138" width="98.9659" height="160.347" filterUnits="userSpaceOnUse" color-interpolation-filters="sRGB">
<feFlood flood-opacity="0" result="BackgroundImageFix"/>
<feBlend mode="normal" in="SourceGraphic" in2="BackgroundImageFix" result="shape"/>
<feGaussianBlur stdDeviation="0.784113" result="effect1_foregroundBlur_1858_267"/>
</filter>
<filter id="filter4_f_1858_267" x="17.8013" y="50.449" width="123.162" height="199.486" filterUnits="userSpaceOnUse" color-interpolation-filters="sRGB">
<feFlood flood-opacity="0" result="BackgroundImageFix"/>
<feBlend mode="normal" in="SourceGraphic" in2="BackgroundImageFix" result="shape"/>
<feGaussianBlur stdDeviation="0.866586" result="effect1_foregroundBlur_1858_267"/>
</filter>
<linearGradient id="paint0_linear_1858_267" x1="443.119" y1="50.909" x2="496.666" y2="212.238" gradientUnits="userSpaceOnUse">
<stop stop-color="#DE90CA"/>
<stop offset="1" stop-color="#7E436F"/>
</linearGradient>
<linearGradient id="paint1_linear_1858_267" x1="443.119" y1="50.909" x2="496.666" y2="212.238" gradientUnits="userSpaceOnUse">
<stop stop-color="#E2B0D5"/>
<stop offset="1" stop-color="#7E436F"/>
</linearGradient>
<linearGradient id="paint2_linear_1858_267" x1="107.839" y1="55.2244" x2="80.3316" y2="239.535" gradientUnits="userSpaceOnUse">
<stop stop-color="#E2B0D5"/>
<stop offset="1" stop-color="#A23986" stop-opacity="0.5"/>
</linearGradient>
<linearGradient id="paint3_linear_1858_267" x1="107.753" y1="54.6777" x2="80.2462" y2="238.989" gradientUnits="userSpaceOnUse">
<stop stop-color="#E2B0D5"/>
<stop offset="1" stop-color="#A23986" stop-opacity="0.5"/>
</linearGradient>
</defs>
</svg>
