<svg width="605" height="468" viewBox="0 0 605 468" fill="none" xmlns="http://www.w3.org/2000/svg">
<g opacity="0.6">
<path d="M217.289 176.344C217.462 172.253 223.7 169.701 226.886 166.253C215.32 168.973 214.126 173.984 212.68 174.553C210.543 175.393 199.316 171.171 188.168 168.679C188.964 167.665 190.939 165.669 192.473 165.802C194.39 165.967 191.819 165.438 188.12 165.869C185.161 166.214 183.269 167.177 182.693 167.616C180.645 167.289 178.654 167.063 176.78 166.983C175.971 166.949 175.162 166.929 174.357 166.922C174.215 166.315 173.987 164.984 174.208 164.523C174.483 163.947 166.647 167.249 166.647 167.249C152.965 168.497 141.71 172.999 141.533 175.565C141.336 178.433 154.381 183.021 167.594 184.351C169.707 185.83 174.67 187.149 174.358 186.615C173.5 185.151 173.917 185.169 174.186 184.761L174.292 184.669C178.5 184.526 183.545 183.648 188.584 182.543C190.866 183.957 197.85 186.444 196.523 184.7C195.731 183.659 193.244 183.134 193.822 181.326C202.575 179.196 210.388 176.912 212.563 177.319C213.693 182.238 221.384 185.57 225.869 188.307C222.972 184.965 217.115 180.435 217.289 176.344Z" fill="url(#paint0_linear_1942_258)"/>
<path d="M195.896 142.04C196.091 137.447 203.125 134.583 206.716 130.712C193.675 133.764 192.329 139.39 190.699 140.028C188.289 140.971 175.627 136.229 163.055 133.428C163.953 132.29 166.18 130.05 167.909 130.198C170.071 130.384 167.172 129.79 163.001 130.273C159.664 130.659 157.53 131.741 156.88 132.233C154.571 131.866 152.325 131.612 150.212 131.522C149.3 131.483 148.388 131.461 147.48 131.453C147.32 130.771 147.231 127.173 147.48 126.655C147.79 126.008 138.785 131.818 138.785 131.818C123.356 133.217 110.664 138.269 110.466 141.151C110.245 144.37 124.956 149.525 139.857 151.021C142.24 152.682 147.837 154.163 147.485 153.565C146.517 151.921 146.988 151.941 147.29 151.482L147.41 151.379C152.156 151.22 157.844 150.235 163.527 148.995C166.101 150.583 173.977 153.377 172.48 151.419C171.587 150.25 168.782 149.659 169.434 147.63C179.304 145.24 188.115 142.677 190.567 143.134C191.842 148.657 200.517 152.4 205.575 155.475C202.306 151.722 195.701 146.634 195.896 142.04Z" fill="url(#paint1_linear_1942_258)"/>
<path d="M120.579 171.688C120.774 167.095 127.135 164.202 130.393 160.317C118.608 163.422 117.37 169.053 115.895 169.697C113.716 170.65 102.307 165.961 90.9694 163.212C91.7841 162.07 93.8036 159.822 95.3642 159.963C97.3149 160.14 94.7003 159.558 90.9329 160.058C87.9191 160.458 85.9884 161.548 85.3998 162.043C83.3167 161.685 81.2907 161.441 79.384 161.36C78.5602 161.325 77.7375 161.306 76.9174 161.302C76.776 160.62 76.5499 159.127 76.7762 158.609C77.0591 157.961 69.0676 161.703 69.0676 161.703C55.1343 163.165 43.6567 168.268 43.4657 171.151C43.2524 174.371 56.5112 179.464 69.9561 180.898C72.0997 182.549 77.1467 184.007 76.8309 183.41C75.964 181.77 76.3889 181.788 76.6638 181.328L76.7722 181.225C81.0568 181.046 86.1959 180.037 91.3309 178.775C93.6479 180.351 100.746 183.113 99.403 181.161C98.601 179.996 96.0714 179.417 96.6685 177.385C105.588 174.955 113.552 172.357 115.764 172.803C116.892 178.32 124.707 182.027 129.26 185.08C126.325 181.341 120.384 176.281 120.579 171.688Z" fill="url(#paint2_linear_1942_258)"/>
<path d="M143.896 109.04C144.091 104.447 151.125 101.583 154.716 97.7124C141.675 100.764 140.329 106.39 138.698 107.028C136.289 107.971 123.627 103.229 111.055 100.428C111.952 99.2894 114.179 97.0494 115.909 97.1982C118.071 97.3842 115.172 96.7898 111 97.2729C107.663 97.6593 105.529 98.7409 104.88 99.2333C102.57 98.8656 100.325 98.6115 98.2121 98.5219C97.2993 98.4832 96.3878 98.4605 95.4793 98.4529C94.4998 97.6553 98.7862 92.6555 98.2122 92.6555C92.7472 92.6553 86.785 98.8179 86.785 98.8179C71.356 100.217 58.6642 105.269 58.4659 108.151C58.2443 111.37 72.9559 116.525 87.857 118.021C90.2393 119.682 95.8372 121.163 95.4846 120.565C94.5167 118.921 94.9875 118.941 95.29 118.482L95.4095 118.379C100.155 118.22 105.844 117.234 111.527 115.995C114.101 117.583 121.977 120.377 120.48 118.419C119.586 117.25 116.781 116.659 117.433 114.629C127.304 112.24 136.114 109.677 138.567 110.134C139.842 115.657 148.516 119.4 153.574 122.475C150.306 118.722 143.701 113.633 143.896 109.04Z" fill="url(#paint3_linear_1942_258)"/>
<path d="M85.8956 139.677C86.0904 135.084 93.1244 132.219 96.7161 128.349C83.6745 131.4 82.3289 137.027 80.6981 137.665C78.2885 138.607 65.6271 133.865 53.055 131.064C53.9523 129.926 56.1793 127.686 57.9087 127.835C60.0705 128.021 57.1714 127.426 53.0001 127.909C49.6631 128.296 47.5293 129.377 46.8795 129.87C44.5702 129.502 42.3246 129.248 40.2119 129.158C39.2991 129.12 38.3876 129.097 37.4791 129.089C37.3194 128.407 37.062 126.913 37.3104 126.395C37.6208 125.748 28.7848 129.454 28.7848 129.454C13.3558 130.853 0.664093 135.905 0.465728 138.787C0.244139 142.007 14.9557 147.161 29.8569 148.658C32.2391 150.318 37.837 151.8 37.4845 151.201C36.5165 149.557 36.9873 149.577 37.2898 149.118L37.4094 149.016C42.1551 148.856 47.8437 147.871 53.5266 146.632C56.1006 148.219 63.9765 151.014 62.4799 149.055C61.5862 147.886 58.7812 147.296 59.4333 145.266C69.3038 142.876 78.1142 140.314 80.5664 140.771C81.8414 146.294 90.5162 150.037 95.5742 153.111C92.3059 149.358 85.7007 144.27 85.8956 139.677Z" fill="url(#paint4_linear_1942_258)"/>
</g>
<g opacity="0.8" filter="url(#filter0_i_1942_258)">
<mask id="mask0_1942_258" style="mask-type:alpha" maskUnits="userSpaceOnUse" x="127" y="120" width="51" height="52">
<circle cx="152.5" cy="145.5" r="25.5" fill="#D9D9D9"/>
</mask>
<g mask="url(#mask0_1942_258)">
<g filter="url(#filter1_f_1942_258)">
<path d="M148.549 120.371C148.549 124.224 142.029 128.027 138.176 128.027C134.322 128.027 127.432 142.623 127.432 138.77C127.432 134.917 134.322 121.544 138.176 121.544C142.029 121.544 148.549 116.517 148.549 120.371Z" fill="#EC4BFC"/>
</g>
<g filter="url(#filter2_f_1942_258)">
<path d="M167.75 144.389C167.75 145.855 167.982 148.34 166.515 148.34C165.049 148.34 165.095 145.299 165.095 143.833C165.095 142.367 159.43 137.35 160.897 137.35C162.363 137.35 167.75 142.922 167.75 144.389Z" fill="#10F3F3"/>
</g>
<g filter="url(#filter3_f_1942_258)">
<path d="M148.733 169.889C148.733 171.355 141 167.172 139.534 167.172C138.067 167.172 131.877 162.526 131.877 161.059C131.877 159.593 139.487 165.628 140.954 165.628C142.559 166.493 148.733 168.422 148.733 169.889Z" fill="#F9952E"/>
</g>
</g>
<g filter="url(#filter4_f_1942_258)">
<path d="M140.337 158.713C138.855 157.478 138.896 154.618 139.102 153.342C138.032 153.136 135.323 152.354 134.78 152.848C134.101 153.465 136.57 157.293 138.176 159.454C139.46 161.183 143.403 162.974 145.523 163.282C144.206 162.521 141.819 159.948 140.337 158.713Z" fill="white"/>
</g>
<g filter="url(#filter5_f_1942_258)">
<path d="M168.833 136.735C166.724 132.868 159.366 124.056 156.55 129.001C153.794 133.841 165.872 135.874 167.095 138.547C169.601 144.021 170.067 148.397 170.328 150.84L170.331 150.872C171.01 148.153 170.942 140.601 168.833 136.735Z" fill="white"/>
</g>
<circle cx="152.5" cy="145.5" r="25.5" fill="url(#paint5_radial_1942_258)"/>
<g opacity="0.8">
<mask id="mask1_1942_258" style="mask-type:alpha" maskUnits="userSpaceOnUse" x="177" y="161" width="20" height="20">
<circle cx="187" cy="171" r="9" transform="rotate(12.7209 187 171)" fill="#D9D9D9"/>
</mask>
<g mask="url(#mask1_1942_258)">
<g filter="url(#filter6_f_1942_258)">
<path d="M187.592 162.041C187.293 163.368 184.753 164.171 183.426 163.871C182.1 163.572 178.593 168.062 178.893 166.735C179.192 165.408 182.603 161.34 183.93 161.639C185.257 161.939 187.892 160.715 187.592 162.041Z" fill="#EC4BFC"/>
</g>
<g filter="url(#filter7_f_1942_258)">
<path d="M192.337 171.803C192.223 172.308 192.109 173.181 191.604 173.067C191.1 172.953 191.352 171.91 191.466 171.405C191.58 170.9 190.019 168.733 190.524 168.847C191.029 168.961 192.451 171.298 192.337 171.803Z" fill="#10F3F3"/>
</g>
<g filter="url(#filter8_f_1942_258)">
<path d="M183.808 179.104C183.694 179.609 181.356 177.568 180.852 177.454C180.347 177.34 178.577 175.259 178.691 174.754C178.805 174.249 180.956 176.919 181.461 177.033C181.946 177.455 183.922 178.599 183.808 179.104Z" fill="#F9952E"/>
</g>
</g>
<g filter="url(#filter9_f_1942_258)">
<path d="M181.785 174.604C181.371 174.063 181.608 173.082 181.778 172.658C181.425 172.504 180.553 172.025 180.328 172.152C180.046 172.312 180.599 173.822 180.984 174.691C181.292 175.386 182.51 176.309 183.216 176.58C182.821 176.215 182.199 175.144 181.785 174.604Z" fill="white"/>
</g>
<g filter="url(#filter10_f_1942_258)">
<path d="M193.304 169.252C192.879 167.757 191.03 164.151 189.677 165.635C188.352 167.087 192.352 168.726 192.565 169.741C193.002 171.82 192.823 173.363 192.723 174.224L192.721 174.235C193.166 173.352 193.73 170.747 193.304 169.252Z" fill="white"/>
</g>
<circle cx="187" cy="171" r="9" transform="rotate(12.7209 187 171)" fill="url(#paint6_radial_1942_258)"/>
</g>
<g opacity="0.6">
<mask id="mask2_1942_258" style="mask-type:alpha" maskUnits="userSpaceOnUse" x="138" y="79" width="12" height="12">
<circle cx="144" cy="85.0001" r="5" transform="rotate(22.1486 144 85.0001)" fill="#D9D9D9"/>
</mask>
<g mask="url(#mask2_1942_258)">
<g filter="url(#filter11_f_1942_258)">
<path d="M145.14 80.1442C144.855 80.844 143.39 81.0527 142.69 80.7678C141.99 80.483 139.66 82.6245 139.945 81.9247C140.23 81.2249 142.47 79.3056 143.17 79.5904C143.869 79.8753 145.425 79.4444 145.14 80.1442Z" fill="#EC4BFC"/>
</g>
<g filter="url(#filter12_f_1942_258)">
<path d="M146.852 85.9257C146.743 86.192 146.602 86.6604 146.335 86.552C146.069 86.4436 146.302 85.8948 146.411 85.6285C146.519 85.3622 145.861 84.0323 146.128 84.1407C146.394 84.2491 146.96 85.6594 146.852 85.9257Z" fill="#10F3F3"/>
</g>
<g filter="url(#filter13_f_1942_258)">
<path d="M141.513 89.1509C141.404 89.4172 140.309 88.0858 140.043 87.9774C139.777 87.869 138.996 86.5676 139.104 86.3013C139.213 86.0351 140.149 87.6937 140.415 87.8021C140.643 88.0777 141.621 88.8846 141.513 89.1509Z" fill="#F9952E"/>
</g>
</g>
<g filter="url(#filter14_f_1942_258)">
<path d="M140.814 86.5006C140.636 86.1668 140.855 85.6503 140.987 85.4338C140.808 85.3173 140.374 84.975 140.239 85.0246C140.07 85.0865 140.235 85.9643 140.367 86.4754C140.472 86.8843 141.056 87.501 141.418 87.7138C141.235 87.4781 140.992 86.8344 140.814 86.5006Z" fill="white"/>
</g>
<g filter="url(#filter15_f_1942_258)">
<path d="M147.614 84.6156C147.517 83.7575 146.832 81.6133 145.955 82.3032C145.097 82.9783 147.14 84.2405 147.165 84.8163C147.215 85.9957 146.976 86.8249 146.843 87.2878L146.841 87.2938C147.165 86.8502 147.711 85.4737 147.614 84.6156Z" fill="white"/>
</g>
<circle cx="144" cy="85.0001" r="5" transform="rotate(22.1486 144 85.0001)" fill="url(#paint7_radial_1942_258)"/>
</g>
<mask id="mask3_1942_258" style="mask-type:alpha" maskUnits="userSpaceOnUse" x="153" y="90" width="23" height="24">
<circle cx="164.5" cy="101.5" r="11.5" fill="#D9D9D9"/>
</mask>
<g mask="url(#mask3_1942_258)">
<g filter="url(#filter16_f_1942_258)">
<path d="M162.718 90.1672C162.718 91.9049 159.778 93.6199 158.04 93.6199C156.303 93.6199 153.195 100.203 153.195 98.465C153.195 96.7272 156.303 90.6962 158.04 90.6962C159.778 90.6962 162.718 88.4294 162.718 90.1672Z" fill="#EC4BFC"/>
</g>
<g filter="url(#filter17_f_1942_258)">
<path d="M171.377 100.999C171.377 101.66 171.481 102.781 170.82 102.781C170.159 102.781 170.18 101.409 170.18 100.748C170.18 100.087 167.625 97.8243 168.286 97.8243C168.947 97.8243 171.377 100.337 171.377 100.999Z" fill="#10F3F3"/>
</g>
<g filter="url(#filter18_f_1942_258)">
<path d="M162.801 112.499C162.801 113.16 159.313 111.274 158.652 111.274C157.99 111.274 155.199 109.178 155.199 108.517C155.199 107.856 158.631 110.578 159.292 110.578C160.016 110.967 162.801 111.838 162.801 112.499Z" fill="#F9952E"/>
</g>
</g>
<g filter="url(#filter19_f_1942_258)">
<path d="M159.015 107.459C158.347 106.902 158.365 105.612 158.458 105.037C157.975 104.944 156.754 104.591 156.509 104.814C156.203 105.092 157.316 106.819 158.04 107.793C158.62 108.573 160.398 109.38 161.354 109.52C160.76 109.176 159.683 108.016 159.015 107.459Z" fill="white"/>
</g>
<g filter="url(#filter20_f_1942_258)">
<path d="M171.865 97.5471C170.914 95.8034 167.596 91.8296 166.326 94.0596C165.083 96.242 170.53 97.1592 171.081 98.3645C172.211 100.833 172.422 102.807 172.539 103.909L172.541 103.923C172.847 102.697 172.816 99.2909 171.865 97.5471Z" fill="white"/>
</g>
<circle cx="164.5" cy="101.5" r="11.5" fill="url(#paint8_radial_1942_258)"/>
<g opacity="0.3">
<circle cx="152.5" cy="145.5" r="25.5" fill="url(#paint9_linear_1942_258)"/>
<circle cx="187" cy="171" r="9" fill="url(#paint10_linear_1942_258)"/>
<circle cx="144" cy="85.0001" r="5" fill="url(#paint11_linear_1942_258)"/>
<circle cx="164.5" cy="101.5" r="11.5" fill="url(#paint12_linear_1942_258)"/>
</g>
</g>
<path d="M204.576 284.802C251.519 301.718 278.602 302.577 327.566 296.669C327.121 292.465 321.686 285.01 317.436 282.782C279.745 263.015 253.566 263.086 214.764 252.758L204.576 284.802Z" fill="#D4D8D8"/>
<path d="M177.145 271.371C177.392 268.81 183.271 264.816 188.892 262.26C185.652 258.438 183.182 254.992 185.123 252.211C187.063 249.43 214.908 252.563 214.908 252.563C226.714 247.436 211.338 284.7 207.902 286.528C205.153 287.99 203.448 286.192 203.372 284.609C193.948 283.994 176.918 273.723 177.145 271.371Z" fill="#C5C5C5"/>
<path d="M554.587 385.042C522.86 350.155 501.676 322.346 484.988 324.006C484.988 324.006 471.954 327.884 466.408 333.969C459.668 341.363 466.39 357.183 471.093 360.635C475.795 364.086 501.405 390.691 531.177 415.077L554.587 385.042Z" fill="#D3D3D3"/>
<path d="M570.569 410.505C568.352 412.648 563.87 415.771 558.038 415.407C558.446 420.483 558.349 424.826 554.219 426.282C550.089 427.739 523.806 410.464 523.806 410.464C520.814 411.996 515.76 413.204 519.482 405.779C524.135 396.497 559.607 360.923 551.72 382.084C561.343 386.854 572.687 408.458 570.569 410.505Z" fill="#B0B0B0"/>
<path d="M306.733 274.395C306.733 274.395 330.448 269.608 340.185 253.197C350.885 235.161 357.273 219.396 357.273 219.396C357.273 219.396 436.895 223.891 478 250.865C519.105 277.84 501 313.865 501 313.865C501 313.865 483.966 371.341 383.684 342.868C327.75 326.986 306.733 274.395 306.733 274.395Z" fill="#E9EDED"/>
<mask id="mask4_1942_258" style="mask-type:alpha" maskUnits="userSpaceOnUse" x="306" y="219" width="204" height="133">
<path d="M306.733 274.395C306.733 274.395 330.448 269.608 340.185 253.197C350.885 235.161 357.273 219.396 357.273 219.396C357.273 219.396 443.112 226.057 484.217 253.031C525.322 280.006 504.5 320.365 504.5 320.365C504.5 320.365 483.966 371.341 383.684 342.868C327.75 326.986 306.733 274.395 306.733 274.395Z" fill="#F7FEFE"/>
</mask>
<g mask="url(#mask4_1942_258)">
<path d="M318.482 284.233C318.409 283.967 318.135 283.81 317.868 283.882C317.602 283.955 317.445 284.23 317.517 284.496L318.482 284.233ZM317.517 284.496C319.041 290.081 323.932 298.94 329.609 307.467C335.291 316.003 341.817 324.293 346.662 328.733L347.338 327.996C342.582 323.637 336.108 315.426 330.441 306.913C324.767 298.39 319.959 289.648 318.482 284.233L317.517 284.496Z" fill="#D8E0E0"/>
<path d="M326 288.365L318 284.865L322.5 290.365L326 288.365Z" fill="#D8E0E0"/>
<path d="M375.648 316.029L352.889 293.134C352.889 293.134 342.896 300.605 334.713 303.235C328.916 305.098 322.735 302.985 322.735 302.985L335.945 320.133C335.945 320.133 342.559 327.714 347 330.365C350 332.155 357.09 335.699 363 331.865C369.071 328.545 373.329 324.802 375.852 322.219C377.561 320.47 377.372 317.763 375.648 316.029Z" fill="#D8E0E0"/>
</g>
<path d="M431 281.365C394.381 271.524 377 247.865 366.901 238.365L366.901 214.173C383.573 214.868 402.835 204.189 453.963 217.9C505.091 231.61 504.358 249.143 515.559 258.061L514.095 291.433C499.332 288.408 460.269 289.231 431 281.365Z" fill="url(#paint13_linear_1942_258)"/>
<path d="M248.041 126.373C264.117 126.398 266.089 154.469 266.089 154.469L247.856 175.663C247.856 175.663 214.651 170.145 213.04 149.078C211.429 128.012 216.167 118.31 222.164 117.312C228.161 116.313 231.965 126.347 248.041 126.373Z" fill="#9B7E66"/>
<path d="M248.027 150.529C257.507 152.344 257.379 164.164 257.379 164.164L245.652 170.876C245.652 170.876 226.322 164.87 226.34 155.984C226.358 147.098 229.598 143.621 233.181 143.881C236.764 144.142 238.546 148.715 248.027 150.529Z" fill="#CBAA91"/>
<path d="M263.853 161.027C263.863 161.021 263.873 161.014 263.883 161.008L279.433 150.945C279.433 150.945 283.435 123.024 283.12 114.66C282.806 106.296 281.758 93.6912 275.167 95.5215C268.577 97.3518 272.318 123.56 265.571 121.208C258.823 118.856 257.324 82.0436 253.96 75.0363C250.597 68.029 235.965 79.2038 240.015 91.9496C244.054 104.66 267.308 158.598 263.883 161.008L263.853 161.027Z" fill="#564949"/>
<ellipse cx="310.04" cy="208.352" rx="77.8499" ry="71.9845" transform="rotate(5.80203 310.04 208.352)" fill="#C49E80"/>
<path d="M388.943 104.354C382.533 116.037 357.064 159.344 353.27 161.725C353.27 161.725 348.291 161.39 345.55 159.959C342.683 158.462 339.486 154.319 339.486 154.319C339.486 154.319 341.208 126.166 343.173 118.033C345.137 109.901 348.647 97.7593 354.59 100.863C360.534 103.967 351.741 128.901 358.667 127.939C365.592 126.977 374.348 91.206 378.96 85.0092C383.573 78.8124 395.354 92.671 388.943 104.354Z" fill="#776969"/>
<path d="M377.34 138.063C361.715 134.284 353.157 161.091 353.157 161.091C353.157 161.091 359.332 165.62 362.606 170.267C365.969 175.041 369.831 184.98 369.831 184.98C369.831 184.98 399.424 188.493 405.975 168.406C412.525 148.32 410.218 137.772 404.627 135.383C399.037 132.994 392.966 141.843 377.34 138.063Z" fill="#C49E80"/>
<path d="M379.524 161.275C371.347 160.804 369.024 170.802 369.024 170.802L377.299 178.939C377.299 178.939 394.446 177.953 396.257 170.454C398.067 162.954 396.115 159.337 393.112 158.8C390.108 158.264 387.702 161.745 379.524 161.275Z" fill="#E1C7B3"/>
<path d="M326.025 231.089C325.154 244.917 309.573 255.19 291.224 254.035C272.875 252.879 260.129 240.732 261 226.904C261.871 213.076 276.029 202.803 294.378 203.958C312.727 205.114 326.896 217.261 326.025 231.089Z" fill="#E1C7B3"/>
<path d="M287.324 223.055C284.907 221.729 276.996 216.013 281.001 213.843C282.787 212.876 288.226 217.142 290.592 217.222C292.837 217.299 297.964 214.854 299.902 215.239C305.758 219.942 293.89 226.659 287.324 223.055Z" fill="#372831" stroke="#372831" stroke-width="2.54509" stroke-linecap="round"/>
<path d="M273.642 231.903C278.676 238.721 287.165 241.486 289.977 232.014M289.977 232.014C291.743 241.48 299.916 241.131 309.208 233.225M289.977 232.014L290.502 223.687" stroke="#372831" stroke-width="3.81764" stroke-linecap="round"/>
<ellipse cx="265.516" cy="193.894" rx="8.68425" ry="13.5088" transform="rotate(3.60367 265.516 193.894)" fill="#776969"/>
<ellipse cx="2.85977" cy="4.90732" rx="2.85977" ry="4.90732" transform="matrix(0.998023 0.0628545 0.0354653 0.999371 262.097 188.302)" fill="white"/>
<ellipse cx="326.185" cy="197.715" rx="8.68425" ry="13.5088" transform="rotate(3.60367 326.185 197.715)" fill="#776969"/>
<ellipse cx="2.85977" cy="4.90732" rx="2.85977" ry="4.90732" transform="matrix(0.998023 0.0628545 0.0354653 0.999371 320.771 191.573)" fill="white"/>
<path opacity="0.6" fill-rule="evenodd" clip-rule="evenodd" d="M241.047 174.022C231.24 171.149 214.184 164.029 213.041 149.079C211.429 128.012 216.167 118.31 222.164 117.312C224.596 116.907 226.668 118.316 229.343 120.137C233.265 122.806 238.485 126.358 248.042 126.373C250.186 126.376 252.079 126.879 253.75 127.747C251.92 123.006 250.033 118.206 248.253 113.679L248.253 113.679L248.253 113.678C244.545 104.248 241.303 96.0027 240.015 91.9496C235.965 79.2038 250.597 68.0291 253.961 75.0363C255.228 77.6766 256.231 84.5484 257.349 92.2138C259.199 104.893 261.366 119.743 265.571 121.208C269.024 122.412 269.73 116.136 270.48 109.476C271.195 103.121 271.95 96.4152 275.168 95.5215C281.758 93.6913 282.806 106.296 283.121 114.66C283.314 119.791 281.882 132.283 280.747 141.172C291.966 137.104 304.421 135.426 317.317 136.736C325.455 137.563 333.182 139.521 340.333 142.422C341.021 133.715 342.058 122.649 343.173 118.033C345.137 109.901 348.647 97.7594 354.59 100.863C357.492 102.379 356.881 109.099 356.302 115.468C355.695 122.143 355.123 128.432 358.667 127.939C362.983 127.34 368.01 113.221 372.302 101.166L372.302 101.166C374.897 93.8777 377.223 87.3442 378.961 85.0093C383.573 78.8125 395.355 92.6711 388.944 104.354C385.513 110.605 376.626 125.912 368.523 139.158C371.147 137.815 374.091 137.278 377.341 138.064C386.63 140.31 392.542 138.094 396.984 136.429C400.014 135.294 402.36 134.414 404.628 135.383C410.218 137.772 412.525 148.32 405.975 168.407C402.384 179.418 391.87 183.337 383.101 184.631C386.975 194.457 388.612 205.185 387.491 216.222C383.472 255.774 345.538 284.314 302.763 279.967C259.988 275.621 228.57 240.034 232.589 200.482C233.561 190.914 236.518 181.991 241.047 174.022Z" fill="url(#paint14_linear_1942_258)"/>
<ellipse cx="386.825" cy="318.661" rx="6.74392" ry="8.79918" transform="rotate(-49.6179 386.825 318.661)" fill="#AEB8B8"/>
<path d="M415.387 321.823C427.745 316.662 436.032 304.325 438.647 302.373C438.403 296.715 435.373 291.429 434.406 290.334C430.25 291.479 427.495 303.91 410.189 310.292C397.896 314.826 388.711 310.33 384.259 313.339C380.268 316.035 383.489 322.023 386.652 323.45C390.362 325.124 403.03 326.984 415.387 321.823Z" fill="#C2C8C8"/>
<path d="M341.117 363.862C367.009 328.526 397.305 286.871 380.115 258.732C376.262 257.725 367.924 260.548 364.958 263.515C338.651 289.834 332.69 312.694 314.549 343.114L341.117 363.862Z" fill="#F1F8F8"/>
<path d="M340.765 364.549C338.281 372.576 324.895 384.324 322.824 383.333C320.596 382.268 318.385 375.814 317.398 370.062C313.243 371.619 309.6 372.629 307.566 370.014C305.531 367.398 314.733 344.148 314.733 344.148C310.791 333.412 339.626 352.466 343.654 358.882C346.578 363.539 343.305 364.592 340.765 364.549Z" fill="#E8ECEC"/>
<path d="M358.5 255.865C365.5 250.265 372.5 247.365 377 246.865L391 259.865C385.5 259.865 377.367 259.409 371.5 261.365C365.5 263.365 360 266.865 349.5 281.365C349.5 275.865 349.5 263.065 358.5 255.865Z" fill="#C2C8C8"/>
<g filter="url(#filter21_i_1942_258)">
<ellipse cx="315.376" cy="156.989" rx="131.932" ry="124.226" transform="rotate(-4.94156 315.376 156.989)" fill="url(#paint15_linear_1942_258)" fill-opacity="0.25"/>
</g>
<g style="mix-blend-mode:multiply" opacity="0.4">
<path fill-rule="evenodd" clip-rule="evenodd" d="M432.416 213.156C443.497 192.996 448.909 169.802 446.819 145.625C440.909 77.2714 377.269 26.9482 304.676 33.2247C232.083 39.5012 178.025 100.001 183.935 168.354C187.174 205.816 207.754 237.863 237.644 258.144C231.7 256.888 225.531 255.512 219.016 253.862C218.499 252.186 217.228 251.556 214.908 252.564C214.908 252.564 187.063 249.43 185.123 252.211C183.183 254.992 185.652 258.438 188.892 262.261C183.271 264.816 177.392 268.81 177.145 271.372C176.918 273.723 193.949 283.994 203.372 284.609C203.448 286.192 205.153 287.991 207.902 286.528C208.039 286.456 208.194 286.327 208.366 286.148C250.675 300.943 277.071 302.307 320.259 297.517C321.695 299.476 323.255 301.494 324.942 303.545C323.582 303.275 322.736 302.985 322.736 302.985L330.637 313.243C330.041 314.403 329.443 315.57 328.842 316.746L328.841 316.747L328.84 316.749C324.928 324.391 320.843 332.37 315.831 340.943C314.465 341.05 313.947 342.006 314.734 344.148C314.734 344.148 305.531 367.398 307.566 370.014C309.6 372.629 313.243 371.619 317.399 370.062C318.385 375.814 320.596 382.268 322.824 383.333C324.895 384.324 338.281 372.576 340.765 364.549C343.143 364.589 346.163 363.669 344.141 359.731C350.2 351.439 356.388 342.848 362.06 334.206C368.599 337.657 375.794 340.628 383.684 342.868C384.177 343.008 384.667 343.145 385.155 343.281C420.936 353.241 446.441 353.01 464.426 348.652C465.84 354.013 468.723 358.895 471.093 360.635C472.67 361.793 476.601 365.557 482.253 370.969C491.232 379.567 504.554 392.323 519.683 405.397C519.611 405.529 519.544 405.656 519.483 405.779C515.761 413.204 520.814 411.996 523.806 410.464C523.806 410.464 550.089 427.739 554.219 426.282C558.349 424.826 558.447 420.483 558.039 415.407C563.87 415.771 568.352 412.648 570.569 410.505C572.661 408.483 561.615 387.372 552.069 382.264L551.774 381.937C554.419 374.748 551.952 374.251 547.394 377.064C544.803 374.169 542.285 371.34 539.839 368.589L539.837 368.587L539.837 368.587C523.562 350.291 510.416 335.512 499.266 328.447C503.105 323.829 504.5 320.365 504.5 320.365C504.5 320.365 511.347 307.095 509.438 290.687C511.178 290.91 512.739 291.155 514.095 291.433L515.56 258.061C512.75 255.824 510.691 253.044 508.376 249.919C501.463 240.587 492.265 228.171 453.963 217.9C446.055 215.779 438.908 214.242 432.416 213.156Z" fill="url(#paint16_linear_1942_258)"/>
</g>
<defs>
<filter id="filter0_i_1942_258" x="127" y="79.9988" width="71.002" height="102.003" filterUnits="userSpaceOnUse" color-interpolation-filters="sRGB">
<feFlood flood-opacity="0" result="BackgroundImageFix"/>
<feBlend mode="normal" in="SourceGraphic" in2="BackgroundImageFix" result="shape"/>
<feColorMatrix in="SourceAlpha" type="matrix" values="0 0 0 0 0 0 0 0 0 0 0 0 0 0 0 0 0 0 127 0" result="hardAlpha"/>
<feOffset dx="2" dy="2"/>
<feGaussianBlur stdDeviation="10.5"/>
<feComposite in2="hardAlpha" operator="arithmetic" k2="-1" k3="1"/>
<feColorMatrix type="matrix" values="0 0 0 0 0.819608 0 0 0 0 0.372549 0 0 0 0 0.72549 0 0 0 0.25 0"/>
<feBlend mode="normal" in2="shape" result="effect1_innerShadow_1942_258"/>
</filter>
<filter id="filter1_f_1942_258" x="108.786" y="100.27" width="58.4092" height="57.7938" filterUnits="userSpaceOnUse" color-interpolation-filters="sRGB">
<feFlood flood-opacity="0" result="BackgroundImageFix"/>
<feBlend mode="normal" in="SourceGraphic" in2="BackgroundImageFix" result="shape"/>
<feGaussianBlur stdDeviation="9.32324" result="effect1_foregroundBlur_1942_258"/>
</filter>
<filter id="filter2_f_1942_258" x="148.306" y="125.001" width="31.8067" height="35.6877" filterUnits="userSpaceOnUse" color-interpolation-filters="sRGB">
<feFlood flood-opacity="0" result="BackgroundImageFix"/>
<feBlend mode="normal" in="SourceGraphic" in2="BackgroundImageFix" result="shape"/>
<feGaussianBlur stdDeviation="6.17433" result="effect1_foregroundBlur_1942_258"/>
</filter>
<filter id="filter3_f_1942_258" x="120.023" y="148.975" width="40.5654" height="33.08" filterUnits="userSpaceOnUse" color-interpolation-filters="sRGB">
<feFlood flood-opacity="0" result="BackgroundImageFix"/>
<feBlend mode="normal" in="SourceGraphic" in2="BackgroundImageFix" result="shape"/>
<feGaussianBlur stdDeviation="5.92736" result="effect1_foregroundBlur_1942_258"/>
</filter>
<filter id="filter4_f_1942_258" x="131.33" y="149.353" width="17.5272" height="17.2637" filterUnits="userSpaceOnUse" color-interpolation-filters="sRGB">
<feFlood flood-opacity="0" result="BackgroundImageFix"/>
<feBlend mode="normal" in="SourceGraphic" in2="BackgroundImageFix" result="shape"/>
<feGaussianBlur stdDeviation="1.66707" result="effect1_foregroundBlur_1942_258"/>
</filter>
<filter id="filter5_f_1942_258" x="150.956" y="122.346" width="24.9444" height="33.7119" filterUnits="userSpaceOnUse" color-interpolation-filters="sRGB">
<feFlood flood-opacity="0" result="BackgroundImageFix"/>
<feBlend mode="normal" in="SourceGraphic" in2="BackgroundImageFix" result="shape"/>
<feGaussianBlur stdDeviation="2.59322" result="effect1_foregroundBlur_1942_258"/>
</filter>
<filter id="filter6_f_1942_258" x="172.293" y="154.829" width="21.9037" height="18.7329" filterUnits="userSpaceOnUse" color-interpolation-filters="sRGB">
<feFlood flood-opacity="0" result="BackgroundImageFix"/>
<feBlend mode="normal" in="SourceGraphic" in2="BackgroundImageFix" result="shape"/>
<feGaussianBlur stdDeviation="3.29056" result="effect1_foregroundBlur_1942_258"/>
</filter>
<filter id="filter7_f_1942_258" x="186.065" y="164.484" width="10.6364" height="12.9516" filterUnits="userSpaceOnUse" color-interpolation-filters="sRGB">
<feFlood flood-opacity="0" result="BackgroundImageFix"/>
<feBlend mode="normal" in="SourceGraphic" in2="BackgroundImageFix" result="shape"/>
<feGaussianBlur stdDeviation="2.17918" result="effect1_foregroundBlur_1942_258"/>
</filter>
<filter id="filter8_f_1942_258" x="174.502" y="170.507" width="13.495" height="12.8613" filterUnits="userSpaceOnUse" color-interpolation-filters="sRGB">
<feFlood flood-opacity="0" result="BackgroundImageFix"/>
<feBlend mode="normal" in="SourceGraphic" in2="BackgroundImageFix" result="shape"/>
<feGaussianBlur stdDeviation="2.09201" result="effect1_foregroundBlur_1942_258"/>
</filter>
<filter id="filter9_f_1942_258" x="179.074" y="170.954" width="5.31835" height="6.80224" filterUnits="userSpaceOnUse" color-interpolation-filters="sRGB">
<feFlood flood-opacity="0" result="BackgroundImageFix"/>
<feBlend mode="normal" in="SourceGraphic" in2="BackgroundImageFix" result="shape"/>
<feGaussianBlur stdDeviation="0.588378" result="effect1_foregroundBlur_1942_258"/>
</filter>
<filter id="filter10_f_1942_258" x="187.578" y="163.453" width="7.70814" height="12.6127" filterUnits="userSpaceOnUse" color-interpolation-filters="sRGB">
<feFlood flood-opacity="0" result="BackgroundImageFix"/>
<feBlend mode="normal" in="SourceGraphic" in2="BackgroundImageFix" result="shape"/>
<feGaussianBlur stdDeviation="0.915254" result="effect1_foregroundBlur_1942_258"/>
</filter>
<filter id="filter11_f_1942_258" x="136.265" y="75.9057" width="12.566" height="9.8165" filterUnits="userSpaceOnUse" color-interpolation-filters="sRGB">
<feFlood flood-opacity="0" result="BackgroundImageFix"/>
<feBlend mode="normal" in="SourceGraphic" in2="BackgroundImageFix" result="shape"/>
<feGaussianBlur stdDeviation="1.82809" result="effect1_foregroundBlur_1942_258"/>
</filter>
<filter id="filter12_f_1942_258" x="143.642" y="81.7131" width="5.64462" height="7.27621" filterUnits="userSpaceOnUse" color-interpolation-filters="sRGB">
<feFlood flood-opacity="0" result="BackgroundImageFix"/>
<feBlend mode="normal" in="SourceGraphic" in2="BackgroundImageFix" result="shape"/>
<feGaussianBlur stdDeviation="1.21065" result="effect1_foregroundBlur_1942_258"/>
</filter>
<filter id="filter13_f_1942_258" x="136.77" y="83.948" width="7.07616" height="7.56248" filterUnits="userSpaceOnUse" color-interpolation-filters="sRGB">
<feFlood flood-opacity="0" result="BackgroundImageFix"/>
<feBlend mode="normal" in="SourceGraphic" in2="BackgroundImageFix" result="shape"/>
<feGaussianBlur stdDeviation="1.16223" result="effect1_foregroundBlur_1942_258"/>
</filter>
<filter id="filter14_f_1942_258" x="139.513" y="84.3659" width="2.55897" height="4.0016" filterUnits="userSpaceOnUse" color-interpolation-filters="sRGB">
<feFlood flood-opacity="0" result="BackgroundImageFix"/>
<feBlend mode="normal" in="SourceGraphic" in2="BackgroundImageFix" result="shape"/>
<feGaussianBlur stdDeviation="0.326877" result="effect1_foregroundBlur_1942_258"/>
</filter>
<filter id="filter15_f_1942_258" x="144.728" y="81.1516" width="3.91476" height="7.15914" filterUnits="userSpaceOnUse" color-interpolation-filters="sRGB">
<feFlood flood-opacity="0" result="BackgroundImageFix"/>
<feBlend mode="normal" in="SourceGraphic" in2="BackgroundImageFix" result="shape"/>
<feGaussianBlur stdDeviation="0.508475" result="effect1_foregroundBlur_1942_258"/>
</filter>
<filter id="filter16_f_1942_258" x="144.786" y="81.1024" width="26.3414" height="26.0639" filterUnits="userSpaceOnUse" color-interpolation-filters="sRGB">
<feFlood flood-opacity="0" result="BackgroundImageFix"/>
<feBlend mode="normal" in="SourceGraphic" in2="BackgroundImageFix" result="shape"/>
<feGaussianBlur stdDeviation="4.2046" result="effect1_foregroundBlur_1942_258"/>
</filter>
<filter id="filter17_f_1942_258" x="162.608" y="92.2553" width="14.3441" height="16.0944" filterUnits="userSpaceOnUse" color-interpolation-filters="sRGB">
<feFlood flood-opacity="0" result="BackgroundImageFix"/>
<feBlend mode="normal" in="SourceGraphic" in2="BackgroundImageFix" result="shape"/>
<feGaussianBlur stdDeviation="2.7845" result="effect1_foregroundBlur_1942_258"/>
</filter>
<filter id="filter18_f_1942_258" x="149.853" y="103.067" width="18.2943" height="14.9184" filterUnits="userSpaceOnUse" color-interpolation-filters="sRGB">
<feFlood flood-opacity="0" result="BackgroundImageFix"/>
<feBlend mode="normal" in="SourceGraphic" in2="BackgroundImageFix" result="shape"/>
<feGaussianBlur stdDeviation="2.67312" result="effect1_foregroundBlur_1942_258"/>
</filter>
<filter id="filter19_f_1942_258" x="154.953" y="103.238" width="7.90448" height="7.78558" filterUnits="userSpaceOnUse" color-interpolation-filters="sRGB">
<feFlood flood-opacity="0" result="BackgroundImageFix"/>
<feBlend mode="normal" in="SourceGraphic" in2="BackgroundImageFix" result="shape"/>
<feGaussianBlur stdDeviation="0.751816" result="effect1_foregroundBlur_1942_258"/>
</filter>
<filter id="filter20_f_1942_258" x="163.803" y="91.0584" width="11.2495" height="15.2034" filterUnits="userSpaceOnUse" color-interpolation-filters="sRGB">
<feFlood flood-opacity="0" result="BackgroundImageFix"/>
<feBlend mode="normal" in="SourceGraphic" in2="BackgroundImageFix" result="shape"/>
<feGaussianBlur stdDeviation="1.16949" result="effect1_foregroundBlur_1942_258"/>
</filter>
<filter id="filter21_i_1942_258" x="183.492" y="32.6958" width="269.768" height="255.587" filterUnits="userSpaceOnUse" color-interpolation-filters="sRGB">
<feFlood flood-opacity="0" result="BackgroundImageFix"/>
<feBlend mode="normal" in="SourceGraphic" in2="BackgroundImageFix" result="shape"/>
<feColorMatrix in="SourceAlpha" type="matrix" values="0 0 0 0 0 0 0 0 0 0 0 0 0 0 0 0 0 0 127 0" result="hardAlpha"/>
<feOffset dx="6" dy="7"/>
<feGaussianBlur stdDeviation="6.5"/>
<feComposite in2="hardAlpha" operator="arithmetic" k2="-1" k3="1"/>
<feColorMatrix type="matrix" values="0 0 0 0 0.945098 0 0 0 0 0.568627 0 0 0 0 0.666667 0 0 0 1 0"/>
<feBlend mode="normal" in2="shape" result="effect1_innerShadow_1942_258"/>
</filter>
<linearGradient id="paint0_linear_1942_258" x1="184.483" y1="164.454" x2="183.521" y2="187.135" gradientUnits="userSpaceOnUse">
<stop stop-color="#6C3C88"/>
<stop offset="1" stop-color="#6C3C88" stop-opacity="0"/>
</linearGradient>
<linearGradient id="paint1_linear_1942_258" x1="158.899" y1="128.684" x2="157.818" y2="154.15" gradientUnits="userSpaceOnUse">
<stop stop-color="#6C3C88"/>
<stop offset="1" stop-color="#6C3C88" stop-opacity="0"/>
</linearGradient>
<linearGradient id="paint2_linear_1942_258" x1="87.2367" y1="158.486" x2="86.1564" y2="183.952" gradientUnits="userSpaceOnUse">
<stop stop-color="#6C3C88"/>
<stop offset="1" stop-color="#6C3C88" stop-opacity="0"/>
</linearGradient>
<linearGradient id="paint3_linear_1942_258" x1="106.898" y1="95.6822" x2="105.818" y2="121.148" gradientUnits="userSpaceOnUse">
<stop stop-color="#6C3C88"/>
<stop offset="1" stop-color="#6C3C88" stop-opacity="0"/>
</linearGradient>
<linearGradient id="paint4_linear_1942_258" x1="48.8982" y1="126.32" x2="47.8179" y2="151.786" gradientUnits="userSpaceOnUse">
<stop stop-color="#6C3C88"/>
<stop offset="1" stop-color="#6C3C88" stop-opacity="0"/>
</linearGradient>
<radialGradient id="paint5_radial_1942_258" cx="0" cy="0" r="1" gradientUnits="userSpaceOnUse" gradientTransform="translate(152.5 145.5) rotate(90.8355) scale(29.64)">
<stop offset="0.770833" stop-color="#D9D9D9" stop-opacity="0"/>
<stop offset="0.892348" stop-color="#D9D9D9"/>
</radialGradient>
<radialGradient id="paint6_radial_1942_258" cx="0" cy="0" r="1" gradientUnits="userSpaceOnUse" gradientTransform="translate(187 171) rotate(90.8355) scale(10.4612)">
<stop offset="0.770833" stop-color="#D9D9D9" stop-opacity="0"/>
<stop offset="0.892348" stop-color="#D9D9D9"/>
</radialGradient>
<radialGradient id="paint7_radial_1942_258" cx="0" cy="0" r="1" gradientUnits="userSpaceOnUse" gradientTransform="translate(144 85.0001) rotate(90.8355) scale(5.81176)">
<stop offset="0.770833" stop-color="#D9D9D9" stop-opacity="0"/>
<stop offset="0.892348" stop-color="#D9D9D9"/>
</radialGradient>
<radialGradient id="paint8_radial_1942_258" cx="0" cy="0" r="1" gradientUnits="userSpaceOnUse" gradientTransform="translate(164.5 101.5) rotate(90.8355) scale(13.367)">
<stop offset="0.770833" stop-color="#D9D9D9" stop-opacity="0"/>
<stop offset="0.892348" stop-color="#D9D9D9"/>
</radialGradient>
<linearGradient id="paint9_linear_1942_258" x1="173.196" y1="170.235" x2="147.245" y2="109.641" gradientUnits="userSpaceOnUse">
<stop stop-color="#3E295E"/>
<stop offset="1" stop-color="#B1469B"/>
</linearGradient>
<linearGradient id="paint10_linear_1942_258" x1="194.304" y1="179.73" x2="185.145" y2="158.344" gradientUnits="userSpaceOnUse">
<stop stop-color="#3E295E"/>
<stop offset="1" stop-color="#B1469B"/>
</linearGradient>
<linearGradient id="paint11_linear_1942_258" x1="148.058" y1="89.8501" x2="142.97" y2="77.969" gradientUnits="userSpaceOnUse">
<stop stop-color="#3E295E"/>
<stop offset="1" stop-color="#B1469B"/>
</linearGradient>
<linearGradient id="paint12_linear_1942_258" x1="173.833" y1="112.655" x2="162.13" y2="85.3286" gradientUnits="userSpaceOnUse">
<stop stop-color="#3E295E"/>
<stop offset="1" stop-color="#B1469B"/>
</linearGradient>
<linearGradient id="paint13_linear_1942_258" x1="441" y1="216.865" x2="403.5" y2="258.365" gradientUnits="userSpaceOnUse">
<stop stop-color="#9BA0A0"/>
<stop offset="1" stop-color="#C1C7C7"/>
</linearGradient>
<linearGradient id="paint14_linear_1942_258" x1="241" y1="82.8663" x2="372.5" y2="242.366" gradientUnits="userSpaceOnUse">
<stop stop-color="#FBD1A7"/>
<stop offset="1" stop-color="#F2A76E" stop-opacity="0"/>
</linearGradient>
<linearGradient id="paint15_linear_1942_258" x1="257.225" y1="58.993" x2="365.179" y2="261.545" gradientUnits="userSpaceOnUse">
<stop stop-color="#B53ED8"/>
<stop offset="1" stop-color="#DDF0EF"/>
</linearGradient>
<linearGradient id="paint16_linear_1942_258" x1="373.985" y1="32.6959" x2="373.985" y2="263.366" gradientUnits="userSpaceOnUse">
<stop stop-color="#B63ED8"/>
<stop offset="1" stop-color="#101D36"/>
<stop offset="1" stop-color="#101D36"/>
</linearGradient>
</defs>
</svg>
