<svg width="815" height="480" viewBox="0 0 815 480" fill="none" xmlns="http://www.w3.org/2000/svg">
<g filter="url(#filter0_d_1805_214)">
<path d="M731.886 425.993C741.698 426.643 747.538 427.251 757.73 427.156C769.149 427.05 775.16 426.793 786.924 425.12C801.521 423.045 803.914 417.851 803.914 416.688C803.914 415.525 804.115 415.375 801.521 414.362C794.821 411.745 785.488 410 785.488 410C785.488 410 794.821 412.123 798.171 415.525C798.788 416.151 799.002 416.593 798.889 417.56C798.649 419.596 791.824 421.013 784.77 422.213C772.806 424.248 768.31 424.125 757.73 424.248C748.005 424.362 731.886 423.667 731.886 423.667C723.99 423.085 718.247 422.213 708.436 418.723C708.436 418.723 721 425.271 731.886 425.993Z" fill="#8C6398"/>
<path d="M731.647 427.447C741.458 428.097 747.538 428.704 757.73 428.61C769.149 428.504 775.16 428.247 786.924 426.574C809.417 423.376 807.982 419.014 807.982 417.851C807.982 416.688 804.593 414.502 801.999 413.489C795.299 410.872 785.249 410 785.249 410C785.249 410 797.692 412.124 801.042 415.525C801.659 416.151 802.113 416.884 801.999 417.851C801.76 419.887 791.824 423.339 784.77 424.539C772.806 426.574 768.31 426.451 757.73 426.574C748.005 426.688 731.886 425.993 731.886 425.993C723.99 425.411 716.811 423.666 707 420.177C707 420.177 718.486 426.574 731.647 427.447Z" fill="#684077"/>
<path d="M751.522 421.927C758.819 421.988 761.178 421.808 768.203 421.391C773.025 421.105 778.167 420.413 782.04 419.806C784.184 419.568 786.298 419.229 788.274 418.723C788.274 418.723 785.735 419.226 782.04 419.806C777.163 420.347 772.13 420.364 768.203 420.623C768.203 420.623 758.485 420.695 751.522 420.623C743.947 420.544 740.728 420.623 732.161 419.318C727.111 418.549 719.997 416.336 719.825 415.032C719.744 414.412 720.069 413.942 720.511 413.541C722.909 411.361 731.5 410 731.5 410C731.5 410 724.623 410.559 719.825 412.236C717.968 412.886 715.542 414.286 715.542 415.032C715.542 415.777 714.514 418.573 730.619 420.623C739.042 421.695 743.345 421.859 751.522 421.927Z" fill="#8C6398"/>
<path d="M769.13 422.213C761.599 422.659 759.07 422.853 751.246 422.787C742.48 422.715 737.866 422.538 728.836 421.389C711.569 419.191 712.671 416.194 712.671 415.395C712.671 414.596 715.272 413.094 717.263 412.398C722.407 410.599 731.5 410 731.5 410C731.5 410 720.57 411.459 717.998 413.796C717.525 414.227 717.176 414.73 717.263 415.395C717.447 416.793 725.074 419.166 730.489 419.99C739.673 421.389 743.125 421.304 751.246 421.389C758.711 421.467 769.609 420.759 769.609 420.759C775.67 420.359 783.966 419.916 790.906 418.142C790.906 418.142 779.233 421.613 769.13 422.213Z" fill="#662F7A"/>
<path d="M765.951 417.544C761.19 417.544 756.966 417.58 752.026 417.544C746.491 417.504 743.861 417.305 738.159 416.674C727.256 415.467 728.071 414.063 728.071 413.41C728.071 412.757 729.284 412.052 730.542 411.669C733.789 410.682 738.919 410.582 738.919 410.582C738.919 410.582 733.012 411.234 731.365 412.322C731.032 412.542 731.002 412.693 731.032 412.892C731.148 413.66 735.5 414.963 738.919 415.416C744.718 416.184 746.618 416.627 751.746 416.674C756.46 416.717 764.304 416.674 764.304 416.674C768.216 416.674 775.363 416.39 779.745 415.416C779.745 415.416 773.774 417.544 765.951 417.544Z" fill="#8C6398"/>
<path d="M743.373 419.305C748.907 419.305 753.817 419.353 759.559 419.305C765.993 419.251 769.049 418.985 775.677 418.142C788.35 416.529 787.403 414.652 787.403 413.78C787.403 412.908 785.992 411.965 784.531 411.454C780.756 410.134 774.794 410 774.794 410C774.794 410 781.66 410.872 783.574 412.326C783.961 412.62 783.996 412.822 783.961 413.087C783.826 414.114 778.768 415.855 774.794 416.46C768.053 417.487 765.844 418.08 759.884 418.142C754.405 418.199 745.287 418.142 745.287 418.142C740.74 418.142 732.433 417.762 727.34 416.46C727.34 416.46 734.28 419.305 743.373 419.305Z" fill="#684077"/>
<path d="M754.14 410.59C757.05 410.59 759.736 410.572 762.755 410.59C766.137 410.61 767.646 410.565 771.13 410.88C777.793 411.484 777.343 412.629 777.343 412.955C777.343 413.282 776.602 413.634 775.834 413.826C773.849 414.319 770.714 414.37 770.714 414.37C770.714 414.37 774.324 414.043 775.33 413.499C775.534 413.389 775.552 413.314 775.534 413.215C775.463 412.831 772.803 412.179 770.714 411.953C767.17 411.569 766.009 411.347 762.875 411.323C759.994 411.302 755.201 411.323 755.201 411.323C752.549 411.323 748.637 411.171 745.765 410.88C745.765 410.88 749.36 410.59 754.14 410.59Z" fill="#684077"/>
<path d="M745.765 415.031C748.408 415.044 750.627 415.247 753.321 415.233C756.339 415.218 757.685 415.252 760.795 415.01C766.74 414.546 766.339 413.665 766.339 413.414C766.339 413.163 765.677 412.892 764.992 412.745C763.221 412.365 760.423 412.326 760.423 412.326C760.423 412.326 763.645 412.577 764.543 412.996C764.724 413.08 764.741 413.138 764.724 413.214C764.661 413.51 762.288 414.011 760.423 414.185C757.261 414.48 756.117 414.518 753.321 414.518C750.791 414.518 746.483 414.407 746.483 414.407C744.117 414.407 741.92 414.407 738.709 414.185C738.709 414.185 741.219 415.01 745.765 415.031Z" fill="#684077"/>
</g>
<g filter="url(#filter1_i_1805_214)">
<path d="M294.549 308.002C211.405 308.002 63.0472 308.002 0 322.501L137.917 377H446.751L662 322.501C583.683 307.502 384.196 308.002 294.551 308.002H294.549Z" fill="url(#paint0_linear_1805_214)"/>
<path d="M118.43 288.574L121.926 289.699C123.008 290.047 123.589 291.217 123.214 292.29C121.511 297.164 117.173 310.149 115.832 319.564C114.66 327.794 114.821 340.015 114.915 344.106C114.935 344.946 114.439 345.738 113.611 345.877C111.562 346.222 108.571 345.691 105.377 341.706C101.507 336.878 107.654 305.248 116.115 289.484C116.559 288.657 117.536 288.287 118.43 288.574Z" fill="#9EA6A6"/>
<path d="M186.173 393.601L265.173 229.601C257.173 225.767 236.073 217.301 215.673 214.101C195.273 210.901 165.839 215.434 153.673 218.101C137.339 247.934 105.373 313.401 108.173 336.601C110.973 359.801 161.339 384.267 186.173 393.601Z" fill="url(#paint1_linear_1805_214)"/>
<path d="M169.897 359.146L177.551 321.904C177.757 320.899 177.169 319.9 176.19 319.593L132.443 305.885C131.313 305.531 130.124 306.231 129.886 307.391L123.503 338.447C123.387 339.009 123.516 339.589 123.89 340.023C125.752 342.183 132.224 348.935 143.944 353.648C153.558 357.514 163.515 359.822 167.591 360.68C168.655 360.904 169.678 360.212 169.897 359.146Z" fill="#E1EAEA"/>
<path d="M143.558 338.559L126.189 324.372C125.283 323.632 124.89 322.433 125.181 321.3L129.065 306.216C129.5 304.527 131.278 303.564 132.931 304.122L176.591 318.884C178.002 319.361 178.849 320.8 178.582 322.265L176.411 334.146C176.17 335.468 175.078 336.469 173.74 336.594L145.736 339.222C144.951 339.296 144.168 339.058 143.558 338.559Z" fill="#C7CDCD"/>
<path d="M382.807 311.881C366.281 300.607 352.583 265.797 349.04 247.719C348.738 236.013 350.977 227.582 361.381 221.605C371.786 215.629 380.711 218.507 386.266 224.656C394.639 233.924 408.461 257.049 414.723 259.819C419.981 262.145 441.632 270.591 450.858 274.14C453.954 281.186 463.159 325.652 454.051 328.438C442.666 331.92 403.464 325.973 382.807 311.881Z" fill="#CAD6D6"/>
<path d="M439.865 300.914C439.869 288.204 444.774 275.416 445.637 273.958C446.5 272.5 447.173 271.247 449.336 271.247C451.5 271.247 451.927 273.386 453.069 273.381C464.901 273.329 486.914 264.023 489.707 297.875C492.258 328.803 471.5 328 456.5 328.803C455.947 329.294 454.678 330.964 452.5 331C450.322 331.036 448.879 328.803 448.879 328.803C448.879 328.803 439.859 319.341 439.865 300.914Z" fill="#ADBDBD"/>
<path d="M196.001 276.942C178.501 335.442 190.611 376.781 189.847 404.906C286.534 438.957 416.932 426.06 416.932 396.427C416.932 330.942 416.932 331.942 409.001 285.908C401.07 239.874 367.841 171.578 305.092 173.177C227.67 175.15 205.922 243.778 196.001 276.942Z" fill="#F7FEFE"/>
<path d="M342.5 236C343.94 243.36 349.989 266.696 349.999 285.187C350.014 312.797 346.97 326.099 346.257 335" stroke="#E9F3F3" stroke-width="1.5" stroke-linecap="round"/>
<path d="M354.297 243.223L341.899 236L348.629 246.637L354.297 243.223Z" fill="#E3EFEF"/>
<path d="M144 237C152.4 219.8 174.5 214.167 184.5 213.5C175 213.5 154.5 213.5 144 224.5C139.784 228.917 127 260 117.5 273C117.5 273 120.119 274.93 121 276.5C122.122 278.5 123 281.5 123 281.5C124.833 278 135.6 254.2 144 237Z" fill="#9EA6A6"/>
<path d="M292.439 276.091L292.171 301.463C292.101 308.067 296.994 313.665 303.567 314.303C314.962 315.409 332.513 316.745 345.362 316.044C358.812 315.31 377.073 311.692 387.29 309.474C392.055 308.44 395.733 304.717 396.024 299.849C396.293 295.369 396.244 289.185 395.09 281.851C394.023 275.069 392.262 268.97 390.619 264.254C388.582 258.408 382.299 255.588 376.26 256.954C367.574 258.919 354.461 261.497 341.078 262.682C330.511 263.617 316.565 263.389 306.342 263.007C298.871 262.729 292.518 268.615 292.439 276.091Z" fill="#E3EFEF"/>
<ellipse cx="282.5" cy="258" rx="8.5" ry="9" fill="#CCCCCC"/>
<ellipse cx="403.5" cy="310.5" rx="6.5" ry="7.5" fill="#CCCCCC"/>
<path d="M416 319C417 321.5 417 324 416.5 326C404.159 315.198 400 315.776 400 311.147C400 309.573 402.215 304.974 406.645 306.208C411.075 307.443 415.883 318.708 416 319Z" fill="#E4ECEC"/>
<ellipse cx="392.186" cy="249.786" rx="6.2919" ry="7" transform="rotate(-7.82099 392.186 249.786)" fill="#CCCCCC"/>
<path d="M392.241 252.983C383 251.403 387 223.5 387 223.5C387 223.5 390.155 225.138 392 228C393.845 230.862 395.5 236 395.5 236C395.5 236 400.5 254.395 392.241 252.983Z" fill="#E4ECEC"/>
<path d="M283.359 316L289 323.5C289 323.5 265.474 344.899 246.5 351.5C226.277 358.536 186.5 358 186.5 358V334C186.5 334 223.389 348.06 243 342C261.521 336.277 283.359 316 283.359 316Z" fill="#E4ECEC"/>
<path d="M397.018 80.1044C383.158 66.6162 354.648 83.2616 354.648 83.2616C354.648 83.2616 366.749 90.9027 377.152 102.662C388.874 115.913 395.888 126.808 395.888 126.808C395.888 126.808 417.663 100.197 397.018 80.1044Z" fill="#BB9274"/>
<path d="M396.277 89.5964C406.688 102.601 391.614 118.896 391.614 118.896L366.997 91.3133C366.997 91.3133 385.866 76.5921 396.277 89.5964Z" fill="#D6B89E"/>
<path d="M406.691 167.072C406.132 214.758 392.61 231.407 304.134 230.371C210.862 229.278 202.531 212.373 203.089 164.687C203.648 117 249.816 67.1511 306.039 67.8098C362.262 68.4684 407.249 119.386 406.691 167.072Z" fill="#C59E80"/>
<ellipse cx="332.666" cy="182.401" rx="44.05" ry="33.8846" transform="rotate(-1.05377 332.666 182.401)" fill="#E1C7B3"/>
<ellipse cx="291.269" cy="149.364" rx="8.03996" ry="12.5066" transform="rotate(-1.05377 291.269 149.364)" fill="#776969"/>
<ellipse cx="2.6476" cy="4.54325" rx="2.6476" ry="4.54325" transform="matrix(0.967112 -0.25435 0.3481 0.937457 289.488 139.927)" fill="white"/>
<ellipse cx="369.435" cy="146.653" rx="8.03996" ry="12.5066" transform="rotate(-1.05377 369.435 146.653)" fill="#776969"/>
<ellipse cx="2.6476" cy="4.54325" rx="2.6476" ry="4.54325" transform="matrix(0.967112 -0.25435 0.3481 0.937457 367.654 137.215)" fill="white"/>
<path d="M334.048 178.771C330.735 177.58 319.301 172.45 324.342 169.777C326.589 168.585 334.211 167.077 337.328 166.947C340.286 166.823 347.026 167.807 349.775 169.309C357.952 173.776 343.045 182.004 334.048 178.771Z" fill="#776969" stroke="#776969" stroke-width="2.61575" stroke-linecap="round"/>
<path d="M314.61 191.295C321.948 200.714 336.718 205.07 339.362 190.84M339.362 190.84C342.711 204.528 353.5 200.712 360.5 191.295M339.362 190.84L339.136 178.557" stroke="#776969" stroke-width="3.92362" stroke-linecap="round"/>
<path d="M211.5 84.5847C196.551 98.996 213.411 130.202 213.411 130.202C213.411 130.202 222.028 117.473 235.003 106.714C249.623 94.5903 261.552 87.4399 261.552 87.4399C261.552 87.4399 233.769 63.1172 211.5 84.5847Z" fill="#C59E80"/>
<path d="M221.731 86.3897C206.006 97.7786 221.787 119.069 221.787 119.069L252.136 92.7209C252.136 92.7209 237.455 75.0008 221.731 86.3897Z" fill="#E1C7B3"/>
<g filter="url(#filter2_i_1805_214)">
<path d="M441 128.229C441 199.048 420.5 231 301 231C201 231 166 199.048 166 128.229C166 57.41 227.561 0 303.5 0C379.439 0 441 57.41 441 128.229Z" fill="url(#paint2_linear_1805_214)" fill-opacity="0.2"/>
</g>
<ellipse cx="377" cy="334.5" rx="21" ry="21.5" fill="#23243D"/>
<ellipse cx="9.18492" cy="8.71111" rx="9.18492" ry="8.71111" transform="matrix(0.988036 -0.154224 0.1752 0.984533 358.443 269.833)" fill="#EDB9B9"/>
<ellipse cx="9.18492" cy="8.71111" rx="9.18492" ry="8.71111" transform="matrix(0.988036 -0.154224 0.1752 0.984533 361.107 289.557)" fill="#A8BBDF"/>
<path fill-rule="evenodd" clip-rule="evenodd" d="M333.721 276.364L341.382 275.702L341.571 277.889L333.91 278.551L333.721 276.364Z" fill="url(#paint3_linear_1805_214)"/>
<path fill-rule="evenodd" clip-rule="evenodd" d="M338.414 272.018L339.1 279.958L336.904 282.466L336.228 274.641L338.414 272.018Z" fill="url(#paint4_linear_1805_214)"/>
<path fill-rule="evenodd" clip-rule="evenodd" d="M335.993 285.906L340.399 280.888L342.076 300.301L337.064 298.299L335.993 285.906Z" fill="url(#paint5_linear_1805_214)"/>
<path fill-rule="evenodd" clip-rule="evenodd" d="M312.395 280.759L311.838 274.315L341.916 298.611L342.473 305.055L312.395 280.759Z" fill="url(#paint6_linear_1805_214)"/>
<path fill-rule="evenodd" clip-rule="evenodd" d="M311.838 274.315L317.024 278.504L319.092 302.438L314.702 307.454L311.838 274.315Z" fill="url(#paint7_linear_1805_214)"/>
<path fill-rule="evenodd" clip-rule="evenodd" d="M314.702 307.453L325.478 295.393L321.848 292.461L314.195 300.724L314.702 307.453Z" fill="url(#paint8_linear_1805_214)"/>
<path d="M761 207.211C761 207.211 729.476 219.141 707 222.5C685.757 225.676 650.5 222.5 650.5 222.5C650.5 222.5 619.175 239.979 597 247.5C574.255 255.215 535.5 261 535.5 261C535.5 261 515.286 281.952 497.5 291C480.161 299.821 448.5 304.5 448.5 304.5" stroke="#928F8F" stroke-width="2"/>
<path d="M760 194L760 413" stroke="url(#paint9_linear_1805_214)" stroke-width="2"/>
<g filter="url(#filter3_i_1805_214)">
<path d="M533.687 261.462C534.11 262.482 535.28 262.966 536.301 262.543C537.321 262.12 537.805 260.95 537.382 259.93L533.687 261.462ZM528.891 249.893L533.687 261.462L537.382 259.93L532.586 248.361L528.891 249.893Z" fill="#454662"/>
<path d="M446.265 306.497C446.816 307.454 448.038 307.785 448.996 307.234C449.954 306.684 450.284 305.462 449.734 304.504L446.265 306.497ZM441.593 298.363L446.265 306.497L449.734 304.504L445.061 296.371L441.593 298.363Z" fill="#454662"/>
<path d="M648.703 222.669C648.932 223.749 649.993 224.44 651.074 224.211C652.155 223.982 652.845 222.92 652.616 221.84L648.703 222.669ZM646.108 210.417L648.703 222.669L652.616 221.84L650.021 209.588L646.108 210.417Z" fill="#454662"/>
<path d="M758 207.5C758 208.605 758.896 209.5 760 209.5C761.105 209.5 762 208.605 762 207.5L758 207.5ZM758 193L758 207.5L762 207.5L762 193L758 193Z" fill="#454662"/>
<path d="M572.999 236C511 258 387 334.5 387 334.5L384 318.5C438.5 284.5 495 251.61 567.333 227.499C626.499 207.777 715.999 187.5 762.499 192.5C762.499 192.5 765.105 197.828 762.499 198C757 197 704.624 189.294 572.999 236Z" fill="url(#paint10_linear_1805_214)"/>
</g>
<path d="M249.841 331.683C231.137 317.839 212.5 286 214 256.5C216 244.812 226.063 232.928 241 231C256.5 229 266.194 238.501 272 245.5C280.752 256.051 293.607 281.249 301 285.001C307.208 288.152 333 300 344 305C346.5 312.5 349.141 358.183 337 359.501C321.824 361.149 273.22 348.988 249.841 331.683Z" fill="#EEF7F7"/>
<path d="M334.401 330.892C335.8 317.313 339.347 310.736 341.73 307.267C344.113 303.798 345.52 302.679 347.617 302.843C350.064 302.874 350.622 305.557 351.856 305.532C369.849 305.161 387.356 303.992 386.955 335.152C386.554 366.311 338.198 359.143 338.198 359.143C338.198 359.143 332.129 352.961 334.401 330.892Z" fill="#DDE3E3"/>
<path d="M270 234.5C262.5 229 247.956 225 231.5 228C215.044 231 207.5 241 204.073 245.135C200.647 249.271 190.502 273.538 194 274.001C197.498 274.464 211.954 259.647 215.044 255.918C226.077 242.604 240.964 237.264 257 240C268.247 241.919 278.645 256.193 281.028 259.097C283.41 262 285.551 262 286.5 258.5C287.449 255 277.5 240 270 234.5Z" fill="#E4ECEC"/>
<path opacity="0.54" fill-rule="evenodd" clip-rule="evenodd" d="M384.692 221.962C431.062 208.003 441 177.537 441 128.229C441 57.41 379.439 0 303.5 0C227.561 0 166 57.41 166 128.229C166 168.966 177.581 196.843 206.454 213.175C197.813 212.718 188.39 213.204 179.686 214.086C181.479 213.782 183.107 213.593 184.5 213.5C175 213.5 154.5 213.5 144 224.5C142.112 226.478 138.504 233.808 134.242 242.466L134.242 242.466L134.242 242.466C128.99 253.136 122.745 265.823 117.5 273C117.5 273 120.119 274.93 121 276.5C122.122 278.5 123 281.5 123 281.5C123.08 281.347 123.178 281.155 123.291 280.926C122.147 283.661 121.039 286.381 119.977 289.072L118.43 288.574C117.536 288.287 116.56 288.656 116.116 289.484C107.655 305.248 101.507 336.878 105.377 341.706C107.662 344.557 109.843 345.64 111.65 345.899C123.936 366.049 164.647 385.511 186.173 393.601L189.176 387.366C189.671 393.711 189.993 399.548 189.847 404.906C286.534 438.957 416.932 426.06 416.932 396.427C416.932 358.343 416.932 342.745 415.372 327.306C415.302 326.609 415.228 325.913 415.151 325.215L415.417 325.282C415.536 325.311 415.655 325.341 415.775 325.37C415.914 325.49 416.054 325.611 416.195 325.734C416.296 325.822 416.398 325.911 416.5 326C416.535 325.86 416.568 325.716 416.598 325.571C429.237 328.611 441.533 329.878 449.226 329.256C449.778 329.907 450.954 331.026 452.5 331C454.349 330.969 455.543 329.762 456.2 329.097C456.317 328.978 456.417 328.877 456.5 328.803C457.308 328.76 458.132 328.721 458.968 328.682L458.973 328.682L458.977 328.681C473.675 327.994 492.12 327.132 489.707 297.875C487.374 269.598 471.63 271.435 459.612 272.836C457.243 273.113 455.018 273.372 453.069 273.381C452.588 273.383 452.234 273.004 451.823 272.566C451.259 271.963 450.589 271.247 449.337 271.247C447.964 271.247 447.192 271.751 446.59 272.492C436.168 268.454 419.283 261.836 414.724 259.819C410.9 258.128 404.257 248.846 397.757 239.765L397.757 239.764L397.732 239.73C397.064 238.797 396.398 237.866 395.737 236.945C395.595 236.348 395.5 236 395.5 236C395.5 236 393.845 230.862 392 228C390.155 225.138 387 223.5 387 223.5C387 223.5 386.908 224.143 386.784 225.238C386.689 225.13 386.595 225.024 386.502 224.919C385.91 223.927 385.306 222.941 384.692 221.962Z" fill="url(#paint11_linear_1805_214)"/>
<path d="M306.5 339C29.5 339 51.3333 328.833 0 323L29.5 339L246 372L650.5 345.5L662 322.5C594.833 328.333 644.5 339 306.5 339Z" fill="#443A2E"/>
<path d="M533.372 480C620.875 480 662 322.5 662 322.5C662 322.5 576.5 344.783 471.432 344.783H146.621C63 344.783 0 322.944 0 322.944C0 322.944 12.0019 480 81.7696 480H533.372Z" fill="url(#paint12_linear_1805_214)"/>
<mask id="mask0_1805_214" style="mask-type:alpha" maskUnits="userSpaceOnUse" x="0" y="322" width="662" height="158">
<path d="M533.372 480C620.875 480 662 322.5 662 322.5C662 322.5 576.5 344.783 471.432 344.783H146.621C63 344.783 0 322.944 0 322.944C0 322.944 12.0019 480 81.7696 480H533.372Z" fill="#B5B5B5"/>
</mask>
<g mask="url(#mask0_1805_214)">
<path d="M58.0736 357.433C27.9533 353.018 2.92852 334.884 -5.81885 326.368C-4.74021 336.345 -1.08267 357.442 4.91842 362.019C12.4198 367.74 65.8569 371.785 77.8691 371.33C97.0191 370.605 251.821 378.507 235.027 376.942C216.109 375.178 95.7239 362.951 58.0736 357.433Z" fill="url(#paint13_linear_1805_214)"/>
<path d="M28.5 441C46.8333 448.5 98.9 464.3 160.5 467.5C234.061 471.321 258.338 479.706 270.387 480.011C272.302 479.966 272.914 479.96 272 480C271.486 480.022 270.95 480.026 270.387 480.011C253.026 480.421 128.596 484.049 63 486L36 467.5L28.5 441Z" fill="#2D2218"/>
<path fill-rule="evenodd" clip-rule="evenodd" d="M149.076 385.944C124.924 383.692 83.7132 382.253 62.2245 382.928C40.7357 383.603 38.9391 386.28 38.21 392.741C37.4644 399.35 52.1044 407.093 59.7647 409.314C67.425 411.534 90.6107 414.83 121.729 412.579C155.679 410.124 237.031 392.318 252.126 389.014L252.896 388.845C253.223 388.791 253.516 388.734 253.775 388.674C255.102 388.365 254.699 388.451 252.896 388.845C239.638 391.038 171.995 388.081 149.076 385.944ZM159.384 396.505C159.384 396.505 82.5395 407.419 60.2428 398.813C58.1819 398.017 56.2804 396.64 56.6314 394.459C56.9611 392.409 58.8844 391.64 60.939 391.345C86.3872 387.691 159.384 396.505 159.384 396.505Z" fill="url(#paint14_linear_1805_214)"/>
<path fill-rule="evenodd" clip-rule="evenodd" d="M6.50013 405C30.8335 415.167 68.5 428.5 121 425C143.82 423.479 185.285 416.32 233.098 408.065C316.764 393.619 419.865 375.818 476.5 379C518.476 381.358 545.326 388.165 566.964 393.651C591.204 399.797 608.903 404.284 634 399C672 391 641.833 422 622 438.5L621.747 438.526C561.886 444.528 462.445 454.5 388 454.5C314 454.5 50.5001 452 20.0001 428.5C-4.39987 409.7 0.833463 405 6.50013 405ZM342.37 428.5C358.37 420 402.17 403 449.37 403C496.57 403 516.037 415.334 519.87 421.5C523.703 427.667 464.95 431.233 429.37 432.5C426.586 432.599 423.568 432.712 420.38 432.832C384.647 434.17 327.68 436.304 342.37 428.5Z" fill="url(#paint15_linear_1805_214)"/>
<path d="M440.269 412C423.754 412 408.428 419.096 402.829 422.643C397.231 426.191 421.378 424.818 433.271 424.313C445.721 423.784 466.279 422.295 464.937 419.722C463.596 417.148 456.785 412 440.269 412Z" fill="url(#paint16_linear_1805_214)"/>
<path d="M531 369C551.748 376.729 624.5 390.5 646.5 385.5L650 367.5C618 373.5 505.5 359.5 531 369Z" fill="url(#paint17_linear_1805_214)"/>
<path d="M491.5 352C524.961 350.606 619.667 339.833 663 331C663 336.333 662.5 348 660.5 352C658 357 443.5 354 491.5 352Z" fill="url(#paint18_linear_1805_214)"/>
<path d="M305 373C333 366.6 391 359.667 412.5 359C384.683 358.4 329 365.487 282.5 363C262.812 361.947 210.111 352.204 217 354.5C230.5 359 270 381 305 373Z" fill="url(#paint19_linear_1805_214)"/>
</g>
<g style="mix-blend-mode:multiply" opacity="0.2">
<path fill-rule="evenodd" clip-rule="evenodd" d="M384.692 221.962C431.062 208.003 441 177.537 441 128.229C441 57.41 379.439 0 303.5 0C227.561 0 166 57.41 166 128.229C166 168.966 177.581 196.843 206.454 213.175C197.813 212.718 188.39 213.204 179.686 214.086C181.479 213.782 183.107 213.593 184.5 213.5C175 213.5 154.5 213.5 144 224.5C142.111 226.478 138.504 233.808 134.242 242.466L134.242 242.466C128.99 253.136 122.744 265.823 117.5 273C117.5 273 120.119 274.93 121 276.5C122.122 278.5 123 281.5 123 281.5C123.08 281.347 123.178 281.155 123.291 280.926C122.147 283.661 121.039 286.381 119.976 289.072L118.43 288.574C117.536 288.287 116.559 288.656 116.115 289.484C113.019 295.254 110.232 303.149 108.132 311.078C64.789 313.159 25.4461 316.649 0 322.501L5.75505 324.776C1.99814 323.637 0 322.944 0 322.944C0 322.944 12.0019 480 81.7696 480H533.372C620.725 480 661.86 323.038 662 322.501C662 322.501 662 322.5 662 322.5C662 322.5 661.999 322.5 661.997 322.501C624.1 315.243 557.835 311.615 489.373 309.802C489.946 306.47 490.091 302.532 489.707 297.875C489.64 297.071 489.563 296.292 489.476 295.536C492.509 294.414 495.384 293.199 497.953 291.892C506.96 287.31 516.536 279.743 523.828 273.36C527.482 270.162 530.577 267.248 532.759 265.134C533.819 264.107 534.664 263.268 535.253 262.676C535.596 262.725 535.957 262.686 536.301 262.543C536.705 262.376 537.025 262.091 537.238 261.744L537.364 261.725C538.471 261.551 540.077 261.294 542.074 260.962C546.069 260.298 551.633 259.333 557.909 258.126C570.448 255.714 585.88 252.328 597.321 248.447C608.476 244.663 621.901 238.388 632.513 233.074C637.824 230.414 642.441 227.99 645.73 226.231C647.375 225.351 648.688 224.637 649.59 224.143L649.77 224.045C650.159 224.239 650.615 224.308 651.074 224.21C651.482 224.124 651.835 223.918 652.104 223.638C653.107 223.718 654.525 223.825 656.272 223.945C659.918 224.193 665 224.492 670.749 224.691C682.227 225.088 696.43 225.092 707.147 223.489C718.467 221.797 732.029 217.955 742.731 214.549C748.089 212.844 752.742 211.244 756.057 210.071C757.109 209.698 758.026 209.368 758.788 209.092C758.856 209.143 758.926 209.19 759 209.233V413H761V209.233C761.598 208.887 762 208.241 762 207.5L762 197.914C762.196 197.946 762.362 197.976 762.499 198C765.105 197.828 762.499 192.5 762.499 192.5C715.999 187.5 626.499 207.777 567.333 227.499C528.701 240.376 494.586 255.758 462.88 272.475C461.771 272.584 460.68 272.712 459.618 272.836L459.614 272.836L459.612 272.836C457.242 273.113 455.018 273.372 453.069 273.381C452.588 273.383 452.234 273.004 451.823 272.566C451.259 271.963 450.589 271.247 449.336 271.247C447.964 271.247 447.192 271.751 446.59 272.492C436.168 268.454 419.283 261.836 414.723 259.819C410.9 258.128 404.257 248.846 397.757 239.765C397.081 238.82 396.406 237.877 395.736 236.946C395.595 236.348 395.5 236 395.5 236C395.5 236 393.845 230.862 392 228C390.155 225.138 387 223.5 387 223.5C387 223.5 386.908 224.143 386.784 225.238C386.689 225.13 386.595 225.024 386.502 224.919C385.91 223.927 385.306 222.941 384.692 221.962ZM758 197.414C746.341 196.307 713.418 195.673 650.522 211.953L652.58 221.669C653.55 221.745 654.846 221.843 656.408 221.949C660.037 222.197 665.097 222.494 670.818 222.692C682.279 223.088 696.327 223.085 706.852 221.511C718.008 219.844 731.446 216.042 742.125 212.643C747.458 210.946 752.09 209.353 755.389 208.185C756.387 207.832 757.264 207.517 758 207.25L758 197.414ZM646.648 212.967C625.487 218.569 601.041 226.05 572.999 236C561.771 239.985 548.509 245.757 534.318 252.538L537.292 259.711C538.381 259.54 539.894 259.297 541.746 258.989C545.729 258.328 551.276 257.365 557.531 256.162C570.057 253.752 585.375 250.388 596.678 246.553C607.698 242.815 621.023 236.591 631.617 231.286C636.909 228.636 641.51 226.22 644.787 224.467C646.425 223.591 647.733 222.88 648.63 222.389L648.642 222.382L646.648 212.967ZM530.708 254.275C515.513 261.636 499.38 270.056 483.623 278.61C486.193 281.839 488.174 286.59 489.207 293.503C492.016 292.45 494.67 291.318 497.046 290.109C505.826 285.643 515.25 278.21 522.511 271.855C526.134 268.684 529.204 265.794 531.367 263.697C532.323 262.771 533.102 262 533.673 261.428L530.708 254.275Z" fill="#5B20AC"/>
</g>
</g>
<defs>
<filter id="filter0_d_1805_214" x="704" y="407" width="111" height="28.6196" filterUnits="userSpaceOnUse" color-interpolation-filters="sRGB">
<feFlood flood-opacity="0" result="BackgroundImageFix"/>
<feColorMatrix in="SourceAlpha" type="matrix" values="0 0 0 0 0 0 0 0 0 0 0 0 0 0 0 0 0 0 127 0" result="hardAlpha"/>
<feOffset dx="2" dy="2"/>
<feGaussianBlur stdDeviation="2.5"/>
<feComposite in2="hardAlpha" operator="out"/>
<feColorMatrix type="matrix" values="0 0 0 0 1 0 0 0 0 1 0 0 0 0 1 0 0 0 0.1 0"/>
<feBlend mode="normal" in2="BackgroundImageFix" result="effect1_dropShadow_1805_214"/>
<feBlend mode="normal" in="SourceGraphic" in2="effect1_dropShadow_1805_214" result="shape"/>
</filter>
<filter id="filter1_i_1805_214" x="0" y="0" width="798.657" height="515" filterUnits="userSpaceOnUse" color-interpolation-filters="sRGB">
<feFlood flood-opacity="0" result="BackgroundImageFix"/>
<feBlend mode="normal" in="SourceGraphic" in2="BackgroundImageFix" result="shape"/>
<feColorMatrix in="SourceAlpha" type="matrix" values="0 0 0 0 0 0 0 0 0 0 0 0 0 0 0 0 0 0 127 0" result="hardAlpha"/>
<feOffset dx="38" dy="37"/>
<feGaussianBlur stdDeviation="17.5"/>
<feComposite in2="hardAlpha" operator="arithmetic" k2="-1" k3="1"/>
<feColorMatrix type="matrix" values="0 0 0 0 1 0 0 0 0 0.32549 0 0 0 0 0.505882 0 0 0 0.25 0"/>
<feBlend mode="normal" in2="shape" result="effect1_innerShadow_1805_214"/>
</filter>
<filter id="filter2_i_1805_214" x="151" y="0" width="290" height="282" filterUnits="userSpaceOnUse" color-interpolation-filters="sRGB">
<feFlood flood-opacity="0" result="BackgroundImageFix"/>
<feBlend mode="normal" in="SourceGraphic" in2="BackgroundImageFix" result="shape"/>
<feColorMatrix in="SourceAlpha" type="matrix" values="0 0 0 0 0 0 0 0 0 0 0 0 0 0 0 0 0 0 127 0" result="hardAlpha"/>
<feOffset dx="-15" dy="53"/>
<feGaussianBlur stdDeviation="25.5"/>
<feComposite in2="hardAlpha" operator="arithmetic" k2="-1" k3="1"/>
<feColorMatrix type="matrix" values="0 0 0 0 0.976471 0 0 0 0 0.756863 0 0 0 0 0.643137 0 0 0 0.5 0"/>
<feBlend mode="normal" in2="shape" result="effect1_innerShadow_1805_214"/>
</filter>
<filter id="filter3_i_1805_214" x="384" y="190.731" width="387.657" height="143.769" filterUnits="userSpaceOnUse" color-interpolation-filters="sRGB">
<feFlood flood-opacity="0" result="BackgroundImageFix"/>
<feBlend mode="normal" in="SourceGraphic" in2="BackgroundImageFix" result="shape"/>
<feColorMatrix in="SourceAlpha" type="matrix" values="0 0 0 0 0 0 0 0 0 0 0 0 0 0 0 0 0 0 127 0" result="hardAlpha"/>
<feOffset dx="8" dy="-1"/>
<feGaussianBlur stdDeviation="4.5"/>
<feComposite in2="hardAlpha" operator="arithmetic" k2="-1" k3="1"/>
<feColorMatrix type="matrix" values="0 0 0 0 1 0 0 0 0 1 0 0 0 0 1 0 0 0 0.15 0"/>
<feBlend mode="normal" in2="shape" result="effect1_innerShadow_1805_214"/>
</filter>
<linearGradient id="paint0_linear_1805_214" x1="331" y1="308" x2="331" y2="396.5" gradientUnits="userSpaceOnUse">
<stop stop-color="#1F1325"/>
<stop offset="1" stop-color="#544A62"/>
</linearGradient>
<linearGradient id="paint1_linear_1805_214" x1="133.5" y1="287" x2="222.5" y2="313.5" gradientUnits="userSpaceOnUse">
<stop stop-color="#B8BEBE"/>
<stop offset="1" stop-color="#9FA4A4"/>
</linearGradient>
<linearGradient id="paint2_linear_1805_214" x1="304" y1="0.000244102" x2="397" y2="231" gradientUnits="userSpaceOnUse">
<stop stop-color="#FDD6A9"/>
<stop offset="1" stop-color="#EEFFFE"/>
</linearGradient>
<linearGradient id="paint3_linear_1805_214" x1="334.395" y1="277.537" x2="341.89" y2="276.89" gradientUnits="userSpaceOnUse">
<stop stop-color="#20FFAF"/>
<stop offset="1" stop-color="#01DACC"/>
</linearGradient>
<linearGradient id="paint4_linear_1805_214" x1="338.41" y1="273.39" x2="336.128" y2="273.587" gradientUnits="userSpaceOnUse">
<stop stop-color="#20FFAF"/>
<stop offset="1" stop-color="#01DACC"/>
</linearGradient>
<linearGradient id="paint5_linear_1805_214" x1="336.319" y1="282.233" x2="337.918" y2="300.735" gradientUnits="userSpaceOnUse">
<stop stop-color="#20FFAF"/>
<stop offset="1" stop-color="#01DACC"/>
</linearGradient>
<linearGradient id="paint6_linear_1805_214" x1="315.675" y1="275.677" x2="318.404" y2="307.263" gradientUnits="userSpaceOnUse">
<stop stop-color="#20FFAF"/>
<stop offset="1" stop-color="#01DACC"/>
</linearGradient>
<linearGradient id="paint7_linear_1805_214" x1="312.62" y1="275.941" x2="315.349" y2="307.527" gradientUnits="userSpaceOnUse">
<stop stop-color="#20FFAF"/>
<stop offset="1" stop-color="#01DACC"/>
</linearGradient>
<linearGradient id="paint8_linear_1805_214" x1="315.434" y1="293.481" x2="316.035" y2="307.452" gradientUnits="userSpaceOnUse">
<stop stop-color="#20FFAF"/>
<stop offset="1" stop-color="#01DACC"/>
</linearGradient>
<linearGradient id="paint9_linear_1805_214" x1="760.5" y1="194" x2="760.5" y2="413" gradientUnits="userSpaceOnUse">
<stop stop-color="#848484"/>
<stop offset="1" stop-color="#E3E3E3"/>
</linearGradient>
<linearGradient id="paint10_linear_1805_214" x1="501.502" y1="190.909" x2="501.502" y2="355.435" gradientUnits="userSpaceOnUse">
<stop stop-color="#444562"/>
<stop offset="1" stop-color="#181930"/>
</linearGradient>
<linearGradient id="paint11_linear_1805_214" x1="297.057" y1="154" x2="297.057" y2="368.5" gradientUnits="userSpaceOnUse">
<stop stop-color="#A83BCF" stop-opacity="0"/>
<stop offset="1" stop-color="#25182D"/>
</linearGradient>
<linearGradient id="paint12_linear_1805_214" x1="331" y1="322.5" x2="331" y2="480" gradientUnits="userSpaceOnUse">
<stop stop-color="#936E4A"/>
<stop offset="1" stop-color="#34281B"/>
</linearGradient>
<linearGradient id="paint13_linear_1805_214" x1="116.541" y1="337.775" x2="112.991" y2="375.859" gradientUnits="userSpaceOnUse">
<stop stop-color="#806141"/>
<stop offset="1" stop-color="#4B3B2A"/>
</linearGradient>
<linearGradient id="paint14_linear_1805_214" x1="146.37" y1="382.761" x2="146.37" y2="413.333" gradientUnits="userSpaceOnUse">
<stop stop-color="#5B4A39"/>
<stop offset="1" stop-color="#291E14"/>
</linearGradient>
<linearGradient id="paint15_linear_1805_214" x1="326.983" y1="378.627" x2="326.983" y2="454.5" gradientUnits="userSpaceOnUse">
<stop stop-color="#5B4A39"/>
<stop offset="1" stop-color="#291E14"/>
</linearGradient>
<linearGradient id="paint16_linear_1805_214" x1="433.5" y1="412" x2="433.5" y2="425" gradientUnits="userSpaceOnUse">
<stop stop-color="#7D644C" stop-opacity="0"/>
<stop offset="1" stop-color="#271F17"/>
</linearGradient>
<linearGradient id="paint17_linear_1805_214" x1="588.636" y1="365.588" x2="588.636" y2="386.567" gradientUnits="userSpaceOnUse">
<stop stop-color="#5B4A39"/>
<stop offset="1" stop-color="#291E14"/>
</linearGradient>
<linearGradient id="paint18_linear_1805_214" x1="573.75" y1="331" x2="573.75" y2="354.736" gradientUnits="userSpaceOnUse">
<stop stop-color="#937354"/>
<stop offset="1" stop-color="#463829"/>
</linearGradient>
<linearGradient id="paint19_linear_1805_214" x1="319.58" y1="358.598" x2="319.58" y2="375.066" gradientUnits="userSpaceOnUse">
<stop stop-color="#4A3C2E"/>
<stop offset="1" stop-color="#745D45"/>
</linearGradient>
</defs>
</svg>
