<svg width="1440" height="1145" viewBox="0 0 1440 1145" fill="none" xmlns="http://www.w3.org/2000/svg">
<g clip-path="url(#clip0_20_1832)">
<g filter="url(#filter0_d_20_1832)">
<path d="M-6.80762 270.424C13.5795 233.251 27.2718 214.245 58.1859 185.621C117.714 154.374 179.41 123.481 191.824 122.019C204.239 120.557 224.992 82.4704 249.515 73.0379C293.861 59.4394 314.893 52.1974 336.417 40.8712C357 30.04 355.989 68.4 369 69.9999C369 69.9999 379.502 40.8712 387.535 53.2992C395.568 65.7273 402.154 20.4074 412.364 -2.99243H-6.80762V270.424Z" fill="#918889"/>
<path d="M412.364 -2.99243C402.154 20.4074 395.568 65.7273 387.535 53.2992C379.502 40.8712 369 69.9999 369 69.9999C355.989 68.4 357 30.04 336.417 40.8712C314.893 52.1974 293.861 59.4394 249.515 73.0379C224.992 82.4704 204.239 120.557 191.824 122.019C179.41 123.481 117.714 154.374 58.1859 185.621C27.2718 214.245 13.5795 233.251 -6.80762 270.424V-2.99243M412.364 -2.99243C248.667 -2.99243 156.889 -2.99243 -6.80762 -2.99243M412.364 -2.99243H-6.80762" stroke="#918889" stroke-width="3.01562"/>
</g>
<path d="M1271.32 1085.72L1440.69 1100.73C1440.69 1100.73 1429.64 997.917 1422.01 975.655C1414.38 953.392 1373.44 918.23 1352.27 910.617C1331.1 903.005 1307.44 860.588 1292.49 835.574C1277.55 810.56 1271.32 938.133 1253.88 955.643C1236.45 973.153 1222.75 955.643 1209.05 975.655C1195.35 995.666 1194.11 1013.18 1185.39 1013.18C1176.67 1013.18 1163.65 1020.25 1159.23 1033.19L1195.35 1055.7L1228.98 1085.72H1271.32Z" fill="#6B6465"/>
<path d="M1152.28 896.16C1096.55 895.061 1066.44 859.4 1008.9 913.884C980.02 907.412 963.993 900.494 933.536 925.344C907.428 906.763 877.808 900.576 871.113 920.128C839.155 919.503 825.789 922.625 819.553 941.621C807.075 921.344 794.505 919.692 765.308 928.551C739.061 923.293 727.006 922.224 733.035 939.752C715.483 930.884 705.736 929.799 689.13 959.923L688.995 959.69C675.834 936.872 668.414 924.007 633.559 937.603C593.775 905.077 583.502 912.681 569.385 925.21C549.702 920.683 539.064 918.084 529.437 921.053C520.049 923.948 513.453 920.663 507.274 931.007C478.708 891.748 456.269 885.397 413.911 892.997C384.471 880.925 366.815 878.251 340.139 893.486C327.202 869.964 314.105 866.498 284.581 870.571C260.515 851.516 251.544 835.218 203.512 845.915C176.87 831.735 166.138 831.879 153.584 844.836C157.52 818.07 151.485 808.04 117.474 804.196C95.0417 802.199 83.9937 803.539 68.8518 813.259L29.8133 802.302L0.247476 811.777L-6.10586 1105.83C1.02507 1131.99 6.5476 1144.27 40.2984 1128.84C65.8432 1133.34 70.6868 1127.54 77.5704 1115.67C71.3879 1147.79 87.4566 1141.01 110.299 1136.3C143.792 1134.42 159.288 1130.77 168.454 1109.6C204.392 1120.97 224.536 1128.36 260.712 1092.85C319.771 1089.22 335.543 1079.19 351.883 1055.85C399.454 1071.19 414.042 1062.3 432.771 1035.89C466.322 1042.65 483.153 1038.67 511.904 1026.59C524.975 1037.08 537.224 1038.04 565.134 1033.69C574.296 1062.15 589.146 1067.84 630.874 1061.88C643.536 1085.21 654.661 1082.54 675.203 1075.04C673.843 1085.89 674.081 1091.64 700.354 1093.43C714.718 1104.94 722.865 1102.84 737.581 1082.33C753.907 1100.93 769.971 1099.38 802.626 1089.69C831.646 1105.74 842.319 1095.34 863.737 1085.06C881.61 1081.13 891.28 1078.72 879.586 1057.44C896.087 1065.87 905.624 1068.08 924.179 1058.4C942.261 1046.02 947.546 1039.87 945.345 1031.79C947.464 1039.57 952.296 1037.91 969.266 1036.47C989.864 1058.28 998.691 1049.66 1016.29 1048.5C1042.62 1057.08 1048.94 1051.17 1058.45 1038.4C1064.74 1069.99 1080.98 1075.91 1117.43 1079.53C1134.43 1088.52 1143.69 1086.2 1159.89 1073.31C1165.37 1093.37 1173.66 1097.46 1197.61 1092.27C1225.88 1099.56 1239.12 1100.34 1247.4 1082.34C1256.31 1097.95 1263.89 1098.55 1279.17 1094.03C1293.9 1101.07 1302.15 1104.76 1316.27 1088.89C1361.61 1091.03 1364.62 1079.6 1364.27 1056.01C1399.76 1045.58 1404.74 1035.33 1395.73 1011.78C1429.12 994.676 1425.31 987.194 1412.93 974.372C1405.26 953.19 1416.2 939.708 1377.08 921.839C1374.31 906.273 1380.67 893.808 1331.79 900.039C1334.52 878.03 1332.4 868.27 1301.94 869.648C1270.86 857.415 1253.83 844.702 1220.38 867.886C1179.7 860.772 1165.51 867.881 1152.28 896.16Z" fill="#005158"/>
<g filter="url(#filter1_d_20_1832)">
<path d="M811.056 -2.99219C832.421 42.6742 852.044 59.6938 892.132 84.3409C935.229 98.7696 958.076 114.483 999.283 139.867C1028.26 192.801 1037.74 206.234 1041.95 199.707L1062.34 181.378C1083.63 169.16 1095.57 174.343 1116.87 181.378C1135.87 239.439 1153.63 275.483 1179.45 284.884C1193.95 269.541 1199.49 265.301 1204.1 266.554C1233.9 314.362 1291.64 342.452 1304.28 391.793C1326.41 524.808 1336.29 599.39 1318.5 732.5C1284.11 824.312 1213.98 864.052 1157.17 910.77C1142.58 910.666 1131.09 859.557 1116.87 850.931C1102.64 842.306 1089.37 910.77 1074.19 897.293C1059.02 883.816 1051.91 867.104 1051.91 867.104C1051.91 867.104 1027.73 785.162 1013.51 781.927C999.283 778.693 1009.24 798.639 999.283 816.429C999.283 816.429 939.076 905.315 892.132 933.951L845.667 957.132C829.903 967.094 814.849 1008.12 774.549 1012.12C734.248 1016.12 734.477 1014.84 713.861 1023.98C682.851 1040.8 662.475 1048.92 624.726 1062.79C582.106 1063.94 545.073 1012.12 521.367 1012.12C497.661 1012.12 486.747 1022.16 454.989 1023.98C390.691 997.459 361.178 944.189 317.019 945.272C272.86 946.356 163.045 957.285 161.032 957.132C159.019 956.98 125.948 940.571 61.9403 867.104C-2.06697 793.637 -6.80762 730.713 -6.80762 752.277V1147.97H1440.69V-2.99219H811.056Z" fill="url(#paint0_linear_20_1832)"/>
</g>
<path d="M1009.4 824.392C1020.2 803.992 1016.23 788.892 1012.9 783.892C1004.9 777.392 1005.73 789.154 1003.4 799.392C997 827.5 987.042 830.559 973.499 851C946.999 891 896 932 905 928.5C914 925 995.901 849.892 1009.4 824.392Z" fill="url(#paint1_linear_20_1832)"/>
<path d="M1307.45 414.5C1302.17 378.002 1281 354 1246 314.5C1250 317 1288.95 321.4 1312.95 353C1342.95 392.5 1368.95 508.5 1359.95 660C1350.95 811.5 1214.56 863.031 1226.5 855.5C1235.91 849.566 1292.46 794.699 1312.95 743.5C1333.45 692.301 1323.95 560.5 1323.95 546.5C1323.95 532.5 1312.95 452.5 1307.45 414.5Z" fill="url(#paint2_linear_20_1832)"/>
<path d="M426.464 1089.4C413.496 1094.09 323.215 1074.66 323.215 1074.66L0 1084.71V1145H1441V1048.54H1131.75C1104.82 1048.54 1025.67 1051.89 989.254 1043.85C952.842 1035.81 848.439 1041.84 825.994 1048.54C803.548 1055.24 735.214 1048.54 722.745 1048.54C710.275 1048.54 701.297 1067.29 686.832 1069.3C672.367 1071.31 596.551 1082.03 578.096 1084.71C559.641 1087.39 474.847 1074.66 463.374 1074.66C451.902 1074.66 439.433 1084.71 426.464 1089.4Z" fill="url(#paint3_linear_20_1832)"/>
<g filter="url(#filter2_d_20_1832)">
<path d="M173.588 214.026C158.793 265.664 214.261 276.727 214.261 276.727C214.261 276.727 229.305 280.673 223.831 271.502C218.356 262.33 223.05 213.914 173.588 214.026Z" fill="#47BE6C"/>
<path d="M173.588 214.026C158.793 265.664 214.261 276.727 214.261 276.727C214.261 276.727 229.305 280.673 223.831 271.502C218.356 262.33 223.05 213.914 173.588 214.026Z" stroke="#6CB236" stroke-width="2.01042"/>
</g>
<g filter="url(#filter3_d_20_1832)">
<path d="M206.559 120.653C191.763 172.291 247.231 183.354 247.231 183.354C247.231 183.354 262.276 187.3 256.801 178.129C251.327 168.958 256.02 120.541 206.559 120.653Z" fill="#47BE6C"/>
<path d="M206.559 120.653C191.763 172.291 247.231 183.354 247.231 183.354C247.231 183.354 262.276 187.3 256.801 178.129C251.327 168.958 256.02 120.541 206.559 120.653Z" stroke="#6CB236" stroke-width="2.01042"/>
</g>
<g filter="url(#filter4_d_20_1832)">
<path d="M70.1831 324.257C55.3873 375.895 110.855 386.958 110.855 386.958C110.855 386.958 125.9 390.904 120.425 381.733C114.951 372.562 119.644 324.145 70.1831 324.257Z" fill="#47BE6C"/>
<path d="M70.1831 324.257C55.3873 375.895 110.855 386.958 110.855 386.958C110.855 386.958 125.9 390.904 120.425 381.733C114.951 372.562 119.644 324.145 70.1831 324.257Z" stroke="#6CB236" stroke-width="2.01042"/>
</g>
<g filter="url(#filter5_d_20_1832)">
<path d="M222.173 41.5456C239.023 93.184 175.851 104.246 175.851 104.246C175.851 104.246 158.717 108.193 164.952 99.0214C171.187 89.8502 165.842 41.434 222.173 41.5456Z" fill="#47BE6C"/>
<path d="M222.173 41.5456C239.023 93.184 175.851 104.246 175.851 104.246C175.851 104.246 158.717 108.193 164.952 99.0214C171.187 89.8502 165.842 41.434 222.173 41.5456Z" stroke="#6CB236" stroke-width="2.01042"/>
</g>
<g filter="url(#filter6_d_20_1832)">
<path d="M180.211 167.339C197.061 218.978 133.889 230.04 133.889 230.04C133.889 230.04 116.756 233.986 122.99 224.815C129.225 215.644 123.88 167.228 180.211 167.339Z" fill="#47BE6C"/>
<path d="M180.211 167.339C197.061 218.978 133.889 230.04 133.889 230.04C133.889 230.04 116.756 233.986 122.99 224.815C129.225 215.644 123.88 167.228 180.211 167.339Z" stroke="#6CB236" stroke-width="2.01042"/>
</g>
<path d="M-1 228.935C32.6193 385.395 165.387 381.89 237.426 -22" stroke="#6CB236" stroke-width="10.0521" stroke-linecap="round"/>
<g filter="url(#filter7_d_20_1832)">
<path d="M1252.26 -17.7919C1259.79 12.8423 1231.56 19.405 1231.56 19.405C1231.56 19.405 1223.9 21.7461 1226.69 16.3053C1229.47 10.8645 1227.09 -17.8581 1252.26 -17.7919Z" fill="#27844C"/>
</g>
<g filter="url(#filter8_d_20_1832)">
<path d="M1358.68 74.267C1366.21 104.901 1337.98 111.464 1337.98 111.464C1337.98 111.464 1330.32 113.805 1333.11 108.364C1335.89 102.923 1333.5 74.2007 1358.68 74.267Z" fill="#27844C"/>
</g>
<g filter="url(#filter9_d_20_1832)">
<path d="M1295.75 28.4274C1305.62 58.6322 1278.92 69.5372 1278.92 69.5372C1278.92 69.5372 1271.72 73.0686 1273.95 67.0914C1276.18 61.1142 1271.44 32.1 1295.75 28.4274Z" fill="#27844C"/>
</g>
<g filter="url(#filter10_d_20_1832)">
<path d="M1413 105.385C1404.43 136.02 1436.58 142.582 1436.58 142.582C1436.58 142.582 1445.3 144.923 1442.12 139.483C1438.95 134.042 1441.67 105.319 1413 105.385Z" fill="#27844C"/>
</g>
<g filter="url(#filter11_d_20_1832)">
<path d="M1374.18 82.1886C1391.66 108.696 1417.52 88.3475 1417.52 88.3475C1417.52 88.3475 1424.96 83.1938 1418.8 82.0822C1412.64 80.9707 1392.79 60.1918 1374.18 82.1886Z" fill="#27844C"/>
</g>
<g filter="url(#filter12_d_20_1832)">
<path d="M1282 12.4548C1292.43 42.4978 1322.48 29.2358 1322.48 29.2358C1322.48 29.2358 1330.95 26.0979 1325.25 23.4839C1319.56 20.8699 1305.42 -4.21502 1282 12.4548Z" fill="#27844C"/>
</g>
<path d="M1482.39 86.5845C1465.28 179.403 1183.69 5.60532 1147.03 -234" stroke="#27844C" stroke-width="10.0521" stroke-linecap="round"/>
<g filter="url(#filter13_d_20_1832)">
<path d="M1349.77 128.264C1363.23 178.423 1312.78 189.169 1312.78 189.169C1312.78 189.169 1299.1 193.002 1304.08 184.093C1309.06 175.185 1304.79 128.156 1349.77 128.264Z" fill="#47BE6C"/>
<path d="M1349.77 128.264C1363.23 178.423 1312.78 189.169 1312.78 189.169C1312.78 189.169 1299.1 193.002 1304.08 184.093C1309.06 175.185 1304.79 128.156 1349.77 128.264Z" stroke="#47BE6C" stroke-width="2.01042"/>
</g>
<g filter="url(#filter14_d_20_1832)">
<path d="M1319.79 37.5663C1333.24 87.7254 1282.79 98.471 1282.79 98.471C1282.79 98.471 1269.11 102.304 1274.09 93.3956C1279.07 84.4872 1274.8 37.4579 1319.79 37.5663Z" fill="#47BE6C"/>
<path d="M1319.79 37.5663C1333.24 87.7254 1282.79 98.471 1282.79 98.471C1282.79 98.471 1269.11 102.304 1274.09 93.3956C1279.07 84.4872 1274.8 37.4579 1319.79 37.5663Z" stroke="#47BE6C" stroke-width="2.01042"/>
</g>
<g filter="url(#filter15_d_20_1832)">
<path d="M1443.82 235.338C1457.27 285.497 1406.83 296.243 1406.83 296.243C1406.83 296.243 1393.14 300.076 1398.12 291.167C1403.1 282.259 1398.83 235.229 1443.82 235.338Z" fill="#47BE6C"/>
<path d="M1443.82 235.338C1457.27 285.497 1406.83 296.243 1406.83 296.243C1406.83 296.243 1393.14 300.076 1398.12 291.167C1403.1 282.259 1398.83 235.229 1443.82 235.338Z" stroke="#47BE6C" stroke-width="2.01042"/>
</g>
<g filter="url(#filter16_d_20_1832)">
<path d="M1305.58 -39.275C1290.26 10.8841 1347.71 21.6297 1347.71 21.6297C1347.71 21.6297 1363.3 25.4628 1357.63 16.5543C1351.96 7.64585 1356.82 -39.3834 1305.58 -39.275Z" fill="#47BE6C"/>
<path d="M1305.58 -39.275C1290.26 10.8841 1347.71 21.6297 1347.71 21.6297C1347.71 21.6297 1363.3 25.4628 1357.63 16.5543C1351.96 7.64585 1356.82 -39.3834 1305.58 -39.275Z" stroke="#47BE6C" stroke-width="2.01042"/>
</g>
<path d="M1508.56 142.747C1477.98 294.724 1357.23 291.32 1291.71 -101" stroke="#6CB236" stroke-width="10.0521" stroke-linecap="round"/>
<g filter="url(#filter17_d_20_1832)">
<path d="M1343.75 82.915C1328.42 133.074 1385.88 143.82 1385.88 143.82C1385.88 143.82 1401.46 147.653 1395.79 138.744C1390.12 129.836 1394.98 82.8065 1343.75 82.915Z" fill="#47BE6C"/>
<path d="M1343.75 82.915C1328.42 133.074 1385.88 143.82 1385.88 143.82C1385.88 143.82 1401.46 147.653 1395.79 138.744C1390.12 129.836 1394.98 82.8065 1343.75 82.915Z" stroke="#47BE6C" stroke-width="2.01042"/>
</g>
<g filter="url(#filter18_d_20_1832)">
<path d="M1386.61 195.882C1417.84 239.283 1464.06 205.966 1464.06 205.966C1464.06 205.966 1477.35 197.528 1466.35 195.708C1455.34 193.887 1419.87 159.865 1386.61 195.882Z" fill="#47BE6C"/>
<path d="M1386.61 195.882C1417.84 239.283 1464.06 205.966 1464.06 205.966C1464.06 205.966 1477.35 197.528 1466.35 195.708C1455.34 193.887 1419.87 159.865 1386.61 195.882Z" stroke="#47BE6C" stroke-width="2.01042"/>
</g>
<path d="M1120.99 -175.589C1048.56 -177.009 1009.48 -226.332 934.603 -150.783C897.076 -159.692 876.256 -169.242 836.623 -134.776C802.723 -160.458 764.235 -168.971 755.498 -141.884C713.96 -142.691 696.582 -138.344 688.441 -112.028C672.26 -140.082 655.925 -142.348 617.959 -130.027C583.854 -137.259 568.187 -138.718 575.991 -114.458C553.193 -126.706 540.527 -128.189 518.887 -86.4469L518.713 -86.7691C501.648 -118.34 492.027 -136.141 446.699 -117.252C395.048 -162.217 381.682 -151.668 363.31 -134.294C337.735 -140.526 323.912 -144.105 311.394 -139.977C299.187 -135.951 290.619 -140.487 282.569 -126.153C245.513 -180.461 216.358 -189.215 161.288 -178.613C123.045 -195.276 100.101 -198.946 65.3999 -177.801C48.6283 -210.347 31.6115 -215.123 -6.77068 -209.429C-38.0159 -235.77 -49.6465 -258.321 -112.096 -243.421C-146.698 -263.007 -160.648 -262.788 -176.99 -244.823C-171.825 -281.893 -179.65 -295.77 -223.849 -301.03C-253.003 -303.754 -267.365 -301.879 -287.064 -288.392L-337.785 -303.492L-376.231 -290.318L-385.029 116.86C-375.808 153.071 -368.653 170.07 -324.756 148.643C-291.562 154.827 -285.256 146.792 -276.287 130.331C-284.382 174.826 -263.483 165.409 -233.785 158.847C-190.248 156.18 -170.1 151.089 -158.148 121.762C-111.457 137.445 -85.2887 147.639 -38.2021 98.4043C38.5674 93.2639 59.0858 79.343 80.3668 47.0073C142.17 68.1517 161.148 55.8147 185.54 19.211C229.136 28.5169 251.019 22.973 288.412 6.19344C305.382 20.6863 321.301 21.9967 357.586 15.926C369.441 55.3179 388.733 63.1669 442.981 54.842C459.395 87.1256 473.861 83.4028 500.574 72.9743C498.787 88.0001 499.085 95.9695 533.231 98.3939C551.88 114.304 562.473 111.391 581.638 82.9638C602.824 108.683 623.707 106.511 666.169 93.0282C703.859 115.196 717.75 100.789 745.607 86.5065C768.846 81.0333 781.419 77.6786 766.258 48.2342C787.69 59.8705 800.082 62.9155 824.217 49.4865C847.743 32.3035 854.623 23.7815 851.776 12.5987C854.517 23.3673 860.8 21.0541 882.86 19.0373C909.592 49.1921 921.082 37.2465 943.958 35.5977C978.16 47.432 986.392 39.247 998.778 21.5418C1006.89 65.277 1027.99 73.4414 1075.36 78.391C1097.44 90.7959 1109.48 87.5665 1130.56 69.6981C1137.65 97.4627 1148.42 103.116 1179.55 95.8826C1216.28 105.916 1233.49 106.973 1244.28 82.0408C1255.84 103.642 1265.68 104.459 1285.56 98.173C1304.7 107.892 1315.41 112.987 1333.79 90.9771C1392.72 93.8563 1396.65 78.0322 1396.23 45.3697C1442.39 30.8514 1448.88 16.6537 1437.21 -15.9418C1480.64 -39.6834 1475.7 -50.0362 1459.64 -67.7684C1449.7 -97.0849 1463.96 -115.772 1413.13 -140.444C1409.57 -161.992 1417.86 -179.265 1354.31 -170.548C1357.9 -201.028 1355.16 -214.539 1315.57 -212.575C1275.19 -229.456 1253.08 -247.029 1209.56 -214.865C1156.7 -224.641 1138.24 -214.771 1120.99 -175.589Z" fill="#002F4D"/>
<g style="mix-blend-mode:multiply" opacity="0.5">
<path d="M839.588 1096.57C831.731 1101.94 802.59 1103.82 776.292 1092.76C758.041 1085.08 680.818 1072.73 710.441 1063.7C785.941 1040.7 859.711 1082.82 839.588 1096.57Z" fill="url(#paint4_linear_20_1832)"/>
</g>
<g style="mix-blend-mode:multiply" opacity="0.5">
<path d="M952.392 1083.03C941.185 1094.91 882.443 1082.02 854.473 1074.09C825.107 1067.4 810.607 1061.9 823.437 1056.51C848.763 1045.89 966.401 1068.18 952.392 1083.03Z" fill="url(#paint5_linear_20_1832)"/>
</g>
<g style="mix-blend-mode:multiply" opacity="0.5">
<path d="M704.499 1106C696.632 1110.95 657.275 1112.07 645.999 1109C621.5 1102.32 588.793 1092.37 613.963 1084.32C678.11 1063.81 724.652 1093.32 704.499 1106Z" fill="url(#paint6_linear_20_1832)"/>
</g>
<path d="M671.63 1072.28C667.376 1083.83 662.384 1093.68 653.037 1090.74C643.69 1087.8 649.184 1076.94 653.439 1065.39C657.693 1053.84 653.77 1046.13 670.441 1051.38C679.788 1054.32 675.885 1060.73 671.63 1072.28Z" fill="url(#paint7_linear_20_1832)"/>
<path d="M601.054 1062.98C599.439 1075.13 599.28 1086.08 609.011 1087.47C618.742 1088.86 618.926 1076.79 620.541 1064.64C622.157 1052.49 629.275 1047.3 611.918 1044.82C602.187 1043.42 602.67 1050.83 601.054 1062.98Z" fill="url(#paint8_linear_20_1832)"/>
<g filter="url(#filter19_d_20_1832)">
<path d="M612.806 1009.02C611.361 1012.6 609.774 1015.03 607.431 1018.19C605.185 1020.7 601.854 1021.34 598.398 1021.43C594.177 1021.54 591.11 1019.57 590.25 1015.92C589.657 1013.4 590.666 1009.71 591.945 1007.41C593.721 1004.2 594.77 999.904 597.938 997.515C599.39 996.419 600.721 995.044 602.711 994.803C604.674 994.565 606.206 994.614 608.17 994.817C611.857 995.2 613.732 997.332 614.188 1000.83C614.617 1004.12 614.027 1006 612.806 1009.02Z" fill="url(#paint9_linear_20_1832)"/>
<path d="M672.562 1010.71C671.039 1012.93 669.033 1013.95 667.984 1016.6C668.741 1024.08 679.017 1023.17 683.668 1021.31C685.514 1020.57 686.844 1018.66 688.397 1017.39C690.168 1015.95 691.665 1014.42 693.264 1012.79C695.283 1010.72 697.398 1006.95 696.953 1003.8C696.519 1000.72 696.629 995.713 692.916 994.767C689.288 993.844 685.562 995.14 682.761 997.765C679.954 1000.4 678.198 1003.48 675.769 1006.41C674.617 1007.8 673.592 1009.22 672.562 1010.71Z" fill="url(#paint10_linear_20_1832)"/>
<path d="M618.509 951.807C630.856 944.905 639.713 943.361 653.467 951.902C663.344 955.451 668.837 969.298 670.269 973.469C671.481 976.999 673.194 980.314 674.222 983.951C675.646 988.99 677.112 993.925 678.189 999.091C680.239 1008.92 682.147 1018.8 682.299 1029C682.411 1036.49 681.903 1043.99 681.02 1051.46C680.518 1055.7 679.374 1060.29 676.367 1063.14C673.244 1066.1 670.44 1068.43 666.803 1070.46C660.085 1074.22 652.895 1076.65 645.51 1077.55C638.65 1078.38 631.607 1079.08 624.768 1078.48C621.684 1078.21 618.646 1077.64 615.627 1077.03C612.953 1076.48 610.786 1075.02 608.259 1074.15C604.439 1072.82 601.616 1069.37 599.169 1066.01C596.55 1062.42 594.385 1058.91 593.269 1054.3C591.808 1048.26 590.869 1042.24 591.474 1035.86C591.809 1032.34 591.865 1028.75 592.202 1025.19C592.553 1021.5 593.179 1017.89 593.53 1014.19C594.308 1005.99 595.362 997.279 597.724 989.403C598.634 986.369 599.078 982.786 600.462 979.969C601.076 978.721 601.611 976.949 602.012 975.59C602.581 973.663 603.613 971.876 604.367 970.028C606.002 966.019 608.467 962.317 610.962 958.959C612.905 956.345 615.77 953.338 618.509 951.807Z" fill="url(#paint11_linear_20_1832)"/>
<path d="M661.667 962.357C666.479 963.373 668.452 959.647 670.369 955.748C671.583 951.974 668.79 949.248 665.661 948.344C661.962 947.276 657.811 950.066 657.091 954.021C656.836 955.422 656.367 957.298 657.276 958.518C658.268 959.849 660 962.005 661.667 962.357Z" fill="#AE8873"/>
<path d="M609.963 948.156C613.79 948.597 618.677 953.176 618.771 957.274C618.771 961.287 616.066 964.557 611.868 963.499C609.739 962.962 607.723 961.861 606.155 960.235C604.95 958.986 603.231 957.307 603.073 955.423C602.717 951.18 605.945 947.693 609.963 948.156Z" fill="#AE8873"/>
<path d="M622.961 1009.39C626.209 1009.08 629.124 1012.91 631.333 1014.98C632.729 1017.3 633.856 1020.6 634.176 1023.31C634.374 1024.98 634.176 1026.68 634.368 1028.35C634.545 1029.88 634.735 1031.31 634.595 1032.84C634.425 1034.68 634.726 1036.54 634.623 1038.38C634.512 1040.37 634.454 1042.47 634.603 1044.47C634.891 1048.37 634.545 1052.14 634.489 1056.01C634.433 1059.82 634.048 1063.6 633.822 1067.38C633.617 1070.8 633.777 1074.99 631.719 1077.61C629.843 1080 625.452 1078.33 623.304 1077.03C619.757 1074.89 616.883 1071.69 613.952 1068.62C604.622 1058.87 596.51 1045.21 598.053 1030.87C598.458 1027.12 599.379 1023.21 601.931 1020.68C604.612 1018.02 607.071 1015.08 610.098 1012.88C612.566 1011.09 615.623 1010.08 618.617 1009.8L622.961 1009.39Z" fill="#543A3A"/>
</g>
<path d="M669.215 962.403C669.181 960.01 662.888 945.992 661.241 943.814C658.233 942.181 652.549 939.611 636.797 939.466C621.045 939.321 615.798 943.972 612.838 945.724C611.255 947.967 604.912 961.297 604.946 963.69C604.946 963.69 621.679 959.81 636.837 959.949C651.995 960.089 669.215 962.403 669.215 962.403Z" fill="#8F9D2F"/>
<g filter="url(#filter20_d_20_1832)">
<path d="M678.816 976.861C678.785 974.732 670.694 962.314 668.569 960.39C664.672 958.962 657.305 956.722 636.85 956.722C616.395 956.722 609.554 960.902 605.7 962.485C603.631 964.494 595.316 976.403 595.346 978.532C595.346 978.532 617.166 970.721 636.85 970.721C656.534 970.721 678.816 976.861 678.816 976.861Z" fill="url(#paint12_linear_20_1832)"/>
</g>
<path d="M837.783 938.382C799.325 936.999 785.643 895.645 822.494 904.712L837.783 938.382Z" fill="#E1C7B3"/>
<path d="M806.555 947.567C827.703 960.19 841.138 962.872 866.46 963.863C866.82 961.653 865.133 957.351 863.315 955.848C847.192 942.516 834.081 940.389 816.094 931.845L806.555 947.567Z" fill="#C49E80"/>
<path d="M794.688 938.358C794.21 939.661 802.676 947.514 807.153 947.519C814.045 942.187 815.061 938.5 816.193 931.756C816.193 931.756 802.692 927.836 801.336 929.113C799.98 930.39 800.738 932.375 801.83 934.619C798.662 935.475 795.167 937.054 794.688 938.358Z" fill="url(#paint13_linear_20_1832)"/>
<path d="M792.411 993.653C797.575 969.572 804.763 957.91 821.287 938.695C823.15 939.937 825.151 944.103 825.013 946.458C823.791 967.343 816.416 978.391 810.419 997.379L792.411 993.653Z" fill="url(#paint14_linear_20_1832)"/>
<path d="M791.069 1008.61C789.789 1008.08 789.807 996.53 792.853 993.249C801.451 991.835 804.843 993.603 810.552 997.368C810.552 997.368 804.225 1009.92 802.366 1010.05C800.507 1010.17 799.57 1008.26 798.671 1005.93C795.887 1007.67 792.35 1009.15 791.069 1008.61Z" fill="#776969"/>
<path d="M873.319 999.741H850.652C851.159 1017.3 851.139 1027.89 850.652 1047.97H870.524C874.705 1023.72 879.355 1006.08 873.319 999.741Z" fill="#C49E80"/>
<path d="M865.171 1062.71C866.764 1062.94 872.447 1050.21 870.62 1045.11C862.438 1041.6 857.945 1041.04 850.187 1043.45C850.187 1043.45 851.508 1059.81 853.432 1061.04C855.357 1062.28 857.175 1060.92 859.134 1059.13C860.855 1061.64 863.578 1062.49 865.171 1062.71Z" fill="#776969"/>
<path d="M817.214 999.741H839.88C839.373 1017.3 839.394 1027.89 839.88 1047.97H820.008C815.827 1023.72 811.177 1006.08 817.214 999.741Z" fill="#C49E80"/>
<path d="M825.361 1062.71C823.768 1062.94 818.085 1050.21 819.912 1045.11C828.094 1041.6 832.587 1041.04 840.346 1043.45C840.346 1043.45 839.024 1059.81 837.1 1061.04C835.175 1062.28 833.357 1060.92 831.398 1059.13C829.678 1061.64 826.955 1062.49 825.361 1062.71Z" fill="#776969"/>
<path d="M824.016 932.674H872.32C872.32 932.674 889.471 975.253 886.671 999.158C883.87 1023.06 848.168 1019.61 848.168 1019.61C848.168 1019.61 812.465 1023.06 809.665 999.158C806.864 975.253 824.016 932.674 824.016 932.674Z" fill="#C49E80"/>
<g filter="url(#filter21_d_20_1832)">
<path d="M861.054 934.779L833.007 929.569C818.71 950.189 815.834 977.73 806.713 991.343C794.352 1009.79 853.014 1032.01 861.054 1017.32C869.095 1002.63 868.293 968.875 861.054 934.779Z" fill="url(#paint15_linear_20_1832)"/>
<path d="M844.88 934.779L867.813 929.569C879.503 950.189 881.855 977.73 889.313 991.343C899.42 1009.79 851.455 1032.01 844.88 1017.32C838.306 1002.63 838.961 968.875 844.88 934.779Z" fill="url(#paint16_linear_20_1832)"/>
</g>
<ellipse cx="848.478" cy="900.693" rx="45.3326" ry="41.9171" fill="url(#paint17_linear_20_1832)"/>
<path d="M888.532 855.155C879.217 854.223 876.423 870.369 876.423 870.369L885.738 883.72C885.738 883.72 905.299 882.478 907.473 870.369C909.646 858.26 907.473 852.36 904.057 851.429C900.642 850.497 897.847 856.086 888.532 855.155Z" fill="url(#paint18_linear_20_1832)"/>
<path d="M806.812 855.155C816.126 854.223 818.921 870.369 818.921 870.369L809.606 883.72C809.606 883.72 790.045 882.478 787.871 870.369C785.698 858.26 787.871 852.36 791.287 851.429C794.702 850.497 797.497 856.086 806.812 855.155Z" fill="url(#paint19_linear_20_1832)"/>
<path d="M877 870.5C876.965 870.484 876.934 870.461 876.906 870.433L870 865.5C870 865.5 865.373 857.013 864.987 852.156C864.601 847.3 864.344 839.945 868.196 840.586C872.047 841.228 871.697 856.619 875.356 854.832C879.014 853.046 877.381 831.663 878.812 827.398C880.242 823.134 889.272 828.67 887.84 836.296C886.431 843.8 875.199 868.679 876.906 870.433L877 870.5Z" fill="#776969"/>
<path d="M802.733 839.313C805.906 846.842 821.669 875.98 819.669 877.5L829.693 872.88C829.693 872.88 830.384 855.588 829.693 850.502C829.001 845.416 827.619 837.787 823.817 839.313C820.015 840.839 823.817 856.605 819.669 855.588C815.522 854.571 812.411 832.193 809.991 828.124C807.572 824.055 799.56 831.784 802.733 839.313Z" fill="#776969"/>
<mask id="mask0_20_1832" style="mask-type:alpha" maskUnits="userSpaceOnUse" x="1100" y="984" width="163" height="105">
<path d="M1118.35 1088.89C1124.84 1088.89 1146.37 1088.26 1166.4 1088.89H1222.74C1222.74 1088.89 1236.7 1068.62 1245.15 1065.52C1253.59 1062.41 1259.33 1051.16 1262.84 1033.86C1262.84 1033.86 1254.56 1035.93 1248.72 1037.79C1242.87 1039.65 1231.83 1044.83 1231.83 1044.83C1231.83 1044.83 1244.34 1038 1247.91 1028.69C1251.48 1019.38 1256.84 999.103 1256.84 999.103C1256.84 999.103 1246.28 1007.79 1231.83 1011.31C1217.38 1014.83 1209.92 1028.69 1209.92 1028.69C1209.92 1028.69 1210.73 1014.21 1208.29 1005.52C1205.86 996.827 1200.17 984 1200.17 984C1200.17 984 1185.4 1005.31 1185.4 1020C1185.4 1034.69 1190.6 1050.41 1190.6 1050.41C1190.6 1050.41 1180.85 1033.24 1175.5 1026.62C1170.14 1020 1161.21 1018.34 1153.42 1020C1145.62 1021.65 1136.04 1018.34 1136.04 1018.34C1136.04 1018.34 1140.91 1029.52 1144.49 1034.69C1148.06 1039.86 1159.75 1048.96 1163.16 1053.31C1166.57 1057.65 1177.44 1079.38 1177.44 1079.38C1177.44 1079.38 1163.16 1060.34 1154.39 1058.69C1145.62 1057.03 1130.2 1061.17 1119.16 1070.07C1108.12 1078.96 1100 1084.55 1100 1084.55C1100 1084.55 1111.85 1088.89 1118.35 1088.89Z" fill="#D9D9D9"/>
</mask>
<g mask="url(#mask0_20_1832)">
<path d="M1118.35 1088.89C1124.84 1088.89 1146.37 1088.26 1166.4 1088.89H1222.74C1222.74 1088.89 1236.7 1068.62 1245.15 1065.52C1253.59 1062.41 1259.33 1051.16 1262.84 1033.86C1262.84 1033.86 1254.56 1035.93 1248.72 1037.79C1242.87 1039.65 1231.83 1044.83 1231.83 1044.83C1231.83 1044.83 1244.34 1038 1247.91 1028.69C1251.48 1019.38 1256.84 999.103 1256.84 999.103C1256.84 999.103 1246.28 1007.79 1231.83 1011.31C1217.38 1014.83 1209.92 1028.69 1209.92 1028.69C1209.92 1028.69 1210.73 1014.21 1208.29 1005.52C1205.86 996.827 1200.17 984 1200.17 984C1200.17 984 1185.4 1005.31 1185.4 1020C1185.4 1034.69 1190.6 1050.41 1190.6 1050.41C1190.6 1050.41 1180.85 1033.24 1175.5 1026.62C1170.14 1020 1161.21 1018.34 1153.42 1020C1145.62 1021.65 1136.04 1018.34 1136.04 1018.34C1136.04 1018.34 1140.91 1029.52 1144.49 1034.69C1148.06 1039.86 1159.75 1048.96 1163.16 1053.31C1166.57 1057.65 1177.44 1079.38 1177.44 1079.38C1177.44 1079.38 1163.16 1060.34 1154.39 1058.69C1145.62 1057.03 1130.2 1061.17 1119.16 1070.07C1108.12 1078.96 1100 1084.55 1100 1084.55C1100 1084.55 1111.85 1088.89 1118.35 1088.89Z" fill="#6CB236"/>
<path d="M1230.37 1059.1C1235.97 1050.2 1241.46 1045.22 1251.48 1036.34C1292.17 1018.82 1262.43 1061.79 1251.48 1096.14H1100.65V1077.72C1116.63 1068.93 1127.22 1066.58 1148.38 1065.93C1138.63 1069.6 1135.29 1072.28 1131.5 1077.72C1163.48 1061.58 1172.41 1073.58 1191.89 1092.83C1186.61 1072.27 1183.26 1061.42 1170.95 1052.9C1177.6 1054.84 1181.42 1057.11 1188.48 1064.48C1182.15 1044.83 1175.85 1022.82 1156.66 1026.21C1163.69 1028.26 1164.56 1034.46 1166.73 1041.93C1160.07 1032.21 1149.34 1024.93 1136.37 1018.76C1156.26 1013.96 1166.92 1016.62 1185.4 1027.03C1190.63 1044.67 1194.02 1052.72 1201.15 1062.83C1196.77 1039.04 1194.61 1041.24 1195.95 1020.83C1197.84 1034.9 1199.4 1043.14 1203.91 1059.1C1208.35 1024.06 1207.51 1007.67 1200.34 984L1220.31 1013.17C1211.35 1031.31 1209.39 1043.31 1212.51 1068.62C1225.18 1037.17 1240.44 1038.82 1245.96 1020.83C1240.3 1025.35 1236.82 1026.37 1230.37 1027.03C1242.63 1019.78 1247.23 1011.29 1257.49 997.655C1249.99 1041.11 1243.69 1037.38 1231.83 1044.83C1225.47 1051.01 1217.16 1063.98 1206.99 1090.76H1215.92C1224.63 1074.48 1228.39 1064.51 1243.2 1052.9C1239.64 1052.62 1236.8 1054.05 1230.37 1059.1Z" fill="#2C8C4A"/>
</g>
<path d="M723.345 944.201C678.542 931.594 674.271 879.085 714.991 900.265L723.345 944.201Z" fill="#E1C7B3"/>
<path d="M785.163 943.317C752.2 952.11 764.89 956.951 729.295 944.144C682.901 927.45 691.442 890.231 707.181 866.356C726.354 837.273 755.454 826.163 784.262 845.154C813.071 864.146 804.336 914.234 785.163 943.317Z" fill="#C59E80"/>
<path d="M741.487 1043.96C743.683 1058.3 739.665 1070.81 727.742 1072.63C715.819 1074.46 707.273 1063.87 705.076 1049.54C702.879 1035.2 698.52 1023.97 719.787 1020.72C731.71 1018.89 739.29 1029.62 741.487 1043.96Z" fill="url(#paint20_linear_20_1832)"/>
<path d="M744.276 1039.95C741.914 1054.29 745.789 1066.86 757.691 1068.82C769.592 1070.78 778.26 1060.28 780.622 1045.94C782.983 1031.61 787.47 1020.41 766.242 1016.91C754.34 1014.95 746.637 1025.62 744.276 1039.95Z" fill="url(#paint21_linear_20_1832)"/>
<path d="M738.157 967.991C749.077 947.167 748.33 936.221 765.294 936.785C779.664 942.154 776.503 964.308 768.157 981.311C757.106 1008.96 733.502 1022.83 727.165 1019.51C717.333 1014.35 729.339 994.505 738.157 967.991Z" fill="url(#paint22_linear_20_1832)"/>
<path d="M751.971 973.332C750.178 996.777 743.738 1005.66 758.416 1014.18C773.445 1017.26 782.52 996.799 784.468 977.96C789.77 948.662 777.125 924.376 769.99 923.831C758.921 922.984 758.565 946.179 751.971 973.332Z" fill="url(#paint23_linear_20_1832)"/>
<path d="M779.357 860.407C799.632 837.521 766.953 813.723 755.083 838.62L779.357 860.407Z" fill="#C59E80"/>
<path d="M792.527 981.513C796.536 1020.71 778.33 1038.31 742.68 1038.31C710.816 1038.31 685.459 1031.11 692.833 981.513C698.963 940.288 715.15 924.719 742.68 924.719C770.209 924.719 787.808 935.386 792.527 981.513Z" fill="#C59E80"/>
<g filter="url(#filter22_d_20_1832)">
<ellipse rx="72.645" ry="25.9114" transform="matrix(-0.941201 -0.337847 -0.186698 0.982417 754.706 866.155)" fill="url(#paint24_linear_20_1832)"/>
</g>
<path d="M729.129 843.217C726.653 853.42 740.066 863.227 759.371 871.273C778.677 879.319 796.563 882.558 799.039 872.354C801.515 862.151 791.175 833.745 771.87 825.699C752.565 817.653 731.605 833.014 729.129 843.217Z" fill="url(#paint25_linear_20_1832)"/>
<path d="M722.144 853.84C732.028 830.766 765.062 844.208 753.706 872.233C753.074 873.794 751.139 874.273 749.607 873.34L723.482 857.435C722.21 856.66 721.594 855.126 722.144 853.84Z" fill="#A78B75"/>
<path fill-rule="evenodd" clip-rule="evenodd" d="M741.677 868.512C745.059 846.44 730.572 842.091 724.158 857.846L741.677 868.512Z" fill="#E1C7B3"/>
<g filter="url(#filter23_d_20_1832)">
<path d="M688.708 939.618C713.485 933.572 726.569 939.275 748.505 948.954C754.969 938.411 761.884 939.974 767.513 943.534C765.953 952.156 765.148 953.128 757.847 955.205C765.586 958.186 764.444 962.687 762.131 970.584C757.891 967.54 752.883 963.74 749.31 956.337C721.937 974.048 703.564 985.617 678.175 984.896C672.299 974.962 673.852 969.943 683.165 961.716C684.328 954.901 685.595 953.199 689.197 954.878C685.723 947.849 685.593 944.501 688.708 939.618Z" fill="#FFD80B"/>
<path fill-rule="evenodd" clip-rule="evenodd" d="M687.956 952.18C700.551 958.377 707.846 958.02 718.023 957.523L718.023 957.523L718.023 957.523C720.799 957.387 723.789 957.241 727.16 957.214C722.476 957.815 718.783 958.757 715.446 959.609C708.16 961.469 702.573 962.895 692.076 959.377L688.974 954.777C689.047 954.809 689.121 954.842 689.197 954.877C688.72 953.914 688.307 953.019 687.956 952.18ZM683.173 961.667C692.386 966.287 699.701 966.964 710.874 965.872C703.985 967.374 702.595 967.54 693.612 967.054C686.03 966.643 683.594 962.978 683.018 961.845C683.067 961.802 683.116 961.759 683.165 961.716C683.168 961.699 683.17 961.683 683.173 961.667Z" fill="black" fill-opacity="0.07"/>
</g>
<path d="M726.392 939.198C690.857 975.955 679.121 1001.25 731.554 1030.56L729.604 1031.51C668.05 1001.59 678.152 978.083 726.392 939.198Z" fill="#D94B4B"/>
<path d="M703.686 936.493C686.119 920.863 682.345 911.043 668.293 915.736C658.356 924.017 669.928 942.738 683.791 955.64C704.212 977.244 729.661 983.619 733.658 979.126C739.861 972.156 721.772 957.652 703.686 936.493Z" fill="url(#paint26_linear_20_1832)"/>
<g filter="url(#filter24_d_20_1832)">
<path d="M784.529 946.776C783.982 945.79 783.123 944.969 782.116 944.479C758.935 933.192 746.354 932.59 727.12 939.663C725.744 940.169 724.731 941.329 724.374 942.77C715.743 977.614 716.463 997.164 724.323 1028.75C724.758 1030.49 726.077 1031.96 727.771 1032.58C746.808 1039.62 758.714 1043.04 782.03 1036.81C783.144 1036.51 784.096 1035.78 784.678 1034.8C804.882 1000.76 803.464 980.955 784.529 946.776Z" fill="#E67070"/>
<path d="M723.225 942.374C720.635 955.023 742.827 975.104 761.511 978.929C815.595 994.854 800.92 975.267 800.03 962.951C798.932 947.761 789.573 936.947 770.889 933.122C752.205 929.297 725.814 929.725 723.225 942.374Z" fill="#D94B4B"/>
<path d="M768.87 932.709C792.029 941.918 796.427 982.736 788.017 998.511L781.135 998.72C790.273 982.558 785.736 943.01 762.227 931.753C765.442 931.936 766.416 932.185 768.87 932.709Z" fill="#D9D9D9"/>
<rect width="13.4326" height="7.06804" rx="3.01562" transform="matrix(-0.999933 -0.011571 0.112973 0.993598 792.597 962.642)" fill="#D9D9D9"/>
<rect width="13.5703" height="6.95159" rx="3.01562" transform="matrix(-0.992191 -0.124726 -0.0722726 0.997385 791.479 997.874)" fill="#D9D9D9"/>
</g>
<g filter="url(#filter25_d_20_1832)">
<path d="M104.76 944.624C209.259 708.369 300.029 636.028 341.024 654.942C355.151 659.383 406.738 679.545 456.678 679.545C546.837 673.643 582.504 616.48 585.256 581.404C588.008 546.327 519.602 527.125 532.154 502.888C544.705 478.651 521.304 412.166 509.878 397.146C498.453 382.125 474.066 346.221 406.738 326.939C339.41 307.656 286.066 326.939 234.104 357.156C182.142 387.374 132.82 445.682 136.297 440.772C139.774 435.861 -10.4782 599.583 -112.522 710.646C-111.719 709.004 -147.784 742.618 -219.019 809.108L65.9163 1062.04L104.76 944.624Z" fill="#1EAB97"/>
<path d="M104.76 944.624C209.259 708.369 300.029 636.028 341.024 654.942C355.151 659.383 406.738 679.545 456.678 679.545C546.837 673.643 582.504 616.48 585.256 581.404C588.008 546.327 519.602 527.125 532.154 502.888C544.705 478.651 521.304 412.166 509.878 397.146C498.453 382.125 474.066 346.221 406.738 326.939C339.41 307.656 286.066 326.939 234.104 357.156C182.142 387.374 132.82 445.682 136.297 440.772C139.774 435.861 -10.4782 599.583 -112.522 710.646C-111.719 709.004 -147.784 742.618 -219.019 809.108L65.9163 1062.04L104.76 944.624Z" fill="url(#paint27_linear_20_1832)"/>
</g>
<g filter="url(#filter26_d_20_1832)">
<path fill-rule="evenodd" clip-rule="evenodd" d="M484.48 496.257C488.293 487.997 487.641 478.066 483.264 468.621C478.913 459.233 471.082 450.819 461.48 445.808C451.883 440.8 440.774 439.307 429.753 443.235C418.802 447.138 407.301 456.621 397.064 474.823C396.078 476.576 394.014 477.431 392.453 476.732C390.893 476.034 390.427 474.047 391.413 472.294C402.395 452.768 415.371 441.548 428.646 436.818C441.851 432.111 454.716 434.055 465.335 439.597C475.948 445.136 484.571 454.386 489.408 464.823C494.218 475.201 495.485 487.253 490.44 498.181C489.604 499.992 487.592 501.029 485.947 500.498C484.301 499.966 483.644 498.068 484.48 496.257ZM429.986 504.443C419.559 491.202 421.308 472.434 433.893 462.522C446.479 452.61 465.135 455.308 475.563 468.549C485.991 481.789 484.241 500.558 471.656 510.47C459.07 520.382 440.414 517.684 429.986 504.443Z" fill="#272525"/>
</g>
<circle cx="458.5" cy="497.503" r="12.5" fill="#F5F5F5"/>
<circle cx="458.5" cy="497.503" r="12.5" fill="#F5F5F5"/>
<circle cx="458.5" cy="497.503" r="12.5" fill="#F5F5F5"/>
<circle cx="441.5" cy="480.5" r="6.5" fill="#F5F5F5"/>
<circle cx="441.5" cy="480.5" r="6.5" fill="#F5F5F5"/>
<circle cx="441.5" cy="480.5" r="6.5" fill="#F5F5F5"/>
<path d="M488.754 601.132C492.698 622.656 524.706 633.341 549.746 642.368" stroke="#272525" stroke-width="5" stroke-linecap="round"/>
<path d="M94.872 517.599C86.99 493.219 94.872 483.5 60.9996 523C30.9996 557.984 38.6345 537.1 48.792 553.042C58.9494 568.984 94.872 560.5 94.872 560.5C110 529 100.784 535.885 94.872 517.599Z" fill="#F0AAB4"/>
<path d="M197.995 485.535C210.011 504.249 222.901 514.282 235.063 482.928C264.972 465.718 258.889 459.584 245.391 448.226C231.893 436.868 209.999 443.229 192.266 448.762C183.946 470.645 188.982 471.5 197.995 485.535Z" fill="#F0AAB4"/>
<path d="M-8.00508 618.536C0.999915 638.5 19.4999 642.5 23.9999 611C44.9999 597 59.9999 594.5 39.3911 581.226C18.7822 567.953 15.4999 570.5 0.999941 587.001C-5.00003 593.828 -14.8634 603.331 -8.00508 618.536Z" fill="#F0AAB4"/>
<path d="M157.833 441.818C145.863 439.954 137.757 441.055 149.354 454.703C149.635 469.766 154.12 469.679 163.01 468.788C171.9 467.897 174.635 458.797 176.67 451.309C168.532 441.838 166.81 443.216 157.833 441.818Z" fill="#F0AAB4"/>
<path d="M165.973 605.771C182.806 586.269 189.78 569.529 151.296 570.731C122.778 548.748 117.942 557.23 109.7 575.114C101.457 592.999 115.448 611.688 127.2 626.666C154.006 625.663 153.347 620.399 165.973 605.771Z" fill="#F0AAB4"/>
<path d="M36.0525 692.828C46.3458 680.179 50.4103 669.149 25.8797 669.066C7.17426 653.715 4.28397 659.273 -0.564065 671.039C-5.4121 682.804 3.94641 695.62 11.7913 705.903C28.874 705.85 28.3322 702.316 36.0525 692.828Z" fill="#F0AAB4"/>
<path d="M99.5521 611.794C88.4139 588.563 75.8624 575.474 61.5661 611.224C30.009 628.564 35.8481 636.39 48.9404 651.1C62.0328 665.809 84.7588 660.465 103.188 655.687C112.994 630.72 107.906 629.218 99.5521 611.794Z" fill="#F0AAB4"/>
<path d="M61.2597 772.399C91.8284 781.759 114.895 780.982 97.1254 736.275C111.433 690.854 99.1926 689.713 74.2129 689.608C49.2332 689.504 32.7182 716.034 19.7126 737.932C32.2893 768.983 38.3323 765.378 61.2597 772.399Z" fill="#F0AAB4"/>
<path d="M139.282 491.615C112.438 497.32 96.2603 505.963 132.297 524.378C145.646 554.611 155.038 550.883 173.049 542.046C191.06 533.209 189.128 512.645 187.083 495.895C161.885 483.188 159.417 487.335 139.282 491.615Z" fill="#F0AAB4"/>
<g filter="url(#filter27_d_20_1832)">
<ellipse cx="566.371" cy="572.89" rx="5.5" ry="7.25489" transform="rotate(-7.24362 566.371 572.89)" fill="#B8717B"/>
</g>
<g filter="url(#filter28_d_20_1832)">
<line x1="386.01" y1="542.612" x2="418.612" y2="524.99" stroke="#F0AAB4" stroke-opacity="0.54" stroke-width="5" stroke-linecap="round" shape-rendering="crispEdges"/>
</g>
<g filter="url(#filter29_d_20_1832)">
<line x1="404.927" y1="551.631" x2="435.588" y2="534.073" stroke="#F0AAB4" stroke-opacity="0.54" stroke-width="5" stroke-linecap="round" shape-rendering="crispEdges"/>
</g>
<g filter="url(#filter30_d_20_1832)">
<line x1="2.5" y1="-2.5" x2="34.1073" y2="-2.5" transform="matrix(0.792192 -0.610272 0.811589 0.584229 431 562.34)" stroke="#F0AAB4" stroke-opacity="0.54" stroke-width="5" stroke-linecap="round" shape-rendering="crispEdges"/>
</g>
<g filter="url(#filter31_d_20_1832)">
<ellipse cx="469.067" cy="407.248" rx="12.531" ry="32.4993" transform="rotate(-56.8914 469.067 407.248)" fill="#B8717B"/>
</g>
<g filter="url(#filter32_d_20_1832)">
<path d="M98.8954 1023.84C86 1063.06 86 1106.2 86 1106.2H151.835C189.275 1134.51 206.994 1126.87 238.709 1114.04C262.41 1125.21 274.652 1126.29 296.4 1127.77C296.895 1127.16 297.05 1125.63 296.4 1114.04L351.375 1106.2V1089.53C351.375 1089.53 346.624 1062.08 335.086 1058.16C323.548 1054.24 320.833 1031.68 314.725 1023.84C308.616 1016 299.327 993.922 267.894 967.954C267.894 967.954 265.179 906.184 259.071 897.36C252.962 888.536 247.533 895.399 244.818 890.497C242.103 885.594 231.244 833.629 227.171 826.766C223.099 819.902 207.489 817.942 201.38 814.019C195.272 810.097 182.377 781.664 176.268 786.566C170.16 791.469 172.196 809.117 158.622 833.629C145.048 858.141 132.675 939.759 123.329 1010.11C111.52 982.829 111.791 984.622 98.8954 1023.84Z" fill="#6B6465"/>
</g>
<path d="M242.5 1109C242.5 1127 177.869 1138.01 150 1109C159.5 947 158 1171.5 184.5 988C193.021 929 206.5 1003.5 206.5 1003.5C206.5 1003.5 242.5 1091 242.5 1109Z" fill="#5A5555"/>
<path d="M351 1101.5C345.911 1105.65 332.959 1109.28 295.5 1111.5C294.657 1107.47 287.644 1082.31 267 1009C286.479 1032.67 289.07 1042 295.5 1059.5C295.5 1059.5 294 1002.5 280.5 982.001C267 961.5 299.227 996.103 316 1022.5C320.993 1043.71 325.808 1051.6 337.5 1059.5C349.553 1076.3 352.615 1085.49 351 1101.5Z" fill="#5A5555"/>
<path d="M241.513 945.989C239.882 943.091 237.302 923.446 227.513 833.989C225.732 817.843 234.144 846.301 247.499 896.5C260 889 257.513 922.489 257.513 922.489C255.156 922.759 260 932.5 247.499 904C244.429 923.768 244.105 934.97 241.513 945.989Z" fill="#5A5555"/>
<path d="M-35.8563 1061.35C-14.1336 823.584 6.04052 819.266 50.4474 794.728C26.03 790.773 -36.6964 825.804 -49.1673 1059.53L-35.8563 1061.35Z" fill="#6CB236"/>
<path d="M-22.589 752.413C22.4563 744.049 35.5464 755.888 52.8771 785.182C48.1697 765.804 48.2898 756.265 65.7291 747.522C80.9443 738.915 89.9776 742.224 106.174 749.505C124.757 755.158 125.567 757.642 130.798 762.344C93.6008 755.862 93.0604 760.166 91.5448 767.628C103.446 762.812 116.695 762.995 152.802 768.875C171.432 779.743 173.332 786.921 176.688 799.597L176.75 799.831C107.229 773.87 106.94 777.998 103.585 783.989C124.545 786.688 140.922 791.352 180.597 806.849C190.958 820.343 189.894 826.753 186.162 837.878C124.222 793.252 110.181 789.794 104.255 803.543C139.568 810.408 157.919 822.77 189.427 851.981C191.006 863.442 189.794 868.363 185.716 875.764C126.797 815.947 117.261 813.334 112.7 825.059C150.845 843.498 166.095 857.909 180.04 892.397C179.392 901.199 176.352 903.339 170.684 906.901C162.548 883.799 155.112 875.512 138.103 866.815L138.287 867.022C153.641 884.214 162.306 893.917 164.459 914.385C161.732 921.932 160.154 926.107 154.568 930.458C145.45 931.031 140.701 930.493 133.588 926.304C115.899 910.269 118.826 898.452 115.102 879.343C110.844 897.593 105.202 906.718 123.362 932.601C117.408 936.181 110.022 935.484 100.752 931.074C83.674 900.428 107.858 846.778 93.8556 842.622C77.7598 848.904 85.1845 893.628 97.0023 932.38C85.7369 932.4 79.6832 930.987 69.6646 924.265C50.4182 888.138 81.0538 827.417 73.2306 821.293C65.4074 815.168 46.4493 842.313 51.0176 911.127C37.831 902.059 29.1508 895.973 19.9973 881.527C14.7559 836.36 36.5961 823.206 49.6899 806.355C62.7837 789.505 -4.15982 813.528 -12.5691 861.838C-23.0234 848.138 -27.7365 839.453 -26.5071 815.535C-17.511 798.646 -3.52579 795.993 27.7555 786.711C9.57319 775.439 -5.64851 776.29 -29.8305 805.908C-33.5622 798.367 -36.5523 796.563 -34.8484 774.35C-29.0142 766.349 -21.3992 764.457 2.16617 767.019C-3.21663 761.407 -6.45005 758.396 -31.7425 765.249C-33.4726 762.163 -33.6828 760.158 -22.589 752.413Z" fill="#27844C"/>
<path d="M147.941 911.867C119.011 850.449 97.2013 816.508 54.0049 785.828L56.5424 794.53C87.561 814.451 108.533 845.552 147.941 911.867Z" fill="#6CB236"/>
<mask id="mask1_20_1832" style="mask-type:alpha" maskUnits="userSpaceOnUse" x="-93" y="917" width="288" height="186">
<path d="M162.1 1102.46C150.635 1102.46 112.624 1101.34 77.258 1102.46H-22.2025C-22.2025 1102.46 -46.8526 1066.61 -61.7574 1061.13C-76.6621 1055.64 -86.7933 1035.75 -93 1005.16C-93 1005.16 -78.3819 1008.82 -68.0632 1012.11C-57.7445 1015.4 -38.2537 1024.55 -38.2537 1024.55C-38.2537 1024.55 -60.3242 1012.47 -66.6301 996.013C-72.9359 979.552 -82.3947 943.703 -82.3947 943.703C-82.3947 943.703 -63.7638 959.067 -38.2537 965.286C-12.7437 971.504 0.441284 996.013 0.441284 996.013C0.441284 996.013 -0.991867 970.407 3.30758 955.043C7.60703 939.68 17.6391 917 17.6391 917C17.6391 917 43.7224 954.677 43.7224 980.649C43.7224 1006.62 34.5502 1034.42 34.5502 1034.42C34.5502 1034.42 51.748 1004.06 61.2068 992.355C70.6656 980.649 86.4302 977.723 100.188 980.649C113.947 983.576 130.858 977.723 130.858 977.723C130.858 977.723 122.259 997.476 115.953 1006.62C109.647 1015.77 89.0099 1031.86 82.9906 1039.54C76.9714 1047.23 57.7672 1085.63 57.7672 1085.63C57.7672 1085.63 82.9906 1051.98 98.4686 1049.05C113.947 1046.13 141.176 1053.44 160.667 1069.17C180.158 1084.9 194.49 1094.78 194.49 1094.78C194.49 1094.78 173.566 1102.46 162.1 1102.46Z" fill="#D9D9D9"/>
</mask>
<g mask="url(#mask1_20_1832)">
<path d="M162.1 1102.46C150.635 1102.46 112.624 1101.34 77.258 1102.46H-22.2025C-22.2025 1102.46 -46.8526 1066.61 -61.7574 1061.13C-76.6621 1055.64 -86.7933 1035.75 -93 1005.16C-93 1005.16 -78.3819 1008.82 -68.0632 1012.11C-57.7445 1015.4 -38.2537 1024.55 -38.2537 1024.55C-38.2537 1024.55 -60.3242 1012.47 -66.6301 996.013C-72.9359 979.552 -82.3947 943.703 -82.3947 943.703C-82.3947 943.703 -63.7638 959.067 -38.2537 965.286C-12.7437 971.504 0.441284 996.013 0.441284 996.013C0.441284 996.013 -0.991867 970.407 3.30758 955.043C7.60703 939.68 17.6391 917 17.6391 917C17.6391 917 43.7224 954.677 43.7224 980.649C43.7224 1006.62 34.5502 1034.42 34.5502 1034.42C34.5502 1034.42 51.748 1004.06 61.2068 992.355C70.6656 980.649 86.4302 977.723 100.188 980.649C113.947 983.576 130.858 977.723 130.858 977.723C130.858 977.723 122.259 997.476 115.953 1006.62C109.647 1015.77 89.0099 1031.86 82.9906 1039.54C76.9714 1047.23 57.7672 1085.63 57.7672 1085.63C57.7672 1085.63 82.9906 1051.98 98.4686 1049.05C113.947 1046.13 141.176 1053.44 160.667 1069.17C180.158 1084.9 194.49 1094.78 194.49 1094.78C194.49 1094.78 173.566 1102.46 162.1 1102.46Z" fill="#6CB236"/>
<path d="M-35.6743 1049.79C-45.5506 1034.04 -55.2447 1025.24 -72.9362 1009.55C-144.768 978.565 -92.2612 1054.54 -72.9362 1115.26H193.343V1082.71C165.135 1067.17 146.426 1063.01 109.074 1061.86C126.293 1068.34 132.19 1073.09 138.883 1082.71C82.4171 1054.18 66.6525 1075.39 32.2569 1109.41C41.5863 1073.07 47.5081 1053.89 69.2322 1038.81C57.493 1042.26 50.75 1046.27 38.2762 1059.3C49.4547 1024.55 60.5891 985.642 94.4556 991.623C82.0464 995.255 80.5056 1006.22 76.6845 1019.42C88.4364 1002.23 107.383 989.359 130.284 978.455C95.167 969.978 76.3519 974.671 43.7221 993.087C34.4864 1024.27 28.4956 1038.5 15.919 1056.37C23.6447 1014.31 27.4619 1018.21 25.0912 982.113C21.7568 1006.99 19.0126 1021.57 11.0463 1049.79C3.20761 987.836 4.6843 958.844 17.3522 917L-17.9033 968.578C-2.08714 1000.66 1.36349 1021.86 -4.14504 1066.61C-26.5022 1011.01 -53.4454 1013.93 -63.1908 982.113C-53.2033 990.103 -47.0541 991.904 -35.6743 993.087C-57.3157 980.267 -65.4414 965.242 -83.5415 941.143C-70.3091 1017.97 -59.178 1011.38 -38.254 1024.55C-27.0139 1035.47 -12.3458 1058.41 5.60036 1105.75H-10.1643C-25.5308 1076.98 -32.1745 1059.34 -58.3181 1038.81C-52.0342 1038.33 -47.0155 1040.86 -35.6743 1049.79Z" fill="#2C8C4A"/>
</g>
<path d="M1295.58 1098.82C1257.38 1114.88 1229.19 1102.32 1187 1095.05C1225.47 1015.82 1238.71 1001.09 1254.44 1002.97C1255.85 998.038 1255.92 992.579 1273.15 992.579C1290.38 992.579 1290.64 991.707 1301.21 1002.97C1304.65 999.509 1307.61 992.579 1330.74 987.133C1348.46 975.252 1363.66 986.963 1382.92 992.579C1396.26 996.467 1423.78 1002.97 1431.66 1019.81C1438.71 1018.67 1435.98 1012.46 1442.49 1015.35C1461.62 1023.86 1504.02 1048.02 1514.36 1078.72C1476.73 1086.25 1476.58 1105.32 1422.58 1109.32C1368.58 1113.32 1349.08 1105.32 1349.08 1105.32C1330.74 1095.05 1312.24 1104.47 1295.58 1098.82Z" fill="#6B6465"/>
<path d="M1340.05 1101.23C1342.05 1106.23 1314.16 1106.77 1300.55 1101.23C1300.55 1101.23 1289.55 1101.23 1296.05 1096.73C1302.55 1092.23 1303.92 1071.13 1310.05 1051.73C1312.55 1047.72 1312.54 1060.65 1318.05 1079.23C1323.57 1097.82 1323.17 1074.54 1326.55 1069.23C1326.92 1059.63 1338.05 1096.23 1340.05 1101.23Z" fill="#5A5555"/>
<path d="M1430 1026.5C1425.89 1020 1439.5 1017 1439.5 1017C1439.5 1017 1467.5 1097.5 1439.5 1105.5C1411.5 1113.5 1349 1108 1365.5 1105.5C1382 1103 1421.51 1097.27 1423.5 1085.5C1429.88 1054.61 1434.1 1033 1430 1026.5Z" fill="#5A5555"/>
<path d="M1288.5 992C1281.5 992 1254 989 1254 1002.5C1284 997.5 1281.97 1013.53 1288.5 1025.5C1307.33 1005.53 1324.44 990.185 1331.5 987C1314.06 988.519 1299.5 1002.5 1299.5 1002.5C1299.5 1002.5 1295.5 992 1288.5 992Z" fill="#5A5555"/>
<g filter="url(#filter33_d_20_1832)">
<path d="M1260 145.75C1271.27 114.265 1271.85 79.4337 1271.85 79.4337L1217.05 78.5174C1186.27 55.1372 1134.54 49.1753 1107.97 59.0897C1104.81 57.5803 1102.85 56.5976 1101.72 56.0046C1099.48 54.8286 1100.48 55.1851 1101.72 56.0046C1103.73 57.3301 1106.39 59.8669 1097.02 59.0898C1096.6 59.5766 1026.61 24.6369 1027 33.9995L1050.75 89.1976C1050.75 89.1976 1054.33 111.429 1063.88 114.756C1073.43 118.083 1071.02 134.168 1080.37 142.746C1089.24 150.889 1082.16 135.088 1107.97 156.492C1107.97 156.492 1125.06 205.43 1125.06 172.416C1127.25 176.412 1139.13 279.973 1147.67 298.491C1156.22 317.01 1160.74 276.722 1165.77 279.973C1170.8 283.225 1174.81 381.19 1192 363.999C1199 356.999 1198.87 287.101 1210.5 267.499C1222.13 247.898 1230.75 213.166 1239.48 156.492C1248.94 178.686 1248.74 177.235 1260 145.75Z" fill="url(#paint28_linear_20_1832)"/>
</g>
<path d="M918.183 65.7903C926.213 62.78 904.957 54.7526 904.957 54.7526C900.53 59.0109 891.289 50.1916 868.585 24.1482C858.854 28.5159 855.371 31.4919 850.636 37.1927C855.437 60.6624 861.972 117.467 868.585 121.982C875.198 126.497 892.797 108.053 904.957 77.3297C904.957 77.3297 910.153 68.8006 918.183 65.7903Z" fill="url(#paint29_linear_20_1832)"/>
<path d="M52.1719 127.323C40.2092 121.988 24 78.7277 24 78.7277C30.5945 86.2746 43.4747 84.4651 77.2965 38.3086C91.7936 46.0493 133.945 14.9364 141 25.0398C133.848 66.6351 111.985 219.798 102.133 227.801C92.2819 235.803 86.3565 203.115 68.2417 148.664C68.2417 148.664 64.1345 132.658 52.1719 127.323Z" fill="url(#paint30_linear_20_1832)"/>
<path d="M1222.5 175.5C1222.5 131.5 1216.5 91.9996 1222.5 100.5C1227.06 106.958 1240.08 90.4744 1244.03 82.9464C1243.4 81.1673 1243.5 79.8725 1244.5 79.4996C1245.62 79.0828 1245.27 80.5673 1244.03 82.9464C1246.31 89.4486 1258.3 102.42 1271.5 100.5C1271.5 100.5 1251 178 1247 175.5C1243 173 1241 157 1241 157C1241 157 1222.5 219.5 1222.5 175.5Z" fill="#5A5555"/>
<path d="M918.183 65.7903C926.213 62.78 904.957 54.7526 904.957 54.7526C900.53 59.0109 891.289 50.1916 868.585 24.1482C858.854 28.5159 855.371 31.4919 850.636 37.1927C855.437 60.6624 861.972 117.467 868.585 121.982C875.198 126.497 892.797 108.053 904.957 77.3297C904.957 77.3297 910.153 68.8006 918.183 65.7903Z" fill="url(#paint31_linear_20_1832)"/>
<g filter="url(#filter34_d_20_1832)">
<path d="M123.886 -31.5001C117.847 -39.7605 113.405 -44.0727 100.994 -50.4014C72.0393 -12.6651 62.9997 -67.6107 54.6075 -6.05616C54.6075 -6.05616 24.3708 -15.2191 37.7395 9.9372C51.1082 35.0935 54.6075 44.0882 54.6075 44.0882" stroke="#6B6465" stroke-width="2.01042"/>
</g>
</g>
<defs>
<filter id="filter0_d_20_1832" x="-12.3363" y="-4.50024" width="431.024" height="283.691" filterUnits="userSpaceOnUse" color-interpolation-filters="sRGB">
<feFlood flood-opacity="0" result="BackgroundImageFix"/>
<feColorMatrix in="SourceAlpha" type="matrix" values="0 0 0 0 0 0 0 0 0 0 0 0 0 0 0 0 0 0 127 0" result="hardAlpha"/>
<feOffset dy="4.02083"/>
<feGaussianBlur stdDeviation="2.01042"/>
<feComposite in2="hardAlpha" operator="out"/>
<feColorMatrix type="matrix" values="0 0 0 0 0 0 0 0 0 0 0 0 0 0 0 0 0 0 0.25 0"/>
<feBlend mode="normal" in2="BackgroundImageFix" result="effect1_dropShadow_20_1832"/>
<feBlend mode="normal" in="SourceGraphic" in2="effect1_dropShadow_20_1832" result="shape"/>
</filter>
<filter id="filter1_d_20_1832" x="-35.8076" y="-30.9922" width="1499.5" height="1202.96" filterUnits="userSpaceOnUse" color-interpolation-filters="sRGB">
<feFlood flood-opacity="0" result="BackgroundImageFix"/>
<feColorMatrix in="SourceAlpha" type="matrix" values="0 0 0 0 0 0 0 0 0 0 0 0 0 0 0 0 0 0 127 0" result="hardAlpha"/>
<feOffset dx="-3" dy="-2"/>
<feGaussianBlur stdDeviation="13"/>
<feComposite in2="hardAlpha" operator="out"/>
<feColorMatrix type="matrix" values="0 0 0 0 0.908333 0 0 0 0 0.807962 0 0 0 0 0.613125 0 0 0 0.61 0"/>
<feBlend mode="normal" in2="BackgroundImageFix" result="effect1_dropShadow_20_1832"/>
<feBlend mode="normal" in="SourceGraphic" in2="effect1_dropShadow_20_1832" result="shape"/>
</filter>
<filter id="filter2_d_20_1832" x="166.053" y="213.021" width="64.0046" height="73.5973" filterUnits="userSpaceOnUse" color-interpolation-filters="sRGB">
<feFlood flood-opacity="0" result="BackgroundImageFix"/>
<feColorMatrix in="SourceAlpha" type="matrix" values="0 0 0 0 0 0 0 0 0 0 0 0 0 0 0 0 0 0 127 0" result="hardAlpha"/>
<feOffset dy="4.02083"/>
<feGaussianBlur stdDeviation="2.01042"/>
<feComposite in2="hardAlpha" operator="out"/>
<feColorMatrix type="matrix" values="0 0 0 0 0 0 0 0 0 0 0 0 0 0 0 0 0 0 0.25 0"/>
<feBlend mode="normal" in2="BackgroundImageFix" result="effect1_dropShadow_20_1832"/>
<feBlend mode="normal" in="SourceGraphic" in2="effect1_dropShadow_20_1832" result="shape"/>
</filter>
<filter id="filter3_d_20_1832" x="199.024" y="119.648" width="64.0046" height="73.5973" filterUnits="userSpaceOnUse" color-interpolation-filters="sRGB">
<feFlood flood-opacity="0" result="BackgroundImageFix"/>
<feColorMatrix in="SourceAlpha" type="matrix" values="0 0 0 0 0 0 0 0 0 0 0 0 0 0 0 0 0 0 127 0" result="hardAlpha"/>
<feOffset dy="4.02083"/>
<feGaussianBlur stdDeviation="2.01042"/>
<feComposite in2="hardAlpha" operator="out"/>
<feColorMatrix type="matrix" values="0 0 0 0 0 0 0 0 0 0 0 0 0 0 0 0 0 0 0.25 0"/>
<feBlend mode="normal" in2="BackgroundImageFix" result="effect1_dropShadow_20_1832"/>
<feBlend mode="normal" in="SourceGraphic" in2="effect1_dropShadow_20_1832" result="shape"/>
</filter>
<filter id="filter4_d_20_1832" x="62.6481" y="323.252" width="64.0046" height="73.5973" filterUnits="userSpaceOnUse" color-interpolation-filters="sRGB">
<feFlood flood-opacity="0" result="BackgroundImageFix"/>
<feColorMatrix in="SourceAlpha" type="matrix" values="0 0 0 0 0 0 0 0 0 0 0 0 0 0 0 0 0 0 127 0" result="hardAlpha"/>
<feOffset dy="4.02083"/>
<feGaussianBlur stdDeviation="2.01042"/>
<feComposite in2="hardAlpha" operator="out"/>
<feColorMatrix type="matrix" values="0 0 0 0 0 0 0 0 0 0 0 0 0 0 0 0 0 0 0.25 0"/>
<feBlend mode="normal" in2="BackgroundImageFix" result="effect1_dropShadow_20_1832"/>
<feBlend mode="normal" in="SourceGraphic" in2="effect1_dropShadow_20_1832" result="shape"/>
</filter>
<filter id="filter5_d_20_1832" x="158.557" y="40.5403" width="71.4987" height="73.5973" filterUnits="userSpaceOnUse" color-interpolation-filters="sRGB">
<feFlood flood-opacity="0" result="BackgroundImageFix"/>
<feColorMatrix in="SourceAlpha" type="matrix" values="0 0 0 0 0 0 0 0 0 0 0 0 0 0 0 0 0 0 127 0" result="hardAlpha"/>
<feOffset dy="4.02083"/>
<feGaussianBlur stdDeviation="2.01042"/>
<feComposite in2="hardAlpha" operator="out"/>
<feColorMatrix type="matrix" values="0 0 0 0 0 0 0 0 0 0 0 0 0 0 0 0 0 0 0.25 0"/>
<feBlend mode="normal" in2="BackgroundImageFix" result="effect1_dropShadow_20_1832"/>
<feBlend mode="normal" in="SourceGraphic" in2="effect1_dropShadow_20_1832" result="shape"/>
</filter>
<filter id="filter6_d_20_1832" x="116.595" y="166.334" width="71.4987" height="73.5973" filterUnits="userSpaceOnUse" color-interpolation-filters="sRGB">
<feFlood flood-opacity="0" result="BackgroundImageFix"/>
<feColorMatrix in="SourceAlpha" type="matrix" values="0 0 0 0 0 0 0 0 0 0 0 0 0 0 0 0 0 0 127 0" result="hardAlpha"/>
<feOffset dy="4.02083"/>
<feGaussianBlur stdDeviation="2.01042"/>
<feComposite in2="hardAlpha" operator="out"/>
<feColorMatrix type="matrix" values="0 0 0 0 0 0 0 0 0 0 0 0 0 0 0 0 0 0 0.25 0"/>
<feBlend mode="normal" in2="BackgroundImageFix" result="effect1_dropShadow_20_1832"/>
<feBlend mode="normal" in="SourceGraphic" in2="effect1_dropShadow_20_1832" result="shape"/>
</filter>
<filter id="filter7_d_20_1832" x="1222.06" y="-17.792" width="35.4987" height="45.7394" filterUnits="userSpaceOnUse" color-interpolation-filters="sRGB">
<feFlood flood-opacity="0" result="BackgroundImageFix"/>
<feColorMatrix in="SourceAlpha" type="matrix" values="0 0 0 0 0 0 0 0 0 0 0 0 0 0 0 0 0 0 127 0" result="hardAlpha"/>
<feOffset dy="4.02083"/>
<feGaussianBlur stdDeviation="2.01042"/>
<feComposite in2="hardAlpha" operator="out"/>
<feColorMatrix type="matrix" values="0 0 0 0 0 0 0 0 0 0 0 0 0 0 0 0 0 0 0.25 0"/>
<feBlend mode="normal" in2="BackgroundImageFix" result="effect1_dropShadow_20_1832"/>
<feBlend mode="normal" in="SourceGraphic" in2="effect1_dropShadow_20_1832" result="shape"/>
</filter>
<filter id="filter8_d_20_1832" x="1328.47" y="74.2668" width="35.4987" height="45.7394" filterUnits="userSpaceOnUse" color-interpolation-filters="sRGB">
<feFlood flood-opacity="0" result="BackgroundImageFix"/>
<feColorMatrix in="SourceAlpha" type="matrix" values="0 0 0 0 0 0 0 0 0 0 0 0 0 0 0 0 0 0 127 0" result="hardAlpha"/>
<feOffset dy="4.02083"/>
<feGaussianBlur stdDeviation="2.01042"/>
<feComposite in2="hardAlpha" operator="out"/>
<feColorMatrix type="matrix" values="0 0 0 0 0 0 0 0 0 0 0 0 0 0 0 0 0 0 0.25 0"/>
<feBlend mode="normal" in2="BackgroundImageFix" result="effect1_dropShadow_20_1832"/>
<feBlend mode="normal" in="SourceGraphic" in2="effect1_dropShadow_20_1832" result="shape"/>
</filter>
<filter id="filter9_d_20_1832" x="1269.5" y="28.4275" width="32.4587" height="50.1874" filterUnits="userSpaceOnUse" color-interpolation-filters="sRGB">
<feFlood flood-opacity="0" result="BackgroundImageFix"/>
<feColorMatrix in="SourceAlpha" type="matrix" values="0 0 0 0 0 0 0 0 0 0 0 0 0 0 0 0 0 0 127 0" result="hardAlpha"/>
<feOffset dy="4.02083"/>
<feGaussianBlur stdDeviation="2.01042"/>
<feComposite in2="hardAlpha" operator="out"/>
<feColorMatrix type="matrix" values="0 0 0 0 0 0 0 0 0 0 0 0 0 0 0 0 0 0 0.25 0"/>
<feBlend mode="normal" in2="BackgroundImageFix" result="effect1_dropShadow_20_1832"/>
<feBlend mode="normal" in="SourceGraphic" in2="effect1_dropShadow_20_1832" result="shape"/>
</filter>
<filter id="filter10_d_20_1832" x="1407.53" y="105.385" width="39.3122" height="45.7394" filterUnits="userSpaceOnUse" color-interpolation-filters="sRGB">
<feFlood flood-opacity="0" result="BackgroundImageFix"/>
<feColorMatrix in="SourceAlpha" type="matrix" values="0 0 0 0 0 0 0 0 0 0 0 0 0 0 0 0 0 0 127 0" result="hardAlpha"/>
<feOffset dy="4.02083"/>
<feGaussianBlur stdDeviation="2.01042"/>
<feComposite in2="hardAlpha" operator="out"/>
<feColorMatrix type="matrix" values="0 0 0 0 0 0 0 0 0 0 0 0 0 0 0 0 0 0 0.25 0"/>
<feBlend mode="normal" in2="BackgroundImageFix" result="effect1_dropShadow_20_1832"/>
<feBlend mode="normal" in="SourceGraphic" in2="effect1_dropShadow_20_1832" result="shape"/>
</filter>
<filter id="filter11_d_20_1832" x="1370.16" y="72.1316" width="55.1003" height="31.7196" filterUnits="userSpaceOnUse" color-interpolation-filters="sRGB">
<feFlood flood-opacity="0" result="BackgroundImageFix"/>
<feColorMatrix in="SourceAlpha" type="matrix" values="0 0 0 0 0 0 0 0 0 0 0 0 0 0 0 0 0 0 127 0" result="hardAlpha"/>
<feOffset dy="4.02083"/>
<feGaussianBlur stdDeviation="2.01042"/>
<feComposite in2="hardAlpha" operator="out"/>
<feColorMatrix type="matrix" values="0 0 0 0 0 0 0 0 0 0 0 0 0 0 0 0 0 0 0.25 0"/>
<feBlend mode="normal" in2="BackgroundImageFix" result="effect1_dropShadow_20_1832"/>
<feBlend mode="normal" in="SourceGraphic" in2="effect1_dropShadow_20_1832" result="shape"/>
</filter>
<filter id="filter12_d_20_1832" x="1277.98" y="6.77686" width="53.2673" height="33.4164" filterUnits="userSpaceOnUse" color-interpolation-filters="sRGB">
<feFlood flood-opacity="0" result="BackgroundImageFix"/>
<feColorMatrix in="SourceAlpha" type="matrix" values="0 0 0 0 0 0 0 0 0 0 0 0 0 0 0 0 0 0 127 0" result="hardAlpha"/>
<feOffset dy="4.02083"/>
<feGaussianBlur stdDeviation="2.01042"/>
<feComposite in2="hardAlpha" operator="out"/>
<feColorMatrix type="matrix" values="0 0 0 0 0 0 0 0 0 0 0 0 0 0 0 0 0 0 0.25 0"/>
<feBlend mode="normal" in2="BackgroundImageFix" result="effect1_dropShadow_20_1832"/>
<feBlend mode="normal" in="SourceGraphic" in2="effect1_dropShadow_20_1832" result="shape"/>
</filter>
<filter id="filter13_d_20_1832" x="1297.96" y="127.259" width="59.1208" height="71.7768" filterUnits="userSpaceOnUse" color-interpolation-filters="sRGB">
<feFlood flood-opacity="0" result="BackgroundImageFix"/>
<feColorMatrix in="SourceAlpha" type="matrix" values="0 0 0 0 0 0 0 0 0 0 0 0 0 0 0 0 0 0 127 0" result="hardAlpha"/>
<feOffset dy="4.02083"/>
<feGaussianBlur stdDeviation="2.01042"/>
<feComposite in2="hardAlpha" operator="out"/>
<feColorMatrix type="matrix" values="0 0 0 0 0 0 0 0 0 0 0 0 0 0 0 0 0 0 0.25 0"/>
<feBlend mode="normal" in2="BackgroundImageFix" result="effect1_dropShadow_20_1832"/>
<feBlend mode="normal" in="SourceGraphic" in2="effect1_dropShadow_20_1832" result="shape"/>
</filter>
<filter id="filter14_d_20_1832" x="1267.97" y="36.561" width="59.1208" height="71.7768" filterUnits="userSpaceOnUse" color-interpolation-filters="sRGB">
<feFlood flood-opacity="0" result="BackgroundImageFix"/>
<feColorMatrix in="SourceAlpha" type="matrix" values="0 0 0 0 0 0 0 0 0 0 0 0 0 0 0 0 0 0 127 0" result="hardAlpha"/>
<feOffset dy="4.02083"/>
<feGaussianBlur stdDeviation="2.01042"/>
<feComposite in2="hardAlpha" operator="out"/>
<feColorMatrix type="matrix" values="0 0 0 0 0 0 0 0 0 0 0 0 0 0 0 0 0 0 0.25 0"/>
<feBlend mode="normal" in2="BackgroundImageFix" result="effect1_dropShadow_20_1832"/>
<feBlend mode="normal" in="SourceGraphic" in2="effect1_dropShadow_20_1832" result="shape"/>
</filter>
<filter id="filter15_d_20_1832" x="1392" y="234.333" width="59.1208" height="71.7768" filterUnits="userSpaceOnUse" color-interpolation-filters="sRGB">
<feFlood flood-opacity="0" result="BackgroundImageFix"/>
<feColorMatrix in="SourceAlpha" type="matrix" values="0 0 0 0 0 0 0 0 0 0 0 0 0 0 0 0 0 0 127 0" result="hardAlpha"/>
<feOffset dy="4.02083"/>
<feGaussianBlur stdDeviation="2.01042"/>
<feComposite in2="hardAlpha" operator="out"/>
<feColorMatrix type="matrix" values="0 0 0 0 0 0 0 0 0 0 0 0 0 0 0 0 0 0 0.25 0"/>
<feBlend mode="normal" in2="BackgroundImageFix" result="effect1_dropShadow_20_1832"/>
<feBlend mode="normal" in="SourceGraphic" in2="effect1_dropShadow_20_1832" result="shape"/>
</filter>
<filter id="filter16_d_20_1832" x="1297.96" y="-40.2803" width="65.9372" height="71.7768" filterUnits="userSpaceOnUse" color-interpolation-filters="sRGB">
<feFlood flood-opacity="0" result="BackgroundImageFix"/>
<feColorMatrix in="SourceAlpha" type="matrix" values="0 0 0 0 0 0 0 0 0 0 0 0 0 0 0 0 0 0 127 0" result="hardAlpha"/>
<feOffset dy="4.02083"/>
<feGaussianBlur stdDeviation="2.01042"/>
<feComposite in2="hardAlpha" operator="out"/>
<feColorMatrix type="matrix" values="0 0 0 0 0 0 0 0 0 0 0 0 0 0 0 0 0 0 0.25 0"/>
<feBlend mode="normal" in2="BackgroundImageFix" result="effect1_dropShadow_20_1832"/>
<feBlend mode="normal" in="SourceGraphic" in2="effect1_dropShadow_20_1832" result="shape"/>
</filter>
<filter id="filter17_d_20_1832" x="1336.12" y="81.9097" width="65.9372" height="71.7768" filterUnits="userSpaceOnUse" color-interpolation-filters="sRGB">
<feFlood flood-opacity="0" result="BackgroundImageFix"/>
<feColorMatrix in="SourceAlpha" type="matrix" values="0 0 0 0 0 0 0 0 0 0 0 0 0 0 0 0 0 0 127 0" result="hardAlpha"/>
<feOffset dy="4.02083"/>
<feGaussianBlur stdDeviation="2.01042"/>
<feComposite in2="hardAlpha" operator="out"/>
<feColorMatrix type="matrix" values="0 0 0 0 0 0 0 0 0 0 0 0 0 0 0 0 0 0 0.25 0"/>
<feBlend mode="normal" in2="BackgroundImageFix" result="effect1_dropShadow_20_1832"/>
<feBlend mode="normal" in="SourceGraphic" in2="effect1_dropShadow_20_1832" result="shape"/>
</filter>
<filter id="filter18_d_20_1832" x="1381.29" y="178.449" width="94.488" height="48.7424" filterUnits="userSpaceOnUse" color-interpolation-filters="sRGB">
<feFlood flood-opacity="0" result="BackgroundImageFix"/>
<feColorMatrix in="SourceAlpha" type="matrix" values="0 0 0 0 0 0 0 0 0 0 0 0 0 0 0 0 0 0 127 0" result="hardAlpha"/>
<feOffset dy="4.02083"/>
<feGaussianBlur stdDeviation="2.01042"/>
<feComposite in2="hardAlpha" operator="out"/>
<feColorMatrix type="matrix" values="0 0 0 0 0 0 0 0 0 0 0 0 0 0 0 0 0 0 0.25 0"/>
<feBlend mode="normal" in2="BackgroundImageFix" result="effect1_dropShadow_20_1832"/>
<feBlend mode="normal" in="SourceGraphic" in2="effect1_dropShadow_20_1832" result="shape"/>
</filter>
<filter id="filter19_d_20_1832" x="586.054" y="946.051" width="114.979" height="140.814" filterUnits="userSpaceOnUse" color-interpolation-filters="sRGB">
<feFlood flood-opacity="0" result="BackgroundImageFix"/>
<feColorMatrix in="SourceAlpha" type="matrix" values="0 0 0 0 0 0 0 0 0 0 0 0 0 0 0 0 0 0 127 0" result="hardAlpha"/>
<feOffset dy="4.02083"/>
<feGaussianBlur stdDeviation="2.01042"/>
<feComposite in2="hardAlpha" operator="out"/>
<feColorMatrix type="matrix" values="0 0 0 0 0 0 0 0 0 0 0 0 0 0 0 0 0 0 0.25 0"/>
<feBlend mode="normal" in2="BackgroundImageFix" result="effect1_dropShadow_20_1832"/>
<feBlend mode="normal" in="SourceGraphic" in2="effect1_dropShadow_20_1832" result="shape"/>
</filter>
<filter id="filter20_d_20_1832" x="591.347" y="956.722" width="91.4688" height="29.8096" filterUnits="userSpaceOnUse" color-interpolation-filters="sRGB">
<feFlood flood-opacity="0" result="BackgroundImageFix"/>
<feColorMatrix in="SourceAlpha" type="matrix" values="0 0 0 0 0 0 0 0 0 0 0 0 0 0 0 0 0 0 127 0" result="hardAlpha"/>
<feOffset dy="4"/>
<feGaussianBlur stdDeviation="2"/>
<feComposite in2="hardAlpha" operator="out"/>
<feColorMatrix type="matrix" values="0 0 0 0 0 0 0 0 0 0 0 0 0 0 0 0 0 0 0.25 0"/>
<feBlend mode="normal" in2="BackgroundImageFix" result="effect1_dropShadow_20_1832"/>
<feBlend mode="normal" in="SourceGraphic" in2="effect1_dropShadow_20_1832" result="shape"/>
</filter>
<filter id="filter21_d_20_1832" x="800.988" y="929.569" width="93.7389" height="100.57" filterUnits="userSpaceOnUse" color-interpolation-filters="sRGB">
<feFlood flood-opacity="0" result="BackgroundImageFix"/>
<feColorMatrix in="SourceAlpha" type="matrix" values="0 0 0 0 0 0 0 0 0 0 0 0 0 0 0 0 0 0 127 0" result="hardAlpha"/>
<feOffset dy="4.02083"/>
<feGaussianBlur stdDeviation="2.01042"/>
<feComposite in2="hardAlpha" operator="out"/>
<feColorMatrix type="matrix" values="0 0 0 0 0 0 0 0 0 0 0 0 0 0 0 0 0 0 0.25 0"/>
<feBlend mode="normal" in2="BackgroundImageFix" result="effect1_dropShadow_20_1832"/>
<feBlend mode="normal" in="SourceGraphic" in2="effect1_dropShadow_20_1832" result="shape"/>
</filter>
<filter id="filter22_d_20_1832" x="682.137" y="830.794" width="145.136" height="78.7624" filterUnits="userSpaceOnUse" color-interpolation-filters="sRGB">
<feFlood flood-opacity="0" result="BackgroundImageFix"/>
<feColorMatrix in="SourceAlpha" type="matrix" values="0 0 0 0 0 0 0 0 0 0 0 0 0 0 0 0 0 0 127 0" result="hardAlpha"/>
<feOffset dy="4.02083"/>
<feGaussianBlur stdDeviation="2.01042"/>
<feComposite in2="hardAlpha" operator="out"/>
<feColorMatrix type="matrix" values="0 0 0 0 0 0 0 0 0 0 0 0 0 0 0 0 0 0 0.25 0"/>
<feBlend mode="normal" in2="BackgroundImageFix" result="effect1_dropShadow_20_1832"/>
<feBlend mode="normal" in="SourceGraphic" in2="effect1_dropShadow_20_1832" result="shape"/>
</filter>
<filter id="filter23_d_20_1832" x="670.709" y="937.132" width="100.804" height="55.7959" filterUnits="userSpaceOnUse" color-interpolation-filters="sRGB">
<feFlood flood-opacity="0" result="BackgroundImageFix"/>
<feColorMatrix in="SourceAlpha" type="matrix" values="0 0 0 0 0 0 0 0 0 0 0 0 0 0 0 0 0 0 127 0" result="hardAlpha"/>
<feOffset dy="4"/>
<feGaussianBlur stdDeviation="2"/>
<feComposite in2="hardAlpha" operator="out"/>
<feColorMatrix type="matrix" values="0 0 0 0 0 0 0 0 0 0 0 0 0 0 0 0 0 0 0.25 0"/>
<feBlend mode="normal" in2="BackgroundImageFix" result="effect1_dropShadow_20_1832"/>
<feBlend mode="normal" in="SourceGraphic" in2="effect1_dropShadow_20_1832" result="shape"/>
</filter>
<filter id="filter24_d_20_1832" x="714.141" y="931.009" width="92.3805" height="117.102" filterUnits="userSpaceOnUse" color-interpolation-filters="sRGB">
<feFlood flood-opacity="0" result="BackgroundImageFix"/>
<feColorMatrix in="SourceAlpha" type="matrix" values="0 0 0 0 0 0 0 0 0 0 0 0 0 0 0 0 0 0 127 0" result="hardAlpha"/>
<feOffset dy="4.02083"/>
<feGaussianBlur stdDeviation="2.01042"/>
<feComposite in2="hardAlpha" operator="out"/>
<feColorMatrix type="matrix" values="0 0 0 0 0 0 0 0 0 0 0 0 0 0 0 0 0 0 0.25 0"/>
<feBlend mode="normal" in2="BackgroundImageFix" result="effect1_dropShadow_20_1832"/>
<feBlend mode="normal" in="SourceGraphic" in2="effect1_dropShadow_20_1832" result="shape"/>
</filter>
<filter id="filter25_d_20_1832" x="-335.02" y="206.205" width="1036.36" height="974.836" filterUnits="userSpaceOnUse" color-interpolation-filters="sRGB">
<feFlood flood-opacity="0" result="BackgroundImageFix"/>
<feColorMatrix in="SourceAlpha" type="matrix" values="0 0 0 0 0 0 0 0 0 0 0 0 0 0 0 0 0 0 127 0" result="hardAlpha"/>
<feOffset dy="3"/>
<feGaussianBlur stdDeviation="58"/>
<feComposite in2="hardAlpha" operator="out"/>
<feColorMatrix type="matrix" values="0 0 0 0 0.950608 0 0 0 0 0.976311 0 0 0 0 0.979167 0 0 0 1 0"/>
<feBlend mode="normal" in2="BackgroundImageFix" result="effect1_dropShadow_20_1832"/>
<feBlend mode="normal" in="SourceGraphic" in2="effect1_dropShadow_20_1832" result="shape"/>
</filter>
<filter id="filter26_d_20_1832" x="386.896" y="434.165" width="110.772" height="90.281" filterUnits="userSpaceOnUse" color-interpolation-filters="sRGB">
<feFlood flood-opacity="0" result="BackgroundImageFix"/>
<feColorMatrix in="SourceAlpha" type="matrix" values="0 0 0 0 0 0 0 0 0 0 0 0 0 0 0 0 0 0 127 0" result="hardAlpha"/>
<feOffset dy="4"/>
<feGaussianBlur stdDeviation="2"/>
<feComposite in2="hardAlpha" operator="out"/>
<feColorMatrix type="matrix" values="0 0 0 0 0 0 0 0 0 0 0 0 0 0 0 0 0 0 0.25 0"/>
<feBlend mode="normal" in2="BackgroundImageFix" result="effect1_dropShadow_20_1832"/>
<feBlend mode="normal" in="SourceGraphic" in2="effect1_dropShadow_20_1832" result="shape"/>
</filter>
<filter id="filter27_d_20_1832" x="556.838" y="565.66" width="19.0664" height="22.4617" filterUnits="userSpaceOnUse" color-interpolation-filters="sRGB">
<feFlood flood-opacity="0" result="BackgroundImageFix"/>
<feColorMatrix in="SourceAlpha" type="matrix" values="0 0 0 0 0 0 0 0 0 0 0 0 0 0 0 0 0 0 127 0" result="hardAlpha"/>
<feOffset dy="4"/>
<feGaussianBlur stdDeviation="2"/>
<feComposite in2="hardAlpha" operator="out"/>
<feColorMatrix type="matrix" values="0 0 0 0 0 0 0 0 0 0 0 0 0 0 0 0 0 0 0.25 0"/>
<feBlend mode="normal" in2="BackgroundImageFix" result="effect1_dropShadow_20_1832"/>
<feBlend mode="normal" in="SourceGraphic" in2="effect1_dropShadow_20_1832" result="shape"/>
</filter>
<filter id="filter28_d_20_1832" x="368.51" y="507.489" width="67.6025" height="52.6233" filterUnits="userSpaceOnUse" color-interpolation-filters="sRGB">
<feFlood flood-opacity="0" result="BackgroundImageFix"/>
<feColorMatrix in="SourceAlpha" type="matrix" values="0 0 0 0 0 0 0 0 0 0 0 0 0 0 0 0 0 0 127 0" result="hardAlpha"/>
<feOffset/>
<feGaussianBlur stdDeviation="7.5"/>
<feComposite in2="hardAlpha" operator="out"/>
<feColorMatrix type="matrix" values="0 0 0 0 1 0 0 0 0 0.283333 0 0 0 0 0.283333 0 0 0 0.5 0"/>
<feBlend mode="normal" in2="BackgroundImageFix" result="effect1_dropShadow_20_1832"/>
<feBlend mode="normal" in="SourceGraphic" in2="effect1_dropShadow_20_1832" result="shape"/>
</filter>
<filter id="filter29_d_20_1832" x="387.427" y="516.573" width="65.6621" height="52.5586" filterUnits="userSpaceOnUse" color-interpolation-filters="sRGB">
<feFlood flood-opacity="0" result="BackgroundImageFix"/>
<feColorMatrix in="SourceAlpha" type="matrix" values="0 0 0 0 0 0 0 0 0 0 0 0 0 0 0 0 0 0 127 0" result="hardAlpha"/>
<feOffset/>
<feGaussianBlur stdDeviation="7.5"/>
<feComposite in2="hardAlpha" operator="out"/>
<feColorMatrix type="matrix" values="0 0 0 0 1 0 0 0 0 0.283333 0 0 0 0 0.283333 0 0 0 0.5 0"/>
<feBlend mode="normal" in2="BackgroundImageFix" result="effect1_dropShadow_20_1832"/>
<feBlend mode="normal" in="SourceGraphic" in2="effect1_dropShadow_20_1832" result="shape"/>
</filter>
<filter id="filter30_d_20_1832" x="413.116" y="522.953" width="60.71" height="53.5132" filterUnits="userSpaceOnUse" color-interpolation-filters="sRGB">
<feFlood flood-opacity="0" result="BackgroundImageFix"/>
<feColorMatrix in="SourceAlpha" type="matrix" values="0 0 0 0 0 0 0 0 0 0 0 0 0 0 0 0 0 0 127 0" result="hardAlpha"/>
<feOffset/>
<feGaussianBlur stdDeviation="7.5"/>
<feComposite in2="hardAlpha" operator="out"/>
<feColorMatrix type="matrix" values="0 0 0 0 1 0 0 0 0 0.283333 0 0 0 0 0.283333 0 0 0 0.5 0"/>
<feBlend mode="normal" in2="BackgroundImageFix" result="effect1_dropShadow_20_1832"/>
<feBlend mode="normal" in="SourceGraphic" in2="effect1_dropShadow_20_1832" result="shape"/>
</filter>
<filter id="filter31_d_20_1832" x="436.991" y="386.622" width="64.1523" height="49.2524" filterUnits="userSpaceOnUse" color-interpolation-filters="sRGB">
<feFlood flood-opacity="0" result="BackgroundImageFix"/>
<feColorMatrix in="SourceAlpha" type="matrix" values="0 0 0 0 0 0 0 0 0 0 0 0 0 0 0 0 0 0 127 0" result="hardAlpha"/>
<feOffset dy="4"/>
<feGaussianBlur stdDeviation="2"/>
<feComposite in2="hardAlpha" operator="out"/>
<feColorMatrix type="matrix" values="0 0 0 0 0 0 0 0 0 0 0 0 0 0 0 0 0 0 0.25 0"/>
<feBlend mode="normal" in2="BackgroundImageFix" result="effect1_dropShadow_20_1832"/>
<feBlend mode="normal" in="SourceGraphic" in2="effect1_dropShadow_20_1832" result="shape"/>
</filter>
<filter id="filter32_d_20_1832" x="81.9792" y="786" width="273.417" height="349.812" filterUnits="userSpaceOnUse" color-interpolation-filters="sRGB">
<feFlood flood-opacity="0" result="BackgroundImageFix"/>
<feColorMatrix in="SourceAlpha" type="matrix" values="0 0 0 0 0 0 0 0 0 0 0 0 0 0 0 0 0 0 127 0" result="hardAlpha"/>
<feOffset dy="4.02083"/>
<feGaussianBlur stdDeviation="2.01042"/>
<feComposite in2="hardAlpha" operator="out"/>
<feColorMatrix type="matrix" values="0 0 0 0 0 0 0 0 0 0 0 0 0 0 0 0 0 0 0.25 0"/>
<feBlend mode="normal" in2="BackgroundImageFix" result="effect1_dropShadow_20_1832"/>
<feBlend mode="normal" in="SourceGraphic" in2="effect1_dropShadow_20_1832" result="shape"/>
</filter>
<filter id="filter33_d_20_1832" x="1022.98" y="32.4048" width="252.892" height="341.659" filterUnits="userSpaceOnUse" color-interpolation-filters="sRGB">
<feFlood flood-opacity="0" result="BackgroundImageFix"/>
<feColorMatrix in="SourceAlpha" type="matrix" values="0 0 0 0 0 0 0 0 0 0 0 0 0 0 0 0 0 0 127 0" result="hardAlpha"/>
<feOffset dy="4.02083"/>
<feGaussianBlur stdDeviation="2.01042"/>
<feComposite in2="hardAlpha" operator="out"/>
<feColorMatrix type="matrix" values="0 0 0 0 0 0 0 0 0 0 0 0 0 0 0 0 0 0 0.25 0"/>
<feBlend mode="normal" in2="BackgroundImageFix" result="effect1_dropShadow_20_1832"/>
<feBlend mode="normal" in="SourceGraphic" in2="effect1_dropShadow_20_1832" result="shape"/>
</filter>
<filter id="filter34_d_20_1832" x="29.3014" y="-51.6768" width="99.4176" height="104.171" filterUnits="userSpaceOnUse" color-interpolation-filters="sRGB">
<feFlood flood-opacity="0" result="BackgroundImageFix"/>
<feColorMatrix in="SourceAlpha" type="matrix" values="0 0 0 0 0 0 0 0 0 0 0 0 0 0 0 0 0 0 127 0" result="hardAlpha"/>
<feOffset dy="4.02083"/>
<feGaussianBlur stdDeviation="2.01042"/>
<feComposite in2="hardAlpha" operator="out"/>
<feColorMatrix type="matrix" values="0 0 0 0 0 0 0 0 0 0 0 0 0 0 0 0 0 0 0.25 0"/>
<feBlend mode="normal" in2="BackgroundImageFix" result="effect1_dropShadow_20_1832"/>
<feBlend mode="normal" in="SourceGraphic" in2="effect1_dropShadow_20_1832" result="shape"/>
</filter>
<linearGradient id="paint0_linear_20_1832" x1="716.942" y1="-2.99219" x2="716.942" y2="1147.97" gradientUnits="userSpaceOnUse">
<stop stop-color="#76736E"/>
<stop offset="1" stop-color="#9A9890"/>
</linearGradient>
<linearGradient id="paint1_linear_20_1832" x1="951" y1="829.5" x2="986" y2="865" gradientUnits="userSpaceOnUse">
<stop offset="0.353111" stop-color="#C2C1B7"/>
<stop offset="1" stop-color="#C2C1B7" stop-opacity="0"/>
</linearGradient>
<linearGradient id="paint2_linear_20_1832" x1="1310.95" y1="579.5" x2="1361.45" y2="582.5" gradientUnits="userSpaceOnUse">
<stop stop-color="#BCB9B0"/>
<stop offset="1" stop-color="#D9D9D9" stop-opacity="0"/>
</linearGradient>
<linearGradient id="paint3_linear_20_1832" x1="721" y1="1075.5" x2="721" y2="1236.5" gradientUnits="userSpaceOnUse">
<stop stop-color="#76736E"/>
<stop offset="1" stop-color="#B9B8B1"/>
</linearGradient>
<linearGradient id="paint4_linear_20_1832" x1="714.235" y1="1054.81" x2="846.308" y2="1074.91" gradientUnits="userSpaceOnUse">
<stop stop-color="#6B6465"/>
<stop offset="1" stop-color="#B6B5AE"/>
</linearGradient>
<linearGradient id="paint5_linear_20_1832" x1="827.742" y1="1049.63" x2="937.046" y2="1047.19" gradientUnits="userSpaceOnUse">
<stop stop-color="#6B6465"/>
<stop offset="1" stop-color="#B4B2AC"/>
</linearGradient>
<linearGradient id="paint6_linear_20_1832" x1="620.287" y1="1075.97" x2="712.871" y2="1105.24" gradientUnits="userSpaceOnUse">
<stop stop-color="#6B6465"/>
<stop offset="1" stop-color="#B8B6B0"/>
</linearGradient>
<linearGradient id="paint7_linear_20_1832" x1="671.588" y1="1051.92" x2="658.215" y2="1094.39" gradientUnits="userSpaceOnUse">
<stop stop-color="#AE806B"/>
<stop offset="1" stop-color="#B29278"/>
</linearGradient>
<linearGradient id="paint8_linear_20_1832" x1="610.641" y1="1044.8" x2="604.362" y2="1088.74" gradientUnits="userSpaceOnUse">
<stop stop-color="#B0826D"/>
<stop offset="1" stop-color="#B29278"/>
</linearGradient>
<linearGradient id="paint9_linear_20_1832" x1="598.608" y1="1017.77" x2="607.739" y2="990.116" gradientUnits="userSpaceOnUse">
<stop stop-color="#AD806B"/>
<stop offset="0.674683" stop-color="#C99A81"/>
</linearGradient>
<linearGradient id="paint10_linear_20_1832" x1="678.623" y1="1019.38" x2="683.408" y2="1006.38" gradientUnits="userSpaceOnUse">
<stop stop-color="#B0826D"/>
<stop offset="0.901042" stop-color="#C89980"/>
</linearGradient>
<linearGradient id="paint11_linear_20_1832" x1="645.283" y1="947.214" x2="633.793" y2="1079.27" gradientUnits="userSpaceOnUse">
<stop stop-color="#AD806B"/>
<stop offset="1" stop-color="#C99A81"/>
</linearGradient>
<linearGradient id="paint12_linear_20_1832" x1="636.781" y1="956.695" x2="637.202" y2="977.694" gradientUnits="userSpaceOnUse">
<stop stop-color="#8F9D2F"/>
<stop offset="0.932292" stop-color="#697421"/>
<stop offset="1" stop-color="#57601B"/>
</linearGradient>
<linearGradient id="paint13_linear_20_1832" x1="812.392" y1="942.847" x2="800.341" y2="930.049" gradientUnits="userSpaceOnUse">
<stop stop-color="#776969"/>
<stop offset="1" stop-color="#625858"/>
</linearGradient>
<linearGradient id="paint14_linear_20_1832" x1="808.715" y1="938.695" x2="808.715" y2="997.379" gradientUnits="userSpaceOnUse">
<stop offset="0.286458" stop-color="#C59F81"/>
<stop offset="0.734375" stop-color="#BD9678"/>
<stop offset="1" stop-color="#9C7352"/>
</linearGradient>
<linearGradient id="paint15_linear_20_1832" x1="835.898" y1="929.569" x2="835.898" y2="1022.1" gradientUnits="userSpaceOnUse">
<stop offset="0.796875" stop-color="#485199"/>
<stop offset="1" stop-color="#353D7C"/>
</linearGradient>
<linearGradient id="paint16_linear_20_1832" x1="865.449" y1="929.569" x2="865.449" y2="1022.1" gradientUnits="userSpaceOnUse">
<stop offset="0.796875" stop-color="#485199"/>
<stop offset="1" stop-color="#353D7C"/>
</linearGradient>
<linearGradient id="paint17_linear_20_1832" x1="848.478" y1="858.775" x2="848.478" y2="942.61" gradientUnits="userSpaceOnUse">
<stop offset="0.786458" stop-color="#C49E80"/>
<stop offset="0.96875" stop-color="#B6957B"/>
<stop offset="1" stop-color="#A78B75"/>
</linearGradient>
<linearGradient id="paint18_linear_20_1832" x1="892.383" y1="851.323" x2="892.383" y2="883.72" gradientUnits="userSpaceOnUse">
<stop stop-color="#C49E80"/>
<stop offset="1" stop-color="#AC8C73"/>
</linearGradient>
<linearGradient id="paint19_linear_20_1832" x1="802.96" y1="851.323" x2="802.96" y2="883.72" gradientUnits="userSpaceOnUse">
<stop stop-color="#C49E80"/>
<stop offset="1" stop-color="#AC8C73"/>
</linearGradient>
<linearGradient id="paint20_linear_20_1832" x1="719.254" y1="1020.8" x2="727.21" y2="1072.72" gradientUnits="userSpaceOnUse">
<stop stop-color="#A68770"/>
<stop offset="0.0001" stop-color="#B49379"/>
<stop offset="0.0002" stop-color="#BF9A7E"/>
<stop offset="0.661458" stop-color="#C39D80"/>
<stop offset="0.9999" stop-color="#9F8168"/>
</linearGradient>
<linearGradient id="paint21_linear_20_1832" x1="766.773" y1="1017" x2="758.222" y2="1068.91" gradientUnits="userSpaceOnUse">
<stop offset="0.536458" stop-color="#C59E80"/>
<stop offset="1" stop-color="#8B7462"/>
</linearGradient>
<linearGradient id="paint22_linear_20_1832" x1="728.634" y1="1020.28" x2="770.88" y2="939.714" gradientUnits="userSpaceOnUse">
<stop stop-color="#C59E80"/>
<stop offset="1" stop-color="#B29278"/>
</linearGradient>
<linearGradient id="paint23_linear_20_1832" x1="771.643" y1="923.958" x2="764.704" y2="1014.66" gradientUnits="userSpaceOnUse">
<stop stop-color="#C59E80"/>
<stop offset="1" stop-color="#B29278"/>
</linearGradient>
<linearGradient id="paint24_linear_20_1832" x1="72.645" y1="0" x2="72.645" y2="51.8228" gradientUnits="userSpaceOnUse">
<stop stop-color="#FFD80B"/>
<stop offset="1" stop-color="#FAE161"/>
</linearGradient>
<linearGradient id="paint25_linear_20_1832" x1="771.87" y1="825.699" x2="756.035" y2="863.694" gradientUnits="userSpaceOnUse">
<stop stop-color="#FFD80B"/>
<stop offset="1" stop-color="#E7CE4F"/>
</linearGradient>
<linearGradient id="paint26_linear_20_1832" x1="732.732" y1="980.167" x2="664.769" y2="919.696" gradientUnits="userSpaceOnUse">
<stop offset="0.713542" stop-color="#C59E80"/>
<stop offset="0.875" stop-color="#C09C7F"/>
</linearGradient>
<linearGradient id="paint27_linear_20_1832" x1="213.529" y1="307.662" x2="153.799" y2="1068.94" gradientUnits="userSpaceOnUse">
<stop offset="0.453125" stop-color="#E0939E"/>
<stop offset="1" stop-color="#FFE4E8"/>
</linearGradient>
<linearGradient id="paint28_linear_20_1832" x1="1267.72" y1="256.81" x2="1072.5" y2="59.2022" gradientUnits="userSpaceOnUse">
<stop stop-color="#6F696A"/>
<stop offset="1" stop-color="#6A6162"/>
</linearGradient>
<linearGradient id="paint29_linear_20_1832" x1="851" y1="52.4998" x2="920" y2="113" gradientUnits="userSpaceOnUse">
<stop stop-color="#706A6A"/>
<stop offset="1" stop-color="#6A6162"/>
</linearGradient>
<linearGradient id="paint30_linear_20_1832" x1="175.402" y1="145.938" x2="94.6753" y2="198.291" gradientUnits="userSpaceOnUse">
<stop stop-color="#706A6A"/>
<stop offset="0.797524" stop-color="#716769"/>
</linearGradient>
<linearGradient id="paint31_linear_20_1832" x1="851" y1="52.4998" x2="920" y2="113" gradientUnits="userSpaceOnUse">
<stop stop-color="#706A6A"/>
<stop offset="1" stop-color="#6A6162"/>
</linearGradient>
<clipPath id="clip0_20_1832">
<rect width="1440" height="1145" fill="white"/>
</clipPath>
</defs>
</svg>
