<svg width="1440" height="1375" viewBox="0 0 1440 1375" fill="none" xmlns="http://www.w3.org/2000/svg">
<g clip-path="url(#clip0_37_2347)">
<g filter="url(#filter0_d_37_2347)">
<path d="M-6.80664 406.424C13.5805 369.251 27.2727 350.245 58.1869 321.621C117.715 290.374 179.411 259.481 191.825 258.019C204.24 256.557 224.993 218.471 249.516 209.038C293.862 195.44 314.894 188.198 336.418 176.871C357.001 166.04 355.99 204.4 369.001 206C369.001 206 379.503 176.871 387.536 189.299C395.569 201.728 402.154 156.408 412.365 133.008H-6.80664V406.424Z" fill="#918889"/>
<path d="M412.365 133.008C402.154 156.408 395.569 201.728 387.536 189.299C379.503 176.871 369.001 206 369.001 206C355.99 204.4 357.001 166.04 336.418 176.871C314.894 188.198 293.862 195.44 249.516 209.038C224.993 218.471 204.24 256.557 191.825 258.019C179.411 259.481 117.715 290.374 58.1869 321.621C27.2727 350.245 13.5805 369.251 -6.80664 406.424V133.008M412.365 133.008C248.668 133.008 156.89 133.008 -6.80664 133.008M412.365 133.008H-6.80664" stroke="#918889" stroke-width="3.01562"/>
</g>
<path d="M1271.32 1221.72L1440.69 1236.73C1440.69 1236.73 1429.64 1133.92 1422.01 1111.65C1414.38 1089.39 1373.44 1054.23 1352.27 1046.62C1331.1 1039 1307.44 996.588 1292.49 971.574C1277.55 946.56 1271.32 1074.13 1253.88 1091.64C1236.45 1109.15 1222.75 1091.64 1209.05 1111.65C1195.35 1131.67 1194.11 1149.18 1185.39 1149.18C1176.67 1149.18 1163.65 1156.25 1159.23 1169.19L1195.35 1191.7L1228.98 1221.72H1271.32Z" fill="#6B6465"/>
<path d="M1008.9 1049.88C1066.44 995.4 1096.55 1031.06 1152.28 1032.16C1165.51 1003.88 1179.71 996.772 1220.38 1003.89C1253.83 980.702 1270.86 993.415 1301.94 1005.65C1332.4 1004.27 1334.53 1014.03 1331.79 1036.04C1380.67 1029.81 1374.31 1042.27 1377.08 1057.84C1416.21 1075.71 1405.26 1089.19 1412.93 1110.37C1425.31 1123.19 1429.12 1130.68 1395.73 1147.78C1404.74 1171.33 1399.76 1181.58 1364.27 1192.01C1364.62 1215.6 1361.61 1227.03 1316.27 1224.89C1302.16 1240.76 1293.9 1237.07 1279.17 1230.03C1263.89 1234.55 1256.31 1233.95 1247.4 1218.34C1239.12 1236.34 1225.88 1235.56 1197.61 1228.27C1173.66 1233.46 1165.38 1229.37 1159.89 1209.31C1143.69 1222.2 1134.43 1224.52 1117.43 1215.53C1080.98 1211.91 1064.74 1205.99 1058.45 1174.4C1048.94 1187.17 1042.62 1193.08 1016.29 1184.5C998.691 1185.66 989.864 1194.28 969.267 1172.47C952.296 1173.91 947.465 1175.57 945.345 1167.79C947.546 1175.87 942.262 1182.02 924.179 1194.4C905.624 1204.08 896.088 1201.87 879.586 1193.44C891.281 1214.72 881.611 1217.13 863.737 1221.06C842.32 1231.34 831.647 1241.74 802.627 1225.69C769.972 1235.38 753.907 1236.93 737.581 1218.33C722.866 1238.84 714.719 1240.94 700.354 1229.43C674.081 1227.64 673.844 1221.89 675.204 1211.04C654.662 1218.54 643.536 1221.21 630.874 1197.88C589.147 1203.84 574.296 1198.15 565.135 1169.69C537.224 1174.04 524.976 1173.08 511.905 1162.59C483.154 1174.67 466.323 1178.65 432.772 1171.89C414.043 1198.3 399.455 1207.19 351.884 1191.85C335.544 1215.19 319.772 1225.22 260.713 1228.85C226.864 1262.08 207.051 1257.74 175.204 1247.73C169.461 1251.15 165.931 1251.43 168.455 1245.6C170.767 1246.33 173.014 1247.05 175.204 1247.73C190.321 1238.74 220.773 1207.95 196.5 1209.31C178.612 1213 167.751 1223.6 166.85 1212.6C163.725 1220.35 155.619 1221.44 138.001 1218.33C98.2027 1199.09 155.131 1200.56 148 1174.4L168.455 1116.5L138 1116.5L148 1095.92C163.142 1086.2 125.567 1075.62 148 1077.62C174.591 1080.63 174.511 1032.85 171.33 1024.65C170.536 1026.35 169.593 1027.82 168.455 1029C169.313 1023.16 170.442 1022.36 171.33 1024.65C179.298 1007.61 172.274 967.941 196.501 980.836C244.532 970.139 260.515 987.516 284.581 1006.57C314.106 1002.5 327.203 1005.96 340.139 1029.49C366.816 1014.25 384.472 1016.92 413.912 1029C456.27 1021.4 478.709 1027.75 507.275 1067.01C513.453 1056.66 520.05 1059.95 529.438 1057.05C539.065 1054.08 549.703 1056.68 569.385 1061.21C583.503 1048.68 593.775 1041.08 633.56 1073.6C668.414 1060.01 675.835 1072.87 688.996 1095.69L689.13 1095.92C705.737 1065.8 715.483 1066.88 733.036 1075.75C727.006 1058.22 739.062 1059.29 765.308 1064.55C794.506 1055.69 807.076 1057.34 819.554 1077.62C825.79 1058.62 839.155 1055.5 871.114 1056.13C877.808 1036.58 907.429 1042.76 933.537 1061.34C963.994 1036.49 980.021 1043.41 1008.9 1049.88Z" fill="#005158"/>
<g filter="url(#filter1_d_37_2347)">
<path d="M811.057 126C832.422 171.666 852.045 188.686 892.133 213.333C935.229 227.762 958.077 243.475 999.284 268.86C1028.26 321.793 1037.74 335.226 1041.96 328.699L1062.34 310.37C1083.64 298.152 1095.57 303.335 1116.87 310.37C1135.87 368.431 1153.63 404.475 1179.45 413.876C1193.96 398.533 1199.49 394.293 1204.11 395.547C1233.9 443.355 1291.64 471.444 1304.28 520.786C1326.41 653.8 1336.29 728.382 1318.5 861.492C1284.12 953.304 1213.98 993.044 1157.17 1039.76C1142.58 1039.66 1131.09 988.549 1116.87 979.923C1102.64 971.298 1089.37 1039.76 1074.2 1026.29C1059.02 1012.81 1051.91 996.096 1051.91 996.096C1051.91 996.096 1027.73 914.154 1013.51 910.919C999.284 907.685 1009.24 927.631 999.284 945.421C999.284 945.421 939.077 1034.31 892.133 1062.94L845.668 1086.12C829.904 1096.09 814.85 1137.11 774.55 1141.11C734.249 1145.11 734.477 1143.84 713.862 1152.97C682.852 1169.8 662.476 1177.92 624.727 1191.79C582.107 1192.93 545.074 1141.11 521.368 1141.11C497.662 1141.11 486.748 1151.15 454.99 1152.97C390.692 1126.45 361.179 1073.18 317.02 1074.26C272.861 1075.35 163.046 1086.28 161.033 1086.12C159.02 1085.97 299 1126.5 185 1177C71 1227.5 -6.80664 1205.94 -6.80664 1227.5V1276.96H1440.69V126H811.057Z" fill="url(#paint0_linear_37_2347)"/>
</g>
<path d="M1009.4 953.384C1020.2 932.984 1016.23 917.884 1012.9 912.884C1004.9 906.384 1005.73 918.147 1003.4 928.384C997.001 956.492 987.043 959.551 973.5 979.992C947 1019.99 896.001 1060.99 905.001 1057.49C914.001 1053.99 995.902 978.884 1009.4 953.384Z" fill="url(#paint1_linear_37_2347)"/>
<path d="M1307.46 543.492C1302.17 506.994 1281 482.992 1246 443.492C1250 445.992 1288.96 450.392 1312.96 481.992C1342.96 521.492 1368.96 637.492 1359.96 788.992C1350.96 940.492 1214.56 992.023 1226.5 984.492C1235.91 978.559 1292.46 923.691 1312.96 872.492C1333.45 821.293 1323.96 689.492 1323.96 675.492C1323.96 661.492 1312.96 581.492 1307.46 543.492Z" fill="url(#paint2_linear_37_2347)"/>
<path d="M426.464 1218.39C413.496 1223.08 323.215 1203.65 323.215 1203.65L0 1213.7V1373H722.745H1441V1177.53H1131.75C1104.82 1177.53 1025.67 1180.88 989.254 1172.84C952.842 1164.8 848.439 1170.83 825.994 1177.53C803.548 1184.23 735.214 1177.53 722.745 1177.53C710.275 1177.53 701.297 1196.29 686.832 1198.3C672.367 1200.31 596.551 1211.02 578.096 1213.7C559.641 1216.38 474.847 1203.65 463.374 1203.65C451.902 1203.65 439.433 1213.7 426.464 1218.39Z" fill="url(#paint3_linear_37_2347)"/>
<g filter="url(#filter2_d_37_2347)">
<path d="M173.589 350.026C158.794 401.664 214.262 412.726 214.262 412.726C214.262 412.726 229.306 416.673 223.832 407.501C218.357 398.33 223.051 349.914 173.589 350.026Z" fill="#47BE6C"/>
<path d="M173.589 350.026C158.794 401.664 214.262 412.726 214.262 412.726C214.262 412.726 229.306 416.673 223.832 407.501C218.357 398.33 223.051 349.914 173.589 350.026Z" stroke="#6CB236" stroke-width="2.01042"/>
</g>
<g filter="url(#filter3_d_37_2347)">
<path d="M206.558 256.653C191.762 308.291 247.23 319.354 247.23 319.354C247.23 319.354 262.275 323.3 256.8 314.129C251.326 304.958 256.019 256.541 206.558 256.653Z" fill="#47BE6C"/>
<path d="M206.558 256.653C191.762 308.291 247.23 319.354 247.23 319.354C247.23 319.354 262.275 323.3 256.8 314.129C251.326 304.958 256.019 256.541 206.558 256.653Z" stroke="#6CB236" stroke-width="2.01042"/>
</g>
<g filter="url(#filter4_d_37_2347)">
<path d="M70.1831 460.257C55.3873 511.895 110.855 522.958 110.855 522.958C110.855 522.958 125.9 526.904 120.425 517.733C114.951 508.562 119.644 460.145 70.1831 460.257Z" fill="#47BE6C"/>
<path d="M70.1831 460.257C55.3873 511.895 110.855 522.958 110.855 522.958C110.855 522.958 125.9 526.904 120.425 517.733C114.951 508.562 119.644 460.145 70.1831 460.257Z" stroke="#6CB236" stroke-width="2.01042"/>
</g>
<g filter="url(#filter5_d_37_2347)">
<path d="M222.172 177.546C239.022 229.184 175.85 240.246 175.85 240.246C175.85 240.246 158.716 244.193 164.951 235.021C171.186 225.85 165.841 177.434 222.172 177.546Z" fill="#47BE6C"/>
<path d="M222.172 177.546C239.022 229.184 175.85 240.246 175.85 240.246C175.85 240.246 158.716 244.193 164.951 235.021C171.186 225.85 165.841 177.434 222.172 177.546Z" stroke="#6CB236" stroke-width="2.01042"/>
</g>
<g filter="url(#filter6_d_37_2347)">
<path d="M180.211 303.34C197.061 354.978 133.889 366.04 133.889 366.04C133.889 366.04 116.756 369.987 122.99 360.815C129.225 351.644 123.88 303.228 180.211 303.34Z" fill="#47BE6C"/>
<path d="M180.211 303.34C197.061 354.978 133.889 366.04 133.889 366.04C133.889 366.04 116.756 369.987 122.99 360.815C129.225 351.644 123.88 303.228 180.211 303.34Z" stroke="#6CB236" stroke-width="2.01042"/>
</g>
<path d="M-1 364.935C32.6193 521.395 165.387 517.89 237.426 114" stroke="#6CB236" stroke-width="10.0521" stroke-linecap="round"/>
<g filter="url(#filter7_d_37_2347)">
<path d="M1252.26 118.208C1259.79 148.842 1231.56 155.405 1231.56 155.405C1231.56 155.405 1223.9 157.746 1226.69 152.305C1229.47 146.865 1227.09 118.142 1252.26 118.208Z" fill="#27844C"/>
</g>
<g filter="url(#filter8_d_37_2347)">
<path d="M1358.67 210.267C1366.2 240.901 1337.98 247.464 1337.98 247.464C1337.98 247.464 1330.32 249.805 1333.1 244.364C1335.89 238.923 1333.5 210.2 1358.67 210.267Z" fill="#27844C"/>
</g>
<g filter="url(#filter9_d_37_2347)">
<path d="M1219.72 71.6445C1245.5 55.9135 1258.8 83.2605 1258.8 83.2605C1258.8 83.2605 1262.91 90.5316 1257.26 89.0812C1251.61 87.6308 1226.22 97.5718 1219.72 71.6445Z" fill="#002F4D"/>
<path d="M1219.72 71.6445C1245.5 55.9135 1258.8 83.2605 1258.8 83.2605C1258.8 83.2605 1262.91 90.5316 1257.26 89.0812C1251.61 87.6308 1226.22 97.5718 1219.72 71.6445Z" stroke="#A0E792" stroke-width="2.01042"/>
</g>
<g filter="url(#filter10_d_37_2347)">
<path d="M1295.75 164.427C1305.62 194.632 1278.92 205.537 1278.92 205.537C1278.92 205.537 1271.72 209.068 1273.95 203.091C1276.18 197.114 1271.44 168.1 1295.75 164.427Z" fill="#27844C"/>
</g>
<g filter="url(#filter11_d_37_2347)">
<path d="M1204.22 51.4332C1211.75 82.0674 1183.52 88.6301 1183.52 88.6301C1183.52 88.6301 1175.86 90.9712 1178.65 85.5304C1181.44 80.0896 1179.05 51.367 1204.22 51.4332Z" fill="#002F4D"/>
<path d="M1204.22 51.4332C1211.75 82.0674 1183.52 88.6301 1183.52 88.6301C1183.52 88.6301 1175.86 90.9712 1178.65 85.5304C1181.44 80.0896 1179.05 51.367 1204.22 51.4332Z" stroke="#A0E792" stroke-width="2.01042"/>
</g>
<g filter="url(#filter12_d_37_2347)">
<path d="M1413 241.385C1404.42 272.02 1436.57 278.582 1436.57 278.582C1436.57 278.582 1445.29 280.923 1442.12 275.483C1438.95 270.042 1441.67 241.319 1413 241.385Z" fill="#27844C"/>
</g>
<g filter="url(#filter13_d_37_2347)">
<path d="M1374.18 218.189C1391.66 244.696 1417.52 224.348 1417.52 224.348C1417.52 224.348 1424.96 219.194 1418.8 218.082C1412.64 216.971 1392.79 196.192 1374.18 218.189Z" fill="#27844C"/>
</g>
<g filter="url(#filter14_d_37_2347)">
<path d="M1175.06 -6.10946C1182.09 24.9221 1213.42 15.1347 1213.42 15.1347C1213.42 15.1347 1222.19 12.9725 1216.82 9.73204C1211.45 6.49163 1200.19 -20.0309 1175.06 -6.10946Z" fill="#002F4D"/>
<path d="M1175.06 -6.10946C1182.09 24.9221 1213.42 15.1347 1213.42 15.1347C1213.42 15.1347 1222.19 12.9725 1216.82 9.73204C1211.45 6.49163 1200.19 -20.0309 1175.06 -6.10946Z" stroke="#A0E792" stroke-width="2.01042"/>
</g>
<g filter="url(#filter15_d_37_2347)">
<path d="M1282 148.455C1292.43 178.498 1322.48 165.236 1322.48 165.236C1322.48 165.236 1330.95 162.098 1325.25 159.484C1319.56 156.87 1305.42 131.785 1282 148.455Z" fill="#27844C"/>
</g>
<path d="M1482.39 222.584C1465.28 315.403 1183.69 141.605 1147.03 -98" stroke="#27844C" stroke-width="10.0521" stroke-linecap="round"/>
<g filter="url(#filter16_d_37_2347)">
<path d="M1349.77 264.264C1363.23 314.423 1312.78 325.169 1312.78 325.169C1312.78 325.169 1299.1 329.002 1304.08 320.093C1309.05 311.185 1304.79 264.155 1349.77 264.264Z" fill="#47BE6C"/>
<path d="M1349.77 264.264C1363.23 314.423 1312.78 325.169 1312.78 325.169C1312.78 325.169 1299.1 329.002 1304.08 320.093C1309.05 311.185 1304.79 264.155 1349.77 264.264Z" stroke="#47BE6C" stroke-width="2.01042"/>
</g>
<g filter="url(#filter17_d_37_2347)">
<path d="M1319.79 173.566C1333.24 223.725 1282.8 234.471 1282.8 234.471C1282.8 234.471 1269.11 238.304 1274.09 229.395C1279.07 220.487 1274.8 173.458 1319.79 173.566Z" fill="#47BE6C"/>
<path d="M1319.79 173.566C1333.24 223.725 1282.8 234.471 1282.8 234.471C1282.8 234.471 1269.11 238.304 1274.09 229.395C1279.07 220.487 1274.8 173.458 1319.79 173.566Z" stroke="#47BE6C" stroke-width="2.01042"/>
</g>
<g filter="url(#filter18_d_37_2347)">
<path d="M1443.82 371.338C1457.27 421.497 1406.83 432.243 1406.83 432.243C1406.83 432.243 1393.14 436.076 1398.12 427.167C1403.1 418.259 1398.83 371.23 1443.82 371.338Z" fill="#47BE6C"/>
<path d="M1443.82 371.338C1457.27 421.497 1406.83 432.243 1406.83 432.243C1406.83 432.243 1393.14 436.076 1398.12 427.167C1403.1 418.259 1398.83 371.23 1443.82 371.338Z" stroke="#47BE6C" stroke-width="2.01042"/>
</g>
<g filter="url(#filter19_d_37_2347)">
<path d="M1305.59 96.7248C1290.26 146.884 1347.71 157.629 1347.71 157.629C1347.71 157.629 1363.3 161.463 1357.63 152.554C1351.96 143.646 1356.82 96.6163 1305.59 96.7248Z" fill="#47BE6C"/>
<path d="M1305.59 96.7248C1290.26 146.884 1347.71 157.629 1347.71 157.629C1347.71 157.629 1363.3 161.463 1357.63 152.554C1351.96 143.646 1356.82 96.6163 1305.59 96.7248Z" stroke="#47BE6C" stroke-width="2.01042"/>
</g>
<path d="M1508.56 278.747C1477.98 430.724 1357.23 427.32 1291.71 35" stroke="#6CB236" stroke-width="10.0521" stroke-linecap="round"/>
<g filter="url(#filter20_d_37_2347)">
<path d="M1343.75 218.915C1328.42 269.074 1385.88 279.82 1385.88 279.82C1385.88 279.82 1401.46 283.653 1395.79 274.745C1390.12 265.836 1394.98 218.807 1343.75 218.915Z" fill="#47BE6C"/>
<path d="M1343.75 218.915C1328.42 269.074 1385.88 279.82 1385.88 279.82C1385.88 279.82 1401.46 283.653 1395.79 274.745C1390.12 265.836 1394.98 218.807 1343.75 218.915Z" stroke="#47BE6C" stroke-width="2.01042"/>
</g>
<g filter="url(#filter21_d_37_2347)">
<path d="M1386.61 331.882C1417.84 375.283 1464.06 341.966 1464.06 341.966C1464.06 341.966 1477.35 333.528 1466.34 331.708C1455.34 329.887 1419.87 295.865 1386.61 331.882Z" fill="#47BE6C"/>
<path d="M1386.61 331.882C1417.84 375.283 1464.06 341.966 1464.06 341.966C1464.06 341.966 1477.35 333.528 1466.34 331.708C1455.34 329.887 1419.87 295.865 1386.61 331.882Z" stroke="#47BE6C" stroke-width="2.01042"/>
</g>
<path d="M1396.23 181.37C1442.39 166.851 1448.88 152.654 1437.21 120.058L1535 -163.5C1497.94 -217.808 222.57 -140.602 167.5 -130C129.257 -146.663 115.069 -216.645 80.3679 -195.5C63.5963 -228.046 21.3833 -144.194 -16.9989 -138.5C-48.2441 -164.841 -49.6463 -122.321 -112.096 -107.421C-146.698 -127.007 -160.648 -126.788 -176.99 -108.823C-171.825 -145.893 -179.649 -159.77 -223.849 -165.03C-253.003 -167.754 -267.365 -165.879 -287.064 -152.392L-337.785 -167.492L-376.231 -154.318L-385.029 252.86C-375.808 289.071 -368.653 306.07 -324.756 284.643C-291.562 290.827 -285.256 282.792 -276.287 266.331C-284.382 310.826 -263.483 301.409 -233.785 294.847C-190.248 292.18 -170.1 287.089 -158.148 257.762C-111.457 273.445 -85.2886 283.639 -38.202 234.404C38.5676 229.264 59.0859 215.343 80.367 183.007C142.171 204.152 161.148 191.815 185.54 155.211C229.136 164.517 251.02 158.973 288.412 142.193C305.382 156.686 321.301 157.997 357.586 151.926C369.442 191.318 388.733 199.167 442.981 190.842C459.395 223.126 473.861 219.403 500.575 208.974C498.787 224 499.085 231.969 533.231 234.394C551.88 250.304 562.474 247.391 581.638 218.964C602.824 244.683 623.707 242.511 666.169 229.028C703.859 251.196 717.75 236.789 745.607 222.506C768.846 217.033 781.419 213.679 766.258 184.234C787.69 195.87 800.082 198.915 824.217 185.486C847.743 168.303 854.623 159.781 851.776 148.599C854.517 159.367 860.8 157.054 882.86 155.037C909.593 185.192 921.082 173.246 943.958 171.598C978.16 183.432 986.392 175.247 998.778 157.542C1006.89 201.277 1027.99 209.441 1075.36 214.391C1097.44 226.796 1109.48 223.566 1130.56 205.698C1137.65 233.463 1148.42 239.116 1179.55 231.882C1216.28 241.916 1233.49 242.973 1244.28 218.041C1255.84 239.642 1265.68 240.459 1285.56 234.173C1304.7 243.892 1315.41 248.987 1333.79 226.977C1392.72 229.856 1396.65 214.032 1396.23 181.37Z" fill="#002F4D"/>
<g style="mix-blend-mode:multiply" opacity="0.5">
<path d="M839.588 1232.57C831.731 1237.94 802.59 1239.82 776.292 1228.76C758.041 1221.08 680.818 1208.73 710.441 1199.7C785.941 1176.7 859.711 1218.82 839.588 1232.57Z" fill="url(#paint4_linear_37_2347)"/>
</g>
<g style="mix-blend-mode:multiply" opacity="0.5">
<path d="M952.392 1219.03C941.185 1230.91 882.443 1218.02 854.473 1210.09C825.107 1203.4 810.607 1197.9 823.437 1192.51C848.763 1181.89 966.401 1204.18 952.392 1219.03Z" fill="url(#paint5_linear_37_2347)"/>
</g>
<g style="mix-blend-mode:multiply" opacity="0.5">
<path d="M704.499 1242C696.632 1246.95 657.275 1248.07 645.999 1245C621.5 1238.32 588.793 1228.37 613.963 1220.32C678.11 1199.81 724.652 1229.32 704.499 1242Z" fill="url(#paint6_linear_37_2347)"/>
</g>
<path d="M671.631 1208.28C667.377 1219.83 662.385 1229.68 653.038 1226.74C643.691 1223.8 649.185 1212.94 653.44 1201.39C657.694 1189.84 653.771 1182.13 670.442 1187.38C679.789 1190.32 675.886 1196.73 671.631 1208.28Z" fill="url(#paint7_linear_37_2347)"/>
<path d="M601.053 1198.98C599.438 1211.13 599.279 1222.08 609.01 1223.47C618.741 1224.86 618.925 1212.79 620.54 1200.64C622.156 1188.49 629.274 1183.3 611.917 1180.82C602.186 1179.42 602.669 1186.83 601.053 1198.98Z" fill="url(#paint8_linear_37_2347)"/>
<g filter="url(#filter22_d_37_2347)">
<path d="M612.807 1145.02C611.362 1148.6 609.775 1151.03 607.432 1154.19C605.185 1156.7 601.855 1157.34 598.399 1157.43C594.177 1157.54 591.111 1155.57 590.251 1151.91C589.658 1149.4 590.667 1145.71 591.946 1143.41C593.722 1140.2 594.771 1135.9 597.939 1133.51C599.391 1132.42 600.722 1131.04 602.712 1130.8C604.675 1130.56 606.207 1130.61 608.171 1130.82C611.858 1131.2 613.733 1133.33 614.189 1136.83C614.618 1140.12 614.028 1142 612.807 1145.02Z" fill="url(#paint9_linear_37_2347)"/>
<path d="M672.561 1146.71C671.038 1148.93 669.032 1149.95 667.983 1152.6C668.74 1160.08 679.016 1159.17 683.667 1157.31C685.513 1156.57 686.843 1154.66 688.396 1153.39C690.167 1151.95 691.664 1150.42 693.263 1148.79C695.282 1146.72 697.397 1142.95 696.952 1139.8C696.518 1136.72 696.628 1131.71 692.915 1130.77C689.287 1129.84 685.561 1131.14 682.76 1133.76C679.953 1136.4 678.197 1139.48 675.768 1142.41C674.616 1143.8 673.591 1145.22 672.561 1146.71Z" fill="url(#paint10_linear_37_2347)"/>
<path d="M618.51 1087.81C630.857 1080.9 639.714 1079.36 653.468 1087.9C663.345 1091.45 668.838 1105.3 670.27 1109.47C671.482 1113 673.195 1116.31 674.223 1119.95C675.647 1124.99 677.113 1129.92 678.19 1135.09C680.24 1144.92 682.148 1154.8 682.3 1165C682.412 1172.49 681.904 1179.99 681.021 1187.46C680.519 1191.7 679.375 1196.29 676.368 1199.14C673.245 1202.1 670.441 1204.43 666.804 1206.46C660.086 1210.22 652.896 1212.65 645.511 1213.55C638.651 1214.38 631.608 1215.08 624.769 1214.48C621.685 1214.21 618.647 1213.64 615.628 1213.02C612.954 1212.48 610.787 1211.02 608.26 1210.14C604.44 1208.82 601.617 1205.37 599.17 1202.01C596.551 1198.42 594.386 1194.91 593.27 1190.3C591.809 1184.26 590.87 1178.24 591.475 1171.86C591.809 1168.34 591.866 1164.75 592.203 1161.19C592.554 1157.5 593.18 1153.89 593.531 1150.19C594.309 1141.99 595.363 1133.28 597.725 1125.4C598.635 1122.37 599.079 1118.79 600.463 1115.97C601.077 1114.72 601.612 1112.95 602.013 1111.59C602.582 1109.66 603.614 1107.88 604.368 1106.03C606.003 1102.02 608.468 1098.32 610.963 1094.96C612.906 1092.34 615.771 1089.34 618.51 1087.81Z" fill="url(#paint11_linear_37_2347)"/>
<path d="M661.666 1098.36C666.478 1099.37 668.451 1095.65 670.368 1091.75C671.582 1087.97 668.789 1085.25 665.66 1084.34C661.961 1083.28 657.81 1086.07 657.09 1090.02C656.835 1091.42 656.366 1093.3 657.275 1094.52C658.267 1095.85 659.999 1098 661.666 1098.36Z" fill="#AE8873"/>
<path d="M609.963 1084.16C613.79 1084.6 618.677 1089.18 618.771 1093.27C618.771 1097.29 616.066 1100.56 611.868 1099.5C609.739 1098.96 607.723 1097.86 606.155 1096.24C604.95 1094.99 603.231 1093.31 603.073 1091.42C602.717 1087.18 605.945 1083.69 609.963 1084.16Z" fill="#AE8873"/>
<path d="M622.962 1145.39C626.21 1145.08 629.125 1148.91 631.333 1150.98C632.73 1153.3 633.857 1156.6 634.177 1159.31C634.375 1160.98 634.177 1162.68 634.369 1164.35C634.546 1165.88 634.736 1167.31 634.596 1168.84C634.426 1170.68 634.727 1172.54 634.624 1174.38C634.513 1176.37 634.455 1178.47 634.604 1180.47C634.892 1184.37 634.546 1188.14 634.49 1192.01C634.434 1195.82 634.049 1199.6 633.822 1203.38C633.618 1206.8 633.778 1210.99 631.72 1213.61C629.844 1216 625.453 1214.33 623.305 1213.03C619.758 1210.89 616.884 1207.69 613.953 1204.62C604.623 1194.87 596.511 1181.21 598.054 1166.87C598.459 1163.12 599.38 1159.21 601.932 1156.68C604.613 1154.02 607.072 1151.08 610.099 1148.88C612.567 1147.09 615.624 1146.08 618.618 1145.8L622.962 1145.39Z" fill="#543A3A"/>
</g>
<path d="M669.215 1098.4C669.181 1096.01 662.888 1081.99 661.241 1079.81C658.233 1078.18 652.549 1075.61 636.797 1075.47C621.045 1075.32 615.798 1079.97 612.838 1081.72C611.255 1083.97 604.912 1097.3 604.946 1099.69C604.946 1099.69 621.679 1095.81 636.837 1095.95C651.995 1096.09 669.215 1098.4 669.215 1098.4Z" fill="#8F9D2F"/>
<g filter="url(#filter23_d_37_2347)">
<path d="M678.816 1112.86C678.785 1110.73 670.694 1098.31 668.569 1096.39C664.672 1094.96 657.305 1092.72 636.85 1092.72C616.395 1092.72 609.554 1096.9 605.7 1098.48C603.631 1100.49 595.316 1112.4 595.346 1114.53C595.346 1114.53 617.166 1106.72 636.85 1106.72C656.534 1106.72 678.816 1112.86 678.816 1112.86Z" fill="url(#paint12_linear_37_2347)"/>
</g>
<path d="M837.783 1074.38C799.325 1073 785.643 1031.64 822.494 1040.71L837.783 1074.38Z" fill="#E1C7B3"/>
<path d="M806.556 1083.57C827.704 1096.19 841.139 1098.87 866.461 1099.86C866.821 1097.65 865.134 1093.35 863.316 1091.85C847.193 1078.52 834.082 1076.39 816.095 1067.84L806.556 1083.57Z" fill="#C49E80"/>
<path d="M794.689 1074.36C794.211 1075.66 802.677 1083.51 807.154 1083.52C814.046 1078.19 815.062 1074.5 816.194 1067.76C816.194 1067.76 802.693 1063.84 801.337 1065.11C799.981 1066.39 800.739 1068.38 801.831 1070.62C798.663 1071.48 795.168 1073.05 794.689 1074.36Z" fill="url(#paint13_linear_37_2347)"/>
<path d="M792.411 1129.65C797.575 1105.57 804.763 1093.91 821.287 1074.7C823.15 1075.94 825.151 1080.1 825.013 1082.46C823.791 1103.34 816.416 1114.39 810.419 1133.38L792.411 1129.65Z" fill="url(#paint14_linear_37_2347)"/>
<path d="M791.07 1144.61C789.79 1144.08 789.808 1132.53 792.854 1129.25C801.452 1127.83 804.844 1129.6 810.553 1133.37C810.553 1133.37 804.226 1145.92 802.367 1146.04C800.508 1146.17 799.571 1144.26 798.672 1141.93C795.888 1143.67 792.351 1145.15 791.07 1144.61Z" fill="#776969"/>
<path d="M873.317 1135.74H850.65C851.157 1153.3 851.137 1163.89 850.65 1183.97H870.522C874.703 1159.72 879.353 1142.08 873.317 1135.74Z" fill="#C49E80"/>
<path d="M865.17 1198.71C866.763 1198.94 872.446 1186.21 870.619 1181.11C862.437 1177.6 857.944 1177.04 850.186 1179.45C850.186 1179.45 851.507 1195.81 853.432 1197.04C855.356 1198.28 857.174 1196.92 859.133 1195.13C860.854 1197.64 863.577 1198.49 865.17 1198.71Z" fill="#776969"/>
<path d="M817.215 1135.74H839.881C839.374 1153.3 839.395 1163.89 839.881 1183.97H820.009C815.828 1159.72 811.178 1142.08 817.215 1135.74Z" fill="#C49E80"/>
<path d="M825.361 1198.71C823.768 1198.94 818.085 1186.21 819.912 1181.11C828.094 1177.6 832.587 1177.04 840.346 1179.45C840.346 1179.45 839.024 1195.81 837.1 1197.04C835.175 1198.28 833.357 1196.92 831.398 1195.13C829.678 1197.64 826.955 1198.49 825.361 1198.71Z" fill="#776969"/>
<path d="M824.016 1068.67H872.32C872.32 1068.67 889.471 1111.25 886.671 1135.16C883.87 1159.06 848.168 1155.61 848.168 1155.61C848.168 1155.61 812.465 1159.06 809.665 1135.16C806.864 1111.25 824.016 1068.67 824.016 1068.67Z" fill="#C49E80"/>
<g filter="url(#filter24_d_37_2347)">
<path d="M861.055 1070.78L833.008 1065.57C818.711 1086.19 815.835 1113.73 806.714 1127.34C794.353 1145.79 853.015 1168.01 861.055 1153.32C869.096 1138.63 868.294 1104.88 861.055 1070.78Z" fill="url(#paint15_linear_37_2347)"/>
<path d="M844.881 1070.78L867.814 1065.57C879.504 1086.19 881.856 1113.73 889.314 1127.34C899.421 1145.79 851.456 1168.01 844.881 1153.32C838.307 1138.63 838.962 1104.88 844.881 1070.78Z" fill="url(#paint16_linear_37_2347)"/>
</g>
<ellipse cx="848.479" cy="1036.69" rx="45.3326" ry="41.9171" fill="url(#paint17_linear_37_2347)"/>
<path d="M888.533 991.155C879.218 990.223 876.424 1006.37 876.424 1006.37L885.739 1019.72C885.739 1019.72 905.3 1018.48 907.474 1006.37C909.647 994.26 907.474 988.36 904.058 987.429C900.643 986.497 897.848 992.086 888.533 991.155Z" fill="url(#paint18_linear_37_2347)"/>
<path d="M806.812 991.155C816.127 990.223 818.922 1006.37 818.922 1006.37L809.607 1019.72C809.607 1019.72 790.046 1018.48 787.872 1006.37C785.699 994.26 787.872 988.36 791.288 987.429C794.703 986.497 797.498 992.086 806.812 991.155Z" fill="url(#paint19_linear_37_2347)"/>
<path d="M877 1006.5C876.965 1006.48 876.934 1006.46 876.906 1006.43L870 1001.5C870 1001.5 865.373 993.013 864.987 988.156C864.601 983.3 864.344 975.945 868.196 976.586C872.047 977.228 871.697 992.619 875.356 990.832C879.014 989.046 877.381 967.663 878.812 963.398C880.242 959.134 889.272 964.67 887.84 972.296C886.431 979.8 875.199 1004.68 876.906 1006.43L877 1006.5Z" fill="#776969"/>
<path d="M802.733 975.313C805.906 982.842 821.669 1011.98 819.669 1013.5L829.693 1008.88C829.693 1008.88 830.384 991.588 829.693 986.502C829.001 981.416 827.619 973.787 823.817 975.313C820.015 976.839 823.817 992.605 819.669 991.588C815.522 990.571 812.411 968.193 809.991 964.124C807.572 960.055 799.56 967.784 802.733 975.313Z" fill="#776969"/>
<mask id="mask0_37_2347" style="mask-type:alpha" maskUnits="userSpaceOnUse" x="1100" y="1120" width="163" height="105">
<path d="M1118.35 1224.89C1124.84 1224.89 1146.37 1224.26 1166.4 1224.89H1222.74C1222.74 1224.89 1236.7 1204.62 1245.15 1201.52C1253.59 1198.41 1259.33 1187.16 1262.84 1169.86C1262.84 1169.86 1254.56 1171.93 1248.72 1173.79C1242.87 1175.65 1231.83 1180.83 1231.83 1180.83C1231.83 1180.83 1244.34 1174 1247.91 1164.69C1251.48 1155.38 1256.84 1135.1 1256.84 1135.1C1256.84 1135.1 1246.28 1143.79 1231.83 1147.31C1217.38 1150.83 1209.92 1164.69 1209.92 1164.69C1209.92 1164.69 1210.73 1150.21 1208.29 1141.52C1205.86 1132.83 1200.17 1120 1200.17 1120C1200.17 1120 1185.4 1141.31 1185.4 1156C1185.4 1170.69 1190.6 1186.41 1190.6 1186.41C1190.6 1186.41 1180.85 1169.24 1175.5 1162.62C1170.14 1156 1161.21 1154.34 1153.42 1156C1145.62 1157.65 1136.04 1154.34 1136.04 1154.34C1136.04 1154.34 1140.91 1165.52 1144.49 1170.69C1148.06 1175.86 1159.75 1184.96 1163.16 1189.31C1166.57 1193.65 1177.44 1215.38 1177.44 1215.38C1177.44 1215.38 1163.16 1196.34 1154.39 1194.69C1145.62 1193.03 1130.2 1197.17 1119.16 1206.07C1108.12 1214.96 1100 1220.55 1100 1220.55C1100 1220.55 1111.85 1224.89 1118.35 1224.89Z" fill="#D9D9D9"/>
</mask>
<g mask="url(#mask0_37_2347)">
<path d="M1118.35 1224.89C1124.84 1224.89 1146.37 1224.26 1166.4 1224.89H1222.74C1222.74 1224.89 1236.7 1204.62 1245.15 1201.52C1253.59 1198.41 1259.33 1187.16 1262.84 1169.86C1262.84 1169.86 1254.56 1171.93 1248.72 1173.79C1242.87 1175.65 1231.83 1180.83 1231.83 1180.83C1231.83 1180.83 1244.34 1174 1247.91 1164.69C1251.48 1155.38 1256.84 1135.1 1256.84 1135.1C1256.84 1135.1 1246.28 1143.79 1231.83 1147.31C1217.38 1150.83 1209.92 1164.69 1209.92 1164.69C1209.92 1164.69 1210.73 1150.21 1208.29 1141.52C1205.86 1132.83 1200.17 1120 1200.17 1120C1200.17 1120 1185.4 1141.31 1185.4 1156C1185.4 1170.69 1190.6 1186.41 1190.6 1186.41C1190.6 1186.41 1180.85 1169.24 1175.5 1162.62C1170.14 1156 1161.21 1154.34 1153.42 1156C1145.62 1157.65 1136.04 1154.34 1136.04 1154.34C1136.04 1154.34 1140.91 1165.52 1144.49 1170.69C1148.06 1175.86 1159.75 1184.96 1163.16 1189.31C1166.57 1193.65 1177.44 1215.38 1177.44 1215.38C1177.44 1215.38 1163.16 1196.34 1154.39 1194.69C1145.62 1193.03 1130.2 1197.17 1119.16 1206.07C1108.12 1214.96 1100 1220.55 1100 1220.55C1100 1220.55 1111.85 1224.89 1118.35 1224.89Z" fill="#6CB236"/>
<path d="M1230.37 1195.1C1235.97 1186.2 1241.46 1181.22 1251.48 1172.34C1292.17 1154.82 1262.43 1197.79 1251.48 1232.14H1100.65V1213.72C1116.63 1204.93 1127.23 1202.58 1148.38 1201.93C1138.63 1205.6 1135.29 1208.28 1131.5 1213.72C1163.48 1197.58 1172.41 1209.58 1191.89 1228.83C1186.61 1208.27 1183.26 1197.42 1170.95 1188.9C1177.6 1190.84 1181.42 1193.11 1188.49 1200.48C1182.15 1180.83 1175.85 1158.82 1156.66 1162.21C1163.69 1164.26 1164.57 1170.46 1166.73 1177.93C1160.07 1168.21 1149.34 1160.93 1136.37 1154.76C1156.26 1149.96 1166.92 1152.62 1185.4 1163.03C1190.63 1180.67 1194.03 1188.72 1201.15 1198.83C1196.77 1175.04 1194.61 1177.24 1195.95 1156.83C1197.84 1170.9 1199.4 1179.14 1203.91 1195.1C1208.35 1160.06 1207.51 1143.67 1200.34 1120L1220.31 1149.17C1211.35 1167.31 1209.39 1179.31 1212.51 1204.62C1225.18 1173.17 1240.44 1174.82 1245.96 1156.83C1240.3 1161.35 1236.82 1162.37 1230.37 1163.03C1242.63 1155.78 1247.23 1147.29 1257.49 1133.65C1249.99 1177.11 1243.69 1173.38 1231.83 1180.83C1225.47 1187.01 1217.16 1199.98 1206.99 1226.76H1215.92C1224.63 1210.48 1228.39 1200.51 1243.2 1188.9C1239.64 1188.62 1236.8 1190.05 1230.37 1195.1Z" fill="#2C8C4A"/>
</g>
<path d="M723.344 1080.2C678.541 1067.59 674.27 1015.08 714.99 1036.26L723.344 1080.2Z" fill="#E1C7B3"/>
<path d="M785.163 1079.32C752.2 1088.11 764.89 1092.95 729.295 1080.14C682.901 1063.45 691.442 1026.23 707.181 1002.36C726.354 973.273 755.454 962.162 784.262 981.154C813.071 1000.15 804.336 1050.23 785.163 1079.32Z" fill="#C59E80"/>
<path d="M741.487 1179.96C743.683 1194.3 739.665 1206.81 727.742 1208.63C715.819 1210.46 707.273 1199.87 705.076 1185.54C702.879 1171.2 698.52 1159.97 719.787 1156.72C731.71 1154.89 739.29 1165.62 741.487 1179.96Z" fill="url(#paint20_linear_37_2347)"/>
<path d="M744.275 1175.95C741.913 1190.29 745.788 1202.86 757.69 1204.82C769.591 1206.78 778.259 1196.28 780.621 1181.94C782.982 1167.61 787.469 1156.41 766.241 1152.91C754.339 1150.95 746.636 1161.62 744.275 1175.95Z" fill="url(#paint21_linear_37_2347)"/>
<path d="M738.158 1103.99C749.078 1083.17 748.331 1072.22 765.295 1072.78C779.665 1078.15 776.504 1100.31 768.158 1117.31C757.107 1144.96 733.503 1158.83 727.166 1155.51C717.334 1150.35 729.34 1130.5 738.158 1103.99Z" fill="url(#paint22_linear_37_2347)"/>
<path d="M751.971 1109.33C750.178 1132.78 743.738 1141.66 758.416 1150.18C773.445 1153.26 782.52 1132.8 784.468 1113.96C789.77 1084.66 777.125 1060.38 769.99 1059.83C758.921 1058.98 758.565 1082.18 751.971 1109.33Z" fill="url(#paint23_linear_37_2347)"/>
<path d="M779.356 996.407C799.631 973.52 766.952 949.723 755.082 974.619L779.356 996.407Z" fill="#C59E80"/>
<path d="M792.527 1117.51C796.536 1156.71 778.33 1174.31 742.68 1174.31C710.816 1174.31 685.459 1167.11 692.833 1117.51C698.963 1076.29 715.15 1060.72 742.68 1060.72C770.209 1060.72 787.808 1071.39 792.527 1117.51Z" fill="#C59E80"/>
<g filter="url(#filter25_d_37_2347)">
<ellipse rx="72.645" ry="25.9114" transform="matrix(-0.941201 -0.337847 -0.186698 0.982417 754.707 1002.15)" fill="url(#paint24_linear_37_2347)"/>
</g>
<path d="M729.13 979.217C726.654 989.42 740.067 999.227 759.372 1007.27C778.678 1015.32 796.564 1018.56 799.04 1008.35C801.516 998.151 791.176 969.745 771.871 961.699C752.566 953.653 731.606 969.014 729.13 979.217Z" fill="url(#paint25_linear_37_2347)"/>
<path d="M722.144 989.84C732.028 966.766 765.062 980.208 753.706 1008.23C753.074 1009.79 751.139 1010.27 749.607 1009.34L723.482 993.435C722.21 992.66 721.594 991.125 722.144 989.84Z" fill="#A78B75"/>
<path fill-rule="evenodd" clip-rule="evenodd" d="M741.677 1004.51C745.059 982.44 730.572 978.09 724.158 993.846L741.677 1004.51Z" fill="#E1C7B3"/>
<g filter="url(#filter26_d_37_2347)">
<path d="M688.709 1075.62C713.486 1069.57 726.57 1075.27 748.506 1084.95C754.97 1074.41 761.885 1075.97 767.514 1079.53C765.954 1088.16 765.149 1089.13 757.848 1091.2C765.587 1094.19 764.444 1098.69 762.132 1106.58C757.892 1103.54 752.884 1099.74 749.311 1092.34C721.938 1110.05 703.565 1121.62 678.176 1120.9C672.299 1110.96 673.853 1105.94 683.166 1097.72C684.329 1090.9 685.596 1089.2 689.198 1090.88C685.724 1083.85 685.594 1080.5 688.709 1075.62Z" fill="#FFD80B"/>
<path fill-rule="evenodd" clip-rule="evenodd" d="M687.957 1088.18C700.552 1094.38 707.847 1094.02 718.024 1093.52C720.8 1093.39 723.79 1093.24 727.16 1093.21C722.477 1093.81 718.784 1094.76 715.447 1095.61C708.161 1097.47 702.574 1098.89 692.077 1095.38L688.975 1090.78C689.048 1090.81 689.122 1090.84 689.198 1090.88C688.721 1089.91 688.308 1089.02 687.957 1088.18ZM683.174 1097.67C692.387 1102.29 699.702 1102.96 710.875 1101.87C703.986 1103.37 702.596 1103.54 693.613 1103.05C686.031 1102.64 683.595 1098.98 683.019 1097.84C683.068 1097.8 683.117 1097.76 683.166 1097.72C683.169 1097.7 683.171 1097.68 683.174 1097.67Z" fill="black" fill-opacity="0.07"/>
</g>
<path d="M726.393 1075.2C690.858 1111.95 679.122 1137.25 731.555 1166.56L729.605 1167.51C668.051 1137.59 678.153 1114.08 726.393 1075.2Z" fill="#D94B4B"/>
<path d="M703.685 1072.49C686.118 1056.86 682.344 1047.04 668.292 1051.74C658.355 1060.02 669.927 1078.74 683.79 1091.64C704.211 1113.24 729.66 1119.62 733.657 1115.13C739.86 1108.16 721.771 1093.65 703.685 1072.49Z" fill="url(#paint26_linear_37_2347)"/>
<g filter="url(#filter27_d_37_2347)">
<path d="M784.527 1082.78C783.98 1081.79 783.121 1080.97 782.115 1080.48C758.933 1069.19 746.352 1068.59 727.118 1075.66C725.742 1076.17 724.73 1077.33 724.373 1078.77C715.741 1113.61 716.461 1133.16 724.321 1164.75C724.756 1166.49 726.075 1167.96 727.769 1168.58C746.806 1175.62 758.712 1179.04 782.028 1172.81C783.142 1172.51 784.094 1171.78 784.676 1170.8C804.88 1136.76 803.462 1116.96 784.527 1082.78Z" fill="#E67070"/>
<path d="M723.224 1078.37C720.634 1091.02 742.826 1111.1 761.51 1114.93C815.594 1130.85 800.92 1111.27 800.029 1098.95C798.931 1083.76 789.572 1072.95 770.888 1069.12C752.204 1065.3 725.813 1065.72 723.224 1078.37Z" fill="#D94B4B"/>
<path d="M768.869 1068.71C792.028 1077.92 796.426 1118.74 788.016 1134.51L781.134 1134.72C790.272 1118.56 785.735 1079.01 762.226 1067.75C765.441 1067.94 766.415 1068.19 768.869 1068.71Z" fill="#D9D9D9"/>
<rect width="13.4326" height="7.06804" rx="3.01562" transform="matrix(-0.999933 -0.011571 0.112973 0.993598 792.596 1098.64)" fill="#D9D9D9"/>
<rect width="13.5703" height="6.95159" rx="3.01562" transform="matrix(-0.992191 -0.124726 -0.0722726 0.997385 791.479 1133.87)" fill="#D9D9D9"/>
</g>
<g filter="url(#filter28_d_37_2347)">
<path d="M98.8954 1159.84C86 1199.06 86 1242.2 86 1242.2H151.835C189.275 1270.51 206.994 1262.87 238.709 1250.04C262.41 1261.21 274.652 1262.29 296.4 1263.77C296.895 1263.16 297.05 1261.63 296.4 1250.04L351.375 1242.2V1225.53C351.375 1225.53 346.624 1198.08 335.086 1194.16C323.548 1190.24 320.833 1167.68 314.725 1159.84C308.616 1152 299.327 1129.92 267.894 1103.95C267.894 1103.95 265.179 1042.18 259.071 1033.36C252.962 1024.54 247.533 1031.4 244.818 1026.5C242.103 1021.59 231.244 969.629 227.171 962.766C223.099 955.902 207.489 953.942 201.38 950.019C195.272 946.097 182.377 917.664 176.268 922.566C170.16 927.469 172.196 945.117 158.622 969.629C145.048 994.141 132.675 1075.76 123.329 1146.11C111.52 1118.83 111.791 1120.62 98.8954 1159.84Z" fill="#6B6465"/>
</g>
<path d="M242.5 1245C242.5 1263 177.869 1274.01 150 1245C159.5 1083 158 1307.5 184.5 1124C193.021 1065 206.5 1139.5 206.5 1139.5C206.5 1139.5 242.5 1227 242.5 1245Z" fill="#5A5555"/>
<path d="M351 1237.5C345.911 1241.65 332.959 1245.28 295.5 1247.5C294.657 1243.47 287.644 1218.31 267 1145C286.479 1168.67 289.07 1178 295.5 1195.5C295.5 1195.5 294 1138.5 280.5 1118C267 1097.5 299.227 1132.1 316 1158.5C320.993 1179.71 325.808 1187.6 337.5 1195.5C349.553 1212.3 352.615 1221.49 351 1237.5Z" fill="#5A5555"/>
<path d="M241.514 1081.99C239.883 1079.09 237.303 1059.45 227.514 969.989C225.733 953.843 234.145 982.301 247.5 1032.5C260.001 1025 257.514 1058.49 257.514 1058.49C255.157 1058.76 260.001 1068.5 247.5 1040C244.43 1059.77 244.106 1070.97 241.514 1081.99Z" fill="#5A5555"/>
<path d="M-35.8554 1197.35C-14.1326 959.584 6.0415 955.266 50.4484 930.728C26.0309 926.773 -36.6954 961.804 -49.1663 1195.53L-35.8554 1197.35Z" fill="#6CB236"/>
<path d="M-22.587 888.413C22.4582 880.049 35.5483 891.889 52.879 921.182C48.1716 901.805 48.2918 892.265 65.7311 883.523C80.9463 874.915 89.9796 878.225 106.176 885.505C124.759 891.158 125.569 893.642 130.8 898.344C93.6028 891.862 93.0623 896.166 91.5468 903.628C103.448 898.812 116.697 898.995 152.804 904.875C171.434 915.744 173.334 922.922 176.69 935.597L176.752 935.831C107.231 909.87 106.942 913.998 103.587 919.989C124.547 922.688 140.924 927.353 180.599 942.849C190.959 956.343 189.896 962.753 186.164 973.878C124.224 929.252 110.183 925.795 104.257 939.543C139.57 946.408 157.92 958.77 189.429 987.981C191.008 999.442 189.796 1004.36 185.718 1011.76C126.799 951.947 117.263 949.334 112.702 961.059C150.847 979.498 166.097 993.909 180.042 1028.4C179.394 1037.2 176.354 1039.34 170.686 1042.9C162.55 1019.8 155.114 1011.51 138.104 1002.82L138.289 1003.02C153.643 1020.21 162.308 1029.92 164.461 1050.38C161.734 1057.93 160.156 1062.11 154.57 1066.46C145.452 1067.03 140.703 1066.49 133.59 1062.3C115.901 1046.27 118.828 1034.45 115.104 1015.34C110.846 1033.59 105.204 1042.72 123.364 1068.6C117.409 1072.18 110.024 1071.48 100.754 1067.07C83.6759 1036.43 107.86 982.778 93.8576 978.622C77.7617 984.904 85.1864 1029.63 97.0042 1068.38C85.7389 1068.4 79.6851 1066.99 69.6666 1060.27C50.4202 1024.14 81.0557 963.417 73.2325 957.293C65.4093 951.169 46.4512 978.313 51.0195 1047.13C37.8329 1038.06 29.1527 1031.97 19.9992 1017.53C14.7578 972.36 36.5981 959.207 49.6919 942.356C62.7857 925.505 -4.15786 949.528 -12.5671 997.838C-23.0214 984.139 -27.7345 975.453 -26.5052 951.535C-17.509 934.646 -3.52384 931.994 27.7575 922.712C9.57514 911.439 -5.64656 912.29 -29.8286 941.908C-33.5602 934.367 -36.5503 932.564 -34.8465 910.35C-29.0123 902.349 -21.3972 900.457 2.16813 903.019C-3.21468 897.407 -6.4481 894.396 -31.7405 901.249C-33.4706 898.164 -33.6808 896.159 -22.587 888.413Z" fill="#27844C"/>
<path d="M147.942 1047.87C119.012 986.449 97.2023 952.508 54.0059 921.828L56.5433 930.53C87.562 950.451 108.534 981.552 147.942 1047.87Z" fill="#6CB236"/>
<mask id="mask1_37_2347" style="mask-type:alpha" maskUnits="userSpaceOnUse" x="-93" y="1053" width="288" height="186">
<path d="M162.1 1238.46C150.635 1238.46 112.624 1237.34 77.258 1238.46H-22.2025C-22.2025 1238.46 -46.8526 1202.61 -61.7574 1197.13C-76.6621 1191.64 -86.7933 1171.75 -93 1141.16C-93 1141.16 -78.3819 1144.82 -68.0632 1148.11C-57.7445 1151.4 -38.2537 1160.55 -38.2537 1160.55C-38.2537 1160.55 -60.3242 1148.47 -66.6301 1132.01C-72.9359 1115.55 -82.3947 1079.7 -82.3947 1079.7C-82.3947 1079.7 -63.7638 1095.07 -38.2537 1101.29C-12.7437 1107.5 0.441284 1132.01 0.441284 1132.01C0.441284 1132.01 -0.991867 1106.41 3.30758 1091.04C7.60703 1075.68 17.6391 1053 17.6391 1053C17.6391 1053 43.7224 1090.68 43.7224 1116.65C43.7224 1142.62 34.5502 1170.42 34.5502 1170.42C34.5502 1170.42 51.748 1140.06 61.2068 1128.35C70.6656 1116.65 86.4302 1113.72 100.188 1116.65C113.947 1119.58 130.858 1113.72 130.858 1113.72C130.858 1113.72 122.259 1133.48 115.953 1142.62C109.647 1151.77 89.0099 1167.86 82.9906 1175.54C76.9714 1183.23 57.7672 1221.63 57.7672 1221.63C57.7672 1221.63 82.9906 1187.98 98.4686 1185.05C113.947 1182.13 141.176 1189.44 160.667 1205.17C180.158 1220.9 194.49 1230.78 194.49 1230.78C194.49 1230.78 173.566 1238.46 162.1 1238.46Z" fill="#D9D9D9"/>
</mask>
<g mask="url(#mask1_37_2347)">
<path d="M162.1 1238.46C150.635 1238.46 112.624 1237.34 77.258 1238.46H-22.2025C-22.2025 1238.46 -46.8526 1202.61 -61.7574 1197.13C-76.6621 1191.64 -86.7933 1171.75 -93 1141.16C-93 1141.16 -78.3819 1144.82 -68.0632 1148.11C-57.7445 1151.4 -38.2537 1160.55 -38.2537 1160.55C-38.2537 1160.55 -60.3242 1148.47 -66.6301 1132.01C-72.9359 1115.55 -82.3947 1079.7 -82.3947 1079.7C-82.3947 1079.7 -63.7638 1095.07 -38.2537 1101.29C-12.7437 1107.5 0.441284 1132.01 0.441284 1132.01C0.441284 1132.01 -0.991867 1106.41 3.30758 1091.04C7.60703 1075.68 17.6391 1053 17.6391 1053C17.6391 1053 43.7224 1090.68 43.7224 1116.65C43.7224 1142.62 34.5502 1170.42 34.5502 1170.42C34.5502 1170.42 51.748 1140.06 61.2068 1128.35C70.6656 1116.65 86.4302 1113.72 100.188 1116.65C113.947 1119.58 130.858 1113.72 130.858 1113.72C130.858 1113.72 122.259 1133.48 115.953 1142.62C109.647 1151.77 89.0099 1167.86 82.9906 1175.54C76.9714 1183.23 57.7672 1221.63 57.7672 1221.63C57.7672 1221.63 82.9906 1187.98 98.4686 1185.05C113.947 1182.13 141.176 1189.44 160.667 1205.17C180.158 1220.9 194.49 1230.78 194.49 1230.78C194.49 1230.78 173.566 1238.46 162.1 1238.46Z" fill="#6CB236"/>
<path d="M-35.6733 1185.79C-45.5496 1170.04 -55.2437 1161.24 -72.9352 1145.55C-144.767 1114.56 -92.2602 1190.54 -72.9352 1251.26H193.344V1218.71C165.136 1203.17 146.427 1199.01 109.075 1197.86C126.294 1204.34 132.191 1209.09 138.884 1218.71C82.4181 1190.18 66.6535 1211.39 32.2579 1245.41C41.5872 1209.07 47.5091 1189.89 69.2332 1174.81C57.4939 1178.26 50.751 1182.27 38.2771 1195.3C49.4557 1160.55 60.59 1121.64 94.4566 1127.62C82.0474 1131.25 80.5066 1142.22 76.6855 1155.42C88.4373 1138.23 107.384 1125.36 130.285 1114.45C95.168 1105.98 76.3529 1110.67 43.7231 1129.09C34.4874 1160.27 28.4966 1174.5 15.92 1192.37C23.6456 1150.31 27.4629 1154.21 25.0922 1118.11C21.7578 1142.99 19.0136 1157.57 11.0473 1185.79C3.20859 1123.84 4.68527 1094.84 17.3532 1053L-17.9023 1104.58C-2.08617 1136.66 1.36446 1157.86 -4.14407 1202.61C-26.5012 1147.01 -53.4444 1149.93 -63.1898 1118.11C-53.2024 1126.1 -47.0532 1127.9 -35.6733 1129.09C-57.3147 1116.27 -65.4404 1101.24 -83.5405 1077.14C-70.3081 1153.97 -59.177 1147.38 -38.253 1160.55C-27.0129 1171.47 -12.3449 1194.41 5.60134 1241.75H-10.1633C-25.5299 1212.98 -32.1735 1195.34 -58.3171 1174.81C-52.0332 1174.33 -47.0145 1176.86 -35.6733 1185.79Z" fill="#2C8C4A"/>
</g>
<path d="M1295.58 1234.82C1257.38 1250.88 1229.19 1238.32 1187 1231.05C1225.47 1151.82 1238.71 1137.09 1254.44 1138.97C1255.85 1134.04 1255.92 1128.58 1273.15 1128.58C1290.38 1128.58 1290.64 1127.71 1301.21 1138.97C1304.65 1135.51 1307.61 1128.58 1330.74 1123.13C1348.46 1111.25 1363.66 1122.96 1382.92 1128.58C1396.26 1132.47 1423.78 1138.97 1431.66 1155.81C1438.71 1154.67 1435.98 1148.46 1442.49 1151.35C1461.62 1159.86 1504.02 1184.02 1514.36 1214.72C1476.73 1222.25 1476.58 1241.32 1422.58 1245.32C1368.58 1249.32 1349.08 1241.32 1349.08 1241.32C1330.74 1231.05 1312.24 1240.47 1295.58 1234.82Z" fill="#6B6465"/>
<path d="M1340.05 1237.23C1342.05 1242.23 1314.16 1242.77 1300.55 1237.23C1300.55 1237.23 1289.55 1237.23 1296.05 1232.73C1302.55 1228.23 1303.92 1207.13 1310.05 1187.73C1312.55 1183.72 1312.54 1196.65 1318.05 1215.23C1323.57 1233.82 1323.17 1210.54 1326.55 1205.23C1326.92 1195.63 1338.05 1232.23 1340.05 1237.23Z" fill="#5A5555"/>
<path d="M1430 1162.5C1425.9 1156 1439.5 1153 1439.5 1153C1439.5 1153 1467.5 1233.5 1439.5 1241.5C1411.5 1249.5 1349 1244 1365.5 1241.5C1382 1239 1421.51 1233.27 1423.5 1221.5C1429.88 1190.61 1434.11 1169 1430 1162.5Z" fill="#5A5555"/>
<path d="M1288.5 1128C1281.5 1128 1254 1125 1254 1138.5C1284 1133.5 1281.97 1149.53 1288.5 1161.5C1307.33 1141.53 1324.44 1126.19 1331.5 1123C1314.06 1124.52 1299.5 1138.5 1299.5 1138.5C1299.5 1138.5 1295.5 1128 1288.5 1128Z" fill="#5A5555"/>
<g filter="url(#filter29_d_37_2347)">
<path d="M1260 281.75C1271.27 250.265 1271.85 215.434 1271.85 215.434L1217.05 214.518C1186.27 191.137 1134.54 185.176 1107.97 195.09C1104.81 193.581 1102.85 192.598 1101.72 192.005C1099.48 190.829 1100.48 191.185 1101.72 192.005C1103.74 193.33 1106.39 195.867 1097.02 195.09C1096.6 195.577 1026.62 160.637 1027 170L1050.75 225.198C1050.75 225.198 1054.33 247.429 1063.88 250.756C1073.43 254.083 1071.02 270.168 1080.37 278.746C1089.24 286.889 1082.16 271.089 1107.97 292.492C1107.97 292.492 1125.06 341.43 1125.06 308.416C1127.25 312.412 1139.13 415.973 1147.68 434.492C1156.22 453.01 1160.74 412.722 1165.77 415.973C1170.8 419.225 1174.81 517.19 1192 499.999C1199 493 1198.87 423.101 1210.5 403.5C1222.13 383.898 1230.75 349.166 1239.48 292.492C1248.94 314.686 1248.74 313.235 1260 281.75Z" fill="url(#paint27_linear_37_2347)"/>
</g>
<path d="M918.182 201.791C926.212 198.78 904.956 190.753 904.956 190.753C900.529 195.011 891.288 186.192 868.584 160.148C858.853 164.516 855.37 167.492 850.635 173.193C855.436 196.663 861.971 253.467 868.584 257.982C875.197 262.498 892.796 244.054 904.956 213.33C904.956 213.33 910.152 204.801 918.182 201.791Z" fill="url(#paint28_linear_37_2347)"/>
<path d="M52.1719 263.323C40.2092 257.988 24 214.728 24 214.728C30.5945 222.275 43.4747 220.465 77.2965 174.309C91.7936 182.05 133.945 150.937 141 161.04C133.848 202.635 111.985 355.798 102.133 363.801C92.2819 371.804 86.3565 339.115 68.2417 284.664C68.2417 284.664 64.1345 268.658 52.1719 263.323Z" fill="url(#paint29_linear_37_2347)"/>
<path d="M1222.5 311.5C1222.5 267.5 1216.5 228 1222.5 236.5C1227.06 242.959 1240.08 226.475 1244.03 218.947C1243.4 217.168 1243.5 215.873 1244.5 215.5C1245.62 215.083 1245.28 216.568 1244.03 218.947C1246.32 225.449 1258.3 238.42 1271.5 236.5C1271.5 236.5 1251 314 1247 311.5C1243 309 1241 293 1241 293C1241 293 1222.5 355.5 1222.5 311.5Z" fill="#5A5555"/>
<path d="M918.182 201.791C926.212 198.78 904.956 190.753 904.956 190.753C900.529 195.011 891.288 186.192 868.584 160.148C858.853 164.516 855.37 167.492 850.635 173.193C855.436 196.663 861.971 253.467 868.584 257.982C875.197 262.498 892.796 244.054 904.956 213.33C904.956 213.33 910.152 204.801 918.182 201.791Z" fill="url(#paint30_linear_37_2347)"/>
</g>
<defs>
<filter id="filter0_d_37_2347" x="-12.3353" y="131.5" width="431.024" height="283.691" filterUnits="userSpaceOnUse" color-interpolation-filters="sRGB">
<feFlood flood-opacity="0" result="BackgroundImageFix"/>
<feColorMatrix in="SourceAlpha" type="matrix" values="0 0 0 0 0 0 0 0 0 0 0 0 0 0 0 0 0 0 127 0" result="hardAlpha"/>
<feOffset dy="4.02083"/>
<feGaussianBlur stdDeviation="2.01042"/>
<feComposite in2="hardAlpha" operator="out"/>
<feColorMatrix type="matrix" values="0 0 0 0 0 0 0 0 0 0 0 0 0 0 0 0 0 0 0.25 0"/>
<feBlend mode="normal" in2="BackgroundImageFix" result="effect1_dropShadow_37_2347"/>
<feBlend mode="normal" in="SourceGraphic" in2="effect1_dropShadow_37_2347" result="shape"/>
</filter>
<filter id="filter1_d_37_2347" x="-35.8066" y="98" width="1499.5" height="1202.96" filterUnits="userSpaceOnUse" color-interpolation-filters="sRGB">
<feFlood flood-opacity="0" result="BackgroundImageFix"/>
<feColorMatrix in="SourceAlpha" type="matrix" values="0 0 0 0 0 0 0 0 0 0 0 0 0 0 0 0 0 0 127 0" result="hardAlpha"/>
<feOffset dx="-3" dy="-2"/>
<feGaussianBlur stdDeviation="13"/>
<feComposite in2="hardAlpha" operator="out"/>
<feColorMatrix type="matrix" values="0 0 0 0 0.908333 0 0 0 0 0.807962 0 0 0 0 0.613125 0 0 0 0.61 0"/>
<feBlend mode="normal" in2="BackgroundImageFix" result="effect1_dropShadow_37_2347"/>
<feBlend mode="normal" in="SourceGraphic" in2="effect1_dropShadow_37_2347" result="shape"/>
</filter>
<filter id="filter2_d_37_2347" x="166.053" y="349.02" width="64.0046" height="73.5973" filterUnits="userSpaceOnUse" color-interpolation-filters="sRGB">
<feFlood flood-opacity="0" result="BackgroundImageFix"/>
<feColorMatrix in="SourceAlpha" type="matrix" values="0 0 0 0 0 0 0 0 0 0 0 0 0 0 0 0 0 0 127 0" result="hardAlpha"/>
<feOffset dy="4.02083"/>
<feGaussianBlur stdDeviation="2.01042"/>
<feComposite in2="hardAlpha" operator="out"/>
<feColorMatrix type="matrix" values="0 0 0 0 0 0 0 0 0 0 0 0 0 0 0 0 0 0 0.25 0"/>
<feBlend mode="normal" in2="BackgroundImageFix" result="effect1_dropShadow_37_2347"/>
<feBlend mode="normal" in="SourceGraphic" in2="effect1_dropShadow_37_2347" result="shape"/>
</filter>
<filter id="filter3_d_37_2347" x="199.022" y="255.647" width="64.0046" height="73.5973" filterUnits="userSpaceOnUse" color-interpolation-filters="sRGB">
<feFlood flood-opacity="0" result="BackgroundImageFix"/>
<feColorMatrix in="SourceAlpha" type="matrix" values="0 0 0 0 0 0 0 0 0 0 0 0 0 0 0 0 0 0 127 0" result="hardAlpha"/>
<feOffset dy="4.02083"/>
<feGaussianBlur stdDeviation="2.01042"/>
<feComposite in2="hardAlpha" operator="out"/>
<feColorMatrix type="matrix" values="0 0 0 0 0 0 0 0 0 0 0 0 0 0 0 0 0 0 0.25 0"/>
<feBlend mode="normal" in2="BackgroundImageFix" result="effect1_dropShadow_37_2347"/>
<feBlend mode="normal" in="SourceGraphic" in2="effect1_dropShadow_37_2347" result="shape"/>
</filter>
<filter id="filter4_d_37_2347" x="62.6471" y="459.251" width="64.0046" height="73.5973" filterUnits="userSpaceOnUse" color-interpolation-filters="sRGB">
<feFlood flood-opacity="0" result="BackgroundImageFix"/>
<feColorMatrix in="SourceAlpha" type="matrix" values="0 0 0 0 0 0 0 0 0 0 0 0 0 0 0 0 0 0 127 0" result="hardAlpha"/>
<feOffset dy="4.02083"/>
<feGaussianBlur stdDeviation="2.01042"/>
<feComposite in2="hardAlpha" operator="out"/>
<feColorMatrix type="matrix" values="0 0 0 0 0 0 0 0 0 0 0 0 0 0 0 0 0 0 0.25 0"/>
<feBlend mode="normal" in2="BackgroundImageFix" result="effect1_dropShadow_37_2347"/>
<feBlend mode="normal" in="SourceGraphic" in2="effect1_dropShadow_37_2347" result="shape"/>
</filter>
<filter id="filter5_d_37_2347" x="158.555" y="176.54" width="71.5007" height="73.5973" filterUnits="userSpaceOnUse" color-interpolation-filters="sRGB">
<feFlood flood-opacity="0" result="BackgroundImageFix"/>
<feColorMatrix in="SourceAlpha" type="matrix" values="0 0 0 0 0 0 0 0 0 0 0 0 0 0 0 0 0 0 127 0" result="hardAlpha"/>
<feOffset dy="4.02083"/>
<feGaussianBlur stdDeviation="2.01042"/>
<feComposite in2="hardAlpha" operator="out"/>
<feColorMatrix type="matrix" values="0 0 0 0 0 0 0 0 0 0 0 0 0 0 0 0 0 0 0.25 0"/>
<feBlend mode="normal" in2="BackgroundImageFix" result="effect1_dropShadow_37_2347"/>
<feBlend mode="normal" in="SourceGraphic" in2="effect1_dropShadow_37_2347" result="shape"/>
</filter>
<filter id="filter6_d_37_2347" x="116.594" y="302.334" width="71.5007" height="73.5973" filterUnits="userSpaceOnUse" color-interpolation-filters="sRGB">
<feFlood flood-opacity="0" result="BackgroundImageFix"/>
<feColorMatrix in="SourceAlpha" type="matrix" values="0 0 0 0 0 0 0 0 0 0 0 0 0 0 0 0 0 0 127 0" result="hardAlpha"/>
<feOffset dy="4.02083"/>
<feGaussianBlur stdDeviation="2.01042"/>
<feComposite in2="hardAlpha" operator="out"/>
<feColorMatrix type="matrix" values="0 0 0 0 0 0 0 0 0 0 0 0 0 0 0 0 0 0 0.25 0"/>
<feBlend mode="normal" in2="BackgroundImageFix" result="effect1_dropShadow_37_2347"/>
<feBlend mode="normal" in="SourceGraphic" in2="effect1_dropShadow_37_2347" result="shape"/>
</filter>
<filter id="filter7_d_37_2347" x="1222.06" y="118.208" width="35.4987" height="45.7394" filterUnits="userSpaceOnUse" color-interpolation-filters="sRGB">
<feFlood flood-opacity="0" result="BackgroundImageFix"/>
<feColorMatrix in="SourceAlpha" type="matrix" values="0 0 0 0 0 0 0 0 0 0 0 0 0 0 0 0 0 0 127 0" result="hardAlpha"/>
<feOffset dy="4.02083"/>
<feGaussianBlur stdDeviation="2.01042"/>
<feComposite in2="hardAlpha" operator="out"/>
<feColorMatrix type="matrix" values="0 0 0 0 0 0 0 0 0 0 0 0 0 0 0 0 0 0 0.25 0"/>
<feBlend mode="normal" in2="BackgroundImageFix" result="effect1_dropShadow_37_2347"/>
<feBlend mode="normal" in="SourceGraphic" in2="effect1_dropShadow_37_2347" result="shape"/>
</filter>
<filter id="filter8_d_37_2347" x="1328.47" y="210.267" width="35.4987" height="45.7394" filterUnits="userSpaceOnUse" color-interpolation-filters="sRGB">
<feFlood flood-opacity="0" result="BackgroundImageFix"/>
<feColorMatrix in="SourceAlpha" type="matrix" values="0 0 0 0 0 0 0 0 0 0 0 0 0 0 0 0 0 0 127 0" result="hardAlpha"/>
<feOffset dy="4.02083"/>
<feGaussianBlur stdDeviation="2.01042"/>
<feComposite in2="hardAlpha" operator="out"/>
<feColorMatrix type="matrix" values="0 0 0 0 0 0 0 0 0 0 0 0 0 0 0 0 0 0 0.25 0"/>
<feBlend mode="normal" in2="BackgroundImageFix" result="effect1_dropShadow_37_2347"/>
<feBlend mode="normal" in="SourceGraphic" in2="effect1_dropShadow_37_2347" result="shape"/>
</filter>
<filter id="filter9_d_37_2347" x="1214.55" y="65.7529" width="50.7135" height="33.0871" filterUnits="userSpaceOnUse" color-interpolation-filters="sRGB">
<feFlood flood-opacity="0" result="BackgroundImageFix"/>
<feColorMatrix in="SourceAlpha" type="matrix" values="0 0 0 0 0 0 0 0 0 0 0 0 0 0 0 0 0 0 127 0" result="hardAlpha"/>
<feOffset dy="4.02083"/>
<feGaussianBlur stdDeviation="2.01042"/>
<feComposite in2="hardAlpha" operator="out"/>
<feColorMatrix type="matrix" values="0 0 0 0 0 0 0 0 0 0 0 0 0 0 0 0 0 0 0.25 0"/>
<feBlend mode="normal" in2="BackgroundImageFix" result="effect1_dropShadow_37_2347"/>
<feBlend mode="normal" in="SourceGraphic" in2="effect1_dropShadow_37_2347" result="shape"/>
</filter>
<filter id="filter10_d_37_2347" x="1269.5" y="164.427" width="32.4577" height="50.1872" filterUnits="userSpaceOnUse" color-interpolation-filters="sRGB">
<feFlood flood-opacity="0" result="BackgroundImageFix"/>
<feColorMatrix in="SourceAlpha" type="matrix" values="0 0 0 0 0 0 0 0 0 0 0 0 0 0 0 0 0 0 127 0" result="hardAlpha"/>
<feOffset dy="4.02083"/>
<feGaussianBlur stdDeviation="2.01042"/>
<feComposite in2="hardAlpha" operator="out"/>
<feColorMatrix type="matrix" values="0 0 0 0 0 0 0 0 0 0 0 0 0 0 0 0 0 0 0.25 0"/>
<feBlend mode="normal" in2="BackgroundImageFix" result="effect1_dropShadow_37_2347"/>
<feBlend mode="normal" in="SourceGraphic" in2="effect1_dropShadow_37_2347" result="shape"/>
</filter>
<filter id="filter11_d_37_2347" x="1173.01" y="50.4277" width="37.5104" height="47.7502" filterUnits="userSpaceOnUse" color-interpolation-filters="sRGB">
<feFlood flood-opacity="0" result="BackgroundImageFix"/>
<feColorMatrix in="SourceAlpha" type="matrix" values="0 0 0 0 0 0 0 0 0 0 0 0 0 0 0 0 0 0 127 0" result="hardAlpha"/>
<feOffset dy="4.02083"/>
<feGaussianBlur stdDeviation="2.01042"/>
<feComposite in2="hardAlpha" operator="out"/>
<feColorMatrix type="matrix" values="0 0 0 0 0 0 0 0 0 0 0 0 0 0 0 0 0 0 0.25 0"/>
<feBlend mode="normal" in2="BackgroundImageFix" result="effect1_dropShadow_37_2347"/>
<feBlend mode="normal" in="SourceGraphic" in2="effect1_dropShadow_37_2347" result="shape"/>
</filter>
<filter id="filter12_d_37_2347" x="1407.52" y="241.385" width="39.3112" height="45.7394" filterUnits="userSpaceOnUse" color-interpolation-filters="sRGB">
<feFlood flood-opacity="0" result="BackgroundImageFix"/>
<feColorMatrix in="SourceAlpha" type="matrix" values="0 0 0 0 0 0 0 0 0 0 0 0 0 0 0 0 0 0 127 0" result="hardAlpha"/>
<feOffset dy="4.02083"/>
<feGaussianBlur stdDeviation="2.01042"/>
<feComposite in2="hardAlpha" operator="out"/>
<feColorMatrix type="matrix" values="0 0 0 0 0 0 0 0 0 0 0 0 0 0 0 0 0 0 0.25 0"/>
<feBlend mode="normal" in2="BackgroundImageFix" result="effect1_dropShadow_37_2347"/>
<feBlend mode="normal" in="SourceGraphic" in2="effect1_dropShadow_37_2347" result="shape"/>
</filter>
<filter id="filter13_d_37_2347" x="1370.16" y="208.132" width="55.0983" height="31.7194" filterUnits="userSpaceOnUse" color-interpolation-filters="sRGB">
<feFlood flood-opacity="0" result="BackgroundImageFix"/>
<feColorMatrix in="SourceAlpha" type="matrix" values="0 0 0 0 0 0 0 0 0 0 0 0 0 0 0 0 0 0 127 0" result="hardAlpha"/>
<feOffset dy="4.02083"/>
<feGaussianBlur stdDeviation="2.01042"/>
<feComposite in2="hardAlpha" operator="out"/>
<feColorMatrix type="matrix" values="0 0 0 0 0 0 0 0 0 0 0 0 0 0 0 0 0 0 0.25 0"/>
<feBlend mode="normal" in2="BackgroundImageFix" result="effect1_dropShadow_37_2347"/>
<feBlend mode="normal" in="SourceGraphic" in2="effect1_dropShadow_37_2347" result="shape"/>
</filter>
<filter id="filter14_d_37_2347" x="1169.89" y="-11.1294" width="53.6921" height="36.7785" filterUnits="userSpaceOnUse" color-interpolation-filters="sRGB">
<feFlood flood-opacity="0" result="BackgroundImageFix"/>
<feColorMatrix in="SourceAlpha" type="matrix" values="0 0 0 0 0 0 0 0 0 0 0 0 0 0 0 0 0 0 127 0" result="hardAlpha"/>
<feOffset dy="4.02083"/>
<feGaussianBlur stdDeviation="2.01042"/>
<feComposite in2="hardAlpha" operator="out"/>
<feColorMatrix type="matrix" values="0 0 0 0 0 0 0 0 0 0 0 0 0 0 0 0 0 0 0.25 0"/>
<feBlend mode="normal" in2="BackgroundImageFix" result="effect1_dropShadow_37_2347"/>
<feBlend mode="normal" in="SourceGraphic" in2="effect1_dropShadow_37_2347" result="shape"/>
</filter>
<filter id="filter15_d_37_2347" x="1277.98" y="142.777" width="53.2682" height="33.4167" filterUnits="userSpaceOnUse" color-interpolation-filters="sRGB">
<feFlood flood-opacity="0" result="BackgroundImageFix"/>
<feColorMatrix in="SourceAlpha" type="matrix" values="0 0 0 0 0 0 0 0 0 0 0 0 0 0 0 0 0 0 127 0" result="hardAlpha"/>
<feOffset dy="4.02083"/>
<feGaussianBlur stdDeviation="2.01042"/>
<feComposite in2="hardAlpha" operator="out"/>
<feColorMatrix type="matrix" values="0 0 0 0 0 0 0 0 0 0 0 0 0 0 0 0 0 0 0.25 0"/>
<feBlend mode="normal" in2="BackgroundImageFix" result="effect1_dropShadow_37_2347"/>
<feBlend mode="normal" in="SourceGraphic" in2="effect1_dropShadow_37_2347" result="shape"/>
</filter>
<filter id="filter16_d_37_2347" x="1297.96" y="263.258" width="59.1217" height="71.777" filterUnits="userSpaceOnUse" color-interpolation-filters="sRGB">
<feFlood flood-opacity="0" result="BackgroundImageFix"/>
<feColorMatrix in="SourceAlpha" type="matrix" values="0 0 0 0 0 0 0 0 0 0 0 0 0 0 0 0 0 0 127 0" result="hardAlpha"/>
<feOffset dy="4.02083"/>
<feGaussianBlur stdDeviation="2.01042"/>
<feComposite in2="hardAlpha" operator="out"/>
<feColorMatrix type="matrix" values="0 0 0 0 0 0 0 0 0 0 0 0 0 0 0 0 0 0 0.25 0"/>
<feBlend mode="normal" in2="BackgroundImageFix" result="effect1_dropShadow_37_2347"/>
<feBlend mode="normal" in="SourceGraphic" in2="effect1_dropShadow_37_2347" result="shape"/>
</filter>
<filter id="filter17_d_37_2347" x="1267.97" y="172.561" width="59.1217" height="71.777" filterUnits="userSpaceOnUse" color-interpolation-filters="sRGB">
<feFlood flood-opacity="0" result="BackgroundImageFix"/>
<feColorMatrix in="SourceAlpha" type="matrix" values="0 0 0 0 0 0 0 0 0 0 0 0 0 0 0 0 0 0 127 0" result="hardAlpha"/>
<feOffset dy="4.02083"/>
<feGaussianBlur stdDeviation="2.01042"/>
<feComposite in2="hardAlpha" operator="out"/>
<feColorMatrix type="matrix" values="0 0 0 0 0 0 0 0 0 0 0 0 0 0 0 0 0 0 0.25 0"/>
<feBlend mode="normal" in2="BackgroundImageFix" result="effect1_dropShadow_37_2347"/>
<feBlend mode="normal" in="SourceGraphic" in2="effect1_dropShadow_37_2347" result="shape"/>
</filter>
<filter id="filter18_d_37_2347" x="1392" y="370.333" width="59.1217" height="71.777" filterUnits="userSpaceOnUse" color-interpolation-filters="sRGB">
<feFlood flood-opacity="0" result="BackgroundImageFix"/>
<feColorMatrix in="SourceAlpha" type="matrix" values="0 0 0 0 0 0 0 0 0 0 0 0 0 0 0 0 0 0 127 0" result="hardAlpha"/>
<feOffset dy="4.02083"/>
<feGaussianBlur stdDeviation="2.01042"/>
<feComposite in2="hardAlpha" operator="out"/>
<feColorMatrix type="matrix" values="0 0 0 0 0 0 0 0 0 0 0 0 0 0 0 0 0 0 0.25 0"/>
<feBlend mode="normal" in2="BackgroundImageFix" result="effect1_dropShadow_37_2347"/>
<feBlend mode="normal" in="SourceGraphic" in2="effect1_dropShadow_37_2347" result="shape"/>
</filter>
<filter id="filter19_d_37_2347" x="1297.96" y="95.7192" width="65.9382" height="71.777" filterUnits="userSpaceOnUse" color-interpolation-filters="sRGB">
<feFlood flood-opacity="0" result="BackgroundImageFix"/>
<feColorMatrix in="SourceAlpha" type="matrix" values="0 0 0 0 0 0 0 0 0 0 0 0 0 0 0 0 0 0 127 0" result="hardAlpha"/>
<feOffset dy="4.02083"/>
<feGaussianBlur stdDeviation="2.01042"/>
<feComposite in2="hardAlpha" operator="out"/>
<feColorMatrix type="matrix" values="0 0 0 0 0 0 0 0 0 0 0 0 0 0 0 0 0 0 0.25 0"/>
<feBlend mode="normal" in2="BackgroundImageFix" result="effect1_dropShadow_37_2347"/>
<feBlend mode="normal" in="SourceGraphic" in2="effect1_dropShadow_37_2347" result="shape"/>
</filter>
<filter id="filter20_d_37_2347" x="1336.12" y="217.91" width="65.9382" height="71.777" filterUnits="userSpaceOnUse" color-interpolation-filters="sRGB">
<feFlood flood-opacity="0" result="BackgroundImageFix"/>
<feColorMatrix in="SourceAlpha" type="matrix" values="0 0 0 0 0 0 0 0 0 0 0 0 0 0 0 0 0 0 127 0" result="hardAlpha"/>
<feOffset dy="4.02083"/>
<feGaussianBlur stdDeviation="2.01042"/>
<feComposite in2="hardAlpha" operator="out"/>
<feColorMatrix type="matrix" values="0 0 0 0 0 0 0 0 0 0 0 0 0 0 0 0 0 0 0.25 0"/>
<feBlend mode="normal" in2="BackgroundImageFix" result="effect1_dropShadow_37_2347"/>
<feBlend mode="normal" in="SourceGraphic" in2="effect1_dropShadow_37_2347" result="shape"/>
</filter>
<filter id="filter21_d_37_2347" x="1381.29" y="314.449" width="94.487" height="48.7428" filterUnits="userSpaceOnUse" color-interpolation-filters="sRGB">
<feFlood flood-opacity="0" result="BackgroundImageFix"/>
<feColorMatrix in="SourceAlpha" type="matrix" values="0 0 0 0 0 0 0 0 0 0 0 0 0 0 0 0 0 0 127 0" result="hardAlpha"/>
<feOffset dy="4.02083"/>
<feGaussianBlur stdDeviation="2.01042"/>
<feComposite in2="hardAlpha" operator="out"/>
<feColorMatrix type="matrix" values="0 0 0 0 0 0 0 0 0 0 0 0 0 0 0 0 0 0 0.25 0"/>
<feBlend mode="normal" in2="BackgroundImageFix" result="effect1_dropShadow_37_2347"/>
<feBlend mode="normal" in="SourceGraphic" in2="effect1_dropShadow_37_2347" result="shape"/>
</filter>
<filter id="filter22_d_37_2347" x="586.055" y="1082.05" width="114.977" height="140.814" filterUnits="userSpaceOnUse" color-interpolation-filters="sRGB">
<feFlood flood-opacity="0" result="BackgroundImageFix"/>
<feColorMatrix in="SourceAlpha" type="matrix" values="0 0 0 0 0 0 0 0 0 0 0 0 0 0 0 0 0 0 127 0" result="hardAlpha"/>
<feOffset dy="4.02083"/>
<feGaussianBlur stdDeviation="2.01042"/>
<feComposite in2="hardAlpha" operator="out"/>
<feColorMatrix type="matrix" values="0 0 0 0 0 0 0 0 0 0 0 0 0 0 0 0 0 0 0.25 0"/>
<feBlend mode="normal" in2="BackgroundImageFix" result="effect1_dropShadow_37_2347"/>
<feBlend mode="normal" in="SourceGraphic" in2="effect1_dropShadow_37_2347" result="shape"/>
</filter>
<filter id="filter23_d_37_2347" x="591.346" y="1092.72" width="91.4707" height="29.8096" filterUnits="userSpaceOnUse" color-interpolation-filters="sRGB">
<feFlood flood-opacity="0" result="BackgroundImageFix"/>
<feColorMatrix in="SourceAlpha" type="matrix" values="0 0 0 0 0 0 0 0 0 0 0 0 0 0 0 0 0 0 127 0" result="hardAlpha"/>
<feOffset dy="4"/>
<feGaussianBlur stdDeviation="2"/>
<feComposite in2="hardAlpha" operator="out"/>
<feColorMatrix type="matrix" values="0 0 0 0 0 0 0 0 0 0 0 0 0 0 0 0 0 0 0.25 0"/>
<feBlend mode="normal" in2="BackgroundImageFix" result="effect1_dropShadow_37_2347"/>
<feBlend mode="normal" in="SourceGraphic" in2="effect1_dropShadow_37_2347" result="shape"/>
</filter>
<filter id="filter24_d_37_2347" x="800.989" y="1065.57" width="93.7389" height="100.57" filterUnits="userSpaceOnUse" color-interpolation-filters="sRGB">
<feFlood flood-opacity="0" result="BackgroundImageFix"/>
<feColorMatrix in="SourceAlpha" type="matrix" values="0 0 0 0 0 0 0 0 0 0 0 0 0 0 0 0 0 0 127 0" result="hardAlpha"/>
<feOffset dy="4.02083"/>
<feGaussianBlur stdDeviation="2.01042"/>
<feComposite in2="hardAlpha" operator="out"/>
<feColorMatrix type="matrix" values="0 0 0 0 0 0 0 0 0 0 0 0 0 0 0 0 0 0 0.25 0"/>
<feBlend mode="normal" in2="BackgroundImageFix" result="effect1_dropShadow_37_2347"/>
<feBlend mode="normal" in="SourceGraphic" in2="effect1_dropShadow_37_2347" result="shape"/>
</filter>
<filter id="filter25_d_37_2347" x="682.139" y="966.794" width="145.135" height="78.7624" filterUnits="userSpaceOnUse" color-interpolation-filters="sRGB">
<feFlood flood-opacity="0" result="BackgroundImageFix"/>
<feColorMatrix in="SourceAlpha" type="matrix" values="0 0 0 0 0 0 0 0 0 0 0 0 0 0 0 0 0 0 127 0" result="hardAlpha"/>
<feOffset dy="4.02083"/>
<feGaussianBlur stdDeviation="2.01042"/>
<feComposite in2="hardAlpha" operator="out"/>
<feColorMatrix type="matrix" values="0 0 0 0 0 0 0 0 0 0 0 0 0 0 0 0 0 0 0.25 0"/>
<feBlend mode="normal" in2="BackgroundImageFix" result="effect1_dropShadow_37_2347"/>
<feBlend mode="normal" in="SourceGraphic" in2="effect1_dropShadow_37_2347" result="shape"/>
</filter>
<filter id="filter26_d_37_2347" x="670.711" y="1073.13" width="100.803" height="55.7964" filterUnits="userSpaceOnUse" color-interpolation-filters="sRGB">
<feFlood flood-opacity="0" result="BackgroundImageFix"/>
<feColorMatrix in="SourceAlpha" type="matrix" values="0 0 0 0 0 0 0 0 0 0 0 0 0 0 0 0 0 0 127 0" result="hardAlpha"/>
<feOffset dy="4"/>
<feGaussianBlur stdDeviation="2"/>
<feComposite in2="hardAlpha" operator="out"/>
<feColorMatrix type="matrix" values="0 0 0 0 0 0 0 0 0 0 0 0 0 0 0 0 0 0 0.25 0"/>
<feBlend mode="normal" in2="BackgroundImageFix" result="effect1_dropShadow_37_2347"/>
<feBlend mode="normal" in="SourceGraphic" in2="effect1_dropShadow_37_2347" result="shape"/>
</filter>
<filter id="filter27_d_37_2347" x="714.139" y="1067.01" width="92.3815" height="117.102" filterUnits="userSpaceOnUse" color-interpolation-filters="sRGB">
<feFlood flood-opacity="0" result="BackgroundImageFix"/>
<feColorMatrix in="SourceAlpha" type="matrix" values="0 0 0 0 0 0 0 0 0 0 0 0 0 0 0 0 0 0 127 0" result="hardAlpha"/>
<feOffset dy="4.02083"/>
<feGaussianBlur stdDeviation="2.01042"/>
<feComposite in2="hardAlpha" operator="out"/>
<feColorMatrix type="matrix" values="0 0 0 0 0 0 0 0 0 0 0 0 0 0 0 0 0 0 0.25 0"/>
<feBlend mode="normal" in2="BackgroundImageFix" result="effect1_dropShadow_37_2347"/>
<feBlend mode="normal" in="SourceGraphic" in2="effect1_dropShadow_37_2347" result="shape"/>
</filter>
<filter id="filter28_d_37_2347" x="81.9792" y="922" width="273.417" height="349.813" filterUnits="userSpaceOnUse" color-interpolation-filters="sRGB">
<feFlood flood-opacity="0" result="BackgroundImageFix"/>
<feColorMatrix in="SourceAlpha" type="matrix" values="0 0 0 0 0 0 0 0 0 0 0 0 0 0 0 0 0 0 127 0" result="hardAlpha"/>
<feOffset dy="4.02083"/>
<feGaussianBlur stdDeviation="2.01042"/>
<feComposite in2="hardAlpha" operator="out"/>
<feColorMatrix type="matrix" values="0 0 0 0 0 0 0 0 0 0 0 0 0 0 0 0 0 0 0.25 0"/>
<feBlend mode="normal" in2="BackgroundImageFix" result="effect1_dropShadow_37_2347"/>
<feBlend mode="normal" in="SourceGraphic" in2="effect1_dropShadow_37_2347" result="shape"/>
</filter>
<filter id="filter29_d_37_2347" x="1022.98" y="168.405" width="252.891" height="341.659" filterUnits="userSpaceOnUse" color-interpolation-filters="sRGB">
<feFlood flood-opacity="0" result="BackgroundImageFix"/>
<feColorMatrix in="SourceAlpha" type="matrix" values="0 0 0 0 0 0 0 0 0 0 0 0 0 0 0 0 0 0 127 0" result="hardAlpha"/>
<feOffset dy="4.02083"/>
<feGaussianBlur stdDeviation="2.01042"/>
<feComposite in2="hardAlpha" operator="out"/>
<feColorMatrix type="matrix" values="0 0 0 0 0 0 0 0 0 0 0 0 0 0 0 0 0 0 0.25 0"/>
<feBlend mode="normal" in2="BackgroundImageFix" result="effect1_dropShadow_37_2347"/>
<feBlend mode="normal" in="SourceGraphic" in2="effect1_dropShadow_37_2347" result="shape"/>
</filter>
<linearGradient id="paint0_linear_37_2347" x1="716.943" y1="126" x2="716.943" y2="1276.96" gradientUnits="userSpaceOnUse">
<stop stop-color="#76736E"/>
<stop offset="1" stop-color="#9A9890"/>
</linearGradient>
<linearGradient id="paint1_linear_37_2347" x1="951.001" y1="958.492" x2="986.001" y2="993.992" gradientUnits="userSpaceOnUse">
<stop offset="0.353111" stop-color="#C2C1B7"/>
<stop offset="1" stop-color="#C2C1B7" stop-opacity="0"/>
</linearGradient>
<linearGradient id="paint2_linear_37_2347" x1="1310.96" y1="708.492" x2="1361.46" y2="711.492" gradientUnits="userSpaceOnUse">
<stop stop-color="#BCB9B0"/>
<stop offset="1" stop-color="#D9D9D9" stop-opacity="0"/>
</linearGradient>
<linearGradient id="paint3_linear_37_2347" x1="721" y1="1204.49" x2="721" y2="1365.49" gradientUnits="userSpaceOnUse">
<stop stop-color="#76736E"/>
<stop offset="0.34375" stop-color="#92908A"/>
<stop offset="1" stop-color="#92908A"/>
</linearGradient>
<linearGradient id="paint4_linear_37_2347" x1="714.235" y1="1190.81" x2="846.308" y2="1210.91" gradientUnits="userSpaceOnUse">
<stop stop-color="#6B6465"/>
<stop offset="1" stop-color="#B6B5AE"/>
</linearGradient>
<linearGradient id="paint5_linear_37_2347" x1="827.742" y1="1185.63" x2="937.046" y2="1183.19" gradientUnits="userSpaceOnUse">
<stop stop-color="#6B6465"/>
<stop offset="1" stop-color="#B4B2AC"/>
</linearGradient>
<linearGradient id="paint6_linear_37_2347" x1="620.287" y1="1211.97" x2="712.871" y2="1241.24" gradientUnits="userSpaceOnUse">
<stop stop-color="#6B6465"/>
<stop offset="1" stop-color="#B8B6B0"/>
</linearGradient>
<linearGradient id="paint7_linear_37_2347" x1="671.589" y1="1187.92" x2="658.216" y2="1230.39" gradientUnits="userSpaceOnUse">
<stop stop-color="#AE806B"/>
<stop offset="1" stop-color="#B29278"/>
</linearGradient>
<linearGradient id="paint8_linear_37_2347" x1="610.64" y1="1180.8" x2="604.361" y2="1224.74" gradientUnits="userSpaceOnUse">
<stop stop-color="#B0826D"/>
<stop offset="1" stop-color="#B29278"/>
</linearGradient>
<linearGradient id="paint9_linear_37_2347" x1="598.609" y1="1153.77" x2="607.74" y2="1126.12" gradientUnits="userSpaceOnUse">
<stop stop-color="#AD806B"/>
<stop offset="0.674683" stop-color="#C99A81"/>
</linearGradient>
<linearGradient id="paint10_linear_37_2347" x1="678.622" y1="1155.38" x2="683.407" y2="1142.38" gradientUnits="userSpaceOnUse">
<stop stop-color="#B0826D"/>
<stop offset="0.901042" stop-color="#C89980"/>
</linearGradient>
<linearGradient id="paint11_linear_37_2347" x1="645.284" y1="1083.21" x2="633.794" y2="1215.27" gradientUnits="userSpaceOnUse">
<stop stop-color="#AD806B"/>
<stop offset="1" stop-color="#C99A81"/>
</linearGradient>
<linearGradient id="paint12_linear_37_2347" x1="636.781" y1="1092.69" x2="637.202" y2="1113.69" gradientUnits="userSpaceOnUse">
<stop stop-color="#8F9D2F"/>
<stop offset="0.932292" stop-color="#697421"/>
<stop offset="1" stop-color="#57601B"/>
</linearGradient>
<linearGradient id="paint13_linear_37_2347" x1="812.393" y1="1078.85" x2="800.342" y2="1066.05" gradientUnits="userSpaceOnUse">
<stop stop-color="#776969"/>
<stop offset="1" stop-color="#625858"/>
</linearGradient>
<linearGradient id="paint14_linear_37_2347" x1="808.715" y1="1074.7" x2="808.715" y2="1133.38" gradientUnits="userSpaceOnUse">
<stop offset="0.286458" stop-color="#C59F81"/>
<stop offset="0.734375" stop-color="#BD9678"/>
<stop offset="1" stop-color="#9C7352"/>
</linearGradient>
<linearGradient id="paint15_linear_37_2347" x1="835.899" y1="1065.57" x2="835.899" y2="1158.1" gradientUnits="userSpaceOnUse">
<stop offset="0.796875" stop-color="#485199"/>
<stop offset="1" stop-color="#353D7C"/>
</linearGradient>
<linearGradient id="paint16_linear_37_2347" x1="865.45" y1="1065.57" x2="865.45" y2="1158.1" gradientUnits="userSpaceOnUse">
<stop offset="0.796875" stop-color="#485199"/>
<stop offset="1" stop-color="#353D7C"/>
</linearGradient>
<linearGradient id="paint17_linear_37_2347" x1="848.479" y1="994.775" x2="848.479" y2="1078.61" gradientUnits="userSpaceOnUse">
<stop offset="0.786458" stop-color="#C49E80"/>
<stop offset="0.96875" stop-color="#B6957B"/>
<stop offset="1" stop-color="#A78B75"/>
</linearGradient>
<linearGradient id="paint18_linear_37_2347" x1="892.384" y1="987.324" x2="892.384" y2="1019.72" gradientUnits="userSpaceOnUse">
<stop stop-color="#C49E80"/>
<stop offset="1" stop-color="#AC8C73"/>
</linearGradient>
<linearGradient id="paint19_linear_37_2347" x1="802.961" y1="987.324" x2="802.961" y2="1019.72" gradientUnits="userSpaceOnUse">
<stop stop-color="#C49E80"/>
<stop offset="1" stop-color="#AC8C73"/>
</linearGradient>
<linearGradient id="paint20_linear_37_2347" x1="719.254" y1="1156.8" x2="727.21" y2="1208.71" gradientUnits="userSpaceOnUse">
<stop stop-color="#A68770"/>
<stop offset="0.0001" stop-color="#B49379"/>
<stop offset="0.0002" stop-color="#BF9A7E"/>
<stop offset="0.661458" stop-color="#C39D80"/>
<stop offset="0.9999" stop-color="#9F8168"/>
</linearGradient>
<linearGradient id="paint21_linear_37_2347" x1="766.772" y1="1153" x2="758.221" y2="1204.91" gradientUnits="userSpaceOnUse">
<stop offset="0.536458" stop-color="#C59E80"/>
<stop offset="1" stop-color="#8B7462"/>
</linearGradient>
<linearGradient id="paint22_linear_37_2347" x1="728.635" y1="1156.28" x2="770.881" y2="1075.71" gradientUnits="userSpaceOnUse">
<stop stop-color="#C59E80"/>
<stop offset="1" stop-color="#B29278"/>
</linearGradient>
<linearGradient id="paint23_linear_37_2347" x1="771.643" y1="1059.96" x2="764.704" y2="1150.66" gradientUnits="userSpaceOnUse">
<stop stop-color="#C59E80"/>
<stop offset="1" stop-color="#B29278"/>
</linearGradient>
<linearGradient id="paint24_linear_37_2347" x1="72.645" y1="0" x2="72.645" y2="51.8228" gradientUnits="userSpaceOnUse">
<stop stop-color="#FFD80B"/>
<stop offset="1" stop-color="#FAE161"/>
</linearGradient>
<linearGradient id="paint25_linear_37_2347" x1="771.871" y1="961.699" x2="756.036" y2="999.694" gradientUnits="userSpaceOnUse">
<stop stop-color="#FFD80B"/>
<stop offset="1" stop-color="#E7CE4F"/>
</linearGradient>
<linearGradient id="paint26_linear_37_2347" x1="732.731" y1="1116.17" x2="664.768" y2="1055.7" gradientUnits="userSpaceOnUse">
<stop offset="0.713542" stop-color="#C59E80"/>
<stop offset="0.875" stop-color="#C09C7F"/>
</linearGradient>
<linearGradient id="paint27_linear_37_2347" x1="1267.72" y1="392.81" x2="1072.5" y2="195.202" gradientUnits="userSpaceOnUse">
<stop stop-color="#6F696A"/>
<stop offset="1" stop-color="#6A6162"/>
</linearGradient>
<linearGradient id="paint28_linear_37_2347" x1="850.999" y1="188.5" x2="919.999" y2="249" gradientUnits="userSpaceOnUse">
<stop stop-color="#706A6A"/>
<stop offset="1" stop-color="#6A6162"/>
</linearGradient>
<linearGradient id="paint29_linear_37_2347" x1="175.402" y1="281.938" x2="94.6753" y2="334.291" gradientUnits="userSpaceOnUse">
<stop stop-color="#706A6A"/>
<stop offset="0.797524" stop-color="#716769"/>
</linearGradient>
<linearGradient id="paint30_linear_37_2347" x1="850.999" y1="188.5" x2="919.999" y2="249" gradientUnits="userSpaceOnUse">
<stop stop-color="#706A6A"/>
<stop offset="1" stop-color="#6A6162"/>
</linearGradient>
<clipPath id="clip0_37_2347">
<rect width="1440" height="1375" fill="white"/>
</clipPath>
</defs>
</svg>
