<svg width="1440" height="1145" viewBox="0 0 1440 1145" fill="none" xmlns="http://www.w3.org/2000/svg">
<g clip-path="url(#clip0_20_4182)">
<path d="M263.446 743.746C139.188 737.324 77.671 746.608 -16 788.516V1145H1433V683.495C1379.41 687.007 1347.44 689.89 1216.38 730.357C1194.16 733.196 1183.06 729.587 1166.12 712.365C1159.55 704.554 1154.06 688.517 1119.38 683.495C1084.7 678.474 1098.18 682.402 1084.7 683.495C1007.38 689.767 953.016 806.089 930.901 788.516C908.787 770.943 923.865 783.076 911.802 774.708C899.74 766.34 869.584 801.068 848.977 806.089C829.704 810.785 772.343 772.399 756.213 773.815C755.742 774.078 754.846 774.379 753.483 774.708C754.178 774.202 755.097 773.913 756.213 773.815C761.24 771.007 717.941 772.449 676.585 788.516C631.351 806.089 524.799 788.516 524.799 788.516C524.799 788.516 366.231 755.447 263.446 743.746Z" fill="url(#paint0_linear_20_4182)"/>
<path d="M-10 724.199C109.742 706.014 176.876 712.913 296.618 724.199C489.55 737.418 575.185 778.128 724.071 856.433C818.768 898.431 869.288 917.394 929.994 898.824C1114.19 875.058 1104.7 876.047 1189.79 876.047C1274.88 876.047 1437.5 921.601 1437.5 921.601V1151.27H-10V724.199Z" fill="url(#paint1_linear_20_4182)"/>
</g>
<defs>
<linearGradient id="paint0_linear_20_4182" x1="708.5" y1="681" x2="708.5" y2="1145" gradientUnits="userSpaceOnUse">
<stop offset="0.197845" stop-color="#91CBE3"/>
<stop offset="1" stop-color="#FBFFFA"/>
</linearGradient>
<linearGradient id="paint1_linear_20_4182" x1="713.75" y1="713" x2="713.75" y2="1151.27" gradientUnits="userSpaceOnUse">
<stop stop-color="#65ADD6"/>
<stop offset="1" stop-color="#D9EECA" stop-opacity="0.5"/>
</linearGradient>
<clipPath id="clip0_20_4182">
<rect width="1440" height="1145" fill="white"/>
</clipPath>
</defs>
</svg>
