<svg width="414" height="386" viewBox="0 0 414 386" fill="none" xmlns="http://www.w3.org/2000/svg">
<g clip-path="url(#clip0_7203_4887)">
<path d="M125.026 271.436C123.323 270.869 120.372 271.139 120.372 271.861L120.372 283.557C120.372 284.186 121.197 284.815 122.671 285.311L595.858 444.432L1080.76 316.516L1080.76 301.617L595.859 428.246L125.026 271.436Z" fill="#061B26"/>
<path d="M122.04 272.667C119.941 271.967 119.974 270.947 122.116 270.388L605.061 144.27L1082.43 303.256L595.608 430.387L122.04 272.667Z" fill="#133141"/>
<path d="M173.158 274.355C171.059 273.656 171.093 272.636 173.234 272.076L604.56 159.438L1031.31 301.567L596.109 415.218L173.158 274.355Z" fill="#476A7D"/>
<path d="M185.498 274.763C183.398 274.064 183.432 273.044 185.573 272.485L234.65 259.668L286.576 276.962L233.622 290.791L185.498 274.763Z" fill="#809CAA"/>
<rect width="54.7301" height="54.7301" transform="matrix(0.967552 -0.25267 0.948765 0.315984 234.65 259.668)" fill="#133141"/>
<rect width="54.7301" height="54.7301" transform="matrix(0.967552 -0.25267 0.948765 0.315984 287.604 245.84)" fill="#809CAA"/>
<rect width="54.7301" height="54.7301" transform="matrix(0.967552 -0.25267 0.948765 0.315984 340.558 232.011)" fill="#133141"/>
<rect width="54.7301" height="54.7301" transform="matrix(0.967552 -0.25267 0.948765 0.315984 393.513 218.183)" fill="#809CAA"/>
<rect width="54.7301" height="54.7301" transform="matrix(-0.967552 0.25267 0.948765 0.315984 442.073 297.286)" fill="#809CAA"/>
<rect width="54.7301" height="54.7301" transform="matrix(-0.967552 0.25267 0.948765 0.315984 389.119 311.114)" fill="#133141"/>
<rect width="54.7301" height="54.7301" transform="matrix(0.967552 -0.25267 0.948765 0.315984 284.675 307.795)" fill="#809CAA"/>
<rect width="54.7301" height="54.7301" transform="matrix(0.967552 -0.25267 0.948765 0.315984 337.629 293.966)" fill="#133141"/>
<rect width="54.7301" height="54.7301" transform="matrix(0.967552 -0.25267 0.948765 0.315984 390.583 280.138)" fill="#809CAA"/>
<rect width="54.7301" height="54.7301" transform="matrix(-0.967552 0.25267 0.948765 0.315984 445.002 235.331)" fill="#809CAA"/>
<rect width="54.7301" height="54.7301" transform="matrix(-0.967552 0.25267 0.948765 0.315984 392.048 249.16)" fill="#133141"/>
<rect width="54.7301" height="54.7301" transform="matrix(-0.967552 0.25267 0.948765 0.315984 339.094 262.989)" fill="#809CAA"/>
<rect width="54.7301" height="54.7301" transform="matrix(-0.967552 0.25267 0.948765 0.315984 286.14 276.817)" fill="#133141"/>
<rect width="54.7301" height="54.7301" transform="matrix(0.967552 -0.25267 0.948765 0.315984 387.654 342.092)" fill="#809CAA"/>
<path opacity="0.45" d="M533.786 235.792L315 175.816L343.651 161.19L622.743 194.048C622.743 194.048 610.922 227.908 587.681 235.792C564.44 243.676 533.786 235.792 533.786 235.792Z" fill="#031119"/>
<path d="M334.262 122.325C335.927 122.683 335.946 124.621 335.747 125.546C343.972 124.411 348.327 131.152 348.917 138.534C349.611 138.683 352.631 141.508 353.422 144.58C354.806 149.957 358.101 149.816 360.156 150.381L371.946 152.914C377.493 154.107 379.477 151.631 381.162 150.542C382.847 149.453 385.426 144.203 386.91 147.424C388.098 150.001 387.699 153.881 387.351 155.5L390.125 156.096C390.423 154.709 399.691 148.72 407.663 155.512C414.497 161.333 411.872 176.44 402.596 179.09C393.321 181.74 388.331 174.574 386.996 170.659L384.222 170.063C383.924 171.45 382.336 175.462 380.502 177.244C379.035 178.67 378.041 177.441 377.728 176.648C376.504 168.84 371.575 165.894 369.263 165.397L357.473 162.864C352.619 161.82 350.636 164.296 347.959 166.623C345.818 168.485 343.334 169.015 342.36 169.047C335.27 178.407 328.73 178.452 324.472 174.635C323.876 177.409 322.439 177.342 321.795 176.962C319.22 175.441 320.246 171.792 320.363 170.124C320.965 157.194 328.462 129.059 329.752 126.434C331.003 123.888 332.182 121.878 334.262 122.325Z" fill="#0B1C25"/>
<mask id="mask0_7203_4887" style="mask-type:alpha" maskUnits="userSpaceOnUse" x="320" y="122" width="92" height="58">
<path d="M334.263 122.324C335.927 122.682 335.946 124.62 335.747 125.545C343.972 124.41 348.327 131.151 348.917 138.533C349.611 138.682 352.631 141.507 353.422 144.579C354.806 149.956 358.101 149.815 360.156 150.38L371.946 152.913C377.494 154.106 379.477 151.63 381.162 150.541C382.847 149.452 385.426 144.202 386.911 147.423C388.098 150 387.699 153.88 387.352 155.499L390.126 156.095C390.424 154.708 399.692 148.719 407.664 155.511C414.497 161.332 411.872 176.439 402.596 179.089C393.321 181.74 388.331 174.573 386.996 170.658L384.222 170.062C383.924 171.449 382.336 175.461 380.502 177.243C379.035 178.669 378.041 177.44 377.728 176.647C376.504 168.839 371.575 165.893 369.263 165.396L357.474 162.863C352.619 161.819 350.636 164.295 347.96 166.622C345.818 168.484 343.334 169.014 342.36 169.046C335.27 178.406 328.731 178.451 324.472 174.634C323.876 177.408 322.439 177.341 321.795 176.961C319.22 175.44 320.246 171.791 320.363 170.123C320.965 157.193 328.462 129.058 329.752 126.433C331.003 123.887 332.182 121.877 334.263 122.324Z" fill="#D3E3EB"/>
</mask>
<g mask="url(#mask0_7203_4887)">
<path d="M323.092 166.085C324.757 166.442 328.498 161.529 328.299 162.454C329.373 165.795 334.699 171.856 343.017 162.16C343.711 162.309 348.873 156.484 349.663 159.556C351.047 164.932 355.543 159.998 357.598 160.563L369.387 163.097C374.935 164.289 376.009 164.532 377.657 164.944C379.603 165.432 379.603 166.073 381.699 166.598C384.452 167.288 385.066 164.364 384.718 165.982L387.492 166.578C389.152 169.255 393.008 172.927 397.202 173.977C403.625 175.585 408.437 172.652 409.898 170.948C411.511 169.068 410.906 175.824 402.588 179.088C393.608 182.611 388.323 174.571 386.988 170.656L384.214 170.06C383.916 171.447 382.328 175.459 380.494 177.242C379.027 178.668 378.033 177.438 377.72 176.645C376.496 168.837 371.567 165.891 369.255 165.394L357.466 162.861C352.611 161.818 350.628 164.294 347.951 166.62C345.81 168.482 343.326 169.012 342.352 169.045C335.262 178.404 328.722 178.45 324.464 174.632C323.868 177.406 322.431 177.339 321.787 176.959C319.212 175.438 320.238 171.789 320.355 170.122C320.957 157.192 322.88 151.043 323.885 148.297C325.189 144.736 321.012 165.638 323.092 166.085Z" fill="#020E14"/>
<path d="M384.137 170.466C384.432 166.339 386.156 158.756 387.156 155.612L390.124 156.117C387.574 161.459 387.231 168.347 387.26 171.187L384.137 170.466Z" fill="#020E14"/>
</g>
<path opacity="0.45" d="M414.713 310.473L11 207.491L269.657 156L672.568 235.741L414.713 310.473Z" fill="#031119"/>
<path d="M118.682 224.797C119.777 228.146 123.083 234.54 127.055 234.271C127.209 234.253 127.356 234.234 127.497 234.213C127.349 234.242 127.202 234.261 127.055 234.271C123.646 234.672 117.247 234.537 112.07 232.811C114.474 232.744 119.163 231.048 118.682 224.797Z" fill="#A1948F"/>
<path d="M59.5772 82.5954C58.2699 79.3231 54.5606 73.1547 50.6137 73.6774C50.4617 73.7052 50.3159 73.7338 50.1765 73.7629C50.3225 73.725 50.4683 73.6966 50.6137 73.6774C53.9902 73.0586 60.3854 72.7838 65.6619 74.1742C63.2669 74.3949 58.6969 76.388 59.5772 82.5954Z" fill="#958681"/>
<path d="M257.089 10.9775C257.089 10.9775 290.171 32.5153 291.187 33.659C292.202 34.8026 293.992 36.6643 293.992 36.6643L287.58 34.5481L58.6865 74.1996C57.478 74.409 56.2401 74.0533 55.327 73.2343L24.6079 45.6802L20.5088 44.8788L22.7127 43.877L257.089 10.9775Z" fill="#A69A96"/>
<g filter="url(#filter0_i_7203_4887)">
<path d="M111.78 232.79L-38.5298 199.955C-42.7728 101.759 -2.45361 56.6665 20.3151 45.0113C21.7102 44.2971 23.3811 44.5828 24.5481 45.6289L55.8917 73.722C56.3397 74.1235 56.6915 74.6208 56.9211 75.1768L118.619 224.624C120.47 229.108 116.52 233.825 111.78 232.79Z" fill="#D3CDCC"/>
</g>
<path d="M111.771 232.776L-9.54417 206.164C-13.8296 106.987 21.184 75.3061 43.5232 64.8491C44.516 64.3843 45.676 64.5818 46.4929 65.3127L56.2311 74.0258C56.4557 74.2268 56.6321 74.4758 56.7471 74.7544L118.614 224.612C120.467 229.098 116.512 233.816 111.771 232.776Z" fill="#CCC4C1"/>
<path d="M111.717 232.747L36.7374 216.182C34.333 182.456 39.7427 140.047 76.4074 123.218L118.564 224.57C120.432 229.062 116.468 233.797 111.717 232.747Z" fill="#C5BBB7"/>
<path d="M121.063 230.566L59.2205 81.4159C57.7476 77.8636 59.9432 73.8611 63.7305 73.1942L287.766 33.746C290.476 33.2688 293.164 34.693 294.292 37.2033L356.268 175.215C357.824 178.681 355.814 182.704 352.108 183.54L127.939 234.127C125.086 234.771 122.184 233.268 121.063 230.566Z" fill="#72635E"/>
<g filter="url(#filter1_i_7203_4887)">
<path d="M53.8152 49.9863V46.8467L68.7137 60.177V63.3105C68.7137 63.695 69.9027 64.606 70.397 65.1137C70.397 65.1137 68.9945 65.5144 68.7137 65.4828L54.9584 52.6205C54.2291 51.9385 53.8152 50.9848 53.8152 49.9863Z" fill="#D3CDCC"/>
<path d="M53.741 46.8828L161.425 29.013L245.805 0.63044C246.987 0.233025 248.286 0.408104 249.32 1.10411L269.148 14.4486C269.223 14.4486 269.548 14.6258 269.548 15.0265L268.747 14.4486L174.755 41.5591L68.1125 60.3784L53.741 46.8828Z" fill="#B8AFAC"/>
<path d="M173.379 41.8733L159.955 29.251H161.157L174.982 41.4725L173.379 41.8733Z" fill="#AB9D97"/>
<path d="M268.611 14.4115L174.755 41.5599V47.0489L267.028 29.5093C268.541 29.2218 269.635 27.8997 269.635 26.3601V15.1813C269.635 14.6478 269.124 14.2632 268.611 14.4115Z" fill="#72635E"/>
<path d="M174.781 47.0443L69.1326 65.5521C68.6421 65.638 68.1929 65.2606 68.1929 64.7627V60.2878L174.781 41.541V47.0443Z" fill="#72635E"/>
</g>
<path d="M328.065 149.708L122.503 190.851C122.13 190.926 121.756 190.727 121.608 190.377L98.6087 135.933C98.409 135.46 98.6991 134.924 99.2042 134.832L305.394 97.4845C305.758 97.4186 306.12 97.6107 306.27 97.9493L328.641 148.598C328.848 149.067 328.568 149.607 328.065 149.708Z" fill="#746560"/>
<path d="M192.919 200.411L133.265 212.958C132.168 213.189 131.099 212.474 130.86 211.379C129.658 205.878 128.095 202.065 124.709 196.701C123.946 195.491 124.612 193.873 126.015 193.595L185.748 181.765C186.499 181.616 187.274 181.91 187.728 182.526C191.99 188.316 193.588 192.177 194.472 198.217C194.623 199.243 193.934 200.197 192.919 200.411Z" fill="#D3CDCC"/>
<path d="M264.846 185.985L205.191 198.533C204.095 198.763 203.026 198.048 202.787 196.953C201.585 191.453 200.022 187.639 196.636 182.275C195.872 181.065 196.538 179.447 197.942 179.169L257.675 167.339C258.426 167.19 259.2 167.484 259.654 168.101C263.917 173.891 265.515 177.751 266.399 183.791C266.549 184.817 265.861 185.771 264.846 185.985Z" fill="#D3CDCC"/>
<path d="M203.436 197.549L266.426 184.005L266.576 185.607L203.546 199.099L203.436 197.549Z" fill="#A1948F"/>
<path d="M130.936 212.376L194.299 198.752L194.448 200.355L131.044 213.926L130.936 212.376Z" fill="#A1948F"/>
<path d="M335.17 171.561L275.516 184.109C274.419 184.339 273.351 183.624 273.102 182.531C271.85 177.052 270.046 173.343 266.597 168.004C265.821 166.803 266.485 165.186 267.887 164.907L327.997 152.917C328.75 152.767 329.525 153.061 329.98 153.678C334.242 159.467 335.839 163.328 336.724 169.368C336.874 170.393 336.185 171.348 335.17 171.561Z" fill="#D3CDCC"/>
<path d="M275.556 169.889L274 170.334C275.6 172.645 276.741 175.667 277.111 177L278.667 176.556C278.133 173.889 276.37 171 275.556 169.889Z" fill="#564D4A"/>
<path d="M278.889 169L277.333 169.444C278.933 171.756 280.074 174.778 280.444 176.111L282 175.667C281.467 173 279.704 170.111 278.889 169Z" fill="#564D4A"/>
<path d="M273.569 182.961L336.751 169.617L336.895 171.22L273.672 184.511L273.569 182.961Z" fill="#A1948F"/>
<path d="M130.829 212.83L124.373 196.111C124.217 195.707 124.718 195.382 124.983 195.725C125.845 196.841 126.945 198.831 128.873 203.76C130.431 207.742 131.126 210.792 131.383 212.712C131.44 213.14 130.985 213.233 130.829 212.83Z" fill="white"/>
<path d="M203.329 198.704L196.377 181.766C196.21 181.361 196.639 181.096 196.884 181.459C197.76 182.759 198.903 184.945 201.001 189.535C202.815 193.504 203.6 196.637 203.88 198.579C203.941 199.003 203.491 199.1 203.329 198.704Z" fill="white"/>
<path d="M273.452 184.131L266.347 167.39C266.175 166.984 266.641 166.68 266.904 167.034C267.835 168.281 269.058 170.387 271.125 174.909C272.954 178.91 273.736 182.061 274.011 184C274.07 184.421 273.618 184.522 273.452 184.131Z" fill="white"/>
<path d="M137.123 202.958L136.292 201.367L141.017 200.395L141.849 201.985L137.123 202.958ZM182.611 196.477L181.163 193.707L178.102 194.337L177.166 192.547L180.228 191.917L178.794 189.176L180.757 188.772L182.19 191.514L185.251 190.884L186.187 192.673L183.126 193.303L184.574 196.073L182.611 196.477Z" fill="#70605A"/>
<path d="M108.228 124.048L101.633 109.866L106.277 109.063C111.428 108.171 115.602 110.263 117.741 114.861C119.842 119.378 118.112 122.338 112.85 123.248L108.228 124.048ZM110.337 120.517L111.133 120.38C114.273 119.836 115.78 118.762 114.191 115.344C112.658 112.047 110.469 111.503 107.573 112.004L106.467 112.195L110.337 120.517ZM132.062 119.923L129.951 117.694L124.158 118.697L124.279 121.27L120.498 121.924L120.315 106.633L122.858 106.193L135.843 119.268L132.062 119.923ZM124.011 115.556L127.394 114.971L123.812 111.172L124.011 115.556ZM138.582 118.794L135.98 113.199L126.15 105.623L130.24 104.915L136.21 109.839L137.139 103.721L141.23 103.013L139.452 112.598L142.054 118.193L138.582 118.794ZM153.521 116.538C150.315 117.093 146.971 115.759 145.249 113.134L148.329 111.743C149.259 113.385 150.725 113.967 152.272 113.699C153.4 113.503 154.092 112.834 153.591 111.756C153.288 111.105 152.353 110.739 149.991 110.334C146.129 109.684 144.414 108.771 143.402 106.594C142.304 104.234 143.54 102.217 146.57 101.693C148.714 101.321 150.865 101.939 152.711 103.598L150.603 105.743C149.656 104.786 148.659 104.387 147.774 104.54C146.978 104.678 146.533 105.261 146.845 105.932C147.167 106.624 147.991 107.009 150.571 107.42C154.436 108.026 155.971 108.859 156.907 110.874C158.213 113.682 156.661 115.995 153.521 116.538ZM177.524 112.054L170.928 97.8722L174.4 97.2714L176.907 102.663L182.899 101.626L180.392 96.2342L183.863 95.6334L190.458 109.815L186.987 110.416L184.262 104.556L178.27 105.593L180.995 111.453L177.524 112.054ZM205.974 107.13L201.949 107.826L195.769 102.806L194.906 102.956L194.575 103.013L197.196 108.649L193.746 109.246L187.151 95.0642L192.568 94.1266C196.46 93.453 198.695 94.8689 199.868 97.3919C200.805 99.4063 200.469 100.893 199.038 101.823L205.974 107.13ZM193.212 100.083L194.826 99.8036C195.932 99.6122 197.031 99.356 196.416 98.0335C195.81 96.7313 194.661 96.9303 193.577 97.1178L191.963 97.3972L193.212 100.083ZM212.315 106.362C209.109 106.917 205.766 105.583 204.043 102.957L207.123 101.566C208.054 103.208 209.519 103.79 211.067 103.522C212.194 103.327 212.886 102.657 212.385 101.579C212.082 100.928 211.147 100.562 208.785 100.158C204.923 99.507 203.209 98.5945 202.196 96.4174C201.098 94.0572 202.335 92.0404 205.364 91.5161C207.509 91.1449 209.659 91.762 211.506 93.421L209.398 95.5666C208.451 94.6093 207.453 94.2104 206.568 94.3635C205.772 94.5013 205.327 95.0841 205.639 95.7555C205.961 96.4473 206.785 96.8323 209.365 97.2431C213.23 97.8492 214.765 98.6828 215.702 100.697C217.007 103.505 215.455 105.818 212.315 106.362ZM241.331 85.6864L246.284 84.8291L252.879 99.011L249.407 99.6119L244.951 90.0284L245.671 98.8734L242.333 99.4513L235.351 91.7339L239.789 101.277L236.318 101.878L229.723 87.6956L234.675 86.8384L242.19 95.3429L241.331 85.6864ZM256.168 98.4416L249.573 84.2598L253.044 83.6589L259.64 97.8408L256.168 98.4416ZM265.691 81.4699L269.162 80.8691L275.758 95.0509L272.198 95.6671L262.364 87.9816L266.405 96.6698L262.933 97.2707L256.338 83.0888L259.876 82.4764L269.713 90.1174L265.691 81.4699ZM283.878 93.9752C280.672 94.5301 277.328 93.1963 275.605 90.5705L278.685 89.1799C279.616 90.8216 281.081 91.4034 282.629 91.1355C283.756 90.9403 284.449 90.2709 283.947 89.1925C283.644 88.5414 282.71 88.1755 280.347 87.771C276.485 87.1204 274.771 86.208 273.758 84.0308C272.661 81.6706 273.897 79.6539 276.926 79.1296C279.071 78.7583 281.221 79.3754 283.068 81.0344L280.96 83.1801C280.013 82.2227 279.015 81.8238 278.131 81.9769C277.335 82.1147 276.889 82.6975 277.201 83.3689C277.523 84.0607 278.347 84.4457 280.927 84.8566C284.793 85.4626 286.327 86.2963 287.264 88.3106C288.57 91.1185 287.017 93.4318 283.878 93.9752Z" fill="white"/>
<path d="M113.997 92.9557L111.291 93.408L106.586 89.5329L105.905 89.6467L105.407 89.7299L107.391 94.0601L105.067 94.4486L100.182 83.7838L104.099 83.129C106.938 82.6545 108.637 83.6718 109.506 85.5691C110.207 87.0992 109.908 88.2033 108.783 88.8691L113.997 92.9557ZM104.496 87.7408L105.857 87.5133C106.936 87.3329 107.649 87.0161 107.179 85.991C106.717 84.9811 105.85 84.9613 104.771 85.1417L103.41 85.3692L104.496 87.7408ZM120.335 87.8111C120.44 88.0406 120.522 88.2576 120.615 88.5386L115.12 89.457C115.585 90.236 116.425 90.705 117.603 90.508C118.284 90.3942 118.833 90.0718 119.088 89.4197L121.231 90.4288C120.764 91.4786 119.86 92.1569 118.449 92.3928C115.527 92.8812 113.482 91.1475 112.578 89.1737C111.695 87.2457 111.885 85.0067 114.707 84.535C117.263 84.1077 119.326 85.6078 120.335 87.8111ZM114.382 87.8838L117.801 87.3122C117.39 86.4915 116.412 86.1114 115.482 86.2668C114.337 86.4583 114.201 87.2551 114.382 87.8838ZM126.289 89.5832C128.403 89.477 130.377 89.3777 131.176 91.122C131.933 92.7745 130.666 93.7934 128.441 94.1652C126.035 94.5675 124.118 93.9326 123.424 92.4178C123.354 92.2648 123.307 92.1243 123.284 91.9963L124.227 91.2457C123.489 91.0396 122.843 90.604 122.472 89.7931C122.17 89.1351 122.219 88.6164 122.484 88.1437C121.859 87.754 121.354 87.1961 121.052 86.5382C120.274 84.8398 121.325 83.4286 123.185 83.1178C123.865 83.0041 124.583 83.0489 125.264 83.248L126.079 82.0245L127.853 83.1281L127.072 84.2306C127.446 84.5798 127.759 84.9888 127.976 85.4632C128.747 87.1463 127.784 88.4768 125.858 88.7987C125.277 88.8958 124.704 88.8928 124.155 88.7869C124.114 88.8925 124.12 89.0233 124.177 89.1457C124.408 89.6506 125.211 89.6482 126.289 89.5832ZM124.01 84.8413C123.246 84.9689 123.008 85.5029 123.317 86.1761C123.611 86.8188 124.222 87.2932 125.068 87.1517C125.881 87.0158 126.008 86.4345 125.707 85.7766C125.392 85.088 124.757 84.7164 124.01 84.8413ZM127.84 92.6184C128.77 92.463 129.236 92.1545 129.061 91.772C128.809 91.2211 127.758 91.3473 126.656 91.3997C126.45 91.4177 126.254 91.4176 126.04 91.4203L125.688 92.0557C125.686 92.0891 125.707 92.135 125.721 92.1656C125.959 92.6858 126.844 92.7849 127.84 92.6184ZM128.202 81.1261L127.339 79.2441L129.663 78.8557L130.525 80.7377L128.202 81.1261ZM132.258 89.9033L128.802 82.36L131.06 81.9826L134.515 89.5259L132.258 89.9033ZM139.435 88.8847C137.676 89.1788 135.888 88.3575 134.995 87.3044L136.434 86.2731C136.851 86.7141 137.496 87.3805 138.608 87.1946C139.421 87.0586 139.545 86.6262 139.404 86.3201C138.872 85.1573 135.12 86.5256 133.866 83.7868C133.144 82.2108 134.332 81.2544 135.859 80.9992C137.32 80.755 138.693 81.2173 139.787 82.1217L138.467 83.2977C138.029 82.9262 137.394 82.4392 136.531 82.5835C135.983 82.675 135.78 82.9726 135.913 83.2633C136.404 84.3344 140.231 82.9368 141.514 85.7369C142.348 87.5577 140.979 88.6266 139.435 88.8847ZM146.165 81.2037L144.107 81.5478L145.705 85.0364C145.908 85.4801 146.31 85.8906 147.14 85.7518C147.456 85.6991 147.776 85.5796 148.092 85.4115L148.842 87.0487C148.405 87.303 147.925 87.4655 147.377 87.5571C145.917 87.8013 144.354 87.3542 143.541 85.5793L141.866 81.9224L140.538 82.1444L139.795 80.5225L141.123 80.3005L140.534 79.0152L142.074 77.1105L143.364 79.9259L145.422 79.5818L146.165 81.2037ZM151.357 78.4085C151.905 78.3169 152.466 78.3714 153.161 78.6011L152.93 80.6329C152.611 80.5215 152.18 80.4782 151.782 80.5448C150.736 80.7196 150.443 81.4441 151.073 82.8212L152.749 86.4781L150.491 86.8554L147.036 79.3121L149.31 78.9319L149.857 80.1254C149.829 79.2075 150.461 78.5583 151.357 78.4085ZM157.203 77.4313C159.444 77.0567 161.34 77.9587 162.167 79.7642L164.354 84.5381L162.296 84.8821L161.73 84.0377C161.5 84.8999 160.713 85.3279 159.883 85.4667C158.107 85.7636 156.345 84.9215 155.665 83.4373C155.259 82.5498 155.396 81.835 155.982 81.3583C156.401 81.0247 157.016 80.8066 157.846 80.6678L160.004 80.3071L159.926 80.1388C159.611 79.4502 158.86 79.0981 157.93 79.2535C157.2 79.3756 156.636 79.7828 156.288 80.5824L154.086 79.5996C154.605 78.3927 155.742 77.6755 157.203 77.4313ZM159.463 83.6919C160.509 83.5171 161.087 82.7121 160.704 81.8372L158.862 82.1452C158.397 82.2229 158.11 82.3368 157.974 82.5078C157.831 82.6635 157.815 82.8638 157.92 83.0933C158.13 83.5523 158.7 83.8196 159.463 83.6919ZM168.256 77.5109L166.198 77.855L167.796 81.3436C167.999 81.7873 168.402 82.1978 169.232 82.059C169.547 82.0063 169.868 81.8868 170.184 81.7187L170.934 83.3559C170.496 83.6102 170.017 83.7727 169.469 83.8643C168.008 84.1085 166.445 83.6614 165.632 81.8865L163.957 78.2296L162.629 78.4516L161.886 76.8297L163.214 76.6077L162.625 75.3224L164.165 73.4177L165.455 76.2331L167.513 75.889L168.256 77.5109ZM168.64 74.3665L167.778 72.4845L170.101 72.096L170.964 73.978L168.64 74.3665ZM172.696 83.1437L169.241 75.6003L171.498 75.223L174.953 82.7663L172.696 83.1437ZM180.687 81.9891C178.097 82.4219 175.689 80.8314 174.729 78.7351C173.762 76.6236 174.471 74.5447 177.077 74.1091C179.667 73.6762 182.061 75.2362 183.029 77.3478C183.989 79.444 183.26 81.559 180.687 81.9891ZM179.853 80.1683C181.28 79.9296 181.285 78.8087 180.788 77.7223C180.283 76.6207 179.349 75.6732 177.905 75.9146C176.477 76.1532 176.465 77.2589 176.97 78.3605C177.46 79.4316 178.409 80.4097 179.853 80.1683ZM187.388 72.3856C189.264 72.0721 190.819 72.9322 191.611 74.6612L193.875 79.6034L191.634 79.978L189.672 75.6937C189.419 75.1429 188.929 74.0718 187.518 74.3077C185.825 74.5907 186.533 76.1361 187.03 77.2224L188.53 80.4968L186.272 80.8742L182.817 73.3309L185.075 72.9535L185.432 73.7338C185.707 72.9301 186.458 72.541 187.388 72.3856ZM203.621 78.1554C201.032 78.5882 198.623 76.9977 197.663 74.9014C196.696 72.7899 197.406 70.711 200.012 70.2754C202.601 69.8425 204.996 71.4025 205.963 73.5141C206.923 75.6103 206.194 77.7253 203.621 78.1554ZM202.787 76.3346C204.215 76.0959 204.22 74.975 203.722 73.8886C203.217 72.787 202.283 71.8395 200.839 72.0809C199.411 72.3195 199.399 73.4252 199.904 74.5268C200.395 75.5979 201.343 76.576 202.787 76.3346ZM210.189 68.5741C212.397 68.2051 214.377 69.719 215.401 71.9529C216.557 74.4776 215.691 76.1378 213.799 76.4541C212.952 76.5956 211.925 76.4213 211.173 75.9871L212.911 79.7817L210.653 80.1591L205.768 69.4944L208.026 69.117L208.32 69.7597C208.635 69.0811 209.409 68.7045 210.189 68.5741ZM212.367 74.7332C213.546 74.5362 213.79 73.7046 213.153 72.3122C212.515 70.9198 211.621 70.295 210.459 70.4893C209.065 70.7223 208.98 71.7083 209.534 72.9171C210.081 74.1106 211.039 74.9551 212.367 74.7332ZM224.19 70.4507C224.295 70.6802 224.377 70.8972 224.47 71.1782L218.975 72.0966C219.439 72.8756 220.28 73.3446 221.458 73.1476C222.139 73.0339 222.688 72.7114 222.943 72.0593L225.085 73.0684C224.619 74.1182 223.715 74.7965 222.304 75.0324C219.382 75.5208 217.337 73.7871 216.433 71.8133C215.55 69.8854 215.74 67.6463 218.562 67.1746C221.118 66.7473 223.181 68.2474 224.19 70.4507ZM218.237 70.5234L221.656 69.9518C221.245 69.1311 220.266 68.751 219.337 68.9064C218.192 69.0979 218.056 69.8947 218.237 70.5234ZM228.6 65.4966C230.476 65.1831 232.031 66.0432 232.823 67.7722L235.087 72.7144L232.846 73.089L230.884 68.8047C230.631 68.2539 230.141 67.1828 228.73 67.4187C227.037 67.7017 227.744 69.2471 228.242 70.3335L229.742 73.6078L227.484 73.9852L224.029 66.4419L226.287 66.0645L226.644 66.8448C226.919 66.0411 227.67 65.652 228.6 65.4966ZM239.833 72.1022C238.074 72.3963 236.286 71.575 235.392 70.5219L236.832 69.4906C237.249 69.9316 237.893 70.598 239.006 70.4121C239.819 70.2761 239.942 69.8437 239.802 69.5376C239.27 68.3748 235.518 69.7431 234.264 67.0043C233.542 65.4283 234.73 64.4719 236.257 64.2167C237.718 63.9725 239.091 64.4348 240.184 65.3392L238.865 66.5152C238.426 66.1437 237.792 65.6567 236.929 65.801C236.381 65.8925 236.178 66.1901 236.311 66.4808C236.802 67.5519 240.629 66.1543 241.912 68.9544C242.746 70.7752 241.377 71.8441 239.833 72.1022ZM244.758 61.6426L243.896 59.7606L246.22 59.3721L247.082 61.2541L244.758 61.6426ZM248.814 70.4198L245.359 62.8764L247.616 62.4991L251.071 70.0424L248.814 70.4198ZM254.424 61.1799C256.3 60.8663 257.855 61.7264 258.647 63.4554L260.911 68.3976L258.67 68.7722L256.708 64.488C256.455 63.9371 255.965 62.8661 254.554 63.1019C252.861 63.385 253.568 64.9303 254.066 66.0167L255.566 69.2911L253.308 69.6685L249.853 62.1251L252.111 61.7478L252.468 62.5281C252.743 61.7244 253.494 61.3353 254.424 61.1799ZM261.016 62.8782L260.056 60.782L262.446 60.3825L263.406 62.4787L261.016 62.8782ZM263.357 67.9887L262.404 65.9078L264.794 65.5083L265.747 67.5892L263.357 67.9887Z" fill="white"/>
<path d="M211.532 184.427C212.297 184.273 212.946 184.604 213.294 185.302L214.288 187.296L213.375 187.48L212.513 185.751C212.402 185.529 212.187 185.097 211.612 185.213C210.922 185.351 211.233 185.975 211.451 186.413L212.11 187.735L211.19 187.92L209.673 184.876L210.592 184.691L210.749 185.006C210.851 184.673 211.154 184.503 211.532 184.427ZM215.697 187.013L213.138 184.178L214.112 183.982L215.517 185.636L215.194 183.765L215.972 183.608L217.398 185.244L217.054 183.39L218.035 183.193L218.504 186.448L217.693 186.611L216.178 184.871L216.523 186.847L215.697 187.013ZM220.127 186.121L217.981 181.818L218.935 181.626L219.775 183.311L221.723 182.919L220.882 181.234L221.836 181.042L223.982 185.345L223.028 185.537L222.12 183.716L220.172 184.108L221.08 185.929L220.127 186.121ZM224.761 181.764C225.674 181.58 226.464 181.924 226.827 182.653L227.787 184.579L226.949 184.748L226.705 184.41C226.623 184.766 226.306 184.952 225.968 185.02C225.244 185.166 224.511 184.845 224.212 184.246C224.034 183.888 224.08 183.593 224.314 183.39C224.481 183.247 224.73 183.15 225.068 183.081L225.948 182.904L225.914 182.837C225.775 182.559 225.463 182.425 225.084 182.501C224.786 182.561 224.561 182.735 224.429 183.068L223.513 182.695C223.71 182.193 224.166 181.884 224.761 181.764ZM225.772 184.299C226.198 184.213 226.424 183.875 226.255 183.522L225.505 183.673C225.315 183.711 225.199 183.762 225.146 183.834C225.089 183.899 225.085 183.982 225.132 184.074C225.224 184.259 225.461 184.361 225.772 184.299ZM229.989 184.211C228.859 184.438 227.944 183.753 227.55 182.962C227.15 182.16 227.28 181.257 228.396 181.032C229.08 180.895 229.755 181.085 230.313 181.652L229.604 182.141C229.386 181.852 229.057 181.701 228.76 181.761C228.239 181.866 228.272 182.335 228.49 182.773C228.706 183.205 229.088 183.584 229.609 183.479C229.906 183.419 230.051 183.186 229.977 182.875L230.95 183.005C231.01 183.618 230.665 184.075 229.989 184.211ZM231.966 183.738L229.82 179.435L230.74 179.249L231.925 181.627L232.457 180.29L233.681 180.043L233.029 181.452L235.327 183.061L234.238 183.281L232.651 182.126L232.442 182.664L232.886 183.553L231.966 183.738ZM236.828 182.834C236.111 182.978 235.368 182.666 234.987 182.247L235.563 181.805C235.74 181.98 236.013 182.244 236.466 182.153C236.798 182.086 236.842 181.907 236.781 181.784C236.547 181.314 235.028 181.926 234.477 180.821C234.16 180.185 234.634 179.777 235.256 179.652C235.851 179.532 236.42 179.703 236.881 180.058L236.356 180.558C236.171 180.412 235.905 180.221 235.553 180.292C235.33 180.337 235.251 180.461 235.309 180.578C235.525 181.011 237.074 180.386 237.637 181.516C238.004 182.251 237.457 182.707 236.828 182.834ZM241.518 180.946L243.338 180.579L243.732 181.37L240.417 182.037L240.079 181.358C240.623 180.793 241.644 179.616 241.164 178.653C240.991 178.307 240.676 178.078 240.25 178.164C239.696 178.276 239.768 178.764 239.941 179.157L239.011 179.276C238.626 178.504 238.792 177.567 239.867 177.351C240.74 177.175 241.643 177.598 242.055 178.426C242.474 179.265 242.166 180.306 241.518 180.946ZM246.176 180.946C244.654 181.252 243.831 179.944 243.387 179.054C242.953 178.184 242.427 176.815 243.935 176.512C245.383 176.22 246.24 177.447 246.711 178.392C247.192 179.355 247.596 180.66 246.176 180.946ZM245.762 180.146C246.418 180.014 246.109 179.288 245.761 178.59C245.397 177.862 245.005 177.18 244.336 177.314C243.673 177.448 243.973 178.155 244.337 178.884C244.684 179.581 245.086 180.282 245.762 180.146ZM249.646 179.31L251.465 178.943L251.859 179.734L248.545 180.401L248.207 179.722C248.751 179.157 249.772 177.98 249.292 177.017C249.119 176.671 248.804 176.442 248.378 176.528C247.823 176.64 247.896 177.128 248.069 177.521L247.139 177.64C246.754 176.868 246.92 175.931 247.995 175.715C248.868 175.539 249.771 175.962 250.183 176.79C250.602 177.629 250.294 178.67 249.646 179.31ZM252.86 176.251C253.828 176.056 254.832 176.608 255.223 177.392C255.633 178.213 255.288 179.118 254.26 179.325C253.34 179.511 252.334 179.061 251.859 178.348L252.691 178.031C252.876 178.327 253.305 178.634 253.846 178.525C254.414 178.411 254.434 177.959 254.249 177.588C254.074 177.236 253.695 176.939 253.127 177.053C252.741 177.131 252.597 177.35 252.567 177.573L251.62 177.554L250.944 175.183L253.622 174.644L254.019 175.44L252.092 175.828L252.286 176.516C252.46 176.358 252.678 176.287 252.86 176.251Z" fill="#564D4A"/>
<path d="M327.05 165.894C326.569 164.131 325.38 160.351 324.846 159.482L330.256 161.686L327.05 165.894Z" fill="#564D4A"/>
<path d="M313.962 146.997L125.033 184.059C123.13 184.433 121.232 183.389 120.528 181.581L106.422 145.358C105.507 143.009 106.961 140.41 109.441 139.961L297.928 105.82C299.755 105.489 301.571 106.457 302.314 108.158L316.862 141.461C317.888 143.81 316.476 146.504 313.962 146.997Z" fill="#D3CDCC" stroke="#564D4A" stroke-width="3.20566"/>
<path d="M315.352 143.99L311.545 142.588L121.81 180.455C122.451 182.218 123.413 182.725 124.215 182.659C186.525 170.437 312.627 145.713 313.749 145.393C315.152 144.992 314.951 144.591 315.352 143.99Z" fill="#AEAAA9"/>
<path d="M107.585 143.39C107.585 143.791 107.986 145.193 107.986 145.193L300.962 109.252C300.526 106.925 298.586 107.149 297.784 107.205C235.314 118.579 110.092 141.402 108.965 141.707C107.839 142.013 107.585 142.989 107.585 143.39Z" fill="#AEAAA9"/>
<path d="M315.753 142.588L300.526 108.128C300.386 107.807 299.666 107.393 299.324 107.326L297.721 109.73L311.545 142.588L315.352 143.991C315.552 143.791 315.886 142.922 315.753 142.588Z" fill="#8B8381"/>
<g opacity="0.3">
<path opacity="0.7" d="M170.948 173.107L135.686 180.119L192.787 126.023L221.838 121.015L170.948 173.107Z" fill="#DDD9D8"/>
<path opacity="0.7" d="M180.165 171.304L174.755 172.506L226.246 120.214L230.854 119.212L180.165 171.304Z" fill="#DDD9D8"/>
</g>
<path opacity="0.45" d="M256.069 272.861L321.711 289.29C321.711 289.29 330.636 298.204 321.711 301.231C312.786 304.259 301.015 302.77 301.015 302.77C284.118 307.923 276.305 306.377 274.101 302.77C272.942 300.874 275.772 299.58 278.716 298.779C265.903 298.597 239.501 286.939 217 277.739L256.069 272.861Z" fill="#031119"/>
<g filter="url(#filter2_i_7203_4887)">
<path d="M215.08 260.677C215.08 261.915 215.916 262.307 217.068 262.307C218.221 262.307 219.156 261.711 219.156 260.473C219.156 259.235 218.221 258.232 217.068 258.232C215.916 258.232 215.08 259.439 215.08 260.677Z" fill="#876F5E"/>
<path d="M258.168 245.346C257.776 243.648 249.828 240.229 245.706 237.882L246.441 247.491L249.256 249.725C252.097 252.317 254.276 252.444 255.01 252.183C256.357 251.178 258.56 247.044 258.168 245.346Z" fill="#816C5D"/>
<path d="M256.964 275.648C256.964 272.849 252.449 265.868 250.191 262.727C245.891 262.727 237.291 264.369 237.291 270.938C237.291 277.506 240.946 280.494 242.774 281.167C247.504 280.494 256.964 278.448 256.964 275.648Z" fill="#876F5E"/>
<path d="M244.015 268.134C256.262 259.189 246.931 241.209 240.735 233.337L223.65 232.424C215.012 253.69 216.269 264.141 221.053 265.738C218.757 268.134 216.478 273.279 217.055 275.749C218.409 281.542 230.679 280.157 235.084 280.658C236.155 280.78 233.9 273.813 235.084 271.341C237.381 269.698 243.423 268.514 244.015 268.134Z" fill="#9F8A7B"/>
<path d="M244.837 267.61C258.426 263.244 245.742 240.213 242.758 240.392C240.355 240.514 238.602 243.68 238.093 245.196C235.552 254.785 235.396 270.644 244.837 267.61Z" fill="#C2A28A"/>
<path d="M235.068 280.959C232.156 282.24 224.344 280.281 219.659 278.755C216.671 278.007 216.253 276.952 217.294 272.028C217.269 271.57 217.256 271.086 217.255 270.572C217.251 267.984 217.5 264.599 218.071 260.322L250.915 258.319C251.721 261.514 251.686 262.302 251.716 265.532C251.721 266.031 254.922 270.572 254.922 270.572C257.668 273.255 257.323 276.464 256.618 276.952C253.007 280.096 243.665 281.998 241.899 280.959C238.894 279.191 236.582 276.952 236.503 273.891C236.526 273.455 236.552 272.99 236.582 272.494H235.068C235.098 272.995 235.12 273.459 235.135 273.891C235.246 277.024 236.015 279.583 235.068 280.959Z" fill="#A8C0CC"/>
<path d="M235.068 272.494C228.87 270.655 225.701 269.185 217.255 270.572M235.068 272.494H236.582M235.068 272.494C235.098 272.995 235.12 273.459 235.135 273.891M217.255 270.572C217.251 267.984 217.5 264.599 218.071 260.322L250.915 258.319C251.721 261.514 251.686 262.302 251.716 265.532M217.255 270.572C217.256 271.086 217.269 271.57 217.294 272.028M236.582 272.494C242.908 269.729 244.191 264.18 251.716 265.532M236.582 272.494C236.552 272.99 236.526 273.455 236.503 273.891M251.716 265.532C251.721 266.031 254.922 270.572 254.922 270.572M217.294 272.028C216.253 276.952 216.671 278.007 219.659 278.755C224.344 280.281 232.156 282.24 235.068 280.959C236.015 279.583 235.246 277.024 235.135 273.891M217.294 272.028C224.268 272.137 228.173 272.594 235.135 273.891M236.503 273.891C236.582 276.952 238.894 279.191 241.899 280.959C243.665 281.998 253.007 280.096 256.618 276.952C257.323 276.464 257.668 273.255 254.922 270.572M236.503 273.891C243.141 272.371 247.654 270.437 254.922 270.572" stroke="#809CAA" stroke-width="0.465886"/>
<path d="M220.421 237.02C230.27 240.11 235.738 240.492 244.996 236.554C246.627 235.622 249.364 237.141 250.82 239.994L247.911 242.382C249.089 245.309 249.701 247.373 250.471 250.647C250.759 251.842 250.9 252.503 251.111 253.675C251.111 253.675 238.439 256.115 228.021 255.514C217.603 254.913 216.053 253.675 216.053 253.675C216.165 252.494 216.271 251.831 216.519 250.647C217.043 247.53 217.454 245.509 218.196 242.785C218.373 242.134 218.569 241.444 218.79 240.688L220.421 237.02Z" fill="#A8C0CC"/>
<path d="M244.996 236.554C235.738 240.492 230.27 240.11 220.421 237.02L218.79 240.688M244.996 236.554L247.209 240.688M244.996 236.554C246.627 235.622 249.364 237.141 250.82 239.994L247.911 242.382M247.209 240.688C244.996 244.094 243.048 245.269 240.844 245.269M247.209 240.688C247.465 241.29 247.698 241.85 247.911 242.382M218.79 240.688C224.157 243.909 236.188 245.389 240.844 245.269M218.79 240.688C218.569 241.444 218.373 242.134 218.196 242.785C217.454 245.509 217.043 247.53 216.519 250.647M216.519 250.647C226.272 253.728 231.584 253.522 240.844 250.647M216.519 250.647C216.271 251.831 216.165 252.494 216.053 253.675C216.053 253.675 217.603 254.913 228.021 255.514C238.439 256.115 251.111 253.675 251.111 253.675C250.9 252.503 250.759 251.842 250.471 250.647M240.844 250.647V245.269M240.844 250.647H250.471M250.471 250.647C249.701 247.373 249.089 245.309 247.911 242.382" stroke="#809CAA" stroke-width="0.465886"/>
<path d="M220.185 259.505C221.263 259.119 229.235 248.201 229.696 245.544C230.157 242.887 224.887 242.138 222.082 242.138C219.277 242.138 212.789 252.525 212.789 255.198C213.413 256.272 219.107 259.892 220.185 259.505Z" fill="#9F826A"/>
<ellipse cx="4.47611" cy="4.54656" rx="4.47611" ry="4.54656" transform="matrix(-0.293054 0.956096 0.970941 0.239319 227.902 203.421)" fill="#876F5E"/>
<path d="M217.118 222.472C215.757 233.743 222.823 238.341 231.686 238.341C244.605 238.341 250.019 234.476 249.48 223.414C248.888 211.285 242.846 208.172 233.382 207.292C223.273 207.292 218.108 214.273 217.118 222.472Z" fill="#B7957B"/>
<ellipse cx="0.993595" cy="1.06685" rx="0.993595" ry="1.06685" transform="matrix(-0.99802 0.0629045 0.0853966 0.996347 239.135 219.518)" fill="#3F3D3B"/>
<mask id="mask1_7203_4887" style="mask-type:alpha" maskUnits="userSpaceOnUse" x="217" y="207" width="33" height="32">
<path d="M217.215 222.467C215.854 233.738 222.92 238.336 231.783 238.336C244.702 238.336 250.116 234.471 249.576 223.409C248.985 211.28 242.943 208.167 233.479 207.288C223.37 207.288 218.205 214.268 217.215 222.467Z" fill="#CCBEB3"/>
</mask>
<g mask="url(#mask1_7203_4887)">
<ellipse cx="0.993595" cy="1.06685" rx="0.993595" ry="1.06685" transform="matrix(-0.99802 0.0629045 0.0853966 0.996347 249.91 217.89)" fill="#3F3D3B"/>
</g>
<path d="M239.705 226.282C238.93 230.035 239.303 232.964 243.847 233.673C248.025 233.957 251.703 231.023 252.064 227.121C252.424 223.219 249.751 219.654 245.425 220.062C242.722 220.316 241.017 221.365 239.705 226.282Z" fill="#C9B19F"/>
<path d="M249.123 226.955C248.261 227.464 248.153 227.566 247.399 227.77" stroke="#3F3D3B" stroke-width="0.407507" stroke-linecap="round"/>
<path d="M249.441 227.056C249.983 227.361 250.091 227.463 250.521 227.564" stroke="#3F3D3B" stroke-width="0.407507" stroke-linecap="round"/>
<path d="M249.434 226.99C249.417 227.1 249.313 227.174 249.201 227.155C249.089 227.136 249.012 227.031 249.028 226.921L249.434 226.99ZM248.975 222.955C249.279 223.61 249.459 224.191 249.53 224.827C249.599 225.461 249.559 226.14 249.434 226.99L249.028 226.921C249.151 226.086 249.187 225.445 249.122 224.86C249.058 224.277 248.893 223.74 248.604 223.115L248.975 222.955Z" fill="#3F3D3B"/>
<path d="M247.075 222.88C247.075 223.499 247.847 224.205 248.799 224.205C249.752 224.205 250.523 223.499 250.523 222.88C250.523 222.261 249.752 221.963 248.799 221.963C247.847 221.963 247.075 222.261 247.075 222.88Z" fill="#3F3D3B"/>
<ellipse cx="4.47611" cy="4.54656" rx="4.47611" ry="4.54656" transform="matrix(-0.293054 0.956096 0.970941 0.239319 223.376 204.236)" fill="#B7957B"/>
<path d="M225.539 212.249C226.307 210.413 228.345 209.795 229.267 209.716C229.324 208.387 226.942 205.868 224.572 207.868C222.497 209.62 224.633 211.719 225.539 212.249Z" fill="#3F3D3B"/>
<path d="M231.293 248.702H210.444V265.532C210.59 268.425 213.342 269.875 220.868 272.287C228.529 270.176 230.677 268.675 231.293 265.532V248.702Z" fill="#434343"/>
<path d="M212.848 250.905H220.061V268.736L212.848 265.13V250.905Z" fill="#595454"/>
<g filter="url(#filter3_i_7203_4887)">
<path d="M217.611 195.41C226.228 190.853 234.736 196.708 232.383 202.226L228.826 202.295C228.458 201.873 228.079 201.868 227.561 202.119C226.012 202.867 224.681 205.964 222.889 209.613C221.083 213.955 219.205 217.407 214.155 217.912C206.603 218.667 204.04 216.166 202.357 208.85C202.003 207.311 208.176 212.261 209.835 209.569C208.489 208.985 207.418 208.116 207.418 206.201C207.418 204.557 208.348 203.486 209.724 203.539C209.448 205.516 211.402 206.652 212.065 204.557C213.883 198.808 214.131 197.252 217.611 195.41Z" fill="#DCB551"/>
</g>
<path d="M232.593 197.822V199.461H236.203V197.822C235.21 196.637 233.676 196.546 232.593 197.822Z" fill="#969593"/>
<path d="M219.257 212.216C220.189 194.338 247.152 194.163 248.258 212.216H219.257Z" fill="#B5CBD7"/>
<path d="M224.669 206.027C226.116 203.422 227.874 203.222 229.076 202.02C230.279 200.818 226.672 201.82 225.069 203.823C223.466 205.827 223.221 208.631 224.669 206.027Z" fill="#F0E9E9"/>
<path d="M219.259 212.238L217.255 218.85C224.606 218.502 245.475 212.15 248.911 215.644L247.943 205.827C236.535 210.363 230.245 211.804 219.259 212.238Z" fill="#A8C0CC"/>
<path d="M240.897 208.431L239.294 215.043C240.096 214.843 247.308 213.841 248.911 215.644L247.942 205.827C245.104 207.029 240.897 208.431 240.897 208.431Z" fill="#809CAA"/>
<path d="M228.997 212.282L222.763 213.77C222.763 213.77 222.039 213.542 222.492 212.757C222.572 209.903 226.844 208.518 228.568 211.131L228.997 212.282Z" fill="#B0ACA5"/>
</g>
<path opacity="0.2" d="M117.578 69.4914C117.838 76.2362 108.865 78.8208 97.1421 74.2127C85.4194 69.6045 78.4298 62.6515 78.1696 55.9067C77.9094 49.162 87.1908 49.1428 97.1421 48.759C107.093 48.3751 117.318 62.7467 117.578 69.4914Z" fill="black"/>
<path opacity="0.45" d="M462.288 323.44L309 281.419L380.591 277.067L523.351 302.524C523.351 302.524 516.332 317.916 500.049 323.44C483.765 328.964 462.288 323.44 462.288 323.44Z" fill="#031119"/>
<path d="M310.568 281.985C307.398 281.079 309.247 278.588 310.568 277.456C307.171 271.228 314.531 265 318.495 262.169C321.665 259.904 323.213 254.054 323.59 251.412L325.855 211.779C323.137 209.968 322.08 206.495 321.892 204.985C317.362 201.362 319.627 199.324 321.325 198.757L321.325 188L328.686 188L328.686 195.36C330.95 196.266 334.159 195.738 335.48 195.36L335.48 188L343.972 188L343.972 195.36C346.237 196.266 348.691 195.738 349.634 195.36L349.634 188L355.296 188L355.296 198.757C358.92 200.569 355.673 203.664 353.597 204.985C353.145 208.156 350.767 210.836 349.634 211.779C349.634 214.044 350.767 242.353 351.899 251.412C352.805 258.659 354.541 261.603 355.296 262.169C365.261 268.51 365.11 275.002 363.789 277.456C367.412 279.72 365.298 281.419 363.789 281.985C354.73 283.684 314.532 283.118 310.568 281.985Z" fill="#FEE9C1"/>
<path d="M312.371 281.985C309.114 281.472 311.05 278.588 312.371 277.456C308.974 271.228 316.334 265 320.298 262.169C323.468 259.904 325.016 254.054 325.393 251.412L327.658 211.779C324.94 209.968 323.883 206.495 323.695 204.985C319.165 201.362 321.43 199.324 323.129 198.757L323.129 188L330.489 188L330.489 195.36C332.754 196.266 335.962 195.738 337.283 195.36L337.283 188L345.776 188L345.776 195.36C348.04 196.266 350.494 195.738 351.437 195.36L351.437 188L357.099 188L357.099 198.757C360.723 200.569 357.477 203.664 355.401 204.985C354.948 208.156 352.57 210.836 351.437 211.779C351.437 214.044 352.57 242.353 353.702 251.412C354.608 258.659 356.344 261.603 357.099 262.169C367.064 268.51 366.913 275.002 365.592 277.456C369.215 279.72 367.102 281.419 365.592 281.985C356.533 283.684 323.695 283.769 312.371 281.985Z" fill="#809CAA"/>
<path d="M310.22 277.358C316.454 278.696 343.076 281.104 365.919 277.358" stroke="#436577" stroke-width="2.40424"/>
<path d="M339.271 283.371C335.374 283.371 349.17 278.591 350.491 277.459C353.135 275.193 353.702 272.034 349.761 267.169C347.309 264.141 346.023 254.057 346.401 251.415L345.228 211.782C349.208 209.563 349.397 205.766 349.208 204.256C349.505 204.035 349.763 203.791 349.982 203.531C351.411 201.84 351.243 199.499 349.982 198.76L349.982 195.743L351.437 195.363L351.437 188.003L357.099 188.003L357.099 198.76C360.723 200.572 357.476 203.667 355.4 204.988C354.948 208.159 352.57 210.839 351.437 211.782C351.437 214.047 352.57 242.356 353.702 251.415C354.608 258.662 356.344 261.606 357.099 262.172C367.064 268.513 366.913 275.005 365.592 277.459C369.215 279.723 367.101 281.422 365.592 281.988C356.533 283.687 343.393 283.371 339.271 283.371Z" fill="#436577"/>
<path d="M356.902 198.822C347.766 200.906 330.522 199.69 323.042 198.822H321.239C316.912 200.105 319.97 203.364 322.041 204.833C336.146 207.878 350.09 206.102 355.299 204.833C360.589 201.146 358.572 199.29 356.902 198.822Z" fill="#436577"/>
<path d="M336.694 199.863C336.741 200.465 322.021 200.777 321.655 198.548C321.29 196.318 322.159 197.421 322.616 197.532C323.074 197.643 326.236 198.61 327.824 198.847C332.799 199.593 336.646 199.262 336.694 199.863Z" fill="#FDEAC4"/>
<path opacity="0.45" d="M530.725 376.732L361 330.205L440.267 325.387L598.335 353.573C598.335 353.573 590.564 370.616 572.535 376.732C554.505 382.848 530.725 376.732 530.725 376.732Z" fill="#031119"/>
<path d="M360.911 327.265C360.851 325.475 362.825 324.96 363.82 324.926C360.559 316.822 366.326 310.653 373.71 308.164C373.685 307.418 375.797 303.613 378.73 302.021C383.864 299.234 382.878 295.907 382.929 293.665L382.502 280.984C382.301 275.017 379.267 273.625 377.725 272.184C376.183 270.742 370.166 269.451 373.074 267.113C375.401 265.243 379.463 264.658 381.204 264.599L381.103 261.615C379.611 261.666 371.13 253.737 376.025 243.864C380.22 235.401 396.311 234.22 401.386 243.01C406.462 251.8 400.422 258.724 396.768 261.088L396.868 264.071C398.36 264.021 402.861 264.616 405.149 266.033C406.979 267.166 405.978 268.494 405.249 269.017C397.592 272.262 395.845 278.046 395.929 280.532L396.356 293.213C396.532 298.434 399.566 299.826 402.625 301.963C405.072 303.673 406.248 306.073 406.531 307.059C417.895 311.903 419.613 318.566 416.805 323.889C419.789 323.788 420.088 325.272 419.865 326.026C418.97 329.043 414.984 328.928 413.252 329.236C399.9 331.926 369.267 331.464 366.258 330.818C363.339 330.192 360.987 329.503 360.911 327.265Z" fill="#FDEAC4"/>
<path d="M362.544 327.353C362.483 325.562 364.458 325.048 365.452 325.014C362.192 316.91 367.958 310.741 375.342 308.252C375.317 307.506 377.429 303.701 380.363 302.109C385.496 299.322 384.51 295.995 384.562 293.753L384.135 281.072C383.934 275.105 380.9 273.713 379.358 272.272C377.816 270.83 371.798 269.539 374.706 267.201C377.033 265.331 381.096 264.746 382.836 264.687L382.736 261.703C381.244 261.754 372.762 253.825 377.657 243.952C381.853 235.489 397.943 234.308 403.019 243.098C408.094 251.888 402.054 258.812 398.4 261.176L398.501 264.159C399.993 264.109 404.493 264.704 406.781 266.121C408.612 267.254 407.611 268.582 406.882 269.104C399.225 272.349 397.478 278.134 397.562 280.62L397.989 293.301C398.165 298.522 401.199 299.914 404.258 302.051C406.705 303.761 407.881 306.161 408.163 307.147C419.528 311.991 421.246 318.654 418.438 323.976C421.422 323.876 421.721 325.359 421.497 326.114C420.603 329.131 416.616 329.016 414.884 329.324C401.533 332.014 370.9 331.552 367.891 330.906C364.972 330.28 362.619 329.59 362.544 327.353Z" fill="#A8C0CC"/>
<mask id="mask2_7203_4887" style="mask-type:alpha" maskUnits="userSpaceOnUse" x="362" y="237" width="60" height="95">
<path d="M362.544 327.353C362.484 325.562 364.458 325.048 365.453 325.014C362.193 316.91 367.959 310.741 375.343 308.252C375.318 307.506 377.43 303.701 380.363 302.109C385.497 299.322 384.511 295.995 384.563 293.753L384.135 281.072C383.934 275.105 380.9 273.713 379.358 272.272C377.816 270.83 371.799 269.539 374.707 267.201C377.034 265.331 381.096 264.746 382.837 264.687L382.736 261.703C381.244 261.754 372.763 253.825 377.658 243.952C381.853 235.489 397.944 234.308 403.019 243.098C408.095 251.888 402.055 258.812 398.401 261.176L398.501 264.159C399.993 264.109 404.494 264.704 406.782 266.121C408.612 267.254 407.611 268.582 406.882 269.104C399.225 272.349 397.478 278.134 397.562 280.62L397.989 293.301C398.165 298.522 401.199 299.914 404.258 302.051C406.705 303.761 407.881 306.161 408.164 307.147C419.528 311.991 421.246 318.654 418.439 323.976C421.422 323.876 421.721 325.359 421.498 326.114C420.604 329.131 416.617 329.016 414.885 329.324C401.533 332.014 370.9 331.552 367.891 330.906C364.972 330.28 362.62 329.59 362.544 327.353Z" fill="#809CAA"/>
</mask>
<g mask="url(#mask2_7203_4887)">
<path d="M406.79 326.121C406.565 326.128 406.607 326.115 406.807 326.11C409.937 324.136 412.968 314.235 400.966 308.234C400.941 307.488 393.676 303.708 396.61 302.116C401.743 299.329 395.558 296.002 395.61 293.76L395.183 281.079C394.982 275.112 394.955 273.954 394.955 272.167C394.955 270.056 395.61 269.892 395.61 267.618C395.61 264.632 392.469 264.753 394.209 264.694L394.109 261.71C396.417 259.332 399.179 254.458 399.179 249.909C399.179 242.942 394.955 238.78 392.843 237.724C390.512 236.558 397.562 235.449 403.019 243.105C408.911 251.37 402.055 258.819 398.4 261.183L398.501 264.167C399.993 264.116 404.493 264.711 406.781 266.128C408.612 267.261 407.611 268.589 406.882 269.112C399.225 272.357 397.478 278.141 397.562 280.627L397.989 293.308C398.165 298.529 401.199 299.921 404.258 302.058C406.705 303.768 407.881 306.168 408.163 307.154C419.528 311.998 421.246 318.661 418.438 323.984C421.422 323.883 421.721 325.367 421.497 326.121C420.603 329.138 416.616 329.023 414.884 329.331C401.533 332.021 394.766 331.63 391.706 331.305C387.738 330.884 410.14 329.806 410.064 327.568C410.018 326.184 407.49 326.095 406.807 326.11C406.802 326.114 406.796 326.117 406.79 326.121Z" fill="#436577"/>
<path d="M398.576 264.254C393.928 264.895 385.086 264.921 381.346 264.654L381.145 261.649C387.717 262.931 395.437 261.716 398.576 261.048V264.254Z" fill="#436577"/>
<path d="M364.115 324.559C370.326 326.563 395.851 329.568 418.611 323.958" stroke="#436577" stroke-width="1.60283"/>
</g>
<path d="M20.9407 293.62C20.8581 291.494 23.2015 290.976 24.3835 290.982C20.4587 281.218 27.2753 274.171 36.0372 271.563C36.0028 270.677 38.4901 266.262 41.9673 264.51C48.0524 261.444 46.86 257.452 46.9077 254.795L46.3223 239.736C46.0468 232.649 42.4319 230.857 40.59 229.076C38.7481 227.294 31.587 225.483 35.0298 222.845C37.784 220.735 42.6097 220.23 44.6782 220.242L44.5405 216.698C42.7674 216.688 32.6369 206.89 38.3949 195.408C43.3303 185.567 62.4496 184.914 68.5365 195.576C74.6236 206.238 67.4866 214.169 63.1573 216.802L63.2951 220.345C65.0681 220.355 70.4216 221.271 73.1501 223.057C75.3328 224.486 74.1514 226.015 73.2878 226.601C64.2058 230.093 62.1648 236.872 62.2796 239.824L62.865 254.884C63.106 261.085 66.721 262.877 70.3703 265.554C73.2898 267.696 74.7025 270.597 75.044 271.78C88.5828 278.054 90.6657 286.037 87.3607 292.219C90.9067 292.238 91.2711 294.012 91.0101 294.896C89.9658 298.433 85.2262 298.111 83.1691 298.395C67.3151 300.964 30.899 298.99 27.3185 298.084C23.8449 297.206 21.044 296.278 20.9407 293.62Z" fill="#F9DFAC"/>
<path d="M19.2808 298.261C21.8852 299.022 20.2103 299.325 22.317 299.525C27.9341 302.412 38.1805 303.038 57.2358 305.491C58.3211 305.808 68.487 307.843 76.9773 309.078C91.8353 311.239 94.8693 312.49 98.3939 313.466L116.842 318.855C125.523 321.391 121.374 321.424 120.384 321.758C119.395 322.091 108.925 321.524 118.5 323.075C126.16 324.317 135.449 325.328 139.136 325.679L143.476 326.946C140.316 326.646 134.873 328.481 160.041 333.653C181.612 338.086 216.67 341.602 213.76 338.76C210.85 335.917 187.812 331.803 176.656 330.101L172.315 328.833C175.475 329.133 183.87 329.717 186.44 329.534C188.496 329.387 184.403 328.628 182.099 328.266C161.327 325.436 148.899 322.615 145.282 321.559L126.834 316.17C119.238 313.951 123.387 313.918 126.452 313.567C128.903 313.287 127.676 312.472 126.755 312.099C142.859 312.134 136.253 309.581 122.336 306.761C128.656 307.362 127.013 306.778 125.401 306.411C118.954 304.943 70.4737 297.053 66.4253 296.597C34.7299 292.942 24.5672 295.22 19.3324 294.936C14.254 294.661 16.0253 297.31 19.2808 298.261Z" fill="#172E3B"/>
<path d="M22.5579 293.592C22.4753 291.466 24.8187 290.948 26.0007 290.954C22.0758 281.19 28.8925 274.142 37.6544 271.534C37.6199 270.648 40.1073 266.234 43.5845 264.482C49.6696 261.416 48.4772 257.424 48.5249 254.767L47.9395 239.707C47.664 232.621 44.049 230.829 42.2071 229.047C40.3652 227.266 33.2042 225.454 36.647 222.817C39.4012 220.707 44.0674 220.554 46.136 220.566L46.1577 216.67C44.3846 216.66 34.2541 206.861 40.0121 195.38C44.9475 185.538 64.0668 184.886 70.1537 195.547C76.2408 206.209 69.1038 214.141 64.7745 216.774L64.9123 220.317C66.6853 220.327 72.0388 221.242 74.7673 223.029C76.95 224.458 75.7686 225.987 74.905 226.572C65.8229 230.064 63.782 236.843 63.8968 239.796L64.4822 254.856C64.7232 261.057 68.3381 262.848 71.9875 265.526C74.907 267.667 76.3197 270.568 76.6611 271.751C90.1999 278.026 92.2829 286.009 88.9779 292.19C92.5239 292.21 92.8883 293.983 92.6272 294.868C91.583 298.404 86.8434 298.083 84.7863 298.367C68.9323 300.935 32.5162 298.961 28.9357 298.056C25.4621 297.177 22.6612 296.25 22.5579 293.592Z" fill="#A8C0CC"/>
<mask id="mask3_7203_4887" style="mask-type:alpha" maskUnits="userSpaceOnUse" x="22" y="187" width="71" height="113">
<path d="M22.5589 293.592C22.4763 291.466 24.8197 290.948 26.0017 290.954C22.0768 281.19 28.8935 274.142 37.6554 271.534C37.6209 270.648 40.1083 266.234 43.5855 264.482C49.6706 261.416 48.4782 257.424 48.5258 254.767L47.9405 239.707C47.665 232.621 44.05 230.829 42.2081 229.047C40.3662 227.266 33.2052 225.454 36.648 222.817C39.4022 220.707 44.0684 220.554 46.137 220.566L46.1586 216.67C44.3856 216.66 34.2551 206.861 40.0131 195.38C44.9485 185.538 64.0678 184.886 70.1547 195.547C76.2418 206.209 69.1048 214.141 64.7755 216.774L64.9132 220.317C66.6863 220.327 72.0398 221.242 74.7682 223.029C76.951 224.458 75.7695 225.987 74.906 226.572C65.8239 230.064 63.783 236.843 63.8978 239.796L64.4832 254.856C64.7242 261.057 68.3391 262.848 71.9885 265.526C74.908 267.667 76.3207 270.568 76.6621 271.751C90.2009 278.026 92.2839 286.009 88.9789 292.19C92.5249 292.21 92.8893 293.983 92.6282 294.868C91.584 298.404 86.8444 298.083 84.7873 298.367C68.9333 300.935 32.5172 298.961 28.9367 298.056C25.4631 297.177 22.6622 296.25 22.5589 293.592Z" fill="#D3E3EB"/>
</mask>
<g mask="url(#mask3_7203_4887)">
<path d="M79.0464 296.062C78.9638 293.936 73.3587 292.113 74.5407 292.12C78.2557 289.954 82.441 280.397 68.1131 272.708C68.0787 271.822 59.4199 267 62.8971 265.248C68.9822 262.182 61.6099 257.948 61.6575 255.292L61.0721 240.232C60.7967 233.145 60.7576 231.77 60.7466 229.65C60.7337 227.147 61.5113 226.983 61.4974 224.286C61.4791 220.745 57.7458 220.742 59.8143 220.753L59.6766 217.21C62.4061 214.496 65.6594 208.844 65.6315 203.448C65.5888 195.186 60.5421 190.052 58.0251 188.702C55.2467 187.21 63.6204 186.224 70.154 195.557C77.2081 205.635 69.1041 214.151 64.7748 216.784L64.9126 220.327C66.6856 220.337 72.0392 221.252 74.7676 223.039C76.9503 224.468 75.7689 225.997 74.9053 226.582C65.8233 230.075 63.7823 236.853 63.8971 239.806L64.4825 254.866C64.7235 261.067 68.3385 262.858 71.9878 265.536C74.9073 267.678 76.3201 270.579 76.6615 271.761C90.2003 278.036 92.2832 286.019 88.9782 292.2C92.5243 292.22 92.8886 293.993 92.6276 294.878C91.5833 298.414 86.8437 298.093 84.7867 298.377C68.9327 300.945 60.8859 300.166 57.2464 299.639C52.5278 298.955 79.1497 298.719 79.0464 296.062Z" fill="#436577"/>
<path d="M65.1603 220.553C59.5239 221.154 48.8603 220.776 44.3637 220.262L44.27 216.422C52.1311 218.362 61.5002 217.172 65.318 216.467L65.1603 220.553Z" fill="#436577"/>
<path d="M42.6488 291.962C41.9585 291.923 41.367 292.451 41.3277 293.141C41.2884 293.832 41.8162 294.423 42.5065 294.462L42.6488 291.962ZM42.5065 294.462C52.1894 295.014 71.4306 296.805 89.4157 289.802L88.5071 287.468C71.1235 294.238 52.4637 292.521 42.6488 291.962L42.5065 294.462Z" fill="#436577"/>
<path d="M38.1639 291.395C38.8509 291.473 39.3442 292.094 39.2656 292.781C39.1871 293.468 38.5665 293.961 37.8795 293.883L38.1639 291.395ZM37.8795 293.883C32.1022 293.222 28.7939 292.661 26.223 292.049C23.6785 291.443 21.8322 290.778 19.155 289.98L19.8707 287.58C22.6934 288.422 24.3458 289.028 26.8028 289.613C29.2336 290.191 32.4298 290.739 38.1639 291.395L37.8795 293.883Z" fill="#F9DFAC"/>
</g>
<path d="M48.3341 226.497C48.3299 227.248 35.309 227.176 35.1566 224.384C35.0042 221.591 35.5482 223.31 36.0826 223.147C37.3277 224.396 39.1963 224.605 40.5799 224.951C44.9157 226.037 48.3383 225.746 48.3341 226.497Z" fill="#F9DFAC"/>
<path d="M-39.5407 326.318C-40.2033 324.292 -37.5551 322.679 -36.1482 322.125C-41.4901 313.335 -30.4282 303.345 -24.2296 299.449C-22.5216 295.247 -21.6652 292.725 -17.4304 288.537C-11.427 282.6 -9.14764 263.313 -9.65293 253.203L-9.57326 238.884C-11.591 238.199 -15.4427 234.078 -17.1164 232.103C-19.0786 231.531 -22.6633 229.882 -21.3044 227.868C-19.9455 225.854 -17.918 224.799 -17.0742 224.523C-17.0592 221.827 -14.2416 220.046 -12.8346 219.492L-11.9314 208.547C-14.4458 206.287 -19.2958 199.915 -18.5807 192.506C-17.6869 183.246 -14.299 179.895 -9.2218 175.712C-5.16007 172.365 -2.42569 165.361 -1.56622 162.278C-4.08371 160.579 -4.91194 158.047 -4.05091 154.683C-2.75936 149.636 1.03094 149.657 2.71551 149.667C5.06799 149.68 8.59748 152.226 8.57873 155.596C8.55999 158.965 7.70833 160.645 6.01438 162.32C6.00032 164.847 8.4897 171.599 12.6777 175.834C16.8657 180.069 21.9007 183.466 22.6915 192.736C23.324 200.152 17.2773 207.025 14.1748 209.535L14.1186 219.642C18.8279 221.016 19.4312 223.603 19.1442 224.724C20.5465 225.013 23.3482 226.095 23.3369 228.117C23.3257 230.138 19.9475 231.748 18.2598 232.3C18.2485 234.322 14.2994 237.613 12.3262 239.006L12.2466 253.324L12.2445 253.69C12.1867 263.855 12.0873 281.328 20.4726 288.747C27.1781 294.681 27.4355 298.894 27.15 299.735C42.5844 311.276 40.7965 319.745 37.9733 322.537C39.6578 322.547 43.8505 325.939 41.3143 327.61C38.7781 329.28 32.0304 330.927 -0.818887 330.745C-33.6681 330.562 -38.7125 328.849 -39.5407 326.318Z" fill="#F9DFAC"/>
<path d="M-101.524 317.217C-100.393 317.784 -92.9243 318.678 -89.3311 319.054C-89.5215 321.172 -54.3097 325.965 -36.6801 328.097C-27.9586 329.703 -23.0729 330.643 -9.14365 332.596C10.6024 335.365 39.135 341.961 50.577 345.183L68.426 349.855C65.0998 349.797 62.2244 350.602 61.2025 351.012C57.852 350.925 52.4754 350.962 57.7727 351.807C63.07 352.652 68.5661 353.278 70.652 353.485C74.0118 354.365 82.038 355.337 85.6311 355.714L101.016 359.403C98.6084 359.788 96.4498 361.187 107.078 363.698C120.363 366.838 131.507 368.4 147.172 370.469C159.704 372.125 174.008 374.786 179.594 375.909C176.486 376.112 177.9 376.82 183.836 378.036C192.739 379.858 200.551 380.38 204.022 380.611C208.871 380.935 213.024 380.597 208.824 379.498C204.624 378.398 200.789 377.733 195.217 376.952C192.067 376.127 188.875 374.276 192.305 373.48C195.735 372.685 201.95 372.28 192.137 369.373C184.286 367.047 163.294 363.967 153.779 362.718L141.18 359.419C149.221 359.628 147.274 358.87 145.296 358.465C147.839 358.566 152.295 358.604 149.775 357.945C147.255 357.285 138.282 356.29 134.11 355.876C131.59 355.216 119.36 353.594 113.559 352.866L95.7104 348.193C83.1111 344.895 60.6977 339.07 68.9718 337.807C75.5094 336.81 70.8383 335.474 69.2097 335.161C86.8687 333.554 60.8604 329.907 51.5711 328.604L51.5675 328.603C55.0393 328.835 47.7967 324.465 40.4891 323.568C33.1815 322.67 40.7772 325.686 -26.9228 321.169C-94.6228 316.653 -102.938 316.508 -101.524 317.217Z" fill="#172E3B"/>
<path d="M-37.3615 326.329C-38.0241 324.304 -35.3759 322.69 -33.969 322.137C-39.3109 313.347 -28.249 303.357 -22.0504 299.461C-20.3424 295.258 -19.486 292.736 -15.2512 288.548C-9.24778 282.611 -6.96844 263.325 -7.47373 253.214L-7.39406 238.895C-9.41181 238.21 -13.2635 234.09 -14.9372 232.115C-16.8994 231.542 -20.4841 229.894 -19.1252 227.88C-17.7663 225.866 -15.7388 224.81 -14.895 224.534C-14.88 221.839 -12.0624 220.058 -10.6554 219.504L-9.75223 208.559C-12.2666 206.299 -17.1166 199.926 -16.4015 192.518C-15.5077 183.257 -12.1198 179.907 -7.0426 175.724C-2.98087 172.377 -0.24649 165.373 0.61298 162.289C-1.90451 160.591 -2.73274 158.059 -1.87171 154.695C-0.580158 149.648 3.21014 149.669 4.89472 149.678C7.24719 149.692 10.7767 152.238 10.7579 155.607C10.7392 158.976 9.88753 160.656 8.19358 162.331C8.17952 164.858 10.6689 171.611 14.8569 175.846C19.0449 180.08 24.0799 183.478 24.8706 192.748C25.5032 200.163 19.4565 207.037 16.354 209.547L16.2978 219.654C21.0071 221.028 21.6104 223.614 21.3234 224.736C22.7257 225.024 25.5274 226.107 25.5161 228.128C25.5049 230.15 22.1267 231.76 20.439 232.312C20.4277 234.333 16.4786 237.624 14.5054 239.017L14.4258 253.336L14.4237 253.701C14.3659 263.867 14.2665 281.339 22.6518 288.759C29.3573 294.693 29.6147 298.906 29.3292 299.746C44.7636 311.288 42.9757 319.757 40.1525 322.549C41.837 322.558 46.0297 325.951 43.4935 327.622C40.9573 329.292 34.2096 330.939 1.36031 330.756C-31.4889 330.574 -36.5333 328.861 -37.3615 326.329Z" fill="#A8C0CC"/>
<path d="M21.063 224.79C9.39219 227.616 -7.91433 226.044 -15.1087 224.904C-23.1182 227.893 -18.4293 230.871 -15.0842 232.095C5.84328 234.862 16.5183 232.94 20.4362 231.547C22.3224 230.815 25.9588 229.482 25.4292 227.391C24.8997 225.301 22.2977 224.786 21.063 224.79Z" fill="#436577"/>
<path d="M7.22738 327.421C7.25196 323.003 -1.28625 322.882 0.120693 322.328C24.8557 322.466 20.0765 306.113 12.0393 299.652C13.7473 295.45 5.31271 293.545 8.75387 288.683C10.6669 285.981 8.47275 278.843 8.61483 253.305L8.69449 238.987C6.52603 236.344 12.5747 235.8 12.5869 233.617C14.9444 232.454 17.3579 232.118 17.3748 229.067C17.3918 226.017 12.6218 227.352 12.633 225.337C12.648 222.641 8.23235 220.172 9.63929 219.619L10.5425 208.673C8.02813 206.413 14.1065 201.959 14.1654 191.38C14.2171 182.076 2.99373 179.993 8.07089 175.809C12.1326 172.463 5.57779 165.302 5.26061 161.941C8.46157 160.112 8.47745 157.257 8.48669 155.596C8.50548 152.219 3.20989 149.671 4.89447 149.68C7.24695 149.693 10.7764 152.24 10.7577 155.609C10.7389 158.978 9.88727 160.658 8.19332 162.333C8.17926 164.86 10.6686 171.612 14.8567 175.847C19.0447 180.082 24.0796 183.479 24.8704 192.749C25.503 200.165 19.4562 207.038 16.3538 209.548L16.2975 219.656C21.0069 221.029 21.6102 223.616 21.3232 224.737C22.7254 225.026 25.5271 226.109 25.5159 228.13C25.5046 230.152 22.1264 231.761 20.4387 232.313C20.4274 234.335 16.4783 237.626 14.5052 239.019L14.4255 253.338L14.4235 253.703C14.3656 263.869 14.2663 281.341 22.6516 288.761C29.3571 294.694 29.6144 298.907 29.329 299.748C44.7633 311.289 42.9754 319.759 40.1522 322.551C41.8368 322.56 46.0295 325.953 43.4932 327.623C40.957 329.294 34.2093 330.941 1.36007 330.758C-10.7925 330.69 7.21256 330.085 7.22738 327.421Z" fill="#436577"/>
<path d="M-31.9536 322.056C-20.752 323.105 7.83001 324.645 32.5446 322.415" stroke="#436577" stroke-width="2.50406"/>
</g>
<defs>
<filter id="filter0_i_7203_4887" x="-38.8398" y="44.6172" width="157.925" height="188.317" filterUnits="userSpaceOnUse" color-interpolation-filters="sRGB">
<feFlood flood-opacity="0" result="BackgroundImageFix"/>
<feBlend mode="normal" in="SourceGraphic" in2="BackgroundImageFix" result="shape"/>
<feColorMatrix in="SourceAlpha" type="matrix" values="0 0 0 0 0 0 0 0 0 0 0 0 0 0 0 0 0 0 127 0" result="hardAlpha"/>
<feOffset dx="2.80495" dy="0.601061"/>
<feComposite in2="hardAlpha" operator="arithmetic" k2="-1" k3="1"/>
<feColorMatrix type="matrix" values="0 0 0 0 0.975575 0 0 0 0 0.875316 0 0 0 0 0.674797 0 0 0 1 0"/>
<feBlend mode="normal" in2="shape" result="effect1_innerShadow_7203_4887"/>
</filter>
<filter id="filter1_i_7203_4887" x="53.741" y="0.421387" width="215.894" height="65.1431" filterUnits="userSpaceOnUse" color-interpolation-filters="sRGB">
<feFlood flood-opacity="0" result="BackgroundImageFix"/>
<feBlend mode="normal" in="SourceGraphic" in2="BackgroundImageFix" result="shape"/>
<feColorMatrix in="SourceAlpha" type="matrix" values="0 0 0 0 0 0 0 0 0 0 0 0 0 0 0 0 0 0 127 0" result="hardAlpha"/>
<feOffset dx="0.801415" dy="0.400707"/>
<feComposite in2="hardAlpha" operator="arithmetic" k2="-1" k3="1"/>
<feColorMatrix type="matrix" values="0 0 0 0 0.97609 0 0 0 0 0.901595 0 0 0 0 0.724667 0 0 0 1 0"/>
<feBlend mode="normal" in2="shape" result="effect1_innerShadow_7203_4887"/>
</filter>
<filter id="filter2_i_7203_4887" x="202.342" y="193.776" width="55.8718" height="87.8301" filterUnits="userSpaceOnUse" color-interpolation-filters="sRGB">
<feFlood flood-opacity="0" result="BackgroundImageFix"/>
<feBlend mode="normal" in="SourceGraphic" in2="BackgroundImageFix" result="shape"/>
<feColorMatrix in="SourceAlpha" type="matrix" values="0 0 0 0 0 0 0 0 0 0 0 0 0 0 0 0 0 0 127 0" result="hardAlpha"/>
<feOffset dx="0.200354" dy="0.601061"/>
<feComposite in2="hardAlpha" operator="arithmetic" k2="-1" k3="1"/>
<feColorMatrix type="matrix" values="0 0 0 0 1 0 0 0 0 0.930479 0 0 0 0 0.791436 0 0 0 1 0"/>
<feBlend mode="normal" in2="shape" result="effect1_innerShadow_7203_4887"/>
</filter>
<filter id="filter3_i_7203_4887" x="202.342" y="193.776" width="30.4382" height="24.2642" filterUnits="userSpaceOnUse" color-interpolation-filters="sRGB">
<feFlood flood-opacity="0" result="BackgroundImageFix"/>
<feBlend mode="normal" in="SourceGraphic" in2="BackgroundImageFix" result="shape"/>
<feColorMatrix in="SourceAlpha" type="matrix" values="0 0 0 0 0 0 0 0 0 0 0 0 0 0 0 0 0 0 127 0" result="hardAlpha"/>
<feOffset dx="0.400707"/>
<feComposite in2="hardAlpha" operator="arithmetic" k2="-1" k3="1"/>
<feColorMatrix type="matrix" values="0 0 0 0 0.996712 0 0 0 0 0.922102 0 0 0 0 0.730246 0 0 0 1 0"/>
<feBlend mode="normal" in2="shape" result="effect1_innerShadow_7203_4887"/>
</filter>
<clipPath id="clip0_7203_4887">
<rect width="414" height="386" fill="white"/>
</clipPath>
</defs>
</svg>
