<svg width="69" height="73" viewBox="0 0 69 73" fill="none" xmlns="http://www.w3.org/2000/svg">
<path fill-rule="evenodd" clip-rule="evenodd" d="M43.2161 24.1815L43.216 24.1817L43.2159 24.1816L43.216 24.1815L43.2158 24.1816L43.2158 24.1816L43.2158 24.1816L20.7345 42.6078L23.9448 56.0696L43.2159 24.1817L43.2159 24.1818L23.945 56.0696L63.0423 53.293L63.0423 53.2931L63.0423 53.293L63.0426 53.293L63.0424 53.2926L65.734 42.4258L43.2167 24.1823L43.2161 24.1815ZM63.0429 53.2939L48.3487 69.7357L23.9453 56.0706L63.0429 53.2939Z" fill="#142E3D" fill-opacity="0.5"/>
<path d="M14.962 57.5202L24.0725 4.36725L64.4697 33.8748L14.962 57.5202Z" fill="#A9C0D1"/>
<path d="M4.03761 40.8469L24.0725 4.36683L14.962 57.5198L4.03761 40.8469Z" fill="#BFD0DD"/>
<path d="M62.5286 17.7303L24.0723 4.36719L64.4694 33.8747L62.5286 17.7303Z" fill="#7DA0B9"/>
<path d="M53.5783 63.6985L64.4697 33.8744L14.962 57.5198L53.5783 63.6985Z" fill="#7298B3"/>
<path d="M36.2896 35.948C35.0148 36.482 33.4562 36.2785 32.8415 34.8108C32.4466 33.8681 32.6709 32.9304 33.4175 32.2777C32.7071 32.2353 32.0747 31.8076 31.765 31.0684C31.267 29.8793 32.0404 28.7494 33.1009 28.3052C34.2472 27.825 35.5148 28.1756 36.0039 29.3433C36.309 30.0718 36.1442 30.8208 35.6886 31.3264C36.6668 31.2567 37.4862 31.7698 37.8766 32.7018C38.4913 34.1695 37.5644 35.414 36.2896 35.948ZM34.474 31.5833C35.2775 31.2468 35.6299 30.4948 35.2978 29.702C34.9882 28.9628 34.2006 28.6757 33.3971 29.0122C32.6579 29.3218 32.2081 30.0517 32.5312 30.8231C32.8767 31.648 33.6598 31.9244 34.474 31.5833ZM35.9934 35.2409C36.9362 34.8461 37.5564 33.9819 37.1256 32.9534C36.7173 31.9785 35.7179 31.6668 34.6787 32.1021C33.6288 32.5418 33.1499 33.4728 33.5582 34.4476C33.989 35.4761 35.04 35.6403 35.9934 35.2409Z" fill="#6790AD"/>
<path d="M46.2944 56.9102L51.0652 55.1907L50.7718 54.8668L43.058 51.1133L42.3123 51.3821L49.8021 54.9865L45.844 56.4132L46.2944 56.9102Z" fill="#527A97"/>
<path d="M48.7904 13.792C49.7319 13.9256 51.0559 14.3929 51.8604 14.8577C52.6901 15.337 52.6539 15.6387 51.6548 15.4969C50.7493 15.3684 49.5358 14.9524 48.688 14.5253L49.1076 14.5547C49.7434 14.875 50.5859 15.1644 51.24 15.2572C51.9803 15.3623 51.9329 15.1282 51.3358 14.7832C50.7575 14.4492 49.8611 14.1193 49.1352 14.0162C48.6537 13.9479 48.4945 14.0157 48.5636 14.1652L47.941 14.0248L46.131 12.7819L48.7255 13.15L49.1404 13.3897L46.9555 13.0796L48.0886 13.8595C48.1498 13.7477 48.4239 13.74 48.7904 13.792Z" fill="#5887A8"/>
<path d="M10.2578 32.0434L12.7517 31.1064L12.5261 31.5209L9.25069 32.7514L9.47282 32.3434C10.9345 31.2769 12.9158 29.792 13.5579 28.6125C13.8633 28.0514 13.7247 27.8195 13.1131 28.0493C12.3928 28.3199 11.7994 28.9334 11.4351 29.5926L10.9904 29.7344C11.4658 28.8609 12.3636 27.9961 13.3422 27.6285C14.1848 27.3119 14.4952 27.5858 14.0301 28.4402C13.4123 29.5751 11.8458 30.8838 10.2578 32.0434Z" fill="#85A6BD"/>
</svg>
