<svg width="601" height="114" viewBox="0 0 601 114" fill="none" xmlns="http://www.w3.org/2000/svg">
<path d="M278.2 1.59998H1.60001V112.6H278.2V1.59998Z" fill="black"/>
<path d="M598.6 1.59998H278.2V112.6H598.6V1.59998Z" fill="#F7901E"/>
<path d="M309.1 89.3C303.3 89.3 297.2 86.8 292.3 81.9L294.1 71C301.4 76.7 306.5 77.5 309.6 77.5C311.3 77.5 314.1 75.8 314.1 73.1C314.1 65.8 291.7 67 291.7 49.2C291.7 39.9 300.9 32.9 310.7 32.9C316.6 32.9 322.7 35.8 327.5 40.9L322.7 50C316.6 44.8 313.1 44.7 310.6 44.7C308.2 44.7 306.1 46.8 306.1 48.6C306.1 55.8 328.6 54.9 328.6 72.2C328.5 82.8 318.8 89.3 309.1 89.3ZM348.4 74.2H361V84.2H375.6V64.3C375.6 48.9 366 40.7 354.7 40.7C343.3 40.7 333.9 49 333.9 64.3V84.2H348.4V74.2ZM361 64.2H348.3V61.1C348.3 55.2 350.9 52 354.6 52C358.4 52 361 55.2 361 61.1V64.2ZM385.1 84.2H399.7V67.7H419.6V57.7H399.7V51.5H419.6V41.5H385.1V84.2ZM427.3 84.2H460V74.2H441.9V67.7H460V57.7H441.9V51.5H460V41.5H427.3V84.2Z" fill="black"/>
<path d="M95.9 89.3H85.4L74.8 56.2L64.2 89.3H53.5L34.6 33.9H49.2L58.9 65.1L68.5 33.9H81L90.6 65.1L100.2 33.9H114.8L95.9 89.3ZM157 62.9C157 50.6 146.9 40.7 134.6 40.7C122.3 40.7 112.3 50.6 112.3 62.9C112.3 75.2 122.3 85.1 134.6 85.1C147 85.1 157 75.2 157 62.9ZM134.6 51.2C138.5 51.2 141.8 56.4 141.8 62.9C141.8 69.4 138.5 74.6 134.6 74.6C130.8 74.6 127.5 69.4 127.5 62.9C127.5 56.4 130.8 51.2 134.6 51.2ZM197.4 70.4C202.2 67.4 205.3 62.9 205.3 57.9C205.3 48.9 195.5 41.5 183.5 41.5H161.8V84.2H176.4V74.2H182.9L193 84.2H211.3L197.4 70.4ZM190.8 57.9C190.8 61.3 186.7 64.3 181.7 64.3H176.3V51.5H181.7C186.7 51.5 190.8 54.4 190.8 57.9ZM232.5 66.9L250 84.2H268.3L246.1 62L266.5 41.6H249.2L232.4 58.4V41.6H217.8V84.3H232.4V66.9H232.5ZM526.7 48.9C526.7 52.7 525.5 55.6 523.5 58.1C527.1 61.2 529.4 65.9 529.4 71.1C529.4 80.7 520.8 88.3 511.3 88.3H485.9V33.8H510.8C519 33.8 526.7 40.6 526.7 48.9ZM500.3 53.9H507.1C509.8 53.9 512.1 51.6 512.1 48.9C512.1 46.1 509.8 43.9 507.1 43.9H500.3V53.9ZM514.8 71.1C514.8 67.1 511.5 63.8 507.5 63.8H500.3V78.4H507.5C511.5 78.4 514.8 75.1 514.8 71.1ZM557.2 89.3C566 89.3 571.6 84.4 575.1 77L568.1 70.7C565.4 74.5 562.9 77 559.6 77C553.8 77 550.6 69.6 550.6 61.2C550.6 52.7 553.8 45.4 559.6 45.4C562.9 45.4 566.7 48.6 568.8 51.5L575.1 45.2C571.8 38.7 566 32.9 557.2 32.9C544.6 32.9 536.2 45.5 536.2 61.1C536.1 76.7 544.6 89.3 557.2 89.3Z" fill="white"/>
<path d="M0.100006 114V0.299988H600.1V112.7V114H0.100006ZM2.70001 111.4H597.4V3H2.70001V111.4Z" fill="black"/>
</svg>
