<svg width="428" height="1344" viewBox="0 0 428 1344" fill="none" xmlns="http://www.w3.org/2000/svg">
<g clip-path="url(#clip0_38_5042)">
<rect width="428" height="1344" fill="#29E5F8"/>
<path d="M403.139 476.653C423.305 273.424 383.445 197.589 245.247 112.626C245.247 112.626 299.57 98.267 336.499 116.431C373.428 134.594 414.434 186.183 414.434 186.183C414.434 186.183 426.992 278.015 425.215 323.725C423.438 369.434 434.378 502.894 434.378 502.894C434.378 502.894 437.368 702.521 432.205 835.307C427.042 968.092 436.369 1143.05 436.369 1143.05L409.53 1141.93L406.335 809.292L388.059 1141.03L339.749 1139.02L352.334 815.352L367.879 1106.94C382.931 832.87 385.932 657.797 382.754 309.551L403.139 476.653Z" fill="url(#paint0_linear_38_5042)"/>
<path d="M33.8661 1021.72C23.4527 767.715 21.7406 629.617 51.4611 417.748L64.6574 520.383L77.8537 433.538L104.246 630.913L126.24 240.11C164.269 599.071 126.24 828.288 104.246 1250.67C93.0407 1084.95 98.1309 966.885 51.4611 879.605L33.8661 1021.72Z" fill="url(#paint1_linear_38_5042)"/>
<path d="M152.632 125.633L126.24 98C126.24 98 201.019 98 218.614 157.213C236.209 216.425 201.019 788.813 201.019 788.813C201.019 788.813 187.822 240.11 179.025 216.425C170.227 192.74 152.632 125.633 152.632 125.633Z" fill="url(#paint2_linear_38_5042)"/>
<path d="M218.614 844.078C218.614 773.023 267 287.48 267 287.48C267 287.48 267 611.175 249.405 765.128C231.81 919.08 249.405 1226.99 249.405 1226.99C249.405 1226.99 218.614 915.133 218.614 844.078Z" fill="url(#paint3_linear_38_5042)"/>
<rect y="1260" width="428" height="84" fill="#8C5050"/>
<g opacity="0.75" filter="url(#filter0_f_38_5042)">
<mask id="mask0_38_5042" style="mask-type:alpha" maskUnits="userSpaceOnUse" x="-201" y="966" width="1071" height="262">
<path d="M663.756 1110.68C709.046 1102.69 780.959 1154.19 793.965 1178.75C806.971 1203.32 861.702 1185.08 868.976 1196.14C872.707 1201.81 866.058 1217.91 851.993 1228H-201C-201 1228 -157.125 1186 -134.48 1187.45C-111.835 1188.89 -106.174 1186 -97.6823 1180.2C-89.1903 1174.41 -79.2832 1158.48 -79.2832 1146.89C-79.2832 1135.3 -92.021 1120.82 -79.2832 1107.78C-66.5453 1094.75 -46.7309 1067.23 -46.7309 1067.23C5.19647 1043.2 16.5839 1060.49 42.4338 1081.71C49.7133 1041.35 71.3561 1037.9 155.659 1081.71C178.2 1079.89 181.134 1084.61 196.703 1062.88C212.271 1041.16 168.397 1031.02 196.703 1013.64C225.009 996.258 188.211 986.119 225.009 971.635C261.807 957.152 293.68 969.391 342.48 1022.33C373.329 995.084 389.113 1011.88 416.076 1067.23C451.292 1098.23 454.269 1113.48 451.459 1139.65C484.034 1143.52 485.944 1154.43 491.088 1172.96C496.551 1161.52 537.862 1169.72 547.7 1178.75C557.538 1187.79 573.176 1158.48 585.914 1157.03C598.652 1155.58 624.127 1158.48 628.373 1139.65C632.619 1120.82 618.466 1118.67 663.756 1110.68Z" fill="url(#paint4_linear_38_5042)"/>
</mask>
<g mask="url(#mask0_38_5042)">
<path d="M663.756 1110.68C709.046 1102.69 780.959 1154.19 793.965 1178.75C806.971 1203.32 861.702 1185.08 868.976 1196.14C872.707 1201.81 866.058 1217.91 851.993 1228H-201C-201 1228 -157.125 1186 -134.48 1187.45C-111.835 1188.89 -106.174 1186 -97.6823 1180.2C-89.1903 1174.41 -79.2832 1158.48 -79.2832 1146.89C-79.2832 1135.3 -92.021 1120.82 -79.2832 1107.78C-66.5454 1094.75 -46.7309 1067.23 -46.7309 1067.23C5.19647 1043.2 16.5839 1060.49 42.4338 1081.71C49.7133 1041.35 71.3561 1037.9 155.659 1081.71C178.2 1079.89 181.134 1084.61 196.703 1062.88C212.271 1041.16 168.397 1031.02 196.703 1013.64C225.009 996.258 188.211 986.119 225.009 971.635C261.807 957.152 293.68 969.391 342.48 1022.33C373.329 995.084 389.113 1011.88 416.076 1067.23C451.292 1098.23 454.269 1113.48 451.459 1139.65C484.034 1143.52 485.944 1154.43 491.088 1172.96C496.551 1161.52 537.862 1169.72 547.7 1178.75C557.538 1187.79 573.176 1158.48 585.914 1157.03C598.652 1155.58 624.127 1158.48 628.373 1139.65C632.619 1120.82 618.466 1118.67 663.756 1110.68Z" fill="url(#paint5_linear_38_5042)"/>
<path d="M589.756 1170.68C635.046 1162.69 706.959 1214.19 719.965 1238.75C732.971 1263.32 787.702 1245.08 794.976 1256.14C798.707 1261.81 792.058 1277.91 777.993 1288H-275C-275 1288 -231.125 1246 -208.48 1247.45C-185.835 1248.89 -180.174 1246 -171.682 1240.2C-163.19 1234.41 -153.283 1218.48 -153.283 1206.89C-153.283 1195.3 -166.021 1180.82 -153.283 1167.78C-140.545 1154.75 -120.731 1127.23 -120.731 1127.23C-68.8035 1103.2 -57.4161 1120.49 -31.5662 1141.71C-24.2867 1101.35 -2.64392 1097.9 81.6588 1141.71C104.2 1139.89 107.134 1144.61 122.703 1122.88C138.271 1101.16 94.3965 1091.02 122.703 1073.64C151.009 1056.26 114.211 1046.12 151.009 1031.64C187.807 1017.15 219.68 1029.39 268.48 1082.33C299.329 1055.08 315.113 1071.88 342.076 1127.23C377.292 1158.23 380.269 1173.48 377.459 1199.65C410.034 1203.52 411.944 1214.43 417.088 1232.96C422.551 1221.52 463.862 1229.72 473.7 1238.75C483.538 1247.79 499.176 1218.48 511.914 1217.03C524.652 1215.58 550.127 1218.48 554.373 1199.65C558.619 1180.82 544.466 1178.67 589.756 1170.68Z" fill="url(#paint6_linear_38_5042)" fill-opacity="0.5"/>
</g>
</g>
<path d="M600.756 1163.68C646.046 1155.69 717.959 1207.19 730.965 1231.75C743.971 1256.32 798.702 1238.08 805.976 1249.14C809.707 1254.81 803.058 1270.91 788.993 1281H-264C-264 1281 -220.125 1239 -197.48 1240.45C-174.835 1241.89 -169.174 1239 -160.682 1233.2C-152.19 1227.41 -142.283 1211.48 -142.283 1199.89C-142.283 1188.3 -155.021 1173.82 -142.283 1160.78C-129.545 1147.75 -109.731 1120.23 -109.731 1120.23C-57.8035 1096.2 -46.4161 1113.49 -20.5662 1134.71C-13.2867 1094.35 8.35608 1090.9 92.6588 1134.71C115.2 1132.89 118.134 1137.61 133.703 1115.88C149.271 1094.16 105.397 1084.02 133.703 1066.64C162.009 1049.26 125.211 1039.12 162.009 1024.64C198.807 1010.15 230.68 1022.39 279.48 1075.33C310.329 1048.08 326.113 1064.88 353.076 1120.23C388.292 1151.23 391.269 1166.48 388.459 1192.65C421.034 1196.52 422.944 1207.43 428.088 1225.96C433.551 1214.52 474.862 1222.72 484.7 1231.75C494.538 1240.79 510.176 1211.48 522.914 1210.03C535.652 1208.58 561.127 1211.48 565.373 1192.65C569.619 1173.82 555.466 1171.67 600.756 1163.68Z" fill="url(#paint7_linear_38_5042)" fill-opacity="0.5"/>
<path fill-rule="evenodd" clip-rule="evenodd" d="M1171 1198H-269V1252.18H1171V1198ZM-269 1294.82C-269 1302.03 -256.818 1310.98 -246.969 1310.98C-242.932 1310.98 -238.267 1310.52 -233.409 1310.05C-223.058 1309.03 -211.828 1307.92 -203.91 1310.98C-193.238 1315.1 -184.952 1312.05 -175.303 1308.5C-172.957 1307.64 -170.531 1306.75 -167.971 1305.92C-152.911 1301.06 -136.966 1299.15 -120.942 1297.23C-114.732 1296.48 -108.511 1295.74 -102.324 1294.82C-90.0621 1292.99 -71.0776 1290.57 -60.7107 1297.76C-49.2153 1305.72 -34.7648 1311.19 -19.5424 1314.66C11.5576 1321.74 40.3263 1327.62 73.3644 1325.6C83.1925 1325 91.1696 1321.34 99.1878 1317.66C107.81 1313.71 116.48 1309.73 127.551 1309.51C131.341 1309.44 134.177 1310.11 136.872 1310.75C140.745 1311.68 144.326 1312.53 150.026 1310.98C159.32 1308.46 176.007 1305.42 185.186 1309.51C186.727 1310.2 188.387 1311.26 190.112 1312.37C193.226 1314.36 196.55 1316.48 199.762 1316.78C210.208 1317.74 220.77 1317.01 231.351 1316.28C240.521 1315.64 249.707 1315.01 258.844 1315.47C259.79 1315.52 260.733 1315.57 261.675 1315.62C274.058 1316.25 286.116 1316.86 298.677 1316.86C309.755 1316.86 317.075 1314.46 325.781 1311.6C327.846 1310.92 329.99 1310.22 332.28 1309.51C346.911 1305.02 358.062 1302.2 373.893 1305.43C377.064 1306.08 379.867 1307.29 382.661 1308.49C385.15 1309.57 387.632 1310.64 390.36 1311.31C398.918 1313.4 404.624 1313.08 413.111 1312.59C413.46 1312.57 413.813 1312.55 414.171 1312.53C417.029 1312.37 419.905 1312.24 422.789 1312.11C433.976 1311.61 445.269 1311.1 456.007 1308.7C461.31 1307.51 466.531 1306.12 471.755 1304.74C478.097 1303.06 484.444 1301.38 490.944 1300.04C507.76 1296.59 517.533 1295.36 535.673 1299.23C541.202 1300.4 546.233 1302.25 551.24 1304.08C556.704 1306.09 562.139 1308.08 568.163 1309.19C578.577 1311.1 588.316 1308.5 597.923 1305.95C605.062 1304.05 612.128 1302.17 619.345 1302.17C626.978 1302.17 633.688 1304.8 640.309 1307.41C646.759 1309.95 653.126 1312.45 660.179 1312.45C668.784 1312.45 677.169 1311.89 685.469 1311.32C702.339 1310.18 718.862 1309.07 736.174 1312.78C741.461 1313.91 747.545 1315.93 753.906 1318.04C765.567 1321.9 778.157 1326.08 788.469 1325.68C794.765 1325.44 801.031 1323.54 807.095 1321.71C809.757 1320.9 812.38 1320.11 814.95 1319.47C817.777 1318.77 820.657 1318.03 823.577 1317.27C836.745 1313.87 850.714 1310.26 864.241 1309.59C864.919 1309.56 865.633 1309.52 866.374 1309.48C870.624 1309.24 875.716 1308.96 879.595 1309.59C882.049 1309.99 884.025 1311.98 886.035 1314C887.731 1315.7 889.45 1317.43 891.501 1318.25C902.066 1322.48 914.639 1322.02 926.216 1319.47C938.124 1316.85 953.115 1313.68 965.604 1313.92C977.577 1314.15 990.707 1318.1 1001.79 1321.44L1002.32 1321.6C1003.7 1322.01 1005.02 1322.53 1006.29 1323.04C1009.77 1324.42 1012.89 1325.65 1016.01 1324.13C1025.2 1319.63 1034.21 1313.19 1041.71 1307.31C1043.31 1306.06 1044.97 1304.44 1046.73 1302.74C1051.46 1298.15 1056.91 1292.87 1063.74 1291.96C1072.17 1290.83 1079.9 1296.77 1085.87 1301.36C1087.1 1302.31 1088.26 1303.2 1089.33 1303.96C1092.81 1306.42 1109.3 1316.9 1114.92 1315.07C1117.19 1314.33 1119.15 1313.52 1120.95 1312.78C1126.59 1310.45 1130.7 1308.76 1137.95 1311.72C1151.34 1317.17 1164.38 1297.46 1169.8 1289.26C1170.26 1288.58 1170.66 1287.97 1171 1287.47V1252.18H-269V1294.82Z" fill="url(#paint8_linear_38_5042)"/>
<path d="M1.6067 1197.49C-4 1208.78 -4 1221.2 -4 1221.2H24.6237C40.7267 1229.27 48.439 1227.2 61.9514 1223.58L62.3951 1223.46C72.6998 1226.67 78.0222 1226.99 87.4777 1227.41C87.693 1227.24 87.7605 1226.8 87.4777 1223.46L111.38 1221.2V1216.4C111.38 1216.4 109.314 1208.5 104.298 1207.37C99.2812 1206.24 98.1009 1199.74 95.4451 1197.49C92.7893 1195.23 88.7506 1188.87 75.0839 1181.39C75.0839 1181.39 73.9036 1163.61 71.2477 1161.07C68.5919 1158.52 66.2312 1160.5 65.0509 1159.09C63.8705 1157.68 59.1491 1142.71 57.3786 1140.74C55.608 1138.76 48.821 1138.2 46.1652 1137.07C43.5094 1135.94 37.9027 1127.75 35.2469 1129.16C32.5911 1130.57 33.4763 1135.66 27.5745 1142.71C21.6728 1149.77 16.2935 1173.27 12.2299 1193.53C7.0954 1185.68 7.21339 1186.19 1.6067 1197.49Z" fill="url(#paint9_linear_38_5042)"/>
<g filter="url(#filter1_d_38_5042)">
<path d="M204.217 1181L194.145 1191.61C196.371 1200.29 198.173 1204.59 202.242 1211.41L212.957 1195.22C208.041 1189.95 206.487 1186.77 204.217 1181Z" fill="#96A820"/>
<path d="M238.68 1201.74C232.706 1196.06 222.547 1194.27 211.919 1194.97C201.292 1195.67 201.106 1201.74 201.106 1201.74C201.106 1201.74 201.076 1208.61 202.637 1212.6C205.265 1219.31 211.651 1221.46 218.437 1223.9C227.166 1227.05 236.693 1225.91 241.593 1218.03C245.341 1212 244.655 1207.41 238.68 1201.74Z" fill="#96A820"/>
<path fill-rule="evenodd" clip-rule="evenodd" d="M218.962 1194.89C217.378 1194.82 215.763 1194.81 214.13 1194.86C213.6 1196.63 213.109 1198.96 213.453 1200.74C213.677 1201.91 213.98 1201.92 214.696 1201.93C214.92 1201.93 215.183 1201.94 215.497 1201.98C218.176 1202.34 218.834 1198.02 218.962 1194.89ZM233.779 1198.34C234.894 1198.9 235.941 1199.54 236.908 1200.25C236.423 1201.38 234.922 1204.47 232.926 1204.53C231.847 1204.57 231.74 1204.45 231.363 1204.03L231.363 1204.03C231.278 1203.93 231.178 1203.82 231.05 1203.69C229.606 1202.24 232.328 1199.58 233.779 1198.34ZM224.617 1195.48C226.311 1195.76 227.943 1196.14 229.491 1196.62C228.4 1198.98 226.393 1203.01 225.304 1203.29C223.757 1203.69 222.935 1203.4 222.152 1202.27C221.586 1201.47 223.431 1197.57 224.617 1195.48Z" fill="#78861C"/>
<path d="M239.273 1220.94C235.323 1225.19 233.694 1199.22 238.088 1201.24C242.482 1203.27 249.938 1203.61 249.938 1203.61C249.938 1203.61 255.788 1204.67 257.689 1201.74C259.417 1199.07 259.22 1198.38 257.393 1196.9C253.453 1193.7 244.117 1192.07 245.889 1191.22C248.16 1190.13 258.675 1192.07 261.343 1193.54C263.929 1194.96 266.03 1196.4 266.725 1199.27C267.706 1203.32 266.034 1206.23 262.232 1208.5C254.485 1213.13 243.223 1216.7 239.273 1220.94Z" fill="#96A820"/>
<path d="M198.843 1202.23L203.526 1206.37C203.526 1206.37 202.898 1209.74 201.322 1210.93C199.952 1211.96 197.053 1211.96 197.053 1211.96C197.053 1211.96 196.932 1214.06 196.218 1214.77C196.021 1214.97 196.021 1214.95 195.641 1214.55C195.28 1214.17 195.135 1212.78 194.539 1212.82C194.04 1212.86 193.865 1213.74 193.453 1214.03C192.89 1214.42 193.009 1214.33 192.852 1214.17C191.655 1212.97 191.842 1211.18 192.852 1209.82C193.871 1208.44 197.053 1210.1 197.053 1208.58C197.053 1207.06 197.304 1204 198.843 1202.23Z" fill="#78861C"/>
<path d="M213.029 1228.32C211.695 1226.6 211.7 1223.01 211.706 1222.56C211.707 1222.53 211.708 1222.5 211.71 1222.47C211.944 1217.8 215.913 1219.06 218.648 1219.71C222.196 1220.54 217.761 1226.12 219.077 1229.03C219.817 1230.66 221.425 1231.99 221.102 1233.75C220.924 1234.72 220.595 1235.71 219.989 1236.34C218.932 1237.43 217.961 1238.31 216.469 1238.01C215.668 1237.85 215.09 1237.66 214.658 1236.97C213.78 1235.56 217.525 1235.42 217.452 1233.77C217.411 1232.83 216.977 1232.36 216.422 1231.6C215.71 1230.63 213.766 1229.27 213.029 1228.32Z" fill="#78861C"/>
<path d="M216.637 1238.06C216.506 1237.56 216.325 1237.37 215.847 1237.22C215.14 1237.68 214.785 1237.95 214.711 1238.5C215.507 1238.57 215.915 1238.4 216.637 1238.06Z" fill="#ECECEC"/>
<path d="M215.106 1237.42C215.165 1237.11 215.02 1236.92 214.711 1236.58C214.118 1236.98 213.837 1237.22 213.872 1237.71C214.334 1237.82 214.608 1237.72 215.106 1237.42Z" fill="#ECECEC"/>
<path fill-rule="evenodd" clip-rule="evenodd" d="M232.031 1224.97C227.8 1226.02 223.009 1225.55 218.436 1223.9L217.916 1223.72C211.326 1221.35 205.197 1219.14 202.636 1212.6C202.49 1212.22 202.358 1211.82 202.238 1211.41C199.43 1206.7 197.702 1203.19 196.169 1198.61C196.304 1198.51 196.451 1198.41 196.613 1198.33C200.508 1196.26 202.841 1200.41 205.394 1204.94C207.074 1207.93 208.849 1211.08 211.228 1212.75C213.946 1214.65 216.413 1215.25 218.989 1215.88C221.001 1216.37 223.08 1216.87 225.398 1218.03C226.155 1218.41 226.886 1218.65 227.578 1218.88C229.056 1219.38 230.352 1219.82 231.323 1221.34C231.942 1222.31 232.087 1223.66 232.031 1224.97Z" fill="#C5D26E"/>
<path d="M204.908 1219.16C203.991 1213.51 203.995 1210.5 209.137 1208.55C209.137 1208.55 215.9 1210.91 214.076 1214.74C212.252 1218.57 207.197 1220.28 204.554 1224.62C203.963 1225.59 203.624 1226.77 202.39 1227.71C202.194 1227.86 201.946 1227.74 201.6 1226.97C201.205 1226.08 202.772 1225.26 202.018 1224.62C201.171 1223.9 200.744 1225.76 199.921 1226.67C199.477 1227.16 199.082 1225.69 199.082 1225.69C199.136 1221.13 199.921 1220.3 204.908 1219.16Z" fill="#96A820"/>
<path d="M228.14 1227.46C226.815 1224.87 227.734 1220.14 227.835 1219.64C227.841 1219.61 227.848 1219.58 227.855 1219.55C229.297 1213.53 234.145 1216.15 237.54 1217.65C241.941 1219.6 234.82 1225.76 235.817 1229.85C235.88 1230.11 235.999 1230.37 236.152 1230.62C237.111 1232.2 238.132 1233.92 237.57 1235.68C237.105 1237.13 236.359 1238.75 235.213 1239.57C233.574 1240.73 232.099 1241.63 230.234 1240.88C229.234 1240.47 228.531 1240.08 228.14 1239.08C227.344 1237.04 232.239 1237.78 232.549 1235.61C232.724 1234.38 232.278 1233.66 231.742 1232.54C231.054 1231.11 228.864 1228.87 228.14 1227.46Z" fill="#96A820"/>
<path d="M228.706 1239.95C228.836 1239.14 228.668 1238.77 228.213 1238.17C226.841 1238.32 226.328 1238.66 226.238 1240.15C227.197 1240.44 227.739 1240.29 228.706 1239.95Z" fill="#ECECEC"/>
<path d="M228.213 1241.73C228.411 1240.25 229.292 1239.87 230.435 1239.95L231.076 1241.09C230.335 1241.69 229.408 1241.97 228.213 1241.73Z" fill="#ECECEC"/>
<path d="M231.669 1241.09C231.83 1240.67 231.998 1240.48 232.706 1240.35C233.354 1241.12 233.49 1241.5 232.854 1241.98C232.414 1241.91 232.162 1241.81 231.669 1241.09Z" fill="#ECECEC"/>
<path d="M189.95 1174.13C185.502 1177.39 182.194 1175.4 177.612 1178.92C174.219 1181.52 173.026 1185.65 174.854 1189.52C175.814 1191.55 176.372 1192.13 178.919 1193.58C181.465 1195.03 190.513 1193.6 198.296 1193.58C201.584 1193.57 205.1 1189.27 204.974 1187.63C205.635 1187.69 204.781 1181.67 203.595 1179.35C202.408 1177.04 195.075 1170.36 189.95 1174.13Z" fill="#96A820"/>
<path d="M183.076 1192.05C182.315 1191.82 182.001 1191.57 181.761 1190.75L183.373 1190.02C183.069 1190.94 182.99 1191.39 183.076 1192.05Z" fill="white"/>
<path d="M186.006 1190.65C185.043 1190.7 185.019 1190.27 184.99 1189.49L186.315 1189.11C186.315 1189.11 185.777 1190.1 186.006 1190.65Z" fill="white"/>
<path fill-rule="evenodd" clip-rule="evenodd" d="M178.951 1191.71C177.858 1191.73 176.687 1191.38 175.087 1190.46C174.95 1190.38 174.903 1190.21 174.981 1190.07C175.059 1189.94 175.233 1189.89 175.37 1189.97C176.924 1190.85 177.991 1191.16 178.94 1191.14C179.899 1191.12 180.773 1190.78 181.967 1190.28C182.012 1190.26 182.058 1190.24 182.103 1190.23C184.49 1189.24 187.955 1187.8 195.218 1187.63C195.376 1187.62 195.506 1187.75 195.51 1187.9C195.514 1188.06 195.389 1188.19 195.232 1188.2C188.074 1188.37 184.679 1189.77 182.331 1190.75C182.282 1190.77 182.234 1190.79 182.186 1190.81C181.008 1191.3 180.035 1191.69 178.951 1191.71Z" fill="#78861C"/>
<path fill-rule="evenodd" clip-rule="evenodd" d="M190.97 1178.37C191.137 1177.84 191.588 1177.43 192.135 1177.15C192.722 1176.86 193.447 1176.72 194.139 1176.78C194.831 1176.84 195.506 1177.11 195.968 1177.65C196.432 1178.2 196.659 1179.01 196.507 1180.09C196.493 1180.19 196.403 1180.26 196.305 1180.25C196.208 1180.23 196.14 1180.14 196.153 1180.04C196.295 1179.03 196.078 1178.34 195.695 1177.88C195.309 1177.43 194.733 1177.19 194.108 1177.13C193.656 1177.09 193.187 1177.15 192.762 1177.28C193.594 1177.35 194.29 1178 194.39 1178.86C194.505 1179.84 193.803 1180.72 192.823 1180.84C191.843 1180.95 190.956 1180.25 190.841 1179.27C190.804 1178.95 190.853 1178.65 190.97 1178.37Z" fill="#585858"/>
</g>
<g filter="url(#filter2_d_38_5042)">
<path d="M116.316 1199.31L117.723 1202.09C117.888 1202.41 118.217 1202.62 118.582 1202.63L121.867 1202.74C122.264 1202.75 122.631 1202.53 122.802 1202.17L124.053 1199.56C124.203 1199.25 124.18 1198.88 123.991 1198.59L120.893 1193.79C120.497 1193.18 119.597 1193.18 119.207 1193.8L116.362 1198.32C116.175 1198.62 116.157 1198.99 116.316 1199.31Z" fill="#F18A25"/>
<path d="M126.274 1199.78L126.461 1202.37C126.487 1202.73 126.71 1203.05 127.042 1203.2L129.523 1204.34C129.884 1204.5 130.308 1204.44 130.604 1204.18L132.388 1202.59C132.647 1202.35 132.768 1202.01 132.707 1201.66L131.871 1196.99C131.742 1196.27 130.909 1195.93 130.311 1196.35L126.696 1198.89C126.408 1199.1 126.248 1199.43 126.274 1199.78Z" fill="#F18A25"/>
<path d="M133.911 1203.95L133.634 1205.65C133.576 1206.01 133.719 1206.38 134.007 1206.6L135.439 1207.72C135.752 1207.96 136.18 1208 136.529 1207.81L137.904 1207.07C138.21 1206.9 138.409 1206.59 138.428 1206.24L138.604 1203.08C138.645 1202.35 137.914 1201.82 137.235 1202.1L134.527 1203.18C134.201 1203.31 133.967 1203.6 133.911 1203.95Z" fill="#F18A25"/>
<path d="M105.122 1203.25L105.371 1204.96C105.424 1205.32 105.276 1205.68 104.984 1205.9L103.534 1206.99C103.217 1207.23 102.789 1207.26 102.443 1207.07L101.08 1206.3C100.776 1206.14 100.583 1205.82 100.569 1205.47L100.442 1202.31C100.413 1201.58 101.152 1201.06 101.827 1201.35L104.518 1202.47C104.842 1202.6 105.071 1202.9 105.122 1203.25Z" fill="#F18A25"/>
<path d="M99.4079 1207.23L99.9739 1208.4C100.134 1208.73 100.102 1209.11 99.8908 1209.41L99.1073 1210.52C98.8779 1210.84 98.4787 1211 98.09 1210.92L96.969 1210.69C96.6286 1210.62 96.3488 1210.38 96.2303 1210.05L95.4223 1207.82C95.1729 1207.14 95.7214 1206.42 96.4498 1206.49L98.5961 1206.68C98.946 1206.71 99.2542 1206.92 99.4079 1207.23Z" fill="#F18A25"/>
<path d="M139.047 1208.04L138.481 1209.21C138.321 1209.54 138.353 1209.93 138.564 1210.22L139.347 1211.33C139.577 1211.65 139.976 1211.81 140.365 1211.73L141.486 1211.5C141.826 1211.43 142.106 1211.19 142.224 1210.86L143.032 1208.64C143.282 1207.95 142.733 1207.23 142.005 1207.3L139.858 1207.49C139.509 1207.52 139.2 1207.73 139.047 1208.04Z" fill="#F18A25"/>
<path d="M113.666 1199.88L113.224 1202.43C113.161 1202.79 112.908 1203.08 112.562 1203.2L109.981 1204.08C109.605 1204.21 109.189 1204.11 108.921 1203.82L107.304 1202.06C107.068 1201.8 106.983 1201.44 107.078 1201.11L108.373 1196.54C108.573 1195.84 109.435 1195.58 109.989 1196.06L113.334 1198.95C113.6 1199.18 113.726 1199.53 113.666 1199.88Z" fill="#F18A25"/>
<path d="M119.23 1226.99C118.169 1225.24 118.056 1223.48 118.206 1221.12C118.27 1220.11 118.849 1219.2 119.774 1218.81C122.095 1217.83 123.711 1218.02 125.501 1219.22C126.791 1220.08 126.867 1221.89 126.102 1223.24C125.406 1224.47 124.74 1225.99 124.782 1227.23C124.79 1227.46 124.81 1227.68 124.841 1227.91C125.147 1230.2 123.707 1232.78 121.397 1232.78H120.317C119.19 1232.78 118.046 1232.22 118.603 1231.24C119.312 1229.99 119.976 1228.21 119.23 1226.99Z" fill="#239282"/>
<path d="M99.3666 1227.14C99.5052 1226.67 99.7522 1226.18 100.053 1225.71C101.106 1224.05 100.804 1221.63 99.024 1220.81C97.9393 1220.3 96.648 1220.57 95.9606 1221.55C95.174 1222.67 94.2569 1224.2 94.0078 1225.54C93.844 1226.42 93.6941 1227.38 93.5733 1228.22C93.3889 1229.49 94.1797 1230.7 95.4144 1231.07C96.9867 1231.54 98.6048 1230.48 98.9423 1228.87C99.0635 1228.29 99.2053 1227.7 99.3666 1227.14Z" fill="#239282"/>
<path d="M160.109 1220.6L159.534 1220.46C158.691 1220.26 158.477 1219.13 159.108 1218.54C159.691 1217.99 160.161 1217.43 160.572 1216.82C161.163 1215.94 162.597 1216.21 162.407 1217.25C162.21 1218.34 161.812 1219.27 161.104 1220.25C160.879 1220.56 160.483 1220.69 160.109 1220.6Z" fill="#F18A25"/>
<path d="M168.712 1218.9C168.766 1219.46 168.705 1220.04 168.469 1220.7C168.37 1220.98 168.097 1221.15 167.8 1221.15C167.001 1221.15 166.606 1219.78 167.008 1219.09C167.042 1219.03 167.074 1218.97 167.105 1218.91C167.479 1218.2 168.633 1218.1 168.712 1218.9Z" fill="#F18A25"/>
<path d="M85.1789 1209.53C81.1248 1206.69 79.6383 1210.2 73.6924 1212.91C71.8014 1213.78 70.8131 1213.19 70.1786 1215.17C69.4482 1217.44 70.9892 1219.62 74.2327 1219.76C77.4761 1219.9 79.0979 1220.62 83.6924 1220.07C88.2869 1219.53 90.179 1218.86 98.8278 1223.45C107.477 1228.05 132.747 1225.75 142.072 1221.29C148.423 1221.97 172.883 1223.18 173.964 1221.29C175.045 1219.4 151.444 1223.45 138.828 1209.53C126.212 1195.61 103.287 1203.45 98.8278 1209.53C94.3684 1215.61 89.233 1212.37 85.1789 1209.53Z" fill="#1EAB97"/>
<path fill-rule="evenodd" clip-rule="evenodd" d="M139.309 1222.4C135.956 1221.05 128.21 1220.11 119.19 1220.11C108.91 1220.11 100.285 1221.33 97.9321 1222.98C98.2224 1223.13 98.5207 1223.29 98.8276 1223.45C106.727 1227.65 128.491 1226.1 139.309 1222.4Z" fill="#7CD9CC"/>
<path d="M102.154 1228.24C102.16 1227.14 101.856 1225.88 101.46 1224.71C100.791 1222.74 101.897 1220.44 103.949 1220.1L104.746 1219.97C106.14 1219.73 107.508 1220.51 107.915 1221.86C108.464 1223.68 109.07 1226.25 108.886 1228.24C108.705 1230.18 107.678 1232.57 106.946 1234.07C106.504 1234.98 105.571 1235.51 104.562 1235.51C102.406 1235.51 101.009 1233.15 101.642 1231.09C101.937 1230.12 102.148 1229.13 102.154 1228.24Z" fill="#1EAB97"/>
<path d="M127.556 1228.78C126.232 1226.6 126.136 1224.41 126.347 1221.39C126.417 1220.39 126.996 1219.48 127.911 1219.07C131.057 1217.65 133.124 1217.97 135.538 1219.75C136.783 1220.67 136.879 1222.46 136.084 1223.79C135.156 1225.34 134.16 1227.41 134.217 1229.07C134.238 1229.69 134.336 1230.32 134.481 1230.94C135.004 1233.19 133.51 1235.75 131.202 1235.75H128.867C127.51 1235.75 126.132 1235.08 126.803 1233.9C127.656 1232.4 128.452 1230.26 127.556 1228.78Z" fill="#1EAB97"/>
<path fill-rule="evenodd" clip-rule="evenodd" d="M80.2847 1212.11C80.3912 1211.77 80.679 1211.5 81.0285 1211.33C81.4029 1211.14 81.8654 1211.05 82.3065 1211.09C82.7478 1211.13 83.1779 1211.3 83.4726 1211.65C83.7687 1212 83.9137 1212.51 83.8165 1213.2C83.8078 1213.27 83.7502 1213.31 83.6879 1213.3C83.6256 1213.29 83.5821 1213.23 83.5909 1213.17C83.6814 1212.53 83.5429 1212.08 83.2985 1211.79C83.0527 1211.5 82.6853 1211.35 82.2865 1211.32C81.9985 1211.29 81.6995 1211.33 81.4288 1211.41C81.9591 1211.45 82.403 1211.87 82.4669 1212.42C82.5398 1213.04 82.0922 1213.61 81.4673 1213.68C80.8424 1213.75 80.2767 1213.3 80.2039 1212.68C80.1803 1212.48 80.2111 1212.28 80.2847 1212.11Z" fill="#585858"/>
</g>
<path d="M357.613 1222H524.862C524.862 1222 529.672 1095.61 524.862 1072.7C520.052 1049.79 498.221 1005.55 497.851 988.962C497.481 972.373 492.3 884.688 488.97 872.838C485.64 860.989 476.019 817.541 470.099 815.171C464.179 812.802 447.898 835.711 439.758 840.45C431.617 845.19 413.856 823.861 400.165 900.487C386.475 977.113 373.894 962.103 372.044 996.862C370.194 1031.62 363.903 1042.68 362.793 1072.7C361.683 1102.72 362.423 1125.63 357.613 1144.58C352.803 1163.54 360.573 1201.99 357.613 1222Z" fill="#00435D"/>
<g filter="url(#filter3_d_38_5042)">
<path d="M282.433 1226.41L289.505 1216.44C291.317 1213.89 294.881 1213.33 297.382 1215.22C299.862 1217.09 300.326 1220.63 298.411 1223.08L290.879 1232.7C289.056 1235.03 285.675 1235.41 283.389 1233.53C281.25 1231.78 280.832 1228.67 282.433 1226.41Z" fill="#DD8831"/>
<path d="M330.623 1236.54L332.833 1232.12C334.612 1228.56 332.121 1224.35 328.146 1224.2C325.715 1224.11 323.515 1225.63 322.745 1227.94L321.183 1232.63C320.035 1236.07 322.731 1239.58 326.352 1239.36C328.177 1239.25 329.805 1238.17 330.623 1236.54Z" fill="#DD8831"/>
<path d="M354.861 1215.68C355.658 1207.91 352.264 1204.38 349.692 1198.58C341.05 1179.12 299.93 1187.14 295.444 1196.35C288.088 1211.43 286.404 1218.18 301.884 1224.67C316.227 1230.69 352.726 1236.49 354.861 1215.68Z" fill="#FD9223"/>
<path d="M289.469 1132.43C291.435 1160.84 296.196 1172.42 304.924 1192.98L289.52 1212.25C281.077 1186.15 275.087 1172.34 279.834 1137.58L289.469 1132.43Z" fill="#FD9223"/>
<path fill-rule="evenodd" clip-rule="evenodd" d="M289.204 1211.95C288.672 1210.31 288.15 1208.72 287.641 1207.16C280.332 1184.82 275.614 1170.4 279.587 1139.44L279.59 1139.44L281.82 1139.6C280.741 1159.43 293.399 1204.91 303.489 1212.09C306.855 1214.49 311.307 1215.13 315.848 1215.79C324.063 1216.99 332.566 1218.22 335.443 1229.93C322.376 1231.3 306.21 1227.74 298.535 1223.55C294.783 1221.51 292.301 1219.37 290.882 1217.05L289.204 1211.95Z" fill="#FEBB24"/>
<path d="M309.798 1238.45L315.622 1218.31C316.702 1214.57 314.577 1210.66 310.854 1209.53C306.715 1208.27 302.424 1210.98 301.767 1215.25L298.581 1235.98C298.076 1239.26 300.452 1242.29 303.764 1242.59C306.505 1242.83 309.034 1241.09 309.798 1238.45Z" fill="#FD9223"/>
<path d="M346.583 1236.77L345.753 1227.56C345.473 1224.46 342.615 1222.24 339.539 1222.75C336.741 1223.21 334.783 1225.76 335.07 1228.58L336.004 1237.78C336.333 1241.03 339.48 1243.21 342.635 1242.39C345.147 1241.73 346.817 1239.36 346.583 1236.77Z" fill="#FD9223"/>
<path d="M287.134 1132.74C287.143 1136.51 282.79 1139.59 277.412 1139.6C272.033 1139.61 267.009 1138.27 267 1134.49C266.991 1130.71 271.344 1127.64 276.722 1127.63C282.101 1127.62 287.125 1128.96 287.134 1132.74Z" fill="#FD9223"/>
<path d="M289.47 1132.43C287.996 1123.79 280.546 1120.95 274.014 1127.9L285.614 1134.82L289.47 1132.43Z" fill="#FD9223"/>
<path d="M394.626 1228.21C374.084 1226.88 361.47 1221.67 350.626 1200.61C350.165 1199.72 348.781 1199.94 348.67 1200.95L345.788 1227.02C345.742 1227.43 345.965 1227.84 346.334 1228.02C367.308 1238.68 378.254 1235.36 394.606 1230.41L394.884 1230.32C395.976 1229.99 395.764 1228.28 394.626 1228.21Z" fill="#FD9223"/>
<path fill-rule="evenodd" clip-rule="evenodd" d="M278.814 1128.88C278.963 1128.41 279.365 1128.03 279.853 1127.79C280.377 1127.53 281.024 1127.4 281.641 1127.46C282.258 1127.51 282.859 1127.75 283.271 1128.24C283.686 1128.73 283.888 1129.44 283.752 1130.41C283.74 1130.5 283.66 1130.56 283.573 1130.55C283.485 1130.54 283.425 1130.46 283.437 1130.37C283.564 1129.47 283.37 1128.85 283.028 1128.44C282.684 1128.03 282.17 1127.82 281.613 1127.77C281.21 1127.74 280.791 1127.79 280.413 1127.91C281.154 1127.97 281.775 1128.54 281.865 1129.31C281.967 1130.19 281.341 1130.98 280.467 1131.08C279.592 1131.18 278.801 1130.55 278.699 1129.68C278.666 1129.4 278.71 1129.12 278.814 1128.88Z" fill="#585858"/>
</g>
</g>
<defs>
<filter id="filter0_f_38_5042" x="-206" y="961" width="1081" height="272" filterUnits="userSpaceOnUse" color-interpolation-filters="sRGB">
<feFlood flood-opacity="0" result="BackgroundImageFix"/>
<feBlend mode="normal" in="SourceGraphic" in2="BackgroundImageFix" result="shape"/>
<feGaussianBlur stdDeviation="2.5" result="effect1_foregroundBlur_38_5042"/>
</filter>
<filter id="filter1_d_38_5042" x="172" y="1173" width="97.0005" height="72.9756" filterUnits="userSpaceOnUse" color-interpolation-filters="sRGB">
<feFlood flood-opacity="0" result="BackgroundImageFix"/>
<feColorMatrix in="SourceAlpha" type="matrix" values="0 0 0 0 0 0 0 0 0 0 0 0 0 0 0 0 0 0 127 0" result="hardAlpha"/>
<feOffset dy="2"/>
<feGaussianBlur stdDeviation="1"/>
<feComposite in2="hardAlpha" operator="out"/>
<feColorMatrix type="matrix" values="0 0 0 0 0 0 0 0 0 0 0 0 0 0 0 0 0 0 0.25 0"/>
<feBlend mode="normal" in2="BackgroundImageFix" result="effect1_dropShadow_38_5042"/>
<feBlend mode="normal" in="SourceGraphic" in2="effect1_dropShadow_38_5042" result="shape"/>
</filter>
<filter id="filter2_d_38_5042" x="68" y="1193.33" width="108" height="46.4148" filterUnits="userSpaceOnUse" color-interpolation-filters="sRGB">
<feFlood flood-opacity="0" result="BackgroundImageFix"/>
<feColorMatrix in="SourceAlpha" type="matrix" values="0 0 0 0 0 0 0 0 0 0 0 0 0 0 0 0 0 0 127 0" result="hardAlpha"/>
<feOffset dy="2"/>
<feGaussianBlur stdDeviation="1"/>
<feComposite in2="hardAlpha" operator="out"/>
<feColorMatrix type="matrix" values="0 0 0 0 0 0 0 0 0 0 0 0 0 0 0 0 0 0 0.25 0"/>
<feBlend mode="normal" in2="BackgroundImageFix" result="effect1_dropShadow_38_5042"/>
<feBlend mode="normal" in="SourceGraphic" in2="effect1_dropShadow_38_5042" result="shape"/>
</filter>
<filter id="filter3_d_38_5042" x="265" y="1124" width="132.601" height="122.608" filterUnits="userSpaceOnUse" color-interpolation-filters="sRGB">
<feFlood flood-opacity="0" result="BackgroundImageFix"/>
<feColorMatrix in="SourceAlpha" type="matrix" values="0 0 0 0 0 0 0 0 0 0 0 0 0 0 0 0 0 0 127 0" result="hardAlpha"/>
<feOffset dy="2"/>
<feGaussianBlur stdDeviation="1"/>
<feComposite in2="hardAlpha" operator="out"/>
<feColorMatrix type="matrix" values="0 0 0 0 0 0 0 0 0 0 0 0 0 0 0 0 0 0 0.25 0"/>
<feBlend mode="normal" in2="BackgroundImageFix" result="effect1_dropShadow_38_5042"/>
<feBlend mode="normal" in="SourceGraphic" in2="effect1_dropShadow_38_5042" result="shape"/>
</filter>
<linearGradient id="paint0_linear_38_5042" x1="358.283" y1="109.951" x2="314.623" y2="1156.86" gradientUnits="userSpaceOnUse">
<stop stop-color="#AFFFF6" stop-opacity="0"/>
<stop offset="0.0591853" stop-color="#AFFFF6"/>
<stop offset="1" stop-color="#AFFFF6" stop-opacity="0"/>
</linearGradient>
<linearGradient id="paint1_linear_38_5042" x1="144.237" y1="98" x2="144.237" y2="1271.81" gradientUnits="userSpaceOnUse">
<stop stop-color="#AFFFF6" stop-opacity="0"/>
<stop offset="0.0591853" stop-color="#AFFFF6"/>
<stop offset="1" stop-color="#AFFFF6" stop-opacity="0"/>
</linearGradient>
<linearGradient id="paint2_linear_38_5042" x1="144.237" y1="98" x2="144.237" y2="1271.81" gradientUnits="userSpaceOnUse">
<stop stop-color="#AFFFF6" stop-opacity="0"/>
<stop offset="0.0591853" stop-color="#AFFFF6"/>
<stop offset="1" stop-color="#AFFFF6" stop-opacity="0"/>
</linearGradient>
<linearGradient id="paint3_linear_38_5042" x1="144.237" y1="98" x2="144.237" y2="1271.81" gradientUnits="userSpaceOnUse">
<stop stop-color="#AFFFF6" stop-opacity="0"/>
<stop offset="0.0591853" stop-color="#AFFFF6"/>
<stop offset="1" stop-color="#AFFFF6" stop-opacity="0"/>
</linearGradient>
<linearGradient id="paint4_linear_38_5042" x1="334" y1="1097" x2="334" y2="1369" gradientUnits="userSpaceOnUse">
<stop stop-color="white"/>
<stop offset="1" stop-color="white" stop-opacity="0"/>
</linearGradient>
<linearGradient id="paint5_linear_38_5042" x1="334" y1="1097" x2="334" y2="1369" gradientUnits="userSpaceOnUse">
<stop stop-color="white"/>
<stop offset="1" stop-color="white" stop-opacity="0"/>
</linearGradient>
<linearGradient id="paint6_linear_38_5042" x1="260" y1="1157" x2="260" y2="1429" gradientUnits="userSpaceOnUse">
<stop stop-color="#AFFFF6"/>
<stop offset="1" stop-color="white" stop-opacity="0"/>
</linearGradient>
<linearGradient id="paint7_linear_38_5042" x1="271" y1="1150" x2="271" y2="1422" gradientUnits="userSpaceOnUse">
<stop stop-color="#AFFFF6"/>
<stop offset="1" stop-color="white" stop-opacity="0"/>
</linearGradient>
<linearGradient id="paint8_linear_38_5042" x1="451" y1="1198" x2="451" y2="1326" gradientUnits="userSpaceOnUse">
<stop offset="0.114287" stop-color="#8EC374"/>
<stop offset="1" stop-color="#5FA042"/>
</linearGradient>
<linearGradient id="paint9_linear_38_5042" x1="53.6899" y1="1129" x2="53.6899" y2="1227.41" gradientUnits="userSpaceOnUse">
<stop stop-color="#005158"/>
<stop offset="1" stop-color="#00435D"/>
</linearGradient>
<clipPath id="clip0_38_5042">
<rect width="428" height="1344" fill="white"/>
</clipPath>
</defs>
</svg>
