<svg width="414" height="387" viewBox="0 0 414 387" fill="none" xmlns="http://www.w3.org/2000/svg">
<g clip-path="url(#clip0_62_15859)">
<path d="M125.026 271.824C123.323 271.257 120.372 271.526 120.372 272.249L120.372 283.944C120.372 284.573 121.197 285.202 122.671 285.698L595.858 444.819L1080.76 316.904L1080.76 302.005L595.859 428.634L125.026 271.824Z" fill="#061B26"/>
<path d="M122.04 273.054C119.941 272.355 119.974 271.335 122.116 270.776L605.061 144.657L1082.43 303.644L595.608 430.775L122.04 273.054Z" fill="#133141"/>
<path d="M173.158 274.743C171.059 274.043 171.093 273.023 173.234 272.464L604.56 159.826L1031.31 301.955L596.109 415.606L173.158 274.743Z" fill="#476A7D"/>
<path d="M185.498 275.151C183.398 274.452 183.432 273.431 185.573 272.872L234.65 260.056L286.576 277.35L233.622 291.179L185.498 275.151Z" fill="#809CAA"/>
<rect width="54.7301" height="54.7301" transform="matrix(0.967552 -0.25267 0.948765 0.315984 234.65 260.056)" fill="#133141"/>
<rect width="54.7301" height="54.7301" transform="matrix(0.967552 -0.25267 0.948765 0.315984 287.604 246.228)" fill="#809CAA"/>
<rect width="54.7301" height="54.7301" transform="matrix(0.967552 -0.25267 0.948765 0.315984 340.558 232.399)" fill="#133141"/>
<rect width="54.7301" height="54.7301" transform="matrix(0.967552 -0.25267 0.948765 0.315984 393.513 218.57)" fill="#809CAA"/>
<rect width="54.7301" height="54.7301" transform="matrix(-0.967552 0.25267 0.948765 0.315984 442.073 297.673)" fill="#809CAA"/>
<rect width="54.7301" height="54.7301" transform="matrix(-0.967552 0.25267 0.948765 0.315984 389.119 311.502)" fill="#133141"/>
<rect width="54.7301" height="54.7301" transform="matrix(0.967552 -0.25267 0.948765 0.315984 284.675 308.183)" fill="#809CAA"/>
<rect width="54.7301" height="54.7301" transform="matrix(0.967552 -0.25267 0.948765 0.315984 337.629 294.354)" fill="#133141"/>
<rect width="54.7301" height="54.7301" transform="matrix(0.967552 -0.25267 0.948765 0.315984 390.583 280.525)" fill="#809CAA"/>
<rect width="54.7301" height="54.7301" transform="matrix(-0.967552 0.25267 0.948765 0.315984 445.002 235.719)" fill="#809CAA"/>
<rect width="54.7301" height="54.7301" transform="matrix(-0.967552 0.25267 0.948765 0.315984 392.048 249.548)" fill="#133141"/>
<rect width="54.7301" height="54.7301" transform="matrix(-0.967552 0.25267 0.948765 0.315984 339.094 263.376)" fill="#809CAA"/>
<rect width="54.7301" height="54.7301" transform="matrix(-0.967552 0.25267 0.948765 0.315984 286.14 277.205)" fill="#133141"/>
<rect width="54.7301" height="54.7301" transform="matrix(0.967552 -0.25267 0.948765 0.315984 387.654 342.479)" fill="#809CAA"/>
<path opacity="0.45" d="M533.786 235.602L315 175.626L343.651 161L622.743 193.858C622.743 193.858 610.922 227.718 587.681 235.602C564.44 243.486 533.786 235.602 533.786 235.602Z" fill="#031119"/>
<path d="M334.262 122.135C335.927 122.492 335.946 124.431 335.747 125.356C343.972 124.221 348.327 130.961 348.917 138.343C349.611 138.492 352.631 141.318 353.422 144.39C354.806 149.766 358.101 149.625 360.156 150.19L371.946 152.724C377.493 153.916 379.477 151.44 381.162 150.351C382.847 149.262 385.426 144.013 386.91 147.234C388.098 149.811 387.699 153.691 387.351 155.309L390.125 155.905C390.423 154.518 399.691 148.529 407.663 155.321C414.497 161.143 411.872 176.25 402.596 178.9C393.321 181.55 388.331 174.383 386.996 170.469L384.222 169.873C383.924 171.26 382.336 175.271 380.502 177.054C379.035 178.48 378.041 177.251 377.728 176.458C376.504 168.649 371.575 165.704 369.263 165.207L357.473 162.673C352.619 161.63 350.636 164.106 347.959 166.433C345.818 168.294 343.334 168.825 342.36 168.857C335.27 178.216 328.73 178.262 324.472 174.445C323.876 177.219 322.439 177.152 321.795 176.771C319.22 175.251 320.246 171.602 320.363 169.934C320.965 157.004 328.462 128.869 329.752 126.244C331.003 123.697 332.182 121.687 334.262 122.135Z" fill="#0B1C25"/>
<mask id="mask0_62_15859" style="mask-type:alpha" maskUnits="userSpaceOnUse" x="320" y="122" width="92" height="58">
<path d="M334.263 122.134C335.927 122.491 335.946 124.43 335.747 125.355C343.972 124.22 348.327 130.96 348.917 138.342C349.611 138.491 352.631 141.317 353.422 144.389C354.806 149.765 358.101 149.624 360.156 150.189L371.946 152.723C377.494 153.915 379.477 151.439 381.162 150.35C382.847 149.262 385.426 144.012 386.911 147.233C388.098 149.81 387.699 153.69 387.352 155.308L390.126 155.904C390.424 154.517 399.692 148.528 407.664 155.32C414.497 161.142 411.872 176.249 402.596 178.899C393.321 181.549 388.331 174.382 386.996 170.468L384.222 169.872C383.924 171.259 382.336 175.271 380.502 177.053C379.035 178.479 378.041 177.25 377.728 176.457C376.504 168.648 371.575 165.703 369.263 165.206L357.474 162.672C352.619 161.629 350.636 164.105 347.96 166.432C345.818 168.293 343.334 168.824 342.36 168.856C335.27 178.215 328.731 178.261 324.472 174.444C323.876 177.218 322.439 177.151 321.795 176.771C319.22 175.25 320.246 171.601 320.363 169.933C320.965 157.003 328.462 128.868 329.752 126.243C331.003 123.696 332.182 121.686 334.263 122.134Z" fill="#D3E3EB"/>
</mask>
<g mask="url(#mask0_62_15859)">
<path d="M323.092 165.895C324.757 166.253 328.498 161.34 328.299 162.264C329.373 165.605 334.699 171.666 343.017 161.97C343.711 162.119 348.873 156.294 349.663 159.366C351.047 164.742 355.543 159.808 357.598 160.373L369.387 162.907C374.935 164.099 376.009 164.342 377.657 164.754C379.603 165.242 379.603 165.883 381.699 166.408C384.452 167.098 385.066 164.174 384.718 165.792L387.492 166.388C389.152 169.065 393.008 172.737 397.202 173.787C403.625 175.395 408.437 172.462 409.898 170.758C411.511 168.878 410.906 175.634 402.588 178.898C393.608 182.421 388.323 174.381 386.988 170.466L384.214 169.87C383.916 171.257 382.328 175.269 380.494 177.052C379.027 178.478 378.033 177.248 377.72 176.455C376.496 168.647 371.567 165.701 369.255 165.205L357.466 162.671C352.611 161.628 350.628 164.104 347.951 166.43C345.81 168.292 343.326 168.822 342.352 168.855C335.262 178.214 328.722 178.26 324.464 174.442C323.868 177.216 322.431 177.149 321.787 176.769C319.212 175.248 320.238 171.599 320.355 169.932C320.957 157.002 322.88 150.853 323.885 148.107C325.189 144.546 321.012 165.448 323.092 165.895Z" fill="#020E14"/>
<path d="M384.137 170.276C384.432 166.149 386.156 158.566 387.156 155.422L390.124 155.927C387.574 161.269 387.231 168.157 387.26 170.997L384.137 170.276Z" fill="#020E14"/>
</g>
<path opacity="0.45" d="M413.552 311.473L9.83984 208.491L268.496 157L671.408 236.741L413.552 311.473Z" fill="#031119"/>
<path d="M117.522 225.797C118.617 229.146 121.923 235.54 125.895 235.271C126.049 235.253 126.196 235.234 126.337 235.213C126.189 235.242 126.042 235.261 125.895 235.271C122.486 235.672 116.086 235.537 110.91 233.811C113.314 233.744 118.002 232.048 117.522 225.797Z" fill="#A1948F"/>
<path d="M58.417 83.5954C57.1097 80.3231 53.4005 74.1547 49.4536 74.6774C49.3016 74.7052 49.1557 74.7338 49.0163 74.7629C49.1623 74.725 49.3081 74.6966 49.4536 74.6774C52.8301 74.0586 59.2253 73.7838 64.5017 75.1742C62.1067 75.3949 57.5367 77.388 58.417 83.5954Z" fill="#958681"/>
<path d="M255.929 11.9775C255.929 11.9775 289.011 33.5153 290.026 34.659C291.042 35.8026 292.831 37.6643 292.831 37.6643L286.42 35.5481L57.5264 75.1996C56.3178 75.409 55.0799 75.0533 54.1668 74.2343L23.4478 46.6802L19.3486 45.8788L21.5525 44.877L255.929 11.9775Z" fill="#A69A96"/>
<g filter="url(#filter0_i_62_15859)">
<path d="M110.62 233.79L-39.6899 200.955C-43.933 102.759 -3.61376 57.6665 19.155 46.0113C20.55 45.2971 22.2209 45.5828 23.3879 46.6289L54.7316 74.722C55.1795 75.1235 55.5314 75.6208 55.7609 76.1768L117.459 225.624C119.31 230.108 115.36 234.825 110.62 233.79Z" fill="#D3CDCC"/>
</g>
<path d="M110.611 233.776L-10.7043 207.164C-14.9898 107.987 20.0238 76.3061 42.363 65.8491C43.3558 65.3843 44.5159 65.5818 45.3328 66.3127L55.071 75.0258C55.2956 75.2268 55.472 75.4758 55.587 75.7544L117.454 225.612C119.306 230.098 115.352 234.816 110.611 233.776Z" fill="#CCC4C1"/>
<path d="M110.557 233.747L35.5772 217.182C33.1729 183.456 38.5825 141.047 75.2472 124.218L117.404 225.57C119.272 230.062 115.308 234.797 110.557 233.747Z" fill="#C5BBB7"/>
<path d="M119.903 231.566L58.0604 82.4159C56.5875 78.8636 58.7831 74.8611 62.5703 74.1942L286.606 34.746C289.316 34.2688 292.004 35.693 293.132 38.2033L355.108 176.215C356.664 179.681 354.654 183.704 350.948 184.54L126.779 235.127C123.926 235.771 121.023 234.268 119.903 231.566Z" fill="#72635E"/>
<g filter="url(#filter1_i_62_15859)">
<path d="M52.655 50.9863V47.8467L67.5536 61.177V64.3105C67.5536 64.695 68.7425 65.606 69.2368 66.1137C69.2368 66.1137 67.8344 66.5144 67.5536 66.4828L53.7982 53.6205C53.069 52.9385 52.655 51.9848 52.655 50.9863Z" fill="#D3CDCC"/>
<path d="M52.5808 47.8828L160.264 30.013L244.645 1.63044C245.826 1.23303 247.126 1.4081 248.16 2.10411L267.988 15.4486C268.063 15.4486 268.388 15.6258 268.388 16.0265L267.587 15.4486L173.595 42.5591L66.9524 61.3784L52.5808 47.8828Z" fill="#B8AFAC"/>
<path d="M172.219 42.8733L158.795 30.251H159.997L173.821 42.4725L172.219 42.8733Z" fill="#AB9D97"/>
<path d="M267.451 15.4115L173.595 42.5599V48.0489L265.868 30.5093C267.38 30.2218 268.475 28.8997 268.475 27.3601V16.1813C268.475 15.6478 267.963 15.2632 267.451 15.4115Z" fill="#72635E"/>
<path d="M173.621 48.0443L67.9724 66.5521C67.482 66.638 67.0327 66.2606 67.0327 65.7627V61.2878L173.621 42.541V48.0443Z" fill="#72635E"/>
</g>
<path d="M326.905 150.708L121.343 191.851C120.97 191.926 120.596 191.727 120.448 191.377L97.4486 136.933C97.2488 136.46 97.5389 135.924 98.044 135.832L304.234 98.4845C304.598 98.4186 304.96 98.6107 305.11 98.9493L327.481 149.598C327.688 150.067 327.407 150.607 326.905 150.708Z" fill="#746560"/>
<path d="M191.759 201.411L132.105 213.958C131.008 214.189 129.939 213.474 129.7 212.379C128.498 206.878 126.935 203.065 123.549 197.701C122.786 196.491 123.452 194.873 124.855 194.595L184.588 182.765C185.339 182.616 186.113 182.91 186.568 183.526C190.83 189.316 192.428 193.177 193.312 199.217C193.463 200.243 192.774 201.197 191.759 201.411Z" fill="#D3CDCC"/>
<path d="M263.686 186.985L204.031 199.533C202.935 199.763 201.866 199.048 201.627 197.953C200.425 192.453 198.862 188.639 195.476 183.275C194.712 182.065 195.378 180.447 196.782 180.169L256.515 168.339C257.266 168.19 258.04 168.484 258.494 169.101C262.757 174.891 264.355 178.751 265.239 184.791C265.389 185.817 264.7 186.771 263.686 186.985Z" fill="#D3CDCC"/>
<path d="M202.276 198.549L265.266 185.005L265.416 186.607L202.386 200.099L202.276 198.549Z" fill="#A1948F"/>
<path d="M129.776 213.376L193.139 199.752L193.288 201.355L129.884 214.926L129.776 213.376Z" fill="#A1948F"/>
<path d="M334.01 172.561L274.356 185.109C273.259 185.339 272.191 184.624 271.942 183.531C270.69 178.052 268.886 174.343 265.437 169.004C264.661 167.803 265.325 166.186 266.727 165.907L326.837 153.917C327.589 153.767 328.365 154.061 328.82 154.678C333.082 160.467 334.679 164.328 335.563 170.368C335.714 171.393 335.025 172.348 334.01 172.561Z" fill="#D3CDCC"/>
<path d="M274.395 170.889L272.84 171.334C274.44 173.645 275.581 176.667 275.951 178L277.507 177.556C276.973 174.889 275.21 172 274.395 170.889Z" fill="#564D4A"/>
<path d="M277.729 170L276.173 170.444C277.773 172.756 278.914 175.778 279.284 177.111L280.84 176.667C280.306 174 278.543 171.111 277.729 170Z" fill="#564D4A"/>
<path d="M272.409 183.961L335.591 170.617L335.735 172.22L272.512 185.511L272.409 183.961Z" fill="#A1948F"/>
<path d="M129.669 213.83L123.213 197.111C123.057 196.707 123.558 196.382 123.823 196.725C124.685 197.841 125.785 199.831 127.713 204.76C129.271 208.742 129.966 211.792 130.223 213.712C130.28 214.14 129.825 214.233 129.669 213.83Z" fill="white"/>
<path d="M202.169 199.704L195.216 182.766C195.05 182.361 195.479 182.096 195.724 182.459C196.6 183.759 197.742 185.945 199.841 190.535C201.655 194.504 202.44 197.637 202.72 199.579C202.781 200.003 202.331 200.1 202.169 199.704Z" fill="white"/>
<path d="M272.292 185.131L265.186 168.39C265.014 167.984 265.481 167.68 265.744 168.034C266.674 169.281 267.897 171.387 269.964 175.909C271.793 179.91 272.576 183.061 272.85 185C272.91 185.421 272.458 185.522 272.292 185.131Z" fill="white"/>
<path d="M135.963 203.958L135.132 202.367L139.857 201.395L140.689 202.985L135.963 203.958ZM181.451 197.477L180.003 194.707L176.942 195.337L176.006 193.547L179.067 192.917L177.634 190.176L179.597 189.772L181.03 192.514L184.091 191.884L185.027 193.673L181.966 194.303L183.414 197.073L181.451 197.477Z" fill="#70605A"/>
<path d="M107.068 125.048L100.473 110.866L105.116 110.063C110.268 109.171 114.442 111.263 116.581 115.861C118.681 120.378 116.952 123.338 111.689 124.248L107.068 125.048ZM109.177 121.517L109.973 121.38C113.113 120.836 114.62 119.762 113.03 116.344C111.498 113.047 109.309 112.503 106.413 113.004L105.307 113.195L109.177 121.517ZM130.902 120.923L128.791 118.694L122.998 119.697L123.119 122.27L119.338 122.924L119.155 107.633L121.698 107.193L134.683 120.268L130.902 120.923ZM122.851 116.556L126.234 115.971L122.652 112.172L122.851 116.556ZM137.422 119.794L134.82 114.199L124.99 106.623L129.08 105.915L135.05 110.839L135.979 104.721L140.069 104.013L138.292 113.598L140.894 119.193L137.422 119.794ZM152.361 117.538C149.155 118.093 145.811 116.759 144.088 114.134L147.169 112.743C148.099 114.385 149.564 114.967 151.112 114.699C152.24 114.503 152.932 113.834 152.43 112.756C152.128 112.105 151.193 111.739 148.831 111.334C144.969 110.684 143.254 109.771 142.242 107.594C141.144 105.234 142.38 103.217 145.409 102.693C147.554 102.321 149.705 102.939 151.551 104.598L149.443 106.743C148.496 105.786 147.499 105.387 146.614 105.54C145.818 105.678 145.372 106.261 145.685 106.932C146.006 107.624 146.83 108.009 149.411 108.42C153.276 109.026 154.81 109.859 155.747 111.874C157.053 114.682 155.501 116.995 152.361 117.538ZM176.363 113.054L169.768 98.8722L173.24 98.2714L175.747 103.663L181.739 102.626L179.232 97.2342L182.703 96.6334L189.298 110.815L185.827 111.416L183.102 105.556L177.11 106.593L179.835 112.453L176.363 113.054ZM204.813 108.13L200.789 108.826L194.608 103.806L193.746 103.956L193.414 104.013L196.035 109.649L192.586 110.246L185.991 96.0642L191.408 95.1266C195.3 94.453 197.535 95.8689 198.708 98.3919C199.645 100.406 199.309 101.893 197.878 102.823L204.813 108.13ZM192.052 101.083L193.666 100.804C194.771 100.612 195.871 100.356 195.256 99.0335C194.65 97.7313 193.5 97.9303 192.417 98.1178L190.803 98.3972L192.052 101.083ZM211.155 107.362C207.949 107.917 204.605 106.583 202.883 103.957L205.963 102.566C206.894 104.208 208.359 104.79 209.906 104.522C211.034 104.327 211.726 103.657 211.225 102.579C210.922 101.928 209.987 101.562 207.625 101.158C203.763 100.507 202.048 99.5945 201.036 97.4174C199.938 95.0572 201.174 93.0404 204.204 92.5161C206.348 92.1449 208.499 92.762 210.345 94.421L208.237 96.5666C207.291 95.6093 206.293 95.2104 205.408 95.3635C204.612 95.5013 204.167 96.0841 204.479 96.7555C204.801 97.4473 205.625 97.8323 208.205 98.2431C212.07 98.8492 213.605 99.6828 214.541 101.697C215.847 104.505 214.295 106.818 211.155 107.362ZM240.171 86.6864L245.123 85.8291L251.719 100.011L248.247 100.612L243.79 91.0284L244.511 99.8734L241.173 100.451L234.191 92.7339L238.629 102.277L235.158 102.878L228.562 88.6956L233.515 87.8384L241.03 96.3429L240.171 86.6864ZM255.008 99.4416L248.413 85.2598L251.884 84.6589L258.479 98.8408L255.008 99.4416ZM264.531 82.4699L268.002 81.8691L274.598 96.0509L271.038 96.6671L261.204 88.9816L265.245 97.6698L261.773 98.2707L255.178 84.0888L258.716 83.4764L268.552 91.1174L264.531 82.4699ZM282.718 94.9752C279.511 95.5301 276.168 94.1963 274.445 91.5705L277.525 90.1799C278.456 91.8216 279.921 92.4034 281.469 92.1355C282.596 91.9403 283.288 91.2709 282.787 90.1925C282.484 89.5414 281.549 89.1755 279.187 88.771C275.325 88.1204 273.611 87.208 272.598 85.0308C271.5 82.6706 272.737 80.6539 275.766 80.1296C277.911 79.7583 280.061 80.3754 281.908 82.0344L279.8 84.1801C278.853 83.2227 277.855 82.8238 276.971 82.9769C276.175 83.1147 275.729 83.6975 276.041 84.3689C276.363 85.0607 277.187 85.4457 279.767 85.8566C283.632 86.4626 285.167 87.2963 286.104 89.3106C287.409 92.1185 285.857 94.4318 282.718 94.9752Z" fill="white"/>
<path d="M112.837 93.9557L110.131 94.408L105.426 90.5329L104.745 90.6467L104.247 90.7299L106.23 95.0601L103.907 95.4486L99.0215 84.7838L102.939 84.129C105.777 83.6545 107.476 84.6718 108.346 86.5691C109.046 88.0992 108.748 89.2033 107.623 89.8691L112.837 93.9557ZM103.336 88.7408L104.697 88.5133C105.776 88.3329 106.489 88.0161 106.019 86.991C105.556 85.9811 104.69 85.9613 103.611 86.1417L102.25 86.3692L103.336 88.7408ZM119.175 88.8111C119.28 89.0406 119.362 89.2576 119.455 89.5386L113.96 90.457C114.424 91.236 115.265 91.705 116.443 91.508C117.124 91.3942 117.673 91.0718 117.928 90.4197L120.07 91.4288C119.604 92.4786 118.7 93.1569 117.289 93.3928C114.367 93.8812 112.322 92.1475 111.418 90.1737C110.535 88.2457 110.725 86.0067 113.546 85.535C116.103 85.1077 118.166 86.6078 119.175 88.8111ZM113.222 88.8838L116.641 88.3122C116.23 87.4915 115.251 87.1114 114.322 87.2668C113.176 87.4583 113.041 88.2551 113.222 88.8838ZM125.129 90.5832C127.243 90.477 129.216 90.3777 130.015 92.122C130.772 93.7745 129.506 94.7934 127.281 95.1652C124.874 95.5675 122.957 94.9326 122.264 93.4178C122.193 93.2648 122.147 93.1243 122.124 92.9963L123.067 92.2457C122.329 92.0396 121.683 91.604 121.311 90.7931C121.01 90.1351 121.058 89.6164 121.324 89.1437C120.699 88.754 120.193 88.1961 119.892 87.5382C119.114 85.8398 120.165 84.4286 122.024 84.1178C122.705 84.0041 123.422 84.0489 124.103 84.248L124.919 83.0245L126.693 84.1281L125.912 85.2306C126.286 85.5798 126.599 85.9888 126.816 86.4632C127.587 88.1463 126.624 89.4768 124.698 89.7987C124.117 89.8958 123.544 89.8928 122.995 89.7869C122.954 89.8925 122.96 90.0233 123.016 90.1457C123.248 90.6506 124.051 90.6482 125.129 90.5832ZM122.85 85.8413C122.086 85.9689 121.848 86.5029 122.157 87.1761C122.451 87.8188 123.061 88.2932 123.908 88.1517C124.721 88.0158 124.848 87.4345 124.547 86.7766C124.231 86.088 123.597 85.7164 122.85 85.8413ZM126.68 93.6184C127.61 93.463 128.076 93.1545 127.901 92.772C127.648 92.2211 126.598 92.3473 125.496 92.3997C125.29 92.4177 125.094 92.4176 124.88 92.4203L124.528 93.0557C124.525 93.0891 124.546 93.135 124.56 93.1656C124.799 93.6858 125.684 93.7849 126.68 93.6184ZM127.041 82.1261L126.179 80.2441L128.503 79.8557L129.365 81.7377L127.041 82.1261ZM131.098 90.9033L127.642 83.36L129.9 82.9826L133.355 90.5259L131.098 90.9033ZM138.275 89.8847C136.516 90.1788 134.728 89.3575 133.834 88.3044L135.274 87.2731C135.691 87.7141 136.335 88.3805 137.448 88.1946C138.261 88.0586 138.384 87.6262 138.244 87.3201C137.712 86.1573 133.96 87.5256 132.706 84.7868C131.984 83.2108 133.172 82.2544 134.699 81.9992C136.16 81.755 137.533 82.2173 138.626 83.1217L137.307 84.2977C136.868 83.9262 136.234 83.4392 135.371 83.5835C134.823 83.675 134.62 83.9726 134.753 84.2633C135.244 85.3344 139.071 83.9368 140.354 86.7369C141.188 88.5577 139.819 89.6266 138.275 89.8847ZM145.005 82.2037L142.946 82.5478L144.544 86.0364C144.748 86.4801 145.15 86.8906 145.98 86.7518C146.296 86.6991 146.616 86.5796 146.932 86.4115L147.682 88.0487C147.245 88.303 146.765 88.4655 146.217 88.5571C144.757 88.8013 143.194 88.3542 142.381 86.5793L140.706 82.9224L139.378 83.1444L138.635 81.5225L139.963 81.3005L139.374 80.0152L140.914 78.1105L142.204 80.9259L144.262 80.5818L145.005 82.2037ZM150.197 79.4085C150.745 79.3169 151.306 79.3714 152.001 79.6011L151.77 81.6329C151.451 81.5215 151.02 81.4782 150.622 81.5448C149.576 81.7196 149.282 82.4441 149.913 83.8212L151.588 87.4781L149.331 87.8554L145.876 80.3121L148.15 79.9319L148.696 81.1254C148.669 80.2075 149.301 79.5583 150.197 79.4085ZM156.043 78.4313C158.284 78.0567 160.18 78.9587 161.007 80.7642L163.194 85.5381L161.136 85.8821L160.57 85.0377C160.34 85.8999 159.553 86.3279 158.723 86.4667C156.947 86.7636 155.185 85.9215 154.505 84.4373C154.099 83.5498 154.236 82.835 154.822 82.3583C155.241 82.0247 155.856 81.8066 156.685 81.6678L158.843 81.3071L158.766 81.1388C158.451 80.4502 157.7 80.0981 156.77 80.2535C156.04 80.3756 155.476 80.7828 155.127 81.5824L152.926 80.5996C153.445 79.3927 154.582 78.6755 156.043 78.4313ZM158.303 84.6919C159.349 84.5171 159.927 83.7121 159.544 82.8372L157.702 83.1452C157.237 83.2229 156.95 83.3368 156.813 83.5078C156.67 83.6635 156.655 83.8638 156.76 84.0933C156.97 84.5523 157.539 84.8196 158.303 84.6919ZM167.096 78.5109L165.038 78.855L166.636 82.3436C166.839 82.7873 167.242 83.1978 168.072 83.059C168.387 83.0063 168.707 82.8868 169.024 82.7187L169.774 84.3559C169.336 84.6102 168.856 84.7727 168.309 84.8643C166.848 85.1085 165.285 84.6614 164.472 82.8865L162.797 79.2296L161.469 79.4516L160.726 77.8297L162.054 77.6077L161.465 76.3224L163.005 74.4177L164.295 77.2331L166.353 76.889L167.096 78.5109ZM167.479 75.3665L166.617 73.4845L168.941 73.096L169.803 74.978L167.479 75.3665ZM171.536 84.1437L168.08 76.6003L170.338 76.223L173.793 83.7663L171.536 84.1437ZM179.527 82.9891C176.937 83.4219 174.529 81.8314 173.569 79.7351C172.602 77.6236 173.311 75.5447 175.917 75.1091C178.507 74.6762 180.901 76.2362 181.868 78.3478C182.829 80.444 182.1 82.559 179.527 82.9891ZM178.693 81.1683C180.12 80.9296 180.125 79.8087 179.627 78.7223C179.123 77.6207 178.189 76.6732 176.744 76.9146C175.317 77.1532 175.305 78.2589 175.81 79.3605C176.3 80.4316 177.249 81.4097 178.693 81.1683ZM186.228 73.3856C188.104 73.0721 189.659 73.9322 190.451 75.6612L192.715 80.6034L190.474 80.978L188.511 76.6937C188.259 76.1429 187.769 75.0718 186.358 75.3077C184.664 75.5907 185.372 77.1361 185.87 78.2224L187.37 81.4968L185.112 81.8742L181.657 74.3309L183.915 73.9535L184.272 74.7338C184.547 73.9301 185.298 73.541 186.228 73.3856ZM202.378 79.1692C199.606 79.6326 197.431 77.8878 196.534 75.9293C195.623 73.9401 196.013 71.7499 198.752 71.2921C200.429 71.0118 202.06 71.5298 203.375 72.9572L201.608 74.0928C201.098 73.3708 200.309 72.9755 199.579 73.0976C198.301 73.3112 198.343 74.4572 198.841 75.5436C199.332 76.6146 200.233 77.5676 201.511 77.354C202.241 77.2319 202.612 76.6758 202.458 75.9108L204.82 76.3067C204.917 77.806 204.038 78.8918 202.378 79.1692ZM209.239 78.0224C208.094 78.2138 206.927 77.7335 206.282 76.3259L202.252 67.5278L204.493 67.1533L208.425 75.7371C208.586 76.089 208.827 76.1475 209.159 76.092C209.325 76.0642 209.51 76.0003 209.705 75.9184L210.455 77.5556C210.051 77.8043 209.621 77.9585 209.239 78.0224ZM215.487 76.978C212.897 77.4109 210.489 75.8203 209.529 73.7241C208.561 71.6126 209.271 69.5337 211.877 69.0981C214.467 68.6652 216.861 70.2252 217.828 72.3367C218.788 74.4329 218.06 76.5479 215.487 76.978ZM214.653 75.1572C216.08 74.9186 216.085 73.7977 215.587 72.7113C215.083 71.6096 214.148 70.6622 212.704 70.9036C211.277 71.1422 211.265 72.2478 211.769 73.3495C212.26 74.4206 213.208 75.3986 214.653 75.1572ZM223.755 75.5958C221.996 75.89 220.208 75.0687 219.314 74.0156L220.754 72.9842C221.171 73.4252 221.815 74.0917 222.928 73.9058C223.741 73.7698 223.864 73.3373 223.724 73.0313C223.192 71.8684 219.44 73.2368 218.186 70.4979C217.464 68.9219 218.652 67.9656 220.179 67.7103C221.64 67.4661 223.013 67.9284 224.106 68.8328L222.787 70.0089C222.348 69.6374 221.714 69.1504 220.851 69.2946C220.303 69.3862 220.1 69.6837 220.233 69.9745C220.724 71.0455 224.551 69.648 225.834 72.4481C226.668 74.2689 225.299 75.3378 223.755 75.5958ZM233.883 69.6365C233.988 69.866 234.07 70.083 234.163 70.3639L228.669 71.2824C229.133 72.0614 229.973 72.5304 231.151 72.3334C231.832 72.2196 232.381 71.8972 232.637 71.245L234.779 72.2542C234.312 73.304 233.408 73.9823 231.997 74.2182C229.075 74.7065 227.03 72.9728 226.126 70.999C225.243 69.0711 225.433 66.8321 228.255 66.3604C230.811 65.9331 232.874 67.4331 233.883 69.6365ZM227.93 69.7092L231.35 69.1376C230.938 68.3169 229.96 67.9368 229.03 68.0922C227.885 68.2836 227.749 69.0805 227.93 69.7092ZM239.861 72.9036C238.101 73.1978 236.313 72.3765 235.42 71.3234L236.86 70.292C237.276 70.7331 237.921 71.3995 239.033 71.2136C239.846 71.0776 239.97 70.6451 239.83 70.3391C239.297 69.1763 235.546 70.5446 234.291 67.8057C233.569 66.2298 234.757 65.2734 236.284 65.0181C237.745 64.774 239.119 65.2362 240.212 66.1407L238.892 67.3167C238.454 66.9452 237.82 66.4582 236.957 66.6025C236.409 66.694 236.206 66.9916 236.339 67.2823C236.829 68.3533 240.657 66.9558 241.939 69.7559C242.773 71.5767 241.405 72.6456 239.861 72.9036ZM244.785 62.4441L243.923 60.5621L246.247 60.1736L247.109 62.0556L244.785 62.4441ZM248.841 71.2212L245.386 63.6779L247.644 63.3005L251.099 70.8439L248.841 71.2212ZM254.451 61.9814C256.327 61.6678 257.883 62.5279 258.675 64.2569L260.938 69.1991L258.698 69.5737L256.735 65.2894C256.483 64.7386 255.992 63.6675 254.581 63.9034C252.888 64.1864 253.596 65.7318 254.094 66.8182L255.593 70.0926L253.336 70.4699L249.881 62.9266L252.138 62.5492L252.496 63.3296C252.771 62.5258 253.522 62.1367 254.451 61.9814ZM261.044 63.6797L260.083 61.5835L262.474 61.1839L263.434 63.2801L261.044 63.6797ZM263.385 68.7902L262.431 66.7093L264.822 66.3097L265.775 68.3906L263.385 68.7902Z" fill="white"/>
<path d="M210.372 185.427C211.137 185.273 211.786 185.604 212.134 186.302L213.128 188.296L212.215 188.48L211.353 186.751C211.242 186.529 211.026 186.097 210.452 186.213C209.762 186.351 210.073 186.975 210.291 187.413L210.95 188.735L210.03 188.92L208.512 185.876L209.432 185.691L209.589 186.006C209.691 185.673 209.994 185.503 210.372 185.427ZM214.537 188.013L211.978 185.178L212.952 184.982L214.357 186.636L214.034 184.765L214.812 184.608L216.238 186.244L215.894 184.39L216.875 184.193L217.344 187.448L216.532 187.611L215.017 185.871L215.362 187.847L214.537 188.013ZM218.967 187.121L216.821 182.818L217.774 182.626L218.615 184.311L220.563 183.919L219.722 182.234L220.676 182.042L222.822 186.345L221.868 186.537L220.96 184.716L219.012 185.108L219.92 186.929L218.967 187.121ZM223.601 182.764C224.514 182.58 225.303 182.924 225.667 183.653L226.627 185.579L225.788 185.748L225.545 185.41C225.463 185.766 225.146 185.952 224.808 186.02C224.084 186.166 223.351 185.845 223.052 185.246C222.874 184.888 222.92 184.593 223.154 184.39C223.321 184.247 223.57 184.15 223.908 184.081L224.787 183.904L224.754 183.837C224.615 183.559 224.303 183.425 223.924 183.501C223.626 183.561 223.401 183.735 223.269 184.068L222.353 183.695C222.55 183.193 223.006 182.884 223.601 182.764ZM224.612 185.299C225.038 185.213 225.264 184.875 225.095 184.522L224.344 184.673C224.155 184.711 224.039 184.762 223.985 184.834C223.929 184.899 223.925 184.982 223.971 185.074C224.064 185.259 224.301 185.361 224.612 185.299ZM228.829 185.211C227.699 185.438 226.784 184.753 226.39 183.962C225.99 183.16 226.12 182.257 227.236 182.032C227.919 181.895 228.595 182.085 229.153 182.652L228.444 183.141C228.226 182.852 227.897 182.701 227.6 182.761C227.079 182.866 227.112 183.335 227.33 183.773C227.546 184.205 227.928 184.584 228.449 184.479C228.746 184.419 228.891 184.186 228.817 183.875L229.79 184.005C229.85 184.618 229.505 185.075 228.829 185.211ZM230.806 184.738L228.66 180.435L229.58 180.249L230.765 182.627L231.297 181.29L232.521 181.043L231.869 182.452L234.167 184.061L233.078 184.281L231.49 183.126L231.282 183.664L231.726 184.553L230.806 184.738ZM235.668 183.834C234.951 183.978 234.207 183.666 233.827 183.247L234.403 182.805C234.58 182.98 234.853 183.244 235.306 183.153C235.637 183.086 235.682 182.907 235.621 182.784C235.387 182.314 233.868 182.926 233.317 181.821C233 181.185 233.474 180.777 234.096 180.652C234.691 180.532 235.26 180.703 235.72 181.058L235.196 181.558C235.011 181.412 234.745 181.221 234.393 181.292C234.17 181.337 234.09 181.461 234.149 181.578C234.364 182.011 235.914 181.386 236.477 182.516C236.843 183.251 236.297 183.707 235.668 183.834ZM240.358 181.946L242.177 181.579L242.571 182.37L239.257 183.037L238.919 182.358C239.463 181.793 240.484 180.616 240.004 179.653C239.831 179.307 239.516 179.078 239.09 179.164C238.535 179.276 238.608 179.764 238.781 180.157L237.851 180.276C237.466 179.504 237.632 178.567 238.707 178.351C239.58 178.175 240.483 178.598 240.895 179.426C241.314 180.265 241.006 181.306 240.358 181.946ZM245.016 181.946C243.494 182.252 242.67 180.944 242.227 180.054C241.793 179.184 241.267 177.815 242.775 177.512C244.223 177.22 245.08 178.447 245.551 179.392C246.031 180.355 246.436 181.66 245.016 181.946ZM244.602 181.146C245.258 181.014 244.948 180.288 244.601 179.59C244.237 178.862 243.845 178.18 243.175 178.314C242.513 178.448 242.813 179.155 243.176 179.884C243.524 180.581 243.926 181.282 244.602 181.146ZM248.486 180.31L250.305 179.943L250.699 180.734L247.385 181.401L247.046 180.722C247.591 180.157 248.612 178.98 248.131 178.017C247.959 177.671 247.644 177.442 247.218 177.528C246.663 177.64 246.736 178.128 246.909 178.521L245.979 178.64C245.594 177.868 245.759 176.931 246.835 176.715C247.707 176.539 248.61 176.962 249.023 177.79C249.442 178.629 249.134 179.67 248.486 180.31ZM253.34 178.211L254.091 178.06L254.488 178.857L253.738 179.008L254.242 180.021L253.329 180.204L252.824 179.192L250.667 179.626L250.421 179.132L251.305 175.876L252.097 175.717L253.34 178.211ZM251.42 178.598L252.427 178.395L251.781 177.099L251.42 178.598Z" fill="#564D4A"/>
<path d="M325.89 166.894C325.409 165.131 324.22 161.351 323.686 160.482L329.096 162.686L325.89 166.894Z" fill="#564D4A"/>
<path d="M312.801 147.997L123.873 185.059C121.97 185.433 120.072 184.389 119.368 182.581L105.261 146.358C104.347 144.009 105.801 141.41 108.281 140.961L296.768 106.82C298.595 106.489 300.411 107.457 301.154 109.158L315.702 142.461C316.728 144.81 315.316 147.504 312.801 147.997Z" fill="#D3CDCC" stroke="#564D4A" stroke-width="3.20566"/>
<path d="M314.192 144.99L310.385 143.588L120.65 181.455C121.291 183.218 122.253 183.725 123.054 183.659C185.364 171.437 311.467 146.713 312.589 146.393C313.991 145.992 313.791 145.591 314.192 144.99Z" fill="#AEAAA9"/>
<path d="M106.425 144.39C106.425 144.791 106.826 146.193 106.826 146.193L299.802 110.252C299.366 107.925 297.426 108.149 296.624 108.205C234.154 119.579 108.931 142.402 107.805 142.707C106.679 143.013 106.425 143.989 106.425 144.39Z" fill="#AEAAA9"/>
<path d="M314.593 143.588L299.366 109.128C299.226 108.807 298.506 108.393 298.164 108.326L296.561 110.73L310.385 143.588L314.192 144.991C314.392 144.791 314.726 143.922 314.593 143.588Z" fill="#8B8381"/>
<g opacity="0.3">
<path opacity="0.7" d="M169.788 174.107L134.526 181.119L191.626 127.023L220.678 122.015L169.788 174.107Z" fill="#DDD9D8"/>
<path opacity="0.7" d="M179.005 172.304L173.595 173.506L225.086 121.214L229.694 120.212L179.005 172.304Z" fill="#DDD9D8"/>
</g>
<path opacity="0.45" d="M256.069 273L321.711 289.429C321.711 289.429 330.636 298.343 321.711 301.37C312.786 304.398 301.015 302.909 301.015 302.909C284.118 308.062 276.305 306.515 274.101 302.909C272.942 301.012 275.772 299.718 278.716 298.918C265.903 298.736 239.501 287.078 217 277.877L256.069 273Z" fill="#031119"/>
<g filter="url(#filter2_i_62_15859)">
<path d="M215.08 260.816C215.08 262.053 215.916 262.446 217.068 262.446C218.221 262.446 219.156 261.85 219.156 260.612C219.156 259.374 218.221 258.371 217.068 258.371C215.916 258.371 215.08 259.578 215.08 260.816Z" fill="#876F5E"/>
<path d="M258.168 245.485C257.776 243.787 249.828 240.367 245.706 238.021L246.441 247.629L249.256 249.864C252.097 252.456 254.276 252.582 255.01 252.322C256.357 251.316 258.56 247.183 258.168 245.485Z" fill="#816C5D"/>
<path d="M256.964 275.787C256.964 272.987 252.449 266.006 250.191 262.866C245.891 262.866 237.291 264.508 237.291 271.076C237.291 277.645 240.946 280.633 242.774 281.306C247.504 280.633 256.964 278.587 256.964 275.787Z" fill="#876F5E"/>
<path d="M244.015 268.273C256.262 259.328 246.931 241.348 240.735 233.476L223.65 232.563C215.012 253.829 216.269 264.279 221.053 265.877C218.757 268.273 216.478 273.418 217.055 275.888C218.409 281.681 230.679 280.295 235.084 280.797C236.155 280.919 233.9 273.952 235.084 271.48C237.381 269.837 243.423 268.653 244.015 268.273Z" fill="#9F8A7B"/>
<path d="M244.837 267.749C258.426 263.383 245.742 240.351 242.758 240.531C240.355 240.653 238.602 243.818 238.093 245.334C235.552 254.923 235.396 270.782 244.837 267.749Z" fill="#C2A28A"/>
<path d="M235.068 281.097C232.156 282.379 224.344 280.42 219.659 278.894C216.671 278.146 216.253 277.09 217.294 272.166C217.269 271.709 217.256 271.224 217.255 270.711C217.251 268.122 217.5 264.738 218.071 260.461L250.915 258.458C251.721 261.653 251.686 262.441 251.716 265.67C251.721 266.17 254.922 270.711 254.922 270.711C257.668 273.393 257.323 276.602 256.618 277.09C253.007 280.235 243.665 282.137 241.899 281.097C238.894 279.329 236.582 277.09 236.503 274.03C236.526 273.594 236.552 273.129 236.582 272.632H235.068C235.098 273.133 235.12 273.598 235.135 274.03C235.246 277.163 236.015 279.722 235.068 281.097Z" fill="#A8C0CC"/>
<path d="M235.068 272.632C228.87 270.794 225.701 269.324 217.255 270.711M235.068 272.632H236.582M235.068 272.632C235.098 273.133 235.12 273.598 235.135 274.03M217.255 270.711C217.251 268.122 217.5 264.738 218.071 260.461L250.915 258.458C251.721 261.653 251.686 262.441 251.716 265.67M217.255 270.711C217.256 271.224 217.269 271.709 217.294 272.166M236.582 272.632C242.908 269.868 244.191 264.319 251.716 265.67M236.582 272.632C236.552 273.129 236.526 273.594 236.503 274.03M251.716 265.67C251.721 266.17 254.922 270.711 254.922 270.711M217.294 272.166C216.253 277.09 216.671 278.146 219.659 278.894C224.344 280.42 232.156 282.379 235.068 281.097C236.015 279.722 235.246 277.163 235.135 274.03M217.294 272.166C224.268 272.276 228.173 272.732 235.135 274.03M236.503 274.03C236.582 277.09 238.894 279.329 241.899 281.097C243.665 282.137 253.007 280.235 256.618 277.09C257.323 276.602 257.668 273.393 254.922 270.711M236.503 274.03C243.141 272.51 247.654 270.576 254.922 270.711" stroke="#809CAA" stroke-width="0.465886"/>
<path d="M220.421 237.158C230.27 240.249 235.738 240.63 244.996 236.692C246.627 235.761 249.364 237.279 250.82 240.133L247.911 242.52C249.089 245.448 249.701 247.511 250.471 250.785C250.759 251.98 250.9 252.641 251.111 253.814C251.111 253.814 238.439 256.254 228.021 255.653C217.603 255.052 216.053 253.814 216.053 253.814C216.165 252.632 216.271 251.969 216.519 250.785C217.043 247.669 217.454 245.647 218.196 242.924C218.373 242.273 218.569 241.582 218.79 240.827L220.421 237.158Z" fill="#A8C0CC"/>
<path d="M244.996 236.692C235.738 240.63 230.27 240.249 220.421 237.158L218.79 240.827M244.996 236.692L247.209 240.827M244.996 236.692C246.627 235.761 249.364 237.279 250.82 240.133L247.911 242.52M247.209 240.827C244.996 244.232 243.048 245.407 240.844 245.407M247.209 240.827C247.465 241.428 247.698 241.989 247.911 242.52M218.79 240.827C224.157 244.047 236.188 245.527 240.844 245.407M218.79 240.827C218.569 241.582 218.373 242.273 218.196 242.924C217.454 245.647 217.043 247.669 216.519 250.785M216.519 250.785C226.272 253.867 231.584 253.66 240.844 250.785M216.519 250.785C216.271 251.969 216.165 252.632 216.053 253.814C216.053 253.814 217.603 255.052 228.021 255.653C238.439 256.254 251.111 253.814 251.111 253.814C250.9 252.641 250.759 251.98 250.471 250.785M240.844 250.785V245.407M240.844 250.785H250.471M250.471 250.785C249.701 247.511 249.089 245.448 247.911 242.52" stroke="#809CAA" stroke-width="0.465886"/>
<path d="M220.185 259.644C221.263 259.258 229.235 248.339 229.696 245.682C230.157 243.025 224.887 242.276 222.082 242.276C219.277 242.276 212.789 252.664 212.789 255.337C213.413 256.41 219.107 260.03 220.185 259.644Z" fill="#9F826A"/>
<ellipse cx="4.47611" cy="4.54656" rx="4.47611" ry="4.54656" transform="matrix(-0.293054 0.956096 0.970941 0.239319 227.902 203.56)" fill="#876F5E"/>
<path d="M217.118 222.611C215.757 233.882 222.823 238.48 231.686 238.48C244.605 238.48 250.019 234.615 249.48 223.552C248.888 211.423 242.846 208.311 233.382 207.431C223.273 207.431 218.108 214.412 217.118 222.611Z" fill="#B7957B"/>
<ellipse cx="0.993595" cy="1.06685" rx="0.993595" ry="1.06685" transform="matrix(-0.99802 0.0629045 0.0853966 0.996347 239.135 219.657)" fill="#3F3D3B"/>
<mask id="mask1_62_15859" style="mask-type:alpha" maskUnits="userSpaceOnUse" x="217" y="207" width="33" height="32">
<path d="M217.215 222.606C215.854 233.877 222.92 238.475 231.783 238.475C244.702 238.475 250.116 234.61 249.576 223.547C248.985 211.419 242.943 208.306 233.479 207.426C223.37 207.426 218.205 214.407 217.215 222.606Z" fill="#CCBEB3"/>
</mask>
<g mask="url(#mask1_62_15859)">
<ellipse cx="0.993595" cy="1.06685" rx="0.993595" ry="1.06685" transform="matrix(-0.99802 0.0629045 0.0853966 0.996347 249.91 218.029)" fill="#3F3D3B"/>
</g>
<path d="M239.705 226.421C238.93 230.174 239.303 233.103 243.847 233.812C248.025 234.095 251.703 231.162 252.064 227.26C252.424 223.358 249.751 219.793 245.425 220.2C242.722 220.455 241.017 221.503 239.705 226.421Z" fill="#C9B19F"/>
<path d="M249.123 227.094C248.261 227.603 248.153 227.705 247.399 227.909" stroke="#3F3D3B" stroke-width="0.407507" stroke-linecap="round"/>
<path d="M249.441 227.195C249.983 227.5 250.091 227.601 250.521 227.703" stroke="#3F3D3B" stroke-width="0.407507" stroke-linecap="round"/>
<path d="M249.434 227.129C249.417 227.239 249.313 227.313 249.201 227.293C249.089 227.274 249.012 227.17 249.028 227.059L249.434 227.129ZM248.975 223.093C249.279 223.749 249.459 224.33 249.53 224.966C249.599 225.6 249.559 226.278 249.434 227.129L249.028 227.059C249.151 226.225 249.187 225.584 249.122 224.999C249.058 224.416 248.893 223.878 248.604 223.253L248.975 223.093Z" fill="#3F3D3B"/>
<path d="M247.075 223.019C247.075 223.638 247.847 224.343 248.799 224.343C249.752 224.343 250.523 223.638 250.523 223.019C250.523 222.4 249.752 222.102 248.799 222.102C247.847 222.102 247.075 222.4 247.075 223.019Z" fill="#3F3D3B"/>
<ellipse cx="4.47611" cy="4.54656" rx="4.47611" ry="4.54656" transform="matrix(-0.293054 0.956096 0.970941 0.239319 223.376 204.375)" fill="#B7957B"/>
<path d="M225.539 212.388C226.307 210.552 228.345 209.934 229.267 209.855C229.324 208.526 226.942 206.007 224.572 208.007C222.497 209.759 224.633 211.858 225.539 212.388Z" fill="#3F3D3B"/>
<path d="M231.293 248.84H210.444V265.67C210.59 268.564 213.342 270.014 220.868 272.426C228.529 270.315 230.677 268.814 231.293 265.67V248.84Z" fill="#434343"/>
<path d="M212.848 251.043H220.061V268.875L212.848 265.269V251.043Z" fill="#595454"/>
<g filter="url(#filter3_i_62_15859)">
<path d="M217.611 195.549C226.228 190.991 234.736 196.847 232.383 202.364L228.826 202.434C228.458 202.012 228.079 202.007 227.561 202.257C226.012 203.005 224.681 206.103 222.889 209.751C221.083 214.093 219.205 217.546 214.155 218.05C206.603 218.805 204.04 216.304 202.357 208.988C202.003 207.449 208.176 212.399 209.835 209.707C208.489 209.124 207.418 208.255 207.418 206.34C207.418 204.696 208.348 203.625 209.724 203.677C209.448 205.655 211.402 206.791 212.065 204.696C213.883 198.947 214.131 197.39 217.611 195.549Z" fill="#DCB551"/>
</g>
<path d="M232.593 197.96V199.6H236.203V197.96C235.21 196.776 233.676 196.685 232.593 197.96Z" fill="#969593"/>
<path d="M219.257 212.355C220.189 194.476 247.152 194.302 248.258 212.355H219.257Z" fill="#B5CBD7"/>
<path d="M224.669 206.166C226.116 203.561 227.874 203.361 229.076 202.159C230.279 200.956 226.672 201.958 225.069 203.962C223.466 205.965 223.221 208.77 224.669 206.166Z" fill="#F0E9E9"/>
<path d="M219.259 212.377L217.255 218.988C224.606 218.641 245.475 212.289 248.911 215.783L247.943 205.965C236.535 210.502 230.245 211.943 219.259 212.377Z" fill="#A8C0CC"/>
<path d="M240.897 208.57L239.294 215.182C240.096 214.981 247.308 213.979 248.911 215.783L247.942 205.965C245.104 207.167 240.897 208.57 240.897 208.57Z" fill="#809CAA"/>
<path d="M228.997 212.421L222.763 213.909C222.763 213.909 222.039 213.681 222.492 212.896C222.572 210.041 226.844 208.657 228.568 211.27L228.997 212.421Z" fill="#B0ACA5"/>
</g>
<path opacity="0.45" d="M462.288 323.372L309 281.352L380.591 277L523.351 302.457C523.351 302.457 516.332 317.849 500.049 323.372C483.765 328.896 462.288 323.372 462.288 323.372Z" fill="#031119"/>
<path d="M310.568 281.918C307.398 281.012 309.247 278.521 310.568 277.388C307.171 271.16 314.531 264.933 318.495 262.102C321.665 259.837 323.213 253.986 323.59 251.344L325.855 211.712C323.137 209.9 322.08 206.428 321.892 204.918C317.362 201.294 319.627 199.256 321.325 198.69L321.325 187.933L328.686 187.933L328.686 195.293C330.95 196.199 334.159 195.67 335.48 195.293L335.48 187.933L343.972 187.933L343.972 195.293C346.237 196.199 348.691 195.67 349.634 195.293L349.634 187.933L355.296 187.933L355.296 198.69C358.92 200.502 355.673 203.597 353.597 204.918C353.145 208.088 350.767 210.768 349.634 211.712C349.634 213.977 350.767 242.286 351.899 251.344C352.805 258.591 354.541 261.535 355.296 262.102C365.261 268.443 365.11 274.935 363.789 277.388C367.412 279.653 365.298 281.352 363.789 281.918C354.73 283.616 314.532 283.05 310.568 281.918Z" fill="#FEE9C1"/>
<path d="M312.371 281.918C309.114 281.405 311.05 278.521 312.371 277.388C308.974 271.16 316.334 264.933 320.298 262.102C323.468 259.837 325.016 253.986 325.393 251.344L327.658 211.712C324.94 209.9 323.883 206.428 323.695 204.918C319.165 201.294 321.43 199.256 323.129 198.69L323.129 187.933L330.489 187.933L330.489 195.293C332.754 196.199 335.962 195.67 337.283 195.293L337.283 187.933L345.776 187.933L345.776 195.293C348.04 196.199 350.494 195.67 351.437 195.293L351.437 187.933L357.099 187.933L357.099 198.69C360.723 200.502 357.477 203.597 355.401 204.918C354.948 208.088 352.57 210.768 351.437 211.712C351.437 213.977 352.57 242.285 353.702 251.344C354.608 258.591 356.344 261.535 357.099 262.102C367.064 268.443 366.913 274.935 365.592 277.388C369.215 279.653 367.102 281.352 365.592 281.918C356.533 283.616 323.695 283.702 312.371 281.918Z" fill="#809CAA"/>
<path d="M310.22 277.291C316.454 278.629 343.076 281.037 365.919 277.291" stroke="#436577" stroke-width="2.40424"/>
<path d="M339.271 283.304C335.374 283.304 349.17 278.524 350.491 277.391C353.135 275.125 353.702 271.966 349.761 267.101C347.309 264.074 346.023 253.989 346.401 251.347L345.228 211.715C349.208 209.496 349.397 205.699 349.208 204.189C349.505 203.968 349.763 203.723 349.982 203.464C351.411 201.773 351.243 199.432 349.982 198.693L349.982 195.675L351.437 195.296L351.437 187.936L357.099 187.936L357.099 198.693C360.723 200.505 357.476 203.6 355.4 204.921C354.948 208.091 352.57 210.771 351.437 211.715C351.437 213.98 352.57 242.288 353.702 251.347C354.608 258.594 356.344 261.538 357.099 262.105C367.064 268.446 366.913 274.938 365.592 277.391C369.215 279.656 367.101 281.355 365.592 281.921C356.533 283.619 343.393 283.304 339.271 283.304Z" fill="#436577"/>
<path d="M356.902 198.755C347.766 200.839 330.522 199.623 323.042 198.755H321.239C316.912 200.037 319.97 203.296 322.041 204.765C336.146 207.811 350.09 206.034 355.299 204.765C360.589 201.079 358.572 199.222 356.902 198.755Z" fill="#436577"/>
<path d="M336.694 199.796C336.741 200.397 322.021 200.71 321.655 198.48C321.29 196.25 322.159 197.354 322.616 197.465C323.074 197.575 326.236 198.542 327.824 198.78C332.799 199.525 336.646 199.195 336.694 199.796Z" fill="#FDEAC4"/>
<path opacity="0.45" d="M530.725 376.345L361 329.818L440.267 325L598.335 353.186C598.335 353.186 590.564 370.229 572.535 376.345C554.505 382.461 530.725 376.345 530.725 376.345Z" fill="#031119"/>
<path d="M360.911 326.878C360.851 325.088 362.825 324.573 363.82 324.54C360.559 316.435 366.326 310.267 373.71 307.778C373.685 307.032 375.797 303.227 378.73 301.634C383.864 298.848 382.878 295.52 382.929 293.278L382.502 280.598C382.301 274.63 379.267 273.239 377.725 271.797C376.183 270.356 370.166 269.065 373.074 266.727C375.401 264.856 379.463 264.271 381.204 264.212L381.103 261.229C379.611 261.279 371.13 253.35 376.025 243.477C380.22 235.015 396.311 233.833 401.386 242.623C406.462 251.413 400.422 258.338 396.768 260.701L396.868 263.685C398.36 263.635 402.861 264.23 405.149 265.646C406.979 266.779 405.978 268.107 405.249 268.63C397.592 271.875 395.845 277.659 395.929 280.145L396.356 292.826C396.532 298.048 399.566 299.439 402.625 301.576C405.072 303.286 406.248 305.686 406.531 306.672C417.895 311.517 419.613 318.18 416.805 323.502C419.789 323.401 420.088 324.885 419.865 325.639C418.97 328.656 414.984 328.542 413.252 328.849C399.9 331.539 369.267 331.077 366.258 330.432C363.339 329.806 360.987 329.116 360.911 326.878Z" fill="#FDEAC4"/>
<path d="M362.544 326.966C362.483 325.176 364.458 324.661 365.452 324.628C362.192 316.523 367.958 310.354 375.342 307.866C375.317 307.119 377.429 303.314 380.363 301.722C385.496 298.935 384.51 295.608 384.562 293.366L384.135 280.686C383.934 274.718 380.9 273.327 379.358 271.885C377.816 270.443 371.798 269.153 374.706 266.814C377.033 264.944 381.096 264.359 382.836 264.3L382.736 261.317C381.244 261.367 372.762 253.438 377.657 243.565C381.853 235.103 397.943 233.921 403.019 242.711C408.094 251.501 402.054 258.426 398.4 260.789L398.501 263.773C399.993 263.722 404.493 264.318 406.781 265.734C408.612 266.867 407.611 268.195 406.882 268.718C399.225 271.963 397.478 277.747 397.562 280.233L397.989 292.914C398.165 298.136 401.199 299.527 404.258 301.664C406.705 303.374 407.881 305.774 408.163 306.76C419.528 311.605 421.246 318.268 418.438 323.59C421.422 323.489 421.721 324.973 421.497 325.727C420.603 328.744 416.616 328.63 414.884 328.937C401.533 331.627 370.9 331.165 367.891 330.52C364.972 329.894 362.619 329.204 362.544 326.966Z" fill="#A8C0CC"/>
<mask id="mask2_62_15859" style="mask-type:alpha" maskUnits="userSpaceOnUse" x="362" y="236" width="60" height="96">
<path d="M362.544 326.966C362.484 325.176 364.458 324.661 365.453 324.628C362.193 316.523 367.959 310.354 375.343 307.866C375.318 307.119 377.43 303.314 380.363 301.722C385.497 298.935 384.511 295.608 384.563 293.366L384.135 280.686C383.934 274.718 380.9 273.327 379.358 271.885C377.816 270.443 371.799 269.153 374.707 266.814C377.034 264.944 381.096 264.359 382.837 264.3L382.736 261.317C381.244 261.367 372.763 253.438 377.658 243.565C381.853 235.103 397.944 233.921 403.019 242.711C408.095 251.501 402.055 258.426 398.401 260.789L398.501 263.773C399.993 263.722 404.494 264.318 406.782 265.734C408.612 266.867 407.611 268.195 406.882 268.718C399.225 271.963 397.478 277.747 397.562 280.233L397.989 292.914C398.165 298.136 401.199 299.527 404.258 301.664C406.705 303.374 407.881 305.774 408.164 306.76C419.528 311.605 421.246 318.268 418.439 323.59C421.422 323.489 421.721 324.973 421.498 325.727C420.604 328.744 416.617 328.63 414.885 328.937C401.533 331.627 370.9 331.165 367.891 330.52C364.972 329.894 362.62 329.204 362.544 326.966Z" fill="#809CAA"/>
</mask>
<g mask="url(#mask2_62_15859)">
<path d="M406.79 325.734C406.565 325.742 406.607 325.728 406.807 325.724C409.937 323.749 412.968 313.848 400.966 307.848C400.941 307.102 393.676 303.322 396.61 301.729C401.743 298.943 395.558 295.616 395.61 293.373L395.183 280.693C394.982 274.725 394.955 273.567 394.955 271.78C394.955 269.669 395.61 269.505 395.61 267.231C395.61 264.245 392.469 264.366 394.209 264.307L394.109 261.324C396.417 258.945 399.179 254.071 399.179 249.522C399.179 242.556 394.955 238.393 392.843 237.337C390.512 236.171 397.562 235.062 403.019 242.718C408.911 250.983 402.055 258.433 398.4 260.796L398.501 263.78C399.993 263.73 404.493 264.325 406.781 265.741C408.612 266.874 407.611 268.203 406.882 268.725C399.225 271.97 397.478 277.754 397.562 280.24L397.989 292.921C398.165 298.143 401.199 299.534 404.258 301.671C406.705 303.381 407.881 305.781 408.163 306.767C419.528 311.612 421.246 318.275 418.438 323.597C421.422 323.496 421.721 324.98 421.497 325.734C420.603 328.751 416.616 328.637 414.884 328.944C401.533 331.634 394.766 331.243 391.706 330.918C387.738 330.497 410.14 329.419 410.064 327.181C410.018 325.797 407.49 325.708 406.807 325.724C406.802 325.727 406.796 325.731 406.79 325.734Z" fill="#436577"/>
<path d="M398.576 263.867C393.928 264.508 385.086 264.535 381.346 264.267L381.145 261.262C387.717 262.544 395.437 261.329 398.576 260.661V263.867Z" fill="#436577"/>
<path d="M364.115 324.172C370.326 326.176 395.851 329.181 418.611 323.571" stroke="#436577" stroke-width="1.60283"/>
</g>
<path d="M20.9407 293.621C20.8581 291.495 23.2015 290.976 24.3835 290.983C20.4587 281.219 27.2753 274.171 36.0372 271.563C36.0028 270.677 38.4901 266.263 41.9673 264.511C48.0524 261.445 46.86 257.453 46.9077 254.796L46.3223 239.736C46.0468 232.649 42.4319 230.858 40.59 229.076C38.7481 227.294 31.587 225.483 35.0298 222.846C37.784 220.735 42.6097 220.231 44.6782 220.242L44.5405 216.699C42.7674 216.689 32.6369 206.89 38.3949 195.408C43.3303 185.567 62.4496 184.915 68.5365 195.576C74.6236 206.238 67.4866 214.169 63.1573 216.802L63.2951 220.346C65.0681 220.356 70.4216 221.271 73.1501 223.058C75.3328 224.487 74.1514 226.015 73.2878 226.601C64.2058 230.093 62.1648 236.872 62.2796 239.825L62.865 254.885C63.106 261.086 66.721 262.877 70.3703 265.554C73.2898 267.696 74.7025 270.597 75.044 271.78C88.5828 278.055 90.6657 286.038 87.3607 292.219C90.9067 292.239 91.2711 294.012 91.0101 294.896C89.9658 298.433 85.2262 298.112 83.1691 298.395C67.3151 300.964 30.899 298.99 27.3185 298.085C23.8449 297.206 21.044 296.278 20.9407 293.621Z" fill="#F9DFAC"/>
<path d="M19.2808 298.261C21.8852 299.022 20.2103 299.326 22.317 299.526C27.9341 302.412 38.1805 303.038 57.2358 305.491C58.3211 305.808 68.487 307.844 76.9773 309.079C91.8353 311.239 94.8693 312.49 98.3939 313.467L116.842 318.855C125.523 321.391 121.374 321.425 120.384 321.758C119.395 322.092 108.925 321.524 118.5 323.076C126.16 324.317 135.449 325.329 139.136 325.679L143.476 326.947C140.316 326.647 134.873 328.481 160.041 333.654C181.612 338.087 216.67 341.603 213.76 338.76C210.85 335.918 187.812 331.803 176.656 330.101L172.315 328.833C175.475 329.134 183.87 329.718 186.44 329.534C188.496 329.388 184.403 328.628 182.099 328.266C161.327 325.436 148.899 322.616 145.282 321.559L126.834 316.17C119.238 313.951 123.387 313.918 126.452 313.568C128.903 313.288 127.676 312.473 126.755 312.1C142.859 312.134 136.253 309.582 122.336 306.762C128.656 307.363 127.013 306.779 125.401 306.412C118.954 304.943 70.4737 297.053 66.4253 296.597C34.7299 292.942 24.5672 295.22 19.3324 294.936C14.254 294.661 16.0253 297.31 19.2808 298.261Z" fill="#172E3B"/>
<path d="M22.5579 293.593C22.4753 291.466 24.8187 290.948 26.0007 290.955C22.0758 281.19 28.8925 274.143 37.6544 271.535C37.6199 270.649 40.1073 266.234 43.5845 264.482C49.6696 261.416 48.4772 257.424 48.5249 254.767L47.9395 239.708C47.664 232.621 44.049 230.829 42.2071 229.048C40.3652 227.266 33.2042 225.455 36.647 222.817C39.4012 220.707 44.0674 220.555 46.136 220.566L46.1577 216.67C44.3846 216.661 34.2541 206.862 40.0121 195.38C44.9475 185.539 64.0668 184.886 70.1537 195.548C76.2408 206.21 69.1038 214.141 64.7745 216.774L64.9123 220.317C66.6853 220.327 72.0388 221.243 74.7673 223.029C76.95 224.459 75.7686 225.987 74.905 226.573C65.8229 230.065 63.782 236.844 63.8968 239.797L64.4822 254.856C64.7232 261.057 68.3381 262.849 71.9875 265.526C74.907 267.668 76.3197 270.569 76.6611 271.752C90.1999 278.027 92.2829 286.009 88.9779 292.191C92.5239 292.21 92.8883 293.984 92.6272 294.868C91.583 298.405 86.8434 298.083 84.7863 298.367C68.9323 300.936 32.5162 298.962 28.9357 298.056C25.4621 297.178 22.6612 296.25 22.5579 293.593Z" fill="#A8C0CC"/>
<mask id="mask3_62_15859" style="mask-type:alpha" maskUnits="userSpaceOnUse" x="22" y="187" width="71" height="113">
<path d="M22.5589 293.593C22.4763 291.466 24.8197 290.948 26.0017 290.955C22.0768 281.19 28.8935 274.143 37.6554 271.535C37.6209 270.649 40.1083 266.234 43.5855 264.482C49.6706 261.416 48.4782 257.424 48.5258 254.767L47.9405 239.708C47.665 232.621 44.05 230.829 42.2081 229.048C40.3662 227.266 33.2052 225.455 36.648 222.817C39.4022 220.707 44.0684 220.555 46.137 220.566L46.1586 216.67C44.3856 216.661 34.2551 206.862 40.0131 195.38C44.9485 185.539 64.0678 184.886 70.1547 195.548C76.2418 206.21 69.1048 214.141 64.7755 216.774L64.9132 220.317C66.6863 220.327 72.0398 221.243 74.7682 223.029C76.951 224.459 75.7695 225.987 74.906 226.573C65.8239 230.065 63.783 236.844 63.8978 239.797L64.4832 254.856C64.7242 261.057 68.3391 262.849 71.9885 265.526C74.908 267.668 76.3207 270.569 76.6621 271.752C90.2009 278.027 92.2839 286.009 88.9789 292.191C92.5249 292.21 92.8893 293.984 92.6282 294.868C91.584 298.405 86.8444 298.083 84.7873 298.367C68.9333 300.936 32.5172 298.962 28.9367 298.056C25.4631 297.178 22.6622 296.25 22.5589 293.593Z" fill="#D3E3EB"/>
</mask>
<g mask="url(#mask3_62_15859)">
<path d="M79.0464 296.062C78.9638 293.936 73.3587 292.114 74.5407 292.12C78.2557 289.954 82.441 280.398 68.1131 272.708C68.0787 271.822 59.4199 267.001 62.8971 265.249C68.9822 262.183 61.6099 257.949 61.6575 255.292L61.0721 240.232C60.7967 233.146 60.7576 231.771 60.7466 229.651C60.7337 227.147 61.5113 226.984 61.4974 224.286C61.4791 220.745 57.7458 220.742 59.8143 220.754L59.6766 217.21C62.4061 214.496 65.6594 208.844 65.6315 203.449C65.5888 195.187 60.5421 190.053 58.0251 188.702C55.2467 187.211 63.6204 186.224 70.154 195.558C77.2081 205.635 69.1041 214.151 64.7748 216.784L64.9126 220.328C66.6856 220.337 72.0392 221.253 74.7676 223.039C76.9503 224.469 75.7689 225.997 74.9053 226.583C65.8233 230.075 63.7823 236.854 63.8971 239.807L64.4825 254.866C64.7235 261.067 68.3385 262.859 71.9878 265.536C74.9073 267.678 76.3201 270.579 76.6615 271.762C90.2003 278.037 92.2832 286.019 88.9782 292.201C92.5243 292.221 92.8886 293.994 92.6276 294.878C91.5833 298.415 86.8437 298.093 84.7867 298.377C68.9327 300.946 60.8859 300.167 57.2464 299.639C52.5278 298.955 79.1497 298.72 79.0464 296.062Z" fill="#436577"/>
<path d="M65.1603 220.553C59.5239 221.154 48.8603 220.777 44.3637 220.262L44.27 216.422C52.1311 218.362 61.5002 217.173 65.318 216.468L65.1603 220.553Z" fill="#436577"/>
<path d="M42.6488 291.963C41.9585 291.924 41.367 292.451 41.3277 293.142C41.2884 293.832 41.8162 294.424 42.5065 294.463L42.6488 291.963ZM42.5065 294.463C52.1894 295.014 71.4306 296.806 89.4157 289.802L88.5071 287.469C71.1235 294.238 52.4637 292.522 42.6488 291.963L42.5065 294.463Z" fill="#436577"/>
<path d="M38.1639 291.395C38.8509 291.474 39.3442 292.095 39.2656 292.782C39.1871 293.469 38.5665 293.962 37.8795 293.883L38.1639 291.395ZM37.8795 293.883C32.1022 293.223 28.7939 292.661 26.223 292.049C23.6785 291.444 21.8322 290.779 19.155 289.98L19.8707 287.58C22.6934 288.422 24.3458 289.029 26.8028 289.613C29.2336 290.192 32.4298 290.74 38.1639 291.395L37.8795 293.883Z" fill="#F9DFAC"/>
</g>
<path d="M48.3341 226.498C48.3299 227.249 35.309 227.176 35.1566 224.384C35.0042 221.592 35.5482 223.31 36.0826 223.148C37.3277 224.396 39.1963 224.605 40.5799 224.952C44.9157 226.038 48.3383 225.746 48.3341 226.498Z" fill="#F9DFAC"/>
<path d="M-39.5407 326.321C-40.2033 324.296 -37.5551 322.682 -36.1482 322.128C-41.4901 313.339 -30.4282 303.349 -24.2296 299.452C-22.5216 295.25 -21.6652 292.728 -17.4304 288.54C-11.427 282.603 -9.14764 263.317 -9.65293 253.206L-9.57326 238.887C-11.591 238.202 -15.4427 234.081 -17.1164 232.107C-19.0786 231.534 -22.6633 229.886 -21.3044 227.872C-19.9455 225.858 -17.918 224.802 -17.0742 224.526C-17.0592 221.831 -14.2416 220.049 -12.8346 219.496L-11.9314 208.551C-14.4458 206.29 -19.2958 199.918 -18.5807 192.51C-17.6869 183.249 -14.299 179.899 -9.2218 175.715C-5.16007 172.369 -2.42569 165.365 -1.56622 162.281C-4.08371 160.582 -4.91194 158.051 -4.05091 154.686C-2.75936 149.64 1.03094 149.661 2.71551 149.67C5.06799 149.683 8.59748 152.23 8.57873 155.599C8.55999 158.968 7.70833 160.648 6.01438 162.323C6.00032 164.85 8.4897 171.602 12.6777 175.837C16.8657 180.072 21.9007 183.469 22.6915 192.739C23.324 200.155 17.2773 207.029 14.1748 209.538L14.1186 219.646C18.8279 221.02 19.4312 223.606 19.1442 224.728C20.5465 225.016 23.3482 226.099 23.3369 228.12C23.3257 230.142 19.9475 231.751 18.2598 232.303C18.2485 234.325 14.2994 237.616 12.3262 239.009L12.2466 253.328L12.2445 253.693C12.1867 263.859 12.0873 281.331 20.4726 288.751C27.1781 294.684 27.4355 298.897 27.15 299.738C42.5844 311.279 40.7965 319.749 37.9733 322.541C39.6578 322.55 43.8505 325.943 41.3143 327.613C38.7781 329.284 32.0304 330.931 -0.818887 330.748C-33.6681 330.565 -38.7125 328.853 -39.5407 326.321Z" fill="#F9DFAC"/>
<path d="M-101.524 317.22C-100.393 317.787 -92.9243 318.681 -89.3311 319.058C-89.5215 321.175 -54.3097 325.968 -36.6801 328.1C-27.9586 329.706 -23.0729 330.646 -9.14365 332.6C10.6024 335.369 39.135 341.965 50.577 345.186L68.426 349.858C65.0998 349.8 62.2244 350.605 61.2025 351.015C57.852 350.928 52.4754 350.965 57.7727 351.81C63.07 352.655 68.5661 353.281 70.652 353.489C74.0118 354.368 82.038 355.341 85.6311 355.717L101.016 359.406C98.6084 359.791 96.4498 361.19 107.078 363.702C120.363 366.841 131.507 368.404 147.172 370.473C159.704 372.128 174.008 374.789 179.594 375.913C176.486 376.115 177.9 376.824 183.836 378.039C192.739 379.862 200.551 380.383 204.022 380.615C208.871 380.938 213.024 380.601 208.824 379.501C204.624 378.402 200.789 377.736 195.217 376.955C192.067 376.13 188.875 374.279 192.305 373.484C195.735 372.688 201.95 372.284 192.137 369.376C184.286 367.05 163.294 363.97 153.779 362.721L141.18 359.423C149.221 359.632 147.274 358.874 145.296 358.468C147.839 358.57 152.295 358.608 149.775 357.948C147.255 357.288 138.282 356.294 134.11 355.879C131.59 355.219 119.36 353.598 113.559 352.869L95.7104 348.197C83.1111 344.899 60.6977 339.073 68.9718 337.811C75.5094 336.813 70.8383 335.478 69.2097 335.164C86.8687 333.557 60.8604 329.91 51.5711 328.607L51.5675 328.607C55.0393 328.838 47.7967 324.468 40.4891 323.571C33.1815 322.674 40.7772 325.689 -26.9228 321.173C-94.6228 316.656 -102.938 316.511 -101.524 317.22Z" fill="#172E3B"/>
<path d="M-37.3615 326.333C-38.0241 324.308 -35.3759 322.694 -33.969 322.14C-39.3109 313.35 -28.249 303.36 -22.0504 299.464C-20.3424 295.262 -19.486 292.74 -15.2512 288.552C-9.24778 282.615 -6.96844 263.328 -7.47373 253.218L-7.39406 238.899C-9.41181 238.214 -13.2635 234.093 -14.9372 232.118C-16.8994 231.546 -20.4841 229.897 -19.1252 227.883C-17.7663 225.869 -15.7388 224.814 -14.895 224.538C-14.88 221.842 -12.0624 220.061 -10.6554 219.507L-9.75223 208.562C-12.2666 206.302 -17.1166 199.93 -16.4015 192.521C-15.5077 183.261 -12.1198 179.91 -7.0426 175.727C-2.98087 172.381 -0.24649 165.376 0.61298 162.293C-1.90451 160.594 -2.73274 158.063 -1.87171 154.698C-0.580158 149.651 3.21014 149.673 4.89472 149.682C7.24719 149.695 10.7767 152.242 10.7579 155.611C10.7392 158.98 9.88753 160.66 8.19358 162.335C8.17952 164.862 10.6689 171.614 14.8569 175.849C19.0449 180.084 24.0799 183.481 24.8706 192.751C25.5032 200.167 19.4565 207.04 16.354 209.55L16.2978 219.657C21.0071 221.031 21.6104 223.618 21.3234 224.739C22.7257 225.028 25.5274 226.11 25.5161 228.132C25.5049 230.153 22.1267 231.763 20.439 232.315C20.4277 234.337 16.4786 237.628 14.5054 239.021L14.4258 253.34L14.4237 253.705C14.3659 263.87 14.2665 281.343 22.6518 288.763C29.3573 294.696 29.6147 298.909 29.3292 299.75C44.7636 311.291 42.9757 319.761 40.1525 322.553C41.837 322.562 46.0297 325.954 43.4935 327.625C40.9573 329.296 34.2096 330.943 1.36031 330.76C-31.4889 330.577 -36.5333 328.864 -37.3615 326.333Z" fill="#A8C0CC"/>
<path d="M21.063 224.794C9.39219 227.62 -7.91433 226.047 -15.1087 224.907C-23.1182 227.896 -18.4293 230.874 -15.0842 232.098C5.84328 234.865 16.5183 232.943 20.4362 231.551C22.3224 230.818 25.9588 229.485 25.4292 227.395C24.8997 225.305 22.2977 224.79 21.063 224.794Z" fill="#436577"/>
<path d="M7.22738 327.425C7.25196 323.006 -1.28625 322.885 0.120693 322.331C24.8557 322.469 20.0765 306.116 12.0393 299.655C13.7473 295.453 5.31271 293.548 8.75387 288.687C10.6669 285.984 8.47275 278.846 8.61483 253.309L8.69449 238.99C6.52603 236.347 12.5747 235.803 12.5869 233.62C14.9444 232.458 17.3579 232.121 17.3748 229.071C17.3918 226.02 12.6218 227.355 12.633 225.34C12.648 222.645 8.23235 220.176 9.63929 219.622L10.5425 208.677C8.02813 206.417 14.1065 201.963 14.1654 191.383C14.2171 182.08 2.99373 179.996 8.07089 175.813C12.1326 172.466 5.57779 165.305 5.26061 161.945C8.46157 160.115 8.47745 157.261 8.48669 155.6C8.50548 152.223 3.20989 149.674 4.89447 149.683C7.24695 149.697 10.7764 152.243 10.7577 155.612C10.7389 158.981 9.88727 160.661 8.19332 162.337C8.17926 164.863 10.6686 171.616 14.8567 175.851C19.0447 180.085 24.0796 183.483 24.8704 192.753C25.503 200.169 19.4562 207.042 16.3538 209.552L16.2975 219.659C21.0069 221.033 21.6102 223.619 21.3232 224.741C22.7254 225.029 25.5271 226.112 25.5159 228.133C25.5046 230.155 22.1264 231.765 20.4387 232.317C20.4274 234.338 16.4783 237.629 14.5052 239.022L14.4255 253.341L14.4235 253.706C14.3656 263.872 14.2663 281.344 22.6516 288.764C29.3571 294.698 29.6144 298.911 29.329 299.751C44.7633 311.293 42.9754 319.762 40.1522 322.554C41.8368 322.564 46.0295 325.956 43.4932 327.627C40.957 329.297 34.2093 330.944 1.36007 330.761C-10.7925 330.694 7.21256 330.088 7.22738 327.425Z" fill="#436577"/>
<path d="M-31.9536 322.059C-20.752 323.108 7.83001 324.648 32.5446 322.418" stroke="#436577" stroke-width="2.50406"/>
<path opacity="0.2" d="M117.656 72.4914C117.916 79.2362 108.943 81.8208 97.2198 77.2127C85.497 72.6045 78.5074 65.6515 78.2472 58.9067C77.9871 52.162 87.2685 52.1428 97.2198 51.759C107.171 51.3751 117.396 65.7467 117.656 72.4914Z" fill="black"/>
</g>
<defs>
<filter id="filter0_i_62_15859" x="-40" y="45.6172" width="157.925" height="188.317" filterUnits="userSpaceOnUse" color-interpolation-filters="sRGB">
<feFlood flood-opacity="0" result="BackgroundImageFix"/>
<feBlend mode="normal" in="SourceGraphic" in2="BackgroundImageFix" result="shape"/>
<feColorMatrix in="SourceAlpha" type="matrix" values="0 0 0 0 0 0 0 0 0 0 0 0 0 0 0 0 0 0 127 0" result="hardAlpha"/>
<feOffset dx="2.80495" dy="0.601061"/>
<feComposite in2="hardAlpha" operator="arithmetic" k2="-1" k3="1"/>
<feColorMatrix type="matrix" values="0 0 0 0 0.975575 0 0 0 0 0.875316 0 0 0 0 0.674797 0 0 0 1 0"/>
<feBlend mode="normal" in2="shape" result="effect1_innerShadow_62_15859"/>
</filter>
<filter id="filter1_i_62_15859" x="52.5808" y="1.42139" width="215.894" height="65.1431" filterUnits="userSpaceOnUse" color-interpolation-filters="sRGB">
<feFlood flood-opacity="0" result="BackgroundImageFix"/>
<feBlend mode="normal" in="SourceGraphic" in2="BackgroundImageFix" result="shape"/>
<feColorMatrix in="SourceAlpha" type="matrix" values="0 0 0 0 0 0 0 0 0 0 0 0 0 0 0 0 0 0 127 0" result="hardAlpha"/>
<feOffset dx="0.801415" dy="0.400707"/>
<feComposite in2="hardAlpha" operator="arithmetic" k2="-1" k3="1"/>
<feColorMatrix type="matrix" values="0 0 0 0 0.97609 0 0 0 0 0.901595 0 0 0 0 0.724667 0 0 0 1 0"/>
<feBlend mode="normal" in2="shape" result="effect1_innerShadow_62_15859"/>
</filter>
<filter id="filter2_i_62_15859" x="202.342" y="193.915" width="55.8718" height="87.8301" filterUnits="userSpaceOnUse" color-interpolation-filters="sRGB">
<feFlood flood-opacity="0" result="BackgroundImageFix"/>
<feBlend mode="normal" in="SourceGraphic" in2="BackgroundImageFix" result="shape"/>
<feColorMatrix in="SourceAlpha" type="matrix" values="0 0 0 0 0 0 0 0 0 0 0 0 0 0 0 0 0 0 127 0" result="hardAlpha"/>
<feOffset dx="0.200354" dy="0.601061"/>
<feComposite in2="hardAlpha" operator="arithmetic" k2="-1" k3="1"/>
<feColorMatrix type="matrix" values="0 0 0 0 1 0 0 0 0 0.930479 0 0 0 0 0.791436 0 0 0 1 0"/>
<feBlend mode="normal" in2="shape" result="effect1_innerShadow_62_15859"/>
</filter>
<filter id="filter3_i_62_15859" x="202.342" y="193.915" width="30.4382" height="24.2642" filterUnits="userSpaceOnUse" color-interpolation-filters="sRGB">
<feFlood flood-opacity="0" result="BackgroundImageFix"/>
<feBlend mode="normal" in="SourceGraphic" in2="BackgroundImageFix" result="shape"/>
<feColorMatrix in="SourceAlpha" type="matrix" values="0 0 0 0 0 0 0 0 0 0 0 0 0 0 0 0 0 0 127 0" result="hardAlpha"/>
<feOffset dx="0.400707"/>
<feComposite in2="hardAlpha" operator="arithmetic" k2="-1" k3="1"/>
<feColorMatrix type="matrix" values="0 0 0 0 0.996712 0 0 0 0 0.922102 0 0 0 0 0.730246 0 0 0 1 0"/>
<feBlend mode="normal" in2="shape" result="effect1_innerShadow_62_15859"/>
</filter>
<clipPath id="clip0_62_15859">
<rect width="414" height="387" fill="white"/>
</clipPath>
</defs>
</svg>
