<svg width="414" height="387" viewBox="0 0 414 387" fill="none" xmlns="http://www.w3.org/2000/svg">
<g clip-path="url(#clip0_62_15859)">
<path d="M125.026 271.824C123.323 271.257 120.372 271.526 120.372 272.249L120.372 283.944C120.372 284.573 121.197 285.202 122.671 285.698L595.858 444.819L1080.76 316.904L1080.76 302.005L595.859 428.634L125.026 271.824Z" fill="#061B26"/>
<path d="M122.04 273.054C119.941 272.355 119.974 271.335 122.116 270.776L605.061 144.657L1082.43 303.644L595.608 430.775L122.04 273.054Z" fill="#133141"/>
<path d="M173.158 274.743C171.059 274.043 171.093 273.023 173.234 272.464L604.56 159.826L1031.31 301.955L596.109 415.606L173.158 274.743Z" fill="#476A7D"/>
<path d="M185.498 275.151C183.398 274.452 183.432 273.431 185.573 272.872L234.65 260.056L286.576 277.35L233.622 291.179L185.498 275.151Z" fill="#809CAA"/>
<rect width="54.7301" height="54.7301" transform="matrix(0.967552 -0.25267 0.948765 0.315984 234.65 260.056)" fill="#133141"/>
<rect width="54.7301" height="54.7301" transform="matrix(0.967552 -0.25267 0.948765 0.315984 287.604 246.228)" fill="#809CAA"/>
<rect width="54.7301" height="54.7301" transform="matrix(0.967552 -0.25267 0.948765 0.315984 340.558 232.399)" fill="#133141"/>
<rect width="54.7301" height="54.7301" transform="matrix(0.967552 -0.25267 0.948765 0.315984 393.513 218.57)" fill="#809CAA"/>
<rect width="54.7301" height="54.7301" transform="matrix(-0.967552 0.25267 0.948765 0.315984 442.073 297.673)" fill="#809CAA"/>
<rect width="54.7301" height="54.7301" transform="matrix(-0.967552 0.25267 0.948765 0.315984 389.119 311.502)" fill="#133141"/>
<rect width="54.7301" height="54.7301" transform="matrix(0.967552 -0.25267 0.948765 0.315984 284.675 308.183)" fill="#809CAA"/>
<rect width="54.7301" height="54.7301" transform="matrix(0.967552 -0.25267 0.948765 0.315984 337.629 294.354)" fill="#133141"/>
<rect width="54.7301" height="54.7301" transform="matrix(0.967552 -0.25267 0.948765 0.315984 390.583 280.525)" fill="#809CAA"/>
<rect width="54.7301" height="54.7301" transform="matrix(-0.967552 0.25267 0.948765 0.315984 445.002 235.719)" fill="#809CAA"/>
<rect width="54.7301" height="54.7301" transform="matrix(-0.967552 0.25267 0.948765 0.315984 392.048 249.548)" fill="#133141"/>
<rect width="54.7301" height="54.7301" transform="matrix(-0.967552 0.25267 0.948765 0.315984 339.094 263.376)" fill="#809CAA"/>
<rect width="54.7301" height="54.7301" transform="matrix(-0.967552 0.25267 0.948765 0.315984 286.14 277.205)" fill="#133141"/>
<rect width="54.7301" height="54.7301" transform="matrix(0.967552 -0.25267 0.948765 0.315984 387.654 342.479)" fill="#809CAA"/>
<path opacity="0.45" d="M533.786 235.602L315 175.626L343.651 161L622.743 193.858C622.743 193.858 610.922 227.718 587.681 235.602C564.44 243.486 533.786 235.602 533.786 235.602Z" fill="#031119"/>
<path d="M334.262 122.135C335.927 122.492 335.946 124.431 335.747 125.356C343.972 124.221 348.327 130.961 348.917 138.343C349.611 138.492 352.631 141.318 353.422 144.39C354.806 149.766 358.101 149.625 360.156 150.19L371.946 152.724C377.493 153.916 379.477 151.44 381.162 150.351C382.847 149.262 385.426 144.013 386.91 147.234C388.098 149.811 387.699 153.691 387.351 155.309L390.125 155.905C390.423 154.518 399.691 148.529 407.663 155.321C414.497 161.143 411.872 176.25 402.596 178.9C393.321 181.55 388.331 174.383 386.996 170.469L384.222 169.873C383.924 171.26 382.336 175.271 380.502 177.054C379.035 178.48 378.041 177.251 377.728 176.458C376.504 168.649 371.575 165.704 369.263 165.207L357.473 162.673C352.619 161.63 350.636 164.106 347.959 166.433C345.818 168.294 343.334 168.825 342.36 168.857C335.27 178.216 328.73 178.262 324.472 174.445C323.876 177.219 322.439 177.152 321.795 176.771C319.22 175.251 320.246 171.602 320.363 169.934C320.965 157.004 328.462 128.869 329.752 126.244C331.003 123.697 332.182 121.687 334.262 122.135Z" fill="#0B1C25"/>
<mask id="mask0_62_15859" style="mask-type:alpha" maskUnits="userSpaceOnUse" x="320" y="122" width="92" height="58">
<path d="M334.263 122.134C335.927 122.491 335.946 124.43 335.747 125.355C343.972 124.22 348.327 130.96 348.917 138.342C349.611 138.491 352.631 141.317 353.422 144.389C354.806 149.765 358.101 149.624 360.156 150.189L371.946 152.723C377.494 153.915 379.477 151.439 381.162 150.35C382.847 149.262 385.426 144.012 386.911 147.233C388.098 149.81 387.699 153.69 387.352 155.308L390.126 155.904C390.424 154.517 399.692 148.528 407.664 155.32C414.497 161.142 411.872 176.249 402.596 178.899C393.321 181.549 388.331 174.382 386.996 170.468L384.222 169.872C383.924 171.259 382.336 175.271 380.502 177.053C379.035 178.479 378.041 177.25 377.728 176.457C376.504 168.648 371.575 165.703 369.263 165.206L357.474 162.672C352.619 161.629 350.636 164.105 347.96 166.432C345.818 168.293 343.334 168.824 342.36 168.856C335.27 178.215 328.731 178.261 324.472 174.444C323.876 177.218 322.439 177.151 321.795 176.771C319.22 175.25 320.246 171.601 320.363 169.933C320.965 157.003 328.462 128.868 329.752 126.243C331.003 123.696 332.182 121.686 334.263 122.134Z" fill="#D3E3EB"/>
</mask>
<g mask="url(#mask0_62_15859)">
<path d="M323.092 165.895C324.757 166.253 328.498 161.34 328.299 162.264C329.373 165.605 334.699 171.666 343.017 161.97C343.711 162.119 348.873 156.294 349.663 159.366C351.047 164.742 355.543 159.808 357.598 160.373L369.387 162.907C374.935 164.099 376.009 164.342 377.657 164.754C379.603 165.242 379.603 165.883 381.699 166.408C384.452 167.098 385.066 164.174 384.718 165.792L387.492 166.388C389.152 169.065 393.008 172.737 397.202 173.787C403.625 175.395 408.437 172.462 409.898 170.758C411.511 168.878 410.906 175.634 402.588 178.898C393.608 182.421 388.323 174.381 386.988 170.466L384.214 169.87C383.916 171.257 382.328 175.269 380.494 177.052C379.027 178.478 378.033 177.248 377.72 176.455C376.496 168.647 371.567 165.701 369.255 165.205L357.466 162.671C352.611 161.628 350.628 164.104 347.951 166.43C345.81 168.292 343.326 168.822 342.352 168.855C335.262 178.214 328.722 178.26 324.464 174.442C323.868 177.216 322.431 177.149 321.787 176.769C319.212 175.248 320.238 171.599 320.355 169.932C320.957 157.002 322.88 150.853 323.885 148.107C325.189 144.546 321.012 165.448 323.092 165.895Z" fill="#020E14"/>
<path d="M384.137 170.276C384.432 166.149 386.156 158.566 387.156 155.422L390.124 155.927C387.574 161.269 387.231 168.157 387.26 170.997L384.137 170.276Z" fill="#020E14"/>
</g>
<path opacity="0.45" d="M414.713 310.473L11 207.491L269.657 156L672.568 235.741L414.713 310.473Z" fill="#031119"/>
<path d="M118.682 224.797C119.777 228.146 123.083 234.54 127.055 234.271C127.209 234.253 127.356 234.234 127.497 234.213C127.349 234.242 127.202 234.261 127.055 234.271C123.646 234.672 117.247 234.537 112.07 232.811C114.474 232.744 119.163 231.048 118.682 224.797Z" fill="#A1948F"/>
<path d="M59.5772 82.5954C58.2699 79.3231 54.5606 73.1547 50.6137 73.6774C50.4617 73.7052 50.3159 73.7338 50.1765 73.7629C50.3225 73.725 50.4683 73.6966 50.6137 73.6774C53.9902 73.0586 60.3854 72.7838 65.6619 74.1742C63.2669 74.3949 58.6969 76.388 59.5772 82.5954Z" fill="#958681"/>
<path d="M257.089 10.9775C257.089 10.9775 290.171 32.5153 291.187 33.659C292.202 34.8026 293.992 36.6643 293.992 36.6643L287.58 34.5481L58.6865 74.1996C57.478 74.409 56.2401 74.0533 55.327 73.2343L24.6079 45.6802L20.5088 44.8788L22.7127 43.877L257.089 10.9775Z" fill="#A69A96"/>
<g filter="url(#filter0_i_62_15859)">
<path d="M111.78 232.79L-38.5298 199.955C-42.7728 101.759 -2.45361 56.6665 20.3151 45.0113C21.7102 44.2971 23.3811 44.5828 24.5481 45.6289L55.8917 73.722C56.3397 74.1235 56.6915 74.6208 56.9211 75.1768L118.619 224.624C120.47 229.108 116.52 233.825 111.78 232.79Z" fill="#D3CDCC"/>
</g>
<path d="M111.771 232.776L-9.54417 206.164C-13.8296 106.987 21.184 75.3061 43.5232 64.8491C44.516 64.3843 45.676 64.5818 46.4929 65.3127L56.2311 74.0258C56.4557 74.2268 56.6321 74.4758 56.7471 74.7544L118.614 224.612C120.467 229.098 116.512 233.816 111.771 232.776Z" fill="#CCC4C1"/>
<path d="M111.717 232.747L36.7374 216.182C34.333 182.456 39.7427 140.047 76.4074 123.218L118.564 224.57C120.432 229.062 116.468 233.797 111.717 232.747Z" fill="#C5BBB7"/>
<path d="M121.063 230.566L59.2205 81.4159C57.7476 77.8636 59.9432 73.8611 63.7305 73.1942L287.766 33.746C290.476 33.2688 293.164 34.693 294.292 37.2033L356.268 175.215C357.824 178.681 355.814 182.704 352.108 183.54L127.939 234.127C125.086 234.771 122.184 233.268 121.063 230.566Z" fill="#72635E"/>
<g filter="url(#filter1_i_62_15859)">
<path d="M53.8152 49.9863V46.8467L68.7137 60.177V63.3105C68.7137 63.695 69.9027 64.606 70.397 65.1137C70.397 65.1137 68.9945 65.5144 68.7137 65.4828L54.9584 52.6205C54.2291 51.9385 53.8152 50.9848 53.8152 49.9863Z" fill="#D3CDCC"/>
<path d="M53.741 46.8828L161.425 29.013L245.805 0.63044C246.987 0.233025 248.286 0.408104 249.32 1.10411L269.148 14.4486C269.223 14.4486 269.548 14.6258 269.548 15.0265L268.747 14.4486L174.755 41.5591L68.1125 60.3784L53.741 46.8828Z" fill="#B8AFAC"/>
<path d="M173.379 41.8733L159.955 29.251H161.157L174.982 41.4725L173.379 41.8733Z" fill="#AB9D97"/>
<path d="M268.611 14.4115L174.755 41.5599V47.0489L267.028 29.5093C268.541 29.2218 269.635 27.8997 269.635 26.3601V15.1813C269.635 14.6478 269.124 14.2632 268.611 14.4115Z" fill="#72635E"/>
<path d="M174.781 47.0443L69.1326 65.5521C68.6421 65.638 68.1929 65.2606 68.1929 64.7627V60.2878L174.781 41.541V47.0443Z" fill="#72635E"/>
</g>
<path d="M328.065 149.708L122.503 190.851C122.13 190.926 121.756 190.727 121.608 190.377L98.6087 135.933C98.409 135.46 98.6991 134.924 99.2042 134.832L305.394 97.4845C305.758 97.4186 306.12 97.6107 306.27 97.9493L328.641 148.598C328.848 149.067 328.568 149.607 328.065 149.708Z" fill="#746560"/>
<path d="M192.919 200.411L133.265 212.958C132.168 213.189 131.099 212.474 130.86 211.379C129.658 205.878 128.095 202.065 124.709 196.701C123.946 195.491 124.612 193.873 126.015 193.595L185.748 181.765C186.499 181.616 187.274 181.91 187.728 182.526C191.99 188.316 193.588 192.177 194.472 198.217C194.623 199.243 193.934 200.197 192.919 200.411Z" fill="#D3CDCC"/>
<path d="M264.846 185.985L205.191 198.533C204.095 198.763 203.026 198.048 202.787 196.953C201.585 191.453 200.022 187.639 196.636 182.275C195.872 181.065 196.538 179.447 197.942 179.169L257.675 167.339C258.426 167.19 259.2 167.484 259.654 168.101C263.917 173.891 265.515 177.751 266.399 183.791C266.549 184.817 265.861 185.771 264.846 185.985Z" fill="#D3CDCC"/>
<path d="M203.436 197.549L266.426 184.005L266.576 185.607L203.546 199.099L203.436 197.549Z" fill="#A1948F"/>
<path d="M130.936 212.376L194.299 198.752L194.448 200.355L131.044 213.926L130.936 212.376Z" fill="#A1948F"/>
<path d="M335.17 171.561L275.516 184.109C274.419 184.339 273.351 183.624 273.102 182.531C271.85 177.052 270.046 173.343 266.597 168.004C265.821 166.803 266.485 165.186 267.887 164.907L327.997 152.917C328.75 152.767 329.525 153.061 329.98 153.678C334.242 159.467 335.839 163.328 336.724 169.368C336.874 170.393 336.185 171.348 335.17 171.561Z" fill="#D3CDCC"/>
<path d="M273.569 182.961L336.751 169.617L336.895 171.22L273.672 184.511L273.569 182.961Z" fill="#A1948F"/>
<path d="M130.829 212.83L124.373 196.111C124.217 195.707 124.718 195.382 124.983 195.725C125.845 196.841 126.945 198.831 128.873 203.76C130.431 207.742 131.126 210.792 131.383 212.712C131.44 213.14 130.985 213.233 130.829 212.83Z" fill="white"/>
<path d="M203.329 198.704L196.377 181.766C196.21 181.361 196.639 181.096 196.884 181.459C197.76 182.759 198.903 184.945 201.001 189.535C202.815 193.504 203.6 196.637 203.88 198.579C203.941 199.003 203.491 199.1 203.329 198.704Z" fill="white"/>
<path d="M273.452 184.131L266.347 167.39C266.175 166.984 266.641 166.68 266.904 167.034C267.835 168.281 269.058 170.387 271.125 174.909C272.954 178.91 273.736 182.061 274.011 184C274.07 184.421 273.618 184.522 273.452 184.131Z" fill="white"/>
<path d="M137.123 202.958L136.292 201.367L141.017 200.395L141.849 201.985L137.123 202.958ZM182.611 196.477L181.163 193.707L178.102 194.337L177.166 192.547L180.228 191.917L178.794 189.176L180.757 188.772L182.19 191.514L185.251 190.884L186.187 192.673L183.126 193.303L184.574 196.073L182.611 196.477Z" fill="#70605A"/>
<path d="M108.228 124.048L101.633 109.866L106.277 109.063C111.428 108.171 115.602 110.263 117.741 114.861C119.842 119.378 118.112 122.338 112.85 123.248L108.228 124.048ZM110.337 120.517L111.133 120.38C114.273 119.836 115.78 118.762 114.191 115.344C112.658 112.047 110.469 111.503 107.573 112.004L106.467 112.195L110.337 120.517ZM132.062 119.923L129.951 117.694L124.158 118.697L124.279 121.27L120.498 121.924L120.315 106.633L122.858 106.193L135.843 119.268L132.062 119.923ZM124.011 115.556L127.394 114.971L123.812 111.172L124.011 115.556ZM138.582 118.794L135.98 113.199L126.15 105.623L130.24 104.915L136.21 109.839L137.139 103.721L141.23 103.013L139.452 112.598L142.054 118.193L138.582 118.794ZM153.521 116.538C150.315 117.093 146.971 115.759 145.249 113.134L148.329 111.743C149.259 113.385 150.725 113.967 152.272 113.699C153.4 113.503 154.092 112.834 153.591 111.756C153.288 111.105 152.353 110.739 149.991 110.334C146.129 109.684 144.414 108.771 143.402 106.594C142.304 104.234 143.54 102.217 146.57 101.693C148.714 101.321 150.865 101.939 152.711 103.598L150.603 105.743C149.656 104.786 148.659 104.387 147.774 104.54C146.978 104.678 146.533 105.261 146.845 105.932C147.167 106.624 147.991 107.009 150.571 107.42C154.436 108.026 155.971 108.859 156.907 110.874C158.213 113.682 156.661 115.995 153.521 116.538ZM177.524 112.054L170.928 97.8722L174.4 97.2714L176.907 102.663L182.899 101.626L180.392 96.2342L183.863 95.6334L190.458 109.815L186.987 110.416L184.262 104.556L178.27 105.593L180.995 111.453L177.524 112.054ZM205.974 107.13L201.949 107.826L195.769 102.806L194.906 102.956L194.575 103.013L197.196 108.649L193.746 109.246L187.151 95.0642L192.568 94.1266C196.46 93.453 198.695 94.8689 199.868 97.3919C200.805 99.4063 200.469 100.893 199.038 101.823L205.974 107.13ZM193.212 100.083L194.826 99.8036C195.932 99.6122 197.031 99.356 196.416 98.0335C195.81 96.7313 194.661 96.9303 193.577 97.1178L191.963 97.3972L193.212 100.083ZM212.315 106.362C209.109 106.917 205.766 105.583 204.043 102.957L207.123 101.566C208.054 103.208 209.519 103.79 211.067 103.522C212.194 103.327 212.886 102.657 212.385 101.579C212.082 100.928 211.147 100.562 208.785 100.158C204.923 99.507 203.209 98.5945 202.196 96.4174C201.098 94.0572 202.335 92.0404 205.364 91.5161C207.509 91.1449 209.659 91.762 211.506 93.421L209.398 95.5666C208.451 94.6093 207.453 94.2104 206.568 94.3635C205.772 94.5013 205.327 95.0841 205.639 95.7555C205.961 96.4473 206.785 96.8323 209.365 97.2431C213.23 97.8492 214.765 98.6828 215.702 100.697C217.007 103.505 215.455 105.818 212.315 106.362ZM241.331 85.6864L246.284 84.8291L252.879 99.011L249.407 99.6119L244.951 90.0284L245.671 98.8734L242.333 99.4513L235.351 91.7339L239.789 101.277L236.318 101.878L229.723 87.6956L234.675 86.8384L242.19 95.3429L241.331 85.6864ZM256.168 98.4416L249.573 84.2598L253.044 83.6589L259.64 97.8408L256.168 98.4416ZM265.691 81.4699L269.162 80.8691L275.758 95.0509L272.198 95.6671L262.364 87.9816L266.405 96.6698L262.933 97.2707L256.338 83.0888L259.876 82.4764L269.713 90.1174L265.691 81.4699ZM283.878 93.9752C280.672 94.5301 277.328 93.1963 275.605 90.5705L278.685 89.1799C279.616 90.8216 281.081 91.4034 282.629 91.1355C283.756 90.9403 284.449 90.2709 283.947 89.1925C283.644 88.5414 282.71 88.1755 280.347 87.771C276.485 87.1204 274.771 86.208 273.758 84.0308C272.661 81.6706 273.897 79.6539 276.926 79.1296C279.071 78.7583 281.221 79.3754 283.068 81.0344L280.96 83.1801C280.013 82.2227 279.015 81.8238 278.131 81.9769C277.335 82.1147 276.889 82.6975 277.201 83.3689C277.523 84.0607 278.347 84.4457 280.927 84.8566C284.793 85.4626 286.327 86.2963 287.264 88.3106C288.57 91.1185 287.017 93.4318 283.878 93.9752Z" fill="white"/>
<path d="M113.997 92.9557L111.291 93.408L106.586 89.5329L105.905 89.6467L105.407 89.7299L107.391 94.0601L105.067 94.4486L100.182 83.7838L104.099 83.129C106.938 82.6545 108.637 83.6718 109.506 85.5691C110.207 87.0992 109.908 88.2033 108.783 88.8691L113.997 92.9557ZM104.496 87.7408L105.857 87.5133C106.936 87.3329 107.649 87.0161 107.179 85.991C106.717 84.9811 105.85 84.9613 104.771 85.1417L103.41 85.3692L104.496 87.7408ZM120.335 87.8111C120.44 88.0406 120.522 88.2576 120.615 88.5386L115.12 89.457C115.585 90.236 116.425 90.705 117.603 90.508C118.284 90.3942 118.833 90.0718 119.088 89.4197L121.231 90.4288C120.764 91.4786 119.86 92.1569 118.449 92.3928C115.527 92.8812 113.482 91.1475 112.578 89.1737C111.695 87.2457 111.885 85.0067 114.707 84.535C117.263 84.1077 119.326 85.6078 120.335 87.8111ZM114.382 87.8838L117.801 87.3122C117.39 86.4915 116.412 86.1114 115.482 86.2668C114.337 86.4583 114.201 87.2551 114.382 87.8838ZM126.289 89.5832C128.403 89.477 130.377 89.3777 131.176 91.122C131.933 92.7745 130.666 93.7934 128.441 94.1652C126.035 94.5675 124.118 93.9326 123.424 92.4178C123.354 92.2648 123.307 92.1243 123.284 91.9963L124.227 91.2457C123.489 91.0396 122.843 90.604 122.472 89.7931C122.17 89.1351 122.219 88.6164 122.484 88.1437C121.859 87.754 121.354 87.1961 121.052 86.5382C120.274 84.8398 121.325 83.4286 123.185 83.1178C123.865 83.0041 124.583 83.0489 125.264 83.248L126.079 82.0245L127.853 83.1281L127.072 84.2306C127.446 84.5798 127.759 84.9888 127.976 85.4632C128.747 87.1463 127.784 88.4768 125.858 88.7987C125.277 88.8958 124.704 88.8928 124.155 88.7869C124.114 88.8925 124.12 89.0233 124.177 89.1457C124.408 89.6506 125.211 89.6482 126.289 89.5832ZM124.01 84.8413C123.246 84.9689 123.008 85.5029 123.317 86.1761C123.611 86.8188 124.222 87.2932 125.068 87.1517C125.881 87.0158 126.008 86.4345 125.707 85.7766C125.392 85.088 124.757 84.7164 124.01 84.8413ZM127.84 92.6184C128.77 92.463 129.236 92.1545 129.061 91.772C128.809 91.2211 127.758 91.3473 126.656 91.3997C126.45 91.4177 126.254 91.4176 126.04 91.4203L125.688 92.0557C125.686 92.0891 125.707 92.135 125.721 92.1656C125.959 92.6858 126.844 92.7849 127.84 92.6184ZM128.202 81.1261L127.339 79.2441L129.663 78.8557L130.525 80.7377L128.202 81.1261ZM132.258 89.9033L128.802 82.36L131.06 81.9826L134.515 89.5259L132.258 89.9033ZM139.435 88.8847C137.676 89.1788 135.888 88.3575 134.995 87.3044L136.434 86.2731C136.851 86.7141 137.496 87.3805 138.608 87.1946C139.421 87.0586 139.545 86.6262 139.404 86.3201C138.872 85.1573 135.12 86.5256 133.866 83.7868C133.144 82.2108 134.332 81.2544 135.859 80.9992C137.32 80.755 138.693 81.2173 139.787 82.1217L138.467 83.2977C138.029 82.9262 137.394 82.4392 136.531 82.5835C135.983 82.675 135.78 82.9726 135.913 83.2633C136.404 84.3344 140.231 82.9368 141.514 85.7369C142.348 87.5577 140.979 88.6266 139.435 88.8847ZM146.165 81.2037L144.107 81.5478L145.705 85.0364C145.908 85.4801 146.31 85.8906 147.14 85.7518C147.456 85.6991 147.776 85.5796 148.092 85.4115L148.842 87.0487C148.405 87.303 147.925 87.4655 147.377 87.5571C145.917 87.8013 144.354 87.3542 143.541 85.5793L141.866 81.9224L140.538 82.1444L139.795 80.5225L141.123 80.3005L140.534 79.0152L142.074 77.1105L143.364 79.9259L145.422 79.5818L146.165 81.2037ZM151.357 78.4085C151.905 78.3169 152.466 78.3714 153.161 78.6011L152.93 80.6329C152.611 80.5215 152.18 80.4782 151.782 80.5448C150.736 80.7196 150.443 81.4441 151.073 82.8212L152.749 86.4781L150.491 86.8554L147.036 79.3121L149.31 78.9319L149.857 80.1254C149.829 79.2075 150.461 78.5583 151.357 78.4085ZM157.203 77.4313C159.444 77.0567 161.34 77.9587 162.167 79.7642L164.354 84.5381L162.296 84.8821L161.73 84.0377C161.5 84.8999 160.713 85.3279 159.883 85.4667C158.107 85.7636 156.345 84.9215 155.665 83.4373C155.259 82.5498 155.396 81.835 155.982 81.3583C156.401 81.0247 157.016 80.8066 157.846 80.6678L160.004 80.3071L159.926 80.1388C159.611 79.4502 158.86 79.0981 157.93 79.2535C157.2 79.3756 156.636 79.7828 156.288 80.5824L154.086 79.5996C154.605 78.3927 155.742 77.6755 157.203 77.4313ZM159.463 83.6919C160.509 83.5171 161.087 82.7121 160.704 81.8372L158.862 82.1452C158.397 82.2229 158.11 82.3368 157.974 82.5078C157.831 82.6635 157.815 82.8638 157.92 83.0933C158.13 83.5523 158.7 83.8196 159.463 83.6919ZM168.256 77.5109L166.198 77.855L167.796 81.3436C167.999 81.7873 168.402 82.1978 169.232 82.059C169.547 82.0063 169.868 81.8868 170.184 81.7187L170.934 83.3559C170.496 83.6102 170.017 83.7727 169.469 83.8643C168.008 84.1085 166.445 83.6614 165.632 81.8865L163.957 78.2296L162.629 78.4516L161.886 76.8297L163.214 76.6077L162.625 75.3224L164.165 73.4177L165.455 76.2331L167.513 75.889L168.256 77.5109ZM168.64 74.3665L167.778 72.4845L170.101 72.096L170.964 73.978L168.64 74.3665ZM172.696 83.1437L169.241 75.6003L171.498 75.223L174.953 82.7663L172.696 83.1437ZM180.687 81.9891C178.097 82.4219 175.689 80.8314 174.729 78.7351C173.762 76.6236 174.471 74.5447 177.077 74.1091C179.667 73.6762 182.061 75.2362 183.029 77.3478C183.989 79.444 183.26 81.559 180.687 81.9891ZM179.853 80.1683C181.28 79.9296 181.285 78.8087 180.788 77.7223C180.283 76.6207 179.349 75.6732 177.905 75.9146C176.477 76.1532 176.465 77.2589 176.97 78.3605C177.46 79.4316 178.409 80.4097 179.853 80.1683ZM187.388 72.3856C189.264 72.0721 190.819 72.9322 191.611 74.6612L193.875 79.6034L191.634 79.978L189.672 75.6937C189.419 75.1429 188.929 74.0718 187.518 74.3077C185.825 74.5907 186.533 76.1361 187.03 77.2224L188.53 80.4968L186.272 80.8742L182.817 73.3309L185.075 72.9535L185.432 73.7338C185.707 72.9301 186.458 72.541 187.388 72.3856ZM203.538 78.1692C200.766 78.6326 198.591 76.8878 197.694 74.9293C196.783 72.9401 197.173 70.7499 199.912 70.2921C201.589 70.0118 203.22 70.5298 204.535 71.9572L202.768 73.0928C202.258 72.3708 201.47 71.9755 200.739 72.0976C199.461 72.3112 199.503 73.4572 200.001 74.5436C200.492 75.6146 201.393 76.5676 202.671 76.354C203.401 76.2319 203.772 75.6758 203.618 74.9108L205.98 75.3067C206.077 76.806 205.198 77.8918 203.538 78.1692ZM210.399 77.0224C209.254 77.2138 208.087 76.7335 207.442 75.3259L203.412 66.5278L205.653 66.1533L209.585 74.7371C209.746 75.089 209.987 75.1475 210.319 75.092C210.485 75.0642 210.67 75.0003 210.865 74.9184L211.615 76.5556C211.211 76.8043 210.781 76.9585 210.399 77.0224ZM216.647 75.978C214.057 76.4109 211.649 74.8203 210.689 72.7241C209.721 70.6126 210.431 68.5337 213.037 68.0981C215.627 67.6652 218.021 69.2252 218.988 71.3367C219.949 73.4329 219.22 75.5479 216.647 75.978ZM215.813 74.1572C217.24 73.9186 217.245 72.7977 216.747 71.7113C216.243 70.6096 215.308 69.6622 213.864 69.9036C212.437 70.1422 212.425 71.2478 212.93 72.3495C213.42 73.4206 214.369 74.3986 215.813 74.1572ZM224.915 74.5958C223.156 74.89 221.368 74.0687 220.475 73.0156L221.914 71.9842C222.331 72.4252 222.976 73.0917 224.088 72.9058C224.901 72.7698 225.025 72.3373 224.884 72.0313C224.352 70.8684 220.6 72.2368 219.346 69.4979C218.624 67.9219 219.812 66.9656 221.339 66.7103C222.8 66.4661 224.173 66.9284 225.267 67.8328L223.947 69.0089C223.509 68.6374 222.874 68.1504 222.011 68.2946C221.464 68.3862 221.26 68.6837 221.393 68.9745C221.884 70.0455 225.711 68.648 226.994 71.4481C227.828 73.2689 226.459 74.3378 224.915 74.5958ZM235.043 68.6365C235.149 68.866 235.23 69.083 235.323 69.3639L229.829 70.2824C230.293 71.0614 231.133 71.5304 232.312 71.3334C232.992 71.2196 233.541 70.8972 233.797 70.245L235.939 71.2542C235.473 72.304 234.568 72.9823 233.157 73.2182C230.236 73.7065 228.191 71.9728 227.286 69.999C226.403 68.0711 226.593 65.8321 229.415 65.3604C231.971 64.9331 234.034 66.4331 235.043 68.6365ZM229.09 68.7092L232.51 68.1376C232.098 67.3169 231.12 66.9368 230.19 67.0922C229.045 67.2836 228.909 68.0805 229.09 68.7092ZM241.021 71.9036C239.261 72.1978 237.473 71.3765 236.58 70.3234L238.02 69.292C238.436 69.7331 239.081 70.3995 240.193 70.2136C241.007 70.0776 241.13 69.6451 240.99 69.3391C240.457 68.1763 236.706 69.5446 235.451 66.8057C234.729 65.2298 235.918 64.2734 237.445 64.0181C238.905 63.774 240.279 64.2362 241.372 65.1407L240.052 66.3167C239.614 65.9452 238.98 65.4582 238.117 65.6025C237.569 65.694 237.366 65.9916 237.499 66.2823C237.989 67.3533 241.817 65.9558 243.1 68.7559C243.934 70.5767 242.565 71.6456 241.021 71.9036ZM245.945 61.4441L245.083 59.5621L247.407 59.1736L248.269 61.0556L245.945 61.4441ZM250.002 70.2212L246.546 62.6779L248.804 62.3005L252.259 69.8439L250.002 70.2212ZM255.612 60.9814C257.487 60.6678 259.043 61.5279 259.835 63.2569L262.099 68.1991L259.858 68.5737L257.895 64.2894C257.643 63.7386 257.152 62.6675 255.741 62.9034C254.048 63.1864 254.756 64.7318 255.254 65.8182L256.754 69.0926L254.496 69.4699L251.041 61.9266L253.298 61.5492L253.656 62.3296C253.931 61.5258 254.682 61.1367 255.612 60.9814ZM262.204 62.6797L261.244 60.5835L263.634 60.1839L264.594 62.2801L262.204 62.6797ZM264.545 67.7902L263.592 65.7093L265.982 65.3097L266.935 67.3906L264.545 67.7902Z" fill="white"/>
<path d="M211.532 184.427C212.297 184.273 212.946 184.604 213.294 185.302L214.288 187.296L213.375 187.48L212.513 185.751C212.402 185.529 212.187 185.097 211.612 185.213C210.922 185.351 211.233 185.975 211.451 186.413L212.11 187.735L211.19 187.92L209.673 184.876L210.592 184.691L210.749 185.006C210.851 184.673 211.154 184.503 211.532 184.427ZM215.697 187.013L213.138 184.178L214.112 183.982L215.517 185.636L215.194 183.765L215.972 183.608L217.398 185.244L217.054 183.39L218.035 183.193L218.504 186.448L217.693 186.611L216.178 184.871L216.523 186.847L215.697 187.013ZM220.127 186.121L217.981 181.818L218.935 181.626L219.775 183.311L221.723 182.919L220.882 181.234L221.836 181.042L223.982 185.345L223.028 185.537L222.12 183.716L220.172 184.108L221.08 185.929L220.127 186.121ZM224.761 181.764C225.674 181.58 226.464 181.924 226.827 182.653L227.787 184.579L226.949 184.748L226.705 184.41C226.623 184.766 226.306 184.952 225.968 185.02C225.244 185.166 224.511 184.845 224.212 184.246C224.034 183.888 224.08 183.593 224.314 183.39C224.481 183.247 224.73 183.15 225.068 183.081L225.948 182.904L225.914 182.837C225.775 182.559 225.463 182.425 225.084 182.501C224.786 182.561 224.561 182.735 224.429 183.068L223.513 182.695C223.71 182.193 224.166 181.884 224.761 181.764ZM225.772 184.299C226.198 184.213 226.424 183.875 226.255 183.522L225.505 183.673C225.315 183.711 225.199 183.762 225.146 183.834C225.089 183.899 225.085 183.982 225.132 184.074C225.224 184.259 225.461 184.361 225.772 184.299ZM229.989 184.211C228.859 184.438 227.944 183.753 227.55 182.962C227.15 182.16 227.28 181.257 228.396 181.032C229.08 180.895 229.755 181.085 230.313 181.652L229.604 182.141C229.386 181.852 229.057 181.701 228.76 181.761C228.239 181.866 228.272 182.335 228.49 182.773C228.706 183.205 229.088 183.584 229.609 183.479C229.906 183.419 230.051 183.186 229.977 182.875L230.95 183.005C231.01 183.618 230.665 184.075 229.989 184.211ZM231.966 183.738L229.82 179.435L230.74 179.249L231.925 181.627L232.457 180.29L233.681 180.043L233.029 181.452L235.327 183.061L234.238 183.281L232.651 182.126L232.442 182.664L232.886 183.553L231.966 183.738ZM236.828 182.834C236.111 182.978 235.368 182.666 234.987 182.247L235.563 181.805C235.74 181.98 236.013 182.244 236.466 182.153C236.798 182.086 236.842 181.907 236.781 181.784C236.547 181.314 235.028 181.926 234.477 180.821C234.16 180.185 234.634 179.777 235.256 179.652C235.851 179.532 236.42 179.703 236.881 180.058L236.356 180.558C236.171 180.412 235.905 180.221 235.553 180.292C235.33 180.337 235.251 180.461 235.309 180.578C235.525 181.011 237.074 180.386 237.637 181.516C238.004 182.251 237.457 182.707 236.828 182.834ZM241.518 180.946L243.338 180.579L243.732 181.37L240.417 182.037L240.079 181.358C240.623 180.793 241.644 179.616 241.164 178.653C240.991 178.307 240.676 178.078 240.25 178.164C239.696 178.276 239.768 178.764 239.941 179.157L239.011 179.276C238.626 178.504 238.792 177.567 239.867 177.351C240.74 177.175 241.643 177.598 242.055 178.426C242.474 179.265 242.166 180.306 241.518 180.946ZM246.176 180.946C244.654 181.252 243.831 179.944 243.387 179.054C242.953 178.184 242.427 176.815 243.935 176.512C245.383 176.22 246.24 177.447 246.711 178.392C247.192 179.355 247.596 180.66 246.176 180.946ZM245.762 180.146C246.418 180.014 246.109 179.288 245.761 178.59C245.397 177.862 245.005 177.18 244.336 177.314C243.673 177.448 243.973 178.155 244.337 178.884C244.684 179.581 245.086 180.282 245.762 180.146ZM249.646 179.31L251.465 178.943L251.859 179.734L248.545 180.401L248.207 179.722C248.751 179.157 249.772 177.98 249.292 177.017C249.119 176.671 248.804 176.442 248.378 176.528C247.823 176.64 247.896 177.128 248.069 177.521L247.139 177.64C246.754 176.868 246.92 175.931 247.995 175.715C248.868 175.539 249.771 175.962 250.183 176.79C250.602 177.629 250.294 178.67 249.646 179.31ZM254.501 177.211L255.251 177.06L255.648 177.857L254.898 178.008L255.403 179.021L254.49 179.204L253.985 178.192L251.827 178.626L251.581 178.132L252.465 174.876L253.257 174.717L254.501 177.211ZM252.58 177.598L253.587 177.395L252.941 176.099L252.58 177.598Z" fill="#564D4A"/>
<path d="M327.05 165.894C326.569 164.131 325.38 160.351 324.846 159.482L330.256 161.686L327.05 165.894Z" fill="#564D4A"/>
<path d="M313.962 146.997L125.033 184.059C123.13 184.433 121.232 183.389 120.528 181.581L106.422 145.358C105.507 143.009 106.961 140.41 109.441 139.961L297.928 105.82C299.755 105.489 301.571 106.457 302.314 108.158L316.862 141.461C317.888 143.81 316.476 146.504 313.962 146.997Z" fill="#D3CDCC" stroke="#564D4A" stroke-width="3.20566"/>
<path d="M315.352 143.99L311.545 142.588L121.81 180.455C122.451 182.218 123.413 182.725 124.215 182.659C186.525 170.437 312.627 145.713 313.749 145.393C315.152 144.992 314.951 144.591 315.352 143.99Z" fill="#AEAAA9"/>
<path d="M107.585 143.39C107.585 143.791 107.986 145.193 107.986 145.193L300.962 109.252C300.526 106.925 298.586 107.149 297.784 107.205C235.314 118.579 110.092 141.402 108.965 141.707C107.839 142.013 107.585 142.989 107.585 143.39Z" fill="#AEAAA9"/>
<path d="M315.753 142.588L300.526 108.128C300.386 107.807 299.666 107.393 299.324 107.326L297.721 109.73L311.545 142.588L315.352 143.991C315.552 143.791 315.886 142.922 315.753 142.588Z" fill="#8B8381"/>
<g opacity="0.3">
<path opacity="0.7" d="M170.948 173.107L135.686 180.119L192.787 126.023L221.838 121.015L170.948 173.107Z" fill="#DDD9D8"/>
<path opacity="0.7" d="M180.165 171.304L174.755 172.506L226.246 120.214L230.854 119.212L180.165 171.304Z" fill="#DDD9D8"/>
</g>
<path opacity="0.45" d="M256.069 273L321.711 289.429C321.711 289.429 330.636 298.343 321.711 301.37C312.786 304.398 301.015 302.909 301.015 302.909C284.118 308.062 276.305 306.515 274.101 302.909C272.942 301.012 275.772 299.718 278.716 298.918C265.903 298.736 239.501 287.078 217 277.877L256.069 273Z" fill="#031119"/>
<g filter="url(#filter2_i_62_15859)">
<path d="M215.08 260.816C215.08 262.053 215.916 262.446 217.068 262.446C218.221 262.446 219.156 261.85 219.156 260.612C219.156 259.374 218.221 258.371 217.068 258.371C215.916 258.371 215.08 259.578 215.08 260.816Z" fill="#876F5E"/>
<path d="M258.168 245.485C257.776 243.787 249.828 240.367 245.706 238.021L246.441 247.629L249.256 249.864C252.097 252.456 254.276 252.582 255.01 252.322C256.357 251.316 258.56 247.183 258.168 245.485Z" fill="#816C5D"/>
<path d="M256.964 275.787C256.964 272.987 252.449 266.006 250.191 262.866C245.891 262.866 237.291 264.508 237.291 271.076C237.291 277.645 240.946 280.633 242.774 281.306C247.504 280.633 256.964 278.587 256.964 275.787Z" fill="#876F5E"/>
<path d="M244.015 268.273C256.262 259.328 246.931 241.348 240.735 233.476L223.65 232.563C215.012 253.829 216.269 264.279 221.053 265.877C218.757 268.273 216.478 273.418 217.055 275.888C218.409 281.681 230.679 280.295 235.084 280.797C236.155 280.919 233.9 273.952 235.084 271.48C237.381 269.837 243.423 268.653 244.015 268.273Z" fill="#9F8A7B"/>
<path d="M244.837 267.749C258.426 263.383 245.742 240.351 242.758 240.531C240.355 240.653 238.602 243.818 238.093 245.334C235.552 254.923 235.396 270.782 244.837 267.749Z" fill="#C2A28A"/>
<path d="M235.068 281.097C232.156 282.379 224.344 280.42 219.659 278.894C216.671 278.146 216.253 277.09 217.294 272.166C217.269 271.709 217.256 271.224 217.255 270.711C217.251 268.122 217.5 264.738 218.071 260.461L250.915 258.458C251.721 261.653 251.686 262.441 251.716 265.67C251.721 266.17 254.922 270.711 254.922 270.711C257.668 273.393 257.323 276.602 256.618 277.09C253.007 280.235 243.665 282.137 241.899 281.097C238.894 279.329 236.582 277.09 236.503 274.03C236.526 273.594 236.552 273.129 236.582 272.632H235.068C235.098 273.133 235.12 273.598 235.135 274.03C235.246 277.163 236.015 279.722 235.068 281.097Z" fill="#A8C0CC"/>
<path d="M235.068 272.632C228.87 270.794 225.701 269.324 217.255 270.711M235.068 272.632H236.582M235.068 272.632C235.098 273.133 235.12 273.598 235.135 274.03M217.255 270.711C217.251 268.122 217.5 264.738 218.071 260.461L250.915 258.458C251.721 261.653 251.686 262.441 251.716 265.67M217.255 270.711C217.256 271.224 217.269 271.709 217.294 272.166M236.582 272.632C242.908 269.868 244.191 264.319 251.716 265.67M236.582 272.632C236.552 273.129 236.526 273.594 236.503 274.03M251.716 265.67C251.721 266.17 254.922 270.711 254.922 270.711M217.294 272.166C216.253 277.09 216.671 278.146 219.659 278.894C224.344 280.42 232.156 282.379 235.068 281.097C236.015 279.722 235.246 277.163 235.135 274.03M217.294 272.166C224.268 272.276 228.173 272.732 235.135 274.03M236.503 274.03C236.582 277.09 238.894 279.329 241.899 281.097C243.665 282.137 253.007 280.235 256.618 277.09C257.323 276.602 257.668 273.393 254.922 270.711M236.503 274.03C243.141 272.51 247.654 270.576 254.922 270.711" stroke="#809CAA" stroke-width="0.465886"/>
<path d="M220.421 237.158C230.27 240.249 235.738 240.63 244.996 236.692C246.627 235.761 249.364 237.279 250.82 240.133L247.911 242.52C249.089 245.448 249.701 247.511 250.471 250.785C250.759 251.98 250.9 252.641 251.111 253.814C251.111 253.814 238.439 256.254 228.021 255.653C217.603 255.052 216.053 253.814 216.053 253.814C216.165 252.632 216.271 251.969 216.519 250.785C217.043 247.669 217.454 245.647 218.196 242.924C218.373 242.273 218.569 241.582 218.79 240.827L220.421 237.158Z" fill="#A8C0CC"/>
<path d="M244.996 236.692C235.738 240.63 230.27 240.249 220.421 237.158L218.79 240.827M244.996 236.692L247.209 240.827M244.996 236.692C246.627 235.761 249.364 237.279 250.82 240.133L247.911 242.52M247.209 240.827C244.996 244.232 243.048 245.407 240.844 245.407M247.209 240.827C247.465 241.428 247.698 241.989 247.911 242.52M218.79 240.827C224.157 244.047 236.188 245.527 240.844 245.407M218.79 240.827C218.569 241.582 218.373 242.273 218.196 242.924C217.454 245.647 217.043 247.669 216.519 250.785M216.519 250.785C226.272 253.867 231.584 253.66 240.844 250.785M216.519 250.785C216.271 251.969 216.165 252.632 216.053 253.814C216.053 253.814 217.603 255.052 228.021 255.653C238.439 256.254 251.111 253.814 251.111 253.814C250.9 252.641 250.759 251.98 250.471 250.785M240.844 250.785V245.407M240.844 250.785H250.471M250.471 250.785C249.701 247.511 249.089 245.448 247.911 242.52" stroke="#809CAA" stroke-width="0.465886"/>
<path d="M220.185 259.644C221.263 259.258 229.235 248.339 229.696 245.682C230.157 243.025 224.887 242.276 222.082 242.276C219.277 242.276 212.789 252.664 212.789 255.337C213.413 256.41 219.107 260.03 220.185 259.644Z" fill="#9F826A"/>
<ellipse cx="4.47611" cy="4.54656" rx="4.47611" ry="4.54656" transform="matrix(-0.293054 0.956096 0.970941 0.239319 227.902 203.56)" fill="#876F5E"/>
<path d="M217.118 222.611C215.757 233.882 222.823 238.48 231.686 238.48C244.605 238.48 250.019 234.615 249.48 223.552C248.888 211.423 242.846 208.311 233.382 207.431C223.273 207.431 218.108 214.412 217.118 222.611Z" fill="#B7957B"/>
<ellipse cx="0.993595" cy="1.06685" rx="0.993595" ry="1.06685" transform="matrix(-0.99802 0.0629045 0.0853966 0.996347 239.135 219.657)" fill="#3F3D3B"/>
<mask id="mask1_62_15859" style="mask-type:alpha" maskUnits="userSpaceOnUse" x="217" y="207" width="33" height="32">
<path d="M217.215 222.606C215.854 233.877 222.92 238.475 231.783 238.475C244.702 238.475 250.116 234.61 249.576 223.547C248.985 211.419 242.943 208.306 233.479 207.426C223.37 207.426 218.205 214.407 217.215 222.606Z" fill="#CCBEB3"/>
</mask>
<g mask="url(#mask1_62_15859)">
<ellipse cx="0.993595" cy="1.06685" rx="0.993595" ry="1.06685" transform="matrix(-0.99802 0.0629045 0.0853966 0.996347 249.91 218.029)" fill="#3F3D3B"/>
</g>
<path d="M239.705 226.421C238.93 230.174 239.303 233.103 243.847 233.812C248.025 234.095 251.703 231.162 252.064 227.26C252.424 223.358 249.751 219.793 245.425 220.2C242.722 220.455 241.017 221.503 239.705 226.421Z" fill="#C9B19F"/>
<path d="M249.123 227.094C248.261 227.603 248.153 227.705 247.399 227.909" stroke="#3F3D3B" stroke-width="0.407507" stroke-linecap="round"/>
<path d="M249.441 227.195C249.983 227.5 250.091 227.601 250.521 227.703" stroke="#3F3D3B" stroke-width="0.407507" stroke-linecap="round"/>
<path d="M249.434 227.129C249.417 227.239 249.313 227.313 249.201 227.293C249.089 227.274 249.012 227.17 249.028 227.059L249.434 227.129ZM248.975 223.093C249.279 223.749 249.459 224.33 249.53 224.966C249.599 225.6 249.559 226.278 249.434 227.129L249.028 227.059C249.151 226.225 249.187 225.584 249.122 224.999C249.058 224.416 248.893 223.878 248.604 223.253L248.975 223.093Z" fill="#3F3D3B"/>
<path d="M247.075 223.019C247.075 223.638 247.847 224.343 248.799 224.343C249.752 224.343 250.523 223.638 250.523 223.019C250.523 222.4 249.752 222.102 248.799 222.102C247.847 222.102 247.075 222.4 247.075 223.019Z" fill="#3F3D3B"/>
<ellipse cx="4.47611" cy="4.54656" rx="4.47611" ry="4.54656" transform="matrix(-0.293054 0.956096 0.970941 0.239319 223.376 204.375)" fill="#B7957B"/>
<path d="M225.539 212.388C226.307 210.552 228.345 209.934 229.267 209.855C229.324 208.526 226.942 206.007 224.572 208.007C222.497 209.759 224.633 211.858 225.539 212.388Z" fill="#3F3D3B"/>
<path d="M231.293 248.84H210.444V265.67C210.59 268.564 213.342 270.014 220.868 272.426C228.529 270.315 230.677 268.814 231.293 265.67V248.84Z" fill="#434343"/>
<path d="M212.848 251.043H220.061V268.875L212.848 265.269V251.043Z" fill="#595454"/>
<g filter="url(#filter3_i_62_15859)">
<path d="M217.611 195.549C226.228 190.991 234.736 196.847 232.383 202.364L228.826 202.434C228.458 202.012 228.079 202.007 227.561 202.257C226.012 203.005 224.681 206.103 222.889 209.751C221.083 214.093 219.205 217.546 214.155 218.05C206.603 218.805 204.04 216.304 202.357 208.988C202.003 207.449 208.176 212.399 209.835 209.707C208.489 209.124 207.418 208.255 207.418 206.34C207.418 204.696 208.348 203.625 209.724 203.677C209.448 205.655 211.402 206.791 212.065 204.696C213.883 198.947 214.131 197.39 217.611 195.549Z" fill="#DCB551"/>
</g>
<path d="M232.593 197.96V199.6H236.203V197.96C235.21 196.776 233.676 196.685 232.593 197.96Z" fill="#969593"/>
<path d="M219.257 212.355C220.189 194.476 247.152 194.302 248.258 212.355H219.257Z" fill="#B5CBD7"/>
<path d="M224.669 206.166C226.116 203.561 227.874 203.361 229.076 202.159C230.279 200.956 226.672 201.958 225.069 203.962C223.466 205.965 223.221 208.77 224.669 206.166Z" fill="#F0E9E9"/>
<path d="M219.259 212.377L217.255 218.988C224.606 218.641 245.475 212.289 248.911 215.783L247.943 205.965C236.535 210.502 230.245 211.943 219.259 212.377Z" fill="#A8C0CC"/>
<path d="M240.897 208.57L239.294 215.182C240.096 214.981 247.308 213.979 248.911 215.783L247.942 205.965C245.104 207.167 240.897 208.57 240.897 208.57Z" fill="#809CAA"/>
<path d="M228.997 212.421L222.763 213.909C222.763 213.909 222.039 213.681 222.492 212.896C222.572 210.041 226.844 208.657 228.568 211.27L228.997 212.421Z" fill="#B0ACA5"/>
</g>
<path opacity="0.45" d="M462.288 323.372L309 281.352L380.591 277L523.351 302.457C523.351 302.457 516.332 317.849 500.049 323.372C483.765 328.896 462.288 323.372 462.288 323.372Z" fill="#031119"/>
<path d="M310.568 281.918C307.398 281.012 309.247 278.521 310.568 277.388C307.171 271.16 314.531 264.933 318.495 262.102C321.665 259.837 323.213 253.986 323.59 251.344L325.855 211.712C323.137 209.9 322.08 206.428 321.892 204.918C317.362 201.294 319.627 199.256 321.325 198.69L321.325 187.933L328.686 187.933L328.686 195.293C330.95 196.199 334.159 195.67 335.48 195.293L335.48 187.933L343.972 187.933L343.972 195.293C346.237 196.199 348.691 195.67 349.634 195.293L349.634 187.933L355.296 187.933L355.296 198.69C358.92 200.502 355.673 203.597 353.597 204.918C353.145 208.088 350.767 210.768 349.634 211.712C349.634 213.977 350.767 242.286 351.899 251.344C352.805 258.591 354.541 261.535 355.296 262.102C365.261 268.443 365.11 274.935 363.789 277.388C367.412 279.653 365.298 281.352 363.789 281.918C354.73 283.616 314.532 283.05 310.568 281.918Z" fill="#FEE9C1"/>
<path d="M312.371 281.918C309.114 281.405 311.05 278.521 312.371 277.388C308.974 271.16 316.334 264.933 320.298 262.102C323.468 259.837 325.016 253.986 325.393 251.344L327.658 211.712C324.94 209.9 323.883 206.428 323.695 204.918C319.165 201.294 321.43 199.256 323.129 198.69L323.129 187.933L330.489 187.933L330.489 195.293C332.754 196.199 335.962 195.67 337.283 195.293L337.283 187.933L345.776 187.933L345.776 195.293C348.04 196.199 350.494 195.67 351.437 195.293L351.437 187.933L357.099 187.933L357.099 198.69C360.723 200.502 357.477 203.597 355.401 204.918C354.948 208.088 352.57 210.768 351.437 211.712C351.437 213.977 352.57 242.285 353.702 251.344C354.608 258.591 356.344 261.535 357.099 262.102C367.064 268.443 366.913 274.935 365.592 277.388C369.215 279.653 367.102 281.352 365.592 281.918C356.533 283.616 323.695 283.702 312.371 281.918Z" fill="#809CAA"/>
<path d="M310.22 277.291C316.454 278.629 343.076 281.037 365.919 277.291" stroke="#436577" stroke-width="2.40424"/>
<path d="M339.271 283.304C335.374 283.304 349.17 278.524 350.491 277.391C353.135 275.125 353.702 271.966 349.761 267.101C347.309 264.074 346.023 253.989 346.401 251.347L345.228 211.715C349.208 209.496 349.397 205.699 349.208 204.189C349.505 203.968 349.763 203.723 349.982 203.464C351.411 201.773 351.243 199.432 349.982 198.693L349.982 195.675L351.437 195.296L351.437 187.936L357.099 187.936L357.099 198.693C360.723 200.505 357.476 203.6 355.4 204.921C354.948 208.091 352.57 210.771 351.437 211.715C351.437 213.98 352.57 242.288 353.702 251.347C354.608 258.594 356.344 261.538 357.099 262.105C367.064 268.446 366.913 274.938 365.592 277.391C369.215 279.656 367.101 281.355 365.592 281.921C356.533 283.619 343.393 283.304 339.271 283.304Z" fill="#436577"/>
<path d="M356.902 198.755C347.766 200.839 330.522 199.623 323.042 198.755H321.239C316.912 200.037 319.97 203.296 322.041 204.765C336.146 207.811 350.09 206.034 355.299 204.765C360.589 201.079 358.572 199.222 356.902 198.755Z" fill="#436577"/>
<path d="M336.694 199.796C336.741 200.397 322.021 200.71 321.655 198.48C321.29 196.25 322.159 197.354 322.616 197.465C323.074 197.575 326.236 198.542 327.824 198.78C332.799 199.525 336.646 199.195 336.694 199.796Z" fill="#FDEAC4"/>
<path opacity="0.45" d="M530.725 376.345L361 329.818L440.267 325L598.335 353.186C598.335 353.186 590.564 370.229 572.535 376.345C554.505 382.461 530.725 376.345 530.725 376.345Z" fill="#031119"/>
<path d="M360.911 326.878C360.851 325.088 362.825 324.573 363.82 324.54C360.559 316.435 366.326 310.267 373.71 307.778C373.685 307.032 375.797 303.227 378.73 301.634C383.864 298.848 382.878 295.52 382.929 293.278L382.502 280.598C382.301 274.63 379.267 273.239 377.725 271.797C376.183 270.356 370.166 269.065 373.074 266.727C375.401 264.856 379.463 264.271 381.204 264.212L381.103 261.229C379.611 261.279 371.13 253.35 376.025 243.477C380.22 235.015 396.311 233.833 401.386 242.623C406.462 251.413 400.422 258.338 396.768 260.701L396.868 263.685C398.36 263.635 402.861 264.23 405.149 265.646C406.979 266.779 405.978 268.107 405.249 268.63C397.592 271.875 395.845 277.659 395.929 280.145L396.356 292.826C396.532 298.048 399.566 299.439 402.625 301.576C405.072 303.286 406.248 305.686 406.531 306.672C417.895 311.517 419.613 318.18 416.805 323.502C419.789 323.401 420.088 324.885 419.865 325.639C418.97 328.656 414.984 328.542 413.252 328.849C399.9 331.539 369.267 331.077 366.258 330.432C363.339 329.806 360.987 329.116 360.911 326.878Z" fill="#FDEAC4"/>
<path d="M362.544 326.966C362.483 325.176 364.458 324.661 365.452 324.628C362.192 316.523 367.958 310.354 375.342 307.866C375.317 307.119 377.429 303.314 380.363 301.722C385.496 298.935 384.51 295.608 384.562 293.366L384.135 280.686C383.934 274.718 380.9 273.327 379.358 271.885C377.816 270.443 371.798 269.153 374.706 266.814C377.033 264.944 381.096 264.359 382.836 264.3L382.736 261.317C381.244 261.367 372.762 253.438 377.657 243.565C381.853 235.103 397.943 233.921 403.019 242.711C408.094 251.501 402.054 258.426 398.4 260.789L398.501 263.773C399.993 263.722 404.493 264.318 406.781 265.734C408.612 266.867 407.611 268.195 406.882 268.718C399.225 271.963 397.478 277.747 397.562 280.233L397.989 292.914C398.165 298.136 401.199 299.527 404.258 301.664C406.705 303.374 407.881 305.774 408.163 306.76C419.528 311.605 421.246 318.268 418.438 323.59C421.422 323.489 421.721 324.973 421.497 325.727C420.603 328.744 416.616 328.63 414.884 328.937C401.533 331.627 370.9 331.165 367.891 330.52C364.972 329.894 362.619 329.204 362.544 326.966Z" fill="#A8C0CC"/>
<mask id="mask2_62_15859" style="mask-type:alpha" maskUnits="userSpaceOnUse" x="362" y="236" width="60" height="96">
<path d="M362.544 326.966C362.484 325.176 364.458 324.661 365.453 324.628C362.193 316.523 367.959 310.354 375.343 307.866C375.318 307.119 377.43 303.314 380.363 301.722C385.497 298.935 384.511 295.608 384.563 293.366L384.135 280.686C383.934 274.718 380.9 273.327 379.358 271.885C377.816 270.443 371.799 269.153 374.707 266.814C377.034 264.944 381.096 264.359 382.837 264.3L382.736 261.317C381.244 261.367 372.763 253.438 377.658 243.565C381.853 235.103 397.944 233.921 403.019 242.711C408.095 251.501 402.055 258.426 398.401 260.789L398.501 263.773C399.993 263.722 404.494 264.318 406.782 265.734C408.612 266.867 407.611 268.195 406.882 268.718C399.225 271.963 397.478 277.747 397.562 280.233L397.989 292.914C398.165 298.136 401.199 299.527 404.258 301.664C406.705 303.374 407.881 305.774 408.164 306.76C419.528 311.605 421.246 318.268 418.439 323.59C421.422 323.489 421.721 324.973 421.498 325.727C420.604 328.744 416.617 328.63 414.885 328.937C401.533 331.627 370.9 331.165 367.891 330.52C364.972 329.894 362.62 329.204 362.544 326.966Z" fill="#809CAA"/>
</mask>
<g mask="url(#mask2_62_15859)">
<path d="M406.79 325.734C406.565 325.742 406.607 325.728 406.807 325.724C409.937 323.749 412.968 313.848 400.966 307.848C400.941 307.102 393.676 303.322 396.61 301.729C401.743 298.943 395.558 295.616 395.61 293.373L395.183 280.693C394.982 274.725 394.955 273.567 394.955 271.78C394.955 269.669 395.61 269.505 395.61 267.231C395.61 264.245 392.469 264.366 394.209 264.307L394.109 261.324C396.417 258.945 399.179 254.071 399.179 249.522C399.179 242.556 394.955 238.393 392.843 237.337C390.512 236.171 397.562 235.062 403.019 242.718C408.911 250.983 402.055 258.433 398.4 260.796L398.501 263.78C399.993 263.73 404.493 264.325 406.781 265.741C408.612 266.874 407.611 268.203 406.882 268.725C399.225 271.97 397.478 277.754 397.562 280.24L397.989 292.921C398.165 298.143 401.199 299.534 404.258 301.671C406.705 303.381 407.881 305.781 408.163 306.767C419.528 311.612 421.246 318.275 418.438 323.597C421.422 323.496 421.721 324.98 421.497 325.734C420.603 328.751 416.616 328.637 414.884 328.944C401.533 331.634 394.766 331.243 391.706 330.918C387.738 330.497 410.14 329.419 410.064 327.181C410.018 325.797 407.49 325.708 406.807 325.724C406.802 325.727 406.796 325.731 406.79 325.734Z" fill="#436577"/>
<path d="M398.576 263.867C393.928 264.508 385.086 264.535 381.346 264.267L381.145 261.262C387.717 262.544 395.437 261.329 398.576 260.661V263.867Z" fill="#436577"/>
<path d="M364.115 324.172C370.326 326.176 395.851 329.181 418.611 323.571" stroke="#436577" stroke-width="1.60283"/>
</g>
<path d="M20.9407 293.621C20.8581 291.495 23.2015 290.976 24.3835 290.983C20.4587 281.219 27.2753 274.171 36.0372 271.563C36.0028 270.677 38.4901 266.263 41.9673 264.511C48.0524 261.445 46.86 257.453 46.9077 254.796L46.3223 239.736C46.0468 232.649 42.4319 230.858 40.59 229.076C38.7481 227.294 31.587 225.483 35.0298 222.846C37.784 220.735 42.6097 220.231 44.6782 220.242L44.5405 216.699C42.7674 216.689 32.6369 206.89 38.3949 195.408C43.3303 185.567 62.4496 184.915 68.5365 195.576C74.6236 206.238 67.4866 214.169 63.1573 216.802L63.2951 220.346C65.0681 220.356 70.4216 221.271 73.1501 223.058C75.3328 224.487 74.1514 226.015 73.2878 226.601C64.2058 230.093 62.1648 236.872 62.2796 239.825L62.865 254.885C63.106 261.086 66.721 262.877 70.3703 265.554C73.2898 267.696 74.7025 270.597 75.044 271.78C88.5828 278.055 90.6657 286.038 87.3607 292.219C90.9067 292.239 91.2711 294.012 91.0101 294.896C89.9658 298.433 85.2262 298.112 83.1691 298.395C67.3151 300.964 30.899 298.99 27.3185 298.085C23.8449 297.206 21.044 296.278 20.9407 293.621Z" fill="#F9DFAC"/>
<path d="M19.2808 298.261C21.8852 299.022 20.2103 299.326 22.317 299.526C27.9341 302.412 38.1805 303.038 57.2358 305.491C58.3211 305.808 68.487 307.844 76.9773 309.079C91.8353 311.239 94.8693 312.49 98.3939 313.467L116.842 318.855C125.523 321.391 121.374 321.425 120.384 321.758C119.395 322.092 108.925 321.524 118.5 323.076C126.16 324.317 135.449 325.329 139.136 325.679L143.476 326.947C140.316 326.647 134.873 328.481 160.041 333.654C181.612 338.087 216.67 341.603 213.76 338.76C210.85 335.918 187.812 331.803 176.656 330.101L172.315 328.833C175.475 329.134 183.87 329.718 186.44 329.534C188.496 329.388 184.403 328.628 182.099 328.266C161.327 325.436 148.899 322.616 145.282 321.559L126.834 316.17C119.238 313.951 123.387 313.918 126.452 313.568C128.903 313.288 127.676 312.473 126.755 312.1C142.859 312.134 136.253 309.582 122.336 306.762C128.656 307.363 127.013 306.779 125.401 306.412C118.954 304.943 70.4737 297.053 66.4253 296.597C34.7299 292.942 24.5672 295.22 19.3324 294.936C14.254 294.661 16.0253 297.31 19.2808 298.261Z" fill="#172E3B"/>
<path d="M22.5579 293.593C22.4753 291.466 24.8187 290.948 26.0007 290.955C22.0758 281.19 28.8925 274.143 37.6544 271.535C37.6199 270.649 40.1073 266.234 43.5845 264.482C49.6696 261.416 48.4772 257.424 48.5249 254.767L47.9395 239.708C47.664 232.621 44.049 230.829 42.2071 229.048C40.3652 227.266 33.2042 225.455 36.647 222.817C39.4012 220.707 44.0674 220.555 46.136 220.566L46.1577 216.67C44.3846 216.661 34.2541 206.862 40.0121 195.38C44.9475 185.539 64.0668 184.886 70.1537 195.548C76.2408 206.21 69.1038 214.141 64.7745 216.774L64.9123 220.317C66.6853 220.327 72.0388 221.243 74.7673 223.029C76.95 224.459 75.7686 225.987 74.905 226.573C65.8229 230.065 63.782 236.844 63.8968 239.797L64.4822 254.856C64.7232 261.057 68.3381 262.849 71.9875 265.526C74.907 267.668 76.3197 270.569 76.6611 271.752C90.1999 278.027 92.2829 286.009 88.9779 292.191C92.5239 292.21 92.8883 293.984 92.6272 294.868C91.583 298.405 86.8434 298.083 84.7863 298.367C68.9323 300.936 32.5162 298.962 28.9357 298.056C25.4621 297.178 22.6612 296.25 22.5579 293.593Z" fill="#A8C0CC"/>
<mask id="mask3_62_15859" style="mask-type:alpha" maskUnits="userSpaceOnUse" x="22" y="187" width="71" height="113">
<path d="M22.5589 293.593C22.4763 291.466 24.8197 290.948 26.0017 290.955C22.0768 281.19 28.8935 274.143 37.6554 271.535C37.6209 270.649 40.1083 266.234 43.5855 264.482C49.6706 261.416 48.4782 257.424 48.5258 254.767L47.9405 239.708C47.665 232.621 44.05 230.829 42.2081 229.048C40.3662 227.266 33.2052 225.455 36.648 222.817C39.4022 220.707 44.0684 220.555 46.137 220.566L46.1586 216.67C44.3856 216.661 34.2551 206.862 40.0131 195.38C44.9485 185.539 64.0678 184.886 70.1547 195.548C76.2418 206.21 69.1048 214.141 64.7755 216.774L64.9132 220.317C66.6863 220.327 72.0398 221.243 74.7682 223.029C76.951 224.459 75.7695 225.987 74.906 226.573C65.8239 230.065 63.783 236.844 63.8978 239.797L64.4832 254.856C64.7242 261.057 68.3391 262.849 71.9885 265.526C74.908 267.668 76.3207 270.569 76.6621 271.752C90.2009 278.027 92.2839 286.009 88.9789 292.191C92.5249 292.21 92.8893 293.984 92.6282 294.868C91.584 298.405 86.8444 298.083 84.7873 298.367C68.9333 300.936 32.5172 298.962 28.9367 298.056C25.4631 297.178 22.6622 296.25 22.5589 293.593Z" fill="#D3E3EB"/>
</mask>
<g mask="url(#mask3_62_15859)">
<path d="M79.0464 296.062C78.9638 293.936 73.3587 292.114 74.5407 292.12C78.2557 289.954 82.441 280.398 68.1131 272.708C68.0787 271.822 59.4199 267.001 62.8971 265.249C68.9822 262.183 61.6099 257.949 61.6575 255.292L61.0721 240.232C60.7967 233.146 60.7576 231.771 60.7466 229.651C60.7337 227.147 61.5113 226.984 61.4974 224.286C61.4791 220.745 57.7458 220.742 59.8143 220.754L59.6766 217.21C62.4061 214.496 65.6594 208.844 65.6315 203.449C65.5888 195.187 60.5421 190.053 58.0251 188.702C55.2467 187.211 63.6204 186.224 70.154 195.558C77.2081 205.635 69.1041 214.151 64.7748 216.784L64.9126 220.328C66.6856 220.337 72.0392 221.253 74.7676 223.039C76.9503 224.469 75.7689 225.997 74.9053 226.583C65.8233 230.075 63.7823 236.854 63.8971 239.807L64.4825 254.866C64.7235 261.067 68.3385 262.859 71.9878 265.536C74.9073 267.678 76.3201 270.579 76.6615 271.762C90.2003 278.037 92.2832 286.019 88.9782 292.201C92.5243 292.221 92.8886 293.994 92.6276 294.878C91.5833 298.415 86.8437 298.093 84.7867 298.377C68.9327 300.946 60.8859 300.167 57.2464 299.639C52.5278 298.955 79.1497 298.72 79.0464 296.062Z" fill="#436577"/>
<path d="M65.1603 220.553C59.5239 221.154 48.8603 220.777 44.3637 220.262L44.27 216.422C52.1311 218.362 61.5002 217.173 65.318 216.468L65.1603 220.553Z" fill="#436577"/>
<path d="M42.6488 291.963C41.9585 291.924 41.367 292.451 41.3277 293.142C41.2884 293.832 41.8162 294.424 42.5065 294.463L42.6488 291.963ZM42.5065 294.463C52.1894 295.014 71.4306 296.806 89.4157 289.802L88.5071 287.469C71.1235 294.238 52.4637 292.522 42.6488 291.963L42.5065 294.463Z" fill="#436577"/>
<path d="M38.1639 291.395C38.8509 291.474 39.3442 292.095 39.2656 292.782C39.1871 293.469 38.5665 293.962 37.8795 293.883L38.1639 291.395ZM37.8795 293.883C32.1022 293.223 28.7939 292.661 26.223 292.049C23.6785 291.444 21.8322 290.779 19.155 289.98L19.8707 287.58C22.6934 288.422 24.3458 289.029 26.8028 289.613C29.2336 290.192 32.4298 290.74 38.1639 291.395L37.8795 293.883Z" fill="#F9DFAC"/>
</g>
<path d="M48.3341 226.498C48.3299 227.249 35.309 227.176 35.1566 224.384C35.0042 221.592 35.5482 223.31 36.0826 223.148C37.3277 224.396 39.1963 224.605 40.5799 224.952C44.9157 226.038 48.3383 225.746 48.3341 226.498Z" fill="#F9DFAC"/>
<path d="M-39.5407 326.321C-40.2033 324.296 -37.5551 322.682 -36.1482 322.128C-41.4901 313.339 -30.4282 303.349 -24.2296 299.452C-22.5216 295.25 -21.6652 292.728 -17.4304 288.54C-11.427 282.603 -9.14764 263.317 -9.65293 253.206L-9.57326 238.887C-11.591 238.202 -15.4427 234.081 -17.1164 232.107C-19.0786 231.534 -22.6633 229.886 -21.3044 227.872C-19.9455 225.858 -17.918 224.802 -17.0742 224.526C-17.0592 221.831 -14.2416 220.049 -12.8346 219.496L-11.9314 208.551C-14.4458 206.29 -19.2958 199.918 -18.5807 192.51C-17.6869 183.249 -14.299 179.899 -9.2218 175.715C-5.16007 172.369 -2.42569 165.365 -1.56622 162.281C-4.08371 160.582 -4.91194 158.051 -4.05091 154.686C-2.75936 149.64 1.03094 149.661 2.71551 149.67C5.06799 149.683 8.59748 152.23 8.57873 155.599C8.55999 158.968 7.70833 160.648 6.01438 162.323C6.00032 164.85 8.4897 171.602 12.6777 175.837C16.8657 180.072 21.9007 183.469 22.6915 192.739C23.324 200.155 17.2773 207.029 14.1748 209.538L14.1186 219.646C18.8279 221.02 19.4312 223.606 19.1442 224.728C20.5465 225.016 23.3482 226.099 23.3369 228.12C23.3257 230.142 19.9475 231.751 18.2598 232.303C18.2485 234.325 14.2994 237.616 12.3262 239.009L12.2466 253.328L12.2445 253.693C12.1867 263.859 12.0873 281.331 20.4726 288.751C27.1781 294.684 27.4355 298.897 27.15 299.738C42.5844 311.279 40.7965 319.749 37.9733 322.541C39.6578 322.55 43.8505 325.943 41.3143 327.613C38.7781 329.284 32.0304 330.931 -0.818887 330.748C-33.6681 330.565 -38.7125 328.853 -39.5407 326.321Z" fill="#F9DFAC"/>
<path d="M-101.524 317.22C-100.393 317.787 -92.9243 318.681 -89.3311 319.058C-89.5215 321.175 -54.3097 325.968 -36.6801 328.1C-27.9586 329.706 -23.0729 330.646 -9.14365 332.6C10.6024 335.369 39.135 341.965 50.577 345.186L68.426 349.858C65.0998 349.8 62.2244 350.605 61.2025 351.015C57.852 350.928 52.4754 350.965 57.7727 351.81C63.07 352.655 68.5661 353.281 70.652 353.489C74.0118 354.368 82.038 355.341 85.6311 355.717L101.016 359.406C98.6084 359.791 96.4498 361.19 107.078 363.702C120.363 366.841 131.507 368.404 147.172 370.473C159.704 372.128 174.008 374.789 179.594 375.913C176.486 376.115 177.9 376.824 183.836 378.039C192.739 379.862 200.551 380.383 204.022 380.615C208.871 380.938 213.024 380.601 208.824 379.501C204.624 378.402 200.789 377.736 195.217 376.955C192.067 376.13 188.875 374.279 192.305 373.484C195.735 372.688 201.95 372.284 192.137 369.376C184.286 367.05 163.294 363.97 153.779 362.721L141.18 359.423C149.221 359.632 147.274 358.874 145.296 358.468C147.839 358.57 152.295 358.608 149.775 357.948C147.255 357.288 138.282 356.294 134.11 355.879C131.59 355.219 119.36 353.598 113.559 352.869L95.7104 348.197C83.1111 344.899 60.6977 339.073 68.9718 337.811C75.5094 336.813 70.8383 335.478 69.2097 335.164C86.8687 333.557 60.8604 329.91 51.5711 328.607L51.5675 328.607C55.0393 328.838 47.7967 324.468 40.4891 323.571C33.1815 322.674 40.7772 325.689 -26.9228 321.173C-94.6228 316.656 -102.938 316.511 -101.524 317.22Z" fill="#172E3B"/>
<path d="M-37.3615 326.333C-38.0241 324.308 -35.3759 322.694 -33.969 322.14C-39.3109 313.35 -28.249 303.36 -22.0504 299.464C-20.3424 295.262 -19.486 292.74 -15.2512 288.552C-9.24778 282.615 -6.96844 263.328 -7.47373 253.218L-7.39406 238.899C-9.41181 238.214 -13.2635 234.093 -14.9372 232.118C-16.8994 231.546 -20.4841 229.897 -19.1252 227.883C-17.7663 225.869 -15.7388 224.814 -14.895 224.538C-14.88 221.842 -12.0624 220.061 -10.6554 219.507L-9.75223 208.562C-12.2666 206.302 -17.1166 199.93 -16.4015 192.521C-15.5077 183.261 -12.1198 179.91 -7.0426 175.727C-2.98087 172.381 -0.24649 165.376 0.61298 162.293C-1.90451 160.594 -2.73274 158.063 -1.87171 154.698C-0.580158 149.651 3.21014 149.673 4.89472 149.682C7.24719 149.695 10.7767 152.242 10.7579 155.611C10.7392 158.98 9.88753 160.66 8.19358 162.335C8.17952 164.862 10.6689 171.614 14.8569 175.849C19.0449 180.084 24.0799 183.481 24.8706 192.751C25.5032 200.167 19.4565 207.04 16.354 209.55L16.2978 219.657C21.0071 221.031 21.6104 223.618 21.3234 224.739C22.7257 225.028 25.5274 226.11 25.5161 228.132C25.5049 230.153 22.1267 231.763 20.439 232.315C20.4277 234.337 16.4786 237.628 14.5054 239.021L14.4258 253.34L14.4237 253.705C14.3659 263.87 14.2665 281.343 22.6518 288.763C29.3573 294.696 29.6147 298.909 29.3292 299.75C44.7636 311.291 42.9757 319.761 40.1525 322.553C41.837 322.562 46.0297 325.954 43.4935 327.625C40.9573 329.296 34.2096 330.943 1.36031 330.76C-31.4889 330.577 -36.5333 328.864 -37.3615 326.333Z" fill="#A8C0CC"/>
<path d="M21.063 224.794C9.39219 227.62 -7.91433 226.047 -15.1087 224.907C-23.1182 227.896 -18.4293 230.874 -15.0842 232.098C5.84328 234.865 16.5183 232.943 20.4362 231.551C22.3224 230.818 25.9588 229.485 25.4292 227.395C24.8997 225.305 22.2977 224.79 21.063 224.794Z" fill="#436577"/>
<path d="M7.22738 327.425C7.25196 323.006 -1.28625 322.885 0.120693 322.331C24.8557 322.469 20.0765 306.116 12.0393 299.655C13.7473 295.453 5.31271 293.548 8.75387 288.687C10.6669 285.984 8.47275 278.846 8.61483 253.309L8.69449 238.99C6.52603 236.347 12.5747 235.803 12.5869 233.62C14.9444 232.458 17.3579 232.121 17.3748 229.071C17.3918 226.02 12.6218 227.355 12.633 225.34C12.648 222.645 8.23235 220.176 9.63929 219.622L10.5425 208.677C8.02813 206.417 14.1065 201.963 14.1654 191.383C14.2171 182.08 2.99373 179.996 8.07089 175.813C12.1326 172.466 5.57779 165.305 5.26061 161.945C8.46157 160.115 8.47745 157.261 8.48669 155.6C8.50548 152.223 3.20989 149.674 4.89447 149.683C7.24695 149.697 10.7764 152.243 10.7577 155.612C10.7389 158.981 9.88727 160.661 8.19332 162.337C8.17926 164.863 10.6686 171.616 14.8567 175.851C19.0447 180.085 24.0796 183.483 24.8704 192.753C25.503 200.169 19.4562 207.042 16.3538 209.552L16.2975 219.659C21.0069 221.033 21.6102 223.619 21.3232 224.741C22.7254 225.029 25.5271 226.112 25.5159 228.133C25.5046 230.155 22.1264 231.765 20.4387 232.317C20.4274 234.338 16.4783 237.629 14.5052 239.022L14.4255 253.341L14.4235 253.706C14.3656 263.872 14.2663 281.344 22.6516 288.764C29.3571 294.698 29.6144 298.911 29.329 299.751C44.7633 311.293 42.9754 319.762 40.1522 322.554C41.8368 322.564 46.0295 325.956 43.4932 327.627C40.957 329.297 34.2093 330.944 1.36007 330.761C-10.7925 330.694 7.21256 330.088 7.22738 327.425Z" fill="#436577"/>
<path d="M-31.9536 322.059C-20.752 323.108 7.83001 324.648 32.5446 322.418" stroke="#436577" stroke-width="2.50406"/>
</g>
<defs>
<filter id="filter0_i_62_15859" x="-38.8398" y="44.6172" width="157.925" height="188.317" filterUnits="userSpaceOnUse" color-interpolation-filters="sRGB">
<feFlood flood-opacity="0" result="BackgroundImageFix"/>
<feBlend mode="normal" in="SourceGraphic" in2="BackgroundImageFix" result="shape"/>
<feColorMatrix in="SourceAlpha" type="matrix" values="0 0 0 0 0 0 0 0 0 0 0 0 0 0 0 0 0 0 127 0" result="hardAlpha"/>
<feOffset dx="2.80495" dy="0.601061"/>
<feComposite in2="hardAlpha" operator="arithmetic" k2="-1" k3="1"/>
<feColorMatrix type="matrix" values="0 0 0 0 0.975575 0 0 0 0 0.875316 0 0 0 0 0.674797 0 0 0 1 0"/>
<feBlend mode="normal" in2="shape" result="effect1_innerShadow_62_15859"/>
</filter>
<filter id="filter1_i_62_15859" x="53.741" y="0.421387" width="215.894" height="65.1431" filterUnits="userSpaceOnUse" color-interpolation-filters="sRGB">
<feFlood flood-opacity="0" result="BackgroundImageFix"/>
<feBlend mode="normal" in="SourceGraphic" in2="BackgroundImageFix" result="shape"/>
<feColorMatrix in="SourceAlpha" type="matrix" values="0 0 0 0 0 0 0 0 0 0 0 0 0 0 0 0 0 0 127 0" result="hardAlpha"/>
<feOffset dx="0.801415" dy="0.400707"/>
<feComposite in2="hardAlpha" operator="arithmetic" k2="-1" k3="1"/>
<feColorMatrix type="matrix" values="0 0 0 0 0.97609 0 0 0 0 0.901595 0 0 0 0 0.724667 0 0 0 1 0"/>
<feBlend mode="normal" in2="shape" result="effect1_innerShadow_62_15859"/>
</filter>
<filter id="filter2_i_62_15859" x="202.342" y="193.915" width="55.8718" height="87.8301" filterUnits="userSpaceOnUse" color-interpolation-filters="sRGB">
<feFlood flood-opacity="0" result="BackgroundImageFix"/>
<feBlend mode="normal" in="SourceGraphic" in2="BackgroundImageFix" result="shape"/>
<feColorMatrix in="SourceAlpha" type="matrix" values="0 0 0 0 0 0 0 0 0 0 0 0 0 0 0 0 0 0 127 0" result="hardAlpha"/>
<feOffset dx="0.200354" dy="0.601061"/>
<feComposite in2="hardAlpha" operator="arithmetic" k2="-1" k3="1"/>
<feColorMatrix type="matrix" values="0 0 0 0 1 0 0 0 0 0.930479 0 0 0 0 0.791436 0 0 0 1 0"/>
<feBlend mode="normal" in2="shape" result="effect1_innerShadow_62_15859"/>
</filter>
<filter id="filter3_i_62_15859" x="202.342" y="193.915" width="30.4382" height="24.2642" filterUnits="userSpaceOnUse" color-interpolation-filters="sRGB">
<feFlood flood-opacity="0" result="BackgroundImageFix"/>
<feBlend mode="normal" in="SourceGraphic" in2="BackgroundImageFix" result="shape"/>
<feColorMatrix in="SourceAlpha" type="matrix" values="0 0 0 0 0 0 0 0 0 0 0 0 0 0 0 0 0 0 127 0" result="hardAlpha"/>
<feOffset dx="0.400707"/>
<feComposite in2="hardAlpha" operator="arithmetic" k2="-1" k3="1"/>
<feColorMatrix type="matrix" values="0 0 0 0 0.996712 0 0 0 0 0.922102 0 0 0 0 0.730246 0 0 0 1 0"/>
<feBlend mode="normal" in2="shape" result="effect1_innerShadow_62_15859"/>
</filter>
<clipPath id="clip0_62_15859">
<rect width="414" height="387" fill="white"/>
</clipPath>
</defs>
</svg>
