<svg width="414" height="439" viewBox="0 0 414 439" fill="none" xmlns="http://www.w3.org/2000/svg">
<g clip-path="url(#clip0_62_16988)">
<path d="M80.5363 427.602V414.359L72.0883 411.391C84.3264 407.738 94.0835 408.955 97.4322 410.021L120.036 417.572V404.313C115.926 402.943 104.995 398.895 97.4322 396.566C89.6679 394.175 80.0035 396.093 75.5131 397.235C62.179 399.792 58.9977 403.628 59.0738 405.226V418.469C59.0738 420.113 61.3571 421.133 62.4987 421.437L80.5363 427.602Z" fill="#647B8A"/>
<path d="M-85 395.99V382.865L39.6647 425.105V438.348L-85 395.99Z" fill="#E4EDF2"/>
<path d="M80.7629 427.616V414.373L39.4363 425.104V438.347L80.7629 427.616Z" fill="#587284"/>
<path d="M152 409.123V396.108L120.035 404.328V417.571L152 409.123Z" fill="#587284"/>
<path d="M62.6599 367.241V380.256L96.4518 391.9L113.165 384.782C115.905 384.052 116.59 382.499 116.59 381.814V369.716C116.59 367.539 116.209 366.707 115.706 366.195C114.74 365.212 106.663 362.581 101.247 361.762C92.1767 360.39 85.34 360.924 82.9807 361.762L62.6599 367.241Z" fill="#5B7180"/>
<path d="M26.422 354.096L-85 382.864L-48.3953 395.354L-13.0314 407.762L39.6647 425.104L80.763 414.373L61.5838 407.752C58.4634 406.23 56.5607 402.089 73.9133 397.706C78.0231 396.488 88.2063 394.509 96.0607 396.336C96.6696 396.488 98.5723 397.021 101.312 397.934C104.052 398.847 114.935 402.576 120.035 404.327L152 396.107L26.422 354.096Z" fill="#AECBDE"/>
<path d="M150.759 396.284L98.9543 378.602L107.33 376.431C115.706 374.259 120.452 367.224 111.983 362.471C104.848 358.468 93.0603 358.439 78.7907 362.471L62.97 366.475L26.6755 354.095L-3.1046 361.85C6.5119 365.263 10.8569 366.784 11.4753 367.124C19.8509 371.731 11.8889 377.981 6.8221 379.532C-6.57895 383.751 -19.8559 382.221 -23.2682 381.083L-45.2931 373.018L-84.9999 383.255L4.03023 388.839L39.3941 425.134L62.97 396.284L95.542 392.562L150.759 396.284Z" fill="#AECBDE"/>
<path opacity="0.4" fill-rule="evenodd" clip-rule="evenodd" d="M72.2767 411.483L75.0686 410.553C75.2541 409.068 74.6174 407.584 73.1255 406.603L75.9991 397.214L64.4949 390.122C65.3363 389.284 65.76 388.465 65.8746 387.786L62.4623 383.133C57.9652 381.94 52.6253 383.157 45.6646 384.743L45.6643 384.743C44.0212 385.117 42.2878 385.512 40.4539 385.901C38.4014 386.336 35.1431 385.658 32.0631 385.018C25.617 383.677 19.9521 382.499 27.759 392.024C27.759 392.024 29.2278 392.83 32.8162 394.651C34.9212 395.719 39.9551 395.85 45.2597 395.456L60.4886 403.418L61.4192 407.761L63.8766 408.484L72.2767 411.483Z" fill="#071821"/>
<g filter="url(#filter0_i_62_16988)">
<path d="M62.6599 385.736C60.4884 391.009 53.9101 392.561 43.1167 392.561C35.9819 392.561 25.1245 390.389 23.5735 385.736V378.382C26.3615 374.511 34.7514 374.568 43.1167 374.568C51.0171 374.568 59.5792 375.049 62.6599 378.583V385.736Z" fill="#B2913C"/>
<ellipse cx="43.1167" cy="378.291" rx="19.5432" ry="7.44503" fill="#DCB551"/>
<path d="M55.2149 377.797L49.1658 351.613H36.8436L31.0186 377.797C31.0186 377.797 35.9474 380.773 43.3408 380.773C50.7341 380.773 55.2149 377.797 55.2149 377.797Z" fill="#B2913C"/>
<ellipse cx="43.1163" cy="343.388" rx="10.6934" ry="10.3882" fill="#DCB551"/>
</g>
<path d="M347.612 239.736V228.632L340.528 226.143C350.791 223.079 358.973 224.1 361.781 224.994L380.735 231.325V220.207C377.289 219.059 368.123 215.664 361.781 213.711C355.27 211.706 347.166 213.315 343.4 214.272C332.219 216.416 329.551 219.633 329.615 220.973V232.078C329.615 233.456 331.53 234.312 332.487 234.567L347.612 239.736Z" fill="#647B8A"/>
<path d="M244.489 205.084V193.979L237.405 191.49C247.667 188.427 255.849 189.448 258.657 190.341L277.612 196.673V185.555C274.166 184.406 264.999 181.011 258.657 179.058C252.147 177.053 244.179 178.871 240.277 179.619C229.096 181.764 226.428 184.98 226.492 186.321V197.425C226.492 198.804 228.406 199.659 229.364 199.914L244.489 205.084Z" fill="#E9F5FD"/>
<path d="M347.803 239.748V228.644L313.373 237.407V248.332L347.803 239.748Z" fill="#587284"/>
<path d="M407.538 224.241V213.328L380.734 220.221V231.325L407.538 224.241Z" fill="#587284"/>
<path d="M302.235 178.098L208.802 202.029L239.497 212.434L268.891 214.255L278.516 219.978L269.151 222.839L313.373 237.407L347.803 228.643L331.72 223.091C329.103 221.815 327.508 218.343 342.059 214.667C345.505 213.646 354.044 211.986 360.631 213.518C361.141 213.646 362.737 214.092 365.034 214.858C367.332 215.624 376.458 218.751 380.734 220.219L407.539 213.327L302.235 178.098Z" fill="#91B5CE"/>
<path d="M208.802 213.036V202.03L239.497 212.243V223.168L208.802 213.036Z" fill="#E9F5FD"/>
<path d="M276.832 205.959C288.013 208.103 290.681 211.319 290.617 212.66C290.572 213.93 287.88 217.238 277.475 220.305C273.574 214.843 256.612 218.111 253.804 219.005L239.497 223.012V212.241C242.358 211.461 252.243 208.86 258.746 207.299C265.371 205.709 273.053 205.234 276.832 205.959Z" fill="#C9D9E4"/>
<path d="M269.151 233.766V222.841L313.373 237.408V248.333L269.151 233.766Z" fill="#E9F5FD"/>
<path d="M302.235 178.098L208.802 202.222L239.497 212.434L246.78 210.614C258.226 208.012 265.744 207.316 274.354 208.272C283.718 209.313 290.482 217.377 275.134 221.019L268.891 222.839L313.34 237.642L347.803 228.643L321.957 225.181L334.443 211.394L361.236 210.093L380.734 220.219L407.539 213.327L302.235 178.098Z" fill="#91B5CE"/>
<path d="M238.979 179.572C227.797 181.716 226.429 184.562 226.493 185.902C226.486 186.734 228.398 189.007 236.107 191.442L243.191 193.931L277.215 185.382C273.769 184.233 264.828 180.832 258.486 178.879C251.976 176.874 242.881 178.823 238.979 179.572Z" fill="#91B5CE"/>
<path d="M159.687 323.802V312.697L152.603 310.208C162.866 307.144 171.047 308.166 173.856 309.059L192.81 315.391V304.273C189.364 303.124 180.198 299.729 173.856 297.776C167.345 295.771 159.378 297.589 155.475 298.337C144.294 300.482 141.626 303.698 141.69 305.038V316.143C141.69 317.522 143.605 318.377 144.562 318.632L159.687 323.802Z" fill="#647B8A"/>
<path d="M154.177 298.288C142.995 300.433 141.627 303.279 141.691 304.619C141.684 305.451 143.51 307.642 151.305 310.159L160.158 312.845L192.414 304.099C188.967 302.95 180.027 299.549 173.685 297.596C167.174 295.591 158.079 297.54 154.177 298.288Z" fill="#89ABC2"/>
<path d="M322.737 343.638V332.725L294.383 339.896V350.562L322.737 343.638Z" fill="#7894A8"/>
<path d="M124 332.627V321.621L151.573 330.793V340.418L124 332.627Z" fill="#6A8394"/>
<path d="M190.112 354.252V343.327C190.112 343.327 196.055 344.06 194.754 338.857C193.454 333.655 174.204 332.614 165.506 335.523L151.053 339.53L151.316 330.367C154.206 329.587 163.929 326.466 170.499 324.905C177.191 323.315 184.965 321.52 188.769 322.477C200.064 324.621 202.295 326.205 202.558 329.327V339.732C202.558 341.111 200.761 342.517 199.794 342.772L190.112 354.252Z" fill="#5B7180"/>
<path d="M188.771 353.683V343.798L228.571 356.804V367.99L188.771 353.683Z" fill="#6A8394"/>
<path d="M264.469 357.846V347.701L228.571 356.806V367.991L264.469 357.846Z" fill="#587284"/>
<path d="M263.688 347.961L228.538 357.041L188.772 343.799L193.714 341.718C201.518 338.336 201.518 330.161 190.072 326.89C182.4 324.698 175.505 324.809 164.06 327.411L151.573 330.792L124 321.62L186.43 323.769L203.079 317.786L215.044 312.323L217.433 297.496L243.398 306.34C241.959 306.861 238.56 307.797 235.855 311.543C233.149 315.289 234.034 319.607 241.837 322.468C245.727 323.895 259.786 326.89 271.232 323.769L283.718 319.607L322.737 332.725L295.932 339.618L263.688 347.961Z" fill="#89ABC2"/>
<path d="M247.821 308V318.913L276.157 328.678L290.172 322.709C292.469 322.096 293.043 320.794 293.043 320.22V310.075C293.043 309.003 292.724 307.552 292.302 307.122C291.493 306.298 284.719 304.092 280.178 303.405C272.572 302.254 266.839 302.703 264.861 303.405L247.821 308Z" fill="#5B7180"/>
<path d="M321.697 332.613L278.255 317.786L285.279 315.965C292.302 314.144 296.282 308.244 289.181 304.259C283.198 300.902 273.313 300.877 261.347 304.259L248.081 307.616L217.646 297.235L192.674 303.738L157.296 313.103L124 321.687L198.657 326.37L228.311 356.805L248.081 332.613L275.394 329.491L321.697 332.613Z" fill="#89ABC2"/>
<path d="M371.95 334.725V323.621L364.866 321.132C375.129 318.068 383.31 319.089 386.119 319.983L405.073 326.314V315.196C401.627 314.048 392.461 310.653 386.119 308.7C379.608 306.695 371.641 308.513 367.738 309.261C356.557 311.405 353.889 314.622 353.953 315.962V327.067C353.953 328.445 355.868 329.301 356.825 329.556L371.95 334.725Z" fill="#647B8A"/>
<path d="M366.44 309.213C355.258 311.358 353.89 314.204 353.954 315.544C353.947 316.376 355.859 318.648 363.568 321.084L370.652 323.573L404.677 315.024C401.23 313.875 392.29 310.474 385.947 308.521C379.437 306.516 370.342 308.465 366.44 309.213Z" fill="#89ABC2"/>
<path d="M404.156 314.404V325.85L411.847 328.673C401.585 331.736 393.403 330.715 390.595 329.822L371.64 323.571V334.608C375.086 335.757 384.253 339.151 390.595 341.104C397.106 343.109 405.21 341.501 408.975 340.543C420.156 338.399 422.824 335.182 422.76 333.842V322.738C422.76 321.359 421.761 320.277 420.804 320.022L404.156 314.404Z" fill="#BBBBBB"/>
<path d="M336.263 343.032V332.026L366.958 342.239V353.164L336.263 343.032Z" fill="#6A8394"/>
<path d="M391.15 361.961V351.036L399.734 348.435C395.832 342.972 378.871 346.241 376.062 347.134L361.755 351.141V340.371C364.617 339.59 374.502 336.989 381.005 335.428C387.629 333.838 395.325 333.131 399.09 334.088C410.272 336.232 412.939 339.449 412.876 340.789V351.894C412.876 353.272 410.961 354.127 410.004 354.383L391.15 361.961Z" fill="#647B8A"/>
<path d="M359.415 345.325L359.155 355.295L387.491 365.06L401.506 359.091C403.803 358.478 404.377 357.176 404.377 356.602V346.457C404.377 345.385 403.798 344.193 403.376 343.764C402.567 342.94 396.053 340.474 391.512 339.787C383.906 338.636 378.301 340.2 376.323 340.902L367.739 343.244L359.415 345.325Z" fill="#5B7180"/>
<path d="M399.994 364.089V353.944L440.574 367.355V378.464L399.994 364.089Z" fill="#6A8394"/>
<path d="M474.911 358.626L440.801 367.446L399.994 353.944L404.156 351.603C410.659 347.701 406.758 341.068 401.815 338.596C394.381 334.879 386.208 334.434 374.762 337.036L361.756 340.677L336.263 332.025L398.694 334.174L415.342 328.192L427.308 322.729L429.696 307.901L455.661 316.746C454.222 317.266 450.823 318.202 448.118 321.948C445.412 325.694 446.297 330.012 454.101 332.874C457.991 334.3 472.049 337.296 483.495 334.174L495.981 330.012L535 343.13L508.195 350.023L495.981 340.677L467.107 338.336L449.678 354.464L474.911 358.626Z" fill="#89ABC2"/>
<path d="M429.696 308.161L336.263 332.285L361.756 340.677L373.461 326.63L413.781 334.694L419.504 354.724L399.994 353.943L440.801 367.706L475.264 358.707L459.181 353.155C456.565 351.878 454.969 348.406 469.52 344.73C472.967 343.709 481.506 342.05 488.092 343.581C488.603 343.709 490.198 344.156 492.496 344.922C494.793 345.688 503.919 348.815 508.195 350.283L535 343.39L429.696 308.161Z" fill="#89ABC2"/>
<path d="M533.959 343.018L490.518 328.191L497.542 326.37C504.565 324.549 508.545 318.649 501.444 314.664C495.461 311.307 485.576 311.283 473.61 314.664L460.344 318.021L429.909 307.64L404.156 314.404L371.12 322.988L336.263 332.092L410.92 336.775L440.574 367.21L460.344 343.018L487.657 339.897L533.959 343.018Z" fill="#89ABC2"/>
<path d="M302.967 339.637V351.082L309.21 353.163C324.558 358.366 292.214 359.519 289.406 358.626L265.769 349.261V358.626C269.215 359.775 283.064 364.384 289.406 366.337C295.917 368.342 304.021 366.733 307.786 365.776C318.968 363.631 321.635 360.415 321.571 359.075V347.97C321.571 346.591 320.573 345.509 319.615 345.254L302.967 339.637Z" fill="#5C7180"/>
<path d="M433.811 379.276V368.362L407.006 375.255V386.36L433.811 379.276Z" fill="#4C6577"/>
<path d="M235.074 368.265V357.259L265.769 367.471V378.397L235.074 368.265Z" fill="#6A8394"/>
<path d="M295.423 338.597L297.765 350.303L305.456 351.931C295.193 354.994 287.011 353.973 284.203 353.079L265.769 346.401V358.107C269.215 359.255 277.861 362.409 284.203 364.362C290.714 366.367 298.818 364.759 302.584 363.801C313.765 361.657 313.436 358.146 313.372 356.806L313.372 346.921C313.372 344.58 308.69 343.539 307.389 343.019L295.423 338.597Z" fill="#6A8394"/>
<path d="M295.163 389.06V378.134L303.748 375.533C299.846 370.071 282.884 373.339 280.076 374.233L265.769 378.24V367.469C268.631 366.689 278.515 364.088 285.019 362.527C291.643 360.937 299.339 360.229 303.104 361.186C314.285 363.331 316.953 366.547 316.889 367.888V378.992C316.889 380.371 314.975 381.226 314.017 381.481L295.163 389.06Z" fill="#647B8A"/>
<path d="M295.163 389.06V377.875L339.385 392.586V403.695L295.163 389.06Z" fill="#6A8394"/>
<path d="M373.771 394.717L373.982 384.119L366.698 381.778C379.184 377.356 385.131 379.081 387.94 379.974L407.018 386.352V375.275C403.572 374.126 394.282 370.645 387.94 368.692C381.429 366.687 373.325 368.295 369.559 369.253C358.378 371.397 355.71 374.613 355.774 375.954V387.058C355.774 388.437 357.689 389.292 358.646 389.547L373.771 394.717Z" fill="#647B8A"/>
<path d="M374.075 394.784V383.938L339.42 392.678V403.782L374.075 394.784Z" fill="#4C6577"/>
<path d="M373.722 383.858L339.612 392.677L295.163 377.875L301.406 376.054C316.754 372.412 309.99 364.348 300.626 363.308C292.017 362.351 284.498 363.047 273.052 365.649L265.769 367.47L235.074 357.257L297.504 359.406L315.713 357.585L326.118 347.96L328.507 333.133L354.472 341.977C353.033 342.497 349.634 343.434 346.928 347.18C344.223 350.925 345.108 355.244 352.911 358.105C356.801 359.531 370.86 362.527 382.306 359.406L394.792 355.244L433.811 368.362L407.006 375.254L394.792 365.909L365.918 363.568L348.489 379.696L373.722 383.858Z" fill="#89ABC2"/>
<path d="M328.507 333.394L433.811 368.622L407.006 375.515C402.73 374.047 393.604 370.92 391.306 370.154C389.009 369.388 387.413 368.942 386.903 368.814C380.317 367.282 371.777 368.942 368.331 369.963C353.78 373.639 355.376 377.111 357.992 378.387L374.075 383.939L339.612 392.938L295.163 377.875L318.315 379.956L312.592 359.926L294.32 358.265L280.856 359.926L274.964 359.616L265.769 367.47L235.074 357.518L274.964 359.616L278.255 356.805L294.32 358.265L320.916 354.984L328.507 333.394Z" fill="#89ABC2"/>
<path d="M432.77 368.251L389.329 353.423L396.353 351.602C403.376 349.782 407.356 343.882 400.254 339.897C394.272 336.54 384.387 336.515 372.421 339.897L359.154 343.254L328.72 332.873L302.967 339.636L337.824 345.359L330.28 359.406L266.289 356.024L264.728 349.521L235.074 357.325L309.73 362.008L339.385 392.442L359.154 368.251L386.468 365.129L432.77 368.251Z" fill="#D9D9D9"/>
<path d="M432.77 368.251L389.329 353.423L396.353 351.602C403.376 349.782 407.356 343.882 400.254 339.897C394.272 336.54 384.387 336.515 372.421 339.897L359.154 343.254L328.72 332.873L302.967 339.636C311.031 342.498 312.332 342.498 314.933 344.058C317.841 345.803 317.014 350.822 313.112 353.683C309.21 356.544 294.383 359.146 281.116 354.463L265.769 349.261L235.074 357.325L309.73 362.008L339.385 392.442L359.154 368.251L386.468 365.129L432.77 368.251Z" fill="#89ABC2"/>
<path d="M310.511 344.06L295.424 338.597L265.769 346.401L282.157 352.384C286.059 353.944 295.424 356.026 307.91 352.644C311.578 351.65 313.372 349.302 313.372 346.921C313.372 345.543 311.812 344.58 310.511 344.06Z" fill="#89ABC2"/>
<path opacity="0.5" fill-rule="evenodd" clip-rule="evenodd" d="M419.551 325.328L413.756 325.612L407.713 327.067L417.494 330.335L395.572 336.253L397.579 336.849L419.108 330.874L433.944 335.831L406.758 343.277L407.172 344.249L435.56 336.37L450.718 341.435L418.115 350.341L407.538 346.919L407.538 347.179L407.278 348.219L406.758 349.26L405.83 350.341L404.937 351.081L404.357 351.487L438.715 362.966L443.702 362.787L443.726 362.796L443.772 362.785L443.803 362.784L443.792 362.78L450.566 361.178L436.741 356.561L469.108 347.579L469.108 352.139L469.108 356.562L475.385 355.001L475.385 354.821C475.862 354.714 476.382 354.599 476.946 354.479C481.368 353.698 483.969 353.958 483.969 353.958C484.12 352.75 483.657 351.454 482.513 350.558L485.79 343.361L475.183 336.591C475.905 335.88 476.268 335.184 476.365 334.607L473.504 330.705C469.733 329.705 465.255 330.725 459.418 332.055L459.418 332.055L459.418 332.055C458.04 332.369 456.587 332.7 455.049 333.026C453.328 333.391 450.595 332.823 448.013 332.286C444.591 331.574 441.432 330.917 441.234 332.557L419.551 325.328ZM365.397 338.47L403.896 351.333L403.896 345.618L403.184 345.355L403.975 345.136L403.975 344.577L403.896 344.057L401.337 344.739L386.728 339.86L394.19 337.789L391.67 337.554L384.882 339.244L377.142 336.659L371.441 337.016L365.397 338.47ZM434.894 355.944L419.963 350.958L452.334 341.975L467.492 347.039L434.894 355.944Z" fill="#071821" fill-opacity="0.8"/>
<path d="M335.743 243.13L335.743 231.944L338.864 231.164L341.726 232.465L341.726 241.829L335.743 243.13Z" fill="#133141" fill-opacity="0.3"/>
<path d="M380.485 231.684L380.485 220.498L383.606 219.718L386.468 221.018L386.468 230.383L380.485 231.684Z" fill="#133141" fill-opacity="0.3"/>
<path d="M383.018 220.321L390.084 218.968L418.647 326.651L411.84 328.133L383.018 220.321Z" fill="#832E30"/>
<path d="M379.432 218.393L383.278 220.328L411.91 328.135L407.932 326.215L379.432 218.393Z" fill="#AA4245"/>
<path d="M385.472 217.01L390.084 218.969L383.173 220.361L379.431 218.393L385.472 217.01Z" fill="#C7595C"/>
<path d="M347.093 247.103L385.983 234.461L385.43 232.623L346.54 245.264L347.093 247.103Z" fill="#832E30"/>
<path d="M383.87 232.578L385.43 232.624L346.54 245.266L345.255 244.707L383.87 232.578Z" fill="#C7595C"/>
<path d="M353.665 271.239L392.555 258.597L392.002 256.759L353.112 269.401L353.665 271.239Z" fill="#832E30"/>
<path d="M390.442 256.714L392.002 256.76L353.112 269.402L351.828 268.843L390.442 256.714Z" fill="#C7595C"/>
<path d="M360.222 295.896L399.112 283.255L398.559 281.417L359.669 294.058L360.222 295.896Z" fill="#832E30"/>
<path d="M396.999 281.37L398.559 281.416L359.669 294.058L358.384 293.499L396.999 281.37Z" fill="#C7595C"/>
<path d="M366.779 320.553L405.669 307.911L405.116 306.073L366.226 318.715L366.779 320.553Z" fill="#832E30"/>
<path d="M403.556 306.028L405.116 306.074L366.227 318.716L364.942 318.158L403.556 306.028Z" fill="#C7595C"/>
<path d="M339.424 233.606L346.499 231.994L375.053 339.937L368.247 341.418L339.424 233.606Z" fill="#832E30"/>
<path d="M335.838 231.677L339.684 233.613L368.316 341.419L364.339 339.499L335.838 231.677Z" fill="#AA4245"/>
<path d="M341.879 230.295L346.499 231.993L339.579 233.645L335.838 231.677L341.879 230.295Z" fill="#C7595C"/>
<path opacity="0.5" d="M185.947 302.056C188.058 301.559 190.309 301.583 191.953 302.118L410.495 373.316C411.922 373.781 412.741 374.584 412.741 375.518L412.741 382.582C412.741 383.967 410.951 385.387 408.288 386.113L407.018 386.46L378.925 383.858L370.849 382.671C370.339 382.596 369.865 382.485 369.439 382.34L358.291 378.554C357.027 378.125 356.341 377.385 356.422 376.538V376.538C356.505 375.676 355.792 374.925 354.487 374.5L164.001 312.442C160.037 311.151 161.556 307.796 166.645 306.598L185.947 302.056Z" fill="#133141"/>
<path d="M353.573 274.652L180.708 217.638L189.357 216.295C190.586 216.104 191.843 216.21 193.022 216.603L361.11 272.633L353.573 274.652Z" fill="#457995"/>
<path d="M357.236 365.719C359.47 365.12 360.976 363.088 360.976 360.183L368.514 358.163C368.514 361.068 367.008 363.1 364.774 363.699L357.236 365.719Z" fill="#2D607C"/>
<path d="M360.976 360.183V284.923L368.514 282.903V358.164L360.976 360.183Z" fill="#2D607C"/>
<path d="M360.976 284.923C360.976 280.613 357.662 276.015 353.573 274.652L361.111 272.632C365.199 273.995 368.514 278.593 368.514 282.903L360.976 284.923Z" fill="#376B87"/>
<rect x="0.987112" y="1.36954" width="192.599" height="88.7869" rx="6.7633" transform="matrix(0.948683 0.316228 0 1 176.337 215.244)" fill="#E9F5FD" stroke="#BED1E0" stroke-width="2.08101"/>
<path opacity="0.5" d="M185.947 302.056C188.058 301.559 190.309 301.583 191.953 302.118L410.495 373.316C411.922 373.781 412.741 374.584 412.741 375.518L412.741 382.582C412.741 383.967 410.951 385.387 408.288 386.113L407.018 386.46L378.925 383.858L370.849 382.671C370.339 382.596 369.865 382.485 369.439 382.34L358.291 378.554C357.027 378.125 356.341 377.385 356.422 376.538V376.538C356.505 375.676 355.792 374.925 354.487 374.5L164.001 312.442C160.037 311.151 161.556 307.796 166.645 306.598L185.947 302.056Z" fill="#133141"/>
<path d="M353.573 274.652L180.708 217.638L189.358 216.295C190.586 216.104 191.843 216.21 193.022 216.603L361.111 272.633L353.573 274.652Z" fill="#457995"/>
<path d="M357.237 365.719C359.47 365.12 360.976 363.088 360.976 360.183L368.514 358.163C368.514 361.068 367.008 363.1 364.774 363.699L357.237 365.719Z" fill="#2D607C"/>
<path d="M360.976 360.183V284.923L368.514 282.903V358.164L360.976 360.183Z" fill="#2D607C"/>
<path d="M360.976 284.923C360.976 280.613 357.662 276.015 353.573 274.652L361.111 272.632C365.2 273.995 368.514 278.593 368.514 282.903L360.976 284.923Z" fill="#376B87"/>
<rect x="0.987112" y="1.36954" width="192.599" height="88.7869" rx="6.7633" transform="matrix(0.948683 0.316228 0 1 176.337 215.244)" fill="#E9F5FD" stroke="#BED1E0" stroke-width="2.08101"/>
<path d="M196.57 282.582C200.384 283.853 203.391 287.809 203.567 291.768C203.759 296.075 200.573 297.909 196.62 296.592C192.613 295.256 189.164 291.182 188.975 286.932C188.917 285.622 189.216 284.374 189.907 283.401L195.207 275.819L200.016 277.422L196.155 282.444L196.57 282.582ZM196.434 292.401C198.12 292.963 199.425 292.308 199.339 290.358C199.252 288.408 197.875 286.831 196.161 286.259C194.448 285.688 193.142 286.343 193.23 288.322C193.317 290.272 194.72 291.829 196.434 292.401ZM205.456 279.236L219.414 283.888L219.514 286.129L212.3 301.503L207.491 299.9L214.321 286.32L205.643 283.427L205.456 279.236ZM222.145 284.799L236.103 289.451L236.203 291.692L228.989 307.066L224.18 305.463L231.01 291.883L222.332 288.99L222.145 284.799ZM247.235 313.148L246.333 292.861L250.673 294.308L251.015 302.021L258.506 304.517L258.163 296.804L262.502 298.251L263.404 318.537L259.064 317.091L258.692 308.709L251.202 306.212L251.574 314.594L247.235 313.148ZM271.949 306.934C275.818 308.224 278.236 311.151 278.387 314.557L278.792 323.667L274.978 322.395L274.638 320.877C273.601 322.051 272.145 321.767 271.15 321.435C268.082 320.412 265.782 317.667 265.651 314.727C265.577 313.068 266.243 312.115 267.374 311.832C268.209 311.623 269.276 311.749 270.493 312.155L274.251 313.408L274.241 313.175C274.196 312.156 273.334 311.152 271.814 310.645C270.792 310.305 269.755 310.275 268.594 311.092L265.463 307.439C267.093 306.118 269.572 306.142 271.949 306.934ZM271.657 318.134C273.149 318.632 274.375 318.037 274.395 316.638L271.244 315.588C270.802 315.441 270.447 315.408 270.206 315.5C269.938 315.612 269.813 315.857 269.828 316.206C269.861 316.933 270.468 317.738 271.657 318.134ZM287.336 326.83C282.582 325.246 280.286 320.753 280.123 317.085C279.955 313.302 281.999 310.284 286.642 311.832C289.517 312.79 291.764 314.944 292.917 318.225L289.066 318.575C288.813 317.172 287.917 316.013 286.812 315.645C284.877 315 284.324 316.651 284.407 318.513C284.489 320.347 285.149 322.345 287.112 322.999C288.189 323.358 289.036 322.809 289.228 321.611L293.056 324.407C292.264 326.81 290.183 327.779 287.336 326.83ZM295.215 329.141L294.313 308.855L298.487 310.246L298.961 320.928L302.675 317.492L308.231 319.343L303.496 323.099L309.338 333.849L304.391 332.2L300.587 325.025L299.203 326.37L299.388 330.532L295.215 329.141ZM321.698 331.03C321.716 331.437 321.705 331.806 321.677 332.399L312.722 329.414C312.938 330.604 313.806 331.754 315.602 332.353C316.625 332.694 317.685 332.645 318.415 331.914L321.408 335.55C320.047 336.788 318.155 337.103 315.751 336.302C310.72 334.625 308.648 330.264 308.483 326.567C308.324 322.988 309.999 319.617 314.863 321.239C319.12 322.658 321.501 326.606 321.698 331.03ZM312.523 326.165L317.636 327.869C317.521 326.512 316.352 325.319 314.97 324.859C313.229 324.278 312.647 325.289 312.523 326.165ZM317.605 328.404L317.632 328.384L317.605 328.404ZM331.142 326.665C332.082 326.978 332.923 327.517 333.92 328.509L332.106 331.804C331.707 331.413 330.977 330.911 330.314 330.69C328.849 330.202 327.931 330.985 328.043 333.517L328.339 340.183L324.166 338.791L323.528 324.442L327.729 325.843L327.826 328.026C328.395 326.724 329.677 326.177 331.142 326.665ZM339.758 344.304C336.745 343.3 334.497 340.515 333.768 338.207L336.989 337.761C337.3 338.639 337.723 340.185 339.575 340.802C340.736 341.189 341.044 340.776 341.025 340.339C340.937 338.36 334.458 337.175 334.233 332.111C334.089 328.88 336.714 328.523 339.174 329.342C341.689 330.181 343.543 332.06 344.705 334.312L341.582 335.106C341.221 334.355 340.617 333.006 339.263 332.555C338.489 332.297 338.117 332.517 338.138 332.983C338.222 334.875 344.847 335.678 345.088 341.092C345.248 344.701 342.3 345.152 339.758 344.304Z" fill="#305E77"/>
<path d="M196.411 241.19L200.585 242.581L201.486 262.867L197.313 261.476L196.703 247.768L192.392 246.33L192.238 242.867L194.421 243.595C195.803 244.055 196.525 243.751 196.453 242.121L196.411 241.19ZM214.76 267.579C210.946 266.307 207.284 262.936 207.074 258.221L211.208 259.341C211.295 261.291 212.833 262.807 214.712 263.434C216.205 263.931 217.752 263.816 217.661 261.779C217.554 259.363 215.405 258.79 213.553 258.173L213.4 254.738C216.026 255.613 216.342 254.773 216.298 253.783C216.234 252.328 215.208 251.298 213.964 250.883C212.582 250.422 211.765 251.039 211.801 252.456L207.67 250.792C207.494 246.834 210.461 245.586 213.943 246.747C217.288 247.862 220.282 250.896 220.442 254.505C220.517 256.193 219.942 257.349 218.759 257.671C220.874 259.323 221.755 261.365 221.844 263.374C222.046 267.914 218.519 268.832 214.76 267.579ZM231.335 268.745L238.273 271.058L238.456 275.191L224.858 270.658L224.703 267.165C227.363 266.36 233.148 264.188 232.955 259.851C232.893 258.454 232.233 257.087 230.658 256.562C228.557 255.862 228.182 257.83 228.141 259.365L224.035 257.652C223.877 254.101 226.102 250.857 230.579 252.35C234.172 253.547 236.916 257.071 237.094 261.088C237.248 264.551 234.885 267.749 231.335 268.745ZM248.907 278.674L248.006 258.388L254.777 260.645C259.227 262.128 261.553 264.825 261.731 268.841C261.911 272.887 259.711 274.247 255.317 272.782L252.857 271.962L253.219 280.112L248.907 278.674ZM252.671 267.771L254.688 268.443C256.457 269.033 257.467 269.083 257.395 267.453C257.326 265.91 256.429 265.325 254.521 264.689L252.504 264.016L252.671 267.771ZM270.917 271.559C271.857 271.872 272.697 272.411 273.695 273.403L271.88 276.698C271.482 276.307 270.752 275.805 270.088 275.584C268.623 275.096 267.705 275.879 267.818 278.411L268.114 285.077L263.94 283.685L263.303 269.336L267.504 270.737L267.601 272.92C268.169 271.618 269.452 271.071 270.917 271.559ZM280.563 289.542C276.141 288.068 273.384 283.622 273.209 279.692C273.034 275.763 275.447 273.069 279.897 274.552C284.292 276.017 287.046 280.405 287.222 284.363C287.397 288.293 284.93 290.997 280.563 289.542ZM280.394 285.729C282.633 286.475 283.129 284.777 283.049 282.972C282.968 281.168 282.333 279.121 280.066 278.365C277.8 277.61 277.301 279.25 277.383 281.084C277.46 282.83 278.1 284.964 280.394 285.729ZM288.873 275.91L288.698 271.952L292.954 273.371L293.13 277.329L288.873 275.91ZM290.402 298.671C289.601 298.404 288.598 297.898 287.756 297.33L287.573 293.828C287.992 294.054 288.381 294.241 288.685 294.342C289.348 294.563 289.73 294.576 289.686 293.586L288.989 277.899L293.163 279.29L293.901 295.909C294.023 298.645 292.558 299.39 290.402 298.671ZM308.849 291.716C308.867 292.123 308.856 292.492 308.828 293.085L299.873 290.1C300.089 291.291 300.957 292.44 302.754 293.039C303.776 293.38 304.836 293.332 305.566 292.6L308.56 296.236C307.199 297.474 305.307 297.79 302.902 296.988C297.872 295.311 295.799 290.95 295.635 287.254C295.476 283.674 297.15 280.304 302.015 281.925C306.271 283.344 308.652 287.292 308.849 291.716ZM299.674 286.851L304.787 288.555C304.673 287.198 303.503 286.005 302.121 285.545C300.38 284.964 299.798 285.975 299.674 286.851ZM304.757 289.09L304.783 289.07L304.757 289.09ZM316.997 301.686C312.243 300.102 309.947 295.609 309.784 291.941C309.616 288.158 311.66 285.14 316.304 286.688C319.178 287.646 321.425 289.8 322.578 293.081L318.727 293.431C318.474 292.028 317.579 290.869 316.473 290.501C314.538 289.856 313.985 291.507 314.068 293.369C314.15 295.203 314.81 297.201 316.773 297.855C317.851 298.215 318.698 297.665 318.889 296.468L322.717 299.263C321.925 301.666 319.844 302.635 316.997 301.686ZM332.571 295.781L329.088 294.62L329.353 300.586C329.378 301.139 329.431 302.333 331.145 302.904C331.697 303.088 332.3 303.174 332.899 303.173L333.023 306.57C332.153 306.595 331.275 306.446 330.307 306.123C327.737 305.266 325.389 303.279 325.226 299.612L324.942 293.238L322.759 292.51L322.607 289.105L324.791 289.833L324.697 287.708L328.699 285.859L328.937 291.214L332.419 292.375L332.571 295.781ZM340.278 309.447C337.265 308.443 335.018 305.657 334.289 303.35L337.509 302.904C337.821 303.782 338.243 305.328 340.095 305.945C341.256 306.332 341.564 305.918 341.545 305.482C341.457 303.503 334.978 302.318 334.753 297.254C334.61 294.023 337.235 293.665 339.695 294.485C342.21 295.323 344.063 297.203 345.225 299.454L342.102 300.248C341.742 299.497 341.137 298.149 339.783 297.697C339.009 297.439 338.638 297.66 338.658 298.125C338.743 300.017 345.368 300.821 345.608 306.234C345.769 309.843 342.821 310.294 340.278 309.447Z" fill="#305E77"/>
<path d="M274.028 118.002V105.777L266.229 103.037C277.527 99.6642 286.534 100.788 289.626 101.772L310.493 108.742V96.5025C306.699 95.2379 296.607 91.5009 289.626 89.3508C282.458 87.1436 273.536 88.9145 269.391 89.9684C257.082 92.3291 254.145 95.8702 254.215 97.3456V109.571C254.215 111.088 256.323 112.03 257.377 112.311L274.028 118.002Z" fill="#647B8A"/>
<path d="M121.214 88.8193V76.7031L236.298 115.697V127.922L121.214 88.8193Z" fill="#6A8394"/>
<path d="M143.264 88.5184V95.3913C140.973 95.8685 141.546 105.128 140.973 109.137C148.61 112.573 155.807 115.323 168.179 111.428L183.643 103.982L171.765 113.146C168.615 114.005 157.733 116.869 150.574 118.587C143.281 120.337 134.809 121.117 130.664 120.063C118.354 117.702 115.418 114.161 115.488 112.686V100.461C115.488 98.9429 117.596 98.0015 118.649 97.7204L128.373 91.6685L143.264 88.5184Z" fill="#607685"/>
<path d="M187.609 110.71V98.6959L156.414 87.9463L140.985 94.5174C138.456 95.1919 138.11 97.2491 137.823 97.6829V108.426C137.823 109.606 139.045 110.482 139.51 110.955C140.401 111.862 146.987 115.012 151.987 115.769C160.36 117.035 166.671 116.542 168.849 115.769L187.609 110.71Z" fill="#748FA1"/>
<path d="M274.238 118.015V105.79L236.087 115.697V127.922L274.238 118.015Z" fill="#4B6578"/>
<path d="M340 100.943V88.9287L310.491 96.5167V108.742L340 100.943Z" fill="#4B6578"/>
<path d="M224.073 50.1445L121.214 76.7024L155.005 88.2317L145.269 91.0954C140.687 92.2408 133.024 98.2597 141.832 102.264C151.283 106.559 163.883 106.846 171.042 104.841L187.652 99.6865L236.298 115.696L274.238 105.79L256.533 99.6771C253.652 98.2719 251.895 94.4498 267.914 90.4029C271.708 89.2787 281.109 87.452 288.36 89.1382C288.922 89.2787 290.678 89.7706 293.208 90.6137C295.737 91.4568 305.784 94.8995 310.491 96.5154L340 88.9275L224.073 50.1445Z" fill="#89ABC2"/>
<path d="M201.207 125.172V137.397L209.005 140.137C197.708 143.51 188.7 142.385 185.609 141.402L164.742 134.431V146.671C168.536 147.936 178.627 151.673 185.609 153.823C192.777 156.03 201.698 154.259 205.844 153.205C218.153 150.845 221.09 147.304 221.02 145.828V133.603C221.02 132.086 218.912 131.144 217.858 130.863L201.207 125.172Z" fill="#4B6578"/>
<path d="M230.607 129.578V117.563L201.098 125.151V137.376L230.607 129.578Z" fill="#4B6578"/>
<path d="M11.8208 117.456V105.34L45.6124 116.583V128.61L11.8208 117.456Z" fill="#E4EDF2"/>
<path d="M77.972 140.35V128.323L87.4222 125.459C83.1267 119.445 64.454 123.043 61.3626 124.027L45.6122 128.439V116.581C48.7623 115.722 59.6444 112.859 66.8036 111.14C74.0963 109.39 82.5684 108.611 86.7137 109.665C99.0231 112.025 101.96 115.567 101.89 117.042V129.267C101.89 130.785 99.7819 131.726 98.728 132.007L77.972 140.35Z" fill="#ADC1CF"/>
<path d="M77.9722 140.35V128.036L126.941 144.073V156.673L77.9722 140.35Z" fill="#E4EDF2"/>
<path d="M88.2809 143.787L88.5673 131.473L84.5581 142.641L88.2809 143.787Z" fill="#133141" fill-opacity="0.3"/>
<path d="M40.7438 127.177L41.0302 114.863L37.021 126.032L40.7438 127.177Z" fill="#133141" fill-opacity="0.3"/>
<path d="M164.845 146.651V134.426L126.941 144.073V156.673L164.845 146.651Z" fill="#4B6578"/>
<path d="M217.858 130.864L201.111 124.887L164.742 134.432L185.609 141.403C188.7 142.386 197.708 143.51 209.005 140.138C213.01 139.052 221.02 136.225 221.02 133.604C221.02 132.086 218.866 131.187 217.858 130.864Z" fill="#89ABC2"/>
<path d="M114.68 78.7812L11.8208 105.339L45.6124 116.582L53.6307 114.577C66.231 111.714 74.5081 110.947 83.9859 112C94.2952 113.146 101.741 122.023 84.845 126.032L77.9722 128.037L126.905 144.333L164.845 134.426L201.098 125.152L230.607 117.564L187.652 103.123L173.906 107.705C161.306 111.141 145.829 107.843 141.546 106.273C132.955 103.123 131.981 98.3689 134.96 94.2452C137.938 90.1215 141.68 89.0906 143.264 88.5178L114.68 78.7812Z" fill="#89ABC2"/>
<path d="M55.8145 282.948V270.723L48.0158 267.983C59.3134 264.61 68.3206 265.735 71.412 266.718L92.2789 273.689V261.449C88.4849 260.184 78.3938 256.447 71.412 254.297C64.2443 252.09 55.3227 253.861 51.1774 254.915C38.868 257.275 35.9312 260.816 36.0015 262.292V274.517C36.0015 276.035 38.1092 276.976 39.1631 277.257L55.8145 282.948Z" fill="#647B8A"/>
<path d="M-96.9995 253.766V241.649L18.0846 280.643V292.868L-96.9995 253.766Z" fill="#E4EDF2"/>
<path d="M56.0241 282.962V270.737L17.8735 280.644V292.869L56.0241 282.962Z" fill="#587284"/>
<path d="M121.786 265.889V253.875L92.2776 261.463V273.688L121.786 265.889Z" fill="#4B6578"/>
<path d="M39.312 226.655V238.669L70.507 249.419L85.9355 242.848C88.4648 242.173 89.0972 240.74 89.0972 240.108V228.939C89.0972 227.759 88.7456 226.162 88.2811 225.689C87.39 224.782 79.9333 222.353 74.9333 221.596C66.5605 220.33 60.2492 220.824 58.0712 221.596L39.312 226.655Z" fill="#5B7180"/>
<path d="M5.85906 215.092L-97 241.65L-63.2084 253.179L-72.0859 255.756C-77.5269 257.188 -84.9725 262.916 -76.9541 266.925C-72.3722 268.929 -59.4856 273.225 -46.3126 269.502L-30.5623 264.634L18.0841 280.643L56.0239 270.737L38.3187 264.624C35.4381 263.219 33.6816 259.397 49.7006 255.35C53.4946 254.226 62.8952 252.399 70.146 254.085C70.708 254.226 72.4645 254.718 74.9938 255.561C77.5231 256.404 87.5702 259.847 92.2775 261.463L121.786 253.875L5.85906 215.092Z" fill="#9CBBD0"/>
<path d="M-96.9999 241.862L17.8342 280.386L39.5983 253.753L69.3807 248.312L120.641 253.753L72.8172 237.43L80.5491 235.426C88.2811 233.421 92.6628 226.926 84.8447 222.539C78.2582 218.843 67.3761 218.816 54.2031 222.539L39.5983 226.235L6.70223 215.094L-31.2376 225L-13.5323 231.113C-10.6517 232.518 -8.89525 236.34 -24.9143 240.387C-28.7083 241.511 -38.1089 243.338 -45.3596 241.651C-45.9217 241.511 -47.6782 241.019 -50.2075 240.176C-52.7368 239.333 -62.7838 235.89 -67.4912 234.274L-96.9999 241.862Z" fill="#9CBBD0"/>
<path opacity="0.5" d="M7.38925 232.629L92.2902 260.916L100.022 272.653L97.4448 272.653L92.2902 264.965L-5.93805 232.516L7.38925 232.629Z" fill="#0F2736"/>
<g filter="url(#filter1_i_62_16988)">
<path d="M37.3075 116.868L29.5755 115.149L-5.36157 232.714L2.08015 234.565L37.3075 116.868Z" fill="#558EAB"/>
<path d="M41.3168 114.863L37.0213 116.868L2.00366 234.566L6.44328 232.583L41.3168 114.863Z" fill="#35637A"/>
<path d="M34.7144 113.146L29.5754 115.15L37.1358 116.907L41.3166 114.864L34.7144 113.146Z" fill="#4D829C"/>
<path d="M75.9676 147.509L33.5849 132.332L34.2531 130.327L76.6358 145.505L75.9676 147.509Z" fill="#558EAB"/>
<path d="M35.9714 130.327H34.2532L76.6359 145.505L78.0677 144.932L35.9714 130.327Z" fill="#4D829C"/>
<path d="M67.949 173.856L25.5663 158.678L26.2346 156.674L68.6172 171.851L67.949 173.856Z" fill="#558EAB"/>
<path d="M27.9526 156.674H26.2344L68.6171 171.851L70.0489 171.279L27.9526 156.674Z" fill="#4D829C"/>
<path d="M59.9307 200.775L17.548 185.597L18.2163 183.593L60.5989 198.77L59.9307 200.775Z" fill="#558EAB"/>
<path d="M19.9343 183.593H18.2161L60.5987 198.77L62.0306 198.198L19.9343 183.593Z" fill="#4D829C"/>
<path d="M51.9121 227.693L9.52945 212.515L10.1977 210.511L52.5804 225.688L51.9121 227.693Z" fill="#558EAB"/>
<path d="M11.916 210.511H10.1978L52.5804 225.688L54.0123 225.116L11.916 210.511Z" fill="#4D829C"/>
<path d="M84.8448 132.904L77.1129 130.899L42.1758 248.75L49.6175 250.602L84.8448 132.904Z" fill="#558EAB"/>
<path d="M88.8542 130.899L84.5586 132.904L49.541 250.602L53.9806 248.619L88.8542 130.899Z" fill="#35637A"/>
<path d="M82.2521 129.182L77.113 130.9L84.6735 132.944L88.8542 130.9L82.2521 129.182Z" fill="#4D829C"/>
</g>
<path opacity="0.5" d="M79.4293 122.024C79.7924 122.024 80.1683 121.972 80.5479 121.869L264.779 71.9167C269.366 70.673 271.181 63.9329 267.246 62.7559L221.454 49.0599C220.824 48.8714 220.109 48.8752 219.375 49.0711L36.0591 97.9553C31.4625 99.181 29.6288 105.942 33.573 107.121L53.4736 113.073C54.8071 113.472 55.6228 114.687 55.6228 116.273L55.6228 125.744L59.3576 124.602L62.5076 123.742L63.6531 123.456L65.0849 123.17L66.8032 122.883L71.0987 122.311L76.2534 122.024L79.4293 122.024Z" fill="#0C2837"/>
<g filter="url(#filter2_i_62_16988)">
<path d="M234.394 2.35576C233.627 2.1215 232.736 2.10975 231.777 2.36556L224.656 0.188675C225.616 -0.0671331 226.507 -0.0553824 227.273 0.178878L234.394 2.35576Z" fill="#A1B0B9"/>
<path d="M231.777 2.36536L43.8761 52.4722L36.7559 50.2953L224.656 0.188477L231.777 2.36536Z" fill="#A1B0B9"/>
<path d="M36.1296 103.728C36.0333 105.895 37.1152 107.47 38.7906 107.983L31.6719 105.807C29.9956 105.294 28.913 103.719 29.0094 101.551L36.1296 103.728Z" fill="#EEEFF0"/>
<path d="M38.0879 59.67L36.1298 103.727L29.0095 101.551L30.9676 57.4932L38.0879 59.67Z" fill="#EEEFF0"/>
<path d="M38.0876 59.6693C38.228 56.5093 40.8195 53.2868 43.8759 52.4718L36.7556 50.2949C33.6992 51.1099 31.1077 54.3324 30.9673 57.4924L38.0876 59.6693Z" fill="#D3D5D6"/>
</g>
<rect x="1.31993" y="1.0615" width="203.058" height="52.692" rx="4.29554" transform="matrix(0.966235 -0.257663 -0.0444006 0.999014 38.4337 54.2884)" fill="#2B546B" stroke="#204C65" stroke-width="2.86369"/>
<path d="M44.5592 88.5203L45.6744 71.7911L48.9517 70.9171L48.0444 84.5261L54.8313 82.7163L54.6233 85.8365L44.5592 88.5203ZM61.8344 72.0317C64.9722 71.195 66.783 72.4567 66.5942 75.2889L66.0949 82.7774L63.2128 83.546L63.0716 82.2399C62.1781 83.6569 60.8709 84.4298 59.7088 84.7397C57.2218 85.4029 55.5425 84.224 55.6977 81.8959C55.7905 80.5038 56.462 79.3345 57.5448 78.5036C58.3141 77.9212 59.2551 77.5053 60.4172 77.1954L63.4388 76.3896L63.4564 76.1256C63.5284 75.0455 62.8078 74.554 61.5062 74.9011C60.4835 75.1738 59.4769 75.8902 58.4752 77.2182L56.3286 75.8575C57.832 73.8534 59.7891 72.5771 61.8344 72.0317ZM60.3993 81.9152C61.8636 81.5247 63.1643 80.1641 63.2788 78.7898L60.6988 79.4778C60.048 79.6513 59.6 79.8651 59.3067 80.1555C59.015 80.4219 58.8563 80.7471 58.8323 81.1071C58.7843 81.8272 59.3302 82.2003 60.3993 81.9152ZM72.5485 81.3158C70.0847 81.9728 68.3573 80.8303 67.9396 79.2208L70.5034 77.4055C70.7327 78.0752 71.0991 79.0855 72.6563 78.6702C73.7952 78.3665 74.2536 77.6549 74.2856 77.1748C74.4072 75.3507 68.6407 77.9493 68.9272 73.653C69.092 71.1808 71.2807 69.5127 73.419 68.9425C75.4644 68.3971 76.908 69.0023 77.6856 70.3509L75.1755 72.3876C74.8701 71.8325 74.3931 71.111 73.1845 71.4333C72.4175 71.6378 71.9502 72.1396 71.9198 72.5956C71.8078 74.2758 77.6921 71.6222 77.3993 76.0145C77.2089 78.8707 74.71 80.7394 72.5485 81.3158ZM86.514 68.2088L83.6319 68.9773L83.2671 74.4497C83.2207 75.1458 83.4532 75.7675 84.6153 75.4576C85.0569 75.3398 85.5514 75.1136 86.074 74.8093L85.9027 77.3775C85.1646 77.8336 84.4361 78.1458 83.6691 78.3503C81.6237 78.8957 79.9261 78.3347 80.1117 75.5505L80.4941 69.8141L78.6347 70.3099L78.8043 67.7657L80.6637 67.2699L80.7981 65.2538L84.0959 62.0168L83.8015 66.4332L86.6836 65.6646L86.514 68.2088ZM100.201 78.4919L102.643 72.6777L99.0149 62.3763L102.501 61.4465L104.564 68.5111L107.847 60.021L111.31 59.0975L103.617 77.5808L100.201 78.4919ZM121.692 62.105C121.668 62.465 121.622 62.8072 121.547 63.2517L113.853 65.3032C113.91 66.5141 114.664 67.1853 116.314 66.7452C117.267 66.4911 118.196 65.9133 118.976 64.8331L121.028 66.2427C119.702 67.9873 118.07 69.1768 116.094 69.7036C112.003 70.7945 110.578 68.2041 110.784 65.1079C110.986 62.0837 112.781 58.446 116.732 57.3923C120.312 56.4378 121.922 58.6487 121.692 62.105ZM113.995 62.8372L118.783 61.5604C118.823 60.2767 117.83 59.7636 116.528 60.1107C114.924 60.5384 114.198 61.84 113.995 62.8372ZM128.836 54.1647C131.974 53.3279 133.784 54.5896 133.596 57.4218L133.096 64.9104L130.214 65.679L130.073 64.3728C129.179 65.7899 127.872 66.5628 126.71 66.8727C124.223 67.5359 122.544 66.357 122.699 64.0288C122.792 62.6367 123.463 61.4675 124.546 60.6366C125.316 60.0542 126.256 59.6383 127.419 59.3284L130.44 58.5226L130.458 58.2586C130.53 57.1785 129.809 56.687 128.508 57.0341C127.485 57.3068 126.478 58.0231 125.477 59.3512L123.33 57.9904C124.833 55.9864 126.79 54.7101 128.836 54.1647ZM127.401 64.0481C128.865 63.6576 130.166 62.2971 130.28 60.9228L127.7 61.6108C127.049 61.7843 126.601 61.9981 126.308 62.2885C126.016 62.5549 125.858 62.8801 125.834 63.2401C125.786 63.9602 126.332 64.3332 127.401 64.0481ZM142.884 50.4185C143.651 50.2139 144.334 50.244 145.067 50.5435L143.363 53.8506C143.03 53.7035 142.507 53.6781 141.949 53.8268C140.485 54.2173 139.606 55.4183 139.462 57.5785L139.079 63.3149L135.918 64.1578L136.707 52.325L139.891 51.4758L139.767 53.348C140.368 51.8675 141.629 50.7532 142.884 50.4185ZM153.455 59.4813L150.665 48.603L154.012 47.7104L155.369 54.0675L157.731 46.7188L160.403 46.006L161.857 52.2902L164.122 45.0143L167.492 44.1156L163.101 56.9091L160.312 57.6529L158.771 50.9676L156.291 58.7252L153.455 59.4813ZM178.331 47.0012C178.307 47.3613 178.261 47.7035 178.186 48.1479L170.492 50.1995C170.549 51.4104 171.303 52.0815 172.953 51.6415C173.906 51.3873 174.835 50.8096 175.615 49.7294L177.667 51.1389C176.341 52.8835 174.709 54.073 172.733 54.5999C168.642 55.6907 167.217 53.1004 167.423 50.0042C167.625 46.9799 169.42 43.3422 173.371 42.2886C176.951 41.334 178.561 43.545 178.331 47.0012ZM170.634 47.7335L175.422 46.4567C175.462 45.173 174.469 44.6599 173.167 45.0069C171.563 45.4346 170.837 46.7362 170.634 47.7335ZM193.313 36.9709C195.916 36.2767 197.343 37.4757 197.16 40.2119L196.643 47.9645L193.506 48.8012L193.968 41.8647C194.074 40.2806 193.472 39.7101 192.124 40.0696C190.288 40.5593 189.674 42.2317 189.46 45.448L189.159 49.9603L185.998 50.8032L187.113 34.074L190.274 33.2311L189.866 39.3515C190.677 38.1451 191.848 37.3614 193.313 36.9709ZM204.894 33.8826C208.031 33.0458 209.842 34.3075 209.653 37.1397L209.154 44.6283L206.272 45.3968L206.131 44.0907C205.237 45.5077 203.93 46.2807 202.768 46.5906C200.281 47.2538 198.602 46.0749 198.757 43.7467C198.85 42.3546 199.521 41.1854 200.604 40.3545C201.373 39.7721 202.314 39.3562 203.476 39.0462L206.498 38.2405L206.516 37.9765C206.588 36.8964 205.867 36.4049 204.565 36.752C203.543 37.0247 202.536 37.741 201.534 39.069L199.388 37.7083C200.891 35.7043 202.848 34.428 204.894 33.8826ZM203.459 43.766C204.923 43.3755 206.224 42.015 206.338 40.6407L203.758 41.3287C203.107 41.5022 202.659 41.716 202.366 42.0064C202.074 42.2728 201.916 42.598 201.892 42.958C201.844 43.6781 202.389 44.0511 203.459 43.766ZM220.089 25.2806L223.226 24.4439L222.111 41.1731L218.973 42.0098L219.044 40.9538C218.19 42.1246 216.91 42.8193 215.795 43.1168C212.75 43.9287 211.206 41.7472 211.443 38.1949C211.704 34.2827 213.923 31.4749 216.619 30.7559C217.851 30.4274 219.047 30.6269 219.69 31.257L220.089 25.2806ZM216.811 39.8516C218.717 39.3434 219.529 37.7831 219.646 36.031C219.76 34.3269 219.163 33.0007 217.257 33.509C215.653 33.9366 214.737 35.3599 214.602 37.376C214.466 39.4162 215.231 40.2731 216.811 39.8516ZM226.422 32.1495L226.641 28.8612L229.988 27.9687L229.769 31.2569L226.422 32.1495ZM225.888 40.166L226.105 36.9018L229.452 36.0093L229.235 39.2735L225.888 40.166Z" fill="#F3F5F4"/>
<path opacity="0.3" fill-rule="evenodd" clip-rule="evenodd" d="M201.455 141.767C204.712 141.853 207.451 142.846 208.27 145.793C208.308 145.929 208.347 146.062 208.387 146.192L208.445 146.229L208.402 146.238C208.859 147.691 209.461 148.748 209.916 149.548C210.947 151.358 211.23 151.856 207.411 152.666C206.633 152.83 205.803 153.031 204.943 153.238C199.527 154.545 192.929 156.137 190.801 150.947C189.676 148.204 189.032 146.49 189.202 145.323L172.133 138.672C166.978 139.101 161.968 139.019 159.931 137.985C156.618 136.304 155.262 135.56 155.262 135.56C148.055 126.767 153.285 127.854 159.236 129.092C162.079 129.683 165.087 130.309 166.981 129.907C168.675 129.549 170.275 129.184 171.792 128.838L171.792 128.838C178.218 127.374 183.147 126.251 187.299 127.352L190.449 131.648C190.339 132.295 189.926 133.08 189.098 133.88L201.455 141.767Z" fill="#071821"/>
<g filter="url(#filter3_i_62_16988)">
<path d="M187.651 128.609C185.646 133.477 179.574 134.909 169.61 134.909C163.023 134.909 153 132.905 151.568 128.609V121.821C154.142 118.247 161.887 118.3 169.61 118.3C176.903 118.3 184.807 118.744 187.651 122.006V128.609Z" fill="#386881"/>
<ellipse cx="169.61" cy="121.735" rx="18.0413" ry="6.87287" fill="#558EAB"/>
<path d="M180.778 121.28L175.194 97.1084H163.819L158.441 121.28C158.441 121.28 162.991 124.027 169.816 124.027C176.642 124.027 180.778 121.28 180.778 121.28Z" fill="#386881"/>
<ellipse cx="169.609" cy="89.5156" rx="9.87164" ry="9.58982" fill="#558EAB"/>
</g>
</g>
<defs>
<filter id="filter0_i_62_16988" x="23.5735" y="333" width="39.0864" height="59.5605" filterUnits="userSpaceOnUse" color-interpolation-filters="sRGB">
<feFlood flood-opacity="0" result="BackgroundImageFix"/>
<feBlend mode="normal" in="SourceGraphic" in2="BackgroundImageFix" result="shape"/>
<feColorMatrix in="SourceAlpha" type="matrix" values="0 0 0 0 0 0 0 0 0 0 0 0 0 0 0 0 0 0 127 0" result="hardAlpha"/>
<feOffset dx="1.24084" dy="1.86126"/>
<feComposite in2="hardAlpha" operator="arithmetic" k2="-1" k3="1"/>
<feColorMatrix type="matrix" values="0 0 0 0 0.968627 0 0 0 0 0.862745 0 0 0 0 0.654902 0 0 0 1 0"/>
<feBlend mode="normal" in2="shape" result="effect1_innerShadow_62_16988"/>
</filter>
<filter id="filter1_i_62_16988" x="-5.36157" y="113.146" width="94.2158" height="137.457" filterUnits="userSpaceOnUse" color-interpolation-filters="sRGB">
<feFlood flood-opacity="0" result="BackgroundImageFix"/>
<feBlend mode="normal" in="SourceGraphic" in2="BackgroundImageFix" result="shape"/>
<feColorMatrix in="SourceAlpha" type="matrix" values="0 0 0 0 0 0 0 0 0 0 0 0 0 0 0 0 0 0 127 0" result="hardAlpha"/>
<feOffset dx="1.14548" dy="0.572739"/>
<feComposite in2="hardAlpha" operator="arithmetic" k2="-1" k3="1"/>
<feColorMatrix type="matrix" values="0 0 0 0 0.96741 0 0 0 0 0.862863 0 0 0 0 0.653771 0 0 0 1 0"/>
<feBlend mode="normal" in2="shape" result="effect1_innerShadow_62_16988"/>
</filter>
<filter id="filter2_i_62_16988" x="29.0034" y="0" width="205.39" height="107.983" filterUnits="userSpaceOnUse" color-interpolation-filters="sRGB">
<feFlood flood-opacity="0" result="BackgroundImageFix"/>
<feBlend mode="normal" in="SourceGraphic" in2="BackgroundImageFix" result="shape"/>
<feColorMatrix in="SourceAlpha" type="matrix" values="0 0 0 0 0 0 0 0 0 0 0 0 0 0 0 0 0 0 127 0" result="hardAlpha"/>
<feOffset dx="0.572739" dy="0.572739"/>
<feComposite in2="hardAlpha" operator="arithmetic" k2="-1" k3="1"/>
<feColorMatrix type="matrix" values="0 0 0 0 0.968627 0 0 0 0 0.862745 0 0 0 0 0.654902 0 0 0 1 0"/>
<feBlend mode="normal" in2="shape" result="effect1_innerShadow_62_16988"/>
</filter>
<filter id="filter3_i_62_16988" x="151.568" y="79.9258" width="36.0825" height="54.9834" filterUnits="userSpaceOnUse" color-interpolation-filters="sRGB">
<feFlood flood-opacity="0" result="BackgroundImageFix"/>
<feBlend mode="normal" in="SourceGraphic" in2="BackgroundImageFix" result="shape"/>
<feColorMatrix in="SourceAlpha" type="matrix" values="0 0 0 0 0 0 0 0 0 0 0 0 0 0 0 0 0 0 127 0" result="hardAlpha"/>
<feOffset dx="0.572739" dy="0.572739"/>
<feComposite in2="hardAlpha" operator="arithmetic" k2="-1" k3="1"/>
<feColorMatrix type="matrix" values="0 0 0 0 0.984314 0 0 0 0 0.854902 0 0 0 0 0.596078 0 0 0 1 0"/>
<feBlend mode="normal" in2="shape" result="effect1_innerShadow_62_16988"/>
</filter>
<clipPath id="clip0_62_16988">
<rect width="414" height="439" fill="white"/>
</clipPath>
</defs>
</svg>
