<svg width="414" height="439" viewBox="0 0 414 439" fill="none" xmlns="http://www.w3.org/2000/svg">
<g clip-path="url(#clip0_7203_7989)">
<path d="M80.5363 428.602V415.359L72.0883 412.391C84.3264 408.738 94.0835 409.955 97.4322 411.021L120.036 418.572V405.313C115.926 403.943 104.995 399.895 97.4322 397.566C89.6679 395.175 80.0035 397.093 75.5131 398.235C62.179 400.792 58.9977 404.628 59.0738 406.226V419.469C59.0738 421.113 61.3571 422.133 62.4987 422.437L80.5363 428.602Z" fill="#647B8A"/>
<path d="M-85 396.99V383.865L39.6647 426.105V439.348L-85 396.99Z" fill="#E4EDF2"/>
<path d="M80.7629 428.616V415.373L39.4363 426.104V439.347L80.7629 428.616Z" fill="#587284"/>
<path d="M152 410.123V397.108L120.035 405.328V418.571L152 410.123Z" fill="#587284"/>
<path d="M62.6599 368.241V381.256L96.4518 392.9L113.165 385.782C115.905 385.052 116.59 383.499 116.59 382.814V370.716C116.59 368.539 116.209 367.707 115.706 367.195C114.74 366.212 106.663 363.581 101.247 362.762C92.1767 361.39 85.34 361.924 82.9807 362.762L62.6599 368.241Z" fill="#5B7180"/>
<path d="M26.422 355.096L-85 383.864L-48.3953 396.354L-13.0314 408.762L39.6647 426.104L80.763 415.373L61.5838 408.752C58.4634 407.23 56.5607 403.089 73.9133 398.706C78.0231 397.488 88.2063 395.509 96.0607 397.336C96.6696 397.488 98.5723 398.021 101.312 398.934C104.052 399.847 114.935 403.576 120.035 405.327L152 397.107L26.422 355.096Z" fill="#AECBDE"/>
<path d="M150.759 397.284L98.9543 379.602L107.33 377.431C115.706 375.259 120.452 368.224 111.983 363.471C104.848 359.468 93.0603 359.439 78.7907 363.471L62.97 367.475L26.6755 355.095L-3.1046 362.85C6.5119 366.263 10.8569 367.784 11.4753 368.124C19.8509 372.731 11.8889 378.981 6.8221 380.532C-6.57895 384.751 -19.8559 383.221 -23.2682 382.083L-45.2931 374.018L-84.9999 384.255L4.03023 389.839L39.3941 426.134L62.97 397.284L95.542 393.562L150.759 397.284Z" fill="#AECBDE"/>
<path opacity="0.4" fill-rule="evenodd" clip-rule="evenodd" d="M72.2766 412.483L75.0685 411.553C75.254 410.068 74.6173 408.584 73.1254 407.603L75.9989 398.214L64.4948 391.122C65.3361 390.284 65.7599 389.465 65.8744 388.786L62.4621 384.133C57.9651 382.94 52.6251 384.157 45.6645 385.743L45.6642 385.743C44.0211 386.117 42.2877 386.512 40.4537 386.901C38.4013 387.336 35.143 386.658 32.063 386.018C25.6168 384.677 19.952 383.499 27.7589 393.024C27.7589 393.024 29.2277 393.83 32.8161 395.651C34.9211 396.719 39.9549 396.85 45.2595 396.456L60.4885 404.418L61.4191 408.761L63.8765 409.484L72.2766 412.483Z" fill="#071821"/>
<g filter="url(#filter0_i_7203_7989)">
<path d="M62.6598 386.736C60.4883 392.009 53.91 393.561 43.1166 393.561C35.9817 393.561 25.1244 391.389 23.5734 386.736V379.382C26.3614 375.511 34.7513 375.568 43.1166 375.568C51.017 375.568 59.5791 376.049 62.6598 379.583V386.736Z" fill="#B2913C"/>
<ellipse cx="43.1166" cy="379.291" rx="19.5432" ry="7.44503" fill="#DCB551"/>
<path d="M55.2148 378.797L49.1657 352.613H36.8435L31.0184 378.797C31.0184 378.797 35.9473 381.773 43.3406 381.773C50.734 381.773 55.2148 378.797 55.2148 378.797Z" fill="#B2913C"/>
<ellipse cx="43.1162" cy="344.388" rx="10.6934" ry="10.3882" fill="#DCB551"/>
</g>
<path d="M347.612 240.736V229.632L340.528 227.143C350.791 224.079 358.972 225.1 361.781 225.994L380.735 232.325V221.207C377.289 220.059 368.123 216.664 361.781 214.711C355.27 212.706 347.166 214.315 343.4 215.272C332.219 217.416 329.551 220.633 329.615 221.973V233.078C329.615 234.456 331.53 235.312 332.487 235.567L347.612 240.736Z" fill="#647B8A"/>
<path d="M244.489 206.084V194.979L237.405 192.49C247.667 189.427 255.849 190.448 258.657 191.341L277.612 197.673V186.555C274.166 185.406 264.999 182.011 258.657 180.058C252.146 178.053 244.179 179.871 240.277 180.619C229.096 182.764 226.428 185.98 226.492 187.321V198.425C226.492 199.804 228.406 200.659 229.364 200.914L244.489 206.084Z" fill="#E9F5FD"/>
<path d="M347.803 240.748V229.644L313.373 238.407V249.332L347.803 240.748Z" fill="#587284"/>
<path d="M407.538 225.241V214.328L380.734 221.221V232.325L407.538 225.241Z" fill="#587284"/>
<path d="M302.235 179.098L208.802 203.029L239.497 213.434L268.891 215.255L278.516 220.978L269.151 223.839L313.373 238.407L347.803 229.643L331.72 224.091C329.103 222.815 327.508 219.343 342.059 215.667C345.505 214.646 354.044 212.986 360.631 214.518C361.141 214.646 362.737 215.092 365.034 215.858C367.332 216.624 376.458 219.751 380.734 221.219L407.539 214.327L302.235 179.098Z" fill="#91B5CE"/>
<path d="M208.802 214.036V203.03L239.497 213.243V224.168L208.802 214.036Z" fill="#E9F5FD"/>
<path d="M276.832 206.959C288.013 209.103 290.681 212.319 290.617 213.66C290.572 214.93 287.88 218.238 277.475 221.305C273.574 215.843 256.612 219.111 253.804 220.005L239.497 224.012V213.241C242.358 212.461 252.243 209.86 258.746 208.299C265.371 206.709 273.053 206.234 276.832 206.959Z" fill="#C9D9E4"/>
<path d="M269.151 234.766V223.841L313.373 238.408V249.333L269.151 234.766Z" fill="#E9F5FD"/>
<path d="M302.235 179.098L208.802 203.222L239.497 213.434L246.78 211.614C258.226 209.012 265.744 208.316 274.354 209.272C283.718 210.313 290.482 218.377 275.134 222.019L268.891 223.839L313.34 238.642L347.803 229.643L321.957 226.181L334.443 212.394L361.236 211.093L380.734 221.219L407.539 214.327L302.235 179.098Z" fill="#91B5CE"/>
<path d="M238.978 180.572C227.797 182.716 226.429 185.562 226.493 186.902C226.485 187.734 228.398 190.007 236.106 192.442L243.191 194.931L277.215 186.382C273.769 185.233 264.828 181.832 258.486 179.879C251.975 177.874 242.881 179.823 238.978 180.572Z" fill="#91B5CE"/>
<path d="M159.687 324.802V313.697L152.603 311.208C162.866 308.144 171.047 309.166 173.855 310.059L192.81 316.391V305.273C189.364 304.124 180.198 300.729 173.855 298.776C167.345 296.771 159.377 298.589 155.475 299.337C144.294 301.482 141.626 304.698 141.69 306.038V317.143C141.69 318.522 143.605 319.377 144.562 319.632L159.687 324.802Z" fill="#647B8A"/>
<path d="M154.177 299.288C142.995 301.433 141.627 304.279 141.691 305.619C141.684 306.451 143.51 308.642 151.305 311.159L160.158 313.845L192.414 305.099C188.967 303.95 180.026 300.549 173.684 298.596C167.174 296.591 158.079 298.54 154.177 299.288Z" fill="#89ABC2"/>
<path d="M322.737 344.638V333.725L294.383 340.896V351.562L322.737 344.638Z" fill="#7894A8"/>
<path d="M124 333.627V322.621L151.573 331.793V341.418L124 333.627Z" fill="#6A8394"/>
<path d="M190.112 355.252V344.327C190.112 344.327 196.055 345.06 194.754 339.857C193.454 334.655 174.204 333.614 165.506 336.523L151.053 340.53L151.316 331.367C154.206 330.587 163.929 327.466 170.499 325.905C177.191 324.315 184.965 322.52 188.769 323.477C200.064 325.621 202.295 327.205 202.558 330.327V340.732C202.558 342.111 200.761 343.517 199.794 343.772L190.112 355.252Z" fill="#5B7180"/>
<path d="M188.771 354.683V344.798L228.571 357.804V368.99L188.771 354.683Z" fill="#6A8394"/>
<path d="M264.468 358.846V348.701L228.571 357.806V368.991L264.468 358.846Z" fill="#587284"/>
<path d="M263.688 348.961L228.538 358.041L188.772 344.799L193.714 342.718C201.518 339.336 201.518 331.161 190.072 327.89C182.4 325.698 175.505 325.809 164.06 328.411L151.573 331.792L124 322.62L186.43 324.769L203.079 318.786L215.044 313.323L217.433 298.496L243.398 307.34C241.959 307.861 238.56 308.797 235.855 312.543C233.149 316.289 234.034 320.607 241.837 323.468C245.727 324.895 259.786 327.89 271.232 324.769L283.718 320.607L322.737 333.725L295.932 340.618L263.688 348.961Z" fill="#89ABC2"/>
<path d="M247.821 309V319.913L276.157 329.678L290.172 323.709C292.469 323.096 293.043 321.794 293.043 321.22V311.075C293.043 310.003 292.724 308.552 292.302 308.122C291.493 307.298 284.719 305.092 280.178 304.405C272.572 303.254 266.839 303.703 264.861 304.405L247.821 309Z" fill="#5B7180"/>
<path d="M321.697 333.613L278.255 318.786L285.279 316.965C292.302 315.144 296.282 309.244 289.181 305.259C283.198 301.902 273.313 301.877 261.347 305.259L248.081 308.616L217.646 298.235L192.674 304.738L157.296 314.103L124 322.687L198.657 327.37L228.311 357.805L248.081 333.613L275.394 330.491L321.697 333.613Z" fill="#89ABC2"/>
<path d="M371.95 335.726V324.622L364.866 322.133C375.129 319.069 383.31 320.09 386.119 320.984L405.073 327.315V316.197C401.627 315.049 392.461 311.654 386.119 309.701C379.608 307.696 371.641 309.514 367.738 310.262C356.557 312.406 353.889 315.623 353.953 316.963V328.068C353.953 329.446 355.868 330.302 356.825 330.557L371.95 335.726Z" fill="#647B8A"/>
<path d="M366.44 310.214C355.258 312.358 353.89 315.204 353.954 316.544C353.947 317.376 355.859 319.649 363.568 322.084L370.652 324.573L404.677 316.024C401.23 314.875 392.29 311.474 385.947 309.521C379.437 307.516 370.342 309.465 366.44 310.214Z" fill="#89ABC2"/>
<path d="M404.156 315.404V326.85L411.847 329.673C401.585 332.736 393.403 331.715 390.595 330.822L371.64 324.571V335.608C375.086 336.757 384.253 340.151 390.595 342.104C397.106 344.109 405.21 342.501 408.975 341.543C420.156 339.399 422.824 336.182 422.76 334.842V323.738C422.76 322.359 421.761 321.277 420.804 321.022L404.156 315.404Z" fill="#BBBBBB"/>
<path d="M336.263 344.032V333.026L366.958 343.239V354.164L336.263 344.032Z" fill="#6A8394"/>
<path d="M391.15 362.961V352.036L399.734 349.435C395.832 343.972 378.871 347.241 376.063 348.134L361.756 352.141V341.371C364.617 340.59 374.502 337.989 381.005 336.428C387.629 334.838 395.325 334.131 399.091 335.088C410.272 337.232 412.94 340.449 412.876 341.789V352.894C412.876 354.272 410.961 355.127 410.004 355.383L391.15 362.961Z" fill="#647B8A"/>
<path d="M359.415 346.325L359.155 356.295L387.491 366.06L401.506 360.091C403.803 359.478 404.377 358.176 404.377 357.602V347.457C404.377 346.385 403.798 345.193 403.376 344.764C402.567 343.94 396.053 341.474 391.512 340.787C383.906 339.636 378.301 341.2 376.323 341.902L367.739 344.244L359.415 346.325Z" fill="#5B7180"/>
<path d="M399.994 365.089V354.944L440.574 368.355V379.464L399.994 365.089Z" fill="#6A8394"/>
<path d="M474.911 359.626L440.801 368.446L399.994 354.944L404.156 352.603C410.659 348.701 406.758 342.068 401.815 339.596C394.381 335.879 386.208 335.434 374.762 338.036L361.756 341.677L336.263 333.025L398.694 335.174L415.342 329.192L427.308 323.729L429.696 308.901L455.661 317.746C454.222 318.266 450.823 319.202 448.118 322.948C445.412 326.694 446.297 331.012 454.101 333.874C457.991 335.3 472.049 338.296 483.495 335.174L495.981 331.012L535 344.13L508.195 351.023L495.981 341.677L467.107 339.336L449.678 355.464L474.911 359.626Z" fill="#89ABC2"/>
<path d="M429.696 309.161L336.263 333.285L361.756 341.677L373.461 327.63L413.781 335.694L419.504 355.724L399.994 354.943L440.801 368.706L475.264 359.707L459.181 354.155C456.565 352.878 454.969 349.406 469.52 345.73C472.967 344.709 481.506 343.05 488.092 344.581C488.603 344.709 490.198 345.156 492.496 345.922C494.793 346.688 503.919 349.815 508.195 351.283L535 344.39L429.696 309.161Z" fill="#89ABC2"/>
<path d="M533.959 344.018L490.518 329.191L497.542 327.37C504.565 325.549 508.545 319.649 501.444 315.664C495.461 312.307 485.576 312.283 473.61 315.664L460.344 319.021L429.909 308.64L404.156 315.404L371.12 323.988L336.263 333.092L410.92 337.775L440.574 368.21L460.344 344.018L487.657 340.897L533.959 344.018Z" fill="#89ABC2"/>
<path d="M302.967 340.637V352.082L309.21 354.163C324.557 359.366 292.214 360.519 289.406 359.626L265.769 350.261V359.626C269.215 360.775 283.064 365.384 289.406 367.337C295.917 369.342 304.021 367.733 307.786 366.776C318.967 364.631 321.635 361.415 321.571 360.075V348.97C321.571 347.591 320.572 346.509 319.615 346.254L302.967 340.637Z" fill="#5C7180"/>
<path d="M433.811 380.276V369.362L407.006 376.255V387.36L433.811 380.276Z" fill="#4C6577"/>
<path d="M235.074 369.265V358.259L265.769 368.471V379.397L235.074 369.265Z" fill="#6A8394"/>
<path d="M295.423 339.597L297.765 351.303L305.456 352.931C295.193 355.994 287.011 354.973 284.203 354.079L265.769 347.401V359.107C269.215 360.255 277.861 363.409 284.203 365.362C290.714 367.367 298.818 365.759 302.584 364.801C313.765 362.657 313.436 359.146 313.372 357.806L313.372 347.921C313.372 345.58 308.69 344.539 307.389 344.019L295.423 339.597Z" fill="#6A8394"/>
<path d="M295.163 390.06V379.134L303.748 376.533C299.846 371.071 282.884 374.339 280.076 375.233L265.769 379.24V368.469C268.631 367.689 278.515 365.088 285.019 363.527C291.643 361.937 299.339 361.229 303.104 362.186C314.285 364.331 316.953 367.547 316.889 368.888V379.992C316.889 381.371 314.975 382.226 314.017 382.481L295.163 390.06Z" fill="#647B8A"/>
<path d="M295.163 390.06V378.875L339.385 393.586V404.695L295.163 390.06Z" fill="#6A8394"/>
<path d="M373.771 395.717L373.982 385.119L366.698 382.778C379.184 378.356 385.131 380.081 387.94 380.974L407.018 387.352V376.275C403.572 375.126 394.282 371.645 387.94 369.692C381.429 367.687 373.325 369.295 369.559 370.253C358.378 372.397 355.71 375.613 355.774 376.954V388.058C355.774 389.437 357.689 390.292 358.646 390.547L373.771 395.717Z" fill="#647B8A"/>
<path d="M374.075 395.784V384.938L339.42 393.678V404.782L374.075 395.784Z" fill="#4C6577"/>
<path d="M373.722 384.858L339.612 393.677L295.163 378.875L301.406 377.054C316.754 373.412 309.99 365.348 300.626 364.308C292.017 363.351 284.498 364.047 273.052 366.649L265.769 368.47L235.074 358.257L297.504 360.406L315.713 358.585L326.118 348.96L328.507 334.133L354.472 342.977C353.033 343.497 349.634 344.434 346.928 348.18C344.223 351.925 345.108 356.244 352.911 359.105C356.801 360.531 370.86 363.527 382.306 360.406L394.792 356.244L433.811 369.362L407.006 376.254L394.792 366.909L365.918 364.568L348.489 380.696L373.722 384.858Z" fill="#89ABC2"/>
<path d="M328.507 334.394L433.811 369.622L407.006 376.515C402.73 375.047 393.604 371.92 391.306 371.154C389.009 370.388 387.413 369.942 386.903 369.814C380.317 368.282 371.777 369.942 368.331 370.963C353.78 374.639 355.376 378.111 357.992 379.387L374.075 384.939L339.612 393.938L295.163 378.875L318.315 380.956L312.592 360.926L294.32 359.265L280.856 360.926L274.964 360.616L265.769 368.47L235.074 358.518L274.964 360.616L278.255 357.805L294.32 359.265L320.916 355.984L328.507 334.394Z" fill="#89ABC2"/>
<path d="M432.77 369.251L389.329 354.423L396.353 352.602C403.376 350.782 407.356 344.882 400.254 340.897C394.272 337.54 384.387 337.515 372.421 340.897L359.154 344.254L328.72 333.873L302.967 340.636L337.824 346.359L330.28 360.406L266.289 357.024L264.728 350.521L235.074 358.325L309.73 363.008L339.385 393.442L359.154 369.251L386.468 366.129L432.77 369.251Z" fill="#D9D9D9"/>
<path d="M432.77 369.251L389.329 354.423L396.353 352.602C403.376 350.782 407.356 344.882 400.254 340.897C394.272 337.54 384.387 337.515 372.421 340.897L359.154 344.254L328.72 333.873L302.967 340.636C311.031 343.498 312.332 343.498 314.933 345.058C317.841 346.803 317.014 351.822 313.112 354.683C309.21 357.544 294.383 360.146 281.116 355.463L265.769 350.261L235.074 358.325L309.73 363.008L339.385 393.442L359.154 369.251L386.468 366.129L432.77 369.251Z" fill="#89ABC2"/>
<path d="M310.511 345.06L295.424 339.597L265.769 347.401L282.157 353.384C286.059 354.944 295.424 357.026 307.91 353.644C311.578 352.65 313.372 350.302 313.372 347.921C313.372 346.543 311.812 345.58 310.511 345.06Z" fill="#89ABC2"/>
<path opacity="0.5" fill-rule="evenodd" clip-rule="evenodd" d="M419.551 326.328L413.756 326.612L407.713 328.067L417.494 331.335L395.572 337.253L397.579 337.849L419.108 331.874L433.944 336.831L406.758 344.277L407.172 345.249L435.56 337.37L450.718 342.435L418.115 351.341L407.538 347.919L407.538 348.179L407.278 349.219L406.758 350.26L405.83 351.341L404.937 352.081L404.357 352.487L438.715 363.966L443.702 363.787L443.726 363.796L443.772 363.785L443.803 363.784L443.792 363.78L450.566 362.178L436.741 357.561L469.108 348.579L469.108 353.139L469.108 357.562L475.385 356.001L475.385 355.821C475.862 355.714 476.382 355.599 476.946 355.479C481.368 354.698 483.969 354.958 483.969 354.958C484.12 353.75 483.657 352.454 482.513 351.558L485.79 344.361L475.183 337.591C475.905 336.88 476.268 336.184 476.365 335.607L473.504 331.705C469.733 330.705 465.255 331.725 459.418 333.055L459.418 333.055L459.418 333.055C458.04 333.369 456.587 333.7 455.049 334.026C453.328 334.391 450.595 333.823 448.013 333.286C444.591 332.574 441.432 331.917 441.234 333.557L419.551 326.328ZM365.397 339.47L403.896 352.333L403.896 346.618L403.184 346.355L403.975 346.136L403.975 345.577L403.896 345.057L401.337 345.739L386.728 340.86L394.19 338.789L391.67 338.554L384.882 340.244L377.142 337.659L371.441 338.016L365.397 339.47ZM434.894 356.944L419.963 351.958L452.334 342.975L467.492 348.039L434.894 356.944Z" fill="#071821" fill-opacity="0.8"/>
<path d="M335.743 244.13L335.743 232.944L338.864 232.164L341.726 233.465L341.726 242.829L335.743 244.13Z" fill="#133141" fill-opacity="0.3"/>
<path d="M380.485 232.684L380.485 221.498L383.606 220.718L386.468 222.018L386.468 231.383L380.485 232.684Z" fill="#133141" fill-opacity="0.3"/>
<path d="M383.018 221.321L390.084 219.968L418.647 327.651L411.84 329.133L383.018 221.321Z" fill="#832E30"/>
<path d="M379.431 219.393L383.278 221.328L411.91 329.135L407.932 327.215L379.431 219.393Z" fill="#AA4245"/>
<path d="M385.472 218.01L390.084 219.969L383.173 221.361L379.431 219.393L385.472 218.01Z" fill="#C7595C"/>
<path d="M347.093 248.103L385.983 235.461L385.43 233.623L346.54 246.264L347.093 248.103Z" fill="#832E30"/>
<path d="M383.869 233.578L385.43 233.624L346.54 246.266L345.255 245.707L383.869 233.578Z" fill="#C7595C"/>
<path d="M353.665 272.239L392.555 259.597L392.002 257.759L353.112 270.401L353.665 272.239Z" fill="#832E30"/>
<path d="M390.442 257.714L392.002 257.76L353.112 270.402L351.827 269.843L390.442 257.714Z" fill="#C7595C"/>
<path d="M360.222 296.896L399.112 284.255L398.559 282.417L359.669 295.058L360.222 296.896Z" fill="#832E30"/>
<path d="M396.999 282.37L398.559 282.416L359.669 295.058L358.384 294.499L396.999 282.37Z" fill="#C7595C"/>
<path d="M366.779 321.553L405.669 308.911L405.116 307.073L366.226 319.715L366.779 321.553Z" fill="#832E30"/>
<path d="M403.556 307.028L405.116 307.074L366.227 319.716L364.942 319.158L403.556 307.028Z" fill="#C7595C"/>
<path d="M339.424 234.606L346.499 232.994L375.053 340.937L368.247 342.418L339.424 234.606Z" fill="#832E30"/>
<path d="M335.838 232.677L339.684 234.613L368.316 342.419L364.339 340.499L335.838 232.677Z" fill="#AA4245"/>
<path d="M341.879 231.295L346.499 232.993L339.579 234.645L335.838 232.677L341.879 231.295Z" fill="#C7595C"/>
<path opacity="0.5" d="M185.947 303.056C188.058 302.559 190.309 302.583 191.953 303.118L410.495 374.316C411.922 374.781 412.741 375.584 412.741 376.518L412.741 383.582C412.741 384.967 410.951 386.387 408.288 387.113L407.018 387.46L378.925 384.858L370.849 383.671C370.339 383.596 369.865 383.485 369.439 383.34L358.291 379.554C357.027 379.125 356.341 378.385 356.422 377.538V377.538C356.505 376.676 355.792 375.925 354.487 375.5L164.001 313.442C160.037 312.151 161.556 308.796 166.645 307.598L185.947 303.056Z" fill="#133141"/>
<path d="M353.573 275.652L180.708 218.637L189.357 217.295C190.586 217.104 191.843 217.21 193.022 217.603L361.111 273.632L353.573 275.652Z" fill="#457995"/>
<path d="M357.236 366.718C359.47 366.119 360.976 364.087 360.976 361.182L368.514 359.162C368.514 362.067 367.008 364.099 364.774 364.698L357.236 366.718Z" fill="#2D607C"/>
<path d="M360.976 361.183V285.923L368.514 283.903V359.163L360.976 361.183Z" fill="#2D607C"/>
<path d="M360.976 285.923C360.976 281.613 357.662 277.014 353.573 275.651L361.111 273.631C365.2 274.994 368.514 279.593 368.514 283.903L360.976 285.923Z" fill="#376B87"/>
<rect x="0.987112" y="1.36954" width="192.599" height="88.7869" rx="6.7633" transform="matrix(0.948683 0.316228 0 1 176.337 216.243)" fill="#E9F5FD" stroke="#BED1E0" stroke-width="2.08101"/>
<path d="M188.713 274.654L202.671 279.307L202.77 281.548L195.557 296.921L190.748 295.318L197.578 281.738L188.899 278.845L188.713 274.654ZM217.598 295.465L220.638 296.479L220.825 300.67L217.784 299.657L217.995 304.401L213.822 303.01L213.611 298.265L204.987 295.391L204.874 292.83L213.5 282.917L217.093 284.114L217.598 295.465ZM209.997 292.932L213.424 294.074L213.199 289.01L209.997 292.932ZM229.777 308.615C225.963 307.343 222.3 303.972 222.091 299.257L226.225 300.377C226.311 302.327 227.849 303.843 229.729 304.47C231.221 304.967 232.768 304.852 232.678 302.815C232.57 300.399 230.421 299.826 228.569 299.208L228.416 295.774C231.042 296.649 231.359 295.809 231.315 294.819C231.25 293.364 230.224 292.333 228.98 291.919C227.598 291.458 226.782 292.075 226.817 293.492L222.686 291.828C222.51 287.87 225.477 286.622 228.96 287.783C232.304 288.898 235.298 291.932 235.459 295.541C235.534 297.229 234.959 298.385 233.775 298.707C235.89 300.359 236.771 302.401 236.86 304.409C237.062 308.95 233.536 309.868 229.777 308.615ZM247.235 314.147L246.333 293.861L250.672 295.307L251.015 303.02L258.505 305.517L258.163 297.804L262.502 299.25L263.404 319.537L259.064 318.091L258.692 309.708L251.201 307.211L251.574 315.594L247.235 314.147ZM271.949 307.933C275.818 309.223 278.235 312.151 278.387 315.556L278.792 324.666L274.978 323.395L274.638 321.877C273.601 323.051 272.145 322.766 271.15 322.434C268.082 321.412 265.782 318.667 265.651 315.727C265.577 314.068 266.243 313.114 267.374 312.832C268.209 312.622 269.276 312.749 270.492 313.154L274.251 314.407L274.241 314.174C274.196 313.156 273.334 312.152 271.814 311.645C270.791 311.304 269.755 311.274 268.594 312.091L265.463 308.438C267.093 307.118 269.572 307.141 271.949 307.933ZM271.657 319.134C273.149 319.631 274.375 319.036 274.395 317.638L271.244 316.588C270.802 316.44 270.446 316.408 270.205 316.499C269.938 316.611 269.813 316.856 269.828 317.205C269.861 317.933 270.468 318.738 271.657 319.134ZM287.336 327.83C282.582 326.245 280.286 321.752 280.123 318.085C279.955 314.301 281.999 311.284 286.642 312.831C289.517 313.79 291.764 315.944 292.917 319.224L289.066 319.575C288.813 318.171 287.917 317.013 286.812 316.644C284.877 315.999 284.324 317.65 284.407 319.513C284.488 321.347 285.149 323.345 287.111 323.999C288.189 324.358 289.036 323.809 289.228 322.611L293.056 325.407C292.264 327.809 290.183 328.779 287.336 327.83ZM295.215 330.141L294.313 309.854L298.487 311.245L298.961 321.927L302.675 318.491L308.231 320.343L303.496 324.098L309.338 334.849L304.391 333.199L300.587 326.024L299.203 327.37L299.388 331.532L295.215 330.141ZM321.697 332.029C321.716 332.437 321.705 332.806 321.677 333.398L312.721 330.413C312.938 331.604 313.806 332.753 315.602 333.352C316.625 333.693 317.685 333.645 318.415 332.913L321.408 336.549C320.047 337.787 318.155 338.103 315.751 337.301C310.72 335.625 308.648 331.263 308.483 327.567C308.324 323.987 309.999 320.617 314.863 322.238C319.12 323.657 321.501 327.605 321.697 332.029ZM312.523 327.164L317.636 328.869C317.521 327.511 316.352 326.319 314.97 325.858C313.228 325.278 312.647 326.288 312.523 327.164ZM317.605 329.403L317.632 329.383L317.605 329.403ZM331.142 327.665C332.082 327.978 332.923 328.516 333.92 329.508L332.106 332.803C331.707 332.412 330.977 331.911 330.314 331.69C328.849 331.201 327.93 331.985 328.043 334.517L328.339 341.182L324.166 339.791L323.528 325.442L327.729 326.842L327.826 329.025C328.395 327.724 329.677 327.176 331.142 327.665ZM339.757 345.304C336.745 344.299 334.497 341.514 333.768 339.207L336.989 338.761C337.3 339.639 337.723 341.185 339.575 341.802C340.735 342.189 341.044 341.775 341.024 341.339C340.936 339.36 334.458 338.175 334.233 333.111C334.089 329.88 336.714 329.522 339.174 330.342C341.689 331.18 343.543 333.06 344.705 335.311L341.581 336.105C341.221 335.354 340.617 334.006 339.262 333.554C338.489 333.296 338.117 333.517 338.138 333.982C338.222 335.874 344.847 336.678 345.088 342.091C345.248 345.7 342.3 346.151 339.757 345.304Z" fill="#305E77"/>
<path d="M196.438 242.198L200.611 243.589L201.513 263.876L197.34 262.485L196.73 248.776L192.419 247.339L192.265 243.875L194.448 244.603C195.83 245.064 196.552 244.759 196.479 243.13L196.438 242.198ZM207.129 245.762L221.087 250.414L221.186 252.655L213.973 268.029L209.164 266.426L215.994 252.846L207.315 249.953L207.129 245.762ZM231.62 260.234C235.435 261.505 238.442 265.461 238.618 269.42C238.81 273.727 235.624 275.561 231.671 274.244C227.664 272.908 224.215 268.834 224.026 264.584C223.968 263.275 224.266 262.026 224.958 261.053L230.258 253.471L235.067 255.075L231.206 260.096L231.62 260.234ZM231.485 270.053C233.171 270.615 234.476 269.96 234.389 268.01C234.303 266.06 232.926 264.483 231.212 263.912C229.498 263.34 228.193 263.995 228.281 265.974C228.368 267.924 229.771 269.482 231.485 270.053ZM248.907 279.674L248.006 259.387L254.777 261.645C259.227 263.128 261.553 265.824 261.731 269.841C261.911 273.886 259.711 275.246 255.317 273.782L252.857 272.962L253.219 281.111L248.907 279.674ZM252.671 268.77L254.688 269.443C256.457 270.033 257.467 270.082 257.394 268.453C257.326 266.91 256.428 266.324 254.521 265.688L252.504 265.016L252.671 268.77ZM270.917 272.559C271.856 272.872 272.697 273.41 273.694 274.402L271.88 277.697C271.482 277.306 270.751 276.805 270.088 276.584C268.623 276.095 267.705 276.879 267.818 279.411L268.114 286.076L263.94 284.685L263.303 270.336L267.504 271.736L267.601 273.919C268.169 272.618 269.452 272.07 270.917 272.559ZM280.563 290.541C276.141 289.067 273.384 284.621 273.209 280.692C273.034 276.763 275.447 274.069 279.897 275.552C284.292 277.017 287.046 281.405 287.222 285.363C287.397 289.292 284.93 291.997 280.563 290.541ZM280.394 286.728C282.632 287.475 283.129 285.776 283.049 283.972C282.968 282.167 282.333 280.12 280.066 279.365C277.8 278.609 277.301 280.249 277.383 282.083C277.46 283.829 278.1 285.964 280.394 286.728ZM288.873 276.91L288.697 272.951L292.954 274.37L293.13 278.328L288.873 276.91ZM290.402 299.671C289.601 299.403 288.598 298.897 287.756 298.33L287.573 294.828C287.991 295.053 288.381 295.24 288.685 295.342C289.348 295.563 289.73 295.575 289.686 294.586L288.989 278.898L293.162 280.289L293.901 296.908C294.023 299.644 292.558 300.389 290.402 299.671ZM308.849 292.715C308.867 293.123 308.856 293.492 308.828 294.085L299.873 291.1C300.089 292.29 300.957 293.44 302.754 294.038C303.776 294.379 304.836 294.331 305.566 293.6L308.559 297.235C307.199 298.474 305.307 298.789 302.902 297.988C297.872 296.311 295.799 291.95 295.635 288.253C295.476 284.673 297.15 281.303 302.015 282.925C306.271 284.343 308.652 288.291 308.849 292.715ZM299.674 287.85L304.787 289.555C304.672 288.198 303.503 287.005 302.121 286.544C300.38 285.964 299.798 286.974 299.674 287.85ZM304.756 290.089L304.783 290.07L304.756 290.089ZM316.997 302.686C312.243 301.101 309.947 296.608 309.784 292.941C309.616 289.157 311.66 286.14 316.303 287.687C319.178 288.646 321.425 290.8 322.578 294.08L318.727 294.431C318.474 293.028 317.578 291.869 316.473 291.5C314.538 290.855 313.985 292.506 314.068 294.369C314.15 296.203 314.81 298.201 316.773 298.855C317.85 299.214 318.697 298.665 318.889 297.467L322.717 300.263C321.925 302.665 319.844 303.635 316.997 302.686ZM332.571 296.78L329.088 295.619L329.353 301.586C329.378 302.139 329.431 303.332 331.144 303.903C331.697 304.088 332.3 304.174 332.899 304.173L333.023 307.569C332.153 307.594 331.275 307.445 330.307 307.123C327.737 306.266 325.388 304.279 325.225 300.611L324.942 294.237L322.759 293.51L322.607 290.104L324.791 290.832L324.696 288.707L328.699 286.859L328.937 292.214L332.419 293.375L332.571 296.78ZM340.278 310.446C337.265 309.442 335.018 306.657 334.289 304.349L337.509 303.903C337.821 304.781 338.243 306.327 340.095 306.944C341.256 307.331 341.564 306.918 341.545 306.481C341.457 304.502 334.978 303.318 334.753 298.253C334.609 295.022 337.235 294.665 339.695 295.485C342.21 296.323 344.063 298.202 345.225 300.454L342.102 301.248C341.742 300.497 341.137 299.148 339.783 298.697C339.009 298.439 338.638 298.659 338.658 299.125C338.742 301.017 345.368 301.82 345.608 307.234C345.769 310.843 342.821 311.294 340.278 310.446Z" fill="#305E77"/>
<path d="M274.028 119.002V106.777L266.23 104.037C277.527 100.664 286.534 101.788 289.626 102.772L310.493 109.742V97.5025C306.699 96.2379 296.608 92.5009 289.626 90.3508C282.458 88.1436 273.536 89.9145 269.391 90.9684C257.082 93.3291 254.145 96.8702 254.215 98.3456V110.571C254.215 112.088 256.323 113.03 257.377 113.311L274.028 119.002Z" fill="#647B8A"/>
<path d="M121.214 89.8193V77.7031L236.298 116.697V128.922L121.214 89.8193Z" fill="#6A8394"/>
<path d="M143.264 89.5184V96.3913C140.973 96.8685 141.546 106.128 140.973 110.137C148.61 113.573 155.807 116.323 168.179 112.428L183.643 104.982L171.765 114.146C168.615 115.005 157.733 117.869 150.574 119.587C143.281 121.337 134.809 122.117 130.664 121.063C118.354 118.702 115.418 115.161 115.488 113.686V101.461C115.488 99.9429 117.596 99.0015 118.649 98.7204L128.373 92.6685L143.264 89.5184Z" fill="#607685"/>
<path d="M187.608 111.71V99.6959L156.414 88.9463L140.985 95.5174C138.456 96.1919 138.11 98.2491 137.823 98.6829V109.426C137.823 110.606 139.045 111.482 139.51 111.955C140.401 112.862 146.987 116.012 151.987 116.769C160.36 118.035 166.671 117.542 168.849 116.769L187.608 111.71Z" fill="#748FA1"/>
<path d="M274.238 119.015V106.79L236.087 116.697V128.922L274.238 119.015Z" fill="#4B6578"/>
<path d="M340 101.943V89.9287L310.491 97.5167V109.742L340 101.943Z" fill="#4B6578"/>
<path d="M224.073 51.1445L121.214 77.7024L155.005 89.2317L145.269 92.0954C140.687 93.2408 133.024 99.2597 141.832 103.264C151.283 107.559 163.883 107.846 171.042 105.841L187.652 100.686L236.298 116.696L274.238 106.79L256.533 100.677C253.652 99.2719 251.895 95.4498 267.914 91.4029C271.708 90.2787 281.109 88.452 288.36 90.1382C288.922 90.2787 290.678 90.7706 293.208 91.6137C295.737 92.4568 305.784 95.8995 310.491 97.5154L340 89.9275L224.073 51.1445Z" fill="#89ABC2"/>
<path d="M201.207 126.172V138.397L209.005 141.137C197.708 144.51 188.7 143.385 185.609 142.402L164.742 135.431V147.671C168.536 148.936 178.627 152.673 185.609 154.823C192.777 157.03 201.698 155.259 205.844 154.205C218.153 151.845 221.09 148.304 221.02 146.828V134.603C221.02 133.086 218.912 132.144 217.858 131.863L201.207 126.172Z" fill="#4B6578"/>
<path d="M230.607 130.578V118.563L201.099 126.151V138.376L230.607 130.578Z" fill="#4B6578"/>
<path d="M11.8208 118.456V106.34L45.6124 117.583V129.61L11.8208 118.456Z" fill="#E4EDF2"/>
<path d="M77.972 141.35V129.323L87.4222 126.459C83.1267 120.445 64.454 124.043 61.3626 125.027L45.6122 129.439V117.581C48.7623 116.722 59.6444 113.859 66.8036 112.14C74.0963 110.39 82.5684 109.611 86.7137 110.665C99.0231 113.025 101.96 116.567 101.89 118.042V130.267C101.89 131.785 99.7819 132.726 98.728 133.007L77.972 141.35Z" fill="#ADC1CF"/>
<path d="M77.9722 141.35V129.036L126.941 145.073V157.673L77.9722 141.35Z" fill="#E4EDF2"/>
<path d="M88.2809 144.787L88.5673 132.473L84.5581 143.641L88.2809 144.787Z" fill="#133141" fill-opacity="0.3"/>
<path d="M40.7438 128.177L41.0302 115.863L37.021 127.032L40.7438 128.177Z" fill="#133141" fill-opacity="0.3"/>
<path d="M164.845 147.651V135.426L126.941 145.073V157.673L164.845 147.651Z" fill="#4B6578"/>
<path d="M217.858 131.864L201.111 125.887L164.742 135.433L185.609 142.403C188.7 143.387 197.708 144.511 209.005 141.139C213.01 140.053 221.02 137.226 221.02 134.604C221.02 133.087 218.866 132.187 217.858 131.864Z" fill="#89ABC2"/>
<path d="M114.68 79.7817L11.8208 106.34L45.6124 117.583L53.6307 115.578C66.231 112.714 74.5081 111.948 83.9859 113.001C94.2952 114.146 101.741 123.024 84.845 127.033L77.9722 129.037L126.905 145.333L164.845 135.427L201.098 126.153L230.607 118.565L187.652 104.123L173.906 108.705C161.306 112.141 145.829 108.843 141.546 107.273C132.955 104.123 131.981 99.3694 134.96 95.2457C137.938 91.122 141.68 90.091 143.264 89.5183L114.68 79.7817Z" fill="#89ABC2"/>
<path d="M55.8145 283.948V271.723L48.0158 268.983C59.3134 265.61 68.3206 266.735 71.412 267.718L92.2789 274.689V262.449C88.4849 261.184 78.3938 257.447 71.412 255.297C64.2443 253.09 55.3227 254.861 51.1774 255.915C38.868 258.275 35.9312 261.816 36.0015 263.292V275.517C36.0015 277.035 38.1092 277.976 39.1631 278.257L55.8145 283.948Z" fill="#647B8A"/>
<path d="M-96.9995 254.766V242.649L18.0846 281.643V293.868L-96.9995 254.766Z" fill="#E4EDF2"/>
<path d="M56.0241 283.962V271.737L17.8735 281.644V293.869L56.0241 283.962Z" fill="#587284"/>
<path d="M121.786 266.889V254.875L92.2776 262.463V274.688L121.786 266.889Z" fill="#4B6578"/>
<path d="M39.3119 227.655V239.669L70.5069 250.419L85.9354 243.848C88.4647 243.173 89.097 241.74 89.097 241.108V229.939C89.097 228.759 88.7455 227.162 88.281 226.689C87.3899 225.782 79.9332 223.353 74.9332 222.596C66.5604 221.33 60.2491 221.824 58.071 222.596L39.3119 227.655Z" fill="#5B7180"/>
<path d="M5.85906 216.092L-97 242.65L-63.2084 254.179L-72.0859 256.756C-77.5269 258.188 -84.9725 263.916 -76.9541 267.925C-72.3722 269.929 -59.4856 274.225 -46.3126 270.502L-30.5623 265.634L18.0841 281.643L56.0239 271.737L38.3187 265.624C35.4381 264.219 33.6816 260.397 49.7006 256.35C53.4946 255.226 62.8952 253.399 70.146 255.085C70.708 255.226 72.4645 255.718 74.9938 256.561C77.5231 257.404 87.5702 260.847 92.2775 262.463L121.786 254.875L5.85906 216.092Z" fill="#9CBBD0"/>
<path d="M-96.9998 242.862L17.8344 281.386L39.5984 254.753L69.3809 249.312L120.641 254.753L72.8173 238.43L80.5493 236.426C88.2812 234.421 92.6629 227.926 84.8448 223.539C78.2583 219.843 67.3763 219.816 54.2033 223.539L39.5984 227.235L6.70235 216.094L-31.2375 226L-13.5322 232.113C-10.6516 233.518 -8.89513 237.34 -24.9142 241.387C-28.7081 242.511 -38.1088 244.338 -45.3595 242.651C-45.9216 242.511 -47.678 242.019 -50.2074 241.176C-52.7367 240.333 -62.7837 236.89 -67.4911 235.274L-96.9998 242.862Z" fill="#9CBBD0"/>
<path opacity="0.5" d="M7.38925 233.629L92.2902 261.916L100.022 273.653L97.4448 273.653L92.2902 265.965L-5.93805 233.516L7.38925 233.629Z" fill="#0F2736"/>
<g filter="url(#filter1_i_7203_7989)">
<path d="M37.3075 117.868L29.5755 116.149L-5.36157 233.714L2.08015 235.565L37.3075 117.868Z" fill="#558EAB"/>
<path d="M41.3167 115.863L37.0212 117.868L2.00354 235.566L6.44315 233.583L41.3167 115.863Z" fill="#35637A"/>
<path d="M34.7143 114.146L29.5753 116.15L37.1357 117.907L41.3165 115.864L34.7143 114.146Z" fill="#4D829C"/>
<path d="M75.9676 148.509L33.5849 133.332L34.2531 131.327L76.6358 146.505L75.9676 148.509Z" fill="#558EAB"/>
<path d="M35.9715 131.327H34.2533L76.636 146.505L78.0678 145.932L35.9715 131.327Z" fill="#4D829C"/>
<path d="M67.9489 174.856L25.5662 159.679L26.2344 157.674L68.6171 172.852L67.9489 174.856Z" fill="#558EAB"/>
<path d="M27.9525 157.675H26.2343L68.6169 172.852L70.0488 172.28L27.9525 157.675Z" fill="#4D829C"/>
<path d="M59.9307 201.775L17.548 186.597L18.2163 184.593L60.5989 199.77L59.9307 201.775Z" fill="#558EAB"/>
<path d="M19.9344 184.593H18.2162L60.5989 199.77L62.0307 199.198L19.9344 184.593Z" fill="#4D829C"/>
<path d="M51.9121 228.693L9.52945 213.515L10.1977 211.511L52.5804 226.688L51.9121 228.693Z" fill="#558EAB"/>
<path d="M11.9158 211.511H10.1976L52.5803 226.688L54.0122 226.116L11.9158 211.511Z" fill="#4D829C"/>
<path d="M84.8451 133.904L77.1131 131.899L42.176 249.75L49.6177 251.602L84.8451 133.904Z" fill="#558EAB"/>
<path d="M88.8543 131.899L84.5588 133.904L49.5411 251.602L53.9808 249.619L88.8543 131.899Z" fill="#35637A"/>
<path d="M82.2522 130.182L77.1132 131.9L84.6736 133.944L88.8543 131.9L82.2522 130.182Z" fill="#4D829C"/>
</g>
<path opacity="0.5" d="M79.4293 123.024C79.7924 123.024 80.1683 122.972 80.5479 122.869L264.779 72.9167C269.366 71.673 271.181 64.9329 267.246 63.7559L221.454 50.0599C220.824 49.8714 220.109 49.8752 219.375 50.0711L36.0591 98.9553C31.4625 100.181 29.6288 106.942 33.573 108.121L53.4736 114.073C54.8071 114.472 55.6228 115.687 55.6228 117.273L55.6228 126.744L59.3576 125.602L62.5076 124.742L63.6531 124.456L65.0849 124.17L66.8032 123.883L71.0987 123.311L76.2534 123.024L79.4293 123.024Z" fill="#0C2837"/>
<g filter="url(#filter2_i_7203_7989)">
<path d="M234.394 3.35576C233.627 3.1215 232.736 3.10975 231.777 3.36556L224.656 1.18867C225.616 0.932867 226.507 0.944618 227.273 1.17888L234.394 3.35576Z" fill="#A1B0B9"/>
<path d="M231.777 3.36536L43.8761 53.4722L36.7559 51.2953L224.656 1.18848L231.777 3.36536Z" fill="#A1B0B9"/>
<path d="M36.1296 104.728C36.0333 106.895 37.1152 108.47 38.7906 108.983L31.6719 106.807C29.9956 106.294 28.913 104.719 29.0094 102.551L36.1296 104.728Z" fill="#EEEFF0"/>
<path d="M38.0878 60.67L36.1297 104.727L29.0094 102.551L30.9675 58.4932L38.0878 60.67Z" fill="#EEEFF0"/>
<path d="M38.0874 60.6693C38.2279 57.5093 40.8194 54.2868 43.8757 53.4718L36.7555 51.2949C33.6991 52.1099 31.1076 55.3324 30.9672 58.4924L38.0874 60.6693Z" fill="#D3D5D6"/>
</g>
<rect x="1.31993" y="1.0615" width="203.058" height="52.692" rx="4.29554" transform="matrix(0.966235 -0.257663 -0.0444006 0.999014 38.4337 55.2884)" fill="#2B546B" stroke="#204C65" stroke-width="2.86369"/>
<path d="M44.5592 89.5203L45.6744 72.7911L48.9517 71.9171L48.0444 85.5261L54.8313 83.7163L54.6233 86.8365L44.5592 89.5203ZM61.8344 73.0317C64.9722 72.195 66.783 73.4567 66.5942 76.2889L66.0949 83.7774L63.2128 84.546L63.0716 83.2399C62.1781 84.6569 60.8709 85.4298 59.7088 85.7397C57.2218 86.4029 55.5425 85.224 55.6977 82.8959C55.7905 81.5038 56.462 80.3345 57.5448 79.5036C58.3141 78.9212 59.2551 78.5053 60.4172 78.1954L63.4388 77.3896L63.4564 77.1256C63.5284 76.0455 62.8078 75.554 61.5062 75.9011C60.4835 76.1738 59.4769 76.8902 58.4752 78.2182L56.3286 76.8575C57.832 74.8534 59.7891 73.5771 61.8344 73.0317ZM60.3993 82.9152C61.8636 82.5247 63.1643 81.1641 63.2788 79.7898L60.6988 80.4778C60.048 80.6513 59.6 80.8651 59.3067 81.1555C59.015 81.4219 58.8563 81.7471 58.8323 82.1071C58.7843 82.8272 59.3302 83.2003 60.3993 82.9152ZM72.5485 82.3158C70.0847 82.9728 68.3573 81.8303 67.9396 80.2208L70.5034 78.4055C70.7327 79.0752 71.0991 80.0855 72.6563 79.6702C73.7952 79.3665 74.2536 78.6549 74.2856 78.1748C74.4072 76.3507 68.6407 78.9493 68.9272 74.653C69.092 72.1808 71.2807 70.5127 73.419 69.9425C75.4644 69.3971 76.908 70.0023 77.6856 71.3509L75.1755 73.3876C74.8701 72.8325 74.3931 72.111 73.1845 72.4333C72.4175 72.6378 71.9502 73.1396 71.9198 73.5956C71.8078 75.2758 77.6921 72.6222 77.3993 77.0145C77.2089 79.8707 74.71 81.7394 72.5485 82.3158ZM86.514 69.2088L83.6319 69.9773L83.2671 75.4497C83.2207 76.1458 83.4532 76.7675 84.6153 76.4576C85.0569 76.3398 85.5514 76.1136 86.074 75.8093L85.9027 78.3775C85.1646 78.8336 84.4361 79.1458 83.6691 79.3503C81.6237 79.8957 79.9261 79.3347 80.1117 76.5505L80.4941 70.8141L78.6347 71.3099L78.8043 68.7657L80.6637 68.2699L80.7981 66.2538L84.0959 63.0168L83.8015 67.4332L86.6836 66.6646L86.514 69.2088ZM100.201 79.4919L102.643 73.6777L99.0149 63.3763L102.501 62.4465L104.564 69.5111L107.847 61.021L111.31 60.0975L103.617 78.5808L100.201 79.4919ZM121.692 63.105C121.668 63.465 121.622 63.8072 121.547 64.2517L113.853 66.3032C113.91 67.5141 114.664 68.1853 116.314 67.7452C117.267 67.4911 118.196 66.9133 118.976 65.8331L121.028 67.2427C119.702 68.9873 118.07 70.1768 116.094 70.7036C112.003 71.7945 110.578 69.2041 110.784 66.1079C110.986 63.0837 112.781 59.446 116.732 58.3923C120.312 57.4378 121.922 59.6487 121.692 63.105ZM113.995 63.8372L118.783 62.5604C118.823 61.2767 117.83 60.7636 116.528 61.1107C114.924 61.5384 114.198 62.84 113.995 63.8372ZM128.836 55.1647C131.974 54.3279 133.784 55.5896 133.596 58.4218L133.096 65.9104L130.214 66.679L130.073 65.3728C129.179 66.7899 127.872 67.5628 126.71 67.8727C124.223 68.5359 122.544 67.357 122.699 65.0288C122.792 63.6367 123.463 62.4675 124.546 61.6366C125.316 61.0542 126.256 60.6383 127.419 60.3284L130.44 59.5226L130.458 59.2586C130.53 58.1785 129.809 57.687 128.508 58.0341C127.485 58.3068 126.478 59.0231 125.477 60.3512L123.33 58.9904C124.833 56.9864 126.79 55.7101 128.836 55.1647ZM127.401 65.0481C128.865 64.6576 130.166 63.2971 130.28 61.9228L127.7 62.6108C127.049 62.7843 126.601 62.9981 126.308 63.2885C126.016 63.5549 125.858 63.8801 125.834 64.2401C125.786 64.9602 126.332 65.3332 127.401 65.0481ZM142.884 51.4185C143.651 51.2139 144.334 51.244 145.067 51.5435L143.363 54.8506C143.03 54.7035 142.507 54.6781 141.949 54.8268C140.485 55.2173 139.606 56.4183 139.462 58.5785L139.079 64.3149L135.918 65.1578L136.707 53.325L139.891 52.4758L139.767 54.348C140.368 52.8675 141.629 51.7532 142.884 51.4185ZM153.455 60.4813L150.665 49.603L154.012 48.7104L155.369 55.0675L157.731 47.7188L160.403 47.006L161.857 53.2902L164.122 46.0143L167.492 45.1156L163.101 57.9091L160.312 58.6529L158.771 51.9676L156.291 59.7252L153.455 60.4813ZM178.331 48.0012C178.307 48.3613 178.261 48.7035 178.186 49.1479L170.492 51.1995C170.549 52.4104 171.303 53.0815 172.953 52.6415C173.906 52.3873 174.835 51.8096 175.615 50.7294L177.667 52.1389C176.341 53.8835 174.709 55.073 172.733 55.5999C168.642 56.6907 167.217 54.1004 167.423 51.0042C167.625 47.9799 169.42 44.3422 173.371 43.2886C176.951 42.334 178.561 44.545 178.331 48.0012ZM170.634 48.7335L175.422 47.4567C175.462 46.173 174.469 45.6599 173.167 46.0069C171.563 46.4346 170.837 47.7362 170.634 48.7335ZM193.313 37.9709C195.916 37.2767 197.343 38.4757 197.16 41.2119L196.643 48.9645L193.506 49.8012L193.968 42.8647C194.074 41.2806 193.472 40.7101 192.124 41.0696C190.288 41.5593 189.674 43.2317 189.46 46.448L189.159 50.9603L185.998 51.8032L187.113 35.074L190.274 34.2311L189.866 40.3515C190.677 39.1451 191.848 38.3614 193.313 37.9709ZM204.894 34.8826C208.031 34.0458 209.842 35.3075 209.653 38.1397L209.154 45.6283L206.272 46.3968L206.131 45.0907C205.237 46.5077 203.93 47.2807 202.768 47.5906C200.281 48.2538 198.602 47.0749 198.757 44.7467C198.85 43.3546 199.521 42.1854 200.604 41.3545C201.373 40.7721 202.314 40.3562 203.476 40.0462L206.498 39.2405L206.516 38.9765C206.588 37.8964 205.867 37.4049 204.565 37.752C203.543 38.0247 202.536 38.741 201.534 40.069L199.388 38.7083C200.891 36.7043 202.848 35.428 204.894 34.8826ZM203.459 44.766C204.923 44.3755 206.224 43.015 206.338 41.6407L203.758 42.3287C203.107 42.5022 202.659 42.716 202.366 43.0064C202.074 43.2728 201.916 43.598 201.892 43.958C201.844 44.6781 202.389 45.0511 203.459 44.766ZM220.089 26.2806L223.226 25.4439L222.111 42.1731L218.973 43.0098L219.044 41.9538C218.19 43.1246 216.91 43.8193 215.795 44.1168C212.75 44.9287 211.206 42.7472 211.443 39.1949C211.704 35.2827 213.923 32.4749 216.619 31.7559C217.851 31.4274 219.047 31.6269 219.69 32.257L220.089 26.2806ZM216.811 40.8516C218.717 40.3434 219.529 38.7831 219.646 37.031C219.76 35.3269 219.163 34.0007 217.257 34.509C215.653 34.9366 214.737 36.3599 214.602 38.376C214.466 40.4162 215.231 41.2731 216.811 40.8516ZM226.422 33.1495L226.641 29.8612L229.988 28.9687L229.769 32.2569L226.422 33.1495ZM225.888 41.166L226.105 37.9018L229.452 37.0093L229.235 40.2735L225.888 41.166Z" fill="#F3F5F4"/>
<path opacity="0.3" fill-rule="evenodd" clip-rule="evenodd" d="M201.455 142.767C204.712 142.853 207.451 143.846 208.27 146.793C208.308 146.929 208.347 147.062 208.387 147.192L208.445 147.229L208.402 147.238C208.859 148.691 209.461 149.748 209.916 150.548C210.947 152.358 211.23 152.856 207.411 153.666C206.633 153.83 205.803 154.031 204.943 154.238C199.527 155.545 192.929 157.137 190.801 151.947C189.676 149.204 189.032 147.49 189.202 146.323L172.133 139.672C166.978 140.101 161.968 140.019 159.931 138.985C156.618 137.304 155.262 136.56 155.262 136.56C148.055 127.767 153.285 128.854 159.236 130.092C162.079 130.683 165.087 131.309 166.981 130.907C168.675 130.549 170.275 130.184 171.792 129.838L171.792 129.838C178.218 128.374 183.147 127.251 187.299 128.352L190.449 132.648C190.339 133.295 189.926 134.08 189.098 134.88L201.455 142.767Z" fill="#071821"/>
<g filter="url(#filter3_i_7203_7989)">
<path d="M187.651 129.609C185.646 134.477 179.573 135.909 169.61 135.909C163.023 135.909 153 133.905 151.568 129.609V122.821C154.142 119.247 161.887 119.3 169.61 119.3C176.903 119.3 184.807 119.744 187.651 123.006V129.609Z" fill="#386881"/>
<ellipse cx="169.61" cy="122.735" rx="18.0413" ry="6.87287" fill="#558EAB"/>
<path d="M180.778 122.28L175.194 98.1084H163.818L158.441 122.28C158.441 122.28 162.991 125.027 169.816 125.027C176.641 125.027 180.778 122.28 180.778 122.28Z" fill="#386881"/>
<ellipse cx="169.609" cy="90.5156" rx="9.87164" ry="9.58982" fill="#558EAB"/>
</g>
</g>
<defs>
<filter id="filter0_i_7203_7989" x="23.5734" y="334" width="39.0864" height="59.5605" filterUnits="userSpaceOnUse" color-interpolation-filters="sRGB">
<feFlood flood-opacity="0" result="BackgroundImageFix"/>
<feBlend mode="normal" in="SourceGraphic" in2="BackgroundImageFix" result="shape"/>
<feColorMatrix in="SourceAlpha" type="matrix" values="0 0 0 0 0 0 0 0 0 0 0 0 0 0 0 0 0 0 127 0" result="hardAlpha"/>
<feOffset dx="1.24084" dy="1.86126"/>
<feComposite in2="hardAlpha" operator="arithmetic" k2="-1" k3="1"/>
<feColorMatrix type="matrix" values="0 0 0 0 0.968627 0 0 0 0 0.862745 0 0 0 0 0.654902 0 0 0 1 0"/>
<feBlend mode="normal" in2="shape" result="effect1_innerShadow_7203_7989"/>
</filter>
<filter id="filter1_i_7203_7989" x="-5.36157" y="114.146" width="94.2158" height="137.457" filterUnits="userSpaceOnUse" color-interpolation-filters="sRGB">
<feFlood flood-opacity="0" result="BackgroundImageFix"/>
<feBlend mode="normal" in="SourceGraphic" in2="BackgroundImageFix" result="shape"/>
<feColorMatrix in="SourceAlpha" type="matrix" values="0 0 0 0 0 0 0 0 0 0 0 0 0 0 0 0 0 0 127 0" result="hardAlpha"/>
<feOffset dx="1.14548" dy="0.572739"/>
<feComposite in2="hardAlpha" operator="arithmetic" k2="-1" k3="1"/>
<feColorMatrix type="matrix" values="0 0 0 0 0.96741 0 0 0 0 0.862863 0 0 0 0 0.653771 0 0 0 1 0"/>
<feBlend mode="normal" in2="shape" result="effect1_innerShadow_7203_7989"/>
</filter>
<filter id="filter2_i_7203_7989" x="29.0034" y="1" width="205.39" height="107.983" filterUnits="userSpaceOnUse" color-interpolation-filters="sRGB">
<feFlood flood-opacity="0" result="BackgroundImageFix"/>
<feBlend mode="normal" in="SourceGraphic" in2="BackgroundImageFix" result="shape"/>
<feColorMatrix in="SourceAlpha" type="matrix" values="0 0 0 0 0 0 0 0 0 0 0 0 0 0 0 0 0 0 127 0" result="hardAlpha"/>
<feOffset dx="0.572739" dy="0.572739"/>
<feComposite in2="hardAlpha" operator="arithmetic" k2="-1" k3="1"/>
<feColorMatrix type="matrix" values="0 0 0 0 0.968627 0 0 0 0 0.862745 0 0 0 0 0.654902 0 0 0 1 0"/>
<feBlend mode="normal" in2="shape" result="effect1_innerShadow_7203_7989"/>
</filter>
<filter id="filter3_i_7203_7989" x="151.568" y="80.9258" width="36.0825" height="54.9834" filterUnits="userSpaceOnUse" color-interpolation-filters="sRGB">
<feFlood flood-opacity="0" result="BackgroundImageFix"/>
<feBlend mode="normal" in="SourceGraphic" in2="BackgroundImageFix" result="shape"/>
<feColorMatrix in="SourceAlpha" type="matrix" values="0 0 0 0 0 0 0 0 0 0 0 0 0 0 0 0 0 0 127 0" result="hardAlpha"/>
<feOffset dx="0.572739" dy="0.572739"/>
<feComposite in2="hardAlpha" operator="arithmetic" k2="-1" k3="1"/>
<feColorMatrix type="matrix" values="0 0 0 0 0.984314 0 0 0 0 0.854902 0 0 0 0 0.596078 0 0 0 1 0"/>
<feBlend mode="normal" in2="shape" result="effect1_innerShadow_7203_7989"/>
</filter>
<clipPath id="clip0_7203_7989">
<rect width="414" height="439" fill="white"/>
</clipPath>
</defs>
</svg>
