<svg xmlns="http://www.w3.org/2000/svg" width="1511" height="600" fill="none"><path fill="#89CDFF" d="M1394.12 0c-101.55 0-183.87 56.284-183.87 125.714 0 .866.01 1.73.04 2.593-6.2-.815-12.61-1.242-19.15-1.242-55.69 0-100.84 30.866-100.84 68.941 0 3.815.46 7.558 1.33 11.205-9.16-3.957-20.01-6.249-31.65-6.249-19.95 0-37.6 6.734-48.35 17.059-7.04-4.436-16.448-7.146-26.779-7.146-7.997 0-15.439 1.625-21.661 4.415-3.192-12.741-19.424-22.438-38.971-22.438-17.112 0-31.684 7.431-37.192 17.83-17.619-17.313-46.934-28.644-80.121-28.644-6.332 0-12.523.412-18.518 1.2q.063-1.495.064-3.003c0-56.24-66.685-101.833-148.946-101.833-61.656 0-114.562 25.614-137.197 62.126-11.47-2.878-23.863-4.45-36.792-4.45-22.345 0-43.085 4.694-60.23 12.717-15.677-26.983-54.211-46.061-99.263-46.061-20.109 0-38.921 3.803-54.98 10.412-27.137-38.171-84.396-64.483-150.644-64.483C7.948 48.663-67 99.903-67 163.112c0 30.585 17.547 58.366 46.134 78.898v357.272H1518.68V221.689h-5.79c39.83-23.06 65.11-57.499 65.11-95.975C1578 56.284 1495.68 0 1394.12 0" opacity=".5"/></svg>