<svg xmlns="http://www.w3.org/2000/svg" width="230" height="258" fill="none"><ellipse cx="128.148" cy="236.503" fill="#A29478" fill-opacity=".3" rx="52" ry="11" transform="rotate(-11.407 128.148 236.503)"/><path fill="#7B60CC" d="M98.733 253.114c10.27.644 18.166-5.494 22.461-10.58 1.598-1.892.994-4.591-1.224-5.436-4.119-1.569-10.119-2.622-20.368-2.426-8.3.159-15.023 1.247-19.096 2.693-1.976.701-2.688 2.917-1.58 4.595 3.025 4.577 9.422 10.504 19.807 11.154"/><path fill="#FA84CE" d="M43.63 164.653c-.77-4.97-.788-7.697-8.7-8.961-7.913-1.263-20.354 10.634-25.027 23.387-7.702 21.022 6.038 55.057 26.72 49.106 5.769-1.66 11.56-9.648 13.24-8.229.858.724.688 1.38.319 1.85-2.38.022-4.55 1.775-5.115 4.316-.651 2.928 1.073 5.794 3.852 6.4s5.56-1.275 6.212-4.203c.387-1.737-.062-3.451-1.071-4.685-.669-1.322-2.163-3.978-3.878-5.111-4.371-2.887-8.118 2.707-13.292 2.057-16.363-2.058-27.167-26.296-21.943-42.869 2.806-8.901 10.268-17.883 19.148-17.986 2.44-.028 5.478 1.445 5.456 3.996a6.95 6.95 0 0 0-3.996-2.524c-3.906-.852-7.814 1.793-8.73 5.908s1.508 8.142 5.413 8.995 7.816-1.792 8.731-5.908q.151-.684.181-1.357c1.646 2.716 4.305 4.955 6.755 4.763 3.714-.29-3.68-5.116-4.274-8.945"/><path fill="#3CC16F" d="M51.295 47.657c-.512-.8-1.102-2.898.632-4.885-3.383-1.337-9.316.103-9.621 10.169-.218 7.188 9.524 35.894 22.25 66.96 7.392 26.885 28.111 62.755 37.556 74.137l-7.489 6.097c-10.473-18.474-24.662-42.126-31.572-62.304-2.065-6.03-25.21-67.197-25.026-72.721.063-1.908-7.514-20.84 4.136-28.156 6.634-4.167 11.906-1.113 13.882.431 1.773-1.204 4.464-2.09 9.02.857 2.424 1.569 4.846 1.244 6.52.427l2.172-2.34c.193.524-.7 1.622-2.172 2.34L57.677 53.657z"/><path fill="#D13D67" d="M92.435 110.04c-17.42 2.7-24.48-24.7-25.333-26.652l-13.47-28.474 17.275-10.13 23.482 15.319c3.048 3.232 9.892 10.817 12.882 15.298 3.738 5.6 2.584 31.938-14.836 34.639"/><path fill="#DE4A79" d="M102.326 68.217c-3.904.052-21.916-12.127-30.434-18.223l-6.573-2.037L87.355 33.94c6.726-4.316 22.969-5.848 27.968-5.758 6.249.112 11.583 11.732 13.682 14.174 2.1 2.44 1.399 17.989-4.201 21.726-5.601 3.739-17.598 4.07-22.478 4.135"/><path stroke="#fff" stroke-width="2.351" d="M88.456 67.187c-5.742-2.404-18.58-9.123-23.997-16.766M80.756 51.31c-.865.901-11.18-.977-14.336-2.957M69.768 61.057c-.277-1.692-3.788-7.645-6.262-9.556M72.684 53.736c-1.684-.325-7.535-4.004-9.375-6.531"/><ellipse cx="2.669" cy="1.385" fill="#FFDB90" rx="2.669" ry="1.385" transform="scale(-1 1)rotate(-24.673 108.394 244.636)"/><ellipse cx="2.469" cy="1.19" fill="#FFDB90" rx="2.469" ry="1.19" transform="scale(-1 1)rotate(-1.988 1405.4 2459.535)"/><ellipse cx="2.018" cy="1.114" fill="#FFDB90" rx="2.018" ry="1.114" transform="scale(1 -1)rotate(-82.082 -.568 -69.662)"/><ellipse cx="74.097" cy="53.898" fill="#FFDB90" rx="2.018" ry="1.114" transform="rotate(9.547 74.097 53.898)"/><path fill="#FF6B9A" d="M77.36 42.998c-7.707 6.947-14.049 9.237-15.106 9.182 1.114-.21 3.788-1.973 6.444-7.723 3.319-7.187 4.857-7.805 7.044-15.219S93.793 14.38 94.89 15.708s4.352-.092 7.918-1.391c3.565-1.3 8.996 6.403 8.982 8.735s-.586 5.164-.941 7.902c-.354 2.738-11.2 7.476-13.75 7.556-2.548.08-12.51-2.028-19.739 4.488"/><path fill="#DE4A79" d="M72.219 95.102c2.763-14.02-3.84-32.25-7.486-39.613a199 199 0 0 1-2.654-6.075c-2.068 6.501-6.705 20.134-8.702 22.66-2.496 3.157-12.02 15.066-11.09 23.702.931 8.635 4.62 7.024 6.936 9.37 1.853 1.878 1.846 3.241 1.61 3.689 5.377 8.76 17.932 3.792 21.386-13.733"/><path fill="#BE2046" d="M73.583 36.123C74.2 44.636 63.5 52.668 63.04 53.386c-2.184 3.279-1.656 3.306-.64 6.221 1.014 2.915-.694 3.145-1.17 6.194-.381 2.44-7.854 9.028-11.543 12.017-1.55-1.183-3.931-8.013-4.928-11.28C41.747 48.994 55.51 43.241 62.586 41.7c5.662-1.233 9.69-4.233 10.997-5.578"/><path fill="#3CC16F" d="M102.506 123.291c-2.732 10.774-1.245 27.952.763 33.03.959 2.427.369 1.688 4.976 3.469-17.521-41.54 21.149-86.8 52.116-89.222 5.577-.436 11.734 2.331 11.734 2.331l2.329-2.414s-8.723-2.927-14.955-2.443c-28.43 2.207-51.741 34.655-56.963 55.249"/><path fill="#D13D67" d="M172.616 70.598c-2.972 3.78-1.967 10.595 2.148 13.83 2.832 2.226 5.562 3.477 5.651 5.081.112 2.005 3.142 1.831 5.704-.201 2.05-1.626 2.069-4.267 1.822-5.384 1.607.41 5.167-1.052 3.945-5.632 1.941-1.243 4.885-4.68 1.722-8.018-.862-.91-1.574.667-3.031.174-1.904-.645-2.053-.762-4.048-1.905-5.48-3.458-10.941-1.726-13.913 2.055"/><path fill="#3CC16F" d="M151.729 71.234c7.166-1.078 14.321 4.826 17.942 8.32l-2.162 2.242c-7.036-6.788-15.476-9.381-18.817-9.83-1.973.205-4.128.346 3.037-.732M124.899 86.966c2.804-4.286 17.897 8.266 21.982 12.208l-2.166 2.245c-7.938-7.658-17.968-15.333-20.963-12.23-2.092.093-.24-.103 1.147-2.223M113.334 103.937c4.879.969 11.982 8.293 14.608 11.802l-1.927 1.441c-5.101-6.817-11.805-10.945-14.457-11.915-1.605-.189-.141-1.709 1.776-1.328"/><path fill="#DE4A79" d="M167.126 79.433c-4.778 4.952-4.933 14.218-.171 18.812 3.276 3.161 6.631 4.998 6.398 7.171-.29 2.717 3.776 2.644 7.626.033 3.081-2.089 3.683-5.658 3.599-7.181 2.047.64 7.098-1.146 6.476-7.403 2.853-1.576 7.518-6.067 4.044-10.748-.947-1.275-2.238.817-4.066.073-2.39-.974-2.562-1.14-4.964-2.792-6.527-4.968-14.165-2.918-18.942 2.035M143.952 99.282c-4.015 3.232-4.607 10.592-1.088 14.963 2.421 3.007 4.97 4.972 4.677 6.669-.366 2.121 2.841 2.67 6.007 1.164 2.533-1.204 3.189-3.958 3.2-5.184 1.58.815 5.651.146 5.478-4.932 2.327-.83 6.231-3.712 3.731-7.96-.681-1.157-1.805.317-3.207-.549-1.834-1.133-1.961-1.291-3.77-2.965-4.891-4.933-11.012-4.44-15.028-1.207M123.757 113.986c-3.668 3.111-4.045 9.988-.659 13.981 2.33 2.747 4.754 4.519 4.521 6.108-.291 1.987 2.713 2.422 5.63.943 2.333-1.184 2.879-3.768 2.86-4.912 1.493.723 5.273.003 4.991-4.729 2.151-.83 5.723-3.61 3.29-7.512-.662-1.063-1.675.339-3.004-.436-1.736-1.012-1.859-1.157-3.586-2.675-4.678-4.484-10.375-3.878-14.043-.768"/><path fill="#FA84CE" d="M156.965 160.211c1.457-9.494 16.949-12.71 12.462-21.203-5.253-9.943-15.695 14.132-26.543 11.168-6.818-1.863-7.435-9.266-14.243-11.168-12.006-3.353-16.02 14.492-28.486 14.405-12.296-.085-16.05-17.306-28-14.405-7.112 1.728-7.912 9.557-15.052 11.168-10.517 2.373-19.501-20.29-25.249-11.168-5.298 8.41 12.507 11.389 14.081 21.203 1.764 10.992-1.202 15.916-1.777 27.034-1.705 32.967 24.282 54.827 57.292 54.539 32.673-.286 59.806-23.005 59.079-55.672-.245-10.998-5.233-15.028-3.564-25.901"/><g filter="url(#a)"><path fill="#A38AED" d="M156.965 162.152c1.457-9.494 16.949-12.711 12.462-21.203-5.253-9.944-15.579 15.952-26.427 12.988-6.818-1.863-7.692-9.099-14.5-11-12.006-3.354-15.879 12.504-28.345 12.417-12.296-.086-15.205-16.319-27.155-13.417-7.113 1.727-9.36 10.389-16.5 12-10.517 2.372-18.898-22.11-24.646-12.988-5.298 8.41 12.507 11.388 14.081 21.203 1.764 10.992-8.488 15.91-9.063 27.029-1.705 32.967 31.568 54.832 64.578 54.543 32.673-.285 64.173-21.877 63.446-54.543-.245-10.998-9.6-16.156-7.931-27.029"/></g><path stroke="url(#b)" stroke-width=".936" d="m101.037 155.296-.195 88.894"/><path fill="#FA84CE" d="m128.534 247.116-8.74-3.242c-17.23 6.253-22.78 6.287-39.33 0l-7.93 3.242c21.534 10.171 33.787 10.101 56 0"/><path stroke="url(#c)" stroke-width=".936" d="M143.592 152.49c3.541 37.527-9.088 60.641-45.269 94.488"/><path stroke="url(#d)" stroke-width=".936" d="M54.822 152.49c-3.47 37.163 8.902 60.053 44.347 93.572"/><defs><linearGradient id="b" x1="101.342" x2="101.537" y1="244.191" y2="155.297" gradientUnits="userSpaceOnUse"><stop stop-color="#7B60CD"/><stop offset="1" stop-color="#9A78FF"/></linearGradient><linearGradient id="c" x1="121.15" x2="121.06" y1="151.546" y2="246.978" gradientUnits="userSpaceOnUse"><stop offset=".025" stop-color="#FA84CE"/><stop offset=".027" stop-color="#9A78FF"/><stop offset="1" stop-color="#7B60CC"/></linearGradient><linearGradient id="d" x1="76.806" x2="76.897" y1="151.555" y2="246.062" gradientUnits="userSpaceOnUse"><stop offset=".025" stop-color="#FA84CE"/><stop offset=".027" stop-color="#9A78FF"/><stop offset="1" stop-color="#7B60CC"/></linearGradient><filter id="a" width="139.367" height="108.807" x="30.873" y="134.921" color-interpolation-filters="sRGB" filterUnits="userSpaceOnUse"><feFlood flood-opacity="0" result="BackgroundImageFix"/><feBlend in="SourceGraphic" in2="BackgroundImageFix" result="shape"/><feColorMatrix in="SourceAlpha" result="hardAlpha" values="0 0 0 0 0 0 0 0 0 0 0 0 0 0 0 0 0 0 127 0"/><feOffset dy="-3.742"/><feGaussianBlur stdDeviation="9.355"/><feComposite in2="hardAlpha" k2="-1" k3="1" operator="arithmetic"/><feColorMatrix values="0 0 0 0 0.482353 0 0 0 0 0.376471 0 0 0 0 0.8 0 0 0 1 0"/><feBlend in2="shape" result="effect1_innerShadow_9019_11795"/></filter></defs></svg>