<svg width="640" height="874" viewBox="0 0 640 874" fill="none" xmlns="http://www.w3.org/2000/svg">
<path d="M369.504 550.19C338.814 608.25 205.895 504.376 205.895 504.376C205.895 504.376 187.136 500.336 179.416 491.907C169.771 481.374 165.295 467.409 170.456 456.451C175.616 445.493 259.562 403.083 308.838 427.913C356.443 451.9 400.193 492.13 369.504 550.19Z" fill="#B9E064"/>
<mask id="mask0_9019_12660" style="mask-type:alpha" maskUnits="userSpaceOnUse" x="168" y="420" width="212" height="148">
<path d="M369.504 550.19C338.814 608.25 205.895 504.376 205.895 504.376C205.895 504.376 187.136 500.336 179.416 491.907C169.771 481.374 165.295 467.409 170.456 456.451C175.616 445.493 259.562 403.083 308.838 427.913C356.443 451.9 400.193 492.13 369.504 550.19Z" fill="#B9E064"/>
</mask>
<g mask="url(#mask0_9019_12660)">
<path d="M340.477 616.206C368.543 556.833 205.717 512.736 205.717 512.736C205.717 512.736 191.235 500.145 179.861 499.021C165.648 497.616 151.788 502.408 146.112 513.108C140.437 523.808 156.827 616.419 206.244 640.969C253.983 664.685 312.411 675.579 340.477 616.206Z" fill="#A9CE58"/>
</g>
<ellipse cx="584.113" cy="607.032" rx="46.448" ry="29.3356" transform="rotate(-39.5863 584.113 607.032)" fill="#9FC44F"/>
<ellipse cx="667.557" cy="460.89" rx="68.6288" ry="29.2682" transform="rotate(-64.7825 667.557 460.89)" fill="#9FC44F"/>
<path fill-rule="evenodd" clip-rule="evenodd" d="M340.211 623.345C269.627 563.66 213.752 283.97 241.516 251.134C264.83 223.563 549.882 232.229 620.466 291.914C691.05 351.599 685.532 474.177 608.142 565.699C530.752 657.221 410.795 683.03 340.211 623.345Z" fill="#DAFA95"/>
<mask id="mask1_9019_12660" style="mask-type:alpha" maskUnits="userSpaceOnUse" x="234" y="236" width="437" height="420">
<path fill-rule="evenodd" clip-rule="evenodd" d="M340.22 623.326C269.636 563.64 213.761 283.951 241.525 251.115C264.839 223.543 549.891 232.209 620.475 291.894C691.059 351.579 685.541 474.157 608.151 565.679C530.761 657.201 410.804 683.011 340.22 623.326Z" fill="#C8EF74"/>
</mask>
<g mask="url(#mask1_9019_12660)">
<path fill-rule="evenodd" clip-rule="evenodd" d="M181.563 265.924C188.45 251.3 206.002 245.083 220.767 252.036C229.807 256.293 235.704 264.5 237.339 273.581C302.194 255.801 540.469 269.154 604.559 323.084C675.923 383.136 670.818 505.909 593.157 597.303C515.496 688.698 394.688 714.106 323.325 654.054C261.719 602.213 210.55 386.172 215.633 306.966C209.246 308.553 202.271 308.028 195.828 304.993C181.063 298.04 174.676 280.548 181.563 265.924Z" fill="#C8EF74"/>
<path d="M305.995 597.99C287.528 605.837 245.425 631.581 237.148 657.248C221.831 704.747 267.761 787.344 339.411 790.52C350.228 791.531 372.11 796.706 373.103 809.308C395.763 811.412 462.703 809.782 549.181 786.43C635.659 763.078 697.415 738.536 717.484 729.184C723.765 717.12 742.58 689.372 767.59 674.895C798.854 656.8 805.011 545.735 754.257 525.118C729.998 515.264 696.308 468.213 679.494 439.339C679.356 433.597 678.393 428.021 676.531 422.665C664.497 408.683 668.165 419.885 679.494 439.339C681.994 543.717 411.579 702.993 305.995 597.99Z" fill="#BFE66B"/>
</g>
<path d="M305.291 213.69C295.038 215.436 291.933 224.903 291.663 229.418L219.69 322.568C211.864 320.505 205.657 327.416 203.531 331.13C192.356 351.089 223 370.866 231.988 371.421C279.054 358.713 318.983 288.675 331.931 256.079C344.879 223.483 324.024 210.5 305.291 213.69Z" fill="#9EC34E"/>
<ellipse cx="80.9317" cy="21.4683" rx="80.9317" ry="21.4683" transform="matrix(0.632785 -0.774328 0.740117 0.672478 198.069 333.483)" fill="#BFE66B"/>
<path d="M235.113 253.502C210.079 280.497 213.028 317.652 218.576 336.63C219.317 339.166 221.934 340.448 224.255 339.45C237.555 333.733 253.548 322.156 277.53 291.633C296.601 267.36 307.986 245.925 310.412 233.746C310.852 231.537 309.457 229.478 307.353 229.012C291.715 225.548 260.228 226.42 235.113 253.502Z" fill="#DAFF8C"/>
<path fill-rule="evenodd" clip-rule="evenodd" d="M201.547 236.157C205.756 230.394 212.91 227.934 218.775 227.881C221.71 227.854 224.423 228.427 226.343 229.581C227.309 230.161 228.109 230.91 228.61 231.839C229.12 232.783 229.293 233.862 229.075 235.023C228.829 236.335 229.106 237.867 229.815 239.547C230.522 241.22 231.628 242.968 232.935 244.668C235.549 248.069 238.885 251.177 241.154 252.992L241.93 253.613L241.221 254.3C236.108 259.252 233.729 262.374 230.562 268.893L230.187 269.667L229.448 269.253C226.962 267.859 222.814 265.996 218.499 264.959C214.144 263.912 209.824 263.756 206.833 265.514C205.68 266.191 204.533 266.433 203.434 266.232C202.341 266.032 201.39 265.411 200.595 264.536C199.026 262.808 197.96 259.984 197.428 256.785C196.364 250.378 197.358 241.894 201.547 236.157ZM206.554 240.699C201.664 247.395 204.149 260.729 209.126 257.803C213.109 255.464 220.288 258.345 223.38 260.078L229.975 251.046C227.165 248.798 221.721 243.358 222.43 239.584C223.317 234.867 211.443 234.003 206.554 240.699Z" fill="#9EC34E"/>
</svg>
