<svg width="684" height="774" viewBox="0 0 684 774" fill="none" xmlns="http://www.w3.org/2000/svg">
<g clip-path="url(#clip0_37_2346)">
<path d="M190.022 667.624C294.52 431.369 385.291 359.028 426.285 377.942C440.413 382.383 492 402.545 541.94 402.545C632.099 396.643 667.766 339.48 670.518 304.404C673.27 269.327 604.864 250.125 617.415 225.888C629.967 201.651 606.566 135.166 595.14 120.146C583.714 105.125 559.328 69.221 492 49.9387C424.672 30.6563 371.328 49.9387 319.366 80.1561C267.403 110.374 218.082 168.682 221.559 163.772C225.036 158.861 74.7835 322.583 -27.2605 433.646C-26.4577 432.004 -62.5225 465.618 -133.757 532.108L36.2627 843.5L151.178 785.041L190.022 667.624Z" fill="#1EAB97"/>
<path d="M190.022 667.624C294.52 431.369 385.291 359.028 426.285 377.942C440.413 382.383 492 402.545 541.94 402.545C632.099 396.643 667.766 339.48 670.518 304.404C673.27 269.327 604.864 250.125 617.415 225.888C629.967 201.651 606.566 135.166 595.14 120.146C583.714 105.125 559.328 69.221 492 49.9387C424.672 30.6563 371.328 49.9387 319.366 80.1561C267.403 110.374 218.082 168.682 221.559 163.772C225.036 158.861 74.7835 322.583 -27.2605 433.646C-26.4577 432.004 -62.5225 465.618 -133.757 532.108L36.2627 843.5L151.178 785.041L190.022 667.624Z" fill="url(#paint0_linear_37_2346)"/>
<g filter="url(#filter0_d_37_2346)">
<path fill-rule="evenodd" clip-rule="evenodd" d="M569.743 219.257C573.556 210.997 572.904 201.066 568.527 191.621C564.176 182.234 556.344 173.819 546.742 168.808C537.146 163.8 526.036 162.307 515.016 166.235C504.065 170.138 492.564 179.621 482.327 197.823C481.341 199.576 479.277 200.431 477.716 199.732C476.156 199.034 475.69 197.047 476.676 195.294C487.658 175.768 500.634 164.548 513.909 159.818C527.114 155.111 539.979 157.055 550.597 162.597C561.21 168.136 569.834 177.386 574.671 187.823C579.481 198.201 580.747 210.253 575.703 221.181C574.867 222.992 572.855 224.029 571.209 223.498C569.564 222.966 568.907 221.068 569.743 219.257ZM515.249 227.443C504.821 214.202 506.57 195.434 519.156 185.522C531.742 175.61 550.398 178.308 560.825 191.549C571.253 204.79 569.504 223.558 556.918 233.47C544.333 243.382 525.677 240.684 515.249 227.443Z" fill="#272525"/>
</g>
<circle cx="543.763" cy="220.503" r="12.5" fill="#F5F5F5"/>
<circle cx="543.763" cy="220.503" r="12.5" fill="#F5F5F5"/>
<circle cx="543.763" cy="220.503" r="12.5" fill="#F5F5F5"/>
<circle cx="526.763" cy="203.5" r="6.5" fill="#F5F5F5"/>
<circle cx="526.763" cy="203.5" r="6.5" fill="#F5F5F5"/>
<circle cx="526.763" cy="203.5" r="6.5" fill="#F5F5F5"/>
<path d="M574.016 324.132C577.96 345.656 609.968 356.341 635.008 365.368" stroke="#272525" stroke-width="5" stroke-linecap="round"/>
<path d="M180.134 240.599C172.252 216.219 180.134 206.5 146.261 246C116.261 280.984 123.896 260.1 134.054 276.042C144.211 291.984 180.134 283.5 180.134 283.5C195.261 252 186.045 258.885 180.134 240.599Z" fill="#F0AAB4"/>
<path d="M283.256 208.535C295.273 227.249 308.163 237.282 320.325 205.928C350.234 188.718 344.151 182.584 330.653 171.226C317.155 159.868 295.26 166.229 277.528 171.762C269.208 193.645 274.244 194.5 283.256 208.535Z" fill="#F0AAB4"/>
<path d="M77.2566 341.536C86.2616 361.5 104.762 365.5 109.262 334C130.262 320 145.262 317.5 124.653 304.226C104.044 290.953 100.762 293.5 86.2617 310.001C80.2617 316.828 70.3984 326.331 77.2566 341.536Z" fill="#F0AAB4"/>
<path d="M243.094 164.818C231.125 162.954 223.018 164.055 234.616 177.703C234.897 192.766 239.382 192.679 248.272 191.788C257.162 190.897 259.897 181.797 261.932 174.309C253.794 164.838 252.072 166.216 243.094 164.818Z" fill="#F0AAB4"/>
<path d="M251.234 328.771C268.068 309.269 275.042 292.529 236.558 293.731C208.039 271.748 203.204 280.23 194.961 298.114C186.719 315.999 200.709 334.688 212.462 349.666C239.267 348.663 238.608 343.399 251.234 328.771Z" fill="#F0AAB4"/>
<path d="M121.314 415.828C131.607 403.179 135.672 392.149 111.141 392.066C92.436 376.715 89.5457 382.273 84.6977 394.039C79.8496 405.804 89.2081 418.62 97.053 428.903C114.136 428.85 113.594 425.316 121.314 415.828Z" fill="#F0AAB4"/>
<path d="M184.814 334.794C173.676 311.563 161.124 298.474 146.828 334.224C115.271 351.564 121.11 359.39 134.202 374.1C147.294 388.809 170.021 383.465 188.449 378.687C198.255 353.72 193.168 352.218 184.814 334.794Z" fill="#F0AAB4"/>
<path d="M146.521 495.399C177.09 504.759 200.157 503.982 182.387 459.275C196.695 413.854 184.454 412.713 159.475 412.608C134.495 412.504 117.98 439.034 104.974 460.932C117.551 491.983 123.594 488.378 146.521 495.399Z" fill="#F0AAB4"/>
<path d="M224.544 214.615C197.7 220.32 181.522 228.963 217.559 247.378C230.907 277.611 240.3 273.883 258.311 265.046C276.322 256.209 274.39 235.645 272.344 218.895C247.147 206.188 244.678 210.335 224.544 214.615Z" fill="#F0AAB4"/>
<g filter="url(#filter1_d_37_2346)">
<ellipse cx="651.633" cy="295.89" rx="5.5" ry="7.25489" transform="rotate(-7.24362 651.633 295.89)" fill="#B8717B"/>
</g>
<g filter="url(#filter2_d_37_2346)">
<line x1="471.272" y1="265.612" x2="503.874" y2="247.99" stroke="#F0AAB4" stroke-opacity="0.54" stroke-width="5" stroke-linecap="round" shape-rendering="crispEdges"/>
</g>
<g filter="url(#filter3_d_37_2346)">
<line x1="490.189" y1="274.631" x2="520.85" y2="257.073" stroke="#F0AAB4" stroke-opacity="0.54" stroke-width="5" stroke-linecap="round" shape-rendering="crispEdges"/>
</g>
<g filter="url(#filter4_d_37_2346)">
<line x1="2.5" y1="-2.5" x2="34.1073" y2="-2.5" transform="matrix(0.792192 -0.610272 0.811589 0.584229 516.262 285.34)" stroke="#F0AAB4" stroke-opacity="0.54" stroke-width="5" stroke-linecap="round" shape-rendering="crispEdges"/>
</g>
<g filter="url(#filter5_d_37_2346)">
<ellipse cx="554.329" cy="130.248" rx="12.531" ry="32.4993" transform="rotate(-56.8914 554.329 130.248)" fill="#B8717B"/>
</g>
</g>
<defs>
<filter id="filter0_d_37_2346" x="472.159" y="157.165" width="110.772" height="90.281" filterUnits="userSpaceOnUse" color-interpolation-filters="sRGB">
<feFlood flood-opacity="0" result="BackgroundImageFix"/>
<feColorMatrix in="SourceAlpha" type="matrix" values="0 0 0 0 0 0 0 0 0 0 0 0 0 0 0 0 0 0 127 0" result="hardAlpha"/>
<feOffset dy="4"/>
<feGaussianBlur stdDeviation="2"/>
<feComposite in2="hardAlpha" operator="out"/>
<feColorMatrix type="matrix" values="0 0 0 0 0 0 0 0 0 0 0 0 0 0 0 0 0 0 0.25 0"/>
<feBlend mode="normal" in2="BackgroundImageFix" result="effect1_dropShadow_37_2346"/>
<feBlend mode="normal" in="SourceGraphic" in2="effect1_dropShadow_37_2346" result="shape"/>
</filter>
<filter id="filter1_d_37_2346" x="642.1" y="288.66" width="19.0664" height="22.4617" filterUnits="userSpaceOnUse" color-interpolation-filters="sRGB">
<feFlood flood-opacity="0" result="BackgroundImageFix"/>
<feColorMatrix in="SourceAlpha" type="matrix" values="0 0 0 0 0 0 0 0 0 0 0 0 0 0 0 0 0 0 127 0" result="hardAlpha"/>
<feOffset dy="4"/>
<feGaussianBlur stdDeviation="2"/>
<feComposite in2="hardAlpha" operator="out"/>
<feColorMatrix type="matrix" values="0 0 0 0 0 0 0 0 0 0 0 0 0 0 0 0 0 0 0.25 0"/>
<feBlend mode="normal" in2="BackgroundImageFix" result="effect1_dropShadow_37_2346"/>
<feBlend mode="normal" in="SourceGraphic" in2="effect1_dropShadow_37_2346" result="shape"/>
</filter>
<filter id="filter2_d_37_2346" x="453.771" y="230.489" width="67.6025" height="52.6233" filterUnits="userSpaceOnUse" color-interpolation-filters="sRGB">
<feFlood flood-opacity="0" result="BackgroundImageFix"/>
<feColorMatrix in="SourceAlpha" type="matrix" values="0 0 0 0 0 0 0 0 0 0 0 0 0 0 0 0 0 0 127 0" result="hardAlpha"/>
<feOffset/>
<feGaussianBlur stdDeviation="7.5"/>
<feComposite in2="hardAlpha" operator="out"/>
<feColorMatrix type="matrix" values="0 0 0 0 1 0 0 0 0 0.283333 0 0 0 0 0.283333 0 0 0 0.5 0"/>
<feBlend mode="normal" in2="BackgroundImageFix" result="effect1_dropShadow_37_2346"/>
<feBlend mode="normal" in="SourceGraphic" in2="effect1_dropShadow_37_2346" result="shape"/>
</filter>
<filter id="filter3_d_37_2346" x="472.688" y="239.573" width="65.6621" height="52.5586" filterUnits="userSpaceOnUse" color-interpolation-filters="sRGB">
<feFlood flood-opacity="0" result="BackgroundImageFix"/>
<feColorMatrix in="SourceAlpha" type="matrix" values="0 0 0 0 0 0 0 0 0 0 0 0 0 0 0 0 0 0 127 0" result="hardAlpha"/>
<feOffset/>
<feGaussianBlur stdDeviation="7.5"/>
<feComposite in2="hardAlpha" operator="out"/>
<feColorMatrix type="matrix" values="0 0 0 0 1 0 0 0 0 0.283333 0 0 0 0 0.283333 0 0 0 0.5 0"/>
<feBlend mode="normal" in2="BackgroundImageFix" result="effect1_dropShadow_37_2346"/>
<feBlend mode="normal" in="SourceGraphic" in2="effect1_dropShadow_37_2346" result="shape"/>
</filter>
<filter id="filter4_d_37_2346" x="498.378" y="245.953" width="60.71" height="53.5132" filterUnits="userSpaceOnUse" color-interpolation-filters="sRGB">
<feFlood flood-opacity="0" result="BackgroundImageFix"/>
<feColorMatrix in="SourceAlpha" type="matrix" values="0 0 0 0 0 0 0 0 0 0 0 0 0 0 0 0 0 0 127 0" result="hardAlpha"/>
<feOffset/>
<feGaussianBlur stdDeviation="7.5"/>
<feComposite in2="hardAlpha" operator="out"/>
<feColorMatrix type="matrix" values="0 0 0 0 1 0 0 0 0 0.283333 0 0 0 0 0.283333 0 0 0 0.5 0"/>
<feBlend mode="normal" in2="BackgroundImageFix" result="effect1_dropShadow_37_2346"/>
<feBlend mode="normal" in="SourceGraphic" in2="effect1_dropShadow_37_2346" result="shape"/>
</filter>
<filter id="filter5_d_37_2346" x="522.253" y="109.622" width="64.1523" height="49.2524" filterUnits="userSpaceOnUse" color-interpolation-filters="sRGB">
<feFlood flood-opacity="0" result="BackgroundImageFix"/>
<feColorMatrix in="SourceAlpha" type="matrix" values="0 0 0 0 0 0 0 0 0 0 0 0 0 0 0 0 0 0 127 0" result="hardAlpha"/>
<feOffset dy="4"/>
<feGaussianBlur stdDeviation="2"/>
<feComposite in2="hardAlpha" operator="out"/>
<feColorMatrix type="matrix" values="0 0 0 0 0 0 0 0 0 0 0 0 0 0 0 0 0 0 0.25 0"/>
<feBlend mode="normal" in2="BackgroundImageFix" result="effect1_dropShadow_37_2346"/>
<feBlend mode="normal" in="SourceGraphic" in2="effect1_dropShadow_37_2346" result="shape"/>
</filter>
<linearGradient id="paint0_linear_37_2346" x1="298.791" y1="30.6624" x2="239.061" y2="791.936" gradientUnits="userSpaceOnUse">
<stop offset="0.453125" stop-color="#E0939E"/>
<stop offset="1" stop-color="#FFE4E8"/>
</linearGradient>
<clipPath id="clip0_37_2346">
<rect width="684" height="774" fill="white"/>
</clipPath>
</defs>
</svg>
