<svg width="497" height="566" viewBox="0 0 497 566" fill="none" xmlns="http://www.w3.org/2000/svg">
<g clip-path="url(#clip0_33_1700)">
<g filter="url(#filter0_d_33_1700)">
<path d="M24 515.511V38H477.656V535.177C477.656 541.335 472.951 546.472 466.817 547.012L364.787 556H51.6248C40.5609 556 30.9609 548.364 28.4717 537.584L24.6093 520.857C24.2044 519.104 24 517.31 24 515.511Z" fill="#F9F1D5"/>
<path d="M482.717 11.0298L15.4756 13.8569C13.323 13.8699 11.2707 14.7686 9.80129 16.3416C3.8541 22.7079 4.24623 32.7041 10.6739 38.585L15.4167 42.9244C17.496 44.8268 20.2257 45.8596 23.0436 45.8099L483.353 37.6907C486.049 37.6432 488.557 36.3026 490.093 34.0881C493.91 28.5888 494.089 21.3466 490.551 15.6647L490.252 15.1842C488.632 12.5842 485.779 11.0113 482.717 11.0298Z" fill="#9E7F67"/>
<g filter="url(#filter1_d_33_1700)">
<path d="M430.749 16.7679C452.747 17.8869 451.819 26.064 429.819 27.1228C392.846 28.9023 328.633 30.0796 255.608 30.0796C141.026 30.0796 48.1387 27.1811 48.1387 23.6057C48.1387 13.5351 141.026 17.1317 255.608 17.1317C331.4 17.1317 394.594 14.9286 430.749 16.7679Z" fill="#C99C79"/>
</g>
<path d="M472.01 98.5911L478 94.0816V98.056C478 100.621 476.354 102.896 473.918 103.698L471.372 104.537C470.7 104.758 469.995 104.858 469.288 104.831L72.3421 89.7656L468.287 99.7838C469.627 99.8177 470.939 99.3974 472.01 98.5911Z" fill="#A86E41" fill-opacity="0.25"/>
<path d="M27.3716 313.972L24 310.286V314.756C24 317.044 25.3136 319.128 27.3772 320.115L27.8548 320.344C28.7549 320.774 29.7489 320.971 30.7451 320.916L301.386 306L31.9733 315.899C30.2309 315.963 28.5484 315.258 27.3716 313.972Z" fill="#A86E41" fill-opacity="0.25"/>
<path d="M471.864 523L45.459 527.316H467.548C469.932 527.316 471.864 525.384 471.864 523Z" fill="#A86E41" fill-opacity="0.25"/>
</g>
<ellipse rx="41.9789" ry="10.9578" transform="matrix(-0.996163 -0.0875122 -0.0817795 0.99665 366.038 181.92)" fill="#78861C"/>
<g filter="url(#filter2_d_33_1700)">
<path d="M414.87 193.325C411.346 192.841 408.246 196.369 405.883 198.245C404.405 200.404 403.233 203.534 402.925 206.134C402.736 207.736 402.976 209.396 402.793 210.992C402.624 212.462 402.439 213.837 402.614 215.323C402.824 217.115 402.526 218.892 402.665 220.682C402.815 222.612 402.908 224.639 402.777 226.57C402.523 230.322 402.953 233.983 403.072 237.731C403.188 241.416 403.662 245.097 403.963 248.765C404.236 252.08 404.124 256.125 406.393 258.777C408.461 261.196 413.194 259.838 415.501 258.706C419.312 256.838 422.378 253.911 425.509 251.117C435.472 242.226 444.058 229.488 442.173 215.543C441.679 211.887 440.624 208.057 437.821 205.46C434.877 202.732 432.169 199.752 428.857 197.448C426.156 195.57 422.83 194.42 419.583 193.973L414.87 193.325Z" fill="#543A3A"/>
<path d="M345.529 159.846C357.571 153.04 366.308 151.421 380.195 159.379C390.093 162.618 395.943 175.787 397.485 179.758C398.789 183.117 400.584 186.264 401.709 189.73C403.268 194.531 404.866 199.233 406.084 204.161C408.403 213.539 410.583 222.964 411.031 232.733C411.36 239.898 411.075 247.087 410.417 254.253C410.043 258.325 409.042 262.739 406.143 265.515C403.133 268.398 400.42 270.67 396.873 272.674C390.321 276.377 383.262 278.823 375.965 279.797C369.187 280.702 362.224 281.485 355.424 281.025C352.359 280.817 349.33 280.313 346.318 279.775C343.651 279.298 341.46 277.937 338.929 277.135C335.101 275.924 332.202 272.668 329.678 269.493C326.976 266.095 324.727 262.774 323.487 258.378C321.861 252.621 320.755 246.87 321.169 240.749C321.398 237.371 321.35 233.938 321.581 230.526C321.82 226.985 322.336 223.518 322.577 219.966C323.109 212.103 323.9 203.75 326.013 196.173C326.827 193.253 327.163 189.816 328.454 187.097C329.026 185.892 329.504 184.187 329.863 182.88C330.371 181.026 331.342 179.298 332.036 177.517C333.541 173.653 335.877 170.069 338.253 166.814C340.104 164.28 342.857 161.355 345.529 159.846Z" fill="url(#paint0_linear_33_1700)"/>
<path d="M365.774 197.617C364.731 196.797 362.922 196.834 361.599 196.937C359.495 198.335 362.009 200.692 364.294 199.713C365.135 199.352 366.973 198.559 365.774 197.617Z" fill="#372831" stroke="#372831" stroke-width="1.18131" stroke-linecap="round"/>
<path d="M365.51 207.823C365.607 206.778 365.652 205.726 365.723 204.68C364.835 204.058 363.685 203.304 362.961 202.552C362.123 201.683 361.334 202.602 360.487 202.939C359.493 203.334 359.063 203.633 358.993 204.671C358.932 205.574 358.831 206.559 358.777 207.367C358.48 208.475 359.6 208.809 360.657 208.881L363.556 209.077C364.4 208.979 365.429 208.693 365.51 207.823Z" fill="#E0D0C1"/>
<path d="M373.032 204.881C369.347 206.851 363.021 204.894 362.603 200.498C361.342 204.285 356.77 206.426 351.93 202.707" stroke="#372831" stroke-width="1.77197" stroke-linecap="round"/>
<path d="M334.799 217.748C333.44 214.052 331.962 211.548 329.784 208.29C327.701 205.713 324.642 205.073 321.473 205.008C317.602 204.93 314.81 206.997 314.056 210.789C313.537 213.401 314.497 217.21 315.691 219.592C317.35 222.9 318.353 227.342 321.28 229.791C322.622 230.914 323.855 232.328 325.681 232.562C327.483 232.793 328.887 232.73 330.685 232.503C334.062 232.077 335.76 229.853 336.144 226.229C336.506 222.81 335.948 220.871 334.799 217.748Z" fill="url(#paint1_linear_33_1700)"/>
<path d="M390.058 211.322C392.329 209.877 393.369 208.015 396.097 206.994C403.852 207.521 403.037 216.963 401.171 221.269C400.43 222.978 398.465 224.24 397.173 225.692C395.7 227.347 394.138 228.754 392.462 230.256C390.346 232.154 386.469 234.176 383.198 233.838C380.01 233.509 374.821 233.722 373.796 230.338C372.794 227.033 374.09 223.588 376.773 220.962C379.463 218.33 382.636 216.651 385.643 214.358C387.069 213.271 388.522 212.3 390.058 211.322Z" fill="url(#paint2_linear_33_1700)"/>
</g>
<path d="M371.718 190.342C371.522 193.245 373.272 195.728 375.305 195.866C377.337 196.003 379.371 194.305 379.567 191.402C379.764 188.499 378.049 185.49 376.017 185.353C373.984 185.215 371.915 187.439 371.718 190.342Z" fill="#372831"/>
<path d="M350.079 188.598C349.883 191.501 351.634 193.984 353.666 194.122C355.698 194.259 357.732 192.561 357.929 189.658C358.125 186.755 356.41 183.746 354.378 183.609C352.346 183.471 350.276 185.695 350.079 188.598Z" fill="#372831"/>
<path d="M334.834 164.393C335.031 161.994 342.298 148.357 344.098 146.282C347.227 144.849 353.106 142.656 368.92 143.581C384.735 144.506 389.683 149.528 392.534 151.487C393.97 153.846 399.429 167.651 399.232 170.05C399.232 170.05 382.706 165.02 367.488 164.13C352.269 163.24 334.834 164.393 334.834 164.393Z" fill="#8F9D2F"/>
<path d="M324.22 178.246C324.395 176.112 333.357 164.202 335.62 162.415C339.627 161.248 347.171 159.501 367.695 160.891C388.218 162.281 394.798 166.94 398.557 168.789C400.497 170.945 408.031 183.46 407.856 185.593C407.856 185.593 386.494 176.274 366.744 174.937C346.994 173.6 324.22 178.246 324.22 178.246Z" fill="#8F9D2F"/>
<path d="M393.997 173.762C398.695 175.055 402.262 170.438 404.412 166.843C405.858 163.32 403.269 160.53 400.23 159.457C396.637 158.188 390.485 162.106 389.517 165.834C389.174 167.156 390.449 167.384 391.27 168.61C392.167 169.948 392.369 173.314 393.997 173.762Z" fill="#AE8873"/>
<path d="M337.214 155.796C340.974 156.474 345.517 161.175 345.345 165.094C345.086 168.927 342.196 171.868 338.108 170.576C336.035 169.92 334.11 168.734 332.662 167.076C331.55 165.803 329.957 164.084 329.923 162.274C329.845 158.198 333.266 155.085 337.214 155.796Z" fill="#AE8873"/>
<path d="M322.921 274.502C324.602 281.587 327.592 287.509 339.059 284.787C350.527 282.065 347.241 275.535 345.56 268.451C343.878 261.367 336.009 259.479 330.013 260.902C318.546 263.624 321.239 267.418 322.921 274.502Z" fill="#AE8873"/>
<path d="M389.859 274.636C389.672 281.915 387.965 288.326 376.183 288.023C364.401 287.72 366.272 280.654 366.459 273.375C366.646 266.096 373.957 262.629 380.118 262.787C391.9 263.09 390.046 267.357 389.859 274.636Z" fill="#AE8873"/>
<path d="M393.239 216.985L314.452 227.333C313.765 227.423 313.185 227.846 312.905 228.462C312.181 230.05 312.589 231.966 313.919 233.224L314.742 234.004C315.418 234.643 316.346 234.942 317.244 234.809L394.555 223.367C395.372 223.246 396.03 222.684 396.265 221.91C396.638 220.677 396.43 219.319 395.697 218.2L395.631 218.099C395.108 217.301 394.168 216.863 393.239 216.985Z" fill="#A86E41"/>
<g filter="url(#filter3_d_33_1700)">
<path d="M355.246 222.88C378.881 219.98 379.48 223.41 355.845 226.31V226.31C336.177 228.723 320.099 229.911 319.934 228.964C319.468 226.296 335.579 225.293 355.246 222.88V222.88Z" fill="#E9B48A"/>
</g>
<g filter="url(#filter4_d_33_1700)">
<path d="M101.482 201.467H143.869C143.869 201.467 158.92 238.831 156.463 259.808C154.006 280.784 122.676 277.758 122.676 277.758C122.676 277.758 91.3456 280.784 88.8884 259.808C86.4311 238.831 101.482 201.467 101.482 201.467Z" fill="#C49E80"/>
<path d="M112.981 203.314L98.8797 198.743C91.6915 216.837 90.2452 241.005 85.6596 252.951C79.4448 269.141 108.939 288.64 112.981 275.748C117.024 262.855 116.621 233.235 112.981 203.314Z" fill="#485199"/>
<path d="M96.9844 220.851C96.9844 218.864 98.8519 217.406 100.78 217.888L102.59 218.34C102.766 218.384 102.937 218.444 103.102 218.518L106.923 220.237C108.019 220.73 108.724 221.821 108.724 223.023V230.778C108.724 232.514 107.273 233.935 105.55 233.714C102.649 233.341 100.567 232.534 98.1284 230.742C97.3897 230.199 96.9844 229.321 96.9844 228.404V220.851Z" fill="#747ECB"/>
<path d="M109.888 222.689C109.612 220.613 98.0231 216.166 97.1953 217.055C96.3676 217.945 98.0231 226.84 101.334 227.433C104.645 228.026 110.164 224.765 109.888 222.689Z" fill="#5E69C5"/>
<path d="M91.8822 242.538C92.1315 240.566 94.1672 239.354 96.0194 240.074L100.092 241.657C100.261 241.723 100.423 241.803 100.578 241.898L106.425 245.472C107.45 246.098 108.013 247.268 107.862 248.461L106.219 261.456C106.001 263.179 104.388 264.39 102.693 264.012C97.7811 262.917 94.7029 261.345 91.0984 257.803C90.4445 257.161 90.1492 256.241 90.2642 255.332L91.8822 242.538Z" fill="#747ECB"/>
<path d="M109.452 249.01C109.433 246.05 93.9671 237.756 92.6483 238.857C91.3295 239.957 92.0737 252.728 96.6126 254.148C101.152 255.567 109.47 251.97 109.452 249.01Z" fill="#5E69C5"/>
<path d="M131.826 203.315L145.927 198.743C153.115 216.837 154.561 241.005 159.147 252.951C165.362 269.141 135.868 288.641 131.826 275.748C127.783 262.856 128.186 233.235 131.826 203.315Z" fill="#485199"/>
<path d="M147.822 220.851C147.822 218.864 145.955 217.406 144.027 217.888L142.217 218.34C142.041 218.384 141.869 218.444 141.704 218.518L137.884 220.237C136.788 220.73 136.083 221.821 136.083 223.023V230.778C136.083 232.514 137.534 233.935 139.256 233.714C142.158 233.341 144.239 232.534 146.678 230.742C147.417 230.199 147.822 229.321 147.822 228.404V220.851Z" fill="#747ECB"/>
<path d="M134.919 222.689C135.195 220.613 146.784 216.166 147.611 217.055C148.439 217.945 146.784 226.84 143.473 227.433C140.161 228.026 134.643 224.765 134.919 222.689Z" fill="#5E69C5"/>
<path d="M152.924 242.538C152.675 240.566 150.639 239.354 148.787 240.074L144.715 241.657C144.546 241.723 144.383 241.803 144.229 241.898L138.382 245.472C137.356 246.098 136.794 247.268 136.944 248.461L138.588 261.456C138.806 263.179 140.419 264.39 142.114 264.012C147.026 262.917 150.104 261.345 153.708 257.803C154.362 257.161 154.657 256.241 154.542 255.332L152.924 242.538Z" fill="#747ECB"/>
<path d="M135.355 249.01C135.374 246.05 150.839 237.756 152.158 238.857C153.477 239.957 152.733 252.728 148.194 254.148C143.655 255.567 135.336 251.97 135.355 249.01Z" fill="#5E69C5"/>
<path d="M149.51 150.244C149.505 150.24 149.501 150.236 149.496 150.232L142.279 144.314C142.279 144.314 141.7 129.913 142.279 125.677C142.857 121.441 144.014 115.088 147.196 116.358C150.378 117.629 147.196 130.759 150.667 129.912C154.138 129.066 156.741 110.428 158.766 107.04C160.791 103.651 167.496 110.088 164.84 116.358C162.192 122.611 147.916 148.831 149.496 150.232L149.51 150.244Z" fill="#776969"/>
<path d="M96.2125 150.244C96.2173 150.24 96.2219 150.236 96.2265 150.232L103.612 144.314C103.612 144.314 104.204 129.913 103.612 125.677C103.02 121.441 101.836 115.088 98.5803 116.358C95.3245 117.629 98.5803 130.759 95.0285 129.912C91.4768 129.066 88.8129 110.428 86.7411 107.04C84.6692 103.651 77.8081 110.088 80.5255 116.358C83.2353 122.611 97.8431 148.831 96.2265 150.232L96.2125 150.244Z" fill="#776969"/>
<path d="M158.097 133.443C149.923 132.626 147.471 146.794 147.471 146.794L155.645 158.51C155.645 158.51 172.81 157.42 174.717 146.794C176.625 136.168 174.717 130.991 171.72 130.174C168.723 129.356 166.271 134.261 158.097 133.443Z" fill="#C49E80"/>
<path d="M158.577 145.695C153.806 145.366 152.375 151.069 152.375 151.069L157.146 155.785C157.146 155.785 167.164 155.346 168.277 151.069C169.39 146.791 168.277 144.707 166.527 144.378C164.778 144.049 163.347 146.024 158.577 145.695Z" fill="#E1C7B3"/>
<path d="M86.3855 133.443C94.5595 132.626 97.0117 146.794 97.0117 146.794L88.8377 158.51C88.8377 158.51 71.6723 157.42 69.765 146.794C67.8577 136.168 69.765 130.991 72.7621 130.174C75.7593 129.356 78.2115 134.261 86.3855 133.443Z" fill="#C49E80"/>
<path d="M85.9058 145.695C90.6763 145.366 92.1074 151.069 92.1074 151.069L87.3369 155.785C87.3369 155.785 77.3189 155.346 76.2057 151.069C75.0926 146.791 76.2057 144.707 77.9549 144.378C79.7041 144.049 81.1353 146.024 85.9058 145.695Z" fill="#E1C7B3"/>
<ellipse cx="122.948" cy="173.404" rx="39.7802" ry="36.7831" fill="#C49E80"/>
<path d="M110.009 163.975C108.861 166.276 107.543 164.125 104.681 164.207C101.819 164.289 100.106 167.233 98.9581 165.507C97.8101 163.782 101.373 160.848 103.803 160.66C106.233 160.471 111.157 161.674 110.009 163.975Z" fill="#776969"/>
<path d="M133.22 163.975C134.367 166.276 135.685 164.125 138.548 164.207C141.41 164.289 143.122 167.233 144.27 165.507C145.418 163.782 141.855 160.848 139.425 160.66C136.995 160.471 132.072 161.674 133.22 163.975Z" fill="#776969"/>
<ellipse cx="123.22" cy="192.813" rx="18.8002" ry="14.1683" fill="#E1C7B3"/>
<path d="M121.05 197.142C119.64 196.4 114.782 193.235 116.963 191.704C117.935 191.022 121.348 193.371 122.684 193.328C123.953 193.286 126.756 191.538 127.861 191.704C131.329 194.442 124.878 199.157 121.05 197.142Z" fill="#372831" stroke="#372831" stroke-width="1.22183" stroke-linecap="round"/>
<path d="M112.273 201.342C115.307 204.144 121.597 205.449 122.911 201.227M122.911 201.227C124.178 205.293 128.777 204.867 133.79 201.108M122.911 201.227L122.969 197.58" stroke="#372831" stroke-width="1.83275" stroke-linecap="round"/>
<ellipse cx="104.965" cy="175.315" rx="4.90441" ry="7.62908" fill="#372831"/>
<ellipse cx="139.297" cy="175.315" rx="4.90441" ry="7.62908" fill="#372831"/>
<path d="M146.718 259.551C148.537 259.322 153.031 277.223 148.164 281.006C143.298 284.79 137.465 285.878 132.293 281.007C127.12 276.135 131.118 262.498 133.315 261.246C135.512 259.994 137.589 261.368 139.825 263.193C141.789 260.636 144.898 259.78 146.718 259.551Z" fill="#776969"/>
<path d="M98.386 259.551C96.5668 259.322 92.0729 277.223 96.9393 281.006C101.806 284.79 107.638 285.878 112.811 281.007C117.984 276.135 113.986 262.498 111.788 261.246C109.591 259.994 107.515 261.368 105.279 263.193C103.314 260.636 100.205 259.78 98.386 259.551Z" fill="#776969"/>
<path d="M101.352 239.444L93.1388 250.796C73.8922 235.157 75.7947 231.505 78.04 224.469C80.6276 216.359 90.0857 209.379 96.0048 199.641C97.7189 200.414 99.9481 203.591 100.157 205.561C101.206 215.456 98.0205 219.74 93.9239 225.407C89.8274 231.075 95.535 234.294 101.352 239.444Z" fill="url(#paint3_linear_33_1700)"/>
<path d="M105.107 252.912C104.562 253.943 94.9032 253.072 92.3843 250.28C91.8393 242.982 93.5699 240.276 97.1429 235.779C97.1429 235.779 107.176 242.003 107.141 243.567C107.107 245.132 105.441 245.774 103.427 246.354C104.673 248.812 105.651 251.881 105.107 252.912Z" fill="#776969"/>
<path d="M144.117 239.444L152.33 250.796C171.577 235.157 169.674 231.506 167.429 224.469C164.841 216.359 155.383 209.379 149.464 199.641C147.75 200.414 145.521 203.592 145.312 205.562C144.263 215.456 147.448 219.74 151.545 225.408C155.641 231.075 149.934 234.294 144.117 239.444Z" fill="url(#paint4_linear_33_1700)"/>
<path d="M140.362 252.912C140.907 253.944 150.566 253.072 153.084 250.28C153.629 242.983 151.899 240.276 148.326 235.78C148.326 235.78 138.292 242.003 138.327 243.568C138.362 245.132 140.028 245.774 142.041 246.354C140.796 248.812 139.817 251.881 140.362 252.912Z" fill="#776969"/>
<mask id="mask0_33_1700" style="mask-type:alpha" maskUnits="userSpaceOnUse" x="101" y="221" width="45" height="30">
<path d="M102.363 250.417H144.667C144.667 250.417 145.884 241.42 144.667 239.789C143.451 238.158 137.929 235.009 137.835 233.828C137.741 232.648 136.431 226.406 135.589 225.562C134.746 224.719 132.313 221.626 130.816 221.458C129.318 221.289 125.2 222.92 123.141 223.257C121.082 223.594 116.589 222.076 113.126 227.531C109.663 232.985 106.481 231.917 106.013 234.391C105.545 236.865 103.954 237.652 103.673 239.789C103.393 241.926 103.58 243.556 102.363 244.906C101.146 246.256 103.112 248.992 102.363 250.417Z" fill="#6B6465"/>
</mask>
<g mask="url(#mask0_33_1700)">
<path d="M102.363 250.417H144.667C144.667 250.417 145.884 241.42 144.667 239.789C143.451 238.158 137.929 235.009 137.835 233.828C137.741 232.648 136.431 226.406 135.589 225.562C134.746 224.719 132.313 221.626 130.816 221.458C129.318 221.289 125.2 222.92 123.141 223.257C121.082 223.594 116.589 222.076 113.126 227.531C109.663 232.985 106.481 231.917 106.013 234.391C105.545 236.865 103.954 237.652 103.673 239.789C103.393 241.926 103.58 243.556 102.363 244.906C101.146 246.256 103.112 248.992 102.363 250.417Z" fill="#6B6465"/>
<path d="M138.246 214.892H95.942C95.942 214.892 94.7253 223.889 95.942 225.52C97.1587 227.151 102.681 230.3 102.774 231.48C102.868 232.661 104.178 238.903 105.021 239.746C105.863 240.59 108.296 243.683 109.794 243.851C111.291 244.02 115.409 242.389 117.469 242.052C119.528 241.715 124.02 243.233 127.483 237.778C130.946 232.324 134.128 233.392 134.596 230.918C135.064 228.444 136.655 227.657 136.936 225.52C137.217 223.383 137.03 221.752 138.246 220.403C139.463 219.053 137.498 216.317 138.246 214.892Z" fill="#918889"/>
</g>
</g>
<g filter="url(#filter5_d_33_1700)">
<ellipse cx="241.215" cy="108.973" rx="61.8691" ry="20.2831" transform="rotate(-0.96796 241.215 108.973)" fill="#FFD80B"/>
<path d="M288.219 213.675C291.991 257.266 274.866 276.837 241.336 276.837C211.367 276.837 187.518 268.83 194.454 213.675C200.219 167.828 215.444 150.513 241.336 150.513C267.229 150.513 283.781 162.376 288.219 213.675Z" fill="#C59E80"/>
<path d="M298.218 135.093C298.218 161.624 290.805 170.973 241.58 170.973C189.686 170.973 184.941 161.624 184.941 135.093C184.941 108.562 210.299 80.53 241.58 80.53C272.86 80.53 298.218 108.562 298.218 135.093Z" fill="#C59E80"/>
<rect x="212.756" y="114.926" width="10.2934" height="4.57485" rx="2.28743" transform="rotate(-21.2165 212.756 114.926)" fill="#776969"/>
<rect width="10.2934" height="4.57485" rx="2.28743" transform="matrix(-0.948729 -0.316091 -0.316091 0.948729 270.879 114.653)" fill="#776969"/>
<ellipse cx="241.496" cy="152.962" rx="27.2906" ry="18.0221" fill="#E1C7B3"/>
<ellipse cx="241.284" cy="230.577" rx="33.8051" ry="39.1427" fill="#E1C7B3"/>
<ellipse cx="218.254" cy="134.335" rx="5.14671" ry="5.71857" fill="#372831"/>
<circle cx="265.147" cy="133.763" r="5.14671" fill="#372831"/>
<path d="M238.431 155.534C236.416 154.768 229.47 151.497 232.588 149.916C233.978 149.211 238.663 148.374 240.573 148.329C242.387 148.287 246.504 148.966 248.171 149.916C253.128 152.744 243.906 157.616 238.431 155.534Z" fill="#776969" stroke="#776969" stroke-width="1.32976" stroke-linecap="round"/>
<path d="M226.178 161.858C230.505 165.962 239.47 167.881 241.338 161.703M241.338 161.703C243.148 167.655 249.701 167.037 256.84 161.545M241.338 161.703L241.415 156.366" stroke="#776969" stroke-width="1.99464" stroke-linecap="round"/>
<path d="M291.299 96.0562C291.449 104.978 271.096 97.4089 243.658 97.8724C216.221 98.336 192.09 106.656 191.939 97.7349C191.788 88.8136 213.707 69.3029 241.145 68.8393C268.582 68.3758 291.148 87.1348 291.299 96.0562Z" fill="url(#paint5_linear_33_1700)"/>
<path d="M288.19 103.388C306.634 84.7886 276.907 65.4483 266.109 85.6817L288.19 103.388Z" fill="#C59E80"/>
<path d="M283.542 99.8175C295.929 87.3253 275.963 74.3357 268.711 87.9251L283.542 99.8175Z" fill="#E1C7B3"/>
<path d="M195.904 103.388C177.46 84.7886 207.187 65.4483 217.985 85.6817L195.904 103.388Z" fill="#C59E80"/>
<path d="M200.552 99.8175C188.165 87.3253 208.131 74.3357 215.383 87.9251L200.552 99.8175Z" fill="#E1C7B3"/>
<path d="M303.075 107.927C303.03 105.264 301.385 102.654 298.235 100.246C295.085 97.8381 290.49 95.6794 284.714 93.8933C278.938 92.1071 272.093 90.7285 264.571 89.8361C257.048 88.9438 248.996 88.5551 240.872 88.6924C232.748 88.8296 224.713 89.4901 217.225 90.6361C209.737 91.7821 202.943 93.3911 197.231 95.3714C191.518 97.3516 186.999 99.6643 183.932 102.177C180.865 104.69 179.309 107.355 179.354 110.018C179.354 110.018 211.696 100.246 240.872 100.246C270.048 100.246 303.075 107.927 303.075 107.927Z" fill="#FFD80B"/>
<path d="M195.981 220.611C201.934 203.09 200.86 188.452 198.065 171.309L203.593 169.403C213.537 189.905 205.56 211.704 195.981 220.611Z" fill="#D94B4B"/>
<path d="M283.149 220.699C278.945 202.677 281.452 188.215 285.917 171.43L280.603 168.991C268.693 188.417 274.49 210.893 283.149 220.699Z" fill="#D94B4B"/>
<path d="M200.519 179.616C216.374 188.766 222.39 200.063 246.324 198.552C252.696 198.149 277.529 183.929 282.01 181.983C285.868 180.308 274.307 175.802 274.307 175.802C275.69 173.403 283.106 173.035 279.209 171.112C282.71 168.168 278.329 166.835 274.308 166.179C271.076 168.017 257.585 174.096 242.469 173.049C220.26 171.511 195.231 162.428 199.711 166.179C199.415 170.225 200.314 171.41 204.264 171.112C199.3 174.445 198.456 176.307 200.519 179.616Z" fill="#FFD80B"/>
<path d="M203.203 170.796C213.875 178.313 220.481 180.332 229.697 183.149C232.21 183.918 234.918 184.746 237.955 185.76C233.674 184.684 230.248 184.112 227.152 183.596C220.393 182.469 215.209 181.605 206.138 176.313L203.84 172.643C203.903 172.684 203.966 172.727 204.03 172.771C203.705 172.055 203.429 171.399 203.203 170.796Z" fill="black" fill-opacity="0.07"/>
<path d="M237.132 180.953C250.871 176.842 266.552 182.108 279.549 170.832C265.79 175.921 252.756 175.02 237.132 180.953Z" fill="#EDC90A"/>
<path d="M197.045 279.606C192.048 271.973 190.917 261.349 196.224 253.877C201.531 246.404 234.715 243.437 234.953 251.965C235.191 260.492 236.997 281.531 231.021 282.007C225.046 282.483 201.013 285.666 197.045 279.606Z" fill="url(#paint6_linear_33_1700)"/>
<path d="M202.323 279.022C199.06 274.625 198.533 268.367 202.367 263.82C206.202 259.273 229.136 256.73 229.098 261.77C229.06 266.809 229.805 279.213 225.676 279.637C221.547 280.06 204.913 282.514 202.323 279.022Z" fill="#E1C7B3"/>
<path d="M284.996 279.606C289.993 271.973 291.124 261.349 285.817 253.877C280.51 246.404 247.326 243.437 247.088 251.965C246.85 260.492 245.044 281.531 251.02 282.007C256.995 282.483 281.028 285.666 284.996 279.606Z" fill="url(#paint7_linear_33_1700)"/>
<path d="M279.718 279.022C282.981 274.625 283.508 268.367 279.674 263.82C275.839 259.273 252.905 256.73 252.943 261.77C252.981 266.809 252.236 279.213 256.365 279.637C260.494 280.06 277.128 282.514 279.718 279.022Z" fill="#E1C7B3"/>
<path d="M309.189 214.429C310.227 226.501 290.127 238.62 273.349 237.965C256.571 237.31 258.213 219.329 263.963 212.355C269.712 205.381 282.159 208.953 280.208 202.105C277.623 193.03 277.896 173.193 284.415 171.522C294.53 168.93 306.941 188.291 309.189 214.429Z" fill="url(#paint8_linear_33_1700)"/>
<path d="M172.932 214.429C171.894 226.501 191.994 238.62 208.772 237.965C225.55 237.31 223.908 219.329 218.158 212.355C212.409 205.381 199.962 208.953 201.913 202.105C204.498 193.03 204.225 173.193 197.706 171.522C187.591 168.93 175.18 188.291 172.932 214.429Z" fill="url(#paint9_linear_33_1700)"/>
<g filter="url(#filter6_d_33_1700)">
<path d="M252.14 220.704L217.515 232.718L213.176 231.064L219.315 229.021C219.65 228.909 219.923 228.664 220.069 228.344L223.5 220.836L225.151 215.711L226.802 210.587L230.275 203.051C230.302 202.992 230.333 202.936 230.369 202.882L232.886 199.07C233.158 198.657 233.799 198.837 233.817 199.331L233.887 201.226L234.164 205.426L234.405 209.089C234.429 209.445 234.402 209.803 234.326 210.153L233.469 214.075C233.359 214.579 233.172 215.064 232.916 215.512L230.872 219.087C230.795 219.22 230.707 219.347 230.608 219.464L224.524 226.672C224.356 226.872 224.561 227.165 224.806 227.074L233.363 223.913C233.632 223.814 233.86 223.626 234.008 223.38L235.74 220.524L242.379 207.563L246.732 201.153C247.01 200.743 247.651 200.934 247.66 201.429L247.747 206.389C247.748 206.471 247.742 206.553 247.727 206.634L247.094 210.195C246.967 210.91 246.688 211.588 246.276 212.186L244.728 214.434L239.012 221.416C238.845 221.62 239.061 221.912 239.305 221.812L243.127 220.244C243.406 220.129 243.703 220.065 244.003 220.055L246.742 219.961L251.785 219.449L260.157 214.342L265.641 211.777C265.721 211.74 265.805 211.711 265.891 211.691L271.51 210.385C272.046 210.26 272.37 210.957 271.929 211.286L265.657 215.964C265.377 216.173 265.076 216.353 264.759 216.5L258.453 219.426C258.263 219.514 258.063 219.579 257.857 219.618L252.176 220.694C252.164 220.697 252.152 220.7 252.14 220.704Z" fill="#692144"/>
<path d="M233.115 233.908L224.072 230.46L228.458 228.812L238.99 231.39L245.291 233.793C245.813 233.992 246.299 234.275 246.728 234.632L257.627 243.691C258.055 244.047 257.681 244.733 257.15 244.566L243.794 240.372C243.371 240.239 242.966 240.05 242.591 239.812L234.031 234.368C233.742 234.184 233.435 234.03 233.115 233.908Z" fill="#692144"/>
</g>
</g>
</g>
<defs>
<filter id="filter0_d_33_1700" x="0.831509" y="11.0295" width="497.006" height="554.475" filterUnits="userSpaceOnUse" color-interpolation-filters="sRGB">
<feFlood flood-opacity="0" result="BackgroundImageFix"/>
<feColorMatrix in="SourceAlpha" type="matrix" values="0 0 0 0 0 0 0 0 0 0 0 0 0 0 0 0 0 0 127 0" result="hardAlpha"/>
<feOffset dy="4.75248"/>
<feGaussianBlur stdDeviation="2.37624"/>
<feComposite in2="hardAlpha" operator="out"/>
<feColorMatrix type="matrix" values="0 0 0 0 0 0 0 0 0 0 0 0 0 0 0 0 0 0 0.25 0"/>
<feBlend mode="normal" in2="BackgroundImageFix" result="effect1_dropShadow_33_1700"/>
<feBlend mode="normal" in="SourceGraphic" in2="effect1_dropShadow_33_1700" result="shape"/>
</filter>
<filter id="filter1_d_33_1700" x="43.3862" y="16.0352" width="408.156" height="23.5494" filterUnits="userSpaceOnUse" color-interpolation-filters="sRGB">
<feFlood flood-opacity="0" result="BackgroundImageFix"/>
<feColorMatrix in="SourceAlpha" type="matrix" values="0 0 0 0 0 0 0 0 0 0 0 0 0 0 0 0 0 0 127 0" result="hardAlpha"/>
<feOffset dy="4.75248"/>
<feGaussianBlur stdDeviation="2.37624"/>
<feComposite in2="hardAlpha" operator="out"/>
<feColorMatrix type="matrix" values="0 0 0 0 0 0 0 0 0 0 0 0 0 0 0 0 0 0 0.25 0"/>
<feBlend mode="normal" in2="BackgroundImageFix" result="effect1_dropShadow_33_1700"/>
<feBlend mode="normal" in="SourceGraphic" in2="effect1_dropShadow_33_1700" result="shape"/>
</filter>
<filter id="filter2_d_33_1700" x="311.549" y="154.049" width="133.248" height="131.838" filterUnits="userSpaceOnUse" color-interpolation-filters="sRGB">
<feFlood flood-opacity="0" result="BackgroundImageFix"/>
<feColorMatrix in="SourceAlpha" type="matrix" values="0 0 0 0 0 0 0 0 0 0 0 0 0 0 0 0 0 0 127 0" result="hardAlpha"/>
<feOffset dy="2.36263"/>
<feGaussianBlur stdDeviation="1.18131"/>
<feComposite in2="hardAlpha" operator="out"/>
<feColorMatrix type="matrix" values="0 0 0 0 0 0 0 0 0 0 0 0 0 0 0 0 0 0 0.25 0"/>
<feBlend mode="normal" in2="BackgroundImageFix" result="effect1_dropShadow_33_1700"/>
<feBlend mode="normal" in="SourceGraphic" in2="effect1_dropShadow_33_1700" result="shape"/>
</filter>
<filter id="filter3_d_33_1700" x="308.299" y="221.78" width="76.6018" height="30.7595" filterUnits="userSpaceOnUse" color-interpolation-filters="sRGB">
<feFlood flood-opacity="0" result="BackgroundImageFix"/>
<feColorMatrix in="SourceAlpha" type="matrix" values="0 0 0 0 0 0 0 0 0 0 0 0 0 0 0 0 0 0 127 0" result="hardAlpha"/>
<feOffset dy="11.6251"/>
<feGaussianBlur stdDeviation="5.81256"/>
<feComposite in2="hardAlpha" operator="out"/>
<feColorMatrix type="matrix" values="0 0 0 0 0 0 0 0 0 0 0 0 0 0 0 0 0 0 0.25 0"/>
<feBlend mode="normal" in2="BackgroundImageFix" result="effect1_dropShadow_33_1700"/>
<feBlend mode="normal" in="SourceGraphic" in2="effect1_dropShadow_33_1700" result="shape"/>
</filter>
<filter id="filter4_d_33_1700" x="66.4356" y="106.104" width="111.611" height="183.29" filterUnits="userSpaceOnUse" color-interpolation-filters="sRGB">
<feFlood flood-opacity="0" result="BackgroundImageFix"/>
<feColorMatrix in="SourceAlpha" type="matrix" values="0 0 0 0 0 0 0 0 0 0 0 0 0 0 0 0 0 0 127 0" result="hardAlpha"/>
<feOffset dy="2.56439"/>
<feGaussianBlur stdDeviation="1.28219"/>
<feComposite in2="hardAlpha" operator="out"/>
<feColorMatrix type="matrix" values="0 0 0 0 0 0 0 0 0 0 0 0 0 0 0 0 0 0 0.25 0"/>
<feBlend mode="normal" in2="BackgroundImageFix" result="effect1_dropShadow_33_1700"/>
<feBlend mode="normal" in="SourceGraphic" in2="effect1_dropShadow_33_1700" result="shape"/>
</filter>
<filter id="filter5_d_33_1700" x="170.33" y="68.8308" width="141.461" height="219.564" filterUnits="userSpaceOnUse" color-interpolation-filters="sRGB">
<feFlood flood-opacity="0" result="BackgroundImageFix"/>
<feColorMatrix in="SourceAlpha" type="matrix" values="0 0 0 0 0 0 0 0 0 0 0 0 0 0 0 0 0 0 127 0" result="hardAlpha"/>
<feOffset dy="2.56439"/>
<feGaussianBlur stdDeviation="1.28219"/>
<feComposite in2="hardAlpha" operator="out"/>
<feColorMatrix type="matrix" values="0 0 0 0 0 0 0 0 0 0 0 0 0 0 0 0 0 0 0.25 0"/>
<feBlend mode="normal" in2="BackgroundImageFix" result="effect1_dropShadow_33_1700"/>
<feBlend mode="normal" in="SourceGraphic" in2="effect1_dropShadow_33_1700" result="shape"/>
</filter>
<filter id="filter6_d_33_1700" x="212.16" y="198.841" width="60.9904" height="47.7826" filterUnits="userSpaceOnUse" color-interpolation-filters="sRGB">
<feFlood flood-opacity="0" result="BackgroundImageFix"/>
<feColorMatrix in="SourceAlpha" type="matrix" values="0 0 0 0 0 0 0 0 0 0 0 0 0 0 0 0 0 0 127 0" result="hardAlpha"/>
<feOffset dy="1.01571"/>
<feGaussianBlur stdDeviation="0.507856"/>
<feComposite in2="hardAlpha" operator="out"/>
<feColorMatrix type="matrix" values="0 0 0 0 0 0 0 0 0 0 0 0 0 0 0 0 0 0 0.25 0"/>
<feBlend mode="normal" in2="BackgroundImageFix" result="effect1_dropShadow_33_1700"/>
<feBlend mode="normal" in="SourceGraphic" in2="effect1_dropShadow_33_1700" result="shape"/>
</filter>
<linearGradient id="paint0_linear_33_1700" x1="371.943" y1="155.021" x2="363.375" y2="281.564" gradientUnits="userSpaceOnUse">
<stop stop-color="#AD806B"/>
<stop offset="1" stop-color="#C99A81"/>
</linearGradient>
<linearGradient id="paint1_linear_33_1700" x1="321.7" y1="208.796" x2="332.357" y2="236.603" gradientUnits="userSpaceOnUse">
<stop stop-color="#AD806B"/>
<stop offset="0.674683" stop-color="#C99A81"/>
</linearGradient>
<linearGradient id="paint2_linear_33_1700" x1="399.111" y1="216.687" x2="386.114" y2="222.316" gradientUnits="userSpaceOnUse">
<stop stop-color="#B0826D"/>
<stop offset="0.901042" stop-color="#C89980"/>
</linearGradient>
<linearGradient id="paint3_linear_33_1700" x1="94.3123" y1="249.422" x2="85.6922" y2="210.378" gradientUnits="userSpaceOnUse">
<stop stop-color="#C49E80"/>
<stop offset="1" stop-color="#9F826A"/>
</linearGradient>
<linearGradient id="paint4_linear_33_1700" x1="151.156" y1="249.422" x2="159.777" y2="210.378" gradientUnits="userSpaceOnUse">
<stop stop-color="#C49E80"/>
<stop offset="1" stop-color="#9F826A"/>
</linearGradient>
<linearGradient id="paint5_linear_33_1700" x1="241.145" y1="68.8393" x2="241.743" y2="104.251" gradientUnits="userSpaceOnUse">
<stop stop-color="#FFD80B"/>
<stop offset="1" stop-color="#E7CE4F"/>
</linearGradient>
<linearGradient id="paint6_linear_33_1700" x1="220.998" y1="248.887" x2="219.295" y2="284.858" gradientUnits="userSpaceOnUse">
<stop stop-color="#C49E80"/>
<stop offset="1" stop-color="#B29278"/>
</linearGradient>
<linearGradient id="paint7_linear_33_1700" x1="261.043" y1="248.887" x2="262.746" y2="284.858" gradientUnits="userSpaceOnUse">
<stop stop-color="#C49E80"/>
<stop offset="1" stop-color="#B29278"/>
</linearGradient>
<linearGradient id="paint8_linear_33_1700" x1="282.905" y1="171.91" x2="265.028" y2="223.411" gradientUnits="userSpaceOnUse">
<stop stop-color="#C59E80"/>
<stop offset="1" stop-color="#B29278"/>
</linearGradient>
<linearGradient id="paint9_linear_33_1700" x1="199.216" y1="171.91" x2="217.093" y2="223.411" gradientUnits="userSpaceOnUse">
<stop stop-color="#C59E80"/>
<stop offset="1" stop-color="#B29278"/>
</linearGradient>
<clipPath id="clip0_33_1700">
<rect width="497" height="566" fill="white"/>
</clipPath>
</defs>
</svg>
