<svg width="497" height="566" viewBox="0 0 497 566" fill="none" xmlns="http://www.w3.org/2000/svg">
<g clip-path="url(#clip0_33_1491)">
<g filter="url(#filter0_d_33_1491)">
<path d="M23.5957 515.511V38H477.251V535.177C477.251 541.335 472.547 546.472 466.413 547.012L364.383 556H51.2205C40.1566 556 30.5566 548.364 28.0674 537.584L24.205 520.857C23.8001 519.104 23.5957 517.31 23.5957 515.511Z" fill="#F9F1D5"/>
<path d="M482.717 11.0298L15.4756 13.8569C13.323 13.8699 11.2707 14.7686 9.80129 16.3416C3.8541 22.7079 4.24623 32.7041 10.6739 38.585L15.4167 42.9244C17.496 44.8268 20.2257 45.8596 23.0436 45.8099L483.353 37.6907C486.049 37.6432 488.557 36.3026 490.093 34.0881C493.91 28.5888 494.089 21.3466 490.551 15.6647L490.252 15.1842C488.632 12.5842 485.779 11.0113 482.717 11.0298Z" fill="#9E7F67"/>
<g filter="url(#filter1_d_33_1491)">
<path d="M430.749 16.7679C452.747 17.8869 451.819 26.064 429.819 27.1228C392.846 28.9023 328.633 30.0796 255.608 30.0796C141.026 30.0796 48.1387 27.1811 48.1387 23.6057C48.1387 13.5351 141.026 17.1317 255.608 17.1317C331.4 17.1317 394.594 14.9286 430.749 16.7679Z" fill="#C99C79"/>
</g>
<path d="M32.8355 98.5911L26.8457 94.0816V98.056C26.8457 100.621 28.4917 102.896 30.9278 103.698L33.4739 104.537C34.1454 104.758 34.8511 104.858 35.5577 104.831L432.504 89.7656L36.5588 99.7838C35.2187 99.8177 33.9065 99.3974 32.8355 98.5911Z" fill="#A86E41" fill-opacity="0.25"/>
<path d="M473.88 313.972L477.252 310.286V314.756C477.252 317.044 475.938 319.128 473.875 320.115L473.397 320.344C472.497 320.774 471.503 320.971 470.507 320.916L199.866 306L469.279 315.899C471.021 315.963 472.704 315.258 473.88 313.972Z" fill="#A86E41" fill-opacity="0.25"/>
<path d="M471.864 523L45.459 527.316H467.548C469.932 527.316 471.864 525.384 471.864 523Z" fill="#A86E41" fill-opacity="0.25"/>
</g>
<rect x="192.398" y="67.4817" width="172.179" height="147.582" fill="white"/>
<path opacity="0.25" d="M215.299 78.5078H341.676M215.299 78.5078V94.305M215.299 78.5078V204.885M215.299 78.5078L231.096 78.5078M341.676 78.5078V94.305M341.676 78.5078V204.885M341.676 78.5078L325.879 78.5078M341.676 94.305H215.299M341.676 94.305V110.102M215.299 94.305V110.102M341.676 110.102H215.299M341.676 110.102V125.899M215.299 110.102V125.899M341.676 125.899H215.299M341.676 125.899V141.697M215.299 125.899V141.697M341.676 141.697H215.299M341.676 141.697V157.494M215.299 141.697V157.494M341.676 157.494H215.299M341.676 157.494V173.291M215.299 157.494V173.291M341.676 173.291H215.299M341.676 173.291V189.088M215.299 173.291V189.088M341.676 189.088H215.299M341.676 189.088V204.885M215.299 189.088V204.885M341.676 204.885H215.299M341.676 204.885H325.879M215.299 204.885H231.096M325.879 204.885L325.879 78.5078M325.879 204.885H310.082M325.879 78.5078H310.082M310.082 204.885L310.082 78.5078M310.082 204.885H294.285M310.082 78.5078H294.285M294.285 204.885L294.285 78.5078M294.285 204.885H278.488M294.285 78.5078H278.488M278.488 204.885L278.488 78.5078M278.488 204.885H262.69M278.488 78.5078H262.69M262.69 204.885L262.69 78.5078M262.69 204.885H246.893M262.69 78.5078H246.893M246.893 204.885L246.893 78.5078M246.893 204.885H231.096M246.893 78.5078H231.096M231.096 204.885L231.096 78.5078" stroke="#C49E80" stroke-width="1.69634"/>
<path d="M283.999 96.3195C284.233 96.3203 284.424 96.1312 284.424 95.897L284.439 92.0802C284.44 91.846 284.25 91.6554 284.016 91.6546C283.782 91.6537 283.591 91.8428 283.59 92.0771L283.578 95.4697L280.185 95.4571C279.951 95.4562 279.76 95.6454 279.76 95.8796C279.759 96.1138 279.948 96.3044 280.182 96.3053L283.999 96.3195ZM264.21 90.7823C267.744 89.5348 271.075 89.3483 274.28 90.2311C277.491 91.1153 280.61 93.0813 283.699 96.1941L284.301 95.5966C281.138 92.4098 277.896 90.347 274.506 89.4134C271.111 88.4785 267.602 88.6854 263.927 89.9825L264.21 90.7823Z" fill="#372831"/>
<path d="M287.014 149.708C286.91 149.499 286.996 149.244 287.206 149.14L290.626 147.445C290.836 147.341 291.09 147.427 291.194 147.636C291.298 147.846 291.212 148.101 291.002 148.205L287.963 149.712L289.47 152.751C289.574 152.961 289.488 153.216 289.278 153.32C289.068 153.424 288.814 153.338 288.71 153.128L287.014 149.708ZM304.167 172.208C305.738 167.123 305.164 162.82 302.424 159.169C299.664 155.491 294.663 152.418 287.259 149.922L287.53 149.118C294.999 151.636 300.191 154.78 303.102 158.66C306.035 162.567 306.613 167.163 304.978 172.458L304.167 172.208Z" fill="#372831"/>
<path d="M257.31 153.565C257.313 153.799 257.125 153.992 256.891 153.994L253.074 154.042C252.84 154.045 252.648 153.858 252.645 153.624C252.642 153.389 252.83 153.197 253.064 153.194L256.456 153.152L256.414 149.759C256.411 149.525 256.598 149.333 256.832 149.33C257.067 149.327 257.259 149.514 257.262 149.749L257.31 153.565ZM251.598 133.825C250.382 137.371 250.225 140.703 251.136 143.901C252.048 147.103 254.042 150.205 257.182 153.267L256.589 153.874C253.375 150.739 251.283 147.515 250.32 144.133C249.355 140.747 249.531 137.237 250.796 133.55L251.598 133.825Z" fill="#372831"/>
<rect x="317.883" y="100.867" width="9.32988" height="115.088" rx="4.24085" transform="rotate(45 317.883 100.867)" stroke="#AC907B" stroke-width="1.69634"/>
<rect x="262.293" y="152.859" width="14.4189" height="29.686" rx="4.24085" transform="rotate(45 262.293 152.859)" stroke="#AC907B" stroke-width="1.69634"/>
<rect x="278.486" y="109.078" width="28.8378" height="52.5866" rx="4.24085" transform="rotate(-45 278.486 109.078)" stroke="#AC907B" stroke-width="1.69634"/>
<path d="M182.221 59L192.399 66.9193V213.514L182.221 223.545V59Z" fill="#AD795E"/>
<path d="M374.812 59L364.634 66.9193V213.514L374.812 223.545V59Z" fill="#AD795E"/>
<rect x="239.049" y="84.4451" width="22.0524" height="8.48171" fill="#AC907B"/>
<rect x="242.441" y="121.765" width="22.0524" height="8.48171" fill="#AC907B"/>
<rect x="298.42" y="174.351" width="22.0524" height="8.48171" fill="#AC907B"/>
<g filter="url(#filter2_d_33_1491)">
<path d="M234.823 201.56C217.426 208.488 207.018 208.883 187.888 206.577C187.884 204.875 189.669 201.848 191.215 200.939C204.924 192.872 215.023 192.855 229.555 188.607L234.823 201.56Z" fill="#C49E80"/>
<path d="M234.823 201.56C217.426 208.488 207.018 208.883 187.888 206.577C187.884 204.875 189.669 201.848 191.215 200.939C204.924 192.872 215.023 192.855 229.555 188.607L234.823 201.56Z" fill="url(#paint0_linear_33_1491)"/>
<path d="M244.84 196.077C245.042 197.113 237.741 201.988 234.379 201.452C229.848 196.62 229.529 193.729 229.491 188.53C229.491 188.53 240.099 187.213 240.963 188.335C241.828 189.457 241.019 190.857 239.93 192.409C242.204 193.434 244.638 195.04 244.84 196.077Z" fill="#776969"/>
<path d="M196.052 190.911L190.726 187.722C190.147 204.501 194.943 224.857 194.67 235.894C194.299 250.853 219.111 259.549 218.787 247.865C218.462 236.181 211.317 207.8 196.052 190.911Z" fill="#485199"/>
<path d="M202.252 243.566L185.236 246.294C187.731 259.418 188.99 267.368 191.041 282.498L205.959 280.106C206.179 261.398 207.547 247.596 202.252 243.566Z" fill="#C49E80"/>
<path d="M202.252 243.566L185.236 246.294C187.731 259.418 188.99 267.368 191.041 282.498L205.959 280.106C206.179 261.398 207.547 247.596 202.252 243.566Z" fill="url(#paint1_linear_33_1491)"/>
<path d="M203.715 291.82C204.938 291.798 207.673 281.56 205.687 277.947C199.122 276.301 195.682 276.421 190.148 279.165C190.148 279.165 193.109 291.287 194.702 291.981C196.295 292.675 197.497 291.44 198.751 289.856C200.346 291.538 202.492 291.843 203.715 291.82Z" fill="#776969"/>
<path d="M180.877 243.242L194.533 253.753C186.083 264.1 181.186 270.488 172.169 282.809L160.196 273.594C168.923 257.044 174.301 244.26 180.877 243.242Z" fill="#C49E80"/>
<path d="M156.583 284.961C155.519 284.357 157.996 274.055 161.465 271.825C168.02 273.509 170.987 275.255 174.543 280.305C174.543 280.305 166.16 289.549 164.429 289.399C162.699 289.249 162.23 287.591 161.883 285.6C159.679 286.319 157.648 285.564 156.583 284.961Z" fill="#776969"/>
<path d="M169.904 190.585L196.798 192.73C196.798 192.73 212.674 222.971 210.845 241.152C209.015 259.334 185.685 256.711 185.685 256.711C185.685 256.711 162.356 259.334 160.526 241.152C158.696 222.971 169.904 190.585 169.904 190.585Z" fill="#C49E80"/>
<path d="M169.904 190.585L196.798 192.73C196.798 192.73 212.674 222.971 210.845 241.152C209.015 259.334 185.685 256.711 185.685 256.711C185.685 256.711 162.356 259.334 160.526 241.152C158.696 222.971 169.904 190.585 169.904 190.585Z" fill="url(#paint2_linear_33_1491)"/>
<path d="M168.12 188.637L179.203 192.534C179.203 192.534 181.451 201.942 183.353 213.998C184.866 223.586 187.752 231.955 187.195 240.016C185.936 258.216 196.701 257.492 196.701 257.492C190.537 258.582 166.827 259.153 162.273 255.868C159.599 253.938 156.752 246.64 156.752 240.016C156.752 233.393 158.697 223.586 160.209 213.998C162.112 201.942 168.12 188.637 168.12 188.637Z" fill="#485199"/>
<path d="M188.149 190.754L177.518 189.316C175.047 205.923 177.513 226.69 175.995 237.626C173.937 252.447 200.251 264.59 201.248 252.944C202.238 241.384 195.146 215.897 188.299 191.294L188.149 190.754Z" fill="#485199"/>
<path d="M188.47 209.453C188.374 208.568 187.483 207.888 186.612 208.036V208.036C186.449 208.064 186.295 208.12 186.159 208.202L185.042 208.874C184.384 209.27 184.022 209.993 184.082 210.791L184.621 217.902C184.725 219.271 186.121 220.539 187.229 219.832C187.865 219.426 188.412 218.773 189.003 217.737C189.206 217.382 189.279 216.958 189.233 216.528L188.47 209.453Z" fill="#747ECB"/>
<path d="M183.461 210.871C183.477 209.12 187.939 205.963 188.442 206.737C188.946 207.511 190.131 214.681 188.382 215.102C186.633 215.522 183.446 212.623 183.461 210.871Z" fill="#5E69C5"/>
<path d="M192.335 230.48C192.205 229.383 190.925 228.756 190.04 229.355V229.355L186.764 232.007C186.187 232.474 185.898 233.206 185.989 233.97L187.4 245.859C187.561 247.213 188.875 248.333 190.156 247.941C191.642 247.485 191.992 246.621 193.471 244.27C193.742 243.84 193.86 243.323 193.798 242.799L192.335 230.48Z" fill="#747ECB"/>
<path d="M185.173 234.777C185.09 232.258 191.389 226.738 192.162 227.784C192.934 228.83 195.015 239.38 192.52 240.212C190.024 241.045 185.255 237.295 185.173 234.777Z" fill="#5E69C5"/>
<path d="M189.102 129.836C196.016 131.527 193.932 143.809 193.932 143.809L183.874 151.023C183.874 151.023 170.164 145.18 171.672 135.949C173.179 126.717 176.231 123.038 178.916 123.235C181.6 123.431 182.189 128.146 189.102 129.836Z" fill="#C49E80"/>
<path d="M189.102 129.836C196.016 131.527 193.932 143.809 193.932 143.809L183.874 151.023C183.874 151.023 170.164 145.18 171.672 135.949C173.179 126.717 176.231 123.038 178.916 123.235C181.6 123.431 182.189 128.146 189.102 129.836Z" fill="url(#paint3_linear_33_1491)"/>
<path d="M185.176 139.708C189.168 140.815 188.692 145.887 188.692 145.887L183.434 148.364C183.434 148.364 175.376 145.115 175.7 141.3C176.025 137.484 177.536 136.103 179.06 136.338C180.584 136.574 181.183 138.6 185.176 139.708Z" fill="#E1C7B3"/>
<path d="M155.284 123.692C160.006 127.229 182.237 140.703 181.535 142.38L185.646 135.909C185.646 135.909 178.519 123.753 176.24 120.833C173.96 117.914 170.323 113.661 168.495 116C166.667 118.339 174.773 126.783 171.805 127.662C168.837 128.541 158.763 115.721 155.769 114.067C152.776 112.412 150.562 120.155 155.284 123.692Z" fill="#776969"/>
<circle cx="185.108" cy="167.356" r="31.8294" transform="rotate(-15.2104 185.108 167.356)" fill="#C49E80"/>
<path d="M200.268 144.53C199.929 146.407 198.544 145.149 196.523 145.801C194.502 146.453 193.894 148.905 192.719 147.915C191.543 146.924 193.471 144.096 195.162 143.458C196.853 142.819 200.608 142.654 200.268 144.53Z" fill="#776969"/>
<path d="M164.635 143.97C164.635 143.965 164.635 143.96 164.635 143.955L164.449 135.757C164.449 135.757 154.851 127.768 151.624 125.946C148.397 124.123 143.402 121.593 142.563 124.503C141.723 127.412 152.473 132.084 150.02 134.082C147.568 136.081 133.34 128.103 129.917 127.745C126.495 127.387 127.312 135.497 133.058 136.928C138.788 138.355 164.521 142.104 164.635 143.955L164.635 143.97Z" fill="#776969"/>
<path fill-rule="evenodd" clip-rule="evenodd" d="M215.683 181.848C225.468 177.621 225.488 166.707 222.201 160.105C220.627 156.945 217.504 156.345 213.603 157.042C209.13 158.821 207.183 163.916 206.662 169.72C206.027 176.809 207.874 182.925 212.896 183.025C213.929 182.598 214.866 182.201 215.683 181.848Z" fill="#E1C7B3"/>
<path d="M221.532 165.134C220.185 164.834 215.404 163.292 216.879 161.517C217.537 160.726 221.464 161.881 222.571 161.541C223.438 164.73 224.561 166.385 221.532 165.134Z" fill="#372831" stroke="#372831" stroke-width="0.944298" stroke-linecap="round"/>
<path d="M215.414 171.785C218.923 174.518 224.654 174.746 224.312 169.365L223.112 164.95" stroke="#372831" stroke-width="1.41645" stroke-linecap="round"/>
<ellipse cx="202.579" cy="155.993" rx="4.24934" ry="6.61009" transform="rotate(-15.2104 202.579 155.993)" fill="#372831"/>
<path d="M164.374 130.237C171.022 127.696 176.293 138.984 176.293 138.984L172.122 150.638C172.122 150.638 157.523 153.629 153.513 145.178C149.503 136.727 149.92 131.965 152.241 130.601C154.561 129.236 157.726 132.779 164.374 130.237Z" fill="#C49E80"/>
<path d="M164.374 130.237C171.022 127.696 176.293 138.984 176.293 138.984L172.122 150.638C172.122 150.638 157.523 153.629 153.513 145.178C149.503 136.727 149.92 131.965 152.241 130.601C154.561 129.236 157.726 132.779 164.374 130.237Z" fill="url(#paint4_linear_33_1491)"/>
<path d="M166.757 140.591C170.671 139.231 173.164 143.674 173.164 143.674L170.248 148.702C170.248 148.702 161.772 150.612 159.869 147.289C157.966 143.966 158.423 141.97 159.811 141.298C161.198 140.625 162.844 141.95 166.757 140.591Z" fill="#E1C7B3"/>
<path d="M140.941 239.059C149.265 222.286 154.332 214.512 170.111 203.455C171.251 204.72 173.416 208.031 174.264 209.765C177.855 217.106 161.492 232.318 153.511 245.184L140.941 239.059Z" fill="#C49E80"/>
<path d="M137.145 249.831C136.302 249.195 138.482 240.69 141.342 238.844C147.942 239.416 150.11 241.355 153.609 245.2C153.609 245.2 146.593 253.263 145.2 253.005C143.807 252.747 143.474 251.165 143.249 249.282C140.872 250.038 137.987 250.467 137.145 249.831Z" fill="#776969"/>
<path d="M239.607 154.938C242.473 140.172 243.74 136.463 245.119 148.046C245.119 148.046 243.552 197.358 242.796 199.704C242.04 202.05 237.257 207.189 237.391 204.22C237.524 201.252 239.607 154.938 239.607 154.938Z" fill="#372831"/>
</g>
</g>
<defs>
<filter id="filter0_d_33_1491" x="0.831509" y="11.0295" width="497.007" height="554.475" filterUnits="userSpaceOnUse" color-interpolation-filters="sRGB">
<feFlood flood-opacity="0" result="BackgroundImageFix"/>
<feColorMatrix in="SourceAlpha" type="matrix" values="0 0 0 0 0 0 0 0 0 0 0 0 0 0 0 0 0 0 127 0" result="hardAlpha"/>
<feOffset dy="4.75248"/>
<feGaussianBlur stdDeviation="2.37624"/>
<feComposite in2="hardAlpha" operator="out"/>
<feColorMatrix type="matrix" values="0 0 0 0 0 0 0 0 0 0 0 0 0 0 0 0 0 0 0.25 0"/>
<feBlend mode="normal" in2="BackgroundImageFix" result="effect1_dropShadow_33_1491"/>
<feBlend mode="normal" in="SourceGraphic" in2="effect1_dropShadow_33_1491" result="shape"/>
</filter>
<filter id="filter1_d_33_1491" x="43.3862" y="16.0352" width="408.157" height="23.5494" filterUnits="userSpaceOnUse" color-interpolation-filters="sRGB">
<feFlood flood-opacity="0" result="BackgroundImageFix"/>
<feColorMatrix in="SourceAlpha" type="matrix" values="0 0 0 0 0 0 0 0 0 0 0 0 0 0 0 0 0 0 127 0" result="hardAlpha"/>
<feOffset dy="4.75248"/>
<feGaussianBlur stdDeviation="2.37624"/>
<feComposite in2="hardAlpha" operator="out"/>
<feColorMatrix type="matrix" values="0 0 0 0 0 0 0 0 0 0 0 0 0 0 0 0 0 0 0.25 0"/>
<feBlend mode="normal" in2="BackgroundImageFix" result="effect1_dropShadow_33_1491"/>
<feBlend mode="normal" in="SourceGraphic" in2="effect1_dropShadow_33_1491" result="shape"/>
</filter>
<filter id="filter2_d_33_1491" x="126.192" y="113.838" width="120.623" height="181.733" filterUnits="userSpaceOnUse" color-interpolation-filters="sRGB">
<feFlood flood-opacity="0" result="BackgroundImageFix"/>
<feColorMatrix in="SourceAlpha" type="matrix" values="0 0 0 0 0 0 0 0 0 0 0 0 0 0 0 0 0 0 127 0" result="hardAlpha"/>
<feOffset dy="1.69634"/>
<feGaussianBlur stdDeviation="0.848171"/>
<feComposite in2="hardAlpha" operator="out"/>
<feColorMatrix type="matrix" values="0 0 0 0 0 0 0 0 0 0 0 0 0 0 0 0 0 0 0.25 0"/>
<feBlend mode="normal" in2="BackgroundImageFix" result="effect1_dropShadow_33_1491"/>
<feBlend mode="normal" in="SourceGraphic" in2="effect1_dropShadow_33_1491" result="shape"/>
</filter>
<linearGradient id="paint0_linear_33_1491" x1="227.963" y1="190.654" x2="200.278" y2="211.274" gradientUnits="userSpaceOnUse">
<stop stop-color="#C49E80"/>
<stop offset="1" stop-color="#9F826A"/>
</linearGradient>
<linearGradient id="paint1_linear_33_1491" x1="194.829" y1="244.756" x2="200.634" y2="280.96" gradientUnits="userSpaceOnUse">
<stop stop-color="#9F826A"/>
<stop offset="1" stop-color="#C49E80"/>
</linearGradient>
<linearGradient id="paint2_linear_33_1491" x1="184.674" y1="253.186" x2="186.534" y2="201.927" gradientUnits="userSpaceOnUse">
<stop stop-color="#C49E80"/>
<stop offset="1" stop-color="#9F826A"/>
</linearGradient>
<linearGradient id="paint3_linear_33_1491" x1="187.578" y1="148.459" x2="179.265" y2="122.583" gradientUnits="userSpaceOnUse">
<stop stop-color="#C49E80"/>
<stop offset="1" stop-color="#9F826A"/>
</linearGradient>
<linearGradient id="paint4_linear_33_1491" x1="173.71" y1="146.422" x2="152.157" y2="129.866" gradientUnits="userSpaceOnUse">
<stop stop-color="#C49E80"/>
<stop offset="1" stop-color="#9F826A"/>
</linearGradient>
<clipPath id="clip0_33_1491">
<rect width="497" height="566" fill="white"/>
</clipPath>
</defs>
</svg>
