<svg width="579" height="349" viewBox="0 0 579 349" fill="none" xmlns="http://www.w3.org/2000/svg">
<path d="M9.25497 316.352C5.58605 316.352 4.21021 316.994 4.21021 323.231C4.21021 329.468 4.21021 328.276 4.21021 326.9" stroke="#4D4B4F" stroke-width="1.83446"/>
<g filter="url(#filter0_d_1_7671)">
<rect x="9.99973" y="0.000244141" width="559" height="336" rx="10" fill="#F9F6F1"/>
</g>
<path d="M73.0998 132.698H76.9598C81.5998 132.698 84.1398 130.278 84.1398 125.838C84.1398 121.338 81.5398 118.758 76.9798 118.758H73.0998V132.698ZM74.8798 131.058V120.398H76.9398C80.5598 120.398 82.3398 122.178 82.3398 125.758C82.3398 129.358 80.5598 131.058 76.7998 131.058H74.8798ZM95.0167 127.398C95.0167 124.998 93.6767 122.658 90.6567 122.658C87.6567 122.658 86.1767 125.098 86.1767 127.818C86.1767 130.558 87.6767 132.878 90.8167 132.878C92.3767 132.878 93.5767 132.378 94.6967 131.178L93.5167 130.118C92.6767 131.018 91.8367 131.298 90.8367 131.298C89.0167 131.298 87.9567 130.158 87.8967 128.278H94.9567C94.9967 128.018 95.0167 127.678 95.0167 127.398ZM87.8967 126.878C88.0167 125.398 88.9567 124.098 90.6367 124.098C92.2967 124.098 93.2967 125.178 93.3567 126.698C93.3567 126.778 93.3567 126.838 93.3767 126.878H87.8967ZM100.123 132.698H101.563L105.603 122.838H103.723L100.823 130.478L97.9631 122.838H96.1031L100.123 132.698ZM115.251 127.398C115.251 124.998 113.911 122.658 110.891 122.658C107.891 122.658 106.411 125.098 106.411 127.818C106.411 130.558 107.911 132.878 111.051 132.878C112.611 132.878 113.811 132.378 114.931 131.178L113.751 130.118C112.911 131.018 112.071 131.298 111.071 131.298C109.251 131.298 108.191 130.158 108.131 128.278H115.191C115.231 128.018 115.251 127.678 115.251 127.398ZM108.131 126.878C108.251 125.398 109.191 124.098 110.871 124.098C112.531 124.098 113.531 125.178 113.591 126.698C113.591 126.778 113.591 126.838 113.611 126.878H108.131ZM119.717 132.878C120.157 132.878 120.677 132.758 121.137 132.598L121.117 131.178C120.837 131.258 120.517 131.338 120.237 131.338C119.657 131.338 119.417 130.978 119.417 130.378V118.758H117.697V130.478C117.697 132.098 118.517 132.878 119.717 132.878ZM127.166 132.878C130.066 132.878 131.986 130.618 131.986 127.758C131.986 124.878 130.046 122.658 127.166 122.658C124.266 122.658 122.386 124.878 122.386 127.758C122.386 130.638 124.266 132.878 127.166 132.878ZM127.166 131.358C125.166 131.358 124.106 129.778 124.106 127.758C124.106 125.738 125.146 124.178 127.166 124.178C129.186 124.178 130.266 125.718 130.266 127.758C130.266 129.758 129.186 131.358 127.166 131.358ZM139.297 122.658C138.017 122.658 136.897 123.118 136.177 124.058V122.838H134.457V136.778H136.177V131.458C136.837 132.338 137.977 132.878 139.297 132.878C142.037 132.878 143.617 130.798 143.617 127.758C143.617 124.718 142.017 122.658 139.297 122.658ZM138.977 131.358C137.017 131.358 136.037 129.818 136.037 127.758C136.037 125.618 137.077 124.158 138.977 124.158C140.837 124.158 141.897 125.558 141.897 127.758C141.897 129.898 140.897 131.358 138.977 131.358ZM155.189 132.878C157.029 132.878 158.489 131.878 159.149 130.078L157.569 129.478C157.229 130.658 156.329 131.358 155.169 131.358C153.209 131.358 152.369 129.658 152.369 127.798C152.369 125.938 153.209 124.178 155.169 124.178C156.309 124.178 157.209 124.898 157.609 126.098L159.249 125.438C158.469 123.558 156.989 122.658 155.169 122.658C152.109 122.658 150.609 125.198 150.609 127.798C150.609 130.498 152.209 132.878 155.189 132.878ZM164.99 122.658C163.27 122.658 161.93 123.318 160.83 124.718L162.07 125.758C162.85 124.718 163.79 124.178 164.95 124.178C166.45 124.178 167.29 125.018 167.29 126.538V126.938H165.11C163.45 126.938 162.47 127.098 161.73 127.498C160.93 127.938 160.49 128.738 160.49 129.778C160.49 131.678 161.83 132.878 163.95 132.878C165.43 132.878 166.61 132.278 167.31 131.218L167.43 132.698H169.01V126.538C169.01 124.098 167.51 122.658 164.99 122.658ZM164.35 131.438C163.03 131.438 162.21 130.818 162.21 129.858C162.21 129.358 162.39 128.978 162.71 128.718C163.13 128.398 163.81 128.278 165.31 128.278H167.29V128.378C167.29 130.198 166.09 131.438 164.35 131.438ZM176.654 122.658C175.614 122.658 174.434 123.118 173.814 124.378V122.838H172.094V132.698H173.814V127.378C173.814 125.338 174.794 124.278 176.294 124.278C176.734 124.278 177.154 124.378 177.574 124.578L178.414 123.138C177.834 122.798 177.274 122.658 176.654 122.658ZM187.458 127.398C187.458 124.998 186.118 122.658 183.098 122.658C180.098 122.658 178.618 125.098 178.618 127.818C178.618 130.558 180.118 132.878 183.258 132.878C184.818 132.878 186.018 132.378 187.138 131.178L185.958 130.118C185.118 131.018 184.278 131.298 183.278 131.298C181.458 131.298 180.398 130.158 180.338 128.278H187.398C187.438 128.018 187.458 127.678 187.458 127.398ZM180.338 126.878C180.458 125.398 181.398 124.098 183.078 124.098C184.738 124.098 185.738 125.178 185.798 126.698C185.798 126.778 185.798 126.838 185.818 126.878H180.338ZM198.024 127.398C198.024 124.998 196.684 122.658 193.664 122.658C190.664 122.658 189.184 125.098 189.184 127.818C189.184 130.558 190.684 132.878 193.824 132.878C195.384 132.878 196.584 132.378 197.704 131.178L196.524 130.118C195.684 131.018 194.844 131.298 193.844 131.298C192.024 131.298 190.964 130.158 190.904 128.278H197.964C198.004 128.018 198.024 127.678 198.024 127.398ZM190.904 126.878C191.024 125.398 191.964 124.098 193.644 124.098C195.304 124.098 196.304 125.178 196.364 126.698C196.364 126.778 196.364 126.838 196.384 126.878H190.904ZM205.111 122.658C204.071 122.658 202.891 123.118 202.271 124.378V122.838H200.551V132.698H202.271V127.378C202.271 125.338 203.251 124.278 204.751 124.278C205.191 124.278 205.611 124.378 206.031 124.578L206.871 123.138C206.291 122.798 205.731 122.658 205.111 122.658ZM208.537 127.298H214.017V125.978H208.537V127.298ZM221.849 122.658C220.809 122.658 219.629 123.118 219.009 124.378V122.838H217.289V132.698H219.009V127.378C219.009 125.338 219.989 124.278 221.489 124.278C221.929 124.278 222.349 124.378 222.769 124.578L223.609 123.138C223.029 122.798 222.469 122.658 221.849 122.658ZM232.653 127.398C232.653 124.998 231.313 122.658 228.293 122.658C225.293 122.658 223.813 125.098 223.813 127.818C223.813 130.558 225.313 132.878 228.453 132.878C230.013 132.878 231.213 132.378 232.333 131.178L231.153 130.118C230.313 131.018 229.473 131.298 228.473 131.298C226.653 131.298 225.593 130.158 225.533 128.278H232.593C232.633 128.018 232.653 127.678 232.653 127.398ZM225.533 126.878C225.653 125.398 226.593 124.098 228.273 124.098C229.933 124.098 230.933 125.178 230.993 126.698C230.993 126.778 230.993 126.838 231.013 126.878H225.533ZM238.74 122.658C237.02 122.658 235.68 123.318 234.58 124.718L235.82 125.758C236.6 124.718 237.54 124.178 238.7 124.178C240.2 124.178 241.04 125.018 241.04 126.538V126.938H238.86C237.2 126.938 236.22 127.098 235.48 127.498C234.68 127.938 234.24 128.738 234.24 129.778C234.24 131.678 235.58 132.878 237.7 132.878C239.18 132.878 240.36 132.278 241.06 131.218L241.18 132.698H242.76V126.538C242.76 124.098 241.26 122.658 238.74 122.658ZM238.1 131.438C236.78 131.438 235.96 130.818 235.96 129.858C235.96 129.358 236.14 128.978 236.46 128.718C236.88 128.398 237.56 128.278 239.06 128.278H241.04V128.378C241.04 130.198 239.84 131.438 238.1 131.438ZM252.484 118.758V124.078C251.804 123.178 250.664 122.658 249.364 122.658C246.724 122.658 245.044 124.638 245.044 127.758C245.044 130.698 246.544 132.878 249.364 132.878C250.664 132.878 251.784 132.398 252.484 131.478V132.698H254.204V118.758H252.484ZM249.684 131.318C247.744 131.318 246.764 129.858 246.764 127.758C246.764 125.598 247.824 124.198 249.684 124.198C251.584 124.198 252.624 125.658 252.624 127.758C252.624 129.798 251.644 131.318 249.684 131.318ZM258.483 136.778H260.343L265.803 122.838H263.903L261.083 130.538L257.983 122.838H256.083L260.163 132.538L258.483 136.778ZM275.993 132.878C277.873 132.878 279.633 131.878 279.633 129.778C279.633 126.078 274.113 127.358 274.113 125.298C274.113 124.578 274.793 124.118 275.873 124.118C277.033 124.118 277.733 124.698 278.173 125.498L279.533 124.758C278.833 123.378 277.533 122.658 275.913 122.658C273.973 122.658 272.453 123.698 272.453 125.478C272.453 129.038 277.933 127.578 277.933 129.878C277.933 130.738 277.213 131.398 275.933 131.398C274.473 131.398 273.653 130.518 273.333 129.598L271.913 130.238C272.433 131.778 274.013 132.878 275.993 132.878ZM282.172 132.698H283.892V129.798L285.912 127.638L289.172 132.698H291.212L287.092 126.578L290.692 122.838H288.392L283.892 127.658V118.758H282.172V132.698ZM292.99 120.858H294.91V118.758H292.99V120.858ZM293.09 132.698H294.81V122.838H293.09V132.698ZM300.108 132.878C300.548 132.878 301.068 132.758 301.528 132.598L301.508 131.178C301.228 131.258 300.908 131.338 300.628 131.338C300.048 131.338 299.808 130.978 299.808 130.378V118.758H298.088V130.478C298.088 132.098 298.908 132.878 300.108 132.878ZM305.577 132.878C306.017 132.878 306.537 132.758 306.997 132.598L306.977 131.178C306.697 131.258 306.377 131.338 306.097 131.338C305.517 131.338 305.277 130.978 305.277 130.378V118.758H303.557V130.478C303.557 132.098 304.377 132.878 305.577 132.878ZM312.126 132.878C314.006 132.878 315.766 131.878 315.766 129.778C315.766 126.078 310.246 127.358 310.246 125.298C310.246 124.578 310.926 124.118 312.006 124.118C313.166 124.118 313.866 124.698 314.306 125.498L315.666 124.758C314.966 123.378 313.666 122.658 312.046 122.658C310.106 122.658 308.586 123.698 308.586 125.478C308.586 129.038 314.066 127.578 314.066 129.878C314.066 130.738 313.346 131.398 312.066 131.398C310.606 131.398 309.786 130.518 309.466 129.598L308.046 130.238C308.566 131.778 310.146 132.878 312.126 132.878ZM328.039 124.238V122.838H325.619V118.938L323.899 120.238V122.838H322.279V124.238H323.899V130.238C323.899 132.098 325.019 132.878 326.439 132.878C326.959 132.878 327.499 132.778 328.039 132.598V131.138C327.599 131.278 327.199 131.358 326.859 131.358C326.079 131.358 325.619 130.958 325.619 130.058V124.238H328.039ZM335.236 122.658C333.856 122.658 332.716 123.218 332.056 124.178V118.758H330.336V132.698H332.056V128.358C332.056 125.598 332.996 124.178 334.776 124.178C336.176 124.178 336.816 125.058 336.816 126.978V132.698H338.536V126.558C338.536 124.018 337.376 122.658 335.236 122.658ZM346.224 122.658C345.184 122.658 344.004 123.118 343.384 124.378V122.838H341.664V132.698H343.384V127.378C343.384 125.338 344.364 124.278 345.864 124.278C346.304 124.278 346.724 124.378 347.144 124.578L347.984 123.138C347.404 122.798 346.844 122.658 346.224 122.658ZM352.908 132.878C355.808 132.878 357.728 130.618 357.728 127.758C357.728 124.878 355.788 122.658 352.908 122.658C350.008 122.658 348.128 124.878 348.128 127.758C348.128 130.638 350.008 132.878 352.908 132.878ZM352.908 131.358C350.908 131.358 349.848 129.778 349.848 127.758C349.848 125.738 350.888 124.178 352.908 124.178C354.928 124.178 356.008 125.718 356.008 127.758C356.008 129.758 354.928 131.358 352.908 131.358ZM366.361 122.838V127.118C366.361 129.398 365.701 131.358 363.641 131.358C361.781 131.358 361.601 129.778 361.601 128.498V122.838H359.881V128.918C359.881 131.238 360.881 132.878 363.201 132.878C364.441 132.878 365.661 132.398 366.361 131.358V132.698H368.081V122.838H366.361ZM374.891 131.398C373.531 131.198 372.371 130.978 372.371 130.058C372.371 129.698 372.551 129.418 372.911 129.218C373.471 129.518 374.151 129.678 374.891 129.678C376.991 129.678 378.711 128.318 378.711 126.238C378.711 125.558 378.531 124.938 378.211 124.418L379.571 123.298L378.671 122.198L377.271 123.398C376.611 122.938 375.791 122.658 374.851 122.658C372.711 122.658 370.991 124.098 370.991 126.158C370.991 127.018 371.291 127.798 371.831 128.398C371.171 128.878 370.811 129.478 370.811 130.318C370.811 131.318 371.331 131.898 372.071 132.258L370.511 133.438C370.491 133.558 370.471 133.678 370.471 133.878C370.471 135.878 372.151 136.958 374.951 136.958C377.491 136.958 379.271 136.078 379.271 134.158C379.271 131.938 376.871 131.678 374.891 131.398ZM374.871 124.098C376.171 124.098 376.991 124.958 376.991 126.198C376.991 127.378 376.211 128.278 374.871 128.278C373.511 128.278 372.711 127.358 372.711 126.198C372.711 124.958 373.611 124.098 374.871 124.098ZM375.031 135.578C373.531 135.578 372.171 135.198 372.171 133.978C372.171 133.938 372.171 133.898 372.191 133.818L373.371 132.678C373.751 132.758 374.151 132.818 374.531 132.878C376.091 133.118 377.551 133.258 377.551 134.318C377.551 135.178 376.531 135.578 375.031 135.578ZM386.642 122.658C385.262 122.658 384.122 123.218 383.462 124.178V118.758H381.742V132.698H383.462V128.358C383.462 125.598 384.402 124.178 386.182 124.178C387.582 124.178 388.222 125.058 388.222 126.978V132.698H389.942V126.558C389.942 124.018 388.782 122.658 386.642 122.658ZM402.244 132.878C405.144 132.878 407.064 130.618 407.064 127.758C407.064 124.878 405.124 122.658 402.244 122.658C399.344 122.658 397.464 124.878 397.464 127.758C397.464 130.638 399.344 132.878 402.244 132.878ZM402.244 131.358C400.244 131.358 399.184 129.778 399.184 127.758C399.184 125.738 400.224 124.178 402.244 124.178C404.264 124.178 405.344 125.718 405.344 127.758C405.344 129.758 404.264 131.358 402.244 131.358ZM415.697 122.838V127.118C415.697 129.398 415.037 131.358 412.977 131.358C411.117 131.358 410.937 129.778 410.937 128.498V122.838H409.217V128.918C409.217 131.238 410.217 132.878 412.537 132.878C413.777 132.878 414.997 132.398 415.697 131.358V132.698H417.417V122.838H415.697ZM425.345 122.658C424.305 122.658 423.125 123.118 422.505 124.378V122.838H420.785V132.698H422.505V127.378C422.505 125.338 423.485 124.278 424.985 124.278C425.425 124.278 425.845 124.378 426.265 124.578L427.105 123.138C426.525 122.798 425.965 122.658 425.345 122.658ZM435.766 132.698H437.346L439.766 125.238L442.166 132.698H443.746L446.686 122.838H444.846L442.866 130.078L440.526 122.838H438.986L436.646 130.078L434.666 122.838H432.826L435.766 132.698ZM452.479 132.878C455.379 132.878 457.299 130.618 457.299 127.758C457.299 124.878 455.359 122.658 452.479 122.658C449.579 122.658 447.699 124.878 447.699 127.758C447.699 130.638 449.579 132.878 452.479 132.878ZM452.479 131.358C450.479 131.358 449.419 129.778 449.419 127.758C449.419 125.738 450.459 124.178 452.479 124.178C454.499 124.178 455.579 125.718 455.579 127.758C455.579 129.758 454.499 131.358 452.479 131.358ZM464.33 122.658C463.29 122.658 462.11 123.118 461.49 124.378V122.838H459.77V132.698H461.49V127.378C461.49 125.338 462.47 124.278 463.97 124.278C464.41 124.278 464.83 124.378 465.25 124.578L466.09 123.138C465.51 122.798 464.95 122.658 464.33 122.658ZM467.856 132.698H469.576V129.798L471.596 127.638L474.856 132.698H476.896L472.776 126.578L476.376 122.838H474.076L469.576 127.658V118.758H467.856V132.698ZM481.794 132.878C483.674 132.878 485.434 131.878 485.434 129.778C485.434 126.078 479.914 127.358 479.914 125.298C479.914 124.578 480.594 124.118 481.674 124.118C482.834 124.118 483.534 124.698 483.974 125.498L485.334 124.758C484.634 123.378 483.334 122.658 481.714 122.658C479.774 122.658 478.254 123.698 478.254 125.478C478.254 129.038 483.734 127.578 483.734 129.878C483.734 130.738 483.014 131.398 481.734 131.398C480.274 131.398 479.454 130.518 479.134 129.598L477.714 130.238C478.234 131.778 479.814 132.878 481.794 132.878ZM492.873 122.658C491.493 122.658 490.353 123.218 489.693 124.178V118.758H487.973V132.698H489.693V128.358C489.693 125.598 490.633 124.178 492.413 124.178C493.813 124.178 494.453 125.058 494.453 126.978V132.698H496.173V126.558C496.173 124.018 495.013 122.658 492.873 122.658ZM503.221 132.878C506.121 132.878 508.041 130.618 508.041 127.758C508.041 124.878 506.101 122.658 503.221 122.658C500.321 122.658 498.441 124.878 498.441 127.758C498.441 130.638 500.321 132.878 503.221 132.878ZM503.221 131.358C501.221 131.358 500.161 129.778 500.161 127.758C500.161 125.738 501.201 124.178 503.221 124.178C505.241 124.178 506.321 125.718 506.321 127.758C506.321 129.758 505.241 131.358 503.221 131.358ZM515.352 122.658C514.072 122.658 512.952 123.118 512.232 124.058V122.838H510.512V136.778H512.232V131.458C512.892 132.338 514.032 132.878 515.352 132.878C518.092 132.878 519.672 130.798 519.672 127.758C519.672 124.718 518.072 122.658 515.352 122.658ZM515.032 131.358C513.072 131.358 512.092 129.818 512.092 127.758C512.092 125.618 513.132 124.158 515.032 124.158C516.892 124.158 517.952 125.558 517.952 127.758C517.952 129.898 516.952 131.358 515.032 131.358ZM525.27 132.878C527.15 132.878 528.91 131.878 528.91 129.778C528.91 126.078 523.39 127.358 523.39 125.298C523.39 124.578 524.07 124.118 525.15 124.118C526.31 124.118 527.01 124.698 527.45 125.498L528.81 124.758C528.11 123.378 526.81 122.658 525.19 122.658C523.25 122.658 521.73 123.698 521.73 125.478C521.73 129.038 527.21 127.578 527.21 129.878C527.21 130.738 526.49 131.398 525.21 131.398C523.75 131.398 522.93 130.518 522.61 129.598L521.19 130.238C521.71 131.778 523.29 132.878 525.27 132.878ZM531.289 135.758H532.449L535.049 130.118H532.929L531.289 135.758ZM79.9598 150.838H74.6598V150.098C74.6598 148.678 75.3598 147.998 76.7398 147.998C77.7398 147.998 78.4798 148.278 79.1598 148.758L79.9798 147.558C79.0198 146.918 78.0198 146.578 76.6598 146.578C74.6398 146.578 72.9398 147.758 72.9398 150.078V150.838H71.2598V152.238H72.9398V160.698H74.6598V152.238H78.2398V160.698H79.9598V150.838ZM86.7858 159.398C85.4258 159.198 84.2658 158.978 84.2658 158.058C84.2658 157.698 84.4458 157.418 84.8058 157.218C85.3658 157.518 86.0458 157.678 86.7858 157.678C88.8858 157.678 90.6058 156.318 90.6058 154.238C90.6058 153.558 90.4258 152.938 90.1058 152.418L91.4658 151.298L90.5658 150.198L89.1658 151.398C88.5058 150.938 87.6858 150.658 86.7458 150.658C84.6058 150.658 82.8858 152.098 82.8858 154.158C82.8858 155.018 83.1858 155.798 83.7258 156.398C83.0658 156.878 82.7058 157.478 82.7058 158.318C82.7058 159.318 83.2258 159.898 83.9658 160.258L82.4058 161.438C82.3858 161.558 82.3658 161.678 82.3658 161.878C82.3658 163.878 84.0458 164.958 86.8458 164.958C89.3858 164.958 91.1658 164.078 91.1658 162.158C91.1658 159.938 88.7658 159.678 86.7858 159.398ZM86.7658 152.098C88.0658 152.098 88.8858 152.958 88.8858 154.198C88.8858 155.378 88.1058 156.278 86.7658 156.278C85.4058 156.278 84.6058 155.358 84.6058 154.198C84.6058 152.958 85.5058 152.098 86.7658 152.098ZM86.9258 163.578C85.4258 163.578 84.0658 163.198 84.0658 161.978C84.0658 161.938 84.0658 161.898 84.0858 161.818L85.2658 160.678C85.6458 160.758 86.0458 160.818 86.4258 160.878C87.9858 161.118 89.4458 161.258 89.4458 162.318C89.4458 163.178 88.4258 163.578 86.9258 163.578ZM98.5368 150.658C97.1568 150.658 96.0168 151.218 95.3568 152.178V146.758H93.6368V160.698H95.3568V156.358C95.3568 153.598 96.2968 152.178 98.0768 152.178C99.4768 152.178 100.117 153.058 100.117 154.978V160.698H101.837V154.558C101.837 152.018 100.677 150.658 98.5368 150.658ZM109.445 152.238V150.838H107.025V146.938L105.305 148.238V150.838H103.685V152.238H105.305V158.238C105.305 160.098 106.425 160.878 107.845 160.878C108.365 160.878 108.905 160.778 109.445 160.598V159.138C109.005 159.278 108.605 159.358 108.265 159.358C107.485 159.358 107.025 158.958 107.025 158.058V152.238H109.445ZM117.033 148.858H118.953V146.758H117.033V148.858ZM117.133 160.698H118.853V150.838H117.133V160.698ZM132.671 150.658C131.251 150.658 130.131 151.238 129.451 152.578C128.911 151.198 127.831 150.658 126.551 150.658C125.491 150.658 124.491 151.038 123.871 152.058V150.838H122.191L122.211 160.698H123.931V156.278C123.931 154.138 124.271 152.178 126.231 152.178C127.891 152.178 128.271 153.698 128.271 155.038V160.698H129.991V156.278C129.991 154.138 130.311 152.178 132.331 152.178C134.291 152.178 134.331 154.178 134.331 154.998V160.698H136.051V154.498C136.051 152.298 135.031 150.658 132.671 150.658ZM144.004 150.658C142.724 150.658 141.604 151.118 140.884 152.058V150.838H139.164V164.778H140.884V159.458C141.544 160.338 142.684 160.878 144.004 160.878C146.744 160.878 148.324 158.798 148.324 155.758C148.324 152.718 146.724 150.658 144.004 150.658ZM143.684 159.358C141.724 159.358 140.744 157.818 140.744 155.758C140.744 153.618 141.784 152.158 143.684 152.158C145.544 152.158 146.604 153.558 146.604 155.758C146.604 157.898 145.604 159.358 143.684 159.358ZM154.822 160.878C157.722 160.878 159.642 158.618 159.642 155.758C159.642 152.878 157.702 150.658 154.822 150.658C151.922 150.658 150.042 152.878 150.042 155.758C150.042 158.638 151.922 160.878 154.822 160.878ZM154.822 159.358C152.822 159.358 151.762 157.778 151.762 155.758C151.762 153.738 152.802 152.178 154.822 152.178C156.842 152.178 157.922 153.718 157.922 155.758C157.922 157.758 156.842 159.358 154.822 159.358ZM165.133 160.878C167.013 160.878 168.773 159.878 168.773 157.778C168.773 154.078 163.253 155.358 163.253 153.298C163.253 152.578 163.933 152.118 165.013 152.118C166.173 152.118 166.873 152.698 167.313 153.498L168.673 152.758C167.973 151.378 166.673 150.658 165.053 150.658C163.113 150.658 161.593 151.698 161.593 153.478C161.593 157.038 167.073 155.578 167.073 157.878C167.073 158.738 166.353 159.398 165.073 159.398C163.613 159.398 162.793 158.518 162.473 157.598L161.053 158.238C161.573 159.778 163.153 160.878 165.133 160.878ZM175.793 152.238V150.838H173.373V146.938L171.653 148.238V150.838H170.033V152.238H171.653V158.238C171.653 160.098 172.773 160.878 174.193 160.878C174.713 160.878 175.253 160.778 175.793 160.598V159.138C175.353 159.278 174.953 159.358 174.613 159.358C173.833 159.358 173.373 158.958 173.373 158.058V152.238H175.793ZM182.069 160.878C184.969 160.878 186.889 158.618 186.889 155.758C186.889 152.878 184.949 150.658 182.069 150.658C179.169 150.658 177.289 152.878 177.289 155.758C177.289 158.638 179.169 160.878 182.069 160.878ZM182.069 159.358C180.069 159.358 179.009 157.778 179.009 155.758C179.009 153.738 180.049 152.178 182.069 152.178C184.089 152.178 185.169 153.718 185.169 155.758C185.169 157.758 184.089 159.358 182.069 159.358ZM193.919 150.658C192.879 150.658 191.699 151.118 191.079 152.378V150.838H189.359V160.698H191.079V155.378C191.079 153.338 192.059 152.278 193.559 152.278C193.999 152.278 194.419 152.378 194.839 152.578L195.679 151.138C195.099 150.798 194.539 150.658 193.919 150.658ZM205.7 160.878C207.58 160.878 209.34 159.878 209.34 157.778C209.34 154.078 203.82 155.358 203.82 153.298C203.82 152.578 204.5 152.118 205.58 152.118C206.74 152.118 207.44 152.698 207.88 153.498L209.24 152.758C208.54 151.378 207.24 150.658 205.62 150.658C203.68 150.658 202.16 151.698 202.16 153.478C202.16 157.038 207.64 155.578 207.64 157.878C207.64 158.738 206.92 159.398 205.64 159.398C204.18 159.398 203.36 158.518 203.04 157.598L201.62 158.238C202.14 159.778 203.72 160.878 205.7 160.878ZM212.682 164.778H214.542L220.002 150.838H218.102L215.282 158.538L212.182 150.838H210.282L214.362 160.538L212.682 164.778ZM226.798 150.658C225.458 150.658 224.298 151.218 223.638 152.178V150.838H221.918V160.698H223.638V156.438C223.638 153.998 224.358 152.178 226.338 152.178C227.938 152.178 228.398 153.338 228.398 154.978V160.698H230.118V154.558C230.118 152.018 228.958 150.658 226.798 150.658ZM239.906 146.758V152.078C239.226 151.178 238.086 150.658 236.786 150.658C234.146 150.658 232.466 152.638 232.466 155.758C232.466 158.698 233.966 160.878 236.786 160.878C238.086 160.878 239.206 160.398 239.906 159.478V160.698H241.626V146.758H239.906ZM237.106 159.318C235.166 159.318 234.186 157.858 234.186 155.758C234.186 153.598 235.246 152.198 237.106 152.198C239.006 152.198 240.046 153.658 240.046 155.758C240.046 157.798 239.066 159.318 237.106 159.318ZM249.544 150.658C248.504 150.658 247.324 151.118 246.704 152.378V150.838H244.984V160.698H246.704V155.378C246.704 153.338 247.684 152.278 249.184 152.278C249.624 152.278 250.044 152.378 250.464 152.578L251.304 151.138C250.724 150.798 250.164 150.658 249.544 150.658ZM256.229 160.878C259.129 160.878 261.049 158.618 261.049 155.758C261.049 152.878 259.109 150.658 256.229 150.658C253.329 150.658 251.449 152.878 251.449 155.758C251.449 158.638 253.329 160.878 256.229 160.878ZM256.229 159.358C254.229 159.358 253.169 157.778 253.169 155.758C253.169 153.738 254.209 152.178 256.229 152.178C258.249 152.178 259.329 153.718 259.329 155.758C259.329 157.758 258.249 159.358 256.229 159.358ZM273.98 150.658C272.56 150.658 271.44 151.238 270.76 152.578C270.22 151.198 269.14 150.658 267.86 150.658C266.8 150.658 265.8 151.038 265.18 152.058V150.838H263.5L263.52 160.698H265.24V156.278C265.24 154.138 265.58 152.178 267.54 152.178C269.2 152.178 269.58 153.698 269.58 155.038V160.698H271.3V156.278C271.3 154.138 271.62 152.178 273.64 152.178C275.6 152.178 275.64 154.178 275.64 154.998V160.698H277.36V154.498C277.36 152.298 276.34 150.658 273.98 150.658ZM288.513 155.398C288.513 152.998 287.173 150.658 284.153 150.658C281.153 150.658 279.673 153.098 279.673 155.818C279.673 158.558 281.173 160.878 284.313 160.878C285.873 160.878 287.073 160.378 288.193 159.178L287.013 158.118C286.173 159.018 285.333 159.298 284.333 159.298C282.513 159.298 281.453 158.158 281.393 156.278H288.453C288.493 156.018 288.513 155.678 288.513 155.398ZM281.393 154.878C281.513 153.398 282.453 152.098 284.133 152.098C285.793 152.098 286.793 153.178 286.853 154.698C286.853 154.778 286.853 154.838 286.873 154.878H281.393ZM290.879 163.758H292.039L294.639 158.118H292.519L290.879 163.758ZM306.318 150.658C304.598 150.658 303.258 151.318 302.158 152.718L303.398 153.758C304.178 152.718 305.118 152.178 306.278 152.178C307.778 152.178 308.618 153.018 308.618 154.538V154.938H306.438C304.778 154.938 303.798 155.098 303.058 155.498C302.258 155.938 301.818 156.738 301.818 157.778C301.818 159.678 303.158 160.878 305.278 160.878C306.758 160.878 307.938 160.278 308.638 159.218L308.758 160.698H310.338V154.538C310.338 152.098 308.838 150.658 306.318 150.658ZM305.678 159.438C304.358 159.438 303.538 158.818 303.538 157.858C303.538 157.358 303.718 156.978 304.038 156.718C304.458 156.398 305.138 156.278 306.638 156.278H308.618V156.378C308.618 158.198 307.418 159.438 305.678 159.438ZM318.302 150.658C316.962 150.658 315.802 151.218 315.142 152.178V150.838H313.422V160.698H315.142V156.438C315.142 153.998 315.862 152.178 317.842 152.178C319.442 152.178 319.902 153.338 319.902 154.978V160.698H321.622V154.558C321.622 152.018 320.462 150.658 318.302 150.658ZM331.41 146.758V152.078C330.73 151.178 329.59 150.658 328.29 150.658C325.65 150.658 323.97 152.638 323.97 155.758C323.97 158.698 325.47 160.878 328.29 160.878C329.59 160.878 330.71 160.398 331.41 159.478V160.698H333.13V146.758H331.41ZM328.61 159.318C326.67 159.318 325.69 157.858 325.69 155.758C325.69 153.598 326.75 152.198 328.61 152.198C330.51 152.198 331.55 153.658 331.55 155.758C331.55 157.798 330.57 159.318 328.61 159.318ZM346.582 150.658C345.282 150.658 344.142 151.178 343.462 152.078V146.758H341.742V160.698H343.462V159.478C344.162 160.398 345.282 160.878 346.582 160.878C349.402 160.878 350.902 158.698 350.902 155.758C350.902 152.638 349.222 150.658 346.582 150.658ZM346.262 159.318C344.302 159.318 343.322 157.798 343.322 155.758C343.322 153.658 344.362 152.198 346.262 152.198C348.122 152.198 349.182 153.598 349.182 155.758C349.182 157.858 348.202 159.318 346.262 159.318ZM359.642 150.838V155.118C359.642 157.398 358.982 159.358 356.922 159.358C355.062 159.358 354.882 157.778 354.882 156.498V150.838H353.162V156.918C353.162 159.238 354.162 160.878 356.482 160.878C357.722 160.878 358.942 160.398 359.642 159.358V160.698H361.362V150.838H359.642ZM364.631 148.858H366.551V146.758H364.631V148.858ZM364.731 160.698H366.451V150.838H364.731V160.698ZM371.749 160.878C372.189 160.878 372.709 160.758 373.169 160.598L373.149 159.178C372.869 159.258 372.549 159.338 372.269 159.338C371.689 159.338 371.449 158.978 371.449 158.378V146.758H369.729V158.478C369.729 160.098 370.549 160.878 371.749 160.878ZM381.937 146.758V152.078C381.257 151.178 380.117 150.658 378.817 150.658C376.177 150.658 374.497 152.638 374.497 155.758C374.497 158.698 375.997 160.878 378.817 160.878C380.117 160.878 381.237 160.398 381.937 159.478V160.698H383.657V146.758H381.937ZM379.137 159.318C377.197 159.318 376.217 157.858 376.217 155.758C376.217 153.598 377.277 152.198 379.137 152.198C381.037 152.198 382.077 153.658 382.077 155.758C382.077 157.798 381.097 159.318 379.137 159.318ZM395.83 150.658C394.11 150.658 392.77 151.318 391.67 152.718L392.91 153.758C393.69 152.718 394.63 152.178 395.79 152.178C397.29 152.178 398.13 153.018 398.13 154.538V154.938H395.95C394.29 154.938 393.31 155.098 392.57 155.498C391.77 155.938 391.33 156.738 391.33 157.778C391.33 159.678 392.67 160.878 394.79 160.878C396.27 160.878 397.45 160.278 398.15 159.218L398.27 160.698H399.85V154.538C399.85 152.098 398.35 150.658 395.83 150.658ZM395.19 159.438C393.87 159.438 393.05 158.818 393.05 157.858C393.05 157.358 393.23 156.978 393.55 156.718C393.97 156.398 394.65 156.278 396.15 156.278H398.13V156.378C398.13 158.198 396.93 159.438 395.19 159.438ZM407.814 150.658C406.474 150.658 405.314 151.218 404.654 152.178V150.838H402.934V160.698H404.654V156.438C404.654 153.998 405.374 152.178 407.354 152.178C408.954 152.178 409.414 153.338 409.414 154.978V160.698H411.134V154.558C411.134 152.018 409.974 150.658 407.814 150.658ZM419.416 148.858H421.336V146.758H419.416V148.858ZM419.516 160.698H421.236V150.838H419.516V160.698ZM429.474 150.658C428.134 150.658 426.974 151.218 426.314 152.178V150.838H424.594V160.698H426.314V156.438C426.314 153.998 427.034 152.178 429.014 152.178C430.614 152.178 431.074 153.338 431.074 154.978V160.698H432.794V154.558C432.794 152.018 431.634 150.658 429.474 150.658ZM438.443 160.698H439.883L443.923 150.838H442.043L439.143 158.478L436.283 150.838H434.423L438.443 160.698ZM449.306 150.658C447.586 150.658 446.246 151.318 445.146 152.718L446.386 153.758C447.166 152.718 448.106 152.178 449.266 152.178C450.766 152.178 451.606 153.018 451.606 154.538V154.938H449.426C447.766 154.938 446.786 155.098 446.046 155.498C445.246 155.938 444.806 156.738 444.806 157.778C444.806 159.678 446.146 160.878 448.266 160.878C449.746 160.878 450.926 160.278 451.626 159.218L451.746 160.698H453.326V154.538C453.326 152.098 451.826 150.658 449.306 150.658ZM448.666 159.438C447.346 159.438 446.526 158.818 446.526 157.858C446.526 157.358 446.706 156.978 447.026 156.718C447.446 156.398 448.126 156.278 449.626 156.278H451.606V156.378C451.606 158.198 450.406 159.438 448.666 159.438ZM458.35 160.878C458.79 160.878 459.31 160.758 459.77 160.598L459.75 159.178C459.47 159.258 459.15 159.338 458.87 159.338C458.29 159.338 458.05 158.978 458.05 158.378V146.758H456.33V158.478C456.33 160.098 457.15 160.878 458.35 160.878ZM468.041 150.838V155.118C468.041 157.398 467.381 159.358 465.321 159.358C463.461 159.358 463.281 157.778 463.281 156.498V150.838H461.561V156.918C461.561 159.238 462.561 160.878 464.881 160.878C466.121 160.878 467.341 160.398 468.041 159.358V160.698H469.761V150.838H468.041ZM476.689 150.658C474.969 150.658 473.629 151.318 472.529 152.718L473.769 153.758C474.549 152.718 475.489 152.178 476.649 152.178C478.149 152.178 478.989 153.018 478.989 154.538V154.938H476.809C475.149 154.938 474.169 155.098 473.429 155.498C472.629 155.938 472.189 156.738 472.189 157.778C472.189 159.678 473.529 160.878 475.649 160.878C477.129 160.878 478.309 160.278 479.009 159.218L479.129 160.698H480.709V154.538C480.709 152.098 479.209 150.658 476.689 150.658ZM476.049 159.438C474.729 159.438 473.909 158.818 473.909 157.858C473.909 157.358 474.089 156.978 474.409 156.718C474.829 156.398 475.509 156.278 477.009 156.278H478.989V156.378C478.989 158.198 477.789 159.438 476.049 159.438ZM488.633 150.658C487.333 150.658 486.193 151.178 485.513 152.078V146.758H483.793V160.698H485.513V159.478C486.213 160.398 487.333 160.878 488.633 160.878C491.453 160.878 492.953 158.698 492.953 155.758C492.953 152.638 491.273 150.658 488.633 150.658ZM488.313 159.318C486.353 159.318 485.373 157.798 485.373 155.758C485.373 153.658 486.413 152.198 488.313 152.198C490.173 152.198 491.233 153.598 491.233 155.758C491.233 157.858 490.253 159.318 488.313 159.318ZM497.471 160.878C497.911 160.878 498.431 160.758 498.891 160.598L498.871 159.178C498.591 159.258 498.271 159.338 497.991 159.338C497.411 159.338 497.171 158.978 497.171 158.378V146.758H495.451V158.478C495.451 160.098 496.271 160.878 497.471 160.878ZM509.04 155.398C509.04 152.998 507.7 150.658 504.68 150.658C501.68 150.658 500.2 153.098 500.2 155.818C500.2 158.558 501.7 160.878 504.84 160.878C506.4 160.878 507.6 160.378 508.72 159.178L507.54 158.118C506.7 159.018 505.86 159.298 504.86 159.298C503.04 159.298 501.98 158.158 501.92 156.278H508.98C509.02 156.018 509.04 155.678 509.04 155.398ZM501.92 154.878C502.04 153.398 502.98 152.098 504.66 152.098C506.32 152.098 507.32 153.178 507.38 154.698C507.38 154.778 507.38 154.838 507.4 154.878H501.92ZM75.6998 188.878C77.5798 188.878 79.3398 187.878 79.3398 185.778C79.3398 182.078 73.8198 183.358 73.8198 181.298C73.8198 180.578 74.4998 180.118 75.5798 180.118C76.7398 180.118 77.4398 180.698 77.8798 181.498L79.2398 180.758C78.5398 179.378 77.2398 178.658 75.6198 178.658C73.6798 178.658 72.1598 179.698 72.1598 181.478C72.1598 185.038 77.6398 183.578 77.6398 185.878C77.6398 186.738 76.9198 187.398 75.6398 187.398C74.1798 187.398 73.3598 186.518 73.0398 185.598L71.6198 186.238C72.1398 187.778 73.7198 188.878 75.6998 188.878ZM88.0214 178.838V183.118C88.0214 185.398 87.3614 187.358 85.3014 187.358C83.4414 187.358 83.2614 185.778 83.2614 184.498V178.838H81.5414V184.918C81.5414 187.238 82.5414 188.878 84.8614 188.878C86.1014 188.878 87.3214 188.398 88.0214 187.358V188.698H89.7414V178.838H88.0214ZM97.9495 178.658C96.6695 178.658 95.5495 179.118 94.8295 180.058V178.838H93.1095V192.778H94.8295V187.458C95.4895 188.338 96.6295 188.878 97.9495 188.878C100.69 188.878 102.27 186.798 102.27 183.758C102.27 180.718 100.67 178.658 97.9495 178.658ZM97.6295 187.358C95.6695 187.358 94.6895 185.818 94.6895 183.758C94.6895 181.618 95.7295 180.158 97.6295 180.158C99.4895 180.158 100.55 181.558 100.55 183.758C100.55 185.898 99.5495 187.358 97.6295 187.358ZM109.688 178.658C108.408 178.658 107.288 179.118 106.568 180.058V178.838H104.848V192.778H106.568V187.458C107.228 188.338 108.368 188.878 109.688 188.878C112.428 188.878 114.008 186.798 114.008 183.758C114.008 180.718 112.408 178.658 109.688 178.658ZM109.368 187.358C107.408 187.358 106.428 185.818 106.428 183.758C106.428 181.618 107.468 180.158 109.368 180.158C111.228 180.158 112.288 181.558 112.288 183.758C112.288 185.898 111.288 187.358 109.368 187.358ZM120.506 188.878C123.406 188.878 125.326 186.618 125.326 183.758C125.326 180.878 123.386 178.658 120.506 178.658C117.606 178.658 115.726 180.878 115.726 183.758C115.726 186.638 117.606 188.878 120.506 188.878ZM120.506 187.358C118.506 187.358 117.446 185.778 117.446 183.758C117.446 181.738 118.486 180.178 120.506 180.178C122.526 180.178 123.606 181.718 123.606 183.758C123.606 185.758 122.526 187.358 120.506 187.358ZM132.357 178.658C131.317 178.658 130.137 179.118 129.517 180.378V178.838H127.797V188.698H129.517V183.378C129.517 181.338 130.497 180.278 131.997 180.278C132.437 180.278 132.857 180.378 133.277 180.578L134.117 179.138C133.537 178.798 132.977 178.658 132.357 178.658ZM140.832 180.238V178.838H138.412V174.938L136.692 176.238V178.838H135.072V180.238H136.692V186.238C136.692 188.098 137.812 188.878 139.232 188.878C139.752 188.878 140.292 188.778 140.832 188.598V187.138C140.392 187.278 139.992 187.358 139.652 187.358C138.872 187.358 138.412 186.958 138.412 186.058V180.238H140.832ZM153.4 178.658C152.06 178.658 150.9 179.218 150.24 180.178V178.838H148.52V188.698H150.24V184.438C150.24 181.998 150.96 180.178 152.94 180.178C154.54 180.178 155 181.338 155 182.978V188.698H156.72V182.558C156.72 180.018 155.56 178.658 153.4 178.658ZM167.888 183.398C167.888 180.998 166.548 178.658 163.528 178.658C160.528 178.658 159.048 181.098 159.048 183.818C159.048 186.558 160.548 188.878 163.688 188.878C165.248 188.878 166.448 188.378 167.568 187.178L166.388 186.118C165.548 187.018 164.708 187.298 163.708 187.298C161.888 187.298 160.828 186.158 160.768 184.278H167.828C167.868 184.018 167.888 183.678 167.888 183.398ZM160.768 182.878C160.888 181.398 161.828 180.098 163.508 180.098C165.168 180.098 166.168 181.178 166.228 182.698C166.228 182.778 166.228 182.838 166.248 182.878H160.768ZM174.894 180.238V178.838H172.474V174.938L170.754 176.238V178.838H169.134V180.238H170.754V186.238C170.754 188.098 171.874 188.878 173.294 188.878C173.814 188.878 174.354 188.778 174.894 188.598V187.138C174.454 187.278 174.054 187.358 173.714 187.358C172.934 187.358 172.474 186.958 172.474 186.058V180.238H174.894ZM179.144 188.698H180.724L183.144 181.238L185.544 188.698H187.124L190.064 178.838H188.224L186.244 186.078L183.904 178.838H182.364L180.024 186.078L178.044 178.838H176.204L179.144 188.698ZM195.858 188.878C198.758 188.878 200.678 186.618 200.678 183.758C200.678 180.878 198.738 178.658 195.858 178.658C192.958 178.658 191.078 180.878 191.078 183.758C191.078 186.638 192.958 188.878 195.858 188.878ZM195.858 187.358C193.858 187.358 192.798 185.778 192.798 183.758C192.798 181.738 193.838 180.178 195.858 180.178C197.878 180.178 198.958 181.718 198.958 183.758C198.958 185.758 197.878 187.358 195.858 187.358ZM207.709 178.658C206.669 178.658 205.489 179.118 204.869 180.378V178.838H203.149V188.698H204.869V183.378C204.869 181.338 205.849 180.278 207.349 180.278C207.789 180.278 208.209 180.378 208.629 180.578L209.469 179.138C208.889 178.798 208.329 178.658 207.709 178.658ZM211.234 188.698H212.954V185.798L214.974 183.638L218.234 188.698H220.274L216.154 182.578L219.754 178.838H217.454L212.954 183.658V174.758H211.234V188.698ZM229.066 188.698H230.646L233.066 181.238L235.466 188.698H237.046L239.986 178.838H238.146L236.166 186.078L233.826 178.838H232.286L229.946 186.078L227.966 178.838H226.126L229.066 188.698ZM241.974 176.858H243.894V174.758H241.974V176.858ZM242.074 188.698H243.794V178.838H242.074V188.698ZM251.632 180.238V178.838H249.212V174.938L247.492 176.238V178.838H245.872V180.238H247.492V186.238C247.492 188.098 248.612 188.878 250.032 188.878C250.552 188.878 251.092 188.778 251.632 188.598V187.138C251.192 187.278 250.792 187.358 250.452 187.358C249.672 187.358 249.212 186.958 249.212 186.058V180.238H251.632ZM258.83 178.658C257.45 178.658 256.31 179.218 255.65 180.178V174.758H253.93V188.698H255.65V184.358C255.65 181.598 256.59 180.178 258.37 180.178C259.77 180.178 260.41 181.058 260.41 182.978V188.698H262.13V182.558C262.13 180.018 260.97 178.658 258.83 178.658ZM271.112 188.698H272.832V180.238H275.492V178.838H272.832V177.378C272.832 176.638 273.152 176.018 273.952 176.018C274.292 176.018 274.632 176.138 274.992 176.318L275.572 174.978C274.972 174.718 274.392 174.578 273.772 174.578C272.412 174.578 271.132 175.218 271.132 177.458V178.838H269.092V180.238H271.112V188.698ZM281.927 178.658C280.887 178.658 279.707 179.118 279.087 180.378V178.838H277.367V188.698H279.087V183.378C279.087 181.338 280.067 180.278 281.567 180.278C282.007 180.278 282.427 180.378 282.847 180.578L283.687 179.138C283.107 178.798 282.547 178.658 281.927 178.658ZM285.353 176.858H287.273V174.758H285.353V176.858ZM285.453 188.698H287.173V178.838H285.453V188.698ZM298.571 183.398C298.571 180.998 297.231 178.658 294.211 178.658C291.211 178.658 289.731 181.098 289.731 183.818C289.731 186.558 291.231 188.878 294.371 188.878C295.931 188.878 297.131 188.378 298.251 187.178L297.071 186.118C296.231 187.018 295.391 187.298 294.391 187.298C292.571 187.298 291.511 186.158 291.451 184.278H298.511C298.551 184.018 298.571 183.678 298.571 183.398ZM291.451 182.878C291.571 181.398 292.511 180.098 294.191 180.098C295.851 180.098 296.851 181.178 296.911 182.698C296.911 182.778 296.911 182.838 296.931 182.878H291.451ZM305.978 178.658C304.638 178.658 303.478 179.218 302.818 180.178V178.838H301.098V188.698H302.818V184.438C302.818 181.998 303.538 180.178 305.518 180.178C307.118 180.178 307.578 181.338 307.578 182.978V188.698H309.298V182.558C309.298 180.018 308.138 178.658 305.978 178.658ZM319.086 174.758V180.078C318.406 179.178 317.266 178.658 315.966 178.658C313.326 178.658 311.646 180.638 311.646 183.758C311.646 186.698 313.146 188.878 315.966 188.878C317.266 188.878 318.386 188.398 319.086 187.478V188.698H320.806V174.758H319.086ZM316.286 187.318C314.346 187.318 313.366 185.858 313.366 183.758C313.366 181.598 314.426 180.198 316.286 180.198C318.186 180.198 319.226 181.658 319.226 183.758C319.226 185.798 318.246 187.318 316.286 187.318ZM327.184 188.878C329.064 188.878 330.824 187.878 330.824 185.778C330.824 182.078 325.304 183.358 325.304 181.298C325.304 180.578 325.984 180.118 327.064 180.118C328.224 180.118 328.924 180.698 329.364 181.498L330.724 180.758C330.024 179.378 328.724 178.658 327.104 178.658C325.164 178.658 323.644 179.698 323.644 181.478C323.644 185.038 329.124 183.578 329.124 185.878C329.124 186.738 328.404 187.398 327.124 187.398C325.664 187.398 324.844 186.518 324.524 185.598L323.104 186.238C323.624 187.778 325.204 188.878 327.184 188.878ZM333.203 191.758H334.363L336.963 186.118H334.843L333.203 191.758ZM355.542 178.658C354.122 178.658 353.002 179.238 352.322 180.578C351.782 179.198 350.702 178.658 349.422 178.658C348.362 178.658 347.362 179.038 346.742 180.058V178.838H345.062L345.082 188.698H346.802V184.278C346.802 182.138 347.142 180.178 349.102 180.178C350.762 180.178 351.142 181.698 351.142 183.038V188.698H352.862V184.278C352.862 182.138 353.182 180.178 355.202 180.178C357.162 180.178 357.202 182.178 357.202 182.998V188.698H358.922V182.498C358.922 180.298 357.902 178.658 355.542 178.658ZM370.075 183.398C370.075 180.998 368.735 178.658 365.715 178.658C362.715 178.658 361.235 181.098 361.235 183.818C361.235 186.558 362.735 188.878 365.875 188.878C367.435 188.878 368.635 188.378 369.755 187.178L368.575 186.118C367.735 187.018 366.895 187.298 365.895 187.298C364.075 187.298 363.015 186.158 362.955 184.278H370.015C370.055 184.018 370.075 183.678 370.075 183.398ZM362.955 182.878C363.075 181.398 364.015 180.098 365.695 180.098C367.355 180.098 368.355 181.178 368.415 182.698C368.415 182.778 368.415 182.838 368.435 182.878H362.955ZM377.482 178.658C376.142 178.658 374.982 179.218 374.322 180.178V178.838H372.602V188.698H374.322V184.438C374.322 181.998 375.042 180.178 377.022 180.178C378.622 180.178 379.082 181.338 379.082 182.978V188.698H380.802V182.558C380.802 180.018 379.642 178.658 377.482 178.658ZM388.41 180.238V178.838H385.99V174.938L384.27 176.238V178.838H382.65V180.238H384.27V186.238C384.27 188.098 385.39 188.878 386.81 188.878C387.33 188.878 387.87 188.778 388.41 188.598V187.138C387.97 187.278 387.57 187.358 387.23 187.358C386.45 187.358 385.99 186.958 385.99 186.058V180.238H388.41ZM394.686 188.878C397.586 188.878 399.506 186.618 399.506 183.758C399.506 180.878 397.566 178.658 394.686 178.658C391.786 178.658 389.906 180.878 389.906 183.758C389.906 186.638 391.786 188.878 394.686 188.878ZM394.686 187.358C392.686 187.358 391.626 185.778 391.626 183.758C391.626 181.738 392.666 180.178 394.686 180.178C396.706 180.178 397.786 181.718 397.786 183.758C397.786 185.758 396.706 187.358 394.686 187.358ZM406.537 178.658C405.497 178.658 404.317 179.118 403.697 180.378V178.838H401.977V188.698H403.697V183.378C403.697 181.338 404.677 180.278 406.177 180.278C406.617 180.278 407.037 180.378 407.457 180.578L408.297 179.138C407.717 178.798 407.157 178.658 406.537 178.658ZM412.555 188.878C414.435 188.878 416.195 187.878 416.195 185.778C416.195 182.078 410.675 183.358 410.675 181.298C410.675 180.578 411.355 180.118 412.435 180.118C413.595 180.118 414.295 180.698 414.735 181.498L416.095 180.758C415.395 179.378 414.095 178.658 412.475 178.658C410.535 178.658 409.015 179.698 409.015 181.478C409.015 185.038 414.495 183.578 414.495 185.878C414.495 186.738 413.775 187.398 412.495 187.398C411.035 187.398 410.215 186.518 409.895 185.598L408.475 186.238C408.995 187.778 410.575 188.878 412.555 188.878ZM418.574 191.758H419.734L422.334 186.118H420.214L418.574 191.758ZM434.013 178.658C432.293 178.658 430.953 179.318 429.853 180.718L431.093 181.758C431.873 180.718 432.813 180.178 433.973 180.178C435.473 180.178 436.313 181.018 436.313 182.538V182.938H434.133C432.473 182.938 431.493 183.098 430.753 183.498C429.953 183.938 429.513 184.738 429.513 185.778C429.513 187.678 430.853 188.878 432.973 188.878C434.453 188.878 435.633 188.278 436.333 187.218L436.453 188.698H438.033V182.538C438.033 180.098 436.533 178.658 434.013 178.658ZM433.373 187.438C432.053 187.438 431.233 186.818 431.233 185.858C431.233 185.358 431.413 184.978 431.733 184.718C432.153 184.398 432.833 184.278 434.333 184.278H436.313V184.378C436.313 186.198 435.113 187.438 433.373 187.438ZM445.997 178.658C444.657 178.658 443.497 179.218 442.837 180.178V178.838H441.117V188.698H442.837V184.438C442.837 181.998 443.557 180.178 445.537 180.178C447.137 180.178 447.597 181.338 447.597 182.978V188.698H449.317V182.558C449.317 180.018 448.157 178.658 445.997 178.658ZM459.105 174.758V180.078C458.425 179.178 457.285 178.658 455.985 178.658C453.345 178.658 451.665 180.638 451.665 183.758C451.665 186.698 453.165 188.878 455.985 188.878C457.285 188.878 458.405 188.398 459.105 187.478V188.698H460.825V174.758H459.105ZM456.305 187.318C454.365 187.318 453.385 185.858 453.385 183.758C453.385 181.598 454.445 180.198 456.305 180.198C458.205 180.198 459.245 181.658 459.245 183.758C459.245 185.798 458.265 187.318 456.305 187.318ZM75.6998 216.878C77.5798 216.878 79.3398 215.878 79.3398 213.778C79.3398 210.078 73.8198 211.358 73.8198 209.298C73.8198 208.578 74.4998 208.118 75.5798 208.118C76.7398 208.118 77.4398 208.698 77.8798 209.498L79.2398 208.758C78.5398 207.378 77.2398 206.658 75.6198 206.658C73.6798 206.658 72.1598 207.698 72.1598 209.478C72.1598 213.038 77.6398 211.578 77.6398 213.878C77.6398 214.738 76.9198 215.398 75.6398 215.398C74.1798 215.398 73.3598 214.518 73.0398 213.598L71.6198 214.238C72.1398 215.778 73.7198 216.878 75.6998 216.878ZM86.719 206.658C85.439 206.658 84.319 207.118 83.599 208.058V206.838H81.879V220.778H83.599V215.458C84.259 216.338 85.399 216.878 86.719 216.878C89.459 216.878 91.039 214.798 91.039 211.758C91.039 208.718 89.439 206.658 86.719 206.658ZM86.399 215.358C84.439 215.358 83.459 213.818 83.459 211.758C83.459 209.618 84.499 208.158 86.399 208.158C88.259 208.158 89.319 209.558 89.319 211.758C89.319 213.898 88.319 215.358 86.399 215.358ZM97.5373 216.878C100.437 216.878 102.357 214.618 102.357 211.758C102.357 208.878 100.417 206.658 97.5373 206.658C94.6373 206.658 92.7573 208.878 92.7573 211.758C92.7573 214.638 94.6373 216.878 97.5373 216.878ZM97.5373 215.358C95.5373 215.358 94.4773 213.778 94.4773 211.758C94.4773 209.738 95.5173 208.178 97.5373 208.178C99.5573 208.178 100.637 209.718 100.637 211.758C100.637 213.758 99.5573 215.358 97.5373 215.358ZM109.708 206.658C108.368 206.658 107.208 207.218 106.548 208.178V206.838H104.828V216.698H106.548V212.438C106.548 209.998 107.268 208.178 109.248 208.178C110.848 208.178 111.308 209.338 111.308 210.978V216.698H113.028V210.558C113.028 208.018 111.868 206.658 109.708 206.658ZM119.176 216.878C121.056 216.878 122.816 215.878 122.816 213.778C122.816 210.078 117.296 211.358 117.296 209.298C117.296 208.578 117.976 208.118 119.056 208.118C120.216 208.118 120.916 208.698 121.356 209.498L122.716 208.758C122.016 207.378 120.716 206.658 119.096 206.658C117.156 206.658 115.636 207.698 115.636 209.478C115.636 213.038 121.116 211.578 121.116 213.878C121.116 214.738 120.396 215.398 119.116 215.398C117.656 215.398 116.836 214.518 116.516 213.598L115.096 214.238C115.616 215.778 117.196 216.878 119.176 216.878ZM129.197 216.878C132.097 216.878 134.017 214.618 134.017 211.758C134.017 208.878 132.077 206.658 129.197 206.658C126.297 206.658 124.417 208.878 124.417 211.758C124.417 214.638 126.297 216.878 129.197 216.878ZM129.197 215.358C127.197 215.358 126.137 213.778 126.137 211.758C126.137 209.738 127.177 208.178 129.197 208.178C131.217 208.178 132.297 209.718 132.297 211.758C132.297 213.758 131.217 215.358 129.197 215.358ZM141.048 206.658C140.008 206.658 138.828 207.118 138.208 208.378V206.838H136.488V216.698H138.208V211.378C138.208 209.338 139.188 208.278 140.688 208.278C141.128 208.278 141.548 208.378 141.968 208.578L142.808 207.138C142.228 206.798 141.668 206.658 141.048 206.658ZM147.067 216.878C148.947 216.878 150.707 215.878 150.707 213.778C150.707 210.078 145.187 211.358 145.187 209.298C145.187 208.578 145.867 208.118 146.947 208.118C148.107 208.118 148.807 208.698 149.247 209.498L150.607 208.758C149.907 207.378 148.607 206.658 146.987 206.658C145.047 206.658 143.527 207.698 143.527 209.478C143.527 213.038 149.007 211.578 149.007 213.878C149.007 214.738 148.287 215.398 147.007 215.398C145.547 215.398 144.727 214.518 144.407 213.598L142.987 214.238C143.507 215.778 145.087 216.878 147.067 216.878ZM153.886 216.698H155.886V214.358H153.886V216.698ZM169.161 216.698H170.941V211.318L176.241 202.758H174.121L170.021 209.598L165.941 202.758H163.841L169.161 211.318V216.698ZM180.35 216.878C183.25 216.878 185.17 214.618 185.17 211.758C185.17 208.878 183.23 206.658 180.35 206.658C177.45 206.658 175.57 208.878 175.57 211.758C175.57 214.638 177.45 216.878 180.35 216.878ZM180.35 215.358C178.35 215.358 177.29 213.778 177.29 211.758C177.29 209.738 178.33 208.178 180.35 208.178C182.37 208.178 183.45 209.718 183.45 211.758C183.45 213.758 182.37 215.358 180.35 215.358ZM193.803 206.838V211.118C193.803 213.398 193.143 215.358 191.083 215.358C189.223 215.358 189.043 213.778 189.043 212.498V206.838H187.323V212.918C187.323 215.238 188.323 216.878 190.643 216.878C191.883 216.878 193.103 216.398 193.803 215.358V216.698H195.523V206.838H193.803ZM207.705 206.658C205.985 206.658 204.645 207.318 203.545 208.718L204.785 209.758C205.565 208.718 206.505 208.178 207.665 208.178C209.165 208.178 210.005 209.018 210.005 210.538V210.938H207.825C206.165 210.938 205.185 211.098 204.445 211.498C203.645 211.938 203.205 212.738 203.205 213.778C203.205 215.678 204.545 216.878 206.665 216.878C208.145 216.878 209.325 216.278 210.025 215.218L210.145 216.698H211.725V210.538C211.725 208.098 210.225 206.658 207.705 206.658ZM207.065 215.438C205.745 215.438 204.925 214.818 204.925 213.858C204.925 213.358 205.105 212.978 205.425 212.718C205.845 212.398 206.525 212.278 208.025 212.278H210.005V212.378C210.005 214.198 208.805 215.438 207.065 215.438ZM219.369 206.658C218.329 206.658 217.149 207.118 216.529 208.378V206.838H214.809V216.698H216.529V211.378C216.529 209.338 217.509 208.278 219.009 208.278C219.449 208.278 219.869 208.378 220.289 208.578L221.129 207.138C220.549 206.798 219.989 206.658 219.369 206.658ZM230.173 211.398C230.173 208.998 228.833 206.658 225.813 206.658C222.813 206.658 221.333 209.098 221.333 211.818C221.333 214.558 222.833 216.878 225.973 216.878C227.533 216.878 228.733 216.378 229.853 215.178L228.673 214.118C227.833 215.018 226.993 215.298 225.993 215.298C224.173 215.298 223.113 214.158 223.053 212.278H230.113C230.153 212.018 230.173 211.678 230.173 211.398ZM223.053 210.878C223.173 209.398 224.113 208.098 225.793 208.098C227.453 208.098 228.453 209.178 228.513 210.698C228.513 210.778 228.513 210.838 228.533 210.878H223.053ZM239.613 216.698H241.193L243.613 209.238L246.013 216.698H247.593L250.533 206.838H248.693L246.713 214.078L244.373 206.838H242.833L240.493 214.078L238.513 206.838H236.673L239.613 216.698ZM260.446 211.398C260.446 208.998 259.106 206.658 256.086 206.658C253.086 206.658 251.606 209.098 251.606 211.818C251.606 214.558 253.106 216.878 256.246 216.878C257.806 216.878 259.006 216.378 260.126 215.178L258.946 214.118C258.106 215.018 257.266 215.298 256.266 215.298C254.446 215.298 253.386 214.158 253.326 212.278H260.386C260.426 212.018 260.446 211.678 260.446 211.398ZM253.326 210.878C253.446 209.398 254.386 208.098 256.066 208.098C257.726 208.098 258.726 209.178 258.786 210.698C258.786 210.778 258.786 210.838 258.806 210.878H253.326ZM264.913 216.878C265.353 216.878 265.873 216.758 266.333 216.598L266.313 215.178C266.033 215.258 265.713 215.338 265.433 215.338C264.853 215.338 264.613 214.978 264.613 214.378V202.758H262.893V214.478C262.893 216.098 263.713 216.878 264.913 216.878ZM272.182 216.878C274.022 216.878 275.482 215.878 276.142 214.078L274.562 213.478C274.222 214.658 273.322 215.358 272.162 215.358C270.202 215.358 269.362 213.658 269.362 211.798C269.362 209.938 270.202 208.178 272.162 208.178C273.302 208.178 274.202 208.898 274.602 210.098L276.242 209.438C275.462 207.558 273.982 206.658 272.162 206.658C269.102 206.658 267.602 209.198 267.602 211.798C267.602 214.498 269.202 216.878 272.182 216.878ZM282.322 216.878C285.222 216.878 287.142 214.618 287.142 211.758C287.142 208.878 285.202 206.658 282.322 206.658C279.422 206.658 277.542 208.878 277.542 211.758C277.542 214.638 279.422 216.878 282.322 216.878ZM282.322 215.358C280.322 215.358 279.262 213.778 279.262 211.758C279.262 209.738 280.302 208.178 282.322 208.178C284.342 208.178 285.422 209.718 285.422 211.758C285.422 213.758 284.342 215.358 282.322 215.358ZM300.073 206.658C298.653 206.658 297.533 207.238 296.853 208.578C296.313 207.198 295.233 206.658 293.953 206.658C292.893 206.658 291.893 207.038 291.273 208.058V206.838H289.593L289.613 216.698H291.333V212.278C291.333 210.138 291.673 208.178 293.633 208.178C295.293 208.178 295.673 209.698 295.673 211.038V216.698H297.393V212.278C297.393 210.138 297.713 208.178 299.733 208.178C301.693 208.178 301.733 210.178 301.733 210.998V216.698H303.453V210.498C303.453 208.298 302.433 206.658 300.073 206.658ZM314.607 211.398C314.607 208.998 313.267 206.658 310.247 206.658C307.247 206.658 305.767 209.098 305.767 211.818C305.767 214.558 307.267 216.878 310.407 216.878C311.967 216.878 313.167 216.378 314.287 215.178L313.107 214.118C312.267 215.018 311.427 215.298 310.427 215.298C308.607 215.298 307.547 214.158 307.487 212.278H314.547C314.587 212.018 314.607 211.678 314.607 211.398ZM307.487 210.878C307.607 209.398 308.547 208.098 310.227 208.098C311.887 208.098 312.887 209.178 312.947 210.698C312.947 210.778 312.947 210.838 312.967 210.878H307.487ZM317.973 212.658H319.293L319.493 202.758H317.773L317.973 212.658ZM317.613 216.698H319.673V214.358H317.613V216.698ZM339.014 216.698L335.234 210.418C337.034 209.918 337.994 208.658 337.994 206.678C337.994 204.158 336.454 202.758 333.354 202.758H329.174V216.698H330.954V210.658H332.554H333.454L336.954 216.698H339.014ZM330.954 208.998V204.398H333.174C335.174 204.398 336.214 205.118 336.214 206.698C336.214 208.278 335.174 208.998 333.174 208.998H330.954ZM349.021 211.398C349.021 208.998 347.681 206.658 344.661 206.658C341.661 206.658 340.181 209.098 340.181 211.818C340.181 214.558 341.681 216.878 344.821 216.878C346.381 216.878 347.581 216.378 348.701 215.178L347.521 214.118C346.681 215.018 345.841 215.298 344.841 215.298C343.021 215.298 341.961 214.158 341.901 212.278H348.961C349.001 212.018 349.021 211.678 349.021 211.398ZM341.901 210.878C342.021 209.398 342.961 208.098 344.641 208.098C346.301 208.098 347.301 209.178 347.361 210.698C347.361 210.778 347.361 210.838 347.381 210.878H341.901ZM355.067 215.398C353.707 215.198 352.547 214.978 352.547 214.058C352.547 213.698 352.727 213.418 353.087 213.218C353.647 213.518 354.327 213.678 355.067 213.678C357.167 213.678 358.887 212.318 358.887 210.238C358.887 209.558 358.707 208.938 358.387 208.418L359.747 207.298L358.847 206.198L357.447 207.398C356.787 206.938 355.967 206.658 355.027 206.658C352.887 206.658 351.167 208.098 351.167 210.158C351.167 211.018 351.467 211.798 352.007 212.398C351.347 212.878 350.987 213.478 350.987 214.318C350.987 215.318 351.507 215.898 352.247 216.258L350.687 217.438C350.667 217.558 350.647 217.678 350.647 217.878C350.647 219.878 352.327 220.958 355.127 220.958C357.667 220.958 359.447 220.078 359.447 218.158C359.447 215.938 357.047 215.678 355.067 215.398ZM355.047 208.098C356.347 208.098 357.167 208.958 357.167 210.198C357.167 211.378 356.387 212.278 355.047 212.278C353.687 212.278 352.887 211.358 352.887 210.198C352.887 208.958 353.787 208.098 355.047 208.098ZM355.207 219.578C353.707 219.578 352.347 219.198 352.347 217.978C352.347 217.938 352.347 217.898 352.367 217.818L353.547 216.678C353.927 216.758 354.327 216.818 354.707 216.878C356.267 217.118 357.727 217.258 357.727 218.318C357.727 219.178 356.707 219.578 355.207 219.578ZM365.38 206.658C363.66 206.658 362.32 207.318 361.22 208.718L362.46 209.758C363.24 208.718 364.18 208.178 365.34 208.178C366.84 208.178 367.68 209.018 367.68 210.538V210.938H365.5C363.84 210.938 362.86 211.098 362.12 211.498C361.32 211.938 360.88 212.738 360.88 213.778C360.88 215.678 362.22 216.878 364.34 216.878C365.82 216.878 367 216.278 367.7 215.218L367.82 216.698H369.4V210.538C369.4 208.098 367.9 206.658 365.38 206.658ZM364.74 215.438C363.42 215.438 362.6 214.818 362.6 213.858C362.6 213.358 362.78 212.978 363.1 212.718C363.52 212.398 364.2 212.278 365.7 212.278H367.68V212.378C367.68 214.198 366.48 215.438 364.74 215.438ZM377.044 206.658C376.004 206.658 374.824 207.118 374.204 208.378V206.838H372.484V216.698H374.204V211.378C374.204 209.338 375.184 208.278 376.684 208.278C377.124 208.278 377.544 208.378 377.964 208.578L378.804 207.138C378.224 206.798 377.664 206.658 377.044 206.658ZM386.469 202.758V208.078C385.789 207.178 384.649 206.658 383.349 206.658C380.709 206.658 379.029 208.638 379.029 211.758C379.029 214.698 380.529 216.878 383.349 216.878C384.649 216.878 385.769 216.398 386.469 215.478V216.698H388.189V202.758H386.469ZM383.669 215.318C381.729 215.318 380.749 213.858 380.749 211.758C380.749 209.598 381.809 208.198 383.669 208.198C385.569 208.198 386.609 209.658 386.609 211.758C386.609 213.798 385.629 215.318 383.669 215.318ZM393.487 216.878C393.927 216.878 394.447 216.758 394.907 216.598L394.887 215.178C394.607 215.258 394.287 215.338 394.007 215.338C393.427 215.338 393.187 214.978 393.187 214.378V202.758H391.467V214.478C391.467 216.098 392.287 216.878 393.487 216.878ZM405.056 211.398C405.056 208.998 403.716 206.658 400.696 206.658C397.696 206.658 396.216 209.098 396.216 211.818C396.216 214.558 397.716 216.878 400.856 216.878C402.416 216.878 403.616 216.378 404.736 215.178L403.556 214.118C402.716 215.018 401.876 215.298 400.876 215.298C399.056 215.298 397.996 214.158 397.936 212.278H404.996C405.036 212.018 405.056 211.678 405.056 211.398ZM397.936 210.878C398.056 209.398 398.996 208.098 400.676 208.098C402.336 208.098 403.336 209.178 403.396 210.698C403.396 210.778 403.396 210.838 403.416 210.878H397.936ZM410.602 216.878C412.482 216.878 414.242 215.878 414.242 213.778C414.242 210.078 408.722 211.358 408.722 209.298C408.722 208.578 409.402 208.118 410.482 208.118C411.642 208.118 412.342 208.698 412.782 209.498L414.142 208.758C413.442 207.378 412.142 206.658 410.522 206.658C408.582 206.658 407.062 207.698 407.062 209.478C407.062 213.038 412.542 211.578 412.542 213.878C412.542 214.738 411.822 215.398 410.542 215.398C409.082 215.398 408.262 214.518 407.942 213.598L406.522 214.238C407.042 215.778 408.622 216.878 410.602 216.878ZM419.801 216.878C421.681 216.878 423.441 215.878 423.441 213.778C423.441 210.078 417.921 211.358 417.921 209.298C417.921 208.578 418.601 208.118 419.681 208.118C420.841 208.118 421.541 208.698 421.981 209.498L423.341 208.758C422.641 207.378 421.341 206.658 419.721 206.658C417.781 206.658 416.261 207.698 416.261 209.478C416.261 213.038 421.741 211.578 421.741 213.878C421.741 214.738 421.021 215.398 419.741 215.398C418.281 215.398 417.461 214.518 417.141 213.598L415.721 214.238C416.241 215.778 417.821 216.878 419.801 216.878ZM435.154 216.878C438.054 216.878 439.974 214.618 439.974 211.758C439.974 208.878 438.034 206.658 435.154 206.658C432.254 206.658 430.374 208.878 430.374 211.758C430.374 214.638 432.254 216.878 435.154 216.878ZM435.154 215.358C433.154 215.358 432.094 213.778 432.094 211.758C432.094 209.738 433.134 208.178 435.154 208.178C437.174 208.178 438.254 209.718 438.254 211.758C438.254 213.758 437.174 215.358 435.154 215.358ZM443.045 216.698H444.765V208.238H447.425V206.838H444.765V205.378C444.765 204.638 445.085 204.018 445.885 204.018C446.225 204.018 446.565 204.138 446.925 204.318L447.505 202.978C446.905 202.718 446.325 202.578 445.705 202.578C444.345 202.578 443.065 203.218 443.065 205.458V206.838H441.025V208.238H443.045V216.698ZM455.475 220.778H457.335L462.795 206.838H460.895L458.075 214.538L454.975 206.838H453.075L457.155 216.538L455.475 220.778ZM468.201 216.878C471.101 216.878 473.021 214.618 473.021 211.758C473.021 208.878 471.081 206.658 468.201 206.658C465.301 206.658 463.421 208.878 463.421 211.758C463.421 214.638 465.301 216.878 468.201 216.878ZM468.201 215.358C466.201 215.358 465.141 213.778 465.141 211.758C465.141 209.738 466.181 208.178 468.201 208.178C470.221 208.178 471.301 209.718 471.301 211.758C471.301 213.758 470.221 215.358 468.201 215.358ZM481.654 206.838V211.118C481.654 213.398 480.994 215.358 478.934 215.358C477.074 215.358 476.894 213.778 476.894 212.498V206.838H475.174V212.918C475.174 215.238 476.174 216.878 478.494 216.878C479.734 216.878 480.954 216.398 481.654 215.358V216.698H483.374V206.838H481.654ZM491.302 206.658C490.262 206.658 489.082 207.118 488.462 208.378V206.838H486.742V216.698H488.462V211.378C488.462 209.338 489.442 208.278 490.942 208.278C491.382 208.278 491.802 208.378 492.222 208.578L493.062 207.138C492.482 206.798 491.922 206.658 491.302 206.658ZM77.5198 234.658C76.2198 234.658 75.0798 235.178 74.3998 236.078V230.758H72.6798V244.698H74.3998V243.478C75.0998 244.398 76.2198 244.878 77.5198 244.878C80.3398 244.878 81.8398 242.698 81.8398 239.758C81.8398 236.638 80.1598 234.658 77.5198 234.658ZM77.1998 243.318C75.2398 243.318 74.2598 241.798 74.2598 239.758C74.2598 237.658 75.2998 236.198 77.1998 236.198C79.0598 236.198 80.1198 237.598 80.1198 239.758C80.1198 241.858 79.1398 243.318 77.1998 243.318ZM87.9781 234.658C86.2581 234.658 84.9181 235.318 83.8181 236.718L85.0581 237.758C85.8381 236.718 86.7781 236.178 87.9381 236.178C89.4381 236.178 90.2781 237.018 90.2781 238.538V238.938H88.0981C86.4381 238.938 85.4581 239.098 84.7181 239.498C83.9181 239.938 83.4781 240.738 83.4781 241.778C83.4781 243.678 84.8181 244.878 86.9381 244.878C88.4181 244.878 89.5981 244.278 90.2981 243.218L90.4181 244.698H91.9981V238.538C91.9981 236.098 90.4981 234.658 87.9781 234.658ZM87.3381 243.438C86.0181 243.438 85.1981 242.818 85.1981 241.858C85.1981 241.358 85.3781 240.978 85.6981 240.718C86.1181 240.398 86.7981 240.278 88.2981 240.278H90.2781V240.378C90.2781 242.198 89.0781 243.438 87.3381 243.438ZM98.8026 244.878C100.643 244.878 102.103 243.878 102.763 242.078L101.183 241.478C100.843 242.658 99.9426 243.358 98.7826 243.358C96.8226 243.358 95.9826 241.658 95.9826 239.798C95.9826 237.938 96.8226 236.178 98.7826 236.178C99.9226 236.178 100.823 236.898 101.223 238.098L102.863 237.438C102.083 235.558 100.603 234.658 98.7826 234.658C95.7226 234.658 94.2226 237.198 94.2226 239.798C94.2226 242.498 95.8226 244.878 98.8026 244.878ZM105.121 244.698H106.841V241.798L108.861 239.638L112.121 244.698H114.161L110.041 238.578L113.641 234.838H111.341L106.841 239.658V230.758H105.121V244.698ZM119.071 243.398C117.711 243.198 116.551 242.978 116.551 242.058C116.551 241.698 116.731 241.418 117.091 241.218C117.651 241.518 118.331 241.678 119.071 241.678C121.171 241.678 122.891 240.318 122.891 238.238C122.891 237.558 122.711 236.938 122.391 236.418L123.751 235.298L122.851 234.198L121.451 235.398C120.791 234.938 119.971 234.658 119.031 234.658C116.891 234.658 115.171 236.098 115.171 238.158C115.171 239.018 115.471 239.798 116.011 240.398C115.351 240.878 114.991 241.478 114.991 242.318C114.991 243.318 115.511 243.898 116.251 244.258L114.691 245.438C114.671 245.558 114.651 245.678 114.651 245.878C114.651 247.878 116.331 248.958 119.131 248.958C121.671 248.958 123.451 248.078 123.451 246.158C123.451 243.938 121.051 243.678 119.071 243.398ZM119.051 236.098C120.351 236.098 121.171 236.958 121.171 238.198C121.171 239.378 120.391 240.278 119.051 240.278C117.691 240.278 116.891 239.358 116.891 238.198C116.891 236.958 117.791 236.098 119.051 236.098ZM119.211 247.578C117.711 247.578 116.351 247.198 116.351 245.978C116.351 245.938 116.351 245.898 116.371 245.818L117.551 244.678C117.931 244.758 118.331 244.818 118.711 244.878C120.271 245.118 121.731 245.258 121.731 246.318C121.731 247.178 120.711 247.578 119.211 247.578ZM130.482 234.658C129.442 234.658 128.262 235.118 127.642 236.378V234.838H125.922V244.698H127.642V239.378C127.642 237.338 128.622 236.278 130.122 236.278C130.562 236.278 130.982 236.378 131.402 236.578L132.242 235.138C131.662 234.798 131.102 234.658 130.482 234.658ZM137.166 244.878C140.066 244.878 141.986 242.618 141.986 239.758C141.986 236.878 140.046 234.658 137.166 234.658C134.266 234.658 132.386 236.878 132.386 239.758C132.386 242.638 134.266 244.878 137.166 244.878ZM137.166 243.358C135.166 243.358 134.106 241.778 134.106 239.758C134.106 237.738 135.146 236.178 137.166 236.178C139.186 236.178 140.266 237.718 140.266 239.758C140.266 241.758 139.186 243.358 137.166 243.358ZM150.619 234.838V239.118C150.619 241.398 149.959 243.358 147.899 243.358C146.039 243.358 145.859 241.778 145.859 240.498V234.838H144.139V240.918C144.139 243.238 145.139 244.878 147.459 244.878C148.699 244.878 149.919 244.398 150.619 243.358V244.698H152.339V234.838H150.619ZM160.587 234.658C159.247 234.658 158.087 235.218 157.427 236.178V234.838H155.707V244.698H157.427V240.438C157.427 237.998 158.147 236.178 160.127 236.178C161.727 236.178 162.187 237.338 162.187 238.978V244.698H163.907V238.558C163.907 236.018 162.747 234.658 160.587 234.658ZM173.695 230.758V236.078C173.015 235.178 171.875 234.658 170.575 234.658C167.935 234.658 166.255 236.638 166.255 239.758C166.255 242.698 167.755 244.878 170.575 244.878C171.875 244.878 172.995 244.398 173.695 243.478V244.698H175.415V230.758H173.695ZM170.895 243.318C168.955 243.318 167.975 241.858 167.975 239.758C167.975 237.598 169.035 236.198 170.895 236.198C172.795 236.198 173.835 237.658 173.835 239.758C173.835 241.798 172.855 243.318 170.895 243.318ZM178.614 247.758H179.774L182.374 242.118H180.254L178.614 247.758ZM191.412 248.778H193.272L198.732 234.838H196.832L194.012 242.538L190.912 234.838H189.012L193.092 244.538L191.412 248.778ZM204.139 244.878C207.039 244.878 208.959 242.618 208.959 239.758C208.959 236.878 207.019 234.658 204.139 234.658C201.239 234.658 199.359 236.878 199.359 239.758C199.359 242.638 201.239 244.878 204.139 244.878ZM204.139 243.358C202.139 243.358 201.079 241.778 201.079 239.758C201.079 237.738 202.119 236.178 204.139 236.178C206.159 236.178 207.239 237.718 207.239 239.758C207.239 241.758 206.159 243.358 204.139 243.358ZM217.592 234.838V239.118C217.592 241.398 216.932 243.358 214.872 243.358C213.012 243.358 212.832 241.778 212.832 240.498V234.838H211.112V240.918C211.112 243.238 212.112 244.878 214.432 244.878C215.672 244.878 216.892 244.398 217.592 243.358V244.698H219.312V234.838H217.592ZM232.774 234.658C231.474 234.658 230.334 235.178 229.654 236.078V230.758H227.934V244.698H229.654V243.478C230.354 244.398 231.474 244.878 232.774 244.878C235.594 244.878 237.094 242.698 237.094 239.758C237.094 236.638 235.414 234.658 232.774 234.658ZM232.454 243.318C230.494 243.318 229.514 241.798 229.514 239.758C229.514 237.658 230.554 236.198 232.454 236.198C234.314 236.198 235.374 237.598 235.374 239.758C235.374 241.858 234.394 243.318 232.454 243.318ZM244.232 234.658C243.192 234.658 242.012 235.118 241.392 236.378V234.838H239.672V244.698H241.392V239.378C241.392 237.338 242.372 236.278 243.872 236.278C244.312 236.278 244.732 236.378 245.152 236.578L245.992 235.138C245.412 234.798 244.852 234.658 244.232 234.658ZM247.658 232.858H249.578V230.758H247.658V232.858ZM247.758 244.698H249.478V234.838H247.758V244.698ZM257.716 234.658C256.376 234.658 255.216 235.218 254.556 236.178V234.838H252.836V244.698H254.556V240.438C254.556 237.998 255.276 236.178 257.256 236.178C258.856 236.178 259.316 237.338 259.316 238.978V244.698H261.036V238.558C261.036 236.018 259.876 234.658 257.716 234.658ZM267.684 243.398C266.324 243.198 265.164 242.978 265.164 242.058C265.164 241.698 265.344 241.418 265.704 241.218C266.264 241.518 266.944 241.678 267.684 241.678C269.784 241.678 271.504 240.318 271.504 238.238C271.504 237.558 271.324 236.938 271.004 236.418L272.364 235.298L271.464 234.198L270.064 235.398C269.404 234.938 268.584 234.658 267.644 234.658C265.504 234.658 263.784 236.098 263.784 238.158C263.784 239.018 264.084 239.798 264.624 240.398C263.964 240.878 263.604 241.478 263.604 242.318C263.604 243.318 264.124 243.898 264.864 244.258L263.304 245.438C263.284 245.558 263.264 245.678 263.264 245.878C263.264 247.878 264.944 248.958 267.744 248.958C270.284 248.958 272.064 248.078 272.064 246.158C272.064 243.938 269.664 243.678 267.684 243.398ZM267.664 236.098C268.964 236.098 269.784 236.958 269.784 238.198C269.784 239.378 269.004 240.278 267.664 240.278C266.304 240.278 265.504 239.358 265.504 238.198C265.504 236.958 266.404 236.098 267.664 236.098ZM267.824 247.578C266.324 247.578 264.964 247.198 264.964 245.978C264.964 245.938 264.964 245.898 264.984 245.818L266.164 244.678C266.544 244.758 266.944 244.818 267.324 244.878C268.884 245.118 270.344 245.258 270.344 246.318C270.344 247.178 269.324 247.578 267.824 247.578ZM283.349 234.658C281.629 234.658 280.289 235.318 279.189 236.718L280.429 237.758C281.209 236.718 282.149 236.178 283.309 236.178C284.809 236.178 285.649 237.018 285.649 238.538V238.938H283.469C281.809 238.938 280.829 239.098 280.089 239.498C279.289 239.938 278.849 240.738 278.849 241.778C278.849 243.678 280.189 244.878 282.309 244.878C283.789 244.878 284.969 244.278 285.669 243.218L285.789 244.698H287.369V238.538C287.369 236.098 285.869 234.658 283.349 234.658ZM282.709 243.438C281.389 243.438 280.569 242.818 280.569 241.858C280.569 241.358 280.749 240.978 281.069 240.718C281.489 240.398 282.169 240.278 283.669 240.278H285.649V240.378C285.649 242.198 284.449 243.438 282.709 243.438ZM301.947 234.838V239.118C301.947 241.398 301.287 243.358 299.227 243.358C297.367 243.358 297.187 241.778 297.187 240.498V234.838H295.467V240.918C295.467 243.238 296.467 244.878 298.787 244.878C300.027 244.878 301.247 244.398 301.947 243.358V244.698H303.667V234.838H301.947ZM311.915 234.658C310.575 234.658 309.415 235.218 308.755 236.178V234.838H307.035V244.698H308.755V240.438C308.755 237.998 309.475 236.178 311.455 236.178C313.055 236.178 313.515 237.338 313.515 238.978V244.698H315.235V238.558C315.235 236.018 314.075 234.658 311.915 234.658ZM318.263 232.858H320.183V230.758H318.263V232.858ZM318.363 244.698H320.083V234.838H318.363V244.698ZM330.102 234.838V236.058C329.382 235.118 328.262 234.658 326.982 234.658C324.262 234.658 322.662 236.718 322.662 239.758C322.662 242.798 324.242 244.878 326.982 244.878C328.302 244.878 329.442 244.338 330.102 243.458V248.778H331.822V234.838H330.102ZM327.302 243.358C325.382 243.358 324.382 241.898 324.382 239.758C324.382 237.558 325.442 236.158 327.302 236.158C329.202 236.158 330.242 237.618 330.242 239.758C330.242 241.818 329.262 243.358 327.302 243.358ZM341.42 234.838V239.118C341.42 241.398 340.76 243.358 338.7 243.358C336.84 243.358 336.66 241.778 336.66 240.498V234.838H334.94V240.918C334.94 243.238 335.94 244.878 338.26 244.878C339.5 244.878 340.72 244.398 341.42 243.358V244.698H343.14V234.838H341.42ZM354.47 239.398C354.47 236.998 353.13 234.658 350.11 234.658C347.11 234.658 345.63 237.098 345.63 239.818C345.63 242.558 347.13 244.878 350.27 244.878C351.83 244.878 353.03 244.378 354.15 243.178L352.97 242.118C352.13 243.018 351.29 243.298 350.29 243.298C348.47 243.298 347.41 242.158 347.35 240.278H354.41C354.45 240.018 354.47 239.678 354.47 239.398ZM347.35 238.878C347.47 237.398 348.41 236.098 350.09 236.098C351.75 236.098 352.75 237.178 352.81 238.698C352.81 238.778 352.81 238.838 352.83 238.878H347.35ZM365.81 234.658C364.09 234.658 362.75 235.318 361.65 236.718L362.89 237.758C363.67 236.718 364.61 236.178 365.77 236.178C367.27 236.178 368.11 237.018 368.11 238.538V238.938H365.93C364.27 238.938 363.29 239.098 362.55 239.498C361.75 239.938 361.31 240.738 361.31 241.778C361.31 243.678 362.65 244.878 364.77 244.878C366.25 244.878 367.43 244.278 368.13 243.218L368.25 244.698H369.83V238.538C369.83 236.098 368.33 234.658 365.81 234.658ZM365.17 243.438C363.85 243.438 363.03 242.818 363.03 241.858C363.03 241.358 363.21 240.978 363.53 240.718C363.95 240.398 364.63 240.278 366.13 240.278H368.11V240.378C368.11 242.198 366.91 243.438 365.17 243.438ZM377.794 234.658C376.454 234.658 375.294 235.218 374.634 236.178V234.838H372.914V244.698H374.634V240.438C374.634 237.998 375.354 236.178 377.334 236.178C378.934 236.178 379.394 237.338 379.394 238.978V244.698H381.114V238.558C381.114 236.018 379.954 234.658 377.794 234.658ZM390.902 230.758V236.078C390.222 235.178 389.082 234.658 387.782 234.658C385.142 234.658 383.462 236.638 383.462 239.758C383.462 242.698 384.962 244.878 387.782 244.878C389.082 244.878 390.202 244.398 390.902 243.478V244.698H392.622V230.758H390.902ZM388.102 243.318C386.162 243.318 385.182 241.858 385.182 239.758C385.182 237.598 386.242 236.198 388.102 236.198C390.002 236.198 391.042 237.658 391.042 239.758C391.042 241.798 390.062 243.318 388.102 243.318ZM401.134 232.858H403.054V230.758H401.134V232.858ZM401.234 244.698H402.954V234.838H401.234V244.698ZM416.773 234.658C415.353 234.658 414.233 235.238 413.553 236.578C413.013 235.198 411.933 234.658 410.653 234.658C409.593 234.658 408.593 235.038 407.973 236.058V234.838H406.293L406.313 244.698H408.033V240.278C408.033 238.138 408.373 236.178 410.333 236.178C411.993 236.178 412.373 237.698 412.373 239.038V244.698H414.093V240.278C414.093 238.138 414.413 236.178 416.433 236.178C418.393 236.178 418.433 238.178 418.433 238.998V244.698H420.153V238.498C420.153 236.298 419.133 234.658 416.773 234.658ZM428.106 234.658C426.826 234.658 425.706 235.118 424.986 236.058V234.838H423.266V248.778H424.986V243.458C425.646 244.338 426.786 244.878 428.106 244.878C430.846 244.878 432.426 242.798 432.426 239.758C432.426 236.718 430.826 234.658 428.106 234.658ZM427.786 243.358C425.826 243.358 424.846 241.818 424.846 239.758C424.846 237.618 425.886 236.158 427.786 236.158C429.646 236.158 430.706 237.558 430.706 239.758C430.706 241.898 429.706 243.358 427.786 243.358ZM438.924 244.878C441.824 244.878 443.744 242.618 443.744 239.758C443.744 236.878 441.804 234.658 438.924 234.658C436.024 234.658 434.144 236.878 434.144 239.758C434.144 242.638 436.024 244.878 438.924 244.878ZM438.924 243.358C436.924 243.358 435.864 241.778 435.864 239.758C435.864 237.738 436.904 236.178 438.924 236.178C440.944 236.178 442.024 237.718 442.024 239.758C442.024 241.758 440.944 243.358 438.924 243.358ZM450.775 234.658C449.735 234.658 448.555 235.118 447.935 236.378V234.838H446.215V244.698H447.935V239.378C447.935 237.338 448.915 236.278 450.415 236.278C450.855 236.278 451.275 236.378 451.695 236.578L452.535 235.138C451.955 234.798 451.395 234.658 450.775 234.658ZM459.25 236.238V234.838H456.83V230.938L455.11 232.238V234.838H453.49V236.238H455.11V242.238C455.11 244.098 456.23 244.878 457.65 244.878C458.17 244.878 458.71 244.778 459.25 244.598V243.138C458.81 243.278 458.41 243.358 458.07 243.358C457.29 243.358 456.83 242.958 456.83 242.058V236.238H459.25ZM465.283 234.658C463.563 234.658 462.223 235.318 461.123 236.718L462.363 237.758C463.143 236.718 464.083 236.178 465.243 236.178C466.743 236.178 467.583 237.018 467.583 238.538V238.938H465.403C463.743 238.938 462.763 239.098 462.023 239.498C461.223 239.938 460.783 240.738 460.783 241.778C460.783 243.678 462.123 244.878 464.243 244.878C465.723 244.878 466.903 244.278 467.603 243.218L467.723 244.698H469.303V238.538C469.303 236.098 467.803 234.658 465.283 234.658ZM464.643 243.438C463.323 243.438 462.503 242.818 462.503 241.858C462.503 241.358 462.683 240.978 463.003 240.718C463.423 240.398 464.103 240.278 465.603 240.278H467.583V240.378C467.583 242.198 466.383 243.438 464.643 243.438ZM477.267 234.658C475.927 234.658 474.767 235.218 474.107 236.178V234.838H472.387V244.698H474.107V240.438C474.107 237.998 474.827 236.178 476.807 236.178C478.407 236.178 478.867 237.338 478.867 238.978V244.698H480.587V238.558C480.587 236.018 479.427 234.658 477.267 234.658ZM488.195 236.238V234.838H485.775V230.938L484.055 232.238V234.838H482.435V236.238H484.055V242.238C484.055 244.098 485.175 244.878 486.595 244.878C487.115 244.878 487.655 244.778 488.195 244.598V243.138C487.755 243.278 487.355 243.358 487.015 243.358C486.235 243.358 485.775 242.958 485.775 242.058V236.238H488.195ZM77.5198 262.658C76.2398 262.658 75.1198 263.118 74.3998 264.058V262.838H72.6798V276.778H74.3998V271.458C75.0598 272.338 76.1998 272.878 77.5198 272.878C80.2598 272.878 81.8398 270.798 81.8398 267.758C81.8398 264.718 80.2398 262.658 77.5198 262.658ZM77.1998 271.358C75.2398 271.358 74.2598 269.818 74.2598 267.758C74.2598 265.618 75.2998 264.158 77.1998 264.158C79.0598 264.158 80.1198 265.558 80.1198 267.758C80.1198 269.898 79.1198 271.358 77.1998 271.358ZM92.4581 267.398C92.4581 264.998 91.1181 262.658 88.0981 262.658C85.0981 262.658 83.6181 265.098 83.6181 267.818C83.6181 270.558 85.1181 272.878 88.2581 272.878C89.8181 272.878 91.0181 272.378 92.1381 271.178L90.9581 270.118C90.1181 271.018 89.2781 271.298 88.2781 271.298C86.4581 271.298 85.3981 270.158 85.3381 268.278H92.3981C92.4381 268.018 92.4581 267.678 92.4581 267.398ZM85.3381 266.878C85.4581 265.398 86.3981 264.098 88.0781 264.098C89.7381 264.098 90.7381 265.178 90.7981 266.698C90.7981 266.778 90.7981 266.838 90.8181 266.878H85.3381ZM99.5445 262.658C98.5045 262.658 97.3245 263.118 96.7045 264.378V262.838H94.9845V272.698H96.7045V267.378C96.7045 265.338 97.6845 264.278 99.1845 264.278C99.6245 264.278 100.045 264.378 100.465 264.578L101.305 263.138C100.725 262.798 100.165 262.658 99.5445 262.658ZM105.563 272.878C107.443 272.878 109.203 271.878 109.203 269.778C109.203 266.078 103.683 267.358 103.683 265.298C103.683 264.578 104.363 264.118 105.443 264.118C106.603 264.118 107.303 264.698 107.743 265.498L109.103 264.758C108.403 263.378 107.103 262.658 105.483 262.658C103.543 262.658 102.023 263.698 102.023 265.478C102.023 269.038 107.503 267.578 107.503 269.878C107.503 270.738 106.783 271.398 105.503 271.398C104.043 271.398 103.223 270.518 102.903 269.598L101.483 270.238C102.003 271.778 103.583 272.878 105.563 272.878ZM116.582 262.658C115.302 262.658 114.182 263.118 113.462 264.058V262.838H111.742V276.778H113.462V271.458C114.122 272.338 115.262 272.878 116.582 272.878C119.322 272.878 120.902 270.798 120.902 267.758C120.902 264.718 119.302 262.658 116.582 262.658ZM116.262 271.358C114.302 271.358 113.322 269.818 113.322 267.758C113.322 265.618 114.362 264.158 116.262 264.158C118.122 264.158 119.182 265.558 119.182 267.758C119.182 269.898 118.182 271.358 116.262 271.358ZM131.521 267.398C131.521 264.998 130.181 262.658 127.161 262.658C124.161 262.658 122.681 265.098 122.681 267.818C122.681 270.558 124.181 272.878 127.321 272.878C128.881 272.878 130.081 272.378 131.201 271.178L130.021 270.118C129.181 271.018 128.341 271.298 127.341 271.298C125.521 271.298 124.461 270.158 124.401 268.278H131.461C131.501 268.018 131.521 267.678 131.521 267.398ZM124.401 266.878C124.521 265.398 125.461 264.098 127.141 264.098C128.801 264.098 129.801 265.178 129.861 266.698C129.861 266.778 129.861 266.838 129.881 266.878H124.401ZM137.787 272.878C139.627 272.878 141.087 271.878 141.747 270.078L140.167 269.478C139.827 270.658 138.927 271.358 137.767 271.358C135.807 271.358 134.967 269.658 134.967 267.798C134.967 265.938 135.807 264.178 137.767 264.178C138.907 264.178 139.807 264.898 140.207 266.098L141.847 265.438C141.067 263.558 139.587 262.658 137.767 262.658C134.707 262.658 133.207 265.198 133.207 267.798C133.207 270.498 134.807 272.878 137.787 272.878ZM148.586 264.238V262.838H146.166V258.938L144.446 260.238V262.838H142.826V264.238H144.446V270.238C144.446 272.098 145.566 272.878 146.986 272.878C147.506 272.878 148.046 272.778 148.586 272.598V271.138C148.146 271.278 147.746 271.358 147.406 271.358C146.626 271.358 146.166 270.958 146.166 270.058V264.238H148.586ZM150.939 260.858H152.859V258.758H150.939V260.858ZM151.039 272.698H152.759V262.838H151.039V272.698ZM158.697 272.698H160.137L164.177 262.838H162.297L159.397 270.478L156.537 262.838H154.677L158.697 272.698ZM173.825 267.398C173.825 264.998 172.485 262.658 169.465 262.658C166.465 262.658 164.985 265.098 164.985 267.818C164.985 270.558 166.485 272.878 169.625 272.878C171.185 272.878 172.385 272.378 173.505 271.178L172.325 270.118C171.485 271.018 170.645 271.298 169.645 271.298C167.825 271.298 166.765 270.158 166.705 268.278H173.765C173.805 268.018 173.825 267.678 173.825 267.398ZM166.705 266.878C166.825 265.398 167.765 264.098 169.445 264.098C171.105 264.098 172.105 265.178 172.165 266.698C172.165 266.778 172.165 266.838 172.185 266.878H166.705ZM186.086 264.238V262.838H183.666V258.938L181.946 260.238V262.838H180.326V264.238H181.946V270.238C181.946 272.098 183.066 272.878 184.486 272.878C185.006 272.878 185.546 272.778 186.086 272.598V271.138C185.646 271.278 185.246 271.358 184.906 271.358C184.126 271.358 183.666 270.958 183.666 270.058V264.238H186.086ZM192.362 272.878C195.262 272.878 197.182 270.618 197.182 267.758C197.182 264.878 195.242 262.658 192.362 262.658C189.462 262.658 187.582 264.878 187.582 267.758C187.582 270.638 189.462 272.878 192.362 272.878ZM192.362 271.358C190.362 271.358 189.302 269.778 189.302 267.758C189.302 265.738 190.342 264.178 192.362 264.178C194.382 264.178 195.462 265.718 195.462 267.758C195.462 269.758 194.382 271.358 192.362 271.358ZM209.386 264.238V262.838H206.966V258.938L205.246 260.238V262.838H203.626V264.238H205.246V270.238C205.246 272.098 206.366 272.878 207.786 272.878C208.306 272.878 208.846 272.778 209.386 272.598V271.138C208.946 271.278 208.546 271.358 208.206 271.358C207.426 271.358 206.966 270.958 206.966 270.058V264.238H209.386ZM219.782 267.398C219.782 264.998 218.442 262.658 215.422 262.658C212.422 262.658 210.942 265.098 210.942 267.818C210.942 270.558 212.442 272.878 215.582 272.878C217.142 272.878 218.342 272.378 219.462 271.178L218.282 270.118C217.442 271.018 216.602 271.298 215.602 271.298C213.782 271.298 212.722 270.158 212.662 268.278H219.722C219.762 268.018 219.782 267.678 219.782 267.398ZM212.662 266.878C212.782 265.398 213.722 264.098 215.402 264.098C217.062 264.098 218.062 265.178 218.122 266.698C218.122 266.778 218.122 266.838 218.142 266.878H212.662ZM226.049 272.878C227.889 272.878 229.349 271.878 230.009 270.078L228.429 269.478C228.089 270.658 227.189 271.358 226.029 271.358C224.069 271.358 223.229 269.658 223.229 267.798C223.229 265.938 224.069 264.178 226.029 264.178C227.169 264.178 228.069 264.898 228.469 266.098L230.109 265.438C229.329 263.558 227.849 262.658 226.029 262.658C222.969 262.658 221.469 265.198 221.469 267.798C221.469 270.498 223.069 272.878 226.049 272.878ZM237.267 262.658C235.887 262.658 234.747 263.218 234.087 264.178V258.758H232.367V272.698H234.087V268.358C234.087 265.598 235.027 264.178 236.807 264.178C238.207 264.178 238.847 265.058 238.847 266.978V272.698H240.567V266.558C240.567 264.018 239.407 262.658 237.267 262.658ZM244.335 272.698H246.335V270.358H244.335V272.698Z" fill="#4D4B4F"/>
<path d="M73.1038 88.6979H81.4558C85.9998 88.6979 88.6558 86.3299 88.6558 82.2659C88.6558 79.4179 87.3438 77.5299 84.8798 76.7299C86.5438 75.8659 87.5038 74.1699 87.5038 71.9939C87.5038 68.4739 84.9118 66.3939 80.5598 66.3939H73.1038V88.6979ZM76.5278 75.5459V69.5619H80.5598C82.7998 69.5619 84.0798 70.6499 84.0798 72.6019C84.0798 74.4899 82.8638 75.5459 80.7198 75.5459H76.5278ZM76.5278 85.5299V78.6499H81.3918C83.8558 78.6499 85.2318 79.8659 85.2318 81.9779C85.2318 84.2179 83.7278 85.5299 81.1678 85.5299H76.5278ZM102 72.9219V79.3219C102 82.5859 101.488 86.1059 98.0636 86.1059C95.1196 86.1059 94.9596 83.4819 94.9596 81.8819V72.9219H91.6636V82.7139C91.6636 86.2659 93.2956 88.9859 97.1356 88.9859C99.0556 88.9859 100.88 88.2819 102 86.7139V88.6979H105.296V72.9219H102ZM109.847 69.8499H113.367V66.3939H109.847V69.8499ZM109.975 88.6979H113.271V72.9219H109.975V88.6979ZM121.262 88.9859C121.998 88.9859 122.83 88.8259 123.63 88.5379V85.8499C123.15 86.0099 122.702 86.0739 122.318 86.0739C121.486 86.0739 121.07 85.6579 121.07 84.8259V66.3939H117.774V85.0499C117.774 87.7379 119.214 88.9859 121.262 88.9859ZM136.79 66.3939V74.6819C135.798 73.4019 133.974 72.6019 132.022 72.6019C127.99 72.6019 125.27 75.7059 125.27 80.7939C125.27 85.5299 127.638 88.9859 132.022 88.9859C133.91 88.9859 135.702 88.3459 136.79 86.9379V88.6979H140.086V66.3939H136.79ZM132.758 85.9779C129.942 85.9779 128.566 83.9619 128.566 80.8259C128.566 77.5939 130.006 75.5779 132.79 75.5779C135.67 75.5779 137.11 77.8179 137.11 80.8259C137.11 83.7699 135.734 85.9779 132.758 85.9779ZM144.661 69.8499H148.181V66.3939H144.661V69.8499ZM144.789 88.6979H148.085V72.9219H144.789V88.6979ZM160.972 72.6339C158.924 72.6339 157.132 73.3699 156.044 74.8739V72.9219H152.748V88.6979H156.044V82.1379C156.044 78.7779 156.62 75.5139 160.012 75.5139C162.732 75.5139 163.084 77.6579 163.084 79.5139V88.6979H166.38V78.6819C166.38 74.8099 164.46 72.6339 160.972 72.6339ZM176.562 86.4579C174.482 86.1699 172.754 85.8179 172.754 84.5379C172.754 84.0579 172.978 83.7059 173.394 83.4499C174.322 83.8659 175.346 84.1219 176.498 84.1219C179.922 84.1219 182.738 81.9139 182.738 78.4899C182.738 77.4339 182.482 76.4739 182.002 75.6419L184.242 73.8179L182.514 71.7059L180.178 73.7219C179.122 73.0179 177.81 72.6339 176.402 72.6339C172.914 72.6339 170.098 74.9699 170.098 78.2979C170.098 79.6739 170.578 80.9219 171.41 81.9139C170.386 82.6819 169.842 83.6739 169.842 85.0179C169.842 86.6499 170.642 87.6099 171.794 88.2179L169.426 89.8819C169.394 90.0419 169.362 90.2019 169.362 90.5859C169.362 93.7859 172.018 95.5139 176.626 95.5139C180.786 95.5139 183.73 94.1379 183.73 90.9379C183.73 87.2899 179.73 86.9059 176.562 86.4579ZM176.466 75.3859C178.29 75.3859 179.442 76.5699 179.442 78.3939C179.442 80.1219 178.418 81.4019 176.434 81.4019C174.45 81.4019 173.362 80.0899 173.362 78.3939C173.362 76.6019 174.61 75.3859 176.466 75.3859ZM176.754 92.9859C174.674 92.9859 172.626 92.4739 172.626 90.8419C172.626 90.7779 172.626 90.6819 172.658 90.5539L174.258 88.9859C174.802 89.0819 175.346 89.1779 175.858 89.2419C178.258 89.5939 180.434 89.7859 180.434 91.2259C180.434 92.4739 178.77 92.9859 176.754 92.9859ZM204.476 89.1139C209.148 89.1139 212.636 86.8419 214.268 82.6179L211.036 81.4019C209.98 84.3459 207.708 85.8499 204.476 85.8499C199.964 85.8499 197.308 82.8419 197.308 77.4979C197.308 72.1859 199.964 69.2099 204.54 69.2099C207.74 69.2099 209.98 70.6499 211.036 73.5619L214.204 72.3459C212.572 68.1539 209.18 65.9459 204.54 65.9459C198.012 65.9459 193.884 70.3619 193.884 77.5299C193.884 84.6659 197.98 89.1139 204.476 89.1139ZM223.295 88.9859C228.031 88.9859 231.071 85.3059 231.071 80.7939C231.071 76.2499 228.031 72.6339 223.295 72.6339C218.527 72.6339 215.487 76.2499 215.487 80.7939C215.487 85.3059 218.527 88.9859 223.295 88.9859ZM223.295 86.1059C220.223 86.1059 218.783 83.7059 218.783 80.7939C218.783 77.8819 220.223 75.5139 223.295 75.5139C226.335 75.5139 227.775 77.8819 227.775 80.7939C227.775 83.6739 226.367 86.1059 223.295 86.1059ZM242.578 72.6339C240.53 72.6339 238.738 73.3699 237.65 74.8739V72.9219H234.354V88.6979H237.65V82.1379C237.65 78.7779 238.226 75.5139 241.618 75.5139C244.338 75.5139 244.69 77.6579 244.69 79.5139V88.6979H247.986V78.6819C247.986 74.8099 246.066 72.6339 242.578 72.6339ZM253.241 88.6979H256.537V75.5779H260.505V72.9219H256.537V70.8419C256.537 69.9779 256.793 68.8579 258.137 68.8579C258.649 68.8579 259.161 69.0179 259.609 69.2739L260.697 66.7139C259.833 66.3299 258.873 66.1059 257.785 66.1059C255.449 66.1059 253.273 67.1299 253.273 70.9059V72.9219H250.137V75.5779H253.241V88.6979ZM262.706 69.8499H266.226V66.3939H262.706V69.8499ZM262.834 88.6979H266.13V72.9219H262.834V88.6979ZM281.097 66.3939V74.6819C280.105 73.4019 278.281 72.6019 276.329 72.6019C272.297 72.6019 269.577 75.7059 269.577 80.7939C269.577 85.5299 271.945 88.9859 276.329 88.9859C278.217 88.9859 280.009 88.3459 281.097 86.9379V88.6979H284.393V66.3939H281.097ZM277.065 85.9779C274.249 85.9779 272.873 83.9619 272.873 80.8259C272.873 77.5939 274.313 75.5779 277.097 75.5779C279.977 75.5779 281.417 77.8179 281.417 80.8259C281.417 83.7699 280.041 85.9779 277.065 85.9779ZM302.247 80.4099C302.247 76.2819 300.007 72.6339 295.111 72.6339C290.087 72.6339 287.783 76.6659 287.783 80.8899C287.783 85.2099 290.151 88.9859 295.367 88.9859C297.959 88.9859 299.943 88.1539 301.735 86.2019L299.431 84.2179C298.247 85.5619 296.935 86.0099 295.399 86.0099C292.711 86.0099 291.207 84.3779 291.079 81.8499H302.151C302.215 81.3699 302.247 80.8899 302.247 80.4099ZM291.079 79.1939C291.303 77.2419 292.583 75.3859 295.111 75.3859C297.447 75.3859 299.015 76.8899 299.079 79.1299V79.1939H291.079ZM313.809 72.6339C311.761 72.6339 309.969 73.3699 308.881 74.8739V72.9219H305.585V88.6979H308.881V82.1379C308.881 78.7779 309.457 75.5139 312.849 75.5139C315.569 75.5139 315.921 77.6579 315.921 79.5139V88.6979H319.217V78.6819C319.217 74.8099 317.297 72.6339 313.809 72.6339ZM329.656 88.9859C332.696 88.9859 335.096 87.3539 336.152 84.4099L333.144 83.2579C332.664 85.0179 331.32 86.1059 329.656 86.1059C326.712 86.1059 325.56 83.6099 325.56 80.8579C325.56 78.1059 326.744 75.5139 329.624 75.5139C331.352 75.5139 332.664 76.6339 333.176 78.3939L336.312 77.1779C335.096 74.1059 332.664 72.6339 329.624 72.6339C324.6 72.6339 322.2 76.6979 322.2 80.8579C322.2 85.0819 324.696 88.9859 329.656 88.9859ZM352.248 80.4099C352.248 76.2819 350.008 72.6339 345.112 72.6339C340.088 72.6339 337.784 76.6659 337.784 80.8899C337.784 85.2099 340.152 88.9859 345.368 88.9859C347.96 88.9859 349.944 88.1539 351.736 86.2019L349.432 84.2179C348.248 85.5619 346.936 86.0099 345.4 86.0099C342.712 86.0099 341.208 84.3779 341.08 81.8499H352.152C352.216 81.3699 352.248 80.8899 352.248 80.4099ZM341.08 79.1939C341.304 77.2419 342.584 75.3859 345.112 75.3859C347.448 75.3859 349.016 76.8899 349.08 79.1299V79.1939H341.08Z" fill="#4D4B4F"/>
<circle cx="4.81106" cy="4.81106" r="4.81106" transform="matrix(-1 0 0 1 32.6348 16.8763)" fill="#D9D9D9"/>
<circle cx="4.81106" cy="4.81106" r="4.81106" transform="matrix(-1 0 0 1 32.6348 38.0454)" fill="#D9D9D9"/>
<circle cx="4.81106" cy="4.81106" r="4.81106" transform="matrix(-1 0 0 1 32.6348 59.2131)" fill="#D9D9D9"/>
<circle cx="4.81106" cy="4.81106" r="4.81106" transform="matrix(-1 0 0 1 32.6348 80.3823)" fill="#D9D9D9"/>
<circle cx="4.81106" cy="4.81106" r="4.81106" transform="matrix(-1 0 0 1 32.6348 101.551)" fill="#D9D9D9"/>
<ellipse cx="4.81106" cy="4.49032" rx="4.81106" ry="4.49032" transform="matrix(-1 0 0 1 32.6348 122.72)" fill="#D9D9D9"/>
<ellipse cx="4.81106" cy="4.49032" rx="4.81106" ry="4.49032" transform="matrix(-1 0 0 1 32.6348 143.246)" fill="#D9D9D9"/>
<ellipse cx="4.81106" cy="4.49032" rx="4.81106" ry="4.49032" transform="matrix(-1 0 0 1 32.6348 163.774)" fill="#D9D9D9"/>
<circle cx="4.81106" cy="4.81106" r="4.81106" transform="matrix(-1 0 0 1 32.6348 184.301)" fill="#D9D9D9"/>
<ellipse cx="4.81106" cy="4.49032" rx="4.81106" ry="4.49032" transform="matrix(-1 0 0 1 32.6348 205.469)" fill="#D9D9D9"/>
<circle cx="4.81106" cy="4.81106" r="4.81106" transform="matrix(-1 0 0 1 32.6348 225.997)" fill="#D9D9D9"/>
<ellipse cx="4.81106" cy="4.49032" rx="4.81106" ry="4.49032" transform="matrix(-1 0 0 1 32.6348 247.165)" fill="#D9D9D9"/>
<ellipse cx="4.81106" cy="4.49032" rx="4.81106" ry="4.49032" transform="matrix(-1 0 0 1 32.6348 267.692)" fill="#D9D9D9"/>
<ellipse cx="4.81106" cy="4.49032" rx="4.81106" ry="4.49032" transform="matrix(-1 0 0 1 32.6348 288.22)" fill="#D9D9D9"/>
<ellipse cx="4.81106" cy="4.49032" rx="4.81106" ry="4.49032" transform="matrix(-1 0 0 1 32.6348 308.747)" fill="#D9D9D9"/>
<path d="M23.4407 18.959C22.1917 21.1224 22.8727 23.8539 24.9618 25.06C25.8667 25.5825 24.5379 22.055 25.787 19.8917C27.036 17.7283 30.7504 17.9564 29.4848 17.2258C27.3958 16.0197 24.6897 16.7957 23.4407 18.959Z" fill="#BEBEBE"/>
<path d="M23.4243 39.9577C22.1843 42.1054 22.8727 44.8242 24.9617 46.0303C25.8667 46.5528 24.5292 43.0404 25.7692 40.8927C27.0092 38.745 30.7176 38.9835 29.452 38.2529C27.363 37.0468 24.6643 37.8101 23.4243 39.9577Z" fill="#BEBEBE"/>
<path d="M23.4407 61.8731C22.1917 64.0364 22.8727 66.7679 24.9618 67.9741C25.8667 68.4965 24.5379 64.9691 25.787 62.8057C27.036 60.6424 30.7504 60.8705 29.4848 60.1398C27.3958 58.9337 24.6897 59.7097 23.4407 61.8731Z" fill="#BEBEBE"/>
<path d="M23.4243 82.8719C22.1843 85.0196 22.8727 87.7384 24.9617 88.9445C25.8667 89.467 24.5292 85.9545 25.7692 83.8069C27.0092 81.6592 30.7176 81.8977 29.452 81.1671C27.363 79.9609 24.6643 80.7242 23.4243 82.8719Z" fill="#BEBEBE"/>
<path d="M23.4407 103.87C22.1917 106.034 22.8727 108.765 24.9618 109.971C25.8667 110.494 24.5379 106.966 25.787 104.803C27.036 102.639 30.7504 102.868 29.4848 102.137C27.3958 100.931 24.6897 101.707 23.4407 103.87Z" fill="#BEBEBE"/>
<path d="M23.4243 124.868C22.1843 127.016 22.8727 129.735 24.9617 130.941C25.8667 131.463 24.5292 127.951 25.7692 125.803C27.0092 123.656 30.7176 123.894 29.452 123.164C27.363 121.957 24.6643 122.721 23.4243 124.868Z" fill="#BEBEBE"/>
<path d="M23.4407 144.95C22.1917 147.113 22.8727 149.844 24.9618 151.051C25.8667 151.573 24.5379 148.046 25.787 145.882C27.036 143.719 30.7504 143.947 29.4848 143.216C27.3958 142.01 24.6897 142.786 23.4407 144.95Z" fill="#BEBEBE"/>
<path d="M23.4407 165.976C22.1917 168.14 22.8727 170.871 24.9618 172.077C25.8667 172.6 24.5379 169.072 25.787 166.909C27.036 164.746 30.7504 164.974 29.4848 164.243C27.3958 163.037 24.6897 163.813 23.4407 165.976Z" fill="#BEBEBE"/>
<path d="M23.4407 187.003C22.1917 189.166 22.8727 191.898 24.9618 193.104C25.8667 193.626 24.5379 190.099 25.787 187.936C27.036 185.772 30.7504 186 29.4848 185.27C27.3958 184.064 24.6897 184.84 23.4407 187.003Z" fill="#BEBEBE"/>
<path d="M23.4407 207.112C22.1917 209.276 22.8727 212.007 24.9618 213.213C25.8667 213.736 24.5379 210.208 25.787 208.045C27.036 205.882 30.7504 206.11 29.4848 205.379C27.3958 204.173 24.6897 204.949 23.4407 207.112Z" fill="#BEBEBE"/>
<path d="M23.4407 228.139C22.1917 230.302 22.8727 233.034 24.9618 234.24C25.8667 234.762 24.5379 231.235 25.787 229.071C27.036 226.908 30.7504 227.136 29.4848 226.405C27.3958 225.199 24.6897 225.975 23.4407 228.139Z" fill="#BEBEBE"/>
<path d="M23.4407 249.166C22.1917 251.329 22.8727 254.061 24.9618 255.267C25.8667 255.789 24.5379 252.262 25.787 250.098C27.036 247.935 30.7504 248.163 29.4848 247.433C27.3958 246.226 24.6897 247.002 23.4407 249.166Z" fill="#BEBEBE"/>
<path d="M23.613 269.895C22.4592 271.893 23.2173 274.491 25.3064 275.697C26.2113 276.22 24.7915 272.85 25.9453 270.851C27.0992 268.853 30.7504 269.19 29.4848 268.46C27.3958 267.254 24.7669 267.896 23.613 269.895Z" fill="#BEBEBE"/>
<path d="M23.4243 290.431C22.1843 292.579 22.8727 295.297 24.9617 296.503C25.8667 297.026 24.5292 293.514 25.7692 291.366C27.0092 289.218 30.7176 289.457 29.452 288.726C27.363 287.52 24.6643 288.283 23.4243 290.431Z" fill="#BEBEBE"/>
<path d="M23.4241 310.61C22.1841 312.758 22.8724 315.476 24.9615 316.682C25.8665 317.205 24.529 313.692 25.769 311.545C27.009 309.397 30.7173 309.636 29.4518 308.905C27.3628 307.699 24.664 308.462 23.4241 310.61Z" fill="#BEBEBE"/>
<path d="M9.25485 15.5002C3.29274 15.5002 0.536244 19.5657 3.61939 21.3889C7.47333 23.6679 12.4424 24.2139 21.6374 24.2139C23.4719 24.2139 31.2684 20.9303 26.2236 19.1692" stroke="#4D4B4F" stroke-width="1.83446"/>
<path d="M9.2554 32.0105C-4.50308 33.845 1.0003 43.0173 20.2622 44.8517C27.1145 45.5043 30.9019 43.8428 25.7654 41.6414" stroke="#4D4B4F" stroke-width="1.83446"/>
<path d="M8.64236 54.4825C-5.11612 56.317 0.387266 65.4893 19.6492 67.3238C26.5015 67.9764 30.9014 65.3976 25.7648 63.1962" stroke="#4D4B4F" stroke-width="1.83446"/>
<path d="M8.64236 75.5787C-5.11612 77.4132 0.387266 86.5855 19.6492 88.42C26.5015 89.0726 30.4427 86.4938 25.3062 84.2924" stroke="#4D4B4F" stroke-width="1.83446"/>
<path d="M8.64236 96.6749C-5.11612 98.5094 0.387266 107.682 19.6492 109.516C26.5015 110.169 30.4427 107.59 25.3062 105.389" stroke="#4D4B4F" stroke-width="1.83446"/>
<path d="M8.64236 117.771C-5.11612 119.606 0.387266 128.778 19.6492 130.612C26.5015 131.265 28.4545 128.228 23.3179 126.026" stroke="#4D4B4F" stroke-width="1.83446"/>
<path d="M8.64236 137.034C-5.11612 138.868 0.387266 148.04 19.6492 149.875C26.5015 150.528 30.9014 148.407 25.7648 146.206" stroke="#4D4B4F" stroke-width="1.83446"/>
<path d="M8.64236 159.964C-5.11612 161.799 0.387266 170.971 19.6492 172.805C26.5015 173.458 30.9014 169.503 25.7648 167.302" stroke="#4D4B4F" stroke-width="1.83446"/>
<path d="M8.64236 179.226C-5.11612 181.061 0.387266 190.233 19.6492 192.067C26.5015 192.72 28.4545 189.682 23.3179 187.481" stroke="#4D4B4F" stroke-width="1.83446"/>
<path d="M8.64236 201.239C-5.11612 203.074 0.387266 212.246 19.6492 214.081C26.5015 214.733 28.4545 211.696 23.3179 209.494" stroke="#4D4B4F" stroke-width="1.83446"/>
<path d="M8.64236 220.501C-5.11612 222.336 0.387266 231.508 19.6492 233.343C26.5015 233.995 28.4545 230.958 23.3179 228.756" stroke="#4D4B4F" stroke-width="1.83446"/>
<path d="M8.64236 242.515C-5.11612 244.35 0.387266 253.522 19.6492 255.356C26.5015 256.009 28.4545 252.972 23.3179 250.77" stroke="#4D4B4F" stroke-width="1.83446"/>
<path d="M8.64236 261.777C-5.11612 263.611 0.387266 272.783 19.6492 274.618C26.5015 275.27 28.4545 272.233 23.3179 270.032" stroke="#4D4B4F" stroke-width="1.83446"/>
<path d="M8.64236 283.79C-5.11612 285.625 0.387266 294.797 19.6492 296.632C26.5015 297.284 28.4545 294.247 23.3179 292.045" stroke="#4D4B4F" stroke-width="1.83446"/>
<path d="M8.64236 303.052C-5.11612 304.886 0.387266 314.059 19.6492 315.893C26.5015 316.546 28.4545 313.508 23.3179 311.307" stroke="#4D4B4F" stroke-width="1.83446"/>
<path d="M493.364 52.3835L494.763 55.5075" stroke="#4D4B4F" stroke-width="2.68806" stroke-linecap="round"/>
<path d="M498.249 48.6333L500.115 52.7986" stroke="#4D4B4F" stroke-width="2.68806" stroke-linecap="round"/>
<path d="M489.776 43.6764C486.445 45.1684 482.302 46.7829 480.759 50.3727C478.8 54.9312 480.42 59.9468 481.75 64.4463C482.764 67.877 484.294 72.0607 487.436 74.0376C493.053 77.572 499.314 75.8191 505.281 74.101C508.373 73.2105 511.575 72.155 513.632 69.5612C516.196 66.3267 517.549 62.7653 518.93 58.9045C519.852 56.3248 520.758 53.2238 519.948 50.4778C518.955 47.1124 516.53 44.262 513.796 42.172C509.322 38.752 503.763 36.7373 498.126 36.4977C495.823 36.3998 493.868 36.6876 491.705 37.5158C490.75 37.8816 489.257 38.2624 488.691 39.1612" stroke="#4D4B4F" stroke-width="2.68806" stroke-linecap="round"/>
<path d="M493 62.9995C496.904 62.9995 500.454 63.0934 503.807 61.5394C506.72 60.1895 509.13 58.3091 510 56.0006" stroke="#4D4B4F" stroke-width="3.18897" stroke-linecap="round"/>
<defs>
<filter id="filter0_d_1_7671" x="9.99973" y="0.000244141" width="569" height="349" filterUnits="userSpaceOnUse" color-interpolation-filters="sRGB">
<feFlood flood-opacity="0" result="BackgroundImageFix"/>
<feColorMatrix in="SourceAlpha" type="matrix" values="0 0 0 0 0 0 0 0 0 0 0 0 0 0 0 0 0 0 127 0" result="hardAlpha"/>
<feMorphology radius="1" operator="dilate" in="SourceAlpha" result="effect1_dropShadow_1_7671"/>
<feOffset dx="8" dy="11"/>
<feGaussianBlur stdDeviation="0.5"/>
<feComposite in2="hardAlpha" operator="out"/>
<feColorMatrix type="matrix" values="0 0 0 0 0 0 0 0 0 0 0 0 0 0 0 0 0 0 0.25 0"/>
<feBlend mode="normal" in2="BackgroundImageFix" result="effect1_dropShadow_1_7671"/>
<feBlend mode="normal" in="SourceGraphic" in2="effect1_dropShadow_1_7671" result="shape"/>
</filter>
</defs>
</svg>
