<svg width="450" height="508" viewBox="0 0 450 508" fill="none" xmlns="http://www.w3.org/2000/svg">
<g filter="url(#filter0_d_1_7312)">
<rect x="435" width="496" height="434" rx="7" transform="rotate(90 435 0)" fill="#FAF8F4"/>
</g>
<path d="M36.9998 43.0058C36.9998 47.7561 32.9704 51.607 27.9998 51.607C23.0293 51.607 18.9998 47.7561 18.9998 43.0058C18.9998 38.2555 23.0293 34.4047 27.9998 34.4047C32.9704 34.4047 36.9998 38.2555 36.9998 43.0058Z" fill="url(#paint0_linear_1_7312)"/>
<ellipse cx="27.9998" cy="229.842" rx="9" ry="8.12331" fill="url(#paint1_linear_1_7312)"/>
<ellipse cx="27.9998" cy="416.678" rx="9" ry="8.60116" fill="url(#paint2_linear_1_7312)"/>
<line x1="50.5" y1="2.18557e-08" x2="50.5" y2="496" stroke="#DE4343"/>
<line x1="1.00105" y1="467.535" x2="435.001" y2="468.25" stroke="#9DADD7" stroke-width="1.5"/>
<line x1="-0.000183105" y1="62.25" x2="435" y2="62.25" stroke="#9DADD7" stroke-width="1.5"/>
<path d="M87.357 496C87.357 478.519 87.9998 461.031 87.9998 443.575C87.9998 438.701 87.3374 436.017 84.7855 431.661C83.6269 429.683 81.3427 425.352 78.9998 424.324" stroke="#4D4B4F" stroke-width="1.98163" stroke-linecap="round"/>
<path d="M85.6051 466.374C82.982 462.318 79.4411 458.573 78.4888 453.869C78.2931 452.902 77.4939 445.559 78.4888 446.367C80.5701 448.055 82.615 449.85 84.1674 451.924C85.4344 453.617 88.2963 456.354 88.8038 458.315C89.2228 459.935 88.8397 461.932 88.8397 463.595" stroke="#4D4B4F" stroke-width="1.98163" stroke-linecap="round"/>
<path d="M98.4509 441.526C93.8894 441.526 92.3853 443.813 89.3935 446.89C88.274 448.042 85.4186 454.056 88.1431 453.948C94.478 453.698 98.9998 448.07 98.9998 442.091" stroke="#4D4B4F" stroke-width="1.98163" stroke-linecap="round"/>
<path d="M72.0543 414.664C72.0543 416.029 71.3653 417.132 71.4519 418.581C71.5648 420.468 74.3986 419.745 74.9323 418.456C75.1662 417.891 76.5619 414.623 76.137 414.229C75.3144 413.465 73.0107 414.744 72.1881 413.98C71.0164 412.892 72.1745 408.149 73.1251 407.266C75.9203 404.669 77.4756 407.125 77.4756 409.908C77.4756 410.492 77.0862 413.481 77.2079 413.514C78.8352 413.946 81.242 411.623 82.5957 411.027C84.6101 410.141 90.9567 409.033 92.6687 410.623C94.8806 412.677 85.3557 417.034 83.4993 417.897C82.0304 418.579 79.116 419.615 77.4756 419.7C75.2614 419.814 76.4533 419.539 77.8102 420.259C80.1923 421.523 81.5799 423.728 78.9815 425.606C77.5155 426.665 72.7247 431.115 72.0877 426.973C71.8926 425.705 71.0388 423.971 71.7531 422.777C72.6292 421.312 69.7299 425.105 69.3436 425.543C68.5318 426.465 60.1947 432.178 60.0069 429.211C59.8429 426.623 62.5471 420.08 66.0306 419.7C66.3097 419.669 69.3771 418.056 69.3771 418.021C69.3771 417.358 67.9492 418.021 67.2353 418.021C66.3318 418.021 65.4282 418.021 64.5247 418.021C61.066 418.021 62.4036 413.8 64.5247 412.706C67.2349 411.307 70.6215 411.443 72.0543 414.104" stroke="#4D4B4F" stroke-width="1.98163" stroke-linecap="round"/>
<path d="M100.006 496C100.006 485.094 99.5707 473.273 105.761 463.53C108.697 458.909 112.73 454.758 116.668 450.842C117.332 450.181 118.863 448.216 120 448.216" stroke="#4D4B4F" stroke-width="1.79328" stroke-linecap="round"/>
<path d="M102 440.57C104.326 442.747 106.467 444.698 107.818 447.586C108.897 449.895 109 451.932 109 454.428C109 454.885 108.846 461.2 108.02 460.599C106.374 459.402 105.484 457.368 104.566 455.694C103.952 454.573 103.733 453.31 103.4 452.099C103.109 451.04 102.534 450.034 102.342 448.955C101.865 446.279 102.28 443.294 102.28 440.57" stroke="#4D4B4F" stroke-width="1.79328" stroke-linecap="round"/>
<path d="M114.939 474.946C114.939 477.931 111.523 478.898 108.895 480.223C106.56 481.401 104.288 481.665 101.672 481.665C99.9409 481.665 102.037 480.627 102.601 480.262C104.465 479.056 106.25 477.788 108.099 476.568C110.325 475.1 113.198 474.02 116 474.02" stroke="#4D4B4F" stroke-width="1.79328" stroke-linecap="round"/>
<path d="M124.519 454.988C122.724 454.988 120.274 456.36 118.635 457.013C117.094 457.628 115.338 457.773 113.687 457.773C113.071 457.773 111.476 457.298 111.027 456.873C110.617 456.485 114.938 454.918 115.366 454.679C118.214 453.087 122.015 451.495 125.456 452.218C125.793 452.289 127.868 452.938 127.997 453.09C128.144 453.265 123.231 454.737 122.647 454.988" stroke="#4D4B4F" stroke-width="1.79328" stroke-linecap="round"/>
<path d="M77.1 185.698H80.96C85.6 185.698 88.14 183.278 88.14 178.838C88.14 174.338 85.54 171.758 80.98 171.758H77.1V185.698ZM78.88 184.058V173.398H80.94C84.56 173.398 86.34 175.178 86.34 178.758C86.34 182.358 84.56 184.058 80.8 184.058H78.88ZM90.8573 173.858H92.7773V171.758H90.8573V173.858ZM90.9573 185.698H92.6773V175.838H90.9573V185.698ZM99.0555 185.878C100.935 185.878 102.695 184.878 102.695 182.778C102.695 179.078 97.1755 180.358 97.1755 178.298C97.1755 177.578 97.8555 177.118 98.9355 177.118C100.095 177.118 100.795 177.698 101.235 178.498L102.595 177.758C101.895 176.378 100.595 175.658 98.9755 175.658C97.0355 175.658 95.5155 176.698 95.5155 178.478C95.5155 182.038 100.995 180.578 100.995 182.878C100.995 183.738 100.275 184.398 98.9955 184.398C97.5355 184.398 96.7155 183.518 96.3955 182.598L94.9755 183.238C95.4955 184.778 97.0755 185.878 99.0555 185.878ZM108.897 185.878C110.737 185.878 112.197 184.878 112.857 183.078L111.277 182.478C110.937 183.658 110.037 184.358 108.877 184.358C106.917 184.358 106.077 182.658 106.077 180.798C106.077 178.938 106.917 177.178 108.877 177.178C110.017 177.178 110.917 177.898 111.317 179.098L112.957 178.438C112.177 176.558 110.697 175.658 108.877 175.658C105.817 175.658 104.317 178.198 104.317 180.798C104.317 183.498 105.917 185.878 108.897 185.878ZM119.037 185.878C121.937 185.878 123.857 183.618 123.857 180.758C123.857 177.878 121.917 175.658 119.037 175.658C116.137 175.658 114.257 177.878 114.257 180.758C114.257 183.638 116.137 185.878 119.037 185.878ZM119.037 184.358C117.037 184.358 115.977 182.778 115.977 180.758C115.977 178.738 117.017 177.178 119.037 177.178C121.057 177.178 122.137 178.718 122.137 180.758C122.137 182.758 121.057 184.358 119.037 184.358ZM128.615 185.698H130.055L134.095 175.838H132.215L129.315 183.478L126.455 175.838H124.595L128.615 185.698ZM143.743 180.398C143.743 177.998 142.403 175.658 139.383 175.658C136.383 175.658 134.903 178.098 134.903 180.818C134.903 183.558 136.403 185.878 139.543 185.878C141.103 185.878 142.303 185.378 143.423 184.178L142.243 183.118C141.403 184.018 140.563 184.298 139.563 184.298C137.743 184.298 136.683 183.158 136.623 181.278H143.683C143.723 181.018 143.743 180.678 143.743 180.398ZM136.623 179.878C136.743 178.398 137.683 177.098 139.363 177.098C141.023 177.098 142.023 178.178 142.083 179.698C142.083 179.778 142.083 179.838 142.103 179.878H136.623ZM150.83 175.658C149.79 175.658 148.61 176.118 147.99 177.378V175.838H146.27V185.698H147.99V180.378C147.99 178.338 148.97 177.278 150.47 177.278C150.91 177.278 151.33 177.378 151.75 177.578L152.59 176.138C152.01 175.798 151.45 175.658 150.83 175.658ZM163.15 175.658C161.43 175.658 160.09 176.318 158.99 177.718L160.23 178.758C161.01 177.718 161.95 177.178 163.11 177.178C164.61 177.178 165.45 178.018 165.45 179.538V179.938H163.27C161.61 179.938 160.63 180.098 159.89 180.498C159.09 180.938 158.65 181.738 158.65 182.778C158.65 184.678 159.99 185.878 162.11 185.878C163.59 185.878 164.77 185.278 165.47 184.218L165.59 185.698H167.17V179.538C167.17 177.098 165.67 175.658 163.15 175.658ZM162.51 184.438C161.19 184.438 160.37 183.818 160.37 182.858C160.37 182.358 160.55 181.978 160.87 181.718C161.29 181.398 161.97 181.278 163.47 181.278H165.45V181.378C165.45 183.198 164.25 184.438 162.51 184.438ZM179.248 185.878C181.088 185.878 182.548 184.878 183.208 183.078L181.628 182.478C181.288 183.658 180.388 184.358 179.228 184.358C177.268 184.358 176.428 182.658 176.428 180.798C176.428 178.938 177.268 177.178 179.228 177.178C180.368 177.178 181.268 177.898 181.668 179.098L183.308 178.438C182.528 176.558 181.048 175.658 179.228 175.658C176.168 175.658 174.668 178.198 174.668 180.798C174.668 183.498 176.268 185.878 179.248 185.878ZM189.389 185.878C192.289 185.878 194.209 183.618 194.209 180.758C194.209 177.878 192.269 175.658 189.389 175.658C186.489 175.658 184.609 177.878 184.609 180.758C184.609 183.638 186.489 185.878 189.389 185.878ZM189.389 184.358C187.389 184.358 186.329 182.778 186.329 180.758C186.329 178.738 187.369 177.178 189.389 177.178C191.409 177.178 192.489 178.718 192.489 180.758C192.489 182.758 191.409 184.358 189.389 184.358ZM207.14 175.658C205.72 175.658 204.6 176.238 203.92 177.578C203.38 176.198 202.3 175.658 201.02 175.658C199.96 175.658 198.96 176.038 198.34 177.058V175.838H196.66L196.68 185.698H198.4V181.278C198.4 179.138 198.74 177.178 200.7 177.178C202.36 177.178 202.74 178.698 202.74 180.038V185.698H204.46V181.278C204.46 179.138 204.78 177.178 206.8 177.178C208.76 177.178 208.8 179.178 208.8 179.998V185.698H210.52V179.498C210.52 177.298 209.5 175.658 207.14 175.658ZM224.093 175.658C222.673 175.658 221.553 176.238 220.873 177.578C220.333 176.198 219.253 175.658 217.973 175.658C216.913 175.658 215.913 176.038 215.293 177.058V175.838H213.613L213.633 185.698H215.353V181.278C215.353 179.138 215.693 177.178 217.653 177.178C219.313 177.178 219.693 178.698 219.693 180.038V185.698H221.413V181.278C221.413 179.138 221.733 177.178 223.753 177.178C225.713 177.178 225.753 179.178 225.753 179.998V185.698H227.473V179.498C227.473 177.298 226.453 175.658 224.093 175.658ZM236.67 175.838V180.118C236.67 182.398 236.01 184.358 233.95 184.358C232.09 184.358 231.91 182.778 231.91 181.498V175.838H230.19V181.918C230.19 184.238 231.19 185.878 233.51 185.878C234.75 185.878 235.97 185.398 236.67 184.358V185.698H238.39V175.838H236.67ZM246.638 175.658C245.298 175.658 244.138 176.218 243.478 177.178V175.838H241.758V185.698H243.478V181.438C243.478 178.998 244.198 177.178 246.178 177.178C247.778 177.178 248.238 178.338 248.238 179.978V185.698H249.958V179.558C249.958 177.018 248.798 175.658 246.638 175.658ZM252.986 173.858H254.906V171.758H252.986V173.858ZM253.086 185.698H254.806V175.838H253.086V185.698ZM262.644 177.238V175.838H260.224V172.218L258.504 173.498V175.838H256.884V177.238H258.504V183.238C258.504 185.098 259.624 185.878 261.044 185.878C261.564 185.878 262.104 185.778 262.644 185.598V184.138C262.204 184.278 261.804 184.358 261.464 184.358C260.684 184.358 260.224 183.958 260.224 183.058V177.238H262.644ZM266.155 189.778H268.015L273.475 175.838H271.575L268.755 183.538L265.655 175.838H263.755L267.835 185.538L266.155 189.778ZM284.565 185.878C287.465 185.878 289.385 183.618 289.385 180.758C289.385 177.878 287.445 175.658 284.565 175.658C281.665 175.658 279.785 177.878 279.785 180.758C279.785 183.638 281.665 185.878 284.565 185.878ZM284.565 184.358C282.565 184.358 281.505 182.778 281.505 180.758C281.505 178.738 282.545 177.178 284.565 177.178C286.585 177.178 287.665 178.718 287.665 180.758C287.665 182.758 286.585 184.358 284.565 184.358ZM292.456 185.698H294.176V177.238H296.836V175.838H294.176V174.378C294.176 173.638 294.496 173.018 295.296 173.018C295.636 173.018 295.976 173.138 296.336 173.318L296.916 171.978C296.316 171.718 295.736 171.578 295.116 171.578C293.756 171.578 292.476 172.218 292.476 174.458V175.838H290.436V177.238H292.456V185.698ZM305.905 185.878C306.345 185.878 306.865 185.758 307.325 185.598L307.305 184.178C307.025 184.258 306.705 184.338 306.425 184.338C305.845 184.338 305.605 183.978 305.605 183.378V171.758H303.885V183.478C303.885 185.098 304.705 185.878 305.905 185.878ZM309.334 173.858H311.254V171.758H309.334V173.858ZM309.434 185.698H311.154V175.838H309.434V185.698ZM314.512 185.698H316.232V182.798L318.252 180.638L321.512 185.698H323.552L319.432 179.578L323.032 175.838H320.732L316.232 180.658V171.758H314.512V185.698ZM332.982 180.398C332.982 177.998 331.642 175.658 328.622 175.658C325.622 175.658 324.142 178.098 324.142 180.818C324.142 183.558 325.642 185.878 328.782 185.878C330.342 185.878 331.542 185.378 332.662 184.178L331.482 183.118C330.642 184.018 329.802 184.298 328.802 184.298C326.982 184.298 325.922 183.158 325.862 181.278H332.922C332.962 181.018 332.982 180.678 332.982 180.398ZM325.862 179.878C325.982 178.398 326.922 177.098 328.602 177.098C330.262 177.098 331.262 178.178 331.322 179.698C331.322 179.778 331.322 179.838 331.342 179.878H325.862ZM335.428 180.298H340.908V178.978H335.428V180.298ZM87.14 203.658C85.72 203.658 84.6 204.238 83.92 205.578C83.38 204.198 82.3 203.658 81.02 203.658C79.96 203.658 78.96 204.038 78.34 205.058V203.838H76.66L76.68 213.698H78.4V209.278C78.4 207.138 78.74 205.178 80.7 205.178C82.36 205.178 82.74 206.698 82.74 208.038V213.698H84.46V209.278C84.46 207.138 84.78 205.178 86.8 205.178C88.76 205.178 88.8 207.178 88.8 207.998V213.698H90.52V207.498C90.52 205.298 89.5 203.658 87.14 203.658ZM93.5331 201.858H95.4531V199.758H93.5331V201.858ZM93.6331 213.698H95.3531V203.838H93.6331V213.698ZM103.591 203.658C102.251 203.658 101.091 204.218 100.431 205.178V203.838H98.7112V213.698H100.431V209.438C100.431 206.998 101.151 205.178 103.131 205.178C104.731 205.178 105.191 206.338 105.191 207.978V213.698H106.911V207.558C106.911 205.018 105.751 203.658 103.591 203.658ZM116.699 199.758V205.078C116.019 204.178 114.879 203.658 113.579 203.658C110.939 203.658 109.259 205.638 109.259 208.758C109.259 211.698 110.759 213.878 113.579 213.878C114.879 213.878 115.999 213.398 116.699 212.478V213.698H118.419V199.758H116.699ZM113.899 212.318C111.959 212.318 110.979 210.858 110.979 208.758C110.979 206.598 112.039 205.198 113.899 205.198C115.799 205.198 116.839 206.658 116.839 208.758C116.839 210.798 115.859 212.318 113.899 212.318ZM129.818 208.398C129.818 205.998 128.478 203.658 125.458 203.658C122.458 203.658 120.978 206.098 120.978 208.818C120.978 211.558 122.478 213.878 125.618 213.878C127.178 213.878 128.378 213.378 129.498 212.178L128.318 211.118C127.478 212.018 126.638 212.298 125.638 212.298C123.818 212.298 122.758 211.158 122.698 209.278H129.758C129.798 209.018 129.818 208.678 129.818 208.398ZM122.698 207.878C122.818 206.398 123.758 205.098 125.438 205.098C127.098 205.098 128.098 206.178 128.158 207.698C128.158 207.778 128.158 207.838 128.178 207.878H122.698ZM139.004 199.758V205.078C138.324 204.178 137.184 203.658 135.884 203.658C133.244 203.658 131.564 205.638 131.564 208.758C131.564 211.698 133.064 213.878 135.884 213.878C137.184 213.878 138.304 213.398 139.004 212.478V213.698H140.724V199.758H139.004ZM136.204 212.318C134.264 212.318 133.284 210.858 133.284 208.758C133.284 206.598 134.344 205.198 136.204 205.198C138.104 205.198 139.144 206.658 139.144 208.758C139.144 210.798 138.164 212.318 136.204 212.318ZM143.922 216.758H145.082L147.682 211.118H145.562L143.922 216.758ZM159.541 213.878C161.381 213.878 162.841 212.878 163.501 211.078L161.921 210.478C161.581 211.658 160.681 212.358 159.521 212.358C157.561 212.358 156.721 210.658 156.721 208.798C156.721 206.938 157.561 205.178 159.521 205.178C160.661 205.178 161.561 205.898 161.961 207.098L163.601 206.438C162.821 204.558 161.341 203.658 159.521 203.658C156.461 203.658 154.961 206.198 154.961 208.798C154.961 211.498 156.561 213.878 159.541 213.878ZM170.42 203.658C169.38 203.658 168.2 204.118 167.58 205.378V203.838H165.86V213.698H167.58V208.378C167.58 206.338 168.56 205.278 170.06 205.278C170.5 205.278 170.92 205.378 171.34 205.578L172.18 204.138C171.6 203.798 171.04 203.658 170.42 203.658ZM181.224 208.398C181.224 205.998 179.884 203.658 176.864 203.658C173.864 203.658 172.384 206.098 172.384 208.818C172.384 211.558 173.884 213.878 177.024 213.878C178.584 213.878 179.784 213.378 180.904 212.178L179.724 211.118C178.884 212.018 178.044 212.298 177.044 212.298C175.224 212.298 174.164 211.158 174.104 209.278H181.164C181.204 209.018 181.224 208.678 181.224 208.398ZM174.104 207.878C174.224 206.398 175.164 205.098 176.844 205.098C178.504 205.098 179.504 206.178 179.564 207.698C179.564 207.778 179.564 207.838 179.584 207.878H174.104ZM187.31 203.658C185.59 203.658 184.25 204.318 183.15 205.718L184.39 206.758C185.17 205.718 186.11 205.178 187.27 205.178C188.77 205.178 189.61 206.018 189.61 207.538V207.938H187.43C185.77 207.938 184.79 208.098 184.05 208.498C183.25 208.938 182.81 209.738 182.81 210.778C182.81 212.678 184.15 213.878 186.27 213.878C187.75 213.878 188.93 213.278 189.63 212.218L189.75 213.698H191.33V207.538C191.33 205.098 189.83 203.658 187.31 203.658ZM186.67 212.438C185.35 212.438 184.53 211.818 184.53 210.858C184.53 210.358 184.71 209.978 185.03 209.718C185.45 209.398 186.13 209.278 187.63 209.278H189.61V209.378C189.61 211.198 188.41 212.438 186.67 212.438ZM198.875 205.238V203.838H196.455V200.218L194.735 201.498V203.838H193.115V205.238H194.735V211.238C194.735 213.098 195.855 213.878 197.275 213.878C197.795 213.878 198.335 213.778 198.875 213.598V212.138C198.435 212.278 198.035 212.358 197.695 212.358C196.915 212.358 196.455 211.958 196.455 211.058V205.238H198.875ZM201.228 201.858H203.148V199.758H201.228V201.858ZM201.328 213.698H203.048V203.838H201.328V213.698ZM208.987 213.698H210.427L214.467 203.838H212.587L209.687 211.478L206.827 203.838H204.967L208.987 213.698ZM224.115 208.398C224.115 205.998 222.775 203.658 219.755 203.658C216.755 203.658 215.275 206.098 215.275 208.818C215.275 211.558 216.775 213.878 219.915 213.878C221.475 213.878 222.675 213.378 223.795 212.178L222.615 211.118C221.775 212.018 220.935 212.298 219.935 212.298C218.115 212.298 217.055 211.158 216.995 209.278H224.055C224.095 209.018 224.115 208.678 224.115 208.398ZM216.995 207.878C217.115 206.398 218.055 205.098 219.735 205.098C221.395 205.098 222.395 206.178 222.455 207.698C222.455 207.778 222.455 207.838 222.475 207.878H216.995ZM226.481 216.758H227.641L230.241 211.118H228.121L226.481 216.758ZM241.92 203.658C240.2 203.658 238.86 204.318 237.76 205.718L239 206.758C239.78 205.718 240.72 205.178 241.88 205.178C243.38 205.178 244.22 206.018 244.22 207.538V207.938H242.04C240.38 207.938 239.4 208.098 238.66 208.498C237.86 208.938 237.42 209.738 237.42 210.778C237.42 212.678 238.76 213.878 240.88 213.878C242.36 213.878 243.54 213.278 244.24 212.218L244.36 213.698H245.94V207.538C245.94 205.098 244.44 203.658 241.92 203.658ZM241.28 212.438C239.96 212.438 239.14 211.818 239.14 210.858C239.14 210.358 239.32 209.978 239.64 209.718C240.06 209.398 240.74 209.278 242.24 209.278H244.22V209.378C244.22 211.198 243.02 212.438 241.28 212.438ZM253.904 203.658C252.564 203.658 251.404 204.218 250.744 205.178V203.838H249.024V213.698H250.744V209.438C250.744 206.998 251.464 205.178 253.444 205.178C255.044 205.178 255.504 206.338 255.504 207.978V213.698H257.224V207.558C257.224 205.018 256.064 203.658 253.904 203.658ZM267.012 199.758V205.078C266.332 204.178 265.192 203.658 263.892 203.658C261.252 203.658 259.572 205.638 259.572 208.758C259.572 211.698 261.072 213.878 263.892 213.878C265.192 213.878 266.312 213.398 267.012 212.478V213.698H268.732V199.758H267.012ZM264.212 212.318C262.272 212.318 261.292 210.858 261.292 208.758C261.292 206.598 262.352 205.198 264.212 205.198C266.112 205.198 267.152 206.658 267.152 208.758C267.152 210.798 266.172 212.318 264.212 212.318ZM282.184 203.658C280.904 203.658 279.784 204.118 279.064 205.058V203.838H277.344V217.778H279.064V212.458C279.724 213.338 280.864 213.878 282.184 213.878C284.924 213.878 286.504 211.798 286.504 208.758C286.504 205.718 284.904 203.658 282.184 203.658ZM281.864 212.358C279.904 212.358 278.924 210.818 278.924 208.758C278.924 206.618 279.964 205.158 281.864 205.158C283.724 205.158 284.784 206.558 284.784 208.758C284.784 210.898 283.784 212.358 281.864 212.358ZM292.642 203.658C290.922 203.658 289.582 204.318 288.482 205.718L289.722 206.758C290.502 205.718 291.442 205.178 292.602 205.178C294.102 205.178 294.942 206.018 294.942 207.538V207.938H292.762C291.102 207.938 290.122 208.098 289.382 208.498C288.582 208.938 288.142 209.738 288.142 210.778C288.142 212.678 289.482 213.878 291.602 213.878C293.082 213.878 294.262 213.278 294.962 212.218L295.082 213.698H296.662V207.538C296.662 205.098 295.162 203.658 292.642 203.658ZM292.002 212.438C290.682 212.438 289.862 211.818 289.862 210.858C289.862 210.358 290.042 209.978 290.362 209.718C290.782 209.398 291.462 209.278 292.962 209.278H294.942V209.378C294.942 211.198 293.742 212.438 292.002 212.438ZM302.766 213.878C304.646 213.878 306.406 212.878 306.406 210.778C306.406 207.078 300.886 208.358 300.886 206.298C300.886 205.578 301.566 205.118 302.646 205.118C303.806 205.118 304.506 205.698 304.946 206.498L306.306 205.758C305.606 204.378 304.306 203.658 302.686 203.658C300.746 203.658 299.226 204.698 299.226 206.478C299.226 210.038 304.706 208.578 304.706 210.878C304.706 211.738 303.986 212.398 302.706 212.398C301.246 212.398 300.426 211.518 300.106 210.598L298.686 211.238C299.206 212.778 300.786 213.878 302.766 213.878ZM311.966 213.878C313.846 213.878 315.606 212.878 315.606 210.778C315.606 207.078 310.086 208.358 310.086 206.298C310.086 205.578 310.766 205.118 311.846 205.118C313.006 205.118 313.706 205.698 314.146 206.498L315.506 205.758C314.806 204.378 313.506 203.658 311.886 203.658C309.946 203.658 308.426 204.698 308.426 206.478C308.426 210.038 313.906 208.578 313.906 210.878C313.906 211.738 313.186 212.398 311.906 212.398C310.446 212.398 309.626 211.518 309.306 210.598L307.886 211.238C308.406 212.778 309.986 213.878 311.966 213.878ZM318.045 201.858H319.965V199.758H318.045V201.858ZM318.145 213.698H319.865V203.838H318.145V213.698ZM327.143 213.878C330.043 213.878 331.963 211.618 331.963 208.758C331.963 205.878 330.023 203.658 327.143 203.658C324.243 203.658 322.363 205.878 322.363 208.758C322.363 211.638 324.243 213.878 327.143 213.878ZM327.143 212.358C325.143 212.358 324.083 210.778 324.083 208.758C324.083 206.738 325.123 205.178 327.143 205.178C329.163 205.178 330.243 206.718 330.243 208.758C330.243 210.758 329.163 212.358 327.143 212.358ZM339.314 203.658C337.974 203.658 336.814 204.218 336.154 205.178V203.838H334.434V213.698H336.154V209.438C336.154 206.998 336.874 205.178 338.854 205.178C340.454 205.178 340.914 206.338 340.914 207.978V213.698H342.634V207.558C342.634 205.018 341.474 203.658 339.314 203.658ZM349.322 203.658C347.602 203.658 346.262 204.318 345.162 205.718L346.402 206.758C347.182 205.718 348.122 205.178 349.282 205.178C350.782 205.178 351.622 206.018 351.622 207.538V207.938H349.442C347.782 207.938 346.802 208.098 346.062 208.498C345.262 208.938 344.822 209.738 344.822 210.778C344.822 212.678 346.162 213.878 348.282 213.878C349.762 213.878 350.942 213.278 351.642 212.218L351.762 213.698H353.342V207.538C353.342 205.098 351.842 203.658 349.322 203.658ZM348.682 212.438C347.362 212.438 346.542 211.818 346.542 210.858C346.542 210.358 346.722 209.978 347.042 209.718C347.462 209.398 348.142 209.278 349.642 209.278H351.622V209.378C351.622 211.198 350.422 212.438 348.682 212.438ZM360.887 205.238V203.838H358.467V200.218L356.747 201.498V203.838H355.127V205.238H356.747V211.238C356.747 213.098 357.867 213.878 359.287 213.878C359.807 213.878 360.347 213.778 360.887 213.598V212.138C360.447 212.278 360.047 212.358 359.707 212.358C358.927 212.358 358.467 211.958 358.467 211.058V205.238H360.887ZM371.282 208.398C371.282 205.998 369.942 203.658 366.922 203.658C363.922 203.658 362.442 206.098 362.442 208.818C362.442 211.558 363.942 213.878 367.082 213.878C368.642 213.878 369.842 213.378 370.962 212.178L369.782 211.118C368.942 212.018 368.102 212.298 367.102 212.298C365.282 212.298 364.222 211.158 364.162 209.278H371.222C371.262 209.018 371.282 208.678 371.282 208.398ZM364.162 207.878C364.282 206.398 365.222 205.098 366.902 205.098C368.562 205.098 369.562 206.178 369.622 207.698C369.622 207.778 369.622 207.838 369.642 207.878H364.162ZM76.58 229.858H78.5V227.758H76.58V229.858ZM76.68 241.698H78.4V231.838H76.68V241.698ZM86.6381 231.658C85.2981 231.658 84.1381 232.218 83.4781 233.178V231.838H81.7581V241.698H83.4781V237.438C83.4781 234.998 84.1981 233.178 86.1781 233.178C87.7781 233.178 88.2381 234.338 88.2381 235.978V241.698H89.9581V235.558C89.9581 233.018 88.7981 231.658 86.6381 231.658ZM99.7462 227.758V233.078C99.0662 232.178 97.9262 231.658 96.6262 231.658C93.9862 231.658 92.3062 233.638 92.3062 236.758C92.3062 239.698 93.8062 241.878 96.6262 241.878C97.9262 241.878 99.0462 241.398 99.7462 240.478V241.698H101.466V227.758H99.7462ZM96.9462 240.318C95.0062 240.318 94.0262 238.858 94.0262 236.758C94.0262 234.598 95.0862 233.198 96.9462 233.198C98.8462 233.198 99.8862 234.658 99.8862 236.758C99.8862 238.798 98.9062 240.318 96.9462 240.318ZM104.725 229.858H106.645V227.758H104.725V229.858ZM104.825 241.698H106.545V231.838H104.825V241.698ZM112.483 241.698H113.923L117.963 231.838H116.083L113.183 239.478L110.323 231.838H108.463L112.483 241.698ZM119.764 229.858H121.684V227.758H119.764V229.858ZM119.864 241.698H121.584V231.838H119.864V241.698ZM131.602 227.758V233.078C130.922 232.178 129.782 231.658 128.482 231.658C125.842 231.658 124.162 233.638 124.162 236.758C124.162 239.698 125.662 241.878 128.482 241.878C129.782 241.878 130.902 241.398 131.602 240.478V241.698H133.322V227.758H131.602ZM128.802 240.318C126.862 240.318 125.882 238.858 125.882 236.758C125.882 234.598 126.942 233.198 128.802 233.198C130.702 233.198 131.742 234.658 131.742 236.758C131.742 238.798 130.762 240.318 128.802 240.318ZM142.842 231.838V236.118C142.842 238.398 142.182 240.358 140.122 240.358C138.262 240.358 138.082 238.778 138.082 237.498V231.838H136.362V237.918C136.362 240.238 137.362 241.878 139.682 241.878C140.922 241.878 142.142 241.398 142.842 240.358V241.698H144.562V231.838H142.842ZM151.49 231.658C149.77 231.658 148.43 232.318 147.33 233.718L148.57 234.758C149.35 233.718 150.29 233.178 151.45 233.178C152.95 233.178 153.79 234.018 153.79 235.538V235.938H151.61C149.95 235.938 148.97 236.098 148.23 236.498C147.43 236.938 146.99 237.738 146.99 238.778C146.99 240.678 148.33 241.878 150.45 241.878C151.93 241.878 153.11 241.278 153.81 240.218L153.93 241.698H155.51V235.538C155.51 233.098 154.01 231.658 151.49 231.658ZM150.85 240.438C149.53 240.438 148.71 239.818 148.71 238.858C148.71 238.358 148.89 237.978 149.21 237.718C149.63 237.398 150.31 237.278 151.81 237.278H153.79V237.378C153.79 239.198 152.59 240.438 150.85 240.438ZM160.534 241.878C160.974 241.878 161.494 241.758 161.954 241.598L161.934 240.178C161.654 240.258 161.334 240.338 161.054 240.338C160.474 240.338 160.234 239.978 160.234 239.378V227.758H158.514V239.478C158.514 241.098 159.334 241.878 160.534 241.878ZM167.083 241.878C168.963 241.878 170.723 240.878 170.723 238.778C170.723 235.078 165.203 236.358 165.203 234.298C165.203 233.578 165.883 233.118 166.963 233.118C168.123 233.118 168.823 233.698 169.263 234.498L170.623 233.758C169.923 232.378 168.623 231.658 167.003 231.658C165.063 231.658 163.543 232.698 163.543 234.478C163.543 238.038 169.023 236.578 169.023 238.878C169.023 239.738 168.303 240.398 167.023 240.398C165.563 240.398 164.743 239.518 164.423 238.598L163.003 239.238C163.523 240.778 165.103 241.878 167.083 241.878ZM173.902 241.698H175.902V239.358H173.902V241.698ZM185.577 241.698H190.537C193.397 241.698 195.037 240.258 195.037 237.738C195.037 235.918 194.177 234.698 192.557 234.238C193.677 233.718 194.297 232.638 194.297 231.258C194.297 229.058 192.737 227.758 190.057 227.758H185.577V241.698ZM187.357 233.658V229.398H190.057C191.617 229.398 192.517 230.198 192.517 231.558C192.517 232.878 191.697 233.658 190.237 233.658H187.357ZM187.357 240.058V235.258H190.657C192.317 235.258 193.237 236.098 193.237 237.598C193.237 239.158 192.217 240.058 190.417 240.058H187.357ZM203.779 231.838V236.118C203.779 238.398 203.119 240.358 201.059 240.358C199.199 240.358 199.019 238.778 199.019 237.498V231.838H197.299V237.918C197.299 240.238 198.299 241.878 200.619 241.878C201.859 241.878 203.079 241.398 203.779 240.358V241.698H205.499V231.838H203.779ZM208.767 229.858H210.687V227.758H208.767V229.858ZM208.867 241.698H210.587V231.838H208.867V241.698ZM215.886 241.878C216.326 241.878 216.846 241.758 217.306 241.598L217.286 240.178C217.006 240.258 216.686 240.338 216.406 240.338C215.826 240.338 215.586 239.978 215.586 239.378V227.758H213.866V239.478C213.866 241.098 214.686 241.878 215.886 241.878ZM226.074 227.758V233.078C225.394 232.178 224.254 231.658 222.954 231.658C220.314 231.658 218.634 233.638 218.634 236.758C218.634 239.698 220.134 241.878 222.954 241.878C224.254 241.878 225.374 241.398 226.074 240.478V241.698H227.794V227.758H226.074ZM223.274 240.318C221.334 240.318 220.354 238.858 220.354 236.758C220.354 234.598 221.414 233.198 223.274 233.198C225.174 233.198 226.214 234.658 226.214 236.758C226.214 238.798 225.234 240.318 223.274 240.318ZM238.347 241.878C238.787 241.878 239.307 241.758 239.767 241.598L239.747 240.178C239.467 240.258 239.147 240.338 238.867 240.338C238.287 240.338 238.047 239.978 238.047 239.378V227.758H236.327V239.478C236.327 241.098 237.147 241.878 238.347 241.878ZM245.416 231.658C243.696 231.658 242.356 232.318 241.256 233.718L242.496 234.758C243.276 233.718 244.216 233.178 245.376 233.178C246.876 233.178 247.716 234.018 247.716 235.538V235.938H245.536C243.876 235.938 242.896 236.098 242.156 236.498C241.356 236.938 240.916 237.738 240.916 238.778C240.916 240.678 242.256 241.878 244.376 241.878C245.856 241.878 247.036 241.278 247.736 240.218L247.856 241.698H249.436V235.538C249.436 233.098 247.936 231.658 245.416 231.658ZM244.776 240.438C243.456 240.438 242.636 239.818 242.636 238.858C242.636 238.358 242.816 237.978 243.136 237.718C243.556 237.398 244.236 237.278 245.736 237.278H247.716V237.378C247.716 239.198 246.516 240.438 244.776 240.438ZM255.54 241.878C257.42 241.878 259.18 240.878 259.18 238.778C259.18 235.078 253.66 236.358 253.66 234.298C253.66 233.578 254.34 233.118 255.42 233.118C256.58 233.118 257.28 233.698 257.72 234.498L259.08 233.758C258.38 232.378 257.08 231.658 255.46 231.658C253.52 231.658 252 232.698 252 234.478C252 238.038 257.48 236.578 257.48 238.878C257.48 239.738 256.76 240.398 255.48 240.398C254.02 240.398 253.2 239.518 252.88 238.598L251.46 239.238C251.98 240.778 253.56 241.878 255.54 241.878ZM266.199 233.238V231.838H263.779V228.218L262.059 229.498V231.838H260.439V233.238H262.059V239.238C262.059 241.098 263.179 241.878 264.599 241.878C265.119 241.878 265.659 241.778 266.199 241.598V240.138C265.759 240.278 265.359 240.358 265.019 240.358C264.239 240.358 263.779 239.958 263.779 239.058V233.238H266.199ZM268.553 229.858H270.473V227.758H268.553V229.858ZM268.653 241.698H270.373V231.838H268.653V241.698ZM278.611 231.658C277.271 231.658 276.111 232.218 275.451 233.178V231.838H273.731V241.698H275.451V237.438C275.451 234.998 276.171 233.178 278.151 233.178C279.751 233.178 280.211 234.338 280.211 235.978V241.698H281.931V235.558C281.931 233.018 280.771 231.658 278.611 231.658ZM288.579 240.398C287.219 240.198 286.059 239.978 286.059 239.058C286.059 238.698 286.239 238.418 286.599 238.218C287.159 238.518 287.839 238.678 288.579 238.678C290.679 238.678 292.399 237.318 292.399 235.238C292.399 234.558 292.219 233.938 291.899 233.418L293.259 232.298L292.359 231.198L290.959 232.398C290.299 231.938 289.479 231.658 288.539 231.658C286.399 231.658 284.679 233.098 284.679 235.158C284.679 236.018 284.979 236.798 285.519 237.398C284.859 237.878 284.499 238.478 284.499 239.318C284.499 240.318 285.019 240.898 285.759 241.258L284.199 242.438C284.179 242.558 284.159 242.678 284.159 242.878C284.159 244.878 285.839 245.958 288.639 245.958C291.179 245.958 292.959 245.078 292.959 243.158C292.959 240.938 290.559 240.678 288.579 240.398ZM288.559 233.098C289.859 233.098 290.679 233.958 290.679 235.198C290.679 236.378 289.899 237.278 288.559 237.278C287.199 237.278 286.399 236.358 286.399 235.198C286.399 233.958 287.299 233.098 288.559 233.098ZM288.719 244.578C287.219 244.578 285.859 244.198 285.859 242.978C285.859 242.938 285.859 242.898 285.879 242.818L287.059 241.678C287.439 241.758 287.839 241.818 288.219 241.878C289.779 242.118 291.239 242.258 291.239 243.318C291.239 244.178 290.219 244.578 288.719 244.578ZM305.524 231.658C304.224 231.658 303.084 232.178 302.404 233.078V227.758H300.684V241.698H302.404V240.478C303.104 241.398 304.224 241.878 305.524 241.878C308.344 241.878 309.844 239.698 309.844 236.758C309.844 233.638 308.164 231.658 305.524 231.658ZM305.204 240.318C303.244 240.318 302.264 238.798 302.264 236.758C302.264 234.658 303.304 233.198 305.204 233.198C307.064 233.198 308.124 234.598 308.124 236.758C308.124 238.858 307.144 240.318 305.204 240.318ZM316.342 241.878C319.242 241.878 321.162 239.618 321.162 236.758C321.162 233.878 319.222 231.658 316.342 231.658C313.442 231.658 311.562 233.878 311.562 236.758C311.562 239.638 313.442 241.878 316.342 241.878ZM316.342 240.358C314.342 240.358 313.282 238.778 313.282 236.758C313.282 234.738 314.322 233.178 316.342 233.178C318.362 233.178 319.442 234.718 319.442 236.758C319.442 238.758 318.362 240.358 316.342 240.358ZM328.513 231.658C327.173 231.658 326.013 232.218 325.353 233.178V231.838H323.633V241.698H325.353V237.438C325.353 234.998 326.073 233.178 328.053 233.178C329.653 233.178 330.113 234.338 330.113 235.978V241.698H331.833V235.558C331.833 233.018 330.673 231.658 328.513 231.658ZM341.621 227.758V233.078C340.941 232.178 339.801 231.658 338.501 231.658C335.861 231.658 334.181 233.638 334.181 236.758C334.181 239.698 335.681 241.878 338.501 241.878C339.801 241.878 340.921 241.398 341.621 240.478V241.698H343.341V227.758H341.621ZM338.821 240.318C336.881 240.318 335.901 238.858 335.901 236.758C335.901 234.598 336.961 233.198 338.821 233.198C340.721 233.198 341.761 234.658 341.761 236.758C341.761 238.798 340.781 240.318 338.821 240.318ZM349.72 241.878C351.6 241.878 353.36 240.878 353.36 238.778C353.36 235.078 347.84 236.358 347.84 234.298C347.84 233.578 348.52 233.118 349.6 233.118C350.76 233.118 351.46 233.698 351.9 234.498L353.26 233.758C352.56 232.378 351.26 231.658 349.64 231.658C347.7 231.658 346.18 232.698 346.18 234.478C346.18 238.038 351.66 236.578 351.66 238.878C351.66 239.738 350.94 240.398 349.66 240.398C348.2 240.398 347.38 239.518 347.06 238.598L345.64 239.238C346.16 240.778 347.74 241.878 349.72 241.878ZM355.739 244.758H356.899L359.499 239.118H357.379L355.739 244.758ZM79.7 269.878C81.58 269.878 83.34 268.878 83.34 266.778C83.34 263.078 77.82 264.358 77.82 262.298C77.82 261.578 78.5 261.118 79.58 261.118C80.74 261.118 81.44 261.698 81.88 262.498L83.24 261.758C82.54 260.378 81.24 259.658 79.62 259.658C77.68 259.658 76.16 260.698 76.16 262.478C76.16 266.038 81.64 264.578 81.64 266.878C81.64 267.738 80.92 268.398 79.64 268.398C78.18 268.398 77.36 267.518 77.04 266.598L75.62 267.238C76.14 268.778 77.72 269.878 79.7 269.878ZM90.7792 259.658C89.3992 259.658 88.2592 260.218 87.5992 261.178V255.758H85.8792V269.698H87.5992V265.358C87.5992 262.598 88.5392 261.178 90.3192 261.178C91.7192 261.178 92.3592 262.058 92.3592 263.978V269.698H94.0792V263.558C94.0792 261.018 92.9192 259.658 90.7792 259.658ZM100.767 259.658C99.0473 259.658 97.7073 260.318 96.6073 261.718L97.8473 262.758C98.6273 261.718 99.5673 261.178 100.727 261.178C102.227 261.178 103.067 262.018 103.067 263.538V263.938H100.887C99.2273 263.938 98.2473 264.098 97.5073 264.498C96.7073 264.938 96.2673 265.738 96.2673 266.778C96.2673 268.678 97.6073 269.878 99.7273 269.878C101.207 269.878 102.387 269.278 103.087 268.218L103.207 269.698H104.787V263.538C104.787 261.098 103.287 259.658 100.767 259.658ZM100.127 268.438C98.8073 268.438 97.9873 267.818 97.9873 266.858C97.9873 266.358 98.1673 265.978 98.4873 265.718C98.9073 265.398 99.5873 265.278 101.087 265.278H103.067V265.378C103.067 267.198 101.867 268.438 100.127 268.438ZM112.431 259.658C111.391 259.658 110.211 260.118 109.591 261.378V259.838H107.871V269.698H109.591V264.378C109.591 262.338 110.571 261.278 112.071 261.278C112.511 261.278 112.931 261.378 113.351 261.578L114.191 260.138C113.611 259.798 113.051 259.658 112.431 259.658ZM123.236 264.398C123.236 261.998 121.896 259.658 118.876 259.658C115.876 259.658 114.396 262.098 114.396 264.818C114.396 267.558 115.896 269.878 119.036 269.878C120.596 269.878 121.796 269.378 122.916 268.178L121.736 267.118C120.896 268.018 120.056 268.298 119.056 268.298C117.236 268.298 116.176 267.158 116.116 265.278H123.176C123.216 265.018 123.236 264.678 123.236 264.398ZM116.116 263.878C116.236 262.398 117.176 261.098 118.856 261.098C120.516 261.098 121.516 262.178 121.576 263.698C121.576 263.778 121.576 263.838 121.596 263.878H116.116ZM139.056 264.398C139.056 261.998 137.716 259.658 134.696 259.658C131.696 259.658 130.216 262.098 130.216 264.818C130.216 267.558 131.716 269.878 134.856 269.878C136.416 269.878 137.616 269.378 138.736 268.178L137.556 267.118C136.716 268.018 135.876 268.298 134.876 268.298C133.056 268.298 131.996 267.158 131.936 265.278H138.996C139.036 265.018 139.056 264.678 139.056 264.398ZM131.936 263.878C132.056 262.398 132.996 261.098 134.676 261.098C136.336 261.098 137.336 262.178 137.396 263.698C137.396 263.778 137.396 263.838 137.416 263.878H131.936ZM140.262 269.698H142.382L144.942 265.918L147.502 269.698H149.622L146.062 264.758L149.602 259.838H147.502L144.942 263.558L142.362 259.838H140.262L143.802 264.758L140.262 269.698ZM156.481 259.658C155.201 259.658 154.081 260.118 153.361 261.058V259.838H151.641V273.778H153.361V268.458C154.021 269.338 155.161 269.878 156.481 269.878C159.221 269.878 160.801 267.798 160.801 264.758C160.801 261.718 159.201 259.658 156.481 259.658ZM156.161 268.358C154.201 268.358 153.221 266.818 153.221 264.758C153.221 262.618 154.261 261.158 156.161 261.158C158.021 261.158 159.081 262.558 159.081 264.758C159.081 266.898 158.081 268.358 156.161 268.358ZM171.419 264.398C171.419 261.998 170.079 259.658 167.059 259.658C164.059 259.658 162.579 262.098 162.579 264.818C162.579 267.558 164.079 269.878 167.219 269.878C168.779 269.878 169.979 269.378 171.099 268.178L169.919 267.118C169.079 268.018 168.239 268.298 167.239 268.298C165.419 268.298 164.359 267.158 164.299 265.278H171.359C171.399 265.018 171.419 264.678 171.419 264.398ZM164.299 263.878C164.419 262.398 165.359 261.098 167.039 261.098C168.699 261.098 169.699 262.178 169.759 263.698C169.759 263.778 169.759 263.838 169.779 263.878H164.299ZM178.506 259.658C177.466 259.658 176.286 260.118 175.666 261.378V259.838H173.946V269.698H175.666V264.378C175.666 262.338 176.646 261.278 178.146 261.278C178.586 261.278 179.006 261.378 179.426 261.578L180.266 260.138C179.686 259.798 179.126 259.658 178.506 259.658ZM181.932 257.858H183.852V255.758H181.932V257.858ZM182.032 269.698H183.752V259.838H182.032V269.698ZM195.15 264.398C195.15 261.998 193.81 259.658 190.79 259.658C187.79 259.658 186.31 262.098 186.31 264.818C186.31 267.558 187.81 269.878 190.95 269.878C192.51 269.878 193.71 269.378 194.83 268.178L193.65 267.118C192.81 268.018 191.97 268.298 190.97 268.298C189.15 268.298 188.09 267.158 188.03 265.278H195.09C195.13 265.018 195.15 264.678 195.15 264.398ZM188.03 263.878C188.15 262.398 189.09 261.098 190.77 261.098C192.43 261.098 193.43 262.178 193.49 263.698C193.49 263.778 193.49 263.838 193.51 263.878H188.03ZM202.556 259.658C201.216 259.658 200.056 260.218 199.396 261.178V259.838H197.676V269.698H199.396V265.438C199.396 262.998 200.116 261.178 202.096 261.178C203.696 261.178 204.156 262.338 204.156 263.978V269.698H205.876V263.558C205.876 261.018 204.716 259.658 202.556 259.658ZM212.744 269.878C214.584 269.878 216.044 268.878 216.704 267.078L215.124 266.478C214.784 267.658 213.884 268.358 212.724 268.358C210.764 268.358 209.924 266.658 209.924 264.798C209.924 262.938 210.764 261.178 212.724 261.178C213.864 261.178 214.764 261.898 215.164 263.098L216.804 262.438C216.024 260.558 214.544 259.658 212.724 259.658C209.664 259.658 208.164 262.198 208.164 264.798C208.164 267.498 209.764 269.878 212.744 269.878ZM227.005 264.398C227.005 261.998 225.665 259.658 222.645 259.658C219.645 259.658 218.165 262.098 218.165 264.818C218.165 267.558 219.665 269.878 222.805 269.878C224.365 269.878 225.565 269.378 226.685 268.178L225.505 267.118C224.665 268.018 223.825 268.298 222.825 268.298C221.005 268.298 219.945 267.158 219.885 265.278H226.945C226.985 265.018 227.005 264.678 227.005 264.398ZM219.885 263.878C220.005 262.398 220.945 261.098 222.625 261.098C224.285 261.098 225.285 262.178 225.345 263.698C225.345 263.778 225.345 263.838 225.365 263.878H219.885ZM232.552 269.878C234.432 269.878 236.192 268.878 236.192 266.778C236.192 263.078 230.672 264.358 230.672 262.298C230.672 261.578 231.352 261.118 232.432 261.118C233.592 261.118 234.292 261.698 234.732 262.498L236.092 261.758C235.392 260.378 234.092 259.658 232.472 259.658C230.532 259.658 229.012 260.698 229.012 262.478C229.012 266.038 234.492 264.578 234.492 266.878C234.492 267.738 233.772 268.398 232.492 268.398C231.032 268.398 230.212 267.518 229.892 266.598L228.472 267.238C228.992 268.778 230.572 269.878 232.552 269.878ZM238.571 272.758H239.731L242.331 267.118H240.211L238.571 272.758ZM254.01 259.658C252.29 259.658 250.95 260.318 249.85 261.718L251.09 262.758C251.87 261.718 252.81 261.178 253.97 261.178C255.47 261.178 256.31 262.018 256.31 263.538V263.938H254.13C252.47 263.938 251.49 264.098 250.75 264.498C249.95 264.938 249.51 265.738 249.51 266.778C249.51 268.678 250.85 269.878 252.97 269.878C254.45 269.878 255.63 269.278 256.33 268.218L256.45 269.698H258.03V263.538C258.03 261.098 256.53 259.658 254.01 259.658ZM253.37 268.438C252.05 268.438 251.23 267.818 251.23 266.858C251.23 266.358 251.41 265.978 251.73 265.718C252.15 265.398 252.83 265.278 254.33 265.278H256.31V265.378C256.31 267.198 255.11 268.438 253.37 268.438ZM265.994 259.658C264.654 259.658 263.494 260.218 262.834 261.178V259.838H261.114V269.698H262.834V265.438C262.834 262.998 263.554 261.178 265.534 261.178C267.134 261.178 267.594 262.338 267.594 263.978V269.698H269.314V263.558C269.314 261.018 268.154 259.658 265.994 259.658ZM279.102 255.758V261.078C278.422 260.178 277.282 259.658 275.982 259.658C273.342 259.658 271.662 261.638 271.662 264.758C271.662 267.698 273.162 269.878 275.982 269.878C277.282 269.878 278.402 269.398 279.102 268.478V269.698H280.822V255.758H279.102ZM276.302 268.318C274.362 268.318 273.382 266.858 273.382 264.758C273.382 262.598 274.442 261.198 276.302 261.198C278.202 261.198 279.242 262.658 279.242 264.758C279.242 266.798 278.262 268.318 276.302 268.318ZM293.174 269.878C295.014 269.878 296.474 268.878 297.134 267.078L295.554 266.478C295.214 267.658 294.314 268.358 293.154 268.358C291.194 268.358 290.354 266.658 290.354 264.798C290.354 262.938 291.194 261.178 293.154 261.178C294.294 261.178 295.194 261.898 295.594 263.098L297.234 262.438C296.454 260.558 294.974 259.658 293.154 259.658C290.094 259.658 288.594 262.198 288.594 264.798C288.594 267.498 290.194 269.878 293.174 269.878ZM304.052 259.658C303.012 259.658 301.832 260.118 301.212 261.378V259.838H299.492V269.698H301.212V264.378C301.212 262.338 302.192 261.278 303.692 261.278C304.132 261.278 304.552 261.378 304.972 261.578L305.812 260.138C305.232 259.798 304.672 259.658 304.052 259.658ZM314.857 264.398C314.857 261.998 313.517 259.658 310.497 259.658C307.497 259.658 306.017 262.098 306.017 264.818C306.017 267.558 307.517 269.878 310.657 269.878C312.217 269.878 313.417 269.378 314.537 268.178L313.357 267.118C312.517 268.018 311.677 268.298 310.677 268.298C308.857 268.298 307.797 267.158 307.737 265.278H314.797C314.837 265.018 314.857 264.678 314.857 264.398ZM307.737 263.878C307.857 262.398 308.797 261.098 310.477 261.098C312.137 261.098 313.137 262.178 313.197 263.698C313.197 263.778 313.197 263.838 313.217 263.878H307.737ZM320.943 259.658C319.223 259.658 317.883 260.318 316.783 261.718L318.023 262.758C318.803 261.718 319.743 261.178 320.903 261.178C322.403 261.178 323.243 262.018 323.243 263.538V263.938H321.063C319.403 263.938 318.423 264.098 317.683 264.498C316.883 264.938 316.443 265.738 316.443 266.778C316.443 268.678 317.783 269.878 319.903 269.878C321.383 269.878 322.563 269.278 323.263 268.218L323.383 269.698H324.963V263.538C324.963 261.098 323.463 259.658 320.943 259.658ZM320.303 268.438C318.983 268.438 318.163 267.818 318.163 266.858C318.163 266.358 318.343 265.978 318.663 265.718C319.083 265.398 319.763 265.278 321.263 265.278H323.243V265.378C323.243 267.198 322.043 268.438 320.303 268.438ZM332.508 261.238V259.838H330.088V256.218L328.368 257.498V259.838H326.748V261.238H328.368V267.238C328.368 269.098 329.488 269.878 330.908 269.878C331.428 269.878 331.968 269.778 332.508 269.598V268.138C332.068 268.278 331.668 268.358 331.328 268.358C330.548 268.358 330.088 267.958 330.088 267.058V261.238H332.508ZM342.904 264.398C342.904 261.998 341.564 259.658 338.544 259.658C335.544 259.658 334.064 262.098 334.064 264.818C334.064 267.558 335.564 269.878 338.704 269.878C340.264 269.878 341.464 269.378 342.584 268.178L341.404 267.118C340.564 268.018 339.724 268.298 338.724 268.298C336.904 268.298 335.844 267.158 335.784 265.278H342.844C342.884 265.018 342.904 264.678 342.904 264.398ZM335.784 263.878C335.904 262.398 336.844 261.098 338.524 261.098C340.184 261.098 341.184 262.178 341.244 263.698C341.244 263.778 341.244 263.838 341.264 263.878H335.784ZM87.14 287.658C85.72 287.658 84.6 288.238 83.92 289.578C83.38 288.198 82.3 287.658 81.02 287.658C79.96 287.658 78.96 288.038 78.34 289.058V287.838H76.66L76.68 297.698H78.4V293.278C78.4 291.138 78.74 289.178 80.7 289.178C82.36 289.178 82.74 290.698 82.74 292.038V297.698H84.46V293.278C84.46 291.138 84.78 289.178 86.8 289.178C88.76 289.178 88.8 291.178 88.8 291.998V297.698H90.52V291.498C90.52 289.298 89.5 287.658 87.14 287.658ZM101.673 292.398C101.673 289.998 100.333 287.658 97.3131 287.658C94.3131 287.658 92.8331 290.098 92.8331 292.818C92.8331 295.558 94.3331 297.878 97.4731 297.878C99.0331 297.878 100.233 297.378 101.353 296.178L100.173 295.118C99.3331 296.018 98.4931 296.298 97.4931 296.298C95.6731 296.298 94.6131 295.158 94.5531 293.278H101.613C101.653 293.018 101.673 292.678 101.673 292.398ZM94.5531 291.878C94.6731 290.398 95.6131 289.098 97.2931 289.098C98.9531 289.098 99.9531 290.178 100.013 291.698C100.013 291.778 100.013 291.838 100.033 291.878H94.5531ZM114.66 287.658C113.24 287.658 112.12 288.238 111.44 289.578C110.9 288.198 109.82 287.658 108.54 287.658C107.48 287.658 106.48 288.038 105.86 289.058V287.838H104.18L104.2 297.698H105.92V293.278C105.92 291.138 106.26 289.178 108.22 289.178C109.88 289.178 110.26 290.698 110.26 292.038V297.698H111.98V293.278C111.98 291.138 112.3 289.178 114.32 289.178C116.28 289.178 116.32 291.178 116.32 291.998V297.698H118.04V291.498C118.04 289.298 117.02 287.658 114.66 287.658ZM125.073 297.878C127.973 297.878 129.893 295.618 129.893 292.758C129.893 289.878 127.953 287.658 125.073 287.658C122.173 287.658 120.293 289.878 120.293 292.758C120.293 295.638 122.173 297.878 125.073 297.878ZM125.073 296.358C123.073 296.358 122.013 294.778 122.013 292.758C122.013 290.738 123.053 289.178 125.073 289.178C127.093 289.178 128.173 290.718 128.173 292.758C128.173 294.758 127.093 296.358 125.073 296.358ZM136.924 287.658C135.884 287.658 134.704 288.118 134.084 289.378V287.838H132.364V297.698H134.084V292.378C134.084 290.338 135.064 289.278 136.564 289.278C137.004 289.278 137.424 289.378 137.844 289.578L138.684 288.138C138.104 287.798 137.544 287.658 136.924 287.658ZM140.35 285.858H142.27V283.758H140.35V285.858ZM140.45 297.698H142.17V287.838H140.45V297.698ZM153.568 292.398C153.568 289.998 152.228 287.658 149.208 287.658C146.208 287.658 144.728 290.098 144.728 292.818C144.728 295.558 146.228 297.878 149.368 297.878C150.928 297.878 152.128 297.378 153.248 296.178L152.068 295.118C151.228 296.018 150.388 296.298 149.388 296.298C147.568 296.298 146.508 295.158 146.448 293.278H153.508C153.548 293.018 153.568 292.678 153.568 292.398ZM146.448 291.878C146.568 290.398 147.508 289.098 149.188 289.098C150.848 289.098 151.848 290.178 151.908 291.698C151.908 291.778 151.908 291.838 151.928 291.878H146.448ZM159.114 297.878C160.994 297.878 162.754 296.878 162.754 294.778C162.754 291.078 157.234 292.358 157.234 290.298C157.234 289.578 157.914 289.118 158.994 289.118C160.154 289.118 160.854 289.698 161.294 290.498L162.654 289.758C161.954 288.378 160.654 287.658 159.034 287.658C157.094 287.658 155.574 288.698 155.574 290.478C155.574 294.038 161.054 292.578 161.054 294.878C161.054 295.738 160.334 296.398 159.054 296.398C157.594 296.398 156.774 295.518 156.454 294.598L155.034 295.238C155.554 296.778 157.134 297.878 159.114 297.878ZM165.933 297.698H167.933V295.358H165.933V297.698ZM180.228 297.698H181.988L185.388 287.338L188.748 297.698H190.528L194.608 283.758H192.728L189.528 295.018L186.148 284.518H184.588L181.208 295.018L177.988 283.758H176.148L180.228 297.698ZM204.251 292.398C204.251 289.998 202.911 287.658 199.891 287.658C196.891 287.658 195.411 290.098 195.411 292.818C195.411 295.558 196.911 297.878 200.051 297.878C201.611 297.878 202.811 297.378 203.931 296.178L202.751 295.118C201.911 296.018 201.071 296.298 200.071 296.298C198.251 296.298 197.191 295.158 197.131 293.278H204.191C204.231 293.018 204.251 292.678 204.251 292.398ZM197.131 291.878C197.251 290.398 198.191 289.098 199.871 289.098C201.531 289.098 202.531 290.178 202.591 291.698C202.591 291.778 202.591 291.838 202.611 291.878H197.131ZM207.098 288.418H208.558V283.758H207.098V288.418ZM216.806 287.658C215.766 287.658 214.586 288.118 213.966 289.378V287.838H212.246V297.698H213.966V292.378C213.966 290.338 214.946 289.278 216.446 289.278C216.886 289.278 217.306 289.378 217.726 289.578L218.566 288.138C217.986 287.798 217.426 287.658 216.806 287.658ZM227.611 292.398C227.611 289.998 226.271 287.658 223.251 287.658C220.251 287.658 218.771 290.098 218.771 292.818C218.771 295.558 220.271 297.878 223.411 297.878C224.971 297.878 226.171 297.378 227.291 296.178L226.111 295.118C225.271 296.018 224.431 296.298 223.431 296.298C221.611 296.298 220.551 295.158 220.491 293.278H227.551C227.591 293.018 227.611 292.678 227.611 292.398ZM220.491 291.878C220.611 290.398 221.551 289.098 223.231 289.098C224.891 289.098 225.891 290.178 225.951 291.698C225.951 291.778 225.951 291.838 225.971 291.878H220.491ZM238.951 287.658C237.231 287.658 235.891 288.318 234.791 289.718L236.031 290.758C236.811 289.718 237.751 289.178 238.911 289.178C240.411 289.178 241.251 290.018 241.251 291.538V291.938H239.071C237.411 291.938 236.431 292.098 235.691 292.498C234.891 292.938 234.451 293.738 234.451 294.778C234.451 296.678 235.791 297.878 237.911 297.878C239.391 297.878 240.571 297.278 241.271 296.218L241.391 297.698H242.971V291.538C242.971 289.098 241.471 287.658 238.951 287.658ZM238.311 296.438C236.991 296.438 236.171 295.818 236.171 294.858C236.171 294.358 236.351 293.978 236.671 293.718C237.091 293.398 237.771 293.278 239.271 293.278H241.251V293.378C241.251 295.198 240.051 296.438 238.311 296.438ZM247.995 297.878C248.435 297.878 248.955 297.758 249.415 297.598L249.395 296.178C249.115 296.258 248.795 296.338 248.515 296.338C247.935 296.338 247.695 295.978 247.695 295.378V283.758H245.975V295.478C245.975 297.098 246.795 297.878 247.995 297.878ZM253.464 297.878C253.904 297.878 254.424 297.758 254.884 297.598L254.864 296.178C254.584 296.258 254.264 296.338 253.984 296.338C253.404 296.338 253.164 295.978 253.164 295.378V283.758H251.444V295.478C251.444 297.098 252.264 297.878 253.464 297.878ZM267.146 287.658C265.766 287.658 264.626 288.218 263.966 289.178V283.758H262.246V297.698H263.966V293.358C263.966 290.598 264.906 289.178 266.686 289.178C268.086 289.178 268.726 290.058 268.726 291.978V297.698H270.446V291.558C270.446 289.018 269.286 287.658 267.146 287.658ZM281.615 292.398C281.615 289.998 280.275 287.658 277.255 287.658C274.255 287.658 272.775 290.098 272.775 292.818C272.775 295.558 274.275 297.878 277.415 297.878C278.975 297.878 280.175 297.378 281.295 296.178L280.115 295.118C279.275 296.018 278.435 296.298 277.435 296.298C275.615 296.298 274.555 295.158 274.495 293.278H281.555C281.595 293.018 281.615 292.678 281.615 292.398ZM274.495 291.878C274.615 290.398 275.555 289.098 277.235 289.098C278.895 289.098 279.895 290.178 279.955 291.698C279.955 291.778 279.955 291.838 279.975 291.878H274.495ZM288.701 287.658C287.661 287.658 286.481 288.118 285.861 289.378V287.838H284.141V297.698H285.861V292.378C285.861 290.338 286.841 289.278 288.341 289.278C288.781 289.278 289.201 289.378 289.621 289.578L290.461 288.138C289.881 287.798 289.321 287.658 288.701 287.658ZM299.505 292.398C299.505 289.998 298.165 287.658 295.145 287.658C292.145 287.658 290.665 290.098 290.665 292.818C290.665 295.558 292.165 297.878 295.305 297.878C296.865 297.878 298.065 297.378 299.185 296.178L298.005 295.118C297.165 296.018 296.325 296.298 295.325 296.298C293.505 296.298 292.445 295.158 292.385 293.278H299.445C299.485 293.018 299.505 292.678 299.505 292.398ZM292.385 291.878C292.505 290.398 293.445 289.098 295.125 289.098C296.785 289.098 297.785 290.178 297.845 291.698C297.845 291.778 297.845 291.838 297.865 291.878H292.385ZM313.525 287.838V292.118C313.525 294.398 312.865 296.358 310.805 296.358C308.945 296.358 308.765 294.778 308.765 293.498V287.838H307.045V293.918C307.045 296.238 308.045 297.878 310.365 297.878C311.605 297.878 312.825 297.398 313.525 296.358V297.698H315.245V287.838H313.525ZM323.494 287.658C322.154 287.658 320.994 288.218 320.334 289.178V287.838H318.614V297.698H320.334V293.438C320.334 290.998 321.054 289.178 323.034 289.178C324.634 289.178 325.094 290.338 325.094 291.978V297.698H326.814V291.558C326.814 289.018 325.654 287.658 323.494 287.658ZM329.842 285.858H331.762V283.758H329.842V285.858ZM329.942 297.698H331.662V287.838H329.942V297.698ZM342.3 287.838H337V287.098C337 285.678 337.7 284.998 339.08 284.998C340.08 284.998 340.82 285.278 341.5 285.758L342.32 284.558C341.36 283.918 340.36 283.578 339 283.578C336.98 283.578 335.28 284.758 335.28 287.078V287.838H333.6V289.238H335.28V297.698H337V289.238H340.58V297.698H342.3V287.838ZM353.646 292.398C353.646 289.998 352.306 287.658 349.286 287.658C346.286 287.658 344.806 290.098 344.806 292.818C344.806 295.558 346.306 297.878 349.446 297.878C351.006 297.878 352.206 297.378 353.326 296.178L352.146 295.118C351.306 296.018 350.466 296.298 349.466 296.298C347.646 296.298 346.586 295.158 346.526 293.278H353.586C353.626 293.018 353.646 292.678 353.646 292.398ZM346.526 291.878C346.646 290.398 347.586 289.098 349.266 289.098C350.926 289.098 351.926 290.178 351.986 291.698C351.986 291.778 351.986 291.838 352.006 291.878H346.526ZM362.832 283.758V289.078C362.152 288.178 361.012 287.658 359.712 287.658C357.072 287.658 355.392 289.638 355.392 292.758C355.392 295.698 356.892 297.878 359.712 297.878C361.012 297.878 362.132 297.398 362.832 296.478V297.698H364.552V283.758H362.832ZM360.032 296.318C358.092 296.318 357.112 294.858 357.112 292.758C357.112 290.598 358.172 289.198 360.032 289.198C361.932 289.198 362.972 290.658 362.972 292.758C362.972 294.798 361.992 296.318 360.032 296.318ZM82.92 315.838V320.118C82.92 322.398 82.26 324.358 80.2 324.358C78.34 324.358 78.16 322.778 78.16 321.498V315.838H76.44V321.918C76.44 324.238 77.44 325.878 79.76 325.878C81 325.878 82.22 325.398 82.92 324.358V325.698H84.64V315.838H82.92ZM92.8881 315.658C91.5481 315.658 90.3881 316.218 89.7281 317.178V315.838H88.0081V325.698H89.7281V321.438C89.7281 318.998 90.4481 317.178 92.4281 317.178C94.0281 317.178 94.4881 318.338 94.4881 319.978V325.698H96.2081V319.558C96.2081 317.018 95.0481 315.658 92.8881 315.658ZM105.996 311.758V317.078C105.316 316.178 104.176 315.658 102.876 315.658C100.236 315.658 98.5562 317.638 98.5562 320.758C98.5562 323.698 100.056 325.878 102.876 325.878C104.176 325.878 105.296 325.398 105.996 324.478V325.698H107.716V311.758H105.996ZM103.196 324.318C101.256 324.318 100.276 322.858 100.276 320.758C100.276 318.598 101.336 317.198 103.196 317.198C105.096 317.198 106.136 318.658 106.136 320.758C106.136 322.798 105.156 324.318 103.196 324.318ZM119.115 320.398C119.115 317.998 117.775 315.658 114.755 315.658C111.755 315.658 110.275 318.098 110.275 320.818C110.275 323.558 111.775 325.878 114.915 325.878C116.475 325.878 117.675 325.378 118.795 324.178L117.615 323.118C116.775 324.018 115.935 324.298 114.935 324.298C113.115 324.298 112.055 323.158 111.995 321.278H119.055C119.095 321.018 119.115 320.678 119.115 320.398ZM111.995 319.878C112.115 318.398 113.055 317.098 114.735 317.098C116.395 317.098 117.395 318.178 117.455 319.698C117.455 319.778 117.455 319.838 117.475 319.878H111.995ZM126.201 315.658C125.161 315.658 123.981 316.118 123.361 317.378V315.838H121.641V325.698H123.361V320.378C123.361 318.338 124.341 317.278 125.841 317.278C126.281 317.278 126.701 317.378 127.121 317.578L127.961 316.138C127.381 315.798 126.821 315.658 126.201 315.658ZM138.881 325.878C141.781 325.878 143.701 323.618 143.701 320.758C143.701 317.878 141.761 315.658 138.881 315.658C135.981 315.658 134.101 317.878 134.101 320.758C134.101 323.638 135.981 325.878 138.881 325.878ZM138.881 324.358C136.881 324.358 135.821 322.778 135.821 320.758C135.821 318.738 136.861 317.178 138.881 317.178C140.901 317.178 141.981 318.718 141.981 320.758C141.981 322.758 140.901 324.358 138.881 324.358ZM151.052 315.658C149.712 315.658 148.552 316.218 147.892 317.178V315.838H146.172V325.698H147.892V321.438C147.892 318.998 148.612 317.178 150.592 317.178C152.192 317.178 152.652 318.338 152.652 319.978V325.698H154.372V319.558C154.372 317.018 153.212 315.658 151.052 315.658ZM165.54 320.398C165.54 317.998 164.2 315.658 161.18 315.658C158.18 315.658 156.7 318.098 156.7 320.818C156.7 323.558 158.2 325.878 161.34 325.878C162.9 325.878 164.1 325.378 165.22 324.178L164.04 323.118C163.2 324.018 162.36 324.298 161.36 324.298C159.54 324.298 158.48 323.158 158.42 321.278H165.48C165.52 321.018 165.54 320.678 165.54 320.398ZM158.42 319.878C158.54 318.398 159.48 317.098 161.16 317.098C162.82 317.098 163.82 318.178 163.88 319.698C163.88 319.778 163.88 319.838 163.9 319.878H158.42ZM177.061 325.878C178.901 325.878 180.361 324.878 181.021 323.078L179.441 322.478C179.101 323.658 178.201 324.358 177.041 324.358C175.081 324.358 174.241 322.658 174.241 320.798C174.241 318.938 175.081 317.178 177.041 317.178C178.181 317.178 179.081 317.898 179.481 319.098L181.121 318.438C180.341 316.558 178.861 315.658 177.041 315.658C173.981 315.658 172.481 318.198 172.481 320.798C172.481 323.498 174.081 325.878 177.061 325.878ZM186.861 315.658C185.141 315.658 183.801 316.318 182.701 317.718L183.941 318.758C184.721 317.718 185.661 317.178 186.821 317.178C188.321 317.178 189.161 318.018 189.161 319.538V319.938H186.981C185.321 319.938 184.341 320.098 183.601 320.498C182.801 320.938 182.361 321.738 182.361 322.778C182.361 324.678 183.701 325.878 185.821 325.878C187.301 325.878 188.481 325.278 189.181 324.218L189.301 325.698H190.881V319.538C190.881 317.098 189.381 315.658 186.861 315.658ZM186.221 324.438C184.901 324.438 184.081 323.818 184.081 322.858C184.081 322.358 184.261 321.978 184.581 321.718C185.001 321.398 185.681 321.278 187.181 321.278H189.161V321.378C189.161 323.198 187.961 324.438 186.221 324.438ZM200.029 315.838V320.118C200.029 322.398 199.369 324.358 197.309 324.358C195.449 324.358 195.269 322.778 195.269 321.498V315.838H193.549V321.918C193.549 324.238 194.549 325.878 196.869 325.878C198.109 325.878 199.329 325.398 200.029 324.358V325.698H201.749V315.838H200.029ZM208.137 325.878C210.017 325.878 211.777 324.878 211.777 322.778C211.777 319.078 206.257 320.358 206.257 318.298C206.257 317.578 206.937 317.118 208.017 317.118C209.177 317.118 209.877 317.698 210.317 318.498L211.677 317.758C210.977 316.378 209.677 315.658 208.057 315.658C206.117 315.658 204.597 316.698 204.597 318.478C204.597 322.038 210.077 320.578 210.077 322.878C210.077 323.738 209.357 324.398 208.077 324.398C206.617 324.398 205.797 323.518 205.477 322.598L204.057 323.238C204.577 324.778 206.157 325.878 208.137 325.878ZM222.279 320.398C222.279 317.998 220.939 315.658 217.919 315.658C214.919 315.658 213.439 318.098 213.439 320.818C213.439 323.558 214.939 325.878 218.079 325.878C219.639 325.878 220.839 325.378 221.959 324.178L220.779 323.118C219.939 324.018 219.099 324.298 218.099 324.298C216.279 324.298 215.219 323.158 215.159 321.278H222.219C222.259 321.018 222.279 320.678 222.279 320.398ZM215.159 319.878C215.279 318.398 216.219 317.098 217.899 317.098C219.559 317.098 220.559 318.178 220.619 319.698C220.619 319.778 220.619 319.838 220.639 319.878H215.159ZM228.963 320.298H236.263V318.978H228.963V320.298ZM248.269 317.238V315.838H245.849V312.218L244.129 313.498V315.838H242.509V317.238H244.129V323.238C244.129 325.098 245.249 325.878 246.669 325.878C247.189 325.878 247.729 325.778 248.269 325.598V324.138C247.829 324.278 247.429 324.358 247.089 324.358C246.309 324.358 245.849 323.958 245.849 323.058V317.238H248.269ZM254.545 325.878C257.445 325.878 259.365 323.618 259.365 320.758C259.365 317.878 257.425 315.658 254.545 315.658C251.645 315.658 249.765 317.878 249.765 320.758C249.765 323.638 251.645 325.878 254.545 325.878ZM254.545 324.358C252.545 324.358 251.485 322.778 251.485 320.758C251.485 318.738 252.525 317.178 254.545 317.178C256.565 317.178 257.645 318.718 257.645 320.758C257.645 322.758 256.565 324.358 254.545 324.358ZM270.11 325.878C271.99 325.878 273.75 324.878 273.75 322.778C273.75 319.078 268.23 320.358 268.23 318.298C268.23 317.578 268.91 317.118 269.99 317.118C271.15 317.118 271.85 317.698 272.29 318.498L273.65 317.758C272.95 316.378 271.65 315.658 270.03 315.658C268.09 315.658 266.57 316.698 266.57 318.478C266.57 322.038 272.05 320.578 272.05 322.878C272.05 323.738 271.33 324.398 270.05 324.398C268.59 324.398 267.77 323.518 267.45 322.598L266.03 323.238C266.55 324.778 268.13 325.878 270.11 325.878ZM280.769 317.238V315.838H278.349V312.218L276.629 313.498V315.838H275.009V317.238H276.629V323.238C276.629 325.098 277.749 325.878 279.169 325.878C279.689 325.878 280.229 325.778 280.769 325.598V324.138C280.329 324.278 279.929 324.358 279.589 324.358C278.809 324.358 278.349 323.958 278.349 323.058V317.238H280.769ZM287.607 315.658C286.567 315.658 285.387 316.118 284.767 317.378V315.838H283.047V325.698H284.767V320.378C284.767 318.338 285.747 317.278 287.247 317.278C287.687 317.278 288.107 317.378 288.527 317.578L289.367 316.138C288.787 315.798 288.227 315.658 287.607 315.658ZM291.033 313.858H292.953V311.758H291.033V313.858ZM291.133 325.698H292.853V315.838H291.133V325.698ZM298.791 325.698H300.231L304.271 315.838H302.391L299.491 323.478L296.631 315.838H294.771L298.791 325.698ZM313.919 320.398C313.919 317.998 312.579 315.658 309.559 315.658C306.559 315.658 305.079 318.098 305.079 320.818C305.079 323.558 306.579 325.878 309.719 325.878C311.279 325.878 312.479 325.378 313.599 324.178L312.419 323.118C311.579 324.018 310.739 324.298 309.739 324.298C307.919 324.298 306.859 323.158 306.799 321.278H313.859C313.899 321.018 313.919 320.678 313.919 320.398ZM306.799 319.878C306.919 318.398 307.859 317.098 309.539 317.098C311.199 317.098 312.199 318.178 312.259 319.698C312.259 319.778 312.259 319.838 312.279 319.878H306.799ZM322.3 325.698H324.02V317.238H326.68V315.838H324.02V314.378C324.02 313.638 324.34 313.018 325.14 313.018C325.48 313.018 325.82 313.138 326.18 313.318L326.76 311.978C326.16 311.718 325.58 311.578 324.96 311.578C323.6 311.578 322.32 312.218 322.32 314.458V315.838H320.28V317.238H322.3V325.698ZM332.143 325.878C335.043 325.878 336.963 323.618 336.963 320.758C336.963 317.878 335.023 315.658 332.143 315.658C329.243 315.658 327.363 317.878 327.363 320.758C327.363 323.638 329.243 325.878 332.143 325.878ZM332.143 324.358C330.143 324.358 329.083 322.778 329.083 320.758C329.083 318.738 330.123 317.178 332.143 317.178C334.163 317.178 335.243 318.718 335.243 320.758C335.243 322.758 334.163 324.358 332.143 324.358ZM343.994 315.658C342.954 315.658 341.774 316.118 341.154 317.378V315.838H339.434V325.698H341.154V320.378C341.154 318.338 342.134 317.278 343.634 317.278C344.074 317.278 344.494 317.378 344.914 317.578L345.754 316.138C345.174 315.798 344.614 315.658 343.994 315.658ZM81.52 343.658C80.22 343.658 79.08 344.178 78.4 345.078V339.758H76.68V353.698H78.4V352.478C79.1 353.398 80.22 353.878 81.52 353.878C84.34 353.878 85.84 351.698 85.84 348.758C85.84 345.638 84.16 343.658 81.52 343.658ZM81.2 352.318C79.24 352.318 78.26 350.798 78.26 348.758C78.26 346.658 79.3 345.198 81.2 345.198C83.06 345.198 84.12 346.598 84.12 348.758C84.12 350.858 83.14 352.318 81.2 352.318ZM96.4583 348.398C96.4583 345.998 95.1183 343.658 92.0983 343.658C89.0983 343.658 87.6183 346.098 87.6183 348.818C87.6183 351.558 89.1183 353.878 92.2583 353.878C93.8183 353.878 95.0183 353.378 96.1383 352.178L94.9583 351.118C94.1183 352.018 93.2783 352.298 92.2783 352.298C90.4583 352.298 89.3983 351.158 89.3383 349.278H96.3983C96.4383 349.018 96.4583 348.678 96.4583 348.398ZM89.3383 347.878C89.4583 346.398 90.3983 345.098 92.0783 345.098C93.7383 345.098 94.7383 346.178 94.7983 347.698C94.7983 347.778 94.7983 347.838 94.8183 347.878H89.3383ZM103.465 345.238V343.838H101.045V340.218L99.3247 341.498V343.838H97.7047V345.238H99.3247V351.238C99.3247 353.098 100.445 353.878 101.865 353.878C102.385 353.878 102.925 353.778 103.465 353.598V352.138C103.025 352.278 102.625 352.358 102.285 352.358C101.505 352.358 101.045 351.958 101.045 351.058V345.238H103.465ZM110.379 345.238V343.838H107.959V340.218L106.239 341.498V343.838H104.619V345.238H106.239V351.238C106.239 353.098 107.359 353.878 108.779 353.878C109.299 353.878 109.839 353.778 110.379 353.598V352.138C109.939 352.278 109.539 352.358 109.199 352.358C108.419 352.358 107.959 351.958 107.959 351.058V345.238H110.379ZM120.775 348.398C120.775 345.998 119.435 343.658 116.415 343.658C113.415 343.658 111.935 346.098 111.935 348.818C111.935 351.558 113.435 353.878 116.575 353.878C118.135 353.878 119.335 353.378 120.455 352.178L119.275 351.118C118.435 352.018 117.595 352.298 116.595 352.298C114.775 352.298 113.715 351.158 113.655 349.278H120.715C120.755 349.018 120.775 348.678 120.775 348.398ZM113.655 347.878C113.775 346.398 114.715 345.098 116.395 345.098C118.055 345.098 119.055 346.178 119.115 347.698C119.115 347.778 119.115 347.838 119.135 347.878H113.655ZM127.861 343.658C126.821 343.658 125.641 344.118 125.021 345.378V343.838H123.301V353.698H125.021V348.378C125.021 346.338 126.001 345.278 127.501 345.278C127.941 345.278 128.361 345.378 128.781 345.578L129.621 344.138C129.041 343.798 128.481 343.658 127.861 343.658ZM141.181 343.658C140.141 343.658 138.961 344.118 138.341 345.378V343.838H136.621V353.698H138.341V348.378C138.341 346.338 139.321 345.278 140.821 345.278C141.261 345.278 141.681 345.378 142.101 345.578L142.941 344.138C142.361 343.798 141.801 343.658 141.181 343.658ZM151.986 348.398C151.986 345.998 150.646 343.658 147.626 343.658C144.626 343.658 143.146 346.098 143.146 348.818C143.146 351.558 144.646 353.878 147.786 353.878C149.346 353.878 150.546 353.378 151.666 352.178L150.486 351.118C149.646 352.018 148.806 352.298 147.806 352.298C145.986 352.298 144.926 351.158 144.866 349.278H151.926C151.966 349.018 151.986 348.678 151.986 348.398ZM144.866 347.878C144.986 346.398 145.926 345.098 147.606 345.098C149.266 345.098 150.266 346.178 150.326 347.698C150.326 347.778 150.326 347.838 150.346 347.878H144.866ZM159.352 343.658C158.072 343.658 156.952 344.118 156.232 345.058V343.838H154.512V357.778H156.232V352.458C156.892 353.338 158.032 353.878 159.352 353.878C162.092 353.878 163.672 351.798 163.672 348.758C163.672 345.718 162.072 343.658 159.352 343.658ZM159.032 352.358C157.072 352.358 156.092 350.818 156.092 348.758C156.092 346.618 157.132 345.158 159.032 345.158C160.892 345.158 161.952 346.558 161.952 348.758C161.952 350.898 160.952 352.358 159.032 352.358ZM170.81 343.658C169.77 343.658 168.59 344.118 167.97 345.378V343.838H166.25V353.698H167.97V348.378C167.97 346.338 168.95 345.278 170.45 345.278C170.89 345.278 171.31 345.378 171.73 345.578L172.57 344.138C171.99 343.798 171.43 343.658 170.81 343.658ZM181.615 348.398C181.615 345.998 180.275 343.658 177.255 343.658C174.255 343.658 172.775 346.098 172.775 348.818C172.775 351.558 174.275 353.878 177.415 353.878C178.975 353.878 180.175 353.378 181.295 352.178L180.115 351.118C179.275 352.018 178.435 352.298 177.435 352.298C175.615 352.298 174.555 351.158 174.495 349.278H181.555C181.595 349.018 181.615 348.678 181.615 348.398ZM174.495 347.878C174.615 346.398 175.555 345.098 177.235 345.098C178.895 345.098 179.895 346.178 179.955 347.698C179.955 347.778 179.955 347.838 179.975 347.878H174.495ZM187.161 353.878C189.041 353.878 190.801 352.878 190.801 350.778C190.801 347.078 185.281 348.358 185.281 346.298C185.281 345.578 185.961 345.118 187.041 345.118C188.201 345.118 188.901 345.698 189.341 346.498L190.701 345.758C190.001 344.378 188.701 343.658 187.081 343.658C185.141 343.658 183.621 344.698 183.621 346.478C183.621 350.038 189.101 348.578 189.101 350.878C189.101 351.738 188.381 352.398 187.101 352.398C185.641 352.398 184.821 351.518 184.501 350.598L183.081 351.238C183.601 352.778 185.181 353.878 187.161 353.878ZM201.302 348.398C201.302 345.998 199.962 343.658 196.942 343.658C193.942 343.658 192.462 346.098 192.462 348.818C192.462 351.558 193.962 353.878 197.102 353.878C198.662 353.878 199.862 353.378 200.982 352.178L199.802 351.118C198.962 352.018 198.122 352.298 197.122 352.298C195.302 352.298 194.242 351.158 194.182 349.278H201.242C201.282 349.018 201.302 348.678 201.302 348.398ZM194.182 347.878C194.302 346.398 195.242 345.098 196.922 345.098C198.582 345.098 199.582 346.178 199.642 347.698C199.642 347.778 199.642 347.838 199.662 347.878H194.182ZM208.708 343.658C207.368 343.658 206.208 344.218 205.548 345.178V343.838H203.828V353.698H205.548V349.438C205.548 346.998 206.268 345.178 208.248 345.178C209.848 345.178 210.308 346.338 210.308 347.978V353.698H212.028V347.558C212.028 345.018 210.868 343.658 208.708 343.658ZM219.637 345.238V343.838H217.217V340.218L215.497 341.498V343.838H213.877V345.238H215.497V351.238C215.497 353.098 216.617 353.878 218.037 353.878C218.557 353.878 219.097 353.778 219.637 353.598V352.138C219.197 352.278 218.797 352.358 218.457 352.358C217.677 352.358 217.217 351.958 217.217 351.058V345.238H219.637ZM225.67 343.658C223.95 343.658 222.61 344.318 221.51 345.718L222.75 346.758C223.53 345.718 224.47 345.178 225.63 345.178C227.13 345.178 227.97 346.018 227.97 347.538V347.938H225.79C224.13 347.938 223.15 348.098 222.41 348.498C221.61 348.938 221.17 349.738 221.17 350.778C221.17 352.678 222.51 353.878 224.63 353.878C226.11 353.878 227.29 353.278 227.99 352.218L228.11 353.698H229.69V347.538C229.69 345.098 228.19 343.658 225.67 343.658ZM225.03 352.438C223.71 352.438 222.89 351.818 222.89 350.858C222.89 350.358 223.07 349.978 223.39 349.718C223.81 349.398 224.49 349.278 225.99 349.278H227.97V349.378C227.97 351.198 226.77 352.438 225.03 352.438ZM237.234 345.238V343.838H234.814V340.218L233.094 341.498V343.838H231.474V345.238H233.094V351.238C233.094 353.098 234.214 353.878 235.634 353.878C236.154 353.878 236.694 353.778 237.234 353.598V352.138C236.794 352.278 236.394 352.358 236.054 352.358C235.274 352.358 234.814 351.958 234.814 351.058V345.238H237.234ZM239.588 341.858H241.508V339.758H239.588V341.858ZM239.688 353.698H241.408V343.838H239.688V353.698ZM248.686 353.878C251.586 353.878 253.506 351.618 253.506 348.758C253.506 345.878 251.566 343.658 248.686 343.658C245.786 343.658 243.906 345.878 243.906 348.758C243.906 351.638 245.786 353.878 248.686 353.878ZM248.686 352.358C246.686 352.358 245.626 350.778 245.626 348.758C245.626 346.738 246.666 345.178 248.686 345.178C250.706 345.178 251.786 346.718 251.786 348.758C251.786 350.758 250.706 352.358 248.686 352.358ZM260.857 343.658C259.517 343.658 258.357 344.218 257.697 345.178V343.838H255.977V353.698H257.697V349.438C257.697 346.998 258.417 345.178 260.397 345.178C261.997 345.178 262.457 346.338 262.457 347.978V353.698H264.177V347.558C264.177 345.018 263.017 343.658 260.857 343.658ZM272.459 341.858H274.379V339.758H272.459V341.858ZM272.559 353.698H274.279V343.838H272.559V353.698ZM282.517 343.658C281.177 343.658 280.017 344.218 279.357 345.178V343.838H277.637V353.698H279.357V349.438C279.357 346.998 280.077 345.178 282.057 345.178C283.657 345.178 284.117 346.338 284.117 347.978V353.698H285.837V347.558C285.837 345.018 284.677 343.658 282.517 343.658ZM298.699 345.238V343.838H296.279V340.218L294.559 341.498V343.838H292.939V345.238H294.559V351.238C294.559 353.098 295.679 353.878 297.099 353.878C297.619 353.878 298.159 353.778 298.699 353.598V352.138C298.259 352.278 297.859 352.358 297.519 352.358C296.739 352.358 296.279 351.958 296.279 351.058V345.238H298.699ZM309.095 348.398C309.095 345.998 307.755 343.658 304.735 343.658C301.735 343.658 300.255 346.098 300.255 348.818C300.255 351.558 301.755 353.878 304.895 353.878C306.455 353.878 307.655 353.378 308.775 352.178L307.595 351.118C306.755 352.018 305.915 352.298 304.915 352.298C303.095 352.298 302.035 351.158 301.975 349.278H309.035C309.075 349.018 309.095 348.678 309.095 348.398ZM301.975 347.878C302.095 346.398 303.035 345.098 304.715 345.098C306.375 345.098 307.375 346.178 307.435 347.698C307.435 347.778 307.435 347.838 307.455 347.878H301.975ZM315.361 353.878C317.201 353.878 318.661 352.878 319.321 351.078L317.741 350.478C317.401 351.658 316.501 352.358 315.341 352.358C313.381 352.358 312.541 350.658 312.541 348.798C312.541 346.938 313.381 345.178 315.341 345.178C316.481 345.178 317.381 345.898 317.781 347.098L319.421 346.438C318.641 344.558 317.161 343.658 315.341 343.658C312.281 343.658 310.781 346.198 310.781 348.798C310.781 351.498 312.381 353.878 315.361 353.878ZM326.58 343.658C325.2 343.658 324.06 344.218 323.4 345.178V339.758H321.68V353.698H323.4V349.358C323.4 346.598 324.34 345.178 326.12 345.178C327.52 345.178 328.16 346.058 328.16 347.978V353.698H329.88V347.558C329.88 345.018 328.72 343.658 326.58 343.658ZM333.648 353.698H335.648V351.358H333.648V353.698Z" fill="#4D4B4F"/>
<path d="M71.104 137.698H85.856V134.53H74.528V127.842H84.928V124.674H74.528V118.562H85.856V115.394H71.104V137.698ZM87.842 137.698H91.874L95.554 132.034L99.234 137.698H103.266L97.73 129.762L103.266 121.922H99.234L95.554 127.522L91.874 121.922H87.842L93.346 129.762L87.842 137.698ZM113.915 121.602C112.059 121.602 110.235 122.242 109.147 123.682V121.922H105.851V144.226H109.147V135.906C110.139 137.186 111.931 137.986 113.915 137.986C118.011 137.986 120.667 134.818 120.667 129.826C120.667 125.026 118.235 121.602 113.915 121.602ZM113.147 135.106C110.203 135.106 108.827 132.834 108.827 129.794C108.827 126.658 110.267 124.514 113.179 124.514C115.963 124.514 117.371 126.466 117.371 129.794C117.371 133.026 115.995 135.106 113.147 135.106ZM127.449 137.986C128.185 137.986 129.017 137.826 129.817 137.538V134.85C129.337 135.01 128.889 135.074 128.505 135.074C127.673 135.074 127.257 134.658 127.257 133.826V115.394H123.961V134.05C123.961 136.738 125.401 137.986 127.449 137.986ZM139.074 137.986C143.81 137.986 146.85 134.306 146.85 129.794C146.85 125.25 143.81 121.634 139.074 121.634C134.306 121.634 131.266 125.25 131.266 129.794C131.266 134.306 134.306 137.986 139.074 137.986ZM139.074 135.106C136.002 135.106 134.562 132.706 134.562 129.794C134.562 126.882 136.002 124.514 139.074 124.514C142.114 124.514 143.554 126.882 143.554 129.794C143.554 132.674 142.146 135.106 139.074 135.106ZM157.813 121.634C156.085 121.634 154.261 122.53 153.461 124.514V121.922H150.133V137.698H153.429V129.474C153.429 126.338 154.805 124.77 157.173 124.77C157.909 124.77 158.517 124.962 159.125 125.314L160.725 122.434C159.765 121.858 158.837 121.634 157.813 121.634ZM174.993 129.41C174.993 125.282 172.753 121.634 167.857 121.634C162.833 121.634 160.529 125.666 160.529 129.89C160.529 134.21 162.897 137.986 168.113 137.986C170.705 137.986 172.689 137.154 174.481 135.202L172.177 133.218C170.993 134.562 169.681 135.01 168.145 135.01C165.457 135.01 163.953 133.378 163.825 130.85H174.897C174.961 130.37 174.993 129.89 174.993 129.41ZM163.825 128.194C164.049 126.242 165.329 124.386 167.857 124.386C170.193 124.386 171.761 125.89 171.825 128.13V128.194H163.825ZM186.037 118.85H189.557V115.394H186.037V118.85ZM186.165 137.698H189.461V121.922H186.165V137.698ZM202.348 121.634C200.3 121.634 198.508 122.37 197.42 123.874V121.922H194.124V137.698H197.42V131.138C197.42 127.778 197.996 124.514 201.388 124.514C204.108 124.514 204.46 126.658 204.46 128.514V137.698H207.756V127.682C207.756 123.81 205.836 121.634 202.348 121.634ZM225.804 121.634C222.988 121.634 220.748 122.722 218.924 124.962L221.324 126.978C222.508 125.346 224.044 124.514 225.772 124.514C227.852 124.514 229.1 125.73 229.1 127.778V128.322H225.42C223.18 128.322 221.708 128.578 220.62 129.122C219.212 129.826 218.444 131.17 218.444 132.962C218.444 135.97 220.684 137.986 224.044 137.986C226.284 137.986 228.108 137.058 229.132 135.458L229.388 137.698H232.396V127.778C232.396 123.938 229.9 121.634 225.804 121.634ZM224.652 135.202C222.86 135.202 221.74 134.37 221.74 133.026C221.74 132.354 221.964 131.81 222.444 131.49C223.052 131.01 223.98 130.85 225.804 130.85H229.1V130.914C229.1 133.41 227.212 135.202 224.652 135.202ZM251.275 138.082C255.851 138.082 258.827 135.458 258.827 131.426C258.827 128.29 257.323 126.562 252.491 124.706C249.067 123.394 247.851 122.466 247.851 120.802C247.851 119.266 249.195 118.018 251.051 118.018C252.683 118.018 254.123 118.946 254.955 120.642L257.803 118.882C256.427 116.29 254.091 114.978 251.147 114.978C247.115 114.978 244.427 117.346 244.427 120.898C244.427 124.034 246.059 125.698 250.667 127.458C254.187 128.834 255.403 129.89 255.403 131.714C255.403 133.73 253.899 135.042 251.339 135.042C248.587 135.042 246.699 133.41 246.379 130.69L242.955 131.522C243.595 135.49 246.923 138.082 251.275 138.082ZM268.024 121.634C265.208 121.634 262.968 122.722 261.144 124.962L263.544 126.978C264.728 125.346 266.264 124.514 267.992 124.514C270.072 124.514 271.32 125.73 271.32 127.778V128.322H267.64C265.4 128.322 263.928 128.578 262.84 129.122C261.432 129.826 260.664 131.17 260.664 132.962C260.664 135.97 262.904 137.986 266.264 137.986C268.504 137.986 270.328 137.058 271.352 135.458L271.608 137.698H274.616V127.778C274.616 123.938 272.12 121.634 268.024 121.634ZM266.872 135.202C265.08 135.202 263.96 134.37 263.96 133.026C263.96 132.354 264.184 131.81 264.664 131.49C265.272 131.01 266.2 130.85 268.024 130.85H271.32V130.914C271.32 133.41 269.432 135.202 266.872 135.202ZM279.773 137.698H283.069V124.578H287.037V121.922H283.069V119.842C283.069 118.978 283.325 117.858 284.669 117.858C285.181 117.858 285.693 118.018 286.141 118.274L287.229 115.714C286.365 115.33 285.405 115.106 284.317 115.106C281.981 115.106 279.805 116.13 279.805 119.906V121.922H276.669V124.578H279.773V137.698ZM302.081 129.41C302.081 125.282 299.841 121.634 294.945 121.634C289.921 121.634 287.617 125.666 287.617 129.89C287.617 134.21 289.985 137.986 295.201 137.986C297.793 137.986 299.777 137.154 301.569 135.202L299.265 133.218C298.081 134.562 296.769 135.01 295.233 135.01C292.545 135.01 291.041 133.378 290.913 130.85H301.985C302.049 130.37 302.081 129.89 302.081 129.41ZM290.913 128.194C291.137 126.242 292.417 124.386 294.945 124.386C297.281 124.386 298.849 125.89 298.913 128.13V128.194H290.913ZM320.069 138.082C324.645 138.082 327.621 135.458 327.621 131.426C327.621 128.29 326.117 126.562 321.285 124.706C317.861 123.394 316.645 122.466 316.645 120.802C316.645 119.266 317.989 118.018 319.845 118.018C321.477 118.018 322.917 118.946 323.749 120.642L326.597 118.882C325.221 116.29 322.885 114.978 319.941 114.978C315.909 114.978 313.221 117.346 313.221 120.898C313.221 124.034 314.853 125.698 319.461 127.458C322.981 128.834 324.197 129.89 324.197 131.714C324.197 133.73 322.693 135.042 320.133 135.042C317.381 135.042 315.493 133.41 315.173 130.69L311.749 131.522C312.389 135.49 315.717 138.082 320.069 138.082ZM338.495 121.602C336.639 121.602 334.815 122.242 333.727 123.682V121.922H330.431V144.226H333.727V135.906C334.719 137.186 336.511 137.986 338.495 137.986C342.591 137.986 345.247 134.818 345.247 129.826C345.247 125.026 342.815 121.602 338.495 121.602ZM337.727 135.106C334.783 135.106 333.407 132.834 333.407 129.794C333.407 126.658 334.847 124.514 337.759 124.514C340.543 124.514 341.951 126.466 341.951 129.794C341.951 133.026 340.575 135.106 337.727 135.106ZM354.589 121.634C351.773 121.634 349.533 122.722 347.709 124.962L350.109 126.978C351.293 125.346 352.829 124.514 354.557 124.514C356.637 124.514 357.885 125.73 357.885 127.778V128.322H354.205C351.965 128.322 350.493 128.578 349.405 129.122C347.997 129.826 347.229 131.17 347.229 132.962C347.229 135.97 349.469 137.986 352.829 137.986C355.069 137.986 356.893 137.058 357.917 135.458L358.173 137.698H361.181V127.778C361.181 123.938 358.685 121.634 354.589 121.634ZM353.437 135.202C351.645 135.202 350.525 134.37 350.525 133.026C350.525 132.354 350.749 131.81 351.229 131.49C351.837 131.01 352.765 130.85 354.589 130.85H357.885V130.914C357.885 133.41 355.997 135.202 353.437 135.202ZM371.491 137.986C374.531 137.986 376.931 136.354 377.987 133.41L374.979 132.258C374.499 134.018 373.155 135.106 371.491 135.106C368.547 135.106 367.395 132.61 367.395 129.858C367.395 127.106 368.579 124.514 371.459 124.514C373.187 124.514 374.499 125.634 375.011 127.394L378.147 126.178C376.931 123.106 374.499 121.634 371.459 121.634C366.435 121.634 364.035 125.698 364.035 129.858C364.035 134.082 366.531 137.986 371.491 137.986ZM394.083 129.41C394.083 125.282 391.843 121.634 386.947 121.634C381.923 121.634 379.619 125.666 379.619 129.89C379.619 134.21 381.987 137.986 387.203 137.986C389.795 137.986 391.779 137.154 393.571 135.202L391.267 133.218C390.083 134.562 388.771 135.01 387.235 135.01C384.547 135.01 383.043 133.378 382.915 130.85H393.987C394.051 130.37 394.083 129.89 394.083 129.41ZM382.915 128.194C383.139 126.242 384.419 124.386 386.947 124.386C389.283 124.386 390.851 125.89 390.915 128.13V128.194H382.915Z" fill="#4D4B4F"/>
<defs>
<filter id="filter0_d_1_7312" x="1.00015" y="0" width="449" height="508" filterUnits="userSpaceOnUse" color-interpolation-filters="sRGB">
<feFlood flood-opacity="0" result="BackgroundImageFix"/>
<feColorMatrix in="SourceAlpha" type="matrix" values="0 0 0 0 0 0 0 0 0 0 0 0 0 0 0 0 0 0 127 0" result="hardAlpha"/>
<feOffset dx="11" dy="8"/>
<feGaussianBlur stdDeviation="2"/>
<feComposite in2="hardAlpha" operator="out"/>
<feColorMatrix type="matrix" values="0 0 0 0 0 0 0 0 0 0 0 0 0 0 0 0 0 0 0.25 0"/>
<feBlend mode="normal" in2="BackgroundImageFix" result="effect1_dropShadow_1_7312"/>
<feBlend mode="normal" in="SourceGraphic" in2="effect1_dropShadow_1_7312" result="shape"/>
</filter>
<linearGradient id="paint0_linear_1_7312" x1="27.9998" y1="34.4047" x2="27.9998" y2="51.607" gradientUnits="userSpaceOnUse">
<stop stop-color="#8E6A56"/>
<stop offset="1" stop-color="#B69582"/>
</linearGradient>
<linearGradient id="paint1_linear_1_7312" x1="27.9998" y1="221.719" x2="27.9998" y2="237.966" gradientUnits="userSpaceOnUse">
<stop stop-color="#8E6A56"/>
<stop offset="1" stop-color="#B69582"/>
</linearGradient>
<linearGradient id="paint2_linear_1_7312" x1="27.9998" y1="408.077" x2="27.9998" y2="425.279" gradientUnits="userSpaceOnUse">
<stop stop-color="#8E6A56"/>
<stop offset="1" stop-color="#B69582"/>
</linearGradient>
</defs>
</svg>
