<svg width="1022" height="463" viewBox="0 0 1022 463" fill="none" xmlns="http://www.w3.org/2000/svg">
<g style="mix-blend-mode:overlay">
<path d="M284 162H0L85.7259 463H196.17L284 162Z" fill="url(#paint0_linear_577_658)"/>
</g>
<rect x="2" y="18" width="280" height="160" rx="7" fill="#57EAEF" fill-opacity="0.3" stroke="url(#paint1_linear_577_658)" stroke-width="4"/>
<g filter="url(#filter0_f_577_658)">
<path d="M103.84 86.658C101.239 86.658 98.9677 86.0313 97.025 84.778C95.0823 83.4933 93.7977 81.6133 93.171 79.138L98.2 76.929C98.7327 78.433 99.4377 79.514 100.315 80.172C101.224 80.7987 102.289 81.112 103.511 81.112C104.702 81.112 105.689 80.6733 106.472 79.796C107.255 78.9187 107.647 77.6183 107.647 75.895C107.647 73.6703 106.989 72.182 105.673 71.43C104.388 70.6467 102.555 70.255 100.174 70.255V65.649C102.179 65.649 103.824 65.1477 105.109 64.145C106.425 63.1423 107.099 61.654 107.13 59.68V59.633C107.13 58.3797 106.738 57.3927 105.955 56.672C105.172 55.9513 104.247 55.591 103.182 55.591C102.242 55.591 101.365 55.8887 100.55 56.484C99.7353 57.048 99.1243 57.8783 98.717 58.975L94.017 56.296C95.051 54.134 96.414 52.5673 98.106 51.596C99.798 50.5933 101.803 50.092 104.122 50.092C105.783 50.092 107.349 50.4523 108.822 51.173C110.295 51.8623 111.485 52.8963 112.394 54.275C113.334 55.6223 113.804 57.236 113.804 59.116C113.804 61.1527 113.303 62.8917 112.3 64.333C111.297 65.743 109.825 66.777 107.882 67.435C109.856 68.0617 111.407 69.174 112.535 70.772C113.694 72.3387 114.274 74.2657 114.274 76.553C114.274 78.6523 113.788 80.4697 112.817 82.005C111.846 83.509 110.561 84.6683 108.963 85.483C107.396 86.2663 105.689 86.658 103.84 86.658ZM130.739 86.658C126.665 86.658 123.845 84.872 122.279 81.3C120.712 77.6967 119.929 73.357 119.929 68.281C119.929 63.2363 120.696 58.9437 122.232 55.403C123.798 51.8623 126.634 50.092 130.739 50.092C134.843 50.092 137.679 51.8623 139.246 55.403C140.844 58.9437 141.643 63.2207 141.643 68.234C141.643 73.31 140.844 77.6497 139.246 81.253C137.679 84.8563 134.843 86.658 130.739 86.658ZM130.739 81.112C131.741 81.112 132.54 80.7517 133.136 80.031C133.762 79.3103 134.232 77.9317 134.546 75.895C134.859 73.8583 135.016 70.913 135.016 67.059C135.016 63.3617 134.734 60.5417 134.17 58.599C133.637 56.625 132.493 55.638 130.739 55.638C128.984 55.638 127.84 56.5937 127.308 58.505C126.806 60.385 126.556 63.0483 126.556 66.495C126.556 70.5057 126.697 73.5607 126.979 75.66C127.261 77.7593 127.699 79.2007 128.295 79.984C128.89 80.736 129.705 81.112 130.739 81.112ZM157.975 86.658C153.901 86.658 151.081 84.872 149.515 81.3C147.948 77.6967 147.165 73.357 147.165 68.281C147.165 63.2363 147.932 58.9437 149.468 55.403C151.034 51.8623 153.87 50.092 157.975 50.092C162.079 50.092 164.915 51.8623 166.482 55.403C168.08 58.9437 168.879 63.2207 168.879 68.234C168.879 73.31 168.08 77.6497 166.482 81.253C164.915 84.8563 162.079 86.658 157.975 86.658ZM157.975 81.112C158.977 81.112 159.776 80.7517 160.372 80.031C160.998 79.3103 161.468 77.9317 161.782 75.895C162.095 73.8583 162.252 70.913 162.252 67.059C162.252 63.3617 161.97 60.5417 161.406 58.599C160.873 56.625 159.729 55.638 157.975 55.638C156.22 55.638 155.076 56.5937 154.544 58.505C154.042 60.385 153.792 63.0483 153.792 66.495C153.792 70.5057 153.933 73.5607 154.215 75.66C154.497 77.7593 154.935 79.2007 155.531 79.984C156.126 80.736 156.941 81.112 157.975 81.112ZM179.242 85.53V80.031H173.743V74.579H179.242V69.08H184.741V74.579H190.24V80.031H184.741V85.53H179.242ZM53.2729 153.282V118.314L60.1819 117.75V132.038H66.7619V118.314L73.6709 117.75V152.718L66.7619 153.282V138.336H60.1819V152.718L53.2729 153.282ZM78.655 153L86.081 118.173L95.904 117.75L103.518 152.718L95.998 153L94.729 145.433H86.316L84.812 153H78.655ZM87.585 139.793H93.46L90.217 122.92L87.585 139.793ZM118.021 153.658C113.979 153.658 111.128 151.825 109.467 148.159C107.838 144.493 107.023 139.981 107.023 134.623C107.023 131.74 107.399 128.967 108.151 126.304C108.903 123.641 110.11 121.447 111.77 119.724C113.462 117.969 115.593 117.092 118.162 117.092C120.136 117.092 121.86 117.703 123.332 118.925C124.836 120.147 125.98 121.745 126.763 123.719C127.578 125.662 127.985 127.698 127.985 129.829L121.311 130.158C121.311 128.748 121.076 127.15 120.606 125.364C120.136 123.547 119.196 122.638 117.786 122.638C116.314 122.638 115.295 123.813 114.731 126.163C114.167 128.513 113.885 131.333 113.885 134.623C113.885 138.696 114.199 141.971 114.825 144.446C115.452 146.89 116.658 148.112 118.444 148.112C119.698 148.112 120.591 147.376 121.123 145.903C121.656 144.399 122.001 142.582 122.157 140.451L128.032 141.015C128.032 143.271 127.656 145.37 126.904 147.313C126.152 149.224 125.024 150.76 123.52 151.919C122.016 153.078 120.183 153.658 118.021 153.658ZM149.807 153.611L143.697 137.208L141.018 141.861V153H134.109V118.314L141.018 117.75V133.166L149.384 117.75H156.716L149.149 132.32L156.81 152.013L149.807 153.611ZM161.712 153V117.75H179.619L179.055 123.249H168.621V131.662H176.047L176 137.584H168.621V147.501H179.995L179.431 153H161.712ZM195.093 137.537H192.414V152.718L185.552 153.282V118.032L193.918 117.75C197.96 117.75 201.124 118.565 203.412 120.194C205.699 121.792 206.843 124.252 206.843 127.573C206.843 129.766 206.404 131.568 205.527 132.978C204.681 134.388 203.443 135.563 201.814 136.503L204.963 144.164L208.159 151.778L201.391 153.611L195.093 137.537ZM194.764 132.461C196.393 132.461 197.662 132.132 198.571 131.474C199.511 130.785 199.981 129.5 199.981 127.62C199.981 124.706 198.539 123.249 195.657 123.249H192.414V132.461H194.764ZM222.553 153.658C219.701 153.658 217.289 152.875 215.315 151.308C213.372 149.71 211.946 147.579 211.038 144.916L216.866 142.19L217.43 143.13C218.338 144.697 219.2 145.919 220.015 146.796C220.861 147.673 221.91 148.112 223.164 148.112C223.978 148.112 224.699 147.72 225.326 146.937C225.984 146.154 226.313 145.292 226.313 144.352C226.313 143.475 226.093 142.676 225.655 141.955C225.216 141.234 224.652 140.655 223.963 140.216L217.806 136.55C216.02 135.547 214.594 134.278 213.529 132.743C212.463 131.208 211.931 129.484 211.931 127.573C211.931 125.536 212.401 123.719 213.341 122.121C214.312 120.523 215.612 119.285 217.242 118.408C218.902 117.531 220.767 117.092 222.835 117.092C225.247 117.092 227.3 117.687 228.992 118.878C230.684 120.069 231.937 121.839 232.752 124.189L226.924 126.821C226.798 126.57 226.532 126.006 226.125 125.129C225.717 124.252 225.216 123.625 224.621 123.249C224.057 122.842 223.352 122.638 222.506 122.638C221.472 122.638 220.673 122.967 220.109 123.625C219.576 124.283 219.31 125.129 219.31 126.163C219.31 126.915 219.513 127.604 219.921 128.231C220.359 128.826 220.876 129.296 221.472 129.641L227.159 132.978C231.357 135.359 233.566 138.493 233.786 142.378C233.786 144.603 233.284 146.577 232.282 148.3C231.31 149.992 229.963 151.308 228.24 152.248C226.548 153.188 224.652 153.658 222.553 153.658Z" fill="#73FFF6"/>
</g>
<path d="M88.7978 51.968V53.76C88.7978 56.896 87.2858 57.96 84.4858 57.96H80.0618V64.624H88.7978V91H97.2538V51.968H88.7978ZM124.235 83.048C131.627 78.792 136.779 71.008 136.779 64.344C136.779 56.616 131.459 51.52 124.179 51.52C115.107 51.52 110.235 59.304 110.235 66.136L118.523 66.808C118.747 63.784 119.699 59.696 123.955 59.696C127.147 59.696 128.379 61.936 128.379 64.624C128.379 72.968 116.283 80.976 110.739 84.28V91H138.291V83.048H124.235ZM158.217 91.56C171.265 91.56 172.385 79.128 172.385 71.232C172.385 63.896 171.433 51.296 158.217 51.296C145.057 51.296 144.049 63.784 144.049 71.232C144.049 79.128 145.169 91.56 158.217 91.56ZM158.217 83.496C153.289 83.496 152.673 77.84 152.673 71.512C152.673 64.904 153.289 59.416 158.217 59.416C163.145 59.416 163.761 64.904 163.761 71.512C163.761 77.84 163.145 83.496 158.217 83.496ZM192.085 91.56C205.133 91.56 206.253 79.128 206.253 71.232C206.253 63.896 205.301 51.296 192.085 51.296C178.925 51.296 177.917 63.784 177.917 71.232C177.917 79.128 179.037 91.56 192.085 91.56ZM192.085 83.496C187.157 83.496 186.541 77.84 186.541 71.512C186.541 64.904 187.157 59.416 192.085 59.416C197.013 59.416 197.629 64.904 197.629 71.512C197.629 77.84 197.013 83.496 192.085 83.496ZM43.6783 147H52.4703V130.872H67.6463V147H76.4383V107.968H67.6463V122.808H52.4703V107.968H43.6783V147ZM95.0725 118.776C90.2565 118.776 85.1605 120.344 81.6885 123.984L87.7925 129.08C90.2565 126.728 92.3845 126.112 94.4565 126.112C97.5365 126.112 99.2165 127.512 99.2165 129.472V129.92H91.6005C89.1365 129.92 86.9525 130.368 85.2165 131.32C82.8645 132.608 81.4085 134.904 81.4085 138.096C81.4085 143.752 85.8885 147.616 92.1045 147.616C94.1205 147.616 97.0885 147.224 99.3285 144.256L99.8885 147H107.616V129.472C107.616 122.92 102.912 118.776 95.0725 118.776ZM93.4485 140.84C91.0405 140.84 89.8645 139.664 89.8645 138.264C89.8645 137.592 90.1445 137.032 90.7045 136.64C91.2085 136.304 91.9365 136.136 92.8325 136.136H99.2165C99.0485 138.88 96.4725 140.84 93.4485 140.84ZM124.9 147.616C130.668 147.616 135.036 144.368 136.884 139.16L129.268 136.192C128.764 138.656 126.972 140.28 124.788 140.28C120.812 140.28 119.636 136.808 119.636 133.28C119.636 129.696 120.924 126.112 124.844 126.112C127.084 126.112 128.82 127.792 129.212 130.368L137.164 127.176C135.092 121.52 130.668 118.776 124.844 118.776C115.436 118.776 110.956 126 110.956 133.28C110.956 140.336 115.268 147.616 124.9 147.616ZM140.891 147H149.347V138.992L152.315 135.464L159.483 147H169.507L158.475 129.808L168.555 119.392H157.299L149.347 128.52V107.968H140.891V147ZM195.182 133.448C195.182 124.936 190.646 118.776 182.022 118.776C172.166 118.776 168.414 126.448 168.414 133.336C168.414 140.448 172.278 147.616 182.47 147.616C187.342 147.616 191.262 145.768 194.174 142.464L188.35 137.312C186.782 139.216 184.598 140 182.526 140C178.886 140 177.206 138.32 176.87 136.136H195.014C195.126 134.96 195.182 134.232 195.182 133.448ZM176.758 129.92C177.094 128.128 178.382 125.776 181.91 125.776C184.71 125.776 187.006 127.344 187.118 129.92H176.758ZM187.006 130.984L187.062 130.928L187.006 130.984ZM215.005 118.776C212.037 118.776 209.349 120.68 208.061 123.592V119.392H199.549V147H208.005V134.176C208.005 129.304 209.965 127.176 212.933 127.176C214.277 127.176 215.733 127.68 216.517 128.184L220.549 120.568C218.589 119.28 216.909 118.776 215.005 118.776ZM231.111 147.616C236.263 147.616 242.367 144.816 242.367 137.872C242.367 127.456 228.815 130.2 228.815 126.56C228.815 125.664 229.599 124.992 231.167 124.992C233.911 124.992 235.031 127.232 235.703 128.464L242.199 124.88C240.015 121.24 236.375 118.776 231.279 118.776C226.295 118.776 220.863 121.184 220.863 127.4C220.863 137.144 234.079 135.24 234.079 139.048C234.079 139.888 233.407 140.896 231.055 140.896C227.303 140.896 226.575 138.152 226.015 136.64L219.351 139.608C220.639 143.64 225.007 147.616 231.111 147.616Z" fill="#D0FFFF"/>
<g style="mix-blend-mode:overlay">
<path d="M646 162H362L447.726 463H558.17L646 162Z" fill="url(#paint2_linear_577_658)"/>
</g>
<rect x="364" y="18" width="280" height="160" rx="7" fill="#57EAEF" fill-opacity="0.3" stroke="url(#paint3_linear_577_658)" stroke-width="4"/>
<g filter="url(#filter1_f_577_658)">
<path d="M465.84 86.658C463.239 86.658 460.968 86.0313 459.025 84.778C457.082 83.4933 455.798 81.6133 455.171 79.138L460.2 76.929C460.733 78.433 461.438 79.514 462.315 80.172C463.224 80.7987 464.289 81.112 465.511 81.112C466.702 81.112 467.689 80.6733 468.472 79.796C469.255 78.9187 469.647 77.6183 469.647 75.895C469.647 73.6703 468.989 72.182 467.673 71.43C466.388 70.6467 464.555 70.255 462.174 70.255V65.649C464.179 65.649 465.824 65.1477 467.109 64.145C468.425 63.1423 469.099 61.654 469.13 59.68V59.633C469.13 58.3797 468.738 57.3927 467.955 56.672C467.172 55.9513 466.247 55.591 465.182 55.591C464.242 55.591 463.365 55.8887 462.55 56.484C461.735 57.048 461.124 57.8783 460.717 58.975L456.017 56.296C457.051 54.134 458.414 52.5673 460.106 51.596C461.798 50.5933 463.803 50.092 466.122 50.092C467.783 50.092 469.349 50.4523 470.822 51.173C472.295 51.8623 473.485 52.8963 474.394 54.275C475.334 55.6223 475.804 57.236 475.804 59.116C475.804 61.1527 475.303 62.8917 474.3 64.333C473.297 65.743 471.825 66.777 469.882 67.435C471.856 68.0617 473.407 69.174 474.535 70.772C475.694 72.3387 476.274 74.2657 476.274 76.553C476.274 78.6523 475.788 80.4697 474.817 82.005C473.846 83.509 472.561 84.6683 470.963 85.483C469.396 86.2663 467.689 86.658 465.84 86.658ZM492.739 86.658C488.665 86.658 485.845 84.872 484.279 81.3C482.712 77.6967 481.929 73.357 481.929 68.281C481.929 63.2363 482.696 58.9437 484.232 55.403C485.798 51.8623 488.634 50.092 492.739 50.092C496.843 50.092 499.679 51.8623 501.246 55.403C502.844 58.9437 503.643 63.2207 503.643 68.234C503.643 73.31 502.844 77.6497 501.246 81.253C499.679 84.8563 496.843 86.658 492.739 86.658ZM492.739 81.112C493.741 81.112 494.54 80.7517 495.136 80.031C495.762 79.3103 496.232 77.9317 496.546 75.895C496.859 73.8583 497.016 70.913 497.016 67.059C497.016 63.3617 496.734 60.5417 496.17 58.599C495.637 56.625 494.493 55.638 492.739 55.638C490.984 55.638 489.84 56.5937 489.308 58.505C488.806 60.385 488.556 63.0483 488.556 66.495C488.556 70.5057 488.697 73.5607 488.979 75.66C489.261 77.7593 489.699 79.2007 490.295 79.984C490.89 80.736 491.705 81.112 492.739 81.112ZM519.975 86.658C515.901 86.658 513.081 84.872 511.515 81.3C509.948 77.6967 509.165 73.357 509.165 68.281C509.165 63.2363 509.932 58.9437 511.468 55.403C513.034 51.8623 515.87 50.092 519.975 50.092C524.079 50.092 526.915 51.8623 528.482 55.403C530.08 58.9437 530.879 63.2207 530.879 68.234C530.879 73.31 530.08 77.6497 528.482 81.253C526.915 84.8563 524.079 86.658 519.975 86.658ZM519.975 81.112C520.977 81.112 521.776 80.7517 522.372 80.031C522.998 79.3103 523.468 77.9317 523.782 75.895C524.095 73.8583 524.252 70.913 524.252 67.059C524.252 63.3617 523.97 60.5417 523.406 58.599C522.873 56.625 521.729 55.638 519.975 55.638C518.22 55.638 517.076 56.5937 516.544 58.505C516.042 60.385 515.792 63.0483 515.792 66.495C515.792 70.5057 515.933 73.5607 516.215 75.66C516.497 77.7593 516.935 79.2007 517.531 79.984C518.126 80.736 518.941 81.112 519.975 81.112ZM541.242 85.53V80.031H535.743V74.579H541.242V69.08H546.741V74.579H552.24V80.031H546.741V85.53H541.242ZM415.273 153.282V118.314L422.182 117.75V132.038H428.762V118.314L435.671 117.75V152.718L428.762 153.282V138.336H422.182V152.718L415.273 153.282ZM440.655 153L448.081 118.173L457.904 117.75L465.518 152.718L457.998 153L456.729 145.433H448.316L446.812 153H440.655ZM449.585 139.793H455.46L452.217 122.92L449.585 139.793ZM480.021 153.658C475.979 153.658 473.128 151.825 471.467 148.159C469.838 144.493 469.023 139.981 469.023 134.623C469.023 131.74 469.399 128.967 470.151 126.304C470.903 123.641 472.11 121.447 473.77 119.724C475.462 117.969 477.593 117.092 480.162 117.092C482.136 117.092 483.86 117.703 485.332 118.925C486.836 120.147 487.98 121.745 488.763 123.719C489.578 125.662 489.985 127.698 489.985 129.829L483.311 130.158C483.311 128.748 483.076 127.15 482.606 125.364C482.136 123.547 481.196 122.638 479.786 122.638C478.314 122.638 477.295 123.813 476.731 126.163C476.167 128.513 475.885 131.333 475.885 134.623C475.885 138.696 476.199 141.971 476.825 144.446C477.452 146.89 478.658 148.112 480.444 148.112C481.698 148.112 482.591 147.376 483.123 145.903C483.656 144.399 484.001 142.582 484.157 140.451L490.032 141.015C490.032 143.271 489.656 145.37 488.904 147.313C488.152 149.224 487.024 150.76 485.52 151.919C484.016 153.078 482.183 153.658 480.021 153.658ZM511.807 153.611L505.697 137.208L503.018 141.861V153H496.109V118.314L503.018 117.75V133.166L511.384 117.75H518.716L511.149 132.32L518.81 152.013L511.807 153.611ZM523.712 153V117.75H541.619L541.055 123.249H530.621V131.662H538.047L538 137.584H530.621V147.501H541.995L541.431 153H523.712ZM557.093 137.537H554.414V152.718L547.552 153.282V118.032L555.918 117.75C559.96 117.75 563.124 118.565 565.412 120.194C567.699 121.792 568.843 124.252 568.843 127.573C568.843 129.766 568.404 131.568 567.527 132.978C566.681 134.388 565.443 135.563 563.814 136.503L566.963 144.164L570.159 151.778L563.391 153.611L557.093 137.537ZM556.764 132.461C558.393 132.461 559.662 132.132 560.571 131.474C561.511 130.785 561.981 129.5 561.981 127.62C561.981 124.706 560.539 123.249 557.657 123.249H554.414V132.461H556.764ZM584.553 153.658C581.701 153.658 579.289 152.875 577.315 151.308C575.372 149.71 573.946 147.579 573.038 144.916L578.866 142.19L579.43 143.13C580.338 144.697 581.2 145.919 582.015 146.796C582.861 147.673 583.91 148.112 585.164 148.112C585.978 148.112 586.699 147.72 587.326 146.937C587.984 146.154 588.313 145.292 588.313 144.352C588.313 143.475 588.093 142.676 587.655 141.955C587.216 141.234 586.652 140.655 585.963 140.216L579.806 136.55C578.02 135.547 576.594 134.278 575.529 132.743C574.463 131.208 573.931 129.484 573.931 127.573C573.931 125.536 574.401 123.719 575.341 122.121C576.312 120.523 577.612 119.285 579.242 118.408C580.902 117.531 582.767 117.092 584.835 117.092C587.247 117.092 589.3 117.687 590.992 118.878C592.684 120.069 593.937 121.839 594.752 124.189L588.924 126.821C588.798 126.57 588.532 126.006 588.125 125.129C587.717 124.252 587.216 123.625 586.621 123.249C586.057 122.842 585.352 122.638 584.506 122.638C583.472 122.638 582.673 122.967 582.109 123.625C581.576 124.283 581.31 125.129 581.31 126.163C581.31 126.915 581.513 127.604 581.921 128.231C582.359 128.826 582.876 129.296 583.472 129.641L589.159 132.978C593.357 135.359 595.566 138.493 595.786 142.378C595.786 144.603 595.284 146.577 594.282 148.3C593.31 149.992 591.963 151.308 590.24 152.248C588.548 153.188 586.652 153.658 584.553 153.658Z" fill="#73FFF6"/>
</g>
<path d="M483.356 83.048V91H455.804V84.28C460.21 81.6667 464.242 78.6427 467.9 75.208C471.596 71.7733 473.444 68.2453 473.444 64.624C473.444 63.168 473.071 61.992 472.324 61.096C471.615 60.1627 470.514 59.696 469.02 59.696C465.735 59.696 463.924 62.0667 463.588 66.808L455.3 66.136C455.3 63.784 455.842 61.488 456.924 59.248C458.044 56.9707 459.65 55.1227 461.74 53.704C463.868 52.248 466.37 51.52 469.244 51.52C471.671 51.52 473.836 52.0613 475.74 53.144C477.644 54.1893 479.138 55.6827 480.22 57.624C481.303 59.5653 481.844 61.8053 481.844 64.344C481.844 66.5467 481.303 68.824 480.22 71.176C479.175 73.528 477.7 75.7493 475.796 77.84C473.892 79.9307 471.727 81.6667 469.3 83.048H483.356ZM503.282 91.56C497.533 91.56 493.725 89.5813 491.858 85.624C490.029 81.6667 489.114 76.8693 489.114 71.232C489.114 65.7813 490.029 61.096 491.858 57.176C493.688 53.256 497.496 51.296 503.282 51.296C509.069 51.296 512.877 53.2747 514.706 57.232C516.536 61.152 517.45 65.8187 517.45 71.232C517.45 76.8693 516.517 81.6667 514.65 85.624C512.821 89.5813 509.032 91.56 503.282 91.56ZM503.282 83.496C505.522 83.496 506.997 82.4507 507.706 80.36C508.453 78.2693 508.826 75.32 508.826 71.512C508.826 67.592 508.453 64.6053 507.706 62.552C506.997 60.4613 505.522 59.416 503.282 59.416C501.042 59.416 499.549 60.4613 498.802 62.552C498.093 64.6053 497.738 67.592 497.738 71.512C497.738 75.32 498.093 78.2693 498.802 80.36C499.549 82.4507 501.042 83.496 503.282 83.496ZM537.151 91.56C531.402 91.56 527.594 89.5813 525.727 85.624C523.898 81.6667 522.983 76.8693 522.983 71.232C522.983 65.7813 523.898 61.096 525.727 57.176C527.556 53.256 531.364 51.296 537.151 51.296C542.938 51.296 546.746 53.2747 548.575 57.232C550.404 61.152 551.319 65.8187 551.319 71.232C551.319 76.8693 550.386 81.6667 548.519 85.624C546.69 89.5813 542.9 91.56 537.151 91.56ZM537.151 83.496C539.391 83.496 540.866 82.4507 541.575 80.36C542.322 78.2693 542.695 75.32 542.695 71.512C542.695 67.592 542.322 64.6053 541.575 62.552C540.866 60.4613 539.391 59.416 537.151 59.416C534.911 59.416 533.418 60.4613 532.671 62.552C531.962 64.6053 531.607 67.592 531.607 71.512C531.607 75.32 531.962 78.2693 532.671 80.36C533.418 82.4507 534.911 83.496 537.151 83.496ZM406.846 107.968H420.566C429.6 107.968 434.118 111.795 434.118 119.448C434.118 123.331 432.96 126.28 430.646 128.296C428.368 130.312 425.008 131.32 420.566 131.32H415.582V147H406.846V107.968ZM419.67 123.256C421.648 123.256 423.086 123.013 423.982 122.528C424.878 122.005 425.326 121.016 425.326 119.56C425.326 118.141 424.896 117.208 424.038 116.76C423.179 116.275 421.723 116.032 419.67 116.032H415.582V123.256H419.67ZM452.76 118.776C454.627 118.776 456.475 119.373 458.304 120.568L454.272 128.184C453.861 127.923 453.32 127.699 452.648 127.512C451.976 127.288 451.323 127.176 450.688 127.176C449.157 127.176 447.944 127.755 447.048 128.912C446.189 130.069 445.76 131.824 445.76 134.176V147H437.304V119.392H445.816V123.592C446.451 122.136 447.384 120.979 448.616 120.12C449.885 119.224 451.267 118.776 452.76 118.776ZM470.955 147.616C468.08 147.616 465.56 146.963 463.395 145.656C461.23 144.312 459.568 142.539 458.411 140.336C457.291 138.133 456.731 135.744 456.731 133.168C456.731 130.592 457.291 128.221 458.411 126.056C459.568 123.853 461.211 122.099 463.339 120.792C465.504 119.448 468.043 118.776 470.955 118.776C473.83 118.776 476.331 119.429 478.459 120.736C480.624 122.043 482.267 123.797 483.387 126C484.544 128.203 485.123 130.592 485.123 133.168C485.123 135.707 484.544 138.096 483.387 140.336C482.23 142.539 480.568 144.312 478.403 145.656C476.275 146.963 473.792 147.616 470.955 147.616ZM470.955 140.28C473.046 140.28 474.52 139.608 475.379 138.264C476.238 136.92 476.667 135.221 476.667 133.168C476.667 131.115 476.238 129.435 475.379 128.128C474.52 126.784 473.046 126.112 470.955 126.112C468.864 126.112 467.371 126.784 466.475 128.128C465.616 129.435 465.187 131.115 465.187 133.168C465.187 135.184 465.616 136.883 466.475 138.264C467.334 139.608 468.827 140.28 470.955 140.28ZM490.355 159.04C488.601 159.04 486.827 158.741 485.035 158.144L484.979 151.424C485.913 151.611 486.659 151.704 487.219 151.704C487.966 151.704 488.507 151.573 488.843 151.312C489.179 151.051 489.347 150.472 489.347 149.576V119.392H497.803V151.368C497.803 153.907 497.131 155.811 495.787 157.08C494.443 158.387 492.633 159.04 490.355 159.04ZM489.291 107.968H497.915V115.584H489.291V107.968ZM528.928 133.448C528.928 134.045 528.872 134.941 528.76 136.136H510.616C510.802 137.293 511.362 138.227 512.296 138.936C513.229 139.645 514.554 140 516.272 140C517.354 140 518.4 139.776 519.408 139.328C520.453 138.88 521.349 138.208 522.096 137.312L527.92 142.464C524.896 145.899 520.994 147.616 516.216 147.616C513.005 147.616 510.336 146.944 508.208 145.6C506.117 144.256 504.586 142.52 503.616 140.392C502.645 138.227 502.16 135.875 502.16 133.336C502.16 130.872 502.626 128.539 503.56 126.336C504.53 124.096 506.024 122.285 508.04 120.904C510.093 119.485 512.669 118.776 515.768 118.776C519.949 118.776 523.178 120.12 525.456 122.808C527.77 125.496 528.928 129.043 528.928 133.448ZM520.864 129.92C520.826 128.651 520.304 127.643 519.296 126.896C518.325 126.149 517.112 125.776 515.656 125.776C514.05 125.776 512.837 126.187 512.016 127.008C511.232 127.829 510.728 128.8 510.504 129.92H520.864ZM520.808 130.928L520.752 130.984L520.808 130.928ZM544.775 147.616C541.713 147.616 539.137 146.944 537.047 145.6C534.956 144.219 533.388 142.445 532.343 140.28C531.335 138.077 530.831 135.744 530.831 133.28C530.831 130.741 531.353 128.371 532.399 126.168C533.444 123.965 535.012 122.192 537.103 120.848C539.193 119.467 541.732 118.776 544.719 118.776C547.668 118.776 550.207 119.485 552.335 120.904C554.463 122.285 556.031 124.376 557.039 127.176L549.087 130.368C548.9 129.099 548.396 128.072 547.575 127.288C546.791 126.504 545.839 126.112 544.719 126.112C542.889 126.112 541.564 126.803 540.743 128.184C539.921 129.565 539.511 131.264 539.511 133.28C539.511 135.296 539.903 136.976 540.687 138.32C541.508 139.627 542.833 140.28 544.663 140.28C545.745 140.28 546.697 139.907 547.519 139.16C548.34 138.413 548.881 137.424 549.143 136.192L556.759 139.16C555.825 141.773 554.295 143.845 552.167 145.376C550.076 146.869 547.612 147.616 544.775 147.616ZM570.286 125.944V137.424C570.286 138.357 570.492 139.16 570.902 139.832C571.313 140.467 572.265 140.784 573.758 140.784C574.841 140.784 576.036 140.579 577.342 140.168L577.286 146.72C575.532 147.317 573.684 147.616 571.742 147.616C568.83 147.616 566.46 146.869 564.63 145.376C562.801 143.883 561.886 141.493 561.886 138.208V125.944H557.462V119.392H561.886V114.184L570.286 107.968V119.392H577.342V125.944H570.286ZM591.944 147.616C590.003 147.616 588.211 147.243 586.568 146.496C584.963 145.749 583.6 144.76 582.48 143.528C581.397 142.296 580.632 140.989 580.184 139.608L586.848 136.64C587.184 137.536 587.483 138.245 587.744 138.768C588.005 139.291 588.472 139.776 589.144 140.224C589.816 140.672 590.731 140.896 591.888 140.896C592.971 140.896 593.736 140.709 594.184 140.336C594.669 139.963 594.912 139.533 594.912 139.048C594.912 138.413 594.557 137.909 593.848 137.536C593.176 137.125 592.075 136.677 590.544 136.192C588.752 135.632 587.259 135.072 586.064 134.512C584.869 133.915 583.843 133.037 582.984 131.88C582.125 130.723 581.696 129.229 581.696 127.4C581.696 124.525 582.723 122.379 584.776 120.96C586.829 119.504 589.275 118.776 592.112 118.776C594.576 118.776 596.723 119.317 598.552 120.4C600.381 121.483 601.875 122.976 603.032 124.88L596.536 128.464C595.976 127.419 595.379 126.579 594.744 125.944C594.109 125.309 593.195 124.992 592 124.992C591.253 124.992 590.675 125.141 590.264 125.44C589.853 125.701 589.648 126.075 589.648 126.56C589.648 127.157 589.984 127.624 590.656 127.96C591.328 128.296 592.392 128.632 593.848 128.968C595.715 129.453 597.264 129.957 598.496 130.48C599.765 131.003 600.867 131.861 601.8 133.056C602.733 134.251 603.2 135.856 603.2 137.872C603.2 140.037 602.64 141.867 601.52 143.36C600.437 144.816 599.019 145.899 597.264 146.608C595.547 147.28 593.773 147.616 591.944 147.616Z" fill="#D0FFFF"/>
<g style="mix-blend-mode:overlay">
<path d="M1022 162H738L823.726 463H934.17L1022 162Z" fill="url(#paint4_linear_577_658)"/>
</g>
<rect x="740" y="18" width="280" height="160" rx="7" fill="#57EAEF" fill-opacity="0.3" stroke="url(#paint5_linear_577_658)" stroke-width="4"/>
<g filter="url(#filter2_f_577_658)">
<path d="M841.84 88.658C839.239 88.658 836.968 88.0313 835.025 86.778C833.082 85.4933 831.798 83.6133 831.171 81.138L836.2 78.929C836.733 80.433 837.438 81.514 838.315 82.172C839.224 82.7987 840.289 83.112 841.511 83.112C842.702 83.112 843.689 82.6733 844.472 81.796C845.255 80.9187 845.647 79.6183 845.647 77.895C845.647 75.6703 844.989 74.182 843.673 73.43C842.388 72.6467 840.555 72.255 838.174 72.255V67.649C840.179 67.649 841.824 67.1477 843.109 66.145C844.425 65.1423 845.099 63.654 845.13 61.68V61.633C845.13 60.3797 844.738 59.3927 843.955 58.672C843.172 57.9513 842.247 57.591 841.182 57.591C840.242 57.591 839.365 57.8887 838.55 58.484C837.735 59.048 837.124 59.8783 836.717 60.975L832.017 58.296C833.051 56.134 834.414 54.5673 836.106 53.596C837.798 52.5933 839.803 52.092 842.122 52.092C843.783 52.092 845.349 52.4523 846.822 53.173C848.295 53.8623 849.485 54.8963 850.394 56.275C851.334 57.6223 851.804 59.236 851.804 61.116C851.804 63.1527 851.303 64.8917 850.3 66.333C849.297 67.743 847.825 68.777 845.882 69.435C847.856 70.0617 849.407 71.174 850.535 72.772C851.694 74.3387 852.274 76.2657 852.274 78.553C852.274 80.6523 851.788 82.4697 850.817 84.005C849.846 85.509 848.561 86.6683 846.963 87.483C845.396 88.2663 843.689 88.658 841.84 88.658ZM868.739 88.658C864.665 88.658 861.845 86.872 860.279 83.3C858.712 79.6967 857.929 75.357 857.929 70.281C857.929 65.2363 858.696 60.9437 860.232 57.403C861.798 53.8623 864.634 52.092 868.739 52.092C872.843 52.092 875.679 53.8623 877.246 57.403C878.844 60.9437 879.643 65.2207 879.643 70.234C879.643 75.31 878.844 79.6497 877.246 83.253C875.679 86.8563 872.843 88.658 868.739 88.658ZM868.739 83.112C869.741 83.112 870.54 82.7517 871.136 82.031C871.762 81.3103 872.232 79.9317 872.546 77.895C872.859 75.8583 873.016 72.913 873.016 69.059C873.016 65.3617 872.734 62.5417 872.17 60.599C871.637 58.625 870.493 57.638 868.739 57.638C866.984 57.638 865.84 58.5937 865.308 60.505C864.806 62.385 864.556 65.0483 864.556 68.495C864.556 72.5057 864.697 75.5607 864.979 77.66C865.261 79.7593 865.699 81.2007 866.295 81.984C866.89 82.736 867.705 83.112 868.739 83.112ZM895.975 88.658C891.901 88.658 889.081 86.872 887.515 83.3C885.948 79.6967 885.165 75.357 885.165 70.281C885.165 65.2363 885.932 60.9437 887.468 57.403C889.034 53.8623 891.87 52.092 895.975 52.092C900.079 52.092 902.915 53.8623 904.482 57.403C906.08 60.9437 906.879 65.2207 906.879 70.234C906.879 75.31 906.08 79.6497 904.482 83.253C902.915 86.8563 900.079 88.658 895.975 88.658ZM895.975 83.112C896.977 83.112 897.776 82.7517 898.372 82.031C898.998 81.3103 899.468 79.9317 899.782 77.895C900.095 75.8583 900.252 72.913 900.252 69.059C900.252 65.3617 899.97 62.5417 899.406 60.599C898.873 58.625 897.729 57.638 895.975 57.638C894.22 57.638 893.076 58.5937 892.544 60.505C892.042 62.385 891.792 65.0483 891.792 68.495C891.792 72.5057 891.933 75.5607 892.215 77.66C892.497 79.7593 892.935 81.2007 893.531 81.984C894.126 82.736 894.941 83.112 895.975 83.112ZM917.242 87.53V82.031H911.743V76.579H917.242V71.08H922.741V76.579H928.24V82.031H922.741V87.53H917.242ZM791.273 155.282V120.314L798.182 119.75V134.038H804.762V120.314L811.671 119.75V154.718L804.762 155.282V140.336H798.182V154.718L791.273 155.282ZM816.655 155L824.081 120.173L833.904 119.75L841.518 154.718L833.998 155L832.729 147.433H824.316L822.812 155H816.655ZM825.585 141.793H831.46L828.217 124.92L825.585 141.793ZM856.021 155.658C851.979 155.658 849.128 153.825 847.467 150.159C845.838 146.493 845.023 141.981 845.023 136.623C845.023 133.74 845.399 130.967 846.151 128.304C846.903 125.641 848.11 123.447 849.77 121.724C851.462 119.969 853.593 119.092 856.162 119.092C858.136 119.092 859.86 119.703 861.332 120.925C862.836 122.147 863.98 123.745 864.763 125.719C865.578 127.662 865.985 129.698 865.985 131.829L859.311 132.158C859.311 130.748 859.076 129.15 858.606 127.364C858.136 125.547 857.196 124.638 855.786 124.638C854.314 124.638 853.295 125.813 852.731 128.163C852.167 130.513 851.885 133.333 851.885 136.623C851.885 140.696 852.199 143.971 852.825 146.446C853.452 148.89 854.658 150.112 856.444 150.112C857.698 150.112 858.591 149.376 859.123 147.903C859.656 146.399 860.001 144.582 860.157 142.451L866.032 143.015C866.032 145.271 865.656 147.37 864.904 149.313C864.152 151.224 863.024 152.76 861.52 153.919C860.016 155.078 858.183 155.658 856.021 155.658ZM887.807 155.611L881.697 139.208L879.018 143.861V155H872.109V120.314L879.018 119.75V135.166L887.384 119.75H894.716L887.149 134.32L894.81 154.013L887.807 155.611ZM899.712 155V119.75H917.619L917.055 125.249H906.621V133.662H914.047L914 139.584H906.621V149.501H917.995L917.431 155H899.712ZM933.093 139.537H930.414V154.718L923.552 155.282V120.032L931.918 119.75C935.96 119.75 939.124 120.565 941.412 122.194C943.699 123.792 944.843 126.252 944.843 129.573C944.843 131.766 944.404 133.568 943.527 134.978C942.681 136.388 941.443 137.563 939.814 138.503L942.963 146.164L946.159 153.778L939.391 155.611L933.093 139.537ZM932.764 134.461C934.393 134.461 935.662 134.132 936.571 133.474C937.511 132.785 937.981 131.5 937.981 129.62C937.981 126.706 936.539 125.249 933.657 125.249H930.414V134.461H932.764ZM960.553 155.658C957.701 155.658 955.289 154.875 953.315 153.308C951.372 151.71 949.946 149.579 949.038 146.916L954.866 144.19L955.43 145.13C956.338 146.697 957.2 147.919 958.015 148.796C958.861 149.673 959.91 150.112 961.164 150.112C961.978 150.112 962.699 149.72 963.326 148.937C963.984 148.154 964.313 147.292 964.313 146.352C964.313 145.475 964.093 144.676 963.655 143.955C963.216 143.234 962.652 142.655 961.963 142.216L955.806 138.55C954.02 137.547 952.594 136.278 951.529 134.743C950.463 133.208 949.931 131.484 949.931 129.573C949.931 127.536 950.401 125.719 951.341 124.121C952.312 122.523 953.612 121.285 955.242 120.408C956.902 119.531 958.767 119.092 960.835 119.092C963.247 119.092 965.3 119.687 966.992 120.878C968.684 122.069 969.937 123.839 970.752 126.189L964.924 128.821C964.798 128.57 964.532 128.006 964.125 127.129C963.717 126.252 963.216 125.625 962.621 125.249C962.057 124.842 961.352 124.638 960.506 124.638C959.472 124.638 958.673 124.967 958.109 125.625C957.576 126.283 957.31 127.129 957.31 128.163C957.31 128.915 957.513 129.604 957.921 130.231C958.359 130.826 958.876 131.296 959.472 131.641L965.159 134.978C969.357 137.359 971.566 140.493 971.786 144.378C971.786 146.603 971.284 148.577 970.282 150.3C969.31 151.992 967.963 153.308 966.24 154.248C964.548 155.188 962.652 155.658 960.553 155.658Z" fill="#73FFF6"/>
</g>
<path d="M872.119 73.808V51.968H864.839L846.191 76.944V81.872H863.663V91H872.119V81.872H878.279V73.808H872.119ZM856.719 73.808L863.663 64.064V73.808H856.719ZM897.028 63.728C895.684 63.728 894.06 63.84 892.38 64.624L893.276 60.032H909.012V51.968H886.388L882.468 72.744L890.252 74.648C891.148 73.136 892.828 71.624 895.852 71.624C900.332 71.624 901.732 74.424 901.732 77.168C901.732 80.08 900.276 83.552 895.852 83.552C891.54 83.552 889.748 80.36 889.636 78.064L881.348 79.464C882.188 86.184 888.236 91.616 895.964 91.616C904.644 91.616 910.692 84.616 910.692 77.168C910.692 70.112 905.204 63.728 897.028 63.728ZM807.961 107.968L799.449 132.944L791.105 107.968H778.561V147H787.353V120.736L795.305 143.472H803.761L811.713 120.624V147H820.505V107.968H807.961ZM852.248 133.448C852.248 124.936 847.712 118.776 839.088 118.776C829.232 118.776 825.48 126.448 825.48 133.336C825.48 140.448 829.344 147.616 839.536 147.616C844.408 147.616 848.328 145.768 851.24 142.464L845.416 137.312C843.848 139.216 841.664 140 839.592 140C835.952 140 834.272 138.32 833.936 136.136H852.08C852.192 134.96 852.248 134.232 852.248 133.448ZM833.824 129.92C834.16 128.128 835.448 125.776 838.976 125.776C841.776 125.776 844.072 127.344 844.184 129.92H833.824ZM844.072 130.984L844.128 130.928L844.072 130.984ZM872.911 118.776C869.999 118.776 867.143 119.448 865.071 121.968V119.392H856.615V147H865.071V134.12C865.071 131.096 865.071 126.112 870.279 126.112C874.647 126.112 874.647 129.64 874.647 131.768V147H883.103V128.632C883.103 122.584 879.295 118.776 872.911 118.776ZM905.803 125.944V119.392H898.747V107.968L890.347 114.184V119.392H885.923V125.944H890.347V138.208C890.347 145.264 894.995 147.616 900.203 147.616C902.163 147.616 903.955 147.336 905.747 146.72L905.803 140.168C904.571 140.56 903.339 140.784 902.219 140.784C898.747 140.784 898.747 138.488 898.747 137.424V125.944H905.803ZM922.33 147.616C931.178 147.616 936.498 140.728 936.498 133.168C936.498 125.552 931.234 118.776 922.33 118.776C913.314 118.776 908.106 125.608 908.106 133.168C908.106 140.728 913.37 147.616 922.33 147.616ZM922.33 140.28C917.682 140.28 916.562 136.528 916.562 133.168C916.562 129.64 917.738 126.112 922.33 126.112C926.922 126.112 928.042 129.696 928.042 133.168C928.042 136.64 926.866 140.28 922.33 140.28ZM956.122 118.776C953.154 118.776 950.466 120.68 949.178 123.592V119.392H940.666V147H949.122V134.176C949.122 129.304 951.082 127.176 954.05 127.176C955.394 127.176 956.85 127.68 957.634 128.184L961.666 120.568C959.706 119.28 958.026 118.776 956.122 118.776ZM972.228 147.616C977.38 147.616 983.484 144.816 983.484 137.872C983.484 127.456 969.932 130.2 969.932 126.56C969.932 125.664 970.716 124.992 972.284 124.992C975.028 124.992 976.148 127.232 976.82 128.464L983.316 124.88C981.132 121.24 977.492 118.776 972.396 118.776C967.412 118.776 961.98 121.184 961.98 127.4C961.98 137.144 975.196 135.24 975.196 139.048C975.196 139.888 974.524 140.896 972.172 140.896C968.42 140.896 967.692 138.152 967.132 136.64L960.468 139.608C961.756 143.64 966.124 147.616 972.228 147.616Z" fill="#D0FFFF"/>
<defs>
<filter id="filter0_f_577_658" x="3.27246" y="0.092041" width="280.513" height="203.566" filterUnits="userSpaceOnUse" color-interpolation-filters="sRGB">
<feFlood flood-opacity="0" result="BackgroundImageFix"/>
<feBlend mode="normal" in="SourceGraphic" in2="BackgroundImageFix" result="shape"/>
<feGaussianBlur stdDeviation="25" result="effect1_foregroundBlur_577_658"/>
</filter>
<filter id="filter1_f_577_658" x="365.272" y="0.092041" width="280.513" height="203.566" filterUnits="userSpaceOnUse" color-interpolation-filters="sRGB">
<feFlood flood-opacity="0" result="BackgroundImageFix"/>
<feBlend mode="normal" in="SourceGraphic" in2="BackgroundImageFix" result="shape"/>
<feGaussianBlur stdDeviation="25" result="effect1_foregroundBlur_577_658"/>
</filter>
<filter id="filter2_f_577_658" x="741.272" y="2.09204" width="280.513" height="203.566" filterUnits="userSpaceOnUse" color-interpolation-filters="sRGB">
<feFlood flood-opacity="0" result="BackgroundImageFix"/>
<feBlend mode="normal" in="SourceGraphic" in2="BackgroundImageFix" result="shape"/>
<feGaussianBlur stdDeviation="25" result="effect1_foregroundBlur_577_658"/>
</filter>
<linearGradient id="paint0_linear_577_658" x1="142" y1="162" x2="142" y2="551.849" gradientUnits="userSpaceOnUse">
<stop offset="0.0525876" stop-color="#BDFFFF" stop-opacity="0"/>
<stop offset="1" stop-color="#BCFCF8"/>
</linearGradient>
<linearGradient id="paint1_linear_577_658" x1="142" y1="16" x2="142" y2="180" gradientUnits="userSpaceOnUse">
<stop stop-color="#BCFCE5"/>
<stop offset="1" stop-color="#57EAEF"/>
</linearGradient>
<linearGradient id="paint2_linear_577_658" x1="504" y1="162" x2="504" y2="551.849" gradientUnits="userSpaceOnUse">
<stop offset="0.0525876" stop-color="#BDFFFF" stop-opacity="0"/>
<stop offset="1" stop-color="#BCFCF8"/>
</linearGradient>
<linearGradient id="paint3_linear_577_658" x1="504" y1="16" x2="504" y2="180" gradientUnits="userSpaceOnUse">
<stop stop-color="#BCFCE5"/>
<stop offset="1" stop-color="#57EAEF"/>
</linearGradient>
<linearGradient id="paint4_linear_577_658" x1="880" y1="162" x2="880" y2="551.849" gradientUnits="userSpaceOnUse">
<stop offset="0.0525876" stop-color="#BDFFFF" stop-opacity="0"/>
<stop offset="1" stop-color="#BCFCF8"/>
</linearGradient>
<linearGradient id="paint5_linear_577_658" x1="880" y1="16" x2="880" y2="180" gradientUnits="userSpaceOnUse">
<stop stop-color="#BCFCE5"/>
<stop offset="1" stop-color="#57EAEF"/>
</linearGradient>
</defs>
</svg>
