<svg width="955" height="290" viewBox="0 0 955 290" fill="none" xmlns="http://www.w3.org/2000/svg">
<rect y="144.957" width="205" height="205" rx="50" transform="rotate(-45 0 144.957)" fill="#5F5C83" fill-opacity="0.75"/>
<path d="M104.932 119.41C104.932 121.79 104.204 123.806 102.748 125.458C101.32 127.082 99.416 128.132 97.036 128.608V133.144L92.416 133.186V128.65C89.924 128.258 87.824 127.278 86.116 125.71C84.436 124.142 83.414 122.168 83.05 119.788L88.93 118.318C89.098 119.998 89.686 121.3 90.694 122.224C91.73 123.12 93.046 123.568 94.642 123.568C95.958 123.568 97.008 123.26 97.792 122.644C98.604 122 99.01 121.104 99.01 119.956C99.01 119.116 98.604 118.374 97.792 117.73C96.98 117.058 95.552 116.316 93.508 115.504C91.408 114.664 89.756 113.824 88.552 112.984C87.348 112.144 86.466 111.206 85.906 110.17C85.374 109.106 85.108 107.846 85.108 106.39C85.108 104.29 85.766 102.526 87.082 101.098C88.398 99.6705 90.176 98.7745 92.416 98.4105V94.2945H97.036V98.5365C99.92 99.1805 102.076 100.916 103.504 103.744L98.59 106.81C98.142 105.746 97.54 104.934 96.784 104.374C96.028 103.786 95.188 103.492 94.264 103.492C93.368 103.492 92.598 103.758 91.954 104.29C91.338 104.822 91.03 105.48 91.03 106.264C91.03 107.104 91.422 107.846 92.206 108.49C92.99 109.106 94.46 109.834 96.616 110.674C98.744 111.514 100.396 112.34 101.572 113.152C102.776 113.936 103.63 114.832 104.134 115.84C104.666 116.82 104.932 118.01 104.932 119.41ZM123.757 98.9565V128.23H118.087V108.07H111.367V103.492H114.979C116.043 103.492 116.827 103.268 117.331 102.82C117.835 102.344 118.087 101.574 118.087 100.51V98.9565H123.757ZM154.621 122.854V128.23H134.041V123.61C143.197 118.094 147.775 112.97 147.775 108.238C147.775 106.978 147.453 105.97 146.809 105.214C146.193 104.458 145.255 104.08 143.995 104.08C142.427 104.08 141.293 104.64 140.593 105.76C139.921 106.88 139.543 108.238 139.459 109.834L133.873 109.414C133.873 107.594 134.265 105.858 135.049 104.206C135.861 102.554 137.037 101.21 138.577 100.174C140.145 99.1105 141.993 98.5785 144.121 98.5785C145.913 98.5785 147.509 98.9705 148.909 99.7545C150.337 100.538 151.443 101.644 152.227 103.072C153.039 104.472 153.445 106.096 153.445 107.944C153.445 109.792 152.983 111.668 152.059 113.572C151.163 115.448 149.945 117.198 148.405 118.822C146.865 120.446 145.171 121.79 143.323 122.854H154.621ZM169.608 128.65C165.436 128.65 162.65 127.18 161.25 124.24C159.878 121.272 159.192 117.688 159.192 113.488C159.192 109.316 159.864 105.774 161.208 102.862C162.58 99.9225 165.324 98.4525 169.44 98.4525C173.444 98.4525 176.174 99.9225 177.63 102.862C179.086 105.774 179.814 109.33 179.814 113.53C179.814 123.61 176.412 128.65 169.608 128.65ZM169.524 123.19C170.784 123.19 171.736 122.756 172.38 121.888C173.024 120.992 173.43 119.872 173.598 118.528C173.794 117.184 173.892 115.532 173.892 113.572C173.892 111.556 173.794 109.876 173.598 108.532C173.43 107.188 173.01 106.082 172.338 105.214C171.694 104.346 170.728 103.912 169.44 103.912C168.152 103.912 167.186 104.346 166.542 105.214C165.898 106.082 165.478 107.202 165.282 108.574C165.114 109.918 165.03 111.598 165.03 113.614C165.03 115.574 165.114 117.226 165.282 118.57C165.478 119.886 165.898 120.992 166.542 121.888C167.214 122.756 168.208 123.19 169.524 123.19ZM194.844 128.65C190.672 128.65 187.886 127.18 186.486 124.24C185.114 121.272 184.428 117.688 184.428 113.488C184.428 109.316 185.1 105.774 186.444 102.862C187.816 99.9225 190.56 98.4525 194.676 98.4525C198.68 98.4525 201.41 99.9225 202.866 102.862C204.322 105.774 205.05 109.33 205.05 113.53C205.05 123.61 201.648 128.65 194.844 128.65ZM194.76 123.19C196.02 123.19 196.972 122.756 197.616 121.888C198.26 120.992 198.666 119.872 198.834 118.528C199.03 117.184 199.128 115.532 199.128 113.572C199.128 111.556 199.03 109.876 198.834 108.532C198.666 107.188 198.246 106.082 197.574 105.214C196.93 104.346 195.964 103.912 194.676 103.912C193.388 103.912 192.422 104.346 191.778 105.214C191.134 106.082 190.714 107.202 190.518 108.574C190.35 109.918 190.266 111.598 190.266 113.614C190.266 115.574 190.35 117.226 190.518 118.57C190.714 119.886 191.134 120.992 191.778 121.888C192.45 122.756 193.444 123.19 194.76 123.19Z" fill="white"/>
<path d="M103.405 150.684H107.041C109.117 150.684 110.725 151.242 111.865 152.358C113.005 153.462 113.575 155.028 113.575 157.056C113.575 159.06 113.011 160.59 111.883 161.646C110.767 162.702 109.147 163.23 107.023 163.23H103.405V150.684ZM106.807 161.16C108.391 161.16 109.537 160.83 110.245 160.17C110.953 159.51 111.307 158.442 111.307 156.966C111.307 155.514 110.959 154.452 110.263 153.78C109.579 153.096 108.493 152.754 107.005 152.754H105.655V161.16H106.807ZM118.803 163.41C117.915 163.41 117.129 163.206 116.445 162.798C115.773 162.378 115.257 161.814 114.897 161.106C114.537 160.398 114.357 159.624 114.357 158.784C114.357 157.944 114.537 157.176 114.897 156.48C115.257 155.772 115.773 155.214 116.445 154.806C117.129 154.386 117.915 154.176 118.803 154.176C119.691 154.176 120.471 154.386 121.143 154.806C121.815 155.214 122.331 155.772 122.691 156.48C123.063 157.176 123.249 157.944 123.249 158.784C123.249 159.624 123.063 160.398 122.691 161.106C122.331 161.814 121.815 162.378 121.143 162.798C120.471 163.206 119.691 163.41 118.803 163.41ZM118.803 161.52C119.571 161.52 120.141 161.262 120.513 160.746C120.897 160.23 121.089 159.576 121.089 158.784C121.089 157.992 120.897 157.344 120.513 156.84C120.141 156.324 119.571 156.066 118.803 156.066C118.035 156.066 117.459 156.324 117.075 156.84C116.703 157.344 116.517 157.992 116.517 158.784C116.517 159.576 116.703 160.23 117.075 160.746C117.459 161.262 118.035 161.52 118.803 161.52ZM129.387 154.176C130.383 154.176 131.151 154.47 131.691 155.058C132.243 155.634 132.519 156.45 132.519 157.506V163.23H130.359V158.046C130.359 157.506 130.263 157.044 130.071 156.66C129.879 156.264 129.429 156.066 128.721 156.066C128.097 156.066 127.635 156.246 127.335 156.606C127.047 156.954 126.867 157.374 126.795 157.866C126.735 158.346 126.705 158.952 126.705 159.684V163.23H124.545V154.356H126.705V155.382C127.005 154.974 127.383 154.674 127.839 154.482C128.307 154.278 128.823 154.176 129.387 154.176ZM137.854 154.176C139.03 154.176 139.954 154.488 140.626 155.112C141.31 155.724 141.652 156.564 141.652 157.632V163.23H139.672L139.492 162.078C139.228 162.498 138.856 162.828 138.376 163.068C137.908 163.296 137.38 163.41 136.792 163.41C136.18 163.41 135.628 163.29 135.136 163.05C134.656 162.798 134.278 162.45 134.002 162.006C133.726 161.562 133.588 161.064 133.588 160.512C133.588 159.984 133.702 159.528 133.93 159.144C134.158 158.76 134.488 158.472 134.92 158.28C135.496 158.016 136.282 157.884 137.278 157.884H139.492V157.632C139.492 157.152 139.342 156.774 139.042 156.498C138.742 156.21 138.334 156.066 137.818 156.066C137.362 156.066 136.93 156.18 136.522 156.408C136.114 156.636 135.748 156.966 135.424 157.398L133.858 156.084C134.914 154.812 136.246 154.176 137.854 154.176ZM137.134 161.574C137.782 161.574 138.334 161.376 138.79 160.98C139.258 160.572 139.492 160.08 139.492 159.504H137.566C136.87 159.504 136.384 159.606 136.108 159.81C135.868 159.978 135.748 160.224 135.748 160.548C135.748 160.86 135.868 161.112 136.108 161.304C136.36 161.484 136.702 161.574 137.134 161.574ZM145.963 156.066V160.584C145.963 160.932 146.059 161.19 146.251 161.358C146.455 161.526 146.737 161.61 147.097 161.61C147.397 161.61 147.757 161.544 148.177 161.412V163.14C147.637 163.32 147.097 163.41 146.557 163.41C145.753 163.41 145.093 163.194 144.577 162.762C144.061 162.318 143.803 161.646 143.803 160.746V156.066H142.363V154.356H143.803V152.286L145.963 150.684V154.356H148.177V156.066H145.963ZM157.112 158.676C157.112 158.94 157.094 159.216 157.058 159.504H150.974C151.022 160.104 151.232 160.578 151.604 160.926C151.976 161.274 152.504 161.448 153.188 161.448C154.052 161.448 154.76 161.13 155.312 160.494L156.806 161.808C156.314 162.348 155.768 162.75 155.168 163.014C154.58 163.278 153.914 163.41 153.17 163.41C152.198 163.41 151.382 163.2 150.722 162.78C150.074 162.36 149.594 161.808 149.282 161.124C148.97 160.428 148.814 159.666 148.814 158.838C148.814 158.022 148.964 157.26 149.264 156.552C149.576 155.844 150.044 155.274 150.668 154.842C151.304 154.398 152.09 154.176 153.026 154.176C153.914 154.176 154.664 154.374 155.276 154.77C155.888 155.166 156.344 155.706 156.644 156.39C156.956 157.074 157.112 157.836 157.112 158.676ZM155.042 157.794C155.03 157.242 154.832 156.804 154.448 156.48C154.064 156.144 153.584 155.976 153.008 155.976C152.396 155.976 151.916 156.156 151.568 156.516C151.232 156.864 151.028 157.29 150.956 157.794H155.042ZM166.232 150.684V163.23H164.072V162.348C163.784 162.708 163.412 162.978 162.956 163.158C162.5 163.326 162.02 163.41 161.516 163.41C160.34 163.41 159.422 162.984 158.762 162.132C158.102 161.268 157.772 160.152 157.772 158.784C157.772 157.836 157.928 157.014 158.24 156.318C158.564 155.622 159.008 155.094 159.572 154.734C160.136 154.362 160.784 154.176 161.516 154.176C162.02 154.176 162.5 154.272 162.956 154.464C163.424 154.656 163.796 154.92 164.072 155.256V150.684H166.232ZM162.038 161.412C162.782 161.412 163.34 161.172 163.712 160.692C164.084 160.212 164.27 159.582 164.27 158.802C164.27 158.01 164.084 157.368 163.712 156.876C163.34 156.384 162.788 156.138 162.056 156.138C161.348 156.138 160.814 156.372 160.454 156.84C160.106 157.296 159.932 157.95 159.932 158.802C159.932 159.642 160.106 160.29 160.454 160.746C160.802 161.19 161.33 161.412 162.038 161.412ZM174.812 156.066V160.584C174.812 160.932 174.908 161.19 175.1 161.358C175.304 161.526 175.586 161.61 175.946 161.61C176.246 161.61 176.606 161.544 177.026 161.412V163.14C176.486 163.32 175.946 163.41 175.406 163.41C174.602 163.41 173.942 163.194 173.426 162.762C172.91 162.318 172.652 161.646 172.652 160.746V156.066H171.212V154.356H172.652V152.286L174.812 150.684V154.356H177.026V156.066H174.812ZM182.055 163.41C181.167 163.41 180.381 163.206 179.697 162.798C179.025 162.378 178.509 161.814 178.149 161.106C177.789 160.398 177.609 159.624 177.609 158.784C177.609 157.944 177.789 157.176 178.149 156.48C178.509 155.772 179.025 155.214 179.697 154.806C180.381 154.386 181.167 154.176 182.055 154.176C182.943 154.176 183.723 154.386 184.395 154.806C185.067 155.214 185.583 155.772 185.943 156.48C186.315 157.176 186.501 157.944 186.501 158.784C186.501 159.624 186.315 160.398 185.943 161.106C185.583 161.814 185.067 162.378 184.395 162.798C183.723 163.206 182.943 163.41 182.055 163.41ZM182.055 161.52C182.823 161.52 183.393 161.262 183.765 160.746C184.149 160.23 184.341 159.576 184.341 158.784C184.341 157.992 184.149 157.344 183.765 156.84C183.393 156.324 182.823 156.066 182.055 156.066C181.287 156.066 180.711 156.324 180.327 156.84C179.955 157.344 179.769 157.992 179.769 158.784C179.769 159.576 179.955 160.23 180.327 160.746C180.711 161.262 181.287 161.52 182.055 161.52ZM122.298 185.5C121.074 185.5 120 185.236 119.076 184.708C118.164 184.168 117.456 183.406 116.952 182.422C116.46 181.426 116.214 180.268 116.214 178.948C116.214 177.628 116.46 176.476 116.952 175.492C117.456 174.496 118.164 173.734 119.076 173.206C120 172.666 121.074 172.396 122.298 172.396C123.63 172.396 124.776 172.714 125.736 173.35C126.696 173.974 127.404 174.88 127.86 176.068L125.79 176.878C125.514 176.098 125.076 175.516 124.476 175.132C123.888 174.736 123.162 174.538 122.298 174.538C121.086 174.538 120.144 174.922 119.472 175.69C118.8 176.446 118.464 177.526 118.464 178.93C118.464 180.334 118.8 181.426 119.472 182.206C120.144 182.974 121.086 183.358 122.298 183.358C123.162 183.358 123.894 183.16 124.494 182.764C125.094 182.356 125.526 181.756 125.79 180.964L127.896 181.756C127.452 182.968 126.744 183.898 125.772 184.546C124.8 185.182 123.642 185.5 122.298 185.5ZM133.805 176.176C134.801 176.176 135.569 176.464 136.109 177.04C136.661 177.616 136.937 178.438 136.937 179.506V185.23H134.777V180.046C134.777 179.374 134.645 178.876 134.381 178.552C134.117 178.228 133.703 178.066 133.139 178.066C132.431 178.066 131.915 178.354 131.591 178.93C131.279 179.494 131.123 180.412 131.123 181.684V185.23H128.963V172.684H131.123V177.364C131.735 176.572 132.629 176.176 133.805 176.176ZM142.271 176.176C143.447 176.176 144.371 176.488 145.043 177.112C145.727 177.724 146.069 178.564 146.069 179.632V185.23H144.089L143.909 184.078C143.645 184.498 143.273 184.828 142.793 185.068C142.325 185.296 141.797 185.41 141.209 185.41C140.597 185.41 140.045 185.29 139.553 185.05C139.073 184.798 138.695 184.45 138.419 184.006C138.143 183.562 138.005 183.064 138.005 182.512C138.005 181.984 138.119 181.528 138.347 181.144C138.575 180.76 138.905 180.472 139.337 180.28C139.913 180.016 140.699 179.884 141.695 179.884H143.909V179.632C143.909 179.152 143.759 178.774 143.459 178.498C143.159 178.21 142.751 178.066 142.235 178.066C141.779 178.066 141.347 178.18 140.939 178.408C140.531 178.636 140.165 178.966 139.841 179.398L138.275 178.084C139.331 176.812 140.663 176.176 142.271 176.176ZM141.551 183.574C142.199 183.574 142.751 183.376 143.207 182.98C143.675 182.572 143.909 182.08 143.909 181.504H141.983C141.287 181.504 140.801 181.606 140.525 181.81C140.285 181.978 140.165 182.224 140.165 182.548C140.165 182.86 140.285 183.112 140.525 183.304C140.777 183.484 141.119 183.574 141.551 183.574ZM152.467 176.176C153.055 176.176 153.619 176.344 154.159 176.68L153.115 178.588C152.803 178.384 152.443 178.282 152.035 178.282C150.727 178.282 150.073 179.11 150.073 180.766V185.23H147.913V176.356H150.091V177.868C150.271 177.34 150.577 176.926 151.009 176.626C151.453 176.326 151.939 176.176 152.467 176.176ZM154.83 176.356H156.99V185.23H154.83V176.356ZM154.776 172.684H157.044V174.682H154.776V172.684ZM161.596 178.066V182.584C161.596 182.932 161.692 183.19 161.884 183.358C162.088 183.526 162.37 183.61 162.73 183.61C163.03 183.61 163.39 183.544 163.81 183.412V185.14C163.27 185.32 162.73 185.41 162.19 185.41C161.386 185.41 160.726 185.194 160.21 184.762C159.694 184.318 159.436 183.646 159.436 182.746V178.066H157.996V176.356H159.436V174.286L161.596 172.684V176.356H163.81V178.066H161.596ZM167.591 184.996L164.117 176.356H166.493L168.743 182.512L171.011 176.356H173.387L168.347 188.902H166.007L167.591 184.996Z" fill="white"/>
<rect x="332.453" y="144.957" width="205" height="205" rx="50" transform="rotate(-45 332.453 144.957)" fill="#5F5C83" fill-opacity="0.75"/>
<path d="M452.473 105.944C454.433 105.944 456.183 106.406 457.723 107.33C459.263 108.226 460.453 109.444 461.293 110.984C462.161 112.496 462.595 114.148 462.595 115.94C462.595 117.816 462.119 119.58 461.167 121.232C460.243 122.856 458.955 124.172 457.303 125.18C455.651 126.188 453.789 126.692 451.717 126.692C449.869 126.692 448.161 126.3 446.593 125.516C445.025 124.704 443.737 123.612 442.729 122.24C441.749 120.84 441.147 119.314 440.923 117.662L446.509 116.738C446.621 117.914 447.111 118.964 447.979 119.888C448.875 120.784 450.093 121.232 451.633 121.232C453.257 121.232 454.475 120.714 455.287 119.678C456.127 118.614 456.547 117.368 456.547 115.94C456.547 114.596 456.155 113.476 455.371 112.58C454.587 111.684 453.369 111.236 451.717 111.236C449.645 111.236 448.105 112.076 447.097 113.756L441.805 112.454L444.661 96.9564H461.293V102.374H449.323L448.483 106.868C449.659 106.252 450.989 105.944 452.473 105.944ZM487.494 120.854V126.23H466.914V121.61C476.07 116.094 480.648 110.97 480.648 106.238C480.648 104.978 480.326 103.97 479.682 103.214C479.066 102.458 478.128 102.08 476.868 102.08C475.3 102.08 474.166 102.64 473.466 103.76C472.794 104.88 472.416 106.238 472.332 107.834L466.746 107.414C466.746 105.594 467.138 103.858 467.922 102.206C468.734 100.554 469.91 99.2104 471.45 98.1744C473.018 97.1104 474.866 96.5784 476.994 96.5784C478.786 96.5784 480.382 96.9704 481.782 97.7544C483.21 98.5384 484.316 99.6444 485.1 101.072C485.912 102.472 486.318 104.096 486.318 105.944C486.318 107.792 485.856 109.668 484.932 111.572C484.036 113.448 482.818 115.198 481.278 116.822C479.738 118.446 478.044 119.79 476.196 120.854H487.494ZM502.356 126.692C500.34 126.692 498.492 126.342 496.812 125.642C495.132 124.942 493.774 123.906 492.738 122.534C491.73 121.134 491.226 119.44 491.226 117.452C491.226 115.912 491.548 114.54 492.192 113.336C492.864 112.104 493.844 111.096 495.132 110.312C493.452 108.94 492.612 107.162 492.612 104.978C492.612 103.27 493.06 101.772 493.956 100.484C494.852 99.1964 496.042 98.2164 497.526 97.5444C499.038 96.8444 500.648 96.4944 502.356 96.4944C504.064 96.4944 505.66 96.8444 507.144 97.5444C508.656 98.2164 509.86 99.1964 510.756 100.484C511.652 101.772 512.1 103.27 512.1 104.978C512.1 107.162 511.26 108.94 509.58 110.312C510.868 111.096 511.834 112.104 512.478 113.336C513.122 114.54 513.444 115.912 513.444 117.452C513.444 119.44 512.94 121.134 511.932 122.534C510.924 123.906 509.58 124.942 507.9 125.642C506.22 126.342 504.372 126.692 502.356 126.692ZM502.356 108.716C503.56 108.716 504.526 108.422 505.254 107.834C506.01 107.218 506.388 106.392 506.388 105.356C506.388 104.32 506.024 103.494 505.296 102.878C504.568 102.262 503.588 101.954 502.356 101.954C501.124 101.954 500.13 102.262 499.374 102.878C498.646 103.494 498.282 104.32 498.282 105.356C498.282 106.392 498.646 107.218 499.374 107.834C500.13 108.422 501.124 108.716 502.356 108.716ZM502.356 121.274C503.98 121.274 505.282 120.896 506.262 120.14C507.27 119.384 507.774 118.306 507.774 116.906C507.774 115.534 507.27 114.47 506.262 113.714C505.282 112.958 503.98 112.58 502.356 112.58C500.732 112.58 499.416 112.958 498.408 113.714C497.428 114.47 496.938 115.534 496.938 116.906C496.938 118.306 497.428 119.384 498.408 120.14C499.416 120.896 500.732 121.274 502.356 121.274Z" fill="white"/>
<path d="M404.954 150.684H407.204V155.742H412.694V150.684H414.944V163.23H412.694V157.812H407.204V163.23H404.954V150.684ZM420.768 154.176C421.944 154.176 422.868 154.488 423.54 155.112C424.224 155.724 424.566 156.564 424.566 157.632V163.23H422.586L422.406 162.078C422.142 162.498 421.77 162.828 421.29 163.068C420.822 163.296 420.294 163.41 419.706 163.41C419.094 163.41 418.542 163.29 418.05 163.05C417.57 162.798 417.192 162.45 416.916 162.006C416.64 161.562 416.502 161.064 416.502 160.512C416.502 159.984 416.616 159.528 416.844 159.144C417.072 158.76 417.402 158.472 417.834 158.28C418.41 158.016 419.196 157.884 420.192 157.884H422.406V157.632C422.406 157.152 422.256 156.774 421.956 156.498C421.656 156.21 421.248 156.066 420.732 156.066C420.276 156.066 419.844 156.18 419.436 156.408C419.028 156.636 418.662 156.966 418.338 157.398L416.772 156.084C417.828 154.812 419.16 154.176 420.768 154.176ZM420.048 161.574C420.696 161.574 421.248 161.376 421.704 160.98C422.172 160.572 422.406 160.08 422.406 159.504H420.48C419.784 159.504 419.298 159.606 419.022 159.81C418.782 159.978 418.662 160.224 418.662 160.548C418.662 160.86 418.782 161.112 419.022 161.304C419.274 161.484 419.616 161.574 420.048 161.574ZM429.903 163.41C428.979 163.41 428.193 163.2 427.545 162.78C426.897 162.348 426.411 161.784 426.087 161.088C425.763 160.38 425.601 159.624 425.601 158.82C425.601 158.004 425.763 157.248 426.087 156.552C426.411 155.844 426.891 155.274 427.527 154.842C428.175 154.398 428.961 154.176 429.885 154.176C430.785 154.176 431.565 154.398 432.225 154.842C432.885 155.274 433.383 155.922 433.719 156.786L431.667 157.596C431.547 157.128 431.325 156.756 431.001 156.48C430.689 156.204 430.317 156.066 429.885 156.066C429.189 156.066 428.667 156.33 428.319 156.858C427.983 157.386 427.815 158.04 427.815 158.82C427.815 159.6 427.983 160.248 428.319 160.764C428.655 161.268 429.177 161.52 429.885 161.52C430.317 161.52 430.689 161.388 431.001 161.124C431.325 160.848 431.547 160.482 431.667 160.026L433.629 160.782C433.329 161.61 432.849 162.258 432.189 162.726C431.541 163.182 430.779 163.41 429.903 163.41ZM434.858 150.684H437.018V157.956L440.276 154.356H443.174L439.862 157.794L443.552 163.23H440.978L438.386 159.126L437.018 160.638V163.23H434.858V150.684ZM451.427 158.676C451.427 158.94 451.409 159.216 451.373 159.504H445.289C445.337 160.104 445.547 160.578 445.919 160.926C446.291 161.274 446.819 161.448 447.503 161.448C448.367 161.448 449.075 161.13 449.627 160.494L451.121 161.808C450.629 162.348 450.083 162.75 449.483 163.014C448.895 163.278 448.229 163.41 447.485 163.41C446.513 163.41 445.697 163.2 445.037 162.78C444.389 162.36 443.909 161.808 443.597 161.124C443.285 160.428 443.129 159.666 443.129 158.838C443.129 158.022 443.279 157.26 443.579 156.552C443.891 155.844 444.359 155.274 444.983 154.842C445.619 154.398 446.405 154.176 447.341 154.176C448.229 154.176 448.979 154.374 449.591 154.77C450.203 155.166 450.659 155.706 450.959 156.39C451.271 157.074 451.427 157.836 451.427 158.676ZM449.357 157.794C449.345 157.242 449.147 156.804 448.763 156.48C448.379 156.144 447.899 155.976 447.323 155.976C446.711 155.976 446.231 156.156 445.883 156.516C445.547 156.864 445.343 157.29 445.271 157.794H449.357ZM457.325 154.176C457.913 154.176 458.477 154.344 459.017 154.68L457.973 156.588C457.661 156.384 457.301 156.282 456.893 156.282C455.585 156.282 454.931 157.11 454.931 158.766V163.23H452.771V154.356H454.949V155.868C455.129 155.34 455.435 154.926 455.867 154.626C456.311 154.326 456.797 154.176 457.325 154.176ZM462.179 163.41C461.279 163.41 460.487 163.176 459.803 162.708C459.131 162.228 458.681 161.634 458.453 160.926L460.181 160.152C460.529 161.124 461.159 161.61 462.071 161.61C462.539 161.61 462.893 161.502 463.133 161.286C463.385 161.07 463.511 160.83 463.511 160.566C463.511 160.302 463.385 160.104 463.133 159.972C462.881 159.84 462.467 159.69 461.891 159.522C461.291 159.366 460.793 159.204 460.397 159.036C460.001 158.856 459.659 158.586 459.371 158.226C459.083 157.854 458.939 157.368 458.939 156.768C458.939 155.952 459.251 155.316 459.875 154.86C460.511 154.404 461.285 154.176 462.197 154.176C462.953 154.176 463.619 154.344 464.195 154.68C464.771 155.016 465.227 155.49 465.563 156.102L463.889 157.02C463.709 156.684 463.481 156.414 463.205 156.21C462.929 155.994 462.569 155.886 462.125 155.886C461.789 155.886 461.513 155.958 461.297 156.102C461.093 156.246 460.991 156.426 460.991 156.642C460.991 156.882 461.117 157.068 461.369 157.2C461.633 157.332 462.035 157.47 462.575 157.614C463.199 157.794 463.715 157.974 464.123 158.154C464.531 158.334 464.885 158.61 465.185 158.982C465.485 159.354 465.635 159.84 465.635 160.44C465.635 161.1 465.467 161.652 465.131 162.096C464.807 162.54 464.381 162.87 463.853 163.086C463.325 163.302 462.767 163.41 462.179 163.41ZM478.121 163.23L475.115 158.028H474.359H473.531V163.23H471.299V150.684H475.403C476.855 150.684 477.929 150.996 478.625 151.62C479.321 152.244 479.669 153.138 479.669 154.302C479.669 155.19 479.471 155.928 479.075 156.516C478.679 157.092 478.103 157.506 477.347 157.758L480.731 163.23H478.121ZM475.169 155.958C475.925 155.958 476.489 155.838 476.861 155.598C477.233 155.346 477.419 154.926 477.419 154.338C477.419 153.75 477.233 153.342 476.861 153.114C476.501 152.874 475.937 152.754 475.169 152.754H473.531V155.958H475.169ZM489.056 158.676C489.056 158.94 489.038 159.216 489.002 159.504H482.918C482.966 160.104 483.176 160.578 483.548 160.926C483.92 161.274 484.448 161.448 485.132 161.448C485.996 161.448 486.704 161.13 487.256 160.494L488.75 161.808C488.258 162.348 487.712 162.75 487.112 163.014C486.524 163.278 485.858 163.41 485.114 163.41C484.142 163.41 483.326 163.2 482.666 162.78C482.018 162.36 481.538 161.808 481.226 161.124C480.914 160.428 480.758 159.666 480.758 158.838C480.758 158.022 480.908 157.26 481.208 156.552C481.52 155.844 481.988 155.274 482.612 154.842C483.248 154.398 484.034 154.176 484.97 154.176C485.858 154.176 486.608 154.374 487.22 154.77C487.832 155.166 488.288 155.706 488.588 156.39C488.9 157.074 489.056 157.836 489.056 158.676ZM486.986 157.794C486.974 157.242 486.776 156.804 486.392 156.48C486.008 156.144 485.528 155.976 484.952 155.976C484.34 155.976 483.86 156.156 483.512 156.516C483.176 156.864 482.972 157.29 482.9 157.794H486.986ZM493.802 161.88C494.714 162 495.428 162.12 495.944 162.24C496.46 162.36 496.916 162.594 497.312 162.942C497.72 163.29 497.924 163.788 497.924 164.436C497.924 165.324 497.558 165.984 496.826 166.416C496.094 166.86 495.098 167.082 493.838 167.082C492.506 167.082 491.48 166.842 490.76 166.362C490.04 165.882 489.68 165.186 489.68 164.274C489.68 164.13 489.692 163.998 489.716 163.878L490.994 163.068C490.286 162.684 489.932 162.078 489.932 161.25C489.932 160.542 490.208 159.948 490.76 159.468C490.28 158.868 490.04 158.19 490.04 157.434C490.04 156.81 490.202 156.252 490.526 155.76C490.862 155.256 491.306 154.866 491.858 154.59C492.41 154.314 493.016 154.176 493.676 154.176C494.456 154.176 495.152 154.362 495.764 154.734L497.114 153.582L498.248 154.95L496.97 155.994C497.222 156.474 497.348 156.99 497.348 157.542C497.348 158.178 497.186 158.742 496.862 159.234C496.538 159.726 496.1 160.11 495.548 160.386C494.996 160.65 494.396 160.782 493.748 160.782C493.16 160.782 492.59 160.668 492.038 160.44C491.87 160.548 491.786 160.704 491.786 160.908C491.786 161.208 491.954 161.424 492.29 161.556C492.626 161.688 493.13 161.796 493.802 161.88ZM493.712 155.976C493.256 155.976 492.89 156.114 492.614 156.39C492.338 156.666 492.2 157.032 492.2 157.488C492.2 157.932 492.332 158.298 492.596 158.586C492.86 158.874 493.232 159.018 493.712 159.018C494.192 159.018 494.558 158.88 494.81 158.604C495.062 158.316 495.188 157.944 495.188 157.488C495.188 157.032 495.056 156.666 494.792 156.39C494.528 156.114 494.168 155.976 493.712 155.976ZM493.928 165.462C494.444 165.462 494.876 165.396 495.224 165.264C495.584 165.132 495.764 164.922 495.764 164.634C495.764 164.358 495.602 164.166 495.278 164.058C494.954 163.95 494.444 163.848 493.748 163.752L493.352 163.698L492.614 163.59L491.84 164.328C491.828 164.364 491.822 164.412 491.822 164.472C491.822 164.82 492.026 165.072 492.434 165.228C492.842 165.384 493.34 165.462 493.928 165.462ZM499.216 154.356H501.376V163.23H499.216V154.356ZM499.162 150.684H501.43V152.682H499.162V150.684ZM506.252 163.41C505.352 163.41 504.56 163.176 503.876 162.708C503.204 162.228 502.754 161.634 502.526 160.926L504.254 160.152C504.602 161.124 505.232 161.61 506.144 161.61C506.612 161.61 506.966 161.502 507.206 161.286C507.458 161.07 507.584 160.83 507.584 160.566C507.584 160.302 507.458 160.104 507.206 159.972C506.954 159.84 506.54 159.69 505.964 159.522C505.364 159.366 504.866 159.204 504.47 159.036C504.074 158.856 503.732 158.586 503.444 158.226C503.156 157.854 503.012 157.368 503.012 156.768C503.012 155.952 503.324 155.316 503.948 154.86C504.584 154.404 505.358 154.176 506.27 154.176C507.026 154.176 507.692 154.344 508.268 154.68C508.844 155.016 509.3 155.49 509.636 156.102L507.962 157.02C507.782 156.684 507.554 156.414 507.278 156.21C507.002 155.994 506.642 155.886 506.198 155.886C505.862 155.886 505.586 155.958 505.37 156.102C505.166 156.246 505.064 156.426 505.064 156.642C505.064 156.882 505.19 157.068 505.442 157.2C505.706 157.332 506.108 157.47 506.648 157.614C507.272 157.794 507.788 157.974 508.196 158.154C508.604 158.334 508.958 158.61 509.258 158.982C509.558 159.354 509.708 159.84 509.708 160.44C509.708 161.1 509.54 161.652 509.204 162.096C508.88 162.54 508.454 162.87 507.926 163.086C507.398 163.302 506.84 163.41 506.252 163.41ZM513.62 156.066V160.584C513.62 160.932 513.716 161.19 513.908 161.358C514.112 161.526 514.394 161.61 514.754 161.61C515.054 161.61 515.414 161.544 515.834 161.412V163.14C515.294 163.32 514.754 163.41 514.214 163.41C513.41 163.41 512.75 163.194 512.234 162.762C511.718 162.318 511.46 161.646 511.46 160.746V156.066H510.02V154.356H511.46V152.286L513.62 150.684V154.356H515.834V156.066H513.62ZM524.769 158.676C524.769 158.94 524.751 159.216 524.715 159.504H518.631C518.679 160.104 518.889 160.578 519.261 160.926C519.633 161.274 520.161 161.448 520.845 161.448C521.709 161.448 522.417 161.13 522.969 160.494L524.463 161.808C523.971 162.348 523.425 162.75 522.825 163.014C522.237 163.278 521.571 163.41 520.827 163.41C519.855 163.41 519.039 163.2 518.379 162.78C517.731 162.36 517.251 161.808 516.939 161.124C516.627 160.428 516.471 159.666 516.471 158.838C516.471 158.022 516.621 157.26 516.921 156.552C517.233 155.844 517.701 155.274 518.325 154.842C518.961 154.398 519.747 154.176 520.683 154.176C521.571 154.176 522.321 154.374 522.933 154.77C523.545 155.166 524.001 155.706 524.301 156.39C524.613 157.074 524.769 157.836 524.769 158.676ZM522.699 157.794C522.687 157.242 522.489 156.804 522.105 156.48C521.721 156.144 521.241 155.976 520.665 155.976C520.053 155.976 519.573 156.156 519.225 156.516C518.889 156.864 518.685 157.29 518.613 157.794H522.699ZM530.667 154.176C531.255 154.176 531.819 154.344 532.359 154.68L531.315 156.588C531.003 156.384 530.643 156.282 530.235 156.282C528.927 156.282 528.273 157.11 528.273 158.766V163.23H526.113V154.356H528.291V155.868C528.471 155.34 528.777 154.926 529.209 154.626C529.653 154.326 530.139 154.176 530.667 154.176ZM540.134 158.676C540.134 158.94 540.116 159.216 540.08 159.504H533.996C534.044 160.104 534.254 160.578 534.626 160.926C534.998 161.274 535.526 161.448 536.21 161.448C537.074 161.448 537.782 161.13 538.334 160.494L539.828 161.808C539.336 162.348 538.79 162.75 538.19 163.014C537.602 163.278 536.936 163.41 536.192 163.41C535.22 163.41 534.404 163.2 533.744 162.78C533.096 162.36 532.616 161.808 532.304 161.124C531.992 160.428 531.836 159.666 531.836 158.838C531.836 158.022 531.986 157.26 532.286 156.552C532.598 155.844 533.066 155.274 533.69 154.842C534.326 154.398 535.112 154.176 536.048 154.176C536.936 154.176 537.686 154.374 538.298 154.77C538.91 155.166 539.366 155.706 539.666 156.39C539.978 157.074 540.134 157.836 540.134 158.676ZM538.064 157.794C538.052 157.242 537.854 156.804 537.47 156.48C537.086 156.144 536.606 155.976 536.03 155.976C535.418 155.976 534.938 156.156 534.59 156.516C534.254 156.864 534.05 157.29 533.978 157.794H538.064ZM549.254 150.684V163.23H547.094V162.348C546.806 162.708 546.434 162.978 545.978 163.158C545.522 163.326 545.042 163.41 544.538 163.41C543.362 163.41 542.444 162.984 541.784 162.132C541.124 161.268 540.794 160.152 540.794 158.784C540.794 157.836 540.95 157.014 541.262 156.318C541.586 155.622 542.03 155.094 542.594 154.734C543.158 154.362 543.806 154.176 544.538 154.176C545.042 154.176 545.522 154.272 545.978 154.464C546.446 154.656 546.818 154.92 547.094 155.256V150.684H549.254ZM545.06 161.412C545.804 161.412 546.362 161.172 546.734 160.692C547.106 160.212 547.292 159.582 547.292 158.802C547.292 158.01 547.106 157.368 546.734 156.876C546.362 156.384 545.81 156.138 545.078 156.138C544.37 156.138 543.836 156.372 543.476 156.84C543.128 157.296 542.954 157.95 542.954 158.802C542.954 159.642 543.128 160.29 543.476 160.746C543.824 161.19 544.352 161.412 545.06 161.412Z" fill="white"/>
<rect x="664.906" y="144.957" width="205" height="205" rx="50" transform="rotate(-45 664.906 144.957)" fill="#5F5C83" fill-opacity="0.75"/>
<path d="M805.246 112.924V118.342H800.584V125.23H794.914V118.342H781.516V114.982L795.67 95.9564H800.584V112.924H805.246ZM794.914 112.924V104.104L788.656 112.924H794.914ZM818.679 125.692C816.663 125.692 814.815 125.342 813.135 124.642C811.455 123.942 810.097 122.906 809.061 121.534C808.053 120.134 807.549 118.44 807.549 116.452C807.549 114.912 807.871 113.54 808.515 112.336C809.187 111.104 810.167 110.096 811.455 109.312C809.775 107.94 808.935 106.162 808.935 103.978C808.935 102.27 809.383 100.772 810.279 99.4844C811.175 98.1964 812.365 97.2164 813.849 96.5444C815.361 95.8444 816.971 95.4944 818.679 95.4944C820.387 95.4944 821.983 95.8444 823.467 96.5444C824.979 97.2164 826.183 98.1964 827.079 99.4844C827.975 100.772 828.423 102.27 828.423 103.978C828.423 106.162 827.583 107.94 825.903 109.312C827.191 110.096 828.157 111.104 828.801 112.336C829.445 113.54 829.767 114.912 829.767 116.452C829.767 118.44 829.263 120.134 828.255 121.534C827.247 122.906 825.903 123.942 824.223 124.642C822.543 125.342 820.695 125.692 818.679 125.692ZM818.679 107.716C819.883 107.716 820.849 107.422 821.577 106.834C822.333 106.218 822.711 105.392 822.711 104.356C822.711 103.32 822.347 102.494 821.619 101.878C820.891 101.262 819.911 100.954 818.679 100.954C817.447 100.954 816.453 101.262 815.697 101.878C814.969 102.494 814.605 103.32 814.605 104.356C814.605 105.392 814.969 106.218 815.697 106.834C816.453 107.422 817.447 107.716 818.679 107.716ZM818.679 120.274C820.303 120.274 821.605 119.896 822.585 119.14C823.593 118.384 824.097 117.306 824.097 115.906C824.097 114.534 823.593 113.47 822.585 112.714C821.605 111.958 820.303 111.58 818.679 111.58C817.055 111.58 815.739 111.958 814.731 112.714C813.751 113.47 813.261 114.534 813.261 115.906C813.261 117.306 813.751 118.384 814.731 119.14C815.739 119.896 817.055 120.274 818.679 120.274Z" fill="white"/>
<path d="M738.637 150.684H742.741C744.145 150.684 745.207 150.99 745.927 151.602C746.647 152.202 747.007 153.102 747.007 154.302C747.007 155.514 746.641 156.438 745.909 157.074C745.189 157.71 744.133 158.028 742.741 158.028H740.869V163.23H738.637V150.684ZM742.507 155.958C743.299 155.958 743.869 155.832 744.217 155.58C744.577 155.316 744.757 154.902 744.757 154.338C744.757 153.774 744.583 153.372 744.235 153.132C743.887 152.88 743.311 152.754 742.507 152.754H740.869V155.958H742.507ZM752.58 154.176C753.168 154.176 753.732 154.344 754.272 154.68L753.228 156.588C752.916 156.384 752.556 156.282 752.148 156.282C750.84 156.282 750.186 157.11 750.186 158.766V163.23H748.026V154.356H750.204V155.868C750.384 155.34 750.69 154.926 751.122 154.626C751.566 154.326 752.052 154.176 752.58 154.176ZM758.141 163.41C757.253 163.41 756.467 163.206 755.783 162.798C755.111 162.378 754.595 161.814 754.235 161.106C753.875 160.398 753.695 159.624 753.695 158.784C753.695 157.944 753.875 157.176 754.235 156.48C754.595 155.772 755.111 155.214 755.783 154.806C756.467 154.386 757.253 154.176 758.141 154.176C759.029 154.176 759.809 154.386 760.481 154.806C761.153 155.214 761.669 155.772 762.029 156.48C762.401 157.176 762.587 157.944 762.587 158.784C762.587 159.624 762.401 160.398 762.029 161.106C761.669 161.814 761.153 162.378 760.481 162.798C759.809 163.206 759.029 163.41 758.141 163.41ZM758.141 161.52C758.909 161.52 759.479 161.262 759.851 160.746C760.235 160.23 760.427 159.576 760.427 158.784C760.427 157.992 760.235 157.344 759.851 156.84C759.479 156.324 758.909 156.066 758.141 156.066C757.373 156.066 756.797 156.324 756.413 156.84C756.041 157.344 755.855 157.992 755.855 158.784C755.855 159.576 756.041 160.23 756.413 160.746C756.797 161.262 757.373 161.52 758.141 161.52ZM763.973 167.082C763.541 167.082 763.079 166.992 762.587 166.812V165.084C762.839 165.156 763.067 165.192 763.271 165.192C763.691 165.192 763.901 165.006 763.901 164.634V154.356H766.061V164.778C766.061 165.546 765.869 166.122 765.485 166.506C765.113 166.89 764.609 167.082 763.973 167.082ZM763.847 150.684H766.115V152.682H763.847V150.684ZM775.724 158.676C775.724 158.94 775.706 159.216 775.67 159.504H769.586C769.634 160.104 769.844 160.578 770.216 160.926C770.588 161.274 771.116 161.448 771.8 161.448C772.664 161.448 773.372 161.13 773.924 160.494L775.418 161.808C774.926 162.348 774.38 162.75 773.78 163.014C773.192 163.278 772.526 163.41 771.782 163.41C770.81 163.41 769.994 163.2 769.334 162.78C768.686 162.36 768.206 161.808 767.894 161.124C767.582 160.428 767.426 159.666 767.426 158.838C767.426 158.022 767.576 157.26 767.876 156.552C768.188 155.844 768.656 155.274 769.28 154.842C769.916 154.398 770.702 154.176 771.638 154.176C772.526 154.176 773.276 154.374 773.888 154.77C774.5 155.166 774.956 155.706 775.256 156.39C775.568 157.074 775.724 157.836 775.724 158.676ZM773.654 157.794C773.642 157.242 773.444 156.804 773.06 156.48C772.676 156.144 772.196 155.976 771.62 155.976C771.008 155.976 770.528 156.156 770.18 156.516C769.844 156.864 769.64 157.29 769.568 157.794H773.654ZM780.596 163.41C779.672 163.41 778.886 163.2 778.238 162.78C777.59 162.348 777.104 161.784 776.78 161.088C776.456 160.38 776.294 159.624 776.294 158.82C776.294 158.004 776.456 157.248 776.78 156.552C777.104 155.844 777.584 155.274 778.22 154.842C778.868 154.398 779.654 154.176 780.578 154.176C781.478 154.176 782.258 154.398 782.918 154.842C783.578 155.274 784.076 155.922 784.412 156.786L782.36 157.596C782.24 157.128 782.018 156.756 781.694 156.48C781.382 156.204 781.01 156.066 780.578 156.066C779.882 156.066 779.36 156.33 779.012 156.858C778.676 157.386 778.508 158.04 778.508 158.82C778.508 159.6 778.676 160.248 779.012 160.764C779.348 161.268 779.87 161.52 780.578 161.52C781.01 161.52 781.382 161.388 781.694 161.124C782.018 160.848 782.24 160.482 782.36 160.026L784.322 160.782C784.022 161.61 783.542 162.258 782.882 162.726C782.234 163.182 781.472 163.41 780.596 163.41ZM788.052 156.066V160.584C788.052 160.932 788.148 161.19 788.34 161.358C788.544 161.526 788.826 161.61 789.186 161.61C789.486 161.61 789.846 161.544 790.266 161.412V163.14C789.726 163.32 789.186 163.41 788.646 163.41C787.842 163.41 787.182 163.194 786.666 162.762C786.15 162.318 785.892 161.646 785.892 160.746V156.066H784.452V154.356H785.892V152.286L788.052 150.684V154.356H790.266V156.066H788.052ZM794.713 163.41C793.813 163.41 793.021 163.176 792.337 162.708C791.665 162.228 791.215 161.634 790.987 160.926L792.715 160.152C793.063 161.124 793.693 161.61 794.605 161.61C795.073 161.61 795.427 161.502 795.667 161.286C795.919 161.07 796.045 160.83 796.045 160.566C796.045 160.302 795.919 160.104 795.667 159.972C795.415 159.84 795.001 159.69 794.425 159.522C793.825 159.366 793.327 159.204 792.931 159.036C792.535 158.856 792.193 158.586 791.905 158.226C791.617 157.854 791.473 157.368 791.473 156.768C791.473 155.952 791.785 155.316 792.409 154.86C793.045 154.404 793.819 154.176 794.731 154.176C795.487 154.176 796.153 154.344 796.729 154.68C797.305 155.016 797.761 155.49 798.097 156.102L796.423 157.02C796.243 156.684 796.015 156.414 795.739 156.21C795.463 155.994 795.103 155.886 794.659 155.886C794.323 155.886 794.047 155.958 793.831 156.102C793.627 156.246 793.525 156.426 793.525 156.642C793.525 156.882 793.651 157.068 793.903 157.2C794.167 157.332 794.569 157.47 795.109 157.614C795.733 157.794 796.249 157.974 796.657 158.154C797.065 158.334 797.419 158.61 797.719 158.982C798.019 159.354 798.169 159.84 798.169 160.44C798.169 161.1 798.001 161.652 797.665 162.096C797.341 162.54 796.915 162.87 796.387 163.086C795.859 163.302 795.301 163.41 794.713 163.41ZM807.432 163.464C806.604 163.464 805.848 163.308 805.164 162.996C804.48 162.684 803.916 162.246 803.472 161.682C803.028 161.106 802.746 160.44 802.626 159.684L804.858 159.126C804.942 159.87 805.212 160.446 805.668 160.854C806.136 161.262 806.736 161.466 807.468 161.466C808.104 161.466 808.608 161.316 808.98 161.016C809.352 160.716 809.538 160.302 809.538 159.774C809.538 159.342 809.352 158.97 808.98 158.658C808.62 158.346 807.972 158.004 807.036 157.632C806.148 157.284 805.446 156.936 804.93 156.588C804.414 156.24 804.042 155.85 803.814 155.418C803.586 154.974 803.472 154.446 803.472 153.834C803.472 153.162 803.634 152.568 803.958 152.052C804.282 151.536 804.738 151.134 805.326 150.846C805.926 150.558 806.61 150.414 807.378 150.414C808.23 150.414 808.98 150.606 809.628 150.99C810.276 151.374 810.798 151.944 811.194 152.7L809.322 153.852C809.106 153.384 808.824 153.03 808.476 152.79C808.128 152.538 807.738 152.412 807.306 152.412C806.862 152.412 806.484 152.544 806.172 152.808C805.872 153.072 805.722 153.396 805.722 153.78C805.722 154.188 805.896 154.536 806.244 154.824C806.604 155.112 807.264 155.442 808.224 155.814C809.124 156.162 809.832 156.51 810.348 156.858C810.864 157.206 811.23 157.596 811.446 158.028C811.674 158.46 811.788 158.976 811.788 159.576C811.788 160.344 811.602 161.022 811.23 161.61C810.87 162.198 810.36 162.654 809.7 162.978C809.04 163.302 808.284 163.464 807.432 163.464ZM820.644 154.356V163.23H818.484V162.204C818.184 162.612 817.8 162.918 817.332 163.122C816.876 163.314 816.378 163.41 815.838 163.41C814.782 163.41 813.99 163.08 813.462 162.42C812.934 161.76 812.67 160.92 812.67 159.9V154.356H814.83V159.36C814.83 159.924 814.926 160.428 815.118 160.872C815.31 161.304 815.76 161.52 816.468 161.52C817.092 161.52 817.548 161.328 817.836 160.944C818.136 160.56 818.316 160.116 818.376 159.612C818.448 159.108 818.484 158.478 818.484 157.722V154.356H820.644ZM827.474 154.176C828.206 154.176 828.854 154.362 829.418 154.734C829.982 155.094 830.42 155.622 830.732 156.318C831.056 157.014 831.218 157.836 831.218 158.784C831.218 160.152 830.888 161.268 830.228 162.132C829.568 162.984 828.65 163.41 827.474 163.41C826.97 163.41 826.49 163.326 826.034 163.158C825.578 162.978 825.206 162.708 824.918 162.348V163.23H822.758V150.684H824.918V155.256C825.194 154.92 825.56 154.656 826.016 154.464C826.484 154.272 826.97 154.176 827.474 154.176ZM826.952 161.412C827.66 161.412 828.188 161.19 828.536 160.746C828.884 160.29 829.058 159.642 829.058 158.802C829.058 157.95 828.878 157.296 828.518 156.84C828.17 156.372 827.642 156.138 826.934 156.138C826.202 156.138 825.65 156.384 825.278 156.876C824.906 157.368 824.72 158.01 824.72 158.802C824.72 159.582 824.906 160.212 825.278 160.692C825.65 161.172 826.208 161.412 826.952 161.412ZM842.546 154.176C843.554 154.176 844.322 154.506 844.85 155.166C845.378 155.814 845.642 156.618 845.642 157.578V163.23H843.482V158.226C843.482 156.786 842.978 156.066 841.97 156.066C841.406 156.066 840.998 156.246 840.746 156.606C840.494 156.954 840.344 157.368 840.296 157.848C840.248 158.316 840.224 158.982 840.224 159.846V163.23H838.064V158.226C838.064 156.786 837.566 156.066 836.57 156.066C836.006 156.066 835.598 156.246 835.346 156.606C835.094 156.954 834.938 157.374 834.878 157.866C834.83 158.346 834.806 159.006 834.806 159.846V163.23H832.646L832.628 154.356H834.716V155.472C835.22 154.608 836.012 154.176 837.092 154.176C837.644 154.176 838.148 154.308 838.604 154.572C839.072 154.836 839.432 155.286 839.684 155.922C840.008 155.298 840.41 154.854 840.89 154.59C841.37 154.314 841.922 154.176 842.546 154.176ZM847.509 154.356H849.669V163.23H847.509V154.356ZM847.455 150.684H849.723V152.682H847.455V150.684ZM854.274 156.066V160.584C854.274 160.932 854.37 161.19 854.562 161.358C854.766 161.526 855.048 161.61 855.408 161.61C855.708 161.61 856.068 161.544 856.488 161.412V163.14C855.948 163.32 855.408 163.41 854.868 163.41C854.064 163.41 853.404 163.194 852.888 162.762C852.372 162.318 852.114 161.646 852.114 160.746V156.066H850.674V154.356H852.114V152.286L854.274 150.684V154.356H856.488V156.066H854.274ZM860.419 156.066V160.584C860.419 160.932 860.515 161.19 860.707 161.358C860.911 161.526 861.193 161.61 861.553 161.61C861.853 161.61 862.213 161.544 862.633 161.412V163.14C862.093 163.32 861.553 163.41 861.013 163.41C860.209 163.41 859.549 163.194 859.033 162.762C858.517 162.318 858.259 161.646 858.259 160.746V156.066H856.819V154.356H858.259V152.286L860.419 150.684V154.356H862.633V156.066H860.419ZM871.568 158.676C871.568 158.94 871.55 159.216 871.514 159.504H865.43C865.478 160.104 865.688 160.578 866.06 160.926C866.432 161.274 866.96 161.448 867.644 161.448C868.508 161.448 869.216 161.13 869.768 160.494L871.262 161.808C870.77 162.348 870.224 162.75 869.624 163.014C869.036 163.278 868.37 163.41 867.626 163.41C866.654 163.41 865.838 163.2 865.178 162.78C864.53 162.36 864.05 161.808 863.738 161.124C863.426 160.428 863.27 159.666 863.27 158.838C863.27 158.022 863.42 157.26 863.72 156.552C864.032 155.844 864.5 155.274 865.124 154.842C865.76 154.398 866.546 154.176 867.482 154.176C868.37 154.176 869.12 154.374 869.732 154.77C870.344 155.166 870.8 155.706 871.1 156.39C871.412 157.074 871.568 157.836 871.568 158.676ZM869.498 157.794C869.486 157.242 869.288 156.804 868.904 156.48C868.52 156.144 868.04 155.976 867.464 155.976C866.852 155.976 866.372 156.156 866.024 156.516C865.688 156.864 865.484 157.29 865.412 157.794H869.498ZM880.688 150.684V163.23H878.528V162.348C878.24 162.708 877.868 162.978 877.412 163.158C876.956 163.326 876.476 163.41 875.972 163.41C874.796 163.41 873.878 162.984 873.218 162.132C872.558 161.268 872.228 160.152 872.228 158.784C872.228 157.836 872.384 157.014 872.696 156.318C873.02 155.622 873.464 155.094 874.028 154.734C874.592 154.362 875.24 154.176 875.972 154.176C876.476 154.176 876.956 154.272 877.412 154.464C877.88 154.656 878.252 154.92 878.528 155.256V150.684H880.688ZM876.494 161.412C877.238 161.412 877.796 161.172 878.168 160.692C878.54 160.212 878.726 159.582 878.726 158.802C878.726 158.01 878.54 157.368 878.168 156.876C877.796 156.384 877.244 156.138 876.512 156.138C875.804 156.138 875.27 156.372 874.91 156.84C874.562 157.296 874.388 157.95 874.388 158.802C874.388 159.642 874.562 160.29 874.91 160.746C875.258 161.19 875.786 161.412 876.494 161.412Z" fill="white"/>
</svg>
