<svg width="358" height="274" viewBox="0 0 358 274" fill="none" xmlns="http://www.w3.org/2000/svg">
<rect x="95" y="84.76" width="119.869" height="119.869" rx="29.2363" transform="rotate(-45 95 84.76)" fill="#5F5C83" fill-opacity="0.75"/>
<path d="M152.82 73.8739C152.82 75.4606 152.334 76.8046 151.364 77.9059C150.412 78.9886 149.142 79.6886 147.556 80.0059V83.0299L144.476 83.0579V80.0339C142.814 79.7726 141.414 79.1192 140.276 78.0739C139.156 77.0286 138.474 75.7126 138.232 74.1259L142.152 73.1459C142.264 74.2659 142.656 75.1339 143.328 75.7499C144.018 76.3472 144.896 76.6459 145.96 76.6459C146.837 76.6459 147.537 76.4406 148.06 76.0299C148.601 75.6006 148.872 75.0032 148.872 74.2379C148.872 73.6779 148.601 73.1832 148.06 72.7539C147.518 72.3059 146.566 71.8112 145.204 71.2699C143.804 70.7099 142.702 70.1499 141.9 69.5899C141.097 69.0299 140.509 68.4046 140.136 67.7139C139.781 67.0046 139.604 66.1646 139.604 65.1939C139.604 63.7939 140.042 62.6179 140.92 61.6659C141.797 60.7139 142.982 60.1166 144.476 59.8739V57.1299H147.556V59.9579C149.478 60.3872 150.916 61.5446 151.868 63.4299L148.592 65.4739C148.293 64.7646 147.892 64.2232 147.388 63.8499C146.884 63.4579 146.324 63.2619 145.708 63.2619C145.11 63.2619 144.597 63.4392 144.168 63.7939C143.757 64.1486 143.552 64.5872 143.552 65.1099C143.552 65.6699 143.813 66.1646 144.336 66.5939C144.858 67.0046 145.838 67.4899 147.276 68.0499C148.694 68.6099 149.796 69.1606 150.58 69.7019C151.382 70.2246 151.952 70.8219 152.288 71.4939C152.642 72.1472 152.82 72.9406 152.82 73.8739ZM165.339 60.2379V79.7539H161.559V66.3139H157.079V63.2619H159.487C160.196 63.2619 160.719 63.1126 161.055 62.8139C161.391 62.4966 161.559 61.9832 161.559 61.2739V60.2379H165.339ZM185.883 76.1699V79.7539H172.163V76.6739C178.267 72.9966 181.319 69.5806 181.319 66.4259C181.319 65.5859 181.105 64.9139 180.675 64.4099C180.265 63.9059 179.639 63.6539 178.799 63.6539C177.754 63.6539 176.998 64.0272 176.531 64.7739C176.083 65.5206 175.831 66.4259 175.775 67.4899L172.051 67.2099C172.051 65.9966 172.313 64.8392 172.835 63.7379C173.377 62.6366 174.161 61.7406 175.187 61.0499C176.233 60.3406 177.465 59.9859 178.883 59.9859C180.078 59.9859 181.142 60.2472 182.075 60.7699C183.027 61.2926 183.765 62.0299 184.287 62.9819C184.829 63.9152 185.099 64.9979 185.099 66.2299C185.099 67.4619 184.791 68.7126 184.175 69.9819C183.578 71.2326 182.766 72.3992 181.739 73.4819C180.713 74.5646 179.583 75.4606 178.351 76.1699H185.883ZM195.844 80.0339C193.062 80.0339 191.205 79.0539 190.272 77.0939C189.357 75.1152 188.9 72.7259 188.9 69.9259C188.9 67.1446 189.348 64.7832 190.244 62.8419C191.158 60.8819 192.988 59.9019 195.732 59.9019C198.401 59.9019 200.221 60.8819 201.192 62.8419C202.162 64.7832 202.648 67.1539 202.648 69.9539C202.648 76.6739 200.38 80.0339 195.844 80.0339ZM195.788 76.3939C196.628 76.3939 197.262 76.1046 197.692 75.5259C198.121 74.9286 198.392 74.1819 198.504 73.2859C198.634 72.3899 198.7 71.2886 198.7 69.9819C198.7 68.6379 198.634 67.5179 198.504 66.6219C198.392 65.7259 198.112 64.9886 197.664 64.4099C197.234 63.8312 196.59 63.5419 195.732 63.5419C194.873 63.5419 194.229 63.8312 193.8 64.4099C193.37 64.9886 193.09 65.7352 192.96 66.6499C192.848 67.5459 192.792 68.6659 192.792 70.0099C192.792 71.3166 192.848 72.4179 192.96 73.3139C193.09 74.1912 193.37 74.9286 193.8 75.5259C194.248 76.1046 194.91 76.3939 195.788 76.3939ZM212.636 80.0339C209.855 80.0339 207.998 79.0539 207.064 77.0939C206.15 75.1152 205.692 72.7259 205.692 69.9259C205.692 67.1446 206.14 64.7832 207.036 62.8419C207.951 60.8819 209.78 59.9019 212.524 59.9019C215.194 59.9019 217.014 60.8819 217.984 62.8419C218.955 64.7832 219.44 67.1539 219.44 69.9539C219.44 76.6739 217.172 80.0339 212.636 80.0339ZM212.58 76.3939C213.42 76.3939 214.055 76.1046 214.484 75.5259C214.914 74.9286 215.184 74.1819 215.296 73.2859C215.427 72.3899 215.492 71.2886 215.492 69.9819C215.492 68.6379 215.427 67.5179 215.296 66.6219C215.184 65.7259 214.904 64.9886 214.456 64.4099C214.027 63.8312 213.383 63.5419 212.524 63.5419C211.666 63.5419 211.022 63.8312 210.592 64.4099C210.163 64.9886 209.883 65.7352 209.752 66.6499C209.64 67.5459 209.584 68.6659 209.584 70.0099C209.584 71.3166 209.64 72.4179 209.752 73.3139C209.883 74.1912 210.163 74.9286 210.592 75.5259C211.04 76.1046 211.703 76.3939 212.58 76.3939Z" fill="white"/>
<path d="M149.562 91.8589H152.188C153.687 91.8589 154.849 92.2619 155.672 93.0679C156.495 93.8653 156.907 94.9963 156.907 96.4609C156.907 97.9083 156.5 99.0133 155.685 99.7759C154.879 100.539 153.709 100.92 152.175 100.92H149.562V91.8589ZM152.019 99.4249C153.163 99.4249 153.991 99.1866 154.502 98.7099C155.013 98.2333 155.269 97.4619 155.269 96.3959C155.269 95.3473 155.018 94.5803 154.515 94.0949C154.021 93.6009 153.237 93.3539 152.162 93.3539H151.187V99.4249H152.019ZM160.742 101.05C160.101 101.05 159.533 100.903 159.039 100.608C158.554 100.305 158.181 99.8973 157.921 99.3859C157.661 98.8746 157.531 98.3156 157.531 97.7089C157.531 97.1023 157.661 96.5476 157.921 96.0449C158.181 95.5336 158.554 95.1306 159.039 94.8359C159.533 94.5326 160.101 94.3809 160.742 94.3809C161.383 94.3809 161.947 94.5326 162.432 94.8359C162.917 95.1306 163.29 95.5336 163.55 96.0449C163.819 96.5476 163.953 97.1023 163.953 97.7089C163.953 98.3156 163.819 98.8746 163.55 99.3859C163.29 99.8973 162.917 100.305 162.432 100.608C161.947 100.903 161.383 101.05 160.742 101.05ZM160.742 99.6849C161.297 99.6849 161.708 99.4986 161.977 99.1259C162.254 98.7533 162.393 98.2809 162.393 97.7089C162.393 97.1369 162.254 96.6689 161.977 96.3049C161.708 95.9323 161.297 95.7459 160.742 95.7459C160.187 95.7459 159.771 95.9323 159.494 96.3049C159.225 96.6689 159.091 97.1369 159.091 97.7089C159.091 98.2809 159.225 98.7533 159.494 99.1259C159.771 99.4986 160.187 99.6849 160.742 99.6849ZM168.445 94.3809C169.164 94.3809 169.719 94.5933 170.109 95.0179C170.508 95.4339 170.707 96.0233 170.707 96.7859V100.92H169.147V97.1759C169.147 96.7859 169.078 96.4523 168.939 96.1749C168.8 95.8889 168.475 95.7459 167.964 95.7459C167.513 95.7459 167.18 95.8759 166.963 96.1359C166.755 96.3873 166.625 96.6906 166.573 97.0459C166.53 97.3926 166.508 97.8303 166.508 98.3589V100.92H164.948V94.5109H166.508V95.2519C166.725 94.9573 166.998 94.7406 167.327 94.6019C167.665 94.4546 168.038 94.3809 168.445 94.3809ZM174.619 94.3809C175.468 94.3809 176.136 94.6063 176.621 95.0569C177.115 95.4989 177.362 96.1056 177.362 96.8769V100.92H175.932L175.802 100.088C175.611 100.391 175.343 100.63 174.996 100.803C174.658 100.968 174.277 101.05 173.852 101.05C173.41 101.05 173.011 100.963 172.656 100.79C172.309 100.608 172.036 100.357 171.837 100.036C171.638 99.7153 171.538 99.3556 171.538 98.9569C171.538 98.5756 171.62 98.2463 171.785 97.9689C171.95 97.6916 172.188 97.4836 172.5 97.3449C172.916 97.1543 173.484 97.0589 174.203 97.0589H175.802V96.8769C175.802 96.5303 175.694 96.2573 175.477 96.0579C175.26 95.8499 174.966 95.7459 174.593 95.7459C174.264 95.7459 173.952 95.8283 173.657 95.9929C173.362 96.1576 173.098 96.3959 172.864 96.7079L171.733 95.7589C172.496 94.8403 173.458 94.3809 174.619 94.3809ZM174.099 99.7239C174.567 99.7239 174.966 99.5809 175.295 99.2949C175.633 99.0003 175.802 98.6449 175.802 98.2289H174.411C173.908 98.2289 173.557 98.3026 173.358 98.4499C173.185 98.5713 173.098 98.7489 173.098 98.9829C173.098 99.2083 173.185 99.3903 173.358 99.5289C173.54 99.6589 173.787 99.7239 174.099 99.7239ZM180.535 95.7459V99.0089C180.535 99.2603 180.604 99.4466 180.743 99.5679C180.89 99.6893 181.094 99.7499 181.354 99.7499C181.57 99.7499 181.83 99.7023 182.134 99.6069V100.855C181.744 100.985 181.354 101.05 180.964 101.05C180.383 101.05 179.906 100.894 179.534 100.582C179.161 100.261 178.975 99.7759 178.975 99.1259V95.7459H177.935V94.5109H178.975V93.0159L180.535 91.8589V94.5109H182.134V95.7459H180.535ZM188.646 97.6309C188.646 97.8216 188.633 98.0209 188.607 98.2289H184.213C184.248 98.6623 184.399 99.0046 184.668 99.2559C184.937 99.5073 185.318 99.6329 185.812 99.6329C186.436 99.6329 186.947 99.4033 187.346 98.9439L188.425 99.8929C188.07 100.283 187.675 100.573 187.242 100.764C186.817 100.955 186.336 101.05 185.799 101.05C185.097 101.05 184.508 100.898 184.031 100.595C183.563 100.292 183.216 99.8929 182.991 99.3989C182.766 98.8963 182.653 98.3459 182.653 97.7479C182.653 97.1586 182.761 96.6083 182.978 96.0969C183.203 95.5856 183.541 95.1739 183.992 94.8619C184.451 94.5413 185.019 94.3809 185.695 94.3809C186.336 94.3809 186.878 94.5239 187.32 94.8099C187.762 95.0959 188.091 95.4859 188.308 95.9799C188.533 96.4739 188.646 97.0243 188.646 97.6309ZM187.151 96.9939C187.142 96.5953 186.999 96.2789 186.722 96.0449C186.445 95.8023 186.098 95.6809 185.682 95.6809C185.24 95.6809 184.893 95.8109 184.642 96.0709C184.399 96.3223 184.252 96.6299 184.2 96.9939H187.151ZM195.292 91.8589V100.92H193.732V100.283C193.524 100.543 193.255 100.738 192.926 100.868C192.596 100.989 192.25 101.05 191.886 101.05C191.036 101.05 190.373 100.742 189.897 100.127C189.42 99.5029 189.182 98.6969 189.182 97.7089C189.182 97.0243 189.294 96.4306 189.52 95.9279C189.754 95.4253 190.074 95.0439 190.482 94.7839C190.889 94.5153 191.357 94.3809 191.886 94.3809C192.25 94.3809 192.596 94.4503 192.926 94.5889C193.264 94.7276 193.532 94.9183 193.732 95.1609V91.8589H195.292ZM192.263 99.6069C192.8 99.6069 193.203 99.4336 193.472 99.0869C193.74 98.7403 193.875 98.2853 193.875 97.7219C193.875 97.1499 193.74 96.6863 193.472 96.3309C193.203 95.9756 192.804 95.7979 192.276 95.7979C191.764 95.7979 191.379 95.9669 191.119 96.3049C190.867 96.6343 190.742 97.1066 190.742 97.7219C190.742 98.3286 190.867 98.7966 191.119 99.1259C191.37 99.4466 191.751 99.6069 192.263 99.6069ZM201.606 95.7459V99.0089C201.606 99.2603 201.676 99.4466 201.814 99.5679C201.962 99.6893 202.165 99.7499 202.425 99.7499C202.642 99.7499 202.902 99.7023 203.205 99.6069V100.855C202.815 100.985 202.425 101.05 202.035 101.05C201.455 101.05 200.978 100.894 200.605 100.582C200.233 100.261 200.046 99.7759 200.046 99.1259V95.7459H199.006V94.5109H200.046V93.0159L201.606 91.8589V94.5109H203.205V95.7459H201.606ZM206.896 101.05C206.255 101.05 205.687 100.903 205.193 100.608C204.708 100.305 204.335 99.8973 204.075 99.3859C203.815 98.8746 203.685 98.3156 203.685 97.7089C203.685 97.1023 203.815 96.5476 204.075 96.0449C204.335 95.5336 204.708 95.1306 205.193 94.8359C205.687 94.5326 206.255 94.3809 206.896 94.3809C207.538 94.3809 208.101 94.5326 208.586 94.8359C209.072 95.1306 209.444 95.5336 209.704 96.0449C209.973 96.5476 210.107 97.1023 210.107 97.7089C210.107 98.3156 209.973 98.8746 209.704 99.3859C209.444 99.8973 209.072 100.305 208.586 100.608C208.101 100.903 207.538 101.05 206.896 101.05ZM206.896 99.6849C207.451 99.6849 207.863 99.4986 208.131 99.1259C208.409 98.7533 208.547 98.2809 208.547 97.7089C208.547 97.1369 208.409 96.6689 208.131 96.3049C207.863 95.9323 207.451 95.7459 206.896 95.7459C206.342 95.7459 205.926 95.9323 205.648 96.3049C205.38 96.6689 205.245 97.1369 205.245 97.7089C205.245 98.2809 205.38 98.7533 205.648 99.1259C205.926 99.4986 206.342 99.6849 206.896 99.6849ZM163.295 117.115C162.411 117.115 161.635 116.924 160.968 116.543C160.309 116.153 159.798 115.603 159.434 114.892C159.079 114.173 158.901 113.336 158.901 112.383C158.901 111.43 159.079 110.598 159.434 109.887C159.798 109.168 160.309 108.617 160.968 108.236C161.635 107.846 162.411 107.651 163.295 107.651C164.257 107.651 165.085 107.881 165.778 108.34C166.471 108.791 166.983 109.445 167.312 110.303L165.817 110.888C165.618 110.325 165.301 109.904 164.868 109.627C164.443 109.341 163.919 109.198 163.295 109.198C162.42 109.198 161.739 109.475 161.254 110.03C160.769 110.576 160.526 111.356 160.526 112.37C160.526 113.384 160.769 114.173 161.254 114.736C161.739 115.291 162.42 115.568 163.295 115.568C163.919 115.568 164.448 115.425 164.881 115.139C165.314 114.844 165.626 114.411 165.817 113.839L167.338 114.411C167.017 115.286 166.506 115.958 165.804 116.426C165.102 116.885 164.266 117.115 163.295 117.115ZM171.665 110.381C172.384 110.381 172.939 110.589 173.329 111.005C173.728 111.421 173.927 112.015 173.927 112.786V116.92H172.367V113.176C172.367 112.691 172.272 112.331 172.081 112.097C171.89 111.863 171.591 111.746 171.184 111.746C170.673 111.746 170.3 111.954 170.066 112.37C169.841 112.777 169.728 113.44 169.728 114.359V116.92H168.168V107.859H169.728V111.239C170.17 110.667 170.816 110.381 171.665 110.381ZM177.839 110.381C178.688 110.381 179.355 110.606 179.841 111.057C180.335 111.499 180.582 112.106 180.582 112.877V116.92H179.152L179.022 116.088C178.831 116.391 178.562 116.63 178.216 116.803C177.878 116.968 177.496 117.05 177.072 117.05C176.63 117.05 176.231 116.963 175.876 116.79C175.529 116.608 175.256 116.357 175.057 116.036C174.857 115.715 174.758 115.356 174.758 114.957C174.758 114.576 174.84 114.246 175.005 113.969C175.169 113.692 175.408 113.484 175.72 113.345C176.136 113.154 176.703 113.059 177.423 113.059H179.022V112.877C179.022 112.53 178.913 112.257 178.697 112.058C178.48 111.85 178.185 111.746 177.813 111.746C177.483 111.746 177.171 111.828 176.877 111.993C176.582 112.158 176.318 112.396 176.084 112.708L174.953 111.759C175.715 110.84 176.677 110.381 177.839 110.381ZM177.319 115.724C177.787 115.724 178.185 115.581 178.515 115.295C178.853 115 179.022 114.645 179.022 114.229H177.631C177.128 114.229 176.777 114.303 176.578 114.45C176.404 114.571 176.318 114.749 176.318 114.983C176.318 115.208 176.404 115.39 176.578 115.529C176.76 115.659 177.007 115.724 177.319 115.724ZM185.261 110.381C185.686 110.381 186.093 110.502 186.483 110.745L185.729 112.123C185.504 111.976 185.244 111.902 184.949 111.902C184.005 111.902 183.532 112.5 183.532 113.696V116.92H181.972V110.511H183.545V111.603C183.675 111.222 183.896 110.923 184.208 110.706C184.529 110.489 184.88 110.381 185.261 110.381ZM187.028 110.511H188.588V116.92H187.028V110.511ZM186.989 107.859H188.627V109.302H186.989V107.859ZM191.973 111.746V115.009C191.973 115.26 192.042 115.447 192.181 115.568C192.328 115.689 192.532 115.75 192.792 115.75C193.009 115.75 193.269 115.702 193.572 115.607V116.855C193.182 116.985 192.792 117.05 192.402 117.05C191.821 117.05 191.345 116.894 190.972 116.582C190.599 116.261 190.413 115.776 190.413 115.126V111.746H189.373V110.511H190.413V109.016L191.973 107.859V110.511H193.572V111.746H191.973ZM196.361 116.751L193.852 110.511H195.568L197.193 114.957L198.831 110.511H200.547L196.907 119.572H195.217L196.361 116.751Z" fill="white"/>
<rect x="188.394" y="189.24" width="119.869" height="119.869" rx="29.2363" transform="rotate(-45 188.394 189.24)" fill="#5F5C83" fill-opacity="0.75"/>
<path d="M256.723 169.541C258.03 169.541 259.196 169.849 260.223 170.465C261.25 171.062 262.043 171.874 262.603 172.901C263.182 173.909 263.471 175.01 263.471 176.205C263.471 177.455 263.154 178.631 262.519 179.733C261.903 180.815 261.044 181.693 259.943 182.365C258.842 183.037 257.6 183.373 256.219 183.373C254.987 183.373 253.848 183.111 252.803 182.589C251.758 182.047 250.899 181.319 250.227 180.405C249.574 179.471 249.172 178.454 249.023 177.353L252.747 176.737C252.822 177.521 253.148 178.221 253.727 178.837C254.324 179.434 255.136 179.733 256.163 179.733C257.246 179.733 258.058 179.387 258.599 178.697C259.159 177.987 259.439 177.157 259.439 176.205C259.439 175.309 259.178 174.562 258.655 173.965C258.132 173.367 257.32 173.069 256.219 173.069C254.838 173.069 253.811 173.629 253.139 174.749L249.611 173.881L251.515 163.549H262.603V167.161H254.623L254.063 170.157C254.847 169.746 255.734 169.541 256.723 169.541ZM280.04 179.481V183.065H266.32V179.985C272.424 176.307 275.476 172.891 275.476 169.737C275.476 168.897 275.261 168.225 274.832 167.721C274.421 167.217 273.796 166.965 272.956 166.965C271.91 166.965 271.154 167.338 270.688 168.085C270.24 168.831 269.988 169.737 269.932 170.801L266.208 170.521C266.208 169.307 266.469 168.15 266.992 167.049C267.533 165.947 268.317 165.051 269.344 164.361C270.389 163.651 271.621 163.297 273.04 163.297C274.234 163.297 275.298 163.558 276.232 164.081C277.184 164.603 277.921 165.341 278.444 166.293C278.985 167.226 279.256 168.309 279.256 169.541C279.256 170.773 278.948 172.023 278.332 173.293C277.734 174.543 276.922 175.71 275.896 176.793C274.869 177.875 273.74 178.771 272.508 179.481H280.04ZM289.916 183.373C288.572 183.373 287.34 183.139 286.22 182.673C285.1 182.206 284.195 181.515 283.504 180.601C282.832 179.667 282.496 178.538 282.496 177.213C282.496 176.186 282.711 175.271 283.14 174.469C283.588 173.647 284.241 172.975 285.1 172.453C283.98 171.538 283.42 170.353 283.42 168.897C283.42 167.758 283.719 166.759 284.316 165.901C284.913 165.042 285.707 164.389 286.696 163.941C287.704 163.474 288.777 163.241 289.916 163.241C291.055 163.241 292.119 163.474 293.108 163.941C294.116 164.389 294.919 165.042 295.516 165.901C296.113 166.759 296.412 167.758 296.412 168.897C296.412 170.353 295.852 171.538 294.732 172.453C295.591 172.975 296.235 173.647 296.664 174.469C297.093 175.271 297.308 176.186 297.308 177.213C297.308 178.538 296.972 179.667 296.3 180.601C295.628 181.515 294.732 182.206 293.612 182.673C292.492 183.139 291.26 183.373 289.916 183.373ZM289.916 171.389C290.719 171.389 291.363 171.193 291.848 170.801C292.352 170.39 292.604 169.839 292.604 169.149C292.604 168.458 292.361 167.907 291.876 167.497C291.391 167.086 290.737 166.881 289.916 166.881C289.095 166.881 288.432 167.086 287.928 167.497C287.443 167.907 287.2 168.458 287.2 169.149C287.2 169.839 287.443 170.39 287.928 170.801C288.432 171.193 289.095 171.389 289.916 171.389ZM289.916 179.761C290.999 179.761 291.867 179.509 292.52 179.005C293.192 178.501 293.528 177.782 293.528 176.849C293.528 175.934 293.192 175.225 292.52 174.721C291.867 174.217 290.999 173.965 289.916 173.965C288.833 173.965 287.956 174.217 287.284 174.721C286.631 175.225 286.304 175.934 286.304 176.849C286.304 177.782 286.631 178.501 287.284 179.005C287.956 179.509 288.833 179.761 289.916 179.761Z" fill="white"/>
<path d="M251.292 196.339H252.917V199.992H256.882V196.339H258.507V205.4H256.882V201.487H252.917V205.4H251.292V196.339ZM262.773 198.861C263.622 198.861 264.289 199.086 264.775 199.537C265.269 199.979 265.516 200.586 265.516 201.357V205.4H264.086L263.956 204.568C263.765 204.871 263.496 205.11 263.15 205.283C262.812 205.448 262.43 205.53 262.006 205.53C261.564 205.53 261.165 205.443 260.81 205.27C260.463 205.088 260.19 204.837 259.991 204.516C259.791 204.195 259.692 203.836 259.692 203.437C259.692 203.056 259.774 202.726 259.939 202.449C260.103 202.172 260.342 201.964 260.654 201.825C261.07 201.634 261.637 201.539 262.357 201.539H263.956V201.357C263.956 201.01 263.847 200.737 263.631 200.538C263.414 200.33 263.119 200.226 262.747 200.226C262.417 200.226 262.105 200.308 261.811 200.473C261.516 200.638 261.252 200.876 261.018 201.188L259.887 200.239C260.649 199.32 261.611 198.861 262.773 198.861ZM262.253 204.204C262.721 204.204 263.119 204.061 263.449 203.775C263.787 203.48 263.956 203.125 263.956 202.709H262.565C262.062 202.709 261.711 202.783 261.512 202.93C261.338 203.051 261.252 203.229 261.252 203.463C261.252 203.688 261.338 203.87 261.512 204.009C261.694 204.139 261.941 204.204 262.253 204.204ZM269.429 205.53C268.762 205.53 268.194 205.378 267.726 205.075C267.258 204.763 266.907 204.356 266.673 203.853C266.439 203.342 266.322 202.796 266.322 202.215C266.322 201.626 266.439 201.08 266.673 200.577C266.907 200.066 267.254 199.654 267.713 199.342C268.181 199.021 268.749 198.861 269.416 198.861C270.066 198.861 270.629 199.021 271.106 199.342C271.583 199.654 271.942 200.122 272.185 200.746L270.703 201.331C270.616 200.993 270.456 200.724 270.222 200.525C269.997 200.326 269.728 200.226 269.416 200.226C268.913 200.226 268.536 200.417 268.285 200.798C268.042 201.179 267.921 201.652 267.921 202.215C267.921 202.778 268.042 203.246 268.285 203.619C268.528 203.983 268.905 204.165 269.416 204.165C269.728 204.165 269.997 204.07 270.222 203.879C270.456 203.68 270.616 203.415 270.703 203.086L272.12 203.632C271.903 204.23 271.557 204.698 271.08 205.036C270.612 205.365 270.062 205.53 269.429 205.53ZM273.066 196.339H274.626V201.591L276.979 198.991H279.072L276.68 201.474L279.345 205.4H277.486L275.614 202.436L274.626 203.528V205.4H273.066V196.339ZM285.092 202.111C285.092 202.302 285.079 202.501 285.053 202.709H280.659C280.694 203.142 280.845 203.485 281.114 203.736C281.383 203.987 281.764 204.113 282.258 204.113C282.882 204.113 283.393 203.883 283.792 203.424L284.871 204.373C284.516 204.763 284.121 205.053 283.688 205.244C283.263 205.435 282.782 205.53 282.245 205.53C281.543 205.53 280.954 205.378 280.477 205.075C280.009 204.772 279.662 204.373 279.437 203.879C279.212 203.376 279.099 202.826 279.099 202.228C279.099 201.639 279.207 201.088 279.424 200.577C279.649 200.066 279.987 199.654 280.438 199.342C280.897 199.021 281.465 198.861 282.141 198.861C282.782 198.861 283.324 199.004 283.766 199.29C284.208 199.576 284.537 199.966 284.754 200.46C284.979 200.954 285.092 201.504 285.092 202.111ZM283.597 201.474C283.588 201.075 283.445 200.759 283.168 200.525C282.891 200.282 282.544 200.161 282.128 200.161C281.686 200.161 281.339 200.291 281.088 200.551C280.845 200.802 280.698 201.11 280.646 201.474H283.597ZM289.411 198.861C289.835 198.861 290.243 198.982 290.633 199.225L289.879 200.603C289.653 200.456 289.393 200.382 289.099 200.382C288.154 200.382 287.682 200.98 287.682 202.176V205.4H286.122V198.991H287.695V200.083C287.825 199.702 288.046 199.403 288.358 199.186C288.678 198.969 289.029 198.861 289.411 198.861ZM292.976 205.53C292.326 205.53 291.754 205.361 291.26 205.023C290.775 204.676 290.45 204.247 290.285 203.736L291.533 203.177C291.784 203.879 292.239 204.23 292.898 204.23C293.236 204.23 293.492 204.152 293.665 203.996C293.847 203.84 293.938 203.667 293.938 203.476C293.938 203.285 293.847 203.142 293.665 203.047C293.483 202.952 293.184 202.843 292.768 202.722C292.335 202.609 291.975 202.492 291.689 202.371C291.403 202.241 291.156 202.046 290.948 201.786C290.74 201.517 290.636 201.166 290.636 200.733C290.636 200.144 290.861 199.684 291.312 199.355C291.771 199.026 292.33 198.861 292.989 198.861C293.535 198.861 294.016 198.982 294.432 199.225C294.848 199.468 295.177 199.81 295.42 200.252L294.211 200.915C294.081 200.672 293.916 200.477 293.717 200.33C293.518 200.174 293.258 200.096 292.937 200.096C292.694 200.096 292.495 200.148 292.339 200.252C292.192 200.356 292.118 200.486 292.118 200.642C292.118 200.815 292.209 200.95 292.391 201.045C292.582 201.14 292.872 201.24 293.262 201.344C293.713 201.474 294.085 201.604 294.38 201.734C294.675 201.864 294.93 202.063 295.147 202.332C295.364 202.601 295.472 202.952 295.472 203.385C295.472 203.862 295.351 204.26 295.108 204.581C294.874 204.902 294.566 205.14 294.185 205.296C293.804 205.452 293.401 205.53 292.976 205.53ZM249.507 221.4L247.336 217.643H246.79H246.192V221.4H244.58V212.339H247.544C248.592 212.339 249.368 212.564 249.871 213.015C250.373 213.466 250.625 214.111 250.625 214.952C250.625 215.593 250.482 216.126 250.196 216.551C249.91 216.967 249.494 217.266 248.948 217.448L251.392 221.4H249.507ZM247.375 216.148C247.921 216.148 248.328 216.061 248.597 215.888C248.865 215.706 249 215.403 249 214.978C249 214.553 248.865 214.259 248.597 214.094C248.337 213.921 247.929 213.834 247.375 213.834H246.192V216.148H247.375ZM257.463 218.111C257.463 218.302 257.45 218.501 257.424 218.709H253.03C253.065 219.142 253.217 219.485 253.485 219.736C253.754 219.987 254.135 220.113 254.629 220.113C255.253 220.113 255.765 219.883 256.163 219.424L257.242 220.373C256.887 220.763 256.493 221.053 256.059 221.244C255.635 221.435 255.154 221.53 254.616 221.53C253.914 221.53 253.325 221.378 252.848 221.075C252.38 220.772 252.034 220.373 251.808 219.879C251.583 219.376 251.47 218.826 251.47 218.228C251.47 217.639 251.579 217.088 251.795 216.577C252.021 216.066 252.359 215.654 252.809 215.342C253.269 215.021 253.836 214.861 254.512 214.861C255.154 214.861 255.695 215.004 256.137 215.29C256.579 215.576 256.909 215.966 257.125 216.46C257.351 216.954 257.463 217.504 257.463 218.111ZM255.968 217.474C255.96 217.075 255.817 216.759 255.539 216.525C255.262 216.282 254.915 216.161 254.499 216.161C254.057 216.161 253.711 216.291 253.459 216.551C253.217 216.802 253.069 217.11 253.017 217.474H255.968ZM260.95 220.425C261.609 220.512 262.124 220.598 262.497 220.685C262.87 220.772 263.199 220.941 263.485 221.192C263.78 221.443 263.927 221.803 263.927 222.271C263.927 222.912 263.663 223.389 263.134 223.701C262.605 224.022 261.886 224.182 260.976 224.182C260.014 224.182 259.273 224.009 258.753 223.662C258.233 223.315 257.973 222.813 257.973 222.154C257.973 222.05 257.982 221.955 257.999 221.868L258.922 221.283C258.411 221.006 258.155 220.568 258.155 219.97C258.155 219.459 258.354 219.03 258.753 218.683C258.406 218.25 258.233 217.76 258.233 217.214C258.233 216.763 258.35 216.36 258.584 216.005C258.827 215.641 259.147 215.359 259.546 215.16C259.945 214.961 260.382 214.861 260.859 214.861C261.422 214.861 261.925 214.995 262.367 215.264L263.342 214.432L264.161 215.42L263.238 216.174C263.42 216.521 263.511 216.893 263.511 217.292C263.511 217.751 263.394 218.159 263.16 218.514C262.926 218.869 262.61 219.147 262.211 219.346C261.812 219.537 261.379 219.632 260.911 219.632C260.486 219.632 260.075 219.55 259.676 219.385C259.555 219.463 259.494 219.576 259.494 219.723C259.494 219.94 259.615 220.096 259.858 220.191C260.101 220.286 260.465 220.364 260.95 220.425ZM260.885 216.161C260.556 216.161 260.291 216.261 260.092 216.46C259.893 216.659 259.793 216.924 259.793 217.253C259.793 217.574 259.888 217.838 260.079 218.046C260.27 218.254 260.538 218.358 260.885 218.358C261.232 218.358 261.496 218.258 261.678 218.059C261.86 217.851 261.951 217.582 261.951 217.253C261.951 216.924 261.856 216.659 261.665 216.46C261.474 216.261 261.214 216.161 260.885 216.161ZM261.041 223.012C261.414 223.012 261.726 222.964 261.977 222.869C262.237 222.774 262.367 222.622 262.367 222.414C262.367 222.215 262.25 222.076 262.016 221.998C261.782 221.92 261.414 221.846 260.911 221.777L260.625 221.738L260.092 221.66L259.533 222.193C259.524 222.219 259.52 222.254 259.52 222.297C259.52 222.548 259.667 222.73 259.962 222.843C260.257 222.956 260.616 223.012 261.041 223.012ZM264.919 214.991H266.479V221.4H264.919V214.991ZM264.88 212.339H266.518V213.782H264.88V212.339ZM270.06 221.53C269.41 221.53 268.838 221.361 268.344 221.023C267.859 220.676 267.534 220.247 267.369 219.736L268.617 219.177C268.868 219.879 269.323 220.23 269.982 220.23C270.32 220.23 270.576 220.152 270.749 219.996C270.931 219.84 271.022 219.667 271.022 219.476C271.022 219.285 270.931 219.142 270.749 219.047C270.567 218.952 270.268 218.843 269.852 218.722C269.419 218.609 269.059 218.492 268.773 218.371C268.487 218.241 268.24 218.046 268.032 217.786C267.824 217.517 267.72 217.166 267.72 216.733C267.72 216.144 267.945 215.684 268.396 215.355C268.855 215.026 269.414 214.861 270.073 214.861C270.619 214.861 271.1 214.982 271.516 215.225C271.932 215.468 272.261 215.81 272.504 216.252L271.295 216.915C271.165 216.672 271 216.477 270.801 216.33C270.602 216.174 270.342 216.096 270.021 216.096C269.778 216.096 269.579 216.148 269.423 216.252C269.276 216.356 269.202 216.486 269.202 216.642C269.202 216.815 269.293 216.95 269.475 217.045C269.666 217.14 269.956 217.24 270.346 217.344C270.797 217.474 271.169 217.604 271.464 217.734C271.759 217.864 272.014 218.063 272.231 218.332C272.448 218.601 272.556 218.952 272.556 219.385C272.556 219.862 272.435 220.26 272.192 220.581C271.958 220.902 271.65 221.14 271.269 221.296C270.888 221.452 270.485 221.53 270.06 221.53ZM275.441 216.226V219.489C275.441 219.74 275.51 219.927 275.649 220.048C275.796 220.169 276 220.23 276.26 220.23C276.476 220.23 276.736 220.182 277.04 220.087V221.335C276.65 221.465 276.26 221.53 275.87 221.53C275.289 221.53 274.812 221.374 274.44 221.062C274.067 220.741 273.881 220.256 273.881 219.606V216.226H272.841V214.991H273.881V213.496L275.441 212.339V214.991H277.04V216.226H275.441ZM283.552 218.111C283.552 218.302 283.539 218.501 283.513 218.709H279.119C279.154 219.142 279.305 219.485 279.574 219.736C279.843 219.987 280.224 220.113 280.718 220.113C281.342 220.113 281.853 219.883 282.252 219.424L283.331 220.373C282.976 220.763 282.581 221.053 282.148 221.244C281.723 221.435 281.242 221.53 280.705 221.53C280.003 221.53 279.414 221.378 278.937 221.075C278.469 220.772 278.122 220.373 277.897 219.879C277.672 219.376 277.559 218.826 277.559 218.228C277.559 217.639 277.667 217.088 277.884 216.577C278.109 216.066 278.447 215.654 278.898 215.342C279.357 215.021 279.925 214.861 280.601 214.861C281.242 214.861 281.784 215.004 282.226 215.29C282.668 215.576 282.997 215.966 283.214 216.46C283.439 216.954 283.552 217.504 283.552 218.111ZM282.057 217.474C282.048 217.075 281.905 216.759 281.628 216.525C281.351 216.282 281.004 216.161 280.588 216.161C280.146 216.161 279.799 216.291 279.548 216.551C279.305 216.802 279.158 217.11 279.106 217.474H282.057ZM287.871 214.861C288.295 214.861 288.703 214.982 289.093 215.225L288.339 216.603C288.113 216.456 287.853 216.382 287.559 216.382C286.614 216.382 286.142 216.98 286.142 218.176V221.4H284.582V214.991H286.155V216.083C286.285 215.702 286.506 215.403 286.818 215.186C287.138 214.969 287.489 214.861 287.871 214.861ZM294.767 218.111C294.767 218.302 294.754 218.501 294.728 218.709H290.334C290.369 219.142 290.52 219.485 290.789 219.736C291.058 219.987 291.439 220.113 291.933 220.113C292.557 220.113 293.068 219.883 293.467 219.424L294.546 220.373C294.191 220.763 293.796 221.053 293.363 221.244C292.938 221.435 292.457 221.53 291.92 221.53C291.218 221.53 290.629 221.378 290.152 221.075C289.684 220.772 289.337 220.373 289.112 219.879C288.887 219.376 288.774 218.826 288.774 218.228C288.774 217.639 288.882 217.088 289.099 216.577C289.324 216.066 289.662 215.654 290.113 215.342C290.572 215.021 291.14 214.861 291.816 214.861C292.457 214.861 292.999 215.004 293.441 215.29C293.883 215.576 294.212 215.966 294.429 216.46C294.654 216.954 294.767 217.504 294.767 218.111ZM293.272 217.474C293.263 217.075 293.12 216.759 292.843 216.525C292.566 216.282 292.219 216.161 291.803 216.161C291.361 216.161 291.014 216.291 290.763 216.551C290.52 216.802 290.373 217.11 290.321 217.474H293.272ZM301.413 212.339V221.4H299.853V220.763C299.645 221.023 299.376 221.218 299.047 221.348C298.717 221.469 298.371 221.53 298.007 221.53C297.157 221.53 296.494 221.222 296.018 220.607C295.541 219.983 295.303 219.177 295.303 218.189C295.303 217.504 295.415 216.911 295.641 216.408C295.875 215.905 296.195 215.524 296.603 215.264C297.01 214.995 297.478 214.861 298.007 214.861C298.371 214.861 298.717 214.93 299.047 215.069C299.385 215.208 299.653 215.398 299.853 215.641V212.339H301.413ZM298.384 220.087C298.921 220.087 299.324 219.914 299.593 219.567C299.861 219.22 299.996 218.765 299.996 218.202C299.996 217.63 299.861 217.166 299.593 216.811C299.324 216.456 298.925 216.278 298.397 216.278C297.885 216.278 297.5 216.447 297.24 216.785C296.988 217.114 296.863 217.587 296.863 218.202C296.863 218.809 296.988 219.277 297.24 219.606C297.491 219.927 297.872 220.087 298.384 220.087Z" fill="white"/>
<rect x="0.00012207" y="188.76" width="119.869" height="119.869" rx="29.2363" transform="rotate(-45 0.00012207 188.76)" fill="#5F5C83" fill-opacity="0.75"/>
<path d="M81.5616 173.796V177.408H78.4536V182H74.6736V177.408H65.7416V175.168L75.1776 162.484H78.4536V173.796H81.5616ZM74.6736 173.796V167.916L70.5016 173.796H74.6736ZM90.4861 182.308C89.1421 182.308 87.9101 182.075 86.7901 181.608C85.6701 181.141 84.7648 180.451 84.0741 179.536C83.4021 178.603 83.0661 177.473 83.0661 176.148C83.0661 175.121 83.2808 174.207 83.7101 173.404C84.1581 172.583 84.8115 171.911 85.6701 171.388C84.5501 170.473 83.9901 169.288 83.9901 167.832C83.9901 166.693 84.2888 165.695 84.8861 164.836C85.4835 163.977 86.2768 163.324 87.2661 162.876C88.2741 162.409 89.3475 162.176 90.4861 162.176C91.6248 162.176 92.6888 162.409 93.6781 162.876C94.6861 163.324 95.4888 163.977 96.0861 164.836C96.6835 165.695 96.9821 166.693 96.9821 167.832C96.9821 169.288 96.4221 170.473 95.3021 171.388C96.1608 171.911 96.8048 172.583 97.2341 173.404C97.6635 174.207 97.8781 175.121 97.8781 176.148C97.8781 177.473 97.5421 178.603 96.8701 179.536C96.1981 180.451 95.3021 181.141 94.1821 181.608C93.0621 182.075 91.8301 182.308 90.4861 182.308ZM90.4861 170.324C91.2888 170.324 91.9328 170.128 92.4181 169.736C92.9221 169.325 93.1741 168.775 93.1741 168.084C93.1741 167.393 92.9315 166.843 92.4461 166.432C91.9608 166.021 91.3075 165.816 90.4861 165.816C89.6648 165.816 89.0021 166.021 88.4981 166.432C88.0128 166.843 87.7701 167.393 87.7701 168.084C87.7701 168.775 88.0128 169.325 88.4981 169.736C89.0021 170.128 89.6648 170.324 90.4861 170.324ZM90.4861 178.696C91.5688 178.696 92.4368 178.444 93.0901 177.94C93.7621 177.436 94.0981 176.717 94.0981 175.784C94.0981 174.869 93.7621 174.16 93.0901 173.656C92.4368 173.152 91.5688 172.9 90.4861 172.9C89.4035 172.9 88.5261 173.152 87.8541 173.656C87.2008 174.16 86.8741 174.869 86.8741 175.784C86.8741 176.717 87.2008 177.436 87.8541 177.94C88.5261 178.444 89.4035 178.696 90.4861 178.696Z" fill="white"/>
<path d="M63.3453 195.859H66.3093C67.3233 195.859 68.0903 196.08 68.6103 196.522C69.1303 196.955 69.3903 197.605 69.3903 198.472C69.3903 199.347 69.1259 200.015 68.5973 200.474C68.0773 200.933 67.3146 201.163 66.3093 201.163H64.9573V204.92H63.3453V195.859ZM66.1403 199.668C66.7123 199.668 67.1239 199.577 67.3753 199.395C67.6353 199.204 67.7653 198.905 67.7653 198.498C67.7653 198.091 67.6396 197.8 67.3883 197.627C67.1369 197.445 66.7209 197.354 66.1403 197.354H64.9573V199.668H66.1403ZM73.474 198.381C73.8987 198.381 74.306 198.502 74.696 198.745L73.942 200.123C73.7167 199.976 73.4567 199.902 73.162 199.902C72.2174 199.902 71.745 200.5 71.745 201.696V204.92H70.185V198.511H71.758V199.603C71.888 199.222 72.109 198.923 72.421 198.706C72.7417 198.489 73.0927 198.381 73.474 198.381ZM77.5492 205.05C76.9078 205.05 76.3402 204.903 75.8462 204.608C75.3608 204.305 74.9882 203.897 74.7282 203.386C74.4682 202.875 74.3382 202.316 74.3382 201.709C74.3382 201.102 74.4682 200.548 74.7282 200.045C74.9882 199.534 75.3608 199.131 75.8462 198.836C76.3402 198.533 76.9078 198.381 77.5492 198.381C78.1905 198.381 78.7538 198.533 79.2392 198.836C79.7245 199.131 80.0972 199.534 80.3572 200.045C80.6258 200.548 80.7602 201.102 80.7602 201.709C80.7602 202.316 80.6258 202.875 80.3572 203.386C80.0972 203.897 79.7245 204.305 79.2392 204.608C78.7538 204.903 78.1905 205.05 77.5492 205.05ZM77.5492 203.685C78.1038 203.685 78.5155 203.499 78.7842 203.126C79.0615 202.753 79.2002 202.281 79.2002 201.709C79.2002 201.137 79.0615 200.669 78.7842 200.305C78.5155 199.932 78.1038 199.746 77.5492 199.746C76.9945 199.746 76.5785 199.932 76.3012 200.305C76.0325 200.669 75.8982 201.137 75.8982 201.709C75.8982 202.281 76.0325 202.753 76.3012 203.126C76.5785 203.499 76.9945 203.685 77.5492 203.685ZM81.8204 207.702C81.5084 207.702 81.1748 207.637 80.8194 207.507V206.259C81.0014 206.311 81.1661 206.337 81.3134 206.337C81.6168 206.337 81.7684 206.203 81.7684 205.934V198.511H83.3284V206.038C83.3284 206.593 83.1898 207.009 82.9124 207.286C82.6438 207.563 82.2798 207.702 81.8204 207.702ZM81.7294 195.859H83.3674V197.302H81.7294V195.859ZM90.3663 201.631C90.3663 201.822 90.3533 202.021 90.3273 202.229H85.9333C85.968 202.662 86.1197 203.005 86.3883 203.256C86.657 203.507 87.0383 203.633 87.5323 203.633C88.1563 203.633 88.6677 203.403 89.0663 202.944L90.1453 203.893C89.79 204.283 89.3957 204.573 88.9623 204.764C88.5377 204.955 88.0567 205.05 87.5193 205.05C86.8173 205.05 86.228 204.898 85.7513 204.595C85.2833 204.292 84.9367 203.893 84.7113 203.399C84.486 202.896 84.3733 202.346 84.3733 201.748C84.3733 201.159 84.4817 200.608 84.6983 200.097C84.9237 199.586 85.2617 199.174 85.7123 198.862C86.1717 198.541 86.7393 198.381 87.4153 198.381C88.0567 198.381 88.5983 198.524 89.0403 198.81C89.4823 199.096 89.8117 199.486 90.0283 199.98C90.2537 200.474 90.3663 201.024 90.3663 201.631ZM88.8713 200.994C88.8627 200.595 88.7197 200.279 88.4423 200.045C88.165 199.802 87.8183 199.681 87.4023 199.681C86.9603 199.681 86.6137 199.811 86.3623 200.071C86.1197 200.322 85.9723 200.63 85.9203 200.994H88.8713ZM93.9441 205.05C93.2768 205.05 92.7091 204.898 92.2411 204.595C91.7731 204.283 91.4221 203.876 91.1881 203.373C90.9541 202.862 90.8371 202.316 90.8371 201.735C90.8371 201.146 90.9541 200.6 91.1881 200.097C91.4221 199.586 91.7688 199.174 92.2281 198.862C92.6961 198.541 93.2638 198.381 93.9311 198.381C94.5811 198.381 95.1444 198.541 95.6211 198.862C96.0978 199.174 96.4574 199.642 96.7001 200.266L95.2181 200.851C95.1314 200.513 94.9711 200.244 94.7371 200.045C94.5118 199.846 94.2431 199.746 93.9311 199.746C93.4284 199.746 93.0514 199.937 92.8001 200.318C92.5574 200.699 92.4361 201.172 92.4361 201.735C92.4361 202.298 92.5574 202.766 92.8001 203.139C93.0428 203.503 93.4198 203.685 93.9311 203.685C94.2431 203.685 94.5118 203.59 94.7371 203.399C94.9711 203.2 95.1314 202.935 95.2181 202.606L96.6351 203.152C96.4184 203.75 96.0718 204.218 95.5951 204.556C95.1271 204.885 94.5768 205.05 93.9441 205.05ZM99.3885 199.746V203.009C99.3885 203.26 99.4578 203.447 99.5965 203.568C99.7438 203.689 99.9475 203.75 100.208 203.75C100.424 203.75 100.684 203.702 100.988 203.607V204.855C100.598 204.985 100.208 205.05 99.8175 205.05C99.2368 205.05 98.7602 204.894 98.3875 204.582C98.0148 204.261 97.8285 203.776 97.8285 203.126V199.746H96.7885V198.511H97.8285V197.016L99.3885 195.859V198.511H100.988V199.746H99.3885ZM104.258 205.05C103.608 205.05 103.036 204.881 102.542 204.543C102.057 204.196 101.732 203.767 101.567 203.256L102.815 202.697C103.066 203.399 103.521 203.75 104.18 203.75C104.518 203.75 104.774 203.672 104.947 203.516C105.129 203.36 105.22 203.187 105.22 202.996C105.22 202.805 105.129 202.662 104.947 202.567C104.765 202.472 104.466 202.363 104.05 202.242C103.617 202.129 103.257 202.012 102.971 201.891C102.685 201.761 102.438 201.566 102.23 201.306C102.022 201.037 101.918 200.686 101.918 200.253C101.918 199.664 102.143 199.204 102.594 198.875C103.053 198.546 103.612 198.381 104.271 198.381C104.817 198.381 105.298 198.502 105.714 198.745C106.13 198.988 106.459 199.33 106.702 199.772L105.493 200.435C105.363 200.192 105.198 199.997 104.999 199.85C104.8 199.694 104.54 199.616 104.219 199.616C103.976 199.616 103.777 199.668 103.621 199.772C103.474 199.876 103.4 200.006 103.4 200.162C103.4 200.335 103.491 200.47 103.673 200.565C103.864 200.66 104.154 200.76 104.544 200.864C104.995 200.994 105.367 201.124 105.662 201.254C105.957 201.384 106.212 201.583 106.429 201.852C106.646 202.121 106.754 202.472 106.754 202.905C106.754 203.382 106.633 203.78 106.39 204.101C106.156 204.422 105.848 204.66 105.467 204.816C105.086 204.972 104.683 205.05 104.258 205.05ZM59.2739 221.089C58.6759 221.089 58.1299 220.976 57.6359 220.751C57.1419 220.526 56.7346 220.209 56.4139 219.802C56.0932 219.386 55.8896 218.905 55.8029 218.359L57.4149 217.956C57.4756 218.493 57.6706 218.909 57.9999 219.204C58.3379 219.499 58.7712 219.646 59.2999 219.646C59.7592 219.646 60.1232 219.538 60.3919 219.321C60.6606 219.104 60.7949 218.805 60.7949 218.424C60.7949 218.112 60.6606 217.843 60.3919 217.618C60.1319 217.393 59.6639 217.146 58.9879 216.877C58.3466 216.626 57.8396 216.374 57.4669 216.123C57.0942 215.872 56.8256 215.59 56.6609 215.278C56.4962 214.957 56.4139 214.576 56.4139 214.134C56.4139 213.649 56.5309 213.22 56.7649 212.847C56.9989 212.474 57.3282 212.184 57.7529 211.976C58.1862 211.768 58.6802 211.664 59.2349 211.664C59.8502 211.664 60.3919 211.803 60.8599 212.08C61.3279 212.357 61.7049 212.769 61.9909 213.315L60.6389 214.147C60.4829 213.809 60.2792 213.553 60.0279 213.38C59.7766 213.198 59.4949 213.107 59.1829 213.107C58.8622 213.107 58.5892 213.202 58.3639 213.393C58.1472 213.584 58.0389 213.818 58.0389 214.095C58.0389 214.39 58.1646 214.641 58.4159 214.849C58.6759 215.057 59.1526 215.295 59.8459 215.564C60.4959 215.815 61.0072 216.067 61.3799 216.318C61.7526 216.569 62.0169 216.851 62.1729 217.163C62.3376 217.475 62.4199 217.848 62.4199 218.281C62.4199 218.836 62.2856 219.325 62.0169 219.75C61.7569 220.175 61.3886 220.504 60.9119 220.738C60.4352 220.972 59.8892 221.089 59.2739 221.089ZM68.8754 214.511V220.92H67.3154V220.179C67.0988 220.474 66.8214 220.695 66.4834 220.842C66.1541 220.981 65.7944 221.05 65.4044 221.05C64.6418 221.05 64.0698 220.812 63.6884 220.335C63.3071 219.858 63.1164 219.252 63.1164 218.515V214.511H64.6764V218.125C64.6764 218.532 64.7458 218.896 64.8844 219.217C65.0231 219.529 65.3481 219.685 65.8594 219.685C66.3101 219.685 66.6394 219.546 66.8474 219.269C67.0641 218.992 67.1941 218.671 67.2374 218.307C67.2894 217.943 67.3154 217.488 67.3154 216.942V214.511H68.8754ZM73.8668 214.381C74.3954 214.381 74.8634 214.515 75.2708 214.784C75.6781 215.044 75.9944 215.425 76.2198 215.928C76.4538 216.431 76.5708 217.024 76.5708 217.709C76.5708 218.697 76.3324 219.503 75.8558 220.127C75.3791 220.742 74.7161 221.05 73.8668 221.05C73.5028 221.05 73.1561 220.989 72.8268 220.868C72.4974 220.738 72.2288 220.543 72.0208 220.283V220.92H70.4608V211.859H72.0208V215.161C72.2201 214.918 72.4844 214.728 72.8138 214.589C73.1518 214.45 73.5028 214.381 73.8668 214.381ZM73.4898 219.607C74.0011 219.607 74.3824 219.447 74.6338 219.126C74.8851 218.797 75.0108 218.329 75.0108 217.722C75.0108 217.107 74.8808 216.634 74.6208 216.305C74.3694 215.967 73.9881 215.798 73.4768 215.798C72.9481 215.798 72.5494 215.976 72.2808 216.331C72.0121 216.686 71.8778 217.15 71.8778 217.722C71.8778 218.285 72.0121 218.74 72.2808 219.087C72.5494 219.434 72.9524 219.607 73.4898 219.607ZM84.8115 214.381C85.5395 214.381 86.0942 214.619 86.4755 215.096C86.8568 215.564 87.0475 216.145 87.0475 216.838V220.92H85.4875V217.306C85.4875 216.266 85.1235 215.746 84.3955 215.746C83.9882 215.746 83.6935 215.876 83.5115 216.136C83.3295 216.387 83.2212 216.686 83.1865 217.033C83.1518 217.371 83.1345 217.852 83.1345 218.476V220.92H81.5745V217.306C81.5745 216.266 81.2148 215.746 80.4955 215.746C80.0882 215.746 79.7935 215.876 79.6115 216.136C79.4295 216.387 79.3168 216.691 79.2735 217.046C79.2388 217.393 79.2215 217.869 79.2215 218.476V220.92H77.6615L77.6485 214.511H79.1565V215.317C79.5205 214.693 80.0925 214.381 80.8725 214.381C81.2712 214.381 81.6352 214.476 81.9645 214.667C82.3025 214.858 82.5625 215.183 82.7445 215.642C82.9785 215.191 83.2688 214.871 83.6155 214.68C83.9622 214.481 84.3608 214.381 84.8115 214.381ZM88.4547 214.511H90.0147V220.92H88.4547V214.511ZM88.4157 211.859H90.0537V213.302H88.4157V211.859ZM93.4002 215.746V219.009C93.4002 219.26 93.4695 219.447 93.6082 219.568C93.7555 219.689 93.9592 219.75 94.2192 219.75C94.4359 219.75 94.6959 219.702 94.9992 219.607V220.855C94.6092 220.985 94.2192 221.05 93.8292 221.05C93.2485 221.05 92.7719 220.894 92.3992 220.582C92.0265 220.261 91.8402 219.776 91.8402 219.126V215.746H90.8002V214.511H91.8402V213.016L93.4002 211.859V214.511H94.9992V215.746H93.4002ZM97.8968 215.746V219.009C97.8968 219.26 97.9661 219.447 98.1048 219.568C98.2521 219.689 98.4558 219.75 98.7158 219.75C98.9325 219.75 99.1925 219.702 99.4958 219.607V220.855C99.1058 220.985 98.7158 221.05 98.3258 221.05C97.7451 221.05 97.2685 220.894 96.8958 220.582C96.5231 220.261 96.3368 219.776 96.3368 219.126V215.746H95.2968V214.511H96.3368V213.016L97.8968 211.859V214.511H99.4958V215.746H97.8968ZM106.008 217.631C106.008 217.822 105.995 218.021 105.969 218.229H101.575C101.61 218.662 101.761 219.005 102.03 219.256C102.299 219.507 102.68 219.633 103.174 219.633C103.798 219.633 104.309 219.403 104.708 218.944L105.787 219.893C105.432 220.283 105.037 220.573 104.604 220.764C104.179 220.955 103.698 221.05 103.161 221.05C102.459 221.05 101.87 220.898 101.393 220.595C100.925 220.292 100.578 219.893 100.353 219.399C100.128 218.896 100.015 218.346 100.015 217.748C100.015 217.159 100.123 216.608 100.34 216.097C100.565 215.586 100.903 215.174 101.354 214.862C101.813 214.541 102.381 214.381 103.057 214.381C103.698 214.381 104.24 214.524 104.682 214.81C105.124 215.096 105.453 215.486 105.67 215.98C105.895 216.474 106.008 217.024 106.008 217.631ZM104.513 216.994C104.504 216.595 104.361 216.279 104.084 216.045C103.807 215.802 103.46 215.681 103.044 215.681C102.602 215.681 102.255 215.811 102.004 216.071C101.761 216.322 101.614 216.63 101.562 216.994H104.513ZM112.654 211.859V220.92H111.094V220.283C110.886 220.543 110.617 220.738 110.288 220.868C109.958 220.989 109.612 221.05 109.248 221.05C108.398 221.05 107.735 220.742 107.259 220.127C106.782 219.503 106.544 218.697 106.544 217.709C106.544 217.024 106.656 216.431 106.882 215.928C107.116 215.425 107.436 215.044 107.844 214.784C108.251 214.515 108.719 214.381 109.248 214.381C109.612 214.381 109.958 214.45 110.288 214.589C110.626 214.728 110.894 214.918 111.094 215.161V211.859H112.654ZM109.625 219.607C110.162 219.607 110.565 219.434 110.834 219.087C111.102 218.74 111.237 218.285 111.237 217.722C111.237 217.15 111.102 216.686 110.834 216.331C110.565 215.976 110.166 215.798 109.638 215.798C109.126 215.798 108.741 215.967 108.481 216.305C108.229 216.634 108.104 217.107 108.104 217.722C108.104 218.329 108.229 218.797 108.481 219.126C108.732 219.447 109.113 219.607 109.625 219.607Z" fill="white"/>
</svg>
