<svg width="111" height="71" viewBox="0 0 111 71" fill="none" xmlns="http://www.w3.org/2000/svg">
<path d="M109.999 66.3609C111.593 67.8584 110.467 70.422 108.214 70.422H2.53187C0.279625 70.422 -0.847272 67.8584 0.746715 66.3609L45.9971 23.8498C46.9883 22.9186 48.5953 22.9238 49.5797 23.8614L53.541 27.6345C54.5261 28.5727 56.1342 28.5772 57.1252 27.6446L61.1665 23.8412C62.1527 22.9131 63.7514 22.9124 64.7384 23.8397L109.999 66.3609Z" fill="#FF9D66"/>
<path d="M33.9019 70.4219L55.8723 50.4604L77.9744 70.4219H33.9019Z" fill="#DB693B"/>
<path d="M83.4837 14.4407C85.7457 15.6968 84.7936 18.9422 82.163 18.9422H56.8304C55.4014 18.9422 54.2431 17.8586 54.2431 16.5219V2.4552C54.2431 0.579049 56.4264 -0.583669 58.151 0.374007L83.4837 14.4407Z" fill="#DB693B"/>
</svg>
