<svg width="722" height="709" viewBox="0 0 722 709" fill="none" xmlns="http://www.w3.org/2000/svg">
<path d="M277.565 545.564C378.627 371.831 455.02 323.674 485.099 341.814C495.643 346.46 533.806 366.473 572.424 370.755C642.648 373.92 675.13 332.775 680.265 305.887C685.401 278.999 634.15 258.286 645.934 240.62C657.718 222.953 645.322 169.536 637.774 156.941C630.227 144.346 614.447 114.491 564.037 93.8083C513.626 73.1251 470.723 83.4624 427.951 102.374C385.179 121.286 342.04 162.146 345.15 158.647C348.259 155.148 218.035 268.869 129.604 346.004C130.365 344.803 99.5952 367.704 38.8098 413.012L237.46 633.03L277.565 545.564Z" fill="#1EAB97"/>
<path d="M277.565 545.564C378.627 371.831 455.02 323.674 485.099 341.814C495.643 346.46 533.806 366.473 572.424 370.755C642.648 373.92 675.13 332.775 680.265 305.887C685.401 278.999 634.15 258.286 645.934 240.62C657.718 222.953 645.322 169.536 637.774 156.941C630.227 144.346 614.447 114.491 564.037 93.8083C513.626 73.1251 470.723 83.4624 427.951 102.374C385.179 121.286 342.04 162.146 345.15 158.647C348.259 155.148 218.035 268.869 129.604 346.004C130.365 344.803 99.5952 367.704 38.8098 413.012L237.46 633.03L277.565 545.564Z" fill="url(#paint0_linear_42_5995)"/>
<g filter="url(#filter0_d_42_5995)">
<path fill-rule="evenodd" clip-rule="evenodd" d="M609.637 231.405C613.294 225.345 613.641 217.609 611.066 209.93C608.507 202.298 603.172 195.12 596.177 190.421C589.185 185.726 580.722 183.619 571.864 185.712C563.061 187.791 553.354 194.138 543.878 207.335C542.965 208.606 541.295 209.091 540.148 208.417C539.002 207.743 538.812 206.166 539.725 204.895C549.891 190.738 560.887 183.174 571.557 180.654C582.173 178.147 591.954 180.753 599.69 185.949C607.422 191.142 613.297 199.034 616.143 207.52C618.972 215.958 618.919 225.386 614.081 233.404C613.279 234.732 611.635 235.362 610.408 234.81C609.181 234.258 608.836 232.733 609.637 231.405ZM566.796 233.063C559.868 221.93 562.83 207.567 573.412 200.981C583.994 194.395 598.189 198.081 605.117 209.214C612.046 220.347 609.084 234.711 598.502 241.296C587.92 247.882 573.725 244.196 566.796 233.063Z" fill="#272525"/>
</g>
<circle cx="589.441" cy="230.141" r="9.72528" transform="rotate(6.32668 589.441 230.141)" fill="#F5F5F5"/>
<circle cx="589.441" cy="230.141" r="9.72528" transform="rotate(6.32668 589.441 230.141)" fill="#F5F5F5"/>
<circle cx="589.441" cy="230.141" r="9.72528" transform="rotate(6.32668 589.441 230.141)" fill="#F5F5F5"/>
<circle cx="577.752" cy="215.535" r="5.05715" transform="rotate(6.32668 577.752 215.535)" fill="#F5F5F5"/>
<circle cx="577.752" cy="215.535" r="5.05715" transform="rotate(6.32668 577.752 215.535)" fill="#F5F5F5"/>
<circle cx="577.752" cy="215.535" r="5.05715" transform="rotate(6.32668 577.752 215.535)" fill="#F5F5F5"/>
<path d="M603.951 312.869C605.155 329.852 628.99 340.859 647.58 349.986" stroke="#272525" stroke-width="5" stroke-linecap="round"/>
<path d="M306.53 214.505C302.525 194.976 309.453 188.137 279.874 215.777C253.676 240.258 261.371 224.763 267.858 237.962C274.346 251.16 302.852 247.68 302.852 247.68C317.25 224.618 309.534 229.152 306.53 214.505Z" fill="#F0AAB4"/>
<path d="M389.022 198.552C396.71 214.053 405.817 222.916 417.91 199.714C442.513 188.97 438.335 183.705 428.871 173.765C419.407 163.824 401.932 166.866 387.745 169.625C379.435 185.833 383.256 186.926 389.022 198.552Z" fill="#F0AAB4"/>
<path d="M218.322 283.737C223.574 299.947 237.537 304.627 243.717 280.654C261.157 271.629 272.97 270.981 258.172 258.95C243.373 246.919 240.617 248.608 227.99 260.124C222.765 264.889 214.323 271.392 218.322 283.737Z" fill="#F0AAB4"/>
<path d="M361.714 161.302C352.617 158.834 346.255 158.991 354.052 170.539C352.978 182.212 356.454 182.528 363.405 182.602C370.356 182.675 373.251 175.872 375.467 170.257C369.985 162.235 368.536 163.153 361.714 161.302Z" fill="#F0AAB4"/>
<path d="M353.951 288.783C368.641 275.145 375.469 262.798 345.607 260.428C325.438 240.984 320.972 247.129 313.065 260.252C305.158 273.375 314.374 289.026 322.178 301.616C342.992 303.138 342.934 299.012 353.951 288.783Z" fill="#F0AAB4"/>
<path d="M246.022 344.964C255.066 336.065 259.155 327.884 240.193 325.717C227.044 312.242 224.333 316.292 219.575 324.975C214.818 333.657 220.956 344.37 226.14 352.994C239.355 354.417 239.239 351.638 246.022 344.964Z" fill="#F0AAB4"/>
<path d="M302.073 287.745C295.451 268.826 286.868 257.629 272.748 284.048C246.858 294.751 250.703 301.303 259.566 313.801C268.429 326.298 286.46 324.114 301.121 321.999C310.844 303.533 307.039 301.935 302.073 287.745Z" fill="#F0AAB4"/>
<path d="M258.693 408.655C281.529 418.514 299.432 419.891 289.524 383.796C304.482 349.9 295.115 347.968 275.807 345.746C256.5 343.523 241.455 362.622 229.52 378.441C236.583 403.531 241.565 401.261 258.693 408.655Z" fill="#F0AAB4"/>
<path d="M343.099 198.219C321.852 200.329 308.601 205.626 334.888 222.956C342.619 247.478 350.202 245.401 364.887 240.112C379.572 234.822 379.841 218.755 379.696 205.627C361.3 193.641 359.036 196.636 343.099 198.219Z" fill="#F0AAB4"/>
<g filter="url(#filter1_d_42_5995)">
<ellipse cx="666.392" cy="297.685" rx="4.27912" ry="5.64446" transform="rotate(-0.916939 666.392 297.685)" fill="#B8717B"/>
</g>
<g filter="url(#filter2_d_42_5995)">
<line x1="529.823" y1="258.085" x2="555.516" y2="247.67" stroke="#F0AAB4" stroke-opacity="0.54" stroke-width="5" stroke-linecap="round" shape-rendering="crispEdges"/>
</g>
<g filter="url(#filter3_d_42_5995)">
<line x1="543.661" y1="266.674" x2="567.858" y2="256.167" stroke="#F0AAB4" stroke-opacity="0.54" stroke-width="5" stroke-linecap="round" shape-rendering="crispEdges"/>
</g>
<g filter="url(#filter4_d_42_5995)">
<line x1="2.5" y1="-2.5" x2="25.9813" y2="-2.5" transform="matrix(0.854617 -0.519258 0.742266 0.670106 562.616 277.921)" stroke="#F0AAB4" stroke-opacity="0.54" stroke-width="5" stroke-linecap="round" shape-rendering="crispEdges"/>
</g>
<g filter="url(#filter5_d_42_5995)">
<ellipse cx="605.35" cy="161.254" rx="9.74937" ry="25.2852" transform="rotate(-50.5647 605.35 161.254)" fill="#B8717B"/>
</g>
<defs>
<filter id="filter0_d_42_5995" x="535.147" y="179.691" width="86.8955" height="72.8716" filterUnits="userSpaceOnUse" color-interpolation-filters="sRGB">
<feFlood flood-opacity="0" result="BackgroundImageFix"/>
<feColorMatrix in="SourceAlpha" type="matrix" values="0 0 0 0 0 0 0 0 0 0 0 0 0 0 0 0 0 0 127 0" result="hardAlpha"/>
<feOffset dy="4"/>
<feGaussianBlur stdDeviation="2"/>
<feComposite in2="hardAlpha" operator="out"/>
<feColorMatrix type="matrix" values="0 0 0 0 0 0 0 0 0 0 0 0 0 0 0 0 0 0 0.25 0"/>
<feBlend mode="normal" in2="BackgroundImageFix" result="effect1_dropShadow_42_5995"/>
<feBlend mode="normal" in="SourceGraphic" in2="effect1_dropShadow_42_5995" result="shape"/>
</filter>
<filter id="filter1_d_42_5995" x="658.112" y="292.041" width="16.5591" height="19.2883" filterUnits="userSpaceOnUse" color-interpolation-filters="sRGB">
<feFlood flood-opacity="0" result="BackgroundImageFix"/>
<feColorMatrix in="SourceAlpha" type="matrix" values="0 0 0 0 0 0 0 0 0 0 0 0 0 0 0 0 0 0 127 0" result="hardAlpha"/>
<feOffset dy="4"/>
<feGaussianBlur stdDeviation="2"/>
<feComposite in2="hardAlpha" operator="out"/>
<feColorMatrix type="matrix" values="0 0 0 0 0 0 0 0 0 0 0 0 0 0 0 0 0 0 0.25 0"/>
<feBlend mode="normal" in2="BackgroundImageFix" result="effect1_dropShadow_42_5995"/>
<feBlend mode="normal" in="SourceGraphic" in2="effect1_dropShadow_42_5995" result="shape"/>
</filter>
<filter id="filter2_d_42_5995" x="512.323" y="230.169" width="60.6938" height="45.4165" filterUnits="userSpaceOnUse" color-interpolation-filters="sRGB">
<feFlood flood-opacity="0" result="BackgroundImageFix"/>
<feColorMatrix in="SourceAlpha" type="matrix" values="0 0 0 0 0 0 0 0 0 0 0 0 0 0 0 0 0 0 127 0" result="hardAlpha"/>
<feOffset/>
<feGaussianBlur stdDeviation="7.5"/>
<feComposite in2="hardAlpha" operator="out"/>
<feColorMatrix type="matrix" values="0 0 0 0 1 0 0 0 0 0.283333 0 0 0 0 0.283333 0 0 0 0.5 0"/>
<feBlend mode="normal" in2="BackgroundImageFix" result="effect1_dropShadow_42_5995"/>
<feBlend mode="normal" in="SourceGraphic" in2="effect1_dropShadow_42_5995" result="shape"/>
</filter>
<filter id="filter3_d_42_5995" x="526.16" y="238.667" width="59.1982" height="45.5076" filterUnits="userSpaceOnUse" color-interpolation-filters="sRGB">
<feFlood flood-opacity="0" result="BackgroundImageFix"/>
<feColorMatrix in="SourceAlpha" type="matrix" values="0 0 0 0 0 0 0 0 0 0 0 0 0 0 0 0 0 0 127 0" result="hardAlpha"/>
<feOffset/>
<feGaussianBlur stdDeviation="7.5"/>
<feComposite in2="hardAlpha" operator="out"/>
<feColorMatrix type="matrix" values="0 0 0 0 1 0 0 0 0 0.283333 0 0 0 0 0.283333 0 0 0 0.5 0"/>
<feBlend mode="normal" in2="BackgroundImageFix" result="effect1_dropShadow_42_5995"/>
<feBlend mode="normal" in="SourceGraphic" in2="effect1_dropShadow_42_5995" result="shape"/>
</filter>
<filter id="filter4_d_42_5995" x="545.067" y="245.635" width="55.7271" height="46.4316" filterUnits="userSpaceOnUse" color-interpolation-filters="sRGB">
<feFlood flood-opacity="0" result="BackgroundImageFix"/>
<feColorMatrix in="SourceAlpha" type="matrix" values="0 0 0 0 0 0 0 0 0 0 0 0 0 0 0 0 0 0 127 0" result="hardAlpha"/>
<feOffset/>
<feGaussianBlur stdDeviation="7.5"/>
<feComposite in2="hardAlpha" operator="out"/>
<feColorMatrix type="matrix" values="0 0 0 0 1 0 0 0 0 0.283333 0 0 0 0 0.283333 0 0 0 0.5 0"/>
<feBlend mode="normal" in2="BackgroundImageFix" result="effect1_dropShadow_42_5995"/>
<feBlend mode="normal" in="SourceGraphic" in2="effect1_dropShadow_42_5995" result="shape"/>
</filter>
<filter id="filter5_d_42_5995" x="580.857" y="143.511" width="48.9854" height="43.4858" filterUnits="userSpaceOnUse" color-interpolation-filters="sRGB">
<feFlood flood-opacity="0" result="BackgroundImageFix"/>
<feColorMatrix in="SourceAlpha" type="matrix" values="0 0 0 0 0 0 0 0 0 0 0 0 0 0 0 0 0 0 127 0" result="hardAlpha"/>
<feOffset dy="4"/>
<feGaussianBlur stdDeviation="2"/>
<feComposite in2="hardAlpha" operator="out"/>
<feColorMatrix type="matrix" values="0 0 0 0 0 0 0 0 0 0 0 0 0 0 0 0 0 0 0.25 0"/>
<feBlend mode="normal" in2="BackgroundImageFix" result="effect1_dropShadow_42_5995"/>
<feBlend mode="normal" in="SourceGraphic" in2="effect1_dropShadow_42_5995" result="shape"/>
</filter>
<linearGradient id="paint0_linear_42_5995" x1="416.285" y1="62.3373" x2="304.828" y2="645.897" gradientUnits="userSpaceOnUse">
<stop offset="0.453125" stop-color="#E0939E"/>
<stop offset="1" stop-color="#FFE4E8"/>
</linearGradient>
</defs>
</svg>
