<svg width="288" height="309" viewBox="0 0 288 309" fill="none" xmlns="http://www.w3.org/2000/svg">
<g filter="url(#filter0_f_13622_939)">
<path d="M65.3144 181.783L120.272 177.559C120.964 177.506 121.592 178.036 121.678 178.747L125.24 208.07C125.372 209.156 126.668 209.655 127.41 208.905L143.252 192.897C143.831 192.312 144.817 192.468 145.248 193.213L174.785 244.296C175.482 245.501 177.254 244.982 177.134 243.607L171.93 184.086C171.868 183.377 172.373 182.772 173.063 182.728L193.311 181.425C194.453 181.351 194.862 179.883 193.95 179.131L173.444 162.217C172.742 161.638 172.791 160.543 173.539 160.093L222.735 130.509C223.876 129.822 223.256 127.988 221.915 128.087L163.58 132.382C162.8 132.44 162.127 131.762 162.17 130.962L163.436 107.429C163.501 106.215 162.038 105.523 161.233 106.388L146.755 121.928C146.226 122.496 145.305 122.421 144.821 121.771L102.213 64.5734C101.365 63.4356 99.6473 64.2272 99.985 65.6L115.255 127.689C115.469 128.558 114.793 129.35 113.927 129.245L84.5702 125.686C83.2792 125.529 82.6854 127.211 83.7496 128.011L110.088 147.787C110.822 148.338 110.815 149.45 110.074 149.928L64.4584 179.382C63.3546 180.094 63.9928 181.884 65.3144 181.783Z" fill="url(#paint0_radial_13622_939)"/>
</g>
<g filter="url(#filter1_g_13622_939)">
<path d="M65.3144 181.783L120.272 177.559C120.964 177.506 121.592 178.036 121.678 178.747L125.24 208.07C125.372 209.156 126.668 209.655 127.41 208.905L143.252 192.897C143.831 192.312 144.817 192.468 145.248 193.213L174.785 244.296C175.482 245.501 177.254 244.982 177.134 243.607L171.93 184.086C171.868 183.377 172.373 182.772 173.063 182.728L193.311 181.425C194.453 181.351 194.862 179.883 193.95 179.131L173.444 162.217C172.742 161.638 172.791 160.543 173.539 160.093L222.735 130.509C223.876 129.822 223.256 127.988 221.915 128.087L163.58 132.382C162.8 132.44 162.127 131.762 162.17 130.962L163.436 107.429C163.501 106.215 162.038 105.523 161.233 106.388L146.755 121.928C146.226 122.496 145.305 122.421 144.821 121.771L102.213 64.5734C101.365 63.4356 99.6473 64.2272 99.985 65.6L115.255 127.689C115.469 128.558 114.793 129.35 113.927 129.245L84.5702 125.686C83.2792 125.529 82.6854 127.211 83.7496 128.011L110.088 147.787C110.822 148.338 110.815 149.45 110.074 149.928L64.4584 179.382C63.3546 180.094 63.9928 181.884 65.3144 181.783Z" fill="url(#paint1_radial_13622_939)"/>
</g>
<defs>
<filter id="filter0_f_13622_939" x="13.3417" y="13.4766" width="260.542" height="282.047" filterUnits="userSpaceOnUse" color-interpolation-filters="sRGB">
<feFlood flood-opacity="0" result="BackgroundImageFix"/>
<feBlend mode="normal" in="SourceGraphic" in2="BackgroundImageFix" result="shape"/>
<feGaussianBlur stdDeviation="25.2593" result="effect1_foregroundBlur_13622_939"/>
</filter>
<filter id="filter1_g_13622_939" x="61.8426" y="61.9775" width="163.54" height="185.045" filterUnits="userSpaceOnUse" color-interpolation-filters="sRGB">
<feFlood flood-opacity="0" result="BackgroundImageFix"/>
<feBlend mode="normal" in="SourceGraphic" in2="BackgroundImageFix" result="shape"/>
<feTurbulence type="fractalNoise" baseFrequency="0.097555562853813171 0.097555562853813171" numOctaves="3" seed="2227" />
<feDisplacementMap in="shape" scale="4.1002273559570312" xChannelSelector="R" yChannelSelector="G" result="displacedImage" width="100%" height="100%" />
<feMerge result="effect1_texture_13622_939">
<feMergeNode in="displacedImage"/>
</feMerge>
</filter>
<radialGradient id="paint0_radial_13622_939" cx="0" cy="0" r="1" gradientTransform="matrix(-33.5956 -96.7436 83.6575 -27.2506 143.035 152.786)" gradientUnits="userSpaceOnUse">
<stop stop-color="#F25C4E"/>
<stop offset="1" stop-color="#F25C4E" stop-opacity="0"/>
</radialGradient>
<radialGradient id="paint1_radial_13622_939" cx="0" cy="0" r="1" gradientTransform="matrix(-33.5956 -96.7436 83.6575 -27.2506 143.035 152.786)" gradientUnits="userSpaceOnUse">
<stop stop-color="#F0A36C"/>
<stop offset="1" stop-color="#F25C4E"/>
</radialGradient>
</defs>
</svg>
