<svg width="443" height="323" viewBox="0 0 443 323" fill="none" xmlns="http://www.w3.org/2000/svg">
<path d="M6.89921 107.51C3.08888 84.1036 18.9745 62.0401 42.3808 58.2298L357.694 6.89967C381.1 3.08934 403.163 18.975 406.974 42.3812L435.123 215.295C438.933 238.701 423.047 260.764 399.641 264.575L84.328 315.905C60.9217 319.715 38.8583 303.83 35.048 280.423L6.89921 107.51Z" fill="white"/>
<path d="M20.8748 107.845C17.8266 89.1198 30.5351 71.4691 49.2601 68.4208L353.554 18.8845C372.279 15.8362 389.93 28.5447 392.978 47.2697L420.299 215.098C423.347 233.823 410.639 251.473 391.914 254.522L87.6197 304.058C68.8947 307.106 51.244 294.398 48.1957 275.673L20.8748 107.845Z" fill="#C8D6DD"/>
<mask id="mask0_207_42097" style="mask-type:alpha" maskUnits="userSpaceOnUse" x="20" y="18" width="401" height="287">
<path d="M20.8748 107.845C17.8266 89.1198 30.5351 71.4691 49.2601 68.4208L353.554 18.8845C372.279 15.8362 389.93 28.5447 392.978 47.2697L420.299 215.098C423.347 233.823 410.639 251.473 391.914 254.522L87.6197 304.058C68.8947 307.106 51.244 294.398 48.1957 275.673L20.8748 107.845Z" fill="#B9C2D3"/>
</mask>
<g mask="url(#mask0_207_42097)">
<path d="M71.7633 249.145L39.6134 254.378C40.0469 257.041 39.2763 268.538 38.1258 270.908C35.8932 275.509 33.6024 277.735 35.6046 282.66C38.6755 290.215 37.7468 299.221 40.8402 306.965C43.0804 312.572 49.4994 315.162 51.1453 320.765C52.62 325.784 63.8568 323.343 67.3188 323.206C81.2231 322.653 95.1679 322.472 108.972 320.561C114.81 319.753 118.656 316.988 124.226 315.519C146.99 309.516 171.302 309.017 194.652 307.849C209.767 307.093 224.892 306.635 240.01 305.966C244.164 305.782 248.607 305.77 252.703 304.837C275.986 299.538 299.984 298.931 323.35 293.806C341.356 289.856 358.468 283.006 376.622 279.505C389.562 277.01 404.353 276.514 416.505 270.966C422.888 268.052 429.188 261.074 429.992 253.762C431.522 239.855 432.303 224.601 430.784 210.697C430.22 205.527 430.208 198.401 425.55 195.048C422.812 193.076 416.799 195.278 413.731 195.778C407.558 196.783 401.083 197.348 395.1 199.195C390.118 200.732 385.068 201.843 379.962 202.853C375.41 203.753 371.166 205.7 366.616 206.518C363.027 207.162 360.279 209.059 356.956 210.563C350.031 213.698 342.646 215.58 335.33 217.58C330.293 218.957 325.419 219.055 320.991 222.217C315.928 225.831 309.265 225.718 303.278 226.038C292.426 226.62 281.923 227.98 271.217 229.723C260.1 231.532 248.437 229.995 237.178 231.469C231.703 232.186 226.045 233.816 220.508 234.098C211.512 234.554 201.64 232.403 192.635 231.813C181.302 231.071 170.085 236.178 158.632 234.833C155.531 234.468 152.595 235.468 149.471 235.13C143.173 234.449 136.486 235.538 130.272 236.55L129.927 236.606C123.22 237.698 116.822 239.507 110.111 240.6C105.693 241.319 100.316 242.132 96.2538 244.007C88.1893 247.728 80.1053 247.787 71.7633 249.145Z" fill="#98A1C5"/>
<path d="M143.054 228.689C147.31 229.593 151.768 230.997 156.177 230.773L178.985 261.342C172.912 260.75 166.847 260.03 160.759 259.604L160.707 259.6C160.145 259.561 159.578 259.521 159.015 259.57C150.271 260.337 141.557 262.011 132.849 263.139C130.292 263.47 127.868 263.626 125.299 264.293C120.07 265.651 114.509 265.196 109.283 266.714C107.609 267.2 106.165 268.285 104.537 268.906C103.289 269.382 101.961 269.467 100.742 270.046C99.3305 270.717 98.2656 271.917 96.8859 272.653C95.0079 273.655 92.6771 274.033 90.6073 274.385C83.6946 275.559 76.5975 276.23 69.8185 278.03C67.2109 278.723 64.9413 275.977 63.1846 274.48C60.874 272.511 58.4987 271.491 58.3326 268.211C58.2615 266.807 59.6468 265.921 60.0993 264.712C61.3516 261.367 60.7143 255.958 63.4895 253.274C64.7801 252.026 66.293 250.735 67.7464 249.687C68.435 249.191 69.0944 248.555 69.0767 247.641C69.0118 244.281 68.3519 240.909 71.46 238.514C74.0633 236.508 77.4838 235.181 80.7009 234.657C81.9151 234.459 83.7758 234.078 84.8964 233.563C89.1083 231.63 85.7899 227.276 87.9848 224.06C88.4674 223.353 90.4435 222.228 91.2261 221.927C92.9394 221.267 95.5004 220.968 97.3077 220.937C100.548 220.881 101.552 224.174 103.37 226.261C105.049 228.188 107.366 229.828 108.466 232.191C109.085 233.519 108.979 236.776 110.7 236.496C112.004 236.283 112.658 237.185 113.809 236.998C118.588 236.22 122.61 233.51 127.344 232.423C130.553 231.686 133.192 229.809 136.549 229.263C138.68 228.916 140.922 228.237 143.054 228.689Z" fill="url(#paint0_linear_207_42097)"/>
<path d="M122.661 229.239C123.678 230.526 124.682 232.084 126.554 231.779C127.781 232.162 137.811 237.911 138.974 238.49C140.128 239.065 141.662 239.243 142.937 239.088C144.388 238.911 145.986 239.437 147.565 239.225C158.121 237.806 168.575 235.675 179.055 233.813C181.723 233.339 188.599 237.955 191.33 237.726C201.1 236.908 210.787 237.874 220.496 238.991C236.157 240.793 247.642 237.827 263.454 237.473C265.498 237.427 267.531 237.245 269.548 236.917C280.559 235.125 291.679 233.661 302.594 231.353C307.508 230.313 312.879 229.247 317.114 226.386C319.633 224.684 321.763 222.491 324.308 220.815C328.439 218.093 332.758 215.679 336.897 212.971C338.885 211.671 340.897 210.149 342.291 208.214C343.632 206.352 343.071 205.425 342.31 203.273C341.043 199.686 339.519 196.349 338.905 192.575C338.551 190.4 338.166 188.831 336.933 186.968C335.944 185.473 335.229 185.717 333.596 185.982C332.906 186.095 332.498 186.163 332.031 186.691C331.944 186.789 331.207 187.55 331.123 187.41C330.912 187.06 331.178 186.267 331.142 185.878C331.016 184.515 331.181 183.18 331.071 181.826C330.755 177.963 329.853 173.519 326.427 171.262C324.347 169.893 323.118 169.012 321.709 167.059C318.763 162.979 313.03 164.556 308.742 164.635C307.845 164.652 304.49 165.643 305.379 164.108C307.31 160.771 303.908 156.773 302.522 153.993C301.865 152.675 301.184 151.481 300.322 150.287C299.78 149.536 298.649 148.45 298.653 147.468C298.658 146.243 299.78 144.751 300.23 143.634C300.954 141.84 300.911 139.991 300.991 138.086C301.237 132.207 302.448 125.956 297.698 121.575C296.441 120.416 294.175 119.737 292.71 118.81C289.271 116.634 286.003 114.411 282.898 111.809C277.345 107.154 270.886 108.266 264.455 110.848C259.039 113.021 254.559 116.734 250.132 120.434C249.82 120.695 246.993 123.383 246.487 122.926C245.678 122.196 243.74 123.015 242.802 123.005C239.768 122.97 236.472 121.035 233.859 119.691C232.645 119.066 231.325 118.43 229.923 118.535C229.206 118.588 229.04 118.527 228.43 118.14C225.975 116.584 222.876 117.758 220.813 119.464C215.074 124.208 211.353 130.929 204.796 134.852C202.013 136.516 200.704 137.568 197.878 136.129C191.386 132.823 190.551 146.258 190.299 149.455C190.031 152.848 190.022 156.095 186.023 154.064C183.533 152.799 181.3 151.319 179.04 149.675C178.244 149.096 176.634 148.234 176.317 147.196C175.623 144.93 174.683 142.907 172.895 141.254C170.632 139.161 166.983 136.563 163.789 137.144C162.976 137.292 161.562 138.24 160.716 137.778C159.175 136.938 158.133 135.465 156.9 134.268C152.81 130.296 147.04 130.435 145.491 136.663C144.367 141.181 145.916 146.295 146.644 150.767C147.195 154.151 147.817 157.533 148.282 160.93C148.532 162.758 148.507 164.512 148.441 166.345C148.415 167.063 148.603 167.478 147.923 167.085C146.958 166.528 145.211 166.417 144.211 167C143.46 167.439 144.374 169.618 144.504 170.144C145.319 173.426 145.986 176.733 146.85 180.006C147.585 182.794 148.482 185.713 148.867 188.579C149.002 189.583 148.255 189.552 147.466 189.68C146.4 189.854 144.892 190.052 144.653 191.398C144.202 193.942 145.691 196.9 147.202 198.792C149.202 201.299 149.559 204.317 149.058 207.408C148.939 208.141 148.836 212.064 148.122 211.877C147.196 211.634 146.209 211.953 145.268 212.106C140.156 212.938 134.626 213.889 130.816 217.801C128.812 219.859 129.357 223.693 126.983 225.227C125.94 225.9 120.896 227.006 122.661 229.239Z" fill="#7EA482"/>
<path d="M122.661 229.239C123.678 230.526 124.682 232.084 126.554 231.779C127.781 232.162 137.811 237.911 138.974 238.49C140.128 239.065 141.662 239.243 142.937 239.088C144.388 238.911 145.986 239.437 147.565 239.225C158.121 237.806 168.575 235.675 179.055 233.813C181.723 233.339 188.599 237.955 191.33 237.726C201.1 236.908 210.787 237.874 220.496 238.991C236.157 240.793 247.642 237.827 263.454 237.473C265.498 237.427 267.531 237.245 269.548 236.917C280.559 235.125 291.679 233.661 302.594 231.353C307.508 230.313 312.879 229.247 317.114 226.386C319.633 224.684 321.763 222.491 324.308 220.815C328.439 218.093 332.758 215.679 336.897 212.971C338.885 211.671 340.897 210.149 342.291 208.214C343.632 206.352 343.071 205.425 342.31 203.273C341.043 199.686 339.519 196.349 338.905 192.575C338.551 190.4 338.166 188.831 336.933 186.968C335.944 185.473 335.229 185.717 333.596 185.982C332.906 186.095 332.498 186.163 332.031 186.691C331.944 186.789 331.207 187.55 331.123 187.41C330.912 187.06 331.178 186.267 331.142 185.878C331.016 184.515 331.181 183.18 331.071 181.826C330.755 177.963 329.853 173.519 326.427 171.262C324.347 169.893 323.118 169.012 321.709 167.059C318.763 162.979 313.03 164.556 308.742 164.635C307.845 164.652 304.49 165.643 305.379 164.108C307.31 160.771 303.908 156.773 302.522 153.993C301.865 152.675 301.184 151.481 300.322 150.287C299.78 149.536 298.649 148.45 298.653 147.468C298.658 146.243 299.78 144.751 300.23 143.634C300.954 141.84 300.911 139.991 300.991 138.086C301.237 132.207 302.448 125.956 297.698 121.575C296.441 120.416 294.175 119.737 292.71 118.81C289.271 116.634 286.003 114.411 282.898 111.809C277.345 107.154 270.886 108.266 264.455 110.848C259.039 113.021 254.559 116.734 250.132 120.434C249.82 120.695 246.993 123.383 246.487 122.926C245.678 122.196 243.74 123.015 242.802 123.005C239.768 122.97 236.472 121.035 233.859 119.691C232.645 119.066 231.325 118.43 229.923 118.535C229.206 118.588 229.04 118.527 228.43 118.14C225.975 116.584 222.876 117.758 220.813 119.464C215.074 124.208 211.353 130.929 204.796 134.852C202.013 136.516 200.704 137.568 197.878 136.129C191.386 132.823 190.551 146.258 190.299 149.455C190.031 152.848 190.022 156.095 186.023 154.064C183.533 152.799 181.3 151.319 179.04 149.675C178.244 149.096 176.634 148.234 176.317 147.196C175.623 144.93 174.683 142.907 172.895 141.254C170.632 139.161 166.983 136.563 163.789 137.144C162.976 137.292 161.562 138.24 160.716 137.778C159.175 136.938 158.133 135.465 156.9 134.268C152.81 130.296 147.04 130.435 145.491 136.663C144.367 141.181 145.916 146.295 146.644 150.767C147.195 154.151 147.817 157.533 148.282 160.93C148.532 162.758 148.507 164.512 148.441 166.345C148.415 167.063 148.603 167.478 147.923 167.085C146.958 166.528 145.211 166.417 144.211 167C143.46 167.439 144.374 169.618 144.504 170.144C145.319 173.426 145.986 176.733 146.85 180.006C147.585 182.794 148.482 185.713 148.867 188.579C149.002 189.583 148.255 189.552 147.466 189.68C146.4 189.854 144.892 190.052 144.653 191.398C144.202 193.942 145.691 196.9 147.202 198.792C149.202 201.299 149.559 204.317 149.058 207.408C148.939 208.141 148.836 212.064 148.122 211.877C147.196 211.634 146.209 211.953 145.268 212.106C140.156 212.938 134.626 213.889 130.816 217.801C128.812 219.859 129.357 223.693 126.983 225.227C125.94 225.9 120.896 227.006 122.661 229.239Z" fill="#7EA482"/>
<path d="M146.311 236.008C147.051 237.132 147.79 238.488 149.081 238.278C149.943 238.636 157.059 243.806 157.882 244.331C158.698 244.851 159.768 245.044 160.649 244.945C161.652 244.833 162.775 245.324 163.865 245.185C171.156 244.255 178.358 242.715 185.584 241.404C187.423 241.071 192.319 245.19 194.209 245.067C200.97 244.629 207.721 245.709 214.491 246.919C225.411 248.871 233.306 246.646 244.273 246.764C245.692 246.779 247.098 246.678 248.49 246.452C256.086 245.215 263.768 244.262 271.284 242.583C274.668 241.827 278.369 241.059 281.232 238.732C282.936 237.347 284.357 235.534 286.079 234.171C288.875 231.96 291.809 230.016 294.611 227.816C295.957 226.76 297.313 225.515 298.23 223.902C299.111 222.35 298.697 221.544 298.112 219.689C297.137 216.596 295.991 213.709 295.464 210.475C295.161 208.611 294.852 207.262 293.947 205.64C293.22 204.339 292.73 204.528 291.604 204.712C291.128 204.789 290.846 204.836 290.536 205.274C290.478 205.356 289.987 205.985 289.924 205.863C289.769 205.56 289.933 204.891 289.897 204.558C289.773 203.392 289.853 202.258 289.74 201.1C289.419 197.797 288.675 193.983 286.236 191.968C284.756 190.745 283.88 189.961 282.849 188.258C280.696 184.701 276.757 185.894 273.783 185.847C273.161 185.838 270.858 186.594 271.434 185.308C272.686 182.514 270.219 179.014 269.182 176.606C268.691 175.465 268.187 174.429 267.557 173.387C267.16 172.732 266.347 171.777 266.323 170.939C266.294 169.895 267.034 168.652 267.317 167.711C267.771 166.201 267.693 164.623 267.698 162.999C267.713 157.992 268.388 152.694 264.974 148.832C264.07 147.809 262.479 147.171 261.438 146.341C258.992 144.394 256.665 142.412 254.44 140.11C250.461 135.993 246.007 136.771 241.61 138.801C237.908 140.512 234.896 143.559 231.921 146.597C231.712 146.812 229.821 149.029 229.457 148.625C228.876 147.981 227.552 148.629 226.901 148.595C224.793 148.485 222.454 146.747 220.604 145.532C219.745 144.967 218.812 144.389 217.841 144.441C217.345 144.468 217.228 144.411 216.794 144.065C215.049 142.673 212.928 143.592 211.541 144.992C207.683 148.886 205.278 154.519 200.83 157.69C198.942 159.036 198.06 159.899 196.06 158.596C191.466 155.605 191.242 167.04 191.152 169.76C191.056 172.647 191.136 175.415 188.306 173.577C186.544 172.433 184.954 171.111 183.342 169.649C182.774 169.135 181.634 168.356 181.386 167.463C180.844 165.512 180.138 163.762 178.853 162.305C177.226 160.46 174.624 158.147 172.422 158.558C171.862 158.662 170.905 159.434 170.305 159.018C169.213 158.26 168.45 156.976 167.563 155.923C164.618 152.427 160.616 152.392 159.706 157.662C159.045 161.486 160.257 165.888 160.881 169.722C161.353 172.622 161.874 175.523 162.287 178.432C162.509 179.997 162.538 181.493 162.541 183.055C162.542 183.666 162.684 184.025 162.201 183.672C161.516 183.171 160.301 183.03 159.622 183.501C159.112 183.855 159.804 185.738 159.909 186.19C160.561 189.01 161.112 191.848 161.798 194.663C162.383 197.06 163.083 199.573 163.426 202.027C163.546 202.887 163.027 202.841 162.483 202.93C161.748 203.049 160.706 203.179 160.576 204.32C160.33 206.477 161.442 209.039 162.541 210.694C163.996 212.885 164.324 215.467 164.058 218.09C163.995 218.712 164.027 222.055 163.527 221.876C162.878 221.645 162.201 221.891 161.552 221.996C158.025 222.571 154.211 223.235 151.67 226.47C150.333 228.172 150.813 231.456 149.205 232.701C148.499 233.248 145.027 234.057 146.311 236.008Z" fill="#90C295" fill-opacity="0.56"/>
<path d="M330.701 202.174C332.717 209.107 340.414 212.381 342.115 219.314C345.669 218.735 352.885 219.982 356.439 219.403C358.324 219.096 360.106 218.59 361.279 216.665C365.16 210.3 372.706 210.097 378.739 209.115C384.585 208.163 391.085 206.707 395.344 201.57C397.837 198.564 402.047 193.988 400.573 188.917C399.904 186.615 398.132 186.99 396.608 186.536C394.685 185.963 397.45 179.775 397.834 177.829C398.264 175.642 400.348 165.348 397.063 164.404C394.872 163.774 394.983 163.33 395.568 160.998L395.571 160.982C396.368 157.805 398.098 156.135 396.954 152.418C395.056 146.252 392.143 144.646 387.058 145.421C383.609 145.947 380.174 146.73 376.685 146.975C374.471 147.131 372.209 146.68 370.013 146.985C367.026 147.4 368.097 145.795 366.9 142.953C365.447 139.502 363.028 139.409 360.279 138.852C357.59 138.308 354.569 134.065 352.222 132.329C349.436 130.268 345.2 129.709 342.577 132.118C340.358 134.154 339.989 133.125 338.411 130.308C336.272 126.488 334.627 122.602 330.587 124.722C326.112 127.07 324.805 134.206 323.91 139.628C323.645 141.232 324.594 144.133 323.776 145.366C322.661 147.047 322.858 148.256 323.224 150.503L323.234 150.566C324.119 156.001 324.306 163.457 326.624 168.44C327.409 170.125 330.791 179.227 328.469 179.774C323.781 180.877 325.822 186.337 327.696 189.617C329.217 192.281 330.788 194.974 332.52 197.44C332.686 197.676 335.116 200.276 334.416 200.561C333.589 200.897 330.189 200.413 330.701 202.174Z" fill="#78947A"/>
<path fill-rule="evenodd" clip-rule="evenodd" d="M271.698 210.556L268.937 193.598L269.785 193.46L272.545 210.418L271.698 210.556Z" fill="#914857"/>
<path fill-rule="evenodd" clip-rule="evenodd" d="M282.489 208.8L279.729 191.841L280.576 191.703L283.337 208.662L282.489 208.8Z" fill="#914857"/>
<path fill-rule="evenodd" clip-rule="evenodd" d="M287.628 207.963L284.868 191.004L285.715 190.866L288.476 207.825L287.628 207.963Z" fill="#914857"/>
<path fill-rule="evenodd" clip-rule="evenodd" d="M292.768 207.126L290.007 190.168L290.854 190.03L293.615 206.988L292.768 207.126Z" fill="#914857"/>
<path fill-rule="evenodd" clip-rule="evenodd" d="M277.35 209.636L274.589 192.678L275.437 192.54L278.198 209.498L277.35 209.636Z" fill="#914857"/>
<path fill-rule="evenodd" clip-rule="evenodd" d="M303.045 205.454L300.284 188.495L301.132 188.357L303.892 205.316L303.045 205.454Z" fill="#914857"/>
<path fill-rule="evenodd" clip-rule="evenodd" d="M308.184 204.617L305.423 187.659L306.271 187.521L309.032 204.479L308.184 204.617Z" fill="#914857"/>
<path fill-rule="evenodd" clip-rule="evenodd" d="M313.323 203.78L310.562 186.822L311.41 186.684L314.171 203.642L313.323 203.78Z" fill="#914857"/>
<path fill-rule="evenodd" clip-rule="evenodd" d="M297.906 206.29L295.145 189.332L295.993 189.194L298.753 206.152L297.906 206.29Z" fill="#914857"/>
<path fill-rule="evenodd" clip-rule="evenodd" d="M316.516 191.563L264.099 200.096L263.961 199.248L316.378 190.715L316.516 191.563Z" fill="#914857"/>
<path fill-rule="evenodd" clip-rule="evenodd" d="M315.68 186.424L263.263 194.957L263.125 194.109L315.542 185.576L315.68 186.424Z" fill="#914857"/>
<path d="M258.075 157.386L232.484 154.944L231.735 150.346L255.23 139.913L307.895 131.34L333.486 133.782L334.235 138.38L310.74 148.812L258.075 157.386Z" fill="#71414B"/>
<path d="M231.138 151.221L202.176 143.752L214.939 121.153L337.072 101.27L356.344 118.654L331.246 134.924L305.703 132.67L254.647 140.981L231.138 151.221Z" fill="url(#paint1_linear_207_42097)"/>
<path d="M279.496 77.0543L313.727 94.919C307.643 99.7064 304.016 102.049 292.476 98.3784C283.738 90.4114 281.874 85.6459 279.496 77.0543Z" fill="#766266"/>
<path d="M326.984 99.7929C320.026 144.372 372.28 125.9 375.838 80.9471L351.906 94.6347L326.984 99.7929Z" fill="#914857"/>
<path d="M328.435 99.5113C326.475 142.559 370.217 109.355 373.927 82.5641L351.907 94.6353L328.435 99.5113Z" fill="#766266"/>
<path fill-rule="evenodd" clip-rule="evenodd" d="M269.61 68.5334C268.93 69.5046 269.166 70.8433 270.137 71.5235C295.947 89.5997 314.939 98.7189 331.27 99.89C347.805 101.076 361.195 94.101 375.681 81.2282C376.568 80.4406 376.648 79.0836 375.86 78.1972C375.073 77.3109 373.716 77.2309 372.829 78.0185C358.747 90.5323 346.461 96.6744 331.578 95.6071C316.491 94.5254 298.324 86.0221 272.6 68.0064C271.629 67.3262 270.29 67.5622 269.61 68.5334Z" fill="#69585B"/>
<path d="M263.115 77.9804L234.015 107.667C241.899 110.426 246.425 111.554 257.037 103.919C263.305 92.9035 263.597 87.46 263.115 77.9804Z" fill="#766266"/>
<path d="M223.524 116.636C244.262 156.706 189.481 154.789 171.139 114.271L198.253 119.649L223.524 116.636Z" fill="#914857"/>
<path d="M222.058 116.829C236.257 161.531 185.905 139.36 173.889 115.129L198.252 119.649L222.058 116.829Z" fill="#766266"/>
<path fill-rule="evenodd" clip-rule="evenodd" d="M268.021 68.7926C268.974 69.4979 269.175 70.8423 268.469 71.7954C249.725 97.1246 234.606 111.797 219.489 118.087C204.184 124.456 189.273 122.089 171.452 114.475C170.362 114.01 169.856 112.748 170.321 111.658C170.787 110.567 172.049 110.061 173.139 110.527C190.463 117.928 204.063 119.856 217.84 114.123C231.804 108.312 246.336 94.4857 265.018 69.2412C265.723 68.2881 267.067 68.0872 268.021 68.7926Z" fill="#69585B"/>
<path d="M333.896 58.531C332.587 103.661 326.292 125.651 279.076 131.725C232.372 140.94 219.952 121.997 204.396 79.6122C229.049 121.957 262.034 122.909 269.408 69.0288C293.491 117.788 323.947 106.509 333.896 58.531Z" fill="#914857"/>
<path d="M330.107 64.4233C329.048 105.831 321.567 121.021 279.016 126.467C236.934 134.798 224.509 122.849 210.37 83.915C232.71 122.837 261.903 118.637 269.659 68.9886C291.502 113.795 321.266 108.421 330.107 64.4233Z" fill="#766367"/>
<path fill-rule="evenodd" clip-rule="evenodd" d="M269.445 69.2871C269.215 69.122 268.955 68.9921 268.669 68.9076C267.304 68.5043 265.871 69.2836 265.468 70.6482C261.017 85.7082 256.826 95.5785 252.699 101.518C248.622 107.387 244.961 108.967 241.434 108.595C237.509 108.182 232.869 105.314 227.088 100.061C221.915 95.3598 216.214 89.1214 209.679 81.9721C209.014 81.2444 208.341 80.5073 207.658 79.7614C206.697 78.7118 205.068 78.6396 204.018 79.6002C202.968 80.5609 202.896 82.1905 203.857 83.2401C204.547 83.9946 205.231 84.7428 205.908 85.4837C212.39 92.577 218.261 99.0015 223.623 103.874C229.463 109.182 235.181 113.117 240.894 113.72C247.006 114.364 252.265 111.174 256.931 104.458C261.435 97.9758 265.711 87.7964 270.082 73.2068C278.856 85.6568 286.14 93.9544 292.467 98.6738C299.022 103.562 305.022 104.92 310.613 102.37C315.841 99.987 320.015 94.4415 323.87 87.5551C327.41 81.2335 330.94 73.2786 334.837 64.4955C335.244 63.5782 335.655 62.6518 336.071 61.7173C336.649 60.4171 336.064 58.8945 334.764 58.3164C333.463 57.7383 331.941 58.3236 331.363 59.6238C330.952 60.5476 330.547 61.4602 330.147 62.3612C326.218 71.2139 322.789 78.9387 319.374 85.038C315.559 91.8536 312.067 96.0445 308.476 97.682C305.249 99.1532 301.276 98.8157 295.548 94.5433C289.75 90.2192 282.645 82.1879 273.647 69.317C272.832 68.1508 271.226 67.8663 270.06 68.6815C269.815 68.8524 269.61 69.058 269.445 69.2871Z" fill="#69585B"/>
<path d="M261.381 69.9982L258.739 77.8238L265.917 73.8109L273.545 72.5691L281.625 74.0983L276.638 67.5145L275.826 62.5266L272.74 60.7532L262.932 62.3499L260.569 65.0103L261.381 69.9982Z" fill="#615154"/>
<path d="M260.052 47.1572C259.975 46.6891 260.293 46.2478 260.761 46.1716L269.833 44.6947C270.301 44.6185 270.743 44.9362 270.819 45.4044L273.22 60.1537C273.296 60.6218 272.978 61.0631 272.51 61.1393L263.438 62.6161C262.97 62.6924 262.529 62.3746 262.453 61.9065L260.052 47.1572Z" fill="#766266"/>
<path d="M258.401 50.591C258.324 50.1229 258.642 49.6816 259.11 49.6054L272.489 47.4274C272.957 47.3512 273.399 47.669 273.475 48.1371L274.705 55.6919C274.781 56.16 274.463 56.6013 273.995 56.6775L260.616 58.8555C260.148 58.9317 259.707 58.614 259.631 58.1459L258.401 50.591Z" fill="#615154"/>
<path d="M228.273 148.522L233.412 147.686L244.12 213.464L238.982 214.3L228.273 148.522Z" fill="url(#paint2_linear_207_42097)"/>
<path d="M328.996 132.125L334.135 131.289L344.843 197.067L339.704 197.903L328.996 132.125Z" fill="url(#paint3_linear_207_42097)"/>
<path fill-rule="evenodd" clip-rule="evenodd" d="M227.167 197.802L263.24 194.62L263.315 195.475L252.251 196.451L254.304 199.563L263.398 198.814L263.468 199.67L254.843 200.381L262.118 211.411L261.402 211.884L253.867 200.461L247.846 200.957L254.758 211.556L254.038 212.025L246.873 201.037L241.911 201.446L248.425 211.534L247.703 212L240.941 201.526L236.525 201.889L243.286 212.371L242.564 212.836L235.555 201.969L231.12 202.335L238.147 213.207L237.426 213.673L227.167 197.802ZM230.606 201.54L230.604 201.515L235.027 201.151L233.086 198.142L228.662 198.532L230.606 201.54ZM234.053 198.056L235.997 201.071L240.412 200.708L238.45 197.669L234.053 198.056ZM239.417 197.583L241.383 200.628L246.339 200.219L244.337 197.149L239.417 197.583ZM245.307 197.064L247.312 200.139L253.328 199.644L251.279 196.537L245.307 197.064Z" fill="#914857"/>
<path fill-rule="evenodd" clip-rule="evenodd" d="M350.814 177.673L315.595 186.097L315.795 186.932L326.598 184.348L325.638 187.951L316.776 190.125L316.98 190.959L325.386 188.897L321.984 201.665L322.814 201.886L326.337 188.663L332.204 187.224L329.011 199.468L329.842 199.685L333.152 186.991L337.987 185.805L335.01 197.438L335.842 197.651L338.933 185.573L343.236 184.517L340.149 196.602L340.981 196.815L344.182 184.285L348.504 183.225L345.288 195.765L346.12 195.978L350.814 177.673ZM348.738 182.309L348.732 182.285L344.423 183.342L345.309 179.872L349.628 178.839L348.738 182.309ZM344.365 180.098L343.477 183.574L339.175 184.63L340.072 181.125L344.365 180.098ZM339.127 181.351L338.229 184.862L333.399 186.047L334.324 182.5L339.127 181.351ZM333.377 182.726L332.451 186.279L326.589 187.717L327.547 184.121L333.377 182.726Z" fill="#914857"/>
<path fill-rule="evenodd" clip-rule="evenodd" d="M254.14 144.733L232.963 153.983L232.619 153.196L253.796 143.946L254.14 144.733Z" fill="#914857"/>
<path fill-rule="evenodd" clip-rule="evenodd" d="M254.13 147.899L233.467 157.065L233.119 156.28L253.782 147.114L254.13 147.899Z" fill="#914857"/>
<path fill-rule="evenodd" clip-rule="evenodd" d="M236.749 157.892L235.044 147.42L235.892 147.282L237.701 158.393L233.978 160.145L233.612 159.367L236.749 157.892Z" fill="#914857"/>
<path fill-rule="evenodd" clip-rule="evenodd" d="M250.416 152.253L248.751 142.024L247.904 142.162L249.752 153.515L253.697 151.659L253.331 150.882L250.416 152.253Z" fill="#914857"/>
<path fill-rule="evenodd" clip-rule="evenodd" d="M307.482 136.063L255.065 144.597L254.927 143.749L307.344 135.216L307.482 136.063Z" fill="#914857"/>
<path fill-rule="evenodd" clip-rule="evenodd" d="M307.984 139.147L255.567 147.68L255.429 146.832L307.846 138.299L307.984 139.147Z" fill="#914857"/>
<path fill-rule="evenodd" clip-rule="evenodd" d="M261.673 148.98L260.069 139.126L260.916 138.988L262.658 149.69L257.096 150.595L256.958 149.748L261.673 148.98Z" fill="#914857"/>
<path fill-rule="evenodd" clip-rule="evenodd" d="M302.604 142.317L301 132.463L300.152 132.601L301.894 143.303L307.457 142.397L307.319 141.55L302.604 142.317Z" fill="#914857"/>
<path d="M250.574 136.452L255.713 135.615L268.094 211.672L262.955 212.508L250.574 136.452Z" fill="url(#paint4_linear_207_42097)"/>
<path fill-rule="evenodd" clip-rule="evenodd" d="M308.402 135.9L331.42 137.956L331.496 137.1L308.479 135.045L308.402 135.9Z" fill="#914857"/>
<path fill-rule="evenodd" clip-rule="evenodd" d="M309.416 138.899L331.92 141.038L332.001 140.183L309.497 138.044L309.416 138.899Z" fill="#914857"/>
<path fill-rule="evenodd" clip-rule="evenodd" d="M329.069 142.864L327.364 132.392L326.517 132.53L328.326 143.641L332.412 144.121L332.512 143.268L329.069 142.864Z" fill="#914857"/>
<path fill-rule="evenodd" clip-rule="evenodd" d="M314.319 141.85L312.654 131.621L313.501 131.483L315.35 142.836L311.02 142.328L311.12 141.475L314.319 141.85Z" fill="#914857"/>
<path d="M304.018 127.751L309.157 126.915L321.538 202.971L316.399 203.807L304.018 127.751Z" fill="url(#paint5_linear_207_42097)"/>
<path d="M266.758 210.834L235.396 211.719L239.077 234.33L270.439 233.445L266.758 210.834Z" fill="url(#paint6_linear_207_42097)"/>
<path d="M347.536 194.167L318.936 202.339L322.617 224.951L351.217 216.778L347.536 194.167Z" fill="url(#paint7_linear_207_42097)"/>
<path d="M318.936 202.339L266.758 210.834L270.439 233.445L322.617 224.951L318.936 202.339Z" fill="url(#paint8_linear_207_42097)"/>
<path d="M176.238 229.053C163.211 229.68 147.318 236.34 140.088 238.162C139.183 240.238 136.299 244.116 135.562 248.545C134.825 252.973 119.855 257.283 136.405 260.305C152.955 263.327 189.016 263.653 218.311 263.653C247.607 263.653 258.245 263.099 282.884 260.305C307.524 257.512 325.284 254.068 341.51 249.687C357.736 245.306 358.272 242.394 364.014 238.399C369.757 234.404 356.171 233.996 370.222 229.713C384.273 225.43 420.708 219.949 434.268 216.984C447.828 214.019 455.867 215.074 456.512 213.363C457.158 211.651 457.143 212.032 455.984 206.899C454.824 201.766 461.559 182.806 432.226 189.223C417.091 188.135 378.992 198.114 361.822 202.987C344.652 207.859 356.257 209.214 346.375 213.587C336.493 217.959 326.429 221.424 312.41 224.847C298.391 228.27 287.6 229.781 276.279 230.703C264.958 231.625 264.326 228.617 255.807 229.456C247.288 230.295 243.803 233.785 233.685 234.899C223.568 236.014 216.71 236.199 205.22 235.03C193.731 233.861 189.264 228.427 176.238 229.053Z" fill="url(#paint9_linear_207_42097)"/>
</g>
<path d="M158.094 273.313C164.536 272.264 168.885 268.25 170.017 262.106L164.078 260.897C163.52 264.686 161.062 266.957 157.163 267.591C151.78 268.468 147.98 265.432 146.959 259.16C145.938 252.887 148.501 248.859 153.926 247.976C157.74 247.355 160.827 248.68 162.629 251.997L167.786 248.939C164.707 243.654 159.401 241.255 153.001 242.297C144.186 243.732 139.451 250.724 140.99 260.175C142.522 269.583 149.279 274.748 158.094 273.313Z" fill="white"/>
<path d="M175.315 269.77L181.291 268.797L179.255 256.295L191.461 254.308L193.496 266.81L199.472 265.837L194.663 236.298L188.687 237.271L190.571 248.841L178.365 250.828L176.482 239.258L170.506 240.23L175.315 269.77Z" fill="white"/>
<path d="M206.19 264.744L212.166 263.771L207.357 234.232L201.381 235.204L206.19 264.744Z" fill="white"/>
<path d="M231.972 230.224L235.09 249.381L220.19 232.142L214.087 233.136L218.896 262.675L224.872 261.703L221.732 242.419L236.611 259.791L242.756 258.791L237.947 229.252L231.972 230.224Z" fill="white"/>
<path d="M267.916 254.695L274.4 253.64L257.598 226.053L253.148 226.777L245.878 258.283L252.404 257.22L253.577 251.33L264.935 249.481L267.916 254.695ZM254.757 245.483L256.836 235.269L262.004 244.303L254.757 245.483Z" fill="white"/>
<path d="M280.406 252.662L286.424 251.682L282.505 227.61L291.447 226.154L290.557 220.687L266.654 224.578L267.544 230.046L276.487 228.59L280.406 252.662Z" fill="white"/>
<path d="M310.309 248.534C318.785 247.154 323.627 240.014 322.116 230.733C320.598 221.409 313.827 216.16 305.266 217.553C296.79 218.933 291.991 226.066 293.509 235.39C295.013 244.629 301.833 249.913 310.309 248.534ZM309.378 242.812C304.335 243.633 300.471 240.477 299.484 234.417C298.491 228.314 301.154 224.096 306.197 223.275C311.283 222.447 315.111 225.652 316.098 231.712C317.07 237.688 314.464 241.984 309.378 242.812Z" fill="white"/>
<path d="M333.837 243.964L339.601 243.026L342.716 223.681L351.764 241.046L357.57 240.1L361.746 209.098L355.474 210.119L352.852 231.428L343.72 213.816L338.635 214.644L335.603 234.236L326.316 214.866L320.086 215.88L333.837 243.964Z" fill="white"/>
<path d="M383.077 205.626L386.196 224.782L371.296 207.544L365.193 208.537L370.002 238.077L375.977 237.104L372.838 217.821L387.717 235.193L393.862 234.192L389.053 204.653L383.077 205.626Z" fill="white"/>
<defs>
<linearGradient id="paint0_linear_207_42097" x1="111.097" y1="218.449" x2="119.652" y2="271.001" gradientUnits="userSpaceOnUse">
<stop stop-color="#DBCFCD"/>
<stop offset="1" stop-color="#957A76"/>
</linearGradient>
<linearGradient id="paint1_linear_207_42097" x1="276.005" y1="111.212" x2="281.192" y2="143.073" gradientUnits="userSpaceOnUse">
<stop stop-color="#6A3F48"/>
<stop offset="1" stop-color="#914857"/>
</linearGradient>
<linearGradient id="paint2_linear_207_42097" x1="230.843" y1="148.104" x2="241.551" y2="213.882" gradientUnits="userSpaceOnUse">
<stop stop-color="#72414B"/>
<stop offset="1" stop-color="#914857"/>
</linearGradient>
<linearGradient id="paint3_linear_207_42097" x1="331.565" y1="131.707" x2="342.273" y2="197.485" gradientUnits="userSpaceOnUse">
<stop stop-color="#72414B"/>
<stop offset="1" stop-color="#914857"/>
</linearGradient>
<linearGradient id="paint4_linear_207_42097" x1="253.143" y1="136.034" x2="265.524" y2="212.09" gradientUnits="userSpaceOnUse">
<stop stop-color="#72414B"/>
<stop offset="1" stop-color="#914857"/>
</linearGradient>
<linearGradient id="paint5_linear_207_42097" x1="306.588" y1="127.333" x2="318.969" y2="203.389" gradientUnits="userSpaceOnUse">
<stop stop-color="#72414B"/>
<stop offset="1" stop-color="#914857"/>
</linearGradient>
<linearGradient id="paint6_linear_207_42097" x1="291.41" y1="202.6" x2="295.76" y2="229.323" gradientUnits="userSpaceOnUse">
<stop stop-color="#DCD6D7"/>
<stop offset="1" stop-color="#AD8D93"/>
</linearGradient>
<linearGradient id="paint7_linear_207_42097" x1="291.41" y1="202.6" x2="295.76" y2="229.323" gradientUnits="userSpaceOnUse">
<stop stop-color="#DCD6D7"/>
<stop offset="1" stop-color="#AD8D93"/>
</linearGradient>
<linearGradient id="paint8_linear_207_42097" x1="291.41" y1="202.6" x2="295.76" y2="229.323" gradientUnits="userSpaceOnUse">
<stop stop-color="#DCD6D7"/>
<stop offset="1" stop-color="#AD8D93"/>
</linearGradient>
<linearGradient id="paint9_linear_207_42097" x1="282.147" y1="211.485" x2="290.012" y2="259.799" gradientUnits="userSpaceOnUse">
<stop stop-color="#D8CCCA"/>
<stop offset="1" stop-color="#AC938F"/>
</linearGradient>
</defs>
</svg>
