<svg width="298" height="405" viewBox="0 0 298 405" fill="none" xmlns="http://www.w3.org/2000/svg">
<path fill-rule="evenodd" clip-rule="evenodd" d="M272.249 157.65C286.402 98.8887 250.24 39.7798 191.479 25.6266C132.717 11.4734 73.6086 47.6354 59.4554 106.397L2.05179 344.725C0.919536 349.426 3.8125 354.155 8.51341 355.287L204.283 402.44C208.984 403.573 213.713 400.68 214.845 395.979L272.249 157.65Z" fill="#9AD4DF"/>
<path fill-rule="evenodd" clip-rule="evenodd" d="M256.618 158.988L203.451 379.726C202.319 384.427 197.59 387.32 192.889 386.187L26.0592 346.005C21.3583 344.873 18.4653 340.144 19.5976 335.443L72.7642 114.705L72.9007 114.139C72.9008 114.138 72.9013 114.138 72.9017 114.138V114.138C72.9021 114.138 72.9026 114.138 72.9027 114.137C86.0002 61.0352 137.404 27.9115 187.994 40.0965C238.584 52.2815 269.27 105.177 256.753 158.419C256.753 158.42 256.753 158.42 256.754 158.42V158.42C256.754 158.42 256.754 158.421 256.754 158.421L256.618 158.988Z" fill="#9AD4DF"/>
<path fill-rule="evenodd" clip-rule="evenodd" d="M200.898 379.111L254.18 157.894C254.185 157.869 254.19 157.844 254.196 157.818C266.411 105.858 236.443 54.4674 187.379 42.65C138.316 30.8326 88.2349 62.9429 75.4528 114.766C75.4466 114.791 75.44 114.816 75.4331 114.841L22.1511 336.058C21.3585 339.349 23.3836 342.659 26.6742 343.451L193.504 383.634C196.795 384.426 200.105 382.401 200.898 379.111ZM75.4543 114.754C75.4533 114.758 75.4523 114.762 75.4513 114.766L75.4543 114.754ZM254.201 157.806L254.198 157.819C254.199 157.815 254.2 157.81 254.201 157.806ZM203.451 379.726L256.754 158.421C256.754 158.421 256.754 158.42 256.754 158.42C256.753 158.42 256.754 158.421 256.754 158.42C256.754 158.42 256.753 158.42 256.753 158.419C269.27 105.177 238.584 52.2814 187.994 40.0965C137.404 27.9115 86.0002 61.0352 72.9027 114.137C72.9026 114.138 72.9021 114.138 72.9017 114.138C72.9013 114.138 72.9008 114.138 72.9007 114.139L19.5976 335.443C18.4653 340.144 21.3583 344.873 26.0592 346.005L192.889 386.187C197.59 387.32 202.319 384.427 203.451 379.726Z" fill="#FFFBF2"/>
<mask id="mask0_208_75462" style="mask-type:alpha" maskUnits="userSpaceOnUse" x="1" y="22" width="275" height="381">
<path fill-rule="evenodd" clip-rule="evenodd" d="M272.249 157.651C286.402 98.8899 250.24 39.781 191.479 25.6278C132.717 11.4746 73.6086 47.6367 59.4554 106.398L2.05179 344.727C0.919536 349.428 3.8125 354.156 8.51341 355.289L204.283 402.442C208.984 403.574 213.713 400.681 214.845 395.98L272.249 157.651Z" fill="#D9D9D9"/>
</mask>
<g mask="url(#mask0_208_75462)">
<path d="M213.072 328.31C222.701 329.956 231.805 332.822 241.315 335.113C244.103 338.586 246.609 346.057 245.729 349.711C245.162 352.063 245.301 353.994 242.772 355.128C238.996 356.822 235.134 356.273 230.806 356.19C228.688 356.15 227.241 355.777 225.28 354.746C221.684 352.856 218.32 351.537 214.248 350.556C211.241 349.832 210.92 351.069 209.918 352.834C209.206 354.089 205.304 355.227 203.602 354.519C200.669 353.299 197.736 351.741 194.909 350.524C188.658 347.833 181.438 346.74 174.769 345.134C160.777 341.764 98.3049 328.611 85.858 321.676C81.2476 319.107 81.2663 314.825 86.9776 314.284C129.591 325.854 135.537 318.339 144.688 320.327C151.259 321.755 171.718 329.587 178.245 331.159C182.754 332.245 187.32 333.609 191.917 334.14C197.151 334.744 202.405 334.948 207.412 334.126C208.487 333.95 206.257 332.03 205.941 331.7C200.315 325.833 207.55 327.367 213.072 328.31Z" fill="#FFFBF2" fill-opacity="0.5"/>
<path d="M61.525 170.619C70.0927 173.167 78.6809 174.751 87.3903 176.849C90.9854 175.701 95.8359 171.934 96.4685 169.307C96.8756 167.617 97.7088 166.454 96.0415 164.799C93.5519 162.328 90.1566 161.237 86.5505 159.678C84.7863 158.915 83.4519 158.612 81.4478 158.53C77.7737 158.381 74.5038 157.959 70.7747 157.061C68.0207 156.398 68.216 155.5 68.0451 154.017C67.9235 152.963 65.1232 150.795 63.4539 150.607C60.5768 150.283 57.5737 150.172 54.7858 149.886C48.6196 149.252 42.2478 147.253 36.1407 145.782C23.3272 142.696 -33.1794 127.724 -46.0433 127.456C-50.8081 127.357 -52.3857 130.057 -47.8688 132.523C-8.35769 141.101 -6.24177 148.041 2.05858 150.195C8.01799 151.742 27.8354 154.428 33.8124 155.868C37.9418 156.862 42.2212 157.703 46.2173 159.08C50.7657 160.647 55.1828 162.474 59.0137 164.854C59.8361 165.365 57.2793 165.743 56.8953 165.833C50.064 167.431 56.6121 169.158 61.525 170.619Z" fill="#FFFBF2" fill-opacity="0.5"/>
<path d="M25.8447 234.978C18.2198 235.209 11.8994 235.576 4.40226 234.13C4.12879 235.266 3.4535 237.117 4.04785 238.256C4.57832 239.272 6.0791 238.852 7.18177 239.117C13.1931 240.565 19.8765 241.278 26.0188 241.975C33.0774 242.777 40.2898 245.093 46.8425 247.684C49.4099 248.699 43.3333 250.289 42.5513 250.541C41.1292 251 39.4138 252.27 38.5805 253.396C37.9575 254.237 44.202 258.626 44.8539 259.197C50.0595 263.755 57.9426 267.173 64.8195 268.83C72.5105 270.682 79.898 273.421 87.5873 275.273C92.0047 276.337 96.5972 276.698 101.096 276.608C106.466 276.501 111.355 277.509 116.664 277.959C119.373 278.189 121.958 278.275 124.627 278.918C126.706 279.418 129.232 280.499 131.349 280.324C133.071 280.181 135.602 278.683 132.889 278.03C130.372 277.423 127.935 276.272 125.881 274.796C123.901 273.372 121.374 272.149 119.044 271.337C112.4 269.022 105.627 266.896 99.1577 264.149C92.8254 261.459 80.5896 260.728 73.9229 259.057C67.9264 257.553 60.935 255.733 55.3349 253.114C53.9694 252.475 63.3035 250.831 63.3158 250.825C67.7832 248.647 70.8566 247.437 65.7158 243.515C61.9669 240.655 57.0039 240.084 52.4527 238.988C47.4367 237.78 42.4361 236.885 37.4038 235.843C33.5892 235.053 29.6963 234.861 25.8447 234.978Z" fill="#FFFBF2" fill-opacity="0.5"/>
<path d="M137.58 308.863C131.846 306.682 127.142 304.817 121.042 303.208C121.147 302.769 121.145 301.989 121.912 301.788C122.597 301.609 123.621 302.159 124.533 302.378C129.504 303.576 134.783 305.194 139.646 306.668C145.234 308.362 151.359 309.613 157.057 310.594C159.29 310.978 155.109 308.789 154.584 308.492C153.63 307.952 152.676 307.07 152.354 306.479C152.112 306.038 158.074 306.356 158.727 306.354C163.945 306.332 170.883 307.414 176.57 308.784C182.93 310.316 189.304 311.48 195.662 313.011C199.315 313.891 202.907 315.045 206.303 316.317C210.357 317.835 214.352 318.864 218.514 320.186C220.637 320.861 222.626 321.548 224.833 322.08C226.552 322.494 228.772 322.846 230.333 323.487C231.603 324.009 233.113 325.188 230.87 324.648C228.789 324.147 226.617 323.842 224.648 323.748C222.748 323.657 220.489 323.351 218.493 322.967C212.801 321.872 207.064 320.682 201.386 319.775C195.828 318.887 186.322 315.739 180.791 314.433C175.816 313.257 169.997 311.909 165.015 311.2C163.8 311.028 170.443 314.134 170.451 314.139C173.246 316.072 175.248 317.31 170.255 317.146C166.614 317.026 162.683 315.838 158.919 314.931C154.772 313.932 150.722 312.837 146.608 311.78C143.489 310.979 140.476 309.965 137.58 308.863Z" fill="#FFFBF2" fill-opacity="0.5"/>
<path d="M260.467 211.331C262.033 211.832 264.822 212.091 265.865 213.59C265.406 215.495 263.961 218.408 262.285 219.101C261.708 219.34 259.042 217.985 258.466 217.846C255.913 217.231 253.274 216.757 250.788 215.901C247.598 214.802 244.491 213.44 241.3 212.321C240.512 212.045 237.705 210.466 236.825 211.004C234.577 212.38 238.144 215.189 238.687 216.005C242.939 222.39 230.213 220.098 227.689 219.49C222.01 218.122 216.469 216.356 210.757 214.98C206.415 213.935 202.111 212.825 197.834 211.532C195.4 210.796 192.987 209.978 190.544 209.273C189.706 209.031 188.717 208.906 188.088 208.226C188 208.13 195.195 208.293 196.482 207.996C198.623 207.501 201.086 205.817 203.36 206.298C209.02 207.496 214.796 209.797 220.548 210.342C221.564 210.438 225.831 211.123 226.271 209.66C226.528 208.804 224.035 206.825 223.449 206.057C221.19 203.1 229.489 203.972 230.053 204.102C236.087 205.487 242.213 206.168 248.231 207.618C252.393 208.62 256.395 210.029 260.467 211.331Z" fill="#FFFBF2" fill-opacity="0.5"/>
<path d="M119.926 176.393L187.391 192.642L171.141 260.107L103.676 243.858L119.926 176.393Z" fill="#70798C"/>
<path d="M122.657 180.858L183.376 195.483L168.751 256.201L108.033 241.577L122.657 180.858Z" fill="#F0D798"/>
<path d="M125.049 184.763L179.021 197.763L166.021 251.735L112.049 238.735L125.049 184.763Z" fill="#70798C"/>
<path d="M170.271 224.208C166.981 237.87 153.238 246.277 139.576 242.987C125.914 239.696 117.506 225.953 120.797 212.291C124.087 198.629 137.83 190.222 151.492 193.512C165.154 196.803 173.562 210.546 170.271 224.208Z" fill="#FFFBF2"/>
<path fill-rule="evenodd" clip-rule="evenodd" d="M139.792 242.087C152.958 245.258 166.201 237.156 169.372 223.991C172.543 210.826 164.441 197.583 151.275 194.412C138.11 191.241 124.867 199.343 121.696 212.508C118.525 225.673 126.627 238.916 139.792 242.087ZM139.576 242.987C153.238 246.277 166.981 237.87 170.271 224.208C173.562 210.546 165.154 196.803 151.492 193.512C137.83 190.222 124.087 198.629 120.797 212.291C117.506 225.953 125.914 239.696 139.576 242.987Z" fill="#F0D798"/>
<path d="M168.022 223.665C165.031 236.085 152.537 243.728 140.117 240.737C127.697 237.745 120.054 225.252 123.045 212.832C126.037 200.412 138.53 192.768 150.95 195.76C163.37 198.751 171.014 211.245 168.022 223.665Z" fill="#FFFBF2"/>
<path fill-rule="evenodd" clip-rule="evenodd" d="M140.334 239.837C152.257 242.709 164.251 235.371 167.123 223.448C169.994 211.525 162.657 199.531 150.734 196.659C138.81 193.788 126.817 201.125 123.945 213.048C121.073 224.972 128.411 236.965 140.334 239.837ZM140.117 240.737C152.537 243.728 165.031 236.085 168.022 223.665C171.014 211.245 163.37 198.751 150.95 195.76C138.53 192.768 126.037 200.412 123.045 212.832C120.054 225.252 127.697 237.745 140.117 240.737Z" fill="#F0D798"/>
<path d="M163.524 222.583C161.131 232.519 151.136 238.633 141.2 236.24C131.264 233.847 125.15 223.852 127.543 213.916C129.936 203.98 139.931 197.866 149.867 200.259C159.803 202.652 165.917 212.647 163.524 222.583Z" fill="#FFFBF2"/>
<path fill-rule="evenodd" clip-rule="evenodd" d="M141.417 235.341C150.856 237.614 160.351 231.805 162.625 222.366C164.898 212.927 159.089 203.432 149.65 201.158C140.211 198.885 130.716 204.694 128.442 214.133C126.169 223.572 131.978 233.067 141.417 235.341ZM141.2 236.24C151.136 238.633 161.131 232.519 163.524 222.583C165.917 212.647 159.803 202.652 149.867 200.259C139.931 197.866 129.936 203.98 127.543 213.916C125.15 223.852 131.264 233.847 141.2 236.24Z" fill="#F0D798"/>
<path d="M110.213 260.183L157.888 271.666L123.764 413.343L76.0887 401.86L110.213 260.183Z" fill="#70798C"/>
<path d="M114.102 238.125C117.395 237.891 118.381 237.08 118.557 234.758C118.566 234.637 118.485 234.528 118.367 234.502C116.093 233.997 115.031 234.707 113.854 237.791C113.79 237.96 113.922 238.138 114.102 238.125Z" fill="#9AD4DF"/>
<path d="M121.407 238.68C122.555 235.586 122.225 234.352 120.182 233.232C120.076 233.174 119.943 233.203 119.871 233.299C118.471 235.161 118.678 236.422 121 238.768C121.127 238.896 121.344 238.849 121.407 238.68Z" fill="#9AD4DF"/>
<path d="M115.147 231.049C115.941 234.252 116.91 235.085 119.228 234.86C119.348 234.848 119.442 234.75 119.448 234.629C119.555 232.302 118.674 231.378 115.434 230.747C115.256 230.713 115.104 230.874 115.147 231.049Z" fill="#9AD4DF"/>
<path fill-rule="evenodd" clip-rule="evenodd" d="M117.905 235.236C117.905 235.236 117.905 235.236 117.905 235.236C117.329 235.77 116.428 235.736 115.894 235.16C115.359 234.583 115.393 233.683 115.969 233.148C116.311 232.832 116.766 232.714 117.191 232.791C116.657 232.215 116.691 231.314 117.267 230.78C117.844 230.245 118.744 230.279 119.279 230.855C119.554 231.152 119.679 231.534 119.656 231.909C119.663 231.91 119.669 231.911 119.676 231.912C119.747 231.681 119.878 231.464 120.068 231.288C120.645 230.753 121.546 230.787 122.08 231.364C122.615 231.94 122.581 232.841 122.004 233.375C121.814 233.552 121.589 233.666 121.353 233.72C121.353 233.727 121.354 233.733 121.354 233.74C121.729 233.746 122.101 233.899 122.376 234.195C122.911 234.772 122.877 235.672 122.301 236.207C121.724 236.742 120.824 236.708 120.289 236.131C120.334 236.561 120.183 237.006 119.841 237.323C119.265 237.858 118.364 237.824 117.829 237.247C117.295 236.671 117.329 235.77 117.905 235.236Z" fill="#FFFBF2"/>
<path d="M120.205 234.775C119.706 235.237 118.926 235.208 118.464 234.709C118.001 234.21 118.031 233.431 118.529 232.968C119.028 232.506 119.808 232.535 120.27 233.034C120.733 233.533 120.704 234.312 120.205 234.775Z" fill="#F0D798"/>
<path d="M164.474 250.257C161.649 248.55 161.14 247.379 162.041 245.231C162.088 245.119 162.21 245.059 162.327 245.089C164.581 245.676 165.203 246.791 164.847 250.072C164.827 250.252 164.628 250.35 164.474 250.257Z" fill="#9AD4DF"/>
<path d="M157.718 247.427C158.105 244.149 158.961 243.201 161.289 243.134C161.41 243.13 161.515 243.216 161.536 243.336C161.934 245.63 161.176 246.658 158.041 247.69C157.869 247.746 157.697 247.606 157.718 247.427Z" fill="#9AD4DF"/>
<path d="M166.767 243.481C164.601 245.972 163.359 246.272 161.398 245.016C161.296 244.951 161.258 244.82 161.308 244.71C162.272 242.59 163.477 242.168 166.649 243.082C166.822 243.132 166.885 243.345 166.767 243.481Z" fill="#9AD4DF"/>
<path fill-rule="evenodd" clip-rule="evenodd" d="M162.405 245.951C162.405 245.951 162.405 245.951 162.405 245.951C162.675 246.689 163.492 247.069 164.23 246.799C164.969 246.529 165.349 245.712 165.079 244.974C164.919 244.536 164.567 244.225 164.153 244.099C164.892 243.83 165.271 243.012 165.002 242.274C164.732 241.536 163.914 241.156 163.176 241.425C162.796 241.564 162.511 241.848 162.361 242.192C162.354 242.189 162.348 242.187 162.341 242.185C162.383 241.947 162.365 241.695 162.276 241.451C162.006 240.713 161.189 240.333 160.451 240.603C159.712 240.873 159.332 241.69 159.602 242.428C159.691 242.672 159.84 242.876 160.025 243.032C160.022 243.037 160.018 243.043 160.015 243.049C159.678 242.883 159.278 242.85 158.898 242.989C158.159 243.259 157.779 244.076 158.049 244.814C158.319 245.553 159.136 245.933 159.875 245.663C159.639 246.026 159.571 246.491 159.731 246.928C160.001 247.666 160.818 248.046 161.556 247.776C162.295 247.507 162.675 246.689 162.405 245.951Z" fill="#FFFBF2"/>
<path d="M160.567 244.492C160.8 245.131 161.508 245.46 162.147 245.226C162.786 244.993 163.114 244.286 162.881 243.647C162.647 243.008 161.94 242.679 161.301 242.912C160.662 243.146 160.333 243.853 160.567 244.492Z" fill="#F0D798"/>
<path d="M126.526 186.543C129.351 188.25 129.86 189.422 128.959 191.569C128.912 191.681 128.79 191.741 128.673 191.711C126.419 191.125 125.797 190.009 126.153 186.728C126.173 186.548 126.372 186.45 126.526 186.543Z" fill="#9AD4DF"/>
<path d="M133.282 189.374C132.895 192.652 132.039 193.599 129.711 193.667C129.59 193.67 129.485 193.584 129.464 193.465C129.066 191.17 129.824 190.142 132.959 189.11C133.131 189.054 133.303 189.194 133.282 189.374Z" fill="#9AD4DF"/>
<path d="M124.233 193.321C126.399 190.83 127.641 190.529 129.602 191.785C129.704 191.85 129.742 191.981 129.692 192.091C128.728 194.211 127.523 194.633 124.351 193.72C124.178 193.67 124.115 193.457 124.233 193.321Z" fill="#9AD4DF"/>
<path fill-rule="evenodd" clip-rule="evenodd" d="M128.596 190.846C128.596 190.846 128.596 190.846 128.596 190.846C128.326 190.108 127.509 189.728 126.771 189.998C126.032 190.268 125.652 191.085 125.922 191.823C126.082 192.261 126.434 192.572 126.848 192.698C126.109 192.968 125.73 193.785 125.999 194.523C126.269 195.262 127.087 195.641 127.825 195.372C128.205 195.233 128.49 194.949 128.64 194.606C128.647 194.608 128.653 194.61 128.659 194.612C128.618 194.85 128.636 195.102 128.725 195.346C128.995 196.084 129.812 196.464 130.55 196.194C131.289 195.925 131.669 195.107 131.399 194.369C131.31 194.125 131.161 193.921 130.976 193.766C130.979 193.76 130.983 193.754 130.986 193.748C131.323 193.914 131.723 193.947 132.103 193.808C132.842 193.538 133.222 192.721 132.952 191.983C132.682 191.244 131.865 190.864 131.126 191.134C131.362 190.772 131.43 190.307 131.27 189.869C131 189.131 130.183 188.751 129.445 189.021C128.706 189.291 128.326 190.108 128.596 190.846Z" fill="#FFFBF2"/>
<path d="M130.434 192.303C130.201 191.664 129.493 191.335 128.854 191.569C128.215 191.802 127.887 192.51 128.12 193.149C128.354 193.788 129.061 194.116 129.7 193.883C130.339 193.649 130.668 192.942 130.434 192.303Z" fill="#F0D798"/>
<path d="M176.897 198.677C173.604 198.91 172.618 199.721 172.442 202.044C172.433 202.164 172.514 202.274 172.632 202.3C174.906 202.804 175.968 202.095 177.145 199.011C177.209 198.842 177.077 198.664 176.897 198.677Z" fill="#9AD4DF"/>
<path d="M169.593 198.121C168.445 201.215 168.775 202.449 170.818 203.569C170.924 203.627 171.057 203.598 171.129 203.501C172.529 201.639 172.322 200.379 170 198.033C169.873 197.905 169.656 197.951 169.593 198.121Z" fill="#9AD4DF"/>
<path d="M175.853 205.754C175.059 202.55 174.09 201.717 171.772 201.943C171.652 201.954 171.558 202.053 171.552 202.174C171.445 204.501 172.326 205.425 175.566 206.056C175.744 206.09 175.896 205.929 175.853 205.754Z" fill="#9AD4DF"/>
<path fill-rule="evenodd" clip-rule="evenodd" d="M173.096 201.567C173.096 201.567 173.096 201.567 173.096 201.567C173.672 201.032 174.573 201.066 175.107 201.643C175.642 202.219 175.608 203.12 175.032 203.654C174.69 203.971 174.235 204.088 173.81 204.011C174.344 204.588 174.31 205.488 173.734 206.023C173.157 206.557 172.257 206.523 171.722 205.947C171.447 205.65 171.322 205.268 171.345 204.894C171.338 204.893 171.332 204.892 171.325 204.891C171.254 205.122 171.123 205.338 170.933 205.514C170.356 206.049 169.455 206.015 168.921 205.439C168.386 204.862 168.42 203.961 168.997 203.427C169.187 203.251 169.412 203.136 169.648 203.083C169.648 203.076 169.647 203.069 169.647 203.062C169.272 203.057 168.9 202.904 168.625 202.607C168.09 202.031 168.124 201.13 168.7 200.595C169.277 200.061 170.177 200.095 170.712 200.671C170.667 200.241 170.818 199.796 171.16 199.479C171.736 198.945 172.637 198.979 173.172 199.555C173.706 200.131 173.672 201.032 173.096 201.567Z" fill="#FFFBF2"/>
<path d="M170.795 202.027C171.294 201.565 172.074 201.594 172.536 202.093C172.999 202.592 172.969 203.371 172.471 203.834C171.972 204.296 171.192 204.267 170.73 203.768C170.267 203.269 170.296 202.49 170.795 202.027Z" fill="#F0D798"/>
<path d="M157.58 148.82C147.762 165.907 139.108 171.189 120.088 175.719L187.553 191.969C172.682 179.276 167.382 170.633 166.42 150.95L157.58 148.82Z" fill="#70798C"/>
<path d="M154.587 149.05L158.461 142.845L168.356 145.228L168.98 152.516L154.587 149.05Z" fill="#484E5A"/>
<path d="M118.298 176.239C116.119 174.059 115.419 172.628 115.379 169.588L194.538 188.654C193.118 191.343 191.843 192.298 188.911 193.247L118.298 176.239Z" fill="#484E5A"/>
<path d="M176.086 89.0983C176.397 88.4583 177.148 88.6393 177.134 89.3508L176.839 103.991C176.829 104.457 176.463 104.832 176.102 104.745L169.995 103.274C169.635 103.188 169.479 102.686 169.683 102.267L176.086 89.0983Z" fill="#70798C"/>
<path d="M167.885 103.72C168.005 103.223 168.504 102.917 169.001 103.037L177.097 104.987C177.594 105.106 177.899 105.606 177.78 106.103L169.547 140.285C169.427 140.782 168.927 141.088 168.43 140.968L160.335 139.018C159.838 138.899 159.532 138.399 159.652 137.902L167.885 103.72Z" fill="#70798C"/>
<path d="M167.202 102.601C167.322 102.104 167.822 101.799 168.318 101.918L178.213 104.301C178.71 104.421 179.016 104.921 178.896 105.418V105.418C178.777 105.914 178.277 106.22 177.78 106.101L167.885 103.717C167.388 103.598 167.083 103.098 167.202 102.601V102.601Z" fill="#484E5A"/>
<path d="M159.294 135.434C159.414 134.937 159.913 134.631 160.41 134.751L170.305 137.134C170.802 137.254 171.108 137.754 170.988 138.251V138.251C170.868 138.747 170.369 139.053 169.872 138.933L159.977 136.55C159.48 136.43 159.174 135.931 159.294 135.434V135.434Z" fill="#484E5A"/>
<path d="M161.235 139.232L167.532 140.749L166.557 144.797L160.26 143.28L161.235 139.232Z" fill="#70798C"/>
<path d="M198.806 142.531C199.059 142.011 199.67 142.158 199.658 142.737L199.418 154.639C199.411 155.018 199.113 155.323 198.82 155.253L193.855 154.057C193.562 153.986 193.435 153.579 193.601 153.238L198.806 142.531Z" fill="#70798C"/>
<path d="M192.097 154.587C192.216 154.09 192.716 153.784 193.213 153.904L199.459 155.408C199.955 155.528 200.261 156.027 200.141 156.524L193.529 183.978C193.409 184.475 192.909 184.781 192.413 184.661L186.167 183.157C185.67 183.037 185.365 182.537 185.484 182.041L192.097 154.587Z" fill="#70798C"/>
<path d="M191.583 153.509C191.68 153.105 192.086 152.856 192.49 152.954L200.535 154.891C200.939 154.989 201.187 155.395 201.09 155.799V155.799C200.993 156.203 200.586 156.451 200.182 156.354L192.138 154.416C191.734 154.319 191.485 153.913 191.583 153.509V153.509Z" fill="#484E5A"/>
<path d="M185.154 180.202C185.251 179.798 185.658 179.55 186.061 179.647L194.106 181.584C194.51 181.682 194.759 182.088 194.661 182.492V182.492C194.564 182.896 194.158 183.144 193.754 183.047L185.709 181.11C185.305 181.012 185.057 180.606 185.154 180.202V180.202Z" fill="#484E5A"/>
<path d="M186.73 183.291L191.85 184.524L191.057 187.815L185.938 186.582L186.73 183.291Z" fill="#70798C"/>
<path d="M131.34 126.281C131.593 125.761 132.204 125.908 132.193 126.486L131.952 138.388C131.945 138.767 131.647 139.073 131.354 139.002L126.389 137.806C126.096 137.736 125.969 137.328 126.135 136.987L131.34 126.281Z" fill="#70798C"/>
<path d="M124.632 138.336C124.752 137.839 125.251 137.533 125.748 137.653L131.994 139.157C132.491 139.277 132.796 139.777 132.677 140.274L126.064 167.728C125.944 168.224 125.445 168.53 124.948 168.411L118.702 166.906C118.205 166.787 117.9 166.287 118.019 165.79L124.632 138.336Z" fill="#70798C"/>
<path d="M124.117 137.259C124.214 136.856 124.62 136.607 125.024 136.704L133.069 138.642C133.473 138.739 133.721 139.145 133.624 139.549V139.549C133.527 139.953 133.121 140.202 132.717 140.105L124.672 138.167C124.268 138.07 124.02 137.663 124.117 137.259V137.259Z" fill="#484E5A"/>
<path d="M117.688 163.953C117.785 163.549 118.192 163.3 118.596 163.397L126.64 165.335C127.044 165.432 127.293 165.839 127.195 166.242V166.242C127.098 166.646 126.692 166.895 126.288 166.798L118.243 164.86C117.839 164.763 117.591 164.356 117.688 163.953V163.953Z" fill="#484E5A"/>
<path d="M119.266 167.041L124.385 168.274L123.592 171.565L118.473 170.332L119.266 167.041Z" fill="#70798C"/>
<path d="M154.832 220.849C155.948 218.85 157.491 219.897 161.004 223.561C155.985 224.319 154.123 224.206 154.46 221.941L149.903 221.319L149.139 220.289L138.888 218.182L140.289 214.133L149.694 218.723L150.928 218.374L154.832 220.849Z" fill="#70798C"/>
<path d="M143.801 215.009L145.224 193.996L147.105 214.956L146.244 216.223L147.913 224.028L143.287 224.102L144.702 216.248L143.801 215.009Z" fill="#70798C"/>
<path d="M148.232 218.899C147.873 220.389 146.373 221.306 144.883 220.947C143.393 220.588 142.475 219.089 142.834 217.599C143.193 216.108 144.693 215.191 146.183 215.55C147.673 215.909 148.591 217.408 148.232 218.899Z" fill="#70798C"/>
<path d="M108.354 258.308C109.657 252.782 108.861 249.627 103.677 243.857L171.142 260.107C163.899 262.883 161.754 265.33 160.398 270.843L108.354 258.308Z" fill="#70798C"/>
<path d="M73.9047 401.335C72.5491 406.848 70.4039 409.294 63.1611 412.071L130.626 428.321C125.442 422.551 124.646 419.396 125.949 413.87L73.9047 401.335Z" fill="#70798C"/>
<path d="M107.174 258.977C107.354 258.232 108.103 257.773 108.848 257.953L160.122 270.302C160.867 270.482 161.326 271.232 161.146 271.977V271.977C160.967 272.722 160.217 273.181 159.472 273.001L108.198 260.651C107.453 260.472 106.995 259.722 107.174 258.977V258.977Z" fill="#484E5A"/>
<path d="M72.9416 401.102C73.1211 400.357 73.8707 399.899 74.6159 400.078L125.889 412.428C126.635 412.607 127.093 413.357 126.914 414.102V414.102C126.734 414.847 125.985 415.306 125.239 415.126L73.9659 402.777C73.2207 402.597 72.7621 401.848 72.9416 401.102V401.102Z" fill="#484E5A"/>
<path d="M114.573 283.883C119.292 276.391 122.951 273.449 132.107 271.459C132.512 271.372 132.941 271.475 133.261 271.737C140.507 277.678 142.425 281.963 143.216 290.782C143.23 290.931 143.218 291.084 143.183 291.23L120.228 386.534C120.193 386.679 120.134 386.821 120.054 386.947C115.334 394.439 111.676 397.381 102.519 399.371C102.115 399.459 101.686 399.355 101.366 399.093C94.1193 393.152 92.2014 388.867 91.4105 380.048C91.3971 379.899 91.4083 379.746 91.4433 379.601L114.398 284.296C114.433 284.151 114.493 284.01 114.573 283.883Z" fill="#262D37"/>
<path fill-rule="evenodd" clip-rule="evenodd" d="M132.968 272.093C132.757 271.92 132.473 271.852 132.206 271.91C127.66 272.898 124.525 274.112 121.948 275.981C119.37 277.85 117.313 280.401 114.965 284.128C114.912 284.212 114.872 284.307 114.849 284.403L91.8937 379.707C91.8705 379.803 91.863 379.906 91.8719 380.005C92.2653 384.392 92.9355 387.6 94.3802 390.438C95.8239 393.275 98.0618 395.784 101.66 398.733C101.871 398.906 102.155 398.975 102.422 398.917C106.968 397.929 110.102 396.714 112.679 394.846C115.258 392.976 117.315 390.426 119.663 386.699C119.716 386.615 119.756 386.52 119.779 386.424L142.734 291.119C142.757 291.023 142.765 290.921 142.756 290.822C142.363 286.434 141.692 283.227 140.248 280.388C138.804 277.551 136.566 275.043 132.968 272.093ZM132.01 271.006C132.553 270.888 133.125 271.026 133.555 271.378C137.203 274.369 139.548 276.973 141.072 279.969C142.596 282.962 143.28 286.307 143.678 290.739C143.695 290.938 143.681 291.141 143.634 291.336L120.679 386.64C120.632 386.835 120.552 387.023 120.446 387.192C118.074 390.957 115.942 393.623 113.223 395.595C110.501 397.568 107.228 398.819 102.618 399.821C102.075 399.939 101.503 399.801 101.073 399.449C97.4245 396.458 95.0802 393.854 93.5556 390.858C92.0321 387.864 91.3478 384.52 90.9503 380.088C90.9325 379.889 90.9473 379.685 90.9942 379.49L113.949 284.186C113.996 283.992 114.075 283.804 114.182 283.635C116.554 279.87 118.686 277.203 121.405 275.232C124.127 273.259 127.4 272.007 132.01 271.006Z" fill="#484E5A"/>
<path d="M113.607 289.555L141.493 296.271L139.218 305.716L111.332 299L113.607 289.555Z" fill="#483E32"/>
<path d="M109.587 343.784C109.827 342.791 110.826 342.179 111.82 342.418L119.016 344.152C120.009 344.391 120.621 345.391 120.382 346.384L116.915 360.777C116.676 361.77 115.676 362.382 114.683 362.142L107.486 360.409C106.493 360.17 105.881 359.17 106.121 358.177L109.587 343.784Z" fill="#6F614A"/>
<path d="M120.368 318.781L122.167 319.214L115.776 345.75L113.977 345.317L120.368 318.781Z" fill="#6F614A"/>
<path d="M129.099 316.126C128.201 319.852 124.453 322.145 120.727 321.247C117.001 320.35 114.708 316.602 115.606 312.876C116.503 309.15 120.251 306.857 123.977 307.754C127.703 308.652 129.996 312.4 129.099 316.126Z" fill="#484E5A"/>
<path fill-rule="evenodd" clip-rule="evenodd" d="M121.701 317.199C123.191 317.558 124.691 316.641 125.05 315.151C125.409 313.66 124.491 312.161 123.001 311.802C121.511 311.443 120.011 312.36 119.652 313.851C119.293 315.341 120.211 316.84 121.701 317.199ZM121.593 317.649C123.331 318.068 125.081 316.998 125.499 315.259C125.918 313.52 124.848 311.771 123.109 311.352C121.371 310.934 119.621 312.004 119.203 313.742C118.784 315.481 119.854 317.23 121.593 317.649Z" fill="#483E32"/>
<path d="M131.465 272.894C131.933 272.124 133.113 272.408 133.179 273.307L134.654 293.38C134.7 294.006 134.124 294.495 133.514 294.348L121.586 291.475C120.977 291.328 120.687 290.63 121.012 290.095L131.465 272.894Z" fill="#6F614A"/>
<path d="M130.494 276.928C130.962 276.16 132.14 276.444 132.207 277.34L132.913 286.773C132.959 287.398 132.383 287.888 131.773 287.741L126.145 286.386C125.535 286.239 125.245 285.54 125.572 285.004L130.494 276.928Z" fill="#483E32"/>
<path d="M115.014 309.402L131.205 313.302L131.097 313.751L114.905 309.852L115.014 309.402Z" fill="#483E32"/>
<path d="M118.979 300.84L121.228 301.381L119.062 310.377L116.813 309.835L118.979 300.84Z" fill="#483E32"/>
<path d="M129.324 303.332L131.573 303.874L129.406 312.869L127.158 312.327L129.324 303.332Z" fill="#483E32"/>
<path d="M114.032 299.648L115.831 300.081L96.2234 381.489L94.4244 381.056L114.032 299.648Z" fill="#41362A"/>
<path d="M134.722 304.631L136.521 305.064L116.913 386.472L115.114 386.039L134.722 304.631Z" fill="#41362A"/>
<path d="M126.114 288.996C125.785 290.362 124.411 291.203 123.045 290.874C121.679 290.545 120.838 289.171 121.167 287.805C121.496 286.438 122.87 285.598 124.236 285.927C125.603 286.256 126.443 287.63 126.114 288.996Z" fill="#483E32"/>
<path fill-rule="evenodd" clip-rule="evenodd" d="M123.153 290.424C124.271 290.694 125.395 290.006 125.665 288.888C125.934 287.77 125.246 286.646 124.128 286.377C123.01 286.107 121.886 286.795 121.617 287.913C121.347 289.031 122.035 290.155 123.153 290.424ZM123.045 290.874C124.411 291.203 125.785 290.362 126.114 288.996C126.443 287.63 125.603 286.256 124.236 285.927C122.87 285.598 121.496 286.438 121.167 287.805C120.838 289.171 121.679 290.545 123.045 290.874Z" fill="#6F614A"/>
<path d="M124.315 288.564C124.225 288.937 123.85 289.166 123.478 289.077C123.105 288.987 122.876 288.612 122.965 288.239C123.055 287.867 123.43 287.638 123.803 287.727C124.175 287.817 124.404 288.192 124.315 288.564Z" fill="#6F614A"/>
<path d="M129.426 289.08C129.366 289.328 129.116 289.481 128.868 289.421C128.619 289.361 128.467 289.111 128.526 288.863C128.586 288.614 128.836 288.462 129.085 288.521C129.333 288.581 129.486 288.831 129.426 289.08Z" fill="#483E32"/>
<path d="M130.542 288.398C130.482 288.646 130.232 288.799 129.984 288.739C129.736 288.68 129.583 288.43 129.643 288.181C129.702 287.933 129.952 287.78 130.201 287.84C130.449 287.9 130.602 288.15 130.542 288.398Z" fill="#483E32"/>
<path d="M132.19 275.56C131.965 275.438 131.882 275.157 132.004 274.933C132.126 274.708 132.407 274.625 132.632 274.748C132.856 274.87 132.939 275.151 132.817 275.375C132.695 275.599 132.414 275.682 132.19 275.56Z" fill="#483E32"/>
<path d="M132.561 276.816C132.336 276.694 132.253 276.413 132.375 276.189C132.497 275.964 132.778 275.881 133.003 276.003C133.227 276.125 133.31 276.406 133.188 276.631C133.066 276.855 132.785 276.938 132.561 276.816Z" fill="#483E32"/>
</g>
<path d="M93.7312 125.508L97 126.173L97.801 122.235L98.0584 122.287C99.963 122.675 101.018 124.471 100.453 127.25C99.7775 130.571 97.3764 132.36 93.387 131.549C89.5519 130.769 87.824 128.327 88.4732 125.135C88.9286 122.896 90.3709 121.34 92.6642 121.002L92.0322 117.389C88.2543 118.041 85.7729 120.753 85.0347 124.382C83.951 129.71 87.2694 134.084 92.726 135.194C98.234 136.314 102.807 133.465 103.875 128.214C104.336 125.949 103.992 123.95 102.699 122.534L104.584 122.489L105.102 119.941L95.2704 117.941L93.7312 125.508Z" fill="#FFFBF2"/>
<path d="M120.093 94.3677L122.781 91.3806L104.201 84.6589L102.356 86.7088L110.956 104.52L113.662 101.513L111.965 98.2547L116.674 93.0225L120.093 94.3677ZM110.288 95.0139L107.368 89.3463L113.293 91.6754L110.288 95.0139Z" fill="#FFFBF2"/>
<path d="M140.558 80.7132C144.04 79.3782 145.769 76.1837 144.509 72.8974C143.578 70.4694 141.897 69.6793 137.698 69.6577C134.796 69.6451 133.825 69.314 133.449 68.333C133.091 67.4011 133.662 66.3947 134.717 65.9904C135.771 65.5861 136.957 65.891 137.985 66.9595L140.169 64.0692C138.271 62.3492 135.994 61.9846 133.639 62.8872C130.378 64.1376 128.947 66.9364 130.019 69.7322C130.997 72.2828 132.804 73.1089 136.964 73.1738C139.71 73.2183 140.797 73.5608 141.173 74.5418C141.7 75.9153 140.927 77.0553 139.431 77.6288C137.592 78.3339 135.888 77.7776 134.921 75.8418L131.816 78.0164C133.554 81.0073 137.075 82.0483 140.558 80.7132Z" fill="#FFFBF2"/>
<path d="M165.177 75.3251L168.893 75.6445L170.171 60.7806L175.693 61.2552L175.983 57.8794L161.224 56.6107L160.933 59.9865L166.455 60.4612L165.177 75.3251Z" fill="#FFFBF2"/>
<path d="M196.147 84.6076C200.489 87.5642 205.643 86.4346 208.88 81.6801C212.133 76.9039 211.338 71.7237 206.953 68.7374C202.611 65.7808 197.478 66.9252 194.226 71.7014C191.003 76.4342 191.804 81.6509 196.147 84.6076ZM198.142 81.6767C195.559 79.9175 195.173 76.8904 197.287 73.7858C199.416 70.6596 202.374 69.9091 204.957 71.6683C207.563 73.4423 207.912 76.4763 205.798 79.5809C203.713 82.642 200.747 83.4507 198.142 81.6767Z" fill="#FFFBF2"/>
<path d="M218.858 105.736L220.05 109.103L232.033 108.871L222.567 116.208L223.769 119.6L242.884 118.737L241.586 115.072L228.475 115.816L238.081 108.401L237.028 105.43L224.905 105.739L235.553 98.0387L234.264 94.3993L218.858 105.736Z" fill="#FFFBF2"/>
<path d="M241.212 160.072L229.809 156.767L243.244 153.059L244.297 149.426L226.713 144.33L225.683 147.887L237.161 151.214L223.657 154.875L222.597 158.533L240.181 163.629L241.212 160.072Z" fill="#FFFBF2"/>
</svg>
