<svg width="320" height="348" viewBox="0 0 320 348" fill="none" xmlns="http://www.w3.org/2000/svg">
<path d="M184.866 27.6151C188.774 26.3443 193.062 27.2558 196.115 30.0058L298.942 122.634C301.993 125.382 303.346 129.548 302.492 133.564L273.706 269.005C272.853 273.021 269.922 276.277 266.018 277.547L134.407 320.349C130.5 321.62 126.211 320.708 123.159 317.958L20.3317 225.33C17.2812 222.582 15.9279 218.416 16.7814 214.4L45.5672 78.9588C46.4208 74.9427 49.3516 71.6868 53.2561 70.417L184.866 27.6151Z" fill="#C4EAEE"/>
<mask id="mask0_208_75581" style="mask-type:alpha" maskUnits="userSpaceOnUse" x="16" y="27" width="287" height="294">
<path d="M184.866 27.6151C188.774 26.3443 193.062 27.2558 196.115 30.0058L298.942 122.634C301.993 125.382 303.346 129.548 302.492 133.564L273.706 269.005C272.853 273.021 269.922 276.277 266.018 277.547L134.407 320.349C130.5 321.62 126.211 320.708 123.159 317.958L20.3317 225.33C17.2812 222.582 15.9279 218.416 16.7814 214.4L45.5672 78.9588C46.4208 74.9427 49.3516 71.6868 53.2561 70.417L184.866 27.6151Z" fill="#D0E9FB"/>
</mask>
<g mask="url(#mask0_208_75581)">
<path fill-rule="evenodd" clip-rule="evenodd" d="M281.23 129.934L190.726 48.4419C188.437 46.3807 185.222 45.6974 182.293 46.6495L66.4693 84.2899C63.5401 85.2418 61.3412 87.6841 60.7009 90.6968L35.3809 209.831C34.7406 212.843 35.7561 215.969 38.045 218.03L128.549 299.522C130.838 301.583 134.053 302.266 136.982 301.314L252.806 263.674C255.735 262.722 257.934 260.28 258.574 257.267L283.894 138.133C284.534 135.12 283.519 131.995 281.23 129.934ZM192.649 46.3062C189.597 43.558 185.31 42.647 181.404 43.9164L65.5811 81.5568C61.6755 82.8261 58.7436 86.0825 57.8899 90.0994L32.5699 209.233C31.7162 213.25 33.0702 217.418 36.122 220.165L126.626 301.657C129.678 304.406 133.964 305.317 137.87 304.047L253.694 266.407C257.599 265.138 260.531 261.881 261.385 257.864L286.705 138.73C287.559 134.713 286.205 130.546 283.153 127.798L192.649 46.3062Z" fill="#7BA3FD"/>
<path d="M13.4902 229.885L277.724 286.044L263.863 351.259L-0.370182 295.101L13.4902 229.885Z" fill="#7BA3FD"/>
<path d="M258.171 196.959C251.605 227.853 221.238 247.575 190.344 241.009C159.449 234.443 139.728 204.075 146.294 173.181C152.86 142.287 183.227 122.565 214.121 129.131C245.016 135.697 264.737 166.065 258.171 196.959Z" fill="#DCE3E3"/>
<mask id="mask1_208_75581" style="mask-type:alpha" maskUnits="userSpaceOnUse" x="141" y="123" width="123" height="124">
<path d="M262.088 197.791C255.062 230.848 222.569 251.95 189.512 244.924C156.455 237.899 135.353 205.405 142.378 172.349C149.404 139.292 181.897 118.189 214.954 125.215C248.011 132.241 269.113 164.734 262.088 197.791Z" fill="#D9D9D9"/>
</mask>
<g mask="url(#mask1_208_75581)">
<path fill-rule="evenodd" clip-rule="evenodd" d="M269.759 175.451L133.828 146.561L134.065 145.442L269.997 174.332L269.759 175.451Z" fill="white"/>
<path fill-rule="evenodd" clip-rule="evenodd" d="M273.564 157.551L137.632 128.661L137.87 127.542L273.801 156.432L273.564 157.551Z" fill="white"/>
<path fill-rule="evenodd" clip-rule="evenodd" d="M275.703 147.482L139.772 118.592L140.01 117.474L275.941 146.364L275.703 147.482Z" fill="white"/>
<path fill-rule="evenodd" clip-rule="evenodd" d="M258.821 226.915L122.89 198.025L123.128 196.906L259.059 225.796L258.821 226.915Z" fill="white"/>
<path fill-rule="evenodd" clip-rule="evenodd" d="M255.017 244.814L119.085 215.924L119.323 214.805L255.255 243.695L255.017 244.814Z" fill="white"/>
<path fill-rule="evenodd" clip-rule="evenodd" d="M242.623 126.709L145.069 236.354L144.214 235.594L241.769 125.949L242.623 126.709Z" fill="white"/>
<path fill-rule="evenodd" clip-rule="evenodd" d="M226.352 117.989L138.804 216.313L137.95 215.553L225.498 117.228L226.352 117.989Z" fill="white"/>
<path fill-rule="evenodd" clip-rule="evenodd" d="M264.915 129.107L155.879 251.512L155.025 250.751L264.061 128.346L264.915 129.107Z" fill="white"/>
<path fill-rule="evenodd" clip-rule="evenodd" d="M279.83 138.708L179.205 251.793L178.351 251.033L278.975 137.948L279.83 138.708Z" fill="white"/>
<path fill-rule="evenodd" clip-rule="evenodd" d="M296.695 144.632L204.483 248.396L203.628 247.636L295.84 143.872L296.695 144.632Z" fill="white"/>
<path fill-rule="evenodd" clip-rule="evenodd" d="M205.06 116.386L117.512 214.71L116.658 213.95L204.206 115.626L205.06 116.386Z" fill="white"/>
<path fill-rule="evenodd" clip-rule="evenodd" d="M183.755 106.595L96.2073 204.919L95.3531 204.159L182.901 105.834L183.755 106.595Z" fill="white"/>
<path fill-rule="evenodd" clip-rule="evenodd" d="M221.264 251.967L178.782 118.991L177.693 119.339L220.174 252.315L221.264 251.967Z" fill="white"/>
<path fill-rule="evenodd" clip-rule="evenodd" d="M202.125 248.486L160.084 116.188L158.994 116.535L201.035 248.832L202.125 248.486Z" fill="white"/>
<path fill-rule="evenodd" clip-rule="evenodd" d="M238.59 247.466L198.598 122.035L197.508 122.382L237.501 247.813L238.59 247.466Z" fill="white"/>
<path fill-rule="evenodd" clip-rule="evenodd" d="M257.358 244.437L217.366 119.006L216.276 119.354L256.268 244.785L257.358 244.437Z" fill="white"/>
<path fill-rule="evenodd" clip-rule="evenodd" d="M275.175 245.886L235.183 120.455L234.093 120.803L274.086 246.234L275.175 245.886Z" fill="white"/>
<path fill-rule="evenodd" clip-rule="evenodd" d="M286.727 227.294L246.735 101.863L245.645 102.21L285.637 227.641L286.727 227.294Z" fill="white"/>
<path fill-rule="evenodd" clip-rule="evenodd" d="M185.917 253.225L139.981 108.992L138.891 109.339L184.827 253.573L185.917 253.225Z" fill="white"/>
<path fill-rule="evenodd" clip-rule="evenodd" d="M164.836 234.129L124.843 108.698L123.753 109.045L163.746 234.476L164.836 234.129Z" fill="white"/>
<path fill-rule="evenodd" clip-rule="evenodd" d="M266.193 192.232L130.261 163.342L130.499 162.223L266.43 191.113L266.193 192.232Z" fill="white"/>
<path fill-rule="evenodd" clip-rule="evenodd" d="M262.626 209.015L126.695 180.125L126.933 179.007L262.864 207.897L262.626 209.015Z" fill="white"/>
</g>
<path d="M70.1099 259.305C70.7665 256.215 73.8033 254.243 76.8927 254.9L289.46 300.078C292.55 300.734 294.522 303.771 293.865 306.86L293.271 309.657C292.614 312.747 289.577 314.719 286.488 314.062L73.9205 268.884C70.8311 268.228 68.8589 265.191 69.5155 262.102L70.1099 259.305Z" fill="#C1C1C1"/>
<path d="M153.684 220.94C153.881 220.013 154.792 219.422 155.719 219.619L230.677 235.55C231.604 235.747 232.196 236.658 231.999 237.585L230.096 246.535C229.899 247.462 228.988 248.053 228.062 247.856L153.104 231.925C152.177 231.728 151.585 230.817 151.782 229.89L153.684 220.94Z" fill="#EA6A56"/>
<path d="M91.5006 224.679C92.1572 221.59 95.1939 219.617 98.2833 220.274L282.881 259.507C285.971 260.164 287.943 263.201 287.286 266.29L280.748 297.057C280.091 300.146 277.054 302.118 273.965 301.462L89.3667 262.228C86.2772 261.572 84.3051 258.535 84.9617 255.445L91.5006 224.679Z" fill="#D7D7D7"/>
<path d="M130.049 227.611C130.377 226.066 131.896 225.08 133.44 225.408L161.41 231.353C162.955 231.681 163.941 233.2 163.612 234.744L155.008 275.229C154.68 276.774 153.161 277.76 151.617 277.431L123.647 271.487C122.103 271.159 121.116 269.64 121.445 268.095L130.049 227.611Z" fill="url(#paint0_linear_208_75581)"/>
<path fill-rule="evenodd" clip-rule="evenodd" d="M160.815 234.15L132.846 228.205L124.242 268.69L152.211 274.634L160.815 234.15ZM133.44 225.408C131.896 225.08 130.377 226.066 130.049 227.611L121.445 268.095C121.116 269.64 122.103 271.159 123.647 271.487L151.617 277.431C153.161 277.76 154.68 276.774 155.008 275.229L163.612 234.744C163.941 233.2 162.955 231.681 161.41 231.353L133.44 225.408Z" fill="#E9E9E9"/>
<path d="M212.958 244.646C213.287 243.102 214.805 242.116 216.35 242.444L244.319 248.388C245.864 248.717 246.85 250.235 246.522 251.78L237.917 292.264C237.589 293.809 236.071 294.795 234.526 294.467L206.556 288.522C205.012 288.194 204.026 286.676 204.354 285.131L212.958 244.646Z" fill="url(#paint1_linear_208_75581)"/>
<path fill-rule="evenodd" clip-rule="evenodd" d="M243.725 251.185L215.755 245.241L207.151 285.725L235.12 291.67L243.725 251.185ZM216.35 242.444C214.805 242.116 213.287 243.102 212.958 244.646L204.354 285.131C204.026 286.676 205.012 288.194 206.556 288.522L234.526 294.467C236.071 294.795 237.589 293.809 237.917 292.264L246.522 251.78C246.85 250.235 245.864 248.717 244.319 248.388L216.35 242.444Z" fill="#E9E9E9"/>
<path fill-rule="evenodd" clip-rule="evenodd" d="M282.887 286.987L87.1013 245.376L87.458 243.698L283.244 285.309L282.887 286.987Z" fill="#C1C1C1"/>
<path fill-rule="evenodd" clip-rule="evenodd" d="M284.552 279.156L88.7664 237.545L89.123 235.867L284.909 277.478L284.552 279.156Z" fill="#C1C1C1"/>
<path fill-rule="evenodd" clip-rule="evenodd" d="M286.216 271.325L90.4304 229.714L90.7871 228.036L286.573 269.647L286.216 271.325Z" fill="#C1C1C1"/>
<path d="M98.8433 220.393C98.9746 219.775 99.5819 219.381 100.2 219.512L119.219 223.554C119.837 223.685 120.231 224.293 120.1 224.911L111.183 266.865C111.052 267.483 110.445 267.877 109.827 267.746L90.8076 263.704C90.1897 263.572 89.7953 262.965 89.9266 262.347L98.8433 220.393Z" fill="#EA6A56"/>
<path d="M261.065 254.87C261.196 254.252 261.804 253.857 262.422 253.989L281.441 258.031C282.059 258.162 282.453 258.77 282.322 259.388L273.405 301.342C273.274 301.96 272.666 302.354 272.048 302.223L253.029 298.18C252.411 298.049 252.017 297.442 252.148 296.824L261.065 254.87Z" fill="#EA6A56"/>
<path fill-rule="evenodd" clip-rule="evenodd" d="M162.088 277.683L171.004 235.729L172.683 236.086L163.766 278.04L162.088 277.683Z" fill="#C1C1C1"/>
<path fill-rule="evenodd" clip-rule="evenodd" d="M173.275 280.061L182.192 238.107L183.87 238.463L174.953 280.417L173.275 280.061Z" fill="#C1C1C1"/>
<path fill-rule="evenodd" clip-rule="evenodd" d="M184.463 282.439L193.379 240.485L195.058 240.842L186.141 282.796L184.463 282.439Z" fill="#C1C1C1"/>
<path fill-rule="evenodd" clip-rule="evenodd" d="M195.65 284.817L204.567 242.863L206.245 243.219L197.328 285.174L195.65 284.817Z" fill="#C1C1C1"/>
<path d="M80.9795 115.069C86.8505 113.161 89.5088 107.559 87.4199 101.13C85.3213 94.6721 79.9364 91.6836 74.0067 93.6104C68.1357 95.5181 65.5067 101.111 67.6052 107.569C69.6847 113.968 75.1085 116.977 80.9795 115.069ZM79.6918 111.106C76.1985 112.241 73.1083 110.422 71.7443 106.224C70.3707 101.997 71.8012 98.7084 75.2944 97.5733C78.817 96.4287 81.8874 98.287 83.2514 102.485C84.5964 106.624 83.2144 109.961 79.6918 111.106Z" fill="#7BA3FD"/>
<path d="M93.9787 110.293L106.689 106.163L105.449 102.347L96.8777 105.132L91.4693 88.4878L87.3302 89.8327L93.9787 110.293Z" fill="#7BA3FD"/>
<path d="M112.043 104.423L116.182 103.078L113.569 95.035L117.225 80.1186L112.323 81.7116L110.109 91.7779L102.489 84.9071L97.6157 86.4905L109.43 96.3799L112.043 104.423Z" fill="#7BA3FD"/>
<path d="M134.795 74.4092L134.396 89.7601L125.108 77.557L119.208 79.4742L125.856 99.9347L129.996 98.5898L125.274 84.059L134.013 95.2722L138.005 93.9749L138.484 79.669L143.235 94.2878L147.374 92.9428L140.725 72.4824L134.795 74.4092Z" fill="#7BA3FD"/>
<path d="M152.029 91.43L156.139 90.0945L153.421 81.7284L156.239 80.8126C160.847 79.315 162.597 76.4098 161.29 72.3881C159.993 68.3958 156.976 67.2017 152.309 68.7184L145.381 70.9695L152.029 91.43ZM152.19 77.9416L150.721 73.4209L153.128 72.6387C155.447 71.8851 156.617 72.0892 157.17 73.7918C157.733 75.5238 156.828 76.4344 154.597 77.1594L152.19 77.9416Z" fill="#7BA3FD"/>
<path d="M169.029 85.9061L173.168 84.5611L166.52 64.1006L162.381 65.4456L169.029 85.9061Z" fill="#7BA3FD"/>
<path d="M186.652 80.7314C191.114 79.2815 193.765 75.9536 193.896 71.4646L189.544 71.2559C189.563 74.0086 188.065 75.8909 185.364 76.7685C181.636 77.9799 178.604 76.239 177.192 71.8945C175.78 67.5499 177.161 64.4076 180.918 63.1866C183.56 62.3282 185.898 62.9315 187.541 65.0914L190.871 62.3542C188.105 58.9365 184.073 57.8127 179.64 59.2531C173.534 61.2371 170.935 66.7226 173.062 73.2688C175.18 79.7856 180.546 82.7155 186.652 80.7314Z" fill="#7BA3FD"/>
<path d="M75.6148 128.528L74.8779 143.71L65.2986 131.88L60.7266 133.366L75.5158 150.958L78.5931 149.958L80.1868 127.042L75.6148 128.528Z" fill="#7BA3FD"/>
<path d="M88.9767 146.584L93.109 145.242L86.5259 124.982L82.3936 126.325L88.9767 146.584Z" fill="#7BA3FD"/>
<path d="M97.7632 143.729L110.453 139.606L109.225 135.827L100.668 138.608L95.3124 122.127L91.1801 123.47L97.7632 143.729Z" fill="#7BA3FD"/>
<path d="M112.846 138.828L125.536 134.704L124.309 130.926L115.751 133.707L110.395 117.226L106.263 118.569L112.846 138.828Z" fill="#7BA3FD"/>
<path d="M141.765 129.431L146.249 127.974L131.372 110.41L128.295 111.41L126.525 134.383L131.038 132.917L131.237 128.642L139.092 126.09L141.765 129.431ZM131.445 124.397L131.822 116.98L136.457 122.769L131.445 124.397Z" fill="#7BA3FD"/>
<path d="M153.16 113.453L154.36 117.144L158.844 115.687L158.938 115.978C159.637 118.128 158.409 120.231 155.243 121.259C151.463 122.488 148.254 121.088 146.79 116.583C145.383 112.252 146.885 109.097 150.519 107.916C153.069 107.087 155.487 107.651 157.151 109.778L160.479 107.058C157.641 103.609 153.444 102.659 149.312 104.002C143.245 105.973 140.684 111.851 142.686 118.013C144.707 124.233 150.247 127.221 156.225 125.279C158.804 124.44 160.65 122.941 161.353 120.817L162.483 122.699L165.385 121.756L161.777 110.653L153.16 113.453Z" fill="#7BA3FD"/>
<path d="M169.343 120.47L183 116.032L181.773 112.253L172.248 115.348L170.689 110.552L179.628 107.648L178.4 103.869L169.461 106.774L168.111 102.617L177.636 99.5223L176.417 95.7727L162.76 100.211L169.343 120.47Z" fill="#7BA3FD"/>
</g>
<defs>
<linearGradient id="paint0_linear_208_75581" x1="147.425" y1="228.381" x2="137.632" y2="274.459" gradientUnits="userSpaceOnUse">
<stop stop-color="#BDBDBD"/>
<stop offset="1" stop-color="#E9E9E9"/>
</linearGradient>
<linearGradient id="paint1_linear_208_75581" x1="230.334" y1="245.416" x2="220.541" y2="291.495" gradientUnits="userSpaceOnUse">
<stop stop-color="#BDBDBD"/>
<stop offset="1" stop-color="#E9E9E9"/>
</linearGradient>
</defs>
</svg>
