<svg width="302" height="354" viewBox="0 0 302 354" fill="none" xmlns="http://www.w3.org/2000/svg">
<path d="M5.53869 78.2792C2.47975 65.5341 10.332 52.7224 23.0771 49.6635L206.925 5.53857C219.67 2.47964 232.481 10.3318 235.54 23.077L295.912 274.617C298.971 287.362 291.119 300.174 278.374 303.233L94.5262 347.358C81.7811 350.417 68.9693 342.565 65.9104 329.82L5.53869 78.2792Z" fill="#7BA3FD"/>
<path fill-rule="evenodd" clip-rule="evenodd" d="M208.124 20.7077L28.1232 63.9094C20.9009 65.6428 16.4513 72.9028 18.1847 80.125L76.341 322.434C78.0744 329.657 85.3343 334.106 92.5566 332.373L272.558 289.171C279.78 287.438 284.23 280.178 282.496 272.956L224.34 30.6461C222.607 23.4239 215.347 18.9743 208.124 20.7077ZM27.5693 61.6017C19.0725 63.641 13.8377 72.1822 15.877 80.6789L74.0333 322.988C76.0725 331.485 84.6137 336.72 93.1104 334.681L273.112 291.479C281.608 289.44 286.843 280.898 284.804 272.402L226.648 30.0922C224.608 21.5955 216.067 16.3607 207.571 18.4L27.5693 61.6017Z" fill="white"/>
<path d="M101.527 73.9526L102.958 79.9164C102.97 79.966 102.987 80.0144 103.008 80.0608L188.995 268.017C189.202 268.47 188.945 268.999 188.46 269.115L166.938 274.281C166.513 274.383 166.252 274.81 166.354 275.235L169.444 288.112C169.546 288.537 169.285 288.964 168.86 289.066L163.19 290.427C162.765 290.529 162.504 290.956 162.605 291.381L164.062 297.451C164.164 297.876 163.903 298.303 163.478 298.405L156.607 300.054C156.182 300.156 155.92 300.583 156.022 301.008L157.575 307.478C157.677 307.903 157.415 308.33 156.991 308.432L142.911 311.811C142.487 311.913 142.225 312.34 142.327 312.765L143.688 318.435C143.79 318.86 143.528 319.287 143.103 319.389L134.63 321.422C134.205 321.524 133.944 321.951 134.046 322.376L135.502 328.446C135.604 328.871 135.343 329.298 134.918 329.4L118.036 333.452C117.611 333.554 117.349 333.981 117.451 334.406L119.004 340.876C119.106 341.301 119.533 341.563 119.958 341.461L160.867 331.642C161.292 331.54 161.554 331.113 161.452 330.688L159.899 324.218C159.797 323.793 160.058 323.366 160.483 323.264L176.164 319.5C176.589 319.398 176.851 318.971 176.749 318.547L175.58 313.678C175.478 313.253 175.74 312.826 176.165 312.724L189.043 309.633C189.467 309.531 189.729 309.104 189.627 308.679L188.266 303.01C188.164 302.585 188.426 302.158 188.851 302.056L196.122 300.311C196.547 300.209 196.809 299.782 196.707 299.357L195.25 293.287C195.148 292.862 195.41 292.435 195.835 292.333L202.305 290.78C202.73 290.678 202.992 290.251 202.89 289.826L201.721 284.957C201.619 284.532 201.881 284.105 202.306 284.003L207.976 282.643C208.401 282.541 208.662 282.114 208.56 281.689L207.2 276.019C207.098 275.594 207.359 275.167 207.784 275.065L214.255 273.512C214.68 273.41 214.941 272.983 214.839 272.559L213.19 265.688C213.088 265.263 213.35 264.836 213.775 264.734L220.245 263.181C220.67 263.079 220.932 262.652 220.83 262.227L217.643 248.949C217.541 248.524 217.803 248.097 218.228 247.995L223.897 246.634C224.322 246.532 224.584 246.105 224.482 245.68L217.643 217.185C217.541 216.76 217.803 216.333 218.227 216.231L224.698 214.678C225.123 214.576 225.385 214.149 225.283 213.724L214.791 170.012C214.689 169.587 214.951 169.16 215.376 169.058L229.455 165.679C229.88 165.577 230.142 165.15 230.04 164.725L229.255 161.458C229.154 161.033 229.415 160.606 229.84 160.504L248.725 155.972C249.149 155.87 249.411 155.443 249.309 155.018L247.948 149.348C247.846 148.923 247.419 148.662 246.995 148.764L242.126 149.932C241.701 150.034 241.274 149.772 241.172 149.348L239.907 144.078C239.805 143.654 239.378 143.392 238.953 143.494L232.883 144.951C232.459 145.053 232.032 144.791 231.93 144.366L230.088 136.694C229.986 136.269 229.559 136.008 229.134 136.11L210.65 140.546C210.226 140.648 209.798 140.386 209.696 139.961L207.951 132.69C207.849 132.265 207.422 132.003 206.997 132.105L200.126 133.754C199.702 133.856 199.275 133.595 199.173 133.17L197.524 126.299C197.422 125.874 196.994 125.612 196.57 125.714L191.701 126.883C191.276 126.985 190.849 126.723 190.747 126.298L187.752 113.821C187.65 113.396 187.223 113.134 186.799 113.236L181.529 114.501C181.105 114.603 180.677 114.341 180.576 113.916L177.196 99.8372C177.094 99.4123 176.667 99.1506 176.243 99.2526L171.374 100.421C170.949 100.523 170.522 100.261 170.42 99.8365L167.906 89.3614C167.804 88.9366 167.377 88.6749 166.952 88.7768L161.683 90.0415C161.258 90.1434 160.831 89.8817 160.729 89.4569L159.56 84.5881C159.459 84.1633 159.031 83.9016 158.607 84.0035L153.337 85.2682C152.913 85.3701 152.486 85.1084 152.384 84.6836L151.119 79.4144C151.017 78.9895 150.59 78.7278 150.165 78.8298L146.498 79.71C146.073 79.8119 145.646 79.5502 145.544 79.1254L144.76 75.8584C144.658 75.4336 144.231 75.1719 143.806 75.2738L138.537 76.5385C138.112 76.6404 137.685 76.3787 137.583 75.9538L136.799 72.6869C136.697 72.2621 136.27 72.0003 135.845 72.1023L130.976 73.2708C130.551 73.3728 130.124 73.1111 130.022 72.6862L129.719 71.4216C129.617 70.9967 129.19 70.735 128.765 70.8369L123.095 72.1977C122.67 72.2997 122.243 72.0379 122.141 71.6131L121.55 69.1471C121.448 68.7222 121.021 68.4605 120.596 68.5624L102.112 72.9988C101.687 73.1007 101.425 73.5278 101.527 73.9526Z" fill="#303030"/>
<path d="M101.808 137.023L107.045 135.766L119.891 132.682C120.316 132.581 120.743 132.842 120.845 133.267L127.012 158.959C127.114 159.384 126.852 159.811 126.427 159.913L115.151 162.619C114.726 162.721 114.465 163.148 114.566 163.573L115.735 168.442C115.837 168.867 115.575 169.294 115.15 169.396L109.08 170.853C108.655 170.955 108.394 171.382 108.496 171.807L109.856 177.476C109.958 177.901 109.697 178.328 109.272 178.43L104.403 179.599C103.978 179.701 103.717 180.128 103.819 180.552L105.179 186.222C105.281 186.647 105.019 187.074 104.595 187.176L99.7259 188.344C99.3011 188.446 98.874 188.185 98.7721 187.76L92.5096 161.667C92.4077 161.242 92.6694 160.815 93.0942 160.713L97.963 159.545C98.3878 159.443 98.6496 159.016 98.5476 158.591L97.0907 152.521C96.9888 152.096 97.2505 151.669 97.6753 151.567L103.345 150.206C103.77 150.104 104.032 149.677 103.93 149.252L101.223 137.977C101.121 137.552 101.383 137.125 101.808 137.023Z" fill="#303030"/>
<path d="M109.648 146.609L107.045 135.766L113.084 134.316C113.509 134.214 113.936 134.476 114.038 134.901L114.893 138.464L142.189 147.849C142.439 147.935 142.63 148.141 142.697 148.397L157.907 206.585C158.019 207.014 157.757 207.451 157.327 207.554L150.071 209.296C149.646 209.398 149.219 209.136 149.117 208.711L144.488 189.426C144.386 189.001 143.959 188.74 143.535 188.841L139.467 189.818C139.042 189.92 138.615 189.658 138.513 189.233L131.385 159.537C131.283 159.112 130.856 158.85 130.432 158.952L125.963 160.024C125.538 160.126 125.111 159.865 125.009 159.44L123.264 152.168C123.162 151.743 122.735 151.482 122.31 151.584L118.643 152.464C118.218 152.566 117.791 152.304 117.689 151.879L116.424 146.61C116.322 146.185 115.895 145.924 115.471 146.026L110.602 147.194C110.177 147.296 109.75 147.034 109.648 146.609Z" fill="#BCB9B9"/>
<path d="M136.558 78.7409L135.774 75.4739C135.672 75.0491 135.245 74.7874 134.82 74.8893L121.974 77.9725L122.942 82.0087C123.044 82.4335 123.471 82.6952 123.896 82.5933L128.365 81.5208C128.789 81.4189 129.216 81.6806 129.318 82.1055L129.718 83.7706C129.82 84.1954 130.247 84.4572 130.672 84.3552L135.14 83.2828C135.565 83.1808 135.992 83.4426 136.094 83.8674L137.166 88.3357C137.268 88.7605 137.695 89.0222 138.12 88.9203L143.79 87.5595C144.215 87.4576 144.642 87.7193 144.744 88.1441L145.624 91.8115C145.726 92.2363 146.153 92.4981 146.578 92.3961L151.447 91.2276C151.871 91.1256 152.133 90.6986 152.031 90.2737L150.574 84.2037C150.472 83.7788 150.045 83.5171 149.62 83.619L145.152 84.6915C144.727 84.7934 144.3 84.5317 144.198 84.1069L142.934 78.8377C142.832 78.4128 142.405 78.1511 141.98 78.2531L137.512 79.3255C137.087 79.4275 136.66 79.1657 136.558 78.7409Z" fill="#FFF7F7"/>
<path d="M96.6498 80.239L101.487 79.0781L111.53 76.6677C111.955 76.5658 112.382 76.8275 112.484 77.2523L117.401 97.7386C117.503 98.1634 117.93 98.4252 118.354 98.3232L121.221 97.6352C121.646 97.5333 122.073 97.795 122.175 98.2199L133.051 143.534C133.152 143.959 133.58 144.221 134.004 144.119L145.681 141.316C146.106 141.214 146.533 141.476 146.635 141.901L154.627 175.201C154.729 175.626 155.156 175.888 155.581 175.786L160.45 174.618C160.874 174.516 161.302 174.777 161.403 175.202L162.668 180.471C162.77 180.896 163.197 181.158 163.622 181.056L174.497 178.446C174.922 178.344 175.349 178.606 175.451 179.03L176.908 185.1C177.01 185.525 177.437 185.787 177.862 185.685L184.333 184.132C184.757 184.03 185.184 184.292 185.286 184.717L186.743 190.787C186.845 191.212 187.272 191.473 187.697 191.371L193.767 189.915C194.192 189.813 194.619 190.074 194.721 190.499L205.116 233.811C205.218 234.236 204.957 234.663 204.532 234.765L198.462 236.222C198.037 236.324 197.775 236.751 197.877 237.176L199.422 243.615L201.064 250.454C201.166 250.879 200.904 251.306 200.479 251.408L194.009 252.961C193.584 253.063 193.322 253.49 193.424 253.915L194.785 259.584C194.887 260.009 194.625 260.436 194.2 260.538L188.531 261.899C188.106 262.001 187.844 262.428 187.946 262.853L189.211 268.122C189.313 268.547 189.051 268.974 188.626 269.076L172.144 273.031C171.719 273.133 171.292 272.872 171.19 272.447L145.225 164.262C145.123 163.837 144.696 163.575 144.271 163.677L139.002 164.942C138.577 165.044 138.15 164.782 138.048 164.357L135.054 151.88C134.952 151.455 134.525 151.194 134.1 151.296L130.032 152.272C129.607 152.374 129.18 152.112 129.078 151.687L128.102 147.619C128 147.195 127.573 146.933 127.148 147.035L122.68 148.107C122.255 148.209 121.828 147.947 121.726 147.523L121.038 144.656C120.936 144.231 120.509 143.97 120.084 144.072L115.616 145.144C115.191 145.246 114.764 144.984 114.662 144.559L111.194 130.111L105.516 106.453C105.414 106.028 104.987 105.767 104.562 105.869L101.295 106.653C100.87 106.755 100.443 106.493 100.341 106.068L95.9051 87.5841C95.8031 87.1593 96.0649 86.7322 96.4897 86.6302L96.553 86.615C96.9779 86.5131 97.2396 86.086 97.1377 85.6612L96.0652 81.1929C95.9633 80.7681 96.225 80.341 96.6498 80.239Z" fill="#FFF7F7"/>
<path d="M31.8713 79.5251L33.2652 85.3328L50.1361 86.8158L35.7669 95.7559L37.17 101.602L65.9533 103.399L64.4302 97.0527L45.7023 96.1374L60.3224 87.0557L59.0947 81.9403L41.9637 80.5604L58.2269 71.2063L56.713 64.8986L31.8713 79.5251Z" fill="white"/>
<path d="M43.4503 127.769L45.0288 134.346L69.1689 116.796L68.1073 112.373L38.6224 107.654L40.2009 114.231L45.1548 114.872L47.5734 124.949L43.4503 127.769ZM51.201 115.658L59.6426 116.764L52.6134 121.543L51.201 115.658Z" fill="white"/>
<path d="M46.1887 139.179L47.6565 145.294L68.9259 140.19L70.7998 147.997L76.3383 146.668L71.1135 124.899L65.575 126.228L67.4581 134.074L46.1887 139.179Z" fill="white"/>
<path d="M50.2104 155.935L54.5306 173.936L60.0691 172.606L57.1982 160.645L62.7367 159.315L65.4691 170.7L71.0461 169.362L68.3137 157.977L72.9291 156.869L75.8 168.831L81.3385 167.501L77.0183 149.501L50.2104 155.935Z" fill="white"/>
<path d="M60.8521 200.274L70.5105 190.349C72.4229 193.063 75.3198 194.117 79.1276 193.203C83.8968 192.058 86.4414 188.763 84.8168 181.994L82.5551 172.571L55.7472 179.005L57.1873 185.005L67.8412 182.448L67.9797 183.025L68.3397 184.525L59.172 193.274L60.8521 200.274ZM73.3797 181.118L78.4567 179.9L79.1306 182.708C79.5829 184.592 80.0629 186.592 77.6013 187.183C75.1013 187.783 74.5152 185.849 74.0536 183.926L73.3797 181.118Z" fill="white"/>
<path d="M61.4914 202.938L62.9407 208.976L74.0177 206.318L76.8701 218.203L82.4471 216.864L79.5946 204.979L84.2101 203.872L87.441 217.333L92.9795 216.004L88.2993 196.504L61.4914 202.938Z" fill="white"/>
<path d="M72.124 247.239L81.7825 237.314C83.6948 240.028 86.5918 241.082 90.3995 240.168C95.1688 239.023 97.7134 235.728 96.0887 228.959L93.8271 219.536L67.0192 225.97L68.4592 231.97L79.1132 229.413L79.2516 229.99L79.6116 231.49L70.4439 240.239L72.124 247.239ZM84.6517 228.083L89.7286 226.865L90.4025 229.673C90.8548 231.557 91.3348 233.557 88.8733 234.148C86.3733 234.748 85.7871 232.814 85.3255 230.891L84.6517 228.083Z" fill="white"/>
<path d="M74.7122 261.074C76.5769 268.843 83.4847 272.88 91.9463 270.849C100.446 268.809 104.788 262.153 102.905 254.307C101.04 246.538 94.103 242.549 85.6414 244.579C77.2183 246.601 72.8475 253.304 74.7122 261.074ZM80.4815 259.689C79.4476 255.381 81.8984 251.864 87.0907 250.618C92.3215 249.363 96.1016 251.384 97.1355 255.692C98.1786 260.038 95.6417 263.535 90.4878 264.772C85.3723 266 81.5246 264.035 80.4815 259.689Z" fill="white"/>
<path d="M110.194 287.728L93.8475 291.651L107.766 277.612L106.289 271.458L79.4811 277.892L80.9304 283.931L97.3536 279.989L83.3489 294.008L84.8352 300.2L111.643 293.766L110.194 287.728Z" fill="white"/>
<path d="M87.3985 310.88L88.8662 316.996L110.136 311.891L112.01 319.699L117.548 318.369L112.323 296.6L106.785 297.929L108.668 305.776L87.3985 310.88Z" fill="white"/>
</svg>
