<svg width="437" height="437" viewBox="0 0 437 437" fill="none" xmlns="http://www.w3.org/2000/svg">
<path d="M222.754 37.5719C239.021 25.9756 261.608 29.7621 273.204 46.0291L399.186 222.753C410.782 239.021 406.995 261.608 390.728 273.204L214.004 399.186C197.737 410.782 175.149 406.995 163.553 390.728L37.572 214.004C25.9757 197.737 29.7621 175.149 46.0292 163.553L222.754 37.5719Z" fill="#6366A0"/>
<path d="M230.724 54.0939C240.484 47.1361 254.037 49.408 260.995 59.1682L383.378 230.845C390.335 240.606 388.064 254.158 378.303 261.116L206.626 383.499C196.866 390.457 183.313 388.185 176.356 378.425L53.9726 206.748C47.0148 196.987 49.2867 183.435 59.0469 176.477L230.724 54.0939Z" fill="#C6DCE4"/>
<mask id="mask0_208_74625" style="mask-type:alpha" maskUnits="userSpaceOnUse" x="30" y="30" width="376" height="376">
<path d="M222.754 37.5719C239.021 25.9756 261.608 29.7621 273.204 46.0291L399.186 222.753C410.782 239.021 406.995 261.608 390.728 273.204L214.004 399.186C197.737 410.782 175.149 406.995 163.553 390.728L37.572 214.004C25.9757 197.737 29.7621 175.149 46.0292 163.553L222.754 37.5719Z" fill="#6995F6"/>
</mask>
<g mask="url(#mask0_208_74625)">
<path d="M70.4447 273.704C58.7469 271.743 44.8042 271.914 34.0102 277.809C35.2815 282.744 30.3389 304.397 29.4797 309.523C28.8247 313.43 25.9642 314.366 28.8907 318.764C36.593 330.341 40.0881 343.82 45.7119 356.414C51.0294 368.322 57.906 379.273 66.005 389.495C71.5279 396.465 77.4669 402.521 86.0878 405.344C103.142 410.929 122.652 412.085 140.286 415.041C155.618 417.611 172.175 421.736 187.822 420.478C202.267 419.316 215.945 414.403 230.007 411.226C241.635 408.598 253.425 405.159 264.593 400.962C270.019 398.923 272.924 395.494 275.897 390.81C279.158 385.674 285.845 381.236 290.382 377.307C298.176 370.556 304.658 365.384 310.039 356.903C314.218 350.315 318.048 343.5 322.915 337.369C324.948 334.808 327.226 331.169 325.337 327.867C324.003 325.536 321.432 325.02 319.595 323.326C317.013 320.944 314.735 318.507 311.747 316.511C307.781 313.862 302.74 309.501 297.912 308.692C294.56 308.13 291.556 307.223 288.347 306.129C274.778 301.502 258.814 303.311 245.683 297.144C241.547 295.201 238.055 293.077 233.573 291.796C228.117 290.238 222.389 289.705 216.889 288.214C207.913 285.781 199.337 282.202 190.168 280.461C178.657 278.276 166.804 276.86 155.107 276.112C146.564 275.565 137.654 272.751 129.097 272.973C124.372 273.096 119.935 273.127 115.338 274.333C111.64 275.304 108.294 277.37 104.606 278.47C99.1952 280.085 93.2248 278.529 87.9563 277.032C82.2433 275.409 76.2949 274.685 70.4447 273.704Z" fill="url(#paint0_linear_208_74625)"/>
<path d="M96.3876 227.438C82.1115 225.045 65.1858 224.716 52.2897 230.258C54.0109 235.268 48.7871 256.872 47.928 261.997C47.273 265.905 43.8329 266.743 47.545 271.273C57.3146 283.195 62.0437 296.88 69.3259 309.751C76.2115 321.921 84.956 333.185 95.1588 343.759C102.116 350.969 109.546 357.274 120.117 360.424C141.027 366.655 164.762 368.519 186.283 372.127C204.994 375.263 225.249 380.009 244.205 379.305C261.706 378.656 278.139 374.206 295.102 371.515C309.128 369.29 323.322 366.254 336.734 362.433C343.249 360.577 346.654 357.233 350.096 352.627C353.871 347.578 361.833 343.354 367.2 339.565C376.423 333.054 384.109 328.083 390.338 319.745C395.176 313.269 399.583 306.551 405.273 300.558C407.649 298.055 410.285 294.477 407.873 291.087C406.169 288.694 403.027 288.083 400.736 286.312C397.515 283.823 394.661 281.29 390.96 279.174C386.049 276.367 379.77 271.8 373.878 270.812C369.788 270.126 363.791 273.956 359.853 272.74C343.21 267.599 331.252 258.991 315.084 252.315C309.991 250.212 307.991 243.099 302.502 241.65C295.82 239.885 287.986 232.789 281.253 231.092C270.264 228.321 259.722 224.412 248.525 222.332C234.466 219.72 213.519 234.077 199.287 232.904C188.893 232.047 177.971 228.896 167.587 228.812C161.854 228.765 156.467 228.636 150.928 229.685C146.472 230.529 142.483 232.486 138.044 233.461C131.531 234.89 124.225 233.11 117.773 231.416C110.777 229.578 103.527 228.635 96.3876 227.438Z" fill="url(#paint1_linear_208_74625)"/>
<path d="M227.227 90.0283L230.72 94.9283L250.019 88.9953L238.092 105.269L241.61 110.205L272.168 99.941L268.366 94.6087L247.477 101.893L259.595 85.4295L256.513 81.1061L237.023 87.2292L250.696 69.8208L246.92 64.5245L227.227 90.0283Z" fill="#6366A0"/>
<path d="M249.144 120.773L252.766 125.853L263.394 118.276L270.791 128.653L260.163 136.229L263.784 141.309L288.896 123.408L285.275 118.328L275.439 125.339L268.042 114.963L277.878 107.951L274.256 102.871L249.144 120.773Z" fill="#6366A0"/>
<path d="M267.855 147.021L271.477 152.101L296.589 134.199L292.967 129.119L267.855 147.021Z" fill="#6366A0"/>
<path d="M280.342 165.604C283.989 170.72 289.928 172.191 294.756 168.75C298.323 166.207 298.902 163.132 297.165 156.274C295.961 151.535 296.091 149.812 297.532 148.785C298.901 147.809 300.783 148.315 301.888 149.864C302.992 151.413 302.995 153.476 301.687 155.604L307.322 157.945C309.326 154.125 308.96 150.257 306.494 146.798C303.078 142.006 297.91 140.854 293.803 143.782C290.056 146.453 289.471 149.75 291.121 156.561C292.207 161.058 292.108 162.976 290.667 164.004C288.649 165.442 286.464 164.663 284.897 162.465C282.971 159.763 283.159 156.749 285.908 154.355L281.051 150.21C276.906 154.305 276.695 160.488 280.342 165.604Z" fill="#6366A0"/>
<path d="M293.093 182.423L296.74 187.539L317.204 172.951L322.623 180.553L327.271 177.24L312.785 156.919L308.138 160.232L313.557 167.835L293.093 182.423Z" fill="#6366A0"/>
<path d="M304.249 198.073L315.37 213.674L320.054 210.335L312.554 199.815L332.983 185.252L329.361 180.172L304.249 198.073Z" fill="#6366A0"/>
<path d="M317.467 216.616L329.436 233.405L334.12 230.066L325.773 218.357L331.717 214.119L339.551 225.108L344.235 221.769L336.401 210.78L341.553 207.107L349.901 218.817L354.548 215.504L342.58 198.714L317.467 216.616Z" fill="#6366A0"/>
<path d="M346.711 257.638L352.753 243.17C355.852 245.307 359.314 245.285 362.917 242.716C367.384 239.531 368.458 235.016 364.066 228.855L358.005 220.353L332.893 238.254L336.489 243.298L346.685 236.03L347.455 237.111L348.508 238.588L342.524 251.765L346.711 257.638ZM351.369 232.691L356.953 228.71L359.059 231.664C360.729 234.006 361.601 235.992 359.223 237.687C356.809 239.408 355.144 237.987 353.475 235.645L351.369 232.691Z" fill="#6366A0"/>
<path d="M134.095 161.052C134.36 159.476 135.851 158.413 137.428 158.677L229.169 174.056C230.573 174.291 231.598 175.513 231.584 176.937L231.442 191.914C231.425 193.704 229.802 195.05 228.04 194.735L134.163 177.966C132.601 177.687 131.556 176.203 131.818 174.639L134.095 161.052Z" fill="url(#paint2_linear_208_74625)"/>
<path d="M147.364 207.611C147.712 206.219 149.027 205.292 150.456 205.433L166.148 206.982C167.825 207.148 169.006 208.705 168.714 210.365L162.447 245.869C162.176 247.4 160.744 248.444 159.204 248.233L141.138 245.756C139.432 245.522 138.306 243.859 138.724 242.188L147.364 207.611Z" fill="url(#paint3_linear_208_74625)"/>
<path d="M151.346 183.451C151.738 182.019 153.151 181.116 154.616 181.361L203.966 189.634C205.461 189.885 206.51 191.246 206.369 192.756L204.622 211.554C204.467 213.221 202.933 214.41 201.279 214.143L148.594 205.639C146.895 205.365 145.809 203.678 146.264 202.018L151.346 183.451Z" fill="url(#paint4_linear_208_74625)"/>
<path d="M129.971 246.919C130.301 244.949 132.166 243.619 134.136 243.95L201.204 255.192C203.174 255.523 204.503 257.387 204.173 259.358L202.14 271.487C201.81 273.457 199.945 274.787 197.974 274.456L130.907 263.214C128.937 262.883 127.607 261.018 127.938 259.048L129.971 246.919Z" fill="url(#paint5_linear_208_74625)"/>
<path d="M121.986 263.917C122.317 261.947 124.182 260.617 126.152 260.948L203.208 273.865C205.178 274.195 206.508 276.06 206.178 278.03L204.144 290.159C203.814 292.13 201.949 293.459 199.979 293.129L122.923 280.212C120.952 279.881 119.623 278.016 119.953 276.046L121.986 263.917Z" fill="url(#paint6_linear_208_74625)"/>
<path d="M173.932 211.759C174.239 210.184 175.769 209.159 177.342 209.475L193.906 212.804C195.369 213.098 196.369 214.456 196.214 215.941L192.605 250.633C192.432 252.293 190.895 253.463 189.248 253.187L169.531 249.882C167.925 249.613 166.858 248.073 167.169 246.475L173.932 211.759Z" fill="url(#paint7_linear_208_74625)"/>
<path d="M175.164 146.36C175.558 144.93 176.969 144.03 178.432 144.275L193.839 146.858C195.357 147.112 196.411 148.512 196.235 150.042L194.498 165.155C194.309 166.801 192.779 167.953 191.145 167.679L173.413 164.706C171.721 164.423 170.646 162.737 171.102 161.083L175.164 146.36Z" fill="url(#paint8_linear_208_74625)"/>
<path d="M195.877 148.292C196.366 148.697 196.963 149.218 197.01 149.561C197.265 150.191 196.888 152.182 196.722 152.845C196.476 153.824 195.775 155.103 195.113 155.876C194.302 156.824 194.6 157.074 193.45 157.518C192.612 157.842 191.486 157.753 190.603 157.873C188.01 158.224 186.333 155.921 183.871 155.508C182.463 155.272 181.045 155.097 179.806 154.307C179 153.793 178.32 153.299 177.461 152.874C176.486 152.393 175.891 152.407 175.226 151.356C174.421 150.085 174.161 148.808 174.576 147.297C174.844 146.324 175.38 145.105 175.846 144.23C176.427 143.139 176.739 143.533 177.852 143.688C179.879 143.97 181.924 144.163 183.96 144.504C186.407 144.914 190.036 145.163 192.348 146.118C193.683 146.669 194.75 147.357 195.877 148.292Z" fill="white"/>
<path d="M138.622 158.05C136.705 158.204 134.354 159.309 133.841 161.452C133.707 162.254 132.078 165.043 133.081 165.412C133.506 165.568 134.038 165.583 134.485 165.658C135.815 165.881 136.97 166.654 138.318 166.895C139.307 167.071 140.312 167.188 141.296 167.394C142.153 167.573 142.733 168.074 143.688 168.092C145.108 168.119 146.376 166.533 147.768 166.201C150.102 165.643 151.911 167.649 154.037 168.253C155.692 168.724 157.437 168.911 159.131 169.195C159.483 169.254 160.766 169.714 161.144 169.489C161.805 169.095 162.813 169.116 163.578 169.049C166.257 168.815 169.131 169.272 171.805 169.438C173.262 169.528 174.697 169.625 176.135 169.867C180.572 170.61 184.882 171.927 189.315 172.67C190.653 172.894 191.754 173.677 192.959 174.272C194.827 175.193 196.988 175.343 199.016 175.683C200.94 176.006 202.844 176.453 204.802 176.367C205.774 176.324 206.699 176.358 207.654 176.537C209.541 176.891 211.101 178.105 212.984 178.421C215.338 178.815 217.75 179.022 220.079 179.412C220.983 179.564 222.175 178.972 223.032 179.555C223.519 179.886 223.764 180.366 224.114 180.837C224.602 181.494 225.738 182.072 226.501 182.26C228.347 182.717 231.478 183.687 232.954 182.01C233.683 181.182 233.651 178.989 233.832 177.91C234.084 176.406 233.54 175.199 232.883 173.932C232.38 172.961 230.163 172.826 229.212 172.623C227.759 172.313 226.099 171.714 224.713 171.176C222.803 170.435 220.701 170.206 218.691 169.869C216.442 169.492 214.325 169.388 212.053 169.197C209.819 169.008 207.464 168.646 205.217 168.755C204.483 168.791 203.48 168.31 202.739 168.186L192.047 166.393C188.765 165.843 185.439 165.682 182.159 165.132C177.892 164.417 174.068 162.191 169.802 161.476C164.952 160.663 160.156 159.661 155.316 158.849C153.017 158.464 150.611 157.791 148.277 157.713C146.32 157.648 144.451 158.069 142.526 158.092C141.2 158.108 139.943 157.943 138.622 158.05Z" fill="white"/>
<path d="M139.346 242.016C137.96 242.288 133.473 241.937 131.955 241.709C131.083 241.563 130.005 242.344 129.877 243.104C129.778 243.695 130.06 245.475 130.649 245.951C132.913 247.781 135.045 248.749 138.232 248.387C139.554 248.237 140.715 248.493 142.052 248.717C143.53 248.965 145.824 249.709 147.296 249.51C150.15 249.124 152.856 249.907 155.646 250.374C156.989 250.6 158.154 251.412 159.386 251.864C160.79 252.38 162.265 252.756 163.633 253.336C164.47 253.69 165.711 254.374 166.654 254.532C168.14 254.781 169.498 254.012 170.991 254.034C174.175 254.081 177.655 254.996 180.807 255.524C184.19 256.091 187.498 256.182 190.887 256.601C192.009 256.74 193.155 256.95 194.268 257.159C196.139 257.512 197.654 258.481 199.435 259.026C201.318 259.603 206.778 259.632 205.793 257.072C204.164 252.84 197.239 251.134 192.298 250.306C189.402 249.82 186.498 249.792 183.59 249.459C182.243 249.304 180.723 248.771 179.383 248.771C175.074 248.769 170.663 247.274 166.336 247.472C164.548 247.554 163.159 246.222 161.53 245.778C160.051 245.375 158.309 245.385 156.778 245.128C154.619 244.766 152.716 244.218 150.695 243.522C148.131 242.638 144.828 241.938 142.064 241.738C141.011 241.662 140.295 241.83 139.346 242.016Z" fill="white"/>
</g>
<defs>
<linearGradient id="paint0_linear_208_74625" x1="184.134" y1="279.39" x2="160.69" y2="419.243" gradientUnits="userSpaceOnUse">
<stop stop-color="white"/>
<stop offset="1" stop-color="white" stop-opacity="0"/>
</linearGradient>
<linearGradient id="paint1_linear_208_74625" x1="234.655" y1="237.245" x2="211.213" y2="377.088" gradientUnits="userSpaceOnUse">
<stop stop-color="white"/>
<stop offset="1" stop-color="white" stop-opacity="0"/>
</linearGradient>
<linearGradient id="paint2_linear_208_74625" x1="183.091" y1="166.331" x2="179.861" y2="185.596" gradientUnits="userSpaceOnUse">
<stop stop-color="#BABBC4"/>
<stop offset="1" stop-color="#9CA9B6"/>
</linearGradient>
<linearGradient id="paint3_linear_208_74625" x1="158.315" y1="206.922" x2="151.617" y2="246.877" gradientUnits="userSpaceOnUse">
<stop stop-color="#BABBC4"/>
<stop offset="1" stop-color="#808AA2"/>
</linearGradient>
<linearGradient id="paint4_linear_208_74625" x1="180.219" y1="185.653" x2="176.153" y2="209.912" gradientUnits="userSpaceOnUse">
<stop stop-color="#BABBC4"/>
<stop offset="1" stop-color="#A0AEB9"/>
</linearGradient>
<linearGradient id="paint5_linear_208_74625" x1="167.67" y1="249.571" x2="164.441" y2="268.835" gradientUnits="userSpaceOnUse">
<stop stop-color="#BABBC4"/>
<stop offset="1" stop-color="#9DAAB7"/>
</linearGradient>
<linearGradient id="paint6_linear_208_74625" x1="164.68" y1="267.406" x2="161.451" y2="286.67" gradientUnits="userSpaceOnUse">
<stop stop-color="#BABBC4"/>
<stop offset="1" stop-color="#6A7D9D"/>
</linearGradient>
<linearGradient id="paint7_linear_208_74625" x1="186.498" y1="211.648" x2="179.8" y2="251.603" gradientUnits="userSpaceOnUse">
<stop stop-color="#BABBC4"/>
<stop offset="1" stop-color="#808AA2"/>
</linearGradient>
<linearGradient id="paint8_linear_208_74625" x1="186.203" y1="145.578" x2="182.735" y2="166.269" gradientUnits="userSpaceOnUse">
<stop stop-color="#BABBC4"/>
<stop offset="1" stop-color="#9CA9B6"/>
</linearGradient>
</defs>
</svg>
