<svg width="15" height="14" viewBox="0 0 15 14" fill="none" xmlns="http://www.w3.org/2000/svg">
<path d="M5.05477 5.74649C6.1537 4.94017 7.17251 1.95919 7.48889 0.963013C7.52036 0.863907 7.66134 0.850725 7.69406 0.943801C8.02571 1.88738 9.10422 4.7167 10.3156 5.34969C11.1733 5.79789 12.9679 6.03841 14.302 6.16055C14.4286 6.17215 14.4116 6.44723 14.2831 6.46487C12.9801 6.64364 11.2354 6.95295 10.2908 7.41433C8.94421 8.07207 7.87541 11.8658 7.54214 13.1754C7.5146 13.2836 7.35621 13.2966 7.33017 13.1927C7.01592 11.9388 6.03316 8.32409 5.02999 7.81113C4.34268 7.45967 2.53411 7.42057 1.09015 7.45311C0.960368 7.45603 0.948773 7.15937 1.07747 7.12936C2.50779 6.7958 4.30813 6.29432 5.05477 5.74649Z" fill="#E0F6FB"/>
</svg>
