<svg width="11" height="12" viewBox="0 0 11 12" fill="none" xmlns="http://www.w3.org/2000/svg">
<path d="M2.74856 4.4552C3.70249 3.75527 4.59281 1.32912 4.9678 0.19606C5.02687 0.0175586 5.28735 -0.00701222 5.34882 0.160108C5.74308 1.23206 6.6899 3.52858 7.74237 4.07854C8.27801 4.35843 9.19855 4.553 10.1263 4.68639C10.3528 4.71895 10.3146 5.32255 10.0833 5.36601C9.19004 5.53382 8.29671 5.75612 7.71885 6.03837C6.55435 6.60716 5.60872 9.64649 5.21044 11.1228C5.15783 11.3178 4.86292 11.3417 4.81381 11.1546C4.4434 9.74387 3.59226 6.85848 2.72504 6.41503C2.333 6.21456 1.55665 6.12115 0.702003 6.08523C0.468987 6.07543 0.441667 5.39129 0.671575 5.32266C1.53006 5.06637 2.32118 4.76878 2.74856 4.4552Z" fill="#E0F6FB"/>
</svg>
