<svg width="13" height="12" viewBox="0 0 13 12" fill="none" xmlns="http://www.w3.org/2000/svg">
<path d="M4.11698 4.85675C5.06478 4.16132 5.94206 1.55202 6.18997 0.764216C6.21153 0.695728 6.30906 0.686407 6.33146 0.750771C6.59107 1.49694 7.51885 3.97546 8.56355 4.52136C9.34456 4.92948 11.0446 5.13387 12.1869 5.2289C12.2745 5.23619 12.2622 5.41833 12.1734 5.42979C11.0558 5.57404 9.40483 5.84528 8.5426 6.26643C7.38038 6.83411 6.46299 10.1656 6.20235 11.2031C6.18357 11.2779 6.07415 11.287 6.05633 11.2151C5.80982 10.2215 4.96193 7.04459 4.09604 6.60182C3.46452 6.27889 1.71305 6.26796 0.454998 6.30764C0.365322 6.31047 0.357552 6.11604 0.446546 6.09611C1.69168 5.81736 3.4308 5.36021 4.11698 4.85675Z" fill="#E0F6FB"/>
</svg>
