<svg width="11" height="12" viewBox="0 0 11 12" fill="none" xmlns="http://www.w3.org/2000/svg">
<path d="M2.74661 4.45446C3.70054 3.75454 4.59086 1.32839 4.96585 0.195328C5.02492 0.0168262 5.2854 -0.00774464 5.34686 0.159375C5.74113 1.23133 6.68795 3.52784 7.74042 4.0778C8.27605 4.3577 9.1966 4.55227 10.1243 4.68565C10.3509 4.71822 10.3126 5.32181 10.0813 5.36527C9.18809 5.53309 8.29476 5.75538 7.7169 6.03764C6.5524 6.60643 5.60676 9.64575 5.20849 11.1221C5.15588 11.3171 4.86097 11.341 4.81186 11.1539C4.44145 9.74314 3.59031 6.85775 2.72309 6.4143C2.33105 6.21383 1.55469 6.12042 0.70005 6.08449C0.467034 6.0747 0.439713 5.39056 0.669622 5.32192C1.5281 5.06564 2.31922 4.76805 2.74661 4.45446Z" fill="#E0F6FB"/>
</svg>
