<svg width="13" height="12" viewBox="0 0 13 12" fill="none" xmlns="http://www.w3.org/2000/svg">
<path d="M4.11796 4.85699C5.06576 4.16156 5.94304 1.55227 6.19095 0.76446C6.2125 0.695972 6.31004 0.686651 6.33243 0.751015C6.59204 1.49718 7.51983 3.97571 8.56452 4.52161C9.34554 4.92972 11.0456 5.13411 12.1879 5.22915C12.2755 5.23644 12.2632 5.41857 12.1744 5.43003C11.0568 5.57429 9.40581 5.84553 8.54358 6.26668C7.38135 6.83436 6.46397 10.1658 6.20333 11.2033C6.18454 11.2781 6.07513 11.2872 6.05731 11.2154C5.8108 10.2217 4.9629 7.04483 4.09701 6.60206C3.46549 6.27914 1.71403 6.26821 0.455974 6.30788C0.366299 6.31071 0.358529 6.11628 0.447522 6.09636C1.69266 5.81761 3.43178 5.36046 4.11796 4.85699Z" fill="#E0F6FB"/>
</svg>
