<svg width="13" height="12" viewBox="0 0 13 12" fill="none" xmlns="http://www.w3.org/2000/svg">
<path d="M4.11844 4.85723C5.06625 4.1618 5.94353 1.55251 6.19144 0.764704C6.21299 0.696216 6.31053 0.686895 6.33292 0.751259C6.59253 1.49743 7.52032 3.97595 8.56501 4.52185C9.34603 4.92996 11.0461 5.13435 12.1884 5.22939C12.276 5.23668 12.2637 5.41882 12.1749 5.43028C11.0573 5.57453 9.4063 5.84577 8.54407 6.26692C7.38184 6.8346 6.46446 10.166 6.20382 11.2036C6.18503 11.2783 6.07562 11.2874 6.0578 11.2156C5.81129 10.222 4.96339 7.04507 4.0975 6.6023C3.46598 6.27938 1.71451 6.26845 0.456462 6.30813C0.366787 6.31095 0.359017 6.11653 0.448011 6.0966C1.69315 5.81785 3.43227 5.3607 4.11844 4.85723Z" fill="#E0F6FB"/>
</svg>
