<svg width="18" height="16" viewBox="0 0 18 16" fill="none" xmlns="http://www.w3.org/2000/svg">
<path d="M5.41038 6.03306C6.7828 5.02607 8.0531 1.24782 8.41208 0.107075C8.44329 0.0079042 8.58452 -0.0055931 8.61694 0.0876061C8.99286 1.16806 10.3363 4.75696 11.849 5.54742C12.9799 6.13837 15.4416 6.43433 17.0957 6.57194C17.2225 6.58249 17.2047 6.84623 17.0761 6.86283C15.4578 7.07171 13.0672 7.46446 11.8187 8.07428C10.1358 8.89629 8.80741 13.7202 8.43 15.2225C8.4028 15.3308 8.24436 15.344 8.21857 15.24C7.86162 13.8012 6.63387 9.20105 5.38005 8.55992C4.46561 8.09233 1.92949 8.0765 0.107833 8.13395C-0.0220166 8.13804 -0.0332701 7.85651 0.0955928 7.82766C1.89855 7.42403 4.4168 6.76208 5.41038 6.03306Z" fill="#E0F6FB"/>
</svg>
