<svg width="11" height="11" viewBox="0 0 11 11" fill="none" xmlns="http://www.w3.org/2000/svg">
<path d="M3.46222 4.39445C4.27583 3.79748 5.032 1.64184 5.29895 0.813688C5.33086 0.714688 5.47324 0.701445 5.50642 0.794319C5.78659 1.57847 6.58839 3.62223 7.48547 4.09099C8.06179 4.39214 9.19121 4.57069 10.1489 4.67296C10.2752 4.68645 10.2564 4.98089 10.1279 5.00042C9.19601 5.14213 8.0977 5.36164 7.46652 5.66993C6.47061 6.15638 5.6734 8.88571 5.39146 9.97074C5.36336 10.0789 5.20332 10.092 5.17688 9.9882C4.91236 8.95006 4.18511 6.35272 3.44327 5.97339C2.99041 5.74182 1.90107 5.68757 0.901926 5.69289C0.772309 5.69359 0.759445 5.37123 0.887801 5.33903C1.87985 5.09014 2.9702 4.75545 3.46222 4.39445Z" fill="#E0F6FB"/>
</svg>
