<svg width="11" height="13" viewBox="0 0 11 13" fill="none" xmlns="http://www.w3.org/2000/svg">
<path d="M2.7803 5.39343C3.73423 4.6935 4.62455 2.26736 4.99954 1.13429C5.05861 0.955791 5.31909 0.93122 5.38056 1.09834C5.77482 2.17029 6.72164 4.46681 7.77411 5.01677C8.30974 5.29666 9.23029 5.49123 10.158 5.62462C10.3846 5.65719 10.3463 6.26078 10.115 6.30424C9.22178 6.47205 8.32845 6.69435 7.75059 6.9766C6.58609 7.5454 5.64046 10.5847 5.24218 12.0611C5.18957 12.2561 4.89466 12.2799 4.84555 12.0929C4.47514 10.6821 3.624 7.79671 2.75678 7.35326C2.36474 7.15279 1.58838 7.05939 0.733741 7.02346C0.500725 7.01366 0.473405 6.32952 0.703313 6.26089C1.5618 6.0046 2.35291 5.70702 2.7803 5.39343Z" fill="#E0F6FB"/>
</svg>
