<svg width="13" height="12" viewBox="0 0 13 12" fill="none" xmlns="http://www.w3.org/2000/svg">
<path d="M4.11747 4.85699C5.06527 4.16156 5.94255 1.55227 6.19046 0.76446C6.21201 0.695972 6.30955 0.686651 6.33194 0.751015C6.59156 1.49718 7.51934 3.97571 8.56404 4.52161C9.34505 4.92972 11.0451 5.13411 12.1874 5.22915C12.275 5.23644 12.2627 5.41857 12.1739 5.43003C11.0563 5.57429 9.40532 5.84553 8.54309 6.26668C7.38087 6.83436 6.46348 10.1658 6.20284 11.2033C6.18405 11.2781 6.07464 11.2872 6.05682 11.2154C5.81031 10.2217 4.96242 7.04483 4.09652 6.60206C3.465 6.27914 1.71354 6.26821 0.455486 6.30788C0.365811 6.31071 0.35804 6.11628 0.447034 6.09636C1.69217 5.81761 3.43129 5.36046 4.11747 4.85699Z" fill="#E0F6FB"/>
</svg>
