<svg width="11" height="11" viewBox="0 0 11 11" fill="none" xmlns="http://www.w3.org/2000/svg">
<path d="M3.6297 4.39445C4.44331 3.79748 5.19948 1.64184 5.46643 0.813688C5.49834 0.714688 5.64072 0.701445 5.6739 0.794319C5.95407 1.57847 6.75587 3.62223 7.65295 4.09099C8.22927 4.39214 9.35869 4.57069 10.3164 4.67296C10.4427 4.68645 10.4238 4.98089 10.2954 5.00042C9.36349 5.14213 8.26518 5.36164 7.634 5.66993C6.63809 6.15638 5.84088 8.88571 5.55894 9.97074C5.53084 10.0789 5.3708 10.092 5.34436 9.9882C5.07984 8.95006 4.35259 6.35272 3.61075 5.97339C3.15789 5.74182 2.06855 5.68757 1.06941 5.69289C0.93979 5.69359 0.926926 5.37123 1.05528 5.33903C2.04734 5.09014 3.13768 4.75545 3.6297 4.39445Z" fill="#E0F6FB"/>
</svg>
