<svg width="15" height="14" viewBox="0 0 15 14" fill="none" xmlns="http://www.w3.org/2000/svg">
<path d="M5.05477 5.74625C6.1537 4.93993 7.17251 1.95895 7.48889 0.962769C7.52036 0.863663 7.66134 0.850481 7.69406 0.943557C8.02571 1.88713 9.10422 4.71646 10.3156 5.34945C11.1733 5.79765 12.9679 6.03816 14.302 6.16031C14.4286 6.17191 14.4116 6.44699 14.2831 6.46463C12.9801 6.6434 11.2354 6.9527 10.2908 7.41408C8.94421 8.07183 7.87541 11.8656 7.54214 13.1751C7.5146 13.2834 7.35621 13.2964 7.33017 13.1924C7.01592 11.9386 6.03316 8.32385 5.02999 7.81088C4.34268 7.45943 2.53411 7.42033 1.09015 7.45286C0.960368 7.45579 0.948773 7.15913 1.07747 7.12912C2.50779 6.79555 4.30813 6.29408 5.05477 5.74625Z" fill="#E0F6FB"/>
</svg>
