<svg width="18" height="16" viewBox="0 0 18 16" fill="none" xmlns="http://www.w3.org/2000/svg">
<path d="M5.4094 6.03257C6.78182 5.02559 8.05212 1.24733 8.4111 0.106586C8.44231 0.00741592 8.58354 -0.00608139 8.61596 0.0871178C8.99188 1.16757 10.3353 4.75647 11.848 5.54693C12.9789 6.13788 15.4407 6.43384 17.0947 6.57145C17.2215 6.58201 17.2037 6.84574 17.0751 6.86234C15.4569 7.07122 13.0662 7.46397 11.8177 8.07379C10.1348 8.8958 8.80643 13.7197 8.42902 15.2221C8.40182 15.3303 8.24339 15.3435 8.21759 15.2395C7.86064 13.8007 6.63289 9.20056 5.37908 8.55943C4.46464 8.09184 1.92851 8.07601 0.106856 8.13346C-0.0229931 8.13755 -0.0342467 7.85602 0.0946163 7.82718C1.89757 7.42354 4.41582 6.76159 5.4094 6.03257Z" fill="#E0F6FB"/>
</svg>
