<svg width="13" height="12" viewBox="0 0 13 12" fill="none" xmlns="http://www.w3.org/2000/svg">
<path d="M4.11698 4.85626C5.06478 4.16083 5.94206 1.55154 6.18997 0.763727C6.21153 0.695239 6.30906 0.685918 6.33146 0.750282C6.59107 1.49645 7.51885 3.97498 8.56355 4.52087C9.34456 4.92899 11.0446 5.13338 12.1869 5.22841C12.2745 5.2357 12.2622 5.41784 12.1734 5.4293C11.0558 5.57356 9.40483 5.84479 8.5426 6.26594C7.38038 6.83363 6.46299 10.1651 6.20235 11.2026C6.18357 11.2774 6.07415 11.2865 6.05633 11.2147C5.80982 10.221 4.96193 7.0441 4.09604 6.60133C3.46452 6.2784 1.71305 6.26747 0.454998 6.30715C0.365322 6.30998 0.357552 6.11555 0.446546 6.09563C1.69168 5.81687 3.4308 5.35972 4.11698 4.85626Z" fill="#E0F6FB"/>
</svg>
