<svg width="9" height="9" viewBox="0 0 9 9" fill="none" xmlns="http://www.w3.org/2000/svg">
<path d="M3.02207 3.81732C3.71502 3.30889 4.36001 1.49885 4.60348 0.750328C4.63566 0.651394 4.77883 0.637845 4.8123 0.730594C5.06795 1.43903 5.7526 3.15437 6.51685 3.55373C6.97494 3.7931 7.83529 3.94329 8.61552 4.03515C8.74159 4.04999 8.72222 4.35716 8.5939 4.37804C7.83673 4.50121 7.00005 4.68121 6.50039 4.92526C5.65316 5.33909 4.97147 7.62158 4.71364 8.60097C4.68519 8.70903 4.52343 8.72234 4.49674 8.61865C4.2556 7.68204 3.63669 5.51156 3.00561 5.18886C2.65177 5.00792 1.85057 4.95161 1.06144 4.94549C0.931973 4.94448 0.918442 4.60457 1.04652 4.57073C1.83194 4.36321 2.63746 4.09952 3.02207 3.81732Z" fill="#E0F6FB"/>
</svg>
