<svg width="15" height="14" viewBox="0 0 15 14" fill="none" xmlns="http://www.w3.org/2000/svg">
<path d="M5.05428 5.74601C6.15322 4.93968 7.17202 1.95871 7.4884 0.962525C7.51987 0.863419 7.66085 0.850237 7.69357 0.943313C8.02522 1.88689 9.10374 4.71621 10.3151 5.34921C11.1728 5.7974 12.9674 6.03792 14.3015 6.16006C14.4282 6.17166 14.4111 6.44675 14.2826 6.46438C12.9796 6.64315 11.2349 6.95246 10.2903 7.41384C8.94372 8.07158 7.87492 11.8653 7.54166 13.1749C7.51411 13.2831 7.35572 13.2961 7.32968 13.1922C7.01543 11.9384 6.03267 8.3236 5.0295 7.81064C4.34219 7.45918 2.53362 7.42009 1.08966 7.45262C0.95988 7.45554 0.948284 7.15889 1.07698 7.12887C2.5073 6.79531 4.30765 6.29383 5.05428 5.74601Z" fill="#E0F6FB"/>
</svg>
