<svg width="11" height="11" viewBox="0 0 11 11" fill="none" xmlns="http://www.w3.org/2000/svg">
<path d="M3.6297 4.39396C4.44331 3.79699 5.19948 1.64135 5.46643 0.8132C5.49834 0.7142 5.64072 0.700958 5.6739 0.793831C5.95407 1.57798 6.75587 3.62174 7.65295 4.0905C8.22927 4.39166 9.35869 4.5702 10.3164 4.67247C10.4427 4.68596 10.4238 4.98041 10.2954 4.99993C9.36349 5.14164 8.26518 5.36115 7.634 5.66944C6.63809 6.15589 5.84088 8.88522 5.55894 9.97025C5.53084 10.0784 5.3708 10.0915 5.34436 9.98771C5.07984 8.94957 4.35259 6.35224 3.61075 5.9729C3.15789 5.74133 2.06855 5.68708 1.06941 5.69241C0.939789 5.6931 0.926925 5.37074 1.05528 5.33854C2.04733 5.08965 3.13768 4.75496 3.6297 4.39396Z" fill="#E0F6FB"/>
</svg>
