<svg width="9" height="9" viewBox="0 0 9 9" fill="none" xmlns="http://www.w3.org/2000/svg">
<path d="M3.02207 3.81708C3.71502 3.30864 4.36001 1.49861 4.60348 0.750084C4.63566 0.65115 4.77883 0.637601 4.8123 0.73035C5.06795 1.43878 5.7526 3.15413 6.51685 3.55348C6.97494 3.79285 7.83529 3.94305 8.61552 4.0349C8.74159 4.04974 8.72222 4.35692 8.5939 4.37779C7.83673 4.50096 7.00005 4.68096 6.50039 4.92502C5.65316 5.33885 4.97147 7.62133 4.71364 8.60073C4.68519 8.70879 4.52343 8.7221 4.49674 8.6184C4.2556 7.68179 3.63669 5.51131 3.00561 5.18862C2.65177 5.00768 1.85057 4.95137 1.06144 4.94524C0.931973 4.94424 0.918442 4.60432 1.04652 4.57048C1.83194 4.36297 2.63746 4.09928 3.02207 3.81708Z" fill="#E0F6FB"/>
</svg>
