<svg width="9" height="9" viewBox="0 0 9 9" fill="none" xmlns="http://www.w3.org/2000/svg">
<path d="M3.02159 3.81683C3.71453 3.3084 4.35952 1.49836 4.60299 0.749839C4.63517 0.650905 4.77835 0.637357 4.81182 0.730105C5.06746 1.43854 5.75211 3.15388 6.51636 3.55324C6.97445 3.79261 7.8348 3.94281 8.61503 4.03466C8.7411 4.0495 8.72173 4.35667 8.59341 4.37755C7.83624 4.50072 6.99956 4.68072 6.4999 4.92478C5.65267 5.3386 4.97098 7.62109 4.71315 8.60048C4.6847 8.70854 4.52294 8.72185 4.49625 8.61816C4.25511 7.68155 3.6362 5.51107 3.00513 5.18837C2.65128 5.00744 1.85008 4.95112 1.06095 4.945C0.931485 4.944 0.917954 4.60408 1.04603 4.57024C1.83145 4.36272 2.63697 4.09904 3.02159 3.81683Z" fill="#E0F6FB"/>
</svg>
