<svg width="291" height="269" viewBox="0 0 291 269" fill="none" xmlns="http://www.w3.org/2000/svg">
<path d="M105.477 125.589L105.519 125.591L105.561 125.591C108.202 125.619 111.04 125.626 114.02 125.634C127.609 125.667 144.143 125.708 158.321 127.776C166.97 129.038 174.449 131.021 179.737 134.04C184.939 137.009 187.723 140.775 187.856 145.735C187.95 149.22 186.046 152.481 181.692 155.505C177.309 158.551 170.777 161.089 162.561 163.027C146.169 166.893 123.874 168.187 100.896 167.001C80.8728 165.967 62.7982 163.218 49.3567 158.965C42.6304 156.837 37.1845 154.369 33.2541 151.636C29.3052 148.891 27.1342 146.056 26.4435 143.258C25.9912 141.426 26.7179 139.278 30.1803 136.798C33.6309 134.328 39.1883 132.046 46.5599 130.181C61.2365 126.467 82.2346 124.616 105.477 125.589Z" fill="#523323" stroke="#986954" stroke-width="5.3432"/>
<path d="M146.635 153.964C150.138 154.736 177.526 147.173 169.352 151.547C161.179 155.921 151.308 184.367 151.308 184.367C108.272 219.411 66.1786 196.753 51.628 182.167C48.5865 174.221 38.961 154.172 24.7912 137.536C10.6215 120.9 34.4869 116.738 40.3239 124.796C46.1609 132.854 42.6899 139.346 47.7907 141.395C52.8914 143.444 63.0261 138.65 51.475 128.819C39.924 118.989 57.1755 106.19 59.7568 126.738C60.5665 133.182 60.9181 137.298 64.3597 142.981C68.6617 150.086 106.766 172.609 134.552 155.414C137.108 153.832 139.125 152.482 140.696 151.337C140.675 150.647 141.001 149.74 141.802 148.571C134.643 147.559 146.325 143.583 145.523 146.575C145.717 147.139 145.815 147.937 145.882 148.805C155.47 149.099 150.923 152.126 146.243 152.989C146.334 153.423 146.459 153.765 146.635 153.964Z" fill="white"/>
<path d="M104.654 222.232C65.7905 220.185 64.5242 205.735 68.749 198.766C93.9095 198.69 144.806 199.052 147.107 201.11C149.984 203.683 153.234 224.79 104.654 222.232Z" fill="#593827"/>
<path d="M71.2352 205.681C45.9334 187.754 34.0815 159.616 34.5014 150.58C61.0849 173.297 144.077 174.203 184.336 152.514C179.182 175.952 160.73 197.881 147.729 204.886C132.774 212.621 96.537 223.607 71.2352 205.681Z" fill="url(#paint0_linear_1906_14326)"/>
<path d="M184.568 154.031C126.937 133.407 48.9215 145.224 34.4253 152.221C41.3835 163.533 91.492 164.222 115.5 165C176.781 162.318 187.315 158.404 184.568 154.031Z" fill="url(#paint1_radial_1906_14326)"/>
<path d="M126.66 153.398C124.554 156.898 118.778 160.44 116.219 156.888C116.081 155.136 115.906 155.031 116.395 155.802C117.165 156.504 122.174 155.704 124.56 152.135L126.66 153.398Z" fill="#1B1B1B"/>
<ellipse cx="125.609" cy="152.766" rx="1.22533" ry="0.408442" transform="rotate(31.0331 125.609 152.766)" fill="#393939"/>
<path d="M115.341 157.552C113.134 154.487 114.927 150.54 116.474 147.747L118.574 149.01C117.311 151.11 115.998 153.624 116.605 155.452C117.692 158.728 121.19 157.734 122.7 154.829L124.8 156.092C122.694 159.592 117.901 161.104 115.341 157.552Z" fill="url(#paint2_linear_1906_14326)"/>
<path d="M112.199 148.512C110.094 152.012 111.003 156.955 115.34 157.552C116.952 156.853 115.973 155.311 115.063 155.24C114.083 154.889 112.263 153.556 114.299 149.776L112.199 148.512Z" fill="#1B1B1B"/>
<ellipse cx="1.22533" cy="0.408442" rx="1.22533" ry="0.408442" transform="matrix(-0.856869 -0.515534 -0.515534 0.856869 114.511 149.425)" fill="#393939"/>
<ellipse cx="1.22533" cy="0.408442" rx="1.22533" ry="0.408442" transform="matrix(-0.856869 -0.515534 -0.515534 0.856869 118.785 148.66)" fill="#393939"/>
<g filter="url(#filter0_ii_1906_14326)">
<path d="M136.303 126.399C136.563 126.085 135.619 125.304 135.359 125.618L117.399 147.337L116.973 148.047C116.847 148.256 117.906 148.846 118.011 148.671L118.344 148.118L136.303 126.399Z" fill="#DEDEDE"/>
</g>
<g filter="url(#filter1_iii_1906_14326)">
<path d="M112.899 148.262L126.268 129.091C129.039 125.277 129.461 124.577 131.876 125.315C132.078 125.377 132.59 125.579 133.031 125.772L132.442 126.752C132.075 126.593 131.51 126.379 131.07 126.26C129.634 125.873 128.44 128.253 127.634 129.198L113.905 148.963L113.651 149.385C113.545 149.56 112.519 148.895 112.603 148.755L112.899 148.262Z" fill="#808080"/>
</g>
<g filter="url(#filter2_iii_1906_14326)">
<path d="M126.52 152.837C130.556 145.732 134.72 137.989 136.453 134.742C138.654 130.62 140.208 128.898 137.862 128.201L136.741 128.48L135.983 129.741L136.6 129.349C137.776 130.008 138.035 129.253 135.614 133.761C131.647 141.146 131.226 141.846 125.43 152.277L125.176 152.7C125.071 152.875 126.139 153.47 126.223 153.33L126.52 152.837Z" fill="#808080"/>
</g>
<path d="M136.271 120.389C138.646 120.773 139.705 121.442 141.171 123.337L136.475 131.142C136.037 131.87 131.137 128.922 131.575 128.194L136.271 120.389Z" fill="url(#paint3_linear_1906_14326)"/>
<ellipse cx="138.746" cy="121.821" rx="2.85909" ry="0.612663" transform="rotate(31.0331 138.746 121.821)" fill="#A3A3A3"/>
<g filter="url(#filter3_ii_1906_14326)">
<path d="M148.75 102.816L150.85 104.079L139.795 122.453C139.69 122.628 137.59 121.365 137.695 121.19L148.75 102.816Z" fill="#D9D9D9"/>
</g>
<circle cx="134.92" cy="128.576" r="1.02111" transform="rotate(31.0331 134.92 128.576)" fill="#656565"/>
<ellipse cx="123.75" cy="155.461" rx="1.22533" ry="0.408442" transform="rotate(31.0331 123.75 155.461)" fill="#393939"/>
<g filter="url(#filter4_ii_1906_14326)">
<path d="M134.289 128.524C134.445 128.147 135.577 128.616 135.421 128.993L124.646 155.034L124.219 155.743C124.093 155.952 123.075 155.294 123.181 155.119L123.513 154.566L134.289 128.524Z" fill="#8A8A8A"/>
</g>
<path d="M117.442 153.095C115.336 156.595 114.912 163.358 119.25 163.955C120.862 163.256 121.037 163.361 120.126 163.29C119.146 162.939 117.506 158.139 119.541 154.359L117.442 153.095Z" fill="#1B1B1B"/>
<ellipse cx="1.22533" cy="0.408442" rx="1.22533" ry="0.408442" transform="matrix(-0.856869 -0.515534 -0.515534 0.856869 119.752 154.008)" fill="#393939"/>
<path d="M119.073 165.04C122.815 165.555 125.462 162.121 127.205 159.446L125.105 158.183C123.842 160.283 122.236 162.62 120.336 162.94C116.932 163.514 116.172 159.958 118.032 157.264L115.932 156C113.826 159.5 114.736 164.444 119.073 165.04Z" fill="url(#paint4_linear_1906_14326)"/>
<path d="M128.531 163.581C126.425 167.08 121.632 168.592 119.073 165.04C118.935 163.289 120.756 163.431 121.245 164.202C122.015 164.904 124.045 165.887 126.431 162.317L128.531 163.581Z" fill="#1B1B1B"/>
<ellipse cx="127.48" cy="162.949" rx="1.22533" ry="0.408442" transform="rotate(31.0331 127.48 162.949)" fill="#393939"/>
<ellipse cx="126.156" cy="158.815" rx="1.22533" ry="0.408442" transform="rotate(31.0331 126.156 158.815)" fill="#393939"/>
<g filter="url(#filter5_ii_1906_14326)">
<path d="M136.776 131.927C136.932 131.55 138.065 132.019 137.909 132.396L127.133 158.437L126.707 159.146C126.581 159.355 125.563 158.697 125.668 158.522L126.001 157.969L136.776 131.927Z" fill="#DEDEDE"/>
</g>
<g filter="url(#filter6_iii_1906_14326)">
<path d="M128.425 162.846L139.1 142.054C141.171 137.819 141.592 137.119 139.808 135.33C139.66 135.181 139.24 134.824 138.863 134.524L138.274 135.503C138.586 135.753 139.04 136.152 139.351 136.486C140.366 137.572 138.822 139.742 138.365 140.897L127.335 162.286L127.081 162.708C126.975 162.883 128.044 163.478 128.128 163.338L128.425 162.846Z" fill="#808080"/>
</g>
<g filter="url(#filter7_iii_1906_14326)">
<path d="M118.002 152.956C122.388 146.062 127.279 138.756 129.336 135.703C131.946 131.828 132.74 129.648 134.454 131.394L134.733 132.515L133.974 133.776L134.032 133.047C132.899 132.316 133.444 131.734 130.596 135.985C125.929 142.949 125.508 143.649 119.007 153.657L118.753 154.079C118.648 154.254 117.621 153.589 117.706 153.449L118.002 152.956Z" fill="#808080"/>
</g>
<path d="M142.102 129.141C140.65 127.223 139.564 126.6 137.202 126.193L132.507 133.998C132.068 134.726 136.968 137.674 137.406 136.945L142.102 129.141Z" fill="url(#paint5_linear_1906_14326)"/>
<ellipse cx="2.85909" cy="0.612663" rx="2.85909" ry="0.612663" transform="matrix(-0.856869 -0.515534 -0.515534 0.856869 142.443 128.574)" fill="#A3A3A3"/>
<g filter="url(#filter8_ii_1906_14326)">
<path d="M151.782 109.883L149.682 108.619L138.628 126.993C138.522 127.168 140.622 128.432 140.728 128.257L151.782 109.883Z" fill="#D9D9D9"/>
</g>
<circle cx="1.02111" cy="1.02111" r="1.02111" transform="matrix(-0.856869 -0.515534 -0.515534 0.856869 136.903 133.821)" fill="#656565"/>
<ellipse cx="1.22533" cy="0.408442" rx="1.22533" ry="0.408442" transform="matrix(-0.856869 -0.515534 -0.515534 0.856869 118.242 156.914)" fill="#393939"/>
<g filter="url(#filter9_ii_1906_14326)">
<path d="M135.842 134.702C136.102 134.388 135.158 133.607 134.898 133.922L116.938 155.64L116.512 156.35C116.386 156.559 117.445 157.149 117.55 156.974L117.883 156.421L135.842 134.702Z" fill="#8A8A8A"/>
</g>
<path d="M161.019 117.109C163.154 117.355 165.294 115.153 166.031 113.928L141.121 91.5523C139.121 94.8772 137.507 101.097 137.361 102.16C137.149 103.701 158.568 116.826 161.019 117.109Z" fill="#AC0C17"/>
<rect width="8.16884" height="2.45065" transform="matrix(-0.856869 -0.515534 -0.515534 0.856869 202.348 58.3192)" fill="#313131"/>
<path d="M143.408 83.3948L147.407 77.936L151.256 81.443L146.273 88.932L143.408 83.3948Z" fill="#383838"/>
<path fill-rule="evenodd" clip-rule="evenodd" d="M238.999 96.6822C235.604 104.967 230.098 118.925 230.173 126.407C230.411 131.555 223.779 142.58 222.656 144.049C221.933 144.937 221.453 144.922 221.146 144.913C221.065 144.911 220.997 144.908 220.939 144.923C220.715 144.979 218.206 145.9 216.98 146.354C216.793 146.401 216.349 146.451 216.069 146.283L158.497 111.645C158.312 110.501 157.241 107.791 154.441 106.106C150.941 104.001 139.077 96.3861 138.695 94.2492C138.684 94.2061 138.67 94.154 138.654 94.094C138.463 93.3735 137.965 91.5003 138.84 90.0465L142.946 83.2219C143.11 83.082 143.451 82.8582 143.506 83.0825C143.576 83.3627 145.848 87.113 146.689 86.9039C147.53 86.6948 150.128 81.5845 149.044 80.2172C148.648 79.7184 148.257 79.3175 147.927 78.9789C147.352 78.3893 146.961 77.9884 147.05 77.588C147.191 76.9578 156.062 68.9481 158.481 67.3049C160.416 65.9904 166.794 56.6561 169.742 52.1533C171.005 50.0534 178.806 46.3574 185.47 50.176C192.133 53.9946 205.745 62.2954 211.718 65.9684C219.593 70.7062 241.542 90.4797 238.999 96.6822ZM226.085 95.7184L216.688 104.603C215.963 105.279 214.031 106.484 212.098 105.893C210.166 105.303 194.259 96.5904 186.688 92.2733C184.786 90.8117 181.805 86.5236 182.706 83.4426C183.831 79.5913 187.448 71.9956 188.922 69.5458C191.133 65.8709 195.473 67.7673 196.101 70.2898C196.728 72.8123 219.756 87.6204 223.43 89.8313C227.272 92.1428 228.47 93.3396 226.085 95.7184Z" fill="#AC0C17"/>
<path fill-rule="evenodd" clip-rule="evenodd" d="M230.459 98.3504C226.986 102.934 224.8 105.442 219.449 109.124C218.134 110.029 214.878 111.003 212.581 110.387C210.284 109.77 192.836 99.7864 184.128 94.5468C180.278 92.2306 178.047 88.0782 179.372 84.0278C181.029 78.9648 185.989 68.8729 187.962 65.5945C190.367 61.5971 192.364 60.6539 196.564 63.1806C215.638 74.6565 224.524 83.8505 227.916 87.525C228.024 87.6429 228.132 87.7596 228.239 87.8751C231.533 91.4353 233.823 93.9106 230.459 98.3504ZM226.084 95.7182L216.687 104.603C215.963 105.279 214.03 106.484 212.098 105.893C210.165 105.303 194.889 96.7311 187.317 92.414C184.833 90.9975 181.805 86.5234 182.705 83.4424C183.83 79.5912 187.447 71.9955 188.921 69.5456C191.132 65.8708 194.298 67.7755 195.784 70.8149C197.489 74.3024 217.119 86.0527 222.556 89.3075C222.91 89.5197 223.205 89.6958 223.43 89.8312C227.271 92.1426 228.469 93.3395 226.084 95.7182Z" fill="#871920"/>
<path d="M215.209 139.938C215.358 139.691 216.023 133.04 211.648 130.408C186.841 114.649 164.077 102.289 147.885 89.4229C144.176 86.4761 143.409 84.5833 143.163 84.1982C142.703 83.4764 142.867 83.3524 142.736 83.5706L138.841 90.0452C138.46 98.4807 189.595 126.822 215.209 139.938Z" fill="#E7E7E7"/>
<path d="M220.939 144.923C221.22 144.853 221.745 145.169 222.657 144.049C189.299 123.98 140.592 95.9998 138.84 90.0463C138.594 90.4555 138.457 90.898 138.39 91.3387C138.202 92.5938 138.592 93.8341 138.695 94.249C139.078 96.3859 150.942 104 154.441 106.106C157.241 107.791 158.312 110.5 158.497 111.645L216.069 146.283C216.349 146.451 216.793 146.4 216.98 146.354C218.206 145.9 220.715 144.978 220.939 144.923Z" fill="#CD232E"/>
<path d="M187.86 49.1256L185.965 52.2754L179.174 48.905L180.543 46.6301C182.118 47.5776 186.424 48.7386 187.86 49.1256Z" fill="url(#paint6_linear_1906_14326)"/>
<path d="M204.132 60.1077L205.185 58.3578C203.085 57.0944 203.099 55.3549 203.368 54.6431L200.219 52.748C198.844 54.3994 195.397 53.104 193.845 52.2499L193.003 53.6498C194.57 55.1648 201.892 59.4745 204.132 60.1077Z" fill="url(#paint7_linear_1906_14326)"/>
<path d="M186.806 148.041C186.921 150.633 185.405 153.296 181.353 155.931C177.312 158.559 171.231 160.807 163.504 162.553C148.108 166.032 126.964 167.35 104.663 166.319C74.5792 163.818 53.4443 159.943 40.6853 154.968C34.272 152.467 30.3197 149.816 28.3097 147.229C27.3353 145.974 26.8423 144.768 26.6976 143.594C26.5525 142.417 26.7369 141.104 27.3749 139.609C28.1598 137.77 30.6398 135.403 35.379 132.937C39.9865 130.54 46.2726 128.283 53.9034 126.402C69.1382 122.647 89.4111 120.467 111.621 121.492C134.621 123.538 153.495 125.614 166.728 129.685C173.336 131.718 178.291 134.179 181.615 137.186C184.855 140.116 186.609 143.613 186.806 148.041Z" stroke="url(#paint8_linear_1906_14326)" stroke-width="5.34321"/>
<path d="M85.7354 66.9631C92.3837 52.9924 98.1781 48.3476 112.319 46.1797" stroke="#555555" stroke-width="2"/>
<path d="M215.269 173.392C230.74 173.201 237.383 169.883 245.271 157.948" stroke="#555555" stroke-width="2"/>
<path d="M95.4019 68.4132C100.962 57.3666 105.809 53.6939 117.635 51.9797" stroke="#555555" stroke-width="2"/>
<path d="M217.998 164.006C230.358 163.579 235.722 160.715 242.228 150.691" stroke="#555555" stroke-width="2"/>
<defs>
<filter id="filter0_ii_1906_14326" x="116.462" y="124.545" width="20.8857" height="25.158" filterUnits="userSpaceOnUse" color-interpolation-filters="sRGB">
<feFlood flood-opacity="0" result="BackgroundImageFix"/>
<feBlend mode="normal" in="SourceGraphic" in2="BackgroundImageFix" result="shape"/>
<feColorMatrix in="SourceAlpha" type="matrix" values="0 0 0 0 0 0 0 0 0 0 0 0 0 0 0 0 0 0 127 0" result="hardAlpha"/>
<feOffset dx="1" dy="-2"/>
<feGaussianBlur stdDeviation="0.5"/>
<feComposite in2="hardAlpha" operator="arithmetic" k2="-1" k3="1"/>
<feColorMatrix type="matrix" values="0 0 0 0 0.848486 0 0 0 0 0.848486 0 0 0 0 0.848486 0 0 0 1 0"/>
<feBlend mode="normal" in2="shape" result="effect1_innerShadow_1906_14326"/>
<feColorMatrix in="SourceAlpha" type="matrix" values="0 0 0 0 0 0 0 0 0 0 0 0 0 0 0 0 0 0 127 0" result="hardAlpha"/>
<feOffset dx="-0.5" dy="2"/>
<feGaussianBlur stdDeviation="0.5"/>
<feComposite in2="hardAlpha" operator="arithmetic" k2="-1" k3="1"/>
<feColorMatrix type="matrix" values="0 0 0 0 0.721549 0 0 0 0 0.721549 0 0 0 0 0.721549 0 0 0 1 0"/>
<feBlend mode="normal" in2="effect1_innerShadow_1906_14326" result="effect2_innerShadow_1906_14326"/>
</filter>
<filter id="filter1_iii_1906_14326" x="111.598" y="123.054" width="22.4331" height="27.3597" filterUnits="userSpaceOnUse" color-interpolation-filters="sRGB">
<feFlood flood-opacity="0" result="BackgroundImageFix"/>
<feBlend mode="normal" in="SourceGraphic" in2="BackgroundImageFix" result="shape"/>
<feColorMatrix in="SourceAlpha" type="matrix" values="0 0 0 0 0 0 0 0 0 0 0 0 0 0 0 0 0 0 127 0" result="hardAlpha"/>
<feOffset dx="1" dy="-1"/>
<feGaussianBlur stdDeviation="0.5"/>
<feComposite in2="hardAlpha" operator="arithmetic" k2="-1" k3="1"/>
<feColorMatrix type="matrix" values="0 0 0 0 0.858057 0 0 0 0 0.858057 0 0 0 0 0.858057 0 0 0 1 0"/>
<feBlend mode="normal" in2="shape" result="effect1_innerShadow_1906_14326"/>
<feColorMatrix in="SourceAlpha" type="matrix" values="0 0 0 0 0 0 0 0 0 0 0 0 0 0 0 0 0 0 127 0" result="hardAlpha"/>
<feOffset dx="-1" dy="1"/>
<feGaussianBlur stdDeviation="0.5"/>
<feComposite in2="hardAlpha" operator="arithmetic" k2="-1" k3="1"/>
<feColorMatrix type="matrix" values="0 0 0 0 0.716162 0 0 0 0 0.716162 0 0 0 0 0.716162 0 0 0 1 0"/>
<feBlend mode="normal" in2="effect1_innerShadow_1906_14326" result="effect2_innerShadow_1906_14326"/>
<feColorMatrix in="SourceAlpha" type="matrix" values="0 0 0 0 0 0 0 0 0 0 0 0 0 0 0 0 0 0 127 0" result="hardAlpha"/>
<feOffset dy="-2"/>
<feGaussianBlur stdDeviation="1"/>
<feComposite in2="hardAlpha" operator="arithmetic" k2="-1" k3="1"/>
<feColorMatrix type="matrix" values="0 0 0 0 0.862402 0 0 0 0 0.862402 0 0 0 0 0.862402 0 0 0 1 0"/>
<feBlend mode="normal" in2="effect2_innerShadow_1906_14326" result="effect3_innerShadow_1906_14326"/>
</filter>
<filter id="filter2_iii_1906_14326" x="124.168" y="126.201" width="15.8633" height="28.1497" filterUnits="userSpaceOnUse" color-interpolation-filters="sRGB">
<feFlood flood-opacity="0" result="BackgroundImageFix"/>
<feBlend mode="normal" in="SourceGraphic" in2="BackgroundImageFix" result="shape"/>
<feColorMatrix in="SourceAlpha" type="matrix" values="0 0 0 0 0 0 0 0 0 0 0 0 0 0 0 0 0 0 127 0" result="hardAlpha"/>
<feOffset dx="1" dy="-1"/>
<feGaussianBlur stdDeviation="0.5"/>
<feComposite in2="hardAlpha" operator="arithmetic" k2="-1" k3="1"/>
<feColorMatrix type="matrix" values="0 0 0 0 0.735742 0 0 0 0 0.735742 0 0 0 0 0.735742 0 0 0 1 0"/>
<feBlend mode="normal" in2="shape" result="effect1_innerShadow_1906_14326"/>
<feColorMatrix in="SourceAlpha" type="matrix" values="0 0 0 0 0 0 0 0 0 0 0 0 0 0 0 0 0 0 127 0" result="hardAlpha"/>
<feOffset dx="-1" dy="1"/>
<feGaussianBlur stdDeviation="0.5"/>
<feComposite in2="hardAlpha" operator="arithmetic" k2="-1" k3="1"/>
<feColorMatrix type="matrix" values="0 0 0 0 0.716162 0 0 0 0 0.716162 0 0 0 0 0.716162 0 0 0 1 0"/>
<feBlend mode="normal" in2="effect1_innerShadow_1906_14326" result="effect2_innerShadow_1906_14326"/>
<feColorMatrix in="SourceAlpha" type="matrix" values="0 0 0 0 0 0 0 0 0 0 0 0 0 0 0 0 0 0 127 0" result="hardAlpha"/>
<feOffset dy="-2"/>
<feGaussianBlur stdDeviation="1"/>
<feComposite in2="hardAlpha" operator="arithmetic" k2="-1" k3="1"/>
<feColorMatrix type="matrix" values="0 0 0 0 0.652588 0 0 0 0 0.652588 0 0 0 0 0.652588 0 0 0 1 0"/>
<feBlend mode="normal" in2="effect2_innerShadow_1906_14326" result="effect3_innerShadow_1906_14326"/>
</filter>
<filter id="filter3_ii_1906_14326" x="135.691" y="102.816" width="17.1587" height="19.654" filterUnits="userSpaceOnUse" color-interpolation-filters="sRGB">
<feFlood flood-opacity="0" result="BackgroundImageFix"/>
<feBlend mode="normal" in="SourceGraphic" in2="BackgroundImageFix" result="shape"/>
<feColorMatrix in="SourceAlpha" type="matrix" values="0 0 0 0 0 0 0 0 0 0 0 0 0 0 0 0 0 0 127 0" result="hardAlpha"/>
<feOffset dx="-2"/>
<feGaussianBlur stdDeviation="1"/>
<feComposite in2="hardAlpha" operator="arithmetic" k2="-1" k3="1"/>
<feColorMatrix type="matrix" values="0 0 0 0 0.609635 0 0 0 0 0.609635 0 0 0 0 0.609635 0 0 0 1 0"/>
<feBlend mode="normal" in2="shape" result="effect1_innerShadow_1906_14326"/>
<feColorMatrix in="SourceAlpha" type="matrix" values="0 0 0 0 0 0 0 0 0 0 0 0 0 0 0 0 0 0 127 0" result="hardAlpha"/>
<feOffset dx="2"/>
<feGaussianBlur stdDeviation="2"/>
<feComposite in2="hardAlpha" operator="arithmetic" k2="-1" k3="1"/>
<feColorMatrix type="matrix" values="0 0 0 0 0.413037 0 0 0 0 0.413037 0 0 0 0 0.413037 0 0 0 1 0"/>
<feBlend mode="normal" in2="effect1_innerShadow_1906_14326" result="effect2_innerShadow_1906_14326"/>
</filter>
<filter id="filter4_ii_1906_14326" x="122.673" y="127.385" width="13.7627" height="29.3987" filterUnits="userSpaceOnUse" color-interpolation-filters="sRGB">
<feFlood flood-opacity="0" result="BackgroundImageFix"/>
<feBlend mode="normal" in="SourceGraphic" in2="BackgroundImageFix" result="shape"/>
<feColorMatrix in="SourceAlpha" type="matrix" values="0 0 0 0 0 0 0 0 0 0 0 0 0 0 0 0 0 0 127 0" result="hardAlpha"/>
<feOffset dx="1" dy="-2"/>
<feGaussianBlur stdDeviation="0.5"/>
<feComposite in2="hardAlpha" operator="arithmetic" k2="-1" k3="1"/>
<feColorMatrix type="matrix" values="0 0 0 0 0.858057 0 0 0 0 0.858057 0 0 0 0 0.858057 0 0 0 1 0"/>
<feBlend mode="normal" in2="shape" result="effect1_innerShadow_1906_14326"/>
<feColorMatrix in="SourceAlpha" type="matrix" values="0 0 0 0 0 0 0 0 0 0 0 0 0 0 0 0 0 0 127 0" result="hardAlpha"/>
<feOffset dx="-0.5" dy="2"/>
<feGaussianBlur stdDeviation="0.5"/>
<feComposite in2="hardAlpha" operator="arithmetic" k2="-1" k3="1"/>
<feColorMatrix type="matrix" values="0 0 0 0 0.854915 0 0 0 0 0.854915 0 0 0 0 0.854915 0 0 0 1 0"/>
<feBlend mode="normal" in2="effect1_innerShadow_1906_14326" result="effect2_innerShadow_1906_14326"/>
</filter>
<filter id="filter5_ii_1906_14326" x="125.161" y="130.788" width="13.7627" height="29.3987" filterUnits="userSpaceOnUse" color-interpolation-filters="sRGB">
<feFlood flood-opacity="0" result="BackgroundImageFix"/>
<feBlend mode="normal" in="SourceGraphic" in2="BackgroundImageFix" result="shape"/>
<feColorMatrix in="SourceAlpha" type="matrix" values="0 0 0 0 0 0 0 0 0 0 0 0 0 0 0 0 0 0 127 0" result="hardAlpha"/>
<feOffset dx="1" dy="-2"/>
<feGaussianBlur stdDeviation="0.5"/>
<feComposite in2="hardAlpha" operator="arithmetic" k2="-1" k3="1"/>
<feColorMatrix type="matrix" values="0 0 0 0 0.602051 0 0 0 0 0.602051 0 0 0 0 0.602051 0 0 0 1 0"/>
<feBlend mode="normal" in2="shape" result="effect1_innerShadow_1906_14326"/>
<feColorMatrix in="SourceAlpha" type="matrix" values="0 0 0 0 0 0 0 0 0 0 0 0 0 0 0 0 0 0 127 0" result="hardAlpha"/>
<feOffset dx="-0.5" dy="2"/>
<feGaussianBlur stdDeviation="0.5"/>
<feComposite in2="hardAlpha" operator="arithmetic" k2="-1" k3="1"/>
<feColorMatrix type="matrix" values="0 0 0 0 0.617773 0 0 0 0 0.617773 0 0 0 0 0.617773 0 0 0 1 0"/>
<feBlend mode="normal" in2="effect1_innerShadow_1906_14326" result="effect2_innerShadow_1906_14326"/>
</filter>
<filter id="filter6_iii_1906_14326" x="126.074" y="132.524" width="15.8569" height="31.8358" filterUnits="userSpaceOnUse" color-interpolation-filters="sRGB">
<feFlood flood-opacity="0" result="BackgroundImageFix"/>
<feBlend mode="normal" in="SourceGraphic" in2="BackgroundImageFix" result="shape"/>
<feColorMatrix in="SourceAlpha" type="matrix" values="0 0 0 0 0 0 0 0 0 0 0 0 0 0 0 0 0 0 127 0" result="hardAlpha"/>
<feOffset dx="1" dy="-1"/>
<feGaussianBlur stdDeviation="0.5"/>
<feComposite in2="hardAlpha" operator="arithmetic" k2="-1" k3="1"/>
<feColorMatrix type="matrix" values="0 0 0 0 0.858057 0 0 0 0 0.858057 0 0 0 0 0.858057 0 0 0 1 0"/>
<feBlend mode="normal" in2="shape" result="effect1_innerShadow_1906_14326"/>
<feColorMatrix in="SourceAlpha" type="matrix" values="0 0 0 0 0 0 0 0 0 0 0 0 0 0 0 0 0 0 127 0" result="hardAlpha"/>
<feOffset dx="-1" dy="1"/>
<feGaussianBlur stdDeviation="0.5"/>
<feComposite in2="hardAlpha" operator="arithmetic" k2="-1" k3="1"/>
<feColorMatrix type="matrix" values="0 0 0 0 0.716162 0 0 0 0 0.716162 0 0 0 0 0.716162 0 0 0 1 0"/>
<feBlend mode="normal" in2="effect1_innerShadow_1906_14326" result="effect2_innerShadow_1906_14326"/>
<feColorMatrix in="SourceAlpha" type="matrix" values="0 0 0 0 0 0 0 0 0 0 0 0 0 0 0 0 0 0 127 0" result="hardAlpha"/>
<feOffset dy="-2"/>
<feGaussianBlur stdDeviation="1"/>
<feComposite in2="hardAlpha" operator="arithmetic" k2="-1" k3="1"/>
<feColorMatrix type="matrix" values="0 0 0 0 0.862402 0 0 0 0 0.862402 0 0 0 0 0.862402 0 0 0 1 0"/>
<feBlend mode="normal" in2="effect2_innerShadow_1906_14326" result="effect3_innerShadow_1906_14326"/>
</filter>
<filter id="filter7_iii_1906_14326" x="116.701" y="128.784" width="19.0322" height="26.3234" filterUnits="userSpaceOnUse" color-interpolation-filters="sRGB">
<feFlood flood-opacity="0" result="BackgroundImageFix"/>
<feBlend mode="normal" in="SourceGraphic" in2="BackgroundImageFix" result="shape"/>
<feColorMatrix in="SourceAlpha" type="matrix" values="0 0 0 0 0 0 0 0 0 0 0 0 0 0 0 0 0 0 127 0" result="hardAlpha"/>
<feOffset dx="1" dy="-1"/>
<feGaussianBlur stdDeviation="0.5"/>
<feComposite in2="hardAlpha" operator="arithmetic" k2="-1" k3="1"/>
<feColorMatrix type="matrix" values="0 0 0 0 0.735742 0 0 0 0 0.735742 0 0 0 0 0.735742 0 0 0 1 0"/>
<feBlend mode="normal" in2="shape" result="effect1_innerShadow_1906_14326"/>
<feColorMatrix in="SourceAlpha" type="matrix" values="0 0 0 0 0 0 0 0 0 0 0 0 0 0 0 0 0 0 127 0" result="hardAlpha"/>
<feOffset dx="-1" dy="1"/>
<feGaussianBlur stdDeviation="0.5"/>
<feComposite in2="hardAlpha" operator="arithmetic" k2="-1" k3="1"/>
<feColorMatrix type="matrix" values="0 0 0 0 0.716162 0 0 0 0 0.716162 0 0 0 0 0.716162 0 0 0 1 0"/>
<feBlend mode="normal" in2="effect1_innerShadow_1906_14326" result="effect2_innerShadow_1906_14326"/>
<feColorMatrix in="SourceAlpha" type="matrix" values="0 0 0 0 0 0 0 0 0 0 0 0 0 0 0 0 0 0 127 0" result="hardAlpha"/>
<feOffset dy="-2"/>
<feGaussianBlur stdDeviation="1"/>
<feComposite in2="hardAlpha" operator="arithmetic" k2="-1" k3="1"/>
<feColorMatrix type="matrix" values="0 0 0 0 0.652588 0 0 0 0 0.652588 0 0 0 0 0.652588 0 0 0 1 0"/>
<feBlend mode="normal" in2="effect2_innerShadow_1906_14326" result="effect3_innerShadow_1906_14326"/>
</filter>
<filter id="filter8_ii_1906_14326" x="136.624" y="108.619" width="17.1582" height="19.654" filterUnits="userSpaceOnUse" color-interpolation-filters="sRGB">
<feFlood flood-opacity="0" result="BackgroundImageFix"/>
<feBlend mode="normal" in="SourceGraphic" in2="BackgroundImageFix" result="shape"/>
<feColorMatrix in="SourceAlpha" type="matrix" values="0 0 0 0 0 0 0 0 0 0 0 0 0 0 0 0 0 0 127 0" result="hardAlpha"/>
<feOffset dx="-2"/>
<feGaussianBlur stdDeviation="1"/>
<feComposite in2="hardAlpha" operator="arithmetic" k2="-1" k3="1"/>
<feColorMatrix type="matrix" values="0 0 0 0 0.609635 0 0 0 0 0.609635 0 0 0 0 0.609635 0 0 0 1 0"/>
<feBlend mode="normal" in2="shape" result="effect1_innerShadow_1906_14326"/>
<feColorMatrix in="SourceAlpha" type="matrix" values="0 0 0 0 0 0 0 0 0 0 0 0 0 0 0 0 0 0 127 0" result="hardAlpha"/>
<feOffset dx="2"/>
<feGaussianBlur stdDeviation="2"/>
<feComposite in2="hardAlpha" operator="arithmetic" k2="-1" k3="1"/>
<feColorMatrix type="matrix" values="0 0 0 0 0.413037 0 0 0 0 0.413037 0 0 0 0 0.413037 0 0 0 1 0"/>
<feBlend mode="normal" in2="effect1_innerShadow_1906_14326" result="effect2_innerShadow_1906_14326"/>
</filter>
<filter id="filter9_ii_1906_14326" x="116.001" y="132.848" width="20.8857" height="25.158" filterUnits="userSpaceOnUse" color-interpolation-filters="sRGB">
<feFlood flood-opacity="0" result="BackgroundImageFix"/>
<feBlend mode="normal" in="SourceGraphic" in2="BackgroundImageFix" result="shape"/>
<feColorMatrix in="SourceAlpha" type="matrix" values="0 0 0 0 0 0 0 0 0 0 0 0 0 0 0 0 0 0 127 0" result="hardAlpha"/>
<feOffset dx="1" dy="-2"/>
<feGaussianBlur stdDeviation="0.5"/>
<feComposite in2="hardAlpha" operator="arithmetic" k2="-1" k3="1"/>
<feColorMatrix type="matrix" values="0 0 0 0 0.858057 0 0 0 0 0.858057 0 0 0 0 0.858057 0 0 0 1 0"/>
<feBlend mode="normal" in2="shape" result="effect1_innerShadow_1906_14326"/>
<feColorMatrix in="SourceAlpha" type="matrix" values="0 0 0 0 0 0 0 0 0 0 0 0 0 0 0 0 0 0 127 0" result="hardAlpha"/>
<feOffset dx="-0.5" dy="2"/>
<feGaussianBlur stdDeviation="0.5"/>
<feComposite in2="hardAlpha" operator="arithmetic" k2="-1" k3="1"/>
<feColorMatrix type="matrix" values="0 0 0 0 0.854915 0 0 0 0 0.854915 0 0 0 0 0.854915 0 0 0 1 0"/>
<feBlend mode="normal" in2="effect1_innerShadow_1906_14326" result="effect2_innerShadow_1906_14326"/>
</filter>
<linearGradient id="paint0_linear_1906_14326" x1="107.248" y1="178.243" x2="107.482" y2="209.991" gradientUnits="userSpaceOnUse">
<stop stop-color="#593827"/>
<stop offset="1" stop-color="#503222"/>
</linearGradient>
<radialGradient id="paint1_radial_1906_14326" cx="0" cy="0" r="1" gradientUnits="userSpaceOnUse" gradientTransform="translate(104.996 153.989) rotate(-0.902221) scale(201.048 33.5805)">
<stop offset="0.220093" stop-color="white"/>
<stop offset="1" stop-color="white"/>
</radialGradient>
<linearGradient id="paint2_linear_1906_14326" x1="115.588" y1="156.747" x2="117.02" y2="159.515" gradientUnits="userSpaceOnUse">
<stop stop-color="#191919"/>
<stop offset="0.555252" stop-color="#363636"/>
<stop offset="1" stop-color="#191919"/>
</linearGradient>
<linearGradient id="paint3_linear_1906_14326" x1="138.829" y1="127.229" x2="133.929" y2="124.281" gradientUnits="userSpaceOnUse">
<stop offset="0.165" stop-color="#B8B8B8"/>
<stop offset="0.59" stop-color="#D9D9D9"/>
<stop offset="0.790297" stop-color="#969696"/>
<stop offset="0.831688" stop-color="#BEBEBE"/>
<stop offset="0.873078" stop-color="#9B9B9B"/>
<stop offset="0.906943" stop-color="#D9D9D9"/>
<stop offset="0.953148" stop-color="#737373"/>
</linearGradient>
<linearGradient id="paint4_linear_1906_14326" x1="119.669" y1="164.446" x2="116.552" y2="164.477" gradientUnits="userSpaceOnUse">
<stop stop-color="#191919"/>
<stop offset="0.555252" stop-color="#363636"/>
<stop offset="1" stop-color="#191919"/>
</linearGradient>
<linearGradient id="paint5_linear_1906_14326" x1="134.861" y1="130.085" x2="139.76" y2="133.033" gradientUnits="userSpaceOnUse">
<stop offset="0.165" stop-color="#B8B8B8"/>
<stop offset="0.59" stop-color="#D9D9D9"/>
<stop offset="0.790297" stop-color="#969696"/>
<stop offset="0.831688" stop-color="#BEBEBE"/>
<stop offset="0.873078" stop-color="#9B9B9B"/>
<stop offset="0.906943" stop-color="#D9D9D9"/>
<stop offset="0.953148" stop-color="#737373"/>
</linearGradient>
<linearGradient id="paint6_linear_1906_14326" x1="180.752" y1="47.4709" x2="186.457" y2="50.665" gradientUnits="userSpaceOnUse">
<stop stop-color="#3C3C3C"/>
<stop offset="0.507442" stop-color="#6D6D6D"/>
<stop offset="0.9999" stop-color="#3C3C3C"/>
</linearGradient>
<linearGradient id="paint7_linear_1906_14326" x1="194.913" y1="52.4973" x2="204.708" y2="57.7749" gradientUnits="userSpaceOnUse">
<stop stop-color="#3C3C3C"/>
<stop offset="0.15035" stop-color="#575757"/>
<stop offset="0.449161" stop-color="#3C3C3C"/>
<stop offset="0.853886" stop-color="#545454"/>
<stop offset="1" stop-color="#3C3C3C"/>
</linearGradient>
<linearGradient id="paint8_linear_1906_14326" x1="96.4025" y1="120.199" x2="94.2762" y2="184.224" gradientUnits="userSpaceOnUse">
<stop stop-color="#986954" stop-opacity="0"/>
<stop offset="0.45" stop-color="#986954" stop-opacity="0"/>
<stop offset="0.4501" stop-color="#986954"/>
</linearGradient>
</defs>
</svg>
