<svg width="1440" height="1390" viewBox="0 0 1440 1390" fill="none" xmlns="http://www.w3.org/2000/svg">
<g clip-path="url(#clip0_31_1186)">
<rect width="1440" height="1390" fill="white"/>
<rect x="0.5" y="0.5" width="1439" height="1392" fill="url(#paint0_radial_31_1186)" stroke="black"/>
<path d="M324.94 1087C20.1687 547.971 229.325 137.593 372 -0.216881L0 -29V1087H324.94Z" fill="url(#paint1_linear_31_1186)"/>
<path d="M1440 1396H2V1084.24C96.7042 1089.03 286.113 1094.5 330.217 1090.39C380.301 1085.74 396.886 1084.24 421.502 1084.24C446.118 1084.24 541.506 1098.6 630.74 1084.24C719.974 1069.88 787.178 1090.23 844.081 1084.24C902.545 1078.09 1032.49 1095.73 1149.73 1084.24C1254.35 1073.99 1366.49 1093.81 1440 1084.24V1396Z" fill="url(#paint2_linear_31_1186)"/>
<path d="M967.884 1198.88C1032.99 1202.03 1331.6 1229.01 1436 1216.89V1110C1279.96 1111.13 962.562 1116.08 941.271 1126.88C914.657 1140.38 1149.9 1126.88 1090.5 1140C1031.09 1153.13 642.342 1158 788.717 1163.26C935.093 1168.51 1023.01 1155.75 953.627 1170.01C884.242 1184.26 812.955 1191.38 967.884 1198.88Z" fill="url(#paint3_linear_31_1186)"/>
<path d="M561.702 1216.22C494.009 1212.01 183.54 1175.96 75 1192.16V1335C237.234 1333.5 567.237 1326.88 589.373 1312.45C617.043 1294.4 372.457 1312.45 434.221 1294.91C495.985 1277.36 900.171 1270.85 747.983 1263.83C595.796 1256.82 504.385 1273.86 576.526 1254.81C648.667 1235.77 722.784 1226.24 561.702 1216.22Z" fill="url(#paint4_linear_31_1186)"/>
<path d="M403.129 715.861C349.013 550.137 453.009 426.664 511.771 385.643C631.687 243.096 861.27 276.938 964.787 385.643C1068.3 494.348 1080.6 598.952 1059.08 753.805C1037.56 908.659 890.992 987.624 721.88 979.42C552.768 971.216 470.774 923.016 403.129 715.861Z" fill="url(#paint5_radial_31_1186)"/>
<path d="M1141.27 1088C1421.46 548.488 1229.17 137.742 1098 -0.19109L1440 -29V1088H1141.27Z" fill="url(#paint6_linear_31_1186)"/>
<path d="M96.8006 1142.66C120.748 1164.18 246.27 1140.83 306.037 1126.47C337.417 1111.11 312.917 1121.11 372.356 1094.64C427.716 1069.99 66.8659 1115.76 96.8006 1142.66Z" fill="url(#paint7_linear_31_1186)"/>
<path d="M210.39 1178.83C227.178 1188.56 277.696 1191.96 333.89 1171.92C372.89 1158.02 437.89 1143.42 486.389 1096.92C526.57 1058.4 167.389 1153.92 210.39 1178.83Z" fill="url(#paint8_linear_31_1186)"/>
<path d="M407.635 1164.02C417.278 1166.91 428.694 1201.95 559.14 1131.32C595.263 1111.76 614.456 1092.54 593.178 1090.27C564.203 1087.18 395.58 1160.42 407.635 1164.02Z" fill="url(#paint9_linear_31_1186)"/>
<path d="M35.1424 943.057C12.6513 953.164 2.34283 938.845 0 930.423V1085.92H215.875L197.802 1054.82C195.459 1037 186.757 977.071 175.712 1035.38C168.818 1071.78 140.57 1049.96 113.46 977.071C86.35 904.183 113.46 904.183 113.46 857.535C113.46 810.888 99.306 748.368 86.35 769.268C71.289 793.563 63.2564 930.423 35.1424 943.057Z" fill="url(#paint10_linear_31_1186)"/>
<path d="M1178.78 1020.8C1176.37 1044.13 1119.54 1084.3 1101.46 1085.92H1242.03L1398.67 1089C1399.67 1082.52 1401.08 1032.46 1398.67 1020.8C1395.66 1006.23 1364.53 993.592 1341.44 977.071C1318.34 960.549 1329.39 920.704 1326.38 857.535C1323.36 794.366 1309.31 716.62 1296.25 753.549C1283.2 790.479 1289.23 850.901 1279.19 914.07C1269.14 977.239 1251.07 1001.37 1249.06 1020.8C1247.05 1040.24 1234 1054.82 1213.92 1035.38C1193.84 1015.94 1213.92 977.071 1198.86 943.057C1183.8 909.042 1181.79 991.648 1178.78 1020.8Z" fill="url(#paint11_linear_31_1186)"/>
<path d="M1147.16 154.48C1161.78 143.436 1168.48 159.082 1170 168.286V-1.62958H1029.68L1041.43 32.3535C1042.95 51.823 1048.61 117.311 1055.79 53.593C1060.27 13.8172 1078.63 37.6634 1096.25 117.311C1113.87 196.959 1096.25 196.959 1096.25 247.934C1096.25 298.908 1105.45 367.227 1113.87 344.389C1123.66 317.839 1128.88 168.286 1147.16 154.48Z" fill="url(#paint12_linear_31_1186)" fill-opacity="0.33"/>
<path d="M403.794 69.5225C405.361 44.0352 442.3 0.14035 454.048 -1.62958H362.678L260.865 -5C260.212 2.0798 259.299 56.7788 260.865 69.5225C262.823 85.4521 283.055 99.2577 298.066 117.311C313.077 135.365 305.897 178.906 307.855 247.934C309.813 316.962 318.95 401.92 327.435 361.565C335.919 321.21 332.003 255.183 338.53 186.155C345.056 117.127 356.804 90.7619 358.109 69.5225C359.414 48.2831 367.899 32.3535 380.952 53.593C394.005 74.8324 380.952 117.311 390.741 154.48C400.531 191.649 401.836 101.382 403.794 69.5225Z" fill="url(#paint13_linear_31_1186)" fill-opacity="0.33"/>
<g filter="url(#filter0_d_31_1186)">
<path d="M1401.9 858.381C1414.57 880.394 1435.59 935.263 1438 926.422V1397H1084.14L1165.17 1185.03C1179.53 1149.19 1246.17 975.387 1257.52 1036.59C1264.6 1074.8 1278.87 1057.77 1306.71 981.259C1334.56 904.752 1344.66 907.345 1344.66 858.381C1344.66 809.416 1360.07 654.172 1373.38 676.11C1388.85 701.612 1383.64 826.637 1401.9 858.381Z" fill="url(#paint14_linear_31_1186)"/>
<path d="M240.349 1021.29C310.394 1204.67 370.168 1395.3 388.732 1397H240.349H1.36658C0.335205 1390.2 -1.10864 1033.53 1.36658 1021.29C4.46057 1005.99 31.5087 1038.63 55.2291 1021.29C78.9496 1003.95 99.1819 992.728 102.276 926.422C105.37 860.116 126.085 699.81 139.492 738.573C152.899 777.337 151.94 860.116 162.253 926.422C172.566 992.728 172.314 1021.29 172.314 1021.29C172.314 1021.29 179.381 1111.23 200.007 1090.83C220.634 1070.42 204.423 988.43 219.893 952.727C231.291 926.422 229.752 993.547 240.349 1021.29Z" fill="url(#paint15_linear_31_1186)"/>
</g>
<path d="M689.001 861C674.591 914.778 611.786 934.421 563.464 921.474C515.142 908.526 468.091 844.778 482.501 791C496.911 737.222 567.324 713.779 615.646 726.727C663.968 739.675 703.411 807.222 689.001 861Z" fill="url(#paint16_radial_31_1186)"/>
<path d="M564.101 860.449C559.67 862.25 540.652 888.988 531.696 902.132C529.445 905.414 529.66 914.787 533.559 914.681C537.458 914.575 553.989 886.525 561.805 877.012C569.622 867.499 569.64 858.198 564.101 860.449Z" fill="url(#paint17_linear_31_1186)"/>
<path d="M162.624 931.5C166.466 943.501 170.9 980.857 171.5 1001.5C172.028 1019.65 173 1032.5 175.885 1051.89C178.652 1070.5 183 1083.5 187 1089.5C190.165 1094.25 193.924 1094.11 199 1091.5C204.776 1088.53 207 1077 207 1077C207 1095 196.503 1126.63 187 1119.5C181 1115 177.266 1109.83 174.577 1099C171.509 1091.14 162.251 1072.15 157.546 1065C148.001 1050.5 154.001 1036.67 156.001 1038C158.001 1039.33 152.033 1049 159.501 1056.5C165.434 1062.46 170.161 1072.91 174.577 1073.36C170.272 1056.07 165.605 1038.28 164.61 1030.11C163.134 1018 161.184 1011.01 161.501 1001.5C160.201 1004.38 162.624 997 156.483 987.565C150.343 978.131 156.484 936.502 156.483 946.001C156.483 955.5 157.546 995.999 162.624 976.64C166.558 961.641 161.997 929.542 162.624 931.5Z" fill="url(#paint18_linear_31_1186)" fill-opacity="0.52"/>
<path d="M1266.5 1074C1259.7 1061.2 1258 1046.33 1258 1040.5C1267 1075.5 1281.5 1040.5 1286.5 1030.5C1291.5 1020.5 1301 993.5 1302.5 998C1303.7 1001.6 1291.83 1031.5 1289 1037C1289 1037 1300.5 1032.5 1300 1034.5C1295.81 1051.25 1275 1090 1266.5 1074Z" fill="url(#paint19_linear_31_1186)" fill-opacity="0.52"/>
<path d="M587.448 875.438C589.948 873.958 591.248 871.721 592.402 869.841C593.571 867.938 593.571 867.938 594.483 865.339C596.553 859.438 597.948 852.938 597.948 852.438C597.948 849.095 593.098 859.475 589.448 861.438C586.948 863.438 585.843 863.878 583.299 864.194C581.483 864.42 583.579 862.735 584.108 862.336C587.35 859.893 592.403 856.956 593.571 853.189C594.212 851.12 594.46 848.821 594.749 846.682C595.007 844.766 596.04 842.883 595.948 840.938C595.939 840.747 595.948 832.938 595.448 832.938C594.882 833.196 594.948 837.938 593.325 839.66C591.932 840.796 590.578 842.074 588.99 843.014C587.515 843.888 585.72 844.478 584.092 845.127C583.002 845.561 582.441 845.398 582.948 844.938L582.984 844.906C583.894 844.082 585.76 842.393 586.164 841.34C587.546 837.746 587.333 833.819 587.878 830.075C588.414 826.385 589.145 822.718 589.785 819.046C590.567 814.558 591.324 809.136 595.486 806C597.156 804.741 592.837 806.226 592.396 806.429C584.416 810.099 577.314 815.184 572.448 821.516C568.534 826.609 567.26 833.314 563.257 838.353C561.812 840.172 560.338 841.956 558.741 843.675C558.235 844.219 557.374 845.295 556.393 845.075C555.459 844.866 555.586 842.986 555.587 842.446C555.588 840.834 556.117 839.187 556.372 837.606C556.639 835.947 556.498 834.19 556.319 832.506C556.018 829.673 554.351 826.42 552.954 823.8C552.479 822.91 551.905 821.96 551.302 821.124C550.703 820.293 550.965 821.046 551.028 821.516C551.572 825.556 550.009 829.915 548.702 833.68C546.668 839.541 545.561 840.556 544.448 846.682C543.585 851.43 541.448 856.938 543.448 864.194C544.342 867.438 545.336 869.722 546.815 871.51C548.034 872.984 549.751 875.26 551.302 876.438C554.848 879.134 560.536 880.674 564.948 880.938C571.286 881.319 572.585 881.089 578.448 879.439C581.448 878.594 585.263 876.732 587.448 875.438Z" fill="url(#paint20_radial_31_1186)"/>
<path d="M521.201 908.078C500.336 927.774 492.984 942.068 483.619 970.367C485.945 971.511 491.254 971.04 493.51 969.487C513.519 955.709 520.151 941.595 535.474 924.111L521.201 908.078Z" fill="#C49E80"/>
<path d="M535.26 897.735C533.975 896.759 522.526 903.709 521.059 908.77C524.705 918.341 528.451 920.721 535.54 924.252C535.54 924.252 544.284 910.297 543.314 908.337C542.344 906.378 539.901 906.572 537.064 907.057C537.15 903.19 536.546 898.711 535.26 897.735Z" fill="#776969"/>
<path d="M490.291 1021.17H464.154C464.739 1041.88 464.715 1054.35 464.154 1078.02H487.069C491.89 1049.44 497.252 1028.64 490.291 1021.17Z" fill="#BF9878"/>
<path d="M480.896 1095.41C482.733 1095.67 489.286 1080.67 487.18 1074.65C477.745 1070.52 472.563 1069.86 463.617 1072.7C463.617 1072.7 465.141 1091.99 467.36 1093.44C469.579 1094.89 471.676 1093.3 473.934 1091.18C475.919 1094.15 479.058 1095.14 480.896 1095.41Z" fill="#776969"/>
<path d="M444.215 1021.17H470.352C469.767 1041.88 469.791 1054.35 470.352 1078.02H447.437C442.616 1049.44 437.254 1028.64 444.215 1021.17Z" fill="#C49E80"/>
<path d="M453.61 1095.41C451.773 1095.67 445.219 1080.67 447.326 1074.65C456.761 1070.52 461.942 1069.86 470.889 1072.7C470.889 1072.7 469.365 1091.99 467.146 1093.44C464.927 1094.89 462.83 1093.3 460.571 1091.18C458.587 1094.15 455.447 1095.14 453.61 1095.41Z" fill="#776969"/>
<path d="M436.346 942.11H489.818C489.818 942.11 508.804 992.205 505.704 1020.33C502.604 1048.45 463.082 1044.39 463.082 1044.39C463.082 1044.39 423.559 1048.45 420.459 1020.33C417.359 992.205 436.346 942.11 436.346 942.11Z" fill="#C49E80"/>
<path d="M455.277 938.531L435.323 936.416C430.215 961.679 434.275 993.235 431.116 1009.87C426.835 1032.42 471.032 1049.66 473.231 1031.95C475.431 1014.24 467.551 976.143 455.277 938.531Z" fill="#485199"/>
<path d="M438.501 966.626C437.89 963.449 440.408 960.512 443.635 960.638L445.068 960.693C445.356 960.705 445.642 960.741 445.923 960.801L450.792 961.853C452.733 962.272 454.232 963.808 454.608 965.764L456.208 974.087C456.744 976.876 454.858 979.65 452.025 979.782C448.633 979.94 445.917 979.464 442.687 978.077C441.286 977.476 440.335 976.168 440.046 974.664L438.501 966.626Z" fill="#747ECB"/>
<path d="M455.949 964.348C455.067 961.745 438.497 959.115 437.613 960.485C436.729 961.854 441.143 972.882 445.709 972.76C450.276 972.637 456.832 966.951 455.949 964.348Z" fill="#5E69C5"/>
<path d="M436.912 995.983C436.719 992.749 439.593 990.135 442.771 990.653L447.516 991.427C447.8 991.473 448.078 991.544 448.349 991.638L456.408 994.46C458.274 995.113 459.558 996.822 459.677 998.812L460.603 1014.31C460.773 1017.15 458.553 1019.63 455.722 1019.55C449.532 1019.37 445.238 1018.18 439.979 1014.92C438.689 1014.12 437.913 1012.72 437.821 1011.19L436.912 995.983Z" fill="#747ECB"/>
<path d="M461.893 998.411C461.134 994.598 438.438 988.048 436.95 989.821C435.463 991.594 439.622 1007.87 446.032 1008.48C452.441 1009.09 462.652 1002.22 461.893 998.411Z" fill="#5E69C5"/>
<path d="M485.794 945.113L492.818 938.199C500.949 958.346 507.158 986.19 512.434 999.509C519.586 1017.56 507.107 1043.54 501.929 1029.06C496.751 1014.58 490.383 980.207 485.794 945.113Z" fill="#485199"/>
<path d="M498.62 962.54C498.315 960.951 496.442 960.257 495.165 961.26V961.26C495.01 961.382 494.873 961.524 494.756 961.682L493.489 963.396C492.65 964.531 492.324 965.963 492.589 967.343L494.023 974.804C494.575 977.678 497.843 979.601 499.406 977.113C499.722 976.611 500.021 976.025 500.317 975.336C500.678 974.497 500.739 973.564 500.567 972.67L498.62 962.54Z" fill="#747ECB"/>
<path d="M491.874 967.213C491.569 964.775 497.188 958.293 497.859 959.229C498.529 960.165 499.566 970.664 497.81 971.731C496.053 972.798 492.179 969.65 491.874 967.213Z" fill="#5E69C5"/>
<path d="M506.69 988.633C506.105 986.365 503.503 985.952 501.863 987.869V987.869C501.665 988.1 501.492 988.356 501.347 988.629L499.342 992.43C498.611 993.815 498.398 995.4 498.755 996.785L502.182 1010.09C502.911 1012.91 505.983 1014.26 507.841 1011.69C508.858 1010.28 509.635 1008.49 510.362 1005.94C510.64 1004.96 510.64 1003.96 510.407 1003.06L506.69 988.633Z" fill="#747ECB"/>
<path d="M497.987 997.668C497.338 994.235 504.312 982.85 505.309 983.975C506.307 985.1 508.727 999.986 506.455 1002.15C504.182 1004.32 498.636 1001.1 497.987 997.668Z" fill="#5E69C5"/>
<path d="M443.504 873.297C443.511 873.292 443.517 873.287 443.524 873.282L454.111 865.33C454.111 865.33 454.96 845.984 454.111 840.294C453.263 834.604 451.565 826.068 446.898 827.776C442.231 829.483 446.898 847.122 441.807 845.984C436.715 844.846 432.897 819.809 429.927 815.257C426.956 810.705 417.121 819.352 421.016 827.776C424.901 836.176 445.841 871.398 443.524 873.282L443.504 873.297Z" fill="#776969"/>
<path d="M426.517 873.297C426.523 873.292 426.529 873.287 426.535 873.282L436.24 865.33C436.24 865.33 437.018 845.984 436.24 840.294C435.462 834.604 433.907 826.068 429.628 827.776C425.35 829.483 429.628 847.122 424.961 845.984C420.294 844.846 416.794 819.809 414.071 815.257C411.348 810.705 402.333 819.352 405.903 827.776C409.464 836.176 428.66 871.398 426.535 873.282L426.517 873.297Z" fill="#776969"/>
<path d="M443.946 839.013C448.752 837.915 450.193 856.948 450.193 856.948L445.387 872.687C445.387 872.687 435.295 871.223 434.173 856.948C433.052 842.673 434.173 835.719 435.936 834.621C437.698 833.522 439.14 840.111 443.946 839.013Z" fill="#C49E80"/>
<path d="M443.664 855.473C446.469 855.031 447.311 862.692 447.311 862.692L444.506 869.028C444.506 869.028 438.615 868.438 437.961 862.692C437.306 856.946 437.961 854.146 438.989 853.704C440.018 853.262 440.859 855.915 443.664 855.473Z" fill="#E1C7B3"/>
<ellipse cx="468.092" cy="904.409" rx="45.8288" ry="49.4138" fill="#C49E80"/>
<ellipse rx="15.0689" ry="18.9954" transform="matrix(0.950662 -0.310228 0.298045 0.954552 504.614 909.167)" fill="#E1C7B3"/>
<path d="M514.412 906.513C513.041 905.914 508.075 903.071 509.125 900.571C509.593 899.456 513.132 901.613 514.133 901.225C515.083 900.857 516.52 897.923 517.429 897.861C521.165 900.502 518.134 908.14 514.412 906.513Z" fill="#372831" stroke="#372831" stroke-width="2" stroke-linecap="round"/>
<path d="M509.902 915.815C513.89 920.305 519.496 921.28 518.012 913.169L515.901 906.41" stroke="#372831" stroke-width="3" stroke-linecap="round"/>
<ellipse rx="5.54725" ry="10.2015" transform="matrix(0.900792 -0.424153 0.422258 0.911126 487.846 885.385)" fill="#372831"/>
<path d="M433.652 851.459C444.393 850.361 447.615 869.395 447.615 869.395L436.874 885.134C436.874 885.134 414.318 883.67 411.811 869.395C409.305 855.119 411.811 848.165 415.75 847.067C419.688 845.969 422.911 852.557 433.652 851.459Z" fill="#C49E80"/>
<path d="M433.021 867.918C439.289 867.476 441.17 875.138 441.17 875.138L434.901 881.473C434.901 881.473 421.737 880.884 420.274 875.138C418.811 869.391 420.274 866.592 422.573 866.15C424.871 865.708 426.752 868.36 433.021 867.918Z" fill="#E1C7B3"/>
<path d="M409.316 1004.55C411.801 975.632 418.368 960.944 434.543 936.064C436.852 937.246 439.734 941.828 439.911 944.603C441.483 969.213 434.615 983.209 430.454 1006.29L409.316 1004.55Z" fill="#BC9475"/>
<path d="M409.909 1022.25C408.368 1021.81 406.746 1008.3 409.765 1004.02C419.403 1001.11 423.536 1002.69 430.603 1006.26C430.603 1006.26 425.15 1021.87 423.04 1022.28C420.93 1022.7 419.587 1020.6 418.227 1018.01C415.287 1020.44 411.451 1022.69 409.909 1022.25Z" fill="#776969"/>
<g filter="url(#filter1_i_31_1186)">
<ellipse rx="25.4611" ry="11.486" transform="matrix(0.963885 -0.266321 0.240835 0.970566 555.874 980.398)" fill="#78861C"/>
<path d="M552.64 1074.46C551.668 1086.65 551.573 1097.64 557.427 1099.04C563.282 1100.43 563.392 1088.32 564.364 1076.13C565.336 1063.94 569.619 1058.73 559.176 1056.24C553.322 1054.84 553.612 1062.27 552.64 1074.46Z" fill="#AE8873"/>
<path d="M575.856 1079.42C576.828 1091.61 576.923 1102.6 571.069 1103.99C565.214 1105.39 565.104 1093.28 564.132 1081.09C563.16 1068.9 558.877 1063.68 569.32 1061.19C575.174 1059.8 574.884 1067.23 575.856 1079.42Z" fill="#AE8873"/>
<g filter="url(#filter2_d_31_1186)">
<path d="M599.679 1001.56C597.666 1003.26 596.388 1005 594.765 1007.52C593.536 1009.89 593.62 1013.11 594.068 1016.4C594.615 1020.42 596.286 1023.15 598.681 1023.63C600.33 1023.95 602.472 1022.65 603.72 1021.22C605.453 1019.23 607.969 1017.83 608.992 1014.6C609.461 1013.12 610.121 1011.73 609.981 1009.82C609.843 1007.93 609.59 1006.48 609.178 1004.63C608.404 1001.16 606.806 999.582 604.569 999.476C602.459 999.377 601.38 1000.11 599.679 1001.56Z" fill="url(#paint21_linear_31_1186)"/>
<path d="M517.278 1003.84C519.203 1002.85 522.193 1005.9 524.205 1007.42C525.788 1009.36 527.507 1012.3 528.541 1014.84C529.179 1016.4 529.581 1018.09 530.213 1019.65C530.795 1021.08 531.355 1022.42 531.739 1023.92C532.202 1025.74 532.961 1027.46 533.466 1029.26C534.01 1031.2 534.619 1033.23 535.33 1035.13C536.711 1038.82 537.657 1042.52 538.816 1046.26C539.955 1049.94 540.883 1053.67 541.907 1057.36C542.833 1060.7 544.225 1064.7 543.753 1067.67C543.323 1070.37 540.079 1069.71 538.344 1068.92C535.478 1067.62 532.704 1065.16 529.937 1062.83C521.129 1055.45 511.874 1044.03 508.416 1029.9C507.509 1026.19 506.878 1022.23 507.684 1019.24C508.53 1016.1 509.154 1012.75 510.357 1009.98C511.339 1007.72 512.929 1006.09 514.703 1005.17L517.278 1003.84Z" fill="#543A3A"/>
<path d="M573.148 956.129C562.385 949.757 554.92 948.581 544.149 957.654C536.22 961.593 532.702 975.614 531.827 979.829C531.086 983.395 529.914 986.768 529.334 990.434C528.531 995.513 527.685 1000.49 527.179 1005.68C526.216 1015.56 525.375 1025.48 526.015 1035.65C526.484 1043.12 525.885 1049.59 527.179 1057C527.914 1061.21 530.792 1066.71 533.501 1069.43C536.314 1072.25 538.816 1074.45 541.986 1076.33C547.842 1079.8 553.991 1081.93 560.186 1082.52C565.94 1083.07 571.837 1083.48 577.467 1082.6C580.005 1082.21 582.483 1081.51 584.942 1080.78C587.12 1080.13 588.808 1078.59 590.839 1077.61C593.909 1076.13 598.708 1071.44 600.486 1068C602.39 1064.31 604.921 1060.64 605.501 1056C606.501 1050 606.483 1045.34 605.501 1039C604.959 1035.5 604.501 1031.5 602.501 1027.5C601.933 1023.84 599.128 1020.94 598.558 1017.26C597.297 1009.12 595.769 1000.49 593.217 992.74C592.234 989.755 595.713 989.007 594.352 986.256C593.749 985.037 589.058 980.491 588.622 979.153C588.006 977.256 587.015 975.517 586.251 973.707C584.593 969.78 582.27 966.192 579.947 962.948C578.139 960.422 575.536 957.543 573.148 956.129Z" fill="url(#paint22_linear_31_1186)"/>
<g filter="url(#filter3_d_31_1186)">
<path d="M578.642 1009.66C579.851 1008.11 580.261 1006.15 581.799 1005.02C586.582 1005.4 587.216 1015.23 586.595 1019.75C586.349 1021.55 585.304 1022.9 584.691 1024.44C583.993 1026.2 583.211 1027.7 582.371 1029.3C581.31 1031.32 579.192 1033.51 577.161 1033.23C575.181 1032.96 572.049 1033.3 571.02 1029.8C570.014 1026.39 570.391 1022.78 571.71 1019.99C573.032 1017.19 574.762 1015.37 576.318 1012.92C577.056 1011.76 577.823 1010.71 578.642 1009.66Z" fill="url(#paint23_linear_31_1186)"/>
</g>
<path d="M590.844 987.01C591.38 986.135 592.486 986.132 593.303 986.208C594.751 987.615 593.503 990.123 591.995 989.156C591.44 988.8 590.226 988.017 590.844 987.01Z" fill="#372831" stroke="#372831" stroke-width="2" stroke-linecap="round"/>
<path d="M591.827 995.033C591.643 993.949 591.49 992.856 591.321 991.769C591.787 991.102 592.397 990.292 592.748 989.494C593.154 988.571 593.744 989.509 594.3 989.84C594.952 990.229 595.249 990.53 595.416 991.607C595.561 992.546 595.741 993.568 595.871 994.406C596.184 995.552 595.542 995.924 594.907 996.023L593.167 996.292C592.641 996.209 591.98 995.935 591.827 995.033Z" fill="#E0D0C1"/>
<path d="M586.517 993.006C588.995 994.971 592.611 992.792 592.34 988.212" stroke="#372831" stroke-width="3" stroke-linecap="round"/>
</g>
<path d="M584.897 977.713C585.691 980.645 584.931 983.401 583.439 983.806C581.946 984.21 580.043 982.744 579.249 979.812C578.455 976.88 579.071 973.592 580.564 973.188C582.056 972.784 584.103 974.781 584.897 977.713Z" fill="#372831"/>
<path d="M576.161 957.16C575.553 954.711 568.156 941.295 566.586 939.311C564.291 938.095 560.081 936.325 550.124 938.573C540.167 940.821 538.001 946.388 536.566 948.635C536.118 951.176 535.387 965.809 535.995 968.257C535.995 968.257 545.584 961.733 555.166 959.57C564.748 957.406 576.161 957.16 576.161 957.16Z" fill="#8F9D2F"/>
<path d="M588.963 968.489C588.422 966.311 579.387 955.057 577.339 953.472C574.096 952.723 568.075 951.777 552.873 955.53C537.67 959.283 533.603 964.826 531.124 967.157C530.074 969.597 526.792 983.34 527.332 985.518C527.332 985.518 541.649 973.502 556.279 969.891C570.908 966.279 588.963 968.489 588.963 968.489Z" fill="#8F9D2F"/>
<path d="M561.645 964.846C559.067 966.512 555.969 962.028 553.936 958.492C552.345 954.979 553.342 951.928 554.962 950.607C556.876 949.046 561.394 952.626 562.739 956.384C563.216 957.716 562.491 958.043 562.244 959.36C561.975 960.798 562.538 964.269 561.645 964.846Z" fill="#AE8873"/>
</g>
<path d="M339.815 1090.23C327.032 1076.9 323.445 1055.91 318.148 1037.35L367.849 1033.7C367.849 1033.7 379.966 1089.45 373.127 1091.74C366.288 1094.04 349.964 1100.81 339.815 1090.23Z" fill="url(#paint24_linear_31_1186)"/>
<path d="M358.493 995.962C347.382 984.662 323.696 956.914 335.732 945.939C352.314 930.819 369.881 941.875 390.571 967.036C411.997 993.09 415.291 1007.48 405.247 1016.64C395.202 1025.79 388.977 1026.96 358.493 995.962Z" fill="url(#paint25_linear_31_1186)"/>
<ellipse cx="270.346" cy="1029.54" rx="12.2831" ry="12.2365" fill="#B39379"/>
<path d="M384.804 995.918C392.338 1038.71 353.982 1068.74 321.441 1066.94C288.901 1065.14 256.142 1022.46 274.934 968.637C298.132 902.197 297.786 916.556 330.327 918.36C362.867 920.165 373.436 931.345 384.804 995.918Z" fill="#C49E80"/>
<path fill-rule="evenodd" clip-rule="evenodd" d="M362.113 1056.45C383.024 1045.14 399.387 1024.65 393.99 1000.66C388.451 976.039 381.993 958.387 373.516 946.317C356.152 948.998 341.497 971.946 339.783 1000.62C338.232 1026.55 347.754 1049 362.113 1056.45Z" fill="#E1C7B3"/>
<path d="M290.923 1086.08C280.249 1068.7 282.184 1045.72 281.489 1024.84C303.445 1013.65 316.001 1014.68 339.142 1039.49C339.142 1039.49 336.64 1095.94 328.235 1096.53C319.83 1097.12 299.397 1099.89 290.923 1086.08Z" fill="url(#paint26_linear_31_1186)"/>
<path d="M396.309 870.09C402.36 883.768 402.798 905.556 385.816 912.523C368.835 919.49 321.944 936.339 315.893 922.661C309.842 908.983 338.859 877.963 355.84 870.996C372.822 864.03 390.258 856.412 396.309 870.09Z" fill="#C49E80"/>
<path d="M381.139 861.6C388.498 895.33 383.273 918.268 346.645 925.678C310.017 933.089 267.047 919.901 259.689 886.171C252.33 852.442 276.058 819.091 312.686 811.681C349.315 804.271 373.781 827.871 381.139 861.6Z" fill="#C59E80"/>
<ellipse rx="72.7467" ry="22.7896" transform="matrix(0.838276 -0.545247 0.574225 0.818697 303.488 837.32)" fill="#FFD80B"/>
<path d="M336.567 809.068C340.824 817.218 328.36 827.088 309.434 836.257C290.507 845.425 272.284 850.42 268.027 842.27C263.77 834.12 269.982 809.208 288.909 800.039C307.835 790.871 332.31 800.918 336.567 809.068Z" fill="url(#paint27_linear_31_1186)"/>
<path d="M316.921 831.71C309.128 801.612 281.138 817.851 290.025 852.694C290.56 854.792 293.135 855.476 294.743 854.01L316.043 834.607C316.841 833.88 317.191 832.75 316.921 831.71Z" fill="#A78B75"/>
<path fill-rule="evenodd" clip-rule="evenodd" d="M300.308 848.94C297.484 821.36 309.582 815.925 314.939 835.612L300.308 848.94Z" fill="#E1C7B3"/>
<path d="M245.86 920.324C246.574 919.482 247.564 918.882 248.643 918.653C269.52 914.22 279.457 917.203 292.393 929.509C293.423 930.488 293.943 931.9 293.837 933.326C291.088 970.314 285.209 989.413 270.448 1018.43C269.659 1019.98 268.11 1021.02 266.376 1021.18C249.947 1022.65 239.796 1022.54 223.6 1010.02C222.657 1009.29 222.028 1008.21 221.835 1007.03C215.379 967.738 221.864 948.61 245.86 920.324Z" fill="#E67070"/>
<path d="M294.827 933.427C293.405 946.647 270.664 960.131 255.075 958.576C208.629 958.862 225.381 943.721 229.423 931.822C234.408 917.147 244.636 909.147 260.226 910.702C275.815 912.257 296.249 920.207 294.827 933.427Z" fill="#D94B4B"/>
<path d="M261.911 910.869C241.373 913.35 226.851 952.372 229.112 970.336L234.414 972.506C231.692 953.952 245.977 916.223 267.344 911.821C264.791 911.084 263.965 911.053 261.911 910.869Z" fill="#D9D9D9"/>
<rect width="11.147" height="7.15039" rx="3" transform="matrix(0.942123 0.329961 -0.353974 0.937267 235.297 933.638)" fill="#D9D9D9"/>
<rect width="11.1665" height="7.13697" rx="3" transform="matrix(0.98017 0.194387 -0.209292 0.978666 226.59 968.72)" fill="#D9D9D9"/>
<path d="M302.407 973.439C299.254 989.054 289.372 1024.52 272.74 1021.4C249.826 1017.11 248.932 996.47 258.36 964.945C268.124 932.3 278.589 921.11 292.469 923.709C306.349 926.309 311.059 930.599 302.407 973.439Z" fill="url(#paint28_linear_31_1186)"/>
<ellipse rx="6.34358" ry="11.4396" transform="matrix(0.980142 -0.198295 0.213146 0.97702 362.334 866.656)" fill="#372831"/>
<path fill-rule="evenodd" clip-rule="evenodd" d="M385.817 912.524C402.799 905.557 402.361 883.769 396.31 870.091C393.414 863.546 387.912 861.877 381.1 862.679C373.329 865.557 370.132 875.437 369.47 886.949C368.661 901.008 372.165 913.496 380.977 914.453C382.771 913.757 384.399 913.106 385.817 912.524Z" fill="#E1C7B3"/>
<path d="M297.34 992.449C306.731 960.692 307.694 940.332 280.259 924.52L280.948 923.576C312.426 938.778 311.879 957.6 297.34 992.449Z" fill="#D94B4B"/>
<path fill-rule="evenodd" clip-rule="evenodd" d="M400.079 886.121C400.134 887.245 400.144 888.37 400.105 889.489C399.121 890.754 398.255 891.794 397.433 892.613C396.305 893.738 395.183 894.526 393.84 894.917C392.507 895.304 391.103 895.258 389.497 894.982C387.905 894.709 385.986 894.185 383.601 893.525C382.926 893.339 382.537 892.661 382.73 892.011C382.924 891.362 383.628 890.987 384.302 891.173C386.726 891.844 388.507 892.326 389.943 892.573C391.366 892.817 392.317 892.803 393.105 892.574C393.882 892.348 394.646 891.869 395.605 890.913C396.579 889.942 397.675 888.562 399.144 886.621C399.373 886.318 399.719 886.147 400.079 886.121Z" fill="#776969"/>
<path fill-rule="evenodd" clip-rule="evenodd" d="M396.758 871.144C396.612 870.788 396.462 870.436 396.309 870.09C394.83 866.747 392.671 864.676 390.005 863.557C387.804 863.995 385.033 864.888 384.267 866.658C381.757 872.463 393.842 872.769 396.758 871.144Z" fill="#776969"/>
<path d="M370.332 925.619C342.011 914.739 324.759 915.935 295.802 918.029C290.729 908.197 281.985 907.696 274.277 909.073C273.931 916.188 274.652 917.147 282.92 920.583C272.816 920.984 273.032 924.78 273.781 931.516C279.682 930.196 286.703 928.477 292.924 923.59C321.364 944.215 340.534 957.811 371.342 963.564C380.995 957.275 380.418 952.973 371.31 944.238C371.669 938.632 370.58 936.989 365.802 937.402C371.807 932.783 372.828 930.203 370.332 925.619Z" fill="#FFD80B"/>
<path fill-rule="evenodd" clip-rule="evenodd" d="M367.995 935.605C351.204 937.307 342.497 935.214 330.352 932.295C327.039 931.498 323.471 930.641 319.412 929.782C324.906 931.415 329.117 933.069 332.921 934.564C341.228 937.827 347.598 940.329 361.167 940.195L366.096 937.378C366 937.384 365.901 937.392 365.802 937.401C366.625 936.767 367.355 936.172 367.995 935.605ZM371.313 944.196C359.009 945.509 350.011 944.218 336.818 940.587C344.738 943.472 346.372 943.947 357.331 945.802C366.582 947.368 370.467 945.114 371.454 944.374C371.406 944.328 371.358 944.282 371.31 944.236C371.311 944.223 371.312 944.209 371.313 944.196Z" fill="black" fill-opacity="0.07"/>
</g>
<defs>
<filter id="filter0_d_31_1186" x="-16" y="652" width="1470" height="755" filterUnits="userSpaceOnUse" color-interpolation-filters="sRGB">
<feFlood flood-opacity="0" result="BackgroundImageFix"/>
<feColorMatrix in="SourceAlpha" type="matrix" values="0 0 0 0 0 0 0 0 0 0 0 0 0 0 0 0 0 0 127 0" result="hardAlpha"/>
<feOffset dy="-6"/>
<feGaussianBlur stdDeviation="8"/>
<feComposite in2="hardAlpha" operator="out"/>
<feColorMatrix type="matrix" values="0 0 0 0 0.827451 0 0 0 0 0.317647 0 0 0 0 0.215686 0 0 0 1 0"/>
<feBlend mode="normal" in2="BackgroundImageFix" result="effect1_dropShadow_31_1186"/>
<feBlend mode="normal" in="SourceGraphic" in2="effect1_dropShadow_31_1186" result="shape"/>
</filter>
<filter id="filter1_i_31_1186" x="507.314" y="937.493" width="102.686" height="170.608" filterUnits="userSpaceOnUse" color-interpolation-filters="sRGB">
<feFlood flood-opacity="0" result="BackgroundImageFix"/>
<feBlend mode="normal" in="SourceGraphic" in2="BackgroundImageFix" result="shape"/>
<feColorMatrix in="SourceAlpha" type="matrix" values="0 0 0 0 0 0 0 0 0 0 0 0 0 0 0 0 0 0 127 0" result="hardAlpha"/>
<feOffset dy="4"/>
<feGaussianBlur stdDeviation="2"/>
<feComposite in2="hardAlpha" operator="arithmetic" k2="-1" k3="1"/>
<feColorMatrix type="matrix" values="0 0 0 0 0.745098 0 0 0 0 0.729412 0 0 0 0 0.654902 0 0 0 0.25 0"/>
<feBlend mode="normal" in2="shape" result="effect1_innerShadow_31_1186"/>
</filter>
<filter id="filter2_d_31_1186" x="503.314" y="951.099" width="110.686" height="140.01" filterUnits="userSpaceOnUse" color-interpolation-filters="sRGB">
<feFlood flood-opacity="0" result="BackgroundImageFix"/>
<feColorMatrix in="SourceAlpha" type="matrix" values="0 0 0 0 0 0 0 0 0 0 0 0 0 0 0 0 0 0 127 0" result="hardAlpha"/>
<feOffset dy="4"/>
<feGaussianBlur stdDeviation="2"/>
<feComposite in2="hardAlpha" operator="out"/>
<feColorMatrix type="matrix" values="0 0 0 0 0 0 0 0 0 0 0 0 0 0 0 0 0 0 0.25 0"/>
<feBlend mode="normal" in2="BackgroundImageFix" result="effect1_dropShadow_31_1186"/>
<feBlend mode="normal" in="SourceGraphic" in2="effect1_dropShadow_31_1186" result="shape"/>
</filter>
<filter id="filter3_d_31_1186" x="570.447" y="1000.02" width="25.3457" height="36.229" filterUnits="userSpaceOnUse" color-interpolation-filters="sRGB">
<feFlood flood-opacity="0" result="BackgroundImageFix"/>
<feColorMatrix in="SourceAlpha" type="matrix" values="0 0 0 0 0 0 0 0 0 0 0 0 0 0 0 0 0 0 127 0" result="hardAlpha"/>
<feOffset dx="5" dy="-1"/>
<feGaussianBlur stdDeviation="2"/>
<feComposite in2="hardAlpha" operator="out"/>
<feColorMatrix type="matrix" values="0 0 0 0 0 0 0 0 0 0 0 0 0 0 0 0 0 0 0.25 0"/>
<feBlend mode="normal" in2="BackgroundImageFix" result="effect1_dropShadow_31_1186"/>
<feBlend mode="normal" in="SourceGraphic" in2="effect1_dropShadow_31_1186" result="shape"/>
</filter>
<radialGradient id="paint0_radial_31_1186" cx="0" cy="0" r="1" gradientUnits="userSpaceOnUse" gradientTransform="translate(720 696.5) rotate(90) scale(696.5 720)">
<stop stop-color="#FF911A"/>
<stop offset="0.916667" stop-color="#AC306C"/>
</radialGradient>
<linearGradient id="paint1_linear_31_1186" x1="-205.633" y1="445.169" x2="546.758" y2="497.493" gradientUnits="userSpaceOnUse">
<stop stop-color="#301052"/>
<stop offset="0.596583" stop-color="#301052" stop-opacity="0"/>
</linearGradient>
<linearGradient id="paint2_linear_31_1186" x1="721" y1="1079" x2="721" y2="1396" gradientUnits="userSpaceOnUse">
<stop stop-color="#5C1B59"/>
<stop offset="1" stop-color="#2D0931"/>
</linearGradient>
<linearGradient id="paint3_linear_31_1186" x1="1096" y1="1220" x2="1096" y2="1110" gradientUnits="userSpaceOnUse">
<stop stop-color="#310B35"/>
<stop offset="1" stop-color="#310B35" stop-opacity="0.3"/>
</linearGradient>
<linearGradient id="paint4_linear_31_1186" x1="428.5" y1="1188" x2="428.5" y2="1335" gradientUnits="userSpaceOnUse">
<stop stop-color="#732160"/>
<stop offset="1" stop-color="#732160" stop-opacity="0"/>
</linearGradient>
<radialGradient id="paint5_radial_31_1186" cx="0" cy="0" r="1" gradientUnits="userSpaceOnUse" gradientTransform="translate(660.556 903.224) rotate(-8.04331) scale(501.881 446.088)">
<stop stop-color="#FEBB02"/>
<stop offset="1" stop-color="#E95008" stop-opacity="0"/>
</radialGradient>
<linearGradient id="paint6_linear_31_1186" x1="2070.84" y1="216.74" x2="384.233" y2="962.431" gradientUnits="userSpaceOnUse">
<stop stop-color="#301052"/>
<stop offset="0.606367" stop-color="#301052" stop-opacity="0"/>
</linearGradient>
<linearGradient id="paint7_linear_31_1186" x1="354.997" y1="1102.6" x2="-83.2057" y2="1188.57" gradientUnits="userSpaceOnUse">
<stop stop-color="#360B3A"/>
<stop offset="1" stop-color="#360B3A" stop-opacity="0"/>
</linearGradient>
<linearGradient id="paint8_linear_31_1186" x1="466.496" y1="1103.19" x2="49.2703" y2="1134.73" gradientUnits="userSpaceOnUse">
<stop stop-color="#360B3A"/>
<stop offset="1" stop-color="#360B3A" stop-opacity="0"/>
</linearGradient>
<linearGradient id="paint9_linear_31_1186" x1="585.493" y1="1094.72" x2="386.773" y2="1137.81" gradientUnits="userSpaceOnUse">
<stop stop-color="#360B3A"/>
<stop offset="1" stop-color="#360B3A" stop-opacity="0"/>
</linearGradient>
<linearGradient id="paint10_linear_31_1186" x1="700" y1="744" x2="700" y2="1298.5" gradientUnits="userSpaceOnUse">
<stop stop-color="#B11A51"/>
<stop offset="1" stop-color="#B11A51" stop-opacity="0"/>
</linearGradient>
<linearGradient id="paint11_linear_31_1186" x1="700" y1="744" x2="700" y2="1298.5" gradientUnits="userSpaceOnUse">
<stop stop-color="#B11A51"/>
<stop offset="1" stop-color="#B11A51" stop-opacity="0"/>
</linearGradient>
<linearGradient id="paint12_linear_31_1186" x1="715" y1="372" x2="715" y2="-233.932" gradientUnits="userSpaceOnUse">
<stop stop-color="#B11A51" stop-opacity="0"/>
<stop offset="0.555283" stop-color="#872E87"/>
</linearGradient>
<linearGradient id="paint13_linear_31_1186" x1="715" y1="372" x2="715" y2="-233.932" gradientUnits="userSpaceOnUse">
<stop stop-color="#B11A51" stop-opacity="0"/>
<stop offset="0.555283" stop-color="#872E87"/>
</linearGradient>
<linearGradient id="paint14_linear_31_1186" x1="7.68642e-05" y1="1098" x2="1492.5" y2="1076.65" gradientUnits="userSpaceOnUse">
<stop stop-color="#45094F"/>
<stop offset="0.473958" stop-color="#82376C"/>
<stop offset="1" stop-color="#390561"/>
</linearGradient>
<linearGradient id="paint15_linear_31_1186" x1="7.68642e-05" y1="1098" x2="1492.5" y2="1076.65" gradientUnits="userSpaceOnUse">
<stop stop-color="#45094F"/>
<stop offset="0.473958" stop-color="#82376C"/>
<stop offset="1" stop-color="#390561"/>
</linearGradient>
<radialGradient id="paint16_radial_31_1186" cx="0" cy="0" r="1" gradientUnits="userSpaceOnUse" gradientTransform="translate(589.555 824.1) rotate(78.0421) scale(100.512 144.288)">
<stop stop-color="#FFC515"/>
<stop offset="1" stop-color="#FFC515" stop-opacity="0"/>
</radialGradient>
<linearGradient id="paint17_linear_31_1186" x1="539.523" y1="906.729" x2="575.55" y2="848.469" gradientUnits="userSpaceOnUse">
<stop stop-color="#56321E"/>
<stop offset="1" stop-color="#A86E41" stop-opacity="0.59"/>
</linearGradient>
<linearGradient id="paint18_linear_31_1186" x1="120.001" y1="930.5" x2="205.38" y2="1132.76" gradientUnits="userSpaceOnUse">
<stop stop-color="#340536"/>
<stop offset="0.832277" stop-color="#390939"/>
</linearGradient>
<linearGradient id="paint19_linear_31_1186" x1="1327.5" y1="1008.5" x2="1260.61" y2="997.879" gradientUnits="userSpaceOnUse">
<stop stop-color="#320534"/>
<stop offset="0.709509" stop-color="#2D062D"/>
</linearGradient>
<radialGradient id="paint20_radial_31_1186" cx="0" cy="0" r="1" gradientUnits="userSpaceOnUse" gradientTransform="translate(556.774 871.674) rotate(-61.8214) scale(65.1683 394.927)">
<stop stop-color="#FCEEAB"/>
<stop offset="1" stop-color="#FCEEAB" stop-opacity="0.4"/>
</radialGradient>
<linearGradient id="paint21_linear_31_1186" x1="596.31" y1="1015.86" x2="613.897" y2="1009.15" gradientUnits="userSpaceOnUse">
<stop stop-color="#AD806B"/>
<stop offset="0.674683" stop-color="#C99A81"/>
</linearGradient>
<linearGradient id="paint22_linear_31_1186" x1="550.588" y1="952.647" x2="570.884" y2="1083.62" gradientUnits="userSpaceOnUse">
<stop stop-color="#AD806B"/>
<stop offset="1" stop-color="#C99A81"/>
</linearGradient>
<linearGradient id="paint23_linear_31_1186" x1="584.793" y1="1015.03" x2="576.427" y2="1018.15" gradientUnits="userSpaceOnUse">
<stop stop-color="#B0826D"/>
<stop offset="0.901042" stop-color="#C89980"/>
</linearGradient>
<linearGradient id="paint24_linear_31_1186" x1="343.802" y1="1034.43" x2="350.884" y2="1096.59" gradientUnits="userSpaceOnUse">
<stop stop-color="#B39278"/>
<stop offset="1" stop-color="#C49E80"/>
</linearGradient>
<linearGradient id="paint25_linear_31_1186" x1="407.55" y1="1014.54" x2="340.792" y2="941.325" gradientUnits="userSpaceOnUse">
<stop stop-color="#C49E80"/>
<stop offset="1" stop-color="#B29278"/>
</linearGradient>
<linearGradient id="paint26_linear_31_1186" x1="312.899" y1="1018.92" x2="303.221" y2="1095.9" gradientUnits="userSpaceOnUse">
<stop stop-color="#C49E80"/>
<stop offset="1" stop-color="#B29278"/>
</linearGradient>
<linearGradient id="paint27_linear_31_1186" x1="288.909" y1="800.039" x2="304.813" y2="832.87" gradientUnits="userSpaceOnUse">
<stop stop-color="#FFD80B"/>
<stop offset="1" stop-color="#E7CE4F"/>
</linearGradient>
<linearGradient id="paint28_linear_31_1186" x1="289.287" y1="923.113" x2="270.943" y2="1021.07" gradientUnits="userSpaceOnUse">
<stop stop-color="#C49E80"/>
<stop offset="1" stop-color="#B29278"/>
</linearGradient>
<clipPath id="clip0_31_1186">
<rect width="1440" height="1390" fill="white"/>
</clipPath>
</defs>
</svg>
