<svg width="1437" height="1390" viewBox="0 0 1437 1390" fill="none" xmlns="http://www.w3.org/2000/svg">
<g clip-path="url(#clip0_26_1044)">
<rect x="-3" width="1440" height="188" fill="#220639"/>
<path d="M1436.92 497.881C1396.2 471.047 1354.77 466.776 1338 467C1377.27 477.287 1419.12 503.213 1436.89 516.383L1436.92 497.881Z" fill="url(#paint0_linear_26_1044)"/>
<path d="M1147.16 387.561C1161.78 378.45 1168.48 391.357 1170 398.949V258.78H1029.68L1041.43 286.814C1042.95 302.875 1048.61 356.899 1055.79 304.335C1060.27 271.523 1078.63 291.194 1096.25 356.899C1113.87 422.603 1096.25 422.603 1096.25 464.654C1096.25 506.704 1105.45 563.063 1113.87 544.223C1123.66 522.321 1128.88 398.949 1147.16 387.561Z" fill="url(#paint1_linear_26_1044)" fill-opacity="0.33"/>
<path d="M403.794 317.476C405.361 296.451 442.3 260.24 454.048 258.78H362.678L260.865 256C260.212 261.84 259.299 306.963 260.865 317.476C262.823 330.617 283.055 342.006 298.066 356.899C313.077 371.792 305.897 407.71 307.855 464.654C309.813 521.597 318.95 591.682 327.435 558.392C335.919 525.101 332.003 470.634 338.53 413.69C345.056 356.746 356.804 334.997 358.109 317.476C359.414 299.955 367.899 286.814 380.952 304.335C394.005 321.856 380.952 356.899 390.741 387.561C400.531 418.223 401.836 343.758 403.794 317.476Z" fill="url(#paint2_linear_26_1044)" fill-opacity="0.33"/>
<g filter="url(#filter0_d_26_1044)">
<path d="M130.333 112.447C103.256 110.809 30.1624 157.497 -3 181.045V659.181C5.54701 659.181 9.48351 565.442 58.7143 485.991C120.253 386.678 114.363 706.551 149.229 659.181C167.621 634.193 155.155 475.2 188.314 397.859C216.35 332.468 290.298 346.348 306.744 334.622C342.641 309.026 371.359 334.622 404.18 295.716C437 256.81 456.487 278.31 468.795 309.026C478.641 333.598 475.547 453.574 491.359 455.436C507.171 457.297 527.256 334.622 530.333 295.716C533.41 256.81 653.41 181.045 663.667 221.999C673.923 262.953 669.686 303.578 684.18 309.026C698.673 314.473 694.465 370.714 700.59 375.576C706.714 380.438 717 360.218 717 334.622C717 284.453 728.624 274.897 734.436 257.833C766.915 245.889 834.949 229.166 847.256 257.833C862.641 293.668 845.205 326.431 867.769 360.218C885.821 387.247 886.714 444.999 896.487 444.173C906.26 443.347 919.051 406.291 911.872 375.576C904.692 344.86 908.827 325.8 915.514 314.851C922.202 303.902 993.923 285.477 1042.13 295.716C1090.33 305.954 1146.99 344.86 1164.43 375.576C1181.86 406.291 1173.41 515.843 1190.85 515.843C1204.8 515.843 1194.5 622.288 1214.44 659.181C1234.37 696.073 1226.74 452.364 1239.05 426.768C1251.36 401.172 1259.56 449.293 1295.46 469.769C1331.36 490.246 1313.92 457.483 1351.87 469.769C1382.23 479.598 1421.27 504.58 1437 515.843V155.449C1416.49 129.853 1357 181.045 1259.56 181.045C1162.13 181.045 1047.26 73.5412 978.539 81.7319C909.821 89.9227 891.359 155.449 752.898 99.1373C614.436 42.8258 527.256 91.9704 501.615 112.447C475.974 132.924 373.41 160.568 342.641 155.449C318.026 151.353 260.59 143.504 234.949 140.091C211.359 131.559 157.41 114.085 130.333 112.447Z" fill="url(#paint3_linear_26_1044)" fill-opacity="0.5"/>
<path d="M130.333 112.447C103.256 110.809 30.1624 157.497 -3 181.045V659.181C5.54701 659.181 9.48351 565.442 58.7143 485.991C120.253 386.678 114.363 706.551 149.229 659.181C167.621 634.193 155.155 475.2 188.314 397.859C216.35 332.468 290.298 346.348 306.744 334.622C342.641 309.026 371.359 334.622 404.18 295.716C437 256.81 456.487 278.31 468.795 309.026C478.641 333.598 475.547 453.574 491.359 455.436C507.171 457.297 527.256 334.622 530.333 295.716C533.41 256.81 653.41 181.045 663.667 221.999C673.923 262.953 669.686 303.578 684.18 309.026C698.673 314.473 694.465 370.714 700.59 375.576C706.714 380.438 717 360.218 717 334.622C717 284.453 728.624 274.897 734.436 257.833C766.915 245.889 834.949 229.166 847.256 257.833C862.641 293.668 845.205 326.431 867.769 360.218C885.821 387.247 886.714 444.999 896.487 444.173C906.26 443.347 919.051 406.291 911.872 375.576C904.692 344.86 908.827 325.8 915.514 314.851C922.202 303.902 993.923 285.477 1042.13 295.716C1090.33 305.954 1146.99 344.86 1164.43 375.576C1181.86 406.291 1173.41 515.843 1190.85 515.843C1204.8 515.843 1194.5 622.288 1214.44 659.181C1234.37 696.073 1226.74 452.364 1239.05 426.768C1251.36 401.172 1259.56 449.293 1295.46 469.769C1331.36 490.246 1313.92 457.483 1351.87 469.769C1382.23 479.598 1421.27 504.58 1437 515.843V155.449C1416.49 129.853 1357 181.045 1259.56 181.045C1162.13 181.045 1047.26 73.5412 978.539 81.7319C909.821 89.9227 891.359 155.449 752.898 99.1373C614.436 42.8258 527.256 91.9704 501.615 112.447C475.974 132.924 373.41 160.568 342.641 155.449C318.026 151.353 260.59 143.504 234.949 140.091C211.359 131.559 157.41 114.085 130.333 112.447Z" fill="url(#paint4_linear_26_1044)"/>
</g>
<path d="M184.5 423.001C175.5 459 169 516 167.516 546.244C165.761 582.026 164.444 663.954 148.058 664.978C131.671 666.001 160.347 632.224 160.347 614.823C160.347 597.423 162.396 572.857 155.227 546.244C148.058 519.632 140.888 503.255 148.058 496.09C153.793 490.358 157.275 492.337 158.299 494.043C154.885 494.384 150.106 497.113 150.106 505.302C150.106 514.772 160.626 537.139 162.2 546.333C161.16 524.44 159.586 355.68 257.642 342.555C372.347 327.201 258.193 344.943 240.5 352.501C212 364.675 199.862 374.893 184.5 423.001Z" fill="url(#paint5_linear_26_1044)"/>
<path d="M1181.88 384.779C1178.61 357.727 1116.6 324.321 1086 311C1169.64 359.162 1135.98 354.038 1155.36 362.236C1174.74 370.433 1179.84 468.806 1181.88 484.177C1183.92 499.548 1181.88 511.844 1192.08 516.968C1202.27 522.091 1201.25 585.624 1204.31 612.266C1207.37 638.909 1213.5 658.5 1218.5 662.5C1222.49 665.695 1219.61 646.082 1213.49 621.489C1207.37 596.896 1210.43 528.24 1206.35 511.844C1202.27 495.449 1181.88 494.424 1197.18 471.88C1209.41 453.845 1200.24 441.822 1194.12 438.065C1197.52 442.164 1202.27 452.616 1194.12 461.633C1183.92 472.905 1185.96 418.595 1181.88 384.779Z" fill="url(#paint6_linear_26_1044)"/>
<path d="M15.9996 568.5C30.469 486.231 69.1663 469.667 81.4996 467C81.9996 467.5 72.5552 473.955 65.4997 482C46.6435 503.5 22.9997 576.5 15.9997 608C14.4204 615.107 6.49963 655 3.99963 658C1.49963 661 -1.5003 668 15.9996 568.5Z" fill="url(#paint7_linear_26_1044)"/>
<path d="M184.5 410.001C175.5 446 169 503 167.516 533.244C165.761 569.026 164.444 650.954 148.058 651.978C131.671 653.001 160.347 619.224 160.347 601.823C160.347 584.423 162.396 559.857 155.227 533.244C148.058 506.632 140.888 490.255 148.058 483.09C153.793 477.358 157.275 479.337 158.299 481.043C154.885 481.384 150.106 484.113 150.106 492.302C150.106 501.772 160.626 524.139 162.2 533.333C161.16 511.44 159.586 342.68 257.642 329.555C372.347 314.201 258.193 331.943 240.5 339.501C212 351.675 199.862 361.893 184.5 410.001Z" fill="url(#paint8_linear_26_1044)"/>
<path d="M1181.88 371.779C1178.61 344.727 1116.6 311.321 1086 298C1169.64 346.162 1135.98 341.038 1155.36 349.236C1174.74 357.433 1179.84 455.806 1181.88 471.177C1183.92 486.548 1181.88 498.844 1192.08 503.968C1202.27 509.091 1201.25 572.624 1204.31 599.266C1207.37 625.909 1213.5 645.5 1218.5 649.5C1222.49 652.695 1219.61 633.082 1213.49 608.489C1207.37 583.896 1210.43 515.24 1206.35 498.844C1202.27 482.449 1181.88 481.424 1197.18 458.88C1209.41 440.845 1200.24 428.822 1194.12 425.065C1197.52 429.164 1202.27 439.616 1194.12 448.633C1183.92 459.905 1185.96 405.595 1181.88 371.779Z" fill="url(#paint9_linear_26_1044)"/>
<path d="M1439.92 484.881C1399.2 458.047 1357.77 453.776 1341 454C1380.27 464.287 1422.12 490.213 1439.89 503.383L1439.92 484.881Z" fill="url(#paint10_linear_26_1044)"/>
<path d="M16.0006 555.5C30.47 473.231 69.1673 456.667 81.5006 454C82.0006 454.5 72.5562 460.955 65.5006 469C46.6445 490.5 23.0006 563.5 16.0006 595C14.4214 602.107 6.50061 642 4.00061 645C1.50061 648 -1.49933 655 16.0006 555.5Z" fill="url(#paint11_linear_26_1044)"/>
</g>
<defs>
<filter id="filter0_d_26_1044" x="-11" y="73" width="1456" height="607" filterUnits="userSpaceOnUse" color-interpolation-filters="sRGB">
<feFlood flood-opacity="0" result="BackgroundImageFix"/>
<feColorMatrix in="SourceAlpha" type="matrix" values="0 0 0 0 0 0 0 0 0 0 0 0 0 0 0 0 0 0 127 0" result="hardAlpha"/>
<feOffset dy="8"/>
<feGaussianBlur stdDeviation="4"/>
<feComposite in2="hardAlpha" operator="out"/>
<feColorMatrix type="matrix" values="0 0 0 0 1 0 0 0 0 0.846667 0 0 0 0 0.0416667 0 0 0 0.27 0"/>
<feBlend mode="normal" in2="BackgroundImageFix" result="effect1_dropShadow_26_1044"/>
<feBlend mode="normal" in="SourceGraphic" in2="effect1_dropShadow_26_1044" result="shape"/>
</filter>
<linearGradient id="paint0_linear_26_1044" x1="1362.2" y1="500.975" x2="1377.12" y2="469.766" gradientUnits="userSpaceOnUse">
<stop stop-color="#FFA13A"/>
<stop offset="1" stop-color="#88144C"/>
</linearGradient>
<linearGradient id="paint1_linear_26_1044" x1="715" y1="567" x2="715" y2="67.1464" gradientUnits="userSpaceOnUse">
<stop stop-color="#B11A51" stop-opacity="0"/>
<stop offset="0.555283" stop-color="#872E87"/>
</linearGradient>
<linearGradient id="paint2_linear_26_1044" x1="715" y1="567" x2="715" y2="67.1464" gradientUnits="userSpaceOnUse">
<stop stop-color="#B11A51" stop-opacity="0"/>
<stop offset="0.555283" stop-color="#872E87"/>
</linearGradient>
<linearGradient id="paint3_linear_26_1044" x1="-206.657" y1="578.222" x2="1572.76" y2="627.776" gradientUnits="userSpaceOnUse">
<stop stop-color="#AD1F63"/>
<stop offset="0.0001" stop-color="#301052"/>
<stop offset="0.520833" stop-color="#78195D"/>
<stop offset="0.992231" stop-color="#301052"/>
</linearGradient>
<linearGradient id="paint4_linear_26_1044" x1="717" y1="73" x2="717" y2="659.181" gradientUnits="userSpaceOnUse">
<stop stop-color="#1F053C"/>
<stop offset="1" stop-color="#B11A51"/>
</linearGradient>
<linearGradient id="paint5_linear_26_1044" x1="112.212" y1="558.527" x2="312.946" y2="558.527" gradientUnits="userSpaceOnUse">
<stop stop-color="#C33C4A" stop-opacity="0"/>
<stop offset="0.594232" stop-color="#F98507"/>
</linearGradient>
<linearGradient id="paint6_linear_26_1044" x1="1162.5" y1="647.107" x2="1287.79" y2="437.553" gradientUnits="userSpaceOnUse">
<stop stop-color="#FFA13A"/>
<stop offset="1" stop-color="#751249"/>
</linearGradient>
<linearGradient id="paint7_linear_26_1044" x1="67.4997" y1="652" x2="56.6276" y2="467.7" gradientUnits="userSpaceOnUse">
<stop stop-color="#FFA13A"/>
<stop offset="1" stop-color="#751249"/>
</linearGradient>
<linearGradient id="paint8_linear_26_1044" x1="112.212" y1="545.527" x2="312.946" y2="545.527" gradientUnits="userSpaceOnUse">
<stop stop-color="#C33C4A" stop-opacity="0"/>
<stop offset="0.594232" stop-color="#F98507"/>
</linearGradient>
<linearGradient id="paint9_linear_26_1044" x1="1162.5" y1="634.107" x2="1287.79" y2="424.553" gradientUnits="userSpaceOnUse">
<stop stop-color="#FFA13A"/>
<stop offset="1" stop-color="#751249"/>
</linearGradient>
<linearGradient id="paint10_linear_26_1044" x1="1365.2" y1="487.975" x2="1380.12" y2="456.766" gradientUnits="userSpaceOnUse">
<stop stop-color="#FFA13A"/>
<stop offset="1" stop-color="#88144C"/>
</linearGradient>
<linearGradient id="paint11_linear_26_1044" x1="67.5007" y1="639" x2="56.6286" y2="454.7" gradientUnits="userSpaceOnUse">
<stop stop-color="#FFA13A"/>
<stop offset="1" stop-color="#751249"/>
</linearGradient>
<clipPath id="clip0_26_1044">
<rect width="1437" height="1390" fill="white"/>
</clipPath>
</defs>
</svg>
