<svg width="1440" height="826" viewBox="0 0 1440 826" fill="none" xmlns="http://www.w3.org/2000/svg">
<g clip-path="url(#clip0_39_986)">
<g filter="url(#filter0_f_39_986)">
<path d="M366.419 308.592C261.569 283.027 163.175 253.775 127.085 242.345C-96.8038 173.295 -5.80901 215.525 265.582 298.037C536.972 380.55 676.88 391.741 648.99 388.109C621.1 384.478 423.675 335.227 492.661 350.024C561.647 364.822 621.153 376.221 613.467 373.466C605.78 370.711 497.482 340.549 366.419 308.592Z" fill="#FFEBDC" fill-opacity="0.2"/>
</g>
<g filter="url(#filter1_f_39_986)">
<path d="M408.717 297.921C466.725 277.736 769.105 215.559 932.128 153.45C1052.2 107.705 1116.71 77.2643 1152.03 59.1253C1055.53 96.2688 936.975 140.74 1008.75 112.395C1088.8 80.7855 1159.96 52.1077 1184.41 41.8155C1187.94 39.9304 1190.43 38.709 1192.25 38.1064C1195.32 37.0952 1192.28 38.5032 1184.41 41.8155C1177.94 45.2677 1167.96 50.9459 1152.03 59.1253C1197.78 41.5161 1238.58 25.5538 1251.79 19.778C1292.87 1.81948 1101.34 133.058 658.118 248.441C218.751 362.821 0.212214 374.677 408.717 297.921Z" fill="#FFEBDC" fill-opacity="0.2"/>
</g>
<rect y="-100" width="1448" height="1039" fill="url(#paint0_linear_39_986)"/>
<g filter="url(#filter2_f_39_986)">
<path d="M1279.71 237.097C1179.23 251.629 1145.9 282.084 1123 371.839V512.582H1458V132.904C1458 100.719 1374.9 123.69 1365.37 160.725C1355.81 148.848 1324.61 153.414 1339.35 186.364C1323.05 173.934 1268.17 202.471 1279.71 237.097Z" fill="#FFF7F4"/>
<path fill-rule="evenodd" clip-rule="evenodd" d="M1114.47 584.897C1111.4 587.424 1107.92 589.442 1104.07 590.839C1091.34 595.461 1077.23 592.311 1065.4 583.613C1062.49 590.041 1058.29 596.06 1052.8 601.276C1030.51 622.472 995.502 622.379 974.604 601.066C953.705 579.754 954.832 545.295 977.121 524.098C994.997 507.098 1021.06 503.793 1041.46 514.147C1044.16 505.08 1049.17 497.354 1056.11 492.13C1055.91 491.655 1055.72 491.175 1055.54 490.689C1048.91 472.991 1054.94 454.508 1068.99 449.406C1075.81 446.931 1083.27 448.062 1089.89 451.905C1096.65 423.765 1125.65 405.973 1155.47 412.003C1181.36 417.24 1199.49 438.747 1200.51 462.969C1201.02 463.05 1201.54 463.142 1202.05 463.247C1218.33 466.539 1229.65 480.236 1229.92 495.521C1231.88 496.8 1233.74 498.307 1235.43 500.04C1248.35 513.215 1247.66 534.517 1233.88 547.62C1227.08 554.083 1218.37 557.344 1209.74 557.409C1207.45 567.892 1202.02 577.911 1193.52 585.999C1171.23 607.196 1136.22 607.102 1115.32 585.79C1115.03 585.494 1114.75 585.197 1114.47 584.897Z" fill="#FFE1D2"/>
<path fill-rule="evenodd" clip-rule="evenodd" d="M1114.47 584.897C1111.4 587.424 1107.92 589.442 1104.07 590.839C1091.34 595.461 1077.23 592.311 1065.4 583.613C1062.49 590.041 1058.29 596.06 1052.8 601.276C1030.51 622.472 995.502 622.379 974.604 601.066C953.705 579.754 954.832 545.295 977.121 524.098C994.997 507.098 1021.06 503.793 1041.46 514.147C1044.16 505.08 1049.17 497.354 1056.11 492.13C1055.91 491.655 1055.72 491.175 1055.54 490.689C1048.91 472.991 1054.94 454.508 1068.99 449.406C1075.81 446.931 1083.27 448.062 1089.89 451.905C1096.65 423.765 1125.65 405.973 1155.47 412.003C1181.36 417.24 1199.49 438.747 1200.51 462.969C1201.02 463.05 1201.54 463.142 1202.05 463.247C1218.33 466.539 1229.65 480.236 1229.92 495.521C1231.88 496.8 1233.74 498.307 1235.43 500.04C1248.35 513.215 1247.66 534.517 1233.88 547.62C1227.08 554.083 1218.37 557.344 1209.74 557.409C1207.45 567.892 1202.02 577.911 1193.52 585.999C1171.23 607.196 1136.22 607.102 1115.32 585.79C1115.03 585.494 1114.75 585.197 1114.47 584.897Z" fill="#FFE1D2"/>
<path fill-rule="evenodd" clip-rule="evenodd" d="M1114.47 584.897C1111.4 587.424 1107.92 589.442 1104.07 590.839C1091.34 595.461 1077.23 592.311 1065.4 583.613C1062.49 590.041 1058.29 596.06 1052.8 601.276C1030.51 622.472 995.502 622.379 974.604 601.066C953.705 579.754 954.832 545.295 977.121 524.098C994.997 507.098 1021.06 503.793 1041.46 514.147C1044.16 505.08 1049.17 497.354 1056.11 492.13C1055.91 491.655 1055.72 491.175 1055.54 490.689C1048.91 472.991 1054.94 454.508 1068.99 449.406C1075.81 446.931 1083.27 448.062 1089.89 451.905C1096.65 423.765 1125.65 405.973 1155.47 412.003C1181.36 417.24 1199.49 438.747 1200.51 462.969C1201.02 463.05 1201.54 463.142 1202.05 463.247C1218.33 466.539 1229.65 480.236 1229.92 495.521C1231.88 496.8 1233.74 498.307 1235.43 500.04C1248.35 513.215 1247.66 534.517 1233.88 547.62C1227.08 554.083 1218.37 557.344 1209.74 557.409C1207.45 567.892 1202.02 577.911 1193.52 585.999C1171.23 607.196 1136.22 607.102 1115.32 585.79C1115.03 585.494 1114.75 585.197 1114.47 584.897Z" fill="#FFE1D2"/>
<path d="M86.7437 167.869C36.1927 148.858 19.6472 158.193 -8.50562 177.144V658.915H860.368V539.973C843.246 499.041 823.946 487.814 764.565 497.961C802.93 467.464 773.017 372.499 677.068 420.485C656.025 377.926 575.174 375.744 541.393 404.117C520.193 374.564 499.652 376.743 463.33 380.595L462.757 380.656C468.078 352.485 468.198 337.806 431.192 326.095C430.828 313.407 427.802 309.428 416.24 309.181C421.974 290.265 421.89 280.177 386.336 267.715C400.544 254.81 396.491 178.395 314.899 200.059C301.618 154.906 260.629 144.406 236.817 142.769C237.645 108.593 130.513 58.2644 86.7437 167.869Z" fill="#FFF7F4"/>
<path d="M192.288 325.015C216.891 229.139 17.2877 155.365 -11.3318 277.97V658.915H551.794C659.783 647.136 588.004 571.871 551.794 579.169C537.075 489.395 491.234 502.114 419.472 508.029C433.841 466.048 391.678 455.248 391.678 455.248C403.869 438.26 377.396 388.405 330.048 395.008C348.97 270.088 209.389 279.855 192.288 325.015Z" fill="#FFE9DE"/>
<path d="M1324.5 281.016C1243.72 278.7 1234.9 308.23 1229 369.192V484.582H1445V208.626C1362.92 204.251 1326.74 210.982 1324.5 281.016Z" fill="#FFEBE0"/>
<path d="M165.226 219.036C121.573 196.918 105.53 212.432 80.9255 253.382C42.8409 269.409 53.3941 280.994 70.9425 301.904C50.6971 333.222 63.7147 339.082 97.5637 344.428C94.6232 396.987 105.071 412.596 158.016 401.128C193.44 416.025 212.177 417.91 238.989 383.137C266.841 406.349 283.535 412.322 318.298 390.224C358.914 405.388 365.911 396.296 378.75 376.049C395.599 349.48 372.033 324.347 331.608 310.627C334.74 288.793 333.217 277.719 294.45 270.828C290.647 252.598 286.053 248.174 272.265 253.382C263.014 226.508 259.922 209.384 220.687 211.948C218.847 192.677 212.611 192.997 198.502 199.954C172.751 192.075 167.566 198.772 165.226 219.036Z" fill="#FFEBE0"/>
<path d="M175.126 351.449C197.656 260.367 14.8756 190.282 -11.3318 306.757V668.655H504.333C603.219 657.464 537.49 585.963 504.333 592.896C490.854 507.61 448.877 519.694 383.163 525.312C396.321 485.43 357.711 475.17 357.711 475.17C368.875 459.032 344.633 411.67 301.276 417.942C318.603 299.268 190.786 308.547 175.126 351.449Z" fill="#FFE1D2"/>
<path d="M1356.08 303.589C1342.31 253.629 1453.99 215.186 1470 279.075V477.582H1154.94C1094.52 471.444 1134.68 432.224 1154.94 436.027C1163.18 389.246 1188.82 395.874 1228.97 398.956C1220.93 377.08 1244.52 371.452 1244.52 371.452C1237.7 362.6 1252.51 336.622 1279 340.062C1268.42 274.967 1346.51 280.057 1356.08 303.589Z" fill="#FFE1D2"/>
<path fill-rule="evenodd" clip-rule="evenodd" d="M17.2114 366.117C16.6472 366.142 16.0798 366.154 15.5094 366.154C-5.29672 366.154 -22.1635 349.544 -22.1635 329.054C-22.1635 308.565 -5.29672 291.955 15.5094 291.955C25.7703 291.955 35.073 295.994 41.8671 302.547C51.6923 295.867 63.6071 291.955 76.4497 291.955C110.107 291.955 137.391 318.824 137.391 351.969C137.391 385.114 110.107 411.983 76.4497 411.983C47.7415 411.983 23.6696 392.435 17.2114 366.117Z" fill="#FFF7F4"/>
<path fill-rule="evenodd" clip-rule="evenodd" d="M140.202 433.77C139.638 433.794 139.07 433.807 138.5 433.807C117.694 433.807 100.827 417.197 100.827 396.707C100.827 376.217 117.694 359.607 138.5 359.607C148.761 359.607 158.063 363.647 164.857 370.2C174.683 363.519 186.597 359.607 199.44 359.607C233.097 359.607 260.382 386.477 260.382 419.622C260.382 452.767 233.097 479.636 199.44 479.636C170.732 479.636 146.66 460.087 140.202 433.77Z" fill="#FFF7F4"/>
<path fill-rule="evenodd" clip-rule="evenodd" d="M238.707 474.707C238.37 474.848 238.029 474.983 237.683 475.11C225.066 479.753 211.015 473.445 206.3 461.019C201.585 448.594 207.991 434.757 220.609 430.114C226.831 427.824 233.402 428.198 239.031 430.656C243.452 424.412 249.777 419.381 257.565 416.515C277.975 409.003 300.704 419.209 308.331 439.308C315.958 459.408 305.595 481.791 285.185 489.302C267.776 495.709 248.679 489.226 238.707 474.707Z" fill="#FFF7F4"/>
<path d="M113.984 392.836C197.997 390.52 207.165 420.036 213.304 480.97V596.306H-11.3319V320.479C74.0323 316.106 111.651 322.834 113.984 392.836Z" fill="#FFEBE0"/>
<path d="M374.086 668.924C412.071 699.497 431.023 687.589 463.71 652.531C504.307 644.627 496.441 631.129 483.708 607.074C510.102 580.554 498.62 572.157 466.673 560.006C480.643 509.157 473.73 491.743 419.574 492.148C388.105 470.325 370.194 464.651 336.655 493.211C314.34 464.796 299.289 455.537 260.655 470.064C224.169 446.919 215.413 454.39 198.593 471.585C176.52 494.151 194.241 523.569 230.845 545.261C223.175 565.995 222.326 577.147 258.752 591.814C258.618 610.437 262.174 615.707 276.746 613.426C280.112 641.624 279.517 659.019 318.397 664.527C316.126 683.768 322.287 684.729 337.542 680.802C361.041 693.778 367.521 688.282 374.086 668.924Z" fill="#FFF7F4"/>
<path d="M1251.18 564.46C1213.2 595.033 1194.25 583.125 1161.56 548.067C1120.96 540.163 1128.83 526.665 1141.56 502.61C1115.17 476.09 1126.65 467.694 1158.6 455.542C1144.63 404.694 1151.54 387.279 1205.7 387.684C1237.16 365.861 1255.07 360.187 1288.61 388.747C1310.93 360.332 1325.98 351.073 1364.61 365.6C1401.1 342.455 1409.86 349.926 1426.68 367.121C1448.75 389.687 1431.03 419.106 1394.42 440.797C1402.09 461.531 1402.94 472.683 1366.52 487.351C1366.65 505.973 1363.1 511.243 1348.52 508.962C1345.16 537.16 1345.75 554.555 1306.87 560.063C1309.14 579.304 1302.98 580.265 1287.73 576.338C1264.23 589.314 1257.75 583.818 1251.18 564.46Z" fill="#FFF7F4"/>
<path d="M119.131 664.366C70.5452 657.681 66.5456 635.896 70.4677 588.458C48.7814 553.749 64.1833 550.265 90.7587 543.127C92.5924 506.037 106.65 508.632 137.406 523.466C165.81 478.829 183.483 471.996 219.968 511.411C257.607 519.33 274.002 528.419 275.502 572.06C311.835 568.885 328.958 573.473 344.375 611.262C386.408 621.909 386.789 633.313 385.4 657.149C383.577 688.43 349.616 695.606 308.587 683.887C298.346 703.514 290.612 711.703 254.939 695.341C241.151 708.087 234.809 709.097 226.61 697.017C203.31 713.738 190.751 725.984 160.236 701.626C147.44 716.338 142.539 712.538 135.103 698.845C109.47 690.677 109.165 682.259 119.131 664.366Z" fill="#FFE9DE"/>
<path d="M-41.0002 490.21C-28.5656 426.379 36.1985 438.837 42.5876 471.661C75.8656 444.36 149.675 513.715 123.627 547.756C132.265 537.04 191.621 508.166 200.353 562.768C215.886 560.196 221.092 563.685 219.174 585.682C256.235 573.549 263.208 583.968 273.423 605.322C318.334 597.287 329.853 609.858 327.118 661.514C370.701 702.601 355.101 713.377 291.137 721.524H-41.0002V490.21Z" fill="#FFF7F4"/>
<path fill-rule="evenodd" clip-rule="evenodd" d="M1141.24 485.173C1135.43 489.958 1130.76 495.583 1127.24 501.718C1124.39 501.024 1121.4 500.651 1118.33 500.64C1097.52 500.568 1080.59 517.119 1080.52 537.609C1080.52 538.171 1080.53 538.731 1080.55 539.287C1053.81 545.553 1033.87 569.19 1033.77 597.462C1033.65 630.607 1060.84 657.571 1094.49 657.688C1112.05 657.749 1127.91 650.49 1139.07 638.825C1148.1 660.695 1169.86 676.149 1195.33 676.237C1228.98 676.354 1256.36 649.58 1256.48 616.435C1256.53 603.788 1252.6 592.041 1245.85 582.341C1252.53 575.674 1256.66 566.526 1256.7 556.421C1256.71 552.49 1256.1 548.699 1254.97 545.14C1258.95 543.706 1262.74 541.581 1266.18 538.751C1282.14 525.607 1284.26 502.209 1270.91 486.491C1257.57 470.773 1233.81 468.686 1217.85 481.83C1217.41 482.191 1216.98 482.559 1216.56 482.935C1194.47 466.826 1163.27 467.037 1141.24 485.173Z" fill="#FFEBE0"/>
<path fill-rule="evenodd" clip-rule="evenodd" d="M1162.5 676.719C1159.44 679.246 1155.96 681.263 1152.11 682.66C1139.38 687.283 1125.27 684.132 1113.43 675.434C1110.52 681.863 1106.32 687.882 1100.84 693.098C1078.55 714.295 1043.54 714.201 1022.64 692.889C1001.74 671.577 1002.87 637.117 1025.16 615.92C1043.03 598.919 1069.09 595.615 1089.49 605.97C1092.2 596.902 1097.21 589.176 1104.14 583.951C1103.95 583.477 1103.76 582.997 1103.57 582.511C1096.95 564.812 1102.97 546.329 1117.03 541.228C1123.85 538.753 1131.3 539.883 1137.93 543.726C1144.69 515.587 1173.69 497.795 1203.5 503.825C1229.39 509.062 1247.53 530.569 1248.55 554.791C1249.06 554.872 1249.57 554.965 1250.09 555.069C1266.37 558.361 1277.69 572.059 1277.96 587.344C1279.92 588.623 1281.77 590.129 1283.47 591.862C1296.39 605.036 1295.69 626.339 1281.91 639.442C1275.12 645.904 1266.41 649.165 1257.78 649.231C1255.48 659.714 1250.06 669.733 1241.56 677.821C1219.27 699.018 1184.26 698.924 1163.36 677.612C1163.07 677.317 1162.78 677.019 1162.5 676.719Z" fill="#FFE1D2"/>
<path fill-rule="evenodd" clip-rule="evenodd" d="M1162.5 676.719C1159.44 679.246 1155.96 681.263 1152.11 682.66C1139.38 687.283 1125.27 684.132 1113.43 675.434C1110.52 681.863 1106.32 687.882 1100.84 693.098C1078.55 714.295 1043.54 714.201 1022.64 692.889C1001.74 671.577 1002.87 637.117 1025.16 615.92C1043.03 598.919 1069.09 595.615 1089.49 605.97C1092.2 596.902 1097.21 589.176 1104.14 583.951C1103.95 583.477 1103.76 582.997 1103.57 582.511C1096.95 564.812 1102.97 546.329 1117.03 541.228C1123.85 538.753 1131.3 539.883 1137.93 543.726C1144.69 515.587 1173.69 497.795 1203.5 503.825C1229.39 509.062 1247.53 530.569 1248.55 554.791C1249.06 554.872 1249.57 554.965 1250.09 555.069C1266.37 558.361 1277.69 572.059 1277.96 587.344C1279.92 588.623 1281.77 590.129 1283.47 591.862C1296.39 605.036 1295.69 626.339 1281.91 639.442C1275.12 645.904 1266.41 649.165 1257.78 649.231C1255.48 659.714 1250.06 669.733 1241.56 677.821C1219.27 699.018 1184.26 698.924 1163.36 677.612C1163.07 677.317 1162.78 677.019 1162.5 676.719Z" fill="#FFE1D2"/>
<path fill-rule="evenodd" clip-rule="evenodd" d="M1162.5 676.719C1159.44 679.246 1155.96 681.263 1152.11 682.66C1139.38 687.283 1125.27 684.132 1113.43 675.434C1110.52 681.863 1106.32 687.882 1100.84 693.098C1078.55 714.295 1043.54 714.201 1022.64 692.889C1001.74 671.577 1002.87 637.117 1025.16 615.92C1043.03 598.919 1069.09 595.615 1089.49 605.97C1092.2 596.902 1097.21 589.176 1104.14 583.951C1103.95 583.477 1103.76 582.997 1103.57 582.511C1096.95 564.812 1102.97 546.329 1117.03 541.228C1123.85 538.753 1131.3 539.883 1137.93 543.726C1144.69 515.587 1173.69 497.795 1203.5 503.825C1229.39 509.062 1247.53 530.569 1248.55 554.791C1249.06 554.872 1249.57 554.965 1250.09 555.069C1266.37 558.361 1277.69 572.059 1277.96 587.344C1279.92 588.623 1281.77 590.129 1283.47 591.862C1296.39 605.036 1295.69 626.339 1281.91 639.442C1275.12 645.904 1266.41 649.165 1257.78 649.231C1255.48 659.714 1250.06 669.733 1241.56 677.821C1219.27 699.018 1184.26 698.924 1163.36 677.612C1163.07 677.317 1162.78 677.019 1162.5 676.719Z" fill="#FFE1D2"/>
<path fill-rule="evenodd" clip-rule="evenodd" d="M1351.82 577.941C1348.75 580.468 1345.28 582.485 1341.43 583.882C1328.69 588.505 1314.58 585.354 1302.75 576.656C1299.84 583.085 1295.64 589.104 1290.15 594.321C1267.86 615.517 1232.85 615.423 1211.96 594.111C1191.06 572.799 1192.18 538.339 1214.47 517.143C1232.35 500.142 1258.41 496.837 1278.81 507.192C1281.51 498.124 1286.52 490.398 1293.46 485.173C1293.26 484.699 1293.07 484.219 1292.89 483.733C1286.27 466.034 1292.29 447.551 1306.34 442.45C1313.16 439.974 1320.62 441.105 1327.25 444.948C1334 416.809 1363.01 399.017 1392.82 405.047C1418.71 410.284 1436.85 431.791 1437.86 456.013C1438.38 456.094 1438.89 456.186 1439.41 456.29C1455.68 459.583 1467 473.281 1467.27 488.566C1469.24 489.845 1471.09 491.351 1472.79 493.084C1485.71 506.259 1485.01 527.561 1471.23 540.664C1464.44 547.127 1455.73 550.388 1447.1 550.453C1444.8 560.936 1439.38 570.956 1430.87 579.044C1408.58 600.241 1373.57 600.147 1352.68 578.835C1352.39 578.539 1352.1 578.241 1351.82 577.941Z" fill="#FFE1D2"/>
<path fill-rule="evenodd" clip-rule="evenodd" d="M1351.82 577.941C1348.75 580.468 1345.28 582.485 1341.43 583.882C1328.69 588.505 1314.58 585.354 1302.75 576.656C1299.84 583.085 1295.64 589.104 1290.15 594.321C1267.86 615.517 1232.85 615.423 1211.96 594.111C1191.06 572.799 1192.18 538.339 1214.47 517.143C1232.35 500.142 1258.41 496.837 1278.81 507.192C1281.51 498.124 1286.52 490.398 1293.46 485.173C1293.26 484.699 1293.07 484.219 1292.89 483.733C1286.27 466.034 1292.29 447.551 1306.34 442.45C1313.16 439.974 1320.62 441.105 1327.25 444.948C1334 416.809 1363.01 399.017 1392.82 405.047C1418.71 410.284 1436.85 431.791 1437.86 456.013C1438.38 456.094 1438.89 456.186 1439.41 456.29C1455.68 459.583 1467 473.281 1467.27 488.566C1469.24 489.845 1471.09 491.351 1472.79 493.084C1485.71 506.259 1485.01 527.561 1471.23 540.664C1464.44 547.127 1455.73 550.388 1447.1 550.453C1444.8 560.936 1439.38 570.956 1430.87 579.044C1408.58 600.241 1373.57 600.147 1352.68 578.835C1352.39 578.539 1352.1 578.241 1351.82 577.941Z" fill="#FFE1D2"/>
<path fill-rule="evenodd" clip-rule="evenodd" d="M1351.82 577.941C1348.75 580.468 1345.28 582.485 1341.43 583.882C1328.69 588.505 1314.58 585.354 1302.75 576.656C1299.84 583.085 1295.64 589.104 1290.15 594.321C1267.86 615.517 1232.85 615.423 1211.96 594.111C1191.06 572.799 1192.18 538.339 1214.47 517.143C1232.35 500.142 1258.41 496.837 1278.81 507.192C1281.51 498.124 1286.52 490.398 1293.46 485.173C1293.26 484.699 1293.07 484.219 1292.89 483.733C1286.27 466.034 1292.29 447.551 1306.34 442.45C1313.16 439.974 1320.62 441.105 1327.25 444.948C1334 416.809 1363.01 399.017 1392.82 405.047C1418.71 410.284 1436.85 431.791 1437.86 456.013C1438.38 456.094 1438.89 456.186 1439.41 456.29C1455.68 459.583 1467 473.281 1467.27 488.566C1469.24 489.845 1471.09 491.351 1472.79 493.084C1485.71 506.259 1485.01 527.561 1471.23 540.664C1464.44 547.127 1455.73 550.388 1447.1 550.453C1444.8 560.936 1439.38 570.956 1430.87 579.044C1408.58 600.241 1373.57 600.147 1352.68 578.835C1352.39 578.539 1352.1 578.241 1351.82 577.941Z" fill="#FFE1D2"/>
<path d="M1213.77 550.381C1129.75 548.066 1120.59 577.582 1114.45 638.516V753.852H1339.08V478.024C1253.72 473.651 1216.1 480.379 1213.77 550.381Z" fill="#FFF7F4"/>
<path d="M1403.68 449.448C1319.67 447.133 1310.5 476.649 1304.36 537.582V652.918H1529V377.091C1443.63 372.718 1406.02 379.446 1403.68 449.448Z" fill="#FFF7F4"/>
<path fill-rule="evenodd" clip-rule="evenodd" d="M925.079 505.665C949.728 476.212 994.608 471.781 1026.35 496.03C1053.92 517.087 1062.68 552.969 1049.55 582.242C1050.11 582.633 1050.67 583.038 1051.21 583.457C1068.55 596.696 1073.85 619.415 1065.13 637.674C1066.7 640.316 1068 643.163 1068.99 646.191C1076.49 669.209 1063.06 694.042 1038.99 701.656C1027.12 705.411 1014.87 704.277 1004.61 699.401C995.692 710.501 983.34 719.257 968.481 723.957C929.54 736.274 888.127 716.074 875.983 678.839C875.815 678.323 875.653 677.807 875.498 677.29C870.369 678.523 865.058 678.918 859.672 678.364C841.854 676.532 827.007 664.705 818.139 647.614C810.889 653.56 802.349 658.277 792.767 661.308C753.826 673.625 712.413 653.425 700.269 616.19C688.125 578.955 709.848 538.786 748.789 526.469C780.022 516.59 812.845 527.629 830.881 551.597C839.447 542.408 849.951 536.131 861.259 533.924C861.306 533.249 861.366 532.572 861.438 531.892C864.064 507.128 882.133 488.691 901.796 490.712C911.338 491.693 919.502 497.311 925.079 505.665Z" fill="#FFE1D2"/>
<path fill-rule="evenodd" clip-rule="evenodd" d="M925.079 505.665C949.728 476.212 994.608 471.781 1026.35 496.03C1053.92 517.087 1062.68 552.969 1049.55 582.242C1050.11 582.633 1050.67 583.038 1051.21 583.457C1068.55 596.696 1073.85 619.415 1065.13 637.674C1066.7 640.316 1068 643.163 1068.99 646.191C1076.49 669.209 1063.06 694.042 1038.99 701.656C1027.12 705.411 1014.87 704.277 1004.61 699.401C995.692 710.501 983.34 719.257 968.481 723.957C929.54 736.274 888.127 716.074 875.983 678.839C875.815 678.323 875.653 677.807 875.498 677.29C870.369 678.523 865.058 678.918 859.672 678.364C841.854 676.532 827.007 664.705 818.139 647.614C810.889 653.56 802.349 658.277 792.767 661.308C753.826 673.625 712.413 653.425 700.269 616.19C688.125 578.955 709.848 538.786 748.789 526.469C780.022 516.59 812.845 527.629 830.881 551.597C839.447 542.408 849.951 536.131 861.259 533.924C861.306 533.249 861.366 532.572 861.438 531.892C864.064 507.128 882.133 488.691 901.796 490.712C911.338 491.693 919.502 497.311 925.079 505.665Z" fill="#FFE1D2"/>
<path fill-rule="evenodd" clip-rule="evenodd" d="M925.079 505.665C949.728 476.212 994.608 471.781 1026.35 496.03C1053.92 517.087 1062.68 552.969 1049.55 582.242C1050.11 582.633 1050.67 583.038 1051.21 583.457C1068.55 596.696 1073.85 619.415 1065.13 637.674C1066.7 640.316 1068 643.163 1068.99 646.191C1076.49 669.209 1063.06 694.042 1038.99 701.656C1027.12 705.411 1014.87 704.277 1004.61 699.401C995.692 710.501 983.34 719.257 968.481 723.957C929.54 736.274 888.127 716.074 875.983 678.839C875.815 678.323 875.653 677.807 875.498 677.29C870.369 678.523 865.058 678.918 859.672 678.364C841.854 676.532 827.007 664.705 818.139 647.614C810.889 653.56 802.349 658.277 792.767 661.308C753.826 673.625 712.413 653.425 700.269 616.19C688.125 578.955 709.848 538.786 748.789 526.469C780.022 516.59 812.845 527.629 830.881 551.597C839.447 542.408 849.951 536.131 861.259 533.924C861.306 533.249 861.366 532.572 861.438 531.892C864.064 507.128 882.133 488.691 901.796 490.712C911.338 491.693 919.502 497.311 925.079 505.665Z" fill="#FFF7F4"/>
<path d="M646.162 784.514C578.009 795.521 563.388 767.879 548.532 702.492C504.65 664.754 523.878 653.733 556.575 633.2C543.303 582.584 563.302 580.288 610.943 587.574C630.189 515.878 651.049 499.419 716.822 537.393C770.783 532.551 796.68 538.023 817.213 596.074C864.711 576.855 889.678 575.977 926.438 620.435C987.463 617.452 992.813 632.625 1001.06 665.241C1011.88 708.044 969.272 731.666 909.142 732.795C903.702 763.395 896.78 777.586 841.879 770.27C828.752 793.079 820.655 797.047 804.507 784.18C780.278 816.248 768.59 837.879 717.232 817.691C706.272 842.734 698.07 839.642 682.264 824.294C644.339 823.861 640.356 812.671 646.162 784.514Z" fill="#FFEAE0"/>
<path fill-rule="evenodd" clip-rule="evenodd" d="M936.909 748.979C933.009 752.192 928.589 754.757 923.696 756.533C907.508 762.409 889.571 758.404 874.529 747.346C870.831 755.519 865.488 763.171 858.515 769.802C830.18 796.748 785.674 796.629 759.106 769.536C732.539 742.443 733.972 698.636 762.306 671.69C785.032 650.078 818.163 645.877 844.095 659.04C847.531 647.513 853.899 637.691 862.718 631.049C862.467 630.446 862.227 629.836 861.995 629.218C853.574 606.719 861.23 583.222 879.095 576.737C887.765 573.59 897.245 575.028 905.67 579.912C914.257 544.14 951.128 521.522 989.028 529.188C1021.94 535.845 1045 563.187 1046.29 593.978C1046.94 594.082 1047.6 594.199 1048.25 594.332C1068.94 598.517 1083.33 615.93 1083.68 635.361C1086.18 636.987 1088.53 638.902 1090.69 641.105C1107.11 657.854 1106.23 684.934 1088.71 701.592C1080.07 709.807 1069 713.952 1058.03 714.035C1055.11 727.362 1048.22 740.1 1037.41 750.382C1009.07 777.328 964.565 777.208 937.997 750.115C937.629 749.74 937.266 749.361 936.909 748.979Z" fill="#FFE1D2"/>
<path fill-rule="evenodd" clip-rule="evenodd" d="M936.909 748.979C933.009 752.192 928.589 754.757 923.696 756.533C907.508 762.409 889.571 758.404 874.529 747.346C870.831 755.519 865.488 763.171 858.515 769.802C830.18 796.748 785.674 796.629 759.106 769.536C732.539 742.443 733.972 698.636 762.306 671.69C785.032 650.078 818.163 645.877 844.095 659.04C847.531 647.513 853.899 637.691 862.718 631.049C862.467 630.446 862.227 629.836 861.995 629.218C853.574 606.719 861.23 583.222 879.095 576.737C887.765 573.59 897.245 575.028 905.67 579.912C914.257 544.14 951.128 521.522 989.028 529.188C1021.94 535.845 1045 563.187 1046.29 593.978C1046.94 594.082 1047.6 594.199 1048.25 594.332C1068.94 598.517 1083.33 615.93 1083.68 635.361C1086.18 636.987 1088.53 638.902 1090.69 641.105C1107.11 657.854 1106.23 684.934 1088.71 701.592C1080.07 709.807 1069 713.952 1058.03 714.035C1055.11 727.362 1048.22 740.1 1037.41 750.382C1009.07 777.328 964.565 777.208 937.997 750.115C937.629 749.74 937.266 749.361 936.909 748.979Z" fill="#FFE1D2"/>
<path fill-rule="evenodd" clip-rule="evenodd" d="M936.909 748.979C933.009 752.192 928.589 754.757 923.696 756.533C907.508 762.409 889.571 758.404 874.529 747.346C870.831 755.519 865.488 763.171 858.515 769.802C830.18 796.748 785.674 796.629 759.106 769.536C732.539 742.443 733.972 698.636 762.306 671.69C785.032 650.078 818.163 645.877 844.095 659.04C847.531 647.513 853.899 637.691 862.718 631.049C862.467 630.446 862.227 629.836 861.995 629.218C853.574 606.719 861.23 583.222 879.095 576.737C887.765 573.59 897.245 575.028 905.67 579.912C914.257 544.14 951.128 521.522 989.028 529.188C1021.94 535.845 1045 563.187 1046.29 593.978C1046.94 594.082 1047.6 594.199 1048.25 594.332C1068.94 598.517 1083.33 615.93 1083.68 635.361C1086.18 636.987 1088.53 638.902 1090.69 641.105C1107.11 657.854 1106.23 684.934 1088.71 701.592C1080.07 709.807 1069 713.952 1058.03 714.035C1055.11 727.362 1048.22 740.1 1037.41 750.382C1009.07 777.328 964.565 777.208 937.997 750.115C937.629 749.74 937.266 749.361 936.909 748.979Z" fill="#FFE1D2"/>
<path d="M895.946 679.713C939.549 688.871 1639 379.5 1452.5 861.001L-25.0021 861.001L-100.502 728.127L137.753 677.842L191.778 595.657C222.213 574.926 240.664 575.68 277.132 608.878C264.445 570.886 328.271 518.46 372.848 593.93C406.736 573.804 463.655 607.951 474.136 642.452C502.224 631.382 515.444 641.946 538.82 660.625L539.189 660.92C548.303 639.109 554.888 628.914 585.806 637.141C591.82 628.535 595.721 627.12 603.831 632.048C608.456 616.449 613.097 609.516 643.352 616.584C639.385 601.401 676.897 550.389 723.498 601.34C753.194 575.998 786.317 586.819 803.533 596.189C818.484 572.209 915.451 584.679 895.946 679.713Z" fill="#FFF7F4"/>
<path d="M1132.13 626.763C1165.14 549.957 1333.49 595.568 1289.42 692.424L1094.31 950.757L725.938 680.936C661.331 621.205 746.834 604.558 766.783 626.857C822.392 573.031 845.864 603.621 889.778 642.017C901.88 606.662 934.993 619.541 934.993 619.541C935.719 602.18 978.571 581.056 1006.16 608.22C1057.77 514.441 1144.07 587.944 1132.13 626.763Z" fill="#FFF7F4"/>
<path d="M341.5 583.501L336.5 570.501L336 582.001L330.5 592.001L341.5 583.501Z" fill="#D8B998"/>
<path d="M341.5 583.501L336.5 570.501L336 582.001L330.5 592.001L341.5 583.501Z" fill="black" fill-opacity="0.2"/>
</g>
<g filter="url(#filter3_f_39_986)">
<path d="M1175 213C1168.78 213.546 1155.64 216.769 1152.89 225.289C1147.03 223.514 1134.43 221.971 1131 230" stroke="white" stroke-width="3"/>
</g>
<g filter="url(#filter4_f_39_986)">
<path d="M1197 171C1190.78 171.546 1177.64 174.769 1174.89 183.289C1169.03 181.514 1156.43 179.971 1153 188" stroke="white" stroke-width="3"/>
</g>
<g filter="url(#filter5_f_39_986)">
<path d="M1343 155.5C1345.27 152.953 1345 147 1345 147C1345 147 1345.5 153.018 1348 155.5C1350.37 157.853 1356 158.5 1356 158.5C1356 158.5 1351.56 159.613 1349.5 161.5C1346.52 164.225 1346.08 170.771 1346.01 172.548C1346.01 172.837 1346 173 1346 173C1346 173 1346 172.837 1346.01 172.548C1346.03 170.771 1345.91 164.229 1343 161.5C1340.56 159.219 1335 158.5 1335 158.5C1335 158.5 1340.78 157.992 1343 155.5Z" fill="#F3E6C9"/>
</g>
<g filter="url(#filter6_f_39_986)">
<path d="M1326.48 173.885C1328.31 172.121 1328.1 168 1328.1 168C1328.1 168 1328.5 172.166 1330.52 173.885C1332.44 175.514 1337 175.962 1337 175.962C1337 175.962 1333.41 176.732 1331.74 178.038C1329.33 179.925 1328.97 184.457 1328.91 185.687C1328.91 185.887 1328.9 186 1328.9 186C1328.9 186 1328.91 185.887 1328.91 185.687C1328.93 184.457 1328.84 179.928 1326.48 178.038C1324.5 176.46 1320 175.962 1320 175.962C1320 175.962 1324.68 175.61 1326.48 173.885Z" fill="#F3E6C9"/>
</g>
<g filter="url(#filter7_f_39_986)">
<path d="M1371.48 230.885C1373.31 229.121 1373.1 225 1373.1 225C1373.1 225 1373.5 229.166 1375.52 230.885C1377.44 232.514 1382 232.962 1382 232.962C1382 232.962 1378.41 233.732 1376.74 235.038C1374.33 236.925 1373.97 241.457 1373.91 242.687C1373.91 242.887 1373.9 243 1373.9 243C1373.9 243 1373.91 242.887 1373.91 242.687C1373.93 241.457 1373.84 236.928 1371.48 235.038C1369.5 233.46 1365 232.962 1365 232.962C1365 232.962 1369.68 232.61 1371.48 230.885Z" fill="#F3E6C9"/>
</g>
<g filter="url(#filter8_f_39_986)">
<path d="M1248.65 302.503C1092.54 385.915 939.227 452.479 882.085 475.334C530.012 621.253 691.455 593.484 1116.69 413.961C1541.92 234.438 1720.54 72.1084 1683.12 101.35C1645.7 130.592 1350.31 285.171 1450.4 225.786C1550.49 166.402 1635.06 112.14 1622.48 116.294C1609.89 120.447 1443.78 198.239 1248.65 302.503Z" fill="#FFEBDC" fill-opacity="0.3"/>
</g>
<g filter="url(#filter9_f_39_986)">
<path d="M536.276 343.897C594.284 323.712 896.663 261.535 1059.69 199.426C1179.76 153.681 1244.27 123.24 1279.59 105.101C1183.09 142.245 1064.53 186.716 1136.31 158.371C1216.35 126.762 1287.52 98.0838 1311.97 87.7916C1315.5 85.9065 1317.99 84.6851 1319.81 84.0825C1322.88 83.0713 1319.84 84.4793 1311.97 87.7916C1305.5 91.2438 1295.52 96.9219 1279.59 105.101C1325.34 87.4921 1366.14 71.5298 1379.35 65.7541C1420.43 47.7956 1228.9 179.034 785.677 294.418C346.309 408.797 127.771 420.653 536.276 343.897Z" fill="#FFEBDC" fill-opacity="0.2"/>
</g>
<g filter="url(#filter10_f_39_986)">
<path d="M448.19 456.355C359.122 425.011 275.461 391.943 244.763 379.328C54.3592 302.356 131.958 343.477 362.742 435.955C593.526 528.432 712.029 554.34 688.385 548.203C664.741 542.066 497.017 482.273 555.588 501.491C614.16 520.709 664.662 536.339 658.119 533.429C651.576 530.52 559.524 495.536 448.19 456.355Z" fill="#FFEBDC" fill-opacity="0.5"/>
</g>
<g filter="url(#filter11_f_39_986)">
<path d="M710 227.5C712.267 224.953 712 219 712 219C712 219 712.504 225.018 715 227.5C717.366 229.853 723 230.5 723 230.5C723 230.5 718.563 231.613 716.5 233.5C713.52 236.225 713.077 242.771 713.011 244.548C713.008 244.837 713 245 713 245C713 245 713.001 244.837 713.011 244.548C713.035 242.771 712.914 236.229 710 233.5C707.564 231.219 702 230.5 702 230.5C702 230.5 707.781 229.992 710 227.5Z" fill="#F3E6C9"/>
</g>
<g filter="url(#filter12_f_39_986)">
<path d="M728.476 247.885C730.312 246.121 730.095 242 730.095 242C730.095 242 730.503 246.166 732.524 247.885C734.439 249.514 739 249.962 739 249.962C739 249.962 735.408 250.732 733.738 252.038C731.326 253.925 730.967 258.457 730.914 259.687C730.911 259.887 730.905 260 730.905 260C730.905 260 730.905 259.887 730.914 259.687C730.933 258.457 730.835 253.928 728.476 252.038C726.505 250.46 722 249.962 722 249.962C722 249.962 726.68 249.61 728.476 247.885Z" fill="#F3E6C9"/>
</g>
</g>
<defs>
<filter id="filter0_f_39_986" x="-13.1659" y="193.693" width="679.654" height="209.005" filterUnits="userSpaceOnUse" color-interpolation-filters="sRGB">
<feFlood flood-opacity="0" result="BackgroundImageFix"/>
<feBlend mode="normal" in="SourceGraphic" in2="BackgroundImageFix" result="shape"/>
<feGaussianBlur stdDeviation="7" result="effect1_foregroundBlur_39_986"/>
</filter>
<filter id="filter1_f_39_986" x="178.227" y="4.11891" width="1092.99" height="356.59" filterUnits="userSpaceOnUse" color-interpolation-filters="sRGB">
<feFlood flood-opacity="0" result="BackgroundImageFix"/>
<feBlend mode="normal" in="SourceGraphic" in2="BackgroundImageFix" result="shape"/>
<feGaussianBlur stdDeviation="7" result="effect1_foregroundBlur_39_986"/>
</filter>
<filter id="filter2_f_39_986" x="-108.502" y="93.0001" width="1645.5" height="865.757" filterUnits="userSpaceOnUse" color-interpolation-filters="sRGB">
<feFlood flood-opacity="0" result="BackgroundImageFix"/>
<feBlend mode="normal" in="SourceGraphic" in2="BackgroundImageFix" result="shape"/>
<feGaussianBlur stdDeviation="4" result="effect1_foregroundBlur_39_986"/>
</filter>
<filter id="filter3_f_39_986" x="1125.62" y="207.506" width="53.5103" height="27.0841" filterUnits="userSpaceOnUse" color-interpolation-filters="sRGB">
<feFlood flood-opacity="0" result="BackgroundImageFix"/>
<feBlend mode="normal" in="SourceGraphic" in2="BackgroundImageFix" result="shape"/>
<feGaussianBlur stdDeviation="2" result="effect1_foregroundBlur_39_986"/>
</filter>
<filter id="filter4_f_39_986" x="1147.62" y="165.506" width="53.5103" height="27.0841" filterUnits="userSpaceOnUse" color-interpolation-filters="sRGB">
<feFlood flood-opacity="0" result="BackgroundImageFix"/>
<feBlend mode="normal" in="SourceGraphic" in2="BackgroundImageFix" result="shape"/>
<feGaussianBlur stdDeviation="2" result="effect1_foregroundBlur_39_986"/>
</filter>
<filter id="filter5_f_39_986" x="1334" y="146" width="23" height="28" filterUnits="userSpaceOnUse" color-interpolation-filters="sRGB">
<feFlood flood-opacity="0" result="BackgroundImageFix"/>
<feBlend mode="normal" in="SourceGraphic" in2="BackgroundImageFix" result="shape"/>
<feGaussianBlur stdDeviation="0.5" result="effect1_foregroundBlur_39_986"/>
</filter>
<filter id="filter6_f_39_986" x="1319" y="167" width="19" height="20" filterUnits="userSpaceOnUse" color-interpolation-filters="sRGB">
<feFlood flood-opacity="0" result="BackgroundImageFix"/>
<feBlend mode="normal" in="SourceGraphic" in2="BackgroundImageFix" result="shape"/>
<feGaussianBlur stdDeviation="0.5" result="effect1_foregroundBlur_39_986"/>
</filter>
<filter id="filter7_f_39_986" x="1364" y="224" width="19" height="20" filterUnits="userSpaceOnUse" color-interpolation-filters="sRGB">
<feFlood flood-opacity="0" result="BackgroundImageFix"/>
<feBlend mode="normal" in="SourceGraphic" in2="BackgroundImageFix" result="shape"/>
<feGaussianBlur stdDeviation="0.5" result="effect1_foregroundBlur_39_986"/>
</filter>
<filter id="filter8_f_39_986" x="675.466" y="83.9207" width="1026.49" height="499.05" filterUnits="userSpaceOnUse" color-interpolation-filters="sRGB">
<feFlood flood-opacity="0" result="BackgroundImageFix"/>
<feBlend mode="normal" in="SourceGraphic" in2="BackgroundImageFix" result="shape"/>
<feGaussianBlur stdDeviation="7" result="effect1_foregroundBlur_39_986"/>
</filter>
<filter id="filter9_f_39_986" x="305.786" y="50.095" width="1092.99" height="356.59" filterUnits="userSpaceOnUse" color-interpolation-filters="sRGB">
<feFlood flood-opacity="0" result="BackgroundImageFix"/>
<feBlend mode="normal" in="SourceGraphic" in2="BackgroundImageFix" result="shape"/>
<feGaussianBlur stdDeviation="7" result="effect1_foregroundBlur_39_986"/>
</filter>
<filter id="filter10_f_39_986" x="123.465" y="324.996" width="581.887" height="238.06" filterUnits="userSpaceOnUse" color-interpolation-filters="sRGB">
<feFlood flood-opacity="0" result="BackgroundImageFix"/>
<feBlend mode="normal" in="SourceGraphic" in2="BackgroundImageFix" result="shape"/>
<feGaussianBlur stdDeviation="7" result="effect1_foregroundBlur_39_986"/>
</filter>
<filter id="filter11_f_39_986" x="701" y="218" width="23" height="28" filterUnits="userSpaceOnUse" color-interpolation-filters="sRGB">
<feFlood flood-opacity="0" result="BackgroundImageFix"/>
<feBlend mode="normal" in="SourceGraphic" in2="BackgroundImageFix" result="shape"/>
<feGaussianBlur stdDeviation="0.5" result="effect1_foregroundBlur_39_986"/>
</filter>
<filter id="filter12_f_39_986" x="721" y="241" width="19" height="20" filterUnits="userSpaceOnUse" color-interpolation-filters="sRGB">
<feFlood flood-opacity="0" result="BackgroundImageFix"/>
<feBlend mode="normal" in="SourceGraphic" in2="BackgroundImageFix" result="shape"/>
<feGaussianBlur stdDeviation="0.5" result="effect1_foregroundBlur_39_986"/>
</filter>
<linearGradient id="paint0_linear_39_986" x1="724" y1="-100" x2="724" y2="764.173" gradientUnits="userSpaceOnUse">
<stop stop-color="#A5C8E8"/>
<stop offset="0.0755976" stop-color="#BADCEF"/>
<stop offset="0.435427" stop-color="#F5CBBA"/>
<stop offset="0.735865" stop-color="#FFEED1"/>
</linearGradient>
<clipPath id="clip0_39_986">
<rect width="1440" height="826" fill="white"/>
</clipPath>
</defs>
</svg>
