<svg width="428" height="1260" viewBox="0 0 428 1260" fill="none" xmlns="http://www.w3.org/2000/svg">
<g clip-path="url(#clip0_38_4188)">
<path d="M230.837 171.219C220.982 182.129 210.68 187.175 192.117 194.085C171.758 198.211 159.907 202.665 142.136 209.342C139.926 210.173 137.624 211.038 135.202 211.941C119.81 228.964 114.775 233.283 112.537 231.184L101.708 225.29C91.0579 221.59 84.8137 222.852 74.6778 224.901C74.0497 225.028 73.4067 225.158 72.7467 225.29C62.6506 243.961 53.2209 255.553 39.5043 258.576C31.8001 253.642 28.8609 252.278 26.4087 252.681C18.8301 260.043 -8.76719 265.415 -36.2101 270.756C-66.0765 276.569 -95.7601 282.346 -99.2578 290.616V142L-17 -10.5L72.7467 -26L234.737 -10.5H501.5L527 290.616C512.447 273.673 502.674 265.011 480.607 251.965C438.115 237.723 394.075 223.643 385.213 222.977C381.191 222.674 375.942 218.933 369.772 214.534C362.349 209.243 353.592 203 344.032 200.652C312.378 194.455 297.364 191.154 282.001 185.992C273.605 190.501 268.481 190.893 260.196 191.528C259.659 191.57 259.108 191.612 258.543 191.656C258.543 191.656 251.245 185.992 245.511 191.656C241.814 195.309 238.546 188.017 234.737 179.517C233.504 176.767 232.216 173.891 230.837 171.219Z" fill="url(#paint0_linear_38_4188)"/>
<g filter="url(#filter0_d_38_4188)">
<path d="M41.3349 255.995C44.8336 254.217 35.7059 248.962 35.7059 248.962C33.7555 251.561 29.8315 245.957 20.2281 229.463C15.9822 232.066 14.4508 233.878 12.3549 237.372C14.2358 252.048 16.589 287.507 19.4118 290.398C22.2347 293.29 30.0012 282.014 35.5175 263.024C35.5175 263.024 37.8362 257.774 41.3349 255.995Z" fill="url(#paint1_linear_38_4188)"/>
<path d="M41.3349 255.995C44.8336 254.217 35.7059 248.962 35.7059 248.962C33.7555 251.561 29.8315 245.957 20.2281 229.463C15.9822 232.066 14.4508 233.878 12.3549 237.372C14.2358 252.048 16.589 287.507 19.4118 290.398C22.2347 293.29 30.0012 282.014 35.5175 263.024C35.5175 263.024 37.8362 257.774 41.3349 255.995Z" fill="url(#paint2_linear_38_4188)"/>
</g>
<g filter="url(#filter1_d_38_4188)">
<path d="M347.434 200.442C343.737 198.563 352.4 193.866 352.4 193.866C354.438 196.524 352.421 191.646 362.873 175.393C367.353 178.119 375.262 190.309 377.442 193.866C375.232 208.513 365.917 233.004 362.873 235.822C359.829 238.64 357.998 227.13 352.4 207.956C352.4 207.956 351.131 202.32 347.434 200.442Z" fill="url(#paint3_linear_38_4188)"/>
<path d="M347.434 200.442C343.737 198.563 352.4 193.866 352.4 193.866C354.438 196.524 352.421 191.646 362.873 175.393C367.353 178.119 375.262 190.309 377.442 193.866C375.232 208.513 365.917 233.004 362.873 235.822C359.829 238.64 357.998 227.13 352.4 207.956C352.4 207.956 351.131 202.32 347.434 200.442Z" fill="url(#paint4_linear_38_4188)"/>
</g>
<path d="M187.96 186.327C190.328 183.492 182.541 186.976 182.541 186.976C181.482 189.192 177.591 189.367 167.615 188.698C164.814 192.314 163.945 193.963 162.921 196.621C166.735 201.277 174.287 213.86 176.901 213.284C179.515 212.707 183.581 203.517 184.684 192.65C184.684 192.65 185.592 189.161 187.96 186.327Z" fill="url(#paint5_linear_38_4188)"/>
<path d="M187.96 186.327C190.328 183.492 182.541 186.976 182.541 186.976C181.482 189.192 177.591 189.367 167.615 188.698C164.814 192.314 163.945 193.963 162.921 196.621C166.735 201.277 174.287 213.86 176.901 213.284C179.515 212.707 183.581 203.517 184.684 192.65C184.684 192.65 185.592 189.161 187.96 186.327Z" fill="url(#paint6_linear_38_4188)"/>
<g filter="url(#filter2_d_38_4188)">
<path d="M412.272 234.761C407.192 227.916 407.562 221.053 407.562 221.053L435.214 224.145C451.01 221.43 458.399 223.404 471.344 226.864L471.77 226.978C481.82 226.315 479.837 247.317 488.984 248.103C493.109 248.457 499.259 252.739 498.887 254.551L514.158 258.551L514.015 261.202C514.015 261.202 511.783 265.346 506.904 265.428C502.024 265.51 500.69 268.97 498.057 269.931C495.424 270.892 490.197 272.106 480.121 267.925C480.121 267.925 478.451 277.624 475.809 278.741C473.168 279.858 470.946 278.511 469.764 279.163C468.582 279.816 463.575 287.572 461.806 288.473C460.036 289.373 453.463 288.952 450.864 289.289C448.264 289.626 442.604 293.544 440.081 292.477C437.557 291.41 438.564 288.698 433.073 284.161C427.582 279.625 425.738 249.723 422.416 238.092C417.222 241.878 417.352 241.606 412.272 234.761Z" fill="url(#paint7_linear_38_4188)"/>
<path d="M412.272 234.761C407.192 227.916 407.562 221.053 407.562 221.053L435.214 224.145C451.01 221.43 458.399 223.404 471.344 226.864L471.77 226.978C481.82 226.315 479.837 247.317 488.984 248.103C493.109 248.457 499.259 252.739 498.887 254.551L514.158 258.551L514.015 261.202C514.015 261.202 511.783 265.346 506.904 265.428C502.024 265.51 500.69 268.97 498.057 269.931C495.424 270.892 490.197 272.106 480.121 267.925C480.121 267.925 478.451 277.624 475.809 278.741C473.168 279.858 470.946 278.511 469.764 279.163C468.582 279.816 463.575 287.572 461.806 288.473C460.036 289.373 453.463 288.952 450.864 289.289C448.264 289.626 442.604 293.544 440.081 292.477C437.557 291.41 438.564 288.698 433.073 284.161C427.582 279.625 425.738 249.723 422.416 238.092C417.222 241.878 417.352 241.606 412.272 234.761Z" fill="url(#paint8_linear_38_4188)"/>
</g>
</g>
<defs>
<filter id="filter0_d_38_4188" x="8.35498" y="229.463" width="37.7788" height="69.3854" filterUnits="userSpaceOnUse" color-interpolation-filters="sRGB">
<feFlood flood-opacity="0" result="BackgroundImageFix"/>
<feColorMatrix in="SourceAlpha" type="matrix" values="0 0 0 0 0 0 0 0 0 0 0 0 0 0 0 0 0 0 127 0" result="hardAlpha"/>
<feOffset dy="4"/>
<feGaussianBlur stdDeviation="2"/>
<feComposite in2="hardAlpha" operator="out"/>
<feColorMatrix type="matrix" values="0 0 0 0 0 0 0 0 0 0 0 0 0 0 0 0 0 0 0.25 0"/>
<feBlend mode="normal" in2="BackgroundImageFix" result="effect1_dropShadow_38_4188"/>
<feBlend mode="normal" in="SourceGraphic" in2="effect1_dropShadow_38_4188" result="shape"/>
</filter>
<filter id="filter1_d_38_4188" x="342.516" y="175.393" width="38.9263" height="68.8513" filterUnits="userSpaceOnUse" color-interpolation-filters="sRGB">
<feFlood flood-opacity="0" result="BackgroundImageFix"/>
<feColorMatrix in="SourceAlpha" type="matrix" values="0 0 0 0 0 0 0 0 0 0 0 0 0 0 0 0 0 0 127 0" result="hardAlpha"/>
<feOffset dy="4"/>
<feGaussianBlur stdDeviation="2"/>
<feComposite in2="hardAlpha" operator="out"/>
<feColorMatrix type="matrix" values="0 0 0 0 0 0 0 0 0 0 0 0 0 0 0 0 0 0 0.25 0"/>
<feBlend mode="normal" in2="BackgroundImageFix" result="effect1_dropShadow_38_4188"/>
<feBlend mode="normal" in="SourceGraphic" in2="effect1_dropShadow_38_4188" result="shape"/>
</filter>
<filter id="filter2_d_38_4188" x="403.556" y="221.053" width="114.602" height="79.6073" filterUnits="userSpaceOnUse" color-interpolation-filters="sRGB">
<feFlood flood-opacity="0" result="BackgroundImageFix"/>
<feColorMatrix in="SourceAlpha" type="matrix" values="0 0 0 0 0 0 0 0 0 0 0 0 0 0 0 0 0 0 127 0" result="hardAlpha"/>
<feOffset dy="4"/>
<feGaussianBlur stdDeviation="2"/>
<feComposite in2="hardAlpha" operator="out"/>
<feColorMatrix type="matrix" values="0 0 0 0 0 0 0 0 0 0 0 0 0 0 0 0 0 0 0.25 0"/>
<feBlend mode="normal" in2="BackgroundImageFix" result="effect1_dropShadow_38_4188"/>
<feBlend mode="normal" in="SourceGraphic" in2="effect1_dropShadow_38_4188" result="shape"/>
</filter>
<linearGradient id="paint0_linear_38_4188" x1="391.746" y1="166" x2="391.746" y2="306.584" gradientUnits="userSpaceOnUse">
<stop stop-color="#92908A"/>
<stop offset="1" stop-color="#8C8C86"/>
</linearGradient>
<linearGradient id="paint1_linear_38_4188" x1="3.15151" y1="265.619" x2="25.4968" y2="278.596" gradientUnits="userSpaceOnUse">
<stop stop-color="#706A6A"/>
<stop offset="0.797524" stop-color="#716769"/>
</linearGradient>
<linearGradient id="paint2_linear_38_4188" x1="27.465" y1="229.664" x2="25.7617" y2="290.996" gradientUnits="userSpaceOnUse">
<stop stop-color="#918F8A"/>
<stop offset="1" stop-color="#908F89" stop-opacity="0"/>
</linearGradient>
<linearGradient id="paint3_linear_38_4188" x1="386.535" y1="211.708" x2="363.859" y2="224.868" gradientUnits="userSpaceOnUse">
<stop stop-color="#706A6A"/>
<stop offset="0.797524" stop-color="#716769"/>
</linearGradient>
<linearGradient id="paint4_linear_38_4188" x1="361.979" y1="175.393" x2="361.979" y2="236.245" gradientUnits="userSpaceOnUse">
<stop stop-color="#918F8A"/>
<stop offset="1" stop-color="#908F89" stop-opacity="0"/>
</linearGradient>
<linearGradient id="paint5_linear_38_4188" x1="160.522" y1="213.395" x2="174.515" y2="218.598" gradientUnits="userSpaceOnUse">
<stop stop-color="#706A6A"/>
<stop offset="0.797524" stop-color="#716769"/>
</linearGradient>
<linearGradient id="paint6_linear_38_4188" x1="173.145" y1="184.368" x2="188.715" y2="204.253" gradientUnits="userSpaceOnUse">
<stop stop-color="#918F8A"/>
<stop offset="1" stop-color="#908F89" stop-opacity="0"/>
</linearGradient>
<linearGradient id="paint7_linear_38_4188" x1="374.449" y1="242.872" x2="404.066" y2="200.913" gradientUnits="userSpaceOnUse">
<stop stop-color="#706A6A"/>
<stop offset="0.797524" stop-color="#716769"/>
</linearGradient>
<linearGradient id="paint8_linear_38_4188" x1="457.906" y1="294.561" x2="465.745" y2="224.463" gradientUnits="userSpaceOnUse">
<stop stop-color="#918F8A"/>
<stop offset="1" stop-color="#908F89" stop-opacity="0"/>
</linearGradient>
<clipPath id="clip0_38_4188">
<rect width="428" height="1260" fill="white"/>
</clipPath>
</defs>
</svg>
