<svg width="156" height="155" viewBox="0 0 156 155" fill="none" xmlns="http://www.w3.org/2000/svg">
<path opacity="0.5" fill-rule="evenodd" clip-rule="evenodd" d="M38.8044 91.9084C38.971 91.7575 39.1411 91.6042 39.3143 91.4488C38.7395 91.4025 38.1652 91.3291 37.5933 91.2283C38.0008 91.4488 38.4045 91.6755 38.8044 91.9084ZM82.9551 48.394C83.1249 48.4877 83.2899 48.5859 83.4501 48.6884C89.3132 51.4675 96.3082 59.5138 98.5291 65.5586L97.6657 65.7897C99.0237 66.8998 100.2 68.2881 101.105 69.9362L112.987 91.5866C117.348 99.5335 115.679 109.436 108.954 115.514L87.7089 134.718C86.2141 136.069 84.5107 137.002 82.7286 137.537L83.6124 138.187C78.5268 143.073 66.7561 143.116 63.284 142.267C62.8389 142.158 62.487 141.749 62.2118 141.119C60.9407 141.525 59.5259 141.621 58.0416 141.306L45.1912 138.583C35.6676 136.564 27.544 130.396 23.0411 121.765L10.0223 96.8108C9.55461 95.9142 9.23131 94.9525 9.06175 93.961C6.88268 86.4225 8.06717 78.4624 12.0315 71.9939C13.0046 69.718 14.5085 67.6726 16.4567 66.047L34.7897 50.7497C42.5331 44.2885 52.8304 41.7737 62.6803 43.9384L82.9551 48.394Z" fill="#142E3D"/>
<path d="M69.2768 135.552L72.0011 135.326L75.0523 111.685H35.3867L38.1398 117.544C43.7391 129.46 56.1554 136.641 69.2768 135.552Z" fill="#4A6276"/>
<path d="M35.8031 29.7555C40.9465 23.221 53.1813 16.7759 61.461 15.7607L62.5705 49.9997L49.811 52.1736C44.4482 44.7461 33.6864 32.4446 35.8031 29.7555Z" fill="#536E85"/>
<path d="M67.9212 74.6263C70.0836 72.4199 82.037 66.1686 87.7435 63.043L104.178 85.8689L88.6445 97.7929L78.2828 99.9992C73.9279 92.4609 65.7588 76.8326 67.9212 74.6263Z" fill="#536E85"/>
<path d="M147.31 81.929C149.391 77.8529 152.78 63.1859 148.142 55.4346L121.93 77.716C121.93 77.716 145.23 86.005 147.31 81.929Z" fill="#5F7E98"/>
<path d="M75.0527 79.1058L54.1667 34.7159C50.4401 26.7955 54.7375 17.427 63.1716 15.0849L102.664 4.118C111.365 1.70166 120.59 5.5547 124.988 13.4423L147.195 53.2739C151.292 60.6218 147.464 69.8687 139.372 72.171L90.4245 86.0981C84.2795 87.8465 77.7726 84.8866 75.0527 79.1058Z" fill="#95AABC"/>
<path d="M114.128 124.98L74.6138 135.067C72.8944 135.506 71.099 135.556 69.3576 135.215L68.7064 135.088C62.1459 133.802 58.7788 126.462 62.0843 120.651L71.3343 104.39C77.0968 94.2593 86.5983 86.7896 97.8025 83.5813L137.095 72.33C143.831 70.401 149.701 77.3077 146.712 83.6451L135.555 107.297C131.406 116.091 123.55 122.575 114.128 124.98Z" fill="#7E98AE"/>
<path d="M76.6491 82.282L53.4916 32.8844C50.1586 25.7748 40.6636 24.3473 35.3874 30.1626L21.9771 58.0461C17.5789 67.191 17.6888 77.8621 22.2743 86.9144L38.4678 118.883C40.9928 123.868 45.6377 127.442 51.1028 128.606L52.0303 128.803H54.2065C56.4737 128.803 58.5782 127.626 59.7644 125.694L75.6655 99.7931C78.9191 94.4934 79.2887 87.9127 76.6491 82.282Z" fill="#5F7D97"/>
<g filter="url(#filter0_i_4_17799)">
<ellipse cx="5.84424" cy="5.77608" rx="5.84424" ry="5.77608" transform="matrix(0.901895 -0.431954 0.493295 0.869862 105.179 25.4795)" fill="#7B95AC"/>
<ellipse cx="5.84424" cy="5.77608" rx="5.84424" ry="5.77608" transform="matrix(0.901895 -0.431954 0.493295 0.869862 114.565 46.1699)" fill="#7B95AC"/>
<ellipse cx="5.84424" cy="5.77608" rx="5.84424" ry="5.77608" transform="matrix(0.901895 -0.431954 0.493295 0.869862 87.4805 31.6182)" fill="#7B95AC"/>
<ellipse cx="5.84424" cy="5.77608" rx="5.84424" ry="5.77608" transform="matrix(0.901895 -0.431954 0.493295 0.869862 96.868 52.3096)" fill="#7B95AC"/>
<ellipse cx="5.84424" cy="5.77608" rx="5.84424" ry="5.77608" transform="matrix(0.901895 -0.431954 0.493295 0.869862 67.5635 37.7568)" fill="#7B95AC"/>
<ellipse cx="5.84424" cy="5.77608" rx="5.84424" ry="5.77608" transform="matrix(0.901895 -0.431954 0.493295 0.869862 76.9502 58.4482)" fill="#7B95AC"/>
</g>
<g filter="url(#filter1_i_4_17799)">
<ellipse cx="5.0618" cy="5.00388" rx="5.0618" ry="5.00388" transform="matrix(0.47428 -0.838104 0.821611 0.637087 25.8164 71.2559)" fill="#4A6276"/>
<ellipse cx="4.69552" cy="4.95092" rx="4.69552" ry="4.95092" transform="matrix(0.47428 -0.838104 0.821611 0.637087 41.6271 80.4248)" fill="#4A6276"/>
<ellipse cx="4.69552" cy="4.95092" rx="4.69552" ry="4.95092" transform="matrix(0.47428 -0.838104 0.821611 0.637087 58.2704 90.208)" fill="#4A6276"/>
</g>
<g filter="url(#filter2_i_4_17799)">
<ellipse cx="6.65657" cy="6.54998" rx="6.65657" ry="6.54998" transform="matrix(0.997874 -0.0651713 -0.462558 0.886589 91.376 94.3457)" fill="#607F9A"/>
<ellipse cx="6.65657" cy="6.54998" rx="6.65657" ry="6.54998" transform="matrix(0.997874 -0.0651713 -0.462558 0.886589 120.224 103.041)" fill="#607F9A"/>
</g>
<path fill-rule="evenodd" clip-rule="evenodd" d="M38.7126 118.481C39.5894 120.212 40.7218 121.773 42.0555 123.122C48.4982 131.385 58.7734 136.042 69.5217 135.15L71.1637 135.013C72.4028 135.09 73.6495 134.973 74.8586 134.665L114.373 124.578C123.794 122.173 131.651 115.689 135.8 106.895L146.957 83.2429C147.225 82.6747 147.421 82.1019 147.553 81.5312L147.555 81.5268C149.63 77.4621 153.006 62.8653 148.426 55.0973C148.172 54.3426 147.845 53.5979 147.44 52.8718L125.232 13.0401C120.835 5.15254 111.61 1.29951 102.909 3.71585L63.4165 14.6827C62.7265 14.8743 62.0642 15.113 61.4317 15.394C53.2114 16.5081 41.2888 22.8091 36.1466 29.2291C35.9711 29.399 35.7995 29.5761 35.6322 29.7605L22.2219 57.6441C17.8238 66.7889 17.9337 77.46 22.5191 86.5124L38.7126 118.481Z" fill="#193545" fill-opacity="0.3"/>
<defs>
<filter id="filter0_i_4_17799" x="69.6908" y="22.3555" width="58.9878" height="44.2168" filterUnits="userSpaceOnUse" color-interpolation-filters="sRGB">
<feFlood flood-opacity="0" result="BackgroundImageFix"/>
<feBlend mode="normal" in="SourceGraphic" in2="BackgroundImageFix" result="shape"/>
<feColorMatrix in="SourceAlpha" type="matrix" values="0 0 0 0 0 0 0 0 0 0 0 0 0 0 0 0 0 0 127 0" result="hardAlpha"/>
<feOffset dx="-1.63043" dy="-1.63043"/>
<feComposite in2="hardAlpha" operator="arithmetic" k2="-1" k3="1"/>
<feColorMatrix type="matrix" values="0 0 0 0 0.676215 0 0 0 0 0.772035 0 0 0 0 0.854167 0 0 0 1 0"/>
<feBlend mode="normal" in2="shape" result="effect1_innerShadow_4_17799"/>
</filter>
<filter id="filter1_i_4_17799" x="27.5667" y="64.8945" width="41.6367" height="29.5757" filterUnits="userSpaceOnUse" color-interpolation-filters="sRGB">
<feFlood flood-opacity="0" result="BackgroundImageFix"/>
<feBlend mode="normal" in="SourceGraphic" in2="BackgroundImageFix" result="shape"/>
<feColorMatrix in="SourceAlpha" type="matrix" values="0 0 0 0 0 0 0 0 0 0 0 0 0 0 0 0 0 0 127 0" result="hardAlpha"/>
<feOffset dx="-0.815213" dy="-1.63043"/>
<feComposite in2="hardAlpha" operator="arithmetic" k2="-1" k3="1"/>
<feColorMatrix type="matrix" values="0 0 0 0 0.549444 0 0 0 0 0.640657 0 0 0 0 0.716667 0 0 0 1 0"/>
<feBlend mode="normal" in2="shape" result="effect1_innerShadow_4_17799"/>
</filter>
<filter id="filter2_i_4_17799" x="87.6861" y="93.8955" width="43.4528" height="20.3423" filterUnits="userSpaceOnUse" color-interpolation-filters="sRGB">
<feFlood flood-opacity="0" result="BackgroundImageFix"/>
<feBlend mode="normal" in="SourceGraphic" in2="BackgroundImageFix" result="shape"/>
<feColorMatrix in="SourceAlpha" type="matrix" values="0 0 0 0 0 0 0 0 0 0 0 0 0 0 0 0 0 0 127 0" result="hardAlpha"/>
<feOffset dx="-1.63043" dy="-0.815213"/>
<feComposite in2="hardAlpha" operator="arithmetic" k2="-1" k3="1"/>
<feColorMatrix type="matrix" values="0 0 0 0 0.626667 0 0 0 0 0.720869 0 0 0 0 0.8 0 0 0 1 0"/>
<feBlend mode="normal" in2="shape" result="effect1_innerShadow_4_17799"/>
</filter>
</defs>
</svg>
