<svg width="233" height="285" viewBox="0 0 233 285" fill="none" xmlns="http://www.w3.org/2000/svg">
<rect width="233" height="285" rx="15" fill="white"/>
<path d="M5 15C5 9.47715 9.47715 5 15 5H217C222.523 5 227 9.47715 227 15V48H5V15Z" fill="#558EAB"/>
<circle cx="116.5" cy="203.5" r="65.5" fill="#BBD9ED"/>
<path d="M43.9729 80.312C40.6369 80.312 38.0449 78.32 37.5649 75.272L40.5409 74.528C40.7569 76.52 42.0769 77.648 44.0209 77.648C45.7009 77.648 46.7809 76.808 46.7809 75.392C46.7809 74.24 45.9169 73.52 43.4449 72.536C39.9409 71.168 38.6929 69.896 38.6929 67.472C38.6929 64.76 40.7809 62.912 43.9009 62.912C46.1569 62.912 47.9329 63.944 48.9889 65.96L46.4929 67.496C45.9169 66.248 44.9329 65.576 43.8049 65.576C42.6049 65.576 41.6929 66.368 41.6929 67.4C41.6929 68.504 42.5089 69.128 45.0289 70.112C48.6049 71.48 49.7809 72.752 49.7809 75.128C49.7809 78.248 47.4049 80.312 43.9729 80.312ZM58.8331 68.168H61.7131V80H58.8331V78.632C57.9931 79.76 56.6971 80.24 55.3051 80.24C52.3291 80.24 51.0811 78.08 51.0811 75.56V68.168H53.9611V74.84C53.9611 75.656 53.9611 77.72 56.1451 77.72C58.8331 77.72 58.8331 74.768 58.8331 72.656V68.168ZM68.35 80.24C65.854 80.24 63.958 78.728 63.382 76.928L65.686 75.896C65.998 76.76 66.622 77.84 68.206 77.84C69.55 77.84 70.126 77.072 70.126 76.448C70.126 74.456 64.03 75.776 64.03 71.384C64.03 69.104 66.094 67.928 68.374 67.928C70.414 67.928 71.974 68.888 72.862 70.496L70.63 71.72C70.222 70.976 69.574 70.208 68.278 70.208C67.342 70.208 66.766 70.664 66.766 71.216C66.766 73.016 72.958 71.96 72.958 76.28C72.958 79.04 70.582 80.24 68.35 80.24ZM81.2498 70.448H78.2978V76.472C78.2978 77.408 78.8738 77.84 79.8098 77.84C80.2178 77.84 80.7218 77.744 81.2498 77.576V79.88C80.5298 80.12 79.8098 80.24 79.0898 80.24C77.0978 80.24 75.4178 79.208 75.4178 76.688V70.448H73.4978V68.168H75.4178V65.888L78.2978 63.752V68.168H81.2498V70.448ZM87.9781 67.928C91.0981 67.928 93.0421 69.68 93.0421 72.536V80H90.4021L90.1621 78.464C89.4661 79.568 88.1221 80.24 86.5621 80.24C84.0661 80.24 82.2901 78.632 82.2901 76.376C82.2901 74.984 82.9141 73.928 84.0661 73.4C84.8581 73.04 85.8661 72.872 87.2101 72.872H90.1621V72.536C90.1621 71.24 89.2981 70.448 87.9301 70.448C86.7301 70.448 85.6021 71.072 84.7381 72.224L82.6501 70.472C84.0661 68.768 85.8181 67.928 87.9781 67.928ZM87.0181 77.792C88.7461 77.792 90.1621 76.568 90.1621 75.032H87.5941C86.6101 75.032 86.0341 75.152 85.6501 75.44C85.3381 75.656 85.1701 75.992 85.1701 76.424C85.1701 77.264 85.8661 77.792 87.0181 77.792ZM95.5517 65.936V63.272H98.5757V65.936H95.5517ZM95.6237 80V68.168H98.5037V80H95.6237ZM107.864 67.928C110.528 67.928 112.04 69.56 112.04 72.368V80H109.16V73.088C109.16 72.272 109.16 70.448 106.976 70.448C104.288 70.448 104.288 73.16 104.288 75.272V80H101.408V68.168H104.288V69.536C105.128 68.408 106.424 67.928 107.864 67.928ZM119.276 67.928C122.396 67.928 124.34 69.68 124.34 72.536V80H121.7L121.46 78.464C120.764 79.568 119.42 80.24 117.86 80.24C115.364 80.24 113.588 78.632 113.588 76.376C113.588 74.984 114.212 73.928 115.364 73.4C116.156 73.04 117.164 72.872 118.508 72.872H121.46V72.536C121.46 71.24 120.596 70.448 119.228 70.448C118.028 70.448 116.9 71.072 116.036 72.224L113.948 70.472C115.364 68.768 117.116 67.928 119.276 67.928ZM118.316 77.792C120.044 77.792 121.46 76.568 121.46 75.032H118.892C117.908 75.032 117.332 75.152 116.948 75.44C116.636 75.656 116.468 75.992 116.468 76.424C116.468 77.264 117.164 77.792 118.316 77.792ZM133.234 67.928C136.138 67.928 138.226 70.208 138.226 74.072C138.226 77.624 136.45 80.24 133.234 80.24C131.962 80.24 130.642 79.832 129.826 78.824V80H126.946V63.272H129.826V69.368C130.57 68.48 131.89 67.928 133.234 67.928ZM132.538 77.576C134.458 77.576 135.346 76.28 135.346 74.096C135.346 71.888 134.434 70.544 132.514 70.544C130.45 70.544 129.562 72.128 129.562 74.096C129.562 76.064 130.45 77.576 132.538 77.576ZM140.158 65.936V63.272H143.182V65.936H140.158ZM140.23 80V68.168H143.11V80H140.23ZM148.678 80.24C147.07 80.24 145.894 79.28 145.894 77.168V63.272H148.774V76.976C148.774 77.504 149.086 77.72 149.614 77.72C149.878 77.72 150.19 77.672 150.526 77.576V79.88C149.878 80.12 149.23 80.24 148.678 80.24ZM152.172 65.936V63.272H155.196V65.936H152.172ZM152.244 80V68.168H155.124V80H152.244ZM164.34 70.448H161.388V76.472C161.388 77.408 161.964 77.84 162.9 77.84C163.308 77.84 163.812 77.744 164.34 77.576V79.88C163.62 80.12 162.9 80.24 162.18 80.24C160.188 80.24 158.508 79.208 158.508 76.688V70.448H156.588V68.168H158.508V65.888L161.388 63.752V68.168H164.34V70.448ZM167.392 84.896L169.504 79.688L164.872 68.168H168.04L171.04 76.376L174.064 68.168H177.232L170.512 84.896H167.392ZM196.756 79.088L194.716 80.888L192.508 78.368C191.164 79.544 189.412 80.264 187.468 80.264C184.396 80.264 181.972 78.776 181.972 76.088C181.972 73.544 183.868 72.104 185.86 70.952C185.14 70.208 183.868 68.792 183.868 67.016C183.868 64.568 186.22 63.08 188.5 63.08C190.924 63.08 192.94 64.784 192.94 66.992C192.94 69.008 191.572 70.328 189.94 71.432L192.292 74.072C192.556 73.352 192.7 72.56 192.7 71.768L195.508 72.056C195.436 73.592 194.98 75.032 194.26 76.28L196.756 79.088ZM186.652 67.064C186.652 67.928 187.54 69.056 188.068 69.68C189.316 68.912 190.276 68.12 190.276 67.04C190.276 66.128 189.676 65.336 188.524 65.336C187.54 65.336 186.652 65.936 186.652 67.064ZM187.396 77.816C188.764 77.816 189.94 77.288 190.828 76.424L187.66 72.824C186.1 73.784 184.78 74.744 184.78 76.136C184.78 77.264 185.836 77.816 187.396 77.816ZM52.0729 106V89.272H63.2089V92.032H55.0729V96.016H62.6329V98.776H55.0729V103.24H63.2089V106H52.0729ZM72.2954 93.928C74.9594 93.928 76.4714 95.56 76.4714 98.368V106H73.5914V99.088C73.5914 98.272 73.5914 96.448 71.4074 96.448C68.7194 96.448 68.7194 99.16 68.7194 101.272V106H65.8394V94.168H68.7194V95.536C69.5594 94.408 70.8554 93.928 72.2954 93.928ZM81.9368 106L77.1128 94.168H80.2568L83.1128 102.256L86.0168 94.168H89.1368L84.3128 106H81.9368ZM90.1799 91.936V89.272H93.2039V91.936H90.1799ZM90.2519 106V94.168H93.1319V106H90.2519ZM102.108 93.928C102.9 93.928 103.596 94.12 104.364 94.6L102.972 97.144C102.564 96.88 102.108 96.736 101.532 96.736C99.7802 96.736 98.9162 97.816 98.9162 100.048V106H96.0362V94.168H98.9402V96.184C99.4442 94.72 100.764 93.928 102.108 93.928ZM109.646 106.24C105.974 106.24 103.718 103.408 103.718 100.072C103.718 96.712 105.974 93.928 109.646 93.928C113.294 93.928 115.574 96.712 115.574 100.072C115.574 103.408 113.294 106.24 109.646 106.24ZM109.646 103.72C111.83 103.72 112.694 101.992 112.694 100.072C112.694 98.128 111.83 96.448 109.646 96.448C107.462 96.448 106.598 98.128 106.598 100.072C106.598 101.992 107.462 103.72 109.646 103.72ZM123.881 93.928C126.545 93.928 128.057 95.56 128.057 98.368V106H125.177V99.088C125.177 98.272 125.177 96.448 122.993 96.448C120.305 96.448 120.305 99.16 120.305 101.272V106H117.425V94.168H120.305V95.536C121.145 94.408 122.441 93.928 123.881 93.928ZM143.934 93.928C146.79 93.928 148.062 96.088 148.062 98.464V106H145.182V99.328C145.182 98.392 145.062 96.448 143.166 96.448C140.742 96.448 140.838 99.112 140.838 101.488V106H137.958V99.328C137.958 98.392 137.838 96.448 135.966 96.448C133.542 96.448 133.614 99.112 133.614 101.488V106H130.734L130.71 94.168H133.494V95.656C134.262 94.336 135.486 93.928 136.662 93.928C137.958 93.928 139.398 94.432 140.118 96.256C141.03 94.48 142.398 93.928 143.934 93.928ZM160.754 99.928C160.754 100.288 160.73 100.648 160.682 101.032H152.57C152.69 102.592 153.65 103.624 155.522 103.624C156.578 103.624 157.538 103.288 158.354 102.352L160.346 104.104C159.05 105.544 157.49 106.24 155.498 106.24C151.418 106.24 149.69 103.312 149.69 100.144C149.69 97.048 151.37 93.928 155.306 93.928C158.978 93.928 160.754 96.64 160.754 99.928ZM152.546 98.752H157.994C157.946 97.24 156.794 96.328 155.282 96.328C153.53 96.328 152.714 97.576 152.546 98.752ZM169.125 93.928C171.789 93.928 173.301 95.56 173.301 98.368V106H170.421V99.088C170.421 98.272 170.421 96.448 168.237 96.448C165.549 96.448 165.549 99.16 165.549 101.272V106H162.669V94.168H165.549V95.536C166.389 94.408 167.685 93.928 169.125 93.928ZM182.265 96.448H179.313V102.472C179.313 103.408 179.889 103.84 180.825 103.84C181.233 103.84 181.737 103.744 182.265 103.576V105.88C181.545 106.12 180.825 106.24 180.105 106.24C178.113 106.24 176.433 105.208 176.433 102.688V96.448H174.513V94.168H176.433V91.888L179.313 89.752V94.168H182.265V96.448Z" fill="#55525B"/>
<path d="M89.4062 202.886L142.892 202.886L135.211 238.402H134.895C134.322 240.106 126.149 241.457 116.149 241.457C106.15 241.457 97.9758 240.106 97.4041 238.402H97.0878L89.4062 202.886Z" fill="#70605A"/>
<g style="mix-blend-mode:multiply" opacity="0.25">
<path d="M135.955 234.849L135.175 238.455H134.859C134.286 240.159 126.113 241.51 116.114 241.51C106.115 241.51 97.9409 240.159 97.3685 238.455H97.0522L89.3706 202.939H97.623L104.054 232.671H104.37C104.942 234.375 113.116 235.726 123.115 235.726C128.082 235.726 132.597 235.393 135.955 234.849Z" fill="#55525B"/>
</g>
<path d="M145.738 193.721H87.1304V201.545C87.1304 201.546 87.1304 201.548 87.1304 201.549C87.1304 201.551 87.1304 201.553 87.1304 201.554V201.74H87.1802C88.0725 203.444 100.829 204.796 116.434 204.796C132.04 204.796 144.796 203.444 145.688 201.74H145.738V193.721Z" fill="#8D7972"/>
<ellipse cx="116.435" cy="193.53" rx="29.3038" ry="3.24608" fill="#70605A"/>
<ellipse cx="116.571" cy="193.54" rx="26.1224" ry="2.53043" fill="#3D3431"/>
<path d="M126.491 154.517C94.8256 130.386 115.276 126.42 170.568 124.048C170.68 144.341 168.853 156.245 126.491 154.517Z" fill="#55ABA1"/>
<path d="M115.203 196.194C121.691 154.365 128.763 140.613 149.777 133.548C130.569 143.595 122.652 150.854 117.219 196.21L115.203 196.194Z" fill="#558EAB"/>
<path d="M105.588 154.425C74.4354 165.59 61.4629 125.229 64.5156 121.652C67.5682 118.076 111.774 133.524 105.588 154.425Z" fill="#55ABA1"/>
<path d="M68.9813 126.761C99.5411 146.845 117.567 155.71 116.68 192.057L115.203 196.194C117.567 158.665 98.3733 146.818 68.9813 126.761Z" fill="#558EAB"/>
<path d="M98.5342 210.113C74.1366 208.262 58.3127 200.008 51.364 195.998C49.8226 210.179 53.5478 222.972 55.6031 227.597C55.8599 228.367 67.9086 232.173 73.0557 233.253C97.3761 236.492 107.413 230.476 109.343 222.609C110.887 216.315 103.553 210.494 98.5342 210.113Z" fill="#CDAC91"/>
<path d="M134.444 210.113C158.841 208.262 174.665 200.008 181.614 195.998C183.155 210.179 179.43 222.972 177.375 227.597C177.118 228.367 165.069 232.173 159.922 233.253C135.602 236.492 125.565 230.476 123.635 222.609C122.091 216.315 129.425 210.494 134.444 210.113Z" fill="#CDAC91"/>
</svg>
