<svg width="233" height="285" viewBox="0 0 233 285" fill="none" xmlns="http://www.w3.org/2000/svg">
<rect width="233" height="285" rx="15" fill="white"/>
<path d="M5 15C5 9.47715 9.47715 5 15 5H217C222.523 5 227 9.47715 227 15V48H5V15Z" fill="#AA4245"/>
<path d="M69.3105 80L64.2945 63.272H67.4145L70.9425 75.416L74.5665 64.232H77.1345L80.7825 75.416L84.2865 63.272H87.4305L82.4145 80H79.4865L75.8625 68.984L72.2145 80H69.3105ZM88.8603 65.936V63.272H91.8843V65.936H88.8603ZM88.9323 80V68.168H91.8124V80H88.9323ZM97.3807 80.24C95.7727 80.24 94.5967 79.28 94.5967 77.168V63.272H97.4767V76.976C97.4767 77.504 97.7887 77.72 98.3167 77.72C98.5807 77.72 98.8927 77.672 99.2287 77.576V79.88C98.5807 80.12 97.9327 80.24 97.3807 80.24ZM108.434 63.272H111.314V80H108.434V78.824C107.618 79.832 106.298 80.24 105.026 80.24C101.81 80.24 100.034 77.624 100.034 74.072C100.034 70.208 102.122 67.928 105.026 67.928C106.37 67.928 107.69 68.48 108.434 69.368V63.272ZM105.722 77.576C107.81 77.576 108.698 76.064 108.698 74.096C108.698 72.128 107.81 70.544 105.746 70.544C103.826 70.544 102.914 71.888 102.914 74.096C102.914 76.28 103.802 77.576 105.722 77.576ZM127.032 80.36C122.088 80.36 118.92 76.976 118.92 71.624C118.92 66.272 122.088 62.888 127.032 62.888C130.56 62.888 133.224 64.592 134.448 67.784L131.688 68.864C130.944 66.776 129.312 65.744 127.032 65.744C123.792 65.744 121.92 67.856 121.92 71.6C121.92 75.368 123.816 77.504 127.032 77.504C129.336 77.504 130.968 76.424 131.688 74.312L134.496 75.368C133.296 78.608 130.608 80.36 127.032 80.36ZM140.509 67.928C143.629 67.928 145.573 69.68 145.573 72.536V80H142.933L142.693 78.464C141.997 79.568 140.653 80.24 139.093 80.24C136.597 80.24 134.821 78.632 134.821 76.376C134.821 74.984 135.445 73.928 136.597 73.4C137.389 73.04 138.397 72.872 139.741 72.872H142.693V72.536C142.693 71.24 141.829 70.448 140.461 70.448C139.261 70.448 138.133 71.072 137.269 72.224L135.181 70.472C136.597 68.768 138.349 67.928 140.509 67.928ZM139.549 77.792C141.277 77.792 142.693 76.568 142.693 75.032H140.125C139.141 75.032 138.565 75.152 138.181 75.44C137.869 75.656 137.701 75.992 137.701 76.424C137.701 77.264 138.397 77.792 139.549 77.792ZM154.226 67.928C155.018 67.928 155.714 68.12 156.482 68.6L155.09 71.144C154.682 70.88 154.226 70.736 153.65 70.736C151.898 70.736 151.034 71.816 151.034 74.048V80H148.154V68.168H151.058V70.184C151.562 68.72 152.882 67.928 154.226 67.928ZM164.38 63.272H167.26V80H164.38V78.824C163.564 79.832 162.244 80.24 160.972 80.24C157.756 80.24 155.98 77.624 155.98 74.072C155.98 70.208 158.068 67.928 160.972 67.928C162.316 67.928 163.636 68.48 164.38 69.368V63.272ZM161.668 77.576C163.756 77.576 164.644 76.064 164.644 74.096C164.644 72.128 163.756 70.544 161.692 70.544C159.772 70.544 158.86 71.888 158.86 74.096C158.86 76.28 159.748 77.576 161.668 77.576Z" fill="#55525B"/>
<path d="M117.249 229.708L115.655 229.031C115.655 220.333 118.205 200.386 136.69 183.814C142.108 178.956 147.08 176.611 155.494 166.922C166.011 154.811 166.967 137.282 157.725 123.578C162.505 128.04 168.242 137.282 165.055 153.536C162.105 168.581 143.777 180.945 138.284 185.088C133.522 188.68 125.519 198.216 121.392 208.992C118.09 217.612 116.931 226.442 117.249 229.708Z" fill="#AA4245"/>
<path d="M122.029 257.117C129.933 252.782 128.722 242.35 127.129 237.675C134.523 249.149 127.447 256.904 122.985 259.347C113.743 264.409 103.226 259.347 101.951 254.886C103.544 257.117 112.149 262.535 122.029 257.117Z" fill="#AA4245"/>
<path d="M95.8951 147.481L72.6294 159.592L73.5855 160.866L99.0822 147.799C94.939 144.612 92.9471 142.7 91.7519 139.513C89.3616 133.139 99.2947 131.12 103.863 130.589C121.711 128.514 131.166 133.883 135.096 137.601C128.722 129.952 115.018 125.809 98.7635 129.633C83.2303 133.288 90.4771 143.125 95.8951 147.481Z" fill="#AA4245"/>
<path d="M90.0007 146.723L69.6241 157.298C47.4421 103.39 133.503 98.0808 153.968 124.283C172.9 148.522 152.307 167.559 135.397 181.286C121.851 192.282 113.743 210.904 112.183 223.587C111.734 227.233 107.914 227.714 106.508 225.392C102.811 219.288 102.381 198.67 130.238 165.036C162.923 125.572 110.893 119.124 93.6117 127.894C79.7865 134.91 86.0458 142.596 90.0007 146.723Z" fill="#D58F90"/>
<circle cx="113.473" cy="244.737" r="11.0911" fill="#D48F90"/>
</svg>
