<svg width="1440" height="1273" viewBox="0 0 1440 1273" fill="none" xmlns="http://www.w3.org/2000/svg">
<g filter="url(#filter0_d_116_7687)">
<rect width="133" height="221" rx="6.80895" transform="matrix(0.996073 0.0885398 -0.690858 0.722991 590.227 365.146)" fill="white"/>
<path d="M583.571 385.771C579.741 385.431 577.887 383.617 580.83 380.537L584.243 380.689C582.733 382.268 583.592 383.278 585.851 383.479C587.808 383.653 590.202 383.149 591.73 381.549C593.565 379.629 591.032 379.339 588.966 379.156L590.781 377.256C593.454 377.493 595.087 376.879 596.119 375.799C597.304 374.559 596.618 373.869 595.075 373.732C593.312 373.575 591.448 374.212 590.216 375.47L587.118 375.021C589.621 372.401 593.911 371.133 597.218 371.427C600.414 371.711 602.005 373.393 599.712 375.793C598.68 376.873 597.08 377.859 594.843 378.354C596.633 379.078 596.241 380.583 594.788 382.103C592.094 384.923 587.318 386.104 583.571 385.771Z" fill="#181930"/>
<path d="M573.967 516.553C577.797 516.894 579.651 518.707 576.708 521.787L573.295 521.636C574.805 520.056 573.946 519.047 571.687 518.846C569.731 518.672 567.337 519.175 565.808 520.775C563.973 522.695 566.506 522.985 568.572 523.169L566.757 525.069C564.084 524.831 562.451 525.445 561.419 526.525C560.234 527.765 560.92 528.455 562.463 528.593C564.226 528.749 566.091 528.112 567.322 526.855L570.42 527.304C567.917 529.924 563.627 531.191 560.32 530.897C557.124 530.613 555.533 528.931 557.826 526.531C558.858 525.451 560.458 524.465 562.695 523.97C560.905 523.247 561.298 521.741 562.75 520.221C565.444 517.401 570.22 516.22 573.967 516.553Z" fill="#181930"/>
<path fill-rule="evenodd" clip-rule="evenodd" d="M578.863 395.273C578.545 395.606 578.18 395.921 577.784 396.213C579.329 396.61 579.418 398.058 577.887 399.661C576.194 401.432 573.163 402.72 571.117 402.538C570.184 402.455 569.617 402.082 569.436 401.532L569.427 401.541C568.098 403.613 568.145 404.254 569.412 404.622L569.15 404.897L562.638 404.318L562.901 404.043C564.708 403.955 565.988 403.293 568.262 401.438L568.271 401.429C567.15 401.863 566.013 402.085 565.081 402.002C563.034 401.82 562.747 400.237 564.44 398.465C566 396.832 568.698 395.61 570.713 395.571C570.893 395.264 571.138 394.942 571.452 394.614C573.144 392.843 576.175 391.554 578.222 391.736C580.269 391.918 580.556 393.502 578.863 395.273Z" fill="#181930"/>
<path fill-rule="evenodd" clip-rule="evenodd" d="M642.393 394.296C641.757 394.962 641.027 395.593 640.234 396.177C643.326 396.97 643.503 399.867 640.441 403.072C637.056 406.614 630.993 409.191 626.9 408.827C625.036 408.661 623.901 407.914 623.539 406.815L623.52 406.835C620.861 410.977 620.956 412.26 623.491 412.996L622.965 413.546L609.942 412.388L610.467 411.838C614.082 411.662 616.643 410.338 621.19 406.628L621.209 406.608C618.967 407.475 616.694 407.92 614.829 407.754C610.736 407.39 610.162 404.223 613.547 400.681C616.667 397.415 622.062 394.971 626.093 394.893C626.452 394.278 626.943 393.635 627.57 392.979C630.955 389.436 637.017 386.859 641.111 387.223C645.204 387.587 645.778 390.754 642.393 394.296Z" fill="#181930"/>
<path fill-rule="evenodd" clip-rule="evenodd" d="M593.462 445.503C592.827 446.169 592.097 446.8 591.303 447.384C594.395 448.177 594.573 451.074 591.51 454.278C588.125 457.821 582.063 460.398 577.969 460.034C576.105 459.868 574.971 459.121 574.608 458.022L574.59 458.041C571.931 462.183 572.026 463.466 574.561 464.202L574.035 464.752L561.012 463.594L561.537 463.045C565.152 462.869 567.713 461.544 572.26 457.834L572.279 457.814C570.036 458.682 567.763 459.127 565.899 458.961C561.805 458.597 561.231 455.43 564.616 451.888C567.737 448.622 573.132 446.177 577.163 446.1C577.521 445.485 578.012 444.842 578.639 444.186C582.024 440.643 588.087 438.066 592.18 438.43C596.273 438.794 596.847 441.961 593.462 445.503Z" fill="#181930"/>
<path fill-rule="evenodd" clip-rule="evenodd" d="M532.188 509.627C532.823 508.962 533.319 508.31 533.679 507.687C537.683 507.525 542.936 505.111 545.999 501.906C549.384 498.363 548.81 495.197 544.716 494.833C542.852 494.667 540.579 495.111 538.337 495.979L538.356 495.959C543.41 492.03 545.75 490.964 549.184 490.758L549.71 490.208L536.686 489.05L536.161 489.6C538.9 490.341 538.727 491.878 536.026 495.752L536.007 495.772C535.644 494.673 534.51 493.926 532.646 493.76C528.552 493.396 522.49 495.973 519.105 499.515C515.984 502.781 516.228 505.727 519.491 506.453C518.71 507.03 517.991 507.653 517.364 508.309C513.979 511.852 514.553 515.019 518.647 515.383C522.74 515.746 528.803 513.17 532.188 509.627Z" fill="#181930"/>
<path fill-rule="evenodd" clip-rule="evenodd" d="M587.97 507.885C588.288 507.552 588.536 507.226 588.715 506.915C590.718 506.834 593.344 505.626 594.875 504.024C596.568 502.253 596.281 500.669 594.234 500.488C593.302 500.405 592.165 500.627 591.044 501.061L591.054 501.051C593.581 499.086 594.751 498.553 596.468 498.45L596.731 498.175L590.219 497.596L589.956 497.871C591.326 498.242 591.239 499.01 589.889 500.947L589.879 500.957C589.698 500.407 589.131 500.034 588.199 499.951C586.152 499.769 583.121 501.058 581.428 502.829C579.868 504.462 579.99 505.935 581.622 506.298C581.231 506.586 580.872 506.898 580.558 507.226C578.866 508.997 579.153 510.581 581.199 510.762C583.246 510.944 586.277 509.656 587.97 507.885Z" fill="#181930"/>
<rect width="133" height="221" rx="6.80895" transform="matrix(0.996073 0.0885398 -0.690858 0.722991 590.228 365.146)" fill="#244556" fill-opacity="0.5"/>
<rect width="114.7" height="190.149" rx="5.86327" transform="matrix(0.993884 -0.110432 -0.682318 0.731055 1294.72 638.181)" fill="white"/>
<path d="M1298.43 644.89C1301.74 644.521 1302.27 646.164 1300.2 648.376C1298.04 650.692 1293.58 653.06 1290.06 653.452C1286.88 653.805 1286.02 652.434 1287.52 650.441L1290.64 649.782C1289.88 650.756 1289.94 651.671 1291.9 651.452C1293.98 651.221 1296.09 649.894 1297.2 648.71C1298.25 647.578 1298.31 646.651 1296.23 646.882C1294.83 647.037 1293.46 647.642 1292.33 648.33L1290.11 648.139L1297.66 641.572L1306.85 640.552L1304.98 642.554L1298.14 643.314L1295.38 645.696C1296.67 645.178 1297.67 644.974 1298.43 644.89Z" fill="#AA4245"/>
<path d="M1275.17 757.928C1271.86 758.296 1271.33 756.653 1273.4 754.441C1275.56 752.126 1280.02 749.757 1283.55 749.365C1286.72 749.013 1287.58 750.384 1286.08 752.376L1282.96 753.035C1283.72 752.061 1283.66 751.147 1281.7 751.365C1279.62 751.597 1277.51 752.923 1276.4 754.107C1275.35 755.239 1275.29 756.167 1277.37 755.935C1278.77 755.78 1280.14 755.175 1281.27 754.488L1283.49 754.678L1275.94 761.245L1266.75 762.266L1268.62 760.263L1275.46 759.503L1278.22 757.121C1276.93 757.639 1275.93 757.843 1275.17 757.928Z" fill="#AA4245"/>
<path d="M1312.12 661.613C1308.15 661.869 1303.94 665.025 1303.94 665.025C1303.94 665.025 1304.77 662.283 1300.97 662.852C1297.18 663.42 1293.15 665.598 1289.83 668.658C1281.79 676.06 1288.17 681.922 1288.17 681.922C1288.17 681.922 1308.22 672.998 1313.53 666.025C1315.57 663.345 1315.45 661.399 1312.12 661.613Z" fill="#AA4245"/>
<path d="M1301.68 690.913C1297.72 691.169 1293.51 694.325 1293.51 694.325C1293.51 694.325 1294.33 691.582 1290.54 692.151C1286.75 692.719 1282.72 694.898 1279.39 697.958C1271.36 705.359 1277.74 711.221 1277.74 711.221C1277.74 711.221 1297.78 702.298 1303.09 695.325C1305.13 692.644 1305.01 690.698 1301.68 690.913Z" fill="#AA4245"/>
<path d="M1349.47 657.463C1345.51 657.719 1341.3 660.875 1341.3 660.875C1341.3 660.875 1342.12 658.132 1338.33 658.701C1334.54 659.269 1330.51 661.448 1327.18 664.508C1319.15 671.909 1325.53 677.771 1325.53 677.771C1325.53 677.771 1345.57 668.848 1350.88 661.874C1352.92 659.194 1352.8 657.248 1349.47 657.463Z" fill="#AA4245"/>
<path d="M1259.13 743.351C1263.1 743.095 1267.31 739.939 1267.31 739.939C1267.31 739.939 1266.48 742.681 1270.28 742.113C1274.07 741.545 1278.1 739.366 1281.42 736.306C1289.46 728.905 1283.08 723.043 1283.08 723.043C1283.08 723.043 1263.04 731.966 1257.73 738.939C1255.68 741.62 1255.8 743.566 1259.13 743.351Z" fill="#AA4245"/>
<path d="M1221.78 747.502C1225.74 747.246 1229.96 744.09 1229.96 744.09C1229.96 744.09 1229.13 746.832 1232.92 746.264C1236.71 745.695 1240.74 743.517 1244.07 740.457C1252.1 733.056 1245.73 727.193 1245.73 727.193C1245.73 727.193 1225.68 736.117 1220.37 743.09C1218.33 745.77 1218.45 747.717 1221.78 747.502Z" fill="#AA4245"/>
<path d="M1288.25 658.469C1286.07 658.606 1283.72 660.379 1283.72 660.379C1283.72 660.379 1284.22 658.833 1282.13 659.148C1280.05 659.462 1277.82 660.683 1275.95 662.404C1271.45 666.565 1274.85 669.883 1274.85 669.883C1274.85 669.883 1285.94 664.884 1288.95 660.96C1290.11 659.451 1290.07 658.353 1288.25 658.469Z" fill="#AA4245"/>
<path d="M1290.19 745.145C1287.8 745.514 1288.6 743.913 1288.6 743.913C1288.6 743.913 1285.99 745.694 1284.08 745.824C1282.17 745.953 1281.96 745.003 1283.25 743.346C1286.38 739.338 1297.47 734.409 1297.47 734.409C1297.47 734.409 1300.72 737.815 1296.25 741.902C1294.53 743.473 1292.2 744.835 1290.19 745.145Z" fill="#AA4245"/>
<rect width="114.7" height="190.149" rx="5.86327" transform="matrix(0.993884 -0.110432 -0.682318 0.731055 1294.72 638.181)" fill="#244556" fill-opacity="0.7"/>
<rect width="133.2" height="216.978" rx="6.80895" transform="matrix(0.997453 -0.071333 0.795601 0.605821 126.266 730.951)" fill="white"/>
<path d="M149.257 737.779C153.12 737.502 158.195 739.138 160.99 741.266C163.917 743.495 163.633 745.715 159.522 746.009C155.825 746.273 150.97 744.897 147.926 742.97L150.742 742.402C152.189 743.343 154.674 744.247 156.964 744.084C159.392 743.91 158.983 742.656 157.486 741.516C156.056 740.427 153.709 739.513 151.281 739.687C149.653 739.804 149.243 740.364 149.4 741.013L145.666 740.767L139.438 734.485L150.144 733.719L152.674 735.646L144.701 736.216L146.938 738.494C147.458 738.017 148.375 737.842 149.257 737.779Z" fill="#181930"/>
<path d="M406.194 845.491C402.331 845.767 397.256 844.132 394.461 842.004C391.534 839.775 391.818 837.555 395.929 837.261C399.626 836.996 404.481 838.372 407.525 840.299L404.71 840.867C403.262 839.926 400.777 839.022 398.487 839.186C396.059 839.36 396.468 840.614 397.965 841.753C399.395 842.842 401.742 843.756 404.17 843.582C405.798 843.466 406.208 842.905 406.051 842.256L409.785 842.503L416.013 848.785L405.308 849.551L402.777 847.623L410.751 847.053L408.513 844.775C407.993 845.252 407.077 845.428 406.194 845.491Z" fill="#181930"/>
<path d="M386.777 824.885C395.728 827.957 391.741 832.892 391.741 832.892C391.741 832.892 376.496 829.293 376.629 825.611C377.27 823.885 382.313 825.712 382.313 825.712C382.313 825.712 381.906 823.632 386.777 824.885Z" fill="#181930"/>
<path d="M381.906 822.756C381.906 822.756 379.745 822.989 382.441 825.368C382.932 825.801 383.258 826.439 383.258 826.439C383.258 826.439 382 825.868 381.363 825.445C377.753 823.053 375.536 823.212 375.536 823.212L375.255 822.998L381.625 822.543L381.906 822.756Z" fill="#181930"/>
<path d="M180.926 757.869C180.964 754.155 165.814 750.589 165.814 750.589C165.814 750.589 161.826 755.563 170.777 758.595C175.452 759.941 175.242 757.768 175.242 757.768C175.242 757.768 179.901 759.545 180.926 757.869Z" fill="#181930"/>
<path d="M182.001 760.27C182.001 760.27 179.654 760.36 176.174 758.037C175.54 757.614 174.279 757.042 174.279 757.042C174.279 757.042 174.61 757.681 175.096 758.114C177.849 760.567 175.631 760.725 175.631 760.725L175.912 760.939L182.282 760.484L182.001 760.27Z" fill="#181930"/>
<path d="M225.037 764.289C225.112 756.992 195.352 749.987 195.352 749.987C195.352 749.987 187.519 759.757 205.103 765.714C214.286 768.358 213.872 764.089 213.872 764.089C213.872 764.089 223.024 767.579 225.037 764.289Z" fill="#181930"/>
<path d="M227.147 769.002C227.147 769.002 222.536 769.178 215.702 764.615C214.456 763.784 211.978 762.662 211.978 762.662C211.978 762.662 212.629 763.916 213.584 764.767C218.991 769.585 214.635 769.897 214.635 769.897L215.186 770.316L227.699 769.422L227.147 769.002Z" fill="#181930"/>
<path d="M302.647 823.386C320.228 829.42 312.397 839.113 312.397 839.113C312.397 839.113 282.451 832.045 282.713 824.812C283.972 821.421 293.878 825.011 293.878 825.011C293.878 825.011 293.079 820.923 302.647 823.386Z" fill="#181930"/>
<path d="M293.079 819.206C293.079 819.206 288.835 819.663 294.13 824.336C295.094 825.187 295.736 826.44 295.736 826.44C295.736 826.44 293.265 825.317 292.012 824.487C284.922 819.789 280.566 820.101 280.566 820.101L280.015 819.681L292.527 818.786L293.079 819.206Z" fill="#181930"/>
<path d="M276.879 760.581C276.954 753.284 247.194 746.28 247.194 746.28C247.194 746.28 239.361 756.05 256.945 762.007C266.128 764.65 265.714 760.382 265.714 760.382C265.714 760.382 274.866 763.872 276.879 760.581Z" fill="#181930"/>
<path d="M278.989 765.294C278.989 765.294 274.378 765.471 267.543 760.908C266.298 760.077 263.82 758.954 263.82 758.954C263.82 758.954 264.471 760.208 265.426 761.059C270.833 765.877 266.477 766.189 266.477 766.189L267.028 766.609L279.541 765.714L278.989 765.294Z" fill="#181930"/>
<path d="M295.517 796.16C295.592 788.863 265.833 781.858 265.833 781.858C265.833 781.858 258 791.628 275.583 797.585C284.766 800.229 284.353 795.96 284.353 795.96C284.353 795.96 293.505 799.45 295.517 796.16Z" fill="#181930"/>
<path d="M297.628 800.873C297.628 800.873 293.017 801.05 286.182 796.487C284.937 795.655 282.458 794.533 282.458 794.533C282.458 794.533 283.109 795.787 284.064 796.638C289.471 801.456 285.115 801.768 285.115 801.768L285.667 802.188L298.179 801.293L297.628 800.873Z" fill="#181930"/>
<path d="M354.49 819.678C372.071 825.712 364.24 835.405 364.24 835.405C364.24 835.405 334.294 828.337 334.556 821.104C335.815 817.714 345.72 821.303 345.72 821.303C345.72 821.303 344.922 817.216 354.49 819.678Z" fill="#181930"/>
<path d="M344.922 815.498C344.922 815.498 340.678 815.955 345.973 820.628C346.937 821.479 347.579 822.733 347.579 822.733C347.579 822.733 345.108 821.609 343.855 820.78C336.765 816.082 332.409 816.393 332.409 816.393L331.858 815.973L344.37 815.079L344.922 815.498Z" fill="#181930"/>
<path fill-rule="evenodd" clip-rule="evenodd" d="M133.057 730.465C129.306 730.733 128.69 732.798 131.682 735.076L293.476 858.276C296.468 860.554 301.934 862.183 305.685 861.915L424.962 853.385C428.713 853.117 429.329 851.053 426.337 848.774L264.543 725.574C261.551 723.296 256.085 721.667 252.334 721.935L133.057 730.465Z" fill="#244556" fill-opacity="0.5"/>
<rect width="133.2" height="220.817" rx="6.80895" transform="matrix(0.971399 -0.237453 -0.645181 0.76403 579.576 965.35)" fill="white"/>
<path d="M584.486 975.234L587.468 974.505L585.416 976.935L582.433 977.664L579.507 981.13L576.282 981.918L579.209 978.452L570.449 980.594L571.734 979.072L589.124 967.089L591.946 966.4L584.486 975.234ZM576.586 977.165L581.261 976.022L585.634 970.844L576.586 977.165Z" fill="#AA4245"/>
<path d="M561.473 1092.69L558.491 1093.41L560.543 1090.98L563.526 1090.26L566.452 1086.79L569.677 1086L566.75 1089.47L575.51 1087.33L574.225 1088.85L556.835 1100.83L554.013 1101.52L561.473 1092.69ZM569.373 1090.75L564.698 1091.9L560.325 1097.08L569.373 1090.75Z" fill="#AA4245"/>
<path d="M600.292 987.543C595.782 988.446 591.106 992.478 591.106 992.478C591.106 992.478 591.944 989.425 587.644 990.634C583.345 991.843 578.836 994.805 575.169 998.593C566.3 1007.75 573.789 1012.98 573.789 1012.98C573.789 1012.98 596.285 1000.29 602.067 992.018C604.289 988.838 604.077 986.784 600.292 987.543Z" fill="#AA4245"/>
<path d="M642.693 977.178C638.183 978.082 633.507 982.113 633.507 982.113C633.507 982.113 634.345 979.06 630.046 980.269C625.746 981.478 621.238 984.44 617.571 988.228C608.701 997.39 616.19 1002.62 616.19 1002.62C616.19 1002.62 638.687 989.925 644.468 981.653C646.69 978.473 646.479 976.419 642.693 977.178Z" fill="#AA4245"/>
<path d="M543.074 1083.04C547.585 1082.13 552.26 1078.1 552.26 1078.1C552.26 1078.1 551.422 1081.15 555.722 1079.95C560.022 1078.74 564.53 1075.77 568.197 1071.99C577.067 1062.83 569.577 1057.59 569.577 1057.59C569.577 1057.59 547.081 1070.29 541.3 1078.56C539.078 1081.74 539.289 1083.8 543.074 1083.04Z" fill="#AA4245"/>
<path d="M500.672 1093.4C505.182 1092.5 509.858 1088.47 509.858 1088.47C509.858 1088.47 509.02 1091.52 513.32 1090.31C517.619 1089.1 522.127 1086.14 525.795 1082.35C534.664 1073.19 527.175 1067.96 527.175 1067.96C527.175 1067.96 504.678 1080.65 498.897 1088.93C496.675 1092.11 496.886 1094.16 500.672 1093.4Z" fill="#AA4245"/>
<path d="M572.975 987.99C570.504 988.483 567.897 990.745 567.897 990.745C567.897 990.745 568.399 989.02 566.039 989.686C563.679 990.352 561.178 992.009 559.124 994.137C554.155 999.286 558.156 1002.28 558.156 1002.28C558.156 1002.28 570.601 995.19 573.874 990.532C575.132 988.741 575.048 987.577 572.975 987.99Z" fill="#AA4245"/>
<path d="M578.527 1080.01C575.819 1080.78 576.67 1078.95 576.67 1078.95C576.67 1078.95 573.763 1081.26 571.592 1081.7C569.42 1082.14 569.146 1081.17 570.553 1079.19C573.957 1074.43 586.41 1067.41 586.41 1067.41C586.41 1067.41 590.241 1070.52 585.303 1075.59C583.405 1077.54 580.8 1079.36 578.527 1080.01Z" fill="#AA4245"/>
<rect width="133.2" height="220.817" rx="6.80895" transform="matrix(0.971399 -0.237453 -0.645181 0.76403 579.576 965.35)" fill="#142E3D" fill-opacity="0.3"/>
<rect width="133" height="222" rx="6.80895" transform="matrix(0.98823 -0.000260412 -0.664625 0.652402 1135.01 126.199)" fill="white"/>
<path d="M1128.6 143.429C1124.88 143.43 1124 141.879 1126.41 139.244L1130.03 138.991C1128.54 140.615 1128.79 141.336 1130.73 141.336C1132.78 141.335 1134.58 140.505 1136.46 138.664L1142.58 132.655L1135.39 132.657L1137.51 130.581L1148.11 130.579L1139.75 138.79C1136.79 141.695 1132.56 143.428 1128.6 143.429Z" fill="#181930"/>
<path d="M1126.59 252.583C1130.31 252.582 1131.19 254.133 1128.78 256.768L1125.16 257.021C1126.65 255.397 1126.4 254.676 1124.46 254.676C1122.41 254.677 1120.61 255.507 1118.73 257.348L1112.61 263.357L1119.8 263.355L1117.68 265.431L1107.08 265.433L1115.44 257.222C1118.4 254.317 1122.63 252.584 1126.59 252.583Z" fill="#181930"/>
<path d="M1144.14 239.14C1144.89 242.775 1130.77 247.331 1130.77 247.331C1130.77 247.331 1125.92 242.741 1134.08 239.143C1138.39 237.497 1138.6 239.639 1138.6 239.639C1138.6 239.639 1142.81 237.572 1144.14 239.14Z" fill="#181930"/>
<path d="M1144.73 236.715C1144.73 236.715 1142.42 236.792 1139.46 239.311C1138.92 239.77 1137.8 240.418 1137.8 240.418C1137.8 240.418 1138 239.77 1138.39 239.311C1140.61 236.716 1138.42 236.717 1138.42 236.717L1138.65 236.488L1144.96 236.486L1144.73 236.715Z" fill="#181930"/>
<path d="M1121.77 156.359C1129.92 152.723 1125.08 148.171 1125.08 148.171C1125.08 148.171 1110.88 152.766 1111.71 156.362C1112.67 158.007 1117.25 155.863 1117.25 155.863C1117.25 155.863 1117.25 157.929 1121.77 156.359Z" fill="#181930"/>
<path d="M1117.42 158.786C1117.42 158.786 1115.26 158.71 1117.44 156.192C1117.84 155.733 1118.03 155.085 1118.03 155.085C1118.03 155.085 1116.91 155.733 1116.37 156.192C1113.3 158.787 1111.11 158.788 1111.11 158.788L1110.87 159.017L1117.18 159.015L1117.42 158.786Z" fill="#181930"/>
<path d="M1047.08 226.827C1046.47 224.513 1066.41 212.444 1079.12 206.087C1091.83 199.729 1088.1 207.206 1088.1 207.206L1058.87 229.439C1055.2 229.533 1047.69 229.142 1047.08 226.827Z" fill="#876F5E"/>
<path d="M1130.1 228.502C1135.61 226.18 1141.35 211.888 1141.9 206.366C1142.44 200.843 1132.23 204.347 1132.23 204.347L1112.67 230.909C1116.18 231.074 1124.58 230.823 1130.1 228.502Z" fill="#876F5E"/>
<path d="M1032.54 251.071C1027.61 246.819 1054.59 226.048 1071.87 213.271C1089.15 200.494 1100.01 198.859 1100.01 198.859L1134.86 199.187C1134.86 199.187 1140.19 199.237 1135.17 211.776C1130.14 224.316 1110.02 248.363 1099.45 251.7C1086.24 255.871 1065.86 255.883 1065.39 254.014C1065 252.459 1071.31 246.726 1075.43 243.588L1071.98 243.555C1068.19 247.203 1063.46 252.286 1059.04 253.954C1054.85 255.158 1037.47 255.323 1032.54 251.071Z" fill="#A68B75"/>
<path d="M1159.3 169.106C1153.44 167.326 1143.02 167.664 1132.05 169.361C1121.68 171.365 1106.44 177.194 1092.74 189.496C1078.22 202.522 1087.7 206.236 1094.53 206.959C1105.1 207.787 1111.65 207.926 1127.98 205.741C1136.6 204.425 1152.84 198.952 1162.61 186.483C1170.48 176.45 1168.38 171.863 1159.3 169.106Z" fill="#C2A28A"/>
<path d="M1141.86 195.019C1137.07 200.304 1126.4 205.223 1112.57 205.72C1098.73 206.216 1095.29 200.269 1101.6 195.029C1112.27 186.178 1117.48 185.578 1131.31 185.082C1145.15 184.586 1149.03 187.119 1141.86 195.019Z" fill="#E8D5C7"/>
<path d="M1123.65 193.289C1123.52 193.413 1123.58 193.512 1123.77 193.51C1123.96 193.508 1124.21 193.406 1124.34 193.282L1123.65 193.289ZM1127.14 189.759L1123.65 193.289L1124.34 193.282L1127.83 189.753L1127.14 189.759Z" fill="#3F3D3B"/>
<ellipse cx="1.78599" cy="1.94599" rx="1.78599" ry="1.94599" transform="matrix(0.943784 0.0413895 -0.745427 0.65011 1118.21 182.452)" fill="#3F3D3B"/>
<ellipse cx="1.78599" cy="1.94599" rx="1.78599" ry="1.94599" transform="matrix(0.943784 0.0413895 -0.745427 0.65011 1146.99 182.189)" fill="#3F3D3B"/>
<path d="M1116.39 224.333C1106.45 233.892 1090.37 237.62 1077.78 237.501C1065.18 237.383 1057.06 234.586 1067.38 224.66C1079.2 213.302 1094.64 209.065 1107.24 209.183C1119.84 209.302 1125.96 215.141 1116.39 224.333Z" fill="#C2A28A"/>
<path d="M1086.84 229.504L1087.68 230.755" stroke="#B5A89D" stroke-width="0.345066" stroke-linecap="round"/>
<path d="M1088.97 229.524L1085.56 230.736" stroke="#B5A89D" stroke-width="0.345066" stroke-linecap="round"/>
<path d="M1123.67 193.664L1120.59 194.174" stroke="#3F3D3B" stroke-width="0.690132" stroke-linecap="round"/>
<path d="M1123.67 193.664L1126.15 194.05" stroke="#3F3D3B" stroke-width="0.690132" stroke-linecap="round"/>
<path d="M1131.66 188.692C1130.87 189.466 1128.66 190.349 1127.04 190.35C1125.43 190.35 1125.02 189.468 1125.8 188.694C1126.59 187.919 1128.28 187.546 1129.9 187.546C1131.52 187.545 1132.45 187.918 1131.66 188.692Z" fill="#3F3D3B"/>
<ellipse cx="7.40707" cy="7.22876" rx="7.40707" ry="7.22876" transform="matrix(0.98823 -0.000260412 -0.664625 0.652402 1165.47 166.638)" fill="#C2A28A"/>
<path d="M1166.66 174.161C1166.92 172.281 1164.77 171.521 1164.16 171.227C1165.65 169.701 1172.13 166.822 1173.26 169.134C1174.24 171.159 1168.62 173.557 1166.66 174.161Z" fill="#3F3D3B"/>
<path d="M1057.19 256.09C1049.42 257.843 1040.93 257.304 1033.42 255.221C1028.32 254.2 1027.81 251.702 1033.68 245.433C1034.26 244.808 1034.91 244.145 1035.63 243.443C1039.22 239.905 1044.44 235.279 1051.57 229.434L1123.42 229.494C1120.63 233.861 1116.17 239.009 1111.74 243.423C1111.05 244.106 1110.37 244.771 1109.69 245.413C1105.27 249.59 1101.14 252.785 1099.01 253.453C1087.21 257.753 1063.31 258.476 1063.54 256.088C1063.69 254.535 1065.86 252.265 1070.57 247.97C1071.22 247.373 1071.92 246.737 1072.68 246.059L1069.56 246.06C1068.93 246.745 1068.33 247.38 1067.76 247.97C1063.62 252.252 1061.05 254.209 1057.19 256.09Z" fill="#A8C0CC"/>
<path d="M1069.56 246.06C1062.81 245.425 1070.44 234.999 1035.63 243.443M1069.56 246.06L1072.68 246.059M1069.56 246.06C1068.93 246.745 1068.33 247.38 1067.76 247.97M1035.63 243.443C1039.22 239.905 1044.44 235.279 1051.57 229.434L1123.42 229.494C1120.63 233.861 1116.17 239.009 1111.74 243.423M1035.63 243.443C1034.91 244.145 1034.26 244.808 1033.68 245.433M1072.68 246.059C1100.65 236.821 1094.7 239.608 1111.74 243.423M1072.68 246.059C1071.92 246.737 1071.22 247.373 1070.57 247.97M1111.74 243.423C1111.05 244.106 1110.37 244.771 1109.69 245.413M1033.68 245.433C1027.81 251.702 1028.32 254.2 1033.42 255.221C1040.93 257.304 1049.42 257.843 1057.19 256.09C1061.05 254.209 1063.62 252.252 1067.76 247.97M1033.68 245.433C1047.86 245.579 1055.25 246.201 1067.76 247.97M1070.57 247.97C1065.86 252.265 1063.69 254.535 1063.54 256.088C1063.31 258.476 1087.21 257.753 1099.01 253.453C1101.14 252.785 1105.27 249.59 1109.69 245.413M1070.57 247.97C1086.33 245.889 1094.94 245.233 1109.69 245.413" stroke="#809CAA" stroke-width="0.945767"/>
<path d="M1195.49 149.475C1184.13 143.25 1158.49 151.258 1155.64 158.798L1162.86 158.891C1164.2 158.314 1164.98 158.307 1165.7 158.649C1167.84 159.671 1166.27 163.904 1164.87 168.89C1162.54 174.823 1161.59 179.541 1171.27 180.228C1185.74 181.256 1194.49 177.836 1208.14 167.835C1211.01 165.732 1191.43 172.501 1191.76 168.822C1195.34 168.024 1198.76 166.835 1201.42 164.218C1203.71 161.971 1203.29 160.508 1200.39 160.58C1198.2 163.283 1192.6 164.837 1194.16 161.973C1198.43 154.117 1200.08 151.989 1195.49 149.475Z" fill="#AA4245"/>
<path d="M1156.16 158.253L1153.87 160.494L1161.3 160.493L1163.58 158.251C1163.19 156.633 1160.16 156.51 1156.16 158.253Z" fill="#B0ACA5"/>
<path d="M1108.7 177.933C1135.51 153.497 1191.18 153.243 1168.32 177.918L1108.7 177.933Z" fill="#B5CBD7"/>
<path d="M1103.49 179.287L1098.71 183.984C1114.3 183.504 1134.67 176.176 1136.87 180.95L1151.38 166.702L1103.49 179.287Z" fill="#809CAA"/>
<path d="M1170.99 177.996L1165.43 183.807C1150.8 183.335 1148.79 176.172 1136.87 180.95L1151.38 166.702L1170.99 177.996Z" fill="#809CAA"/>
<path d="M1120.5 175.902L1104.24 179.299C1104.24 179.299 1102.81 179.126 1104.76 177.922C1108.17 173.866 1119.73 171.021 1120.8 174.362L1120.5 175.902Z" fill="#B0ACA5"/>
<path d="M1160.69 175.891L1170.03 179.281C1170.03 179.281 1171.82 179.108 1172.33 177.904C1177.18 173.848 1171.41 171.008 1163.53 174.35L1160.69 175.891Z" fill="#B0ACA5"/>
<path d="M1086.22 204.114C1102.16 208.333 1112.87 208.851 1137.39 203.464L1137.39 203.464C1142.03 202.19 1145.55 204.264 1144.57 208.163L1135.26 211.428C1133.61 215.428 1131.99 218.249 1129.01 222.723C1127.94 224.356 1127.31 225.26 1126.11 226.862L1054.05 226.881C1055.93 225.266 1057.07 224.36 1059.23 222.742C1064.64 218.482 1068.3 215.719 1073.62 211.995L1070.11 208.177C1077.08 204.276 1084.17 202.841 1086.22 204.114Z" fill="#A8C0CC"/>
<path d="M1086.22 204.114C1102.16 208.333 1112.87 208.851 1137.39 203.464L1136.18 209.114M1086.22 204.114L1077.76 209.13M1086.22 204.114C1084.17 202.841 1077.08 204.276 1070.11 208.177L1073.62 211.995M1136.18 209.114C1122.15 213.079 1110.95 215.223 1101.67 215.382M1136.18 209.114C1135.86 209.936 1135.56 210.701 1135.26 211.428M1077.76 209.13C1084.31 213.528 1091.93 215.548 1101.67 215.382M1077.76 209.13C1076.25 210.162 1074.89 211.106 1073.62 211.995M1059.23 222.742C1064.3 225.183 1075.97 224.038 1094.18 222.733M1059.23 222.742C1057.07 224.36 1055.93 225.266 1054.05 226.881L1126.11 226.862C1127.31 225.26 1127.94 224.356 1129.01 222.723M1059.23 222.742C1064.64 218.482 1068.3 215.719 1073.62 211.995M1094.18 222.733L1101.67 215.382M1094.18 222.733C1108.23 223.84 1116.27 224.869 1129.01 222.723M1129.01 222.723C1131.99 218.249 1133.61 215.428 1135.26 211.428M1137.38 203.464C1142.03 202.19 1145.55 204.264 1144.57 208.163L1135.26 211.428" stroke="#809CAA" stroke-width="0.945767"/>
<path fill-rule="evenodd" clip-rule="evenodd" d="M1118.39 211.833L1161.24 211.822L1137.81 234.826C1132.16 239.122 1125.66 241.175 1106.97 244.065C1094.86 240.772 1091.22 238.791 1094.95 234.837L1106.67 223.335L1118.39 211.833ZM1152.97 215.007L1132.78 234.827C1127.7 236.793 1122.56 238.09 1110.46 240.642C1103.44 238.254 1100.29 236.949 1099.62 234.836L1119.81 215.016L1136.39 215.012L1152.97 215.007Z" fill="#434343"/>
<path d="M1132.78 234.827L1152.97 215.007L1136.39 215.012L1110.46 240.642C1122.56 238.09 1127.7 236.793 1132.78 234.827Z" fill="#434343"/>
<path d="M1099.62 234.836C1100.29 236.949 1103.44 238.254 1110.46 240.642L1136.39 215.012L1119.81 215.016L1099.62 234.836Z" fill="#595454"/>
<path d="M1110.46 240.642C1122.56 238.09 1127.7 236.793 1132.78 234.827L1152.97 215.007L1136.39 215.012M1110.46 240.642C1103.44 238.254 1100.29 236.949 1099.62 234.836L1119.81 215.016L1136.39 215.012M1110.46 240.642L1136.39 215.012M1118.39 211.833L1161.24 211.822L1137.81 234.826C1132.16 239.122 1125.66 241.175 1106.97 244.065C1094.86 240.772 1091.22 238.791 1094.95 234.837L1106.67 223.335L1118.39 211.833Z" stroke="#434343" stroke-width="0.90288"/>
<rect width="133" height="222" rx="6.80895" transform="matrix(0.98823 -0.000260412 -0.664625 0.652402 1135.01 126.199)" fill="#133141" fill-opacity="0.1"/>
<rect width="133.2" height="218.898" rx="6.80895" transform="matrix(0.975785 0.218732 0.565581 0.824693 1.12207 48.2867)" fill="white"/>
<path d="M21.1415 61.7992C25.0013 62.6644 29.1115 65.5935 31.2392 68.6959C33.4921 71.9809 31.9639 73.5495 28.212 72.7085C24.4332 71.8615 19.7804 68.9073 17.5432 65.6451C16.8392 64.6186 16.513 63.6767 16.562 62.9155L16.9353 56.532L20.6601 57.3669L20.2281 61.633C20.5363 61.6828 20.8176 61.7266 21.1415 61.7992ZM26.4129 70.0851C28.3833 70.5268 29.1978 69.7828 27.9463 67.9578C26.6947 66.1328 24.3782 64.6869 22.4079 64.2452C20.4105 63.7975 19.5959 64.5416 20.8475 66.3665C22.0991 68.1915 24.4155 69.6374 26.4129 70.0851Z" fill="#AA4245"/>
<path d="M234.86 244.552C231.001 243.687 226.89 240.758 224.763 237.655C222.51 234.37 224.038 232.802 227.79 233.643C231.569 234.49 236.222 237.444 238.459 240.706C239.163 241.733 239.489 242.674 239.44 243.436L239.067 249.819L235.342 248.984L235.774 244.718C235.466 244.668 235.184 244.625 234.86 244.552ZM229.589 236.266C227.619 235.824 226.804 236.568 228.056 238.393C229.307 240.218 231.624 241.664 233.594 242.106C235.591 242.554 236.406 241.81 235.154 239.985C233.903 238.16 231.586 236.714 229.589 236.266Z" fill="#AA4245"/>
<path d="M43.6151 88.5725L32.4873 79.1853L32.6375 86.1117L43.6225 95.4221L43.6151 88.5725Z" fill="#AA4245"/>
<path d="M81.7442 103.504L62.7683 87.5699L62.4236 99.173L81.6381 115.085L81.7442 103.504Z" fill="#AA4245"/>
<path d="M131.012 114.548L112.036 98.6136L111.691 110.217L130.906 126.128L131.012 114.548Z" fill="#AA4245"/>
<path d="M162.461 160.405L143.485 144.471L143.14 156.074L162.355 171.986L162.461 160.405Z" fill="#AA4245"/>
<path d="M111.744 149.036L92.7683 133.103L92.4236 144.706L111.638 160.617L111.744 149.036Z" fill="#AA4245"/>
<path d="M145.512 198.273L126.536 182.339L126.191 193.942L145.406 209.854L145.512 198.273Z" fill="#AA4245"/>
<path d="M195.564 208.675L176.589 192.741L176.244 204.344L195.458 220.256L195.564 208.675Z" fill="#AA4245"/>
<path d="M222.733 219.709L211.605 210.322L211.756 217.248L222.741 226.559L222.733 219.709Z" fill="#AA4245"/>
<rect width="133.2" height="218.898" rx="6.80895" transform="matrix(0.975785 0.218732 0.565581 0.824693 1.12207 48.2866)" fill="#133141" fill-opacity="0.2"/>
<rect width="133" height="221" rx="6.80895" transform="matrix(0.980581 0.196116 0.528302 0.849057 1200.35 1052.3)" fill="white"/>
<path d="M1226.48 1077.63C1222.71 1076.88 1218.35 1074.44 1216.1 1070.82L1219.22 1071.31C1220.38 1073.16 1222.66 1074.5 1224.88 1074.95C1226.81 1075.33 1228.06 1074.9 1226.9 1073.02C1225.49 1070.77 1222.9 1070.19 1220.86 1069.78L1219.48 1067.55C1222.11 1068.08 1222.54 1067.45 1221.76 1066.18C1220.85 1064.72 1219.21 1063.8 1217.69 1063.49C1215.95 1063.15 1215.35 1063.79 1216.25 1065.26L1212.93 1064.43C1211.01 1061.36 1212.7 1060.13 1215.95 1060.78C1219.1 1061.41 1223.04 1063.66 1224.79 1066.48C1225.58 1067.74 1225.74 1068.85 1224.61 1069.28C1227.24 1070.34 1229.23 1072.2 1230.34 1073.98C1232.4 1077.29 1230.17 1078.37 1226.48 1077.63Z" fill="#181930"/>
<path d="M1421.73 1241.83C1425.51 1242.59 1429.87 1245.02 1432.12 1248.64L1429 1248.16C1427.84 1246.3 1425.56 1244.96 1423.33 1244.52C1421.41 1244.13 1420.15 1244.56 1421.32 1246.44C1422.73 1248.69 1425.32 1249.27 1427.35 1249.68L1428.74 1251.91C1426.11 1251.38 1425.67 1252.02 1426.46 1253.28C1427.37 1254.74 1429.01 1255.67 1430.53 1255.97C1432.27 1256.32 1432.87 1255.68 1431.97 1254.2L1435.29 1255.03C1437.21 1258.11 1435.52 1259.33 1432.27 1258.68C1429.12 1258.05 1425.18 1255.8 1423.43 1252.99C1422.64 1251.72 1422.47 1250.62 1423.61 1250.18C1420.98 1249.12 1418.99 1247.27 1417.88 1245.48C1415.82 1242.17 1418.05 1241.09 1421.73 1241.83Z" fill="#181930"/>
<path fill-rule="evenodd" clip-rule="evenodd" d="M1237.13 1089.16C1237.37 1089.55 1237.55 1089.92 1237.67 1090.25C1239.59 1090.88 1241.89 1092.71 1243.06 1094.59C1244.36 1096.67 1243.77 1098.03 1241.76 1097.63C1240.84 1097.44 1239.78 1096.92 1238.78 1096.22L1238.79 1096.23C1240.86 1098.72 1241.88 1099.53 1243.52 1100.1L1243.73 1100.42L1237.32 1099.14L1237.11 1098.82C1238.51 1098.86 1238.58 1098.14 1237.64 1096L1237.64 1095.99C1237.36 1096.44 1236.74 1096.62 1235.82 1096.44C1233.8 1096.03 1231.12 1094.02 1229.83 1091.94C1228.63 1090.02 1229.04 1088.72 1230.68 1088.84C1230.36 1088.47 1230.08 1088.09 1229.84 1087.7C1228.54 1085.62 1229.13 1084.26 1231.14 1084.67C1233.15 1085.07 1235.84 1087.08 1237.13 1089.16Z" fill="#181930"/>
<path fill-rule="evenodd" clip-rule="evenodd" d="M1289.47 1093.35C1289.96 1094.13 1290.31 1094.86 1290.54 1095.53C1294.38 1096.79 1298.99 1100.44 1301.33 1104.21C1303.92 1108.37 1302.75 1111.09 1298.72 1110.28C1296.89 1109.91 1294.78 1108.88 1292.78 1107.47L1292.79 1107.49C1296.92 1112.46 1298.97 1114.08 1302.26 1115.22L1302.66 1115.87L1289.84 1113.31L1289.44 1112.66C1292.23 1112.75 1292.36 1111.3 1290.5 1107.03L1290.48 1107.01C1289.92 1107.91 1288.68 1108.27 1286.84 1107.9C1282.81 1107.1 1277.45 1103.07 1274.86 1098.91C1272.47 1095.08 1273.28 1092.47 1276.57 1092.71C1275.93 1091.97 1275.36 1091.2 1274.88 1090.43C1272.29 1086.27 1273.46 1083.55 1277.49 1084.36C1281.52 1085.17 1286.88 1089.19 1289.47 1093.35Z" fill="#181930"/>
<path fill-rule="evenodd" clip-rule="evenodd" d="M1326.89 1153.49C1327.37 1154.27 1327.73 1155 1327.95 1155.67C1331.8 1156.93 1336.41 1160.58 1338.75 1164.34C1341.34 1168.5 1340.17 1171.22 1336.14 1170.42C1334.31 1170.05 1332.19 1169.01 1330.19 1167.6L1330.21 1167.62C1334.34 1172.6 1336.39 1174.22 1339.67 1175.36L1340.08 1176.01L1327.26 1173.44L1326.85 1172.8C1329.65 1172.88 1329.78 1171.44 1327.91 1167.17L1327.9 1167.14C1327.34 1168.04 1326.09 1168.41 1324.26 1168.04C1320.23 1167.23 1314.86 1163.21 1312.28 1159.05C1309.89 1155.21 1310.7 1152.6 1313.99 1152.85C1313.35 1152.11 1312.77 1151.34 1312.29 1150.57C1309.71 1146.41 1310.87 1143.69 1314.9 1144.5C1318.93 1145.3 1324.3 1149.33 1326.89 1153.49Z" fill="#181930"/>
<path fill-rule="evenodd" clip-rule="evenodd" d="M1373.74 1228.79C1373.26 1228.01 1372.67 1227.24 1372.02 1226.48C1375.16 1226.62 1375.9 1224.04 1373.55 1220.27C1370.97 1216.11 1365.6 1212.09 1361.57 1211.28C1359.73 1210.92 1358.49 1211.28 1357.93 1212.18L1357.91 1212.15C1356.15 1207.65 1356.49 1206.51 1359.08 1206.55L1358.68 1205.9L1345.86 1203.34L1346.26 1203.98C1349.72 1205.15 1351.94 1207.06 1355.62 1211.7L1355.64 1211.72C1353.64 1210.31 1351.52 1209.27 1349.69 1208.91C1345.66 1208.1 1344.49 1210.82 1347.08 1214.98C1349.46 1218.81 1354.21 1222.53 1358.09 1223.72C1358.32 1224.38 1358.67 1225.1 1359.15 1225.87C1361.74 1230.03 1367.1 1234.06 1371.13 1234.87C1375.16 1235.67 1376.33 1232.95 1373.74 1228.79Z" fill="#181930"/>
<path fill-rule="evenodd" clip-rule="evenodd" d="M1418.33 1231.36C1418.09 1230.97 1417.8 1230.58 1417.47 1230.21C1419.04 1230.28 1419.41 1228.98 1418.24 1227.1C1416.94 1225.02 1414.26 1223.01 1412.25 1222.61C1411.33 1222.42 1410.71 1222.6 1410.43 1223.05L1410.42 1223.04C1409.53 1220.79 1409.7 1220.22 1411 1220.24L1410.8 1219.91L1404.39 1218.63L1404.59 1218.96C1406.32 1219.54 1407.43 1220.49 1409.27 1222.81L1409.28 1222.82C1408.28 1222.12 1407.22 1221.6 1406.31 1221.42C1404.29 1221.01 1403.71 1222.37 1405 1224.45C1406.19 1226.37 1408.57 1228.23 1410.51 1228.83C1410.62 1229.16 1410.8 1229.52 1411.04 1229.9C1412.33 1231.98 1415.01 1233.99 1417.03 1234.4C1419.04 1234.8 1419.63 1233.44 1418.33 1231.36Z" fill="#181930"/>
<rect width="133" height="221" rx="6.80895" transform="matrix(0.980581 0.196116 0.528302 0.849057 1200.35 1052.3)" fill="#142E3D" fill-opacity="0.7"/>
</g>
<defs>
<filter id="filter0_d_116_7687" x="-0.0634766" y="49.5803" width="1448.9" height="1223.26" filterUnits="userSpaceOnUse" color-interpolation-filters="sRGB">
<feFlood flood-opacity="0" result="BackgroundImageFix"/>
<feColorMatrix in="SourceAlpha" type="matrix" values="0 0 0 0 0 0 0 0 0 0 0 0 0 0 0 0 0 0 127 0" result="hardAlpha"/>
<feOffset dy="4"/>
<feGaussianBlur stdDeviation="2"/>
<feComposite in2="hardAlpha" operator="out"/>
<feColorMatrix type="matrix" values="0 0 0 0 0 0 0 0 0 0 0 0 0 0 0 0 0 0 0.25 0"/>
<feBlend mode="normal" in2="BackgroundImageFix" result="effect1_dropShadow_116_7687"/>
<feBlend mode="normal" in="SourceGraphic" in2="effect1_dropShadow_116_7687" result="shape"/>
</filter>
</defs>
</svg>
