<svg width="407" height="351" viewBox="0 0 407 351" fill="none" xmlns="http://www.w3.org/2000/svg">
<path fill-rule="evenodd" clip-rule="evenodd" d="M343.059 238.783L323.503 203.494C317.494 192.651 307.709 184.394 296.009 180.294C292.932 179.216 289.951 179.618 287.536 180.951L286.165 176.861C285.291 176.544 284.495 176.248 283.759 175.974C277.488 173.641 275.579 172.931 266.618 174.487C255.995 176.332 245.254 184.243 241.267 187.513L243.872 188.948C238.432 189.981 233.082 192.027 228.089 195.157L226.323 196.264C204.691 209.827 197.306 237.856 209.448 260.317L212.748 266.422C224.039 287.31 249.933 295.024 270.681 284.196L254.656 293.869L246.369 289.302L227.264 292.242C229.148 295.055 234.032 300.357 241.243 303.704C245.816 305.827 251.379 308.043 255.458 309.667C257.262 310.386 258.776 310.989 259.785 311.417L259.801 310.403C267.579 311.667 275.653 310.136 282.518 305.919L329.967 276.773C332.567 275.177 334.852 273.163 336.746 270.835C340.507 267.811 344.605 262.572 346.679 255.529C348.344 249.875 346.982 247.43 345.124 244.097L345.124 244.097C344.939 243.764 344.749 243.423 344.556 243.069L344.555 243.069C344.323 241.629 343.835 240.184 343.059 238.783ZM279.492 278.878L297.403 268.066L298.386 253.249C295.249 263.387 288.79 272.52 279.492 278.878ZM300.25 244.364L304.421 238.917L307.911 240.84L296.786 220.19C300.079 228.017 301.163 236.334 300.25 244.364ZM290.434 208.399L284.776 197.899L282.284 199.211C285.344 201.839 288.095 204.911 290.434 208.399Z" fill="#193545"/>
<path d="M382.134 109.28C378.713 93.7803 372.024 90.9333 362.855 85.0686L338.291 104.134C346.997 125.403 369.857 169.37 375.081 161.31C381.61 151.236 387.024 131.436 382.134 109.28Z" fill="#5D302E"/>
<path d="M212.956 337.2C193.538 338.544 176.798 332.946 169.433 329.14L206.93 300.256H245.096L261.836 331.826C253.131 332.722 230.72 335.971 212.956 337.2Z" fill="#69312E"/>
<path d="M365.623 123.596H271.88L268.532 145.762L293.977 200.171L353.57 161.212L365.623 123.596Z" fill="#643331"/>
<path d="M114.664 30.1007C134.082 14.5386 137.962 15.4494 159.389 12.0908L192.199 42.2674L162.067 87.9943H75.6904C80.3776 76.2694 94.0625 46.6111 114.664 30.1007Z" fill="#723B39"/>
<path d="M229.05 335.134L256.758 332.496C273.33 330.919 288.09 321.36 296.307 306.884L371.403 174.588C379.347 160.594 381.883 144.174 378.532 128.435C377.575 123.942 372.83 121.368 368.542 123.016L344.284 132.338C330.029 137.817 318.084 148.018 310.443 161.24L218.993 319.471C214.734 326.839 220.579 335.94 229.05 335.134Z" fill="#823B38"/>
<path d="M204.986 4.38138L155.839 12.6478C142.875 14.8283 139.376 31.8151 150.422 38.9417L296.83 133.395C310.145 141.985 326.819 143.517 341.477 137.498L364.667 127.974C382.389 120.696 384.474 96.4317 368.253 86.2373L253.4 14.0557C238.995 5.00236 221.764 1.55931 204.986 4.38138Z" fill="#9D4D4A"/>
<path d="M280.072 121.772L155.61 41.8352C133.357 27.5431 103.658 35.0125 90.8142 58.1316L22.0473 181.914C9.6477 204.233 16.7086 232.346 38.1831 246.157L163.035 326.457C183.791 339.806 211.493 333.08 223.816 311.698L295.859 186.696C308.761 164.309 301.813 135.736 280.072 121.772Z" fill="#BD5F5B"/>
<g filter="url(#filter0_i_53_3474)">
<ellipse cx="133.944" cy="122.924" rx="22.0964" ry="22.1666" fill="#F3F5F4"/>
</g>
<g filter="url(#filter1_i_53_3474)">
<ellipse cx="169.311" cy="243.344" rx="22.0964" ry="22.1666" fill="#F3F5F4"/>
</g>
<g filter="url(#filter2_i_53_3474)">
<ellipse cx="12.5864" cy="12.6163" rx="12.5864" ry="12.6163" transform="matrix(0.935101 -0.354382 -0.352422 0.935841 328.95 179.225)" fill="#DADADA"/>
</g>
<g filter="url(#filter3_i_53_3474)">
<ellipse cx="12.5864" cy="12.6163" rx="12.5864" ry="12.6163" transform="matrix(0.935101 -0.354382 -0.352422 0.935841 302.347 226.245)" fill="#DADADA"/>
</g>
<g filter="url(#filter4_i_53_3474)">
<ellipse cx="12.5864" cy="12.6163" rx="12.5864" ry="12.6163" transform="matrix(0.935101 -0.354382 -0.352422 0.935841 277.82 273.096)" fill="#DADADA"/>
</g>
<g filter="url(#filter5_i_53_3474)">
<ellipse cx="11.2739" cy="22.114" rx="11.2739" ry="22.114" transform="matrix(0.475962 -0.879466 0.878156 0.478374 246.634 64.0957)" fill="#F3F5F4"/>
</g>
<defs>
<filter id="filter0_i_53_3474" x="111.848" y="100.758" width="44.1934" height="44.3333" filterUnits="userSpaceOnUse" color-interpolation-filters="sRGB">
<feFlood flood-opacity="0" result="BackgroundImageFix"/>
<feBlend mode="normal" in="SourceGraphic" in2="BackgroundImageFix" result="shape"/>
<feColorMatrix in="SourceAlpha" type="matrix" values="0 0 0 0 0 0 0 0 0 0 0 0 0 0 0 0 0 0 127 0" result="hardAlpha"/>
<feOffset dx="3.19634" dy="4.26178"/>
<feComposite in2="hardAlpha" operator="arithmetic" k2="-1" k3="1"/>
<feColorMatrix type="matrix" values="0 0 0 0 0.709804 0 0 0 0 0.698039 0 0 0 0 0.678431 0 0 0 1 0"/>
<feBlend mode="normal" in2="shape" result="effect1_innerShadow_53_3474"/>
</filter>
<filter id="filter1_i_53_3474" x="147.215" y="221.178" width="44.1934" height="44.3333" filterUnits="userSpaceOnUse" color-interpolation-filters="sRGB">
<feFlood flood-opacity="0" result="BackgroundImageFix"/>
<feBlend mode="normal" in="SourceGraphic" in2="BackgroundImageFix" result="shape"/>
<feColorMatrix in="SourceAlpha" type="matrix" values="0 0 0 0 0 0 0 0 0 0 0 0 0 0 0 0 0 0 127 0" result="hardAlpha"/>
<feOffset dx="3.19634" dy="4.26178"/>
<feComposite in2="hardAlpha" operator="arithmetic" k2="-1" k3="1"/>
<feColorMatrix type="matrix" values="0 0 0 0 0.709804 0 0 0 0 0.698039 0 0 0 0 0.678431 0 0 0 1 0"/>
<feBlend mode="normal" in2="shape" result="effect1_innerShadow_53_3474"/>
</filter>
<filter id="filter2_i_53_3474" x="323.688" y="173.946" width="25.1699" height="25.2495" filterUnits="userSpaceOnUse" color-interpolation-filters="sRGB">
<feFlood flood-opacity="0" result="BackgroundImageFix"/>
<feBlend mode="normal" in="SourceGraphic" in2="BackgroundImageFix" result="shape"/>
<feColorMatrix in="SourceAlpha" type="matrix" values="0 0 0 0 0 0 0 0 0 0 0 0 0 0 0 0 0 0 127 0" result="hardAlpha"/>
<feOffset dx="-4.26178" dy="-2.13089"/>
<feComposite in2="hardAlpha" operator="arithmetic" k2="-1" k3="1"/>
<feColorMatrix type="matrix" values="0 0 0 0 0.709804 0 0 0 0 0.698039 0 0 0 0 0.678431 0 0 0 1 0"/>
<feBlend mode="normal" in2="shape" result="effect1_innerShadow_53_3474"/>
</filter>
<filter id="filter3_i_53_3474" x="297.085" y="220.967" width="25.1699" height="25.2495" filterUnits="userSpaceOnUse" color-interpolation-filters="sRGB">
<feFlood flood-opacity="0" result="BackgroundImageFix"/>
<feBlend mode="normal" in="SourceGraphic" in2="BackgroundImageFix" result="shape"/>
<feColorMatrix in="SourceAlpha" type="matrix" values="0 0 0 0 0 0 0 0 0 0 0 0 0 0 0 0 0 0 127 0" result="hardAlpha"/>
<feOffset dx="-4.26178" dy="-2.13089"/>
<feComposite in2="hardAlpha" operator="arithmetic" k2="-1" k3="1"/>
<feColorMatrix type="matrix" values="0 0 0 0 0.709804 0 0 0 0 0.698039 0 0 0 0 0.678431 0 0 0 1 0"/>
<feBlend mode="normal" in2="shape" result="effect1_innerShadow_53_3474"/>
</filter>
<filter id="filter4_i_53_3474" x="272.559" y="267.817" width="25.1699" height="25.2495" filterUnits="userSpaceOnUse" color-interpolation-filters="sRGB">
<feFlood flood-opacity="0" result="BackgroundImageFix"/>
<feBlend mode="normal" in="SourceGraphic" in2="BackgroundImageFix" result="shape"/>
<feColorMatrix in="SourceAlpha" type="matrix" values="0 0 0 0 0 0 0 0 0 0 0 0 0 0 0 0 0 0 127 0" result="hardAlpha"/>
<feOffset dx="-4.26178" dy="-2.13089"/>
<feComposite in2="hardAlpha" operator="arithmetic" k2="-1" k3="1"/>
<feColorMatrix type="matrix" values="0 0 0 0 0.709804 0 0 0 0 0.698039 0 0 0 0 0.678431 0 0 0 1 0"/>
<feBlend mode="normal" in2="shape" result="effect1_innerShadow_53_3474"/>
</filter>
<filter id="filter5_i_53_3474" x="251.267" y="50.2605" width="40.3047" height="28.9978" filterUnits="userSpaceOnUse" color-interpolation-filters="sRGB">
<feFlood flood-opacity="0" result="BackgroundImageFix"/>
<feBlend mode="normal" in="SourceGraphic" in2="BackgroundImageFix" result="shape"/>
<feColorMatrix in="SourceAlpha" type="matrix" values="0 0 0 0 0 0 0 0 0 0 0 0 0 0 0 0 0 0 127 0" result="hardAlpha"/>
<feOffset dx="-2.13089" dy="3.19634"/>
<feComposite in2="hardAlpha" operator="arithmetic" k2="-1" k3="1"/>
<feColorMatrix type="matrix" values="0 0 0 0 0.709804 0 0 0 0 0.698039 0 0 0 0 0.678431 0 0 0 1 0"/>
<feBlend mode="normal" in2="shape" result="effect1_innerShadow_53_3474"/>
</filter>
</defs>
</svg>
