<svg width="1440" height="815" viewBox="0 0 1440 815" fill="none" xmlns="http://www.w3.org/2000/svg">
<g clip-path="url(#clip0_7203_4138)">
<path d="M1127.6 726.059V704.715L1113.98 699.93C1133.7 694.042 1149.43 696.005 1154.83 697.722L1191.26 709.893V688.522C1184.64 686.314 1167.02 679.789 1154.83 676.035C1142.31 672.181 1127 675.675 1119.5 677.113C1098.01 681.235 1092.88 687.418 1093 689.994V711.339C1093 713.989 1096.68 715.632 1098.52 716.123L1127.6 726.059Z" fill="#647B8A"/>
<path d="M1117 677.021C1095.51 681.142 1092.88 686.613 1093 689.19C1092.99 690.788 1096.67 695.156 1111.48 699.838L1125.1 704.622L1190.5 688.19C1183.88 685.981 1166.69 679.443 1154.5 675.689C1141.99 671.836 1124.5 675.582 1117 677.021Z" fill="#89ABC2"/>
<path d="M1324.81 793.477V772.132L1311.2 767.348C1330.92 761.46 1346.65 763.423 1352.05 765.14L1388.48 777.31V755.94C1381.86 753.731 1364.24 747.207 1352.05 743.453C1339.53 739.599 1323.95 742.691 1316.72 744.531C1295.22 748.653 1290.1 754.835 1290.22 757.412V778.756C1290.22 781.406 1293.9 783.05 1295.74 783.541L1324.81 793.477Z" fill="#BBBBBB"/>
<path d="M1058 742.525V721.37L1258.94 789.453V810.798L1058 742.525Z" fill="#6A8394"/>
<path d="M1325.18 793.501V772.156L1258.57 789.453V810.798L1325.18 793.501Z" fill="#E7E7E7"/>
<path d="M1440 763.692V742.715L1388.48 755.963V777.308L1440 763.692Z" fill="#E7E7E7"/>
<path d="M1173.92 781.746V760.769L1119.46 742L1092.52 753.473C1088.1 754.651 1087 757.153 1087 758.257V777.757C1087 779.818 1089.13 781.348 1089.94 782.174C1091.5 783.757 1103 789.257 1111.73 790.578C1126.35 792.79 1137.37 791.927 1141.17 790.578L1173.92 781.746Z" fill="#748FA1"/>
<path d="M1237.59 675L1058 721.37L1117 741.5L1100 746.5C1092 748.5 1078.62 759.009 1094 766C1110.5 773.5 1132.5 774 1145 770.5L1174 761.5L1258.94 789.453L1325.18 772.156L1294.27 761.484C1289.24 759.03 1286.17 752.357 1314.14 745.291C1320.76 743.328 1337.18 740.139 1349.84 743.083C1350.82 743.328 1353.88 744.187 1358.3 745.659C1362.72 747.131 1380.26 753.142 1388.48 755.963L1440 742.715L1237.59 675Z" fill="#89ABC2"/>
<path d="M873.813 349.414V328.069L860.197 323.285C879.922 317.397 895.649 319.36 901.047 321.077L937.48 333.247V311.877C930.856 309.669 913.237 303.144 901.047 299.39C888.532 295.536 872.955 298.628 865.717 300.468C844.225 304.59 839.097 310.773 839.22 313.349V334.694C839.22 337.343 842.9 338.987 844.74 339.478L873.813 349.414Z" fill="#647B8A"/>
<path d="M675.596 282.807V261.463L661.979 256.678C681.705 250.79 697.431 252.753 702.829 254.47L739.262 266.641V245.27C732.638 243.062 715.019 236.537 702.829 232.783C690.314 228.929 675 232.423 667.499 233.861C646.007 237.983 640.879 244.166 641.002 246.742V268.087C641.002 270.737 644.682 272.38 646.522 272.871L675.596 282.807Z" fill="#E9F5FD"/>
<path d="M874.179 349.438V328.094L808 344.938V365.938L874.179 349.438Z" fill="#587284"/>
<path d="M989 319.629V298.652L937.478 311.901V333.246L989 319.629Z" fill="#587284"/>
<path d="M786.592 230.938L607 276.938L666 296.938L722.5 300.438L741 311.438L723 316.938L808 344.938L874.179 328.094L843.266 317.421C838.236 314.968 835.17 308.294 863.139 301.228C869.763 299.266 886.176 296.076 898.836 299.02C899.818 299.266 902.884 300.124 907.301 301.596C911.717 303.069 929.259 309.079 937.478 311.901L989 298.652L786.592 230.938Z" fill="#91B5CE"/>
<path d="M607 298.092V276.938L666 296.568V317.568L607 298.092Z" fill="#E9F5FD"/>
<path d="M737.763 284.491C759.255 288.613 764.383 294.796 764.26 297.372C764.173 299.814 759 306.172 739 312.068C731.5 301.568 698.898 307.85 693.5 309.568L666 317.27V296.568C671.5 295.068 690.5 290.068 703 287.068C715.733 284.012 730.5 283.098 737.763 284.491Z" fill="#C9D9E4"/>
<path d="M723 337.938V316.938L808 344.938V365.938L723 337.938Z" fill="#E9F5FD"/>
<path d="M786.592 230.938L607 277.307L666 296.938L680 293.438C702 288.438 716.452 287.099 733 288.938C751 290.938 764 306.438 734.5 313.438L722.5 316.938L807.936 345.39L874.179 328.094L824.5 321.438L848.5 294.938L900 292.438L937.478 311.901L989 298.652L786.592 230.938Z" fill="#91B5CE"/>
<path d="M665.003 233.769C643.511 237.891 640.881 243.361 641.004 245.938C640.99 247.536 644.666 251.904 659.483 256.586L673.1 261.37L738.5 244.938C731.876 242.729 714.69 236.191 702.5 232.438C689.985 228.584 672.504 232.33 665.003 233.769Z" fill="#91B5CE"/>
<path opacity="0.4" d="M783.5 246.095L964 304.937L978.5 322.437L969 324.937L950.5 308.937L763.5 245.937L783.5 246.095Z" fill="#0F2736"/>
<path d="M512.596 510.997V489.652L498.979 484.868C518.705 478.98 534.431 480.942 539.829 482.66L576.262 494.83V473.459C569.638 471.251 552.019 464.727 539.829 460.973C527.314 457.119 512 460.613 504.499 462.051C483.007 466.173 477.879 472.355 478.002 474.931V496.276C478.002 498.926 481.682 500.57 483.522 501.061L512.596 510.997Z" fill="#647B8A"/>
<path d="M502.003 461.958C480.511 466.08 477.881 471.551 478.004 474.127C477.99 475.726 481.5 479.938 496.483 484.775L513.5 489.938L575.5 473.127C568.876 470.919 551.69 464.381 539.5 460.627C526.985 456.773 509.504 460.52 502.003 461.958Z" fill="#89ABC2"/>
<path d="M826 549.129V528.152L771.5 541.938V562.438L826 549.129Z" fill="#7894A8"/>
<path d="M444 527.962V506.808L497 524.438V542.938L444 527.962Z" fill="#6A8394"/>
<path d="M571.077 569.529V548.529C571.077 548.529 582.5 549.938 580 539.938C577.5 529.938 540.5 527.938 523.781 533.529L496 541.232L496.505 523.619C502.061 522.119 520.75 516.119 533.378 513.119C546.241 510.063 561.184 506.612 568.495 508.453C590.207 512.574 594.495 515.619 595 521.619V541.619C595 544.269 591.545 546.971 589.686 547.462L571.077 569.529Z" fill="#5B7180"/>
<path d="M568.5 568.438V549.438L645 574.438V595.938L568.5 568.438Z" fill="#6A8394"/>
<path d="M714 576.438V556.938L645 574.438V595.938L714 576.438Z" fill="#587284"/>
<path d="M712.5 557.438L644.936 574.89L568.5 549.438L578 545.438C593 538.938 593 523.223 571 516.938C556.252 512.724 543 512.938 521 517.938L497 524.438L444 506.807L564 510.938L596 499.438L619 488.938L623.592 460.438L673.5 477.438C670.734 478.438 664.2 480.238 659 487.438C653.8 494.638 655.5 502.938 670.5 508.438C677.977 511.179 705 516.938 727 510.938L751 502.938L826 528.152L774.478 541.401L712.5 557.438Z" fill="#89ABC2"/>
<path d="M682 480.625V501.602L736.466 520.371L763.405 508.898C767.821 507.72 768.925 505.218 768.925 504.114V484.614C768.925 482.553 768.311 479.764 767.5 478.939C765.944 477.355 752.925 473.114 744.195 471.793C729.576 469.581 718.556 470.444 714.754 471.793L682 480.625Z" fill="#5B7180"/>
<path d="M824 527.938L740.5 499.438L754 495.938C767.5 492.438 775.15 481.098 761.5 473.438C750 466.986 731 466.938 708 473.438L682.5 479.891L624 459.938L576 472.438L508 490.438L444 506.938L587.5 515.938L644.5 574.438L682.5 527.938L735 521.938L824 527.938Z" fill="#89ABC2"/>
<path d="M920.596 531.997V510.652L906.979 505.868C926.705 499.98 942.431 501.942 947.829 503.66L984.262 515.83V494.459C977.638 492.251 960.019 485.727 947.829 481.973C935.314 478.119 920 481.613 912.499 483.051C891.007 487.173 885.879 493.355 886.002 495.931V517.276C886.002 519.926 889.682 521.57 891.522 522.061L920.596 531.997Z" fill="#647B8A"/>
<path d="M910.003 482.958C888.511 487.08 885.881 492.551 886.004 495.127C885.99 496.726 889.666 501.094 904.483 505.775L918.1 510.559L983.5 494.127C976.876 491.919 959.69 485.381 947.5 481.627C934.985 477.773 917.504 481.52 910.003 482.958Z" fill="#89ABC2"/>
<path d="M982.5 492.938V514.938L997.283 520.364C977.558 526.252 961.831 524.289 956.433 522.572L920 510.558V531.772C926.624 533.98 944.243 540.505 956.433 544.259C968.948 548.113 984.525 545.021 991.763 543.181C1013.26 539.059 1018.38 532.876 1018.26 530.3V508.955C1018.26 506.306 1016.34 504.226 1014.5 503.735L982.5 492.938Z" fill="#BBBBBB"/>
<path d="M1234 569.129V548.152L1182.48 561.401V582.746L1234 569.129Z" fill="#4C6577"/>
<path d="M852 547.962V526.808L911 546.438V567.438L852 547.962Z" fill="#6A8394"/>
<path d="M957.5 584.347V563.347L974 558.347C966.5 547.847 933.898 554.13 928.5 555.847L901 563.55V542.847C906.5 541.347 925.5 536.347 938 533.347C950.733 530.291 965.525 528.931 972.763 530.771C994.255 534.893 999.383 541.075 999.26 543.651V564.996C999.26 567.646 995.58 569.29 993.74 569.78L957.5 584.347Z" fill="#647B8A"/>
<path d="M896.5 552.37L896 571.535L950.466 590.304L977.405 578.831C981.821 577.653 982.925 575.15 982.925 574.046V554.546C982.925 552.486 981.811 550.196 981 549.37C979.444 547.787 966.925 543.046 958.195 541.726C943.576 539.514 932.803 542.521 929 543.87L912.5 548.37L896.5 552.37Z" fill="#5B7180"/>
<path d="M974.5 588.438V568.938L1052.5 594.714V616.068L974.5 588.438Z" fill="#6A8394"/>
<path d="M1118.6 598.807L1119 578.438L1105 573.938C1129 565.438 1140.43 568.753 1145.83 570.47L1182.5 582.728V561.438C1175.88 559.229 1158.02 552.537 1145.83 548.783C1133.31 544.929 1117.74 548.021 1110.5 549.861C1089.01 553.983 1083.88 560.166 1084 562.742V584.087C1084 586.736 1087.68 588.38 1089.52 588.871L1118.6 598.807Z" fill="#647B8A"/>
<path d="M1119.18 598.938V578.092L1052.57 594.89V616.235L1119.18 598.938Z" fill="#4C6577"/>
<path d="M1118.5 577.938L1052.94 594.89L974.5 568.938L982.5 564.438C995 556.938 987.5 544.188 978 539.438C963.71 532.293 948 531.438 926 536.438L901 543.438L852 526.807L972 530.938L1004 519.438L1027 508.938L1031.59 480.438L1081.5 497.438C1078.73 498.438 1072.2 500.238 1067 507.438C1061.8 514.638 1063.5 522.938 1078.5 528.438C1085.98 531.179 1113 536.938 1135 530.938L1159 522.938L1234 548.152L1182.48 561.401L1159 543.438L1103.5 538.938L1070 569.938L1118.5 577.938Z" fill="#89ABC2"/>
<path d="M1090 500.625V521.602L1144.47 540.371L1171.4 528.898C1175.82 527.72 1176.92 525.218 1176.92 524.114V504.614C1176.92 502.553 1176.31 499.764 1175.5 498.939C1173.94 497.355 1160.92 493.114 1152.19 491.793C1137.58 489.581 1126.56 490.444 1122.75 491.793L1090 500.625Z" fill="#5B7180"/>
<path d="M1031.59 480.938L852 527.307L901 543.438L923.5 516.438L1001 531.938L1012 570.438L974.5 568.938L1052.94 595.39L1119.18 578.094L1088.27 567.421C1083.24 564.968 1080.17 558.294 1108.14 551.228C1114.76 549.266 1131.18 546.076 1143.84 549.02C1144.82 549.266 1147.88 550.124 1152.3 551.596C1156.72 553.069 1174.26 559.079 1182.48 561.901L1234 548.652L1031.59 480.938Z" fill="#89ABC2"/>
<path d="M1232 547.938L1148.5 519.438L1162 515.938C1175.5 512.438 1183.15 501.098 1169.5 493.438C1158 486.986 1139 486.938 1116 493.438L1090.5 499.891L1032 479.938L982.5 492.938L919 509.438L852 526.938L995.5 535.938L1052.5 594.438L1090.5 547.938L1143 541.938L1232 547.938Z" fill="#89ABC2"/>
<path d="M788 541.438V563.438L800 567.438C829.5 577.438 767.331 579.655 761.933 577.938L716.5 559.938V577.938C723.124 580.146 749.743 589.005 761.933 592.759C774.448 596.613 790.025 593.521 797.263 591.681C818.755 587.559 823.883 581.376 823.76 578.8V557.455C823.76 554.806 821.84 552.726 820 552.235L788 541.438Z" fill="#5C7180"/>
<path d="M1039.5 617.629V596.652L987.978 609.901V631.246L1039.5 617.629Z" fill="#4C6577"/>
<path d="M657.5 596.462V575.308L716.5 594.938V615.938L657.5 596.462Z" fill="#6A8394"/>
<path d="M773.5 539.437L778 561.937L792.783 565.066C773.057 570.954 757.331 568.991 751.933 567.274L716.5 554.437V576.937C723.124 579.145 739.743 585.207 751.933 588.961C764.448 592.815 780.025 589.723 787.263 587.883C808.755 583.761 808.123 577.013 808 574.437L808 555.437C808 550.937 799 548.937 796.5 547.937L773.5 539.437Z" fill="#6A8394"/>
<path d="M773 636.437V615.437L789.5 610.438C782 599.938 749.398 606.22 744 607.938L716.5 615.64V594.937C722 593.437 741 588.438 753.5 585.437C766.233 582.381 781.025 581.021 788.263 582.861C809.755 586.983 814.883 593.165 814.76 595.741V617.086C814.76 619.736 811.08 621.38 809.24 621.871L773 636.437Z" fill="#647B8A"/>
<path d="M773 636.438V614.938L858 643.214V664.568L773 636.438Z" fill="#6A8394"/>
<path d="M924.096 647.307L924.5 626.938L910.5 622.438C934.5 613.938 945.931 617.253 951.329 618.97L988 631.228V609.938C981.376 607.729 963.519 601.037 951.329 597.283C938.814 593.429 923.237 596.521 915.999 598.361C894.507 602.483 889.379 608.666 889.502 611.242V632.587C889.502 635.236 893.182 636.88 895.022 637.371L924.096 647.307Z" fill="#647B8A"/>
<path d="M924.679 647.438V626.592L858.068 643.39V664.735L924.679 647.438Z" fill="#4C6577"/>
<path d="M924 626.438L858.436 643.39L773 614.938L785 611.438C814.5 604.438 801.5 588.938 783.5 586.938C766.952 585.099 752.5 586.438 730.5 591.438L716.5 594.938L657.5 575.307L777.5 579.438L812.5 575.938L832.5 557.438L837.092 528.938L887 545.938C884.234 546.938 877.7 548.738 872.5 555.938C867.3 563.138 869 571.438 884 576.938C891.477 579.679 918.5 585.438 940.5 579.438L964.5 571.438L1039.5 596.652L987.978 609.901L964.5 591.938L909 587.438L875.5 618.438L924 626.438Z" fill="#89ABC2"/>
<path d="M837.092 529.438L1039.5 597.152L987.978 610.401C979.759 607.579 962.217 601.569 957.801 600.096C953.384 598.624 950.318 597.766 949.336 597.52C936.676 594.576 920.263 597.766 913.639 599.728C885.67 606.794 888.736 613.468 893.766 615.921L924.679 626.594L858.436 643.89L773 614.938L817.5 618.938L806.5 580.438L771.379 577.245L745.5 580.438L734.173 579.842L716.5 594.938L657.5 575.807L734.173 579.842L740.5 574.438L771.379 577.245L822.5 570.938L837.092 529.438Z" fill="#89ABC2"/>
<path d="M1037.5 596.438L954 567.938L967.5 564.438C981 560.938 988.65 549.598 975 541.938C963.5 535.486 944.5 535.438 921.5 541.938L896 548.391L837.5 528.438L788 541.438L855 552.438L840.5 579.438L717.5 572.938L714.5 560.438L657.5 575.438L801 584.438L858 642.938L896 596.438L948.5 590.438L1037.5 596.438Z" fill="#D9D9D9"/>
<path d="M1037.5 596.438L954 567.938L967.5 564.438C981 560.938 988.65 549.598 975 541.938C963.5 535.486 944.5 535.438 921.5 541.938L896 548.391L837.5 528.438L788 541.438C803.5 546.938 806 546.938 811 549.938C816.59 553.292 815 562.938 807.5 568.438C800 573.938 771.5 578.938 746 569.938L716.5 559.938L657.5 575.438L801 584.438L858 642.938L896 596.438L948.5 590.438L1037.5 596.438Z" fill="#89ABC2"/>
<path d="M802.5 549.937L773.5 539.437L716.5 554.437L748 565.937C755.5 568.937 773.5 572.937 797.5 566.437C804.551 564.527 808 560.014 808 555.437C808 552.788 805 550.937 802.5 549.937Z" fill="#89ABC2"/>
<g filter="url(#filter0_i_7203_4138)">
<path d="M837.5 44.4375L824 41.4375L763.5 245.938L775.993 249.937L837.5 44.4375Z" fill="#847AC2"/>
<path d="M844.5 40.9375L837 44.4375L775.859 249.937L783.611 246.476L844.5 40.9375Z" fill="#6D63A5"/>
<path d="M832.973 37.9375L824 41.4375L837.2 44.5057L844.5 40.9375L832.973 37.9375Z" fill="#756CAE"/>
<path d="M905 97.9375L831 71.4375L832.167 67.9375L906.167 94.4375L905 97.9375Z" fill="#847AC2"/>
<path d="M835.167 67.9375H832.167L906.167 94.4375L908.667 93.4375L835.167 67.9375Z" fill="#756CAE"/>
<path d="M891 143.938L817 117.438L818.167 113.938L892.167 140.438L891 143.938Z" fill="#847AC2"/>
<path d="M821.167 113.938H818.167L892.167 140.438L894.667 139.438L821.167 113.938Z" fill="#756CAE"/>
<path d="M877 190.938L803 164.438L804.167 160.938L878.167 187.438L877 190.938Z" fill="#847AC2"/>
<path d="M807.167 160.938H804.167L878.167 187.438L880.667 186.438L807.167 160.938Z" fill="#756CAE"/>
<path d="M863 237.938L789 211.438L790.167 207.938L864.167 234.438L863 237.938Z" fill="#847AC2"/>
<path d="M793.167 207.938H790.167L864.167 234.438L866.667 233.438L793.167 207.938Z" fill="#756CAE"/>
<path d="M919.5 134.938V95.9375L904 129.938L919.5 134.938Z" fill="#133141" fill-opacity="0.5"/>
<path d="M920.5 72.4375L907 68.9375L846.5 273.938L859 277.937L920.5 72.4375Z" fill="#847AC2"/>
<path d="M927.5 68.9375L920 72.4375L858.859 277.937L866.611 274.476L927.5 68.9375Z" fill="#6D63A5"/>
<path d="M915.973 65.9375L907 68.9375L920.201 72.5057L927.5 68.9375L915.973 65.9375Z" fill="#756CAE"/>
</g>
<g filter="url(#filter1_i_7203_4138)">
<path d="M800.457 108.317C800.781 112.792 810.065 122.631 817.956 128.323C825.846 134.015 825.618 123.9 825.618 123.9L806.775 99.0473C802.875 99.53 800.181 104.505 800.457 108.317Z" fill="#C09476"/>
<path d="M805.526 189.546C797.75 181.528 810.357 155.073 816.357 136.86C822.357 118.647 827.266 114.045 827.266 114.045L862.805 119.106C862.805 119.106 867.252 135.731 866.612 142.812C865.972 149.893 868.647 143.138 872.995 152.8C876.801 162.007 875.131 183.358 865.976 181.951C847.157 179.058 845.439 176.382 847.016 171.604C848.209 167.988 845.283 163.306 841.758 163.025C838.234 162.744 834.321 187.612 833.887 189.545C833.043 195.476 832.916 194.92 829.5 197.972C826.462 199.582 813.302 197.563 805.526 189.546Z" fill="#B2896D"/>
<path d="M896.101 126.273C892.209 128.439 873.218 138.941 863.759 137.551C854.3 136.161 861.16 127.444 861.16 127.444C866.274 122.351 894.561 105.182 899.987 112.149C903.247 116.336 903.142 122.355 896.101 126.273Z" fill="#A77F64"/>
<path d="M864.718 64.8588C858.897 60.3995 840.152 61.2297 835.229 62.7318C828.209 65.4128 815.169 73.9199 812.596 93.9923C809.871 115.246 823.959 122.59 832.142 124.491C844.512 126.926 851.8 127.784 867.425 125.53C875.505 124.057 888.92 115.913 885.832 95.3504C882.164 70.9295 871.994 70.433 864.718 64.8588Z" fill="#C39878"/>
<path d="M875.173 38.3589C874.878 51.1033 866.805 60.6544 862.806 63.8368C861.753 75.83 876.313 79.868 879.361 78.9656C881.8 78.2436 896.358 70.1714 902.446 66.4795C911.405 59.7215 908.579 53.7519 902.719 53.8241C896.858 53.8963 896.892 50.0407 898.528 47.8499C900.406 45.954 904.76 39.5286 907.152 28.9943C909.544 18.46 904.608 19.1827 901.841 20.8609C899.611 22.592 895.944 29.5469 891.09 35.897C886.236 42.2471 884.948 39.8111 884.549 37.593L884.2 34.2091C882.726 27.7225 875.468 25.6146 875.173 38.3589Z" fill="#DABDA7"/>
<path d="M835.404 33.9535C832.972 46.5297 838.847 57.6343 842.089 61.6146C840.56 73.6154 825.423 74.4656 822.627 72.9275C820.391 71.697 807.841 60.657 802.661 55.7299C795.32 47.1781 799.365 41.9212 805.095 43.2457C810.826 44.5702 811.616 40.7773 810.48 38.2763C809.043 36.0131 806.146 28.7728 806.05 17.918C805.954 7.06316 810.639 8.82863 812.994 11.0682C814.811 13.245 816.921 20.8582 820.324 28.1314C823.727 35.4046 825.51 33.2884 826.375 31.1958L827.44 27.948C830.27 21.8943 837.836 21.3773 835.404 33.9535Z" fill="#DABDA7"/>
<path d="M810.432 66.454C816.086 63.3567 821.105 70.3345 823.711 73.2082C823.104 74.1362 823.965 74.4782 819.463 76.8295C814.824 79.2522 808.016 73.6471 805.858 70.5083C803.984 67.7686 804.656 65.7691 806.834 67.4502C807.913 68.283 809.784 66.9619 810.432 66.454Z" fill="#C39878"/>
<path d="M890.807 75.7177C886.237 71.5293 879.951 76.895 876.858 78.981C877.213 79.9868 876.33 80.1088 879.995 83.3366C883.772 86.6624 891.415 82.9889 894.149 80.5523C896.528 78.4237 896.358 76.4023 893.939 77.4728C892.74 78.0032 891.296 76.3406 890.807 75.7177Z" fill="#C39878"/>
<path d="M848.799 163.99C849.282 167.839 844.852 168.928 841.036 168.435C837.22 167.942 833.495 165.467 834.979 162.203C836.349 159.191 838.774 155.916 842.59 156.41C846.406 156.903 847.995 160.098 848.799 163.99Z" fill="#DDC4B2"/>
</g>
<path opacity="0.5" fill-rule="evenodd" clip-rule="evenodd" d="M1012.09 513.937L1000.95 514.483L989.337 517.279L1008.14 523.56L966 534.937L969.858 536.081L1011.24 524.597L1039.76 534.124L987.5 548.437L988.296 550.305L1042.86 535.162L1072 544.896L1009.33 562.016L989 555.437L989 555.937L988.5 557.937L987.5 559.937L985.717 562.016L984 563.437L982.885 564.217L1048.93 586.282L1058.51 585.939L1058.56 585.955L1058.65 585.934L1058.71 585.932L1058.69 585.925L1071.71 582.845L1045.13 573.972L1107.35 556.706L1107.35 565.472L1107.35 573.972L1119.41 570.972L1119.41 570.632C1120.33 570.425 1121.33 570.205 1122.41 569.972C1130.91 568.472 1135.91 568.972 1135.91 568.972C1136.2 566.649 1135.31 564.158 1133.11 562.435L1139.41 548.6L1119.03 535.587C1120.41 534.22 1121.11 532.883 1121.3 531.775L1115.8 524.275C1108.55 522.353 1099.94 524.314 1088.72 526.87L1088.72 526.87C1086.07 527.474 1083.28 528.11 1080.32 528.737C1077.01 529.438 1071.76 528.346 1066.8 527.313C1060.22 525.945 1054.15 524.683 1053.77 527.832L1012.09 513.937ZM908 539.198L982 563.922L982 552.937L980.631 552.432L982.151 552.011L982.151 550.937L982 549.937L977.081 551.247L949 541.87L963.343 537.889L958.5 537.437L945.452 540.685L930.575 535.717L919.616 536.402L908 539.198ZM1041.58 572.786L1012.88 563.202L1075.1 545.934L1104.24 555.668L1041.58 572.786Z" fill="#071821" fill-opacity="0.8"/>
<path d="M851 355.937L851 334.437L857 332.937L862.5 335.437L862.5 353.437L851 355.937Z" fill="#133141" fill-opacity="0.3"/>
<path d="M937 333.936L937 312.436L943 310.936L948.5 313.436L948.5 331.436L937 333.936Z" fill="#133141" fill-opacity="0.3"/>
<path d="M941.868 312.098L955.451 309.498L1010.35 516.48L997.269 519.327L941.868 312.098Z" fill="#832E30"/>
<path d="M934.975 308.392L942.368 312.112L997.403 519.331L989.757 515.642L934.975 308.392Z" fill="#AA4245"/>
<path d="M946.586 305.734L955.451 309.498L942.166 312.175L934.975 308.392L946.586 305.734Z" fill="#C7595C"/>
<path d="M872.815 363.577L947.567 339.278L946.504 335.745L871.752 360.044L872.815 363.577Z" fill="#832E30"/>
<path d="M943.505 335.657L946.504 335.745L871.752 360.045L869.283 358.971L943.505 335.657Z" fill="#C7595C"/>
<path d="M885.448 409.971L960.2 385.672L959.137 382.139L884.386 406.438L885.448 409.971Z" fill="#832E30"/>
<path d="M956.139 382.051L959.137 382.139L884.386 406.439L881.916 405.365L956.139 382.051Z" fill="#C7595C"/>
<path d="M898.052 457.365L972.803 433.066L971.741 429.533L896.989 453.832L898.052 457.365Z" fill="#832E30"/>
<path d="M968.742 429.444L971.741 429.533L896.989 453.832L894.52 452.759L968.742 429.444Z" fill="#C7595C"/>
<path d="M910.655 504.759L985.407 480.459L984.344 476.926L909.593 501.226L910.655 504.759Z" fill="#832E30"/>
<path d="M981.346 476.838L984.344 476.926L909.593 501.226L907.123 500.152L981.346 476.838Z" fill="#C7595C"/>
<path d="M858.076 337.63L871.674 334.531L926.56 542.013L913.477 544.86L858.076 337.63Z" fill="#832E30"/>
<path d="M851.183 333.924L858.576 337.644L913.611 544.863L905.965 541.174L851.183 333.924Z" fill="#AA4245"/>
<path d="M862.794 331.267L871.674 334.531L858.374 337.707L851.183 333.924L862.794 331.267Z" fill="#C7595C"/>
<path opacity="0.5" d="M563.07 469.202C567.128 468.247 571.455 468.292 574.615 469.321L994.684 606.174C997.427 607.068 999 608.61 999 610.405L999 623.983C999 626.647 995.559 629.376 990.441 630.772L988 631.437L934 626.438L918.478 624.155C917.497 624.011 916.586 623.797 915.768 623.519L894.34 616.242C891.91 615.416 890.591 613.994 890.748 612.366V612.366C890.907 610.709 889.537 609.266 887.027 608.449L520.887 489.165C513.269 486.683 516.187 480.235 525.97 477.932L563.07 469.202Z" fill="#133141"/>
<path d="M885.27 416.528L553 306.938L569.626 304.357C571.987 303.99 574.403 304.193 576.67 304.949L899.759 412.645L885.27 416.528Z" fill="#457995"/>
<path d="M892.312 591.574C896.606 590.422 899.501 586.516 899.501 580.932L913.989 577.05C913.989 582.634 911.095 586.54 906.801 587.691L892.312 591.574Z" fill="#2D607C"/>
<path d="M899.5 580.932V436.271L913.989 432.389V577.049L899.5 580.932Z" fill="#2D607C"/>
<path d="M899.501 436.271C899.501 427.987 893.13 419.148 885.271 416.528L899.759 412.646C907.619 415.265 913.99 424.105 913.99 432.389L899.501 436.271Z" fill="#376B87"/>
<rect x="1.89737" y="2.63246" width="370.203" height="170.661" rx="13" transform="matrix(0.948683 0.316228 0 1 544.598 302.337)" fill="#E9F5FD" stroke="#BED1E0" stroke-width="4"/>
<path d="M568.385 414.558L595.214 423.501L595.405 427.809L581.54 457.359L572.296 454.278L585.425 428.175L568.743 422.614L568.385 414.558ZM623.906 454.561L629.75 456.509L630.108 464.565L624.264 462.617L624.669 471.736L616.647 469.062L616.242 459.943L599.666 454.417L599.448 449.494L616.03 430.44L622.936 432.742L623.906 454.561ZM609.296 449.691L615.884 451.887L615.451 442.152L609.296 449.691ZM647.315 479.835C639.984 477.392 632.944 470.911 632.541 461.848L640.488 464.001C640.654 467.749 643.61 470.664 647.223 471.868C650.092 472.824 653.065 472.603 652.891 468.687C652.685 464.043 648.553 462.942 644.994 461.755L644.7 455.154C649.747 456.836 650.356 455.22 650.271 453.318C650.147 450.521 648.175 448.541 645.784 447.744C643.128 446.858 641.558 448.044 641.627 450.767L633.686 447.569C633.348 439.961 639.051 437.563 645.745 439.794C652.173 441.937 657.928 447.768 658.236 454.705C658.38 457.95 657.275 460.172 655 460.792C659.067 463.966 660.759 467.892 660.93 471.752C661.318 480.48 654.54 482.244 647.315 479.835ZM680.872 490.47L679.139 451.476L687.479 454.257L688.138 469.082L702.536 473.881L701.877 459.056L710.217 461.836L711.951 500.829L703.61 498.049L702.894 481.937L688.496 477.138L689.212 493.25L680.872 490.47ZM728.375 478.526C735.813 481.005 740.46 486.633 740.75 493.178L741.529 510.689L734.197 508.245L733.544 505.327C731.551 507.583 728.753 507.036 726.84 506.399C720.943 504.433 716.521 499.156 716.27 493.506C716.129 490.317 717.408 488.484 719.582 487.941C721.187 487.539 723.239 487.782 725.576 488.561L732.801 490.969L732.782 490.522C732.694 488.564 731.039 486.634 728.117 485.66C726.151 485.005 724.159 484.947 721.926 486.518L715.909 479.496C719.042 476.958 723.806 477.003 728.375 478.526ZM727.814 500.055C730.683 501.011 733.04 499.867 733.077 497.179L727.021 495.16C726.171 494.877 725.488 494.815 725.025 494.991C724.511 495.206 724.27 495.676 724.3 496.348C724.362 497.746 725.53 499.293 727.814 500.055ZM757.952 516.77C748.815 513.724 744.401 505.087 744.087 498.038C743.764 490.765 747.693 484.965 756.619 487.94C762.144 489.782 766.463 493.922 768.679 500.228L761.277 500.902C760.791 498.205 759.069 495.977 756.944 495.269C753.226 494.03 752.163 497.203 752.322 500.783C752.479 504.308 753.748 508.148 757.52 509.405C759.592 510.096 761.22 509.04 761.589 506.738L768.946 512.112C767.424 516.73 763.424 518.594 757.952 516.77ZM773.096 521.211L771.363 482.218L779.385 484.892L780.297 505.423L787.436 498.819L798.114 502.379L789.014 509.597L800.243 530.26L790.734 527.091L783.421 513.299L780.762 515.885L781.118 523.885L773.096 521.211ZM823.999 524.841C824.034 525.624 824.013 526.334 823.959 527.473L806.746 521.736C807.162 524.024 808.831 526.233 812.284 527.384C814.249 528.04 816.287 527.947 817.69 526.541L823.443 533.529C820.828 535.909 817.191 536.516 812.569 534.975C802.9 531.752 798.916 523.369 798.6 516.264C798.294 509.383 801.513 502.905 810.863 506.022C819.045 508.749 823.621 516.337 823.999 524.841ZM806.364 515.49L816.193 518.766C815.972 516.158 813.724 513.865 811.068 512.98C807.721 511.864 806.603 513.806 806.364 515.49ZM816.134 519.794L816.184 519.756L816.134 519.794ZM842.154 516.452C843.96 517.054 845.576 518.089 847.493 519.995L844.006 526.329C843.24 525.577 841.836 524.614 840.561 524.188C837.745 523.25 835.98 524.756 836.197 529.623L836.766 542.435L828.744 539.761L827.518 512.18L835.593 514.872L835.78 519.067C836.872 516.566 839.338 515.513 842.154 516.452ZM858.713 550.357C852.923 548.426 848.602 543.073 847.201 538.638L853.392 537.78C853.99 539.468 854.802 542.439 858.362 543.626C860.593 544.369 861.186 543.575 861.149 542.736C860.98 538.931 848.526 536.654 848.094 526.92C847.818 520.71 852.864 520.022 857.592 521.598C862.427 523.21 865.989 526.822 868.223 531.149L862.219 532.676C861.527 531.232 860.365 528.64 857.762 527.773C856.274 527.277 855.56 527.7 855.6 528.595C855.762 532.232 868.497 533.776 868.959 544.182C869.267 551.119 863.601 551.986 858.713 550.357Z" fill="#305E77"/>
<path d="M583.233 352.174L591.255 354.848L592.988 393.842L584.966 391.168L583.795 364.818L575.507 362.055L575.211 355.398L579.408 356.797C582.064 357.682 583.452 357.098 583.312 353.965L583.233 352.174ZM603.782 359.024L630.611 367.967L630.802 372.275L616.937 401.825L607.693 398.744L620.822 372.641L604.14 367.08L603.782 359.024ZM650.858 386.842C658.19 389.285 663.971 396.89 664.309 404.498C664.677 412.778 658.553 416.303 650.956 413.771C643.253 411.203 636.624 403.372 636.261 395.204C636.149 392.686 636.723 390.287 638.053 388.415L648.239 373.843L657.483 376.925L650.061 386.576L650.858 386.842ZM650.598 405.715C653.839 406.795 656.347 405.537 656.181 401.789C656.014 398.04 653.367 395.008 650.073 393.91C646.779 392.813 644.271 394.071 644.44 397.875C644.606 401.623 647.304 404.617 650.598 405.715ZM684.086 424.208L682.353 385.215L695.369 389.553C703.922 392.404 708.392 397.587 708.735 405.307C709.081 413.084 704.853 415.698 696.406 412.882L691.678 411.306L692.374 426.971L684.086 424.208ZM691.32 403.25L695.198 404.543C698.598 405.676 700.539 405.772 700.4 402.639C700.268 399.674 698.543 398.548 694.877 397.326L690.999 396.033L691.32 403.25ZM726.391 410.531C728.198 411.133 729.814 412.168 731.73 414.075L728.243 420.408C727.477 419.657 726.074 418.693 724.799 418.268C721.983 417.329 720.218 418.835 720.434 423.702L721.004 436.514L712.982 433.84L711.756 406.259L719.831 408.951L720.018 413.147C721.11 410.645 723.576 409.593 726.391 410.531ZM744.933 445.097C736.433 442.263 731.133 433.717 730.797 426.165C730.462 418.612 735.099 413.434 743.653 416.285C752.1 419.101 757.394 427.535 757.732 435.143C758.068 442.696 753.327 447.895 744.933 445.097ZM744.607 437.768C748.911 439.202 749.865 435.938 749.71 432.469C749.556 429.001 748.335 425.066 743.978 423.614C739.622 422.162 738.663 425.314 738.82 428.839C738.969 432.195 740.198 436.298 744.607 437.768ZM760.906 418.895L760.568 411.286L768.75 414.013L769.088 421.622L760.906 418.895ZM763.845 462.644C762.305 462.131 760.377 461.158 758.759 460.067L758.407 453.336C759.211 453.769 759.96 454.129 760.545 454.324C761.82 454.749 762.553 454.773 762.469 452.871L761.129 422.717L769.151 425.391L770.57 457.335C770.804 462.594 767.989 464.026 763.845 462.644ZM799.302 449.275C799.337 450.058 799.316 450.768 799.262 451.907L782.049 446.17C782.465 448.458 784.133 450.667 787.586 451.819C789.552 452.474 791.589 452.381 792.992 450.975L798.746 457.964C796.13 460.343 792.493 460.95 787.871 459.409C778.202 456.186 774.218 447.803 773.903 440.699C773.597 433.817 776.816 427.339 786.166 430.456C794.347 433.183 798.924 440.772 799.302 449.275ZM781.667 439.924L791.495 443.201C791.274 440.592 789.027 438.299 786.37 437.414C783.023 436.298 781.906 438.24 781.667 439.924ZM791.436 444.228L791.487 444.19L791.436 444.228ZM814.965 468.44C805.827 465.395 801.413 456.758 801.1 449.709C800.776 442.436 804.706 436.636 813.631 439.611C819.156 441.453 823.475 445.593 825.692 451.899L818.29 452.573C817.803 449.876 816.082 447.648 813.957 446.94C810.238 445.7 809.175 448.873 809.334 452.454C809.491 455.978 810.761 459.819 814.533 461.076C816.605 461.767 818.232 460.711 818.601 458.409L825.958 463.782C824.436 468.401 820.437 470.264 814.965 468.44ZM844.899 457.089L838.205 454.857L838.715 466.326C838.762 467.389 838.864 469.683 842.158 470.781C843.22 471.135 844.379 471.301 845.53 471.299L845.768 477.826C844.095 477.875 842.408 477.588 840.548 476.968C835.608 475.321 831.094 471.502 830.78 464.453L830.236 452.201L826.039 450.802L825.748 444.256L829.945 445.655L829.763 441.571L837.456 438.018L837.914 448.312L844.608 450.543L844.899 457.089ZM859.713 483.357C853.923 481.426 849.602 476.073 848.201 471.638L854.392 470.78C854.99 472.468 855.802 475.439 859.362 476.626C861.593 477.369 862.186 476.575 862.149 475.736C861.98 471.931 849.526 469.654 849.094 459.92C848.818 453.71 853.864 453.022 858.592 454.598C863.427 456.21 866.989 459.822 869.223 464.149L863.219 465.676C862.527 464.232 861.365 461.64 858.762 460.773C857.274 460.277 856.56 460.7 856.6 461.595C856.762 465.232 869.497 466.776 869.959 477.182C870.267 484.119 864.601 484.986 859.713 483.357Z" fill="#305E77"/>
<g filter="url(#filter2_i_7203_4138)">
<path d="M1115 527C1111.5 535.5 1100.9 538 1083.5 538C1072 538 1054.5 534.5 1052 527V515.147C1056.49 508.908 1070.02 509 1083.5 509C1096.23 509 1110.03 509.775 1115 515.471V527Z" fill="#832E30"/>
<ellipse cx="1083.5" cy="515" rx="31.5" ry="12" fill="#AA4245"/>
<path d="M1103 514.204L1093.25 472H1073.39L1064 514.204C1064 514.204 1071.94 519 1083.86 519C1095.78 519 1103 514.204 1103 514.204Z" fill="#832E30"/>
<ellipse cx="1083.5" cy="458.744" rx="17.2358" ry="16.7438" fill="#AA4245"/>
</g>
</g>
<defs>
<filter id="filter0_i_7203_4138" x="763.5" y="37.9375" width="164" height="240" filterUnits="userSpaceOnUse" color-interpolation-filters="sRGB">
<feFlood flood-opacity="0" result="BackgroundImageFix"/>
<feBlend mode="normal" in="SourceGraphic" in2="BackgroundImageFix" result="shape"/>
<feColorMatrix in="SourceAlpha" type="matrix" values="0 0 0 0 0 0 0 0 0 0 0 0 0 0 0 0 0 0 127 0" result="hardAlpha"/>
<feOffset dx="2" dy="1"/>
<feComposite in2="hardAlpha" operator="arithmetic" k2="-1" k3="1"/>
<feColorMatrix type="matrix" values="0 0 0 0 0.984314 0 0 0 0 0.854902 0 0 0 0 0.596078 0 0 0 1 0"/>
<feBlend mode="normal" in2="shape" result="effect1_innerShadow_7203_4138"/>
</filter>
<filter id="filter1_i_7203_4138" x="798.692" y="9.38477" width="109.488" height="189.1" filterUnits="userSpaceOnUse" color-interpolation-filters="sRGB">
<feFlood flood-opacity="0" result="BackgroundImageFix"/>
<feBlend mode="normal" in="SourceGraphic" in2="BackgroundImageFix" result="shape"/>
<feColorMatrix in="SourceAlpha" type="matrix" values="0 0 0 0 0 0 0 0 0 0 0 0 0 0 0 0 0 0 127 0" result="hardAlpha"/>
<feOffset dx="2" dy="1"/>
<feComposite in2="hardAlpha" operator="arithmetic" k2="-1" k3="1"/>
<feColorMatrix type="matrix" values="0 0 0 0 0.96741 0 0 0 0 0.862863 0 0 0 0 0.653771 0 0 0 1 0"/>
<feBlend mode="normal" in2="shape" result="effect1_innerShadow_7203_4138"/>
</filter>
<filter id="filter2_i_7203_4138" x="1052" y="442" width="63" height="96" filterUnits="userSpaceOnUse" color-interpolation-filters="sRGB">
<feFlood flood-opacity="0" result="BackgroundImageFix"/>
<feBlend mode="normal" in="SourceGraphic" in2="BackgroundImageFix" result="shape"/>
<feColorMatrix in="SourceAlpha" type="matrix" values="0 0 0 0 0 0 0 0 0 0 0 0 0 0 0 0 0 0 127 0" result="hardAlpha"/>
<feOffset dx="1" dy="2"/>
<feComposite in2="hardAlpha" operator="arithmetic" k2="-1" k3="1"/>
<feColorMatrix type="matrix" values="0 0 0 0 0.984314 0 0 0 0 0.854902 0 0 0 0 0.596078 0 0 0 1 0"/>
<feBlend mode="normal" in2="shape" result="effect1_innerShadow_7203_4138"/>
</filter>
<clipPath id="clip0_7203_4138">
<rect width="1440" height="815" fill="white"/>
</clipPath>
</defs>
</svg>
