<svg width="1440" height="900" viewBox="0 0 1440 900" fill="none" xmlns="http://www.w3.org/2000/svg">
<g clip-path="url(#clip0_115_3416)">
<path d="M647.596 584.639V563.294L633.979 558.509C653.705 552.621 669.431 554.584 674.829 556.301L711.262 568.472V547.101C704.638 544.893 687.019 538.368 674.829 534.614C662.314 530.76 647 534.254 639.499 535.693C618.007 539.814 612.879 545.997 613.002 548.573V569.918C613.002 572.568 616.682 574.211 618.522 574.702L647.596 584.639Z" fill="#647B8A"/>
<path d="M637.003 535.6C615.511 539.722 612.881 545.193 613.004 547.769C612.99 549.367 616.666 553.735 631.483 558.417L645.1 563.201L710.5 546.769C703.876 544.561 686.69 538.022 674.5 534.269C661.985 530.415 644.504 534.161 637.003 535.6Z" fill="#89ABC2"/>
<path d="M847.813 651.056V629.711L834.197 624.927C853.922 619.039 869.649 621.002 875.047 622.719L911.48 634.889V613.519C904.856 611.311 887.237 604.786 875.047 601.032C862.532 597.178 846.955 600.27 839.717 602.11C818.225 606.232 813.097 612.415 813.22 614.991V636.336C813.22 638.985 816.9 640.629 818.74 641.12L847.813 651.056Z" fill="#4C6577"/>
<path d="M581 600.104V578.949L781.936 647.032V668.377L581 600.104Z" fill="#6A8394"/>
<path d="M848.179 651.08V629.735L781.568 647.032V668.377L848.179 651.08Z" fill="#4C6577"/>
<path d="M963 621.271V600.294L911.478 613.542V634.887L963 621.271Z" fill="#4C6577"/>
<path d="M621.5 599.08V611.08C617.5 611.913 606 623.58 605 630.58C618.333 636.58 643.4 645.88 665 639.08L692 626.08L671.262 642.079C665.762 643.579 646.762 648.579 634.262 651.579C621.529 654.635 606.737 655.996 599.499 654.156C578.007 650.034 572.879 643.851 573.002 641.275V619.931C573.002 617.281 576.682 615.637 578.522 615.146L595.5 604.58L621.5 599.08Z" fill="#607685"/>
<path d="M696.925 638.568V617.591L642.459 598.822L609.338 607.287C604.921 608.464 603.817 610.967 603.817 612.071V633.416C603.817 635.477 605.78 637.219 606.762 637.832C612.282 640.776 616.698 643.352 634.731 647.4C649.157 650.639 660.369 648.75 664.172 647.4L696.925 638.568Z" fill="#748FA1"/>
<path d="M819 553.766V574.743L873.466 593.512L900.405 582.039C904.821 580.861 905.925 578.358 905.925 577.254V557.754C905.925 555.694 905.311 552.905 904.5 552.079C902.944 550.496 889.925 546.254 881.195 544.934C866.576 542.722 855.556 543.584 851.754 544.934L819 553.766Z" fill="#5B7180"/>
<path d="M760.592 532.579L581 578.949L640 599.079L610 607.079C604.5 608.579 598 613.079 613.5 620.579C622.823 624.137 643.807 629.818 660 626.579L696.5 618.079L781.936 647.032L848.179 629.735L817.266 619.063C812.236 616.609 809.17 609.936 837.139 602.87C843.763 600.907 860.176 597.718 872.836 600.662C873.818 600.907 876.884 601.766 881.301 603.238C885.717 604.71 903.259 610.721 911.478 613.542L963 600.294L760.592 532.579Z" fill="#89ABC2"/>
<path d="M772 671.271V650.294L714 665.079V687.079L772 671.271Z" fill="#587284"/>
<path d="M390 650.104V628.949L449 648.579V669.579L390 650.104Z" fill="#C9D9E4"/>
<path d="M505.5 690.079V668.579L591 696.579V718.579L505.5 690.079Z" fill="#C9D9E4"/>
<path d="M667 699.579V677.079L590.568 697.032V718.377L667 699.579Z" fill="#587284"/>
<path d="M571 582.079L390 628.949L449 648.579L463 645.079C485 640.079 499.452 638.74 516 640.579C534 642.579 547 658.079 517.5 665.079L505.5 668.579L590.936 697.032L657.179 679.735L720.478 663.542L772 650.294L697 624.579L672.5 631.579C650.5 637.579 621 631.579 610.5 627.079C597.526 621.519 593.5 614.579 598 608.079C601.342 603.252 614.5 600.579 621.5 599.079L571 582.079Z" fill="#89ABC2"/>
<path d="M505.925 690.567V668.079L451.458 650.821L424.52 662.294C420.104 663.472 419 665.975 419 667.079V686.579C419 688.639 421.133 690.169 421.944 690.995C423.5 692.579 435 698.079 443.73 699.399C458.349 701.611 469.368 700.749 473.171 699.399L505.925 690.567Z" fill="#C9D9E4"/>
<path d="M457.596 633.639V612.294L443.979 607.509C463.705 601.621 479.431 603.584 484.829 605.301L521.262 617.472V596.101C514.638 593.893 497.019 587.368 484.829 583.614C472.314 579.76 457 583.254 449.499 584.693C428.007 588.814 422.879 594.997 423.002 597.573V618.918C423.002 621.568 426.682 623.211 428.522 623.702L457.596 633.639Z" fill="#647B8A"/>
<path d="M447.003 584.6C425.511 588.722 422.881 594.193 423.004 596.769C422.99 598.367 426.666 602.735 441.483 607.417L455.1 612.201L520.5 595.769C513.876 593.561 496.69 587.022 484.5 583.269C471.985 579.415 454.504 583.161 447.003 584.6Z" fill="#89ABC2"/>
<path d="M569.592 582.579L390 628.949L449 649.079L433.5 653.579C424 656.079 411 666.079 425 673.079C433 676.579 455.5 684.079 478.5 677.579L506 669.079L590.936 697.032L657.179 679.735L626.266 669.063C621.236 666.609 618.17 659.936 646.139 652.87C652.763 650.907 669.176 647.718 681.836 650.662C682.818 650.907 685.884 651.766 690.301 653.238C694.717 654.71 712.259 660.721 720.478 663.542L772 650.294L584 637.079L569.592 582.579Z" fill="#89ABC2"/>
<path d="M933.666 735.079V756.424L947.283 761.208C927.557 767.096 911.831 765.134 906.433 763.416L869.999 751.246V772.617C876.624 774.825 894.243 781.349 906.433 785.103C918.948 788.957 934.525 785.865 941.762 784.025C963.255 779.903 968.382 773.721 968.26 771.144V749.8C968.26 747.15 964.579 745.506 962.739 745.015L933.666 735.079Z" fill="#4C6577"/>
<path d="M735 666.079V682.597L748.283 694.005C728.557 699.894 712.831 697.931 707.433 696.214L670.999 684.199V705.414C677.624 707.622 695.243 714.147 707.433 717.901C719.948 721.755 735.525 718.662 742.762 716.822C764.255 712.701 769.382 706.518 769.26 703.942V682.597C769.26 679.947 767.84 677.07 766 676.579L735 666.079Z" fill="#5C7180"/>
<path d="M757 696.579L757 681.924H730.667L744.283 686.708C724.558 692.596 708.831 690.634 703.434 688.916L667 676.746V698.117C673.624 700.325 691.243 706.849 703.434 710.603C715.948 714.457 731.526 711.365 738.763 709.525C760.255 705.403 757.123 699.155 757 696.579Z" fill="#6A8394"/>
<path d="M751.5 677.079L716 664.579L667.5 677.079L701 688.579C706.397 690.296 720 695.079 739 690.579C740.5 690.223 757 686.655 757 682.079C757 679.429 753.26 677.642 751.5 677.079Z" fill="#89ABC2"/>
<path d="M985.001 742.771V721.794L933.479 735.042V756.387L985.001 742.771Z" fill="#4C6577"/>
<path d="M962.74 745.016L933.5 734.579L870 751.246L906.433 763.416C911.831 765.134 927.557 767.096 947.283 761.208C954.275 759.312 968.26 754.376 968.26 749.8C968.26 747.15 964.5 745.579 962.74 745.016Z" fill="#89ABC2"/>
<path d="M603 721.604V700.449L662 720.079V741.079L603 721.604Z" fill="#C9D9E4"/>
<path d="M718.5 761.579V740.579L735 735.579C727.5 725.079 694.897 731.361 689.5 733.079L661.999 740.781V720.079C667.5 718.579 686.5 713.579 699 710.579C711.733 707.523 726.525 706.162 733.762 708.002C755.255 712.124 760.382 718.307 760.26 720.883V742.228C760.26 744.877 756.579 746.521 754.739 747.012L718.5 761.579Z" fill="#C9D9E4"/>
<path d="M718.5 761.579V740.079L803.5 768.355V789.709L718.5 761.579Z" fill="#C9D9E4"/>
<path d="M870.179 772.58V751.235L803.568 768.532V789.877L870.179 772.58Z" fill="#4C6577"/>
<path d="M870.179 751.235L803.936 768.532L718.5 740.079L730.5 736.579C760 729.579 747 714.079 729 712.079C712.452 710.24 698 711.579 676 716.579L662 720.079L603 700.449L723 704.579L755 693.08L778 682.579L782.592 654.079L832.5 671.079C829.734 672.079 823.2 673.879 818 681.079C812.8 688.279 814.5 696.579 829.5 702.079C836.977 704.821 864 710.579 886 704.579L910 696.579L985 721.794L933.478 735.042L870.179 751.235Z" fill="#89ABC2"/>
<path d="M841 674.267V695.244L895.466 714.013L922.405 702.54C926.821 701.362 927.925 698.859 927.925 697.755V678.255C927.925 676.194 927.311 673.406 926.5 672.58C924.944 670.997 911.925 666.755 903.195 665.435C888.576 663.223 877.556 664.085 873.754 665.435L841 674.267Z" fill="#5B7180"/>
<path d="M983 721.58L899.5 693.08L913 689.58C926.5 686.08 934.15 674.74 920.5 667.08C909 660.627 890 660.58 867 667.08L841.5 673.533L783 653.579L735 666.079C750.5 671.579 757.503 674.031 758.5 674.579C772 682.004 759.167 692.079 751 694.579C729.4 701.379 708 698.912 702.5 697.079L667 684.079L603 700.579L746.5 709.58L803.5 768.08L841.5 721.58L894 715.58L983 721.58Z" fill="#89ABC2"/>
<path d="M961 600.58L877.5 572.08L891.5 567.579C904.5 563.079 912.15 553.74 898.5 546.08C887 539.627 868 539.58 845 546.08L819.5 552.533L761 532.579L713 545.079C728.5 550.579 735.503 553.031 736.5 553.579C750 561.004 737.167 571.079 729 573.579C707.4 580.379 686 577.912 680.5 576.079L645 563.079L581 579.579L724.5 588.58L781.5 647.08L819.5 600.58L872 594.58L961 600.58Z" fill="#89ABC2"/>
<path opacity="0.4" fill-rule="evenodd" clip-rule="evenodd" d="M730.081 594.591C728.483 593.939 726.138 593.8 724.615 594.266L704.404 600.452C702.595 601.006 702.674 602.177 704.573 602.951L722.774 610.372C724.372 611.023 726.717 611.163 728.24 610.697L729.812 610.215L732.757 611.221C732.602 611.323 732.451 611.427 732.304 611.533L736.679 612.56L745.455 615.557C745.312 615.642 745.172 615.73 745.037 615.82L749.294 616.867L756.85 619.447C757.045 619.514 757.261 619.568 757.484 619.608C757.5 619.621 757.521 619.632 757.545 619.644C758.143 619.918 760.853 619.66 763.599 619.067C766.344 618.474 768.084 617.771 767.486 617.496C767.45 617.479 767.407 617.465 767.356 617.452C767.314 617.379 767.237 617.305 767.124 617.231L762.202 614.048L760.936 612.416C760.566 612.416 760.155 612.422 759.71 612.436L754.047 608.773L754.097 608.774L752.949 607.108C752.503 607.102 752.011 607.103 751.481 607.113L747.776 604.717L748.451 604.51C750.26 603.957 750.181 602.786 748.282 602.012L730.081 594.591Z" fill="#0B1D28"/>
<g filter="url(#filter0_i_115_3416)">
<path d="M719.615 591.868C721.137 591.402 723.483 591.542 725.08 592.193L743.282 599.614C745.18 600.388 745.259 601.559 743.45 602.113L723.239 608.299C721.717 608.765 719.371 608.626 717.774 607.974L699.572 600.553C697.674 599.779 697.595 598.608 699.404 598.055L719.615 591.868Z" fill="#EBCE15"/>
</g>
<g filter="url(#filter1_d_115_3416)">
<path d="M714.934 572.144L707.76 597.288C707.581 597.914 707.867 598.583 708.458 598.857C717.979 603.262 728.892 600.929 734.192 598.821C734.817 598.573 735.132 597.887 734.951 597.239L727.97 572.152C727.805 571.559 727.265 571.149 726.65 571.149H716.251C715.639 571.149 715.102 571.555 714.934 572.144Z" fill="#EBCE15"/>
</g>
<g filter="url(#filter2_i_115_3416)">
<mask id="mask0_115_3416" style="mask-type:alpha" maskUnits="userSpaceOnUse" x="707" y="571" width="29" height="31">
<path d="M714.934 572.144L707.76 597.288C707.581 597.914 707.867 598.583 708.458 598.857C717.979 603.262 728.892 600.929 734.192 598.821C734.817 598.573 735.132 597.887 734.951 597.239L727.97 572.152C727.805 571.559 727.265 571.149 726.65 571.149H716.251C715.639 571.149 715.102 571.555 714.934 572.144Z" fill="#DCB551"/>
</mask>
<g mask="url(#mask0_115_3416)">
<path d="M709.234 589.578C712.899 591.012 722.851 593.019 733.346 589.578" stroke="#F5F5F5" stroke-width="3.56201"/>
<path d="M712.248 579.509C715.017 580.512 722.538 581.917 730.469 579.509" stroke="#F5F5F5" stroke-width="3.56201"/>
</g>
</g>
<ellipse cx="721.427" cy="571.624" rx="6.30202" ry="1.04494" fill="#DCB551"/>
<g filter="url(#filter3_i_115_3416)">
<path d="M765.622 544.466C766.759 544.118 768.509 544.222 769.701 544.708L783.284 550.246C784.7 550.824 784.759 551.697 783.409 552.11L768.327 556.727C767.191 557.075 765.441 556.971 764.249 556.484L750.666 550.947C749.249 550.369 749.19 549.495 750.54 549.082L765.622 544.466Z" fill="#EBCE15"/>
<g filter="url(#filter4_d_115_3416)">
<path d="M762.129 529.746L756.776 548.51C756.643 548.977 756.855 549.477 757.296 549.681C764.402 552.968 772.545 551.227 776.5 549.654C776.967 549.469 777.201 548.957 777.067 548.473L771.857 529.753C771.734 529.31 771.331 529.004 770.872 529.004H763.112C762.656 529.004 762.254 529.307 762.129 529.746Z" fill="#EBCE15"/>
</g>
<mask id="mask1_115_3416" style="mask-type:alpha" maskUnits="userSpaceOnUse" x="756" y="529" width="22" height="23">
<path d="M762.129 529.746L756.776 548.51C756.643 548.977 756.855 549.477 757.296 549.681C764.402 552.968 772.545 551.227 776.5 549.654C776.967 549.469 777.201 548.957 777.067 548.473L771.857 529.753C771.734 529.31 771.331 529.004 770.872 529.004H763.112C762.656 529.004 762.254 529.307 762.129 529.746Z" fill="#DCB551"/>
</mask>
<g mask="url(#mask1_115_3416)">
<path d="M757.876 542.756C760.611 543.826 768.038 545.324 775.869 542.756" stroke="#F5F5F5" stroke-width="2.6581"/>
<path d="M760.125 535.242C762.191 535.991 767.804 537.04 773.722 535.242" stroke="#F5F5F5" stroke-width="2.6581"/>
</g>
</g>
<ellipse cx="766.974" cy="529.359" rx="4.70279" ry="0.779769" fill="#DCB551"/>
<path d="M225 832.104V810.949L425.936 879.032V900.377L225 832.104Z" fill="#E4EDF2"/>
<path d="M607 853.579V832.791L425.568 879.032V900.377L607 853.579Z" fill="#4C6577"/>
<path d="M405 766.079L225 811.079L284 831.079L341 851.079L425.936 879.032L492.179 861.735L461.266 851.063C456.236 848.609 453.17 841.936 481.139 834.87C487.763 832.907 504.176 829.718 516.836 832.662C517.818 832.907 520.884 833.766 525.301 835.238C529.717 836.71 547.259 842.721 555.478 845.542L606 832.579L440.5 817.079L405 766.079Z" fill="#9CBBD0"/>
<path d="M456.5 781.579V797.579C452.5 798.412 436.5 802.579 435.5 809.579C448.833 815.579 478.4 828.379 500 821.579L527 808.579L506.262 824.579C500.762 826.079 481.762 831.079 469.262 834.079C456.529 837.135 441.737 838.495 434.499 836.655C413.007 832.534 407.879 826.351 408.002 823.775V802.43C408.002 799.78 411.682 798.137 413.522 797.646L430.5 787.079L456.5 781.579Z" fill="#607685"/>
<path d="M295.596 815.639V794.294L281.979 789.509C301.705 783.621 317.431 785.584 322.829 787.301L359.262 799.472V778.101C352.638 775.893 335.019 769.368 322.829 765.614C310.314 761.76 295 765.254 287.499 766.693C266.007 770.814 260.879 776.997 261.002 779.573V800.918C261.002 803.568 264.682 805.211 266.522 805.702L295.596 815.639Z" fill="#E4EDF2"/>
<path d="M285.003 766.6C263.511 770.722 260.881 776.193 261.004 778.769C260.99 780.367 264.666 784.735 279.483 789.417L293.1 794.201L358.5 777.769C351.876 775.561 334.69 769.022 322.5 765.269C309.985 761.415 292.504 765.161 285.003 766.6Z" fill="#9CBBD0"/>
<path d="M406 764.579L225 811.449L284 831.079L298 827.579C320 822.579 334.452 821.24 351 823.079C369 825.079 382 840.579 352.5 847.579L340.5 851.079L425.936 879.532L492.179 862.235L555.478 846.042L607 832.794L532 807.079L507.5 814.079C485.5 820.079 456 814.079 445.5 809.579C432.526 804.019 428.5 797.079 433 790.579C436.342 785.752 449.5 783.079 456.5 781.579L406 764.579Z" fill="#9CBBD0"/>
<path d="M557.667 845.079V866.424L571.284 871.208C551.558 877.096 535.832 875.134 530.434 873.416L494 861.246V882.617C500.625 884.825 518.244 891.349 530.434 895.103C542.949 898.957 558.526 895.865 565.763 894.025C587.256 889.903 592.383 883.721 592.261 881.144V859.8C592.261 857.15 588.58 855.506 586.74 855.015L557.667 845.079Z" fill="#4C6577"/>
<path d="M586.741 855.016L557.5 844.579L494.001 861.246L530.434 873.416C535.832 875.134 551.558 877.096 571.284 871.208C578.276 869.312 592.261 864.376 592.261 859.8C592.261 857.15 588.5 855.579 586.741 855.016Z" fill="#9CBBD0"/>
<path opacity="0.5" d="M465.501 818.079L592.5 859.579L592.001 880.079L590.001 871.079L587.501 865.079L451.546 820.737L465.501 818.079Z" fill="#0F2736"/>
<g filter="url(#filter5_i_115_3416)">
<path d="M504 689.079L511.5 692.08V670.951L504 689.079Z" fill="#133141" fill-opacity="0.3"/>
<path d="M565 710.079L573 712.579V691.579L565 710.079Z" fill="#133141" fill-opacity="0.3"/>
<path d="M507.254 670.4L497.242 668.175L452 820.415L461.637 822.812L507.254 670.4Z" fill="#EEC55A"/>
<path d="M512.446 667.804L506.883 670.4L461.537 822.812L467.286 820.245L512.446 667.804Z" fill="#AF8D36"/>
<path d="M503.896 665.579L497.241 668.175L507.031 670.451L512.445 667.804L503.896 665.579Z" fill="#DAB453"/>
<path d="M557.317 710.079L502.433 690.425L503.299 687.829L558.182 707.483L557.317 710.079Z" fill="#EEC55A"/>
<path d="M505.524 687.829H503.299L558.182 707.483L560.036 706.742L505.524 687.829Z" fill="#DAB453"/>
<path d="M546.933 744.196L492.05 724.542L492.915 721.946L547.798 741.6L546.933 744.196Z" fill="#EEC55A"/>
<path d="M495.14 721.946H492.915L547.798 741.6L549.653 740.859L495.14 721.946Z" fill="#DAB453"/>
<path d="M536.55 779.054L481.667 759.4L482.532 756.804L537.416 776.458L536.55 779.054Z" fill="#EEC55A"/>
<path d="M484.757 756.804H482.532L537.416 776.458L539.27 775.717L484.757 756.804Z" fill="#DAB453"/>
<path d="M526.166 813.913L471.283 794.258L472.148 791.663L527.032 811.317L526.166 813.913Z" fill="#EEC55A"/>
<path d="M474.373 791.663H472.148L527.032 811.317L528.886 810.575L474.373 791.663Z" fill="#DAB453"/>
<path d="M568.813 691.167L558.8 688.571L513.559 841.182L523.195 843.579L568.813 691.167Z" fill="#EEC55A"/>
<path d="M574.004 688.571L568.442 691.167L523.096 843.579L528.845 841.012L574.004 688.571Z" fill="#AF8D36"/>
<path d="M565.455 686.346L558.8 688.571L568.59 691.217L574.004 688.571L565.455 686.346Z" fill="#DAB453"/>
</g>
<path opacity="0.3" d="M824 575.579C855.026 582.787 869.893 589.541 885.5 604.079C885.5 604.079 882.5 606.817 882.5 612.817L882.5 625.079C869.5 621.579 854.1 618.279 834.5 625.079L806.436 615.105C804.431 614.466 802.277 613.703 800 612.817C787.945 608.128 772.459 600.024 757.5 589.079L824 575.579Z" fill="#0B151C"/>
<g filter="url(#filter6_i_115_3416)">
<path d="M783.449 557.369C782.401 561.687 775.853 562.818 779.704 561.681C783.555 560.545 790.808 560.171 791.221 555.677C791.635 551.182 787.081 549.482 783.23 550.619C779.38 551.755 783.771 553.867 783.449 557.369Z" fill="#EEC55A"/>
<path d="M747.997 578.772C756.753 594.938 771.738 595.613 787.287 596.313C808.009 597.246 833.456 582.62 827.751 563.527C822.045 544.434 804.438 548.422 785.613 543.141C764.359 537.179 750.889 558.451 740.514 555.439C739.625 560.873 742.265 568.188 747.997 578.772Z" fill="#DCB551"/>
<path d="M778.751 542.832C783.137 555.313 799.679 559.695 812.287 555.974C824.894 552.254 827.629 543.743 828.587 533.332C828.627 522.798 816.742 511.66 802.015 512.336C775.935 513.532 776.453 536.292 778.751 542.832Z" fill="#EEC55A"/>
<path d="M824.09 540.413C823.778 541.793 820.114 550.306 830.469 542.925C832.799 541.836 835.467 540.058 835.598 538.636C835.843 535.974 833.335 538.202 830.163 536.016C827.416 528.508 824.403 539.034 824.09 540.413Z" fill="#C09D43"/>
<path d="M820.604 541.943C820.426 543.877 820.634 543.638 823.263 545.368C825.385 547.547 829.425 542.019 829.603 540.085C829.781 538.15 828.075 535.229 825.807 535.898C824.614 538.755 820.782 540.009 820.604 541.943Z" fill="#C09D43"/>
<mask id="mask2_115_3416" style="mask-type:alpha" maskUnits="userSpaceOnUse" x="820" y="533" width="16" height="13">
<path d="M824.09 540.413C823.778 541.793 820.114 550.306 830.469 542.925C832.799 541.836 835.467 540.058 835.598 538.636C835.843 535.974 833.335 538.202 830.163 536.016C827.416 528.508 824.403 539.034 824.09 540.413Z" fill="#DAA06B"/>
<path d="M820.604 541.943C820.426 543.877 820.634 543.638 823.263 545.368C825.385 547.547 829.425 542.019 829.603 540.085C829.781 538.15 828.075 535.229 825.807 535.898C824.614 538.755 820.782 540.009 820.604 541.943Z" fill="#DAA06B"/>
</mask>
<g mask="url(#mask2_115_3416)">
<path d="M822.195 543.184C825.596 543.909 829.424 542.886 831.892 542.333L831.303 553.231C826.909 549.378 820.282 542.776 822.195 543.184Z" fill="#B2913C"/>
</g>
<g filter="url(#filter7_d_115_3416)">
<path d="M762.4 577.537C759.53 585.5 773.488 589.097 778.763 587.541C784.038 585.984 797.991 583.57 800.541 569.99C801.065 564.3 794.911 561.73 789.636 563.287C784.361 564.843 763.148 569.399 762.4 577.537Z" fill="#C9A23D"/>
</g>
<path d="M811.631 534.276C811.222 536.656 813.191 538.55 814.886 538.624C816.407 538.771 817.96 537.426 818.126 535.71C818.291 533.993 816.818 531.729 815.298 531.583C813.539 531.233 811.964 532.341 811.631 534.276Z" fill="#755B17"/>
<path d="M815.272 533.713C815.234 534.105 815.55 534.547 815.994 534.59C816.527 534.641 816.73 534.392 816.862 533.956C816.9 533.564 816.69 532.954 816.068 532.894C815.535 532.842 815.31 533.321 815.272 533.713Z" fill="#F3D994"/>
</g>
<g filter="url(#filter8_i_115_3416)">
<path opacity="0.3" d="M374.453 806.097L336.133 791.102L302.908 814.279L309.863 827.724L350.553 837.617L371.665 817.89L371.665 817.889L374.453 806.097Z" fill="#062131"/>
<path d="M310.118 828.223L306.246 765.283L360.133 788.044L310.118 828.223Z" fill="#5A86A6"/>
<path d="M293.217 812.173L306.246 765.282L310.119 828.223L293.217 812.173Z" fill="#7096B2"/>
<path d="M353.598 770.189L306.246 765.283L360.133 788.044L353.598 770.189Z" fill="#41627A"/>
<path d="M355.728 824.908L360.133 788.044L310.119 828.223L355.728 824.908Z" fill="#3B596F"/>
<path d="M328.595 797.929C327.287 798.878 325.458 799.064 324.365 797.558C323.663 796.591 323.667 795.464 324.342 794.521C323.522 794.663 322.688 794.345 322.137 793.587C321.252 792.367 321.829 790.874 322.917 790.084C324.093 789.23 325.63 789.29 326.5 790.488C327.042 791.235 327.055 792.132 326.672 792.829C327.767 792.488 328.837 792.852 329.531 793.809C330.624 795.314 329.903 796.979 328.595 797.929ZM325.359 793.447C326.183 792.849 326.383 791.898 325.792 791.085C325.242 790.327 324.268 790.211 323.444 790.809C322.686 791.36 322.369 792.311 322.944 793.102C323.558 793.949 324.523 794.054 325.359 793.447ZM328.068 797.203C329.035 796.501 329.51 795.351 328.744 794.296C328.018 793.296 326.797 793.209 325.731 793.983C324.653 794.765 324.358 795.953 325.084 796.953C325.85 798.008 327.09 797.913 328.068 797.203Z" fill="#365063"/>
<path d="M345.365 818.96L350.335 815.724L349.914 815.434L340.129 813.229L339.352 813.734L348.843 815.83L344.72 818.515L345.365 818.96Z" fill="#273A48"/>
<path d="M336.728 769.334C337.835 769.233 339.468 769.411 340.508 769.724C341.581 770.047 341.62 770.4 340.445 770.507C339.38 770.603 337.887 770.455 336.808 770.196L337.293 770.117C338.103 770.311 339.139 770.415 339.909 770.345C340.779 770.266 340.663 770.013 339.891 769.78C339.143 769.555 338.034 769.419 337.18 769.497C336.614 769.548 336.451 769.668 336.57 769.819L335.824 769.826L333.43 768.896L336.482 768.62L337.019 768.782L334.449 769.015L335.947 769.599C335.987 769.455 336.297 769.373 336.728 769.334Z" fill="#2E4658"/>
<path d="M297.987 800.308L300.575 798.573L300.429 799.106L297.031 801.384L297.174 800.86C298.552 799.254 300.409 797.033 300.824 795.519C301.021 794.798 300.801 794.572 300.167 794.997C299.419 795.498 298.908 796.355 298.67 797.203L298.202 797.484C298.509 796.362 299.3 795.137 300.315 794.457C301.189 793.871 301.616 794.099 301.315 795.196C300.916 796.653 299.484 798.563 297.987 800.308Z" fill="#466982"/>
</g>
<path opacity="0.4" fill-rule="evenodd" clip-rule="evenodd" d="M587.793 646.591C568.439 651.825 558.676 655.98 561.695 660.312L571.072 664.759L571.117 664.762C571.222 664.823 571.334 664.883 571.456 664.94C574.857 666.553 584.098 666.284 595.317 664.551L630.112 674.832C627.614 677.341 628.455 680.156 633.078 682.349C634.719 682.926 638.9 683.979 642.5 683.579L642.5 690.08L667 684.079L670 685.079L670 678.079C672.119 676.845 675.371 673.896 671.428 671.977C666.912 669.835 659.814 668.774 652.57 668.888L634.043 654.065C641.714 650.687 644.934 647.593 641.544 645.985C641.505 645.966 641.464 645.948 641.424 645.93L641.424 645.928L631.784 641.356C622.903 639.215 600.587 643.13 587.793 646.591Z" fill="#0B1C25"/>
<g filter="url(#filter9_i_115_3416)">
<path d="M564.033 655.552C557.714 648.876 559.78 638.18 566.912 622.311C571.626 611.822 581.991 597.294 589.857 598.088L600.668 602.947C604.517 609.603 598.89 621.9 593.363 634.199C588.143 645.814 581.779 658.084 574.549 660.278L564.033 655.552Z" fill="#665D96"/>
<ellipse cx="587.89" cy="631.739" rx="31.5" ry="12" transform="rotate(114.199 587.89 631.739)" fill="#7C6FC2"/>
<path d="M580.624 649.852L623.116 658.258L631.257 640.142L596.61 614.279C596.61 614.279 588.979 619.559 584.094 630.429C579.21 641.298 580.624 649.852 580.624 649.852Z" fill="#665D96"/>
<ellipse cx="639.203" cy="654.799" rx="17.2358" ry="16.7438" transform="rotate(114.199 639.203 654.799)" fill="#7C6FC2"/>
</g>
<path d="M266.813 726.056V704.711L253.197 699.927C272.922 694.039 288.649 696.002 294.047 697.719L330.48 709.889V688.519C323.856 686.311 306.237 679.786 294.047 676.032C281.532 672.178 265.955 675.27 258.717 677.11C237.225 681.232 232.097 687.415 232.22 689.991V711.336C232.22 713.985 235.9 715.629 237.74 716.12L266.813 726.056Z" fill="#647B8A"/>
<path d="M0 675.104V653.949L200.936 722.032V743.377L0 675.104Z" fill="#E4EDF2"/>
<path d="M267.179 726.08V704.735L200.568 722.032V743.377L267.179 726.08Z" fill="#587284"/>
<path d="M382 696.271V675.294L330.478 688.542V709.887L382 696.271Z" fill="#587284"/>
<path d="M238 628.766V649.743L292.466 668.512L319.405 657.039C323.821 655.861 324.925 653.358 324.925 652.254V632.754C324.925 629.246 324.311 627.905 323.5 627.079C321.944 625.496 308.925 621.254 300.195 619.934C285.576 617.722 274.556 618.584 270.753 619.934L238 628.766Z" fill="#5B7180"/>
<path d="M179.592 607.579L0 653.949L59 674.079L116 694.079L200.936 722.032L267.179 704.735L236.266 694.063C231.236 691.609 228.17 684.936 256.139 677.87C262.763 675.907 279.176 672.718 291.836 675.662C292.818 675.907 295.884 676.766 300.301 678.238C304.717 679.71 322.259 685.721 330.478 688.542L382 675.294L179.592 607.579Z" fill="#AECBDE"/>
<path d="M380 675.58L296.5 647.08L310 643.58C323.5 640.08 331.15 628.74 317.5 621.08C306 614.627 287 614.58 264 621.08L238.5 627.533L180 607.579L132 620.079C147.5 625.579 154.503 628.031 155.5 628.579C169 636.004 156.167 646.079 148 648.579C126.4 655.379 105 652.912 99.5 651.079L64 638.079L0 654.579L143.5 663.58L200.5 722.08L238.5 675.58L291 669.58L380 675.58Z" fill="#AECBDE"/>
<path opacity="0.4" fill-rule="evenodd" clip-rule="evenodd" d="M253.5 700.079L257.999 698.579C258.299 696.186 257.272 693.794 254.868 692.212L259.499 677.079L240.957 665.648C242.313 664.297 242.996 662.977 243.181 661.882L237.681 654.382C230.432 652.459 221.825 654.42 210.606 656.977L210.606 656.977C207.957 657.58 205.163 658.217 202.207 658.843C198.899 659.544 193.647 658.452 188.683 657.42C178.293 655.259 169.162 653.36 181.746 668.713C181.746 668.713 184.113 670.012 189.897 672.947C193.29 674.668 201.403 674.879 209.952 674.245L234.5 687.079L236 694.078L239.947 695.239L253.5 700.079Z" fill="#071821"/>
<g filter="url(#filter10_i_115_3416)">
<path d="M238 658.579C234.5 667.079 223.897 669.579 206.5 669.579C195 669.579 177.5 666.079 175 658.579V646.726C179.494 640.487 193.017 640.579 206.5 640.579C219.234 640.579 233.035 641.354 238 647.05V658.579Z" fill="#B2913C"/>
<ellipse cx="206.5" cy="646.579" rx="31.5" ry="12" fill="#DCB551"/>
<path d="M226 645.783L216.25 603.579H196.389L187 645.783C187 645.783 194.944 650.579 206.861 650.579C218.778 650.579 226 645.783 226 645.783Z" fill="#B2913C"/>
<ellipse cx="206.5" cy="590.323" rx="17.2358" ry="16.7438" fill="#DCB551"/>
</g>
</g>
<defs>
<filter id="filter0_i_115_3416" x="698.096" y="591.594" width="46.6621" height="16.98" filterUnits="userSpaceOnUse" color-interpolation-filters="sRGB">
<feFlood flood-opacity="0" result="BackgroundImageFix"/>
<feBlend mode="normal" in="SourceGraphic" in2="BackgroundImageFix" result="shape"/>
<feColorMatrix in="SourceAlpha" type="matrix" values="0 0 0 0 0 0 0 0 0 0 0 0 0 0 0 0 0 0 127 0" result="hardAlpha"/>
<feOffset dx="1" dy="1"/>
<feComposite in2="hardAlpha" operator="arithmetic" k2="-1" k3="1"/>
<feColorMatrix type="matrix" values="0 0 0 0 0.907617 0 0 0 0 0.907617 0 0 0 0 0.907617 0 0 0 1 0"/>
<feBlend mode="normal" in2="shape" result="effect1_innerShadow_115_3416"/>
</filter>
<filter id="filter1_d_115_3416" x="707.022" y="571.149" width="28.6649" height="31.715" filterUnits="userSpaceOnUse" color-interpolation-filters="sRGB">
<feFlood flood-opacity="0" result="BackgroundImageFix"/>
<feColorMatrix in="SourceAlpha" type="matrix" values="0 0 0 0 0 0 0 0 0 0 0 0 0 0 0 0 0 0 127 0" result="hardAlpha"/>
<feOffset dy="0.822003"/>
<feGaussianBlur stdDeviation="0.342501"/>
<feComposite in2="hardAlpha" operator="out"/>
<feColorMatrix type="matrix" values="0 0 0 0 0.841667 0 0 0 0 0.582122 0 0 0 0 0.340174 0 0 0 1 0"/>
<feBlend mode="normal" in2="BackgroundImageFix" result="effect1_dropShadow_115_3416"/>
<feBlend mode="normal" in="SourceGraphic" in2="effect1_dropShadow_115_3416" result="shape"/>
</filter>
<filter id="filter2_i_115_3416" x="708.586" y="577.805" width="25.3154" height="15.4546" filterUnits="userSpaceOnUse" color-interpolation-filters="sRGB">
<feFlood flood-opacity="0" result="BackgroundImageFix"/>
<feBlend mode="normal" in="SourceGraphic" in2="BackgroundImageFix" result="shape"/>
<feColorMatrix in="SourceAlpha" type="matrix" values="0 0 0 0 0 0 0 0 0 0 0 0 0 0 0 0 0 0 127 0" result="hardAlpha"/>
<feOffset dx="1" dy="1"/>
<feComposite in2="hardAlpha" operator="arithmetic" k2="-1" k3="1"/>
<feColorMatrix type="matrix" values="0 0 0 0 0.907617 0 0 0 0 0.907617 0 0 0 0 0.907617 0 0 0 1 0"/>
<feBlend mode="normal" in2="shape" result="effect1_innerShadow_115_3416"/>
</filter>
<filter id="filter3_i_115_3416" x="749.564" y="529.004" width="34.8203" height="27.9272" filterUnits="userSpaceOnUse" color-interpolation-filters="sRGB">
<feFlood flood-opacity="0" result="BackgroundImageFix"/>
<feBlend mode="normal" in="SourceGraphic" in2="BackgroundImageFix" result="shape"/>
<feColorMatrix in="SourceAlpha" type="matrix" values="0 0 0 0 0 0 0 0 0 0 0 0 0 0 0 0 0 0 127 0" result="hardAlpha"/>
<feOffset dx="1" dy="1"/>
<feComposite in2="hardAlpha" operator="arithmetic" k2="-1" k3="1"/>
<feColorMatrix type="matrix" values="0 0 0 0 0.907617 0 0 0 0 0.907617 0 0 0 0 0.907617 0 0 0 1 0"/>
<feBlend mode="normal" in2="shape" result="effect1_innerShadow_115_3416"/>
</filter>
<filter id="filter4_d_115_3416" x="756.225" y="529.004" width="21.3905" height="23.6671" filterUnits="userSpaceOnUse" color-interpolation-filters="sRGB">
<feFlood flood-opacity="0" result="BackgroundImageFix"/>
<feColorMatrix in="SourceAlpha" type="matrix" values="0 0 0 0 0 0 0 0 0 0 0 0 0 0 0 0 0 0 127 0" result="hardAlpha"/>
<feOffset dy="0.613407"/>
<feGaussianBlur stdDeviation="0.255586"/>
<feComposite in2="hardAlpha" operator="out"/>
<feColorMatrix type="matrix" values="0 0 0 0 0.841667 0 0 0 0 0.582122 0 0 0 0 0.340174 0 0 0 1 0"/>
<feBlend mode="normal" in2="BackgroundImageFix" result="effect1_dropShadow_115_3416"/>
<feBlend mode="normal" in="SourceGraphic" in2="effect1_dropShadow_115_3416" result="shape"/>
</filter>
<filter id="filter5_i_115_3416" x="452" y="665.579" width="122.004" height="178" filterUnits="userSpaceOnUse" color-interpolation-filters="sRGB">
<feFlood flood-opacity="0" result="BackgroundImageFix"/>
<feBlend mode="normal" in="SourceGraphic" in2="BackgroundImageFix" result="shape"/>
<feColorMatrix in="SourceAlpha" type="matrix" values="0 0 0 0 0 0 0 0 0 0 0 0 0 0 0 0 0 0 127 0" result="hardAlpha"/>
<feOffset dx="1" dy="1"/>
<feComposite in2="hardAlpha" operator="arithmetic" k2="-1" k3="1"/>
<feColorMatrix type="matrix" values="0 0 0 0 0.968627 0 0 0 0 0.862745 0 0 0 0 0.654902 0 0 0 1 0"/>
<feBlend mode="normal" in2="shape" result="effect1_innerShadow_115_3416"/>
</filter>
<filter id="filter6_i_115_3416" x="740.345" y="512.306" width="95.2695" height="84.0493" filterUnits="userSpaceOnUse" color-interpolation-filters="sRGB">
<feFlood flood-opacity="0" result="BackgroundImageFix"/>
<feBlend mode="normal" in="SourceGraphic" in2="BackgroundImageFix" result="shape"/>
<feColorMatrix in="SourceAlpha" type="matrix" values="0 0 0 0 0 0 0 0 0 0 0 0 0 0 0 0 0 0 127 0" result="hardAlpha"/>
<feOffset dx="1" dy="1"/>
<feComposite in2="hardAlpha" operator="arithmetic" k2="-1" k3="1"/>
<feColorMatrix type="matrix" values="0 0 0 0 0.968627 0 0 0 0 0.862745 0 0 0 0 0.654902 0 0 0 1 0"/>
<feBlend mode="normal" in2="shape" result="effect1_innerShadow_115_3416"/>
</filter>
<filter id="filter7_d_115_3416" x="757.721" y="558.545" width="55.7347" height="42.2347" filterUnits="userSpaceOnUse" color-interpolation-filters="sRGB">
<feFlood flood-opacity="0" result="BackgroundImageFix"/>
<feColorMatrix in="SourceAlpha" type="matrix" values="0 0 0 0 0 0 0 0 0 0 0 0 0 0 0 0 0 0 127 0" result="hardAlpha"/>
<feOffset dx="4.29453" dy="4.29453"/>
<feGaussianBlur stdDeviation="4.29453"/>
<feComposite in2="hardAlpha" operator="out"/>
<feColorMatrix type="matrix" values="0 0 0 0 0 0 0 0 0 0 0 0 0 0 0 0 0 0 0.05 0"/>
<feBlend mode="normal" in2="BackgroundImageFix" result="effect1_dropShadow_115_3416"/>
<feBlend mode="normal" in="SourceGraphic" in2="effect1_dropShadow_115_3416" result="shape"/>
</filter>
<filter id="filter8_i_115_3416" x="293.217" y="765.282" width="81.2363" height="72.3354" filterUnits="userSpaceOnUse" color-interpolation-filters="sRGB">
<feFlood flood-opacity="0" result="BackgroundImageFix"/>
<feBlend mode="normal" in="SourceGraphic" in2="BackgroundImageFix" result="shape"/>
<feColorMatrix in="SourceAlpha" type="matrix" values="0 0 0 0 0 0 0 0 0 0 0 0 0 0 0 0 0 0 127 0" result="hardAlpha"/>
<feOffset dx="1" dy="1"/>
<feComposite in2="hardAlpha" operator="arithmetic" k2="-1" k3="1"/>
<feColorMatrix type="matrix" values="0 0 0 0 0.968627 0 0 0 0 0.862745 0 0 0 0 0.654902 0 0 0 1 0"/>
<feBlend mode="normal" in2="shape" result="effect1_innerShadow_115_3416"/>
</filter>
<filter id="filter9_i_115_3416" x="560.261" y="598.057" width="95.7744" height="73.8999" filterUnits="userSpaceOnUse" color-interpolation-filters="sRGB">
<feFlood flood-opacity="0" result="BackgroundImageFix"/>
<feBlend mode="normal" in="SourceGraphic" in2="BackgroundImageFix" result="shape"/>
<feColorMatrix in="SourceAlpha" type="matrix" values="0 0 0 0 0 0 0 0 0 0 0 0 0 0 0 0 0 0 127 0" result="hardAlpha"/>
<feOffset dx="1" dy="1"/>
<feComposite in2="hardAlpha" operator="arithmetic" k2="-1" k3="1"/>
<feColorMatrix type="matrix" values="0 0 0 0 0.968627 0 0 0 0 0.862745 0 0 0 0 0.654902 0 0 0 1 0"/>
<feBlend mode="normal" in2="shape" result="effect1_innerShadow_115_3416"/>
</filter>
<filter id="filter10_i_115_3416" x="175" y="573.579" width="63" height="96" filterUnits="userSpaceOnUse" color-interpolation-filters="sRGB">
<feFlood flood-opacity="0" result="BackgroundImageFix"/>
<feBlend mode="normal" in="SourceGraphic" in2="BackgroundImageFix" result="shape"/>
<feColorMatrix in="SourceAlpha" type="matrix" values="0 0 0 0 0 0 0 0 0 0 0 0 0 0 0 0 0 0 127 0" result="hardAlpha"/>
<feOffset dx="2" dy="3"/>
<feComposite in2="hardAlpha" operator="arithmetic" k2="-1" k3="1"/>
<feColorMatrix type="matrix" values="0 0 0 0 0.968627 0 0 0 0 0.862745 0 0 0 0 0.654902 0 0 0 1 0"/>
<feBlend mode="normal" in2="shape" result="effect1_innerShadow_115_3416"/>
</filter>
<clipPath id="clip0_115_3416">
<rect width="1440" height="900" fill="white"/>
</clipPath>
</defs>
</svg>
