<svg width="270" height="256" viewBox="0 0 270 256" fill="none" xmlns="http://www.w3.org/2000/svg">
<g filter="url(#filter0_d_4_18006)">
<path fill-rule="evenodd" clip-rule="evenodd" d="M213.216 132.492L150.252 62.3455L107.939 76.3558L213.216 132.492ZM213.215 132.493L213.214 132.492L213.214 132.492L213.214 132.492L107.94 76.3576L107.94 76.3567L107.94 76.3574L107.938 76.3565L107.938 76.3599L68.9586 160.855L124.131 205.61L124.131 205.611L124.132 205.611L124.132 205.612L124.132 205.611L124.133 205.612L124.134 205.612L124.134 205.612L159.28 211.861L213.211 132.496L213.215 132.493Z" fill="#142E3D" fill-opacity="0.5"/>
<path d="M192.817 75.0846L107.322 61.5981L173.766 153.646L192.817 75.0846Z" fill="#E5C987"/>
<path d="M36.1593 86.9632L107.319 61.5987L56.4151 163.085L36.1593 86.9632Z" fill="#E3C57E"/>
<path d="M173.764 153.645L107.321 61.5975L56.4165 163.084L173.764 153.645Z" fill="#E8D097"/>
<path d="M192.815 75.0844L102.302 37.1856L107.32 61.598L192.815 75.0844Z" fill="#ECD7A7"/>
<path d="M107.32 61.5984L102.301 37.186L36.1597 86.963L107.32 61.5984Z" fill="#E7CE93"/>
<mask id="mask0_4_18006" style="mask-type:alpha" maskUnits="userSpaceOnUse" x="36" y="37" width="72" height="50">
<path d="M107.321 61.5984L102.303 37.186L36.1616 86.963L107.321 61.5984Z" fill="#E7CE93"/>
</mask>
<g mask="url(#mask0_4_18006)">
<path d="M74.9217 55.3187L75.8742 54.8564L71.4684 64.6023L70.5158 65.0646L73.7839 57.8356L71.3818 59.0013L71.8116 58.0505L73.413 57.2733C73.8962 57.0389 74.2896 56.717 74.5487 56.1437L74.9217 55.3187ZM78.1186 61.4622C76.4758 62.2595 75.2904 62.0925 76.1564 60.1769C76.7127 58.9464 77.8126 57.6813 79.1015 56.7611C78.5129 56.7521 78.3636 56.2242 78.7998 55.2594C79.5014 53.7073 81.2727 52.1492 82.6394 51.4859C84.1166 50.769 84.9027 51.1515 84.2137 52.6756C83.7839 53.6264 82.9179 54.6361 82.0282 55.3407C82.962 55.1823 83.1948 55.8115 82.6448 57.028C81.7788 58.9436 79.7614 60.6649 78.1186 61.4622ZM80.7051 55.7646C81.7405 55.2621 82.7756 54.2358 83.2434 53.2011C83.6795 52.2363 83.2576 51.9063 82.2222 52.4087C81.2696 52.871 80.1695 53.8743 79.7144 54.881C79.2277 55.9577 79.6559 56.2738 80.7051 55.7646ZM78.5358 60.5393C79.7506 59.9497 81.1309 58.756 81.7377 57.4137C82.3129 56.1413 81.727 55.7926 80.3879 56.4424C79.035 57.099 77.7158 58.3723 77.1406 59.6447C76.5337 60.987 77.3071 61.1356 78.5358 60.5393Z" fill="#CEB375"/>
</g>
<path d="M173.765 153.646L56.4169 163.084L126.462 208.705L173.765 153.646Z" fill="#D7AC48"/>
<path d="M203.38 162.782L126.463 208.705L173.765 153.646L203.38 162.782Z" fill="#C99A2C"/>
<path d="M126.461 208.706L56.4158 163.085L40.052 177.37L126.461 208.706Z" fill="#C5972B"/>
<path d="M36.1614 86.9628L40.0534 177.369L56.4172 163.085L36.1614 86.9628Z" fill="#D9B153"/>
<mask id="mask1_4_18006" style="mask-type:alpha" maskUnits="userSpaceOnUse" x="36" y="86" width="21" height="92">
<path d="M36.1602 86.9628L40.0522 177.369L56.416 163.085L36.1602 86.9628Z" fill="#D9B153"/>
</mask>
<g mask="url(#mask1_4_18006)">
<path d="M35.1689 140.045L35.7126 139.35L37.3703 148.107L36.8266 148.802L35.597 142.306L34.226 144.059L34.0642 143.204L34.9783 142.036C35.2541 141.683 35.4068 141.301 35.3092 140.786L35.1689 140.045ZM40.0317 143.691L42.9236 139.995L43.0782 140.812L39.2802 145.666L39.128 144.862C40.1698 141.939 41.5324 137.919 41.0924 135.594C40.8831 134.489 40.3639 134.279 39.6547 135.185C38.8194 136.253 38.6243 137.703 38.8614 139.008L38.3137 139.63C37.9879 137.908 38.3631 135.806 39.4977 134.356C40.4748 133.107 41.3277 133.218 41.6464 134.902C42.0697 137.138 41.1624 140.514 40.0317 143.691Z" fill="#BD9432"/>
</g>
<path d="M203.379 162.782L173.764 153.646L192.815 75.0846L203.379 162.782Z" fill="#DBB45A"/>
<mask id="mask2_4_18006" style="mask-type:alpha" maskUnits="userSpaceOnUse" x="173" y="75" width="31" height="88">
<path d="M203.38 162.781L173.766 153.645L192.817 75.0837L203.38 162.781Z" fill="#DBB45A"/>
</mask>
<g mask="url(#mask2_4_18006)">
<path d="M198.05 124.163C199.218 125.094 200.202 126.813 200.291 128.242C200.391 129.863 199.311 130.508 197.873 129.648C196.446 128.796 195.189 126.767 195.088 125.146C195.054 124.597 195.172 124.114 195.385 123.799L197.413 120.71L198.269 121.221L196.71 123.509C197.094 123.579 197.572 123.779 198.05 124.163ZM197.821 128.806C198.831 129.41 199.595 128.944 199.522 127.783C199.45 126.621 198.568 125.185 197.558 124.582C196.549 123.978 195.784 124.431 195.856 125.592C195.928 126.753 196.8 128.196 197.821 128.806Z" fill="#C49936"/>
</g>
<path d="M104.466 126.648L111.932 125.849L112.069 127.172L102.263 128.221L102.128 126.919C105.229 124.488 109.336 121.044 108.945 117.279C108.76 115.488 107.645 114.455 105.814 114.651C103.657 114.882 102.843 116.554 103.04 118.652L101.646 118.698C101.357 115.91 102.745 113.622 105.674 113.308C108.197 113.038 110.089 114.42 110.371 117.147C110.747 120.77 107.832 124.003 104.466 126.648ZM118.852 126.651C115.068 127.056 113.91 123.229 113.56 119.851C113.21 116.473 113.515 112.469 117.197 112.075C120.553 111.716 122.07 115.031 122.473 118.918C122.876 122.805 122.087 126.305 118.852 126.651ZM118.672 125.312C120.971 125.066 121.298 122.274 120.965 119.059C120.625 115.782 119.716 113.163 117.336 113.418C114.854 113.684 114.688 116.644 115.004 119.697C115.315 122.688 116.088 125.589 118.672 125.312Z" fill="#BA9847"/>
<path d="M65.228 106.032L67.7941 101.019L68.6848 101.468L65.3145 108.052L64.4376 107.61C64.1797 104.679 63.6964 100.706 61.1615 99.4285C59.9557 98.8206 58.8458 99.1031 58.2165 100.332C57.4753 101.78 58.1947 102.968 59.5991 103.693L59.0551 104.587C57.1779 103.641 56.3052 101.843 57.3121 99.8765C58.1791 98.1828 59.8286 97.5536 61.6647 98.4793C64.1037 99.7088 64.9446 102.848 65.228 106.032Z" fill="#BA9847"/>
<path d="M122.103 175.251C123.911 174.992 125.833 175.77 126.126 177.852C126.314 179.189 125.712 180.314 124.54 180.901C125.433 181.191 126.097 181.949 126.244 182.997C126.481 184.684 125.114 185.872 123.61 186.088C121.985 186.321 120.484 185.452 120.251 183.795C120.106 182.762 120.568 181.859 121.32 181.363C120.047 181.127 119.172 180.199 118.987 178.877C118.694 176.795 120.296 175.511 122.103 175.251ZM122.957 181.438C121.818 181.602 121.115 182.447 121.273 183.571C121.421 184.62 122.33 185.249 123.47 185.085C124.518 184.935 125.337 184.151 125.183 183.056C125.019 181.886 124.112 181.273 122.957 181.438ZM122.244 176.254C120.908 176.446 119.825 177.345 120.03 178.804C120.225 180.187 121.396 180.918 122.87 180.707C124.358 180.493 125.283 179.461 125.088 178.078C124.883 176.62 123.596 176.06 122.244 176.254Z" fill="#9F7F33"/>
<path d="M162.043 86.7261L162.72 87.5408L154.466 94.3429L153.789 93.5283L159.912 88.4828L158.206 86.4284L159.012 85.7648L160.148 87.1344C160.492 87.5476 160.859 87.7021 161.345 87.3019L162.043 86.7261ZM163.46 99.6043L164.568 100.938L163.786 101.583L162.679 100.248L160.713 101.868L160.037 101.054L162.003 99.4337L158.582 95.3131L159.115 94.874L168.34 94.3107L168.967 95.0663L163.46 99.6043ZM160.265 95.7553L162.784 98.7896L167.059 95.2666L160.265 95.7553Z" fill="#BA9847"/>
<path d="M142.26 56.7147L143.988 56.8607L144.934 57.2217L143.206 57.0757L145.586 57.9834L144.531 57.8942L142.151 56.9865L136.815 56.5356L136.169 56.2895L134.614 54.0893L135.593 54.172L142.26 56.7147ZM137.275 56.2935L141.205 56.6256L136.029 54.6515L137.275 56.2935Z" fill="#CFB77E"/>
</g>
<defs>
<filter id="filter0_d_4_18006" x="32.1593" y="37.1855" width="185.056" height="182.675" filterUnits="userSpaceOnUse" color-interpolation-filters="sRGB">
<feFlood flood-opacity="0" result="BackgroundImageFix"/>
<feColorMatrix in="SourceAlpha" type="matrix" values="0 0 0 0 0 0 0 0 0 0 0 0 0 0 0 0 0 0 127 0" result="hardAlpha"/>
<feOffset dy="4"/>
<feGaussianBlur stdDeviation="2"/>
<feComposite in2="hardAlpha" operator="out"/>
<feColorMatrix type="matrix" values="0 0 0 0 0 0 0 0 0 0 0 0 0 0 0 0 0 0 0.25 0"/>
<feBlend mode="normal" in2="BackgroundImageFix" result="effect1_dropShadow_4_18006"/>
<feBlend mode="normal" in="SourceGraphic" in2="effect1_dropShadow_4_18006" result="shape"/>
</filter>
</defs>
</svg>
