<svg width="32" height="32" viewBox="0 0 32 32" fill="none" xmlns="http://www.w3.org/2000/svg">
<path d="M5.3335 9.33333C5.3335 8.59695 5.93045 8 6.66683 8H25.3335C26.0699 8 26.6668 8.59695 26.6668 9.33333C26.6668 10.0697 26.0699 10.6667 25.3335 10.6667H6.66683C5.93045 10.6667 5.3335 10.0697 5.3335 9.33333ZM5.3335 16C5.3335 15.2636 5.93045 14.6667 6.66683 14.6667H25.3335C26.0699 14.6667 26.6668 15.2636 26.6668 16C26.6668 16.7364 26.0699 17.3333 25.3335 17.3333H6.66683C5.93045 17.3333 5.3335 16.7364 5.3335 16ZM5.3335 22.6667C5.3335 21.9303 5.93045 21.3333 6.66683 21.3333H25.3335C26.0699 21.3333 26.6668 21.9303 26.6668 22.6667C26.6668 23.403 26.0699 24 25.3335 24H6.66683C5.93045 24 5.3335 23.403 5.3335 22.6667Z" fill="#DB693B"/>
</svg>
