<svg width="232" height="247" viewBox="0 0 232 247" fill="none" xmlns="http://www.w3.org/2000/svg">
<g filter="url(#filter0_d_10271_9633)">
<g filter="url(#filter1_i_10271_9633)">
<path d="M138.181 52.4663C144.591 45.8248 155.839 49.7489 156.726 58.9361L160.429 97.2744C160.809 101.201 163.296 104.609 166.92 106.168L201.585 121.081C210.498 124.915 210.242 137.64 201.182 141.112L165.755 154.69C162.044 156.113 159.412 159.457 158.901 163.399L153.806 202.724C152.586 212.142 140.687 215.526 134.694 208.159L111.03 179.075C108.455 175.909 104.318 174.463 100.332 175.335L61.7867 183.766C52.4136 185.816 45.2116 175.551 50.3282 167.435L70.247 135.838C72.297 132.586 72.4666 128.49 70.6923 125.08L52.7584 90.6103C48.539 82.5005 55.6615 73.139 64.603 75.0423L101.701 82.939C105.35 83.7158 109.142 82.5564 111.733 79.8715L138.181 52.4663Z" fill="#936467"/>
</g>
<g filter="url(#filter2_i_10271_9633)">
<path d="M137.704 60.3349C142.51 55.3817 150.913 58.3134 151.595 65.1814L155.241 101.895C155.533 104.833 157.398 107.38 160.111 108.546L193.831 123.031C200.531 125.909 200.324 135.48 193.506 138.066L159.223 151.069C156.422 152.131 154.435 154.65 154.054 157.621L149.236 195.22C148.332 202.278 139.425 204.833 134.917 199.327L111.845 171.153C109.918 168.799 106.836 167.722 103.862 168.363L66.5202 176.407C59.4915 177.921 54.1143 170.219 57.9582 164.143L77.1858 133.75C78.7352 131.301 78.8601 128.211 77.5134 125.645L60.3238 92.8899C57.13 86.8041 62.4795 79.7532 69.2007 81.1899L104.786 88.7964C107.517 89.3802 110.357 88.5176 112.302 86.5132L137.704 60.3349Z" fill="#A72872"/>
</g>
<g opacity="0.52" filter="url(#filter3_f_10271_9633)">
<path d="M63.5462 163.969L83.3566 131.447C84.1686 130.114 84.2328 128.456 83.5262 127.064L66.1813 92.896C64.4811 89.5468 67.3843 85.7099 71.0695 86.4355L108.225 93.7517C109.707 94.0436 111.237 93.5732 112.299 92.4989L138.788 65.7091C141.477 62.9893 146.119 64.646 146.478 68.454L150.032 106.12C150.184 107.738 151.196 109.148 152.68 109.811L188.353 125.744C192.019 127.381 191.874 132.635 188.122 134.067L151.79 147.94C150.254 148.526 149.159 149.904 148.934 151.534L143.464 191.207C142.927 195.1 138.012 196.488 135.518 193.451L111.331 163.994C110.261 162.691 108.553 162.094 106.904 162.448L68.3391 170.719C64.4713 171.548 61.4883 167.348 63.5462 163.969Z" stroke="#BA78D9" stroke-width="5.40693" stroke-linejoin="round"/>
</g>
<g filter="url(#filter4_i_10271_9633)">
<path d="M140.085 66.5922C141.984 64.6077 145.336 65.7771 145.589 68.5121L149.234 107.986C149.342 109.154 150.079 110.169 151.155 110.633L187.957 126.502C190.587 127.636 190.521 131.388 187.852 132.428L150.118 147.129C149.03 147.553 148.258 148.537 148.106 149.695L142.706 190.667C142.338 193.46 138.803 194.452 137.036 192.258L112.286 161.522C111.52 160.572 110.282 160.139 109.091 160.406L68.9674 169.391C66.1905 170.013 64.0421 166.975 65.5537 164.564L86.7263 130.793C87.3263 129.836 87.3779 128.634 86.8622 127.629L68.7998 92.4331C67.5682 90.0333 69.673 87.279 72.312 87.837L110.029 95.8122C111.113 96.0415 112.239 95.6938 113.006 94.8929L140.085 66.5922Z" fill="#ECC1FF"/>
</g>
<g filter="url(#filter5_d_10271_9633)">
<mask id="mask0_10271_9633" style="mask-type:alpha" maskUnits="userSpaceOnUse" x="100" y="129" width="7" height="7">
<ellipse cx="103.681" cy="132.605" rx="2.99084" ry="2.94079" transform="rotate(-15 103.681 132.605)" fill="#FFF7F8"/>
</mask>
<g mask="url(#mask0_10271_9633)">
<ellipse cx="103.681" cy="132.605" rx="2.99084" ry="2.94079" transform="rotate(-15 103.681 132.605)" fill="#AF4CA1"/>
<g filter="url(#filter6_f_10271_9633)">
<ellipse cx="104.461" cy="130.846" rx="1.53964" ry="1.51388" transform="rotate(-15 104.461 130.846)" fill="white"/>
</g>
</g>
</g>
<g filter="url(#filter7_d_10271_9633)">
<mask id="mask1_10271_9633" style="mask-type:alpha" maskUnits="userSpaceOnUse" x="82" y="98" width="7" height="7">
<ellipse cx="85.6549" cy="101.858" rx="2.99084" ry="2.94079" transform="rotate(-15 85.6549 101.858)" fill="#FFF7F8"/>
</mask>
<g mask="url(#mask1_10271_9633)">
<ellipse cx="85.6549" cy="101.858" rx="2.99084" ry="2.94079" transform="rotate(-15 85.6549 101.858)" fill="#AF4CA1"/>
<g filter="url(#filter8_f_10271_9633)">
<ellipse cx="86.435" cy="100.098" rx="1.53964" ry="1.51388" transform="rotate(-15 86.435 100.098)" fill="white"/>
</g>
</g>
</g>
<g filter="url(#filter9_d_10271_9633)">
<mask id="mask2_10271_9633" style="mask-type:alpha" maskUnits="userSpaceOnUse" x="115" y="145" width="7" height="7">
<ellipse cx="118.098" cy="148.762" rx="2.99084" ry="2.94079" transform="rotate(-15 118.098 148.762)" fill="#FFF7F8"/>
</mask>
<g mask="url(#mask2_10271_9633)">
<ellipse cx="118.098" cy="148.762" rx="2.99084" ry="2.94079" transform="rotate(-15 118.098 148.762)" fill="#AF4CA1"/>
<g filter="url(#filter10_f_10271_9633)">
<ellipse cx="118.878" cy="147.003" rx="1.53964" ry="1.51388" transform="rotate(-15 118.878 147.003)" fill="white"/>
</g>
</g>
</g>
<g filter="url(#filter11_d_10271_9633)">
<mask id="mask3_10271_9633" style="mask-type:alpha" maskUnits="userSpaceOnUse" x="138" y="105" width="7" height="7">
<ellipse cx="141.527" cy="108.165" rx="2.99084" ry="2.94079" transform="rotate(-15 141.527 108.165)" fill="#FFF7F8"/>
</mask>
<g mask="url(#mask3_10271_9633)">
<ellipse cx="141.527" cy="108.165" rx="2.99084" ry="2.94079" transform="rotate(-15 141.527 108.165)" fill="#AF4CA1"/>
<g filter="url(#filter12_f_10271_9633)">
<ellipse cx="142.307" cy="106.408" rx="1.53964" ry="1.51388" transform="rotate(-15 142.307 106.408)" fill="white"/>
</g>
</g>
</g>
<g filter="url(#filter13_d_10271_9633)">
<mask id="mask4_10271_9633" style="mask-type:alpha" maskUnits="userSpaceOnUse" x="134" y="80" width="7" height="7">
<ellipse cx="137.922" cy="83.8331" rx="2.99084" ry="2.94079" transform="rotate(-15 137.922 83.8331)" fill="#FFF7F8"/>
</mask>
<g mask="url(#mask4_10271_9633)">
<ellipse cx="137.922" cy="83.8331" rx="2.99084" ry="2.94079" transform="rotate(-15 137.922 83.8331)" fill="#AF4CA1"/>
<g filter="url(#filter14_f_10271_9633)">
<ellipse cx="138.702" cy="82.0745" rx="1.53964" ry="1.51388" transform="rotate(-15 138.702 82.0745)" fill="white"/>
</g>
</g>
</g>
<g filter="url(#filter15_d_10271_9633)">
<mask id="mask5_10271_9633" style="mask-type:alpha" maskUnits="userSpaceOnUse" x="84" y="151" width="7" height="7">
<ellipse cx="87.4587" cy="154.174" rx="2.99084" ry="2.94079" transform="rotate(-15 87.4587 154.174)" fill="#FFF7F8"/>
</mask>
<g mask="url(#mask5_10271_9633)">
<ellipse cx="87.4587" cy="154.174" rx="2.99084" ry="2.94079" transform="rotate(-15 87.4587 154.174)" fill="#AF4CA1"/>
<g filter="url(#filter16_f_10271_9633)">
<ellipse cx="88.2391" cy="152.415" rx="1.53964" ry="1.51388" transform="rotate(-15 88.2391 152.415)" fill="white"/>
</g>
</g>
</g>
<g filter="url(#filter17_d_10271_9633)">
<mask id="mask6_10271_9633" style="mask-type:alpha" maskUnits="userSpaceOnUse" x="164" y="128" width="7" height="7">
<ellipse cx="167.661" cy="131.596" rx="2.99084" ry="2.94079" transform="rotate(-15 167.661 131.596)" fill="#FFF7F8"/>
</mask>
<g mask="url(#mask6_10271_9633)">
<ellipse cx="167.661" cy="131.596" rx="2.99084" ry="2.94079" transform="rotate(-15 167.661 131.596)" fill="#AF4CA1"/>
<g filter="url(#filter18_f_10271_9633)">
<ellipse cx="168.441" cy="129.836" rx="1.53964" ry="1.51388" transform="rotate(-15 168.441 129.836)" fill="white"/>
</g>
</g>
</g>
<g filter="url(#filter19_d_10271_9633)">
<mask id="mask7_10271_9633" style="mask-type:alpha" maskUnits="userSpaceOnUse" x="134" y="142" width="7" height="7">
<ellipse cx="137.922" cy="145.156" rx="2.99084" ry="2.94079" transform="rotate(-15 137.922 145.156)" fill="#FFF7F8"/>
</mask>
<g mask="url(#mask7_10271_9633)">
<ellipse cx="137.922" cy="145.156" rx="2.99084" ry="2.94079" transform="rotate(-15 137.922 145.156)" fill="#AF4CA1"/>
<g filter="url(#filter20_f_10271_9633)">
<ellipse cx="138.702" cy="143.398" rx="1.53964" ry="1.51388" transform="rotate(-15 138.702 143.398)" fill="white"/>
</g>
</g>
</g>
<g filter="url(#filter21_d_10271_9633)">
<mask id="mask8_10271_9633" style="mask-type:alpha" maskUnits="userSpaceOnUse" x="129" y="163" width="7" height="7">
<ellipse cx="132.515" cy="166.777" rx="2.99084" ry="2.94079" transform="rotate(-15 132.515 166.777)" fill="#FFF7F8"/>
</mask>
<g mask="url(#mask8_10271_9633)">
<ellipse cx="132.515" cy="166.777" rx="2.99084" ry="2.94079" transform="rotate(-15 132.515 166.777)" fill="#AF4CA1"/>
<g filter="url(#filter22_f_10271_9633)">
<ellipse cx="133.296" cy="165.02" rx="1.53964" ry="1.51388" transform="rotate(-15 133.296 165.02)" fill="white"/>
</g>
</g>
</g>
<g filter="url(#filter23_d_10271_9633)">
<mask id="mask9_10271_9633" style="mask-type:alpha" maskUnits="userSpaceOnUse" x="125" y="95" width="6" height="7">
<ellipse cx="128.01" cy="98.2521" rx="2.99084" ry="2.94079" transform="rotate(-15 128.01 98.2521)" fill="#FFF7F8"/>
</mask>
<g mask="url(#mask9_10271_9633)">
<ellipse cx="128.01" cy="98.2521" rx="2.99084" ry="2.94079" transform="rotate(-15 128.01 98.2521)" fill="#AF4CA1"/>
<g filter="url(#filter24_f_10271_9633)">
<ellipse cx="128.79" cy="96.4935" rx="1.53964" ry="1.51388" transform="rotate(-15 128.79 96.4935)" fill="white"/>
</g>
</g>
</g>
<path d="M101.793 119.557L91.9462 116.531L92.4622 114.852L93.1654 115C93.579 115.081 93.8388 114.95 93.945 114.604L96.9071 104.964L95.7446 104.539L96.286 102.777L105.781 105.694L104.723 109.136L102.564 108.631L102.819 107.802C102.891 107.567 102.908 107.39 102.868 107.272C102.829 107.154 102.678 107.055 102.415 106.974L99.3471 106.031L98.2578 109.577L103.047 111.048L102.397 113.163L97.6081 111.691L96.4169 115.568L99.7546 116.593C100.003 116.67 100.177 116.67 100.276 116.595C100.379 116.505 100.467 116.343 100.539 116.108L100.857 115.072L102.927 115.867L101.793 119.557ZM104.742 117.922L111.049 109.287L109.781 108.761L110.297 107.082L115.044 108.541L115.598 121.802L115.618 121.808L116.781 122.234L116.24 123.996L110.891 122.352L111.407 120.673L112.214 120.853C112.457 120.897 112.633 120.891 112.742 120.834C112.85 120.776 112.904 120.626 112.902 120.384L112.862 118.965L108.011 117.474L106.828 119.107L108.053 119.552L107.512 121.314L102.723 119.842L103.239 118.163L103.942 118.311C104.241 118.373 104.508 118.243 104.742 117.922ZM112.838 110.404L109.095 115.72L112.951 116.905L112.9 110.423L112.838 110.404ZM120.121 122.647L123.013 113.235L121.396 112.738C121.078 112.641 120.853 112.806 120.721 113.235L120.422 114.209L118.352 113.414L119.435 109.89L130.277 113.221L129.194 116.746L127.035 116.241L127.335 115.267C127.407 115.032 127.423 114.855 127.384 114.737C127.344 114.619 127.193 114.52 126.931 114.439L125.521 114.006L122.476 123.916L124.095 124.481L123.553 126.243L117.707 124.447L118.223 122.768L119.341 123.043C119.755 123.125 120.014 122.993 120.121 122.647ZM139.874 116.17L140.519 126.624L140.561 126.636L146.985 118.355L151.09 119.617L150.574 121.296L149.871 121.148C149.443 121.062 149.169 121.242 149.046 121.689L146.647 131.343L147.913 131.8L147.372 133.562L142.376 132.027L142.892 130.348L143.657 130.515C144.039 130.602 144.274 130.477 144.362 130.141L146.217 122.702L146.175 122.689L140.441 129.98L138.471 129.375L137.836 120.218L137.795 120.205L135.017 127.769L136.345 128.245L135.804 130.007L130.911 128.504L131.427 126.825L132.193 126.992C132.519 127.062 132.749 126.929 132.883 126.592L136.405 117.124L135.166 116.652L135.707 114.89L139.874 116.17ZM158.338 136.932L148.491 133.906L149.007 132.227L149.71 132.375C150.124 132.456 150.384 132.324 150.49 131.979L153.452 122.339L152.289 121.914L152.831 120.152L162.326 123.069L161.268 126.51L159.109 126.006L159.364 125.177C159.436 124.942 159.453 124.765 159.413 124.647C159.374 124.529 159.223 124.43 158.96 124.349L155.892 123.406L154.803 126.951L159.592 128.423L158.942 130.538L154.153 129.066L152.962 132.943L156.299 133.968C156.548 134.045 156.722 134.045 156.821 133.97C156.924 133.88 157.012 133.718 157.084 133.483L157.402 132.447L159.472 133.242L158.338 136.932Z" fill="#662D61"/>
</g>
<defs>
<filter id="filter0_d_10271_9633" x="45.0246" y="49.1475" width="166.705" height="170.222" filterUnits="userSpaceOnUse" color-interpolation-filters="sRGB">
<feFlood flood-opacity="0" result="BackgroundImageFix"/>
<feColorMatrix in="SourceAlpha" type="matrix" values="0 0 0 0 0 0 0 0 0 0 0 0 0 0 0 0 0 0 127 0" result="hardAlpha"/>
<feOffset dy="3.60462"/>
<feGaussianBlur stdDeviation="1.80231"/>
<feComposite in2="hardAlpha" operator="out"/>
<feColorMatrix type="matrix" values="0 0 0 0 0 0 0 0 0 0 0 0 0 0 0 0 0 0 0.25 0"/>
<feBlend mode="normal" in2="BackgroundImageFix" result="effect1_dropShadow_10271_9633"/>
<feBlend mode="normal" in="SourceGraphic" in2="effect1_dropShadow_10271_9633" result="shape"/>
</filter>
<filter id="filter1_i_10271_9633" x="48.6292" y="49.1475" width="159.496" height="163.013" filterUnits="userSpaceOnUse" color-interpolation-filters="sRGB">
<feFlood flood-opacity="0" result="BackgroundImageFix"/>
<feBlend mode="normal" in="SourceGraphic" in2="BackgroundImageFix" result="shape"/>
<feColorMatrix in="SourceAlpha" type="matrix" values="0 0 0 0 0 0 0 0 0 0 0 0 0 0 0 0 0 0 127 0" result="hardAlpha"/>
<feOffset/>
<feGaussianBlur stdDeviation="2.70346"/>
<feComposite in2="hardAlpha" operator="arithmetic" k2="-1" k3="1"/>
<feColorMatrix type="matrix" values="0 0 0 0 0.404748 0 0 0 0 0.092704 0 0 0 0 0.115316 0 0 0 1 0"/>
<feBlend mode="normal" in2="shape" result="effect1_innerShadow_10271_9633"/>
</filter>
<filter id="filter2_i_10271_9633" x="56.6772" y="57.8613" width="142.063" height="144.447" filterUnits="userSpaceOnUse" color-interpolation-filters="sRGB">
<feFlood flood-opacity="0" result="BackgroundImageFix"/>
<feBlend mode="normal" in="SourceGraphic" in2="BackgroundImageFix" result="shape"/>
<feColorMatrix in="SourceAlpha" type="matrix" values="0 0 0 0 0 0 0 0 0 0 0 0 0 0 0 0 0 0 127 0" result="hardAlpha"/>
<feOffset/>
<feGaussianBlur stdDeviation="2.70346"/>
<feComposite in2="hardAlpha" operator="arithmetic" k2="-1" k3="1"/>
<feColorMatrix type="matrix" values="0 0 0 0 0.513726 0 0 0 0 0.168627 0 0 0 0 0.368627 0 0 0 1 0"/>
<feBlend mode="normal" in2="shape" result="effect1_innerShadow_10271_9633"/>
</filter>
<filter id="filter3_f_10271_9633" x="57.4605" y="58.9547" width="138.967" height="141.557" filterUnits="userSpaceOnUse" color-interpolation-filters="sRGB">
<feFlood flood-opacity="0" result="BackgroundImageFix"/>
<feBlend mode="normal" in="SourceGraphic" in2="BackgroundImageFix" result="shape"/>
<feGaussianBlur stdDeviation="1.35173" result="effect1_foregroundBlur_10271_9633"/>
</filter>
<filter id="filter4_i_10271_9633" x="65.0546" y="65.5996" width="126.64" height="127.855" filterUnits="userSpaceOnUse" color-interpolation-filters="sRGB">
<feFlood flood-opacity="0" result="BackgroundImageFix"/>
<feBlend mode="normal" in="SourceGraphic" in2="BackgroundImageFix" result="shape"/>
<feColorMatrix in="SourceAlpha" type="matrix" values="0 0 0 0 0 0 0 0 0 0 0 0 0 0 0 0 0 0 127 0" result="hardAlpha"/>
<feOffset dx="1.80231"/>
<feGaussianBlur stdDeviation="1.35173"/>
<feComposite in2="hardAlpha" operator="arithmetic" k2="-1" k3="1"/>
<feColorMatrix type="matrix" values="0 0 0 0 0.684731 0 0 0 0 0.469141 0 0 0 0 0.779992 0 0 0 1 0"/>
<feBlend mode="normal" in2="shape" result="effect1_innerShadow_10271_9633"/>
</filter>
<filter id="filter5_d_10271_9633" x="98.8902" y="128.759" width="9.58112" height="9.49427" filterUnits="userSpaceOnUse" color-interpolation-filters="sRGB">
<feFlood flood-opacity="0" result="BackgroundImageFix"/>
<feColorMatrix in="SourceAlpha" type="matrix" values="0 0 0 0 0 0 0 0 0 0 0 0 0 0 0 0 0 0 127 0" result="hardAlpha"/>
<feOffset dy="0.901155"/>
<feGaussianBlur stdDeviation="0.901155"/>
<feComposite in2="hardAlpha" operator="out"/>
<feColorMatrix type="matrix" values="0 0 0 0 0.649223 0 0 0 0 0.438999 0 0 0 0 0.742112 0 0 0 1 0"/>
<feBlend mode="normal" in2="BackgroundImageFix" result="effect1_dropShadow_10271_9633"/>
<feBlend mode="normal" in="SourceGraphic" in2="effect1_dropShadow_10271_9633" result="shape"/>
</filter>
<filter id="filter6_f_10271_9633" x="100.219" y="126.627" width="8.48353" height="8.43916" filterUnits="userSpaceOnUse" color-interpolation-filters="sRGB">
<feFlood flood-opacity="0" result="BackgroundImageFix"/>
<feBlend mode="normal" in="SourceGraphic" in2="BackgroundImageFix" result="shape"/>
<feGaussianBlur stdDeviation="1.35173" result="effect1_foregroundBlur_10271_9633"/>
</filter>
<filter id="filter7_d_10271_9633" x="80.8643" y="98.0119" width="9.58112" height="9.49427" filterUnits="userSpaceOnUse" color-interpolation-filters="sRGB">
<feFlood flood-opacity="0" result="BackgroundImageFix"/>
<feColorMatrix in="SourceAlpha" type="matrix" values="0 0 0 0 0 0 0 0 0 0 0 0 0 0 0 0 0 0 127 0" result="hardAlpha"/>
<feOffset dy="0.901155"/>
<feGaussianBlur stdDeviation="0.901155"/>
<feComposite in2="hardAlpha" operator="out"/>
<feColorMatrix type="matrix" values="0 0 0 0 0.649223 0 0 0 0 0.438999 0 0 0 0 0.742112 0 0 0 1 0"/>
<feBlend mode="normal" in2="BackgroundImageFix" result="effect1_dropShadow_10271_9633"/>
<feBlend mode="normal" in="SourceGraphic" in2="effect1_dropShadow_10271_9633" result="shape"/>
</filter>
<filter id="filter8_f_10271_9633" x="82.1932" y="95.8786" width="8.48353" height="8.43916" filterUnits="userSpaceOnUse" color-interpolation-filters="sRGB">
<feFlood flood-opacity="0" result="BackgroundImageFix"/>
<feBlend mode="normal" in="SourceGraphic" in2="BackgroundImageFix" result="shape"/>
<feGaussianBlur stdDeviation="1.35173" result="effect1_foregroundBlur_10271_9633"/>
</filter>
<filter id="filter9_d_10271_9633" x="113.308" y="144.916" width="9.58112" height="9.49427" filterUnits="userSpaceOnUse" color-interpolation-filters="sRGB">
<feFlood flood-opacity="0" result="BackgroundImageFix"/>
<feColorMatrix in="SourceAlpha" type="matrix" values="0 0 0 0 0 0 0 0 0 0 0 0 0 0 0 0 0 0 127 0" result="hardAlpha"/>
<feOffset dy="0.901155"/>
<feGaussianBlur stdDeviation="0.901155"/>
<feComposite in2="hardAlpha" operator="out"/>
<feColorMatrix type="matrix" values="0 0 0 0 0.649223 0 0 0 0 0.438999 0 0 0 0 0.742112 0 0 0 1 0"/>
<feBlend mode="normal" in2="BackgroundImageFix" result="effect1_dropShadow_10271_9633"/>
<feBlend mode="normal" in="SourceGraphic" in2="effect1_dropShadow_10271_9633" result="shape"/>
</filter>
<filter id="filter10_f_10271_9633" x="114.637" y="142.784" width="8.48353" height="8.43916" filterUnits="userSpaceOnUse" color-interpolation-filters="sRGB">
<feFlood flood-opacity="0" result="BackgroundImageFix"/>
<feBlend mode="normal" in="SourceGraphic" in2="BackgroundImageFix" result="shape"/>
<feGaussianBlur stdDeviation="1.35173" result="effect1_foregroundBlur_10271_9633"/>
</filter>
<filter id="filter11_d_10271_9633" x="136.736" y="104.32" width="9.58112" height="9.49427" filterUnits="userSpaceOnUse" color-interpolation-filters="sRGB">
<feFlood flood-opacity="0" result="BackgroundImageFix"/>
<feColorMatrix in="SourceAlpha" type="matrix" values="0 0 0 0 0 0 0 0 0 0 0 0 0 0 0 0 0 0 127 0" result="hardAlpha"/>
<feOffset dy="0.901155"/>
<feGaussianBlur stdDeviation="0.901155"/>
<feComposite in2="hardAlpha" operator="out"/>
<feColorMatrix type="matrix" values="0 0 0 0 0.649223 0 0 0 0 0.438999 0 0 0 0 0.742112 0 0 0 1 0"/>
<feBlend mode="normal" in2="BackgroundImageFix" result="effect1_dropShadow_10271_9633"/>
<feBlend mode="normal" in="SourceGraphic" in2="effect1_dropShadow_10271_9633" result="shape"/>
</filter>
<filter id="filter12_f_10271_9633" x="138.065" y="102.188" width="8.48354" height="8.43916" filterUnits="userSpaceOnUse" color-interpolation-filters="sRGB">
<feFlood flood-opacity="0" result="BackgroundImageFix"/>
<feBlend mode="normal" in="SourceGraphic" in2="BackgroundImageFix" result="shape"/>
<feGaussianBlur stdDeviation="1.35173" result="effect1_foregroundBlur_10271_9633"/>
</filter>
<filter id="filter13_d_10271_9633" x="133.132" y="79.9875" width="9.58112" height="9.49427" filterUnits="userSpaceOnUse" color-interpolation-filters="sRGB">
<feFlood flood-opacity="0" result="BackgroundImageFix"/>
<feColorMatrix in="SourceAlpha" type="matrix" values="0 0 0 0 0 0 0 0 0 0 0 0 0 0 0 0 0 0 127 0" result="hardAlpha"/>
<feOffset dy="0.901155"/>
<feGaussianBlur stdDeviation="0.901155"/>
<feComposite in2="hardAlpha" operator="out"/>
<feColorMatrix type="matrix" values="0 0 0 0 0.649223 0 0 0 0 0.438999 0 0 0 0 0.742112 0 0 0 1 0"/>
<feBlend mode="normal" in2="BackgroundImageFix" result="effect1_dropShadow_10271_9633"/>
<feBlend mode="normal" in="SourceGraphic" in2="effect1_dropShadow_10271_9633" result="shape"/>
</filter>
<filter id="filter14_f_10271_9633" x="134.46" y="77.8551" width="8.48354" height="8.43916" filterUnits="userSpaceOnUse" color-interpolation-filters="sRGB">
<feFlood flood-opacity="0" result="BackgroundImageFix"/>
<feBlend mode="normal" in="SourceGraphic" in2="BackgroundImageFix" result="shape"/>
<feGaussianBlur stdDeviation="1.35173" result="effect1_foregroundBlur_10271_9633"/>
</filter>
<filter id="filter15_d_10271_9633" x="82.6682" y="150.328" width="9.58112" height="9.49427" filterUnits="userSpaceOnUse" color-interpolation-filters="sRGB">
<feFlood flood-opacity="0" result="BackgroundImageFix"/>
<feColorMatrix in="SourceAlpha" type="matrix" values="0 0 0 0 0 0 0 0 0 0 0 0 0 0 0 0 0 0 127 0" result="hardAlpha"/>
<feOffset dy="0.901155"/>
<feGaussianBlur stdDeviation="0.901155"/>
<feComposite in2="hardAlpha" operator="out"/>
<feColorMatrix type="matrix" values="0 0 0 0 0.649223 0 0 0 0 0.438999 0 0 0 0 0.742112 0 0 0 1 0"/>
<feBlend mode="normal" in2="BackgroundImageFix" result="effect1_dropShadow_10271_9633"/>
<feBlend mode="normal" in="SourceGraphic" in2="effect1_dropShadow_10271_9633" result="shape"/>
</filter>
<filter id="filter16_f_10271_9633" x="83.9973" y="148.196" width="8.48353" height="8.43916" filterUnits="userSpaceOnUse" color-interpolation-filters="sRGB">
<feFlood flood-opacity="0" result="BackgroundImageFix"/>
<feBlend mode="normal" in="SourceGraphic" in2="BackgroundImageFix" result="shape"/>
<feGaussianBlur stdDeviation="1.35173" result="effect1_foregroundBlur_10271_9633"/>
</filter>
<filter id="filter17_d_10271_9633" x="162.87" y="127.75" width="9.58112" height="9.49427" filterUnits="userSpaceOnUse" color-interpolation-filters="sRGB">
<feFlood flood-opacity="0" result="BackgroundImageFix"/>
<feColorMatrix in="SourceAlpha" type="matrix" values="0 0 0 0 0 0 0 0 0 0 0 0 0 0 0 0 0 0 127 0" result="hardAlpha"/>
<feOffset dy="0.901155"/>
<feGaussianBlur stdDeviation="0.901155"/>
<feComposite in2="hardAlpha" operator="out"/>
<feColorMatrix type="matrix" values="0 0 0 0 0.649223 0 0 0 0 0.438999 0 0 0 0 0.742112 0 0 0 1 0"/>
<feBlend mode="normal" in2="BackgroundImageFix" result="effect1_dropShadow_10271_9633"/>
<feBlend mode="normal" in="SourceGraphic" in2="effect1_dropShadow_10271_9633" result="shape"/>
</filter>
<filter id="filter18_f_10271_9633" x="164.199" y="125.617" width="8.48354" height="8.43916" filterUnits="userSpaceOnUse" color-interpolation-filters="sRGB">
<feFlood flood-opacity="0" result="BackgroundImageFix"/>
<feBlend mode="normal" in="SourceGraphic" in2="BackgroundImageFix" result="shape"/>
<feGaussianBlur stdDeviation="1.35173" result="effect1_foregroundBlur_10271_9633"/>
</filter>
<filter id="filter19_d_10271_9633" x="133.132" y="141.311" width="9.58112" height="9.49427" filterUnits="userSpaceOnUse" color-interpolation-filters="sRGB">
<feFlood flood-opacity="0" result="BackgroundImageFix"/>
<feColorMatrix in="SourceAlpha" type="matrix" values="0 0 0 0 0 0 0 0 0 0 0 0 0 0 0 0 0 0 127 0" result="hardAlpha"/>
<feOffset dy="0.901155"/>
<feGaussianBlur stdDeviation="0.901155"/>
<feComposite in2="hardAlpha" operator="out"/>
<feColorMatrix type="matrix" values="0 0 0 0 0.649223 0 0 0 0 0.438999 0 0 0 0 0.742112 0 0 0 1 0"/>
<feBlend mode="normal" in2="BackgroundImageFix" result="effect1_dropShadow_10271_9633"/>
<feBlend mode="normal" in="SourceGraphic" in2="effect1_dropShadow_10271_9633" result="shape"/>
</filter>
<filter id="filter20_f_10271_9633" x="134.461" y="139.178" width="8.48354" height="8.43916" filterUnits="userSpaceOnUse" color-interpolation-filters="sRGB">
<feFlood flood-opacity="0" result="BackgroundImageFix"/>
<feBlend mode="normal" in="SourceGraphic" in2="BackgroundImageFix" result="shape"/>
<feGaussianBlur stdDeviation="1.35173" result="effect1_foregroundBlur_10271_9633"/>
</filter>
<filter id="filter21_d_10271_9633" x="127.725" y="162.932" width="9.58112" height="9.49427" filterUnits="userSpaceOnUse" color-interpolation-filters="sRGB">
<feFlood flood-opacity="0" result="BackgroundImageFix"/>
<feColorMatrix in="SourceAlpha" type="matrix" values="0 0 0 0 0 0 0 0 0 0 0 0 0 0 0 0 0 0 127 0" result="hardAlpha"/>
<feOffset dy="0.901155"/>
<feGaussianBlur stdDeviation="0.901155"/>
<feComposite in2="hardAlpha" operator="out"/>
<feColorMatrix type="matrix" values="0 0 0 0 0.649223 0 0 0 0 0.438999 0 0 0 0 0.742112 0 0 0 1 0"/>
<feBlend mode="normal" in2="BackgroundImageFix" result="effect1_dropShadow_10271_9633"/>
<feBlend mode="normal" in="SourceGraphic" in2="effect1_dropShadow_10271_9633" result="shape"/>
</filter>
<filter id="filter22_f_10271_9633" x="129.054" y="160.8" width="8.48354" height="8.43916" filterUnits="userSpaceOnUse" color-interpolation-filters="sRGB">
<feFlood flood-opacity="0" result="BackgroundImageFix"/>
<feBlend mode="normal" in="SourceGraphic" in2="BackgroundImageFix" result="shape"/>
<feGaussianBlur stdDeviation="1.35173" result="effect1_foregroundBlur_10271_9633"/>
</filter>
<filter id="filter23_d_10271_9633" x="123.219" y="94.4065" width="9.58114" height="9.49427" filterUnits="userSpaceOnUse" color-interpolation-filters="sRGB">
<feFlood flood-opacity="0" result="BackgroundImageFix"/>
<feColorMatrix in="SourceAlpha" type="matrix" values="0 0 0 0 0 0 0 0 0 0 0 0 0 0 0 0 0 0 127 0" result="hardAlpha"/>
<feOffset dy="0.901155"/>
<feGaussianBlur stdDeviation="0.901155"/>
<feComposite in2="hardAlpha" operator="out"/>
<feColorMatrix type="matrix" values="0 0 0 0 0.649223 0 0 0 0 0.438999 0 0 0 0 0.742112 0 0 0 1 0"/>
<feBlend mode="normal" in2="BackgroundImageFix" result="effect1_dropShadow_10271_9633"/>
<feBlend mode="normal" in="SourceGraphic" in2="effect1_dropShadow_10271_9633" result="shape"/>
</filter>
<filter id="filter24_f_10271_9633" x="124.548" y="92.2741" width="8.48354" height="8.43916" filterUnits="userSpaceOnUse" color-interpolation-filters="sRGB">
<feFlood flood-opacity="0" result="BackgroundImageFix"/>
<feBlend mode="normal" in="SourceGraphic" in2="BackgroundImageFix" result="shape"/>
<feGaussianBlur stdDeviation="1.35173" result="effect1_foregroundBlur_10271_9633"/>
</filter>
</defs>
</svg>
