<svg width="1390" height="688" viewBox="0 0 1390 688" fill="none" xmlns="http://www.w3.org/2000/svg">
<g filter="url(#filter0_d)">
<path d="M321.302 343.265C286.098 347.154 256.091 370.516 247.335 402.137C221.569 495.192 256.567 539.899 240.762 600.182C224.958 660.466 248.372 693.468 344.327 691.535C371.059 690.996 412.671 684.661 412.671 684.661C462.878 679.114 495.816 637.179 472.902 596.704C449.988 556.228 466.263 468.159 424.542 382.559C410.364 353.472 376.812 337.132 341.607 341.021C338.171 341.401 334.8 341.962 331.504 342.692C328.143 342.697 324.738 342.885 321.302 343.265Z" fill="#E6C4B8"/>
<path d="M443.712 365.568C451.257 366.796 461.843 380.279 471.544 403.095C481.244 425.911 494.734 486.413 494.734 486.413C494.734 486.413 497.372 500.372 499.374 506.91C504.024 522.095 511.614 537.714 517.571 552.593C522.41 564.68 520.023 588.127 507.922 595.534C493.186 604.555 475.459 611.998 457.624 610.095C449.505 609.229 439.36 608.352 433.372 602.24C428.015 596.773 424.695 589.068 420.287 582.879C399.519 553.714 384.607 517.392 379.848 482.152C375.548 450.312 362.471 401.059 395.839 378.83C407.935 370.772 428.786 363.139 443.712 365.568Z" fill="#44508B"/>
<rect width="22.8841" height="162.319" rx="11.4421" transform="matrix(0.302135 -0.937708 0.903219 0.452082 100.59 125.206)" fill="#7A5856"/>
<rect width="23.0286" height="70.7947" rx="11.5143" transform="matrix(0.975697 -0.28072 0.467935 0.87147 165.272 115.582)" fill="#7A5856"/>
<rect width="26.746" height="121.685" rx="13.373" transform="matrix(-0.346525 -0.922802 1.01128 -0.113159 59.839 170.223)" fill="#7A5856"/>
<path d="M119.241 235.214C117.455 230.697 117.797 225.822 120.277 222.705C128 213.002 145.935 192.409 163.876 185.7C181.817 178.99 209.32 182.59 221.738 184.76C225.728 185.458 229.341 188.853 231.127 193.37C231.451 194.188 231.702 195.01 231.886 195.827C232.313 196.553 232.693 197.328 233.016 198.145C234.802 202.662 234.46 207.537 231.98 210.654C224.257 220.357 206.322 240.949 188.381 247.659C170.44 254.368 142.937 250.769 130.519 248.598C126.529 247.901 122.916 244.505 121.13 239.988C120.806 239.171 120.555 238.349 120.371 237.532C119.944 236.805 119.564 236.031 119.241 235.214Z" fill="#C39B91"/>
<path d="M156.935 222.27C155.9 219.655 156.092 216.835 157.518 215.034C161.957 209.429 172.268 197.534 182.597 193.671C192.927 189.808 208.777 191.919 215.935 193.188C218.234 193.595 220.32 195.563 221.354 198.178C221.541 198.652 221.687 199.127 221.794 199.601C222.041 200.021 222.26 200.47 222.447 200.943C223.482 203.558 223.29 206.378 221.864 208.178C217.425 213.784 207.114 225.679 196.785 229.542C186.455 233.405 170.605 231.294 163.447 230.025C161.148 229.618 159.062 227.649 158.028 225.034C157.841 224.561 157.695 224.085 157.588 223.612C157.341 223.192 157.122 222.743 156.935 222.27Z" fill="#E6C4B8"/>
<rect width="22.8841" height="162.319" rx="11.4421" transform="matrix(-0.482815 -0.858762 -0.795103 0.622891 517.431 83.2817)" fill="#7A5856"/>
<rect width="23.0286" height="70.7947" rx="11.5143" transform="matrix(-1.01206 -0.0808006 -0.285022 0.947199 452.128 86.7302)" fill="#7A5856"/>
<rect width="26.746" height="121.685" rx="13.373" transform="matrix(0.155821 -0.973326 -1.01356 0.0904895 566.331 119.281)" fill="#7A5856"/>
<path d="M519.827 194.925C520.679 190.142 519.372 185.433 516.321 182.873C506.821 174.902 485.144 158.293 466.227 155.291C447.309 152.289 421.074 161.292 409.336 165.893C405.565 167.371 402.701 171.418 401.85 176.2C401.695 177.065 401.612 177.921 401.595 178.759C401.321 179.555 401.104 180.39 400.95 181.255C400.098 186.037 401.405 190.746 404.456 193.307C413.956 201.278 435.633 217.886 454.55 220.889C473.468 223.891 499.703 214.887 511.441 210.287C515.212 208.809 518.076 204.762 518.927 199.98C519.081 199.115 519.165 198.259 519.182 197.421C519.456 196.624 519.673 195.79 519.827 194.925Z" fill="#C39B91"/>
<path d="M480.311 189.746C480.804 186.978 480.054 184.253 478.299 182.772C472.832 178.162 460.359 168.559 449.467 166.831C438.575 165.102 423.463 170.327 416.701 172.995C414.529 173.853 412.877 176.197 412.384 178.966C412.295 179.466 412.247 179.962 412.237 180.447C412.078 180.908 411.953 181.391 411.863 181.892C411.371 184.661 412.12 187.386 413.876 188.867C419.342 193.476 431.815 203.079 442.707 204.808C453.599 206.537 468.712 201.312 475.473 198.643C477.645 197.786 479.297 195.442 479.79 192.673C479.879 192.172 479.928 191.677 479.938 191.192C480.096 190.73 480.222 190.247 480.311 189.746Z" fill="#E6C4B8"/>
<rect x="201.162" y="156.065" width="224.986" height="241.327" rx="86.4865" transform="rotate(-5.74323 201.162 156.065)" fill="#C39B91"/>
<path d="M276.372 176.464C267.636 173.461 252.173 178.035 245.332 183C242.11 190.603 254.35 194.223 261.141 195.833C269.244 197.754 277.902 197.289 284.414 191.51C293.764 183.212 285.332 179.543 276.372 176.464Z" fill="#372831"/>
<path d="M356.751 168.379C364.715 163.697 380.779 165.101 388.472 168.604C393.143 175.413 381.868 181.397 375.535 184.328C367.976 187.824 359.399 189.092 351.867 184.726C341.051 178.456 348.584 173.181 356.751 168.379Z" fill="#372831"/>
<g filter="url(#filter1_d)">
<path d="M375.143 170L373 172.973L375.143 176L377 172.973L375.143 170Z" fill="white"/>
</g>
<g filter="url(#filter2_d)">
<path d="M364.143 176L362 178.973L364.143 182L366 178.973L364.143 176Z" fill="white"/>
</g>
<g filter="url(#filter3_d)">
<path d="M267.143 183L265 185.973L267.143 189L269 185.973L267.143 183Z" fill="white"/>
</g>
<rect x="251.722" y="187.364" width="130.637" height="94.4322" rx="47.2161" transform="rotate(-5.74323 251.722 187.364)" fill="#E6C4B8"/>
<path d="M288.585 227.516C295.489 239.894 322.165 235.032 321.08 224.248L318.477 198.364" stroke="#694C44" stroke-width="8.96339" stroke-linecap="round"/>
<path d="M353.575 220.979C349.274 234.484 322.165 235.032 321.08 224.247L318.477 198.363" stroke="#694C44" stroke-width="8.96339" stroke-linecap="round"/>
<path d="M292.65 198.836C292.294 195.297 295.235 192.302 298.78 192.593L312.874 193.748C314.973 193.92 317.085 193.711 319.109 193.132L333.163 189.109C336.582 188.131 340.052 190.484 340.408 194.022V194.022C340.724 197.157 338.438 199.953 335.304 200.268L298.884 203.931C295.756 204.246 292.965 201.965 292.65 198.836V198.836Z" fill="#DB7E7E"/>
<path d="M226.334 387.433C219.185 390.139 211.496 405.46 206.533 429.75C201.571 454.041 200.398 516.017 200.398 516.017C200.398 516.017 200.594 530.223 199.934 537.028C198.4 552.835 194.073 569.653 191.198 585.42C188.863 598.228 195.871 620.73 209.205 625.579C225.443 631.485 244.297 635.249 261.395 629.833C269.179 627.367 278.946 624.487 283.597 617.305C287.758 610.881 289.478 602.669 292.564 595.726C307.109 563.01 314.489 524.445 312.136 488.964C310.009 456.905 313.016 406.035 275.889 390.895C262.431 385.408 240.477 382.08 226.334 387.433Z" fill="#44508B"/>
<path d="M438.975 371.428C433.581 372.718 427.081 380.963 422.077 394.241C417.072 407.52 433.494 439.105 427.498 446.681C421.502 454.258 411.387 465.41 402.08 479.809C392.773 494.207 387.512 500.514 397.016 503.576C408.59 507.304 441.402 518.467 454.244 515.965C460.09 514.825 457.667 502.141 477.041 492.315C496.415 482.489 507.823 489.8 508.093 470.129C508.336 452.356 495.26 412.618 474.099 391.025C452.939 369.432 449.646 368.876 438.975 371.428Z" fill="#4E5B9B"/>
<path d="M401.095 521.102C382.25 522.993 401.724 496.662 407.397 492.104C419.111 488.603 433.957 496.069 439.319 506.335C442.26 511.966 439.997 517.854 437.536 523.261C435.498 527.739 430.887 538.139 424.879 538.464C419.47 538.758 414.155 532.087 412.734 527.567C411.939 525.038 411.332 522.255 408.936 520.622C406.464 518.938 403.662 520.844 401.095 521.102Z" fill="#746464"/>
<path d="M219.914 391.13C225.446 390.691 234.235 396.517 243.2 407.585C252.165 418.652 246.586 453.719 254.684 459.065C262.783 464.412 275.927 471.883 289.334 482.687C302.742 493.492 309.739 497.859 301.683 503.699C291.872 510.811 264.248 531.538 251.257 533.123C245.343 533.845 243.621 521.05 222.103 517.695C200.584 514.339 192.068 524.803 185.573 506.202C179.704 489.396 179.519 447.619 192.768 420.581C206.018 393.543 208.968 391.999 219.914 391.13Z" fill="#4E5B9B"/>
<path d="M303.368 521.604C321.867 517.586 295.018 498.585 288.184 496.006C275.948 496.294 264.215 507.966 262.378 519.372C261.371 525.628 265.388 530.522 269.44 534.898C272.796 538.523 280.475 546.978 286.285 545.433C291.516 544.043 294.447 536.067 294.364 531.335C294.317 528.688 294.011 525.857 295.768 523.568C297.582 521.205 300.848 522.151 303.368 521.604Z" fill="#746464"/>
<path d="M209.659 318.006C230.708 309.269 291.469 322.855 331.809 318.798C372.148 314.741 431.106 291.376 445.15 301.102C459.194 310.829 457.937 366.659 454.331 377.126C450.726 387.593 439.384 408.554 341.823 418.366C244.262 428.178 213.92 405.856 209.055 399.231C204.19 392.605 188.611 326.743 209.659 318.006Z" fill="#51818C"/>
<path d="M209.659 318.006C230.708 309.269 291.469 322.855 331.809 318.798C372.148 314.741 431.106 291.376 445.15 301.102C459.194 310.829 457.937 366.659 454.331 377.126C450.726 387.593 439.384 408.554 341.823 418.366C244.262 428.178 213.92 405.856 209.055 399.231C204.19 392.605 188.611 326.743 209.659 318.006Z" fill="url(#paint0_linear)"/>
<g style="mix-blend-mode:overlay" opacity="0.35">
<path d="M321.303 343.265C286.098 347.154 256.091 370.516 247.335 402.137C221.57 495.192 256.567 539.899 240.762 600.182C224.958 660.466 248.372 693.469 344.327 691.535C371.06 690.996 412.671 684.661 412.671 684.661C462.878 679.114 495.817 637.18 472.902 596.704C449.988 556.228 466.263 468.159 424.542 382.559C410.364 353.472 376.812 337.132 341.607 341.022C338.171 341.401 334.8 341.962 331.504 342.692C328.143 342.697 324.738 342.885 321.303 343.265Z" fill="url(#paint1_linear)"/>
<path d="M443.712 365.568C451.257 366.796 461.844 380.279 471.544 403.095C481.244 425.911 494.735 486.413 494.735 486.413C494.735 486.413 497.372 500.372 499.374 506.91C504.024 522.095 511.614 537.714 517.571 552.593C522.41 564.68 520.023 588.126 507.922 595.534C493.186 604.555 475.459 611.998 457.624 610.095C449.505 609.229 439.361 608.351 433.372 602.24C428.015 596.772 424.695 589.068 420.287 582.879C399.519 553.714 384.607 517.392 379.848 482.152C375.548 450.312 362.471 401.059 395.84 378.83C407.935 370.772 428.786 363.139 443.712 365.568Z" fill="url(#paint2_linear)"/>
<path d="M110.925 130.379C105.217 127.522 102.138 120.403 104.047 114.477C105.956 108.551 112.131 106.064 117.839 108.92L243.779 171.956C249.486 174.813 252.566 181.933 250.656 187.858C248.747 193.784 242.572 196.272 236.865 193.415L110.925 130.379Z" fill="url(#paint3_linear)"/>
<path d="M170.66 125.616C167.684 120.074 170.302 114.134 176.507 112.349C182.711 110.564 190.153 113.61 193.129 119.151L215.48 160.778C218.456 166.32 215.839 172.26 209.634 174.045C203.429 175.83 195.987 172.785 193.012 167.243L170.66 125.616Z" fill="url(#paint4_linear)"/>
<path d="M73.3629 168.709C65.8939 169.545 57.7643 164.697 55.205 157.882C52.6457 151.066 56.6257 144.864 64.0947 144.028L160.104 133.285C167.573 132.449 175.702 137.297 178.262 144.112C180.821 150.928 176.841 157.13 169.372 157.966L73.3629 168.709Z" fill="url(#paint5_linear)"/>
<path d="M119.241 235.213C117.455 230.697 117.797 225.822 120.278 222.705C128 213.001 145.935 192.409 163.876 185.7C181.817 178.99 209.32 182.589 221.739 184.76C225.728 185.458 229.341 188.853 231.127 193.37C231.451 194.187 231.703 195.01 231.886 195.827C232.313 196.553 232.693 197.328 233.016 198.145C234.802 202.662 234.46 207.537 231.98 210.654C224.257 220.357 206.322 240.949 188.381 247.659C170.441 254.368 142.938 250.769 130.519 248.598C126.529 247.901 122.916 244.505 121.13 239.988C120.807 239.171 120.555 238.349 120.371 237.531C119.944 236.805 119.565 236.031 119.241 235.213Z" fill="url(#paint6_linear)"/>
<path d="M156.935 222.27C155.901 219.655 156.092 216.835 157.518 215.034C161.957 209.429 172.268 197.534 182.597 193.671C192.927 189.808 208.777 191.919 215.935 193.187C218.234 193.595 220.32 195.563 221.354 198.178C221.541 198.651 221.687 199.127 221.794 199.6C222.041 200.021 222.26 200.469 222.447 200.943C223.482 203.558 223.29 206.377 221.864 208.178C217.425 213.784 207.114 225.679 196.785 229.542C186.455 233.405 170.605 231.294 163.447 230.025C161.148 229.617 159.062 227.649 158.028 225.034C157.841 224.561 157.695 224.085 157.588 223.612C157.342 223.191 157.122 222.743 156.935 222.27Z" fill="url(#paint7_linear)"/>
<path d="M508.334 90.4089C513.358 86.4726 514.958 78.8825 511.907 73.4557C508.856 68.029 502.31 66.8207 497.285 70.7569L386.42 157.609C381.396 161.546 379.796 169.136 382.847 174.563C385.898 179.989 392.445 181.198 397.469 177.261L508.334 90.4089Z" fill="url(#paint8_linear)"/>
<path d="M448.846 97.6365C450.659 91.6131 446.911 86.3136 440.475 85.7998C434.039 85.286 427.353 89.7524 425.54 95.7758L411.926 141.02C410.113 147.043 413.861 152.343 420.297 152.856C426.733 153.37 433.42 148.904 435.232 142.881L448.846 97.6365Z" fill="url(#paint9_linear)"/>
<path d="M552.776 120.492C560.262 119.823 567.264 113.454 568.414 106.265C569.565 99.0766 564.43 93.7908 556.944 94.4591L460.719 103.05C453.233 103.718 446.231 110.088 445.08 117.276C443.93 124.465 449.065 129.751 456.551 129.083L552.776 120.492Z" fill="url(#paint10_linear)"/>
<path d="M519.827 194.925C520.679 190.142 519.373 185.433 516.321 182.873C506.821 174.902 485.144 158.293 466.227 155.291C447.309 152.288 421.074 161.292 409.336 165.893C405.565 167.371 402.701 171.418 401.85 176.2C401.696 177.065 401.612 177.921 401.595 178.759C401.321 179.555 401.104 180.39 400.95 181.255C400.099 186.037 401.405 190.746 404.456 193.307C413.956 201.278 435.633 217.886 454.55 220.889C473.468 223.891 499.703 214.887 511.441 210.287C515.212 208.809 518.076 204.762 518.928 199.98C519.082 199.115 519.165 198.259 519.182 197.421C519.456 196.624 519.673 195.79 519.827 194.925Z" fill="url(#paint11_linear)"/>
<path d="M480.311 189.746C480.804 186.978 480.054 184.253 478.299 182.772C472.832 178.162 460.359 168.559 449.467 166.83C438.575 165.102 423.463 170.327 416.701 172.995C414.529 173.853 412.877 176.197 412.384 178.965C412.295 179.466 412.247 179.962 412.237 180.447C412.079 180.908 411.953 181.391 411.863 181.892C411.371 184.661 412.12 187.386 413.876 188.867C419.342 193.476 431.815 203.079 442.707 204.808C453.599 206.537 468.712 201.312 475.473 198.643C477.645 197.786 479.297 195.442 479.79 192.673C479.879 192.172 479.928 191.677 479.938 191.192C480.096 190.73 480.222 190.247 480.311 189.746Z" fill="url(#paint12_linear)"/>
<path d="M209.817 242.117C205.037 194.592 239.689 152.19 287.215 147.41L338.967 142.205C386.492 137.425 428.894 172.077 433.674 219.603L440.514 287.613C445.294 335.139 410.642 377.541 363.116 382.32L311.364 387.525C263.839 392.305 221.437 357.653 216.657 310.128L209.817 242.117Z" fill="url(#paint13_linear)"/>
<path d="M276.372 176.464C267.636 173.461 252.173 178.035 245.332 183C242.11 190.603 254.35 194.223 261.141 195.833C269.244 197.754 277.902 197.289 284.414 191.51C293.764 183.212 285.332 179.543 276.372 176.464Z" fill="url(#paint14_linear)"/>
<path d="M356.751 168.379C364.715 163.697 380.779 165.101 388.472 168.604C393.143 175.413 381.869 181.397 375.535 184.327C367.976 187.824 359.399 189.092 351.867 184.726C341.051 178.456 348.584 173.181 356.751 168.379Z" fill="url(#paint15_linear)"/>
<path d="M375.143 170L373 172.973L375.143 176L377 172.973L375.143 170Z" fill="url(#paint16_linear)"/>
<path d="M364.143 176L362 178.973L364.143 182L366 178.973L364.143 176Z" fill="url(#paint17_linear)"/>
<path d="M267.143 183L265 185.973L267.143 189L269 185.973L267.143 183Z" fill="url(#paint18_linear)"/>
<path d="M256.448 234.343C253.838 208.397 272.756 185.248 298.702 182.639L334.725 179.016C360.671 176.406 383.819 195.324 386.429 221.27C389.038 247.216 370.121 270.364 344.175 272.974L308.152 276.597C282.206 279.206 259.057 260.289 256.448 234.343Z" fill="url(#paint19_linear)"/>
<path d="M292.651 198.836C292.295 195.297 295.235 192.302 298.78 192.593L312.874 193.748C314.973 193.92 317.085 193.711 319.109 193.132L333.163 189.109C336.582 188.13 340.053 190.484 340.409 194.022C340.724 197.156 338.438 199.953 335.304 200.268L298.885 203.931C295.756 204.246 292.965 201.965 292.651 198.836Z" fill="url(#paint20_linear)"/>
<path d="M226.335 387.433C219.185 390.139 211.496 405.46 206.533 429.75C201.571 454.041 200.399 516.017 200.399 516.017C200.399 516.017 200.594 530.223 199.934 537.028C198.4 552.835 194.073 569.653 191.198 585.42C188.863 598.228 195.871 620.73 209.205 625.579C225.443 631.485 244.297 635.249 261.395 629.833C269.179 627.367 278.946 624.487 283.597 617.305C287.759 610.881 289.478 602.669 292.565 595.726C307.109 563.01 314.489 524.445 312.136 488.964C310.009 456.905 313.016 406.035 275.889 390.895C262.431 385.408 240.478 382.08 226.335 387.433Z" fill="url(#paint21_linear)"/>
<path d="M438.975 371.428C433.581 372.718 427.081 380.963 422.077 394.241C417.072 407.52 433.494 439.104 427.498 446.681C421.502 454.258 411.388 465.41 402.08 479.808C392.773 494.207 387.512 500.514 397.016 503.576C408.591 507.304 441.402 518.467 454.244 515.965C460.09 514.825 457.667 502.141 477.041 492.315C496.415 482.489 507.823 489.8 508.093 470.129C508.336 452.356 495.261 412.618 474.1 391.025C452.939 369.432 449.647 368.876 438.975 371.428Z" fill="url(#paint22_linear)"/>
<path d="M401.095 521.102C382.25 522.993 401.724 496.662 407.397 492.104C419.111 488.603 433.957 496.069 439.319 506.335C442.261 511.966 439.997 517.854 437.537 523.261C435.499 527.739 430.887 538.139 424.879 538.464C419.47 538.758 414.155 532.087 412.734 527.567C411.939 525.038 411.332 522.254 408.936 520.622C406.464 518.938 403.662 520.844 401.095 521.102Z" fill="url(#paint23_linear)"/>
<path d="M219.914 391.13C225.447 390.691 234.235 396.517 243.2 407.585C252.165 418.652 246.586 453.719 254.684 459.065C262.783 464.412 275.927 471.883 289.335 482.687C302.742 493.492 309.739 497.859 301.683 503.699C291.872 510.811 264.248 531.538 251.257 533.123C245.343 533.845 243.621 521.05 222.103 517.695C200.585 514.339 192.068 524.803 185.573 506.202C179.704 489.396 179.519 447.619 192.768 420.581C206.018 393.543 208.968 391.999 219.914 391.13Z" fill="url(#paint24_linear)"/>
<path d="M303.368 521.604C321.867 517.586 295.018 498.585 288.185 496.006C275.948 496.294 264.215 507.966 262.379 519.372C261.371 525.628 265.389 530.522 269.44 534.898C272.797 538.523 280.475 546.978 286.285 545.433C291.516 544.043 294.448 536.067 294.364 531.335C294.317 528.688 294.011 525.857 295.768 523.568C297.582 521.205 300.848 522.151 303.368 521.604Z" fill="url(#paint25_linear)"/>
<path d="M209.66 318.006C230.708 309.269 291.469 322.855 331.809 318.798C372.148 314.741 431.106 291.376 445.15 301.103C459.194 310.829 457.937 366.659 454.331 377.126C450.726 387.593 439.384 408.554 341.823 418.366C244.262 428.178 213.921 405.856 209.055 399.231C204.19 392.605 188.611 326.743 209.66 318.006Z" fill="url(#paint26_linear)"/>
</g>
</g>
<g filter="url(#filter4_d)">
<path d="M1046.13 221.675C1040.47 228.478 1032.94 230.512 1030.34 225.94L1019.25 206.457C1017.19 202.85 1010.36 186.934 1020.81 174.371C1031.25 161.808 1046.85 167.179 1050.38 169.003L1069.49 178.852C1073.97 181.163 1072.9 189.471 1067.24 196.274L1046.13 221.675Z" fill="url(#paint27_linear)"/>
<path d="M1286.81 253.228C1290.52 261.26 1297.27 265.165 1300.96 261.419L1316.7 245.454C1319.62 242.498 1330.32 228.881 1323.47 214.05C1316.61 199.22 1300.16 200.389 1296.27 201.239L1275.28 205.831C1270.35 206.909 1269.24 215.212 1272.95 223.243L1286.81 253.228Z" fill="url(#paint28_linear)"/>
<path d="M1227.54 566.853C1276.52 573.274 1308.14 526.896 1306.21 478.496L1301.7 258.507C1300.18 220.316 1268.61 174.305 1178.17 162.448C1087.74 150.592 1043.4 186.651 1032.08 223.159L970.956 420.338C956.614 466.604 988.182 514.628 1037.16 521.049C1037.16 521.049 1058.03 526.671 1136.53 547.819C1215.03 568.966 1227.54 566.853 1227.54 566.853Z" fill="#AD806B"/>
<rect x="1152.73" y="103.709" width="63.729" height="46.1591" rx="23.0795" transform="rotate(7.46894 1152.73 103.709)" fill="#D2AD76"/>
<path d="M1176.38 168.184C1226.62 174.77 1263.58 197.468 1260.02 189.604L1252.52 163.951C1249.71 157.747 1232.17 132.277 1181.95 125.694C1131.74 119.111 1107.13 139.054 1102.81 144.325L1087.31 166.962C1081.84 173.641 1126.15 161.598 1176.38 168.184Z" fill="#608790"/>
<path d="M1175.75 177.545C1241.47 186.162 1277.46 222.6 1285.54 202.729C1293.62 182.857 1274.85 175.872 1274.85 175.872C1270.97 169.34 1247.19 142.315 1181.5 133.702C1115.8 125.089 1084.42 144.884 1078.98 150.193C1078.98 150.193 1058.9 154.469 1059.58 173.105C1060.26 191.74 1110.02 168.928 1175.75 177.545Z" fill="#D2AD76"/>
<path d="M1134.97 199.824C1135.55 191.764 1128.18 185.691 1118.52 186.262C1108.85 186.832 1100.54 193.829 1099.96 201.889C1099.38 209.95 1107.8 201.427 1117.47 200.856C1127.13 200.286 1134.39 207.885 1134.97 199.824Z" fill="#372831"/>
<g filter="url(#filter5_d)">
<path d="M1125.14 189L1123 191.973L1125.14 195L1127 191.973L1125.14 189Z" fill="white"/>
</g>
<g filter="url(#filter6_d)">
<path d="M1111.14 193L1109 195.973L1111.14 199L1113 195.973L1111.14 193Z" fill="white"/>
</g>
<path d="M1206.51 209.67C1208.03 201.732 1216.71 197.764 1225.91 200.807C1235.1 203.85 1241.32 212.752 1239.81 220.69C1238.29 228.627 1232.35 218.222 1223.16 215.179C1213.96 212.136 1204.99 217.608 1206.51 209.67Z" fill="#372831"/>
<g filter="url(#filter7_d)">
<path d="M1221.83 201L1220.6 205.394L1218 206.571L1220.6 207.277L1221.83 209.867L1222.88 206.571L1225 205.394L1222.88 205.394L1221.83 201Z" fill="white"/>
</g>
<path d="M1211.87 186.858C1213.43 182.758 1220.23 181.673 1227.05 184.434C1233.87 187.196 1238.13 192.759 1236.57 196.859C1235 200.959 1231.04 194.62 1224.22 191.858C1217.4 189.097 1210.31 190.959 1211.87 186.858Z" fill="#372831"/>
<path d="M1136.06 175.881C1135.13 171.455 1128.62 168.634 1121.53 169.58C1114.43 170.525 1109.44 174.88 1110.37 179.306C1111.3 183.732 1116.12 178.539 1123.21 177.593C1130.31 176.648 1136.99 180.307 1136.06 175.881Z" fill="#372831"/>
<rect x="1155.2" y="212.958" width="24.8515" height="10" rx="5" transform="rotate(7.46894 1155.2 212.958)" fill="#372831"/>
<rect x="1153.91" y="236.993" width="22.0902" height="24" rx="4.4817" transform="rotate(7.46894 1153.91 236.993)" fill="#E0D0C1"/>
<path d="M1192.04 243.532C1186.31 250.61 1164.6 247.082 1166.68 224.548" stroke="#372831" stroke-width="8.96339" stroke-linecap="round"/>
<path d="M1137.28 236.354C1140.99 244.67 1162.88 246.858 1166.68 224.548" stroke="#372831" stroke-width="8.96339" stroke-linecap="round"/>
<path d="M1044.7 273.812C1044.7 273.812 1024.56 301.817 1012.98 324.516C1001.41 347.214 993.05 367.153 993.05 367.153C1000.24 386.245 958.768 369.68 951.752 362.486C944.736 355.292 951.58 341.688 977.444 290.966C1003.31 240.244 1011.89 235.101 1018.8 236.317C1025.7 237.534 1065.31 269.143 1044.7 273.812Z" fill="#C16241"/>
<path d="M1035.47 234.073C1035.47 234.073 1110.02 279.943 1170.07 287.815C1230.12 295.688 1300.58 268.83 1300.58 268.83C1333.13 256.511 1333.69 321.396 1326 330.858C1318.3 340.321 1292.44 370.13 1158.25 352.539C1024.07 334.947 1008.55 300.504 1003.79 292.507C999.018 284.509 1003.76 212.046 1035.47 234.073Z" fill="#C16241"/>
<path d="M1035.47 234.073C1035.47 234.073 1110.02 279.943 1170.07 287.815C1230.12 295.688 1300.58 268.83 1300.58 268.83C1333.13 256.511 1333.69 321.396 1326 330.858C1318.3 340.321 1292.44 370.13 1158.25 352.539C1024.07 334.947 1008.55 300.504 1003.79 292.507C999.018 284.509 1003.76 212.046 1035.47 234.073Z" fill="url(#paint29_linear)"/>
<path fill-rule="evenodd" clip-rule="evenodd" d="M1218.15 388.503C1227.72 362.435 1259.87 354.065 1280.57 372.255C1297.37 387.014 1298.87 413.053 1282.57 428.36C1269.52 440.614 1254.59 453.142 1243.67 457.954C1229.71 464.099 1218.06 463.665 1210.72 462.212C1207.31 461.537 1204.45 459.668 1202.15 457.137C1202.04 457.211 1201.92 457.282 1201.8 457.351C1197.89 459.637 1193.18 458.753 1191.28 455.376C1189.91 452.926 1190.39 449.835 1192.25 447.451C1189.52 446.95 1187.29 445.157 1186.62 442.584C1185.73 439.119 1187.98 435.449 1191.75 433.969C1189.58 433.459 1187.93 432.167 1187.46 430.339C1186.66 427.24 1189.54 423.773 1193.9 422.595C1195.45 422.176 1196.98 422.103 1198.34 422.323C1199.43 421.285 1200.67 420.371 1202.04 419.615C1205.83 417.528 1208.75 414.114 1210.26 410.004L1218.15 388.503Z" fill="url(#paint30_linear)"/>
<g style="mix-blend-mode:overlay" opacity="0.35">
<path d="M1046.13 221.674C1040.47 228.477 1032.94 230.511 1030.34 225.94L1019.25 206.456C1017.19 202.849 1010.36 186.934 1020.81 174.371C1031.25 161.808 1046.85 167.179 1050.38 169.002L1069.49 178.852C1073.97 181.163 1072.9 189.471 1067.24 196.274L1046.13 221.674Z" fill="url(#paint31_linear)"/>
<path d="M1286.81 253.228C1290.52 261.259 1297.27 265.165 1300.96 261.419L1316.7 245.454C1319.62 242.498 1330.32 228.88 1323.47 214.05C1316.61 199.219 1300.16 200.388 1296.27 201.239L1275.28 205.831C1270.35 206.908 1269.24 215.211 1272.95 223.242L1286.81 253.228Z" fill="url(#paint32_linear)"/>
<path d="M1227.54 566.853C1276.52 573.274 1308.14 526.895 1306.21 478.496L1301.7 258.506C1300.18 220.316 1268.61 174.304 1178.17 162.448C1087.74 150.592 1043.4 186.651 1032.08 223.158L970.956 420.338C956.614 466.604 988.182 514.628 1037.16 521.049C1037.16 521.049 1058.03 526.671 1136.53 547.818C1215.03 568.965 1227.54 566.853 1227.54 566.853Z" fill="url(#paint33_linear)"/>
<path d="M1149.73 126.593C1151.39 113.954 1162.98 105.052 1175.61 106.709L1193.03 108.993C1205.67 110.65 1214.58 122.239 1212.92 134.877C1211.26 147.515 1199.67 156.417 1187.03 154.761L1169.61 152.477C1156.98 150.82 1148.07 139.231 1149.73 126.593Z" fill="url(#paint34_linear)"/>
<path d="M1176.38 168.183C1226.62 174.77 1263.58 197.467 1260.02 189.604L1252.52 163.951C1249.71 157.746 1232.17 132.277 1181.95 125.694C1131.74 119.111 1107.13 139.054 1102.81 144.324L1087.31 166.962C1081.84 173.641 1126.15 161.597 1176.38 168.183Z" fill="url(#paint35_linear)"/>
<path d="M1175.75 177.545C1241.47 186.162 1277.46 222.6 1285.54 202.728C1293.63 182.857 1274.85 175.871 1274.85 175.871C1270.97 169.34 1247.19 142.315 1181.5 133.702C1115.8 125.089 1084.43 144.884 1078.98 150.193C1078.98 150.193 1058.9 154.469 1059.58 173.105C1060.26 191.74 1110.02 168.928 1175.75 177.545Z" fill="url(#paint36_linear)"/>
<path d="M1134.97 199.824C1135.55 191.763 1128.18 185.691 1118.52 186.261C1108.85 186.832 1100.54 193.828 1099.96 201.889C1099.38 209.95 1107.8 201.426 1117.47 200.856C1127.13 200.286 1134.39 207.885 1134.97 199.824Z" fill="url(#paint37_linear)"/>
<path d="M1125.14 189L1123 191.973L1125.14 195L1127 191.973L1125.14 189Z" fill="url(#paint38_linear)"/>
<path d="M1111.14 193L1109 195.973L1111.14 199L1113 195.973L1111.14 193Z" fill="url(#paint39_linear)"/>
<path d="M1206.51 209.669C1208.03 201.732 1216.71 197.764 1225.91 200.807C1235.1 203.85 1241.32 212.751 1239.81 220.689C1238.29 228.627 1232.35 218.222 1223.16 215.179C1213.96 212.136 1204.99 217.607 1206.51 209.669Z" fill="url(#paint40_linear)"/>
<path d="M1221.83 201L1220.6 205.394L1218 206.571L1220.6 207.277L1221.83 209.866L1222.88 206.571L1225 205.394L1222.88 205.394L1221.83 201Z" fill="url(#paint41_linear)"/>
<path d="M1211.87 186.858C1213.43 182.758 1220.23 181.673 1227.05 184.434C1233.87 187.196 1238.13 192.758 1236.57 196.859C1235.01 200.959 1231.04 194.62 1224.22 191.858C1217.4 189.096 1210.31 190.958 1211.87 186.858Z" fill="url(#paint42_linear)"/>
<path d="M1136.06 175.881C1135.13 171.455 1128.62 168.633 1121.53 169.579C1114.43 170.525 1109.44 174.88 1110.37 179.306C1111.3 183.732 1116.12 178.539 1123.21 177.593C1130.31 176.647 1136.99 180.307 1136.06 175.881Z" fill="url(#paint43_linear)"/>
<path d="M1154.55 217.915C1154.91 215.177 1157.42 213.248 1160.16 213.607L1174.89 215.538C1177.62 215.896 1179.55 218.407 1179.19 221.145C1178.83 223.883 1176.32 225.812 1173.59 225.453L1158.86 223.522C1156.12 223.163 1154.19 220.653 1154.55 217.915Z" fill="url(#paint44_linear)"/>
<path d="M1153.33 241.437C1153.65 238.982 1155.9 237.254 1158.35 237.576L1171.37 239.282C1173.82 239.604 1175.55 241.854 1175.23 244.308L1173.27 259.217C1172.95 261.671 1170.7 263.4 1168.25 263.078L1155.23 261.372C1152.78 261.05 1151.05 258.8 1151.37 256.346L1153.33 241.437Z" fill="url(#paint45_linear)"/>
<path d="M1044.7 273.811C1044.7 273.811 1024.56 301.816 1012.98 324.515C1001.41 347.214 993.05 367.153 993.05 367.153C1000.24 386.244 958.768 369.68 951.752 362.486C944.736 355.292 951.58 341.687 977.444 290.965C1003.31 240.243 1011.89 235.101 1018.8 236.317C1025.7 237.533 1065.31 269.142 1044.7 273.811Z" fill="url(#paint46_linear)"/>
<path d="M1035.47 234.072C1035.47 234.072 1110.02 279.942 1170.07 287.815C1230.12 295.687 1300.58 268.829 1300.58 268.829C1333.13 256.51 1333.69 321.395 1326 330.858C1318.3 340.321 1292.44 370.13 1158.25 352.538C1024.07 334.946 1008.55 300.504 1003.79 292.506C999.018 284.508 1003.76 212.045 1035.47 234.072Z" fill="url(#paint47_linear)"/>
<path d="M1218.15 388.502C1227.72 362.435 1259.88 354.064 1280.57 372.254C1297.37 387.014 1298.87 413.053 1282.57 428.36C1269.52 440.614 1254.59 453.142 1243.67 457.953C1229.71 464.099 1218.06 463.664 1210.72 462.212C1207.31 461.537 1204.45 459.668 1202.15 457.137C1202.04 457.21 1201.92 457.282 1201.8 457.351C1197.89 459.637 1193.18 458.752 1191.28 455.376C1189.91 452.925 1190.39 449.835 1192.25 447.451C1189.52 446.95 1187.29 445.156 1186.62 442.583C1185.73 439.119 1187.98 435.448 1191.75 433.969C1189.58 433.458 1187.93 432.167 1187.46 430.339C1186.66 427.24 1189.54 423.773 1193.9 422.595C1195.45 422.176 1196.98 422.103 1198.34 422.323C1199.43 421.285 1200.67 420.371 1202.04 419.615C1205.83 417.527 1208.75 414.113 1210.26 410.004L1218.15 388.502Z" fill="url(#paint48_linear)"/>
</g>
</g>
<g filter="url(#filter8_d)">
<path d="M623.32 299.081C637.518 286.689 656.147 280.712 674.992 280.712H869.948C883.744 280.712 897.53 283.822 909.295 291.027C1043.73 373.37 1025.32 525.06 1004.61 749.298C1001 788.315 971.906 820.22 932.962 824.537C889.894 829.31 828.871 834.202 759.626 834.202C694.139 834.202 636.005 829.827 593.459 825.314C551.245 820.837 521.177 784.283 520.075 741.846C515.242 555.748 489.246 416.092 623.32 299.081Z" fill="url(#paint49_linear)"/>
<path d="M961.662 314.779C950.316 299.719 928.459 300.696 917.315 318.04C894.37 353.75 882.673 403.426 869.22 438.813C858.701 466.48 841.103 509.187 848.126 536.361L857.155 571.293C862.365 591.453 881.438 603.413 902.238 599.564L997.18 581.992C1014.15 578.851 1029.06 565.779 1031.46 548.321C1043.29 462.4 997.504 362.358 961.662 314.779Z" fill="#B78881"/>
<path d="M868.548 511.135C866.06 499.525 853.106 494.701 842.705 501.511L832.045 508.49C826.978 511.808 823.868 517.576 823.97 523.468V523.468C824.136 533.035 832.512 539.49 841.793 537.203L853.817 534.241C863.942 531.747 870.695 521.154 868.548 511.135V511.135Z" fill="#B78881"/>
<path d="M868.548 511.135C866.06 499.525 853.106 494.701 842.705 501.511L832.045 508.49C826.978 511.808 823.868 517.576 823.97 523.468V523.468C824.136 533.035 832.512 539.49 841.793 537.203L853.817 534.241C863.942 531.747 870.695 521.154 868.548 511.135V511.135Z" fill="url(#paint50_linear)" fill-opacity="0.5"/>
<path d="M837.119 524.151C836.269 522.448 834.215 521.89 832.503 522.899L823.95 527.94C822.982 528.51 822.405 529.625 822.501 530.736V530.736C822.645 532.382 824.178 533.375 825.716 532.818L834.892 529.498C837.029 528.725 838.108 526.134 837.119 524.151V524.151Z" fill="#41302C"/>
<path d="M870.789 542.507C868.301 530.897 855.347 526.074 844.946 532.883L834.286 539.862C829.218 543.18 826.109 548.948 826.211 554.84V554.84C826.377 564.407 834.752 570.862 844.034 568.575L856.058 565.613C866.183 563.119 872.936 552.526 870.789 542.507V542.507Z" fill="#B78881"/>
<path d="M870.789 542.507C868.301 530.897 855.347 526.074 844.946 532.883L834.286 539.862C829.218 543.18 826.109 548.948 826.211 554.84V554.84C826.377 564.407 834.752 570.862 844.034 568.575L856.058 565.613C866.183 563.119 872.936 552.526 870.789 542.507V542.507Z" fill="url(#paint51_linear)" fill-opacity="0.5"/>
<path d="M839.36 555.523C838.51 553.82 836.455 553.263 834.744 554.271L826.19 559.312C825.223 559.882 824.645 560.997 824.742 562.108V562.108C824.885 563.754 826.418 564.747 827.957 564.19L837.133 560.87C839.27 560.097 840.349 557.506 839.36 555.523V555.523Z" fill="#41302C"/>
<path d="M881.993 573.878C879.505 562.269 866.551 557.445 856.15 564.255L845.49 571.234C840.422 574.552 837.313 580.32 837.415 586.211V586.211C837.581 595.779 845.957 602.234 855.238 599.947L867.262 596.985C877.387 594.49 884.14 583.898 881.993 573.878V573.878Z" fill="#B78881"/>
<path d="M881.993 573.878C879.505 562.269 866.551 557.445 856.15 564.255L845.49 571.234C840.422 574.552 837.313 580.32 837.415 586.211V586.211C837.581 595.779 845.957 602.234 855.238 599.947L867.262 596.985C877.387 594.49 884.14 583.898 881.993 573.878V573.878Z" fill="url(#paint52_linear)" fill-opacity="0.5"/>
<path d="M850.564 586.895C849.714 585.191 847.66 584.634 845.948 585.643L837.395 590.684C836.427 591.254 835.85 592.368 835.946 593.479V593.479C836.09 595.126 837.623 596.119 839.161 595.562L848.338 592.242C850.475 591.468 851.554 588.877 850.564 586.895V586.895Z" fill="#41302C"/>
<path d="M542.375 314.779C553.721 299.719 575.578 300.696 586.722 318.04C609.667 353.75 621.365 403.426 634.818 438.813C645.336 466.48 662.934 509.187 655.911 536.361L646.883 571.293C641.672 591.453 622.599 603.413 601.799 599.564L506.857 581.992C489.886 578.851 474.98 565.779 472.576 548.321C460.745 462.4 506.533 362.358 542.375 314.779Z" fill="#B78881"/>
<path d="M635.489 511.135C637.977 499.525 650.931 494.701 661.333 501.511L671.992 508.49C677.06 511.808 680.17 517.576 680.067 523.468V523.468C679.901 533.035 671.526 539.49 662.244 537.203L650.22 534.241C640.095 531.747 633.342 521.154 635.489 511.135V511.135Z" fill="#B78881"/>
<path d="M635.489 511.135C637.977 499.525 650.931 494.701 661.333 501.511L671.992 508.49C677.06 511.808 680.17 517.576 680.067 523.468V523.468C679.901 533.035 671.526 539.49 662.244 537.203L650.22 534.241C640.095 531.747 633.342 521.154 635.489 511.135V511.135Z" fill="url(#paint53_linear)" fill-opacity="0.5"/>
<path d="M666.918 524.151C667.768 522.448 669.823 521.89 671.534 522.899L680.088 527.94C681.055 528.51 681.633 529.625 681.536 530.736V530.736C681.393 532.382 679.86 533.375 678.321 532.818L669.145 529.498C667.008 528.725 665.929 526.134 666.918 524.151V524.151Z" fill="#41302C"/>
<path d="M633.248 542.507C635.736 530.897 648.69 526.074 659.092 532.883L669.751 539.862C674.819 543.18 677.929 548.948 677.826 554.84V554.84C677.66 564.407 669.285 570.862 660.003 568.575L647.979 565.613C637.854 563.119 631.101 552.526 633.248 542.507V542.507Z" fill="#B78881"/>
<path d="M633.248 542.507C635.736 530.897 648.69 526.074 659.092 532.883L669.751 539.862C674.819 543.18 677.929 548.948 677.826 554.84V554.84C677.66 564.407 669.285 570.862 660.003 568.575L647.979 565.613C637.854 563.119 631.101 552.526 633.248 542.507V542.507Z" fill="url(#paint54_linear)" fill-opacity="0.5"/>
<path d="M664.677 555.523C665.527 553.82 667.582 553.263 669.294 554.271L677.847 559.312C678.814 559.882 679.392 560.997 679.295 562.108V562.108C679.152 563.754 677.619 564.747 676.08 564.19L666.904 560.87C664.767 560.097 663.688 557.506 664.677 555.523V555.523Z" fill="#41302C"/>
<path d="M622.044 573.878C624.532 562.269 637.486 557.445 647.887 564.255L658.547 571.234C663.615 574.552 666.724 580.32 666.622 586.211V586.211C666.456 595.779 658.081 602.234 648.799 599.947L636.775 596.985C626.65 594.49 619.897 583.898 622.044 573.878V573.878Z" fill="#B78881"/>
<path d="M622.044 573.878C624.532 562.269 637.486 557.445 647.887 564.255L658.547 571.234C663.615 574.552 666.724 580.32 666.622 586.211V586.211C666.456 595.779 658.081 602.234 648.799 599.947L636.775 596.985C626.65 594.49 619.897 583.898 622.044 573.878V573.878Z" fill="url(#paint55_linear)" fill-opacity="0.5"/>
<path d="M653.473 586.895C654.323 585.191 656.377 584.634 658.089 585.643L666.642 590.684C667.61 591.254 668.187 592.368 668.091 593.479V593.479C667.947 595.126 666.414 596.119 664.876 595.562L655.7 592.242C653.563 591.468 652.484 588.877 653.473 586.895V586.895Z" fill="#41302C"/>
<rect x="556" y="64.4155" width="97.2729" height="88.4299" rx="36.8962" transform="rotate(-41.4697 556 64.4155)" fill="#9C716A"/>
<rect x="587.844" y="64.8379" width="50.1103" height="61.901" rx="25.0551" transform="rotate(-41.4697 587.844 64.8379)" fill="#B78881"/>
<rect width="97.2729" height="88.4299" rx="36.8962" transform="matrix(-0.749306 -0.662224 -0.662224 0.749306 959.896 64.4155)" fill="#9C716A"/>
<rect width="50.1103" height="61.901" rx="25.0551" transform="matrix(-0.749306 -0.662224 -0.662224 0.749306 928.052 61.835)" fill="#B78881"/>
<path d="M685.972 29.5981C637.274 40.4704 604.997 60.984 596.72 104.438L577.062 207.654C566.202 264.673 609.174 317.618 666.314 317.618H738.344C743.104 318.4 747.987 318.807 752.965 318.807H849.695C906.799 318.807 949.763 265.924 938.964 208.93L919.182 104.525C910.94 61.0305 875.792 42.2243 829.913 29.5981C784.033 16.9718 734.671 18.7257 685.972 29.5981Z" fill="#9C716A"/>
<path d="M685.972 29.5981C637.274 40.4704 604.997 60.984 596.72 104.438L577.062 207.654C566.202 264.673 609.174 317.618 666.314 317.618H738.344C743.104 318.4 747.987 318.807 752.965 318.807H849.695C906.799 318.807 949.763 265.924 938.964 208.93L919.182 104.525C910.94 61.0305 875.792 42.2243 829.913 29.5981C784.033 16.9718 734.671 18.7257 685.972 29.5981Z" fill="url(#paint56_linear)" fill-opacity="0.2"/>
<path d="M707 76.589C707 67.4266 698.046 59.999 687 59.999C675.955 59.999 667 67.4266 667 76.589C667 85.7514 675.955 89.999 687 89.999C698.046 89.999 707 85.7514 707 76.589Z" fill="#372831"/>
<g filter="url(#filter9_d)">
<path d="M693.143 78L691 80.9735L693.143 84L695 80.9735L693.143 78Z" fill="white"/>
</g>
<g filter="url(#filter10_d)">
<path d="M682.919 64L681.349 69.6496L678 71.1628L681.349 72.0708L682.919 75.4L684.279 71.1628L687 69.6496H684.279L682.919 64Z" fill="white"/>
</g>
<path d="M808 76.589C808 67.4266 816.955 59.999 828 59.999C839.046 59.999 848 67.4266 848 76.589C848 85.7514 839.046 89.999 828 89.999C816.955 89.999 808 85.7514 808 76.589Z" fill="#372831"/>
<g filter="url(#filter11_d)">
<path d="M831.143 65L829 67.9735L831.143 71L833 67.9735L831.143 65Z" fill="white"/>
</g>
<g filter="url(#filter12_d)">
<path d="M821.143 78L819 80.9735L821.143 84L823 80.9735L821.143 78Z" fill="white"/>
</g>
<path d="M699.068 117.742C702.933 94.798 722.799 77.9985 746.066 77.9985H771.845C795.592 77.9985 815.716 95.4798 819.037 118.993L822.981 146.918C827.034 175.607 804.763 201.245 775.789 201.245H741.362C711.877 201.245 689.465 174.742 694.363 145.667L699.068 117.742Z" fill="#BB9F96"/>
<path d="M734.59 138.342C734.59 142.083 733.263 151.955 734.59 155.412C735.918 158.868 737.864 162.009 740.318 164.655C742.771 167.3 745.684 169.399 748.889 170.83C752.095 172.262 755.531 172.999 759 172.999C762.47 172.999 765.906 172.262 769.111 170.83C772.317 169.399 775.229 167.3 777.683 164.655C780.136 162.009 782.082 158.868 783.41 155.412C784.738 151.955 783.41 142.083 783.41 138.342L759 130.999L734.59 138.342Z" fill="#DB7E7E"/>
<path d="M795.5 131.499C787.742 141.54 760 132.449 760 124.081V103.999" stroke="#41302C" stroke-width="8.96339" stroke-linecap="round"/>
<path d="M724 131.499C731.759 141.54 759.5 132.449 759.5 124.081V103.999" stroke="#41302C" stroke-width="8.96339" stroke-linecap="round"/>
<path d="M735.927 108.545C732.416 102.545 736.743 94.999 743.695 94.999H772.694C779.777 94.999 784.085 102.803 780.309 108.796V108.796C778.661 111.412 775.786 112.999 772.694 112.999H743.695C740.499 112.999 737.542 111.304 735.927 108.545V108.545Z" fill="#41302C"/>
<rect x="643" y="44.9988" width="45.0275" height="19.5854" rx="9.79269" transform="rotate(-12.718 643 44.9988)" fill="#41302C"/>
<rect width="45.0275" height="19.5854" rx="9.79269" transform="matrix(-0.975465 -0.220153 -0.220153 0.975465 873.469 44.9988)" fill="#41302C"/>
<path d="M583 230.499C583 230.499 683.919 272.869 764.578 272.869C845.237 272.869 934 238.499 934 238.499C953.158 221.916 958.738 250.878 968.112 272.869C978.724 297.764 982.458 332.724 977.934 344.576C969.415 366.897 944.815 410.681 764.578 410.681C584.34 410.681 532.954 354.629 525.275 338.913C517.596 323.196 537.321 192.405 583 230.499Z" fill="url(#paint57_linear)"/>
<g style="mix-blend-mode:overlay" opacity="0.35">
<path d="M623.32 299.082C637.518 286.69 656.147 280.713 674.992 280.713H869.949C883.745 280.713 897.531 283.823 909.295 291.028C1043.74 373.371 1025.32 525.061 1004.61 749.299C1001 788.316 971.907 820.221 932.962 824.538C889.895 829.311 828.871 834.203 759.626 834.203C694.139 834.203 636.005 829.828 593.459 825.315C551.245 820.838 521.177 784.284 520.075 741.847C515.243 555.749 489.246 416.093 623.32 299.082Z" fill="url(#paint58_linear)"/>
<path d="M961.662 314.781C950.316 299.72 928.46 300.697 917.315 318.041C894.37 353.751 882.673 403.427 869.22 438.814C858.701 466.481 841.103 509.189 848.127 536.362L857.155 571.294C862.365 591.454 881.438 603.414 902.238 599.565L997.18 581.993C1014.15 578.852 1029.06 565.781 1031.46 548.322C1043.29 462.401 997.504 362.359 961.662 314.781Z" fill="url(#paint59_linear)"/>
<path d="M868.548 511.136C866.061 499.526 853.106 494.703 842.705 501.512L832.045 508.491C826.978 511.809 823.868 517.577 823.97 523.469C824.136 533.036 832.512 539.491 841.794 537.204L853.817 534.242C863.942 531.748 870.696 521.155 868.548 511.136Z" fill="url(#paint60_linear)"/>
<path d="M837.119 524.152C836.269 522.449 834.215 521.891 832.503 522.9L823.95 527.941C822.982 528.511 822.405 529.626 822.502 530.737C822.645 532.383 824.178 533.376 825.717 532.819L834.893 529.499C837.03 528.726 838.109 526.135 837.119 524.152Z" fill="url(#paint61_linear)"/>
<path d="M870.789 542.508C868.301 530.899 855.347 526.075 844.946 532.884L834.286 539.863C829.219 543.181 826.109 548.949 826.211 554.841C826.377 564.409 834.753 570.863 844.034 568.577L856.058 565.614C866.183 563.12 872.936 552.527 870.789 542.508Z" fill="url(#paint62_linear)"/>
<path d="M839.36 555.524C838.51 553.821 836.456 553.264 834.744 554.272L826.191 559.313C825.223 559.884 824.646 560.998 824.742 562.109C824.886 563.755 826.419 564.748 827.957 564.192L837.134 560.871C839.271 560.098 840.35 557.507 839.36 555.524Z" fill="url(#paint63_linear)"/>
<path d="M881.993 573.879C879.506 562.27 866.551 557.446 856.15 564.256L845.49 571.235C840.423 574.552 837.313 580.321 837.415 586.212C837.581 595.78 845.957 602.235 855.239 599.948L867.262 596.986C877.388 594.491 884.141 583.899 881.993 573.879Z" fill="url(#paint64_linear)"/>
<path d="M850.565 586.896C849.714 585.192 847.66 584.635 845.948 585.644L837.395 590.685C836.427 591.255 835.85 592.37 835.947 593.48C836.09 595.127 837.623 596.12 839.162 595.563L848.338 592.243C850.475 591.469 851.554 588.879 850.565 586.896Z" fill="url(#paint65_linear)"/>
<path d="M542.375 314.781C553.721 299.72 575.578 300.697 586.722 318.041C609.667 353.751 621.365 403.427 634.818 438.814C645.336 466.481 662.934 509.189 655.911 536.362L646.883 571.294C641.672 591.454 622.599 603.414 601.799 599.565L506.858 581.993C489.886 578.852 474.981 565.781 472.577 548.322C460.746 462.401 506.533 362.359 542.375 314.781Z" fill="url(#paint66_linear)"/>
<path d="M635.489 511.136C637.977 499.526 650.932 494.703 661.333 501.512L671.993 508.491C677.06 511.809 680.17 517.577 680.067 523.469C679.901 533.036 671.526 539.491 662.244 537.204L650.22 534.242C640.095 531.748 633.342 521.155 635.489 511.136Z" fill="url(#paint67_linear)"/>
<path d="M666.918 524.152C667.768 522.449 669.823 521.891 671.535 522.9L680.088 527.941C681.055 528.511 681.633 529.626 681.536 530.737C681.393 532.383 679.86 533.376 678.321 532.819L669.145 529.499C667.008 528.726 665.929 526.135 666.918 524.152Z" fill="url(#paint68_linear)"/>
<path d="M633.248 542.508C635.736 530.899 648.691 526.075 659.092 532.884L669.752 539.863C674.819 543.181 677.929 548.949 677.827 554.841C677.66 564.409 669.285 570.863 660.003 568.577L647.98 565.614C637.854 563.12 631.101 552.527 633.248 542.508Z" fill="url(#paint69_linear)"/>
<path d="M664.677 555.524C665.528 553.821 667.582 553.264 669.294 554.272L677.847 559.313C678.814 559.884 679.392 560.998 679.295 562.109C679.152 563.755 677.619 564.748 676.08 564.192L666.904 560.871C664.767 560.098 663.688 557.507 664.677 555.524Z" fill="url(#paint70_linear)"/>
<path d="M622.044 573.879C624.532 562.27 637.486 557.446 647.888 564.256L658.547 571.235C663.615 574.552 666.725 580.321 666.622 586.212C666.456 595.78 658.081 602.235 648.799 599.948L636.775 596.986C626.65 594.491 619.897 583.899 622.044 573.879Z" fill="url(#paint71_linear)"/>
<path d="M653.473 586.896C654.323 585.192 656.378 584.635 658.089 585.644L666.643 590.685C667.61 591.255 668.188 592.37 668.091 593.48C667.948 595.127 666.415 596.12 664.876 595.563L655.7 592.243C653.563 591.469 652.484 588.879 653.473 586.896Z" fill="url(#paint72_linear)"/>
<path d="M580.434 92.0631C566.94 76.7943 568.378 53.4773 583.647 39.983L601.241 24.4337C616.51 10.9394 639.827 12.3779 653.321 27.6467L663.014 38.6147C676.509 53.8834 675.07 77.2005 659.801 90.6948L642.207 106.244C626.939 119.738 603.621 118.3 590.127 103.031L580.434 92.0631Z" fill="url(#paint73_linear)"/>
<path d="M604.436 83.6129C595.273 73.2443 596.25 57.4104 606.618 48.2468C616.987 39.0832 632.821 40.0601 641.984 50.4287L649.792 59.2635C658.956 69.6321 657.979 85.466 647.611 94.6296C637.242 103.793 621.408 102.816 612.245 92.4477L604.436 83.6129Z" fill="url(#paint74_linear)"/>
<path d="M935.462 92.0632C948.956 76.7944 947.518 53.4774 932.249 39.9831L914.655 24.4338C899.386 10.9395 876.069 12.378 862.575 27.6468L852.882 38.6147C839.387 53.8835 840.826 77.2006 856.095 90.6949L873.689 106.244C888.957 119.738 912.275 118.3 925.769 103.031L935.462 92.0632Z" fill="url(#paint75_linear)"/>
<path d="M911.459 80.6101C920.623 70.2415 919.646 54.4075 909.278 45.244C898.909 36.0804 883.075 37.0573 873.911 47.4259L866.103 56.2607C856.94 66.6293 857.917 82.4632 868.285 91.6267C878.654 100.79 894.488 99.8135 903.651 89.4449L911.459 80.6101Z" fill="url(#paint76_linear)"/>
<path d="M685.972 29.5991C637.274 40.4715 604.997 60.9851 596.72 104.439L577.062 207.655C566.202 264.674 609.174 317.619 666.314 317.619H738.344C743.104 318.401 747.987 318.808 752.965 318.808H849.695C906.799 318.808 949.763 265.925 938.964 208.932L919.182 104.527C910.94 61.0316 875.792 42.2254 829.913 29.5991C784.033 16.9729 734.671 18.7268 685.972 29.5991Z" fill="url(#paint77_linear)"/>
<path d="M707 76.5901C707 67.4277 698.046 60.0001 687 60.0001C675.955 60.0001 667 67.4277 667 76.5901C667 85.7525 675.955 90.0001 687 90.0001C698.046 90.0001 707 85.7525 707 76.5901Z" fill="url(#paint78_linear)"/>
<path d="M693.143 78.0011L691 80.9746L693.143 84.0011L695 80.9746L693.143 78.0011Z" fill="url(#paint79_linear)"/>
<path d="M682.919 64.0011L681.349 69.6507L678 71.1639L681.349 72.0719L682.919 75.4011L684.279 71.1639L687 69.6507H684.279L682.919 64.0011Z" fill="url(#paint80_linear)"/>
<path d="M808 76.5901C808 67.4277 816.955 60.0001 828 60.0001C839.046 60.0001 848 67.4277 848 76.5901C848 85.7525 839.046 90.0001 828 90.0001C816.955 90.0001 808 85.7525 808 76.5901Z" fill="url(#paint81_linear)"/>
<path d="M831.143 65.0011L829 67.9746L831.143 71.0011L833 67.9746L831.143 65.0011Z" fill="url(#paint82_linear)"/>
<path d="M821.143 78.0011L819 80.9746L821.143 84.0011L823 80.9746L821.143 78.0011Z" fill="url(#paint83_linear)"/>
<path d="M699.068 117.743C702.933 94.7992 722.8 77.9998 746.066 77.9998H771.845C795.592 77.9998 815.716 95.481 819.037 118.994L822.982 146.92C827.034 175.608 804.763 201.246 775.789 201.246H741.362C711.877 201.246 689.465 174.744 694.363 145.668L699.068 117.743Z" fill="url(#paint84_linear)"/>
<path d="M734.59 138.343C734.59 142.084 733.263 151.957 734.59 155.413C735.918 158.87 737.864 162.01 740.318 164.656C742.771 167.301 745.684 169.4 748.889 170.832C752.095 172.263 755.531 173 759 173C762.47 173 765.906 172.263 769.111 170.832C772.317 169.4 775.229 167.301 777.683 164.656C780.136 162.01 782.082 158.87 783.41 155.413C784.738 151.957 783.41 142.084 783.41 138.343L759 131L734.59 138.343Z" fill="url(#paint85_linear)"/>
<path d="M735.927 108.546C732.416 102.546 736.743 95.0003 743.695 95.0003H772.694C779.778 95.0003 784.085 102.804 780.309 108.797C778.662 111.413 775.786 113 772.694 113H743.695C740.499 113 737.542 111.305 735.927 108.546Z" fill="url(#paint86_linear)"/>
<path d="M645.156 54.5522C643.966 49.2766 647.277 44.0346 652.553 42.8439L677.371 37.2427C682.646 36.052 687.888 39.3636 689.079 44.6393C690.27 49.9149 686.958 55.1569 681.682 56.3476L656.865 61.9488C651.589 63.1394 646.347 59.8279 645.156 54.5522Z" fill="url(#paint87_linear)"/>
<path d="M871.314 54.5522C872.504 49.2766 869.193 44.0346 863.917 42.8439L839.099 37.2427C833.824 36.052 828.582 39.3636 827.391 44.6393C826.2 49.9149 829.512 55.1569 834.787 56.3476L859.605 61.9488C864.881 63.1394 870.123 59.8279 871.314 54.5522Z" fill="url(#paint88_linear)"/>
<path d="M583 230.5C583 230.5 683.919 272.87 764.578 272.87C845.237 272.87 934 238.5 934 238.5C953.158 221.917 958.738 250.879 968.113 272.87C978.724 297.765 982.458 332.726 977.935 344.577C969.415 366.899 944.815 410.682 764.578 410.682C584.34 410.682 532.954 354.631 525.275 338.914C517.596 323.197 537.321 192.406 583 230.5Z" fill="url(#paint89_linear)"/>
</g>
</g>
<defs>
<filter id="filter0_d" x="45.4657" y="68.4434" width="532.073" height="643.34" filterUnits="userSpaceOnUse" color-interpolation-filters="sRGB">
<feFlood flood-opacity="0" result="BackgroundImageFix"/>
<feColorMatrix in="SourceAlpha" type="matrix" values="0 0 0 0 0 0 0 0 0 0 0 0 0 0 0 0 0 0 127 0" result="hardAlpha"/>
<feOffset dy="11.2042"/>
<feGaussianBlur stdDeviation="4.4817"/>
<feComposite in2="hardAlpha" operator="out"/>
<feColorMatrix type="matrix" values="0 0 0 0 0 0 0 0 0 0 0 0 0 0 0 0 0 0 0.25 0"/>
<feBlend mode="normal" in2="BackgroundImageFix" result="effect1_dropShadow"/>
<feBlend mode="normal" in="SourceGraphic" in2="effect1_dropShadow" result="shape"/>
</filter>
<filter id="filter1_d" x="370.429" y="167.429" width="9.71429" height="11.7143" filterUnits="userSpaceOnUse" color-interpolation-filters="sRGB">
<feFlood flood-opacity="0" result="BackgroundImageFix"/>
<feColorMatrix in="SourceAlpha" type="matrix" values="0 0 0 0 0 0 0 0 0 0 0 0 0 0 0 0 0 0 127 0" result="hardAlpha"/>
<feOffset dx="0.285714" dy="0.285714"/>
<feGaussianBlur stdDeviation="1.42857"/>
<feColorMatrix type="matrix" values="0 0 0 0 1 0 0 0 0 1 0 0 0 0 1 0 0 0 0.8 0"/>
<feBlend mode="normal" in2="BackgroundImageFix" result="effect1_dropShadow"/>
<feBlend mode="normal" in="SourceGraphic" in2="effect1_dropShadow" result="shape"/>
</filter>
<filter id="filter2_d" x="359.429" y="173.429" width="9.71429" height="11.7143" filterUnits="userSpaceOnUse" color-interpolation-filters="sRGB">
<feFlood flood-opacity="0" result="BackgroundImageFix"/>
<feColorMatrix in="SourceAlpha" type="matrix" values="0 0 0 0 0 0 0 0 0 0 0 0 0 0 0 0 0 0 127 0" result="hardAlpha"/>
<feOffset dx="0.285714" dy="0.285714"/>
<feGaussianBlur stdDeviation="1.42857"/>
<feColorMatrix type="matrix" values="0 0 0 0 1 0 0 0 0 1 0 0 0 0 1 0 0 0 0.8 0"/>
<feBlend mode="normal" in2="BackgroundImageFix" result="effect1_dropShadow"/>
<feBlend mode="normal" in="SourceGraphic" in2="effect1_dropShadow" result="shape"/>
</filter>
<filter id="filter3_d" x="262.429" y="180.429" width="9.71429" height="11.7143" filterUnits="userSpaceOnUse" color-interpolation-filters="sRGB">
<feFlood flood-opacity="0" result="BackgroundImageFix"/>
<feColorMatrix in="SourceAlpha" type="matrix" values="0 0 0 0 0 0 0 0 0 0 0 0 0 0 0 0 0 0 127 0" result="hardAlpha"/>
<feOffset dx="0.285714" dy="0.285714"/>
<feGaussianBlur stdDeviation="1.42857"/>
<feColorMatrix type="matrix" values="0 0 0 0 1 0 0 0 0 1 0 0 0 0 1 0 0 0 0.8 0"/>
<feBlend mode="normal" in2="BackgroundImageFix" result="effect1_dropShadow"/>
<feBlend mode="normal" in="SourceGraphic" in2="effect1_dropShadow" result="shape"/>
</filter>
<filter id="filter4_d" x="940.203" y="103.709" width="415.05" height="492.772" filterUnits="userSpaceOnUse" color-interpolation-filters="sRGB">
<feFlood flood-opacity="0" result="BackgroundImageFix"/>
<feColorMatrix in="SourceAlpha" type="matrix" values="0 0 0 0 0 0 0 0 0 0 0 0 0 0 0 0 0 0 127 0" result="hardAlpha"/>
<feOffset dy="11.2042"/>
<feGaussianBlur stdDeviation="4.4817"/>
<feComposite in2="hardAlpha" operator="out"/>
<feColorMatrix type="matrix" values="0 0 0 0 0 0 0 0 0 0 0 0 0 0 0 0 0 0 0.25 0"/>
<feBlend mode="normal" in2="BackgroundImageFix" result="effect1_dropShadow"/>
<feBlend mode="normal" in="SourceGraphic" in2="effect1_dropShadow" result="shape"/>
</filter>
<filter id="filter5_d" x="1120.43" y="186.429" width="9.71429" height="11.7143" filterUnits="userSpaceOnUse" color-interpolation-filters="sRGB">
<feFlood flood-opacity="0" result="BackgroundImageFix"/>
<feColorMatrix in="SourceAlpha" type="matrix" values="0 0 0 0 0 0 0 0 0 0 0 0 0 0 0 0 0 0 127 0" result="hardAlpha"/>
<feOffset dx="0.285714" dy="0.285714"/>
<feGaussianBlur stdDeviation="1.42857"/>
<feColorMatrix type="matrix" values="0 0 0 0 1 0 0 0 0 1 0 0 0 0 1 0 0 0 0.8 0"/>
<feBlend mode="normal" in2="BackgroundImageFix" result="effect1_dropShadow"/>
<feBlend mode="normal" in="SourceGraphic" in2="effect1_dropShadow" result="shape"/>
</filter>
<filter id="filter6_d" x="1106.43" y="190.429" width="9.71429" height="11.7143" filterUnits="userSpaceOnUse" color-interpolation-filters="sRGB">
<feFlood flood-opacity="0" result="BackgroundImageFix"/>
<feColorMatrix in="SourceAlpha" type="matrix" values="0 0 0 0 0 0 0 0 0 0 0 0 0 0 0 0 0 0 127 0" result="hardAlpha"/>
<feOffset dx="0.285714" dy="0.285714"/>
<feGaussianBlur stdDeviation="1.42857"/>
<feColorMatrix type="matrix" values="0 0 0 0 1 0 0 0 0 1 0 0 0 0 1 0 0 0 0.8 0"/>
<feBlend mode="normal" in2="BackgroundImageFix" result="effect1_dropShadow"/>
<feBlend mode="normal" in="SourceGraphic" in2="effect1_dropShadow" result="shape"/>
</filter>
<filter id="filter7_d" x="1215.9" y="198.9" width="11.6667" height="13.5334" filterUnits="userSpaceOnUse" color-interpolation-filters="sRGB">
<feFlood flood-opacity="0" result="BackgroundImageFix"/>
<feColorMatrix in="SourceAlpha" type="matrix" values="0 0 0 0 0 0 0 0 0 0 0 0 0 0 0 0 0 0 127 0" result="hardAlpha"/>
<feOffset dx="0.233333" dy="0.233333"/>
<feGaussianBlur stdDeviation="1.16667"/>
<feColorMatrix type="matrix" values="0 0 0 0 1 0 0 0 0 1 0 0 0 0 1 0 0 0 0.8 0"/>
<feBlend mode="normal" in2="BackgroundImageFix" result="effect1_dropShadow"/>
<feBlend mode="normal" in="SourceGraphic" in2="effect1_dropShadow" result="shape"/>
</filter>
<filter id="filter8_d" x="461.71" y="-0.000976562" width="580.617" height="854.371" filterUnits="userSpaceOnUse" color-interpolation-filters="sRGB">
<feFlood flood-opacity="0" result="BackgroundImageFix"/>
<feColorMatrix in="SourceAlpha" type="matrix" values="0 0 0 0 0 0 0 0 0 0 0 0 0 0 0 0 0 0 127 0" result="hardAlpha"/>
<feOffset dy="11.2042"/>
<feGaussianBlur stdDeviation="4.4817"/>
<feComposite in2="hardAlpha" operator="out"/>
<feColorMatrix type="matrix" values="0 0 0 0 0 0 0 0 0 0 0 0 0 0 0 0 0 0 0.25 0"/>
<feBlend mode="normal" in2="BackgroundImageFix" result="effect1_dropShadow"/>
<feBlend mode="normal" in="SourceGraphic" in2="effect1_dropShadow" result="shape"/>
</filter>
<filter id="filter9_d" x="688.429" y="75.4286" width="9.71429" height="11.7143" filterUnits="userSpaceOnUse" color-interpolation-filters="sRGB">
<feFlood flood-opacity="0" result="BackgroundImageFix"/>
<feColorMatrix in="SourceAlpha" type="matrix" values="0 0 0 0 0 0 0 0 0 0 0 0 0 0 0 0 0 0 127 0" result="hardAlpha"/>
<feOffset dx="0.285714" dy="0.285714"/>
<feGaussianBlur stdDeviation="1.42857"/>
<feColorMatrix type="matrix" values="0 0 0 0 1 0 0 0 0 1 0 0 0 0 1 0 0 0 0.8 0"/>
<feBlend mode="normal" in2="BackgroundImageFix" result="effect1_dropShadow"/>
<feBlend mode="normal" in="SourceGraphic" in2="effect1_dropShadow" result="shape"/>
</filter>
<filter id="filter10_d" x="675.3" y="61.3" width="15" height="17.3999" filterUnits="userSpaceOnUse" color-interpolation-filters="sRGB">
<feFlood flood-opacity="0" result="BackgroundImageFix"/>
<feColorMatrix in="SourceAlpha" type="matrix" values="0 0 0 0 0 0 0 0 0 0 0 0 0 0 0 0 0 0 127 0" result="hardAlpha"/>
<feOffset dx="0.3" dy="0.3"/>
<feGaussianBlur stdDeviation="1.5"/>
<feColorMatrix type="matrix" values="0 0 0 0 1 0 0 0 0 1 0 0 0 0 1 0 0 0 0.8 0"/>
<feBlend mode="normal" in2="BackgroundImageFix" result="effect1_dropShadow"/>
<feBlend mode="normal" in="SourceGraphic" in2="effect1_dropShadow" result="shape"/>
</filter>
<filter id="filter11_d" x="826.429" y="62.4286" width="9.71429" height="11.7143" filterUnits="userSpaceOnUse" color-interpolation-filters="sRGB">
<feFlood flood-opacity="0" result="BackgroundImageFix"/>
<feColorMatrix in="SourceAlpha" type="matrix" values="0 0 0 0 0 0 0 0 0 0 0 0 0 0 0 0 0 0 127 0" result="hardAlpha"/>
<feOffset dx="0.285714" dy="0.285714"/>
<feGaussianBlur stdDeviation="1.42857"/>
<feColorMatrix type="matrix" values="0 0 0 0 1 0 0 0 0 1 0 0 0 0 1 0 0 0 0.8 0"/>
<feBlend mode="normal" in2="BackgroundImageFix" result="effect1_dropShadow"/>
<feBlend mode="normal" in="SourceGraphic" in2="effect1_dropShadow" result="shape"/>
</filter>
<filter id="filter12_d" x="816.429" y="75.4286" width="9.71429" height="11.7143" filterUnits="userSpaceOnUse" color-interpolation-filters="sRGB">
<feFlood flood-opacity="0" result="BackgroundImageFix"/>
<feColorMatrix in="SourceAlpha" type="matrix" values="0 0 0 0 0 0 0 0 0 0 0 0 0 0 0 0 0 0 127 0" result="hardAlpha"/>
<feOffset dx="0.285714" dy="0.285714"/>
<feGaussianBlur stdDeviation="1.42857"/>
<feColorMatrix type="matrix" values="0 0 0 0 1 0 0 0 0 1 0 0 0 0 1 0 0 0 0.8 0"/>
<feBlend mode="normal" in2="BackgroundImageFix" result="effect1_dropShadow"/>
<feBlend mode="normal" in="SourceGraphic" in2="effect1_dropShadow" result="shape"/>
</filter>
<linearGradient id="paint0_linear" x1="327.105" y1="341.334" x2="334.922" y2="419.06" gradientUnits="userSpaceOnUse">
<stop stop-color="#AF6064"/>
<stop offset="1" stop-color="#945255"/>
</linearGradient>
<linearGradient id="paint1_linear" x1="320.166" y1="68.3037" x2="320.166" y2="323.197" gradientUnits="userSpaceOnUse">
<stop stop-color="#31FDE8"/>
<stop offset="1" stop-color="#042649"/>
</linearGradient>
<linearGradient id="paint2_linear" x1="320.166" y1="68.3037" x2="320.166" y2="323.197" gradientUnits="userSpaceOnUse">
<stop stop-color="#31FDE8"/>
<stop offset="1" stop-color="#042649"/>
</linearGradient>
<linearGradient id="paint3_linear" x1="320.166" y1="68.3037" x2="320.166" y2="323.197" gradientUnits="userSpaceOnUse">
<stop stop-color="#31FDE8"/>
<stop offset="1" stop-color="#042649"/>
</linearGradient>
<linearGradient id="paint4_linear" x1="320.166" y1="68.3037" x2="320.166" y2="323.197" gradientUnits="userSpaceOnUse">
<stop stop-color="#31FDE8"/>
<stop offset="1" stop-color="#042649"/>
</linearGradient>
<linearGradient id="paint5_linear" x1="320.166" y1="68.3037" x2="320.166" y2="323.197" gradientUnits="userSpaceOnUse">
<stop stop-color="#31FDE8"/>
<stop offset="1" stop-color="#042649"/>
</linearGradient>
<linearGradient id="paint6_linear" x1="320.166" y1="68.3037" x2="320.166" y2="323.197" gradientUnits="userSpaceOnUse">
<stop stop-color="#31FDE8"/>
<stop offset="1" stop-color="#042649"/>
</linearGradient>
<linearGradient id="paint7_linear" x1="320.166" y1="68.3037" x2="320.166" y2="323.197" gradientUnits="userSpaceOnUse">
<stop stop-color="#31FDE8"/>
<stop offset="1" stop-color="#042649"/>
</linearGradient>
<linearGradient id="paint8_linear" x1="320.166" y1="68.3037" x2="320.166" y2="323.197" gradientUnits="userSpaceOnUse">
<stop stop-color="#31FDE8"/>
<stop offset="1" stop-color="#042649"/>
</linearGradient>
<linearGradient id="paint9_linear" x1="320.166" y1="68.3037" x2="320.166" y2="323.197" gradientUnits="userSpaceOnUse">
<stop stop-color="#31FDE8"/>
<stop offset="1" stop-color="#042649"/>
</linearGradient>
<linearGradient id="paint10_linear" x1="320.166" y1="68.3037" x2="320.166" y2="323.197" gradientUnits="userSpaceOnUse">
<stop stop-color="#31FDE8"/>
<stop offset="1" stop-color="#042649"/>
</linearGradient>
<linearGradient id="paint11_linear" x1="320.166" y1="68.3037" x2="320.166" y2="323.197" gradientUnits="userSpaceOnUse">
<stop stop-color="#31FDE8"/>
<stop offset="1" stop-color="#042649"/>
</linearGradient>
<linearGradient id="paint12_linear" x1="320.166" y1="68.3037" x2="320.166" y2="323.197" gradientUnits="userSpaceOnUse">
<stop stop-color="#31FDE8"/>
<stop offset="1" stop-color="#042649"/>
</linearGradient>
<linearGradient id="paint13_linear" x1="320.166" y1="68.3037" x2="320.166" y2="323.197" gradientUnits="userSpaceOnUse">
<stop stop-color="#31FDE8"/>
<stop offset="1" stop-color="#042649"/>
</linearGradient>
<linearGradient id="paint14_linear" x1="320.166" y1="68.3037" x2="320.166" y2="323.197" gradientUnits="userSpaceOnUse">
<stop stop-color="#31FDE8"/>
<stop offset="1" stop-color="#042649"/>
</linearGradient>
<linearGradient id="paint15_linear" x1="320.166" y1="68.3037" x2="320.166" y2="323.197" gradientUnits="userSpaceOnUse">
<stop stop-color="#31FDE8"/>
<stop offset="1" stop-color="#042649"/>
</linearGradient>
<linearGradient id="paint16_linear" x1="320.166" y1="68.3037" x2="320.166" y2="323.197" gradientUnits="userSpaceOnUse">
<stop stop-color="#31FDE8"/>
<stop offset="1" stop-color="#042649"/>
</linearGradient>
<linearGradient id="paint17_linear" x1="320.166" y1="68.3037" x2="320.166" y2="323.197" gradientUnits="userSpaceOnUse">
<stop stop-color="#31FDE8"/>
<stop offset="1" stop-color="#042649"/>
</linearGradient>
<linearGradient id="paint18_linear" x1="320.166" y1="68.3037" x2="320.166" y2="323.197" gradientUnits="userSpaceOnUse">
<stop stop-color="#31FDE8"/>
<stop offset="1" stop-color="#042649"/>
</linearGradient>
<linearGradient id="paint19_linear" x1="320.166" y1="68.3037" x2="320.166" y2="323.197" gradientUnits="userSpaceOnUse">
<stop stop-color="#31FDE8"/>
<stop offset="1" stop-color="#042649"/>
</linearGradient>
<linearGradient id="paint20_linear" x1="320.166" y1="68.3037" x2="320.166" y2="323.197" gradientUnits="userSpaceOnUse">
<stop stop-color="#31FDE8"/>
<stop offset="1" stop-color="#042649"/>
</linearGradient>
<linearGradient id="paint21_linear" x1="320.166" y1="68.3037" x2="320.166" y2="323.197" gradientUnits="userSpaceOnUse">
<stop stop-color="#31FDE8"/>
<stop offset="1" stop-color="#042649"/>
</linearGradient>
<linearGradient id="paint22_linear" x1="320.166" y1="68.3037" x2="320.166" y2="323.197" gradientUnits="userSpaceOnUse">
<stop stop-color="#31FDE8"/>
<stop offset="1" stop-color="#042649"/>
</linearGradient>
<linearGradient id="paint23_linear" x1="320.166" y1="68.3037" x2="320.166" y2="323.197" gradientUnits="userSpaceOnUse">
<stop stop-color="#31FDE8"/>
<stop offset="1" stop-color="#042649"/>
</linearGradient>
<linearGradient id="paint24_linear" x1="320.166" y1="68.3037" x2="320.166" y2="323.197" gradientUnits="userSpaceOnUse">
<stop stop-color="#31FDE8"/>
<stop offset="1" stop-color="#042649"/>
</linearGradient>
<linearGradient id="paint25_linear" x1="320.166" y1="68.3037" x2="320.166" y2="323.197" gradientUnits="userSpaceOnUse">
<stop stop-color="#31FDE8"/>
<stop offset="1" stop-color="#042649"/>
</linearGradient>
<linearGradient id="paint26_linear" x1="320.166" y1="68.3037" x2="320.166" y2="323.197" gradientUnits="userSpaceOnUse">
<stop stop-color="#31FDE8"/>
<stop offset="1" stop-color="#042649"/>
</linearGradient>
<linearGradient id="paint27_linear" x1="1049.29" y1="205.027" x2="1016.01" y2="183.376" gradientUnits="userSpaceOnUse">
<stop stop-color="#AD806B"/>
<stop offset="1" stop-color="#C99A81"/>
</linearGradient>
<linearGradient id="paint28_linear" x1="1288.04" y1="236.326" x2="1325.78" y2="223.986" gradientUnits="userSpaceOnUse">
<stop stop-color="#AD806B"/>
<stop offset="1" stop-color="#C99A81"/>
</linearGradient>
<linearGradient id="paint29_linear" x1="1171.07" y1="260.513" x2="1160.63" y2="340.189" gradientUnits="userSpaceOnUse">
<stop stop-color="#E69A80"/>
<stop offset="1" stop-color="#C16241"/>
</linearGradient>
<linearGradient id="paint30_linear" x1="1261.7" y1="367.932" x2="1198.37" y2="445.429" gradientUnits="userSpaceOnUse">
<stop stop-color="#AD806B"/>
<stop offset="1" stop-color="#C99A81"/>
</linearGradient>
<linearGradient id="paint31_linear" x1="1146.04" y1="106.407" x2="1146.04" y2="294.944" gradientUnits="userSpaceOnUse">
<stop stop-color="#31FDE8"/>
<stop offset="1" stop-color="#042649"/>
</linearGradient>
<linearGradient id="paint32_linear" x1="1146.04" y1="106.407" x2="1146.04" y2="294.944" gradientUnits="userSpaceOnUse">
<stop stop-color="#31FDE8"/>
<stop offset="1" stop-color="#042649"/>
</linearGradient>
<linearGradient id="paint33_linear" x1="1146.04" y1="106.407" x2="1146.04" y2="294.944" gradientUnits="userSpaceOnUse">
<stop stop-color="#31FDE8"/>
<stop offset="1" stop-color="#042649"/>
</linearGradient>
<linearGradient id="paint34_linear" x1="1146.04" y1="106.407" x2="1146.04" y2="294.944" gradientUnits="userSpaceOnUse">
<stop stop-color="#31FDE8"/>
<stop offset="1" stop-color="#042649"/>
</linearGradient>
<linearGradient id="paint35_linear" x1="1146.04" y1="106.407" x2="1146.04" y2="294.944" gradientUnits="userSpaceOnUse">
<stop stop-color="#31FDE8"/>
<stop offset="1" stop-color="#042649"/>
</linearGradient>
<linearGradient id="paint36_linear" x1="1146.04" y1="106.407" x2="1146.04" y2="294.944" gradientUnits="userSpaceOnUse">
<stop stop-color="#31FDE8"/>
<stop offset="1" stop-color="#042649"/>
</linearGradient>
<linearGradient id="paint37_linear" x1="1146.04" y1="106.407" x2="1146.04" y2="294.944" gradientUnits="userSpaceOnUse">
<stop stop-color="#31FDE8"/>
<stop offset="1" stop-color="#042649"/>
</linearGradient>
<linearGradient id="paint38_linear" x1="1146.04" y1="106.407" x2="1146.04" y2="294.944" gradientUnits="userSpaceOnUse">
<stop stop-color="#31FDE8"/>
<stop offset="1" stop-color="#042649"/>
</linearGradient>
<linearGradient id="paint39_linear" x1="1146.04" y1="106.407" x2="1146.04" y2="294.944" gradientUnits="userSpaceOnUse">
<stop stop-color="#31FDE8"/>
<stop offset="1" stop-color="#042649"/>
</linearGradient>
<linearGradient id="paint40_linear" x1="1146.04" y1="106.407" x2="1146.04" y2="294.944" gradientUnits="userSpaceOnUse">
<stop stop-color="#31FDE8"/>
<stop offset="1" stop-color="#042649"/>
</linearGradient>
<linearGradient id="paint41_linear" x1="1146.04" y1="106.407" x2="1146.04" y2="294.944" gradientUnits="userSpaceOnUse">
<stop stop-color="#31FDE8"/>
<stop offset="1" stop-color="#042649"/>
</linearGradient>
<linearGradient id="paint42_linear" x1="1146.04" y1="106.407" x2="1146.04" y2="294.944" gradientUnits="userSpaceOnUse">
<stop stop-color="#31FDE8"/>
<stop offset="1" stop-color="#042649"/>
</linearGradient>
<linearGradient id="paint43_linear" x1="1146.04" y1="106.407" x2="1146.04" y2="294.944" gradientUnits="userSpaceOnUse">
<stop stop-color="#31FDE8"/>
<stop offset="1" stop-color="#042649"/>
</linearGradient>
<linearGradient id="paint44_linear" x1="1146.04" y1="106.407" x2="1146.04" y2="294.944" gradientUnits="userSpaceOnUse">
<stop stop-color="#31FDE8"/>
<stop offset="1" stop-color="#042649"/>
</linearGradient>
<linearGradient id="paint45_linear" x1="1146.04" y1="106.407" x2="1146.04" y2="294.944" gradientUnits="userSpaceOnUse">
<stop stop-color="#31FDE8"/>
<stop offset="1" stop-color="#042649"/>
</linearGradient>
<linearGradient id="paint46_linear" x1="1146.04" y1="106.407" x2="1146.04" y2="294.944" gradientUnits="userSpaceOnUse">
<stop stop-color="#31FDE8"/>
<stop offset="1" stop-color="#042649"/>
</linearGradient>
<linearGradient id="paint47_linear" x1="1146.04" y1="106.407" x2="1146.04" y2="294.944" gradientUnits="userSpaceOnUse">
<stop stop-color="#31FDE8"/>
<stop offset="1" stop-color="#042649"/>
</linearGradient>
<linearGradient id="paint48_linear" x1="1146.04" y1="106.407" x2="1146.04" y2="294.944" gradientUnits="userSpaceOnUse">
<stop stop-color="#31FDE8"/>
<stop offset="1" stop-color="#042649"/>
</linearGradient>
<linearGradient id="paint49_linear" x1="766.967" y1="280.712" x2="768.088" y2="834.202" gradientUnits="userSpaceOnUse">
<stop offset="0.225658" stop-color="#9C716A"/>
<stop offset="1" stop-color="#B78881"/>
</linearGradient>
<linearGradient id="paint50_linear" x1="863.803" y1="510.417" x2="826.322" y2="529.548" gradientUnits="userSpaceOnUse">
<stop stop-color="#B78881"/>
<stop offset="1" stop-color="#BB9F96"/>
</linearGradient>
<linearGradient id="paint51_linear" x1="866.043" y1="541.789" x2="828.563" y2="560.92" gradientUnits="userSpaceOnUse">
<stop stop-color="#B78881"/>
<stop offset="1" stop-color="#BB9F96"/>
</linearGradient>
<linearGradient id="paint52_linear" x1="877.247" y1="573.161" x2="839.767" y2="592.291" gradientUnits="userSpaceOnUse">
<stop stop-color="#B78881"/>
<stop offset="1" stop-color="#BB9F96"/>
</linearGradient>
<linearGradient id="paint53_linear" x1="640.235" y1="510.417" x2="677.715" y2="529.548" gradientUnits="userSpaceOnUse">
<stop stop-color="#B78881"/>
<stop offset="1" stop-color="#BB9F96"/>
</linearGradient>
<linearGradient id="paint54_linear" x1="637.994" y1="541.789" x2="675.474" y2="560.92" gradientUnits="userSpaceOnUse">
<stop stop-color="#B78881"/>
<stop offset="1" stop-color="#BB9F96"/>
</linearGradient>
<linearGradient id="paint55_linear" x1="626.79" y1="573.161" x2="664.27" y2="592.291" gradientUnits="userSpaceOnUse">
<stop stop-color="#B78881"/>
<stop offset="1" stop-color="#BB9F96"/>
</linearGradient>
<linearGradient id="paint56_linear" x1="758.004" y1="20.7739" x2="758.004" y2="318.807" gradientUnits="userSpaceOnUse">
<stop stop-color="#B78881"/>
<stop offset="1" stop-color="#9C716A"/>
</linearGradient>
<linearGradient id="paint57_linear" x1="751.829" y1="237.244" x2="751.829" y2="410.681" gradientUnits="userSpaceOnUse">
<stop stop-color="#77AEBB"/>
<stop offset="1" stop-color="#51818C"/>
</linearGradient>
<linearGradient id="paint58_linear" x1="761.5" y1="15" x2="761.5" y2="350" gradientUnits="userSpaceOnUse">
<stop stop-color="#31FDE8"/>
<stop offset="1" stop-color="#042649"/>
</linearGradient>
<linearGradient id="paint59_linear" x1="761.5" y1="15" x2="761.5" y2="350" gradientUnits="userSpaceOnUse">
<stop stop-color="#31FDE8"/>
<stop offset="1" stop-color="#042649"/>
</linearGradient>
<linearGradient id="paint60_linear" x1="761.5" y1="15" x2="761.5" y2="350" gradientUnits="userSpaceOnUse">
<stop stop-color="#31FDE8"/>
<stop offset="1" stop-color="#042649"/>
</linearGradient>
<linearGradient id="paint61_linear" x1="761.5" y1="15" x2="761.5" y2="350" gradientUnits="userSpaceOnUse">
<stop stop-color="#31FDE8"/>
<stop offset="1" stop-color="#042649"/>
</linearGradient>
<linearGradient id="paint62_linear" x1="761.5" y1="15" x2="761.5" y2="350" gradientUnits="userSpaceOnUse">
<stop stop-color="#31FDE8"/>
<stop offset="1" stop-color="#042649"/>
</linearGradient>
<linearGradient id="paint63_linear" x1="761.5" y1="15" x2="761.5" y2="350" gradientUnits="userSpaceOnUse">
<stop stop-color="#31FDE8"/>
<stop offset="1" stop-color="#042649"/>
</linearGradient>
<linearGradient id="paint64_linear" x1="761.5" y1="15" x2="761.5" y2="350" gradientUnits="userSpaceOnUse">
<stop stop-color="#31FDE8"/>
<stop offset="1" stop-color="#042649"/>
</linearGradient>
<linearGradient id="paint65_linear" x1="761.5" y1="15" x2="761.5" y2="350" gradientUnits="userSpaceOnUse">
<stop stop-color="#31FDE8"/>
<stop offset="1" stop-color="#042649"/>
</linearGradient>
<linearGradient id="paint66_linear" x1="761.5" y1="15" x2="761.5" y2="350" gradientUnits="userSpaceOnUse">
<stop stop-color="#31FDE8"/>
<stop offset="1" stop-color="#042649"/>
</linearGradient>
<linearGradient id="paint67_linear" x1="761.5" y1="15" x2="761.5" y2="350" gradientUnits="userSpaceOnUse">
<stop stop-color="#31FDE8"/>
<stop offset="1" stop-color="#042649"/>
</linearGradient>
<linearGradient id="paint68_linear" x1="761.5" y1="15" x2="761.5" y2="350" gradientUnits="userSpaceOnUse">
<stop stop-color="#31FDE8"/>
<stop offset="1" stop-color="#042649"/>
</linearGradient>
<linearGradient id="paint69_linear" x1="761.5" y1="15" x2="761.5" y2="350" gradientUnits="userSpaceOnUse">
<stop stop-color="#31FDE8"/>
<stop offset="1" stop-color="#042649"/>
</linearGradient>
<linearGradient id="paint70_linear" x1="761.5" y1="15" x2="761.5" y2="350" gradientUnits="userSpaceOnUse">
<stop stop-color="#31FDE8"/>
<stop offset="1" stop-color="#042649"/>
</linearGradient>
<linearGradient id="paint71_linear" x1="761.5" y1="15" x2="761.5" y2="350" gradientUnits="userSpaceOnUse">
<stop stop-color="#31FDE8"/>
<stop offset="1" stop-color="#042649"/>
</linearGradient>
<linearGradient id="paint72_linear" x1="761.5" y1="15" x2="761.5" y2="350" gradientUnits="userSpaceOnUse">
<stop stop-color="#31FDE8"/>
<stop offset="1" stop-color="#042649"/>
</linearGradient>
<linearGradient id="paint73_linear" x1="761.5" y1="15" x2="761.5" y2="350" gradientUnits="userSpaceOnUse">
<stop stop-color="#31FDE8"/>
<stop offset="1" stop-color="#042649"/>
</linearGradient>
<linearGradient id="paint74_linear" x1="761.5" y1="15" x2="761.5" y2="350" gradientUnits="userSpaceOnUse">
<stop stop-color="#31FDE8"/>
<stop offset="1" stop-color="#042649"/>
</linearGradient>
<linearGradient id="paint75_linear" x1="761.5" y1="15" x2="761.5" y2="350" gradientUnits="userSpaceOnUse">
<stop stop-color="#31FDE8"/>
<stop offset="1" stop-color="#042649"/>
</linearGradient>
<linearGradient id="paint76_linear" x1="761.5" y1="15" x2="761.5" y2="350" gradientUnits="userSpaceOnUse">
<stop stop-color="#31FDE8"/>
<stop offset="1" stop-color="#042649"/>
</linearGradient>
<linearGradient id="paint77_linear" x1="761.5" y1="15" x2="761.5" y2="350" gradientUnits="userSpaceOnUse">
<stop stop-color="#31FDE8"/>
<stop offset="1" stop-color="#042649"/>
</linearGradient>
<linearGradient id="paint78_linear" x1="761.5" y1="15" x2="761.5" y2="350" gradientUnits="userSpaceOnUse">
<stop stop-color="#31FDE8"/>
<stop offset="1" stop-color="#042649"/>
</linearGradient>
<linearGradient id="paint79_linear" x1="761.5" y1="15" x2="761.5" y2="350" gradientUnits="userSpaceOnUse">
<stop stop-color="#31FDE8"/>
<stop offset="1" stop-color="#042649"/>
</linearGradient>
<linearGradient id="paint80_linear" x1="761.5" y1="15" x2="761.5" y2="350" gradientUnits="userSpaceOnUse">
<stop stop-color="#31FDE8"/>
<stop offset="1" stop-color="#042649"/>
</linearGradient>
<linearGradient id="paint81_linear" x1="761.5" y1="15" x2="761.5" y2="350" gradientUnits="userSpaceOnUse">
<stop stop-color="#31FDE8"/>
<stop offset="1" stop-color="#042649"/>
</linearGradient>
<linearGradient id="paint82_linear" x1="761.5" y1="15" x2="761.5" y2="350" gradientUnits="userSpaceOnUse">
<stop stop-color="#31FDE8"/>
<stop offset="1" stop-color="#042649"/>
</linearGradient>
<linearGradient id="paint83_linear" x1="761.5" y1="15" x2="761.5" y2="350" gradientUnits="userSpaceOnUse">
<stop stop-color="#31FDE8"/>
<stop offset="1" stop-color="#042649"/>
</linearGradient>
<linearGradient id="paint84_linear" x1="761.5" y1="15" x2="761.5" y2="350" gradientUnits="userSpaceOnUse">
<stop stop-color="#31FDE8"/>
<stop offset="1" stop-color="#042649"/>
</linearGradient>
<linearGradient id="paint85_linear" x1="761.5" y1="15" x2="761.5" y2="350" gradientUnits="userSpaceOnUse">
<stop stop-color="#31FDE8"/>
<stop offset="1" stop-color="#042649"/>
</linearGradient>
<linearGradient id="paint86_linear" x1="761.5" y1="15" x2="761.5" y2="350" gradientUnits="userSpaceOnUse">
<stop stop-color="#31FDE8"/>
<stop offset="1" stop-color="#042649"/>
</linearGradient>
<linearGradient id="paint87_linear" x1="761.5" y1="15" x2="761.5" y2="350" gradientUnits="userSpaceOnUse">
<stop stop-color="#31FDE8"/>
<stop offset="1" stop-color="#042649"/>
</linearGradient>
<linearGradient id="paint88_linear" x1="761.5" y1="15" x2="761.5" y2="350" gradientUnits="userSpaceOnUse">
<stop stop-color="#31FDE8"/>
<stop offset="1" stop-color="#042649"/>
</linearGradient>
<linearGradient id="paint89_linear" x1="761.5" y1="15" x2="761.5" y2="350" gradientUnits="userSpaceOnUse">
<stop stop-color="#31FDE8"/>
<stop offset="1" stop-color="#042649"/>
</linearGradient>
</defs>
</svg>
