<svg width="428" height="1237" viewBox="0 0 428 1237" fill="none" xmlns="http://www.w3.org/2000/svg">
<g clip-path="url(#clip0_38_5118)">
<rect width="428" height="1237" fill="url(#paint0_radial_38_5118)"/>
<path d="M427 1237H-3V868.2C25.3191 873.862 81.9572 880.332 95.1455 875.479C110.122 869.969 115.081 868.2 122.442 868.2C129.803 868.2 158.327 885.185 185.01 868.2C211.693 851.216 231.789 875.285 248.805 868.2C266.287 860.921 305.144 881.796 340.203 868.2C371.486 856.069 405.02 879.523 427 868.2V1237Z" fill="url(#paint1_linear_38_5118)"/>
<path d="M257.246 1013.93C217.99 1011.56 37.9442 991.2 -25 1000.35V1081C69.082 1080.15 260.455 1076.42 273.293 1068.27C289.339 1058.08 147.5 1068.27 183.318 1058.36C219.136 1048.46 453.529 1044.78 365.273 1040.82C277.018 1036.85 224.007 1046.48 265.842 1035.72C307.678 1024.97 350.66 1019.59 257.246 1013.93Z" fill="url(#paint2_linear_38_5118)"/>
<path d="M25.382 929.038C33.0649 933.312 56.1839 934.808 81.9004 926.002C99.7483 919.891 129.495 913.475 151.69 893.038C170.079 876.105 5.70324 918.091 25.382 929.038Z" fill="url(#paint3_linear_38_5118)"/>
<path d="M229.768 975.602C280.706 977.751 514.326 996.144 596 987.876V915C473.923 915.767 225.604 919.142 208.947 926.507C188.126 935.712 372.171 926.507 325.695 935.456C279.219 944.406 -24.9205 947.73 89.5966 951.31C204.114 954.89 272.898 946.196 218.614 955.913C164.33 965.63 108.559 970.489 229.768 975.602Z" fill="url(#paint4_linear_38_5118)"/>
<path d="M61.1593 717.558C18.654 633.58 63.9625 559.138 91.93 532.415C144.16 446.485 269.405 445.655 333.568 495.144C397.731 544.632 412.9 599.437 414.165 683.838C415.43 768.239 343.752 822.433 252.873 831.969C161.993 841.505 114.291 822.532 61.1593 717.558Z" fill="url(#paint5_radial_38_5118)"/>
<path d="M357.539 661.18C353.973 755.094 283.259 811.92 221.641 809.581C160.024 807.241 86.8888 721.017 90.4549 627.103C94.021 533.189 172.938 467.148 234.555 469.487C296.172 471.827 361.106 567.265 357.539 661.18Z" fill="url(#paint6_radial_38_5118)"/>
<path d="M226.623 787.468C222.939 790.519 212.843 821.739 208.256 836.968C207.096 840.775 210.12 849.649 213.807 848.375C217.494 847.101 224.822 815.378 229.415 803.954C234.008 792.531 231.228 783.656 226.623 787.468Z" fill="url(#paint7_linear_38_5118)"/>
<path d="M253.397 794.742C255.336 792.578 255.903 790.054 256.439 787.914C256.981 785.748 256.981 785.748 257.069 782.994C257.268 776.744 256.644 770.126 256.493 769.649C255.487 766.46 253.984 777.818 251.094 780.789C249.311 783.448 248.39 784.199 246.058 785.266C244.394 786.027 245.887 783.79 246.271 783.251C248.628 779.946 252.564 775.625 252.544 771.681C252.534 769.515 252.079 767.248 251.711 765.122C251.381 763.216 251.8 761.109 251.127 759.283C251.061 759.103 248.721 751.653 248.244 751.804C247.781 752.22 249.271 756.723 248.241 758.852C247.254 760.355 246.347 761.981 245.116 763.355C243.972 764.632 242.438 765.735 241.08 766.843C240.171 767.586 239.586 767.598 239.932 767.008L239.957 766.966C240.576 765.907 241.848 763.735 241.917 762.609C242.154 758.766 240.77 755.084 240.163 751.35C239.565 747.67 239.159 743.953 238.665 740.257C238.061 735.743 237.152 730.344 240.178 726.101C241.392 724.398 237.719 727.114 237.36 727.44C230.853 733.34 225.61 740.326 222.873 747.828C220.672 753.862 221.474 760.64 219.172 766.65C218.341 768.819 217.472 770.964 216.465 773.083C216.147 773.754 215.65 775.039 214.648 775.125C213.694 775.207 213.25 773.375 213.088 772.86C212.605 771.322 212.613 769.592 212.381 768.008C212.137 766.346 211.474 764.712 210.797 763.16C209.657 760.549 207.089 757.948 204.969 755.87C204.248 755.163 203.415 754.43 202.589 753.814C201.768 753.202 202.243 753.841 202.445 754.271C204.179 757.96 204 762.587 203.886 766.571C203.709 772.772 202.959 774.073 203.739 780.251C204.344 785.038 203.963 790.934 208.053 797.252C209.881 800.077 211.516 801.957 213.464 803.217C215.07 804.256 217.392 805.91 219.226 806.567C223.418 808.071 229.306 807.829 233.593 806.755C239.752 805.211 240.923 804.601 246.017 801.264C248.624 799.556 251.703 796.633 253.397 794.742Z" fill="url(#paint8_radial_38_5118)"/>
<path d="M145.16 1012.5C131.854 999.698 127.43 978.871 121.396 960.536L170.91 954.895C170.91 954.895 185.247 1010.11 178.506 1012.68C171.765 1015.25 155.725 1022.67 145.16 1012.5Z" fill="url(#paint9_linear_38_5118)"/>
<path d="M187.543 889.502C174.076 897.855 141.798 914.858 133.739 900.703C122.636 881.201 137.286 866.496 166.382 851.847C196.51 836.678 211.27 836.629 217.995 848.442C224.72 860.255 224.492 866.584 187.543 889.502Z" fill="url(#paint10_linear_38_5118)"/>
<ellipse cx="73.319" cy="954.641" rx="12.2831" ry="12.2365" transform="rotate(-2.29289 73.319 954.641)" fill="#B39379"/>
<path d="M186.34 916.468C195.58 958.926 158.456 990.469 125.869 989.968C93.2827 989.467 58.843 948.132 75.4663 893.604C95.9874 826.29 96.2168 840.651 128.803 841.152C161.39 841.654 172.397 852.402 186.34 916.468Z" fill="#C49E80"/>
<path fill-rule="evenodd" clip-rule="evenodd" d="M166.09 977.858C186.532 965.723 202.062 944.59 195.709 920.836C189.19 896.459 182.03 879.08 173.078 867.359C155.834 870.732 142.11 894.248 141.544 922.967C141.032 948.942 151.444 970.994 166.09 977.858Z" fill="#E1C7B3"/>
<path d="M96.1411 1010.32C84.7806 993.373 85.795 970.34 84.2653 949.5C105.755 937.438 118.343 937.97 142.458 961.827C142.458 961.827 142.216 1018.34 133.842 1019.26C125.467 1020.19 105.161 1023.77 96.1411 1010.32Z" fill="url(#paint11_linear_38_5118)"/>
<path d="M192.803 790.28C199.396 803.705 200.706 825.459 184.016 833.099C167.327 840.74 121.148 859.451 114.554 846.026C107.961 832.601 135.714 800.446 152.403 792.805C169.092 785.164 186.209 776.855 192.803 790.28Z" fill="#C49E80"/>
<path d="M177.305 782.404C186.007 815.812 181.704 838.942 145.402 847.811C109.099 856.681 65.6365 845.223 56.9345 811.814C48.2326 778.406 70.6071 744.133 106.909 735.264C143.212 726.394 168.603 748.996 177.305 782.404Z" fill="#C59E80"/>
<ellipse rx="72.7467" ry="22.7896" transform="matrix(0.81579 -0.578348 0.60652 0.795069 98.7436 761.251)" fill="#FFD80B"/>
<path d="M130.667 731.698C135.247 739.671 123.188 750.032 104.643 759.95C86.0986 769.869 68.0904 775.589 63.5105 767.616C58.9306 759.643 64.141 734.501 82.6858 724.583C101.231 714.664 126.087 723.725 130.667 731.698Z" fill="url(#paint12_linear_38_5118)"/>
<path d="M111.941 755.108C102.951 725.345 75.6319 742.691 85.9063 777.151C86.525 779.226 89.1248 779.806 90.6733 778.277L111.18 758.038C111.948 757.279 112.252 756.136 111.941 755.108Z" fill="#A78B75"/>
<path fill-rule="evenodd" clip-rule="evenodd" d="M96.0307 772.989C92.1051 745.543 103.976 739.629 110.117 759.086L96.0307 772.989Z" fill="#E1C7B3"/>
<path d="M44.483 846.493C45.1633 845.623 46.1279 844.985 47.197 844.713C67.8797 839.448 77.9289 842.031 91.3466 853.809C92.4145 854.747 92.9914 856.136 92.9425 857.565C91.6755 894.634 86.5645 913.953 72.9768 943.532C72.2504 945.114 70.7442 946.222 69.0182 946.447C52.6605 948.575 42.5135 948.869 25.8294 937.004C24.858 936.313 24.1866 935.258 23.9461 934.089C15.9235 895.089 21.6378 875.717 44.483 846.493Z" fill="#E67070"/>
<path d="M93.9361 857.627C93.0438 870.894 70.8609 885.276 55.2218 884.346C8.82433 886.491 24.9579 870.691 28.5202 858.64C32.914 843.778 42.8139 835.374 58.4531 836.304C74.0922 837.235 94.8284 844.361 93.9361 857.627Z" fill="#D94B4B"/>
<path d="M60.1434 836.404C39.7214 839.705 26.7722 879.276 29.7497 897.136L35.1346 899.091C31.6725 880.661 44.4361 842.391 65.6104 837.138C63.0291 836.504 62.2026 836.505 60.1434 836.404Z" fill="#D9D9D9"/>
<rect width="11.147" height="7.15039" rx="3" transform="matrix(0.95457 0.292005 -0.316193 0.950678 34.4609 860.22)" fill="#D9D9D9"/>
<rect width="11.1665" height="7.13697" rx="3" transform="matrix(0.987163 0.155017 -0.16997 0.986256 27.1641 895.623)" fill="#D9D9D9"/>
<path d="M103.111 897.304C100.585 913.033 92.1292 948.862 75.3864 946.416C52.3187 943.044 50.5993 922.456 58.759 890.579C67.2085 857.57 77.2182 845.97 91.1911 848.012C105.164 850.054 110.042 854.152 103.111 897.304Z" fill="url(#paint13_linear_38_5118)"/>
<ellipse rx="6.34358" ry="11.4396" transform="matrix(0.971424 -0.237349 0.252064 0.967711 158.716 788.209)" fill="#776969"/>
<ellipse rx="2.10897" ry="4.09703" transform="matrix(0.866451 -0.491253 0.522435 0.857596 159.268 782.608)" fill="white"/>
<path fill-rule="evenodd" clip-rule="evenodd" d="M184.016 833.1C200.706 825.46 199.396 803.707 192.803 790.281C189.648 783.858 184.083 782.41 177.309 783.484C169.659 786.67 166.86 796.67 166.659 808.2C166.413 822.28 170.414 834.618 179.257 835.222C181.022 834.454 182.622 833.739 184.016 833.1Z" fill="#E1C7B3"/>
<path d="M98.8083 916.501C106.921 884.394 107.069 864.011 79.0233 849.31L79.6733 848.339C111.735 862.269 111.941 881.098 98.8083 916.501Z" fill="#D94B4B"/>
<path fill-rule="evenodd" clip-rule="evenodd" d="M197.211 806.148C197.311 807.269 197.366 808.393 197.372 809.513C196.439 810.816 195.616 811.889 194.827 812.741C193.745 813.909 192.655 814.742 191.329 815.186C190.012 815.627 188.607 815.636 186.992 815.425C185.39 815.216 183.452 814.769 181.042 814.206C180.361 814.046 179.944 813.385 180.112 812.728C180.279 812.071 180.968 811.668 181.649 811.827C184.098 812.4 185.897 812.811 187.341 813C188.773 813.187 189.723 813.135 190.501 812.875C191.268 812.618 192.012 812.108 192.933 811.115C193.867 810.106 194.907 808.684 196.297 806.685C196.514 806.373 196.853 806.188 197.211 806.148Z" fill="#776969"/>
<path fill-rule="evenodd" clip-rule="evenodd" d="M193.293 791.316C193.133 790.966 192.969 790.62 192.802 790.28C191.191 786.999 188.951 785.016 186.242 784.005C184.06 784.531 181.327 785.534 180.633 787.333C178.357 793.234 190.445 793.056 193.293 791.316Z" fill="#776969"/>
<path d="M169.068 846.804C140.334 837.067 123.143 838.951 94.2937 842.203C88.8317 832.581 80.0745 832.431 72.4276 834.115C72.367 841.238 73.1252 842.167 81.5244 845.27C71.4447 846.074 71.8122 849.859 72.83 856.56C78.6731 855.005 85.6204 853.006 91.6408 847.874C120.883 867.345 140.582 880.163 171.595 884.678C180.989 878.009 180.24 873.733 170.79 865.369C170.924 859.753 169.77 858.155 165.012 858.76C170.828 853.904 171.746 851.285 169.068 846.804Z" fill="#FFD80B"/>
<path fill-rule="evenodd" clip-rule="evenodd" d="M167.132 856.876C150.422 859.248 141.639 857.505 129.387 855.074C126.045 854.411 122.445 853.697 118.355 853.001C123.91 854.413 128.184 855.897 132.045 857.238C140.475 860.167 146.94 862.412 160.493 861.735L165.306 858.723C165.209 858.734 165.112 858.745 165.012 858.758C165.81 858.092 166.515 857.468 167.132 856.876ZM170.791 865.327C158.549 867.132 149.507 866.201 136.18 863.101C144.209 865.667 145.86 866.076 156.885 867.491C166.191 868.685 169.983 866.279 170.939 865.499C170.889 865.455 170.84 865.411 170.79 865.367C170.79 865.354 170.791 865.34 170.791 865.327Z" fill="black" fill-opacity="0.07"/>
<g filter="url(#filter0_i_38_5118)">
<path fill-rule="evenodd" clip-rule="evenodd" d="M159.465 718.677C163.14 723.437 160.44 732.008 153.045 742.197C165.601 750.937 174.522 765.248 179.031 782.381C179.123 782.731 179.214 783.079 179.303 783.427C182.578 782.941 185.569 783.039 188.145 783.989L188.145 783.988C190.907 785.006 193.191 787.003 194.833 790.309C200.711 802.144 202.46 820.405 191.4 829.949C189.919 831.227 188.208 832.349 186.246 833.278C186.116 833.34 185.984 833.401 185.851 833.461C179.919 836.147 170.334 840.189 160.078 843.744C159.989 843.784 159.9 843.825 159.81 843.865C159.722 843.904 159.633 843.944 159.544 843.983C163.06 844.893 166.727 845.984 170.6 847.279C170.828 847.657 171.031 848.022 171.207 848.376C199.226 834.639 213.199 835.019 219.679 846.561C226.429 858.584 226.182 865.036 188.869 888.493C188.263 888.873 187.621 889.271 186.944 889.683C190.813 898.703 194.358 909.37 197.733 921.86C203.226 942.189 192.618 960.621 176.519 973.211C180.23 989.802 184.505 1012.78 180.144 1014.42C179.649 1014.61 179.106 1014.82 178.519 1015.05C170.943 1018 156.131 1023.76 146.136 1014.26C143.999 1012.23 142.087 1010 140.358 1007.6C139.062 1015.2 137.217 1020.79 134.59 1021.08C133.976 1021.15 133.299 1021.23 132.568 1021.31C123.13 1022.45 104.677 1024.66 96.1454 1012.08C87.6655 999.579 85.9575 983.783 85.0417 967.975C84.1096 966.713 83.2124 965.409 82.3533 964.062C80.166 966.542 76.9849 968.163 73.3902 968.307C66.4772 968.583 60.6522 963.292 60.3798 956.488C60.2578 953.441 61.2699 950.607 63.0455 948.382C49.3815 949.798 39.5354 948.827 24.4467 938.221C23.4741 937.538 22.8002 936.489 22.558 935.323C17.7554 912.212 17.7935 895.94 23.3791 880.465C19.7086 876.651 22.2219 871.091 24.7237 865.557C25.6875 863.425 26.6495 861.296 27.2557 859.273C31.744 844.294 41.8445 835.821 57.7936 836.751C58.3338 836.783 58.88 836.821 59.4311 836.867L59.5174 836.853C59.6733 836.861 59.8223 836.868 59.9656 836.874C61.6817 836.954 62.5828 836.996 64.8101 837.522C67.3103 837.922 69.8398 838.459 72.3099 839.132C72.1345 838.254 72.0652 837.218 72.0481 835.962C64.4662 829.864 58.8466 821.916 56.2571 812.076C55.7897 810.3 55.4106 808.522 55.1171 806.745C47.0857 808.042 41.1277 807.091 38.376 803.526C32.6327 796.086 42.4625 779.335 61.4534 761.649C60.6977 750.814 67.0759 732.35 82.5621 724.161C94.5317 717.831 109.075 719.157 119.325 723.019C138.783 714.367 154.45 712.179 159.465 718.677ZM91.6349 848.394L92.0425 848.662C91.8388 848.63 91.6331 848.599 91.4254 848.569C91.4953 848.511 91.5651 848.453 91.6349 848.394Z" fill="#541953" fill-opacity="0.5"/>
</g>
</g>
<defs>
<filter id="filter0_i_38_5118" x="19.0664" y="714.906" width="203.988" height="311.314" filterUnits="userSpaceOnUse" color-interpolation-filters="sRGB">
<feFlood flood-opacity="0" result="BackgroundImageFix"/>
<feBlend mode="normal" in="SourceGraphic" in2="BackgroundImageFix" result="shape"/>
<feColorMatrix in="SourceAlpha" type="matrix" values="0 0 0 0 0 0 0 0 0 0 0 0 0 0 0 0 0 0 127 0" result="hardAlpha"/>
<feOffset dy="4"/>
<feGaussianBlur stdDeviation="2"/>
<feComposite in2="hardAlpha" operator="arithmetic" k2="-1" k3="1"/>
<feColorMatrix type="matrix" values="0 0 0 0 0.745098 0 0 0 0 0.729412 0 0 0 0 0.654902 0 0 0 0.69 0"/>
<feBlend mode="normal" in2="shape" result="effect1_innerShadow_38_5118"/>
</filter>
<radialGradient id="paint0_radial_38_5118" cx="0" cy="0" r="1" gradientUnits="userSpaceOnUse" gradientTransform="translate(238 655.448) rotate(91.5755) scale(872.911 302.031)">
<stop stop-color="#FF911A"/>
<stop offset="0.916667" stop-color="#AC306C"/>
</radialGradient>
<linearGradient id="paint1_linear_38_5118" x1="212" y1="862" x2="212" y2="1237" gradientUnits="userSpaceOnUse">
<stop stop-color="#5C1B59"/>
<stop offset="1" stop-color="#2D0931"/>
</linearGradient>
<linearGradient id="paint2_linear_38_5118" x1="180" y1="998" x2="180" y2="1081" gradientUnits="userSpaceOnUse">
<stop stop-color="#732160"/>
<stop offset="1" stop-color="#732160" stop-opacity="0"/>
</linearGradient>
<linearGradient id="paint3_linear_38_5118" x1="142.586" y1="895.792" x2="-48.2613" y2="910.813" gradientUnits="userSpaceOnUse">
<stop stop-color="#360B3A"/>
<stop offset="1" stop-color="#360B3A" stop-opacity="0"/>
</linearGradient>
<linearGradient id="paint4_linear_38_5118" x1="330" y1="990" x2="330" y2="915" gradientUnits="userSpaceOnUse">
<stop stop-color="#310B35"/>
<stop offset="1" stop-color="#310B35" stop-opacity="0.3"/>
</linearGradient>
<radialGradient id="paint5_radial_38_5118" cx="0" cy="0" r="1" gradientUnits="userSpaceOnUse" gradientTransform="translate(213.891 796.356) rotate(-16.8148) scale(270.87 240.847)">
<stop stop-color="#FEBB02"/>
<stop offset="1" stop-color="#E95008" stop-opacity="0"/>
</radialGradient>
<radialGradient id="paint6_radial_38_5118" cx="0" cy="0" r="1" gradientUnits="userSpaceOnUse" gradientTransform="translate(239.904 947.879) rotate(-90.8645) scale(482.664 559.617)">
<stop stop-color="#FFC515"/>
<stop offset="1" stop-color="#FFC515" stop-opacity="0"/>
</radialGradient>
<linearGradient id="paint7_linear_38_5118" x1="217.103" y1="838.998" x2="233.938" y2="772.6" gradientUnits="userSpaceOnUse">
<stop stop-color="#56321E"/>
<stop offset="1" stop-color="#A86E41" stop-opacity="0.59"/>
</linearGradient>
<radialGradient id="paint8_radial_38_5118" cx="0" cy="0" r="1" gradientUnits="userSpaceOnUse" gradientTransform="translate(223.012 800.378) rotate(-79.3255) scale(65.1683 394.927)">
<stop stop-color="#FCEEAB"/>
<stop offset="1" stop-color="#FCEEAB" stop-opacity="0.4"/>
</radialGradient>
<linearGradient id="paint9_linear_38_5118" x1="146.912" y1="956.589" x2="156.475" y2="1018.42" gradientUnits="userSpaceOnUse">
<stop stop-color="#B39278"/>
<stop offset="1" stop-color="#C49E80"/>
</linearGradient>
<linearGradient id="paint10_linear_38_5118" x1="216.453" y1="845.733" x2="130.351" y2="894.752" gradientUnits="userSpaceOnUse">
<stop stop-color="#C49E80"/>
<stop offset="1" stop-color="#B29278"/>
</linearGradient>
<linearGradient id="paint11_linear_38_5118" x1="115.413" y1="942.329" x2="108.822" y2="1019.64" gradientUnits="userSpaceOnUse">
<stop stop-color="#C49E80"/>
<stop offset="1" stop-color="#B29278"/>
</linearGradient>
<linearGradient id="paint12_linear_38_5118" x1="82.6858" y1="724.583" x2="99.8905" y2="756.751" gradientUnits="userSpaceOnUse">
<stop stop-color="#FFD80B"/>
<stop offset="1" stop-color="#E7CE4F"/>
</linearGradient>
<linearGradient id="paint13_linear_38_5118" x1="87.9873" y1="847.543" x2="73.5765" y2="946.151" gradientUnits="userSpaceOnUse">
<stop stop-color="#C49E80"/>
<stop offset="1" stop-color="#B29278"/>
</linearGradient>
<clipPath id="clip0_38_5118">
<rect width="428" height="1237" fill="white"/>
</clipPath>
</defs>
</svg>
