<svg width="428" height="377" viewBox="0 0 428 377" fill="none" xmlns="http://www.w3.org/2000/svg">
<g clip-path="url(#clip0_38_5262)">
<g filter="url(#filter0_d_38_5262)">
<path fill-rule="evenodd" clip-rule="evenodd" d="M428 0H0V186.712V198V284.738C8.74564 278.024 14.5386 278.559 19.9016 279.054C26.3706 279.651 32.214 280.191 41.859 267.881C59.5 245.367 69.9744 257.809 76.5898 275.583C78.8076 281.542 79.8039 297.197 80.8385 313.454C82.2727 335.99 83.7806 359.682 88.718 360.308C97.2171 361.385 108.013 290.395 109.667 267.881C111.321 245.367 175.821 201.523 181.333 225.223C183.478 234.441 184.443 243.63 185.281 251.604C186.598 264.13 187.599 273.657 192.359 275.583C197.115 277.508 198.124 290.386 198.938 300.767C199.458 307.391 199.897 312.999 201.18 314.095C204.471 316.908 210 305.207 210 290.395C210 268.139 213.672 259.695 216.793 252.517C217.744 250.332 218.643 248.264 219.372 245.959C236.829 239.047 273.397 229.37 280.013 245.959C283.737 255.299 283.883 264.279 284.027 273.114C284.201 283.895 284.373 294.462 291.039 305.207C296.16 313.464 298.712 326.674 300.753 337.237C302.578 346.685 303.994 354.016 306.474 353.791C311.727 353.313 318.603 331.869 314.744 314.095C310.885 296.32 313.107 285.29 316.701 278.954C320.296 272.618 358.846 261.956 384.756 267.881C410.667 273.806 418.628 281.726 428 299.5V198V176V0Z" fill="url(#paint0_linear_38_5262)"/>
<path fill-rule="evenodd" clip-rule="evenodd" d="M428 0H0V186.712V198V284.738C8.74564 278.024 14.5386 278.559 19.9016 279.054C26.3706 279.651 32.214 280.191 41.859 267.881C59.5 245.367 69.9744 257.809 76.5898 275.583C78.8076 281.542 79.8039 297.197 80.8385 313.454C82.2727 335.99 83.7806 359.682 88.718 360.308C97.2171 361.385 108.013 290.395 109.667 267.881C111.321 245.367 175.821 201.523 181.333 225.223C183.478 234.441 184.443 243.63 185.281 251.604C186.598 264.13 187.599 273.657 192.359 275.583C197.115 277.508 198.124 290.386 198.938 300.767C199.458 307.391 199.897 312.999 201.18 314.095C204.471 316.908 210 305.207 210 290.395C210 268.139 213.672 259.695 216.793 252.517C217.744 250.332 218.643 248.264 219.372 245.959C236.829 239.047 273.397 229.37 280.013 245.959C283.737 255.299 283.883 264.279 284.027 273.114C284.201 283.895 284.373 294.462 291.039 305.207C296.16 313.464 298.712 326.674 300.753 337.237C302.578 346.685 303.994 354.016 306.474 353.791C311.727 353.313 318.603 331.869 314.744 314.095C310.885 296.32 313.107 285.29 316.701 278.954C320.296 272.618 358.846 261.956 384.756 267.881C410.667 273.806 418.628 281.726 428 299.5V198V176V0Z" fill="url(#paint1_linear_38_5262)" fill-opacity="0.1"/>
</g>
</g>
<defs>
<filter id="filter0_d_38_5262" x="-8" y="0" width="444" height="376.32" filterUnits="userSpaceOnUse" color-interpolation-filters="sRGB">
<feFlood flood-opacity="0" result="BackgroundImageFix"/>
<feColorMatrix in="SourceAlpha" type="matrix" values="0 0 0 0 0 0 0 0 0 0 0 0 0 0 0 0 0 0 127 0" result="hardAlpha"/>
<feOffset dy="8"/>
<feGaussianBlur stdDeviation="4"/>
<feComposite in2="hardAlpha" operator="out"/>
<feColorMatrix type="matrix" values="0 0 0 0 1 0 0 0 0 0.847059 0 0 0 0 0.0431373 0 0 0 0.25 0"/>
<feBlend mode="normal" in2="BackgroundImageFix" result="effect1_dropShadow_38_5262"/>
<feBlend mode="normal" in="SourceGraphic" in2="effect1_dropShadow_38_5262" result="shape"/>
</filter>
<linearGradient id="paint0_linear_38_5262" x1="216.212" y1="0" x2="216.212" y2="148.323" gradientUnits="userSpaceOnUse">
<stop stop-color="#8C5050"/>
<stop offset="0.946594" stop-color="#370940"/>
</linearGradient>
<linearGradient id="paint1_linear_38_5262" x1="214" y1="0" x2="214" y2="360.32" gradientUnits="userSpaceOnUse">
<stop stop-color="#8C5050"/>
<stop offset="0.554832" stop-color="#B11A51"/>
</linearGradient>
<clipPath id="clip0_38_5262">
<rect width="428" height="377" fill="white"/>
</clipPath>
</defs>
</svg>
