<svg width="150" height="140" viewBox="0 0 150 140" fill="none" xmlns="http://www.w3.org/2000/svg">
<path d="M76.9896 6C76.9896 7.10457 76.0965 8 74.9948 8C73.8931 8 73 7.10457 73 6C73 4.89543 73.8931 4 74.9948 4C76.0965 4 76.9896 4.89543 76.9896 6Z" fill="#F5C56C"/>
<path d="M32 64.3828L71.5939 5.09989C73.1984 2.69752 76.7424 2.73613 78.2942 5.17289L116 64.3828" stroke="#464A4D" stroke-width="2"/>
<g filter="url(#filter0_d_1_24880)">
<ellipse cx="74.5714" cy="93" rx="70.5714" ry="39" fill="#97A688"/>
</g>
<ellipse cx="75.0354" cy="93.0002" rx="59.8929" ry="34.3571" fill="white"/>
<path d="M33.9136 80.9655L36.3852 84.7678L35.3583 78.5808C35.2621 77.9633 35.3005 77.5158 35.4735 77.2384C35.6542 76.9431 36.0793 76.6625 36.7487 76.3966C37.5081 76.0949 38.0421 75.9946 38.3505 76.0956C38.6667 76.1787 39.0387 76.5525 39.4667 77.2171L42.7379 82.2444L42.0432 77.5127C42.028 77.3995 42.0051 77.3042 41.9744 77.227C41.8977 77.0339 41.7049 76.9987 41.396 77.1214C40.7601 77.3591 40.3015 77.124 40.0203 76.416C39.7186 75.6565 39.9346 75.131 40.6684 74.8395C40.8872 74.7526 41.2193 74.6505 41.6645 74.5333C42.1098 74.416 42.4418 74.3139 42.6607 74.227C42.8666 74.1452 43.1653 73.9967 43.5568 73.7816C43.9483 73.5665 44.247 73.418 44.453 73.3362C44.7877 73.2033 45.1014 73.2053 45.3943 73.3423C45.6872 73.4794 45.9053 73.7281 46.0484 74.0885C46.1814 74.4232 46.2076 74.7332 46.1272 75.0185C46.0417 75.291 45.8702 75.4783 45.6127 75.5806C45.5226 75.6164 45.4557 75.6355 45.412 75.638C45.2215 75.6838 45.1199 75.7093 45.107 75.7144C44.9397 75.7809 44.8837 76.0714 44.939 76.5859C44.9441 76.5988 44.9578 76.802 44.98 77.1956L45.3716 82.8526C45.4414 83.7787 45.2639 84.3261 44.8391 84.4949C44.7103 84.546 44.5096 84.6034 44.2368 84.6671C43.964 84.7307 43.7632 84.7881 43.6345 84.8392C43.5058 84.8904 43.3268 84.9838 43.0975 85.1196C42.8683 85.2554 42.6957 85.3463 42.5799 85.3923C42.1036 85.5815 41.5695 85.2124 40.9776 84.285L38.0142 79.5826L38.8501 84.9512C38.9742 85.7514 39.0167 86.2711 38.9776 86.5102C38.9462 86.7313 38.7953 86.8956 38.525 87.003C38.3834 87.0592 38.1826 87.1166 37.9227 87.1751C37.6628 87.2337 37.4427 87.2987 37.2625 87.3703C37.1209 87.4266 36.9226 87.5277 36.6676 87.6737C36.4126 87.8197 36.2143 87.9208 36.0727 87.9771C35.6737 88.1356 35.2537 87.9224 34.8127 87.3375L30.9363 82.0811C30.6876 81.7178 30.4346 81.5873 30.1771 81.6896C30.1256 81.7101 30.0471 81.7562 29.9415 81.8279C29.8436 81.8817 29.7689 81.9188 29.7174 81.9393C29.1768 82.154 28.7582 81.8881 28.4616 81.1415C28.1292 80.3048 28.3428 79.7356 29.1023 79.4339C29.3082 79.3521 29.621 79.2577 30.0405 79.1506C30.4729 79.0385 30.792 78.9415 30.998 78.8597C31.2168 78.7728 31.5413 78.6141 31.9714 78.3836C32.4015 78.1532 32.7259 77.9945 32.9448 77.9076C33.6399 77.6314 34.1409 77.8796 34.4477 78.6519C34.7084 79.3084 34.5955 79.7557 34.1088 79.9937C33.8744 80.1166 33.7327 80.2102 33.6837 80.2744C33.6425 80.3206 33.6474 80.408 33.6985 80.5367L33.7676 80.7105C33.788 80.762 33.8367 80.847 33.9136 80.9655Z" fill="#97A688"/>
<path d="M56.7939 75.291C56.9269 75.8574 56.9414 76.2523 56.8375 76.476C56.747 76.6964 56.4927 76.8557 56.0747 76.9539L51.1395 78.1132C50.8968 78.1702 50.7481 78.2336 50.6933 78.3033C50.6489 78.3565 50.6489 78.4774 50.6932 78.6662C50.8262 79.2325 51.1191 79.6617 51.5719 79.9537C52.0246 80.2458 52.5274 80.3269 53.0803 80.197C53.6466 80.064 54.1536 79.6176 54.6012 78.858C54.9043 78.3315 55.2986 78.0112 55.7841 77.8972C56.1886 77.8022 56.5391 77.8408 56.8357 78.013C57.1457 78.1821 57.3419 78.4419 57.4243 78.7925C57.608 79.5745 57.3333 80.3434 56.6002 81.0989C55.8774 81.8378 54.9024 82.3514 53.6754 82.6396C52.0708 83.0165 50.6758 82.832 49.4903 82.086C48.3049 81.34 47.5222 80.158 47.1421 78.5399C46.7588 76.9083 46.922 75.4828 47.6315 74.2633C48.3513 73.0271 49.4798 72.2284 51.017 71.8674C52.4463 71.5316 53.6823 71.6752 54.725 72.2982C55.7812 72.9181 56.4708 73.9157 56.7939 75.291ZM50.1244 75.7905C50.1434 75.8714 50.1795 75.9341 50.2326 75.9786C50.2857 76.023 50.4337 76.0167 50.6764 75.9597L52.9417 75.4276C53.144 75.3801 53.2606 75.3313 53.2915 75.2814C53.3328 75.2148 53.3392 75.1208 53.3107 74.9994C53.2283 74.6488 53.002 74.3819 52.6317 74.1985C52.2582 74.0017 51.8624 73.9524 51.4444 74.0506C50.9051 74.1773 50.5159 74.4892 50.277 74.9864C50.1246 75.3067 50.0738 75.5748 50.1244 75.7905Z" fill="#97A688"/>
<path d="M62.3407 66.7123C62.7255 66.6639 62.9498 66.894 63.0137 67.4025L64.2386 77.1532C64.3249 77.8404 64.5055 78.1667 64.7804 78.1321C64.8903 78.1183 64.9848 78.0925 65.0638 78.0546C65.1428 78.0168 65.251 77.9892 65.3885 77.972C65.9932 77.896 66.3404 78.2154 66.4302 78.93C66.5493 79.8783 66.1966 80.4042 65.372 80.5078C65.3582 80.5095 64.8308 80.5339 63.7897 80.5809C63.4702 80.5931 63.1318 80.6217 62.7744 80.6666C62.4721 80.7046 62.1517 80.7657 61.8133 80.8501C61.2447 80.9914 60.8849 81.0715 60.7337 81.0905C60.3626 81.1371 60.0447 81.0514 59.78 80.8333C59.5136 80.6016 59.3545 80.2795 59.3027 79.8673C59.206 79.0976 59.4944 78.6705 60.1678 78.5859C60.2502 78.5756 60.3636 78.5893 60.508 78.627C60.6643 78.6492 60.7837 78.6551 60.8662 78.6448C61.0998 78.6154 61.1683 78.216 61.0716 77.4463L60.2093 70.5817C60.1126 69.8121 59.9474 69.4419 59.7138 69.4713C59.6176 69.4834 59.4974 69.5264 59.3531 69.6004C59.2741 69.6382 59.1659 69.6658 59.0284 69.683C58.3688 69.7659 57.9915 69.4294 57.8965 68.6735C57.843 68.2475 57.9175 67.8961 58.1201 67.6194C58.3226 67.3427 58.6232 67.1793 59.0217 67.1292C59.1317 67.1154 59.3679 67.1066 59.7304 67.103C60.2045 67.0993 60.5584 67.0827 60.7921 67.0534C61.1082 67.0137 61.3796 66.9516 61.6063 66.8673C61.9172 66.7864 62.162 66.7347 62.3407 66.7123Z" fill="#97A688"/>
<path d="M74.4661 72.8882C74.4614 72.6804 74.526 72.4712 74.6598 72.2603C74.3363 72.0459 73.9807 71.9431 73.593 71.9518C72.9837 71.9654 72.4909 72.2328 72.1147 72.7539C71.752 73.2608 71.5801 73.9366 71.5991 74.7813C71.6186 75.6537 71.8351 76.3485 72.2485 76.8657C72.6619 77.3829 73.2009 77.634 73.8656 77.6191C74.5441 77.6039 75.0344 77.2257 75.3364 76.4847C75.5201 76.0233 75.6797 75.7288 75.8154 75.6011C76.0055 75.4306 76.3083 75.3406 76.7237 75.3313C77.1946 75.3208 77.5786 75.4576 77.876 75.7419C78.173 76.0123 78.3264 76.3691 78.3364 76.8122C78.3575 77.7539 77.9189 78.5811 77.0205 79.294C76.122 80.0069 75.0359 80.3776 73.7619 80.4062C72.1279 80.4429 70.815 79.9735 69.8233 78.9983C68.8313 78.0091 68.3163 76.6699 68.2784 74.9805C68.2402 73.2772 68.7084 71.9159 69.6831 70.8965C70.6578 69.8771 71.9898 69.3484 73.6792 69.3105C74.8978 69.2832 75.9083 69.5515 76.7106 70.1154C77.5265 70.6651 77.9444 71.3831 77.9643 72.2693C77.9767 72.8232 77.8068 73.2773 77.4545 73.6316C77.102 73.972 76.6418 74.1486 76.074 74.1613C75.6032 74.1719 75.2198 74.0627 74.9237 73.8339C74.6273 73.5911 74.4747 73.2759 74.4661 72.8882Z" fill="#97A688"/>
<path d="M84.8085 80.9936C83.0989 80.8288 81.8219 80.2186 80.9774 79.1631C80.1468 78.1089 79.8158 76.7063 79.9847 74.9554C80.1522 73.2182 80.7443 71.9116 81.7611 71.0356C82.7793 70.1457 84.1225 69.7813 85.7907 69.9421C87.4314 70.1003 88.6739 70.7072 89.5184 71.7627C90.3767 72.8195 90.7247 74.189 90.5625 75.871C90.3923 77.6357 89.7975 78.9699 88.778 79.8735C87.7724 80.7785 86.4492 81.1518 84.8085 80.9936ZM85.5454 72.4859C84.9388 72.4274 84.4303 72.6497 84.02 73.1528C83.6248 73.6435 83.3827 74.3507 83.2936 75.2744C83.2032 76.212 83.3051 76.9593 83.5992 77.5164C83.9072 78.0749 84.3782 78.3847 85.0125 78.4459C86.2947 78.5695 87.0315 77.6387 87.2229 75.6533C87.4144 73.668 86.8552 72.6122 85.5454 72.4859Z" fill="#97A688"/>
<path d="M97.6165 72.8035L97.3802 73.7296C98.695 72.7787 99.9698 72.4608 101.205 72.776C102.238 73.0398 102.962 73.7606 103.376 74.9385C104.194 74.5327 104.866 74.2824 105.39 74.1875C105.928 74.0961 106.512 74.131 107.143 74.292C108.418 74.6174 109.263 75.2834 109.678 76.29C109.96 76.9767 109.939 77.9575 109.613 79.2325L108.827 82.3126C108.652 82.997 108.692 83.3718 108.947 83.4369C109.028 83.4574 109.14 83.4647 109.285 83.4587C109.359 83.449 109.463 83.4613 109.597 83.4955C110.187 83.6463 110.394 84.0706 110.216 84.7685C110.109 85.1845 109.916 85.4926 109.636 85.6928C109.357 85.893 109.042 85.9485 108.693 85.8594C108.653 85.8492 108.464 85.7794 108.125 85.65L107.697 85.4766C107.49 85.3949 107.211 85.3096 106.862 85.2205C106.433 85.1108 106.01 85.0315 105.594 84.9824C105.177 84.9333 104.889 84.8882 104.728 84.8471C104.405 84.7648 104.168 84.5755 104.015 84.2792C103.879 83.9728 103.858 83.6317 103.954 83.2559C104.112 82.6386 104.451 82.3463 104.972 82.3791C105.237 82.4039 105.403 82.3678 105.471 82.2707C105.552 82.1771 105.654 81.8887 105.778 81.4055L106.307 79.332C106.526 78.4731 106.581 77.8653 106.472 77.5087C106.38 77.142 106.079 76.8936 105.569 76.7634C104.428 76.4722 103.65 77.1386 103.236 78.7625L102.758 80.6347C102.641 81.091 102.588 81.3847 102.597 81.5157C102.607 81.6468 102.694 81.7547 102.858 81.8395C103.25 82.0397 103.372 82.4283 103.225 83.0054C102.992 83.918 102.5 84.2784 101.748 84.0865C101.6 84.0488 101.398 83.9756 101.139 83.8668C100.714 83.6866 100.427 83.5777 100.279 83.54C100.118 83.4989 99.8699 83.4641 99.5341 83.4356C99.2117 83.4104 98.97 83.3773 98.809 83.3362C98.1514 83.1683 97.9305 82.6617 98.1463 81.8161C98.3005 81.2122 98.5993 80.9097 99.0427 80.9085C99.2846 80.9131 99.4465 80.7829 99.5284 80.5179C99.6344 80.1589 99.6976 79.9392 99.7182 79.8587L100.299 77.5839C100.494 76.8189 100.536 76.2648 100.423 75.9216C100.324 75.5818 100.039 75.3519 99.5698 75.232C98.3887 74.9305 97.591 75.5917 97.1764 77.2156L96.5546 79.6515C96.4998 79.8662 96.4907 80.014 96.5272 80.0948C96.5672 80.1622 96.6894 80.2434 96.8939 80.3385C97.3933 80.5661 97.5659 80.9818 97.4117 81.5857C97.1891 82.4581 96.7086 82.8001 95.9705 82.6116C95.7424 82.5534 95.407 82.4392 94.9644 82.269C94.5352 82.1023 94.2065 81.9898 93.9784 81.9315C93.6697 81.8527 93.3492 81.7924 93.0168 81.7504C92.4628 81.6805 92.112 81.6267 91.9644 81.589C91.5886 81.493 91.3175 81.2952 91.151 80.9954C91.0014 80.6855 90.9762 80.336 91.0756 79.9468C91.2709 79.1819 91.6906 78.8816 92.3348 79.046C92.4422 79.0734 92.5561 79.1311 92.6766 79.2191C92.8005 79.2936 92.8961 79.3394 92.9632 79.3565C93.1913 79.4148 93.4013 79.0681 93.5932 78.3166L94.4257 75.0553C94.621 74.2904 94.6045 73.8787 94.3764 73.8205C94.3227 73.8068 94.2085 73.8062 94.0337 73.8188C93.8758 73.8214 93.7566 73.8124 93.6761 73.7918C93.0319 73.6274 92.8057 73.1694 92.9976 72.4178C93.0969 72.0286 93.2865 71.7339 93.5663 71.5338C93.8596 71.337 94.1874 71.2849 94.5497 71.3774C94.6303 71.3979 94.8431 71.488 95.1884 71.6476C95.3928 71.7427 95.589 71.8142 95.7769 71.8622C95.9379 71.9033 96.1797 71.9364 96.502 71.9615C96.8378 71.9901 97.0863 72.0249 97.2473 72.066C97.5962 72.1551 97.7193 72.4009 97.6165 72.8035Z" fill="#97A688"/>
<path d="M121.821 85.4812C121.593 86.0162 121.371 86.3429 121.154 86.4614C120.951 86.5853 120.651 86.5629 120.257 86.3942L115.595 84.4026C115.365 84.3046 115.208 84.2675 115.123 84.2912C115.055 84.3077 114.984 84.4051 114.907 84.5834C114.679 85.1184 114.66 85.6376 114.852 86.1412C115.043 86.6448 115.4 87.0081 115.923 87.2312C116.458 87.4598 117.13 87.4008 117.941 87.0543C118.497 86.81 119.005 86.7857 119.463 86.9816C119.846 87.1449 120.105 87.3838 120.242 87.6982C120.391 88.0182 120.395 88.3437 120.254 88.6749C119.938 89.4137 119.261 89.87 118.223 90.044C117.203 90.2107 116.113 90.0464 114.954 89.5512C113.438 88.9037 112.424 87.9282 111.912 86.6247C111.399 85.3213 111.469 83.9053 112.122 82.3768C112.781 80.8356 113.757 79.7842 115.051 79.2225C116.364 78.6535 117.746 78.6792 119.198 79.2996C120.548 79.8764 121.459 80.7247 121.929 81.8445C122.412 82.9698 122.377 84.182 121.821 85.4812ZM116.154 81.9302C116.121 82.0067 116.113 82.0785 116.13 82.1458C116.146 82.2131 116.269 82.2957 116.498 82.3936L118.638 83.3078C118.829 83.3894 118.952 83.4193 119.006 83.3974C119.079 83.3682 119.14 83.2963 119.189 83.1817C119.33 82.8505 119.306 82.5014 119.117 82.1342C118.933 81.7543 118.643 81.48 118.248 81.3113C117.739 81.0936 117.241 81.1142 116.753 81.373C116.441 81.5407 116.241 81.7264 116.154 81.9302Z" fill="#97A688"/>
<path d="M57.5111 90.1107L58.0695 92.8895L58.9006 89.0589C58.9871 88.678 59.1127 88.4269 59.2771 88.3057C59.4503 88.1758 59.7619 88.1109 60.2121 88.1109C60.7229 88.1109 61.0561 88.1758 61.212 88.3057C61.3765 88.4269 61.5063 88.7299 61.6015 89.2147L62.3417 92.8895L63.0299 89.9808C63.0472 89.9116 63.0559 89.851 63.0559 89.799C63.0559 89.6692 62.952 89.6042 62.7442 89.6042C62.3201 89.5956 62.108 89.3532 62.108 88.8771C62.108 88.3663 62.3547 88.1109 62.8481 88.1109C62.9953 88.1109 63.2117 88.1282 63.4974 88.1629C63.7831 88.1975 63.9995 88.2148 64.1467 88.2148C64.2852 88.2148 64.4929 88.1975 64.77 88.1629C65.047 88.1282 65.2548 88.1109 65.3933 88.1109C65.6184 88.1109 65.8001 88.1845 65.9387 88.3317C66.0772 88.4788 66.1464 88.6736 66.1464 88.916C66.1464 89.1411 66.0902 89.3272 65.9776 89.4744C65.8651 89.6129 65.7222 89.6822 65.5491 89.6822C65.4885 89.6822 65.4452 89.6778 65.4192 89.6692C65.298 89.6519 65.2331 89.6432 65.2245 89.6432C65.1119 89.6432 65.0124 89.799 64.9258 90.1107C64.9258 90.1193 64.8868 90.2405 64.8089 90.4743L63.7311 93.8505C63.558 94.4045 63.3286 94.6815 63.0429 94.6815C62.9563 94.6815 62.8265 94.6685 62.6534 94.6426C62.4802 94.6166 62.3504 94.6036 62.2638 94.6036C62.1772 94.6036 62.0517 94.6166 61.8872 94.6426C61.7227 94.6685 61.6015 94.6815 61.5236 94.6815C61.2033 94.6815 60.9782 94.3439 60.8484 93.6687L60.2121 90.2535L59.4589 93.5648C59.3464 94.0582 59.2512 94.3699 59.1733 94.4997C59.104 94.6209 58.9785 94.6815 58.7967 94.6815C58.7015 94.6815 58.5716 94.6685 58.4071 94.6426C58.2426 94.6166 58.0998 94.6036 57.9786 94.6036C57.8834 94.6036 57.7449 94.6166 57.5631 94.6426C57.3813 94.6685 57.2428 94.6815 57.1475 94.6815C56.8792 94.6815 56.6844 94.4608 56.5632 94.0193L55.5244 90.0717C55.4638 89.8034 55.3469 89.6692 55.1738 89.6692C55.1391 89.6692 55.0829 89.6778 55.005 89.6951C54.9357 89.7038 54.8838 89.7081 54.8491 89.7081C54.4855 89.7081 54.3037 89.4571 54.3037 88.955C54.3037 88.3923 54.5591 88.1109 55.0699 88.1109C55.2084 88.1109 55.4118 88.1282 55.6802 88.1629C55.9572 88.1975 56.165 88.2148 56.3035 88.2148C56.4507 88.2148 56.6757 88.1975 56.9787 88.1629C57.2817 88.1282 57.5068 88.1109 57.654 88.1109C58.1214 88.1109 58.3552 88.3706 58.3552 88.89C58.3552 89.3315 58.1864 89.5653 57.8488 89.5913C57.6843 89.6086 57.5804 89.6302 57.5371 89.6562C57.5025 89.6735 57.4852 89.7254 57.4852 89.812V89.9289C57.4852 89.9635 57.4938 90.0241 57.5111 90.1107ZM72.6989 90.8379C72.6989 91.2014 72.6513 91.4438 72.556 91.565C72.4695 91.6862 72.292 91.7468 72.0236 91.7468H68.8552C68.6994 91.7468 68.5998 91.7641 68.5565 91.7988C68.5219 91.8247 68.5046 91.8983 68.5046 92.0195C68.5046 92.3831 68.6215 92.6861 68.8552 92.9285C69.0889 93.1709 69.3833 93.2921 69.7382 93.2921C70.1018 93.2921 70.474 93.093 70.8549 92.6948C71.1147 92.4177 71.4003 92.2792 71.712 92.2792C71.9717 92.2792 72.1795 92.3528 72.3353 92.5C72.4998 92.6472 72.582 92.8333 72.582 93.0584C72.582 93.5605 72.305 93.989 71.7509 94.3439C71.2056 94.6902 70.539 94.8633 69.7512 94.8633C68.721 94.8633 67.8986 94.5517 67.284 93.9284C66.6693 93.3051 66.362 92.474 66.362 91.4352C66.362 90.3877 66.665 89.5436 67.271 88.903C67.8856 88.2538 68.6864 87.9291 69.6733 87.9291C70.5909 87.9291 71.3224 88.1932 71.8678 88.7212C72.4219 89.2493 72.6989 89.9548 72.6989 90.8379ZM68.5695 90.1886C68.5695 90.2405 68.5825 90.2838 68.6085 90.3184C68.6344 90.3531 68.7253 90.3704 68.8812 90.3704H70.3355C70.4654 90.3704 70.5433 90.3574 70.5693 90.3314C70.6039 90.2968 70.6212 90.2405 70.6212 90.1626C70.6212 89.9375 70.5217 89.7428 70.3225 89.5783C70.1234 89.4051 69.8897 89.3186 69.6213 89.3186C69.2751 89.3186 68.9937 89.4527 68.7773 89.7211C68.6388 89.8943 68.5695 90.0501 68.5695 90.1886ZM73.8273 87.0591C73.8273 86.6869 73.9442 86.3752 74.1779 86.1242C74.4203 85.8731 74.7146 85.7476 75.0609 85.7476C75.4851 85.7476 75.84 85.925 76.1257 86.28C76.4114 86.6349 76.5542 87.0678 76.5542 87.5785C76.5542 88.626 76.0911 89.7211 75.1648 90.8638C74.9397 91.1408 74.7319 91.2794 74.5415 91.2794C74.2212 91.2794 74.061 91.1019 74.061 90.747C74.061 90.5305 74.1519 90.2881 74.3337 90.0198C74.8358 89.2839 75.0869 88.8035 75.0869 88.5784C75.0869 88.4572 74.9873 88.3663 74.7882 88.3057C74.1476 88.1239 73.8273 87.7084 73.8273 87.0591ZM80.3995 88.5135V89.6172C80.5207 89.1757 80.6636 88.8511 80.828 88.6433C81.2089 88.1672 81.7413 87.9291 82.4252 87.9291C82.9014 87.9291 83.2996 88.085 83.6199 88.3966C83.9489 88.6996 84.1133 89.0762 84.1133 89.5263C84.1133 89.8813 84.0095 90.1756 83.8017 90.4093C83.5939 90.6344 83.3299 90.747 83.0096 90.747C82.7672 90.747 82.5594 90.669 82.3863 90.5132C82.2218 90.3574 82.1396 90.1669 82.1396 89.9419C82.1396 89.8207 82.1958 89.6519 82.3084 89.4354H82.2305C81.6504 89.4354 81.2609 89.7428 81.0618 90.3574C80.906 90.8508 80.828 91.4179 80.828 92.0585V92.5519C80.828 92.8636 80.854 93.0627 80.906 93.1493C80.9406 93.2012 81.0012 93.2272 81.0877 93.2272C81.1657 93.2272 81.2739 93.2099 81.4124 93.1752C81.5509 93.1406 81.6548 93.1233 81.724 93.1233C81.9145 93.1233 82.0746 93.1925 82.2045 93.3311C82.343 93.4609 82.4123 93.6211 82.4123 93.8115C82.4123 94.0626 82.3257 94.2747 82.1525 94.4478C81.9881 94.6123 81.7846 94.6945 81.5422 94.6945C81.4124 94.6945 81.17 94.6729 80.8151 94.6296C80.5986 94.6036 80.3259 94.5906 79.997 94.5906C79.668 94.5906 79.378 94.6036 79.127 94.6296C78.7114 94.6729 78.456 94.6945 78.3608 94.6945C77.8241 94.6945 77.5557 94.4045 77.5557 93.8245C77.5557 93.3397 77.7635 93.0973 78.179 93.0973C78.2483 93.0973 78.3262 93.1146 78.4128 93.1493C78.4993 93.1752 78.5643 93.1882 78.6075 93.1882C78.7547 93.1882 78.8283 92.9458 78.8283 92.461V90.3574C78.8283 89.864 78.7547 89.6172 78.6075 89.6172C78.5729 89.6172 78.5037 89.6345 78.3998 89.6692C78.3045 89.6951 78.231 89.7081 78.179 89.7081C77.7635 89.7081 77.5557 89.4701 77.5557 88.9939C77.5557 88.7342 77.625 88.5221 77.7635 88.3576C77.902 88.1932 78.0795 88.1109 78.2959 88.1109C78.3825 88.1109 78.5037 88.1282 78.6595 88.1629C78.8153 88.1975 78.9625 88.2148 79.101 88.2148C79.2049 88.2148 79.3564 88.1975 79.5555 88.1629C79.7546 88.1282 79.9017 88.1109 79.997 88.1109C80.2653 88.1109 80.3995 88.2451 80.3995 88.5135ZM90.6679 90.8379C90.6679 91.2014 90.6203 91.4438 90.5251 91.565C90.4385 91.6862 90.2611 91.7468 89.9927 91.7468H86.8243C86.6684 91.7468 86.5689 91.7641 86.5256 91.7988C86.491 91.8247 86.4736 91.8983 86.4736 92.0195C86.4736 92.3831 86.5905 92.6861 86.8243 92.9285C87.058 93.1709 87.3523 93.2921 87.7073 93.2921C88.0708 93.2921 88.4431 93.093 88.824 92.6948C89.0837 92.4177 89.3694 92.2792 89.681 92.2792C89.9407 92.2792 90.1485 92.3528 90.3043 92.5C90.4688 92.6472 90.5511 92.8333 90.5511 93.0584C90.5511 93.5605 90.274 93.989 89.72 94.3439C89.1746 94.6902 88.508 94.8633 87.7202 94.8633C86.6901 94.8633 85.8677 94.5517 85.253 93.9284C84.6384 93.3051 84.3311 92.474 84.3311 91.4352C84.3311 90.3877 84.634 89.5436 85.24 88.903C85.8547 88.2538 86.6554 87.9291 87.6423 87.9291C88.56 87.9291 89.2915 88.1932 89.8369 88.7212C90.3909 89.2493 90.6679 89.9548 90.6679 90.8379ZM86.5386 90.1886C86.5386 90.2405 86.5516 90.2838 86.5775 90.3184C86.6035 90.3531 86.6944 90.3704 86.8502 90.3704H88.3046C88.4344 90.3704 88.5124 90.3574 88.5383 90.3314C88.573 90.2968 88.5903 90.2405 88.5903 90.1626C88.5903 89.9375 88.4907 89.7428 88.2916 89.5783C88.0925 89.4051 87.8588 89.3186 87.5904 89.3186C87.2441 89.3186 86.9628 89.4527 86.7463 89.7211C86.6078 89.8943 86.5386 90.0501 86.5386 90.1886Z" fill="#97A688"/>
<path d="M40.3707 116.501C37.9151 116.117 36.1595 115.081 35.1038 113.394C34.0481 111.707 33.7822 109.507 34.306 106.794C34.8113 104.177 35.8705 102.225 37.4835 100.94C39.1158 99.6402 41.1032 99.1738 43.4458 99.5403C45.9014 99.9246 47.6747 100.955 48.7659 102.631C49.857 104.307 50.1499 106.453 49.6446 109.07C49.1207 111.784 48.041 113.798 46.4057 115.113C44.7895 116.415 42.7779 116.878 40.3707 116.501ZM42.9644 102.939C40.8642 102.61 39.4855 104.147 38.8283 107.551C38.5152 109.173 38.4847 110.409 38.7367 111.258C39.0484 112.316 39.7939 112.937 40.9733 113.122C43.0573 113.448 44.4186 111.957 45.0572 108.65C45.4106 106.82 45.4159 105.456 45.0732 104.559C44.7498 103.648 44.0468 103.108 42.9644 102.939Z" fill="#97A688"/>
<path d="M60.0978 112.654C59.6583 112.611 59.4197 112.842 59.3819 113.347L59.3235 114.13C59.282 114.684 59.5062 114.976 59.9958 115.006C60.1917 115.018 60.4383 115.008 60.7358 114.977C61.0998 114.934 61.4042 114.919 61.649 114.934C62.057 114.959 62.3725 115.125 62.5954 115.434C62.8183 115.742 62.9115 116.141 62.8749 116.63C62.8347 117.168 62.6392 117.59 62.2884 117.897C61.9376 118.203 61.5011 118.341 60.9787 118.309C60.5217 118.281 59.8474 118.199 58.9558 118.064C58.0642 117.928 57.3898 117.846 56.9328 117.818C56.231 117.776 55.6415 117.765 55.1646 117.785L53.9557 117.835C53.6269 117.847 53.4053 117.85 53.291 117.843C52.7687 117.812 52.3565 117.623 52.0545 117.277C51.7687 116.932 51.6459 116.491 51.6862 115.953C51.7203 115.496 51.8713 115.12 52.1393 114.825C52.4236 114.531 52.7534 114.396 53.1289 114.418C53.2758 114.427 53.4773 114.472 53.7336 114.553C53.9911 114.618 54.177 114.654 54.2913 114.661C54.7319 114.687 54.9937 114.146 55.0766 113.037L55.5828 106.262C55.6218 105.74 55.6304 105.405 55.6087 105.256C55.5588 104.827 55.3706 104.603 55.0442 104.583C54.9136 104.575 54.7153 104.596 54.4493 104.645C54.2008 104.68 54.0031 104.692 53.8562 104.683C53.4808 104.661 53.1741 104.486 52.9361 104.161C52.7144 103.836 52.6206 103.445 52.6547 102.989C52.6949 102.451 52.8904 102.029 53.2412 101.722C53.5933 101.399 54.0304 101.254 54.5527 101.286C54.5691 101.287 54.5935 101.288 54.6262 101.29C54.6576 101.308 54.6897 101.318 54.7223 101.32C55.114 101.344 55.7067 101.421 56.5004 101.551C57.2941 101.681 57.895 101.758 58.303 101.783C59.0865 101.83 59.9458 101.85 60.8811 101.841C62.0624 101.83 62.7346 101.83 62.8978 101.84C64.6769 101.948 66.0755 102.54 67.0936 103.618C68.1291 104.679 68.586 106.026 68.4642 107.656C68.3375 109.352 67.6657 110.663 66.4488 111.588C65.2483 112.515 63.6687 112.919 61.71 112.8C61.5468 112.79 61.2373 112.763 60.7815 112.719L60.0978 112.654ZM59.7456 108.48C59.7115 108.936 59.731 109.224 59.8041 109.343C59.8784 109.446 60.0945 109.516 60.4523 109.555L60.8422 109.603C62.7597 109.834 63.7794 109.134 63.9012 107.503C64.0181 105.937 63.2116 105.102 61.4814 104.998C61.057 104.972 60.7614 104.979 60.5945 105.018C60.2947 105.081 60.1005 105.266 60.0121 105.572C59.9672 105.733 59.9326 105.977 59.9083 106.303L59.7456 108.48Z" fill="#97A688"/>
<path d="M79.2242 104.875C78.685 104.896 78.3278 104.958 78.1526 105.063C77.9144 105.219 77.8071 105.551 77.8307 106.057L77.8947 107.429C77.9077 107.707 77.9503 107.918 78.0225 108.062C78.1103 108.19 78.3094 108.248 78.6199 108.236C79.3388 108.209 79.6861 107.934 79.6618 107.411L79.6469 107.093C79.626 106.995 79.6121 106.873 79.6052 106.726C79.5732 106.04 79.9576 105.682 80.7582 105.652C81.5916 105.62 82.0277 106.021 82.0666 106.854C82.0772 107.083 82.0727 107.336 82.053 107.615C82.0128 108.157 82.0033 108.656 82.0247 109.114C82.0445 109.538 82.1023 110.076 82.1982 110.727C82.294 111.378 82.348 111.834 82.3602 112.095C82.4052 113.059 81.9946 113.557 81.1286 113.59C80.3116 113.621 79.8836 113.22 79.8448 112.387C79.841 112.305 79.8391 112.264 79.8391 112.264C79.8353 112.183 79.8424 111.986 79.8607 111.674C79.8424 111.282 79.4819 111.1 78.7793 111.126C78.3054 111.144 78.0807 111.415 78.105 111.937L78.1908 113.775C78.2174 114.347 78.3338 114.735 78.5398 114.94C78.7613 115.128 79.1499 115.211 79.7055 115.19L81.1271 115.136C82.1729 115.097 82.8958 114.98 83.2959 114.784C83.7124 114.589 83.91 114.262 83.8886 113.805C83.878 113.576 83.8409 113.308 83.7774 112.999C83.7131 112.674 83.676 112.406 83.6661 112.193C83.6379 111.589 83.7874 111.109 84.1145 110.753C84.4417 110.397 84.8994 110.208 85.4876 110.185C86.6805 110.14 87.3074 110.771 87.3683 112.078C87.3882 112.503 87.3846 112.953 87.3577 113.428C87.3126 114.215 87.2946 114.707 87.3037 114.903C87.3121 115.083 87.3693 115.432 87.4754 115.952C87.5389 116.26 87.5783 116.578 87.5935 116.905C87.6294 117.672 87.1652 118.074 86.2011 118.111C85.8907 118.123 85.3748 118.118 84.6536 118.096C83.4569 118.059 81.5506 118.074 78.9346 118.14C78.9346 118.14 78.2075 118.168 76.7532 118.223C75.9362 118.254 75.2592 118.304 74.7222 118.373L72.8675 118.615C72.8511 118.616 72.8188 118.625 72.7706 118.643C72.7215 118.645 72.6807 118.647 72.648 118.648C72.1415 118.667 71.7168 118.511 71.374 118.181C71.0475 117.849 70.8721 117.422 70.8477 116.9C70.8263 116.442 70.931 116.054 71.1616 115.734C71.4086 115.414 71.7281 115.246 72.1203 115.232C72.251 115.227 72.4486 115.252 72.7131 115.307C72.9769 115.346 73.1659 115.364 73.2803 115.36C73.7215 115.343 73.9162 114.779 73.8644 113.668L73.5477 106.882C73.4967 105.787 73.2505 105.248 72.8094 105.265C72.7113 105.269 72.5168 105.309 72.2257 105.385C72.0155 105.442 71.8288 105.474 71.6654 105.48C71.2895 105.494 70.9637 105.351 70.6877 105.051C70.4118 104.75 70.2632 104.371 70.2419 103.914C70.1862 102.722 70.7548 102.103 71.9477 102.058C72.2255 102.047 72.7907 102.059 73.6435 102.092C74.9226 102.142 76.1586 102.144 77.3514 102.099C77.4658 102.094 78.4451 102.033 80.2892 101.914C81.6276 101.831 82.5085 101.765 82.9318 101.716C83.6321 101.64 84.3663 101.588 85.1343 101.559C86.0494 101.524 86.5256 101.907 86.5629 102.708C86.5751 102.969 86.5603 103.354 86.5186 103.863C86.4932 104.371 86.4866 104.756 86.4988 105.017C86.511 105.279 86.5612 105.653 86.6494 106.141C86.7532 106.611 86.8108 106.969 86.8222 107.214C86.8443 107.688 86.6833 108.095 86.339 108.435C86.0111 108.775 85.5857 108.954 85.0628 108.974C83.8373 109.021 83.1952 108.415 83.1365 107.157C83.1266 106.945 83.1456 106.65 83.1934 106.271C83.2576 105.893 83.2855 105.613 83.2771 105.434C83.2603 105.074 83.0621 104.861 82.6825 104.793C82.5503 104.766 82.2063 104.762 81.6508 104.783L79.2242 104.875Z" fill="#97A688"/>
<path d="M98.8874 101.476L105.029 111.179L103.736 104.034C103.54 102.956 103.232 102.448 102.812 102.51C102.698 102.527 102.534 102.584 102.32 102.681C102.118 102.761 101.961 102.808 101.847 102.825C101.508 102.875 101.189 102.765 100.891 102.495C100.609 102.222 100.427 101.861 100.345 101.41C100.249 100.879 100.326 100.43 100.575 100.063C100.824 99.6964 101.199 99.4761 101.701 99.4025C101.96 99.3645 102.412 99.3395 103.057 99.3273C103.703 99.3151 104.268 99.2734 104.754 99.2022C105.191 99.1381 105.694 99.0311 106.265 98.8813C107.121 98.6565 107.655 98.5287 107.865 98.4978C108.383 98.4218 108.832 98.521 109.214 98.7953C109.596 99.0696 109.835 99.4722 109.931 100.003C110.013 100.454 109.952 100.851 109.748 101.195C109.545 101.538 109.257 101.737 108.885 101.792C108.739 101.813 108.541 101.818 108.289 101.805C108.035 101.776 107.843 101.772 107.714 101.791C107.39 101.838 107.216 102.07 107.192 102.487C107.189 102.652 107.234 102.992 107.327 103.507L109.106 113.33C109.298 114.392 108.958 114.988 108.084 115.116C107.922 115.139 107.67 115.168 107.327 115.202C106.998 115.217 106.752 115.237 106.591 115.261C106.574 115.263 106.181 115.337 105.41 115.483C105.41 115.483 105.232 115.51 104.876 115.562C104.407 115.631 104.039 115.569 103.772 115.377C103.619 115.267 103.37 114.949 103.025 114.421L96.4186 104.489L97.7386 111.778C97.9367 112.872 98.2461 113.388 98.6668 113.326C98.78 113.31 98.9455 113.261 99.1633 113.179C99.3943 113.079 99.5664 113.021 99.6797 113.004C100.019 112.955 100.33 113.066 100.612 113.338C100.91 113.608 101.1 113.969 101.182 114.419C101.394 115.594 100.934 116.264 99.8019 116.43C99.4783 116.478 98.9357 116.508 98.174 116.521C97.6608 116.53 97.1534 116.571 96.6519 116.645C96.2312 116.707 95.6722 116.83 94.975 117.015C94.2777 117.2 93.8319 117.307 93.6378 117.335C92.4568 117.509 91.7599 117.008 91.5472 115.833C91.4656 115.383 91.5185 114.987 91.7058 114.646C91.9093 114.302 92.1971 114.103 92.5692 114.048C92.7148 114.027 92.9148 114.03 93.1691 114.059C93.4367 114.069 93.6352 114.065 93.7646 114.046C94.2015 113.982 94.3208 113.403 94.1227 112.309L92.912 105.623C92.7168 104.545 92.4007 104.038 91.9639 104.102C91.8345 104.121 91.6462 104.182 91.399 104.284C91.165 104.368 90.9753 104.421 90.8296 104.442C90.4575 104.497 90.1144 104.39 89.8002 104.122C89.5021 103.852 89.3123 103.492 89.2307 103.042C89.1346 102.511 89.2191 102.06 89.4844 101.691C89.7497 101.322 90.1412 101.099 90.6589 101.023C90.9987 100.973 91.4994 100.941 92.1611 100.927C92.8229 100.912 93.3398 100.877 93.7119 100.823C94.0193 100.778 94.5393 100.668 95.2718 100.495C95.6087 100.429 95.9911 100.34 96.4192 100.227C96.6075 100.167 96.8149 100.12 97.0414 100.086C97.4782 100.022 97.8486 100.141 98.1525 100.444C98.2728 100.558 98.5178 100.902 98.8874 101.476Z" fill="#97A688"/>
<defs>
<filter id="filter0_d_1_24880" x="0" y="54" width="149.143" height="86" filterUnits="userSpaceOnUse" color-interpolation-filters="sRGB">
<feFlood flood-opacity="0" result="BackgroundImageFix"/>
<feColorMatrix in="SourceAlpha" type="matrix" values="0 0 0 0 0 0 0 0 0 0 0 0 0 0 0 0 0 0 127 0" result="hardAlpha"/>
<feOffset dy="4"/>
<feGaussianBlur stdDeviation="2"/>
<feComposite in2="hardAlpha" operator="out"/>
<feColorMatrix type="matrix" values="0 0 0 0 0 0 0 0 0 0 0 0 0 0 0 0 0 0 0.25 0"/>
<feBlend mode="normal" in2="BackgroundImageFix" result="effect1_dropShadow_1_24880"/>
<feBlend mode="normal" in="SourceGraphic" in2="effect1_dropShadow_1_24880" result="shape"/>
</filter>
</defs>
</svg>
