<svg width="419" height="424" viewBox="0 0 419 424" fill="none" xmlns="http://www.w3.org/2000/svg">
<path d="M397.864 180.46L240.944 180.357V114.005C241.805 105.935 245.679 102 257.303 102C268.927 102 348.598 102 383.012 102C391.622 102 397.864 103.245 397.864 114.553V180.46Z" fill="#B7000A"/>
<path d="M209.633 151.907L251.169 121.219C256.511 117.272 263.918 121.94 262.662 128.463L254.062 173.121C253.744 174.775 252.862 176.268 251.568 177.346L218.632 204.772C213.882 208.728 206.674 205.35 206.674 199.169V157.772C206.674 155.458 207.772 153.282 209.633 151.907Z" fill="#C5C5C5"/>
<path d="M389.747 116.232C389.747 110.862 385.394 106.509 380.024 106.509H250.666C245.296 106.509 240.943 110.862 240.943 116.232V194.89H389.747V116.232Z" fill="#F31D28"/>
<path d="M217.495 158.669L240.943 140.961V184.519L217.495 204.81V158.669Z" fill="#989898"/>
<path d="M393.108 193.987H335.637V249L393.108 193.987Z" fill="#45171A"/>
<rect x="331.128" y="185.872" width="38.7792" height="25.2516" fill="#A70E17"/>
<path d="M241.065 168.737H369.906V185.872H222.906L241.065 168.737Z" fill="#CD111B"/>
<path d="M282.364 172.401C282.146 145.042 287.014 125.139 290.174 118.84L325.174 118.84C330.026 130.168 333.436 142.125 333.876 171.632C334.222 194.797 333.109 208.849 324.68 208.115C322.517 207.926 316.601 208.025 315.521 207.217C313.355 205.594 312.239 179.301 313.116 174.323C313.116 174.323 311.607 175.49 308.364 175.538C305.12 175.587 304.921 175.017 303.637 174.464C304.422 179.142 304.574 205.309 299.506 207.98C297.931 208.81 295.089 208.115 293.4 208.115C288.433 208.115 282.637 206.6 282.364 172.401Z" fill="#C39979"/>
<ellipse cx="307.889" cy="147.685" rx="16.2186" ry="19.0807" fill="#E4C7B0"/>
<path d="M332.7 202.107C332.7 197.785 313.935 198.174 313.327 200.703C312.063 205.953 313.53 210.384 315.559 210.624C318.132 210.928 317.73 208.588 320.318 208.721C322.979 208.858 322.841 210.624 325.506 210.624C328.145 210.624 332.7 207.124 332.7 202.107Z" fill="#BEBEBE"/>
<path d="M284.646 201.684C283.974 198.016 295.042 198.398 302.216 199.924C305.495 200.622 303.855 209.992 301.806 210.228C299.208 210.526 299.295 208.38 296.681 208.51C293.995 208.645 294.92 210.651 292.229 210.651C289.565 210.651 285.534 206.534 284.646 201.684Z" fill="#BEBEBE"/>
<path d="M347.919 88.8418C347.919 105.561 341.081 115.577 319.525 120.53C312.106 122.235 304.355 122.341 296.895 120.825C274.086 116.191 269.307 105.699 269.307 88.8418C269.307 69.493 286.905 53.8076 308.613 53.8076C330.321 53.8076 347.919 69.493 347.919 88.8418Z" fill="#C99D7B"/>
<path d="M305.413 59.9268C305.359 60.8577 304.692 61.7295 303.133 62.099C301.73 62.4316 300.295 60.6761 300.35 59.7452C300.405 58.8144 301.945 58.0314 303.214 58.1061C304.484 58.1808 305.468 58.9959 305.413 59.9268Z" fill="#BC8C67"/>
<path d="M310.271 59.3304C310.216 60.2613 310.776 61.2052 312.281 61.7551C313.636 62.2499 315.266 60.6747 315.321 59.7438C315.376 58.8129 313.938 57.8548 312.669 57.7801C311.399 57.7055 310.326 58.3996 310.271 59.3304Z" fill="#BC8C67"/>
<path d="M310.749 63.8718C310.804 64.8027 310.245 65.7466 308.739 66.2964C307.385 66.7913 305.697 65.4086 305.642 64.4777C305.588 63.5468 307.083 62.3962 308.352 62.3215C309.621 62.2469 310.695 62.941 310.749 63.8718Z" fill="#BC8C67"/>
<path d="M343.09 6.84433C359.885 12.5152 338.987 44.5852 332.738 61.2031C328.474 63.5381 319.834 61.8309 323.397 53.4053C327.852 42.8733 314.872 32.6082 318.353 25.4848C321.834 18.3614 330.847 43.8421 331.697 33.7819C333.859 8.19294 336.908 4.75666 343.09 6.84433Z" fill="#815D5D"/>
<path d="M273.159 5.71132C256.224 10.949 276.632 44.4105 282.452 61.1834C286.655 63.6272 295.336 62.1425 291.99 53.6281C287.807 42.9852 300.706 32.1914 297.409 24.981C294.113 17.7705 284.448 43.0113 283.857 32.9326C282.353 7.29657 279.393 3.78313 273.159 5.71132Z" fill="#815D5D"/>
<path d="M270.281 53.5374C264.404 66.4733 271.245 66.8574 273.101 70.967C275.538 76.3648 290.092 64.1971 286.232 62.2908C282.372 60.3844 285.152 54.1466 270.281 53.5374Z" fill="#C99D7B"/>
<path d="M272.829 58.1152C273.135 56.894 274.839 56.0434 278.465 58.1152C278.91 58.3696 282.828 60.3286 283.133 62.313C283.515 64.7935 278.172 68.0372 276.073 67.8464C273.974 67.6556 275.501 66.3199 273.211 64.6027C270.921 62.8854 272.448 59.6416 272.829 58.1152Z" fill="#E4C7B0"/>
<path d="M347.144 53.8373C352.487 67.003 345.636 67.1067 343.613 71.137C340.957 76.4304 326.914 63.6772 330.848 61.9305C334.783 60.1838 332.261 53.8373 347.144 53.8373Z" fill="#C99D7B"/>
<path d="M344.037 57.6717C343.741 56.4426 340.951 56.4765 338.187 58.6978C337.241 59.4582 334.114 60.1749 333.817 62.1722C333.446 64.6688 338.844 67.6582 340.884 67.4661C342.924 67.2741 341.441 65.9297 343.666 64.2013C345.892 62.4729 344.408 59.2081 344.037 57.6717Z" fill="#E4C7B0"/>
<ellipse cx="308.644" cy="97.5669" rx="15.8795" ry="9.88695" transform="rotate(-1.05377 308.644 97.5669)" fill="#E4C7B0"/>
<path d="M331.174 85.5L325.504 87.9301C325.067 88.1172 325.113 88.7504 325.572 88.8728L331.674 90.5" stroke="#45171A" stroke-width="2" stroke-linecap="round"/>
<path d="M285.174 86L290.844 88.4301C291.281 88.6172 291.235 89.2504 290.776 89.3728L284.674 91" stroke="#45171A" stroke-width="2" stroke-linecap="round"/>
<path d="M308.68 95.7852C305.848 95.7852 303.556 93.735 304.987 92.5417C305.643 92.1939 307.771 93.7245 308.68 93.6865C309.544 93.6504 311.817 92.1036 312.619 92.5417C314.336 94.0681 311.512 95.7852 308.68 95.7852Z" fill="#45171A" stroke="#45171A" stroke-width="2" stroke-linecap="round"/>
<path d="M308.803 95.5942V98.6472M308.803 98.6472C309.503 99.156 311.245 100.097 312.619 99.792C313.993 99.4867 314.591 98.9016 314.718 98.6472M308.803 98.6472C308.358 99.0288 307.2 99.792 305.369 99.792C303.537 99.792 302.888 99.0288 302.697 98.6472" stroke="#45171A" stroke-linecap="round"/>
<path d="M324.168 105.498C328.525 116.694 337.943 132.918 329.674 138.499C326.514 135.844 321.26 130.745 316.174 120C311.135 109.353 309.546 109.715 309.174 106.5C308.663 103.632 311.495 103.592 313.892 102.542C320.593 99.6097 318.961 92.1197 324.168 105.498Z" fill="#BC906E"/>
<path d="M319.563 96.7946C321.578 98.1221 323.008 102.344 323.008 102.344C323.008 102.344 319.268 104.496 316.684 105.43C313.895 106.439 309.29 107.173 309.29 107.173C308.878 104.818 309.144 106.07 308.944 101.838C308.744 97.6066 312.149 100.672 314.64 99.4961C316.663 98.542 317.931 95.7198 319.563 96.7946Z" fill="#826868"/>
<path d="M293.898 105.498C289.54 116.694 280.123 132.918 288.391 138.499C291.552 135.844 296.806 130.745 301.892 120C306.931 109.353 308.519 109.715 308.892 106.5C309.403 103.632 306.57 103.592 304.173 102.542C297.472 99.6097 299.104 92.1197 293.898 105.498Z" fill="#BC906E"/>
<path d="M298.503 96.7946C296.487 98.1221 295.057 102.344 295.057 102.344C295.057 102.344 298.797 104.496 301.381 105.43C304.171 106.439 308.775 107.173 308.775 107.173C309.187 104.818 308.922 106.07 309.122 101.838C309.321 97.6066 305.917 100.672 303.425 99.4961C301.403 98.542 300.134 95.7198 298.503 96.7946Z" fill="#826868"/>
<path d="M406.174 175.5L306.793 269.049C308.318 266.617 306.834 262.368 273.674 269C266.174 270.5 269.174 278.182 270.174 280.591C271.174 283 275.577 289.208 283.174 290.091C304.674 292.591 307.902 287.273 310.674 284.5C317.174 278 402.674 197.5 418.674 181C421.174 174 399.174 167 406.174 175.5Z" fill="url(#paint0_linear_1375_50986)"/>
<path d="M363.057 161.569L395.559 131.708C400.234 127.413 407.784 130.73 407.784 137.078V176.566C407.784 178.545 406.98 180.439 405.556 181.813L373.054 213.178C368.424 217.646 360.699 214.365 360.699 207.931V166.938C360.699 164.897 361.554 162.95 363.057 161.569Z" fill="url(#paint1_linear_1375_50986)"/>
<path d="M371.711 168.737L407.784 135.308V176.853C407.784 178.56 407.179 180.46 405.398 182.05L371.711 214.82V168.737Z" fill="url(#paint2_linear_1375_50986)"/>
<path d="M342.167 232.099L175.97 231.989V161.715C176.882 153.168 180.985 149 193.296 149C205.607 149 289.988 149 326.436 149C335.556 149 342.167 150.319 342.167 162.295V232.099Z" fill="#B7000A"/>
<path d="M142.632 201.987L187.687 168.699C193.03 164.752 200.437 169.42 199.181 175.943L189.834 224.477C189.516 226.131 188.634 227.624 187.34 228.702L151.632 258.437C146.882 262.392 139.674 259.015 139.674 252.833V207.852C139.674 205.538 140.771 203.362 142.632 201.987Z" fill="url(#paint3_linear_1375_50986)"/>
<path d="M333.57 163.499C333.57 158.129 329.217 153.776 323.848 153.776H185.692C180.322 153.776 175.969 158.129 175.969 163.499V247.381H333.57V163.499Z" fill="#F31D28"/>
<path d="M151.136 209.019L175.97 190.264V236.397L151.136 257.888V209.019Z" fill="#E9E9E9"/>
<path d="M337.13 246.426H276.261V275.558H306.695L337.13 246.426Z" fill="#45171A"/>
<rect x="271.485" y="237.83" width="41.0717" height="26.7444" fill="#A70E17"/>
<path d="M176.099 219.682H312.557V237.83H156.866L176.099 219.682Z" fill="#CD111B"/>
<path d="M202.304 128.228L236.679 121L264.756 124.706L272.135 128.228L279.512 134.102L279.674 139.342C279.674 139.342 279.248 144.063 273.575 146.575C261.769 151.803 239.858 156 239.858 156C239.858 156 208.413 149.799 196.364 146.575C189.138 144.641 189.683 139.155 189.683 139.155L190.785 133.973L195.464 128.228H202.304Z" fill="#937320"/>
<path d="M185.871 166.966C191.761 180.128 211.577 191.324 219.835 189.228C219.376 184.633 215.881 172.957 211.04 160.576C206.199 148.194 199.355 140.422 196.539 138.083C194.874 137.895 191.417 138.447 188.851 140.035C181.676 144.474 179.311 152.306 185.871 166.966Z" fill="#A98469"/>
<path d="M287.32 162.94C282.806 176.578 260.865 191.651 250.725 188.495C250.834 183.893 260.072 172.643 263.676 159.884C267.279 147.124 273.036 138.735 275.465 136.136C276.981 135.783 280.195 135.986 282.661 137.304C289.556 140.989 292.347 147.751 287.32 162.94Z" fill="#A98469"/>
<path d="M202.725 220.843C202.965 194.966 215.428 176.671 219.529 170.758H255.956C261.857 181.54 272.938 192.931 272.938 220.843C272.938 242.756 261.099 255.162 254.525 256.843C251.934 257.505 242.196 257.623 240.851 256.843C238.152 255.277 239.652 239.886 240.851 235.191H233.35C234.251 239.626 235.432 254.756 230.93 256.843C229.021 257.728 221.629 257.103 219.529 256.843C217.429 256.582 202.425 253.191 202.725 220.843Z" fill="#BC9171"/>
<ellipse cx="237.626" cy="207.965" rx="21.3704" ry="20.4164" fill="#EBC9B0"/>
<path d="M280.367 143.663C280.367 163.053 270.708 178.771 237.436 178.771C199.87 178.771 194.504 163.053 194.504 143.663C194.504 124.273 213.725 108.554 237.436 108.554C261.146 108.554 280.367 124.273 280.367 143.663Z" fill="#CA9C79"/>
<path d="M220.066 99.2724C215.229 100.388 205.122 112.549 200.674 118.49C227.295 121.332 278.369 124.132 269.694 112.601C258.861 98.2005 252.815 99.2704 244.07 100.818L244.046 100.822C235.288 102.372 226.113 97.8775 220.066 99.2724Z" fill="#D8AD40"/>
<path d="M204.655 110.939C194.357 116.739 201.315 127.416 201.315 127.416L223.258 116.315C223.258 116.315 214.953 105.139 204.655 110.939Z" fill="#CA9C79"/>
<path d="M207.007 114.957C200.191 119.039 205.073 126.12 205.073 126.12L219.623 118.269C219.623 118.269 213.824 110.875 207.007 114.957Z" fill="#EBC9B0"/>
<path d="M269.406 110.12C279.994 115.371 273.607 126.398 273.607 126.398L251.111 116.465C251.111 116.465 258.818 104.868 269.406 110.12Z" fill="#CA9C79"/>
<path d="M267.268 114.255C274.29 117.974 269.786 125.301 269.786 125.301L254.844 118.225C254.844 118.225 260.247 110.536 267.268 114.255Z" fill="#EBC9B0"/>
<ellipse cx="14.5126" cy="9.88668" rx="14.5126" ry="9.88668" transform="matrix(0.999798 -0.0201229 0.0168076 0.999859 218.433 142.72)" fill="#EBC9B0"/>
<path d="M233.143 150.531C230.554 150.531 228.372 149.196 229.68 148.002C230.781 147.177 232.46 147.177 233.142 147.177L233.143 147.177C234.374 147.176 235.729 147.428 236.462 147.866C238.642 149.169 235.731 150.531 233.143 150.531Z" fill="#45171A" stroke="#45171A" stroke-width="2" stroke-linecap="round"/>
<path d="M232.073 157.785C230.456 157.512 229.298 155.906 230.298 154.815C230.967 154.329 232.062 154.281 232.587 154.329C233.085 154.375 234.164 154.86 234.554 155.389C235.717 156.961 233.69 158.058 232.073 157.785Z" fill="#45171A" stroke="#45171A" stroke-width="2" stroke-linecap="round"/>
<path d="M260.326 130.493C251.087 129.93 245.122 126.383 236.1 126.383C225.024 126.383 219.266 129.672 210.232 130.887C200.583 132.184 191.659 128.387 189.674 139.5C188.076 127.993 196.888 121.59 212.285 117.883C221.319 115.709 223.581 114 236.1 114C246.548 114 252.461 116.268 258.888 118.254C274.093 122.952 283.641 129.307 279.838 142C279.838 133.499 272.849 131.258 260.326 130.493Z" fill="#EEC250"/>
<path d="M219.744 143.531C219.609 144.532 219.229 145.381 218.748 145.945C218.264 146.515 217.73 146.746 217.26 146.682C216.79 146.619 216.335 146.256 216.019 145.578C215.704 144.907 215.561 143.988 215.696 142.986C215.831 141.984 216.211 141.136 216.692 140.571C217.177 140.002 217.711 139.771 218.181 139.834C218.651 139.898 219.105 140.261 219.422 140.938C219.736 141.61 219.879 142.529 219.744 143.531Z" fill="#45171A" stroke="#45171A"/>
<path d="M254.543 143.989C254.618 144.997 254.42 145.906 254.067 146.557C253.71 147.215 253.235 147.55 252.762 147.586C252.289 147.621 251.77 147.359 251.32 146.761C250.874 146.169 250.545 145.299 250.47 144.291C250.395 143.283 250.593 142.374 250.946 141.723C251.303 141.066 251.778 140.73 252.251 140.695C252.724 140.66 253.243 140.922 253.693 141.519C254.139 142.111 254.469 142.981 254.543 143.989Z" fill="#45171A" stroke="#45171A"/>
<path d="M305.163 212.218L340.448 179.801C345.124 175.506 352.674 178.822 352.674 185.171V228.157C352.674 230.136 351.869 232.03 350.445 233.404L315.16 267.456C310.53 271.924 302.805 268.643 302.805 262.208V217.588C302.805 215.547 303.66 213.599 305.163 212.218Z" fill="url(#paint4_linear_1375_50986)"/>
<path d="M314.468 219.682L352.674 184.277V228.278C352.674 230.086 352.033 232.099 350.147 233.783L314.468 268.49V219.682Z" fill="url(#paint5_linear_1375_50986)"/>
<path d="M290.674 287L170.675 402.499C170.2 402.266 47.6419 378.307 4.17398 387C-3.32602 388.5 1.17398 402.167 3.17398 403.5C5.17398 404.834 23.674 419.126 70.1735 423C112.174 426.5 176.401 415.773 179.173 413C185.673 406.5 287.174 309 303.174 292.5C305.674 285.5 283.674 278.5 290.674 287Z" fill="url(#paint6_linear_1375_50986)"/>
<path d="M280.674 287L106.674 286.886V213.312C107.629 204.364 111.925 200 124.814 200.001C137.703 200.001 226.045 200.001 264.205 200.001C273.752 200.001 280.674 201.381 280.674 213.92V287Z" fill="#B7000A"/>
<path d="M71.6327 255.577L119.647 220.103C124.989 216.156 132.397 220.824 131.141 227.346L121.166 279.141C120.848 280.795 119.967 282.288 118.672 283.366L80.6321 315.043C75.8821 318.998 68.6738 315.62 68.6738 309.439V261.442C68.6738 259.128 69.7718 256.952 71.6327 255.577Z" fill="url(#paint7_linear_1375_50986)"/>
<path d="M271.674 214.723C271.674 209.353 267.321 205 261.951 205H116.397C111.027 205 106.674 209.353 106.674 214.723V303H271.674V214.723Z" fill="#F31D28"/>
<path d="M80.6738 262.837L106.674 243.202V291.5L80.6738 314V262.837Z" fill="#E9E9E9"/>
<path d="M275.4 302H211.674V363L275.4 302Z" fill="#45171A"/>
<rect x="206.674" y="293" width="43" height="28" fill="#A70E17"/>
<path d="M106.809 274H249.674V293H86.6738L106.809 274Z" fill="#CD111B"/>
<path d="M186.685 313.776C192.981 312.468 193.979 304.599 193.766 302.069C187.292 302.9 174.374 307.584 173.885 309.744C173.273 312.445 178.816 315.411 186.685 313.776Z" fill="#B6B6B6"/>
<path d="M145.145 313.897C138.644 312.788 137.793 306.36 137.626 303.227C144.322 302.919 158.66 305.385 159.483 307.923C160.512 311.097 154.43 315.482 145.145 313.897Z" fill="#B6B6B6"/>
<path d="M182.546 300.589C193.225 305.9 230.487 270.626 226.882 254.289C224.128 241.806 199.568 221.411 189.82 237.185C177.634 256.902 169.198 293.95 182.546 300.589Z" fill="#543A3A"/>
<path d="M214.467 246.753C211.033 252.699 196.984 256.874 191.013 253.918C191.316 251.712 197.484 247.587 200.322 241.937C203.16 236.288 207.075 233.052 208.678 232.14C209.613 232.184 211.547 232.736 212.971 233.721C216.952 236.474 218.291 240.132 214.467 246.753Z" fill="#B78E78"/>
<path d="M117.374 237.942C118.941 244.627 131.213 252.694 137.804 251.594C138.155 249.395 133.433 243.659 132.352 237.43C131.27 231.2 128.453 226.969 127.179 225.632C126.269 225.403 124.252 225.371 122.599 225.902C117.977 227.384 115.628 230.497 117.374 237.942Z" fill="#B78E78"/>
<path d="M126.949 273.211C128.648 249.332 134.934 226.432 139.502 219.716C139.502 219.716 147.477 209.639 158.707 208.619C179.135 206.764 185.008 215.583 185.008 215.583C195.403 227.277 200.51 243.71 203.189 273.211C205.293 296.37 196.568 303.622 188.497 306.146C185.317 307.141 179.632 310.153 166.173 310.153C150.574 310.153 152.12 308.945 142.953 306.586C131.604 303.666 125.266 296.855 126.949 273.211Z" fill="#C2947C"/>
<rect x="162.941" y="192.997" width="1.14484" height="11.4484" fill="white"/>
<ellipse cx="153.974" cy="192.234" rx="9.34956" ry="1.14484" fill="#B7D5DD"/>
<ellipse cx="172.673" cy="192.234" rx="9.34956" ry="1.14484" fill="#B7D5DD"/>
<circle cx="163.514" cy="192.043" r="1.33565" fill="white"/>
<path d="M164.271 218.551C151.683 218.381 142.366 217.207 139.281 216.641C143.107 210.201 148.351 197.958 164.271 197.958C180.931 197.958 186.67 210.201 188.891 216.641C185.929 217.348 176.859 218.721 164.271 218.551Z" fill="#00A3E0"/>
<mask id="mask0_1375_50986" style="mask-type:alpha" maskUnits="userSpaceOnUse" x="139" y="197" width="50" height="22">
<path d="M164.27 218.551C151.682 218.381 142.365 217.207 139.28 216.641C143.106 210.201 148.35 197.958 164.27 197.958C180.93 197.958 186.669 210.201 188.89 216.641C185.928 217.348 176.858 218.721 164.27 218.551Z" fill="#B9B9B9"/>
</mask>
<g mask="url(#mask0_1375_50986)">
<path d="M174.771 216.848C174.007 206.926 168.792 199.994 163.322 197.768C165.294 197.004 169.352 195.478 169.81 195.478C170.268 195.478 189.526 208.771 196.904 213.605C193.279 220.029 175.534 226.77 174.771 216.848Z" fill="#F9C745"/>
<path d="M152.637 217.993C153.4 208.071 158.425 199.994 163.895 197.768C161.923 197.004 157.865 195.478 157.407 195.478C156.949 195.478 141.506 205.909 134.129 210.743C137.754 217.166 151.874 227.915 152.637 217.993Z" fill="#DD313A"/>
</g>
<path d="M141.023 215.894C137.946 216.206 135.807 219.834 136.419 222.382C136.419 225.34 188.087 223.217 190.553 222.382C193.018 221.546 190.496 216.73 188.03 215.894C185.565 215.058 144.161 215.576 141.023 215.894Z" fill="#17846D"/>
<path d="M187.209 205.642C184.368 203.253 181.735 205.718 180.773 207.249C182.031 209.393 185.078 213.543 187.209 212.992C189.872 212.303 190.759 208.628 187.209 205.642Z" fill="#B78E78"/>
<path d="M141.801 205.642C144.641 203.253 147.275 205.718 148.236 207.249C146.979 209.393 143.931 213.543 141.801 212.992C139.138 212.303 138.25 208.628 141.801 205.642Z" fill="#B78E78"/>
<path d="M153.175 231.314C153.153 232.216 152.876 233.011 152.469 233.568C152.062 234.126 151.558 234.409 151.063 234.409C150.567 234.409 150.076 234.126 149.696 233.568C149.316 233.011 149.075 232.216 149.097 231.314C149.118 230.412 149.396 229.616 149.802 229.06C150.209 228.502 150.714 228.218 151.209 228.218C151.704 228.218 152.195 228.502 152.576 229.06C152.956 229.616 153.196 230.412 153.175 231.314Z" fill="#45171A" stroke="#45171A"/>
<path d="M179.069 231.15C179.086 232.052 178.843 232.847 178.461 233.403C178.077 233.961 177.585 234.244 177.089 234.244C176.594 234.244 176.09 233.961 175.685 233.403C175.281 232.847 175.006 232.052 174.989 231.15C174.971 230.249 175.214 229.454 175.597 228.897C175.98 228.34 176.472 228.056 176.968 228.056C177.463 228.056 177.967 228.34 178.372 228.897C178.776 229.454 179.051 230.249 179.069 231.15Z" fill="#45171A" stroke="#45171A"/>
<path d="M164.013 236.231C162.346 236.238 160.921 235.129 161.746 234.131C162.127 233.839 163.605 233.607 164.14 233.573C164.647 233.541 165.634 233.635 166.113 233.999C167.536 235.08 165.68 236.224 164.013 236.231Z" fill="#45171A" stroke="#45171A" stroke-width="1.17723" stroke-linecap="round"/>
<path d="M161.548 240.427L161.53 238.896L164.511 237.957L166.872 238.833L166.891 240.364C166.897 240.916 166.455 241.369 165.902 241.376L162.56 241.415C162.008 241.422 161.555 240.979 161.548 240.427Z" fill="white"/>
<path d="M164.168 236.084L164.198 237.801M164.198 237.801C164.906 238.298 166.664 239.209 168.033 238.881C169.401 238.552 169.989 237.957 170.112 237.7M164.198 237.801C163.759 238.19 162.615 238.973 160.783 239.004C158.952 239.035 158.29 238.283 158.093 237.905" stroke="#45171A" stroke-linecap="round"/>
<path fill-rule="evenodd" clip-rule="evenodd" d="M221.726 283L180.506 363.427C178.841 363.685 177.196 363.94 175.572 364.192L172.254 403.028C73.3277 418.284 39.0125 408.656 2.67383 392.65V360.349L2.67872 360.349C3.169 322.618 41.8099 297.24 59.0534 285.915C60.1372 285.204 61.1364 284.547 62.0363 283.947L221.726 283Z" fill="url(#paint8_linear_1375_50986)"/>
<path d="M221.726 357.313V283C209.683 292.061 203.997 295.58 188.728 315.934C173.459 336.287 172.254 403.028 172.254 403.028L221.726 357.313Z" fill="#F5F5F5"/>
<path d="M242.822 267.288L280.448 232.72C285.124 228.424 292.674 231.741 292.674 238.089V284.019C292.674 285.998 291.869 287.892 290.445 289.266L252.819 325.577C248.189 330.045 240.463 326.764 240.463 320.33V272.658C240.463 270.617 241.319 268.669 242.822 267.288Z" fill="url(#paint9_linear_1375_50986)"/>
<path d="M252.674 275L292.674 237.933V284C292.674 285.893 292.002 288 290.028 289.763L252.674 326.1V275Z" fill="url(#paint10_linear_1375_50986)"/>
<path d="M90.1738 309.397C78.6738 319.5 70.6738 330.891 62.6799 344.553C62.6799 344.557 62.6779 344.563 62.6738 344.571C70.6786 340.066 78.7792 335.765 86.9756 331.667C86.2865 330.36 85.6014 329.04 84.9204 327.708C82.3187 328.763 79.711 329.824 77.0971 330.891C80.1595 326.68 83.4748 322.725 87.0429 319.026C91.0351 327.535 95.5064 336.026 100.457 344.498C101.37 342.498 102.282 340.502 103.191 338.51C103.195 338.514 103.197 338.518 103.197 338.523C107.259 330.714 112.105 323.604 117.737 317.193C114.47 318.847 111.241 320.527 108.048 322.234C105.736 325.207 103.53 328.28 101.429 331.453C97.7839 323.727 91.9069 316.639 90.1738 309.397Z" fill="#45171A"/>
<path d="M121.199 312.825C122.451 311.676 123.692 310.533 124.924 309.397C123.121 310.134 119.515 311.25 117.737 312C117.28 312.452 116.823 312.902 116.367 313.35C115.249 313.391 114.13 313.427 113.008 313.46C112.364 314.136 111.72 314.812 111.076 315.489C112.172 315.444 113.263 315.393 114.348 315.336C113.076 316.611 111.426 318.2 110.174 319.5C111.809 318.689 115.663 317.211 117.327 316.417C117.914 315.863 118.503 315.313 119.095 314.768C120.151 314.674 121.203 314.576 122.251 314.474C122.989 313.851 123.731 313.228 124.477 312.605C123.389 312.682 122.296 312.755 121.199 312.825Z" fill="#45171A"/>
<path opacity="0.1" fill-rule="evenodd" clip-rule="evenodd" d="M276.912 47.868C269.35 30.8057 260.027 9.77282 273.159 5.71128C279.393 3.78309 282.352 7.29653 283.857 32.9326C284.146 37.8614 286.605 34.3435 289.428 30.3048C292.378 26.085 295.725 21.2966 297.409 24.9809C298.927 28.3006 297.012 32.3797 294.912 36.8541C292.45 42.0982 289.733 47.8851 291.99 53.6281C292.456 54.8138 292.689 55.8633 292.733 56.7847C297.589 54.8708 302.962 53.8077 308.613 53.8077C313.547 53.8077 318.269 54.6181 322.62 56.0976C322.729 55.2898 322.979 54.3938 323.397 53.4053C325.803 47.7181 323.124 42.1088 320.699 37.0299C318.634 32.7033 316.752 28.7616 318.353 25.4847C320.132 21.8449 323.355 26.7177 326.195 31.0119C328.914 35.1217 331.281 38.7016 331.697 33.7818C333.859 8.19289 336.908 4.75661 343.09 6.84428C356.103 11.2382 346.487 31.481 338.59 48.1047L338.59 48.1049C336.78 51.9149 335.061 55.5348 333.724 58.7302C335.248 56.41 337.668 53.8375 347.144 53.8375C351.116 63.6271 348.347 66.1948 345.834 68.5248C344.968 69.3284 344.132 70.1037 343.613 71.1372C343.455 71.4522 343.257 71.7034 343.024 71.8967C346.143 76.9185 347.919 82.6954 347.919 88.8419C347.919 93.8042 347.317 98.1761 345.906 102L383.012 102C391.622 102 397.864 103.245 397.864 114.553V130.257C401.893 128.681 406.661 131.084 407.614 135.466L407.784 135.308V137.078V171.669C412.313 172.297 420.228 176.648 418.674 181C408.018 191.989 366.534 231.367 338.092 258.365L338.089 258.367L338.085 258.371C323.825 271.907 312.845 282.33 310.674 284.5C310.478 284.697 310.278 284.906 310.071 285.125C308.692 286.577 306.932 288.43 302.93 289.601C303.394 290.539 303.524 291.52 303.174 292.5C292.23 303.785 241.288 352.964 208.103 385.001C192.77 399.803 181.228 410.946 179.173 413C176.401 415.773 112.174 426.5 70.1734 423C25.7836 419.301 6.91025 406.109 3.54912 403.76C3.38938 403.648 3.26468 403.561 3.17394 403.5C1.32501 402.268 -2.66049 390.495 2.67351 387.538V360.349L2.6784 360.349C2.79 351.761 4.878 343.813 8.24027 336.525L8.17382 336.5C8.98905 334.882 9.59079 333.717 10.2739 332.472C10.6734 331.736 11.0854 331.007 11.5091 330.285C11.563 330.191 11.6179 330.097 11.6738 330L11.678 329.998C24.2665 308.762 46.9396 293.871 59.0531 285.916C60.1368 285.204 61.1361 284.548 62.036 283.947L68.6738 283.908V261.442C68.6738 259.128 69.7718 256.952 71.6326 255.577L106.674 229.688V213.312V205.001H109.564C112.213 201.65 116.889 200.001 124.814 200.001L145.321 200.001L154.284 193.378L154.141 193.378L153.974 193.379C148.81 193.379 144.624 192.866 144.624 192.234C144.624 191.602 148.81 191.089 153.974 191.089C155.139 191.089 156.254 191.115 157.283 191.163L175.969 177.356V153.776H178.73C179.597 152.68 180.691 151.774 182.059 151.057C182.398 145.966 184.892 142.484 188.851 140.035C189.117 139.87 189.394 139.717 189.676 139.574C189.676 139.547 189.675 139.522 189.675 139.498L189.674 139.5C188.603 131.79 192.206 126.372 199.332 122.52C198.534 118.947 198.899 114.181 204.655 110.939C205.764 110.315 206.85 109.887 207.904 109.621C212.273 104.677 217.136 99.9484 220.066 99.2725C222.915 98.6154 226.458 99.2653 230.325 99.9746C234.666 100.771 239.414 101.642 244.046 100.822L244.07 100.818C249.453 99.8655 253.814 99.0938 258.898 102L270.861 102C269.715 98.1492 269.307 93.7673 269.307 88.8419C269.307 82.7607 271.045 77.0413 274.103 72.057C273.676 71.8377 273.333 71.4825 273.1 70.9673C272.625 69.9134 271.821 69.1045 270.988 68.2662C268.572 65.8352 265.911 63.1563 270.281 53.5376C275.392 53.747 278.418 54.6214 280.345 55.7563C279.317 53.2932 278.14 50.6375 276.917 47.8778L276.913 47.8701L276.912 47.8682L276.912 47.868Z" fill="url(#paint11_linear_1375_50986)"/>
<defs>
<linearGradient id="paint0_linear_1375_50986" x1="349.674" y1="272" x2="442.767" y2="218.443" gradientUnits="userSpaceOnUse">
<stop stop-color="#0072CF"/>
<stop offset="1" stop-color="#00569C"/>
</linearGradient>
<linearGradient id="paint1_linear_1375_50986" x1="384.241" y1="120.477" x2="384.241" y2="225.102" gradientUnits="userSpaceOnUse">
<stop offset="0.395" stop-color="#F1F1F1"/>
<stop offset="1" stop-color="#B1B1B1"/>
</linearGradient>
<linearGradient id="paint2_linear_1375_50986" x1="391.1" y1="165.129" x2="406.431" y2="175.049" gradientUnits="userSpaceOnUse">
<stop stop-color="#F5F5F5"/>
<stop offset="1" stop-color="#D0D0D0"/>
</linearGradient>
<linearGradient id="paint3_linear_1375_50986" x1="171.194" y1="157.597" x2="171.194" y2="268.395" gradientUnits="userSpaceOnUse">
<stop offset="0.42" stop-color="#F2F2F2"/>
<stop offset="0.935" stop-color="#C6C6C6"/>
</linearGradient>
<linearGradient id="paint4_linear_1375_50986" x1="327.739" y1="168.569" x2="327.739" y2="279.379" gradientUnits="userSpaceOnUse">
<stop offset="0.395" stop-color="#F1F1F1"/>
<stop offset="1" stop-color="#B1B1B1"/>
</linearGradient>
<linearGradient id="paint5_linear_1375_50986" x1="335.003" y1="215.861" x2="351.241" y2="226.368" gradientUnits="userSpaceOnUse">
<stop stop-color="#F5F5F5"/>
<stop offset="1" stop-color="#D0D0D0"/>
</linearGradient>
<linearGradient id="paint6_linear_1375_50986" x1="228.174" y1="358.5" x2="292.174" y2="278" gradientUnits="userSpaceOnUse">
<stop stop-color="#0076D6"/>
<stop offset="1" stop-color="#00569C"/>
</linearGradient>
<linearGradient id="paint7_linear_1375_50986" x1="101.674" y1="209" x2="101.674" y2="325" gradientUnits="userSpaceOnUse">
<stop offset="0.42" stop-color="#F2F2F2"/>
<stop offset="0.935" stop-color="#C6C6C6"/>
</linearGradient>
<linearGradient id="paint8_linear_1375_50986" x1="112.674" y1="291.5" x2="106.674" y2="390" gradientUnits="userSpaceOnUse">
<stop stop-color="#F3F3F3"/>
<stop offset="0.425" stop-color="white"/>
<stop offset="0.575184" stop-color="white"/>
<stop offset="1" stop-color="#D6D6D6"/>
</linearGradient>
<linearGradient id="paint9_linear_1375_50986" x1="266.569" y1="221.488" x2="266.569" y2="337.5" gradientUnits="userSpaceOnUse">
<stop offset="0.395" stop-color="#F1F1F1"/>
<stop offset="1" stop-color="#B1B1B1"/>
</linearGradient>
<linearGradient id="paint10_linear_1375_50986" x1="274.174" y1="271" x2="291.174" y2="282" gradientUnits="userSpaceOnUse">
<stop stop-color="#F5F5F5"/>
<stop offset="1" stop-color="#D0D0D0"/>
</linearGradient>
<linearGradient id="paint11_linear_1375_50986" x1="473.174" y1="83" x2="7.67383" y2="405" gradientUnits="userSpaceOnUse">
<stop stop-color="#ACD7FB"/>
<stop offset="1" stop-color="white"/>
</linearGradient>
</defs>
</svg>