<svg width="537" height="118" viewBox="0 0 537 118" fill="none" xmlns="http://www.w3.org/2000/svg">
<path fill-rule="evenodd" clip-rule="evenodd" d="M403.141 6.47478C402.986 6.34138 402.81 6.22837 402.613 6.14519C395.012 3.23067 393.201 3.18515 379.294 3.01879C365.563 4.03267 359.22 7.79157 355.257 13.9455C354.751 14.7302 354.932 15.741 355.679 16.3374C361.62 21.0976 368.393 22.8225 381.884 19.2598C394.791 15.46 396.461 14.8684 403.033 10.3074C403.045 10.2996 403.056 10.2918 403.066 10.2839C407.902 11.9538 412.673 13.7974 417.381 15.8147C417.925 16.0659 418.462 15.7143 418.406 15.1336C418.015 10.5413 417.653 5.83862 417.32 1.02555C417.278 0.393053 416.694 -0.134294 416.2 0.0305016C411.91 1.9913 407.557 4.1394 403.141 6.47478ZM487.384 22.2684C487.573 22.3987 487.75 22.5447 487.908 22.6985C491.619 22.3019 495.303 21.9143 498.958 21.5355C499.396 21.4915 500.041 21.964 500.191 22.4364C501.401 26.0504 502.638 29.6377 503.902 33.1983C504.069 33.6581 503.594 33.8276 503 33.5263C498.029 30.9157 493.138 28.2905 488.327 25.6507L488.316 25.6542C488.31 25.656 488.304 25.6575 488.299 25.6585C482.683 27.2923 481.184 27.2562 469.544 26.3318C457.396 25.0715 451.369 21.1368 446.19 14.4226C445.546 13.5657 445.395 12.5157 445.841 11.946C449.234 7.61579 454.617 6.63801 466.45 11.1314L466.657 11.2235C478.652 16.5747 480.28 17.3011 487.384 22.2684ZM325.223 42.1851C325.443 42.2322 325.644 42.2997 325.823 42.386C330.25 40.0653 334.652 37.7681 339.029 35.4944C339.556 35.2229 340.265 35.4332 340.384 35.8962C341.336 39.3993 342.327 42.848 343.357 46.2422C343.496 46.6754 342.969 47.074 342.349 47.005C337.002 46.44 331.613 45.8996 326.184 45.3837C326.18 45.386 326.177 45.3886 326.173 45.3911C326.167 45.3956 326.16 45.4002 326.153 45.4041C319.538 49.9776 317.761 50.709 303.378 56.0515C286.692 62.3435 277.674 62.4502 271.102 58.3068C270.351 57.7292 270.358 56.6055 271.113 55.656C276.874 48.3642 284.612 43.7044 299.896 41.4898C314.928 40.5748 316.862 40.4791 325.223 42.1851ZM528.024 80.7849C528.207 80.9042 528.36 81.0329 528.483 81.171C534.347 80.8644 540.558 80.5374 547.116 80.19C547.956 80.1461 548.622 80.5651 548.38 80.9921C546.407 84.2712 544.39 87.5436 542.328 90.8091C542.059 91.2329 541.194 91.3836 540.673 91.0995C536.187 88.6522 531.661 86.2053 527.095 83.759C527.084 83.7602 527.073 83.7614 527.063 83.7633C527.06 83.7639 527.057 83.7646 527.054 83.7653C519.027 84.9707 517.274 84.8718 504.687 83.4373C492.477 81.4911 487.022 77.9959 482.549 72.6456C481.977 71.9754 481.926 71.1938 482.446 70.7999C486.557 67.6499 492.661 66.9954 505.528 70.8877L505.896 71.0182L505.897 71.0183L505.897 71.0184L505.898 71.0186L505.898 71.0188L505.899 71.019L505.899 71.0192L505.9 71.0194L505.9 71.0196C519.138 75.7086 521.006 76.3702 528.024 80.7849ZM545.244 61.507C544.992 61.3689 544.712 61.2386 544.405 61.1209C533.943 56.861 531.308 56.0855 516.973 51.866C516.24 51.6502 515.477 51.4255 514.68 51.1908C500.455 47.2388 494.299 48.0801 490.385 51.7071C489.873 52.1701 489.998 53.0443 490.675 53.7726C496.003 59.531 502.42 63.1047 517.035 64.6161C533.145 65.6441 535.462 65.6881 545.31 64.208C545.318 64.2064 545.327 64.2051 545.335 64.2039L545.351 64.2014L545.358 64.2002C553.354 66.5984 561.623 68.9834 570.165 71.3554C571.07 71.6301 572.34 71.4606 572.619 71.0306C571.516 67.7022 569.401 64.3655 566.274 61.0204C565.861 60.5873 564.69 60.1713 564.025 60.2263C557.985 60.6689 551.724 61.0958 545.244 61.507ZM452.496 73.096C452.667 73.1933 452.822 73.3016 452.961 73.413C456.603 73.3879 460.275 73.3372 463.978 73.2608C464.431 73.2482 464.994 73.6218 465.053 73.9733C465.51 76.6498 465.973 79.3075 466.44 81.9463C466.501 82.2884 466.044 82.3653 465.563 82.0954C461.438 79.8134 457.284 77.5722 453.101 75.3717L453.096 75.3725L453.091 75.3731C453.085 75.3736 453.08 75.3739 453.076 75.3749C447.822 75.8489 446.467 75.6574 436.038 73.6343C424.804 73.4193 418.627 72.9202 412.921 70.5283C412.2 70.2144 411.947 69.6494 412.329 69.2021C415.314 65.8937 420.624 64.3038 432.529 65.7006C444.394 68.9824 445.927 69.4862 452.496 73.096ZM443.271 47.6249C443.072 47.457 442.847 47.3032 442.595 47.1666C433.091 42.0988 430.864 41.5354 413.659 37.8612C396.37 36.659 388.405 40.3818 383.719 47.0882C383.131 47.931 383.451 49.0547 384.459 49.75C392.453 55.0815 401.151 57.1391 417.723 55.0643C433.449 53.9358 435.479 53.7694 443.36 51.1704L443.375 51.1659C443.384 51.1633 443.392 51.1609 443.399 51.1578C449.689 53.8845 455.948 56.685 462.176 59.5592C462.703 59.8088 463.21 59.6503 463.148 59.2548C462.439 54.8142 461.703 50.2496 460.94 45.5611C460.866 45.1185 460.255 44.712 459.771 44.7873C454.253 45.684 448.753 46.6299 443.271 47.6249ZM361.689 64.2771C361.896 64.3163 362.088 64.3728 362.263 64.4466C366.145 62.6009 370.039 60.7772 373.945 58.9754C374.418 58.762 375.097 58.9424 375.24 59.3191C376.364 62.1567 377.5 64.9405 378.648 67.6703C378.799 68.0203 378.335 68.342 377.763 68.2871C372.838 67.8194 367.88 67.3522 362.887 66.8856C362.879 66.8919 362.869 66.8966 362.859 66.9028C357.361 70.5158 355.86 71.0698 344.122 74.835C331.728 78.5185 324.408 77.9127 316.668 75.196C315.667 74.8664 315.143 74.1774 315.448 73.5637C318.033 68.6559 323.994 65.2109 338.057 63.4594C351.964 62.8536 353.75 62.7971 361.689 64.2771ZM119.697 31.9197C119.548 31.7785 119.379 31.6419 119.188 31.5164C111.906 26.6131 110.139 25.8115 96.8972 19.8057L96.6947 19.7139C83.4302 14.4106 77.2724 14.5801 73.388 17.8651C72.8922 18.2982 73.0553 19.2195 73.7647 20.0404C79.3843 26.5302 85.8421 30.716 98.9191 33.1078C111.481 35.0352 113.11 35.2047 119.548 34.3634C119.56 34.3619 119.569 34.3619 119.579 34.3587C124.253 36.8971 128.87 39.3606 133.429 41.7494C133.958 42.0209 134.484 41.8891 134.435 41.4951C134.09 38.5152 133.768 35.5667 133.47 32.6496C133.432 32.2729 132.868 31.9009 132.389 31.9354C128.224 31.9951 123.993 31.9898 119.697 31.9197ZM44.8268 30.7991C45.0258 30.9373 45.2068 31.0895 45.3699 31.2511C49.4446 30.8222 53.5335 30.4277 57.6365 30.0678C58.1338 30.0301 58.7927 30.5213 58.8921 31.0079C59.6738 34.7558 60.4598 38.5069 61.2502 42.261C61.353 42.7476 60.8442 42.9375 60.2783 42.622C55.4197 39.8995 50.5454 37.1592 45.6553 34.4011C45.6471 34.4042 45.6373 34.4074 45.6275 34.4105C39.6834 36.3049 38.1244 36.3111 26.0454 35.7665C13.4152 35.1466 6.80408 31.2668 0.789841 24.1414C0.0380613 23.2311 -0.216337 22.0697 0.197876 21.3995C3.43819 16.2658 9.15237 14.7748 22.1854 19.1913C35.512 24.8084 37.252 25.5445 44.8268 30.7991ZM246.354 105.64C246.56 105.764 246.747 105.907 246.914 106.065C251.293 104.671 255.728 103.116 260.219 101.397C260.77 101.168 261.47 101.587 261.553 102.204C262.173 106.993 262.777 111.8 263.365 116.626C263.441 117.254 262.874 117.609 262.282 117.306C257.216 114.732 252.147 112.18 247.075 109.651L247.061 109.657C247.055 109.66 247.049 109.663 247.044 109.665C240.66 112.356 239.019 112.447 226.409 111.98C213.338 110.584 206.828 106.555 201.16 100.154C200.45 99.3603 200.271 98.406 200.74 97.896C204.349 93.8812 210.197 92.7182 223.225 96.237L223.777 96.4105C236.818 100.512 238.666 101.094 246.354 105.64ZM273.18 79.0653C272.986 78.9633 272.773 78.8801 272.543 78.8126C264.693 76.2621 262.501 75.8271 251.521 73.6473L251.521 73.6473C250.576 73.4597 249.565 73.2592 248.481 73.0432C235.706 70.4646 230.208 71.8191 227.002 75.8495C226.581 76.369 226.808 77.2871 227.534 78.0185C233.364 83.9229 239.919 87.4024 252.881 87.4495C265.656 86.0762 267.342 85.6995 273.761 82.0411L273.775 82.0324C273.78 82.029 273.786 82.0256 273.792 82.0222C279.536 82.9744 285.355 83.8167 291.248 84.5491C291.915 84.6747 292.552 84.1332 292.472 83.4975C291.081 80.0426 289.448 77.0313 287.573 74.4636C287.329 74.134 286.52 73.9394 286.024 74.0979C281.799 75.657 277.518 77.3128 273.18 79.0653ZM201.192 47.7793C201.375 47.8829 201.544 48.0022 201.698 48.1293C205.254 47.511 208.794 46.8983 212.317 46.2915C212.741 46.2193 213.354 46.5944 213.49 47.0072C214.571 50.1806 215.679 53.3546 216.812 56.5292C216.962 56.9435 216.521 57.1428 215.97 56.909C211.313 54.8812 206.695 52.8325 202.117 50.7629C202.107 50.766 202.099 50.7691 202.091 50.7722L202.091 50.7723C196.774 52.6102 195.346 52.6667 184.198 52.3905C172.457 51.5728 166.552 48.302 161.462 42.903C160.831 42.2297 160.676 41.3978 161.103 40.9395C164.347 37.3329 169.529 36.2468 180.974 39.3512L181.048 39.376C192.761 43.3022 194.32 43.8247 201.192 47.7793ZM167.996 102.399C168.19 102.526 168.365 102.667 168.52 102.815C172.734 102.531 176.939 102.231 181.135 101.915C181.643 101.876 182.288 102.336 182.37 102.793C183.002 106.33 183.632 109.875 184.26 113.426C184.343 113.891 183.802 114.044 183.226 113.724C178.326 110.995 173.438 108.285 168.561 105.593C168.551 105.596 168.539 105.597 168.531 105.601C162.155 106.881 160.519 106.771 147.881 105.203C135.19 103.662 129.336 100.321 124.331 94.6613C123.7 93.9487 123.578 93.0698 124.049 92.5864C127.77 88.906 133.563 88.0271 146.043 91.9115C158.973 96.9464 160.679 97.6229 167.996 102.399ZM158.799 71.3796C158.597 71.1944 158.368 71.0202 158.114 70.8617C148.611 64.9544 146.358 64.1057 129.534 57.769L129.276 57.6718C112.322 52.1221 104.35 53.0057 99.3056 57.8664C98.6631 58.5067 98.8686 59.7325 99.7753 60.7605C106.951 68.8763 115.214 73.7919 132.112 75.6392C148.47 76.9874 150.596 77.0486 158.856 75.0333C158.863 75.0317 158.871 75.0301 158.877 75.0283C158.884 75.0266 158.89 75.0247 158.897 75.0224C165.406 78.3664 171.946 81.7308 178.518 85.1157C179.079 85.4045 179.596 85.2271 179.508 84.7767C178.535 79.9029 177.552 75.0642 176.558 70.2606C176.467 69.8227 175.844 69.4115 175.366 69.4742C169.872 70.1428 164.35 70.778 158.799 71.3796ZM76.338 68.1936C76.5255 68.316 76.6968 68.451 76.8501 68.5985C80.7671 68.0021 84.6978 67.4261 88.6421 66.8705C89.1199 66.8077 89.7428 67.244 89.8309 67.7054C90.5006 71.2546 91.1692 74.8016 91.8367 78.3465C91.9232 78.8064 91.429 79.0088 90.8925 78.7342C86.2938 76.358 81.6809 73.9661 77.0539 71.5585C77.0457 71.5632 77.0376 71.5664 77.0278 71.5695C71.281 73.5549 69.7856 73.6067 58.2333 73.3116C46.2016 72.6007 39.9639 68.9108 34.2171 62.556C33.4882 61.754 33.2403 60.7432 33.6398 60.1688C36.7774 55.7115 42.3106 54.3712 54.8136 58.1536L54.8407 58.1638C67.5196 62.9351 69.1775 63.559 76.338 68.1936Z" fill="#192D54" fill-opacity="0.5"/>
</svg>
