<svg width="179" height="329" viewBox="0 0 179 329" fill="none" xmlns="http://www.w3.org/2000/svg">
<path d="M73.0776 72.8895C54.9679 96.5654 39.6639 116.148 25.3044 132.99M-57.325 207.464C-44.6182 199.149 -33.2731 190.72 -22.5544 181.64M87.0838 7.20041C75.706 21.2205 65.937 33.6072 57.65 44.6085M25.3044 132.99C12.6721 116.818 19.2501 95.5861 57.65 44.6085M25.3044 132.99C24.0119 134.506 22.7271 136 21.4486 137.473M52.5379 5.88735C47.9306 26.4028 45.2593 37.9765 57.65 44.6085M93.0743 111.553C65.1684 140.422 49.4998 150.06 21.4486 137.473M21.4486 137.473C14.2708 145.74 7.29137 153.339 0.270205 160.443M-6.84112 106.473C-16.1275 135.993 -18.9171 150.85 0.270205 160.443M0.270205 160.443C-7.1946 167.997 -14.7066 174.993 -22.5544 181.64M80.4017 165.243C52.3378 190.693 31.9513 211.415 18.3532 230.092M2.86792 319.007C-2.56038 303.082 -4.38712 288.81 -2.11495 274.689M2.86792 319.007C35.1046 299.873 54.8264 280.805 72.6976 254.231M2.86792 319.007C23.6796 323.255 41.4385 324.167 57.5441 320.844M21.148 166.686C-12.3676 224.419 -21.9799 250.946 -2.11495 274.689M-2.11495 274.689C0.215816 260.204 6.85959 245.879 18.3532 230.092M45.8557 163.93C19.949 184.777 5.35228 195.224 -22.5544 181.64M64.0067 220.075C44.5223 232.902 34.0502 237.66 18.3532 230.092M104.324 198.318C92.9891 220.542 83.1605 238.673 72.6976 254.231M122.347 228.503C102.936 250.7 92.057 261.393 72.6976 254.231M165.149 209.743C139.126 256.168 117.518 286.236 94.62 303.614M173.381 276.446C145.997 303.951 129.709 314.693 94.62 303.614M94.62 303.614C82.8591 312.539 70.7581 318.117 57.5441 320.844M73.998 288.431C56.9959 303.714 53.3035 310.777 57.5441 320.844" stroke="url(#paint0_linear_985_43304)" stroke-width="10.7981" stroke-linecap="round" stroke-linejoin="round"/>
<defs>
<linearGradient id="paint0_linear_985_43304" x1="124.845" y1="18.4913" x2="32.3527" y2="327.823" gradientUnits="userSpaceOnUse">
<stop stop-color="#FFD12C"/>
<stop offset="1" stop-color="#FE800B"/>
</linearGradient>
</defs>
</svg>
