<svg width="45" height="106" viewBox="0 0 45 106" fill="none" xmlns="http://www.w3.org/2000/svg">
<path d="M15.8529 58.7494L11.5423 55.2742C10.253 54.2347 9.57644 52.5804 9.74978 50.8911C10.1114 47.3675 13.8327 45.3277 16.8346 47.0076L17.0382 47.1216C18.1907 47.7666 19.042 48.8618 19.4036 50.1647L20.2129 53.0806C20.61 54.5115 21.5306 55.7221 22.7812 56.4581L25.9983 58.3513C27.0231 58.9545 27.8324 59.8802 28.3092 60.9949L31.0367 67.3717C31.4289 68.2886 32.0477 69.0812 32.8316 69.6709L38.5435 73.9671C40.2099 75.2205 41.0042 77.37 40.5758 79.4667C39.9875 82.346 37.2603 84.2453 34.4567 83.775C32.7142 83.4828 31.2084 82.317 30.4716 80.6657L28.6766 76.6429C28.3105 75.8224 27.7612 75.1045 27.0734 74.5475L21.6879 70.187C20.8841 69.5362 20.2718 68.6676 19.9182 67.6765L17.6315 61.2672C17.2766 60.2723 16.661 59.4009 15.8529 58.7494Z" fill="#02DCA1"/>
<path d="M49.5494 95.7977L48.9691 96.1601C48.7259 96.3119 48.4078 96.2588 48.2273 96.0362L31.1119 74.9331L16.084 53.4308C15.9953 53.304 16.0311 53.1287 16.1624 53.0467C16.2829 52.9715 16.4411 53.0024 16.5245 53.1175L32.2122 74.7797L49.6778 94.9443C49.9061 95.2079 49.8452 95.613 49.5494 95.7977Z" fill="#1A6C5B"/>
<path d="M19.6165 26.3682L19.9517 25.3929C20.6351 23.4044 22.7246 22.2678 24.7653 22.7744C25.2473 22.8941 25.7032 23.1013 26.1104 23.3857L28.975 25.3863C30.0004 26.1025 30.7006 27.1955 30.9224 28.4265L31.9947 34.3761C32.2054 35.5451 32.848 36.5922 33.795 37.3092L35.2066 38.3782C36.1893 39.1223 36.8428 40.2205 37.0281 41.4391L37.833 46.7306C37.8705 46.9774 37.9276 47.2209 38.0036 47.4588L39.2744 51.4375C39.4118 51.8676 39.6101 52.2759 39.8631 52.6498L42.5051 56.5536C43.0833 57.408 43.3665 58.428 43.3115 59.4582L43.2474 60.6567C43.1813 61.894 42.6314 63.0557 41.7163 63.8912C39.9709 65.4845 37.3162 65.5417 35.5039 64.0248L34.0809 62.8339C33.6076 62.4378 33.2164 61.953 32.9293 61.4067L29.5282 54.9356C29.226 54.3607 29.0454 53.7298 28.9976 53.0821L28.6596 48.4979C28.5482 46.9865 27.7196 45.62 26.431 44.8224L24.8282 43.8302C23.4569 42.9813 22.6124 41.4925 22.5874 39.88L22.5147 35.1854C22.4991 34.1822 22.1651 33.2098 21.5609 32.4089L20.314 30.756C19.3666 29.5002 19.1053 27.8558 19.6165 26.3682Z" fill="#02DCA1"/>
<path d="M48.4647 74.9644L26.2829 32.1627C26.1908 31.985 25.9671 31.9232 25.7969 32.0284C25.6477 32.1206 25.5918 32.3104 25.6672 32.4687L46.4449 76.0896C46.5903 76.3948 46.9685 76.5062 47.2561 76.3285L48.259 75.7087C48.5117 75.5526 48.6013 75.2281 48.4647 74.9644Z" fill="#1A6C5B"/>
<path d="M19.0256 11.3255C20.6636 17.7418 22.251 22.9316 24.0824 27.1964M46.7847 45.0259C41.1632 42.7769 32.3422 39.8059 29.1253 35.8451M26.081 4.95113C29.1783 16.2335 30.1635 22.0567 24.0824 27.1964M24.0824 27.1964C24.4155 27.9722 24.7568 28.7174 25.1078 29.4338M7.20791 16.8329C9.09406 21.1438 10.8219 24.2405 13.1507 26.2887M25.1078 29.4338C19.4647 29.6577 15.8915 28.6994 13.1507 26.2887M25.1078 29.4338C26.0873 31.4325 27.1434 33.2071 28.3146 34.7969M14.4818 19.4567C15.2429 22.8746 15.3211 24.5876 13.1507 26.2887M35.1166 1.72228C36.5843 4.01949 37.0633 10.5987 36.3639 17.3004M28.3146 34.7969C31.3196 34.0825 33.4572 30.3436 34.8192 25.5913M28.3146 34.7969C28.5788 35.1555 28.8489 35.5048 29.1253 35.8451M25.0739 15.0723C29.2888 17.9348 31.5154 19.955 34.8192 25.5913M34.8192 25.5913C35.5566 23.0183 36.0666 20.1483 36.3639 17.3004M42.9122 9.63978C41.9558 14.6655 42.1574 18.4208 36.3639 17.3004M4.93785 31.0873C13.4411 39.0432 18.672 40.5012 29.1253 35.8451" stroke="url(#paint0_linear_985_51061)" stroke-width="2.04386" stroke-linecap="round" stroke-linejoin="round"/>
<defs>
<linearGradient id="paint0_linear_985_51061" x1="22.4043" y1="2.97498" x2="26.7427" y2="47.0009" gradientUnits="userSpaceOnUse">
<stop stop-color="#FFD12C"/>
<stop offset="1" stop-color="#FE800B"/>
</linearGradient>
</defs>
</svg>
