<svg width="149" height="37" viewBox="0 0 149 37" fill="none" xmlns="http://www.w3.org/2000/svg">
<path fill-rule="evenodd" clip-rule="evenodd" d="M124.345 1.99709C124.297 1.95594 124.243 1.92108 124.182 1.89543C121.838 0.99647 121.279 0.982431 116.99 0.931118C112.755 1.24384 110.798 2.40324 109.576 4.30136C109.42 4.54341 109.476 4.85516 109.706 5.03912C111.538 6.50736 113.627 7.03938 117.789 5.94049C121.77 4.76851 122.285 4.58601 124.312 3.17924C124.315 3.17682 124.319 3.1744 124.322 3.17198C125.814 3.68705 127.285 4.25569 128.737 4.87791C128.905 4.95537 129.071 4.84693 129.054 4.66782C128.933 3.25137 128.821 1.80087 128.719 0.316322C128.706 0.121234 128.526 -0.0414216 128.373 0.00940793C127.05 0.614199 125.707 1.27676 124.345 1.99709ZM150.329 6.8685C150.388 6.90868 150.442 6.9537 150.491 7.00114C151.636 6.87882 152.772 6.75925 153.899 6.64243C154.034 6.62887 154.233 6.77458 154.279 6.92029C154.652 8.035 155.034 9.14147 155.424 10.2397C155.475 10.3815 155.329 10.4338 155.146 10.3409C153.612 9.53568 152.104 8.72595 150.62 7.91171C150.617 7.91268 150.614 7.91365 150.611 7.91413C148.879 8.41807 148.417 8.40694 144.827 8.12181C141.08 7.73308 139.221 6.51947 137.623 4.44852C137.424 4.18421 137.378 3.86035 137.516 3.68463C138.562 2.34902 140.223 2.04743 143.872 3.43339L143.936 3.46177C147.636 5.11231 148.138 5.33637 150.329 6.8685ZM100.312 13.0116C100.38 13.0261 100.442 13.047 100.497 13.0736C101.863 12.3578 103.22 11.6492 104.571 10.9479C104.733 10.8642 104.952 10.9291 104.988 11.0719C105.282 12.1524 105.588 13.2161 105.905 14.263C105.948 14.3966 105.786 14.5196 105.595 14.4983C103.945 14.324 102.283 14.1573 100.608 13.9982L100.605 14.0005C100.603 14.0018 100.601 14.0033 100.599 14.0045C98.5587 15.4151 98.0105 15.6407 93.5741 17.2886C88.4275 19.2293 85.6459 19.2622 83.6188 17.9842C83.3875 17.8061 83.3895 17.4594 83.6224 17.1666C85.3994 14.9175 87.7861 13.4802 92.5002 12.7972C97.1368 12.5149 97.7333 12.4854 100.312 13.0116ZM162.864 24.9174C162.921 24.9541 162.968 24.9938 163.006 25.0364C164.814 24.9419 166.73 24.841 168.753 24.7339C169.012 24.7203 169.218 24.8496 169.143 24.9813C168.534 25.9927 167.912 27.002 167.276 28.0092C167.193 28.1399 166.926 28.1864 166.766 28.0988C165.382 27.3439 163.986 26.5892 162.578 25.8347C162.573 25.8352 162.569 25.8357 162.565 25.8366C160.089 26.2084 159.549 26.1779 155.666 25.7355C151.9 25.1352 150.218 24.0571 148.838 22.4069C148.661 22.2001 148.646 21.9591 148.806 21.8376C150.074 20.866 151.957 20.6641 155.926 21.8647L156.039 21.9049C160.123 23.3516 160.699 23.5555 162.864 24.9174ZM168.175 18.9713C168.098 18.9287 168.011 18.8885 167.917 18.8522C164.69 17.5383 163.877 17.2991 159.456 15.9976L158.748 15.7893C154.361 14.5704 152.462 14.8299 151.255 15.9486C151.097 16.0914 151.136 16.361 151.344 16.5857C152.988 18.3618 154.967 19.4641 159.475 19.9302C164.444 20.2473 165.158 20.2609 168.196 19.8044C168.198 19.8039 168.201 19.8035 168.204 19.8031L168.211 19.802C170.677 20.5417 173.227 21.2773 175.862 22.0089C176.141 22.0937 176.533 22.0414 176.619 21.9087C176.279 20.8821 175.626 19.853 174.662 18.8212C174.535 18.6876 174.174 18.5593 173.968 18.5762C172.105 18.7128 170.174 18.8444 168.175 18.9713ZM139.568 22.5458C139.621 22.5758 139.669 22.6092 139.712 22.6436C140.835 22.6358 141.968 22.6202 143.11 22.5966C143.25 22.5927 143.423 22.708 143.441 22.8164C143.582 23.6419 143.725 24.4617 143.869 25.2756C143.888 25.3811 143.747 25.4048 143.599 25.3216C142.326 24.6177 141.045 23.9264 139.755 23.2477L139.751 23.2482L139.749 23.2484L139.747 23.2487C138.127 23.3949 137.709 23.3358 134.492 22.7118C131.027 22.6455 129.122 22.4916 127.362 21.7538C127.139 21.657 127.061 21.4827 127.179 21.3448C128.1 20.3243 129.738 19.8339 133.41 20.2648C137.069 21.277 137.542 21.4324 139.568 22.5458ZM136.723 14.6895C136.661 14.6377 136.592 14.5902 136.515 14.5481C133.583 12.985 132.896 12.8112 127.589 11.6779C122.257 11.3071 119.8 12.4554 118.355 14.5239C118.173 14.7839 118.272 15.1305 118.583 15.3449C121.049 16.9894 123.731 17.624 128.843 16.9841C133.693 16.636 134.32 16.5847 136.75 15.783L136.755 15.7817C136.758 15.7809 136.76 15.7801 136.763 15.7792C138.702 16.6202 140.633 17.484 142.554 18.3705C142.716 18.4475 142.873 18.3986 142.854 18.2766C142.635 16.9069 142.408 15.499 142.173 14.0529C142.15 13.9164 141.961 13.791 141.812 13.8142C140.11 14.0908 138.414 14.3826 136.723 14.6895ZM111.56 19.8257C111.623 19.8378 111.683 19.8552 111.737 19.878C112.934 19.3087 114.135 18.7462 115.34 18.1904C115.486 18.1246 115.695 18.1803 115.739 18.2964C116.086 19.1717 116.437 20.0303 116.791 20.8723C116.837 20.9802 116.694 21.0795 116.518 21.0625C114.999 20.9183 113.469 20.7742 111.929 20.6302C111.928 20.6314 111.926 20.6324 111.924 20.6335L111.921 20.6356C110.225 21.7499 109.762 21.9208 106.141 23.0822C102.319 24.2183 100.061 24.0315 97.6735 23.1935C97.3646 23.0918 97.2032 22.8793 97.2972 22.6901C98.0945 21.1763 99.9329 20.1137 104.271 19.5735C108.56 19.3866 109.111 19.3692 111.56 19.8257ZM36.9193 9.84535C36.8736 9.80179 36.8212 9.75967 36.7624 9.72094C34.5164 8.20857 33.9712 7.96133 29.8871 6.1089L29.8246 6.08057C25.7333 4.44483 23.834 4.49711 22.6358 5.51031C22.4829 5.64392 22.5332 5.92808 22.752 6.18126C24.4853 8.18298 26.4772 9.47406 30.5107 10.2118C34.3852 10.8063 34.8877 10.8586 36.8736 10.5991L36.8767 10.5987C36.8789 10.5985 36.881 10.5983 36.8831 10.5976C38.3247 11.3806 39.7487 12.1404 41.155 12.8772C41.318 12.961 41.4805 12.9203 41.4654 12.7988C41.3587 11.8797 41.2595 10.9702 41.1676 10.0705C41.156 9.95427 40.982 9.83954 40.8341 9.85019C39.5495 9.86859 38.2445 9.86698 36.9193 9.84535ZM13.8264 9.49971C13.8878 9.54231 13.9436 9.58927 13.9939 9.63913C15.2507 9.50681 16.5119 9.38514 17.7774 9.27413C17.9309 9.26251 18.1341 9.41403 18.1647 9.5641C18.4058 10.7201 18.6483 11.8771 18.8921 13.035C18.9238 13.1851 18.7668 13.2437 18.5923 13.1464C17.0937 12.3066 15.5903 11.4614 14.082 10.6107C14.0794 10.6117 14.0764 10.6126 14.0734 10.6136C12.24 11.1979 11.7591 11.1998 8.03347 11.0319C4.13779 10.8406 2.09866 9.64397 0.243619 7.4462C0.0117397 7.16542 -0.0667272 6.80719 0.061033 6.60049C1.06048 5.01702 2.82297 4.55714 6.84288 5.91937C10.9533 7.65193 11.49 7.87897 13.8264 9.49971ZM75.9858 32.5836C76.0491 32.6219 76.107 32.6659 76.1583 32.7148C77.509 32.2849 78.877 31.805 80.2622 31.2751C80.4322 31.2044 80.648 31.3337 80.6736 31.5239C80.8648 33.0011 81.0511 34.4838 81.2325 35.9723C81.2561 36.1659 81.0811 36.2753 80.8985 36.1819C79.3359 35.388 77.7724 34.601 76.2081 33.821L76.2035 33.8229C76.2016 33.8237 76.1999 33.8245 76.1985 33.8253C74.2293 34.655 73.7233 34.6831 69.8337 34.5393C65.8022 34.1085 63.7942 32.8658 62.0458 30.8917C61.827 30.6468 61.7717 30.3524 61.9165 30.1951C63.0297 28.9568 64.8334 28.5981 68.8518 29.6834L69.0219 29.7369C73.0442 31.002 73.6145 31.1814 75.9858 32.5836ZM84.26 24.387C84.2001 24.3555 84.1342 24.3299 84.0633 24.309C81.6421 23.5223 80.9662 23.3882 77.5793 22.7158C77.2878 22.658 76.9762 22.5961 76.6417 22.5295C72.7012 21.7342 71.0056 22.1519 70.0167 23.3951C69.887 23.5553 69.9569 23.8385 70.1807 24.0641C71.9789 25.8852 74.001 26.9585 77.9987 26.973C81.9392 26.5494 82.4593 26.4332 84.439 25.3048C84.4421 25.3029 84.4451 25.3009 84.4486 25.299C86.2205 25.5927 88.0152 25.8525 89.8326 26.0784C90.0384 26.1171 90.235 25.9501 90.2104 25.7541C89.7812 24.6884 89.2775 23.7596 88.6994 22.9676C88.624 22.866 88.3745 22.8059 88.2216 22.8548C86.9185 23.3357 85.5979 23.8464 84.26 24.387ZM62.0559 14.7371C62.1122 14.769 62.1645 14.8058 62.2118 14.8451C63.3087 14.6543 64.4005 14.4654 65.4873 14.2782C65.6181 14.2559 65.8072 14.3716 65.8489 14.4989C66.1826 15.4778 66.5241 16.4568 66.8735 17.4359C66.9198 17.5637 66.784 17.6252 66.614 17.5531C65.1775 16.9276 63.7531 16.2957 62.3411 15.6574C62.3381 15.6583 62.3355 15.6593 62.333 15.6603C60.6933 16.2271 60.2526 16.2446 56.8142 16.1594C53.1926 15.9071 51.3713 14.8983 49.8015 13.233C49.6068 13.0254 49.559 12.7688 49.6908 12.6274C50.6913 11.515 52.2898 11.18 55.8198 12.1375L55.8426 12.1452C59.4554 13.3562 59.9362 13.5173 62.0559 14.7371ZM51.817 31.584C51.8768 31.6232 51.9306 31.6667 51.9784 31.7123C53.2782 31.6248 54.5752 31.5323 55.8696 31.4349C56.026 31.4228 56.2252 31.5646 56.2503 31.7055C56.4452 32.7966 56.6395 33.8899 56.8333 34.9852C56.859 35.1285 56.692 35.1759 56.5144 35.0772C55.0031 34.2355 53.4953 33.3995 51.991 32.5691C51.988 32.5701 51.9845 32.5705 51.9819 32.5715C50.0152 32.9665 49.5107 32.9326 45.6125 32.449C41.6983 31.9737 39.8925 30.943 38.3488 29.1974C38.1542 28.9776 38.1164 28.7065 38.2618 28.5574C39.4096 27.4222 41.1963 27.1511 45.0457 28.3493C49.0339 29.9022 49.56 30.1109 51.817 31.584ZM48.9801 22.0164C48.9177 21.9593 48.8473 21.9055 48.7688 21.8566C45.8377 20.0346 45.1427 19.7728 39.9535 17.8183L39.8739 17.7883C34.6448 16.0766 32.1857 16.3491 30.6299 17.8484C30.4317 18.0459 30.4951 18.4239 30.7748 18.741C32.9879 21.2443 35.5366 22.7604 40.7486 23.3302C45.7941 23.746 46.45 23.7649 48.9977 23.1433C49.0022 23.1424 49.0062 23.1414 49.0103 23.14C51.0179 24.1714 53.0352 25.2091 55.0623 26.2532C55.2353 26.3422 55.3947 26.2875 55.3676 26.1486C55.0675 24.6453 54.7642 23.1529 54.4577 21.6712C54.4295 21.5362 54.2374 21.4093 54.09 21.4287C52.3956 21.6349 50.6923 21.8308 48.9801 22.0164ZM23.5458 21.0337C23.6036 21.0714 23.6564 21.1131 23.7037 21.1586C24.9119 20.9746 26.1243 20.797 27.3408 20.6256C27.4882 20.6062 27.6804 20.7408 27.7075 20.8831C27.9141 21.9778 28.1203 23.0719 28.3262 24.1653C28.3529 24.3071 28.2004 24.3696 28.035 24.2848C26.6165 23.5519 25.1937 22.8142 23.7666 22.0716C23.7649 22.0725 23.7632 22.0733 23.7613 22.074L23.7585 22.075C21.986 22.6873 21.5247 22.7033 17.9615 22.6123C14.2505 22.393 12.3265 21.2549 10.554 19.2948C10.3291 19.0474 10.2527 18.7357 10.3759 18.5585C11.3437 17.1837 13.0503 16.7703 16.9068 17.9369L16.9151 17.9401C20.8258 19.4118 21.3372 19.6042 23.5458 21.0337Z" fill="#192D54" fill-opacity="0.5"/>
</svg>
