<svg width="363" height="309" viewBox="0 0 363 309" fill="none" xmlns="http://www.w3.org/2000/svg">
<path d="M281.707 132.506C284.289 136.688 288.159 142.957 290.264 147.386C295.271 153.794 303.355 158.563 311.238 160.402C317.91 161.96 323.896 163.31 330.707 161.549C336.608 160.023 341.947 157.002 345.585 151.952C351.728 143.423 351.836 131.715 345.972 123.143C345.215 122.036 343.297 124.994 342.467 125.7C340.459 127.407 337.984 128.94 335.649 130.15C329.753 133.207 322.575 133.336 316.148 132.873C313.354 132.672 310.879 132.195 308.044 132.536C306.658 132.703 304.224 136.024 304.391 134.624C304.876 130.55 307.193 126.674 306.665 122.414C306.289 119.378 305.874 116.133 304.888 113.237C303.826 110.119 302.064 107.416 300.645 104.476C297.865 98.7152 295.085 93.0924 293.722 86.7595C293.477 85.6201 293.052 84.4829 293.019 83.3063C293.002 82.6987 293.403 81.6625 292.961 81.1372C292.072 80.0814 289.303 82.5937 288.689 83.1413C284.752 86.6507 280.046 91.3843 277.864 96.2492C274.801 103.081 274.114 109.933 274.691 117.283C274.979 120.957 276.332 124.402 278.252 127.506C279.32 129.232 280.644 130.784 281.707 132.506Z" fill="#1C6FA4"/>
<path d="M193.054 146.252C183.787 152.007 162.779 165.397 153.36 172.331C152.157 173.389 150.248 175.582 151.769 177.037C153.242 178.446 155.064 179.433 156.823 180.429C161.627 183.147 166.744 185.183 171.65 187.717C174.923 189.408 180.172 191.588 183.723 189.549C188.09 187.041 189.375 181.926 191.839 177.985C197.136 169.512 201.463 160.384 205.187 151.088C205.815 149.52 206.75 146.894 205.076 145.615C203.579 144.471 195.628 144.653 193.054 146.252Z" fill="#1C6FA4"/>
<path d="M139.439 295.867C134.792 289.647 124.347 275.319 119.905 268.279C119.382 267.265 118.687 265.316 120.072 264.747C121.414 264.196 122.878 264.014 124.302 263.811C128.192 263.257 132.111 263.236 136.02 262.831C138.628 262.56 142.673 262.478 144.497 264.752C146.739 267.547 146.263 271.271 146.873 274.522C148.183 281.512 148.68 288.685 148.734 295.812C148.744 297.014 148.682 298.998 147.24 299.411C145.951 299.78 140.729 297.595 139.439 295.867Z" fill="#132558"/>
<path d="M189.229 255.941C204.469 249.976 239.596 237.583 256.469 220.476C265.669 211.149 275.888 200.137 281.888 191.637C286.476 185.137 298.849 163.256 299.456 157.113C300.19 149.701 301.009 144.713 293.469 145.295C256.469 175.976 216.969 178.476 216.969 178.476C203.969 178.476 173.969 180.68 158.969 175.976C145.785 171.842 118.18 160.505 104.969 156.476C92.2043 152.584 32.4686 165.976 21.4689 184.476C21.4689 184.476 7.62685 191.252 10.9688 201.976C21.1373 234.609 108.365 265.613 120.969 267.976C137.969 271.976 174.969 259.976 189.229 255.941Z" fill="url(#paint0_linear_985_43285)"/>
<mask id="mask0_985_43285" style="mask-type:alpha" maskUnits="userSpaceOnUse" x="10" y="145" width="290" height="124">
<path d="M189.229 255.941C204.469 249.976 239.596 237.583 256.469 220.476C265.669 211.149 275.888 200.137 281.888 191.637C286.476 185.137 298.849 163.256 299.456 157.113C300.19 149.701 301.009 144.713 293.469 145.295C256.469 175.976 216.969 178.476 216.969 178.476C203.969 178.476 173.969 180.68 158.969 175.976C145.785 171.842 118.18 160.505 104.969 156.476C92.2043 152.584 32.4686 165.976 21.4689 184.476C21.4689 184.476 7.62685 191.252 10.9688 201.976C21.1373 234.609 108.365 265.613 120.969 267.976C137.969 271.976 174.969 259.976 189.229 255.941Z" fill="#7894AB"/>
</mask>
<g mask="url(#mask0_985_43285)">
<path d="M47.9817 182.702C40.969 181.976 -2.24367 185.305 -1.53105 192.476C0.439673 197.362 22.969 226.476 38.969 236.976C45.6827 243.039 54.273 252.47 62.969 255.476C98.4691 250.976 69.969 271.476 175.469 255.476C223.537 248.187 262.33 224.011 262.969 219.477C265.017 204.952 226.469 219.07 198.969 227.461C162.969 238.446 112.969 225.512 108.469 224.976C87.4691 222.476 74.469 182.702 47.9817 182.702Z" fill="white"/>
</g>
<path d="M69.192 169.374C67.969 163.47 103.199 161.375 110.506 164.333C114.301 166.22 116.447 169.518 115.09 173.62C113.386 178.767 107.483 176.573 101.371 176.458C92.6505 176.294 85.4927 172.129 75.6454 174.166C71.113 174.233 70.0651 173.588 69.192 169.374Z" fill="white"/>
<path d="M182.366 236.921C180.217 229.093 169.742 212.268 166.586 206.105C162.093 206.312 151.298 205.364 144.12 207.14C136.941 208.915 132.853 211.765 130.692 214.981C128.532 218.197 129.492 218.641 133.318 223.221C137.143 227.802 141.018 233.478 149.821 237.883C158.623 242.288 170.821 245.439 177.33 245.247C183.839 245.054 184.515 244.75 182.366 236.921Z" fill="url(#paint1_linear_985_43285)"/>
<mask id="mask1_985_43285" style="mask-type:alpha" maskUnits="userSpaceOnUse" x="73" y="0" width="128" height="99">
<path d="M172.285 27.5551C171.102 21.1837 169.857 13.8781 171.815 7.53546C171.853 7.41404 171.89 7.29151 171.928 7.16807C172.622 4.90464 173.41 2.33739 175.301 0.79044C177.057 -0.646748 179.042 -0.101679 179.528 2.24272C180.145 5.21604 180.145 8.14917 180.144 11.1359C180.144 12.2292 180.144 13.3296 180.174 14.4418C180.266 17.8619 184.989 22.5168 188.032 23.4298C191.844 24.5732 196.275 26.6069 198.311 30.2717C198.504 30.6196 198.719 30.969 198.936 31.3223C199.705 32.5745 200.506 33.8781 200.506 35.3546C200.506 37.1782 197.948 37.282 196.365 37.3463C196.168 37.3543 195.986 37.3617 195.826 37.3717C192.041 37.6082 188.429 35.9068 184.952 34.2688C183.681 33.6699 182.428 33.0794 181.19 32.5953C180.266 32.2336 179.355 31.9702 178.479 31.7167C178.293 31.6632 178.11 31.61 177.928 31.5565C177.862 31.9873 177.791 32.411 177.723 32.816C177.653 33.2312 177.587 33.6269 177.533 33.9906C176.839 38.6775 175.356 42.659 173.744 46.9866C173.592 47.3932 173.44 47.8028 173.287 48.2164C171.409 53.2864 168.443 58.728 165.596 63.3151C162.226 68.7445 157.12 72.7246 151.842 76.2433C148.413 78.5295 144.996 80.6151 141.455 82.5694C144.061 85.5906 145.677 90.4616 145.61 94.0267C145.488 100.448 136.966 97.9074 133.41 96.1632C130.628 94.7982 126.155 92.518 124.735 89.5757C123.777 89.86 122.818 90.1377 121.86 90.415C120.485 90.8129 119.113 91.2101 117.752 91.6251C114.218 92.7024 110.302 93.2063 106.617 93.5597C104.477 93.7648 102.335 93.3503 100.21 92.9387C99.0844 92.7209 97.9635 92.5039 96.8495 92.3801C91.4348 91.7784 83.5837 88.7752 79.8871 84.524C79.5414 84.1265 79.184 83.7256 78.8224 83.32C76.154 80.3268 73.2527 77.0723 73.0691 72.9405C72.8596 68.2282 72.9929 65.4353 75.4047 61.1682C80.5449 52.074 89.6309 43.9864 100.247 42.7903C104.742 42.2838 109.434 42.4261 114.065 42.5666C116.204 42.6314 118.33 42.6959 120.418 42.6959C121.944 42.6959 123.456 42.6811 124.96 42.6502C127.875 39.8522 130.556 36.5976 133.217 33.3681C135.735 30.3108 138.235 27.276 140.898 24.6723C142.117 23.48 145.669 20.2921 146.545 23.4459C147.288 26.1176 146.801 29.7029 146.045 32.3048C145.793 33.1751 145.551 34.1673 145.293 35.2242C144.818 37.1707 144.29 39.3365 143.543 41.3643C149.721 40.5986 155.359 39.1326 160.972 36.3261C165.394 34.1148 168.856 30.9461 172.285 27.5551Z" fill="url(#paint2_linear_985_43285)"/>
</mask>
<g mask="url(#mask1_985_43285)">
<path d="M160.972 36.3262C166.189 33.7175 170.069 29.7765 174.136 25.7099C179.774 23.8307 178.06 30.4361 177.533 33.9906C176.774 39.1179 175.07 43.4009 173.287 48.2164C171.409 53.2865 168.443 58.7281 165.596 63.3151C162.226 68.7446 157.12 72.7247 151.842 76.2434C146.794 79.6084 141.776 82.5387 136.342 85.2554C130.465 88.194 123.995 89.7217 117.752 91.6252C114.218 92.7025 110.302 93.2063 106.617 93.5597C103.344 93.8735 100.068 92.7377 96.8495 92.3801C91.4348 91.7785 83.5837 88.7752 79.8871 84.5241C76.9903 81.1928 73.2776 77.6323 73.0691 72.9406C72.8596 68.2283 72.9929 65.4353 75.4047 61.1683C80.5449 52.0741 89.6309 43.9865 100.247 42.7903C106.818 42.0499 113.809 42.696 120.418 42.696C128.107 42.696 135.439 42.3193 143.066 41.422C149.431 40.6731 155.215 39.2048 160.972 36.3262Z" fill="#1D84BD"/>
<path fill-rule="evenodd" clip-rule="evenodd" d="M172.285 27.5551C171.102 21.1837 169.857 13.8781 171.815 7.53546C171.853 7.41404 171.89 7.29151 171.928 7.16807C172.622 4.90464 173.41 2.33739 175.301 0.79044C177.057 -0.646748 179.042 -0.101678 179.528 2.24272C180.145 5.21604 180.145 8.14917 180.144 11.1359C180.144 12.2292 180.144 13.3296 180.174 14.4418C180.266 17.8619 184.989 22.5168 188.032 23.4298C191.844 24.5732 196.275 26.6069 198.311 30.2717C198.504 30.6196 198.719 30.969 198.936 31.3223L198.936 31.3225L198.936 31.3226L198.936 31.3227C199.705 32.5748 200.506 33.8781 200.506 35.3546C200.506 37.1782 197.948 37.282 196.365 37.3463C196.168 37.3543 195.986 37.3617 195.826 37.3717C192.041 37.6082 188.429 35.9068 184.952 34.2688L184.952 34.2687C183.681 33.6699 182.428 33.0794 181.19 32.5953C180.266 32.2336 179.355 31.9702 178.479 31.7167C178.293 31.6632 178.11 31.61 177.928 31.5565C177.862 31.9873 177.791 32.411 177.723 32.816C177.653 33.2312 177.587 33.6269 177.533 33.9906C176.839 38.6775 175.356 42.659 173.744 46.9866C173.592 47.3932 173.44 47.8028 173.287 48.2164C171.409 53.2864 168.443 58.728 165.596 63.3151C162.226 68.7445 157.12 72.7246 151.842 76.2433C148.413 78.5295 144.996 80.6151 141.455 82.5694C144.061 85.5906 145.677 90.4616 145.61 94.0267C145.488 100.448 136.966 97.9074 133.41 96.1632C130.628 94.7982 126.155 92.518 124.735 89.5757C123.777 89.86 122.818 90.1377 121.86 90.415C120.485 90.8129 119.113 91.2101 117.752 91.6251C114.218 92.7024 110.302 93.2063 106.617 93.5597C104.477 93.7648 102.335 93.3503 100.21 92.9387C99.0844 92.7209 97.9635 92.5039 96.8495 92.3801C91.4348 91.7784 83.5837 88.7752 79.8871 84.524C79.5414 84.1265 79.184 83.7256 78.8224 83.32C76.154 80.3268 73.2527 77.0723 73.0691 72.9405C72.8596 68.2282 72.9929 65.4353 75.4047 61.1682C80.5449 52.074 89.6309 43.9864 100.247 42.7903C104.742 42.2838 109.434 42.4261 114.065 42.5666C116.204 42.6314 118.33 42.6959 120.418 42.6959C121.944 42.6959 123.456 42.6811 124.96 42.6502C127.875 39.8522 130.556 36.5976 133.217 33.3681C135.735 30.3108 138.235 27.276 140.898 24.6723C142.117 23.48 145.669 20.2921 146.545 23.4459C147.288 26.1176 146.801 29.7029 146.045 32.3048C145.793 33.1751 145.551 34.1673 145.293 35.2242C144.818 37.1707 144.29 39.3365 143.543 41.3643C149.721 40.5986 155.359 39.1326 160.972 36.3261C165.394 34.1148 168.856 30.9461 172.285 27.5551Z" fill="url(#paint3_linear_985_43285)"/>
<path d="M97.4518 65.1141C101.448 62.7529 105.754 62.6713 110.268 62.1365C111.757 62.3492 113.537 62.64 113.96 64.3305C114.329 65.8075 113.894 67.321 112.95 68.4749C111.119 70.7124 107.133 72.1665 104.313 72.1665C101.748 72.1665 96.6108 72.27 95.4144 69.3456C94.8088 67.865 96.2208 65.8416 97.4518 65.1141Z" fill="white"/>
<path d="M153.539 64.8006C155.647 62.3764 157.852 61.7221 160.731 63.0767C164.126 66.4716 162.863 72.8621 160.104 76.3108C157.712 79.3001 152.494 83.401 148.35 81.2387C144.523 79.2418 148.086 73.2579 149.29 70.5818C150.285 68.3705 151.962 66.6148 153.539 64.8006Z" fill="white"/>
<path d="M112.932 82.3532C117.015 84.3191 118.665 87.7072 120.611 91.5996C119.989 95.3306 116.356 97.3485 112.949 97.9381L112.844 97.9562C108.882 98.6422 104.442 99.4107 100.412 98.7391C96.582 98.1008 92.4069 95.9166 88.8841 94.3509C86.1179 93.1215 83.7541 92.1186 81.292 90.3459C80.1674 89.5362 78.4448 87.6719 78.3143 86.2364C78.1663 84.6087 78.0177 82.7891 79.2372 81.5696C80.3695 80.4374 82.1218 79.9125 83.6428 79.5323C85.5804 79.0479 87.9081 79.3756 89.8941 79.3756C92.4579 79.3756 95.0474 79.268 97.6082 79.393C102.971 79.6546 108.032 79.994 112.932 82.3532Z" fill="white"/>
</g>
<defs>
<linearGradient id="paint0_linear_985_43285" x1="175.917" y1="108.644" x2="126.716" y2="269.979" gradientUnits="userSpaceOnUse">
<stop stop-color="#1D84BC"/>
<stop offset="1" stop-color="#0D184D"/>
</linearGradient>
<linearGradient id="paint1_linear_985_43285" x1="147.853" y1="239.328" x2="156.585" y2="208.984" gradientUnits="userSpaceOnUse">
<stop stop-color="#080E44"/>
<stop offset="1" stop-color="#1D84BD"/>
</linearGradient>
<linearGradient id="paint2_linear_985_43285" x1="130" y1="29" x2="136.753" y2="98.1588" gradientUnits="userSpaceOnUse">
<stop stop-color="#02AA3E"/>
<stop offset="1" stop-color="#1A6C37"/>
</linearGradient>
<linearGradient id="paint3_linear_985_43285" x1="130" y1="29" x2="136.753" y2="98.1588" gradientUnits="userSpaceOnUse">
<stop stop-color="#1D84BD"/>
<stop offset="1" stop-color="#080E44"/>
</linearGradient>
</defs>
</svg>
