<svg width="179" height="513" viewBox="0 0 179 513" fill="none" xmlns="http://www.w3.org/2000/svg">
<path d="M53.0626 295.853L32.1993 275.348C25.9591 269.214 23.259 260.166 25.0456 251.374C28.7723 233.035 49.3947 224.238 64.3075 234.626L65.319 235.331C71.0446 239.319 74.9531 245.519 76.1793 252.557L78.9234 268.307C80.2699 276.036 84.4829 282.878 90.6769 287.395L106.611 299.016C111.687 302.718 115.462 308.005 117.391 314.112L128.428 349.053C130.015 354.077 132.858 358.565 136.674 362.072L164.48 387.619C172.592 395.073 175.654 406.786 172.316 417.588C167.731 432.422 152.407 440.995 137.91 437.07C128.901 434.63 121.587 427.721 118.569 418.657L111.216 396.576C109.716 392.072 107.2 388.013 103.872 384.729L77.8155 359.012C73.9267 355.174 71.1575 350.29 69.812 344.896L61.1099 310.012C59.7592 304.597 56.9741 299.697 53.0626 295.853Z" fill="#02DCA1"/>
<path d="M211.033 508.102L207.794 509.707C206.437 510.379 204.792 509.935 203.958 508.671L124.904 388.849L57.0315 268.01C56.631 267.297 56.9099 266.394 57.6426 266.031C58.3153 265.698 59.1312 265.942 59.5098 266.59L130.768 388.613L212.151 503.682C213.214 505.186 212.684 507.284 211.033 508.102Z" fill="#1A6C5B"/>
<path d="M89.6252 127.553L91.893 122.598C96.5163 112.498 108.091 107.604 118.558 111.325C121.03 112.204 123.32 113.53 125.314 115.236L139.338 127.239C144.359 131.536 147.474 137.645 148.002 144.232L150.558 176.07C151.06 182.325 153.896 188.163 158.503 192.424L165.372 198.776C170.152 203.197 173.02 209.31 173.363 215.813L174.853 244.051C174.922 245.368 175.096 246.678 175.372 247.968L179.993 269.545C180.492 271.878 181.323 274.127 182.46 276.225L194.328 298.118C196.926 302.91 197.886 308.42 197.063 313.808L196.105 320.076C195.117 326.547 191.623 332.37 186.379 336.289C176.377 343.762 162.389 342.687 153.647 333.773L146.782 326.774C144.499 324.446 142.693 321.694 141.467 318.673L126.937 282.888C125.646 279.709 125.024 276.298 125.108 272.868L125.706 248.59C125.903 240.586 122.255 232.972 115.893 228.111L107.98 222.064C101.21 216.89 97.5406 208.625 98.2448 200.133L100.295 175.413C100.733 170.13 99.4805 164.845 96.7185 160.32L91.0189 150.984C86.6888 143.891 86.1665 135.109 89.6252 127.553Z" fill="#02DCA1"/>
<path d="M216.12 398.005L121.67 161.472C121.278 160.491 120.133 160.05 119.184 160.515C118.352 160.922 117.96 161.891 118.274 162.763L204.917 402.875C205.524 404.555 207.454 405.336 209.058 404.551L214.653 401.812C216.062 401.122 216.702 399.462 216.12 398.005Z" fill="#1A6C5B"/>
<path d="M94.3089 48.1542C99.5968 82.7381 105.254 110.847 112.673 134.219M197.938 236.092C169.547 221.355 149.568 204.796 134.707 182.304M134.707 18.295C145.146 79.2195 147.309 110.347 112.673 134.219M112.673 134.219C114.023 138.471 115.431 142.565 116.906 146.514M29.3211 70.9877C37.0045 94.6307 44.4848 111.808 55.6675 123.783M116.906 146.514C87.1194 144.768 68.8292 137.878 55.6675 123.783M116.906 146.514C121.02 157.53 125.653 167.408 130.987 176.373M66.2061 88.552C68.4365 106.917 67.9602 115.964 55.6675 123.783M183.887 6C190.413 18.8385 189.523 53.6784 182.373 88.552M130.987 176.373C147.157 174.174 160.333 155.623 169.956 131.343M130.987 176.373C132.191 178.396 133.43 180.372 134.707 182.304M124.168 70.9877C144.846 88.2215 155.506 99.997 169.956 131.343M169.956 131.343C175.166 118.197 179.335 103.371 182.373 88.552M220.771 51.6671C213.139 77.5953 212.254 97.4443 182.373 88.552M10.0005 144.758C50.5861 190.993 77.3335 201.369 134.707 182.304" stroke="url(#paint0_linear_985_43297)" stroke-width="10.7981" stroke-linecap="round" stroke-linejoin="round"/>
<defs>
<linearGradient id="paint0_linear_985_43297" x1="115.386" y1="6.00001" x2="115.386" y2="236.092" gradientUnits="userSpaceOnUse">
<stop stop-color="#FFD12C"/>
<stop offset="1" stop-color="#FE800B"/>
</linearGradient>
</defs>
</svg>
