<svg width="557" height="350" viewBox="0 0 557 350" fill="none" xmlns="http://www.w3.org/2000/svg">
<ellipse cx="59.696" cy="301.47" rx="16.8949" ry="2.19565" transform="rotate(-32.9406 59.696 301.47)" fill="#386357" fill-opacity="0.5"/>
<ellipse cx="73.7075" cy="289.466" rx="15.2295" ry="3.62314" transform="rotate(-41.1714 73.7075 289.466)" fill="#386357" fill-opacity="0.3"/>
<path d="M73.7171 260.167C72.5505 260.44 72.9332 262.251 74.1053 261.976C75.1196 261.731 76.1785 261.778 77.1575 262.112C78.289 262.487 78.8866 260.719 77.757 260.343C76.4593 259.91 75.0601 259.849 73.7171 260.167Z" fill="#AACEC4"/>
<path d="M53.0926 292.56C53.0926 292.56 35.4326 305.534 40.7248 306.821C80.2286 294.355 53.0926 292.56 53.0926 292.56Z" fill="url(#paint0_radial_985_43240)"/>
<path d="M85.728 273.078L84.6346 284.471C84.6211 284.606 84.58 284.736 84.5139 284.854C84.4478 284.972 84.3581 285.075 84.2503 285.157C84.1424 285.239 84.0188 285.299 83.887 285.331C83.7551 285.364 83.6179 285.37 83.4838 285.348L73.7917 285.148C73.5482 285.155 73.3105 285.074 73.1235 284.919C72.9366 284.763 72.8136 284.545 72.7778 284.306L72.0098 279.061C71.9895 278.919 72.0008 278.774 72.0427 278.636C72.0846 278.499 72.1562 278.372 72.2525 278.265C72.3488 278.158 72.4675 278.073 72.6003 278.016C72.7331 277.959 72.8768 277.931 73.0214 277.935C75.3931 277.526 77.7395 276.984 80.0494 276.31C81.0758 271.888 83.2404 272.088 84.6818 272.002C84.8245 271.994 84.9673 272.016 85.1004 272.068C85.2336 272.12 85.3539 272.199 85.4532 272.302C85.5525 272.404 85.6285 272.526 85.676 272.66C85.7234 272.794 85.7411 272.937 85.728 273.078Z" fill="#294E6A"/>
<path d="M75.1675 263.347C74.8594 263.344 74.5527 263.458 74.3105 263.666C74.0683 263.874 73.9091 264.16 73.8653 264.465C73.7995 265.05 74.2736 265.707 74.9008 265.671C75.1563 265.638 75.4117 265.661 75.6485 265.739C75.8853 265.816 76.0976 265.946 76.2703 266.119C76.467 266.34 76.7485 266.471 77.0562 266.484C77.3639 266.498 77.6742 266.392 77.9225 266.191C78.1659 265.981 78.3233 265.691 78.3608 265.384C78.3983 265.076 78.3129 264.776 78.123 264.547C77.7579 264.148 77.3066 263.835 76.7977 263.629C76.2889 263.422 75.7336 263.326 75.1675 263.347Z" fill="#AACEC4"/>
<path d="M74.6567 261.603C73.481 261.782 73.8516 263.572 75.0211 263.386C75.9681 263.24 76.9276 263.286 77.8415 263.52C78.9839 263.817 79.5968 262.058 78.4572 261.768C77.2252 261.454 75.9317 261.398 74.6567 261.603Z" fill="#88B7A9"/>
<path d="M57.003 268.369C55.9497 269.606 56.0436 271.73 57.3797 272.788C58.7159 273.845 60.6558 273.808 61.7784 272.487C62.2328 271.954 62.7134 271.452 63.2111 270.961L63.3147 270.872L63.405 270.794C63.6704 270.567 63.9338 270.34 64.2174 270.134C64.7018 269.761 65.2027 269.407 65.7196 269.08C66.0142 268.894 66.3136 268.713 66.6178 268.542C66.7456 268.47 66.8746 268.399 67.0046 268.33C68.1272 267.791 69.2938 267.346 70.4927 267C70.7567 266.926 71.0239 266.857 71.2813 266.802C71.337 266.791 71.5711 266.74 71.729 266.714C72.4231 266.601 73.1168 266.522 73.8201 266.484C75.4485 266.381 76.8831 264.826 76.6635 263.15C76.4439 261.474 75.0312 260.129 73.287 260.238C66.9599 260.658 61.103 263.582 57.003 268.369Z" fill="#D8EAE9"/>
<path fill-rule="evenodd" clip-rule="evenodd" d="M61.6346 264.041C61.81 263.938 62.0357 263.996 62.1387 264.172C62.4864 264.764 63.0409 265.624 63.5119 266.341C63.7466 266.698 63.9595 267.018 64.1136 267.249C64.1907 267.364 64.253 267.457 64.2961 267.521L64.3627 267.62L64.0576 267.826C63.7524 268.032 63.7524 268.032 63.7524 268.032L63.6848 267.932C63.6414 267.868 63.5787 267.774 63.5012 267.658C63.3463 267.426 63.1324 267.105 62.8963 266.746C62.4254 266.029 61.8616 265.155 61.5034 264.545C61.4004 264.369 61.4592 264.144 61.6346 264.041ZM64.2638 268.131C64.0953 268.245 63.8663 268.201 63.7524 268.032L64.0576 267.826L64.3627 267.62C64.4766 267.788 64.4323 268.018 64.2638 268.131Z" fill="#AACEC4"/>
<path fill-rule="evenodd" clip-rule="evenodd" d="M59.6834 265.471C59.8589 265.368 60.0845 265.427 60.1875 265.603C60.5352 266.195 61.0897 267.055 61.5607 267.772C61.7955 268.129 62.0083 268.449 62.1624 268.68C62.2395 268.795 62.3018 268.888 62.3449 268.952L62.4115 269.051L62.1064 269.257C61.8013 269.463 61.8012 269.463 61.8012 269.463L61.7337 269.363C61.6903 269.298 61.6275 269.205 61.5501 269.089C61.3951 268.857 61.1812 268.536 60.9451 268.176C60.4743 267.46 59.9104 266.586 59.5522 265.975C59.4493 265.8 59.508 265.574 59.6834 265.471ZM62.3126 269.562C62.1441 269.676 61.9151 269.632 61.8012 269.463L62.1064 269.257L62.4115 269.051C62.5254 269.219 62.4812 269.448 62.3126 269.562Z" fill="#AACEC4"/>
<path fill-rule="evenodd" clip-rule="evenodd" d="M63.8209 262.4C63.9792 262.272 64.2114 262.296 64.3395 262.454C64.7711 262.986 65.3418 263.872 65.7967 264.609C66.0261 264.981 66.2292 265.321 66.3751 265.567C66.448 265.69 66.5066 265.791 66.5471 265.86C66.5673 265.895 66.583 265.922 66.5937 265.94L66.6101 265.969C66.6101 265.969 66.6102 265.969 66.2906 266.153L65.971 266.338L65.9554 266.311C65.945 266.293 65.9297 266.266 65.9098 266.232C65.87 266.164 65.8121 266.065 65.7401 265.943C65.5959 265.699 65.3952 265.364 65.1688 264.997C64.7122 264.257 64.1641 263.409 63.7663 262.919C63.6382 262.761 63.6626 262.528 63.8209 262.4ZM66.4744 266.472C66.2979 266.574 66.0725 266.514 65.971 266.338L66.2906 266.153L66.6101 265.969C66.7116 266.145 66.651 266.37 66.4744 266.472Z" fill="#AACEC4"/>
<path fill-rule="evenodd" clip-rule="evenodd" d="M66.4535 261.123C66.6058 260.954 66.859 260.929 67.019 261.068C67.5733 261.547 68.1724 262.51 68.6157 263.303C68.8426 263.709 69.0374 264.087 69.1755 264.363C69.2445 264.501 69.2996 264.615 69.3374 264.693C69.3564 264.733 69.371 264.764 69.381 264.785L69.3924 264.809L69.3955 264.815L69.3965 264.818C69.3965 264.818 69.3966 264.818 69.0309 265.005L69.3966 264.818C69.4862 265.01 69.3951 265.25 69.1932 265.353C68.9912 265.457 68.7549 265.384 68.6653 265.192C68.6653 265.192 68.6653 265.192 68.6653 265.192L68.6646 265.19L68.662 265.185L68.6515 265.162C68.6421 265.143 68.6281 265.113 68.6099 265.075C68.5734 264.999 68.5201 264.89 68.4528 264.755C68.3182 264.486 68.1286 264.118 67.9086 263.724C67.4581 262.918 66.9133 262.065 66.4673 261.68C66.3073 261.541 66.3011 261.292 66.4535 261.123Z" fill="#AACEC4"/>
<path fill-rule="evenodd" clip-rule="evenodd" d="M68.913 260.741C69.0305 260.559 69.2685 260.496 69.4447 260.601C69.7805 260.8 70.0887 261.146 70.355 261.514C70.6264 261.89 70.8768 262.322 71.0888 262.726C71.3013 263.131 71.4784 263.515 71.6023 263.797C71.6643 263.938 71.7132 264.054 71.7467 264.135C71.7635 264.175 71.7764 264.207 71.7853 264.229L71.7954 264.255L71.7981 264.261L71.799 264.264C71.7991 264.264 71.7991 264.264 71.4405 264.422L71.7991 264.264C71.8739 264.455 71.774 264.68 71.5759 264.767C71.3779 264.854 71.1567 264.77 71.0819 264.579C71.0819 264.579 71.0819 264.579 71.0819 264.579L71.0818 264.579L71.0813 264.578L71.0791 264.572L71.0701 264.55C71.0621 264.53 71.05 264.5 71.0341 264.461C71.0023 264.385 70.9555 264.273 70.8958 264.138C70.7764 263.866 70.6062 263.498 70.4032 263.111C70.1996 262.723 69.9662 262.322 69.7211 261.982C69.4708 261.636 69.2297 261.384 69.0192 261.259C68.8431 261.154 68.7955 260.923 68.913 260.741Z" fill="#AACEC4"/>
<path fill-rule="evenodd" clip-rule="evenodd" d="M71.5473 259.981C71.6232 259.788 71.842 259.697 72.036 259.778C72.4379 259.945 72.7884 260.3 73.0774 260.677C73.3732 261.063 73.6389 261.518 73.8597 261.946C74.0814 262.375 74.2629 262.787 74.3888 263.09C74.4519 263.242 74.5013 263.367 74.5351 263.456C74.552 263.5 74.565 263.534 74.5739 263.558C74.5784 263.57 74.5818 263.579 74.5841 263.586L74.5869 263.593L74.5879 263.596C74.5879 263.596 74.588 263.596 74.2336 263.718L74.588 263.596C74.6593 263.795 74.5585 264.009 74.3628 264.076C74.1671 264.143 73.9506 264.037 73.8792 263.839M73.8792 263.839L73.8787 263.837L73.8766 263.832C73.8747 263.826 73.8717 263.818 73.8678 263.808C73.8598 263.786 73.8478 263.754 73.832 263.713C73.8003 263.631 73.7535 263.512 73.6934 263.367C73.573 263.077 73.4005 262.686 73.1916 262.282C72.9818 261.875 72.7403 261.465 72.4835 261.13C72.2197 260.786 71.972 260.564 71.7612 260.476C71.5672 260.395 71.4714 260.174 71.5473 259.981" fill="#AACEC4"/>
<path d="M26.1217 285.753C24.8203 285.802 23.5294 285.499 22.3859 284.874C21.2172 284.243 20.2462 286.064 21.4165 286.696C22.8743 287.487 24.5164 287.874 26.1729 287.816C27.5006 287.77 27.4494 285.707 26.1217 285.753Z" fill="#AACEC4"/>
<path d="M25.865 283.874C25.0019 283.465 24.2027 282.935 23.4914 282.3C22.4948 281.408 21.057 282.942 22.0568 283.838C22.9012 284.595 23.8482 285.231 24.8707 285.726C26.0763 286.304 27.0789 284.459 25.865 283.874Z" fill="#88B7A9"/>
<path d="M72.6112 273.351C77.3031 277.143 78.2588 281.952 77.6017 285.738C76.9058 289.639 74.6027 292.515 71.8557 295.054C69.163 297.645 66.1502 299.779 62.2158 300.244C58.3968 300.676 53.6562 299.439 50.1459 294.533C43.4225 284.458 43.4082 275.675 48.9826 270.794C51.8511 267.885 55.7981 266.739 60.3809 267.522C64.1232 268.15 68.2815 270.065 72.6112 273.351Z" fill="url(#paint1_linear_985_43240)"/>
<path d="M52.6055 273.927C55.5063 271.192 57.2839 268.366 56.5759 267.615C55.8679 266.863 52.9423 268.472 50.0415 271.206C47.1407 273.941 45.363 276.767 46.071 277.519C46.7791 278.27 49.7046 276.661 52.6055 273.927Z" fill="#AACEC4"/>
<path d="M54.2363 253.903C59.5706 261.145 57.2162 269.04 50.4244 273.772C43.8707 278.831 35.6245 278.708 30.3124 271.454C25.0004 264.199 27.3325 256.317 34.1243 251.585C40.6797 246.527 48.9243 246.648 54.2363 253.903Z" fill="url(#paint2_radial_985_43240)"/>
<path d="M47.5567 260.711C48.2177 260.144 48.3205 259.179 47.7863 258.557C47.2522 257.935 46.2834 257.891 45.6225 258.459C44.9616 259.026 44.8588 259.99 45.3929 260.612C45.927 261.234 46.8958 261.279 47.5567 260.711Z" fill="#0C4231"/>
<path d="M38.0829 267.623C38.6661 267.122 38.7059 266.212 38.1718 265.59C37.6376 264.968 36.7319 264.87 36.1487 265.37C35.5655 265.871 35.5258 266.781 36.0599 267.403C36.594 268.025 37.4997 268.124 38.0829 267.623Z" fill="#0C4231"/>
<path d="M40.7439 264.347C41.1935 263.686 42.1173 262.695 43.8422 262.105C43.9231 262.08 44.0082 262.076 44.0895 262.093C44.1708 262.111 44.2457 262.148 44.3071 262.203C44.3684 262.257 44.4143 262.327 44.4403 262.405C44.4664 262.483 44.4718 262.567 44.4561 262.65L43.9641 264.888C43.9368 265.006 43.8675 265.111 43.7694 265.184C43.6712 265.258 43.5508 265.293 43.4309 265.285L41.0873 265.086C41.0056 265.077 40.9283 265.047 40.8624 265C40.7965 264.953 40.7441 264.89 40.71 264.817C40.6759 264.743 40.6611 264.662 40.667 264.58C40.6729 264.497 40.6994 264.417 40.7439 264.347Z" fill="#0C4231"/>
<path fill-rule="evenodd" clip-rule="evenodd" d="M43.7759 264.998C43.975 264.957 44.165 265.084 44.2003 265.281L43.8398 265.355C44.2003 265.281 44.2003 265.281 44.2004 265.281L44.2005 265.282L44.2007 265.283L44.2012 265.286L44.2026 265.295C44.2038 265.302 44.2052 265.311 44.2069 265.323C44.2103 265.347 44.2145 265.38 44.2187 265.421C44.2269 265.503 44.2347 265.618 44.2339 265.756C44.2323 266.027 44.1969 266.401 44.0529 266.78C43.9072 267.164 43.648 267.558 43.2026 267.849C42.7589 268.139 42.1636 268.304 41.3812 268.29C41.1792 268.286 41.0233 268.12 41.0328 267.919C41.0424 267.718 41.2139 267.558 41.4159 267.561C42.0891 267.573 42.5267 267.43 42.8137 267.243C43.0989 267.057 43.2681 266.805 43.3688 266.54C43.4712 266.27 43.5003 265.991 43.5016 265.773C43.5022 265.665 43.4961 265.576 43.49 265.514C43.4869 265.484 43.4839 265.461 43.4818 265.446C43.4808 265.439 43.48 265.434 43.4795 265.431L43.4791 265.428L43.4792 265.429M43.7759 264.998C43.5771 265.039 43.4445 265.232 43.4791 265.428L43.7759 264.998Z" fill="#0C4231"/>
<path fill-rule="evenodd" clip-rule="evenodd" d="M43.4048 265.047C43.4997 264.858 43.7334 264.794 43.9274 264.903L43.9299 264.904C43.9327 264.905 43.9379 264.908 43.9452 264.912C43.9598 264.92 43.983 264.931 44.0138 264.946C44.0754 264.975 44.1664 265.015 44.2781 265.055C44.5046 265.135 44.8014 265.21 45.1081 265.206C45.4098 265.202 45.7152 265.123 45.9836 264.901C46.2536 264.678 46.5176 264.285 46.684 263.593C46.7342 263.384 46.9453 263.268 47.1556 263.334C47.3659 263.399 47.4957 263.622 47.4456 263.83C47.2518 264.636 46.9221 265.183 46.5042 265.528C46.0848 265.875 45.6081 265.992 45.1728 265.997C44.7424 266.003 44.3472 265.899 44.0659 265.799C43.9238 265.749 43.8069 265.698 43.7243 265.659C43.6828 265.639 43.6498 265.622 43.6261 265.61C43.6143 265.604 43.6048 265.599 43.5978 265.595L43.5892 265.59L43.5863 265.589L43.5852 265.588L43.5848 265.588C43.5846 265.588 43.5844 265.588 43.7564 265.245L43.5844 265.588C43.3902 265.478 43.3098 265.236 43.4048 265.047Z" fill="#0C4231"/>
<path fill-rule="evenodd" clip-rule="evenodd" d="M46.8336 255.265C46.8337 255.265 46.8337 255.265 46.9606 255.607L46.8336 255.265C47.0255 255.19 47.2379 255.282 47.3079 255.471C47.378 255.66 47.2793 255.874 47.0875 255.949L47.0862 255.949L47.0813 255.951L47.0606 255.96C47.0421 255.967 47.0142 255.978 46.9781 255.993C46.9059 256.023 46.8007 256.068 46.6703 256.125C46.4094 256.24 46.0491 256.407 45.6524 256.614C44.8478 257.033 43.9367 257.594 43.3822 258.197C43.2422 258.349 43.0082 258.363 42.8594 258.228C42.7107 258.093 42.7035 257.86 42.8435 257.708C43.4937 257.001 44.5065 256.39 45.3245 255.964C45.7392 255.747 46.115 255.573 46.3872 255.453C46.5235 255.393 46.6341 255.347 46.7111 255.315C46.7497 255.299 46.7798 255.286 46.8006 255.278L46.8246 255.269L46.8311 255.266L46.8329 255.265L46.8336 255.265Z" fill="#0C4231"/>
<path d="M35.9954 262.717C36.1698 262.606 36.4006 262.659 36.511 262.833C36.6213 263.007 36.5695 263.238 36.3952 263.348L36.3941 263.349L36.3897 263.352L36.3709 263.364C36.3541 263.375 36.3289 263.391 36.2962 263.413C36.231 263.456 36.136 263.519 36.019 263.601C35.7846 263.763 35.4628 263.995 35.1134 264.274C34.4047 264.839 33.6208 265.565 33.2001 266.265C33.094 266.442 32.8645 266.499 32.6876 266.393C32.5107 266.286 32.4533 266.057 32.5595 265.88C33.0528 265.058 33.9268 264.264 34.6473 263.689C35.0126 263.398 35.3482 263.156 35.5927 262.986C35.7151 262.901 35.8149 262.835 35.8845 262.789C35.9193 262.766 35.9466 262.748 35.9655 262.736L35.9948 262.717L35.9954 262.717Z" fill="#0C4231"/>
<path d="M46.8307 252.602C46.8307 252.602 48.087 247.356 50.8988 246.842C53.7105 246.328 50.8804 252.476 50.8804 252.476L46.8307 252.602Z" fill="#E17200"/>
<path d="M30.6688 264.259C30.6688 264.259 25.5103 263.855 24.2522 266.282C22.9941 268.71 29.4306 267.958 29.4306 267.958L30.6688 264.259Z" fill="#E17200"/>
<path d="M47.0527 285.8C48.6079 284.826 49.2403 282.532 48.165 280.967C47.0896 279.402 44.9973 278.802 43.333 279.844C42.6599 280.265 41.9725 280.642 41.2668 281.006L41.1275 281.076L41.004 281.126C40.6401 281.278 40.2768 281.423 39.903 281.567C39.2553 281.806 38.5964 282.016 37.9262 282.195C37.5469 282.303 37.1627 282.396 36.7737 282.477C36.6126 282.51 36.4496 282.545 36.282 282.571C34.8872 282.776 33.4778 282.865 32.0679 282.839C31.762 282.83 31.4586 282.812 31.1534 282.792C31.0887 282.785 30.8144 282.755 30.6413 282.736C29.8557 282.633 29.0761 282.488 28.3056 282.303C26.514 281.874 24.44 283.068 24.1009 284.93C23.7619 286.791 24.8159 288.686 26.7326 289.138C30.1752 289.944 33.7416 290.064 37.2281 289.491C40.7146 288.919 44.053 287.664 47.0527 285.8Z" fill="#D8EAE9"/>
<path d="M26.3568 280.208C25.1409 279.663 24.1841 281.475 25.4153 282.027C25.7177 282.141 25.9714 282.361 26.1285 282.645C26.2856 282.929 26.3352 283.259 26.2681 283.571C25.9895 284.87 28.0008 285.373 28.2846 284.077C28.448 283.32 28.3456 282.523 27.9946 281.819C27.6435 281.114 27.0653 280.546 26.3568 280.208Z" fill="#AACEC4"/>
<path fill-rule="evenodd" clip-rule="evenodd" d="M43.4774 281.851C43.6725 281.772 43.8904 281.863 43.964 282.054L43.624 282.193C43.964 282.054 43.964 282.054 43.964 282.054L43.9675 282.063L43.977 282.088C43.9852 282.11 43.9972 282.142 44.0125 282.183C44.0431 282.265 44.0868 282.384 44.1397 282.532C44.2455 282.828 44.3882 283.24 44.5361 283.708C44.829 284.633 45.1525 285.804 45.2368 286.705C45.256 286.911 45.1033 287.099 44.8956 287.125C44.688 287.15 44.504 287.004 44.4848 286.798C44.4085 285.982 44.107 284.876 43.8151 283.954C43.6705 283.497 43.5308 283.094 43.4273 282.804C43.3756 282.659 43.3329 282.543 43.3033 282.464C43.2885 282.424 43.277 282.393 43.2692 282.373L43.2603 282.349L43.2575 282.342C43.1839 282.15 43.2823 281.931 43.4774 281.851Z" fill="#AACEC4"/>
<path fill-rule="evenodd" clip-rule="evenodd" d="M39.9637 283.414C40.1637 283.349 40.3734 283.457 40.4321 283.654L40.07 283.771L39.7079 283.888C39.6492 283.691 39.7637 283.479 39.9637 283.414ZM39.7079 283.888L40.07 283.771C40.4321 283.654 40.4321 283.654 40.4321 283.654L40.4714 283.787C40.4966 283.872 40.5329 283.995 40.5776 284.148C40.667 284.454 40.79 284.878 40.9241 285.351C41.1918 286.295 41.5065 287.441 41.6876 288.231C41.7336 288.432 41.6062 288.637 41.4029 288.689C41.1996 288.741 40.9975 288.62 40.9514 288.419C40.775 287.65 40.465 286.519 40.1973 285.576C40.0638 285.105 39.9414 284.683 39.8524 284.378C39.8079 284.226 39.7717 284.103 39.7467 284.019L39.7079 283.888Z" fill="#AACEC4"/>
<path fill-rule="evenodd" clip-rule="evenodd" d="M36.6202 284.588C36.8144 284.546 37.0117 284.671 37.0609 284.868L36.7093 284.945L36.3577 285.021C36.3085 284.824 36.426 284.63 36.6202 284.588ZM36.3577 285.021C36.3577 285.021 36.3577 285.021 36.7093 284.945L37.0609 284.868L37.0695 284.903C37.0753 284.925 37.0838 284.959 37.0948 285.002C37.1169 285.089 37.1492 285.214 37.1897 285.369C37.2708 285.679 37.3848 286.106 37.5168 286.575C37.7828 287.522 38.1151 288.617 38.3941 289.28C38.4732 289.468 38.3882 289.679 38.2041 289.751C38.0201 289.824 37.8067 289.731 37.7276 289.543C37.4278 288.83 37.0843 287.692 36.8192 286.749C36.6857 286.274 36.5704 285.843 36.4886 285.53C36.4476 285.373 36.415 285.246 36.3925 285.159C36.3813 285.115 36.3727 285.08 36.3668 285.057L36.3577 285.021Z" fill="#AACEC4"/>
<path fill-rule="evenodd" clip-rule="evenodd" d="M33.4538 284.877C33.6601 284.84 33.8521 284.975 33.8827 285.179L33.884 285.188L33.8882 285.215C33.8919 285.239 33.8975 285.274 33.9049 285.32C33.9198 285.412 33.9418 285.545 33.9707 285.708C34.0284 286.035 34.1131 286.483 34.2209 286.969C34.4409 287.96 34.7433 289.04 35.0836 289.597C35.1903 289.772 35.1316 290.005 34.9524 290.116C34.7733 290.228 34.5415 290.177 34.4348 290.002C34.0226 289.327 33.7001 288.13 33.4832 287.153C33.3725 286.654 33.2858 286.195 33.2268 285.861C33.1972 285.694 33.1745 285.557 33.1592 285.462C33.1516 285.415 33.1457 285.378 33.1418 285.353L33.1373 285.324L33.1362 285.316L33.1358 285.313C33.1358 285.313 33.1357 285.313 33.5092 285.246L33.1357 285.313C33.1051 285.109 33.2476 284.913 33.4538 284.877Z" fill="#AACEC4"/>
<path fill-rule="evenodd" clip-rule="evenodd" d="M31.0206 285L31.0208 285.002L31.0216 285.009L31.0247 285.037C31.0275 285.062 31.0317 285.1 31.0376 285.149C31.0492 285.246 31.067 285.386 31.0915 285.559C31.1404 285.904 31.2156 286.375 31.3209 286.88C31.4264 287.385 31.5606 287.916 31.7259 288.384C31.8943 288.861 32.0823 289.236 32.2788 289.457C32.4195 289.616 32.4054 289.859 32.2472 289.999C32.089 290.139 31.8467 290.124 31.706 289.965C31.4088 289.63 31.181 289.141 31.0031 288.637C30.8221 288.125 30.6798 287.557 30.5704 287.033C30.4608 286.508 30.3828 286.02 30.3323 285.663C30.307 285.485 30.2885 285.339 30.2763 285.237C30.2702 285.186 30.2656 285.146 30.2626 285.119C30.2611 285.105 30.2599 285.094 30.2592 285.087L30.2583 285.079L30.258 285.076C30.258 285.076 30.2579 285.075 30.6393 285.038L30.2579 285.075C30.2363 284.864 30.3894 284.677 30.6 284.656C30.8106 284.635 30.9989 284.789 31.0206 285Z" fill="#AACEC4"/>
<path fill-rule="evenodd" clip-rule="evenodd" d="M56.7831 274.57C56.9075 274.404 57.1424 274.368 57.3079 274.491L57.0828 274.792C57.3079 274.491 57.308 274.491 57.3082 274.491L57.3105 274.493L57.3173 274.498L57.3434 274.518C57.3663 274.535 57.4001 274.56 57.444 274.594C57.5318 274.66 57.6603 274.759 57.824 274.887C58.1516 275.142 58.6203 275.515 59.187 275.986C60.32 276.928 61.8467 278.263 63.4202 279.835C64.9928 281.407 66.6179 283.222 67.944 285.124C69.2674 287.023 70.3092 289.03 70.6882 290.986C70.7275 291.188 70.5946 291.386 70.3914 291.427C70.1881 291.468 69.9915 291.337 69.9523 291.134C69.6011 289.323 68.6231 287.414 67.3276 285.556C66.0348 283.701 64.4418 281.92 62.8876 280.367C61.3342 278.814 59.8253 277.495 58.7045 276.563C58.1443 276.098 57.6815 275.729 57.3593 275.478C57.1982 275.352 57.0722 275.256 56.9868 275.191C56.9441 275.158 56.9115 275.134 56.8898 275.117L56.8653 275.099L56.8593 275.095L56.8576 275.093C56.8576 275.093 56.8576 275.093 56.912 275.021L56.8576 275.093C56.6922 274.971 56.6588 274.736 56.7831 274.57Z" fill="#D8EAE9"/>
<path d="M57.2128 278.186C57.0874 278.875 56.373 281.565 52.9429 282.092C52.9093 282.096 52.8774 282.11 52.8515 282.132C52.8256 282.154 52.8068 282.184 52.7978 282.216C52.6831 282.707 52.4907 283.18 52.2281 283.616C52.2143 283.639 52.1952 283.659 52.1725 283.673C52.1499 283.687 52.1242 283.696 52.0978 283.699C52.0715 283.701 52.0451 283.698 52.0209 283.688C51.9968 283.678 51.9756 283.662 51.9591 283.642L50.7272 282.153C50.7094 282.132 50.6976 282.106 50.6929 282.079C50.6881 282.051 50.6905 282.023 50.7 281.996C50.7094 281.969 50.7254 281.945 50.7467 281.926C50.7679 281.907 50.7935 281.893 50.8211 281.886C51.2577 281.765 51.7096 281.723 52.1554 281.762C52.1959 281.765 52.2367 281.753 52.27 281.728C52.3034 281.704 52.327 281.668 52.3367 281.629C52.6066 280.402 53.6725 277.365 57.0857 277.988C57.1296 277.996 57.1676 278.022 57.1914 278.059C57.2152 278.096 57.2229 278.142 57.2128 278.186Z" fill="#88B7A9"/>
<path d="M76.6477 300.707L79.6161 288.411C79.6472 288.279 79.6508 288.143 79.6268 288.01C79.6027 287.877 79.5516 287.75 79.4764 287.637C79.4012 287.524 79.3035 287.428 79.1894 287.354C79.0752 287.28 78.947 287.23 78.8127 287.207C77.3591 286.972 74.6573 287.196 72.6728 291.239C72.5736 291.433 72.413 291.589 72.2156 291.683C72.0182 291.777 71.7951 291.804 71.5805 291.76L65.1642 290.43C64.6138 290.316 64.041 290.727 63.8758 291.35C63.2762 293.63 62.1999 298.652 64.0968 299.42C66.1127 300.237 73.0872 301.15 75.5655 301.457C75.8072 301.484 76.0505 301.423 76.2497 301.285C76.4489 301.147 76.5904 300.942 76.6477 300.707Z" fill="#294E6A"/>
<path fill-rule="evenodd" clip-rule="evenodd" d="M49.8399 259.267C49.943 259.226 50.059 259.233 50.1571 259.286L50.8096 259.635L51.3474 258.156C51.4187 257.959 51.6359 257.859 51.8324 257.932C52.0289 258.004 52.1304 258.222 52.059 258.418L51.3728 260.305C51.3355 260.408 51.2554 260.49 51.1532 260.528C51.051 260.567 50.9368 260.56 50.84 260.508L50.1962 260.164L49.8405 261.215C49.7735 261.413 49.5587 261.518 49.3606 261.45C49.1625 261.382 49.0562 261.167 49.1232 260.969L49.6214 259.496C49.657 259.391 49.7368 259.308 49.8399 259.267Z" fill="#FFA197"/>
<path fill-rule="evenodd" clip-rule="evenodd" d="M35.8022 270.098C35.9019 270.06 36.0151 270.07 36.1118 270.124L36.7529 270.48L37.2459 269.041C37.3114 268.85 37.5211 268.756 37.7144 268.832C37.9076 268.908 38.0112 269.124 37.9457 269.315L37.3165 271.152C37.2822 271.252 37.2057 271.33 37.1069 271.366C37.008 271.402 36.8964 271.392 36.8009 271.339L36.1681 270.987L35.8416 272.012C35.7803 272.205 35.5728 272.303 35.3782 272.231C35.1836 272.16 35.0756 271.945 35.1369 271.753L35.5938 270.318C35.6264 270.216 35.7025 270.135 35.8022 270.098Z" fill="#FFA197"/>
<path opacity="0.65" d="M21.0977 268.265C20.1292 264.303 19.6438 257.815 22.2298 248.633C22.2558 248.542 22.2622 248.447 22.2488 248.352C22.2353 248.258 22.2022 248.167 22.1516 248.085C22.101 248.004 22.034 247.934 21.9551 247.88C21.8762 247.825 21.7871 247.788 21.6935 247.771L19.5991 247.379C19.4417 247.349 19.2798 247.376 19.1426 247.456C19.0055 247.535 18.902 247.662 18.8509 247.813C18.0403 250.203 15.1541 260.128 19.8491 268.722C19.9258 268.869 20.0533 268.985 20.2074 269.046C20.3615 269.107 20.5316 269.109 20.6855 269.053C20.8393 268.997 20.9662 268.885 21.0422 268.74C21.1181 268.595 21.1379 268.426 21.0977 268.265Z" fill="#F8FFFD"/>
<path fill-rule="evenodd" clip-rule="evenodd" d="M34.7517 248.644C34.9585 248.682 35.111 248.88 35.0925 249.087L34.7905 252.463C34.7792 252.589 34.7057 252.695 34.5948 252.745C34.4838 252.796 34.3502 252.784 34.239 252.714L32.6299 251.701C32.4468 251.586 32.3778 251.349 32.4756 251.173C32.5735 250.997 32.8012 250.948 32.9842 251.063L34.0925 251.761L34.3439 248.952C34.3624 248.745 34.545 248.607 34.7517 248.644Z" fill="#E17200"/>
<path opacity="0.65" d="M21.0186 270.047C20.0261 270.973 21.3059 272.313 22.2999 271.39C23.2939 270.466 22.0211 269.113 21.0186 270.047Z" fill="#F8FFFD"/>
<path opacity="0.3" d="M52.43 275.36C62.2274 266.948 63.3231 252.154 54.8774 242.318C46.4317 232.482 31.6427 231.327 21.8452 239.74C12.0478 248.152 10.9521 262.946 19.3978 272.782C27.8436 282.618 42.6326 283.772 52.43 275.36Z" fill="#1C7290"/>
<g style="mix-blend-mode:hard-light" opacity="0.85">
<ellipse cx="525.421" cy="165.577" rx="13.6487" ry="37.0464" transform="rotate(9.9765 525.421 165.577)" fill="#8CCCD3"/>
<ellipse cx="512.585" cy="238.55" rx="13.6487" ry="37.0464" transform="rotate(9.9765 512.585 238.55)" fill="#8CCCD3"/>
<path d="M288.952 46.7717C289.512 43.59 292.545 41.4644 295.727 42.0241L313.01 45.0643C316.191 45.6239 318.317 48.6569 317.757 51.8386C317.198 55.0203 314.165 57.1459 310.983 56.5862L293.7 53.5461C290.518 52.9864 288.393 49.9534 288.952 46.7717Z" fill="url(#paint3_linear_985_43240)"/>
<path d="M317.757 51.8386L308.975 101.767L297.453 99.7403L306.235 49.8119L317.757 51.8386Z" fill="url(#paint4_linear_985_43240)"/>
<path d="M276.538 93.3953C277.6 91.6116 279.655 90.6702 281.699 91.0299L331.618 99.8109C333.632 100.165 335.227 101.71 335.646 103.711L344.197 144.555C344.922 148.017 341.921 151.117 338.437 150.504L258.754 136.487C255.307 135.881 253.533 132.011 255.325 129.004L276.538 93.3953Z" fill="#FE800B"/>
<path d="M270.135 98.8939C270.77 97.8153 272.008 97.2441 273.24 97.4609L301.842 102.492C303.474 102.779 304.564 104.335 304.277 105.966L301.601 121.181C301.314 122.813 299.758 123.903 298.126 123.616L263.836 117.584C261.774 117.221 260.708 114.912 261.77 113.107L270.135 98.8939Z" fill="url(#paint5_linear_985_43240)"/>
<path d="M505.571 158.185C506.553 156.384 505.477 154.15 503.456 153.795L445.999 143.688C444.754 143.469 443.505 144.054 442.877 145.151L426.463 173.786C425.429 175.59 426.498 177.873 428.546 178.233L486.739 188.469C488.007 188.692 489.276 188.081 489.893 186.95L505.571 158.185Z" fill="#FE800B"/>
<path d="M488.026 260.13C488.172 262.081 486.442 263.647 484.515 263.308L433.126 254.269C431.762 254.029 430.74 252.886 430.652 251.504L427.869 207.613C427.746 205.674 429.47 204.132 431.383 204.468L482.262 213.418C483.613 213.656 484.631 214.78 484.734 216.149L488.026 260.13Z" fill="#FE800B"/>
<path d="M167.227 108.509L341.976 139.248L317.486 278.472L141.892 252.533L167.227 108.509Z" fill="url(#paint6_linear_985_43240)"/>
<path d="M341.016 139.079C558.013 177.25 609.871 203.2 317.486 278.472L341.016 139.079Z" fill="url(#paint7_linear_985_43240)"/>
<path d="M227.532 193.357C220.536 233.128 182.624 259.698 142.852 252.702C103.081 245.706 76.5116 207.794 83.5076 168.023C90.5035 128.251 128.416 101.682 168.187 108.678C207.958 115.674 234.528 153.586 227.532 193.357Z" fill="url(#paint8_linear_985_43240)"/>
<mask id="mask0_985_43240" style="mask-type:alpha" maskUnits="userSpaceOnUse" x="82" y="107" width="439" height="172">
<path d="M167.227 108.509L341.976 139.248L317.486 278.472L141.892 252.533L167.227 108.509Z" fill="#FFB72C"/>
<path d="M341.016 139.079C558.013 177.25 609.871 203.2 317.486 278.472L341.016 139.079Z" fill="#FFB72C"/>
<path d="M227.532 193.357C220.536 233.128 182.624 259.698 142.852 252.702C103.081 245.706 76.5116 207.794 83.5076 168.023C90.5035 128.251 128.416 101.682 168.187 108.678C207.958 115.674 234.528 153.586 227.532 193.357Z" fill="#FFB72C"/>
</mask>
<g mask="url(#mask0_985_43240)">
<rect x="66.4121" y="197.681" width="364.614" height="54.5946" transform="rotate(9.9765 66.4121 197.681)" fill="#FE800B"/>
<rect x="190.308" y="179.88" width="313.919" height="7.79923" rx="3" transform="rotate(9.9765 190.308 179.88)" fill="#FE800B"/>
<rect x="223.397" y="171.843" width="288.572" height="7.79923" rx="3" transform="rotate(9.9765 223.397 171.843)" fill="#FE800B"/>
</g>
<ellipse cx="117.282" cy="172.974" rx="38.0213" ry="58.4942" transform="rotate(9.9765 117.282 172.974)" fill="url(#paint9_linear_985_43240)"/>
<mask id="mask1_985_43240" style="mask-type:alpha" maskUnits="userSpaceOnUse" x="78" y="114" width="79" height="117">
<ellipse cx="117.282" cy="172.974" rx="38.0213" ry="58.4942" transform="rotate(9.9765 117.282 172.974)" fill="url(#paint10_linear_985_43240)"/>
</mask>
<g mask="url(#mask1_985_43240)">
<g filter="url(#filter0_d_985_43240)">
<path d="M141.402 191.889C139.873 192.118 139.011 193.968 138.255 195.039C137.902 196.121 137.796 197.57 137.985 198.692C138.102 199.383 138.405 200.046 138.523 200.734C138.633 201.368 138.723 201.964 138.978 202.563C139.285 203.284 139.378 204.062 139.654 204.792C139.953 205.579 140.239 206.413 140.421 207.234C140.773 208.831 141.4 210.305 141.908 211.854C142.406 213.377 143.054 214.855 143.628 216.348C144.147 217.698 144.594 219.398 145.865 220.227C147.023 220.983 148.831 219.839 149.656 219.085C151.017 217.84 151.938 216.244 152.903 214.696C155.972 209.77 157.997 203.407 155.507 197.82C154.854 196.355 153.945 194.887 152.459 194.146C150.897 193.368 149.404 192.456 147.741 191.899C146.384 191.446 144.856 191.373 143.447 191.583L141.402 191.889Z" fill="#543A3A"/>
<path d="M101.933 206.351C103.632 206.562 104.837 206.94 106.432 207.541C107.728 208.168 108.301 209.4 108.641 210.735C109.057 212.366 108.457 213.752 106.926 214.445C105.872 214.923 104.165 214.893 103.039 214.622C101.475 214.246 99.4952 214.26 98.1694 213.263C97.5615 212.806 96.8412 212.424 96.562 211.674C96.2863 210.934 96.0831 210.071 96.0017 209.287C95.8487 207.816 95.9477 206.58 97.444 206.06C98.8553 205.569 100.497 206.174 101.933 206.351Z" fill="url(#paint11_linear_985_43240)"/>
<path d="M140.652 198.511C139.528 198.186 138.866 197.536 137.604 197.444C134.433 198.611 135.927 202.45 137.232 204.018C137.75 204.641 138.724 204.927 139.44 205.375C140.257 205.885 141.08 206.281 141.963 206.703C143.078 207.236 144.942 207.606 146.265 207.065C147.555 206.538 149.745 205.993 149.76 204.456C149.774 202.955 148.812 201.676 147.371 200.908C145.928 200.139 144.399 199.827 142.864 199.238C142.137 198.959 141.412 198.731 140.652 198.511Z" fill="url(#paint12_linear_985_43240)"/>
<path d="M108.386 186.398C112.577 182.087 117.932 180.245 124.697 181.867C129.222 182.009 131.364 186.886 132.492 188.354C133.447 189.596 134.58 190.689 135.473 191.998C136.71 193.81 137.951 195.576 139.062 197.483C141.175 201.111 143.236 204.776 144.617 208.796C145.63 211.745 146.389 214.779 146.991 217.849C147.332 219.593 147.454 221.556 146.584 223.069C145.681 224.639 144.827 225.918 143.592 227.188C141.312 229.533 138.666 231.416 135.741 232.714C133.025 233.92 130.215 235.098 127.323 235.737C126.019 236.025 124.694 236.185 123.372 236.328C122.201 236.455 121.12 236.155 119.967 236.13C118.222 236.093 116.615 235.089 115.174 234.073C113.632 232.986 112.288 231.875 111.233 230.193C109.851 227.99 108.687 225.726 108.112 223.122C107.794 221.685 107.355 220.259 107.034 218.808C106.701 217.302 106.493 215.792 106.159 214.281C105.42 210.936 104.729 207.355 104.685 203.936C104.667 202.619 104.387 201.144 104.593 199.852C104.685 199.279 104.676 198.51 104.666 197.921C104.651 197.085 104.845 196.246 104.917 195.418C105.072 193.622 105.609 191.842 106.202 190.194C106.665 188.91 107.456 187.354 108.386 186.398Z" fill="url(#paint13_linear_985_43240)"/>
<path d="M147.351 230.333C146.637 229.137 145.367 227.046 144.697 225.94C142.808 225.983 138.963 227.735 139.773 229.994C140.153 231.052 141.001 231.87 141.386 232.943C141.779 234.039 140.121 234.816 140.389 235.942C140.999 238.503 143.53 238.336 145.368 237.175C146.539 236.436 147.353 235.445 147.938 234.205C148.182 233.689 148.334 233.216 148.348 232.641C148.354 232.374 148.306 232.136 148.216 231.887C148.033 231.377 147.597 230.746 147.351 230.333Z" fill="#D2AD76"/>
<path d="M129.837 185.812C131.955 185.777 132.452 184.08 132.91 182.318C133.082 180.672 131.661 179.824 130.262 179.748C128.608 179.658 127.11 181.178 127.162 182.851C127.18 183.444 127.151 184.25 127.644 184.661C128.181 185.109 129.104 185.824 129.837 185.812Z" fill="#AE8873"/>
<path d="M103.528 185.922C105.179 185.745 107.649 187.151 108.056 188.807C108.416 190.438 107.571 192.018 105.707 191.978C104.762 191.958 103.814 191.699 103.008 191.184C102.388 190.788 101.514 190.266 101.278 189.515C100.748 187.825 101.794 186.108 103.528 185.922Z" fill="#AE8873"/>
<path d="M114.718 174.445C118.968 173.507 124.616 174.202 126.535 178.671C126.14 179.687 125.209 179.379 124.334 179.18C123.782 179.055 123.209 179.039 122.652 178.944C122.035 178.838 121.407 178.659 120.777 178.786C118.871 179.169 108.125 183.232 106.311 183.918C106.307 182.747 105.7 180.574 106.352 179.653C107.1 178.594 107.81 177.787 108.889 177.042C110.679 175.806 112.587 174.916 114.718 174.445Z" fill="#608790"/>
<path d="M119.705 177.977C123.031 177.497 126.967 177.89 129.173 180.612C129.486 181.24 129.459 181.513 129.082 182.104C128.739 182.642 128.371 183.015 127.733 183.138C126.711 183.335 125.5 182.672 124.526 182.427C122.029 181.799 119.802 182.131 117.28 182.688C114.797 183.236 112.18 184.163 110.291 185.846C109.386 186.355 107.322 188.74 106.234 188.193C105.097 187.621 105.117 185.833 105.481 184.783C105.861 183.683 105.702 183.832 106.615 183.223C107.464 182.656 108.194 181.91 109.036 181.327C109.969 180.68 111.028 180.026 112.072 179.575C113.223 179.079 114.294 178.578 115.561 178.443C116.938 178.295 118.333 178.175 119.705 177.977Z" fill="#D2AD76"/>
<path d="M116.97 172.499C117.488 173.216 117.641 174.119 117.296 174.928C116.27 175.76 114.46 176.121 113.157 176.181C111.897 176.239 111.456 175.139 111.872 173.625C112.312 172.027 113.382 171.763 114.689 171.694C115.509 171.652 116.457 171.787 116.97 172.499Z" fill="#D2AD76"/>
<path d="M137.647 206.304C135.549 203.805 130.991 201.037 128.97 204.62C127.283 207.717 129.746 210.079 131.842 212.264C133.166 213.645 134.305 215.218 135.821 216.34C136.598 216.916 137.381 217.118 138.234 216.846C139.044 216.587 139.802 216.031 140.366 215.362C140.964 214.651 141.659 213.849 141.722 212.796C141.777 211.878 141.251 211.013 140.773 210.285C139.852 208.883 138.714 207.575 137.647 206.304Z" fill="url(#paint14_linear_985_43240)"/>
<path d="M130.639 205.261C129.827 203.842 127.755 202.469 126.825 204.064C125.635 205.148 124.905 206.835 125.028 208.654C125.175 210.809 125.556 213.253 126.322 215.281C126.632 216.1 126.965 217.287 127.446 217.985C128.052 218.866 128.518 219.333 129.451 219.525C130.937 219.831 132.598 219.835 133.676 218.586C134.508 217.621 133.89 215.513 133.632 214.346C133.316 212.915 133.011 211.496 132.59 210.1C132.106 208.494 131.468 206.709 130.639 205.261Z" fill="url(#paint15_linear_985_43240)"/>
<path d="M135.661 190.625C137.876 191.056 138.766 192.309 138.499 194.644C138.32 195.557 138.307 196.419 138.007 197.303C137.694 198.225 137.237 198.926 136.7 199.694C135.658 201.185 133.961 202.533 132.424 203.302C131.557 203.735 130.688 204.286 129.846 204.778C129.056 205.24 128.218 205.552 127.363 205.836C125.526 206.448 123.688 206.982 121.792 207.401C119.909 207.816 117.942 207.84 116.055 208.214C115.197 208.385 114.281 208.207 113.421 208.343C112.714 208.455 111.879 208.409 111.158 208.364C110.471 208.321 109.725 208.353 109.046 208.176C108.342 207.993 107.479 207.75 106.768 207.685C105.159 207.537 102.906 206.267 102.82 204.2C102.776 203.121 103.118 201.887 103.936 201.315C104.581 200.865 105.425 200.887 106.18 200.883C108.021 200.873 109.914 201.319 111.745 201.624C113.476 201.912 115.263 201.854 116.974 201.659C118.737 201.458 120.732 200.956 122.293 200.094C123.098 199.649 123.865 199.102 124.678 198.692C125.38 198.338 125.868 197.588 126.54 197.198C128.301 196.174 129.478 194.076 130.96 192.658C131.687 191.963 132.292 191.426 133.208 191.028C133.901 190.727 134.901 190.477 135.661 190.625Z" fill="url(#paint16_radial_985_43240)"/>
<path d="M130.283 199.066C129.727 197.909 128.395 196.4 127.284 196.102C126.281 196.323 125.214 196.81 124.39 197.484C123.576 198.149 122.326 199.011 122.408 200.365C122.493 201.768 122.97 202.935 123.765 204.031C124.51 205.058 125.329 206.321 126.523 206.52C127.46 206.676 128.701 206.057 129.518 205.669C130.497 205.204 131.436 203.907 131.419 202.668C131.402 201.511 130.777 200.091 130.283 199.066Z" fill="#D17A5C"/>
<path d="M111.384 192.294C110.474 191.831 108.951 191.619 108.088 192.14C107.325 193.184 108.241 193.906 109.139 194.153C110.042 194.402 110.95 194.475 111.859 194.274C112.229 194.192 112.862 193.726 112.606 193.227C112.369 192.766 111.807 192.51 111.384 192.294Z" fill="#372831"/>
<path d="M120.503 190.28C121.133 189.477 122.426 188.643 123.428 188.752C124.559 189.377 124.032 190.418 123.322 191.021C122.607 191.626 121.815 192.075 120.906 192.276C120.536 192.357 119.765 192.202 119.788 191.641C119.808 191.123 120.21 190.654 120.503 190.28Z" fill="#372831"/>
<path d="M117.763 194.239C117.228 194.025 116.477 194.262 115.938 194.466C115.232 195.307 116.568 195.983 117.402 195.295C117.709 195.041 118.378 194.486 117.763 194.239Z" fill="#372831" stroke="#372831" stroke-width="2" stroke-linecap="round"/>
<path d="M118.9 198.529C118.813 198.082 118.703 197.637 118.604 197.192C118.158 197.041 117.586 196.867 117.192 196.642C116.737 196.382 116.52 196.862 116.208 197.106C115.841 197.392 115.699 197.569 115.796 198.011C115.881 198.395 115.959 198.818 116.035 199.162C116.047 199.66 116.555 199.663 117.005 199.563L118.238 199.291C118.578 199.147 118.972 198.902 118.9 198.529Z" fill="#E0D0C1"/>
<path d="M121.679 196.383C120.383 197.655 117.505 197.611 116.793 195.829C116.73 197.563 115.084 199.014 112.611 198.055" stroke="#372831" stroke-width="1.5" stroke-linecap="round"/>
<path d="M120.328 186.272C119.567 186.44 119.152 186.839 118.555 187.392C118.253 187.671 119.542 187.849 119.964 187.712C120.542 187.525 121.136 187.218 121.548 186.71C122.14 185.98 120.562 186.22 120.328 186.272Z" fill="#372831"/>
<path d="M111.03 188.639C110.245 188.544 109.926 188.766 109.169 189.089C108.605 189.358 109.749 189.864 110.199 189.876C110.815 189.893 111.486 189.801 112.05 189.459C112.861 188.968 111.271 188.668 111.03 188.639Z" fill="#372831"/>
</g>
</g>
<path d="M107.972 133.627C95.8022 149.085 92.7153 157.97 89.9668 174.805M119.046 125.073C117.886 126.104 119.046 125.073 117.315 126.421" stroke="white" stroke-opacity="0.4" stroke-width="5" stroke-linecap="round"/>
<circle cx="278.75" cy="191.478" r="31.1969" transform="rotate(9.9765 278.75 191.478)" fill="#FE800B"/>
<circle cx="277.812" cy="190.14" r="25.4197" transform="rotate(9.9765 277.812 190.14)" fill="url(#paint17_linear_985_43240)"/>
<path d="M277.696 169.35C272.53 169.206 262.874 174.804 260.622 181.461" stroke="white" stroke-opacity="0.4" stroke-width="2" stroke-linecap="round"/>
<circle cx="356.132" cy="205.09" r="31.1969" transform="rotate(9.9765 356.132 205.09)" fill="#FE800B"/>
<circle cx="355.194" cy="203.752" r="25.4197" transform="rotate(9.9765 355.194 203.752)" fill="url(#paint18_linear_985_43240)"/>
<path d="M355.078 182.961C349.912 182.818 340.256 188.415 338.004 195.073" stroke="white" stroke-opacity="0.4" stroke-width="2" stroke-linecap="round"/>
<line x1="271.637" y1="101.798" x2="266.634" y2="109.874" stroke="#8CCCD3" stroke-linecap="round"/>
<circle cx="162.197" cy="204.631" r="3.89962" transform="rotate(9.9765 162.197 204.631)" fill="#FE800B"/>
<circle cx="215.967" cy="214.09" r="3.89962" transform="rotate(9.9765 215.967 214.09)" fill="#FE800B"/>
<circle cx="202.524" cy="211.725" r="3.89962" transform="rotate(9.9765 202.524 211.725)" fill="#FE800B"/>
<circle cx="189.082" cy="209.36" r="3.89962" transform="rotate(9.9765 189.082 209.36)" fill="#FE800B"/>
<circle cx="175.64" cy="206.996" r="3.89962" transform="rotate(9.9765 175.64 206.996)" fill="#FE800B"/>
<ellipse cx="293.754" cy="47.6162" rx="2.92471" ry="7.79923" transform="rotate(9.9765 293.754 47.6162)" fill="#FE800B"/>
<ellipse cx="291.833" cy="47.2784" rx="2.92471" ry="5.84942" transform="rotate(9.9765 291.833 47.2784)" fill="#41AFBA"/>
</g>
<defs>
<filter id="filter0_d_985_43240" x="91.9492" y="171.687" width="68.6758" height="80.9319" filterUnits="userSpaceOnUse" color-interpolation-filters="sRGB">
<feFlood flood-opacity="0" result="BackgroundImageFix"/>
<feColorMatrix in="SourceAlpha" type="matrix" values="0 0 0 0 0 0 0 0 0 0 0 0 0 0 0 0 0 0 127 0" result="hardAlpha"/>
<feOffset dy="4"/>
<feGaussianBlur stdDeviation="2"/>
<feComposite in2="hardAlpha" operator="out"/>
<feColorMatrix type="matrix" values="0 0 0 0 0 0 0 0 0 0 0 0 0 0 0 0 0 0 0.25 0"/>
<feBlend mode="normal" in2="BackgroundImageFix" result="effect1_dropShadow_985_43240"/>
<feBlend mode="normal" in="SourceGraphic" in2="effect1_dropShadow_985_43240" result="shape"/>
</filter>
<radialGradient id="paint0_radial_985_43240" cx="0" cy="0" r="1" gradientUnits="userSpaceOnUse" gradientTransform="translate(51.1458 295.162) rotate(-18.0421) scale(9.0124 12.9174)">
<stop offset="0.02" stop-color="#E17200"/>
<stop offset="1" stop-color="#CC6711"/>
</radialGradient>
<linearGradient id="paint1_linear_985_43240" x1="46.4504" y1="285.562" x2="77.0645" y2="281.447" gradientUnits="userSpaceOnUse">
<stop offset="0.23" stop-color="#AACEC4"/>
<stop offset="0.99" stop-color="#88B7A9"/>
</linearGradient>
<radialGradient id="paint2_radial_985_43240" cx="0" cy="0" r="1" gradientUnits="userSpaceOnUse" gradientTransform="translate(49.9955 273.45) rotate(-36.2606) scale(33.9886 34.1413)">
<stop offset="0.18" stop-color="#EFB1A3"/>
<stop offset="0.49" stop-color="#E17200"/>
</radialGradient>
<linearGradient id="paint3_linear_985_43240" x1="304.368" y1="43.5442" x2="294.572" y2="99.2336" gradientUnits="userSpaceOnUse">
<stop stop-color="#FFD12C"/>
<stop offset="1" stop-color="#FE800B"/>
</linearGradient>
<linearGradient id="paint4_linear_985_43240" x1="304.368" y1="43.5442" x2="294.572" y2="99.2336" gradientUnits="userSpaceOnUse">
<stop stop-color="#FFD12C"/>
<stop offset="1" stop-color="#FE800B"/>
</linearGradient>
<linearGradient id="paint5_linear_985_43240" x1="284.044" y1="99.3614" x2="280.329" y2="120.485" gradientUnits="userSpaceOnUse">
<stop stop-color="#41B1BC"/>
<stop offset="1" stop-color="#357C8E"/>
</linearGradient>
<linearGradient id="paint6_linear_985_43240" x1="310.587" y1="133.727" x2="285.253" y2="277.751" gradientUnits="userSpaceOnUse">
<stop stop-color="#FFD12C"/>
<stop offset="1" stop-color="#FE800B"/>
</linearGradient>
<linearGradient id="paint7_linear_985_43240" x1="310.587" y1="133.727" x2="285.253" y2="277.751" gradientUnits="userSpaceOnUse">
<stop stop-color="#FFD12C"/>
<stop offset="1" stop-color="#FE800B"/>
</linearGradient>
<linearGradient id="paint8_linear_985_43240" x1="310.587" y1="133.727" x2="285.253" y2="277.751" gradientUnits="userSpaceOnUse">
<stop stop-color="#FFD12C"/>
<stop offset="1" stop-color="#FE800B"/>
</linearGradient>
<linearGradient id="paint9_linear_985_43240" x1="117.282" y1="114.48" x2="117.282" y2="231.468" gradientUnits="userSpaceOnUse">
<stop stop-color="#41B1BC"/>
<stop offset="1" stop-color="#357C8E"/>
</linearGradient>
<linearGradient id="paint10_linear_985_43240" x1="117.282" y1="114.48" x2="117.282" y2="231.468" gradientUnits="userSpaceOnUse">
<stop stop-color="#41B1BC"/>
<stop offset="1" stop-color="#357C8E"/>
</linearGradient>
<linearGradient id="paint11_linear_985_43240" x1="107.015" y1="211.013" x2="94.1925" y2="209.247" gradientUnits="userSpaceOnUse">
<stop stop-color="#AD806B"/>
<stop offset="0.674683" stop-color="#C99A81"/>
</linearGradient>
<linearGradient id="paint12_linear_985_43240" x1="137.531" y1="201.855" x2="143.641" y2="202.615" gradientUnits="userSpaceOnUse">
<stop stop-color="#B0826D"/>
<stop offset="0.901042" stop-color="#C89980"/>
</linearGradient>
<linearGradient id="paint13_linear_985_43240" x1="118.814" y1="181.156" x2="130.705" y2="234.99" gradientUnits="userSpaceOnUse">
<stop stop-color="#AD806B"/>
<stop offset="1" stop-color="#C99A81"/>
</linearGradient>
<linearGradient id="paint14_linear_985_43240" x1="129.139" y1="201.466" x2="140.27" y2="214.847" gradientUnits="userSpaceOnUse">
<stop stop-color="#C16241"/>
<stop offset="0.770833" stop-color="#D17A5C"/>
</linearGradient>
<linearGradient id="paint15_linear_985_43240" x1="127.384" y1="203.448" x2="130.997" y2="219.805" gradientUnits="userSpaceOnUse">
<stop stop-color="#C16241"/>
<stop offset="0.515625" stop-color="#D17A5C"/>
</linearGradient>
<radialGradient id="paint16_radial_985_43240" cx="0" cy="0" r="1" gradientUnits="userSpaceOnUse" gradientTransform="translate(126.005 201.368) rotate(168.808) scale(22.623 61.8523)">
<stop stop-color="#C16241"/>
<stop offset="0.5" stop-color="#D88568"/>
</radialGradient>
<linearGradient id="paint17_linear_985_43240" x1="277.812" y1="164.72" x2="277.812" y2="215.56" gradientUnits="userSpaceOnUse">
<stop stop-color="#41B1BC"/>
<stop offset="1" stop-color="#357C8E"/>
</linearGradient>
<linearGradient id="paint18_linear_985_43240" x1="355.194" y1="178.332" x2="355.194" y2="229.171" gradientUnits="userSpaceOnUse">
<stop stop-color="#41B1BC"/>
<stop offset="1" stop-color="#357C8E"/>
</linearGradient>
</defs>
</svg>
