<svg width="1440" height="1676" viewBox="0 0 1440 1676" fill="none" xmlns="http://www.w3.org/2000/svg">
<g clip-path="url(#clip0_4_15556)">
<rect width="1440" height="1676" fill="white"/>
<g clip-path="url(#clip1_4_15556)">
<rect width="1440" height="9229" fill="#244556"/>
<rect x="542" y="4.2334" width="256.615" height="356.638" rx="11.8355" transform="rotate(-59.5555 542 4.2334)" fill="white"/>
<path d="M560.302 3.92831C556.578 1.73935 555.333 -3.05434 557.522 -6.7787L669.52 -197.334C671.709 -201.059 676.503 -202.304 680.227 -200.115L726.549 -172.889L606.625 31.154L560.302 3.92831Z" fill="#DCB551"/>
<circle cx="781.161" cy="-4.03087" r="87.5613" transform="rotate(-59.5555 781.161 -4.03087)" fill="#FFF1CE"/>
<rect x="542" y="4.2334" width="256.615" height="356.638" rx="11.8355" transform="rotate(-59.5555 542 4.2334)" fill="#244556" fill-opacity="0.35"/>
<rect x="752.947" y="592.433" width="278.782" height="387.445" rx="11.2058" transform="rotate(16.9488 752.947 592.433)" fill="white"/>
<path d="M758.227 610.645C759.419 606.733 763.558 604.528 767.47 605.72L999.254 676.357C1003.17 677.549 1005.37 681.688 1004.18 685.6L986.844 742.481L740.892 667.527L758.227 610.645Z" fill="#AA4245"/>
<circle cx="822.312" cy="842.983" r="95.1249" transform="rotate(16.9488 822.312 842.983)" fill="#D48F90"/>
<rect x="752.947" y="592.433" width="278.782" height="387.445" rx="11.2058" transform="rotate(16.9488 752.947 592.433)" fill="#244556" fill-opacity="0.3"/>
<rect x="836.841" y="587" width="278.782" height="387.445" rx="11.2058" transform="rotate(19.1836 836.841 587)" fill="white"/>
<path d="M841.407 605.404C842.751 601.541 846.973 599.499 850.836 600.843L1079.69 680.465C1083.55 681.809 1085.59 686.03 1084.25 689.893L1064.71 746.055L821.868 661.566L841.407 605.404Z" fill="#847AC2"/>
<circle cx="896.384" cy="840.064" r="95.1249" transform="rotate(19.1836 896.384 840.064)" fill="#CDC5FF"/>
<rect x="836.841" y="587" width="278.782" height="387.445" rx="11.2058" transform="rotate(19.1836 836.841 587)" fill="#244556" fill-opacity="0.2"/>
<path fill-rule="evenodd" clip-rule="evenodd" d="M400.058 1301.78L380.503 1266.49C374.494 1255.65 364.709 1247.39 353.009 1243.29C349.931 1242.22 346.95 1242.62 344.536 1243.95L343.165 1239.86C342.29 1239.54 341.495 1239.25 340.759 1238.97C334.488 1236.64 332.579 1235.93 323.618 1237.49C312.995 1239.33 302.254 1247.24 298.266 1250.51L300.872 1251.95C295.432 1252.98 290.081 1255.03 285.089 1258.16L283.323 1259.26C261.69 1272.83 254.306 1300.86 266.448 1323.32L269.748 1329.42C281.039 1350.31 306.932 1358.02 327.681 1347.2L311.656 1356.87L303.369 1352.3L284.264 1355.24C286.148 1358.06 291.032 1363.36 298.242 1366.7C302.816 1368.83 308.379 1371.04 312.458 1372.67C314.262 1373.39 315.776 1373.99 316.785 1374.42L316.801 1373.4C324.578 1374.67 332.653 1373.14 339.518 1368.92L386.967 1339.77C389.566 1338.18 391.852 1336.16 393.745 1333.83C397.507 1330.81 401.604 1325.57 403.679 1318.53C405.344 1312.87 403.982 1310.43 402.124 1307.1L402.124 1307.1C401.939 1306.76 401.748 1306.42 401.556 1306.07L401.554 1306.07C401.322 1304.63 400.835 1303.18 400.058 1301.78ZM336.491 1341.88L354.403 1331.07L355.386 1316.25C352.249 1326.39 345.79 1335.52 336.491 1341.88ZM357.249 1307.36L361.421 1301.92L364.911 1303.84L353.785 1283.19C357.079 1291.02 358.163 1299.33 357.249 1307.36ZM347.433 1271.4L341.776 1260.9L339.284 1262.21C342.343 1264.84 345.095 1267.91 347.433 1271.4Z" fill="#193545"/>
<path d="M439.134 1172.28C435.713 1156.78 429.025 1153.93 419.856 1148.07L395.291 1167.13C403.997 1188.4 426.858 1232.37 432.081 1224.31C438.61 1214.24 444.024 1194.44 439.134 1172.28Z" fill="#5D302E"/>
<path d="M269.956 1400.2C250.538 1401.54 233.798 1395.95 226.432 1392.14L263.929 1363.26H302.096L318.836 1394.83C310.131 1395.72 287.72 1398.97 269.956 1400.2Z" fill="#69312E"/>
<path d="M422.623 1186.6H328.88L325.532 1208.76L350.977 1263.17L410.57 1224.21L422.623 1186.6Z" fill="#643331"/>
<path d="M171.664 1093.1C191.082 1077.54 194.962 1078.45 216.389 1075.09L249.199 1105.27L219.067 1150.99H132.69C137.377 1139.27 151.062 1109.61 171.664 1093.1Z" fill="#723B39"/>
<path d="M286.05 1398.13L313.759 1395.5C330.33 1393.92 345.09 1384.36 353.308 1369.88L428.403 1237.59C436.347 1223.59 438.883 1207.17 435.532 1191.43C434.575 1186.94 429.83 1184.37 425.542 1186.02L401.284 1195.34C387.029 1200.82 375.084 1211.02 367.443 1224.24L275.993 1382.47C271.734 1389.84 277.579 1398.94 286.05 1398.13Z" fill="#823B38"/>
<path d="M261.986 1067.38L212.839 1075.65C199.875 1077.83 196.376 1094.82 207.422 1101.94L353.83 1196.4C367.145 1204.98 383.819 1206.52 398.477 1200.5L421.667 1190.97C439.389 1183.7 441.474 1159.43 425.253 1149.24L310.4 1077.06C295.995 1068 278.764 1064.56 261.986 1067.38Z" fill="#9D4D4A"/>
<path d="M337.072 1184.77L212.61 1104.84C190.357 1090.54 160.658 1098.01 147.814 1121.13L79.0473 1244.91C66.6477 1267.23 73.7086 1295.35 95.1831 1309.16L220.035 1389.46C240.791 1402.81 268.493 1396.08 280.816 1374.7L352.859 1249.7C365.761 1227.31 358.813 1198.74 337.072 1184.77Z" fill="#BD5F5B"/>
<g filter="url(#filter0_i_4_15556)">
<ellipse cx="190.944" cy="1185.92" rx="22.0964" ry="22.1666" fill="#F3F5F4"/>
</g>
<g filter="url(#filter1_i_4_15556)">
<ellipse cx="226.311" cy="1306.34" rx="22.0964" ry="22.1666" fill="#F3F5F4"/>
</g>
<g filter="url(#filter2_i_4_15556)">
<ellipse cx="12.5864" cy="12.6163" rx="12.5864" ry="12.6163" transform="matrix(0.935101 -0.354382 -0.352422 0.935841 385.95 1242.22)" fill="#DADADA"/>
</g>
<g filter="url(#filter3_i_4_15556)">
<ellipse cx="12.5864" cy="12.6163" rx="12.5864" ry="12.6163" transform="matrix(0.935101 -0.354382 -0.352422 0.935841 359.347 1289.25)" fill="#DADADA"/>
</g>
<g filter="url(#filter4_i_4_15556)">
<ellipse cx="12.5864" cy="12.6163" rx="12.5864" ry="12.6163" transform="matrix(0.935101 -0.354382 -0.352422 0.935841 334.82 1336.1)" fill="#DADADA"/>
</g>
<g filter="url(#filter5_i_4_15556)">
<ellipse cx="11.2739" cy="22.114" rx="11.2739" ry="22.114" transform="matrix(0.475962 -0.879466 0.878156 0.478374 303.634 1127.1)" fill="#F3F5F4"/>
</g>
<path opacity="0.5" fill-rule="evenodd" clip-rule="evenodd" d="M498.804 1368.91C498.971 1368.76 499.141 1368.6 499.314 1368.45C498.739 1368.4 498.165 1368.33 497.593 1368.23C498.001 1368.45 498.404 1368.68 498.804 1368.91ZM542.955 1325.39C543.125 1325.49 543.29 1325.59 543.45 1325.69C549.313 1328.47 556.308 1336.51 558.529 1342.56L557.666 1342.79C559.024 1343.9 560.2 1345.29 561.105 1346.94L572.987 1368.59C577.348 1376.53 575.679 1386.44 568.954 1392.51L547.709 1411.72C546.214 1413.07 544.511 1414 542.729 1414.54L543.612 1415.19C538.527 1420.07 526.756 1420.12 523.284 1419.27C522.839 1419.16 522.487 1418.75 522.212 1418.12C520.941 1418.52 519.526 1418.62 518.042 1418.31L505.191 1415.58C495.668 1413.56 487.544 1407.4 483.041 1398.77L470.022 1373.81C469.555 1372.91 469.231 1371.95 469.062 1370.96C466.883 1363.42 468.067 1355.46 472.032 1348.99C473.005 1346.72 474.509 1344.67 476.457 1343.05L494.79 1327.75C502.533 1321.29 512.83 1318.77 522.68 1320.94L542.955 1325.39Z" fill="#142E3D"/>
<path d="M529.277 1412.55L532.001 1412.33L535.052 1388.68H495.387L498.14 1394.54C503.739 1406.46 516.155 1413.64 529.277 1412.55Z" fill="#4A6276"/>
<path d="M495.803 1306.76C500.946 1300.22 513.181 1293.78 521.461 1292.76L522.57 1327L509.811 1329.17C504.448 1321.75 493.686 1309.44 495.803 1306.76Z" fill="#536E85"/>
<path d="M527.921 1351.63C530.084 1349.42 542.037 1343.17 547.743 1340.04L564.178 1362.87L548.644 1374.79L538.283 1377C533.928 1369.46 525.759 1353.83 527.921 1351.63Z" fill="#536E85"/>
<path d="M607.31 1358.93C609.391 1354.85 612.78 1340.19 608.142 1332.43L581.93 1354.72C581.93 1354.72 605.23 1363.01 607.31 1358.93Z" fill="#5F7E98"/>
<path d="M535.053 1356.11L514.167 1311.72C510.44 1303.8 514.738 1294.43 523.172 1292.08L562.664 1281.12C571.365 1278.7 580.59 1282.55 584.988 1290.44L607.195 1330.27C611.292 1337.62 607.464 1346.87 599.372 1349.17L550.424 1363.1C544.28 1364.85 537.773 1361.89 535.053 1356.11Z" fill="#95AABC"/>
<path d="M574.128 1401.98L534.614 1412.07C532.894 1412.51 531.099 1412.56 529.358 1412.22L528.706 1412.09C522.146 1410.8 518.779 1403.46 522.084 1397.65L531.334 1381.39C537.097 1371.26 546.598 1363.79 557.802 1360.58L597.095 1349.33C603.831 1347.4 609.701 1354.31 606.712 1360.65L595.555 1384.3C591.406 1393.09 583.55 1399.58 574.128 1401.98Z" fill="#7E98AE"/>
<path d="M536.649 1359.28L513.492 1309.88C510.159 1302.77 500.664 1301.35 495.387 1307.16L481.977 1335.05C477.579 1344.19 477.689 1354.86 482.274 1363.91L498.468 1395.88C500.993 1400.87 505.638 1404.44 511.103 1405.61L512.03 1405.8H514.206C516.474 1405.8 518.578 1404.63 519.764 1402.69L535.665 1376.79C538.919 1371.49 539.289 1364.91 536.649 1359.28Z" fill="#5F7D97"/>
<g filter="url(#filter6_i_4_15556)">
<ellipse cx="5.84424" cy="5.77608" rx="5.84424" ry="5.77608" transform="matrix(0.901895 -0.431954 0.493295 0.869862 565.179 1302.48)" fill="#7B95AC"/>
<ellipse cx="5.84424" cy="5.77608" rx="5.84424" ry="5.77608" transform="matrix(0.901895 -0.431954 0.493295 0.869862 574.565 1323.17)" fill="#7B95AC"/>
<ellipse cx="5.84424" cy="5.77608" rx="5.84424" ry="5.77608" transform="matrix(0.901895 -0.431954 0.493295 0.869862 547.48 1308.62)" fill="#7B95AC"/>
<ellipse cx="5.84424" cy="5.77608" rx="5.84424" ry="5.77608" transform="matrix(0.901895 -0.431954 0.493295 0.869862 556.868 1329.31)" fill="#7B95AC"/>
<ellipse cx="5.84424" cy="5.77608" rx="5.84424" ry="5.77608" transform="matrix(0.901895 -0.431954 0.493295 0.869862 527.563 1314.76)" fill="#7B95AC"/>
<ellipse cx="5.84424" cy="5.77608" rx="5.84424" ry="5.77608" transform="matrix(0.901895 -0.431954 0.493295 0.869862 536.95 1335.45)" fill="#7B95AC"/>
</g>
<g filter="url(#filter7_i_4_15556)">
<ellipse cx="5.0618" cy="5.00388" rx="5.0618" ry="5.00388" transform="matrix(0.47428 -0.838104 0.821611 0.637087 485.816 1348.26)" fill="#4A6276"/>
<ellipse cx="4.69552" cy="4.95092" rx="4.69552" ry="4.95092" transform="matrix(0.47428 -0.838104 0.821611 0.637087 501.627 1357.42)" fill="#4A6276"/>
<ellipse cx="4.69552" cy="4.95092" rx="4.69552" ry="4.95092" transform="matrix(0.47428 -0.838104 0.821611 0.637087 518.27 1367.21)" fill="#4A6276"/>
</g>
<g filter="url(#filter8_i_4_15556)">
<ellipse cx="6.65657" cy="6.54998" rx="6.65657" ry="6.54998" transform="matrix(0.997874 -0.0651713 -0.462558 0.886589 551.376 1371.35)" fill="#607F9A"/>
<ellipse cx="6.65657" cy="6.54998" rx="6.65657" ry="6.54998" transform="matrix(0.997874 -0.0651713 -0.462558 0.886589 580.224 1380.04)" fill="#607F9A"/>
</g>
<path fill-rule="evenodd" clip-rule="evenodd" d="M498.713 1395.48C499.589 1397.21 500.722 1398.77 502.055 1400.12C508.498 1408.39 518.773 1413.04 529.522 1412.15L531.164 1412.01C532.403 1412.09 533.65 1411.97 534.859 1411.66L574.373 1401.58C583.794 1399.17 591.651 1392.69 595.8 1383.89L606.957 1360.24C607.225 1359.67 607.421 1359.1 607.553 1358.53L607.555 1358.53C609.63 1354.46 613.006 1339.87 608.426 1332.1C608.172 1331.34 607.845 1330.6 607.44 1329.87L585.232 1290.04C580.835 1282.15 571.61 1278.3 562.909 1280.72L523.416 1291.68C522.726 1291.87 522.064 1292.11 521.432 1292.39C513.211 1293.51 501.289 1299.81 496.147 1306.23C495.971 1306.4 495.8 1306.58 495.632 1306.76L482.222 1334.64C477.824 1343.79 477.934 1354.46 482.519 1363.51L498.713 1395.48Z" fill="#193545" fill-opacity="0.3"/>
<path opacity="0.7" d="M-4.89384 -347.671L689.586 173.064C690.706 173.904 691.096 175.407 690.527 176.685L645.389 278.005C644.859 279.194 643.623 279.906 642.329 279.767L-223.532 186.925C-225.518 186.712 -226.745 184.655 -225.989 182.806L-9.47014 -346.407C-8.72637 -348.225 -6.46531 -348.849 -4.89384 -347.671Z" fill="#142E3D"/>
<g filter="url(#filter9_i_4_15556)">
<path d="M682.75 238.201C689.414 241.726 694.046 249.532 689.923 257.327C685.8 265.122 674.659 266.676 667.995 263.151C661.331 259.626 661.667 252.357 665.79 244.562C669.913 236.767 676.086 234.676 682.75 238.201Z" fill="#9A765C"/>
<path d="M706.318 186.748C712.982 190.273 717.614 198.078 713.491 205.873C709.368 213.668 698.227 215.222 691.563 211.697C684.899 208.172 685.235 200.903 689.358 193.108C693.481 185.314 699.654 183.223 706.318 186.748Z" fill="#9A765C"/>
<path d="M680.731 159.494C700.977 168.587 712.8 199.983 699.047 230.608C685.293 261.233 651.172 279.489 630.926 270.397C610.68 261.304 605.416 229.107 619.169 198.482C632.923 167.858 660.485 150.402 680.731 159.494Z" fill="#B18D71"/>
<path d="M629.129 275.493C627.102 271.384 631.334 262.372 631.808 261.64C633.084 258.046 648.972 252.929 652.545 258.145C657.725 265.709 666.153 267.837 654.088 276.256C648.054 280.466 633.506 284.365 629.129 275.493Z" fill="#9A765C"/>
<path d="M674.234 160.822L674.235 160.832C673.64 164.011 686.294 176.093 688.763 172.319C692.987 165.864 694.29 170.246 694.629 163.806C694.961 157.499 684.281 150.86 677.296 155.356C674.075 157.429 674.199 160.066 674.234 160.822Z" fill="#9A765C"/>
<path d="M658.264 149.663C686.515 167.199 686.845 185.767 674.382 216.036C657.932 249.306 628.49 257.021 606.114 247.553C579.136 229.675 572.302 210.517 587.614 179.548C604.064 146.278 636.171 138.739 658.264 149.663Z" fill="#C6A083"/>
<path d="M590.507 132.183C585.296 130.746 580.75 125.365 581.925 121.299C583.1 117.232 591.109 119.072 593.444 113.104C594.356 110.181 594.621 101.473 591.417 93.6067C588.213 85.74 587.392 80.7172 589.484 78.9493C592.947 75.4082 603.338 82.6127 608.502 90.5445C610.932 94.2768 617.177 102.703 618.166 92.5233C619.155 82.3433 621.938 81.3442 626.608 87.2351C638.99 108.003 645.235 148.463 642.691 153.565C630.186 178.638 617.86 171.47 617.643 166.121C617.293 161.704 615.051 150.975 608.891 143.392C602.731 135.81 596.985 134.394 590.507 132.183Z" fill="#DABDA7"/>
<path d="M556.63 201.409C552.315 197.896 545.106 197.295 542.413 200.708C539.72 204.121 546.043 209.742 542.455 215.264C540.56 217.774 533.449 223.196 524.966 225.205C516.483 227.214 511.798 229.523 511.573 232.334C510.686 237.353 522.911 241.769 532.62 241.365C537.188 241.176 547.955 241.383 540.047 248.291C532.139 255.199 532.968 258.13 540.677 258.53C565.416 256.519 605.389 235.819 605.667 232.42C619.128 206.96 608.285 202.806 601.181 203.911C597.619 204.014 586.987 210.78 576.975 210.139C566.963 209.498 562.347 205.523 556.63 201.409Z" fill="#DABDA7"/>
<path d="M678.838 180.534C687.762 188.102 686.553 201.105 678.827 218.479C670.89 234.493 660.839 241.158 649.625 239.572C642.169 238.517 643.795 221.616 652.558 204.979C661.322 188.341 670.547 175.116 678.838 180.534Z" fill="#E8D5C7"/>
<path d="M661.633 210.378C659.286 212.345 658.324 212.062 657.207 211.064C656.345 210.294 658.711 208.825 659.816 208.284C659.511 207.037 659.551 204.22 660.53 204.4C661.906 204.653 663.805 205.663 662.608 209.01C662.417 209.545 662.069 210.013 661.633 210.378Z" fill="#3F3D3B"/>
<path d="M660.199 208.108C660.082 208.158 659.953 208.216 659.816 208.284M659.816 208.284C658.711 208.825 656.345 210.294 657.207 211.064C658.324 212.062 659.286 212.345 661.633 210.378C662.069 210.013 662.417 209.545 662.608 209.01C663.805 205.663 661.906 204.653 660.53 204.4C659.551 204.22 659.511 207.037 659.816 208.284Z" stroke="#3F3D3B" stroke-width="1.05003"/>
<line y1="-0.677929" x2="6.57178" y2="-0.677929" transform="matrix(0.922884 0.385078 -0.442054 0.896988 661.748 210.37)" stroke="#3F3D3B" stroke-width="1.35586"/>
<path d="M668.183 212.762L668.629 217.35" stroke="#3F3D3B" stroke-width="1.35586" stroke-linecap="round"/>
<path d="M668.296 211.918L672.895 209.392" stroke="#3F3D3B" stroke-width="1.35586" stroke-linecap="round"/>
<ellipse cx="3.04328" cy="2.5921" rx="3.04328" ry="2.5921" transform="matrix(0.950017 0.312199 -0.296138 0.955145 636.592 218.15)" fill="#3F3D3B"/>
<ellipse cx="3.04547" cy="2.73322" rx="3.04547" ry="2.73322" transform="matrix(0.848554 0.529108 -0.514763 0.857333 656.588 180.905)" fill="#3F3D3B"/>
<path d="M641.412 146.871C630.189 150.138 626.924 169.758 629.159 170.74C648.345 169.432 656.009 145.182 649.471 140.989C647.485 141.804 652.636 143.604 641.412 146.871Z" fill="#9A765C"/>
<path d="M640.395 146.408C629.257 149.938 625.548 170.631 629.158 170.74C646.422 167.119 654.712 144.079 649.552 140.7C647.588 141.561 651.533 142.877 640.395 146.408Z" fill="#C6A083"/>
<path d="M594.005 234.063C591.87 221.765 609.974 208.938 612.037 210.577C619.975 229.481 599.347 248.788 591.991 244.644C591.851 242.351 596.139 246.36 594.005 234.063Z" fill="#9A765C"/>
<path d="M593.05 233.325C591.221 220.979 610.187 207.196 612.038 210.578C616.728 228.797 597.616 248.101 591.739 244.865C591.656 242.57 594.879 245.671 593.05 233.325Z" fill="#C6A083"/>
<path d="M681.44 219.303C674.458 234.665 677.121 249.402 679.325 254.85C685.937 255.749 696.251 244.64 702.175 226.973C708.71 207.481 707.781 193.013 703.126 190.897C698.806 193.965 688.421 203.942 681.44 219.303Z" fill="#DDC4B2"/>
</g>
<path d="M-138.987 639.818L684.991 546.228C686.205 546.09 687.382 546.703 687.965 547.777L764.525 688.784C765.332 690.271 764.751 692.13 763.241 692.892L-115.574 1136.09C-117.517 1137.07 -119.823 1135.72 -119.92 1133.55L-141.644 642.93C-141.714 641.355 -140.553 639.996 -138.987 639.818Z" fill="#142E3D" fill-opacity="0.7"/>
<g filter="url(#filter10_i_4_15556)">
<path d="M782.785 618.217C790.692 617.798 799.18 624.271 799.861 637.129C800.542 649.986 791.485 660.092 783.578 660.511C775.671 660.93 771.909 651.504 771.228 638.646C770.547 625.788 774.878 618.636 782.785 618.217Z" fill="#876F5E"/>
<path d="M743.985 543.489C750.458 538.929 761.545 540.543 769.809 552.274C778.074 564.005 776.413 578.279 769.94 582.84C763.467 587.4 754.634 580.519 746.369 568.788C738.105 557.057 737.513 548.049 743.985 543.489Z" fill="#876F5E"/>
<path d="M764.304 709.469C758.108 708.138 751.808 705.926 751.28 704.953C762.127 698.341 772.243 675.926 774.359 669.503C785.481 675.33 784.089 689.359 782.797 691.947C778.51 698.191 770.5 710.799 764.304 709.469Z" fill="#876F5E"/>
<path d="M700.781 524.522C706.494 527.384 708.987 535.63 708.934 536.812C697.107 535.554 678.188 548.445 673.388 552.643C667.382 540.442 672.76 531.707 678.379 529.398C684.816 526.753 695.573 521.914 700.781 524.522Z" fill="#876F5E"/>
<path d="M676.882 543.373C703.131 523.197 748.136 532.787 772.17 576.644C796.203 620.5 790.165 682.015 763.916 702.191C737.667 722.368 696.904 703.171 672.871 659.315C648.837 615.459 650.633 563.55 676.882 543.373Z" fill="#A68B75"/>
<path d="M755.011 615.119C761.977 641.29 776.658 663.309 784.678 667.044C793.409 660.256 797.715 627.085 787.206 599.481C775.612 569.028 760.843 549.955 753.224 553.006C751.148 561.7 748.045 588.948 755.011 615.119Z" fill="#C2A28A"/>
<path d="M663.773 549.848C696.247 539.31 721.652 555.542 743.441 597.908C765.371 647.313 756.052 695.838 729.077 704.277C697.292 712.068 657.07 704.876 635.14 655.471C613.21 606.066 636.392 562.002 663.773 549.848Z" fill="#C2A28A"/>
<path d="M729.592 576.119C740.236 572.876 758.32 586.821 765.154 609.257C771.988 631.693 766.013 659.338 754.728 658.6C743.915 657.894 737.039 654.884 727.637 620.586C716.676 598.038 719.433 581.049 729.592 576.119Z" fill="#E8D5C7"/>
<ellipse cx="3.38833" cy="3.41718" rx="3.38833" ry="3.41718" transform="matrix(0.827815 -0.561001 0.471247 0.882002 721.217 650.312)" fill="#3F3D3B"/>
<ellipse cx="3.62014" cy="3.41718" rx="3.62014" ry="3.41718" transform="matrix(0.996108 -0.0881362 -0.0166401 0.999862 701.558 585.517)" fill="#3F3D3B"/>
<path d="M628.481 575.7C638.709 557.03 655.429 561.754 662.51 566.45C649.125 584.527 647.93 600.292 649.006 605.914C637.902 603.622 618.252 594.37 628.481 575.7Z" fill="#DAB9A0"/>
<path d="M665.728 700.505C650.749 685.378 660.043 670.699 666.563 665.25C680.075 683.233 694.844 688.873 700.54 689.445C695.177 699.434 680.708 715.632 665.728 700.505Z" fill="#DAB9A0"/>
<path d="M639.041 577.579C643.744 569.576 654.626 569.219 659.332 571.13C650.17 584.856 649.046 596.31 648.731 599.514L648.726 599.574C643.663 597.88 629.661 593.543 639.041 577.579Z" fill="#3F3D3B"/>
<path d="M675.559 695.192C684.163 699.223 693.636 693.172 696.545 688.807C680.855 682.535 673.317 673.493 671.207 670.963L671.168 670.916C667.83 675.306 658.398 687.152 675.559 695.192Z" fill="#3F3D3B"/>
<path d="M734.672 619.208L750.556 612.364" stroke="#3F3D3B" stroke-width="2.20564"/>
<path d="M751.456 612.938L755.593 617.34" stroke="#3F3D3B" stroke-width="2.20564" stroke-linecap="round"/>
<path d="M750.883 611.95L753.262 605.106" stroke="#3F3D3B" stroke-width="2.20564" stroke-linecap="round"/>
<path d="M735.985 612.281C738.247 612.099 741.219 614.004 742.102 616.616C742.985 619.228 742.3 622.37 739.87 623.773C736.969 625.448 735.52 622.959 734.448 619.785C733.375 616.612 732.812 613.354 735.985 612.281Z" fill="#3F3D3B"/>
</g>
<rect x="1497.56" y="867.377" width="274.181" height="381.05" rx="11.1458" transform="rotate(163.01 1497.56 867.377)" fill="white"/>
<path d="M1483.23 855.337C1484.41 859.227 1482.22 863.345 1478.33 864.534L1250.58 934.121C1246.69 935.31 1242.57 933.12 1241.39 929.229L1224.32 873.378L1466.16 799.485L1483.23 855.337Z" fill="#558EAB"/>
<circle cx="1303.39" cy="701.031" r="93.555" transform="rotate(163.01 1303.39 701.031)" fill="#BBD9ED"/>
<rect x="1497.56" y="867.377" width="274.181" height="381.05" rx="11.1458" transform="rotate(163.01 1497.56 867.377)" fill="#244556" fill-opacity="0.2"/>
<path d="M1494.06 1563.25L1259.19 706.405C1258.85 705.141 1259.36 703.798 1260.46 703.089L1321.47 663.85C1322.5 663.189 1323.82 663.217 1324.82 663.92L2066.35 1186.28C2068.08 1187.5 2068.04 1190.07 2066.27 1191.24L1498.61 1564.96C1496.91 1566.08 1494.6 1565.22 1494.06 1563.25Z" fill="#142E3D" fill-opacity="0.7"/>
<g filter="url(#filter11_i_4_15556)">
<ellipse cx="10.9655" cy="9.93617" rx="10.9655" ry="9.93617" transform="matrix(0.631327 -0.775517 0.803384 0.595461 1256.3 680.472)" fill="#A3856C"/>
<ellipse cx="11.97" cy="9.70575" rx="11.97" ry="9.70575" transform="matrix(0.938938 -0.344086 0.373326 0.9277 1289.79 651.301)" fill="#A3856C"/>
<path d="M1318.11 652.889C1344.63 655.925 1342.83 666.677 1344.16 701.287C1336.75 727.917 1326.9 735.186 1300.21 734.42C1273.69 731.384 1252.81 726.666 1256.26 699.238C1259.71 671.811 1291.59 649.853 1318.11 652.889Z" fill="#C2A28A"/>
<path d="M1344.74 725.932C1338.82 747.377 1318.23 748.133 1309.29 743.533C1306.33 742.01 1300.21 737.648 1309.29 736.661C1318.36 735.674 1335.85 724.244 1338.96 719.752C1342.08 715.26 1345.84 721.809 1344.74 725.932Z" fill="#876B57"/>
<ellipse cx="34.3982" cy="42.9571" rx="34.3982" ry="42.9571" transform="matrix(-0.581128 -0.813813 0.838364 -0.545112 1292.48 755.479)" fill="#95383A"/>
<ellipse cx="26.5389" cy="33.1423" rx="26.5389" ry="33.1423" transform="matrix(-0.581128 -0.813813 0.838364 -0.545112 1296.35 748.586)" fill="#AA4245"/>
<path d="M1256.09 721.925C1259.72 726.651 1265.83 723.607 1267.68 721.916C1262.9 717.095 1263.31 712.945 1264.06 710.011C1260.33 706.383 1255.44 707.809 1254.27 710.018C1253.36 712.018 1252.46 717.198 1256.09 721.925Z" fill="#A3856C"/>
<path d="M1336.51 658.833C1330.47 657.814 1328.25 664.05 1328.15 666.489C1335.09 666.817 1337.8 670.085 1339.39 672.699C1344.71 672.859 1347.21 668.6 1346.46 666.235C1345.66 664.192 1342.56 659.852 1336.51 658.833Z" fill="#A3856C"/>
<path d="M1333.24 695.805C1330.87 698.572 1328.14 697.783 1327.06 697.043C1330.04 693.964 1330.33 688.907 1330.11 686.764C1332.14 688.625 1335.61 693.039 1333.24 695.805Z" fill="#C2A28A"/>
<path d="M1288.34 727.701C1284.62 727.234 1283.89 724.597 1283.98 723.338C1288.29 724.134 1292.95 721.71 1294.74 720.398C1294.15 723.027 1292.05 728.168 1288.34 727.701Z" fill="#C2A28A"/>
</g>
<g filter="url(#filter12_d_4_15556)">
<path d="M1739.75 486.019L942.366 666.703C935.96 668.154 929.278 667.158 923.775 663.929L916.458 659.637C910.251 655.996 905.89 650.118 904.336 643.3L741.042 -73.361L1739.75 486.019Z" fill="#16303F" fill-opacity="0.3"/>
<path d="M1745.96 473.813L934.99 657.577C932.302 658.186 929.505 657.52 927.495 655.791L903.227 634.923L742.365 -111.534L1745.96 473.813Z" fill="#433F3F"/>
<path d="M1653.19 474.483L919.155 640.813C910.056 642.875 901.118 637.593 899.172 629.004L731.741 -109.89C729.788 -118.509 735.617 -127.188 744.747 -129.257L1478.78 -295.588C1487.88 -297.65 1496.82 -292.367 1498.76 -283.779L1666.2 455.116C1668.15 463.735 1662.32 472.414 1653.19 474.483Z" fill="#70605A"/>
<rect x="762.027" y="-125.938" width="752.522" height="752.522" rx="8.72109" transform="rotate(-12.7674 762.027 -125.938)" fill="#F3F5F4"/>
<path d="M1582.9 84.0656L1217.31 166.907L1237.66 256.704L1603.25 173.862L1582.9 84.0656Z" fill="#558EAB"/>
<path d="M1036.36 -185.374L1121.35 189.711L1215.76 168.32L1129.39 -212.835L1036.36 -185.374Z" fill="#DCB551"/>
<path d="M1586.6 84.4053L839.347 253.729" stroke="#70605A" stroke-width="7.05765"/>
<path d="M1607.05 174.658L1237.75 258.339" stroke="#70605A" stroke-width="7.05765"/>
<path d="M1299.97 542.727L1129.86 -207.967" stroke="#70605A" stroke-width="7.05765"/>
<path d="M1118.59 190.491L1033.26 -186.078" stroke="#70605A" stroke-width="7.05765"/>
<path fill-rule="evenodd" clip-rule="evenodd" d="M1071.41 344.081L1054.79 369.742L1023.27 349.785L1063.09 288.319L1118.28 323.264L1127.78 308.363L1125.71 297.979L1125.63 297.936L1125.64 297.92L1054.45 252.848L991.917 349.381L992.023 349.449L993.96 359.208L1065.59 404.599L1104.97 343.019L1103 333.068L1102.9 333.026L1103.03 332.818L1061.64 306.609L1051.24 322.651L1051.49 322.809L1053.52 332.996L1071.41 344.081ZM1081.42 406.45L1081.61 406.568L1083.5 416.087L1156.04 462.263L1218.27 365.504L1216.25 355.337L1216.27 355.303L1144.14 309.636L1081.42 406.45ZM1154.14 349.144L1117.97 404.982L1146.98 423.351L1183.15 367.513L1154.14 349.144ZM922.153 353.988L921.945 353.547L980.522 389.318L988.964 409.409L1122.58 491.004L1128.27 481.901L1173.13 529.238L1173.47 529.543L1175.45 539.494L1112.41 520.976L1110.44 511.025L1110.64 511.066L1110.14 510.918L1111.57 508.628L984.338 430.935L962.027 433.033L902.985 397.051L901.02 387.15L900.962 387.115L901.012 387.112L901.01 387.1L901.055 387.11L934.382 385.179L923.795 363.69L921.82 353.739L922.153 353.988Z" fill="#CBD0CE"/>
<path fill-rule="evenodd" clip-rule="evenodd" d="M1060.66 279.836L1115.86 314.782L1125.35 299.881L1123.29 289.497L1054.52 254.513L989.581 340.885L991.534 350.726L1063.16 396.117L1102.55 334.537L1100.57 324.586L1061.7 308.273L1049.03 314.13L1051.09 324.514L1075.45 339.604L1054.85 371.406L1016.91 347.381L1060.66 279.836ZM1144.2 311.302L1079.18 398.088L1081.07 407.607L1153.61 453.784L1215.84 357.024L1213.81 346.827L1144.2 311.302ZM1151.71 340.665L1111.6 402.581L1147.04 425.017L1187.15 363.101L1151.71 340.665ZM1122.64 492.671L1128.33 483.567L1171.05 521.062L1173.02 531.014L1109.98 512.496L1108.01 502.544L1115.53 504.05L981.911 422.454L959.6 424.552L900.558 388.571L898.582 378.619L936.884 386.703L921.368 355.209L919.393 345.258L980.583 390.984L989.024 411.075L1122.64 492.671Z" fill="#964143"/>
<path d="M1058.18 269.692L1113.37 304.637L1123.21 289.44L1052.03 244.368L989.49 340.901L1060.68 385.973L1100.6 324.338L1059.21 298.129L1048.82 314.171L1072.96 329.459L1052.36 361.262L1014.42 337.237L1058.18 269.692Z" fill="#D04E51"/>
<path fill-rule="evenodd" clip-rule="evenodd" d="M1141.72 301.155L1079 397.969L1151.12 443.637L1213.84 346.823L1141.72 301.155ZM1149.23 330.518L1109.12 392.434L1144.55 414.87L1184.66 352.954L1149.23 330.518Z" fill="#D04E51"/>
<path d="M1125.85 473.421L1120.16 482.524L986.537 400.928L978.096 380.837L919.519 345.066L934.397 376.556L898.536 378.634L957.113 414.405L979.424 412.307L1113.04 493.903L1107.71 502.437L1170.92 520.992L1125.85 473.421Z" fill="#D04E51"/>
</g>
<path fill-rule="evenodd" clip-rule="evenodd" d="M1381.36 228.238L1380.23 221.713L1385.96 216.333C1386.84 215.516 1386.8 214.121 1385.89 213.348L1331.11 166.952C1330.38 166.331 1329.31 166.319 1328.56 166.923L1290.63 197.631L1290.31 197.369L1289.59 198.474L1289.45 198.589L1289.49 198.624L1259.16 245.333C1258.6 246.197 1258.79 247.347 1259.6 247.988L1317.39 293.916C1318.29 294.631 1319.6 294.442 1320.26 293.502L1322.8 289.911L1323.79 290.652C1324.26 291 1324.92 290.876 1325.23 290.383L1325.53 289.915C1325.71 289.872 1325.89 289.773 1326.04 289.614L1381.11 229.082C1381.32 228.854 1381.41 228.542 1381.36 228.238Z" fill="#244556" fill-opacity="0.3"/>
<path d="M1307.33 278.199L1319.64 287.347C1320.11 287.695 1320.77 287.571 1321.08 287.078L1330.8 271.66C1331.29 270.884 1330.57 269.914 1329.68 270.165L1307.66 276.435C1306.86 276.662 1306.67 277.705 1307.33 278.199Z" fill="#6F413E"/>
<path d="M1377.21 224.934L1375.19 213.273C1375.07 212.597 1374.32 212.237 1373.72 212.567L1338.06 232.098C1337.87 232.204 1337.72 232.37 1337.63 232.571L1318.24 276.442C1318.15 276.638 1318.13 276.858 1318.18 277.067L1320.17 285.857C1320.35 286.646 1321.34 286.907 1321.88 286.309L1376.96 225.777C1377.17 225.549 1377.26 225.238 1377.21 224.934Z" fill="#8D514E"/>
<path d="M1348.43 244.341L1285.3 195.284L1326.45 166.752C1327.19 166.239 1328.18 166.284 1328.87 166.861L1382.81 211.96C1383.76 212.755 1383.76 214.213 1382.82 215.017L1348.43 244.341Z" fill="#BD6F6F"/>
<path d="M1316.11 290.198L1348.43 244.341L1286.16 194.064L1255.01 242.028C1254.45 242.893 1254.64 244.042 1255.44 244.683L1313.23 290.611C1314.13 291.327 1315.45 291.137 1316.11 290.198Z" fill="#9D5F5B"/>
<path d="M1322.68 212.863C1317.97 209.508 1311.43 209.732 1307.94 214.345C1304.46 218.945 1306.01 225.236 1310.46 228.906C1314.96 232.613 1321.55 232.851 1325.38 228.464C1329.46 223.81 1327.72 216.449 1322.68 212.863Z" fill="#AE6763"/>
<path d="M1322.32 210.783C1317.61 207.427 1311.07 207.652 1307.58 212.265C1304.1 216.865 1305.65 223.156 1310.1 226.826C1314.6 230.533 1321.18 230.771 1325.02 226.384C1329.09 221.73 1327.36 214.369 1322.32 210.783Z" fill="#CF7D7D"/>
<path fill-rule="evenodd" clip-rule="evenodd" d="M1138.18 65.1958L1140.78 60.4265L1145.23 61.0527C1146.47 61.2279 1147.57 60.2273 1147.5 58.9732L1144.11 -9.57226C1144.05 -10.6133 1143.21 -11.4402 1142.17 -11.4723L1093.25 -12.9802L1093.25 -12.9796L1052.08 -0.327509C1051.19 -0.0534329 1050.61 0.800791 1050.68 1.73121L1055.5 67.1497C1055.59 68.4626 1056.91 69.3256 1058.15 68.8902L1063.23 67.1097L1064.02 72.5494C1064.18 73.6122 1065.14 74.3637 1066.21 74.2518L1136.41 66.8955C1137.35 66.7978 1138.06 66.0766 1138.18 65.1958Z" fill="#385661" fill-opacity="0.3"/>
<path d="M1140.57 50.0086L1134.76 60.6679L1126.01 52.1176L1133.19 33.2415L1140.57 50.0086Z" fill="#494676"/>
<path d="M1060.86 67.5395L1059.39 57.3624C1059.34 57.0105 1059.38 56.6514 1059.52 56.322L1071.08 27.8921C1071.46 26.9716 1072.45 26.4657 1073.41 26.7043L1131.06 40.9639C1131.85 41.1593 1132.45 41.8135 1132.56 42.6187L1135.02 59.6098C1135.19 60.7336 1134.38 61.7673 1133.25 61.8856L1063.05 69.2419C1061.98 69.3538 1061.02 68.6023 1060.86 67.5395Z" fill="#5E5B8A"/>
<path d="M1095.91 49.542L1090.09 -17.9891L1139.01 -16.4812C1140.05 -16.4491 1140.9 -15.6223 1140.95 -14.5812L1144.35 53.9643C1144.41 55.2184 1143.31 56.2189 1142.07 56.0437L1095.91 49.542Z" fill="#6D6A9C"/>
<path d="M1095.91 49.5414L1090.09 -17.9897L1048.93 -5.33746C1048.03 -5.06338 1047.45 -4.20916 1047.52 -3.27874L1052.34 62.1398C1052.44 63.4527 1053.75 64.3156 1055 63.8803L1095.91 49.5414Z" fill="#8683C8"/>
<ellipse cx="1092.96" cy="13.891" rx="10.7876" ry="8.82622" transform="rotate(-3.14004 1092.96 13.891)" fill="#5E5B8A"/>
<ellipse cx="1092.85" cy="11.933" rx="10.7876" ry="8.82622" transform="rotate(-3.14004 1092.85 11.933)" fill="#8D8BCB"/>
<path fill-rule="evenodd" clip-rule="evenodd" d="M473.216 1552.49L410.252 1482.35L367.939 1496.36L473.216 1552.49ZM473.215 1552.49L473.214 1552.49L473.214 1552.49L473.214 1552.49L367.94 1496.36L367.94 1496.36L367.94 1496.36L367.938 1496.36L367.938 1496.36L328.959 1580.85L384.131 1625.61L384.131 1625.61L384.132 1625.61L384.132 1625.61L384.132 1625.61L384.133 1625.61L384.134 1625.61L384.134 1625.61L419.28 1631.86L473.211 1552.5L473.215 1552.49Z" fill="#142E3D" fill-opacity="0.5"/>
<path d="M452.817 1495.08L367.322 1481.6L433.766 1573.65L452.817 1495.08Z" fill="#E5C987"/>
<path d="M296.159 1506.96L367.319 1481.6L316.415 1583.08L296.159 1506.96Z" fill="#E3C57E"/>
<path d="M433.764 1573.65L367.321 1481.6L316.416 1583.08L433.764 1573.65Z" fill="#E8D097"/>
<path d="M452.815 1495.08L362.302 1457.19L367.32 1481.6L452.815 1495.08Z" fill="#ECD7A7"/>
<path d="M367.32 1481.6L362.301 1457.19L296.16 1506.96L367.32 1481.6Z" fill="#E7CE93"/>
<mask id="mask0_4_15556" style="mask-type:alpha" maskUnits="userSpaceOnUse" x="296" y="1457" width="72" height="50">
<path d="M367.321 1481.6L362.303 1457.19L296.162 1506.96L367.321 1481.6Z" fill="#E7CE93"/>
</mask>
<g mask="url(#mask0_4_15556)">
<path d="M334.922 1475.32L335.874 1474.86L331.468 1484.6L330.516 1485.06L333.784 1477.84L331.382 1479L331.812 1478.05L333.413 1477.27C333.896 1477.04 334.29 1476.72 334.549 1476.14L334.922 1475.32ZM338.119 1481.46C336.476 1482.26 335.29 1482.09 336.156 1480.18C336.713 1478.95 337.813 1477.68 339.102 1476.76C338.513 1476.75 338.364 1476.22 338.8 1475.26C339.501 1473.71 341.273 1472.15 342.639 1471.49C344.117 1470.77 344.903 1471.15 344.214 1472.68C343.784 1473.63 342.918 1474.64 342.028 1475.34C342.962 1475.18 343.195 1475.81 342.645 1477.03C341.779 1478.94 339.761 1480.66 338.119 1481.46ZM340.705 1475.76C341.741 1475.26 342.776 1474.24 343.243 1473.2C343.68 1472.24 343.258 1471.91 342.222 1472.41C341.27 1472.87 340.17 1473.87 339.714 1474.88C339.228 1475.96 339.656 1476.27 340.705 1475.76ZM338.536 1480.54C339.751 1479.95 341.131 1478.76 341.738 1477.41C342.313 1476.14 341.727 1475.79 340.388 1476.44C339.035 1477.1 337.716 1478.37 337.141 1479.64C336.534 1480.99 337.307 1481.14 338.536 1480.54Z" fill="#CEB375"/>
</g>
<path d="M433.765 1573.65L316.417 1583.08L386.462 1628.71L433.765 1573.65Z" fill="#D7AC48"/>
<path d="M463.38 1582.78L386.463 1628.7L433.765 1573.65L463.38 1582.78Z" fill="#C99A2C"/>
<path d="M386.461 1628.71L316.416 1583.08L300.052 1597.37L386.461 1628.71Z" fill="#C5972B"/>
<path d="M296.161 1506.96L300.053 1597.37L316.417 1583.08L296.161 1506.96Z" fill="#D9B153"/>
<mask id="mask1_4_15556" style="mask-type:alpha" maskUnits="userSpaceOnUse" x="296" y="1506" width="21" height="92">
<path d="M296.16 1506.96L300.052 1597.37L316.416 1583.08L296.16 1506.96Z" fill="#D9B153"/>
</mask>
<g mask="url(#mask1_4_15556)">
<path d="M295.169 1560.04L295.713 1559.35L297.37 1568.11L296.827 1568.8L295.597 1562.31L294.226 1564.06L294.064 1563.2L294.978 1562.04C295.254 1561.68 295.407 1561.3 295.309 1560.79L295.169 1560.04ZM300.032 1563.69L302.924 1559.99L303.078 1560.81L299.28 1565.67L299.128 1564.86C300.17 1561.94 301.532 1557.92 301.092 1555.59C300.883 1554.49 300.364 1554.28 299.655 1555.18C298.819 1556.25 298.624 1557.7 298.861 1559.01L298.314 1559.63C297.988 1557.91 298.363 1555.81 299.498 1554.36C300.475 1553.11 301.328 1553.22 301.646 1554.9C302.07 1557.14 301.162 1560.51 300.032 1563.69Z" fill="#BD9432"/>
</g>
<path d="M463.379 1582.78L433.764 1573.65L452.815 1495.08L463.379 1582.78Z" fill="#DBB45A"/>
<mask id="mask2_4_15556" style="mask-type:alpha" maskUnits="userSpaceOnUse" x="433" y="1495" width="31" height="88">
<path d="M463.38 1582.78L433.766 1573.65L452.817 1495.08L463.38 1582.78Z" fill="#DBB45A"/>
</mask>
<g mask="url(#mask2_4_15556)">
<path d="M458.05 1544.16C459.218 1545.09 460.202 1546.81 460.291 1548.24C460.391 1549.86 459.311 1550.51 457.873 1549.65C456.446 1548.8 455.189 1546.77 455.088 1545.15C455.054 1544.6 455.172 1544.11 455.385 1543.8L457.413 1540.71L458.269 1541.22L456.71 1543.51C457.094 1543.58 457.572 1543.78 458.05 1544.16ZM457.821 1548.81C458.831 1549.41 459.595 1548.94 459.522 1547.78C459.45 1546.62 458.568 1545.19 457.558 1544.58C456.549 1543.98 455.784 1544.43 455.856 1545.59C455.928 1546.75 456.8 1548.2 457.821 1548.81Z" fill="#C49936"/>
</g>
<path d="M364.466 1546.65L371.932 1545.85L372.069 1547.17L362.263 1548.22L362.128 1546.92C365.229 1544.49 369.336 1541.04 368.945 1537.28C368.76 1535.49 367.645 1534.46 365.814 1534.65C363.657 1534.88 362.843 1536.55 363.04 1538.65L361.646 1538.7C361.357 1535.91 362.745 1533.62 365.674 1533.31C368.197 1533.04 370.089 1534.42 370.371 1537.15C370.747 1540.77 367.832 1544 364.466 1546.65ZM378.852 1546.65C375.068 1547.06 373.91 1543.23 373.56 1539.85C373.21 1536.47 373.515 1532.47 377.197 1532.07C380.553 1531.72 382.07 1535.03 382.473 1538.92C382.876 1542.8 382.087 1546.31 378.852 1546.65ZM378.672 1545.31C380.971 1545.07 381.298 1542.27 380.965 1539.06C380.625 1535.78 379.716 1533.16 377.336 1533.42C374.854 1533.68 374.688 1536.64 375.004 1539.7C375.315 1542.69 376.088 1545.59 378.672 1545.31Z" fill="#BA9847"/>
<path d="M325.228 1526.03L327.794 1521.02L328.685 1521.47L325.315 1528.05L324.438 1527.61C324.18 1524.68 323.696 1520.71 321.162 1519.43C319.956 1518.82 318.846 1519.1 318.216 1520.33C317.475 1521.78 318.195 1522.97 319.599 1523.69L319.055 1524.59C317.178 1523.64 316.305 1521.84 317.312 1519.88C318.179 1518.18 319.829 1517.55 321.665 1518.48C324.104 1519.71 324.945 1522.85 325.228 1526.03Z" fill="#BA9847"/>
<path d="M382.103 1595.25C383.911 1594.99 385.833 1595.77 386.126 1597.85C386.314 1599.19 385.712 1600.31 384.54 1600.9C385.433 1601.19 386.097 1601.95 386.244 1603C386.481 1604.68 385.114 1605.87 383.61 1606.09C381.985 1606.32 380.484 1605.45 380.251 1603.8C380.106 1602.76 380.568 1601.86 381.32 1601.36C380.047 1601.13 379.172 1600.2 378.987 1598.88C378.694 1596.79 380.296 1595.51 382.103 1595.25ZM382.957 1601.44C381.818 1601.6 381.115 1602.45 381.273 1603.57C381.421 1604.62 382.33 1605.25 383.47 1605.09C384.518 1604.93 385.337 1604.15 385.183 1603.06C385.019 1601.89 384.112 1601.27 382.957 1601.44ZM382.244 1596.25C380.908 1596.45 379.825 1597.35 380.03 1598.8C380.225 1600.19 381.396 1600.92 382.87 1600.71C384.358 1600.49 385.283 1599.46 385.088 1598.08C384.883 1596.62 383.596 1596.06 382.244 1596.25Z" fill="#9F7F33"/>
<path d="M422.043 1506.73L422.72 1507.54L414.466 1514.34L413.789 1513.53L419.912 1508.48L418.206 1506.43L419.012 1505.76L420.148 1507.13C420.492 1507.55 420.859 1507.7 421.345 1507.3L422.043 1506.73ZM423.46 1519.6L424.568 1520.94L423.786 1521.58L422.679 1520.25L420.713 1521.87L420.037 1521.05L422.003 1519.43L418.582 1515.31L419.115 1514.87L428.34 1514.31L428.967 1515.07L423.46 1519.6ZM420.265 1515.76L422.784 1518.79L427.059 1515.27L420.265 1515.76Z" fill="#BA9847"/>
<path d="M402.26 1476.71L403.988 1476.86L404.934 1477.22L403.206 1477.08L405.586 1477.98L404.531 1477.89L402.151 1476.99L396.815 1476.54L396.169 1476.29L394.614 1474.09L395.593 1474.17L402.26 1476.71ZM397.275 1476.29L401.205 1476.63L396.029 1474.65L397.275 1476.29Z" fill="#CFB77E"/>
</g>
</g>
<defs>
<filter id="filter0_i_4_15556" x="168.848" y="1163.76" width="44.1929" height="44.333" filterUnits="userSpaceOnUse" color-interpolation-filters="sRGB">
<feFlood flood-opacity="0" result="BackgroundImageFix"/>
<feBlend mode="normal" in="SourceGraphic" in2="BackgroundImageFix" result="shape"/>
<feColorMatrix in="SourceAlpha" type="matrix" values="0 0 0 0 0 0 0 0 0 0 0 0 0 0 0 0 0 0 127 0" result="hardAlpha"/>
<feOffset dx="3.19634" dy="4.26178"/>
<feComposite in2="hardAlpha" operator="arithmetic" k2="-1" k3="1"/>
<feColorMatrix type="matrix" values="0 0 0 0 0.709804 0 0 0 0 0.698039 0 0 0 0 0.678431 0 0 0 1 0"/>
<feBlend mode="normal" in2="shape" result="effect1_innerShadow_4_15556"/>
</filter>
<filter id="filter1_i_4_15556" x="204.215" y="1284.18" width="44.1929" height="44.333" filterUnits="userSpaceOnUse" color-interpolation-filters="sRGB">
<feFlood flood-opacity="0" result="BackgroundImageFix"/>
<feBlend mode="normal" in="SourceGraphic" in2="BackgroundImageFix" result="shape"/>
<feColorMatrix in="SourceAlpha" type="matrix" values="0 0 0 0 0 0 0 0 0 0 0 0 0 0 0 0 0 0 127 0" result="hardAlpha"/>
<feOffset dx="3.19634" dy="4.26178"/>
<feComposite in2="hardAlpha" operator="arithmetic" k2="-1" k3="1"/>
<feColorMatrix type="matrix" values="0 0 0 0 0.709804 0 0 0 0 0.698039 0 0 0 0 0.678431 0 0 0 1 0"/>
<feBlend mode="normal" in2="shape" result="effect1_innerShadow_4_15556"/>
</filter>
<filter id="filter2_i_4_15556" x="380.689" y="1236.95" width="25.1696" height="25.2495" filterUnits="userSpaceOnUse" color-interpolation-filters="sRGB">
<feFlood flood-opacity="0" result="BackgroundImageFix"/>
<feBlend mode="normal" in="SourceGraphic" in2="BackgroundImageFix" result="shape"/>
<feColorMatrix in="SourceAlpha" type="matrix" values="0 0 0 0 0 0 0 0 0 0 0 0 0 0 0 0 0 0 127 0" result="hardAlpha"/>
<feOffset dx="-4.26178" dy="-2.13089"/>
<feComposite in2="hardAlpha" operator="arithmetic" k2="-1" k3="1"/>
<feColorMatrix type="matrix" values="0 0 0 0 0.709804 0 0 0 0 0.698039 0 0 0 0 0.678431 0 0 0 1 0"/>
<feBlend mode="normal" in2="shape" result="effect1_innerShadow_4_15556"/>
</filter>
<filter id="filter3_i_4_15556" x="354.085" y="1283.97" width="25.1696" height="25.2495" filterUnits="userSpaceOnUse" color-interpolation-filters="sRGB">
<feFlood flood-opacity="0" result="BackgroundImageFix"/>
<feBlend mode="normal" in="SourceGraphic" in2="BackgroundImageFix" result="shape"/>
<feColorMatrix in="SourceAlpha" type="matrix" values="0 0 0 0 0 0 0 0 0 0 0 0 0 0 0 0 0 0 127 0" result="hardAlpha"/>
<feOffset dx="-4.26178" dy="-2.13089"/>
<feComposite in2="hardAlpha" operator="arithmetic" k2="-1" k3="1"/>
<feColorMatrix type="matrix" values="0 0 0 0 0.709804 0 0 0 0 0.698039 0 0 0 0 0.678431 0 0 0 1 0"/>
<feBlend mode="normal" in2="shape" result="effect1_innerShadow_4_15556"/>
</filter>
<filter id="filter4_i_4_15556" x="329.559" y="1330.82" width="25.1696" height="25.2495" filterUnits="userSpaceOnUse" color-interpolation-filters="sRGB">
<feFlood flood-opacity="0" result="BackgroundImageFix"/>
<feBlend mode="normal" in="SourceGraphic" in2="BackgroundImageFix" result="shape"/>
<feColorMatrix in="SourceAlpha" type="matrix" values="0 0 0 0 0 0 0 0 0 0 0 0 0 0 0 0 0 0 127 0" result="hardAlpha"/>
<feOffset dx="-4.26178" dy="-2.13089"/>
<feComposite in2="hardAlpha" operator="arithmetic" k2="-1" k3="1"/>
<feColorMatrix type="matrix" values="0 0 0 0 0.709804 0 0 0 0 0.698039 0 0 0 0 0.678431 0 0 0 1 0"/>
<feBlend mode="normal" in2="shape" result="effect1_innerShadow_4_15556"/>
</filter>
<filter id="filter5_i_4_15556" x="308.267" y="1113.26" width="40.3047" height="28.9976" filterUnits="userSpaceOnUse" color-interpolation-filters="sRGB">
<feFlood flood-opacity="0" result="BackgroundImageFix"/>
<feBlend mode="normal" in="SourceGraphic" in2="BackgroundImageFix" result="shape"/>
<feColorMatrix in="SourceAlpha" type="matrix" values="0 0 0 0 0 0 0 0 0 0 0 0 0 0 0 0 0 0 127 0" result="hardAlpha"/>
<feOffset dx="-2.13089" dy="3.19634"/>
<feComposite in2="hardAlpha" operator="arithmetic" k2="-1" k3="1"/>
<feColorMatrix type="matrix" values="0 0 0 0 0.709804 0 0 0 0 0.698039 0 0 0 0 0.678431 0 0 0 1 0"/>
<feBlend mode="normal" in2="shape" result="effect1_innerShadow_4_15556"/>
</filter>
<filter id="filter6_i_4_15556" x="529.691" y="1299.36" width="58.9878" height="44.2168" filterUnits="userSpaceOnUse" color-interpolation-filters="sRGB">
<feFlood flood-opacity="0" result="BackgroundImageFix"/>
<feBlend mode="normal" in="SourceGraphic" in2="BackgroundImageFix" result="shape"/>
<feColorMatrix in="SourceAlpha" type="matrix" values="0 0 0 0 0 0 0 0 0 0 0 0 0 0 0 0 0 0 127 0" result="hardAlpha"/>
<feOffset dx="-1.63043" dy="-1.63043"/>
<feComposite in2="hardAlpha" operator="arithmetic" k2="-1" k3="1"/>
<feColorMatrix type="matrix" values="0 0 0 0 0.676215 0 0 0 0 0.772035 0 0 0 0 0.854167 0 0 0 1 0"/>
<feBlend mode="normal" in2="shape" result="effect1_innerShadow_4_15556"/>
</filter>
<filter id="filter7_i_4_15556" x="487.567" y="1341.89" width="41.6367" height="29.5757" filterUnits="userSpaceOnUse" color-interpolation-filters="sRGB">
<feFlood flood-opacity="0" result="BackgroundImageFix"/>
<feBlend mode="normal" in="SourceGraphic" in2="BackgroundImageFix" result="shape"/>
<feColorMatrix in="SourceAlpha" type="matrix" values="0 0 0 0 0 0 0 0 0 0 0 0 0 0 0 0 0 0 127 0" result="hardAlpha"/>
<feOffset dx="-0.815213" dy="-1.63043"/>
<feComposite in2="hardAlpha" operator="arithmetic" k2="-1" k3="1"/>
<feColorMatrix type="matrix" values="0 0 0 0 0.549444 0 0 0 0 0.640657 0 0 0 0 0.716667 0 0 0 1 0"/>
<feBlend mode="normal" in2="shape" result="effect1_innerShadow_4_15556"/>
</filter>
<filter id="filter8_i_4_15556" x="547.686" y="1370.9" width="43.4528" height="20.3423" filterUnits="userSpaceOnUse" color-interpolation-filters="sRGB">
<feFlood flood-opacity="0" result="BackgroundImageFix"/>
<feBlend mode="normal" in="SourceGraphic" in2="BackgroundImageFix" result="shape"/>
<feColorMatrix in="SourceAlpha" type="matrix" values="0 0 0 0 0 0 0 0 0 0 0 0 0 0 0 0 0 0 127 0" result="hardAlpha"/>
<feOffset dx="-1.63043" dy="-0.815213"/>
<feComposite in2="hardAlpha" operator="arithmetic" k2="-1" k3="1"/>
<feColorMatrix type="matrix" values="0 0 0 0 0.626667 0 0 0 0 0.720869 0 0 0 0 0.8 0 0 0 1 0"/>
<feBlend mode="normal" in2="shape" result="effect1_innerShadow_4_15556"/>
</filter>
<filter id="filter9_i_4_15556" x="511.527" y="78.0229" width="203.522" height="202.825" filterUnits="userSpaceOnUse" color-interpolation-filters="sRGB">
<feFlood flood-opacity="0" result="BackgroundImageFix"/>
<feBlend mode="normal" in="SourceGraphic" in2="BackgroundImageFix" result="shape"/>
<feColorMatrix in="SourceAlpha" type="matrix" values="0 0 0 0 0 0 0 0 0 0 0 0 0 0 0 0 0 0 127 0" result="hardAlpha"/>
<feOffset dx="-2.71171" dy="-0.903905"/>
<feComposite in2="hardAlpha" operator="arithmetic" k2="-1" k3="1"/>
<feColorMatrix type="matrix" values="0 0 0 0 1 0 0 0 0 0.913725 0 0 0 0 0.603922 0 0 0 1 0"/>
<feBlend mode="normal" in2="shape" result="effect1_innerShadow_4_15556"/>
</filter>
<filter id="filter10_i_4_15556" x="625.62" y="523.774" width="174.277" height="186.439" filterUnits="userSpaceOnUse" color-interpolation-filters="sRGB">
<feFlood flood-opacity="0" result="BackgroundImageFix"/>
<feBlend mode="normal" in="SourceGraphic" in2="BackgroundImageFix" result="shape"/>
<feColorMatrix in="SourceAlpha" type="matrix" values="0 0 0 0 0 0 0 0 0 0 0 0 0 0 0 0 0 0 127 0" result="hardAlpha"/>
<feOffset dx="-2.66188" dy="0.887292"/>
<feComposite in2="hardAlpha" operator="arithmetic" k2="-1" k3="1"/>
<feColorMatrix type="matrix" values="0 0 0 0 1 0 0 0 0 0.905882 0 0 0 0 0.572549 0 0 0 1 0"/>
<feBlend mode="normal" in2="shape" result="effect1_innerShadow_4_15556"/>
</filter>
<filter id="filter11_i_4_15556" x="1253.46" y="646.282" width="96.24" height="99.5308" filterUnits="userSpaceOnUse" color-interpolation-filters="sRGB">
<feFlood flood-opacity="0" result="BackgroundImageFix"/>
<feBlend mode="normal" in="SourceGraphic" in2="BackgroundImageFix" result="shape"/>
<feColorMatrix in="SourceAlpha" type="matrix" values="0 0 0 0 0 0 0 0 0 0 0 0 0 0 0 0 0 0 127 0" result="hardAlpha"/>
<feOffset dx="1" dy="2"/>
<feComposite in2="hardAlpha" operator="arithmetic" k2="-1" k3="1"/>
<feColorMatrix type="matrix" values="0 0 0 0 1 0 0 0 0 0.913725 0 0 0 0 0.596078 0 0 0 1 0"/>
<feBlend mode="normal" in2="shape" result="effect1_innerShadow_4_15556"/>
</filter>
<filter id="filter12_d_4_15556" x="515.224" y="-470.711" width="1401.01" height="1349.79" filterUnits="userSpaceOnUse" color-interpolation-filters="sRGB">
<feFlood flood-opacity="0" result="BackgroundImageFix"/>
<feColorMatrix in="SourceAlpha" type="matrix" values="0 0 0 0 0 0 0 0 0 0 0 0 0 0 0 0 0 0 127 0" result="hardAlpha"/>
<feOffset dx="-22.9374" dy="18.5263"/>
<feGaussianBlur stdDeviation="96.6016"/>
<feComposite in2="hardAlpha" operator="out"/>
<feColorMatrix type="matrix" values="0 0 0 0 1 0 0 0 0 0.972897 0 0 0 0 0.8 0 0 0 0.5 0"/>
<feBlend mode="normal" in2="BackgroundImageFix" result="effect1_dropShadow_4_15556"/>
<feBlend mode="normal" in="SourceGraphic" in2="effect1_dropShadow_4_15556" result="shape"/>
</filter>
<clipPath id="clip0_4_15556">
<rect width="1440" height="1676" fill="white"/>
</clipPath>
<clipPath id="clip1_4_15556">
<rect width="1440" height="9229" fill="white"/>
</clipPath>
</defs>
</svg>
