<svg width="168" height="139" viewBox="0 0 168 139" fill="none" xmlns="http://www.w3.org/2000/svg">
<path d="M7.92644 31.6131L2.66168 38.7888V55.5326L2.18311 75.6251L3.61882 90.9336L5.89311 99.0389L13.1833 106.988L24.7817 117.919L37.4459 132.159L43.6917 136.451L52.2859 135.474L76.808 130.505L101.993 123.55L126.515 119.575L145.734 113.282L156.67 110.3L164.623 102.682L166.28 89.7645L165.286 67.9035L166.28 43.0616L164.954 33.7871L154.019 25.8378L140.764 15.9008L128.834 7.28905L120.55 3.31414L111.934 2.98315L100.004 6.95783L79.459 10.6013L60.2391 15.2384L45.3271 19.2131L32.7346 22.8568L16.5414 27.3074L7.92644 31.6131Z" fill="white"/>
<path fill-rule="evenodd" clip-rule="evenodd" d="M164.496 37.5225C166.307 39.5582 167.399 42.3573 167.436 45.6645L168 95.8446C168.092 104.009 161.72 112.198 153.781 114.12L52.9835 138.524C45.0441 140.446 38.524 135.378 38.4321 127.213L37.8682 77.0334C37.7763 68.8687 44.1476 60.6797 52.0867 58.7575L107.459 45.3516L124.097 41.3236L152.884 34.354C157.608 33.2104 161.829 34.541 164.496 37.5225ZM53.3356 67.8199C50.5064 68.582 48.176 71.5218 48.176 74.329C48.176 77.1359 50.5064 78.8204 53.3356 78.0583L55.0554 77.5949V81.0078L53.3356 81.4711C50.5064 82.2332 48.176 85.173 48.176 87.9799C48.176 90.7871 50.5064 92.4713 53.3356 91.7094C56.1648 90.9473 58.4951 88.0076 58.4951 85.2004V83.494L61.9348 82.5676V84.274C61.9348 87.0809 64.2652 88.7654 67.0944 88.0033C69.9236 87.2414 72.2539 84.3014 72.2539 81.4945C72.2539 78.6876 69.9236 77.0031 67.0944 77.7652L65.3745 78.2283V74.8157L67.0944 74.3523C69.9236 73.5902 72.2539 70.6505 72.2539 67.8433C72.2539 65.0364 69.9236 63.3519 67.0944 64.114C64.2652 64.8761 61.9348 67.8159 61.9348 70.623V72.3292L58.4951 73.2559V71.5494C58.4951 68.7423 56.1648 67.058 53.3356 67.8199ZM79.6632 110.958L76.4528 111.079C76.0485 113.595 74.8476 115.079 72.8501 115.531C70.1153 116.15 68.7479 114.725 68.7479 111.255C68.7479 107.689 70.0796 105.605 72.743 105.002C73.7181 104.781 74.6456 104.785 75.5255 105.014L76.0603 107.531L79.1281 106.516L78.4861 102.169C77.5585 101.832 76.6192 101.652 75.6681 101.63C74.7169 101.608 73.7656 101.704 72.8143 101.92C70.4126 102.463 68.4686 103.688 66.9825 105.593C65.4962 107.498 64.7531 109.746 64.7531 112.337C64.7531 114.976 65.4724 116.821 66.9112 117.874C68.3497 118.927 70.2105 119.195 72.4935 118.678C74.9191 118.129 76.6788 117.071 77.7725 115.504C78.8665 113.937 79.4967 112.422 79.6632 110.958ZM111.124 109.576V106.652L108.77 107.185V99.5195C108.77 97.5466 108.223 96.2204 107.129 95.541C106.035 94.8617 104.763 94.6863 103.312 95.0147C102.005 95.3109 100.899 95.888 99.9951 96.7462C99.0914 97.6045 98.4018 98.6341 97.9262 99.8352C97.5458 98.6853 96.8799 97.9269 95.9287 97.56C94.9776 97.193 93.9075 97.144 92.7185 97.4131C91.5294 97.6824 90.5188 98.1846 89.6865 98.9197C88.8542 99.6548 88.1884 100.519 87.6889 101.511V98.8728L81.5179 100.27V103.229L83.8723 102.696V112.822L81.4823 113.363V116.287L90.6852 114.203V111.279L87.6889 111.958V105.683C87.7126 104.584 88.0218 103.545 88.6163 102.567C89.2108 101.589 90.1263 100.959 91.3629 100.679C92.3142 100.464 93.0573 100.611 93.5924 101.12C94.1274 101.628 94.3949 102.643 94.3949 104.164V110.44L93.5389 110.633V113.557L100.602 111.958V109.034L98.2116 109.575V103.336C98.2354 102.237 98.5386 101.194 99.1212 100.206C99.7038 99.2188 100.625 98.5823 101.886 98.2971C102.861 98.0763 103.616 98.2203 104.151 98.729C104.686 99.2377 104.953 100.253 104.953 101.774V108.049L104.062 108.251V111.174L111.124 109.576ZM131.064 105.061V102.138L128.71 102.67V81.0642L121.433 82.7118V85.6353L124.893 84.852V92.9453C124.417 92.1974 123.745 91.6661 122.878 91.3517C122.01 91.0371 120.945 91.0225 119.685 91.3078C117.212 91.8677 115.399 93.1518 114.245 95.1599C113.092 97.1681 112.515 99.3131 112.515 101.595C112.515 104.091 113.128 105.913 114.352 107.062C115.577 108.211 117.236 108.548 119.328 108.075C120.779 107.746 121.95 107.142 122.842 106.263C123.734 105.384 124.417 104.427 124.893 103.392V106.458L131.064 105.061ZM124.893 97.5448V98.7571C124.869 99.9508 124.465 101.171 123.68 102.419C122.895 103.666 121.849 104.438 120.541 104.734C119.423 104.987 118.466 104.764 117.67 104.065C116.873 103.366 116.475 102.172 116.475 100.485C116.475 98.8208 116.873 97.4173 117.67 96.2743C118.466 95.1312 119.507 94.4144 120.791 94.1238C121.932 93.8653 122.895 94.0395 123.68 94.6463C124.465 95.2529 124.869 96.2191 124.893 97.5448ZM133.275 94.6487V97.8574L141.694 95.9516V92.7426L133.275 94.6487ZM155.07 75.0071C154.309 75.001 153.56 75.0815 152.823 75.2484C150.944 75.6738 149.458 76.6165 148.364 78.0763C147.27 79.5362 146.723 81.1337 146.723 82.8689V85.5072L144.618 85.9837V88.8004L146.723 88.324V98.5921L144.333 99.1332V102.057L153.536 99.9733V97.0497L150.504 97.7363V87.4679L154.535 86.5553V83.7386L150.504 84.6512V81.478C150.504 79.624 151.241 78.5301 152.716 78.1963C153.215 78.0832 153.702 78.0561 154.178 78.1147L154.927 80.548L157.924 79.5131L157.246 75.5663C156.556 75.1995 155.831 75.0131 155.07 75.0071Z" fill="#2E2E2E"/>
<path d="M53.3341 71.7852C54.3058 71.5236 55.054 72.0642 55.054 73.0283V74.7348L53.3341 75.1981C52.3624 75.4597 51.6143 74.9191 51.6143 73.955C51.6143 72.9909 52.3624 72.047 53.3341 71.7852Z" fill="#2E2E2E"/>
<path d="M67.0929 67.8921C68.0646 67.6305 68.8128 68.1714 68.8128 69.1355C68.8128 70.0996 68.0646 71.0434 67.0929 71.305L65.373 71.7683V70.0619C65.373 69.0978 66.1212 68.154 67.0929 67.8921Z" fill="#2E2E2E"/>
<path d="M58.5205 76.8754L61.9602 75.949V79.3618L58.5205 80.2882V76.8754Z" fill="#2E2E2E"/>
<path d="M53.3341 84.8842L55.054 84.4209V86.1273C55.054 87.0914 54.3058 88.035 53.3341 88.2969C52.3624 88.5587 51.6143 88.0179 51.6143 87.0538C51.6143 86.0897 52.3624 85.1458 53.3341 84.8842Z" fill="#2E2E2E"/>
<path d="M65.373 81.6414L67.0929 81.178C68.0646 80.9164 68.8128 81.457 68.8128 82.4211C68.8128 83.3852 68.0646 84.3291 67.0929 84.5909C66.1212 84.8525 65.373 84.3119 65.373 83.3478V81.6414Z" fill="#2E2E2E"/>
<path fill-rule="evenodd" clip-rule="evenodd" d="M116.162 0.0211136C115.735 0.0423904 114.735 0.159333 114.159 0.255239C113.685 0.334267 108.468 1.5708 87.4218 6.59297C85.9568 6.9426 69.5449 10.8565 50.9509 15.2905C32.3569 19.7245 16.8643 23.4344 16.5228 23.5346C14.6745 24.0769 12.665 24.9909 11.1753 25.9669C7.47015 28.3943 4.58404 31.6673 2.76766 35.5014C1.56282 38.0447 0.936146 40.387 0.740193 43.0795C0.706706 43.5394 0.755134 48.8956 0.957296 67.0959C1.10042 79.9794 1.23669 91.0334 1.26012 91.6603C1.28355 92.2872 1.32865 93.003 1.36038 93.251C1.75745 96.357 2.90798 99.0685 4.77751 101.304C5.27897 101.904 7.82541 104.458 8.83205 105.37C9.80461 106.252 12.0407 108.459 14.5133 110.978C16.7309 113.236 18.5997 115.176 23.0296 119.815C23.6698 120.486 24.5811 121.439 25.0547 121.935C25.5284 122.43 26.5826 123.538 27.3975 124.395C28.2123 125.253 29.0865 126.171 29.3402 126.435C29.5938 126.699 30.3151 127.455 30.9429 128.114C32.9295 130.201 34.8657 132.205 35.0856 132.403C35.2024 132.508 35.6568 132.936 36.0955 133.354C37.2085 134.414 38.0176 135.144 38.5335 135.554C40.0091 136.724 42.0933 137.801 43.7619 138.254C44.8917 138.56 45.8312 138.675 48.2171 138.795L48.7278 138.821V137.144V135.467L48.4173 135.485C47.9647 135.511 46.9763 135.43 46.3534 135.315C44.6703 135.004 42.8794 134.173 41.2439 132.942C39.8399 131.886 38.4525 130.534 37.1325 128.935C36.7817 128.51 27.1005 118.312 25.4753 116.656C24.9025 116.072 22.1728 113.282 19.4093 110.456C16.6458 107.63 13.9232 104.85 13.3591 104.278C9.46638 100.332 8.86086 99.6765 7.96372 98.4393C6.69571 96.6906 6.2323 95.7689 5.85241 94.2399C5.60034 93.2253 5.51462 92.4747 5.4847 91.0204C5.47224 90.4155 5.34587 79.547 5.20383 66.8681C4.93657 43.0128 4.93874 43.4721 5.08855 42.2877C5.43471 39.5507 6.70412 36.5273 8.51409 34.1289C9.14982 33.2865 9.53612 32.844 10.3332 32.0453C12.0629 30.312 13.7246 29.1607 15.8264 28.2391C16.4639 27.9596 17.7333 27.5274 18.3654 27.3748C18.859 27.2556 112.686 4.87271 113.779 4.61347C115.046 4.31283 115.6 4.23872 116.824 4.20625C117.742 4.18189 118.311 4.21561 119.046 4.33771C120.017 4.49924 121.059 4.83087 121.929 5.25573C123.3 5.92563 126.037 7.46112 127.203 8.21481C127.415 8.35199 132.029 11.6909 137.457 15.6347C151.44 25.7945 152.906 26.8616 157.279 30.0621C160.932 32.7346 161.219 32.954 161.718 33.4445C162.615 34.3265 163.194 35.1023 163.633 36.0086C164.135 37.0471 164.229 37.4698 164.33 39.1281C164.401 40.2806 164.449 43.7903 164.422 45.7771L164.396 47.6669L164.493 47.6675C164.546 47.6679 165.193 47.721 165.93 47.7854C166.668 47.8499 167.28 47.8931 167.292 47.8814C167.304 47.8698 167.319 46.1025 167.325 43.9541C167.335 40.6767 167.327 39.916 167.273 39.2281C167.021 35.9702 166.602 34.1152 165.791 32.6594C165.221 31.6379 164.481 30.7075 163.666 29.9893C163.454 29.8025 163.223 29.598 163.154 29.535C162.581 29.0157 159.626 26.774 156.318 24.3507C155.999 24.1166 155.251 23.5679 154.656 23.1314C152.904 21.8458 146.462 17.1563 144.381 15.652C142.493 14.2868 139.075 11.8075 138.673 11.512C138.475 11.366 137.988 11.0129 137.592 10.7274C137.195 10.4418 136.069 9.62296 135.088 8.9077C134.108 8.19249 132.963 7.3579 132.545 7.05306C131.215 6.08433 129.911 5.09219 129.601 4.8124C128.738 4.03491 127.26 3.12861 125.263 2.15387C122.722 0.9131 121.319 0.438131 119.366 0.157213C118.39 0.0167143 117.234 -0.0323584 116.162 0.0211136Z" fill="#2E2E2E"/>
</svg>
