<svg width="33" height="33" viewBox="0 0 33 33" fill="none" xmlns="http://www.w3.org/2000/svg">
<path d="M5.5 9.625C5.5 8.86561 6.11561 8.25 6.875 8.25H26.125C26.8844 8.25 27.5 8.86561 27.5 9.625C27.5 10.3844 26.8844 11 26.125 11H6.875C6.11561 11 5.5 10.3844 5.5 9.625ZM5.5 16.5C5.5 15.7406 6.11561 15.125 6.875 15.125H26.125C26.8844 15.125 27.5 15.7406 27.5 16.5C27.5 17.2594 26.8844 17.875 26.125 17.875H6.875C6.11561 17.875 5.5 17.2594 5.5 16.5ZM5.5 23.375C5.5 22.6156 6.11561 22 6.875 22H26.125C26.8844 22 27.5 22.6156 27.5 23.375C27.5 24.1344 26.8844 24.75 26.125 24.75H6.875C6.11561 24.75 5.5 24.1344 5.5 23.375Z" fill="white"/>
</svg>
