<svg width="214" height="46" viewBox="0 0 214 46" fill="none" xmlns="http://www.w3.org/2000/svg">
<path d="M90.5 41.5C87.3611 41.8583 83.9678 41.8366 83.9678 39.912C83.0489 40.1917 79.756 40.5653 80.0144 41.324C80.3987 42.452 84.7893 42.6351 87.1758 42.4232C90.3428 42.142 99.2185 42.409 96.4842 39.912C96.0704 39.5341 92.9892 39.3879 93.7979 39.5931C94.5142 39.7748 94.6899 40.342 93.8517 40.5498C92.572 40.867 91.8635 41.3443 90.5 41.5Z" fill="#A1ECF2"/>
<path d="M91.2353 44C84.5882 44.3583 77.4023 44.3366 77.4023 42.412C75.4565 42.6917 68.4832 43.0653 69.0305 43.824C69.8443 44.952 79.142 45.1351 84.1959 44.9232C90.9023 44.642 109.698 44.909 103.908 42.412C103.032 42.0341 96.5065 41.8879 98.2192 42.0931C99.736 42.2748 100.108 42.842 98.3329 43.0498C95.623 43.367 94.1228 43.8443 91.2353 44Z" fill="#A1ECF2"/>
<path d="M54.3271 42.1909C47.6801 42.5492 35.0002 42.1909 43.0002 40.5C41.0544 40.7797 38.953 41.2413 39.5003 42C40.3141 43.1281 42.2338 43.3259 47.2877 43.114C53.9941 42.8329 69.3821 42.6878 63.5918 40.1907C62.7156 39.8129 59.5983 40.0788 61.311 40.284C62.8279 40.4657 63.1999 41.0329 61.4248 41.2407C58.7148 41.5579 57.2146 42.0352 54.3271 42.1909Z" fill="#A1ECF2"/>
<path d="M42.3742 36.377C38.1965 36.6022 30.2271 36.377 35.2552 35.3143C34.0322 35.4901 32.7114 35.7802 33.0554 36.257C33.5669 36.966 34.7735 37.0904 37.9499 36.9572C42.1649 36.7805 51.8364 36.6893 48.1972 35.1199C47.6465 34.8824 45.6872 35.0495 46.7636 35.1785C47.717 35.2927 47.9508 35.6492 46.8351 35.7798C45.1319 35.9792 44.189 36.2792 42.3742 36.377Z" fill="#A1ECF2"/>
<path d="M88.3742 36.877C84.1965 37.1022 76.2271 36.877 81.2552 35.8143C80.0322 35.9901 78.7114 36.2802 79.0554 36.757C79.5669 37.466 80.7735 37.5904 83.9499 37.4572C88.1649 37.2805 97.8364 37.1893 94.1972 35.6199C93.6465 35.3824 91.6872 35.5495 92.7636 35.6785C93.717 35.7927 93.9508 36.1492 92.8351 36.2798C91.1319 36.4792 90.189 36.7792 88.3742 36.877Z" fill="#A1ECF2"/>
<path d="M125.374 35.377C121.196 35.6022 113.227 35.377 118.255 34.3143C117.032 34.4901 115.711 34.7802 116.055 35.257C116.567 35.966 117.773 36.0904 120.95 35.9572C125.165 35.7805 134.836 35.6893 131.197 34.1199C130.646 33.8824 128.687 34.0495 129.764 34.1785C130.717 34.2927 130.951 34.6492 129.835 34.7798C128.132 34.9792 127.189 35.2792 125.374 35.377Z" fill="#A1ECF2"/>
<path d="M162.374 25.377C158.196 25.6022 150.227 25.377 155.255 24.3143C154.032 24.4901 152.711 24.7802 153.055 25.257C153.567 25.966 154.773 26.0904 157.95 25.9572C162.165 25.7805 171.836 25.6893 168.197 24.1199C167.646 23.8824 165.687 24.0495 166.764 24.1785C167.717 24.2927 167.951 24.6492 166.835 24.7798C165.132 24.9792 164.189 25.2792 162.374 25.377Z" fill="#A1ECF2"/>
<path d="M119.471 43C125.01 43.3583 130.998 43.3366 130.998 41.412C132.62 41.6917 138.431 42.0653 137.975 42.824C137.296 43.952 129.548 44.1351 125.337 43.9232C119.748 43.642 104.085 43.909 108.91 41.412C109.64 41.0341 115.078 40.8879 113.651 41.0931C112.387 41.2748 112.077 41.842 113.556 42.0498C115.814 42.367 117.064 42.8443 119.471 43Z" fill="#A1ECF2"/>
<path d="M156.197 37.8247C163.036 37.6705 170.399 37.0958 170.255 35.1766C172.271 35.3058 179.445 35.1417 178.941 35.9403C178.192 37.1278 168.676 38.0259 163.481 38.2035C156.586 38.4393 137.343 40.152 143.09 37.2164C143.96 36.7722 150.636 36.1242 148.896 36.4606C147.355 36.7585 147.017 37.3528 148.851 37.4234C151.653 37.5312 153.226 37.8917 156.197 37.8247Z" fill="#BFECFF"/>
<path d="M52.6344 40.8507C50.2341 41.0896 48.0342 41.5577 48.0342 40.2747C47.3315 40.4611 44.8134 40.7102 45.011 41.216C45.3049 41.968 48.6624 42.09 50.4874 41.9488C52.9092 41.7613 59.6965 41.9394 57.6056 40.2747C57.2892 40.0228 54.9329 39.9253 55.5514 40.062C56.0991 40.1832 56.2335 40.5614 55.5925 40.6999C54.6139 40.9114 53.6771 40.7469 52.6344 40.8507Z" fill="#A1ECF2"/>
<path d="M41.31 35.5347C39.8014 35.6848 38.4187 35.979 38.4187 35.1726C37.9771 35.2898 36.3944 35.4464 36.5186 35.7642C36.7033 36.2369 38.8136 36.3136 39.9606 36.2248C41.4827 36.107 45.7486 36.2189 44.4344 35.1726C44.2356 35.0143 42.7546 34.953 43.1433 35.039C43.4876 35.1151 43.572 35.3528 43.1692 35.4399C42.5541 35.5728 41.9653 35.4695 41.31 35.5347Z" fill="#A1ECF2"/>
<path d="M87.31 36.0347C85.8014 36.1848 84.4187 36.479 84.4187 35.6726C83.9771 35.7898 82.3944 35.9464 82.5186 36.2642C82.7033 36.7369 84.8136 36.8136 85.9606 36.7248C87.4827 36.607 91.7486 36.7189 90.4344 35.6726C90.2356 35.5143 88.7546 35.453 89.1433 35.539C89.4876 35.6151 89.572 35.8528 89.1692 35.9399C88.5541 36.0728 87.9653 35.9695 87.31 36.0347Z" fill="#A1ECF2"/>
<path d="M124.31 34.5347C122.801 34.6848 121.419 34.979 121.419 34.1726C120.977 34.2898 119.394 34.4464 119.519 34.7642C119.703 35.2369 121.814 35.3136 122.961 35.2248C124.483 35.107 128.749 35.2189 127.434 34.1726C127.236 34.0143 125.755 33.953 126.143 34.039C126.488 34.1151 126.572 34.3528 126.169 34.4399C125.554 34.5728 124.965 34.4695 124.31 34.5347Z" fill="#A1ECF2"/>
<path d="M161.31 24.5347C159.801 24.6848 158.419 24.979 158.419 24.1726C157.977 24.2898 156.394 24.4464 156.519 24.7642C156.703 25.2369 158.814 25.3136 159.961 25.2248C161.483 25.107 165.749 25.2189 164.434 24.1726C164.236 24.0143 162.755 23.953 163.143 24.039C163.488 24.1151 163.572 24.3528 163.169 24.4399C162.554 24.5728 161.965 24.4695 161.31 24.5347Z" fill="#A1ECF2"/>
<path d="M121.953 40.2761C124.169 40.6344 126.199 41.3366 126.199 39.412C126.848 39.6917 129.172 40.0653 128.99 40.824C128.719 41.952 125.619 42.1351 123.935 41.9232C121.699 41.642 115.434 41.909 117.364 39.412C117.656 39.0341 119.831 38.8879 119.26 39.0931C118.755 39.2748 118.631 39.842 119.222 40.0498C120.126 40.367 120.99 40.1204 121.953 40.2761Z" fill="#A1ECF2"/>
<path d="M159.983 35.8507C156.845 36.0896 153.968 36.5577 153.968 35.2747C153.049 35.4611 149.756 35.7102 150.014 36.216C150.399 36.968 154.789 37.09 157.176 36.9488C160.343 36.7613 169.218 36.9394 166.484 35.2747C166.07 35.0228 162.989 34.9253 163.798 35.062C164.514 35.1832 164.69 35.5614 163.852 35.6999C162.572 35.9114 161.347 35.7469 159.983 35.8507Z" fill="#A1ECF2"/>
<path d="M9.87261 44.8507C8.02621 45.0896 6.33398 45.5577 6.33398 44.2747C5.79347 44.4611 3.85644 44.7102 4.00847 45.216C4.23453 45.968 6.81721 46.09 8.22107 45.9488C10.084 45.7613 15.305 45.9394 13.6966 44.2747C13.4532 44.0228 11.6407 43.9253 12.1164 44.062C12.5378 44.1832 12.6411 44.5614 12.148 44.6999C11.3953 44.9114 10.6747 44.7469 9.87261 44.8507Z" fill="#BFECFF"/>
<path d="M87.5 24C81.2143 27.1369 50.5 32 40.5 23" stroke="#B5927A"/>
<path d="M40 23C33.7143 26.1369 11 24.5 1 15.5" stroke="#B5927A"/>
<rect width="1" height="17" transform="matrix(-1 0 0 1 41 18)" fill="#8B6B54"/>
<rect width="1" height="17" transform="matrix(-1 0 0 1 124 17)" fill="#8B6B54"/>
<rect width="1" height="17" transform="matrix(-1 0 0 1 87 19)" fill="#8B6B54"/>
<rect width="1" height="20" transform="matrix(-1 0 0 1 188 0)" fill="#8B6B54"/>
<rect width="1" height="13" transform="matrix(-1 0 0 1 161 11)" fill="#8B6B54"/>
<path d="M214 14.5L188 13C120.5 26.5 82 29.5 0.5 22.5L10 29.5C86 32.5 135.474 31.781 214 14.5Z" fill="#714B29"/>
<rect width="1" height="20" transform="matrix(-1 0 0 1 212 3)" fill="#8B6B54"/>
<rect width="1" height="25" transform="matrix(-1 0 0 1 10 20)" fill="#8B6B54"/>
<rect width="1" height="17" transform="matrix(-1 0 0 1 52 24)" fill="#8B6B54"/>
<rect width="1" height="17" transform="matrix(-1 0 0 1 89 25)" fill="#8B6B54"/>
<rect width="1" height="17" transform="matrix(-1 0 0 1 122 23)" fill="#8B6B54"/>
<rect width="1" height="17" transform="matrix(-1 0 0 1 159 18)" fill="#8B6B54"/>
<rect width="1" height="23" transform="matrix(-1 0 0 1 1 10)" fill="#8B6B54"/>
<rect width="1" height="13" transform="matrix(-1 0 0 1 188 15)" fill="#8B6B54"/>
<path d="M212 12.5C206.5 15.8333 193.9 21.5 187.5 17.5" stroke="#B5927A"/>
<path d="M187 18C180.714 21.1369 166.314 26.4696 159 22.7053" stroke="#B5927A"/>
<path d="M158.5 23C152.5 29.7053 128.314 33.4696 121 29.7053" stroke="#B5927A"/>
<path d="M122 30C116 36.7053 95.3143 38.2642 88 34.5" stroke="#B5927A"/>
<path d="M88.5 33C79 39 59.3143 36.7642 52 33" stroke="#B5927A"/>
<path d="M51.5 33C42 39 17.3143 32.7642 10 29" stroke="#B5927A"/>
<path d="M188 9C181.714 12.1369 167.314 17.4696 160 13.7053" stroke="#B5927A"/>
<path d="M161 14C154.714 17.1369 130.814 23.2642 123.5 19.5" stroke="#B5927A"/>
<path d="M124 19C117.714 22.1369 93.8143 28.2642 86.5 24.5" stroke="#B5927A"/>
</svg>
