<svg width="383" height="366" viewBox="0 0 383 366" fill="none" xmlns="http://www.w3.org/2000/svg">
<path opacity="0.9" d="M0.5 23C0.5 10.2974 10.7975 0 23.5 0H278C290.703 0 301 10.2975 301 23V141.639C301 154.342 290.703 164.639 278 164.639C275.964 164.639 273.912 164.639 271.9 164.639C264.721 164.639 258.872 170.504 259.172 177.677C265.545 330.243 383 366 383 366C383 366 244.687 321.669 225.016 176.519C224.11 169.838 218.603 164.639 211.861 164.639C168.572 164.639 68.6973 164.639 23.4816 164.639C10.7791 164.639 0.5 154.342 0.5 141.639V23Z" fill="white"/>
</svg>
