<svg width="62" height="78" viewBox="0 0 62 78" fill="none" xmlns="http://www.w3.org/2000/svg">
<path d="M15.1347 65.8956C18.1106 71.8475 23.8144 75.3194 26.2944 76.3114H50.846C53.8219 75.7162 56.0538 71.1035 56.7978 68.8715C59.7738 56.9678 63.3449 32.8629 53.8219 31.6725C44.299 30.4821 34.4784 31.1765 30.7585 31.6725V8.60911C30.7585 4.88919 29.4119 3.24743 28.5266 2.65726C27.7825 2.16128 25.6992 1.4669 23.3187 2.65726C20.9382 3.84763 20.3429 7.12115 20.3428 8.60911V48.0401C13.2006 34.946 8.5 33.1605 6.20691 33.1605C0.255064 33.1605 1.24704 39.1123 2.48701 42.0882C5.46293 47.5441 12.1588 59.9438 15.1347 65.8956Z" stroke="#2E2E2E" stroke-width="2.97592"/>
<line x1="34" y1="10.4639" x2="47.3916" y2="10.4639" stroke="#2E2E2E" stroke-width="2.97592"/>
<path d="M46.2861 5.02779C45.7491 4.40568 44.8096 4.33664 44.1875 4.87358C43.5653 5.41052 43.4963 6.35011 44.0332 6.97221L46.2861 5.02779ZM44.0332 6.97221L48.8257 12.5248L51.0785 10.5804L46.2861 5.02779L44.0332 6.97221Z" fill="#2E2E2E"/>
<path d="M43.2986 13.7034C42.6803 14.2448 42.618 15.1848 43.1593 15.8031C43.7007 16.4214 44.6408 16.4837 45.259 15.9423L43.2986 13.7034ZM45.259 15.9423L51.2086 10.7327L49.2482 8.49381L43.2986 13.7034L45.259 15.9423Z" fill="#2E2E2E"/>
<line y1="-1.48796" x2="13.0171" y2="-1.48796" transform="matrix(-1 0 0 1 17.3672 11.7854)" stroke="#2E2E2E" stroke-width="2.97592"/>
<path d="M5.3936 5.02779C5.93054 4.40568 6.87013 4.33664 7.49223 4.87358C8.11434 5.41052 8.18338 6.35011 7.64644 6.97221L5.3936 5.02779ZM7.64644 6.97221L2.98805 12.3695L0.735209 10.4251L5.3936 5.02779L7.64644 6.97221Z" fill="#2E2E2E"/>
<path d="M8.39795 13.4941C8.99549 14.0583 9.02256 15 8.4584 15.5975C7.89425 16.1951 6.95252 16.2221 6.35498 15.658L8.39795 13.4941ZM6.35498 15.658L0.978515 10.5819L3.02149 8.41806L8.39795 13.4941L6.35498 15.658Z" fill="#2E2E2E"/>
</svg>
