<svg width="732" height="674" viewBox="0 0 732 674" fill="none" xmlns="http://www.w3.org/2000/svg">
<g filter="url(#filter0_d_1375_2143)">
<rect width="300.161" height="150.91" rx="8" transform="matrix(-0.991909 0.135943 0.137161 0.989348 459.704 246.244)" fill="#FFAB00"/>
<path d="M172.605 350.823L311.073 346.935L179.167 394.971L172.605 350.823Z" fill="#E762CD"/>
<path d="M416.744 404.662L313.189 346.126L335.53 416.417L416.744 404.662Z" fill="#E762CD"/>
<path d="M477.968 386.58L474.227 362.268L311.632 345.619L416.163 404.586L469.403 397.9C476.744 396.323 477.925 394.289 477.968 386.58Z" fill="#A9158D"/>
<path d="M335.924 416.773L313.585 346.481L278.89 424.106L335.924 416.773Z" fill="#A9158D"/>
<path d="M179.292 394.626L312.175 347.021L219.036 432.519L193.88 436.509C186.552 436.694 183.784 433.66 182.982 422.979L179.292 394.626Z" fill="#A9158D"/>
<path d="M460.932 243.524L309.503 349.145L382.075 256.097L460.932 243.524Z" fill="#E762CD"/>
<path d="M314.541 265.969L311.076 346.935L244.278 276.754L314.541 265.969Z" fill="#E762CD"/>
<path d="M244.672 277.109L312.175 347.021L169.638 288.109L244.672 277.109Z" fill="#A9158D"/>
<path d="M313.314 345.781L466.256 308.201L459.91 258.34C459.56 253.74 458.17 250.095 452.048 248.476L313.314 345.781Z" fill="#A9158D"/>
<path d="M312.212 345.695L473.832 361.912L466.293 306.876L312.212 345.695Z" fill="#E762CD"/>
<path d="M278.765 424.451L313.188 346.125L217.23 432.702L278.765 424.451Z" fill="#E762CD"/>
<path d="M169.19 323.17L311.779 346.665L170.218 288.185C166.389 289.627 164.988 291.589 163.821 294.654L169.19 323.17Z" fill="#E762CD"/>
<path d="M169.315 322.824L313.152 347.452L173.274 351.879L169.315 322.824Z" fill="#A9158D"/>
<path d="M314.122 264.222L311.036 348.26L380.537 258.127L347.953 261.741L314.122 264.222Z" fill="#A9158D"/>
<path fill-rule="evenodd" clip-rule="evenodd" d="M488.035 232.26L554.838 222.48C554.838 222.48 557.73 230.484 561.656 233.966C565.093 237.015 572.279 239.221 572.279 239.221L590.525 372.176C590.525 372.176 583.144 376.138 580.592 380.44C578.079 384.678 578.199 392.708 578.199 392.708L511.395 402.488C507.715 396.357 499.918 398.018 498.834 404.327L178.521 451.221C178.521 451.221 175.505 442.579 171.056 439.262C167.247 436.421 159.444 435.287 159.444 435.287L141.198 302.331C141.198 302.331 148.297 298.2 151.13 294.067C154.177 289.623 155.16 280.993 155.16 280.993L475.473 234.099C480.809 238.326 483.609 238.497 488.035 232.26ZM454.512 252.226C454.125 249.495 451.595 247.616 448.861 248.027L174.076 289.385C171.342 289.796 169.438 292.343 169.825 295.074L188.883 429.704C189.27 432.435 191.8 434.315 194.534 433.903L469.319 392.546C472.054 392.134 473.957 389.587 473.57 386.857L454.512 252.226ZM485.072 252.925C481.919 253.389 479.019 251.276 478.594 248.204C478.17 245.132 480.381 242.265 483.534 241.8C486.687 241.336 489.588 243.449 490.012 246.521C490.437 249.593 488.225 252.46 485.072 252.925ZM481.054 266.003C481.479 269.075 484.379 271.189 487.532 270.724C490.685 270.259 492.896 267.392 492.472 264.321C492.047 261.249 489.147 259.135 485.994 259.6C482.841 260.064 480.629 262.931 481.054 266.003ZM489.994 288.523C486.841 288.987 483.941 286.874 483.516 283.802C483.091 280.73 485.303 277.863 488.456 277.398C491.609 276.934 494.509 279.047 494.934 282.119C495.358 285.191 493.147 288.058 489.994 288.523ZM485.976 301.601C486.401 304.673 489.301 306.786 492.454 306.322C495.607 305.857 497.819 302.99 497.394 299.918C496.97 296.846 494.069 294.733 490.916 295.197C487.763 295.662 485.552 298.529 485.976 301.601ZM494.483 323.969C491.33 324.434 488.429 322.32 488.005 319.249C487.58 316.177 489.792 313.31 492.945 312.845C496.098 312.38 498.998 314.494 499.422 317.566C499.847 320.638 497.635 323.505 494.483 323.969ZM490.553 337.177C490.978 340.248 493.878 342.362 497.031 341.897C500.184 341.433 502.396 338.566 501.971 335.494C501.546 332.422 498.646 330.308 495.493 330.773C492.34 331.238 490.128 334.105 490.553 337.177ZM499.58 359.824C496.427 360.289 493.527 358.175 493.102 355.104C492.677 352.032 494.889 349.165 498.042 348.7C501.195 348.235 504.095 350.349 504.52 353.421C504.945 356.493 502.733 359.36 499.58 359.824ZM495.655 373.03C496.079 376.102 498.98 378.216 502.133 377.751C505.286 377.286 507.497 374.419 507.073 371.347C506.648 368.276 503.748 366.162 500.595 366.627C497.442 367.091 495.23 369.958 495.655 373.03ZM504.667 394.553C501.514 395.018 498.614 392.904 498.189 389.832C497.764 386.76 499.976 383.893 503.129 383.429C506.282 382.964 509.182 385.078 509.607 388.15C510.031 391.222 507.82 394.089 504.667 394.553Z" fill="url(#paint0_linear_1375_2143)"/>
<path d="M420.58 264.798L423.114 278.587L415.22 281.606L424.681 287.109L427.215 300.898L430.528 290.51L439.988 296.012L432.575 284.089L435.887 273.701L427.993 276.721L420.58 264.798Z" fill="#FFF4FD"/>
<path d="M382.125 268.191L385.977 273.217L383.42 276.043L388.357 276.322L392.209 281.347L391.409 276.495L396.347 276.774L390.915 273.496L390.115 268.643L387.557 271.47L382.125 268.191Z" fill="#FFF4FD"/>
<path d="M217.749 356.191L221.001 362.534L217.928 364.796L223.011 366.455L226.263 372.797L226.152 367.479L231.236 369.138L226.084 364.193L225.974 358.875L222.9 361.137L217.749 356.191Z" fill="#FFF4FD"/>
<path d="M239.527 292.639L231.034 297.588L227.155 293.16L225.785 300.647L217.292 305.596L224.939 305.274L223.569 312.76L229.664 305.075L237.311 304.752L233.432 300.325L239.527 292.639Z" fill="#FFF4FD"/>
<path d="M449.541 348.406L445.649 361.878L437.228 361.095L443.244 370.205L439.352 383.677L446.962 375.835L452.978 384.944L451.665 370.988L459.275 363.145L450.854 362.362L449.541 348.406Z" fill="#FFF4FD"/>
<path d="M211.431 385.543L215.086 399.081L207.465 402.729L217.345 407.448L221.001 420.985L223.451 410.364L233.331 415.082L224.966 403.799L227.417 393.177L219.796 396.826L211.431 385.543Z" fill="#FFF4FD"/>
<path d="M191.187 324.066L188.297 337.785L179.84 337.617L186.51 346.265L183.62 359.984L190.633 351.609L197.303 360.257L194.967 346.433L201.98 338.058L193.523 337.889L191.187 324.066Z" fill="#FFF4FD"/>
<rect width="214.048" height="100.151" rx="8" transform="matrix(-0.990436 0.147397 0.151904 0.987032 420.822 281.155)" fill="#FFF7FD"/>
<path d="M550.957 368.759L554.113 373.685L559.398 372.207L556.063 376.729L559.219 381.655L554.002 379.524L550.667 384.046L550.778 378.207L545.561 376.077L550.846 374.598L550.957 368.759Z" fill="#FFE8F8"/>
</g>
<line y1="-0.5" x2="51.0644" y2="-0.5" transform="matrix(-0.990747 0.139362 -0.140802 -0.989528 573.708 361.449)" stroke="#FFE8F8"/>
<line y1="-0.5" x2="51.0644" y2="-0.5" transform="matrix(-0.990747 0.139362 -0.140802 -0.989528 573.258 358.287)" stroke="#FFE8F8"/>
<line y1="-0.5" x2="51.0644" y2="-0.5" transform="matrix(-0.990747 0.139362 -0.140802 -0.989528 572.809 355.125)" stroke="#FFE8F8"/>
<line y1="-0.5" x2="51.0644" y2="-0.5" transform="matrix(-0.990747 0.139362 -0.140802 -0.989528 572.582 353.544)" stroke="#FFE8F8"/>
<line y1="-0.5" x2="51.0644" y2="-0.5" transform="matrix(-0.990747 0.139362 -0.140802 -0.989528 571.908 348.802)" stroke="#FFE8F8"/>
<line y1="-0.5" x2="51.0644" y2="-0.5" transform="matrix(-0.990747 0.139362 -0.140802 -0.989528 572.132 350.383)" stroke="#FFE8F8"/>
<line y1="-0.5" x2="51.0644" y2="-0.5" transform="matrix(-0.990747 0.139362 -0.140802 -0.989528 571.458 345.64)" stroke="#FFE8F8"/>
<line y1="-0.5" x2="51.0644" y2="-0.5" transform="matrix(-0.990747 0.139362 -0.140802 -0.989528 571.006 342.477)" stroke="#FFE8F8"/>
<line y1="-0.5" x2="51.0644" y2="-0.5" transform="matrix(-0.990747 0.139362 -0.140802 -0.989528 570.784 340.896)" stroke="#FFE8F8"/>
<line y1="-0.5" x2="51.0644" y2="-0.5" transform="matrix(-0.990747 0.139362 -0.140802 -0.989528 570.332 337.734)" stroke="#FFE8F8"/>
<line y1="-0.5" x2="51.0644" y2="-0.5" transform="matrix(-0.990747 0.139362 -0.140802 -0.989528 569.883 334.572)" stroke="#FFE8F8"/>
<line y1="-0.5" x2="51.0644" y2="-0.5" transform="matrix(-0.990747 0.139362 -0.140802 -0.989528 569.657 332.991)" stroke="#FFE8F8"/>
<line y1="-0.5" x2="51.0644" y2="-0.5" transform="matrix(-0.990747 0.139362 -0.140802 -0.989528 569.433 331.41)" stroke="#FFE8F8"/>
<line y1="-0.5" x2="51.0644" y2="-0.5" transform="matrix(-0.990747 0.139362 -0.140802 -0.989528 568.983 328.248)" stroke="#FFE8F8"/>
<line y1="-0.5" x2="51.0644" y2="-0.5" transform="matrix(-0.990747 0.139362 -0.140802 -0.989528 568.535 325.085)" stroke="#FFE8F8"/>
<line y1="-0.5" x2="51.0644" y2="-0.5" transform="matrix(-0.990747 0.139362 -0.140802 -0.989528 568.083 321.924)" stroke="#FFE8F8"/>
<line y1="-0.5" x2="51.0644" y2="-0.5" transform="matrix(-0.990747 0.139362 -0.140802 -0.989528 567.856 320.343)" stroke="#FFE8F8"/>
<line y1="-0.5" x2="51.0644" y2="-0.5" transform="matrix(-0.990747 0.139362 -0.140802 -0.989528 567.408 317.18)" stroke="#FFE8F8"/>
<line y1="-0.5" x2="51.0644" y2="-0.5" transform="matrix(-0.990747 0.139362 -0.140802 -0.989528 566.958 314.018)" stroke="#FFE8F8"/>
<line y1="-0.5" x2="51.0644" y2="-0.5" transform="matrix(-0.990747 0.139362 -0.140802 -0.989528 566.51 310.856)" stroke="#FFE8F8"/>
<line y1="-0.5" x2="51.0644" y2="-0.5" transform="matrix(-0.990747 0.139362 -0.140802 -0.989528 566.51 310.856)" stroke="#FFE8F8"/>
<line y1="-0.5" x2="51.0644" y2="-0.5" transform="matrix(-0.990747 0.139362 -0.140802 -0.989528 566.282 309.275)" stroke="#FFE8F8"/>
<line y1="-0.5" x2="51.0644" y2="-0.5" transform="matrix(-0.990747 0.139362 -0.140802 -0.989528 566.06 307.694)" stroke="#FFE8F8"/>
<line y1="-0.5" x2="51.0644" y2="-0.5" transform="matrix(-0.990747 0.139362 -0.140802 -0.989528 565.608 304.533)" stroke="#FFE8F8"/>
<line y1="-0.5" x2="51.0644" y2="-0.5" transform="matrix(-0.990747 0.139362 -0.140802 -0.989528 565.16 301.37)" stroke="#FFE8F8"/>
<line y1="-0.5" x2="51.0644" y2="-0.5" transform="matrix(-0.990747 0.139362 -0.140802 -0.989528 562.233 280.817)" stroke="#FFE8F8"/>
<line y1="-0.5" x2="51.0644" y2="-0.5" transform="matrix(-0.990747 0.139362 -0.140802 -0.989528 564.933 299.789)" stroke="#FFE8F8"/>
<line y1="-0.5" x2="51.0644" y2="-0.5" transform="matrix(-0.990747 0.139362 -0.140802 -0.989528 564.483 296.627)" stroke="#FFE8F8"/>
<line y1="-0.5" x2="51.0644" y2="-0.5" transform="matrix(-0.990747 0.139362 -0.140802 -0.989528 564.259 295.046)" stroke="#FFE8F8"/>
<line y1="-0.5" x2="51.0644" y2="-0.5" transform="matrix(-0.990747 0.139362 -0.140802 -0.989528 563.81 291.884)" stroke="#FFE8F8"/>
<line y1="-0.5" x2="51.0644" y2="-0.5" transform="matrix(-0.990747 0.139362 -0.140802 -0.989528 563.133 287.141)" stroke="#FFE8F8"/>
<line y1="-0.5" x2="51.0644" y2="-0.5" transform="matrix(-0.990747 0.139362 -0.140802 -0.989528 563.36 288.722)" stroke="#FFE8F8"/>
<line y1="-0.5" x2="51.0644" y2="-0.5" transform="matrix(-0.990747 0.139362 -0.140802 -0.989528 562.684 283.979)" stroke="#FFE8F8"/>
<line y1="-0.5" x2="51.0644" y2="-0.5" transform="matrix(-0.990747 0.139362 -0.140802 -0.989528 561.784 277.655)" stroke="#FFE8F8"/>
<line y1="-0.5" x2="51.0644" y2="-0.5" transform="matrix(-0.990747 0.139362 -0.140802 -0.989528 561.335 274.493)" stroke="#FFE8F8"/>
<line y1="-0.5" x2="51.0644" y2="-0.5" transform="matrix(-0.990747 0.139362 -0.140802 -0.989528 560.884 271.33)" stroke="#FFE8F8"/>
<line y1="-0.5" x2="51.0644" y2="-0.5" transform="matrix(-0.990747 0.139362 -0.140802 -0.989528 560.884 271.33)" stroke="#FFE8F8"/>
<line y1="-0.5" x2="51.0644" y2="-0.5" transform="matrix(-0.990747 0.139362 -0.140802 -0.989528 560.659 269.75)" stroke="#FFE8F8"/>
<line y1="-0.5" x2="51.0644" y2="-0.5" transform="matrix(-0.990747 0.139362 -0.140802 -0.989528 560.208 266.587)" stroke="#FFE8F8"/>
<line y1="-0.5" x2="51.0644" y2="-0.5" transform="matrix(-0.990747 0.139362 -0.140802 -0.989528 559.986 265.006)" stroke="#FFE8F8"/>
<line y1="-0.5" x2="51.0644" y2="-0.5" transform="matrix(-0.990747 0.139362 -0.140802 -0.989528 559.535 261.844)" stroke="#FFE8F8"/>
<line y1="-0.5" x2="51.0644" y2="-0.5" transform="matrix(-0.990747 0.139362 -0.140802 -0.989528 559.084 258.682)" stroke="#FFE8F8"/>
<path d="M531.809 241.767L535.138 246.679L540.486 245.043L537.196 249.715L540.525 254.628L535.162 252.603L531.872 257.275L531.848 251.351L526.485 249.326L531.833 247.69L531.809 241.767Z" fill="#FFE8F8"/>
<path d="M116.613 279.289L216.424 295.458L220.514 294.735L219.467 288.701L223.214 286.232L221.061 285.161L225.071 280.854L222.821 275.403L226.612 274.926L224.994 270.577L228.596 268.43L226.082 264.816L230.5 258.35L128.953 239.348L130.28 244.341L125.546 250.256L128.929 251.939L125.209 255.602L125.886 258.696L122.311 262.038L122.843 265.453L120.67 270.279L121.356 273.771L116.613 279.289Z" fill="#FFBA2E" fill-opacity="0.92"/>
<defs>
<filter id="filter0_d_1375_2143" x="135.798" y="222.48" width="460.127" height="243.141" filterUnits="userSpaceOnUse" color-interpolation-filters="sRGB">
<feFlood flood-opacity="0" result="BackgroundImageFix"/>
<feColorMatrix in="SourceAlpha" type="matrix" values="0 0 0 0 0 0 0 0 0 0 0 0 0 0 0 0 0 0 127 0" result="hardAlpha"/>
<feOffset dy="9"/>
<feGaussianBlur stdDeviation="2.7"/>
<feComposite in2="hardAlpha" operator="out"/>
<feColorMatrix type="matrix" values="0 0 0 0 0 0 0 0 0 0 0 0 0 0 0 0 0 0 0.25 0"/>
<feBlend mode="normal" in2="BackgroundImageFix" result="effect1_dropShadow_1375_2143"/>
<feBlend mode="normal" in="SourceGraphic" in2="effect1_dropShadow_1375_2143" result="shape"/>
</filter>
<linearGradient id="paint0_linear_1375_2143" x1="693.175" y1="388.051" x2="-92.9235" y2="243.026" gradientUnits="userSpaceOnUse">
<stop offset="0.0987632" stop-color="#2C0D26"/>
<stop offset="0.82204" stop-color="#A9158D"/>
</linearGradient>
</defs>
</svg>
