<svg width="1396" height="368" viewBox="0 0 1396 368" fill="none" xmlns="http://www.w3.org/2000/svg">
<path d="M494.619 87.3181C610.375 75.45 706.98 56.722 844.063 52.9691C1091.58 46.193 1263.91 94.8952 1474.92 116.496C1473.47 200.083 1472.01 283.627 1470.54 367.126C1353.02 348.795 1255.54 324.707 1115.92 313.302C872.178 293.393 699.461 329.343 490.199 337.948C491.684 254.455 493.158 170.912 494.619 87.3181Z" fill="#F9F1D5"/>
<path d="M598 152.449C598 147.27 601.978 142.943 607.139 142.505C660.218 138.008 688.39 137.858 715.749 141.941C720.536 142.655 724 146.823 724 151.663V205.332C724 211.109 719.119 215.677 713.351 215.37C681.914 213.692 654.861 213.96 608.379 215.619C602.713 215.821 598 211.287 598 205.617V152.449Z" fill="#E5D0B0"/>
<path d="M1167 146.449C1167 141.27 1170.98 136.943 1176.14 136.505C1229.22 132.008 1257.39 131.858 1284.75 135.941C1289.54 136.655 1293 140.823 1293 145.663V199.332C1293 205.109 1288.12 209.677 1282.35 209.37C1250.91 207.692 1223.86 207.96 1177.38 209.619C1171.71 209.821 1167 205.287 1167 199.617V146.449Z" fill="#E5D0B0"/>
<path d="M872 112.566C872 107.338 876.052 102.989 881.265 102.607C944.836 97.956 977.992 97.8241 1010.51 102.088C1015.4 102.73 1019 106.943 1019 111.878V165.43C1019 171.171 1014.17 175.727 1008.44 175.456C970.561 173.664 938.58 173.938 882.343 175.673C876.697 175.848 872 171.322 872 165.673V112.566Z" fill="#E5D0B0"/>
<path d="M877.492 275.548L878.86 273.55L879.454 275.548L880.696 274.756L879.562 273.19L881.686 272.884L881.506 271.606L879.472 272.416L880.138 270.454H878.77L878.662 272.416L876.934 271.606L876.25 272.884L878.23 273.19L876.52 274.756L877.492 275.548ZM887.234 283H888.836L889.952 277.33H896.126L895.01 283H896.63L899.078 270.454H897.458L896.414 275.836H890.24L891.284 270.454H889.682L887.234 283ZM907.506 274.126L907.272 275.314C906.786 274.504 905.778 273.964 904.59 273.964C901.746 273.964 899.748 276.79 899.748 279.67C899.748 281.74 900.882 283.162 903.024 283.162C904.122 283.162 905.256 282.748 906.012 281.866L905.796 283H907.344L909.072 274.126H907.506ZM906.876 277.942C906.714 279.958 905.328 281.722 903.366 281.722C902.016 281.722 901.278 280.894 901.278 279.526C901.278 277.51 902.664 275.386 904.77 275.386C906.264 275.386 907.002 276.412 906.876 277.942ZM913.491 283.162C915.129 283.162 916.605 282.28 917.487 280.696L916.173 280.048C915.651 281.11 914.679 281.794 913.599 281.794C912.213 281.794 911.655 280.84 911.655 279.652C911.655 277.546 912.987 275.332 915.003 275.332C915.975 275.332 916.677 275.944 916.803 277.006L918.351 276.52C918.009 274.864 916.821 273.964 915.111 273.964C912.231 273.964 910.107 276.664 910.107 279.616C910.107 281.596 911.205 283.162 913.491 283.162ZM918.9 283H920.448L920.97 280.39L923.184 278.446L925.218 283H927.036L924.39 277.492L928.314 274.126H926.208L921.312 278.464L922.896 270.454H921.348L918.9 283ZM931.501 283.162C933.139 283.162 934.615 282.28 935.497 280.696L934.183 280.048C933.661 281.11 932.689 281.794 931.609 281.794C930.223 281.794 929.665 280.84 929.665 279.652C929.665 277.546 930.997 275.332 933.013 275.332C933.985 275.332 934.687 275.944 934.813 277.006L936.361 276.52C936.019 274.864 934.831 273.964 933.121 273.964C930.241 273.964 928.117 276.664 928.117 279.616C928.117 281.596 929.215 283.162 931.501 283.162ZM944.617 274.126L944.383 275.314C943.897 274.504 942.889 273.964 941.701 273.964C938.857 273.964 936.859 276.79 936.859 279.67C936.859 281.74 937.993 283.162 940.135 283.162C941.233 283.162 942.367 282.748 943.123 281.866L942.907 283H944.455L946.183 274.126H944.617ZM943.987 277.942C943.825 279.958 942.439 281.722 940.477 281.722C939.127 281.722 938.389 280.894 938.389 279.526C938.389 277.51 939.775 275.386 941.881 275.386C943.375 275.386 944.113 276.412 943.987 277.942ZM958.305 273.964C957.135 273.964 955.965 274.432 955.119 275.692C954.885 274.45 953.931 273.964 952.887 273.964C951.987 273.964 950.961 274.306 950.205 275.188L950.439 274.126H948.927L947.217 283H948.765L949.539 279.094C949.917 277.186 950.601 275.332 952.419 275.332C953.427 275.332 953.787 275.962 953.787 276.826C953.787 277.132 953.733 277.492 953.661 277.852L952.671 283H954.219L954.975 279.094C955.353 277.204 956.037 275.332 957.855 275.332C958.935 275.332 959.241 276.034 959.241 276.808C959.241 277.168 959.169 277.6 959.115 277.924L958.125 283H959.673L960.717 277.6C960.771 277.222 960.843 276.988 960.843 276.538C960.843 275.08 960.105 273.964 958.305 273.964ZM968.265 273.964C967.203 273.964 966.123 274.324 965.367 275.08L965.565 274.126H963.945L961.479 286.672H963.117L964.053 281.884C964.557 282.658 965.529 283.162 966.699 283.162C969.543 283.162 971.523 280.336 971.523 277.456C971.523 275.386 970.407 273.964 968.265 273.964ZM966.501 281.776C965.007 281.776 964.269 280.732 964.395 279.202C964.557 277.168 965.943 275.368 967.923 275.368C969.273 275.368 970.011 276.196 970.011 277.582C970.011 279.598 968.625 281.776 966.501 281.776ZM986.546 273.388C986.546 271.444 985.196 270.31 983.216 270.31C980.624 270.31 978.932 272.236 978.464 274.63L979.94 274.864C980.3 273.226 981.218 271.804 983.09 271.804C984.296 271.804 985.016 272.416 985.016 273.568C985.016 276.898 979.94 279.904 976.862 281.614L976.61 283H985.322L985.61 281.542H979.454C982.658 279.832 986.546 276.79 986.546 273.388ZM991.31 283.162C994.298 283.162 995.792 280.12 996.44 276.88C997.106 273.478 996.71 270.274 993.542 270.274C990.104 270.274 988.916 273.838 988.376 276.628C987.818 279.49 987.728 283.162 991.31 283.162ZM991.418 281.668C989.258 281.668 989.456 279.256 989.924 276.862C990.428 274.306 991.22 271.768 993.398 271.768C995.414 271.768 995.324 274.036 994.82 276.61C994.316 279.202 993.434 281.668 991.418 281.668ZM1006.98 273.388C1006.98 271.444 1005.63 270.31 1003.65 270.31C1001.06 270.31 999.368 272.236 998.9 274.63L1000.38 274.864C1000.74 273.226 1001.65 271.804 1003.53 271.804C1004.73 271.804 1005.45 272.416 1005.45 273.568C1005.45 276.898 1000.38 279.904 997.298 281.614L997.046 283H1005.76L1006.05 281.542H999.89C1003.09 279.832 1006.98 276.79 1006.98 273.388ZM1014.19 270.454L1014.05 271.318C1013.91 272.056 1013.37 272.434 1012.61 272.434H1010.7L1010.43 273.748H1013.49L1011.71 283H1013.26L1015.69 270.454H1014.19ZM1025.71 283.162C1027.67 283.162 1029.26 282.01 1029.26 280.174C1029.26 277.474 1025.06 278.014 1025.06 276.466C1025.06 275.692 1025.87 275.278 1026.83 275.278C1027.84 275.278 1028.41 275.71 1028.74 276.466L1030.03 275.89C1029.53 274.684 1028.47 273.964 1026.9 273.964C1024.99 273.964 1023.53 275.044 1023.53 276.628C1023.53 279.184 1027.75 278.68 1027.75 280.336C1027.75 281.308 1026.86 281.812 1025.73 281.812C1024.38 281.812 1023.75 281.074 1023.57 280.264L1022.18 280.732C1022.45 282.082 1023.79 283.162 1025.71 283.162ZM1034.11 275.296H1036.27L1036.49 274.126H1034.33L1035.01 270.616L1033.23 271.786L1032.78 274.126H1031.32L1031.09 275.296H1032.54L1031.5 280.732C1031.46 280.912 1031.43 281.164 1031.43 281.416C1031.43 282.604 1032.26 283.162 1033.39 283.162C1033.82 283.162 1034.33 283.072 1034.83 282.91L1034.99 281.65C1034.58 281.776 1034.18 281.866 1033.86 281.866C1033.3 281.866 1032.99 281.668 1032.99 281.146C1032.99 281.038 1033.01 280.876 1033.05 280.732L1034.11 275.296ZM1044.45 274.126L1044.22 275.314C1043.73 274.504 1042.72 273.964 1041.53 273.964C1038.69 273.964 1036.69 276.79 1036.69 279.67C1036.69 281.74 1037.83 283.162 1039.97 283.162C1041.07 283.162 1042.2 282.748 1042.96 281.866L1042.74 283H1044.29L1046.02 274.126H1044.45ZM1043.82 277.942C1043.66 279.958 1042.27 281.722 1040.31 281.722C1038.96 281.722 1038.22 280.894 1038.22 279.526C1038.22 277.51 1039.61 275.386 1041.71 275.386C1043.21 275.386 1043.95 276.412 1043.82 277.942ZM1050.35 275.296H1052.51L1052.72 274.126H1050.56L1051.25 270.616L1049.46 271.786L1049.01 274.126H1047.56L1047.32 275.296H1048.78L1047.74 280.732C1047.7 280.912 1047.66 281.164 1047.66 281.416C1047.66 282.604 1048.49 283.162 1049.63 283.162C1050.06 283.162 1050.56 283.072 1051.07 282.91L1051.23 281.65C1050.81 281.776 1050.42 281.866 1050.09 281.866C1049.54 281.866 1049.23 281.668 1049.23 281.146C1049.23 281.038 1049.25 280.876 1049.28 280.732L1050.35 275.296ZM1055.01 272.344H1056.63L1056.99 270.454H1055.37L1055.01 272.344ZM1052.98 283H1054.53L1056.26 274.126H1054.71L1052.98 283ZM1060.28 283.162C1062.24 283.162 1063.83 282.01 1063.83 280.174C1063.83 277.474 1059.63 278.014 1059.63 276.466C1059.63 275.692 1060.44 275.278 1061.4 275.278C1062.4 275.278 1062.98 275.71 1063.3 276.466L1064.6 275.89C1064.1 274.684 1063.03 273.964 1061.47 273.964C1059.56 273.964 1058.1 275.044 1058.1 276.628C1058.1 279.184 1062.31 278.68 1062.31 280.336C1062.31 281.308 1061.43 281.812 1060.3 281.812C1058.95 281.812 1058.32 281.074 1058.14 280.264L1056.75 280.732C1057.02 282.082 1058.35 283.162 1060.28 283.162ZM1068.68 275.296H1070.84L1071.06 274.126H1068.9L1069.58 270.616L1067.8 271.786L1067.35 274.126H1065.89L1065.66 275.296H1067.11L1066.07 280.732C1066.03 280.912 1066 281.164 1066 281.416C1066 282.604 1066.83 283.162 1067.96 283.162C1068.39 283.162 1068.9 283.072 1069.4 282.91L1069.56 281.65C1069.15 281.776 1068.75 281.866 1068.43 281.866C1067.87 281.866 1067.56 281.668 1067.56 281.146C1067.56 281.038 1067.58 280.876 1067.62 280.732L1068.68 275.296ZM1073.35 272.344H1074.97L1075.33 270.454H1073.71L1073.35 272.344ZM1071.31 283H1072.86L1074.59 274.126H1073.04L1071.31 283ZM1079.06 283.162C1080.7 283.162 1082.18 282.28 1083.06 280.696L1081.74 280.048C1081.22 281.11 1080.25 281.794 1079.17 281.794C1077.78 281.794 1077.23 280.84 1077.23 279.652C1077.23 277.546 1078.56 275.332 1080.57 275.332C1081.55 275.332 1082.25 275.944 1082.37 277.006L1083.92 276.52C1083.58 274.864 1082.39 273.964 1080.68 273.964C1077.8 273.964 1075.68 276.664 1075.68 279.616C1075.68 281.596 1076.78 283.162 1079.06 283.162ZM1087.44 283.162C1089.4 283.162 1090.99 282.01 1090.99 280.174C1090.99 277.474 1086.79 278.014 1086.79 276.466C1086.79 275.692 1087.6 275.278 1088.56 275.278C1089.57 275.278 1090.14 275.71 1090.47 276.466L1091.76 275.89C1091.26 274.684 1090.2 273.964 1088.63 273.964C1086.72 273.964 1085.26 275.044 1085.26 276.628C1085.26 279.184 1089.48 278.68 1089.48 280.336C1089.48 281.308 1088.59 281.812 1087.46 281.812C1086.11 281.812 1085.48 281.074 1085.3 280.264L1083.91 280.732C1084.18 282.082 1085.52 283.162 1087.44 283.162Z" fill="#482C16"/>
<path d="M644.295 199.56C651.911 199.56 659.247 195.472 659.247 186.736C659.247 182.872 657.623 179.456 653.423 177.608C655.887 176.208 657.175 173.576 657.175 170.328C657.175 163.384 651.295 159.408 644.519 159.408C637.463 159.408 631.247 163.776 631.247 171.392L639.591 171.952C639.647 169.208 641.383 167.472 644.183 167.472C646.703 167.472 648.719 168.816 648.719 171.616C648.719 173.52 647.991 175.368 642.671 175.368V181.976C646.423 181.976 650.791 181.696 650.791 186.344C650.791 190.264 647.599 191.496 644.575 191.496C640.767 191.496 637.743 189.536 637.743 185.784L629.343 186.288C629.343 195.36 636.567 199.56 644.295 199.56ZM679.228 171.728C677.884 171.728 676.26 171.84 674.58 172.624L675.476 168.032H691.212V159.968H668.588L664.668 180.744L672.452 182.648C673.348 181.136 675.028 179.624 678.052 179.624C682.532 179.624 683.932 182.424 683.932 185.168C683.932 188.08 682.476 191.552 678.052 191.552C673.74 191.552 671.948 188.36 671.836 186.064L663.548 187.464C664.388 194.184 670.436 199.616 678.164 199.616C686.844 199.616 692.892 192.616 692.892 185.168C692.892 178.112 687.404 171.728 679.228 171.728Z" fill="#532A2A"/>
<path d="M561.6 243H564.576V236.064H567.072C570.768 236.064 572.76 234.336 572.76 231.096C572.76 227.904 570.816 226.272 567.072 226.272H561.6V243ZM564.576 233.304V229.032H566.76C568.896 229.032 569.76 229.632 569.76 231.144C569.76 232.656 568.872 233.304 566.76 233.304H564.576ZM580.313 230.928C578.969 230.928 577.649 231.72 577.145 233.184V231.168H574.241V243H577.121V237.048C577.121 234.816 577.985 233.736 579.737 233.736C580.313 233.736 580.769 233.88 581.177 234.144L582.569 231.6C581.801 231.12 581.105 230.928 580.313 230.928ZM587.85 243.24C591.498 243.24 593.778 240.408 593.778 237.072C593.778 233.712 591.498 230.928 587.85 230.928C584.178 230.928 581.922 233.712 581.922 237.072C581.922 240.408 584.178 243.24 587.85 243.24ZM587.85 240.72C585.666 240.72 584.802 238.992 584.802 237.072C584.802 235.128 585.666 233.448 587.85 233.448C590.034 233.448 590.898 235.128 590.898 237.072C590.898 238.992 590.034 240.72 587.85 240.72ZM595.582 228.936H598.606V226.272H595.582V228.936ZM595.75 248.136C597.358 248.136 598.534 247.176 598.534 245.064V231.168H595.654V244.872C595.654 245.4 595.342 245.616 594.814 245.616C594.55 245.616 594.238 245.568 593.902 245.472V247.776C594.55 248.016 595.198 248.136 595.75 248.136ZM611.541 236.928C611.541 233.64 609.765 230.928 606.093 230.928C602.157 230.928 600.477 234.048 600.477 237.144C600.477 240.312 602.205 243.24 606.285 243.24C608.277 243.24 609.837 242.544 611.133 241.104L609.141 239.352C608.325 240.288 607.365 240.624 606.309 240.624C604.437 240.624 603.477 239.592 603.357 238.032H611.469C611.517 237.648 611.541 237.288 611.541 236.928ZM603.333 235.752C603.501 234.576 604.317 233.328 606.069 233.328C607.581 233.328 608.733 234.24 608.781 235.752H603.333ZM618.161 243.24C620.513 243.24 622.337 241.944 623.129 239.736L620.513 238.728C620.201 239.952 619.289 240.72 618.137 240.72C616.121 240.72 615.377 238.992 615.377 237.12C615.377 235.248 616.145 233.448 618.137 233.448C619.313 233.448 620.201 234.24 620.513 235.488L623.249 234.408C622.337 232.056 620.489 230.928 618.137 230.928C614.273 230.928 612.425 234 612.425 237.12C612.425 240.24 614.297 243.24 618.161 243.24ZM631.178 233.448V231.168H628.226V226.272L625.346 228.408V231.168H623.426V233.448H625.346V239.688C625.346 242.208 627.026 243.24 629.018 243.24C629.738 243.24 630.458 243.12 631.178 242.88V240.576C630.65 240.744 630.146 240.84 629.738 240.84C628.802 240.84 628.226 240.408 628.226 239.472V233.448H631.178ZM642.288 243.24C644.52 243.24 646.896 242.04 646.896 239.28C646.896 234.96 640.704 236.016 640.704 234.216C640.704 233.664 641.28 233.208 642.216 233.208C643.512 233.208 644.16 233.976 644.568 234.72L646.8 233.496C645.912 231.888 644.352 230.928 642.312 230.928C640.032 230.928 637.968 232.104 637.968 234.384C637.968 238.776 644.064 237.456 644.064 239.448C644.064 240.072 643.488 240.84 642.144 240.84C640.56 240.84 639.936 239.76 639.624 238.896L637.32 239.928C637.896 241.728 639.792 243.24 642.288 243.24ZM656.246 231.168V235.656C656.246 237.768 656.246 240.72 653.558 240.72C651.374 240.72 651.374 238.656 651.374 237.84V231.168H648.494V238.56C648.494 241.08 649.742 243.24 652.718 243.24C654.11 243.24 655.406 242.76 656.246 241.632V243H659.126V231.168H656.246ZM668.355 230.928C667.011 230.928 665.691 231.48 664.947 232.368V226.272H662.067V243H664.947V241.824C665.763 242.832 667.083 243.24 668.355 243.24C671.571 243.24 673.347 240.624 673.347 237.072C673.347 233.208 671.259 230.928 668.355 230.928ZM667.659 240.576C665.571 240.576 664.683 239.064 664.683 237.096C664.683 235.128 665.571 233.544 667.635 233.544C669.555 233.544 670.467 234.888 670.467 237.096C670.467 239.28 669.579 240.576 667.659 240.576ZM688.574 230.928C687.038 230.928 685.67 231.48 684.758 233.256C684.038 231.432 682.598 230.928 681.302 230.928C680.126 230.928 678.902 231.336 678.134 232.656V231.168H675.35L675.374 243H678.254V238.488C678.254 236.112 678.182 233.448 680.606 233.448C682.478 233.448 682.598 235.392 682.598 236.328V243H685.478V238.488C685.478 236.112 685.382 233.448 687.806 233.448C689.702 233.448 689.822 235.392 689.822 236.328V243H692.702V235.464C692.702 233.088 691.43 230.928 688.574 230.928ZM695.242 228.936H698.266V226.272H695.242V228.936ZM695.314 243H698.194V231.168H695.314V243ZM704.819 243.24C707.051 243.24 709.427 242.04 709.427 239.28C709.427 234.96 703.235 236.016 703.235 234.216C703.235 233.664 703.811 233.208 704.747 233.208C706.043 233.208 706.691 233.976 707.099 234.72L709.331 233.496C708.443 231.888 706.883 230.928 704.843 230.928C702.563 230.928 700.499 232.104 700.499 234.384C700.499 238.776 706.595 237.456 706.595 239.448C706.595 240.072 706.019 240.84 704.675 240.84C703.091 240.84 702.467 239.76 702.155 238.896L699.851 239.928C700.427 241.728 702.323 243.24 704.819 243.24ZM715.127 243.24C717.359 243.24 719.735 242.04 719.735 239.28C719.735 234.96 713.543 236.016 713.543 234.216C713.543 233.664 714.119 233.208 715.055 233.208C716.351 233.208 716.999 233.976 717.407 234.72L719.639 233.496C718.751 231.888 717.191 230.928 715.151 230.928C712.871 230.928 710.807 232.104 710.807 234.384C710.807 238.776 716.903 237.456 716.903 239.448C716.903 240.072 716.327 240.84 714.983 240.84C713.399 240.84 712.775 239.76 712.463 238.896L710.159 239.928C710.735 241.728 712.631 243.24 715.127 243.24ZM721.642 228.936H724.666V226.272H721.642V228.936ZM721.714 243H724.594V231.168H721.714V243ZM732.371 243.24C736.019 243.24 738.299 240.408 738.299 237.072C738.299 233.712 736.019 230.928 732.371 230.928C728.699 230.928 726.443 233.712 726.443 237.072C726.443 240.408 728.699 243.24 732.371 243.24ZM732.371 240.72C730.187 240.72 729.323 238.992 729.323 237.072C729.323 235.128 730.187 233.448 732.371 233.448C734.555 233.448 735.419 235.128 735.419 237.072C735.419 238.992 734.555 240.72 732.371 240.72ZM746.606 230.928C745.166 230.928 743.87 231.408 743.03 232.536V231.168H740.15V243H743.03V238.272C743.03 236.16 743.03 233.448 745.718 233.448C747.902 233.448 747.902 235.272 747.902 236.088V243H750.782V235.368C750.782 232.56 749.27 230.928 746.606 230.928ZM757.155 243.24C759.387 243.24 761.763 242.04 761.763 239.28C761.763 234.96 755.571 236.016 755.571 234.216C755.571 233.664 756.147 233.208 757.083 233.208C758.379 233.208 759.027 233.976 759.435 234.72L761.667 233.496C760.779 231.888 759.219 230.928 757.179 230.928C754.899 230.928 752.835 232.104 752.835 234.384C752.835 238.776 758.931 237.456 758.931 239.448C758.931 240.072 758.355 240.84 757.011 240.84C755.427 240.84 754.803 239.76 754.491 238.896L752.187 239.928C752.763 241.728 754.659 243.24 757.155 243.24Z" fill="#482C16"/>
<path d="M913.952 131.728C912.608 131.728 910.984 131.84 909.304 132.624L910.2 128.032H925.936V119.968H903.312L899.392 140.744L907.176 142.648C908.072 141.136 909.752 139.624 912.776 139.624C917.256 139.624 918.656 142.424 918.656 145.168C918.656 148.08 917.2 151.552 912.776 151.552C908.464 151.552 906.672 148.36 906.56 146.064L898.272 147.464C899.112 154.184 905.16 159.616 912.888 159.616C921.568 159.616 927.616 152.616 927.616 145.168C927.616 138.112 922.128 131.728 913.952 131.728ZM946.757 159.56C954.373 159.56 961.709 155.472 961.709 146.736C961.709 142.872 960.085 139.456 955.885 137.608C958.349 136.208 959.637 133.576 959.637 130.328C959.637 123.384 953.757 119.408 946.981 119.408C939.925 119.408 933.709 123.776 933.709 131.392L942.053 131.952C942.109 129.208 943.845 127.472 946.645 127.472C949.165 127.472 951.181 128.816 951.181 131.616C951.181 133.52 950.453 135.368 945.133 135.368V141.976C948.885 141.976 953.253 141.696 953.253 146.344C953.253 150.264 950.061 151.496 947.037 151.496C943.229 151.496 940.205 149.536 940.205 145.784L931.805 146.288C931.805 155.36 939.029 159.56 946.757 159.56ZM982.194 132.288H981.354L989.754 119.968H980.01L968.418 138.224C966.906 140.576 966.178 143.208 966.178 145.728C966.178 153.904 972.898 159.616 981.018 159.616C989.026 159.616 995.746 153.96 995.746 145.672C995.746 138.056 989.922 132.288 982.194 132.288ZM981.018 151.552C977.546 151.552 974.802 149.424 974.802 145.672C974.802 141.864 977.546 139.736 981.018 139.736C984.49 139.736 987.178 141.92 987.178 145.672C987.178 149.424 984.434 151.552 981.018 151.552Z" fill="#532A2A"/>
<path d="M852.16 203H855.16V195.776H862.48V203H865.48V186.272H862.48V193.016H855.16V186.272H852.16V203ZM873.369 190.928C871.209 190.928 869.457 191.768 868.041 193.472L870.129 195.224C870.993 194.072 872.121 193.448 873.321 193.448C874.689 193.448 875.553 194.24 875.553 195.536V195.872H872.601C871.257 195.872 870.249 196.04 869.457 196.4C868.305 196.928 867.681 197.984 867.681 199.376C867.681 201.632 869.457 203.24 871.953 203.24C873.513 203.24 874.857 202.568 875.553 201.464L875.793 203H878.433V195.536C878.433 192.68 876.489 190.928 873.369 190.928ZM872.409 200.792C871.257 200.792 870.561 200.264 870.561 199.424C870.561 198.992 870.729 198.656 871.041 198.44C871.425 198.152 872.001 198.032 872.985 198.032H875.553C875.553 199.568 874.137 200.792 872.409 200.792ZM885.672 203.24C888.024 203.24 889.848 201.944 890.64 199.736L888.024 198.728C887.712 199.952 886.8 200.72 885.648 200.72C883.632 200.72 882.888 198.992 882.888 197.12C882.888 195.248 883.656 193.448 885.648 193.448C886.824 193.448 887.712 194.24 888.024 195.488L890.76 194.408C889.848 192.056 888 190.928 885.648 190.928C881.784 190.928 879.936 194 879.936 197.12C879.936 200.24 881.808 203.24 885.672 203.24ZM892.402 203H895.282V199.544L897.106 197.528L900.562 203H903.994L899.074 195.752L903.49 191.168H899.626L895.282 195.968V186.272H892.402V203ZM914.617 196.928C914.617 193.64 912.841 190.928 909.169 190.928C905.233 190.928 903.553 194.048 903.553 197.144C903.553 200.312 905.281 203.24 909.361 203.24C911.353 203.24 912.913 202.544 914.209 201.104L912.217 199.352C911.401 200.288 910.441 200.624 909.385 200.624C907.513 200.624 906.553 199.592 906.433 198.032H914.545C914.593 197.648 914.617 197.288 914.617 196.928ZM906.409 195.752C906.577 194.576 907.393 193.328 909.145 193.328C910.657 193.328 911.809 194.24 911.857 195.752H906.409ZM922.604 190.928C921.26 190.928 919.94 191.72 919.436 193.184V191.168H916.532V203H919.412V197.048C919.412 194.816 920.276 193.736 922.028 193.736C922.604 193.736 923.06 193.88 923.468 194.144L924.86 191.6C924.092 191.12 923.396 190.928 922.604 190.928ZM929.201 203.24C931.433 203.24 933.809 202.04 933.809 199.28C933.809 194.96 927.617 196.016 927.617 194.216C927.617 193.664 928.193 193.208 929.129 193.208C930.425 193.208 931.073 193.976 931.481 194.72L933.713 193.496C932.825 191.888 931.265 190.928 929.225 190.928C926.945 190.928 924.881 192.104 924.881 194.384C924.881 198.776 930.977 197.456 930.977 199.448C930.977 200.072 930.401 200.84 929.057 200.84C927.473 200.84 926.849 199.76 926.537 198.896L924.233 199.928C924.809 201.728 926.705 203.24 929.201 203.24ZM947.247 190.928C945.903 190.928 944.583 191.72 944.079 193.184V191.168H941.175V203H944.055V197.048C944.055 194.816 944.919 193.736 946.671 193.736C947.247 193.736 947.703 193.88 948.111 194.144L949.503 191.6C948.735 191.12 948.039 190.928 947.247 190.928ZM959.992 196.928C959.992 193.64 958.216 190.928 954.544 190.928C950.608 190.928 948.928 194.048 948.928 197.144C948.928 200.312 950.656 203.24 954.736 203.24C956.728 203.24 958.288 202.544 959.584 201.104L957.592 199.352C956.776 200.288 955.816 200.624 954.76 200.624C952.888 200.624 951.928 199.592 951.808 198.032H959.92C959.968 197.648 959.992 197.288 959.992 196.928ZM951.784 195.752C951.952 194.576 952.768 193.328 954.52 193.328C956.032 193.328 957.184 194.24 957.232 195.752H951.784ZM966.443 201.2C964.955 201.008 963.755 200.768 963.755 199.904C963.755 199.616 963.875 199.424 964.091 199.28C964.787 199.568 965.555 199.736 966.371 199.736C968.963 199.736 971.171 198.056 971.171 195.416C971.171 194.648 970.979 193.952 970.667 193.352L972.371 191.96L970.859 190.136L969.059 191.672C968.267 191.192 967.307 190.928 966.275 190.928C963.635 190.928 961.427 192.704 961.427 195.272C961.427 196.304 961.787 197.24 962.387 197.984C961.691 198.584 961.283 199.328 961.283 200.36C961.283 201.584 961.859 202.328 962.699 202.784L960.995 203.864C960.971 203.984 960.947 204.104 960.947 204.392C960.947 206.84 962.963 208.136 966.491 208.136C969.683 208.136 971.939 207.08 971.939 204.608C971.939 201.776 968.843 201.512 966.443 201.2ZM966.323 193.328C967.547 193.328 968.291 194.12 968.291 195.344C968.291 196.496 967.643 197.384 966.323 197.384C964.979 197.384 964.307 196.472 964.307 195.344C964.307 194.144 965.099 193.328 966.323 193.328ZM966.611 205.976C965.267 205.976 963.803 205.664 963.803 204.656C963.803 204.608 963.803 204.536 963.827 204.464L964.859 203.48L965.843 203.624C967.547 203.864 969.059 203.96 969.059 204.872C969.059 205.688 967.835 205.976 966.611 205.976ZM973.713 188.936H976.737V186.272H973.713V188.936ZM973.785 203H976.665V191.168H973.785V203ZM983.29 203.24C985.522 203.24 987.898 202.04 987.898 199.28C987.898 194.96 981.706 196.016 981.706 194.216C981.706 193.664 982.282 193.208 983.218 193.208C984.514 193.208 985.162 193.976 985.57 194.72L987.802 193.496C986.914 191.888 985.354 190.928 983.314 190.928C981.034 190.928 978.97 192.104 978.97 194.384C978.97 198.776 985.066 197.456 985.066 199.448C985.066 200.072 984.49 200.84 983.146 200.84C981.562 200.84 980.938 199.76 980.626 198.896L978.322 199.928C978.898 201.728 980.794 203.24 983.29 203.24ZM996.19 193.448V191.168H993.238V186.272L990.358 188.408V191.168H988.438V193.448H990.358V199.688C990.358 202.208 992.038 203.24 994.03 203.24C994.75 203.24 995.47 203.12 996.19 202.88V200.576C995.662 200.744 995.158 200.84 994.75 200.84C993.814 200.84 993.238 200.408 993.238 199.472V193.448H996.19ZM1008.23 196.928C1008.23 193.64 1006.45 190.928 1002.78 190.928C998.842 190.928 997.162 194.048 997.162 197.144C997.162 200.312 998.89 203.24 1002.97 203.24C1004.96 203.24 1006.52 202.544 1007.82 201.104L1005.83 199.352C1005.01 200.288 1004.05 200.624 1002.99 200.624C1001.12 200.624 1000.16 199.592 1000.04 198.032H1008.15C1008.2 197.648 1008.23 197.288 1008.23 196.928ZM1000.02 195.752C1000.19 194.576 1001 193.328 1002.75 193.328C1004.27 193.328 1005.42 194.24 1005.47 195.752H1000.02ZM1016.21 190.928C1014.87 190.928 1013.55 191.72 1013.05 193.184V191.168H1010.14V203H1013.02V197.048C1013.02 194.816 1013.89 193.736 1015.64 193.736C1016.21 193.736 1016.67 193.88 1017.08 194.144L1018.47 191.6C1017.7 191.12 1017.01 190.928 1016.21 190.928ZM1028.96 196.928C1028.96 193.64 1027.18 190.928 1023.51 190.928C1019.58 190.928 1017.9 194.048 1017.9 197.144C1017.9 200.312 1019.62 203.24 1023.7 203.24C1025.7 203.24 1027.26 202.544 1028.55 201.104L1026.56 199.352C1025.74 200.288 1024.78 200.624 1023.73 200.624C1021.86 200.624 1020.9 199.592 1020.78 198.032H1028.89C1028.94 197.648 1028.96 197.288 1028.96 196.928ZM1020.75 195.752C1020.92 194.576 1021.74 193.328 1023.49 193.328C1025 193.328 1026.15 194.24 1026.2 195.752H1020.75ZM1038.36 186.272V192.368C1037.62 191.48 1036.3 190.928 1034.95 190.928C1032.05 190.928 1029.96 193.208 1029.96 197.072C1029.96 200.624 1031.74 203.24 1034.95 203.24C1036.23 203.24 1037.55 202.832 1038.36 201.824V203H1041.24V186.272H1038.36ZM1035.65 200.576C1033.73 200.576 1032.84 199.28 1032.84 197.096C1032.84 194.888 1033.75 193.544 1035.67 193.544C1037.74 193.544 1038.63 195.128 1038.63 197.096C1038.63 199.064 1037.74 200.576 1035.65 200.576Z" fill="#482C16"/>
<path d="M1213.43 185.048C1220.83 180.792 1225.98 173.008 1225.98 166.344C1225.98 158.616 1220.66 153.52 1213.38 153.52C1204.31 153.52 1199.43 161.304 1199.43 168.136L1207.72 168.808C1207.95 165.784 1208.9 161.696 1213.15 161.696C1216.35 161.696 1217.58 163.936 1217.58 166.624C1217.58 174.968 1205.48 182.976 1199.94 186.28V193H1227.49V185.048H1213.43ZM1245.68 153.968V155.76C1245.68 158.896 1244.17 159.96 1241.37 159.96H1236.94V166.624H1245.68V193H1254.14V153.968H1245.68Z" fill="#532A2A"/>
<path d="M1202.12 220.272L1197.8 232.056L1193.5 220.272H1189.21V237H1192.21V224.496L1196.36 235.536H1199.26L1203.42 224.496V237H1206.42V220.272H1202.12ZM1219.76 230.928C1219.76 227.64 1217.98 224.928 1214.31 224.928C1210.37 224.928 1208.69 228.048 1208.69 231.144C1208.69 234.312 1210.42 237.24 1214.5 237.24C1216.49 237.24 1218.05 236.544 1219.35 235.104L1217.36 233.352C1216.54 234.288 1215.58 234.624 1214.53 234.624C1212.65 234.624 1211.69 233.592 1211.57 232.032H1219.69C1219.73 231.648 1219.76 231.288 1219.76 230.928ZM1211.55 229.752C1211.72 228.576 1212.53 227.328 1214.29 227.328C1215.8 227.328 1216.95 228.24 1217 229.752H1211.55ZM1228.13 224.928C1226.69 224.928 1225.39 225.408 1224.55 226.536V225.168H1221.67V237H1224.55V232.272C1224.55 230.16 1224.55 227.448 1227.24 227.448C1229.42 227.448 1229.42 229.272 1229.42 230.088V237H1232.3V229.368C1232.3 226.56 1230.79 224.928 1228.13 224.928ZM1241.27 227.448V225.168H1238.32V220.272L1235.44 222.408V225.168H1233.52V227.448H1235.44V233.688C1235.44 236.208 1237.12 237.24 1239.11 237.24C1239.83 237.24 1240.55 237.12 1241.27 236.88V234.576C1240.74 234.744 1240.24 234.84 1239.83 234.84C1238.89 234.84 1238.32 234.408 1238.32 233.472V227.448H1241.27ZM1248.1 237.24C1251.75 237.24 1254.03 234.408 1254.03 231.072C1254.03 227.712 1251.75 224.928 1248.1 224.928C1244.43 224.928 1242.17 227.712 1242.17 231.072C1242.17 234.408 1244.43 237.24 1248.1 237.24ZM1248.1 234.72C1245.91 234.72 1245.05 232.992 1245.05 231.072C1245.05 229.128 1245.91 227.448 1248.1 227.448C1250.28 227.448 1251.15 229.128 1251.15 231.072C1251.15 232.992 1250.28 234.72 1248.1 234.72ZM1261.95 224.928C1260.61 224.928 1259.29 225.72 1258.78 227.184V225.168H1255.88V237H1258.76V231.048C1258.76 228.816 1259.62 227.736 1261.37 227.736C1261.95 227.736 1262.41 227.88 1262.81 228.144L1264.21 225.6C1263.44 225.12 1262.74 224.928 1261.95 224.928ZM1268.55 237.24C1270.78 237.24 1273.15 236.04 1273.15 233.28C1273.15 228.96 1266.96 230.016 1266.96 228.216C1266.96 227.664 1267.54 227.208 1268.47 227.208C1269.77 227.208 1270.42 227.976 1270.83 228.72L1273.06 227.496C1272.17 225.888 1270.61 224.928 1268.57 224.928C1266.29 224.928 1264.23 226.104 1264.23 228.384C1264.23 232.776 1270.32 231.456 1270.32 233.448C1270.32 234.072 1269.75 234.84 1268.4 234.84C1266.82 234.84 1266.19 233.76 1265.88 232.896L1263.58 233.928C1264.15 235.728 1266.05 237.24 1268.55 237.24Z" fill="#482C16"/>
<path d="M482 70L495.823 83.8225V339.693L482 357.201V70Z" fill="#AD795E"/>
<path d="M6.27881 27.1982C138.211 -24.6355 256.747 81.6064 300.087 141.445L314.721 164.033L243.239 153.889C210.031 67.6976 130.62 30.4171 84.4667 27.1982C24.8045 23.0372 -1.73236 31.6958 0.0874329 30.2878C1.776 28.9815 4.77786 27.7926 6.27881 27.1982Z" fill="url(#paint0_linear_667_534)"/>
<path d="M184.709 120.291C210.955 80.437 268.549 42.9321 294.065 29.1614C222.376 131.227 247.285 110.571 244.247 130.619C241.817 146.658 203.543 130.417 184.709 120.291Z" fill="#DC5757"/>
<path d="M211.441 138.829C216.787 138.829 223.389 132.753 226.021 129.716C200.505 131.538 196.252 124.855 196.252 132.753C196.252 139.072 153.32 182.773 131.854 203.834C145.827 202.619 204.758 138.829 211.441 138.829Z" fill="url(#paint1_linear_667_534)"/>
<path d="M66.5062 163.425C84.0031 145.929 152.776 127.379 184.975 120.291C200.568 122.518 230.783 127.581 226.894 130.011C222.034 133.049 204.416 140.339 200.163 135.479C196.761 131.591 109.641 152.49 66.5062 163.425Z" fill="url(#paint2_linear_667_534)"/>
<path d="M355.426 126.974C343.781 141.875 295.056 167.877 283.129 170.205L300.717 177.772C304.356 179.324 316.485 181.498 335.892 177.772C360.15 173.116 362.252 166.321 367.428 152.743C376.525 128.878 375.923 129.098 398.357 82.3131C420.797 35.519 461.43 21.1959 467.494 18.2856C496.381 4.42304 539.663 5.48005 556.038 7.22626C570.516 8.77029 608.194 17.7035 628.207 22.9421C486.901 -34.6827 417.764 31.6731 401.39 54.3737C385.015 77.0744 369.981 108.348 355.426 126.974Z" fill="#DC5757"/>
<path d="M491.512 40.984C513.384 26.7008 594.59 24.1757 628.207 22.7581C516.421 -19.1615 444.733 16.0753 416.786 50.097C394.429 77.3144 364.133 145.2 357.856 168.286C375.474 180.437 380.334 179.829 385.195 191.98C389.083 201.7 414.356 219.724 422.254 224.786C422.861 222.356 422.254 210.206 425.292 188.942C434.141 126.995 461.743 60.425 491.512 40.984Z" fill="url(#paint3_linear_667_534)"/>
<path d="M117.881 38.8821C119.224 35.957 126.994 35.2372 130.032 35.2372C140.967 35.8445 144.863 42.885 147.262 45.5122C148.42 46.7799 144.005 50.4251 139.752 51.6403C137.126 52.3906 127.243 51.52 122.741 47.995C120.311 46.0924 116.202 42.5384 117.881 38.8821Z" fill="#AE5C5C"/>
<path d="M469.034 260.631C465.091 256.688 428.104 233.291 422.862 208.383C421.199 200.485 413.675 204.278 411.318 208.991C409.496 212.636 407.216 218.065 408.888 224.179C410.995 231.881 397.953 235.114 418.609 241.19C432.784 245.359 446.394 261.713 451.5 262.5C456.606 263.287 470.856 262.453 469.034 260.631Z" fill="#DC5757"/>
<path d="M482.309 267.123C479.572 263.631 466.711 260.134 460.646 254.352C453.713 247.744 450.804 248.723 449.5 249C445.552 249.837 445.897 258.255 447.745 260.246C449.811 262.473 451.167 263.149 457.15 266.271C464.245 269.974 476.978 274.483 479.975 274.173C482.972 273.864 484.503 269.922 482.309 267.123Z" fill="#DC5757"/>
<path d="M460.5 286.5C456.32 280.23 404.028 235.722 416.786 240.582C424.735 243.61 393.642 223.964 391.884 223.151C386.561 220.69 376.523 219.683 376.689 225.394C376.898 232.587 354.655 242.557 379.727 244.227C393.402 245.139 451.462 290.64 454.5 295.5C456.906 299.349 461.5 288 460.5 286.5Z" fill="#DC5757"/>
<path d="M255.585 143.985C250.725 137.18 248.501 133.464 243.641 121.92C235.135 125.566 223.386 138.71 215.488 143.57C209.17 147.458 207.594 162.413 207.796 168.893C209.416 168.893 212.949 163.245 218.124 162.21C224.2 160.995 234.527 159.173 243.434 163.619C248.111 165.953 258.828 181.652 261.258 195.017C263.578 207.776 275.231 218.711 287.784 225.587C316.205 241.154 370.614 244.835 382.961 244.006C391.251 243.45 422.06 234.043 423.469 224.179C427.722 194.41 402.205 183.475 400.383 182.259C389.036 174.693 358.258 167.264 345.5 164.834C332.742 162.404 261.66 152.49 255.585 143.985Z" fill="#DC5757"/>
<path d="M217.516 148.845C223.649 140.667 229.06 130.619 226.976 129.203C199.751 148.626 214.479 130.011 196.253 149.452C187.87 158.394 151.599 192.46 132.462 204.13C151.354 205.146 204.758 174.969 212.656 164.641C216.301 160.388 213.871 153.705 217.516 148.845Z" fill="url(#paint4_linear_667_534)"/>
<path d="M481.638 301.572C479.776 298.83 467.39 294.832 463.634 289.825C459.989 284.965 455.988 283.856 455 284C452.008 284.436 452.939 292.042 454 294.5C455.4 297.743 460.22 300.111 462.5 301.5C467.605 304.609 476.165 307.796 478.419 307.709C480.674 307.622 483.13 303.77 481.638 301.572Z" fill="#DC5757"/>
<path d="M260.043 190.157C302.654 187.055 348.92 228.121 358.463 243.013C343.15 242.392 307.854 235.563 294.548 230.603C271.245 221.917 263.688 208.383 260.043 190.157Z" fill="url(#paint5_linear_667_534)"/>
<path fill-rule="evenodd" clip-rule="evenodd" d="M201.381 110.946C201.866 109.523 203.147 108.396 204.697 107.651C206.364 106.852 208.419 106.454 210.376 106.608C212.334 106.761 214.238 107.471 215.537 108.936C216.843 110.409 217.473 112.573 217.024 115.508C216.984 115.771 216.727 115.956 216.451 115.921C216.175 115.885 215.983 115.643 216.024 115.38C216.442 112.645 215.838 110.777 214.761 109.562C213.677 108.339 212.051 107.705 210.281 107.567C209.004 107.467 207.676 107.628 206.473 107.995C208.824 108.164 210.783 109.893 211.053 112.209C211.361 114.847 209.36 117.248 206.584 117.572C203.809 117.895 201.31 116.019 201.002 113.381C200.902 112.523 201.046 111.69 201.381 110.946Z" fill="black"/>
<path d="M414.552 30.1382C416.932 32.3046 418.93 34.7048 419.508 36.0201C418.996 45.6514 410.674 48.0199 407.443 49.5102C404.213 51.0006 397.147 43.4888 396.282 40.8985C395.416 38.3082 395.94 34.8963 400.663 31.6734C405.386 28.4505 411.576 27.4302 414.552 30.1382Z" fill="#DC5757"/>
<path d="M397.345 24.6338C400.261 23.1757 407.471 26.8614 410.711 28.8865C408.888 29.899 405.122 31.4381 404.636 29.494C404.15 27.5499 399.573 25.4438 397.345 24.6338Z" fill="#D9D9D9"/>
<path d="M107.481 46.8976C107.488 43.499 114.983 39.5929 118.73 38.0646C118.83 40.2512 118.469 44.4286 116.224 43.6463C113.979 42.864 109.46 45.4879 107.481 46.8976Z" fill="#D9D9D9"/>
<path d="M489.06 272.851C487.588 274.834 479.1 274.463 475.04 274.03C475.893 272.718 478.022 270.406 479.723 271.657C481.423 272.908 486.656 272.974 489.06 272.851Z" fill="url(#paint6_linear_667_534)"/>
<path d="M490.814 306.319C489.677 308.48 481.356 308.1 477.337 307.639C477.971 306.209 479.7 303.689 481.543 305.045C483.385 306.402 488.491 306.46 490.814 306.319Z" fill="url(#paint7_linear_667_534)"/>
<path d="M387.702 28.8308C390.761 26.3652 400.025 29.4381 404.275 31.2827C402.388 32.951 398.357 35.7027 397.336 33.3631C396.315 31.0236 390.488 29.3667 387.702 28.8308Z" fill="#D9D9D9"/>
<path d="M111.961 53.1242C111.209 49.0895 119.083 42.599 123.114 39.858C123.72 42.4281 124.231 47.4749 121.437 47.1022C118.642 46.7294 113.955 50.9615 111.961 53.1242Z" fill="#D9D9D9"/>
<path d="M493.084 264.51C492.361 267.244 482.616 269.477 477.834 270.253C478.176 268.481 479.486 265.164 481.993 266.066C484.501 266.968 490.432 265.404 493.084 264.51Z" fill="url(#paint8_linear_667_534)"/>
<path d="M489.403 297.232C489.623 300.15 480.826 303.996 476.399 305.554C476.132 303.684 476.289 300.074 479.055 300.598C481.821 301.122 487.106 298.572 489.403 297.232Z" fill="url(#paint9_linear_667_534)"/>
<path d="M386.661 39.3015C388.273 36.4678 396.314 35.5212 400.134 35.4021C399.182 37.2573 396.908 40.6313 395.422 39.2859C393.937 37.9405 388.962 38.7357 386.661 39.3015Z" fill="#D9D9D9"/>
<path d="M118.874 58.0375C118.13 54.8632 123.383 48.7017 126.102 46.0178C126.666 48.0251 127.292 52.0456 125.288 52.0689C123.285 52.0921 120.177 56.0577 118.874 58.0375Z" fill="#D9D9D9"/>
<path d="M486.544 258.321C486.743 260.54 480.609 265.071 477.516 267.059C477.3 265.659 477.356 262.838 479.311 262.755C481.266 262.671 484.948 259.764 486.544 258.321Z" fill="url(#paint10_linear_667_534)"/>
<path d="M485.523 293.119C485.85 295.429 479.737 299.287 476.64 300.928C476.339 299.458 476.244 296.562 478.266 296.733C480.288 296.903 483.946 294.395 485.523 293.119Z" fill="url(#paint11_linear_667_534)"/>
<path d="M292.5 163C268.9 155.8 278.333 151.333 286 150C339.5 137 344.5 147.5 347.5 156C350.5 164.5 322 172 292.5 163Z" fill="url(#paint12_linear_667_534)"/>
<path d="M279.807 153.743C285.852 157.724 294.589 158.07 302.417 159.137L301.562 141.185C301.562 141.185 278.231 139.337 277.617 141.888C277.003 144.438 275.008 150.583 279.807 153.743Z" fill="url(#paint13_linear_667_534)"/>
<path d="M297.853 130.559C302.252 126.329 311.631 115.941 306.865 111.833C300.299 106.172 293.344 110.311 285.151 119.73C276.668 129.483 275.363 134.869 279.34 138.298C283.318 141.727 285.782 142.164 297.853 130.559Z" fill="url(#paint14_linear_667_534)"/>
<ellipse rx="4.86357" ry="4.58074" transform="matrix(-1 0 0 1 332.755 143.128)" fill="#B39379"/>
<path d="M289.379 130.441C286.567 146.452 301.137 157.727 313.471 157.08C325.805 156.433 338.181 140.488 331.003 120.326C322.142 95.4379 322.287 100.813 309.953 101.459C297.619 102.106 293.624 106.281 289.379 130.441Z" fill="#C49E80"/>
<path fill-rule="evenodd" clip-rule="evenodd" d="M299.599 153.1C292.612 148.537 287.629 140.406 289.379 130.44C291.077 120.779 292.734 114.313 294.901 109.991C301.416 111.316 306.903 120.271 307.606 131.387C308.236 141.336 304.84 149.966 299.599 153.1Z" fill="#E1C7B3"/>
<path d="M300.001 158.235C304.052 160.63 311.216 160.066 317.228 159.174C323.294 158.274 329.876 155.153 331.178 149.183C332.136 144.793 330.339 141.358 323.319 141.851C323.319 141.851 296.711 141.614 296.329 144.632C295.947 147.65 294.472 154.966 300.001 158.235Z" fill="url(#paint15_linear_667_534)"/>
<path d="M282.497 89.6853C281.655 95.198 283.83 103.112 291.069 104.028C298.309 104.944 318.041 106.611 318.883 101.099C319.724 95.586 305.299 87.1136 298.06 86.1973C290.821 85.2811 283.338 84.1726 282.497 89.6853Z" fill="#C49E80"/>
<path d="M287.381 85.1878C288.196 98.0688 292.66 105.864 307.455 105.089C322.25 104.313 337.254 95.4966 336.439 82.6156C335.624 69.7346 322.97 59.9214 308.175 60.6971C293.379 61.4729 286.567 72.3068 287.381 85.1878Z" fill="#C59E80"/>
<ellipse rx="28.6302" ry="8.60237" transform="matrix(-0.909184 -0.416396 -0.483605 0.875287 317.562 71.1715)" fill="#FFD80B"/>
<path d="M306.534 60.5947C304.849 63.6457 309.784 67.3405 317.278 70.7728C324.772 74.205 331.987 76.0749 333.673 73.024C335.359 69.973 332.899 60.6468 325.405 57.2146C317.911 53.7823 308.22 57.5438 306.534 60.5947Z" fill="url(#paint16_linear_667_534)"/>
<path d="M304.39 61.5872C307.632 52.5514 316.675 57.1801 315.214 67.9819C314.932 70.0639 312.444 70.7217 310.835 69.3363L305.273 64.5463C304.416 63.8079 304.013 62.6386 304.39 61.5872Z" fill="#A78B75"/>
<path fill-rule="evenodd" clip-rule="evenodd" d="M304.845 64.0936C306.975 56.8022 311.734 58.8556 310.618 69.1498L305.273 64.5463C305.114 64.4091 304.97 64.257 304.845 64.0936Z" fill="#E1C7B3"/>
<path d="M343.161 103.043C342.423 102.203 341.419 101.619 340.323 101.422C333.293 100.157 329.5 101.108 325.07 104.778C323.973 105.687 323.446 107.098 323.572 108.538C324.651 120.805 326.837 127.758 331.88 137.396C332.697 138.958 334.293 140.013 336.05 140.131C341.295 140.483 345.027 140.122 350.36 136.461C351.331 135.794 351.964 134.748 352.15 133.583C354.325 119.986 351.844 112.933 343.161 103.043Z" fill="#E67070"/>
<path d="M323.062 107.148C323.625 112.097 332.629 117.145 338.802 116.563C357.192 116.67 350.559 111.002 348.959 106.548C346.985 101.054 342.935 98.0587 336.762 98.641C330.59 99.2233 322.498 102.199 323.062 107.148Z" fill="#D94B4B"/>
<path d="M336.095 98.7039C344.227 99.6327 349.977 114.24 349.082 120.966L346.983 121.778C348.06 114.832 342.404 100.708 333.944 99.0603C334.955 98.7844 335.282 98.7726 336.095 98.7039Z" fill="#D9D9D9"/>
<rect width="4.39873" height="2.68841" rx="1.3442" transform="matrix(-0.94533 0.31302 0.37278 0.933206 346.633 107.227)" fill="#D9D9D9"/>
<rect width="4.41701" height="2.67521" rx="1.3376" transform="matrix(-0.981155 0.183966 0.221083 0.977396 350.081 120.361)" fill="#D9D9D9"/>
<path d="M320.441 124.009C323.125 129.439 330.271 141.547 336.388 139.04C344.817 135.586 343.22 127.991 336.62 117.28C329.785 106.189 324.698 102.974 319.593 105.067C314.487 107.159 313.075 109.111 320.441 124.009Z" fill="url(#paint17_linear_667_534)"/>
<path d="M293.165 104.226C304.379 100.153 311.21 100.6 322.676 101.384C324.684 97.7036 328.146 97.5162 331.199 98.0318C331.335 100.695 331.05 101.054 327.776 102.341C331.777 102.49 331.691 103.911 331.395 106.433C329.059 105.939 326.278 105.295 323.815 103.466C312.554 111.187 304.964 116.277 292.765 118.43C288.943 116.076 289.171 114.466 292.778 111.196C292.636 109.097 293.067 108.482 294.959 108.637C292.581 106.908 292.177 105.942 293.165 104.226Z" fill="#FFD80B"/>
<path fill-rule="evenodd" clip-rule="evenodd" d="M294.091 107.964C300.739 108.601 304.186 107.818 308.995 106.725L308.995 106.725L308.995 106.725C310.307 106.427 311.72 106.106 313.327 105.785C311.152 106.396 309.484 107.015 307.978 107.575C304.689 108.796 302.167 109.733 296.794 109.683L294.842 108.628C294.88 108.63 294.919 108.633 294.959 108.637C294.633 108.4 294.344 108.177 294.091 107.964ZM292.777 111.18C297.649 111.672 301.211 111.189 306.435 109.829C303.299 110.909 302.652 111.087 298.313 111.782C294.65 112.368 293.111 111.524 292.721 111.247C292.74 111.23 292.759 111.213 292.778 111.195C292.777 111.19 292.777 111.185 292.777 111.18Z" fill="black" fill-opacity="0.07"/>
<ellipse rx="2.51493" ry="4.27681" transform="matrix(-0.998628 0.0523614 0.0631286 0.998005 295.112 85.2413)" fill="#372831"/>
<path fill-rule="evenodd" clip-rule="evenodd" d="M291.069 104.028C283.83 103.112 281.655 95.1984 282.496 89.6857C282.899 87.0478 284.823 85.926 287.512 85.5737C290.792 85.8807 293.076 89.1493 294.567 93.2464C296.388 98.2499 296.391 103.093 293.127 104.269C292.366 104.187 291.674 104.105 291.069 104.028Z" fill="#E1C7B3"/>
<path d="M324.182 130.518C317.575 119.72 315.288 112.379 324.375 104.354L324.021 104.067C313.318 112.203 315.3 119.017 324.182 130.518Z" fill="#D94B4B"/>
<path fill-rule="evenodd" clip-rule="evenodd" d="M282.78 95.8334C282.88 96.2447 282.997 96.6522 283.132 97.0529C283.644 97.417 284.087 97.7111 284.489 97.9297C285.041 98.2295 285.554 98.4085 286.11 98.4231C286.661 98.4376 287.193 98.2883 287.777 98.0374C288.356 97.7885 289.033 97.4184 289.873 96.9551C290.111 96.8241 290.187 96.5425 290.043 96.326C289.899 96.1096 289.59 96.0403 289.352 96.1713C288.498 96.6421 287.869 96.9845 287.347 97.2089C286.83 97.4312 286.465 97.5159 286.139 97.5074C285.817 97.4989 285.474 97.3979 285.005 97.1429C284.528 96.8841 283.961 96.4888 283.191 95.9259C283.071 95.8381 282.92 95.8087 282.78 95.8334Z" fill="#776969"/>
<path fill-rule="evenodd" clip-rule="evenodd" d="M282.438 90.1089C282.456 89.9663 282.475 89.825 282.497 89.6853C282.702 88.3383 283.304 87.3866 284.203 86.7309C285.091 86.6816 286.247 86.7428 286.73 87.3104C288.313 89.1714 283.727 90.4215 282.438 90.1089Z" fill="#776969"/>
<defs>
<linearGradient id="paint0_linear_667_534" x1="45" y1="9.49999" x2="282.5" y2="164" gradientUnits="userSpaceOnUse">
<stop stop-color="#BC6767"/>
<stop offset="1" stop-color="#924545"/>
<stop offset="1" stop-color="#893737"/>
</linearGradient>
<linearGradient id="paint1_linear_667_534" x1="132" y1="200" x2="205" y2="137" gradientUnits="userSpaceOnUse">
<stop stop-color="#942535"/>
<stop offset="1" stop-color="#4F0B15"/>
</linearGradient>
<linearGradient id="paint2_linear_667_534" x1="146.871" y1="120.291" x2="147" y2="151" gradientUnits="userSpaceOnUse">
<stop stop-color="#DC8947"/>
<stop offset="1" stop-color="#F4AB70"/>
</linearGradient>
<linearGradient id="paint3_linear_667_534" x1="493.031" y1="3.64502" x2="549" y2="165.5" gradientUnits="userSpaceOnUse">
<stop stop-color="#E99999"/>
<stop offset="1" stop-color="#F7C8C8" stop-opacity="0.75"/>
</linearGradient>
<linearGradient id="paint4_linear_667_534" x1="195.5" y1="130" x2="173.959" y2="209.966" gradientUnits="userSpaceOnUse">
<stop stop-color="#EA9E61"/>
<stop offset="1" stop-color="#D57F3A" stop-opacity="0.93"/>
</linearGradient>
<linearGradient id="paint5_linear_667_534" x1="309.253" y1="189.99" x2="309.253" y2="243.013" gradientUnits="userSpaceOnUse">
<stop offset="0.136478" stop-color="#E9A7A7"/>
<stop offset="0.945611" stop-color="#DD8E8E"/>
</linearGradient>
<linearGradient id="paint6_linear_667_534" x1="474.551" y1="272.123" x2="489.484" y2="278.794" gradientUnits="userSpaceOnUse">
<stop stop-color="#D9D9D9"/>
<stop offset="0.932352" stop-color="#B9AEAE"/>
</linearGradient>
<linearGradient id="paint7_linear_667_534" x1="476.576" y1="305.566" x2="492.886" y2="309.844" gradientUnits="userSpaceOnUse">
<stop stop-color="#D9D9D9"/>
<stop offset="0.932352" stop-color="#B9AEAE"/>
</linearGradient>
<linearGradient id="paint8_linear_667_534" x1="476.383" y1="268.22" x2="496.429" y2="268.712" gradientUnits="userSpaceOnUse">
<stop stop-color="#D9D9D9"/>
<stop offset="0.932352" stop-color="#B9AEAE"/>
</linearGradient>
<linearGradient id="paint9_linear_667_534" x1="474.285" y1="303.702" x2="493.161" y2="297.905" gradientUnits="userSpaceOnUse">
<stop stop-color="#D9D9D9"/>
<stop offset="0.932352" stop-color="#B9AEAE"/>
</linearGradient>
<linearGradient id="paint10_linear_667_534" x1="476" y1="266" x2="490.243" y2="261.425" gradientUnits="userSpaceOnUse">
<stop stop-color="#D9D9D9"/>
<stop offset="0.932352" stop-color="#B9AEAE"/>
</linearGradient>
<linearGradient id="paint11_linear_667_534" x1="475.01" y1="299.638" x2="488.755" y2="294.668" gradientUnits="userSpaceOnUse">
<stop stop-color="#D9D9D9"/>
<stop offset="0.932352" stop-color="#B9AEAE"/>
</linearGradient>
<linearGradient id="paint12_linear_667_534" x1="297" y1="150" x2="302" y2="172.5" gradientUnits="userSpaceOnUse">
<stop stop-color="#B15F5F"/>
<stop offset="1" stop-color="#B75858" stop-opacity="0"/>
</linearGradient>
<linearGradient id="paint13_linear_667_534" x1="302.398" y1="149.825" x2="276.686" y2="149.875" gradientUnits="userSpaceOnUse">
<stop stop-color="#B39278"/>
<stop offset="1" stop-color="#C49E80"/>
</linearGradient>
<linearGradient id="paint14_linear_667_534" x1="278.429" y1="137.512" x2="303.252" y2="108.718" gradientUnits="userSpaceOnUse">
<stop stop-color="#C49E80"/>
<stop offset="1" stop-color="#B29278"/>
</linearGradient>
<linearGradient id="paint15_linear_667_534" x1="327.957" y1="151.376" x2="296.248" y2="154.442" gradientUnits="userSpaceOnUse">
<stop stop-color="#C49E80"/>
<stop offset="1" stop-color="#B29278"/>
</linearGradient>
<linearGradient id="paint16_linear_667_534" x1="325.405" y1="57.2146" x2="319.66" y2="69.758" gradientUnits="userSpaceOnUse">
<stop stop-color="#FFD80B"/>
<stop offset="1" stop-color="#E7CE4F"/>
</linearGradient>
<linearGradient id="paint17_linear_667_534" x1="320.763" y1="104.587" x2="335.099" y2="139.569" gradientUnits="userSpaceOnUse">
<stop stop-color="#C49E80"/>
<stop offset="1" stop-color="#B29278"/>
</linearGradient>
</defs>
</svg>
