<svg width="495" height="379" viewBox="0 0 495 379" fill="none" xmlns="http://www.w3.org/2000/svg">
<g filter="url(#filter0_d_1806_8484)">
<rect width="286.538" height="143.869" rx="8" transform="matrix(0.99442 0.110592 -0.111732 0.993179 157.666 105.03)" fill="#D1F3FF"/>
<path d="M139.223 192.156C140.143 193.174 143.513 195.119 149.634 194.763C157.286 194.317 191.725 171.042 209.436 173.343C227.147 175.643 229.133 198.014 245.367 199.593C261.602 201.173 267.283 185.615 276.797 185.483C286.311 185.351 309.042 202.494 319.729 200.053C330.416 197.612 355.651 175.595 384.465 179.405C407.517 182.453 423.61 214.809 428.775 230.606" stroke="#00A3E0" stroke-width="1.2"/>
<path d="M138.728 198.424C139.646 199.439 143.01 201.38 149.12 201.025C156.757 200.581 189.964 176.054 207.641 178.35C225.319 180.646 224.754 202.531 244.652 204.911C264.55 207.292 269.904 192.146 279.399 192.014C288.894 191.883 308.223 208.742 318.889 206.306C333.57 202.953 355.125 181.662 383.884 185.465C406.891 188.507 420.543 223.05 425.698 238.816" stroke="#00A3E0" stroke-width="1.2"/>
<path d="M137.498 203.976C138.417 204.991 142.372 206.824 148.482 206.469C158.497 205.886 188.566 181.148 206.243 183.444C223.921 185.74 222.916 207.572 242.814 209.953C262.712 212.333 271.063 198.272 280.558 198.14C290.054 198.009 308.99 214.506 319.657 212.07C334.338 208.717 353.848 186.68 382.607 190.483C405.615 193.525 417.017 231.881 422.172 247.647" stroke="#00A3E0" stroke-width="1.2"/>
<path d="M141.025 194.238L143.207 200.214" stroke="#00A3E0" stroke-width="1.2"/>
<path d="M144.77 194.686L146.952 200.662" stroke="#00A3E0" stroke-width="1.2"/>
<path d="M148.12 195.236L151.09 201.009" stroke="#00A3E0" stroke-width="1.2"/>
<path d="M151.512 195.128L154.271 199.269" stroke="#00A3E0" stroke-width="1.2"/>
<path d="M154.897 194.083L157.656 198.225" stroke="#00A3E0" stroke-width="1.2"/>
<path d="M157.76 192.611L160.519 196.753" stroke="#00A3E0" stroke-width="1.2"/>
<path d="M160.62 191.139L163.378 195.281" stroke="#00A3E0" stroke-width="1.2"/>
<path d="M163.477 189.667L166.235 193.809" stroke="#00A3E0" stroke-width="1.2"/>
<path d="M166.338 188.195L169.097 192.337" stroke="#00A3E0" stroke-width="1.2"/>
<path d="M169.197 186.723L171.956 190.864" stroke="#00A3E0" stroke-width="1.2"/>
<path d="M172.057 185.251L174.815 189.392" stroke="#00A3E0" stroke-width="1.2"/>
<path d="M174.918 183.779L177.677 187.921" stroke="#00A3E0" stroke-width="1.2"/>
<path d="M177.777 182.306L180.536 186.448" stroke="#00A3E0" stroke-width="1.2"/>
<path d="M180.637 180.835L183.396 184.976" stroke="#00A3E0" stroke-width="1.2"/>
<path d="M183.498 179.363L186.257 183.504" stroke="#00A3E0" stroke-width="1.2"/>
<path d="M186.556 178.095L189.315 182.237" stroke="#00A3E0" stroke-width="1.2"/>
<path d="M190.01 177.239L192.268 181.563" stroke="#00A3E0" stroke-width="1.2"/>
<path d="M193.488 176.203L194.874 179.827" stroke="#00A3E0" stroke-width="1.2"/>
<path d="M196.702 175.499L198.087 179.123" stroke="#00A3E0" stroke-width="1.2"/>
<path d="M200.313 174.917L200.862 178.656" stroke="#00A3E0" stroke-width="1.2"/>
<path d="M204.021 174.525L204.02 178.269" stroke="#00A3E0" stroke-width="1.2"/>
<path d="M208.091 174.172L207.369 177.84" stroke="#00A3E0" stroke-width="1.2"/>
<path d="M212.232 174.818L210.884 178.343" stroke="#00A3E0" stroke-width="1.2"/>
<path d="M216.385 176.766L213.424 179.509" stroke="#00A3E0" stroke-width="1.2"/>
<path d="M219.442 178.879L216.146 181.353" stroke="#00A3E0" stroke-width="1.2"/>
<path d="M222.308 180.74L219.011 183.214" stroke="#00A3E0" stroke-width="1.2"/>
<path d="M224.612 182.983L221.001 185.15" stroke="#00A3E0" stroke-width="1.2"/>
<path d="M226.122 185.369L222.51 187.536" stroke="#00A3E0" stroke-width="1.2"/>
<path d="M227.63 187.754L224.018 189.922" stroke="#00A3E0" stroke-width="1.2"/>
<path d="M229.368 189.93L225.756 192.097" stroke="#00A3E0" stroke-width="1.2"/>
<path d="M230.894 192.108L227.282 194.276" stroke="#00A3E0" stroke-width="1.2"/>
<path d="M233.321 194.212L229.709 196.38" stroke="#00A3E0" stroke-width="1.2"/>
<path d="M235.305 196.265L231.693 198.432" stroke="#00A3E0" stroke-width="1.2"/>
<path d="M237.507 197.766L234.432 200.424" stroke="#00A3E0" stroke-width="1.2"/>
<path d="M239.551 199.12L237.219 202.252" stroke="#00A3E0" stroke-width="1.2"/>
<path d="M242.072 199.83L240.827 203.384" stroke="#00A3E0" stroke-width="1.2"/>
<path d="M244.567 200.638L243.943 204.322" stroke="#00A3E0" stroke-width="1.2"/>
<path d="M247.277 200.78L247.511 204.528" stroke="#00A3E0" stroke-width="1.2"/>
<path d="M250.184 200.766L251.474 204.409" stroke="#00A3E0" stroke-width="1.2"/>
<path d="M252.914 200.366L254.843 204.015" stroke="#00A3E0" stroke-width="1.2"/>
<path d="M255.709 199.431L258.162 203.172" stroke="#00A3E0" stroke-width="1.2"/>
<path d="M258.126 197.906L261.218 201.905" stroke="#00A3E0" stroke-width="1.2"/>
<path d="M260.547 196.381L264.123 200.075" stroke="#00A3E0" stroke-width="1.2"/>
<path d="M262.967 194.856L266.785 198.397" stroke="#00A3E0" stroke-width="1.2"/>
<path d="M265.387 193.331L269.205 196.872" stroke="#00A3E0" stroke-width="1.2"/>
<path d="M267.606 191.601L271.424 195.142" stroke="#00A3E0" stroke-width="1.2"/>
<path d="M269.873 189.84L273.598 193.444" stroke="#00A3E0" stroke-width="1.2"/>
<path d="M272.579 187.849L275.757 192.576" stroke="#00A3E0" stroke-width="1.2"/>
<path d="M276.47 186.675L278.233 191.828" stroke="#00A3E0" stroke-width="1.2"/>
<path d="M280.921 186.845L280.668 192.113" stroke="#00A3E0" stroke-width="1.2"/>
<path d="M284.556 188.187L282.708 192.375" stroke="#00A3E0" stroke-width="1.2"/>
<path d="M287.815 189.302L285.501 193.317" stroke="#00A3E0" stroke-width="1.2"/>
<path d="M291.072 190.418L288.758 194.433" stroke="#00A3E0" stroke-width="1.2"/>
<path d="M294.288 191.891L291.973 195.906" stroke="#00A3E0" stroke-width="1.2"/>
<path d="M297.458 193.722L295.143 197.738" stroke="#00A3E0" stroke-width="1.2"/>
<path d="M300.651 195.373L298.336 199.389" stroke="#00A3E0" stroke-width="1.2"/>
<path d="M303.841 197.207L301.527 201.222" stroke="#00A3E0" stroke-width="1.2"/>
<path d="M307.032 199.04L304.717 203.055" stroke="#00A3E0" stroke-width="1.2"/>
<path d="M310.015 199.76L308.558 204.063" stroke="#00A3E0" stroke-width="1.2"/>
<path d="M313.015 200.481L312.696 205.522" stroke="#00A3E0" stroke-width="1.2"/>
<path d="M316.298 201.055L317.478 206.07" stroke="#00A3E0" stroke-width="1.2"/>
<path d="M319.645 201.092L323.116 205.425" stroke="#00A3E0" stroke-width="1.2"/>
<path d="M323.166 199.699L326.636 204.032" stroke="#00A3E0" stroke-width="1.2"/>
<path d="M326.069 197.87L329.54 202.203" stroke="#00A3E0" stroke-width="1.2"/>
<path d="M329.349 196.63L332.819 200.962" stroke="#00A3E0" stroke-width="1.2"/>
<path d="M332.734 194.494L336.205 198.827" stroke="#00A3E0" stroke-width="1.2"/>
<path d="M336.123 192.36L339.593 196.692" stroke="#00A3E0" stroke-width="1.2"/>
<path d="M339.509 190.225L342.98 194.558" stroke="#00A3E0" stroke-width="1.2"/>
<path d="M343.711 188.733L347.182 193.065" stroke="#00A3E0" stroke-width="1.2"/>
<path d="M347.034 187.134L350.505 191.467" stroke="#00A3E0" stroke-width="1.2"/>
<path d="M350.135 185.51L353.606 189.842" stroke="#00A3E0" stroke-width="1.2"/>
<path d="M354.438 183.747L356.826 188.513" stroke="#00A3E0" stroke-width="1.2"/>
<path d="M358.477 183.061L360.865 187.826" stroke="#00A3E0" stroke-width="1.2"/>
<path d="M362.616 182.104L365.004 186.87" stroke="#00A3E0" stroke-width="1.2"/>
<path d="M366.753 181.148L369.142 185.913" stroke="#00A3E0" stroke-width="1.2"/>
<path d="M371.179 180.118L372.993 185.03" stroke="#00A3E0" stroke-width="1.2"/>
<path d="M376.589 179.8L376.917 184.867" stroke="#00A3E0" stroke-width="1.2"/>
<path d="M396.252 184.097L392.067 187.668" stroke="#00A3E0" stroke-width="1.2"/>
<path d="M398.859 186.802L394.283 190.04" stroke="#00A3E0" stroke-width="1.2"/>
<path d="M402.231 188.476L397.656 191.714" stroke="#00A3E0" stroke-width="1.2"/>
<path d="M405.121 190.454L400.545 193.692" stroke="#00A3E0" stroke-width="1.2"/>
<path d="M407.505 192.916L402.929 196.154" stroke="#00A3E0" stroke-width="1.2"/>
<path d="M410.14 195.646L405.058 198.349" stroke="#00A3E0" stroke-width="1.2"/>
<path d="M411.404 198.826L407.119 200.301" stroke="#00A3E0" stroke-width="1.2"/>
<path d="M413.526 201.619L409.241 203.094" stroke="#00A3E0" stroke-width="1.2"/>
<path d="M415.645 204.414L411.359 205.888" stroke="#00A3E0" stroke-width="1.2"/>
<path d="M417.325 207.154L413.04 208.629" stroke="#00A3E0" stroke-width="1.2"/>
<path d="M418.563 209.842L414.278 211.316" stroke="#00A3E0" stroke-width="1.2"/>
<path d="M420.244 212.583L415.958 214.058" stroke="#00A3E0" stroke-width="1.2"/>
<path d="M421.858 215.86L417.573 217.335" stroke="#00A3E0" stroke-width="1.2"/>
<path d="M423.076 218.728L418.79 220.202" stroke="#00A3E0" stroke-width="1.2"/>
<path d="M424.293 221.594L420.008 223.068" stroke="#00A3E0" stroke-width="1.2"/>
<path d="M425.51 224.461L421.224 225.936" stroke="#00A3E0" stroke-width="1.2"/>
<path d="M426.728 227.328L422.443 228.803" stroke="#00A3E0" stroke-width="1.2"/>
<path d="M427.945 230.195L423.659 231.67" stroke="#00A3E0" stroke-width="1.2"/>
<path d="M429.164 233.062L424.878 234.537" stroke="#00A3E0" stroke-width="1.2"/>
<path d="M141.599 200.566L136.394 243.575" stroke="#00A3E0" stroke-width="1.2"/>
<path d="M155.812 198.547L150.456 252.796" stroke="#00A3E0" stroke-width="1.2"/>
<path d="M170.942 189.834L163.169 258.12" stroke="#00A3E0" stroke-width="1.2"/>
<path d="M185.971 182.924L178.028 248.556" stroke="#00A3E0" stroke-width="1.2"/>
<path d="M200.541 178.862L191.905 250.217" stroke="#00A3E0" stroke-width="1.2"/>
<path d="M214.439 180.343L205.782 251.877" stroke="#00A3E0" stroke-width="1.2"/>
<path d="M226.89 193.807L219.662 253.537" stroke="#00A3E0" stroke-width="1.2"/>
<path d="M239.816 203.335L233.54 255.197" stroke="#00A3E0" stroke-width="1.2"/>
<path d="M253.694 204.996L247.418 256.858" stroke="#00A3E0" stroke-width="1.2"/>
<path d="M268.655 197.714L261.297 258.518" stroke="#00A3E0" stroke-width="1.2"/>
<path d="M283.356 192.579L275.176 260.178" stroke="#00A3E0" stroke-width="1.2"/>
<path d="M296.67 198.889L289.052 261.838" stroke="#00A3E0" stroke-width="1.2"/>
<path d="M309.985 205.199L302.93 263.499" stroke="#00A3E0" stroke-width="1.2"/>
<path d="M324.187 204.177L316.807 265.159" stroke="#00A3E0" stroke-width="1.2"/>
<path d="M339.234 196.179L330.685 266.819" stroke="#00A3E0" stroke-width="1.2"/>
<path d="M354.065 189.971L344.564 268.48" stroke="#00A3E0" stroke-width="1.2"/>
<path d="M368.635 185.908L358.441 270.139" stroke="#00A3E0" stroke-width="1.2"/>
<path d="M382.839 184.886L372.321 271.8" stroke="#00A3E0" stroke-width="1.2"/>
<path d="M396.262 190.302L386.199 273.46" stroke="#00A3E0" stroke-width="1.2"/>
<path d="M408.797 203.05L400.076 275.12" stroke="#00A3E0" stroke-width="1.2"/>
<path d="M420.361 223.846L413.955 276.781" stroke="#00A3E0" stroke-width="1.2"/>
<rect width="204.031" height="96.4759" rx="7" transform="matrix(0.992787 0.119945 -0.121312 0.992608 191.022 132.561)" fill="white"/>
<path d="M384.02 231.293C381.312 241.149 367.414 250.777 360.757 251.357L399.829 256.738C391.037 252.231 383.528 239.821 384.02 231.293Z" fill="#00A3E0" stroke="#00A3E0" stroke-width="0.756326"/>
<mask id="mask0_1806_8484" style="mask-type:alpha" maskUnits="userSpaceOnUse" x="360" y="231" width="41" height="27">
<path d="M384.033 231.199C381.325 241.054 367.427 250.683 360.77 251.263L399.842 256.643C391.05 252.137 383.542 239.727 384.033 231.199Z" fill="#A9A9A9" stroke="#F5F5F5" stroke-width="0.756326"/>
</mask>
<g mask="url(#mask0_1806_8484)">
<path d="M386.597 253.878C384.815 252.322 383.958 239.02 383.775 232.827C382.102 239.256 376.887 247.842 373.897 252.9C378.873 253.874 388.379 255.434 386.597 253.878Z" fill="#00A3E0" stroke="#00A3E0" stroke-width="0.756326"/>
<path d="M391.299 253.937C389.47 253.701 382.921 240.315 384.252 234.503L398.696 250.096C397.153 251.812 393.233 254.187 391.299 253.937Z" fill="#00A3E0" stroke="#00A3E0" stroke-width="0.756326"/>
<path d="M368.939 251.638C370.772 250.812 380.253 242.902 383.196 234.081L363.112 245.478C364.16 247.526 367.106 252.463 368.939 251.638Z" fill="#00A3E0" stroke="#00A3E0" stroke-width="0.756326"/>
<path d="M384.388 229.109L385.377 236.214C385.377 236.214 384.364 237.836 383.147 237.656C381.607 237.428 381.195 235.674 381.195 235.674L384.388 229.109Z" fill="#00A3E0" stroke="#00A3E0" stroke-width="0.756326"/>
</g>
<path d="M384.475 227.791L384.03 231.198C384.584 231.634 385.557 233.229 387.116 232.784C388.719 232.326 389.41 232.78 389.781 233.128L390.117 230.561C390.096 230.084 389.553 229.197 387.549 229.47C385.546 229.742 384.665 228.464 384.475 227.791Z" fill="#00A3E0" stroke="#00A3E0" stroke-width="0.756326"/>
<path d="M360.754 251.355C364.797 250.944 374.587 250.342 381.41 251.224C388.232 252.105 396.526 255.297 399.82 256.783C399.561 264.046 403.121 278.914 411.086 280.12C411.764 280.209 411.852 280.221 411.234 280.141C411.185 280.134 411.135 280.127 411.086 280.12C405.83 279.433 365.155 274.145 344.158 271.474C356.153 267.422 358.583 260.568 360.754 251.355Z" fill="#00A3E0" stroke="#00A3E0" stroke-width="0.756326"/>
<mask id="mask1_1806_8484" style="mask-type:alpha" maskUnits="userSpaceOnUse" x="344" y="250" width="68" height="31">
<path d="M360.756 251.356C364.799 250.945 374.589 250.343 381.412 251.224C388.234 252.106 396.528 255.298 399.822 256.783C399.563 264.047 403.123 278.914 411.088 280.12C411.765 280.209 411.854 280.221 411.236 280.141C411.187 280.135 411.137 280.128 411.088 280.12C405.832 279.433 365.157 274.145 344.16 271.474C356.155 267.423 358.585 260.569 360.756 251.356Z" fill="#B4B4B4" stroke="#F5F5F5" stroke-width="0.756326"/>
</mask>
<g mask="url(#mask1_1806_8484)">
<path d="M397.058 281.422C386.078 279.623 383.919 261.532 384.213 252.712C382.68 246.936 379.102 238.664 377.054 251.787C375.005 264.91 363.055 273.59 359.504 276.57C375.152 278.75 408.038 283.221 397.058 281.422Z" fill="#00A3E0" stroke="#00A3E0" stroke-width="0.756326"/>
<path d="M347.63 274.914C355.643 275.759 371.09 260.666 370.473 251.669C370.818 245.655 370.881 237.346 366.131 251.108C360.219 268.233 347.758 271.797 337.646 273.149C337.348 273.348 339.618 274.068 347.63 274.914Z" fill="#00A3E0" stroke="#00A3E0" stroke-width="0.756326"/>
<path d="M406.506 282.521C398.543 281.302 388.367 263.088 390.89 254.307C392.103 248.405 394.724 240.334 395.4 254.89C396.254 273.269 407.182 282.134 416.612 283.352C416.85 283.62 414.47 283.74 406.506 282.521Z" fill="#00A3E0" stroke="#00A3E0" stroke-width="0.756326"/>
</g>
<path d="M360.331 256.994L359.241 254.657L357.886 256.302L360.331 256.994Z" fill="#00A3E0" stroke="#00A3E0" stroke-width="5"/>
<path d="M357.033 260.684L356.231 258.093L354.575 259.702L357.033 260.684Z" fill="#00A3E0" stroke="#00A3E0" stroke-width="5"/>
<path d="M352.612 264.595L352.155 261.849L350.48 263.19L352.612 264.595Z" fill="#00A3E0" stroke="#00A3E0" stroke-width="5"/>
<path d="M348.333 267.808L348.135 265.001L346.484 266.067L348.333 267.808Z" fill="#00A3E0" stroke="#00A3E0" stroke-width="5"/>
<path d="M343.79 270.108L343.908 267.473L342.186 268.373L343.79 270.108Z" fill="#00A3E0" stroke="#00A3E0" stroke-width="5"/>
<path d="M338.901 272.304L338.831 269.627L337.078 270.443L338.901 272.304Z" fill="#00A3E0" stroke="#00A3E0" stroke-width="5"/>
<path d="M361.017 251.748C356.474 259.509 343.773 270.734 329.551 271.909" stroke="#00A3E0" stroke-width="3"/>
<path d="M399.043 262.372L400.698 260.389L401.585 262.324L399.043 262.372Z" fill="#00A3E0" stroke="#00A3E0" stroke-width="5"/>
<path d="M401.284 266.778L402.726 264.476L403.913 266.453L401.284 266.778Z" fill="#00A3E0" stroke="#00A3E0" stroke-width="5"/>
<path d="M404.552 271.682L405.699 269.143L406.974 270.865L404.552 271.682Z" fill="#00A3E0" stroke="#00A3E0" stroke-width="5"/>
<path d="M407.863 275.876L408.776 273.212L410.098 274.662L407.863 275.876Z" fill="#00A3E0" stroke="#00A3E0" stroke-width="5"/>
<path d="M411.665 279.254L412.228 276.676L413.661 277.985L411.665 279.254Z" fill="#00A3E0" stroke="#00A3E0" stroke-width="5"/>
<path d="M415.826 282.62L416.582 280.049L418.067 281.284L415.826 282.62Z" fill="#00A3E0" stroke="#00A3E0" stroke-width="5"/>
<path d="M399.729 257.126C402.126 265.783 411.52 279.863 424.967 284.613" stroke="#00A3E0" stroke-width="3"/>
<path d="M363.113 251.85C362.705 252.671 360.584 254.609 359.928 254.524C359.272 254.44 359.709 253.182 360.002 252.683L360.753 251.403C362.076 250.53 377.885 251.433 381.042 251.841C384.199 252.249 398.195 253.979 400.009 257.282C400.346 257.896 399.974 261.389 399.893 260.097C399.828 259.063 398.82 257.667 397.92 256.68C397.755 257.624 397.103 259.489 395.814 259.399C394.525 259.308 392.129 256.011 391.092 254.374C390.993 255.453 390.43 257.592 388.972 257.518C387.514 257.443 385.38 254.379 384.495 252.857C383.917 254.607 382.356 256.228 380.218 255.912C378.346 255.635 377.527 253.428 377.365 252.22C376.441 253.224 374.052 255.239 371.881 255.262C369.167 255.291 370.466 251.092 370.182 251.672C369.898 252.252 366.3 255.537 364.127 255.257C361.954 254.976 363.622 250.824 363.113 251.85Z" fill="#00A3E0" stroke="#00A3E0" stroke-width="0.756326"/>
<path d="M361.206 247.92C360.961 248.304 360.421 250.512 360.744 251.451C365.553 251.49 376.251 251.688 380.569 252.17C385.967 252.773 399.06 256.733 399.834 257.022C401.15 255.019 400.717 253.811 400.664 253.302C400.623 252.899 398.112 253.861 396.675 254.715C396.799 253.66 396.479 251.93 395.218 250.897C393.957 249.865 391.045 251.476 389.746 252.411C389.757 251.814 389.439 250.292 388.085 248.983C386.731 247.674 382.66 249.416 380.794 250.451C379.848 249.305 377.397 247.016 375.156 247.029C372.915 247.042 371.876 248.842 371.637 249.74C371.173 248.845 369.77 247.08 367.875 247.175C365.507 247.294 364.198 251.094 364.262 250.299C364.325 249.504 361.512 247.44 361.206 247.92Z" fill="#00A3E0" stroke="#00A3E0" stroke-width="0.756326"/>
<path d="M396.143 278.247L356.532 273.168C364.369 273.558 371.179 267.323 371.893 261.861C373.328 262.047 376.937 261.232 380.273 257.401C382.425 261.988 384.28 262.465 386.858 263.795C385.498 274.205 396.143 278.247 396.143 278.247Z" fill="#00A3E0" stroke="#00A3E0" stroke-width="0.756326"/>
<path d="M391.467 277.643C389.372 277.294 380.327 264.068 380.267 257.438C378.123 263.949 367.543 273.691 361.861 273.857C373.602 275.335 391.588 277.663 391.467 277.643Z" fill="#00A3E0" stroke="#00A3E0" stroke-width="0.756326"/>
<path d="M286.778 250.301L286.467 252.61L304.35 254.992L304.661 252.684C297.686 247.5 289.832 248.936 286.778 250.301Z" fill="#00A3E0"/>
<rect width="0.214336" height="2.73665" transform="matrix(0.998105 0.0653256 -0.0489595 0.998532 282.755 248.393)" fill="#00A3E0"/>
<rect width="0.214336" height="2.73665" transform="matrix(0.998105 0.0653256 -0.0489595 0.998532 286.605 248.2)" fill="#00A3E0"/>
<rect width="0.214336" height="2.73665" transform="matrix(-0.980192 -0.198242 -0.217168 0.976122 305.377 250.723)" fill="#00A3E0"/>
<rect width="0.214336" height="2.73665" transform="matrix(-0.980192 -0.198242 -0.217168 0.976122 308.669 251.823)" fill="#00A3E0"/>
<path d="M281.29 250.713L281.048 252.507L309.61 256.312L309.851 254.518C298.249 249.666 285.976 249.96 281.29 250.713Z" fill="#00A3E0"/>
<path d="M281.354 248.706L282.768 248.406L282.719 249.212L281.354 248.706Z" fill="#00A3E0"/>
<path d="M309.959 252.516L308.674 251.857L308.508 252.647L309.959 252.516Z" fill="#00A3E0"/>
<path d="M285.187 248.547L286.593 248.221L286.563 249.028L285.187 248.547Z" fill="#00A3E0"/>
<path d="M285.186 248.544L286.592 248.219L286.562 249.026L285.186 248.544Z" fill="#00A3E0"/>
<path d="M285.186 248.544L286.592 248.219L286.562 249.026L285.186 248.544Z" fill="#00A3E0"/>
<path d="M306.654 251.405L305.384 250.723L305.199 251.509L306.654 251.405Z" fill="#00A3E0"/>
<rect width="25.7471" height="10.5587" transform="matrix(0.991381 0.132081 -0.133545 0.990899 282.444 252.701)" fill="#00A3E0"/>
<path d="M316.416 253.585L316.105 255.893L333.988 258.276L334.299 255.968C327.324 250.784 319.471 252.219 316.416 253.585Z" fill="#00A3E0"/>
<rect width="0.214336" height="2.73665" transform="matrix(0.998105 0.0653256 -0.0489595 0.998532 312.393 251.675)" fill="#00A3E0"/>
<rect width="0.214336" height="2.73665" transform="matrix(0.998105 0.0653256 -0.0489595 0.998532 316.244 251.483)" fill="#00A3E0"/>
<rect width="0.214336" height="2.73665" transform="matrix(-0.980192 -0.198242 -0.217168 0.976122 335.015 254.006)" fill="#00A3E0"/>
<rect width="0.214336" height="2.73665" transform="matrix(-0.980192 -0.198242 -0.217168 0.976122 338.307 255.106)" fill="#00A3E0"/>
<path d="M310.928 253.996L310.686 255.79L339.248 259.595L339.49 257.801C327.887 252.949 315.614 253.242 310.928 253.996Z" fill="#00A3E0"/>
<path d="M310.991 251.988L312.405 251.688L312.357 252.494L310.991 251.988Z" fill="#00A3E0"/>
<path d="M339.597 255.799L338.312 255.14L338.145 255.93L339.597 255.799Z" fill="#00A3E0"/>
<path d="M314.825 251.829L316.231 251.504L316.201 252.31L314.825 251.829Z" fill="#00A3E0"/>
<path d="M314.823 251.827L316.23 251.501L316.2 252.308L314.823 251.827Z" fill="#00A3E0"/>
<path d="M314.823 251.827L316.23 251.501L316.2 252.308L314.823 251.827Z" fill="#00A3E0"/>
<path d="M336.292 254.687L335.021 254.005L334.837 254.791L336.292 254.687Z" fill="#00A3E0"/>
<rect width="25.7471" height="10.5587" transform="matrix(0.991381 0.132081 -0.133545 0.990899 312.082 255.984)" fill="#00A3E0"/>
<path d="M185.592 228.654L177.345 227.755L177.077 246.595L181.947 247.126L185.592 228.654Z" fill="#00A3E0"/>
<path d="M185.592 228.654L183.874 229.643L181.038 247.027L181.947 247.126L185.592 228.654Z" fill="#00A3E0"/>
<path d="M183.213 242.888L184.852 245.286L174.656 244.175L176.778 242.186L183.213 242.888Z" fill="#00A3E0"/>
<path d="M183.481 242.424L176.717 241.687L176.785 242.188L183.232 242.89L183.481 242.424Z" fill="#00A3E0"/>
<path d="M177.223 234.837L175.15 232.934L181.073 232.766L186.768 234.2L184.208 235.598L177.223 234.837Z" fill="#00A3E0"/>
<path d="M175.14 232.933L173.631 228.724L189.072 230.406L186.785 234.202L175.14 232.933Z" fill="#00A3E0"/>
<rect width="0.611249" height="15.8074" transform="matrix(-0.994237 -0.108356 -0.109568 0.993853 193.856 230.953)" fill="#00A3E0"/>
<rect width="0.611249" height="15.8074" transform="matrix(-0.994237 -0.108356 -0.109568 0.993853 169.646 228.314)" fill="#00A3E0"/>
<rect width="0.611249" height="15.8074" transform="matrix(-0.994237 -0.108356 -0.109568 0.993853 181.707 229.628)" fill="#00A3E0"/>
<path d="M162.719 229.306L199.796 233.346C200.106 233.38 200.385 233.156 200.419 232.846C200.453 232.537 200.23 232.258 199.92 232.224L162.842 228.183C162.532 228.15 162.253 228.373 162.219 228.683C162.185 228.993 162.409 229.272 162.719 229.306Z" fill="#00A3E0"/>
<path d="M160.305 228.125L202.073 232.677L205.571 228.33C205.571 228.33 183.953 225.974 182.745 216.288C179.656 225.505 158.168 223.164 158.168 223.164L160.305 228.125Z" fill="#00A3E0"/>
<path d="M160.305 228.125L202.073 232.677L205.571 228.33C205.571 228.33 183.953 225.974 182.745 216.288C179.656 225.505 158.168 223.164 158.168 223.164L160.305 228.125Z" fill="#00A3E0"/>
<path d="M205.922 227.903L202.641 232.071C202.346 232.445 201.88 232.64 201.407 232.589L160.781 228.161C160.33 228.112 159.932 227.844 159.717 227.445L156.928 222.254C156.796 222.008 156.77 221.721 156.998 221.561C157.672 221.089 159.559 220.48 162.329 220.782C163.371 220.895 164.201 221.131 164.858 221.415C165.931 221.878 168.419 222.007 169.573 221.814C170.108 221.724 170.742 221.699 171.49 221.78C173.07 221.953 174.19 222.536 174.952 223.114C175.681 223.667 176.789 223.643 177.558 223.148C178.47 222.561 179.866 222.053 181.845 222.269C183.352 222.433 184.475 222.938 185.295 223.513C186.235 224.171 188.374 224.37 189.493 224.11C190.134 223.961 190.928 223.899 191.9 224.005C193.265 224.153 194.236 224.527 194.916 224.942C195.764 225.459 197.177 225.651 198.115 225.324C198.932 225.04 200.058 224.894 201.704 225.073C203.601 225.28 204.748 225.598 205.514 225.914C206.285 226.232 206.439 227.247 205.922 227.903Z" fill="#00A3E0"/>
<path d="M198.419 249.776C199.074 248.352 198.142 246.707 196.584 246.537L163.719 242.955C162.1 242.779 160.815 244.295 161.256 245.862L161.335 246.143C161.589 247.044 162.364 247.7 163.295 247.801L195.961 251.361C196.944 251.468 197.887 250.934 198.3 250.035L198.419 249.776Z" fill="#00A3E0"/>
<path d="M160.066 243.693L199.754 248.018C199.957 248.04 200.156 247.951 200.275 247.786C200.527 247.435 200.308 246.943 199.878 246.896L160.189 242.571C159.746 242.522 159.424 242.982 159.621 243.381C159.706 243.554 159.874 243.672 160.066 243.693Z" fill="#00A3E0"/>
<path d="M183.657 208.541C183.011 214.4 183.363 217.246 183.716 218.578L181.372 218.322C182.788 216.424 183.704 208.116 183.657 208.541Z" fill="#00A3E0"/>
<path d="M183.989 218.962C184.131 218.717 183.974 218.407 183.692 218.376L181.472 218.134C181.199 218.105 180.98 218.357 181.048 218.622C181.089 218.78 181.223 218.896 181.386 218.914L183.606 219.156C183.761 219.173 183.911 219.097 183.989 218.962Z" fill="#00A3E0"/>
<ellipse cx="0.349285" cy="0.347415" rx="0.349285" ry="0.347415" transform="matrix(-0.994237 -0.108356 -0.109568 0.993853 183.996 208.495)" fill="#00A3E0"/>
<path d="M177.172 244.67C177.092 244.358 177.682 243.936 177.986 243.764L178.551 243.825C178.294 244.002 177.77 244.432 177.737 244.731C177.696 245.106 178.465 245.474 178.439 245.708C178.413 245.942 178.162 246.057 177.927 246.031C177.692 246.005 177.272 245.06 177.172 244.67Z" fill="#00A3E0"/>
<path d="M178.002 245.639C178.134 245.516 178.176 245.404 178.181 245.363C178.369 245.458 178.654 245.711 178.288 245.967C177.922 246.223 177.691 245.91 177.621 245.721C177.692 245.746 177.869 245.763 178.002 245.639Z" fill="#00A3E0"/>
<path d="M183.653 241.765C182.914 241.02 182.347 241.188 182.157 241.365C181.667 241.871 181.457 243.054 183.107 243.329C184.757 243.604 185.346 242.636 185.435 242.118C185.149 242.311 184.392 242.511 183.653 241.765Z" fill="#00A3E0"/>
<path d="M179.849 239.283C179.494 238.677 178.846 238.432 177.588 238.813C177.618 239.476 178.829 240.976 178.972 241.632C179.152 242.452 180.893 242.446 180.068 242.19C178.919 241.834 180.616 240.598 179.849 239.283Z" fill="#00A3E0"/>
<path d="M181.704 245.133C181.81 244.846 180.701 244.774 180.665 243.759C180.78 243.772 181.904 244.536 182.027 244.549C182.181 244.566 182.276 245.118 182.267 245.194C182.259 245.271 181.634 246.143 181.586 246.203C181.442 246.384 180.803 246.367 180.996 246.139C181.226 245.867 181.652 245.273 181.704 245.133Z" fill="#00A3E0"/>
<path d="M181.115 245.979C181.288 245.998 181.58 246.029 181.7 246.067C181.581 246.473 181.193 246.331 181.021 246.312C180.85 246.294 181.041 245.971 181.114 245.979L181.115 245.979Z" fill="#00A3E0"/>
<path d="M175.819 240.726C175.592 240.314 176.99 239.548 177.967 239.095C178.161 239.006 178.384 238.979 178.58 239.065C179.997 239.689 178.833 241.644 179.147 241.923C179.302 242.061 179.746 242.119 180.194 242.137C180.688 242.158 181.172 241.717 181.623 241.513C181.91 241.383 182.287 241.335 182.708 241.477C184.143 241.96 182.913 243.897 182.948 244.057C182.983 244.217 183.31 244.096 183.621 244.13C183.932 244.164 184.226 244.822 184.302 245.091C184.342 245.236 184.15 245.491 183.95 245.703C183.785 245.878 183.548 245.965 183.31 245.933C183.162 245.913 183.022 245.881 182.962 245.831C182.818 245.711 183.508 245.16 183.628 245.017C183.749 244.874 183.219 244.451 183.098 244.595C183.002 244.709 182.603 244.853 182.339 244.825C182.156 244.805 181.995 244.774 181.853 244.734C181.171 244.547 180.203 244.498 179.507 244.623C179.312 244.657 179.092 244.67 178.846 244.652C177.39 244.546 177.353 243.447 176.787 243.385C176.361 243.339 176.365 243.91 176.379 244.394C176.385 244.627 176.187 244.8 175.955 244.775C175.772 244.755 175.628 244.614 175.647 244.431C175.712 243.805 176.061 242.698 176.403 242.562C176.855 242.382 177.53 242.26 177.618 241.782C177.704 241.311 177.255 240.91 176.779 240.961C176.353 241.006 175.953 240.97 175.819 240.726Z" fill="#00A3E0"/>
<path d="M175.648 244.717C175.593 244.672 175.629 244.362 175.647 244.273C175.647 244.273 175.751 244.235 176.018 244.289C176.285 244.343 176.394 244.478 176.394 244.478C176.411 244.546 176.434 244.699 176.386 244.773C176.326 244.865 175.716 244.774 175.648 244.717Z" fill="#00A3E0"/>
<path d="M182.915 245.877C182.775 245.771 183.024 245.545 183.102 245.505C183.102 245.505 183.167 245.439 183.451 245.493C183.735 245.548 183.974 245.698 183.974 245.698C183.934 245.83 183.847 245.92 183.768 245.97C183.66 246.037 183.002 245.943 182.915 245.877Z" fill="#00A3E0"/>
<path d="M178.502 238.568C178.358 238.663 178.223 238.978 178.173 239.123C178.284 239.228 178.539 239.386 178.669 239.177C178.832 238.917 178.683 238.449 178.502 238.568Z" fill="#00A3E0"/>
<path d="M180.401 244.225C180.434 244.191 180.48 243.509 180.487 243.286L180.173 243.262C180.157 243.561 180.102 244.382 180.147 244.394C180.204 244.408 180.36 244.267 180.401 244.225Z" fill="#00A3E0"/>
<path d="M179.071 241.798C179.081 241.7 180.031 242.633 181.43 241.623C181.455 242.262 181.276 243.38 180.359 243.381C179.168 243.383 178.973 242.685 179.071 241.798Z" fill="#00A3E0"/>
<mask id="mask2_1806_8484" style="mask-type:alpha" maskUnits="userSpaceOnUse" x="179" y="241" width="3" height="3">
<path d="M179.071 241.797C179.081 241.7 180.031 242.632 181.43 241.623C181.455 242.261 181.276 243.379 180.359 243.38C179.168 243.382 178.973 242.684 179.071 241.797Z" fill="#BEBEBE"/>
</mask>
<g mask="url(#mask2_1806_8484)">
<path d="M179.22 241.792C179.229 241.71 180.023 242.489 181.192 241.646C181.214 242.179 181.064 243.112 180.298 243.113C179.302 243.115 179.139 242.532 179.22 241.792Z" fill="#00A3E0"/>
</g>
<path d="M177.523 239.441C177.52 239.361 177.437 239.311 177.364 239.344C177.323 239.363 177.298 239.405 177.3 239.45L177.355 240.759C177.357 240.824 177.415 240.873 177.48 240.866C177.539 240.859 177.582 240.808 177.58 240.749L177.523 239.441Z" fill="#00A3E0"/>
<path d="M176.395 240.092C176.371 240.024 176.288 239.996 176.227 240.036C176.183 240.065 176.165 240.121 176.184 240.17L176.48 240.925C176.495 240.963 176.532 240.988 176.572 240.988C176.64 240.988 176.688 240.921 176.665 240.857L176.395 240.092Z" fill="#00A3E0"/>
<path d="M177.353 240.555C177.423 240.537 177.457 240.457 177.422 240.393C177.397 240.348 177.343 240.325 177.293 240.34L176.506 240.565C176.459 240.578 176.428 240.623 176.432 240.671C176.437 240.735 176.499 240.779 176.56 240.763L177.353 240.555Z" fill="#00A3E0"/>
<path d="M165.27 243.896C165.198 243.612 165.735 243.228 166.012 243.071L166.527 243.127C166.292 243.289 165.815 243.68 165.785 243.952C165.747 244.293 166.448 244.628 166.424 244.842C166.401 245.055 166.172 245.159 165.958 245.136C165.744 245.113 165.361 244.251 165.27 243.896Z" fill="#00A3E0"/>
<path d="M166.024 244.78C166.145 244.667 166.183 244.565 166.187 244.528C166.359 244.614 166.618 244.845 166.285 245.078C165.952 245.311 165.741 245.026 165.677 244.854C165.743 244.876 165.903 244.892 166.024 244.78Z" fill="#00A3E0"/>
<path d="M171.171 241.252C170.498 240.573 169.982 240.726 169.808 240.887C169.362 241.348 169.171 242.425 170.674 242.676C172.177 242.926 172.713 242.045 172.793 241.573C172.533 241.749 171.844 241.931 171.171 241.252Z" fill="#00A3E0"/>
<path d="M167.706 238.992C167.384 238.44 166.793 238.216 165.648 238.563C165.675 239.167 166.777 240.533 166.908 241.13C167.072 241.877 168.657 241.872 167.906 241.639C166.86 241.315 168.405 240.189 167.706 238.992Z" fill="#00A3E0"/>
<path d="M169.396 244.318C169.492 244.057 168.483 243.992 168.449 243.068C168.554 243.079 169.578 243.774 169.69 243.787C169.83 243.802 169.917 244.305 169.909 244.374C169.901 244.444 169.332 245.239 169.288 245.293C169.157 245.458 168.575 245.442 168.751 245.235C168.961 244.987 169.349 244.446 169.396 244.318Z" fill="#00A3E0"/>
<path d="M168.859 245.088C169.017 245.106 169.283 245.135 169.393 245.169C169.284 245.539 168.931 245.409 168.775 245.392C168.618 245.375 168.792 245.081 168.859 245.088L168.859 245.088Z" fill="#00A3E0"/>
<path d="M164.036 240.305C163.829 239.93 165.103 239.232 165.992 238.821C166.169 238.739 166.372 238.714 166.55 238.793C167.841 239.361 166.781 241.141 167.066 241.395C167.208 241.521 167.612 241.574 168.02 241.591C168.47 241.61 168.911 241.208 169.322 241.022C169.583 240.904 169.926 240.86 170.309 240.989C171.616 241.43 170.496 243.193 170.528 243.339C170.56 243.485 170.858 243.375 171.141 243.406C171.424 243.437 171.692 244.035 171.761 244.28C171.798 244.413 171.623 244.645 171.441 244.838C171.291 244.997 171.074 245.077 170.858 245.047C170.723 245.029 170.595 245 170.541 244.954C170.41 244.845 171.038 244.344 171.148 244.213C171.257 244.083 170.775 243.698 170.665 243.828C170.577 243.933 170.214 244.064 169.973 244.038C169.807 244.02 169.66 243.991 169.531 243.956C168.91 243.785 168.028 243.741 167.395 243.854C167.217 243.886 167.017 243.897 166.792 243.881C165.466 243.784 165.433 242.784 164.917 242.727C164.53 242.685 164.533 243.205 164.546 243.646C164.552 243.858 164.371 244.016 164.16 243.993C163.993 243.975 163.862 243.846 163.88 243.679C163.939 243.109 164.256 242.101 164.567 241.977C164.979 241.813 165.594 241.703 165.674 241.267C165.752 240.839 165.343 240.473 164.91 240.519C164.522 240.561 164.158 240.528 164.036 240.305Z" fill="#00A3E0"/>
<path d="M163.88 243.939C163.83 243.898 163.863 243.616 163.879 243.535C163.879 243.535 163.973 243.5 164.217 243.549C164.46 243.598 164.559 243.721 164.559 243.721C164.575 243.783 164.595 243.923 164.552 243.99C164.498 244.074 163.942 243.991 163.88 243.939Z" fill="#00A3E0"/>
<path d="M170.497 244.995C170.37 244.899 170.596 244.693 170.668 244.656C170.668 244.656 170.727 244.596 170.986 244.646C171.244 244.696 171.462 244.833 171.462 244.833C171.425 244.953 171.346 245.035 171.274 245.08C171.175 245.141 170.577 245.056 170.497 244.995Z" fill="#00A3E0"/>
<path d="M166.48 238.34C166.349 238.427 166.226 238.713 166.181 238.845C166.282 238.941 166.514 239.084 166.632 238.894C166.78 238.657 166.645 238.231 166.48 238.34Z" fill="#00A3E0"/>
<path d="M168.21 243.492C168.24 243.461 168.282 242.84 168.288 242.636L168.002 242.615C167.988 242.887 167.938 243.635 167.979 243.645C168.031 243.658 168.172 243.529 168.21 243.492Z" fill="#00A3E0"/>
<path d="M166.996 241.281C167.006 241.192 167.871 242.042 169.145 241.122C169.168 241.704 169.005 242.722 168.17 242.723C167.085 242.725 166.907 242.089 166.996 241.281Z" fill="#00A3E0"/>
<mask id="mask3_1806_8484" style="mask-type:alpha" maskUnits="userSpaceOnUse" x="166" y="241" width="4" height="2">
<path d="M166.996 241.281C167.006 241.192 167.871 242.041 169.145 241.122C169.168 241.704 169.005 242.721 168.17 242.723C167.085 242.724 166.907 242.089 166.996 241.281Z" fill="#BEBEBE"/>
</mask>
<g mask="url(#mask3_1806_8484)">
<path d="M167.131 241.276C167.139 241.202 167.862 241.911 168.927 241.144C168.947 241.629 168.811 242.479 168.113 242.48C167.206 242.481 167.057 241.951 167.131 241.276Z" fill="#00A3E0"/>
</g>
<path d="M165.584 239.135C165.581 239.062 165.505 239.016 165.439 239.047C165.402 239.064 165.379 239.102 165.38 239.143L165.431 240.335C165.433 240.394 165.486 240.439 165.545 240.432C165.598 240.426 165.638 240.38 165.636 240.326L165.584 239.135Z" fill="#00A3E0"/>
<path d="M164.557 239.728C164.535 239.665 164.459 239.64 164.404 239.676C164.363 239.702 164.347 239.753 164.365 239.798L164.634 240.486C164.648 240.521 164.681 240.543 164.718 240.543C164.78 240.544 164.824 240.482 164.803 240.424L164.557 239.728Z" fill="#00A3E0"/>
<path d="M165.429 240.149C165.493 240.133 165.525 240.06 165.493 240.002C165.47 239.96 165.42 239.939 165.374 239.952L164.657 240.157C164.614 240.17 164.586 240.21 164.59 240.255C164.595 240.313 164.651 240.353 164.708 240.338L165.429 240.149Z" fill="#00A3E0"/>
<path d="M189.782 243.745C189.709 243.461 190.246 243.077 190.524 242.92L191.038 242.976C190.804 243.138 190.327 243.529 190.297 243.802C190.259 244.143 190.96 244.478 190.936 244.691C190.913 244.904 190.684 245.009 190.47 244.985C190.255 244.962 189.873 244.101 189.782 243.745Z" fill="#00A3E0"/>
<path d="M190.536 244.629C190.657 244.516 190.695 244.414 190.699 244.377C190.87 244.463 191.13 244.693 190.797 244.927C190.464 245.16 190.253 244.875 190.189 244.703C190.254 244.725 190.415 244.741 190.536 244.629Z" fill="#00A3E0"/>
<path d="M195.683 241.101C195.009 240.422 194.494 240.575 194.32 240.736C193.874 241.197 193.683 242.275 195.186 242.525C196.688 242.775 197.225 241.894 197.305 241.422C197.045 241.598 196.356 241.78 195.683 241.101Z" fill="#00A3E0"/>
<path d="M192.217 238.84C191.895 238.288 191.304 238.065 190.159 238.411C190.186 239.015 191.289 240.381 191.42 240.979C191.583 241.725 193.168 241.72 192.418 241.487C191.371 241.163 192.916 240.037 192.217 238.84Z" fill="#00A3E0"/>
<path d="M193.907 244.167C194.004 243.906 192.994 243.841 192.961 242.916C193.066 242.928 194.09 243.623 194.202 243.635C194.342 243.651 194.428 244.153 194.42 244.223C194.413 244.293 193.843 245.087 193.8 245.142C193.668 245.307 193.087 245.291 193.262 245.084C193.472 244.836 193.86 244.294 193.907 244.167Z" fill="#00A3E0"/>
<path d="M193.371 244.937C193.529 244.954 193.795 244.983 193.904 245.017C193.796 245.387 193.443 245.258 193.286 245.241C193.13 245.224 193.304 244.929 193.371 244.937L193.371 244.937Z" fill="#00A3E0"/>
<path d="M188.546 240.154C188.34 239.778 189.613 239.081 190.502 238.669C190.679 238.587 190.882 238.562 191.06 238.641C192.351 239.21 191.291 240.99 191.576 241.243C191.718 241.369 192.122 241.422 192.53 241.439C192.98 241.458 193.421 241.056 193.832 240.87C194.093 240.752 194.437 240.708 194.82 240.838C196.126 241.278 195.006 243.041 195.038 243.187C195.07 243.333 195.368 243.223 195.651 243.254C195.934 243.285 196.203 243.884 196.271 244.128C196.308 244.261 196.133 244.493 195.951 244.686C195.801 244.845 195.585 244.925 195.368 244.896C195.233 244.877 195.106 244.848 195.051 244.802C194.92 244.693 195.548 244.192 195.658 244.062C195.768 243.931 195.285 243.546 195.175 243.677C195.087 243.781 194.724 243.912 194.484 243.886C194.317 243.868 194.17 243.84 194.041 243.804C193.42 243.634 192.539 243.589 191.905 243.702C191.727 243.734 191.527 243.746 191.302 243.729C189.976 243.632 189.943 242.632 189.428 242.576C189.04 242.533 189.043 243.053 189.056 243.494C189.062 243.707 188.882 243.864 188.67 243.841C188.503 243.823 188.372 243.695 188.39 243.528C188.449 242.957 188.767 241.949 189.078 241.826C189.489 241.662 190.104 241.551 190.184 241.115C190.263 240.687 189.853 240.321 189.42 240.368C189.033 240.409 188.668 240.376 188.546 240.154Z" fill="#00A3E0"/>
<path d="M188.392 243.788C188.342 243.747 188.375 243.464 188.391 243.384C188.391 243.384 188.485 243.349 188.728 243.398C188.971 243.447 189.071 243.57 189.071 243.57C189.086 243.632 189.107 243.772 189.064 243.839C189.009 243.923 188.454 243.84 188.392 243.788Z" fill="#00A3E0"/>
<path d="M195.009 244.844C194.882 244.748 195.108 244.542 195.18 244.505C195.18 244.505 195.239 244.445 195.497 244.495C195.756 244.545 195.974 244.681 195.974 244.681C195.937 244.801 195.858 244.884 195.786 244.929C195.687 244.99 195.089 244.905 195.009 244.844Z" fill="#00A3E0"/>
<path d="M190.992 238.188C190.861 238.275 190.738 238.562 190.693 238.694C190.794 238.789 191.026 238.933 191.145 238.743C191.293 238.506 191.157 238.08 190.992 238.188Z" fill="#00A3E0"/>
<path d="M192.721 243.34C192.751 243.309 192.793 242.688 192.8 242.485L192.514 242.463C192.499 242.736 192.449 243.483 192.49 243.494C192.542 243.507 192.684 243.378 192.721 243.34Z" fill="#00A3E0"/>
<path d="M191.508 241.13C191.518 241.041 192.382 241.89 193.657 240.971C193.68 241.552 193.517 242.57 192.682 242.571C191.597 242.573 191.419 241.937 191.508 241.13Z" fill="#00A3E0"/>
<mask id="mask4_1806_8484" style="mask-type:alpha" maskUnits="userSpaceOnUse" x="191" y="240" width="3" height="3">
<path d="M191.508 241.13C191.518 241.041 192.382 241.89 193.657 240.971C193.68 241.552 193.517 242.57 192.682 242.571C191.597 242.573 191.419 241.937 191.508 241.13Z" fill="#BEBEBE"/>
</mask>
<g mask="url(#mask4_1806_8484)">
<path d="M191.644 241.124C191.652 241.05 192.375 241.759 193.44 240.991C193.459 241.477 193.323 242.326 192.625 242.327C191.718 242.329 191.57 241.798 191.644 241.124Z" fill="#00A3E0"/>
</g>
<path d="M190.094 238.983C190.091 238.91 190.015 238.864 189.95 238.895C189.912 238.912 189.889 238.95 189.891 238.992L189.941 240.183C189.943 240.243 189.996 240.287 190.055 240.281C190.109 240.274 190.148 240.228 190.146 240.174L190.094 238.983Z" fill="#00A3E0"/>
<path d="M189.068 239.576C189.046 239.514 188.971 239.488 188.915 239.525C188.875 239.551 188.858 239.602 188.876 239.647L189.146 240.335C189.159 240.369 189.192 240.392 189.229 240.392C189.292 240.392 189.335 240.331 189.314 240.273L189.068 239.576Z" fill="#00A3E0"/>
<path d="M189.939 239.998C190.004 239.981 190.035 239.908 190.003 239.85C189.98 239.808 189.931 239.787 189.885 239.801L189.168 240.005C189.125 240.018 189.096 240.059 189.1 240.103C189.105 240.161 189.161 240.201 189.218 240.186L189.939 239.998Z" fill="#00A3E0"/>
<path fill-rule="evenodd" clip-rule="evenodd" d="M128.016 92.4267L64.0674 84.721C64.0674 84.721 61.5057 92.4242 57.847 95.8406C54.6441 98.8315 47.8456 101.11 47.8456 101.11L33.709 228.348C33.709 228.348 40.8452 231.947 43.3839 235.988C45.8847 239.968 45.9678 247.629 45.9678 247.629L109.916 255.334C115.507 247.869 118.073 248.773 121.94 256.783L428.564 293.731C428.564 293.731 431.228 285.417 435.39 282.145C438.952 279.344 446.366 278.072 446.366 278.072L460.502 150.834C460.502 150.834 453.631 147.067 450.828 143.194C447.812 139.03 446.663 130.823 446.663 130.823L140.04 93.8756C135.056 98.0367 132.389 98.2679 128.016 92.4267ZM160.45 110.885C160.766 108.144 163.246 106.199 165.988 106.541L428.606 139.257C431.348 139.599 433.315 142.098 432.998 144.839L418.181 273.232C417.865 275.973 415.385 277.918 412.643 277.576L150.025 244.86C147.283 244.518 145.316 242.019 145.633 239.278L160.45 110.885ZM131.349 112.062C134.367 112.429 137.081 110.342 137.411 107.403C137.74 104.463 135.561 101.782 132.543 101.416C129.524 101.049 126.81 103.135 126.481 106.075C126.151 109.015 128.331 111.695 131.349 112.062ZM135.502 124.436C135.172 127.376 132.458 129.462 129.44 129.096C126.421 128.729 124.242 126.049 124.571 123.109C124.901 120.169 127.615 118.083 130.633 118.449C133.652 118.816 135.831 121.496 135.502 124.436ZM127.528 146.13C130.546 146.497 133.26 144.411 133.59 141.471C133.92 138.531 131.74 135.85 128.722 135.484C125.703 135.117 122.989 137.203 122.66 140.143C122.33 143.083 124.51 145.763 127.528 146.13ZM131.682 158.505C131.353 161.444 128.639 163.531 125.62 163.164C122.602 162.797 120.422 160.117 120.752 157.177C121.082 154.237 123.796 152.151 126.814 152.518C129.832 152.884 132.012 155.565 131.682 158.505ZM124.119 180.044C127.137 180.41 129.851 178.324 130.181 175.384C130.511 172.444 128.331 169.764 125.313 169.397C122.295 169.031 119.581 171.117 119.251 174.057C118.921 176.997 121.101 179.677 124.119 180.044ZM128.19 192.543C127.86 195.483 125.146 197.569 122.128 197.202C119.11 196.836 116.93 194.155 117.26 191.216C117.589 188.276 120.303 186.19 123.322 186.556C126.34 186.923 128.52 189.603 128.19 192.543ZM120.138 214.361C123.156 214.727 125.87 212.641 126.199 209.701C126.529 206.761 124.349 204.081 121.331 203.714C118.313 203.348 115.599 205.434 115.269 208.374C114.94 211.314 117.119 213.994 120.138 214.361ZM124.206 226.86C123.876 229.799 121.162 231.885 118.144 231.519C115.126 231.152 112.946 228.472 113.276 225.532C113.606 222.592 116.32 220.506 119.338 220.873C122.356 221.239 124.536 223.92 124.206 226.86ZM116.14 247.604C119.158 247.971 121.872 245.885 122.202 242.945C122.531 240.005 120.352 237.325 117.333 236.958C114.315 236.591 111.601 238.677 111.271 241.617C110.942 244.557 113.121 247.238 116.14 247.604Z" fill="url(#paint0_linear_1806_8484)"/>
<path d="M96.0914 134.268L106.482 135.426L106.218 137.766L102.268 137.326L101.812 141.365L105.763 141.806L105.499 144.146L95.1084 142.988L95.3722 140.648L99.6657 141.126L100.121 137.087L95.8276 136.608L96.0914 134.268ZM102.041 148.977C101.806 151.063 100.562 152.193 98.8174 151.998L94.1513 151.478L94.3832 149.421L95.1305 149.354C94.4076 148.669 94.3923 147.868 94.4527 147.331C94.6393 145.677 95.8023 144.599 97.308 144.767C98.1578 144.861 98.7253 145.317 98.9976 145.981C99.1989 146.471 99.2527 147.066 99.1787 147.722L98.9502 149.749L99.0695 149.762C99.5912 149.82 100.014 149.415 100.107 148.595C100.169 148.044 100.069 147.459 99.5166 146.733L101.056 145.26C101.921 146.292 102.186 147.695 102.041 148.977ZM96.2163 147.89C96.1255 148.695 96.57 149.438 97.2954 149.565L97.487 147.865C97.5139 147.627 97.491 147.428 97.4167 147.284C97.3291 147.123 97.1885 147.032 97.0096 147.012C96.6369 146.971 96.2885 147.249 96.2163 147.89ZM93.4471 156.252C93.7361 153.688 95.8035 152.756 97.6819 152.966C99.6199 153.182 101.409 154.588 101.126 157.092C100.952 158.643 100.088 159.739 98.5204 160.122L97.9093 157.911C98.6068 157.883 99.1061 157.471 99.1734 156.875C99.291 155.831 98.3755 155.382 97.4214 155.276C96.4822 155.171 95.5227 155.381 95.4034 156.44C95.3378 157.021 95.7164 157.546 96.3572 157.753L95.3386 159.692C94.0076 159.046 93.274 157.787 93.4471 156.252ZM93.1096 160.718L103.5 161.876L103.247 164.127L97.7755 163.517L99.9668 165.905L99.6291 168.901L97.1587 165.909L92.251 168.335L92.5517 165.667L95.8378 164.101L94.9877 163.206L92.8559 162.969L93.1096 160.718ZM91.3545 173.877C91.709 170.732 94.1059 168.886 97.4005 169.253C100.725 169.623 102.668 171.938 102.317 175.053C102.055 177.378 100.669 178.96 98.6152 179.5L98.0091 177.244C99.2322 176.973 99.9378 176.071 100.081 174.804C100.282 173.015 99.2387 171.827 97.1666 171.596C95.0944 171.365 93.794 172.322 93.5907 174.126C93.4445 175.423 93.9498 176.43 95.117 176.922L94.0352 179.02C92.0453 178.059 91.094 176.187 91.3545 173.877ZM98.1473 183.517C97.9121 185.604 96.6677 186.733 94.9235 186.539L90.2574 186.019L90.4893 183.962L91.2366 183.894C90.5137 183.21 90.4984 182.408 90.5589 181.872C90.7454 180.217 91.9084 179.139 93.4141 179.307C94.2639 179.402 94.8314 179.857 95.1037 180.522C95.3051 181.012 95.3588 181.607 95.2848 182.262L95.0563 184.29L95.1756 184.303C95.6974 184.361 96.1205 183.955 96.2129 183.136C96.2751 182.584 96.1749 181.999 95.6227 181.274L97.1625 179.8C98.0273 180.832 98.2918 182.235 98.1473 183.517ZM92.3224 182.43C92.2316 183.235 92.6761 183.979 93.4016 184.105L93.5931 182.406C93.62 182.167 93.5971 181.969 93.5228 181.825C93.4352 181.664 93.2946 181.573 93.1157 181.553C92.743 181.511 92.3946 181.789 92.3224 182.43ZM96.604 197.207C96.4041 198.981 94.8639 199.654 93.5371 199.506L88.7964 198.978L89.0502 196.727L93.0902 197.178C93.6418 197.239 94.6242 197.228 94.7284 196.304C94.8981 194.798 93.0573 194.925 91.6709 194.771L89.3005 194.506L89.5526 192.271L93.6373 192.726C93.8162 192.746 95.1014 192.995 95.2241 191.907C95.3989 190.356 93.5597 190.468 92.1733 190.314L89.803 190.05L90.0567 187.799L97.4079 188.603L97.1643 190.764L96.2102 190.658C97.0343 191.248 97.1854 192.05 97.1098 192.72C97.0258 193.466 96.64 194.343 95.4086 194.689C96.5438 195.465 96.6998 196.357 96.604 197.207ZM95.6385 205.772C95.4167 207.739 93.6012 208.578 91.4396 208.338C88.9202 208.057 87.7812 206.511 87.961 204.916C88.0399 204.216 88.4089 203.487 88.9231 203.076L85.3005 202.673L85.5543 200.422L95.945 201.58L95.6913 203.831L95.1397 203.769C95.6043 204.334 95.7107 205.131 95.6385 205.772ZM89.9845 204.508C89.8803 205.432 90.4394 205.962 91.7215 206.105C92.9886 206.246 93.637 205.851 93.7379 204.956C93.8723 203.764 93.091 203.33 92.0475 203.213C91.0039 203.097 90.1105 203.39 89.9845 204.508ZM74.4729 145.09C74.8274 141.945 77.2243 140.1 80.5189 140.467C83.8434 140.837 85.7864 143.152 85.4352 146.267C85.173 148.592 83.7872 150.173 81.7336 150.714L81.1275 148.458C82.3506 148.187 83.0562 147.285 83.199 146.018C83.4006 144.229 82.3571 143.041 80.2849 142.81C78.2128 142.579 76.9124 143.536 76.7091 145.34C76.5629 146.636 77.0682 147.644 78.2354 148.136L77.1536 150.234C75.1637 149.273 74.2124 147.401 74.4729 145.09ZM81.2657 154.731C81.0305 156.818 79.7861 157.947 78.0419 157.752L73.3758 157.232L73.6077 155.176L74.355 155.108C73.6321 154.424 73.6168 153.622 73.6773 153.085C73.8638 151.431 75.0268 150.353 76.5325 150.521C77.3823 150.616 77.9498 151.071 78.2221 151.735C78.4235 152.226 78.4772 152.82 78.4032 153.476L78.1747 155.503L78.294 155.517C78.8158 155.575 79.2389 155.169 79.3313 154.349C79.3935 153.798 79.2933 153.213 78.7411 152.488L80.2809 151.014C81.1457 152.046 81.4102 153.449 81.2657 154.731ZM75.4408 153.644C75.35 154.449 75.7945 155.193 76.52 155.319L76.7115 153.62C76.7384 153.381 76.7155 153.182 76.6412 153.038C76.5536 152.878 76.413 152.787 76.2341 152.767C75.8614 152.725 75.513 153.003 75.4408 153.644ZM80.2265 163.949C80.1694 164.456 79.9848 164.888 79.5831 165.372L77.6766 164.072C77.8343 163.879 78.0122 163.506 78.0525 163.148C78.1416 162.358 77.6339 161.774 76.3369 161.629L72.923 161.249L73.1768 158.998L80.5263 159.817L80.2709 162.083L79.1528 161.958C79.8894 162.387 80.3156 163.159 80.2265 163.949ZM79.4785 170.584C79.2869 172.284 78.159 173.184 76.5489 173.005L71.6592 172.46L71.9129 170.209L75.9678 170.661C76.5343 170.724 77.4735 170.829 77.6046 169.666C77.7608 168.28 76.434 168.132 75.629 168.042L72.2002 167.66L72.454 165.41L79.8035 166.229L79.5498 168.479L78.864 168.403C79.4727 169.029 79.5659 169.809 79.4785 170.584ZM79.8204 175.184L81.8479 175.41L81.5891 177.705L79.5616 177.479L79.8204 175.184ZM71.4555 174.267L78.805 175.086L78.5513 177.336L71.2017 176.517L71.4555 174.267ZM70.7687 180.358L78.456 178.182L78.1787 180.641L73.603 181.595L77.8477 183.577L77.5755 185.992L70.562 182.192L70.7687 180.358ZM77.3087 189.832C77.0734 191.918 75.8291 193.048 74.0849 192.853L69.4188 192.333L69.6506 190.276L70.3979 190.209C69.675 189.524 69.6597 188.723 69.7202 188.186C69.9067 186.532 71.0698 185.454 72.5755 185.622C73.4252 185.716 73.9928 186.172 74.2651 186.836C74.4664 187.326 74.5202 187.921 74.4462 188.577L74.2177 190.604L74.337 190.617C74.8587 190.675 75.2818 190.27 75.3742 189.45C75.4364 188.899 75.3363 188.314 74.7841 187.588L76.3239 186.115C77.1887 187.147 77.4532 188.55 77.3087 189.832ZM71.4837 188.745C71.393 189.55 71.8375 190.294 72.5629 190.42L72.7545 188.72C72.7814 188.482 72.7585 188.283 72.6842 188.139C72.5966 187.978 72.4559 187.887 72.277 187.867C71.9044 187.826 71.556 188.104 71.4837 188.745ZM68.8491 195.914C68.9701 194.84 69.6771 194.059 71.0933 194.217L79.6206 195.167L79.3668 197.418L71.1377 196.501C70.7948 196.463 70.7333 196.607 70.7014 196.89C70.6879 197.009 70.6827 197.19 70.7072 197.373L68.9481 197.177C68.8213 196.695 68.8121 196.242 68.8491 195.914Z" fill="#F3F3F3"/>
<path d="M81.1892 101.637L82.1723 109.967L89.688 111.22L82.7799 115.115L83.7629 123.445L78.5104 117.523L71.6023 121.418L75.2642 113.862L70.0116 107.94L77.5273 109.193L81.1892 101.637Z" fill="#F3F3F3"/>
<path d="M68.9353 213.012L69.9184 221.342L77.4341 222.595L70.526 226.49L71.509 234.82L66.2565 228.898L59.3484 232.793L63.0103 225.237L57.7577 219.315L65.2734 220.567L68.9353 213.012Z" fill="#F3F3F3"/>
</g>
<defs>
<filter id="filter0_d_1806_8484" x="28.309" y="84.7209" width="437.593" height="223.41" filterUnits="userSpaceOnUse" color-interpolation-filters="sRGB">
<feFlood flood-opacity="0" result="BackgroundImageFix"/>
<feColorMatrix in="SourceAlpha" type="matrix" values="0 0 0 0 0 0 0 0 0 0 0 0 0 0 0 0 0 0 127 0" result="hardAlpha"/>
<feOffset dy="9"/>
<feGaussianBlur stdDeviation="2.7"/>
<feComposite in2="hardAlpha" operator="out"/>
<feColorMatrix type="matrix" values="0 0 0 0 0 0 0 0 0 0 0 0 0 0 0 0 0 0 0.25 0"/>
<feBlend mode="normal" in2="BackgroundImageFix" result="effect1_dropShadow_1806_8484"/>
<feBlend mode="normal" in="SourceGraphic" in2="effect1_dropShadow_1806_8484" result="shape"/>
</filter>
<linearGradient id="paint0_linear_1806_8484" x1="31.8938" y1="76.4694" x2="661.797" y2="344.311" gradientUnits="userSpaceOnUse">
<stop offset="0.0111096" stop-color="#00A3E0"/>
<stop offset="0.73996" stop-color="#004B67"/>
</linearGradient>
</defs>
</svg>
