<svg width="1440" height="641" viewBox="0 0 1440 641" fill="none" xmlns="http://www.w3.org/2000/svg">
<g clip-path="url(#clip0_20_5020)">
<path d="M1265.45 133.875C1254.68 129.47 1253.59 129.63 1257.47 135.076H1253.49L1251.69 133.074H1246.51C1238.27 128.056 1234.85 130.282 1227.37 132.073C1235.35 132.673 1238.82 133.952 1240.53 136.478L1236.54 139.282L1219 144.689L1238.34 141.685C1244.82 143.736 1246.91 143.087 1250.1 139.282C1262.23 145.327 1268.63 149.096 1276.61 159.109C1275.61 148.495 1271.84 143.666 1255.88 137.079H1260.06C1269.8 139.405 1274.91 140.713 1279 143.087C1276.67 140.516 1274.27 140.11 1265.45 133.875Z" fill="#046C6B"/>
<path d="M1331.67 93.8132C1315.52 87.2044 1313.89 87.4449 1319.71 95.6147H1313.73L1311.04 92.6107H1303.26C1290.91 85.0841 1285.78 88.4224 1274.56 91.1096C1286.52 92.0099 1291.73 93.9285 1294.29 97.7175L1288.31 101.923L1262 110.034L1291 105.528C1300.73 108.604 1303.86 107.631 1308.64 101.923C1326.85 110.99 1336.45 116.643 1348.41 131.663C1346.92 115.742 1341.26 108.498 1317.32 98.6187H1323.59C1338.2 102.108 1345.86 104.07 1352 107.631C1348.5 103.773 1344.91 103.165 1331.67 93.8132Z" fill="#046C6B"/>
</g>
<defs>
<clipPath id="clip0_20_5020">
<rect width="1440" height="640.137" fill="white"/>
</clipPath>
</defs>
</svg>
