<svg width="523" height="383" viewBox="0 0 523 383" fill="none" xmlns="http://www.w3.org/2000/svg">
<g filter="url(#filter0_d_1806_8159)">
<rect width="281.634" height="141.407" rx="8" transform="matrix(0.990694 0.13981 -0.141251 0.989453 178.388 105.733)" fill="#FFDFBE"/>
<path d="M158.034 191.166C158.908 192.192 162.162 194.2 168.186 194.027C175.717 193.811 210.232 171.941 227.565 174.713C244.899 177.485 246.195 199.521 262.098 201.543C278.002 203.564 284.039 188.443 293.389 188.589C302.74 188.735 324.571 206.234 335.142 204.145C345.713 202.057 371.15 181.155 399.347 185.732C421.904 189.393 438.617 226.948 443.229 242.617" stroke="#F9AE45" stroke-width="1.2"/>
<path d="M157.05 196.94C157.922 197.964 161.17 199.969 167.183 199.796C174.699 199.58 208.041 176.445 225.341 179.212C242.641 181.979 241.447 203.464 260.926 206.378C280.405 209.292 286.108 194.567 295.44 194.712C304.773 194.858 323.269 211.98 333.819 209.895C348.341 207.026 370.14 186.732 398.284 191.3C420.798 194.954 433.2 229.286 437.803 244.925" stroke="#F9AE45" stroke-width="1.2"/>
<path d="M155.679 202.359C156.551 203.383 160.384 205.298 166.397 205.126C176.254 204.843 206.519 181.409 223.819 184.176C241.119 186.943 239.493 208.363 258.972 211.277C278.451 214.192 287.067 200.619 296.4 200.764C305.732 200.909 323.854 217.665 334.405 215.58C348.926 212.711 368.739 191.625 396.882 196.192C419.397 199.847 429.477 237.86 434.08 253.499" stroke="#F9AE45" stroke-width="1.2"/>
<path d="M159.427 192.894L161.396 198.828" stroke="#F9AE45" stroke-width="1.2"/>
<path d="M163.096 193.442L165.065 199.377" stroke="#F9AE45" stroke-width="1.2"/>
<path d="M166.371 194.079L169.12 199.837" stroke="#F9AE45" stroke-width="1.2"/>
<path d="M169.706 194.072L172.295 198.221" stroke="#F9AE45" stroke-width="1.2"/>
<path d="M173.064 193.144L175.653 197.293" stroke="#F9AE45" stroke-width="1.2"/>
<path d="M175.917 191.779L178.506 195.928" stroke="#F9AE45" stroke-width="1.2"/>
<path d="M178.77 190.417L181.359 194.565" stroke="#F9AE45" stroke-width="1.2"/>
<path d="M181.62 189.052L184.209 193.201" stroke="#F9AE45" stroke-width="1.2"/>
<path d="M184.474 187.689L187.063 191.838" stroke="#F9AE45" stroke-width="1.2"/>
<path d="M187.326 186.325L189.915 190.474" stroke="#F9AE45" stroke-width="1.2"/>
<path d="M190.178 184.962L192.767 189.111" stroke="#F9AE45" stroke-width="1.2"/>
<path d="M193.033 183.599L195.622 187.748" stroke="#F9AE45" stroke-width="1.2"/>
<path d="M195.885 182.235L198.474 186.383" stroke="#F9AE45" stroke-width="1.2"/>
<path d="M198.74 180.872L201.329 185.021" stroke="#F9AE45" stroke-width="1.2"/>
<path d="M201.592 179.508L204.181 183.657" stroke="#F9AE45" stroke-width="1.2"/>
<path d="M204.632 178.351L207.221 182.5" stroke="#F9AE45" stroke-width="1.2"/>
<path d="M208.053 177.61L210.145 181.923" stroke="#F9AE45" stroke-width="1.2"/>
<path d="M211.5 176.693L212.755 180.294" stroke="#F9AE45" stroke-width="1.2"/>
<path d="M214.677 176.095L215.933 179.696" stroke="#F9AE45" stroke-width="1.2"/>
<path d="M218.243 175.627L218.672 179.317" stroke="#F9AE45" stroke-width="1.2"/>
<path d="M221.896 175.349L221.786 179.028" stroke="#F9AE45" stroke-width="1.2"/>
<path d="M225.906 175.12L225.089 178.703" stroke="#F9AE45" stroke-width="1.2"/>
<path d="M229.955 175.874L228.527 179.3" stroke="#F9AE45" stroke-width="1.2"/>
<path d="M233.979 177.908L230.99 180.519" stroke="#F9AE45" stroke-width="1.2"/>
<path d="M236.92 180.072L233.608 182.409" stroke="#F9AE45" stroke-width="1.2"/>
<path d="M239.68 181.983L236.368 184.32" stroke="#F9AE45" stroke-width="1.2"/>
<path d="M241.879 184.254L238.266 186.28" stroke="#F9AE45" stroke-width="1.2"/>
<path d="M243.292 186.642L239.679 188.667" stroke="#F9AE45" stroke-width="1.2"/>
<path d="M244.702 189.03L241.09 191.056" stroke="#F9AE45" stroke-width="1.2"/>
<path d="M246.348 191.217L242.735 193.242" stroke="#F9AE45" stroke-width="1.2"/>
<path d="M247.784 193.401L244.171 195.427" stroke="#F9AE45" stroke-width="1.2"/>
<path d="M250.107 195.539L246.494 197.564" stroke="#F9AE45" stroke-width="1.2"/>
<path d="M251.995 197.612L248.382 199.638" stroke="#F9AE45" stroke-width="1.2"/>
<path d="M254.116 199.151L251.016 201.674" stroke="#F9AE45" stroke-width="1.2"/>
<path d="M256.083 200.54L253.699 203.55" stroke="#F9AE45" stroke-width="1.2"/>
<path d="M258.539 201.312L257.21 204.768" stroke="#F9AE45" stroke-width="1.2"/>
<path d="M260.968 202.177L260.247 205.779" stroke="#F9AE45" stroke-width="1.2"/>
<path d="M263.625 202.395L263.746 206.085" stroke="#F9AE45" stroke-width="1.2"/>
<path d="M266.482 202.465L267.643 206.083" stroke="#F9AE45" stroke-width="1.2"/>
<path d="M269.176 202.151L270.965 205.793" stroke="#F9AE45" stroke-width="1.2"/>
<path d="M271.95 201.313L274.25 205.06" stroke="#F9AE45" stroke-width="1.2"/>
<path d="M274.368 199.885L277.288 203.903" stroke="#F9AE45" stroke-width="1.2"/>
<path d="M276.792 198.457L280.196 202.189" stroke="#F9AE45" stroke-width="1.2"/>
<path d="M279.213 197.029L282.86 200.618" stroke="#F9AE45" stroke-width="1.2"/>
<path d="M281.635 195.601L285.282 199.19" stroke="#F9AE45" stroke-width="1.2"/>
<path d="M283.867 193.965L287.514 197.554" stroke="#F9AE45" stroke-width="1.2"/>
<path d="M286.145 192.3L289.7 195.949" stroke="#F9AE45" stroke-width="1.2"/>
<path d="M288.862 190.423L291.846 195.159" stroke="#F9AE45" stroke-width="1.2"/>
<path d="M292.719 189.382L294.3 194.495" stroke="#F9AE45" stroke-width="1.2"/>
<path d="M297.086 189.677L296.683 194.845" stroke="#F9AE45" stroke-width="1.2"/>
<path d="M300.619 191.101L298.68 195.163" stroke="#F9AE45" stroke-width="1.2"/>
<path d="M303.787 192.291L301.395 196.169" stroke="#F9AE45" stroke-width="1.2"/>
<path d="M306.956 193.481L304.563 197.36" stroke="#F9AE45" stroke-width="1.2"/>
<path d="M310.071 195.022L307.679 198.901" stroke="#F9AE45" stroke-width="1.2"/>
<path d="M313.133 196.912L310.741 200.791" stroke="#F9AE45" stroke-width="1.2"/>
<path d="M316.221 198.627L313.829 202.506" stroke="#F9AE45" stroke-width="1.2"/>
<path d="M319.301 200.52L316.909 204.399" stroke="#F9AE45" stroke-width="1.2"/>
<path d="M322.382 202.413L319.99 206.292" stroke="#F9AE45" stroke-width="1.2"/>
<path d="M325.292 203.207L323.733 207.394" stroke="#F9AE45" stroke-width="1.2"/>
<path d="M328.219 204.003L327.758 208.946" stroke="#F9AE45" stroke-width="1.2"/>
<path d="M331.428 204.662L332.44 209.624" stroke="#F9AE45" stroke-width="1.2"/>
<path d="M334.714 204.795L337.997 209.152" stroke="#F9AE45" stroke-width="1.2"/>
<path d="M338.215 203.528L341.498 207.885" stroke="#F9AE45" stroke-width="1.2"/>
<path d="M341.121 201.815L344.404 206.172" stroke="#F9AE45" stroke-width="1.2"/>
<path d="M344.378 200.691L347.661 205.048" stroke="#F9AE45" stroke-width="1.2"/>
<path d="M347.767 198.692L351.05 203.049" stroke="#F9AE45" stroke-width="1.2"/>
<path d="M351.158 196.692L354.441 201.049" stroke="#F9AE45" stroke-width="1.2"/>
<path d="M354.549 194.693L357.832 199.05" stroke="#F9AE45" stroke-width="1.2"/>
<path d="M358.719 193.348L362.002 197.704" stroke="#F9AE45" stroke-width="1.2"/>
<path d="M362.032 191.875L365.315 196.231" stroke="#F9AE45" stroke-width="1.2"/>
<path d="M365.127 190.368L368.41 194.724" stroke="#F9AE45" stroke-width="1.2"/>
<path d="M369.405 188.76L371.612 193.511" stroke="#F9AE45" stroke-width="1.2"/>
<path d="M373.392 188.203L375.599 192.954" stroke="#F9AE45" stroke-width="1.2"/>
<path d="M377.487 187.383L379.694 192.134" stroke="#F9AE45" stroke-width="1.2"/>
<path d="M381.581 186.563L383.788 191.314" stroke="#F9AE45" stroke-width="1.2"/>
<path d="M385.958 185.68L387.596 190.558" stroke="#F9AE45" stroke-width="1.2"/>
<path d="M391.283 185.523L391.456 190.51" stroke="#F9AE45" stroke-width="1.2"/>
<path d="M410.474 190.314L406.258 193.701" stroke="#F9AE45" stroke-width="1.2"/>
<path d="M407.252 188.706L403.036 192.094" stroke="#F9AE45" stroke-width="1.2"/>
<path d="M402.64 186.835L400.751 191.422" stroke="#F9AE45" stroke-width="1.2"/>
<path d="M398.111 186.069L397.333 190.571" stroke="#F9AE45" stroke-width="1.2"/>
<path d="M412.956 193.047L408.366 196.096" stroke="#F9AE45" stroke-width="1.2"/>
<path d="M416.22 194.789L411.63 197.837" stroke="#F9AE45" stroke-width="1.2"/>
<path d="M419.001 196.816L414.411 199.865" stroke="#F9AE45" stroke-width="1.2"/>
<path d="M421.272 199.304L416.683 202.353" stroke="#F9AE45" stroke-width="1.2"/>
<path d="M423.782 202.062L418.71 204.571" stroke="#F9AE45" stroke-width="1.2"/>
<path d="M424.93 205.223L420.675 206.548" stroke="#F9AE45" stroke-width="1.2"/>
<path d="M426.932 208.029L422.678 209.354" stroke="#F9AE45" stroke-width="1.2"/>
<path d="M428.933 210.835L424.679 212.16" stroke="#F9AE45" stroke-width="1.2"/>
<path d="M430.503 213.575L426.249 214.9" stroke="#F9AE45" stroke-width="1.2"/>
<path d="M431.642 216.253L427.387 217.578" stroke="#F9AE45" stroke-width="1.2"/>
<path d="M433.212 218.994L428.958 220.319" stroke="#F9AE45" stroke-width="1.2"/>
<path d="M434.703 222.26L430.448 223.585" stroke="#F9AE45" stroke-width="1.2"/>
<path d="M435.814 225.112L431.56 226.437" stroke="#F9AE45" stroke-width="1.2"/>
<path d="M436.926 227.965L432.672 229.29" stroke="#F9AE45" stroke-width="1.2"/>
<path d="M438.039 230.817L433.785 232.142" stroke="#F9AE45" stroke-width="1.2"/>
<path d="M439.151 233.668L434.897 234.993" stroke="#F9AE45" stroke-width="1.2"/>
<path d="M440.263 236.52L436.008 237.845" stroke="#F9AE45" stroke-width="1.2"/>
<path d="M441.377 239.372L437.123 240.697" stroke="#F9AE45" stroke-width="1.2"/>
<path d="M159.807 199.127L153.435 241.231" stroke="#F9AE45" stroke-width="1.2"/>
<path d="M173.831 197.555L166.982 250.698" stroke="#F9AE45" stroke-width="1.2"/>
<path d="M188.952 189.433L179.317 256.296" stroke="#F9AE45" stroke-width="1.2"/>
<path d="M203.917 183.078L194.193 247.329" stroke="#F9AE45" stroke-width="1.2"/>
<path d="M218.35 179.508L207.778 249.362" stroke="#F9AE45" stroke-width="1.2"/>
<path d="M231.961 181.366L221.363 251.395" stroke="#F9AE45" stroke-width="1.2"/>
<path d="M243.799 194.954L234.949 253.428" stroke="#F9AE45" stroke-width="1.2"/>
<path d="M256.22 204.689L248.537 255.459" stroke="#F9AE45" stroke-width="1.2"/>
<path d="M269.807 206.722L262.123 257.492" stroke="#F9AE45" stroke-width="1.2"/>
<path d="M284.718 200.001L275.709 259.525" stroke="#F9AE45" stroke-width="1.2"/>
<path d="M299.312 195.381L289.297 261.558" stroke="#F9AE45" stroke-width="1.2"/>
<path d="M312.209 201.966L302.883 263.591" stroke="#F9AE45" stroke-width="1.2"/>
<path d="M325.104 208.549L316.467 265.622" stroke="#F9AE45" stroke-width="1.2"/>
<path d="M339.086 207.956L330.052 267.655" stroke="#F9AE45" stroke-width="1.2"/>
<path d="M354.104 200.535L343.638 269.688" stroke="#F9AE45" stroke-width="1.2"/>
<path d="M368.856 194.865L357.225 271.721" stroke="#F9AE45" stroke-width="1.2"/>
<path d="M383.289 191.295L370.81 273.754" stroke="#F9AE45" stroke-width="1.2"/>
<path d="M397.274 190.701L384.397 275.785" stroke="#F9AE45" stroke-width="1.2"/>
<path d="M410.303 196.41L397.982 277.818" stroke="#F9AE45" stroke-width="1.2"/>
<path d="M422.246 209.298L411.569 279.851" stroke="#F9AE45" stroke-width="1.2"/>
<path d="M432.997 230.062L425.154 281.883" stroke="#F9AE45" stroke-width="1.2"/>
<rect width="162.047" height="93.7275" rx="7" transform="matrix(0.988786 0.1491 -0.150798 0.988601 231.16 134.933)" fill="white"/>
<path d="M397.08 236.327C394.131 245.932 380.195 254.989 373.639 255.366L411.867 261.783C403.362 257.101 396.348 244.692 397.08 236.327Z" fill="#F9AE45" stroke="#F9AE45" stroke-width="0.756326"/>
<mask id="mask0_1806_8159" style="mask-type:alpha" maskUnits="userSpaceOnUse" x="373" y="236" width="40" height="27">
<path d="M397.094 236.235C394.145 245.84 380.209 254.897 373.652 255.274L411.881 261.691C403.375 257.009 396.361 244.6 397.094 236.235Z" fill="#A9A9A9" stroke="#F5F5F5" stroke-width="0.756326"/>
</mask>
<g mask="url(#mask0_1806_8159)">
<path d="M398.95 258.591C397.244 257.011 396.791 243.917 396.793 237.827C394.961 244.095 389.587 252.38 386.501 257.262C391.361 258.363 400.655 260.171 398.95 258.591Z" fill="#F9AE45" stroke="#F9AE45" stroke-width="0.756326"/>
<path d="M403.568 258.785C401.777 258.499 395.735 245.16 397.213 239.487L410.947 255.225C409.381 256.866 405.46 259.086 403.568 258.785Z" fill="#F9AE45" stroke="#F9AE45" stroke-width="0.756326"/>
<path d="M381.666 255.879C383.491 255.121 393.037 247.624 396.187 239.043L376.121 249.659C377.091 251.702 379.841 256.637 381.666 255.879Z" fill="#F9AE45" stroke="#F9AE45" stroke-width="0.756326"/>
<path d="M397.505 234.192L398.269 241.202C398.269 241.202 397.226 242.766 396.036 242.553C394.529 242.285 394.176 240.55 394.176 240.55L397.505 234.192Z" fill="#F9AE45" stroke="#F9AE45" stroke-width="0.756326"/>
</g>
<path d="M397.629 232.9L397.092 236.235C397.624 236.679 398.533 238.274 400.078 237.882C401.666 237.479 402.332 237.944 402.686 238.298L403.091 235.785C403.084 235.315 402.577 234.428 400.601 234.639C398.624 234.849 397.796 233.567 397.629 232.9Z" fill="#F9AE45" stroke="#F9AE45" stroke-width="0.756326"/>
<path d="M373.637 255.366C377.62 255.079 387.256 254.771 393.933 255.834C400.61 256.897 408.665 260.273 411.858 261.828C411.391 268.957 414.453 283.666 422.243 285.082C422.907 285.188 422.993 285.203 422.389 285.107C422.34 285.099 422.292 285.091 422.243 285.082C417.1 284.255 377.293 277.883 356.743 274.651C368.646 271.018 371.234 264.355 373.637 255.366Z" fill="#F9AE45" stroke="#F9AE45" stroke-width="0.756326"/>
<mask id="mask1_1806_8159" style="mask-type:alpha" maskUnits="userSpaceOnUse" x="356" y="254" width="68" height="32">
<path d="M373.638 255.366C377.621 255.079 387.257 254.771 393.934 255.834C400.611 256.897 408.666 260.273 411.859 261.828C411.392 268.957 414.454 283.666 422.244 285.082C422.908 285.188 422.994 285.203 422.39 285.107C422.341 285.099 422.293 285.091 422.244 285.082C417.101 284.255 377.294 277.883 356.744 274.651C368.647 271.018 371.235 264.355 373.638 255.366Z" fill="#B4B4B4" stroke="#F5F5F5" stroke-width="0.756326"/>
</mask>
<g mask="url(#mask1_1806_8159)">
<path d="M408.424 285.954C397.689 283.869 396.098 266.034 396.644 257.376C395.307 251.657 392.034 243.427 389.637 256.26C387.241 269.094 375.247 277.276 371.671 280.101C386.98 282.695 419.159 288.04 408.424 285.954Z" fill="#F9AE45" stroke="#F9AE45" stroke-width="0.756326"/>
<path d="M360.051 278.129C367.898 279.192 383.516 264.81 383.173 255.953C383.688 250.055 383.993 241.894 378.924 255.276C372.615 271.93 360.268 275.071 350.294 276.107C349.995 276.294 352.204 277.067 360.051 278.129Z" fill="#F9AE45" stroke="#F9AE45" stroke-width="0.756326"/>
<path d="M417.671 287.307C409.883 285.88 400.419 267.691 403.155 259.137C404.519 253.373 407.331 245.52 407.569 259.84C407.87 277.921 418.347 286.947 427.576 288.417C427.801 288.687 425.46 288.735 417.671 287.307Z" fill="#F9AE45" stroke="#F9AE45" stroke-width="0.756326"/>
</g>
<path d="M373.056 260.892L372.054 258.563L370.674 260.141L373.056 260.892Z" fill="#F9AE45" stroke="#F9AE45" stroke-width="5"/>
<path d="M369.709 264.422L368.996 261.853L367.322 263.387L369.709 264.422Z" fill="#F9AE45" stroke="#F9AE45" stroke-width="5"/>
<path d="M365.25 268.137L364.882 265.425L363.197 266.694L365.25 268.137Z" fill="#F9AE45" stroke="#F9AE45" stroke-width="5"/>
<path d="M360.952 271.169L360.84 268.405L359.186 269.405L360.952 271.169Z" fill="#F9AE45" stroke="#F9AE45" stroke-width="5"/>
<path d="M356.421 273.298L356.614 270.711L354.895 271.547L356.421 273.298Z" fill="#F9AE45" stroke="#F9AE45" stroke-width="5"/>
<path d="M351.553 275.314L351.563 272.681L349.817 273.432L351.553 275.314Z" fill="#F9AE45" stroke="#F9AE45" stroke-width="5"/>
<path d="M373.883 255.757C369.193 263.25 356.386 273.911 342.379 274.654" stroke="#F9AE45" stroke-width="3"/>
<path d="M410.929 267.296L412.613 265.395L413.428 267.322L410.929 267.296Z" fill="#F9AE45" stroke="#F9AE45" stroke-width="5"/>
<path d="M413.003 271.689L414.487 269.469L415.595 271.446L413.003 271.689Z" fill="#F9AE45" stroke="#F9AE45" stroke-width="5"/>
<path d="M416.068 276.602L417.27 274.14L418.472 275.87L416.068 276.602Z" fill="#F9AE45" stroke="#F9AE45" stroke-width="5"/>
<path d="M419.2 280.818L420.175 278.227L421.431 279.69L419.2 280.818Z" fill="#F9AE45" stroke="#F9AE45" stroke-width="5"/>
<path d="M422.835 284.247L423.464 281.73L424.834 283.057L422.835 284.247Z" fill="#F9AE45" stroke="#F9AE45" stroke-width="5"/>
<path d="M426.824 287.674L427.642 285.17L429.064 286.426L426.824 287.674Z" fill="#F9AE45" stroke="#F9AE45" stroke-width="5"/>
<path d="M411.757 262.161C413.858 270.736 422.675 284.841 435.747 289.896" stroke="#F9AE45" stroke-width="3"/>
<path d="M375.939 255.92C375.515 256.715 373.374 258.557 372.732 258.455C372.09 258.353 372.556 257.13 372.859 256.648L373.634 255.412C374.96 254.593 390.464 255.938 393.554 256.43C396.644 256.922 410.344 259.027 412.03 262.324C412.343 262.936 411.875 266.358 411.833 265.086C411.799 264.069 410.85 262.667 409.995 261.672C409.805 262.595 409.109 264.408 407.846 264.282C406.582 264.156 404.325 260.847 403.354 259.209C403.225 260.266 402.609 262.351 401.179 262.236C399.749 262.121 397.741 259.049 396.917 257.527C396.298 259.23 394.717 260.778 392.625 260.405C390.794 260.079 390.054 257.887 389.931 256.696C388.994 257.656 386.587 259.565 384.454 259.525C381.787 259.475 383.186 255.387 382.89 255.949C382.593 256.511 378.962 259.635 376.836 259.296C374.709 258.957 376.47 254.927 375.939 255.92Z" fill="#F9AE45" stroke="#F9AE45" stroke-width="0.756326"/>
<path d="M374.178 252.003C373.926 252.373 373.331 254.527 373.621 255.459C378.345 255.636 388.849 256.14 393.077 256.739C398.363 257.488 411.11 261.757 411.862 262.063C413.214 260.133 412.824 258.933 412.787 258.432C412.758 258.035 410.263 258.908 408.826 259.705C408.979 258.672 408.715 256.963 407.507 255.912C406.298 254.861 403.39 256.36 402.087 257.241C402.114 256.655 401.847 255.151 400.555 253.825C399.262 252.5 395.212 254.094 393.348 255.056C392.453 253.903 390.111 251.584 387.909 251.531C385.707 251.479 384.634 253.218 384.373 254.093C383.943 253.201 382.617 251.425 380.752 251.464C378.422 251.513 377.025 255.209 377.111 254.429C377.196 253.65 374.493 251.54 374.178 252.003Z" fill="#F9AE45" stroke="#F9AE45" stroke-width="0.756326"/>
<path d="M407.616 282.808L368.848 276.672C376.536 277.283 383.41 271.354 384.271 266.009C385.675 266.233 389.245 265.536 392.634 261.869C394.614 266.438 396.423 266.96 398.917 268.342C397.276 278.529 407.616 282.808 407.616 282.808Z" fill="#F9AE45" stroke="#F9AE45" stroke-width="0.756326"/>
<path d="M403.041 282.079C400.992 281.676 392.493 268.421 392.628 261.905C390.332 268.239 379.652 277.504 374.064 277.503C385.556 279.295 403.159 282.102 403.041 282.079Z" fill="#F9AE45" stroke="#F9AE45" stroke-width="0.756326"/>
<path d="M300.982 252.189L300.609 254.448L318.109 257.306L318.482 255.047C311.781 249.753 304.023 250.936 300.982 252.189Z" fill="#F9AE45"/>
<rect width="0.210711" height="2.6904" transform="matrix(0.995726 0.0946723 -0.0786655 0.99665 297.086 250.198)" fill="#F9AE45"/>
<rect width="0.210711" height="2.6904" transform="matrix(0.995726 0.0946723 -0.0786655 0.99665 300.875 250.121)" fill="#F9AE45"/>
<rect width="0.210711" height="2.69039" transform="matrix(-0.973863 -0.227004 -0.246133 0.969299 319.243 253.142)" fill="#F9AE45"/>
<rect width="0.210711" height="2.69039" transform="matrix(-0.973863 -0.227004 -0.246133 0.969299 322.445 254.318)" fill="#F9AE45"/>
<path d="M295.579 252.435L295.289 254.191L323.238 258.755L323.528 257C312.271 251.897 300.205 251.83 295.579 252.435Z" fill="#F9AE45"/>
<path d="M295.701 250.465L297.099 250.211L297.028 251.001L295.701 250.465Z" fill="#F9AE45"/>
<path d="M323.691 255.036L322.448 254.351L322.261 255.122L323.691 255.036Z" fill="#F9AE45"/>
<path d="M299.47 250.42L300.861 250.141L300.808 250.933L299.47 250.42Z" fill="#F9AE45"/>
<path d="M299.471 250.417L300.862 250.138L300.809 250.93L299.471 250.417Z" fill="#F9AE45"/>
<path d="M299.471 250.417L300.862 250.138L300.809 250.93L299.471 250.417Z" fill="#F9AE45"/>
<path d="M320.476 253.848L319.248 253.141L319.043 253.908L320.476 253.848Z" fill="#F9AE45"/>
<rect width="25.3063" height="10.3781" transform="matrix(0.987017 0.161201 -0.162987 0.986531 296.655 254.421)" fill="#F9AE45"/>
<path d="M330.006 256.273L329.633 258.532L347.133 261.39L347.506 259.131C340.804 253.837 333.047 255.02 330.006 256.273Z" fill="#F9AE45"/>
<rect width="0.210711" height="2.6904" transform="matrix(0.995726 0.0946723 -0.0786655 0.99665 326.11 254.28)" fill="#F9AE45"/>
<rect width="0.210711" height="2.6904" transform="matrix(0.995726 0.0946723 -0.0786655 0.99665 329.897 254.204)" fill="#F9AE45"/>
<rect width="0.210711" height="2.69039" transform="matrix(-0.973863 -0.227004 -0.246133 0.969299 348.267 257.225)" fill="#F9AE45"/>
<rect width="0.210711" height="2.69039" transform="matrix(-0.973863 -0.227004 -0.246133 0.969299 351.467 258.401)" fill="#F9AE45"/>
<path d="M324.602 256.518L324.312 258.274L352.26 262.839L352.551 261.083C341.294 255.98 329.228 255.914 324.602 256.518Z" fill="#F9AE45"/>
<path d="M324.724 254.548L326.122 254.294L326.051 255.084L324.724 254.548Z" fill="#F9AE45"/>
<path d="M352.714 259.119L351.471 258.434L351.284 259.205L352.714 259.119Z" fill="#F9AE45"/>
<path d="M328.494 254.502L329.885 254.223L329.832 255.015L328.494 254.502Z" fill="#F9AE45"/>
<path d="M328.495 254.5L329.886 254.221L329.833 255.013L328.495 254.5Z" fill="#F9AE45"/>
<path d="M328.495 254.5L329.886 254.221L329.833 255.013L328.495 254.5Z" fill="#F9AE45"/>
<path d="M349.5 257.931L348.272 257.224L348.067 257.991L349.5 257.931Z" fill="#F9AE45"/>
<rect width="25.3063" height="10.3781" transform="matrix(0.987017 0.161201 -0.162987 0.986531 325.676 258.504)" fill="#F9AE45"/>
<path d="M202.208 227.995L194.132 226.874L193.318 245.375L198.086 246.038L202.208 227.995Z" fill="#F9AE45"/>
<path d="M202.208 227.995L200.492 228.917L197.197 245.914L198.086 246.038L202.208 227.995Z" fill="#F9AE45"/>
<path d="M199.454 241.911L200.994 244.314L191.009 242.928L193.152 241.036L199.454 241.911Z" fill="#F9AE45"/>
<path d="M199.732 241.463L193.108 240.543L193.16 241.037L199.474 241.914L199.732 241.463Z" fill="#F9AE45"/>
<path d="M193.805 233.828L191.825 231.898L197.648 231.904L203.202 233.478L200.646 234.778L193.805 233.828Z" fill="#F9AE45"/>
<path d="M191.815 231.897L190.455 227.718L205.577 229.818L203.218 233.48L191.815 231.897Z" fill="#F9AE45"/>
<rect width="0.600786" height="15.5369" transform="matrix(-0.990578 -0.13757 -0.139108 0.99019 210.262 230.492)" fill="#F9AE45"/>
<rect width="0.600786" height="15.5369" transform="matrix(-0.990578 -0.13757 -0.139108 0.99019 186.552 227.2)" fill="#F9AE45"/>
<rect width="0.600786" height="15.5369" transform="matrix(-0.990578 -0.13757 -0.139108 0.99019 198.362 228.84)" fill="#F9AE45"/>
<path d="M179.716 227.975L216.025 233.017C216.329 233.06 216.609 232.848 216.652 232.544C216.694 232.241 216.483 231.961 216.179 231.919L179.871 226.876C179.567 226.834 179.287 227.046 179.244 227.349C179.201 227.653 179.413 227.933 179.716 227.975Z" fill="#F9AE45"/>
<path d="M177.382 226.745L218.283 232.425L221.847 228.255C221.847 228.255 200.678 225.315 199.774 215.764C196.469 224.731 175.427 221.808 175.427 221.808L177.382 226.745Z" fill="#F9AE45"/>
<path d="M177.382 226.745L218.283 232.425L221.847 228.255C221.847 228.255 200.678 225.315 199.774 215.764C196.469 224.731 175.427 221.808 175.427 221.808L177.382 226.745Z" fill="#F9AE45"/>
<path d="M222.186 227.866L218.866 231.836C218.561 232.201 218.089 232.383 217.618 232.317L177.859 226.796C177.41 226.733 177.02 226.454 176.817 226.048L174.238 220.885C174.113 220.636 174.096 220.349 174.33 220.196C175.011 219.752 176.88 219.213 179.584 219.589C180.58 219.727 181.374 219.974 182.004 220.262C183.067 220.75 185.56 220.954 186.721 220.805C187.238 220.739 187.846 220.736 188.554 220.835C190.085 221.047 191.162 221.641 191.893 222.226C192.607 222.796 193.717 222.806 194.504 222.337C195.416 221.795 196.795 221.348 198.714 221.615C200.165 221.816 201.242 222.331 202.028 222.907C202.953 223.586 205.094 223.852 206.222 223.635C206.847 223.514 207.614 223.482 208.542 223.61C209.858 223.793 210.793 224.18 211.447 224.599C212.283 225.135 213.694 225.367 214.644 225.076C215.451 224.828 216.553 224.723 218.142 224.944C219.98 225.199 221.093 225.54 221.836 225.869C222.599 226.207 222.722 227.226 222.186 227.866Z" fill="#F9AE45"/>
<path d="M214.169 249.167C214.866 247.763 213.983 246.091 212.431 245.876L180.359 241.422C178.746 241.198 177.417 242.676 177.811 244.255L177.86 244.451C178.086 245.359 178.842 246.037 179.769 246.166L211.704 250.601C212.684 250.737 213.641 250.231 214.081 249.345L214.169 249.167Z" fill="#F9AE45"/>
<path d="M176.689 242.031L215.555 247.428C215.754 247.456 215.952 247.375 216.073 247.215C216.331 246.878 216.13 246.388 215.71 246.33L176.844 240.932C176.41 240.872 176.08 241.314 176.261 241.712C176.34 241.884 176.501 242.005 176.689 242.031Z" fill="#F9AE45"/>
<path d="M200.895 208.179C200.089 213.916 200.352 216.722 200.659 218.041L198.364 217.722C199.811 215.899 200.954 207.762 200.895 208.179Z" fill="#F9AE45"/>
<path d="M200.916 218.428C201.062 218.191 200.917 217.882 200.641 217.844L198.466 217.542C198.199 217.505 197.977 217.746 198.036 218.009C198.071 218.165 198.2 218.284 198.359 218.306L200.534 218.608C200.685 218.629 200.835 218.558 200.916 218.428Z" fill="#F9AE45"/>
<ellipse cx="0.343379" cy="0.341543" rx="0.343379" ry="0.341543" transform="matrix(-0.990578 -0.13757 -0.139108 0.99019 201.229 208.144)" fill="#F9AE45"/>
<path d="M193.466 243.486C193.397 243.177 193.989 242.78 194.293 242.619L194.847 242.696C194.588 242.863 194.061 243.269 194.02 243.563C193.968 243.93 194.714 244.314 194.681 244.543C194.649 244.772 194.399 244.878 194.169 244.846C193.938 244.814 193.553 243.872 193.466 243.486Z" fill="#F9AE45"/>
<path d="M194.256 244.463C194.39 244.345 194.434 244.236 194.44 244.197C194.622 244.295 194.894 244.552 194.528 244.793C194.161 245.034 193.942 244.72 193.879 244.532C193.949 244.558 194.122 244.581 194.256 244.463Z" fill="#F9AE45"/>
<path d="M199.92 240.821C199.215 240.067 198.654 240.215 198.461 240.384C197.965 240.867 197.724 242.024 199.337 242.341C200.951 242.659 201.558 241.725 201.66 241.219C201.374 241.4 200.624 241.575 199.92 240.821Z" fill="#F9AE45"/>
<path d="M196.255 238.272C195.925 237.666 195.295 237.406 194.048 237.744C194.058 238.396 195.203 239.905 195.325 240.554C195.478 241.365 197.189 241.41 196.386 241.135C195.267 240.751 196.971 239.586 196.255 238.272Z" fill="#F9AE45"/>
<path d="M197.906 244.073C198.018 243.794 196.931 243.691 196.925 242.693C197.038 242.708 198.12 243.491 198.241 243.508C198.392 243.529 198.469 244.074 198.458 244.149C198.447 244.224 197.808 245.063 197.759 245.121C197.612 245.295 196.985 245.259 197.181 245.041C197.415 244.781 197.851 244.208 197.906 244.073Z" fill="#F9AE45"/>
<path d="M197.303 244.886C197.473 244.91 197.759 244.949 197.876 244.99C197.747 245.386 197.37 245.235 197.202 245.211C197.034 245.188 197.231 244.876 197.303 244.886L197.303 244.886Z" fill="#F9AE45"/>
<path d="M192.253 239.573C192.043 239.162 193.433 238.452 194.406 238.035C194.603 237.951 194.827 237.93 195.019 238.023C196.385 238.68 195.188 240.562 195.487 240.845C195.634 240.983 196.06 241.053 196.495 241.085C196.989 241.121 197.487 240.694 197.946 240.508C198.23 240.394 198.597 240.361 198.999 240.51C200.395 241.026 199.13 242.893 199.16 243.052C199.189 243.21 199.515 243.101 199.819 243.143C200.123 243.185 200.393 243.84 200.459 244.106C200.495 244.249 200.302 244.492 200.1 244.693C199.931 244.863 199.691 244.944 199.454 244.904C199.312 244.88 199.178 244.845 199.121 244.794C198.983 244.672 199.677 244.152 199.8 244.015C199.923 243.877 199.414 243.447 199.292 243.584C199.193 243.694 198.797 243.824 198.539 243.788C198.37 243.765 198.221 243.732 198.089 243.693C197.411 243.493 196.438 243.416 195.737 243.511C195.551 243.537 195.343 243.542 195.112 243.518C193.684 243.371 193.681 242.291 193.126 242.214C192.71 242.156 192.696 242.716 192.696 243.192C192.695 243.422 192.496 243.586 192.268 243.555C192.089 243.53 191.952 243.387 191.976 243.208C192.058 242.594 192.433 241.517 192.773 241.393C193.222 241.229 193.889 241.129 193.989 240.662C194.088 240.202 193.658 239.795 193.189 239.831C192.77 239.863 192.377 239.817 192.253 239.573Z" fill="#F9AE45"/>
<path d="M191.97 243.489C191.918 243.443 191.962 243.139 191.982 243.053C191.982 243.053 192.085 243.019 192.346 243.079C192.606 243.14 192.71 243.276 192.71 243.276C192.725 243.343 192.743 243.494 192.693 243.565C192.632 243.654 192.035 243.547 191.97 243.489Z" fill="#F9AE45"/>
<path d="M199.074 244.838C198.94 244.73 199.191 244.516 199.27 244.478C199.27 244.478 199.335 244.415 199.612 244.477C199.89 244.539 200.12 244.693 200.12 244.693C200.077 244.822 199.989 244.908 199.91 244.954C199.801 245.017 199.158 244.906 199.074 244.838Z" fill="#F9AE45"/>
<path d="M194.953 237.53C194.808 237.62 194.666 237.925 194.614 238.066C194.72 238.173 194.965 238.335 195.099 238.134C195.267 237.883 195.134 237.418 194.953 237.53Z" fill="#F9AE45"/>
<path d="M196.654 243.142C196.687 243.111 196.753 242.442 196.766 242.222L196.458 242.19C196.434 242.483 196.356 243.288 196.4 243.301C196.455 243.317 196.612 243.182 196.654 243.142Z" fill="#F9AE45"/>
<path d="M195.417 240.719C195.43 240.624 196.336 241.568 197.74 240.616C197.747 241.244 197.538 242.338 196.637 242.312C195.466 242.279 195.295 241.588 195.417 240.719Z" fill="#F9AE45"/>
<mask id="mask2_1806_8159" style="mask-type:alpha" maskUnits="userSpaceOnUse" x="195" y="240" width="3" height="3">
<path d="M195.415 240.719C195.429 240.624 196.334 241.568 197.739 240.616C197.745 241.244 197.537 242.338 196.635 242.312C195.464 242.279 195.293 241.588 195.415 240.719Z" fill="#BEBEBE"/>
</mask>
<g mask="url(#mask2_1806_8159)">
<path d="M195.565 240.718C195.576 240.638 196.333 241.426 197.507 240.632C197.512 241.157 197.338 242.069 196.585 242.048C195.606 242.02 195.463 241.443 195.565 240.718Z" fill="#F9AE45"/>
</g>
<path d="M193.965 238.359C193.964 238.28 193.883 238.228 193.811 238.259C193.77 238.276 193.744 238.317 193.744 238.361L193.76 239.649C193.761 239.713 193.816 239.763 193.88 239.757C193.938 239.752 193.982 239.704 193.982 239.646L193.965 238.359Z" fill="#F9AE45"/>
<path d="M192.838 238.967C192.816 238.898 192.736 238.869 192.675 238.906C192.63 238.934 192.611 238.988 192.629 239.037L192.897 239.788C192.911 239.825 192.946 239.851 192.986 239.852C193.053 239.854 193.102 239.79 193.081 239.726L192.838 238.967Z" fill="#F9AE45"/>
<path d="M193.766 239.449C193.836 239.433 193.872 239.356 193.839 239.292C193.816 239.246 193.764 239.223 193.714 239.236L192.934 239.434C192.887 239.446 192.855 239.489 192.858 239.537C192.861 239.599 192.92 239.644 192.982 239.63L193.766 239.449Z" fill="#F9AE45"/>
<path d="M181.793 242.382C181.73 242.101 182.269 241.738 182.546 241.592L183.05 241.662C182.814 241.814 182.334 242.184 182.297 242.452C182.25 242.786 182.929 243.135 182.899 243.344C182.87 243.553 182.642 243.649 182.432 243.62C182.222 243.591 181.872 242.733 181.793 242.382Z" fill="#F9AE45"/>
<path d="M182.509 243.271C182.631 243.164 182.671 243.065 182.676 243.029C182.842 243.118 183.09 243.352 182.756 243.572C182.422 243.791 182.223 243.505 182.165 243.334C182.229 243.358 182.387 243.378 182.509 243.271Z" fill="#F9AE45"/>
<path d="M187.668 239.954C187.026 239.267 186.515 239.403 186.34 239.556C185.888 239.996 185.668 241.05 187.138 241.339C188.607 241.628 189.16 240.778 189.253 240.317C188.992 240.482 188.31 240.641 187.668 239.954Z" fill="#F9AE45"/>
<path d="M184.331 237.633C184.03 237.081 183.456 236.844 182.321 237.152C182.33 237.747 183.373 239.12 183.484 239.711C183.623 240.45 185.181 240.491 184.45 240.24C183.431 239.891 184.983 238.829 184.331 237.633Z" fill="#F9AE45"/>
<path d="M185.834 242.916C185.937 242.662 184.947 242.569 184.941 241.659C185.044 241.674 186.03 242.387 186.139 242.402C186.277 242.421 186.347 242.918 186.337 242.986C186.328 243.054 185.745 243.818 185.7 243.871C185.566 244.029 184.995 243.997 185.174 243.798C185.387 243.561 185.784 243.04 185.834 242.916Z" fill="#F9AE45"/>
<path d="M185.284 243.657C185.439 243.678 185.699 243.715 185.806 243.751C185.688 244.112 185.345 243.974 185.192 243.953C185.039 243.932 185.218 243.648 185.284 243.657L185.284 243.657Z" fill="#F9AE45"/>
<path d="M180.685 238.818C180.494 238.444 181.76 237.797 182.646 237.418C182.825 237.341 183.029 237.322 183.204 237.406C184.448 238.005 183.358 239.719 183.63 239.976C183.764 240.102 184.152 240.166 184.548 240.195C184.998 240.228 185.451 239.839 185.87 239.67C186.128 239.565 186.462 239.535 186.829 239.671C188.099 240.141 186.948 241.842 186.974 241.986C187.001 242.13 187.298 242.031 187.575 242.069C187.852 242.108 188.098 242.704 188.158 242.946C188.19 243.076 188.015 243.297 187.831 243.481C187.677 243.636 187.458 243.709 187.243 243.673C187.113 243.651 186.991 243.619 186.94 243.573C186.814 243.462 187.446 242.988 187.558 242.863C187.669 242.738 187.206 242.346 187.095 242.471C187.005 242.571 186.645 242.689 186.409 242.656C186.256 242.635 186.12 242.606 185.999 242.57C185.382 242.388 184.496 242.317 183.858 242.404C183.688 242.428 183.499 242.432 183.288 242.41C181.988 242.277 181.985 241.293 181.48 241.223C181.101 241.17 181.089 241.681 181.088 242.114C181.088 242.323 180.906 242.473 180.699 242.444C180.535 242.421 180.411 242.292 180.433 242.128C180.508 241.57 180.849 240.588 181.158 240.476C181.568 240.326 182.175 240.235 182.266 239.81C182.356 239.391 181.965 239.02 181.538 239.053C181.156 239.083 180.798 239.04 180.685 238.818Z" fill="#F9AE45"/>
<path d="M180.427 242.384C180.379 242.342 180.419 242.065 180.438 241.987C180.438 241.987 180.531 241.955 180.769 242.011C181.006 242.066 181.1 242.19 181.1 242.19C181.114 242.251 181.13 242.389 181.086 242.453C181.03 242.534 180.486 242.437 180.427 242.384Z" fill="#F9AE45"/>
<path d="M186.896 243.613C186.774 243.515 187.002 243.319 187.074 243.285C187.074 243.285 187.133 243.228 187.386 243.284C187.639 243.34 187.849 243.481 187.849 243.481C187.809 243.598 187.729 243.677 187.657 243.719C187.558 243.776 186.973 243.675 186.896 243.613Z" fill="#F9AE45"/>
<path d="M183.146 236.958C183.014 237.039 182.885 237.317 182.837 237.446C182.933 237.543 183.157 237.69 183.279 237.507C183.432 237.278 183.311 236.856 183.146 236.958Z" fill="#F9AE45"/>
<path d="M184.693 242.069C184.724 242.04 184.784 241.431 184.796 241.231L184.515 241.201C184.493 241.469 184.422 242.202 184.462 242.213C184.513 242.227 184.656 242.105 184.693 242.069Z" fill="#F9AE45"/>
<path d="M183.566 239.863C183.578 239.776 184.403 240.635 185.682 239.769C185.688 240.341 185.498 241.336 184.677 241.313C183.611 241.284 183.455 240.654 183.566 239.863Z" fill="#F9AE45"/>
<mask id="mask3_1806_8159" style="mask-type:alpha" maskUnits="userSpaceOnUse" x="183" y="239" width="3" height="3">
<path d="M183.567 239.862C183.579 239.775 184.404 240.635 185.683 239.768C185.689 240.341 185.499 241.336 184.678 241.313C183.612 241.283 183.456 240.654 183.567 239.862Z" fill="#BEBEBE"/>
</mask>
<g mask="url(#mask3_1806_8159)">
<path d="M183.7 239.861C183.71 239.788 184.4 240.506 185.469 239.783C185.474 240.261 185.315 241.092 184.629 241.072C183.738 241.047 183.607 240.522 183.7 239.861Z" fill="#F9AE45"/>
</g>
<path d="M182.244 237.711C182.243 237.64 182.169 237.593 182.104 237.621C182.067 237.637 182.043 237.674 182.043 237.714L182.058 238.886C182.058 238.945 182.109 238.99 182.167 238.985C182.22 238.981 182.26 238.937 182.259 238.884L182.244 237.711Z" fill="#F9AE45"/>
<path d="M181.218 238.265C181.199 238.203 181.125 238.176 181.07 238.21C181.029 238.235 181.012 238.284 181.028 238.329L181.272 239.013C181.285 239.047 181.317 239.07 181.353 239.071C181.414 239.073 181.459 239.015 181.44 238.957L181.218 238.265Z" fill="#F9AE45"/>
<path d="M182.064 238.705C182.127 238.69 182.16 238.619 182.13 238.561C182.109 238.519 182.061 238.498 182.016 238.509L181.305 238.69C181.262 238.701 181.233 238.74 181.236 238.784C181.239 238.842 181.293 238.882 181.349 238.869L182.064 238.705Z" fill="#F9AE45"/>
<path d="M205.88 242.943C205.817 242.662 206.356 242.299 206.633 242.153L207.137 242.223C206.902 242.375 206.422 242.746 206.384 243.013C206.337 243.347 207.016 243.696 206.987 243.905C206.957 244.114 206.73 244.21 206.52 244.181C206.31 244.152 205.959 243.294 205.88 242.943Z" fill="#F9AE45"/>
<path d="M206.595 243.832C206.717 243.725 206.758 243.625 206.763 243.589C206.929 243.679 207.177 243.913 206.843 244.132C206.509 244.352 206.31 244.065 206.252 243.895C206.315 243.919 206.473 243.939 206.595 243.832Z" fill="#F9AE45"/>
<path d="M211.754 240.515C211.113 239.828 210.601 239.963 210.426 240.117C209.974 240.557 209.755 241.61 211.224 241.9C212.693 242.189 213.246 241.339 213.339 240.877C213.078 241.042 212.396 241.201 211.754 240.515Z" fill="#F9AE45"/>
<path d="M208.417 238.194C208.116 237.642 207.543 237.405 206.407 237.713C206.416 238.307 207.46 239.681 207.571 240.272C207.71 241.011 209.267 241.051 208.537 240.801C207.518 240.452 209.069 239.39 208.417 238.194Z" fill="#F9AE45"/>
<path d="M209.921 243.477C210.023 243.223 209.033 243.129 209.027 242.22C209.13 242.234 210.116 242.947 210.226 242.963C210.363 242.982 210.433 243.478 210.424 243.546C210.414 243.615 209.831 244.379 209.787 244.432C209.653 244.589 209.082 244.557 209.26 244.358C209.474 244.121 209.871 243.6 209.921 243.477Z" fill="#F9AE45"/>
<path d="M209.37 244.217C209.525 244.238 209.786 244.275 209.892 244.312C209.774 244.672 209.431 244.534 209.278 244.513C209.125 244.492 209.305 244.208 209.37 244.217L209.37 244.217Z" fill="#F9AE45"/>
<path d="M204.771 239.378C204.58 239.004 205.846 238.357 206.732 237.978C206.911 237.901 207.115 237.882 207.29 237.967C208.535 238.565 207.444 240.279 207.717 240.536C207.851 240.663 208.239 240.726 208.634 240.755C209.084 240.788 209.538 240.399 209.956 240.23C210.214 240.126 210.548 240.096 210.915 240.231C212.186 240.702 211.034 242.402 211.061 242.546C211.088 242.69 211.384 242.591 211.661 242.629C211.939 242.668 212.184 243.264 212.245 243.506C212.277 243.637 212.101 243.858 211.918 244.041C211.763 244.196 211.545 244.269 211.329 244.233C211.2 244.211 211.078 244.179 211.026 244.133C210.901 244.022 211.532 243.548 211.644 243.423C211.756 243.298 211.293 242.906 211.181 243.031C211.092 243.131 210.731 243.249 210.496 243.217C210.342 243.195 210.206 243.166 210.086 243.13C209.469 242.948 208.582 242.878 207.944 242.965C207.775 242.988 207.585 242.992 207.375 242.971C206.075 242.837 206.072 241.853 205.567 241.783C205.187 241.73 205.175 242.241 205.175 242.674C205.174 242.884 204.993 243.033 204.785 243.004C204.622 242.982 204.497 242.852 204.519 242.688C204.594 242.13 204.935 241.149 205.245 241.036C205.654 240.887 206.261 240.796 206.353 240.37C206.442 239.951 206.051 239.581 205.624 239.613C205.242 239.643 204.885 239.6 204.771 239.378Z" fill="#F9AE45"/>
<path d="M204.513 242.945C204.466 242.903 204.506 242.626 204.524 242.548C204.524 242.548 204.618 242.516 204.855 242.571C205.093 242.626 205.187 242.75 205.187 242.75C205.201 242.811 205.217 242.949 205.172 243.014C205.116 243.095 204.573 242.997 204.513 242.945Z" fill="#F9AE45"/>
<path d="M210.981 244.173C210.86 244.075 211.088 243.879 211.159 243.845C211.159 243.845 211.219 243.788 211.472 243.844C211.724 243.901 211.934 244.041 211.934 244.041C211.894 244.158 211.814 244.237 211.742 244.279C211.644 244.336 211.058 244.235 210.981 244.173Z" fill="#F9AE45"/>
<path d="M207.232 237.518C207.1 237.599 206.971 237.877 206.923 238.006C207.02 238.103 207.244 238.25 207.366 238.067C207.518 237.839 207.397 237.416 207.232 237.518Z" fill="#F9AE45"/>
<path d="M208.779 242.63C208.809 242.601 208.869 241.992 208.881 241.792L208.601 241.762C208.578 242.03 208.507 242.763 208.548 242.774C208.598 242.789 208.741 242.666 208.779 242.63Z" fill="#F9AE45"/>
<path d="M207.653 240.423C207.665 240.336 208.489 241.195 209.769 240.329C209.774 240.901 209.584 241.897 208.764 241.874C207.697 241.844 207.541 241.214 207.653 240.423Z" fill="#F9AE45"/>
<mask id="mask4_1806_8159" style="mask-type:alpha" maskUnits="userSpaceOnUse" x="207" y="240" width="3" height="2">
<path d="M207.652 240.422C207.664 240.335 208.489 241.194 209.768 240.328C209.774 240.9 209.584 241.896 208.763 241.873C207.697 241.843 207.541 241.213 207.652 240.422Z" fill="#BEBEBE"/>
</mask>
<g mask="url(#mask4_1806_8159)">
<path d="M207.785 240.42C207.795 240.348 208.484 241.065 209.553 240.342C209.558 240.82 209.4 241.651 208.714 241.632C207.822 241.607 207.692 241.081 207.785 240.42Z" fill="#F9AE45"/>
</g>
<path d="M206.329 238.272C206.328 238.201 206.255 238.153 206.189 238.181C206.152 238.197 206.128 238.234 206.129 238.275L206.143 239.447C206.144 239.505 206.194 239.551 206.253 239.546C206.305 239.541 206.345 239.497 206.345 239.444L206.329 238.272Z" fill="#F9AE45"/>
<path d="M205.303 238.826C205.283 238.763 205.21 238.736 205.155 238.77C205.114 238.795 205.097 238.845 205.113 238.89L205.357 239.573C205.37 239.608 205.402 239.631 205.438 239.632C205.499 239.634 205.544 239.575 205.525 239.517L205.303 238.826Z" fill="#F9AE45"/>
<path d="M206.148 239.265C206.212 239.251 206.245 239.18 206.215 239.122C206.193 239.08 206.146 239.058 206.1 239.07L205.39 239.251C205.347 239.261 205.318 239.301 205.32 239.345C205.323 239.402 205.377 239.443 205.434 239.43L206.148 239.265Z" fill="#F9AE45"/>
<path fill-rule="evenodd" clip-rule="evenodd" d="M149.626 92.4932L87.0251 83.0729C87.0251 83.0729 84.2829 90.5667 80.5885 93.8174C77.3542 96.6631 70.6084 98.7046 70.6084 98.7046L52.9965 223.302C52.9965 223.302 59.9022 227.044 62.2781 231.087C64.6185 235.07 64.476 242.599 64.476 242.599L127.077 252.019C132.788 244.846 135.283 245.809 138.848 253.79L439.01 298.96C439.01 298.96 441.871 290.868 446.055 287.774C449.637 285.125 456.958 284.091 456.958 284.091L474.57 159.494C474.57 159.494 467.93 155.594 465.288 151.708C462.448 147.529 461.559 139.434 461.559 139.434L161.397 94.2645C156.378 98.2084 153.752 98.3584 149.626 92.4932ZM180.939 111.651C181.337 108.92 183.873 107.049 186.604 107.471L443.488 147.184C446.219 147.607 448.11 150.162 447.712 152.893L429.423 278.435C429.025 281.166 426.488 283.037 423.757 282.615L166.874 242.902C164.143 242.479 162.252 239.924 162.65 237.193L180.939 111.651ZM152.33 111.88C155.285 112.328 158.012 110.357 158.422 107.478C158.832 104.599 156.769 101.903 153.815 101.455C150.86 101.008 148.133 102.979 147.723 105.857C147.313 108.736 149.376 111.433 152.33 111.88ZM156.047 124.158C155.637 127.037 152.91 129.008 149.955 128.561C147.001 128.113 144.938 125.417 145.348 122.538C145.758 119.659 148.485 117.688 151.44 118.136C154.394 118.583 156.457 121.28 156.047 124.158ZM147.581 145.24C150.535 145.688 153.263 143.717 153.672 140.838C154.082 137.959 152.019 135.263 149.065 134.815C146.11 134.368 143.383 136.339 142.973 139.217C142.563 142.096 144.626 144.793 147.581 145.24ZM151.298 157.518C150.888 160.397 148.161 162.368 145.206 161.92C142.251 161.473 140.188 158.777 140.598 155.898C141.008 153.019 143.736 151.048 146.69 151.496C149.645 151.943 151.708 154.639 151.298 157.518ZM143.238 178.46C146.193 178.907 148.92 176.936 149.33 174.058C149.74 171.179 147.677 168.482 144.722 168.035C141.768 167.587 139.04 169.558 138.63 172.437C138.221 175.316 140.284 178.012 143.238 178.46ZM146.872 190.858C146.462 193.737 143.735 195.708 140.78 195.26C137.825 194.813 135.762 192.116 136.172 189.237C136.582 186.359 139.31 184.388 142.264 184.835C145.219 185.283 147.282 187.979 146.872 190.858ZM138.322 212.06C141.276 212.508 144.004 210.537 144.414 207.658C144.823 204.779 142.761 202.083 139.806 201.635C136.851 201.188 134.124 203.159 133.714 206.038C133.304 208.916 135.367 211.613 138.322 212.06ZM141.953 224.457C141.543 227.336 138.816 229.307 135.861 228.859C132.907 228.412 130.844 225.715 131.254 222.836C131.663 219.958 134.391 217.987 137.345 218.434C140.3 218.882 142.363 221.578 141.953 224.457ZM133.421 244.605C136.376 245.052 139.103 243.081 139.513 240.202C139.923 237.324 137.86 234.627 134.905 234.18C131.951 233.732 129.223 235.703 128.813 238.582C128.404 241.461 130.466 244.157 133.421 244.605Z" fill="url(#paint0_linear_1806_8159)"/>
<path fill-rule="evenodd" clip-rule="evenodd" d="M149.626 92.4932L87.0251 83.0729C87.0251 83.0729 84.2829 90.5667 80.5885 93.8174C77.3542 96.6631 70.6084 98.7046 70.6084 98.7046L52.9965 223.302C52.9965 223.302 59.9022 227.044 62.2781 231.087C64.6185 235.07 64.476 242.599 64.476 242.599L127.077 252.019C132.788 244.846 135.283 245.809 138.848 253.79L439.01 298.96C439.01 298.96 441.871 290.868 446.055 287.774C449.637 285.125 456.958 284.091 456.958 284.091L474.57 159.494C474.57 159.494 467.93 155.594 465.288 151.708C462.448 147.529 461.559 139.434 461.559 139.434L161.397 94.2645C156.378 98.2084 153.752 98.3584 149.626 92.4932ZM180.939 111.651C181.337 108.921 183.873 107.049 186.604 107.472L443.488 147.185C446.219 147.607 448.11 150.163 447.712 152.893L429.423 278.436C429.025 281.166 426.488 283.038 423.757 282.615L166.874 242.902C164.143 242.48 162.252 239.924 162.65 237.194L180.939 111.651ZM152.33 111.88C155.285 112.328 158.012 110.357 158.422 107.478C158.832 104.599 156.769 101.903 153.815 101.455C150.86 101.008 148.133 102.979 147.723 105.857C147.313 108.736 149.376 111.433 152.33 111.88ZM156.047 124.158C155.637 127.037 152.91 129.008 149.955 128.561C147.001 128.113 144.938 125.417 145.348 122.538C145.758 119.659 148.485 117.688 151.44 118.136C154.394 118.583 156.457 121.28 156.047 124.158ZM147.581 145.24C150.535 145.688 153.263 143.717 153.672 140.838C154.082 137.959 152.019 135.263 149.065 134.815C146.11 134.368 143.383 136.339 142.973 139.217C142.563 142.096 144.626 144.793 147.581 145.24ZM151.298 157.518C150.888 160.397 148.161 162.368 145.206 161.92C142.251 161.473 140.188 158.777 140.598 155.898C141.008 153.019 143.736 151.048 146.69 151.496C149.645 151.943 151.708 154.639 151.298 157.518ZM143.238 178.46C146.193 178.907 148.92 176.936 149.33 174.058C149.74 171.179 147.677 168.482 144.722 168.035C141.768 167.587 139.04 169.558 138.63 172.437C138.221 175.316 140.284 178.012 143.238 178.46ZM146.872 190.858C146.462 193.737 143.735 195.708 140.78 195.26C137.825 194.813 135.762 192.116 136.172 189.237C136.582 186.359 139.31 184.388 142.264 184.835C145.219 185.283 147.282 187.979 146.872 190.858ZM138.322 212.06C141.276 212.508 144.004 210.537 144.414 207.658C144.823 204.779 142.761 202.083 139.806 201.635C136.851 201.188 134.124 203.159 133.714 206.038C133.304 208.916 135.367 211.613 138.322 212.06ZM141.953 224.457C141.543 227.336 138.816 229.307 135.861 228.859C132.907 228.412 130.844 225.715 131.254 222.836C131.663 219.958 134.391 217.987 137.345 218.434C140.3 218.882 142.363 221.578 141.953 224.457ZM133.421 244.605C136.376 245.052 139.103 243.081 139.513 240.202C139.923 237.324 137.86 234.627 134.905 234.18C131.951 233.732 129.223 235.703 128.813 238.582C128.404 241.461 130.466 244.157 133.421 244.605Z" fill="url(#paint1_linear_1806_8159)"/>
<path d="M116.872 132.02L127.224 133.483L126.891 135.814L122.955 135.258L122.38 139.282L126.315 139.838L125.982 142.17L115.63 140.707L115.964 138.375L120.241 138.98L120.816 134.956L116.539 134.351L116.872 132.02ZM122.382 146.897C122.084 148.976 120.807 150.068 119.069 149.822L114.421 149.165L114.714 147.116L115.463 147.07C114.76 146.365 114.769 145.563 114.845 145.029C115.081 143.38 116.276 142.337 117.776 142.549C118.622 142.669 119.176 143.141 119.429 143.813C119.615 144.309 119.651 144.905 119.558 145.558L119.269 147.578L119.388 147.595C119.908 147.668 120.343 147.275 120.459 146.458C120.538 145.909 120.455 145.322 119.925 144.58L121.508 143.152C122.342 144.21 122.564 145.62 122.382 146.897ZM116.592 145.639C116.477 146.441 116.899 147.197 117.62 147.345L117.863 145.652C117.896 145.414 117.88 145.215 117.81 145.069C117.727 144.906 117.589 144.81 117.411 144.785C117.039 144.733 116.683 145 116.592 145.639ZM113.575 153.916C113.94 151.362 116.034 150.491 117.905 150.756C119.836 151.029 121.582 152.487 121.226 154.982C121.005 156.526 120.109 157.597 118.531 157.934L117.986 155.706C118.684 155.698 119.195 155.301 119.28 154.707C119.429 153.668 118.527 153.192 117.576 153.057C116.641 152.925 115.675 153.107 115.525 154.161C115.442 154.74 115.804 155.276 116.439 155.502L115.363 157.41C114.052 156.725 113.356 155.445 113.575 153.916ZM113.104 158.37L123.456 159.833L123.136 162.076L117.685 161.305L119.804 163.756L119.377 166.741L116.997 163.677L112.019 165.958L112.399 163.3L115.731 161.832L114.908 160.913L112.784 160.612L113.104 158.37ZM110.958 171.471C111.406 168.338 113.857 166.564 117.139 167.027C120.451 167.496 122.325 169.866 121.881 172.97C121.55 175.286 120.117 176.826 118.048 177.306L117.51 175.033C118.74 174.798 119.473 173.917 119.653 172.655C119.908 170.873 118.9 169.655 116.836 169.363C114.771 169.071 113.443 169.989 113.186 171.786C113.001 173.078 113.476 174.1 114.629 174.626L113.485 176.691C111.524 175.672 110.629 173.773 110.958 171.471ZM117.461 181.307C117.164 183.386 115.886 184.478 114.149 184.233L109.5 183.576L109.793 181.526L110.542 181.481C109.84 180.776 109.849 179.974 109.925 179.439C110.161 177.791 111.355 176.748 112.855 176.96C113.702 177.08 114.256 177.552 114.508 178.224C114.695 178.72 114.731 179.316 114.637 179.969L114.349 181.989L114.467 182.005C114.987 182.079 115.422 181.686 115.539 180.869C115.617 180.32 115.535 179.732 115.004 178.991L116.587 177.563C117.421 178.62 117.644 180.03 117.461 181.307ZM111.671 180.05C111.556 180.852 111.979 181.608 112.7 181.756L112.942 180.063C112.976 179.825 112.959 179.626 112.889 179.479C112.806 179.316 112.668 179.221 112.49 179.196C112.119 179.143 111.762 179.411 111.671 180.05ZM115.511 194.946C115.258 196.713 113.699 197.341 112.377 197.154L107.654 196.486L107.975 194.244L112 194.813C112.549 194.891 113.531 194.908 113.663 193.988C113.878 192.488 112.034 192.561 110.653 192.365L108.291 192.031L108.61 189.804L112.679 190.379C112.857 190.404 114.134 190.691 114.289 189.607C114.51 188.063 112.669 188.121 111.287 187.925L108.926 187.591L109.247 185.349L116.571 186.369L116.263 188.523L115.312 188.388C116.118 189.002 116.246 189.808 116.15 190.476C116.044 191.219 115.632 192.084 114.391 192.394C115.503 193.202 115.632 194.099 115.511 194.946ZM114.291 203.478C114.011 205.439 112.171 206.224 110.017 205.919C107.507 205.565 106.415 203.986 106.642 202.397C106.742 201.699 107.132 200.982 107.659 200.587L104.05 200.076L104.37 197.834L114.722 199.297L114.401 201.54L113.852 201.462C114.3 202.04 114.382 202.84 114.291 203.478ZM108.677 202.049C108.545 202.969 109.088 203.516 110.366 203.696C111.628 203.875 112.288 203.498 112.415 202.607C112.585 201.419 111.817 200.962 110.778 200.815C109.738 200.668 108.836 200.935 108.677 202.049ZM94.941 142.201C95.389 139.068 97.8398 137.293 101.122 137.757C104.434 138.225 106.307 140.596 105.863 143.699C105.532 146.016 104.1 147.556 102.031 148.036L101.493 145.763C102.723 145.528 103.455 144.647 103.636 143.384C103.891 141.603 102.883 140.384 100.818 140.093C98.754 139.801 97.4257 140.719 97.1688 142.516C96.9841 143.808 97.4592 144.829 98.6113 145.356L97.4674 147.421C95.5071 146.402 94.6119 144.503 94.941 142.201ZM101.444 152.037C101.147 154.116 99.8692 155.208 98.1315 154.962L93.4829 154.305L93.7759 152.256L94.5249 152.21C93.8227 151.505 93.8313 150.703 93.9077 150.169C94.1434 148.521 95.3381 147.477 96.8381 147.689C97.6847 147.809 98.2384 148.281 98.4908 148.953C98.6774 149.449 98.7134 150.045 98.62 150.699L98.3312 152.718L98.4501 152.735C98.9699 152.808 99.4049 152.415 99.5216 151.599C99.6002 151.049 99.5175 150.462 98.9872 149.72L100.57 148.293C101.404 149.35 101.626 150.76 101.444 152.037ZM95.6538 150.779C95.5392 151.581 95.9613 152.338 96.6827 152.485L96.9247 150.792C96.9587 150.555 96.9418 150.355 96.8718 150.209C96.789 150.046 96.6511 149.951 96.4729 149.925C96.1016 149.873 95.7451 150.141 95.6538 150.779ZM100.131 161.221C100.059 161.725 99.8612 162.152 99.4452 162.623L97.5783 161.269C97.7417 161.08 97.9305 160.713 97.9815 160.356C98.094 159.569 97.604 158.97 96.3119 158.787L92.9108 158.306L93.2314 156.064L100.553 157.099L100.231 159.356L99.1168 159.199C99.8402 159.649 100.243 160.433 100.131 161.221ZM99.1855 167.831C98.9434 169.524 97.7891 170.391 96.1851 170.164L91.3137 169.475L91.6343 167.233L95.674 167.804C96.2384 167.884 97.1741 168.016 97.3397 166.858C97.5372 165.477 96.2154 165.29 95.4134 165.177L91.9974 164.694L92.3181 162.452L99.64 163.487L99.3194 165.729L98.6362 165.632C99.226 166.276 99.2959 167.059 99.1855 167.831ZM99.3903 172.438L101.41 172.724L101.083 175.011L99.0633 174.725L99.3903 172.438ZM91.0563 171.275L98.3783 172.31L98.0576 174.553L90.7357 173.518L91.0563 171.275ZM90.1885 177.344L97.9373 175.395L97.5869 177.845L92.9848 178.664L97.1686 180.77L96.8246 183.176L89.9273 179.171L90.1885 177.344ZM96.4436 187.006C96.1463 189.085 94.8689 190.177 93.1313 189.931L88.4826 189.274L88.7757 187.225L89.5246 187.179C88.8224 186.474 88.831 185.672 88.9074 185.138C89.1431 183.489 90.3378 182.446 91.8378 182.658C92.6844 182.778 93.2381 183.25 93.4905 183.922C93.6772 184.418 93.7132 185.014 93.6197 185.667L93.331 187.687L93.4498 187.704C93.9696 187.777 94.4046 187.384 94.5214 186.567C94.5999 186.018 94.5173 185.431 93.9869 184.689L95.5699 183.262C96.4036 184.319 96.6262 185.729 96.4436 187.006ZM90.6536 185.748C90.5389 186.55 90.961 187.306 91.6824 187.454L91.9245 185.761C91.9584 185.523 91.9415 185.324 91.8715 185.178C91.7888 185.015 91.6509 184.919 91.4726 184.894C91.1013 184.842 90.7449 185.109 90.6536 185.748ZM87.8066 192.836C87.9595 191.767 88.6895 191.007 90.1004 191.206L98.5956 192.407L98.275 194.649L90.0768 193.49C89.7352 193.442 89.6694 193.584 89.6291 193.866C89.6121 193.985 89.6014 194.165 89.6205 194.35L87.868 194.102C87.7556 193.617 87.7599 193.163 87.8066 192.836Z" fill="white"/>
<path d="M103.352 100.187L104.074 108.399L111.421 109.847L104.52 113.475L105.242 121.687L100.255 115.716L93.3542 119.344L97.173 112.026L92.1859 106.056L99.5331 107.504L103.352 100.187Z" fill="white"/>
<path d="M88.0559 209.254L88.778 217.466L96.1251 218.914L89.2242 222.542L89.9463 230.754L84.9592 224.783L78.0583 228.411L81.8771 221.093L76.89 215.123L84.2372 216.571L88.0559 209.254Z" fill="white"/>
</g>
<path d="M384.605 116.176L479.8 243.501L484.412 247.341L486.426 240.18L491.579 241.904L489.897 238.441L496.267 238.633L496.733 230.709L500.91 234.46L501.466 228.337L506.304 230.219L505.553 223.828L513.456 222.329L417.916 90.2559L416.728 96.6954L408.78 97.2944L411.424 102.737L405.685 102.229L404.798 106.057L399.374 105.391L398.172 109.378L393.439 111.749L392.357 115.983L384.605 116.176Z" fill="#F0AA42" fill-opacity="0.66"/>
<path d="M7.6162 205.596L83.989 297.082L87.9362 299.657L90.5981 293.73L95.2809 294.558L94.0599 291.973L100.055 291.45L101.336 285.078L104.882 287.628L106.057 282.684L110.425 283.672L110.395 278.652L118.016 276.617L41.8216 181.379L40.0167 186.643L32.4484 187.965L34.367 192.027L29.0017 192.231L27.758 195.379L22.7074 195.424L21.149 198.732L16.4282 201.126L14.957 204.619L7.6162 205.596Z" fill="#F0AA42" fill-opacity="0.66"/>
<defs>
<filter id="filter0_d_1806_8159" x="47.5966" y="83.0728" width="432.374" height="230.287" filterUnits="userSpaceOnUse" color-interpolation-filters="sRGB">
<feFlood flood-opacity="0" result="BackgroundImageFix"/>
<feColorMatrix in="SourceAlpha" type="matrix" values="0 0 0 0 0 0 0 0 0 0 0 0 0 0 0 0 0 0 127 0" result="hardAlpha"/>
<feOffset dy="9"/>
<feGaussianBlur stdDeviation="2.7"/>
<feComposite in2="hardAlpha" operator="out"/>
<feColorMatrix type="matrix" values="0 0 0 0 0 0 0 0 0 0 0 0 0 0 0 0 0 0 0.25 0"/>
<feBlend mode="normal" in2="BackgroundImageFix" result="effect1_dropShadow_1806_8159"/>
<feBlend mode="normal" in="SourceGraphic" in2="effect1_dropShadow_1806_8159" result="shape"/>
</filter>
<linearGradient id="paint0_linear_1806_8159" x1="307.479" y1="79.7963" x2="221.014" y2="303.188" gradientUnits="userSpaceOnUse">
<stop offset="0.41" stop-color="#CF0A1F"/>
</linearGradient>
<linearGradient id="paint1_linear_1806_8159" x1="307.479" y1="79.7963" x2="221.014" y2="303.188" gradientUnits="userSpaceOnUse">
<stop offset="0.195" stop-color="#CF0A1F"/>
<stop offset="0.805" stop-color="#F7891A"/>
</linearGradient>
</defs>
</svg>
