<svg width="479" height="228" viewBox="0 0 479 228" fill="none" xmlns="http://www.w3.org/2000/svg">
<g filter="url(#filter0_d_1806_7526)">
<path fill-rule="evenodd" clip-rule="evenodd" d="M75.4604 58.4179L136.863 53.7829C140.497 58.5066 146.05 58.0874 149.003 52.8665L442.829 30.6868C442.829 30.6868 445.446 38.168 449.054 41.5135C452.409 44.6244 459.558 46.8823 459.558 46.8823L459.89 50.6923C459.89 50.6923 455.992 52.6459 456.18 54.8074C456.368 56.9689 460.553 58.3123 460.553 58.3123L460.884 62.1224C460.884 62.1224 456.861 64.0506 457.053 66.2466C457.244 68.4426 461.547 69.7424 461.547 69.7424L461.879 73.5524C461.879 73.5524 457.731 75.4549 457.925 77.6859C458.119 79.9169 462.542 81.1724 462.542 81.1724L462.873 84.9824C462.873 84.9824 458.601 86.8587 458.798 89.1251C458.995 91.3915 463.536 92.6025 463.536 92.6025L463.868 96.4125C463.868 96.4125 459.471 98.2621 459.671 100.564C459.871 102.867 464.531 104.033 464.531 104.033L464.863 107.843C464.863 107.843 460.34 109.665 460.544 112.004C460.747 114.342 465.526 115.463 465.526 115.463L465.857 119.273C465.857 119.273 460.835 120.983 461.051 123.47C461.268 125.958 466.52 126.893 466.52 126.893L466.852 130.703C466.852 130.703 461.829 132.413 462.046 134.9C462.262 137.388 467.515 138.323 467.515 138.323L467.846 142.133C467.846 142.133 462.824 143.843 463.04 146.33C463.257 148.818 468.509 149.753 468.509 149.753L468.841 153.563C468.841 153.563 463.819 155.273 464.035 157.761C464.251 160.248 469.504 161.183 469.504 161.183L469.836 164.993L470.167 168.803C470.167 168.803 463.454 171.37 460.64 174.657C457.352 178.496 456.412 186.786 456.412 186.786L161.992 209.01C159.352 203.136 149.911 203.849 148.15 210.055L89.0435 214.517C89.0435 214.517 87.5288 207.35 84.4376 204.082C81.2995 200.764 73.9335 198.713 73.9335 198.713L63.3245 76.7923C63.3245 76.7923 69.2715 73.3955 71.7136 69.9973C74.5033 66.1155 75.4604 58.4179 75.4604 58.4179ZM143.991 67.6837C145.831 67.5448 147.21 65.9489 147.07 64.1192C146.93 62.2896 145.325 60.9189 143.485 61.0578C141.645 61.1968 140.266 62.7926 140.406 64.6223C140.546 66.4519 142.151 67.8226 143.991 67.6837ZM147.913 75.1622C148.053 76.9919 146.674 78.5877 144.834 78.7266C142.994 78.8655 141.389 77.4949 141.249 75.6652C141.109 73.8356 142.488 72.2397 144.328 72.1008C146.168 71.9619 147.774 73.3325 147.913 75.1622ZM145.677 89.7697C147.518 89.6308 148.896 88.0349 148.756 86.2053C148.617 84.3756 147.012 83.005 145.171 83.1439C143.331 83.2828 141.953 84.8786 142.092 86.7083C142.232 88.538 143.837 89.9086 145.677 89.7697ZM149.599 97.2484C149.739 99.078 148.361 100.674 146.52 100.813C144.68 100.952 143.075 99.5811 142.935 97.7514C142.796 95.9217 144.174 94.3259 146.014 94.187C147.855 94.0481 149.46 95.4187 149.599 97.2484ZM147.364 111.856C149.204 111.717 150.583 110.121 150.443 108.291C150.303 106.462 148.698 105.091 146.858 105.23C145.018 105.369 143.639 106.965 143.779 108.794C143.919 110.624 145.524 111.995 147.364 111.856ZM151.286 119.335C151.426 121.164 150.047 122.76 148.207 122.899C146.367 123.038 144.762 121.667 144.622 119.838C144.482 118.008 145.861 116.412 147.701 116.273C149.541 116.134 151.146 117.505 151.286 119.335ZM149.05 133.942C150.891 133.803 152.269 132.207 152.129 130.377C151.99 128.547 150.385 127.177 148.544 127.316C146.704 127.455 145.326 129.05 145.465 130.88C145.605 132.71 147.21 134.08 149.05 133.942ZM152.973 141.421C153.112 143.25 151.734 144.846 149.894 144.985C148.053 145.124 146.448 143.753 146.309 141.924C146.169 140.094 147.547 138.498 149.388 138.359C151.228 138.22 152.833 139.591 152.973 141.421ZM150.737 156.028C152.577 155.889 153.956 154.293 153.816 152.464C153.676 150.634 152.071 149.263 150.231 149.402C148.391 149.541 147.012 151.137 147.152 152.967C147.291 154.796 148.897 156.167 150.737 156.028ZM154.659 163.506C154.799 165.336 153.42 166.932 151.58 167.071C149.74 167.21 148.135 165.839 147.995 164.009C147.855 162.18 149.234 160.584 151.074 160.445C152.914 160.306 154.519 161.677 154.659 163.506ZM152.423 178.114C154.263 177.975 155.642 176.379 155.502 174.549C155.363 172.72 153.758 171.349 151.917 171.488C150.077 171.627 148.699 173.223 148.838 175.052C148.978 176.882 150.583 178.253 152.423 178.114ZM156.345 185.593C156.485 187.423 155.107 189.019 153.266 189.157C151.426 189.296 149.821 187.926 149.681 186.096C149.542 184.266 150.92 182.671 152.76 182.532C154.601 182.393 156.206 183.763 156.345 185.593ZM154.11 200.2C155.95 200.061 157.328 198.465 157.189 196.636C157.049 194.806 155.444 193.435 153.604 193.574C151.764 193.713 150.385 195.309 150.525 197.139C150.664 198.968 152.269 200.339 154.11 200.2Z" fill="url(#paint0_linear_1806_7526)"/>
<rect width="288.484" height="138.44" rx="10" transform="matrix(0.997163 -0.0752716 0.0761379 0.997097 151.159 61.3435)" fill="#FAD984"/>
<mask id="mask0_1806_7526" style="mask-type:alpha" maskUnits="userSpaceOnUse" x="151" y="40" width="298" height="159">
<rect width="288.484" height="138.44" rx="10" transform="matrix(0.997163 -0.0752716 0.0761379 0.997097 151.159 61.3435)" fill="#FFF5DD"/>
</mask>
<g mask="url(#mask0_1806_7526)">
<path d="M155.625 194.014L154.093 170.757L308.671 121.693L219.556 197.867L166.36 202.708C158.887 202.77 157.305 201.134 155.625 194.014Z" fill="#F9C745"/>
<path d="M300.179 192.521L306.956 122.894L357.202 187.492L300.179 192.521Z" fill="#F9C745"/>
<path d="M447.79 139.607L308.442 123.101L417.198 182.878L442.51 181.358C449.676 180.012 451.722 176.634 450.231 166.59L447.79 139.607Z" fill="#F9C745"/>
<path d="M359.219 44.4741L308.441 123.101L434.527 39.1091L359.219 44.4741Z" fill="#F9C745"/>
<path d="M307.069 122.19L150.346 119.109L145.915 71.6859C145.277 67.3601 145.854 63.7016 151.463 60.9363L307.069 122.19Z" fill="#F9C745"/>
<path d="M442.223 71.1434L307.583 123.701L444.551 98.8309L442.223 71.1434Z" fill="#F9C745"/>
<path d="M288.941 46.9382L309.812 124.012L223.059 55.0548L255.514 51.649L288.941 46.9382Z" fill="#F9C745"/>
</g>
<rect width="133.66" height="88.6015" rx="7" transform="matrix(0.997163 -0.0752716 0.0761379 0.997097 230.762 79.7695)" fill="#FFFCF4"/>
<path d="M144.659 195.654L134.88 67.5869C134.669 64.8335 132.267 62.7699 129.513 62.9778L89.4513 66.0019C86.6977 66.2097 84.6314 68.7011 83.6229 71.2708C83.2213 72.2941 82.6339 73.3635 81.7766 74.3559C80.5858 75.7344 79.181 76.7845 77.9142 77.5514C75.9247 78.7559 74.4553 80.8803 74.6324 83.2001L83.0334 193.218C83.13 194.485 85.3704 193.042 91.2209 198.038C93.3816 199.883 93.8214 202.148 94.3155 203.44C94.6035 204.192 95.4256 204.385 96.2291 204.324L140.054 201.016C142.807 200.808 144.869 198.407 144.659 195.654Z" fill="#FAD984"/>
<path d="M114.203 96.2263L124.629 95.4393L124.808 97.7875L120.844 98.0867L121.154 102.14L125.117 101.841L125.297 104.189L114.871 104.976L114.692 102.628L119 102.302L118.69 98.2493L114.383 98.5745L114.203 96.2263ZM122.805 109.576C122.964 111.67 121.954 113.01 120.204 113.142L115.522 113.495L115.364 111.431L116.086 111.226C115.247 110.688 115.082 109.903 115.041 109.365C114.914 107.704 115.855 106.43 117.366 106.316C118.218 106.252 118.861 106.594 119.253 107.196C119.543 107.641 119.707 108.215 119.757 108.873L119.913 110.907L120.032 110.898C120.556 110.859 120.895 110.382 120.833 109.559C120.79 109.006 120.582 108.45 119.904 107.839L121.141 106.106C122.184 106.96 122.706 108.29 122.805 109.576ZM116.878 109.587C116.94 110.395 117.516 111.043 118.252 111.033L118.122 109.328C118.104 109.088 118.044 108.897 117.944 108.769C117.828 108.628 117.673 108.564 117.493 108.578C117.119 108.606 116.829 108.944 116.878 109.587ZM115.724 118.316C115.528 115.743 117.385 114.445 119.269 114.303C121.214 114.156 123.235 115.207 123.426 117.719C123.545 119.275 122.902 120.512 121.434 121.179L120.419 119.12C121.099 118.963 121.513 118.466 121.467 117.867C121.387 116.82 120.403 116.549 119.446 116.621C118.504 116.692 117.601 117.076 117.682 118.138C117.726 118.721 118.196 119.167 118.865 119.252L118.227 121.346C116.799 120.957 115.842 119.856 115.724 118.316ZM116.23 122.767L126.655 121.98L126.828 124.238L121.338 124.653L123.938 126.592L124.168 129.599L121.18 127.116L116.813 130.41L116.609 127.732L119.544 125.585L118.541 124.864L116.402 125.025L116.23 122.767ZM116.971 136.021C116.73 132.865 118.739 130.607 122.045 130.358C125.38 130.106 127.723 132.02 127.961 135.146C128.14 137.479 127.074 139.289 125.158 140.201L124.14 138.097C125.291 137.604 125.815 136.587 125.718 135.315C125.581 133.52 124.333 132.547 122.254 132.704C120.175 132.861 119.077 134.042 119.215 135.851C119.314 137.152 119.999 138.048 121.238 138.316L120.568 140.578C118.433 140.002 117.148 138.339 116.971 136.021ZM125.451 144.235C125.611 146.328 124.6 147.668 122.85 147.8L118.168 148.154L118.011 146.09L118.732 145.885C117.894 145.347 117.729 144.562 117.687 144.023C117.561 142.363 118.501 141.089 120.012 140.975C120.865 140.91 121.508 141.253 121.9 141.855C122.189 142.3 122.353 142.874 122.404 143.532L122.559 145.566L122.679 145.557C123.202 145.517 123.542 145.041 123.479 144.218C123.437 143.665 123.229 143.109 122.55 142.498L123.787 140.765C124.83 141.619 125.353 142.948 125.451 144.235ZM119.525 144.246C119.586 145.053 120.162 145.702 120.899 145.691L120.769 143.986C120.75 143.747 120.691 143.556 120.591 143.428C120.474 143.286 120.319 143.223 120.14 143.237C119.766 143.265 119.476 143.603 119.525 144.246ZM126.5 157.971C126.636 159.751 125.249 160.698 123.918 160.798L119.161 161.158L118.989 158.899L123.042 158.593C123.596 158.551 124.559 158.358 124.488 157.431C124.373 155.92 122.588 156.386 121.197 156.491L118.819 156.671L118.647 154.427L122.746 154.118C122.925 154.104 124.235 154.111 124.151 153.019C124.032 151.463 122.246 151.914 120.855 152.019L118.477 152.199L118.305 149.94L125.678 149.369L125.843 151.537L124.886 151.61C125.806 152.037 126.105 152.796 126.156 153.469C126.213 154.217 125.999 155.151 124.854 155.719C126.114 156.27 126.435 157.119 126.5 157.971ZM127.156 166.565C127.307 168.539 125.681 169.7 123.512 169.864C120.984 170.055 119.575 168.747 119.453 167.147C119.399 166.444 119.625 165.66 120.054 165.161L116.419 165.435L116.247 163.177L126.672 162.39L126.844 164.648L126.291 164.69C126.853 165.159 127.107 165.922 127.156 166.565ZM121.365 166.371C121.435 167.298 122.084 167.715 123.37 167.618C124.642 167.522 125.205 167.013 125.136 166.116C125.045 164.919 124.196 164.638 123.149 164.717C122.102 164.796 121.279 165.249 121.365 166.371ZM94.9919 110.864C94.751 107.708 96.7599 105.451 100.065 105.201C103.401 104.949 105.744 106.863 105.982 109.989C106.16 112.323 105.095 114.133 103.179 115.045L102.161 112.94C103.312 112.447 103.836 111.43 103.739 110.159C103.602 108.364 102.354 107.39 100.275 107.547C98.1956 107.704 97.0974 108.885 97.2355 110.695C97.3349 111.996 98.0201 112.892 99.2591 113.159L98.5893 115.421C96.4543 114.845 95.169 113.182 94.9919 110.864ZM103.472 119.078C103.632 121.172 102.621 122.512 100.871 122.644L96.1892 122.997L96.0316 120.933L96.7531 120.728C95.9147 120.19 95.7494 119.405 95.7083 118.867C95.5815 117.207 96.5222 115.932 98.0329 115.818C98.8855 115.754 99.5285 116.096 99.9205 116.699C100.21 117.143 100.374 117.717 100.425 118.375L100.58 120.409L100.7 120.4C101.223 120.361 101.563 119.884 101.5 119.061C101.458 118.508 101.25 117.952 100.571 117.341L101.808 115.608C102.851 116.462 103.374 117.792 103.472 119.078ZM97.5456 119.089C97.6073 119.897 98.1833 120.545 98.9196 120.535L98.7894 118.83C98.7712 118.59 98.7114 118.399 98.6114 118.272C98.4953 118.13 98.34 118.066 98.1605 118.08C97.7866 118.108 97.4965 118.446 97.5456 119.089ZM104.178 128.328C104.217 128.836 104.117 129.295 103.813 129.844L101.696 128.921C101.815 128.702 101.92 128.303 101.892 127.944C101.832 127.151 101.223 126.67 99.9222 126.769L96.4969 127.027L96.3245 124.769L103.698 124.212L103.872 126.485L102.75 126.57C103.554 126.855 104.118 127.535 104.178 128.328ZM104.687 134.986C104.817 136.691 103.877 137.784 102.262 137.906L97.3559 138.277L97.1835 136.018L101.252 135.711C101.82 135.668 102.763 135.597 102.674 134.431C102.567 133.04 101.236 133.14 100.428 133.201L96.9882 133.461L96.8157 131.202L104.19 130.646L104.362 132.904L103.674 132.956C104.39 133.459 104.627 134.208 104.687 134.986ZM105.884 139.441L107.919 139.288L108.094 141.591L106.06 141.745L105.884 139.441ZM97.4944 140.09L104.868 139.533L105.041 141.792L97.6668 142.348L97.4944 140.09ZM97.9611 146.202L105.106 142.64L105.294 145.107L100.977 146.892L105.519 148.054L105.704 150.477L98.1016 148.042L97.9611 146.202ZM106.161 154.299C106.321 156.393 105.31 157.733 103.56 157.865L98.8786 158.218L98.721 156.154L99.4425 155.949C98.6041 155.411 98.4389 154.626 98.3978 154.088C98.271 152.427 99.2117 151.153 100.722 151.039C101.575 150.975 102.218 151.317 102.61 151.919C102.9 152.364 103.064 152.938 103.114 153.596L103.269 155.63L103.389 155.621C103.913 155.582 104.252 155.105 104.189 154.282C104.147 153.729 103.939 153.173 103.261 152.562L104.497 150.829C105.54 151.683 106.063 153.012 106.161 154.299ZM100.235 154.31C100.297 155.118 100.873 155.766 101.609 155.756L101.479 154.05C101.461 153.811 101.401 153.62 101.301 153.492C101.185 153.351 101.029 153.287 100.85 153.301C100.476 153.329 100.186 153.667 100.235 154.31ZM98.9898 161.842C98.9076 160.765 99.4558 159.866 100.877 159.759L109.432 159.113L109.605 161.371L101.348 161.994C101.004 162.02 100.971 162.173 100.993 162.458C101.002 162.577 101.03 162.756 101.089 162.932L99.324 163.065C99.1091 162.615 99.015 162.171 98.9898 161.842Z" fill="#CF0A1F"/>
<path d="M98.3151 82.1222L98.6438 87.5414L103.695 88.7619L98.8469 90.8907L99.1756 96.3099L95.8505 92.2063L91.0021 94.3351L93.7954 89.6702L90.4703 85.5667L95.5218 86.7871L98.3151 82.1222Z" fill="#F7891A"/>
<path d="M98.7357 80.3954L99.159 86.965L99.1674 87.0957L99.2948 87.1265L105.511 88.6285L99.5509 91.2005L99.4351 91.2504L99.4432 91.376L99.8674 97.9592L95.7725 92.9713L95.6874 92.8676L95.5639 92.9209L89.6235 95.4842L93.0389 89.8287L93.104 89.7208L93.0242 89.6235L88.9155 84.6187L95.1322 86.1207L95.2595 86.1515L95.3273 86.0392L98.7357 80.3954Z" stroke="#CF0A1F" stroke-width="0.356869"/>
<path d="M105.23 172.676L105.559 178.095L110.61 179.316L105.762 181.444L106.091 186.864L102.765 182.76L97.9172 184.889L100.71 180.224L97.3853 176.12L102.437 177.341L105.23 172.676Z" fill="#F7891A"/>
<path d="M105.651 170.949L106.074 177.519L106.082 177.649L106.21 177.68L112.426 179.182L106.466 181.754L106.35 181.804L106.358 181.93L106.782 188.513L102.688 183.525L102.602 183.421L102.479 183.475L96.5385 186.038L99.9539 180.382L100.019 180.274L99.9393 180.177L95.8306 175.172L102.047 176.674L102.175 176.705L102.242 176.593L105.651 170.949Z" stroke="#CF0A1F" stroke-width="0.356869"/>
<path d="M209.442 68.8381L206.551 82.5577L198.095 82.3893L204.765 91.0368L201.874 104.756L208.887 96.3813L215.557 105.029L213.221 91.2052L220.234 82.8301L211.778 82.6617L209.442 68.8381Z" fill="#FFF4FD"/>
<path d="M184.643 140.709L189.322 157.096L180.136 161.714L192.213 167.224L196.892 183.612L199.677 170.63L211.755 176.14L201.399 162.606L204.184 149.624L194.998 154.242L184.643 140.709Z" fill="#FFF4FD"/>
<path d="M220.401 114.836L224.25 128.318L216.693 132.117L226.629 136.65L230.479 150.132L232.77 139.452L242.706 143.985L234.186 132.851L236.477 122.17L228.921 125.97L220.401 114.836Z" fill="#FFF4FD"/>
<path d="M376.134 66.4784L378.774 75.7257L373.591 78.3317L380.406 81.4408L383.046 90.6881L384.618 83.3624L391.433 86.4716L385.589 78.8349L387.161 71.5091L381.978 74.1151L376.134 66.4784Z" fill="#FFF4FD"/>
<path d="M424.266 130.672L418.22 142.712L410.404 140.485L414.484 150.154L408.438 162.194L417.006 156.129L421.086 165.798L422.3 152.381L430.868 146.316L423.051 144.089L424.266 130.672Z" fill="#FFF4FD"/>
<path d="M378.764 106.748L377.186 114.14L372.628 114.037L376.211 118.708L374.633 126.1L378.426 121.596L382.009 126.267L380.77 118.811L384.562 114.306L380.004 114.204L378.764 106.748Z" fill="#FFF4FD"/>
<path d="M361.212 164.36L353.842 166.034L352.019 161.854L349.286 167.069L341.915 168.743L347.597 170.292L344.864 175.506L351.108 171.249L356.79 172.797L354.968 168.617L361.212 164.36Z" fill="#FFF4FD"/>
<path d="M269.506 181.193L262.959 177.416L264.461 173.11L258.913 175.081L252.366 171.304L255.484 176.3L249.937 178.271L257.412 179.387L260.53 184.382L262.031 180.077L269.506 181.193Z" fill="#FFF4FD"/>
<path d="M269.727 64.8205L262.192 65.4179L260.99 61.0196L257.535 65.7871L250 66.3845L255.4 68.7336L251.946 73.5011L258.738 70.1854L264.138 72.5345L262.935 68.1362L269.727 64.8205Z" fill="#FFF4FD"/>
</g>
<path d="M135.026 8.64709L19.2787 93.4469L15.8127 97.709L22.4318 100.154L20.9214 105.085L24.0833 103.667L24.0013 109.891L31.2991 110.872L27.9088 114.713L33.5513 115.662L31.8908 120.274L37.7604 119.962L39.2568 127.798L159.368 42.9743L153.425 41.3864L152.757 33.5649L147.788 35.794L148.17 30.2082L144.635 29.0871L145.167 23.8207L141.482 22.3802L139.23 17.5896L135.318 16.2505L135.026 8.64709Z" fill="#F0AA42" fill-opacity="0.79"/>
<defs>
<filter id="filter0_d_1806_7526" x="58.7247" y="30.0868" width="420.042" height="197.03" filterUnits="userSpaceOnUse" color-interpolation-filters="sRGB">
<feFlood flood-opacity="0" result="BackgroundImageFix"/>
<feColorMatrix in="SourceAlpha" type="matrix" values="0 0 0 0 0 0 0 0 0 0 0 0 0 0 0 0 0 0 127 0" result="hardAlpha"/>
<feOffset dx="2" dy="6"/>
<feGaussianBlur stdDeviation="3.3"/>
<feComposite in2="hardAlpha" operator="out"/>
<feColorMatrix type="matrix" values="0 0 0 0 0 0 0 0 0 0 0 0 0 0 0 0 0 0 0.25 0"/>
<feBlend mode="normal" in2="BackgroundImageFix" result="effect1_dropShadow_1806_7526"/>
<feBlend mode="normal" in="SourceGraphic" in2="effect1_dropShadow_1806_7526" result="shape"/>
</filter>
<linearGradient id="paint0_linear_1806_7526" x1="-13.7429" y1="80.9239" x2="543.579" y2="182.604" gradientUnits="userSpaceOnUse">
<stop stop-color="#CF0A1F"/>
<stop offset="0.257395" stop-color="#CF0A1F"/>
<stop offset="1" stop-color="#F9C745"/>
</linearGradient>
</defs>
</svg>
