<svg width="6714" height="180" viewBox="0 0 6714 180" fill="none" xmlns="http://www.w3.org/2000/svg">
<g filter="url(#filter0_d_1723_5940)">
<path d="M2704.67 2C2701.76 13.6815 2698.32 19.5 2686 19.5V148.623C2699.82 151.772 2703.71 155.511 2706.91 170H2999.97C3004.01 156.511 3008.19 151.333 3021.25 149.84V19.1733C3010.44 18.0718 3005.68 14.5303 2999.97 2H2704.67Z" fill="url(#paint0_linear_1723_5940)"/>
<path d="M3041.04 2C3038.13 13.5531 3033.57 19.1733 3021.25 19.1733V149.84C3035.81 152.055 3038.96 155.671 3042.16 170H3335.23C3339.26 156.659 3343.58 151.932 3356.51 149.84V20.8308C3345.7 19.7414 3340.94 16.2388 3335.23 3.84615L3041.04 2Z" fill="url(#paint1_linear_1723_5940)"/>
<path d="M3376.29 2C3373.39 13.5531 3368.83 20.6667 3356.51 20.6667V149.84C3371.07 152.055 3374.21 155.671 3377.41 170H3670.48C3674.52 156.659 3678.84 151.784 3691.76 149.692V20.8308C3680.95 19.7414 3676.19 16.2388 3670.48 3.84615L3376.29 2Z" fill="url(#paint2_linear_1723_5940)"/>
<path d="M3711.55 2C3708.64 13.5531 3704.08 20.6667 3691.76 20.6667V149.84C3706.32 152.055 3709.47 155.671 3712.67 170H4005.73C4009.77 156.659 4014.09 151.784 4027.01 149.692V20.8308C4016.2 19.7414 4011.44 16.2388 4005.73 3.84615L3711.55 2Z" fill="url(#paint3_linear_1723_5940)"/>
</g>
<circle cx="3020.51" cy="25.8929" r="2.98667" fill="#6A6A6A"/>
<circle cx="3020.51" cy="35.5999" r="2.98667" fill="#6A6A6A"/>
<circle cx="3020.51" cy="45.306" r="2.98667" fill="#6A6A6A"/>
<circle cx="3020.51" cy="55.013" r="2.98667" fill="#6A6A6A"/>
<circle cx="3020.51" cy="64.7196" r="2.98667" fill="#6A6A6A"/>
<circle cx="3020.51" cy="74.4261" r="2.98667" fill="#6A6A6A"/>
<circle cx="3020.51" cy="84.1331" r="2.98667" fill="#6A6A6A"/>
<circle cx="3020.51" cy="93.8392" r="2.98667" fill="#6A6A6A"/>
<circle cx="3020.51" cy="103.546" r="2.98667" fill="#6A6A6A"/>
<circle cx="3020.51" cy="113.253" r="2.98667" fill="#6A6A6A"/>
<circle cx="3020.51" cy="122.96" r="2.98667" fill="#6A6A6A"/>
<circle cx="3020.51" cy="132.666" r="2.98667" fill="#6A6A6A"/>
<circle cx="3020.51" cy="142.373" r="2.98667" fill="#6A6A6A"/>
<circle cx="3354.27" cy="25.8929" r="2.98667" fill="#6A6A6A"/>
<circle cx="3354.27" cy="35.5999" r="2.98667" fill="#6A6A6A"/>
<circle cx="3354.27" cy="45.306" r="2.98667" fill="#6A6A6A"/>
<circle cx="3354.27" cy="55.013" r="2.98667" fill="#6A6A6A"/>
<circle cx="3354.27" cy="64.7201" r="2.98667" fill="#6A6A6A"/>
<circle cx="3354.27" cy="74.4261" r="2.98667" fill="#6A6A6A"/>
<circle cx="3354.27" cy="84.1331" r="2.98667" fill="#6A6A6A"/>
<circle cx="3354.27" cy="93.8392" r="2.98667" fill="#6A6A6A"/>
<circle cx="3354.27" cy="103.546" r="2.98667" fill="#6A6A6A"/>
<circle cx="3354.27" cy="113.253" r="2.98667" fill="#6A6A6A"/>
<circle cx="3354.27" cy="122.959" r="2.98667" fill="#6A6A6A"/>
<circle cx="3354.27" cy="132.666" r="2.98667" fill="#6A6A6A"/>
<circle cx="3354.27" cy="142.373" r="2.98667" fill="#6A6A6A"/>
<circle cx="3690.27" cy="25.8929" r="2.98667" fill="#6A6A6A"/>
<circle cx="3690.27" cy="35.5999" r="2.98667" fill="#6A6A6A"/>
<circle cx="3690.27" cy="45.306" r="2.98667" fill="#6A6A6A"/>
<circle cx="3690.27" cy="55.013" r="2.98667" fill="#6A6A6A"/>
<circle cx="3690.27" cy="64.7201" r="2.98667" fill="#6A6A6A"/>
<circle cx="3690.27" cy="74.4261" r="2.98667" fill="#6A6A6A"/>
<circle cx="3690.27" cy="84.1331" r="2.98667" fill="#6A6A6A"/>
<circle cx="3690.27" cy="93.8392" r="2.98667" fill="#6A6A6A"/>
<circle cx="3690.27" cy="103.546" r="2.98667" fill="#6A6A6A"/>
<circle cx="3690.27" cy="113.253" r="2.98667" fill="#6A6A6A"/>
<circle cx="3690.27" cy="122.959" r="2.98667" fill="#6A6A6A"/>
<circle cx="3690.27" cy="132.666" r="2.98667" fill="#6A6A6A"/>
<circle cx="3690.27" cy="142.373" r="2.98667" fill="#6A6A6A"/>
<g filter="url(#filter1_d_1723_5940)">
<path d="M4045.67 3C4042.76 14.6815 4039.32 20.5 4027 20.5V149.623C4040.82 152.772 4044.71 156.511 4047.91 171H4340.97C4345.01 157.511 4349.19 152.333 4362.25 150.84V20.1733C4351.44 19.0718 4346.68 15.5303 4340.97 3H4045.67Z" fill="url(#paint4_linear_1723_5940)"/>
<path d="M4382.04 3C4379.13 14.5531 4374.57 20.1733 4362.25 20.1733V150.84C4376.81 153.055 4379.96 156.671 4383.16 171H4676.23C4680.26 157.659 4684.58 152.932 4697.51 150.84V21.8308C4686.7 20.7414 4681.94 17.2388 4676.23 4.84615L4382.04 3Z" fill="url(#paint5_linear_1723_5940)"/>
<path d="M4717.29 3C4714.39 14.5531 4709.83 21.6667 4697.51 21.6667V150.84C4712.07 153.055 4715.21 156.671 4718.41 171H5011.48C5015.52 157.659 5019.84 152.784 5032.76 150.692V21.8308C5021.95 20.7414 5017.19 17.2388 5011.48 4.84615L4717.29 3Z" fill="url(#paint6_linear_1723_5940)"/>
<path d="M5052.55 3C5049.64 14.5531 5045.08 21.6667 5032.76 21.6667V150.84C5047.32 153.055 5050.47 156.671 5053.67 171H5346.73C5350.77 157.659 5355.09 152.784 5368.01 150.692V21.8308C5357.2 20.7414 5352.44 17.2388 5346.73 4.84615L5052.55 3Z" fill="url(#paint7_linear_1723_5940)"/>
</g>
<circle cx="4361.51" cy="26.8929" r="2.98667" fill="#6A6A6A"/>
<circle cx="4361.51" cy="36.5999" r="2.98667" fill="#6A6A6A"/>
<circle cx="4361.51" cy="46.306" r="2.98667" fill="#6A6A6A"/>
<circle cx="4361.51" cy="56.013" r="2.98667" fill="#6A6A6A"/>
<circle cx="4361.51" cy="65.7196" r="2.98667" fill="#6A6A6A"/>
<circle cx="4361.51" cy="75.4261" r="2.98667" fill="#6A6A6A"/>
<circle cx="4361.51" cy="85.1331" r="2.98667" fill="#6A6A6A"/>
<circle cx="4361.51" cy="94.8392" r="2.98667" fill="#6A6A6A"/>
<circle cx="4361.51" cy="104.546" r="2.98667" fill="#6A6A6A"/>
<circle cx="4361.51" cy="114.253" r="2.98667" fill="#6A6A6A"/>
<circle cx="4361.51" cy="123.96" r="2.98667" fill="#6A6A6A"/>
<circle cx="4361.51" cy="133.666" r="2.98667" fill="#6A6A6A"/>
<circle cx="4361.51" cy="143.373" r="2.98667" fill="#6A6A6A"/>
<circle cx="4695.27" cy="26.8929" r="2.98667" fill="#6A6A6A"/>
<circle cx="4695.27" cy="36.5999" r="2.98667" fill="#6A6A6A"/>
<circle cx="4695.27" cy="46.306" r="2.98667" fill="#6A6A6A"/>
<circle cx="4695.27" cy="56.013" r="2.98667" fill="#6A6A6A"/>
<circle cx="4695.27" cy="65.7201" r="2.98667" fill="#6A6A6A"/>
<circle cx="4695.27" cy="75.4261" r="2.98667" fill="#6A6A6A"/>
<circle cx="4695.27" cy="85.1331" r="2.98667" fill="#6A6A6A"/>
<circle cx="4695.27" cy="94.8392" r="2.98667" fill="#6A6A6A"/>
<circle cx="4695.27" cy="104.546" r="2.98667" fill="#6A6A6A"/>
<circle cx="4695.27" cy="114.253" r="2.98667" fill="#6A6A6A"/>
<circle cx="4695.27" cy="123.959" r="2.98667" fill="#6A6A6A"/>
<circle cx="4695.27" cy="133.666" r="2.98667" fill="#6A6A6A"/>
<circle cx="4695.27" cy="143.373" r="2.98667" fill="#6A6A6A"/>
<circle cx="5031.27" cy="26.8929" r="2.98667" fill="#6A6A6A"/>
<circle cx="5031.27" cy="36.5999" r="2.98667" fill="#6A6A6A"/>
<circle cx="5031.27" cy="46.306" r="2.98667" fill="#6A6A6A"/>
<circle cx="5031.27" cy="56.013" r="2.98667" fill="#6A6A6A"/>
<circle cx="5031.27" cy="65.7201" r="2.98667" fill="#6A6A6A"/>
<circle cx="5031.27" cy="75.4261" r="2.98667" fill="#6A6A6A"/>
<circle cx="5031.27" cy="85.1331" r="2.98667" fill="#6A6A6A"/>
<circle cx="5031.27" cy="94.8392" r="2.98667" fill="#6A6A6A"/>
<circle cx="5031.27" cy="104.546" r="2.98667" fill="#6A6A6A"/>
<circle cx="5031.27" cy="114.253" r="2.98667" fill="#6A6A6A"/>
<circle cx="5031.27" cy="123.959" r="2.98667" fill="#6A6A6A"/>
<circle cx="5031.27" cy="133.666" r="2.98667" fill="#6A6A6A"/>
<circle cx="5031.27" cy="143.373" r="2.98667" fill="#6A6A6A"/>
<g filter="url(#filter2_d_1723_5940)">
<path d="M5386.67 4C5383.76 15.6815 5380.32 21.5 5368 21.5V150.623C5381.82 153.772 5385.71 157.511 5388.91 172H5681.97C5686.01 158.511 5690.19 153.333 5703.25 151.84V21.1733C5692.44 20.0718 5687.68 16.5303 5681.97 4H5386.67Z" fill="url(#paint8_linear_1723_5940)"/>
<path d="M5723.04 4C5720.13 15.5531 5715.57 21.1733 5703.25 21.1733V151.84C5717.81 154.055 5720.96 157.671 5724.16 172H6017.23C6021.26 158.659 6025.58 153.932 6038.51 151.84V22.8308C6027.7 21.7414 6022.94 18.2388 6017.23 5.84615L5723.04 4Z" fill="url(#paint9_linear_1723_5940)"/>
<path d="M6058.29 4C6055.39 15.5531 6050.83 22.6667 6038.51 22.6667V151.84C6053.07 154.055 6056.21 157.671 6059.41 172H6352.48C6356.52 158.659 6360.84 153.784 6373.76 151.692V22.8308C6362.95 21.7414 6358.19 18.2388 6352.48 5.84615L6058.29 4Z" fill="url(#paint10_linear_1723_5940)"/>
<path d="M6393.55 4C6390.64 15.5531 6386.08 22.6667 6373.76 22.6667V151.84C6388.32 154.055 6391.47 157.671 6394.67 172H6687.73C6691.77 158.659 6696.09 153.784 6709.01 151.692V22.8308C6698.2 21.7414 6693.44 18.2388 6687.73 5.84615L6393.55 4Z" fill="url(#paint11_linear_1723_5940)"/>
</g>
<circle cx="5702.51" cy="27.8929" r="2.98667" fill="#6A6A6A"/>
<circle cx="5702.51" cy="37.5999" r="2.98667" fill="#6A6A6A"/>
<circle cx="5702.51" cy="47.306" r="2.98667" fill="#6A6A6A"/>
<circle cx="5702.51" cy="57.013" r="2.98667" fill="#6A6A6A"/>
<circle cx="5702.51" cy="66.7196" r="2.98667" fill="#6A6A6A"/>
<circle cx="5702.51" cy="76.4261" r="2.98667" fill="#6A6A6A"/>
<circle cx="5702.51" cy="86.1331" r="2.98667" fill="#6A6A6A"/>
<circle cx="5702.51" cy="95.8392" r="2.98667" fill="#6A6A6A"/>
<circle cx="5702.51" cy="105.546" r="2.98667" fill="#6A6A6A"/>
<circle cx="5702.51" cy="115.253" r="2.98667" fill="#6A6A6A"/>
<circle cx="5702.51" cy="124.96" r="2.98667" fill="#6A6A6A"/>
<circle cx="5702.51" cy="134.666" r="2.98667" fill="#6A6A6A"/>
<circle cx="5702.51" cy="144.373" r="2.98667" fill="#6A6A6A"/>
<circle cx="6036.27" cy="27.8929" r="2.98667" fill="#6A6A6A"/>
<circle cx="6036.27" cy="37.5999" r="2.98667" fill="#6A6A6A"/>
<circle cx="6036.27" cy="47.306" r="2.98667" fill="#6A6A6A"/>
<circle cx="6036.27" cy="57.013" r="2.98667" fill="#6A6A6A"/>
<circle cx="6036.27" cy="66.7201" r="2.98667" fill="#6A6A6A"/>
<circle cx="6036.27" cy="76.4261" r="2.98667" fill="#6A6A6A"/>
<circle cx="6036.27" cy="86.1331" r="2.98667" fill="#6A6A6A"/>
<circle cx="6036.27" cy="95.8392" r="2.98667" fill="#6A6A6A"/>
<circle cx="6036.27" cy="105.546" r="2.98667" fill="#6A6A6A"/>
<circle cx="6036.27" cy="115.253" r="2.98667" fill="#6A6A6A"/>
<circle cx="6036.27" cy="124.959" r="2.98667" fill="#6A6A6A"/>
<circle cx="6036.27" cy="134.666" r="2.98667" fill="#6A6A6A"/>
<circle cx="6036.27" cy="144.373" r="2.98667" fill="#6A6A6A"/>
<circle cx="6372.27" cy="27.8929" r="2.98667" fill="#6A6A6A"/>
<circle cx="6372.27" cy="37.5999" r="2.98667" fill="#6A6A6A"/>
<circle cx="6372.27" cy="47.306" r="2.98667" fill="#6A6A6A"/>
<circle cx="6372.27" cy="57.013" r="2.98667" fill="#6A6A6A"/>
<circle cx="6372.27" cy="66.7201" r="2.98667" fill="#6A6A6A"/>
<circle cx="6372.27" cy="76.4261" r="2.98667" fill="#6A6A6A"/>
<circle cx="6372.27" cy="86.1331" r="2.98667" fill="#6A6A6A"/>
<circle cx="6372.27" cy="95.8392" r="2.98667" fill="#6A6A6A"/>
<circle cx="6372.27" cy="105.546" r="2.98667" fill="#6A6A6A"/>
<circle cx="6372.27" cy="115.253" r="2.98667" fill="#6A6A6A"/>
<circle cx="6372.27" cy="124.959" r="2.98667" fill="#6A6A6A"/>
<circle cx="6372.27" cy="134.666" r="2.98667" fill="#6A6A6A"/>
<circle cx="6372.27" cy="144.373" r="2.98667" fill="#6A6A6A"/>
<g filter="url(#filter3_d_1723_5940)">
<path d="M1363.67 1C1360.76 12.6815 1357.32 18.5 1345 18.5V147.623C1358.82 150.772 1362.71 154.511 1365.91 169H1658.97C1663.01 155.511 1667.19 150.333 1680.25 148.84V18.1733C1669.44 17.0718 1664.68 13.5303 1658.97 1H1363.67Z" fill="url(#paint12_linear_1723_5940)"/>
<path d="M1700.04 1C1697.13 12.5531 1692.57 18.1733 1680.25 18.1733V148.84C1694.81 151.055 1697.96 154.671 1701.16 169H1994.23C1998.26 155.659 2002.58 150.932 2015.51 148.84V19.8308C2004.7 18.7414 1999.94 15.2388 1994.23 2.84615L1700.04 1Z" fill="url(#paint13_linear_1723_5940)"/>
<path d="M2035.29 1C2032.39 12.5531 2027.83 19.6667 2015.51 19.6667V148.84C2030.07 151.055 2033.21 154.671 2036.41 169H2329.48C2333.52 155.659 2337.84 150.784 2350.76 148.692V19.8308C2339.95 18.7414 2335.19 15.2388 2329.48 2.84615L2035.29 1Z" fill="url(#paint14_linear_1723_5940)"/>
<path d="M2370.55 1C2367.64 12.5531 2363.08 19.6667 2350.76 19.6667V148.84C2365.32 151.055 2368.47 154.671 2371.67 169H2664.73C2668.77 155.659 2673.09 150.784 2686.01 148.692V19.8308C2675.2 18.7414 2670.44 15.2388 2664.73 2.84615L2370.55 1Z" fill="url(#paint15_linear_1723_5940)"/>
</g>
<circle cx="1679.51" cy="24.8929" r="2.98667" fill="#6A6A6A"/>
<circle cx="1679.51" cy="34.5999" r="2.98667" fill="#6A6A6A"/>
<circle cx="1679.51" cy="44.306" r="2.98667" fill="#6A6A6A"/>
<circle cx="1679.51" cy="54.013" r="2.98667" fill="#6A6A6A"/>
<circle cx="1679.51" cy="63.7196" r="2.98667" fill="#6A6A6A"/>
<circle cx="1679.51" cy="73.4261" r="2.98667" fill="#6A6A6A"/>
<circle cx="1679.51" cy="83.1331" r="2.98667" fill="#6A6A6A"/>
<circle cx="1679.51" cy="92.8392" r="2.98667" fill="#6A6A6A"/>
<circle cx="1679.51" cy="102.546" r="2.98667" fill="#6A6A6A"/>
<circle cx="1679.51" cy="112.253" r="2.98667" fill="#6A6A6A"/>
<circle cx="1679.51" cy="121.96" r="2.98667" fill="#6A6A6A"/>
<circle cx="1679.51" cy="131.666" r="2.98667" fill="#6A6A6A"/>
<circle cx="1679.51" cy="141.373" r="2.98667" fill="#6A6A6A"/>
<circle cx="2013.27" cy="24.8929" r="2.98667" fill="#6A6A6A"/>
<circle cx="2013.27" cy="34.5999" r="2.98667" fill="#6A6A6A"/>
<circle cx="2013.27" cy="44.306" r="2.98667" fill="#6A6A6A"/>
<circle cx="2013.27" cy="54.013" r="2.98667" fill="#6A6A6A"/>
<circle cx="2013.27" cy="63.7201" r="2.98667" fill="#6A6A6A"/>
<circle cx="2013.27" cy="73.4261" r="2.98667" fill="#6A6A6A"/>
<circle cx="2013.27" cy="83.1331" r="2.98667" fill="#6A6A6A"/>
<circle cx="2013.27" cy="92.8392" r="2.98667" fill="#6A6A6A"/>
<circle cx="2013.27" cy="102.546" r="2.98667" fill="#6A6A6A"/>
<circle cx="2013.27" cy="112.253" r="2.98667" fill="#6A6A6A"/>
<circle cx="2013.27" cy="121.959" r="2.98667" fill="#6A6A6A"/>
<circle cx="2013.27" cy="131.666" r="2.98667" fill="#6A6A6A"/>
<circle cx="2013.27" cy="141.373" r="2.98667" fill="#6A6A6A"/>
<circle cx="2349.27" cy="24.8929" r="2.98667" fill="#6A6A6A"/>
<circle cx="2349.27" cy="34.5999" r="2.98667" fill="#6A6A6A"/>
<circle cx="2349.27" cy="44.306" r="2.98667" fill="#6A6A6A"/>
<circle cx="2349.27" cy="54.013" r="2.98667" fill="#6A6A6A"/>
<circle cx="2349.27" cy="63.7201" r="2.98667" fill="#6A6A6A"/>
<circle cx="2349.27" cy="73.4261" r="2.98667" fill="#6A6A6A"/>
<circle cx="2349.27" cy="83.1331" r="2.98667" fill="#6A6A6A"/>
<circle cx="2349.27" cy="92.8392" r="2.98667" fill="#6A6A6A"/>
<circle cx="2349.27" cy="102.546" r="2.98667" fill="#6A6A6A"/>
<circle cx="2349.27" cy="112.253" r="2.98667" fill="#6A6A6A"/>
<circle cx="2349.27" cy="121.959" r="2.98667" fill="#6A6A6A"/>
<circle cx="2349.27" cy="131.666" r="2.98667" fill="#6A6A6A"/>
<circle cx="2349.27" cy="141.373" r="2.98667" fill="#6A6A6A"/>
<circle cx="4026.99" cy="26.9867" r="2.98667" fill="#6A6A6A"/>
<circle cx="4026.99" cy="36.6937" r="2.98667" fill="#6A6A6A"/>
<circle cx="4026.99" cy="46.3998" r="2.98667" fill="#6A6A6A"/>
<circle cx="4026.99" cy="56.1068" r="2.98667" fill="#6A6A6A"/>
<circle cx="4026.99" cy="65.8138" r="2.98667" fill="#6A6A6A"/>
<circle cx="4026.99" cy="75.5199" r="2.98667" fill="#6A6A6A"/>
<circle cx="4026.99" cy="85.2269" r="2.98667" fill="#6A6A6A"/>
<circle cx="4026.99" cy="94.933" r="2.98667" fill="#6A6A6A"/>
<circle cx="4026.99" cy="104.64" r="2.98667" fill="#6A6A6A"/>
<circle cx="4026.99" cy="114.347" r="2.98667" fill="#6A6A6A"/>
<circle cx="4026.99" cy="124.053" r="2.98667" fill="#6A6A6A"/>
<circle cx="4026.99" cy="133.76" r="2.98667" fill="#6A6A6A"/>
<circle cx="4026.99" cy="143.467" r="2.98667" fill="#6A6A6A"/>
<circle cx="6.98667" cy="20.9867" r="2.98667" fill="#6A6A6A"/>
<circle cx="6.98667" cy="30.6937" r="2.98667" fill="#6A6A6A"/>
<circle cx="6.98667" cy="40.3998" r="2.98667" fill="#6A6A6A"/>
<circle cx="6.98667" cy="50.1068" r="2.98667" fill="#6A6A6A"/>
<circle cx="6.98667" cy="59.8138" r="2.98667" fill="#6A6A6A"/>
<circle cx="6.98667" cy="69.5199" r="2.98667" fill="#6A6A6A"/>
<circle cx="6.98667" cy="79.2269" r="2.98667" fill="#6A6A6A"/>
<circle cx="6.98667" cy="88.933" r="2.98667" fill="#6A6A6A"/>
<circle cx="6.98667" cy="98.64" r="2.98667" fill="#6A6A6A"/>
<circle cx="6.98667" cy="108.347" r="2.98667" fill="#6A6A6A"/>
<circle cx="6.98667" cy="118.053" r="2.98667" fill="#6A6A6A"/>
<circle cx="6.98667" cy="127.76" r="2.98667" fill="#6A6A6A"/>
<circle cx="6.98667" cy="137.467" r="2.98667" fill="#6A6A6A"/>
<circle cx="6708.99" cy="28.9867" r="2.98667" fill="#6A6A6A"/>
<circle cx="6708.99" cy="38.6937" r="2.98667" fill="#6A6A6A"/>
<circle cx="6708.99" cy="48.3998" r="2.98667" fill="#6A6A6A"/>
<circle cx="6708.99" cy="58.1068" r="2.98667" fill="#6A6A6A"/>
<circle cx="6708.99" cy="67.8138" r="2.98667" fill="#6A6A6A"/>
<circle cx="6708.99" cy="77.5199" r="2.98667" fill="#6A6A6A"/>
<circle cx="6708.99" cy="87.2269" r="2.98667" fill="#6A6A6A"/>
<circle cx="6708.99" cy="96.933" r="2.98667" fill="#6A6A6A"/>
<circle cx="6708.99" cy="106.64" r="2.98667" fill="#6A6A6A"/>
<circle cx="6708.99" cy="116.347" r="2.98667" fill="#6A6A6A"/>
<circle cx="6708.99" cy="126.053" r="2.98667" fill="#6A6A6A"/>
<circle cx="6708.99" cy="135.76" r="2.98667" fill="#6A6A6A"/>
<circle cx="6708.99" cy="145.467" r="2.98667" fill="#6A6A6A"/>
<circle cx="5367.99" cy="27.9867" r="2.98667" fill="#6A6A6A"/>
<circle cx="5367.99" cy="37.6937" r="2.98667" fill="#6A6A6A"/>
<circle cx="5367.99" cy="47.3998" r="2.98667" fill="#6A6A6A"/>
<circle cx="5367.99" cy="57.1068" r="2.98667" fill="#6A6A6A"/>
<circle cx="5367.99" cy="66.8138" r="2.98667" fill="#6A6A6A"/>
<circle cx="5367.99" cy="76.5199" r="2.98667" fill="#6A6A6A"/>
<circle cx="5367.99" cy="86.2269" r="2.98667" fill="#6A6A6A"/>
<circle cx="5367.99" cy="95.933" r="2.98667" fill="#6A6A6A"/>
<circle cx="5367.99" cy="105.64" r="2.98667" fill="#6A6A6A"/>
<circle cx="5367.99" cy="115.347" r="2.98667" fill="#6A6A6A"/>
<circle cx="5367.99" cy="125.053" r="2.98667" fill="#6A6A6A"/>
<circle cx="5367.99" cy="134.76" r="2.98667" fill="#6A6A6A"/>
<circle cx="5367.99" cy="144.467" r="2.98667" fill="#6A6A6A"/>
<circle cx="2685.99" cy="24.9867" r="2.98667" fill="#6A6A6A"/>
<circle cx="2685.99" cy="34.6937" r="2.98667" fill="#6A6A6A"/>
<circle cx="2685.99" cy="44.3998" r="2.98667" fill="#6A6A6A"/>
<circle cx="2685.99" cy="54.1068" r="2.98667" fill="#6A6A6A"/>
<circle cx="2685.99" cy="63.8138" r="2.98667" fill="#6A6A6A"/>
<circle cx="2685.99" cy="73.5199" r="2.98667" fill="#6A6A6A"/>
<circle cx="2685.99" cy="83.2269" r="2.98667" fill="#6A6A6A"/>
<circle cx="2685.99" cy="92.933" r="2.98667" fill="#6A6A6A"/>
<circle cx="2685.99" cy="102.64" r="2.98667" fill="#6A6A6A"/>
<circle cx="2685.99" cy="112.347" r="2.98667" fill="#6A6A6A"/>
<circle cx="2685.99" cy="122.053" r="2.98667" fill="#6A6A6A"/>
<circle cx="2685.99" cy="131.76" r="2.98667" fill="#6A6A6A"/>
<circle cx="2685.99" cy="141.467" r="2.98667" fill="#6A6A6A"/>
<g filter="url(#filter4_d_1723_5940)">
<path d="M22.6667 0C19.7592 11.6815 16.32 14.56 4 14.56V144.48C17.817 147.63 21.7088 153.511 24.9067 168H317.973C322.011 154.511 326.187 149.333 339.253 147.84V17.1733C328.443 16.0718 323.685 12.5303 317.973 0H22.6667Z" fill="url(#paint16_linear_1723_5940)"/>
<path d="M359.04 0C356.132 11.5531 351.573 17.1733 339.253 17.1733V147.84C353.813 150.055 356.962 153.671 360.16 168H653.226C657.264 154.659 661.583 149.932 674.506 147.84V18.8308C663.696 17.7414 658.938 14.2388 653.226 1.84615L359.04 0Z" fill="url(#paint17_linear_1723_5940)"/>
<path d="M694.293 0C691.385 11.5531 686.826 18.6667 674.506 18.6667V147.84C689.066 150.055 692.215 153.671 695.413 168H988.479C992.517 154.659 996.836 149.784 1009.76 147.692V18.8308C998.949 17.7414 994.191 14.2388 988.479 1.84615L694.293 0Z" fill="url(#paint18_linear_1723_5940)"/>
<path d="M1029.55 0C1026.64 11.5531 1022.08 18.6667 1009.76 18.6667V147.84C1024.32 150.055 1027.47 153.671 1030.67 168H1323.73C1327.77 154.659 1332.09 149.784 1345.01 147.692V18.8308C1334.2 17.7414 1329.44 14.2388 1323.73 1.84615L1029.55 0Z" fill="url(#paint19_linear_1723_5940)"/>
</g>
<circle cx="338.507" cy="23.8929" r="2.98667" fill="#6A6A6A"/>
<circle cx="338.507" cy="33.5999" r="2.98667" fill="#6A6A6A"/>
<circle cx="338.507" cy="43.306" r="2.98667" fill="#6A6A6A"/>
<circle cx="338.507" cy="53.013" r="2.98667" fill="#6A6A6A"/>
<circle cx="338.507" cy="62.7196" r="2.98667" fill="#6A6A6A"/>
<circle cx="338.507" cy="72.4261" r="2.98667" fill="#6A6A6A"/>
<circle cx="338.507" cy="82.1331" r="2.98667" fill="#6A6A6A"/>
<circle cx="338.507" cy="91.8392" r="2.98667" fill="#6A6A6A"/>
<circle cx="338.507" cy="101.546" r="2.98667" fill="#6A6A6A"/>
<circle cx="338.507" cy="111.253" r="2.98667" fill="#6A6A6A"/>
<circle cx="338.507" cy="120.96" r="2.98667" fill="#6A6A6A"/>
<circle cx="338.507" cy="130.666" r="2.98667" fill="#6A6A6A"/>
<circle cx="338.507" cy="140.373" r="2.98667" fill="#6A6A6A"/>
<circle cx="3.98667" cy="20.9867" r="2.98667" fill="#6A6A6A"/>
<circle cx="3.98667" cy="30.6937" r="2.98667" fill="#6A6A6A"/>
<circle cx="3.98667" cy="40.3998" r="2.98667" fill="#6A6A6A"/>
<circle cx="3.98667" cy="50.1068" r="2.98667" fill="#6A6A6A"/>
<circle cx="3.98667" cy="59.8133" r="2.98667" fill="#6A6A6A"/>
<circle cx="3.98667" cy="69.5199" r="2.98667" fill="#6A6A6A"/>
<circle cx="3.98667" cy="79.2269" r="2.98667" fill="#6A6A6A"/>
<circle cx="3.98667" cy="88.933" r="2.98667" fill="#6A6A6A"/>
<circle cx="3.98667" cy="98.64" r="2.98667" fill="#6A6A6A"/>
<circle cx="3.98667" cy="108.347" r="2.98667" fill="#6A6A6A"/>
<circle cx="3.98667" cy="118.054" r="2.98667" fill="#6A6A6A"/>
<circle cx="3.98667" cy="127.76" r="2.98667" fill="#6A6A6A"/>
<circle cx="3.98667" cy="137.467" r="2.98667" fill="#6A6A6A"/>
<circle cx="672.267" cy="23.8929" r="2.98667" fill="#6A6A6A"/>
<circle cx="672.267" cy="33.5999" r="2.98667" fill="#6A6A6A"/>
<circle cx="672.267" cy="43.306" r="2.98667" fill="#6A6A6A"/>
<circle cx="672.267" cy="53.013" r="2.98667" fill="#6A6A6A"/>
<circle cx="672.267" cy="62.7201" r="2.98667" fill="#6A6A6A"/>
<circle cx="672.267" cy="72.4261" r="2.98667" fill="#6A6A6A"/>
<circle cx="672.267" cy="82.1331" r="2.98667" fill="#6A6A6A"/>
<circle cx="672.267" cy="91.8392" r="2.98667" fill="#6A6A6A"/>
<circle cx="672.267" cy="101.546" r="2.98667" fill="#6A6A6A"/>
<circle cx="672.267" cy="111.253" r="2.98667" fill="#6A6A6A"/>
<circle cx="672.267" cy="120.959" r="2.98667" fill="#6A6A6A"/>
<circle cx="672.267" cy="130.666" r="2.98667" fill="#6A6A6A"/>
<circle cx="672.267" cy="140.373" r="2.98667" fill="#6A6A6A"/>
<path d="M1011.25 23.8929C1011.25 25.5424 1009.92 26.8796 1008.27 26.8796C1006.62 26.8796 1005.28 25.5424 1005.28 23.8929C1005.28 22.2434 1006.62 20.9062 1008.27 20.9062C1009.92 20.9062 1011.25 22.2434 1011.25 23.8929Z" fill="#6A6A6A"/>
<circle cx="1008.27" cy="33.5999" r="2.98667" fill="#6A6A6A"/>
<circle cx="1008.27" cy="43.306" r="2.98667" fill="#6A6A6A"/>
<circle cx="1008.27" cy="53.013" r="2.98667" fill="#6A6A6A"/>
<circle cx="1008.27" cy="62.7201" r="2.98667" fill="#6A6A6A"/>
<circle cx="1008.27" cy="72.4261" r="2.98667" fill="#6A6A6A"/>
<circle cx="1008.27" cy="82.1331" r="2.98667" fill="#6A6A6A"/>
<circle cx="1008.27" cy="91.8392" r="2.98667" fill="#6A6A6A"/>
<circle cx="1008.27" cy="101.546" r="2.98667" fill="#6A6A6A"/>
<circle cx="1008.27" cy="111.253" r="2.98667" fill="#6A6A6A"/>
<circle cx="1008.27" cy="120.959" r="2.98667" fill="#6A6A6A"/>
<circle cx="1008.27" cy="130.666" r="2.98667" fill="#6A6A6A"/>
<circle cx="1008.27" cy="140.373" r="2.98667" fill="#6A6A6A"/>
<path d="M1347.97 23.9867C1347.97 25.6362 1346.64 26.9733 1344.99 26.9733C1343.34 26.9733 1342 25.6362 1342 23.9867C1342 22.3372 1343.34 21 1344.99 21C1346.64 21 1347.97 22.3372 1347.97 23.9867Z" fill="#6A6A6A"/>
<circle cx="1344.99" cy="33.6937" r="2.98667" fill="#6A6A6A"/>
<circle cx="1344.99" cy="43.3998" r="2.98667" fill="#6A6A6A"/>
<circle cx="1344.99" cy="53.1068" r="2.98667" fill="#6A6A6A"/>
<circle cx="1344.99" cy="62.8138" r="2.98667" fill="#6A6A6A"/>
<circle cx="1344.99" cy="72.5199" r="2.98667" fill="#6A6A6A"/>
<circle cx="1344.99" cy="82.2269" r="2.98667" fill="#6A6A6A"/>
<circle cx="1344.99" cy="91.933" r="2.98667" fill="#6A6A6A"/>
<circle cx="1344.99" cy="101.64" r="2.98667" fill="#6A6A6A"/>
<circle cx="1344.99" cy="111.347" r="2.98667" fill="#6A6A6A"/>
<circle cx="1344.99" cy="121.053" r="2.98667" fill="#6A6A6A"/>
<circle cx="1344.99" cy="130.76" r="2.98667" fill="#6A6A6A"/>
<circle cx="1344.99" cy="140.467" r="2.98667" fill="#6A6A6A"/>
<defs>
<filter id="filter0_d_1723_5940" x="2682" y="2" width="1349.01" height="176" filterUnits="userSpaceOnUse" color-interpolation-filters="sRGB">
<feFlood flood-opacity="0" result="BackgroundImageFix"/>
<feColorMatrix in="SourceAlpha" type="matrix" values="0 0 0 0 0 0 0 0 0 0 0 0 0 0 0 0 0 0 127 0" result="hardAlpha"/>
<feOffset dy="4"/>
<feGaussianBlur stdDeviation="2"/>
<feComposite in2="hardAlpha" operator="out"/>
<feColorMatrix type="matrix" values="0 0 0 0 0 0 0 0 0 0 0 0 0 0 0 0 0 0 0.25 0"/>
<feBlend mode="normal" in2="BackgroundImageFix" result="effect1_dropShadow_1723_5940"/>
<feBlend mode="normal" in="SourceGraphic" in2="effect1_dropShadow_1723_5940" result="shape"/>
</filter>
<filter id="filter1_d_1723_5940" x="4023" y="3" width="1349.01" height="176" filterUnits="userSpaceOnUse" color-interpolation-filters="sRGB">
<feFlood flood-opacity="0" result="BackgroundImageFix"/>
<feColorMatrix in="SourceAlpha" type="matrix" values="0 0 0 0 0 0 0 0 0 0 0 0 0 0 0 0 0 0 127 0" result="hardAlpha"/>
<feOffset dy="4"/>
<feGaussianBlur stdDeviation="2"/>
<feComposite in2="hardAlpha" operator="out"/>
<feColorMatrix type="matrix" values="0 0 0 0 0 0 0 0 0 0 0 0 0 0 0 0 0 0 0.25 0"/>
<feBlend mode="normal" in2="BackgroundImageFix" result="effect1_dropShadow_1723_5940"/>
<feBlend mode="normal" in="SourceGraphic" in2="effect1_dropShadow_1723_5940" result="shape"/>
</filter>
<filter id="filter2_d_1723_5940" x="5364" y="4" width="1349.01" height="176" filterUnits="userSpaceOnUse" color-interpolation-filters="sRGB">
<feFlood flood-opacity="0" result="BackgroundImageFix"/>
<feColorMatrix in="SourceAlpha" type="matrix" values="0 0 0 0 0 0 0 0 0 0 0 0 0 0 0 0 0 0 127 0" result="hardAlpha"/>
<feOffset dy="4"/>
<feGaussianBlur stdDeviation="2"/>
<feComposite in2="hardAlpha" operator="out"/>
<feColorMatrix type="matrix" values="0 0 0 0 0 0 0 0 0 0 0 0 0 0 0 0 0 0 0.25 0"/>
<feBlend mode="normal" in2="BackgroundImageFix" result="effect1_dropShadow_1723_5940"/>
<feBlend mode="normal" in="SourceGraphic" in2="effect1_dropShadow_1723_5940" result="shape"/>
</filter>
<filter id="filter3_d_1723_5940" x="1341" y="1" width="1349.01" height="176" filterUnits="userSpaceOnUse" color-interpolation-filters="sRGB">
<feFlood flood-opacity="0" result="BackgroundImageFix"/>
<feColorMatrix in="SourceAlpha" type="matrix" values="0 0 0 0 0 0 0 0 0 0 0 0 0 0 0 0 0 0 127 0" result="hardAlpha"/>
<feOffset dy="4"/>
<feGaussianBlur stdDeviation="2"/>
<feComposite in2="hardAlpha" operator="out"/>
<feColorMatrix type="matrix" values="0 0 0 0 0 0 0 0 0 0 0 0 0 0 0 0 0 0 0.25 0"/>
<feBlend mode="normal" in2="BackgroundImageFix" result="effect1_dropShadow_1723_5940"/>
<feBlend mode="normal" in="SourceGraphic" in2="effect1_dropShadow_1723_5940" result="shape"/>
</filter>
<filter id="filter4_d_1723_5940" x="0" y="0" width="1349.01" height="176" filterUnits="userSpaceOnUse" color-interpolation-filters="sRGB">
<feFlood flood-opacity="0" result="BackgroundImageFix"/>
<feColorMatrix in="SourceAlpha" type="matrix" values="0 0 0 0 0 0 0 0 0 0 0 0 0 0 0 0 0 0 127 0" result="hardAlpha"/>
<feOffset dy="4"/>
<feGaussianBlur stdDeviation="2"/>
<feComposite in2="hardAlpha" operator="out"/>
<feColorMatrix type="matrix" values="0 0 0 0 0 0 0 0 0 0 0 0 0 0 0 0 0 0 0.25 0"/>
<feBlend mode="normal" in2="BackgroundImageFix" result="effect1_dropShadow_1723_5940"/>
<feBlend mode="normal" in="SourceGraphic" in2="effect1_dropShadow_1723_5940" result="shape"/>
</filter>
<linearGradient id="paint0_linear_1723_5940" x1="2854" y1="86" x2="3014.5" y2="170" gradientUnits="userSpaceOnUse">
<stop offset="0.0663562" stop-color="#F7891A"/>
<stop offset="1" stop-color="#CF0A1F"/>
</linearGradient>
<linearGradient id="paint1_linear_1723_5940" x1="3100" y1="-13.5" x2="3016" y2="138" gradientUnits="userSpaceOnUse">
<stop stop-color="#F7891A"/>
<stop offset="1" stop-color="#CF0A1F"/>
</linearGradient>
<linearGradient id="paint2_linear_1723_5940" x1="3356.51" y1="97.1253" x2="3808" y2="26" gradientUnits="userSpaceOnUse">
<stop stop-color="#F7891A"/>
<stop offset="1" stop-color="#CF0A1F"/>
</linearGradient>
<linearGradient id="paint3_linear_1723_5940" x1="3981.5" y1="170" x2="3669" y2="68.5" gradientUnits="userSpaceOnUse">
<stop stop-color="#F7891A"/>
<stop offset="1" stop-color="#CF0A1F"/>
</linearGradient>
<linearGradient id="paint4_linear_1723_5940" x1="4195" y1="87" x2="4355.5" y2="171" gradientUnits="userSpaceOnUse">
<stop offset="0.0663562" stop-color="#F7891A"/>
<stop offset="1" stop-color="#CF0A1F"/>
</linearGradient>
<linearGradient id="paint5_linear_1723_5940" x1="4441" y1="-12.5" x2="4357" y2="139" gradientUnits="userSpaceOnUse">
<stop stop-color="#F7891A"/>
<stop offset="1" stop-color="#CF0A1F"/>
</linearGradient>
<linearGradient id="paint6_linear_1723_5940" x1="4697.51" y1="98.1253" x2="5149" y2="27" gradientUnits="userSpaceOnUse">
<stop stop-color="#F7891A"/>
<stop offset="1" stop-color="#CF0A1F"/>
</linearGradient>
<linearGradient id="paint7_linear_1723_5940" x1="5322.5" y1="171" x2="5010" y2="69.5" gradientUnits="userSpaceOnUse">
<stop stop-color="#F7891A"/>
<stop offset="1" stop-color="#CF0A1F"/>
</linearGradient>
<linearGradient id="paint8_linear_1723_5940" x1="5536" y1="88" x2="5696.5" y2="172" gradientUnits="userSpaceOnUse">
<stop offset="0.0663562" stop-color="#F7891A"/>
<stop offset="1" stop-color="#CF0A1F"/>
</linearGradient>
<linearGradient id="paint9_linear_1723_5940" x1="5782" y1="-11.5" x2="5698" y2="140" gradientUnits="userSpaceOnUse">
<stop stop-color="#F7891A"/>
<stop offset="1" stop-color="#CF0A1F"/>
</linearGradient>
<linearGradient id="paint10_linear_1723_5940" x1="6038.51" y1="99.1253" x2="6490" y2="28" gradientUnits="userSpaceOnUse">
<stop stop-color="#F7891A"/>
<stop offset="1" stop-color="#CF0A1F"/>
</linearGradient>
<linearGradient id="paint11_linear_1723_5940" x1="6663.5" y1="172" x2="6351" y2="70.5" gradientUnits="userSpaceOnUse">
<stop stop-color="#F7891A"/>
<stop offset="1" stop-color="#CF0A1F"/>
</linearGradient>
<linearGradient id="paint12_linear_1723_5940" x1="1513" y1="85" x2="1673.5" y2="169" gradientUnits="userSpaceOnUse">
<stop offset="0.0663562" stop-color="#F7891A"/>
<stop offset="1" stop-color="#CF0A1F"/>
</linearGradient>
<linearGradient id="paint13_linear_1723_5940" x1="1759" y1="-14.5" x2="1675" y2="137" gradientUnits="userSpaceOnUse">
<stop stop-color="#F7891A"/>
<stop offset="1" stop-color="#CF0A1F"/>
</linearGradient>
<linearGradient id="paint14_linear_1723_5940" x1="2015.51" y1="96.1253" x2="2467" y2="25" gradientUnits="userSpaceOnUse">
<stop stop-color="#F7891A"/>
<stop offset="1" stop-color="#CF0A1F"/>
</linearGradient>
<linearGradient id="paint15_linear_1723_5940" x1="2640.5" y1="169" x2="2328" y2="67.5" gradientUnits="userSpaceOnUse">
<stop stop-color="#F7891A"/>
<stop offset="1" stop-color="#CF0A1F"/>
</linearGradient>
<linearGradient id="paint16_linear_1723_5940" x1="172" y1="84" x2="332.5" y2="168" gradientUnits="userSpaceOnUse">
<stop offset="0.0663562" stop-color="#F7891A"/>
<stop offset="1" stop-color="#CF0A1F"/>
</linearGradient>
<linearGradient id="paint17_linear_1723_5940" x1="418" y1="-15.5" x2="334" y2="136" gradientUnits="userSpaceOnUse">
<stop stop-color="#F7891A"/>
<stop offset="1" stop-color="#CF0A1F"/>
</linearGradient>
<linearGradient id="paint18_linear_1723_5940" x1="674.506" y1="95.1253" x2="1126" y2="24" gradientUnits="userSpaceOnUse">
<stop stop-color="#F7891A"/>
<stop offset="1" stop-color="#CF0A1F"/>
</linearGradient>
<linearGradient id="paint19_linear_1723_5940" x1="1299.5" y1="168" x2="987" y2="66.5" gradientUnits="userSpaceOnUse">
<stop stop-color="#F7891A"/>
<stop offset="1" stop-color="#CF0A1F"/>
</linearGradient>
</defs>
</svg>
