<svg width="1440" height="1088" viewBox="0 0 1440 1088" fill="none" xmlns="http://www.w3.org/2000/svg">
<g clip-path="url(#clip0_18_527)">
<g opacity="0.75" filter="url(#filter0_f_18_527)">
<mask id="mask0_18_527" style="mask-type:alpha" maskUnits="userSpaceOnUse" x="-8" y="315" width="462" height="113">
<path d="M364.967 377.4C384.501 373.954 415.517 396.165 421.126 406.761C426.736 417.356 450.341 409.489 453.478 414.257C455.088 416.702 452.22 423.647 446.153 428H-7.99991C-7.99991 428 10.9231 409.884 20.6899 410.509C30.4567 411.134 32.8982 409.884 36.5608 407.385C40.2234 404.887 44.4963 398.015 44.4963 393.018C44.4963 388.02 39.0025 381.773 44.4963 376.151C49.9901 370.529 58.536 358.66 58.536 358.66C80.9322 348.298 85.8435 355.754 96.9925 364.907C100.132 347.498 109.467 346.012 145.826 364.907C155.548 364.119 156.814 366.156 163.528 356.786C170.243 347.416 151.32 343.043 163.528 335.546C175.737 328.05 159.866 323.677 175.737 317.431C191.608 311.184 205.354 316.463 226.402 339.295C239.707 327.544 246.515 334.787 258.144 358.66C273.332 372.029 274.616 378.607 273.404 389.894C287.454 391.564 288.277 396.27 290.496 404.262C292.852 399.328 310.67 402.865 314.913 406.761C319.156 410.656 325.9 398.015 331.394 397.39C336.888 396.766 347.876 398.015 349.707 389.894C351.538 381.773 345.434 380.847 364.967 377.4Z" fill="url(#paint0_linear_18_527)"/>
</mask>
<g mask="url(#mask0_18_527)">
<path d="M364.967 377.4C384.501 373.954 415.517 396.165 421.126 406.761C426.736 417.356 450.341 409.489 453.478 414.257C455.088 416.702 452.22 423.647 446.153 428H-7.99991C-7.99991 428 10.9231 409.884 20.6899 410.509C30.4567 411.134 32.8982 409.884 36.5608 407.385C40.2234 404.887 44.4963 398.015 44.4963 393.018C44.4963 388.02 39.0025 381.773 44.4963 376.151C49.9901 370.529 58.536 358.66 58.536 358.66C80.9322 348.298 85.8435 355.754 96.9925 364.907C100.132 347.498 109.467 346.012 145.826 364.907C155.548 364.119 156.814 366.156 163.528 356.786C170.243 347.416 151.32 343.043 163.528 335.546C175.737 328.05 159.866 323.677 175.737 317.431C191.608 311.184 205.354 316.463 226.402 339.295C239.707 327.544 246.515 334.787 258.144 358.66C273.332 372.029 274.616 378.607 273.404 389.894C287.454 391.564 288.277 396.27 290.496 404.262C292.852 399.328 310.67 402.865 314.913 406.761C319.156 410.656 325.9 398.015 331.394 397.39C336.888 396.766 347.876 398.015 349.707 389.894C351.538 381.773 345.434 380.847 364.967 377.4Z" fill="url(#paint1_linear_18_527)"/>
<path d="M333.051 403.278C352.585 399.832 383.601 422.043 389.21 432.639C394.82 443.234 418.425 435.367 421.562 440.135C423.172 442.58 420.304 449.525 414.237 453.878H-39.916C-39.916 453.878 -20.9929 435.762 -11.2261 436.387C-1.45938 437.011 0.982208 435.762 4.64474 433.263C8.30731 430.765 12.5802 423.893 12.5802 418.895C12.5802 413.898 7.08643 407.651 12.5802 402.029C18.074 396.407 26.62 384.538 26.62 384.538C49.0161 374.176 53.9275 381.632 65.0765 390.785C68.2161 373.376 77.5506 371.89 113.91 390.785C123.632 389.997 124.898 392.034 131.612 382.664C138.327 373.294 119.404 368.921 131.612 361.424C143.821 353.928 127.95 349.555 143.821 343.308C159.692 337.062 173.438 342.341 194.486 365.173C207.791 353.422 214.599 360.665 226.228 384.538C241.416 397.907 242.7 404.485 241.488 415.772C255.538 417.442 256.361 422.147 258.58 430.14C260.936 425.206 278.754 428.743 282.997 432.639C287.24 436.534 293.984 423.893 299.478 423.268C304.972 422.644 315.96 423.893 317.791 415.772C319.622 407.651 313.518 406.725 333.051 403.278Z" fill="url(#paint2_linear_18_527)" fill-opacity="0.5"/>
</g>
</g>
<g opacity="0.75" filter="url(#filter1_f_18_527)">
<mask id="mask1_18_527" style="mask-type:alpha" maskUnits="userSpaceOnUse" x="809" y="175" width="638" height="156">
<path d="M1323.89 261.146C1350.86 256.388 1393.68 287.051 1401.42 301.678C1409.17 316.306 1441.75 305.445 1446.09 312.027C1448.31 315.403 1444.35 324.99 1435.97 331H809C809 331 835.124 305.99 848.607 306.853C862.09 307.715 865.461 305.99 870.517 302.541C875.574 299.091 881.473 289.605 881.473 282.706C881.473 275.806 873.888 267.182 881.473 259.421C889.057 251.659 900.855 235.274 900.855 235.274C931.773 220.969 938.554 231.262 953.945 243.898C958.28 219.865 971.166 217.813 1021.36 243.898C1034.78 242.81 1036.53 245.623 1045.8 232.687C1055.07 219.751 1028.95 213.714 1045.8 203.365C1062.65 193.016 1040.74 186.979 1062.65 178.355C1084.56 169.731 1103.54 177.019 1132.6 208.539C1150.97 192.317 1160.37 202.316 1176.42 235.274C1197.39 253.731 1199.16 262.811 1197.49 278.394C1216.88 280.698 1218.02 287.195 1221.08 298.229C1224.34 291.417 1248.93 296.3 1254.79 301.678C1260.65 307.057 1269.96 289.605 1277.54 288.742C1285.13 287.88 1300.3 289.605 1302.83 278.394C1305.35 267.183 1296.93 265.904 1323.89 261.146Z" fill="url(#paint3_linear_18_527)"/>
</mask>
<g mask="url(#mask1_18_527)">
<path d="M1323.89 261.146C1350.86 256.388 1393.68 287.051 1401.42 301.678C1409.17 316.306 1441.75 305.445 1446.09 312.027C1448.31 315.403 1444.35 324.99 1435.97 331H809C809 331 835.124 305.99 848.607 306.853C862.09 307.715 865.461 305.99 870.517 302.541C875.574 299.091 881.473 289.605 881.473 282.706C881.473 275.806 873.888 267.182 881.473 259.421C889.057 251.659 900.855 235.274 900.855 235.274C931.773 220.969 938.554 231.262 953.945 243.898C958.28 219.865 971.166 217.813 1021.36 243.898C1034.78 242.81 1036.53 245.623 1045.8 232.687C1055.07 219.751 1028.95 213.714 1045.8 203.365C1062.65 193.016 1040.74 186.979 1062.65 178.355C1084.56 169.731 1103.54 177.019 1132.6 208.539C1150.97 192.317 1160.37 202.316 1176.42 235.274C1197.39 253.731 1199.16 262.811 1197.49 278.394C1216.88 280.698 1218.02 287.195 1221.08 298.229C1224.34 291.417 1248.93 296.3 1254.79 301.678C1260.65 307.057 1269.96 289.605 1277.54 288.742C1285.13 287.88 1300.3 289.605 1302.83 278.394C1305.35 267.183 1296.93 265.904 1323.89 261.146Z" fill="url(#paint4_linear_18_527)"/>
<path d="M1279.83 296.871C1306.8 292.113 1349.62 322.776 1357.36 337.404C1365.1 352.031 1397.69 341.17 1402.02 347.752C1404.25 351.128 1400.29 360.715 1391.91 366.725H764.939C764.939 366.725 791.063 341.715 804.546 342.578C818.029 343.44 821.4 341.715 826.456 338.266C831.513 334.816 837.411 325.33 837.411 318.431C837.411 311.532 829.827 302.907 837.411 295.146C844.996 287.384 856.794 270.999 856.794 270.999C887.712 256.694 894.493 266.987 909.884 279.623C914.219 255.59 927.105 253.538 977.301 279.623C990.722 278.535 992.469 281.348 1001.74 268.412C1011.01 255.476 984.885 249.439 1001.74 239.09C1018.59 228.741 996.683 222.705 1018.59 214.081C1040.5 205.457 1059.48 212.744 1088.54 244.265C1106.91 228.042 1116.3 238.042 1132.36 270.999C1153.33 289.456 1155.1 298.537 1153.43 314.119C1172.82 316.424 1173.96 322.92 1177.02 333.954C1180.27 327.142 1204.87 332.025 1210.73 337.404C1216.59 342.782 1225.9 325.33 1233.48 324.468C1241.07 323.605 1256.24 325.33 1258.76 314.119C1261.29 302.908 1252.87 301.629 1279.83 296.871Z" fill="url(#paint5_linear_18_527)" fill-opacity="0.5"/>
</g>
</g>
<g opacity="0.75" filter="url(#filter2_f_18_527)">
<mask id="mask2_18_527" style="mask-type:alpha" maskUnits="userSpaceOnUse" x="857" y="515" width="410" height="82">
<path d="M935.954 560.282C918.616 557.781 891.087 573.898 886.108 581.587C881.129 589.276 860.177 583.567 857.392 587.027C855.964 588.802 858.509 593.841 863.894 597H1267C1267 597 1250.2 583.854 1241.53 584.307C1232.87 584.761 1230.7 583.854 1227.45 582.041C1224.2 580.227 1220.4 575.241 1220.4 571.614C1220.4 567.988 1225.28 563.455 1220.4 559.375C1215.53 555.295 1207.94 546.682 1207.94 546.682C1188.06 539.163 1183.7 544.574 1173.81 551.216C1171.02 538.583 1162.74 537.504 1130.46 551.216C1121.83 550.644 1120.71 552.122 1114.75 545.323C1108.79 538.523 1125.59 535.35 1114.75 529.91C1103.92 524.47 1118 521.297 1103.92 516.764C1089.83 512.231 1077.63 516.061 1058.95 532.63C1047.14 524.103 1041.09 529.359 1030.77 546.682C1017.29 556.384 1016.15 561.157 1017.23 569.348C1004.76 570.559 1004.02 573.974 1002.06 579.774C999.964 576.194 984.149 578.76 980.383 581.587C976.617 584.414 970.63 575.241 965.754 574.788C960.877 574.334 951.125 575.241 949.5 569.348C947.874 563.455 953.292 562.783 935.954 560.282Z" fill="url(#paint6_linear_18_527)"/>
</mask>
<g mask="url(#mask2_18_527)">
<path d="M935.954 560.282C918.616 557.781 891.087 573.898 886.108 581.587C881.129 589.276 860.177 583.567 857.392 587.027C855.964 588.802 858.509 593.841 863.894 597H1267C1267 597 1250.2 583.854 1241.53 584.307C1232.87 584.761 1230.7 583.854 1227.45 582.041C1224.2 580.227 1220.4 575.241 1220.4 571.614C1220.4 567.988 1225.28 563.455 1220.4 559.375C1215.53 555.295 1207.94 546.682 1207.94 546.682C1188.06 539.163 1183.7 544.574 1173.81 551.216C1171.02 538.583 1162.74 537.504 1130.46 551.216C1121.83 550.644 1120.71 552.122 1114.75 545.323C1108.79 538.523 1125.59 535.35 1114.75 529.91C1103.92 524.47 1118 521.297 1103.92 516.764C1089.83 512.231 1077.63 516.061 1058.95 532.63C1047.14 524.103 1041.09 529.359 1030.77 546.682C1017.29 556.384 1016.15 561.157 1017.23 569.348C1004.76 570.559 1004.02 573.974 1002.06 579.774C999.964 576.194 984.149 578.76 980.383 581.587C976.617 584.414 970.63 575.241 965.754 574.788C960.877 574.334 951.125 575.241 949.5 569.348C947.874 563.455 953.292 562.783 935.954 560.282Z" fill="url(#paint7_linear_18_527)"/>
<path d="M964.283 579.06C946.945 576.559 919.415 592.677 914.436 600.366C909.457 608.055 888.505 602.346 885.72 605.806C884.292 607.58 886.838 612.62 892.222 615.779H1295.33C1295.33 615.779 1278.53 602.632 1269.86 603.086C1261.19 603.539 1259.03 602.632 1255.78 600.819C1252.53 599.006 1248.73 594.019 1248.73 590.393C1248.73 586.767 1253.61 582.233 1248.73 578.154C1243.86 574.074 1236.27 565.461 1236.27 565.461C1216.39 557.942 1212.03 563.352 1202.14 569.994C1199.35 557.361 1191.07 556.283 1158.79 569.994C1150.16 569.422 1149.04 570.901 1143.08 564.101C1137.12 557.301 1153.92 554.128 1143.08 548.688C1132.24 543.249 1146.33 540.075 1132.24 535.542C1118.16 531.009 1105.96 534.84 1087.27 551.408C1075.46 542.881 1069.42 548.137 1059.1 565.461C1045.62 575.163 1044.48 579.936 1045.55 588.127C1033.08 589.338 1032.35 592.753 1030.38 598.553C1028.29 594.972 1012.48 597.539 1008.71 600.366C1004.95 603.193 998.959 594.02 994.082 593.566C989.206 593.113 979.454 594.02 977.828 588.127C976.203 582.233 981.621 581.561 964.283 579.06Z" fill="url(#paint8_linear_18_527)" fill-opacity="0.5"/>
</g>
</g>
<g filter="url(#filter3_f_18_527)">
<path d="M1081.09 537.038C1075.23 551.254 953.254 587.563 893 603.94L1476 613V525.539C1302.57 438.077 1337.17 488.951 1288.32 477.452C1239.46 465.953 1088.42 519.266 1081.09 537.038Z" fill="url(#paint9_radial_18_527)"/>
</g>
<g filter="url(#filter4_f_18_527)">
<path d="M379.307 527.448C440.386 569.799 484.354 579.576 560 601H-9V527.448C-7.63086 506.845 -3.08973 496.26 57.4853 490.847C84.2184 487.962 101.674 484.546 143.549 470.629C157.368 463.896 185.493 465.94 278.559 481.784C325.335 492.049 347.673 501.763 379.307 527.448Z" fill="url(#paint10_radial_18_527)"/>
</g>
<g filter="url(#filter5_f_18_527)">
<path d="M312.355 567.77C297.063 567.474 288.841 555.838 272.99 573.734C265.071 571.649 260.681 569.403 252.295 577.571C245.151 571.519 237.03 569.528 235.17 575.935C226.401 575.767 222.73 576.804 220.996 583.028C217.595 576.406 214.148 575.879 206.125 578.812C198.929 577.121 195.622 576.785 197.256 582.515C192.45 579.632 189.776 579.289 185.184 589.166L185.148 589.09C181.562 581.638 179.541 577.436 169.96 581.925C159.08 571.326 156.252 573.826 152.363 577.943C146.967 576.484 144.051 575.645 141.406 576.628C138.826 577.586 137.02 576.518 135.312 579.911C127.518 567.095 121.367 565.042 109.735 567.578C101.67 563.661 96.8274 562.806 89.4894 567.822C85.9662 560.139 82.376 559.02 74.2693 560.386C67.6868 554.178 65.2435 548.855 52.0505 552.41C44.7555 547.8 41.8102 547.859 38.3502 552.114C39.4608 543.35 37.8164 540.075 28.4874 538.855C22.3336 538.227 19.3003 538.679 15.1339 541.877L4.4334 538.336L-3.69094 541.47L-5.77032 637.709C-3.84331 646.262 -2.34184 650.276 6.93775 645.188C13.9427 646.631 15.2785 644.729 17.1811 640.834C15.4478 651.354 19.8651 649.117 26.1389 647.55C35.3323 646.896 39.589 645.682 42.1285 638.744C51.9777 642.425 57.4971 644.82 67.4654 633.158C83.6765 631.901 88.0162 628.6 92.5269 620.946C105.564 625.91 109.577 622.984 114.747 614.319C123.947 616.495 128.57 615.173 136.474 611.187C140.049 614.603 143.409 614.904 151.073 613.449C153.555 622.753 157.623 624.597 169.081 622.6C172.529 630.221 175.585 629.334 181.231 626.854C180.846 630.407 180.904 632.29 188.112 632.844C192.041 636.594 194.279 635.9 198.341 629.171C202.8 635.238 207.21 634.713 216.182 631.504C224.128 636.722 227.068 633.31 232.958 629.919C237.867 628.613 240.523 627.813 237.339 620.862C241.857 623.601 244.472 624.314 249.575 621.127C254.551 617.053 256.008 615.035 255.413 612.394C255.986 614.937 257.314 614.387 261.973 613.898C267.6 621.011 270.032 618.181 274.863 617.779C282.078 620.557 283.82 618.618 286.445 614.427C288.134 624.759 292.585 626.677 302.583 627.821C307.238 630.741 309.783 629.971 314.242 625.737C315.724 632.295 317.994 633.625 324.572 631.899C332.321 634.25 335.953 634.49 338.245 628.592C340.673 633.691 342.752 633.879 346.953 632.382C350.987 634.669 353.247 635.867 357.139 630.655C369.579 631.303 370.417 627.561 370.347 619.842C380.099 616.386 381.478 613.026 379.031 605.329C388.214 599.694 387.177 597.25 383.795 593.068C381.714 586.145 384.733 581.72 374.017 575.917C373.275 570.826 375.034 566.739 361.614 568.834C362.389 561.628 361.816 558.437 353.457 558.922C344.942 554.954 340.281 550.813 331.077 558.439C319.922 556.157 316.018 558.5 312.355 567.77Z" fill="#8EC374"/>
</g>
<g filter="url(#filter6_f_18_527)">
<path d="M1190.94 569.346C1209.52 568.974 1219.6 558.885 1238.72 574.185C1248.36 572.328 1253.71 570.359 1263.84 577.333C1272.56 572.064 1282.44 570.287 1284.65 575.793C1295.31 575.581 1299.76 576.446 1301.82 581.796C1306 576.064 1310.19 575.584 1319.92 578.05C1328.67 576.538 1332.69 576.223 1330.67 581.173C1336.53 578.652 1339.78 578.336 1345.28 586.812L1345.33 586.746C1349.74 580.297 1352.23 576.661 1363.83 580.456C1377.13 571.24 1380.55 573.373 1385.24 576.89L1385.79 576.782C1392.01 575.551 1395.45 574.87 1398.56 575.674C1401.69 576.479 1403.89 575.546 1405.94 578.456C1415.51 567.354 1423 565.538 1437.11 567.634C1446.94 564.197 1452.83 563.423 1461.71 567.69C1466.04 561.043 1470.42 560.051 1480.25 561.166C1488.3 555.766 1491.31 551.161 1507.31 554.124C1516.21 550.096 1519.78 550.124 1523.96 553.764C1522.67 546.221 1524.7 543.386 1536.04 542.264C1543.52 541.676 1547.2 542.042 1552.24 544.766L1565.27 541.633L1575.11 544.272L1576.91 627.181C1574.5 634.566 1572.64 638.036 1561.41 633.722C1552.89 635.02 1551.28 633.391 1549 630.049C1551.02 639.1 1545.67 637.207 1538.06 635.904C1526.9 635.411 1521.74 634.397 1518.7 628.439C1506.71 631.686 1499.99 633.791 1487.96 623.819C1468.28 622.86 1463.03 620.048 1457.61 613.488C1441.73 617.864 1436.88 615.374 1430.66 607.947C1419.47 609.892 1413.86 608.788 1404.29 605.414C1399.92 608.385 1395.84 608.67 1386.54 607.475C1383.45 615.51 1378.49 617.131 1364.59 615.498C1360.34 622.091 1356.64 621.349 1349.8 619.256C1350.24 622.314 1350.15 623.937 1341.39 624.47C1336.59 627.731 1333.87 627.15 1328.99 621.383C1323.53 626.644 1318.17 626.226 1307.3 623.529C1297.6 628.086 1294.06 625.168 1286.93 622.292C1280.97 621.204 1277.75 620.535 1281.68 614.521C1276.16 616.915 1272.98 617.55 1266.81 614.843C1260.79 611.37 1259.04 609.643 1259.78 607.362C1259.07 609.558 1257.46 609.094 1251.8 608.709C1244.91 614.88 1241.98 612.461 1236.11 612.151C1227.32 614.6 1225.22 612.943 1222.06 609.351C1219.93 618.267 1214.51 619.954 1202.36 621.016C1196.68 623.567 1193.59 622.923 1188.21 619.309C1186.36 624.971 1183.59 626.134 1175.61 624.697C1166.18 626.782 1161.76 627.017 1159.02 621.952C1156.03 626.364 1153.51 626.542 1148.41 625.284C1143.5 627.285 1140.74 628.335 1136.05 623.874C1120.93 624.528 1119.94 621.31 1120.09 614.658C1108.27 611.754 1106.62 608.87 1109.65 602.219C1098.53 597.434 1099.81 595.32 1103.95 591.69C1106.54 585.709 1102.9 581.92 1115.97 576.837C1116.9 572.445 1114.8 568.937 1131.09 570.64C1130.2 564.437 1130.92 561.682 1141.07 562.037C1151.45 558.553 1157.14 554.949 1168.27 561.449C1181.84 559.398 1186.56 561.387 1190.94 569.346Z" fill="#8EC374"/>
</g>
<g filter="url(#filter7_f_18_527)">
<circle cx="740.5" cy="589.5" r="23.5" fill="#FFF4D1"/>
</g>
<mask id="mask3_18_527" style="mask-type:alpha" maskUnits="userSpaceOnUse" x="0" y="594" width="1438" height="494">
<rect y="594" width="1438" height="494" fill="url(#paint11_radial_18_527)"/>
</mask>
<g mask="url(#mask3_18_527)">
<rect x="6" y="594" width="1438" height="494" fill="url(#paint12_radial_18_527)"/>
<g style="mix-blend-mode:color-burn" opacity="0.5">
<path d="M971.884 670.026C1036.99 672.261 1335.6 691.39 1440 682.792V607C1283.96 607.798 966.562 611.308 945.271 618.967C918.657 628.541 1153.9 618.967 1094.5 628.275C1035.09 637.582 646.342 641.04 792.717 644.763C939.093 648.486 1027.01 639.444 957.627 649.549C888.242 659.655 816.955 664.709 971.884 670.026Z" fill="url(#paint13_linear_18_527)"/>
</g>
<g style="mix-blend-mode:color-burn" opacity="0.5">
<path d="M534.747 1006.03C660.656 1011.85 1238.12 1061.63 1440 1039.25V842C1138.25 844.076 524.454 853.212 483.281 873.145C431.815 898.061 886.739 873.145 771.859 897.369C656.979 921.593 -94.794 930.59 188.27 940.28C471.334 949.969 641.356 926.438 507.176 952.738C372.996 979.038 235.14 992.191 534.747 1006.03Z" fill="url(#paint14_linear_18_527)"/>
</g>
<g style="mix-blend-mode:color-burn" opacity="0.5">
<path d="M468.116 750.924C403.007 754.218 104.395 782.421 0 769.744V658C156.039 659.176 473.438 664.352 494.729 675.644C521.343 689.759 286.097 675.644 345.503 689.367C404.908 703.089 793.658 708.187 647.283 713.676C500.907 719.165 412.987 705.834 482.373 720.733C551.758 735.632 623.045 743.084 468.116 750.924Z" fill="url(#paint15_linear_18_527)"/>
</g>
<g style="mix-blend-mode:color-burn" opacity="0.5">
<path d="M453 861.5C430.212 863.477 366.538 873.653 330 866.046V799C339 751 433.548 768.725 441 775.5C450.315 783.969 355.208 790.766 376 799C396.792 807.234 492.231 815.707 441 819C389.769 822.294 408.715 828.061 433 837C457.285 845.94 507.225 856.796 453 861.5Z" fill="url(#paint16_linear_18_527)"/>
</g>
<path d="M984.604 708.499C1205.56 631.172 982.873 599.947 843.909 594H684.329C847.371 597.135 1141.73 615.927 1043.15 666.008C919.922 728.609 843.909 708.499 804.25 721.473C764.591 734.448 423.713 716.608 329.287 751.963C234.861 787.318 263.661 853.488 311.818 898.25C359.975 943.011 593.208 924.198 636.172 944.309C679.135 964.419 843.909 973.825 969.024 976.096C1069.12 977.912 1100.12 1051.46 1103.11 1088H1376C1366.56 1064.39 1328.63 1029.51 1310.85 1015.02C1284.78 983.88 1151.11 954.904 1087.53 944.309L716.906 912.521L490.283 881.707C175.656 796.855 416.474 759.856 576.211 751.963C695.66 750.125 944.567 738.859 984.604 708.499Z" fill="#B5DAB1"/>
<g style="mix-blend-mode:soft-light" opacity="0.75" filter="url(#filter8_f_18_527)">
<path d="M706.247 594H769.726L1438 1088H-41L706.247 594Z" fill="url(#paint17_linear_18_527)"/>
</g>
<g style="mix-blend-mode:color-burn">
<path d="M182.114 714.851C189.38 724.31 217.136 737.948 253.435 739.46C278.628 740.511 318.662 747.178 356.645 731.735C388.113 718.941 163.504 690.621 182.114 714.851Z" fill="url(#paint18_linear_18_527)"/>
</g>
<g style="mix-blend-mode:color-burn">
<path d="M322.731 639.793C326.698 644.323 341.507 650.567 360.624 650.707C373.891 650.804 395.051 653.416 414.793 645.193C431.149 638.38 312.569 628.191 322.731 639.793Z" fill="url(#paint19_linear_18_527)"/>
</g>
<g style="mix-blend-mode:color-burn">
<path d="M1141.98 642.857C1155.44 653.334 1204.27 665.642 1266.24 661.631C1309.26 658.848 1378.19 660.583 1441.08 635.414C1493.19 614.561 1107.51 616.021 1141.98 642.857Z" fill="url(#paint20_linear_18_527)"/>
</g>
<g style="mix-blend-mode:color-burn">
<path d="M1091.96 759.585C1086.04 751.698 1071.43 742.6 1058.13 745.958C1048.9 748.288 1032.46 747.32 1024.6 766.746C1018.08 782.841 1107.11 779.785 1091.96 759.585Z" fill="url(#paint21_linear_18_527)"/>
</g>
<g style="mix-blend-mode:color-burn">
<path d="M1298.95 761.082C1290.79 749.914 1259.57 733.764 1218.69 731.876C1190.32 730.565 1145.24 722.593 1102.42 740.678C1066.94 755.663 1319.85 789.688 1298.95 761.082Z" fill="url(#paint22_linear_18_527)"/>
</g>
<g opacity="0.75" filter="url(#filter9_f_18_527)">
<path d="M264.819 696.218L264.17 697.5C264.07 697.698 263.869 697.826 263.647 697.833L262.134 697.883C261.892 697.891 261.669 697.756 261.564 697.538L260.994 696.346C260.902 696.155 260.916 695.931 261.031 695.753L262.46 693.541C262.702 693.166 263.25 693.17 263.487 693.547L264.791 695.618C264.905 695.799 264.916 696.027 264.819 696.218Z" fill="#00455E"/>
<path d="M259.85 696.464L259.765 697.634C259.749 697.856 259.613 698.051 259.411 698.144L258.289 698.657C258.069 698.758 257.811 698.719 257.63 698.558L256.834 697.848C256.675 697.707 256.602 697.494 256.639 697.286L257.018 695.171C257.097 694.732 257.604 694.523 257.968 694.78L259.592 695.921C259.768 696.045 259.865 696.251 259.85 696.464Z" fill="#00455E"/>
<path d="M256.034 698.55L256.153 699.282C256.189 699.501 256.102 699.723 255.926 699.86L255.314 700.337C255.123 700.486 254.863 700.508 254.65 700.393L254.076 700.083C253.889 699.982 253.768 699.792 253.757 699.581L253.681 698.224C253.656 697.78 254.101 697.459 254.515 697.625L255.659 698.081C255.858 698.16 256 698.338 256.034 698.55Z" fill="#00455E"/>
<path d="M270.451 698.199L270.344 698.933C270.312 699.154 270.402 699.374 270.58 699.508L271.199 699.976C271.392 700.121 271.653 700.139 271.864 700.021L272.434 699.702C272.618 699.598 272.736 699.406 272.745 699.195L272.799 697.837C272.817 697.392 272.366 697.079 271.955 697.251L270.819 697.725C270.621 697.808 270.482 697.988 270.451 698.199Z" fill="#00455E"/>
<path d="M273.297 700.193L273.068 700.664C272.971 700.864 272.99 701.101 273.119 701.283L273.434 701.727C273.574 701.925 273.817 702.021 274.054 701.972L274.488 701.883C274.695 701.84 274.866 701.693 274.938 701.494L275.265 700.593C275.417 700.174 275.082 699.739 274.639 699.778L273.792 699.853C273.579 699.871 273.391 700 273.297 700.193Z" fill="#00455E"/>
<path d="M253.477 700.6L253.706 701.07C253.803 701.271 253.784 701.508 253.655 701.689L253.34 702.134C253.2 702.331 252.957 702.427 252.72 702.379L252.286 702.29C252.079 702.247 251.908 702.1 251.836 701.901L251.509 701C251.357 700.581 251.692 700.146 252.135 700.185L252.982 700.259C253.195 700.278 253.383 700.407 253.477 700.6Z" fill="#00455E"/>
<path d="M266.186 696.509L266.386 697.664C266.424 697.884 266.579 698.065 266.789 698.137L267.956 698.536C268.185 698.615 268.439 698.55 268.602 698.372L269.324 697.587C269.468 697.431 269.52 697.212 269.462 697.008L268.875 694.941C268.754 694.512 268.228 694.355 267.891 694.646L266.388 695.944C266.226 696.083 266.149 696.298 266.186 696.509Z" fill="#00455E"/>
<path d="M261.937 709.71C262.443 708.878 262.519 708.041 262.461 706.94C262.428 706.33 262.074 705.765 261.503 705.545C260.531 705.171 259.805 705.225 259.044 705.659C258.223 706.127 258.196 707.256 258.633 708.094C258.925 708.655 259.172 709.295 259.153 709.833C259.151 709.908 259.145 709.984 259.138 710.06C259.014 711.263 259.757 712.613 260.966 712.613H261.392C261.957 712.613 262.531 712.335 262.252 711.843C261.896 711.217 261.563 710.326 261.937 709.71Z" fill="#00455E"/>
<path d="M276.752 708.483C276.616 708.275 276.511 708.021 276.429 707.752C276.141 706.811 275.123 706.138 274.228 706.546C273.682 706.795 273.364 707.375 273.512 707.956C273.682 708.621 273.966 709.469 274.395 710.001C274.677 710.351 274.994 710.721 275.272 711.039C275.698 711.526 276.414 711.617 276.957 711.267C277.649 710.822 277.773 709.86 277.272 709.208C277.091 708.973 276.911 708.725 276.752 708.483Z" fill="#00455E"/>
<path d="M241.85 705.617C241.959 705.96 242.121 706.282 242.353 706.612C242.486 706.802 242.726 706.88 242.952 706.826C243.461 706.704 243.591 706.02 243.226 705.644C243.122 705.538 243.026 705.43 242.936 705.32C242.527 704.819 241.653 705.001 241.85 705.617Z" fill="#00455E"/>
<path d="M238.576 705.988C238.549 706.27 238.579 706.556 238.697 706.89C238.747 707.03 238.884 707.118 239.033 707.118C239.433 707.118 239.632 706.428 239.43 706.083C239.413 706.054 239.397 706.024 239.381 705.995C239.194 705.635 238.615 705.585 238.576 705.988Z" fill="#00455E"/>
<path d="M280.458 701.29C282.491 699.868 283.236 701.623 286.217 702.985C287.165 703.418 287.661 703.122 287.979 704.115C288.345 705.257 287.573 706.351 285.946 706.418C284.32 706.486 283.507 706.847 281.203 706.576C278.9 706.305 277.951 705.966 273.615 708.27C269.278 710.574 256.608 709.421 251.933 707.185C248.748 707.524 236.485 708.134 235.943 707.185C235.401 706.237 247.234 708.27 253.559 701.29C259.885 694.311 271.379 698.241 273.615 701.29C275.851 704.339 278.425 702.713 280.458 701.29Z" fill="#00455E"/>
<path fill-rule="evenodd" clip-rule="evenodd" d="M253.318 707.741C255 707.066 258.883 706.593 263.405 706.593C268.559 706.593 272.883 707.207 274.063 708.035C273.918 708.11 273.768 708.188 273.615 708.27C269.654 710.374 258.742 709.595 253.318 707.741Z" fill="#00455E"/>
<path d="M272.839 710.252C272.835 709.575 273.065 708.782 273.325 708.102C273.628 707.313 273.174 706.379 272.34 706.239L271.312 706.067C270.746 705.972 270.191 706.286 270.018 706.834C269.729 707.752 269.364 709.173 269.464 710.252C269.558 711.268 270.117 712.533 270.485 713.275C270.68 713.667 271.084 713.9 271.521 713.9H271.961C272.895 713.9 273.505 712.875 273.198 711.992C272.999 711.418 272.843 710.797 272.839 710.252Z" fill="#00455E"/>
<path d="M255.967 710.681C256.897 709.874 257.286 708.888 257.637 707.503C257.787 706.911 257.623 706.272 257.159 705.874C256.018 704.894 255.062 704.704 253.825 705.057C252.918 705.315 252.536 706.352 252.726 707.276C252.896 708.108 252.996 709.094 252.743 709.797C252.7 709.917 252.65 710.036 252.595 710.155C251.998 711.428 252.352 713.187 253.691 713.618L254.272 713.804C254.92 714.013 255.681 713.904 255.542 713.237C255.365 712.389 255.313 711.248 255.967 710.681Z" fill="#00455E"/>
<path d="M325.75 718.153L325.102 719.435C325.001 719.633 324.8 719.761 324.578 719.769L323.065 719.819C322.823 719.827 322.6 719.691 322.495 719.473L321.925 718.282C321.833 718.091 321.848 717.866 321.963 717.688L323.391 715.476C323.633 715.102 324.181 715.105 324.419 715.482L325.722 717.553C325.836 717.734 325.847 717.962 325.75 718.153Z" fill="#00455E"/>
<path d="M320.781 718.399L320.696 719.569C320.68 719.791 320.545 719.986 320.342 720.079L319.22 720.592C319.001 720.693 318.742 720.654 318.561 720.493L317.765 719.783C317.607 719.643 317.533 719.43 317.571 719.221L317.949 717.106C318.028 716.667 318.535 716.459 318.9 716.715L320.524 717.857C320.699 717.98 320.797 718.186 320.781 718.399Z" fill="#00455E"/>
<path d="M316.966 720.485L317.084 721.217C317.12 721.437 317.033 721.658 316.858 721.795L316.245 722.272C316.055 722.421 315.794 722.443 315.581 722.328L315.007 722.018C314.821 721.918 314.7 721.727 314.688 721.516L314.612 720.16C314.587 719.715 315.033 719.395 315.446 719.56L316.59 720.016C316.789 720.096 316.932 720.274 316.966 720.485Z" fill="#00455E"/>
<path d="M331.382 720.135L331.275 720.869C331.243 721.089 331.333 721.309 331.511 721.443L332.131 721.911C332.324 722.056 332.584 722.074 332.795 721.956L333.365 721.637C333.549 721.534 333.667 721.341 333.676 721.13L333.73 719.773C333.748 719.327 333.298 719.014 332.886 719.186L331.75 719.66C331.553 719.743 331.413 719.923 331.382 720.135Z" fill="#00455E"/>
<path d="M334.229 722.128L334 722.599C333.902 722.799 333.922 723.036 334.05 723.218L334.365 723.663C334.505 723.86 334.748 723.956 334.985 723.907L335.419 723.818C335.627 723.776 335.797 723.628 335.869 723.429L336.196 722.528C336.348 722.11 336.014 721.675 335.57 721.714L334.723 721.788C334.51 721.807 334.322 721.936 334.229 722.128Z" fill="#00455E"/>
<path d="M314.408 722.535L314.637 723.006C314.734 723.206 314.715 723.443 314.586 723.625L314.271 724.069C314.132 724.267 313.888 724.363 313.651 724.314L313.218 724.225C313.01 724.182 312.84 724.035 312.767 723.836L312.441 722.935C312.289 722.516 312.623 722.081 313.067 722.12L313.913 722.195C314.127 722.213 314.314 722.343 314.408 722.535Z" fill="#00455E"/>
<path d="M327.117 718.444L327.318 719.6C327.356 719.819 327.51 720 327.721 720.072L328.888 720.472C329.117 720.55 329.37 720.486 329.534 720.308L330.256 719.522C330.399 719.366 330.451 719.147 330.393 718.943L329.807 716.876C329.685 716.448 329.16 716.29 328.822 716.582L327.319 717.879C327.157 718.019 327.081 718.233 327.117 718.444Z" fill="#00455E"/>
<path d="M322.869 731.646C323.374 730.813 323.451 729.976 323.392 728.876C323.36 728.265 323.005 727.7 322.435 727.481C321.463 727.106 320.736 727.16 319.976 727.594C319.154 728.062 319.128 729.191 319.564 730.029C319.857 730.591 320.103 731.23 320.085 731.768C320.082 731.843 320.077 731.919 320.069 731.996C319.945 733.199 320.688 734.549 321.897 734.549H322.324C322.889 734.549 323.462 734.27 323.183 733.778C322.827 733.152 322.495 732.261 322.869 731.646Z" fill="#00455E"/>
<path d="M337.684 730.418C337.548 730.21 337.442 729.956 337.36 729.687C337.073 728.747 336.054 728.073 335.159 728.481C334.614 728.73 334.295 729.31 334.444 729.891C334.614 730.556 334.897 731.404 335.326 731.936C335.608 732.286 335.925 732.656 336.204 732.975C336.629 733.461 337.345 733.553 337.889 733.203C338.58 732.757 338.704 731.795 338.203 731.143C338.023 730.908 337.842 730.66 337.684 730.418Z" fill="#00455E"/>
<path d="M302.781 727.553C302.89 727.896 303.052 728.217 303.284 728.547C303.418 728.737 303.658 728.815 303.883 728.761C304.393 728.639 304.523 727.955 304.157 727.579C304.054 727.473 303.958 727.366 303.868 727.255C303.459 726.754 302.585 726.936 302.781 727.553Z" fill="#00455E"/>
<path d="M299.507 727.924C299.48 728.205 299.511 728.492 299.629 728.825C299.678 728.966 299.816 729.053 299.965 729.053C300.365 729.053 300.563 728.364 300.361 728.018C300.344 727.989 300.328 727.96 300.313 727.93C300.126 727.571 299.547 727.52 299.507 727.924Z" fill="#00455E"/>
<path d="M341.39 723.226C343.422 721.803 344.168 723.558 347.149 724.92C348.097 725.354 348.592 725.057 348.91 726.05C349.277 727.193 348.504 728.286 346.878 728.354C345.252 728.422 344.438 728.782 342.135 728.511C339.831 728.24 338.883 727.902 334.546 730.205C330.21 732.509 317.54 731.357 312.864 729.121C309.68 729.459 297.416 730.069 296.874 729.121C296.332 728.172 308.165 730.205 314.49 723.226C320.816 716.246 332.31 720.177 334.546 723.226C336.782 726.275 339.357 724.648 341.39 723.226Z" fill="#00455E"/>
<path fill-rule="evenodd" clip-rule="evenodd" d="M314.25 729.676C315.931 729.001 319.814 728.528 324.337 728.528C329.491 728.528 333.815 729.142 334.995 729.97C334.849 730.045 334.7 730.124 334.546 730.205C330.586 732.309 319.674 731.53 314.25 729.676Z" fill="#00455E"/>
<path d="M333.771 732.187C333.767 731.511 333.996 730.718 334.257 730.037C334.559 729.248 334.105 728.314 333.272 728.175L332.243 728.003C331.677 727.908 331.122 728.222 330.95 728.769C330.66 729.688 330.295 731.108 330.395 732.187C330.49 733.204 331.048 734.469 331.417 735.211C331.611 735.602 332.015 735.836 332.452 735.836H332.892C333.826 735.836 334.436 734.81 334.129 733.928C333.93 733.354 333.774 732.732 333.771 732.187Z" fill="#00455E"/>
<path d="M316.898 732.616C317.828 731.809 318.218 730.823 318.569 729.439C318.719 728.846 318.554 728.207 318.091 727.809C316.95 726.829 315.994 726.639 314.756 726.992C313.849 727.251 313.468 728.287 313.657 729.211C313.828 730.043 313.927 731.029 313.675 731.732C313.631 731.852 313.581 731.972 313.526 732.09C312.93 733.363 313.284 735.123 314.622 735.553L315.203 735.74C315.852 735.948 316.612 735.839 316.473 735.173C316.296 734.325 316.244 733.184 316.898 732.616Z" fill="#00455E"/>
<path d="M289.103 708.979L288.673 709.829C288.606 709.961 288.473 710.046 288.325 710.051L287.322 710.084C287.162 710.089 287.014 709.999 286.944 709.855L286.566 709.065C286.505 708.938 286.515 708.789 286.591 708.671L287.538 707.204C287.699 706.956 288.062 706.958 288.22 707.208L289.084 708.582C289.16 708.702 289.167 708.853 289.103 708.979Z" fill="#00455E"/>
<path d="M285.807 709.143L285.751 709.918C285.741 710.065 285.651 710.195 285.516 710.257L284.772 710.597C284.627 710.664 284.455 710.638 284.336 710.531L283.807 710.061C283.702 709.967 283.654 709.826 283.678 709.688L283.93 708.285C283.982 707.994 284.318 707.856 284.56 708.026L285.637 708.783C285.753 708.865 285.818 709.001 285.807 709.143Z" fill="#00455E"/>
<path d="M283.277 710.526L283.356 711.011C283.38 711.157 283.322 711.304 283.206 711.395L282.8 711.711C282.673 711.81 282.5 711.824 282.359 711.748L281.978 711.543C281.855 711.476 281.775 711.35 281.767 711.21L281.717 710.31C281.7 710.015 281.996 709.803 282.27 709.912L283.028 710.215C283.16 710.268 283.255 710.386 283.277 710.526Z" fill="#00455E"/>
<path d="M292.837 710.294L292.766 710.78C292.745 710.926 292.805 711.072 292.923 711.161L293.334 711.471C293.462 711.568 293.635 711.58 293.775 711.501L294.152 711.29C294.275 711.221 294.353 711.094 294.358 710.954L294.394 710.053C294.406 709.758 294.108 709.551 293.835 709.664L293.081 709.979C292.95 710.034 292.858 710.153 292.837 710.294Z" fill="#00455E"/>
<path d="M294.725 711.615L294.573 711.928C294.508 712.06 294.521 712.218 294.607 712.338L294.815 712.633C294.908 712.764 295.069 712.828 295.227 712.795L295.514 712.736C295.652 712.708 295.765 712.61 295.813 712.478L296.029 711.881C296.13 711.603 295.909 711.315 295.614 711.341L295.053 711.39C294.911 711.402 294.787 711.488 294.725 711.615Z" fill="#00455E"/>
<path d="M281.581 711.885L281.733 712.197C281.798 712.33 281.785 712.487 281.7 712.608L281.491 712.903C281.398 713.034 281.237 713.097 281.08 713.065L280.792 713.006C280.654 712.978 280.541 712.88 280.493 712.748L280.277 712.151C280.176 711.873 280.398 711.584 280.692 711.61L281.253 711.66C281.395 711.672 281.519 711.758 281.581 711.885Z" fill="#00455E"/>
<path d="M290.009 709.173L290.142 709.939C290.167 710.084 290.27 710.204 290.409 710.252L291.183 710.517C291.335 710.569 291.503 710.526 291.612 710.408L292.09 709.887C292.185 709.784 292.22 709.639 292.182 709.504L291.793 708.133C291.712 707.849 291.363 707.744 291.14 707.937L290.143 708.798C290.036 708.89 289.985 709.033 290.009 709.173Z" fill="#00455E"/>
<path d="M287.192 717.927C287.527 717.375 287.578 716.82 287.539 716.09C287.517 715.685 287.283 715.311 286.904 715.165C286.259 714.916 285.778 714.952 285.273 715.24C284.729 715.551 284.711 716.299 285.001 716.855C285.194 717.227 285.358 717.651 285.346 718.008C285.344 718.058 285.34 718.108 285.335 718.159C285.253 718.957 285.746 719.852 286.548 719.852H286.83C287.205 719.852 287.586 719.667 287.4 719.341C287.164 718.926 286.944 718.335 287.192 717.927Z" fill="#00455E"/>
<path d="M297.016 717.113C296.926 716.975 296.856 716.807 296.801 716.628C296.611 716.004 295.935 715.558 295.342 715.829C294.98 715.993 294.769 716.378 294.867 716.763C294.98 717.204 295.168 717.767 295.453 718.12C295.64 718.351 295.85 718.597 296.034 718.808C296.317 719.131 296.792 719.191 297.152 718.959C297.61 718.664 297.693 718.026 297.36 717.593C297.241 717.438 297.121 717.273 297.016 717.113Z" fill="#00455E"/>
<path d="M273.871 715.212C273.943 715.44 274.051 715.653 274.205 715.872C274.293 715.998 274.452 716.05 274.602 716.014C274.94 715.933 275.026 715.479 274.784 715.23C274.715 715.16 274.651 715.088 274.592 715.015C274.32 714.683 273.741 714.804 273.871 715.212Z" fill="#00455E"/>
<path d="M271.7 715.458C271.682 715.645 271.702 715.835 271.781 716.056C271.814 716.149 271.905 716.207 272.003 716.207C272.269 716.207 272.4 715.75 272.267 715.521C272.255 715.502 272.245 715.482 272.234 715.463C272.11 715.224 271.726 715.191 271.7 715.458Z" fill="#00455E"/>
<path d="M299.473 712.343C300.821 711.4 301.315 712.564 303.292 713.467C303.921 713.754 304.25 713.558 304.461 714.216C304.703 714.974 304.191 715.699 303.113 715.744C302.034 715.789 301.495 716.028 299.968 715.848C298.44 715.669 297.811 715.444 294.935 716.972C292.06 718.499 283.658 717.735 280.558 716.252C278.446 716.477 270.314 716.881 269.954 716.252C269.595 715.623 277.441 716.972 281.636 712.343C285.831 707.715 293.453 710.321 294.935 712.343C296.418 714.365 298.125 713.287 299.473 712.343Z" fill="#00455E"/>
<path fill-rule="evenodd" clip-rule="evenodd" d="M281.476 716.621C282.591 716.173 285.166 715.86 288.165 715.86C291.583 715.86 294.45 716.267 295.233 716.816C295.136 716.866 295.037 716.917 294.935 716.972C292.309 718.367 285.073 717.85 281.476 716.621Z" fill="#00455E"/>
<path d="M294.421 718.286C294.418 717.837 294.571 717.311 294.743 716.86C294.944 716.337 294.643 715.717 294.09 715.625L293.408 715.511C293.033 715.448 292.665 715.656 292.55 716.019C292.358 716.628 292.116 717.57 292.183 718.286C292.245 718.96 292.616 719.799 292.86 720.291C292.989 720.55 293.257 720.705 293.547 720.705H293.838C294.458 720.705 294.862 720.025 294.659 719.44C294.527 719.06 294.423 718.647 294.421 718.286Z" fill="#00455E"/>
<path d="M283.233 718.57C283.849 718.035 284.108 717.381 284.34 716.463C284.44 716.071 284.331 715.646 284.024 715.383C283.267 714.733 282.633 714.607 281.812 714.841C281.211 715.012 280.958 715.7 281.084 716.312C281.197 716.864 281.263 717.518 281.095 717.984C281.066 718.064 281.033 718.143 280.997 718.221C280.601 719.066 280.836 720.232 281.723 720.518L282.109 720.642C282.539 720.78 283.043 720.707 282.951 720.265C282.834 719.703 282.799 718.947 283.233 718.57Z" fill="#00455E"/>
<path d="M221.95 699.786L221.21 701.248C221.096 701.474 220.867 701.62 220.613 701.629L218.888 701.686C218.612 701.695 218.357 701.54 218.238 701.291L217.588 699.933C217.483 699.715 217.5 699.459 217.631 699.256L219.26 696.733C219.535 696.307 220.161 696.31 220.431 696.74L221.918 699.102C222.048 699.309 222.06 699.568 221.95 699.786Z" fill="#00455E"/>
<path d="M216.283 700.067L216.187 701.401C216.168 701.654 216.013 701.877 215.783 701.982L214.504 702.568C214.253 702.683 213.958 702.638 213.752 702.455L212.844 701.645C212.663 701.485 212.579 701.242 212.622 701.004L213.054 698.592C213.144 698.092 213.722 697.854 214.138 698.146L215.99 699.448C216.19 699.589 216.301 699.824 216.283 700.067Z" fill="#00455E"/>
<path d="M211.932 702.445L212.068 703.28C212.108 703.531 212.009 703.783 211.809 703.939L211.111 704.484C210.893 704.653 210.596 704.678 210.354 704.547L209.699 704.194C209.486 704.079 209.348 703.862 209.335 703.621L209.249 702.075C209.22 701.567 209.728 701.202 210.2 701.39L211.504 701.911C211.731 702.002 211.893 702.204 211.932 702.445Z" fill="#00455E"/>
<path d="M228.372 702.046L228.25 702.883C228.213 703.134 228.317 703.385 228.519 703.538L229.226 704.072C229.446 704.238 229.743 704.258 229.984 704.123L230.633 703.759C230.844 703.641 230.978 703.422 230.988 703.181L231.05 701.633C231.07 701.126 230.557 700.769 230.088 700.964L228.792 701.505C228.567 701.599 228.407 701.805 228.372 702.046Z" fill="#00455E"/>
<path d="M231.619 704.319L231.357 704.856C231.246 705.084 231.268 705.355 231.415 705.562L231.774 706.069C231.934 706.294 232.211 706.404 232.481 706.348L232.976 706.247C233.213 706.198 233.407 706.03 233.489 705.803L233.862 704.776C234.035 704.298 233.654 703.802 233.148 703.847L232.183 703.931C231.939 703.953 231.725 704.1 231.619 704.319Z" fill="#00455E"/>
<path d="M209.016 704.783L209.277 705.32C209.388 705.548 209.366 705.819 209.219 706.026L208.86 706.533C208.7 706.758 208.423 706.867 208.153 706.812L207.658 706.71C207.421 706.662 207.227 706.494 207.145 706.267L206.772 705.239C206.599 704.762 206.98 704.266 207.486 704.31L208.451 704.395C208.695 704.416 208.909 704.564 209.016 704.783Z" fill="#00455E"/>
<path d="M223.509 700.118L223.737 701.436C223.781 701.686 223.957 701.892 224.197 701.975L225.528 702.43C225.789 702.52 226.078 702.446 226.264 702.243L227.088 701.348C227.251 701.17 227.311 700.92 227.245 700.688L226.576 698.33C226.437 697.842 225.838 697.662 225.453 697.994L223.739 699.474C223.555 699.633 223.467 699.878 223.509 700.118Z" fill="#00455E"/>
<path d="M218.664 715.173C219.241 714.223 219.327 713.269 219.261 712.014C219.224 711.317 218.82 710.673 218.169 710.423C217.06 709.996 216.232 710.058 215.365 710.552C214.428 711.086 214.397 712.373 214.896 713.329C215.229 713.969 215.51 714.698 215.489 715.312C215.486 715.398 215.48 715.485 215.471 715.572C215.33 716.943 216.177 718.483 217.556 718.483H218.042C218.687 718.483 219.341 718.165 219.022 717.605C218.617 716.89 218.237 715.875 218.664 715.173Z" fill="#00455E"/>
<path d="M235.558 713.772C235.403 713.535 235.283 713.246 235.189 712.94C234.862 711.866 233.7 711.099 232.68 711.564C232.057 711.848 231.695 712.509 231.864 713.172C232.057 713.93 232.381 714.897 232.87 715.504C233.192 715.903 233.553 716.325 233.871 716.688C234.356 717.243 235.173 717.347 235.792 716.948C236.581 716.44 236.722 715.343 236.151 714.599C235.945 714.332 235.739 714.049 235.558 713.772Z" fill="#00455E"/>
<path d="M195.756 710.505C195.881 710.896 196.066 711.263 196.33 711.64C196.483 711.856 196.756 711.945 197.014 711.883C197.595 711.744 197.743 710.964 197.326 710.536C197.208 710.415 197.098 710.292 196.996 710.166C196.529 709.595 195.533 709.802 195.756 710.505Z" fill="#00455E"/>
<path d="M192.023 710.928C191.992 711.249 192.027 711.576 192.162 711.957C192.218 712.117 192.375 712.216 192.545 712.216C193.001 712.216 193.227 711.43 192.997 711.036C192.978 711.003 192.959 710.969 192.942 710.935C192.728 710.526 192.068 710.468 192.023 710.928Z" fill="#00455E"/>
<path d="M239.784 705.571C242.102 703.949 242.952 705.95 246.352 707.504C247.433 707.998 247.998 707.66 248.361 708.792C248.779 710.095 247.898 711.342 246.043 711.419C244.189 711.496 243.261 711.908 240.634 711.599C238.007 711.289 236.926 710.903 231.981 713.53C227.035 716.157 212.587 714.843 207.255 712.293C203.624 712.68 189.639 713.375 189.02 712.293C188.402 711.212 201.896 713.53 209.11 705.571C216.323 697.612 229.431 702.094 231.981 705.571C234.53 709.048 237.466 707.194 239.784 705.571Z" fill="#00455E"/>
<path fill-rule="evenodd" clip-rule="evenodd" d="M208.835 712.927C210.752 712.157 215.181 711.618 220.338 711.618C226.215 711.618 231.146 712.318 232.492 713.262C232.326 713.348 232.156 713.437 231.98 713.53C227.464 715.93 215.02 715.041 208.835 712.927Z" fill="#00455E"/>
<path d="M231.096 715.79C231.091 715.019 231.353 714.114 231.65 713.338C231.995 712.438 231.478 711.373 230.527 711.214L229.354 711.018C228.709 710.91 228.076 711.268 227.879 711.892C227.549 712.939 227.133 714.56 227.247 715.79C227.355 716.949 227.991 718.392 228.412 719.238C228.633 719.684 229.094 719.95 229.592 719.95H230.094C231.159 719.95 231.855 718.781 231.505 717.775C231.278 717.121 231.1 716.412 231.096 715.79Z" fill="#00455E"/>
<path d="M211.855 716.28C212.916 715.36 213.36 714.235 213.76 712.656C213.932 711.981 213.744 711.252 213.215 710.798C211.914 709.68 210.824 709.464 209.413 709.866C208.378 710.161 207.944 711.343 208.16 712.397C208.354 713.345 208.467 714.47 208.179 715.272C208.13 715.408 208.073 715.545 208.01 715.68C207.33 717.132 207.734 719.138 209.26 719.628L209.923 719.842C210.662 720.079 211.529 719.955 211.371 719.195C211.169 718.228 211.109 716.927 211.855 716.28Z" fill="#00455E"/>
</g>
<g opacity="0.75" filter="url(#filter10_f_18_527)">
<path d="M1094.66 631.184L1095.04 631.937C1095.1 632.054 1095.22 632.129 1095.35 632.133L1096.24 632.163C1096.38 632.167 1096.51 632.088 1096.57 631.96L1096.91 631.26C1096.96 631.148 1096.95 631.015 1096.88 630.911L1096.04 629.611C1095.9 629.391 1095.58 629.393 1095.44 629.615L1094.68 630.832C1094.61 630.938 1094.6 631.072 1094.66 631.184Z" fill="#00455E"/>
<path d="M1097.58 631.329L1097.63 632.016C1097.64 632.146 1097.72 632.261 1097.84 632.316L1098.49 632.617C1098.62 632.676 1098.78 632.654 1098.88 632.559L1099.35 632.142C1099.44 632.059 1099.49 631.934 1099.46 631.812L1099.24 630.569C1099.2 630.311 1098.9 630.189 1098.68 630.339L1097.73 631.01C1097.63 631.082 1097.57 631.203 1097.58 631.329Z" fill="#00455E"/>
<path d="M1099.82 632.554L1099.75 632.984C1099.73 633.113 1099.78 633.243 1099.88 633.324L1100.24 633.604C1100.35 633.692 1100.51 633.705 1100.63 633.637L1100.97 633.455C1101.08 633.396 1101.15 633.284 1101.16 633.16L1101.2 632.363C1101.22 632.102 1100.96 631.914 1100.71 632.011L1100.04 632.279C1099.92 632.326 1099.84 632.43 1099.82 632.554Z" fill="#00455E"/>
<path d="M1091.35 632.348L1091.41 632.78C1091.43 632.909 1091.38 633.038 1091.27 633.117L1090.91 633.392C1090.8 633.477 1090.64 633.488 1090.52 633.418L1090.19 633.231C1090.08 633.17 1090.01 633.057 1090 632.933L1089.97 632.136C1089.96 631.874 1090.22 631.69 1090.47 631.791L1091.13 632.07C1091.25 632.118 1091.33 632.224 1091.35 632.348Z" fill="#00455E"/>
<path d="M1089.68 633.52L1089.81 633.796C1089.87 633.914 1089.86 634.053 1089.78 634.16L1089.6 634.421C1089.52 634.537 1089.37 634.593 1089.23 634.565L1088.98 634.512C1088.86 634.487 1088.76 634.401 1088.71 634.284L1088.52 633.755C1088.43 633.509 1088.63 633.253 1088.89 633.276L1089.39 633.32C1089.51 633.331 1089.62 633.407 1089.68 633.52Z" fill="#00455E"/>
<path d="M1101.32 633.758L1101.19 634.035C1101.13 634.153 1101.14 634.292 1101.22 634.399L1101.4 634.66C1101.48 634.776 1101.63 634.832 1101.77 634.804L1102.02 634.751C1102.14 634.726 1102.24 634.64 1102.29 634.523L1102.48 633.993C1102.57 633.747 1102.37 633.492 1102.11 633.515L1101.61 633.558C1101.49 633.569 1101.38 633.645 1101.32 633.758Z" fill="#00455E"/>
<path d="M1093.86 631.355L1093.74 632.034C1093.72 632.163 1093.62 632.269 1093.5 632.312L1092.82 632.546C1092.68 632.592 1092.53 632.555 1092.44 632.45L1092.01 631.989C1091.93 631.897 1091.9 631.768 1091.93 631.649L1092.28 630.434C1092.35 630.182 1092.66 630.09 1092.85 630.261L1093.74 631.023C1093.83 631.105 1093.88 631.231 1093.86 631.355Z" fill="#00455E"/>
<path d="M1096.35 639.111C1096.05 638.622 1096.01 638.13 1096.04 637.483C1096.06 637.125 1096.27 636.793 1096.61 636.664C1097.18 636.444 1097.6 636.476 1098.05 636.73C1098.53 637.006 1098.55 637.668 1098.29 638.161C1098.12 638.491 1097.98 638.866 1097.99 639.182C1097.99 639.227 1097.99 639.271 1098 639.316C1098.07 640.023 1097.63 640.816 1096.92 640.816H1096.67C1096.34 640.816 1096 640.652 1096.17 640.364C1096.38 639.996 1096.57 639.472 1096.35 639.111Z" fill="#00455E"/>
<path d="M1087.65 638.389C1087.73 638.267 1087.79 638.118 1087.84 637.96C1088.01 637.407 1088.61 637.012 1089.13 637.252C1089.45 637.398 1089.64 637.739 1089.55 638.08C1089.45 638.47 1089.29 638.969 1089.03 639.281C1088.87 639.487 1088.68 639.704 1088.52 639.892C1088.27 640.177 1087.85 640.231 1087.53 640.025C1087.12 639.764 1087.05 639.199 1087.34 638.815C1087.45 638.678 1087.56 638.532 1087.65 638.389Z" fill="#00455E"/>
<path d="M1108.15 636.706C1108.09 636.908 1107.99 637.097 1107.86 637.291C1107.78 637.402 1107.64 637.448 1107.51 637.416C1107.21 637.344 1107.13 636.942 1107.34 636.722C1107.41 636.659 1107.46 636.596 1107.51 636.532C1107.75 636.237 1108.27 636.344 1108.15 636.706Z" fill="#00455E"/>
<path d="M1110.08 636.924C1110.09 637.089 1110.07 637.258 1110 637.454C1109.98 637.536 1109.89 637.588 1109.81 637.588C1109.57 637.588 1109.46 637.183 1109.57 636.98C1109.58 636.963 1109.59 636.945 1109.6 636.928C1109.71 636.717 1110.05 636.687 1110.08 636.924Z" fill="#00455E"/>
<path d="M1085.47 634.164C1084.28 633.329 1083.84 634.36 1082.09 635.16C1081.53 635.414 1081.24 635.24 1081.05 635.824C1080.84 636.495 1081.29 637.137 1082.25 637.177C1083.2 637.217 1083.68 637.429 1085.03 637.27C1086.39 637.11 1086.94 636.911 1089.49 638.265C1092.04 639.618 1099.48 638.941 1102.23 637.628C1104.1 637.827 1111.3 638.185 1111.62 637.628C1111.94 637.07 1104.99 638.265 1101.27 634.164C1097.56 630.064 1090.8 632.373 1089.49 634.164C1088.18 635.956 1086.67 635 1085.47 634.164Z" fill="#00455E"/>
<path fill-rule="evenodd" clip-rule="evenodd" d="M1101.42 637.954C1100.43 637.557 1098.15 637.28 1095.49 637.28C1092.46 637.28 1089.92 637.64 1089.23 638.127C1089.31 638.171 1089.4 638.217 1089.49 638.265C1091.82 639.501 1098.23 639.043 1101.42 637.954Z" fill="#00455E"/>
<path d="M1089.95 639.429C1089.95 639.032 1089.81 638.566 1089.66 638.166C1089.48 637.702 1089.75 637.154 1090.24 637.072L1090.84 636.971C1091.18 636.915 1091.5 637.099 1091.6 637.421C1091.77 637.96 1091.99 638.795 1091.93 639.429C1091.87 640.026 1091.55 640.769 1091.33 641.205C1091.22 641.435 1090.98 641.572 1090.72 641.572H1090.46C1089.91 641.572 1089.56 640.97 1089.74 640.451C1089.85 640.114 1089.95 639.749 1089.95 639.429Z" fill="#00455E"/>
<path d="M1099.86 639.681C1099.31 639.207 1099.08 638.628 1098.88 637.814C1098.79 637.466 1098.89 637.091 1099.16 636.857C1099.83 636.281 1100.39 636.17 1101.12 636.377C1101.65 636.529 1101.87 637.138 1101.76 637.681C1101.66 638.169 1101.6 638.749 1101.75 639.162C1101.78 639.232 1101.81 639.302 1101.84 639.372C1102.19 640.12 1101.98 641.153 1101.2 641.406L1100.85 641.516C1100.47 641.639 1100.03 641.574 1100.11 641.183C1100.21 640.685 1100.24 640.015 1099.86 639.681Z" fill="#00455E"/>
</g>
<g opacity="0.75" filter="url(#filter11_f_18_527)">
<path d="M1051.48 753L1054.93 748.134C1055.45 747.408 1056.46 747.251 1057.17 747.787L1058.19 748.557C1058.9 749.089 1059.03 750.095 1058.48 750.791L1054.78 755.519C1054.24 756.217 1053.22 756.329 1052.54 755.767L1051.77 755.134C1051.13 754.608 1051 753.676 1051.48 753Z" fill="#00455E"/>
<path d="M1070.8 751.77L1069.44 751.718C1068.74 751.691 1068.11 752.131 1067.88 752.797L1066.91 755.712C1066.56 756.773 1067.39 757.855 1068.5 757.787L1069.43 757.731C1070 757.697 1070.5 757.365 1070.75 756.861L1072.15 754.054C1072.67 753.027 1071.95 751.813 1070.8 751.77Z" fill="#00455E"/>
<path d="M1080.48 748.357C1080.79 745.276 1079.45 743.875 1078.43 741.578C1075 733.859 1058.7 737.041 1056.92 740.69C1054 746.674 1053.33 749.347 1059.47 751.922C1065.16 754.308 1079.63 756.608 1080.48 748.357Z" fill="#00455E"/>
<path d="M1054.55 715.342C1055.33 726.611 1057.21 731.203 1060.68 739.353L1054.57 746.997C1051.22 736.646 1048.84 731.169 1050.73 717.385L1054.55 715.342Z" fill="#00455E"/>
<path fill-rule="evenodd" clip-rule="evenodd" d="M1054.53 747.143C1054.52 747.043 1054.52 746.941 1054.52 746.839C1054.26 746.041 1054 745.273 1053.76 744.527L1053.76 744.526C1050.91 735.859 1049.07 730.255 1050.63 718.123L1050.63 718.122L1051.51 718.185C1051.09 726.051 1056.11 744.087 1060.11 746.934C1061.44 747.884 1063.21 748.141 1065.01 748.403C1068.27 748.876 1071.64 749.366 1072.78 754.009C1067.6 754.553 1061.19 753.139 1058.14 751.479C1056.65 750.668 1055.67 749.819 1055.11 748.902L1054.53 747.143Z" fill="#00455E"/>
<path d="M1063.18 745.504L1061.68 745.262C1060.75 745.11 1059.89 745.815 1059.85 746.765L1059.47 757.695C1059.44 758.534 1060.07 759.25 1060.9 759.324L1062.1 759.429C1062.98 759.507 1063.76 758.842 1063.81 757.957L1064.5 747.164C1064.55 746.353 1063.98 745.635 1063.18 745.504Z" fill="#00455E"/>
<path d="M1074.99 751.064L1073.89 751.243C1073.07 751.378 1072.49 752.131 1072.58 752.961L1073.06 757.737C1073.16 758.701 1074.1 759.35 1075.03 759.105L1076.06 758.835C1076.81 758.64 1077.31 757.934 1077.24 757.166L1076.81 752.48C1076.73 751.567 1075.89 750.915 1074.99 751.064Z" fill="#00455E"/>
<path d="M1053.62 715.464C1053.62 716.962 1051.9 718.181 1049.77 718.186C1047.63 718.191 1045.64 717.659 1045.64 716.161C1045.63 714.663 1047.36 713.444 1049.49 713.439C1051.62 713.434 1053.62 713.966 1053.62 715.464Z" fill="#00455E"/>
<path d="M1054.55 715.342C1053.96 711.915 1051.01 710.792 1048.42 713.548L1053.02 716.289L1054.55 715.342Z" fill="#00455E"/>
<path d="M1095.42 753.266C1087.89 752.66 1083.12 750.52 1079.01 742.788C1078.76 742.319 1078.03 742.443 1077.97 742.97L1076.89 752.767C1076.87 752.983 1076.98 753.195 1077.18 753.293C1085.15 757.32 1089.46 756.242 1095.56 754.404C1096.13 754.23 1096.02 753.314 1095.42 753.266Z" fill="#00455E"/>
<path fill-rule="evenodd" clip-rule="evenodd" d="M1050.32 713.933C1050.38 713.746 1050.54 713.599 1050.73 713.503C1050.94 713.399 1051.2 713.348 1051.44 713.37C1051.69 713.392 1051.93 713.486 1052.09 713.68C1052.25 713.874 1052.33 714.159 1052.28 714.544C1052.27 714.578 1052.24 714.602 1052.21 714.597C1052.17 714.593 1052.15 714.561 1052.15 714.526C1052.2 714.167 1052.13 713.922 1051.99 713.761C1051.86 713.6 1051.65 713.515 1051.43 713.496C1051.27 713.482 1051.11 713.502 1050.96 713.549C1051.25 713.573 1051.5 713.802 1051.53 714.106C1051.57 714.453 1051.32 714.766 1050.98 714.807C1050.63 714.847 1050.32 714.599 1050.28 714.252C1050.26 714.14 1050.28 714.03 1050.32 713.933Z" fill="#00455E"/>
<path d="M1036.24 768.558L1036.52 765.688C1036.54 765.417 1036.77 765.211 1037.04 765.211H1038.1C1038.43 765.211 1038.68 765.507 1038.62 765.83L1038.11 768.7C1038.07 768.952 1037.85 769.135 1037.59 769.135H1036.77C1036.46 769.135 1036.22 768.867 1036.24 768.558Z" fill="#00455E"/>
<path d="M1046.33 766.556L1044.61 766.491C1044.18 766.474 1043.91 766.951 1044.15 767.308L1046.12 770.263C1046.22 770.419 1046.4 770.508 1046.59 770.496L1047.97 770.412C1048.36 770.389 1048.59 769.961 1048.39 769.622L1046.76 766.817C1046.67 766.661 1046.51 766.563 1046.33 766.556Z" fill="#00455E"/>
<path d="M1049.8 763.622C1049.07 761.66 1049.41 762.419 1048.81 761.052C1046.79 756.46 1037.17 758.353 1036.12 760.524C1034.4 764.083 1034 765.673 1037.63 767.205C1040.98 768.624 1051.54 768.241 1049.8 763.622Z" fill="#00455E"/>
<path d="M1032.14 745.314C1033.87 751.975 1035.51 754.514 1038.49 759.009L1035.69 764.268C1032.53 758.443 1030.49 755.428 1030.08 746.964L1032.14 745.314Z" fill="#00455E"/>
<path fill-rule="evenodd" clip-rule="evenodd" d="M1034.81 764.926C1034.8 764.866 1034.79 764.805 1034.78 764.743C1034.56 764.283 1034.34 763.839 1034.14 763.408C1031.72 758.404 1030.16 755.169 1030.12 747.719L1030.12 747.718L1030.66 747.685C1031.03 752.468 1035.52 762.954 1038.16 764.351C1039.05 764.817 1040.13 764.83 1041.24 764.843C1043.25 764.866 1045.32 764.891 1046.38 767.602C1043.3 768.348 1039.31 768.01 1037.34 767.253C1036.38 766.883 1035.72 766.45 1035.3 765.941L1034.81 764.926Z" fill="#00455E"/>
<path d="M1037.83 761.665L1036.08 761.382C1035.84 761.343 1035.61 761.469 1035.51 761.689L1032.2 769.198C1032.06 769.528 1032.28 769.903 1032.64 769.935L1034.16 770.069C1034.38 770.088 1034.58 769.97 1034.68 769.773L1038.22 762.413C1038.37 762.096 1038.18 761.722 1037.83 761.665Z" fill="#00455E"/>
<path d="M1045.22 764.309L1043.78 764.546C1043.57 764.58 1043.4 764.738 1043.35 764.946L1041.91 771.152C1041.82 771.537 1042.17 771.88 1042.56 771.78L1043.91 771.425C1044.1 771.376 1044.24 771.23 1044.29 771.043L1045.81 764.956C1045.91 764.589 1045.59 764.248 1045.22 764.309Z" fill="#00455E"/>
<path d="M1031.86 746.115C1031.87 747.027 1030.81 747.77 1029.51 747.773C1028.22 747.776 1027 747.452 1027 746.539C1027 745.627 1028.05 744.885 1029.35 744.882C1030.65 744.879 1031.86 745.202 1031.86 746.115Z" fill="#00455E"/>
<path d="M1032.2 745.588C1031.85 743.5 1029.99 743.34 1028.42 745.019L1031.27 746.165L1032.2 745.588Z" fill="#00455E"/>
<path d="M1057.5 767.931C1053.67 767.218 1050.8 765.321 1048.53 761.392C1048.26 760.932 1047.52 761.064 1047.47 761.591L1046.9 766.695C1046.88 766.912 1046.99 767.122 1047.19 767.22C1051.44 769.358 1054.33 769.654 1057.58 769.064C1058.17 768.957 1058.09 768.041 1057.5 767.931Z" fill="#00455E"/>
<path fill-rule="evenodd" clip-rule="evenodd" d="M1029.85 745.182C1029.89 745.069 1029.99 744.979 1030.1 744.92C1030.23 744.857 1030.39 744.826 1030.54 744.839C1030.69 744.852 1030.83 744.91 1030.93 745.028C1031.03 745.146 1031.08 745.32 1031.05 745.554C1031.04 745.575 1031.02 745.59 1031 745.587C1030.98 745.584 1030.97 745.564 1030.97 745.543C1031 745.325 1030.95 745.175 1030.87 745.078C1030.79 744.979 1030.66 744.928 1030.53 744.916C1030.43 744.907 1030.33 744.92 1030.24 744.948C1030.42 744.963 1030.57 745.102 1030.59 745.287C1030.62 745.499 1030.46 745.69 1030.25 745.714C1030.04 745.739 1029.85 745.588 1029.83 745.377C1029.82 745.308 1029.83 745.242 1029.85 745.182Z" fill="#00455E"/>
</g>
<g opacity="0.75" filter="url(#filter12_f_18_527)">
<path d="M1131.44 652.791C1131.61 650.65 1131.43 649.732 1130.04 649.164C1130.21 648.269 1131.66 648.053 1133.4 647.489C1128.99 647.566 1126.77 647.981 1125 651.954L1126.4 652.512C1127.89 652.38 1128.75 651.396 1129.2 652.791C1129.5 653.73 1130.04 654.355 1130.88 655.024C1132.53 656.342 1133.57 656.753 1135.64 656.698C1135.52 657.678 1135.1 658.045 1134.24 658.651L1135.08 659.768V658.93C1136.78 658.154 1137.23 657.191 1137.6 655.024V659.489L1136.76 662H1138.72V655.024L1140.68 658.651L1139.56 660.605H1141.8V658.093C1140.6 656.823 1140 656.077 1139.56 654.466C1141.63 654.682 1142.83 654.647 1145.16 653.628L1152.31 656.43C1147.7 652.725 1144.62 649.915 1139.28 647.489C1136.19 646.084 1134.47 647.661 1131.44 652.791Z" fill="#00455E"/>
</g>
<g opacity="0.75" filter="url(#filter13_f_18_527)">
<path d="M1167.4 663.247C1167.28 661.677 1167.41 661.003 1168.4 660.587C1168.28 659.93 1167.24 659.772 1166 659.359C1169.15 659.415 1170.74 659.72 1172 662.633L1171 663.042C1169.94 662.946 1169.32 662.224 1169 663.247C1168.78 663.935 1168.4 664.393 1167.8 664.884C1166.62 665.851 1165.88 666.152 1164.4 666.112C1164.48 666.831 1164.79 667.099 1165.4 667.544L1164.8 668.363V667.749C1163.58 667.179 1163.26 666.473 1163 664.884V668.158L1163.6 670H1162.2V664.884L1160.8 667.544L1161.6 668.977H1160V667.135C1160.86 666.204 1161.28 665.657 1161.6 664.475C1160.12 664.633 1159.26 664.608 1157.6 663.861L1152.49 665.915C1155.79 663.199 1157.99 661.138 1161.8 659.359C1164.01 658.328 1165.23 659.484 1167.4 663.247Z" fill="#00455E"/>
</g>
<g opacity="0.75" filter="url(#filter14_f_18_527)">
<path d="M217.34 762.494C217.083 759.353 217.362 758.007 219.44 757.173C219.185 755.861 217.011 755.544 214.4 754.718C221.019 754.831 224.351 755.44 227 761.266L224.9 762.085C222.668 761.891 221.372 760.448 220.7 762.494C220.248 763.87 219.44 764.787 218.18 765.768C215.698 767.702 214.149 768.304 211.04 768.224C211.213 769.662 211.855 770.199 213.14 771.089L211.88 772.726V771.498C209.327 770.359 208.654 768.946 208.1 765.768V772.317L209.36 776H206.42V765.768L203.48 771.089L205.16 773.954H201.8V770.27C203.598 768.407 204.498 767.313 205.16 764.95C202.05 765.267 200.255 765.216 196.76 763.722L186.028 767.83C192.95 762.397 197.57 758.276 205.58 754.718C210.22 752.657 212.789 754.969 217.34 762.494Z" fill="#00455E"/>
</g>
<g opacity="0.75" filter="url(#filter15_f_18_527)">
<path d="M391.404 625.727L394.838 629.346C394.079 632.302 393.464 633.771 392.077 636.096L388.424 630.575C390.1 628.777 390.63 627.693 391.404 625.727Z" fill="#00455E"/>
<path d="M379.655 632.796C381.692 630.861 385.155 630.252 388.778 630.49C392.401 630.729 392.464 632.796 392.464 632.796C392.464 632.796 392.475 635.14 391.943 636.5C391.047 638.79 388.87 639.521 386.556 640.354C383.58 641.426 380.332 641.037 378.662 638.351C377.384 636.297 377.618 634.732 379.655 632.796Z" fill="#00455E"/>
<path fill-rule="evenodd" clip-rule="evenodd" d="M386.377 630.463C386.917 630.438 387.468 630.435 388.024 630.453C388.205 631.058 388.372 631.849 388.255 632.457C388.179 632.856 388.076 632.858 387.831 632.863C387.755 632.864 387.665 632.866 387.558 632.88C386.645 633.001 386.421 631.53 386.377 630.463ZM381.326 631.638C380.945 631.83 380.589 632.047 380.259 632.29C380.424 632.676 380.936 633.728 381.616 633.75C381.984 633.762 382.021 633.721 382.149 633.577L382.149 633.577C382.178 633.544 382.212 633.506 382.256 633.462C382.748 632.968 381.82 632.06 381.326 631.638ZM384.449 630.664C383.872 630.76 383.315 630.889 382.787 631.053C383.159 631.858 383.844 633.233 384.215 633.328C384.742 633.463 385.022 633.362 385.29 632.98C385.482 632.704 384.854 631.376 384.449 630.664Z" fill="#00455E"/>
<path d="M379.453 639.344C380.799 640.792 381.355 631.938 379.857 632.628C378.359 633.318 375.817 633.436 375.817 633.436C375.817 633.436 373.823 633.796 373.174 632.796C372.585 631.887 372.653 631.652 373.275 631.147C374.619 630.058 377.801 629.5 377.197 629.211C376.423 628.841 372.838 629.501 371.929 630.002C371.047 630.488 370.331 630.977 370.094 631.955C369.76 633.336 370.33 634.328 371.626 635.102C374.267 636.68 378.106 637.897 379.453 639.344Z" fill="#00455E"/>
<path d="M393.236 632.965L391.64 634.377C391.64 634.377 391.854 635.524 392.391 635.929C392.858 636.282 393.846 636.282 393.846 636.282C393.846 636.282 393.888 636.997 394.131 637.24C394.198 637.308 394.198 637.301 394.328 637.165C394.451 637.035 394.5 636.563 394.703 636.576C394.873 636.588 394.933 636.89 395.073 636.988C395.266 637.121 395.225 637.089 395.278 637.035C395.687 636.626 395.623 636.018 395.278 635.553C394.931 635.084 393.846 635.647 393.846 635.129C393.846 634.612 393.761 633.57 393.236 632.965Z" fill="#00455E"/>
<path d="M388.4 641.86C388.869 641.254 388.852 639.97 388.85 639.885L388.85 639.876C388.776 638.27 387.419 638.703 386.484 638.922C385.274 639.206 386.786 641.11 386.338 642.1C386.251 642.292 386.03 642.461 385.85 642.575C385.691 642.674 385.577 642.838 385.581 643.025C385.591 643.451 385.662 644.215 386.027 644.593C386.387 644.967 386.718 645.265 387.227 645.164C387.5 645.109 387.697 645.044 387.844 644.808C388.144 644.328 386.867 644.281 386.892 643.716C386.906 643.397 387.054 643.235 387.243 642.978C387.486 642.648 388.148 642.184 388.4 641.86Z" fill="#00455E"/>
<path d="M387.17 645.179C387.214 645.009 387.276 644.946 387.439 644.893C387.68 645.052 387.801 645.143 387.826 645.331C387.555 645.354 387.416 645.296 387.17 645.179Z" fill="#00455E"/>
<path d="M387.691 644.96C387.671 644.855 387.721 644.79 387.826 644.674C388.028 644.812 388.124 644.892 388.112 645.061C387.955 645.099 387.862 645.065 387.691 644.96Z" fill="#00455E"/>
<path fill-rule="evenodd" clip-rule="evenodd" d="M381.922 640.716C383.364 641.077 384.997 640.916 386.556 640.354L386.734 640.29C388.98 639.482 391.069 638.731 391.943 636.5C391.992 636.372 392.038 636.236 392.078 636.094C393.036 634.489 393.625 633.293 394.147 631.733C394.102 631.697 394.051 631.664 393.996 631.635C392.668 630.931 391.873 632.344 391.003 633.89C390.43 634.908 389.825 635.983 389.014 636.55C388.087 637.198 387.246 637.403 386.368 637.618C385.682 637.785 384.973 637.958 384.183 638.351C383.925 638.48 383.675 638.563 383.44 638.643C382.936 638.812 382.494 638.96 382.163 639.479C381.952 639.81 381.902 640.272 381.922 640.716Z" fill="#00455E"/>
<path d="M391.168 638.738C391.481 636.812 391.479 635.784 389.726 635.119C389.726 635.119 387.421 635.924 388.043 637.229C388.665 638.534 390.388 639.12 391.289 640.599C391.49 640.93 391.606 641.331 392.027 641.65C392.094 641.701 392.178 641.663 392.296 641.398C392.431 641.095 391.896 640.818 392.153 640.599C392.442 640.352 392.588 640.988 392.868 641.297C393.02 641.464 393.154 640.963 393.154 640.963C393.136 639.407 392.868 639.126 391.168 638.738Z" fill="#00455E"/>
<path d="M383.248 641.566C383.712 640.66 383.37 638.985 383.35 638.891L383.348 638.882C382.859 636.814 381.203 637.708 380.043 638.221C378.543 638.885 380.971 640.987 380.631 642.382C380.557 642.685 380.258 642.992 380.041 643.182C379.9 643.305 379.819 643.488 379.855 643.671C379.959 644.196 380.237 645.267 380.837 645.693C381.396 646.09 381.898 646.397 382.534 646.14C382.875 646.003 383.115 645.87 383.248 645.527C383.519 644.831 381.851 645.083 381.745 644.343C381.685 643.926 381.837 643.679 382.02 643.3C382.254 642.811 383.001 642.048 383.248 641.566Z" fill="#00455E"/>
<path d="M383.055 645.825C383.011 645.547 383.068 645.422 383.223 645.219C383.691 645.268 383.866 645.386 383.896 645.892C383.569 645.991 383.385 645.941 383.055 645.825Z" fill="#00455E"/>
<path d="M383.223 646.431C383.156 645.927 382.855 645.798 382.466 645.825L382.247 646.212C382.5 646.418 382.816 646.513 383.223 646.431Z" fill="#00455E"/>
<path d="M382.045 646.212C381.99 646.071 381.933 646.006 381.691 645.959C381.47 646.224 381.424 646.354 381.641 646.515C381.791 646.492 381.877 646.457 382.045 646.212Z" fill="#00455E"/>
<path d="M396.268 623.384C397.784 624.497 398.912 623.819 400.474 625.017C401.631 625.905 402.038 627.313 401.414 628.631C401.087 629.323 400.897 629.522 400.029 630.017C399.16 630.511 396.076 630.023 393.422 630.017C392.301 630.014 391.103 628.547 391.146 627.987C390.92 628.007 391.211 625.955 391.616 625.166C392.021 624.377 394.521 622.102 396.268 623.384Z" fill="#00455E"/>
<path d="M398.611 629.495C398.871 629.417 398.978 629.33 399.06 629.051L398.51 628.803C398.613 629.116 398.64 629.27 398.611 629.495Z" fill="#00455E"/>
<path d="M397.612 629.017C397.94 629.033 397.949 628.887 397.959 628.621L397.507 628.493C397.507 628.493 397.69 628.829 397.612 629.017Z" fill="#00455E"/>
<path d="M401.286 628.869C399.136 630.097 399.484 628.203 394.469 628.083" stroke="#78861C" stroke-width="0.303671" stroke-linecap="round"/>
<path fill-rule="evenodd" clip-rule="evenodd" d="M395.92 624.83C395.862 624.65 395.709 624.508 395.523 624.415C395.323 624.315 395.075 624.267 394.84 624.287C394.604 624.308 394.374 624.399 394.216 624.586C394.058 624.773 393.98 625.048 394.032 625.419C394.037 625.452 394.068 625.475 394.101 625.47C394.134 625.466 394.158 625.435 394.153 625.402C394.104 625.056 394.179 624.819 394.309 624.664C394.441 624.509 394.637 624.428 394.85 624.409C395.004 624.395 395.164 624.415 395.309 624.46C395.025 624.483 394.788 624.704 394.754 624.997C394.715 625.331 394.954 625.633 395.288 625.672C395.622 625.711 395.925 625.472 395.964 625.138C395.977 625.029 395.96 624.924 395.92 624.83Z" fill="#00455E"/>
</g>
</g>
<path d="M917.002 245.527C929.71 240.38 930.995 240.568 926.415 246.929H931.122L933.24 244.59H939.358C949.082 238.729 953.117 241.329 961.95 243.421C952.537 244.122 948.432 245.616 946.418 248.567L951.125 251.842L971.833 258.157L949.007 254.649C941.351 257.044 938.888 256.286 935.122 251.842C920.795 258.902 913.237 263.304 903.824 275C905.001 262.602 909.456 256.962 928.298 249.269H923.356C911.861 251.985 905.833 253.513 901 256.286C903.752 253.282 906.583 252.809 917.002 245.527Z" fill="#046C6B"/>
</g>
<defs>
<filter id="filter0_f_18_527" x="-10.1565" y="312.844" width="466.233" height="117.313" filterUnits="userSpaceOnUse" color-interpolation-filters="sRGB">
<feFlood flood-opacity="0" result="BackgroundImageFix"/>
<feBlend mode="normal" in="SourceGraphic" in2="BackgroundImageFix" result="shape"/>
<feGaussianBlur stdDeviation="1.07824" result="effect1_foregroundBlur_18_527"/>
</filter>
<filter id="filter1_f_18_527" x="806.023" y="172.023" width="643.649" height="161.954" filterUnits="userSpaceOnUse" color-interpolation-filters="sRGB">
<feFlood flood-opacity="0" result="BackgroundImageFix"/>
<feBlend mode="normal" in="SourceGraphic" in2="BackgroundImageFix" result="shape"/>
<feGaussianBlur stdDeviation="1.48855" result="effect1_foregroundBlur_18_527"/>
</filter>
<filter id="filter2_f_18_527" x="854.023" y="512.023" width="415.954" height="87.9542" filterUnits="userSpaceOnUse" color-interpolation-filters="sRGB">
<feFlood flood-opacity="0" result="BackgroundImageFix"/>
<feBlend mode="normal" in="SourceGraphic" in2="BackgroundImageFix" result="shape"/>
<feGaussianBlur stdDeviation="1.48855" result="effect1_foregroundBlur_18_527"/>
</filter>
<filter id="filter3_f_18_527" x="888" y="468" width="593" height="150" filterUnits="userSpaceOnUse" color-interpolation-filters="sRGB">
<feFlood flood-opacity="0" result="BackgroundImageFix"/>
<feBlend mode="normal" in="SourceGraphic" in2="BackgroundImageFix" result="shape"/>
<feGaussianBlur stdDeviation="2.5" result="effect1_foregroundBlur_18_527"/>
</filter>
<filter id="filter4_f_18_527" x="-14" y="462" width="579" height="144" filterUnits="userSpaceOnUse" color-interpolation-filters="sRGB">
<feFlood flood-opacity="0" result="BackgroundImageFix"/>
<feBlend mode="normal" in="SourceGraphic" in2="BackgroundImageFix" result="shape"/>
<feGaussianBlur stdDeviation="2.5" result="effect1_foregroundBlur_18_527"/>
</filter>
<filter id="filter5_f_18_527" x="-8.77026" y="535.336" width="398.002" height="116.557" filterUnits="userSpaceOnUse" color-interpolation-filters="sRGB">
<feFlood flood-opacity="0" result="BackgroundImageFix"/>
<feBlend mode="normal" in="SourceGraphic" in2="BackgroundImageFix" result="shape"/>
<feGaussianBlur stdDeviation="1.5" result="effect1_foregroundBlur_18_527"/>
</filter>
<filter id="filter6_f_18_527" x="1097.96" y="538.633" width="481.949" height="101.381" filterUnits="userSpaceOnUse" color-interpolation-filters="sRGB">
<feFlood flood-opacity="0" result="BackgroundImageFix"/>
<feBlend mode="normal" in="SourceGraphic" in2="BackgroundImageFix" result="shape"/>
<feGaussianBlur stdDeviation="1.5" result="effect1_foregroundBlur_18_527"/>
</filter>
<filter id="filter7_f_18_527" x="713" y="562" width="55" height="55" filterUnits="userSpaceOnUse" color-interpolation-filters="sRGB">
<feFlood flood-opacity="0" result="BackgroundImageFix"/>
<feBlend mode="normal" in="SourceGraphic" in2="BackgroundImageFix" result="shape"/>
<feGaussianBlur stdDeviation="2" result="effect1_foregroundBlur_18_527"/>
</filter>
<filter id="filter8_f_18_527" x="-91" y="544" width="1579" height="594" filterUnits="userSpaceOnUse" color-interpolation-filters="sRGB">
<feFlood flood-opacity="0" result="BackgroundImageFix"/>
<feBlend mode="normal" in="SourceGraphic" in2="BackgroundImageFix" result="shape"/>
<feGaussianBlur stdDeviation="25" result="effect1_foregroundBlur_18_527"/>
</filter>
<filter id="filter9_f_18_527" x="188.186" y="692.448" width="161.628" height="44.2012" filterUnits="userSpaceOnUse" color-interpolation-filters="sRGB">
<feFlood flood-opacity="0" result="BackgroundImageFix"/>
<feBlend mode="normal" in="SourceGraphic" in2="BackgroundImageFix" result="shape"/>
<feGaussianBlur stdDeviation="0.406927" result="effect1_foregroundBlur_18_527"/>
</filter>
<filter id="filter10_f_18_527" x="1079" y="627.448" width="34.6338" height="16.1248" filterUnits="userSpaceOnUse" color-interpolation-filters="sRGB">
<feFlood flood-opacity="0" result="BackgroundImageFix"/>
<feBlend mode="normal" in="SourceGraphic" in2="BackgroundImageFix" result="shape"/>
<feGaussianBlur stdDeviation="1" result="effect1_foregroundBlur_18_527"/>
</filter>
<filter id="filter11_f_18_527" x="1026" y="711" width="70.9355" height="61.7974" filterUnits="userSpaceOnUse" color-interpolation-filters="sRGB">
<feFlood flood-opacity="0" result="BackgroundImageFix"/>
<feBlend mode="normal" in="SourceGraphic" in2="BackgroundImageFix" result="shape"/>
<feGaussianBlur stdDeviation="0.5" result="effect1_foregroundBlur_18_527"/>
</filter>
<filter id="filter12_f_18_527" x="1123" y="645" width="32" height="19" filterUnits="userSpaceOnUse" color-interpolation-filters="sRGB">
<feFlood flood-opacity="0" result="BackgroundImageFix"/>
<feBlend mode="normal" in="SourceGraphic" in2="BackgroundImageFix" result="shape"/>
<feGaussianBlur stdDeviation="1" result="effect1_foregroundBlur_18_527"/>
</filter>
<filter id="filter13_f_18_527" x="1150" y="657" width="24" height="15" filterUnits="userSpaceOnUse" color-interpolation-filters="sRGB">
<feFlood flood-opacity="0" result="BackgroundImageFix"/>
<feBlend mode="normal" in="SourceGraphic" in2="BackgroundImageFix" result="shape"/>
<feGaussianBlur stdDeviation="1" result="effect1_foregroundBlur_18_527"/>
</filter>
<filter id="filter14_f_18_527" x="184" y="753" width="44" height="24" filterUnits="userSpaceOnUse" color-interpolation-filters="sRGB">
<feFlood flood-opacity="0" result="BackgroundImageFix"/>
<feBlend mode="normal" in="SourceGraphic" in2="BackgroundImageFix" result="shape"/>
<feGaussianBlur stdDeviation="0.5" result="effect1_foregroundBlur_18_527"/>
</filter>
<filter id="filter15_f_18_527" x="368" y="621" width="35.7053" height="27.5149" filterUnits="userSpaceOnUse" color-interpolation-filters="sRGB">
<feFlood flood-opacity="0" result="BackgroundImageFix"/>
<feBlend mode="normal" in="SourceGraphic" in2="BackgroundImageFix" result="shape"/>
<feGaussianBlur stdDeviation="1" result="effect1_foregroundBlur_18_527"/>
</filter>
<linearGradient id="paint0_linear_18_527" x1="222.744" y1="371.5" x2="222.744" y2="488.813" gradientUnits="userSpaceOnUse">
<stop stop-color="white"/>
<stop offset="1" stop-color="white" stop-opacity="0"/>
</linearGradient>
<linearGradient id="paint1_linear_18_527" x1="222.744" y1="371.5" x2="222.744" y2="488.813" gradientUnits="userSpaceOnUse">
<stop stop-color="white"/>
<stop offset="1" stop-color="white" stop-opacity="0"/>
</linearGradient>
<linearGradient id="paint2_linear_18_527" x1="190.828" y1="397.378" x2="190.828" y2="514.691" gradientUnits="userSpaceOnUse">
<stop stop-color="#AFFFF6"/>
<stop offset="1" stop-color="white" stop-opacity="0"/>
</linearGradient>
<linearGradient id="paint3_linear_18_527" x1="1127.55" y1="253" x2="1127.55" y2="414.954" gradientUnits="userSpaceOnUse">
<stop stop-color="white"/>
<stop offset="1" stop-color="white" stop-opacity="0"/>
</linearGradient>
<linearGradient id="paint4_linear_18_527" x1="1127.55" y1="253" x2="1127.55" y2="414.954" gradientUnits="userSpaceOnUse">
<stop stop-color="white"/>
<stop offset="1" stop-color="white" stop-opacity="0"/>
</linearGradient>
<linearGradient id="paint5_linear_18_527" x1="1083.49" y1="288.725" x2="1083.49" y2="450.679" gradientUnits="userSpaceOnUse">
<stop stop-color="#AFFFF6"/>
<stop offset="1" stop-color="white" stop-opacity="0"/>
</linearGradient>
<linearGradient id="paint6_linear_18_527" x1="1062.19" y1="556" x2="1062.19" y2="641.13" gradientUnits="userSpaceOnUse">
<stop stop-color="white"/>
<stop offset="1" stop-color="white" stop-opacity="0"/>
</linearGradient>
<linearGradient id="paint7_linear_18_527" x1="1062.19" y1="556" x2="1062.19" y2="641.13" gradientUnits="userSpaceOnUse">
<stop stop-color="white"/>
<stop offset="1" stop-color="white" stop-opacity="0"/>
</linearGradient>
<linearGradient id="paint8_linear_18_527" x1="1090.52" y1="574.779" x2="1090.52" y2="659.908" gradientUnits="userSpaceOnUse">
<stop stop-color="#AFFFF6"/>
<stop offset="1" stop-color="white" stop-opacity="0"/>
</linearGradient>
<radialGradient id="paint9_radial_18_527" cx="0" cy="0" r="1" gradientUnits="userSpaceOnUse" gradientTransform="translate(909.5 596.5) rotate(-7.73272) scale(397.616 1655.79)">
<stop stop-color="#F3CD81"/>
<stop offset="1" stop-color="#B3E7A9"/>
</radialGradient>
<radialGradient id="paint10_radial_18_527" cx="0" cy="0" r="1" gradientUnits="userSpaceOnUse" gradientTransform="translate(547 601) rotate(-169.598) scale(371.098 1575.78)">
<stop stop-color="#F3CD81"/>
<stop offset="1" stop-color="#B3E7A9"/>
</radialGradient>
<radialGradient id="paint11_radial_18_527" cx="0" cy="0" r="1" gradientUnits="userSpaceOnUse" gradientTransform="translate(738.931 411.327) rotate(90) scale(457.3 1331.17)">
<stop stop-color="#FFE24E"/>
<stop offset="1" stop-color="#8EC374"/>
</radialGradient>
<radialGradient id="paint12_radial_18_527" cx="0" cy="0" r="1" gradientUnits="userSpaceOnUse" gradientTransform="translate(744.931 411.327) rotate(90) scale(457.3 1331.17)">
<stop stop-color="#FFE24E"/>
<stop offset="1" stop-color="#8EC374"/>
</radialGradient>
<linearGradient id="paint13_linear_18_527" x1="1100" y1="685" x2="1100" y2="607" gradientUnits="userSpaceOnUse">
<stop stop-color="#E8CE9C"/>
<stop offset="1" stop-color="#DAAA84"/>
</linearGradient>
<linearGradient id="paint14_linear_18_527" x1="782.5" y1="1045" x2="782.5" y2="842" gradientUnits="userSpaceOnUse">
<stop stop-color="#E8CE9C"/>
<stop offset="1" stop-color="#DAAA84"/>
</linearGradient>
<linearGradient id="paint15_linear_18_527" x1="340" y1="773" x2="340" y2="658" gradientUnits="userSpaceOnUse">
<stop stop-color="#E8CE9C"/>
<stop offset="1" stop-color="#DAAA84"/>
</linearGradient>
<linearGradient id="paint16_linear_18_527" x1="449" y1="868" x2="449" y2="799" gradientUnits="userSpaceOnUse">
<stop stop-color="#E8CE9C"/>
<stop offset="1" stop-color="#DAAA84"/>
</linearGradient>
<linearGradient id="paint17_linear_18_527" x1="719.743" y1="594" x2="719.743" y2="1088" gradientUnits="userSpaceOnUse">
<stop stop-color="#FFF4D1"/>
<stop offset="1" stop-color="#FFF4D1" stop-opacity="0"/>
</linearGradient>
<linearGradient id="paint18_linear_18_527" x1="270.397" y1="741.859" x2="270.307" y2="705.221" gradientUnits="userSpaceOnUse">
<stop stop-color="#E8CE9C"/>
<stop offset="1" stop-color="#DAAA84"/>
</linearGradient>
<linearGradient id="paint19_linear_18_527" x1="369.583" y1="651.604" x2="368.972" y2="633.593" gradientUnits="userSpaceOnUse">
<stop stop-color="#E8CE9C"/>
<stop offset="1" stop-color="#DAAA84"/>
</linearGradient>
<linearGradient id="paint20_linear_18_527" x1="1295.4" y1="661.841" x2="1291.03" y2="616.723" gradientUnits="userSpaceOnUse">
<stop stop-color="#E8CE9C"/>
<stop offset="1" stop-color="#DAAA84"/>
</linearGradient>
<linearGradient id="paint21_linear_18_527" x1="1051.32" y1="745.946" x2="1064.38" y2="780.179" gradientUnits="userSpaceOnUse">
<stop stop-color="#E8CE9C"/>
<stop offset="1" stop-color="#DAAA84"/>
</linearGradient>
<linearGradient id="paint22_linear_18_527" x1="1199.59" y1="729" x2="1199.59" y2="772.173" gradientUnits="userSpaceOnUse">
<stop stop-color="#E8CE9C"/>
<stop offset="1" stop-color="#DAAA84"/>
</linearGradient>
<clipPath id="clip0_18_527">
<rect width="1440" height="1088" fill="white"/>
</clipPath>
</defs>
</svg>
