<svg width="1440" height="482" viewBox="0 0 1440 482" fill="none" xmlns="http://www.w3.org/2000/svg">
<g clip-path="url(#clip0_19_870)">
<g opacity="0.75" filter="url(#filter0_f_19_870)">
<mask id="mask0_19_870" style="mask-type:alpha" maskUnits="userSpaceOnUse" x="-8" y="140" width="462" height="113">
<path d="M364.967 202.4C384.501 198.954 415.517 221.165 421.126 231.761C426.736 242.356 450.341 234.489 453.478 239.257C455.088 241.702 452.22 248.647 446.153 253H-7.99991C-7.99991 253 10.9231 234.884 20.6899 235.509C30.4567 236.134 32.8982 234.884 36.5608 232.385C40.2234 229.887 44.4963 223.015 44.4963 218.018C44.4963 213.02 39.0025 206.773 44.4963 201.151C49.9901 195.529 58.536 183.66 58.536 183.66C80.9322 173.298 85.8435 180.754 96.9925 189.907C100.132 172.498 109.467 171.012 145.826 189.907C155.548 189.119 156.814 191.156 163.528 181.786C170.243 172.416 151.32 168.043 163.528 160.546C175.737 153.05 159.866 148.677 175.737 142.431C191.608 136.184 205.354 141.463 226.402 164.295C239.707 152.544 246.515 159.787 258.144 183.66C273.332 197.029 274.616 203.607 273.404 214.894C287.454 216.564 288.277 221.27 290.496 229.262C292.852 224.328 310.67 227.865 314.913 231.761C319.156 235.656 325.9 223.015 331.394 222.39C336.888 221.766 347.876 223.015 349.707 214.894C351.538 206.773 345.434 205.847 364.967 202.4Z" fill="url(#paint0_linear_19_870)"/>
</mask>
<g mask="url(#mask0_19_870)">
<path d="M364.967 202.4C384.501 198.954 415.517 221.165 421.126 231.761C426.736 242.356 450.341 234.489 453.478 239.257C455.088 241.702 452.22 248.647 446.153 253H-7.99991C-7.99991 253 10.9231 234.884 20.6899 235.509C30.4567 236.134 32.8982 234.884 36.5608 232.385C40.2234 229.887 44.4963 223.015 44.4963 218.018C44.4963 213.02 39.0025 206.773 44.4963 201.151C49.9901 195.529 58.536 183.66 58.536 183.66C80.9322 173.298 85.8435 180.754 96.9925 189.907C100.132 172.498 109.467 171.012 145.826 189.907C155.548 189.119 156.814 191.156 163.528 181.786C170.243 172.416 151.32 168.043 163.528 160.546C175.737 153.05 159.866 148.677 175.737 142.431C191.608 136.184 205.354 141.463 226.402 164.295C239.707 152.544 246.515 159.787 258.144 183.66C273.332 197.029 274.616 203.607 273.404 214.894C287.454 216.564 288.277 221.27 290.496 229.262C292.852 224.328 310.67 227.865 314.913 231.761C319.156 235.656 325.9 223.015 331.394 222.39C336.888 221.766 347.876 223.015 349.707 214.894C351.538 206.773 345.434 205.847 364.967 202.4Z" fill="url(#paint1_linear_19_870)"/>
<path d="M333.051 228.278C352.585 224.832 383.601 247.043 389.21 257.639C394.82 268.234 418.425 260.367 421.562 265.135C423.172 267.58 420.304 274.525 414.237 278.878H-39.916C-39.916 278.878 -20.9929 260.762 -11.2261 261.387C-1.45938 262.011 0.982208 260.762 4.64474 258.263C8.30731 255.765 12.5802 248.893 12.5802 243.895C12.5802 238.898 7.08643 232.651 12.5802 227.029C18.074 221.407 26.62 209.538 26.62 209.538C49.0161 199.176 53.9275 206.632 65.0765 215.785C68.2161 198.376 77.5506 196.89 113.91 215.785C123.632 214.997 124.898 217.034 131.612 207.664C138.327 198.294 119.404 193.921 131.612 186.424C143.821 178.928 127.95 174.555 143.821 168.308C159.692 162.062 173.438 167.341 194.486 190.173C207.791 178.422 214.599 185.665 226.228 209.538C241.416 222.907 242.7 229.485 241.488 240.772C255.538 242.442 256.361 247.147 258.58 255.14C260.936 250.206 278.754 253.743 282.997 257.639C287.24 261.534 293.984 248.893 299.478 248.268C304.972 247.644 315.96 248.893 317.791 240.772C319.622 232.651 313.518 231.725 333.051 228.278Z" fill="url(#paint2_linear_19_870)" fill-opacity="0.5"/>
</g>
</g>
<g opacity="0.75" filter="url(#filter1_f_19_870)">
<mask id="mask1_19_870" style="mask-type:alpha" maskUnits="userSpaceOnUse" x="808" y="0" width="639" height="156">
<path d="M1323.89 86.1457C1350.86 81.3877 1393.68 112.051 1401.42 126.678C1409.17 141.306 1441.75 130.445 1446.08 137.027C1448.31 140.403 1444.35 149.99 1435.97 156H809C809 156 835.123 130.99 848.607 131.853C862.09 132.715 865.461 130.99 870.517 127.541C875.573 124.091 881.472 114.605 881.472 107.706C881.472 100.806 873.888 92.1824 881.472 84.4209C889.057 76.6594 900.855 60.2738 900.855 60.2738C931.773 45.9688 938.553 56.2619 953.945 68.8978C958.279 44.8649 971.166 42.8129 1021.36 68.8978C1034.78 67.8103 1036.53 70.6228 1045.8 57.6868C1055.07 44.7509 1028.95 38.7139 1045.8 28.365C1062.65 18.0161 1040.74 11.9795 1062.65 3.35548C1084.56 -5.26851 1103.54 2.01916 1132.6 33.5395C1150.97 17.317 1160.36 27.3165 1176.42 60.2738C1197.39 78.7309 1199.16 87.8114 1197.49 103.394C1216.88 105.698 1218.02 112.195 1221.08 123.229C1224.34 116.417 1248.93 121.3 1254.79 126.678C1260.65 132.057 1269.96 114.605 1277.54 113.742C1285.13 112.88 1300.3 114.605 1302.82 103.394C1305.35 92.1825 1296.93 90.9038 1323.89 86.1457Z" fill="url(#paint3_linear_19_870)"/>
</mask>
<g mask="url(#mask1_19_870)">
<path d="M1323.89 86.1457C1350.86 81.3877 1393.68 112.051 1401.42 126.678C1409.17 141.306 1441.75 130.445 1446.08 137.027C1448.31 140.403 1444.35 149.99 1435.97 156H809C809 156 835.123 130.99 848.607 131.853C862.09 132.715 865.461 130.99 870.517 127.541C875.573 124.091 881.472 114.605 881.472 107.706C881.472 100.806 873.888 92.1824 881.472 84.4209C889.057 76.6594 900.855 60.2738 900.855 60.2738C931.773 45.9688 938.553 56.2619 953.945 68.8978C958.279 44.8649 971.166 42.8129 1021.36 68.8978C1034.78 67.8103 1036.53 70.6228 1045.8 57.6868C1055.07 44.7509 1028.95 38.7139 1045.8 28.365C1062.65 18.0161 1040.74 11.9795 1062.65 3.35548C1084.56 -5.26851 1103.54 2.01916 1132.6 33.5395C1150.97 17.317 1160.36 27.3165 1176.42 60.2738C1197.39 78.7309 1199.16 87.8114 1197.49 103.394C1216.88 105.698 1218.02 112.195 1221.08 123.229C1224.34 116.417 1248.93 121.3 1254.79 126.678C1260.65 132.057 1269.96 114.605 1277.54 113.742C1285.13 112.88 1300.3 114.605 1302.82 103.394C1305.35 92.1825 1296.93 90.9038 1323.89 86.1457Z" fill="url(#paint4_linear_19_870)"/>
<path d="M1279.83 121.871C1306.8 117.113 1349.62 147.776 1357.36 162.404C1365.11 177.031 1397.69 166.17 1402.02 172.752C1404.25 176.128 1400.29 185.715 1391.91 191.725H764.939C764.939 191.725 791.063 166.715 804.546 167.578C818.03 168.44 821.4 166.715 826.457 163.266C831.513 159.816 837.412 150.33 837.412 143.431C837.412 136.532 829.827 127.907 837.412 120.146C844.996 112.384 856.794 95.9989 856.794 95.9989C887.713 81.6939 894.493 91.9869 909.884 104.623C914.219 80.5899 927.105 78.5379 977.301 104.623C990.722 103.535 992.47 106.348 1001.74 93.4119C1011.01 80.476 984.885 74.4389 1001.74 64.0901C1018.59 53.7412 996.683 47.7045 1018.59 39.0805C1040.5 30.4566 1059.48 37.7442 1088.54 69.2646C1106.91 53.042 1116.3 63.0416 1132.36 95.9989C1153.33 114.456 1155.1 123.537 1153.43 139.119C1172.82 141.424 1173.96 147.92 1177.02 158.954C1180.27 152.142 1204.87 157.025 1210.73 162.404C1216.59 167.782 1225.9 150.33 1233.48 149.468C1241.07 148.605 1256.24 150.33 1258.76 139.119C1261.29 127.908 1252.87 126.629 1279.83 121.871Z" fill="url(#paint5_linear_19_870)" fill-opacity="0.5"/>
</g>
</g>
<g opacity="0.75" filter="url(#filter2_f_19_870)">
<mask id="mask2_19_870" style="mask-type:alpha" maskUnits="userSpaceOnUse" x="857" y="340" width="410" height="82">
<path d="M935.954 385.282C918.616 382.781 891.087 398.898 886.108 406.587C881.129 414.276 860.177 408.567 857.392 412.027C855.964 413.802 858.509 418.841 863.894 422H1267C1267 422 1250.2 408.854 1241.53 409.307C1232.87 409.761 1230.7 408.854 1227.45 407.041C1224.2 405.227 1220.4 400.241 1220.4 396.614C1220.4 392.988 1225.28 388.455 1220.4 384.375C1215.53 380.295 1207.94 371.682 1207.94 371.682C1188.06 364.163 1183.7 369.574 1173.81 376.216C1171.02 363.583 1162.74 362.504 1130.46 376.216C1121.83 375.644 1120.71 377.122 1114.75 370.323C1108.79 363.523 1125.59 360.35 1114.75 354.91C1103.92 349.47 1118 346.297 1103.92 341.764C1089.83 337.231 1077.63 341.061 1058.95 357.63C1047.14 349.103 1041.09 354.359 1030.77 371.682C1017.29 381.384 1016.15 386.157 1017.23 394.348C1004.76 395.559 1004.02 398.974 1002.06 404.774C999.964 401.194 984.149 403.76 980.383 406.587C976.617 409.414 970.63 400.241 965.754 399.788C960.877 399.334 951.125 400.241 949.5 394.348C947.874 388.455 953.292 387.783 935.954 385.282Z" fill="url(#paint6_linear_19_870)"/>
</mask>
<g mask="url(#mask2_19_870)">
<path d="M935.954 385.282C918.616 382.781 891.087 398.898 886.108 406.587C881.129 414.276 860.177 408.567 857.392 412.027C855.964 413.802 858.509 418.841 863.894 422H1267C1267 422 1250.2 408.854 1241.53 409.307C1232.87 409.761 1230.7 408.854 1227.45 407.041C1224.2 405.227 1220.4 400.241 1220.4 396.614C1220.4 392.988 1225.28 388.455 1220.4 384.375C1215.53 380.295 1207.94 371.682 1207.94 371.682C1188.06 364.163 1183.7 369.574 1173.81 376.216C1171.02 363.583 1162.74 362.504 1130.46 376.216C1121.83 375.644 1120.71 377.122 1114.75 370.323C1108.79 363.523 1125.59 360.35 1114.75 354.91C1103.92 349.47 1118 346.297 1103.92 341.764C1089.83 337.231 1077.63 341.061 1058.95 357.63C1047.14 349.103 1041.09 354.359 1030.77 371.682C1017.29 381.384 1016.15 386.157 1017.23 394.348C1004.76 395.559 1004.02 398.974 1002.06 404.774C999.964 401.194 984.149 403.76 980.383 406.587C976.617 409.414 970.63 400.241 965.754 399.788C960.877 399.334 951.125 400.241 949.5 394.348C947.874 388.455 953.292 387.783 935.954 385.282Z" fill="url(#paint7_linear_19_870)"/>
<path d="M964.283 404.06C946.945 401.559 919.415 417.677 914.436 425.366C909.457 433.055 888.505 427.346 885.72 430.806C884.292 432.58 886.838 437.62 892.222 440.779H1295.33C1295.33 440.779 1278.53 427.632 1269.86 428.086C1261.19 428.539 1259.03 427.632 1255.78 425.819C1252.53 424.006 1248.73 419.019 1248.73 415.393C1248.73 411.767 1253.61 407.233 1248.73 403.154C1243.86 399.074 1236.27 390.461 1236.27 390.461C1216.39 382.942 1212.03 388.352 1202.14 394.994C1199.35 382.361 1191.07 381.283 1158.79 394.994C1150.16 394.422 1149.04 395.901 1143.08 389.101C1137.12 382.301 1153.92 379.128 1143.08 373.688C1132.24 368.249 1146.33 365.075 1132.24 360.542C1118.16 356.009 1105.96 359.84 1087.27 376.408C1075.46 367.881 1069.42 373.137 1059.1 390.461C1045.62 400.163 1044.48 404.936 1045.55 413.127C1033.08 414.338 1032.35 417.753 1030.38 423.553C1028.29 419.972 1012.48 422.539 1008.71 425.366C1004.95 428.193 998.959 419.02 994.082 418.566C989.206 418.113 979.454 419.02 977.828 413.127C976.203 407.233 981.621 406.561 964.283 404.06Z" fill="url(#paint8_linear_19_870)" fill-opacity="0.5"/>
</g>
</g>
<g filter="url(#filter3_f_19_870)">
<path d="M1081.09 362.038C1075.23 376.254 953.254 412.563 893 428.94L1476 438V350.539C1302.57 263.077 1337.17 313.951 1288.32 302.452C1239.46 290.953 1088.42 344.266 1081.09 362.038Z" fill="url(#paint9_radial_19_870)"/>
</g>
<g filter="url(#filter4_f_19_870)">
<path d="M379.307 352.448C440.386 394.799 484.354 404.576 560 426H-9V352.448C-7.63086 331.845 -3.08973 321.26 57.4853 315.847C84.2184 312.962 101.674 309.546 143.549 295.629C157.368 288.896 185.493 290.94 278.559 306.784C325.335 317.049 347.673 326.763 379.307 352.448Z" fill="url(#paint10_radial_19_870)"/>
</g>
<g filter="url(#filter5_f_19_870)">
<path d="M312.355 392.77C297.063 392.474 288.841 380.838 272.99 398.734C265.071 396.649 260.681 394.403 252.294 402.571C245.151 396.519 237.03 394.528 235.17 400.935C226.401 400.767 222.729 401.804 220.996 408.028C217.595 401.406 214.148 400.879 206.125 403.812C198.928 402.121 195.621 401.785 197.256 407.515C192.449 404.632 189.776 404.289 185.184 414.166L185.148 414.09C181.562 406.638 179.54 402.436 169.96 406.925C159.079 396.326 156.252 398.826 152.363 402.943C146.967 401.484 144.051 400.645 141.405 401.628C138.826 402.586 137.019 401.518 135.312 404.911C127.518 392.095 121.367 390.042 109.735 392.578C101.669 388.661 96.8272 387.806 89.4892 392.822C85.9659 385.139 82.3758 384.02 74.269 385.386C67.6866 379.178 65.2433 373.855 52.0502 377.41C44.7553 372.8 41.8099 372.859 38.3499 377.114C39.4606 368.35 37.8161 365.075 28.4871 363.855C22.3334 363.227 19.3001 363.679 15.1337 366.877L4.43315 363.336L-3.69119 366.47L-5.77056 462.709C-3.84356 471.262 -2.34208 475.276 6.93751 470.188C13.9424 471.631 15.2782 469.729 17.1808 465.834C15.4475 476.354 19.8649 474.117 26.1387 472.55C35.3321 471.896 39.5888 470.682 42.1283 463.744C51.9774 467.425 57.4969 469.82 67.4651 458.158C83.6763 456.901 88.0159 453.6 92.5266 445.946C105.564 450.91 109.577 447.984 114.747 439.319C123.946 441.495 128.57 440.173 136.473 436.187C140.048 439.603 143.409 439.904 151.073 438.449C153.554 447.753 157.623 449.597 169.081 447.6C172.529 455.221 175.585 454.334 181.231 451.854C180.845 455.407 180.904 457.29 188.112 457.844C192.041 461.594 194.279 460.9 198.34 454.171C202.799 460.238 207.21 459.713 216.182 456.504C224.127 461.722 227.068 458.31 232.957 454.919C237.867 453.613 240.523 452.813 237.338 445.862C241.857 448.601 244.472 449.314 249.574 446.127C254.551 442.053 256.008 440.035 255.413 437.394C255.986 439.937 257.314 439.387 261.972 438.898C267.6 446.011 270.032 443.181 274.863 442.779C282.078 445.557 283.82 443.618 286.445 439.427C288.134 449.759 292.585 451.677 302.583 452.821C307.238 455.741 309.782 454.971 314.242 450.737C315.724 457.295 317.994 458.625 324.572 456.899C332.321 459.25 335.953 459.49 338.245 453.592C340.673 458.691 342.752 458.879 346.952 457.382C350.986 459.669 353.247 460.867 357.139 455.655C369.579 456.303 370.416 452.561 370.347 444.842C380.099 441.386 381.478 438.026 379.031 430.329C388.214 424.694 387.177 422.25 383.795 418.068C381.713 411.145 384.733 406.72 374.016 400.917C373.275 395.826 375.034 391.739 361.614 393.834C362.389 386.628 361.816 383.437 353.457 383.922C344.942 379.954 340.281 375.813 331.077 383.439C319.922 381.157 316.017 383.5 312.355 392.77Z" fill="#8EC374"/>
</g>
<g filter="url(#filter6_f_19_870)">
<path d="M1190.94 394.346C1209.52 393.974 1219.6 383.885 1238.72 399.185C1248.36 397.328 1253.71 395.359 1263.84 402.333C1272.56 397.064 1282.44 395.287 1284.65 400.793C1295.31 400.581 1299.76 401.446 1301.82 406.796C1306 401.064 1310.19 400.584 1319.92 403.05C1328.67 401.538 1332.7 401.223 1330.67 406.173C1336.53 403.652 1339.78 403.336 1345.28 411.812L1345.33 411.746C1349.74 405.297 1352.23 401.661 1363.83 405.456C1377.13 396.24 1380.55 398.373 1385.24 401.89L1385.79 401.782C1392.01 400.551 1395.45 399.87 1398.56 400.674C1401.69 401.479 1403.89 400.546 1405.94 403.456C1415.51 392.354 1423 390.538 1437.11 392.634C1446.94 389.197 1452.83 388.423 1461.71 392.69C1466.05 386.043 1470.42 385.051 1480.25 386.166C1488.3 380.766 1491.31 376.161 1507.31 379.124C1516.21 375.096 1519.79 375.124 1523.96 378.764C1522.67 371.221 1524.7 368.386 1536.04 367.264C1543.52 366.676 1547.2 367.042 1552.24 369.766L1565.27 366.633L1575.11 369.272L1576.91 452.181C1574.5 459.566 1572.64 463.036 1561.41 458.722C1552.89 460.02 1551.28 458.391 1549 455.049C1551.02 464.1 1545.67 462.207 1538.06 460.904C1526.9 460.411 1521.74 459.397 1518.7 453.439C1506.71 456.686 1499.99 458.791 1487.96 448.819C1468.28 447.86 1463.03 445.048 1457.61 438.488C1441.73 442.864 1436.88 440.374 1430.66 432.947C1419.47 434.892 1413.86 433.788 1404.29 430.414C1399.92 433.385 1395.84 433.67 1386.54 432.475C1383.45 440.51 1378.49 442.131 1364.59 440.498C1360.34 447.091 1356.64 446.349 1349.8 444.256C1350.24 447.314 1350.15 448.937 1341.39 449.47C1336.59 452.731 1333.87 452.15 1328.99 446.383C1323.53 451.644 1318.17 451.226 1307.3 448.529C1297.6 453.086 1294.06 450.168 1286.93 447.292C1280.97 446.204 1277.75 445.535 1281.68 439.521C1276.16 441.915 1272.98 442.55 1266.81 439.843C1260.79 436.37 1259.04 434.643 1259.78 432.362C1259.07 434.558 1257.46 434.094 1251.8 433.709C1244.91 439.88 1241.98 437.461 1236.11 437.151C1227.32 439.6 1225.22 437.943 1222.06 434.351C1219.93 443.267 1214.51 444.954 1202.36 446.016C1196.68 448.567 1193.59 447.923 1188.21 444.309C1186.36 449.971 1183.59 451.134 1175.61 449.697C1166.18 451.782 1161.76 452.017 1159.02 446.952C1156.03 451.364 1153.51 451.542 1148.41 450.284C1143.5 452.285 1140.74 453.335 1136.05 448.874C1120.93 449.528 1119.94 446.31 1120.09 439.658C1108.27 436.754 1106.62 433.87 1109.65 427.219C1098.53 422.434 1099.81 420.32 1103.95 416.69C1106.54 410.709 1102.9 406.92 1115.97 401.837C1116.9 397.445 1114.8 393.937 1131.09 395.64C1130.2 389.437 1130.92 386.682 1141.07 387.037C1151.45 383.553 1157.14 379.949 1168.27 386.449C1181.84 384.398 1186.56 386.387 1190.94 394.346Z" fill="#8EC374"/>
</g>
<g filter="url(#filter7_f_19_870)">
<circle cx="740.5" cy="414.5" r="23.5" fill="#FFF4D1"/>
</g>
<path d="M917.002 70.5266C929.71 65.3805 930.995 65.5678 926.415 71.9294H931.122L933.24 69.5903H939.358C949.082 63.7295 953.117 66.3289 961.95 68.4214C952.537 69.1225 948.432 70.6164 946.418 73.5669L951.125 76.8417L971.833 83.1574L949.007 79.6487C941.351 82.0442 938.888 81.2861 935.122 76.8417C920.795 83.9021 913.237 88.3042 903.824 100C905.001 87.6025 909.456 81.9617 928.298 74.2686H923.356C911.861 76.9854 905.833 78.5132 901 81.2861C903.752 78.2824 906.583 77.8085 917.002 70.5266Z" fill="#046C6B"/>
</g>
<defs>
<filter id="filter0_f_19_870" x="-10.1565" y="137.844" width="466.233" height="117.313" filterUnits="userSpaceOnUse" color-interpolation-filters="sRGB">
<feFlood flood-opacity="0" result="BackgroundImageFix"/>
<feBlend mode="normal" in="SourceGraphic" in2="BackgroundImageFix" result="shape"/>
<feGaussianBlur stdDeviation="1.07824" result="effect1_foregroundBlur_19_870"/>
</filter>
<filter id="filter1_f_19_870" x="806.022" y="-2.9771" width="643.649" height="161.954" filterUnits="userSpaceOnUse" color-interpolation-filters="sRGB">
<feFlood flood-opacity="0" result="BackgroundImageFix"/>
<feBlend mode="normal" in="SourceGraphic" in2="BackgroundImageFix" result="shape"/>
<feGaussianBlur stdDeviation="1.48855" result="effect1_foregroundBlur_19_870"/>
</filter>
<filter id="filter2_f_19_870" x="854.023" y="337.023" width="415.954" height="87.9542" filterUnits="userSpaceOnUse" color-interpolation-filters="sRGB">
<feFlood flood-opacity="0" result="BackgroundImageFix"/>
<feBlend mode="normal" in="SourceGraphic" in2="BackgroundImageFix" result="shape"/>
<feGaussianBlur stdDeviation="1.48855" result="effect1_foregroundBlur_19_870"/>
</filter>
<filter id="filter3_f_19_870" x="888" y="293" width="593" height="150" filterUnits="userSpaceOnUse" color-interpolation-filters="sRGB">
<feFlood flood-opacity="0" result="BackgroundImageFix"/>
<feBlend mode="normal" in="SourceGraphic" in2="BackgroundImageFix" result="shape"/>
<feGaussianBlur stdDeviation="2.5" result="effect1_foregroundBlur_19_870"/>
</filter>
<filter id="filter4_f_19_870" x="-14" y="287" width="579" height="144" filterUnits="userSpaceOnUse" color-interpolation-filters="sRGB">
<feFlood flood-opacity="0" result="BackgroundImageFix"/>
<feBlend mode="normal" in="SourceGraphic" in2="BackgroundImageFix" result="shape"/>
<feGaussianBlur stdDeviation="2.5" result="effect1_foregroundBlur_19_870"/>
</filter>
<filter id="filter5_f_19_870" x="-8.77051" y="360.336" width="398.002" height="116.557" filterUnits="userSpaceOnUse" color-interpolation-filters="sRGB">
<feFlood flood-opacity="0" result="BackgroundImageFix"/>
<feBlend mode="normal" in="SourceGraphic" in2="BackgroundImageFix" result="shape"/>
<feGaussianBlur stdDeviation="1.5" result="effect1_foregroundBlur_19_870"/>
</filter>
<filter id="filter6_f_19_870" x="1097.96" y="363.633" width="481.949" height="101.381" filterUnits="userSpaceOnUse" color-interpolation-filters="sRGB">
<feFlood flood-opacity="0" result="BackgroundImageFix"/>
<feBlend mode="normal" in="SourceGraphic" in2="BackgroundImageFix" result="shape"/>
<feGaussianBlur stdDeviation="1.5" result="effect1_foregroundBlur_19_870"/>
</filter>
<filter id="filter7_f_19_870" x="713" y="387" width="55" height="55" filterUnits="userSpaceOnUse" color-interpolation-filters="sRGB">
<feFlood flood-opacity="0" result="BackgroundImageFix"/>
<feBlend mode="normal" in="SourceGraphic" in2="BackgroundImageFix" result="shape"/>
<feGaussianBlur stdDeviation="2" result="effect1_foregroundBlur_19_870"/>
</filter>
<linearGradient id="paint0_linear_19_870" x1="222.744" y1="196.5" x2="222.744" y2="313.813" gradientUnits="userSpaceOnUse">
<stop stop-color="white"/>
<stop offset="1" stop-color="white" stop-opacity="0"/>
</linearGradient>
<linearGradient id="paint1_linear_19_870" x1="222.744" y1="196.5" x2="222.744" y2="313.813" gradientUnits="userSpaceOnUse">
<stop stop-color="white"/>
<stop offset="1" stop-color="white" stop-opacity="0"/>
</linearGradient>
<linearGradient id="paint2_linear_19_870" x1="190.828" y1="222.378" x2="190.828" y2="339.691" gradientUnits="userSpaceOnUse">
<stop stop-color="#AFFFF6"/>
<stop offset="1" stop-color="white" stop-opacity="0"/>
</linearGradient>
<linearGradient id="paint3_linear_19_870" x1="1127.55" y1="78" x2="1127.55" y2="239.954" gradientUnits="userSpaceOnUse">
<stop stop-color="white"/>
<stop offset="1" stop-color="white" stop-opacity="0"/>
</linearGradient>
<linearGradient id="paint4_linear_19_870" x1="1127.55" y1="78" x2="1127.55" y2="239.954" gradientUnits="userSpaceOnUse">
<stop stop-color="white"/>
<stop offset="1" stop-color="white" stop-opacity="0"/>
</linearGradient>
<linearGradient id="paint5_linear_19_870" x1="1083.49" y1="113.725" x2="1083.49" y2="275.679" gradientUnits="userSpaceOnUse">
<stop stop-color="#AFFFF6"/>
<stop offset="1" stop-color="white" stop-opacity="0"/>
</linearGradient>
<linearGradient id="paint6_linear_19_870" x1="1062.19" y1="381" x2="1062.19" y2="466.13" gradientUnits="userSpaceOnUse">
<stop stop-color="white"/>
<stop offset="1" stop-color="white" stop-opacity="0"/>
</linearGradient>
<linearGradient id="paint7_linear_19_870" x1="1062.19" y1="381" x2="1062.19" y2="466.13" gradientUnits="userSpaceOnUse">
<stop stop-color="white"/>
<stop offset="1" stop-color="white" stop-opacity="0"/>
</linearGradient>
<linearGradient id="paint8_linear_19_870" x1="1090.52" y1="399.779" x2="1090.52" y2="484.908" gradientUnits="userSpaceOnUse">
<stop stop-color="#AFFFF6"/>
<stop offset="1" stop-color="white" stop-opacity="0"/>
</linearGradient>
<radialGradient id="paint9_radial_19_870" cx="0" cy="0" r="1" gradientUnits="userSpaceOnUse" gradientTransform="translate(909.5 421.5) rotate(-7.73272) scale(397.616 1655.79)">
<stop stop-color="#F3CD81"/>
<stop offset="1" stop-color="#B3E7A9"/>
</radialGradient>
<radialGradient id="paint10_radial_19_870" cx="0" cy="0" r="1" gradientUnits="userSpaceOnUse" gradientTransform="translate(547 426) rotate(-169.598) scale(371.098 1575.78)">
<stop stop-color="#F3CD81"/>
<stop offset="1" stop-color="#B3E7A9"/>
</radialGradient>
<clipPath id="clip0_19_870">
<rect width="1440" height="482" fill="white"/>
</clipPath>
</defs>
</svg>
