<svg width="1440" height="1088" viewBox="0 0 1440 1088" fill="none" xmlns="http://www.w3.org/2000/svg">
<g clip-path="url(#clip0_17_7)">
<path d="M1397.65 617.188C1443.01 574.917 1451.29 600.334 1453.65 681.188V1074.19C1449.72 1089.53 1446.53 1096.8 1423.15 1086.19C1415.1 1112.78 1407.5 1125.33 1352.15 1115.69C1311.7 1114.5 1309.69 1105.23 1312.15 1086.19C1262.01 1107.56 1239.48 1114.93 1233.65 1099.69C1183.33 1096.08 1145.75 1100.94 1139.15 1065.19C1100.04 1058.42 1086.12 1052.8 1103.15 1033.19C1090.04 1019.57 1092.78 1013.93 1132.15 993.188C1112.72 983.876 1108.22 973.593 1119.15 953.188C1123.97 939.577 1134.05 934.717 1167.15 931.688C1150.17 895.363 1152.06 872.678 1181.65 846.188C1220.78 792.623 1249.81 785.285 1305.65 785.188C1274.24 763.666 1273.88 749.372 1305.65 719.688C1284.4 701.519 1288.96 689.547 1352.15 662.188C1344.99 632.512 1353.97 622.207 1397.65 617.188Z" fill="#014C58"/>
<path d="M36.0542 720.875C-9.34647 696.011 -17.6342 710.961 -20 758.521V989.69C-16.0658 998.716 -12.865 1002.99 10.5295 996.748C18.5952 1012.39 26.196 1019.77 81.5982 1014.1C122.095 1013.4 124.102 1007.95 121.637 996.748C171.826 1009.32 194.381 1013.65 200.213 1004.69C250.586 1002.56 288.206 1005.42 294.804 984.396C333.951 980.417 347.889 977.109 330.839 965.573C343.965 957.56 341.22 954.246 301.811 942.044C321.263 936.567 325.765 930.518 314.823 918.516C309.998 910.509 299.91 907.65 266.777 905.869C283.78 884.502 281.881 871.158 252.263 855.576C213.101 824.069 184.041 819.752 128.143 819.695C159.584 807.036 159.951 798.628 128.143 781.167C149.416 770.48 144.857 763.437 81.5982 747.345C88.7733 729.889 79.7784 723.827 36.0542 720.875Z" fill="#014C58"/>
<path d="M15.0445 588.409C-77.1344 496.993 85.7546 448.075 101.787 459.609C117.819 471.143 140.773 631.941 15.0445 588.409Z" fill="#11693C"/>
<path d="M-22.0653 676.045C9.05734 590.864 40.7311 548.474 93.2215 471.354C42.8212 540.534 13.3049 574.464 -29.3468 673.529L-22.0653 676.045Z" fill="#D4B131"/>
<mask id="mask0_17_7" style="mask-type:alpha" maskUnits="userSpaceOnUse" x="0" y="545" width="137" height="213">
<path d="M-3.87547e-05 568.926C-3.83845e-05 577.395 0.826333 605.474 -3.60151e-05 631.599L-3.28036e-05 705.071C-3.28036e-05 705.071 26.4812 723.28 30.5345 734.29C34.5877 745.3 49.2818 752.784 71.8777 757.369C71.8777 757.369 69.1755 746.57 66.7436 738.948C64.3116 731.325 57.5562 716.928 57.5562 716.928C57.5562 716.928 66.4734 733.231 78.6331 737.889C90.7929 742.547 117.274 749.535 117.274 749.535C117.274 749.535 105.925 735.772 101.331 716.928C96.7377 698.083 78.6331 688.344 78.6331 688.344C78.6331 688.344 97.5483 689.402 108.897 686.226C120.247 683.05 137 675.64 137 675.64C137 675.64 109.168 656.372 89.9822 656.372C70.7968 656.372 50.2603 663.147 50.2603 663.147C50.2603 663.147 72.6883 650.443 81.3353 643.456C89.9822 636.469 92.144 624.824 89.9822 614.66C87.8205 604.497 92.144 592.005 92.144 592.005C92.144 592.005 77.5522 598.357 70.7968 603.015C64.0414 607.673 52.1518 622.918 46.4773 627.364C40.8027 631.811 12.4299 645.997 12.4299 645.997C12.4299 645.997 37.2899 627.364 39.4516 615.931C41.6134 604.497 36.209 584.382 24.5897 569.985C12.9704 555.587 5.67452 545 5.67452 545C5.67452 545 -3.91249e-05 560.457 -3.87547e-05 568.926Z" fill="#D9D9D9"/>
</mask>
<g mask="url(#mask0_17_7)">
<path d="M-3.87547e-05 568.926C-3.83845e-05 577.395 0.826333 605.474 -3.60151e-05 631.599L-3.28036e-05 705.071C-3.28036e-05 705.071 26.4812 723.28 30.5345 734.29C34.5877 745.3 49.2818 752.784 71.8777 757.369C71.8777 757.369 69.1755 746.57 66.7436 738.948C64.3116 731.325 57.5562 716.928 57.5562 716.928C57.5562 716.928 66.4734 733.231 78.6331 737.889C90.7929 742.547 117.274 749.535 117.274 749.535C117.274 749.535 105.925 735.772 101.331 716.928C96.7377 698.083 78.6331 688.344 78.6331 688.344C78.6331 688.344 97.5483 689.402 108.897 686.226C120.247 683.05 137 675.64 137 675.64C137 675.64 109.168 656.372 89.9822 656.372C70.7968 656.372 50.2603 663.147 50.2603 663.147C50.2603 663.147 72.6883 650.443 81.3353 643.456C89.9822 636.469 92.144 624.824 89.9822 614.66C87.8205 604.497 92.144 592.005 92.144 592.005C92.144 592.005 77.5522 598.357 70.7968 603.015C64.0414 607.673 52.1518 622.918 46.4773 627.364C40.8027 631.811 12.4299 645.997 12.4299 645.997C12.4299 645.997 37.2899 627.364 39.4516 615.931C41.6134 604.497 36.209 584.382 24.5897 569.985C12.9704 555.587 5.67452 545 5.67452 545C5.67452 545 -3.91249e-05 560.457 -3.87547e-05 568.926Z" fill="#2FB5A6"/>
<path d="M38.9112 715.022C50.5426 722.318 57.043 729.479 68.6351 742.547C91.5222 795.61 35.4013 756.823 -9.45761 742.547L-9.45762 545.847L14.5917 545.847C26.0695 566.684 29.1458 580.504 29.9941 608.097C25.2043 595.377 21.6936 591.021 14.5917 586.076C35.6686 627.788 19.996 639.433 -5.13414 664.841C21.709 657.95 35.8821 653.575 47.0177 637.528C44.4738 646.199 41.5095 651.18 31.8856 660.395C57.5562 652.137 86.2945 643.912 81.8757 618.895C79.1932 628.062 71.0965 629.2 61.3392 632.023C74.0394 623.341 83.5482 609.346 91.6035 592.428C97.8648 618.37 94.3982 632.268 80.7949 656.372C57.7583 663.194 47.2475 667.62 34.0473 676.91C65.119 671.203 62.2344 668.383 88.9014 670.135C70.5227 672.598 59.7536 674.625 38.9112 680.509C84.6735 686.3 106.09 685.209 137 675.851L98.8994 701.895C75.2035 690.211 59.5423 687.662 26.4812 691.731C67.5542 708.247 65.3957 728.15 88.9014 735.348C82.9989 727.971 81.6681 723.428 80.7949 715.022C90.2644 731.009 101.364 737.011 119.166 750.382C62.4147 740.607 67.284 732.384 57.5562 716.928C49.483 708.625 32.5394 697.789 -2.43198 684.532L-2.43198 696.178C18.8232 707.529 31.8544 712.437 47.0177 731.749C47.3746 727.107 45.506 723.4 38.9112 715.022Z" fill="#2C8C4A"/>
</g>
<path d="M106.021 696.347C83.3725 659.332 55.1855 637.681 12.7664 690.652C-68.3322 713.22 -66.9627 752.584 -37.7761 776.787C-8.58958 800.991 48.3596 810.248 94.6309 805.265C123.817 768.248 123.008 724.108 106.021 696.347Z" fill="#11693C"/>
<path d="M13.7627 696.729C43.6611 733.034 60.7458 755.814 90.6442 800.661C58.3365 764.197 43.7526 741.007 13.7627 696.729Z" fill="#D4B131"/>
<path d="M1376.42 1075.81C1389.75 838.917 1371.67 832.099 1334 802.288C1357.17 801.499 1410.33 843.973 1389.01 1075.72L1376.42 1075.81Z" fill="#6CB236"/>
<path d="M1407.59 769.909C1367.05 755.944 1353.26 765.938 1333.09 792.579C1340.18 774.097 1341.41 764.687 1326.49 753.861C1313.61 743.45 1304.78 745.56 1288.75 750.669C1270.75 753.872 1269.65 756.215 1264.14 760.18C1299.5 758.528 1299.4 762.835 1299.75 770.375C1289.41 764.12 1277.11 762.615 1242.85 763.812C1224.07 772.145 1221.3 778.972 1216.41 791.027L1216.32 791.25C1284.35 774.527 1284.04 778.629 1286.3 784.955C1266.51 784.947 1250.69 787.457 1211.77 797.671C1200.28 809.641 1200.36 816.088 1202.25 827.518C1265.89 791.452 1279.38 789.833 1282.93 804.125C1249.26 806.394 1230.53 816.233 1197.24 840.99C1194.17 852.075 1194.6 857.076 1197.33 864.882C1260.31 813.473 1269.51 812.112 1272.08 824.238C1234.17 837.544 1218.02 849.795 1200.25 881.982C1199.61 890.733 1202.13 893.226 1206.88 897.455C1217.66 875.74 1225.71 868.526 1242.69 862.125L1242.49 862.305C1225.85 877.282 1216.46 885.735 1211.59 905.616C1213.05 913.394 1213.93 917.706 1218.49 922.701C1226.85 924.426 1231.32 924.5 1238.5 921.28C1257.14 907.739 1256.09 895.73 1262.22 877.387C1263.6 895.9 1267.54 905.603 1247.09 928.78C1252.1 933.063 1259.03 933.317 1268.24 930.152C1288.36 902.148 1273.51 846.241 1287.07 843.929C1301.09 852.162 1287.92 895.259 1271.53 931.915C1281.96 933.368 1287.76 932.747 1297.98 927.402C1320.89 894.275 1301.06 830.585 1309.16 825.549C1317.27 820.514 1331.01 849.654 1317.1 916.836C1330.59 909.583 1339.48 904.695 1349.99 891.634C1361.2 847.823 1342.82 832.093 1333.07 813.835C1323.31 795.576 1381.93 827.746 1382.92 876.387C1394.53 864.227 1400.11 856.274 1402.34 832.565C1396.38 814.79 1383.8 810.399 1356.14 797.281C1374.56 788.493 1388.54 791.267 1406.77 823.508C1411.29 816.557 1414.31 815.161 1415.86 793.07C1411.58 784.449 1404.79 781.618 1382.61 781.143C1388.38 776.302 1391.8 773.748 1414.26 783.713C1416.3 780.895 1416.77 778.947 1407.59 769.909Z" fill="#27844C"/>
<path d="M1227.24 905.237C1262.67 848.437 1287.64 817.789 1331.96 793.072L1328.38 801.318C1296.86 816.99 1273.06 844.948 1227.24 905.237Z" fill="#6CB236"/>
<path d="M1601.67 755.851C1517.15 647.062 1497.91 636.165 1433.14 583.626C1501.28 652.235 1541.36 689.168 1600.17 765.413L1601.67 755.851Z" fill="#D4B131"/>
<path d="M1329.2 599.947C1350.42 516.458 1420.52 548.093 1428.66 584.222C1431.79 540.069 1443.55 539.621 1467.62 546.331C1476.25 551.448 1479.35 559.271 1482.41 580.17C1487.51 617.385 1481.51 627.079 1472.99 647.144C1461.42 611.984 1453.75 603.59 1437.55 612.621C1457.01 619.609 1463.14 630.989 1468.23 660.39C1462.58 678.688 1455.78 688.243 1434.01 703.387C1446.42 686.641 1451.05 678.042 1444.31 667.783C1428.08 642.685 1422.06 637.658 1420.13 654.565C1438.11 674.108 1435.61 688.645 1422.26 717.102C1418.39 721.768 1414.9 725.814 1411.4 729.364C1406.26 698.314 1402.58 686.121 1391 697.168C1399.98 709.318 1401.14 719.041 1396.45 741.207C1390.39 744.731 1383.24 747.564 1373.83 750.075C1368.29 742.752 1352.25 733.072 1348.61 715.71C1381.85 682.783 1388.89 677.577 1380.8 678.659C1372.71 679.741 1355.26 688.387 1337.81 705.738L1337.75 705.598C1334.73 697.627 1333.02 693.114 1347.26 677.358C1407.12 630.304 1405.6 627.442 1387.43 633.975C1362.46 647.758 1339.61 657.214 1329.26 669.421C1329.26 669.421 1325.38 664.804 1327.09 655.654C1326.79 648.099 1355.97 626.422 1389.98 610.37C1363.56 612.624 1349.24 608.567 1320.46 636.623C1312.37 631.356 1313.61 625.088 1326.51 608.19C1345.88 594.26 1357.97 589.132 1382.17 585.71C1360.97 579.548 1349.26 578.845 1329.2 599.947Z" fill="#2FB5A6"/>
<path d="M1376.41 739.349C1380.57 698.184 1393.33 664.195 1419.83 596.365C1422.25 590.015 1424.17 588.702 1428 587.999C1403.41 648.624 1390.97 678.426 1376.41 739.349Z" fill="#D4B131"/>
<path d="M65.9702 341.686C40.039 339.522 25.7215 338.029 8.90008 324.205C-14.5866 333.34 -23.1336 329.199 -35 315.049V86.5581C-31.9973 63.4729 -25.195 55.5648 -3.29438 51.1816C29.8006 45.8687 48.1927 43.6205 74.7502 67.8293C93.1303 52.5385 105.773 46.102 146.454 51.1816C170.808 44.1406 170.553 35.8945 204.012 60.7551C203.29 54.2774 218.728 52.7326 225.474 51.1816C252.406 50.7986 243.736 50.4996 244.009 67.8293C268.626 71.4356 275.679 75.4019 261.082 86.5581C260.496 94.7587 259.372 96.832 244.009 99.8773L244.506 99.9015C264.762 100.89 287.545 102.002 281.568 120.271C295.138 126.878 277.178 133.173 271.325 136.086C294.406 142.54 287.261 146.096 276.691 155.231C286.844 163.241 265.493 171.086 229.864 180.203C266.26 181.51 289.621 179.763 281.568 188.11C296.767 197.535 319.702 201.577 302.055 211.001C331.771 211.471 354.323 217.867 351.809 236.389C352.954 245.988 308.112 263.67 225.474 260.944L225.717 261.24C236.644 274.524 242.845 282.062 216.694 290.077C219.9 302.188 216.108 305.541 196.207 303.396C206.994 314.851 199.659 319.014 173.282 324.205C137.469 336.427 121.299 346.74 65.9702 341.686Z" fill="#2C8C4A"/>
<path d="M196.013 349.549C176.95 350.286 166.932 351.298 164.983 367.392C141.662 366.308 140.722 368.046 150.136 373.295C129.932 377.649 127.488 383.326 132.263 396.785C120.051 411.004 128.033 413.395 151.241 414.28C168.063 425.267 177.325 430.856 187.93 420.793C204.311 423.639 210.955 420.632 221.216 412.393C214.58 424.039 225.605 425.34 251.083 425.593C293.248 422.697 321.266 421.689 302.187 410.21C331.746 400.128 341.113 394.393 319.979 383.721C316.659 370.545 313.719 363.876 290.437 364.01C268.677 359.219 263.379 362.568 256.098 370.438C250.647 359.513 250.264 350.953 228.177 355.185C217.287 344.09 209.903 344.674 196.013 349.549Z" fill="#2C8C4A"/>
<path d="M7.76397 292.026C-45.5505 290.16 -61.5582 287.066 -41.5837 274.391C-46.096 265.673 -53.5995 263.44 -31.535 266.066C-51.5459 261.833 -52.6583 258.957 -37.3293 240.744C-27.7629 231.35 -22.317 233.646 -12.5367 243.879C-13.7225 235.959 -9.87372 235.963 0.60596 239.543C-10.4771 232.299 -13.164 228.229 9.56232 220.884C22.218 217.216 27.0474 224.036 35.963 235.018C26.4362 218.313 23.0939 209.395 43.4674 199.383C51.1774 187.078 55.7544 180.541 81.3348 193.975C88.8161 177.818 93.3445 172.244 103.271 181.755C110.869 169.21 117.341 169.05 138.377 198.189C141.746 187.564 148.238 188.329 168.482 201.995C178.361 195.383 184.723 195.873 199.388 213.7C222.405 199.908 237.028 188.607 244.637 206.827C269.293 212.728 280.686 216.45 271.323 228.193L271.808 228.588C284.939 239.276 292.452 245.392 252.623 248.019C263.677 254.706 255.276 262.64 215 255.5C234.509 269.9 213.5 283.5 199.388 283.5C222.881 292.36 210 296.5 191 302C187.5 306.5 216.086 314.5 168.482 314.5C178.552 325.568 161.551 317.916 143.642 318.796C124.281 327.084 126.534 332.009 95.0001 322.5C115.226 334.729 47.9629 339.5 35.9629 322.5C-28.4999 318.796 -73.6737 308.377 -39.9932 298.515C-46.0115 294.559 -10.9605 295.445 7.76397 292.026Z" fill="#016751"/>
<path d="M83.5 307C89 321.5 50.7566 350.249 35 381C31.7344 387.373 33.0863 394.619 29 400.5C24.8236 406.511 27.609 402.298 22 407C10.6886 416.482 -11.5 424.5 -11.5 424.5V479.5C-11.5 479.5 7.25636 460.064 22 451.5C31.069 446.232 36.3106 442.985 46.5 440.5C59.7792 437.262 67.8814 441.665 81.5 440.5C99.3564 438.972 99.7807 441.968 117 437C130.769 433.028 137.304 426.458 151.5 424.5C160.785 423.219 175.715 420.275 185 419C201.92 416.677 208.564 404.704 225.5 402.5C235.377 401.214 228.54 400.441 238.5 400.5C242.796 400.525 257.723 402.599 262 403C268.601 403.618 278.5 407 278.5 407L288 403L275.5 402.5L263.5 396.5L284.5 383L278.5 377C278.5 377 272.364 382.818 268 386C260.306 391.61 253.5 397.5 246.5 397.5C239.5 397.5 237.235 391.656 233.5 386L228 377L223.5 386L228 393.5C228 396.5 205.963 403.438 191 407C178.347 410.012 160.5 416 158 411.5C155.5 407 185 388.5 185 388.5C185 388.5 179.635 385.699 176 386C170.818 386.428 169.122 390.332 165 393.5C155.585 400.736 153.613 408.777 143.5 415C129.826 423.415 119.538 425.256 103.5 424.5C90.1042 423.868 80.1159 424.348 70.5 415C64.8561 409.513 61.9223 405.242 60.5 397.5C58.3687 385.899 52.7538 387.798 57.5 377C69.0286 350.771 99 326 99 316.5C99 307 102.105 296.554 103.5 288C104.946 279.133 110.5 276 119 271C127.5 266 161 258.5 161 258.5C161 258.5 150.32 258.058 143.5 258.5C128.978 259.44 110.5 269 107 266C103.5 263 123 243.5 123 243.5C123 243.5 124.389 239.956 132.5 238.5C155.755 234.326 180.782 242.878 204 238.5C215.636 236.306 222.035 234.047 233.083 230.147L233.5 230C244.888 225.981 262 218 262 218L239.5 214.5C239.5 214.5 229.37 222.973 222 227C192.527 243.103 136 227 136 227C136 227 154.418 220.833 165 214.5C176.199 207.797 191 193.5 191 193.5L193.5 182L182.5 189C182.5 189 172.196 198.018 165 203C146.319 215.934 114.5 234 112 227C109.5 220 107 198 107 198L100 203C100 203 107.985 224.404 107 238.5C105.648 257.846 86 283.5 86 283.5C59.3032 269.888 52.4174 262.437 40.2971 249.322L40 249C40 249 39 257.5 40 263C41 268.5 78 292.5 83.5 307Z" fill="#5B0F3E"/>
<path d="M-6.59401 261.948C-41.021 256.386 -50.493 253.18 -34.3469 247.131C-44.7344 240.26 -45.5522 236.746 -27.5503 231.744C-32.4437 225.343 -31.8093 223.041 -17.9217 223.765C-11.6308 218.472 -8.17064 221.217 -2.06293 231.744L-2.10063 231.57C-5.20933 217.213 -6.96408 209.11 28.5219 208.379C36.4565 201.946 40.6914 200.505 47.2127 208.379C54.9418 211.724 55.4576 215.3 51.7438 223.765C62.6282 217.283 65.9491 220.666 71.0009 228.894C83.6167 242.419 78.3279 243.738 61.9387 242.572C87.1384 256.832 79.71 258.925 47.2127 257.389C58.9341 263.234 64.9142 266.472 20.5925 268.786C7.09983 273.587 -0.890522 277.384 -6.59401 261.948Z" fill="#6CB236"/>
<path d="M0.776261 141.463C0.776261 141.463 -15.9861 150.76 -1.76209 158.273C-5.23723 163.574 -5.13033 164.294 10.9579 162.546C-3.67484 165.249 -4.54796 166.995 6.17597 177.888C12.9131 183.494 16.9212 182.067 24.2576 175.813C23.217 180.607 26.0131 180.576 33.7071 178.336C25.4919 182.794 23.448 185.273 39.7915 189.545C48.9024 191.669 52.5649 187.513 59.29 180.812C51.9915 190.975 49.3618 196.388 63.9358 202.288C69.2585 209.667 72.4357 213.583 91.3225 205.279C96.392 214.986 99.5556 218.321 106.982 212.502C112.218 220.026 116.916 220.076 132.856 202.316C135.063 208.711 139.797 208.201 154.812 199.796C161.84 203.719 166.472 203.377 177.529 192.499C193.938 200.663 204.305 207.385 210.245 196.321C228.29 192.575 236.651 190.243 230.114 183.216L230.476 182.974C240.256 176.42 245.852 172.67 216.978 171.374C225.159 167.252 219.236 162.52 189.816 167.128C204.314 158.285 189.359 150.221 179.107 150.324C196.374 144.799 187.11 142.392 173.432 139.208C170.991 136.514 191.939 131.472 157.357 131.82C164.922 125.059 152.398 129.807 139.408 129.406C125.531 124.539 132.874 117.052 109.75 123.028C124.721 115.491 59.192 94.8629 50.0901 105.222C10.1913 95.858 -29.8754 114.557 -5.63104 120.269C-10.0925 122.703 -12.7489 139.534 0.776261 141.463Z" fill="#6CB236"/>
<path d="M1369.03 402.686C1394.96 400.522 1409.28 399.029 1426.1 385.205C1449.59 394.34 1458.13 390.199 1470 376.049V147.558C1467 124.473 1460.2 116.565 1438.29 112.182C1405.2 106.869 1386.81 104.62 1360.25 128.829C1341.87 113.539 1329.23 107.102 1288.55 112.182C1264.19 105.141 1264.45 96.8945 1230.99 121.755C1231.71 115.277 1216.27 113.733 1209.53 112.182C1182.59 111.799 1191.26 111.5 1190.99 128.829C1166.37 132.436 1159.32 136.402 1173.92 147.558C1174.5 155.759 1175.63 157.832 1190.99 160.877L1190.49 160.902C1170.24 161.89 1147.46 163.002 1153.43 181.271C1139.86 187.878 1157.82 194.173 1163.67 197.086C1140.59 203.54 1147.74 207.096 1158.31 216.231C1148.16 224.241 1169.51 232.086 1205.14 241.203C1168.74 242.51 1145.38 240.763 1153.43 249.11C1138.23 258.535 1115.3 262.577 1132.94 272.001C1103.23 272.471 1080.68 278.867 1083.19 297.389C1082.05 306.988 1126.89 324.67 1209.53 321.944L1209.28 322.24C1198.36 335.524 1192.15 343.062 1218.31 351.077C1215.1 363.188 1218.89 366.541 1238.79 364.396C1228.01 375.851 1235.34 380.014 1261.72 385.205C1297.53 397.427 1313.7 407.74 1369.03 402.686Z" fill="#2C8C4A"/>
<path d="M1238.99 410.549C1258.05 411.286 1268.07 412.298 1270.02 428.392C1293.34 427.308 1294.28 429.046 1284.86 434.295C1305.07 438.649 1307.51 444.326 1302.74 457.785C1314.95 472.004 1306.97 474.395 1283.76 475.28C1266.94 486.267 1257.67 491.856 1247.07 481.793C1230.69 484.639 1224.05 481.632 1213.78 473.393C1220.42 485.039 1209.39 486.34 1183.92 486.593C1141.75 483.697 1113.73 482.689 1132.81 471.21C1103.25 461.128 1093.89 455.393 1115.02 444.721C1118.34 431.545 1121.28 424.876 1144.56 425.01C1166.32 420.219 1171.62 423.568 1178.9 431.438C1184.35 420.513 1184.74 411.953 1206.82 416.185C1217.71 405.09 1225.1 405.674 1238.99 410.549Z" fill="#2C8C4A"/>
<path d="M1465.19 280.026C1518.51 278.16 1534.51 275.066 1514.54 262.391C1519.05 253.673 1526.56 251.44 1504.49 254.066C1524.5 249.833 1525.61 246.957 1510.28 228.744C1500.72 219.35 1495.27 221.646 1485.49 231.879C1486.68 223.959 1482.83 223.963 1472.35 227.543C1483.43 220.299 1486.12 216.229 1463.39 208.884C1450.74 205.216 1445.91 212.036 1436.99 223.018C1446.52 206.313 1449.86 197.395 1429.49 187.383C1421.78 175.078 1417.2 168.541 1391.62 181.975C1384.14 165.818 1379.61 160.244 1369.68 169.755C1362.09 157.21 1355.61 157.05 1334.58 186.189C1331.21 175.564 1324.72 176.329 1304.47 189.995C1294.59 183.383 1288.23 183.873 1273.57 201.7C1250.55 187.908 1235.93 176.607 1228.32 194.827C1203.66 200.728 1192.27 204.45 1201.63 216.193L1201.15 216.588C1188.02 227.276 1180.5 233.392 1220.33 236.019C1209.28 242.706 1217.68 250.64 1257.96 243.5C1238.45 257.9 1259.46 271.5 1273.57 271.5C1250.08 280.36 1262.96 284.5 1281.96 290C1285.46 294.5 1256.87 302.5 1304.47 302.5C1294.4 313.568 1311.4 305.916 1329.31 306.796C1348.67 315.084 1346.42 320.009 1377.96 310.5C1357.73 322.729 1424.99 327.5 1436.99 310.5C1501.46 306.796 1546.63 296.377 1512.95 286.515C1518.97 282.559 1483.92 283.445 1465.19 280.026Z" fill="#016751"/>
<path d="M1351.5 368C1346 382.5 1384.24 411.249 1400 442C1403.27 448.373 1401.91 455.619 1406 461.5C1410.18 467.511 1407.39 463.298 1413 468C1424.31 477.482 1446.5 485.5 1446.5 485.5V540.5C1446.5 540.5 1427.74 521.064 1413 512.5C1403.93 507.232 1398.69 503.985 1388.5 501.5C1375.22 498.262 1367.12 502.665 1353.5 501.5C1335.64 499.972 1335.22 502.968 1318 498C1304.23 494.028 1297.7 487.458 1283.5 485.5C1274.22 484.219 1259.29 481.275 1250 480C1233.08 477.677 1226.44 465.704 1209.5 463.5C1199.62 462.214 1206.46 461.441 1196.5 461.5C1192.2 461.525 1177.28 463.599 1173 464C1166.4 464.618 1156.5 468 1156.5 468L1147 464L1159.5 463.5L1171.5 457.5L1150.5 444L1156.5 438C1156.5 438 1162.64 443.818 1167 447C1174.69 452.61 1181.5 458.5 1188.5 458.5C1195.5 458.5 1197.76 452.656 1201.5 447L1207 438L1211.5 447L1207 454.5C1207 457.5 1229.04 464.438 1244 468C1256.65 471.012 1274.5 477 1277 472.5C1279.5 468 1250 449.5 1250 449.5C1250 449.5 1255.36 446.699 1259 447C1264.18 447.428 1265.88 451.332 1270 454.5C1279.41 461.736 1281.39 469.777 1291.5 476C1305.17 484.415 1315.46 486.256 1331.5 485.5C1344.9 484.868 1354.88 485.348 1364.5 476C1370.14 470.513 1373.08 466.242 1374.5 458.5C1376.63 446.899 1382.25 448.798 1377.5 438C1365.97 411.771 1336 387 1336 377.5C1336 368 1332.9 357.554 1331.5 349C1330.05 340.133 1324.5 337 1316 332C1307.5 327 1274 319.5 1274 319.5C1274 319.5 1284.68 319.058 1291.5 319.5C1306.02 320.44 1324.5 330 1328 327C1331.5 324 1312 304.5 1312 304.5C1312 304.5 1310.62 298.076 1302.5 299.5C1274 304.5 1205.72 338.378 1182.5 334C1170.86 331.806 1164.47 329.547 1153.42 325.647L1153 325.5C1141.61 321.48 1124.5 313.5 1124.5 313.5L1147 310C1147 310 1157.13 318.473 1164.5 322.5C1193.97 338.603 1299 288 1299 288C1299 288 1280.58 281.833 1270 275.5C1258.8 268.797 1244 254.5 1244 254.5L1241.5 243L1252.5 250C1252.5 250 1262.8 259.018 1270 264C1288.68 276.934 1320.5 295 1323 288C1325.5 281 1328 259 1328 259L1335 264C1335 264 1327.02 285.404 1328 299.5C1329.35 318.846 1349 344.5 1349 344.5C1375.7 330.888 1382.58 323.437 1394.7 310.322L1395 310C1395 310 1396 318.5 1395 324C1394 329.5 1357 353.5 1351.5 368Z" fill="#5B0F3E"/>
<path d="M1200.59 441.948C1235.02 436.386 1244.49 433.18 1228.35 427.131C1238.73 420.26 1239.55 416.746 1221.55 411.744C1226.44 405.343 1225.81 403.041 1211.92 403.765C1205.63 398.472 1202.17 401.217 1196.06 411.744L1196.1 411.57C1199.21 397.213 1200.96 389.11 1165.48 388.379C1157.54 381.946 1153.31 380.505 1146.79 388.379C1139.06 391.724 1138.54 395.3 1142.26 403.765C1131.37 397.283 1128.05 400.666 1123 408.894C1110.38 422.419 1115.67 423.738 1132.06 422.572C1106.86 436.832 1114.29 438.925 1146.79 437.389C1135.07 443.234 1129.09 446.472 1173.41 448.786C1186.9 453.587 1194.89 457.384 1200.59 441.948Z" fill="#6CB236"/>
<path d="M1228.69 252.463C1228.69 252.463 1245.45 261.76 1231.23 269.273C1234.7 274.574 1234.6 275.294 1218.51 273.546C1233.14 276.249 1234.01 277.995 1223.29 288.888C1216.55 294.494 1212.54 293.067 1205.21 286.813C1206.25 291.607 1203.45 291.576 1195.76 289.336C1203.97 293.794 1206.02 296.273 1189.67 300.545C1180.56 302.669 1176.9 298.513 1170.17 291.812C1177.47 301.975 1180.1 307.388 1165.53 313.288C1160.21 320.667 1157.03 324.583 1138.14 316.279C1133.07 325.986 1129.91 329.321 1122.48 323.502C1117.25 331.026 1112.55 331.076 1096.61 313.316C1094.4 319.711 1089.67 319.201 1074.65 310.796C1067.63 314.719 1062.99 314.377 1051.94 303.499C1035.53 311.663 1025.16 318.385 1019.22 307.321C1001.17 303.575 992.814 301.243 999.351 294.216L998.989 293.974C989.209 287.42 983.613 283.67 1012.49 282.374C1004.31 278.252 1010.23 273.52 1039.65 278.128C1025.15 269.285 1040.11 261.221 1050.36 261.324C1033.09 255.799 1042.35 253.392 1056.03 250.208C1058.47 247.514 1037.53 242.472 1072.11 242.82C1064.54 236.059 1077.07 240.807 1090.06 240.406C1103.93 235.539 1096.59 228.052 1119.71 234.028C1104.74 226.491 1170.27 205.863 1179.37 216.222C1219.27 206.858 1259.34 225.557 1235.1 231.269C1239.56 233.703 1242.21 250.534 1228.69 252.463Z" fill="#6CB236"/>
<mask id="mask1_17_7" style="mask-type:alpha" maskUnits="userSpaceOnUse" x="939" y="827" width="260" height="196">
<path d="M971.141 1022.03C981.946 1020.44 1017.62 1014.14 1051.1 1010.31L1144.84 996.57C1144.84 996.57 1163.12 959.379 1176.41 952.149C1189.7 944.919 1196.5 924.772 1198.13 895.086C1198.13 895.086 1184.85 900.553 1175.58 905.081C1166.31 909.609 1149.21 920.92 1149.21 920.92C1149.21 920.92 1168.34 906.494 1172.01 890.11C1175.68 873.725 1179.64 838.632 1179.64 838.632C1179.64 838.632 1164.21 855.685 1141.02 865.069C1117.84 874.453 1108.8 899.373 1108.8 899.373C1108.8 899.373 1106.61 875.042 1100.44 861.156C1094.26 847.27 1081.68 827.281 1081.68 827.281C1081.68 827.281 1062.3 866.394 1065.88 890.871C1069.47 915.349 1081.96 940.284 1081.96 940.284C1081.96 940.284 1061.55 914.044 1051.02 904.318C1040.49 894.593 1025.23 894.012 1012.67 898.67C1000.1 903.328 983.358 900.148 983.358 900.148C983.358 900.148 994.19 917.577 1001.4 925.325C1008.6 933.073 1030.28 945.392 1037.01 951.801C1043.74 958.209 1067.15 991.756 1067.15 991.756C1067.15 991.756 1038.73 963.522 1023.74 962.902C1008.74 962.282 984.091 972.938 967.894 990.454C951.697 1007.97 939.554 1019.26 939.554 1019.26C939.554 1019.26 960.335 1023.61 971.141 1022.03Z" fill="#D9D9D9"/>
</mask>
<g mask="url(#mask1_17_7)">
<path d="M971.141 1022.03C981.946 1020.44 1017.62 1014.14 1051.1 1010.31L1144.84 996.57C1144.84 996.57 1163.12 959.379 1176.41 952.149C1189.7 944.919 1196.5 924.772 1198.13 895.086C1198.13 895.086 1184.85 900.553 1175.58 905.081C1166.31 909.609 1149.21 920.92 1149.21 920.92C1149.21 920.92 1168.34 906.494 1172.01 890.11C1175.68 873.725 1179.64 838.632 1179.64 838.632C1179.64 838.632 1164.21 855.685 1141.02 865.069C1117.84 874.453 1108.8 899.373 1108.8 899.373C1108.8 899.373 1106.61 875.042 1100.44 861.156C1094.26 847.27 1081.68 827.281 1081.68 827.281C1081.68 827.281 1062.3 866.394 1065.88 890.871C1069.47 915.349 1081.96 940.284 1081.96 940.284C1081.96 940.284 1061.55 914.044 1051.02 904.318C1040.49 894.593 1025.23 894.012 1012.67 898.67C1000.1 903.328 983.358 900.148 983.358 900.148C983.358 900.148 994.19 917.577 1001.4 925.325C1008.6 933.073 1030.28 945.392 1037.01 951.801C1043.74 958.209 1067.15 991.756 1067.15 991.756C1067.15 991.756 1038.73 963.522 1023.74 962.902C1008.74 962.282 984.091 972.938 967.894 990.454C951.697 1007.97 939.554 1019.26 939.554 1019.26C939.554 1019.26 960.335 1023.61 971.141 1022.03Z" fill="#E0939E"/>
<path d="M1150.26 945.064C1157.4 928.86 1165.32 919.228 1179.82 901.995C1243.24 862.873 1204.25 941.727 1194.42 1001.63L943.464 1038.41L938.967 1007.72C963.406 989.184 980.464 982.675 1015.51 976.433C1000.18 984.923 995.274 990.216 990.294 1000.2C1039.57 965.512 1057.36 983.33 1094.47 1010.64C1080.66 977.683 1072.43 960.418 1049.88 949.211C1061.41 950.835 1068.32 953.686 1081.88 964.242C1066.54 933.034 1050.68 897.906 1019.59 908.221C1031.78 909.93 1034.75 920.047 1040.17 931.968C1026.72 917.388 1007.09 907.873 983.999 900.758C1015.93 887.92 1034.31 889.744 1067.6 902.593C1080.61 930.709 1088.23 943.291 1102.55 958.396C1089.46 919.82 1086.4 924.027 1083.65 889.677C1090.22 912.665 1094.82 926.026 1106.23 951.517C1105.06 892.049 1099.66 864.928 1081.95 827.242L1122.3 870.983C1111.82 903.4 1111.5 923.858 1122.87 965.278C1136.26 909.787 1162.06 908.82 1166.85 877.484C1158.54 886.394 1152.99 888.941 1142.43 891.627C1161.06 876.556 1166.64 861.273 1180.37 836.06C1178.51 910.294 1167.11 905.619 1149.21 920.92C1140.12 932.772 1129.47 956.416 1119.09 1003.51L1133.95 1001.34C1144.46 972.095 1148.28 954.551 1170.09 931.594C1164.1 932.007 1159.72 935.084 1150.26 945.064Z" fill="#C56593"/>
</g>
<mask id="mask2_17_7" style="mask-type:alpha" maskUnits="userSpaceOnUse" x="1345" y="838" width="169" height="164">
<path d="M1353.59 1001.65L1513.32 920.589C1485.72 866.19 1425.93 831.383 1422.27 839.483C1418.6 847.582 1427.2 864.531 1427.2 864.531L1407.84 846.805C1386.87 848.896 1362.27 860.431 1353.69 889.489L1362.5 906.866C1362.5 906.866 1350.19 897.916 1346.7 902.536C1343.21 907.156 1346.86 961.991 1353.59 1001.65Z" fill="#27844C"/>
</mask>
<g mask="url(#mask2_17_7)">
<path d="M1353.59 1001.65L1513.32 920.589C1485.72 866.19 1425.93 831.383 1422.27 839.483C1418.6 847.582 1427.2 864.531 1427.2 864.531L1407.84 846.805C1386.87 848.896 1362.27 860.431 1353.69 889.489L1362.5 906.866C1362.5 906.866 1350.19 897.916 1346.7 902.536C1343.21 907.156 1346.86 961.991 1353.59 1001.65Z" fill="#C56593"/>
<rect width="3.66759" height="92.368" transform="matrix(0.507456 -0.861677 0.688002 0.725708 1334.6 920.828)" fill="#882D59"/>
<rect width="3.37179" height="137.35" transform="matrix(0.877228 -0.480073 0.465411 0.885095 1366.05 847.46)" fill="#882D59"/>
<rect width="3.38923" height="137.018" transform="matrix(0.946947 -0.32139 0.3922 0.91988 1388.8 834.034)" fill="#882D59"/>
</g>
<mask id="mask3_17_7" style="mask-type:alpha" maskUnits="userSpaceOnUse" x="275" y="890" width="212" height="129">
<path d="M275 969.138L483.353 1018.4C495.754 965.951 463.878 905.672 454.681 908.549C445.485 911.425 441.621 927.768 441.621 927.768L435.862 904.099C414.561 892.14 383.144 883.942 354.47 897.162L350.509 913.917C350.509 913.917 345.199 900.354 338.634 901.109C332.068 901.865 296.708 939.394 275 969.138Z" fill="#27844C"/>
</mask>
<g mask="url(#mask3_17_7)">
<path d="M275 969.138L483.353 1018.4C495.754 965.951 463.878 905.672 454.681 908.549C445.485 911.425 441.621 927.768 441.621 927.768L435.862 904.099C414.561 892.14 383.144 883.942 354.47 897.162L350.509 913.917C350.509 913.917 345.199 900.354 338.634 901.109C332.068 901.865 296.708 939.394 275 969.138Z" fill="#185E8B"/>
<rect width="4.0848" height="84.3156" transform="matrix(0.978156 -0.207873 0.149813 0.988714 314.251 905.182)" fill="#2FB5A6"/>
<rect width="4.02908" height="121.36" transform="matrix(0.978203 0.207652 -0.210997 0.977487 395.901 878.013)" fill="#2FB5A6"/>
<rect width="4.03225" height="121.278" transform="matrix(0.943491 0.331397 -0.31662 0.948552 426.906 883.822)" fill="#2FB5A6"/>
<rect width="4.1084" height="119.288" transform="matrix(0.721762 0.692141 -0.641846 0.766833 502.272 924.606)" fill="#2FB5A6"/>
</g>
<path d="M1447.48 762.639C1366.49 761.836 1370.95 658.173 1381 652.553C1391.04 646.934 1479.41 719.906 1447.48 762.639Z" fill="#11693C"/>
<path d="M1388.77 667.215C1442.98 738.07 1469.64 781.905 1471.69 864.429L1464.87 861.905C1466.32 781.987 1439.23 738.197 1388.77 667.215Z" fill="#D4B131"/>
<path d="M28.0561 864.045C45.5506 901.958 57.4043 920.047 83.3465 944.879L65.3666 964.346C40.8163 930.04 35.2156 903.714 28.0561 864.045Z" fill="#2C8C4A"/>
<path d="M107.438 917.418L90.2312 935.506C56.7235 869.834 63.5793 850.097 71.8522 824.065C77.57 865.963 83.8359 887.416 107.438 917.418Z" fill="#2C8C4A"/>
<path d="M58.973 973.813L45.1098 993.05C8.92804 961.556 -8.90488 924.169 -3.81058 876.272C12.8269 916.775 22.0059 946.87 58.973 973.813Z" fill="#2C8C4A"/>
<path d="M136.983 885.402L120.904 897.596C95.1169 866.857 95.3452 845.033 110.228 804.428C109.96 842.323 114.356 860.911 136.983 885.402Z" fill="#2C8C4A"/>
<path d="M163.833 859.487L151.359 868.808C134.831 853.819 136.756 834.341 150.212 789.682L150.197 789.952C148.187 824.116 147.056 843.354 163.833 859.487Z" fill="#2C8C4A"/>
<path d="M194.8 833.342L184.572 841.566C175.722 811.894 187.352 796.698 207.019 769.501C197.434 796.711 191.054 812.442 194.8 833.342Z" fill="#2C8C4A"/>
<path d="M230.302 810.101L218.391 816.476C214.886 789.657 227.187 782.421 247.412 768.577C233.873 783.712 224.999 791.995 230.302 810.101Z" fill="#2C8C4A"/>
<path d="M296.878 797.389C274.151 803.624 261.522 807.856 237.626 806.412L224.284 817.604C248.535 821.227 272.963 809.273 296.878 797.389Z" fill="#2C8C4A"/>
<path d="M290.581 830.292C254.371 836.065 234.38 838.456 202.73 831.805L189.974 842.6C230.218 847.567 252.095 843.328 290.581 830.292Z" fill="#2C8C4A"/>
<path d="M251.329 862.488C219.48 862.824 194.235 867.435 169.235 860.521L152.195 875.077C181.096 881.798 234.947 873.606 251.329 862.488Z" fill="#2C8C4A"/>
<path d="M240.873 890.522C181.223 898.959 159.713 895.533 130.475 892.81L115.681 906.269C170.993 907.912 223.229 902.951 240.873 890.522Z" fill="#2C8C4A"/>
<path d="M218.139 916.206C169.307 927.862 145.114 928.21 102.309 925.6L87.1601 943.573C160.623 946.333 203.388 934.764 218.139 916.206Z" fill="#2C8C4A"/>
<path d="M190.956 949.184C137.264 960.787 112.787 961.745 75.9919 956.708L60.4463 974.095C106.692 982.746 138.676 966.943 190.956 949.184Z" fill="#2C8C4A"/>
<path d="M154.996 988.119C121.359 994.601 87.337 994.014 55.2652 987.867L45.8005 1005.4C80.1291 1013.71 119.095 1003.84 154.996 988.119Z" fill="#2C8C4A"/>
<path d="M244.741 801.156C257.304 788.677 266.385 783.486 283.753 775.532C270.148 790.265 261.288 794.958 244.741 801.156Z" fill="#2C8C4A"/>
<path d="M254.99 795.481C179.312 836.494 137.229 858.437 25.0502 1010.08L37.7879 1020.67C85.3591 937.214 139.227 877.681 254.99 795.481Z" fill="#6CB236"/>
<g filter="url(#filter0_i_17_7)">
<path d="M1222.95 960.68C1161.98 960.802 1128.2 920.009 1066.57 984.942C1034.82 978.128 1017.13 970.47 984.409 1000.19C955.416 979.199 922.875 972.735 916.015 995.687C881.047 995.763 866.504 999.737 860.132 1022.03C846.006 998.716 832.219 997.107 800.496 1008.16C771.666 1002.7 758.456 1001.76 765.464 1022.03C746.058 1012.14 735.372 1011.12 717.922 1046.64L717.77 1046.37C702.836 1020.11 694.417 1005.31 656.618 1022.03C612.338 985.131 601.282 994.251 586.138 1009.2C564.505 1004.43 552.809 1001.66 542.35 1005.37C532.151 1008.98 524.859 1005.31 518.346 1017.52C486.176 972.498 461.485 965.662 415.338 975.584C382.854 962.258 363.481 959.587 334.665 978.01C319.961 950.929 305.555 947.219 273.361 952.709C246.59 931.111 236.393 912.347 184.115 926.02C154.642 910.168 142.907 910.606 129.483 926.02C133.155 894.734 126.319 883.199 89.0304 879.576C64.4489 877.814 52.3975 879.653 36.0667 891.36L-6.88815 879.576L-39 891.36V1234.15C-30.5828 1264.45 -24.2526 1278.63 12.2956 1259.8C40.3399 1264.4 45.5003 1257.52 52.7482 1243.51C46.7455 1281.1 64.1595 1272.79 89.0304 1266.73C125.617 1263.69 142.479 1259.04 152.003 1234.15C191.577 1246.5 213.782 1254.6 252.509 1212.31C317.015 1206.59 334.027 1194.5 351.347 1166.91C403.737 1183.58 419.482 1172.85 439.341 1141.61C476.196 1148.64 494.509 1143.58 525.668 1128.78C540.211 1140.67 553.631 1141.48 584.053 1135.71C594.746 1168.65 611.121 1174.9 656.618 1166.91C671.017 1193.78 683.122 1190.38 705.411 1181.12C704.18 1193.79 704.576 1200.5 733.353 1201.91C749.335 1214.96 758.196 1212.32 773.805 1188.05C792.1 1209.31 809.633 1207.1 845.119 1194.98C877.236 1212.95 888.664 1200.58 911.845 1188.05C931.3 1183.02 941.819 1179.97 928.526 1155.47C946.772 1164.87 957.255 1167.21 977.319 1155.47C996.803 1140.58 1002.44 1133.29 999.839 1123.93C1002.34 1132.94 1007.59 1130.88 1026.11 1128.78C1049.16 1153.67 1058.61 1143.41 1077.83 1141.61C1106.82 1150.94 1113.6 1143.91 1123.7 1128.78C1131.32 1165.44 1149.23 1171.92 1189.17 1175.23C1207.98 1185.26 1218.06 1182.33 1235.47 1166.91C1241.94 1190.14 1251.1 1194.7 1277.17 1188.05C1308.26 1195.83 1322.75 1196.4 1331.38 1175.23C1341.5 1193.19 1349.8 1193.7 1366.41 1188.05C1382.69 1195.88 1391.8 1199.97 1406.87 1181.12C1456.51 1182.47 1459.52 1169.08 1458.58 1141.61C1497.15 1128.55 1502.36 1116.49 1491.94 1089.27C1528.06 1068.5 1523.72 1059.88 1509.88 1045.25C1500.98 1020.76 1512.64 1004.78 1469.42 984.942C1466.03 966.875 1472.69 952.19 1419.38 960.68C1421.85 934.967 1419.29 923.648 1386.02 926.02C1351.73 912.549 1332.8 898.164 1296.77 926.02C1252.11 918.755 1236.75 927.396 1222.95 960.68Z" fill="#014C58"/>
</g>
<path d="M52.9371 801.248L-16.4321 795.15L-23.1582 800.324L-12.2975 801.137C-10.7343 801.255 -9.28076 801.985 -8.25364 803.169L1.69017 814.634L7.84247 823.48L13.9948 832.326L25.0373 844.983L29.2539 848.64C30.7748 849.959 33.0768 848.479 32.5081 846.548L30.3815 838.522L28.8523 832.751C28.4557 831.254 27.8657 829.815 27.0971 828.471L24.6187 824.135C23.5229 822.218 22.1653 820.463 20.5851 818.921L16.3483 814.787C15.8735 814.324 15.3607 813.901 14.8152 813.523L2.14926 804.751C1.13664 804.049 1.72892 802.46 2.95354 802.593L16.2825 804.035C17.5577 804.173 18.754 804.72 19.6925 805.594L23.7743 809.396L43.7391 830.596L51.7025 837.337C53.5196 838.875 56.2181 837.082 55.5048 834.811L54.1588 830.525C54.0523 830.186 53.9158 829.857 53.7506 829.543L51.6929 825.624C50.249 822.874 48.28 820.434 45.8974 818.442L43.6504 816.563L31.4312 807.847C30.4172 807.123 31.0581 805.526 32.291 805.704L37.6731 806.481C37.9007 806.513 38.1138 806.612 38.2866 806.763L52.4589 819.188L65.9028 831.668C66.6791 832.388 67.5514 832.998 68.4948 833.479C70.5161 834.51 72.6471 832.294 71.5381 830.314L68.2853 824.508C66.8662 821.975 64.9949 819.724 62.7641 817.866L57.43 813.422C56.935 813.01 56.4073 812.638 55.8521 812.311L46.6738 806.909C45.7111 806.342 45.9915 804.881 47.0955 804.711L53.14 803.779L71.2997 809.395L82.3413 811.533C82.7528 811.613 83.1716 811.649 83.5906 811.641L87.2192 811.567C89.7961 811.516 90.4584 807.973 88.0744 806.994L81.395 804.249C79.9182 803.643 78.384 803.186 76.8157 802.887L65.9582 800.817C64.9799 800.63 63.982 800.567 62.988 800.63L53.1157 801.25C53.0562 801.254 52.9965 801.253 52.9371 801.248Z" fill="#C56593"/>
<path d="M9.38159 786.521L-3.29496 796.272L5.57664 797.282L22.8021 787.425L30.3855 781.592C32.6392 779.858 34.5635 777.734 36.0668 775.32L45.1273 760.773C46.4804 758.601 43.9148 756.118 41.7882 757.542L27.6184 767.03C25.7294 768.295 24.0317 769.825 22.5772 771.572L13.1552 782.89C12.0349 784.235 10.7694 785.453 9.38159 786.521Z" fill="#C56593"/>
<path d="M28.9129 793.953L22.1589 799.149L35.2075 799.817L41.7872 796.727C43.7849 795.788 45.642 794.576 47.3052 793.125L54.1959 787.113C56.3512 785.233 58.1494 782.979 59.5038 780.459L62.1467 775.543C63.2575 773.477 61.0206 771.222 58.9455 772.316L42.123 781.186C39.2589 782.696 36.7336 784.776 34.7021 787.297L30.9202 791.991C30.331 792.722 29.6572 793.381 28.9129 793.953Z" fill="#C56593"/>
<path d="M71.5266 786.017L39.4348 800.221L46.4008 801.13L54.2754 798.467L63.74 793.797L72.6473 788.105C73.8844 787.314 72.8692 785.423 71.5266 786.017Z" fill="#C56593"/>
<path d="M1420.75 798.455C1363.33 825.05 1331.71 750.403 1336.92 743.069C1342.12 735.736 1428.95 757.59 1420.75 798.455Z" fill="#11693C"/>
<path d="M1347.32 750.807C1409.33 782.626 1442.84 804.617 1471.97 862.159L1466.31 862.668C1440.54 805.785 1406.73 783.974 1347.32 750.807Z" fill="#D4B131"/>
</g>
<defs>
<filter id="filter0_i_17_7" x="-39" y="879" width="1559" height="397" filterUnits="userSpaceOnUse" color-interpolation-filters="sRGB">
<feFlood flood-opacity="0" result="BackgroundImageFix"/>
<feBlend mode="normal" in="SourceGraphic" in2="BackgroundImageFix" result="shape"/>
<feColorMatrix in="SourceAlpha" type="matrix" values="0 0 0 0 0 0 0 0 0 0 0 0 0 0 0 0 0 0 127 0" result="hardAlpha"/>
<feOffset dy="5"/>
<feGaussianBlur stdDeviation="2"/>
<feComposite in2="hardAlpha" operator="arithmetic" k2="-1" k3="1"/>
<feColorMatrix type="matrix" values="0 0 0 0 0.976471 0 0 0 0 0.87451 0 0 0 0 0.639216 0 0 0 0.25 0"/>
<feBlend mode="normal" in2="shape" result="effect1_innerShadow_17_7"/>
</filter>
<clipPath id="clip0_17_7">
<rect width="1440" height="1088" fill="white"/>
</clipPath>
</defs>
</svg>
