<svg width="93" height="59" viewBox="0 0 93 59" fill="none" xmlns="http://www.w3.org/2000/svg">
<path d="M92.1992 55.5959C93.5353 56.8511 92.5907 58.9999 90.7029 58.9999H2.12215C0.234367 58.9999 -0.710174 56.8511 0.625872 55.5959L38.5538 19.9641C39.3846 19.1835 40.7315 19.1879 41.5566 19.9738L44.877 23.1363C45.7026 23.9227 47.0505 23.9265 47.8811 23.1448L51.2684 19.9569C52.095 19.1789 53.435 19.1784 54.2623 19.9556L92.1992 55.5959Z" fill="#FF9D66"/>
<path d="M28.4158 58.9999L46.831 42.2686L65.3565 58.9999H28.4158Z" fill="#DB693B"/>
<path d="M69.9747 12.0777C71.8707 13.1305 71.0726 15.8507 68.8677 15.8507H47.6344C46.4367 15.8507 45.4658 14.9425 45.4658 13.8221V2.0317C45.4658 0.459153 47.2958 -0.515412 48.7414 0.287292L69.9747 12.0777Z" fill="#DB693B"/>
</svg>
