<svg width="1440" height="374" viewBox="0 0 1440 374" fill="none" xmlns="http://www.w3.org/2000/svg">
<g clip-path="url(#clip0_18_267)">
<g filter="url(#filter0_i_18_267)">
<path d="M420.995 238.718C402.213 239.773 369.566 266.395 355.591 279.575L244.572 300.926H152V374H355.591H1086.5H1285V285.374L1156.54 279.048L1091.47 263.232C1050.55 252.425 1022.38 213.15 981.123 200.761C973.252 198.398 953.619 196.368 946.24 196.016C934.501 190.305 910.218 177.301 906.998 170.975C902.973 163.067 831.532 137.763 803.693 133.282C775.854 128.801 760.09 132.491 711.121 131.437C671.946 130.593 653.655 140.223 649.406 145.143C646.835 147.603 637.332 156.214 619.891 170.975C602.45 185.736 573.046 195.401 560.524 198.389C556.611 198.74 544.089 199.232 525.306 198.389C506.524 197.545 467.84 218.07 450.846 228.438C448.722 231.426 439.778 237.664 420.995 238.718Z" fill="#505152"/>
</g>
<g style="mix-blend-mode:soft-light" opacity="0.5">
<path d="M817.912 355.758C819.699 360.592 821.763 365.664 822.516 366.936C824.833 368.592 829.159 371.139 840.439 370.295C850.483 369.543 854.185 365.019 856.245 362.501C856.498 362.191 856.727 361.912 856.939 361.673C857.353 360.466 858.242 356.575 859.061 352.446C860.141 353.054 861.203 353.24 862.034 352.781C864.154 351.609 865.862 348.494 864.642 344.502C863.869 342.677 862.882 340.618 861.732 339.024C863.596 334.071 866.503 324.952 866.316 323.053C866.316 323.053 866.242 323.103 866.101 323.198C865.809 321.066 864.212 319.227 861.644 317.774C861.715 317.336 861.785 316.898 861.856 316.46C862.351 313.397 862.842 310.352 863.272 307.26C863.517 307.916 863.777 308.536 864.045 309.098C864.38 309.499 864.737 309.966 865.111 310.456C866.739 312.588 868.71 315.168 870.742 314.76L874.084 314.089C876.386 313.626 878.709 312.371 880.545 310.285C882.175 308.434 883.56 306.179 884.946 303.921C885.474 303.061 886.003 302.2 886.545 301.361C888.416 298.467 888.971 294.16 889.133 290.042C889.751 274.335 882.93 259.859 875.326 249.704C875.091 249.389 874.855 249.072 874.619 248.756L874.615 248.75C872.465 245.861 870.305 242.959 867.759 241.018C866.644 240.168 864.788 239.197 863.254 239.368C862.673 237.031 861.859 234.876 860.697 233.22C858.39 229.93 856.327 227.333 853.681 225.028C853.202 224.611 852.721 224.208 852.237 223.818C852.179 210.843 851.036 194.215 844.133 193.343C838.404 192.619 838.183 206.337 838.264 216.715C833.512 215.644 828.643 214.706 823.938 215.055C822.188 204.962 820.304 196.751 814.847 198.464C809.046 200.285 809.111 209.291 810.718 220.06C808.661 221.738 807.093 224.785 805.712 227.771C803.955 231.57 802.519 235.288 801.861 240.231C800.999 246.705 800.509 253.178 801.127 260.088C801.297 261.99 801.419 263.906 801.541 265.827C801.663 267.758 801.786 269.694 801.959 271.624C802.138 273.621 802.365 275.598 802.592 277.577C802.781 279.22 802.97 280.864 803.131 282.521C801.425 282.652 799.476 283.707 798.2 284.887C797.562 285.477 796.85 286.01 796.126 286.553C794.351 287.882 792.499 289.27 791.452 291.699C791.327 291.99 791.194 292.276 791.062 292.564C790.476 293.83 789.883 295.112 789.885 296.799C789.888 298.842 790.062 300.42 790.39 302.436C791.006 306.219 792.747 308.021 795.364 308.271C797.832 308.507 799.162 307.779 801.28 306.328C802.919 305.205 804.19 304.05 805.466 302.654C805.89 305.297 806.375 307.902 806.939 310.431C807.195 311.577 807.412 312.792 807.632 314.019C808.046 316.331 808.467 318.686 809.164 320.7C809.483 321.62 809.783 322.794 810.044 323.915C807.643 326.055 806.373 328.361 806.597 330.63C806.713 331.812 807.227 332.906 808.083 333.897C809.353 336.779 811.335 340.692 813.018 343.748C812.314 345.119 811.456 346.869 811.52 348.719C811.678 353.316 814.293 356.87 817.084 356.118C817.358 356.044 817.635 355.922 817.912 355.758Z" fill="url(#paint0_linear_18_267)"/>
</g>
<g filter="url(#filter1_i_18_267)">
<path d="M803.825 99.4333C805.177 96.2862 806.783 92.974 807.421 92.1301C809.585 90.9557 813.675 89.1067 825.007 89.0024C835.097 88.9095 839.195 91.5517 841.476 93.0219C841.756 93.2029 842.01 93.3662 842.243 93.5044C842.764 94.2416 843.999 96.6434 845.184 99.1991C846.208 98.755 847.251 98.5777 848.121 98.8201C850.342 99.439 852.325 101.306 851.463 103.89C850.855 105.083 850.054 106.437 849.049 107.506C851.352 110.522 855.067 116.104 855.05 117.311C855.05 117.311 854.972 117.283 854.822 117.231C854.721 118.591 853.292 119.841 850.859 120.901C850.969 121.173 851.079 121.445 851.188 121.717C851.956 123.619 852.718 125.51 853.423 127.434C853.609 127.007 853.813 126.602 854.031 126.232C854.329 125.961 854.643 125.646 854.973 125.316C856.407 123.881 858.144 122.144 860.207 122.287L863.602 122.521C865.941 122.683 868.372 123.343 870.39 124.553C872.182 125.628 873.765 126.971 875.35 128.315C875.954 128.827 876.559 129.34 877.175 129.838C879.301 131.556 880.239 134.239 880.769 136.825C882.788 146.687 877.275 156.194 870.594 163.021C870.387 163.233 870.18 163.446 869.973 163.658L869.969 163.663C868.082 165.604 866.186 167.555 863.818 168.922C862.781 169.52 861.016 170.236 859.47 170.215C859.099 171.72 858.479 173.124 857.468 174.233C855.459 176.437 853.632 178.189 851.197 179.791C850.757 180.081 850.313 180.362 849.865 180.635C850.966 188.814 850.98 196.115 844.169 197.054C838.516 197.833 837.402 192.442 836.555 185.899C831.909 186.841 827.133 187.707 822.407 187.753C821.563 194.211 820.416 199.492 814.817 198.72C808.866 197.9 808.125 192.221 808.768 185.345C806.565 184.404 804.728 182.572 803.083 180.768C800.991 178.473 799.225 176.212 798.127 173.134C796.689 169.103 795.621 165.052 795.621 160.663C795.621 159.455 795.571 158.241 795.521 157.023C795.471 155.8 795.421 154.573 795.421 153.347C795.421 152.079 795.471 150.82 795.521 149.561C795.562 148.515 795.604 147.468 795.617 146.415C793.902 146.428 791.864 145.873 790.485 145.202C789.795 144.866 789.037 144.57 788.266 144.269C786.376 143.532 784.404 142.762 783.142 141.29C782.991 141.114 782.834 140.941 782.675 140.767C781.978 140.003 781.272 139.228 781.123 138.165C780.943 136.878 780.976 135.873 781.123 134.585C781.4 132.166 782.976 130.932 785.566 130.627C788.008 130.339 789.4 130.723 791.643 131.518C793.379 132.133 794.751 132.789 796.148 133.597C796.336 131.907 796.587 130.239 796.924 128.613C797.077 127.877 797.185 127.099 797.295 126.313C797.501 124.833 797.711 123.326 798.227 122.017C798.463 121.42 798.657 120.663 798.818 119.942C796.231 118.729 794.757 117.347 794.778 115.905C794.788 115.154 795.204 114.435 795.969 113.762C796.979 111.875 798.608 109.298 800.014 107.277C799.188 106.453 798.177 105.398 798.075 104.229C797.822 101.324 800.114 98.9363 802.966 99.2532C803.246 99.2843 803.534 99.3455 803.825 99.4333Z" fill="#002F4D"/>
</g>
<g style="mix-blend-mode:soft-light" opacity="0.5">
<path d="M637.337 380.84C637.013 378.47 637.146 372.086 637.252 368.531C632.732 370.842 627.533 372.158 622.001 372.158C616.469 372.158 611.268 370.842 606.747 368.529C606.856 372.084 606.992 378.469 606.661 380.84C606.191 384.201 605.252 389.242 602.669 388.233C601.408 387.741 601.378 385.006 601.35 382.413C601.321 379.696 601.293 377.136 599.851 377.48C598.095 377.899 596.612 383.799 595.347 388.837C594.581 391.883 593.895 394.613 593.276 395.626C591.632 398.315 586.189 393.208 588.345 388.233C589.03 386.652 590.676 383.459 592.557 379.808C593.461 378.055 594.419 376.196 595.351 374.359C594.642 374.641 593.858 374.766 592.993 374.679C589.138 374.294 586.887 375.512 585.196 376.428C584.042 377.052 583.149 377.536 582.185 377.273C579.807 376.625 578.294 372.517 579.807 364.087C580.987 357.514 589.526 355.54 593.231 354.989C591.439 351.326 590.441 347.258 590.441 342.976C590.441 333.884 594.938 325.763 601.987 320.411C601.616 319.353 601.266 318.275 600.934 317.182C587.024 308.215 580.08 301.826 572.053 287.318L572.113 287.285C569.558 285.333 567.425 278.213 568.14 277.62C568.885 277.004 571.541 277.278 573.746 277.873C573.876 276.141 574.115 274.68 575.378 274.387C576.642 274.094 583.391 281.183 583.391 281.183L583.334 281.251C585.742 284.766 588.084 287.756 590.32 290.61C592.634 293.563 594.834 296.371 596.873 299.464C596.705 298.562 596.539 297.667 596.376 296.784L596.376 296.782C595.138 290.09 594.019 284.038 592.418 279.866C589.608 272.546 595.998 264.374 602.608 260.59C601.498 255.891 602.927 248.118 604.755 238.17C605.139 236.077 605 235 605.5 232C606 229 608.855 219.854 609.902 220.002C611.011 220.159 612.907 220.746 614.105 222.498C615.469 221.247 616.735 220.305 618.074 221.163C619.414 222.022 619.934 233.532 619.934 233.532C619.8 233.574 620.066 233.493 619.934 233.532C619.702 244.083 619.686 250.883 619.91 260.083C621.085 260.116 621.785 260.184 621.785 260.184C621.785 260.184 623.15 260.099 625.933 260.184C625.903 258.002 625.989 258.029 625.933 255.5C625.801 255.461 626.068 252.983 625.933 252.941C625.933 252.941 626.691 202.024 628.031 201.166C629.37 200.308 630.637 201.249 632 202.5C633.198 200.748 635.094 200.161 636.203 200.004C637.25 199.856 642 226.5 642.813 230.442C643.626 234.383 643.615 234.907 644 237C644.251 238.365 644.494 239.689 644.724 240.97C650.666 245.084 653.286 273.18 650.72 279.866C649.118 284.038 648 290.089 646.762 296.782C645.88 301.554 644.937 306.654 643.716 311.629C652.885 313.337 658.125 315.611 663.679 321.093L663.62 321.126C665.881 321.642 667.371 325.213 666.656 325.72C665.912 326.248 663.435 326.714 661.404 326.892C661.158 327.913 660.827 328.804 659.618 329.269C658.409 329.733 652.578 327.264 652.578 327.264L652.636 327.212C650.627 325.766 648.641 324.606 646.745 323.499C645.518 322.782 644.329 322.088 643.196 321.353C649.563 326.692 653.562 334.402 653.562 342.976C653.562 347.326 652.532 351.453 650.687 355.162C654.747 355.907 661.993 358.07 663.073 364.087C664.586 372.517 663.073 376.625 660.695 377.273C659.731 377.536 658.837 377.052 657.684 376.428C655.993 375.512 653.742 374.294 649.887 374.679C649.41 374.727 648.957 374.71 648.528 374.638C649.395 376.384 650.281 378.143 651.119 379.807C652.958 383.458 654.567 386.651 655.237 388.233C657.343 393.208 652.024 398.315 650.417 395.626C649.812 394.613 649.142 391.883 648.394 388.837C647.157 383.8 645.708 377.899 643.992 377.48C642.583 377.136 642.556 379.696 642.527 382.413C642.499 385.006 642.471 387.741 641.238 388.233C638.714 389.242 637.796 384.201 637.337 380.84Z" fill="url(#paint1_linear_18_267)"/>
</g>
<g filter="url(#filter2_i_18_267)">
<path d="M637.337 63.5286C637.013 65.8992 637.146 72.2828 637.252 75.8381C632.732 73.5265 627.533 72.2106 622.001 72.2106C616.469 72.2106 611.268 73.527 606.747 75.8396C606.856 72.2845 606.992 65.8995 606.661 63.5286C606.191 60.168 605.252 55.1273 602.669 56.1356C601.408 56.6279 601.378 59.3633 601.35 61.9558C601.321 64.6728 601.293 67.2327 599.851 66.8889C598.095 66.4701 596.612 60.5695 595.347 55.5317C594.581 52.4859 593.895 49.7555 593.276 48.7425C591.632 46.0542 586.189 51.1609 588.345 56.1356C589.03 57.7174 590.676 60.91 592.557 64.5612C593.461 66.3139 594.419 68.173 595.351 70.0097C594.642 69.7283 593.858 69.6034 592.993 69.6899C589.138 70.0754 586.887 68.8567 585.196 67.9411C584.042 67.3165 583.149 66.8329 582.185 67.0959C579.807 67.7444 578.294 71.8515 579.807 80.282C580.987 86.8552 589.526 88.8289 593.231 89.3796C591.439 93.0434 590.441 97.1105 590.441 101.393C590.441 110.485 594.938 118.606 601.987 123.958C601.616 125.016 601.266 126.094 600.934 127.187C587.024 136.154 580.08 142.543 572.053 157.051L572.113 157.084C569.558 159.036 567.425 166.156 568.14 166.749C568.885 167.365 571.541 167.091 573.746 166.496C573.876 168.228 574.115 169.689 575.378 169.982C576.642 170.275 583.391 163.186 583.391 163.186L583.334 163.118C585.742 159.603 588.084 156.613 590.32 153.759C592.634 150.806 594.834 147.998 596.873 144.905C596.705 145.807 596.539 146.702 596.376 147.585L596.376 147.587C595.138 154.279 594.019 160.331 592.418 164.503C589.608 171.823 595.998 179.995 602.608 183.779C601.498 188.478 602.927 196.251 604.755 206.199C605.139 208.292 605.542 210.481 605.942 212.758C605.273 216.634 608.855 224.515 609.902 224.367C611.011 224.21 612.907 223.623 614.105 221.871C615.469 223.122 616.735 224.064 618.074 223.205C619.414 222.347 620.334 210.958 620.334 210.958C620.2 210.916 620.066 210.876 619.934 210.837C619.702 200.286 619.686 193.486 619.91 184.286C621.085 184.252 621.785 184.185 621.785 184.185C621.785 184.185 623.679 184.368 626.462 184.283C626.432 186.465 626.389 188.778 626.333 191.306C626.201 191.346 626.068 191.386 625.933 191.428C625.933 191.428 626.853 202.817 628.193 203.675C629.533 204.533 630.799 203.591 632.162 202.341C633.36 204.093 635.256 204.68 636.365 204.837C637.412 204.984 640.994 197.104 640.326 193.228C640.726 190.951 641.128 188.762 641.513 186.669C641.763 185.305 642.007 183.98 642.237 182.7C648.178 178.585 653.286 171.189 650.72 164.503C649.118 160.331 648 154.279 646.762 147.587C645.88 142.815 644.937 137.715 643.716 132.74C652.885 131.032 658.125 128.758 663.679 123.276L663.62 123.243C665.881 122.727 667.371 119.156 666.656 118.649C665.912 118.121 663.435 117.655 661.404 117.477C661.158 116.456 660.827 115.565 659.618 115.1C658.409 114.636 652.578 117.105 652.578 117.105L652.636 117.157C650.627 118.603 648.641 119.763 646.745 120.87C645.518 121.586 644.329 122.281 643.196 123.016C649.563 117.677 653.562 109.967 653.562 101.393C653.562 97.0432 652.532 92.9157 650.687 89.2072C654.747 88.4618 661.993 86.2987 663.073 80.282C664.586 71.8515 663.073 67.7444 660.695 67.0959C659.731 66.8329 658.837 67.3165 657.684 67.9411C655.993 68.8567 653.742 70.0754 649.887 69.6899C649.41 69.6422 648.957 69.6588 648.528 69.7306C649.395 67.9852 650.281 66.226 651.119 64.562C652.958 60.9105 654.567 57.7175 655.237 56.1356C657.343 51.1609 652.024 46.0542 650.417 48.7425C649.812 49.7555 649.142 52.4859 648.394 55.5317C647.157 60.5695 645.708 66.4701 643.992 66.8889C642.583 67.2327 642.556 64.6728 642.527 61.9558C642.499 59.3633 642.471 56.6279 641.238 56.1356C638.714 55.1273 637.796 60.168 637.337 63.5286Z" fill="#002F4D"/>
</g>
<g style="mix-blend-mode:soft-light" opacity="0.5">
<path d="M730.609 406.991C720.638 407.22 711.496 403.001 704.578 397.481C696.29 401.457 686.214 390.31 690.531 377.265C685.517 374.005 682.574 370.033 682.52 365.693C682.472 361.787 684.77 358.07 688.826 354.822C687.185 349.008 686.291 342.964 686.291 336.992C686.291 318.559 688.78 307.976 701.353 302.89C700.624 302.435 700.127 301.868 700.066 301.157C699.923 301.492 699.777 301.825 699.627 302.158L695.501 299.58C695.619 298.979 695.735 298.38 695.849 297.784C689.452 291.83 681.809 280.34 677.465 264.205C671.922 247.638 670.144 226.265 680.401 221.509C688.607 221.463 690.845 226.365 693.775 235.976C694.391 220.771 697.4 209.324 702.596 201.358C702.694 199.132 703.767 195.907 704 194.5C704.233 193.093 705.5 190 707 187.688C711.363 179.505 720.99 181.858 725.913 183.061C726.295 183.154 726.648 183.24 726.968 183.314C730.026 184.02 733.137 187.274 733.137 187.274C735.049 187.334 736.923 187.464 738.747 187.688C741.171 178.633 744.099 169.861 746.295 170.109C746.619 170.146 746.977 170.181 747.363 170.22C752.352 170.719 762.107 171.693 764.839 181.094C767.465 190.128 766.44 200.355 764.926 210.536C767.786 220.436 768.675 234.391 766.866 253.967C765.917 264.236 764.638 273.15 763.019 280.822C770.721 280.937 781.423 284.462 791.437 293.937C802.97 303.164 813.448 319.269 807.061 331.179C799.661 338.309 795.675 334.797 787.884 327.932C785.373 325.72 782.467 323.16 778.924 320.496C776.125 317.499 773.35 314.73 770.703 312.151C773.702 318.04 774.253 326.161 774.253 336.992C774.253 342.356 773.531 347.779 772.195 353.04C776.221 356.072 778.544 359.633 778.592 363.485L778.592 363.492C778.649 368.336 775.097 372.888 769.061 376.616C773.973 390.03 763.521 401.686 755.063 397.394C748.455 402.7 739.943 406.777 730.609 406.991Z" fill="url(#paint2_linear_18_267)"/>
</g>
<g filter="url(#filter3_i_18_267)">
<path d="M730.455 0.00653343C720.51 -0.161485 711.392 2.93114 704.493 6.97743C696.227 4.06293 686.179 12.2337 690.484 21.7953C685.483 24.1851 682.549 27.0965 682.495 30.2777C682.447 33.1413 684.739 35.8655 688.784 38.2462C687.147 42.508 686.255 46.9382 686.255 51.3156C686.255 64.8265 688.738 72.584 701.277 76.3125C700.55 76.6458 700.054 77.0614 699.994 77.5822C699.851 77.3372 699.705 77.0928 699.556 76.849L695.441 78.7381C695.558 79.1791 695.674 79.6181 695.787 80.0551C689.408 84.4188 681.786 92.8412 677.453 104.668C671.924 116.812 670.152 132.478 680.382 135.964C688.566 135.998 690.797 132.405 693.719 125.36C694.334 136.505 697.335 144.895 702.517 150.734C702.614 152.366 702.681 154.025 702.749 155.693C703.109 164.551 703.48 173.668 708.362 180.398C712.713 186.397 722.314 184.672 727.224 183.791L727.226 183.79C727.606 183.722 727.957 183.659 728.277 183.605C731.326 183.087 732.524 169.52 732.976 161.058C734.883 161.014 736.751 160.919 738.57 160.754C740.988 167.392 743.908 173.822 746.098 173.64C746.421 173.613 746.778 173.587 747.164 173.558C752.139 173.193 761.868 172.479 764.593 165.588C767.211 158.966 766.19 151.47 764.68 144.007C767.532 136.75 768.418 126.522 766.614 112.172C765.667 104.646 764.392 98.1118 762.778 92.4882C770.459 92.4035 781.133 89.8198 791.119 82.8749C802.621 76.111 813.072 64.3065 806.701 55.5763C799.321 50.3506 795.346 52.9247 787.575 57.9562C785.071 59.5776 782.173 61.4543 778.64 63.4074C775.848 65.6042 773.081 67.6332 770.44 69.5236C773.432 65.2077 773.981 59.255 773.981 51.3156C773.981 47.3836 773.262 43.4091 771.929 39.5522C775.944 37.3301 778.261 34.7195 778.309 31.8965L778.309 31.8913C778.365 28.3404 774.823 25.0042 768.803 22.2716C773.702 12.4388 763.278 3.89539 754.843 7.04157C748.252 3.15206 739.764 0.163811 730.455 0.00653343Z" fill="#002F4D"/>
</g>
</g>
<defs>
<filter id="filter0_i_18_267" x="152" y="131" width="1133" height="251" filterUnits="userSpaceOnUse" color-interpolation-filters="sRGB">
<feFlood flood-opacity="0" result="BackgroundImageFix"/>
<feBlend mode="normal" in="SourceGraphic" in2="BackgroundImageFix" result="shape"/>
<feColorMatrix in="SourceAlpha" type="matrix" values="0 0 0 0 0 0 0 0 0 0 0 0 0 0 0 0 0 0 127 0" result="hardAlpha"/>
<feOffset dy="8"/>
<feGaussianBlur stdDeviation="4"/>
<feComposite in2="hardAlpha" operator="arithmetic" k2="-1" k3="1"/>
<feColorMatrix type="matrix" values="0 0 0 0 1 0 0 0 0 0.846667 0 0 0 0 0.0416667 0 0 0 0.27 0"/>
<feBlend mode="normal" in2="shape" result="effect1_innerShadow_18_267"/>
</filter>
<filter id="filter1_i_18_267" x="781" y="89" width="100.191" height="117.795" filterUnits="userSpaceOnUse" color-interpolation-filters="sRGB">
<feFlood flood-opacity="0" result="BackgroundImageFix"/>
<feBlend mode="normal" in="SourceGraphic" in2="BackgroundImageFix" result="shape"/>
<feColorMatrix in="SourceAlpha" type="matrix" values="0 0 0 0 0 0 0 0 0 0 0 0 0 0 0 0 0 0 127 0" result="hardAlpha"/>
<feOffset dy="8"/>
<feGaussianBlur stdDeviation="4"/>
<feComposite in2="hardAlpha" operator="arithmetic" k2="-1" k3="1"/>
<feColorMatrix type="matrix" values="0 0 0 0 1 0 0 0 0 0.846667 0 0 0 0 0.0416667 0 0 0 0.27 0"/>
<feBlend mode="normal" in2="shape" result="effect1_innerShadow_18_267"/>
</filter>
<filter id="filter2_i_18_267" x="568" y="48" width="98.8369" height="184.369" filterUnits="userSpaceOnUse" color-interpolation-filters="sRGB">
<feFlood flood-opacity="0" result="BackgroundImageFix"/>
<feBlend mode="normal" in="SourceGraphic" in2="BackgroundImageFix" result="shape"/>
<feColorMatrix in="SourceAlpha" type="matrix" values="0 0 0 0 0 0 0 0 0 0 0 0 0 0 0 0 0 0 127 0" result="hardAlpha"/>
<feOffset dy="8"/>
<feGaussianBlur stdDeviation="4"/>
<feComposite in2="hardAlpha" operator="arithmetic" k2="-1" k3="1"/>
<feColorMatrix type="matrix" values="0 0 0 0 1 0 0 0 0 0.846667 0 0 0 0 0.0416667 0 0 0 0.27 0"/>
<feBlend mode="normal" in2="shape" result="effect1_innerShadow_18_267"/>
</filter>
<filter id="filter3_i_18_267" x="673" y="0" width="135.635" height="192.715" filterUnits="userSpaceOnUse" color-interpolation-filters="sRGB">
<feFlood flood-opacity="0" result="BackgroundImageFix"/>
<feBlend mode="normal" in="SourceGraphic" in2="BackgroundImageFix" result="shape"/>
<feColorMatrix in="SourceAlpha" type="matrix" values="0 0 0 0 0 0 0 0 0 0 0 0 0 0 0 0 0 0 127 0" result="hardAlpha"/>
<feOffset dy="8"/>
<feGaussianBlur stdDeviation="4"/>
<feComposite in2="hardAlpha" operator="arithmetic" k2="-1" k3="1"/>
<feColorMatrix type="matrix" values="0 0 0 0 1 0 0 0 0 0.846667 0 0 0 0 0.0416667 0 0 0 0.27 0"/>
<feBlend mode="normal" in2="shape" result="effect1_innerShadow_18_267"/>
</filter>
<linearGradient id="paint0_linear_18_267" x1="830.801" y1="194.458" x2="846.493" y2="369.757" gradientUnits="userSpaceOnUse">
<stop stop-color="#002F4D"/>
<stop offset="1" stop-color="#002F4D" stop-opacity="0"/>
</linearGradient>
<linearGradient id="paint1_linear_18_267" x1="617.418" y1="200.004" x2="617.418" y2="396.369" gradientUnits="userSpaceOnUse">
<stop stop-color="#002F4D"/>
<stop offset="1" stop-color="#002F4D" stop-opacity="0"/>
</linearGradient>
<linearGradient id="paint2_linear_18_267" x1="741" y1="407" x2="741" y2="155" gradientUnits="userSpaceOnUse">
<stop stop-color="#002F4D" stop-opacity="0"/>
<stop offset="1" stop-color="#002F4D"/>
</linearGradient>
<clipPath id="clip0_18_267">
<rect width="1440" height="374" fill="white"/>
</clipPath>
</defs>
</svg>
