<svg width="1440" height="1338" fill="none" xmlns="http://www.w3.org/2000/svg"><path d="M868.902 1102.21c-5.122-24.34-14.119-40.19-35.945-52.59l-235.811 3.48c-8.503 1.16-22.927 5.64-28.909 12.08-6.292 6.76-17.35 13.31-20.088 22.75-2.129 7.33-10.026 13.31-12.824 20.5-1.162 2.99-1.846 7.05-3.347 9.56-2.979 4.98-2.271 8.7 1.789 1.91 3.929-6.57 15.258-8.56 19.185-15.13 4.073-6.81 14.777-8.89 21.782-9.85l11.659-1.6c4.669-.63 8.071.57 13.656 1.33 6.617.91 12.052 6.73 18.258 11.54 2.72 2.1 4.099 5.98 5.669 8.02 2.16 2.81 2.421 9.91 1.839 13.45-1.49 9.08-5.821 14.2-13.333 19.33-2.84 1.94-7.001 1.8-10.217 2.99-4.651 1.73-9.879 4.78-14.847 5.71-4.368.83-8.434 2.77-12.541 4.29-3.281 1.21-8.436 2.3-11.296 4.25-7.036 4.81-11.103 12.3-13.529 20.66-.743 2.57-1.128 6.02-1.672 9.9-.638 4.55-1.017 7.11-1.248 11.7-.227 4.52-.259 7.07.057 11.59.321 4.58 1.062 7.77 1.594 11.66.574 4.2 3.648-3.21 4.331-4.9 1.619-4.02 6.782-6.23 9.4-9.48 2.099-2.61 5.618-5.58 8.26-7.66 3.228-2.54 4.394-5.85 8.235-8.35 3.596-2.34 6.143-3.31 10.223-4.01 5.766-.99 11.092-2 15.002.56 5.474 3.59 7.873 12.13 5.18 18.63-1.769 4.27-6.475 8.27-10.652 11.99-3.978 3.55-7.344 5.2-10.224 6.46-15.121 6.65-25.782 16.66-23.425 33.91 1.175 8.59 9.522 14.78 10.71 23.47 1.001 7.32.895 15.69 1.802 22.32l1.678 12.28c.573 4.19 7.816-.21 9.902-.73 7.548-1.9 11.413-8.19 19.689-11.45 10.713-4.21 17.58-3.86 29.014-5.21 11.082-1.31 20.494-3 28.525-1.68 8.149 1.34 16.926.46 25.191-.67 10.263-1.4 5.169-9.28 6.158-15.85 2.941-19.55-19.773-25.35-26.929-42.85-3.259-7.98-10.074-18.98-3.326-24.33 5.792-4.6 11.897 1.94 18.324 5.59 8.97 5.1 15.895 15.62 20.771 23.5 1.818 2.94 4.645 5.73 7.065 9.57 2.249 3.58 3.124 6.3 5.266 9.94 1.791 3.04 1.967 5.09 3.741 8.15 2.316 3.98 2.689 7.17 3.931 9.99 1.313 2.99 2.251 5.29 2.708 8.64.785 5.74-3.255 7.94 2.161 7.2 13.77-1.88 33.928-15.62 42.1-26.38 4.36-5.74 8.368-11.47 10.348-18.29 1.885-6.5-5.006-15.32-8.443-20.1-4.218-5.88-13.029-9.91-19.505-12.61-6.806-2.85-14.619-8.66-20.553-13.17-4.163-3.16-8.414-4.77-13.017-8.85l-.089-.08c-3.603-3.18-5.726-5.06-8.39-9.11-4.8-7.28-8.102-13.75-6.369-21.41.741-3.28 3.046-6.83 5.821-8.79 3.066-2.17 7.542-2.2 11.099-2.3 11.197-.3 14.383 2.42 23.785 7.28 9.428 4.88 17.309 10.82 24.21 17.57 6.177 6.03 15.266 11.38 20.725 18.49 4.315 5.61 12.162 11.76 14.889 17.96.897 2.04 2.542 9.57 4.032 10.7.35.27 1.489-4.39 1.586-4.66.858-2.34 1.305-4.83 2.359-7.13 3.293-7.16-.473-16.67-1.508-24.24-1.181-8.64-2.561-19.87-7.935-27.04-6.685-8.93-22.739-33.73-10.934-46.76 6.615-7.3 16.406-8.55 24.994-3.42 7.207 4.31 13.497 9.73 19.32 19.31 5.333 8.77 8.003 11.76 12.108 21.17 2.056 4.72.93 13.95 2.48 18.14 1.903 5.14 2.728-1.12 4.427-4.7 6.216-13.1 8.883-25.59 10.418-42.68 1.099-12.24 1.98-19.44-.55-31.46z" fill="#B0C9AB"/><path d="M833.9 1056.51c21.825 12.41 30.822 28.25 35.945 52.6 2.529 12.02 1.649 19.22.55 31.45-1.536 17.09-4.202 29.59-10.418 42.68-1.699 3.58-2.525 9.85-4.427 4.71-1.551-4.19-.424-13.43-2.48-18.14-4.105-9.41-6.776-12.4-12.108-21.17-5.824-9.58-12.113-15-19.321-19.31-8.588-5.14-18.378-3.88-24.993 3.42-11.805 13.02 4.249 37.83 10.934 46.75 5.374 7.17 6.753 18.4 7.935 27.05 1.035 7.56 4.801 17.07 1.507 24.24-1.053 2.29-1.5 4.78-2.359 7.13-.097.26-1.235 4.93-1.585 4.66-1.49-1.13-3.136-8.66-4.033-10.7-2.727-6.2-10.573-12.35-14.889-17.97-5.458-7.1-14.548-12.45-20.725-18.49-6.9-6.74-14.781-12.68-24.21-17.56-9.401-4.87-12.587-7.59-23.784-7.29-3.558.1-8.033.13-11.099 2.3-2.775 1.96-5.08 5.52-5.821 8.8-1.733 7.66 1.569 14.12 6.368 21.41 2.687 4.08 4.823 5.95 8.48 9.19 4.603 4.07 8.853 5.68 13.017 8.85 5.934 4.5 13.746 10.32 20.553 13.16 6.475 2.71 15.286 6.74 19.505 12.61 3.436 4.79 10.327 13.61 8.443 20.1-1.98 6.83-5.988 12.55-10.349 18.3-8.171 10.76-28.329 24.5-42.099 26.38-5.416.74-1.377-1.47-2.161-7.21-.458-3.34-1.395-5.64-2.709-8.63-1.242-2.83-1.614-6.01-3.93-10-1.774-3.05-1.951-5.1-3.742-8.15-2.141-3.64-3.016-6.36-5.265-9.93-2.42-3.85-5.247-6.63-7.065-9.57-4.876-7.88-11.801-18.4-20.771-23.5-6.427-3.65-12.532-10.19-18.324-5.6-6.748 5.35.066 16.36 3.326 24.33 7.155 17.5 29.869 23.31 26.928 42.85-.988 6.57 4.105 14.46-6.158 15.86-8.264 1.13-17.041 2-25.191.66-8.031-1.31-17.443.37-28.525 1.68-11.433 1.35-18.3 1-29.014 5.22-8.276 3.25-12.14 9.54-19.689 11.44-2.085.53-9.328 4.93-9.902.73l-1.677-12.27c-.908-6.64-.801-15-1.802-22.33-1.188-8.69-9.536-14.88-10.71-23.47-2.358-17.24 8.304-27.25 23.425-33.9 2.88-1.27 6.246-2.92 10.224-6.46 4.176-3.73 8.883-7.73 10.652-12 2.692-6.49.294-15.03-5.181-18.62-3.909-2.57-9.235-1.56-15.001-.56-4.081.7-6.627 1.67-10.223 4.01-3.841 2.49-5.008 5.8-8.235 8.34-2.643 2.09-6.162 5.06-8.26 7.66-2.618 3.25-7.781 5.47-9.401 9.48-.682 1.7-3.757 9.1-4.331 4.9-.531-3.88-1.273-7.07-1.594-11.66-.316-4.51-.284-7.07-.056-11.59.231-4.59.61-7.15 1.248-11.7.544-3.88.929-7.33 1.672-9.89 2.425-8.36 6.493-15.85 13.529-20.66 2.86-1.96 8.015-3.04 11.295-4.26 4.108-1.52 8.173-3.46 12.542-4.28 4.968-.93 10.196-3.99 14.846-5.71 3.217-1.19 7.377-1.05 10.218-3 7.512-5.13 11.843-10.24 13.333-19.32.582-3.55.321-10.64-1.84-13.46-1.569-2.04-2.948-5.91-5.668-8.02-6.206-4.8-11.641-10.63-18.258-11.53-5.586-.76-8.988-1.97-13.657-1.33l-11.659 1.59c-7.005.96-17.708 3.04-21.781 9.86-3.927 6.57-15.257 8.55-19.186 15.12-4.059 6.79-4.767 3.07-1.789-1.91 1.501-2.51 2.185-6.57 3.347-9.55 2.799-7.19 10.696-13.17 12.824-20.51 2.739-9.44 13.797-15.98 20.088-22.75 5.983-6.43 20.406-10.91 28.91-12.08" stroke="#619482" stroke-width="6.959" stroke-linecap="round" stroke-linejoin="round"/><path d="M714.953 1093.87c15.691-12.49 48.293-32.06 48.293-32.06l7.875-.2s-17.925 10.87-34.675 22.51c1.614 34.32 9.713 52.97 37.101 85.15 0 0-20.354-15.25-29.706-31.06-12.49-21.12-16.142-47.84-16.142-47.84-3.485 2.57-6.745 5.1-9.571 7.46-19.244 16.07-28.034 21.38-42.571 41.81-5.33 7.49-11.079 21.71-12.604 29.82 0 0 .621 5.73 4.117 10.85 8.78 12.85 8.589 13.17 18.303 24.71 6.875 8.17 20.146 18.42 28.256 26.87 12.499 13.02 21.986 25.97 21.986 25.97s-11.391-11.8-26.296-25.38c-9.534-8.69-21.962-17.91-28.999-25.89-11.159-12.65-21.352-28.68-21.352-28.68-4.78 19.68-6.529 39.81-17.225 61.17a642.35 642.35 0 01-5.813 11.33c5.385 19.65 11.417 24.64 22.635 34.66-10.415-4.5-20.043-15.7-27.191-26.13-5.365 9.85-11.267 20.04-16.49 27.71-9.815 14.42-13.9 20.34-16.604 19.83-2.1-.39 13.267-17.3 29.766-48.33-15.886 8.82-24.544 12.6-39.922 18.99 11.39-8.11 33.369-14.69 46.948-33 .894-1.21 1.08-2.31 1.618-3.49 10.951-23.97 12.554-45.52 18.109-66.56-8.221-2.39-40.718 2.81-65.257 10.67 17.336-9.33 31.33-13.28 67.085-17.07 3.404-10.99 8.265-21.89 16.5-32.98 11.391-15.35 20.188-23.41 33.12-33.88 0 0-20.712 4.26-37.833-.6-17.122-4.86-44.078-14.16-44.078-14.16l1.878-5.53s21.673 8.93 40.513 13.78c29.579 7.61 48.226-.45 48.226-.45z" fill="#619482"/><path d="M718.326 1100.64c1.495-15.06 5.894-25.24 18.28-34.18l128.793-14.92c5.22.15 28.328 3.39 32.371 6.89 4.252 3.68 11.373 6.91 13.651 12.44 1.771 4.3 6.942 7.39 9.109 11.56.899 1.73 1.58 4.14 2.654 5.56 2.13 2.82 1.946 5.11-.957 1.27-2.809-3.72-9.794-4.17-12.602-7.88-2.913-3.86-9.525-4.41-13.826-4.53l-7.158-.2c-2.866-.07-4.845.88-8.174 1.71-3.943.98-6.847 4.86-10.284 8.18-1.507 1.45-2.086 3.88-2.901 5.22-1.122 1.85-.812 6.16-.226 8.26 1.499 5.4 4.456 8.21 9.338 10.82 1.846.98 4.354.63 6.378 1.13 2.927.74 6.291 2.24 9.358 2.48 2.697.21 5.284 1.12 7.869 1.77 2.064.52 5.254.83 7.113 1.83 4.573 2.44 7.528 6.71 9.546 11.6.618 1.5 1.078 3.57 1.663 5.88.685 2.71 1.083 4.23 1.526 6.99.435 2.72.623 4.27.729 7.02.108 2.79-.131 4.77-.196 7.16-.071 2.58-2.418-1.7-2.943-2.68-1.244-2.32-4.513-3.32-6.311-5.12-1.441-1.43-3.766-3-5.501-4.09-2.121-1.32-3.044-3.25-5.532-4.5-2.33-1.18-3.934-1.6-6.448-1.76-3.554-.22-6.842-.48-9.039 1.33-3.075 2.53-3.963 7.86-1.906 11.61 1.351 2.47 4.461 4.58 7.233 6.55 2.64 1.89 4.785 2.66 6.611 3.24 9.585 3.03 16.694 8.38 16.404 18.97-.144 5.27-4.786 9.57-4.932 14.9-.124 4.5.492 9.55.38 13.62l-.206 7.54c-.071 2.57-4.742.39-6.038.21-4.691-.65-7.444-4.2-12.665-5.62-6.758-1.85-10.89-1.19-17.895-1.25-6.79-.06-12.595-.46-17.366.87-4.842 1.34-10.209 1.39-15.283 1.25-6.301-.17-3.739-5.28-4.77-9.19-3.067-11.62 10.291-16.63 13.467-27.69 1.447-5.04 4.844-12.15.409-14.94-3.806-2.4-7.069 1.96-10.716 4.6-5.09 3.67-8.586 10.49-11.017 15.58-.906 1.9-2.433 3.77-3.643 6.25-1.125 2.31-1.475 4.02-2.531 6.36-.883 1.96-.855 3.21-1.727 5.18-1.138 2.56-1.153 4.51-1.719 6.3-.597 1.9-1.013 3.35-1.069 5.41-.097 3.52 2.492 4.59-.833 4.5-8.454-.23-21.553-7.22-27.205-13.19-3.017-3.19-5.818-6.39-7.466-10.38-1.568-3.81 2.02-9.6 3.784-12.72 2.164-3.83 7.229-6.85 10.968-8.91 3.93-2.17 8.273-6.21 11.566-9.32 2.31-2.19 4.775-3.44 7.291-6.21l.049-.06c1.97-2.16 3.13-3.44 4.476-6.06 2.423-4.72 3.995-8.85 2.442-13.37-.664-1.94-2.293-3.94-4.101-4.94-1.998-1.11-4.707-.83-6.866-.66-6.793.56-8.541 2.41-13.908 5.98-5.382 3.57-9.758 7.68-13.488 12.22-3.339 4.05-8.486 7.89-11.32 12.55-2.24 3.68-6.582 7.91-7.823 11.85-.408 1.29-.908 5.95-1.734 6.73-.194.19-1.191-2.56-1.267-2.71-.673-1.36-1.108-2.84-1.896-4.16-2.465-4.12-.813-10.12-.685-14.76.145-5.31.24-12.19 3.018-16.89 3.456-5.83 11.533-21.9 3.534-29-4.483-3.98-10.488-4.09-15.344-.42-4.077 3.08-7.525 6.77-10.416 12.95-2.648 5.66-4.067 7.64-5.93 13.61-.933 2.98.357 8.5-.305 11.13-.812 3.24-1.725-.5-2.988-2.55-4.623-7.51-7.06-14.9-9.114-25.13-1.471-7.33-2.478-11.63-1.74-19.07z" fill="#D3DFD0"/><path d="M736.49 1070.69c-12.386 8.94-16.785 19.12-18.28 34.18-.738 7.44.269 11.74 1.74 19.07 2.055 10.24 4.491 17.62 9.114 25.13 1.263 2.06 2.176 5.79 2.988 2.56.662-2.64-.523-6.87.305-11.14 1.104-5.69 3.282-7.95 5.93-13.61 2.892-6.17 6.339-9.87 10.416-12.95 4.857-3.67 10.862-3.56 15.344.42 8 7.1-1.757 17.74-3.534 29.01-1.043 6.61-2.637 10.19-3.018 16.88-.329 5.76-1.78 10.65.685 14.76.788 1.32 1.223 2.8 1.897 4.16.076.16 1.072 2.9 1.266 2.72.827-.79 1.326-5.45 1.734-6.74 1.241-3.93 4.458-7.44 7.823-11.85 4.006-5.25 6.667-7.87 11.32-12.55 5.011-5.04 7.449-8.47 13.488-12.22 5.022-3.12 7.115-5.42 13.908-5.97 2.159-.18 4.868-.46 6.866.65 1.808 1.01 3.437 3.01 4.101 4.94 1.553 4.52-.019 8.65-2.442 13.37-1.357 2.65-2.525 3.92-4.525 6.12-2.516 2.77-4.418 3.82-7.291 6.21-4.456 3.71-7.057 5.67-11.566 9.32-4.291 3.47-7.948 4.29-10.968 8.91-2.835 4.34-4.691 7.62-3.784 12.72.875 4.92 4.45 7.2 7.466 10.38 5.652 5.97 18.751 12.96 27.205 13.19 3.325.09.736-.98.833-4.5.056-2.06.584-3.31 1.07-5.4.576-2.49.973-3.87 1.719-6.31.622-2.04.843-3.22 1.726-5.18 1.056-2.34 1.406-4.04 2.531-6.35 1.21-2.49 2.737-4.36 3.643-6.26 2.431-5.09 6.95-9.89 11.017-15.58 2.615-3.66 5.616-7.72 9.799-5.92 5.361 2.3 4.254 9.99.508 16.26-6.165 10.33-16.533 16.07-13.467 27.7 1.031 3.91-1.531 9.01 4.77 9.19 5.074.13 10.441.08 15.283-1.26 4.771-1.33 10.576-.93 17.366-.87 7.005.07 11.137-.6 17.896 1.25 5.221 1.42 7.973 4.97 12.664 5.62 1.296.18 5.968 2.37 6.038-.21l.207-7.53c.111-4.08-.504-9.13-.381-13.63.146-5.33 4.788-9.63 4.932-14.9.29-10.59-6.819-15.94-16.404-18.97-1.825-.57-3.97-1.35-6.61-3.23-2.772-1.98-5.883-4.09-7.234-6.56-2.057-3.75-1.169-9.07 1.907-11.61 2.196-1.8 5.484-1.54 9.038-1.32 2.514.15 4.119.57 6.448 1.75 2.488 1.26 3.412 3.18 5.532 4.51 1.735 1.08 4.06 2.65 5.501 4.09 1.798 1.79 5.067 2.79 6.311 5.11.525.98 2.872 5.26 2.943 2.68.065-2.39.304-4.36.196-7.16-.106-2.75-.294-4.29-.729-7.01-.442-2.76-.84-4.29-1.526-7-.585-2.31-1.045-4.37-1.663-5.87-2.018-4.9-4.972-9.17-9.546-11.61-1.859-1-5.049-1.31-7.113-1.83-2.585-.65-5.172-1.56-7.869-1.77-3.067-.23-6.431-1.74-9.358-2.47-2.024-.51-4.532-.15-6.378-1.14-4.882-2.61-7.839-5.42-9.338-10.81-.586-2.11-.896-6.42.226-8.26.815-1.34 1.394-3.78 2.901-5.23 3.437-3.32 6.341-7.2 10.285-8.18 3.328-.83 5.307-1.78 8.173-1.7 2.386.06 4.772.13 7.158.19 4.301.12 8.677 2.13 13.826 4.53 5.262 2.45 9.793 4.17 12.603 7.88 2.902 3.84 3.086 1.55.956-1.27-1.074-1.42-1.755-3.83-2.654-5.56-2.167-4.16-5.344-7.22-9.109-11.56-6.771-7.81-9.924-13.45-18.963-18.46-14.532-8.05-38.436-5.3-43.656-5.45" stroke="#619482" stroke-width="6.959" stroke-linecap="round" stroke-linejoin="round"/><path d="M810.906 1085.45c-10.315-6.52-37.591-20.44-37.591-20.44l-6.268-.9s19.315 10.92 30.215 16.86c1.284 20.87-2.386 32.69-16.834 53.95 0 0 11.308-10.56 15.924-20.74 6.164-13.6 6.613-30 6.613-30 2.278 1.32 4.416 2.63 6.281 3.88 12.701 8.45 18.368 11.08 28.508 22.49 3.718 4.18 8.132 12.4 9.589 17.2 0 0 .002 3.51-1.776 6.84-4.465 8.35-4.328 8.53-9.444 16.16-3.621 5.39-10.974 12.46-15.323 18.11-6.704 8.7-11.59 17.16-11.59 17.16s6.114-7.89 14.236-17.09c5.195-5.88 12.106-12.28 15.837-17.57 5.917-8.39 11.027-18.76 11.027-18.76 4.188 11.6 6.572 23.65 14.45 35.87 1.256 1.95 2.702 4.15 4.263 6.48-1.963 12.24-5.283 15.65-11.41 22.45 6.004-3.41 11.091-10.81 14.728-17.6 3.894 5.61 8.136 11.38 11.801 15.68 6.888 8.08 9.749 11.39 11.35 10.9 1.245-.37-9.165-9.59-21.189-27.27 10.191 4.29 15.676 6 25.401 8.86-7.425-4.16-21.154-6.69-30.575-16.88-.62-.67-.806-1.32-1.209-2-8.203-13.78-10.593-26.71-15.34-39.07 4.816-1.99 24.818-.98 40.18 2.16-11.102-4.51-19.828-5.97-41.707-5.91-2.783-6.43-6.442-12.7-12.154-18.87-7.902-8.53-13.755-12.83-22.268-18.31 0 0 12.81 1.21 22.848-2.85 10.037-4.07 25.731-11.48 25.731-11.48l-1.501-3.22s-12.522 6.83-23.6 11.01c-17.391 6.55-29.203 2.9-29.203 2.9z" fill="#619482"/><path d="M1021.74 769.507c2.32-2.808 2.73-2.31.13-3.17-1.14-.376-4.96.619-7.18 1.645-2.16 1-.48 4.327-3.04 5.479-1.51.674-2.34.446-3.95.104-1.24-.261-3.45-.662-4.63-.364-2.39.599-3.644 1.522-5.347 3.297-2.028 2.113-2.203 6.456-4.292 8.509-2.344 2.304-4.498 2.556-6.997 2.671-6.184.284-8.495-4.173-13.759-2.437-5.455 1.799-5.916 7.419-6.932 12.183-1.073 5.033-5.764 6.573-11.276 8.021-5.951 1.564-12.666 1.364-13.25 7.49-.312 3.277-1.703.639 0 3.456.819 1.355-.376 2.431.571 3.7 1.157 1.55 1.804 2.092 3.236 3.392 1.59 1.444 2.707 2.112 4.752 2.766 1.593.509 2.567.577 4.238.601 2.992.043 4.886-.143 7.487-1.622 2.515-1.431 3.018-2.489 4.489-4.982 1.266-2.145 1.842-3.745 1.919-6.281.129-4.273 5.342-7.331 9.44-7.207 5.113.154 14.414.11 14.638-7.305.088-2.919.88-5.815 2.38-8.333.567-.952.808-2.233 1.922-3.144.994-.814 1.813-.883 3.047-1.241 2.404-.698 4.334-.557 6.404-.494 2.79.084 3.99-.327 5.39-2.932.44-.813.77-2.541.79-3.437.04-1.23.52-1.887.85-2.919.5-1.57 3-3.391 4.4-4.209 1.54-.896 3.39-1.817 4.57-3.237z" fill="#C8BFB6"/><path d="M1024.21 770.968c2.24-2.877.29-5.002-2.34-5.783-1.15-.342-3.42-.058-5.61 1.035-2.13 1.064-2.81 4.649-5.34 5.878-1.48.719-2.32.516-3.94.224-1.24-.224-3.46-.558-4.64-.224-2.367.671-3.594 1.631-5.242 3.456-1.963 2.175-.278 5.374-2.304 7.49-2.274 2.373-4.419 2.69-6.914 2.88-6.173.472-9.122-3.507-14.331-1.613-5.398 1.963-5.897 8.142-6.768 12.934-.921 5.063-6.848 5.499-12.314 7.114-5.901 1.743-13.427 2.501-13.826 8.641-.213 3.286.517 4.725 2.305 7.489.859 1.33 1.895 2.218 2.88 3.457 1.203 1.514 1.866 2.036 3.337 3.293 1.633 1.395 2.77 2.029 4.834 2.621 1.607.461 2.583.499 4.254.473 2.991-.048 4.88-.291 7.434-1.848 2.471-1.506 2.942-2.58 4.337-5.115 1.201-2.183 1.728-3.799 1.728-6.337 0-4.275 5.118-7.489 9.217-7.489 5.116 0 14.411-.326 14.411-7.744 0-2.921.704-5.839 2.127-8.401.539-.969.74-2.257 1.826-3.201.969-.843 1.789-.938 3.009-1.332 2.38-.771 4.32-.688 6.38-.688 2.8 0 3.98-.448 5.31-3.094.41-.825.68-2.563.68-3.459 0-1.23.46-1.901.76-2.943.45-1.584 2.9-3.48 4.27-4.34 1.51-.942 3.34-1.919 4.47-3.374z" stroke="#B29172" stroke-width="3.457" stroke-linecap="round" stroke-linejoin="round"/><path d="M930.848 841.805c21.281-22.534 61.065-50.696 61.065-50.696s-40.326 24.772-72.587 58.761c-25.891 27.278-76.62 84.685-76.62 84.685v12.674s26.515-35.108 44.935-57.033c16.105-19.169 33.413-38.022 43.207-48.391z" fill="#E7DDC8"/><circle r="3.457" transform="matrix(-1 0 0 1 1034.54 761.152)" fill="#C5DF86"/><circle r="1.728" transform="matrix(-1 0 0 1 972.902 818.185)" fill="#C5DF86"/><circle r="1.728" transform="matrix(-1 0 0 1 980.968 821.642)" fill="#B29172"/><circle r="1.728" transform="matrix(-1 0 0 1 969.446 838.924)" fill="#C5DF86"/><circle r="1.728" transform="matrix(-1 0 0 1 965.989 832.011)" fill="#C5DF86"/><circle r="1.728" transform="matrix(-1 0 0 1 946.402 826.25)" fill="#C5DF86"/><circle r="1.728" transform="matrix(-1 0 0 1 949.859 808.968)" fill="#C5DF86"/><circle r="1.728" transform="matrix(-1 0 0 1 939.489 805.511)" fill="#C5DF86"/><circle r="1.728" transform="matrix(-1 0 0 1 945.25 798.598)" fill="#B29172"/><circle r="1.728" transform="matrix(-1 0 0 1 954.467 795.142)" fill="#C5DF86"/><circle r="1.728" transform="matrix(-1 0 0 1 962.533 804.359)" fill="#C5DF86"/><circle r="1.728" transform="matrix(-1 0 0 1 970.598 802.055)" fill="#C5DF86"/><circle r="1.152" transform="matrix(-1 0 0 1 973.478 832.587)" fill="#619482"/><circle r="1.152" transform="matrix(-1 0 0 1 963.109 816.457)" fill="#C5DF86"/><circle r="1.152" transform="matrix(-1 0 0 1 958.5 809.544)" fill="#C5DF86"/><circle r="1.152" transform="matrix(-1 0 0 1 958.5 823.37)" fill="#619482"/><circle r="1.152" transform="matrix(-1 0 0 1 949.283 815.305)" fill="#C5DF86"/><circle r="1.152" transform="matrix(-1 0 0 1 955.043 801.479)" fill="#619482"/><circle r="1.152" transform="matrix(-1 0 0 1 934.304 813)" fill="#619482"/><circle r="1.152" transform="matrix(-1 0 0 1 937.761 822.218)" fill="#B29172"/><circle r="1.152" transform="matrix(-1 0 0 1 944.674 831.435)" fill="#C5DF86"/><circle r="1.152" transform="matrix(-1 0 0 1 950.435 837.196)" fill="#B29172"/><circle r="1.152" transform="matrix(-1 0 0 1 957.348 832.587)" fill="#C5DF86"/><circle r="1.152" transform="matrix(-1 0 0 1 960.804 838.348)" fill="#619482"/><circle r="1.152" transform="matrix(-1 0 0 1 979.239 829.131)" fill="#C5DF86"/><path d="M945.771 673.882c1.413-3.36.781-3.492 2.749-1.584.86.834 1.747 4.68 1.865 7.121.114 2.378-3.613 2.43-3.444 5.238.098 1.644.687 2.279 1.736 3.549.803.972 2.182 2.748 2.468 3.936.573 2.392.337 3.932-.447 6.263-.935 2.776-4.703 4.942-5.555 7.745-.956 3.144-.181 5.17.874 7.438 2.612 5.613 7.632 5.597 8.531 11.066.932 5.668-3.835 8.679-7.587 11.786-3.964 3.282-3.156 8.153-1.887 13.709 1.369 5.998 4.656 11.857-.502 15.211-2.76 1.795.223 1.806-3.063 1.601-1.58-.098-1.981 1.46-3.543 1.208-1.91-.308-2.69-.63-4.505-1.297-2.016-.741-3.126-1.422-4.653-2.932-1.189-1.175-1.7-2.007-2.496-3.477-1.423-2.631-2.135-4.397-2.029-7.387.103-2.892.809-3.828 2.336-6.285 1.315-2.117 2.466-3.368 4.679-4.61 3.727-2.094 4.023-8.13 2.016-11.704-2.505-4.461-6.773-12.724-.305-16.357 2.546-1.43 4.746-3.473 6.283-5.969.581-.944 1.605-1.75 1.897-3.16.26-1.258-.057-2.015-.312-3.275-.496-2.456-1.516-4.102-2.525-5.9-1.372-2.442-1.561-3.693.098-6.142.518-.764 1.898-1.855 2.68-2.293 1.072-.603 1.435-1.327 2.198-2.098 1.159-1.17 1.614-4.231 1.69-5.853.083-1.775.039-3.849.753-5.548z" fill="#C8BFB6"/><path d="M943.331 672.368c1.514-3.316 4.302-2.57 6.21-.603.835.859 1.636 3.006 1.68 5.449.042 2.38-2.821 4.641-2.738 7.453.049 1.647.619 2.298 1.628 3.599.774.997 2.099 2.813 2.348 4.01.501 2.408.218 3.94-.636 6.246-1.018 2.747-4.634 2.735-5.57 5.511-1.051 3.114-.338 5.162.648 7.461 2.441 5.69 7.334 6.461 8.067 11.955.76 5.693-4.485 8.997-8.329 11.988-4.061 3.161-1.703 8.616-.602 14.208 1.187 6.038 4.001 13.059-1.256 16.256-2.813 1.711-4.427 1.731-7.705 1.426-1.576-.146-2.843-.653-4.397-.952-1.9-.365-2.67-.711-4.464-1.432-1.993-.801-3.081-1.516-4.562-3.071-1.153-1.211-1.639-2.058-2.389-3.552-1.343-2.672-2.002-4.459-1.805-7.444.19-2.888.924-3.802 2.525-6.212 1.378-2.076 2.567-3.291 4.816-4.467 3.788-1.979 4.267-8.004 2.369-11.637-2.369-4.534-6.385-12.923.189-16.359 2.589-1.352 4.849-3.328 6.461-5.776.609-.926 1.657-1.701 1.991-3.101.299-1.249.004-2.016-.212-3.283-.422-2.47-1.391-4.146-2.346-5.974-1.297-2.482-1.448-3.738.284-6.136.541-.748 1.954-1.796 2.748-2.211 1.09-.57 1.475-1.283 2.26-2.03 1.195-1.135 1.742-4.181 1.867-5.799.137-1.772.155-3.847.92-5.523z" stroke="#B29172" stroke-width="3.457" stroke-linecap="round" stroke-linejoin="round"/><path d="M926.239 789.957c10.115-29.298 14.199-79.636 14.199-79.636s-.167 49.128-15.351 93.462c-12.186 35.58-28.805 75.468-28.805 75.468l-11.522 9.793s7.534-13.847 18.435-40.326c9.532-23.152 18.389-45.279 23.044-58.761z" fill="#E7DDC8"/><circle cx="947.246" cy="658.664" r="3.457" transform="rotate(62.412 947.246 658.664)" fill="#C5DF86"/><circle cx="925.245" cy="739.71" r="1.728" transform="rotate(62.412 925.245 739.71)" fill="#C5DF86"/><circle cx="918.447" cy="734.162" r="1.728" transform="rotate(62.412 918.447 734.162)" fill="#B29172"/><circle cx="908.465" cy="752.378" r="1.728" transform="rotate(62.412 908.465 752.378)" fill="#C5DF86"/><circle cx="916.193" cy="752.24" r="1.728" transform="rotate(62.412 916.193 752.24)" fill="#C5DF86"/><circle cx="930.369" cy="766.932" r="1.728" transform="rotate(62.412 930.369 766.932)" fill="#C5DF86"/><circle cx="944.086" cy="755.865" r="1.728" transform="rotate(62.412 944.086 755.865)" fill="#C5DF86"/><circle cx="951.952" cy="763.454" r="1.728" transform="rotate(62.412 951.952 763.454)" fill="#C5DF86"/><circle cx="955.411" cy="755.147" r="1.728" transform="rotate(62.412 955.411 755.147)" fill="#B29172"/><circle cx="954.206" cy="745.377" r="1.728" transform="rotate(62.412 954.206 745.377)" fill="#C5DF86"/><circle cx="942.301" cy="742.497" r="1.728" transform="rotate(62.412 942.301 742.497)" fill="#C5DF86"/><circle cx="940.609" cy="734.282" r="1.728" transform="rotate(62.412 940.609 734.282)" fill="#C5DF86"/><circle cx="912.214" cy="745.869" r="1.152" transform="rotate(62.412 912.214 745.869)" fill="#619482"/><circle cx="931.312" cy="747.589" r="1.152" transform="rotate(62.412 931.312 747.589)" fill="#C5DF86"/><circle cx="939.574" cy="748.472" r="1.152" transform="rotate(62.412 939.574 748.472)" fill="#C5DF86"/><circle cx="927.32" cy="754.876" r="1.152" transform="rotate(62.412 927.32 754.876)" fill="#619482"/><circle cx="938.737" cy="759.31" r="1.152" transform="rotate(62.412 938.737 759.31)" fill="#C5DF86"/><circle cx="948.323" cy="747.801" r="1.152" transform="rotate(62.412 948.323 747.801)" fill="#619482"/><circle cx="947.716" cy="771.518" r="1.152" transform="rotate(62.412 947.716 771.518)" fill="#619482"/><circle cx="937.945" cy="772.723" r="1.152" transform="rotate(62.412 937.945 772.723)" fill="#B29172"/><circle cx="926.575" cy="770.865" r="1.152" transform="rotate(62.412 926.575 770.865)" fill="#C5DF86"/><circle cx="918.801" cy="768.427" r="1.152" transform="rotate(62.412 918.801 768.427)" fill="#B29172"/><circle cx="919.684" cy="760.165" r="1.152" transform="rotate(62.412 919.684 760.165)" fill="#C5DF86"/><circle cx="912.977" cy="759.77" r="1.152" transform="rotate(62.412 912.977 759.77)" fill="#619482"/><circle cx="912.609" cy="739.162" r="1.152" transform="rotate(62.412 912.609 739.162)" fill="#C5DF86"/><rect x="291" y="1" width="880" height="435" rx="5" fill="#EFEDEA"/><path d="M290.895 6a5 5 0 015-5h869.995c2.77 0 5 2.238 5 5v27H290.895V6z" fill="#C8BFB6"/><path d="M692.679 10.056c.437 0 .794.136 1.072.408.277.272.416.61.416 1.016 0 .405-.139.746-.416 1.024-.278.272-.635.408-1.072.408-.443 0-.806-.136-1.088-.408a1.39 1.39 0 01-.416-1.024c0-.405.138-.744.416-1.016.282-.272.645-.408 1.088-.408zm1.528 4.448v6.768h2.16V23h-7.096v-1.728h2.408v-5.04h-2.328v-1.728h4.856zM698.608 23v-8.496h2.208l.176.984c.379-.427.779-.744 1.2-.952a3.215 3.215 0 011.44-.312c.726 0 1.296.221 1.712.664.416.443.624 1.066.624 1.872V23h-2.528v-5.512c0-.523-.058-.886-.176-1.088-.112-.208-.325-.312-.64-.312-.266 0-.522.085-.768.256-.24.17-.48.408-.72.712V23h-2.528zm17.242-.496a5.03 5.03 0 01-1.2.544 5.19 5.19 0 01-1.584.224c-1.109 0-1.933-.283-2.472-.848-.539-.57-.808-1.344-.808-2.32v-3.856h-1.784v-1.744h1.784v-1.84l2.528-.304v2.144h2.736l-.248 1.744h-2.488v3.856c0 .421.096.723.288.904.192.181.499.272.92.272.299 0 .571-.035.816-.104.251-.075.475-.168.672-.28l.84 1.608zm2.026.496v-1.696h1.12v-5.12h-1.12v-1.68h3.048l.464 1.912c.304-.73.69-1.275 1.16-1.632.474-.357 1.053-.536 1.736-.536.288 0 .544.024.768.072.224.043.434.104.632.184l-.472 3.552h-1.584v-1.568c-.48.085-.902.346-1.264.784-.363.432-.643.965-.84 1.6v2.432h1.68V23h-5.328zm13.194-8.776c.874 0 1.618.187 2.232.56a3.65 3.65 0 011.408 1.576c.325.672.488 1.461.488 2.368 0 1.418-.363 2.53-1.088 3.336-.726.805-1.739 1.208-3.04 1.208-1.302 0-2.315-.397-3.04-1.192-.726-.795-1.088-1.907-1.088-3.336 0-.901.162-1.69.488-2.368a3.739 3.739 0 011.416-1.584c.618-.379 1.36-.568 2.224-.568zm0 1.864c-.518 0-.902.213-1.152.64-.246.421-.368 1.093-.368 2.016 0 .939.122 1.619.368 2.04.25.421.634.632 1.152.632.517 0 .898-.21 1.144-.632.25-.421.376-1.107.376-2.056 0-.918-.126-1.587-.376-2.008-.246-.421-.627-.632-1.144-.632zm7.809 5.4c0-.325.08-.622.24-.888.16-.272.376-.488.648-.648.272-.166.571-.248.896-.248.331 0 .63.082.896.248.272.16.488.376.648.648.16.266.24.563.24.888 0 .32-.08.616-.24.888-.16.272-.376.488-.648.648a1.664 1.664 0 01-.896.248c-.325 0-.624-.083-.896-.248a1.797 1.797 0 01-.648-.648 1.72 1.72 0 01-.24-.888zm12.498-11.432c.437 0 .795.136 1.072.408.277.272.416.61.416 1.016 0 .405-.139.746-.416 1.024-.277.272-.635.408-1.072.408-.443 0-.805-.136-1.088-.408a1.393 1.393 0 01-.416-1.024c0-.405.139-.744.416-1.016.283-.272.645-.408 1.088-.408zm1.64 4.448v6.032c0 1.226-.229 2.234-.688 3.024-.453.795-1.131 1.424-2.032 1.888-.896.47-2.005.834-3.328 1.096l-.4-1.928c.859-.197 1.579-.443 2.16-.736.581-.293 1.019-.69 1.312-1.192.299-.507.448-1.17.448-1.992v-4.464h-3.056v-1.728h5.584zm7.858-.28c1.109 0 1.904.405 2.384 1.216.48.81.72 1.906.72 3.288 0 .874-.128 1.656-.384 2.344-.256.683-.627 1.221-1.112 1.616-.486.39-1.075.584-1.768.584-.827 0-1.499-.296-2.016-.888v3.896l-2.528.264v-12.04h2.24l.112.952c.346-.443.725-.758 1.136-.944.41-.192.816-.288 1.216-.288zm-.784 1.864a1.22 1.22 0 00-.776.264c-.224.176-.43.416-.616.72v3.584c.176.261.36.453.552.576.197.123.429.184.696.184.448 0 .797-.203 1.048-.608.25-.41.376-1.093.376-2.048 0-.704-.051-1.248-.152-1.632-.102-.39-.248-.659-.44-.808a1.064 1.064 0 00-.688-.232zm13.218-2.944l.592 1.856a4.51 4.51 0 01-1.048.256c-.4.053-.867.08-1.4.08.533.23.938.514 1.216.856.282.336.424.779.424 1.328 0 .55-.147 1.04-.44 1.472-.294.427-.71.762-1.248 1.008-.539.245-1.176.368-1.912.368-.352 0-.68-.032-.984-.096-.187.096-.28.259-.28.488 0 .133.053.253.16.36.112.107.37.16.776.16h1.392c.986 0 1.773.232 2.36.696.586.464.88 1.05.88 1.76 0 .87-.382 1.555-1.144 2.056-.763.501-1.896.752-3.4.752-1.088 0-1.931-.112-2.528-.336-.592-.219-1.006-.534-1.24-.944-.23-.405-.344-.888-.344-1.448h2.24c0 .245.048.445.144.6.101.16.29.277.568.352.282.075.69.112 1.224.112.538 0 .949-.043 1.232-.128.282-.085.474-.203.576-.352a.804.804 0 00.16-.488.737.737 0 00-.296-.608c-.198-.155-.51-.232-.936-.232h-1.352c-.918 0-1.584-.168-2-.504-.416-.341-.624-.739-.624-1.192 0-.315.082-.614.248-.896.17-.283.408-.52.712-.712-.544-.288-.934-.627-1.168-1.016-.235-.395-.352-.867-.352-1.416 0-.64.162-1.19.488-1.648.325-.464.773-.822 1.344-1.072.576-.25 1.232-.376 1.968-.376a7.717 7.717 0 001.656-.128c.469-.101.89-.238 1.264-.408.373-.176.73-.363 1.072-.56zm-3.928 2.736c-.4 0-.718.128-.952.384-.235.25-.352.597-.352 1.04 0 .47.12.83.36 1.08.24.25.554.376.944.376.864 0 1.296-.496 1.296-1.488 0-.928-.432-1.392-1.296-1.392z" fill="#192825"/><rect x="292.5" y="1.5" width="877" height="433" rx="3.5" stroke="#4A5759" stroke-width="3"/><path d="M290.895 32h879.995" stroke="#4A5759" stroke-width="3"/><path d="M1144.39 16c.5 3 2.76 5.321 4.06 6.007.89-1.347 2.74-2.164 3.85-3.208.75-.714 1.6-1.268 1.6-2.406 0-1.18-.51-2.393-2.01-1.893-3 1-3.5 4.05-3.5 1 0-1.682.09-3.95-2-3-1.63.743-2 1.5-2 3.5z" fill="#4A9D63" stroke="#4A5759" stroke-width="2" stroke-linecap="round" stroke-linejoin="round"/><path d="M1131.92 11l-.12.152c-.79 1.303.82 5.823 1.29 6.746.33.66 1.73 2.084.43 2.084-1.19 0-2.18.775-2.73 1.765-.62 1.127-.6 2.704-1.28.802-.29-.825-.1-1.843-.42-3.151-.45-1.787-3.45-2.84-4.08-2.845-.07.033-.12.05-.12.043 0-.03.05-.044.12-.043.51-.229 2.51-1.26 2.59-1.311 1.66-1.066 3-2.546 4.2-4.09a.532.532 0 01.12-.152z" fill="#F8CD5E" stroke="#4A5759" stroke-width="2" stroke-linecap="round" stroke-linejoin="round"/><path d="M1109.89 13c2.24-1.006 3.5 0 4.5.5 1.91.952 2.27 3.667 2.5 5 .15.808-.93 4.356-3.1 4.356-3.09 0-6.9-.763-6.9-4.651 0-1.195.77-4.199 3-5.205z" fill="#9E483E" stroke="#4A5759" stroke-width="2" stroke-linecap="round" stroke-linejoin="round"/><path d="M1494.24 984.368l.42 81.382-1521.041 7.39-.422-81.374 520.216-2.537 1000.827-4.861z" fill="#A27976"/><path d="M1494.24 985.425l.21 32.765-1521.042 7.4-.212-32.767 520.217-2.537 1000.827-4.861zm-520.537 51.785s66.757 7.19 153.797 0c87.03-7.19 316.25-2.75 316.25-2.75s-258.05-1.05-287.1 9.41c-28.94 10.46-182.947-6.66-182.947-6.66zm520.747.11v8.03l-428.85 8.24 428.85-16.27z" fill="#E0BEA2"/><path d="M1212.42 1036.68l-338.008-4.65 5.704-4.01 332.304 8.66zm-1213.556-3.27l749.957 18.49-12.359-10.99-737.598-7.5z" fill="#E0BEA2"/><path d="M189 1069h-77v93h77v-93zm1144.89-3.78h-58.09v93h58.09v-93z" fill="#A27976"/><path d="M330.535 1048.2l-357.127 12.58v-5.92l357.127-6.66zm-6.971-10.04c0 .11-6.761.32-18.591.74-63.588 2.12-271.991 7.82-331.565 9.51v-4.33c49.328-1.9 160.659-6.13 244.633-7.71 58.624-1.17 103.938-1.17 105.523 1.79z" fill="#E0BEA2"/><path d="M1133.46 783.882s44.05-42.517 197.12-2.577l-19.55 42.086-133.22-12.057-44.35-27.452zm123.79-44.263c-3.18 28.473-49.44-3.059-31.44-44.139-.01-.096 34.61 15.57 31.44 44.139z" fill="#45846C"/><path d="M1133.46 783.883s98.61-23.113 137.89.444c39.18 23.565 59.23-3.022 59.23-3.022l-28.4 205.163s-79.44 34.542-150.13.928c.01.096-18.59-203.513-18.59-203.513z" fill="#D3DFD0"/><path d="M1200.55 910.019c-1.73 2.277-3.27 5.6-3.56 7.749-.05.488-.1 1.071-.12 1.942-4.46-8.97-9.86-17.568-14.97-26.191-.46-.828-.76-2.056-.76-3.118 0-1.063.47-2.359.98-3.176 3.13-5.008 5.02-7.589 8.63-12.64-3.83-1.785-5.55-2.694-8.8-4.53 10.63.025 21.28-.725 31.95-1.38 6.26 6.397 13.37 13.588 17.66 21.609-4.03-1.769-6.12-2.549-10.61-4.179-6.84 7.943-13.77 15.797-20.4 23.914zm12.58-71.88c2.08-3.757 5.86-5.829 10.41-5.653 4.94.142 8.64 2.615 12.22 7.125 2.07 2.617 3.24 3.865 5.69 6.447-2.62 8.536-2.95 12.427-7.64 21.628-10.47-3.612-20.74-7.241-30.96-11.452 4.55-7.452 6.28-10.887 10.28-18.095zm-1.56 93.69c-7.17-.138-12.52-6.037-11.41-13.182.31-1.959 1.75-5.368 3.58-7.558 2.35-2.912 3.57-4.371 6.11-7.396 11.64-.547 23.37-1.103 35.06-1.075-3.86 9.803-8.11 19.641-10.88 29.83-8.72-.291-13.36-.362-22.46-.619zm26.39-93.571c-2.19-2.992-4.62-5.288-7.53-6.574l29.66 1.14c2.61.058 4.65 1.23 5.89 3.34 2.96 5.048 4.73 7.499 7.87 12.434 2.75-1.595 4.13-2.393 7.17-4.11-4.83 8.73-6.4 12.828-8.6 20.746-7.66-1.446-11.12-2.299-21.03-2.966 2.39-1.37 3.49-2.047 5.59-3.392-6.39-6.771-13.34-13.204-19.02-20.618zm44.11 69.47c2.84.425 5.49-.292 7.84-2.045-4.93 8.643-10.17 17.12-15.72 25.335-1.37 2.052-3.59 3.117-6.01 3.042-5.44-.291-8.06-.445-13.5-.737-.81 3.934-1.12 5.892-1.37 9.583-4.88-9.319-5.72-14.458-6.93-24.874 6.86-7.559 13.92-15.135 19.63-23.75-.9 4.038-1.5 6.022-2.77 10.189 7.65 1.35 10.63 2.245 18.83 3.257zm10.74-20.645c.94 1.944 1.51 4.018 1.42 6.246-.2 4.362-3.09 8.77-6.41 10.608-1.57.815-3.66 1.193-5.62.883-2.44-.362-3.52-.556-5.79-1.032-1.75-8.92-3.3-18.727-7.13-27.077 5.29-3.558 7.46-5.198 14.72-9.413 3.69 7.88 5.02 11.914 8.81 19.785z" fill="#E0BEA2"/><path d="M1204.77 751.312s36.01-19.794 65.26 2.817c29.24 22.61-30.51 41.704-65.26-2.817z" fill="#B7C2B4"/><path d="M1298.16 755.5c.92 31.103-37.23 1.75-28.58-44.585 0 0 27.66 13.386 28.58 44.585z" fill="#B7C2B4"/><path d="M1202.27 856.284c3.33-6.087 6.74-12.278 11.39-17.517 2.29-2.52 4.87-5.065 8.45-4.996 3.48.078 6.56 2.122 9.17 4.305 2.4 2.008 5.21 4.27 6.72 7.129 1.74 3.322.31 6.827-1.15 9.95-.81 1.713-1.63 3.426-2.55 5.052-.41.809-.92 1.626-1.34 2.339-.34.513-.87 2.105-1.43 2.348-.56.242-1.69-.526-2.19-.771-.91-.403-1.72-.814-2.62-1.217-1.71-.718-3.42-1.531-5.12-2.154-7.72-3.178-15.68-5.757-23.78-7.839-1.78-.422-2.3 2.424-.52 2.846a171.94 171.94 0 0124.08 8.005c1.91.797 3.82 1.594 5.73 2.487 1.61.726 3.57 2.098 5.34 1.457 1.79-.544 2.63-3.032 3.47-4.458 1-1.826 2.1-3.661 2.99-5.574 1.63-3.427 3.49-7.454 2.57-11.331-.89-3.493-3.64-6.146-6.16-8.529-2.85-2.645-5.78-5.186-9.55-6.3-3.77-1.21-7.67-.48-10.72 2.108-6.85 5.626-11.14 13.922-15.29 21.531-.93 1.53 1.69 2.747 2.51 1.129z" fill="#C1845B"/><path d="M1230.57 833.312c7.65 2.412 13.92 7.747 18.63 14.088 2.53 3.445 4.7 7.211 6.49 11.108.13.278.28.941.59 1.202.14.471.23.367.36-.321a1.79 1.79 0 01-.75.26c-1.04.285-2.19.29-3.23.575-1.5.519-3.04 1.717-3.08 3.459-.03.679.34 1.611 1.11 1.639 3.9.331 7.79.663 11.6 1.098 1.95.214 3.99.323 5.94.536.97.107 1.85.222 2.82.233.68.037 1.46.16 2.12-.091 1.49-.614 1.81-2.381 2.27-3.773.61-1.792 1.14-3.48 1.66-5.264 1.22-3.68 2.33-7.447 3.46-11.119.29-1.088-.95-1.944-1.88-1.572-2.15.77-4.31 1.54-6.46 2.31.63.524 1.25 1.048 1.88 1.572.52-6.129-2.25-12.256-7.12-15.977-2.69-2.078-5.88-3.148-9.2-3.626-4.02-.61-8.09-.733-12.16-.951-4.76-.255-9.58-.214-14.41-.173-1.83.065-1.58 2.939.25 2.874 4.92-.145 9.85-.099 14.7.147 4.56.176 9.4.327 13.84 1.382 6.82 1.714 11.77 8.613 11.24 15.708-.1 1.07.86 2.048 1.88 1.571 2.15-.77 4.31-1.54 6.46-2.309-.63-.524-1.25-1.048-1.88-1.572-.97 3.176-1.94 6.447-2.91 9.623-.54 1.592-.98 3.176-1.51 4.768-.22.791-.54 1.592-.75 2.479-.07.296-.12.784-.3.992-.35.417.22.271-.56.147-3.33-.478-6.62-.573-9.94-.955-3.5-.269-7.01-.634-10.42-.912.34.549.77 1.09 1.11 1.639.06-1.55 2.38-1.466 3.43-1.655 1.43-.223 3.4-.88 3.33-2.709-.04-1.541-1.26-3.363-1.95-4.654-.82-1.569-1.63-3.138-2.54-4.699-3.52-5.868-7.96-11.267-13.62-15.207a37.057 37.057 0 00-10-4.908c-1.76-.327-2.28 2.519-.5 3.037z" fill="#C1845B"/><path d="M1326.6 794.471l.3-.07-.26-.215.15-1.153c.19-1.175-.84-1.857-1.88-1.572l1.69 3.01zm0 0c-.22 1.71-.45 3.409-.68 5.107-.29 2.174-.58 4.348-.87 6.546-1.18 8.987-2.36 17.998-3.55 27.009-1.18 9.011-2.36 18.022-3.55 27.009-1.19 8.939-2.35 17.9-3.51 26.861-1.17 8.961-2.33 17.922-3.52 26.861-.62 4.945-1.28 9.864-1.94 14.769-.53 4.005-1.07 8.002-1.58 11.997l19.2-146.159zm-194.15-6.081v.007l.05.975c.89 17.644 1.79 35.202 2.87 52.836 1.11 17.959 2.42 36 4.19 53.904 1.77 17.807 3.93 35.678 6.66 53.404a636.879 636.879 0 004.67 26.541c.71 3.633 2.01 7.125 6.04 8.515 1.61.591 3.36.912 5 1.213l.39.072.01.001h0c2.15.387 4.32.777 6.48 1.07 17.36 2.907 34.86 5.03 52.37 6.282 8.76.674 17.49 1.061 26.21 1.351h.01c4.45.089 8.91.178 13.26.179 4.34.002 8.82-.004 13.15-.777v-.001c14.95-2.793 24.75-15.606 29.18-29.208 2.61-7.799 3.73-15.945 4.85-24.043v-.025c.51-3.988 1.05-7.984 1.58-11.99.66-4.908 1.32-9.831 1.94-14.775 1.19-8.939 2.36-17.9 3.52-26.861h0c1.16-8.961 2.33-17.921 3.51-26.859v-.001c1.19-8.987 2.37-17.998 3.56-27.009v-.003c1.18-9.01 2.36-18.02 3.55-27.006h0c.28-2.197.57-4.371.87-6.545.29-2.171.58-4.344.86-6.541.12-.738-.15-1.365-.64-1.749-.49-.376-1.15-.492-1.79-.318-12.44 3.025-25.6 4.477-38.46 3.692h0c-5.89-.342-11.72-1.454-17.1-4.028-2.05-1.005-4.02-2.145-5.99-3.291-.58-.335-1.16-.671-1.74-1.004-2.56-1.466-5.17-2.87-8.01-3.892-5.64-2.034-11.56-2.966-17.51-3.504-6.35-.6-12.76-.902-19.16-1.109h0c-12.99-.301-25.92.07-38.86 1.409-14.42 1.372-28.74 3.87-42.89 7.206a2.237 2.237 0 00-.81-.08c-.91.08-1.87.744-1.82 1.962zm128.85 2.233c1.59.906 3.18 1.818 4.8 2.656 5.23 2.758 10.92 4.3 16.82 4.945h0c7.06.735 14.32.48 21.33-.045h.01c6.37-.564 12.7-1.566 18.99-2.941-2.19 16.684-4.38 33.372-6.56 50.147-2.31 17.582-4.61 35.165-6.91 52.843l-3.47 26.373v.001l-.69 5.443c-.84 6.61-1.68 13.231-2.77 19.756-2.42 14.1-7.33 29.127-20.07 36.92h0c-6.84 4.209-14.72 4.348-22.66 4.277h0c-8.69-.003-17.3-.301-25.93-.695a570.812 570.812 0 01-51.5-4.993h0c-4.2-.592-8.41-1.28-12.63-1.969-1.08-.195-2.16-.365-3.23-.535h-.01c-1.08-.171-2.15-.34-3.22-.533-.39-.071-.77-.136-1.16-.201-1.44-.241-2.88-.483-4.17-1.029l-.01-.002c-1.68-.685-2.57-2.054-3.13-3.735-.38-1.166-.59-2.417-.8-3.656-.09-.584-.19-1.165-.31-1.732-.86-4.358-1.64-8.724-2.31-13.098v-.008c-2.98-17.296-5.3-34.749-7.15-52.341-1.83-17.499-3.3-35.128-4.47-52.688-1.16-17.561-2.15-35.236-3.03-52.824-.09-2.166-.21-4.305-.33-6.441v-.004c-.08-1.49-.16-2.979-.23-4.476a311.216 311.216 0 0176.79-8.43c6.48.102 12.96.395 19.47.88h0c5.93.44 11.83 1.07 17.54 2.861 2.84.89 5.46 2.184 8.04 3.603.99.541 1.97 1.105 2.96 1.671zm45.46 134.037c-.24 1.809-.47 3.622-.7 5.437-.84 6.611-1.68 13.243-2.77 19.778-2.42 14.117-7.36 29.325-20.28 37.227l23.75-62.442z" fill="#45846C" stroke="#45846C" stroke-width=".893"/><path d="M1267.72 876.463c3.02 6.877 5.21 14.117 6.34 21.451.24 1.62.21 3.457.83 5.043.51 1.403 1.73 2.068 3.1 2.332 3.64.74 7.62.871 11.28.741 1.54-.04 3.28-.001 4.8-.329 1.61-.335 2.47-1.57 3.01-3.066 1.17-3.193 2.23-6.473 2.02-9.93-.22-3.553-2.04-6.674-3.93-9.499-2.11-3.096-4.31-6.088-6.51-9.175-1.22-1.727-2.35-3.558-3.74-5.076-1.17-1.248-2.57-1.8-4.28-1.456-1.81.257-3.45 1.368-5.11 2.287-1.84 1.032-3.78 2.072-5.62 3.104-1.66.919.1 3.274 1.66 2.363 2.76-1.5 5.41-3.278 8.29-4.499 1.31-.502 2.26-.683 3.24.486.98 1.265 1.87 2.634 2.76 3.907 1.87 2.634 3.76 5.364 5.73 7.989 1.65 2.364 3.52 4.902 4.25 7.733.84 2.919.14 5.877-.77 8.661-.32.801-.64 2.663-1.36 3.21-.46.33-1.43.223-2.01.274-.96.085-1.83.065-2.78.15-3.28.097-6.49-.102-9.72-.588-.48-.054-1.26-.082-1.58-.439-.32-.358-.3-1.229-.34-1.612-.24-1.62-.47-3.144-.71-4.764-1.3-7.03-3.35-13.895-6.25-20.397-.62-1.587-3.33-.574-2.6 1.099z" fill="#C1845B"/><path d="M1347.21 766.317c-1.74 3.243-3.49 6.391-5.23 9.635-1.09 1.93-2.16 3.956-3.67 5.538-2.83 2.953-7.15 4.301-11.18 3.5-4.43-.864-8.29-4.095-12.79-3.696 3.23 1.549 4.63 5.383 5.71 8.86 1.09 3.572 2.18 7.144 3.26 10.621.28 1.037.67 2.161.57 3.231-.14 1.654-1.37 3.019-2.52 4.183-9.94 9.954-24.89 14.56-38.64 12.012 3.03-2.875 3.39-7.541 3.12-11.669-.39-6.531-1.93-13.056-4.49-19.009a84.75 84.75 0 01-9.23 15.686c-2.07 2.79-4.35 5.501-7.28 7.305-3.03 1.717-6.84 2.344-9.89.682-2.53-1.32-4.21-3.971-5.6-6.551-2.78-5.161-5.11-10.844-5.25-16.721-.13-5.878 2.51-12.097 7.66-14.967 1.94-1.04 4.11-1.618 6.28-2.197 5.37-1.537 10.58-3.832 15.45-6.581-5.42-.195-10.94-.286-16.37-.482-2.32-.084-4.74-.159-6.68-1.339-3.17-1.94-4.13-6.2-4.55-9.928-.61-4.677-.83-9.388-.86-14.02.04-3.961.26-8.036 2.17-11.488 1.67-3.043 4.47-5.222 7.4-7.026 3.94-2.472 8.61-4.238 13.21-3.583 5.48.771 9.92 5.108 12.28 10.016 2.46 4.899 3.25 10.525 4.02 15.96.46 2.953.83 6.01 1.28 8.962l1.02-.476c1.12-12.457 5.64-24.636 12.96-34.745 2.15-2.99 4.69-5.918 8.07-7.086 2.53-.899 5.44-.771 8-.129 8.29 1.97 15.11 9.186 16.34 17.574.21 1.332.24 2.682-.13 3.97-.67 2.279-2.66 3.807-4.55 5.326-7.03 5.739-13.4 12.385-18.75 19.617 5.07-3.828 10.56-7.307 16.56-9.383 6-2.075 12.82-2.486 18.73-.112 2.51 1.033 4.86 2.562 6.05 5.064 2.11 4.158-.25 9.193-2.48 13.446z" fill="#B56A33"/><path d="M1290.11 771.66l17.03-13.865s-.81-5.914 2.38-5.811c3.2.104 5.72 5.673 3.32 6.948-2.4 1.274-22.73 12.728-22.73 12.728zm1.36.073l17.83-4.765s.14-3.97 3.1-3.17c2.97.799 4.41 5.017 2.02 5.324-2.39.308-22.95 2.611-22.95 2.611z" fill="#F9F6EF"/><path d="M1292.73 763.029c.44-2.646 9.7-36.677 18.12-39.739l-18.12 39.739zm-25.6-33.842l11.86 28.107-4.86-2.467-7-25.64zm-9.44 12.324s16.45 14.474 17.55 20.363c-.1.008-15.03-14.794-17.55-20.363zm49.81 71.669l-16.73-25.359 5.16 1.571 11.57 23.788z" fill="#D68B58"/><path d="M1314.58 799.327s-17.32-6.963-19.43-10.059c0 0 16.09 7.169 19.43 10.059zm-9.1-21.014c.71-.738 31.6-6.369 31.6-6.369l.14-2.812-31.74 9.181z" fill="#D68B58"/><path d="M1264 895.618c-3.4 6.287-8.35 11.552-14.39 15.273-1.56 1.006-3.21 1.925-4.66 3.019-1.36.99-2.71 2.171-2.44 4.078.35 1.803 1.66 3.521 2.48 5.091a59.971 59.971 0 012.51 5.473c1.72 4.192 3.07 8.514 4.14 12.957.32 1.42 2.51 1.033 2.78-.246.2-.983.4-2.063.6-3.046.06-.392.12-.879.27-1.279.07-.296.08-1.358.35-1.575.08-.105 2.05.3 2.34.275 1.07.098 2.14.197 3.2.199 3.97.035 7.86-.695 11.26-2.734 3.22-1.829 5.77-4.662 8.13-7.477 2.36-2.816 4.81-5.64 6.76-8.709 2.21-3.381 3.91-7.104 4.42-11.204.16-1.462-1.55-2.18-2.52-1.225-3.45 3.588-9.32 2.852-13.73 2.084-2.45-.363-5.29-.787-7.36-2.342-1.55-1.214-2.84-3.803-1.46-5.663 1.12-1.451-1.08-3.38-2.19-1.833-1.81 2.477-1.43 5.726.32 8.08 1.98 2.722 5.46 3.766 8.7 4.348 5.99 1.111 13.3 1.912 18-2.848-.81-.412-1.71-.814-2.52-1.225-.8 7.312-5.98 13.176-10.53 18.599-2.36 2.815-5 5.656-8.33 7.303-3.7 1.872-7.94 2.054-12.03 1.643-1.85-.222-4.22-.784-5.09 1.416-.4.905-.41 1.967-.61 2.951-.18 1.27-.46 2.454-.64 3.725l2.78-.246c-1.72-7.475-4.47-14.569-8.16-21.29-.34-.549-.99-1.361-.66-1.969.34-.609 1.53-1.294 2.08-1.632 1.55-1.007 3.12-1.917 4.67-2.924 2.74-1.787 5.34-4.045 7.55-6.364 2.65-2.841 4.88-5.936 6.7-9.379.82-1.713-1.8-2.93-2.72-1.304zm-20.91 7.16c-3.49 7.454-6.98 14.907-10.49 22.265-.4.905-.81 1.714-1.21 2.618-.33.705-.62 1.792-1.48 1.869-.86.076-1.76-.231-2.55-.45-.99-.203-2.07-.397-3.05-.6-4.13-.793-8.15-1.499-12.28-2.292-2.06-.397-4.13-.793-6.08-1.103-.99-.202-1.87-.317-2.85-.52-.2-.079-.78-.028-.99-.202-.2-.175.01-1.063-.02-1.35.09-3.387.94-6.841 2.51-9.877 3.3-6.374 9.44-10.103 16.57-10.252 4.44-.103 9.01.265 13.47.449l13.96.503c1.83.03 1.58-2.843-.26-2.874l-13.66-.528c-4.56-.176-9.13-.544-13.66-.433-7.82.113-14.78 4.398-18.53 11.198-1.82 3.348-2.84 7.107-3.09 10.893-.13 1.75-.23 3.883 1.49 4.793.71.419 1.68.43 2.47.65 1.18.185 2.36.467 3.54.652 4.52.855 9.13 1.702 13.65 2.557 2.25.38 4.52.855 6.87 1.226 1.86.318 3.84.819 5.25-.753.7-.739 1.1-1.739 1.5-2.644.58-1.113 1.05-2.313 1.63-3.426 1.05-2.314 2.2-4.636 3.25-6.95 2.28-4.74 4.46-9.567 6.75-14.307.74-1.513-1.89-2.825-2.71-1.112z" fill="#C1845B"/><path d="M1220.96 885.139c-1.77-.326-3.03.75-4.08 2.002-1.22 1.46-2.34 3.007-3.46 4.554-2.42 3.207-4.94 6.423-7.36 9.63-2.34 3.007-4.68 6.014-6.93 9.013-2.07 2.79-3.74 5.737-4.8 9.017l2.78-.246c-1.02-3.868-2.13-7.632-4.07-11.032-1.84-3.313-4.31-6.183-6.15-9.496-1.72-3.034-3.02-6.781-2.27-10.323.67-3.342 3.38-5.512 5.16-8.277.94-1.434 2.01-3.556 1.09-5.213-.46-.828-1.18-1.247-1.99-1.754-1.03-.682-1.96-1.372-2.99-2.053-.12.783-.24 1.662-.46 2.454 1.77-.832 3.78-1.01 5.68-1.371 2.1-.283 4.19-.661 6.29-.943l12.29-1.957c1.43-.223 3.23-.576 4.56.272 1.34.944 1.9 2.921 2.61 4.307 1.73 3.226 3.83 6.226 6.2 9.009 2.7 3.141 5.67 6.16 8.63 9.084.51-.817 1.02-1.634 1.52-2.452-3.7-1.41-7.4-2.916-11.1-4.327-1.71-.718-2.93 1.9-1.22 2.618 3.7 1.41 7.41 2.917 11.11 4.327 1.6.631 2.69-1.204 1.52-2.452-5.51-5.498-11.13-11.083-14.65-18.109-.71-1.482-1.44-3.155-2.88-4.186-1.35-1.04-3.11-1.27-4.84-1.213-2.01.178-4.01.548-6 .917-2.19.387-4.39.678-6.48 1.056-2.47.412-4.96.729-7.43 1.141-2.29.395-4.68.607-6.92 1.577-.93.372-1.38 1.764-.45 2.454.81.507 1.64 1.11 2.46 1.617.41.253 1.71.814 1.86 1.38.14.566-.63 1.601-.88 2.105-.42.713-.94 1.339-1.46 2.06-1.99 2.59-3.99 5.084-4.28 8.392-.78 7.504 4.27 13.332 7.99 19.278 2.45 3.741 3.69 7.88 4.85 12.219.42 1.507 2.4.946 2.77-.246.81-2.872 2.52-5.436 4.24-7.809 1.98-2.782 4.16-5.389 6.23-8.179 2.07-2.79 4.25-5.493 6.32-8.283 1.04-1.347 2.07-2.79 3.21-4.145.51-.722 1.04-1.347 1.55-2.069.35-.417 1.03-1.539 1.71-1.406 1.86.222 2.38-2.624.52-2.942z" fill="#C1845B"/><path d="M1359.23 500.816l-36 29.548 156.78-72.585 6.71-15.022-127.49 58.059z" fill="#B29172"/><path d="M1323.23 530.364l3.64 4.748 157.09-71.379-3.95-5.954-156.78 72.585z" fill="#E0BEA2"/><path d="M1326.87 535.112l-10.92 12.176 180.7-81.676-12.69-1.879-157.09 71.379z" fill="#B29172"/><path d="M1315.94 547.289l11.75 18.187 178.98-79.081s-6.23-22.473-9.97-20.673c-3.79 1.691-180.76 81.567-180.76 81.567z" fill="#E0BEA2"/><path d="M1375.69 418.356s33.89 53.179 8.6 70.383c-25.3 17.205 51.73-7.589 67.7-25.586 15.87-17.945-35.79 6.951-56.07-63.223-20.22-70.063-20.23 18.426-20.23 18.426z" fill="#83A096"/><path d="M1268.57 311.31s52.86 134.96 119.41 102.478c66.49-32.319-5-153.961-5-153.961s-47.13-1.677-114.41 51.483z" fill="#D3DFD0"/><path d="M1275.06 315.227c-6.87-4.141 72.69-49.532 102.98-49.632 30.28-.099-84.1 61.265-102.98 49.632z" fill="#E0BEA2"/><path d="M1433.88 256.702c-6.04-9.151-18.02-14.623-28.5-10.519-13.44 5.261-16.01 20.726-16.9 33.487-.54 7.034 10.47 7.96 10.95.816.61-8.015 1.01-20.674 10.01-24.199 6.58-2.632 13.88 2.661 16.57 8.542 7.68 16.49-7.53 34.935-14.5 48.862-2.92 6.016-5.42 12.912-2.79 19.502 2.53 6.369 8.91 10.612 15.82 8.367 5.53-1.72 9.21-7.289 7.28-12.994-1.68-4.884-7.04-7.856-11.86-6.617 1.25-3.311 2.98-6.452 4.77-9.482 3.25-5.903 6.72-11.638 9.43-17.821 5.02-11.772 7.2-26.643-.28-37.944zM1313.22 378.95a6.412 6.412 0 00-3.27.225c-2.37-2.656-5.67-4.451-9.2-5.868-9.66-3.745-19.22-6.998-27.98-12.258-7.25-4.365-20.41-11.165-19.79-20.818.58-10.035 13.9-14.152 20.3-7.616 4.42 4.378 12.81-2.377 8.45-6.917-10.27-10.36-30.18-7.269-37.32 7.147-8.2 16.692 8.82 28.68 21.04 36.066 7.47 4.532 15.66 8.31 24.13 11.273 4.07 1.425 9.73 2.491 12.19 6.185 2.19 3.144 2.02 7.29 4.98 10.063 4.63 4.272 12.89 3.411 16.25-2.817 4.2-7.581-2.65-13.359-9.78-14.665z" fill="#83A096"/><mask id="a" maskUnits="userSpaceOnUse" x="1205.77" y="222.979" width="340.102" height="354.101" fill="#000"><path fill="#fff" d="M1205.77 222.979h340.102V577.08H1205.77z"/><path d="M1326.58 566.824c-2.33-4.838-4.77-9.623-7.05-14.352-1.06-2.199-2.51-4.349-3.13-6.76-.57-2.028 0-3.658 1.71-4.888 3.04-2.412 6.98-3.227 8.94-6.746 1.84-3.194 1.9-7.287-1.78-9.034.2.986.46 2.081.55 3.12 8.75-8.824 18.31-16.817 28.51-24.036 5.18-3.581 10.3-6.999 15.69-10.14 5.18-3.036 10.67-5.411 15.73-8.394 4.57-2.607 7.41-6.55 7.21-12.012-.13-2.513-.75-4.924-1.48-7.282-.88-3.234-1.82-6.305-2.81-9.486a499.135 499.135 0 00-6.23-17.997c-1.22-3.075-2.43-6.15-3.64-9.224-1.11-2.582-2.1-5.49-3.7-7.971-1.45-2.15-3.56-3.436-6.17-3.53-2.46-.036-4.81.421-7.32.275-5.02-.293-9.97-1.567-14.63-3.382-10.2-4.027-19.34-10.33-28.75-16.091-5.08-3.241-10.28-6.43-14.52-10.75-1.89-1.939-3.71-4.04-6.1-5.331-2.27-1.343-4.83-1.872-7.33-2.564-10.92-3-20.38-9.144-29.46-15.61-4.75-3.4-9.84-6.641-13.59-11.064-3.6-4.366-4.39-9.672-3.17-15.004 1.22-5.059 3.53-10.375 6.48-14.644 2.79-4.053 6.99-7.43 12.1-6.372 1.96.411 3.8 1.421 4.65 3.18.9 1.596 3.26 1.14 3.5-.603.82-7.849 8.31-12.815 14.26-16.767 8.6-5.769 17.41-11.098 26.27-16.317 9.02-5.163 18.1-10.215 27.28-15.047 9.07-4.779 18.09-9.668 27.38-14.008 4.28-2.066 9.44-4.009 14.33-2.845 3.81.875 7.92 3.774 8.07 8.034.14 1.967 2.75 2.879 3.6.708 2.15-5.646 4.42-11.617 8.95-15.699 4.15-3.76 10.06-5.256 15.57-4.793 11.72.992 20.79 11.116 23.75 22.023 2.75 10.194.68 21.081-3.98 30.511-2.42 4.823-5.49 9.418-9.25 13.402-2.83 3.124-8.63 7.952-4.28 12.492 1.89 1.939 5.16 1.987 6.77 4.194 1.39 2.04 1.24 4.822.44 7.103-2.56 7.059-11.68 7.798-18.02 8.141-1.2.037-2.14.897-1.94 2.155 2.81 13.689 2.06 27.871-1.79 41.243-2 6.522-4.65 12.815-8.07 18.66-1.73 2.868-3.68 5.841-3.95 9.222-.33 3.816 1.64 7.339 3.89 10.32 9.21 12.637 21.11 23.566 34.08 32.219 2.98 1.955 6.06 4.129 9.42 5.216 3.76 1.038 7.2.324 10.45-1.648 3.58-2.13 7-4.591 10.74-6.665s7.58-3.928 11.43-5.509c7.3-3.113 14.97-5.456 22.85-6.814 6.78-1.101 13.99-1.322 20.55 1.34 5.43 2.264 10 6.971 11.67 12.673.72 2.631.85 5.417-.06 8.024-1.14 3.258-3.58 5.788-6.23 7.878-3.14 2.465-6.67 4.433-10.13 6.511-3.8 2.236-7.55 4.583-11.4 6.71-7.59 4.473-15.29 8.727-23.15 12.924-15.4 8.234-31.01 16.028-46.78 23.493-31.76 15.035-64.09 28.588-96.48 42.03-3.95 1.634-8.02 3.321-11.97 4.955-2.14.897-.55 4.196 1.59 3.299 32.83-13.654 65.82-27.252 98.07-42.116 32.13-14.811 63.74-30.995 93.97-49.492 6.16-3.785 13.37-7.664 15.87-14.832 1.99-5.703.44-12.004-2.82-16.801-8.01-11.855-23.45-12.41-36.15-9.813a119.762 119.762 0 00-23.63 7.731c-3.9 1.744-7.69 3.708-11.27 5.838a54.625 54.625 0 00-5.28 3.362c-1.77 1.12-3.31 2.407-5.23 3.198-3.63 1.475-6.99-.158-10.07-2.059-3.46-2.126-6.76-4.467-9.94-6.861a133.84 133.84 0 01-17.73-15.983c-2.74-2.879-5.31-5.974-7.78-9.122-2.2-2.871-5.2-6.3-4.55-10.276.43-3.323 2.93-6.289 4.55-9.103 1.68-2.978 3.26-6.176 4.56-9.377 5.31-12.86 7.42-27.022 6.31-40.849-.33-3.499-.77-6.944-1.43-10.284-.61.701-1.33 1.454-1.94 2.155 6.88-.335 14.96-.98 19.68-6.643 3.17-3.829 4.19-10.146 1.03-14.451a8.098 8.098 0 00-2.75-2.333c-1.3-.729-3.04-.973-4.07-1.971-1.94-1.775 1.43-4.619 2.6-5.857 4.2-4.196 7.76-8.893 10.51-14.147 5.44-10.074 8.07-22.045 5.5-33.273-2.67-11.995-11.68-23.1-24.08-25.794-6.8-1.465-14.18-.209-19.92 3.91-6.17 4.33-9.12 11.711-11.62 18.607l3.6.708c-.16-4.26-2.51-7.734-6.14-9.916-3.84-2.35-8.25-2.797-12.58-1.933-5.09.963-9.59 3.407-14.16 5.742l-15 7.639c-20.07 10.349-39.87 21.248-58.82 33.634-7.71 5.072-17.29 11.045-18.37 21.182 1.15-.146 2.36-.456 3.5-.603-2.28-4.183-6.9-5.888-11.38-5.354-5.41.575-9.45 4.555-12.24 8.881-5.42 8.437-10.29 20.811-4.64 30.284 3.09 5.286 8.28 8.747 13.14 12.367 4.59 3.343 9.24 6.796 14.16 9.707 4.82 2.964 9.85 5.55 15.23 7.43 2.61.912 5.33 1.498 7.93 2.41 2.77.969 4.82 2.419 6.87 4.414 4.25 4.321 8.95 7.884 14.08 11.235 5.08 3.241 10.44 6.486 15.63 9.674 8.82 5.371 18.25 10.314 28.59 11.831 2.62.366 5.07.402 7.7.222 2.62-.179 5.03-.799 6.68 1.791 1.49 2.533 2.49 5.441 3.65 8.133 1.26 3.185 2.53 6.37 3.74 9.445 2.31 6.202 4.52 12.458 6.39 18.873.88 2.961 1.82 6.031 2.6 9.045.56 2.301 1.13 4.875.6 7.16-1.22 5.332-8.23 7.358-12.47 9.533a248.674 248.674 0 00-16.61 9.636c-10.63 6.885-20.62 14.544-29.91 23.087-2.32 2.204-4.54 4.355-6.86 6.559-1 1.022-.69 2.501.55 3.12 1.25.618.4 2.517.01 3.384-.84 1.625-2.16 2.534-3.81 3.328-3.14 1.647-6.71 3.504-7.58 7.313-.94 4.244 1.95 8.545 3.81 12.12 2.22 4.619 4.56 9.184 6.84 13.912.57 1.756 3.87.166 2.81-2.033z"/></mask><path d="M1326.58 566.824c-2.33-4.838-4.77-9.623-7.05-14.352-1.06-2.199-2.51-4.349-3.13-6.76-.57-2.028 0-3.658 1.71-4.888 3.04-2.412 6.98-3.227 8.94-6.746 1.84-3.194 1.9-7.287-1.78-9.034.2.986.46 2.081.55 3.12 8.75-8.824 18.31-16.817 28.51-24.036 5.18-3.581 10.3-6.999 15.69-10.14 5.18-3.036 10.67-5.411 15.73-8.394 4.57-2.607 7.41-6.55 7.21-12.012-.13-2.513-.75-4.924-1.48-7.282-.88-3.234-1.82-6.305-2.81-9.486a499.135 499.135 0 00-6.23-17.997c-1.22-3.075-2.43-6.15-3.64-9.224-1.11-2.582-2.1-5.49-3.7-7.971-1.45-2.15-3.56-3.436-6.17-3.53-2.46-.036-4.81.421-7.32.275-5.02-.293-9.97-1.567-14.63-3.382-10.2-4.027-19.34-10.33-28.75-16.091-5.08-3.241-10.28-6.43-14.52-10.75-1.89-1.939-3.71-4.04-6.1-5.331-2.27-1.343-4.83-1.872-7.33-2.564-10.92-3-20.38-9.144-29.46-15.61-4.75-3.4-9.84-6.641-13.59-11.064-3.6-4.366-4.39-9.672-3.17-15.004 1.22-5.059 3.53-10.375 6.48-14.644 2.79-4.053 6.99-7.43 12.1-6.372 1.96.411 3.8 1.421 4.65 3.18.9 1.596 3.26 1.14 3.5-.603.82-7.849 8.31-12.815 14.26-16.767 8.6-5.769 17.41-11.098 26.27-16.317 9.02-5.163 18.1-10.215 27.28-15.047 9.07-4.779 18.09-9.668 27.38-14.008 4.28-2.066 9.44-4.009 14.33-2.845 3.81.875 7.92 3.774 8.07 8.034.14 1.967 2.75 2.879 3.6.708 2.15-5.646 4.42-11.617 8.95-15.699 4.15-3.76 10.06-5.256 15.57-4.793 11.72.992 20.79 11.116 23.75 22.023 2.75 10.194.68 21.081-3.98 30.511-2.42 4.823-5.49 9.418-9.25 13.402-2.83 3.124-8.63 7.952-4.28 12.492 1.89 1.939 5.16 1.987 6.77 4.194 1.39 2.04 1.24 4.822.44 7.103-2.56 7.059-11.68 7.798-18.02 8.141-1.2.037-2.14.897-1.94 2.155 2.81 13.689 2.06 27.871-1.79 41.243-2 6.522-4.65 12.815-8.07 18.66-1.73 2.868-3.68 5.841-3.95 9.222-.33 3.816 1.64 7.339 3.89 10.32 9.21 12.637 21.11 23.566 34.08 32.219 2.98 1.955 6.06 4.129 9.42 5.216 3.76 1.038 7.2.324 10.45-1.648 3.58-2.13 7-4.591 10.74-6.665s7.58-3.928 11.43-5.509c7.3-3.113 14.97-5.456 22.85-6.814 6.78-1.101 13.99-1.322 20.55 1.34 5.43 2.264 10 6.971 11.67 12.673.72 2.631.85 5.417-.06 8.024-1.14 3.258-3.58 5.788-6.23 7.878-3.14 2.465-6.67 4.433-10.13 6.511-3.8 2.236-7.55 4.583-11.4 6.71-7.59 4.473-15.29 8.727-23.15 12.924-15.4 8.234-31.01 16.028-46.78 23.493-31.76 15.035-64.09 28.588-96.48 42.03-3.95 1.634-8.02 3.321-11.97 4.955-2.14.897-.55 4.196 1.59 3.299 32.83-13.654 65.82-27.252 98.07-42.116 32.13-14.811 63.74-30.995 93.97-49.492 6.16-3.785 13.37-7.664 15.87-14.832 1.99-5.703.44-12.004-2.82-16.801-8.01-11.855-23.45-12.41-36.15-9.813a119.762 119.762 0 00-23.63 7.731c-3.9 1.744-7.69 3.708-11.27 5.838a54.625 54.625 0 00-5.28 3.362c-1.77 1.12-3.31 2.407-5.23 3.198-3.63 1.475-6.99-.158-10.07-2.059-3.46-2.126-6.76-4.467-9.94-6.861a133.84 133.84 0 01-17.73-15.983c-2.74-2.879-5.31-5.974-7.78-9.122-2.2-2.871-5.2-6.3-4.55-10.276.43-3.323 2.93-6.289 4.55-9.103 1.68-2.978 3.26-6.176 4.56-9.377 5.31-12.86 7.42-27.022 6.31-40.849-.33-3.499-.77-6.944-1.43-10.284-.61.701-1.33 1.454-1.94 2.155 6.88-.335 14.96-.98 19.68-6.643 3.17-3.829 4.19-10.146 1.03-14.451a8.098 8.098 0 00-2.75-2.333c-1.3-.729-3.04-.973-4.07-1.971-1.94-1.775 1.43-4.619 2.6-5.857 4.2-4.196 7.76-8.893 10.51-14.147 5.44-10.074 8.07-22.045 5.5-33.273-2.67-11.995-11.68-23.1-24.08-25.794-6.8-1.465-14.18-.209-19.92 3.91-6.17 4.33-9.12 11.711-11.62 18.607l3.6.708c-.16-4.26-2.51-7.734-6.14-9.916-3.84-2.35-8.25-2.797-12.58-1.933-5.09.963-9.59 3.407-14.16 5.742l-15 7.639c-20.07 10.349-39.87 21.248-58.82 33.634-7.71 5.072-17.29 11.045-18.37 21.182 1.15-.146 2.36-.456 3.5-.603-2.28-4.183-6.9-5.888-11.38-5.354-5.41.575-9.45 4.555-12.24 8.881-5.42 8.437-10.29 20.811-4.64 30.284 3.09 5.286 8.28 8.747 13.14 12.367 4.59 3.343 9.24 6.796 14.16 9.707 4.82 2.964 9.85 5.55 15.23 7.43 2.61.912 5.33 1.498 7.93 2.41 2.77.969 4.82 2.419 6.87 4.414 4.25 4.321 8.95 7.884 14.08 11.235 5.08 3.241 10.44 6.486 15.63 9.674 8.82 5.371 18.25 10.314 28.59 11.831 2.62.366 5.07.402 7.7.222 2.62-.179 5.03-.799 6.68 1.791 1.49 2.533 2.49 5.441 3.65 8.133 1.26 3.185 2.53 6.37 3.74 9.445 2.31 6.202 4.52 12.458 6.39 18.873.88 2.961 1.82 6.031 2.6 9.045.56 2.301 1.13 4.875.6 7.16-1.22 5.332-8.23 7.358-12.47 9.533a248.674 248.674 0 00-16.61 9.636c-10.63 6.885-20.62 14.544-29.91 23.087-2.32 2.204-4.54 4.355-6.86 6.559-1 1.022-.69 2.501.55 3.12 1.25.618.4 2.517.01 3.384-.84 1.625-2.16 2.534-3.81 3.328-3.14 1.647-6.71 3.504-7.58 7.313-.94 4.244 1.95 8.545 3.81 12.12 2.22 4.619 4.56 9.184 6.84 13.912.57 1.756 3.87.166 2.81-2.033z" fill="#45846C"/><path d="M1326.58 566.824c-2.33-4.838-4.77-9.623-7.05-14.352-1.06-2.199-2.51-4.349-3.13-6.76-.57-2.028 0-3.658 1.71-4.888 3.04-2.412 6.98-3.227 8.94-6.746 1.84-3.194 1.9-7.287-1.78-9.034.2.986.46 2.081.55 3.12 8.75-8.824 18.31-16.817 28.51-24.036 5.18-3.581 10.3-6.999 15.69-10.14 5.18-3.036 10.67-5.411 15.73-8.394 4.57-2.607 7.41-6.55 7.21-12.012-.13-2.513-.75-4.924-1.48-7.282-.88-3.234-1.82-6.305-2.81-9.486a499.135 499.135 0 00-6.23-17.997c-1.22-3.075-2.43-6.15-3.64-9.224-1.11-2.582-2.1-5.49-3.7-7.971-1.45-2.15-3.56-3.436-6.17-3.53-2.46-.036-4.81.421-7.32.275-5.02-.293-9.97-1.567-14.63-3.382-10.2-4.027-19.34-10.33-28.75-16.091-5.08-3.241-10.28-6.43-14.52-10.75-1.89-1.939-3.71-4.04-6.1-5.331-2.27-1.343-4.83-1.872-7.33-2.564-10.92-3-20.38-9.144-29.46-15.61-4.75-3.4-9.84-6.641-13.59-11.064-3.6-4.366-4.39-9.672-3.17-15.004 1.22-5.059 3.53-10.375 6.48-14.644 2.79-4.053 6.99-7.43 12.1-6.372 1.96.411 3.8 1.421 4.65 3.18.9 1.596 3.26 1.14 3.5-.603.82-7.849 8.31-12.815 14.26-16.767 8.6-5.769 17.41-11.098 26.27-16.317 9.02-5.163 18.1-10.215 27.28-15.047 9.07-4.779 18.09-9.668 27.38-14.008 4.28-2.066 9.44-4.009 14.33-2.845 3.81.875 7.92 3.774 8.07 8.034.14 1.967 2.75 2.879 3.6.708 2.15-5.646 4.42-11.617 8.95-15.699 4.15-3.76 10.06-5.256 15.57-4.793 11.72.992 20.79 11.116 23.75 22.023 2.75 10.194.68 21.081-3.98 30.511-2.42 4.823-5.49 9.418-9.25 13.402-2.83 3.124-8.63 7.952-4.28 12.492 1.89 1.939 5.16 1.987 6.77 4.194 1.39 2.04 1.24 4.822.44 7.103-2.56 7.059-11.68 7.798-18.02 8.141-1.2.037-2.14.897-1.94 2.155 2.81 13.689 2.06 27.871-1.79 41.243-2 6.522-4.65 12.815-8.07 18.66-1.73 2.868-3.68 5.841-3.95 9.222-.33 3.816 1.64 7.339 3.89 10.32 9.21 12.637 21.11 23.566 34.08 32.219 2.98 1.955 6.06 4.129 9.42 5.216 3.76 1.038 7.2.324 10.45-1.648 3.58-2.13 7-4.591 10.74-6.665s7.58-3.928 11.43-5.509c7.3-3.113 14.97-5.456 22.85-6.814 6.78-1.101 13.99-1.322 20.55 1.34 5.43 2.264 10 6.971 11.67 12.673.72 2.631.85 5.417-.06 8.024-1.14 3.258-3.58 5.788-6.23 7.878-3.14 2.465-6.67 4.433-10.13 6.511-3.8 2.236-7.55 4.583-11.4 6.71-7.59 4.473-15.29 8.727-23.15 12.924-15.4 8.234-31.01 16.028-46.78 23.493-31.76 15.035-64.09 28.588-96.48 42.03-3.95 1.634-8.02 3.321-11.97 4.955-2.14.897-.55 4.196 1.59 3.299 32.83-13.654 65.82-27.252 98.07-42.116 32.13-14.811 63.74-30.995 93.97-49.492 6.16-3.785 13.37-7.664 15.87-14.832 1.99-5.703.44-12.004-2.82-16.801-8.01-11.855-23.45-12.41-36.15-9.813a119.762 119.762 0 00-23.63 7.731c-3.9 1.744-7.69 3.708-11.27 5.838a54.625 54.625 0 00-5.28 3.362c-1.77 1.12-3.31 2.407-5.23 3.198-3.63 1.475-6.99-.158-10.07-2.059-3.46-2.126-6.76-4.467-9.94-6.861a133.84 133.84 0 01-17.73-15.983c-2.74-2.879-5.31-5.974-7.78-9.122-2.2-2.871-5.2-6.3-4.55-10.276.43-3.323 2.93-6.289 4.55-9.103 1.68-2.978 3.26-6.176 4.56-9.377 5.31-12.86 7.42-27.022 6.31-40.849-.33-3.499-.77-6.944-1.43-10.284-.61.701-1.33 1.454-1.94 2.155 6.88-.335 14.96-.98 19.68-6.643 3.17-3.829 4.19-10.146 1.03-14.451a8.098 8.098 0 00-2.75-2.333c-1.3-.729-3.04-.973-4.07-1.971-1.94-1.775 1.43-4.619 2.6-5.857 4.2-4.196 7.76-8.893 10.51-14.147 5.44-10.074 8.07-22.045 5.5-33.273-2.67-11.995-11.68-23.1-24.08-25.794-6.8-1.465-14.18-.209-19.92 3.91-6.17 4.33-9.12 11.711-11.62 18.607l3.6.708c-.16-4.26-2.51-7.734-6.14-9.916-3.84-2.35-8.25-2.797-12.58-1.933-5.09.963-9.59 3.407-14.16 5.742l-15 7.639c-20.07 10.349-39.87 21.248-58.82 33.634-7.71 5.072-17.29 11.045-18.37 21.182 1.15-.146 2.36-.456 3.5-.603-2.28-4.183-6.9-5.888-11.38-5.354-5.41.575-9.45 4.555-12.24 8.881-5.42 8.437-10.29 20.811-4.64 30.284 3.09 5.286 8.28 8.747 13.14 12.367 4.59 3.343 9.24 6.796 14.16 9.707 4.82 2.964 9.85 5.55 15.23 7.43 2.61.912 5.33 1.498 7.93 2.41 2.77.969 4.82 2.419 6.87 4.414 4.25 4.321 8.95 7.884 14.08 11.235 5.08 3.241 10.44 6.486 15.63 9.674 8.82 5.371 18.25 10.314 28.59 11.831 2.62.366 5.07.402 7.7.222 2.62-.179 5.03-.799 6.68 1.791 1.49 2.533 2.49 5.441 3.65 8.133 1.26 3.185 2.53 6.37 3.74 9.445 2.31 6.202 4.52 12.458 6.39 18.873.88 2.961 1.82 6.031 2.6 9.045.56 2.301 1.13 4.875.6 7.16-1.22 5.332-8.23 7.358-12.47 9.533a248.674 248.674 0 00-16.61 9.636c-10.63 6.885-20.62 14.544-29.91 23.087-2.32 2.204-4.54 4.355-6.86 6.559-1 1.022-.69 2.501.55 3.12 1.25.618.4 2.517.01 3.384-.84 1.625-2.16 2.534-3.81 3.328-3.14 1.647-6.71 3.504-7.58 7.313-.94 4.244 1.95 8.545 3.81 12.12 2.22 4.619 4.56 9.184 6.84 13.912.57 1.756 3.87.166 2.81-2.033z" stroke="#45846C" stroke-width="2.702" mask="url(#a)"/><path d="M1301.14 369.788c-2.62-13.385-9.51-25.681-19.75-34.72a3.886 3.886 0 00-.41-.336c-.65-.727-1.7-1.205-2.91-.701-.84.352-1.85.222-3.02-.141-.51-.161-1.03-.358-1.55-.556-.06-.021-.11-.043-.17-.064-.56-.214-1.14-.429-1.68-.57-2.6-.718-5.33-.82-7.87-.169-2.34.563-5.12 1.899-7.01 3.832-.95.972-1.69 2.12-2.01 3.423-.32 1.315-.2 2.739.51 4.22 1.21 2.513 3.15 4.782 4.99 6.629a44.94 44.94 0 006 5.611c4.31 3.543 9.06 6.311 13.95 8.846h0l.01.006c5.72 2.827 11.66 5.27 17.64 7.545v.004l.01.003c1.82.636 3.61-1.004 3.27-2.855h0v-.007zm-28.35-31.787c1.81.634 3.63 1.126 5.55.884 8.11 7.311 13.98 16.761 16.9 27.24-7.81-3.061-15.52-6.464-22.38-11.31h0l-.01-.005c-4.01-2.759-7.72-6.043-10.62-9.837-.17-.229-.38-.493-.6-.763-.15-.174-.29-.35-.43-.52-.36-.459-.71-.928-.97-1.393-.27-.47-.42-.893-.45-1.262-.02-.341.06-.659.33-.973 1.37-1.529 3.42-2.532 5.51-3.025 2.54-.465 4.61.162 7.17.964zm132.87-21.974v-.012c-1.37-2.122-2.71-4.216-4.06-6.31v-.001c-1.35-2.092-2.7-4.184-4.06-6.303-.64-1.053-1.3-2.063-1.95-3.065v-.003c-.65-1.008-1.3-2.006-1.94-3.043h0v-.006c-.29-.455-.6-.912-.9-1.363l-.05-.077c-.33-.479-.65-.955-.95-1.437-.59-.968-1.08-1.927-1.31-2.918l-.01-.017v-.018c-.26-.882-.13-1.644.19-2.414.26-.602.62-1.165 1.02-1.789.14-.218.28-.444.43-.681l2.08-3.238 2.1-3.245h0v-.003c.73-1.149 1.45-2.298 2.17-3.443 1.85-2.973 3.69-5.913 5.73-8.746h0l.01-.007c1-1.432 2.26-3.147 3.74-4.392 1.48-1.244 3.06-1.93 4.75-1.534h0c1.71.393 3.27 1.571 4.6 3.118 1.33 1.54 2.39 3.39 3.11 5.021 3.38 7.832 1.69 16.601-1.04 24.665v.005c-1.48 4.506-3.06 9.027-5.17 13.261l-.01.01v.01c-1.89 4.126-4.39 7.932-8.19 10.282-.12.074-.23.153-.33.236.13-.163.23-.345.3-.545.23-.619.16-1.319-.26-1.998zm-.95 3.285c.18-.089.36-.201.52-.335-.65.852-.62 1.973-.22 2.794.25.532.69 1.009 1.28 1.24.6.24 1.3.181 1.96-.226 4.29-2.562 7.24-6.4 9.49-10.647 2.07-3.912 3.57-8.216 4.97-12.235.12-.336.23-.67.35-1.002 3.3-9.195 5.81-19.232 2.48-29.011h0v-.009c-1.55-4.37-4.35-8.762-8.41-11.328l-.01-.003c-4.35-2.7-9.27-1.751-12.83 1.532-1.97 1.72-3.57 3.813-5 5.973-.72 1.082-1.4 2.189-2.07 3.277a1.26 1.26 0 01-.1.154c-.64 1.039-1.26 2.059-1.91 3.042v.006l-.01.007c-.72 1.159-1.47 2.332-2.23 3.509v.002c-.75 1.171-1.5 2.346-2.23 3.509v.003c-1.5 2.207-3.02 4.446-4.32 6.859l-.01.009v.009c-1.47 2.926-1.01 5.735.12 8.316.83 1.867 2.05 3.692 3.18 5.389.4.605.8 1.195 1.16 1.764h0v.009a940.12 940.12 0 015.31 8.207v.001c1.76 2.73 3.51 5.462 5.29 8.182.7 1.385 2.22 1.491 3.24 1.003z" fill="#45846C" stroke="#45846C" stroke-width="1.351"/><path d="M1284.94 322.524c15.8-2.06 30.94-7.46 45.23-14.618 7.2-3.606 14.08-7.599 20.8-11.922 6.55-4.106 13.05-8.323 19.18-13.037 5.24-4.017 10.01-9.296 9.56-16.399-.18-2.35-3.79-1.694-3.61.656.41 5.629-4.56 9.923-8.59 13.084-5.85 4.445-12.02 8.503-18.13 12.397-12.66 8.002-25.97 15.23-40.07 20.263-8.12 2.828-16.44 4.943-24.97 6.073-2.35.184-1.69 3.796.6 3.503zm60.04 41.663c-.57-10.162-1.24-20.544 1.14-30.498 1.16-4.896 3.09-9.617 5.77-13.89 2.95-4.542 6.4-8.913 8.55-14.013-.94.314-1.87.628-2.8.942.97.614 1.56 1.824 2.03 2.814l2.4 4.129c1.49 2.533 2.87 5.119 3.98 7.701 2.33 4.839 4.06 10.105 4.75 15.465.63 5.249-.15 10.369-1.97 15.31-.91 2.607-1.93 5.267-2.89 7.764-.91 2.334-2.42 5.095-1.86 7.669.31 1.479 1.27 2.639 2.02 3.906.96 1.434 1.92 2.867 2.77 4.354 1.93 2.867 3.69 5.677 5.61 8.544.67-.864 1.17-1.785 1.84-2.648-2.45-.309-4.95-.728-7.41-1.037-2.17-.306-4.46-.831-6.64-.863-1.75.029-3.5.604-4.4 2.119-.44.758-.46 1.576-.47 2.395.05.383.21.713.1 1.039.05.382.05-.163.16-.216-.38.049-.65.045-1.04.094-2.29.293-4.58.314-6.93.225-.71-.065-1.25-.073-1.96-.138-.44-.061-1.36-.293-1.58-.187 0 0-.33.432-.01.273.33-.159-.22.378.11-.053.17-.216.23-.652.24-.925.4-1.413.8-2.827.05-4.093-1.01-1.817-3.67-2.293-5.47-2.92-5.31-2.043-10.47-4.03-15.79-6.074-.12 1.145-.2 2.4-.32 3.544a86.474 86.474 0 0019.54-7.791c2.03-1.116.44-4.415-1.59-3.299-5.89 3.243-12.09 5.827-18.61 7.477-1.7.412-2.01 2.864-.32 3.544 4.66 1.816 9.33 3.631 14.11 5.394 1.14.399 2.17.851 3.31 1.25.49.171 1.09.289 1.52.623.38.224.16-.216.16.33-.02 1.364-1.02 2.387-.71 3.865.35 1.861 2.14 2.488 3.83 2.622 2.35.362 4.8.398 7.15.215 1.86-.082 4.69.178 6.29-.999.72-.481 1.27-1.292 1.39-2.163.01-.546-.4-1.972-.18-2.35.22-.379 1.91-.245 2.35-.184 1.31.183 2.72.313 4.08.606 2.89.37 5.67.793 8.61 1.273 1.3.183 2.53-1.491 1.84-2.647-1.61-2.481-3.26-5.071-4.97-7.498-.86-1.213-1.6-2.48-2.51-3.804-.86-1.213-1.88-2.484-2.57-3.913-.63-1.32.21-2.672.55-3.923.57-1.356.97-2.769 1.53-4.126 1.02-2.66 2.1-5.482 2.96-8.199 3.37-10.432 1.12-21.273-3.32-31.056-1.38-3.132-3.08-6.105-4.78-9.078-1.5-2.533-2.87-5.937-5.3-7.611-1.02-.725-2.34-.089-2.79.941-1.7 4.07-4.32 7.634-6.77 11.255-2.39 3.459-4.41 7.141-5.89 11.104-2.83 7.601-3.44 15.889-3.5 23.913-.02 4.749.3 9.339.51 13.983.67 2.521 4.28 1.864 4.1-.486z" fill="#45846C"/><path d="M1348.5 319.803c1.93 2.867 5.68 3.633 9.01 3.518 3.06-.119 6.08-1.439 8.35-3.48.77-.644.84-1.898.14-2.509-.64-.774-1.9-.847-2.51-.146-.94.859-1.54 1.287-2.7 1.707-.66.318-.77.371-1.37.526-.6.154-1.2.309-1.75.301-.11.053-.27-.004-.38.049-.38.049.16.057-.11.053a5.965 5.965 0 00-.93.041c-.27-.004-.54-.008-.87-.122-.16-.057-.27-.004-.44-.061 0 0-.43-.061-.27-.004a5.756 5.756 0 01-1.63-.57c-.16-.057-.38-.224-.59-.391-.22-.167-.17-.057-.22-.167 0 0-.27-.277-.21-.167-.54-.826-1.46-1.331-2.45-.854-.98.203-1.6 1.45-1.07 2.276zm11.63 18.787c-.33.432-.67.863-1 1.295-.28.269-.61.701-1.11 1.076-.11.053-.27.269-.38.321l-.11.053-.66.318-.11.053c-.11.053-.22.106-.39.049-.38.049-.27-.004-.11.053-.16-.057-.27-.004-.54-.008s-.16-.057 0 0c-.16-.057-.16-.057-.33-.114l-.32-.114c.32.114 0 0-.17-.057-.21-.167-.37-.224-.59-.391-.22-.167.22.167 0 0-.05-.11-.27-.277-.32-.387 0 0-.27-.277-.11-.22.11.22-.1-.219-.1-.219-.06-.11-.16-.33-.22-.44 0 0-.16-.33-.05-.11-.11-.22-.1-.493-.21-.713-.05-.11.01-.273-.05-.383 0 0 .01-.546-.05-.383-.03-1.201.19-1.853.54-2.83.17-.489-.06.162.05-.163.06-.163.17-.216.23-.379.16-.216.33-.432.5-.648 0 0 .22-.379.16-.216.11-.053.17-.216.28-.269.11-.053.17-.216.28-.269 0 0 .49-.374.16-.215l.66-.318.33-.159c-.11.053-.38.049 0 0 .22-.106.5-.102.66-.045-.27-.004 0 0 0 0 .16.057.27.004.54.008.33.114.17.057 0 0 .17.057.17.057.33.114 0 0 .49.171.33.114-.17-.057.16.057.21.167.16.057.22.167.27.277.22.167-.22-.167.05.11.22.167.38.497.59.664.06.109.11.219.27.276.06.11.06.11 0 0 .06.11.06.11.11.22.11.22.21.44.32.66.1.22.21.44.32.66.15.33 0 0 0 0 .05.11.1.22.1.493.1.22.1.492.1.765-.06-.11-.05-.382 0 0-.06.163-.01.273-.07.436-.05.163-.16.216 0 0-.05.163-.05.163-.11.326s.28-.269 0 0c-.11.053-.33.432-.11.053-.61.701-.9 1.788-.14 2.509.59.664 1.89.847 2.5.146 2.11-2.098 1.55-5.218.17-7.531-.8-1.376-1.93-2.594-3.5-3.327-1.52-.623-3.11-.537-4.64-.068-6.25 2.2-7.44 12.937-.93 15.49 1.68.679 3.59.435 5.08-.417 1.7-.957 2.87-2.469 3.93-3.927.56-.811.36-2.069-.56-2.574-.43-.88-1.52-.623-2.08.188zm-17.3 57.664c.61 2.957.95 5.91 1.07 8.968.05.383.47.99.85 1.214.38.224.87.395 1.36.293 1.1-.257 1.49-1.124 1.45-2.053-.23-3.006-.57-5.959-1.07-8.968-.2-.986-1.23-1.711-2.05-1.45-1.15.147-1.82 1.01-1.61 1.996zm6.51-1.651c-.12 4.802.14 9.556 1.05 14.264.46 2.354 4.07 1.697 3.62-.657-.76-4.378-1.13-8.805-.96-13.224.07-.982-.63-1.866-1.66-2.045-1.04-.179-1.98.681-2.05 1.662zm7.27-.93c-.07 5.185-.09 10.48 0 15.722.04.929.63 1.865 1.66 2.044.87.122 1.97-.68 2.04-1.662-.09-5.242-.06-10.537.01-15.721.07-.982-.63-1.866-1.66-2.045-.98-.069-1.98.681-2.05 1.662z" fill="#45846C"/><path d="M-93.56 605.868c3.794 1.938 194.075 54.016 227.252 86.887 26.542 26.298 16.695 47.101 8.454 54.216-6.564 9.033-33.861 20.499-90.54-5.906-62.772-29.242-168.353-85.769-216.562-71.154-19.069 16.524-29.465 24.518-15.55 9.388 4.09-4.448 9.345-7.507 15.55-9.388 20.258-17.555 50.307-44.736 71.395-64.043z" fill="#4A5759"/><path d="M154.09 704.263l-16.514-3.944 3.287 7.855 13.227-3.911z" fill="#C4C4C4"/><ellipse cx="125.656" cy="708.267" rx="6" ry="6.5" transform="rotate(27.058 125.656 708.267)" fill="#E0BEA2"/><ellipse cx="95.186" cy="715.16" rx="20" ry="22.5" transform="rotate(27.058 95.186 715.16)" fill="#E0BEA2"/><ellipse cx="128.985" cy="727.889" rx="8.05" ry="8.997" transform="rotate(27.058 128.985 727.889)" fill="#E0BEA2"/><ellipse cx="114.37" cy="743.662" rx="8.05" ry="6.156" transform="rotate(27.058 114.37 743.662)" fill="#E0BEA2"/><path d="M233.951 909.903c-.453-.56 52.529-132.354 52.529-132.354l19.881 175.664-62.454 8.324-9.956-51.634z" fill="#83A096"/><path d="M165.577 893.147l-35.982-94.433s25.312 32.183 25.485 28.411c.174-3.772-10.28-33.492-10.28-33.492s45.088 51.722 121.168 99.347c76.079 47.626 5.424 73.386 5.424 73.386l-55.663 22.705L53.375 870.076l90.074.103 22.128 22.968z" fill="#83A096"/><path d="M231.047 886.787l57.247 71.496-18.275 28.453-46.053-66.141 7.081-33.808z" fill="#83A096"/><path d="M264.823 951.178l-90.142-171.759s39.315 187.642 68.673 202.974c29.359 15.332 30.855-2.658 30.855-2.658l-9.386-28.557z" fill="#B7C2B4"/><path d="M241.227 906.187l-38.439-43.11 50.689 66.642-40.751-40.711 47.634 53.816-32.777-19.925 37.24 28.279s-2.331-14.188-2.544-16.244c-.155-1.953-21.052-28.747-21.052-28.747zm-124.283 40.781l69.805 59.342 28.864-17.445-64.603-48.008-34.066 6.111z" fill="#83A096"/><path d="M142.429 930.756L34.464 819.436s169.748 88.139 195.464 140.228c25.716 52.086-14.944 37.449-14.944 37.449l-72.555-66.357zm137.699-207.837c-7.097 7.151-9.637 25.461-9.159 49.815.094 2.805.187 5.609.236 8.574l.249 4.757c.442 8.457 1.176 17.428 2.143 26.812.526 5.007 1.17 10.221 1.652 15.389a1081.54 1081.54 0 003.381 25.158 640.546 640.546 0 002.183 14.409c2.214 13.982 4.589 28.01 7.099 41.553.013.264.027.528.202.837 6.675 36.488 14.022 69.602 18.797 90.027 2.88 12.51 4.924 20.2 5.171 20.88l-1.534-1.99c-63.67-68.675-85.538-126.21-87.384-171.693.003-.954-.097-1.85-.035-2.701a133.063 133.063 0 01.403-15.602c.15-1.174.14-2.392.29-3.566 1.276-13.104 4.309-25.026 8.203-35.668.089-.323.281-.704.473-1.085 1.762-4.808 3.802-9.366 5.959-13.717a56.342 56.342 0 011.876-3.648c1.728-3.429 3.734-6.606 5.534-9.667 1.417-2.3 2.891-4.496 4.321-6.531.693-.937 1.327-1.977 2.02-2.914l1.636-2.151c13.517-18.137 26.284-27.278 26.284-27.278z" fill="#B7C2B4"/><path d="M207.615 966.597l-50.424-31.148 20.637 7.623-58.336-43.669 22.173 13.691-75.682-70.435 65.658 52.988-18.11-22.116 45.511 43.591.771-11.593 18.775 29.766s4.132-7.104.612-16.673c-3.52-9.569 15.778 26.158 15.778 26.158l2.745-9.311 24.287 26.778-14.395 4.35zm48.856-113.403l27.678 102.813c-4.031 34.392-6.57 65.903-7.94 85.313l-33.183-66.224 12.332-19.506c.71-1.626-8.863-44.907-14.199-68.956l.668-2.42 10.836 33.994-5.961-48.185c.37-1.026.843-2.11 1.316-3.195l13.584 55.156s12.739 71.417 15.878 89.906c-3.718-25.507-20.678-156.434-21.009-158.696zm-11.029-46.809l38.464 66.905c1.164 12.129 2.65 24.347 4.108 36.037l-43-102.018c.147-.22.236-.543.428-.924zm7.77-15.559l27.887 48.002c.431 7.238 1.023 14.521 1.674 21.907l-31.406-66.687c.635-1.04 1.211-2.182 1.845-3.222zm9.558-14.805l17.143 25.928c-.039 7.369.053 15.208.481 23.401l-21.709-43.341c1.269-2.079 2.699-4.114 4.085-5.988zm3.464-4.684l13.923 19.046c-.14 2.393-.163 4.991-.245 7.486l-15.269-24.542a14.088 14.088 0 001.591-1.99z" fill="#83A096"/><path d="M319.563 950.356s.131.47.275 1.205c.014.264.189.573.261.94.014.265.131.47.086.632.433 2.203 1.141 5.611 1.993 9.754.433 2.204 1.041 4.716 1.502 7.448l.217 1.102c.621 2.776 1.199 5.714 1.893 8.858.072.367.086.632.158.999.622 2.777 1.199 5.715 1.835 8.756.014.264.072.367.086.631.911 4.246 1.777 8.653 2.701 13.159.203.84.347 1.58.55 2.41.375 2.1.91 4.25 1.285 6.35.131.47.217 1.1.347 1.57.622 2.78 1.141 5.61 1.763 8.39.086.63.275 1.2.361 1.84.478 2.04.852 4.14 1.271 6.08.145.73.289 1.47.433 2.2.434 2.2.866 4.41 1.402 6.55.203.84.406 1.68.506 2.57.433 2.21.866 4.41 1.343 6.45.217 1.1.375 2.1.694 3.15.289 1.47.578 2.93.911 4.24.203.84.302 1.74.505 2.57.347 1.58.636 3.04.866 4.41.086.63.217 1.1.347 1.57.217 1.1.478 2.04.578 2.94.288 1.47.505 2.57.649 3.31.145.73.275 1.2.275 1.2-.854.89-1.914 1.9-3.135 2.87-20.012 16.51-75.421 37.98-75.421 37.98s-1.462-1.62-3.889-4.46c-.336-.36-.731-.81-1.067-1.17-.512-.66-1.184-1.37-1.915-2.18-.512-.66-1.068-1.16-1.579-1.82-.848-1.02-1.916-2.18-2.925-3.24-.511-.66-1.067-1.17-1.579-1.83-1.184-1.37-2.588-2.88-3.83-4.36-.79-.91-1.579-1.82-2.427-2.84-1.126-1.27-2.31-2.64-3.494-4.01-.789-.91-1.579-1.82-2.427-2.84-1.009-1.06-1.915-2.18-2.924-3.24-.848-1.01-1.637-1.93-2.588-2.88-.789-.92-1.637-1.93-2.485-2.95-1.184-1.37-2.427-2.84-3.611-4.21-1.009-1.06-1.974-2.28-2.983-3.34-.906-1.12-1.857-2.08-2.763-3.2-1.242-1.47-2.426-2.84-3.772-4.26-1.915-2.18-3.83-4.36-5.687-6.43-.731-.81-1.521-1.73-2.252-2.54-1.301-1.57-2.646-2.99-3.889-4.46-1.126-1.27-2.251-2.53-3.377-3.8-1.462-1.62-2.763-3.19-4.006-4.67-1.067-1.16-2.032-2.38-3.041-3.44-1.243-1.48-2.368-2.74-3.275-3.86a135.14 135.14 0 01-3.494-4.01c-.847-1.01-1.359-1.68-1.417-1.78l57.111-52.775 73.048-21.539z" fill="#E0BEA2"/><path d="M180.267 982.641L11.422 887.46s186.355 44.986 200.785 74.765c14.431 29.779-3.637 30.768-3.637 30.768l-28.303-10.352z" fill="#B7C2B4"/><path d="M317.898 916.471c.175.309.306.779.481 1.088l1.442 3.264c.773 1.603 1.384 3.161 2.156 4.764l1.618 3.573 1.442 3.264c.364.882.786 1.867 1.253 2.691.539 1.191 1.02 2.279 1.559 3.47.175.309.305.779.48 1.088.117.206.234.412.189.573.306.78.406 1.675.506 2.571-.02 1.644-.408 3.36-1.395 4.736a7.177 7.177 0 01-3.503 2.938c-1.396.655-2.792 1.31-4.291 2.024-5.071 2.329-10.083 4.762-15.095 7.195-39.524 19.272-77.677 41.44-114.108 66.17-.765.57-1.485.98-2.25 1.55-3.736 2.52-8.869 1.62-11.498-2.06-4.923-7-9.684-13.96-14.607-20.97-2.629-3.68-1.526-8.93 2.416-11.572 40.505-27.855 83.246-52.488 127.648-73.708 4.703-2.258 9.406-4.515 14.168-6.67 1.396-.655 2.865-.943 4.2-.748 1.599.183 3.108.687 4.426 1.573 1.421.827 2.269 1.843 2.763 3.196z" fill="#E0BEA2"/><path d="M194.897 1029.51l-.253.19c4.501 6.75 8.019 10.29 12.666 17 2.501 3.61 4.322 6.22 7.5 10.5 3.194 4.31 5.769 7.22 9 11.5 3.4 4.5 5.719 6.91 9 11.5 3.084 4.32 4.813 6.76 8 11 5.599 7.45 7.5 11 14.454 19.05 2.611 3.03 5.566 5.67 8.409 5.82 1.499.09 2.785.3 4.528 0 1.575-.26 3.881-1.29 3.881-1.29s5.964-2.15 9.703-3.74c5.479-2.32 8.406-3.94 13.727-6.61 13.142-6.58 22.622-10.93 32.989-18.11 6.028-4.17 11.094-6.11 11.809-13.62 1-10.5-2.498-22.92-5.5-34.5-.961-3.7-1.53-10.3-2.5-14-.89-3.39-1.565-9.51-2-13-.5-4-3-10.5-4-13.498-2.068-6.203-2.734-7.079-5-13.213-.9-2.437-1.73-3.345-2.62-5.787-.732-2.009-1.266-4.236-1.88-7-1-4.5-1.5-7-2.17-11.589-.181-1.236-.826-3.199-1.33-2.911-1.338.765-4.456 2.184-7.305 3.596-4.796 2.378-7.373 3.945-12.254 6.145-2.378 1.073-3.79 1.5-6.145 2.623-2.85 1.36-4.373 2.277-7.115 3.845-6.254 3.578-9.19 6.527-15.488 10.026-4.822 2.68-7.909 3.457-12.685 6.217-5.565 3.216-8.148 5.859-13.548 9.343-2.627 1.693-4.173 2.533-6.792 4.243-3.866 2.52-5.859 4.19-9.702 6.75-5.331 3.55-8.434 5.38-13.573 9.2-5.28 3.93-9.863 7.37-13.806 10.32z" stroke="#B29172" stroke-width="5" stroke-linecap="round" stroke-linejoin="round"/><path d="M222.675 1023.58s16.595 27.6 12.929 44.64l52.452-19.25s-10.85-47.46-17.526-52.517l-47.855 27.127z" fill="#EFEDEA"/><path d="M246.366 1030.83c-1.338.76-.171 2.82 1.167 2.06 1.338-.76.171-2.82-1.167-2.06zm10.261-5.41c-1.338.76-.171 2.82 1.167 2.06 1.338-.76.171-2.82-1.167-2.06zm7.254 2.96c-.439-.29-1.438-.13-1.674.41-2.736 6.45-9.834 9.52-16.474 7.16-1.51-.51-2.134 1.75-.624 2.26 7.505 2.68 16.057-.94 19.119-8.25.339-.6.253-1.24-.347-1.58z" fill="#45846C"/><path d="M167.848 986.696c-3.48-6.444-8.563-9.512-14.42-15.244-3.154-3.087-4.831-4.932-8.24-7.736-4.236-3.485-7.001-4.927-11.536-8.011-3.522-2.396-5.549-3.661-9.064-6.066-4.046-2.768-6.041-4.741-10.277-7.21-2.935-1.711-5.319-2.368-7.759-3.937-2.743-1.763-4.97-3.109-8.194-5.035-6.553-3.914-10.268-6.05-17.03-9.591-6.343-3.32-10.075-4.832-16.48-8.034-4.286-2.143-6.725-3.28-10.94-5.561-3.574-1.934-5.553-3.067-9.041-5.15-3.01-1.798-4.695-2.81-7.622-4.738-3.274-2.157-5.202-3.263-8.217-5.768-2.762-2.295-6.02-1.769-7.718-4.913-.486-.9-1-2.5-.911-2.458.088.043 1.123.948 1.911 1.458 1.93 1.249 3.362 1.262 5.459 2.205 4.005 1.8 5.878 3.565 9.888 5.356 3.633 1.622 5.796 2.234 9.567 3.502 4.074 1.369 6.387 2.058 10.53 3.204 8.383 2.32 13.258 2.914 21.743 4.83 7.926 1.789 12.376 2.765 20.28 4.646 6.07 1.445 9.509 2.121 15.518 3.799 3.65 1.02 5.619 1.866 9.293 2.793 3.189.804 4.998 1.186 8.24 1.739" stroke="#45846C" stroke-width="5" stroke-linecap="round" stroke-linejoin="round"/><path d="M117.31 916.702c-8.551-.969-64.94-44.855-69.353-49.073 12.831-1.099 20.023-.838 32.853 1.573m-42.327-49.629c5.159 7.094 8.769 13.609 15.427 21.521 3.918 4.657 6.298 7.117 10.567 11.454 4.402 4.472 7.01 6.842 11.647 11.069 4.6 4.192 7.238 6.478 11.995 10.49 4.148 3.5 6.686 5.209 10.76 8.794 4.647 4.088 6.994 6.662 11.455 10.953 4.214 4.054 6.972 5.958 10.76 10.413 3.138 3.691 4.166 6.33 7.25 10.066 3.67 4.444 5.432 7.459 10.259 10.606 4.692 3.059 8.198 3.033 13.422 5.052 5.29 2.046 8.256 3.196 13.498 5.361 10.146 4.191 15.883 6.478 25.686 11.416 4.525 2.28 6.814 4.06 11.455 6.094 3.574 1.567 5.639 2.331 9.372 3.471" stroke="#45846C" stroke-width="5" stroke-linecap="round" stroke-linejoin="round"/><path d="M36.4 818.185c5.105.957 8.22 3.57 12.496 5.708 5.067 2.533 10.097 4.742 14.887 7.79 6.76 4.303 12.826 7.348 21.058 12.033 7.509 4.274 13.247 6.762 19.245 10.915 4.051 2.804 8.48 5.648 12.843 7.829 3.558 1.779 7.703 4.913 11.454 5.747 1.766.392 2.655 1.349 4.513 1.349 2.257 0 4.533-.083 6.787 0 3.487.13 9.564 2.303 12.265 4.513 5.358 4.384 9.638 10.198 13.036 16.314 1.906 3.432 6.149 5.635 9.217 8.022 4.037 3.139 8.461 5.646 12.149 9.333 3.201 3.201 8.298 4.21 11.416 7.328 2.976 2.976 5.743 5.831 8.716 8.639 3.356 3.17 7.111 5.302 9.372 9.372 1.712 3.082 4.111 6.085 5.206 9.372" stroke="#45846C" stroke-width="5" stroke-linecap="round" stroke-linejoin="round"/><path d="M161.093 885.147c-2.945-8.663-9.294-14.939-13.007-23.191-2.442-5.427-6.197-9.925-8.205-15.631-2.564-7.288-5.722-14.753-7.115-22.413-1.196-6.578-1.69-12.922-1.69-19.589 0-.668-.161-5.128.979-4.803.19.055.626 1.161.822 1.401.842 1.029 1.392 1.879 2.402 2.802 2.041 1.863 3.592 4.034 5.803 5.692 2.296 1.722 4.285 3.573 6.315 5.603 1.667 1.668 2.937 3.675 4.58 5.381.934.969 2.312 3.504 1.601 1.112-2.213-7.445-3.415-15.327-5.292-22.835-.485-1.942-1.194-4.018-1.801-5.959-.418-1.338-.277-2.871-.578-4.225-.103-.463.767 2.19 1.579 3.002 2.202 2.202 4.938 4.254 7.515 6.003 1.54 1.045 2.977 2.303 4.314 3.602 1.561 1.517 3.695 2.732 4.98 4.492 1.265 1.73 3.073 3.046 4.425 4.736 1.795 2.243 3.748 4.548 5.781 6.581 2.79 2.79 4.697 6.519 7.204 9.583 2.525 3.086 3.979 6.784 5.892 10.228.553.995 1.266 1.896 2.001 2.713.696.773.925 2.009 1.512 2.89" stroke="#45846C" stroke-width="5" stroke-linecap="round" stroke-linejoin="round"/><path d="M175.31 775.202c-2.578 6.217-3.001 12.669-1.421 20.56 1.028 5.137 2.747 7.71 4.85 12.508 2.51 5.725 4.445 8.685 7.172 14.309 4.79 9.878 7.616 15.371 11.676 25.57 2.16 5.425 3.343 8.484 5.163 14.032 1.618 4.931 2.34 7.754 3.742 12.75 2.649 9.441 3.675 14.857 6.236 24.323 1.126 4.16 1.877 6.461 2.945 10.636 1.055 4.121 1.569 6.451 2.495 10.602.837 3.753 1.381 5.845 2.044 9.632.597 3.406.945 5.321 1.247 8.766.271 3.089.27 4.834.312 7.934.023 1.651 0 4.227 0 4.227m-46.15-175.869c5.639 7.87 8.438 12.608 12.612 21.343 4.293 8.985 4.511 14.953 8.87 23.906 2.369 4.869 4.008 7.441 6.721 12.127 2.421 4.181 3.642 6.618 6.375 10.602 2.392 3.486 4.058 5.203 6.583 8.592 2.733 3.668 4.215 6.848 6.86 9.494m59.442-136.454c-2.382 1.395-4.771 2.611-7.226 3.774-2.526 1.197-4.485 2.309-7.226 4.014-4.331 2.695-6.684 4.382-10.518 7.748-8.919 7.833-13.134 13.561-18.386 24.207-2.511 5.092-3.409 8.188-5.219 13.569-2.47 7.347-3.532 11.584-5.218 19.149-2.924 13.116-3.958 20.667-4.737 34.083-.55 9.453-.819 14.81-.041 24.247.993 12.027 3.201 18.569 5.821 30.349 1.323 5.947 2.029 9.293 3.613 15.175 1.649 6.12 2.473 9.601 4.697 15.536 1.617 4.314 2.441 6.787 4.166 11.059 1.189 2.946 2 5 3.422 7.367" stroke="#45846C" stroke-width="5" stroke-linecap="round" stroke-linejoin="round"/><path d="M282.81 724.702c-2.166 5.551-5.132 10.627-7.514 15.987-1.397 3.144-2.85 6.903-3.773 11.562-1.84 9.282-2.706 15.536 1.084 24.207 1.597 3.655 2.515 5.941 5.459 8.631.783.715 2.128 1.686 2.128 1.686s.506-1.238.883-2.007c1.32-2.694 2.091-4.352 4.336-6.343.993-.88 2.77-1.967 2.77-1.967s1.098 4.087 1.627 6.744c.886 4.442.841 7.02 1.5 11.5 1.544 10.493 3.234 16.236 4.978 26.697 1.962 11.765 3.376 18.342 4.376 30.228 1.011 12.017 1.485 18.836.723 30.871-.341 5.379-.626 8.397-1.405 13.73-.685 4.685-1.17 7.303-2.208 11.923" stroke="#45846C" stroke-width="5" stroke-linecap="round" stroke-linejoin="round"/><path d="M169.31 1002.2c-3.073-3.392-3.5-4.498-6.5-7.998 4-3 5.611-5.22 10.12-8.479 9.015-6.515 14.389-9.558 23.88-15.521 12.544-7.881 19.584-11.889 32.5-20 5.28-3.315 15-9 15-9s9.283-5.427 14-8l38.5-20c3.991-1.552 7.635-4.444 12-4 4.743.483 6.221 3.354 8.5 7 2.5 4 4.7 7.899 6 10.5l5 10c1.5 3 1.42 6.04-.5 7-6 3-13.273 5.553-21 9.5-12.459 6.364-19.808 9.453-31.9 16.488-12.864 7.486-20.366 11.177-33.222 18.677-10.328 6.026-16.267 9.181-26.247 15.773-8.458 5.58-13.734 10.62-21.131 15.06-.536.32-7 5-7 5s-2.871-3.83-4-5c-3.976-4.11-5.921-7.03-9.5-11.5-1.657-2.07-2.722-3.53-4.5-5.5z" stroke="#B29172" stroke-width="5" stroke-linecap="round" stroke-linejoin="round"/><path d="M875.711 994.448H549.636c-23.417 0-41.385-20.63-38.439-43.766l19.588-150.897c2.503-19.304 18.999-33.745 38.439-33.745h279.682c18.852 0 34.905 13.409 38.145 31.977l26.805 150.897c4.271 23.725-13.991 45.534-38.145 45.534z" fill="#4A5759"/><path d="M875.722 996.965l.14-.017c12.401-.036 24.586-4.531 32.191-13.403 7.829-9.134 10.532-22.472 8.263-35.074-1.096-6.092-3.288-15.589-5.192-23.512a1277.069 1277.069 0 00-3.26-13.252l-.084-.332a98.148 98.148 0 00-.128-.507l-.036-.142-.013-.107-.094-.755-.35-2.806-1.186-9.515-3.039-24.387c-.631-5.067-1.081-9.417-1.509-13.559-.798-7.729-1.521-14.728-3.211-24.291-1.256-7.111-2.563-11.858-3.91-16.754l-.263-.955c-1.43-5.21-2.926-10.835-4.527-20.01-3.45-19.772-20.549-34.047-40.608-34.047-3.727 0-8.776.473-14.675 1.027-2.057.193-4.217.395-6.461.591-8.784.766-19.103 1.456-30.267 1.177-9.309-.232-19.227-1.244-29.448-2.286-1.197-.123-2.398-.245-3.603-.367-11.437-1.156-23.173-2.237-34.519-2.142-13.512-.024-24.326.545-34.836 1.098l-3.039.159c-11.487.597-22.914 1.106-37.555.743-6.534-.161-14.903-.411-21.641-.621-3.369-.104-6.328-.199-8.446-.267l-2.49-.081-.67-.022-.174-.006-.044-.002h-.014l-.083 2.499.083-2.499-.066-.002-.065.001-51.693 1c-8.665 0-17.043.113-25.702 6.233-10.885 7.694-13.783 18.821-15.193 29.691-.613 4.727-.899 8.984-1.182 13.196l-.128 1.899c-.334 4.856-.732 9.8-1.68 15.656-1.117 6.894-2.667 12.149-4.252 17.522l-.049.165c-1.603 5.436-3.236 11.006-4.375 18.328-1.103 7.093-1.464 12.684-1.707 18.233-.051 1.159-.096 2.312-.142 3.475-.174 4.411-.354 8.957-.844 14.455-1.672 18.767-3.717 36.098-5.229 47.973-1.543 12.118-1.038 25.792 9.666 36.333 7.826 7.707 15.85 8.914 25.246 10.327 1.806.271 3.662.551 5.577.885 8.296 1.448 14.794.75 21.137-.319 1.281-.215 2.546-.444 3.813-.673 5.025-.908 10.085-1.822 16.3-1.971 7.825-.189 13.923.308 20.074.979 1.412.154 2.833.318 4.282.485 4.851.56 10.013 1.156 16.191 1.532 2.26.137 4.375.268 6.387.393 12.229.757 20.649 1.278 34.464 1.611 8.095.192 14.389-.165 20.633-.644 1.341-.102 2.676-.21 4.025-.319 4.933-.398 10.041-.81 16.253-1.038 7.808-.287 13.902.107 20.069.627 1.027.087 2.058.177 3.101.269 5.216.457 10.719.94 17.437 1.104 7.53.183 13.516.063 19.355-.049l1.137-.023c6.202-.121 12.356-.218 20.236.072 10.399.383 17.86.263 26.149.143 4.465-.07 9.169-.142 14.703-.142 8.1 0 18.383-.759 26.592-1.51a595.755 595.755 0 0013.357-1.377l.821-.096z" stroke="#83A096" stroke-width="5"/><path d="M845.814 922.242H581.301c-8.984 0-16.2-7.221-16.2-16.21v-91.363c0-8.989 7.216-16.21 16.2-16.21h264.513c8.984 0 16.2 7.221 16.2 16.21v91.363c-.147 8.989-7.364 16.21-16.2 16.21z" fill="#B7C2B4"/><path d="M672.761 936.094h87.778c2.798 0 2.798-4.421 0-4.421h-87.778c-2.946 0-2.946 4.421 0 4.421zm-1.472 11.199c2.798 0 2.798-4.421 0-4.421-2.946 0-2.946 4.421 0 4.421zm11.782 0h81.887c2.798 0 2.798-4.421 0-4.421h-81.887c-2.798 0-2.798 4.421 0 4.421z" fill="#F9F6EF"/><path d="M796.525 918.815s32.303 49.102 29.445 78.937l82.87-32.445s-26.464-83.785-38.391-92.984l-73.924 46.492z" fill="#EFEDEA"/><path d="M830.816 904.146c5.094 4.848 8.945 10.815 11.057 17.528.746 2.238 4.349 1.243 3.603-.995-2.36-7.334-6.46-13.922-12.051-19.143-1.739-1.741-4.349.87-2.609 2.61z" fill="#83A096"/><path d="M832.68 906.011c.372-.746.372-1.368.248-2.113 0-.373-.124-.622-.248-.995 0 .124 0 .373.124.497v-.373c0 .125 0 .373-.124.498 0-.125 0-.249.124-.373-.124.124-.124.248-.249.497 0-.124.125-.249.249-.373-.124.124-.249.249-.249.373l.249-.249c-.124.125-.249.249-.373.249.124-.124.249-.249.497-.249-.124.125-.248.125-.497.249.249-.124.373-.124.621-.124-.124 0-.372 0-.497.124h.622c-.125 0-.373 0-.497-.124.372 0 .621.124.869.248-.124-.124-.248-.124-.497-.248.497.248.994.497 1.367.745.87.498 2.112.249 2.609-.621.497-.87.248-1.989-.621-2.611-.746-.497-1.491-.994-2.361-1.118-.497-.125-.869-.249-1.366-.125-.622 0-1.119.125-1.616.373-.869.373-1.49 1.243-1.863 2.113-.249.622-.124 1.119 0 1.741 0 .373.124.621.248.994 0-.124 0-.373-.124-.497v.373c0-.124 0-.373.124-.497v.248c.125-.124.125-.248.249-.497 0 0 0 .124-.124.124-.249.373-.373.995-.249 1.492.124.373.497.87.87 1.119.869.249 1.988.124 2.485-.87zm4.596 34.558c1.616 2.238 3.355 4.351 4.97 6.589.621.746 1.615 1.243 2.609.621.994-.497 1.118-1.616.621-2.61.125.248 0-.125-.124-.249 0-.124-.124-.373-.124-.497-.124-.249-.124-.622-.249-.87 0 0-.124-.498 0-.249v-1.243c0-.995.373-2.238.746-3.108.124-.248.248-.497.497-.746.124-.248.124 0 0 0-.497.373-.994.373-1.367.125l.124.124c.497.622 1.243 1.119 1.74 1.616 1.118.994 2.36 2.113 3.479 3.108.745.621 1.863.746 2.609 0 .745-.746.745-1.989 0-2.611-1.491-1.367-2.982-2.61-4.473-3.978-.87-.746-1.739-1.74-2.982-1.74-1.242 0-2.112.87-2.609 1.865-1.988 3.107-1.988 7.085-.621 10.317 1.118-.621 2.112-1.243 3.23-1.864-1.615-2.238-3.354-4.351-4.97-6.589-.621-.746-1.615-1.243-2.609-.621-.621.497-1.118 1.864-.497 2.61zm15.282-4.972l3.727-4.102c.373-.373.497-.871.497-1.368 0-.497-.248-.994-.497-1.367-.372-.373-.869-.622-1.366-.498-.497 0-.994.125-1.367.498l-3.727 4.102c-.373.373-.497.87-.497 1.367 0 .498.248.995.497 1.368.373.373.87.621 1.366.497.622.124 1.119-.124 1.367-.497z" fill="#83A096"/><path d="M848.831 927.765c2.112 3.605 4.348 7.21 6.833 10.691.497.746 1.615 1.243 2.609.621.746-.497 1.243-1.74.622-2.61-2.361-3.481-4.597-7.086-6.834-10.691-.497-.87-1.739-1.243-2.609-.622-.87.622-1.118 1.741-.621 2.611zm9.069 2.611c.87 1.243 1.864 2.486 2.734 3.853.248.373.621.746 1.118.87.497.125.994.125 1.491-.248.372-.249.745-.622.869-1.119.125-.497.125-.994-.248-1.492-.87-1.243-1.864-2.486-2.733-3.853-.249-.373-.622-.746-1.119-.871-.497-.124-.994-.124-1.491.249-.372.249-.745.622-.869 1.119 0 .497 0 1.119.248 1.492zm-1.118-4.6c2.361 0 2.361-3.729 0-3.729-2.36 0-2.36 3.729 0 3.729zm4.225-7.21c2.982 3.854 5.963 7.583 8.821 11.561.621.87 1.615 1.243 2.609.622.745-.498 1.242-1.741.621-2.611-3.106-4.102-6.212-8.329-9.442-12.307-.621-.746-1.988-.621-2.609 0-.746.871-.621 1.989 0 2.735zm-37.646 26.354a94.421 94.421 0 004.597 5.345c.746.871 1.615 1.617 2.361 2.487.745.746 1.615 1.616 2.485 2.237 1.988 1.368 4.721.622 5.839-1.491 1.118-2.238.249-4.6-.745-6.713-1.243-2.486-2.361-4.973-3.603-7.335-.497-.87-1.74-1.118-2.609-.621-.87.497-1.119 1.616-.622 2.61 1.119 2.362 2.361 4.724 3.479 7.086.373.87.87 1.74.87 2.611 0 .248 0 .497-.249.87.125-.249-.124.124-.124.124.124-.124.124-.124 0 0 .124-.124.124-.124 0 0h.249c-.249-.124-.249-.124-.125 0-.124-.124-.372-.248-.497-.373.125 0-.372-.373-.372-.373-.249-.248-.497-.497-.746-.621-.869-.87-1.615-1.741-2.485-2.611-1.739-1.864-3.354-3.853-4.969-5.718-.622-.746-1.988-.622-2.609 0-.994.621-.746 1.74-.125 2.486zm21.121 17.279c-1.739-.373-3.603.249-4.721 1.616-1.118 1.492-1.491 3.108-1.242 4.973a6.609 6.609 0 002.112 3.853c.87.622 1.739 1.119 2.858 1.119.745 0 1.615-.124 2.36-.373.994-.373 1.864-.746 2.609-1.491.87-.746 1.243-1.865 1.367-2.984 0-.994-.87-1.865-1.864-1.865-.994 0-1.863.871-1.863 1.865v-.124.248c.124-.248.124-.248 0-.124 0 .124-.125.124-.125.249.125-.249.249-.249.125-.125l-.125.125c-.124.124-.124.124.125 0-.125 0-.125.124-.249.124-.124.124-.248.124-.497.249h-.124c-.249.124-.124.124.124 0-.248.248-.745.248-.994.373h-.621.124-.248c-.249-.125-.124 0 .124 0-.124 0-.124-.125-.248-.125-.125 0-.125-.124-.249-.124l.124.124s-.372-.248-.372-.373l-.125-.124c.125.249.249.249.125.124-.125-.124-.125-.248-.249-.373l-.248-.372c.124.248.124.248 0 .124 0-.124 0-.124-.125-.249 0-.124-.124-.373-.124-.497v-1.119l.124-.497c-.124.249-.124.249 0 .124 0-.124.125-.124.125-.248 0-.125.124-.125.124-.249l-.124.124.248-.248.124-.125c-.248.125-.248.249-.124.125l.373-.249c-.249.124-.249.124-.124 0 .124 0 .124 0 .248-.124h-.124.497-.124c.993.248 2.112-.249 2.236-1.243.248-.746-.249-1.989-1.243-2.114zm2.237-.994c1.491 2.237 2.857 4.599 4.348 6.837 1.243 1.989 4.473.124 3.231-1.865-.87-1.367-1.491-2.859-1.864-4.599-.249-1.119-.621-3.108.621-3.854.994-.746 1.988.746 2.609 1.367 1.118 1.244 1.988 2.487 2.858 3.978 1.242 2.114 4.348.249 3.23-1.864-.745-1.368-1.242-2.984-1.491-4.6-.124-.87-.373-1.616-.497-2.486 0-.373-.248-.746 0-.995.746-.621 2.112.746 2.609 1.244 1.118 1.118 1.988 2.486 2.734 3.978.497.87 1.739 1.118 2.609.621.869-.497 1.118-1.616.621-2.61-1.615-3.357-6.088-9.199-10.436-6.465-2.485 1.492-1.988 3.978-1.491 6.34.372 2.362.994 4.6 2.112 6.713 1.118-.622 2.112-1.243 3.23-1.865-1.988-3.356-6.212-9.82-10.685-6.588-4.348 3.108-2.112 9.696.125 13.425 1.118-.621 2.112-1.243 3.23-1.864-1.491-2.238-2.858-4.6-4.349-6.837-1.491-1.865-4.721 0-3.354 1.989zm20.499-24.241c2.858 4.227 7.082 7.832 8.946 12.804l3.354-1.492c-1.491-1.989-2.981-3.978-4.969-5.345-2.112-1.367-5.094-2.113-7.082-.249-2.112 1.865-1.491 4.973-.373 7.21 1.118 2.238 2.858 4.849 5.715 4.849 3.355-.125 4.721-3.481 5.094-6.34.124-.995-.248-1.989-1.242-2.238-.87-.249-2.112.249-2.237 1.243-.124.87-.372 3.978-1.863 3.605-.87-.248-1.367-1.492-1.74-2.113-.497-.746-.994-1.616-.994-2.611 0-.373.125-.87.497-.994.746-.249 1.74.373 2.237.746 1.615.994 2.857 2.61 3.851 4.226.497.746 1.367 1.119 2.361.746.745-.373 1.367-1.367 1.118-2.237-2.112-5.221-6.212-9.075-9.318-13.675-.621-.87-1.615-1.243-2.609-.621-.994.373-1.367 1.616-.746 2.486zm12.301 6.216c.745-.498 1.242-.995 1.863-1.741.373-.497.87-1.119 1.367-1.492-.124.125-.249.249-.373.249l.746-.373c.372-.124.745-.746.869-1.119.125-.497.125-.994-.248-1.491-.249-.373-.621-.746-1.118-.871-.125 0-.373 0-.497-.124-.373 0-.621.124-.994.249-.87.373-1.491.994-2.112 1.74-.497.622-.994 1.243-1.615 1.74.124-.124.248-.248.372-.248l-.248.248c-.373.249-.746.622-.87 1.119-.124.498-.124.995.249 1.492.248.373.621.746 1.118.87.621.124 1.118.124 1.491-.248zm6.46-21.755c-2.112.746-3.852 2.486-4.349 4.724-.497 2.486.497 4.724 2.237 6.464.994.995 8.572 7.707 6.212 9.199-1.988 1.243-.124 4.475 1.863 3.232 1.864-1.119 2.61-3.356 1.988-5.47-.621-2.237-2.36-4.102-3.851-5.842-.746-.87-1.491-1.616-2.361-2.486-.745-.746-1.491-1.368-2.112-2.114-.994-1.491-.497-3.48 1.243-3.978 2.36-.994 1.366-4.599-.87-3.729z" fill="#83A096"/><path d="M887.346 935.721c.994-.87 2.112-1.74 3.106-2.735.372-.248.497-.87.497-1.367s-.249-.995-.497-1.368c-.373-.372-.87-.621-1.367-.497-.124 0-.373 0-.497.125-.373.124-.621.248-.87.497-.994.87-2.112 1.74-3.106 2.735-.372.248-.497.87-.497 1.367s.249.995.497 1.367c.373.373.87.622 1.367.498.124 0 .373 0 .497-.125.373-.124.621-.248.87-.497z" fill="#83A096"/><path d="M780.571 750.464c-1.005 4.857-3.131 8.384-3.597 12.601 1.209 2.419 6.718.889 11.047 1.181 9.233.622 14.449.027 23.693-.394 8.523-.388 14.488-1.575 21.789-1.575 2.005 0 12.839-.056 12.798-.241-.442-1.988-.093-3.763-.416-6.147-.439-3.249-.826-5.675-1.881-8.182-.808-1.92-3.653-1.575-3.653-1.575H784.53c-1.325 0-3.194-.663-3.194.984 0 1.261-.494 2.034-.765 3.348z" stroke="#83A096" stroke-width="5" stroke-linecap="round" stroke-linejoin="round"/><path d="M175.417 452.698l-190.98-127.224-22.783 34.201 190.98 127.223 22.783-34.2z" fill="#C9A78A"/><path d="M-13.674 326.217l184.452 122.874a6.5 6.5 0 011.806 9.013l-18.069 27.124c-2.005 3.01-6.073 3.801-9.049 1.764a2129.187 2129.187 0 01-15.839-10.927c-3.782-2.645-6.924-4.985-9.956-7.244-4.751-3.539-9.234-6.879-15.494-10.877-5.088-3.249-9.253-5.467-13.347-7.642l-.092-.05c-4.058-2.156-8.05-4.278-12.93-7.374-4.837-3.07-8.474-5.671-12.119-8.331a830.86 830.86 0 01-1.639-1.199c-3.132-2.292-6.413-4.694-10.541-7.492-9.759-6.613-17.606-11.419-25.427-16.184l-1.008-.614c-7.485-4.559-15.017-9.146-24.307-15.338-13.306-8.868-31.415-21.722-41.371-28.845-2.895-2.071-3.58-6.127-1.514-9.116a242.646 242.646 0 002.884-4.252c1.968-2.987 3.194-4.969 4.8-7.565.391-.634.806-1.306 1.26-2.037 1.197-1.927 2.085-3.459 2.916-4.892 1.214-2.093 2.305-3.975 4.057-6.573a107.41 107.41 0 011.957-2.786c1.942-2.687 5.716-3.339 8.57-1.437z" stroke="#E0BEA2" stroke-width="5"/><path d="M3.783 261.485l14.856 10.42-5.454 7.115-10.03-11.827.628-5.708z" fill="#83A096"/><path d="M145.416 430.143l-148.51-159.33 6.876-9.328 4.484 9.392 127.238 115.241 22.61 42.92-12.698 1.105z" fill="#B7C2B4"/><path d="M158.417 432.735L10.888 272.999l37.403-20.678s133.415 134.271 138.951 154.478c5.536 20.207-28.825 25.936-28.825 25.936z" fill="#F9F6EF"/><path d="M45.53 250.198l-13.945-16.543s10.405 9.671 13.876 10.827c3.47 1.156 67.794 61.98 68.193 63.518.4 1.538 89.169 101.352 89.169 101.352s21.305 24.365-25.522 34.966l-31.885-14.175s42.142-9.331 37.489-22.001C178.321 395.543 45.53 250.198 45.53 250.198z" fill="#83A096"/><path d="M39.352 253.75l136.054 152.074M34.29 251.669l130.076 145.103M23.356 256.697l53.326 61.542m18.109 29.137l53.961 60.921" stroke="#83A096" stroke-width=".834" stroke-miterlimit="10"/><path d="M206.077 355.539c-3.28 1.369-7.079 1.562-10.632.143-1.476-.628-2.843-1.42-3.963-2.403-4.374-3.743-6.069-10.084-3.801-15.799 2.104-5.114 6.723-8.315 11.889-8.783-3.335 1.451-6.15 4.077-7.571 7.632-2.432 5.961-.381 12.658 4.621 16.345l1.394.929a7.54 7.54 0 001.886.901c1.886.901 4.072 1.173 6.177 1.035z" fill="#83A096"/><path opacity=".96" d="M213.566 347.852c-1.476 3.637-4.209 6.318-7.57 7.632-2.105.138-4.21-.08-6.314-1.008l-1.886-.901-1.394-.928c-4.866-3.715-6.971-10.33-4.621-16.346 1.476-3.636 4.209-6.317 7.57-7.631 2.105-.138 4.21.079 6.314 1.007 7.325 2.866 10.797 10.983 7.901 18.175z" fill="#BAC3C5"/><path opacity=".82" d="M204.599 333.943s-5.603 2.901-2.431 10.226c3.171 7.324-6.094 12.169-6.559 7.358-.465-4.811 10.687 1.907 11.971-2.687 1.284-4.593-6.396-3.194-5.139-7.214a194.995 194.995 0 002.158-7.683z" fill="#B29172"/><path opacity=".74" d="M205.774 332.356s-6.122 5.636-3.005 13.042c3.116 7.407-11.506 6.787-11.506 6.787s15.634 2.478 16.918-2.115c1.284-4.594-6.396-3.195-5.139-7.214 1.257-4.02 2.732-10.5 2.732-10.5z" fill="#C4631F"/><path d="M212.199 349.548c-3.088 4.458-8.909 6.977-14.321 5.859-5.33-1.063-9.868-5.625-10.797-10.983-1.012-5.412 1.502-11.319 6.093-14.301 5.412-3.503 13.229-1.375 17.657 2.996 4.428 4.371 5.44 11.561 2.243 16.893-.957 1.614 1.503 3.253 2.46 1.639 3.334-5.715 3.114-13.206-.877-18.589-4.209-5.766-13.174-9.369-20.144-6.904-6.505 2.3-10.795 9.274-10.576 16.053.165 6.862 4.648 12.928 10.962 15.358 7.161 2.756 15.524-.201 19.76-6.382 1.121-1.504-1.339-3.143-2.46-1.639z" fill="#45846C"/><path d="M46.299 245.486c-4.867-2.781-10.741-7.471-14.268-11.986.932 1.864 2.847 5.363 5.123 8.5 2.438 3.36 9.841 8.939 7.5 10.5-4.5 3-7.804 5.022-12.623 8.499-2.384 1.72-4.22 3.32-6.377 4.501-3.198 1.752-5.118 3.634-8.5 3-3.563-.668-5.807-4.5-8.585-6.448-1.73-1.214-2.942-2.57-4.415-1.053-4.504 4.639-8.92 9.318-4.5 15.001 4.026 5.175 7.749 8.881 12.5 15l77.5 83.5c4.763 4.997 7.818 7.956 12.5 13.5 3.019 3.574 5.245 5.64 8.5 9 2.82 2.911 3.813 4.119 6.5 7 2.592 2.779 4.652 4.801 7 7.5 3.212 3.69 5.304 5.079 8.5 8.5 3.197 3.421 10.271 9.5 14.5 12 6.499 3.841 10.155 6.359 17.408 8.453 6.652 1.92 9.258 3.659 16.092 2.547 7.331-1.193 12.348-3.825 17.711-8.963 5.307-5.084 12.73-8.819 10.294-15.753-1.505-4.284-6.48-8.454-10.677-13.837-4.862-6.236-7.592-9.73-12.544-15.896-11.961-14.892-18.771-23.169-31.409-37.49l-79.96-82.976s-7.478-7.562-12.736-11.874c-5.576-4.574-9.689-7.67-15.034-10.725z" stroke="#45846C" stroke-width="5" stroke-linecap="round" stroke-linejoin="round"/></svg>