<svg width="375" height="717" fill="none" xmlns="http://www.w3.org/2000/svg"><path d="M147.179 8.873c-20.629 5.314-46.341 22.222-50.364 30.347-1.332 2.689-1.659 3.532 1.548 4.643 3.088 1.07 6.198 1.157 10.295 2.062 3.639.804 5.811.975 9.524 1.292 3.994.34 6.548.71 10.552.513 2.574-.127 6.23-.434 10.553-1.031 4.933-.681 7.897-.702 12.763-1.767 4.488-.982 6.94-1.805 11.405-2.888 4.764-1.155 7.417-1.894 12.229-2.824 2.565-.496 4.014-.711 6.59-1.143 2.448-.41 3.814-.684 6.273-1.015 2.553-.344 3.998-.418 6.559-.699 1.992-.218 3.107-.359 5.101-.57 4.794-.51 7.475-.94 12.292-1.143 4.005-.169 6.257-.067 10.265 0 8.585.142 13.399.442 21.956 1.142 4.572.374 7.166.388 11.691 1.143 2.015.336 3.123.645 5.132 1.015 3.006.554 4.674 1.477 7.724 1.27 2.163-.147 6.182 3.986 3.44.553-1.894-2.37-6.172-5.22-8.776-7.63-2.738-2.537-3.187-1.124-6.118-3.435-1.675-1.32-3.161-2.526-4.277-3.395-1.582-1.233-3.453-2.349-5.734-3.745-4.78-2.926-7.637-4.273-12.673-6.728-4.392-2.141-11.406-5.142-11.406-5.142s-16.843-5.74-28.07-6.95c-5.099-.549-7.99-.54-13.117-.603-2.561-.03-4.009-.22-6.558.032-1.911.189-2.94.608-4.847.825-1.995.227-3.144.015-5.133.286-2.213.3-3.412.716-5.576 1.27-5.27 1.347-8.728 3.152-13.243 4.315z" fill="#E0BEA2"/><circle cx="145.924" cy="29.408" r="2.242" fill="#C4631F"/><circle cx="155.889" cy="21.935" r="2.242" fill="#C4631F"/><circle cx="164.858" cy="15.458" r="2.242" fill="#C4631F"/><circle cx="163.861" cy="29.408" r="2.242" fill="#C4631F"/><circle cx="173.826" cy="21.935" r="2.242" fill="#C4631F"/><circle cx="191.265" cy="21.935" r="2.242" fill="#C4631F"/><circle cx="199.236" cy="15.458" r="2.242" fill="#C4631F"/><circle cx="242.085" cy="35.886" r="2.242" fill="#C4631F"/><circle cx="253.545" cy="38.377" r="2.242" fill="#C4631F"/><circle cx="262.513" cy="39.872" r="2.242" fill="#C4631F"/><circle cx="181.299" cy="29.408" r="2.242" fill="#C4631F"/><circle cx="198.738" cy="29.408" r="2.242" fill="#C4631F"/><circle cx="208.703" cy="21.935" r="2.242" fill="#C4631F"/><circle cx="226.64" cy="21.935" r="2.242" fill="#C4631F"/><circle cx="234.113" cy="29.408" r="2.242" fill="#C4631F"/><circle cx="244.078" cy="22.433" r="2.242" fill="#C4631F"/><circle cx="252.548" cy="28.91" r="2.242" fill="#C4631F"/><circle cx="227.138" cy="34.889" r="2.242" fill="#C4631F"/><circle cx="216.675" cy="28.91" r="2.242" fill="#C4631F"/><circle cx="207.706" cy="35.387" r="2.242" fill="#C4631F"/><circle cx="189.271" cy="36.882" r="2.242" fill="#C4631F"/><circle cx="171.334" cy="38.377" r="2.242" fill="#C4631F"/><circle cx="154.394" cy="36.882" r="2.242" fill="#C4631F"/><circle cx="145.924" cy="44.356" r="2.242" fill="#C4631F"/><circle cx="127.489" cy="46.349" r="2.242" fill="#C4631F"/><circle cx="118.52" cy="37.38" r="2.242" fill="#C4631F"/><circle cx="110.549" cy="29.408" r="2.242" fill="#C4631F"/><circle cx="111.546" cy="44.356" r="2.242" fill="#C4631F"/><circle cx="100.584" cy="41.366" r="2.242" fill="#C4631F"/><circle cx="136.458" cy="37.38" r="2.242" fill="#C4631F"/><circle cx="128.486" cy="29.408" r="2.242" fill="#C4631F"/><circle cx="137.953" cy="21.935" r="2.242" fill="#C4631F"/><circle cx="120.514" cy="21.935" r="2.242" fill="#C4631F"/><ellipse cx="181.798" cy="14.959" rx="2.242" ry="1.744" fill="#C4631F"/><ellipse cx="147.419" cy="15.458" rx="2.242" ry="1.744" fill="#C4631F"/><ellipse cx="159.875" cy="10.973" rx="1.744" ry="1.246" fill="#C4631F"/><ellipse cx="168.345" cy="7.984" rx="1.744" ry="1.246" fill="#C4631F"/><ellipse cx="173.826" cy="10.475" rx="1.744" ry="1.246" fill="#C4631F"/><ellipse cx="176.815" cy="5.493" rx="1.744" ry="1.246" fill="#C4631F"/><ellipse cx="188.773" cy="5.991" rx="1.744" ry="1.246" fill="#C4631F"/><ellipse cx="182.047" cy="8.233" rx="1.993" ry="1.495" fill="#C4631F"/><ellipse cx="188.026" cy="10.724" rx="1.993" ry="1.495" fill="#C4631F"/><ellipse cx="195.998" cy="8.233" rx="1.993" ry="1.495" fill="#C4631F"/><ellipse cx="204.468" cy="10.724" rx="1.993" ry="1.495" fill="#C4631F"/><ellipse cx="215.928" cy="15.707" rx="1.993" ry="1.495" fill="#C4631F"/><ellipse cx="213.934" cy="10.724" rx="1.993" ry="1.495" fill="#C4631F"/><path d="M96.716 47.324c-.473.065-.923.077-1.427-.302l1.427.302c.647-.09 1.338-.28 2.269.295.175.109.343.205.504.29l6.483 1.37 19.459 2.846 24.8-2.05 31.287-7.49 25.945-3.815 24.037.763 27.472 2.29 14.117 2.67c-1.064 3.166-2.948.808-5.539 2.161-1.696.886-3.716 1.394-5.524 2.084-1.708.652-2.397 1.038-4.528 1.338-1.79.251-3.359.084-5.165 0-1.784-.084-2.982-.547-4.907-.797-1.709-.222-2.715-.234-4.391-.444a168.995 168.995 0 00-4.648-.54c-2.059-.213-3.963-.412-5.424-.676-1.685-.304-3.426 0-5.152 0h-10.874c-4.171 0-8.269.695-12.41.695-2.348 0-4.596.347-6.963.347-2.045 0-4.655.063-6.613.618-1.633.462-3.518.171-5.758.424-2.583.292-4.01.617-6.575 1.042-5.789.96-9.063 1.392-14.783 2.702-2.364.54-4.123 1.024-6.026 1.496-3 .744-5.848 1.892-8.951 2.054-1.77.092-3.401.04-5.512.252-2.358.237-3.83-.156-6.198-.252-9.958-.403-15.088-1.722-24.535-4.872-3.554-1.185-5.837-1.416-9.298-2.846-1.58-.654-2.491-.66-3.826-1.37l-2.773-.585z" fill="#E0BEA2"/><path d="M252.486 53.127l18.314-8.394m-14.499 8.394l18.314-8.394M246.38 51.6l18.315-8.393m-15.262 9.157l18.314-8.394m-24.8 7.25l18.696-8.776m-22.13 8.776l17.933-9.158m-20.222 8.776l16.025-9.539m-17.933 9.157l14.117-9.92m-16.788 9.539l12.973-9.539m-14.881 9.539l11.447-9.539m-13.354 9.92l10.301-10.683m-11.828 10.302l8.394-9.92m-10.301 9.92l7.249-9.92m-9.157 9.92l6.487-9.92m-8.013 9.92l4.96-9.92m-6.486 9.92l3.815-9.92m-5.341 9.92l2.67-9.92m-4.197 9.92l1.526-9.92m-3.052 9.92l.763-9.92m-2.67 9.92l.381-9.92m-2.289 9.92l.381-9.92" stroke="#B29172" stroke-width="2.5"/><path d="M241.635 58.352c6.335-1.654 9.137-3.493 14.666-4.462l-15.262-2.67-18.314-.382-27.471 1.526-18.696 1.908-19.077 4.08-11.318 2.512c-2.416 0 4.312.671 8.258 1.122 1.982.226 4.241.167 6.927.548.904.129 1.754.212 2.308.378.871.26 1.926.03 2.747.394 1.544.683 3.58.373 5.249.463 1.707.093 3.468 0 5.217 0h13.417c3.556 0 7.589-.857 11.096-.857 1.606 0 3.639.151 5.16-.378 1.941-.675 3.766-.458 6.193-.548 1.756-.066 2.749.143 4.5 0 1.646-.136 2.817-.537 4.174-.67 3.402-.33 6.294-1.038 10.339-1.629 3.855-.563 6.687-.5 9.887-1.335z" fill="#C8BFB6"/><path d="M210.516 50.075v-9.92m-1.527 9.92l-.381-9.92m-1.526 10.683l-.382-9.92m-1.908 9.92l-.382-9.92m-1.907 9.92l-.382-9.92m-1.907 9.92l-.382-9.92m-1.907 9.92l-.382-9.92M195.635 51.6l-.381-9.92m-1.908 9.92l-.381-9.92m-1.908 10.684l-.382-9.92m-1.907 9.92l-.382-9.92m-1.908 9.92l-.382-9.92m-1.907 9.92l-.763-9.92m-1.145 10.683l-1.144-9.92m-.763 10.683l-1.527-9.92m-1.144 9.92l-1.527-9.92m-.762 9.92l-1.527-9.157m-.763 9.92l-1.526-9.157m-.763 9.92l-1.908-9.157m0 9.157l-2.289-8.394m0 8.776l-2.671-8.013m.382 8.395l-3.053-8.013m1.145 8.393l-3.434-7.63m.764 8.013l-3.434-7.631m1.907 8.394l-4.579-7.631m1.908 8.394l-4.578-7.631m1.907 8.012l-4.578-7.63" stroke="#B29172" stroke-width="2.5"/><path d="M148.058 8.825c-20.629 5.314-50.724 25.706-54.747 33.83-1.331 2.69 1.846 4.676 5.053 5.786 3.088 1.07 6.197 1.157 10.295 2.063 3.639.804 5.81.975 9.523 1.292 3.994.34 6.549.71 10.553.513 2.574-.127 6.229-.435 10.553-1.032 4.933-.68 7.897-.702 12.762-1.766 4.489-.983 6.94-1.806 11.406-2.888 4.763-1.155 7.417-1.895 12.229-2.825 2.565-.495 4.014-.71 6.59-1.142 2.448-.41 3.814-.685 6.273-1.016 2.553-.343 3.998-.418 6.558-.698 1.993-.218 3.108-.36 5.101-.571 4.794-.51 7.476-.94 12.293-1.143 4.005-.168 6.257-.066 10.265 0 8.585.142 13.398.443 21.956 1.143 4.572.374 7.166.388 11.69 1.142 2.016.336 3.124.645 5.133 1.016 3.006.554 4.674 1.476 7.724 1.27 2.163-.148 8.146 2.163 5.405-1.27-1.894-2.371-5.836-5.586-8.44-7.998-2.739-2.536-4.61-3.56-7.54-5.87-1.675-1.321-3.161-2.527-4.277-3.397-1.582-1.232-3.454-2.348-5.735-3.744-4.779-2.926-7.636-4.273-12.673-6.728-4.392-2.141-11.406-5.142-11.406-5.142s-16.843-5.74-28.07-6.95c-5.098-.549-7.989-.54-13.116-.603-2.561-.03-4.01-.22-6.559.032-1.911.189-2.939.608-4.847.825-1.995.227-3.143.015-5.133.286-2.212.3-3.412.716-5.576 1.27-5.269 1.347-8.727 3.152-13.243 4.315zM257.064 53.89c-5.529.97-8.33 2.808-14.666 4.462-3.2.835-6.032.772-9.887 1.335-4.045.591-6.937 1.298-10.339 1.63-1.357.132-2.528.533-4.174.669-1.751.143-2.744-.066-4.5 0-2.426.09-4.252-.127-6.192.548-1.521.53-3.555.378-5.161.378-3.507 0-7.54.857-11.095.857h-13.418c-1.748 0-3.51.093-5.217 0-1.669-.09-3.705.22-5.249-.463-.821-.363-1.876-.133-2.747-.394-.554-.166-1.404-.25-2.308-.378-2.685-.381-4.945-.322-6.927-.548-3.946-.45-10.673-1.122-8.257-1.122" stroke="#C4631F" stroke-width="2.5" stroke-linecap="round" stroke-linejoin="round"/><path d="M170.034 75.67c.549-7.464-.447-12.787-.447-19.158l26.939-3.385c0 3.148-.402 6.231-.402 9.358 0 3.635-.13 6.649 0 10.906.055 1.807.201 3.103.201 4.624 0 1.24.224 2.186.402 3.584.267 2.088.238 3.302.805 5.331.339 1.216.664 1.855 1.094 3.042.45 1.24.744 1.922 1.162 3.175.741 2.22.828 3.566 1.608 5.773.733 2.072 1.289 3.181 2.212 5.177.983 2.126 1.713 3.234 2.686 5.365.757 1.656 1.271 3.206 1.819 4.292.591 1.169 1.018 3.766 1.56 4.973.434.969-.991.772-2.079.772-.771 0-1.829-.257-2.599-.257-.456 0-2.241-.58-2.437-.92-.158-.273-.46-.409-.648-.642-.193-.239-.179-.543-.313-.84-.504-1.123-.822.169-1.15.884-.295.643-2.027.31-2.67.31-1.591 0-3.311.416-4.467-.796-.509-.534-.508-1.363-1.206-.498-.56.692-1.385.697-2.257.697-.418 0-1.965.227-1.965-.299 0-.775-.42-1.97-.648-2.732-.275-.92-.266-1.72-1.273-1.15-1.344.76-.807 3.484-2.536 3.484-.703 0-2.155-.329-2.858-.329-.686 0-.337-1.823-.928-2.115-.562-.279-1.255 2.174-2.1 1.935-.648-.183-1.442-.398-2.077-.785-.359-.219-.767-.082-.86-.498-.086-.381-.211-.916-.491-1.194-.846-.838-1.023-.336-1.86.542-.933.978-2.598.025-3.87-.045-.471-.026-1.045-1.133-1.296-.885-.744.737-.81.885-1.921.885-.414 0-.584-.011-.916-.199-.247-.14-.344-.921-.502-.686-.393.584-.595.929-1.396.885-.692-.038-1.494-.453-2.1-.796-.384-.217.464-1.695.737-2.788.272-1.085.342-1.714.659-2.787.423-1.434.848-2.175 1.351-3.584 1.232-3.45 1.702-5.457 2.77-8.96.553-1.813.869-2.828 1.408-4.645.745-2.517 1.311-3.893 1.854-6.46.696-3.294.758-5.204 1.005-8.561z" fill="#F9F6EF"/><path d="M170.35 55.749c0 6.37.996 11.694.447 19.158-.247 3.357-.309 5.266-1.006 8.56-.542 2.568-1.108 3.944-1.854 6.46-.538 1.818-.854 2.833-1.407 4.646-1.068 3.503-1.538 5.51-2.77 8.96-.503 1.408-.928 2.15-1.351 3.584-.317 1.073-.388 1.702-.659 2.787-.274 1.092-1.121 2.57-.737 2.788.606.343 1.408.758 2.099.796.802.044 1.004-.302 1.396-.885.159-.235.255.546.503.686.331.187.502.199.916.199 1.11 0 1.177-.148 1.921-.885.251-.248.825.859 1.296.885 1.271.07 2.937 1.023 3.87.044.836-.877 1.014-1.379 1.859-.542.281.278.406.814.492 1.195.093.416.5.279.86.498.635.387 1.429.602 2.077.785.844.239 1.537-2.214 2.1-1.936.591.293.241 2.116.927 2.116.704 0 2.155.329 2.859.329 1.728 0 1.192-2.724 2.535-3.484 1.008-.571.998.23 1.274 1.15.227.761.647 1.956.647 2.732 0 .526 1.548.299 1.966.299.872 0 1.697-.005 2.256-.697.699-.865.698-.036 1.206.498 1.156 1.212 2.877.796 4.468.796.642 0 2.375.333 2.669-.31.329-.715.647-2.008 1.151-.885.133.298.12.602.313.841.188.233.49.369.647.642.197.34 1.982.92 2.438.92.77 0 1.828.257 2.598.257 1.088 0 2.514.197 2.079-.772-.541-1.207-.969-3.805-1.559-4.974-.548-1.085-1.062-2.635-1.819-4.291-.974-2.131-1.704-3.239-2.687-5.365-.923-1.996-1.479-3.105-2.211-5.177-.781-2.207-.867-3.553-1.609-5.774-.418-1.252-.711-1.933-1.161-3.174-.431-1.187-.755-1.827-1.095-3.042-.566-2.03-.537-3.243-.804-5.332-.178-1.397-.402-2.343-.402-3.584 0-1.52-.146-2.817-.201-4.623-.13-4.257 0-7.27 0-10.906 0-3.127.402-6.21.402-9.358" stroke="#B29172" stroke-width="2.5" stroke-linecap="round" stroke-linejoin="round"/><path d="M96.052 47.927c1.194.897 2.086 2.13 3.696 3.126 1.629 1.007 2.559.927 4.331 1.66 3.461 1.43 5.743 1.661 9.297 2.846 9.447 3.15 14.577 4.469 24.535 4.872 2.368.096 3.84.49 6.198.252 2.111-.213 3.743-.16 5.512-.252 3.103-.162 5.951-1.31 8.951-2.054 1.903-.472 3.663-.955 6.027-1.497 5.719-1.31 8.993-1.74 14.783-2.701 2.564-.425 3.991-.75 6.574-1.042 2.24-.253 4.126.038 5.758-.424 1.958-.556 4.568-.618 6.613-.618 2.367 0 4.615-.347 6.964-.347 4.14 0 8.239-.695 12.41-.695h10.873c1.726 0 3.467-.304 5.152 0 1.462.264 3.365.463 5.424.675 1.952.202 2.701.296 4.648.54 1.676.211 2.682.223 4.391.445 1.925.25 3.123.713 4.907.797 1.806.084 3.375.25 5.165 0 2.131-.3 2.82-.686 4.528-1.338 1.809-.69 3.829-1.198 5.524-2.084 2.592-1.353 5.238-1.426 6.302-4.592" stroke="#C4631F" stroke-width="2.5" stroke-linecap="round" stroke-linejoin="round"/><path d="M170.072 114.174c0 6.022.364 11.791 1.315 17.696.494 3.066.731 6.127.731 9.239 0 3.646.741 7.401.876 11.06.049 1.31.803 2.531.877 3.871.09 1.628.62 3.432.942 5.042.745 3.734 1.885 7.311 2.565 11.06.799 4.402 2.178 8.721 3.377 13.012.509 1.821 1.082 3.996 1.754 5.726.399 1.029.558 2.074.779 3.155.059.291.519 2.543.519 1.529m16.025-78.338c0 3.933.945 7.568 1.086 11.421.183 4.991 2.042 9.951 2.534 14.915.214 2.169 1.085 4.251 1.468 6.381.37 2.06 1.122 5.047 2.152 6.869 2.2 3.891 2.522 9.129 4.343 13.269 2.797 6.36 5.471 12.928 9.231 18.838 1.706 2.682 2.885 5.691 4.163 8.596.667 1.517 1.514 3.08 2.252 4.572.604 1.22.437 2.509 1.005 3.658" stroke="#B29172" stroke-width="2.5" stroke-linecap="round" stroke-linejoin="round"/><path d="M239.464 165.324c0 2.883.041 5.815-.729 8.608-.386 1.398-.622 2.785-1.227 4.129-.639 1.421-1.243 2.787-1.766 4.241-1.227 3.409-3.588 6.099-5.685 8.959a24.308 24.308 0 01-2.804 3.182c-.628.605-1.392 1.53-2.173 1.921m33.528-30.517c0 3.535-.417 6.832-.717 10.281a20.292 20.292 0 01-.555 3.168c-.333 1.333-.807 2.947-.908 4.308-.06.823-.407 1.694-.554 2.502-.246 1.349-.56 2.664-1.08 3.935-2.039 4.984-3.585 10.808-7.526 14.75-.886.885-1.496 2.04-2.371 2.916-.826.825-1.37 2.1-2.311 2.814-1.652 1.257-2.669 4.722-5.226 4.722" stroke="#B29172" stroke-width="2.5" stroke-linecap="round" stroke-linejoin="round"/><path d="M246.939 165.408c-8.438-.084-14.469-.012-21.609-.012v-3.919c0-3.113-.216-3.214 1.423-6.025 1.687-2.894 1.874-5.253 4.528-7.296 1.157-.891 1.744-1.433 2.97-2.228a43.051 43.051 0 012.784-1.67c4.305-2.334 7.62-2.194 11.897-2.194 2.338 0 4.121.766 6.699 1.501 1.353.386 2.176.461 3.433 1.093.982.493 1.455.911 2.341 1.56 2.196 1.608 3.443 2.578 5.139 4.706 1.496 1.88 2.159 3.098 3.133 5.295 1.208 2.723 1.82 4.377 2.053 7.347.099 1.262-.241.855-.458 1.83-.1.453-.336.217-1.595.432-3.762.645-5.956-.142-9.772-.216h-.042c-5.037-.098-7.874-.153-12.924-.204z" fill="#E0BEA2"/><path d="M248.389 165.135c-8.438-.085-14.469-.012-21.609-.012-1.446.012-1.075-4.419-1.075-5.797 0-3.113 1.331-4.056 2.97-6.868 1.687-2.894 2.543-4.267 5.197-6.311 1.157-.891 1.744-1.433 2.97-2.227a42.604 42.604 0 012.784-1.67c4.304-2.334 7.62-2.194 11.897-2.194 2.338 0 4.121.765 6.699 1.501 1.353.386 2.176.461 3.433 1.092.982.493 1.455.912 2.341 1.561 2.195 1.608 3.443 2.577 5.138 4.706 1.497 1.879 2.159 3.098 3.134 5.294 1.208 2.723 1.819 4.377 2.053 7.347.099 1.262.204 2.266-.012 3.242-.101.453-1.923.541-3.182.756-3.762.644-5.956-.142-9.772-.216l-.041-.001c-5.038-.097-7.875-.152-12.925-.203z" stroke="#C4631F" stroke-width="2.5" stroke-linecap="round" stroke-linejoin="round"/><circle cx="246.679" cy="155.799" r="1.299" fill="#C4631F"/><circle cx="250.019" cy="159.883" r="1.299" fill="#C4631F"/><circle cx="267.838" cy="159.883" r="1.299" fill="#C4631F"/><circle cx="240.739" cy="155.799" r="1.299" fill="#C4631F"/><circle cx="244.08" cy="159.883" r="1.299" fill="#C4631F"/><circle cx="261.899" cy="159.883" r="1.299" fill="#C4631F"/><circle cx="234.8" cy="155.799" r="1.299" fill="#C4631F"/><circle cx="229.726" cy="155.412" r="1.299" fill="#C4631F"/><circle cx="252.247" cy="155.799" r="1.299" fill="#C4631F"/><circle cx="255.588" cy="159.883" r="1.299" fill="#C4631F"/><circle cx="273.407" cy="159.883" r="1.299" fill="#C4631F"/><circle cx="258.186" cy="155.799" r="1.299" fill="#C4631F"/><circle cx="264.126" cy="155.799" r="1.299" fill="#C4631F"/><circle cx="270.066" cy="155.799" r="1.299" fill="#C4631F"/><circle cx="244.823" cy="150.973" r="1.299" fill="#C4631F"/><circle cx="238.883" cy="150.973" r="1.299" fill="#C4631F"/><circle cx="232.943" cy="150.973" r="1.299" fill="#C4631F"/><circle cx="232.572" cy="159.883" r="1.299" fill="#C4631F"/><circle cx="227.048" cy="160.099" r="1.299" fill="#C4631F"/><circle cx="238.141" cy="159.883" r="1.299" fill="#C4631F"/><ellipse cx="240.368" cy="163.595" rx="1.299" ry=".557" fill="#C4631F"/><ellipse cx="247.421" cy="163.595" rx="1.299" ry=".557" fill="#C4631F"/><ellipse cx="254.103" cy="163.595" rx="1.299" ry=".557" fill="#C4631F"/><ellipse cx="260.785" cy="163.595" rx="1.299" ry=".557" fill="#C4631F"/><ellipse cx="267.467" cy="163.595" rx="1.299" ry=".557" fill="#C4631F"/><ellipse cx="273.778" cy="163.595" rx="1.299" ry=".557" fill="#C4631F"/><ellipse cx="233.686" cy="163.595" rx="1.299" ry=".557" fill="#C4631F"/><ellipse cx="227.718" cy="164.042" rx="1.299" ry=".557" fill="#C4631F"/><circle cx="250.391" cy="150.973" r="1.299" fill="#C4631F"/><circle cx="256.331" cy="150.973" r="1.299" fill="#C4631F"/><ellipse cx="254.103" cy="146.89" rx="1.299" ry=".928" fill="#C4631F"/><ellipse cx="260.042" cy="146.89" rx="1.299" ry=".928" fill="#C4631F"/><ellipse cx="257.63" cy="143.735" rx="1.114" ry=".742" fill="#C4631F"/><ellipse cx="251.69" cy="143.735" rx="1.114" ry=".742" fill="#C4631F"/><ellipse cx="245.75" cy="143.735" rx="1.114" ry=".742" fill="#C4631F"/><ellipse cx="240.183" cy="143.735" rx="1.114" ry=".742" fill="#C4631F"/><ellipse cx="249.092" cy="141.136" rx="1.114" ry=".742" fill="#C4631F"/><ellipse cx="254.66" cy="141.136" rx="1.114" ry=".742" fill="#C4631F"/><ellipse cx="265.982" cy="146.89" rx="1.299" ry=".928" fill="#C4631F"/><ellipse cx="248.164" cy="146.89" rx="1.299" ry=".928" fill="#C4631F"/><ellipse cx="242.224" cy="146.89" rx="1.299" ry=".928" fill="#C4631F"/><ellipse cx="236.285" cy="146.89" rx="1.299" ry=".928" fill="#C4631F"/><circle cx="262.27" cy="150.973" r="1.299" fill="#C4631F"/><circle cx="268.209" cy="150.973" r="1.299" fill="#C4631F"/><rect x="32" y="191" width="311" height="362" rx="5" fill="#EFEDEA"/><path d="M32 196a5 5 0 015-5h301a5 5 0 015 5v27H32v-27z" fill="#C8BFB6"/><path d="M154.186 200.674c.383 0 .695.119.938.357s.364.534.364.889-.121.653-.364.896c-.243.238-.555.357-.938.357-.387 0-.705-.119-.952-.357a1.216 1.216 0 01-.364-.896c0-.355.121-.651.364-.889.247-.238.565-.357.952-.357zm1.337 3.892v5.922h1.89V212h-6.209v-1.512h2.107v-4.41h-2.037v-1.512h4.249zm3.852 7.434v-7.434h1.932l.154.861c.331-.373.681-.651 1.05-.833a2.806 2.806 0 011.26-.273c.634 0 1.134.194 1.498.581.364.387.546.933.546 1.638V212h-2.212v-4.823c0-.457-.052-.775-.154-.952-.098-.182-.285-.273-.56-.273a1.16 1.16 0 00-.672.224c-.21.149-.42.357-.63.623V212h-2.212zm15.086-.434a4.375 4.375 0 01-1.05.476 4.554 4.554 0 01-1.386.196c-.971 0-1.692-.247-2.163-.742-.471-.499-.707-1.176-.707-2.03v-3.374h-1.561v-1.526h1.561v-1.61l2.212-.266v1.876h2.394l-.217 1.526h-2.177v3.374c0 .369.084.632.252.791.168.159.436.238.805.238.261 0 .499-.03.714-.091.219-.065.415-.147.588-.245l.735 1.407zm1.773.434v-1.484h.98v-4.48h-.98v-1.47h2.667l.406 1.673c.266-.639.604-1.115 1.015-1.428.415-.313.921-.469 1.519-.469.252 0 .476.021.672.063.196.037.38.091.553.161l-.413 3.108h-1.386v-1.372c-.42.075-.789.303-1.106.686-.318.378-.563.845-.735 1.4v2.128h1.47V212h-4.662zm11.544-7.679c.765 0 1.416.163 1.953.49a3.19 3.19 0 011.232 1.379c.285.588.427 1.279.427 2.072 0 1.241-.317 2.214-.952 2.919-.635.705-1.521 1.057-2.66 1.057-1.139 0-2.025-.348-2.66-1.043-.635-.695-.952-1.668-.952-2.919 0-.789.142-1.479.427-2.072a3.271 3.271 0 011.239-1.386c.541-.331 1.19-.497 1.946-.497zm0 1.631c-.453 0-.789.187-1.008.56-.215.369-.322.957-.322 1.764 0 .821.107 1.416.322 1.785.219.369.555.553 1.008.553.453 0 .786-.184 1.001-.553.219-.369.329-.968.329-1.799 0-.803-.11-1.388-.329-1.757-.215-.369-.548-.553-1.001-.553zm6.834 4.725c0-.285.07-.544.21-.777.14-.238.329-.427.567-.567.238-.145.499-.217.784-.217.289 0 .55.072.784.217.238.14.427.329.567.567.14.233.21.492.21.777 0 .28-.07.539-.21.777-.14.238-.329.427-.567.567a1.457 1.457 0 01-.784.217c-.285 0-.546-.072-.784-.217a1.572 1.572 0 01-.567-.567 1.505 1.505 0 01-.21-.777zm10.935-10.003c.383 0 .696.119.938.357.243.238.364.534.364.889s-.121.653-.364.896c-.242.238-.555.357-.938.357-.387 0-.704-.119-.952-.357a1.22 1.22 0 01-.364-.896c0-.355.122-.651.364-.889.248-.238.565-.357.952-.357zm1.435 3.892v5.278c0 1.073-.2 1.955-.602 2.646-.396.695-.989 1.246-1.778 1.652-.784.411-1.754.73-2.912.959l-.35-1.687c.752-.173 1.382-.387 1.89-.644.509-.257.892-.604 1.148-1.043.262-.443.392-1.024.392-1.743v-3.906h-2.674v-1.512h4.886zm6.876-.245c.97 0 1.666.355 2.086 1.064.42.709.63 1.668.63 2.877 0 .765-.112 1.449-.336 2.051-.224.597-.549 1.069-.973 1.414-.425.341-.941.511-1.547.511-.724 0-1.312-.259-1.764-.777v3.409l-2.212.231v-10.535h1.96l.098.833c.303-.387.634-.663.994-.826a2.497 2.497 0 011.064-.252zm-.686 1.631c-.257 0-.483.077-.679.231a2.352 2.352 0 00-.539.63v3.136c.154.229.315.397.483.504.172.107.375.161.609.161.392 0 .697-.177.917-.532.219-.359.329-.957.329-1.792 0-.616-.045-1.092-.133-1.428-.089-.341-.217-.576-.385-.707a.932.932 0 00-.602-.203zm11.565-2.576l.518 1.624a3.934 3.934 0 01-.917.224c-.35.047-.758.07-1.225.07.467.201.822.45 1.064.749.248.294.371.681.371 1.162 0 .481-.128.91-.385 1.288-.256.373-.62.667-1.092.882-.471.215-1.029.322-1.673.322-.308 0-.595-.028-.861-.084-.163.084-.245.226-.245.427 0 .117.047.222.14.315.098.093.325.14.679.14h1.218c.864 0 1.552.203 2.065.609.514.406.77.919.77 1.54 0 .761-.333 1.36-1.001 1.799-.667.439-1.659.658-2.975.658-.952 0-1.689-.098-2.212-.294-.518-.191-.879-.467-1.085-.826-.2-.355-.301-.777-.301-1.267h1.96c0 .215.042.39.126.525.089.14.255.243.497.308.248.065.605.098 1.071.098.472 0 .831-.037 1.078-.112.248-.075.416-.177.504-.308a.694.694 0 00.14-.427.643.643 0 00-.259-.532c-.172-.135-.445-.203-.819-.203h-1.183c-.802 0-1.386-.147-1.75-.441-.364-.299-.546-.646-.546-1.043 0-.275.073-.537.217-.784.15-.247.357-.455.623-.623-.476-.252-.816-.548-1.022-.889-.205-.345-.308-.758-.308-1.239 0-.56.143-1.041.427-1.442a2.748 2.748 0 011.176-.938c.504-.219 1.078-.329 1.722-.329a6.756 6.756 0 001.449-.112c.411-.089.78-.208 1.106-.357.327-.154.64-.317.938-.49zm-3.437 2.394c-.35 0-.627.112-.833.336-.205.219-.308.523-.308.91 0 .411.105.726.315.945.21.219.486.329.826.329.756 0 1.134-.434 1.134-1.302 0-.812-.378-1.218-1.134-1.218z" fill="#192825"/><rect x="33" y="192" width="309" height="360" rx="4" stroke="#4A5759" stroke-width="2"/><path d="M32 223h311" stroke="#4A5759" stroke-width="2"/><path d="M318.5 206c.5 3 2.76 5.321 4.052 6.007.897-1.346 2.744-2.164 3.849-3.208.755-.714 1.604-1.268 1.604-2.406 0-1.18-.505-2.393-2.005-1.893-3 1-3.5 4.05-3.5 1 0-1.682.09-3.95-2-3-1.636.743-2 1.5-2 3.5z" fill="#4A9D63" stroke="#4A5759" stroke-width="2" stroke-linecap="round" stroke-linejoin="round"/><path d="M306.022 201l-.118.152c-.789 1.303.826 5.823 1.288 6.746.33.66 1.73 2.084.434 2.084-1.189 0-2.177.776-2.727 1.765-.626 1.127-.604 2.704-1.283.802-.294-.825-.097-1.843-.424-3.151-.447-1.787-3.442-2.84-4.075-2.845-.074.033-.117.05-.117.043 0-.029.042-.044.117-.043.51-.229 2.511-1.259 2.592-1.311 1.657-1.065 2.993-2.546 4.195-4.09a.821.821 0 01.118-.152z" fill="#F8CD5E" stroke="#4A5759" stroke-width="2" stroke-linecap="round" stroke-linejoin="round"/><path d="M284 203c2.237-1.006 3.5.001 4.5.5 1.905.952 2.265 3.667 2.5 5 .142.808-.93 4.356-3.103 4.356-3.094 0-6.897-.762-6.897-4.651 0-1.195.763-4.199 3-5.205z" fill="#9E483E" stroke="#4A5759" stroke-width="2" stroke-linecap="round" stroke-linejoin="round"/><path d="M145.192 272.23l-2.901 4.06v9.476l-.264 11.37.792 8.663 1.253 4.587 4.017 4.499 6.392 6.186 6.979 8.058 3.442 2.429 4.736-.553 13.514-2.812 13.879-3.936 13.513-2.249 10.592-3.562 6.026-1.687 4.383-4.311.913-7.31-.548-12.371.548-14.059-.73-5.248-6.026-4.499-7.305-5.623-6.574-4.874-4.566-2.249-4.748-.187-6.574 2.249-11.322 2.062-10.592 2.624-8.218 2.249-6.939 2.062-8.924 2.519-4.748 2.437z" fill="#fff"/><path d="M230.267 273.825c.367.43.818.977 1.088 1.909.132.792.177 2.702.137 5.73l1.607.136c.03-2.624.03-4.144 0-4.558-.076-1.096-.205-2.676-.752-3.745a5.647 5.647 0 00-1.457-1.814c-.317-.525-18.104-13.279-18.537-13.72-.754-.764-2.787-1.747-3.788-2.152a8.496 8.496 0 00-3.176-.611h-.038a9.764 9.764 0 00-2.284.277l-52.763 12.641a11.431 11.431 0 00-3.734 1.646 12.845 12.845 0 00-2.889 2.679 12.614 12.614 0 00-1.946 3.416 11.057 11.057 0 00-.735 3.906v.033l.002.102.294 26.009a9.282 9.282 0 00.625 3.297 8.1 8.1 0 001.753 2.705c.754.762 1.365 1.413 2.079 2.028.056.023 1.132 1.095 2.266 2.245 3.149 3.193 9.328 9.783 11.685 12.218.558.576 2.034 1.938 2.073 1.948.64.56 2.262 1.592 3.884 1.786 1.163.136.817.084 1.897.136v-1.864c-2.224.149-4.419-1.129-6.59-3.836l-6.151-6.492c-.728-.731-8.481-8.692-8.874-9.09-.538-.55-1.548-1.904-1.828-2.62a6.95 6.95 0 01-.47-2.475v-.009l-.293-26.027-.003-.089a8.788 8.788 0 01.586-3.093c.38-1.008.918-1.954 1.592-2.798a10.504 10.504 0 012.369-2.196 9.055 9.055 0 012.791-1.264l52.937-12.684s.003 0 .005-.002a7.426 7.426 0 011.727-.209h.035c.785 0 1.562.149 2.291.439.548.223 3.176 1.677 3.623 2.062l11.31 8.254 2.933 2.14 4.179 3.078.54.528z" fill="#2E2E2E"/><path fill-rule="evenodd" clip-rule="evenodd" d="M229.422 276.37c-1.126-1.267-2.952-1.898-5.138-1.365l-55.185 13.458c-3.782.923-6.885 4.931-6.841 8.864l.309 27.674c.022 1.918.783 3.372 1.898 4.244 1.114.872 2.695 1.255 4.539.805l55.185-13.458c3.782-.923 6.884-4.931 6.84-8.864l-.308-27.674c-.018-1.556-.524-2.805-1.299-3.684zm-5.724-3.769c2.986-.728 5.781.107 7.575 2.128l.002.002c1.207 1.367 1.896 3.205 1.92 5.296l.308 27.674c.057 5.073-3.817 10.097-8.728 11.295l-55.185 13.458c-2.503.611-4.88.126-6.65-1.26-1.77-1.386-2.818-3.581-2.847-6.165l-.309-27.675c-.056-5.073 3.818-10.097 8.729-11.295l37.585-9.166 17.6-4.292z" fill="#2E2E2E"/><path fill-rule="evenodd" clip-rule="evenodd" d="M230.349 275.55c.991 1.123 1.589 2.667 1.609 4.49l.309 27.675c.05 4.503-3.438 9.019-7.785 10.079l-27.592 6.729-27.593 6.729c-4.346 1.06-7.916-1.735-7.966-6.237l-.309-27.675c-.05-4.502 3.438-9.019 7.785-10.079l37.584-9.166 17.601-4.292c2.586-.631 4.896.103 6.357 1.747zm-63.085 20.95c0-1.559 1.294-3.193 2.865-3.616 1.571-.424 2.865.512 2.865 2.072v.948l1.91-.515v-.948c0-1.559 1.294-3.193 2.865-3.616 1.572-.424 2.866.512 2.866 2.072 0 1.559-1.294 3.193-2.866 3.616l-.955.258v1.896l.955-.258c1.572-.423 2.866.513 2.866 2.072 0 1.56-1.294 3.193-2.866 3.616-1.571.424-2.865-.512-2.865-2.071v-.948l-1.91.514v.948c0 1.56-1.294 3.193-2.865 3.617-1.571.423-2.865-.513-2.865-2.073 0-1.559 1.294-3.192 2.865-3.616l.955-.257v-1.896l-.955.257c-1.571.423-2.865-.512-2.865-2.072zm3.82-1.029c0-.536-.416-.836-.955-.691-.54.145-.955.67-.955 1.205 0 .536.415.836.955.691l.955-.257v-.948zm6.685-2.75c.54-.145.955.155.955.691 0 .535-.415 1.06-.955 1.205l-.955.257v-.948c0-.535.416-1.06.955-1.205zm-2.865 4.564l-1.91.515v1.896l1.91-.515v-1.896zm-4.775 5.079l.955-.257v.948c0 .536-.416 1.06-.955 1.205-.54.146-.955-.155-.955-.69 0-.536.415-1.06.955-1.206zm7.64-2.059l-.955.258v.948c0 .535.416.836.955.69.54-.145.955-.669.955-1.205s-.415-.836-.955-.691zm6.981 16.546l-1.783.067c-.224 1.398-.891 2.223-2 2.474-1.519.344-2.279-.448-2.279-2.376 0-1.981.74-3.139 2.219-3.474a3.225 3.225 0 011.545.006l.297 1.399 1.704-.564-.357-2.415a4.91 4.91 0 00-1.565-.3 6.508 6.508 0 00-1.584.161c-1.334.302-2.414.983-3.239 2.042-.825 1.058-1.238 2.307-1.238 3.746 0 1.466.399 2.492 1.198 3.076.799.586 1.833.735 3.1.447 1.347-.305 2.325-.893 2.932-1.763.608-.871.958-1.712 1.05-2.526zm17.472-.768v-1.624l-1.308.296v-4.259c0-1.096-.304-1.833-.911-2.211-.608-.377-1.314-.474-2.12-.292-.726.164-1.34.485-1.842.962a4.741 4.741 0 00-1.149 1.716c-.211-.639-.581-1.06-1.109-1.264-.528-.203-1.122-.231-1.783-.081-.66.149-1.221.428-1.684.837a4.741 4.741 0 00-1.109 1.44v-1.466l-3.427.776v1.644l1.308-.296v5.625l-1.328.301v1.625l5.111-1.158v-1.625l-1.664.378v-3.487a3.424 3.424 0 01.515-1.731c.33-.544.839-.893 1.525-1.049.529-.119.941-.038 1.238.245.297.282.446.846.446 1.692v3.486l-.475.108v1.624l3.922-.888v-1.625l-1.327.301v-3.467c.013-.61.181-1.19.505-1.738.323-.549.835-.903 1.535-1.061.541-.123.96-.043 1.258.24.297.283.445.846.445 1.691v3.487l-.495.112v1.624l3.923-.888zm11.073-2.508v-1.625l-1.308.296v-12.004l-4.041.916v1.624l1.922-.435v4.497a2.159 2.159 0 00-1.119-.886c-.482-.175-1.073-.183-1.774-.024-1.373.311-2.38 1.024-3.02 2.14a7.06 7.06 0 00-.961 3.575c0 1.387.34 2.399 1.02 3.037.68.639 1.601.826 2.764.563.805-.182 1.456-.518 1.951-1.006a5.435 5.435 0 001.139-1.595v1.703l3.427-.776zm-3.427-4.176v.673c-.014.664-.238 1.341-.674 2.035-.436.693-1.017 1.121-1.743 1.286-.621.14-1.152.017-1.595-.372-.442-.388-.663-1.051-.663-1.989 0-.924.221-1.704.663-2.339.443-.635 1.021-1.033 1.733-1.195.634-.144 1.169-.047 1.605.291.436.337.66.873.674 1.61zm4.417-1.556v1.783l4.675-1.059v-1.782l-4.675 1.058zm11.826-10.849a5.38 5.38 0 00-1.248.134c-1.043.236-1.869.76-2.476 1.571-.608.811-.911 1.699-.911 2.663v1.466l-1.169.264v1.565l1.169-.265v5.706l-1.328.3v1.624l5.111-1.157v-1.624l-1.683.381v-5.705l2.238-.507v-1.565l-2.238.507v-1.763c0-1.03.409-1.638 1.228-1.823.277-.063.547-.078.812-.046l.416 1.352 1.663-.575-.376-2.193a2.584 2.584 0 00-1.208-.31z" fill="#2E2E2E"/><path d="M-34.398 485.936c1.406.717 71.87 20.002 84.156 32.176 9.83 9.738 6.183 17.442 3.13 20.077-2.43 3.345-12.538 7.591-33.528-2.188-23.245-10.829-62.344-31.761-80.197-26.349-7.061 6.119-10.911 9.079-5.758 3.476 1.515-1.647 3.46-2.78 5.758-3.476 7.502-6.501 18.63-16.567 26.44-23.716z" fill="#4A5759"/><path d="M57.312 522.373l-6.115-1.461 1.217 2.909 4.898-1.448z" fill="#C4C4C4"/><ellipse cx="46.783" cy="523.856" rx="2.222" ry="2.407" transform="rotate(27.058 46.783 523.856)" fill="#E0BEA2"/><ellipse cx="35.498" cy="526.408" rx="7.406" ry="8.332" transform="rotate(27.058 35.498 526.408)" fill="#E0BEA2"/><ellipse cx="48.015" cy="531.122" rx="2.981" ry="3.332" transform="rotate(27.058 48.015 531.122)" fill="#E0BEA2"/><ellipse cx="42.603" cy="536.963" rx="2.981" ry="2.28" transform="rotate(27.058 42.603 536.963)" fill="#E0BEA2"/><path d="M86.167 596.468c-.174-.214 20.171-50.824 20.171-50.824l7.635 67.456-23.983 3.196-3.823-19.828z" fill="#83A096"/><path d="M59.91 590.034l-13.816-36.263s9.72 12.359 9.786 10.91c.067-1.448-3.948-12.861-3.948-12.861s17.314 19.862 46.53 38.15c29.214 18.288 2.082 28.181 2.082 28.181l-21.374 8.718-62.345-45.694 34.588.039 8.498 8.82z" fill="#83A096"/><path d="M85.052 587.592l21.983 27.455-7.017 10.926-17.685-25.399 2.72-12.982z" fill="#83A096"/><path d="M98.022 612.318l-34.615-65.956s15.097 72.055 26.371 77.943c11.274 5.888 11.849-1.021 11.849-1.021l-3.605-10.966z" fill="#B7C2B4"/><path d="M88.96 595.041L74.2 578.487l19.465 25.591-15.649-15.633 18.292 20.665-12.586-7.651 14.3 10.859s-.895-5.448-.977-6.238c-.06-.749-8.084-11.039-8.084-11.039zm-47.725 15.661l26.806 22.788 11.084-6.7-24.808-18.435-13.082 2.347z" fill="#83A096"/><path d="M51.022 604.476L9.563 561.729s65.184 33.845 75.06 53.848c9.874 20.003-5.74 14.381-5.74 14.381l-27.86-25.482zm52.877-79.81c-2.725 2.746-3.7 9.777-3.517 19.129.036 1.077.072 2.153.091 3.292l.095 1.827c.17 3.247.452 6.692.823 10.296.202 1.923.449 3.925.634 5.91.39 3.175.825 6.429 1.299 9.66.258 1.839.54 3.717.838 5.533.85 5.37 1.762 10.756 2.726 15.957a.654.654 0 00.078.321c2.563 14.012 5.384 26.728 7.218 34.57 1.106 4.807 1.891 7.758 1.985 8.017l-.589-.763c-24.449-26.37-32.846-48.464-33.556-65.93.002-.366-.037-.71-.013-1.037a51.26 51.26 0 01.155-5.992c.058-.45.053-.918.111-1.369.49-5.032 1.655-9.61 3.15-13.697.034-.124.108-.27.182-.416a52.6 52.6 0 012.288-5.268c.238-.5.46-.939.72-1.401.664-1.316 1.434-2.536 2.126-3.712a50.037 50.037 0 011.659-2.508c.266-.359.51-.759.776-1.118l.628-.827c5.19-6.964 10.093-10.474 10.093-10.474z" fill="#B7C2B4"/><path d="M76.054 618.239L56.69 606.278l7.925 2.927-22.402-16.769 8.515 5.258-29.063-27.048 25.213 20.348-6.954-8.493 17.477 16.74.296-4.452 7.21 11.43s1.586-2.728.234-6.403c-1.351-3.674 6.06 10.045 6.06 10.045l1.053-3.575 9.327 10.283-5.528 1.67zm18.761-43.547l10.629 39.481c-1.548 13.206-2.523 25.305-3.049 32.76l-12.743-25.43 4.736-7.49c.272-.625-3.404-17.245-5.453-26.48l.257-.929 4.16 13.053-2.288-18.503c.142-.394.323-.81.505-1.226l5.216 21.18s4.892 27.424 6.097 34.526c-1.427-9.797-7.94-60.074-8.067-60.942zm-4.235-17.975l14.77 25.692c.447 4.658 1.018 9.349 1.578 13.838l-16.513-39.175c.057-.085.091-.209.165-.355zm2.984-5.975l10.708 18.433c.166 2.78.393 5.576.643 8.413l-12.06-25.609c.244-.399.465-.838.709-1.237zm3.67-5.685l6.583 9.957c-.015 2.829.02 5.839.184 8.985l-8.336-16.643a31.647 31.647 0 011.569-2.299zm1.33-1.799l5.346 7.314c-.053.919-.062 1.917-.094 2.875l-5.863-9.424a5.42 5.42 0 00.61-.765z" fill="#83A096"/><path d="M119.042 612.003s.051.18.106.462c.005.102.072.22.1.361.005.102.05.181.033.243.166.846.438 2.155.766 3.746.166.846.399 1.81.576 2.86l.083.423c.239 1.066.461 2.194.728 3.401.027.141.033.243.06.384.239 1.066.461 2.194.705 3.362.005.102.028.141.033.243.35 1.63.682 3.322 1.037 5.054.078.322.133.604.211.925.144.807.35 1.631.494 2.437.05.181.083.423.133.604.239 1.066.438 2.155.677 3.221.033.243.106.463.139.705.183.784.327 1.591.488 2.336l.166.846c.166.846.333 1.692.539 2.516.077.321.155.643.194.987.166.846.332 1.692.516 2.476.083.424.143.807.266 1.208.111.564.222 1.128.35 1.63.078.322.116.666.194.987.133.604.244 1.168.332 1.693.033.242.083.423.134.603.083.423.183.784.221 1.128l.25 1.27c.055.282.105.462.105.462-.328.343-.735.73-1.204 1.101-7.684 6.34-28.962 14.586-28.962 14.586s-.561-.622-1.493-1.714c-.13-.135-.28-.311-.41-.446-.196-.255-.455-.526-.735-.837-.197-.255-.41-.447-.607-.702-.325-.39-.735-.837-1.123-1.244-.196-.254-.41-.447-.606-.701-.455-.526-.994-1.109-1.47-1.674a74.245 74.245 0 01-.933-1.092c-.432-.486-.887-1.012-1.342-1.538a74.25 74.25 0 01-.931-1.091c-.388-.408-.736-.837-1.123-1.245-.326-.39-.63-.74-.994-1.108a90 90 0 01-.955-1.131c-.454-.526-.931-1.091-1.386-1.617-.388-.408-.758-.877-1.145-1.284-.349-.43-.713-.798-1.061-1.227a35.495 35.495 0 00-1.449-1.635c-.736-.837-1.471-1.674-2.184-2.471-.28-.311-.584-.662-.865-.973-.5-.605-1.016-1.148-1.493-1.714l-1.297-1.459c-.561-.622-1.061-1.227-1.538-1.793-.41-.446-.78-.916-1.168-1.323-.477-.565-.91-1.052-1.257-1.481a55.46 55.46 0 01-1.342-1.539c-.326-.39-.522-.644-.545-.684l21.931-20.266 28.051-8.271z" fill="#E0BEA2"/><path d="M65.552 624.4L.714 587.85s71.562 17.275 77.103 28.71c5.542 11.436-1.397 11.816-1.397 11.816L65.552 624.4z" fill="#B7C2B4"/><path d="M118.403 598.991c.067.118.118.299.185.417l.554 1.254c.296.615.531 1.214.828 1.829l.621 1.372.553 1.254c.14.339.302.717.482 1.033.207.458.391.875.598 1.333.068.118.118.299.185.418.045.079.09.158.072.22.118.299.156.643.194.987-.007.631-.156 1.29-.535 1.818-.3.484-.747.894-1.345 1.128-.536.252-1.072.504-1.648.778a355.476 355.476 0 00-49.615 28.172c-.293.219-.57.376-.864.595a3.225 3.225 0 01-4.415-.789c-1.89-2.69-3.719-5.364-5.609-8.054-1.01-1.413-.586-3.429.927-4.444a362.112 362.112 0 0149.018-28.304 262.138 262.138 0 015.441-2.561c.536-.252 1.1-.363 1.612-.287a3.775 3.775 0 011.7.603c.546.318.871.708 1.061 1.228z" fill="#E0BEA2"/><path d="M71.17 642.4l-.097.072c1.729 2.593 3.08 3.951 4.864 6.528.96 1.387 1.66 2.387 2.88 4.032 1.227 1.654 2.216 2.773 3.456 4.416 1.306 1.729 2.196 2.654 3.456 4.416 1.184 1.657 1.848 2.597 3.072 4.224 2.15 2.859 2.88 4.225 5.55 7.316 1.003 1.161 2.138 2.175 3.23 2.236.575.032 1.07.114 1.739 0 .604-.104 1.49-.497 1.49-.497s2.29-.827 3.726-1.435c2.104-.891 3.228-1.516 5.271-2.539 5.046-2.527 8.687-4.199 12.668-6.955 2.315-1.603 4.26-2.345 4.535-5.23.384-4.032-.959-8.804-2.112-13.248-.369-1.422-.588-3.954-.96-5.376-.342-1.304-.601-3.654-.768-4.992-.192-1.536-1.152-4.032-1.536-5.184-.794-2.382-1.05-2.719-1.92-5.074-.346-.936-.665-1.285-1.006-2.222-.282-.772-.487-1.627-.722-2.688-.384-1.728-.576-2.688-.834-4.451-.069-.474-.317-1.228-.51-1.117-.514.293-1.712.838-2.806 1.381-1.841.912-2.831 1.514-4.705 2.359-.914.412-1.455.576-2.36 1.008-1.095.522-1.679.874-2.732 1.476-2.402 1.374-3.529 2.506-5.948 3.85-1.851 1.029-3.037 1.327-4.87 2.387-2.138 1.235-3.13 2.25-5.203 3.588-1.01.651-1.603.972-2.608 1.629-1.485.969-2.25 1.611-3.726 2.594-2.047 1.363-3.239 2.063-5.212 3.531a1663.004 1663.004 0 00-5.302 3.965z" stroke="#B29172" stroke-width="1.92" stroke-linecap="round" stroke-linejoin="round"/><path d="M81.837 640.12s6.373 10.598 4.965 17.143l20.142-7.393s-4.167-18.223-6.73-20.166L81.837 640.12z" fill="#EFEDEA"/><path d="M90.934 642.905c-.514.291-.065 1.082.448.79.514-.291.066-1.082-.448-.79zm3.941-2.077c-.514.291-.066 1.082.448.791.514-.291.065-1.082-.448-.791zm2.785 1.138c-.168-.113-.552-.053-.643.155-1.05 2.477-3.776 3.656-6.326 2.75-.58-.194-.819.673-.24.867 2.883 1.031 6.167-.36 7.343-3.168.13-.231.097-.474-.134-.604z" fill="#45846C"/><path d="M60.783 625.957c-1.336-2.474-3.288-3.652-5.537-5.853-1.212-1.186-1.856-1.894-3.165-2.971-1.626-1.338-2.688-1.892-4.43-3.076-1.352-.92-2.13-1.406-3.48-2.33-1.554-1.063-2.32-1.82-3.947-2.768-1.127-.657-2.042-.91-2.98-1.512a105.11 105.11 0 00-3.146-1.934c-2.516-1.503-3.942-2.323-6.539-3.683-2.436-1.275-3.87-1.855-6.328-3.085-1.647-.823-2.583-1.26-4.202-2.135a81.003 81.003 0 01-3.472-1.978 66.934 66.934 0 01-2.926-1.819c-1.258-.829-1.998-1.253-3.156-2.215-1.06-.882-2.312-.68-2.963-1.887-.187-.346-.384-.96-.35-.944.034.017.43.364.734.56.74.48 1.29.485 2.096.847 1.538.691 2.257 1.369 3.797 2.056 1.395.624 2.226.858 3.674 1.345a66.96 66.96 0 004.043 1.231c3.22.891 5.091 1.119 8.35 1.854 3.043.687 4.752 1.062 7.787 1.785 2.331.554 3.652.814 5.96 1.459 1.4.391 2.157.716 3.568 1.072 1.224.309 1.92.455 3.164.668" stroke="#45846C" stroke-width="1.92" stroke-linecap="round" stroke-linejoin="round"/><path d="M41.376 599.079c-3.283-.372-24.937-17.224-26.632-18.844 4.927-.422 7.69-.322 12.616.604m-16.254-19.058c1.981 2.724 3.367 5.226 5.924 8.264 1.505 1.789 2.418 2.733 4.058 4.399 1.69 1.717 2.692 2.627 4.473 4.25a136.04 136.04 0 004.605 4.029c1.593 1.343 2.568 2 4.132 3.376 1.785 1.57 2.686 2.559 4.4 4.207 1.617 1.556 2.676 2.288 4.131 3.998 1.205 1.418 1.6 2.431 2.784 3.866 1.41 1.706 2.086 2.864 3.94 4.072 1.801 1.175 3.148 1.165 5.154 1.941a209.28 209.28 0 015.183 2.058c3.896 1.61 6.1 2.488 9.864 4.384 1.737.875 2.616 1.559 4.398 2.34 1.373.602 2.166.895 3.6 1.333" stroke="#45846C" stroke-width="1.92" stroke-linecap="round" stroke-linejoin="round"/><path d="M10.306 561.248c1.96.368 3.157 1.371 4.799 2.192 1.945.973 3.877 1.821 5.716 2.992 2.596 1.652 4.926 2.821 8.087 4.62 2.883 1.642 5.086 2.597 7.39 4.192 1.555 1.077 3.256 2.169 4.932 3.006 1.366.683 2.958 1.887 4.398 2.207.678.151 1.02.518 1.733.518.867 0 1.74-.032 2.607 0 1.338.05 3.672.884 4.71 1.733 2.057 1.683 3.7 3.916 5.005 6.265.732 1.318 2.361 2.164 3.54 3.08 1.55 1.206 3.249 2.168 4.665 3.584 1.229 1.229 3.186 1.617 4.383 2.814 1.143 1.143 2.206 2.239 3.347 3.318 1.29 1.217 2.731 2.036 3.6 3.598.657 1.184 1.578 2.337 1.999 3.599" stroke="#45846C" stroke-width="1.92" stroke-linecap="round" stroke-linejoin="round"/><path d="M58.189 586.962c-1.131-3.327-3.57-5.737-4.995-8.905-.938-2.085-2.38-3.812-3.15-6.003-.985-2.799-2.198-5.665-2.733-8.607-.46-2.525-.649-4.962-.649-7.522 0-.256-.062-1.969.376-1.844.073.021.24.446.316.538.323.395.534.722.922 1.076.784.715 1.38 1.549 2.228 2.186.882.661 1.646 1.372 2.425 2.151.64.641 1.128 1.411 1.76 2.066.358.373.887 1.346.614.427-.85-2.859-1.311-5.885-2.032-8.768-.187-.746-.459-1.543-.692-2.289-.16-.513-.106-1.102-.222-1.622-.04-.178.295.841.606 1.153.846.845 1.897 1.633 2.886 2.305.592.401 1.143.884 1.657 1.383.6.583 1.419 1.049 1.912 1.725.486.664 1.18 1.17 1.7 1.819.689.861 1.439 1.746 2.22 2.527 1.07 1.071 1.803 2.503 2.766 3.68.97 1.185 1.528 2.605 2.263 3.928.212.382.486.728.768 1.041.267.297.355.772.58 1.11" stroke="#45846C" stroke-width="1.92" stroke-linecap="round" stroke-linejoin="round"/><path d="M63.648 544.743c-.99 2.387-1.152 4.864-.546 7.895.395 1.973 1.055 2.96 1.863 4.803.964 2.198 1.707 3.335 2.754 5.495 1.84 3.793 2.925 5.902 4.484 9.819.83 2.083 1.283 3.258 1.982 5.388.621 1.893.899 2.978 1.437 4.896 1.017 3.626 1.412 5.705 2.395 9.34.432 1.598.72 2.481 1.13 4.085.406 1.582.603 2.477.959 4.071.322 1.441.53 2.244.785 3.699.229 1.307.363 2.043.479 3.366.104 1.186.103 1.856.12 3.046.008.634 0 1.624 0 1.624m-17.722-67.535c2.165 3.022 3.24 4.841 4.843 8.196 1.649 3.45 1.732 5.742 3.406 9.18.91 1.869 1.54 2.857 2.581 4.656.93 1.606 1.399 2.542 2.448 4.072.918 1.338 1.558 1.998 2.528 3.299 1.05 1.409 1.618 2.63 2.634 3.646m22.826-52.399a35.928 35.928 0 01-2.775 1.449c-.97.459-1.722.887-2.775 1.541-1.663 1.035-2.566 1.683-4.038 2.976-3.426 3.008-5.044 5.207-7.06 9.295-.965 1.956-1.31 3.144-2.005 5.211-.949 2.821-1.356 4.448-2.004 7.353-1.123 5.037-1.52 7.937-1.819 13.088-.211 3.63-.315 5.687-.015 9.311.38 4.619 1.228 7.131 2.235 11.655.508 2.283.779 3.568 1.387 5.827.633 2.35.95 3.686 1.804 5.966.62 1.656.937 2.606 1.6 4.246.456 1.131.768 1.92 1.313 2.829" stroke="#45846C" stroke-width="1.92" stroke-linecap="round" stroke-linejoin="round"/><path d="M104.929 525.35c-.832 2.132-1.971 4.081-2.885 6.139-.537 1.208-1.095 2.651-1.449 4.44-.707 3.565-1.04 5.966.416 9.296.613 1.403.966 2.281 2.096 3.314.301.275.817.648.817.648s.195-.476.34-.771c.506-1.035.802-1.671 1.664-2.436.382-.338 1.064-.755 1.064-.755s.422 1.569.625 2.59c.34 1.705.323 2.695.576 4.416.593 4.029 1.242 6.234 1.912 10.251.753 4.518 1.296 7.044 1.68 11.608.388 4.615.57 7.233.278 11.855-.131 2.065-.241 3.224-.54 5.272a52.372 52.372 0 01-.848 4.579" stroke="#45846C" stroke-width="1.92" stroke-linecap="round" stroke-linejoin="round"/><path d="M61.345 631.912c-1.18-1.304-1.344-1.728-2.496-3.072 1.536-1.152 2.154-2.005 3.886-3.256 3.462-2.502 5.525-3.671 9.17-5.96 4.817-3.027 7.52-4.566 12.48-7.68 2.027-1.274 5.76-3.456 5.76-3.456s3.565-2.085 5.376-3.073l14.784-7.68c1.533-.596 2.932-1.706 4.608-1.536 1.822.186 2.389 1.288 3.265 2.688.96 1.536 1.804 3.034 2.304 4.032l1.92 3.841c.576 1.152.545 2.319-.192 2.688-2.304 1.152-5.097 2.132-8.065 3.648-4.784 2.443-7.606 3.629-12.249 6.331-4.94 2.874-7.82 4.292-12.758 7.172-3.966 2.314-6.246 3.526-10.079 6.055-3.248 2.144-5.274 4.082-8.114 5.786-.206.123-2.688 1.92-2.688 1.92s-1.103-1.471-1.536-1.92c-1.527-1.581-2.274-2.701-3.648-4.416-.637-.794-1.045-1.358-1.728-2.112z" stroke="#B29172" stroke-width="1.92" stroke-linecap="round" stroke-linejoin="round"/><path d="M396.354 570.155c1.093-1.32 1.285-1.086.062-1.49-.535-.177-2.331.291-3.374.773-1.016.47-.226 2.035-1.433 2.576-.707.317-1.099.21-1.857.05-.58-.123-1.62-.312-2.178-.172-1.121.282-1.712.716-2.512 1.55-.954.994-1.036 3.036-2.018 4.002-1.103 1.083-2.115 1.201-3.29 1.255-2.909.134-3.995-1.962-6.47-1.146-2.565.846-2.782 3.489-3.259 5.729-.505 2.366-2.711 3.091-5.302 3.772-2.799.735-5.956.641-6.231 3.521-.147 1.541-.801.301 0 1.625.385.637-.177 1.144.269 1.74.544.729.848.984 1.521 1.595.748.679 1.273.993 2.235 1.301.749.239 1.207.271 1.993.282 1.406.021 2.297-.067 3.52-.762 1.183-.673 1.419-1.171 2.111-2.343.595-1.009.866-1.761.902-2.954.061-2.008 2.512-3.447 4.438-3.388 2.405.072 6.778.051 6.883-3.435a8.147 8.147 0 011.12-3.918c.266-.448.38-1.05.903-1.479.468-.382.853-.415 1.433-.583 1.132-.328 2.04-.262 3.009-.232 1.316.039 1.879-.154 2.538-1.379.206-.382.36-1.195.372-1.616.018-.578.241-.887.396-1.373.235-.738 1.412-1.594 2.071-1.979.722-.421 1.596-.854 2.148-1.522z" fill="#C8BFB6"/><path d="M397.516 570.842c1.052-1.353.134-2.352-1.101-2.719-.54-.161-1.609-.027-2.637.487-1.001.5-1.32 2.186-2.51 2.764-.696.338-1.092.242-1.854.105-.584-.105-1.629-.262-2.182-.105-1.113.315-1.69.767-2.465 1.625-.923 1.022-.13 2.526-1.083 3.521-1.069 1.116-2.078 1.265-3.251 1.355-2.902.221-4.289-1.65-6.739-.759-2.538.923-2.772 3.828-3.182 6.082-.433 2.38-3.22 2.586-5.79 3.345-2.774.819-6.313 1.176-6.501 4.063-.1 1.545.243 2.222 1.084 3.521.404.625.891 1.043 1.354 1.626.566.712.878.957 1.569 1.548.768.656 1.302.954 2.273 1.232.756.217 1.215.235 2 .223 1.407-.023 2.295-.137 3.496-.869 1.162-.708 1.383-1.213 2.039-2.405.565-1.027.813-1.787.813-2.98 0-2.01 2.406-3.521 4.334-3.521 2.405 0 6.776-.153 6.776-3.641 0-1.374.331-2.746 1-3.951.253-.455.348-1.061.858-1.505.456-.396.84-.441 1.415-.626 1.121-.362 2.031-.323 3-.323 1.317 0 1.873-.211 2.496-1.455.194-.388.323-1.205.323-1.627 0-.578.213-.894.353-1.384.213-.744 1.364-1.636 2.011-2.041.709-.442 1.569-.902 2.101-1.586z" stroke="#B29172" stroke-width="1.625" stroke-linecap="round" stroke-linejoin="round"/><path d="M353.616 604.15c10.007-10.595 28.714-23.837 28.714-23.837s-18.962 11.647-34.131 27.629c-12.174 12.827-36.027 39.82-36.027 39.82v5.959s12.467-16.508 21.128-26.817c7.573-9.014 15.711-17.878 20.316-22.754z" fill="#E7DDC8"/><circle r=".813" transform="matrix(-1 0 0 1 373.39 593.044)" fill="#C5DF86"/><circle r=".813" transform="matrix(-1 0 0 1 371.765 602.796)" fill="#C5DF86"/><circle r=".813" transform="matrix(-1 0 0 1 370.14 599.545)" fill="#C5DF86"/><circle r=".813" transform="matrix(-1 0 0 1 360.93 596.836)" fill="#C5DF86"/><circle r=".813" transform="matrix(-1 0 0 1 362.556 588.71)" fill="#C5DF86"/><circle r=".813" transform="matrix(-1 0 0 1 357.68 587.085)" fill="#C5DF86"/><circle r=".813" transform="matrix(-1 0 0 1 360.389 583.834)" fill="#B29172"/><circle r=".813" transform="matrix(-1 0 0 1 364.723 582.209)" fill="#C5DF86"/><circle r=".813" transform="matrix(-1 0 0 1 368.515 586.543)" fill="#C5DF86"/><circle r=".813" transform="matrix(-1 0 0 1 372.307 585.459)" fill="#C5DF86"/><circle r=".542" transform="matrix(-1 0 0 1 373.661 599.816)" fill="#619482"/><circle r=".542" transform="matrix(-1 0 0 1 368.786 592.231)" fill="#C5DF86"/><circle r=".542" transform="matrix(-1 0 0 1 366.619 588.981)" fill="#C5DF86"/><circle r=".542" transform="matrix(-1 0 0 1 366.619 595.482)" fill="#619482"/><circle r=".542" transform="matrix(-1 0 0 1 362.284 591.69)" fill="#C5DF86"/><circle r=".542" transform="matrix(-1 0 0 1 364.993 585.188)" fill="#619482"/><circle r=".542" transform="matrix(-1 0 0 1 355.242 590.606)" fill="#619482"/><circle r=".542" transform="matrix(-1 0 0 1 356.867 594.94)" fill="#B29172"/><circle r=".542" transform="matrix(-1 0 0 1 360.117 599.274)" fill="#C5DF86"/><circle r=".542" transform="matrix(-1 0 0 1 362.826 601.983)" fill="#B29172"/><circle r=".542" transform="matrix(-1 0 0 1 366.077 599.816)" fill="#C5DF86"/><circle r=".542" transform="matrix(-1 0 0 1 367.702 602.525)" fill="#619482"/><path d="M360.633 525.192c.664-1.58.367-1.642 1.292-.745.405.392.822 2.201.877 3.349.054 1.117-1.698 1.142-1.619 2.463.046.773.323 1.071.816 1.668.378.457 1.026 1.292 1.16 1.851.27 1.125.159 1.849-.21 2.945-.439 1.305-2.211 2.324-2.612 3.641-.449 1.479-.085 2.431.411 3.498 1.229 2.639 3.589 2.631 4.012 5.203.438 2.665-1.804 4.081-3.568 5.542-1.863 1.543-1.484 3.833-.887 6.446.644 2.82 2.19 5.575-.236 7.153-1.298.843.105.849-1.44.752-.743-.046-.932.686-1.666.568-.898-.145-1.265-.296-2.119-.61-.947-.348-1.469-.668-2.187-1.378-.559-.553-.8-.944-1.174-1.635-.669-1.238-1.004-2.068-.954-3.473.048-1.36.38-1.8 1.099-2.956.618-.995 1.159-1.583 2.2-2.168 1.752-.984 1.891-3.822.947-5.503-1.177-2.097-3.184-5.983-.143-7.691 1.197-.673 2.232-1.633 2.954-2.806.274-.444.755-.824.892-1.486.123-.592-.027-.948-.146-1.54-.234-1.155-.713-1.929-1.188-2.775-.645-1.148-.734-1.736.047-2.888.243-.359.892-.872 1.259-1.078.505-.283.675-.624 1.034-.986.545-.55.759-1.99.795-2.752.039-.835.018-1.81.354-2.609z" fill="#C8BFB6"/><path d="M359.486 524.48c.711-1.559 2.022-1.209 2.92-.284.392.404.769 1.414.79 2.563.02 1.119-1.327 2.182-1.288 3.504.023.774.291 1.081.766 1.692.363.469.987 1.323 1.104 1.886.235 1.132.102 1.852-.299 2.937-.479 1.291-2.179 1.286-2.62 2.591-.494 1.464-.158 2.427.305 3.508 1.148 2.675 3.449 3.038 3.794 5.621.357 2.678-2.109 4.231-3.917 5.637-1.909 1.487-.8 4.052-.283 6.681.558 2.839 1.881 6.141-.591 7.644-1.322.804-2.081.813-3.622.67-.742-.069-1.337-.307-2.068-.447-.893-.172-1.255-.335-2.099-.674-.937-.377-1.449-.713-2.145-1.444-.542-.569-.77-.967-1.123-1.67-.632-1.257-.942-2.097-.849-3.5.089-1.358.434-1.788 1.187-2.921.648-.976 1.207-1.548 2.265-2.1 1.781-.931 2.006-3.764 1.114-5.472-1.114-2.132-3.003-6.077.089-7.692a8.143 8.143 0 003.037-2.716c.287-.436.78-.8.937-1.458.14-.588.002-.948-.1-1.544-.198-1.162-.654-1.95-1.103-2.809-.61-1.167-.681-1.758.134-2.885.254-.352.918-.845 1.292-1.04.512-.268.693-.603 1.062-.954.562-.534.819-1.966.878-2.727.064-.833.073-1.809.433-2.597z" stroke="#B29172" stroke-width="1.625" stroke-linecap="round" stroke-linejoin="round"/><path d="M351.449 579.771c4.756-13.776 6.676-37.445 6.676-37.445s-.078 23.1-7.218 43.946c-5.73 16.73-13.544 35.485-13.544 35.485l-5.418 4.605s3.543-6.511 8.669-18.961c4.481-10.887 8.646-21.291 10.835-27.63z" fill="#E7DDC8"/><circle cx="361.327" cy="518.037" r="1.625" transform="rotate(62.412 361.327 518.037)" fill="#C5DF86"/><circle cx="350.982" cy="556.145" r=".813" transform="rotate(62.412 350.982 556.145)" fill="#C5DF86"/><circle cx="347.785" cy="553.536" r=".813" transform="rotate(62.412 347.785 553.536)" fill="#B29172"/><circle cx="343.092" cy="562.101" r=".813" transform="rotate(62.412 343.092 562.101)" fill="#C5DF86"/><circle cx="346.725" cy="562.036" r=".813" transform="rotate(62.412 346.725 562.036)" fill="#C5DF86"/><circle cx="353.391" cy="568.944" r=".813" transform="rotate(62.412 353.391 568.944)" fill="#C5DF86"/><circle cx="359.841" cy="563.74" r=".813" transform="rotate(62.412 359.841 563.74)" fill="#C5DF86"/><circle cx="363.54" cy="567.309" r=".813" transform="rotate(62.412 363.54 567.309)" fill="#C5DF86"/><circle cx="365.166" cy="563.403" r=".813" transform="rotate(62.412 365.166 563.403)" fill="#B29172"/><circle cx="364.599" cy="558.809" r=".813" transform="rotate(62.412 364.599 558.809)" fill="#C5DF86"/><circle cx="359.002" cy="557.455" r=".813" transform="rotate(62.412 359.002 557.455)" fill="#C5DF86"/><circle cx="358.206" cy="553.592" r=".813" transform="rotate(62.412 358.206 553.592)" fill="#C5DF86"/><circle cx="344.855" cy="559.041" r=".542" transform="rotate(62.412 344.855 559.041)" fill="#619482"/><circle cx="353.835" cy="559.849" r=".542" transform="rotate(62.412 353.835 559.849)" fill="#C5DF86"/><circle cx="357.719" cy="560.265" r=".542" transform="rotate(62.412 357.719 560.265)" fill="#C5DF86"/><circle cx="351.957" cy="563.276" r=".542" transform="rotate(62.412 351.957 563.276)" fill="#619482"/><circle cx="357.326" cy="565.36" r=".542" transform="rotate(62.412 357.326 565.36)" fill="#C5DF86"/><circle cx="361.833" cy="559.949" r=".542" transform="rotate(62.412 361.833 559.949)" fill="#619482"/><circle cx="361.548" cy="571.101" r=".542" transform="rotate(62.412 361.548 571.101)" fill="#619482"/><circle cx="356.954" cy="571.667" r=".542" transform="rotate(62.412 356.954 571.667)" fill="#B29172"/><circle cx="351.607" cy="570.794" r=".542" transform="rotate(62.412 351.607 570.794)" fill="#C5DF86"/><circle cx="347.952" cy="569.647" r=".542" transform="rotate(62.412 347.952 569.647)" fill="#B29172"/><circle cx="348.367" cy="565.763" r=".542" transform="rotate(62.412 348.367 565.763)" fill="#C5DF86"/><circle cx="345.214" cy="565.577" r=".542" transform="rotate(62.412 345.214 565.577)" fill="#619482"/><circle cx="345.041" cy="555.887" r=".542" transform="rotate(62.412 345.041 555.887)" fill="#C5DF86"/><path d="M327.691 675.924H174.369c-11.011 0-19.46-9.701-18.075-20.579l9.211-70.953c1.177-9.077 8.933-15.867 18.074-15.867h131.508c8.864 0 16.412 6.305 17.936 15.036l12.604 70.952c2.008 11.156-6.579 21.411-17.936 21.411z" fill="#4A5759"/><path d="M342.693 636.557l-.006-.05-.045-.355-.164-1.32-.558-4.474-1.429-11.466a295.942 295.942 0 01-.709-6.376c-.376-3.634-.716-6.925-1.51-11.422-.591-3.343-1.205-5.575-1.839-7.877l-.123-.45c-.673-2.449-1.376-5.094-2.129-9.408-1.622-9.297-9.662-16.01-19.094-16.01-1.752 0-4.127.223-6.9.483-.967.091-1.983.186-3.038.278-4.13.36-8.982.685-14.232.554-4.377-.109-9.04-.585-13.846-1.075l-1.694-.173c-5.378-.543-10.897-1.051-16.232-1.007-6.353-.011-11.438.256-16.38.516l-1.429.075c-5.401.281-10.774.52-17.658.35-3.072-.076-7.007-.194-10.176-.292a7910.506 7910.506 0 01-5.142-.164l-.315-.011-.082-.002-.02-.001h-.007 0l-.039 1.175.039-1.175-.031-.001h-.031l-24.306.47c-4.074 0-8.014.054-12.085 2.931-5.119 3.618-6.481 8.85-7.144 13.961-.288 2.223-.423 4.224-.556 6.205l-.06.893c-.157 2.283-.344 4.608-.79 7.361-.525 3.242-1.254 5.713-1.999 8.24l-.023.077c-.754 2.556-1.522 5.175-2.057 8.618-.519 3.335-.689 5.964-.803 8.573-.024.545-.045 1.087-.067 1.634-.082 2.074-.166 4.212-.397 6.797a613.536 613.536 0 01-2.459 22.557c-.725 5.698-.487 12.127 4.546 17.084 3.679 3.624 7.453 4.191 11.871 4.856.849.127 1.721.259 2.622.416 3.901.681 6.956.353 9.939-.15a136.08 136.08 0 001.792-.317c2.363-.426 4.742-.856 7.665-.927 3.679-.088 6.546.145 9.438.461.665.072 1.333.149 2.014.228 2.281.263 4.708.543 7.613.72l3.003.185c5.75.356 9.709.601 16.205.757 3.807.092 6.766-.077 9.702-.302.631-.048 1.259-.099 1.893-.15 2.32-.187 4.721-.381 7.642-.488 3.672-.135 6.537.05 9.436.295.483.04.968.083 1.458.126 2.453.215 5.041.442 8.199.519 3.542.087 6.356.031 9.102-.023l.534-.011c2.916-.057 5.81-.102 9.515.034 4.89.179 8.398.126 12.296.066 2.099-.032 4.311-.065 6.913-.065 3.808 0 8.644-.357 12.504-.71a298.674 298.674 0 006.28-.648l.386-.045.066-.008c5.831-.017 11.56-2.13 15.136-6.302 3.681-4.295 4.952-10.567 3.886-16.492-.516-2.865-1.547-7.33-2.442-11.055a555.883 555.883 0 00-1.533-6.232l-.099-.394-.017-.067z" stroke="#83A096" stroke-width="2.351"/><path d="M313.633 641.972H189.258a7.597 7.597 0 01-7.617-7.622v-42.959a7.597 7.597 0 017.617-7.622h124.375a7.598 7.598 0 017.618 7.622v42.959c-.07 4.227-3.463 7.622-7.618 7.622z" fill="#B7C2B4"/><path d="M232.263 648.485h41.274c1.316 0 1.316-2.079 0-2.079h-41.274c-1.385 0-1.385 2.079 0 2.079zm-.693 5.266c1.316 0 1.316-2.079 0-2.079-1.385 0-1.385 2.079 0 2.079zm5.54 0h38.504c1.316 0 1.316-2.079 0-2.079H237.11c-1.315 0-1.315 2.079 0 2.079z" fill="#F9F6EF"/><path d="M290.457 640.36s15.189 23.089 13.845 37.117l38.966-15.256s-12.443-39.396-18.052-43.721l-34.759 21.86z" fill="#EFEDEA"/><path d="M306.581 633.463c2.395 2.28 4.206 5.085 5.199 8.242.351 1.052 2.045.584 1.694-.468-1.11-3.448-3.038-6.546-5.666-9.001-.818-.819-2.045.409-1.227 1.227z" fill="#83A096"/><path d="M307.458 634.34c.175-.351.175-.643.116-.994 0-.175-.058-.292-.116-.467 0 .058 0 .175.058.233v-.175c0 .059 0 .175-.058.234 0-.059 0-.117.058-.175-.058.058-.058.116-.117.233 0-.058.059-.116.117-.175-.058.059-.117.117-.117.175l.117-.117c-.058.059-.117.117-.175.117.058-.058.117-.117.233-.117-.058.059-.116.059-.233.117.117-.058.175-.058.292-.058-.059 0-.175 0-.234.058h.292c-.058 0-.175 0-.233-.058a.84.84 0 01.409.117c-.059-.059-.117-.059-.234-.117.233.117.467.234.642.351.409.233.994.117 1.227-.293.234-.409.117-.935-.292-1.227-.35-.234-.701-.468-1.11-.526-.233-.059-.409-.117-.642-.059-.293 0-.526.059-.76.176-.409.175-.701.584-.876.993-.117.293-.059.526 0 .819 0 .175.058.292.117.467 0-.058 0-.175-.059-.233v.175c0-.059 0-.175.059-.234v.117c.058-.058.058-.117.117-.234 0 0 0 .059-.059.059-.117.175-.175.467-.117.701.059.175.234.409.409.526.409.117.935.059 1.169-.409zm2.161 16.25c.76 1.052 1.577 2.045 2.337 3.097.292.351.759.585 1.227.293.467-.234.525-.76.292-1.228.058.117 0-.058-.059-.117 0-.058-.058-.175-.058-.233-.059-.117-.059-.293-.117-.41 0 0-.058-.233 0-.117v-.584c0-.468.175-1.052.351-1.461.058-.117.116-.234.233-.351.059-.117.059 0 0 0-.233.175-.467.175-.642.058l.058.059c.234.292.584.526.818.76.526.467 1.11.993 1.636 1.461.35.292.876.351 1.226 0 .351-.351.351-.935 0-1.227-.701-.643-1.402-1.228-2.103-1.871-.409-.351-.818-.818-1.402-.818s-.993.409-1.226.877c-.935 1.461-.935 3.331-.293 4.851.526-.292.994-.585 1.519-.877-.759-1.052-1.577-2.046-2.336-3.098-.293-.35-.76-.584-1.227-.292-.292.234-.526.877-.234 1.228zm7.186-2.339l1.752-1.929c.175-.175.234-.409.234-.643 0-.233-.117-.467-.234-.643-.175-.175-.409-.292-.643-.233-.233 0-.467.058-.642.233l-1.753 1.929c-.175.176-.233.41-.233.643 0 .234.116.468.233.643.176.176.409.293.643.234.292.059.526-.058.643-.234z" fill="#83A096"/><path d="M315.052 644.569c.993 1.695 2.044 3.39 3.213 5.027.233.35.759.584 1.227.292.35-.234.584-.818.292-1.228-1.11-1.636-2.162-3.331-3.213-5.026-.234-.409-.818-.585-1.227-.293-.409.293-.526.819-.292 1.228zm4.265 1.227c.408.585.876 1.169 1.285 1.812.117.176.292.351.526.409.233.059.467.059.701-.116.175-.117.35-.293.408-.526.059-.234.059-.468-.116-.702-.409-.584-.877-1.169-1.286-1.812-.116-.175-.292-.351-.525-.409-.234-.058-.468-.059-.701.117-.176.117-.351.292-.409.526 0 .234 0 .526.117.701zm-.527-2.162c1.11 0 1.11-1.754 0-1.754-1.109 0-1.109 1.754 0 1.754zm1.987-3.39c1.402 1.812 2.804 3.565 4.147 5.436.292.409.76.584 1.227.292.351-.234.584-.818.292-1.228-1.46-1.929-2.921-3.916-4.44-5.786-.292-.351-.934-.293-1.226 0-.351.409-.292.935 0 1.286zm-17.701 12.391a44.41 44.41 0 002.162 2.514c.35.409.759.76 1.11 1.169.35.35.759.76 1.168 1.052.935.643 2.22.292 2.746-.702.526-1.052.117-2.162-.351-3.156-.584-1.169-1.11-2.338-1.694-3.449-.233-.409-.818-.526-1.227-.292-.409.234-.525.76-.292 1.228.526 1.11 1.11 2.221 1.636 3.331.175.41.409.819.409 1.228 0 .117 0 .234-.117.409.059-.117-.058.058-.058.058.058-.058.058-.058 0 0 .058-.058.058-.058 0 0h.117c-.117-.058-.117-.058-.059 0-.058-.058-.175-.116-.234-.175.059 0-.175-.175-.175-.175-.117-.117-.233-.234-.35-.293-.409-.409-.76-.818-1.169-1.227-.818-.877-1.577-1.812-2.336-2.689-.293-.35-.935-.292-1.227 0-.468.293-.351.819-.059 1.169zm9.931 8.125c-.818-.175-1.694.117-2.22.76-.526.701-.701 1.461-.584 2.338.116.701.467 1.344.993 1.812.409.292.818.526 1.343.526.351 0 .76-.059 1.11-.175.468-.176.877-.351 1.227-.702.409-.351.584-.877.643-1.403a.899.899 0 00-.877-.876.898.898 0 00-.876.876v-.058.117c.059-.117.059-.117 0-.059 0 .059-.058.059-.058.117.058-.117.117-.117.058-.058l-.058.058c-.059.059-.059.059.058 0-.058 0-.058.059-.117.059-.058.058-.117.058-.233.117h-.059c-.117.058-.058.058.059 0-.117.116-.351.116-.468.175h-.292.059-.117c-.117-.059-.059 0 .058 0-.058 0-.058-.058-.117-.058-.058 0-.058-.059-.117-.059l.059.059s-.175-.117-.175-.176l-.059-.058c.059.117.117.117.059.058-.059-.058-.059-.117-.117-.175l-.117-.176c.058.117.058.117 0 .059 0-.059 0-.059-.058-.117 0-.058-.059-.175-.059-.234v-.526l.059-.234c-.059.117-.059.117 0 .059 0-.059.058-.059.058-.117 0-.059.058-.059.058-.117l-.058.058.117-.116.058-.059c-.117.058-.117.117-.058.059l.175-.117c-.117.058-.117.058-.058 0 .058 0 .058 0 .116-.059h-.058.234-.059c.468.117.993-.117 1.052-.584.117-.351-.117-.936-.584-.994zm1.051-.468c.701 1.052 1.344 2.163 2.045 3.215.584.935 2.103.059 1.519-.877a6.468 6.468 0 01-.876-2.162c-.117-.526-.292-1.462.292-1.812.467-.351.934.35 1.226.643.526.584.935 1.169 1.344 1.87.584.994 2.045.117 1.519-.877-.35-.643-.584-1.403-.701-2.162-.058-.41-.175-.76-.234-1.169 0-.176-.117-.351 0-.468.351-.292.993.351 1.227.584.526.527.935 1.169 1.285 1.871.234.409.818.526 1.227.292.409-.234.526-.76.292-1.227-.759-1.579-2.862-4.326-4.907-3.04-1.168.702-.935 1.871-.701 2.981.175 1.111.467 2.163.993 3.157.526-.293.993-.585 1.519-.877-.935-1.578-2.921-4.618-5.024-3.098-2.045 1.461-.993 4.559.058 6.313.526-.293.994-.585 1.519-.877-.701-1.052-1.343-2.163-2.044-3.215-.701-.877-2.22 0-1.578.935zm9.64-11.398c1.344 1.988 3.33 3.683 4.206 6.021l1.577-.702c-.701-.935-1.402-1.87-2.336-2.513-.993-.643-2.396-.994-3.33-.117-.993.877-.701 2.338-.175 3.39.525 1.052 1.343 2.28 2.687 2.28 1.577-.059 2.22-1.637 2.395-2.981.058-.468-.117-.935-.584-1.052-.409-.117-.993.117-1.052.584-.058.409-.175 1.871-.876 1.695-.409-.117-.643-.701-.818-.993-.234-.351-.467-.76-.467-1.228 0-.175.058-.409.233-.468.351-.116.818.176 1.052.351.759.468 1.344 1.228 1.811 1.988a.896.896 0 001.11.35c.35-.175.643-.643.526-1.052-.993-2.455-2.921-4.267-4.382-6.43-.292-.409-.759-.584-1.227-.292a.774.774 0 00-.35 1.169zm5.783 2.923c.351-.234.584-.468.876-.818.176-.234.409-.527.643-.702-.058.059-.117.117-.175.117l.35-.175c.175-.059.351-.351.409-.526.059-.234.059-.468-.117-.702-.117-.175-.292-.351-.525-.409-.059 0-.176 0-.234-.058-.175 0-.292.058-.467.116-.409.176-.702.468-.994.819-.233.292-.467.584-.759.818.058-.058.117-.117.175-.117l-.117.117c-.175.117-.35.292-.409.526-.058.234-.058.468.117.702.117.175.292.35.526.409.292.058.526.058.701-.117zm3.038-10.229c-.993.351-1.811 1.169-2.045 2.221-.233 1.169.234 2.221 1.052 3.039.467.468 4.031 3.624 2.921 4.326-.935.584-.059 2.104.876 1.52.876-.526 1.227-1.579.935-2.572-.292-1.052-1.11-1.929-1.811-2.747-.351-.41-.701-.76-1.11-1.17-.351-.35-.701-.642-.993-.993-.468-.702-.234-1.637.584-1.871 1.11-.467.642-2.162-.409-1.753z" fill="#83A096"/><path d="M333.161 648.31c.468-.409.994-.818 1.461-1.286.175-.117.234-.409.234-.643 0-.234-.117-.468-.234-.643-.175-.175-.409-.292-.643-.234-.058 0-.175 0-.233.059a.942.942 0 00-.409.233c-.468.41-.993.819-1.461 1.286-.175.117-.233.41-.233.643 0 .234.116.468.233.643.175.176.409.293.643.234.058 0 .175 0 .234-.058a.94.94 0 00.408-.234z" fill="#83A096"/><path d="M282.955 561.201c-.472 2.284-1.472 3.943-1.691 5.925.569 1.137 3.159.418 5.195.555 4.341.293 6.794.013 11.14-.185 4.008-.182 6.813-.74 10.246-.74.942 0 6.037-.027 6.017-.113-.208-.935-.043-1.77-.195-2.891-.207-1.528-.389-2.669-.885-3.847-.38-.903-1.718-.741-1.718-.741h-26.247c-.623 0-1.501-.312-1.501.463 0 .593-.233.957-.361 1.574z" stroke="#83A096" stroke-width="2.351" stroke-linecap="round" stroke-linejoin="round"/></svg>