<svg width="448" height="82" fill="none" xmlns="http://www.w3.org/2000/svg"><path d="M151.578 45.026c.462-1.99.812-3.976 1.351-5.955.284-.813 1.157-1.819 1.694-2.475 1.805-2.205 4.106-3.966 6.969-4.448 2.391-.403 4.559.063 6.809.856 1.913.675 3.26 2.354 4.442 3.922.552.733.882 1.581 1.227 2.425.449 1.099.899 2.182 1.207 3.33.486 1.812.634 3.828.284 5.676-.205 1.083-.503 2.199-.951 3.205-.337.756-1.014 1.818-.84 2.695.136.684.722.769 1.34.901.737.158 1.504.212 2.21.499.93.377 1.805.614 2.783.857.863.214 1.646.745 2.519.9 1.05.187 2.101.308 3.162.395 1.038.085 1.989-.223 2.883-.744.428-.25.903-.48 1.275-.813.383-.342.723-.732 1.108-1.074.497-.442 1.245-.837 1.927-.7 1.06.214 1.45 1.175 1.811 2.066l.02.05c.276.68.739 1.25.936 1.975.228.842.315 1.823.216 2.69-.184 1.606-.779 3.143-.944 4.755-.082.8-.344 1.549-.484 2.337-.156.882-.323 1.789-.6 2.642-.691 2.134-2.042 3.733-3.786 5.116-3.032 2.406-6.831 2.198-10.443 2.804-2.097.351-4.27.48-6.389.623-1.085.074-2.169-.016-3.25-.109-1.274-.109-2.543.107-3.814.137-2.303.055-4.557-.218-6.849-.342-1.905-.102-3.785-.295-5.681-.522-1.93-.232-4.108.023-5.809-1.078-2.147-1.39-3.676-3.097-4.27-5.623-.254-1.078-.398-2.165-.344-3.274.059-1.22.081-2.51.624-3.632.51-1.056 1.325-2.223 2.119-3.077.996-1.074 2.188-1.903 3.262-2.888.639-.586 1.185-1.26 1.823-1.85l.003-.003c.533-.494.515-.525.787-1.49.615-1.146.039-1.696-.584-2.68-.512-.808-.305-2.07-.195-2.971.207-1.69.054-3.44.442-5.108z" fill="#93BB94"/><path d="M171.46 38.194c-.79-1.58-1.804-2.935-2.915-4.293.307 0 .956-.174 1.225-.024.257.142.735.437.913.68.557.764 1.459 1.145 1.891 2.007.173.348.286.666.536.978.274.343.331.742.441 1.16.159.597.346 1.176.508 1.774.129.479.316.961.47 1.434.182.556.268 1.132.424 1.695.152.547.172 1.193.261 1.76.15.958-.244 1.93-.391 2.87-.073.463-.289.904-.355 1.368a4.707 4.707 0 01-.297 1.072c-.124.272-.124.653-.167.95-.046.326-.104.697-.224 1.01-.105.272-.146.597-.261.85-.069.154-.041.276-.134.428-.219.359-.612.56-.904.86-.861.43-1.816 1.088-2.863 1.193-1.232.123-2.242.715-3.518.715-.635 0-1.407-.107-2.028-.245-.385-.085-.835-.47-1.192-.47-.249 0-.305-.12 0-.12h.828c.414 0 1.001-.163 1.378-.33 1.067-.475 1.966-.85 2.863-1.697 1.351-1.276 2.555-2.739 3.392-4.413 1.061-2.122 1.648-4.664 1.319-7.037-.213-1.532-.51-2.795-1.2-4.175zm-26.325 27.76c.036-.254.085-.495.144-.727a10.08 10.08 0 00-.707 3.703c0 1.21.13 2.476.455 3.631.166.588.411 1.127.6 1.702.187.567.577.935.888 1.425.702 1.106 1.739 1.247 2.808 1.753.488.23 1.079.273 1.596.454.611.214 1.224.463 1.86.63 1.012.266 2.193.572 3.239.593 1.1.021 2.176.315 3.264.34 1.93.044 3.846.114 5.783.114h5.832c1.003 0 2.01-.097 3.023-.114.639-.01 1.594-.068 2.208-.252.779-.234 1.635-.25 2.436-.403.72-.138 1.562-.325 2.291-.366.923-.052 1.922-.31 2.832-.48 1.074-.2 2.141-.42 3.216-.63 1.523-.296 3.089-.867 4.403-1.702.976-.62 1.489-1.56 1.944-2.635.499-1.18.41-2.642.804-3.884.471-1.483.87-4.441 1.134-5.966.311.489.122-5.205 0-4.758-.15.554-.268 1.529-.51 2.037-.665 1.398-2.254 9.69-3.372 10.78-.954.932-2.139 1.598-3.215 2.352-1.147.803-2.545 1.087-3.834 1.538-.92.323-1.855.452-2.796.675-.95.225-1.886.492-2.849.656-.314.053-.606.206-.912.29-.67.181-1.523.107-2.208.138-1.681.076-3.388.32-5.063.34-2.191.027-4.399-.072-6.582-.22-1.962-.133-3.932-.204-5.885-.46-2.806-.369-5.69-.422-8.423-1.16-1.085-.293-2.137-1.2-2.91-2.011a5.55 5.55 0 01-1.404-2.9c-.214-1.466-.298-3.002-.09-4.483z" fill="#6F9570"/><path d="M150.292 45.026c.462-1.99.812-3.976 1.351-5.955.284-.813 1.158-1.819 1.695-2.475 1.805-2.205 4.106-3.966 6.968-4.448 2.391-.403 4.559.063 6.809.856 1.913.675 3.26 2.354 4.442 3.922.553.733.882 1.581 1.227 2.425.449 1.099.9 2.182 1.208 3.33.486 1.812.633 3.828.284 5.676-.205 1.083-.503 2.199-.952 3.205-.336.756-1.014 1.818-.839 2.695.136.684.721.769 1.339.901.737.158 1.505.212 2.211.499.93.377 1.804.614 2.782.857.863.214 1.646.745 2.519.9 1.05.187 2.101.308 3.163.395 1.037.085 1.988-.223 2.882-.744.428-.25.904-.48 1.276-.813.382-.342.723-.732 1.107-1.074.497-.442 1.245-.837 1.927-.7 1.061.214 1.45 1.175 1.811 2.066l.02.05c.277.68.74 1.25.936 1.975.228.842.315 1.823.216 2.69-.184 1.606-.779 3.143-.944 4.755-.081.8-.344 1.549-.483 2.337-.157.882-.324 1.789-.6 2.642-.692 2.134-2.043 3.733-3.786 5.116-3.033 2.406-6.831 2.198-10.443 2.804-2.098.351-4.27.48-6.389.623-1.086.074-2.169-.016-3.251-.109-1.273-.109-2.542.107-3.814.137-2.303.055-4.556-.218-6.849-.342-1.904-.102-3.785-.295-5.681-.522-1.93-.232-4.107.023-5.809-1.078-2.146-1.39-3.675-3.097-4.27-5.623-.254-1.078-.398-2.165-.344-3.274.059-1.22.082-2.51.624-3.632.51-1.056 1.326-2.223 2.119-3.077.997-1.074 2.188-1.903 3.262-2.888.639-.586 1.185-1.26 1.823-1.85l.004-.003c.533-.494.514-.525.787-1.49.615-1.146.038-1.696-.585-2.68-.512-.808-.305-2.07-.195-2.971.207-1.69.055-3.44.442-5.108z" stroke="#83A984" stroke-width="2" stroke-linecap="round" stroke-linejoin="round"/><path d="M156.777 38.708c.371-.54.78-1.117 1.35-1.504.406-.106.797-.102 1.093.246.252.296.103.752-.019 1.07-.363.939-1.106 1.916-2.097 2.41-.206.104-.629.23-.807.01-.27-.334-.125-.818-.018-1.177l.003-.008c.114-.382.262-.71.495-1.047z" fill="#2E2E2E"/><path d="M150.126 41.435c.932.09 1.697-.183 2.603-.42.25.284.224.562.275.912.074.51.223.99.349 1.488.281 1.112.042 2.257.507 3.34.327.763.798 1.454.952 2.27.173.911-.167 1.922-.747 2.646-.32.398-.65.74-1.026 1.095-.375.354-.787.607-1.204.912-.671.49-.899-.141-1.375-.53-.708-.58-1.718-.975-2.646-1.084-.628-.074-1.179-.108-1.706-.473-.376-.262-.585-.421-.794-.827-.394-.767 1.055-1.568 1.656-1.681.497-.094 2.311-.2 1.961-.901-.291-.581-.886-1.113-1.387-1.535-.939-.791-1.224-1.895-1.702-2.939-.216-.471-.468-1.022-.569-1.526-.096-.482-.056-1.033-.009-1.518.023-.23.011-.868.343-.938.293-.06.602.127.862.21.353.114.562.283.826.531.293.276.685.483 1.07.625.539.2 1.188.288 1.761.343z" fill="#FE674A"/><path d="M150.5 50.538c.432.256.79.39 1.143.763-.14.295-.2.782-.421 1.016-.356.377-.803.28-1.263.064a14.766 14.766 0 00-1.804-.685c-.423-.133-.812-.406-1.249-.508-.479-.113-.954-.215-1.43-.336-.622-.158-1.217-.906-.719-1.55.475-.614 1.231-.644 1.921-.544.774.113 1.5.407 2.175.83.535.335 1.104.627 1.647.95z" fill="#E3473B"/><path d="M148.84 40.792c.932.09 1.697-.183 2.603-.42.251.284.224.561.275.912.074.51.223.99.349 1.488.281 1.112.043 2.257.507 3.34.327.763.798 1.454.952 2.27.173.911-.167 1.922-.747 2.646-.319.398-.65.74-1.026 1.095-.375.354-.787.607-1.204.912-.671.49-.899-.141-1.375-.53-.708-.58-1.718-.975-2.646-1.084-.628-.075-1.179-.108-1.706-.473-.376-.262-.585-.421-.794-.827-.394-.767 1.055-1.568 1.656-1.681.497-.094 2.312-.2 1.961-.901-.291-.581-.886-1.113-1.387-1.535-.939-.791-1.224-1.895-1.702-2.94-.216-.47-.468-1.021-.569-1.525-.096-.482-.056-1.033-.009-1.518.023-.23.011-.868.343-.938.293-.06.602.127.862.21.353.114.563.282.826.531.293.276.685.483 1.07.625.539.2 1.188.288 1.761.343z" stroke="#E3473B" stroke-width="2" stroke-linecap="round" stroke-linejoin="round"/><path d="M159.179 66.595c-.912 2.18-1.797 4.968-.314 7.089.191.264.458.34.72.531.511.376.968.822 1.509 1.152 1.463.892 3.05 1.571 4.736 1.869 3.005.53 6.232.725 9.073-.569 1.697-.773 3.401-1.713 4.743-3.064.578-.584 1.026-1.306 1.538-1.95.539-.68 1.127-1.319 1.68-1.986.971-1.172 1.834-2.478 2.415-3.907.261-.644.814-2.278.035-2.798-.379-.253-1.212.023-1.624.088a27.05 27.05 0 01-1.63.2c-1.434.138-2.856.32-4.295.398-1.906.105-3.783-.202-5.682-.302-1.813-.097-3.598-.155-5.413-.111-1.464.035-2.821.183-4.23.613-.698.213-1.263.43-1.866.864-.714.515-1.048 1.052-1.395 1.883z" fill="#5F8260"/><path d="M159.179 64.024c-.912 2.18-1.797 4.968-.314 7.089.191.264.458.34.72.532.511.375.968.822 1.509 1.152 1.463.891 3.05 1.57 4.736 1.868 3.005.53 6.232.725 9.073-.569 1.697-.773 3.401-1.712 4.743-3.064.578-.584 1.026-1.305 1.538-1.95.539-.68 1.127-1.318 1.68-1.986.971-1.171 1.834-2.478 2.415-3.907.261-.644.814-2.278.035-2.798-.379-.253-1.212.023-1.624.088a27.05 27.05 0 01-1.63.2c-1.434.138-2.856.32-4.295.399-1.906.104-3.783-.202-5.682-.303-1.813-.096-3.598-.155-5.413-.111-1.464.036-2.821.183-4.23.613-.698.213-1.263.43-1.866.864-.714.515-1.048 1.052-1.395 1.883z" fill="#6F9570" stroke="#83A984" stroke-linecap="round" stroke-linejoin="round"/><path d="M417.562 55.925c.317-1.364.557-2.724.926-4.08.195-.557.793-1.246 1.161-1.696 1.237-1.51 2.814-2.717 4.775-3.048 1.638-.276 3.124.044 4.665.587 1.311.462 2.234 1.613 3.044 2.687.378.502.604 1.084.841 1.662.307.752.616 1.495.827 2.282.333 1.24.434 2.622.195 3.888-.141.743-.345 1.507-.652 2.197-.231.517-.695 1.245-.576 1.846.094.47.495.527.918.618.505.108 1.031.145 1.515.341.637.259 1.236.42 1.907.587.591.147 1.127.511 1.725.618.72.128 1.44.21 2.167.27.711.058 1.363-.153 1.975-.51.294-.171.619-.329.874-.557.262-.234.496-.501.759-.736.341-.302.853-.573 1.32-.48.727.147.994.806 1.241 1.416l.014.034c.189.467.507.857.641 1.354.157.577.216 1.249.148 1.843-.126 1.1-.534 2.153-.646 3.258-.056.547-.236 1.061-.332 1.6-.107.605-.221 1.227-.411 1.811-.474 1.462-1.399 2.558-2.594 3.506-2.078 1.648-4.68 1.506-7.155 1.92-1.437.242-2.926.33-4.378.428-.744.05-1.486-.011-2.227-.075-.873-.074-1.742.073-2.613.094-1.579.038-3.123-.15-4.693-.234a59.672 59.672 0 01-3.893-.358c-1.322-.159-2.814.016-3.98-.739-1.471-.952-2.518-2.121-2.926-3.853-.174-.738-.272-1.483-.235-2.243.04-.836.055-1.72.427-2.488a9.212 9.212 0 011.452-2.109c.683-.735 1.499-1.303 2.235-1.978.438-.402.812-.863 1.249-1.268l.003-.002c.365-.338.352-.36.539-1.02.421-.786.026-1.163-.401-1.837-.351-.554-.209-1.419-.133-2.036.142-1.158.037-2.356.302-3.5z" fill="#93BB94"/><path d="M431.186 51.244c-.542-1.083-1.237-2.011-1.998-2.942.21 0 .655-.119.84-.016.175.097.503.3.625.466.382.523 1 .784 1.295 1.375.12.238.197.457.368.67.188.235.227.509.303.794.108.41.236.807.347 1.216.089.328.217.66.323.983.124.38.183.776.29 1.162.104.374.118.817.179 1.206.102.656-.168 1.321-.268 1.965-.05.318-.198.62-.244.938a3.17 3.17 0 01-.203.735c-.085.186-.085.447-.114.65a3.31 3.31 0 01-.154.693c-.072.186-.1.408-.179.583-.047.104-.028.188-.092.293-.15.245-.419.383-.619.589-.59.294-1.244.745-1.961.817-.845.084-1.537.49-2.411.49a6.85 6.85 0 01-1.389-.168c-.264-.059-.573-.322-.818-.322-.17 0-.209-.082 0-.082h.568c.284 0 .686-.112.944-.227.731-.325 1.347-.582 1.961-1.162.926-.874 1.751-1.877 2.325-3.024.727-1.454 1.129-3.196.903-4.822-.145-1.05-.349-1.915-.821-2.86zm-18.038 19.021c.025-.174.058-.34.099-.499a6.912 6.912 0 00-.485 2.538c0 .83.089 1.696.312 2.488.114.403.282.772.411 1.166.128.389.396.64.609.976.48.758 1.191.855 1.924 1.201.334.158.739.187 1.093.311.419.147.839.318 1.274.432.694.182 1.503.392 2.22.406.754.015 1.491.216 2.236.233 1.323.03 2.635.078 3.963.078h3.995c.688 0 1.378-.066 2.072-.078.438-.007 1.092-.046 1.513-.172.533-.16 1.12-.172 1.669-.277.493-.094 1.07-.222 1.57-.25.632-.036 1.317-.212 1.94-.329.736-.137 1.468-.288 2.204-.431 1.043-.204 2.116-.595 3.017-1.167.669-.425 1.02-1.069 1.332-1.806.341-.808.281-1.81.55-2.66.323-1.017.597-3.044.778-4.089.212.335.083-3.566 0-3.26-.103.38-.184 1.048-.35 1.396-.456.958-1.545 6.64-2.31 7.387-.654.638-1.466 1.094-2.203 1.61-.786.551-1.744.746-2.627 1.055-.63.22-1.271.31-1.916.462-.651.155-1.292.338-1.952.45-.215.036-.415.141-.625.198-.459.125-1.044.074-1.513.095-1.152.052-2.321.22-3.469.233a56.633 56.633 0 01-4.51-.15c-1.344-.092-2.694-.14-4.032-.316-1.923-.253-3.899-.289-5.771-.795-.744-.2-1.464-.821-1.994-1.378a3.803 3.803 0 01-.962-1.987c-.147-1.004-.205-2.057-.062-3.071z" fill="#6F9570"/><path d="M416.681 55.926c.317-1.364.557-2.724.926-4.08.195-.558.794-1.247 1.161-1.696 1.237-1.511 2.814-2.718 4.775-3.048 1.638-.276 3.124.043 4.665.587 1.311.462 2.234 1.612 3.044 2.687.379.502.605 1.083.841 1.662.307.752.616 1.494.827 2.281.333 1.241.434 2.623.195 3.889-.141.742-.345 1.507-.652 2.196-.231.518-.695 1.245-.576 1.847.094.469.495.526.918.617.505.108 1.031.145 1.515.342.637.258 1.236.42 1.907.587.591.147 1.127.51 1.726.617.719.128 1.439.21 2.166.27.711.058 1.363-.152 1.976-.51.293-.17.618-.328.873-.556.262-.235.496-.502.759-.736.341-.303.853-.574 1.321-.48.726.146.993.805 1.24 1.416l.014.034c.189.466.507.857.641 1.353.157.577.216 1.25.148 1.844-.125 1.1-.533 2.153-.646 3.257-.056.548-.236 1.062-.332 1.601-.107.605-.221 1.226-.411 1.811-.473 1.462-1.399 2.557-2.594 3.505-2.077 1.649-4.68 1.506-7.155 1.921-1.437.241-2.926.329-4.378.427-.744.051-1.486-.01-2.227-.074-.873-.075-1.742.073-2.613.094-1.578.038-3.122-.15-4.693-.234a59.742 59.742 0 01-3.893-.359c-1.322-.158-2.814.016-3.98-.738-1.471-.952-2.518-2.122-2.926-3.853-.174-.739-.272-1.483-.235-2.243.04-.836.056-1.72.427-2.489a9.212 9.212 0 011.452-2.108c.683-.736 1.499-1.304 2.235-1.979.438-.401.812-.863 1.249-1.268l.003-.002c.365-.338.352-.36.539-1.02.421-.786.026-1.163-.401-1.837-.35-.553-.209-1.419-.133-2.036.142-1.157.037-2.356.302-3.499z" stroke="#83A984" stroke-width="1.37" stroke-linecap="round" stroke-linejoin="round"/><path d="M421.125 51.596c.254-.37.534-.765.925-1.03.278-.073.546-.07.749.169.172.202.071.514-.013.732-.249.644-.758 1.313-1.437 1.652-.141.07-.431.157-.553.007-.185-.23-.085-.561-.012-.807l.002-.005c.078-.262.18-.486.339-.718z" fill="#2E2E2E"/><path d="M416.568 53.465c.638.06 1.162-.126 1.783-.288.172.194.154.385.189.625.05.349.152.678.239 1.02.193.761.029 1.546.347 2.288.224.523.547.996.653 1.555.118.625-.115 1.317-.512 1.813a7.293 7.293 0 01-.703.75c-.257.243-.54.416-.825.625-.46.337-.616-.096-.942-.363-.486-.398-1.177-.668-1.813-.743-.43-.05-.808-.073-1.169-.324-.258-.179-.401-.288-.544-.566-.271-.526.723-1.074 1.134-1.152.341-.064 1.584-.137 1.344-.618-.2-.398-.607-.762-.95-1.051-.644-.542-.839-1.298-1.167-2.014-.148-.323-.32-.7-.389-1.046-.066-.33-.039-.707-.006-1.04.015-.157.007-.594.235-.642.2-.042.412.087.59.144.242.078.385.193.566.364.201.189.47.33.733.428.37.137.814.197 1.207.235z" fill="#FE674A"/><path d="M416.824 59.702c.296.176.541.267.783.523-.096.202-.137.536-.288.696-.244.258-.55.192-.866.044a10.035 10.035 0 00-1.236-.47c-.289-.09-.556-.277-.856-.348-.328-.077-.653-.147-.979-.23-.426-.108-.834-.62-.493-1.062.326-.42.844-.441 1.317-.372a3.86 3.86 0 011.49.568c.366.23.756.43 1.128.651z" fill="#E3473B"/><path d="M415.687 53.024c.638.061 1.162-.125 1.783-.288.172.195.154.385.189.626.05.348.152.678.239 1.019.192.761.029 1.546.347 2.288.224.523.547.997.653 1.556.118.624-.115 1.317-.512 1.813a7.282 7.282 0 01-.703.75c-.257.242-.54.416-.826.625-.459.336-.615-.097-.941-.364-.486-.397-1.177-.667-1.813-.742-.431-.051-.808-.074-1.169-.324-.258-.18-.401-.289-.544-.567-.271-.525.723-1.074 1.134-1.151.34-.065 1.584-.138 1.344-.618-.2-.398-.607-.763-.95-1.052-.644-.542-.839-1.298-1.167-2.013-.148-.324-.321-.7-.389-1.046-.066-.33-.039-.708-.006-1.04.015-.157.007-.595.234-.643.201-.041.413.087.591.145.242.078.385.193.566.363.201.19.469.33.733.428.37.137.814.198 1.207.235z" stroke="#E3473B" stroke-width="1.37" stroke-linecap="round" stroke-linejoin="round"/><path d="M422.771 70.704c-.625 1.494-1.232 3.404-.215 4.857.131.18.313.233.493.364.35.257.663.563 1.034.79 1.002.61 2.09 1.076 3.245 1.28 2.059.363 4.27.497 6.216-.39 1.163-.53 2.331-1.173 3.25-2.1.397-.4.704-.894 1.054-1.335.37-.466.772-.904 1.152-1.362.664-.802 1.256-1.697 1.654-2.676.179-.442.558-1.561.024-1.918-.259-.173-.83.017-1.112.061a18.9 18.9 0 01-1.118.137c-.982.095-1.956.219-2.942.273-1.307.071-2.592-.139-3.894-.208a47.729 47.729 0 00-3.708-.076c-1.004.025-1.933.126-2.899.42-.478.146-.865.295-1.278.592-.49.353-.719.722-.956 1.29z" fill="#5F8260"/><path d="M422.771 68.942c-.625 1.495-1.232 3.405-.215 4.858.131.18.313.233.493.364.35.257.663.563 1.034.79 1.002.61 2.09 1.076 3.245 1.28 2.059.363 4.27.497 6.216-.39 1.163-.53 2.331-1.174 3.25-2.1.397-.4.704-.894 1.054-1.336.37-.466.772-.903 1.152-1.36.664-.803 1.256-1.699 1.654-2.677.179-.442.558-1.561.024-1.918-.259-.173-.83.016-1.112.06a18.9 18.9 0 01-1.118.137c-.982.095-1.956.22-2.942.274-1.307.071-2.592-.139-3.894-.208a47.63 47.63 0 00-3.708-.076c-1.004.025-1.933.126-2.899.42-.478.146-.865.295-1.278.592-.49.353-.719.721-.956 1.29z" fill="#6F9570" stroke="#83A984" stroke-width=".685" stroke-linecap="round" stroke-linejoin="round"/><path d="M17.608 23.228c.753-3.244 1.324-6.48 2.201-9.704.463-1.326 1.887-2.965 2.762-4.034 2.942-3.593 6.692-6.463 11.357-7.25 3.896-.656 7.429.104 11.096 1.397 3.117 1.1 5.312 3.835 7.238 6.39.9 1.195 1.438 2.577 2 3.953.732 1.79 1.466 3.555 1.968 5.427.792 2.951 1.032 6.237.463 9.248-.334 1.766-.82 3.584-1.551 5.224-.549 1.231-1.653 2.962-1.368 4.392.221 1.115 1.175 1.252 2.182 1.468 1.201.258 2.453.346 3.603.813 1.516.615 2.941 1 4.535 1.396 1.406.35 2.682 1.215 4.105 1.468 1.71.305 3.424.501 5.153.643 1.691.138 3.24-.363 4.698-1.213.697-.406 1.472-.782 2.078-1.324.623-.557 1.178-1.193 1.805-1.75.81-.72 2.028-1.364 3.14-1.14 1.729.347 2.363 1.914 2.952 3.366l.033.081c.45 1.11 1.204 2.038 1.524 3.218.372 1.373.514 2.972.352 4.385-.299 2.616-1.27 5.12-1.538 7.748-.133 1.303-.56 2.524-.788 3.808-.255 1.438-.526 2.915-.977 4.306-1.127 3.477-3.329 6.083-6.17 8.338-4.942 3.92-11.132 3.581-17.018 4.568-3.418.573-6.959.782-10.412 1.016-1.77.12-3.535-.026-5.297-.177-2.075-.177-4.144.174-6.216.223-3.753.09-7.425-.356-11.16-.557-3.105-.167-6.169-.482-9.259-.852-3.146-.377-6.694.038-9.467-1.757-3.497-2.264-5.989-5.046-6.958-9.163-.414-1.756-.648-3.528-.56-5.335.096-1.989.133-4.091 1.016-5.92.832-1.72 2.16-3.621 3.453-5.013 1.625-1.75 3.566-3.101 5.317-4.706 1.04-.956 1.93-2.053 2.97-3.016l.006-.005c.869-.804.838-.855 1.282-2.426 1.003-1.87.063-2.766-.952-4.369-.834-1.316-.498-3.374-.318-4.842.338-2.753.089-5.604.72-8.323z" fill="#93BB94"/><path d="M50.01 12.095c-1.288-2.575-2.941-4.785-4.752-6.997.5 0 1.558-.283 1.997-.04.418.233 1.197.713 1.487 1.11.909 1.243 2.379 1.864 3.082 3.27.283.567.467 1.086.873 1.594.447.559.54 1.21.72 1.888.259.975.563 1.919.826 2.893.211.78.516 1.566.768 2.337.296.905.435 1.845.69 2.762.248.892.28 1.944.425 2.869.244 1.561-.398 3.143-.637 4.675-.118.756-.47 1.475-.578 2.23-.071.497-.273 1.283-.485 1.748-.2.443-.202 1.064-.271 1.546-.076.532-.17 1.137-.366 1.647-.17.443-.237.973-.425 1.387-.113.249-.066.448-.218.697-.358.584-.998.912-1.474 1.4-1.403.702-2.96 1.774-4.664 1.944-2.009.201-3.655 1.167-5.734 1.167-1.035 0-2.292-.175-3.305-.4-.627-.14-1.36-.767-1.943-.767-.404 0-.497-.194 0-.194h1.35c.675 0 1.632-.267 2.246-.54 1.738-.773 3.203-1.384 4.664-2.764 2.202-2.08 4.165-4.463 5.529-7.192 1.73-3.458 2.686-7.6 2.149-11.467-.347-2.497-.83-4.555-1.955-6.803zM7.11 57.333c.058-.414.137-.807.234-1.185-.723 1.866-1.153 3.84-1.153 6.034 0 1.973.212 4.035.743 5.918.27.958.669 1.837.977 2.774.305.924.94 1.523 1.447 2.322 1.143 1.802 2.834 2.032 4.576 2.856.794.376 1.758.445 2.6.74.996.349 1.995.755 3.031 1.027 1.65.433 3.574.933 5.28.966 1.792.035 3.545.514 5.318.555 3.145.072 6.268.185 9.425.185h9.503c1.635 0 3.277-.158 4.927-.185 1.04-.018 2.598-.111 3.598-.411 1.269-.381 2.665-.409 3.97-.658 1.173-.224 2.546-.528 3.734-.596 1.503-.085 3.132-.504 4.615-.78 1.75-.328 3.49-.687 5.24-1.028 2.481-.483 5.034-1.413 7.176-2.774 1.59-1.01 2.427-2.542 3.168-4.294.812-1.922.668-4.306 1.31-6.33.767-2.417 1.418-7.237 1.848-9.723.506.797.198-8.482 0-7.752-.245.902-.437 2.49-.832 3.32-1.083 2.277-3.673 15.79-5.494 17.567-1.556 1.518-3.486 2.603-5.24 3.832-1.869 1.309-4.147 1.771-6.248 2.507-1.499.525-3.022.735-4.556 1.1-1.548.367-3.074.802-4.644 1.068-.511.086-.987.337-1.486.472-1.09.296-2.481.176-3.597.226-2.74.124-5.521.522-8.252.555-3.57.044-7.169-.118-10.725-.36-3.198-.216-6.408-.332-9.59-.75-4.574-.6-9.273-.686-13.727-1.89-1.769-.478-3.482-1.954-4.742-3.277-1.161-1.22-2.034-2.995-2.288-4.726-.35-2.39-.486-4.892-.146-7.305z" fill="#6F9570"/><path d="M15.513 23.228c.753-3.244 1.323-6.48 2.201-9.704.463-1.326 1.887-2.965 2.762-4.034 2.942-3.593 6.692-6.463 11.357-7.25 3.896-.656 7.428.104 11.095 1.397 3.118 1.1 5.313 3.835 7.239 6.39.9 1.195 1.438 2.577 2 3.953.731 1.79 1.466 3.555 1.968 5.427.791 2.951 1.032 6.237.462 9.248-.334 1.766-.82 3.584-1.55 5.224-.549 1.231-1.653 2.962-1.368 4.392.221 1.115 1.175 1.252 2.182 1.468 1.201.258 2.452.346 3.603.813 1.515.615 2.94 1 4.535 1.396 1.405.35 2.682 1.215 4.104 1.468a54.83 54.83 0 005.154.643c1.691.138 3.24-.363 4.698-1.213.697-.406 1.472-.782 2.078-1.324.623-.557 1.178-1.193 1.805-1.75.81-.72 2.028-1.364 3.14-1.14 1.728.347 2.363 1.914 2.951 3.366l.033.081c.45 1.11 1.205 2.038 1.525 3.218.372 1.373.513 2.972.352 4.385-.299 2.616-1.27 5.12-1.538 7.748-.133 1.303-.56 2.524-.788 3.808-.255 1.438-.527 2.915-.978 4.306-1.126 3.477-3.328 6.083-6.17 8.338-4.94 3.92-11.131 3.581-17.018 4.568-3.417.573-6.958.782-10.411 1.016-1.77.12-3.535-.026-5.297-.177-2.076-.177-4.144.174-6.216.223-3.753.09-7.426-.356-11.16-.557-3.105-.167-6.169-.482-9.26-.852-3.145-.377-6.693.038-9.466-1.757-3.497-2.264-5.99-5.046-6.958-9.163-.414-1.756-.648-3.528-.56-5.335.096-1.989.132-4.091 1.016-5.92.831-1.72 2.16-3.621 3.453-5.013 1.624-1.75 3.566-3.101 5.316-4.706 1.042-.956 1.93-2.053 2.971-3.016l.006-.005c.868-.804.838-.855 1.282-2.426 1.002-1.87.063-2.766-.952-4.369-.835-1.316-.498-3.374-.318-4.842.338-2.753.089-5.604.72-8.323z" stroke="#83A984" stroke-width="3.259" stroke-linecap="round" stroke-linejoin="round"/><path d="M26.08 12.932c.606-.88 1.272-1.821 2.202-2.45.66-.175 1.298-.168 1.781.4.41.483.168 1.224-.032 1.742-.591 1.531-1.802 3.124-3.416 3.93-.337.168-1.026.374-1.316.016-.44-.545-.203-1.335-.029-1.92l.004-.011a5.826 5.826 0 01.807-1.707z" fill="#2E2E2E"/><path d="M15.243 17.376c1.518.145 2.764-.298 4.24-.685.41.463.367.915.45 1.487.12.83.363 1.614.568 2.424.459 1.812.07 3.678.826 5.443.533 1.244 1.3 2.37 1.552 3.7.281 1.485-.272 3.133-1.218 4.312a17.23 17.23 0 01-1.671 1.784c-.611.576-1.283.99-1.963 1.487-1.093.8-1.465-.23-2.24-.865-1.154-.945-2.8-1.588-4.312-1.767-1.023-.12-1.921-.174-2.78-.77-.614-.426-.954-.686-1.294-1.347-.643-1.25 1.72-2.555 2.698-2.74.81-.152 3.767-.326 3.195-1.469-.473-.946-1.443-1.813-2.259-2.5-1.53-1.29-1.995-3.088-2.774-4.79-.352-.768-.763-1.666-.927-2.487-.156-.785-.092-1.683-.014-2.474.036-.374.017-1.414.559-1.527.476-.1.98.205 1.404.342.575.186.917.46 1.346.865.477.45 1.117.786 1.744 1.018.878.326 1.936.47 2.87.56z" fill="#FE674A"/><path d="M15.852 32.21c.704.419 1.287.635 1.863 1.243-.228.482-.326 1.276-.686 1.657-.58.614-1.309.456-2.058.104-.924-.434-1.97-.811-2.94-1.116-.69-.217-1.324-.661-2.037-.829-.78-.183-1.553-.35-2.33-.547-1.013-.257-1.983-1.476-1.17-2.526.774-1 2.005-1.05 3.13-.886 1.26.184 2.444.663 3.544 1.353.872.545 1.799 1.02 2.684 1.547z" fill="#E3473B"/><path d="M13.147 16.328c1.519.146 2.765-.298 4.241-.685.409.463.366.915.449 1.487.12.83.363 1.614.568 2.424.459 1.812.07 3.678.826 5.443.534 1.244 1.301 2.37 1.553 3.7.28 1.485-.273 3.133-1.218 4.312a17.23 17.23 0 01-1.672 1.784c-.61.577-1.283.99-1.963 1.487-1.093.8-1.465-.23-2.24-.865-1.154-.945-2.8-1.588-4.312-1.766-1.023-.121-1.921-.175-2.78-.77-.613-.427-.954-.687-1.294-1.348-.643-1.25 1.72-2.555 2.699-2.74.809-.152 3.767-.326 3.195-1.469-.474-.946-1.444-1.813-2.26-2.5-1.53-1.29-1.995-3.088-2.774-4.79-.352-.768-.763-1.666-.927-2.487-.156-.784-.092-1.683-.014-2.474.037-.373.017-1.414.559-1.527.476-.1.981.206 1.404.342.575.186.917.46 1.347.865.476.45 1.116.786 1.743 1.019.879.325 1.936.469 2.87.558z" stroke="#E3473B" stroke-width="3.259" stroke-linecap="round" stroke-linejoin="round"/><path d="M29.995 58.377c-1.485 3.554-2.928 8.096-.51 11.552.31.43.745.554 1.171.867.835.611 1.578 1.34 2.46 1.877 2.384 1.453 4.971 2.56 7.718 3.044 4.897.864 10.157 1.183 14.785-.926 2.767-1.26 5.544-2.79 7.73-4.994.942-.95 1.673-2.127 2.506-3.177.88-1.108 1.837-2.149 2.739-3.237 1.581-1.909 2.988-4.038 3.934-6.366.427-1.05 1.328-3.713.058-4.56-.617-.413-1.975.038-2.646.144-.881.139-1.77.239-2.658.325-2.335.225-4.653.52-6.997.65-3.108.17-6.166-.33-9.261-.494-2.954-.157-5.863-.252-8.82-.18-2.387.057-4.598.298-6.894.998-1.138.347-2.058.7-3.04 1.408-1.165.84-1.71 1.715-2.275 3.069z" fill="#5F8260"/><path d="M29.995 54.187c-1.485 3.554-2.928 8.097-.51 11.553.31.43.745.554 1.171.866.835.612 1.578 1.34 2.46 1.878 2.384 1.452 4.971 2.56 7.718 3.044 4.897.864 10.157 1.182 14.785-.927 2.767-1.26 5.544-2.79 7.73-4.993.942-.951 1.673-2.128 2.506-3.178.88-1.108 1.837-2.148 2.739-3.236 1.581-1.91 2.988-4.039 3.934-6.366.427-1.05 1.328-3.713.058-4.561-.617-.412-1.975.038-2.646.144a44.77 44.77 0 01-2.658.325c-2.335.226-4.653.522-6.997.65-3.108.17-6.166-.33-9.261-.494-2.954-.156-5.863-.252-8.82-.18-2.387.058-4.598.298-6.894.999-1.138.347-2.058.7-3.04 1.408-1.165.839-1.71 1.715-2.275 3.068z" fill="#6F9570" stroke="#83A984" stroke-width="1.63" stroke-linecap="round" stroke-linejoin="round"/><path d="M249.731 45.122c1.493-1.493 4.039-2.074 6.098-2.122v6.335a.874.874 0 01-.094.045c-.416.166-.729.592-1.122.813-.42.236-.978.354-1.443.483-1.277.355-3.65.086-4.567-.933-1.408-1.565-.064-3.428 1.128-4.62z" fill="#E0BEA2"/><path d="M255.829 43c-2.059.048-4.605.63-6.098 2.122-1.192 1.193-2.536 3.056-1.128 4.62.917 1.02 3.29 1.289 4.567.934.465-.13 1.023-.247 1.443-.483.393-.221.706-.647 1.122-.813.383-.153 1.258-.97 1.424-1.303" stroke="#D09462" stroke-width="2" stroke-linecap="round" stroke-linejoin="round"/><path d="M294.257 72.214c-2.222-1.593-4.174-3.478-5.997-5.5 1.506-1.721 3.467-4.402 5.403-5.795 1.568-1.127 3.171-2.246 4.867-3.173.426-.234.894-.456 1.383-.521 1.035-.137 2.601 1.7 3.255 2.279 1.524 1.347 3.017 3.145 3.588 5.134.547 1.904.846 4.7.155 6.632-.366 1.022-1.051 2.254-2.01 2.84-1.179.72-2.95.673-4.272.7-.724.015-1.645.11-2.319-.236-1.378-.71-2.792-1.456-4.053-2.36z" fill="#C16E3E" stroke="#D09462" stroke-width="2" stroke-linecap="round" stroke-linejoin="round"/><circle cx="281.613" cy="43.591" r="25.591" fill="#E0BEA2" stroke="#D09462" stroke-width="2"/><path d="M267.961 76.079c-4.317-1.493-8.552-3.213-12.837-4.797-.892-2.076-.272-3.837.882-5.667 1.761-2.79 4.465-4.27 7.535-5.333 3.344-1.16 7.531-.255 10.5 1.536 2.155 1.299 5.057 2.834 5.579 5.565.606 3.177.087 10.906-4.773 10.588-2.259-.148-4.746-1.151-6.886-1.892z" fill="#C16E3E" stroke="#D09462" stroke-width="2" stroke-linecap="round" stroke-linejoin="round"/><path d="M295.941 50.572c-1.129-.91-1.819-2.186-2.834-3.2-3.003-4.882.809-4.705 3.091-4.007.316.154 1.114.078 1.339.351.11.134.671.171.847.228.432.14.872.316 1.311.423 1.028.25 2.048 1.062 2.89 1.653 1.093.767 2.332 1.86 2.834 3.105.402 1 .948 2.796.234 3.757-.378.51-.542.68-1.11.957-.477.232-1.039.145-1.568.145-1.388 0-2.813-.92-3.995-1.503-1.085-.534-2.102-1.153-3.039-1.909z" fill="#E0BEA2"/><path d="M292.094 47.136c1.19 1.223 2 2.763 3.325 3.862 1.1.912 2.293 1.658 3.566 2.303 1.387.703 3.06 1.813 4.688 1.813.62 0 1.28.106 1.84-.174.667-.334.858-.54 1.303-1.155.837-1.16.196-3.328-.276-4.533-.588-1.503-2.043-2.822-3.324-3.748-.988-.713-2.186-1.693-3.392-1.994-.515-.13-1.031-.342-1.538-.51-.206-.07-.864-.115-.993-.276-.264-.33-1.201-.238-1.572-.423" stroke="#D09462" stroke-width="2" stroke-linecap="round" stroke-linejoin="round"/><ellipse cx="265.328" cy="37.775" rx="2.991" ry="7.478" fill="#000"/><ellipse cx="265.162" cy="35.781" rx="2.16" ry="3.49" fill="#fff"/><path d="M263.356 40.668c-.038-.198-.015-.415-.015-.615.231.206 1.273.272 1.578.356.538.148 1.09.024 1.562-.218.127-.065.248-.132.369-.207.162-.1.138-.037.138.117 0 .238-.052.476-.061.714a4.184 4.184 0 01-.129.774 4.54 4.54 0 01-.239.774c-.184.416-.481.869-.933 1.09-.16.078-.305.139-.49.139-.143 0-.265-.085-.401-.112-.158-.031-.321-.238-.39-.355-.178-.304-.372-.58-.507-.905a6.789 6.789 0 01-.351-.994c-.046-.19-.094-.367-.131-.558z" fill="#444392"/><ellipse cx="271.643" cy="46.417" rx="4.321" ry="2.16" fill="#D58151"/><ellipse cx="260.283" cy="53.771" rx="1.395" ry="2.79" transform="rotate(-20.468 260.283 53.771)" fill="#D75F5F"/></svg>