<svg width="96" height="275" fill="none" xmlns="http://www.w3.org/2000/svg"><path d="M48.583 222.752c3.534.042 8.364-1.909 9.926 2.68-3.563.838-4.837 1.908-8.536 1.687-3.936-.234-8.24-1.345-11.328-3.958a20.006 20.006 0 01-3.387-3.734c-.364-.52-.346-.516.074-.248 1.074.685 3.008.647 4.194.223 3.515-1.255 5.74 3.311 9.057 3.35z" fill="#B7C2B4"/><path d="M59.8 226.892a1.5 1.5 0 001.076-1.943c-.483-1.42-1.27-2.458-2.328-3.131-1.028-.655-2.177-.876-3.242-.929-1.056-.052-2.151.059-3.115.163l-.206.022c-.923.1-1.718.187-2.437.178-.478-.006-.984-.173-1.598-.521-.48-.273-.93-.594-1.447-.966-.18-.128-.366-.262-.566-.402-1.401-.983-3.429-2.281-5.969-1.374-.392.14-.981.236-1.589.218-.629-.019-1.075-.154-1.293-.293l-.011-.007c-.088-.056-.213-.136-.32-.194l-.003-.002a1.82 1.82 0 00-.38-.155 1.512 1.512 0 00-1.886 1.804c.034.145.081.256.106.31.051.113.11.208.14.256.067.108.158.238.244.361a21.551 21.551 0 003.647 4.02c3.432 2.903 8.103 4.065 12.207 4.31 2.038.121 3.449-.116 4.815-.5.554-.156 1.032-.311 1.512-.466.768-.249 1.542-.5 2.643-.759zm-22.525-8.556c-.004-.008-.003-.007 0 0 0 0 0 0 0 0z" stroke="#2D433F" stroke-width="3" stroke-linecap="round" stroke-linejoin="round"/><path d="M42 222c3.25 1.315 6.378 2.288 10 2.66 1.726.178 3.264.34 5 .34" stroke="#2D433F" stroke-linecap="round" stroke-linejoin="round"/><path d="M65.088 196.656c-1.663 3.372-3.406 6.6-6.088 8.972 4.032.883 8.766 1.189 12.597-.464 2.032-.878 3.606-2.295 4.92-4.304.687-1.049.953-2.321 1.542-3.403 1.045-1.92 4.007-1.598 5.582-2.576 2.866-1.779 3.436-6.4 5.17-9.208.709-1.148 1.315-2.352 2.149-3.385.295-.365.615-.701.91-1.065.05-.061.18-.2.11-.218-.402-.1-1.632 1.309-1.963 1.556-.794.595-1.696.979-2.584 1.338-1.727.697-3.38.2-5.154.309-1.682.103-3.44-.012-4.516 1.747-1.586 2.595-3.19 6.797-6.54 6.169-1.652-.309-2.825-.666-4.188.91-.847.979-1.36 2.433-1.947 3.622z" fill="#B7C2B4"/><path d="M59.007 202.504a1.5 1.5 0 00.672 2.589c4.137.906 9.249 1.288 13.513-.552 2.343-1.012 4.132-2.646 5.58-4.86.439-.67.725-1.383.951-1.969.03-.075.057-.147.084-.218.202-.525.361-.938.57-1.32.197-.363.622-.635 1.657-.908a25.1 25.1 0 01.765-.185l.002-.001c.264-.061.553-.129.837-.204.554-.148 1.208-.356 1.794-.72 1.87-1.161 2.878-3.169 3.604-4.918.21-.506.428-1.074.634-1.612.14-.364.274-.714.397-1.023.334-.836.657-1.553 1.02-2.142.255-.413.477-.794.686-1.153.45-.772.838-1.438 1.354-2.078.124-.154.258-.307.414-.484l.017-.019c.146-.166.313-.356.476-.557-.049.06.102-.117.184-.24l.003-.004a1.67 1.67 0 00.254-.617 1.524 1.524 0 00-1.13-1.759 1.8 1.8 0 00-1.114.092 2.82 2.82 0 00-.532.294 6.79 6.79 0 00-.748.618 22.639 22.639 0 00-.596.576c-.117.116-.184.179-.216.21-.024.022-.028.026-.02.02-.622.466-1.357.788-2.248 1.148-.583.235-1.187.288-1.956.266a23.25 23.25 0 01-.671-.031c-.618-.034-1.368-.075-2.057-.032-.13.008-.275.014-.43.022-.675.031-1.552.071-2.341.276-1.094.285-2.16.899-2.933 2.164-.277.454-.567.976-.847 1.48-.136.243-.269.483-.397.708-.417.734-.826 1.404-1.264 1.961-.883 1.125-1.62 1.489-2.475 1.328l-.287-.055c-.666-.131-1.523-.3-2.346-.215-1.113.115-2.08.647-2.967 1.673-.553.64-.961 1.39-1.286 2.059-.157.323-.304.651-.44.952l-.02.045a34.28 34.28 0 01-.41.883c-1.668 3.378-3.3 6.357-5.737 8.512zm34.418-22.113l-.003.002a.009.009 0 00.003-.002zm-.803-1.369l.073.059-.073-.059z" stroke="#2D433F" stroke-width="3" stroke-linecap="round" stroke-linejoin="round"/><path d="M70 198.968c3.06-3.735 6.446-6.456 10.983-7.968" stroke="#2D433F" stroke-width="1.5" stroke-linecap="round" stroke-linejoin="round"/><path d="M28.05 181.949c1.883 2.388 3.794 5.753 6.316 7.467 2.886 1.962 5.772 4.23 8.994 5.502 2.978 1.176 5.997 2.103 8.928 3.43 3.19 1.445 4.525 3.255 6.712 6.109" stroke="#2D433F" stroke-width="2" stroke-linecap="round" stroke-linejoin="round"/><path d="M18.71 176.128c.802 3.885 5.598 5.706 9.562 6.032.234-1.142.654-2.205.22-3.347-.413-1.09-1-2.143-1.568-3.158-1.126-2.015-2.999-3.568-4.623-5.175-1.497-1.481-3.47-3.619-4.641-5.406-.344-.524.023.149.103.879.37 3.393.256 6.824.948 10.175z" fill="#CB906D"/><mask id="a" fill="#fff"><path d="M23.82 174.882h2l3 4-1 4-6-1-3-4 1-2 3 1 1-2z"/></mask><path d="M25.82 174.882l6.4-4.8-2.4-3.2h-4v8zm-2 0v-8h-4.945l-2.211 4.423 7.155 3.577zm-1 2l-2.53 7.59 6.582 2.194 3.102-6.206-7.155-3.578zm-3-1l2.529-7.589-6.582-2.194-3.103 6.206 7.155 3.577zm-1 2l-7.156-3.577-2.211 4.422 2.966 3.955 6.4-4.8zm3 4l-6.4 4.8 1.922 2.565 3.162.526 1.315-7.891zm6 1l-1.316 7.891 7.285 1.215 1.791-7.165-7.76-1.941zm1-4l7.76 1.941.924-3.694-2.285-3.047-6.4 4.8zm-3-12h-2v16h2v-16zm-9.156 4.423l-1 2 14.31 7.155 1-2-14.31-7.155zm8.685-2.012l-3-1-5.06 15.179 3 1 5.06-15.179zm-12.685 3.012l-1 2 14.31 7.155 1-2-14.31-7.155zm-.245 10.377l3 4 12.8-9.6-3-4-12.8 9.6zm8.085 7.091l6 1 2.63-15.782-6-1-2.63 15.782zm15.076-4.95l1-4-15.522-3.881-1 4 15.522 3.881zm-.36-10.741l-3-4-12.8 9.6 3 4 12.8-9.6z" fill="#83A096" mask="url(#a)"/><path d="M27.696 182.622a.75.75 0 00.796-.597c.042-.205.09-.403.14-.612l.05-.211c.066-.282.133-.584.178-.893.091-.628.096-1.318-.181-2.048-.433-1.142-1.045-2.236-1.604-3.237l-.011-.02c-.964-1.725-2.453-3.143-3.809-4.434-.324-.31-.641-.612-.942-.909-1.487-1.472-3.414-3.565-4.54-5.284a3.964 3.964 0 00-.125-.181c-.017-.022-.05-.065-.09-.107a.793.793 0 00-.125-.105s0 0 0 0a.759.759 0 00-.92.05.757.757 0 00-.21.3.757.757 0 00-.052.299.882.882 0 00.023.177v.001c.014.057.033.121.046.164h0l.01.031c.062.205.143.474.172.743.137 1.251.206 2.5.276 3.771.024.429.048.861.075 1.297.104 1.708.251 3.447.608 5.177.461 2.233 2.061 3.813 3.97 4.857 1.908 1.044 4.206 1.601 6.265 1.771z" stroke="#2D433F" stroke-width="1.5" stroke-linecap="round" stroke-linejoin="round"/><path d="M19.82 176.188c.505.15 2.304.958 2.882.606.322-.196.36-.841.45-1.128.326-1.034 1.468-.747 2.667-.747" stroke="#2D433F" stroke-linecap="round" stroke-linejoin="round"/><path d="M34.049 173c-.095-2.731-.12-4.713.588-7.304.81-2.969 1.506-7.199 3.096-9.609 1.737-2.63 3.636-5.48 5.732-7.565 2.54-2.525 5.672-3.881 8.535-5.522" stroke="#2D433F" stroke-width="3" stroke-linecap="round" stroke-linejoin="round"/><path d="M54.491 136.016c-1.86 1.803-3.363 5.724-4.491 7.984 3.14.335 6.978 1.263 10.15.886 4.06-.482 8.23-1.801 12.142-2.986 2.831-.857 6.068-4.959 8.208-6.9-2.326-1.224-5.201-2.927-7.774-3.553-2.417-.587-5.396-1.787-7.927-1.355-3.384.576-7.859 3.55-10.308 5.924z" fill="#EFEDEA"/><path d="M50.5 143c1.128-2.26 2.132-5.181 3.991-6.984 2.45-2.374 6.924-5.348 10.308-5.924 2.531-.432 5.51.768 7.927 1.355 2.573.626 4.448 1.637 6.774 2.861m-29 9.966c3.14.335 6.478.989 9.65.612 4.06-.482 8.23-1.801 12.142-2.986 2.831-.857 5.068-3.959 7.208-5.9" stroke="#2D433F" stroke-width="2" stroke-linecap="round" stroke-linejoin="round"/><circle cx="61" cy="137" r="5" fill="#83A096"/><path d="M58.522 135.85c-2.272 2.176-2.63 3.981-.022 6.65 1.993 2.039 5.983.428 7.5-1.5 2.031-2.58.5-5.5-1.567-6.857-3.526-.581-5.171.637-7.767 3.136" stroke="#2D433F" stroke-width="2" stroke-linecap="round" stroke-linejoin="round"/><path d="M51.5 141c1.23-2.41 2.217-4.754 1.959-7.524-.127-1.363-.405-2.326-1.113-3.476" stroke="#2D433F" stroke-linecap="round" stroke-linejoin="round"/><path d="M55.5 135c2.342-2.68 3.287-5.635 2.925-9m5.075 5c1.913-1.726 3.748-3.364 4-6m10 8a266.625 266.625 0 003-2m-8 0c1.855-1.199 3.006-1.917 4-4" stroke="#2D433F" stroke-width="2" stroke-linecap="round" stroke-linejoin="round"/><mask id="b" maskUnits="userSpaceOnUse" x="60" y="133" width="6" height="6" fill="#000"><path fill="#fff" d="M60 133h6v6h-6z"/><path d="M62.583 135.829c-.309-.204-.103-.536.035-.795a.145.145 0 00-.04.036c-.199.255-.273.651-.253 1.026.005.091.026.302.09.412.063-.051.111-.081.125-.067.032.031-.047.144-.081.119a.169.169 0 01-.044-.052c-.064-.11-.085-.321-.09-.412-.02-.375.054-.771.253-1.026a.145.145 0 01.04-.036c.143-.081.279.364.348.542.151.39-.24.348-.383.253z"/></mask><path d="M60.474 134.975a1 1 0 101.516 1.305l-1.516-1.305zm2.764-.839l-.672.74.672-.74zm.642 1.02l-.952.306.952-.306zm-.681 2.419l-.559-.829.559.829zm-2 0l-.842.541.842-.541zm1.099-1.395a1 1 0 10-1.126-1.653l1.126 1.653zm1.226-.721a1 1 0 10-1.776-.918l1.776.918zm-.906-.425l.493.87c.166-.094.3-.233.39-.401l-.883-.469zm-.04.036l-.787-.616.788.616zm-.253 1.026l.999-.052-.999.052zm.09.412l.636.772a1 1 0 00.228-1.275l-.864.503zm.752.923a1 1 0 10-1.234-1.573l1.234 1.573zm-1.177-1.151c.14-.163.317-.411.448-.589.153-.207.298-.394.436-.54.155-.165.219-.188.19-.177a.473.473 0 01-.236.02.51.51 0 01-.263-.118l1.345-1.48a1.5 1.5 0 00-.783-.38c-.3-.045-.57.01-.786.094-.4.155-.714.448-.923.669-.225.24-.429.508-.588.723-.18.244-.28.384-.356.473l1.516 1.305zm.575-1.404c.138.125.282.335.363.586l1.904-.613a3.386 3.386 0 00-.922-1.453l-1.344 1.48zm.363.586c.204.633-.06 1.131-.288 1.284l1.117 1.659c1.072-.722 1.51-2.203 1.075-3.556l-1.904.613zm-.288 1.284a1.923 1.923 0 01-.306.166 1.094 1.094 0 01-.284.084c-.073.01-.086-.003-.063.006.038.014.058.04.053.033l-1.683 1.081c.508.791 1.317.944 1.944.865.582-.074 1.111-.344 1.456-.576l-1.117-1.659zm-.6.289c-.03-.048-.073-.181.001-.423a1.19 1.19 0 01.144-.302.734.734 0 01.078-.097c.022-.024.035-.033.035-.033l-1.126-1.653c-.497.338-.865.92-1.042 1.497-.182.59-.226 1.386.227 2.092l1.683-1.081zm-.292-2.494a.835.835 0 01-.013.024l1.766.938.023-.044-1.776-.918zm.376-.377a1.138 1.138 0 00-.333.29l1.575 1.233a.866.866 0 01-.255.217l-.987-1.74zm-.333.29c-.41.524-.49 1.204-.464 1.695l1.997-.105a1.05 1.05 0 01.02-.282c.018-.079.037-.094.022-.075l-1.575-1.233zm-.464 1.695c.004.075.014.193.037.322.018.101.063.326.187.54l1.728-1.006a.657.657 0 01.055.124l-.002-.01a.55.55 0 01-.008-.075l-1.997.105zm.452-.413a3.679 3.679 0 00-.334.321 2.184 2.184 0 00-.317.425c-.023.043-.088.17-.115.342-.024.153-.057.704.471 1.027.383.234.756.126.801.114a1.3 1.3 0 00.25-.097c.176-.091.394-.25.632-.437l-1.234-1.573c-.25.195-.327.238-.31.23a.952.952 0 01.397-.088c.109 0 .304.02.507.144.518.317.483.857.461.993-.024.155-.081.261-.09.279-.042.077-.06.08.02-.005.056-.061.11-.111.133-.131l-1.272-1.544zm.839-.702l-.987-1.739c-.33.187-.601.465-.78.801l1.767.938zm-.035.795l-1.103 1.668 1.103-1.668zm.383-.253l1.864-.724-1.864.724zm-.55.932l-1.273-1.543a2 2 0 00-.456 2.549l1.728-1.006zm.043.052l-1.185 1.612 1.185-1.612zm.081-.119l1.4-1.428-1.4 1.428zm-1.688-2.345c-.008.015-.087.158-.145.28a2.956 2.956 0 00-.23.658c-.064.301-.105.761.07 1.272.187.54.545.935.933 1.191l2.207-3.336c.233.155.501.431.643.843.132.384.093.706.059.866a1.212 1.212 0 01-.074.232l.015-.029.023-.041.031-.059-3.532-1.877zm.628 3.401c.29.192.591.295.841.347.244.05.64.093 1.09-.03a2.144 2.144 0 001.464-1.352c.248-.699.07-1.312-.045-1.61l-3.729 1.449a1.704 1.704 0 01.004-1.175 1.858 1.858 0 011.254-1.171 1.588 1.588 0 011.328.206l-2.207 3.336zm3.35-2.645c.028.072-.106-.302-.214-.523a2.52 2.52 0 00-.496-.7 2.12 2.12 0 00-.926-.533 2.068 2.068 0 00-1.563.199l1.974 3.479c-.43.244-.954.319-1.456.183a1.875 1.875 0 01-.823-.466 1.664 1.664 0 01-.239-.291 1.267 1.267 0 01-.064-.113c-.012-.025-.01-.025.007.023l.028.074.043.117 3.729-1.449zm-4.143 2.662c.094.163.275.428.587.658l2.37-3.223c.279.205.43.434.5.553l-3.457 2.012zm.587.658c1.063.781 2.107.191 2.303.064a2.145 2.145 0 00.916-1.301c.048-.206.232-1.153-.553-1.922l-2.8 2.856c-.769-.754-.583-1.675-.54-1.851a1.851 1.851 0 01.804-1.141c.173-.111 1.194-.697 2.24.072l-2.37 3.223zm2.666-3.159c-.742-.728-1.63-.575-1.846-.528a2.08 2.08 0 00-.573.219c-.18.1-.317.211-.378.261l2.544 3.086a1.618 1.618 0 01-.216.145 1.908 1.908 0 01-.518.196c-.2.044-1.078.197-1.813-.523l2.8-2.856z" fill="#2D433F" mask="url(#b)"/><path d="M54.5 145c1.067.323 1.228 1.603.73 3m3.27-3c.744.66 1.203.871.911 2M63 145c.474.116 1.098 1.299 1.5 1.5M68 144c.403.664.698 1.275 1 2m3-3c.602.312.664.522 1 1m1.5-3l1 1m1-2h2m0-2h2" stroke="#2D433F" stroke-width="2" stroke-linecap="round" stroke-linejoin="round"/><path d="M62.686 134.148c-4.601 2.123-8.965 5.953-12.186 9.852.028-.47.284-1.551.471-1.979.113-.258.176-.528.311-.778.102-.188.179-.394.287-.578.137-.232.312-.448.458-.676.262-.405.588-.796.804-1.229.171-.342.313-.709.52-1.028.28-.429.497-.891.756-1.33.221-.374.486-.707.754-1.049a3.52 3.52 0 011.089-.887c.613-.315 1.187-.69 1.787-1.025.318-.177.608-.409.903-.622.295-.214.669-.369.997-.529.29-.141.543-.347.821-.512.26-.154.56-.272.84-.384l.004-.001c.665-.265 1.265-.608 1.972-.768.796-.18 1.605-.215 2.415-.29.204-.019.435.021.643.024.449.005.915.008 1.356.093.433.084.855.153 1.282.263.316.081.634.16.951.235.35.083.712.074 1.058.187.23.075.448.108.683.155.221.045.615.708.838.708-3.192.589-6.843.777-9.814 2.148z" fill="#ECA589"/><path d="M50.5 144c3.221-3.899 7.585-7.729 12.186-9.852 2.971-1.371 6.622-1.559 9.814-2.148m-21.965 11.397c.028-.47.249-.948.436-1.376.113-.258.176-.528.311-.778.102-.188.179-.394.287-.578.137-.232.312-.448.458-.676.262-.405.588-.796.804-1.229.171-.342.313-.709.52-1.028.28-.429.497-.891.756-1.33.221-.374.486-.707.754-1.049a3.52 3.52 0 011.089-.887c.613-.315 1.187-.69 1.787-1.025.318-.177.608-.409.903-.622.295-.214.669-.369.997-.529.29-.141.543-.347.821-.512.26-.154.56-.272.84-.384l.004-.001c.665-.265 1.265-.608 1.972-.768.796-.18 1.605-.215 2.415-.29.204-.019.435.021.643.024.449.005.915.008 1.356.093.433.084.855.153 1.282.263.316.081.634.16.951.235.35.083.712.074 1.058.187.23.075.448.108.683.155.221.045.463.156.686.156" stroke="#2D433F" stroke-width="2" stroke-linecap="round" stroke-linejoin="round"/><path d="M26.913 123c-4.548 9.867-7.138 36.86 18.895 65.889C60.235 204.976 62.663 219.631 60.116 231 56.755 246 48.7 264.5 31.5 272.5" stroke="#2D433F" stroke-width="4" stroke-linecap="round"/><path d="M3.84 90.088c.219-.795.26-1.728.388-2.55-.015-.522-.14-1.224.052-1.764.146-.41.146-.833.337-1.239.184-.388.312-.854.457-1.262.459-1.29 1.019-2.536 1.565-3.791.224-.513.466-1.064.777-1.532.25-.375.642-.826.8-1.24.152-.395.368-.859.594-1.215.338-.533.416-1.09.811-1.595.925-1.182 1.95-2.143 3.016-3.178 1.165-1.13 2.414-2.325 3.724-3.275.419-.304.784-.654 1.183-.98.308-.253.512-.623.896-.747.99-.32 1.955-.756 2.936-1.112.924-.336 1.999-.31 2.965-.31 1.368 0 2.74-.211 4.107-.052 3.479.406 6.8 1.303 10.224 2.014 1.694.35 3.552.705 5.084 1.554 1.017.564 2.143 1.172 3.084 1.853 1.612 1.165 2.913 2.894 4.108 4.483l.062.083c1.162 1.545 2.347 3.519 2.719 5.438.42 2.172.518 4.43.183 6.62-.257 1.676-.229 3.36-.229 5.059v.109c0 1.944.001 4.358-.925 6.109-.99 1.871-1.834 3.807-2.976 5.598-.902 1.415-1.689 2.876-2.576 4.291-.553.882-.95 1.872-1.548 2.736-.492.71-1.11 1.331-1.64 2.014-1.007 1.301-2.06 2.897-3.392 3.9-1.594 1.2-3.753 1.982-5.7 2.295-1.791.287-3.582.585-5.404.619-.775.015-1.535.152-2.32.098-1.113-.077-2.16-.304-3.29-.304-2.081 0-4.319-1.076-6.191-1.882-1.686-.725-3.19-1.967-4.753-2.925-1.362-.836-2.303-1.889-3.267-3.144-.41-.532-.977-.951-1.308-1.543-.194-.347-.554-.491-.851-.728-.36-.288-.586-.666-.845-1.038-.453-.65-1.034-1.449-1.337-2.186-.291-.708-.414-1.506-.594-2.249a28.885 28.885 0 01-.646-3.98c-.064-.683-.2-1.366-.2-2.054 0-.506.03-1.009-.08-1.503-.249-1.126.08-2.362.08-3.459 0-.65-.255-1.399-.08-2.036z" fill="#192825"/><path d="M4.496 87.396c-.129.82-.17 1.751-.388 2.545-.175.635.08 1.38.08 2.026 0 1.092-.33 2.321-.08 3.441.109.492.08.992.08 1.495 0 .684.135 1.364.2 2.043.122 1.292.333 2.683.644 3.961.18.739.303 1.532.593 2.237.303.732.884 1.528 1.336 2.174.259.37.485.747.844 1.033.297.236.657.379.85.724.332.589.899 1.006 1.307 1.535.963 1.248 1.904 2.296 3.264 3.127 1.561.954 3.064 2.189 4.748 2.911 1.871.802 4.106 1.872 6.186 1.872 1.128 0 2.175.225 3.287.302.784.054 1.543-.083 2.317-.097 1.82-.034 3.61-.33 5.398-.616 1.946-.312 4.104-1.089 5.695-2.283 1.331-.998 2.383-2.586 3.39-3.88.528-.679 1.146-1.297 1.638-2.003.598-.86.994-1.845 1.546-2.722.887-1.408 1.673-2.861 2.574-4.269 1.14-1.782 1.984-3.708 2.973-5.57.942-1.773.925-4.232.925-6.185 0-1.69-.029-3.365.228-5.033.335-2.178.237-4.425-.183-6.586-.371-1.908-1.555-3.873-2.716-5.41-1.211-1.602-2.528-3.362-4.166-4.542-.94-.677-2.066-1.282-3.081-1.843-1.531-.844-3.387-1.197-5.08-1.546-3.42-.707-6.738-1.6-10.214-2.003-1.365-.16-2.736.051-4.103.051-.965 0-2.039-.026-2.962.308-.98.355-1.943.79-2.933 1.107-.384.124-.588.491-.896.742-.398.325-.763.674-1.18.976-1.31.945-2.558 2.133-3.721 3.258-1.065 1.03-2.09 1.986-3.013 3.162-.395.501-.474 1.056-.81 1.586a7.23 7.23 0 00-.594 1.21c-.158.41-.55.86-.8 1.232-.31.466-.552 1.014-.775 1.524-.547 1.249-1.106 2.49-1.564 3.772-.145.406-.273.87-.456 1.255-.191.404-.191.825-.337 1.233-.203.57-.051 1.322-.051 1.849" stroke="#192825" stroke-width="2" stroke-linecap="round" stroke-linejoin="round"/><path d="M19.944 77.882c-3.666 1.969-6.693 4.868-8.137 8.85-.32.48-.525 1.096-.627 1.666-.125.703.054 1.441 0 2.155-.046.622-.019 1.187.027 1.806.095 1.288-.193 2.575-.021 3.87.205 1.553.308 3.123 1.136 4.502 1.476 2.46 3.688 4.42 5.885 6.218 1.02.834 2.197 1.439 3.371 2.015 1.267.621 2.418 1.597 3.822 1.94 1.315.322 2.808.016 4.154.091 1.286.073 2.548.018 3.832-.091.786-.066 1.398-.434 2.144-.632 1.098-.291 2.337-.303 3.291-1.019.91-.683 1.824-1.324 2.67-2.09.62-.563 1.388-.955 2.025-1.511.392-.343.774-.66 1.153-1.019.59-.559.905-.92 1.28-1.672.264-.527.588-.966.955-1.426.35-.439.499-.966.793-1.436.216-.346.431-.738.53-1.136.19-.761.22-1.424.15-2.187-.044-.494-.166-1.08-.058-1.565.252-1.134.522-2.082.343-3.248-.155-1.006-.37-2.087-.676-3.055-.269-.855-.344-1.696-.536-2.573a3.97 3.97 0 00-.434-1.147c-.247-.434-.374-.94-.648-1.35-.341-.512-.8-.665-1.046-1.266-.675-1.652-2.57-2.507-3.655-3.843-.25-.307-.773-.74-1.126-.906-.538-.252-1.146-.263-1.666-.59-.671-.42-1.395-.857-2.102-1.21-.952-.477-2.273-.74-3.323-.847-1.222-.125-2.32-.074-3.542-.017h-.011c-3.414.16-6.957 1.114-9.953 2.723z" fill="#192825" style="mix-blend-mode:exclusion"/><path d="M11.904 86.731c1.444-3.981 4.374-6.88 8.04-8.849 2.996-1.609 6.54-2.564 9.953-2.723 1.227-.057 2.327-.108 3.553.016 1.05.107 2.371.371 3.323.847.707.354 1.43.791 2.102 1.212.52.326 1.128.337 1.666.59.353.164.877.598 1.126.905 1.085 1.336 2.98 2.19 3.655 3.843.246.601.705.754 1.046 1.265.274.412.4.917.648 1.35.208.365.345.738.434 1.148.192.877.267 1.718.536 2.573.305.968.521 2.05.676 3.055.18 1.166-.091 2.114-.343 3.248-.108.486.014 1.07.059 1.565.069.763.04 1.426-.15 2.187-.1.398-.315.79-.531 1.136-.294.47-.443.997-.793 1.436-.367.46-.691.899-.954 1.426-.376.752-.69 1.113-1.281 1.672-.38.359-.76.676-1.153 1.019-.637.556-1.404.948-2.026 1.511-.845.766-1.758 1.407-2.669 2.09-.954.716-2.193.728-3.29 1.019-.747.198-1.358.566-2.145.632-1.284.109-2.546.164-3.832.091-1.346-.075-2.839.231-4.154-.091-1.404-.343-2.555-1.319-3.822-1.94-1.174-.576-2.352-1.181-3.371-2.015-2.197-1.798-4.41-3.758-5.885-6.218-.828-1.379-.931-2.95-1.136-4.502-.171-1.296.117-2.582.021-3.87-.046-.619-.073-1.184-.027-1.806.054-.714-.125-1.453 0-2.155.102-.57.307-1.186.627-1.667" stroke="#192825" stroke-width="2" stroke-linecap="round" stroke-linejoin="round"/><path d="M7.115 81.488c-.913 1.767-2.23 3.494-2.534 5.493-1.029-.686-2.125-1.364-2.125-2.691 0-1.069.292-2.41.716-3.4 1.466-3.42 3.206-6.567 5.627-9.427 1.535-1.814 3.246-3.561 4.926-5.24l2.313-2.314c.808-.808 1.142-2.048 1.637-3.061a18.115 18.115 0 001.322-3.612c.134-.537.12-1.017.181-1.558.078-.707.441-.567.984-.567 1.275 0 2.528.425 3.824.425.977 0 2.162.18 3.116-.032 1.245-.276 2.789-.334 4.045-.141 1.447.223 3.008.009 4.454-.102.631-.049 1.22.02 1.841-.118.428-.096 1.203-.144 1.48.26.713 1.037.26 2.477.99 3.595 1.112 1.7 2.108 3.361 3.471 4.895 1.232 1.385 2.583 1.98 4.116 2.943 1.683 1.058 2.842 2.624 4.39 3.824 1.124.871 2.127 2.443 2.763 3.715.715 1.43 1.187 2.968 1.55 4.524.287 1.23.01 2.48.252 3.69.77 3.853.09 7.549-1.66 11.049-.617 1.233-1.087 2.53-1.645 3.793-.127.287-.69 1.677-1.008 1.778-.592.19.114-1.356.19-1.495.54-1.005.847-2.275 1.03-3.391.255-1.56.37-3.167.37-4.745 0-1.739.52-3.572.205-5.288-.213-1.156-.82-2.08-1.338-3.117-.387-.773-.728-1.602-1.196-2.329-.656-1.018-1.333-2.096-2.07-3.053-.861-1.12-2.11-1.775-3.187-2.66-1.364-1.122-2.802-1.85-4.32-2.707-1.082-.61-1.92-1.409-3.21-1.684-7.118-1.518-14.75-1.29-21.302 2.156-1.913 1.006-3.791 2.026-5.477 3.384-.926.746-1.43 1.82-2.085 2.786a43.035 43.035 0 00-2.636 4.422z" fill="#4A5759"/><path d="M4.58 86.84c.306-2 1.622-3.585 2.535-5.352a43.046 43.046 0 012.636-4.422c.655-.966 1.159-2.04 2.085-2.786 1.686-1.358 3.564-2.378 5.477-3.384 6.553-3.446 14.184-3.674 21.302-2.156 1.29.275 2.128 1.074 3.21 1.684 1.518.857 2.956 1.585 4.32 2.707 1.076.885 2.326 1.54 3.187 2.66.737.957 1.414 2.035 2.07 3.053.468.727.809 1.556 1.196 2.33.518 1.036 1.125 1.96 1.338 3.115.316 1.717-.205 3.55-.205 5.288 0 1.579-.115 3.186-.37 4.746-.183 1.116-.49 2.386-1.03 3.391-.076.139-.782 1.685-.19 1.495.317-.101.88-1.49 1.008-1.778.557-1.263 1.027-2.56 1.644-3.793 1.75-3.5 2.431-7.196 1.66-11.048-.242-1.21.036-2.46-.251-3.69-.363-1.557-.835-3.094-1.55-4.526-.636-1.27-1.639-2.843-2.762-3.714-1.55-1.2-2.708-2.766-4.391-3.824-1.533-.963-2.884-1.558-4.116-2.943-1.363-1.534-2.36-3.196-3.47-4.895-.731-1.118-.278-2.558-.992-3.596-.276-.403-1.05-.355-1.479-.26-.62.138-1.21.07-1.841.119-1.446.11-3.007.325-4.454.102-1.256-.193-2.8-.135-4.045.142-.954.212-2.14.031-3.116.031-1.296 0-2.549-.425-3.824-.425-.543 0-.905-.14-.984.567-.06.54-.047 1.02-.181 1.558a18.115 18.115 0 01-1.322 3.612c-.495 1.013-.829 2.253-1.637 3.06-.77.772-1.542 1.543-2.313 2.314-1.68 1.68-3.391 3.427-4.926 5.24-2.42 2.861-4.161 6.009-5.627 9.428-.424.99-.716 2.331-.716 3.4 0 1.327 1.096 2.005 2.125 2.69" stroke="#192825" stroke-width="2" stroke-linecap="round" stroke-linejoin="round"/><path d="M6.706 73.808c1.735-4.138 4.492-7.149 7.554-10.317.748-.774 1.6-1.504 2.644-1.794 1.145-.318-.477 1.65-.677 1.912-1.116 1.463-2.428 2.539-3.714 3.825-.923.922-1.967 1.726-2.762 2.762-.896 1.167-1.921 2.237-2.904 3.329" stroke="#192825" stroke-linecap="round" stroke-linejoin="round"/><path d="M14.26 63.491c-3.062 3.168-5.82 6.179-7.554 10.317.982-1.092 2.15-2.445 3.045-3.612.795-1.036 1.84-1.84 2.762-2.762 1.286-1.286 2.598-2.362 3.714-3.825.2-.262 1.822-2.23.677-1.912-1.044.29-1.896 1.02-2.644 1.794z" fill="#192825" stroke="#192825" stroke-linecap="round" stroke-linejoin="round"/><path d="M45.547 62.618c-1.26-1.65-2.531-1.943-4.564-2.266.353 1.06 1.33 2.322 2.125 3.116.658.659 1.45 1.695 2.266 2.125 1.052.553 2.02.94 2.975 1.629.773.558 1.368 1.375 2.116 1.983.134.109.792 1.059.685.29-.078-.558-.39-1.08-.645-1.573-.505-.971-1.546-1.86-2.314-2.628-.901-.902-1.866-1.656-2.644-2.676z" fill="#192825"/><path d="M40.983 60.352c2.033.323 3.304.616 4.564 2.266.778 1.02 1.743 1.774 2.644 2.676.768.768 1.81 1.657 2.314 2.628.255.493.567 1.015.645 1.574.108.768-.55-.182-.685-.291-.748-.608-1.343-1.425-2.116-1.983-.955-.69-1.923-1.075-2.975-1.63-.816-.429-1.608-1.465-2.266-2.124-.794-.794-1.488-1.773-1.842-2.833" stroke="#192825" stroke-linecap="round" stroke-linejoin="round"/><path d="M52.424 100.227c-.32-1.436-1.062-.282-1.444.451-.524 1.049-.91 2.171-1.441 3.233-.452.903-.798 1.861-1.26 2.753-.627 1.208-1.727 2.176-2.476 3.323-.62.948-1.465 1.65-2.192 2.508-1.61 1.904-4.005 3.085-6.063 4.409-1.993 1.281-4.186 2.333-6.58 2.042a24.22 24.22 0 00-2.64.113c-.922.084-2.017-.053-2.946-.104-.747-.041-1.417-.277-2.146-.394-.466-.075-.968-.088-1.421-.226a12.946 12.946 0 01-2.042-.821c-3.02-1.509-5.953-2.045-8.7-5.251-1.373-1.831-2.29-1.831-3.602-4.016-.29-1.302-1.7-2.135-2.158-3.386-.534-1.456-.881-2.894-1.267-4.394-.648-2.52-.297-5.366-.174-7.935.066-1.38.216-2.841.51-4.187.091-.416.21-1.02-.284-1.176-.647-.203-1.052-.886-1.416-1.413-.701 1.402-1.272 2.915-1.312 4.531a100.139 100.139 0 01-.113 3.074c-.071 1.285-.4 2.564-.185 3.855.176 1.06 0 2.14.179 3.206.225 1.339.787 2.58 1.192 3.869.645 2.049 1.027 4.162 2.385 5.908 2.553 3.284 5.27 6.69 9.061 8.585.594.297 1.176.53 1.789.768.54.211 1.335.593 1.908.656 1.359.151 1.729.755 3.103.755 1.572.375.915 0 2.139.327.332.14.825.048 1.184.048h2.142c.772 0 1.557.202 2.322.084.855-.132 1.723-.299 2.585-.299.895 0 2.022-.255 2.849-.593.779-.319 1.531-.859 2.37-1.011 1.692-.308 2.92-.994 4.32-2.005.823-.594 1.565-1.305 2.37-1.909.33-.247.535-.657.867-.885.351-.242.672-.47.94-.814.742-.955 1.69-1.783 2.417-2.776l.078-.108c.697-.953 1.41-1.928 2.01-2.944 1.048-1.773 2.103-3.703 2.651-5.697.18-.652.646-1.453.49-2.154z" fill="#4A5759"/><path d="M50.94 100.765c.381-.733 1.165-1.974 1.484-.538.155.701-.312 1.502-.491 2.154-.548 1.994-1.603 3.924-2.65 5.697-.624 1.055-1.367 2.064-2.09 3.052-.725.993-1.674 1.821-2.417 2.776-.267.344-.588.572-.94.814-.331.228-.536.638-.867.885-.804.604-1.546 1.315-2.37 1.909-1.398 1.011-2.627 1.697-4.32 2.005-.838.152-1.59.692-2.37 1.011-.826.338-1.953.593-2.848.593-.862 0-1.73.167-2.585.299-.765.118-1.55-.084-2.322-.084h-2.142c-.359 0-.852.092-1.184-.048-.836-.352-1.92.527-2.37-.598m1.063.357c-1.368 0-2.576-.69-3.935-.841-.573-.063-1.368-.445-1.908-.656a20.385 20.385 0 01-1.789-.768c-3.79-1.895-6.508-5.301-9.061-8.585-1.358-1.746-1.74-3.859-2.385-5.908-.405-1.289-.967-2.53-1.192-3.869-.18-1.066-.003-2.147-.18-3.206-.214-1.29.115-2.57.186-3.855.058-1.03.087-2.041.113-3.074.04-1.616.61-3.129 1.312-4.53m.02.042c.365.526.75 1.166 1.396 1.37.494.155.375.76.284 1.176-.294 1.346-.444 2.807-.51 4.187-.123 2.57-.474 5.415.174 7.935.386 1.5.733 2.938 1.267 4.394.458 1.251 1.869 2.084 2.158 3.386.499 2.244 3.108 2.571 4.06 4.474 2.358 2.748 5.37 3.288 8.39 4.798.664.332 1.332.605 2.042.821.453.137.956.151 1.421.226.73.117 1.399.353 2.146.394.93.051 2.024.187 2.946.103 1.055-.096 1.778 0 2.838 0m-.347-.117c2.395.291 4.588-.761 6.58-2.042 2.06-1.324 4.453-2.505 6.064-4.409.727-.858 1.572-1.56 2.192-2.508.75-1.147 1.849-2.115 2.475-3.323.463-.892.809-1.85 1.261-2.753.53-1.062.917-2.184 1.441-3.233" stroke="#192825" stroke-width="2" stroke-linecap="round" stroke-linejoin="round"/><path d="M21.15 18.747c0-2.657-.28-5.215.177-7.844.215-.589.486-1.253 1.206-1.094.769.17 1.342.087 2.117.075.841-.013 1.642.14 2.474.238.62.074 1.192-.081 1.804-.104 1.639-.06 3.3-.408 4.949-.507 1.43-.086 2.725-.304 4.03.349.654 1.77.87 3.37.89 5.247.017 1.76.105 3.52.127 5.276.037 3.046-.127 6.092-.127 9.14 0 3.303.673 6.631.127 9.91-.396 2.375-.297 4.62 0 6.99 0 1.062.259 1.677.098 2.722-.183 1.188-.384 2.103.155 3.245.4.845.13 2.242-.888 2.51-1.136.3-2.436.162-3.555.473-.99.275-2.319-.027-3.299-.25l-.016-.004c-1.191-.27-2.586.19-3.795.19-1.432 0-2.807.06-4.26-.154-.928-.138-2.04-.323-2.976-.219-.698.078-.729.05-.536-.642.156-.561.43-1.056.536-1.636.158-.87.43-1.63.352-2.525-.093-1.071-.157-2.136-.035-3.21.289-2.538.169-5.175.31-7.73.093-1.66.262-3.291.262-4.958 0-3.107-.127-6.228-.127-9.345v-6.143z" fill="#4A5759"/><path d="M21.404 10.494c-.565 2.774-.254 5.458-.254 8.253v6.143c0 3.117.127 6.238.127 9.345 0 1.667-.17 3.298-.261 4.959-.142 2.554-.022 5.19-.31 7.73-.123 1.073-.059 2.138.035 3.209.077.895-.195 1.654-.353 2.525-.106.58-.38 1.075-.536 1.636-.192.693-.162.72.536.642.936-.104 2.048.081 2.976.219 1.453.215 2.828.155 4.26.155 1.209 0 2.604-.461 3.795-.19l.016.003c.98.223 2.31.525 3.299.25 1.12-.31 2.419-.173 3.555-.472 1.019-.269 1.287-1.666.888-2.511-.539-1.142-.338-2.057-.155-3.245.161-1.045-.099-1.66-.099-2.722-.296-2.37-.395-4.615 0-6.99.547-3.279-.126-6.607-.126-9.91 0-3.048.164-6.094.127-9.14-.022-1.757-.11-3.516-.127-5.276-.02-1.878-.236-3.478-.89-5.247-1.305-.653-2.6-.435-4.03-.349-1.649.1-3.31.446-4.949.507-.612.023-1.184.178-1.804.104-.832-.098-1.633-.251-2.474-.238-.775.012-1.348.095-2.116-.075-.858-.189-1.08.788-1.327 1.416" stroke="#192825" stroke-width="2" stroke-linecap="round" stroke-linejoin="round"/><path d="M21.404 10.494c-.565 2.774-.254 5.458-.254 8.252v6.144c0 3.117.127 6.237.127 9.345 0 1.666-.17 3.298-.261 4.958-.142 2.555-.022 5.191-.31 7.73-.123 1.074-.059 2.139.035 3.21.077.895-.195 1.654-.353 2.525-.106.58-.38 1.075-.536 1.636-.192.692-.162.72.536.642.936-.104 2.048.08 2.976.218 1.453.215 2.828.155 4.26.155 1.209 0 2.604-.46 3.795-.19l.016.004c.98.223 2.31.525 3.299.25 1.12-.311 2.419-.174 3.555-.472 1.019-.269 1.287-1.666.888-2.511-.539-1.142-.338-2.057-.155-3.245.161-1.045-.099-2.168-.099-3.23M37.908 9.859c.653 1.77.87 3.37.889 5.248.017 1.76.105 3.519.127 5.276.037 3.045-.127 6.091-.127 9.14 0 3.303.673 6.631.127 9.91-.396 2.375-.297 4.62 0 6.99M21.206 11.225c.247-.628.469-1.605 1.326-1.416.769.17 1.342.087 2.117.075.841-.013 1.642.14 2.474.238.62.073 1.192-.082 1.804-.104 1.639-.06 3.3-.408 4.949-.507 1.43-.086 3.061-.28 4.367.373" stroke="#192825" stroke-width="2" stroke-linecap="round" stroke-linejoin="round"/><path d="M22.548 2.103c-.195 2.422 0 4.82 0 7.244m0-6.841c1.172-1.379 3.578-.752 5.202-1 2.099-.318 4.252-.103 6.335-.409 1.809-.266 2.66-.082 2.884 1.796.21 1.76.067 3.597.067 5.366 0 .377.143 1.08-.268 1.297-.35.185-1.014.06-1.401.06-.636 0-1.24-.146-1.878-.135-.84.015-1.661.135-2.504.135-1.627 0-3.238.268-4.874.268-.776 0-1.525.134-2.296.134-.887 0-1.221-.041-1.4-.94" stroke="#192825" stroke-width="2" stroke-linecap="round" stroke-linejoin="round"/><path d="M22.548 9.079c0-2.424-.196-4.152 0-6.573 1.172-1.379 3.577-.752 5.202-1 2.099-.318 4.252-.103 6.335-.409 1.809-.266 2.66-.082 2.884 1.796.21 1.76.067 3.597.067 5.366 0 .377.143 1.08-.268 1.297-.35.185-1.014.06-1.401.06-.636 0-1.24-.146-1.878-.135-.84.015-1.662.135-2.504.135-1.627 0-3.238.268-4.874.268-.776 0-1.525.134-2.296.134-.887 0-1.087-.041-1.267-.94z" fill="#4A5759" stroke="#192825" stroke-width="2" stroke-linecap="round" stroke-linejoin="round"/><path d="M36.714 2.103c1.309 1.374.375 2.816.835 4.427.07.246.306.334.425.544.164.292.148.758.186 1.08.079.671.034 1.362.03 2.037-.05-.537-.997-.555-1.476-.491V2.103z" fill="#192825"/><path d="M38.19 10.286c0-.706.053-1.43-.03-2.131-.038-.323-.022-.789-.186-1.081-.119-.21-.355-.298-.425-.544-.46-1.611.474-3.053-.835-4.427V9.7c.506-.067 1.504-.043 1.446.586" stroke="#192825" stroke-linecap="round" stroke-linejoin="round"/><path d="M20.499 4.637c.224-1.322.79-1.681 1.878-2.4l.192 7.463c-.498.084-.694.242-.997.586 0-.827-.087-1.627-.127-2.452-.007-.149.017-.58.023-1.078-.036.409-.347.709-.893.848-.65-.556-.204-2.215-.076-2.967z" fill="#192825"/><path d="M20.575 7.604c-.65-.556-.204-2.215-.076-2.967.224-1.322.79-1.681 1.878-2.4l.192 7.463c-.498.084-.694.242-.997.586 0-.827-.087-1.627-.127-2.452-.007-.149.017-.58.023-1.078m-.893.848c-.007.001.065-.002.058 0m-.058 0c.546-.14.857-.44.893-.848m-.835-1.836c.044-.046.086-.084.126-.115m0 0c.608-.479.71.692.71 1.726m-.71-1.726c.612.099.445.588.612 1.189.053.192.088.371.099.537m-.711-1.726a1.64 1.64 0 00-.26-.019m.97 1.745v.225m0-.225c.006.078.006.153 0 .225" stroke="#192825" stroke-width="2" stroke-linecap="round" stroke-linejoin="round"/><path d="M27.936 100.262a49.942 49.942 0 000 4.218m-.38-4.387c.086.08 4.926 4.573 5.063 4.124.24-.784-.136-1.939-.136-2.774m-1.895-2.193c.92.239 1.537.079 2.463 0m-.947-1.18v2.361" stroke="#B7C2B4" stroke-width="1.2" stroke-linecap="round" stroke-linejoin="round"/><path d="M22.43 58.431c.614-.481 1.253-.634 2.033-.653.448.071.415.398-.024.519-.485.133-.926.15-1.387.367-.402.189-.312.654-.135.96.228.395.836.31 1.253.376.173.028.607.075.637.283.022.149-.11.23-.264.237-.389.02-.764-.048-1.14-.13-.455-.098-.94-.208-1.17-.6-.26-.443-.245-1.013.197-1.359z" fill="#B7C2B4"/><path d="M24.636 57.776c-.86 0-1.546.138-2.206.655-.442.346-.457.916-.197 1.358.23.393.715.503 1.17.601.376.082.751.15 1.14.13.153-.007.286-.088.264-.237-.03-.208-.464-.255-.637-.283-.417-.066-1.025.019-1.253-.376-.177-.306-.267-.771.134-.96.462-.217.903-.234 1.389-.367.442-.122.472-.454.01-.52" stroke="#B7C2B4" stroke-width=".2" stroke-linecap="round" stroke-linejoin="round"/><path d="M25.79 59.9v-2.1c.231-.037.42-.066.576.197.227.382.444.774.676 1.153.262.427.42-1.067.67-1.136.428-.12.726 1.859.754 2.153.073.784-.47-.191-.534-.458-.015-.063-.038-.744-.185-.585-.188.203-.19 1.995-.648 1.196a5.192 5.192 0 01-.441-.98c-.028-.082-.226-.772-.381-.525-.238.377.008 1.183-.303 1.5-.21.215-.185-.313-.185-.415z" fill="#B7C2B4"/><path d="M25.79 57.886V59.9c0 .102-.026.63.184.415.311-.317.065-1.123.303-1.5.155-.247.353.443.38.525.118.356.261.664.442.98.457.799.46-.993.648-1.196.147-.16.17.522.185.585.063.267.607 1.242.534.458-.028-.294-.326-2.274-.755-2.154-.249.07-.407 1.564-.669 1.137-.232-.379-.45-.77-.676-1.153-.17-.287-.38-.226-.64-.187" stroke="#B7C2B4" stroke-width=".2" stroke-linecap="round" stroke-linejoin="round"/><path d="M29.544 58.922l-.115-1.03c.429.07 1.092-.263 1.496-.034.44.25.275.87.21 1.378-.094.717-.483 1.227-1.006 1.284-.145.016-.283-.015-.384-.178-.1-.164-.106-.544-.126-.72a62.021 62.021 0 01-.075-.7z" fill="#B7C2B4"/><path d="M29.388 57.948c.346 2.929-.08-.682.2 1.708.02.17.025.535.128.692.102.157.244.187.391.172.534-.055.93-.546 1.026-1.236.067-.488.235-1.086-.214-1.326-.425-.228-.84-.084-1.274-.182" stroke="#B7C2B4" stroke-width=".2" stroke-linecap="round" stroke-linejoin="round"/><path d="M30.578 59.48c-.243.494-.269-.58-.274-.786.086.008.406-.044.448.126.05.198-.102.514-.174.66z" fill="#545657" stroke="#B7C2B4" stroke-width=".2" stroke-linecap="round" stroke-linejoin="round"/><path d="M33.902 58.712c-.375-.135-1.39.478-1.767.51.295.317 1.131.549 1.57.242.104-.073.389-.683.197-.752z" fill="#B7C2B4"/><path d="M32.235 58.913c.375-.03 1.292-.318 1.667-.186.192.068-.093.668-.198.74-.438.301-1.274.073-1.569-.239" stroke="#B7C2B4" stroke-width=".2" stroke-linecap="round" stroke-linejoin="round"/><path d="M36.067 58.116c.745-.535-.982-.284-1.148-.26 0 .576-.081 1.376 0 1.946.018.13.043.786.255.716.12-.039.185-.187.191-.322.017-.368-.124-.772.305-.738.286.023.886.082 1.02-.314.266-.788-1.766.26-1.48-.608.135-.412.588-.227.857-.42z" fill="#B7C2B4"/><path d="M34.947 57.856c.163-.024 1.864-.275 1.13.26-.264.193-.71.008-.844.42-.28.867 1.72-.18 1.458.608-.132.396-.723.337-1.005.314-.422-.034-.283.37-.3.738-.006.135-.07.283-.188.322-.209.07-.233-.586-.25-.716-.08-.57-.064-1.144-.064-1.72" stroke="#B7C2B4" stroke-width=".2" stroke-linecap="round" stroke-linejoin="round"/><path d="M21.36 6.194c0 .759-.418 1.216-.671 1.216-.253 0-.245-.457-.245-1.216 0-.758-.008-1.073.245-1.073s.67.315.67 1.073z" fill="#31403D"/></svg>