<svg width="78" height="107" fill="none" xmlns="http://www.w3.org/2000/svg"><path d="M11.273 43.995l3.771-.898-1.078 8.08h-2.693v-7.182z" fill="#D39264"/><path d="M17.97 41.212c2.136-4.296 7.543-9.697 7.543-9.697l2.424-1.616 9.158-2.694 10.236.808s7.707 2.744 11.043 6.465c2.483 2.769 4.58 8.35 4.58 8.35l3.232 11.852 1.346 13.198v9.966s-2.16 5.232-4.579 7.812c-3.158 3.37-10.235 5.926-10.235 5.926l-11.313 2.155-14.546-2.155s-8.208-4.014-11.313-8.62c-2.996-4.445-3.472-7.846-3.77-13.198-.335-5.994 2.962-15.084 2.962-15.084s.825-8.625 3.233-13.468z" fill="#818181"/><path d="M18.313 96.864l4.913-6.898 9.826 3.311-1.91 8.002-2.73-1.38v-3.035l-1.638 3.035h-3.548l1.364-4.139-3.002 2.76-3.276-1.656zm29.478 4.415l-1.365-8.002 9.327-2.234 3.502 3.338v2.483l-2.184 2.483-2.928 1.38-2.804-3.863-1.091 4.415H47.79zM33.913 53.333l4.31-2.424 4.848 2.424-4.849 4.848-4.31-4.848zM22.467 84.084c.6 1.915 1.445 3.272 2.687 4.867 1.059 1.025.556.968 3.205 2.104 2.092.898 3.94 1.688 6.234 2.046 2.199.343 5.106.985 7.323.398.803-.213 1.655.04 2.461-.126 1.183-.244 2.415-.417 3.57-.747 1.583-.453 2.657-1.412 4.037-2.143 2.187-2.3 3.688-4.6 4.252-7.447.153-.773.282-2.807.325-3.563.05-.879-5.417 1.69-5.417.769 0-1.404 4.03-5.892 4.567-7.173-.414-.963-.396-1.258-.716-2.26-.381-1.194-.96-1.78-1.729-2.725-1.211-1.485-2.29-2.672-3.734-3.98-1.72-1.558-3.111-1.3-5.155-2.306-3.702-1.821-10.028-.594-13.648.653-1.755.604-3.141 1.993-4.516 3.132-1.1.91-2.157 1.987-2.93 3.18a11.887 11.887 0 00-1.72 4.306c-.33 1.752 3.877 3.074 1.72 7.173.05.397-1.68-.904-1.626-.513.199 1.466.36 2.917.81 4.355z" fill="#E5CEB1"/><path d="M24.166 80.269V64.915L38.172 63.3l11.852.539 1.077 7.003h4.849l-4.849 8.62-15.353 1.347-11.582-.54z" fill="#F2F2F2"/><path d="M23.836 90.563c-1.41 1.14-2.475 2.293-3.41 3.85-.407.68-1.667 2.088-1.667 2.883 0 .544 2.564 1.727 2.919 1.386.421-.406 3.066-4.918 2.808-2.6-.094.852-1.911 4.112-.16 4.194.779.036 1.317.487 2.049.65.986.219 1.314-1.78 1.533-2.404.108-.308.385-1.744.957-1.68.137.015-.172 2.844-.172 3.066 0 1.269 1.49 1.557 2.65 1.226.968-.276 1.3-3.57 1.324-4.341.025-.824 0-2.501 0-3.326m13.657.336c0 2.024.49 3.98.682 5.996.068.726.138 1.626.938 1.949.415.168 2.323.017 2.649-.296.488-.468.128-2.416.128-3.084 0-.27-.167-1.477.232-1.456 1.18.063 1.208 2.006 2.083 2.492.515.286.95 1.375 1.504 1.493.931.199 1.777-.641 2.636-.876.746-.204-.114-2.096-.437-2.443-.204-.218-.34-.51-.463-.777-.039-.083-.582-.53-.347-.53.296 0 .782 1.502 1.041 1.751.396.38 1.077.474 1.62.445 3.312-.177-1.147-6.138-2.314-6.885" stroke="#9F4100" stroke-width="1.077" stroke-linecap="round" stroke-linejoin="round"/><path d="M24.433 32.767c1.4-1.304 2.755-2.534 4.703-3.166 1.693-.621 2.91-1.38 4.725-1.683 1.798-.3 4.102-.808 5.926-.808 6.537 0 10.709 1.197 16.161 4.849 2.976 1.993 6.207 6.696 7.004 8.889.834 3.953 3.111 7.804 3.111 11.87 0 1.45.697 2.694.697 4.143 0 .85.63 2.748.63 3.654 0 1.635-.058 1.783 0 2.924.11 2.11.645 3.252.797 5.36.143 1.994.254 3.132 0 5.117-.675 5.267-2.888 8.844-6.2 12.333-3.354 3.535-7.802 5.416-12.672 6.563-2.816.664-5.38.924-8.293.8-2.597-.111-6.568.246-8.886-.8-2.685-1.21-4.5-1.387-7.075-2.789-3.493-1.902-6.515-3.98-8.82-7.093-2.165-2.92-3.804-7.315-3.804-10.833 0-3.012.094-5.422.756-9.337.58-1.366.627-2.87.839-4.309.207-1.407.754-2.695.846-4.132.095-1.477.676-2.936.822-4.424.158-1.604.093-3.173.54-4.751.88-3.108 2.793-6.308 4.961-8.875l.058-.07c1.117-1.322 1.879-2.224 3.174-3.432z" stroke="#282E2F" stroke-width="1.616" stroke-linecap="round" stroke-linejoin="round"/><path d="M26.993 48.017c-1.364.236-1.923.373-2.422 1.606-.305.755.302 1.358.94 1.752 1.32.815 2.963.103 2.963-1.424 0-1.347-.816-2.544-2.375-2.544-.809 0-.976.019-1.434.656-.351.488-.924 1.175 0 1.175" stroke="#282E2F" stroke-width="1.077" stroke-linecap="round" stroke-linejoin="round"/><path d="M26.46 49.135c-3.372 1.709 1.457 1.77.272-.084-.366-.573-1.312.64-1.407 1.09-.123.584.508 1.286.938.95.285-.224 1.08.018 1.08-.343 0-.422-.33-.384 0-.384.568 0 .942-2.92.098-1.48" stroke="#282E2F" stroke-width="1.077" stroke-linecap="round" stroke-linejoin="round"/><path d="M26.702 47.767c-1.374-.22-1.956-.357-2.692.812-.235.374 0 1.625 0 2.06 0 1.296 2.826 1.094 3.547.963 1.122-.204 1.569-2.583.769-3.269-.337-.289-.186-.499-.652-.577-.175-.029-.523-.188-.683-.277-.693-.385-1.784-.022-2.404.288m25.671-.386c-1.513.662-2.945 2.44-1.58 3.727.685.647 2.17.923 2.854.093 1.253-1.519-.356-4.508-2.459-3.406-.239.125-1.254.864-.439.331.512-.334 1.429-.853 2.064-.476.78.464 1.536 1.168 1.536 2.06 0 1.236.774-.473.494-1.21-.259-.685-.28-.791-1.075-1.026-.372-.11-1.206-.262-1.394.093" stroke="#282E2F" stroke-width="1.077" stroke-linecap="round" stroke-linejoin="round"/><path d="M51.839 48.499c-.534 0-1.605-.27-1.778.383-.14.527-.364 1.072.296 1.367.583.26.864-.235.549-.715-.316-.481-1.685-.749-2.108-.258-1.024 1.189 3.136 1.751 2.602-.322-.24-.93-3.099.223-.944.477" stroke="#282E2F" stroke-width="1.077" stroke-linecap="round" stroke-linejoin="round"/><path d="M50.2 47.473c-1.176.05-2.179.544-2.179 1.677 0 .647.431 1.83 1.288 1.999 1.12.22 2.633.41 3.21-.51.348-.553.152-2.252-.38-2.776-.832-.818-1.593-.482-2.734-.482" stroke="#282E2F" stroke-width="1.077" stroke-linecap="round" stroke-linejoin="round"/><path fill-rule="evenodd" clip-rule="evenodd" d="M53.597 58.72c-6.1 0-11.044-4.944-11.044-11.044 0-6.099 4.945-11.043 11.044-11.043 6.1 0 11.044 4.944 11.044 11.043 0 6.1-4.945 11.044-11.044 11.044zm0-2.155a8.889 8.889 0 110-17.777 8.889 8.889 0 010 17.777zM23.93 58.72c-5.82 0-10.54-4.944-10.54-11.044 0-6.099 4.72-11.043 10.54-11.043 5.823 0 10.542 4.944 10.542 11.043 0 6.1-4.72 11.044-10.541 11.044zm0-2.155c-4.685 0-8.484-3.98-8.484-8.889 0-4.909 3.799-8.888 8.485-8.888s8.484 3.98 8.484 8.888c0 4.91-3.798 8.89-8.484 8.89z" fill="#CECECE"/><path d="M64.64 51.178v-7.542h3.233v7.542H64.64z" fill="#D49264"/><path d="M38.49 50.814c-.868.686-3.096 1.554-4.074 2.069-.71.373-.208 1.277.376 1.796 1.042 1.435 1.616 1.617 3.167 3.476m.394-.197c1.272-1.072 2.554-2.16 3.73-3.336.337-.336.773-.71.986-1.114.123-.233-.285-.333-.428-.418-1.002-.592-2.804-1.468-4.15-2.276" stroke="#9F4100" stroke-width="1.077" stroke-linecap="round" stroke-linejoin="round"/><path d="M13.24 70.694c2.5 3.678 5.042 6.639 8.904 8.916.327.193 1.062.85 1.361.319.357-.635.552-1.447.552-2.17 0-2.278-1.717-4.432-2.661-6.415-.651-1.367-1.201-2.893-1.975-4.182" stroke="#536264" stroke-width="1.077" stroke-linecap="round" stroke-linejoin="round"/><path d="M24.057 64.513c.023 3.553-.121 7.16.012 10.707.05 1.302-.174 3.748-.174 5.049m.27-15.892c4.04-.54 8.768-.447 13.064-.747 3.044-.213 6.076-.221 9.125-.221 1.564 0 4.159-.718 4.194 1.472.068 4.22.442 16.878.442 12.656m-27.816 3.091c3.088 0 6.165.514 9.247.43 3.989-.11 9.326.01 13.292-.43 1.941-.216 7.071-.898 5.118-.898" stroke="#536264" stroke-width="1.077" stroke-linecap="round" stroke-linejoin="round"/><path d="M59.379 67.824c-1.983 2.28-3.63 4.754-5.47 7.138-.645.835-1.975 1.918-2.036 3.017-.027.487-.633.8-.662 1.325-.06 1.06.927.953 1.753.76 2.57-.6 5.097-1.773 7.506-2.857 1.309-.59 3.466-1.68 3.986-2.98" stroke="#536264" stroke-width="1.077" stroke-linecap="round" stroke-linejoin="round"/><path d="M14.199 43.097c-.972-.034-2.176-.314-2.967.525-.528.561-.236 3.211-.265 4.02-.037 1.07-.06 1.987.102 3.013.176 1.106 1.73.616 2.257.436m51.351-7.771c.726 0 3.753-.455 3.753.932v4.587c0 1.458.19 2.65-1.546 2.65" stroke="#FEFEFE" stroke-width="1.077" stroke-linecap="round" stroke-linejoin="round"/><path d="M35.915 49.835c-1.264-.127-.615-1.694-.535-2.495 1.371.138 3.246.104 4.617.24.636.065 1.732-.184 2.285.02.455.169.221 1.58.19 1.893-.126 1.252-2.083.568-3.212.455-1.124-.113-2.23-.002-3.345-.113z" fill="#536264" stroke="#536264" stroke-width="1.077" stroke-linecap="round" stroke-linejoin="round"/><circle cx="53.597" cy="47.676" r="11.044" stroke="#FEFEFE" stroke-width="1.077" stroke-linecap="round" stroke-linejoin="round"/><circle cx="53.597" cy="47.676" r="8.889" stroke="#FEFEFE" stroke-width="1.077" stroke-linecap="round" stroke-linejoin="round"/><ellipse cx="24.2" cy="47.676" rx="10.811" ry="11.044" stroke="#FEFEFE" stroke-width="1.077" stroke-linecap="round" stroke-linejoin="round"/><ellipse cx="24.2" cy="47.676" rx="8.701" ry="8.889" stroke="#FEFEFE" stroke-width="1.077" stroke-linecap="round" stroke-linejoin="round"/><path d="M63.923 51.169c.53.113 2.8 0 3.878 0" stroke="#FEFEFE" stroke-width="1.077" stroke-linecap="round" stroke-linejoin="round"/><path d="M50.948 79.07c1.222-2.19 2.829-4.172 4.025-6.346.315-.573.938-1.021 1.205-1.587.205-.436-1.611-.268-1.793-.264-.973.017-2.908.264-2.908.264" stroke="#536264" stroke-width="1.077" stroke-linecap="round" stroke-linejoin="round"/><path d="M38.186 68.956l-.064.082c-.425.701.445 3.136.694 3.634.178.355.932 1.123.234 1.123-.64 0-1.173.417-1.47.95-.337.607-.325 1.457-.69.432-.16-.444-.053-.993-.229-1.697-.24-.963-1.854-1.53-2.195-1.533-.04.018-.063.027-.063.023 0-.016.022-.023.063-.023a41.513 41.513 0 001.396-.706c.893-.574 1.612-1.372 2.26-2.203a.43.43 0 01.064-.082z" fill="#F9D372" stroke="#536264" stroke-width="1.077" stroke-linecap="round" stroke-linejoin="round"/><path d="M1.602 99.525c2.088-.133 4.125.053 6.213.053.416.085.823.211 1.216.375.347.144.586.31.851.575.336.336.633.718.916 1.101.196.264.404.549.553.845.154.308.262.641.362.971.085.281.17.57.206.863.018.142.013.345.07.474.018.041.051.129.027.117l-3.362.208c-1.11 0-2.175-.116-3.27-.298-.985-.164-1.877-.372-2.578-1.159-.498-.559-2.91-4.016-1.204-4.125z" fill="#BAC3C5"/><path d="M7.92 99.533c-2.105 0-4.208-.129-6.313.004-1.72.109.712 3.559 1.214 4.116.707.786 1.606.993 2.598 1.156 1.105.183 2.178.298 3.298.298h3.542M7.87 99.59c.42.085.83.21 1.227.374.35.144.59.31.858.574.339.335.638.717.923 1.098.197.264.408.549.557.844.156.307.265.639.365.969.086.28.173.568.209.86.017.142.012.345.07.473.018.042.052.129.027.117" stroke="#909798" stroke-width="1.077" stroke-linecap="round" stroke-linejoin="round"/><path d="M70.441 99.745c1.991 0 3.983.017 5.949.356.245.043.695.1.596.473-.156.594-.752 1.248-1.133 1.683-.682.779-1.717 1.359-2.634 1.795-1.08.514-2.32.954-3.522.991-.95.029-1.9.042-2.85.079-.609.023-1.203.22-1.81.22m5.54-5.583c-.299 0-.596-.007-.893-.041a.87.87 0 00-.475.078c-.475.22-1.02.289-1.522.42-.971.251-1.55 1.301-1.854 2.212-.131.393-.221.791-.34 1.187-.041.142-.078.284-.122.426-.037.122-.028.267-.053.393-.017.087-.03.175-.05.261-.016.067-.081.116-.113.176-.056.106-.045.194-.045.317" stroke="#000" stroke-width="1.077" stroke-linecap="round" stroke-linejoin="round"/><path d="M76.39 100.092c-1.966-.331-3.958-.348-5.949-.348-.299 0-.46.007-.757-.026a.887.887 0 00-.475.076c-.475.215-1.02.283-1.522.41-.971.246-1.55 1.271-1.854 2.162-.131.383-.221.772-.34 1.159-.041.139-.078.278-.122.417-.037.118-.028.26-.053.383-.017.086-.03.171-.05.255-.016.066-.081.113-.113.172-.042.077-.087.301-.107.46.603-.002 1.194-.192 1.799-.215.95-.035 1.9-.048 2.85-.077 1.203-.036 2.442-.465 3.522-.968.917-.426 1.952-.992 2.634-1.754.381-.424.977-1.064 1.133-1.644.099-.364-.35-.42-.596-.462z" fill="#BAC3C5"/><path d="M65.037 105.212c.607 0 1.201-.192 1.81-.215.95-.035 1.9-.048 2.85-.077 1.203-.036 2.442-.465 3.522-.968.917-.426 1.952-.992 2.634-1.754.381-.424.977-1.064 1.133-1.644.099-.364-.35-.42-.596-.462-1.966-.331-3.958-.348-5.949-.348-.299 0-.46.007-.757-.026a.887.887 0 00-.475.076c-.475.215-1.02.283-1.522.41-.971.246-1.55 1.271-1.854 2.162-.131.383-.221.772-.34 1.159-.041.139-.078.278-.122.417-.037.118-.028.26-.053.383-.017.086-.03.171-.05.255-.016.066-.081.113-.113.172-.056.103-.118.469-.118.59" stroke="#909798" stroke-width="1.077" stroke-linecap="round" stroke-linejoin="round"/><path d="M3.972 65.313c.161-1.007.532-1.724 1.06-2.454.644-.785 1.07-1.581 2.113-1.83.623-.148 1.408-.164 2.052-.23 1.579-.163 3.29.09 4.88.09 3.556 0 7.118.115 10.676.115 1.826 0 3.627.249 5.46.232h.04c1.89-.019 3.823-.037 5.712-.123 3.297-.149 6.592.26 9.895.116.88-.038 1.724-.3 2.608-.334 1.15-.046 2.256-.19 3.4-.34l.008-.001c1.655-.216 3.33-.129 4.996-.129 1.55 0 3.095-.151 4.647-.115 1.36.031 2.695.231 4.06.231 2.158 0 4.284.027 6.397.553 1.597.398 3.43 1.017 3.111 3.086-.343 2.221-.242 4.444-.445 6.673-.285 3.12-.755 6.211-1.014 9.335-.27 3.25-1.013 6.416-1.304 9.668-.284 3.181-1.064 6.238-1.8 9.335-.536 2.252-1.097 4.594-3.544 5.349-.57.175-1.02.451-1.627.553-.786.131-1.579.207-2.375.231-1.16.034-2.314.344-3.473.437-1.15.093-2.326.026-3.479.026-2.403 0-4.838.103-7.23-.174-1.836-.212-3.722-.016-5.57-.148-2.008-.142-3.382.209-5.396-.042-2.3-.143-4.598-.033-6.9-.004-1.377.017-2.752-.068-4.129-.068-1.206 0-2.42.097-3.625.056-1.869-.064-3.742-.154-5.61-.197-.739-.017-1.45-.188-2.184-.233-1.412-.085-2.821-.195-4.233-.276-1.621.089-1.659-.508-2.278-1.974-.54-1.275-.64-2.815-.936-4.16-.954-4.325-1.347-8.848-1.753-13.252-.334-3.617-.706-7.296-1.43-10.86-.377-1.86-.868-3.897-.92-5.796-.03-1.11-.037-2.246.14-3.346z" fill="#BAC3C5"/><path d="M5.68 62.026c-.871 1.07-1.487 1.906-1.708 3.287-.177 1.1-.17 2.237-.14 3.346.052 1.9.543 3.936.92 5.797.724 3.563 1.096 7.242 1.43 10.86.406 4.403.799 8.926 1.753 13.251.297 1.345.397 2.885.936 4.16.62 1.466.657 2.063 2.278 1.974 1.412.081 2.822.191 4.233.276.735.045 1.445.216 2.183.233 1.869.043 3.742.133 5.611.197 1.205.041 2.419-.056 3.625-.056 1.377 0 2.752.085 4.129.068 2.302-.029 4.6-.139 6.9.004 2.014.251 3.388-.1 5.397.042 1.847.132 3.733-.064 5.57.148 2.39.277 4.826.174 7.23.174 1.152 0 2.328.067 3.478-.026 1.16-.093 2.313-.403 3.473-.437.796-.024 1.589-.1 2.375-.231.607-.102 1.057-.378 1.627-.553 2.447-.755 3.008-3.097 3.543-5.349.737-3.097 1.517-6.154 1.801-9.335.29-3.251 1.035-6.417 1.304-9.668.26-3.124.729-6.215 1.014-9.335.203-2.229.102-4.452.445-6.673.32-2.069-1.514-2.688-3.111-3.086-2.113-.526-4.239-.553-6.397-.553-1.365 0-2.7-.2-4.06-.231-1.552-.036-3.097.115-4.647.115-1.666 0-3.341-.087-4.996.129l-.009.001c-1.143.15-2.249.294-3.4.34-.883.035-1.727.296-2.607.334-3.303.143-6.598-.265-9.895-.116-1.89.086-3.822.104-5.712.122h-.04c-1.833.018-3.634-.231-5.46-.231-3.558 0-7.12-.116-10.676-.116-1.59 0-3.301-.252-4.88-.09-.644.067-1.429.083-2.052.232-1.043.248-1.47 1.044-2.113 1.83" stroke="#909798" stroke-width="1.077" stroke-linecap="round" stroke-linejoin="round"/><path d="M34.608 80.649c.294-1.513 1.494-2.426 2.81-3.027.339-.106.696-.194 1.049-.194.397 0 .788.163 1.185.19 1.185.086 1.754.453 2.438 1.388.421.576.845 1.017 1.01 1.737.109.475.126.982.122 1.468-.01 1.095-.467 2.192-1.327 2.904-1.49 1.233-4.564 1.423-5.932-.04-.98-1.05-1.633-3-1.355-4.426z" fill="#192825"/><path d="M37.433 77.615c-1.322.601-2.53 1.515-2.825 3.034-.278 1.427.375 3.375 1.355 4.425 1.368 1.464 4.441 1.274 5.932.04.86-.711 1.316-1.808 1.327-2.903.004-.486-.013-.993-.122-1.468-.165-.72-.589-1.161-1.01-1.737-.684-.935-1.253-1.302-2.438-1.387-.398-.028-.788-.191-1.185-.191-.425 0-.855.127-1.254.26" stroke="#000" stroke-width=".539" stroke-linecap="round" stroke-linejoin="round"/><path d="M41.098 79.512c-.68-.188-1.554.302-2.163.564a.527.527 0 00.056.147c.03.052.052.115.078.17.03.064.052.128.073.196.019.06.03.12.042.18.009.046.038.085.055.128.013.031.027.071.057.09a.254.254 0 00.101.011c.098-.012.167-.074.253-.116.078-.038.139-.08.226-.097a1.903 1.903 0 01.62-.035c.064.008.126.029.19.04.05.007.092.025.14.04a.2.2 0 01.036.015c.35-.302.89-1.152.236-1.333z" fill="#B1C9AB"/><path d="M40.53 80.056c-.148.13-.298.258-.447.388m-1.078-.537c.61-.263 1.416-.567 2.097-.379.653.18.281.876-.068 1.178m-.086.2c-.043-.017-.076-.048-.119-.06-.047-.015-.09-.033-.14-.04-.063-.01-.125-.032-.189-.04a1.738 1.738 0 00-.283-.01 2.24 2.24 0 00-.337.045c-.088.017-.148.059-.226.097-.086.043-.155.104-.253.116a.257.257 0 01-.101-.011c-.03-.019-.045-.059-.057-.09-.017-.042-.046-.082-.055-.127-.012-.061-.023-.121-.042-.18a1.644 1.644 0 00-.074-.197c-.025-.055-.047-.118-.077-.17a.531.531 0 01-.057-.147" stroke="#2D433F" stroke-width=".539" stroke-linecap="round" stroke-linejoin="round"/><path d="M35.925 79.18c-.09.339.408 1.05.538 1.3.082-.03.16-.069.24-.103.056-.024.123-.03.184-.039.114-.017.227-.023.341-.011.134.014.268.036.402.055a.76.76 0 01.255.072c.073.038.143.067.21.113.056.037.106.078.158.118.072.055.13.137.19.205.056.065.121.123.188.177.058.047.182.064.252.048.07-.018.143-.035.202-.078.027-.02.059-.03.084-.05a2.25 2.25 0 01.14-.085c-.177-.944-1.23-1.473-2.068-1.734-.219-.068-1.212-.375-1.316.013z" fill="#B1C9AB"/><path d="M36.41 80.418c-.13-.25-.573-.91-.483-1.248.103-.389 1.097-.081 1.315-.013.839.26 1.892.79 2.07 1.733m-2.847-.421c.082-.03.159-.07.24-.103.056-.024.123-.03.184-.04.114-.016.227-.022.341-.01.134.014.268.036.402.055.092.012.17.03.255.072.072.037.143.067.21.113.055.037.105.078.158.118.072.054.13.137.19.205.056.065.12.123.188.177.057.047.182.064.252.047h0c.07-.017.143-.034.202-.078.026-.019.058-.03.084-.05a.374.374 0 01.072-.043m-2.123-1.288l.24.404" stroke="#2D433F" stroke-width=".539" stroke-linecap="round" stroke-linejoin="round"/><path d="M38.514 80.463c.306.202.512.471.648.776.316-.867 1.071-.623 1.767-.376.696.248.985 1.208.856 1.872-.316 1.626-1.654 2.264-3.137 2.427-.88-.444-1.68-.88-2.165-1.791-.498-.937-.326-1.756.18-2.636.333-.58 1.327-.617 1.85-.272z" fill="#E0BEA2"/><path d="M39.398 82.389c-.01-.738-.192-1.502-.885-1.936-.523-.329-1.517-.293-1.85.259-.506.838-.678 1.618-.18 2.51.487.871 1.292 1.287 2.178 1.712m.516-3.818c.316-.826 1.056-.518 1.752-.282.696.235.985 1.15.856 1.783-.32 1.57-1.69 2.172-3.198 2.317" stroke="#CB906D" stroke-width=".539" stroke-linecap="round" stroke-linejoin="round"/><path d="M10.026 91.81l.834 10.628" stroke="#4A5759" stroke-width=".539"/><path d="M9.243 92.29c-.092-1.464-.407-2.89-.65-4.333-.028-.29.01-.529.35-.689.281-.133.703-.018.997.055.686.172 1.427.092 2.107.302.45.138.931.036 1.394.142.522.12 1.046.226 1.568.356 1.096.275 2.09.782 3.025 1.394.827.54 1.48.363 2.392.135 1.078-.27 2.123-.48 3.239-.46 2.546.046 2.196 2.958 2.918 4.626.361.833.94 1.603 1.35 2.423.421.841.535 1.918.606 2.843.087 1.129-.505 2.165-.42 3.279.032.407.286.858.163 1.279-.082.281-.747.162-.958.162-.47 0-.94-.063-1.406-.063-.777 0-1.595.287-2.364.202-.471-.053-.941-.168-1.414-.21-.713-.063-1.442-.014-2.15-.107-1.534-.202-3.121-.036-4.668-.036-.732 0-1.47-.031-2.198.036-.624.058-1.877.052-2.4-.321-.698-.761-.745-1.736-.84-2.74-.109-1.158-.151-2.318-.245-3.477-.129-1.6-.295-3.197-.396-4.799z" fill="#fff"/><path d="M8.586 87.91c.243 1.46.564 2.9.657 4.38.101 1.6.267 3.199.396 4.798.094 1.159.136 2.319.246 3.477.094 1.004.141 1.979.84 2.74M8.656 88.408c-.06-.49-.218-.902.285-1.14.282-.133.704-.018.998.055.686.172 1.427.092 2.107.302.45.138.931.036 1.394.142.522.12 1.046.226 1.568.356 1.096.275 2.09.782 3.025 1.394.827.54 1.48.363 2.392.135 1.078-.27 2.123-.48 3.239-.46 2.546.046 2.196 2.958 2.918 4.626.361.833.94 1.603 1.35 2.423.421.841.535 1.918.606 2.843.087 1.129-.505 2.165-.42 3.279.032.407.286.858.163 1.279-.082.281-.747.162-.958.162-.47 0-.94-.063-1.406-.063-.777 0-1.595.287-2.364.202-.471-.053-.941-.168-1.414-.21-.713-.063-1.442-.014-2.15-.107-1.534-.202-3.121-.036-4.668-.036-.732 0-1.47-.031-2.198.036-.624.058-1.45.124-1.972-.249" stroke="#C4C4C4" stroke-width=".539" stroke-linecap="round" stroke-linejoin="round"/><path d="M10.817 92.054c-.29-.082-.603-.148-.841-.228.132 1.228.278 2.454.401 3.683.125 1.243.289 2.492.356 3.74.06 1.097.17 2.225.473 3.284.166.461.686.411 1.111.411.659 0 1.332-.042 1.988.016 1.262.113 2.53.048 3.79-.095.589-.067 1.21-.048 1.803-.048 1.074 0 2.15.007 3.224.032.855.019 1.706.002 2.561 0 .76-.759 1.943-3.272 1.943-4.338 0-.66-.147-1.338-.428-1.933-.4-.846-.904-1.233-1.71-1.71 0-1.3-.38-2.977-.855-4.174-.27-.677-.638-.756-1.347-.689-1.08.102-2.212.696-3.284.871a6.833 6.833 0 00-.826-.305c-.814-.24-1.778-.126-2.602-.051-1.02.093-2.084.12-3.084.356-.9.212-1.947.564-2.673 1.178z" fill="#9AD5AF"/><path d="M18.778 94.855c-1.45-.886-2.284-2.567-2.803-4.113.107-.054.242-.063.36-.077.092-.011.184-.021.274-.037.09-.014.182-.034.274-.037.121-.004.243-.005.365-.006.132-.001.264-.018.397-.018h.422c.147 0 .293.018.44.018.122 0 .249.01.37.023.155.017.316.046.469.078a8.6 8.6 0 01.456.105c.163.044.339.097.462.22.05.05.103.095.153.144l.062.06c.024.022.049.037.074.057.05.04.111.081.14.139 0 .84-.254 1.77-.727 2.47-.205.305-.714 1.264-1.188.974z" fill="#59946E"/><path d="M15.998 90.832c.52 1.546 1.33 3.137 2.78 4.023.474.29.983-.67 1.188-.974.473-.7.737-1.495.737-2.336" stroke="#4A5759" stroke-width=".539" stroke-linecap="round" stroke-linejoin="round"/><path d="M14.913 101.416c-.455.436-.67.974-.928 1.577h4c.03-.237.311-.943.075-1.097-.185-.121-.542.081-.759.034-.536-.115.112-1.218-.862-.788-.123.055-.775.539-.795.18-.004-.08.052-.441-.08-.411-.228.053-.485.346-.651.505z" fill="#9AD5AF"/><path d="M14.157 93.687c.37-.518.797-.685 1.414-.788.29.29 1.176 1.135.954 1.627-.164.365-1.31.168-1.611.139-.564-.054-1.222-.327-.757-.978z" fill="#59946E"/><path d="M15.57 92.899c-.616.103-1.043.27-1.413.788-.465.65.193.924.757.978.3.029 1.447.226 1.611-.139.222-.492-.592-1.265-.883-1.556m1.498 6.273c1.204.579 2.836.656 3.777-.285m-6.985 3.706c.256-.558.528-.864.982-1.267.165-.147.421-.419.65-.468.13-.028.074.307.078.381.02.332.67-.117.792-.167.971-.398.326.622.86.729.216.043.571-.144.756-.032.235.143-.026.96-.056 1.18" stroke="#4A5759" stroke-width=".539" stroke-linecap="round" stroke-linejoin="round"/><path d="M22.766 102.062c.116.246.174.699.203.962 1.415 0 2.83-.023 4.242-.024-.265-.499-.478-.953-.984-1.259-.32-.193-.646-.37-.962-.57-.244-.153-.61-.348-.911-.281-.167.037.034.261-.127.261-.202 0-1.055-.349-1.124-.047-.038.164.12.495-.04.618-.06.045-.443.079-.443.158 0 .043.13.147.146.182z" fill="#9AD5AF"/><path d="M22.913 102.878c-.03-.263-.031-.57-.147-.816-.016-.035-.146-.139-.146-.182 0-.079.383-.113.443-.158.16-.123.002-.454.04-.618.069-.302.922.047 1.124.047.16 0-.04-.224.127-.261.302-.067.667.128.91.281.317.2.643.377.963.57.537.325.744.817 1.034 1.351" stroke="#4A5759" stroke-width=".539" stroke-linecap="round" stroke-linejoin="round"/><path d="M13.506 90.744c-.893-.894-2.807-1.198-3.883-1.794.004.767.12 1.671.283 2.425.077.359.02.399.347.486.175.047.752.055.885-.05.242-.191.488-.368.765-.507.263-.13.539-.21.816-.303.258-.085.56-.12.787-.257z" fill="#9FDB82"/><path d="M9.646 87.92c.074.029.14.076.209.12.23.116.493.154.73.272.164.082.37.102.546.151.194.055.399.087.59.154.177.061.372.079.553.124.198.05.417.019.617.056.18.033.365.034.547.056.131.016.257.058.388.075.155.019.299.087.451.111.215.034.43.083.647.083.104 0 .196.03.299.045.093.013.181.031.27.066.08.032.161.057.242.086.074.027.15.07.225.091.123.034.207.14.308.211.12.084.219.195.34.277.047.032.081.088.128.114a.4.4 0 01.11.09c.06.084.183.227.067.32-.03.023-.14.028-.177.03-.062.003-.122.024-.183.028-.164.012-.328.074-.49.105a6.946 6.946 0 01-.934.117c-.163.009-.355.02-.514.062-.135.036-.278.037-.415.07-.148.034-.325.08-.477.055-.085-.014-.22-.012-.29-.07-.064-.052-.117-.093-.168-.159-.085-.108-.242-.19-.353-.27-.21-.15-.426-.25-.656-.36-.168-.08-.351-.131-.515-.222-.095-.053-.203-.077-.304-.118-.156-.062-.318-.115-.47-.187-.261-.123-.524-.26-.795-.356-.046-.017-.083-.045-.13-.056a1.248 1.248 0 01-.275-.09c-.21-.106-.194-.282-.194-.496 0-.18.053-.408-.027-.574-.014-.028-.07-.106-.011-.059.023.02.08.037.11.048z" fill="#9FDB82"/><path d="M10.225 88.195c1.227.598 2.58.536 3.905.748.933.15 2.304.475 2.866 1.319m-6.985-1.212c1.077.596 2.528.674 3.421 1.568m-3.207 1.212c.385.13.776.246 1.14.428m-.213-.428c.726-.614 1.499-.714 2.4-.926 1-.236 2.063-.264 3.084-.357.824-.075 1.788-.189 2.602.052.901.266 1.688.715 2.463 1.231m-1.569-1.354c1.072-.175 2.135-.342 3.216-.444.709-.066 1.077.012 1.346.69.476 1.196.927 2.517.927 3.817m-.072.356c.807.477 1.311.864 1.711 1.71a4.58 4.58 0 01.428 1.933c0 1.066-.381 2.369-1.14 3.128" stroke="#4A5759" stroke-width=".539" stroke-linecap="round" stroke-linejoin="round"/><path d="M12.245 95.607c-1.259.63-1.291 2.444-.523 3.422.983.491 2.25.875 3.287.356.988-.494 1.015-1.84.594-2.716-.591-1.23-2.142-1.67-3.358-1.062z" fill="#4A5759"/><path d="M11.722 99.029c-.768-.978-.736-2.792.523-3.422 1.216-.608 2.767-.168 3.358 1.062.42.876.394 2.222-.594 2.716-1.038.519-2.232.278-3.216-.214" stroke="#4A5759" stroke-width=".539" stroke-linecap="round" stroke-linejoin="round"/><path d="M13.195 97.278c-.277-.48.006-.766.403-.977.937-.76 1.837 1.22 1.102 1.532-.44.186-1.274-.156-1.505-.555z" fill="#fff"/><path d="M13.646 96.249c-.396.21-.728.55-.451 1.03.23.398 1.065.74 1.505.554.74-.314-.18-2.323-1.125-1.513" stroke="#4A5759" stroke-width=".539" stroke-linecap="round" stroke-linejoin="round"/><path d="M11.27 99.734c-.098-.594.315-.628.751-.525a2.54 2.54 0 011.404.28c.628.323.117.544-.34.641-.518.109-1.69.347-1.814-.396z" fill="#42D2F2"/><path d="M11.513 99.585c-.061-.302.196-.32.466-.267.298-.024.601.028.871.142.39.165.073.278-.211.327-.321.056-1.049.177-1.126-.202z" fill="#fff"/><path d="M12.059 99.335c-.297-.07-.613-.082-.546.25.077.38.805.258 1.126.202.284-.05.602-.162.211-.327a1.856 1.856 0 00-1.012-.125" stroke="#4A5759" stroke-width=".539" stroke-linecap="round" stroke-linejoin="round"/><path d="M12.15 99.243c-.479-.138-.988-.161-.88.491.125.743 1.297.505 1.814.396.458-.097.97-.318.34-.641a2.505 2.505 0 00-1.63-.246" stroke="#4A5759" stroke-width=".539" stroke-linecap="round" stroke-linejoin="round"/><path d="M12.023 98.213c.037.272.398.504.592.665.406-.27.351-.59-.014-.87-.24-.186-.631-.182-.578.205z" fill="#fff"/><path d="M12.506 98.815c-.194-.162-.446-.33-.483-.602-.053-.387.338-.39.578-.206.365.282.524.68.119.95" stroke="#4A5759" stroke-width=".539" stroke-linecap="round" stroke-linejoin="round"/><path d="M13.84 99.108c-.113-.085.06-.447.094-.506.235.007.785.058.528.41-.091.126-.497.19-.621.096z" fill="#fff"/><path d="M13.935 98.6c-.031.051-.21.422-.095.508.125.093.53.03.622-.095.29-.399-.45-.412-.602-.412" stroke="#4A5759" stroke-width=".539" stroke-linecap="round" stroke-linejoin="round"/><path d="M21.42 97.425c-.792-1.45.365-2.372 1.564-2.886 1.17-.319 1.936.396 2.305 1.469.281.82.212 2.12-.769 2.435-1.123.361-2.497.088-3.1-1.017z" fill="#4A5759"/><path d="M22.984 94.538c-1.199.514-2.356 1.436-1.564 2.887.603 1.105 1.977 1.379 3.1 1.018.981-.316 1.05-1.616.769-2.436-.37-1.072-1.065-1.716-2.234-1.397" stroke="#4A5759" stroke-width=".539" stroke-linecap="round" stroke-linejoin="round"/><path d="M24.766 98.19c.084-.432.427-.551.813-.656.557-.108 1.175-.13 1.681.14.31.167.292.937 0 1.11-.592.349-1.535.275-2.146.047-.298-.112-.41-.329-.348-.642z" fill="#42D2F2"/><path d="M25.579 97.534c-.386.105-.73.224-.813.655-.061.313.05.53.348.642.611.228 1.554.302 2.146-.048.292-.172.31-.942 0-1.108-.603-.324-1.367-.229-1.995-.072" stroke="#4A5759" stroke-width=".539" stroke-linecap="round" stroke-linejoin="round"/><path d="M25.17 97.96c.124-.32.612-.28.879-.286.244.041.64.19.65.487.011.362-.659.266-.856.242-.177-.022-.782-.164-.673-.444z" fill="#fff" stroke="#4A5759" stroke-width=".539" stroke-linecap="round" stroke-linejoin="round"/><path d="M22.849 96.17c-.37-.617.881-.984 1.229-.835.486.209.777 1.438.014 1.453-.44.009-1.013-.234-1.243-.618z" fill="#fff"/><path d="M23.84 95.323c-.405-.045-1.361.23-.99.847.23.383.802.626 1.243.618.762-.015.44-1.11.174-1.465" stroke="#4A5759" stroke-width=".539" stroke-linecap="round" stroke-linejoin="round"/><path d="M21.958 97.56c-.24-.241-.173-.766.244-.836.208 0 .47.067.552.3.071.202.078.544-.135.67-.222.131-.495.03-.66-.135z" fill="#fff"/><path d="M21.915 96.82c-.093.29-.197.5.043.74.166.165.44.266.662.134.212-.125.205-.468.134-.669-.082-.233-.346-.235-.554-.277" stroke="#4A5759" stroke-width=".539" stroke-linecap="round" stroke-linejoin="round"/><path d="M24.124 97.46c-.59 0-.6.784.072.71.485-.055.23-.682-.072-.71z" fill="#fff"/><path d="M24.124 97.46c-.64.18-.6.784.071.71.486-.055.24-.467 0-.638" stroke="#4A5759" stroke-width=".539" stroke-linecap="round" stroke-linejoin="round"/></svg>