<svg width="540" height="203" fill="none" xmlns="http://www.w3.org/2000/svg"><path d="M21.069 81.667l7-1.667-2 15h-5V81.667z" fill="#D39264"/><path d="M33.502 76.5c3.963-7.975 14-18 14-18l4.5-3 17-5 19 1.5s14.307 5.093 20.5 12c4.608 5.14 8.5 15.5 8.5 15.5l6 22 2.5 24.5v18.5s-4.011 9.711-8.5 14.5c-5.864 6.255-19 11-19 11l-21 4-27-4s-15.238-7.451-21-16c-5.562-8.251-6.446-14.565-7-24.5-.622-11.126 5.5-28 5.5-28s1.531-16.009 6-25z" fill="#818181"/><path d="M34.136 179.805L43.256 167l18.24 6.146L57.949 188l-5.066-2.561v-5.634l-3.04 5.634h-6.587l2.533-7.683-5.573 5.122-6.08-3.073zM88.856 188l-2.533-14.854L103.636 169l6.5 6.195v4.61l-4.053 4.61-5.437 2.561-5.203-7.171L93.416 188h-4.56zM63.094 99l8-4.5 9 4.5-9 9-8-9zm-21.246 57.082c1.115 3.555 2.682 6.074 4.988 9.034 1.965 1.902 1.031 1.797 5.949 3.906 3.882 1.666 7.315 3.134 11.572 3.798 4.08.637 9.478 1.828 13.593.738 1.491-.395 3.071.075 4.569-.234 2.196-.453 4.483-.773 6.626-1.386 2.939-.84 4.932-2.62 7.495-3.978 4.059-4.27 6.845-8.538 7.891-13.823.284-1.436.525-5.212.604-6.614.093-1.632-10.056 3.136-10.056 1.427 0-2.605 7.481-10.937 8.478-13.314-.769-1.789-.735-2.336-1.329-4.196-.708-2.217-1.78-3.306-3.21-5.058-2.248-2.756-4.251-4.961-6.931-7.388-3.194-2.893-5.775-2.413-9.568-4.28-6.872-3.381-18.614-1.103-25.336 1.211-3.257 1.121-5.83 3.7-8.382 5.814-2.041 1.691-4.004 3.689-5.437 5.903a22.017 22.017 0 00-3.193 7.994c-.614 3.252 7.195 5.706 3.193 13.314.092.737-3.12-1.678-3.02-.951.369 2.72.668 5.414 1.504 8.083z" fill="#E5CEB1"/><path d="M45.001 149v-28.5l26-3 22 1 2 13h9l-9 16-28.5 2.5-21.5-1z" fill="#F2F2F2"/><path d="M44.39 168.107c-2.618 2.119-4.595 4.258-6.33 7.149-.757 1.261-3.096 3.876-3.096 5.35 0 1.01 4.76 3.207 5.418 2.573.783-.754 5.692-9.129 5.214-4.827-.176 1.583-3.548 7.635-.296 7.786 1.443.067 2.443.905 3.802 1.207 1.83.407 2.44-3.303 2.846-4.462.2-.572.715-3.237 1.775-3.119.255.028-.318 5.28-.318 5.691 0 2.355 2.767 2.891 4.917 2.277 1.8-.514 2.415-6.63 2.459-8.059.046-1.53 0-4.643 0-6.173m25.352.622c0 3.758.91 7.388 1.265 11.131.128 1.347.257 3.019 1.742 3.619.77.31 4.312.03 4.917-.55.906-.869.238-4.486.238-5.726 0-.501-.31-2.742.43-2.702 2.19.117 2.243 3.724 3.866 4.626.956.531 1.764 2.552 2.793 2.771 1.729.369 3.299-1.189 4.892-1.626 1.385-.379-.21-3.89-.811-4.534-.378-.406-.629-.947-.859-1.443-.071-.154-1.08-.985-.645-.985.55 0 1.452 2.79 1.934 3.252.735.705 1.998.878 3.007.825 6.148-.328-2.129-11.393-4.296-12.78" stroke="#9F4100" stroke-width="2" stroke-linecap="round" stroke-linejoin="round"/><path d="M45.498 60.824c2.596-2.42 5.114-4.703 8.73-5.876 3.142-1.153 5.403-2.562 8.77-3.124 3.338-.557 7.614-1.5 11-1.5 12.135 0 19.878 2.222 30 9 5.524 3.7 11.522 12.43 13 16.5 1.548 7.339 5.776 14.487 5.776 22.036 0 2.689 1.293 4.999 1.293 7.688 0 1.58 1.171 5.103 1.171 6.784 0 3.035-.11 3.311 0 5.428.203 3.917 1.197 6.036 1.478 9.95.266 3.701.472 5.813 0 9.497-1.252 9.779-5.361 16.417-11.507 22.893-6.228 6.563-14.484 10.054-23.524 12.185-5.228 1.231-9.985 1.714-15.395 1.483-4.82-.205-12.19.457-16.494-1.483-4.984-2.247-8.354-2.575-13.133-5.178-6.484-3.531-12.094-7.39-16.374-13.166-4.017-5.421-7.06-13.579-7.06-20.11 0-5.592.174-10.065 1.404-17.331 1.075-2.537 1.164-5.328 1.557-7.999.385-2.613 1.4-5.003 1.572-7.67.175-2.743 1.254-5.45 1.525-8.213.292-2.978.172-5.89 1.002-8.82 1.635-5.769 5.185-11.708 9.21-16.474l.107-.128c2.074-2.455 3.487-4.129 5.892-6.372z" stroke="#282E2F" stroke-width="3" stroke-linecap="round" stroke-linejoin="round"/><path d="M50.249 89.133c-2.532.438-3.571.692-4.496 2.98-.567 1.402.56 2.52 1.746 3.253 2.447 1.513 5.5.192 5.5-2.644 0-2.5-1.516-4.722-4.409-4.722-1.502 0-1.812.035-2.663 1.217-.652.906-1.716 2.182 0 2.182" stroke="#282E2F" stroke-width="2" stroke-linecap="round" stroke-linejoin="round"/><path d="M49.258 91.207c-6.259 3.173 2.705 3.286.507-.155-.68-1.064-2.437 1.19-2.612 2.022-.23 1.085.942 2.389 1.741 1.763.528-.413 2.004.035 2.004-.635 0-.784-.612-.713 0-.713 1.055 0 1.748-5.421.183-2.748" stroke="#282E2F" stroke-width="2" stroke-linecap="round" stroke-linejoin="round"/><path d="M49.709 88.668c-2.55-.408-3.631-.662-4.997 1.507-.437.694 0 3.017 0 3.825 0 2.405 5.244 2.03 6.583 1.786 2.083-.378 2.912-4.795 1.428-6.067-.626-.537-.345-.927-1.21-1.071-.325-.054-.97-.35-1.269-.516-1.285-.714-3.31-.04-4.461.536m47.653-.717c-2.81 1.228-5.469 4.528-2.934 6.919 1.272 1.2 4.028 1.713 5.298.173 2.325-2.82-.662-8.368-4.565-6.323-.443.232-2.328 1.603-.815.615.95-.62 2.653-1.584 3.831-.884 1.449.86 2.853 2.168 2.853 3.824 0 2.294 1.435-.878.916-2.248-.48-1.27-.52-1.468-1.996-1.903-.69-.203-2.239-.486-2.588.173" stroke="#282E2F" stroke-width="2" stroke-linecap="round" stroke-linejoin="round"/><path d="M96.369 90.026c-.99 0-2.98-.502-3.301.712-.26.977-.674 1.99.55 2.537 1.081.483 1.603-.436 1.019-1.327-.587-.893-3.128-1.39-3.912-.48-1.902 2.207 5.82 3.252 4.829-.596-.446-1.728-5.751.413-1.753.884" stroke="#282E2F" stroke-width="2" stroke-linecap="round" stroke-linejoin="round"/><path d="M93.329 88.122c-2.185.092-4.046 1.01-4.046 3.113 0 1.202.8 3.398 2.39 3.71 2.078.41 4.889.763 5.96-.945.645-1.028.281-4.18-.708-5.154-1.543-1.519-2.956-.895-5.073-.895" stroke="#282E2F" stroke-width="2" stroke-linecap="round" stroke-linejoin="round"/><path fill-rule="evenodd" clip-rule="evenodd" d="M99.633 109c-11.322 0-20.5-9.178-20.5-20.5S88.311 68 99.633 68s20.5 9.178 20.5 20.5-9.178 20.5-20.5 20.5zm0-4c-9.113 0-16.5-7.387-16.5-16.5S90.52 72 99.633 72s16.5 7.387 16.5 16.5-7.387 16.5-16.5 16.5zm-55.068 4c-10.806 0-19.567-9.178-19.567-20.5S33.758 68 44.565 68s19.568 9.178 19.568 20.5-8.76 20.5-19.568 20.5zm0-4c-8.698 0-15.749-7.387-15.749-16.5S35.867 72 44.566 72c8.698 0 15.749 7.387 15.749 16.5S53.264 105 44.565 105z" fill="#CECECE"/><path d="M120.133 95V81h6v14h-6z" fill="#D49264"/><path d="M71.59 94.324c-1.61 1.274-5.746 2.884-7.563 3.84-1.316.693-.385 2.372.699 3.336 1.934 2.663 3 3 5.88 6.451m.731-.366c2.36-1.989 4.74-4.009 6.924-6.193.624-.623 1.433-1.318 1.83-2.068.229-.431-.53-.617-.795-.774-1.86-1.1-5.205-2.726-7.705-4.226" stroke="#9F4100" stroke-width="2" stroke-linecap="round" stroke-linejoin="round"/><path d="M24.719 131.227c4.643 6.827 9.36 12.323 16.528 16.55.608.359 1.973 1.578 2.527.592.663-1.178 1.025-2.686 1.025-4.029 0-4.227-3.188-8.225-4.94-11.907-1.209-2.537-2.23-5.369-3.666-7.763" stroke="#536264" stroke-width="2" stroke-linecap="round" stroke-linejoin="round"/><path d="M44.8 119.753c.042 6.596-.226 13.292.022 19.875.091 2.417-.324 6.958-.324 9.372m.5-29.5c7.5-1 16.277-.828 24.251-1.386 5.651-.396 11.278-.41 16.938-.41 2.904 0 7.72-1.332 7.786 2.732.127 7.835.82 31.331.82 23.494m-51.633 5.737c5.732 0 11.444.954 17.165.797 7.404-.203 17.311.021 24.673-.797 3.604-.4 13.126-1.667 9.5-1.667" stroke="#536264" stroke-width="2" stroke-linecap="round" stroke-linejoin="round"/><path d="M110.365 125.899c-3.68 4.232-6.736 8.824-10.153 13.25-1.197 1.55-3.666 3.56-3.78 5.601-.05.903-1.175 1.484-1.229 2.458-.11 1.968 1.721 1.77 3.256 1.412 4.771-1.113 9.46-3.292 13.933-5.305 2.429-1.093 6.433-3.117 7.399-5.532" stroke="#536264" stroke-width="2" stroke-linecap="round" stroke-linejoin="round"/><path d="M26.499 80c-1.804-.064-4.04-.584-5.506.974-.98 1.042-.439 5.962-.492 7.464-.07 1.985-.112 3.686.19 5.591.325 2.054 3.21 1.143 4.188.81m95.32-14.426c1.349 0 6.967-.845 6.967 1.73v8.515c0 2.706.352 4.917-2.869 4.917" stroke="#FEFEFE" stroke-width="2" stroke-linecap="round" stroke-linejoin="round"/><path d="M66.81 92.507c-2.347-.236-1.141-3.144-.993-4.63 2.546.255 6.027.191 8.572.446 1.18.118 3.215-.344 4.241.036.844.312.41 2.931.352 3.513-.233 2.325-3.867 1.054-5.963.844-2.085-.209-4.14-.002-6.208-.21z" fill="#536264" stroke="#536264" stroke-width="2" stroke-linecap="round" stroke-linejoin="round"/><circle cx="99.633" cy="88.5" r="20.5" stroke="#FEFEFE" stroke-width="2" stroke-linecap="round" stroke-linejoin="round"/><circle cx="99.633" cy="88.5" r="16.5" stroke="#FEFEFE" stroke-width="2" stroke-linecap="round" stroke-linejoin="round"/><ellipse cx="45.065" cy="88.5" rx="20.067" ry="20.5" stroke="#FEFEFE" stroke-width="2" stroke-linecap="round" stroke-linejoin="round"/><ellipse cx="45.065" cy="88.5" rx="16.152" ry="16.5" stroke="#FEFEFE" stroke-width="2" stroke-linecap="round" stroke-linejoin="round"/><path d="M118.8 94.982c.985.211 5.198 0 7.198 0" stroke="#FEFEFE" stroke-width="2" stroke-linecap="round" stroke-linejoin="round"/><path d="M94.715 146.774c2.268-4.065 5.252-7.743 7.472-11.78.584-1.063 1.741-1.894 2.236-2.945.381-.809-2.99-.497-3.327-.491-1.807.034-5.4.491-5.4.491" stroke="#536264" stroke-width="2" stroke-linecap="round" stroke-linejoin="round"/><path d="M71.026 128l-.118.152c-.789 1.303.826 5.823 1.288 6.746.33.66 1.73 2.084.434 2.084-1.19 0-2.177.776-2.727 1.765-.626 1.127-.604 2.704-1.283.802-.294-.825-.097-1.843-.424-3.151-.447-1.787-3.442-2.84-4.075-2.845-.075.033-.117.05-.117.043 0-.029.042-.044.117-.043.51-.229 2.51-1.259 2.592-1.311 1.657-1.065 2.992-2.546 4.195-4.09a.797.797 0 01.118-.152z" fill="#F9D372"/><path d="M71.026 128c-1.233 1.598-2.602 3.142-4.313 4.242-.093.06-2.71 1.405-2.71 1.354 0-.278 3.693.802 4.193 2.802.327 1.308.13 2.326.424 3.151.68 1.902.657.325 1.283-.802.55-.989 1.538-1.765 2.727-1.765 1.296 0-.104-1.424-.434-2.084-.482-.964-2.221-5.847-1.17-6.898z" stroke="#536264" stroke-width="2" stroke-linecap="round" stroke-linejoin="round"/><path d="M3.118 184.745c3.875-.248 7.656.097 11.532.097.774.158 1.529.393 2.258.696.643.268 1.088.577 1.58 1.069.624.623 1.174 1.332 1.7 2.042.363.49.75 1.021 1.025 1.569.287.572.488 1.19.673 1.804.157.521.317 1.056.383 1.6.033.264.024.64.128.88.034.077.097.24.052.217l-6.24.386c-2.063 0-4.039-.214-6.072-.553-1.828-.304-3.483-.69-4.784-2.15-.925-1.038-5.404-7.455-2.235-7.657z" fill="#BAC3C5"/><path d="M14.845 184.759c-3.907 0-7.811-.239-11.718.008-3.195.202 1.32 6.605 2.253 7.641 1.313 1.457 2.98 1.841 4.824 2.146 2.05.338 4.041.551 6.12.551H22.9m-8.147-10.241c.78.158 1.541.392 2.277.695.649.267 1.096.575 1.593 1.066.629.622 1.184 1.33 1.714 2.038.365.489.756 1.018 1.033 1.566.29.571.492 1.187.678 1.799.159.521.32 1.055.387 1.597.033.263.024.639.129.878.034.077.097.24.052.217" stroke="#909798" stroke-width="3" stroke-linecap="round" stroke-linejoin="round"/><path d="M130.901 185.152c3.696 0 7.393.032 11.042.662.456.079 1.29.185 1.107.877-.29 1.103-1.396 2.318-2.103 3.125-1.267 1.446-3.188 2.523-4.889 3.332-2.006.955-4.306 1.771-6.539 1.839-1.763.055-3.528.079-5.291.147-1.129.043-2.232.407-3.358.407m10.284-10.361a14.59 14.59 0 01-1.659-.078 1.616 1.616 0 00-.881.145c-.881.408-1.892.538-2.826.779-1.802.467-2.876 2.416-3.441 4.107-.244.729-.411 1.469-.629 2.203-.079.265-.148.529-.229.792-.069.225-.051.494-.098.729-.032.162-.054.324-.093.485-.03.124-.151.214-.209.325-.104.197-.084.361-.084.589" stroke="#000" stroke-width="2" stroke-linecap="round" stroke-linejoin="round"/><path d="M141.943 185.798c-3.649-.616-7.346-.647-11.042-.647-.555 0-.854.012-1.406-.049a1.651 1.651 0 00-.881.141c-.881.399-1.892.526-2.826.762-1.802.456-2.876 2.36-3.441 4.012-.244.712-.411 1.435-.629 2.153-.079.258-.148.515-.229.773-.069.219-.051.483-.098.712-.032.158-.054.317-.093.474-.03.121-.151.209-.209.318-.078.144-.162.56-.199.854 1.119-.005 2.216-.357 3.338-.399 1.763-.066 3.528-.09 5.291-.143 2.233-.067 4.533-.864 6.539-1.797 1.701-.79 3.622-1.842 4.889-3.255.707-.788 1.813-1.975 2.103-3.052.183-.677-.651-.781-1.107-.857z" fill="#BAC3C5"/><path d="M120.87 195.301c1.126 0 2.229-.357 3.358-.399 1.763-.066 3.528-.09 5.291-.143 2.233-.067 4.533-.864 6.539-1.797 1.701-.79 3.622-1.842 4.889-3.255.707-.788 1.813-1.975 2.103-3.052.183-.677-.651-.781-1.107-.857-3.649-.616-7.346-.647-11.042-.647-.555 0-.854.012-1.406-.049a1.651 1.651 0 00-.881.141c-.881.399-1.892.526-2.826.762-1.802.456-2.876 2.36-3.441 4.012-.244.712-.411 1.435-.629 2.153-.079.258-.148.515-.229.773-.069.219-.051.483-.098.712-.032.158-.054.317-.093.474-.03.121-.151.209-.209.318-.104.192-.219.871-.219 1.094" stroke="#909798" stroke-width="3" stroke-linecap="round" stroke-linejoin="round"/><path d="M7.516 121.238c.3-1.869.989-3.2 1.967-4.554 1.196-1.458 1.988-2.936 3.923-3.397 1.157-.275 2.614-.306 3.81-.429 2.93-.302 6.105.167 9.058.167 6.602 0 13.212.214 19.818.214 3.39 0 6.733.462 10.136.43l.073-.001c3.51-.033 7.096-.067 10.603-.226 6.12-.277 12.236.481 18.368.215 1.634-.071 3.2-.555 4.84-.62 2.136-.085 4.188-.354 6.311-.631l.016-.002c3.072-.401 6.181-.239 9.273-.239 2.878 0 5.746-.281 8.627-.214 2.526.058 5.002.429 7.537.429 4.005 0 7.952.05 11.874 1.027 2.964.738 6.368 1.887 5.775 5.728-.637 4.123-.449 8.249-.827 12.387-.529 5.791-1.401 11.529-1.881 17.327-.501 6.035-1.882 11.912-2.42 17.948-.527 5.904-1.977 11.579-3.343 17.327-.995 4.182-2.036 8.529-6.578 9.929-1.058.326-1.893.838-3.02 1.026a32.438 32.438 0 01-4.409.43c-2.153.064-4.294.638-6.446.811-2.135.173-4.318.048-6.458.048-4.461 0-8.981.192-13.42-.322-3.41-.395-6.91-.031-10.34-.274-3.729-.266-6.277.386-10.017-.08-4.269-.265-8.536-.061-12.808-.007-2.556.032-5.108-.127-7.664-.127-2.24 0-4.493.181-6.73.104-3.469-.117-6.946-.284-10.415-.364-1.37-.032-2.688-.35-4.052-.432-2.62-.158-5.237-.363-7.858-.514-3.009.166-3.079-.942-4.23-3.663-1-2.368-1.185-5.226-1.736-7.723-1.771-8.028-2.5-16.423-3.255-24.598-.619-6.714-1.31-13.545-2.653-20.159-.7-3.453-1.612-7.234-1.709-10.76-.057-2.059-.068-4.17.26-6.211z" fill="#BAC3C5"/><path d="M10.688 115.136c-1.619 1.988-2.76 3.538-3.172 6.102-.328 2.041-.317 4.152-.26 6.211.097 3.526 1.008 7.307 1.71 10.76 1.342 6.614 2.033 13.445 2.652 20.159.754 8.175 1.484 16.57 3.255 24.598.551 2.497.736 5.355 1.737 7.723 1.15 2.721 1.22 3.829 4.229 3.663 2.62.151 5.238.356 7.858.514 1.364.082 2.682.4 4.052.432 3.47.08 6.946.247 10.416.364 2.236.077 4.49-.104 6.729-.104 2.556 0 5.108.159 7.664.127 4.272-.054 8.539-.258 12.807.007 3.74.466 6.29-.186 10.018.08 3.43.243 6.93-.121 10.34.274 4.439.514 8.959.322 13.42.322 2.14 0 4.323.125 6.458-.048 2.152-.173 4.293-.747 6.446-.811a32.438 32.438 0 004.409-.43c1.127-.188 1.962-.7 3.02-1.026 4.542-1.4 5.583-5.747 6.578-9.929 1.366-5.748 2.816-11.423 3.343-17.327.538-6.036 1.919-11.913 2.42-17.948.48-5.798 1.352-11.536 1.881-17.327.378-4.138.19-8.264.827-12.387.593-3.841-2.811-4.99-5.775-5.728-3.922-.977-7.869-1.027-11.874-1.027-2.535 0-5.011-.371-7.537-.429-2.881-.067-5.749.214-8.627.214-3.092 0-6.201-.162-9.273.239l-.016.002c-2.123.277-4.175.546-6.31.631-1.641.065-3.207.549-4.841.62-6.132.266-12.248-.492-18.368-.215-3.507.159-7.094.193-10.603.226l-.073.001c-3.403.032-6.746-.43-10.136-.43-6.606 0-13.216-.214-19.818-.214-2.953 0-6.128-.469-9.058-.167-1.196.123-2.653.154-3.81.429-1.935.461-2.727 1.939-3.923 3.397" stroke="#909798" stroke-width="3" stroke-linecap="round" stroke-linejoin="round"/><path d="M64.384 149.706c.546-2.808 2.775-4.503 5.216-5.62.63-.197 1.292-.36 1.948-.36.736 0 1.462.302 2.2.355 2.2.157 3.256.839 4.526 2.574.781 1.069 1.567 1.889 1.874 3.224.202.882.235 1.825.226 2.726-.019 2.032-.866 4.069-2.463 5.39-2.767 2.289-8.471 2.643-11.01-.075-1.82-1.949-3.031-5.567-2.517-8.214z" fill="#192825"/><path d="M69.629 144.073c-2.453 1.117-4.697 2.814-5.245 5.633-.514 2.647.696 6.265 2.517 8.214 2.539 2.718 8.243 2.364 11.01.075 1.597-1.321 2.444-3.358 2.463-5.39.009-.901-.024-1.844-.226-2.726-.306-1.335-1.093-2.155-1.874-3.224-1.27-1.735-2.326-2.417-4.527-2.574-.737-.053-1.463-.355-2.199-.355-.79 0-1.587.237-2.327.483" stroke="#000" stroke-linecap="round" stroke-linejoin="round"/><path d="M76.432 147.596c-1.263-.349-2.885.56-4.015 1.047a.98.98 0 00.105.272c.056.096.097.213.143.315.056.12.098.239.137.365.035.11.055.222.078.335.016.085.07.157.102.237.023.057.05.131.105.166a.46.46 0 00.189.021c.182-.022.309-.137.47-.215.144-.071.256-.149.418-.181.208-.041.414-.073.626-.082a3.18 3.18 0 01.526.019c.118.014.233.052.35.071.094.015.172.049.26.075a.335.335 0 01.068.029c.649-.562 1.651-2.139.438-2.474z" fill="#B1C9AB"/><path d="M75.38 148.605l-.831.72m-2.001-.997c1.131-.487 2.629-1.052 3.891-.703 1.214.335.523 1.625-.126 2.187m-.16.37c-.078-.031-.14-.088-.22-.112-.087-.026-.166-.059-.26-.074-.117-.019-.232-.058-.35-.072a3.18 3.18 0 00-.526-.019 4.125 4.125 0 00-.626.082c-.162.032-.274.11-.418.181-.16.079-.288.193-.47.216a.48.48 0 01-.188-.022c-.055-.034-.083-.108-.106-.166-.031-.079-.085-.152-.102-.237-.022-.113-.043-.224-.078-.335a3.097 3.097 0 00-.136-.365c-.047-.101-.087-.219-.144-.315a.968.968 0 01-.105-.272" stroke="#2D433F" stroke-linecap="round" stroke-linejoin="round"/><path d="M67.829 149.395c-.241-.464-1.166-1.785-.999-2.412.192-.721 2.036-.151 2.442-.024 1.557.484 3.51 1.466 3.84 3.216.032-.019.041-.023 0 .002v-.002c-.067.04-.233.141-.26.16-.047.037-.107.057-.156.093-.11.08-.244.113-.374.144h-.002c-.13.032-.36 0-.467-.087a2.85 2.85 0 01-.35-.329c-.109-.126-.218-.28-.351-.382-.097-.074-.19-.15-.292-.218-.126-.085-.257-.14-.392-.209a1.416 1.416 0 00-.473-.135c-.249-.034-.497-.075-.746-.102a2.533 2.533 0 00-.633.021c-.112.017-.237.028-.343.072-.149.064-.291.137-.444.192z" fill="#B1C9AB"/><path d="M67.73 149.278c-.24-.464-1.064-1.691-.897-2.318.192-.721 2.037-.15 2.442-.024 1.557.484 3.512 1.466 3.84 3.218m-5.283-.782c.153-.055.295-.128.445-.191.105-.045.23-.056.342-.073.211-.031.421-.043.633-.02.25.026.498.067.746.101.172.024.318.056.473.135.135.069.266.124.392.209.102.068.195.145.292.218.134.102.242.256.352.382.104.12.225.228.349.329.107.087.338.119.468.087h0c.131-.031.265-.064.376-.144.048-.036.108-.056.156-.093a.705.705 0 01.134-.081m-3.943-2.39l.448.75" stroke="#2D433F" stroke-linecap="round" stroke-linejoin="round"/><path d="M71.635 149.36a3.28 3.28 0 011.204 1.441c.587-1.61 1.988-1.157 3.28-.698 1.292.459 1.828 2.241 1.588 3.475-.586 3.019-3.069 4.203-5.822 4.505-1.635-.824-3.12-1.635-4.02-3.326-.924-1.738-.603-3.258.335-4.891.619-1.077 2.464-1.146 3.435-.506z" fill="#E0BEA2"/><path d="M73.277 152.935c-.02-1.37-.356-2.788-1.642-3.594-.971-.61-2.816-.544-3.435.481-.939 1.555-1.259 3.003-.334 4.659.904 1.617 2.398 2.389 4.043 3.178m.957-7.086c.587-1.533 1.961-.962 3.253-.525 1.292.437 1.828 2.135 1.588 3.31-.594 2.914-3.137 4.033-5.935 4.302" stroke="#CB906D" stroke-linecap="round" stroke-linejoin="round"/><path d="M18.754 170.422l1.548 19.73" stroke="#4A5759"/><path d="M17.302 171.313c-.171-2.717-.756-5.363-1.206-8.042-.054-.537.018-.981.647-1.278.523-.247 1.307-.034 1.852.103 1.273.318 2.649.17 3.91.558.837.258 1.73.069 2.588.265.97.222 1.943.42 2.91.661 2.037.509 3.88 1.452 5.617 2.588 1.534 1.003 2.748.672 4.44.25 2-.501 3.94-.89 6.012-.853 4.726.084 4.076 5.49 5.417 8.585.67 1.547 1.746 2.978 2.507 4.499.78 1.561.992 3.559 1.124 5.277.162 2.096-.938 4.019-.779 6.087.058.755.53 1.593.302 2.374-.153.521-1.387.301-1.78.301-.872 0-1.745-.117-2.609-.117-1.441 0-2.96.533-4.388.374-.875-.097-1.748-.311-2.624-.389-1.325-.118-2.678-.026-3.991-.199-2.848-.374-5.794-.066-8.666-.066-1.358 0-2.728-.059-4.08.066-1.157.108-3.485.098-4.454-.595-1.296-1.413-1.383-3.223-1.558-5.086-.203-2.15-.283-4.304-.456-6.454-.24-2.97-.548-5.936-.735-8.909z" fill="#fff"/><path d="M16.081 163.184c.452 2.709 1.048 5.383 1.22 8.129.188 2.973.496 5.939.736 8.909.173 2.15.253 4.304.456 6.454.175 1.863.262 3.673 1.558 5.086m-3.837-27.652c-.11-.911-.405-1.676.53-2.117.522-.247 1.306-.034 1.851.103 1.273.318 2.649.17 3.91.558.837.258 1.73.069 2.588.265.97.222 1.943.42 2.91.661 2.037.509 3.88 1.452 5.617 2.588 1.534 1.003 2.748.672 4.44.25 2-.501 3.94-.89 6.012-.853 4.726.084 4.076 5.49 5.417 8.585.67 1.547 1.746 2.978 2.507 4.499.78 1.561.992 3.559 1.124 5.277.162 2.096-.938 4.019-.779 6.087.058.755.53 1.593.302 2.374-.153.521-1.387.301-1.78.301-.872 0-1.745-.117-2.609-.117-1.441 0-2.96.533-4.388.374-.875-.097-1.748-.311-2.624-.389-1.325-.118-2.678-.026-3.991-.199-2.848-.374-5.794-.066-8.666-.066-1.358 0-2.728-.059-4.08.066-1.157.108-2.69.23-3.66-.463" stroke="#C4C4C4" stroke-linecap="round" stroke-linejoin="round"/><path d="M20.222 170.877c-.538-.152-1.119-.275-1.561-.424.246 2.279.517 4.555.746 6.837.23 2.308.535 4.625.66 6.942.11 2.038.315 4.13.878 6.096.308.857 1.274.764 2.063.764 1.222 0 2.471-.08 3.689.029 2.342.209 4.696.088 7.034-.177 1.095-.125 2.247-.089 3.348-.089 1.994 0 3.993.013 5.986.059 1.586.037 3.167.005 4.753.001 1.41-1.409 3.607-6.074 3.607-8.053a8.504 8.504 0 00-.794-3.587c-.742-1.571-1.678-2.289-3.175-3.175 0-2.413-.705-5.527-1.588-7.748-.5-1.257-1.183-1.402-2.5-1.279-2.006.189-4.106 1.293-6.094 1.617a12.597 12.597 0 00-1.535-.565c-1.51-.447-3.3-.235-4.83-.096-1.895.172-3.869.224-5.725.661-1.671.394-3.613 1.048-4.962 2.187z" fill="#9AD5AF"/><path d="M35.002 176.076c-2.693-1.645-4.24-4.765-5.204-7.635.199-.1.45-.116.67-.143.169-.021.339-.04.507-.068.167-.028.338-.064.507-.07.227-.007.452-.009.678-.011.246-.002.491-.032.737-.032h.783c.273 0 .546.032.819.032.226 0 .46.02.685.043.29.031.586.086.87.145.286.06.568.12.849.195.3.08.628.18.856.408.092.092.191.176.284.267l.115.111c.044.043.091.069.137.106.095.075.207.151.26.258 0 1.561-.47 3.286-1.348 4.586-.382.565-1.326 2.345-2.205 1.808z" fill="#59946E"/><path d="M29.841 168.608c.963 2.87 2.468 5.823 5.16 7.468.88.538 1.824-1.243 2.205-1.808.879-1.299 1.368-2.775 1.368-4.337" stroke="#4A5759" stroke-linecap="round" stroke-linejoin="round"/><path d="M27.826 188.256c-.845.809-1.244 1.807-1.721 2.927h7.424c.054-.441.578-1.75.14-2.037-.344-.225-1.006.15-1.41.063-.994-.214.209-2.261-1.6-1.462-.229.101-1.44 1-1.476.334-.008-.149.098-.82-.147-.763-.424.098-.901.642-1.21.938z" fill="#9AD5AF"/><path d="M26.424 173.908c.686-.961 1.478-1.272 2.624-1.463.54.539 2.182 2.107 1.771 3.021-.304.676-2.433.31-2.991.257-1.047-.1-2.267-.607-1.404-1.815z" fill="#59946E"/><path d="M29.048 172.445c-1.146.191-1.938.502-2.624 1.463-.863 1.208.357 1.715 1.404 1.815.558.053 2.687.419 2.991-.257.411-.914-1.1-2.349-1.639-2.889m2.779 11.644c2.236 1.075 5.265 1.217 7.012-.53m-12.966 6.88c.476-1.036.98-1.604 1.823-2.352.307-.273.782-.777 1.205-.867.244-.052.139.568.147.705.036.617 1.243-.215 1.47-.308 1.803-.739.604 1.154 1.595 1.352.402.081 1.062-.267 1.404-.059.437.266-.048 1.783-.103 2.191" stroke="#4A5759" stroke-linecap="round" stroke-linejoin="round"/><path d="M42.404 189.454c.214.456.322 1.298.376 1.785 2.627 0 5.253-.042 7.875-.044-.492-.925-.888-1.768-1.827-2.336-.594-.359-1.2-.688-1.786-1.058-.452-.286-1.13-.647-1.69-.522-.311.069.062.485-.236.485-.375 0-1.96-.65-2.088-.088-.07.305.224.919-.073 1.146-.111.085-.823.147-.823.294 0 .081.241.274.272.338z" fill="#9AD5AF"/><path d="M42.675 190.969c-.054-.488-.057-1.059-.271-1.515-.031-.064-.272-.257-.272-.338 0-.147.712-.209.823-.294.297-.227.004-.841.073-1.146.128-.562 1.713.088 2.088.088.298 0-.075-.416.235-.485.56-.125 1.239.236 1.69.522.588.37 1.194.699 1.787 1.058.996.602 1.381 1.515 1.918 2.507" stroke="#4A5759" stroke-linecap="round" stroke-linejoin="round"/><path d="M25.215 168.445c-1.659-1.659-5.21-2.224-7.208-3.331.007 1.424.221 3.103.525 4.502.144.666.036.741.645.903.325.087 1.395.102 1.643-.094.45-.355.905-.683 1.42-.94.487-.243 1-.392 1.514-.562.479-.159 1.04-.224 1.461-.478z" fill="#9FDB82"/><path d="M18.048 163.203c.139.053.263.14.388.224.429.214.917.284 1.355.503.306.153.687.189 1.015.281.36.101.74.162 1.094.285.33.114.691.147 1.027.231.368.092.774.034 1.146.103.334.062.678.064 1.015.104.244.03.478.109.72.139.288.036.554.162.838.207.398.064.798.154 1.2.154.193 0 .364.056.555.083.174.025.337.058.5.123.148.059.301.106.451.16.138.049.277.13.418.169.227.063.383.259.571.391.222.157.406.362.632.514.088.06.15.164.237.212a.756.756 0 01.206.168c.11.155.337.42.122.592-.054.043-.26.054-.328.057-.115.006-.227.043-.34.052-.303.021-.61.137-.91.194-.566.107-1.158.19-1.733.218-.303.016-.66.037-.953.115-.252.066-.518.068-.772.128-.274.065-.603.149-.886.103-.157-.025-.409-.022-.538-.128-.118-.097-.216-.174-.312-.296-.157-.201-.448-.353-.654-.502-.39-.279-.79-.462-1.219-.667-.312-.149-.651-.244-.954-.413-.178-.099-.377-.143-.566-.218-.29-.116-.59-.215-.872-.348-.485-.227-.972-.481-1.476-.661-.085-.031-.153-.083-.242-.103a2.322 2.322 0 01-.509-.168c-.391-.196-.36-.523-.36-.921 0-.334.099-.756-.052-1.065-.025-.052-.129-.197-.02-.109.044.035.15.067.206.089z" fill="#9FDB82"/><path d="M19.125 163.712c2.277 1.111 4.79.995 7.247 1.39 1.733.278 4.278.881 5.322 2.447M18.727 165.3c1.998 1.107 4.692 1.252 6.351 2.911m-5.953 2.25c.714.241 1.44.456 2.116.794m-.396-.794c1.348-1.14 2.783-1.326 4.454-1.72 1.856-.438 3.83-.489 5.726-.662 1.53-.139 3.319-.351 4.83.096 1.672.494 3.134 1.328 4.571 2.286m-2.91-2.514c1.988-.325 3.961-.634 5.968-.823 1.316-.124 1.999.021 2.499 1.279.883 2.221 1.72 4.673 1.72 7.085m-.132.662c1.497.886 2.433 1.604 3.175 3.175a8.508 8.508 0 01.794 3.587c0 1.979-.708 4.398-2.117 5.807" stroke="#4A5759" stroke-linecap="round" stroke-linejoin="round"/><path d="M22.873 177.472c-2.336 1.168-2.396 4.535-.97 6.351 1.825.913 4.175 1.625 6.1.662 1.835-.918 1.885-3.416 1.104-5.043-1.098-2.283-3.976-3.099-6.234-1.97z" fill="#4A5759"/><path d="M21.903 183.823c-1.426-1.816-1.366-5.183.97-6.351 2.258-1.129 5.136-.313 6.233 1.97.782 1.627.732 4.125-1.102 5.043-1.926.963-4.144.515-5.969-.397" stroke="#4A5759" stroke-linecap="round" stroke-linejoin="round"/><path d="M24.637 180.574c-.514-.89.012-1.423.748-1.813 1.74-1.411 3.41 2.265 2.046 2.842-.816.345-2.366-.289-2.794-1.029z" fill="#fff"/><path d="M25.476 178.663c-.736.39-1.353 1.021-.838 1.911.427.74 1.977 1.374 2.793 1.029 1.374-.582-.333-4.312-2.088-2.808" stroke="#4A5759" stroke-linecap="round" stroke-linejoin="round"/><path d="M21.065 185.132c-.184-1.102.584-1.165 1.393-.974a4.72 4.72 0 012.606.518c1.166.601.218 1.011-.633 1.191-.96.203-3.136.645-3.366-.735z" fill="#42D2F2"/><path d="M21.515 184.857c-.114-.562.362-.594.865-.497a3.492 3.492 0 011.617.264c.724.306.136.515-.392.607-.597.104-1.948.329-2.09-.374z" fill="#fff"/><path d="M22.528 184.392c-.551-.13-1.139-.152-1.013.465.142.703 1.493.478 2.09.374.527-.092 1.116-.301.392-.607a3.454 3.454 0 00-1.88-.232" stroke="#4A5759" stroke-linecap="round" stroke-linejoin="round"/><path d="M22.697 184.221c-.888-.256-1.834-.299-1.632.911.23 1.38 2.406.938 3.366.735.85-.18 1.8-.59.633-1.191-.937-.481-2.005-.66-3.029-.455" stroke="#4A5759" stroke-linecap="round" stroke-linejoin="round"/><path d="M22.462 182.309c.07.506.738.935 1.099 1.235.753-.502.652-1.094-.026-1.617-.445-.343-1.172-.336-1.073.382z" fill="#fff"/><path d="M23.358 183.427c-.36-.3-.827-.612-.896-1.118-.099-.718.628-.725 1.073-.382.678.523.973 1.262.22 1.764" stroke="#4A5759" stroke-linecap="round" stroke-linejoin="round"/><path d="M25.836 183.971c-.211-.159.109-.831.173-.939.436.013 1.457.107.98.762-.169.233-.923.35-1.153.177z" fill="#fff"/><path d="M26.011 183.028c-.058.095-.389.782-.175.943.23.173.984.056 1.154-.177.538-.74-.836-.764-1.118-.764" stroke="#4A5759" stroke-linecap="round" stroke-linejoin="round"/><path d="M39.904 180.847c-1.469-2.694.678-4.405 2.904-5.358 2.17-.592 3.593.735 4.278 2.727.523 1.521.395 3.935-1.426 4.52-2.085.67-4.637.162-5.756-1.889z" fill="#4A5759"/><path d="M42.808 175.488c-2.226.954-4.373 2.665-2.904 5.359 1.12 2.051 3.671 2.559 5.756 1.889 1.82-.586 1.949-2.999 1.426-4.521-.685-1.991-1.976-3.186-4.146-2.594" stroke="#4A5759" stroke-linecap="round" stroke-linejoin="round"/><path d="M46.115 182.265c.157-.801.793-1.022 1.51-1.217 1.033-.199 2.182-.242 3.121.262.575.308.542 1.738 0 2.058-1.099.648-2.85.512-3.984.088-.554-.207-.76-.61-.647-1.191z" fill="#42D2F2"/><path d="M47.625 181.048c-.717.195-1.353.416-1.51 1.217-.113.581.093.984.647 1.191 1.134.424 2.885.56 3.984-.088.542-.32.575-1.75 0-2.058-1.12-.601-2.538-.424-3.704-.132" stroke="#4A5759" stroke-linecap="round" stroke-linejoin="round"/><path d="M46.865 181.839c.23-.592 1.137-.52 1.632-.529.454.075 1.187.351 1.205.904.023.672-1.22.493-1.587.448-.328-.04-1.452-.304-1.25-.823z" fill="#fff" stroke="#4A5759" stroke-linecap="round" stroke-linejoin="round"/><path d="M42.558 178.517c-.687-1.145 1.636-1.826 2.28-1.55.903.387 1.444 2.67.028 2.697-.818.016-1.881-.435-2.308-1.147z" fill="#fff"/><path d="M44.395 176.944c-.75-.084-2.525.427-1.837 1.573.427.711 1.49 1.162 2.308 1.146 1.416-.027.819-2.058.323-2.719" stroke="#4A5759" stroke-linecap="round" stroke-linejoin="round"/><path d="M40.904 181.096c-.446-.446-.321-1.421.453-1.55.386 0 .871.125 1.024.558.132.374.145 1.009-.25 1.242-.412.244-.92.057-1.227-.25z" fill="#fff"/><path d="M40.823 179.722c-.172.539-.366.928.08 1.375.307.306.815.494 1.228.25.394-.233.382-.869.25-1.243-.153-.433-.642-.437-1.029-.514" stroke="#4A5759" stroke-linecap="round" stroke-linejoin="round"/><path d="M44.925 180.913c-1.095 0-1.113 1.454.132 1.315.901-.1.426-1.264-.132-1.315z" fill="#fff"/><path d="M44.924 180.913c-1.186.332-1.112 1.454.133 1.315.9-.1.445-.865 0-1.183" stroke="#4A5759" stroke-linecap="round" stroke-linejoin="round"/><path d="M176.343 128.723c.144.074.288.146.424.221a2.379 2.379 0 01-.424-.221c-.412-.209-.834-.426-1.139-.729-.463-.459-.08-.896.588-.958 1.365-.125 2.282.07 3.462.628.441.208.839.491 1.198.787-.967-.338-2.466-.436-3.615-.476-1.255-.043-.994.42-.494.748z" fill="#F9F6EF"/><path d="M180.452 128.451a5.797 5.797 0 00-1.198-.787c-1.18-.558-2.097-.753-3.462-.628-.668.062-1.051.499-.588.958.412.409 1.036.661 1.563.95-.68-.269-1.517-1.023.07-.969 1.149.04 2.648.138 3.615.476zm0 0c.227.187.293.363.548.363" stroke="#C8BFB6" stroke-width=".6" stroke-linecap="round" stroke-linejoin="round"/><path d="M172.583 130.348c.216.007.45.152.653.213.163 0 .237.06.399.064.318.007.633.021.951.021.432 0 .879.048 1.308.107.607.082 1.222.092 1.831.149.933.087 1.882.149 2.819.102.325-.017.649-.015.974-.017.341-.002.686-.046 1.028-.059 1.27-.049 2.542-.015 3.813-.064a55.801 55.801 0 012.126-.047c.893 0 1.777-.096 2.668-.107.415-.005.88-.117 1.261-.272.317-.129.713-.304 1.062-.192.426.136.644.459.785.848.089.245.158.487.092.741-.118.461-.619.513-1.013.606-.326.077-.659.083-.991.128-.331.045-.659-.023-.989-.043-.346-.02-.7-.011-1.045.012-.293.021-.583.067-.877.069-.28.002-.559-.002-.838 0-.339.002-.676.039-1.014.059-.365.022-.724-.001-1.086.069-.288.055-.552.126-.85.128-.368.002-.734.021-1.101.021-.897 0-1.793.021-2.69.021-.74 0-1.487-.015-2.226.026l-.02.002c-.581.033-1.179.067-1.761.032-.425-.026-.842-.104-1.267-.128-.359-.021-.708-.059-1.069-.059-.561 0-1.118-.086-1.676-.086-.451 0-.895-.042-1.345-.042-.275 0-.553-.019-.828-.038-.129-.009-.321.024-.409-.09-.186-.241-.222-.582-.188-.874.04-.336.053-.734.368-.938.129-.083.234-.159.346-.26.118-.107.274-.102.426-.102.124 0 .249-.004.373 0z" fill="#C4631F"/><path d="M172.455 190.874c.243 0 .48.091.707.166.214.078.451.193.671.261.404.126.739.376 1.139.512.234.08.477.125.716.188.195.05.403.072.59.143.541.207 1.145.329 1.711.44.474.093.943.223 1.423.285.406.052.823.073 1.232.1.699.047 1.407.041 2.107.065 1.819.062 3.641.001 5.461.001.528 0 1.055.024 1.584.024.339 0 .696.031 1.033-.013a8.578 8.578 0 011.111-.058c.325 0 .638-.068.959-.072.542-.006 1.107-.108 1.642-.19.452-.069.896-.131 1.33-.271.13-.043.338-.019.357.13.028.217-.031.421-.05.639-.016.19-.056.399-.225.519-.094.066-.206.105-.3.172-.073.053-.129.131-.213.165-.142.059-.292.098-.435.155-.164.065-.352.053-.526.06a6.701 6.701 0 00-.774.094c-.643.108-1.308.016-1.925.232a3.644 3.644 0 01-.749.167c-.894.114-1.797.087-2.69.195-.799.096-1.599.071-2.403.071-.873 0-1.74-.018-2.612-.066-1.351-.073-2.748.016-4.055-.372-.433-.128-.869-.223-1.295-.375-.407-.144-.839-.242-1.257-.34-.39-.092-.757-.243-1.138-.356-.412-.123-.814-.319-1.197-.51-.117-.058-.217-.156-.342-.195-.122-.039-.239-.11-.348-.174-.088-.053-.197-.07-.293-.101-.144-.046-.285-.098-.433-.136-.331-.085-.746-.287-.869-.618-.064-.174-.138-.584.013-.747.105-.115.183-.19.343-.19z" fill="#C4631F" stroke="#C4631F" stroke-width=".2" stroke-linecap="round" stroke-linejoin="round"/><path d="M172.262 129.395c.32-.464.97-.486 1.558-.427.091.005.184.017.278.033.463.08.95.263 1.398.225.698-.058 1.406-.16 2.106-.16 1.777 0 3.543-.082 5.32-.082.843 0 1.688-.017 2.531 0 .604.012 1.166.095 1.786.018.584-.072 1.237.084 1.82.142.795.078 1.645.087 2.443.087.567 0 1.899-.108 1.381.905-.254.496-1.64.468-2.06.489-2.574.13-5.143.394-7.72.187-2.658-.214-5.349.012-8.003-.224-.941-.084-2.147.319-2.973-.343-.286-.229-.018-.629.135-.85z" fill="#E0BEA2"/><path d="M174.57 129.066c-.653-.079-1.836-.354-2.308.329-.153.221-.421.621-.135.85.826.662 2.032.259 2.973.343 2.654.236 5.345.01 8.003.224 2.577.207 5.146-.057 7.72-.187.42-.021 1.806.007 2.06-.489.518-1.013-.814-.905-1.381-.905-.798 0-1.648-.009-2.443-.087-.583-.058-1.236-.214-1.82-.142-.62.077-1.182-.006-1.786-.018-.843-.017-1.688 0-2.531 0-1.777 0-3.543.082-5.32.082-.7 0-1.408.102-2.106.16-.539.045-1.144-.131-1.684-.16" stroke="#CB906D" stroke-linecap="round" stroke-linejoin="round"/><path d="M195.183 195.426c.374-.443.546-.906.658-1.409-.064-.063-.128-.13-.204-.174-.227-.13-.583.086-.81.146-.6.159-1.217.221-1.815.392-.472.134-.953.269-1.435.34-.541.081-1.086.082-1.628.146a17.53 17.53 0 01-2.058.146c-.758 0-1.516-.078-2.274-.078-.769 0-1.534.105-2.303.119-.738.014-1.467-.113-2.201-.167-.748-.056-1.522.011-2.262-.137-1.051-.209-2.082-.742-3.086-1.155-.503-.206-1.015-.396-1.486-.693-.359-.226-.723-.441-1.11-.593-.232-.091-.47-.22-.716-.151-.117.033-.296.057-.366.195-.123.245-.079.68-.078.959.392.78.774 1.336 1.586 1.727.449.217.953.348 1.415.55.44.193.903.239 1.364.36 1.048.275 2.134.499 3.216.584.976.077 1.929.297 2.908.353 3.187.184 6.396.183 9.564-.295 1.006-.152 2.41-.322 3.121-1.165z" fill="#E0BEA2"/><path d="M196 193.111c-.139.874-.23 1.618-.817 2.315-.711.843-2.115 1.013-3.121 1.165-3.168.478-6.377.479-9.564.295-.979-.056-1.932-.276-2.908-.353-1.082-.085-2.168-.309-3.216-.584-.461-.121-.924-.167-1.364-.36-.462-.202-.966-.333-1.415-.55-.819-.394-1.2-.955-1.595-1.745m.009.061c.004-.276-.052-.744.078-1.002.07-.138.249-.162.366-.195.246-.069.484.06.716.151.387.152.751.367 1.11.593.471.297.983.487 1.486.693 1.004.413 2.035.946 3.086 1.155.74.148 1.514.081 2.262.137.734.054 1.463.181 2.201.167.769-.014 1.534-.119 2.303-.119.758 0 1.516.078 2.274.078.686 0 1.375-.065 2.058-.146.542-.064 1.087-.065 1.628-.146.482-.071.963-.206 1.435-.34.598-.171 1.215-.233 1.815-.392.227-.06.583-.276.81-.146.077.044.143.114.208.178.031.03.115.107.136.155.061.145-.041.003-.029.141" stroke="#CB906D" stroke-linecap="round" stroke-linejoin="round"/><path d="M195.609 137.477c-.116-1.807-.191-3.861-.934-5.504-.245.079-.494.15-.742.227-.675.21-1.32.295-2.047.35-2.129.161-4.274.157-6.41.172-1.968.015-3.931.002-5.896.078-2.853.111-5.692-.072-8.521-.358v13.66a57 57 0 00-.059 2.582c0 3.352.039 6.722.131 10.071.132 4.774.254 9.542.399 14.314.052 1.731.179 3.451.222 5.184.052 2.084-.053 4.18.043 6.262.066 1.439.081 2.919.088 4.362.002.44.014.879.03 1.317.627.458 1.38.793 2.077 1.129.459.22.944.387 1.41.594a5.934 5.934 0 001.938.476c1.321.1 2.625.32 3.948.414.574.04 1.165.049 1.734.144.435.072.845.16 1.289.16 1.133 0 2.254-.05 3.383-.124 1.238-.082 2.488-.006 3.728-.064a39.853 39.853 0 001.824-.14c.558-.053 1.12-.093 1.657-.264.358-.114.86-.37 1.099-.668v-45.407c-.175-1.576-.239-3.139-.337-4.721-.088-1.413.036-2.834-.054-4.246z" fill="#E0BEA2"/><path d="M173 132.833c-.189.875-.362 1.772-.641 2.618a9.085 9.085 0 01-.634 1.472c-.175.318-.473.535-.725.772m3-4.82c.328 1.194.763 2.439 1.342 3.524.184.344.445.64.713.908.202.203.392.39.68.388.215-.002.361-.075.465-.282.287-.566.456-1.246.555-1.879.09-.577.142-1.163.211-1.744.046-.382.06-.602-.049-.957" stroke="#C4631F" stroke-linecap="round" stroke-linejoin="round"/><path d="M175 132.833c.047.165.611 2.648 1.275 1.75a3.994 3.994 0 00.725-1.652m11 .875c.438.384.881.732 1.197 1.217.159.243.296.483.429.739.187.36.367.722.522 1.096.248.6.334 1.168.437 1.802.164 1.012.439 2.036 1.031 2.905.134.198.929 1.367 1.312.867.322-.419.584-.875.803-1.352.133-.29.338-.554.431-.86.125-.405.225-.817.352-1.222.226-.722.217-1.5.328-2.241.104-.69.083-1.391.158-2.082" stroke="#C4631F" stroke-linecap="round" stroke-linejoin="round"/><path d="M190 133.484c.571.786 1.186 1.546 1.596 2.419.171.364.291.735.442 1.105.208.509.416 1.021.655 1.519.125.261.411 1.115.832 1.112.428-.003.868-.505 1.027-.831.308-.63.317-1.452.372-2.131a20.567 20.567 0 00-.028-3.844" stroke="#C4631F" stroke-linecap="round" stroke-linejoin="round"/><path d="M192 133.185c.219.38.365.656.41 1.116.016.161.005 1.507.262 1.447.336-.078.784-.42.98-.733.386-.615.297-1.481.348-2.182m-22 41.806c.714 1.722 1.389 3.47 1.894 5.265.227.805.495 1.563.894 2.305.557 1.037.715 2.257.97 3.393.263 1.176.394 2.385.802 3.524.165.46.311.955.554 1.383.189.333.325.449.707.282.849-.37 1.183-1.22 1.866-1.792.242-.203.769-.711 1.14-.511.476.258.581.941.717 1.409.149.518.291 1.07.614 1.513.104.143.511.821.744.718.123-.054.284-.278.34-.356a5.36 5.36 0 00.609-1.124c.204-.499.343-1.022.531-1.527.493-1.323 1.102-2.702 1.954-3.836.913-1.215 2.04-2.346 3.211-3.316.101-.084 1.605-1.416 1.842-.998.496.875 1.036 1.882 1.861 2.499.317.237.778.34 1.168.282.343-.052 1.377-1.539 1.582-1.783" stroke="#C4631F" stroke-linecap="round" stroke-linejoin="round"/><path d="M179 191.644c.2-.332.392-.722.632-1.009.14-.167.503-.516.706-.426.175.078.292.483.366.676.15.392.212.832.296 1.254m4-.972c.524-.898 1.092-1.788 1.561-2.716.203-.402.334-.83.499-1.247.199-.504.584-.89.94-1.297.359-.409.771-.833 1.213-1.159.467-.344.84-.488 1.417-.309.618.191.995.613 1.455 1.03.457.413.78.742 1.432.624.569-.102 1.013-.406 1.514-.663.317-.162.644-.301.969-.443" stroke="#C4631F" stroke-linecap="round" stroke-linejoin="round"/><path d="M188 191.167c.342-1.039.664-2.217 1.421-3.076.501-.569 1.51-.57 2.178-.303.322.129.577.305.851.505.316.232.707.307 1.101.339.456.037.865.021 1.225-.263.43-.339.82-.727 1.224-1.091m-6 4.861c.12-.074 2.025-1.268 2.318-1.424.623-.332.857-.285 1.444.005.201.098.505.284.762.27.491-.028 1.102-.571 1.476-.796m-24-7.777c.665.424 1.256.983 1.655 1.649.328.55.491 1.195.731 1.781.707 1.731 1.184 3.509 1.614 5.32m-4-4.861c.583.601 1.032 1.476 1.349 2.285.343.877.554 1.632.651 2.576" stroke="#C4631F" stroke-linecap="round" stroke-linejoin="round"/><path d="M193 129.917c2.352 1.608 2.436 4.86 2.609 7.56.09 1.412-.034 2.833.054 4.246.098 1.582.162 3.145.337 4.721v46.181m-24 .486c0-1.419-.11-2.818-.117-4.234a107.427 107.427 0 00-.088-4.362c-.096-2.082.009-4.178-.043-6.262-.043-1.733-.17-3.453-.222-5.184-.145-4.772-.267-9.54-.399-14.314a367.437 367.437 0 01-.131-10.071 57 57 0 01.059-2.582v-13.755m.941 57.847c.628.458 1.293.793 1.99 1.129.459.22.944.387 1.41.594a5.934 5.934 0 001.938.476c1.321.1 2.625.32 3.948.414.574.04 1.165.049 1.734.144.435.072.845.16 1.289.16 1.133 0 2.254-.05 3.383-.124 1.238-.082 2.488-.006 3.728-.064a39.853 39.853 0 001.824-.14c.558-.053 1.12-.093 1.657-.264.358-.114.86-.37 1.099-.668m-25-59.415c2.849.289 5.707.476 8.58.364 1.965-.076 3.928-.063 5.896-.078 2.136-.015 4.281-.011 6.41-.172.727-.055 1.372-.14 2.047-.35.359-.111.718-.21 1.067-.339" stroke="#CB906D" stroke-linecap="round" stroke-linejoin="round"/><path d="M175.024 156.205c-.233-.108-.513-.514-.653-.704a.583.583 0 00-.352-.025c-.09.022.177.523.212.582.208.348.592.559.682.983.051.24.039.51.057.754.029.384-.012.843.109 1.214.043.13.232.069.294-.025.069-.105.01-.43.01-.547 0-.55-.002-1.105.143-1.636.085-.308.208-.613.325-.91.059-.15.205-.386.127-.552-.124-.263-.396-.12-.545.056-.14.164-.177.425-.262.624-.02.047-.063.225-.147.186z" fill="#C4631F"/><path d="M174.371 155.501c.14.19.42.596.653.704.084.039.127-.139.147-.186.085-.199.122-.46.262-.624.149-.176.421-.319.545-.056.078.166-.068.402-.127.552-.117.297-.24.602-.325.91-.145.531-.143 1.086-.143 1.636 0 .117.059.442-.01.547-.062.094-.251.155-.294.025-.121-.371-.08-.83-.109-1.214-.018-.244-.006-.514-.057-.754-.09-.424-.474-.635-.682-.983-.035-.059-.302-.56-.212-.582.132-.033.322-.018.424.069" stroke="#C4631F" stroke-width=".5" stroke-linecap="round" stroke-linejoin="round"/><path d="M177.193 157.573c.015-.641-.022-1.26-.193-1.887.654-.205 1.571-.432 2.264-.488.352-.029.9.113.69.5-.07.129-.266.138-.406.157-.293.038-.588.049-.884.062-.181.008-.663-.042-.807.078-.088.075-.056.286-.064.382-.014.156.008.307.16.416.121.087.337.05.481.044.371-.018.906-.151 1.193.145.495.511-1.126.454-1.294.477-.389.054-.343.257-.298.516.052.295.269.256.564.278.492.038.873.151 1.29.376.165.088.132.254-.023.334-.36.187-.935.111-1.324.068-.389-.044-1.116-.142-1.321-.498-.149-.259-.035-.688-.028-.96zm3.914-.145c0-.865-.052-1.724-.107-2.588.684-.61 1.708-.691 2.596-.57.396.054.978.286 1.14.64.177.388.128.802-.052 1.176a1.286 1.286 0 01-.311.444c-.159.138-.367.26-.485.43-.138.195.27.488.406.605.068.059 1.101 1.115.54 1.171-.164.016-.31-.069-.438-.15a5.858 5.858 0 01-1.005-.785c-.215-.217-.328-.663-.681-.734-.378-.077-.387.312-.4.546a6.087 6.087 0 01-.136.947l-.002.007c-.043.2-.078.356-.296.45-.467.202-.64-.089-.706-.475-.061-.362-.063-.748-.063-1.114zm9.124 1.697c.445-.928 1.383-2.219 1.951-3.078.105.126.281.379.318.541.116.499.162 1.011.258 1.514.094.488.228.963.241 1.463.009.341-.009.549-.374.47a.746.746 0 01-.443-.254c-.077-.103-.076-.235-.159-.336-.126-.154-.297-.253-.497-.212-.142.03-.396.064-.492.191-.074.096-.056.247-.136.337-.141.16-.475.101-.656.086-.162-.014-.282-.012-.229-.206.049-.177.138-.351.218-.516z" fill="#C4631F" stroke="#C4631F" stroke-width=".5" stroke-linecap="round" stroke-linejoin="round"/><path d="M175.135 163.946c.009-.839-.02-1.797 0-2.636.23-.142.449-.259.724-.162.454.159.641.917.826 1.359.022.053.139.303.208.168.14-.272.181-.652.28-.945.019-.055.3-.958.451-.631.092.199.174.434.218.654.116.577.068 1.239.085 1.824.015.511.03 1.022.051 1.533.006.136.05.366-.003.496-.02.049-.136.028-.162.03-.078.006-.426.131-.449-.034-.068-.48-.044-1.019-.046-1.501 0-.009.07-.757-.105-.45-.062.109-.115.224-.177.332-.057.099-.181.393-.295.418-.048.011-.154-.118-.172-.136-.057-.06-.658-.736-.677-.7-.063.123-.016.348-.013.481.008.316-.012.634-.023.949-.002.054.037.832-.087.859-.131.029-.272.025-.405.032-.119.006-.232.02-.244-.153-.039-.58.008-1.212.015-1.787z" fill="#C4631F"/><path d="M175.135 161.31c-.02.839.009 1.797 0 2.636-.007.575-.054 1.207-.015 1.787.012.173.125.159.244.153.133-.007.274-.003.405-.032.124-.027.085-.805.087-.859.011-.315.031-.633.023-.949-.003-.133-.05-.358.013-.481.019-.036.62.64.677.7.018.018.124.147.172.136.114-.025.238-.319.295-.418.062-.108.115-.223.177-.332.175-.307.105.441.105.45.002.482-.022 1.021.046 1.501.023.165.371.04.449.034.026-.002.142.019.162-.03.053-.13.009-.36.003-.496-.021-.511-.036-1.022-.051-1.533-.017-.585.031-1.247-.085-1.824a3.046 3.046 0 00-.218-.654c-.151-.327-.432.576-.451.631-.099.293-.14.673-.28.945-.069.135-.186-.115-.208-.168-.185-.442-.372-1.2-.826-1.359-.328-.115-.577.072-.859.246" stroke="#C4631F" stroke-width=".5" stroke-linecap="round" stroke-linejoin="round"/><path d="M180.129 163.886c.245-.939.593-2.415.871-3.344.26.203.782.871.93 1.171.271.552.512 1.12.757 1.683.106.243.193.477.251.735.075.34.174.754-.317.532-.151-.069-.203-.143-.263-.287l-.002-.004c-.031-.073-.058-.138-.135-.174-.269-.126-.698-.067-.975-.017-.283.051-.165.445-.214.658-.033.142-.972.07-1.01-.07-.069-.256.044-.641.107-.883zm4.5-2.021c-.33-.077-.455-.273-.629-.571.65-.12 1.827-.282 2.484-.236.333.023.693.304.42.688a.522.522 0 01-.399.212c-.038.004-.396-.033-.41-.003-.034.068.018.154.03.231l.081.542c.05.375.059.751.058 1.13-.002.492.057 1.172-.125 1.642-.067.172-.257.323-.415.379-.415.147-.156-1.359-.148-1.547a7.963 7.963 0 00-.13-1.785c-.043-.227-.086-.481-.285-.596-.169-.098-.349-.043-.532-.086z" fill="#C4631F" stroke="#C4631F" stroke-width=".5" stroke-linecap="round" stroke-linejoin="round"/><path d="M189.238 164.646c-.111-1.157-.126-2.324-.226-3.484a39.13 39.13 0 011.027-.089c.165-.012.62-.11.787.036.171.149.095.447-.102.513-.212.071-.442.076-.658.132-.032.008-.183.047-.222.099-.107.145-.007.603.009.765.03.303.223.227.471.207.297-.025.576-.152.643.226.028.159.103.506-.132.534-.347.042-.697-.082-1.039-.116-.116-.012-.144.355-.12.443.036.135.506.074.6.076.293.009.44.148.53.443.011.034.091.309.047.367-.043.056-.136.035-.205.038-.345.014-.668-.001-1.011.055-.283.047-.37.06-.399-.245z" fill="#C4631F"/><path d="M189 161.028c.111 1.204.122 2.416.238 3.618.029.305.116.292.399.245.343-.056.666-.041 1.011-.055.069-.003.162.018.205-.038.044-.058-.036-.333-.047-.367-.09-.295-.237-.434-.53-.443-.094-.002-.564.059-.6-.076-.024-.088.004-.455.12-.443.342.034.692.158 1.039.116.235-.028.16-.375.132-.534-.067-.378-.346-.251-.643-.226-.248.02-.441.096-.471-.207-.016-.162-.116-.62-.009-.765.039-.052.19-.091.222-.099.216-.056.446-.061.658-.132.197-.066.273-.364.102-.513-.167-.146-.622-.048-.787-.036-.33.023-.698.057-1.027.089" stroke="#C4631F" stroke-width=".5" stroke-linecap="round" stroke-linejoin="round"/><path d="M175.313 171.568c-.084.175-.504.743-.209.911.194.111.614.232.719-.05.192-.514-.196-.858-.677-.78m1.169.041c.042.261.047.67.227.895.119.149.29-.181.334-.243.13-.184.223-.368.316-.571m.501.447c.108-.065.643-.283.589-.483-.049-.185-.183-.188-.297-.054-.101.12-.483.523-.19.627.249.089.489.042.733.032m.46-.61c.01.101.023.202.032.303.008.094.097.261.002.284-.037.009-.058-.322-.058-.343.01-.347.351-.408.608-.528m.584.122c0 .067-.023.541-.023.532a.941.941 0 01.098-.402c.05-.095.174-.342.311-.336.398.019.386.666.45.896m.668-1.136l.041.244m.001.365v.447m1.043-.732c-.298-.104-.404-.032-.28.291.134.348.171.131.327-.007.026-.023.03.065.028.099a6.687 6.687 0 01-.098.787c-.075.432-.131.426-.519.332m1.002-1.948c-.015.284-.036.568-.042.853-.001.043-.024.17.042.092.139-.165.303-.344.543-.226.183.091.209.245.209.418m.25-.61h.71m-.251-.325l-.083.934m2.492-.928c-.038-.075-.077-.245-.135-.027-.079.296-.112.859-.158 1.123m-.334-.568c.293-.042.583-.096.877-.122m.668-.609c-.141.411-.335.824-.376 1.258m1.211-.649c-.05-.051-.151-.196-.246-.122-.054.043-.183.455-.088.433.116-.027.156-.245.316-.189.081.028.271.274.31.324m.293-.609c.11.202.212.418.339.611.056.086.095-.01.134-.065.154-.219.294-.448.445-.668m.627.122c-.166.032-.447.231-.286.429.104.126.44.182.555.054.233-.259.07-.399-.186-.523m.71-.041c-.02.25-.059.684-.039.183.013-.356.23-.315.54-.345M175 168.473c.085.631.213 1.489.213 2.027m-.085-.993l.809-.207m.127-.993c.043.664.096 1.331.171 1.986m1.021-.827c-.248-.17-.448-.078-.527.234-.031.121-.016.441.184.441.148 0 .263-.277.312-.377.057-.114.172-.448.064-.377-.119.079.017.345.066.414.102.142.219.183.369.244m.341-.579c.01.054.099.757.024.4a.845.845 0 01-.005-.354c.062-.249.336-.204.534-.253m.937.083c-.311-.037-.791.239-.485.551.373.381.577-.471.627-.712.07-.342.071-.703.071-1.051 0-.074-.016.149-.019.223-.023.583.122 1.05.231 1.609m1.234-.993c.052.224.085.645.279.814.13.112.288-.434.308-.503.019-.067.043-.401.052-.311.019.188.266.902.589.775.119-.047.202-.301.227-.411.034-.153-.082-.349-.135-.488m.851.166c-.246.107-.325.382-.248.632.054.175.529.164.653.092.165-.097.183-.436.106-.586-.074-.147-.329-.126-.468-.138m1.064.04v.52c0-.153 0-.306-.021-.457-.04-.274.216-.247.446-.311m.639-.578c-.018.393-.038.787-.043 1.181-.001.059.011-.116.019-.174.029-.207.136-.838.52-.552.203.151-.47.424-.463.432.194.222.504.302.775.395m1.83-.082c-.013-.119-.068-1.132.201-.933.219.16.291.488.362.728.022.073.065.224.073.053.005-.099.059-1.14.329-.901.255.225.258.715.303 1.016.02.137-.007.268.094.202m.639-.703c-.501.16-.152.795.26.41.207-.194-.045-.499-.26-.534m1.277.289c-.123-.018-.484-.139-.525.065-.025.124.003.32.175.262.48-.162.652-.761.78-1.186.018-.059.024-.233-.014-.184-.088.113-.108.304-.128.436-.069.456-.129.794.265 1.062m.341-.289c.208-.022.493.002.572-.227.06-.175-.057-.283-.253-.253-.278.041-.313.453-.267.659.058.262.418.221.629.235" stroke="#C4631F" stroke-width=".3" stroke-linecap="round" stroke-linejoin="round"/><path d="M171.912 130.137c-.094.419-.524.653-.67 1.052-.108.294-.186.563-.186.879" stroke="#CB906D" stroke-linecap="round" stroke-linejoin="round"/><path d="M186.039 155.911c.032-.367-.029-.734-.037-1.1.063-.03.342-.222.394-.277.093-.097.222-.206.345-.266.278-.135.707.06.967.153.541.195 1.113.658 1.018 1.284a1.019 1.019 0 01-.326.605c-.135.125-.35.221-.519.288-.033.013-.378.173-.294.183.188.023.416.041.585.134.276.151.449.399.58.668.139.286.006.76-.163 1.004-.249.359-.734.552-1.147.655-.195.049-.424.055-.625.065-.11.005-.214.009-.309-.05-.141-.089-.192-.337-.22-.484-.066-.345-.064-.7-.122-1.046-.026-.153-.089-.297-.11-.453-.023-.161-.012-.328-.012-.49 0-.139-.02-.27-.038-.408-.02-.158.019-.308.033-.465z" fill="#C4631F" stroke="#C4631F" stroke-linecap="round" stroke-linejoin="round"/><path d="M271.375 185.996c.052.057.22.37.437.749.286.391.62.64.901.273.32-.419-.336-1.289-.551-1.628-.279-.44-.685-2.066-1.093-2.385.579.274 1.056.946 1.376 1.476.329.544 1.029 1.261 1.22 1.863.251.544.501 1.703-.501 1.981-.292.198-.919-.824-1.352-1.58a5.188 5.188 0 01-.437-.749z" fill="#F9F6EF"/><path d="M271.375 185.996c.156.171 1.35 2.626 1.789 2.329 1.002-.278.752-1.437.501-1.981-.191-.602-.891-1.319-1.22-1.863-.32-.53-.797-1.202-1.376-1.476.408.319.814 1.945 1.093 2.385.215.339.871 1.209.551 1.628-.575.753-1.377-1.085-1.52-1.417" stroke="#C8BFB6" stroke-width=".6" stroke-linecap="round" stroke-linejoin="round"/><path d="M266.86 194.433c1.099-.456 2.124-1.324 3.106-1.965l.621-20.707c-1.691-2.531-5.58-3.207-8.424-3.243-5.388-.068-10.755.431-16.144.462-3.845.022-7.688.363-11.535.314-3.056-.038-6.096-.092-9.151-.226-2.731-.119-5.504-.19-8.237-.129-.817.049-2.781.413-4.1 1.481-.424 7.835-.975 23.836.218 25.164 3.38.213 6.755.332 10.141.257a277.31 277.31 0 019.075-.062c1.588.017 3.18.021 4.766.103.361.019 1.119.086 1.48.095 2.612.128 5.261-.05 7.878-.108 2.286-.051 4.566-.171 6.855-.222a55.575 55.575 0 003.136-.143c.968-.075 1.906-.292 2.883-.251.824.036 1.633-.078 2.456-.066.759.011 1.461.002 2.213-.087.965-.115 1.858-.292 2.763-.667z" fill="#E0BEA2"/><path d="M247.278 194.316c.499.148-.129 1.101-.227 1.299-.805.018-1.747.279-2.54.13-.591-.11-1.358-.024-1.374-.758-.014-.609.689-.725.791-.106.089.536.658.363.699-.104.02-.232-.083-.612.164-.758.17-.1.38.049.427.216.142.505-.35.905.441.872.385-.016.787-.149 1.018-.464.152-.206.306-.414.601-.327z" fill="#C4631F" stroke="#C4631F" stroke-width=".5" stroke-linecap="round" stroke-linejoin="round"/><path d="M256.299 168.82c.104.104.476.436.387.607-.068.132-.238.197-.328.314-.167.218-.121.463.037.658m-1.403-1.586c.286.187.721.516.305.834-.243.185-.405.366-.334.689m-1.689-1.355c.141.077.819.452.561.723-.189.199-.408.308-.438.598m-.486-1.184c.094.192.215.327.08.502-.113.147-.071.263-.046.417m-.82-.915c.078.113.283.33.266.491-.009.083-.124.115-.175.163-.122.117-.058.301-.032.443m-.969-1.148c.258.327.393.408.104.713-.13.137-.126.326-.145.503m-1.012-1.153c.274.162.326.226.215.532-.068.19-.054.341-.022.535m-1.673-1.091c.208.12.491.356.233.591-.17.155-.167.287-.174.505m-.811-1.001c.264.121.454.16.419.487-.018.172-.069.34-.087.507m-1.078-.942c.351.25.439.502.215.852m-.992-.933c.068.102.173.226.185.359.025.267-.074.053-.123.302m-1.101-.727c.392.279.286.41.128.76-.105.234-.042.409-.014.648m-.861-1.355c.168.361.208.477.05.833-.08.182-.115.277-.009.435m-1.181-1.213c.206.306.322.493.154.839-.082.17-.06.223-.022.395m-18.183-.816c.001.232-.046.442-.07.669-.007.068.034.196-.037.247-.103.075-.415-.007-.529-.012-.232-.01-.464-.003-.696-.013a8.465 8.465 0 01-1.101-.11c-.129-.022-1.051.008-1.077-.143-.04-.237-.18-.669.068-.828m3.423.139c-1.157-.064-2.316-.022-3.471-.144m3.269.196l.099.698m-.223-.686l.089.795m-.307-.818l-.049.928m-.153-.875c.007.269-.024.573.035.838m-.397-.901l.011.836m-.334-.796c-.023.284-.03.57-.041.855m-.331-.821l-.074.705m-.317-.721l-.047.682m-.247-.689l-.088.605m-.252-.64a87.57 87.57 0 00-.005.515m-.27-.471l-.051.486m-.207-.365l-.024.464m2.949.677l-.079.753m-.323-.672c-.053.239-.086.482-.125.724m-.448-.882l-.091.874m-.664-.929c-.018.301-.038.601-.07.901m-.653-1.026c-.005.294-.012.588-.019.882m-.579-.798c-.038.258-.072.516-.106.775m-.643-1.835c-.016.622-.044 1.236-.145 1.851m-.744-1.797c.011.485-.011.961-.029 1.445m-.697-1.546c-.026.578-.055 1.156-.084 1.734m-.793-1.802c-.009.445-.008.891-.039 1.335-.013.188-.044.207-.088.346m-.852-1.71c.03.507.067.995.014 1.5m-1.021-1.262c.022.444.054.887.056 1.332" stroke="#B29172" stroke-width=".3" stroke-linecap="round" stroke-linejoin="round"/><path d="M266.86 194.433c1.099-.456 2.124-1.324 3.106-1.965l.621-20.707c-1.691-2.531-5.58-3.207-8.424-3.243-5.388-.068-10.755.431-16.144.462-3.845.022-7.688.363-11.535.314-3.056-.038-6.096-.092-9.151-.226-2.731-.119-5.504-.19-8.237-.129-.817.049-2.781.413-4.1 1.481-.424 7.835-.975 23.836.218 25.164 3.38.213 6.755.332 10.141.257a277.31 277.31 0 019.075-.062c1.588.017 3.18.021 4.766.103.361.019 1.119.086 1.48.095 2.612.128 5.261-.05 7.878-.108 2.286-.051 4.566-.171 6.855-.222a55.575 55.575 0 003.136-.143c.968-.075 1.906-.292 2.883-.251.824.036 1.633-.078 2.456-.066.759.011 1.461.002 2.213-.087.965-.115 1.858-.292 2.763-.667z" stroke="#CB906D" stroke-linecap="round" stroke-linejoin="round"/><path d="M244.29 193.284l2.16-.048c.859-.898.395-2.19-.977-1.821-.196.053-.685.356-.89.304-.147-.037-.319-.451-.399-.554-.206-.262-.448-.517-.783-.595-.124-.029-.592-.137-.571.105.05.595.636 1.044 1.065 1.393.202.164.945.45.268.582-.245.048-.484.016-.712.144-.171.095-.383.395-.087.492.262.086.665.004.926-.002z" fill="#C4631F"/><path d="M246.626 193.232l-2.336.052c-.261.006-.664.088-.926.002-.296-.097-.084-.397.087-.492.228-.128.467-.096.712-.144.677-.132-.066-.418-.268-.582-.429-.349-1.015-.798-1.065-1.393-.021-.242.447-.134.571-.105.335.078.577.333.783.595.08.103.252.517.399.554.205.052.694-.251.89-.304 1.372-.369 1.836.923.977 1.821" stroke="#C4631F" stroke-width=".5" stroke-linecap="round" stroke-linejoin="round"/><path d="M246.328 189.565h.007c.296-.321.539-.693.537-1.151-.003-.375-.175-1.32-.63-1.397-.376-.064-.834.043-1.1.328-.141.152-.205.764-.262.565a2.44 2.44 0 00-.97-1.307c-1.472-.934-1.757 1.604-1.381 2.467.121.276.618.333.871.353.925.072 2 .109 2.928.142z" fill="#C4631F"/><path d="M246.335 189.565a71.958 71.958 0 01-2.935-.142c-.253-.02-.75-.077-.871-.353-.376-.863-.091-3.401 1.381-2.467.444.282.829.808.97 1.307.057.199.121-.413.262-.565.266-.285.724-.392 1.1-.328.455.077.627 1.022.63 1.397.003.486-.272.875-.591 1.209" stroke="#C4631F" stroke-width=".8" stroke-linecap="round" stroke-linejoin="round"/><path d="M243.042 185.574c.995-.433 2.114-.652 3.166-.909 1.036-.867-.419-1.296-1.154-1.625-.575-.258-1.966-1.283-2.632-.878-.378.231.504 1.019.638 1.113.317.224 1.389.524.741 1.16-.269.264-.857-.195-.984.257-.102.364-.372 1.143.225.882z" fill="#C4631F" stroke="#C4631F" stroke-width=".5" stroke-linecap="round" stroke-linejoin="round"/><path d="M237.495 194.52c.043.332 3.284-1.056 3.651-1.248-.562-.908-2.154-1.275-3.145-1.327-.755-.039-.295.658.088.851.188.095.729.145.72.44-.019.697-1.418.469-1.314 1.284z" fill="#C4631F"/><path d="M241.156 193.267c-.308.168-3.618 1.589-3.661 1.253-.104-.815 1.295-.587 1.314-1.284.009-.295-.532-.345-.72-.44-.383-.193-.843-.89-.088-.851.997.052 2.601.423 3.154 1.343" stroke="#C4631F" stroke-width=".5" stroke-linecap="round" stroke-linejoin="round"/><path d="M240.415 191.176c.097.549.371.661.885.588l.081-.355c.117-.517.408-1.413.143-1.914-.2-.379-.486-.448-.718-.097-.262.398-.44.655-.956.624-.782-.046-1.612-.285-2.396-.181-.43.057-.713.392-.163.582.612.211 1.404.241 2.045.277.584.034.972-.129 1.079.476z" fill="#C4631F" stroke="#C4631F" stroke-width=".5" stroke-linecap="round" stroke-linejoin="round"/><path d="M237.898 187.692c1.069.132 2.154.146 3.228.193.13-.275.784-1.821-.049-1.803-.804.018-.432 1.375-1.365 1.227-.835-.133.172-1.209-.352-1.512-.777-.448-.787.678-.834 1.043-.074.577-.66.72-.685.079-.016-.422.176-1.228-.471-1.337-.636-.108-.502 1.465-.332 1.787.155.294.574.288.86.323z" fill="#C4631F"/><path d="M241.127 187.885c-1.074-.047-2.16-.061-3.229-.193-.286-.035-.705-.029-.86-.323-.17-.322-.304-1.895.332-1.787.647.109.455.915.471 1.337.025.641.611.498.685-.079.047-.365.057-1.491.834-1.043.524.303-.483 1.379.352 1.512.933.148.561-1.209 1.365-1.227.834-.018.177 1.532.049 1.804" stroke="#C4631F" stroke-width=".5" stroke-linecap="round" stroke-linejoin="round"/><path d="M269.668 192.451c.18.272.717-.263.944-.487.078-.534.204-1.066.31-1.596.231-1.151.229-2.213.203-3.377-.047-2.095-.062-4.16.078-6.253.06-.887.225-1.819.149-2.705-.063-.725-.191-1.41-.207-2.14-.016-.692-.124-1.375-.205-2.061-.063-.525.004-1.042-.154-1.551-.118-.38-.299-1.131-.813-.801-.414.266-.503.854-.616 1.295-.619 2.423-.134 4.901-.193 7.353-.066 2.745-.286 5.461-.085 8.205.081 1.101.096 2.148.266 3.237.047.3.153.625.323.881z" fill="#E0BEA2"/><path d="M270.698 191.882c-.119.099-.819.887-1.03.569a2.271 2.271 0 01-.323-.881c-.17-1.089-.185-2.136-.266-3.237-.201-2.744.019-5.46.085-8.205.059-2.452-.426-4.93.193-7.353.113-.441.202-1.029.616-1.295.514-.33.695.421.813.801.158.509.091 1.026.154 1.551.081.686.189 1.369.205 2.061.016.73.144 1.415.207 2.14.076.886-.089 1.818-.149 2.705-.14 2.093-.125 4.158-.078 6.253.026 1.164.028 2.226-.203 3.377-.106.533-.234 1.068-.311 1.605" stroke="#CB906D" stroke-linecap="round" stroke-linejoin="round"/><path d="M211.907 194.88c.278.172.558.357.854.504-.316-.562-.481-1.014-.513-1.684-.077-1.65.056-3.284.246-4.922.216-1.876.109-3.694.03-5.572-.065-1.521.094-3.03.07-4.55-.012-.785-.06-1.571.004-2.355.053-.656.125-1.31.171-1.966.075-1.052.042-2.123.27-3.158.063-.29.143-.576.206-.865.038-.174-.023-.164-.162-.111-.446.169-.873.348-1.255.648-.734.577-.947 1.334-1.146 2.216-.275 1.221-.263 2.499-.413 3.74a36.6 36.6 0 00-.268 4.597c.008 1.836-.088 3.667.039 5.502.093 1.324.084 2.648.168 3.973.046.724.098 1.502.318 2.196.26.82.649 1.354 1.381 1.807z" fill="#E0BEA2"/><path d="M213.477 195.637c-.579-.11-1.077-.452-1.57-.757-.732-.453-1.121-.987-1.381-1.807-.22-.694-.272-1.472-.318-2.196-.084-1.325-.075-2.649-.168-3.973-.127-1.835-.031-3.666-.039-5.502a36.6 36.6 0 01.268-4.597c.15-1.241.138-2.519.413-3.74.199-.882.412-1.639 1.146-2.216.382-.3.809-.479 1.255-.648.139-.053.2-.063.162.111-.063.289-.143.575-.206.865-.228 1.035-.195 2.106-.27 3.158-.046.656-.118 1.31-.171 1.966-.064.784-.016 1.57-.004 2.355.024 1.52-.135 3.029-.07 4.55.079 1.878.186 3.696-.03 5.572-.19 1.638-.323 3.272-.246 4.922.032.67.197 1.122.513 1.684m45.84-23.455c.099-1.133.136-2.216-.074-3.324m.168 3.019c-3.922-.54-7.968.062-11.896.166-1.391.037-2.778.038-4.166-.064-.479-.035-1.16-.046-1.596-.277-.813-.432-.553-1.257-1.037-1.949" stroke="#CB906D" stroke-linecap="round" stroke-linejoin="round"/><path d="M258.527 168.605c.21 1.108.266 1.887.168 3.019-3.922-.54-7.968.062-11.896.166-1.391.037-2.778.038-4.166-.064-.479-.035-1.16-.046-1.596-.277-.813-.432-.553-1.257-1.037-1.949l18.527-.895zm-31.669 3.581c.015-.972.028-1.943.039-2.915m.069 3.121c-1.494-.008-2.992-.05-4.486.019-.758.035-1.518.103-2.276.051-1.441-.099-2.844.143-4.271-.194-1.69-.397-1.31-1.312-1.34-2.686" stroke="#CB906D" stroke-linecap="round" stroke-linejoin="round"/><path d="M268.326 193.007c-1.313-.134-2.615-.247-3.919-.455-.131-.021-1.847-.207-2.025-.591-.047-.103.151-.175.25-.231.39-.224.812-.388 1.224-.565 1.142-.492 2.289-.971 3.406-1.516.332-.162.623-.318.98-.386m-.074-3.328c-1.364.356-2.788.843-4.198 1.007-.731.085.22-.681.318-.782 1.153-1.195 2.375-2.303 3.815-3.138m-7.443-1.36c-.203 1.078 1.797.22 2.211.124.774-2.067.487-4.303.433-6.496-.007-.294.039-3.065-.671-1.581-.262.546-.327 1.207-.457 1.791-.243 1.082-.457 2.169-.691 3.253-.212.982-.64 1.929-.825 2.909zm-3.759 3.068c1.043-2.764 1.961-5.541 2.372-8.477.1-.715.333-1.687.137-2.402-.084-.306-.22-.58-.569-.6-.402-.023-2.065-.184-2.272.253-.125.265-.008.802.001 1.081.048 1.499.171 2.994.205 4.494.038 1.683-.237 3.355-.2 5.034m-3.67-1.271c-1.059-2.428-2.049-4.913-3.228-7.288-.5-1.007.862-1.628 1.656-1.991.087-.04.553-.28.623-.054.204.657.299 1.426.44 2.094.32 1.518.623 3.027 1.015 4.527.215.826.268 1.363.106 2.178m-6.629-3.031c-1.979-1.541-3.978-3.073-5.88-4.707-.266-.229-.53-.462-.775-.713-.291-.299-.217-.273.063-.27.788.009 1.592.079 2.372.192.56.082 1.12.201 1.673.317.376.078 1.027.124 1.317.438.347.377.481 1.244.614 1.687.275.913.543 1.829.815 2.743m-9.576 1.117c-.787-.985-1.495-1.825-2.496-2.609-.47-.368-2.171-1.635-2.634-2.021-.147-.122-.919-.659-.891-1.095.018-.275.64-.839.878-.951.91-.43 1.769.286 2.565.625 1.409.6 3.416.915 3.619 2.713.083.745-.109 1.269-.395 1.959-.096.229-.348 1.28-.653 1.087m-9.314 1.962c-3.376-.498-6.954-.731-10.252-1.672-.292-.083-1.244-.206-1.474-.524-.315-.437 1.028-1.784 1.195-2.004.339-.445.694-.893.988-1.371.118-.191.097-.488.284-.612.071-.048.331.03.347.035 1.044.331 2.06.815 3.061 1.248 1.748.755 3.142 1.577 4.622 2.761.915.732 1.817 1.553 2.79 2.201m-2.058 8.235c-2.915.34-5.831.681-8.745 1.035-.678.082-1.693.313-2.436.266-.415-.027.111-3.927.136-4.304.02-.289.031-.579.062-.867.021-.191-.009-.54.183-.546.783-.026 2.341.659 2.992.848 2.352.684 4.544 1.623 6.81 2.518m2.577 6.279c1.079-.715 2.228-1.393 3.249-2.195.065-.052.238-.123.175-.178-.105-.091-.278-.029-.418-.034-.373-.012-.747-.014-1.121-.018-3.437-.038-6.877.02-10.313-.061a90.856 90.856 0 01-3.302-.159c-.32-.02-.487.029-.759.217-.405.28-.74.646-1.143.93-.647.455-1.38.787-2.07 1.167" stroke="#C4631F" stroke-linecap="round" stroke-linejoin="round"/><path d="M408.868 192.937c-.029 1.858-.103 3.705.507 5.475.533-.09 1.858-1.668 2.168-1.998 1.837-1.961 3.613-3.962 5.427-5.947 2.568-2.809 5.238-5.553 7.667-8.485 2.606-3.145 5.263-6.685 6.261-10.742.28-1.139.652-2.873.297-4.017-.299-.961-1.189-1.574-1.961-2.131-.858-.618-2.467-.767-3.484-.857-1.52-.133-2.69.268-3.987 1.028-2.145 1.257-3.979 2.693-5.849 4.322-2.172 1.892-3.288 4.668-4.155 7.354-1.153 3.573-2.695 7.309-2.88 11.113-.079 1.63.014 3.257-.011 4.885zm2.948-42.619c-.354 3.958-1.204 7.054.352 10.168.733-.557 1.355-1.323 1.941-2.016.731-.865 2.001-1.537 2.898-2.219 3.42-2.601 6.569-5.74 9.42-8.969 3.473-3.933 10.077-12.246 10.077-12.246s4.49-6.653 2.313-10.033c-.927-1.439-2.407-.725-3.983-1.391-1.46-.618-2.416.023-3.997.128-1.959.129-1.766 1.121-3.357 1.755-1.754.699-2.987.989-4.745 2.588-2.587 2.352-3.872 3.875-5.567 6.933-.871 1.571-1.409 2.267-1.99 3.965-.424 1.237-.574 1.645-.87 2.918-.321 1.383-.943 1.817-1.191 3.216-.381 2.145-1.107 3.033-1.301 5.203zm-21.449 6.847c2.428 6.947 7.516 13.812 11.582 19.87.759-1.338-.769-2.24-.208-3.656 1.538-3.879 2.269-8.073 2.808-12.196.773-5.912 2.316-11.503 1.221-18.351-.351-2.198-1.016-4.508-1.581-5.998-.285-.753-1.432-1.031-1.86-1.494-.377-.407-.901-.265-1.367-.562-1.938-1.234-5.096-1.453-7.327-.042-1.658 1.049-1.994 1.75-2.862 3.564-.863 1.804-1.236 2.951-1.465 4.942-.276 2.395-1.251 3.369-.756 5.791.535 2.614.931 5.606 1.815 8.132zm-22.216-.465c3.98 6.19 9.03 10.804 14.394 15.75.427-1.479.227-1.123.443-2.63.593-4.131.327-8.38-.109-12.515-.625-5.93-.426-11.727-3.085-18.131-.854-2.056-2.038-4.148-2.934-5.466-.453-.665-1.633-.669-2.157-1.019-.462-.308-.939-.047-1.461-.228-2.172-.749-5.294-.227-7.135 1.666-1.368 1.405-1.532 2.165-1.953 4.131-.419 1.956-.515 3.158-.275 5.148.29 2.393-.431 3.568.614 5.808 1.128 2.417 2.211 5.235 3.658 7.486z" fill="#E0BEA2"/><path d="M396.339 156.205c1.242 3.061 1.645 6.512 2.355 9.779.81 3.722 1.764 7.349 2.929 10.948 2.137 6.604 4.522 13.324 8.377 19.068m-36.607-43.641c.359 3.862 2.746 8.384 4.76 12.27 2.293 4.425 7.418 12.216 11.608 16.279 9.306 9.023 13.431 10.867 20.075 17.262" stroke="#B29172" stroke-width="3" stroke-linecap="round" stroke-linejoin="round"/><path d="M407.36 192.175c-.622-6.138.831-12.375 1.819-18.388.828-5.045 2.082-9.924 3.616-14.797.609-1.934 1.284-3.802 2.15-5.637.745-1.579 1.295-3.26 2.251-4.735.802-1.238 1.472-2.532 2.415-3.679.463-.562.742-1.333 1.368-1.753m-18.976 34.094c-4.065-6.058-8.808-12.114-11.237-19.06-.883-2.527-1.498-5.062-2.033-7.676-.495-2.421-.016-4.661.26-7.056.229-1.991.894-3.743 1.757-5.547.867-1.814 2.311-2.877 3.968-3.925 2.231-1.411 6.215.08 8.153 1.314.465.297.795.954 1.171 1.361.429.463.897 1.135 1.148 1.71.766 1.758.746 3.733 1.175 5.577 1.358 5.841.866 11.845.093 17.757-.539 4.123-1.27 8.317-2.808 12.196-.561 1.416-.616 2.994-1.376 4.332m-20.317-6.187c-5.257-5.06-11.174-9.974-15.02-16.248-1.398-2.282-2.536-4.629-3.612-7.07-.997-2.262-1.003-4.553-1.241-6.952-.198-1.994.081-3.847.542-5.794.463-1.956 1.649-3.3 3.046-4.676 1.882-1.852 6.091-1.238 8.246-.442.518.192.979.763 1.433 1.081.517.362 1.118.92 1.485 1.429 1.121 1.555 1.519 3.489 2.329 5.201 2.565 5.421 3.355 11.393 3.852 17.335.347 4.143.521 8.397-.16 12.514-.249 1.502.032 3.056-.427 4.525" stroke="#B29172" stroke-width="3" stroke-linecap="round" stroke-linejoin="round"/><path d="M411.784 161.262c-1.37-3.2-.339-6.241.249-10.17.322-2.156.689-3.331 1.196-5.45.331-1.382.487-2.165.89-3.527.37-1.254.571-1.963 1.067-3.173.681-1.661 1.153-2.566 2.115-4.082 1.872-2.953 3.287-4.442 6.009-6.637 1.849-1.492 3.32-2.704 5.112-3.298 1.625-.538 2.901-1.251 4.863-1.265 1.585-.011 2.563.073 3.983.775 1.534.758 2.373 1.489 3.213 2.98 1.974 3.502-2.901 9.878-2.901 9.878s-7.084 7.91-10.783 11.631c-3.037 3.055-6.365 6.002-9.933 8.397-.936.627-2.243 1.223-3.024 2.044-.626.657-1.108 1.261-1.873 1.774m-.983 39.006c-.885-1.964-.795-4.036-.763-6.121.025-1.629-.068-3.256.011-4.885.185-3.805 1.727-7.54 2.88-11.113.868-2.686 1.983-5.463 4.155-7.355 1.87-1.629 3.704-3.065 5.849-4.322 1.297-.76 2.467-1.161 3.987-1.027 1.017.089 2.626.238 3.484.857.772.557 1.662 1.169 1.961 2.131.355 1.143-.017 2.878-.297 4.016-.998 4.057-3.655 7.598-6.261 10.743-2.429 2.931-5.099 5.675-7.667 8.485-1.814 1.984-3.59 3.985-5.427 5.946-.34.364-1.909 2.235-2.303 1.979" stroke="#B29172" stroke-width="3" stroke-linecap="round" stroke-linejoin="round"/><path d="M461.34 187.258c.039 2.484.138 4.954-.677 7.32-.714-.122-2.485-2.231-2.899-2.672-2.455-2.622-4.829-5.297-7.255-7.95-3.432-3.755-7.001-7.424-10.249-11.342-3.483-4.204-7.035-8.937-8.37-14.361-.374-1.522-.872-3.84-.396-5.369.4-1.285 1.589-2.104 2.621-2.849 1.147-.826 3.298-1.026 4.658-1.145 2.031-.179 3.596.358 5.329 1.373 2.868 1.681 5.319 3.6 7.819 5.778 2.904 2.529 4.395 6.24 5.554 9.831 1.542 4.777 3.603 9.77 3.85 14.856.106 2.179-.019 4.353.015 6.53zm-3.941-56.972c.474 5.29 1.61 9.43-.471 13.592-.98-.745-1.81-1.768-2.594-2.695-.978-1.156-2.675-2.054-3.874-2.966-4.572-3.477-8.781-7.673-12.593-11.989-4.642-5.258-13.47-16.372-13.47-16.372s-6.003-8.893-3.092-13.412c1.238-1.923 3.217-.969 5.324-1.86 1.952-.825 3.23.032 5.344.172 2.617.173 2.36 1.5 4.487 2.346 2.344.934 3.992 1.323 6.342 3.459 3.459 3.144 5.177 5.181 7.443 9.269 1.163 2.099 1.883 3.03 2.66 5.3.567 1.654.767 2.199 1.163 3.901.43 1.849 1.261 2.429 1.593 4.299.509 2.868 1.478 4.054 1.738 6.956zm28.674 9.153c-3.247 9.286-10.049 18.463-15.483 26.562-1.015-1.789 1.028-2.995.277-4.887-2.056-5.186-3.033-10.793-3.753-16.304-1.033-7.904-3.097-15.378-1.633-24.532.47-2.938 1.359-6.027 2.114-8.019.381-1.005 1.914-1.378 2.486-1.996.504-.545 1.205-.354 1.828-.751 2.591-1.651 6.812-1.943 9.795-.056 2.216 1.401 2.665 2.339 3.825 4.763 1.154 2.413 1.653 3.945 1.959 6.608.368 3.201 1.672 4.504 1.01 7.741-.714 3.494-1.244 7.494-2.425 10.871zm29.698-.622c-5.32 8.274-12.071 14.443-19.242 21.054-.571-1.976-.304-1.501-.593-3.516-.792-5.521-.437-11.202.146-16.73.836-7.927.569-15.676 4.124-24.237 1.141-2.748 2.725-5.545 3.923-7.306.605-.89 2.183-.895 2.883-1.363.617-.412 1.255-.063 1.953-.304 2.903-1.003 7.077-.303 9.539 2.226 1.828 1.879 2.047 2.895 2.61 5.523.56 2.615.689 4.221.367 6.882-.387 3.199.577 4.769-.82 7.763-1.509 3.232-2.956 6.999-4.89 10.008z" fill="#E0BEA2"/><path d="M478.089 138.155c-1.545 4.053-1.888 8.685-2.675 13.051-.895 4.972-2.001 9.807-3.403 14.591-2.573 8.778-5.487 17.696-10.524 25.203m47.717-58.411c-.398 5.525-3.679 11.937-6.444 17.445-3.149 6.274-10.249 17.289-16.123 22.986-13.046 12.654-18.895 15.173-28.211 24.14" stroke="#B29172" stroke-width="3" stroke-linecap="round" stroke-linejoin="round"/><path d="M463.356 186.239c.832-8.205-1.111-16.543-2.431-24.58-1.108-6.744-2.783-13.267-4.834-19.781-.814-2.585-1.716-5.083-2.874-7.536-.997-2.11-1.732-4.357-3.01-6.329-1.072-1.655-1.967-3.385-3.228-4.918-.618-.752-.992-1.782-1.829-2.344m25.367 45.578c5.435-8.099 11.774-16.195 15.021-25.48 1.181-3.378 2.003-6.767 2.718-10.261.662-3.237.021-6.231-.347-9.432-.306-2.663-1.195-5.004-2.349-7.417-1.159-2.424-3.089-3.845-5.304-5.246-2.983-1.887-8.308.106-10.898 1.757-.623.397-1.063 1.274-1.567 1.819-.572.618-1.199 1.517-1.534 2.286-1.025 2.35-.997 4.99-1.57 7.455-1.816 7.809-1.158 15.834-.125 23.738.72 5.511 1.698 11.118 3.754 16.304.75 1.892.823 4.002 1.839 5.791m27.16-8.272c7.027-6.764 14.938-13.333 20.078-21.72 1.869-3.05 3.391-6.188 4.829-9.452 1.333-3.023 1.341-6.085 1.659-9.292.265-2.667-.108-5.143-.724-7.745-.62-2.616-2.205-4.412-4.073-6.251-2.515-2.476-8.142-1.656-11.023-.592-.693.256-1.309 1.02-1.916 1.446-.691.483-1.493 1.229-1.984 1.91-1.499 2.079-2.031 4.664-3.114 6.952-3.429 7.248-4.485 15.23-5.15 23.173-.463 5.539-.696 11.226.215 16.729.332 2.009-.043 4.086.57 6.049" stroke="#B29172" stroke-width="3" stroke-linecap="round" stroke-linejoin="round"/><path d="M457.442 144.916c1.832-4.278.453-8.343-.332-13.596-.431-2.881-.923-4.453-1.6-7.286-.442-1.846-.651-2.893-1.189-4.714-.495-1.676-.764-2.625-1.427-4.242-.91-2.22-1.541-3.43-2.826-5.457-2.504-3.947-4.395-5.938-8.033-8.872-2.472-1.994-4.44-3.614-6.835-4.408-2.172-.72-3.878-1.674-6.501-1.692-2.118-.015-3.425.098-5.324 1.037-2.051 1.013-3.172 1.99-4.295 3.982-2.639 4.683 3.878 13.206 3.878 13.206s9.47 10.573 14.415 15.548c4.059 4.084 8.509 8.024 13.279 11.225 1.25.839 2.997 1.636 4.042 2.732.836.878 1.481 1.686 2.503 2.372m1.315 52.143c1.183-2.626 1.063-5.395 1.02-8.183-.034-2.177.09-4.352-.016-6.53-.246-5.086-2.308-10.08-3.85-14.856-1.159-3.591-2.65-7.303-5.554-9.832-2.5-2.177-4.951-4.097-7.819-5.777-1.733-1.016-3.297-1.552-5.329-1.374-1.36.12-3.51.319-4.657 1.146-1.032.744-2.222 1.564-2.621 2.848-.476 1.53.021 3.848.396 5.37 1.334 5.423 4.886 10.156 8.37 14.36 3.247 3.919 6.816 7.588 10.249 11.343 2.425 2.653 4.799 5.328 7.255 7.949.455.486 2.551 2.988 3.078 2.646" stroke="#B29172" stroke-width="3" stroke-linecap="round" stroke-linejoin="round"/></svg>