<svg width="1440" height="990" fill="none" xmlns="http://www.w3.org/2000/svg"><g clip-path="url(#clip0)"><g opacity=".8"><path d="M77.517 671.561c-2.657-2.126-3.486-5.297-5.917-6.791 1.452-.53 4.534.057 7.123 1.173 1.472.635 2.599 1.074 3.511 2.127.913 1.054 1.944 1.894 1.53 3.225-.366 1.18-1.349 1.636-2.565 1.852-1.541.274-2.46-.608-3.682-1.586zm-11.859 8.245c-4.247-4.058-5.222-7.765-9.281-10.236 1.625.339 3.555 1.196 5.41 1.38 2.334.232 4.077.747 6.573 1.756 2.172.878 3.779 2.122 5.335 3.148 1.33.876 1.02 1.411.382 3.633-.7 2.44-1.383 2.896-3.758 2.848-2.017-.041-3.164-1.098-4.661-2.529zm-21.85.862c-1.061-1.47-2.359-3.254-3.714-4.476 1.391-1.224 2.924 1.616 4.707 1.812 1.99.217 4.01.359 5.858.829 1.782.453 3.82 2.204 5.407 3.127 1.525.888 3.8 3.395 3.168 5.376-1.252 3.928-4.32 2.318-7.576.422-2.126-1.238-3.836-2.478-5.281-4.48-.678-.938-1.86-1.629-2.57-2.61zm-19.204 3.154a10 10 0 011.596 1.156c.316.436.678.883 1.141 1.156 1.837 2.106 3.075 4.699 5.506 6.869 2.741 2.448 4.484 4.284 7.308 5.928 1.773 1.033 3.586 1.738 5.631.863.465-.199.745-.311 1.121-.648.439-1.188.439-1.995.19-3.235-.655-3.274-3.972-3.425-6.856-5.108-2.504-1.461-3.993-2.186-6.744-3.101-2.085-.693-3.29-1.021-5.466-1.324a1.85 1.85 0 01-.69-.244c-.354-.406-.73-.793-1.14-1.156-.575-.793-.996-1.55-1.597-1.156zm-3.282 25.016c-7.046-5.333-8.49-12.856-15.299-16.82 4.687.977 7.932 4.018 12.708 5.13 2.748.64 4.993 1.875 7.467 3.315 3.02 1.759 8.224 5.012 6.724 9.202-.957 2.67-1.263 1.949-4.375 2.264-1.58.16-2.523-.197-3.978-.829-1.418-.616-2.015-1.329-3.247-2.262zm-28.374-.245c-1.563-1.776-2.608-2.345-4.7-3.562 1.77.112 3.822.391 5.6.74 2.812.553 2.361 1.448 5.77 2.08 4.53.839 7.248 1.419 11.14 3.884 3.745 2.372 7.716 5.091 8.03 8.022.378 3.504.136 4.91-3.016 5.181-2.304.199-4.309.49-6.611.075-1.437-.259-2.636-1.163-3.91-1.905-4.108-2.392-6.377-6.235-9.105-9.969-1.092-1.493-1.98-3.162-3.198-4.546zm74.229-52.694c.068 2.383.497 4.178.549 6.081 1.995-.977 3.576-4.007 5.259-6.975.402-.71-1.356 1.873-1.044 1.119.41-.992.54-1.804.736-2.648.367-1.575-.121-2.012-1.454-2.788-2.504-1.458-2.973-1.658-3.982.952-.6 1.552-.11 2.596-.064 4.259zm-11.712 2.097c.344 2.107.09 3.893.002 5.742 2.677-1.753 4.837-4.477 6.515-7.359.36-.619.478-.57.505-.39.038.258-.11.782 0 0 .012-.089.028-.196.048-.321.285-1.787.698-3.103-.28-4.625-1.672-2.597-5.868-1.392-7.988 1.03.047-1.239-1.308 2.055-.698.976.193-.341.428-.669.698-.976-.047 1.226.284 1.895.53 3.097.228 1.111.485 1.707.668 2.826zm-19.644 5.298c.34 4.076 1.75 1.683 2.6 5.098 4.509-3.969 12.014-7.761 7.928-14.973-1.096-1.934-4.73-3.408-6.788-2.572-2.27.922-3.039 2.818-3.787 5.151-.87 2.713-.19 4.457.047 7.296zm-37.124 13.493c1.977 4.126 3.026 6.925 5.235 10.482-.14-2.308.447-5.083.87-7.382.537-2.924 1.285-5.544 1.285-5.544s2.653-6.154.546-8.954c-.9-1.198-3.503-2.908-6.112-2.733-2.699.181-4.518 1.385-5.821 3.756-1.188 2.161.06.629.634 3.027.364 1.514.968 2.229 1.616 3.645.664 1.454 1.056 2.261 1.747 3.703z" fill="#B7C2B4"/><path d="M-22.712 705.98c2.454-4.215 7.67-6.248 11.7-8.888 4.27-2.797 10.03-4.018 14.013-7.089 2.41-1.858 6.672-3.789 9.61-4.742 2.857-.927 5.237-3.055 8.135-3.985 5.944-1.909 11.533-5.899 17.326-8.229 4.585-1.845 9.589-4.31 14.49-4.97 1.907-.256 3.558-2.053 5.429-2.331 1.893-.281 3.737-1.171 5.623-1.669 4.351-1.148 8.824-2.481 12.898-4.12 4.059-1.632 9.629-1.097 13.375-3.551" stroke="#B29172" stroke-width="3" stroke-linecap="round" stroke-linejoin="round"/><path d="M-.842 676.27c1.977 4.127 3.026 6.926 5.235 10.483-.14-2.309.447-5.083.87-7.382.537-2.925 2.265-8.821 2.265-8.821s2.653-6.155.547-8.955c-.902-1.198-3.504-2.908-6.112-2.733-2.7.182-4.519 1.385-5.822 3.756-1.188 2.161-.92 3.907-.346 6.304.364 1.515.968 2.23 1.616 3.646.664 1.454 1.056 2.261 1.747 3.702z" stroke="#192825" stroke-width="3" stroke-linecap="round" stroke-linejoin="round"/><path d="M18.3 672.293c.688 2.262.966 3.945 2.144 5.895 2.058-3.536 3.873-7.291 5.9-10.773 1.337-2.295-.402-1.508.397-4.015.908-2.849-.4-5.144-2.734-6.796-2.229-1.578-4.562-1.789-6.974-.509-2.352 1.249-1.194-.19-1.433 2.462-.124 1.375.251 2.141.48 3.502.326 1.931.633 2.991 1.048 4.905.45 2.083.669 3.675 1.172 5.329z" fill="#B7C2B4"/><path d="M18.821 671.549c.688 2.262.966 3.944 2.144 5.895 2.059-3.536 3.873-7.291 5.9-10.773 1.337-2.295 1.657-4.902 2.456-7.409.908-2.849-.4-5.144-2.734-6.797-2.229-1.577-4.562-1.788-6.974-.508-2.351 1.248-3.253 3.204-3.492 5.856-.124 1.375.252 2.14.481 3.502.326 1.931.633 2.99 1.047 4.905.451 2.082.67 3.674 1.172 5.329zm17.818-13.044c.339 4.075 1.16 6.861 2.008 10.277 4.51-3.969 12.605-12.941 8.52-20.153-1.096-1.934-4.73-3.408-6.789-2.571-2.27.922-3.038 2.817-3.786 5.15-.87 2.714-.19 4.457.047 7.297zm18.582-.312c.345 2.107.09 3.893.002 5.743 2.677-1.754 4.837-4.477 6.515-7.359.936-1.607 1.713-2.767 2.031-4.765.285-1.787.698-3.103-.28-4.625-1.885-2.927-6.974-1.025-8.686 2.006-.61 1.08-.733 1.839-.78 3.078-.047 1.226.284 1.894.53 3.096.228 1.111.485 1.707.668 2.826zm12.424-2.823c.068 2.383.497 4.178.549 6.081 1.995-.977 3.576-4.007 5.259-6.975.402-.71.66-1.095.973-1.849.41-.992.54-1.804.737-2.649.366-1.574-.122-2.011-1.454-2.787-2.505-1.459-4.99 1.31-6 3.92-.6 1.551-.11 2.596-.064 4.259z" stroke="#192825" stroke-width="3" stroke-linecap="round" stroke-linejoin="round"/><path d="M82.152 648.472c-2.514 2.493-2.018 6.805-2.007 8.414 1.885-.115 3.985-.588 5.54-2.351 1.61-1.825 3.302-4.289 1.595-6.024-1.404-1.428-3.463-1.689-5.128-.039zm14.258 5.059c-2.27-.231-3.362.81-5.143 2.768-.229 1.096 2.605 2.149 3.583 2.003 1.761-.261 2.369-1.017 3.174-2.155.468-.663.817-1.613.547-1.894-.435-.453-1.276-.631-2.161-.722z" fill="#B7C2B4"/><path d="M-7.589 708.111c-1.563-1.776-2.609-2.345-4.7-3.562 1.77.113 3.821.391 5.6.741 2.811.552 5.446-.02 8.854.612 4.53.839 7.248 1.419 11.14 3.884 3.746 2.372 7.716 5.091 8.031 8.022.377 3.504-2.949 6.377-6.101 6.649-2.304.198-4.309.49-6.611.075-1.437-.26-2.637-1.164-3.91-1.905-4.108-2.392-6.377-6.235-9.106-9.969-1.091-1.494-1.978-3.162-3.197-4.547zm29.211.211c-7.045-5.333-8.49-12.855-15.298-16.82 4.687.977 9.244 1.765 14.02 2.877 2.748.64 4.993 1.874 7.467 3.315 3.02 1.759 8.224 5.011 6.724 9.201-.957 2.671-2.576 4.203-5.688 4.519-1.578.16-2.522-.197-3.978-.83-1.417-.615-2.014-1.329-3.247-2.262zm2.678-24.475c3.75 2.183 4.89 5.309 8.335 8.384 2.741 2.448 4.484 4.284 7.308 5.928 1.773 1.033 3.586 1.738 5.631.863.465-.199.745-.311 1.121-.648.56-.503.71-.96.97-1.666.438-1.187.439-1.994.19-3.235-.656-3.274-3.972-3.425-6.856-5.107-2.504-1.461-3.994-2.187-6.745-3.101-2.084-.693-3.29-1.022-5.466-1.324-1.846-.257-3.686-.963-4.766-.256m16.875-7.274c1.355 1.221 2.375 2.844 3.436 4.313.708.981 1.89 1.672 2.569 2.611 1.445 2.002 3.154 3.241 5.28 4.479 3.257 1.896 7.86.869 9.113-3.058.631-1.982-1.643-4.488-3.169-5.376-1.586-.924-3.624-2.675-5.407-3.128-1.847-.47-3.867-.611-5.857-.829-1.784-.195-4.852-.399-6.243.826m25.161 2.755c-4.248-4.059-5.222-7.765-9.281-10.237 1.624.339 2.911.072 4.766.256 2.334.232 4.26.624 5.933.935 1.855.346 4.096.985 5.652 2.01 1.33.877 2.782 3.673 2.143 5.895-.7 2.44-2.178 3.717-4.552 3.669-2.017-.041-3.164-1.098-4.662-2.528zm11.848-7.227c-2.657-2.126-3.486-5.298-5.917-6.791 1.452-.53 4.534.057 7.123 1.173 1.472.635 2.599 1.073 3.511 2.127.913 1.054 1.944 1.894 1.53 3.225-.366 1.18-1.348 1.635-2.565 1.852-1.541.274-2.46-.609-3.682-1.586z" stroke="#192825" stroke-width="3" stroke-linecap="round" stroke-linejoin="round"/><path d="M87.291 666.602c-2.73-.695-4.324-3.63-5.825-5.602 1.447.092 2.904-.376 5.051-.506 1.851-.113 3.628.574 3.997 2.346.395 1.894-1.052 4.314-3.222 3.762z" fill="#B7C2B4"/></g><path d="M176.857 750.454c-8.853-5.65-11.844-11.814-19.819-14.746 2.967.033 6.649.869 9.967.551 4.174-.4 7.41-.101 12.135.806 4.114.79 7.363 2.415 10.447 3.676 2.635 1.078 2.279 2.124 1.927 6.242-.385 4.522-1.426 5.557-5.607 6.294-3.552.626-5.929-.831-9.05-2.823zm-92.292 20.219c-2.53-2.026-5.617-4.481-8.534-5.938 1.812-2.774 5.809 1.389 8.974.874 3.534-.574 7.08-1.295 10.488-1.367 3.288-.07 7.635 1.974 10.808 2.808 3.053.803 8.168 4.036 8.025 7.751-.283 7.365-6.338 6.054-12.853 4.342-4.253-1.119-7.79-2.438-11.236-5.198-1.615-1.293-3.983-1.92-5.672-3.272zm42.114-16.654c-2.454-2.116-5.451-4.682-8.313-6.244 1.912-2.707 5.754 1.599 8.936 1.199 3.552-.445 7.123-1.036 10.531-.985 3.288.05 7.558 2.25 10.699 3.199 3.021.913 8.016 4.329 7.738 8.037-.55 7.35-6.553 5.82-13.002 3.872-4.21-1.272-7.697-2.719-11.04-5.602-1.567-1.351-3.911-2.063-5.549-3.476zm-82.297 37.107a17.93 17.93 0 013.402.915c.806.528 1.695 1.045 2.642 1.206 4.409 2.349 8.127 5.894 13.57 7.974 6.137 2.344 10.217 4.303 15.982 5.253 3.619.597 7.096.621 9.957-2.142.65-.628 1.047-.992 1.46-1.796-.023-2.263-.536-3.611-1.74-5.526-3.18-5.053-8.817-3.194-14.706-4.17-5.113-.848-8.063-1.112-13.24-.89-3.924.169-6.149.387-9.976 1.267a3.317 3.317 0 01-1.307.03 22.21 22.21 0 00-2.642-1.206c-1.463-.959-2.649-1.955-3.402-.915zm9.378 46.748c-14.202-6.918-19.337-19.614-32.65-24.213 8.559.093 15.302 4.306 24.065 4.605 5.04.172 9.405 1.561 14.243 3.232 5.907 2.041 16.158 5.947 14.975 13.815-.753 5.015-1.541 3.856-6.89 5.485-2.715.827-4.493.527-7.265-.079-2.7-.59-3.993-1.635-6.477-2.845zm-48.243 6.877c-3.356-2.575-5.387-3.211-9.475-4.623 3.142-.414 6.837-.636 10.077-.638 5.123-.003 4.643 1.723 10.84 1.653 8.236-.094 13.204-.017 20.884 2.961 7.389 2.866 15.294 6.261 16.86 11.293 1.872 6.016 1.935 8.566-3.5 10.132-3.973 1.145-7.388 2.35-11.57 2.417-2.61.043-5.027-1.128-7.516-1.988-8.033-2.776-13.342-8.732-19.42-14.338-2.43-2.242-4.564-4.862-7.18-6.869zm193.386-134.957c-1.547 3.972-2.088 7.226-3.327 10.397 3.965-.222 8.678-4.112 13.513-7.829 1.156-.89-3.536 2.141-2.498 1.116 1.366-1.348 2.144-2.595 3.055-3.849 1.7-2.339 1.2-3.398-.455-5.603-3.111-4.144-3.743-4.799-7.222-1.202-2.067 2.138-1.987 4.199-3.066 6.97zm29.322-2.591c-1.236 2.762-1.733 5.049-2.723 7.253 2.819-.018 6.295-2.61 9.853-5.076.851-.59-2.582 1.394-1.81.704 1.016-.908 1.611-1.764 2.301-2.621 1.286-1.598.969-2.367-.127-3.988-2.059-3.046-2.485-3.532-5.076-1.104-1.54 1.442-1.556 2.906-2.418 4.832zm18.135 6.009c-2.229 1.071-3.747 2.236-5.528 3.089 1.768 1.476 5.306 1.694 8.828 2.034.842.081-2.347-.493-1.501-.516 1.113-.03 1.936-.251 2.82-.421 1.646-.318 1.854-.965 2.026-2.555.323-2.989.314-3.517-2.585-3.37-1.723.087-2.505.992-4.06 1.739zm-15.407 7.477c-2.965-.598-5.306-.578-7.674-1.058.639 2.745 3.933 5.565 7.122 8.492.763.7-1.928-2.211-1.085-1.61 1.109.791 2.075 1.182 3.064 1.666 1.842.903 2.521.425 3.861-1.001 2.518-2.681 2.898-3.203-.041-5.196-1.746-1.184-3.178-.877-5.247-1.293zm-26.235 3.095c-3.024.101-5.298.658-7.712.736 1.253 2.525 5.108 4.511 8.884 6.626.904.506-2.385-1.708-1.426-1.317 1.261.514 2.292.673 3.365.917 2 .454 2.552-.168 3.527-1.864 1.834-3.187 2.084-3.783-1.235-5.046-1.972-.751-3.294-.123-5.403-.052zm-39.503-5.144c-.983 3.688-2.707 6.414-4.207 9.364 5.65-.896 11.17-3.753 16.018-7.222 1.043-.746 1.198-.579 1.109-.266-.127.448-.753 1.194 0 0 .086-.136.191-.298.316-.489 1.774-2.705 3.413-4.548 2.931-7.747-.821-5.461-8.546-6.572-13.779-4.176.985-1.985-3.638 2.393-1.853 1.08a10.485 10.485 0 011.853-1.08c-.975 1.965-.926 3.298-1.405 5.439-.443 1.978-.461 3.138-.983 5.097zm-41.907 9.787c-2.35 6.923 1.671 4.006.628 10.211 10.222-3.293 25.23-4.16 23.672-18.898-.417-3.951-5.324-8.958-9.296-9.054-4.378-.107-6.99 2.453-9.88 5.744-3.361 3.829-3.487 7.173-5.124 11.997zM45.89 760.101c.678 8.152.651 13.495 2.078 20.843 1.234-3.946 3.981-8.208 6.15-11.781 2.758-4.544 5.673-8.444 5.673-8.444s8.347-8.596 6.609-14.614c-.744-2.574-4.004-7.086-8.474-8.453-4.626-1.415-8.43-.56-12.116 2.572-3.359 2.855-.3 1.089-.865 5.46-.356 2.762.199 4.341.38 7.119.186 2.853.328 4.449.565 7.298z" fill="#B7C2B4"/><path d="M-33.978 865.515c8.978-4.013 37.78-40.723 43.937-46.747 6.523-6.382 17.146-14.681 27.84-24.414 7.193-6.546 10.927-10.541 18.208-16.989 5.75-5.093 8.704-8.32 14.989-12.736 9.23-6.485 15.301-8.798 25.659-13.269 8.163-3.525 13.072-4.662 21.368-7.863 4.186-1.615 6.445-2.755 10.685-4.22 5.733-1.982 11.817-2.677 14.953-4.203 7.234-3.519 8.437-2.4 13.883-3.788 27.036-6.895 67.269-15.063 80.069-15.007" stroke="#B29172" stroke-width="3" stroke-linecap="round" stroke-linejoin="round"/><path d="M14.31 786.496c2.993 6.761 5.296 12.318 6.423 19.607 3.025-8.974-1.215-17.911 2.876-26.873l.017-.038c1.641-3.595 4.522-9.905 1.957-15.386-2.526-5.395-6.203-10.445-12.143-10.898-4.694-.358-2.823-1.067-5.86 2.954-3.547 4.695-3.303 8.662-2.518 14.292.878 6.304 6.806 10.826 9.248 16.342z" fill="#B7C2B4"/><path d="M14.942 785.198c2.992 6.76 5.296 12.318 6.422 19.607 3.026-8.974 5.004-21.236 9.095-30.198l.017-.037c1.641-3.595 4.522-9.906 1.957-15.387-2.526-5.395-6.203-10.444-12.143-10.897-4.694-.358-9.041 2.257-12.078 6.277-3.547 4.696-3.303 8.663-2.519 14.293.879 6.304 6.806 10.826 9.249 16.342z" stroke="#619482" stroke-width="3" stroke-linecap="round" stroke-linejoin="round"/><path d="M-17.362 815.896c4.306 6.009 7.693 10.982 10.28 17.888 1.135-9.401-4.836-17.289-2.655-26.896l.01-.04c.874-3.854 2.41-10.619-1.217-15.462-3.571-4.768-8.2-8.963-14.107-8.198-4.669.605-2.981-.47-5.136 4.085-2.517 5.319-1.47 9.153.444 14.505 2.143 5.994 8.867 9.214 12.381 14.118z" fill="#B7C2B4"/><path d="M-17.008 814.496c4.306 6.009 7.693 10.982 10.28 17.888 1.135-9.401.575-21.809 2.756-31.416l.01-.04c.874-3.854 2.41-10.619-1.217-15.463-3.571-4.768-8.2-8.963-14.107-8.197-4.67.605-8.393 4.05-10.547 8.605-2.517 5.319-1.47 9.153.443 14.505 2.144 5.994 8.868 9.214 12.382 14.118zm63.998-54.962c.678 8.152.65 13.495 2.078 20.843 1.234-3.946 3.981-8.208 6.15-11.781 2.757-4.544 9.395-13.297 9.395-13.297s8.347-8.597 6.61-14.614c-.745-2.575-4.005-7.087-8.475-8.453-4.625-1.415-8.43-.56-12.116 2.572-3.359 2.855-4.023 5.942-4.587 10.313-.357 2.761.198 4.341.38 7.119.186 2.852.328 4.449.565 7.298z" stroke="#619482" stroke-width="3" stroke-linecap="round" stroke-linejoin="round"/><path d="M81.83 744.684c-.06 4.227-.501 7.243.442 11.205 5.43-4.9 10.565-10.306 15.913-15.133 3.526-3.181.136-2.787 2.861-6.621 3.097-4.357 2.121-8.976-.956-13.062-2.936-3.9-6.794-5.529-11.598-4.662-4.685.845-1.93-.974-3.781 3.412-.96 2.273-.737 3.782-1.088 6.225-.497 3.466-.55 5.437-.887 8.923-.366 3.792-.861 6.621-.905 9.713z" fill="#B7C2B4"/><path d="M83.122 743.7c-.06 4.227-.502 7.243.442 11.206 5.43-4.901 10.564-10.307 15.913-15.133 3.525-3.181 5.489-7.447 8.215-11.281 3.096-4.356 2.12-8.975-.957-13.061-2.936-3.9-6.794-5.529-11.598-4.662-4.685.845-7.284 3.685-9.135 8.071-.96 2.273-.737 3.781-1.087 6.224-.497 3.467-.551 5.438-.887 8.923-.366 3.792-.862 6.622-.906 9.713zm44.94-22.544c-2.349 6.923-2.99 12.076-4.033 18.281 10.222-3.293 29.892-12.231 28.334-26.968-.417-3.951-5.324-8.959-9.296-9.055-4.379-.106-6.991 2.453-9.88 5.745-3.361 3.829-3.488 7.172-5.125 11.997zm36.61-2.373c-.983 3.689-2.706 6.415-4.206 9.365 5.65-.896 11.169-3.754 16.018-7.222 2.703-1.934 4.822-3.257 6.805-6.281 1.774-2.705 3.413-4.548 2.932-7.747-.926-6.154-10.619-6.784-15.633-3.096-1.785 1.313-2.542 2.46-3.527 4.446-.976 1.965-.926 3.298-1.406 5.438-.443 1.978-.46 3.139-.983 5.097zm35.37-9.536c-1.547 3.972-2.088 7.226-3.327 10.396 3.966-.222 8.678-4.111 13.513-7.829 1.157-.889 1.851-1.344 2.89-2.369 1.366-1.347 2.143-2.594 3.055-3.849 1.699-2.338 1.199-3.398-.456-5.602-3.11-4.144-9.13-1.314-12.608 2.283-2.067 2.138-1.988 4.199-3.067 6.97zm29.01-2.393c-1.236 2.761-1.733 5.049-2.722 7.253 2.818-.019 6.295-2.611 9.852-5.076.851-.59 1.359-.888 2.131-1.578 1.016-.907 1.611-1.764 2.301-2.621 1.286-1.598.969-2.367-.127-3.987-2.059-3.047-6.425-1.252-9.017 1.176-1.54 1.443-1.556 2.907-2.418 4.833zm15.963 6.637c-2.23 1.07-3.748 2.236-5.528 3.088 1.768 1.477 5.306 1.695 8.827 2.034.843.082 1.317.164 2.163.141 1.113-.03 1.937-.251 2.82-.421 1.646-.318 1.854-.965 2.026-2.555.323-2.988-3.349-4.173-6.248-4.026-1.723.087-2.506.992-4.06 1.739zm-13.54 7.926c-2.965-.597-5.306-.578-7.674-1.057.639 2.745 3.933 5.565 7.122 8.492.763.7 1.165 1.13 2.008 1.731 1.109.791 2.076 1.182 3.064 1.666 1.842.903 2.522.424 3.861-1.002 2.518-2.68-.195-6.543-3.134-8.536-1.747-1.184-3.178-.877-5.247-1.294zm-26.081 2.958c-3.024.101-5.298.658-7.712.736 1.253 2.524 5.108 4.511 8.885 6.625.903.506 1.394.832 2.352 1.223 1.262.514 2.292.673 3.365.917 2.001.455 2.552-.168 3.528-1.863 1.833-3.188-1.696-6.323-5.015-7.587-1.972-.75-3.294-.122-5.403-.051zM4.407 844.092c-3.356-2.574-5.386-3.211-9.475-4.623 3.143-.414 6.837-.635 10.077-.637 5.123-.004 9.547-1.918 15.743-1.989 8.237-.093 13.205-.017 20.885 2.962 7.389 2.865 15.294 6.26 16.86 11.292 1.872 6.017-2.968 12.207-8.404 13.773-3.972 1.145-7.388 2.35-11.57 2.418-2.61.042-5.026-1.129-7.516-1.989-8.033-2.775-13.341-8.732-19.42-14.338-2.43-2.242-4.563-4.862-7.18-6.869zm49.703-7.226c-14.204-6.918-19.338-19.613-32.651-24.212 8.558.093 16.824-.102 25.587.197 5.04.172 9.405 1.561 14.243 3.233 5.907 2.04 16.158 5.946 14.975 13.815-.753 5.015-3.064 8.262-8.413 9.892-2.714.826-4.493.526-7.264-.079-2.7-.59-3.994-1.636-6.478-2.846zm-10.22-45.505c7.654 1.261 11.55 5.758 19.26 8.704 6.137 2.345 10.218 4.304 15.982 5.254 3.619.597 7.096.621 9.957-2.142.65-.628 1.047-.993 1.46-1.797.616-1.196.575-2.054.561-3.4-.023-2.262-.536-3.61-1.74-5.525-3.18-5.053-8.817-3.194-14.706-4.171-5.113-.847-8.063-1.111-13.241-.889-3.923.169-6.148.387-9.975 1.266-3.248.747-6.772.737-8.126 2.606m34.196-26.538c2.918 1.458 5.45 3.767 7.979 5.792 1.688 1.353 4.056 1.979 5.672 3.273 3.445 2.759 6.982 4.079 11.236 5.197 6.515 1.712 13.957-2.254 14.24-9.618.143-3.716-4.972-6.949-8.025-7.751-3.173-.834-7.52-2.878-10.808-2.808-3.407.072-6.954.792-10.488 1.367-3.165.514-8.549 1.628-10.361 4.402m42.889-16.761c2.863 1.562 5.309 3.962 7.763 6.078 1.639 1.413 3.982 2.125 5.55 3.476 3.342 2.883 6.83 4.33 11.04 5.602 6.449 1.948 14.03-1.745 14.58-9.095.277-3.708-4.717-7.124-7.738-8.037-3.141-.949-7.411-3.149-10.7-3.199-3.407-.051-6.978.54-10.53.985-3.182.4-8.602 1.317-10.515 4.024m57.491 1.348c-8.853-5.65-11.844-11.814-19.819-14.745 2.967.032 5.132-.882 8.449-1.2 4.174-.4 7.689-.379 10.73-.411 3.374-.035 7.524.31 10.609 1.571 2.635 1.077 6.15 5.48 5.798 9.599-.385 4.522-2.535 7.272-6.716 8.009-3.553.626-5.93-.831-9.051-2.823z" stroke="#619482" stroke-width="3" stroke-linecap="round" stroke-linejoin="round"/><g opacity=".9"><g opacity=".9"><path d="M1279.84 522.622c.31 6.238 3.18 10.505 6.54 15.35.08-.557.23-1.135.31-1.648-.64-2.192-.99-3.827-1.03-5.989-.06-3.031-.07-6.309-1.66-9.022-1.47-2.495-2.07-4.542-3.71-6.912-.25-.363-.67-1.441-1.03-.792a4.81 4.81 0 00-.55 1.648c-.37 2.405 1.01 4.932 1.13 7.365zm11.24 23.842c-1.1-1.584-1.61-3.552-2.16-5.463.51.147 1.27.243 1.69.33.87.183 1.56.635 2.37.971 2.74 1.141 5.21 3.161 7.48 5.04 2.15 1.776 4.12 4.4 4.82 7.132.23.901.6 1.8.68 2.731.01.118-2.02-3.072-2.09-1.151-2.45-.136-3.22-.29-5.44-1.507-3.66-2.007-5.03-4.724-7.35-8.083zm-20.65 10.782c-2.19-3.587-3.29-7.022-4.2-11.144.91-.131.07.1 1.02.253 1.1.178 2.05.003 3.14.49 1.12.5 2.3.889 3.32 1.574 3.04 2.028 4.9 5.122 6.46 8.36 1.37 2.814 1.39 5.331 1.56 8.311.03.452.19 4.781-.06 4.578-.37-.305-.98-.508-1.42-.776-.96-.585-1.34-1.275-2.23-1.964-1.56-1.203-2.18-3.148-3.29-4.75-1.24-1.786-3.17-3.084-4.3-4.932zm-6.51-13.205l.07.097c-.07-.494-.02-.348.08-.892.2-1.091.51-2.22.54-3.33.04-2.152.07-4.309.24-6.465.25-3.14-.44-6.754-1.29-9.759-.68-2.376-.54-3.342-1.92-5.346-.42-.609-.69.436-.9.808-.42.773-.97 1.466-1.3 2.29-.95 2.322-.17 4.312-.34 6.754-.25 3.678.6 6.741 1.78 10.185.87 2.523 1.54 3.491 3.04 5.658zm-33.54 25.133c-.66-5.971.18-12.424-.69-16.215 1.51 1.133 2.16 1.039 3.25 2.608 1 1.438 1.27 3.509 1.24 5.209-.05 2.488.44 4.994.29 7.493-.2 3.349-.46 6.82-1.7 9.953-.44 1.107 1.37 1.653.86 2.721-.23.494-.4-.037-.65-.396-1.07-1.541-1.29-3.06-1.93-4.809-.78-2.109-.43-4.316-.67-6.564zm3.85-34.18c-.95 3.758-2.21 8.263-.75 12.025 3.3-2.287 6.83-4.579 8.89-8.147 1.74-3.008 3.44-6.004 4.42-9.356.48-1.659.53-3.653.69-5.376.03-.392.06-.634.08-.777.06-.373.06-.076 0 0-.05.066-.15-.042-.31-.949-.26-1.501-.98-3.471-.92-4.985 0-.03-.38.235-.45.284-.64.446-1.32.863-1.87 1.426-2.58 2.655-3.5 2.009-5.01 5.408-1.67 3.758-3.75 6.444-4.77 10.447zm-22.86 26.573c.58-2.17 1.19-7.34 2.94-8.795 1.8 2.602 2.73 4.921 3.26 8.069.53 3.231 1.08 6.866.29 10.092-.71 2.859-1.45 6.269-3.38 8.584-1.1 1.322-.6 2.088-2.1 2.997-.41.251-1.65-4.415-1.69-4.978-.27-4.087-.61-6.895-.59-11.008 0-1.856.8-3.201 1.27-4.961zm2.88-9.337c.29 1.124.76-.169 1.42.777.67-.468-2.04-1.766-1.49-2.359 1.46-1.575 2.33-3.947 3.44-5.783 1.11-1.834 1.85-4.005 2.55-6.022.78-2.204 1.61-4.55 2.03-6.85.46-2.562.89-5.153 1-7.76.65-.653 1.37-1.233 2.11-1.7.18-.113-2.09 1.035-2.1 1.456-.01.081-.01.163-.01.244-.97.965-1.8 2.088-2.38 3.24-1.62 3.275-3.73 5.569-5.25 8.907-.74 1.638-1.05 3.688-1.5 5.436 0 1.587-.17 3.22-.32 4.613-.15 1.338.16 4.489.5 5.801zm-20.74 5.576c.58-2.121.96-2.421.05-3.543l1.57-1.09c2.44 3.523 2.61 7.75 2.27 11.924-.38 4.73-1.46 10.796-6.45 12.75-.96.376-.99.276-.68-1.412.24-1.356.43-2.159.51-3.555.17-3.178.25-6.066.63-9.227.24-1.95 1.6-3.975 2.1-5.847zm3.93-27.315c-2.57 6.566-6.17 13.933-3.59 20.185.84-1.131 1.51-2.296 2.34-3.437 1.41-1.921 1.85-4.185 3.02-6.231 1.55-2.724 1.97-6.137 2.9-9.1 1.01-3.194.67-6.264.41-9.554-.11-1.365 1.79-.966.95-2.186-.28-.396-1.71 1.102-1.79 1.233-1.85 3.082-2.93 5.743-4.24 9.09zm-24.02 35.083c1.84-4.286 2.05-8.45 4.54-12.805l3.39.272c.15 1.073-.01 2.528-.15 3.663-.17 1.348.24 2.961-.13 4.261a39.925 39.925 0 00-.78 3.605c-.62 3.392-.84 7.204-3.12 9.989-1.62 1.974-4.94 3.824-7.42 4.217-.86.137-.38.047-1.16.029-.57-.013.25-.399.44-.532 1.02-.702 1.83-1.003 1.97-2.238.18-1.581.51-3.482.91-5.025.52-1.991.7-3.555 1.51-5.436zm1.14-26.264c1.15 3.672 2.4 7.143 4.58 10.289-.41-2.842 1.88-5.956 1.87-8.886a61.067 61.067 0 00-1.07-11.141c-.46-2.502-1.89-4.26-3.33-6.333-.01-.021-.03-.042-.04-.06.03-.051.06-.095.08-.134.35.208 1.1.832.67.22-.33-.473-.45-.539-.67-.22-.16-.096-.23-.105-.08.134-.03.044-.05.092-.08.145-1.05 1.905-2.14 2.849-2.53 4.979-.36 1.993-.07 4.202-.09 6.212-.02 2.088.06 2.818.69 4.795zm-21.15 16.401c1.66-1.726 3.31-3.885 5.27-5.24l3.53.469c.03 1.504-.35 2.965-.42 4.436-.05.982-.68 1.787-.76 2.788-.08.902-.49 2.179-.82 3.026-1.99 5.16-5.51 9.785-10.68 12.153-2.57 1.179-2.29-.025-5.02-.045-1.48-.011.58-4.209.91-5.025 1.3-3.202 2.74-5.377 5.07-7.903 1.3-1.414 1.58-3.269 2.92-4.659zm.18-12.423c3.66 2.868 5.64 1.059 9.09 4.246.72-3.934 2.36-3.005 1.78-7.031-.33-2.324-2.48-5.58-4.23-7.136-1.23-1.093-2.64-2.099-4.09-2.866-1.21-.642-2.96-1.645-4.35-1.757-1.38-.11-2.72-.141-4.1-.237-1.75-.121-3.62.387-5.32.142-2.55-.365 1.6 3.277 2.22 4.18 2.69 3.886 5.28 7.541 9 10.459zm-15.18 2.697c-2.2 1.522-4.73 4.495-6.7 6.304-1.78 1.642-1.63 3.701-3.1 5.664-1.37 1.826-2.69 2.969-3.52 5.071a2.43 2.43 0 01-.39.686c-.18.056-.37.108-.55.156-.94.251-.14.662.55-.156 4.6-1.405 8.99-5.042 10.98-9.366 1.21-2.631 3.16-5.303 2.73-8.359zm-5.35-6.124c2.02 1.003 4.13 2.116 6.02 3.377-.53-3.328-1.85-6.744-3.13-9.938-.6-1.48-1.84-2.844-2.75-4.151-.77-1.108-1.47-2.5-2.57-3.298-2.09-1.502-4.66-2.08-7.05-3.068-1.55-.642.04.527-1.6.229-.48-.088-1.55-.733-1.11.152.38.752.27 1.63.79 2.37l2.12 3.063c2.64 3.824 2.45 5.352 5.55 8.835 1.11 1.253 2.29 1.713 3.73 2.429zm-6.12 6.36c2.45-.963 2.47-.07 4.43-1.332-.46-.165-1.14-.299-1.54-.384-.78-.165-1.49-.614-2.27-.757-2.31-.419-4.52-1.388-6.76-2.183-3.23-1.147-6.13-1.967-9.55-2.337-2.62-.283-3.87-.999-6.45-.388-.37.086-2.2.134-2.37.344-.24.302 1.39 2.235 1.59 2.526.37.53 2.94 1.81 5.11 3.379 2.81 1.644 7.29 3.523 10.7 2.863 2.39-.463 4.82-.838 7.11-1.731z" fill="#CB906D"/><path d="M1134.87 545.439c6.75 1.934 13.94 1.263 20.52 3.175 1.73.502 3.67.261 5.45.497 1.95.259 3.9 1.016 5.86 1.045 3.87.056 7.71 1.203 11.55 1.545 7.11.635 14.23 2.015 21.35 2.224 4.15.122 8.36-.092 12.52-.13 4.04-.036 7.95.614 11.98.244 14.97-1.369 29.8-5.331 44.08-9.909 9.81-3.145 21.33-4.297 29.87-10.206 0 0 17.99-9.992 30.32-14.489 29.31-10.689 49.46-.483 79.3-9.554 14.26-4.333 35.47-14.098 35.47-14.098m-308.9 49.676c-2.28 1.579-4.37 2.79-6.96 3.803-2.28.894-4.71 1.268-7.1 1.731-3.42.66-8.37-1.599-11.08-3.561-2.17-1.569-3.69-2.808-5.2-4.989-.2-.291-1.84-2.225-1.59-2.526.17-.21 2-.258 2.37-.344 2.57-.611 5.78-.362 8.41-.079 3.42.37 7.03 1.712 10.26 2.859 2.24.795 4.45 1.764 6.76 2.183.79.144 1.49.592 2.27.757.49.105 1.4.282 1.8.5" stroke="#C4631F" stroke-width="3" stroke-linecap="round" stroke-linejoin="round"/><path d="M1139.57 546.428c-2.2 1.522-4.47 2.947-6.45 4.756-1.78 1.642-2.87 4.399-4.34 6.362-1.37 1.825-2.59 3.892-3.43 5.995-.66 1.682.55 1.041 1.7.737 4.79-1.276 9.46-5.027 11.53-9.522 1.21-2.63 3.16-5.302 2.72-8.359m1.32-.621c-2.08-1.468-4.47-2.741-6.75-3.874-1.44-.716-2.62-1.175-3.73-2.428-3.1-3.483-5.84-7.164-8.49-10.988-.7-1.02-1.41-2.041-2.12-3.062-.51-.74-.41-1.618-.78-2.37-.44-.885.62-.24 1.11-.153 1.64.299 3.3.509 4.85 1.151 2.39.988 4.64 2.338 6.73 3.841 1.1.797 1.8 2.189 2.57 3.297.91 1.308 2.15 2.672 2.75 4.151 1.32 3.315 2.7 6.868 3.19 10.314m19.93 3.965c-1.95 1.355-4.43 2.618-6.08 4.344-1.34 1.39-2.53 2.92-3.83 4.334-2.33 2.525-4.49 5.403-5.79 8.605-.33.816-2.54 6.547-1.06 6.558 2.74.021 5.04.21 7.62-.969 5.16-2.368 8.68-6.992 10.68-12.153.32-.847.74-2.124.81-3.025.09-1.001.71-1.806.76-2.789.07-1.471.45-2.931.42-4.436m14.92 2.194c-3.9 2.922-4.9 8.266-6.75 12.552-.81 1.88-1.13 4.22-1.65 6.211-.4 1.542-.51 3.121-.69 4.702-.14 1.236-.72 2.263-1.74 2.965-.19.132-1.01.518-.44.532.78.018 2.2-.818 3.06-.955 2.49-.393 5.81-2.243 7.43-4.217 2.28-2.785 2.49-6.597 3.11-9.989.22-1.201.46-2.433.79-3.605.36-1.3-.05-2.913.12-4.261.15-1.135.31-2.59.15-3.663m-19.66-3.571c-3.45-3.187-7.77-4.716-11.43-7.585-3.72-2.917-7.12-7.007-9.81-10.894-.63-.903-3.53-5.296-.99-4.931 1.7.245 3.57-.263 5.32-.142 1.39.096 2.72.127 4.1.238 1.39.111 3.14 1.114 4.36 1.757 1.45.766 2.86 1.772 4.08 2.865 1.75 1.556 3.9 4.812 4.23 7.136.58 4.026.05 7.303-.66 11.238m18.39 2.996c-2.18-3.147-4.8-6.188-5.96-9.859-.62-1.978-1.33-3.925-1.31-6.014.01-2.009-.46-4.124-.1-6.117.39-2.13.73-4.792 1.77-6.696.34-.607.43-.641.84-.059.63.915 1.6 1.479 2.23 2.385 1.44 2.072 2.87 3.83 3.33 6.332.69 3.684 1.06 7.37 1.07 11.141.01 2.931-1.89 5.771-1.48 8.614m13.74 3.012c-1.84 1.319-1.99 2.271-2.56 4.392-.51 1.872-1.16 3.533-1.4 5.483-.38 3.161-1.13 6.259-1.31 9.437-.08 1.396.27 2.644.02 4-.31 1.688 1.68.648 2.65.271 4.99-1.953 6.06-8.02 6.44-12.75.34-4.174.17-8.401-2.27-11.924m-1.47-.439c-4.46-6.445-.96-15.516 1.61-22.082 1.31-3.347 2.87-6.461 4.73-9.542.08-.131 1.23-1.987 1.5-1.591.85 1.22.73 3.529.84 4.893.26 3.29.59 6.36-.41 9.554-.93 2.964-1.35 6.377-2.91 9.1-1.16 2.046-1.61 4.31-3.01 6.231-.84 1.142-1.36 2.504-2.21 3.634m19.01.527c-1.75 1.455-2.39 4.691-2.97 6.861-.47 1.76-1.13 3.445-1.14 5.301-.01 4.113.1 8.122.37 12.209.03.563 1.39 5.474 1.8 5.223 1.5-.909 2.46-1.951 3.56-3.273 1.93-2.316 2.68-5.726 3.38-8.585.79-3.226.24-6.86-.29-10.092-.52-3.147-1.46-5.467-3.26-8.068" stroke="#C4631F" stroke-width="3" stroke-linecap="round" stroke-linejoin="round"/><path d="M1216.29 552.785c-.65-.945-1.88-2.164-2.17-3.287-.33-1.312-.37-3.044-.22-4.381.16-1.393.6-2.709.94-4.057.46-1.749.92-3.737 1.66-5.375 1.52-3.338 3.4-6.488 5.03-9.763.96-1.931 2.55-3.825 4.38-4.983.18-.112.1 3.824.09 4.245-.09 2.689-.53 5.362-1.01 8.004-.42 2.3-1.25 4.646-2.03 6.85-.7 2.018-1.44 4.189-2.55 6.022-1.12 1.836-1.98 4.208-3.44 5.783-.55.593-.76 1.482-1.43 1.95m16.06-.229c-1.31 5.845-1.96 12.074-1.3 18.045.24 2.248.89 4.157 1.67 6.266.65 1.749 1.13 3.732 2.2 5.273.25.359.42.89.65.396.51-1.068.88-2.224 1.31-3.331 1.25-3.133 1.5-6.604 1.71-9.952.15-2.499-.34-5.006-.29-7.494.03-1.699-.25-3.771-1.24-5.209-1.09-1.569-2.16-3.818-3.67-4.952m.2-1.108c-1.47-3.762.02-7.939.98-11.698 1.01-4.002 2.1-7.934 3.77-11.692 1.51-3.398 3.68-6.642 6.27-9.297.55-.563 1.22-.98 1.87-1.426.07-.049.45-.314.45-.284-.06 1.515.66 3.484.92 4.985.41 2.322.17 4.544-.04 6.861-.16 1.722-.2 3.716-.69 5.375-.98 3.352-2.68 6.349-4.42 9.357-2.06 3.568-5.58 5.86-8.89 8.147m31.63-7.132c-1.54-2.235-2.87-4.099-3.75-6.659-1.18-3.445-2.01-7.389-1.75-11.067.16-2.442.26-4.707 1.21-7.029.34-.824.88-1.517 1.31-2.29.2-.372.47-1.417.89-.808 1.39 2.004 2.84 3.907 3.52 6.283.85 3.005 1.54 6.619 1.29 9.758-.17 2.157-.2 4.314-.24 6.466-.02 1.11-.34 2.239-.54 3.33-.09.544-.57 1.497-.5 1.991m.06.44c.91 4.123 2.71 8.4 4.9 11.987 1.13 1.848 2.29 3.64 3.53 5.426 1.11 1.602 2.23 3.413 3.79 4.615.89.689 1.66 1.618 2.63 2.203.44.268.91.485 1.28.79.25.203 1.21-5.319 1.19-5.771-.17-2.98-.2-5.497-1.56-8.311-1.57-3.238-3.43-6.332-6.46-8.36-1.03-.685-2.21-1.074-3.33-1.574-1.09-.487-2.03-.312-3.14-.49-.94-.153-2.03-.809-2.94-.678m21.42-6.841c-3.6-5.199-8.07-10.242-8.39-16.834-.12-2.434-.03-4.974.34-7.379a4.81 4.81 0 01.55-1.648c.36-.649.78.429 1.03.791 1.64 2.371 3.78 4.405 5.25 6.9 1.6 2.712 1.61 5.991 1.66 9.022.04 2.162-.38 4.527-.71 6.667-.13.836-.45 1.845-.34 2.657m1.1-.516c1.17 2.637 1.73 5.645 3.4 8.058 2.32 3.36 4.58 6.327 8.25 8.335 2.22 1.216 3.87 1.894 6.31 2.03.22.012 1.58-.241 1.57-.36-.08-.93-.45-1.829-.68-2.73-.7-2.732-2.67-5.357-4.82-7.132-2.27-1.879-4.74-3.899-7.48-5.04-.81-.336-1.5-.788-2.37-.971-.52-.108-1.56-.229-2-.443-.85-.405-1.89-.264-2.66-.689" stroke="#C4631F" stroke-width="3" stroke-linecap="round" stroke-linejoin="round"/></g><g opacity=".9"><path d="M1390.6 455.726c5.46 3.042 10.6 2.864 16.49 2.582-.43-.363-.84-.799-1.23-1.138-2.2-.618-3.78-1.183-5.63-2.296-2.6-1.56-5.39-3.287-8.53-3.371-2.9-.076-4.95-.655-7.83-.518-.44.021-1.58-.189-1.22.456.3.524.65.952 1.11 1.343 1.84 1.588 4.72 1.755 6.84 2.942zm26.18 3.094c-1.92.092-3.86-.519-5.78-1.063.4-.356.88-.95 1.18-1.258.61-.641 1.36-.986 2.08-1.494 2.42-1.726 5.44-2.748 8.24-3.681 2.64-.88 5.91-1.16 8.6-.309.89.281 1.84.445 2.67.87.11.054-3.67.09-2.08 1.166-1.41 2.002-1.95 2.574-4.16 3.812-3.64 2.043-6.67 1.763-10.75 1.957zm-1.79 23.222c-4.2-.04-7.7-.923-11.68-2.337.38-.846.13-.011.76-.733.73-.841 1.09-1.737 2.08-2.402 1.01-.682 1.97-1.478 3.09-1.985 3.33-1.503 6.94-1.439 10.52-1.054 3.1.336 5.25 1.647 7.87 3.081.4.217 4.15 2.375 3.85 2.477-.46.155-.95.559-1.41.79-1 .506-1.79.466-2.85.859-1.84.685-3.82.182-5.77.274-2.17.103-4.29 1.051-6.46 1.03zm-14.65-1.472l.12-.006c-.46-.202-.3-.171-.71-.543-.82-.746-1.61-1.61-2.54-2.216-1.81-1.176-3.62-2.343-5.36-3.632-2.53-1.877-5.96-3.206-8.96-4.07-2.38-.683-3.12-1.32-5.55-1.204-.74.035 0 .816.21 1.186.43.769.73 1.598 1.25 2.321 1.47 2.036 3.57 2.426 5.55 3.863 2.99 2.163 6.03 3.063 9.58 3.882 2.6.6 3.78.544 6.41.419zm3.55 41.766c-5.41-2.607-10.44-6.734-14.12-8.006 1.77-.682 2.03-1.285 3.94-1.375 1.75-.083 3.65.779 5.07 1.708 2.09 1.359 4.48 2.267 6.51 3.721 2.74 1.947 5.54 4.005 7.54 6.717.71.958 2.13-.292 2.77.706.29.462-.24.322-.68.343-1.87.089-3.28-.527-5.11-.905-2.2-.456-3.88-1.928-5.92-2.909zm-26.95-21.377c2.69 2.8 5.84 6.257 9.8 7.009-.19-4.013-.26-8.218-2.2-11.855-1.63-3.066-3.27-6.099-5.59-8.703-1.15-1.29-2.82-2.388-4.2-3.433-.31-.238-.5-.391-.61-.485-.29-.244-.03-.089 0 0 .03.08-.12.109-.97-.237-1.41-.572-3.46-1.007-4.72-1.858-.02-.017 0 .446 0 .532.04.781.04 1.573.23 2.337.88 3.602-.15 4.034 1.93 7.116 2.3 3.407 3.48 6.595 6.33 9.577z" fill="#CB906D"/><path d="M1376.99 524.138c1.11.35 2.82-.084 3.97-.138-.18-.338-.37-.673-.47-1.036-.57-2.07-2.12-4.061-3.09-5.976-.96-1.915-2.42-3.689-3.75-5.359l-.08-.098c-1.44-1.796-2.96-3.702-4.66-5.246-1.99-1.807-4.02-3.597-6.25-5.096-.35-.234-3.65-2.384-3.65-2.174.01 2.167.78 4.517 1.91 6.354 1.91 3.114 3.59 6.377 5.62 9.433.99 1.499 2.43 2.944 3.67 4.255.96 1.011 1.85 2.081 2.95 2.949 1.05.834 2.54 1.724 3.83 2.132z" fill="#F9F6EF"/><path d="M1387.37 534.428c-1.53-1.638-5.59-4.899-5.9-7.151 3.16-.15 5.62.286 8.57 1.51 3.02 1.257 6.4 2.719 8.71 5.1 2.06 2.11 4.55 4.55 5.5 7.411.53 1.633 1.45 1.619 1.43 3.367-.01.482-4.62-.936-5.12-1.203-3.61-1.938-6.17-3.134-9.65-5.326-1.57-.989-2.29-2.38-3.54-3.708zm-6.39-7.388c1.11.35.26-.736 1.41-.79-.04-.82-2.58.788-2.79.009-.56-2.07-2.12-4.061-3.08-5.977-.97-1.914-2.42-3.688-3.76-5.358-1.46-1.824-3.01-3.772-4.74-5.345-1.92-1.751-3.89-3.487-6.05-4.958-.21-.901-.32-1.817-.32-2.691 0-.21-.23 2.319.12 2.554.07.045.13.091.2.137.31 1.332.82 2.634 1.49 3.73 1.92 3.114 2.75 6.116 4.78 9.172.99 1.499 2.57 2.847 3.81 4.157 1.34.84 2.64 1.846 3.74 2.714 1.06.834 3.9 2.237 5.19 2.646zm-6.25 20.541c-1.5-1.61-1.55-2.095-2.99-1.911l-.09-1.914c4.28-.203 7.96 1.896 11.32 4.39 3.81 2.827 8.38 6.955 7.4 12.221-.19 1.017-.29.989-1.56-.165-1.02-.928-1.61-1.509-2.75-2.314-2.6-1.833-5.01-3.428-7.49-5.428-1.53-1.234-2.53-3.458-3.84-4.879zm-21.1-17.796c4.21 5.657 8.56 12.608 15.22 13.737-.51-1.317-1.14-2.496-1.67-3.809-.88-2.21-2.57-3.783-3.69-5.858-1.48-2.763-4.16-4.926-6.18-7.285-2.18-2.542-4.96-3.885-7.89-5.405-1.21-.631.13-2.031-1.35-1.961-.48.023.03 2.028.1 2.165 1.63 3.206 3.32 5.532 5.46 8.416zm17.04 38.957c-2.66-3.835-6.08-6.218-8.46-10.631l2.03-2.734c.99.439 2.14 1.345 3.03 2.067 1.05.858 2.64 1.364 3.55 2.362.82.9 1.73 1.757 2.64 2.578 2.55 2.32 5.67 4.521 6.82 7.934.82 2.418.63 6.215-.35 8.527-.35.805-.17.346-.59.996-.32.478-.21-.423-.22-.655-.06-1.231.11-2.078-.86-2.852-1.24-.989-2.68-2.279-3.78-3.435-1.41-1.492-2.64-2.475-3.81-4.157zM1349 553.865c3.72.962 7.33 1.746 11.15 1.564-2.63-1.161-4.06-4.751-6.55-6.295-3.2-1.986-6.53-3.625-10.01-4.998-2.37-.933-4.62-.646-7.14-.527-.02.002-.05.002-.07.003-.03-.052-.05-.099-.07-.142.36-.186 1.28-.485.54-.45-.57.028-.7.099-.54.45-.17.086-.22.147.07.142.02.045.05.094.08.146 1.06 1.895 1.28 3.326 2.88 4.782 1.5 1.363 3.53 2.289 5.22 3.367 1.77 1.121 2.43 1.441 4.44 1.958zm2.71 26.623c-.59-2.321-1.54-4.868-1.66-7.245l2.27-2.745c1.29.774 2.33 1.867 3.54 2.709.81.562 1.16 1.516 1.96 2.117.73.542 1.59 1.57 2.14 2.296 3.32 4.426 5.38 9.858 4.65 15.495-.36 2.806-1.23 1.93-2.7 4.241-.79 1.247-3.26-2.722-3.78-3.436-2.03-2.798-3.11-5.175-4.02-8.485-.51-1.854-1.93-3.078-2.4-4.947zm-10.45-6.734c4.38-1.584 3.89-4.218 8.42-5.461-2.96-2.69-1.3-3.589-5.02-5.233-2.15-.949-6.05-.848-8.29-.192a21.003 21.003 0 00-4.6 1.95c-1.19.69-2.97 1.642-3.8 2.764-.82 1.11-1.56 2.227-2.37 3.349-1.03 1.423-1.59 3.276-2.7 4.59-1.65 1.964 3.63.38 4.73.327 4.72-.224 9.19-.483 13.63-2.094zm-5.75 14.31c.13 2.67 1.31 6.385 1.8 9.015.45 2.386 2.28 3.345 3.16 5.634.82 2.127 1.1 3.848 2.44 5.668.19.252.3.487.37.699l-.15.544c-.29.934.48.469.15-.544 1.25-4.646.49-10.3-2.12-14.279-1.59-2.42-2.83-5.489-5.65-6.737zm-8.02 1.287c1.92-1.182 3.98-2.379 6.05-3.318-3.11-1.309-6.7-1.997-10.09-2.604-1.57-.281-3.39.055-4.98.13-1.34.064-2.9-.078-4.16.438-2.38.971-4.23 2.85-6.33 4.354-1.37.976.47.241-.66 1.477-.33.362-1.44.927-.45 1.02.83.08 1.52.634 2.42.591l3.72-.177c4.65-.221 5.84.752 10.44-.028 1.65-.28 2.66-1.04 4.04-1.883zm2.14 8.566c.49-2.594 1.26-2.14 1.22-4.463-.38.297-.85.803-1.14 1.101-.55.575-1.31.933-1.85 1.527-1.57 1.733-3.56 3.094-5.43 4.573-2.68 2.133-4.91 4.159-7.04 6.865-1.62 2.073-2.89 2.755-3.74 5.263-.12.357-1.05 1.933-.96 2.19.12.37 2.63.009 2.98-.008.64-.031 3.09-1.536 5.57-2.542 2.88-1.514 6.85-4.322 8.1-7.565.87-2.272 1.84-4.531 2.29-6.941z" fill="#CB906D"/><path d="M1333.18 590.769c5.21-4.694 8.45-11.15 13.55-15.719 1.35-1.199 2.17-2.976 3.31-4.358 1.26-1.52 2.93-2.769 3.99-4.418 2.1-3.25 5.11-5.9 7.43-8.975 4.31-5.696 9.25-11.006 13.2-16.937 2.3-3.456 4.35-7.136 6.52-10.689 2.11-3.442 4.73-6.412 6.55-10.032 6.77-13.421 11.26-28.099 14.94-42.638 2.53-9.985 7.66-20.369 7.17-30.737 0 0 1.05-20.554 3.77-33.393 6.45-30.519 25.78-42.207 33.9-72.327 3.88-14.39 6.82-37.546 6.82-37.546m-121.47 288.317c.13 2.77.05 5.189-.47 7.92-.45 2.41-1.42 4.669-2.29 6.942-1.25 3.243-5.79 6.249-8.89 7.508-2.47 1.006-4.33 1.644-6.98 1.77-.36.017-2.86.378-2.99.009-.08-.258.84-1.834.96-2.19.85-2.509 2.76-5.101 4.39-7.175 2.13-2.705 5.18-5.06 7.86-7.192 1.87-1.48 3.86-2.84 5.43-4.574.54-.593 1.3-.951 1.85-1.526.35-.365.98-1.043 1.38-1.264" stroke="#C4631F" stroke-width="3" stroke-linecap="round" stroke-linejoin="round"/><path d="M1336.5 587.308c.13 2.671.13 5.359.62 7.989.45 2.386 2.21 4.77 3.09 7.058.83 2.128 1.93 4.258 3.28 6.078 1.07 1.456 1.17.084 1.52-1.045 1.46-4.742.75-10.687-1.97-14.823-1.59-2.42-2.82-5.489-5.65-6.737m.17-1.447c-2.34.98-4.69 2.334-6.86 3.669-1.37.843-2.38 1.603-4.03 1.883-4.6.78-9.17 1.155-13.82 1.376l-3.72.177c-.9.042-1.59-.512-2.42-.591-.99-.093.12-.658.45-1.021 1.13-1.235 2.19-2.535 3.55-3.511 2.11-1.504 4.44-2.696 6.82-3.667 1.26-.516 2.82-.374 4.16-.438 1.59-.075 3.41-.411 4.98-.13 3.51.63 7.25 1.347 10.44 2.754m13.92-14.806c.11 2.377-.13 5.142.46 7.463.47 1.869 1.14 3.688 1.65 5.542.91 3.311 2.2 6.67 4.23 9.469.52.713 4.21 5.617 5 4.37 1.47-2.311 2.85-4.166 3.21-6.972.73-5.636-1.33-11.069-4.65-15.495-.54-.726-1.41-1.754-2.13-2.296-.81-.601-1.16-1.555-1.97-2.117-1.21-.842-2.25-1.934-3.54-2.709m9.77-11.492c.41 4.851 4.41 8.535 7.07 12.37 1.17 1.682 2.98 3.2 4.39 4.692 1.1 1.157 2.38 2.088 3.62 3.078.98.774 1.54 1.81 1.6 3.041.01.232-.1 1.133.22.655.43-.649.47-2.296.81-3.101.98-2.312 1.17-6.11.35-8.528-1.15-3.413-4.27-5.614-6.82-7.933-.9-.822-1.82-1.679-2.64-2.579-.91-.998-2.49-1.504-3.55-2.361-.88-.723-2.03-1.629-3.03-2.067m-13.44 14.784c-4.53 1.242-8.12 4.097-12.49 5.681-4.44 1.611-9.71 2.326-14.43 2.551-1.1.052-6.37.19-4.71-1.775 1.11-1.314 1.67-3.167 2.7-4.59.81-1.122 1.55-2.239 2.37-3.349.83-1.122 2.61-2.074 3.8-2.764a21.182 21.182 0 014.59-1.95c2.25-.656 6.15-.757 8.3.192 3.72 1.644 6.22 3.826 9.18 6.516m12.28-14.009c-3.83.181-7.79.789-11.52-.172-2.01-.518-4.03-.948-5.8-2.069-1.69-1.078-3.74-1.797-5.23-3.16-1.61-1.456-3.68-3.155-4.75-5.049-.33-.604-.31-.704.39-.738 1.12-.053 2.11-.58 3.21-.632 2.52-.12 4.77-.406 7.14.527 3.48 1.373 6.81 3.011 10.01 4.998 2.49 1.543 3.9 4.656 6.52 5.816m9.84-10.056c.14 2.257.87 2.886 2.37 4.496 1.32 1.421 2.38 2.855 3.91 4.089 2.48 2 4.7 4.28 7.31 6.112 1.14.805 2.38 1.175 3.4 2.103 1.27 1.154 1.44-1.086 1.63-2.102.99-5.267-3.59-9.394-7.4-12.221-3.36-2.495-7.03-4.594-11.32-4.391m-1.15 1.014c-7.83.372-13.67-7.399-17.88-13.055-2.14-2.884-3.95-5.864-5.58-9.071-.07-.137-1.04-2.095-.56-2.118 1.49-.071 3.38 1.256 4.6 1.886 2.93 1.52 5.71 2.864 7.88 5.405 2.03 2.359 4.7 4.523 6.18 7.285 1.12 2.075 2.81 3.648 3.69 5.858.53 1.314 1.4 2.481 1.91 3.798m10.52-15.842c.31 2.252 2.71 4.513 4.25 6.151 1.24 1.328 2.32 2.781 3.89 3.77 3.48 2.192 6.94 4.22 10.55 6.159.5.267 5.38 1.718 5.39 1.235.02-1.747-.36-3.119-.9-4.752-.94-2.861-3.44-5.301-5.49-7.411-2.32-2.38-5.69-3.843-8.71-5.1-2.95-1.223-5.41-1.66-8.57-1.51" stroke="#C4631F" stroke-width="3" stroke-linecap="round" stroke-linejoin="round"/><path d="M1382.53 525.602c-1.15.054-2.83.448-3.94.098-1.29-.408-2.77-1.298-3.83-2.132-1.1-.868-1.98-1.938-2.94-2.949-1.24-1.311-2.69-2.756-3.68-4.255-2.03-3.056-3.7-6.319-5.62-9.433-1.13-1.837-1.89-4.187-1.91-6.354 0-.21 3.3 1.94 3.65 2.174 2.23 1.499 4.27 3.289 6.25 5.096 1.73 1.572 3.28 3.52 4.74 5.344 1.34 1.67 2.79 3.444 3.76 5.359.96 1.915 2.52 3.906 3.08 5.976.21.779.86 1.43.9 2.25m8.31-13.749c4.26 4.209 9.2 8.059 14.62 10.666 2.03.982 4 1.442 6.2 1.898 1.82.378 3.76 1.017 5.63.928.44-.021.98.119.69-.342-.64-.999-1.43-1.92-2.13-2.878-2-2.712-4.81-4.77-7.54-6.717-2.04-1.454-4.43-2.362-6.51-3.722-1.43-.928-3.33-1.79-5.08-1.707-1.91.09-4.38-.191-6.14.491m-.84-.758c-3.96-.751-6.72-4.228-9.4-7.028-2.86-2.981-5.62-5.982-7.92-9.39-2.08-3.081-3.68-6.645-4.56-10.247-.19-.764-.19-1.556-.22-2.337-.01-.086-.03-.549-.01-.532 1.26.851 3.31 1.286 4.72 1.858 2.19.885 3.95 2.26 5.8 3.667 1.38 1.045 3.04 2.143 4.19 3.432 2.33 2.605 3.97 5.638 5.6 8.704 1.93 3.636 2.01 7.841 2.2 11.854m10.71-30.606c-2.72.13-5 .263-7.64-.345-3.55-.819-7.33-2.207-10.32-4.371-1.98-1.437-3.85-2.716-5.32-4.753-.52-.722-.82-1.551-1.25-2.321-.2-.37-.95-1.15-.21-1.186 2.44-.115 4.82-.338 7.19.345 3.01.864 6.44 2.193 8.97 4.07 1.73 1.289 3.55 2.456 5.35 3.632.93.607 1.72 1.47 2.54 2.216.41.372.97 1.281 1.42 1.482m.41.18c3.98 1.414 8.56 2.155 12.76 2.195 2.17.021 4.3-.016 6.47-.119 1.95-.092 4.08-.083 5.93-.768 1.05-.393 2.25-.558 3.26-1.063.46-.232.89-.519 1.35-.674.3-.102-3.87-3.843-4.27-4.06-2.62-1.434-4.77-2.745-7.88-3.081-3.57-.386-7.18-.449-10.51 1.054-1.12.507-2.08 1.303-3.09 1.985-.99.664-1.35 1.561-2.08 2.402-.63.722-1.76 1.293-2.14 2.139m5.54-21.79c-6.31.3-12.95 1.414-18.72-1.801-2.13-1.187-4.23-2.608-6.08-4.196-.45-.392-.81-.82-1.1-1.343-.36-.645.78-.435 1.22-.456 2.88-.137 5.74-.875 8.63-.798 3.14.083 5.93 1.811 8.53 3.371 1.85 1.112 3.64 2.721 5.28 4.134.64.552 1.32 1.363 2.07 1.695m.15-1.203c2.86.4 5.7 1.523 8.63 1.384 4.08-.194 7.8-.539 11.44-2.581 2.21-1.238 3.66-2.281 5.07-4.283.13-.181.63-1.466.52-1.52-.83-.424-1.79-.588-2.67-.869-2.69-.851-5.96-.572-8.6.309-2.8.932-5.82 1.955-8.24 3.68-.72.508-1.47.853-2.08 1.494-.37.38-1.02 1.198-1.44 1.464-.79.504-1.22 1.456-1.99 1.888" stroke="#C4631F" stroke-width="3" stroke-linecap="round" stroke-linejoin="round"/></g></g></g><defs><clipPath id="clip0"><path fill="#fff" d="M0 0h1440v990H0z"/></clipPath></defs></svg>