<svg width="898" height="122" fill="none" xmlns="http://www.w3.org/2000/svg"><path d="M833 39.45H54L0 103.948h897.5l-64.5-64.5z" fill="#CB906D"/><path d="M0 121.449v-19h898v19H0z" fill="#AF7C5E"/><circle cx="444.335" cy="35.756" r="34.756" fill="#fff"/><circle cx="443.545" cy="34.965" r="30.806" fill="#6075BC"/><path d="M459.343 23.116c-3.791-2.527-22.643 1.054-31.596 3.16l-3.159 20.538 8.689 2.37 4.739-2.37h14.218l1.58 2.37 11.059-3.95c-.264-6.32-1.738-19.59-5.53-22.118z" fill="#fff"/><path d="M444.68 5.74c-4.938.113-8.987 1.159-13.24 3.953-3.585 2.357-6.98 4.834-10.647 7.108-5.615 3.484-4.86 12.664-4.86 18.645 0 3.401-.165 7.892 1.527 10.886 2.323 4.11 5.965 6.848 9.421 9.76 5.406 4.559 10.791 6.629 17.521 7.759 9.083 1.526 17.525-2.155 23.933-9.36 3.837-4.315 5.383-10.588 5.832-16.367.296-3.798.504-8.173-1.597-11.438-3.849-5.983-8.156-10.302-13.887-14.19-2.625-1.78-4.813-3.594-7.754-4.73-3.024-1.167-6.419-1.538-9.582-2.027" stroke="#566EBE" stroke-linecap="round" stroke-linejoin="round"/><path d="M433.321 1c-9.126 1.547-17.275 7.205-22.545 15.486-3.234 5.082-3.03 13.147-2.398 19.109.765 7.223 2.355 13.342 7.219 18.531 4.521 4.824 9.658 8.5 15.325 11.602 3.215 1.76 6.506 2.835 10.097 2.835 3.461 0 6.926.754 10.337.105 5.137-.978 10.762-2.29 14.918-6.011 3.938-3.526 8.719-9.25 10.553-14.41 1.353-3.807 1.966-8.787 2.23-12.836.297-4.543-1.459-7.957-2.134-12.205-1.331-8.377-8.689-11.287-14.246-15.486-8.662-6.546-20.07-6.72-30.22-6.72" stroke="#CACACA" stroke-linecap="round" stroke-linejoin="round"/><path d="M443.46 22.515c-3.915 0-7.595 1.022-11.441 1.79-5.789 0-7.163 7.733-7.163 12.436v8.854c0 2.407 3.163 3.236 5.024 3.88 2.546.882 4.147 1.261 5.919-.995 1.697-2.16 1.667-2.375 4.278-2.238 3.092.163 5.572.436 8.655.025.872-.116 3.432-.887 3.432.199 0 5.246 8.91 1.154 11.391-.2 2.835-1.545 1.968-4.24 1.045-6.64-.934-2.427-1.965-4.845-2.587-7.486-.585-2.49-.761-5.576-1.89-7.834-.932-1.865-4.475-1.41-6.168-2.015-1.251-.447-3.714.224-5.123.224h-5.372z" stroke="#CACACA" stroke-linecap="round" stroke-linejoin="round"/><circle cx="451.444" cy="38.125" r="3.95" fill="#6075BC"/><circle cx="438.806" cy="38.125" r="3.95" fill="#6075BC"/><path d="M434.705 36.17c0-1.884 3.77-1.77 4.924-1.568 1.53.765 3.134 1.082 3.134 3.234 0 3.84-2.51 4.065-5.571 3.482-2.865-.546-2.487-2.68-2.487-5.149zm16.344-.87c-2.734 1.134-3.98 1.767-3.425 4.746.454 2.433 3.522 1.999 5.378 1.999 4.226 0 2.398-7.87-1.953-7.87" stroke="#CACACA" stroke-linecap="round" stroke-linejoin="round"/><rect x="180.883" y="6.441" width="62.186" height="60.549" rx="3" fill="#5FCEF7"/><rect x="183.767" y="9.324" width="54.782" height="53.341" rx="3" fill="#0D2731"/><path d="M192.798 8.953c-1.234.173-3.69.141-4.686 1.242-1.718 1.898-2.475 6.05-2.803 8.61-.763 5.949-1.369 12.209-.621 18.2.453 3.62.181 7.423.181 11.073v7.168c0 1.537-.582 4.415.18 5.787 1.158 2.085 4.254 1.743 6.327 2.002 4.808.6 9.898 1.061 14.757 1.061 2.635 0 5.217.36 7.849.36 2.322 0 4.595-.36 6.908-.36h11.993c5.529 0 6.768-8.117 6.768-12.394 0-7.638.134-15.29 0-22.926-.036-2.092-.581-3.965-1.081-5.967-.712-2.847-.478-5.52-.741-8.41-.175-1.928-.198-3.373-2.383-3.664-4.436-.591-8.713-.966-13.215-1.341-2.749-.23-5.665.28-8.449.28-3.438 0-6.821.21-10.252.34-4.562.173-9.103-.34-13.616-.34" stroke="#165167" stroke-linecap="round" stroke-linejoin="round"/><path d="M195.321 6.07c-3.668-.699-8.13-.367-11.814.08-2.262.274-4.31 1.65-4.745 4.044-1.026 5.64-.188 11.647-.661 17.38-.387 4.695.431 9.439.921 14.096.339 3.225.245 6.517.46 9.751.16 2.397.429 4.857 1.062 7.189.357 1.318.665 5.083 2.002 5.846 1.964 1.123 3.299 1.754 5.646 2.163 1.861.323 3.715.304 5.567.64 5.343.972 10.875.74 16.258 1.442 5.914.772 11.873-.64 17.741-.64 3.57 0 8.441-.709 11.713-2.163 2.648-1.177 2.661-4.265 3.344-6.567.85-2.869.62-6.757.62-9.491-.62-2.312-.62-3.032-.62-5.916.464-2.601.62-5.045.62-7.929 1.263-6.164 2.4-14.128.721-20.423-1.007-3.778-.443-7.672-4.525-8.08-5.172-.518-10.306-1.604-15.498-2.123-9.959-.996-20.445.34-30.254.34" stroke="#33A6D0" stroke-linecap="round" stroke-linejoin="round"/><path d="M194.579 50.413l.721-29.554c12.254-.72 18.741 5.046 18.741 10.812 0 4.614-9.13 6.728-13.696 7.209l-.72 12.254-5.046-.721zm33.879-17.301l.72-4.325c-1.441-1.441-10.812 0-12.974 0-1.73 0-1.202 3.845-.721 5.767 1.201.48 4.325 2.018 7.208 4.326 2.883 2.307 1.682 5.285.721 6.486l-7.929.721.721 3.604c3.604-.24 11.1-.865 12.254-1.441 1.441-.721.72-5.046 0-7.209-.721-2.162-7.209-6.487-8.65-7.929-1.154-1.153 5.286-.48 8.65 0z" fill="#fff"/><path d="M195.321 21.207c0 7.025-.623 14.067-.721 21.104-.035 2.521-1.045 6.566.741 8.65.61.712 4.002.95 4.285-.04.494-1.73.38-3.484.38-5.286 0-1.67.361-3.23.361-4.886 0-1.044-.328-1.882.921-1.882 3.618 0 6.277-.473 8.79-3.404.741-.864 1.983-1.206 2.743-2.183.757-.973.921-2.633.881-3.864-.095-2.924-.881-4.285-3.284-5.887-1.522-1.015-3.493-2.431-5.346-2.663-1.538-.192-9.093-1.337-9.751-.02" stroke="#A4B5BD" stroke-linecap="round" stroke-linejoin="round"/><path d="M200.346 35.274l-.721-9.37c7.929-1.442 8.65 5.766 8.65 7.208 0 1.153-5.286 1.922-7.929 2.162z" fill="#0D2731"/><path d="M199.646 25.172c0 2.788-.683 6.733.08 9.53.778 2.853 5.688.587 7.048-.52 2.131-1.735 1.697-4.127.521-6.127-1.506-2.56-5.443-2.523-8.01-2.523m28.473 6.848c-1.507-.203-3.67-1.047-5.226-.7-.735.162-1.424.556-2.162.72-1.993.443.618 3.338 1.602 3.584 3.05.763 7.643 5.547 7.208 9.03-.651 5.206-8.307 4.305-12.054 4.305-1.063 0-1.47.219-1.642-.9-.123-.798-.559-1.668-.32-2.504.164-.576 4.7-.2 5.206-.2 1.488 0 3.3-.253 3.864-1.882.88-2.542-1.572-4.757-3.604-5.967-2.764-1.645-5.126-2.149-5.126-5.846 0-1.458.132-2.412 1.442-2.964 1.86-.783 4.056-.64 6.047-.64 1.219 0 4.729-.143 5.766.8.756.687.433 3.168-.28 3.524" stroke="#A4B5BD" stroke-linecap="round" stroke-linejoin="round"/><rect x="299" y="8.565" width="56.355" height="56.355" rx="5" fill="#fff"/><ellipse cx="329.526" cy="35.178" rx="10.175" ry="9.392" fill="#568CED"/><path d="M317.002 35.96c1.879-13.15 21.655-14.35 31.309-13.306-13.15-16.28-33.135-8.349-41.484-2.348l10.175 15.654z" fill="#CD5547"/><path d="M317.002 35.96l-10.175-15.654c-8.14 25.672 10.175 36.265 20.35 38.352l10.175-15.654c-9.392 7.514-17.48-1.565-20.35-7.044z" fill="#4A9D63"/><path d="M348.311 23.436l-14.872.783c11.271 10.645 1.044 27.395-5.479 34.44 26.299.626 27.395-28.96 20.351-35.223z" fill="#F8CD5E"/><path d="M306.693 21.089c3.268 4.06 5.701 8.62 8.022 13.262.266.532 1.41 3.612 1.848 2.783.706-1.332 1.122-3.06 1.653-4.5 2.102-5.707 6.913-8.405 12.784-9.11 4.608-.553 9.36-.478 14.002-.478 1.983 0 4.586-.469 6.305.391" stroke="#9B473D" stroke-linecap="round" stroke-linejoin="round"/><path d="M317.259 38.309c2.965 3.877 6.551 7.341 11.741 7.435 1.62.03 3.251-.326 4.783-.87.263-.093 4.566-2.139 4.566-2 0 1.379-2.198 3.163-2.892 4.283-1.314 2.124-2.659 4.256-4.283 6.175-1.167 1.38-3.187 3.668-3.74 5.327" stroke="#346D46" stroke-linecap="round" stroke-linejoin="round"/><path d="M337.61 42.222c2.418-4.333 1.354-9.962-.979-14.11-1.705-3.032-2.758-3.892-6.066-3.892" stroke="#BE9D48" stroke-linecap="round" stroke-linejoin="round"/><path d="M305.518 8.174c6.318-1.175 12.45-.382 18.785-.804C329.55 7.02 334.87 7 340.175 7c5.72 0 13.628 1.233 16.024 7.088 1.999 4.886.195 11.994.195 17.089 0 4.92.392 9.81.392 14.741 0 3.851.961 9.498-1.479 12.61-4.7 5.997-11.545 7.958-18.915 7.958h-26.156c-4.284 0-6.809-.834-8.153-5-1.644-5.097-2.405-10.485-2.739-15.829-.632-10.114-.384-20.479.674-30.525.167-1.594.047-3.358.804-4.827.853-1.655 2.703-1.348 4.305-1.348" stroke="#DADADA" stroke-linecap="round" stroke-linejoin="round"/><path d="M306.24 20.893c2.473-1.955 4.96-3.608 7.958-4.631 2.711-.925 5.448-1.754 8.174-2.61 3.284-1.03 7.654-1.485 10.915-.108 2.363.998 4.583 2.41 6.957 3.435 1.968.85 4.114 1.414 5.958 2.544.74.454 1.616.74 2.413 1.076.581.245 1.64.39 2.087.837.423.423.374 1.329.935 1.61" stroke="#9B473D" stroke-linecap="round" stroke-linejoin="round"/><path d="M351.441 23.633c.701 3.851.392 7.97.392 11.87 0 1.819-.122 3.642-.207 5.458-.146 3.14-.9 5.504-2.511 8.262-2.495 4.272-7.496 6.154-12.165 7.088-2.025.405-3.982 1.115-6.033 1.457-.98.163-2.165.5-3.153.5" stroke="#BE9D48" stroke-linecap="round" stroke-linejoin="round"/><path d="M327.764 57.876c-2.728-.29-5.195-.585-7.511-2.239-2.519-1.8-5.552-2.909-8.23-4.479-1.758-1.031-3.788-2.27-4.522-4.272-.702-1.914-1.523-3.71-1.848-5.75-.678-4.257-1.165-8.199-.739-12.503.038-.387 1.422-6.909.935-7.152" stroke="#346D46" stroke-linecap="round" stroke-linejoin="round"/><rect x="74" y="9.492" width="57.635" height="56.118" rx="6" fill="#56C0F5"/><path d="M98.267 41.341c-2.426-8.494 3.792-25.277 7.584-31.85 1.769-.505 10.01 0 16.683 0 6.674 0 9.101 4.55 9.859 6.826 0 11.88.705 36.72 0 40.951-.758 4.55-5.561 7.33-8.342 8.34h-15.167c-.758-8.089-2.73-23.964-4.55-22.75-1.821 1.213-4.803-.506-6.067-1.517z" fill="#ECEEF0"/><path d="M87.71 26.16c0 .363.245 5.988 1.053 4.17.862-1.94.557-2.718-1.053-3.792m28.058-.758c-.026.135-.583 6.204.38 4.844.5-.706 1.253-1.414.842-2.19-.365-.69-.842-1.026-.842-1.896M86.193 48.151c5.352 3.935 11.38 4.753 17.8 5.288 4.77.397 12.018-1.1 14.809-5.288" stroke="#000" stroke-linecap="round" stroke-linejoin="round"/><path d="M105.437 9.492c-.101 4.347-3.319 7.407-4.845 11.291-1.288 3.28-1.98 6.38-1.98 9.943 0 2.59-1.227 9.473.948 11.165 1.751 1.361 3.794-.127 5.667-.127 1.414 0 .849 5.943.99 6.994.673 5.05 3.012 10.281 3.012 15.336" stroke="#E0E0E0" stroke-linecap="round" stroke-linejoin="round"/><path d="M105.093 9.87c-6.162 0-12.387.639-18.527.2-1.429-.102-2.897-.01-4.33-.01-1.326 0-2.94-.036-4.15.569-1.66.83-1.69 2.042-2.095 3.707-.431 1.771-.91 3.586-1.032 5.414-.244 3.65 0 7.399.263 11.038.3 4.148.128 8.368-.074 12.513-.198 4.07-.2 8.294-.2 12.365 0 1.933-.092 3.875.18 5.772.367 2.575 2.904 3.609 5.276 3.96 3.068.455 6.224.678 9.31.443 2.801-.213 5.767.147 8.596.147 2.282 0 4.542-.19 6.825-.19.791 0 3.549.402 3.939-.379" stroke="#438BAF" stroke-linecap="round" stroke-linejoin="round"/><path d="M109.263 65.8c4.735-.631 9.561 0 14.262-.716 1.31-.2 2.481-.474 3.602-1.18 1.871-1.178 3-1.741 3.381-4.087.834-5.147 1.885-10.283 1.885-15.525 0-3.218.19-6.438.19-9.648 0-3.017-.379-6.022-.379-9.047 0-2.37.379-4.738.379-7.1 0-1.366-.315-2.203-.759-3.422-1.117-3.074-3.801-3.609-6.635-4.593-2.542-.882-5.365-.746-8.005-1.032-1.85-.2-3.814.108-5.635-.242-2.099-.404-4.504-.095-6.646-.095" stroke="#E0E0E0" stroke-linecap="round" stroke-linejoin="round"/><circle cx="562" cy="34" r="32" fill="#F9F9F9"/><path d="M561.22 21.513c.52-4.163-.625-11.552-9.366-7.805-.781 3.122 0 9.054 9.366 7.805z" fill="#65C4EC"/><path d="M552.082 34.95c.521 4.163-.624 11.551-9.365 7.805-.781-3.122 0-9.054 9.365-7.805z" fill="#CF375C"/><path d="M573.813 32.687c-.52-4.163.624-11.552 9.366-7.805.78 3.122 0 9.054-9.366 7.805z" fill="#5BB381"/><path d="M564.447 45.877c-.52 4.163.625 11.551 9.366 7.805.781-3.122 0-9.054-9.366-7.805z" fill="#E4B34C"/><rect x="542.488" y="23.854" width="18.732" height="7.805" rx="3.902" fill="#65C4EC"/><rect x="564.342" y="34.78" width="18.732" height="7.805" rx="3.902" fill="#E4B34C"/><rect x="572.146" y="12.927" width="18.732" height="7.805" rx="3.902" transform="rotate(90 572.146 12.927)" fill="#5BB381"/><rect x="561.219" y="36.342" width="18.732" height="7.805" rx="3.902" transform="rotate(90 561.219 36.342)" fill="#CF375C"/><path d="M566.488 2.195c-5.073 0-10.438.482-15.219 2.342-3.127 1.215-5.301 3.277-7.989 5.16-4.583 3.207-7.478 7.67-9.29 12.9-.77 2.22-1.45 4.275-1.952 6.568-.491 2.245-.477 4.643-.477 6.938 0 2.372-.019 4.813.206 7.176.088.92.518 2.047 1.009 2.819.786 1.236 1.295 2.703 2.005 4 2.086 3.812 4.44 7.396 8.228 9.702 2.93 1.783 5.958 2.298 9.127 3.273 2.598.8 5.383.643 8.011 1.268 1.682.401 3.934.213 5.637.087 1.949-.144 4.395.04 6.244-.672 2.019-.777 3.874-1.65 5.842-2.547 2.131-.971 3.965-2.742 5.767-4.228 1.805-1.488 3.293-2.899 4.716-4.748 1.48-1.924 2.25-4.347 2.807-6.677.447-1.867.998-3.597 1.583-5.42.592-1.846.401-3.889.629-5.79.424-3.535.309-7.1.238-10.644-.072-3.606-1.275-6.533-3.62-9.214-1.695-1.937-3.384-4.088-5.529-5.55-1.238-.844-2.612-1.512-3.826-2.353-.5-.345-1.197-.38-1.767-.585-.814-.293-1.449-.835-2.298-1.03-1.795-.411-3.544-1.02-5.355-1.366-2.091-.398-4.26-.928-6.288-1.604" stroke="#D8D8D8" stroke-linecap="round" stroke-linejoin="round"/><path d="M561.22 21.123c-.058-2.421-.209-4.98-1.171-7.144-.909-2.046-4.881-1.773-6.439-.704-.54.37-.933.234-.975 1.018-.06 1.107 0 2.129 0 3.23 0 1.252.163 2.932 1.268 3.697 1.884 1.305 5.409.293 7.512.293m-.78 5.267c-1.205-1.975-3.72-2.495-5.941-2.536-2.562-.047-5.13-.195-7.707-.195-2 0-4.499 1.647-4.499 3.707 0 1.387-.202 3.417 1.182 4.195 1.077.606 2.679.683 3.88.683 1.899 0 3.761.015 5.648-.195 2.251-.25 4.515-.096 6.699-.824.543-.18.968-.295 1.366-.693.369-.37.224-1.229.445-1.713.697-1.534-.931-2.372-2.049-2.819" stroke="#57A8CA" stroke-linecap="round" stroke-linejoin="round"/><path d="M550.098 35.366c-2.568.059-5.481.603-7.371 2.493-1.953 1.954-.443 3.635 1.409 4.813 1.158.737 5.247.629 6.255-.379 1.399-1.4.878-4.29.878-6.146m7.025-.587c-1.674 0-3.741.198-4.835 1.67-1.575 2.12-.043 5.744-.043 8.163 0 1.77.712 3.805 1.268 5.474.389 1.167 1.175 3.425 2.678 3.425 5.809 0 4.639-7.093 4.639-10.948 0-1.425-.088-2.795-.238-4.206-.051-.48-.11-2.038-.456-2.483-.687-.884-2.558-1.095-3.599-1.095" stroke="#B02E4E" stroke-linecap="round" stroke-linejoin="round"/><path d="M564.147 21.123c0 2.868.195 5.709.195 8.585-.469.235.47 1.095.737 1.28.859.594 1.645 1.062 2.743 1.062 2.642 0 4.849-1.226 5.604-3.816.989-3.39-.108-7.263-.108-10.732 0-1.455-.28-3.701-2.038-4.14-1.385-.347-2.759-.044-4.109-.044-1.278 0-1.82.735-2.33 1.756-.873 1.746-.694 4.17-.694 6.049zm10.927 10.34c0-2.423.22-5.29 2.255-6.894 1.214-.957 3.325-.194 3.88 1.236.696 1.787 1.536 3.902-.271 5.257-1.416 1.063-4.145.986-5.864.986" stroke="#4C936A" stroke-linecap="round" stroke-linejoin="round"/><path d="M571.757 35.56c-1.877 0-4.841-.428-6.342 1.073-.782.783-.778 3.609.293 4.239 1.109.652 2.088 1.322 3.436 1.322 2.047 0 4.154.195 6.233.195 1.215 0 2.397-.195 3.599-.195.863 0 1.669.05 2.342-.585 1.102-1.041.39-3.26.39-4.575 0-1.337-2.913-1.279-3.794-1.279-1.043 0-2.116.08-3.155-.01-.503-.044-2.139-.545-2.417.01m-6.44 10.136c2.745-.499 4.531-.024 6.288 1.908 1.066 1.174.549 4.092-.586 4.965-.734.565-2.449.518-3.36.304-1.199-.282-1.413-.234-1.908-1.41-.324-.77-.239-2.01-.239-2.84 0-.78-.195-1.532-.195-2.341" stroke="#BE953F" stroke-linecap="round" stroke-linejoin="round"/><path d="M637 47.166l9.457-9.457 9.457 6.675-12.795 7.789L637 47.166z" fill="#2E6DAC"/><path d="M655.914 29.364L683.172 6l1.113 17.801-18.358 13.908-10.013-8.345z" fill="#3378B4"/><path d="M638.113 26.582l4.45-7.231 41.722 31.152v17.245l-25.033-19.47-21.139-21.696z" fill="#3A86CC"/><path d="M684.285 66.636l-.556-60.08 15.576 7.789v43.947l-15.02 8.344z" fill="#53A9EC"/><path d="M699.444 15.596c-2.19-2.13-5.095-3.436-7.634-5.1-1.376-.902-2.982-2.434-4.713-2.55-.736-.048-1.437-.484-2.186-.563-.6-.063-1.152-.27-1.77-.27-.699 0-.957.326-1.514.764-.755.593-1.68.874-2.465 1.43-2.054 1.452-3.891 3.031-5.478 4.975-1.483 1.818-3.395 3.398-5.045 5.069-2.138 2.165-4.839 3.513-6.892 5.771-1.025 1.128-2.241 2.2-3.538 2.99-.759.462-1.105 1.422-1.878 1.808m27.536-5.98c-1.823 1.418-3.177 3.307-5.022 4.682-1.093.816-1.983 1.843-3.121 2.628-1.064.733-2.188 1.428-3.214 2.21-1.51 1.148-3.12 2.138-4.744 3.105-.5.298-1.168.827-1.7 1.005m33.239-21.835c0 5.005.065 10.003.247 15.005.123 3.391.448 6.76.448 10.152v5.78c0 2.023-.278 4.006-.278 6.026 0 .758-.085 1.568.031 2.318.074.482.255 1.207.038 1.684-.156.345-.049.804-.069 1.174-.033.596-1.001 1.224-1.399 1.523-2.198 1.648-4.744 2.772-7.301 3.731-.745.28-1.303.634-1.939 1.074-.414.286-.819.699-1.291.873-.794.294-1.405.848-2.008 1.391-.876.788-1.839.587-2.89.587" stroke="#2868A8" stroke-linecap="round" stroke-linejoin="round"/><path d="M684.007 7.808c0 7.8.556 15.561.556 23.356 0 3.081-.278 6.148-.278 9.233v8.746c0 3.944-.139 7.924-.139 11.837 0 1.109-.222 2.228-.278 3.291-.056 1.048-.557 2.035-.557 3.06" stroke="#2868A8" stroke-linecap="round" stroke-linejoin="round"/><path d="M644.649 21.02c2.193 1.915 4.569 3.564 6.961 5.223 1.28.887 2.693 1.618 3.918 2.565 1.121.866 2.089 1.904 3.229 2.773.724.552 1.332 1.478 1.932 2.171.43.497.878.987 1.344 1.453 1.419 1.419 2.837 2.19 4.651 3.09a23.506 23.506 0 012.929 1.708c.855.592 1.632 1.324 2.557 1.8 1.618.833 3.003 1.8 4.373 2.975.989.848 1.976 1.6 2.936 2.495.735.686 1.525 1.228 2.364 1.762.555.353 1.246.537 1.746.912" stroke="#2868A8" stroke-linecap="round" stroke-linejoin="round"/><path d="M645.066 20.88c-.819-.267-1.685-.569-2.565-.409-.897.163-1.287.815-1.816 1.46-.362.443-.915 1.538-1.035 2.079-.142.638-.6 1.108-.912 1.669-1.14 2.053.947 2.878 2.241 4.172.74.74 1.409 1.531 2.102 2.326.848.973 1.373 2.173 2.271 3.106.868.901 1.868 1.69 2.766 2.565 1.193 1.161 2.341 2.406 3.732 3.337.465.312.986.55 1.421.904 1.843 1.497 3.415 3.296 5.239 4.83 1.584 1.332 3.074 2.72 4.574 4.14 2.167 2.054 4.648 3.752 6.768 5.873a77.92 77.92 0 005.053 4.604c.76.64 1.592 1.198 2.318 1.87 1.544 1.43 3.416 2.57 5.393 3.23" stroke="#2868A8" stroke-linecap="round" stroke-linejoin="round"/><path d="M646.874 37.709c-.853.646-1.541 1.296-2.457 1.87-.743.465-1.804 1.181-2.333 1.916-.358.498-1.152 1.212-1.669 1.499-.617.343-1.1.918-1.684 1.251-1.259.72-1.25 2.352-1.167 3.593.085 1.27 2.112 2.328 3.021 2.944.644.436 1.309.972 1.978 1.36.51.295.67.293 1.252.139 1.475-.39 2.684-1.291 3.824-2.256 1.491-1.262 3.37-1.975 4.875-3.207.673-.55 1.327-1.12 2.002-1.669.404-.328 1.173-.87 1.398-1.32" stroke="#2868A8" stroke-linecap="round" stroke-linejoin="round"/><path fill="#090909" d="M753.327 9.824h65.051V65.84h-65.051z"/><path d="M752.536 13.889c0-.7-.192-1.855.239-2.447.575-.791 1.855-1.363 2.811-1.48 4.073-.503 8.225-.47 12.322-.584 3.839-.107 7.648-.232 11.495-.232 6.252 0 12.495-.113 18.747-.113 4.321 0 8.682-.143 12.994.17 1.123.08 2.245.031 3.369.056.357.007 1.827-.01 1.945.225m0 .001c.841 1.157.578 2.775.565 4.116-.017 1.628-.127 3.25-.113 4.882.007.853-.048 1.98.169 2.804.531 2.018.246 4.266.389 6.337.066.961-.07 1.9-.1 2.855-.059 1.845-.007 3.7-.007 5.546 0 2.54-.066 5.091.026 7.63.053 1.489.426 2.952.426 4.43v3.01c0 1.519.32 2.952.439 4.45.195 2.436.126 4.906.126 7.359" stroke="#565656" stroke-linecap="round" stroke-linejoin="round"/><path d="M818.378 62.791c-.664 1.6-2.527 1.526-3.99 2.12-2.09.85-4.403.994-6.626 1.067-9.783.324-19.563-.138-29.344-.138-2.82 0-5.579.134-8.389.314a24.616 24.616 0 01-3.463-.038c-2.258-.175-4.524-.244-6.777-.477-.629-.064-1.323-.04-1.938-.194-.869-.217-1.89-.156-2.717-.452-.541-.193-1.073.056-1.355-.508m-1.355-50.821c0 2.741.137 5.46.025 8.207-.152 3.707-.025 7.446-.025 11.155 0 3.742-.061 7.517-.226 11.256-.12 2.703-.384 5.409.012 8.1.317 2.152.584 4.354.772 6.513.058.666-.201 1.302-.082 1.964.136.754.172 1.365.095 2.14-.033.323-.086.798.05 1.097.053.117.321 1.215.621.615" stroke="#565656" stroke-linecap="round" stroke-linejoin="round"/><path d="M762.023 18.52c1.147.646 2.406.756 3.608 1.236.407.164.914.397 1.355.452.846.106 1.101.604 1.688 1.098.453.382.882.543.175.778-1.05.35-2.02 1.054-3.018 1.531-1.376.658-2.883.98-4.235 1.657-.158.079-.74.25-.702.25m9.938 2.485c2.826 0 5.641-.226 8.47-.226" stroke="#fff" stroke-linecap="round" stroke-linejoin="round"/></svg>