<svg width="2679" height="921" fill="none" xmlns="http://www.w3.org/2000/svg"><mask id="a" maskUnits="userSpaceOnUse" x="0" y="0" width="2679" height="921"><path fill="#C4C4C4" d="M0 0h2679v920.906H0z"/></mask><g mask="url(#a)"><path d="M549.006 888.391c-3.987 14.455-4.062 29.012-4.866 43.949 3.582-2.119 11.815 1.362 15.889 1.581 8.594.462 16.871-.544 25.458-.082l27.15 1.46c7.822.421 14.771-4.147 22.609-3.725 2.479.134 7.53 1.747 7.7-1.401.175-3.258.791-.098.966-3.356l.545-10.136c.341-6.334 2.119-12.394 2.459-18.706l1.647-30.609c.852-15.834 2.624-32.262.769-48.042-1.41-11.997 1.553-24.586-.899-36.514-4.986-24.252-19.675-43.655-40.968-55.774-6.855-3.901-17.413-.949-24.057 1.771-9.574 3.92-17.816 11.987-19.334 22.72-1.822 12.882-1.499 26.565 1.074 39.266 3.161 15.602-.118 32.44-1.455 48.046-.719 8.385-4.134 17.01-6.432 25.067-2.358 8.271-5.961 16.167-8.255 24.485z" fill="#D3DFD0"/><path d="M520.526 933.03a11.81 11.81 0 01-2.028.707c.699-.484 1.37-.688 2.028-.707 6.183-2.845 5.033-9.946 6.432-16.683 1.756-8.461-.525-12.755 1.756-25.381 2.377-13.15 9.969-32.193 10.088-40.608.222-15.662 3.384-32.149 1.692-50.761-1.226-13.491-12.449-25.538-10.152-40.609 1.348-8.85 1.556-16.409 6.768-23.688 4.912-6.86 17.067-12.808 24.181-9.405 22.103 10.57 38.137 28.878 44.838 52.713 3.296 11.724 1.237 24.492 3.498 36.358 2.974 15.608 2.377 32.12 2.655 47.974l.538 30.649c.111 6.32-1.231 12.491-1.12 18.833l.178 10.149.172 9.787c.055 3.152-5.099 1.902-7.58 1.946-7.849.138-15.351-1.181-23.183-1.044l-27.185.477c-8.599.151-16.783 1.745-25.388 1.896-3.245.057-5.627-2.675-8.188-2.603z" fill="#B1C9AB"/><path d="M393.004 869.035c5.188 15.634 8.484 32.138 10.754 49.06v.078c.014 1.573.068 7.816-.702 8.702-1.331 1.532-.983 5.254.31 6.009 9.33-.241 18.889-.322 27.7-.397h.003c8.965-.076 18.375-.018 27.319-.231 6.526-.155 13.374-.525 19.798-2.198 3.99-1.039 8.449-1.297 12.508-1.69 3.091-.3 6.179-.573 9.269-.891 1.694-.174 3.078-.335 1.845-2.534-3.625-6.461-6.876-14.932-9.522-22.22-3.693-10.171-8.178-20.214-12.287-30.036-2.879-6.88-4.765-14.817-7.023-22.119-2.681-8.672-5.259-17.733-7.72-26.541-2.321-8.305-5.196-16.554-8.105-24.426-2.504-6.776-4.683-13.928-7.924-20.08-6.703-12.728-11.131-27.558-18.145-40.061-5.732-10.218-12.808-20.173-20.254-27.938-12.372-12.903-29.138-26.773-44.355-14.979-5.892 4.567-9.275 14.59-9.85 23.846-1 16.066.968 31.921 6.049 46.296 2.477 7.008 4.588 14.15 6.928 21.186 3.996 12.014 6.157 24.919 10.335 36.877 5.015 14.352 8.262 29.804 13.069 44.287z" fill="#D3DFD0"/><path d="M301.292 869.333c7.151 15.676 11.614 32.208 14.623 49.148v.079c0 1.572.001 7.816-1.097 8.695-1.901 1.521-1.454 5.245.365 6.012 13.2-.163 26.72-.163 39.182-.163h.005c12.679 0 25.987.138 38.639 0 9.232-.1 18.922-.412 28.027-2.031 5.655-1.005 11.964-1.225 17.709-1.584 4.376-.273 8.747-.521 13.12-.812 2.399-.16 4.359-.31 2.641-2.519-5.049-6.491-9.547-14.989-13.202-22.299-5.101-10.203-11.324-20.283-17.019-30.139-3.989-6.904-6.561-14.857-9.667-22.178-3.689-8.695-7.226-17.776-10.602-26.605-3.182-8.325-7.15-16.598-11.17-24.494-3.46-6.797-6.458-13.967-10.967-20.146-9.328-12.784-15.413-27.652-25.183-40.213-7.985-10.266-17.875-20.28-28.311-28.108-17.344-13.008-40.891-27.018-62.553-15.354-8.388 4.517-13.292 14.512-14.217 23.762-1.606 16.057.988 31.928 8.002 46.346 3.419 7.028 6.32 14.188 9.545 21.244 5.508 12.047 8.41 24.969 14.176 36.963 6.921 14.394 11.329 29.872 17.954 44.396z" fill="#B1C9AB"/><path d="M329.451 919.237c-3.008-16.94-7.472-33.472-14.623-49.148-6.625-14.524-11.033-30.002-17.953-44.397-5.766-11.993-8.669-24.915-14.176-36.963-3.226-7.055-6.127-14.215-9.546-21.243-7.014-14.418-9.607-30.289-8.002-46.346.925-9.25 5.829-19.245 14.217-23.762 21.663-11.665 45.209 2.346 62.553 15.354 10.437 7.828 20.326 17.842 28.311 28.108 9.77 12.561 15.855 27.429 25.183 40.212 4.51 6.18 7.507 13.35 10.967 20.147 4.02 7.896 7.988 16.169 11.171 24.493 3.375 8.829 6.913 17.911 10.601 26.606 3.106 7.321 5.678 15.274 9.667 22.177 5.695 9.857 11.918 19.937 17.02 30.14 3.655 7.309 8.152 15.808 13.201 22.299 1.718 2.209-.242 2.359-2.641 2.519-4.373.291-8.744.538-13.119.812-5.746.359-12.055.579-17.71 1.584-9.105 1.619-18.795 1.931-28.027 2.031-12.652.137-25.96 0-38.639 0-12.463 0-25.985 0-39.186.162-1.82-.766-2.267-4.49-.366-6.011 1.118-.894.366-5.882.366-7.311" stroke="#619482" stroke-width="4" stroke-linecap="round" stroke-linejoin="round"/><path d="M382.244 925.236c-1.511-8.893-7.552-16.128-12.351-23.517-5.239-8.066-11.376-15.454-16.848-23.359-2.581-3.728-5.546-6.994-8.444-10.456-3.027-3.615-5.742-7.518-9.076-10.851-1.293-1.293-5.059-5.231-4.044-3.709.57.855 1.736 1.204 2.466 1.934m32.517 38.912c0-18.315-3.628-35.75-10.097-52.934-4.011-10.652-7.181-21.683-11.489-32.212-1.878-4.59-4.365-8.901-6.175-13.518-2.003-5.112-3.777-10.314-5.897-15.383-3.808-9.102-9.195-17.583-14.409-25.925-4.335-6.936-8.524-14.025-13.546-20.5-1.035-1.335-11.164-16.185-12.991-15.272" stroke="#619482" stroke-width="4" stroke-linecap="round" stroke-linejoin="round"/><path d="M299.372 763.508c7.102 1.579 12.426 7.435 19.527 9.013 1.794.399 12.342 5.863 13.13 3.894 2.926-7.316 7.227-14.158 10.403-21.418 1.403-3.208 3.012-6.31 4.117-9.625.49-1.472 1.244-2.835 1.78-4.284.406-1.096.917-1.591-.389-.612m-36.552 63.088c5.715 0 10.702-.09 15.995 2.225 4.129 1.807 8.285 3.132 12.322 5.286 4.441 2.368 9.476 6.49 11.739 11.015m5.508 20.53c0-5.712-.832-12.342.251-17.969 1.406-7.311 5.651-14.429 10.264-20.195 2.965-3.706 5.376-7.267 8.734-10.626.591-.591 4.6-3.994 2.782-2.782m-11.014 91.126c4.179-4.298 9.052-8.727 12.712-13.463 1.258-1.629 2.606-3.357 4.061-4.813 1.537-1.536 2.204-3.546 3.644-5.146 2.749-3.054 5.208-7.466 6.62-11.349.235-.645 3.052-5.309 2.003-4.784m-.339 87.263c0-10.319 4.46-21.241 10.626-29.541 1.686-2.269 3.661-4.774 5.647-6.76 1.489-1.489 2.734-3.581 4.757-4.255m101.521 42.491c0-14.959-.707-29.499 2.498-44.148 1.843-8.429 5.017-16.507 6.928-24.893 1.861-8.168 4.808-16.964 5.075-25.376.497-15.655 2.867-32.646-1.128-48.055-3.252-12.544-4.309-26.19-3.182-39.152.939-10.798 8.736-19.296 18.086-23.725 6.488-3.073 16.872-6.588 23.926-3.061 21.914 10.957 37.624 29.543 43.906 53.492 3.089 11.78.807 24.51 2.86 36.413 2.699 15.658 1.812 32.157 1.812 48.014v30.653c0 6.321-1.45 12.468-1.45 18.811v19.939c0 3.152-5.131 1.813-7.613 1.813-7.85 0-15.328-1.451-23.161-1.451h-27.189c-8.6 0-16.811 1.451-25.417 1.451-4.08 0-13.214-1.584-16.676.725" stroke="#619482" stroke-width="4" stroke-linecap="round" stroke-linejoin="round"/><path d="M569.85 927.351c0-9.193-.446-18.491.57-27.634.963-8.666 2.039-17.454 2.696-26.157 1.335-17.693 6.066-35.452 6.066-53.22 0-8.574.157-17.138-1.4-25.612-1.583-8.621-4.985-17.046-7.232-25.534-2.187-8.263-6.822-15.042-11.432-21.957" stroke="#619482" stroke-width="4" stroke-linecap="round" stroke-linejoin="round"/><path d="M546.986 767.768c6.767 3.998 14.172 6.801 20.065 12.158 2.707 2.46 5.668 4.283 8.166 6.973 1.008 1.086 2.244 3.105 3.499 3.733" stroke="#619482" stroke-width="4" stroke-linecap="round" stroke-linejoin="round"/><path d="M578.252 791.565v-13.531c0-4.776 1.513-9.984 2.333-14.699.572-3.289 2.102-6.9 2.333-10.136.091-1.274.765-4.945 1.867-5.495m-30.334 66.259c2.1 2.553 4.439 5.726 7.103 7.673 1.255.917 3.322 3.294 4.07 4.666 1.7 3.117 4.871 5.353 6.533 8.399.901 1.653 2.554 4.242 3.992 5.392.841.673.7 1.823.7 0 0-1.508.59-2.849 1.192-4.225 1.25-2.856 3.198-5.404 4.874-8.011 1.903-2.96 4.724-6.329 5.962-9.591 1.361-3.589 4.383-7.083 6.999-9.799 1.833-1.904 2.79-4.48 5.237-5.703m-52.726 59.26c3.827 5.273 8.298 9.972 12.495 14.931 1.893 2.237 3.9 4.774 6.274 6.533 1.38 1.023 2.215 2.953 3.629 3.837.369.231.83.905 1.037 1.296.587 1.109.412-.049 1.088-.726 5.521-5.521 12.405-9.605 17.939-15.139 1.554-1.554 3.628-3.056 5.366-4.407.714-.555 2.166-1.659 3.033-1.659m-59.727 48.062c4.042.269 8.072 3.199 11.665 5.029 2.89 1.472 5.711 2.685 8.866 3.474 1.581.395 3.179 1.64 4.77 1.762 2.216.171 1.391.044 3.188-1.192 6.765-4.651 13.254-8.372 20.739-11.665 4.312-1.898 9.849-2.73 13.765-5.341" stroke="#619482" stroke-width="4" stroke-linecap="round" stroke-linejoin="round"/><path d="M58.683 68.37c-26.11-2.504-44.014 3.716-66.03 12.307L-12.66 594.8s21.824 18.494 39.017 21.206c22.361 3.527 40.405 5.853 50.723-3.902 8.338-7.882-10.16-8.006-17.558-11.705S41.11 587.632 32.21 582.84c-12.078-6.502-18.603-18.665-27.312-29.263-6.025-7.331-5.876-14.749-9.754-23.41-4.19-9.356-.731-15.003-.731-25.769 0-19.641-1.758-38.348-1.758-58.019v-39.462c0-5.121 1.389-8.751 3.907-13.284 2.436-4.385 6.908 1.669 11.037 3.517 17.695 7.919 19.026 23.569 29.987 39.559 12.717 18.55 16.946 30.835 29.889 49.229 6.691 9.508 10.313 14.988 17.972 23.735 8.069 9.213 11.555 16.229 22.368 21.977 17.281 9.188 35.262 12.426 50.109.879 14.734-11.459 24.181-20.999 36.208-35.274 7.256-8.612 8.778-12.239 14.779-21.769 4.474-7.105 6.543-11.371 10.158-18.949 2.191-4.593-3.493-.69-1.526-4.405 2.036-3.847-1.177-2.347-3.902-5.753-4.211-5.264-12.506-2.087-21.46-5.952-22.112-9.546-34.954-11.464-54.624-25.362-6.155-4.348-11.511-7.207-17.558-11.705-5.374-3.997-6.47-9.479-11.705-13.656-9.3-7.42-11.362-8.634-19.509-17.304-4.491-4.78-8.109-9.553-11.705-13.149-4.45-4.449-3.118-11.774-7.456-16.368-3.403-3.603-3.799-24.028 0-32.275 1.603-3.48 2.364-6.064 5.665-8.009 3.847-2.268 6.968-.615 11.428-.391 11.164.56 17.288 3.214 27.643 7.423 27.298 11.098 40.71 33.483 56.848 49.62 12.844 12.844 42.698 28.49 58.04 13.149 14.372-14.373 7.794-33.23 7.794-52.61v-26.373c0-9.433 3.516-19.427 3.516-29.01 0-18.426 3.288-30.083 11.916-45.615 5.24-9.431 9.432-19.007 15.238-28.131 4.816-7.568 10.598-7.428 14.209-15.553 1.437-3.232-1.431-6.177-5.853-11.705-4.065-5.082-33.203-5.852-39.026-5.852-18.113 0-27.374-5.025-42.91-13.657-14.298-7.943-17.099-5.294-35.116-1.95-19.803 3.675-21.719 2.563-37.066 15.607-13.342 11.339-15.386 20.535-29.263 31.214-6.115 4.704-19.955 23.039-27.313 25.361-8.803 2.778-19.65-3.445-27.788-7.804-8.554-4.582-6.318-22.906-8.01-32.461-.778-4.395 0-7.619 0-11.428 0-3.81 1.865-7.061 3.517-11.429 6.452-17.064 17.545-29.992 26.763-38.289 5.705-5.134 10.957-11.14 18.95-17.093 6.203-4.62 11.472-6.58 16.702-10.647 2.266-1.762 10.776-3.173 5.275-4.395-2.98-.663-6.858-3.412-11.428-5.177-11.464-4.426-18.439-5.86-30.67-7.033z" fill="#B7C2B4"/><path d="M278.019 169.256C217.542 241.438 65.374 286.308-20.465 307.768" stroke="#4A5759" stroke-width="4"/><path d="M-7.346 96.285c22.015-8.591 39.919-14.812 66.03-12.307 12.231 1.173 19.206 2.606 30.67 7.032 4.57 1.765 8.447 4.515 11.428 5.177 5.502 1.223-3.01 2.633-5.275 4.396-5.23 4.067-10.499 6.026-16.703 10.646-7.992 5.954-13.244 11.959-18.949 17.094-9.218 8.296-20.31 21.224-26.763 38.289-1.652 4.368-3.516 7.619-3.516 11.428 0 3.809-.779 7.034 0 11.428 1.691 9.556 4.73 16.419 13.283 21.001 8.138 4.359 14.835 2.875 23.638.097 7.357-2.321 10.589-5.844 16.703-10.549 13.877-10.678 15.668-22.847 29.01-34.187 15.347-13.043 25.03-21.818 44.833-25.493 18.017-3.344 32.295-2.376 46.592 5.567 15.536 8.631 32.874 15.433 50.987 15.433 5.824 0 18.791-2.444 22.857 2.638 4.422 5.527 7.093 13.049 3.907 20.219-3.611 8.124-8.859 14.506-13.675 22.075-5.806 9.123-9.998 18.699-15.238 28.13-8.628 15.532-8.761 27.476-11.916 45.615-1.956 11.244-2.864 17.617-3.516 29.01-.589 10.283 0 17.582 0 26.373 0 19.38 6.578 38.238-7.794 52.61-15.342 15.342-45.196-.305-58.04-13.149-16.138-16.137-29.55-38.522-56.848-49.619-10.355-4.21-16.48-6.864-27.643-7.424-4.46-.223-7.58-1.876-11.428.391-3.3 1.945-4.062 4.53-5.665 8.009-3.799 8.247-3.013 19.644.39 23.247 4.339 4.594 6.98 10.496 11.429 14.945 3.596 3.596 6.937 7.527 11.428 12.307 8.147 8.671 11.798 14.557 21.098 21.977 5.235 4.177 8.789 5.674 14.163 9.67 6.047 4.498 8.79 7.861 14.945 12.21 19.67 13.898 34.931 13.897 57.043 23.442 8.954 3.866 18.645 4.797 22.856 10.061 2.725 3.406 3.404 2.307 1.368 6.154-1.967 3.714-3.084 7.323-5.275 11.916-3.615 7.578-5.684 11.844-10.158 18.95-6.001 9.529-7.523 13.157-14.779 21.769-12.027 14.275-21.474 23.814-36.208 35.274-14.847 11.547-32.828 8.308-50.109-.879-10.813-5.749-14.3-12.765-22.367-21.978-7.66-8.746-11.282-14.227-17.973-23.735-12.943-18.394-17.172-30.679-29.889-49.229-10.961-15.989-12.292-31.64-29.987-39.559-4.129-1.848-8.601-7.901-11.037-3.516-2.518 4.532-3.907 8.162-3.907 13.284v39.461c0 19.671 1.758 38.378 1.758 58.02 0 10.766 2.062 16.138 6.251 25.493 3.878 8.662 7.454 12.888 13.48 20.219 8.71 10.598 13.903 17.136 25.982 23.638 8.9 4.792 19.951 11.499 27.349 15.198 7.398 3.698 26.31 7.724 17.972 15.607-10.318 9.754-34.778 11.33-57.139 7.803-17.194-2.712-40.968-17.558-40.968-17.558" stroke="#4A5759" stroke-width="4" stroke-linecap="round" stroke-linejoin="round"/><path d="M2484.86 940.13c-3.53 1.747-12.18 4.609-14.07 8.115 5.09 2.183 9.4 2.976 14.98 2.774 5.74-.208 12.17-.541 17.43-3.027 4.66-2.203 10.25-4.676 13.55-8.791 1.89-2.35 3.37-1.767 4.41-4.647.29-.794-8.15-1.297-9.13-1.164-7.11.968-12.05 1.359-19.1 2.821-3.19.66-5.22 2.503-8.07 3.919zm-12.69-29.333c-3.44 1.725-3.82 2.491-6.07 1.308l-1.32 3.084c6.9 2.957 14.21 1.765 21.26-.267 7.99-2.302 18.02-6.27 19.63-15.515.31-1.784.13-1.8-2.66-.684-2.24.896-3.56 1.492-5.93 2.112-5.39 1.412-10.32 2.553-15.61 4.316-3.26 1.088-6.26 4.123-9.3 5.646zm-45.51 16.272c10.37-6.701 21.76-15.444 33.39-13.211-1.65 1.849-3.41 3.392-5.08 5.225-2.81 3.084-6.54 4.631-9.64 7.351-4.13 3.621-9.85 5.533-14.61 8.164-5.13 2.835-10.51 3.335-16.25 4.033-2.38.289-1.04 3.411-3.42 2.387-.78-.332 1.29-3.306 1.49-3.488 4.64-4.262 8.83-7.045 14.12-10.461zm51.83-53.472c-6.72 4.663-13.79 6.475-20.4 12.257l1.65 5.728c1.9-.111 4.34-.894 6.24-1.535 2.25-.762 5.17-.62 7.27-1.7 1.9-.974 3.93-1.818 5.91-2.612 5.61-2.242 12.07-3.941 16.06-8.834 2.82-3.467 4.84-9.813 4.64-14.208-.06-1.53-.05-.666-.35-1.994-.22-.977-.6.567-.76.942-.85 1.984-1.08 3.48-3.15 4.152-2.66.86-5.8 2.096-8.31 3.32-3.24 1.581-5.86 2.438-8.8 4.484zm-44.68 11.121c6.7.709 13.09 1.63 19.25 4.271-5.02.295-9.56 5.31-14.59 6.316-6.48 1.295-12.94 1.946-19.5 2.063-4.45.079-7.97-1.771-12.03-3.511a1.513 1.513 0 00-.12-.049c-.07.068-.14.131-.2.19.48.528 1.81 1.583.61 1.069-.92-.397-1.08-.589-.61-1.069-.22-.242-.26-.373.2-.19.07-.059.14-.123.22-.191 2.91-2.457 4.15-4.67 7.67-6.078 3.29-1.317 7.18-1.593 10.63-2.324 3.58-.759 4.85-.878 8.47-.497zm20.76-42.019c-2.38 3.449-5.51 7.042-7.15 10.874l2.04 5.893c2.59-.48 4.96-1.636 7.46-2.276 1.67-.427 2.84-1.776 4.52-2.269 1.53-.444 3.57-1.602 4.91-2.459 8.16-5.226 14.87-12.877 17.13-22.571 1.13-4.826-.84-3.922-1.83-8.613-.54-2.532-7.02 2.467-8.31 3.32-5.04 3.349-8.27 6.586-11.79 11.459-1.97 2.729-5.06 3.866-6.98 6.642zm-21.26 4.648c6.2 5.278 3.79 9.301 10.47 14.119-6.51 2.6-4.34 5.091-11.45 5.508-4.11.241-10.45-2.317-13.73-4.768-2.3-1.722-4.52-3.794-6.34-6.016-1.53-1.861-3.86-4.513-4.54-6.863-.67-2.326-1.19-4.608-1.83-6.949-.82-2.965-.6-6.348-1.62-9.184-1.51-4.239 6.18 1.6 7.95 2.358 7.61 3.262 14.79 6.428 21.09 11.795zm-.67-27.005c1.85-4.303 6.07-9.672 8.49-13.686 2.19-3.641 5.78-4.095 8.63-7.307 2.66-2.986 4.16-5.642 7.48-7.805.46-.299.79-.613 1.04-.918.03-.33.06-.66.08-.989.1-1.707 1.08-.47-.08.989-.81 8.385-5.52 17.198-12.24 22.124-4.09 2.996-8 7.275-13.4 7.592zm-12.37-7.03c2.42 3.116 5.07 6.343 7.9 9.154-5.9.243-12.23-.833-18.16-1.914-2.74-.501-5.52-2.165-8.08-3.262-2.17-.931-4.8-1.648-6.56-3.269-3.3-3.051-5.19-7.271-7.72-11.026-1.65-2.44.92-.109-.17-2.824-.32-.797-1.8-2.406-.12-1.955 1.42.383 2.89-.104 4.34.518l5.99 2.571c7.49 3.21 10.05 2.347 17.1 6.441 2.54 1.473 3.75 3.342 5.48 5.566zm8.77-12.738c-.79 4.554.75 4.279-.74 8.067-.44-.718-.9-1.84-1.19-2.506-.56-1.282-1.57-2.33-2.09-3.635-1.53-3.81-3.96-7.263-6.11-10.831-3.1-5.144-5.52-9.837-7.34-15.578-1.41-4.401-3.07-6.298-2.92-10.933.02-.657-.54-3.813-.24-4.182.43-.529 4.32 1.599 4.89 1.843 1.04.444 4.13 4.415 7.58 7.586 3.81 4.251 8.6 11.289 8.65 17.374.04 4.264.25 8.565-.49 12.795z" fill="#CB906D"/><path d="M2430.47 814.474c5.68 10.895 7.03 23.473 12.61 34.1 1.47 2.789 1.73 6.211 2.76 9.177 1.13 3.263 3.1 6.339 3.84 9.696 1.44 6.616 4.75 12.807 6.68 19.276 3.57 11.985 8.43 23.726 11.27 35.879 1.66 7.081 2.76 14.372 4.15 21.534 1.35 6.939 3.83 13.418 4.6 20.475 2.88 26.167 1.26 53.009-1.62 79.119-1.97 17.93.08 38.11-7.09 54.81m-37.38-285.159c1.91-4.464 3.26-8.484 4.09-13.278.74-4.23.53-8.531.49-12.794-.05-6.085-5.66-13.802-9.97-17.765-3.45-3.172-6.11-5.357-10.38-7.188-.57-.244-4.46-2.372-4.89-1.843-.3.369.25 3.525.23 4.183-.15 4.634 1.4 10.059 2.8 14.459 1.83 5.742 5.4 11.476 8.49 16.621 2.15 3.567 4.58 7.021 6.11 10.831.52 1.305 1.54 2.353 2.09 3.635.35.815.98 2.314 1.49 2.919" stroke="#C4631F" stroke-width="4" stroke-linecap="round" stroke-linejoin="round"/><path d="M2433.81 822.194c1.85-4.304 3.5-8.713 5.91-12.727 2.2-3.642 6.55-6.474 9.4-9.685 2.66-2.986 5.78-5.803 9.1-7.966 2.65-1.731 1.98.582 1.85 2.647-.51 8.673-5.32 17.992-12.31 23.113-4.1 2.996-8 7.275-13.4 7.591m-.61 2.477c-3.24-3.044-6.26-6.704-9-10.223-1.73-2.224-2.93-4.093-5.47-5.566-7.06-4.094-14.33-7.514-21.82-10.724l-6-2.57c-1.45-.622-2.92-.135-4.34-.518-1.67-.451-.19 1.158.13 1.955 1.08 2.715 2.02 5.497 3.67 7.937 2.53 3.755 5.63 7.144 8.94 10.195 1.75 1.621 4.39 2.338 6.56 3.269 2.56 1.097 5.33 2.762 8.08 3.262 6.15 1.122 12.73 2.239 18.81 1.881m13.77 32.825c1.64-3.831 2.94-8.513 5.33-11.962 1.92-2.777 4.13-5.353 6.1-8.082 3.52-4.873 7.71-9.592 12.75-12.94 1.28-.854 10.35-6.636 10.88-4.105 1 4.692 2.13 8.582 1 13.407-2.26 9.695-8.97 17.345-17.13 22.571-1.34.858-3.39 2.015-4.91 2.459-1.69.493-2.85 1.842-4.52 2.27-2.5.64-4.87 1.795-7.47 2.275m8.98 24.837c3.65-7.705 12.47-11.295 19.19-15.959 2.94-2.045 6.84-3.426 10.08-5.007 2.51-1.225 5.18-1.968 7.83-2.829 2.07-.672 3.63-2.026 4.48-4.01.16-.375.54-1.919.76-.942.3 1.328-.64 4.056-.57 5.586.19 4.395-1.82 10.741-4.65 14.208-3.98 4.893-10.45 6.592-16.05 8.834-1.99.794-4.02 1.638-5.92 2.612-2.1 1.08-5.01.938-7.27 1.7-1.89.641-4.34 1.424-6.23 1.535m-12.99-32.493c-6.68-4.818-10.81-11.699-17.01-16.977-6.31-5.367-14.51-9.771-22.12-13.033-1.77-.758-10.33-4.212-8.81.026 1.01 2.837.79 6.219 1.61 9.185.65 2.34 1.17 4.623 1.84 6.948.68 2.351 3.01 5.003 4.54 6.864 1.82 2.221 4.04 4.293 6.34 6.015 3.28 2.452 9.62 5.01 13.72 4.769 7.12-.417 12.56-2.464 19.06-5.064m11.56 30.512c-6.16-2.642-12.29-6.068-19-6.777-3.61-.381-7.2-.919-10.78-.16-3.44.73-7.24.657-10.53 1.975-3.52 1.407-7.97 2.92-10.87 5.377-.93.783-.95.962.19 1.45 1.79.768 3.1 2.242 4.87 3.002 4.06 1.74 7.58 3.59 12.03 3.511 6.56-.117 13.02-.768 19.49-2.063 5.04-1.005 9.25-5.25 14.27-5.544m9.97 22.525c1.62-3.614 3.2-4.197 6.64-5.922 3.04-1.523 5.66-3.226 8.92-4.313 5.3-1.763 10.35-4.136 15.74-5.548 2.37-.62 4.63-.467 6.87-1.363 2.79-1.116 1.7 2.664 1.39 4.448-1.61 9.245-11.64 13.213-19.63 15.515-7.05 2.032-14.36 3.224-21.26.267m-1.26-2.37c-12.62-5.41-26.97 3.757-37.34 10.458-5.29 3.416-10.09 7.197-14.73 11.459-.19.182-2.98 2.804-2.2 3.136 2.39 1.024 6.31.009 8.69-.281 5.74-.698 11.12-1.198 16.25-4.033 4.76-2.631 10.47-4.543 14.61-8.164 3.1-2.72 6.83-4.266 9.64-7.35 1.67-1.833 3.82-3.211 5.46-5.06m7.54 32.439c1.89-3.505 7.22-5.741 10.74-7.488 2.86-1.416 5.52-3.139 8.7-3.799a309.729 309.729 0 0121.08-3.638c.98-.133 9.89.48 9.6 1.274-1.04 2.88-2.49 4.901-4.38 7.251-3.3 4.115-8.89 6.588-13.55 8.791-5.26 2.486-11.69 2.819-17.42 3.027-5.59.202-9.89-.591-14.99-2.774" stroke="#C4631F" stroke-width="4" stroke-linecap="round" stroke-linejoin="round"/><g opacity=".2"><path d="M2491.72 889.978c11.37 3.405 17.93 10.645 25.34 19.04-1.06-.105-2.2-.084-3.18-.172-3.75-2.176-6.6-3.573-10.58-4.626-5.56-1.476-11.6-2.986-15.88-7.161-3.94-3.842-7.44-5.872-11.07-9.977-.55-.628-2.35-1.903-.99-2.264a9.268 9.268 0 013.29-.273c4.61.411 8.64 4.105 13.07 5.433zm38.87 31.564c-2.42-2.742-5.82-4.575-9.09-6.463.03 1.011-.13 2.458-.16 3.268-.06 1.687.46 3.164.71 4.808.86 5.585 3.46 11.054 5.9 16.1 2.3 4.766 6.24 9.589 10.96 12.126 1.56.838 3.05 1.925 4.73 2.496.21.073-4.75-5.131-1.17-4.384.86-4.572.93-6.065-.31-10.711-2.04-7.666-6.43-11.422-11.57-17.24zm29.27-33.177c-5.62-5.675-11.45-9.271-18.64-12.819-.66 1.629.15.186 0 2.001-.17 2.115-.93 3.783-.52 6.011.41 2.286.59 4.642 1.39 6.845 2.36 6.527 7.22 11.358 12.48 15.719 4.58 3.791 9.21 4.983 14.63 6.651.82.253 8.73 2.515 8.47 1.966-.39-.826-.49-2.032-.79-2.965-.64-2.038-1.74-3.061-2.6-5.021-1.51-3.423-4.82-5.452-7.27-8.226-2.73-3.093-4.25-7.239-7.15-10.162zm-21.4-18.011l.15.168c-.88-.355-.63-.187-1.68-.252-2.1-.13-4.33-.065-6.39-.529-3.99-.9-7.98-1.826-12.03-2.487-5.91-.962-12.26-3.875-17.42-6.824-4.07-2.332-5.92-2.498-8.99-5.968-.93-1.056 1.12-1.075 1.9-1.282 1.62-.431 3.15-1.121 4.82-1.369 4.71-.699 8.03 1.65 12.61 2.448 6.9 1.202 12.16 4.165 17.98 7.917 4.26 2.749 5.74 4.425 9.05 8.178zm15.26-25.503c4.2.757 8.51 1.44 12.55 2.787 3.54 1.176 6.96 2.613 10.45 3.863 3.06 1.089 6.24 2.299 9 3.995 2.53 1.554 5.03 3.534 7.78 4.68 2.14.893 4.66 2.149 7.21 3.169v-.001c1.07-.331 1.85.185 2.54.915 1.39.437 2.76.745 4.05.825 2.4.149 1.48.979-.12 1.615-1.79.713-2.74-1.181-3.93-2.44-.84-.265-1.69-.577-2.54-.914-5.42 1.68-11.3.862-16.88.919-7.03.072-13.91-2.41-19.93-5.715-3.3-1.811-6.14-4.383-8.62-7.188-.48-.546-1.34-2.09-1.38-2.824-.01-.251-.88-2.016-.55-1.642l.37-2.044zm46.34-24.956c-10.71-3.921-22.99-5.311-29.59-8.636 1.4 3.304.93 4.463 3.33 7.18 2.2 2.491 5.9 3.944 9.05 4.654 4.61 1.04 9.01 3.091 13.69 3.944 6.27 1.143 12.79 2.243 19.13 1.378 2.24-.306 2.42 3.292 4.62 2.836 1.02-.211.12-.76-.43-1.382-2.36-2.669-5.06-3.769-7.99-5.756-3.54-2.396-7.77-2.741-11.81-4.218zm-64.8-8.414c7.37-.052 16.25-.335 22.53 4.074-5.72 5.053-11.55 10.516-19.07 12.694-6.34 1.836-12.64 3.618-19.27 3.898-3.28.139-6.98-.676-10.22-1.169-.74-.112-1.2-.169-1.48-.196-.71-.067-.16.075 0 0 .15-.066 0-.302-1.61-1.007-2.64-1.167-5.95-3.385-8.77-3.967-.06-.012.6-.591.73-.7 1.11-.984 2.19-2.034 3.47-2.791 6.08-3.571 5.3-5.547 12.26-6.789 7.69-1.374 13.59-3.992 21.43-4.047zm59.41-30.099c-4.27.076-14.08-1.136-17.56 1.425 3.98 4.505 7.84 7.281 13.4 9.675 5.72 2.458 12.18 5.115 18.49 5.119 5.59.004 12.22.176 17.37-2.327 2.93-1.429 4.12-.167 6.48-2.507.65-.646-7.39-5.057-8.42-5.381-7.41-2.35-12.44-4.26-20.03-6.1-3.43-.831-6.27.033-9.73.096zm-18.53 1.068c1.94 1.044-.66 1.328.79 2.965-1.17 1.032-2.34-4.551-3.68-3.809-3.57 1.973-8.34 2.491-12.23 3.709-3.89 1.217-8.22 1.589-12.27 1.98l-.24.023c-4.34.42-8.96.866-13.31.596-4.94-.305-9.91-.692-14.77-1.681-1.5.912-2.9 1.971-4.1 3.121-.28.277 2.86-3.381 3.64-3.216l.46.095c2.22-1.348 4.67-2.375 7.05-2.907 6.78-1.512 11.97-4.354 18.82-5.639 3.36-.63 7.28-.267 10.71-.309 2.93.722 6.02 1.159 8.66 1.508 2.53.335 8.2 2.346 10.47 3.564zm19.71-35.715c-4.18.094-4.91.668-6.56-1.534l-2.72 2.41c5.38 6.101 13.11 8.327 20.96 9.606 8.9 1.449 20.58 2.218 26.45-6.098 1.13-1.605.96-1.705-2.3-1.907-2.61-.162-4.18-.187-6.79-.679-5.94-1.119-11.3-2.288-17.3-3.016-3.71-.448-8.06 1.134-11.74 1.218zm-52.17-5.172c13.28-1.755 28.5-5.04 38.86 2.546-2.47 1.05-4.92 1.742-7.4 2.765-4.19 1.721-8.56 1.505-12.87 2.731-5.73 1.632-12.21.856-18.1 1.224-6.35.398-11.86-1.612-17.81-3.591-2.47-.821-2.6 2.865-4.46.752-.61-.685 2.8-2.639 3.08-2.725 6.53-2.024 11.93-2.808 18.7-3.702zm75.63-28.366c-8.75 1.456-16.52-.05-25.69 2.551l-1.04 6.381c1.91.771 4.67 1.137 6.83 1.39 2.56.299 5.35 1.79 7.92 1.707 2.31-.074 4.69.04 7 .183 6.54.405 13.67 1.741 19.84-1.206 4.38-2.089 9.3-7.375 11.15-11.772.65-1.531.26-.677.58-2.12.24-1.06-.85.279-1.18.572-1.75 1.55-2.68 2.907-5.02 2.605-3-.387-6.66-.636-9.68-.599-3.91.047-6.88-.33-10.71.308zm-48.97-9.839c6.25 3.808 12.09 7.677 16.9 13.126-5.06-2.041-11.84.766-17.24-.584-6.95-1.737-13.58-4.095-20.07-7.025-4.4-1.991-6.99-5.438-10.16-9.027-.04-.038-.07-.072-.1-.103-.1.032-.2.062-.28.093.22.74 1.04 2.392.1 1.332-.72-.82-.79-1.081-.1-1.332-.11-.34-.09-.488.28-.093l.31-.085c3.98-1.06 6.23-2.656 10.33-2.402 3.84.238 7.79 1.774 11.5 2.656 3.86.917 5.17 1.393 8.53 3.444zm39.86-31.548c-3.93 2.274-8.67 4.345-12.06 7.339l-.73 6.722c2.76.733 5.62.702 8.37 1.235 1.83.355 3.6-.427 5.49-.126 1.69.271 4.24.086 5.95-.133 10.42-1.335 20.55-5.721 27.27-14.176 3.34-4.208.99-4.235 2.2-9.294.65-2.73-8.03-.84-9.68-.6-6.5.942-11.17 2.617-16.88 5.759-3.2 1.76-6.76 1.443-9.93 3.274zm-22.99-5.313c3.62 8.052-.61 10.876 3.7 18.697-7.58-.469-6.61 2.979-13.78.087-4.14-1.669-9.16-7.119-11.24-11.045-1.46-2.757-2.67-5.819-3.43-8.842-.63-2.533-1.69-6.215-1.26-8.834.42-2.591.97-5.07 1.42-7.665.58-3.288 2.36-6.502 2.68-9.753.49-4.859 5.32 4.438 6.7 6.002 5.95 6.731 11.52 13.164 15.21 21.353zm11.87-26.786c3.81-3.362 10.44-6.666 14.67-9.479 3.84-2.551 7.57-1.33 11.86-3.153 3.99-1.695 6.69-3.602 10.95-4.183.59-.08 1.07-.232 1.45-.417.18-.309.36-.621.53-.934.89-1.627 1.28.044-.53.934-4.69 7.845-13.39 14.301-22.27 16.007-5.4 1.038-11.22 3.42-16.66 1.225zm-8.87-12.634c.94 4.18 2.03 8.573 3.5 12.64-5.9-2.5-11.6-6.49-16.91-10.302-2.46-1.766-4.41-4.685-6.41-6.95-1.69-1.919-3.94-3.845-4.91-6.248-1.83-4.526-1.72-9.54-2.46-14.396-.48-3.154.95.321 1.15-2.845.06-.93-.65-3.193.79-1.975 1.21 1.036 2.88 1.241 4.01 2.523l4.69 5.304c5.85 6.622 8.75 6.963 13.77 14.252 1.81 2.622 2.12 5.012 2.78 7.997zm14.52-8.415c-2.89 4.097-1.26 4.541-4.47 7.566-.1-.909-.04-2.225-.01-3.012.05-1.514-.46-3.013-.36-4.534.27-4.443-.51-8.959-.96-13.453-.65-6.48-.84-12.203.03-18.681.67-4.964-.08-7.597 2.21-12.071.33-.636 1.25-3.987 1.71-4.21.67-.318 3.5 3.573 3.94 4.076.81.917 2 6.247 3.91 10.957 1.76 5.932 3.19 15.055.42 21.047-1.94 4.199-3.74 8.51-6.42 12.315z" fill="#CB906D"/><path d="M2599.68 632.95c.5 13.315-4 26.275-3.47 39.283.14 3.414-1.18 6.892-1.56 10.276-.4 3.722.11 7.655-.73 11.287-1.65 7.157-1.28 14.762-2.4 21.999-2.06 13.408-2.75 27.172-5.6 40.406-1.66 7.712-3.97 15.37-5.93 23.036-1.9 7.427-2.48 14.93-4.99 22.208-9.33 26.986-23.38 52.544-38.31 76.807-10.26 16.663-17.62 37.393-32.4 50.448M2600 631.793c3.95-3.487 7.14-6.803 10.18-11.115 2.69-3.805 4.48-8.117 6.42-12.315 2.77-5.992.85-16.16-1.53-22.047-1.91-4.71-3.51-8.087-6.84-11.865-.45-.503-3.27-4.394-3.94-4.075-.47.222-1.38 3.574-1.71 4.209-2.3 4.475-3.3 10.511-3.97 15.475-.87 6.478-.03 13.755.61 20.235.45 4.494 1.23 9.009.96 13.452-.09 1.522.41 3.02.36 4.535-.03.963-.11 2.721.11 3.551" stroke="#C4631F" stroke-width="4" stroke-linecap="round" stroke-linejoin="round"/><path d="M2599.37 642.066c3.81-3.362 7.47-6.919 11.7-9.732 3.84-2.551 9.42-3.308 13.71-5.131 3.99-1.695 8.36-3.008 12.62-3.588 3.4-.465 1.67 1.489.59 3.456-4.53 8.263-13.58 15.167-22.81 16.941-5.4 1.038-11.21 3.42-16.65 1.225m-1.75 2.147c-1.76-4.488-3.03-9.479-4.08-14.201-.66-2.984-.97-5.374-2.78-7.996-5.02-7.289-10.56-14.018-16.41-20.64-1.56-1.768-3.13-3.536-4.69-5.304-1.13-1.282-2.8-1.487-4.01-2.522-1.43-1.219-.73 1.045-.79 1.974-.19 3.166-.56 6.33-.08 9.485.73 4.856 2.2 9.618 4.03 14.143.97 2.404 3.21 4.33 4.91 6.249 2 2.264 3.95 5.184 6.41 6.95 5.51 3.956 11.44 8.103 17.57 10.578m-1.74 38.569c3.39-2.994 6.84-6.978 10.78-9.252 3.17-1.832 6.53-3.331 9.73-5.092 5.72-3.142 12.01-5.826 18.5-6.768 1.66-.24 13.23-1.701 12.58 1.029-1.2 5.06-1.9 9.397-5.25 13.605-6.71 8.455-16.84 12.841-27.27 14.176-1.71.219-4.25.404-5.95.133-1.88-.301-3.65.482-5.48.126-2.75-.533-5.62-.502-8.38-1.235m-2.73 28.515c7.16-5.857 17.47-5.283 26.22-6.739 3.83-.639 8.3-.182 12.2-.229 3.03-.037 6 .474 8.99.861 2.35.302 4.5-.301 6.26-1.851.33-.293 1.42-1.632 1.18-.571-.32 1.442-2.51 3.681-3.15 5.212-1.85 4.397-6.77 9.683-11.15 11.772-6.18 2.947-13.31 1.611-19.84 1.206-2.32-.143-4.7-.257-7.01-.183-2.56.083-5.35-1.408-7.92-1.708-2.16-.252-4.91-.618-6.82-1.389m2.34-37.886c-4.31-7.822-5.16-16.485-8.79-24.537-3.69-8.189-9.69-16.315-15.64-23.045-1.38-1.564-8.16-8.921-8.64-4.063-.33 3.252-2.11 6.466-2.69 9.754-.45 2.594-1 5.073-1.42 7.664-.43 2.619.63 6.301 1.26 8.834.76 3.024 1.97 6.085 3.43 8.842 2.08 3.926 7.11 9.377 11.24 11.045 7.17 2.892 13.45 3.411 21.03 3.881m-2.83 35.277c-4.81-5.449-9.23-11.654-15.48-15.462-3.36-2.051-6.63-4.244-10.49-5.161-3.71-.883-7.4-2.715-11.24-2.952-4.11-.254-9.17-.837-13.16.224-1.27.338-1.38.501-.49 1.509 1.4 1.585 2 3.637 3.39 5.205 3.17 3.589 5.76 7.037 10.16 9.027 6.49 2.931 13.12 5.289 20.07 7.026 5.4 1.35 11.5-.855 16.56 1.186m-.68 26.708c3.26-2.79 5.09-2.626 9.26-2.721 3.68-.084 7.04-.535 10.75-.087 6.01.728 12.06.748 18 1.867 2.61.492 4.76 1.691 7.37 1.853 3.25.201.43 3.401-.7 5.006-5.87 8.315-17.55 7.547-26.45 6.097-7.85-1.279-15.57-3.504-20.96-9.606m-.14-2.908c-9.86-11.161-28.18-8.834-41.46-7.079-6.77.894-13.23 2.375-19.76 4.399-.27.086-4.22 1.365-3.61 2.05 1.86 2.113 6.18 2.938 8.64 3.758 5.95 1.98 11.47 3.989 17.81 3.592 5.89-.369 12.38.407 18.11-1.225 4.3-1.226 8.68-1.01 12.86-2.731 2.49-1.022 5.24-1.374 7.71-2.423m-7.67 35.3c3.48-2.561 9.74-2.28 14.01-2.356 3.46-.063 6.86-.516 10.29.315 7.59 1.84 14.94 3.868 22.36 6.218 1.02.324 9.46 5.056 8.81 5.702-2.36 2.341-4.72 3.648-7.66 5.077-5.14 2.502-11.77 2.33-17.36 2.327-6.31-.005-12.77-2.662-18.49-5.12-5.57-2.394-9.42-5.17-13.4-9.674" stroke="#C4631F" stroke-width="4" stroke-linecap="round" stroke-linejoin="round"/><path d="M2576.23 786.468c-1.44-1.637-3.13-4.451-5.07-5.494-2.27-1.219-5.45-2.065-7.98-2.4-2.64-.349-5.27-.135-7.92-.103-3.43.042-7.31-.01-10.66.62-6.85 1.285-13.52 3.32-20.3 4.832-3.99.892-8.21 2.962-11.18 5.813-.29.277 7.01 1.925 7.79 2.09 5 1.059 10.13 1.461 15.22 1.776 4.44.275 9.14-.193 13.56-.619 4.04-.391 8.38-.763 12.27-1.98 3.89-1.218 8.66-1.736 12.23-3.709 1.34-.742 3.08-.729 4.25-1.761m-7.73 29.534c11.38.237 23.17 1.868 33.88 5.79 4.04 1.476 7.26 3.542 10.8 5.938 2.93 1.987 6.37 3.781 8.73 6.45.54.622 1.45 1.171.43 1.382-2.2.456-4.5.602-6.74.907-6.34.866-12.86-.235-19.13-1.378-4.68-.853-9.08-2.904-13.69-3.944-3.15-.71-6.85-2.162-9.05-4.654-2.4-2.716-6.06-5.718-7.46-9.021m-2.14-.135c-6.27-4.409-14.65-3.559-22.02-3.507-7.85.055-15.59.266-23.28 1.64-6.96 1.243-13.93 3.781-20 7.352-1.29.757-2.36 1.807-3.48 2.791-.12.109-.78.688-.73.7 2.82.582 6.13 2.8 8.78 3.967 4.1 1.805 8.3 2.383 12.67 3.047 3.25.493 6.95 1.308 10.23 1.169 6.63-.28 12.93-2.062 19.27-3.898 7.51-2.178 13.34-7.641 19.06-12.694m-10.36 28.836c4.21.757 8.51 1.44 12.56 2.787 3.53 1.175 6.95 2.613 10.45 3.862 3.05 1.09 6.23 2.3 9 3.996 2.53 1.554 5.03 3.533 7.77 4.68 4.03 1.678 8.21 3.455 12.64 3.729 2.4.149 1.48.979-.12 1.616a119.396 119.396 0 01-8.6 3.055c-5.42 1.68-11.3.863-16.88.92-7.04.072-13.91-2.411-19.93-5.715-3.31-1.811-6.15-4.383-8.63-7.188-.48-.546-1.33-2.09-1.37-2.824-.01-.252-.88-2.016-.55-1.642m-13.5 18.991c-3.42-3.871-6.26-7.155-10.58-9.944-5.82-3.752-12.72-7.068-19.62-8.27-4.58-.798-8.8-1.655-13.51-.956-1.68.248-3.2.938-4.82 1.369-.78.207-2.83.226-1.9 1.282 3.07 3.47 5.92 7.01 9.99 9.342 5.16 2.949 11.51 5.862 17.41 6.824 4.06.661 8.05 1.587 12.04 2.487 2.06.464 4.28.399 6.39.529 1.04.065 3.02-.381 3.9-.026m.78.315c7.19 3.548 14.27 8.806 19.89 14.48 2.89 2.924 5.67 5.883 8.4 8.976 2.45 2.774 5.28 5.662 6.79 9.084.87 1.96 2.23 3.811 2.87 5.85.3.933.48 1.907.87 2.733.27.549-10.36-.186-11.18-.439-5.42-1.669-10.05-2.86-14.62-6.651-5.26-4.362-10.12-9.192-12.48-15.719-.8-2.203-.98-4.559-1.4-6.845-.4-2.228.35-3.896.52-6.011.15-1.816-.57-4.112.09-5.741m-22.35 36.399c-7.95-9.003-15.23-19.524-27.24-23.123-4.43-1.328-9.16-2.317-13.76-2.728a9.324 9.324 0 00-3.3.273c-1.35.361.44 1.636 1 2.264 3.62 4.105 6.4 8.976 10.34 12.818 4.28 4.175 10.32 5.685 15.88 7.161 3.97 1.053 8.53 1.354 12.63 1.719 1.6.143 3.6-.002 5.05.581m-1.45 1.787c4.33 3.367 9.63 5.755 13.32 9.935 5.14 5.818 9.59 11.334 11.62 19.001 1.24 4.646 1.74 8.001.88 12.573-.08.414-1.16 2.801-1.38 2.729-1.68-.572-3.17-1.659-4.72-2.496-4.72-2.538-8.67-7.361-10.97-12.127-2.43-5.046-5.04-10.514-5.89-16.1-.26-1.644-.78-3.121-.72-4.808.04-1 .28-2.972.09-3.894-.36-1.748.37-3.591-.06-5.214" stroke="#C4631F" stroke-width="4" stroke-linecap="round" stroke-linejoin="round"/></g><path d="M2660.59 563.343c9.51 4.365 22.35 2.403 32.55 2.304.04 10.977.77 16.125.77 27.5 0 7.132-19.38 6.238-24.27 6.238-11.84 0-22.66.43-34.15-2.443-11.68-2.919-22.13-7.123-32.89-12.649-5.52-2.834-9.9-5.58-15.18-8.854-4.32-2.683-9.47-5.078-13.91-7.59-3.36-1.897-6.84-5.548-10.12-7.589-12.19-7.585-11.47-15.267-21.5-25.298-3.02-3.02-9.21-10.274-16.45-15.179-6.4-4.339-13.36-5.716-17.71-8.854-11.44-8.266-24.81-10.15-34.67-20.011-5.77-5.761-9.68-11.777-18.41-12.695-2.66-.28-15.59-3.591-12.1-6.732 6.24-5.615 16.96-6.188 24.54-8.435 13.85-4.102 24-1.084 36.85 3.602 10.75 3.918 29.61 10.64 37.95 18.973 6.8 6.805 15.88 14.744 22.76 21.503 20.18 19.799 42.62 37.728 69.96 47.177 8.47 2.928 17.88 5.311 25.98 9.032zm12.84-177.636c5.82 6.278 10.54 13.546 15.84 20.238-.75 2.07-1.35 9.458-.14 12.165.88 1.952.14 5.724.14 7.865v32.973c0-6.202-4.8-7.82-5.72-8.732-6.38-6.335-12.86-12.478-20.23-17.708-9.28-6.573-14.93-13.35-24.04-20.238-7.7-5.828-15.18-13.02-21.5-20.239-4.84-5.524-10.73-9.295-15.18-15.178-7.55-9.991-23.08-27.085-32.33-35.609-3.44-3.174-6.5-7.52-9.41-11.192-2.73-3.443-7.63-5.777-11.58-7.563-5.53-2.493-13.47-5.353-17.55-9.848-3.08-3.4 1.05-9.815 5.02-9.815 8.64 0 16.04 3.385 24.35 5.445 8.78 2.178 15.34 10.163 22.38 15.193 9.86 7.044 24.64 24.226 36.9 27.355 11.97 3.054 26.1 8.001 35.35 17.179 5.9 5.864 12.05 11.605 17.7 17.709zm-40.15 77.221c17.18 11.457 37.98 19.452 58.81 20.128v31.333c0 2.433.63 5.964-.04 8.317-.21.742-6.11.573-6.94.335-6.46-1.846-15.12-1.596-21.24-5.31-3.03-1.836-6.71-2.923-10.1-3.923l-.3-.087c-4.45-1.315-8.52-3.582-12.81-5.346-7.72-3.183-15.1-7.28-22.38-11.362-15.14-8.476-27.87-21.32-41.52-31.931-2.77-2.16-5.03-4.981-7.27-7.649-2.21-2.624-5.31-4.412-7.84-6.683-6.25-5.628-13.94-9.433-20.23-14.889-10.06-8.717-21.95-11.397-33.75-16.708-16.26-7.315-29.07-16.864-41.3-29.096-3.23-3.225-7.14-6.806-9.8-10.471-2.19-3.002-5.01-5.936-7.02-9.059-1.39-2.156-6.34-3.05-3.01-4.53 2.85-1.265 6.37.701 8.99 1.336 4.67 1.137 7.28 1.419 10.73 4.864 5.27 5.276 11.58 8.134 17.34 12.699 8.61 6.834 22.57 5.442 32.87 9.046 7.86 2.752 15.67 7.146 23.76 8.986 4.03.916 8.03 2.718 12.03 3.861 4.21 1.204 8.58 1.301 12.51 3.342 3.93 2.037 7.98 3.511 11.7 6.015 4.37 2.943 8.2 6.647 12.58 9.616 7.91 5.348 16.51 10.939 23.36 17.636 6.94 6.785 12.7 14.086 20.87 19.53z" fill="#B7C2B4"/><path d="M2692.27 403.69c-5.73-7.288-11.17-15.199-17.46-22.036-6.12-6.648-11.73-13.746-18.12-20.132-9.99-9.995-26.6-11.317-39.53-14.642-13.25-3.408-21.19-14.51-31.85-22.182-7.6-5.477-14.7-14.173-24.19-16.545-8.98-2.244-16.98-5.93-26.32-5.93-4.28 0-8.75 6.985-5.42 10.688 4.41 4.896 12.99 8.01 18.96 10.725 4.28 1.945 9.57 4.487 12.52 8.236 3.14 3.999 6.45 8.733 10.18 12.189 9.99 9.283 17.39 21.442 25.55 32.322 4.8 6.407 10.69 11.737 15.92 17.753 6.84 7.861 13.74 15.69 22.07 22.036 9.85 7.501 18.53 16.598 28.55 23.756 7.98 5.696 14.99 12.867 21.89 19.767 1 .993 6.59 5.945 6.59 4.941v-35.909c0-2.331.8-6.439-.14-8.565-1.31-2.948 1.32-15.223-1.18-16.472" stroke="#4A5759" stroke-width="4" stroke-linecap="round" stroke-linejoin="round"/><path d="M2527.97 307.086c4.7 0 9.13-.125 13.61 1.47 3.77 1.34 7.53 2.375 11.27 3.92 11.99 4.951 21.22 15.079 30.11 24.117 3.69 3.755 5.89 7.53 8.33 12.14 2.81 5.325 8.44 10.389 12.63 14.698 6.09 6.264 15.38 9.609 23.51 11.868 8.02 2.227 15.56 9.148 20.58 15.461 3.07 3.859 6.18 7.578 9.58 11.16 3.1 3.27 7 6.673 9.53 10.398 2.22 3.277 5.72 4.815 8.22 7.73 1.71 1.996 4.04 3.8 5.88 5.717 1.7 1.771 3.67 3.151 5.5 4.79.85.766 2.14 2.539 2.94 2.94m2.75 54.666c-21.77 0-43.7-8.195-61.66-20.173-8.17-5.444-13.93-12.746-20.87-19.53-6.85-6.698-15.45-12.288-23.35-17.637-4.39-2.968-8.22-6.673-12.59-9.616-3.72-2.503-7.77-3.977-11.7-6.015-3.93-2.04-8.3-2.138-12.51-3.342-4-1.142-8-2.945-12.03-3.861-8.09-1.839-15.9-6.234-23.76-8.985-10.3-3.604-22.65-7.386-31.27-14.221-5.75-4.565-12.06-7.422-17.33-12.698-3.45-3.445-6.06-3.727-10.73-4.864-2.62-.635-6.14-2.602-8.99-1.336-3.33 1.48 1.62 2.374 3.01 4.529 2 3.123 4.83 6.057 7.01 9.06 2.67 3.664 6.58 7.246 9.81 10.47 12.23 12.233 23.43 26.955 39.69 34.27 11.8 5.311 23.69 7.991 33.75 16.709 6.29 5.455 13.98 9.261 20.23 14.888 2.53 2.271 5.63 4.059 7.84 6.684 2.24 2.668 4.5 5.488 7.28 7.648 13.64 10.611 26.37 23.456 41.51 31.931 7.28 4.082 14.66 8.18 22.38 11.362 4.29 1.764 8.36 4.032 12.81 5.346 3.48 1.025 7.29 2.12 10.4 4.01 6.12 3.714 14.78 3.465 21.24 5.31.83.238 6.73.408 6.94-.334.67-2.354.04-5.885.04-8.317v-31.411" stroke="#4A5759" stroke-width="4" stroke-linecap="round" stroke-linejoin="round"/><path d="M2447.97 368.479c14.05 9.113 24.89 22.333 38.94 31.271 5.71 3.638 10.37 8.493 16.61 11.29 5.06 2.266 9.97 4.828 15 7.114 3.55 1.612 7.69 2.439 11.42 3.579 4.01 1.225 7.59 3.382 11.58 4.601 6.3 1.924 12.81 4.568 18.41 8.094 12.74 8.025 25.43 15.911 37.75 24.71 8.95 6.394 16.86 13.058 26.66 18.234 9.17 4.836 17.3 12.681 27.18 16.104 9.67 3.344 18.3 9.186 27.87 12.866 3.78 1.454 6.52 4.005 10.9 4.005m1.09 49.032c-10.32 0-23.58 2.175-33.32-2.301-8.1-3.721-17.51-6.103-25.98-9.031-27.34-9.449-48.59-29.11-68.76-48.908-6.89-6.76-14.08-13.304-20.88-20.109-8.33-8.332-21.89-12.356-32.63-16.274-12.86-4.686-31.4-10.067-45.25-5.964-7.58 2.247-18.3 2.819-24.54 8.435-3.49 3.141 9.44 6.451 12.1 6.731 8.73.919 12.65 6.934 18.41 12.696 9.86 9.861 18.46 20.278 29.9 28.544 4.35 3.137 10.12 5.216 15.17 6.901 4.1 1.368 7.72 4.99 10.74 8.01 10.03 10.031 20.01 21.555 32.2 29.14 3.28 2.041 6.4 4.451 9.76 6.348 4.44 2.512 9.27 4.603 13.59 7.285 5.28 3.274 10.42 7.135 15.93 9.969 10.76 5.526 22.84 11.055 34.51 13.973 11.49 2.874 21.9 4.431 33.74 4.431 4.89 0 26.08.998 26.08-6.135 0-11.638-1.54-22.995-1.54-34.508" stroke="#4A5759" stroke-width="4" stroke-linecap="round" stroke-linejoin="round"/><path d="M2442.15 462.758c22.33 3.653 40.29 16.194 60.63 25.008 25.4 11.008 46.21 31.441 67.61 48.183 11.44 8.959 22.89 17.052 35.1 24.965 5.32 3.45 11.95 6.016 17.81 8.436 6.55 2.705 13.88 4.417 20.15 7.668 14.59 7.566 33.41 6.902 49.46 6.902" stroke="#4A5759" stroke-width="4" stroke-linecap="round" stroke-linejoin="round"/><path d="M2583.63 914.429c9.29-5.775 18.3-5.892 28.62-5.888-.72.672-1.4 1.468-2.06 2.093-3.8 1.265-6.5 2.385-9.65 4.486-4.42 2.945-9.15 6.198-14.65 6.605-5.06.375-8.6 1.558-13.65 1.558-.77 0-2.75.462-2.17-.697a8.6 8.6 0 011.82-2.441c3.1-2.931 8.11-3.463 11.74-5.716zm45.53-7.587c-3.37 0-6.71 1.229-10.01 2.34.72.59 1.61 1.59 2.16 2.104 1.13 1.07 2.47 1.611 3.76 2.441 4.38 2.817 9.75 4.355 14.72 5.753 4.69 1.321 10.44 1.538 15.07-.174 1.53-.565 3.19-.932 4.61-1.744.18-.103-6.44.148-3.74-1.866-2.64-3.386-3.63-4.342-7.59-6.325-6.55-3.27-11.82-2.529-18.98-2.529zm-5.06-40.479c-7.35.42-13.39 2.256-20.23 5.06.72 1.449.21.009 1.38 1.22 1.35 1.41 2.05 2.949 3.83 4.029 1.84 1.108 3.58 2.422 5.58 3.216 5.95 2.353 12.26 1.941 18.48.968 5.42-.845 9.07-3.318 13.53-6.044.67-.413 7.07-4.5 6.53-4.654-.82-.232-1.71-.899-2.53-1.265-1.8-.8-3.18-.666-5.06-1.265-3.29-1.045-6.71 0-10.12 0-3.81 0-7.6-1.481-11.39-1.265zm-25.5 3.796h.21c-.79.391-.52.325-1.21 1.01-1.37 1.373-2.68 2.949-4.26 4.088-3.05 2.207-6.13 4.399-9.06 6.799-4.27 3.493-10.16 6.105-15.35 7.865-4.1 1.392-5.34 2.569-9.61 2.569-1.3 0-.06-1.428.27-2.093.7-1.382 1.15-2.857 2-4.165 2.39-3.683 6.04-4.54 9.39-7.219 5.04-4.033 10.3-5.861 16.44-7.589 4.5-1.265 6.56-1.265 11.18-1.265zm-8.31-26.11c3.09-2.443 6.19-4.999 9.59-6.974 2.97-1.724 6.05-3.208 9.04-4.862 2.62-1.443 5.4-2.903 8.26-3.778 2.62-.801 5.51-1.319 7.98-2.518 1.92-.935 4.33-1.908 6.59-3.049v-.001c.42-.942 1.25-1.161 2.18-1.193 1.15-.694 2.2-1.452 3.04-2.294 1.57-1.572 1.59-.431 1.05 1.065-.61 1.676-2.49 1.174-4.09 1.229-.7.419-1.43.816-2.18 1.194-2.15 4.769-6.3 8.336-9.67 12.223-4.24 4.906-10.15 8.14-16.11 10.286-3.27 1.176-6.78 1.569-10.23 1.569-.67 0-2.26-.351-2.79-.775-.18-.145-1.93-.62-1.47-.62l-1.19-1.502zm11.05-47.255c-9.26 5.011-17.71 12.649-24.04 15.179 3.14 1.047 3.66 2.079 7 2.079 3.06 0 6.32-1.666 8.73-3.409 3.54-2.552 7.64-4.339 11.09-7.052 4.61-3.634 9.35-7.467 12.63-12.378 1.15-1.735 3.75.335 4.78-1.466.47-.832-.46-.542-1.22-.542-3.28 0-5.69 1.194-8.86 2.008-3.81.98-6.63 3.695-10.11 5.581zm-45.37 39.64c4.46-5.121 9.68-11.432 16.56-13.077 0 7.036.22 14.399-2.87 20.922-2.6 5.5-5.21 10.942-9.06 15.692-1.91 2.351-4.73 4.41-7.05 6.354-.53.442-.85.725-1.04.899-.48.451-.05.159 0 0 .05-.142-.21-.18-1.68.496-2.42 1.118-5.97 2.049-8.09 3.642-.05.032-.04-.779-.04-.93 0-1.371-.07-2.755.19-4.107 1.24-6.376-.6-7.046 2.79-12.61 3.74-6.153 5.54-11.827 10.29-17.281zm15.46-59.42c-2.55 2.994-9.38 9.037-9.73 13.002 5.54 0 9.81-.969 14.86-3.355 5.19-2.45 10.97-5.289 14.82-9.647 3.42-3.862 7.58-8.338 9-13.421.8-2.902 2.4-2.953 2.22-6.009-.05-.843-8.01 2.021-8.85 2.53-6.16 3.69-10.54 5.996-16.45 10.119-2.66 1.861-3.8 4.354-5.87 6.781zm-10.57 13.456c1.9-.705.51 1.265 2.53 1.265 0 1.437-4.57-1.166-4.88.215-.81 3.669-3.36 7.281-4.9 10.713-1.53 3.429-3.92 6.654-6.12 9.686-2.4 3.313-4.95 6.849-7.85 9.744-3.22 3.225-6.52 6.426-10.17 9.177a21.262 21.262 0 00-.34 4.736c.01.367-.6-4.04 0-4.479.11-.085.22-.171.34-.257.42-2.356 1.21-4.676 2.3-6.648 3.09-5.608 4.29-10.928 7.59-16.444 1.61-2.705 4.25-5.194 6.32-7.589 2.28-1.582 4.47-3.449 6.32-5.06 1.78-1.546 6.63-4.237 8.86-5.059zm-12.65-35.416c-2.48 2.941-2.53 3.795-5.06 3.592v3.356c7.51 0 13.76-3.978 19.43-8.621 6.44-5.263 14.1-12.865 11.93-21.996-.41-1.762-.59-1.705-2.71.419-1.71 1.708-2.68 2.774-4.62 4.277-4.4 3.422-8.48 6.413-12.65 10.119-2.57 2.285-4.13 6.258-6.32 8.854zm-35.42 32.887c6.9-10.245 13.92-22.768 25.48-25.297-.78 2.347-1.8 4.462-2.61 6.803-1.36 3.941-4.18 6.833-5.96 10.555-2.37 4.956-6.87 8.964-10.21 13.258-3.6 4.628-8.35 7.21-13.35 10.113-2.07 1.203.4 3.542-2.2 3.542-.84 0-.11-3.55 0-3.795 2.58-5.746 5.34-9.955 8.85-15.179zm26.57-69.571c-4.34 6.931-10.12 11.384-13.92 19.302l3.78 4.614c1.7-.85 3.63-2.53 5.12-3.868 1.77-1.588 4.51-2.605 6.01-4.427 1.36-1.642 2.9-3.218 4.41-4.73 4.27-4.27 9.54-8.38 11.28-14.447 1.22-4.298.58-10.925-1.33-14.889-.67-1.38-.31-.592-1.11-1.693-.59-.81-.33.757-.33 1.165 0 2.158.37 3.625-1.27 5.059-2.09 1.835-4.5 4.211-6.32 6.325-2.35 2.728-4.42 4.549-6.32 7.589zm-36.69 27.83c6.45-1.991 12.68-3.663 19.39-3.663-4.5 2.249-6.7 8.65-10.93 11.557-5.44 3.742-11.12 6.884-17.1 9.577-4.07 1.829-8.03 1.514-12.45 1.514a4.1 4.1 0 00-.12.002c-.05.093-.08.177-.11.254.65.295 2.28.741.98.741-1.01 0-1.23-.114-.98-.741-.3-.136-.39-.24.11-.254.03-.081.08-.169.12-.263 1.7-3.402 1.97-5.925 4.65-8.605 2.51-2.509 5.98-4.297 8.85-6.324 2.99-2.108 4.12-2.722 7.59-3.795zm2.53-46.803c-.83 4.109-2.29 8.644-2.29 12.812l4.2 4.614c2.19-1.462 3.92-3.46 5.96-5.033 1.37-1.051 1.91-2.75 3.26-3.868 1.23-1.008 2.65-2.878 3.55-4.194 5.44-8.018 8.59-17.694 6.85-27.495-.87-4.878-2.32-3.272-5.08-7.194-1.49-2.116-5.48 5.034-6.33 6.325-3.31 5.064-5 9.312-6.32 15.178-.74 3.287-3.13 5.546-3.8 8.855zm-17.71 12.65c7.78 2.408 7.15 7.057 15.18 8.855-4.95 4.952-1.97 6.387-8.35 9.573-3.67 1.838-10.51 1.986-14.49 1.025-2.8-.675-5.65-1.705-8.2-3.029-2.14-1.109-5.33-2.627-6.87-4.52-1.54-1.873-2.92-3.766-4.43-5.662-1.92-2.403-3.05-5.599-5.1-7.806-3.07-3.298 6.31-.965 8.23-.965 8.28 0 16.12.081 24.03 2.529zm-11.25-24.555c0-4.682 1.76-11.279 2.4-15.921.58-4.211 3.7-6.042 5.06-10.119 1.26-3.791 1.6-6.824 3.8-10.119.3-.456.49-.878.59-1.254-.1-.316-.21-.629-.32-.939-.58-1.61.81-.86.32.939 2.56 8.024 1.71 17.979-2.53 25.157-2.58 4.366-4.49 9.838-9.32 12.256zm-14.15-1.586c3.46 1.908 7.16 3.832 10.87 5.302-5.33 2.548-11.56 4.05-17.44 5.393-2.72.622-5.93.187-8.71.187-2.36 0-5.07.378-7.32-.42-4.24-1.502-7.64-4.635-11.44-7.09-2.48-1.594.8-.462-1.27-2.529-.61-.608-2.6-1.503-.89-1.748 1.46-.208 2.62-1.235 4.2-1.235h6.52c8.15 0 10.16-1.801 18.26-.819 2.91.353 4.75 1.598 7.22 2.959zm3.05-15.164c1.06 4.498 2.37 3.639 2.5 7.706-.69-.487-1.56-1.333-2.09-1.832-1.01-.959-2.36-1.522-3.35-2.516-2.9-2.902-6.5-5.116-9.88-7.549-4.87-3.508-8.95-6.868-12.89-11.424-3.02-3.492-5.3-4.58-6.99-8.898-.24-.613-2-3.294-1.87-3.751.19-.657 4.61-.233 5.22-.233 1.13 0 5.54 2.429 9.96 3.984 5.17 2.409 12.35 6.99 14.8 12.56 1.72 3.903 3.6 7.775 4.59 11.953z" fill="#CB906D"/><path d="M2471.93 682.953c9.51 7.779 15.71 18.803 25.03 26.372 2.44 1.987 4.03 5.028 6.15 7.35 2.32 2.554 5.35 4.601 7.35 7.397 3.93 5.511 9.41 9.898 13.73 15.084 8.01 9.607 17.1 18.486 24.5 28.534 4.32 5.855 8.2 12.122 12.3 18.157 3.97 5.847 8.8 10.825 12.3 17.005 12.95 22.917 22.04 48.223 29.68 73.352 5.26 17.259 15.09 34.997 15.09 53.176m-146.73-247.359c0-4.857-.35-9.082-1.47-13.817-.99-4.179-2.87-8.051-4.59-11.953-2.45-5.57-10.65-10.452-16.17-12.396-4.42-1.555-7.73-2.517-12.37-2.517-.62 0-5.03-.423-5.22.233-.13.457 1.62 3.139 1.86 3.752 1.69 4.318 5.25 8.694 8.27 12.186 3.95 4.557 9.48 8.422 14.36 11.93 3.38 2.433 6.97 4.647 9.88 7.549.99.994 2.34 1.557 3.35 2.517.65.61 1.81 1.742 2.52 2.097" stroke="#C4631F" stroke-width="3" stroke-linecap="round" stroke-linejoin="round"/><path d="M2478.04 688.731c0-4.682-.22-9.385.42-14.027.58-4.21 3.46-8.528 4.82-12.605 1.26-3.791 3.02-7.609 5.22-10.905 1.76-2.636 2.05-.245 2.75 1.701 2.94 8.175 2.19 18.636-2.21 26.097-2.58 4.366-4.49 9.837-9.32 12.256m.42 2.517c-4.18-1.52-8.4-3.694-12.31-5.848-2.47-1.362-4.31-2.606-7.22-2.96-8.1-.981-16.13-1.258-24.28-1.258h-6.52c-1.58 0-2.74 1.027-4.2 1.235-1.71.245.28 1.14.89 1.748 2.07 2.067 4.03 4.253 6.5 5.848 3.8 2.455 7.99 4.347 12.23 5.849 2.25.797 4.96.419 7.32.419 2.78 0 5.99.436 8.71-.186 6.1-1.394 12.58-2.959 18.04-5.686m25.58 24.745c0-4.168-.64-8.985.19-13.095.67-3.308 1.68-6.546 2.42-9.832 1.32-5.867 3.3-11.852 6.62-16.917.84-1.29 6.9-10.177 8.39-8.062 2.76 3.922 5.33 7.052 6.19 11.93 1.75 9.801-1.41 19.477-6.85 27.495-.89 1.316-2.31 3.186-3.54 4.194-1.36 1.118-1.89 2.817-3.26 3.868-2.04 1.572-3.77 3.571-5.96 5.033m18.03 19.293c.32-8.522 7.01-15.298 11.35-22.229 1.9-3.04 4.94-5.846 7.29-8.574 1.82-2.114 3.98-3.851 6.08-5.686 1.64-1.434 2.54-3.293 2.54-5.452 0-.408-.26-1.975.33-1.165.8 1.102 1.01 3.979 1.67 5.359 1.91 3.963 2.56 10.591 1.33 14.889-1.73 6.067-7 10.177-11.27 14.447-1.52 1.512-3.05 3.088-4.41 4.73-1.51 1.822-4.24 2.839-6.01 4.427-1.49 1.337-3.43 3.018-5.13 3.867m-24.74-24.744c-8.04-1.797-14.54-6.493-22.32-8.901-7.91-2.448-17.19-3.262-25.47-3.262-1.92 0-11.15.197-8.09 3.495 2.05 2.208 3.18 5.403 5.11 7.806 1.51 1.896 2.89 3.789 4.42 5.662 1.55 1.893 4.74 3.411 6.88 4.52 2.55 1.324 5.4 2.354 8.2 3.029 3.98.961 10.82.814 14.49-1.025 6.37-3.186 10.57-7.211 15.52-12.163m22.65 23.485c-6.7 0-13.69-.733-20.13 1.258-3.47 1.073-6.98 1.993-9.98 4.101-2.87 2.027-6.39 3.456-8.9 5.965-2.68 2.68-6.17 5.824-7.87 9.227-.54 1.085-.5 1.258.74 1.258 1.95 0 3.74.839 5.67.839 4.41 0 8.37.314 12.44-1.515 5.98-2.692 11.66-5.834 17.1-9.576 4.23-2.908 6.43-8.469 10.93-10.718m18.03 16.776c.07-3.961 1.3-5.121 3.78-8.062 2.19-2.596 3.93-5.194 6.5-7.479 4.17-3.706 7.88-7.879 12.28-11.301 1.93-1.503 4.07-2.254 5.78-3.961 2.12-2.124 2.61 1.78 3.03 3.542 2.16 9.131-5.5 16.732-11.93 21.995-5.68 4.644-11.93 8.621-19.44 8.621m-2.09-1.676c-13.73 0-23.31 14.08-30.2 24.325-3.52 5.224-6.43 10.588-9.02 16.334-.11.245-1.63 3.751-.79 3.751 2.6 0 5.8-2.477 7.87-3.681 5-2.903 9.76-5.485 13.36-10.112 3.34-4.295 7.83-8.302 10.2-13.258 1.78-3.723 4.6-6.615 5.97-10.556.81-2.341 2.24-4.456 3.03-6.803m19.71 26.842c.35-3.966 4.37-8.121 6.92-11.115 2.07-2.427 3.83-5.059 6.5-6.92 5.9-4.123 11.79-7.96 17.94-11.65.85-.509 9.27-3.453 9.32-2.61.18 3.056-.36 5.486-1.16 8.388-1.42 5.083-5.58 9.559-9 13.421-3.85 4.358-9.63 7.197-14.82 9.647-5.05 2.386-9.32 3.355-14.86 3.355" stroke="#C4631F" stroke-width="3" stroke-linecap="round" stroke-linejoin="round"/><path d="M2563.69 792.858c-2.01 0-4.99-.55-6.89.155-2.23.822-4.75 2.503-6.53 4.049-1.85 1.611-3.31 3.556-4.9 5.404-2.07 2.396-4.47 5.044-6.09 7.749-3.29 5.516-5.95 11.363-9.04 16.97-1.83 3.307-2.97 7.483-2.81 11.275.01.367 5.61-3.668 6.2-4.107 3.78-2.808 7.19-6.108 10.52-9.434 2.89-2.895 5.44-6.432 7.84-9.744 2.2-3.032 4.59-6.258 6.12-9.687 1.54-3.431 4.09-7.043 4.91-10.712.3-1.381 1.37-2.573 1.37-4.01m15.69 23.362c7.11-7.718 15.43-14.865 24.68-19.876 3.49-1.886 6.88-2.855 10.7-3.836 3.16-.813 6.5-2.092 9.78-2.092.76 0 1.69-.289 1.22.543-1.03 1.8-2.33 3.476-3.49 5.211-3.27 4.911-8.01 8.744-12.63 12.379-3.44 2.712-7.55 4.499-11.08 7.051-2.41 1.743-5.67 3.409-8.74 3.409-3.34 0-7.65.698-10.79-.348m-1.39 1.395c-6.88 1.644-11.41 7.955-15.87 13.076-4.75 5.454-9.33 10.934-13.07 17.086-3.39 5.565-5.89 11.931-7.13 18.307-.27 1.352-.2 2.736-.2 4.107 0 .151 0 .962.04.93 2.13-1.593 5.68-2.524 8.1-3.642 3.75-1.731 6.72-4.282 9.84-6.897 2.33-1.943 5.15-4.002 7.05-6.354 3.85-4.75 6.47-10.192 9.07-15.691 3.08-6.523 2.87-13.886 2.87-20.922m13.6 24.756c3.09-2.443 6.18-4.999 9.59-6.974 2.96-1.724 6.04-3.208 9.04-4.863 2.62-1.443 5.4-2.902 8.25-3.777 2.62-.801 5.52-1.319 7.99-2.519 3.61-1.756 7.39-3.559 10.28-6.45 1.57-1.572 1.59-.431 1.05 1.065-.95 2.647-1.99 5.243-3.14 7.807-2.15 4.77-6.3 8.337-9.67 12.224-4.24 4.906-10.15 8.141-16.11 10.286-3.27 1.176-6.78 1.57-10.23 1.57-.67 0-2.26-.352-2.79-.775-.18-.145-1.93-.62-1.47-.62m4.88 20.923c-4.77 0-8.77-.044-13.33 1.24-6.14 1.728-12.65 4.471-17.69 8.505-3.35 2.678-6.51 5.072-8.91 8.756-.85 1.307-1.3 2.783-1.99 4.165-.34.664-1.57 2.092-.28 2.092 4.27 0 8.46.191 12.56-1.201 5.18-1.76 11.07-4.372 15.34-7.865 2.93-2.4 6.01-4.592 9.07-6.8 1.57-1.138 2.89-2.715 4.26-4.087.68-.686 1.58-2.322 2.36-2.712m.7-.35c6.84-2.804 14.79-4.481 22.14-4.901 3.79-.217 7.53-.33 11.33-.33 3.42 0 7.14-.193 10.43.853 1.88.599 3.99.788 5.79 1.588.82.367 1.61.834 2.42 1.066.54.154-6.45 7.045-7.13 7.458-4.46 2.726-8.11 5.199-13.52 6.044-6.22.973-12.53 1.384-18.48-.969-2.01-.794-3.75-2.107-5.58-3.215-1.79-1.081-2.48-2.619-3.84-4.03-1.16-1.21-3.19-2.116-3.91-3.564m11.51 37.66c-11.08 0-22.79-1.396-32.61 4.707-3.62 2.253-7.19 4.915-10.28 7.846a8.417 8.417 0 00-1.82 2.441c-.58 1.159 1.39.697 2.17.697 5.05 0 10.11 1.053 15.16.678 5.5-.407 10.23-3.66 14.65-6.606 3.15-2.101 6.14-5.063 8.89-7.671 1.08-1.019 2.2-2.496 3.49-3.138m.35 2.093c4.97-.938 9.85-3.138 14.99-3.138 7.16 0 13.68.293 20.23 3.564 3.96 1.983 6.58 3.685 9.22 7.071.24.307 1.22 2.512 1.04 2.615-1.42.812-3.08 1.179-4.61 1.744-4.63 1.712-10.37 1.495-15.07.174-4.97-1.398-10.34-2.936-14.72-5.753-1.29-.83-2.63-1.371-3.76-2.441-.67-.635-1.88-2.011-2.63-2.441-1.43-.817-2.26-2.446-3.65-3.138" stroke="#C4631F" stroke-width="3" stroke-linecap="round" stroke-linejoin="round"/></g></svg>