<svg width="1440" height="367" fill="none" xmlns="http://www.w3.org/2000/svg"><path d="M35.89 109.723c5.86 2.251 11.202 5.879 17.263 7.268 2.592 1.084 3.026.989 7.166 2.781 5.156 2.232 8.324 2.857 13.745 4.314 2.914.783 3.94 1.118 6.885 1.768 2.764.609 4.084 1.617 6.875 2.089 2.79.472 4.094 1.038 6.894 1.446 2.786.407 4.877.733 7.679 1.016 11.669 1.177 20.983 2.725 30.312.933 9.674-1.859 17.331-5.238 28.644-7.723 2.689-.591 4.255-.673 6.901-1.435 3.193-.92 5.131-1.29 7.932-3.088 5.092-3.269 7.729-6.625 9.202-12.531 1.284-5.155 1.711-9.158-1.252-13.549-1.761-2.608-3.5-3.57-6.213-5.07l-.123-.068c-2.58-1.426-4.301-1.628-7.106-2.525-6.327-2.022-11.562-1.572-16.53-3.987-4.681-2.275-10.061-4.191-14.483-6.852-4.481-2.698-8.528-6.175-12.956-9.296-4.566-3.219-11.027-2.316-16.394-2.482-5.582-.171-12.23.48-17.307-1.154-4.247-1.368-6.718-5.35-10.5-7.756-4.47-2.844-8.81.041-13.948-1.93-2.94-1.128-4.027-3.155-7.098-3.843-2.995-.672-4.78.348-7.848.38-2.988.033-4.661-.236-7.65-.198-3.525.045-5.513.093-9.013.528-3.761.467-5.806 1.138-9.526 1.867-2.837.556-4.463.705-7.264 1.424-5.746 1.475-10.918 2.044-14.173 5.495-3.199 3.392-4.229 9.685-1.207 13.29 3.375 4.028 6.878 6.44 11.293 9.098 1.866 1.123 3.802 1.254 5.305 3.275.503.677.33 6.306-.214 6.95-2.838 3.363-9.522.595-12.551-1.228-1.463-.88-9.264-6.681-9.38-2.925-.154 5.03 3.828 6.953 7.56 8.983 5.187 2.82 10.728 5.189 15.748 8.21a85.974 85.974 0 0013.331 6.525z" fill="#F9F6EF" stroke="#619482" stroke-width="4.519" stroke-linecap="round" stroke-linejoin="round"/><path d="M35.355 109.84c5.86 2.252 11.203 5.879 17.263 7.268 2.593 1.085 3.026.989 7.167 2.781 5.156 2.232 5.3 2.427 10.721 3.884 2.914.783 4.114.882 7.06 1.532 2.764.61 5.053 1.489 7.844 1.961 2.79.472 3.867 1.553 6.667 1.961 2.787.407 4.65.894 7.452 1.177 11.67 1.177 18.518 3.332 27.847 1.539 9.674-1.859 14.572-3.368 25.885-5.853 2.689-.591 7.159-1.555 9.805-2.317 3.193-.919 6.22-.199 9.021-1.998 5.092-3.269 9.475-5.308 10.947-11.214 1.285-5.154 1.712-9.157-1.252-13.548-1.76-2.609-3.499-3.57-6.212-5.07l-.124-.068c-2.58-1.427-4.301-1.629-7.105-2.525-6.328-2.022-11.562-1.572-16.53-3.987-4.681-2.275-10.061-4.192-14.483-6.853-4.482-2.697-8.528-6.174-12.956-9.296-4.566-3.218-11.027-2.316-16.395-2.481-5.581-.172-12.229.48-17.306-1.155-4.247-1.367-6.719-5.35-10.5-7.755-4.471-2.844-8.81.04-13.949-1.93-2.94-1.129-4.026-3.155-7.097-3.844-2.995-.671-4.78.348-7.849.381-2.988.032-4.66-.237-7.649-.199-3.525.045-5.514.094-9.013.529-3.761.467-5.806 1.137-9.527 1.867-2.836.556-4.463.705-7.263 1.424-5.746 1.475-10.919 2.044-14.173 5.495-.604 2.968-1.976 5.56 1.046 9.166 3.375 4.027 6.877 6.44 11.293 9.097 1.866 1.123 3.802 1.255 5.305 3.276.503.677-1.923 10.43-2.467 11.074-2.838 3.362-9.522.595-12.551-1.229-1.463-.88-7.036-9.477-7.152-5.721-.155 5.03 3.419 5.867 7.152 7.896 5.185 2.82 10.726 5.189 15.746 8.21a85.888 85.888 0 0013.332 6.525z" fill="#B0C9AB"/><path d="M23.908 76.939c9.014 10.525 14.56 16.267 26.244 25.954l2.853 7.708 64.63 8.847 55.11-8.21-35.602 1.952 15.205-17.058c-9.272 7.154-15.158 15.536-23.743 18.32-8.584 2.784-13.988 2.617-13.988 2.617l-5.309-3.211c11.797-7.426 16.848-12.025 24.585-20.58-8.476 6.945-13.768 10.807-27.579 17.44l-14.667-.452c10.37-9.508 13.819-15.132 18.551-25.338-6.879 10.054-11.844 15.597-24.726 25.148l-12.397 1.143c7.257-11.794 12.35-18.69 22.597-31.31C84.893 90.955 79.14 97.868 69.215 111.1l-2.316-.071s3.536-5.727 4.936-9.755c3.13-9.001.75-24.361.75-24.361s1.6 15.914-3.065 24.29c-1.975 3.545-6.433 8.185-6.433 8.185 1.007-16.039.517-25.065-1.051-41.182.152 16.07-.08 25.073-2.037 41.087l-4.514-3.949c-.776-15.883-3.078-24.777-8.022-40.635 2.802 13.494 4.61 21.07 3.578 34.402-11.252-7.351-17.083-12.427-27.133-22.172z" fill="#F9F6EF"/><path d="M15.441 94.072c-2.713-2.046-5.701-3.732-8.514-5.634L-.09 84.124l-1.177 4.314 18.434 12.551 54.516 22.355 50.986 8.629 14.842-2.632c-7.038-2.64-14.524-5.209-20.986-9.32-4.532-2.883-8.765-6.967-14.073-8.59-4.19-1.28-8.883-.328-13.128-.066-4.692.291-9.095 1.173-13.843 1.027-4.74-.146-9.346-.587-13.952-1.782-2.546-.661-4.197-3.296-6.404-4.574-6.041-3.5-13.721-.638-20.266-2.951-2.523-.892-4.479-3.166-6.858-4.41-2.042-1.066-3.899-1.472-6.186-1.542-2.234-.07-4.654-1.764-6.374-3.061z" fill="#D3DFD0"/><path d="M35.94 109.721c5.86 2.252 11.203 5.88 17.263 7.268 2.592 1.085 3.026.99 7.166 2.782 5.156 2.231 8.324 2.856 13.746 4.313 2.913.783 3.938 1.118 6.884 1.768 2.764.61 4.084 1.617 6.875 2.089 2.79.472 4.094 1.039 6.894 1.447 2.787.406 4.877.733 7.679 1.015 11.669 1.178 20.983 2.726 30.312.933 9.674-1.859 17.331-5.237 28.644-7.723 2.689-.59 4.255-.673 6.902-1.435 3.192-.919 5.13-1.289 7.931-3.087 5.092-3.27 7.729-6.626 9.202-12.532 1.284-5.154 1.711-9.157-1.252-13.548-1.761-2.609-3.5-3.57-6.213-5.07l-.123-.068c-2.58-1.427-4.301-1.629-7.106-2.525-6.327-2.022-11.562-1.573-16.53-3.987-4.681-2.275-10.061-4.192-14.482-6.853-4.482-2.697-8.529-6.174-12.957-9.295-4.566-3.22-11.027-2.317-16.394-2.482-5.582-.172-12.23.48-17.307-1.155-4.247-1.367-6.718-5.35-10.5-7.755-4.47-2.844-8.81.04-13.948-1.93-2.94-1.129-4.027-3.155-7.098-3.844-2.995-.671-4.78.348-7.848.381-2.988.032-4.661-.237-7.65-.199-3.525.045-5.513.094-9.013.529-3.761.467-5.806 1.137-9.526 1.866-2.837.557-4.463.706-7.264 1.425-5.746 1.475-10.918 2.044-14.173 5.495-3.199 3.391-4.229 9.684-1.207 13.29 3.375 4.027 6.878 6.44 11.293 9.098 1.866 1.123 3.802 1.254 5.305 3.275.503.677.33 6.305-.214 6.95-2.838 3.362-9.522.595-12.551-1.229-1.463-.88-9.264-6.68-9.38-2.924-.154 5.03 3.828 6.953 7.56 8.983 5.187 2.82 10.728 5.188 15.748 8.21a85.967 85.967 0 0013.331 6.524z" stroke="#619482" stroke-width="4.519" stroke-linecap="round" stroke-linejoin="round"/><path d="M10.499 90.007c2.745 1.569 3.18 1.4 5.893 3.445 1.72 1.297 4.14 2.993 6.373 3.061 2.288.07 4.145.477 6.187 1.543 2.38 1.243 4.334 3.518 6.857 4.409 6.546 2.313 14.225-.549 20.267 2.952 2.206 1.278 3.858 3.913 6.404 4.573 4.605 1.196 9.212 1.637 13.952 1.783 4.748.146 9.151-.736 13.843-1.027 4.244-.263 8.939-1.215 13.128.066 5.308 1.622 9.541 5.707 14.073 8.59 6.462 4.11 13.947 6.679 20.986 9.319m-83.675-9.637c-5.017 4.746-10.21 7.617-16.006 13.323-6.028 5.936-8.841 9.821-14.06 16.48-12.869 16.42-18.72 26.759-28.47 45.203-4.62 8.74-7.134 13.701-11.02 22.791-3.28 7.671-5.36 13.293-7.624 19.956-1.24 3.651-3.31 6.932-4.616 10.5-1.676 4.58-2.715 10.015-4.99 14.26" stroke="#619482" stroke-width="4.519" stroke-linecap="round" stroke-linejoin="round"/><path d="M107.669 241.611c4.383.798 8.046 5.586 11.282 8.113 0 4.068 12.103.907 14.958.907 3.158 0 5.815.303 9.52 0 3.394-.279 5.246-.846 8.612-1.361 5.992-.917 9.342-1.513 15.362-2.217 3.731-.436 5.855-.401 9.57-.957 8.04-1.204 12.257-3.279 20.146-5.24 8.552-2.127 13.426-2.994 21.96-5.19 8.92-2.296 13.842-3.877 22.715-6.349 6.372-1.775 9.947-2.762 16.319-4.535 7.062-1.965 18.082-5.038 18.082-5.038s11.5-1.577 18.635-3.578c5.871-1.646 7.329.41 11.898-3.628 11.855-10.478-16.989-9.412-30.767-17.191-7.623-4.303-11.585-7.635-19.945-10.228-7.185-2.229-13.557-2.923-19.039-2.923-3.855 0-5.453-1.85-8.562-3.628-2.813-1.608-5.71-2.516-8.663-3.829-5.99-2.663-13.233-1.612-19.945-1.612-6.526 0-12.983-.968-18.586-4.082-6.681-3.713-13.632-3.174-21.254-3.174-7.424 0-14.636-.076-21.809 1.612-8.182 1.926-17.148 5.331-25.586 5.644-8.658.32-16.29.237-24.68 1.763l-.235.043c-8.228 1.496-18.046 3.281-24.293 9.531-10.404 10.408-21.453 8.311-35.357 13.201-6.96 2.448-12.856.694-17.88 6.097-4.381 4.711-6.133 2.384-5.407 8.776 1.445 12.736 21.968 12.795 29.464 14.461 13.57 3.017 28.67.853 41.451 4.787 7.58 2.333 14.922 4.405 22.262 6.853 3.064 1.021 6.596 2.395 9.772 2.972z" fill="#B0C9AB"/><path d="M39.532 222.305c-9.208 2.334-15.476 0-24.978 0l30.246 6.467 29.56 2.406 30.245 9.624 9.968 5.155 5.499 5.843 27.497-1.718 32.995-4.812 53.618-13.404 22.685-6.875 29.215-8.69c-3.597 0-3.6-.553-7.729-.553-5.171 0-10.936-2.133-16.33-2.133-6.504 0-12.564 2.133-19.025 2.133-3.615 0-6.205-.091-9.54-1.264-2.702-.951-6.223-3.097-8.858-3.674-2.576-.564-4.814-2.884-7.576-2.884-2.561 0-4.803.579-7.215.711-2.813.154-6.128 2.842-8.698 3.951-3.382 1.458-6.983 1.027-10.623 1.027-5.24 0-9.399-3.493-14.029-5.136-5.465-1.938-11.129.759-16.274 2.449-7.484 2.459-13.904 6.953-22.167 6.953-4.435 0-11.295.334-15.151-1.778-5.156-2.822-10.765-3.199-16.555-3.199-5.261 0-8.924 3.804-13.388 6.004-5.094 2.51-11.423.505-16.6-1.136l-.155-.049c-2.893-.916-5.004-2.686-8.097-2.686-3.594 0-6.664.493-10.182 1.264-6.378 1.397-12.054 4.407-18.358 6.004z" fill="#D3DFD0"/><path d="M118.818 249.723c-3.235-2.526-6.898-7.315-11.282-8.112-3.176-.578-6.708-1.951-9.771-2.973-7.34-2.448-14.683-4.52-22.262-6.853-12.78-3.934-27.88-1.769-41.452-4.786-7.496-1.667-28.019-1.725-29.464-14.461-.725-6.393.857-10.909 5.238-15.62 5.024-5.403 10.92-3.649 17.88-6.097 13.904-4.89 24.953-2.793 35.358-13.201 6.306-6.309 16.252-8.068 24.528-9.574 8.389-1.525 16.022-1.442 24.679-1.763 8.438-.313 17.404-3.717 25.587-5.643 7.173-1.689 14.385-1.613 21.808-1.613 7.622 0 14.573-.539 21.255 3.175 5.602 3.113 12.059 4.081 18.585 4.081 6.712 0 13.955-1.051 19.945 1.612 2.954 1.314 5.85 2.222 8.663 3.83 3.11 1.777 4.708 3.628 8.563 3.628 5.481 0 11.854.693 19.038 2.922 8.361 2.594 12.322 5.925 19.945 10.228 13.778 7.779 45.601 11.944 33.746 22.422-4.569 4.038-8.837 3.594-14.707 5.241-7.136 2.001-18.636 3.577-18.636 3.577s-11.019 3.074-18.081 5.039c-6.373 1.773-9.947 2.76-16.319 4.535-8.873 2.471-13.795 4.053-22.715 6.348-8.535 2.196-13.409 3.064-21.96 5.19-7.889 1.962-12.107 4.037-20.147 5.24-3.714.556-5.839.521-9.569.958-6.021.704-9.371 1.3-15.362 2.217-3.366.515-5.219 1.082-8.613 1.36-3.705.304-6.362 0-9.519 0-2.856 0-15.865 3.161-15.865-.907" stroke="#619482" stroke-width="4.519" stroke-linecap="round" stroke-linejoin="round"/><path d="M79.28 214.044c-10.069-5.228-14.195-9.15-18.828-18.075 7.4 8.612 12.945 12.764 25.607 18.828l14.309-6.025c-2.755-9.273-5.934-13.931-12.803-21.841 8.14 7.399 11.862 11.969 16.569 21.088l17.322 3.766c-3.697-12.317-8.708-18.878-21.84-30.126 15.343 10.231 21.408 17.606 29.772 31.786l2.902.387 6.488-.541c-4.165-15.368-4.705-23.939-3.765-39.163.422 15.375 1.613 23.744 7.531 37.657l12.803-4.519c6.584-15.16 11.545-21.278 21.088-30.879-9.18 10.874-13.953 17-13.556 28.62l12.05-1.507 11.297 5.272c10.185-11.143 16.559-16.823 28.619-26.36-11.257 9.562-17.098 15.153-23.32 27.062l14.102-2.991 6.959-2.983 17.322 5.272c15.26-2.079 21.915-4.299 32.385-9.037-9.018 5.844-14.682 8.578-26.36 12.05l-23.347-6.778-6.959 1.476-3.585 1.536-10.544 1.506.027-.051-3.793.805-14.309-5.272-13.557 2.259-20.335 7.531-7.241-.965-2.549.212a243.55 243.55 0 00-.353-.599l-23.748-3.166-24.853 6.025-1.507-2.26z" fill="#F4EFE6"/><path d="M119.822 248.037c0-2.463-.397-9.841-.397-7.378 0 1.486.435 2.719.706 4.169.241 1.289.882 5.145.882 3.833 0-4.134 3.572-7.682 3.572-11.613 0-1.835-.563 3.65-1.191 5.372-.641 1.76-1.294 3.799-2.183 5.417-.404.736-.755 1.493.552.646 2.476-1.606 4.713-3.561 6.791-5.662a22.667 22.667 0 001.588-1.805c.036-.046-2.989 2.715-3.793 3.388-1.954 1.635-3.951 3.026-6.042 4.436-.102.068-1.824 1.396-1.587 1.515.876.443 3.3-1.329 4.101-1.649 2.068-.825 4.092-1.661 6.042-2.764 1.821-1.03 3.692-2.864 5.645-3.522M10.773 220.867c9.502 0 17.489-.353 26.696-2.686 6.305-1.598 11.98-4.608 18.359-6.005 3.518-.77 6.588-1.264 10.181-1.264 3.093 0 5.204 1.77 8.097 2.686 5.206 1.649 11.61 3.721 16.755 1.185 4.465-2.199 8.128-6.004 13.388-6.004 5.79 0 11.4.377 16.555 3.2 3.857 2.111 10.716 1.777 15.152 1.777 8.263 0 14.683-4.494 22.166-6.952 5.146-1.69 10.81-4.388 16.274-2.449 4.631 1.642 8.789 5.135 14.03 5.135 3.64 0 7.24.431 10.622-1.027 2.57-1.108 5.885-3.796 8.698-3.95 2.412-.132 4.654-.711 7.216-.711 2.761 0 4.999 2.319 7.575 2.883 2.635.577 6.157 2.723 8.859 3.674 3.335 1.174 5.924 1.264 9.54 1.264 6.46 0 12.657-.711 19.16-.711 5.395 0 11.024.711 16.194.711 4.129 0 7.226 4.267 10.823 4.267m-168.416 34.535c-1.718 2.063-5.71 3.844-9.081 4.525-4.55.921-6.983 1.96-11.35 3.535-5.547 1.999-8.513 3.497-13.894 5.905-4.347 1.947-6.782 3.05-11.055 5.154-17.354 8.543-26.365 14.788-42.384 25.63-13.274 8.983-19.233 16.189-32.985 24.421-8.146 4.876-14.654 7.409-21.545 11.257-10.689 5.97-21.174 9.721-24.403 11.343" stroke="#619482" stroke-width="4.519" stroke-linecap="round" stroke-linejoin="round"/><path d="M1386.03 230.902c-5.86 2.252-11.21 5.88-17.27 7.268-2.59 1.085-3.02.99-7.16 2.782-5.16 2.232-8.33 2.856-13.75 4.313-2.91.783-3.94 1.119-6.88 1.768-2.77.61-4.09 1.618-6.88 2.089-2.79.472-4.09 1.039-6.89 1.447-2.79.407-4.88.733-7.68 1.016-11.67 1.177-20.98 2.725-30.31.932-9.68-1.859-17.33-5.237-28.65-7.722-2.69-.591-4.25-.674-6.9-1.436-3.19-.919-5.13-1.289-7.93-3.087-5.09-3.27-7.73-6.625-9.2-12.532-1.29-5.154-1.71-9.157 1.25-13.548 1.76-2.608 3.5-3.57 6.21-5.07l.13-.068c2.58-1.426 4.3-1.629 7.1-2.525 6.33-2.022 11.56-1.572 16.53-3.987 4.68-2.275 10.06-4.192 14.48-6.853 4.49-2.697 8.53-6.174 12.96-9.295 4.57-3.219 11.03-2.317 16.4-2.482 5.58-.172 12.22.48 17.3-1.155 4.25-1.367 6.72-5.35 10.5-7.755 4.47-2.844 8.81.041 13.95-1.931 2.94-1.128 4.03-3.154 7.1-3.843 2.99-.671 4.78.348 7.85.381 2.98.032 4.66-.237 7.65-.198 3.52.045 5.51.093 9.01.528 3.76.467 5.81 1.137 9.53 1.867 2.83.556 4.46.705 7.26 1.424 5.75 1.475 10.92 2.044 14.17 5.495 3.2 3.391 4.23 9.684 1.21 13.29-3.38 4.027-6.88 6.44-11.29 9.098-1.87 1.123-3.81 1.254-5.31 3.275-.5.677-.33 6.305.22 6.95 2.83 3.362 9.52.595 12.55-1.228 1.46-.881 9.26-6.681 9.38-2.925.15 5.03-3.83 6.953-7.56 8.983-5.19 2.82-10.73 5.189-15.75 8.21a86.335 86.335 0 01-13.33 6.524z" fill="#F9F6EF" stroke="#619482" stroke-width="4.519" stroke-linecap="round" stroke-linejoin="round"/><path d="M1386.56 231.019c-5.86 2.252-11.2 5.88-17.26 7.268-2.59 1.085-3.03.99-7.17 2.782-5.15 2.232-5.3 2.427-10.72 3.884-2.91.783-4.11.882-7.06 1.532-2.76.609-5.05 1.489-7.84 1.961s-3.87 1.552-6.67 1.961c-2.79.406-4.65.894-7.45 1.176-11.67 1.178-18.52 3.333-27.85 1.54-9.67-1.859-14.57-3.368-25.88-5.854-2.69-.59-7.16-1.554-9.81-2.316-3.19-.92-6.22-.2-9.02-1.998-5.09-3.269-9.48-5.308-10.95-11.214-1.28-5.154-1.71-9.157 1.25-13.549 1.76-2.608 3.5-3.569 6.22-5.069l.12-.068c2.58-1.427 4.3-1.629 7.11-2.526 6.32-2.021 11.56-1.572 16.53-3.986 4.68-2.275 10.06-4.192 14.48-6.853 4.48-2.697 8.53-6.174 12.95-9.296 4.57-3.219 11.03-2.316 16.4-2.481 5.58-.172 12.23.479 17.31-1.155 4.24-1.368 6.71-5.351 10.5-7.756 4.47-2.843 8.81.041 13.94-1.93 2.94-1.128 4.03-3.154 7.1-3.843 3-.672 4.78.348 7.85.381 2.99.032 4.66-.237 7.65-.199 3.52.045 5.51.093 9.01.528 3.76.468 5.81 1.138 9.53 1.867 2.84.556 4.46.705 7.26 1.424 5.75 1.476 10.92 2.044 14.18 5.495.6 2.968 1.97 5.561-1.05 9.166-3.38 4.028-6.88 6.441-11.29 9.098-1.87 1.123-3.81 1.255-5.31 3.276-.5.676 1.92 10.429 2.47 11.073 2.84 3.363 9.52.595 12.55-1.228 1.46-.88 7.04-9.478 7.15-5.721.16 5.03-3.42 5.866-7.15 7.896-5.19 2.82-10.73 5.189-15.75 8.21a85.368 85.368 0 01-13.33 6.524z" fill="#B0C9AB"/><path d="M1398.01 198.119c-9.02 10.525-14.56 16.266-26.25 25.954l-2.85 7.708-64.63 8.847-55.11-8.211 35.6 1.953-15.2-17.059c9.27 7.155 15.16 15.536 23.74 18.32 8.59 2.784 13.99 2.618 13.99 2.618l5.31-3.211c-11.8-7.427-16.85-12.025-24.59-20.581 8.48 6.946 13.77 10.808 27.58 17.44l14.67-.451c-10.37-9.509-13.82-15.132-18.55-25.338 6.88 10.054 11.84 15.596 24.72 25.148l12.4 1.143c-7.26-11.794-12.35-18.689-22.6-31.31 10.78 11.046 16.54 17.959 26.46 31.191l2.32-.071s-3.54-5.727-4.94-9.755c-3.13-9.002-.75-24.362-.75-24.362s-1.6 15.915 3.07 24.291c1.97 3.545 6.43 8.184 6.43 8.184-1.01-16.038-.52-25.064 1.05-41.182-.15 16.071.08 25.074 2.04 41.087l4.51-3.949c.78-15.883 3.08-24.776 8.02-40.634-2.8 13.493-4.61 21.069-3.57 34.401 11.25-7.351 17.08-12.426 27.13-22.171z" fill="#F9F6EF"/><path d="M1406.47 215.251c2.72-2.046 5.71-3.731 8.52-5.633l7.02-4.314 1.17 4.314-18.43 12.55-54.52 22.356-50.98 8.628-14.84-2.632c7.03-2.64 14.52-5.209 20.98-9.319 4.53-2.883 8.77-6.968 14.07-8.59 4.19-1.281 8.89-.329 13.13-.066 4.69.291 9.1 1.173 13.85 1.027 4.74-.146 9.34-.587 13.95-1.783 2.54-.66 4.19-3.295 6.4-4.573 6.04-3.501 13.72-.639 20.27-2.952 2.52-.891 4.48-3.166 6.86-4.408 2.04-1.067 3.89-1.473 6.18-1.544 2.24-.068 4.66-1.764 6.37-3.061z" fill="#D3DFD0"/><path d="M1385.98 230.901c-5.86 2.252-11.21 5.88-17.27 7.268-2.59 1.085-3.02.989-7.16 2.782-5.16 2.231-8.33 2.856-13.75 4.313-2.91.783-3.94 1.118-6.88 1.768-2.77.609-4.09 1.617-6.88 2.089s-4.09 1.038-6.89 1.447c-2.79.406-4.88.732-7.68 1.015-11.67 1.177-20.98 2.725-30.31.933-9.68-1.859-17.33-5.237-28.65-7.723-2.69-.59-4.25-.673-6.9-1.435-3.19-.919-5.13-1.289-7.93-3.088-5.09-3.269-7.73-6.625-9.2-12.531-1.29-5.155-1.71-9.157 1.25-13.549 1.76-2.608 3.5-3.569 6.21-5.069l.13-.068c2.58-1.427 4.3-1.629 7.1-2.526 6.33-2.022 11.56-1.572 16.53-3.986 4.68-2.275 10.06-4.192 14.48-6.853 4.49-2.697 8.53-6.174 12.96-9.296 4.57-3.219 11.03-2.316 16.4-2.481 5.58-.172 12.22.479 17.3-1.155 4.25-1.368 6.72-5.351 10.5-7.756 4.47-2.843 8.81.041 13.95-1.93 2.94-1.128 4.03-3.154 7.1-3.843 2.99-.672 4.78.348 7.85.381 2.98.032 4.66-.237 7.65-.199 3.52.045 5.51.093 9.01.528 3.76.467 5.81 1.138 9.53 1.867 2.83.556 4.46.705 7.26 1.424 5.75 1.476 10.92 2.044 14.17 5.495 3.2 3.392 4.23 9.685 1.21 13.29-3.38 4.028-6.88 6.441-11.29 9.098-1.87 1.123-3.81 1.255-5.31 3.276-.5.676-.33 6.305.21 6.949 2.84 3.363 9.53.595 12.56-1.228 1.46-.88 9.26-6.681 9.38-2.925.15 5.03-3.83 6.954-7.56 8.983-5.19 2.821-10.73 5.189-15.75 8.21a86.25 86.25 0 01-13.33 6.525z" stroke="#619482" stroke-width="4.519" stroke-linecap="round" stroke-linejoin="round"/><path d="M1411.42 211.187c-2.75 1.568-3.18 1.399-5.9 3.445-1.72 1.297-4.14 2.992-6.37 3.061-2.29.07-4.14.477-6.19 1.543-2.38 1.243-4.33 3.517-6.85 4.409-6.55 2.313-14.23-.549-20.27 2.951-2.21 1.279-3.86 3.913-6.4 4.574-4.61 1.195-9.22 1.636-13.96 1.782-4.74.146-9.15-.736-13.84-1.026-4.24-.263-8.94-1.215-13.13.066-5.3 1.622-9.54 5.706-14.07 8.589-6.46 4.111-13.95 6.68-20.99 9.32m83.68-9.637c5.02 4.745 10.21 7.617 16.01 13.323 6.02 5.935 8.84 9.821 14.05 16.479 12.87 16.421 18.72 26.76 28.47 45.203 4.63 8.741 7.14 13.701 11.03 22.792 3.28 7.671 5.35 13.292 7.62 19.956 1.24 3.651 3.31 6.932 4.62 10.499 1.67 4.58 2.71 10.016 4.99 14.261" stroke="#619482" stroke-width="4.519" stroke-linecap="round" stroke-linejoin="round"/><path d="M1394.42 32.867c-7.74 5.828-13.34 10.35-16.47 18.075 0-7.995 0-15.816-.85-24.853-.52-5.417-1.75-8.245-4.11-13.033-.92-1.887-2.44-2.65-3.73-4.316-1.17-1.526-1.91-2.374-3.49-3.49-4.75-3.374-9.07-1.894-14.87-1.285-4.73.496-7.31 1.447-11.76 3.122-4.81 1.816-7.2 3.555-11.75 5.97-6.07 3.223-11.12 4.632-15.34 8.632-3.51 3.325-8.2 4.585-11.98 7.53-3.68 2.86-6.07 7.765-9.92 10.33-7.96 5.31-9.84 12.472-16.99 21.235-4.37 5.364-7.31 5.493-12.05 10.544-5.09 5.428-9.58 9.864-12.8 16.57-2.78 5.773-4.58 10.952-5.27 17.321-1 9.166-.68 15.659 0 24.854.53 7.196 1.42 11.013 3.76 18.075 2.33 7.018 4.66 12.862 8.2 17.978 1.27 1.835 2.45 4.239 3.54 6.199 1.41 2.548 3.7 4.701 5.51 7.025 1.89 2.432 1.26 2.892 4.77 2.892 1.33 0 .9-1.871 4.71-2.06 8.31-.414 13.11-.828 21.03-3.352 6.69-2.131 10.01-4.454 16.3-7.576 7.8-3.876 12.38-5.764 19.65-10.561 10.4-6.861 16.49-13.479 24.15-20.846 5.83-5.6 11.21-11.746 16.72-17.539 8.29-8.732 13.24-16.918 21.12-28.193 7.04-10.072 10.6-15.98 17.26-26.31 3.76-5.828 6.61-8.69 9.55-14.968 2.96-6.305 3.17-11.695 5.43-18.473 2.05-6.147 4.61-8.994.56-11.043-5.21-2.633-10.77.083-16.31 1.929-6.47 2.156-8.87 5.32-14.57 9.617z" fill="#B0C9AB"/><path d="M1394.42 33.121c-7.74 5.828-13.34 10.35-16.47 18.075 0-7.995 0-15.816-.85-24.853-.52-5.417-1.75-8.245-4.11-13.032-.92-1.888-1.37-3.018-2.66-4.684-1.18-1.526-1.92-2.374-3.49-3.49-4.75-3.374-9.08-1.894-14.87-1.285-4.73.496-7.31 1.447-11.76 3.122-4.82 1.816-7.21 3.554-11.75 5.97-6.07 3.223-11.12 4.632-15.34 8.631-3.51 3.326-8.2 4.586-11.98 7.53-3.68 2.862-6.07 7.766-9.92 10.332-7.97 5.31-9.4 13.54-16.55 22.303-4.38 5.364-7.32 5.493-12.05 10.544-5.09 5.428-9.58 9.864-12.8 16.57-2.78 5.773-4.58 10.952-5.28 17.321-1 9.166-.67 15.659 0 24.854.53 7.196 1.43 11.013 3.77 18.075 2.33 7.018 4.65 12.862 8.2 17.978 1.27 1.835 2.44 4.239 3.53 6.199 1.42 2.549 3.7 4.701 5.51 7.025 1.89 2.432 1.26 2.893 4.78 2.893 3.26 0 5.96.189 9.78 0 8.3-.414 13.1-.828 21.03-3.352 6.69-2.131 10.01-4.454 16.3-7.576 7.8-3.876 12.38-5.764 19.65-10.561 10.4-6.861 16.49-13.479 24.15-20.846 5.83-5.6 11.21-11.746 16.71-17.54 8.3-8.731 13.24-16.917 21.12-28.192 7.05-10.072 10.61-15.98 17.27-26.31 3.76-5.828 6.6-8.69 9.55-14.968 2.96-6.304 3.17-11.695 5.43-18.474 2.05-6.146-1.97-11.756-6.02-13.805-5.21-2.633-10.77.083-16.31 1.929-6.47 2.156-8.87 5.32-14.57 9.617zm-8.24 82.098c3.3 3.236 7.19 5.979 9.87 9.789 2.09 2.969 4.46 5.714 6.46 8.807 2.39 3.707 5.38 6.869 7.68 10.618 2.69 4.383 4.26 9.347 7.19 13.605 2.69 3.893 4.9 8.373 6.8 12.699 1.99 4.505 4.84 8.645 6.75 13.239 1.44 3.452 3.42 6.624 4.68 10.136.55 1.523 1.3 2.941 1.91 4.433.48 1.178.71 2.715 1.39 3.738" stroke="#619482" stroke-width="4.519" stroke-linecap="round" stroke-linejoin="round"/><path d="M1355.25 93.372c-3.71-28.693-1.64-43.975 8.29-70.042-11.23 22.037-14.42 36.442-13.56 66.276-11.79-2.736-32.42-23.745-51.21-46.694 14.67 23.106 25 35.376 52.72 54.226-26.19-3.192-42.24-12.82-71.55-33.892 18.59 18.974 31.28 28.194 66.28 36.904-27.43 3.05-47.16-2.441-85.86-18.075 31.24 19.305 50.24 25.335 88.12 23.347l-4.52 3.013c-35.3 3.698-55.09 3.087-90.38-.753 26.04 6.416 43.64 8.452 89.62 4.518-8.03 7.066-27.75 11.741-85.1 21.088 29.57-2.179 46.09-4.287 75.31-12.05l-15.06 13.556c-23.31 3.441-33.62 9.128-51.21 20.335 18.66-9.513 29.29-14.363 50.46-16.569-13.57 16.72-23.74 23.8-42.18 36.151 19.72-9.529 30.65-15.128 45.94-33.891 1.1 9.092-.48 14.21-3.76 23.347 5.74-9.38 7.93-15.263 8.28-27.866l12.05-13.557c5.19 9.133 5.03 15.97 5.27 27.866 1.09-13.234 1.62-20.655 0-33.891l3.77-3.012c9.28 4.671 12.6 9.068 18.08 17.322-4.15-9.081-6.91-13.963-15.07-21.088l4.52-4.519c11.77 4.832 18.36 5.526 30.13 4.519-10.06.314-16.24-1.602-28.62-10.544 15.05.749 23.47.731 38.41-3.766-12.65 2.282-19.74 2.073-32.39 0 0 0 13.19-6.467 18.83-13.556 4.67-5.867 4.35-10.937 8.29-17.322 6.87-11.17 22.59-24.854 22.59-24.854s-18.02 10.588-25.61 21.088c-3.54 4.909-3.92 8.69-7.53 13.556-6.97 9.412-23.35 18.829-23.35 18.829z" fill="#F9F6EF"/></svg>