<svg width="375" height="1022" fill="none" xmlns="http://www.w3.org/2000/svg"><path d="M274.89 48.522H99.468a3.11 3.11 0 00-3.11 3.11V214.99a3.11 3.11 0 001.92 2.874l2.092.866c.377.156.782.236 1.19.236h173.33a3.11 3.11 0 003.11-3.11V51.632a3.11 3.11 0 00-3.11-3.11z" fill="#B7C2B4"/><path d="M96.357 51.632a3.11 3.11 0 013.11-3.11H274.89a3.11 3.11 0 013.11 3.11v16.796H96.357V51.632z" fill="#C8BFB6"/><path d="M99.468 49.522H274.89a2.11 2.11 0 012.11 2.11v164.225a2.11 2.11 0 01-2.11 2.11H98.255a.897.897 0 01-.898-.897V51.632a2.11 2.11 0 012.11-2.11zm-3.111 19.15h180.497" stroke="#4A5759" stroke-width="2"/><path fill="#F9F6EF" d="M106.31 77.136h161.737v131.256H106.31z"/><path d="M107.213 78.12c-.605 10.283-.333 20.922.492 31.185.678 8.438.211 16.829.164 25.283-.083 14.936-1.312 29.82-1.312 44.756 0 9.983-.656 20.107-.656 29.928m.266-132.124c8.825 0 17.602-.626 26.433-.626 10.958 0 21.83.272 32.73-.94 9.285-1.03 19.267.206 28.625.314 7.183.082 14.354.626 21.564.626h52.839M106.036 209.847c18.847 0 37.719.517 56.53.517 14.151 0 28.773.042 42.899-1.004 19.49-1.444 78.168-.546 58.625-.546m3.616-131.712c0 32.113.045 64.312.517 96.359.048 3.287 2.962 34.837-.517 34.837" stroke="#4A5759" stroke-width="1.866" stroke-linecap="round" stroke-linejoin="round"/><path fill="#BAC3C5" d="M191.534 146.186h69.671v57.23h-69.671zm0-64.073h69.671v57.23h-69.671zm-76.514.622h69.671v57.23H115.02zm0 64.073h69.671v57.23H115.02z"/><path d="M115.953 83.046c0 10.307.019 20.351.858 30.608.397 4.854-.13 9.205 0 14.307-.43 3.871 0 7.926 0 11.819m-.858-56.771c8.312-1.168 17.318-.427 25.722-.427 6.234 0 12.474.427 18.655.427h6.287c2.702 0 5.07-.675 7.717-.83 2.242-.133 4.534-.024 6.781-.024h.936m-64.071 57.632c4.486 0 8.974.039 13.459 0 3.963-.034 7.832-.825 11.796-.853 7.412-.054 14.803.427 22.188.427h18.442m-1.347-57.207c.274 16.505 1.871 32.906 1.871 49.427v7.888m6.523-56.034c0 10.308.334 19.962 1.183 30.219.401 4.854-.132 9.205 0 14.307-.435 3.871 0 7.926 0 11.819m-.71-56.771c8.412-1.168 17.367-.427 25.871-.427 6.309 0 12.623.427 18.878.427h6.363c2.734 0 5.129-.675 7.808-.83 2.269-.133 4.589-.024 6.863-.024h.946m-64.836 57.632c4.539 0 9.08.039 13.619 0 4.011-.034 7.925-.825 11.937-.853 7.5-.054 14.98.427 22.453.427h18.662m-1.362-57.207c.277 16.505 1.893 32.906 1.893 49.427v7.888m-144.838 8.039c0 10.307.33 19.962 1.169 30.218.397 4.855-.13 9.205 0 14.308-.43 3.871 0 7.926 0 11.819m-.702-56.772c8.313-1.167 17.162-.427 25.566-.427 6.234 0 12.474.427 18.655.427h6.287c2.702 0 5.07-.674 7.717-.83 2.242-.132 4.534-.024 6.781-.024h.936M117.98 203.86c4.485 0 8.973.039 13.458 0 3.964-.034 7.832-.825 11.796-.854 7.412-.053 14.804.427 22.188.427h18.442m-1.346-57.206c.274 16.504 1.871 32.905 1.871 49.427v7.888m6.523-56.034c0 10.307.337 19.962 1.193 30.218.405 4.855-.132 9.206 0 14.308-.438 3.871 0 7.926 0 11.819m-.716-56.772c8.487-1.167 17.521-.427 26.102-.427 6.364 0 12.734.427 19.045.427h6.42c2.758 0 5.175-.674 7.878-.83 2.289-.132 4.629-.024 6.923-.024h.955m-65.413 57.633c4.579 0 9.161.039 13.74 0 4.047-.034 7.996-.825 12.043-.854 7.568-.053 15.114.427 22.653.427h18.829m-1.374-57.206c.28 16.504 1.91 32.905 1.91 49.427v7.888" stroke="#4A5759" stroke-width="1.866" stroke-linecap="round" stroke-linejoin="round"/><path d="M167.721 115.135c-2.071 1.841-4.829 3.937-6.856 5.816-1.531 1.418-2.801 2.686-2.801 4.918 0 3.358 4.316-1.355 4.811-2.208 1.16-1.997 2.377-4.054 3.41-6.121.362-.723.707-2.04 1.436-2.405zm-26.886 58.733c-3.072 4.682-8.773 8.165-9.587 14.07-.174 1.26.467 1.744 1.759 1.687 1.93-.085 3.225-3.111 3.949-4.559 1.313-2.626 1.824-5.64 2.818-8.4.429-1.193.187-1.924 1.061-2.798zm-16.336-66.308c.651-4.38 5.537-7.42 8.005-10.841-.312 1.56-1.086 3.093-1.472 4.703-.666 2.782-1.073 6.004-3.374 8.005-2.277 1.979-3.518.55-3.159-1.867zm43.276 58.767c1.413-3.444 5.588-7.179 8.347-9.513-2.497 3.328-1.731 9.319-5.188 11.739-2.107 1.475-4.162.218-3.159-2.226zm48.086-68.639c-2.952 3.126-6.795 6.896-8.346 10.967-1.189 3.12 2.221 5.118 4.397 2.603 2.038-2.354 1.582-5.785 2.513-8.58.525-1.574 1.24-3.109 1.759-4.667m29.078 23.981c1.795-3.326 5.434-6.475 8.078-9.119-.365 1.822-1.449 3.609-1.939 5.493-.66 2.534-1.731 5.163-4.128 6.569-2.348 1.378-2.856-1.376-2.011-2.943zm-21.97 29.652c-2.493 2.493-5.104 5.044-6.892 8.113-.984 1.69-1.166 4.904 1.705 2.962 2.779-1.88 5.187-7.031 5.187-10.429m3.734 38.592c1.037-4.294 7.474-8.152 9.836-11.775-1.038 2.077-2.386 3.633-2.836 6.067-.45 2.439-1.517 5.681-3.302 7.467-2.033 2.033-4.367 1.013-3.698-1.759z" stroke="#EFEDEA" stroke-width="1.866" stroke-linecap="round" stroke-linejoin="round"/><path d="M78.115 81.206c-4.128-1.123-1.268-3.162-5.107-4.863-.275 1.613-7.717 3.225-9.19 4.32-3.019 2.246-8.925 12.492-9.636 7.873-.321-2.087-.864-8.608-2.427-9.886-1.728-1.412-9.146 5.13-10.252 7.704-4.373 10.176-2.523 10.487-3.011 23.379.928 2.211.68 10.583 4.963 8.915 1.166-.454 3.096-4.475 4.529-5.586 2.699-2.094 2.953-4.496 6.849-5.095 3.157-.486 6.15-1.207 9.068-2.344 5.562-2.166 4.346-3.09 9.168-6.245 1.215-.794 3.307-8.9 3.349-10 .8-.152 5.057-7.259 1.697-8.172z" fill="#B1C9AB"/><path d="M114.252 144.887c4.298-5.885 2.177-7.465-1.453-12.632-5.101 3.208-4.578-7.828-14.72-9.762-6.424-1.225-15.241 2.488-17.465 6.284-2.494.407-.319 8.032-3.012 7.815-1.849-.149-3.616 2.309-5.447 2.184-2.32-.158-8.978-3.798-10.157-2.184 9.294 6.787 19.388 16.614 23.95 15.138 1.907-.617 7.61.53 9.953.689 1.615.11 17.547-6.431 18.351-7.532z" fill="#93BB94"/><path d="M156.864 49.09c-2.489-2.907-7.33-5.79-10.727-7.018-1.416-.512-2.895-.786-4.386-.971-1.526-.19-2.969-.714-4.524-.661-2.639.09-5.569-.102-8.032 1.065-1.162.55-1.864 1.557-2.764 2.416-.85.813-1.843 1.438-2.694 2.262-1.828 1.77-3.255 4.959-3.733 7.464-.548 2.873-.26 5.594-.172 8.48.042 1.394.355 2.919.643 4.287.359 1.707 1.257 3.067 1.829 4.713 1.32 3.799 4.632 6.556 6.541 10.064 1.638 3.008 3.465 5.839 4.334 9.186.561 2.156.721 4.427.573 6.615-.214 3.17-.352 6.133-1.298 9.096" stroke="#4A5759" stroke-width="1.866" stroke-linecap="round" stroke-linejoin="round"/><path d="M125.221 74.44c1.445-6.696-.851-17.312-16.374-10.162-3.117-.133 3.042-7.857-7.348-10.523-3.023-2.208-13.959 2.351-13.632 4.444l2.167 13.908c.42 2.696.41 9.064-.412 11.639-1.123 3.519-2.83 6.598-3.976 10.191-1.762 5.517 9.914.136 11.3-1.761 1.115-1.527 5.386-1.922 6.683-2.822 1.345-.934 5.334-.782 6.865-1.49 2.269-1.048 5.641-1.038 7.96-1.934 4.257-1.645 5.393-5.127 6.767-11.49z" fill="#B1C9AB"/><path d="M73.433 76.318c-4.354.052-8.792 4.315-11.416 7.315-1.173 1.587-3.476 2.746-5.401 1.975-1.331-.533-1.287-4.392-1.231-5.858.224-5.93-7.93-2.473-10.164-.143-3.222 3.36-9.962 7.281-10.158 12.448-.08 2.103.728 4.332 1.325 6.212.766 2.41.02 5.073.683 7.559.796 2.987 2.165 5.837 2.486 8.918.122 1.16 1.122 7.716 2.943 4.713 1.59-2.622 3.686-5.284 5.957-7.389 1.509-1.399 3.692-2.922 5.818-3.035 1.64-.086 2.767.092 4.279-.725 1.127-.61 2.067-1.523 3.3-1.92 4.208-1.352 6.617-2.768 10.053-5.43 2.038-1.58 2.786-4.43 3.991-6.629 1.094-1.995 1.103-4.116 2.41-6.096.766-1.16.827-3.131.411-4.451-.688-2.186-2.43-7.499-5.286-7.464zm40.052-13.505c-3.186.561-5.926 3.04-4.56-2.598.046-.853.516-2.02-.422-2.705l-2.149-1.57c-1.497-1.093-3.465-1.172-5.118-1.973-4.089-1.98-12.208-1.284-13.137 4.222-.38 2.248.28 4.715.132 7.021-.212 3.32 1.366 6.75 1.548 10.052.138 2.51.953 5.963-.234 8.252-.637 1.23-1.003 2.706-1.643 4.027-.684 1.414-1.904 3.337-2.164 4.878-.486 2.877.11 4.485 3.052 4.027 2.074-.324 6.275-1.767 7.581-3.452 1.449-1.87 3.267-1.674 5.334-2.563 2.8-1.205 4.868-1.786 8.017-1.769 5.151.027 12.032-2.24 13.689-7.713 1.697-5.6 5.659-16.104-2.44-18.994-2.903-1.036-4.674.364-7.486.858z" stroke="#4A5759" stroke-width="1.866" stroke-linecap="round" stroke-linejoin="round"/><path d="M65.11 79.882c3.407-7.216 5.815-13.379 12.386-15.12 1.51-.4 9.337.195 9.337.195" stroke="#4A5759" stroke-width="1.866" stroke-linecap="round" stroke-linejoin="round"/><path d="M108.083 133.429c-2.351.098-4.726-.524-7.032-.024-1.961.425-4.022.867-5.92 1.53-1.495.523-3.305 1.084-4.608 1.992-1.388.969-2.555 2.182-3.968 3.12-1.788 1.187-3.296 2.935-4.973 4.241-.457.356-1.818 2.009-.857.694" stroke="#579C8F" stroke-width="1.866" stroke-linecap="round" stroke-linejoin="round"/><path d="M97.477 152.722c-4.099 1.178-7.609-.337-11.744-.437-3.562-.086-5.834-1.433-8.873-3.131-4.614-2.577-9.006-5.883-13.28-9.004-1.732-1.266-3.802-1.986-5.743-2.876-.901-.413-2.428-.315-3.23-.901-.59-.431 1.657-1.276 1.705-1.289 2.22-.603 4.107-.302 6.354.093 6.271 1.106 11.936 5.4 16.574 9.554 1.571 1.407 2.824 2.982 4.576 4.262 2.266 1.655 4.408 3.597 7.287 3.92m21.12-19.1c-1.268-.558-4.485-.212-4.883-2.078l-.203-1.304c.237-.325-.013-1.422-.194-1.793-1.074-2.207-4.026-3.915-6.063-5.053-3.265-1.824-8.68-1.584-12.155-.373-1.963.684-3.913 1.059-5.668 2.248-1.14.772-1.955 2.127-2.723 3.253-.572.838-.988 1.945-1.322 2.904-.325.93-.43 1.918-.72 2.79-.535 1.619-1.427 2.501-2.938 3.026-.916.318-2.05.567-2.834 1.123" stroke="#4A5759" stroke-width="1.866" stroke-linecap="round" stroke-linejoin="round"/><path d="M110.621 133.425c3.07 1.576 6.767 1.872 6.475 6.414-.08 1.255-1.723 3.167-2.463 4.18-1.082 1.481-2.51 3.387-4.382 3.896-2.091.568-4.059 1.486-6.108 2.193-1.233.425-2.331 1.34-3.587 1.654-1.889.473-4.12.8-5.906 1.456m38.488-49.586c-.102 4.278-1.495 9.2-3.139 13.12-1.944 4.636-5.308 9.302-9.787 11.844-1.606.912-3.335 1.641-4.961 2.526-.989.538-2.073 1.352-3.141 1.706-1.067.353-2.029.367-3.086.189" stroke="#4A5759" stroke-width="1.866" stroke-linecap="round" stroke-linejoin="round"/><path d="M376.964 200.077c5.957-1.295 9.825-3.526 12.83-8.895l-1.236-57.783c-.298-2.082-1.421-5.609-3.006-7.065-1.668-1.531-3.291-4.23-5.608-4.886-1.801-.51-3.28-2.435-5.046-3.11-.734-.279-1.73-.44-2.348-.804-1.225-.722-2.135-.542-.464.441 1.616.952 2.121 3.726 3.737 4.677 1.676.988 2.204 3.607 2.45 5.322l.41 2.855c.164 1.143-.126 1.979-.304 3.349-.21 1.623-1.629 2.964-2.796 4.493-.512.67-1.459 1.014-1.957 1.402-.686.534-2.424.61-3.294.473-2.228-.351-3.488-1.404-4.758-3.236-.48-.693-.453-1.713-.75-2.499-.43-1.137-1.187-2.414-1.424-3.63-.208-1.069-.691-2.062-1.07-3.066-.303-.802-.577-2.064-1.061-2.761-1.19-1.717-3.033-2.701-5.085-3.282-.629-.178-1.476-.267-2.427-.394-1.117-.149-1.745-.238-2.87-.287-1.108-.048-1.734-.052-2.84.033-1.123.086-1.903.273-2.855.409-1.028.148.791.889 1.207 1.054.987.39 1.538 1.652 2.339 2.288.642.51 1.375 1.368 1.89 2.012.629.787 1.442 1.067 2.06 2.004.578.878.821 1.5.999 2.499.252 1.412.509 2.715-.113 3.678-.871 1.347-2.96 1.949-4.557 1.299-1.049-.426-2.036-1.573-2.956-2.591-.876-.969-1.285-1.791-1.6-2.495-1.654-3.695-4.124-6.291-8.346-5.685-2.104.301-3.608 2.357-5.735 2.662-1.794.258-3.843.245-5.468.478l-3.005.431c-1.027.147.062 1.915.194 2.426.478 1.846 2.025 2.783 2.837 4.806 1.05 2.619.976 4.302 1.325 7.102.338 2.714.767 5.017.457 6.988-.314 1.999-.086 4.149.204 6.172.361 2.513 2.285 1.252 3.897 1.483 4.794.689 6.18-4.886 10.457-6.668 1.948-.812 4.635-2.5 5.957-.855 1.135 1.412-.457 2.919-1.342 4.5-1.235 2.206-3.802 3.921-5.725 5.128-.717.451-1.395 1.148-2.334 1.747-.873.557-1.538.776-2.426 1.307-.744.443-1.245.49-1.991.93-.974.574-1.753.67-2.444.979-.73.327-1.292.56-2.111.678-1.406.202-1.953-.785-1.763.541.484 3.372 3.884 8.289 6.534 10.275 1.414 1.059 2.824 2.032 4.5 2.506 1.595.451 3.745-1.252 4.912-2.102 1.433-1.043 2.407-3.209 3.059-4.8.686-1.673 2.098-3.597 3.193-5.058.768-1.026 1.157-2.07 2.147-3.205l.02-.022c.775-.888 1.232-1.411 2.219-2.071 1.777-1.188 3.356-2.007 5.237-1.595.804.176 1.68.735 2.165 1.412.536.748.551 1.845.58 2.716.093 2.744-.569 3.529-1.746 5.841a24.53 24.53 0 01-4.265 5.962c-1.469 1.523-2.765 3.759-4.498 5.108-1.369 1.067-2.863 3-4.379 3.678-.498.223-2.341.639-2.616 1.006-.064.086 1.081.358 1.146.381.575.206 1.187.312 1.75.567 1.762.795 4.086-.143 5.939-.409 2.116-.304 4.866-.66 6.615-1.989 2.176-1.652 8.229-5.627 11.44-2.755 1.8 1.609 2.123 4.006.878 6.119-1.044 1.774-2.362 3.324-4.7 4.766-2.141 1.322-2.869 1.981-5.169 3.002-1.151.512-3.417.251-4.441.637-1.256.475.28.667 1.16 1.078 3.219 1.502 6.286 2.135 10.476 2.483 3.001.25 4.766.454 7.709-.185z" fill="#B0C9AB"/><path d="M387.145 191.664c-3.006 5.368-6.874 7.599-12.831 8.894-2.943.639-4.708.435-7.709.185-4.19-.348-7.257-.981-10.476-2.483-.88-.411-2.416-.603-1.16-1.078 1.024-.386 3.29-.125 4.442-.637 2.299-1.021 3.027-1.68 5.168-3.001 2.338-1.443 3.656-2.993 4.7-4.767 1.245-2.112.922-4.51-.877-6.119-3.212-2.872-9.265 1.103-11.441 2.755-1.749 1.329-4.499 1.685-6.615 1.989-1.853.266-4.177 1.204-5.938.409-.564-.255-1.176-.36-1.751-.567-.065-.023-1.21-.295-1.145-.381.275-.367 2.117-.782 2.615-1.006 1.516-.678 3.01-2.611 4.379-3.677 1.733-1.35 3.029-3.586 4.498-5.109a24.53 24.53 0 004.265-5.962c1.177-2.312 1.839-3.097 1.746-5.841-.029-.871-.044-1.968-.58-2.716-.485-.677-1.361-1.236-2.165-1.412-1.881-.412-3.46.407-5.237 1.595-.995.665-1.452 1.192-2.239 2.093-.99 1.135-1.378 2.179-2.147 3.205-1.094 1.461-2.507 3.385-3.193 5.058-.652 1.591-1.626 3.757-3.059 4.8-1.167.85-3.317 2.553-4.912 2.102-1.676-.474-3.085-1.447-4.5-2.506-2.65-1.986-6.05-6.903-6.534-10.275-.19-1.326.357-.339 1.763-.541.819-.118 1.381-.351 2.111-.678.691-.309 1.47-.405 2.444-.979.746-.44 1.247-.486 1.991-.93.889-.531 1.554-.75 2.426-1.307.939-.599 1.617-1.296 2.334-1.747 1.923-1.207 4.49-2.922 5.725-5.128.885-1.581 2.478-3.088 1.342-4.5-1.322-1.645-4.009.043-5.957.855-4.277 1.782-5.663 7.358-10.457 6.669-1.612-.232-3.536 1.029-3.897-1.484-.29-2.023-.518-4.173-.204-6.172.31-1.97-.119-4.274-.457-6.988-.349-2.8-.275-4.483-1.325-7.102-.811-2.023-2.359-2.96-2.836-4.806-.132-.511-1.222-2.278-.195-2.426l3.005-.431c1.625-.233 3.675-.22 5.468-.478 2.127-.305 3.631-2.361 5.735-2.662 4.222-.606 6.692 1.99 8.346 5.685.315.704.724 1.526 1.6 2.495.92 1.018 1.907 2.165 2.956 2.591 1.597.65 3.686.048 4.557-1.299.622-.963.365-2.266.113-3.678-.178-.999-.421-1.621-.999-2.498-.618-.938-1.431-1.218-2.06-2.005-.514-.644-1.248-1.502-1.89-2.012-.8-.636-1.352-1.898-2.338-2.288-.417-.165-2.236-.906-1.208-1.054.952-.136 1.732-.323 2.855-.409 1.106-.085 1.732-.081 2.84-.033 1.125.049 1.753.138 2.87.287.951.127 1.798.216 2.427.394 2.052.581 3.895 1.565 5.085 3.282.484.697.758 1.959 1.061 2.761.379 1.004.862 1.997 1.07 3.066.237 1.216.994 2.493 1.424 3.63.297.786.27 1.806.75 2.499 1.27 1.832 2.53 2.885 4.758 3.236.87.137 2.608.061 3.294-.473.498-.388 1.445-.732 1.957-1.402 1.167-1.529 2.586-2.87 2.796-4.493.178-1.37.468-2.206.304-3.349l-.409-2.855c-.247-1.715-.775-4.334-2.451-5.321-1.616-.952-2.12-3.725-3.737-4.678-1.671-.983-.761-1.163.464-.441.618.364 1.614.525 2.348.805 1.766.674 3.245 2.599 5.046 3.109 2.317.656 3.94 3.355 5.608 4.886 1.586 1.456 2.708 4.983 3.007 7.065" stroke="#619482" stroke-width="2.5" stroke-linecap="round" stroke-linejoin="round"/><path d="M378.758 162.335c3.085 3.825 7.935 11.783 7.935 11.783l.062 1.93s-2.692-4.375-5.573-8.461c-8.407.451-12.966 2.466-20.806 9.23 0 0 3.703-5.013 7.563-7.33 5.155-3.095 11.697-4.034 11.697-4.034a49.874 49.874 0 00-1.843-2.333c-3.971-4.69-5.285-6.836-10.316-10.365-1.845-1.294-5.338-2.68-7.328-3.041 0 0-1.404.162-2.652 1.027-3.134 2.172-3.213 2.126-6.027 4.526-1.991 1.698-4.481 4.966-6.538 6.968a70.774 70.774 0 01-6.328 5.43s2.873-2.811 6.177-6.486c2.113-2.35 4.352-5.411 6.296-7.148 3.083-2.755 6.996-5.279 6.996-5.279-4.833-1.14-9.767-1.536-15.02-4.122-.838-.413-1.785-.889-2.786-1.407-4.806 1.352-6.019 2.838-8.457 5.604 1.086-2.56 3.814-4.938 6.36-6.706-2.424-1.299-4.929-2.729-6.818-3.996-3.551-2.382-5.007-3.374-4.887-4.037.094-.516 4.26 3.223 11.892 7.216-2.187-3.879-3.126-5.995-4.718-9.753 2.007 2.778 3.654 8.154 8.164 11.452.297.217.568.261.857.391 5.892 2.645 11.176 3.003 16.342 4.33.572-2.019-.756-9.974-2.722-15.975 2.316 4.233 3.306 7.656 4.293 16.412 2.698.817 5.378 1.99 8.109 3.99 3.779 2.767 5.768 4.91 8.355 8.062 0 0-1.077-5.069.086-9.272 1.163-4.204 3.4-10.825 3.4-10.825l1.357.451s-2.152 5.326-3.31 9.951c-1.818 7.261.188 11.817.188 11.817z" fill="#619482"/><path d="M42.335 371.16c1.983-3.18 2.796-4.189 5.994-6.481 1.754-.556 3.553-1.625 5.214-2.373 1.496-.673 3.876-.537 5.507-.623 1.947-.103 7.328 2.099 7.328 2.099s3.05 2.179 3.05 3.148c0 .969 1.765 2.482 2.565 4.23 1.232 2.694 1.85 6.042 1.85 7.314 0 4.865.663 5.318.663 10.285 0 1.355-.933 3.357-1.332 4.685-.126.419-.887-1.297-1.181-1.313-1.99-.111-3.75.669-5.615.762-6.78.34-15.153-.762-22.06-.762-2.161 0-1.983-.599-1.983-2.112 0-2.737-.107-3.068-.94-5.642l-.008-.025c-1.133-3.501.544-9.73.948-13.192z" fill="#E6E4BA"/><path d="M88.176 362.005c.044-2.487-.983-8.233 2.064-8.723-.07-.252.128-.471.196-.024.012.077.02.173.022.291.149.084.383.126.74.066.56-.093 2.403-.59 2.993 0 1.022 1.023 1.026 2.854 2.303 3.876.861.689 2.35 6.701 1.466 6.701.15 2.682.466 4.953.466 7.704 0 2.454.781 3.846.781 6.276 0 1.49-.19 3.056.296 4.459.508 1.467 1.656 1.057 3.043 1.057 2.396 0 1.699-7.016 1.906-8.517.131-.953 1.248-5.452 2.722-5.534 1.047-1.047 2.769 1.118 2.769 2.259.804 1.366 1.057 1.575 1.057 3.275 0 1.698-1.057 3.448-1.057 5.146 0 1.241-.958 2.168-1.226 3.371-.258 1.162-1.052 1.843-1.543 2.702-.939 1.643-4.897 2.49-3.56 5.498-.419.365-4.363.327-6.073.156-2.796-.28-2.907 0-5.654 0-1.69 0-2.972-.156-2.972-.156-.532-2.928-.74-6.229-.74-9.257 0-3.973-.38-7.952-.38-11.876 0-2.935.329-5.832.38-8.75z" fill="#C6D0A9"/><path d="M87.5 392.813c0-2.455.291-8.192.291-12.341 0-4.134.316-8.424-.29-12.519-.493-3.324-1.571-12.281 2.616-14.166 9.794-4.407 8.266 22.689 8.432 27.17.05 1.359.595 3.616 2.326 3.424 1.494-.166 1.679-7.924 1.761-9.062.099-1.396.08-3.683.92-4.894.672-.967 1.568-1.632 2.391-2.455 2.578-2.579 4.244 4.392 4.458 5.718.505 3.13.454 5.687-.517 8.658-.554 1.696-1.551 4.146-3.343 4.943-1.298.576-2.3 1.797-2.763 3.069-.249.686-.702 3.146-1.163 2.455" stroke="#376C36" stroke-width="2" stroke-linecap="round" stroke-linejoin="round"/><path d="M91.394 359.585c0 4.986-.024 9.973 0 14.959.017 3.622.302 7.108-.234 10.71-.366 2.456-.738 4.743-.738 7.218m4.374-28.189c.844 5.269.553 10.546.774 15.859.111 2.675.036 5.368.036 8.046 0 1.474.162 3.024.162 4.446m11.502-17.983c.35 3.037.527 6.166-1.098 8.911-1.056 1.783-2.455 3.122-3.744 4.698-.697.851-1.192 1.853-1.323 2.907-.049.391-.153 1.591-.153.495" stroke="#7C9F6B" stroke-width="1.5" stroke-linecap="round" stroke-linejoin="round"/><path d="M58.062 360.594c-3.192 1.629-5.95 3.521-7.521 6.906-1.837 3.96-2.989 8.584-2.824 12.954.096 2.528.324 5.554 1.058 7.962.245.805.374 2.165.374 3.011m10.599-30.833c0 3.777-3.233 6.043-3.613 9.743-.368 3.586-.891 7.445-.294 11.027.402 2.413.194 4.905.896 7.293.261.887.12 3.695.12 2.77m5.059-30.833c3.558 2.163 3.516 7.551 3.359 11.242-.15 3.52-1.145 6.919-1.191 10.438-.04 3.051 0 12.205 0 9.153m3.093-29.748c5.445 5.026 4.445 9.036 4.445 12.984 0 2.975-.298 6.581-.793 9.551-.44 2.644-1.205 5.264-1.205 7.936" stroke="#C4CF81" stroke-width="1.5" stroke-linecap="round" stroke-linejoin="round"/><path d="M44.72 392.409s-.683-3.446-.878-5.575c-.25-2.714-.33-5.355-.33-8.083 0-1.931.783-3.949 1.207-5.833.481-2.14 1.473-3.72 2.736-5.492 2.794-3.921 7.26-6.982 12.182-7.175 2.261-.089 4.003-.257 6.111.65.87.375 2.513 1.119 3.314 1.616.8.497 1.252 1.194 2.034 2.101 2.802 3.25 4.586 7.365 5.161 11.583.43 3.149.553 6.595.553 9.77 0 1.425-.553 4.398-.553 4.398 0 .48-.494 2.04-.494 2.04" stroke="#728736" stroke-width="2" stroke-linecap="round" stroke-linejoin="round"/><path d="M52.869 364.215c-.754-.915-2.076-2.111-2.596-3.153m12.054.742c.255-1.216.742-2.668.742-3.894m10.2 9.458c.576-.747 1.215-1.529 1.895-2.184.225-.217.65-.227.144-.227m-27.261 7.789c-1.128-.796-1.975-2.095-3.297-2.576-.326-.118-.82-.282-.968-.577m3.152 13.353c-1.988.235-3.924.927-5.934.927m36.163-6.12c.68-.126 1.925-.07 2.411-.556M61 371.972c-.402-1.636-.683-3.66-1.635-5.088m9.45 8.541c1.356-.832 2.61-1.779 3.898-2.706.407-.293.924-.346 1.19-.747m-5.814 12.358c1.652 0 3.134.068 4.725.545m-16.251-4.442a127.258 127.258 0 00-4.128-3.589" stroke="#728736" stroke-width="1.5" stroke-linecap="round" stroke-linejoin="round"/><path d="M369.503 400.251c-3.715 1.009-6.673 7.46-7.528 10.911-5.62 3.421-3.672 3.176 2.687 1.955 2.92-.561 6.903-.416 9.637-1.466 3.081-1.184 4.931-3.765 7.592-6.065 2.601-2.248 5.246-3.553 8.037-5.527 2.158-1.526 9.346-3.8 3.552-3.8-3.478 0-6.589.691-9.99.691-3.324 0-5.902-.334-9.191 0-1.577.16-2.889 2.783-4.796 3.301z" fill="#B1C9AB"/><path d="M335.5 522.5c0-5.724 4-4 7.135-6.527 1.749 4.397 8.345.925 15.675 4.397 4.642 2.199 4.528 6.457 6.352 8.307 1.393 1.413-3.519 5.243-1.71 6.352 1.242.762 1.224 3.14 2.443 3.909 1.545.975 11.727 3.317 11.727 4.886-9.04 0-26.586-1.032-28.795-4.082-.924-1.275-3.726-.98-5.286-1.964-1.075-.679-7.541-14.207-7.541-15.278z" fill="#93BB94"/><path d="M342.29 395.873c.991-.759 1.852-1.686 2.896-2.375 1.046-.691 2.406-.968 3.605-1.276 2.306-.594 4.76.049 6.66 1.397 1.843 1.307 4.147 2.73 5.077 4.899.669 1.563.461 3.749.363 5.412-.119 2.026-1.165 4.016-1.798 5.915-.639 1.918-1.142 3.479-2.31 5.16a74.353 74.353 0 01-3.055 4.099c-.483.603-.76 1.353-1.202 1.993-.409.594-.943 1.142-1.266 1.789-1.623 3.244-1.929 6.218-1.929 9.799 0 3.845 2.092 6.845 5.655 8.299 2.62 1.07 5.557 1.544 8.28 2.338 1.136.331 2.201.843 3.232 1.416 1.057.587 2.215.923 3.177 1.677 1.632 1.279 3.579 2.515 4.601 4.396.482.888.461 1.851.634 2.813.163.91.503 1.766.661 2.683.34 1.97-.232 4.654-1.09 6.464-.983 2.076-2.427 3.669-3.819 5.459-.673.865-1.578 1.687-2.394 2.422-1.019.917-2.218 1.363-3.344 2.142-2.597 1.798-5.975 2.012-8.811 3.353-2.433 1.15-4.903 2.099-7.005 3.819-1.354 1.108-2.508 2.475-3.428 3.931-1.333 2.111-2.618 4.054-3.39 6.371" stroke="#4A5759" stroke-width="2" stroke-linecap="round" stroke-linejoin="round"/><path d="M361.539 473.545c2.186-4.918 8.56-10.588 15.094 1.139 2.039 1.359.978-6.352 8.803-3.231 2.941 0 8.499 7.918 7.322 9.094l-7.818 7.818c-1.515 1.516-4.459 5.56-5.131 7.574-.917 2.752-1.262 5.496-2.198 8.307-1.439 4.315-6.353-4.507-6.353-6.352 0-1.486-2.526-3.715-2.931-4.887-.421-1.216-3.022-2.967-3.665-4.125-.954-1.716-3.097-3.272-4.153-4.914-1.939-3.016-1.047-5.751 1.03-10.423z" fill="#93BB94"/><path d="M374.766 451.271c2.916.049 5.729.517 8.523 1.303 1.87.526 2.825.92 4.298 2.125 1.582 1.295 3.55 1.851 4.781 3.574 1.119 1.567 2.732 2.608 3.911 4.128.962 1.24 1.955 2.678 2.656 4.081 1.494 2.988 3.112 5.431 5.819 7.4.942.685 1.833 1.678 2.958 2.052 1.292.431 2.655.544 4.008.544 2.507 0 5.83-1.011 7.811-2.632 1.988-1.627 3.944-3.26 5.348-5.421.593-.912 1.733-1.402 2.583-2.052.85-.65 1.629-.673 2.499-1.195m-87.522-46.686c1.681 1.714 3.703 5.518 5.708 6.863 1.646 1.104 3.408 1.879 4.354 3.701.572 1.102 1.274 1.849 1.524 3.096.186.933.169 1.833.169 2.782 0 4.67-6.562 5.524-6.978 9.893-.07.737-.423 1.439-.423 2.189 0 .832.048 1.671-.109 2.491-.26 1.352-.818 2.682-1.536 3.81a62.21 62.21 0 00-1.947 3.277c-.25.45-.977 2.351-1.26 2.209m15.819-44.402c1.713-.378 3.414-.612 5.15-.838 1.973-.256 4.035-.589 6.012-.705 2.574-.152 5.451-1.177 7.461-2.785 1.526-1.221 2.518-2.87 3.746-4.359 1.175-1.424 2.583-2.628 4.01-3.793 1.051-.857 2.006-1.906 3.25-2.49 1.184-.555 2.213-1.054 3.436-1.504.832-.307 1.699-.23 2.536-.497.896-.285 1.65-.88 2.513-1.179.75-.259 2.515-1.097 1.846-2.233-.276-.471-2.666-.661-3.133-.528-1.067.305-2.513.388-3.63.388-1.608 0-3.177-.419-4.801-.419-1.996 0-3.655.27-5.569.908-4.212 1.404-8.162 3.093-11.464 6.15-1.489 1.379-2.658 2.952-3.855 4.592-.484.664-.891 1.385-1.373 2.048-.419.576-.662 1.412-1.14 1.908-.861.894-1.733 1.795-2.621 2.683-.751.751-1.264 1.593-2.374 1.815m16.61 58.043c1.761 1.832 2.351 4.673 4.096.464.366-.562.609-1.52 1.521-1.52h2.091c1.455 0 2.741.861 4.16 1.119 3.511.638 8.339 4.841 6.377 8.764-.8 1.601-2.362 2.861-3.336 4.392-1.403 2.204-3.994 3.649-5.639 5.66-1.25 1.527-3.366 3.341-3.674 5.343-.166 1.075-.617 2.18-.824 3.315-.22 1.214-.338 2.999-.887 4.097-1.025 2.05-2.148 2.794-3.801 1.14-1.166-1.165-3.162-4.027-3.21-5.701-.053-1.858-1.297-2.576-2.196-4.097-1.218-2.062-2.261-3.388-4.266-4.836-3.28-2.369-6.594-6.996-5.11-11.235 1.518-4.338 3.871-12.837 10.347-10.918 2.322.688 2.796 2.396 4.351 4.013z" stroke="#4A5759" stroke-width="2" stroke-linecap="round" stroke-linejoin="round"/><path d="M345.083 518.902c1.446 1.151 3.24 1.857 4.471 3.242 1.047 1.179 2.15 2.414 3.046 3.713.707 1.025 1.595 2.22 2 3.399.433 1.258.611 2.568 1.073 3.818.584 1.581.731 3.388 1.189 4.994.125.437.222 2.116.222.837" stroke="#579C8F" stroke-width="2" stroke-linecap="round" stroke-linejoin="round"/><path d="M342.873 536.054c2.053 2.646 4.982 3.311 7.651 5.163 2.3 1.596 4.365 1.794 7.079 2.125 4.121.502 8.439.44 12.595.44 1.685 0 3.332.502 4.976.837.762.155 1.686.925 2.466.925.574 0-.46-1.577-.485-1.608-1.129-1.411-2.464-2.094-4.073-2.884-4.49-2.204-10.073-2.105-14.94-1.618-1.648.164-3.172.583-4.877.583-2.204 0-4.462.24-6.438-.889m-4.549-21.9c1.063.233 2.943 1.943 4.061.943l.733-.733c0-.315.666-.895.953-1.047 1.704-.902 4.368-.618 6.187-.396 2.916.355 6.24 3.016 7.883 5.394.928 1.343 1.992 2.485 2.554 4.052.365 1.017.255 2.255.22 3.324-.025.798-.274 1.692-.506 2.455-.225.741-.616 1.417-.837 2.103-.41 1.276-.253 2.248.463 3.281.433.626 1.038 1.31 1.277 2.026" stroke="#4A5759" stroke-width="2" stroke-linecap="round" stroke-linejoin="round"/><path d="M343.474 517.724c-2.677-.423-5.159-1.948-7.079 1.068-.53.834-.373 2.808-.373 3.794 0 1.44.022 3.311.975 4.501 1.062 1.328 1.886 2.823 2.858 4.22.585.842.858 1.93 1.509 2.711.979 1.175 2.243 2.416 3.072 3.66m-1.443-49.284c-1.917 2.761-3.313 6.528-4.087 9.777-.914 3.841-.942 8.359.722 12.047.596 1.322 1.355 2.585 1.976 3.9.378.8.688 1.818 1.202 2.538.514.718 1.117 1.172 1.87 1.549" stroke="#4A5759" stroke-width="2" stroke-linecap="round" stroke-linejoin="round"/><path d="M367.447 426.744c.941-2.065 2.753-1.178 4.55-.449 1.502.335 2.901 1.039 3.589 2.286.568 1.029 2.449 1.272 3.331.473 1.189-1.078-1.125-2.836-1.125-2.836s-1.935-.895-2.429-2.149c-.335-.85-.966-1.489-.356-2.288.325-.426.827-1.335 1.433-1.457 1.593-.321 3.555.051 5.083.407 2.725.635 5.313 1.247 7.821 2.416 1.623.756 2.291 2.24 2.997 3.649.306.61.141 1.393.449 2.022.41.836.764 1.671.985 2.573.628 2.563 1.868 5.033 2.071 7.692.115 1.516 1.126 2.692 1.161 4.205.007.287.33 1.351 0 1.471-.111.04-.221.363-1.031.363-1.566-.811-2.388-2.396-4.286-2.888-2.969-.769-6.039-2.723-9.182-2.783-3.285-.064-6.529-.521-9.804-.696-1.8-.096-3.705-1.032-5.199-1.956-1.392-.86-1.622-3.432-1.622-4.791 0-1.832.798-3.583 1.563-5.262l.001-.002z" fill="#B1C9AB"/><path d="M372.642 435.075c-4.654-1.787-10.239 1.794-12.154 5.995" stroke="#B1C9AB" stroke-width="2" stroke-linecap="round" stroke-linejoin="round"/><g opacity=".5"><path d="M239.469 934.974c-2.552-2.855-5.021-6.218-8.825-4.276-.696.89-.631-.036-.833 1.066-.197 1.075-.551 1.573-1.194 2.396-.784 1.003-.135 1.637-.919 2.64-.653.837-3.089.755-3.784 1.644-.969 1.241-1.958 2.818-1.876 4.668.037.833 1.025 2.761-.565 2.578-.557-.063-2.185 4.557-2.669 5.035-4.467.845-6.355 5.28-4.889 10.522.396 1.415 1.136 2.511 1.827 3.713.848 1.475 1.233 2.512 1.661 4.286.327 1.359.873 2.75 1.289 4.088.246.79.498 1.541.658 2.363.054.277.05 1.021.209.818.266-.34-.388-2.234-.135-2.84.236-.567.222-2.696.222-3.395 0-.599.557-.799.529-1.448-.025-.564-.317-.951-.155-1.538.643-2.328.286-3.837 1.763-5.728.875-1.12 3.299-.982 4.262-1.983 1.165-1.212 2.603-1.597 3.688-2.985.524-.672 1.021-2.124 1.076-3.114.037-.65-1.417-3.34-.743-3.625 1.345-.569 2.621.376 3.963-.496 1.248-.811 2.509-1.467 3.652-2.53 1.156-1.074 3.056-1.231 4.517-1.803 1.588-.622 5.259-.293 6.929-.057a.59.59 0 00.307.135c.915.092.597-.008-.307-.135-.797-.635-1.184-3.26-2.089-3.487-3.039-.763-5.358-4.04-7.569-6.512zm-10.304 56.968c.079-1.172-1.168.392-1.407.596-1.01 1.292-.254 2.06-1.23 3.309-.624.799-1.616.334-2.24 1.133-.675.864-1.287.949-2.162 1.465-1.818 1.072-4.065 1.298-5.574 3.225-.928 1.19-8.125 8.64-6.787 10.3.627.78 2.827-1.55 3.392-2.04.709-.63 2.839-1.32 3.596-1.57.797-.26 4.26.88 5.085.86 1.026-.02 1.567-.52 2.553-.44 2.073.15 3.657-3.95 4.246-6.09.443-1.6-.057-4.502-.111-6.17-.052-1.619.534-3.014.639-4.578zm14.048-25.133c-.93.456-1.781 2.311-2.467 3.157-5.086-2.863-7.327.954-6.975 4.893.089 1.001.796 1.768 1.074 2.662.233.751.2 1.472.544 2.215.313.678.719 1.31 1.088 1.947.813 1.403 1.932 2.21 2.979 3.332a146.12 146.12 0 003.592 3.708c1.247 1.242 3.196 2.527 4.823 2.65 1.154.088.486-.833.252-1.698-.702-2.603-.306-5.914.093-8.532.135-.884-.031-1.807.098-2.715.15-1.057.518-2.169.841-3.166.326-1.009-.04-2.125-.156-3.177-.101-.915-.062-1.578-.508-2.386-.694-1.256-1.666-3.318-3.045-3.372-1.044-.041-1.254.002-2.233.482z" fill="#D3DFD0"/><path d="M226.838 937.375c1.214-1.122 1.836-2.071 2.089-3.915.137-.999.532-2.134 1.223-2.751 1.223-1.092 2.99-.764 4.389-.24 2.224.832 3.579 2.813 5.178 4.773 1.633 2.002 3.724 3.47 5.592 5.1.945.824 2.01 1.662 2.88 2.6.534.577.844 1.332 1.308 1.91.57.709-.842.613-1.099.607-1.367-.032-2.743-.292-4.11-.268-1.474.026-3.119.101-4.546.498-.879.245-1.674.963-2.437 1.506-.702.499-1.29.959-2.048 1.381-.933.518-1.802.859-2.84 1.016-.954.144-1.867.394-2.804.611-.861.198-2.115-.288-2.905-.694-1.071-.55-2.073-1.424-2.925-2.378-.428-.478-.986-.954-1.288-1.564-.196-.396-.215-.882-.374-1.299-.464-1.217-.461-3.408.341-4.435.864-1.106 1.743-1.362 2.928-1.845 1.338-.545 3.538-2.093 5.013-1.315 1.251.659 2.764.492 3.977 1.21.995.589 2.086 1.183 3.167 1.42m-6.869 11.521c.296 1.776.5 3.966-.167 5.618-.718 1.781-2.197 2.86-3.605 3.733-1.766 1.095-3.902 1.465-5.304 3.26-.598.765-.879 1.724-.977 2.753-.076.798-.35 1.448-.621 2.159-.239.63-.226 1.361-.341 2.037-.211 1.234.044 2.457-.176 3.699-.244 1.382.123 2.272.182 3.614.075 1.685.846 3.219 1.294 4.796.151.532.461.445.583-.043.291-1.164-.245-2.795-.196-4.051.019-.483.043-1.019.011-1.502-.028-.403-.31-.667-.375-1.065-.155-.94-.198-1.693-.572-2.549-.602-1.375-.488-3.662-.379-5.113" stroke="#6B9A78" stroke-width="2" stroke-linecap="round" stroke-linejoin="round"/><path d="M221.95 944.338c-.597 2.055-1.496 5.127-3.492 5.788-.747.247-1.512.229-2.253.432-.654.179-1.373 1.163-1.776 1.736-.492.699-.681 2.055-.969 2.912-.308.919-.47 1.826-.425 2.838.073 1.656.384 3.186 1.032 4.656.453 1.026.813 2.257 1.365 3.206.528.906 1.115 2.233 1.345 3.282.223 1.019.598 2.281 1.078 3.182.446.836 1.022 2.485 1.495 3.342" stroke="#6B9A78" stroke-width="2" stroke-linecap="round" stroke-linejoin="round"/><path d="M220.73 947.925c-.851 2.594-1.449 4.927-1.728 7.727-.096.973-.596 2.713-.293 3.645m24.001 8.147c-1.196 1.532-1.991 1.928-3.739 1.273-.383-.694-.585-.492-.907-.816-.214-.215-1.098.177-1.336.295-.501.248-1.282 1.007-1.447 1.62-.096.361-.441.888-.588 1.216-.16.361-.517.945-.517.945-.765 1.027-1.005 2.21-1.169 3.594-.173 1.454.32 2.594 1.035 3.737.444.708.989 1.3 1.461 1.974.649.926 1.089 1.964 1.84 2.804.856.957 1.68 2.017 2.608 2.872.773.713 1.712 1.07 2.531 1.689l.032.024c1.02.771 1.971 1.49 2.887 2.438.649.673 1.63 1.319 2.486 1.453 1.158.182.873-1.574.696-2.317-.231-.972-.21-1.979-.262-2.971-.064-1.229-.21-2.331.238-3.477.462-1.183.706-2.402 1.26-3.541.589-1.21 1.001-2.358 1.247-3.743.265-1.496.573-2.799.324-4.368-.234-1.473-.538-2.718-1.283-3.97-.904-1.52-2.632-3.445-4.265-3.617-1.553-.164-2.204 1.699-3.132 2.886z" stroke="#6B9A78" stroke-width="2" stroke-linecap="round" stroke-linejoin="round"/><path d="M230.884 951.179c1.383 2.942 3.373 5.141 5.562 7.252 1.329 1.282 2.97 3.156 3.169 5.289.097 1.031.379 2.16.101 3.164-.08.29-.097.671-.224.934-.143.294-.128.913-.366.481m-3.879 12.652c-.444 1.176-.869 2.402-1.412 3.515-.494 1.012-1.231 1.821-1.812 2.758a31.702 31.702 0 01-1.911 2.715c-.483.619-.937 1.159-1.478 1.684-.471.458-.962.564-.179 1.095" stroke="#6B9A78" stroke-width="2" stroke-linecap="round" stroke-linejoin="round"/><path d="M228.592 991.884c.207 2.157.164 4.233.176 6.387.01 1.712-.058 3.559-.501 5.179-.561 2.06-2.369 4.58-4.112 5.31-1.999.85-4.459.2-6.533-.1-.82-.12-1.684-.12-2.462.21-.84.36-1.751.53-2.456 1.2-.899.86-1.813 1.62-2.597 2.62-.9 1.15-.687-.25-.49-1.13.317-1.41 1.405-2.17 1.89-3.41.164-.41.334-.86.425-1.31.107-.53-.215-.93-.188-1.42.141-2.52 2.306-4.62 3.973-5.828 1.965-1.418 4.223-1.646 6.156-3.06 1.271-.93 2.077-2.588 3.424-3.394.742-.445 2.118-.812 2.975-.624m11.022-23.702c1.517 1.762 3.467 4.109 3.084 6.897-.297 2.164.445 4.498 1.443 6.307m-30.984-39.68c2.626.136 5.581-1.121 7.168-1.149.928-.016 1.589-.243 2.246-1.083" stroke="#6B9A78" stroke-width="2" stroke-linecap="round" stroke-linejoin="round"/></g><g opacity=".6"><path d="M132.273 872.313c-.928.219-.425-.602-1.127 0-1.083.164-4.623-1.27-5.333-.326-3.23.326-1.523 1.964-2.261 2.748-.712.757 3.083 5.512 3.714 6.183.986 1.049 4.421 2.502 5.653 3.263 1.391.86 3.33.587 4.684 1.546.869.617 3.36.07 4.199.515 1.086.578 2.367 1.557 3.391 2.233 1.036.684 1.909.674 2.68 1.718.485.656 3.78 2.437 3.78 1.374 0-3.117-1.725-5.791-2.584-8.76-.472-1.632 0-6.328 0-8.072 0-1.501-.574-3.842-2.099-5.496-1.245-1.349-3.337-2.189-4.038-2.233-1.006-.063-2.277 0-3.391 0-1.081 0-2.786 2.432-3.769 2.897-.556.262-2.908 2.27-3.499 2.41z" fill="#B1C9AB"/><path d="M180.427 908.58c-1.627 1.321-3.627 3.987-5.267 5.318.533.574 2.809.343 3.365.875.742.709 1.68 1.046 2.53 1.398.891.37 2.101.91 3.015 1.332 1.175.543 3.194.033 4.416-.485 2.538-1.075 4.186-1.791 6.791-2.465 2.144-.555 4.256-1.015 6.331-2.051.3-.15 2.972-1.293 2.708-1.624-.355-.446-.515-.106-.836-.315-.755-.493-1.821-.491-2.642-.832-1.166-.484-2.269-1.103-3.376-1.804-1.126-.713-2.954-1.617-4.129-1.721-.45-.04-1.022-.715-1.499-.88l-.05-.017c-.889-.308-1.804-.624-2.707-.811-1.065-.22-2.039.474-3.059.586-.906.1-1.822.254-2.723.424-1.059.199-1.944 2.322-2.868 3.072zm.727 37.226c0-3.793-6.947-4.74-9.591-5.634-2.457.65-3.735-2.758-5.704-.895-2.159 2.042-5.084 7.574-3.928 11.727.082 3.85 1.617 6.841 3.238 12.079.169 3.294-.41 8.827 0 12.108.176 1.407 2.672-.339 2.862-1.842.24-1.909 2.269-4.054 2.269-5.976v-6.502c1.162-3.158 6.745-6.294 8.499-8.972 1.882-2.876 2.355-2.181 2.355-6.093z" fill="#D3DFD0"/><path d="M132.1 872.431c2.65-1.67 5.027-3.78 7.695-5.381 2.43-1.457 4.235-1.404 6.601.206 4.496 3.059 2.498 9.809 2.876 14.423.045.536 3.696 10.219 1.871 10.219-.833 0-2.21-1.434-2.982-1.794-1.249-.581-2.604-1.113-3.601-2.129-1.352-1.379-3.409-2.093-5.312-2.093-1.085 0-2.127-.615-3.194-.841-1.18-.249-2.248-.057-3.336-.691-2.338-1.361-4.527-2.382-6.407-4.446-1.738-1.908-5.298-8.146-.247-8.146 1.236 0 2.765-.265 3.971.019 1.316.31 2.323 1.075 3.583 1.588 1.079.439 2.872 1.732 3.706 2.616 1.888 1.998 4.169 3.606 6.213 5.53" stroke="#568267" stroke-width="2" stroke-linecap="round" stroke-linejoin="round"/><path d="M145.214 888.629c1.716 2.862 4.161 5.242 5.849 8.135 1.561 2.675 2.6 5.847 3.17 8.927.467 2.521.77 4.83-1.239 6.246m20.713 2.012c3.106-1.337 5.568-3.628 7.921-6.945 1.009-1.423 2.186-2.779 3.545-3.296 2.9-1.104 5.355.465 8.152 1.257.685.195 1.288.667 1.964.887 1.082.351 2.199.345 3.281.686 1.757.554 3.187.526 4.818 1.806.858.674 1.688 1.237 2.429 2.151 1.053 1.3-1.529 1.788-1.891 1.825-3.6.363-7.224 1.515-10.674 2.995-2.617 1.123-4.705 2.722-7.498 2.415-1.446-.159-2.803-.834-4.181-1.47-1.287-.594-2.656-.815-3.899-1.602-1.056-.668-2.334-1.267-3.443-.845" stroke="#568267" stroke-width="2" stroke-linecap="round" stroke-linejoin="round"/><path d="M149.569 913.864c-.976-.525-2.983-.074-4.099-.131-1.184-6.341-5.644-5.845-8.462-2.983-.716.727-.837 1.848-1.345 2.672-.426.692-1.007 1.129-1.353 1.914-.315.716-.534 1.483-.781 2.222-.543 1.626-1.811 3.177-1.98 4.827-.187 1.823-.569 2.617-.693 4.45-.129 1.904 1.09-.788 2.084.728.704 1.074 2.209-.907 2.723-1.673 1.549-2.306 3.295.035 5.591-1.309.776-.454 1.983.041 2.773-.434.921-.552 1.091-.86 2.079-1.221 1.001-.366 2.507.243 3.245-.541.643-.681 1.183-1.077 1.51-1.994.51-1.426 1.458-3.618.577-4.87-.668-.948-.842-1.104-1.869-1.657z" fill="#D3DFD0"/><path d="M154.425 906.312c3.624 0 6.881 5.038 10.441 5.762 2.257.459 4.472.12 6.657.96 2.824 1.086 5.763 5.35 6.094 8.501.204 1.942.204 4.288-.043 6.215-.155 1.208-.251 2.665-.98 3.656-.835 1.136-1.972 1.6-2.853 2.681-1.158 1.424-2.887 1.622-4.408 2.468-.9.501-2.798 1.807-3.113 2.803m2.076-.274c2.713 1.668 5.69 2.173 8.615 3.23 2.128.768 4.87 1.376 4.87 4.235 0 1.305.313 3.082-.115 4.326-.519 1.511-2.631 2.72-3.717 3.778-1.249 1.217-3.051 1.425-4.351 2.59-.831.744-1.349 1.842-2.45 2.133" stroke="#568267" stroke-width="2" stroke-linecap="round" stroke-linejoin="round"/><path d="M166.552 940.01c1.171 1.439 3.107 2.908 4.336 4.284 1 1.119 1.038 2.63 1.038 4.098 0 2.913-2.334 4.711-2.334 7.693 0 1.608.452 3.409.907 4.951.574 1.943.063 4.312-.518 6.155-.579 1.836-.937 3.761-1.484 5.56-.41 1.348-1.641 2.475-2.017 3.87-.464 1.714-1.297-.439-1.297-1.127 0-2.496.159-5.164-.317-7.617-1.207-6.223-4.507-11.626-5.115-18.053-.158-1.668-.098-2.939 1.023-4.159.506-.551 1.052-1.166 1.354-1.858.265-.607 1.355-1.432 1.355-1.432s1.188-1.104 1.642-1.92c.584-1.048 1.412-1.845 2.582-2.155M122.77 810.053c.094 4.162 2.611 7.349 3.625 11.318 1.329 5.205 1.84 10.738-.522 15.623-2.991 6.188-8.926 11.727-8.926 19.178 0 2.098-.336 4.485.454 6.434.375.926.5 1.791 1.194 2.524.686.726.669 2.093 1.378 2.666 1.479 1.196 3.382 3.806 5.45 3.806" stroke="#568267" stroke-width="2" stroke-linecap="round" stroke-linejoin="round"/><path d="M142.732 826.487c-2.224 1.04-3.932 2.952-6.197 3.95-.718 1.233-.585.452-.585 1.675 0 .804.901.726 1.327.989 1.554.963 3.751 1.256 5.528 1.389 1.864.138 3.626 1.274 5.447 1.643 1.394.283 2.732 1.072 3.976 1.807l.051.03c.932.551 1.576 1.676 2.298 2.481.772.861 1.603 1.705 2.261 2.664 1.046 1.526.802-1.666.787-2.307-.024-.965-.789-2.063-1.236-2.838-.471-.817-1.319-1.652-2.023-2.204-.507-.398-.767-1.039-1.263-1.46-.588-.5-.82-.781-.906-1.644-.17-1.708.437-3.34-1.154-4.338-1.278-.802-2.75-1.178-4-1.97-1.143-.725-3.168-.402-4.311.133z" fill="#D3DFD0" stroke="#568267" stroke-width="2" stroke-linecap="round" stroke-linejoin="round"/><path d="M62.139 841.145c2.224 1.041 2.633.112 6.562.913.718 1.233 6.7-12.46 9.704 8.734 0 .803-10.811-2.382-10.811-3.032-1.554.963-3.751 1.256-5.529 1.388-1.863.139-3.626 1.275-5.446 1.644-1.395.283-2.732 1.072-3.977 1.807l-.05.03c-.933.55-1.576 1.676-2.298 2.481-.772.861-4.273 3.335-4.93 4.294-1.047 1.527.446-2.78.461-3.42.024-.965.709-2.58 1.156-3.355.471-.818-.01-2.201.693-2.753.506-.398.197-1.289.693-1.71.588-.5 1.3-.848 1.386-1.71.17-1.709 2.483-2.475 4.074-3.473 1.28-.802 2.75-1.178 4-1.97 1.144-.725 3.169-.402 4.312.132z" fill="#B1C9AB"/><path d="M135.82 831.739c-2.22-.172-3.846.376-5.809 1.309-.676.321-3.078 1.681-3.078 1.681m-4.827 8.833c-2.64.744-4.841-.718-7.449-1.086-.75-.106-1.574-.418-2.314-.418-.8 0-1.557.215-2.336.215-5.239 0-6.733 7.003-9.142 10.74-2.676 4.15-6.194 6.874-11.061 6.874-4.644 0-7.764-4.849-10.706-7.96" stroke="#568267" stroke-width="2" stroke-linecap="round" stroke-linejoin="round"/><path d="M78.93 852.064c-1.215-.52-2.377-1.484-3.63-1.849-1.06-.31-2.168-.231-3.256-.231-1.9 0-3.358-1.367-5.312-1.618-1.661-.214-3.442-.331-5.115-.243-2.02.107-2.888 1-4.547 1.953-1.444.83-3.494 1.152-4.678 2.404-.68.719-1.452 1.404-2.076 2.184-.776.97-1.444 2.09-2.274 3.016-1.026 1.146-2.286 2-3.224 3.213-.556.719-.135-.629-.12-1.04.04-1.102.4-2.05.787-3.051 1.412-3.65 1.79-7.385 4.328-10.516 2.043-2.521 4.47-4.785 7.18-6.483 1.673-1.048 5.086-2.055 6.985-1.052 1.114.59 1.508 2.081 2.852 2.3.72.117 1.552.463 2.24-.023.605-.426 1.067-1.225 1.793-1.445 1.192-.36 3.208-1.389 4.438-.739.601.318 1.35 2.23 1.464 2.923.161.979.394 1.92.394 2.913 0 1.596-.08 3.013.59 4.472.435.946 1.347 1.808 1.77 2.704" stroke="#568267" stroke-width="2" stroke-linecap="round" stroke-linejoin="round"/><path d="M68.896 841.455c-1.586 1.166-3.266 2.325-5.104 3.005-1.776.657-3.68 1.146-5.224 2.276-1.027.752-1.884 1.636-2.809 2.577-.643.656-1.824 1.315-2.208 2.127m98.604 60.755c-1.284-.258-3.122-.827-4.471-.42-1.199.362-1.396 1.883-2.483.42-.877-1.18-1.806-2.836-3.303-2.836-1.56 0-3.297.457-4.247 1.917-1.018 1.566-2.345 2.695-3.378 4.254-1.009 1.525-1.249 3.51-2.036 5.173-.714 1.51-3.611 7.779.248 7.038 1.913-.368 3.495-2.11 5.464-2.311 2.098-.215 4.082-1.065 6.06-1.786 2.262-.825 6.345-1.795 8.146-3.413 1.687-1.517 3.129-2.646 3.129-5.2 0-.865-2.438-3.065-3.129-3.308m-6.706 1.418c-2.241 1.433-4.142 2.608-5.811 4.726m33.555-3.7c2.892 2.396 8.403 7.281 12.016 8.344 2.77.815 6.02-.295 8.875-.187 5.315.2 10.153 3.113 13.09 7.709 1.594 2.495.081 8.822-2.683 10.046-2.759 1.223-4.359.533-6.905-.569-4.014-2.53-2.651-6.498-1.034-7.549 2.603-1.692 6.587.051 8.293 2.284 1.273 1.667 1.789 4.126 3.102 5.713 1.249 1.51 2.483 1.679 4.249 2.444" stroke="#568267" stroke-width="2" stroke-linecap="round" stroke-linejoin="round"/></g><path d="M16.435 711.814c1.403.312.642-.855 1.705 0 1.639.234 6.993-1.806 8.067-.463 4.886.463 2.305 2.793 3.42 3.909 1.078 1.077-4.664 7.84-5.618 8.795-1.492 1.492-6.687 3.558-8.552 4.642-2.104 1.223-5.038.834-7.085 2.199-1.315.877-5.084.099-6.352.733-1.644.822-3.58 2.214-5.13 3.176-1.567.972-2.888.958-4.054 2.443-.734.933-5.719 3.467-5.719 1.954 0-4.433 2.61-8.238 3.91-12.46.714-2.321 0-9.002 0-11.482 0-2.135.867-5.466 3.175-7.818 1.883-1.919 5.048-3.114 6.108-3.176 1.523-.09 3.446 0 5.13 0 1.635 0 4.215 3.459 5.702 4.12.84.373 4.398 3.229 5.293 3.428z" fill="#A3BF9B"/><path d="M2.51 757.282c2.222.865 2.028 4.574 3.664 4.886-1.383.922 7.591 7.043 5.375-7.861.489-1.912.924-3.936 2.834-3.088 1.217.541 2.772-1.229 3.755 0 .51.637 2.908-.493 3.428.443.453.815 2.472 1.864 2.932 2.645 1.046 1.778 3.175 4.928 4.642 6.395.87.871.068 3.59 0 4.886-.302 5.739-2.2 6.452-2.2 12.216 0 1.673-1.739 8.004-2.442 9.528-.902 1.955 1.206 8.452 0 10.261-1.13 1.694-2.003.01-2.687-1.221-.612-1.101-2.836-3.072-3.673-3.909-1.059-1.06-1.583-1.473-2.436-2.704-1.943-2.807-3.973-5.179-6.352-7.557-2.415-2.415-3.671-2.297-6.24-4.398-1.255-1.028-6.861-.728-7.197-2.443-.366-1.867-2.932-2.952-2.932-4.886 0-1.623-.671-5.594 0-7.086.446-.99 2.37-4.419 3.42-4.886.995-.442 3.842-2.104 6.109-1.221z" fill="#B1C9AB"/><path d="M68.467 771.918c0-5.299-.58-10.946 5.382-13.479 1.604 0 .644-.731 1.921 0 1.247.712 2.107.751 3.59.751 1.808 0 1.72 1.268 3.528 1.268 1.51 0 4.05-2.77 5.652-2.77 2.237 0 4.819.269 6.51 1.961.763.762 1.554 3.525 3.089 1.607.538-.673 6.735 1.523 7.715 1.4 5.619-4.217 11.917-2.471 15.383 3.691.936 1.662 1.194 3.431 1.607 5.237.507 2.216 1.09 3.541 2.337 5.551.955 1.538 1.706 3.347 2.546 4.966.496.956.946 1.886 1.565 2.775.208.3.928.939.563.939-.614 0-1.733-2.364-2.587-2.608-.8-.229-2.834-2.087-3.506-2.692-.576-.519-1.368-.074-1.961-.668-.517-.516-.576-1.174-1.315-1.502-2.931-1.303-3.998-3.005-7.407-3.005-2.018 0-4.493 2.805-6.492 3.005-2.42.242-4.338 1.502-6.84 1.502-1.21 0-3.143-.707-4.154-1.502-.665-.522-1.689-4.461-2.688-3.962-1.995.998-2.46 3.23-4.74 3.962-2.123.681-4.111 1.51-6.364 1.857-2.276.35-4.472 2.32-6.594 3.443-2.308 1.222-5.94 5.574-7.51 7.628a.968.968 0 01-.2.457c-.895 1.093-.65.654.2-.457.246-1.432-1.862-4.134-1.108-5.333 2.536-4.028 1.878-9.434 1.878-14.022z" fill="#93BB94"/><path d="M134.362 809.811c-1.212-.927 1.633-.955 2.087-1.043 2.33 0 2.255 1.502 4.507 1.502 1.44 0 2.06-1.502 3.5-1.502 1.557 0 2.297-.604 3.735-1.127 2.987-1.086 5.622-3.38 9.103-3.38 2.141 0 17.049-1.529 17.212 1.395.076 1.371-4.537 1.788-5.619 1.985-1.363.248-4.32 2.008-5.375 2.629-1.113.655-3.741 5.479-4.642 6.38-1.122 1.121-2.186 1.287-3.176 2.443-2.082 2.429-7.736.632-10.419-.56-2.02-.898-4.274-3.964-5.821-5.467-1.503-1.459-3.474-2.018-5.092-3.255zm-39.292-6.19c1.438-.636 4.138.027 5.69 0 2.717-8.115 8.801-7.293 12.212-3.495.867.966.844 2.413 1.405 3.495.473.909 1.202 1.495 1.546 2.52.315.934.488 1.93.703 2.891.475 2.115.047 4.053 0 6.184a195.12 195.12 0 01-.296 7.19c-.146 2.456-1.007 5.727-2.64 7.637-1.157 1.354-1.324-.183-1.905-1.19-1.749-3.032-5.36-5.458-8.308-7.282-.995-.616-1.705-1.599-2.717-2.242-1.18-.749-2.645-1.303-3.951-1.809-1.322-.512-2.001-1.884-2.889-2.922-.772-.904-1.452-1.435-1.75-2.629-.461-1.856-1.4-4.717.032-6.292 1.084-1.193 1.352-1.387 2.867-2.056z" fill="#B1C9AB"/><path d="M16.843 712.089c-4.025-2.396-7.636-5.425-11.689-7.721-3.692-2.092-6.433-2.015-10.026.295-6.83 4.39-3.794 14.076-4.37 20.696-.067.77-5.614 14.665-2.842 14.665 1.266 0 3.358-2.058 4.53-2.574 1.897-.834 3.956-1.598 5.47-3.056 2.054-1.978 5.178-3.003 8.07-3.003 1.647 0 3.23-.882 4.852-1.206 1.792-.358 3.414-.083 5.067-.992 3.55-1.953 6.876-3.419 9.731-6.38 2.64-2.738 8.049-11.689.376-11.689-1.878 0-4.2-.381-6.032.027-2 .444-3.53 1.542-5.443 2.278-1.639.631-4.362 2.486-5.63 3.754-2.867 2.867-6.332 5.175-9.436 7.935" stroke="#4A5759" stroke-width="2" stroke-linecap="round" stroke-linejoin="round"/><path d="M9.191 731.309c-1.815 2.862-4.4 5.242-6.185 8.135-1.65 2.675-2.748 5.847-3.351 8.927-.493 2.521-.815 4.83 1.31 6.246m-.899-.098c-10.75 1.052-11.066-1.581-18.164-1.188-3.845.214-6.578.149-9.79 1.188-4.155 1.343-8.477 6.619-8.964 10.517-.3 2.402-.3 5.305.064 7.69.228 1.494.369 3.297 1.44 4.523 1.23 1.405 2.902 1.979 4.197 3.317 1.703 1.761 4.246 2.006 6.484 3.054 1.324.619 4.115 2.235 4.577 3.468" stroke="#4A5759" stroke-width="2" stroke-linecap="round" stroke-linejoin="round"/><path d="M-3.85 755.944c1.926-1.071 4.947-.334 7.093-.334.945.237 1.675.759 2.3 1.542.146.182-.272 1.779-.272 2.203 0 2.189 1.247 4.26 3.508 3.255 1.824-.811.326-6.207.878-7.972.394-1.263 1.779-5.561 3.859-4.405.812.451 2.58.334 3.528.506 1.159.211 2.161.47 3.313.8 3.064.875 6.038 3.269 7.992 5.73.62.782 1.612.976 2.183 1.832.35.525.706 1.266.974 1.832.437.922.078 2.663.078 3.684 0 3.203-.962 6.247-2.612 8.947-2.258 3.695-2.285 8.41-4.054 12.279-.971 2.125-.5 5.927.176 8.089.759 2.429-.121 5.788-2.632 3.138-1.692-1.786-3.234-3.762-5.184-5.263-1.66-1.276-2.998-3.965-4.366-5.613-1.75-2.108-4.937-5.425-7.505-6.471-5.652-2.303-12.939-4.576-13.448-11.968-.218-3.149.968-10.022 4.19-11.811z" stroke="#4A5759" stroke-width="2" stroke-linecap="round" stroke-linejoin="round"/><path d="M1.238 754.632c2.211 1.063 4.313 2.035 6.444.907.909-.481 1.477-1.39 2.148-2.196m14.392.215c2.79.744 5.118-.718 7.876-1.086.792-.106 1.664-.418 2.446-.418.846 0 1.647.215 2.47.215 5.54 0 7.119 7.004 9.667 10.74 2.83 4.151 6.548 6.874 11.695 6.874 4.91 0 8.209-4.849 11.32-7.96m14.671-1.921c-2.386.375-3.967.242-6.014-1.074-1.108-.712-2.626-1.257-3.962-1.026-2.367.41-3.951 2.651-4.953 4.654-1.593 3.186-1.144 6.401-.978 9.869.168 3.542-.668 7.129-1.11 10.609-.224 1.76-.565 3.667-.597 5.442-.02 1.092.373 2.088.43 3.103.069 1.244 1.496-.403 1.766-.693 1.44-1.542 2.671-3.291 4.165-4.785 1.61-1.61 3.452-3.369 5.37-4.606 1.18-.762 2.727-1.021 4.07-1.397 1.236-.346 2.31-.599 3.532-1.074 1.502-.584 2.765-1.252 4.033-2.267 1.164-.931 2.388-1.726 3.604-2.578 1.117-.782 1.999-2.592 2.458-3.818.624-1.663.86-3.53.86-5.299 0-.887.142-1.919-.12-2.78-.17-.561-.617-1.002-.847-1.54-.672-1.567-2.783-3.461-4.635-3.461-1.992 0-3.184.753-4.924 1.647-1.964 1.011-5.82 2.109-6.659 4.416-.711 1.957-2.5 3.488-3.114 5.453-.504 1.613-1.107 3.336-2.041 4.738m18.473 2.363c1.39 1.864 3.278 3.986 5.585 4.678 2.486.746 5.115.04 7.471-.764 2.953-1.009 5.606-3.055 8.842-3.055 1.379 0 2.604.518 3.7 1.301.849.606 1.769.866 2.745 1.181.864.28 1.552.927 2.327 1.384 1.414.835 2.316 2.177 3.747 3.008 1.593.925 2.054 2.102 3.282 3.329 1.541 1.542 2.187 3.724 3.222 5.585.349.628-.068.896-.669.609-1.433-.686-2.425-2.691-3.687-3.724-.485-.396-1.027-.834-1.456-1.288-.358-.379-.308-.921-.621-1.337-.738-.985-1.417-1.684-1.837-2.84-.676-1.858-2.999-3.711-4.511-4.845" stroke="#4A5759" stroke-width="2" stroke-linecap="round" stroke-linejoin="round"/><path d="M101.088 762.367c3.412 1.302 6.301 2.658 9.293 4.773 1.04.735 3.252 1.688 3.823 2.83" stroke="#579C8F" stroke-width="2" stroke-linecap="round" stroke-linejoin="round"/><path d="M96.326 760.614c2.619 1.116 6.541 2.78 9.324 1.14 1.043-.614 1.848-1.477 2.841-2.122.876-.57 2.596-.514 3.58-.465 1.202.06 2.711 1.024 3.844 1.447 1.216.454 2.263 1.059 3.189 1.985 1.514 1.515 2.651 3.183 3.368 5.175.5 1.388 1.298 2.853 1.616 4.287.304 1.368.949 3.167 1.711 4.329.74 1.13 1.551 2.639 1.901 3.95.324 1.217 1.292 3.283 1.608 4.549" stroke="#4A5759" stroke-width="2" stroke-linecap="round" stroke-linejoin="round"/><path d="M101.212 801.013c.063 3.205.223 7.398 3.317 9.387 2.402 1.544 3.849 4.386 4.517 7.057" stroke="#579C8F" stroke-width="2" stroke-linecap="round" stroke-linejoin="round"/><path d="M96.22 803.614c2.762 0 3.997-.538 5.249-3.041-.257-1.025.154-1.074.19-1.711.023-.423 1.352-1.063 1.721-1.225.777-.34 2.348-.549 3.115-.201.451.205 1.329.28 1.802.402.52.133 1.466.244 1.466.244 1.811.041 3.208.8 4.715 1.815 1.586 1.067 2.152 2.599 2.482 4.382.204 1.104.187 2.22.327 3.327.193 1.521.718 2.907.718 4.466 0 1.777.133 3.607-.042 5.375-.146 1.474-.812 2.823-1.098 4.267l-.011.055c-.356 1.798-.688 3.474-.76 5.309-.051 1.302-.486 2.948-1.278 4.013-1.071 1.44-2.453-.396-2.978-1.236-.685-1.096-1.676-1.945-2.576-2.861-1.114-1.135-2.016-2.251-3.601-2.746-1.636-.511-3.07-1.297-4.763-1.669-1.798-.394-3.345-.931-4.942-1.858-1.724-1.001-3.31-1.788-4.551-3.421-1.166-1.534-2.036-2.95-2.44-4.858-.489-2.317-.482-5.898 1.11-7.857 1.513-1.862 4.005-.971 6.145-.971z" stroke="#4A5759" stroke-width="2" stroke-linecap="round" stroke-linejoin="round"/><path d="M93.295 776.433c1.342 4.079 1.317 8.187.993 12.439-.197 2.582-.158 6.022 1.68 8.089.888 1 1.67 2.29 2.935 2.851.365.163.75.473 1.14.56.436.097 1.015.649.856.01m16.346 6.653c1.608.526 3.246 1.117 4.9 1.479 1.505.328 3.077.212 4.604.38 1.5.164 3.161.232 4.667.232 1.116 0 2.123-.034 3.211-.18.947-.126 1.578-.577 1.246.75" stroke="#4A5759" stroke-width="2" stroke-linecap="round" stroke-linejoin="round"/><path d="M134.922 809.126c1.853 2.096 3.897 3.845 5.956 5.724 1.636 1.492 3.484 3.013 5.523 3.928 2.584 1.16 6.951 1.334 9.536.042 2.964-1.482 4.986-4.77 6.927-7.328.768-1.013 1.698-1.969 2.851-2.545 1.247-.624 2.395-1.481 3.802-1.679 1.794-.253 3.503-.613 5.311-.613 2.077 0 .501-.976-.559-1.521-1.703-.874-3.596-.319-5.312-.855-.579-.181-1.188-.376-1.721-.665-.621-.337-.664-1.045-1.162-1.436-2.577-2.025-6.932-1.449-9.884-.644-3.478.948-6.127 3.253-9.567 4.171-2.262.603-4.725.061-6.949.855-1.226.438-3.06 1.644-3.801 2.756m-34.023-58.103c-2.137 1.111-4.73 2.784-6.463 4.518-1.015 1.014-1.945 1.55-3.459 1.55M32.36 652c-.1 4.162-2.2 8.082-3.27 12.051-1.406 5.205-1.947 10.738.55 15.623 3.163 6.188 9.438 11.727 9.438 19.178 0 2.098.356 4.485-.48 6.434-.396.926-.528 1.791-1.262 2.524-.725.726-.707 2.093-1.457 2.666-1.564 1.196-3.576 3.806-5.762 3.806" stroke="#4A5759" stroke-width="2" stroke-linecap="round" stroke-linejoin="round"/><path d="M8.733 665.746c3.403 1.531 6.016 4.346 9.48 5.816 1.098 1.815.895.664.895 2.466 0 1.183-1.38 1.068-2.03 1.456-2.378 1.418-5.739 1.849-8.457 2.044-2.851.204-5.547 1.876-8.332 2.419-2.133.417-4.18 1.579-6.083 2.661l-.078.044c-1.426.811-2.41 2.467-3.515 3.652-1.18 1.268-2.452 2.511-3.458 3.922-1.601 2.248-1.228-2.453-1.204-3.396.035-1.421 1.207-3.037 1.89-4.178.721-1.204 2.018-2.433 3.095-3.246.775-.585 1.173-1.529 1.932-2.149.9-.735 1.255-1.149 1.386-2.419.26-2.515-.67-4.918 1.764-6.387 1.957-1.181 4.207-1.735 6.12-2.9 1.749-1.067 4.846-.592 6.595.195z" fill="#B1C9AB" stroke="#4A5759" stroke-width="2" stroke-linecap="round" stroke-linejoin="round"/><path d="M19.123 674.419c2.348-.172 4.066.375 6.143 1.309.714.321 3.254 1.681 3.254 1.681" stroke="#4A5759" stroke-width="2" stroke-linecap="round" stroke-linejoin="round"/><rect x="32" y="390" width="311" height="362" rx="5" fill="#EFEDEA"/><path d="M32 395a5 5 0 015-5h301a5 5 0 015 5v27H32v-27z" fill="#C8BFB6"/><path d="M151.275 411v-1.484h.98v-4.48h-.98v-1.47h2.667l.406 1.673c.266-.639.604-1.115 1.015-1.428.415-.313.921-.469 1.519-.469.252 0 .476.021.672.063.196.037.38.091.553.161l-.413 3.108h-1.386v-1.372c-.42.075-.789.303-1.106.686-.318.378-.563.845-.735 1.4v2.128h1.47V411h-4.662zm10.242-3.073c.075.607.273 1.043.595 1.309.322.261.719.392 1.19.392.341 0 .67-.056.987-.168.317-.112.623-.261.917-.448l.889 1.204c-.35.299-.775.544-1.274.735-.495.191-1.059.287-1.694.287-.849 0-1.561-.168-2.135-.504a3.259 3.259 0 01-1.295-1.4c-.289-.593-.434-1.274-.434-2.044 0-.733.14-1.398.42-1.995.28-.602.688-1.08 1.225-1.435.541-.359 1.202-.539 1.981-.539.709 0 1.323.152 1.841.455.523.303.926.74 1.211 1.309.289.569.434 1.253.434 2.051 0 .126-.005.261-.014.406a4.353 4.353 0 01-.028.385h-4.816zm1.372-3.122c-.397 0-.716.142-.959.427-.243.285-.39.74-.441 1.365h2.73c-.005-.541-.11-.975-.315-1.302-.205-.327-.544-.49-1.015-.49zm9.046 4.69c.303 0 .588-.058.854-.175.27-.121.539-.275.805-.462l.987 1.4c-.327.28-.726.513-1.197.7-.467.187-.99.28-1.568.28-.798 0-1.484-.163-2.058-.49a3.374 3.374 0 01-1.323-1.372c-.308-.588-.462-1.269-.462-2.044 0-.775.156-1.463.469-2.065a3.53 3.53 0 011.344-1.428c.583-.345 1.274-.518 2.072-.518.564 0 1.066.079 1.505.238.443.154.849.385 1.218.693l-.959 1.33a3.257 3.257 0 00-.798-.413 2.631 2.631 0 00-.875-.147c-.5 0-.903.177-1.211.532-.304.35-.455.943-.455 1.778 0 .546.072.978.217 1.295.144.313.34.537.588.672.252.131.534.196.847.196zm10.711-.637c0 .28.038.483.112.609.08.126.206.222.378.287l-.455 1.456c-.438-.042-.809-.138-1.113-.287a1.691 1.691 0 01-.707-.693 2.577 2.577 0 01-1.092.763 3.906 3.906 0 01-1.358.245c-.765 0-1.376-.217-1.834-.651-.452-.439-.679-1.001-.679-1.687 0-.807.315-1.43.945-1.869.635-.439 1.526-.658 2.674-.658h1.001v-.28c0-.761-.49-1.141-1.47-1.141a5.19 5.19 0 00-.917.105 7.583 7.583 0 00-1.12.287l-.511-1.47c.481-.182.98-.32 1.498-.413.523-.093.99-.14 1.4-.14 1.106 0 1.923.226 2.45.679.532.448.798 1.097.798 1.946v2.912zm-3.472.798c.238 0 .488-.07.749-.21.262-.145.46-.348.595-.609v-1.204h-.546c-.616 0-1.068.096-1.358.287-.289.187-.434.462-.434.826 0 .285.087.509.259.672.178.159.423.238.735.238zm9.725-6.335c.97 0 1.666.355 2.086 1.064.42.709.63 1.668.63 2.877 0 .765-.112 1.449-.336 2.051-.224.597-.549 1.069-.973 1.414-.425.341-.941.511-1.547.511-.724 0-1.312-.259-1.764-.777v3.409l-2.212.231v-10.535h1.96l.098.833c.303-.387.634-.663.994-.826a2.497 2.497 0 011.064-.252zm-.686 1.631c-.257 0-.483.077-.679.231a2.352 2.352 0 00-.539.63v3.136c.154.229.315.397.483.504.172.107.375.161.609.161.392 0 .697-.177.917-.532.219-.359.329-.957.329-1.792 0-.616-.045-1.092-.133-1.428-.089-.341-.217-.576-.385-.707a.932.932 0 00-.602-.203zm6.623 4.725c0-.285.07-.544.21-.777.14-.238.329-.427.567-.567.238-.145.5-.217.784-.217.29 0 .551.072.784.217.238.14.427.329.567.567.14.233.21.492.21.777 0 .28-.07.539-.21.777-.14.238-.329.427-.567.567a1.452 1.452 0 01-.784.217 1.48 1.48 0 01-.784-.217 1.572 1.572 0 01-.567-.567 1.505 1.505 0 01-.21-.777zm12.231-6.356c.527 0 .917.173 1.169.518.256.341.385.894.385 1.659V411h-1.897v-5.25c0-.261-.026-.446-.077-.553-.047-.107-.145-.161-.294-.161a.749.749 0 00-.364.105c-.122.065-.257.191-.406.378V411h-1.554v-5.25c0-.261-.026-.446-.077-.553-.047-.107-.145-.161-.294-.161a.749.749 0 00-.364.105c-.122.065-.257.191-.406.378V411h-1.925v-7.434h1.624l.147.721c.233-.317.469-.558.707-.721.238-.163.52-.245.847-.245.28 0 .518.072.714.217.2.14.343.362.427.665.224-.261.471-.474.742-.637.27-.163.569-.245.896-.245zm7.015 0c.971 0 1.666.355 2.086 1.064.42.709.63 1.668.63 2.877 0 .765-.112 1.449-.336 2.051-.224.597-.548 1.069-.973 1.414-.424.341-.94.511-1.547.511-.723 0-1.311-.259-1.764-.777v3.409l-2.212.231v-10.535h1.96l.098.833c.304-.387.635-.663.994-.826a2.5 2.5 0 011.064-.252zm-.686 1.631a1.07 1.07 0 00-.679.231 2.37 2.37 0 00-.539.63v3.136c.154.229.315.397.483.504.173.107.376.161.609.161.392 0 .698-.177.917-.532.22-.359.329-.957.329-1.792 0-.616-.044-1.092-.133-1.428-.088-.341-.217-.576-.385-.707a.93.93 0 00-.602-.203zm10.761.014v2.338h.973v1.659h-.973V411h-2.121l-.014-2.037h-4.018v-1.47l2.695-6.44 1.883.693-2.296 5.558h1.743l.259-2.338h1.869z" fill="#192825"/><rect x="33" y="391" width="309" height="360" rx="4" stroke="#4A5759" stroke-width="2"/><path d="M32 422h311" stroke="#4A5759" stroke-width="2"/><path d="M318.5 405c.5 3 2.76 5.321 4.052 6.007.897-1.346 2.744-2.164 3.849-3.208.755-.714 1.604-1.268 1.604-2.406 0-1.18-.505-2.393-2.005-1.893-3 1-3.5 4.05-3.5 1 0-1.682.09-3.95-2-3-1.636.743-2 1.5-2 3.5z" fill="#4A9D63" stroke="#4A5759" stroke-width="2" stroke-linecap="round" stroke-linejoin="round"/><path d="M306.022 400l-.118.152c-.789 1.303.826 5.823 1.288 6.746.33.66 1.73 2.084.434 2.084-1.189 0-2.177.776-2.727 1.765-.626 1.127-.604 2.704-1.283.802-.294-.825-.097-1.843-.424-3.151-.447-1.787-3.442-2.84-4.075-2.845-.074.033-.117.05-.117.043 0-.029.042-.044.117-.043.51-.229 2.511-1.259 2.592-1.311 1.657-1.065 2.993-2.546 4.195-4.09a.821.821 0 01.118-.152z" fill="#F8CD5E" stroke="#4A5759" stroke-width="2" stroke-linecap="round" stroke-linejoin="round"/><path d="M284 402c2.237-1.006 3.5.001 4.5.5 1.905.952 2.265 3.667 2.5 5 .142.808-.93 4.356-3.103 4.356-3.094 0-6.897-.762-6.897-4.651 0-1.195.763-4.199 3-5.205z" fill="#9E483E" stroke="#4A5759" stroke-width="2" stroke-linecap="round" stroke-linejoin="round"/><path d="M414.109 935.327c.414-4.921-.613-8.295-2.031-12.445l-84.845-1.001s-3.052 4.113-3.5 7.354c-.582 4.214-.965 7.615.644 9.559 1.301 1.572 1.322-1.915 1.932-3.309.61-1.394 2.107-3.47 2.898-5.147 1.073-2.277 3.08-3.507 4.829-5.148 1.21-1.136 2.434-1.108 3.863-1.838 1.544-.79 2.476-.138 4.253-.138 3.241 0 6.328-.332 9.575-.332h6.512c.845 0 1.444.262 2.192.737.724.459-.275 1.302-.58 2.08-1.307 3.335-3.89 3.586-6.528 5.652-3.062 2.397-5.089 3.194-8.125 5.633-1.569 1.261-2.473 1.944-3.917 3.387-1.52 1.521-2.678 2.178-3.627 4.216-1.516 3.257-2.05 6.646-.145 9.444 1.892 2.777 3.466 4.558 5.822 6.825 1.421 1.367 2.02 1.654 3.592 2.785 1.173.843 1.877 1.233 3.127 1.915.758.413.114-.659.727-.288.635.384.388-.222.95-.735.868-.794.344-2.357.982-4.045 1.575-4.168 1.892-6.588 4.185-10.295.718-1.16 1.19-2.17 1.932-3.309.66-1.013 1.564-1.22 2.254-2.207 1.224-1.752 1.425-2.141 2.855-3.676.789-.847 1.577-1.529 2.17-2.207.735-.838 1.943-.587 2.702-1.405.594-.641 3.965-.716 5.326 0 .574.302 1.001.446 1.322 1.068.374.725.101 1.313.064 2.154-.092 2.104-.53 3.258-1.225 5.21-1.831 5.145-5.525 7.673-8.189 10.714-2.119 2.421-4.701 8.048-2.17 10.939 2.372 2.709 5.484 1.469 8.683 1.469h4.352c1.557 0 3.206.663 4.787.663 3.041 0 4.965.619 7.528 2.246 1.557.987 3.137 1.777 4.643 2.872 1.249.907 1.226 1.997 2.566 2.678.534.271 1.02-.27 1.932-1.103.839-.767.966-6.258.966-7.356 0-3.414.829-5.159 2.254-8.087 1.31-2.695.873-3.223.322-6.619-.607-3.732-.424-4.093-2.576-6.986-1.871-2.514-3.389-2.9-5.151-5.515-.777-1.153-3.803-3.761-4.186-5.148-.458-1.659.569-3.704 1.288-5.237.756-1.612 3.78-1.191 5.357-1.51.725-.146 1.258 0 1.886 0 .629 0 1.165.352 1.886.663 2.816 1.216 4.95 3.307 6.319 5.044.847 1.075 1.838 2.065 2.821 3.572.763 1.169 1.086 2.162 1.757 3.148.291.427.524 2.031.725.994.11-.562.563-1.293.855-2.154.73-2.161.967-3.475 1.16-5.781z" fill="#B7C2B4"/><path d="M397.46 976.666c-11.912-11.398-19.317-40.078-22.858-56.256" stroke="#4A5759" stroke-width="2"/><path d="M409.503 922.882c1.417 4.15 2.444 7.524 2.031 12.445-.194 2.306-.431 3.62-1.161 5.781-.291.861-.745 1.592-.854 2.154-.202 1.037-.435-.567-.726-.994-.671-.986-.994-1.979-1.757-3.148-.982-1.507-1.973-2.497-2.821-3.572-1.369-1.737-3.502-3.828-6.318-5.044-.721-.311-1.258-.663-1.886-.663-.629 0-1.161-.146-1.886 0-1.577.319-2.71.892-3.466 2.504-.719 1.534-.475 2.796-.016 4.455.383 1.387.964 1.996 1.741 3.148 1.762 2.616 3.77 2.953 5.641 5.468 2.153 2.892 3.601 4.717 4.208 8.45.552 3.395.392 6.086-.919 8.781-1.425 2.928-2.547 6.196-2.547 9.61 0 1.097.403 3.541-.435 4.308-.912.833-2.154 1.337-3.337.736-1.341-.68-2.394-1.67-3.643-2.577-1.506-1.095-3.086-1.885-4.642-2.872-2.564-1.626-4.535-1.651-7.528-2.246-1.856-.369-2.908-.54-4.788-.663-1.697-.111-2.901 0-4.352 0-3.198 0-6.31 1.24-8.682-1.469-2.532-2.891.05-8.518 2.17-10.939 2.663-3.041 6.357-5.569 8.188-10.714.695-1.952 1.133-3.106 1.226-5.21.036-.841.309-1.429-.065-2.154-.321-.622-.747-.766-1.322-1.068-1.361-.716-3.242-.568-3.836.074-.758.818-1.732 1.315-2.467 2.154-.593.678-1.242 1.307-2.031 2.154-1.43 1.535-2.402 2.223-3.626 3.976-.69.987-.937 1.657-1.596 2.67-.743 1.139-1.298 1.656-2.015 2.816-2.294 3.708-2.294 6.584-3.869 10.751-.638 1.688-.792 3.515-1.66 4.308-.562.514-.381.642-1.016.258-.613-.371-1.208-.581-1.966-.994-1.251-.682-1.955-1.072-3.128-1.915-1.572-1.131-2.171-1.418-3.592-2.785-2.356-2.267-3.93-4.047-5.821-6.825-1.906-2.798-1.371-6.187.145-9.444.948-2.038 2.106-2.695 3.627-4.215 1.443-1.444 2.348-2.127 3.917-3.388 3.035-2.439 5.063-3.236 8.124-5.633 2.639-2.066 5.221-2.317 6.528-5.652.305-.778 1.304-1.621.581-2.08-.748-.475-1.347-.737-2.193-.737h-6.512c-3.246 0-6.333.332-9.575.332-1.777 0-2.663.389-4.207 1.178-1.429.731-2.127 1.405-3.337 2.541-1.749 1.641-2.828 2.62-3.901 4.897-.791 1.677-1.897 3.76-2.508 5.154-.61 1.394-1.275 4.959-2.575 3.388-1.61-1.945-1.87-6.555-1.288-10.77.447-3.24 2.897-7.721 2.897-7.721" stroke="#4A5759" stroke-width="2" stroke-linecap="round" stroke-linejoin="round"/><path d="M246.67 825.174c-1.37 2.983-.754 7.017-.723 10.219-3.446.01-5.062.24-8.633.24-2.239 0-1.958-6.083-1.958-7.619 0-3.716-.135-7.113.767-10.721.916-3.665 2.236-6.946 3.971-10.324.889-1.732 1.751-3.108 2.779-4.765.842-1.356 1.594-2.972 2.383-4.367.595-1.054 1.741-2.147 2.382-3.177 2.381-3.827 4.793-3.601 7.942-6.75.948-.948 3.225-2.892 4.765-5.162 1.362-2.009 1.794-4.196 2.779-5.559 2.595-3.593 3.187-7.791 6.282-10.887 1.809-1.808 3.697-3.037 3.985-5.777.088-.834 1.128-4.894 2.114-3.798 1.762 1.958 1.942 5.322 2.648 7.703 1.287 4.346.34 7.532-1.131 11.567-1.23 3.374-3.34 9.297-5.956 11.913-2.137 2.136-4.629 4.985-6.751 7.147-6.215 6.332-11.843 13.379-14.809 21.959-.919 2.659-1.667 5.616-2.836 8.158zm55.765 4.032c-1.971 1.827-4.253 3.307-6.354 4.97-.649-.234-2.969-.423-3.818-.042-.613.274-1.797.042-2.469.042h-10.351c1.947 0 2.454-1.505 2.741-1.794 1.988-2.004 3.917-4.037 5.559-6.353 2.063-2.911 4.191-4.685 6.353-7.544 1.829-2.42 4.087-4.765 6.353-6.751 1.734-1.519 2.918-3.369 4.765-4.765 3.136-2.37 8.503-7.244 11.178-10.148.997-1.081 2.361-2.043 3.514-2.955 1.081-.856 1.814-2.394 2.374-3.636.783-1.735 1.68-4.228 3.092-5.508 1.067-.968 3.081.33 3.081 1.574 0 2.714-1.063 5.037-1.71 7.644-.683 2.756-3.19 4.818-4.769 7.028-2.211 3.095-7.605 7.734-8.588 11.583-.958 3.756-2.511 8.192-5.392 11.096-1.841 1.854-3.643 3.782-5.559 5.559zm-24.242-12.607c-3.596 5.394-6.106 11.925-6.318 18.462h-9.837c-.763 0-1.872.2-2.611-.011-.233-.067-.179-1.918-.105-2.18.58-2.027.501-4.747 1.667-6.667.577-.949.918-2.106 1.232-3.171l.027-.092c.413-1.399 1.125-2.676 1.678-4.022.999-2.426 2.286-4.74 3.567-7.028 2.661-4.751 6.693-8.748 10.024-13.031.678-.872 1.563-1.58 2.401-2.285.824-.692 1.385-1.667 2.098-2.459 1.767-1.963 2.961-4.376 4.674-6.352 2.737-3.158 3.578-6.89 5.245-10.595 2.296-5.103 5.294-9.125 9.134-12.965 1.012-1.012 2.137-2.24 3.287-3.077.942-.685 1.864-1.573 2.844-2.203.677-.435.957-1.989 1.422-.944.397.894-.22 2.001-.42 2.821-.356 1.466-.445 2.287-1.527 3.368-1.656 1.656-2.553 3.636-3.986 5.443-2.145 2.705-1.708 7.087-2.84 10.319-.864 2.468-2.243 4.919-2.82 7.46-.288 1.265-.854 2.52-1.213 3.776-.378 1.323-.408 2.693-1.049 3.928-.639 1.234-1.102 2.504-1.888 3.672-.924 1.373-2.087 2.573-3.019 3.951-1.679 2.482-3.434 5.181-5.536 7.331-2.13 2.179-4.422 3.987-6.131 6.551z" fill="#B7C2B4"/><path d="M296.789 835.118c2.288-1.797 4.771-3.506 6.918-5.481 2.087-1.92 4.315-3.683 6.32-5.688 3.138-3.138 3.552-8.351 4.596-12.41 1.07-4.16 4.555-6.652 6.964-9.997 1.719-2.388 4.449-4.617 5.194-7.596.704-2.817 1.861-5.328 1.861-8.262 0-1.344-2.193-2.746-3.355-1.7-1.537 1.383-2.515 4.077-3.367 5.952-.611 1.343-1.408 3.005-2.586 3.93-1.255.986-2.741 2.026-3.826 3.194-2.914 3.139-6.731 5.459-10.146 8.021-2.012 1.509-3.685 3.356-5.574 4.999-2.467 2.146-4.925 4.314-6.917 6.929-2.355 3.09-5.211 5.817-7.458 8.963-1.788 2.503-4.039 4.705-6.205 6.871-.312.312-1.866 2.068-1.551 2.068h11.273c.731 0 2.021.251 2.688-.046.926-.411 4.779.417 5.171-.367" stroke="#4A5759" stroke-width="2" stroke-linecap="round" stroke-linejoin="round"/><path d="M327.115 783.542c0 1.474.039 2.864-.461 4.272-.421 1.183-.746 2.363-1.231 3.538-1.554 3.762-4.733 6.66-7.571 9.45-1.179 1.16-2.364 1.851-3.811 2.615-1.671.883-3.261 2.65-4.614 3.965-1.966 1.912-3.016 4.83-3.725 7.383-.7 2.516-2.872 4.883-4.854 6.46-1.211.963-2.379 1.941-3.503 3.007-1.027.974-2.095 2.198-3.265 2.991-1.028.698-1.511 1.796-2.426 2.581-.627.537-1.193 1.267-1.795 1.845-.556.535-.989 1.151-1.504 1.727-.24.268-.797.671-.922.922m-17.162.864c0-6.835 2.573-13.717 6.333-19.357 1.709-2.564 4.001-4.373 6.131-6.551 2.102-2.15 3.857-4.849 5.536-7.331.932-1.378 2.095-2.578 3.019-3.951.786-1.169 1.249-2.438 1.888-3.672.641-1.235.671-2.605 1.049-3.928.359-1.256.925-2.511 1.213-3.776.577-2.541 1.956-4.992 2.82-7.46 1.132-3.233 2.319-7.109 4.464-9.814 1.433-1.807 2.33-3.787 3.987-5.443 1.081-1.082 1.17-1.902 1.526-3.369.2-.82.817-1.927.42-2.82-.465-1.046-.745.509-1.422.944-.98.63-1.901 1.517-2.844 2.203-1.15.836-2.275 2.065-3.287 3.077-3.84 3.84-8.462 7.357-10.758 12.46-1.667 3.704-2.508 7.437-5.245 10.595-1.713 1.976-2.907 4.389-4.674 6.352-.713.792-1.274 1.766-2.098 2.459-.838.705-1.723 1.413-2.401 2.285-3.331 4.282-7.363 8.28-10.024 13.031-1.281 2.288-2.568 4.602-3.566 7.028-.554 1.345-1.266 2.623-1.679 4.021-.322 1.091-.665 2.287-1.259 3.264-1.166 1.92-1.087 4.64-1.666 6.667-.075.262-.128 2.113.104 2.18.739.211 1.848.011 2.611.011h9.861" stroke="#4A5759" stroke-width="2" stroke-linecap="round" stroke-linejoin="round"/><path d="M307.843 758.427c-2.861 4.41-7.011 7.815-9.817 12.224-1.142 1.794-2.666 3.257-3.544 5.216-.711 1.587-1.516 3.129-2.233 4.707-.506 1.114-.766 2.413-1.124 3.584-.384 1.259-1.061 2.386-1.444 3.638-.604 1.977-1.434 4.019-2.541 5.778-2.519 4.001-4.995 7.982-7.757 11.849-2.007 2.81-4.099 5.294-5.724 8.372-1.518 2.877-3.981 5.429-5.055 8.533-1.05 3.032-2.884 5.743-4.039 8.746-.457 1.187-1.257 2.047-1.257 3.424m-15.393.341c0-3.238-.683-7.401.722-10.459 1.168-2.542 1.917-5.499 2.836-8.158 2.966-8.581 9.138-15.253 15.353-21.585 2.122-2.162 4.176-4.417 6.312-6.554 2.616-2.615 3.879-6.87 5.109-10.244 1.471-4.035 3.16-9.857 1.873-14.203-.706-2.381-.886-5.745-2.648-7.703-.986-1.096-2.026 2.963-2.114 3.798-.288 2.739-2.176 3.969-3.985 5.777-3.095 3.096-6.366 5.796-8.961 9.389-.985 1.364-1.637 3.174-2.166 4.761-.429 1.288-1.566 2.422-2.514 3.37-3.149 3.149-6.767 6.284-9.148 10.111-.641 1.03-1.397 2.009-1.993 3.062-.788 1.396-1.445 2.91-2.287 4.267-1.028 1.656-2.24 3.269-3.129 5.002-1.735 3.378-3.471 7.167-4.387 10.832-.902 3.608-1.391 6.876-1.391 10.593 0 1.535-.313 8.184 1.926 8.184 3.654 0 7.219-.481 10.833-.481" stroke="#4A5759" stroke-width="2" stroke-linecap="round" stroke-linejoin="round"/><path d="M278.247 756.601c-1.147 7.008-5.084 12.647-7.851 19.031-3.456 7.976-9.87 14.509-15.126 21.225a150.062 150.062 0 00-7.837 11.02c-1.083 1.671-1.888 3.751-2.648 5.59-.849 2.056-1.387 4.358-2.407 6.326-2.375 4.58-2.167 10.487-2.167 15.527" stroke="#4A5759" stroke-width="2" stroke-linecap="round" stroke-linejoin="round"/><path d="M419.261 827.185H135.533a2.533 2.533 0 00-2.533 2.533v90.472c0 1.257.921 2.324 2.165 2.507l4.94.726c.122.018.245.027.368.027h278.788a2.534 2.534 0 002.534-2.533v-91.199a2.534 2.534 0 00-2.534-2.533z" fill="#4A5759"/><path d="M133 829.718a2.533 2.533 0 012.533-2.533h283.222a2.533 2.533 0 012.533 2.533v13.68H133v-13.68z" fill="#C8BFB6"/><path d="M135.533 828.185h283.728c.847 0 1.534.687 1.534 1.533v91.199c0 .846-.687 1.533-1.534 1.533H134.072a.072.072 0 01-.072-.072v-92.66c0-.846.686-1.533 1.533-1.533zM133 843.905h288.288" stroke="#4A5759" stroke-width="2"/><rect x="157.319" y="860.625" width="48.494" height="4.079" rx="2.039" fill="#93BB94"/><rect x="168.65" y="871.049" width="48.494" height="4.079" rx="2.039" fill="#B7C2B4"/><rect x="317.758" y="881.472" width="28.553" height="4.079" rx="2.039" fill="#BAC3C5"/><rect x="168.65" y="902.321" width="39.43" height="4.079" rx="2.039" fill="#B7C2B4"/><rect x="210.799" y="902.321" width="128.714" height="4.079" rx="2.039" fill="#BAC3C5"/><rect x="181.793" y="881.472" width="133.246" height="4.079" rx="2.039" fill="#B1C9AB"/><rect x="182.247" y="891.896" width="198.509" height="4.079" rx="2.039" fill="#B1C9AB"/><path d="M296.628 776.004l4.115-.979-1.176 8.817h-2.939v-7.838z" fill="#D39264"/><path d="M303.937 772.968c2.329-4.688 8.229-10.581 8.229-10.581l2.645-1.763 9.993-2.939 11.168.881s8.411 2.994 12.051 7.054c2.708 3.022 4.996 9.111 4.996 9.111l3.527 12.932 1.469 14.401v10.875s-2.357 5.708-4.996 8.523c-3.447 3.677-11.168 6.466-11.168 6.466l-12.344 2.351-15.871-2.351s-8.957-4.38-12.344-9.405c-3.27-4.85-3.789-8.561-4.115-14.401-.365-6.541 3.233-16.459 3.233-16.459s.9-9.41 3.527-14.695z" fill="#818181"/><path d="M304.31 833.691l5.36-7.526 10.722 3.612-2.085 8.732-2.978-1.506v-3.312l-1.787 3.312h-3.872l1.49-4.516-3.277 3.011-3.573-1.807zm32.165 4.818l-1.49-8.732 10.177-2.437 3.821 3.642v2.709l-2.382 2.71-3.196 1.505-3.059-4.215-1.191 4.818h-2.68zm-15.144-52.316l4.703-2.645 5.29 2.645-5.29 5.291-4.703-5.291zm-12.488 33.554c.655 2.09 1.576 3.57 2.931 5.31 1.155 1.118.606 1.056 3.497 2.296 2.282.979 4.3 1.842 6.802 2.233 2.399.374 5.571 1.074 7.99.433.877-.232 1.806.044 2.686-.137 1.291-.266 2.635-.454 3.895-.815 1.727-.494 2.899-1.54 4.406-2.338 2.386-2.51 4.023-5.019 4.638-8.126.167-.844.308-3.063.355-3.887.055-.96-5.911 1.843-5.911.838 0-1.531 4.397-6.428 4.984-7.826-.453-1.051-.433-1.373-.782-2.466-.416-1.303-1.046-1.943-1.886-2.973-1.322-1.62-2.499-2.916-4.075-4.343-1.877-1.701-3.394-1.419-5.624-2.516-4.039-1.987-10.942-.648-14.892.712-1.915.659-3.428 2.175-4.928 3.417-1.2.994-2.353 2.169-3.196 3.471a12.954 12.954 0 00-1.877 4.698c-.361 1.912 4.23 3.354 1.877 7.826.054.433-1.833-.986-1.775-.559.217 1.599.393 3.183.885 4.752z" fill="#E5CEB1"/><path d="M310.696 815.584v-16.753l15.283-1.763 12.932.588 1.176 7.641h5.29l-5.29 9.405-16.753 1.47-12.638-.588z" fill="#F2F2F2"/><path d="M310.336 826.815c-1.538 1.246-2.701 2.503-3.72 4.202-.445.742-1.82 2.279-1.82 3.145 0 .594 2.798 1.885 3.185 1.512.46-.443 3.345-5.365 3.064-2.837-.103.931-2.085 4.488-.174 4.577.849.04 1.436.532 2.235.709 1.076.239 1.434-1.941 1.673-2.623.117-.335.42-1.902 1.044-1.833.15.017-.188 3.104-.188 3.346 0 1.384 1.627 1.699 2.891 1.338 1.057-.302 1.42-3.897 1.445-4.737.027-.899 0-2.729 0-3.629" stroke="#9F4100" stroke-width="1.176" stroke-linecap="round" stroke-linejoin="round"/><path d="M328.737 757.352c.267-2.692-.408-5.481-.408-8.191" stroke="#D66C22" stroke-width="1.176" stroke-linecap="round" stroke-linejoin="round"/><path d="M334.874 830.351c0 2.209.535 4.343.744 6.543.075.791.151 1.774 1.024 2.127.452.182 2.534.017 2.89-.323.532-.511.14-2.637.14-3.366 0-.295-.183-1.612.252-1.589 1.288.069 1.319 2.19 2.273 2.72.562.312 1.037 1.5 1.642 1.629 1.016.216 1.939-.699 2.876-.956.813-.223-.124-2.287-.477-2.666-.223-.238-.37-.556-.506-.848-.041-.09-.634-.579-.378-.579.323 0 .853 1.64 1.136 1.912.432.415 1.175.516 1.768.485 3.614-.193-1.252-6.697-2.526-7.512" stroke="#9F4100" stroke-width="1.176" stroke-linecap="round" stroke-linejoin="round"/><path d="M310.988 763.753c1.526-1.423 3.006-2.764 5.132-3.454 1.846-.678 3.175-1.506 5.155-1.836 1.962-.327 4.475-.882 6.466-.882 7.133 0 11.684 1.306 17.634 5.291 3.247 2.174 6.773 7.306 7.642 9.698.909 4.314 3.395 8.516 3.395 12.953 0 1.581.76 2.939.76 4.52 0 .928.688 2.999.688 3.987 0 1.784-.065 1.946 0 3.191.119 2.302.704 3.548.869 5.848.156 2.176.277 3.418 0 5.583-.736 5.748-3.151 9.65-6.764 13.457-3.661 3.857-8.514 5.91-13.828 7.162-3.073.724-5.869 1.008-9.049.872-2.834-.121-7.166.268-9.695-.872-2.93-1.321-4.911-1.514-7.72-3.043-3.812-2.076-7.109-4.344-9.625-7.74-2.361-3.186-4.15-7.981-4.15-11.821 0-3.286.102-5.916.825-10.187.632-1.491.684-3.132.916-4.702.226-1.536.823-2.94.923-4.508.104-1.612.738-3.204.897-4.828.172-1.75.101-3.462.589-5.184.961-3.391 3.048-6.882 5.413-9.684l.064-.075c1.219-1.444 2.049-2.427 3.463-3.746z" stroke="#282E2F" stroke-width="1.763" stroke-linecap="round" stroke-linejoin="round"/><path d="M313.782 780.394c-1.488.257-2.099.407-2.643 1.751-.333.825.33 1.482 1.027 1.913 1.438.889 3.232.112 3.232-1.555 0-1.469-.891-2.775-2.591-2.775-.883 0-1.065.02-1.565.715-.383.533-1.009 1.283 0 1.283" stroke="#282E2F" stroke-width="1.176" stroke-linecap="round" stroke-linejoin="round"/><path d="M313.199 781.613c-3.68 1.865 1.59 1.931.297-.092-.399-.625-1.432.699-1.535 1.189-.135.638.554 1.404 1.023 1.036.311-.243 1.179.02 1.179-.373 0-.461-.361-.419 0-.419.619 0 1.027-3.187.107-1.616" stroke="#282E2F" stroke-width="1.176" stroke-linecap="round" stroke-linejoin="round"/><path d="M313.464 780.12c-1.499-.24-2.135-.389-2.937.886-.257.408 0 1.773 0 2.248 0 1.414 3.082 1.193 3.869 1.05 1.225-.222 1.712-2.818.84-3.566-.368-.316-.203-.545-.711-.63-.192-.032-.571-.205-.746-.303-.756-.42-1.946-.023-2.623.315m28.01-.421c-1.651.722-3.214 2.662-1.724 4.067.747.705 2.367 1.007 3.114.102 1.367-1.658-.389-4.92-2.683-3.717-.261.136-1.369.942-.479.361.558-.364 1.559-.931 2.252-.52.851.506 1.676 1.275 1.676 2.249 0 1.348.844-.517.539-1.322-.282-.746-.305-.863-1.173-1.119-.406-.119-1.316-.285-1.522.102" stroke="#282E2F" stroke-width="1.176" stroke-linecap="round" stroke-linejoin="round"/><path d="M340.89 780.919c-.581 0-1.751-.295-1.94.418-.152.575-.396 1.17.324 1.491.635.284.942-.256.598-.779-.344-.526-1.838-.818-2.299-.283-1.118 1.298 3.422 1.912 2.838-.35-.262-1.016-3.38.243-1.03.52" stroke="#282E2F" stroke-width="1.176" stroke-linecap="round" stroke-linejoin="round"/><path d="M339.103 779.799c-1.284.054-2.378.594-2.378 1.83 0 .706.47 1.997 1.405 2.181 1.222.241 2.874.448 3.504-.556.379-.604.165-2.457-.417-3.029-.907-.893-1.737-.526-2.982-.526" stroke="#282E2F" stroke-width="1.176" stroke-linecap="round" stroke-linejoin="round"/><path fill-rule="evenodd" clip-rule="evenodd" d="M342.81 792.071c-6.655 0-12.05-5.395-12.05-12.05 0-6.655 5.395-12.05 12.05-12.05 6.655 0 12.05 5.395 12.05 12.05 0 6.655-5.395 12.05-12.05 12.05zm0-2.351a9.699 9.699 0 01-9.699-9.699 9.699 9.699 0 019.699-9.699c5.356 0 9.699 4.342 9.699 9.699s-4.343 9.699-9.699 9.699zm-32.37 2.351c-6.352 0-11.501-5.395-11.501-12.05 0-6.655 5.149-12.05 11.501-12.05 6.353 0 11.502 5.395 11.502 12.05 0 6.655-5.149 12.05-11.502 12.05zm0-2.351c-5.112 0-9.257-4.342-9.257-9.699s4.145-9.699 9.257-9.699c5.113 0 9.258 4.342 9.258 9.699s-4.145 9.699-9.258 9.699z" fill="#CECECE"/><path d="M354.86 783.842v-8.229h3.527v8.229h-3.527z" fill="#D49264"/><path d="M326.326 783.445c-.947.749-3.378 1.695-4.446 2.257-.774.407-.226 1.394.411 1.961 1.137 1.565 1.763 1.763 3.456 3.792" stroke="#9F4100" stroke-width="1.176" stroke-linecap="round" stroke-linejoin="round"/><path d="M326.177 791.24c1.387-1.17 2.786-2.357 4.07-3.64.366-.367.842-.775 1.075-1.216.135-.254-.311-.363-.467-.455-1.094-.647-3.059-1.602-4.529-2.484" stroke="#9F4100" stroke-width="1.176" stroke-linecap="round" stroke-linejoin="round"/><path d="M326.047 745.158c-1.268 1.724.207 3.093 1.694 3.709 2.628 0 4.241-1.75 2.468-4.311-.933-1.348-3.329-.532-4.162.602z" fill="#F1BD69" stroke="#D66C22" stroke-width="1.176" stroke-linecap="round" stroke-linejoin="round"/><path d="M327.907 739.751c-2.729.562-4.547 1.017-6.008 3.48-1.04 1.386-2.168-.309-2.168-1.446 0-1.135 1.368-2.406 2.221-2.997.777-.537 1.367-1.058 2.195-1.579.604-.38 1.302-.587 1.967-.843 1.421-.547 4.002-.191 5.42.174 1.645.423 5.058 2.122 5.058 4.054 0 .664-.242 4.187-1.739 2.69-.853-.852-1.778-1.803-2.73-2.582-1.081-.885-2.885-1.225-4.216-.951zm5.045-7.721c-4.881-1.997-11.905-.91-14.907 3.493-1.474 0-1.984-1.855-1.472-2.821.274-.518.466-.725.881-1.141.371-.37 1.563-1.053 1.764-1.504 0 0 3.74-1.438 4.849-1.707 2.416-.588 5.027-.31 7.454-.067 2.26.226 6.434 1.035 7.601 3.278.693 1.334 1.353 2.047-.335 3.078-.648.396-.983.061-1.404-.36l-.014-.014c-1.09-1.09-3.021-1.664-4.417-2.235z" fill="#F1BD69" stroke="#D66C22" stroke-width="1.176" stroke-linecap="round" stroke-linejoin="round"/><path d="M298.774 805.137c2.729 4.013 5.502 7.243 9.716 9.728.357.211 1.159.928 1.485.348.39-.692.602-1.579.602-2.368 0-2.485-1.873-4.835-2.903-6.999-.711-1.492-1.311-3.156-2.155-4.564" stroke="#536264" stroke-width="1.176" stroke-linecap="round" stroke-linejoin="round"/><path d="M310.577 798.392c.026 3.877-.132 7.813.014 11.683.053 1.42-.191 4.09-.191 5.509m.294-17.341c4.409-.587 9.568-.487 14.255-.815 3.322-.232 6.63-.241 9.957-.241 1.707 0 4.538-.782 4.576 1.606.075 4.606.482 18.417.482 13.811m-30.351 3.372c3.37 0 6.727.561 10.09.468 4.352-.119 10.176.013 14.504-.468 2.118-.235 7.715-.98 5.584-.98" stroke="#536264" stroke-width="1.176" stroke-linecap="round" stroke-linejoin="round"/><path d="M349.118 802.005c-2.163 2.488-3.959 5.187-5.968 7.789-.703.91-2.155 2.092-2.221 3.292-.03.531-.691.872-.723 1.445-.064 1.156 1.011 1.04 1.914.83 2.804-.655 5.56-1.935 8.189-3.119 1.428-.642 3.782-1.832 4.35-3.251" stroke="#536264" stroke-width="1.176" stroke-linecap="round" stroke-linejoin="round"/><path d="M299.82 775.025c-1.06-.038-2.374-.343-3.236.572-.577.613-.258 3.505-.289 4.388-.042 1.166-.066 2.166.111 3.286.191 1.207 1.887.672 2.462.477m56.03-8.48c.793 0 4.095-.497 4.095 1.017v5.005c0 1.59.207 2.89-1.686 2.89" stroke="#FEFEFE" stroke-width="1.176" stroke-linecap="round" stroke-linejoin="round"/><path d="M323.517 782.376c-1.38-.138-.672-1.847-.584-2.721 1.496.15 3.542.113 5.038.262.693.07 1.89-.202 2.493.021.496.184.241 1.723.207 2.065-.137 1.367-2.273.62-3.505.497-1.226-.123-2.434-.002-3.649-.124z" fill="#536264" stroke="#536264" stroke-width="1.176" stroke-linecap="round" stroke-linejoin="round"/><circle cx="342.81" cy="780.021" r="12.05" stroke="#FEFEFE" stroke-width="1.176" stroke-linecap="round" stroke-linejoin="round"/><circle cx="342.81" cy="780.021" r="9.699" stroke="#FEFEFE" stroke-width="1.176" stroke-linecap="round" stroke-linejoin="round"/><ellipse cx="310.734" cy="780.021" rx="11.796" ry="12.05" stroke="#FEFEFE" stroke-width="1.176" stroke-linecap="round" stroke-linejoin="round"/><ellipse cx="310.734" cy="780.021" rx="9.494" ry="9.699" stroke="#FEFEFE" stroke-width="1.176" stroke-linecap="round" stroke-linejoin="round"/><path d="M354.076 783.831c.579.124 3.055 0 4.231 0" stroke="#FEFEFE" stroke-width="1.176" stroke-linecap="round" stroke-linejoin="round"/><path d="M339.918 814.276c1.334-2.39 3.087-4.552 4.392-6.925.344-.625 1.024-1.113 1.315-1.731.224-.475-1.758-.292-1.956-.288-1.062.019-3.174.288-3.174.288" stroke="#536264" stroke-width="1.176" stroke-linecap="round" stroke-linejoin="round"/><path d="M325.994 803.24l-.07.089c-.463.766.486 3.423.757 3.965.195.389 1.017 1.226.256 1.226-.699 0-1.28.455-1.603 1.037-.368.663-.355 1.589-.754.471-.174-.484-.058-1.083-.25-1.852-.262-1.05-2.023-1.669-2.395-1.672-.044.019-.069.029-.069.025 0-.017.025-.026.069-.025.3-.135 1.476-.74 1.524-.771.974-.626 1.759-1.496 2.465-2.404a.519.519 0 01.07-.089z" fill="#F9D372" stroke="#536264" stroke-width="1.176" stroke-linecap="round" stroke-linejoin="round"/></svg>