<svg width="1440" height="1179" fill="none" xmlns="http://www.w3.org/2000/svg"><path d="M1336.83 890.442c.82-9.713-1.21-16.373-4.01-24.562l-167.46-1.977s-6.02 8.118-6.91 14.514c-1.14 8.318-1.9 15.03 1.28 18.869 2.56 3.101 2.6-3.78 3.81-6.532 1.2-2.752 4.16-6.849 5.72-10.16 2.11-4.493 6.08-6.92 9.53-10.16 2.39-2.241 4.8-2.186 7.62-3.628 3.05-1.559 4.89-.272 8.4-.272 6.39 0 12.49-.654 18.9-.654h12.85c1.67 0 2.85.516 4.33 1.453 1.42.906-.55 2.57-1.15 4.106-2.58 6.582-7.68 7.077-12.88 11.155-6.05 4.731-10.05 6.304-16.04 11.119-3.1 2.489-4.88 3.836-7.73 6.685-3 3.002-5.29 4.299-7.16 8.321-2.99 6.429-4.05 13.117-.29 18.64 3.74 5.481 6.84 8.995 11.49 13.469 2.81 2.7 3.99 3.266 7.09 5.498 2.32 1.664 3.71 2.434 6.18 3.779 1.49.815.22-1.299 1.43-.568 1.25.758.77-.438 1.88-1.451 1.71-1.567.68-4.652 1.93-7.983 3.11-8.226 3.74-13.003 8.27-20.32 1.41-2.29 2.34-4.282 3.81-6.532 1.3-1.999 3.09-2.406 4.45-4.354 2.41-3.46 2.81-4.226 5.63-7.257 1.56-1.671 3.11-3.017 4.29-4.354 1.44-1.655 3.83-1.16 5.33-2.774 1.17-1.266 7.82-1.413 10.51 0 1.13.596 1.97.88 2.61 2.107.74 1.432.2 2.593.13 4.252-.19 4.152-1.05 6.431-2.42 10.283-3.62 10.154-10.91 15.144-16.16 21.147-4.19 4.778-9.28 15.883-4.29 21.59 4.68 5.347 10.83 2.9 17.14 2.9h8.59c3.07 0 6.33 1.308 9.45 1.308 6 0 9.8 1.223 14.86 4.433 3.07 1.949 6.19 3.508 9.16 5.668 2.46 1.792 2.42 3.943 5.06 5.286 1.06.534 2.02-.533 3.82-2.178 1.65-1.512 1.9-12.351 1.9-14.517 0-6.738 1.64-10.183 4.45-15.963 2.59-5.318 1.73-6.36.64-13.062-1.2-7.367-.84-8.08-5.09-13.789-3.69-4.963-6.69-5.724-10.16-10.886-1.54-2.274-7.51-7.423-8.26-10.16-.91-3.275 1.12-7.31 2.54-10.337 1.49-3.182 7.46-2.35 10.57-2.979 1.43-.29 2.48 0 3.72 0 1.24 0 2.3.693 3.73 1.308 5.55 2.4 9.76 6.526 12.47 9.955 1.67 2.123 3.63 4.076 5.56 7.049 1.51 2.308 2.15 4.268 3.47 6.214.58.843 1.04 4.009 1.43 1.962.22-1.109 1.12-2.551 1.69-4.251 1.44-4.265 1.91-6.859 2.29-11.41z" fill="#B7C2B4"/><path d="M1303.97 972.034c-23.51-22.497-38.13-79.103-45.12-111.034" stroke="#4A5759" stroke-width="3"/><path d="M1327.74 865.88c2.8 8.189 4.82 14.85 4.01 24.563-.38 4.55-.85 7.144-2.29 11.409-.58 1.7-1.47 3.142-1.69 4.251-.4 2.047-.86-1.119-1.43-1.962-1.33-1.945-1.96-3.906-3.47-6.213-1.94-2.974-3.89-4.927-5.57-7.049-2.7-3.43-6.91-7.556-12.47-9.956-1.42-.615-2.48-1.308-3.72-1.308-1.24 0-2.29-.29-3.72 0-3.12.629-5.35 1.759-6.84 4.941-1.42 3.027-.94 5.519-.03 8.793.75 2.737 1.9 3.939 3.43 6.214 3.48 5.162 7.44 5.828 11.14 10.791 4.25 5.709 7.1 9.312 8.3 16.678 1.09 6.702.77 12.013-1.81 17.332-2.81 5.779-5.03 12.229-5.03 18.967 0 2.166.8 6.99-.86 8.503-1.8 1.645-4.25 2.638-6.58 1.453-2.65-1.343-4.73-3.295-7.2-5.087-2.97-2.16-6.09-3.719-9.16-5.668-5.06-3.21-8.95-3.259-14.86-4.433-3.66-.728-5.73-1.065-9.44-1.308-3.35-.219-5.73 0-8.6 0-6.31 0-12.45 2.447-17.13-2.899-5-5.708.1-16.813 4.28-21.591 5.26-6.003 12.55-10.992 16.16-21.147 1.37-3.852 2.24-6.13 2.42-10.283.07-1.659.61-2.82-.13-4.251-.63-1.228-1.47-1.512-2.6-2.108-2.69-1.413-6.4-1.121-7.58.145-1.49 1.614-3.42 2.597-4.86 4.252-1.18 1.337-2.46 2.58-4.01 4.251-2.83 3.031-4.74 4.389-7.16 7.848-1.36 1.948-1.85 3.27-3.15 5.269-1.47 2.249-2.56 3.27-3.98 5.559-4.52 7.318-4.52 12.994-7.63 21.22-1.26 3.331-1.57 6.936-3.28 8.503-1.11 1.013-.75 1.266-2.01.508-1.21-.731-2.38-1.147-3.88-1.962-2.47-1.345-3.85-2.114-6.17-3.779-3.1-2.232-4.28-2.798-7.09-5.497-4.65-4.474-7.76-7.989-11.49-13.47-3.76-5.523-2.71-12.211.29-18.64 1.87-4.022 4.15-5.319 7.16-8.321 2.84-2.849 4.63-4.196 7.73-6.685 5.99-4.815 9.99-6.388 16.03-11.119 5.21-4.077 10.31-4.573 12.89-11.155.6-1.536 2.57-3.199 1.14-4.106-1.47-.936-2.66-1.453-4.32-1.453h-12.86c-6.41 0-12.5.654-18.9.654-3.5 0-5.25.767-8.3 2.325-2.82 1.443-4.2 2.773-6.59 5.015-3.45 3.24-5.58 5.172-7.7 9.665-1.56 3.311-3.74 7.422-4.95 10.174-1.2 2.752-2.51 9.787-5.08 6.685-3.18-3.838-3.69-12.937-2.54-21.255.88-6.396 5.72-15.24 5.72-15.24" stroke="#4A5759" stroke-width="3" stroke-linecap="round" stroke-linejoin="round"/><path d="M408.188 112.638c4.735-7.595 6.675-10.004 14.312-15.476 4.188-1.328 8.483-3.879 12.449-5.665 3.57-1.608 9.254-1.283 13.149-1.488 4.647-.246 17.494 5.011 17.494 5.011s7.283 5.204 7.283 7.518c0 2.313 4.214 5.925 6.124 10.1 2.943 6.432 4.419 14.426 4.419 17.463 0 11.615 1.582 12.697 1.582 24.557 0 3.235-2.228 8.013-3.181 11.185-.301 1-2.118-3.096-2.82-3.135-4.75-.266-8.952 1.597-13.407 1.82-16.189.81-36.178-1.82-52.669-1.82-5.161 0-4.735-1.43-4.735-5.043 0-6.534-.256-7.325-2.245-13.471l-.019-.06c-2.706-8.358 1.298-23.231 2.264-31.496z" fill="#E6E4BA"/><path d="M517.639 90.78c.106-5.94-2.348-19.659 4.929-20.83-.167-.602.304-1.124.467-.057.028.183.047.413.052.696.356.2.916.3 1.767.158 1.339-.223 5.737-1.409 7.146 0 2.442 2.442 2.451 6.814 5.5 9.253 2.056 1.645 5.611 16 3.5 16 .356 6.403 1.111 11.826 1.111 18.394 0 5.859 1.867 9.182 1.867 14.986 0 3.556-.453 7.296.706 10.647 1.212 3.5 3.953 2.523 7.267 2.523 5.719 0 4.055-16.752 4.549-20.335.314-2.278 2.981-13.019 6.5-13.215 2.5-2.5 6.611 2.669 6.611 5.394 1.918 3.261 2.523 3.761 2.523 7.821 0 4.053-2.523 8.232-2.523 12.285 0 2.965-2.288 5.176-2.927 8.05-.616 2.775-2.512 4.4-3.684 6.45-2.242 3.924-11.692 5.945-8.5 13.127-1 .873-10.418.781-14.5.373-6.677-.667-6.942 0-13.5 0-4.038 0-7.095-.373-7.095-.373-1.271-6.991-1.766-14.872-1.766-22.1 0-9.488-.909-18.987-.909-28.358 0-7.007.784-13.923.909-20.89z" fill="#C6D0A9"/><path d="M516.025 164.336c0-5.862.694-19.56.694-29.466 0-9.869.754-20.112-.694-29.889-1.176-7.937-3.75-29.325 6.247-33.824 23.384-10.522 19.736 54.172 20.133 64.871.12 3.246 1.421 8.635 5.553 8.176 3.568-.397 4.01-18.919 4.204-21.636.238-3.335.191-8.796 2.198-11.686 1.604-2.309 3.743-3.897 5.708-5.863 6.157-6.156 10.134 10.487 10.645 13.653 1.206 7.474 1.085 13.58-1.234 20.672-1.324 4.051-3.704 9.9-7.984 11.802-3.099 1.377-5.491 4.293-6.595 7.328-.595 1.638-1.676 7.512-2.776 5.862" stroke="#376C36" stroke-width="3" stroke-linecap="round" stroke-linejoin="round"/><path d="M525.321 85c0 11.905-.057 23.811 0 35.716.041 8.648.722 16.972-.559 25.572-.873 5.863-1.762 11.324-1.762 17.234m10.443-67.304c2.017 12.581 1.32 25.18 1.848 37.864.267 6.388.086 12.817.086 19.211 0 3.52.387 7.22.387 10.616m27.463-42.936c.837 7.251 1.259 14.72-2.622 21.274-2.521 4.259-5.862 7.457-8.939 11.218-1.663 2.032-2.845 4.426-3.159 6.941-.117.933-.365 3.798-.365 1.182" stroke="#7C9F6B" stroke-width="2" stroke-linecap="round" stroke-linejoin="round"/><path d="M445.736 87.41c-7.621 3.889-14.208 8.406-17.957 16.487-4.387 9.457-7.135 20.497-6.742 30.93.228 6.035.774 13.26 2.525 19.012.585 1.922.894 5.167.894 7.189m25.307-73.618c0 9.017-7.721 14.428-8.627 23.261-.879 8.562-2.129 17.777-.703 26.329.96 5.762.463 11.712 2.14 17.414.623 2.117.288 8.821.288 6.614m12.077-73.618c8.495 5.163 8.395 18.027 8.02 26.84-.357 8.405-2.733 16.52-2.843 24.923-.096 7.284 0 29.14 0 21.855M467.5 90c13 12 10.613 21.574 10.613 31 0 7.104-.713 15.713-1.895 22.805-1.052 6.312-2.875 12.568-2.875 18.948" stroke="#C4CF81" stroke-width="3" stroke-linecap="round" stroke-linejoin="round"/><path d="M413.879 163.371s-1.629-8.227-2.095-13.31c-.595-6.48-.789-12.787-.789-19.3 0-4.611 1.872-9.429 2.884-13.927 1.15-5.109 3.517-8.882 6.532-13.113 6.671-9.36 17.336-16.67 29.086-17.131 5.399-.212 9.557-.614 14.592 1.553 2.077.894 5.999 2.67 7.911 3.857 1.912 1.186 2.991 2.852 4.857 5.016 6.69 7.761 10.951 17.586 12.324 27.656 1.025 7.519 1.319 15.748 1.319 23.328 0 3.403-1.319 10.5-1.319 10.5 0 1.147-1.181 4.871-1.181 4.871m-54.662-67.316c-1.799-2.184-4.955-5.04-6.199-7.527m28.782 1.771c.608-2.905 1.771-6.37 1.771-9.299m24.353 22.582c1.376-1.783 2.903-3.65 4.526-5.215.537-.518 1.552-.541.345-.541" stroke="#728736" stroke-width="3" stroke-linecap="round" stroke-linejoin="round"/><path d="M421.826 116.423c-2.693-1.901-4.716-5.002-7.872-6.15-.779-.283-1.96-.673-2.312-1.377m7.527 31.881c-4.748.562-9.371 2.214-14.169 2.214m86.344-14.613c1.625-.302 4.595-.167 5.756-1.328m-44.345-12.474c-.963-3.906-1.633-8.74-3.905-12.149m22.563 20.393c3.236-1.986 6.232-4.248 9.305-6.46.972-.7 2.206-.827 2.844-1.784m-13.884 29.506c3.945 0 7.482.162 11.281 1.302m-38.799-10.606a306.163 306.163 0 00-9.856-8.571" stroke="#728736" stroke-width="3" stroke-linecap="round" stroke-linejoin="round"/><path d="M1006.35 673.032c-2.7 5.887-1.49 13.849-1.42 20.167-6.806.021-9.995.475-17.043.475-4.419 0-3.865-12.007-3.865-15.037 0-7.335-.266-14.04 1.514-21.16 1.808-7.234 4.413-13.709 7.837-20.377 1.688-3.288 3.327-5.927 5.254-9.032l.232-.373c1.661-2.677 3.141-5.867 4.701-8.621 1.18-2.079 3.44-4.237 4.7-6.269 4.7-7.553 9.46-7.108 15.68-13.324 1.87-1.871 6.36-5.706 9.4-10.188 2.69-3.965 3.54-8.28 5.49-10.972 5.12-7.091 6.29-15.376 12.4-21.486 3.57-3.57 7.29-5.996 7.86-11.403.18-1.647 2.23-9.659 4.17-7.497 3.48 3.866 3.84 10.505 5.23 15.205 2.54 8.578.67 14.866-2.23 22.83-2.43 6.659-6.59 18.349-11.76 23.511-4.21 4.217-9.13 9.84-13.32 14.107-12.27 12.499-23.38 26.406-29.23 43.342-1.81 5.248-3.29 11.084-5.6 16.102zm110.07 7.956c-3.89 3.606-8.4 6.528-12.54 9.811-1.28-.462-5.86-.835-7.54-.084-1.21.542-3.55.084-4.87.084h-20.43c3.84 0 4.84-2.972 5.41-3.541 3.92-3.955 7.73-7.968 10.97-12.539 4.07-5.745 8.27-9.247 12.54-14.891 3.61-4.775 8.07-9.405 12.54-13.323 3.42-2.999 5.76-6.65 9.4-9.405 6.19-4.678 16.78-14.298 22.07-20.029 1.96-2.134 4.66-4.032 6.93-5.834 2.13-1.689 3.58-4.724 4.69-7.176 1.54-3.425 3.31-8.344 6.1-10.87 2.11-1.911 6.08.65 6.08 3.105 0 5.357-2.1 9.942-3.37 15.088-1.35 5.44-6.3 9.51-9.42 13.871-4.36 6.108-15.01 15.265-16.95 22.862-1.89 7.413-4.95 16.169-10.64 21.899-3.63 3.661-7.19 7.466-10.97 10.972zm-47.85-24.882c-7.1 10.647-12.05 23.536-12.47 36.44h-19.41c-1.51 0-3.7.394-5.16-.023-.46-.131-.35-3.785-.2-4.302 1.14-4.001.98-9.369 3.28-13.159 1.14-1.874 1.82-4.156 2.44-6.258l.05-.183c.81-2.761 2.22-5.282 3.31-7.937 1.97-4.788 4.51-9.356 7.04-13.872 5.25-9.378 13.21-17.267 19.79-25.72 1.33-1.72 3.08-3.118 4.74-4.509 1.62-1.367 2.73-3.29 4.14-4.854 3.48-3.874 5.84-8.637 9.22-12.537 5.4-6.233 7.06-13.6 10.35-20.912 4.54-10.072 10.45-18.009 18.03-25.589 2-1.997 4.22-4.422 6.49-6.073 1.86-1.353 3.68-3.104 5.61-4.348 1.34-.858 1.89-3.927 2.81-1.863.78 1.763-.44 3.949-.83 5.567-.7 2.895-.88 4.514-3.01 6.648-3.27 3.269-5.04 7.177-7.87 10.744-4.24 5.339-3.37 13.986-5.61 20.366-1.7 4.871-4.42 9.709-5.56 14.723-.57 2.497-1.69 4.976-2.4 7.454-.74 2.611-.8 5.315-2.07 7.753-1.26 2.434-2.17 4.941-3.72 7.246-1.83 2.711-4.12 5.08-5.96 7.799-3.32 4.898-6.78 10.226-10.93 14.47-4.2 4.299-8.73 7.869-12.1 12.929z" fill="#B7C2B4"/><path d="M1105.27 692.658c4.52-3.548 9.42-6.92 13.66-10.818 4.12-3.789 8.52-7.27 12.47-11.226 6.19-6.193 7.01-16.482 9.07-24.495 2.12-8.211 8.99-13.129 13.75-19.731 3.39-4.713 8.78-9.112 10.25-14.991 1.39-5.562 3.67-10.518 3.67-16.307 0-2.654-4.33-5.422-6.62-3.357-3.03 2.73-4.96 8.047-6.64 11.748-1.21 2.651-2.78 5.931-5.11 7.757-2.48 1.947-5.41 3.998-7.55 6.305-5.75 6.194-13.28 10.774-20.03 15.83-3.97 2.978-7.27 6.625-11 9.866-4.87 4.235-9.72 8.515-13.65 13.676-4.65 6.1-10.28 11.481-14.72 17.69-3.53 4.941-7.97 9.288-12.25 13.563-.61.615-3.68 4.082-3.06 4.082h22.25c1.45 0 3.99.495 5.31-.091 1.83-.811 9.43.823 10.2-.725" stroke="#4A5759" stroke-width="3.135" stroke-linecap="round" stroke-linejoin="round"/><path d="M1165.13 590.861c0 2.91.08 5.652-.91 8.432-.83 2.334-1.47 4.665-2.43 6.982-3.07 7.427-9.34 13.145-14.94 18.653-2.33 2.289-4.67 3.652-7.52 5.161-3.3 1.743-6.44 5.229-9.11 7.826-3.88 3.773-5.96 9.533-7.36 14.571-1.37 4.967-5.66 9.639-9.57 12.75-2.4 1.902-4.7 3.831-6.92 5.937-2.03 1.922-4.13 4.336-6.44 5.903-2.03 1.377-2.99 3.545-4.79 5.093-1.24 1.06-2.36 2.501-3.54 3.643-1.1 1.055-1.96 2.271-2.97 3.407-.48.53-1.57 1.324-1.82 1.821m-33.87 1.704c0-13.489 5.07-27.073 12.49-38.205 3.38-5.06 7.9-8.63 12.11-12.929 4.15-4.244 7.61-9.572 10.92-14.47 1.84-2.72 4.14-5.088 5.96-7.799 1.55-2.306 2.47-4.812 3.73-7.247 1.26-2.438 1.32-5.142 2.07-7.752.71-2.479 1.82-4.957 2.39-7.454 1.14-5.014 3.86-9.852 5.57-14.723 2.23-6.381 4.57-14.031 8.81-19.37 2.83-3.567 4.6-7.475 7.87-10.744 2.13-2.134 2.31-3.753 3.01-6.648.39-1.619 1.61-3.804.83-5.567-.92-2.064-1.47 1.004-2.81 1.863-1.93 1.244-3.75 2.995-5.61 4.348-2.27 1.651-4.49 4.075-6.49 6.073-7.58 7.58-16.7 14.52-21.23 24.593-3.29 7.312-4.95 14.679-10.35 20.911-3.38 3.901-5.74 8.664-9.23 12.538-1.41 1.563-2.51 3.486-4.14 4.854-1.65 1.39-3.4 2.788-4.74 4.509-6.57 8.453-14.53 16.342-19.78 25.719-2.53 4.517-5.07 9.084-7.04 13.872-1.1 2.656-2.5 5.177-3.32 7.937-.63 2.152-1.31 4.513-2.48 6.442-2.3 3.79-2.15 9.157-3.29 13.159-.15.517-.25 4.17.21 4.301 1.46.417 3.64.023 5.15.023h19.46" stroke="#4A5759" stroke-width="3.135" stroke-linecap="round" stroke-linejoin="round"/><path d="M1127.09 541.291c-5.64 8.704-13.84 15.424-19.37 24.126-2.26 3.542-5.27 6.429-7 10.295-1.4 3.132-2.99 6.176-4.41 9.291-1 2.198-1.51 4.763-2.21 7.075-.76 2.483-2.1 4.707-2.86 7.179-1.19 3.902-2.83 7.933-5.01 11.404-4.97 7.897-9.86 15.754-15.31 23.387-3.96 5.546-8.09 10.448-11.3 16.524-2.99 5.678-7.86 10.715-9.98 16.841-2.07 5.986-5.69 11.335-7.97 17.263-.9 2.343-2.48 4.04-2.48 6.758m-30.38.672c0-6.39-1.35-14.606 1.43-20.642 2.3-5.018 3.78-10.854 5.59-16.101 5.86-16.937 18.04-30.106 30.31-42.604 4.18-4.267 8.24-8.718 12.45-12.934 5.17-5.163 7.66-13.561 10.09-20.22 2.9-7.964 6.23-19.455 3.69-28.033-1.39-4.7-1.74-11.338-5.22-15.204-1.95-2.163-4 5.849-4.17 7.496-.57 5.408-4.3 7.834-7.87 11.403-6.11 6.11-12.56 11.44-17.69 18.531-1.94 2.692-3.23 6.265-4.27 9.397-.85 2.542-3.09 4.781-4.96 6.652-6.22 6.215-13.36 12.402-18.06 19.955-1.26 2.033-2.76 3.966-3.93 6.045-1.56 2.754-2.85 5.743-4.52 8.421-2.025 3.268-4.417 6.453-6.173 9.872-3.424 6.667-6.85 14.147-8.658 21.381-1.78 7.12-2.745 13.571-2.745 20.906 0 3.03-.618 16.154 3.801 16.154 7.211 0 14.245-.95 21.385-.95" stroke="#4A5759" stroke-width="3.135" stroke-linecap="round" stroke-linejoin="round"/><path d="M1068.68 537.688c-2.27 13.83-10.04 24.96-15.5 37.562-6.82 15.741-19.48 28.636-29.85 41.891-5.55 7.093-10.57 14.185-15.47 21.75-2.14 3.298-3.73 7.404-5.23 11.034-1.67 4.058-2.734 8.601-4.748 12.486-4.688 9.04-4.276 20.699-4.276 30.646" stroke="#4A5759" stroke-width="3.135" stroke-linecap="round" stroke-linejoin="round"/><path d="M1347 677H787a5 5 0 00-5 5v178.566a5 5 0 004.273 4.947l9.75 1.434c.241.035.484.053.727.053H1347c2.76 0 5-2.239 5-5V682c0-2.761-2.24-5-5-5z" fill="#4A5759"/><path d="M782 682a5 5 0 015-5h559c2.76 0 5 2.239 5 5v27H782v-27z" fill="#C8BFB6"/><path d="M787 678.5h560c1.93 0 3.5 1.567 3.5 3.5v180c0 1.933-1.57 3.5-3.5 3.5H784.115a.615.615 0 01-.615-.615V682a3.5 3.5 0 013.5-3.5zm-5 31.5h569" stroke="#4A5759" stroke-width="3"/><path d="M1324.5 692c.5 3 2.76 5.321 4.05 6.007.9-1.346 2.75-2.164 3.85-3.208.76-.714 1.61-1.268 1.61-2.406 0-1.18-.51-2.393-2.01-1.893-3 1-3.5 4.05-3.5 1 0-1.682.09-3.95-2-3-1.64.743-2 1.5-2 3.5z" fill="#4A9D63" stroke="#4A5759" stroke-width="2" stroke-linecap="round" stroke-linejoin="round"/><path d="M1312.02 687l-.12.152c-.78 1.303.83 5.823 1.29 6.746.33.66 1.73 2.084.44 2.084-1.19 0-2.18.776-2.73 1.765-.63 1.127-.6 2.704-1.28.802-.3-.825-.1-1.843-.43-3.151-.44-1.787-3.44-2.84-4.07-2.845-.08.033-.12.05-.12.043 0-.029.04-.044.12-.043.51-.229 2.51-1.259 2.59-1.311 1.66-1.065 2.99-2.546 4.19-4.09.04-.057.08-.108.12-.152z" fill="#F8CD5E" stroke="#4A5759" stroke-width="2" stroke-linecap="round" stroke-linejoin="round"/><path d="M1290 689c2.24-1.006 3.5.001 4.5.5 1.91.952 2.26 3.667 2.5 5 .14.808-.93 4.356-3.1 4.356-3.1 0-6.9-.763-6.9-4.651 0-1.196.76-4.199 3-5.205z" fill="#9E483E" stroke="#4A5759" stroke-width="2" stroke-linecap="round" stroke-linejoin="round"/><path d="M1346 655l15 11 4 9 5-4 14.5-10 15.5-12 8-12 6-14.5 1.5-11-7.5 3.5-3.5 6.5-4.5 7.5-15.5 2.5h-8.5s-7.7-4.348-13-4c-4.38.287-6.98 1.38-10.5 4-4.78 3.56-8 13-8 13l1.5 10.5z" fill="#93BB94"/><path d="M1378 762.562c1.51-2.952 6-6 6-6s2.64-3.136 5-3.5c2.44-.377 3.72 1.053 6 2 3.07 1.273 5.13 1.679 7.5 4 2.93 2.87 3.86 7.61 7.5 9.5 2.77 1.439 3.13.568 5 0 4.2-1.276 1.66-8.833 6-9.5 3.19-.491 5.21 1.223 7.5 3.5 3.56 3.537 3.62 7.518 3 12.5-.41 3.311-1.48 5.032-3 8-2.23 4.343-5.09 5.754-7.5 10-3.66 6.445-1.2 12.357-6 18-1.7 2.001-5 4.5-5 4.5s-1.67-15.306-7.5-22.5c-4.13-5.096-8.21-6.12-13.5-10-4.28-3.141-8.69-3.216-11-8-2.12-4.397-2.22-8.152 0-12.5zm54-103.062l10-4.5 2.5 52.5s-4.68.793-7.5 0c-3.76-1.057-5.64-2.889-8-6-4.17-5.5-2.5-17.5-2.5-17.5l10.5-7.5c.58-6.847 2.39-10.603-5-17z" fill="#B1C9AB"/><path d="M1251.63 677.024c14.24-14.246 31.51-18.204 51.07-11.98 10.08 3.207 14.77 11.959 21.36 19.783 5.7 6.773 12 13.085 17.73 19.862 10.61 12.531 27.67 19.152 43.51 19.152 11.15 0 18.93-1.437 27.11-9.615 6.5-6.5 13.72-19.425 13.72-28.689" stroke="#4A5759" stroke-width="3" stroke-linecap="round" stroke-linejoin="round"/><path d="M1425 683c2.18 6.419 3.47 17.359 11.35 19.547 4.1 1.139 11.16-.24 12.77 4.571m-24.41-24.419c4.54-3.445 10.29-5.219 9.93-11.349-.17-2.932-2.84-5.699-2.84-9.222 0-6.075 12.61-8.875 17.02-10.64M1351 699.5c36 3.5 55 35.527 55 63.5m21.54-81.719c7.15-2.699 13.73-4.257 21.29-4.257" stroke="#4A5759" stroke-width="3" stroke-linecap="round" stroke-linejoin="round"/><path d="M1384.27 750.797c7.72-3.43 15.9 3.943 20.58 9.931 2.27 2.916 3.86 13.366 8.19 3.625 2.73-6.13 7.3-6.8 12.38-.709 4.16 4.999 2.29 13.263-.4 18.364-1.8 3.422-6.29 5.745-7.41 9.379-2.03 6.62-3.88 12.924-5.67 19.626-.54 2.019-6.52 8.544-7.09 3.625-.46-3.887-2.43-7.53-2.92-11.428-1.98-15.794-15.02-16.372-25.46-24.355-8.74-6.685-.33-24.445 7.8-28.058zM1364 650.5c3.97-8.85 9.13-15.876 19.57-18.559 5.13-1.319 10.26-1.608 15.29-3.468 6.42-2.379 5.26-7.538 7.72-12.453 1.18-2.364 6.13-4.803 8.28-6.52 4.47-3.577.21 9.981 0 12.116-.67 6.643-3.6 12.5-7.89 17.734-2.35 2.875-5.08 7.912-9.3 12.138-4.74 4.748-10.75 7.412-13.79 10.246-4.44 4.131-12.34 6.644-15.92 11.349-4.78 6.285-3.22-1.976-5.68-4.571-5.43-5.756-18.44-11.586-18.44-20.65 0-13.457 6.99-24.856 21.44-23.251 9.01 1.001 12.55 11.314 22.22 6.477m-24 20.912c-3 10.5 10 35-12.5 39.5m65.85-80.112c-1.52 8.942-9.37 12.472-16.51 16.835" stroke="#4A5759" stroke-width="3" stroke-linecap="round" stroke-linejoin="round"/><rect x="830" y="743" width="95.714" height="8.051" rx="4.025" fill="#93BB94"/><rect x="852.363" y="763.574" width="95.714" height="8.051" rx="4.025" fill="#B7C2B4"/><rect x="1146.66" y="784.148" width="56.355" height="8.051" rx="4.025" fill="#BAC3C5"/><rect x="852.363" y="825.296" width="77.823" height="8.051" rx="4.025" fill="#B7C2B4"/><rect x="935.554" y="825.296" width="254.045" height="8.051" rx="4.025" fill="#BAC3C5"/><rect x="878.304" y="784.148" width="262.99" height="8.051" rx="4.025" fill="#B1C9AB"/><rect x="879.199" y="804.722" width="391.801" height="8.051" rx="4.025" fill="#B1C9AB"/><path d="M23.828 791.098c-12.31 2.714-20.24 7.136-26.247 17.529l2.233 99.918c.71 3.972 6.015 21.281 9.37 24.003 3.527 2.863 7.01 7.964 11.85 9.127 3.76.904 6.912 4.53 10.607 5.749 1.534.507 3.608.775 4.906 1.447 2.575 1.332 4.455.953.946-.863-3.397-1.758-4.564-7.045-7.96-8.802-3.52-1.822-4.73-6.814-5.314-10.086l-.973-5.446c-.39-2.181.177-3.792.486-6.42.366-3.114 3.253-5.738 5.61-8.709 1.033-1.302 2.984-1.999 4.002-2.761 1.4-1.049 5.003-1.263 6.816-1.035 4.638.582 7.299 2.547 10.014 6.003 1.027 1.307 1.015 3.259 1.665 4.752.94 2.159 2.567 4.571 3.112 6.888.478 2.038 1.523 3.919 2.353 5.825.663 1.523 1.287 3.926 2.32 5.242 2.544 3.237 6.412 5.048 10.697 6.078 1.313.315 3.074.451 5.055.657 2.323.24 3.63.385 5.967.435 2.303.048 3.602.03 5.894-.176 2.327-.209 3.939-.598 5.908-.897 2.127-.323-1.681-1.67-2.552-1.968-2.065-.708-3.263-3.1-4.953-4.286-1.354-.95-2.913-2.562-4.01-3.774-1.338-1.481-3.038-1.985-4.36-3.754-1.238-1.656-1.768-2.838-2.182-4.742-.584-2.691-1.173-5.175.077-7.041 1.75-2.613 6.06-3.847 9.401-2.668 2.196.774 4.294 2.93 6.247 4.84 1.86 1.82 2.745 3.377 3.429 4.711 3.591 7.004 8.831 11.875 17.568 10.548 4.353-.661 7.386-4.655 11.787-5.323 3.712-.564 7.966-.621 11.329-1.132l6.218-.944c2.126-.323-.212-3.663-.508-4.634-1.071-3.515-4.323-5.246-6.094-9.085-2.293-4.969-2.212-8.193-3.057-13.536-.82-5.18-1.809-9.571-1.251-13.354.567-3.838 0-7.942-.689-11.802-.857-4.795-4.797-2.305-8.151-2.684-9.981-1.128-12.616 9.597-21.417 13.177-4.009 1.63-9.512 4.967-12.328 1.872-2.416-2.657.824-5.604 2.593-8.664 2.468-4.271 7.721-7.654 11.661-10.041 1.469-.89 2.846-2.252 4.768-3.435 1.787-1.101 3.158-1.546 4.98-2.597 1.524-.879 2.562-.988 4.091-1.859 1.996-1.137 3.611-1.353 5.03-1.971 1.501-.655 2.659-1.124 4.354-1.381 2.908-.442 4.086 1.424 3.634-1.106-1.149-6.432-8.418-15.707-14.004-19.401-2.981-1.97-5.949-3.776-9.447-4.617-3.331-.8-7.719 2.545-10.105 4.217-2.928 2.054-4.856 6.237-6.143 9.308-1.351 3.228-4.2 6.965-6.409 9.806-1.55 1.992-2.31 4.006-4.317 6.217l-.04.043c-1.57 1.73-2.496 2.749-4.516 4.051-3.638 2.344-6.88 3.975-10.8 3.261-1.678-.306-3.52-1.341-4.555-2.617-1.145-1.41-1.224-3.507-1.322-5.174-.311-5.246 1.03-6.775 3.372-11.246 2.35-4.483 5.262-8.255 8.596-11.577 2.983-2.974 5.576-7.304 9.114-9.955 2.797-2.096 5.813-5.853 8.93-7.212 1.025-.447 4.831-1.315 5.386-2.028.13-.167-2.257-.641-2.393-.683-1.204-.373-2.478-.55-3.659-1.015-3.69-1.452-8.473.436-12.307 1.018-4.379.665-10.07 1.456-13.644 4.068-4.445 3.249-16.837 11.095-23.626 5.727-3.805-3.007-4.578-7.582-2.086-11.674 2.09-3.435 4.759-6.454 9.55-9.307 4.387-2.613 5.869-3.904 10.598-5.949 2.368-1.025 7.082-.616 9.19-1.396 2.588-.958-.61-1.265-2.453-2.016-6.746-2.746-13.14-3.836-21.851-4.336-6.24-.358-9.911-.678-15.99.662z" fill="#D3DFD0"/><path d="M1.607 803.627c6.007-10.392 13.938-14.814 26.248-17.529 6.079-1.34 9.751-1.02 15.99-.662 8.712.5 15.105 1.59 21.851 4.336 1.844.751 5.041 1.058 2.454 2.016-2.108.781-5.747.317-9.19 1.396-4.59 1.436-6.212 3.336-10.6 5.949-4.79 2.853-7.458 5.872-9.549 9.307-2.492 4.092-1.719 8.667 2.086 11.674 6.79 5.368 14.49-3.193 23.627-5.727 5.362-1.487 8.147-3.078 13.643-4.068 4.736-.852 8.618-2.47 12.308-1.018 1.18.465 2.454.642 3.658 1.015.136.042 2.523.516 2.393.683-.554.713-4.36 1.581-5.385 2.028-3.117 1.359-5.661 4.182-8.93 7.212-3.892 3.607-5.764 5.913-9.115 9.955-3.608 4.353-6.174 6.574-8.595 11.577-2.014 4.161-3.684 6-3.373 11.246.099 1.667.178 3.765 1.323 5.174 1.035 1.276 2.877 2.311 4.554 2.617 3.921.714 7.163-.917 10.8-3.261 2.037-1.313 2.961-2.338 4.556-4.094 2.007-2.211 2.66-3.773 4.318-6.217 2.571-3.791 3.897-5.982 6.409-9.806 2.39-3.64 2.658-6.519 6.143-9.308 3.271-2.617 5.776-4.377 10.104-4.217 4.172.155 6.466 2.647 9.447 4.618 5.586 3.693 12.855 12.968 14.005 19.4.452 2.53-.727.664-3.635 1.106-1.695.257-2.673.791-4.353 1.381-1.995.7-3.092 1.146-5.03 1.971-1.617.688-2.568.98-4.092 1.859-1.821 1.051-3.192 1.496-4.979 2.597-1.923 1.184-3.3 2.545-4.769 3.435-3.939 2.387-7.403 6.34-11.66 10.041-2.737 2.379-5.758 5.094-3.794 8.101 2.516 3.854 8.756 2.206 13.528-1.309 7.856-5.787 11.437-14.305 21.417-13.177 3.355.379 7.294-2.111 8.151 2.684.69 3.86 1.256 7.964.69 11.802-.559 3.783.431 8.174 1.25 13.354.845 5.343.765 8.567 3.057 13.536 1.771 3.839 5.023 5.57 6.094 9.085.296.971 2.634 4.311.509 4.634l-6.218.944c-3.363.511-7.618.568-11.33 1.132-4.401.668-7.433 4.662-11.787 5.323-8.736 1.327-13.976-3.544-17.568-10.548-.683-1.334-1.569-2.891-3.429-4.711-1.953-1.91-4.051-4.066-6.247-4.84-3.341-1.179-7.651.055-9.4 2.668-1.25 1.866-.662 4.35-.077 7.041.413 1.904.943 3.086 2.181 4.742 1.323 1.769 3.022 2.273 4.361 3.754 1.096 1.212 2.656 2.824 4.01 3.774 1.69 1.186 2.888 3.579 4.953 4.286.87.299 4.679 1.645 2.551 1.968-1.969.299-3.58.688-5.907.897-2.292.206-3.592.224-5.894.176-2.338-.05-3.645-.195-5.968-.435-1.98-.206-3.741-.342-5.054-.657-4.286-1.03-8.153-2.841-10.697-6.078-1.034-1.316-1.657-3.719-2.32-5.242-.83-1.906-1.876-3.787-2.354-5.825-.544-2.317-2.17-4.729-3.111-6.888-.65-1.493-.639-3.445-1.665-4.752-2.716-3.456-5.377-5.421-10.014-6.003-1.813-.228-5.417-.014-6.817 1.035-1.017.762-2.968 1.459-4.001 2.761-2.357 2.971-5.245 5.595-5.61 8.709-.31 2.628-.877 4.239-.487 6.42l.973 5.446c.585 3.272 2.743 6.405 5.315 10.086 2.629 3.762 4.562 7.044 7.96 8.802 3.508 1.816 1.628 2.196-.946.863-1.298-.672-3.373-.94-4.907-1.446-3.695-1.22-6.584-3.328-10.607-5.75-7.236-4.355-12.266-6.174-17.44-12.555-8.318-10.257-8.745-28.8-9.455-32.772" stroke="#619482" stroke-width="4" stroke-linecap="round" stroke-linejoin="round"/><path d="M22.266 858.919c-6.57-7.197-21.191-26.575-21.191-26.575l-1.455-4.693s11.232 13.612 17.387 21.315c17.43-1.197 26.805-5.234 42.785-18.489 0 0-7.468 9.739-15.38 14.327-10.567 6.128-24.103 8.184-24.103 8.184a97.896 97.896 0 003.924 4.391c8.445 8.817 11.266 12.87 21.86 19.423 3.884 2.404 11.193 4.916 15.34 5.527 0 0 2.907-.365 5.46-2.069 6.411-4.282 6.577-4.197 12.314-8.9 4.059-3.328 9.086-9.682 13.269-13.593 6.447-6.028 12.899-10.643 12.899-10.643s-5.84 5.493-12.54 12.656c-4.285 4.581-8.8 10.527-12.76 13.929-6.28 5.395-14.292 10.38-14.292 10.38 10.08 1.988 20.337 2.55 31.353 7.291a344.14 344.14 0 015.843 2.58c9.916-2.778 12.37-5.67 17.31-11.059-2.144 4.942-7.704 9.6-12.912 13.085 5.087 2.389 10.349 5.026 14.325 7.376 7.471 4.417 10.536 6.256 10.316 7.53-.172.99-8.981-5.998-24.992-13.335 4.706 7.335 6.745 11.346 10.212 18.474-4.284-5.236-7.936-15.457-17.44-21.588-.625-.404-1.188-.477-1.794-.714-12.342-4.827-23.325-5.302-34.105-7.636-1.1 3.885 2 19.056 6.339 30.46-4.99-8.008-7.191-14.519-9.617-31.235-5.636-1.455-11.249-3.594-17.005-7.313-7.962-5.144-12.183-9.165-17.687-15.094 0 0 2.454 9.657.22 17.747-2.232 8.09-6.59 20.849-6.59 20.849l-2.835-.81s4.237-10.276 6.441-19.172c3.46-13.967-.9-22.606-.9-22.606z" fill="#619482"/><path d="M363 241H81a5 5 0 00-5 5v262.608a5 5 0 003.088 4.62l3.363 1.392c.606.251 1.256.38 1.912.38H363a5 5 0 005-5V246a5 5 0 00-5-5z" fill="#B7C2B4"/><path d="M76 246a5 5 0 015-5h282a5 5 0 015 5v27H76v-27z" fill="#C8BFB6"/><path d="M81 242.5h282a3.5 3.5 0 013.5 3.5v264a3.5 3.5 0 01-3.5 3.5H79.05a1.55 1.55 0 01-1.55-1.55V246a3.5 3.5 0 013.5-3.5zm-5 31h290.157" stroke="#4A5759" stroke-width="3"/><path fill="#F9F6EF" d="M92 287h260v211H92z"/><path d="M93.45 288.581c-.972 16.531-.534 33.633.791 50.132 1.09 13.565.34 27.054.264 40.644-.133 24.01-2.108 47.936-2.108 71.947 0 16.048-1.055 32.323-1.055 48.111m.426-212.396c14.188 0 28.298-1.007 42.494-1.007 17.615 0 35.093.437 52.614-1.509 14.927-1.659 30.973.33 46.016.503 11.547.133 23.076 1.006 34.666 1.006H352.5M91.558 500.34c30.299 0 60.636.83 90.875.83 22.749 0 46.255.068 68.964-1.615 31.329-2.32 125.658-.876 94.242-.876m5.813-211.734c0 51.623.073 103.384.83 154.902.078 5.284 4.763 56.001-.83 56.001" stroke="#4A5759" stroke-width="3" stroke-linecap="round" stroke-linejoin="round"/><path fill="#BAC3C5" d="M229 398h112v92H229zm0-103h112v92H229zm-123 1h112v92H106zm0 103h112v92H106z"/><path d="M107.5 296.5c0 16.569.031 32.716 1.379 49.203.638 7.804-.209 14.798 0 23-.69 6.224 0 12.742 0 19M107.5 296.44c13.362-1.877 27.84-.686 41.35-.686 10.022 0 20.052.686 29.989.686h10.107c4.344 0 8.149-1.084 12.405-1.335 3.604-.212 7.289-.038 10.901-.038h1.503m-102.996 92.648c7.211 0 14.425.062 21.635 0 6.372-.056 12.59-1.327 18.962-1.373 11.916-.086 23.798.686 35.669.686h29.647m-2.165-91.961c.44 26.531 3.007 52.896 3.007 79.456v12.68M228 297.126c0 16.569.538 32.09 1.902 48.577.645 7.804-.212 14.798 0 23-.699 6.224 0 12.742 0 19m-1.141-91.263c13.522-1.877 27.917-.686 41.589-.686 10.141 0 20.291.686 30.347.686h10.228c4.395 0 8.246-1.084 12.553-1.335 3.647-.212 7.376-.038 11.031-.038h1.522m-104.227 92.648c7.296 0 14.597.062 21.894 0 6.447-.056 12.74-1.327 19.188-1.373 12.058-.086 24.082.686 36.095.686h30m-2.19-91.961c.446 26.531 3.043 52.896 3.043 79.456v12.68M107 400.126c0 16.569.531 32.09 1.879 48.577.638 7.804-.209 14.798 0 23-.69 6.224 0 12.742 0 19m-1.127-91.263c13.362-1.877 27.588-.686 41.098-.686 10.022 0 20.052.686 29.989.686h10.107c4.344 0 8.149-1.084 12.405-1.335 3.604-.212 7.289-.038 10.901-.038h1.503m-102.996 92.648c7.21 0 14.425.062 21.635 0 6.371-.056 12.59-1.327 18.962-1.373 11.916-.086 23.798.686 35.669.686h29.646m-2.164-91.961c.44 26.531 3.007 52.896 3.007 79.456v12.68M228 400.126c0 16.569.543 32.09 1.919 48.577.651 7.804-.214 14.798 0 23-.705 6.224 0 12.742 0 19m-1.152-91.263c13.643-1.877 28.166-.686 41.96-.686 10.232 0 20.472.686 30.617.686h10.319c4.435 0 8.32-1.084 12.665-1.335 3.68-.212 7.441-.038 11.129-.038h1.535m-105.155 92.648c7.362 0 14.728.062 22.089 0 6.505-.056 12.854-1.327 19.359-1.373 12.166-.086 24.297.686 36.416.686h30.268m-2.209-91.961c.45 26.531 3.07 52.896 3.07 79.456v12.68" stroke="#4A5759" stroke-width="3" stroke-linecap="round" stroke-linejoin="round"/><path d="M190.721 348.084c-3.329 2.96-7.764 6.329-11.023 9.349-2.46 2.281-4.501 4.319-4.501 7.907 0 5.398 6.937-2.179 7.733-3.55 1.865-3.211 3.821-6.516 5.482-9.839.582-1.163 1.136-3.28 2.309-3.867zM147.5 442.5c-4.938 7.528-14.103 13.127-15.412 22.619-.28 2.026.751 2.804 2.828 2.712 3.102-.137 5.184-5.002 6.348-7.329 2.11-4.221 2.932-9.066 4.53-13.504.69-1.917.301-3.093 1.706-4.498zm-26.261-106.592c1.047-7.041 8.902-11.928 12.869-17.429-.502 2.509-1.747 4.973-2.366 7.56-1.071 4.473-1.725 9.653-5.425 12.87-3.659 3.182-5.656.884-5.078-3.001zm69.568 94.47c2.272-5.536 8.983-11.541 13.418-15.293-4.013 5.351-2.782 14.981-8.339 18.871-3.388 2.371-6.691.351-5.079-3.578zm77.302-110.34c-4.746 5.024-10.924 11.085-13.418 17.63-1.91 5.015 3.571 8.227 7.07 4.184 3.274-3.785 2.542-9.301 4.039-13.793.844-2.53 1.993-4.997 2.828-7.502m46.745 38.55c2.885-5.347 8.734-10.408 12.984-14.658-.586 2.928-2.328 5.801-3.116 8.829-1.061 4.075-2.784 8.3-6.637 10.561-3.774 2.215-4.591-2.213-3.231-4.732zm-35.318 47.668c-4.008 4.008-8.207 8.108-11.081 13.042-1.582 2.716-1.873 7.883 2.742 4.761 4.467-3.022 8.339-11.302 8.339-16.765m6.002 62.038c1.666-6.902 12.014-13.105 15.812-18.929-1.67 3.34-3.837 5.841-4.559 9.753-.724 3.922-2.439 9.134-5.309 12.004-3.268 3.268-7.02 1.63-5.944-2.828z" stroke="#EFEDEA" stroke-width="3" stroke-linecap="round" stroke-linejoin="round"/><path d="M48.675 293.542c-6.636-1.805-2.038-5.082-8.21-7.817-.443 2.593-12.405 5.184-14.773 6.946-4.853 3.61-14.348 20.081-15.49 12.655-.517-3.355-1.389-13.837-3.902-15.891-2.777-2.271-14.703 8.247-16.48 12.384-7.03 16.357-4.056 16.859-4.842 37.582 1.493 3.555 1.094 17.013 7.98 14.331 1.874-.73 4.976-7.193 7.28-8.98 4.338-3.366 4.748-7.227 11.01-8.19 5.076-.782 9.886-1.941 14.577-3.768 8.941-3.482 6.987-4.967 14.739-10.039 1.952-1.277 5.316-14.309 5.382-16.074 1.287-.246 8.13-11.67 2.73-13.139z" fill="#B1C9AB"/><path d="M106.768 395.913c6.909-9.461 3.5-12-2.337-20.307-8.198 5.157-7.359-12.584-23.663-15.693-10.326-1.969-24.5 4-28.076 10.103-4.008.653-.512 12.912-4.84 12.562-2.973-.24-5.814 3.712-8.756 3.512-3.732-.254-14.434-6.106-16.329-3.512 14.94 10.911 31.167 26.709 38.5 24.335 3.066-.992 12.235.852 16 1.108 2.596.176 28.208-10.338 29.501-12.108z" fill="#93BB94"/><path d="M175.268 241.913c-4-4.672-11.783-9.306-17.243-11.28-2.278-.824-4.655-1.264-7.051-1.562-2.454-.305-4.774-1.147-7.274-1.062-4.242.144-8.952-.164-12.911 1.712-1.868.885-2.996 2.503-4.443 3.884-1.367 1.306-2.962 2.311-4.331 3.636-2.939 2.846-5.233 7.972-6.001 11.999-.881 4.618-.417 8.992-.277 13.631.068 2.242.571 4.693 1.033 6.892.578 2.745 2.022 4.931 2.941 7.577 2.122 6.106 7.447 10.539 10.516 16.178 2.632 4.836 5.569 9.387 6.967 14.767.901 3.466 1.158 7.117.921 10.634-.345 5.097-.567 9.86-2.087 14.622" stroke="#4A5759" stroke-width="3" stroke-linecap="round" stroke-linejoin="round"/><path d="M124.4 282.667c2.324-10.766-1.367-27.831-26.322-16.337-5.01-.214 4.891-12.63-11.81-16.917-4.86-3.549-22.44 3.78-21.916 7.145l3.484 22.358c.675 4.333.66 14.571-.662 18.71-1.806 5.656-4.549 10.606-6.393 16.382-2.831 8.869 15.939.219 18.166-2.831 1.793-2.455 8.66-3.09 10.743-4.537 2.163-1.501 8.575-1.257 11.036-2.394 3.648-1.686 9.069-1.669 12.796-3.109 6.844-2.644 8.671-8.242 10.878-18.47z" fill="#B1C9AB"/><path d="M41.149 285.684c-7 .085-14.135 6.937-18.351 11.761-1.887 2.55-5.59 4.413-8.684 3.174-2.14-.857-2.068-7.06-1.979-9.417.361-9.532-12.747-3.975-16.34-.23-5.178 5.4-16.013 11.705-16.328 20.012-.128 3.38 1.17 6.964 2.13 9.985 1.232 3.874.031 8.155 1.097 12.151 1.28 4.802 3.481 9.384 3.998 14.337.195 1.865 1.803 12.404 4.73 7.575 2.555-4.215 5.926-8.493 9.576-11.877 2.426-2.249 5.936-4.698 9.354-4.878 2.635-.14 4.447.148 6.877-1.167 1.813-.98 3.324-2.449 5.307-3.086 6.764-2.173 10.637-4.45 16.16-8.729 3.276-2.538 4.478-7.121 6.416-10.656 1.758-3.208 1.772-6.617 3.874-9.801 1.232-1.865 1.33-5.032.66-7.154-1.106-3.515-3.907-12.055-8.497-12zm64.386-21.709c-5.123.902-9.528 4.886-7.331-4.177.074-1.371.83-3.247-.678-4.348l-3.455-2.523c-2.406-1.757-5.57-1.886-8.227-3.172-6.574-3.183-19.625-2.065-21.118 6.786-.61 3.613.45 7.579.212 11.287-.342 5.336 2.196 10.851 2.488 16.16.221 4.033 1.531 9.584-.376 13.265-1.025 1.976-1.612 4.349-2.641 6.474-1.1 2.272-3.061 5.363-3.48 7.841-.78 4.625.178 7.21 4.907 6.473 3.334-.52 10.087-2.84 12.187-5.549 2.33-3.005 5.253-2.691 8.575-4.12 4.502-1.937 7.825-2.871 12.887-2.844 8.281.044 19.342-3.601 22.007-12.399 2.726-9.002 9.096-25.888-3.924-30.534-4.666-1.665-7.513.585-12.033 1.38z" stroke="#4A5759" stroke-width="3" stroke-linecap="round" stroke-linejoin="round"/><path d="M27.768 291.413c5.479-11.599 9.349-21.506 19.913-24.305 2.427-.643 15.009.313 15.009.313" stroke="#4A5759" stroke-width="3" stroke-linecap="round" stroke-linejoin="round"/><path d="M96.85 377.493c-3.78.158-7.597-.841-11.304-.038-3.153.683-6.466 1.394-9.516 2.459-2.405.841-5.314 1.744-7.408 3.204-2.232 1.556-4.108 3.507-6.38 5.015-2.873 1.908-5.298 4.718-7.994 6.818-.734.571-2.921 3.229-1.377 1.114" stroke="#579C8F" stroke-width="3" stroke-linecap="round" stroke-linejoin="round"/><path d="M79.8 408.507c-6.588 1.895-12.231-.541-18.878-.702-5.726-.138-9.38-2.304-14.264-5.032-7.417-4.144-14.478-9.458-21.347-14.475-2.786-2.035-6.113-3.192-9.234-4.623-1.448-.664-3.903-.507-5.192-1.448-.95-.694 2.664-2.051 2.74-2.072 3.571-.97 6.603-.487 10.215.149 10.081 1.777 19.188 8.68 26.644 15.358 2.526 2.263 4.54 4.794 7.356 6.851 3.643 2.661 7.086 5.784 11.714 6.302m33.952-30.704c-2.038-.897-7.21-.34-7.85-3.341l-.326-2.096c.38-.522-.021-2.285-.312-2.882-1.727-3.547-6.472-6.294-9.747-8.123-5.248-2.932-13.953-2.546-19.54-.599-3.154 1.1-6.29 1.702-9.11 3.613-1.833 1.241-3.144 3.42-4.378 5.229-.92 1.348-1.589 3.127-2.126 4.669-.521 1.495-.691 3.084-1.155 4.485-.862 2.602-2.296 4.02-4.725 4.864-1.472.512-3.297.911-4.555 1.806" stroke="#4A5759" stroke-width="3" stroke-linecap="round" stroke-linejoin="round"/><path d="M100.93 377.488c4.935 2.532 10.878 3.008 10.41 10.31-.13 2.017-2.77 5.091-3.961 6.72-1.738 2.381-4.034 5.445-7.044 6.262-3.36.913-6.525 2.39-9.818 3.526-1.983.684-3.747 2.154-5.767 2.659-3.036.76-6.622 1.286-9.494 2.341m61.871-79.713c-.163 6.878-2.403 14.79-5.046 21.092-3.125 7.453-8.532 14.954-15.733 19.04-2.582 1.465-5.36 2.637-7.974 4.06-1.591.865-3.333 2.174-5.05 2.743-1.716.568-3.262.59-4.96.303" stroke="#4A5759" stroke-width="3" stroke-linecap="round" stroke-linejoin="round"/><g opacity=".5"><path d="M832.951 1014.66c-5.224-5.85-10.277-12.73-18.062-8.75-1.423 1.82-1.291-.08-1.705 2.18-.403 2.2-1.128 3.22-2.443 4.9-1.604 2.05-.276 3.35-1.88 5.4-1.338 1.72-6.323 1.55-7.744 3.37-1.984 2.54-4.008 5.77-3.841 9.55.076 1.71 2.098 5.65-1.155 5.28-1.14-.13-4.472 9.32-5.462 10.3-9.142 1.73-13.007 10.81-10.006 21.54.809 2.89 2.324 5.14 3.738 7.6 1.736 3.01 2.525 5.14 3.4 8.77.669 2.78 1.786 5.62 2.638 8.36.503 1.62 1.02 3.16 1.348 4.84.11.57.102 2.09.426 1.67.544-.69-.794-4.57-.277-5.81.484-1.16.456-5.52.456-6.95-.001-1.22 1.14-1.63 1.081-2.96-.051-1.16-.647-1.95-.315-3.15 1.315-4.76.584-7.85 3.608-11.72 1.79-2.29 6.75-2.01 8.72-4.06 2.385-2.48 5.329-3.27 7.549-6.11 1.073-1.37 2.089-4.35 2.203-6.37.075-1.33-2.901-6.84-1.522-7.42 2.753-1.17 5.366.77 8.11-1.01 2.554-1.66 5.135-3.01 7.476-5.18 2.364-2.2 6.253-2.52 9.243-3.69 3.251-1.28 10.764-.6 14.181-.12.196.16.405.25.628.28 1.872.19 1.221-.02-.628-.28-1.63-1.3-2.424-6.67-4.275-7.14-6.22-1.56-10.966-8.26-15.49-13.32zm-21.088 116.59c.161-2.4-2.389.8-2.88 1.21-2.066 2.65-.519 4.22-2.516 6.78-1.277 1.63-3.308.68-4.585 2.31-1.382 1.77-2.633 1.95-4.424 3-3.721 2.2-8.32 2.66-11.407 6.61-1.899 2.43-16.63 17.67-13.891 21.08 1.284 1.6 5.787-3.18 6.941-4.19 1.453-1.27 5.811-2.69 7.359-3.2 1.633-.55 8.72 1.79 10.407 1.76 2.101-.04 3.209-1.06 5.226-.91 4.241.31 7.485-8.09 8.689-12.45.907-3.28-.117-9.22-.226-12.64-.106-3.31 1.091-6.16 1.307-9.36zm28.749-51.44c-1.903.93-3.644 4.73-5.047 6.46-10.41-5.86-14.997 1.95-14.277 10.01.183 2.05 1.63 3.62 2.198 5.45.478 1.54.41 3.01 1.114 4.54.641 1.38 1.471 2.68 2.227 3.98 1.664 2.87 3.954 4.52 6.097 6.82 2.367 2.53 4.895 5.14 7.351 7.59 2.551 2.54 6.54 5.17 9.871 5.42 2.36.18.993-1.7.516-3.47-1.437-5.33-.627-12.11.19-17.46.275-1.81-.065-3.7.199-5.56.308-2.17 1.062-4.44 1.721-6.48.668-2.07-.081-4.35-.318-6.5-.206-1.88-.126-3.23-1.04-4.89-1.42-2.57-3.408-6.79-6.231-6.9-2.138-.08-2.567.01-4.571.99z" fill="#D3DFD0"/><path d="M807.101 1019.57c2.485-2.3 3.758-4.24 4.276-8.01.28-2.04 1.089-4.37 2.502-5.63 2.503-2.24 6.118-1.56 8.981-.49 4.554 1.7 7.325 5.76 10.598 9.77 3.342 4.09 7.621 7.1 11.444 10.43 1.934 1.69 4.115 3.4 5.894 5.32 1.095 1.19 1.727 2.73 2.678 3.91 1.166 1.45-1.724 1.26-2.249 1.25-2.798-.07-5.614-.6-8.412-.55-3.015.05-6.383.2-9.304 1.02-1.799.5-3.425 1.97-4.986 3.08-1.438 1.02-2.64 1.96-4.192 2.82-1.909 1.07-3.688 1.76-5.813 2.08-1.951.3-3.821.81-5.738 1.25-1.762.41-4.329-.59-5.946-1.42-2.192-1.12-4.241-2.91-5.985-4.86-.875-.98-2.019-1.96-2.636-3.2-.401-.81-.441-1.81-.766-2.66-.95-2.49-.944-6.98.699-9.08 1.767-2.26 3.566-2.79 5.991-3.77 2.739-1.12 7.241-4.29 10.259-2.7 2.561 1.35 5.657 1.01 8.14 2.48 2.037 1.21 4.27 2.42 6.481 2.91m-14.057 23.57c.605 3.64 1.022 8.12-.342 11.5-1.47 3.65-4.496 5.85-7.379 7.64-3.614 2.24-7.985 3-10.855 6.67-1.223 1.57-1.799 3.53-1.999 5.64-.155 1.63-.716 2.96-1.27 4.42-.491 1.29-.463 2.78-.699 4.17-.432 2.52.091 5.02-.359 7.56-.501 2.83.25 4.66.372 7.4.152 3.45 1.73 6.59 2.648 9.82.31 1.09.943.91 1.193-.09.595-2.38-.502-5.72-.4-8.29.039-.99.088-2.09.02-3.08-.056-.82-.633-1.36-.767-2.17-.316-1.93-.403-3.47-1.17-5.22-1.232-2.82-.999-7.5-.776-10.46" stroke="#6B9A78" stroke-width="3" stroke-linecap="round" stroke-linejoin="round"/><path d="M797.097 1033.82c-1.223 4.21-3.062 10.49-7.147 11.85-1.53.5-3.095.47-4.612.88-1.338.37-2.809 2.38-3.633 3.55-1.008 1.44-1.396 4.21-1.983 5.96-.631 1.88-.963 3.74-.872 5.81.15 3.39.786 6.52 2.114 9.53.926 2.1 1.663 4.62 2.794 6.56 1.078 1.86 2.28 4.57 2.751 6.72.457 2.08 1.225 4.67 2.207 6.51.913 1.71 2.092 5.09 3.059 6.84" stroke="#6B9A78" stroke-width="3" stroke-linecap="round" stroke-linejoin="round"/><path d="M794.602 1041.16c-1.742 5.31-2.968 10.09-3.537 15.82-.198 1.99-1.22 5.55-.601 7.46m49.12 16.67c-2.449 3.13-4.075 3.94-7.653 2.6-.783-1.42-1.196-1-1.855-1.67-.438-.44-2.248.37-2.735.61-1.025.51-2.624 2.06-2.961 3.31-.197.74-.903 1.82-1.202 2.49-.33.74-1.06 1.94-1.06 1.94-1.565 2.1-2.056 4.52-2.393 7.35-.354 2.98.655 5.31 2.12 7.65.907 1.45 2.022 2.66 2.989 4.04 1.329 1.89 2.229 4.02 3.767 5.74 1.751 1.96 3.437 4.12 5.336 5.88 1.583 1.45 3.504 2.19 5.181 3.45l.064.05c2.088 1.58 4.035 3.05 5.908 4.99 1.329 1.38 3.337 2.7 5.09 2.97 2.37.38 1.785-3.22 1.423-4.74-.474-1.99-.43-4.05-.536-6.08-.131-2.51-.431-4.77.487-7.11.947-2.42 1.444-4.92 2.579-7.25 1.206-2.48 2.049-4.83 2.551-7.66.543-3.06 1.173-5.73.664-8.94-.478-3.01-1.102-5.56-2.625-8.12-1.85-3.11-5.387-7.05-8.73-7.41-3.179-.33-4.51 3.48-6.409 5.91z" stroke="#6B9A78" stroke-width="3" stroke-linecap="round" stroke-linejoin="round"/><path d="M815.381 1047.82c2.832 6.02 6.905 10.52 11.384 14.84 2.72 2.63 6.077 6.46 6.485 10.83.198 2.11.775 4.42.207 6.47-.164.6-.199 1.38-.459 1.91-.291.61-.261 1.87-.749.99m-7.939 25.89c-.908 2.41-1.778 4.92-2.889 7.19-1.011 2.08-2.519 3.73-3.709 5.65-1.168 1.88-2.574 3.85-3.911 5.56-.989 1.26-1.916 2.37-3.024 3.44-.965.94-1.969 1.16-.366 2.24" stroke="#6B9A78" stroke-width="3" stroke-linecap="round" stroke-linejoin="round"/><path d="M810.691 1131.13c.423 4.41.334 8.66.36 13.07.02 3.5-.12 7.28-1.026 10.6-1.148 4.21-4.849 9.36-8.416 10.87-4.091 1.73-9.126.4-13.37-.21-1.679-.25-3.447-.24-5.038.43-1.72.73-3.584 1.09-5.027 2.46-1.84 1.76-3.711 3.31-5.315 5.36-1.842 2.36-1.406-.51-1.003-2.31.648-2.9 2.875-4.44 3.868-6.98.336-.85.684-1.76.871-2.68.219-1.08-.441-1.91-.385-2.91.289-5.15 4.72-9.46 8.131-11.93 4.021-2.9 8.642-3.37 12.599-6.26 2.6-1.9 4.251-5.3 7.006-6.95 1.52-.91 4.335-1.66 6.089-1.27m22.559-48.51c3.104 3.6 7.094 8.41 6.311 14.11-.608 4.43.91 9.21 2.951 12.91m-63.41-81.2c5.374.27 11.423-2.3 14.669-2.36 1.9-.03 3.254-.5 4.597-2.21" stroke="#6B9A78" stroke-width="3" stroke-linecap="round" stroke-linejoin="round"/></g><g opacity=".6"><path d="M613.568 886.418c-1.899.448-.869-1.231-2.307 0-2.217.336-9.461-2.599-10.914-.667-6.61.667-3.117 4.019-4.627 5.624-1.458 1.55 6.31 11.28 7.602 12.654 2.018 2.146 9.046 5.119 11.568 6.679 2.847 1.76 6.816 1.2 9.585 3.163 1.78 1.262 6.878.143 8.594 1.055 2.224 1.182 4.844 3.185 6.941 4.569 2.119 1.399 3.906 1.379 5.485 3.515.992 1.344 7.736 4.989 7.736 2.812 0-6.378-3.531-11.852-5.288-17.926-.967-3.34 0-12.952 0-16.521 0-3.072-1.175-7.864-4.297-11.248-2.548-2.761-6.829-4.48-8.263-4.57-2.06-.129-4.662 0-6.941 0-2.212 0-5.701 4.977-7.714 5.928-1.137.538-5.95 4.647-7.16 4.933z" fill="#B1C9AB"/><path d="M712.119 960.641c-3.331 2.704-7.424 8.159-10.78 10.882 1.091 1.176 5.748.704 6.887 1.792 1.517 1.45 3.437 2.14 5.176 2.862 1.824.757 4.302 1.861 6.172 2.726 2.404 1.11 6.536.066 9.038-.994 5.192-2.199 8.567-3.665 13.898-5.045 4.388-1.135 8.709-2.077 12.956-4.196.615-.307 6.083-2.648 5.543-3.325-.727-.912-1.056-.216-1.711-.643-1.546-1.01-3.727-1.007-5.408-1.705-2.385-.989-4.643-2.257-6.908-3.691-2.305-1.46-6.047-3.31-8.452-3.523-.921-.081-2.09-1.461-3.066-1.799l-.102-.035c-1.821-.63-3.693-1.278-5.541-1.66-2.18-.45-4.173.969-6.26 1.199-1.854.204-3.73.521-5.574.868-2.166.408-3.977 4.752-5.868 6.287zm1.486 76.189c0-7.77-14.218-9.7-19.628-11.53-5.03 1.33-7.644-5.65-11.675-1.84-4.417 4.18-10.403 15.5-8.039 24 .17 7.88 3.311 14 6.628 24.72.345 6.75-.84 18.07 0 24.78.361 2.88 5.469-.69 5.856-3.77.493-3.9 4.645-8.29 4.645-12.23v-13.3c2.377-6.47 13.803-12.88 17.392-18.37 3.854-5.88 4.821-4.46 4.821-12.46z" fill="#D3DFD0"/><path d="M613.214 886.66c5.422-3.417 10.288-7.737 15.748-11.012 4.973-2.983 8.667-2.874 13.508.421 9.201 6.261 5.112 20.075 5.888 29.517.09 1.097 7.564 20.914 3.828 20.914-1.705 0-4.523-2.934-6.104-3.671-2.554-1.189-5.328-2.278-7.368-4.358-2.768-2.821-6.977-4.283-10.872-4.283-2.22 0-4.353-1.258-6.538-1.72-2.414-.511-4.599-.118-6.826-1.415-4.784-2.785-9.264-4.876-13.112-9.1-3.557-3.904-10.843-16.67-.505-16.67 2.529 0 5.658-.542 8.127.038 2.692.634 4.754 2.201 7.332 3.25 2.208.899 5.877 3.546 7.585 5.353 3.863 4.089 8.531 7.382 12.714 11.318" stroke="#568267" stroke-width="3" stroke-linecap="round" stroke-linejoin="round"/><path d="M640.051 919.81c3.513 5.858 8.517 10.729 11.972 16.649 3.195 5.475 5.321 11.966 6.487 18.27.955 5.159 1.577 9.884-2.536 12.782m42.391 4.117c6.357-2.735 11.394-7.424 16.209-14.212 2.066-2.913 4.475-5.687 7.256-6.746 5.936-2.26 10.96.951 16.685 2.573 1.401.398 2.634 1.365 4.018 1.814 2.215.719 4.501.707 6.715 1.405 3.597 1.133 6.522 1.076 9.86 3.696 1.756 1.379 3.455 2.531 4.971 4.402 2.155 2.66-3.129 3.66-3.87 3.735-7.366.742-14.785 3.101-21.844 6.129-5.356 2.298-9.629 5.57-15.346 4.942-2.96-.325-5.737-1.705-8.556-3.008-2.633-1.216-5.436-1.667-7.98-3.278-2.16-1.368-4.777-2.593-7.045-1.73" stroke="#568267" stroke-width="3" stroke-linecap="round" stroke-linejoin="round"/><path d="M648.965 971.454c-1.997-1.074-6.105-.151-8.387-.266-2.425-12.979-11.552-11.964-17.319-6.107-1.465 1.488-1.713 3.782-2.752 5.468-.873 1.418-2.061 2.313-2.769 3.919-.646 1.464-1.094 3.035-1.599 4.546-1.112 3.328-3.706 6.503-4.052 9.88-.382 3.731-1.165 5.354-1.418 9.106-.264 3.9 2.231-1.612 4.265 1.49 1.441 2.2 4.52-1.855 5.573-3.423 3.169-4.719 6.742.07 11.442-2.68 1.587-.929 4.057.084 5.674-.887 1.884-1.131 2.232-1.76 4.256-2.5 2.049-.749 5.131.497 6.641-1.106 1.315-1.395 2.42-2.204 3.09-4.081 1.043-2.918 2.984-7.405 1.18-9.967-1.366-1.94-1.722-2.26-3.825-3.392z" fill="#D3DFD0"/><path d="M658.904 956c7.415 0 14.081 10.31 21.368 11.792 4.618.939 9.152.245 13.623 1.964 5.781 2.223 11.795 10.949 12.473 17.397.417 3.974.417 8.775-.089 12.72-.317 2.467-.513 5.457-2.005 7.487-1.71 2.32-4.037 3.27-5.838 5.48-2.371 2.92-5.909 3.32-9.023 5.05-1.842 1.03-5.727 3.7-6.37 5.74m4.247-.56c5.553 3.41 11.645 4.45 17.633 6.61 4.355 1.57 9.966 2.82 9.966 8.67 0 2.67.64 6.3-.235 8.85-1.064 3.09-5.385 5.57-7.608 7.73-2.555 2.49-6.245 2.92-8.905 5.3-1.699 1.52-2.76 3.77-5.013 4.37" stroke="#568267" stroke-width="3" stroke-linecap="round" stroke-linejoin="round"/><path d="M683.722 1024.96c2.396 2.95 6.358 5.95 8.875 8.77 2.044 2.29 2.123 5.38 2.123 8.39 0 5.96-4.777 9.64-4.777 15.74 0 3.29.925 6.98 1.858 10.14 1.174 3.97.127 8.82-1.062 12.59-1.185 3.76-1.918 7.7-3.037 11.38-.839 2.76-3.357 5.07-4.128 7.92-.948 3.51-2.654-.9-2.654-2.31 0-5.1.326-10.56-.649-15.59-2.47-12.73-9.224-23.79-10.468-36.94-.322-3.41-.2-6.02 2.094-8.51 1.036-1.13 2.153-2.39 2.772-3.81.542-1.24 2.771-2.93 2.771-2.93s2.433-2.26 3.362-3.92c1.194-2.15 2.889-3.78 5.285-4.42M594.12 759c.192 8.519 5.343 15.041 7.417 23.163 2.72 10.652 3.767 21.975-1.066 31.974-6.122 12.663-18.268 23.999-18.268 39.249 0 4.294-.689 9.178.928 13.168.768 1.894 1.023 3.663 2.443 5.165 1.405 1.486 1.369 4.282 2.821 5.456 3.027 2.447 6.922 7.789 11.153 7.789" stroke="#568267" stroke-width="3" stroke-linecap="round" stroke-linejoin="round"/><path d="M634.974 792.633c-4.553 2.129-8.049 6.041-12.683 8.084-1.469 2.523-1.199.924-1.199 3.429 0 1.644 1.846 1.484 2.717 2.024 3.181 1.971 7.677 2.57 11.314 2.841 3.814.283 7.421 2.608 11.146 3.363 2.855.579 5.592 2.195 8.139 3.699l.104.062c1.908 1.126 3.225 3.429 4.702 5.076 1.58 1.762 3.281 3.49 4.627 5.452 2.142 3.124 1.643-3.41 1.611-4.721-.048-1.975-1.615-4.221-2.529-5.807-.965-1.674-2.7-3.383-4.14-4.513-1.037-.814-1.57-2.125-2.585-2.987-1.204-1.023-1.679-1.599-1.855-3.364-.348-3.496.896-6.836-2.36-8.878-2.617-1.642-5.628-2.411-8.186-4.032-2.341-1.483-6.484-.822-8.823.272z" fill="#D3DFD0" stroke="#568267" stroke-width="3" stroke-linecap="round" stroke-linejoin="round"/><path d="M470.034 822.632c4.553 2.13 5.391.229 13.43 1.868 1.47 2.523 13.714-25.5 19.861 17.874 0 1.644-22.126-4.874-22.126-6.204-3.181 1.97-7.677 2.57-11.315 2.841-3.814.283-7.42 2.608-11.146 3.363-2.854.579-5.591 2.195-8.138 3.699l-.104.061c-1.908 1.127-3.225 3.43-4.702 5.077-1.58 1.762-8.746 6.827-10.091 8.789-2.142 3.124.913-5.689.945-7 .048-1.975 1.451-5.28 2.365-6.866.965-1.673-.022-4.504 1.418-5.634 1.037-.814.404-2.638 1.419-3.5 1.204-1.023 2.661-1.735 2.837-3.5.349-3.496 5.082-5.065 8.338-7.107 2.617-1.642 5.628-2.411 8.186-4.032 2.341-1.483 6.484-.822 8.823.271z" fill="#B1C9AB"/><path d="M620.828 803.382c-4.544-.353-7.871.768-11.89 2.679-1.383.657-6.299 3.439-6.299 3.439m-9.879 18.077c-5.402 1.523-9.906-1.47-15.245-2.222-1.534-.216-3.22-.855-4.735-.855-1.637 0-3.186.44-4.781.44-10.722 0-13.778 14.332-18.71 21.98-5.477 8.494-12.675 14.068-22.636 14.068-9.505 0-15.89-9.924-21.911-16.291" stroke="#568267" stroke-width="3" stroke-linecap="round" stroke-linejoin="round"/><path d="M504.397 844.977c-2.484-1.063-4.862-3.036-7.426-3.784-2.172-.633-4.438-.473-6.665-.473-3.888 0-6.872-2.796-10.871-3.311-3.4-.437-7.043-.677-10.468-.496-4.134.218-5.91 2.046-9.305 3.997-2.957 1.699-7.151 2.358-9.574 4.919-1.392 1.472-2.971 2.873-4.249 4.47-1.589 1.985-2.956 4.278-4.653 6.172-2.101 2.345-4.679 4.094-6.598 6.575-1.14 1.473-.277-1.286-.246-2.128.08-2.255.817-4.195 1.61-6.244 2.89-7.47 3.662-15.113 8.858-21.522 4.182-5.158 9.149-9.792 14.695-13.267 3.423-2.145 10.408-4.207 14.293-2.153 2.282 1.207 3.086 4.259 5.838 4.707 1.472.239 3.175.947 4.586-.047 1.235-.871 2.182-2.508 3.668-2.957 2.439-.737 6.566-2.843 9.081-1.513 1.232.651 2.764 4.564 2.998 5.983.329 2.002.805 3.928.805 5.96 0 3.268-.163 6.168 1.208 9.153.889 1.936 2.756 3.7 3.623 5.534" stroke="#568267" stroke-width="3" stroke-linecap="round" stroke-linejoin="round"/><path d="M483.864 823.267c-3.247 2.386-6.684 4.757-10.446 6.149-3.635 1.345-7.531 2.345-10.692 4.659-2.102 1.538-3.856 3.347-5.748 5.274-1.317 1.34-3.733 2.69-4.519 4.351m201.798 124.34c-2.627-.529-6.388-1.694-9.149-.86-2.453.741-2.857 3.854-5.082.86-1.795-2.415-3.696-5.804-6.76-5.804-3.193 0-6.748.934-8.691 3.923-2.084 3.204-4.8 5.514-6.913 8.706-2.065 3.12-2.557 7.182-4.168 10.587-1.461 3.089-7.389 15.918.509 14.402 3.913-.752 7.152-4.317 11.182-4.729 4.293-.439 8.355-2.179 12.401-3.654 4.631-1.689 12.985-3.674 16.671-6.987 3.454-3.103 6.404-5.414 6.404-10.64 0-1.771-4.988-6.273-6.404-6.772m-13.723 2.902c-4.588 2.933-8.477 5.339-11.894 9.674m68.673-7.572c5.918 4.903 17.198 14.9 24.592 17.076 5.668 1.668 12.319-.604 18.163-.384 10.877.41 20.779 6.372 26.789 15.772 3.263 5.11.166 18.06-5.49 20.57-5.647 2.5-8.921 1.09-14.131-1.17-8.216-5.18-5.427-13.3-2.118-15.45 5.329-3.46 13.481.11 16.973 4.68 2.605 3.41 3.661 8.44 6.348 11.69 2.557 3.09 5.081 3.43 8.697 5" stroke="#568267" stroke-width="3" stroke-linecap="round" stroke-linejoin="round"/></g><path d="M376.499 557.949c2.873.638 1.315-1.751 3.49 0 3.353.479 14.312-3.697 16.51-.949 10 .949 4.716 5.717 7 8 2.205 2.205-9.546 16.046-11.5 18-3.052 3.053-13.685 7.282-17.5 9.5-4.306 2.504-10.311 1.707-14.5 4.5-2.693 1.795-10.405.203-13 1.5-3.364 1.682-7.328 4.531-10.5 6.5-3.206 1.99-5.909 1.961-8.297 5-1.501 1.911-11.703 7.096-11.703 4 0-9.072 5.341-16.859 8-25.5 1.462-4.751 0-18.423 0-23.5 0-4.37 1.777-11.186 6.5-16 3.853-3.927 10.331-6.372 12.5-6.5 3.116-.183 7.052 0 10.5 0 3.345 0 8.624 7.079 11.669 8.433 1.72.764 9.001 6.609 10.831 7.016z" fill="#A3BF9B"/><path d="M246 657.53c6.156 0 14.797 2.018 21 2.018-.975 1.95-7.913 5.079-9 6.982-1.451 2.538-3.864 4.665-6 6.683-2.242 2.116-5.247 5.064-7.5 7.317-2.897 2.897-9.367 5.082-13.5 6-8.58 1.907-14.174 3.111-22.537 5.899-6.886 2.295-13.576 4.723-20.754 5.979-1.039.182-10.086 2.166-9.651 1.11.585-1.421 1.409-1.014 2.135-1.921 1.713-2.142 4.852-3.815 6.918-5.765 2.93-2.768 5.538-5.701 8.071-8.797 2.577-3.151 7.025-7.774 10.377-9.822 1.283-.784 2.268-2.988 3.501-4.057l.129-.111c2.301-1.995 4.666-4.044 7.131-5.825 2.907-2.099 6.491-2.287 9.608-3.672 2.77-1.231 5.628-2.372 8.456-3.459 3.321-1.278 8.121 1.441 11.616 1.441z" fill="#B1C9AB"/><path d="M272.594 728.362c0-7.762 15.034-9.7 20.754-11.53 5.318 1.329 8.082-5.645 12.344-1.832 4.671 4.18 11 15.5 8.5 24-.179 7.879-3.5 14-7.008 24.72-.364 6.743.889 18.065 0 24.78-.381 2.879-5.782-.695-6.192-3.77-.521-3.906-4.911-8.297-4.911-12.23v-13.307c-2.514-6.463-14.594-12.881-18.389-18.362-4.074-5.885-5.098-4.463-5.098-12.469z" fill="#AFCCA7"/><path d="M348 651c4.549 1.771 4.151 9.362 7.5 10-2.831 1.887 15.535 14.415 11-16.087 1-3.913 1.891-8.057 5.798-6.32 2.492 1.107 5.674-2.516 7.687 0 1.042 1.303 5.95-1.009 7.015.907.926 1.668 5.059 3.814 6 5.413 2.14 3.639 6.498 10.085 9.5 13.087 1.781 1.782.139 7.347 0 10-.618 11.744-4.5 13.205-4.5 25 0 3.424-3.56 16.38-5 19.5-1.846 4 2.468 17.298 0 21-2.31 3.465-4.1.02-5.499-2.5-1.252-2.252-5.803-6.287-7.516-8-2.168-2.168-3.24-3.013-4.985-5.534-3.977-5.744-8.132-10.598-13-15.466-4.943-4.942-7.515-4.7-12.77-9-2.57-2.103-14.043-1.49-14.731-5-.749-3.82-6-6.042-6-10 0-3.321-1.374-11.447 0-14.5.912-2.028 4.851-9.045 7.001-10 2.034-.904 7.86-4.305 12.5-2.5z" fill="#B1C9AB"/><path d="M482.986 680.955c0-10.845-1.186-22.402 11.014-27.587 3.282 0 1.317-1.494 3.932 0 2.551 1.458 4.312 1.538 7.345 1.538 3.701 0 3.522 2.594 7.223 2.594 3.087 0 8.287-5.669 11.567-5.669 4.578 0 9.861.552 13.323 4.014 1.56 1.561 3.179 7.214 6.32 3.288 1.102-1.376 13.784 3.118 15.79 2.867 11.499-8.632 24.389-5.058 31.483 7.553 1.914 3.403 2.443 7.023 3.288 10.719 1.037 4.535 2.23 7.246 4.783 11.359 1.954 3.148 3.492 6.85 5.21 10.163 1.015 1.958 1.936 3.86 3.202 5.68.427.613 1.9 1.921 1.153 1.921-1.256 0-3.546-4.838-5.295-5.338-1.636-.467-5.798-4.27-7.174-5.508-1.179-1.062-2.799-.152-4.014-1.367-1.057-1.057-1.178-2.403-2.69-3.075-5.999-2.665-8.184-6.149-15.16-6.149-4.13 0-9.195 5.74-13.287 6.149-4.952.496-8.876 3.075-13.999 3.075-2.476 0-6.43-1.447-8.501-3.075-1.359-1.068-3.455-9.129-5.5-8.107-4.082 2.042-5.033 6.61-9.701 8.107-4.345 1.394-8.413 3.092-13.025 3.801-4.658.717-9.152 4.748-13.494 7.046-4.723 2.501-12.157 11.407-15.37 15.611-.06.353-.191.668-.41.935-1.831 2.238-1.328 1.34.41-.935.505-2.93-3.811-8.46-2.267-10.913 5.191-8.244 3.844-19.307 3.844-28.697z" fill="#93BB94"/><path d="M617.843 758.504c-2.481-1.897 3.341-1.953 4.271-2.135 4.768 0 4.615 3.075 9.224 3.075 2.946 0 4.215-3.075 7.162-3.075 3.188 0 4.701-1.235 7.644-2.306 6.113-2.223 11.507-6.918 18.63-6.918 4.382 0 34.893-3.129 35.226 2.855.155 2.806-9.285 3.66-11.5 4.063-2.789.507-8.84 4.11-11 5.381-2.278 1.34-7.657 11.212-9.5 13.056-2.296 2.296-4.474 2.636-6.5 5-4.261 4.971-15.832 1.295-21.323-1.145-4.134-1.838-8.747-8.113-11.914-11.189-3.074-2.986-7.109-4.13-10.42-6.662zm-80.415-12.668c2.945-1.301 8.469.055 11.646 0 5.561-16.606 18.013-14.926 24.993-7.151 1.773 1.975 1.727 4.938 2.876 7.151.967 1.86 2.458 3.061 3.164 5.157.644 1.911.997 3.951 1.439 5.917.971 4.329.095 8.296 0 12.657-.106 4.818-.32 9.874-.608 14.713-.298 5.027-2.06 11.722-5.401 15.631-2.367 2.77-2.709-.375-3.899-2.436-3.581-6.204-10.97-11.171-17.003-14.904-2.037-1.26-3.489-3.272-5.561-4.588-2.413-1.533-5.412-2.666-8.085-3.702-2.706-1.048-4.097-3.855-5.913-5.98-1.581-1.849-2.972-2.936-3.58-5.379-.945-3.799-2.866-9.654.064-12.878 2.219-2.441 2.767-2.838 5.868-4.208zm549.982-561.667c-7.6 2.066-13.66 15.268-15.41 22.331-11.5 7-7.51 6.5 5.5 4 5.98-1.148 14.13-.851 19.72-3 6.31-2.422 10.1-7.705 15.54-12.413 5.32-4.6 10.74-7.271 16.45-11.311 4.41-3.123 19.13-7.776 7.27-7.776-7.12 0-13.49 1.414-20.45 1.414-6.8 0-12.08-.685-18.81 0-3.22.328-5.91 5.695-9.81 6.755zM1155.5 360.5c6.7-1.552 2.23-5.001 8.5-7.5.34 2.608 12.2 5.65 14.5 7.5 4.71 3.791 13.58 20.61 15 13.233.64-3.334 1.91-13.775 4.5-15.733 2.86-2.163 14.38 8.798 16 13 6.41 16.612 3.41 17 3.41 37.739-1.62 3.495-1.73 16.958-8.51 14.018-1.85-.801-4.7-7.376-6.94-9.249-4.2-3.528-4.47-7.402-10.69-8.602-5.04-.973-9.8-2.313-14.42-4.316-8.81-3.818-6.8-5.229-14.35-10.59-1.9-1.35-4.77-14.5-4.77-16.267-1.28-.294-7.68-11.97-2.23-13.233z" fill="#B1C9AB"/><path d="M1226 320.311c-2.98-4.097-16.37 1.484-8.62-4.286.28.521 6.76-3.502 8.19-4.56 4.14-3.068 10.89-.365 15.56-.365 5.64 0 13.1 1.929 17.82 4.925 1.38.876 3.25 1.49 4.5 2.508.86.704 1.37 3.573 2.2 4.696 2.73 3.696 4.49 7.37 5.84 11.855 1.42 4.716-.4 2.9-1.96.228-1.08-1.839-2.29-4.258-4.26-5.335-4.38-2.378-13.46-5.142-18.15-2.051-3.86 2.541-14.71 5.322-17 .41-1.24-2.649-2.43-5.701-4.12-8.025z" fill="#D3DFD0"/><path d="M1032.42 456.146V421c3.58 9 17.08 1.895 32.08 9 9.5 4.5 9.27 13.214 13 17 2.85 2.892-7.2 10.729-3.5 13 2.54 1.559 2.51 6.426 5 8 3.16 1.996 24 6.787 24 10-18.5 0-54.41-2.112-58.93-8.354-1.89-2.609-7.63-2.007-10.82-4.021-2.2-1.388-.83-7.288-.83-9.479z" fill="#93BB94"/><path d="M1031.71 175.209c2.03-1.552 3.8-3.449 5.93-4.861 2.14-1.413 4.93-1.98 7.38-2.611 4.72-1.215 9.74.102 13.63 2.859 3.77 2.675 8.49 5.588 10.39 10.027 1.37 3.198.94 7.672.74 11.076-.24 4.146-2.38 8.219-3.68 12.105-1.3 3.925-2.33 7.119-4.72 10.561a153.6 153.6 0 01-6.26 8.388c-.98 1.235-1.55 2.769-2.46 4.079-.83 1.216-1.93 2.337-2.59 3.66-3.32 6.641-3.94 12.727-3.94 20.055 0 7.87 4.28 14.009 11.57 16.985 5.36 2.189 11.37 3.159 16.94 4.785 2.33.678 4.51 1.725 6.62 2.897 2.16 1.201 4.53 1.889 6.5 3.432 3.34 2.618 7.33 5.147 9.42 8.997.98 1.817.94 3.788 1.29 5.758.34 1.861 1.03 3.613 1.36 5.49.69 4.032-.48 9.524-2.23 13.229-2.02 4.25-4.97 7.508-7.82 11.171-1.38 1.771-3.23 3.454-4.9 4.957-2.08 1.877-4.54 2.79-6.84 4.384-5.32 3.68-12.23 4.119-18.04 6.863-4.97 2.353-10.03 4.296-14.33 7.816-2.77 2.268-5.14 5.065-7.02 8.045-2.73 4.319-5.36 8.296-6.94 13.039" stroke="#4A5759" stroke-width="3" stroke-linecap="round" stroke-linejoin="round"/><path d="M1071.11 334.168c4.47-10.064 17.52-21.668 30.89 2.332 4.17 2.782 2-13 18.02-6.612 6.01 0 17.39 16.204 14.98 18.612l-16 16c-3.1 3.101-9.13 11.378-10.5 15.5-1.88 5.633-2.58 11.248-4.5 17-2.94 8.832-13-9.224-13-13 0-3.04-5.17-7.603-6-10-.86-2.489-6.18-6.073-7.5-8.442-1.95-3.513-6.34-6.697-8.5-10.058-3.97-6.172-2.14-11.77 2.11-21.332z" fill="#93BB94"/><path d="M1098.18 288.583c5.97.102 11.72 1.061 17.44 2.669 3.83 1.076 5.78 1.882 8.8 4.348 3.24 2.65 7.26 3.787 9.78 7.313 2.29 3.208 5.59 5.339 8.01 8.45 1.96 2.538 4 5.48 5.43 8.351 3.06 6.116 6.37 11.116 11.91 15.145 1.93 1.403 3.75 3.434 6.05 4.201 2.65.881 5.44 1.111 8.21 1.111 5.13 0 11.93-2.069 15.98-5.386 4.07-3.329 8.07-6.672 10.95-11.093 1.21-1.867 3.54-2.869 5.28-4.2 1.74-1.331 3.34-1.377 5.12-2.446M1032.02 221.5c3.44 3.509 7.58 11.294 11.68 14.046 3.37 2.26 6.98 3.846 8.91 7.574 1.17 2.256 2.61 3.784 3.12 6.337.38 1.909.35 3.75.35 5.692 0 9.558-13.43 11.307-14.28 20.247-.15 1.509-.87 2.946-.87 4.48 0 1.703.1 3.42-.22 5.099-.54 2.766-1.68 5.488-3.15 7.797-1.42 2.237-2.7 4.392-3.98 6.707-.51.92-2 4.811-2.58 4.521m32.38-90.872c3.5-.774 6.98-1.252 10.54-1.714 4.03-.525 8.25-1.207 12.3-1.445 5.27-.31 11.15-2.407 15.27-5.698 3.12-2.499 5.15-5.875 7.66-8.921 2.41-2.916 5.29-5.38 8.21-7.763 2.15-1.755 4.11-3.901 6.65-5.095 2.43-1.136 4.53-2.157 7.03-3.079 1.71-.628 3.48-.471 5.19-1.016 1.84-.584 3.38-1.801 5.15-2.413 1.53-.531 5.14-2.246 3.78-4.572-.57-.963-5.46-1.352-6.42-1.079-2.18.624-5.14.794-7.43.794-3.29 0-6.5-.858-9.82-.858-4.09 0-7.48.552-11.4 1.858-8.62 2.873-16.7 6.331-23.46 12.587-3.05 2.822-5.44 6.041-7.89 9.397-.99 1.359-1.82 2.835-2.81 4.191-.86 1.18-1.36 2.891-2.33 3.905-1.77 1.831-3.55 3.675-5.37 5.492-1.53 1.537-2.58 3.26-4.85 3.715m160.85 114.304c-4.32-3.854-7.07-8.213-13.23-8.358 1.21-1.225 5.41-3.762 7.38-4.873 3.55-1.999 8.2-2.487 12.19-2.487 7.51 0 13.62 2.982 20.7 5.001 4.54 1.295 7.78 4.305 11.25 7.383 2.3 2.043 2.44 5.457 4.25 7.62 2.1 2.507 4.23 5.559 4.23 8.944 0 2.591-2.38 2.623-3.76.688-.86-1.213-2-1.686-3.18-2.487-1.59-1.072-2.77-2.691-4.44-3.705-3.08-1.874-5.66-3.781-9.06-5.107-2.08-.813-4.79-.118-5.9 1.932-1.77 3.293-6.35 3.962-9.58 3.307-2.22-.45-3.87-.272-5.66-1.931-1.95-1.803-3.24-4.186-5.19-5.927zm-60.91 27.215c6.99.35 13.86 7.468 17.89 12.447 1.79 2.62 5.42 4.622 8.56 3.501 2.17-.775 2.33-6.977 2.33-9.335 0-9.54 12.89-3.49 16.34.389 4.97 5.592 15.56 12.303 15.56 20.615 0 3.383-1.44 6.915-2.51 9.897-1.38 3.825-.34 8.148-1.55 12.101-1.47 4.751-3.84 9.245-4.54 14.176-.27 1.856-2.27 12.326-5.02 7.39-2.39-4.308-5.6-8.711-9.12-12.23-2.33-2.34-5.75-4.92-9.16-5.23-2.63-.239-4.45-.021-6.83-1.426-1.77-1.048-3.22-2.573-5.18-3.285-6.68-2.427-10.46-4.85-15.82-9.335-3.18-2.66-4.2-7.285-6.01-10.891-1.63-3.272-1.52-6.679-3.5-9.94-1.16-1.91-1.14-5.079-.39-7.175 1.24-3.47 4.36-11.898 8.95-11.669zm-65.95-22.733c3.6 3.75 4.81 9.565 8.38.951.75-1.151 1.25-3.112 3.11-3.112h4.28c2.98 0 5.61 1.763 8.52 2.291 7.18 1.307 17.06 9.907 13.05 17.936-1.64 3.277-4.84 5.855-6.83 8.989-2.87 4.511-8.17 7.468-11.54 11.583-2.56 3.126-6.89 6.837-7.52 10.934-.34 2.201-1.26 4.463-1.69 6.786-.45 2.484-.69 6.136-1.81 8.384-2.1 4.195-4.4 5.718-7.78 2.334-2.39-2.386-6.47-8.243-6.57-11.669-.11-3.801-2.65-5.271-4.49-8.385-2.5-4.219-4.63-6.933-8.73-9.897-6.72-4.848-13.5-14.316-10.46-22.992 3.1-8.878 7.92-26.271 21.17-22.344 4.75 1.407 5.73 4.903 8.91 8.211z" stroke="#4A5759" stroke-width="3" stroke-linecap="round" stroke-linejoin="round"/><path d="M1123.64 362.269c6.19 4.978 10.89 9.335 19.06 9.335 1.88 0 10.8-2.104 10.8-2.104" stroke="#4A5759" stroke-width="3" stroke-linecap="round" stroke-linejoin="round"/><path d="M1037.43 426.995c2.96 2.356 6.63 3.801 9.15 6.636 2.14 2.411 4.4 4.939 6.24 7.598 1.44 2.098 3.26 4.543 4.09 6.957.88 2.573 1.25 5.255 2.19 7.812 1.2 3.236 1.5 6.935 2.44 10.221.25.895.45 4.331.45 1.712" stroke="#579C8F" stroke-width="3" stroke-linecap="round" stroke-linejoin="round"/><path d="M1032.91 462.097c4.2 5.415 10.19 6.776 15.66 10.567 4.7 3.265 8.93 3.671 14.48 4.348 8.44 1.029 17.27.901 25.78.901 3.45 0 6.82 1.027 10.18 1.713 1.56.318 3.45 1.892 5.05 1.892 1.18 0-.94-3.227-.99-3.289-2.31-2.889-5.05-4.287-8.34-5.903-9.19-4.512-20.61-4.308-30.57-3.312-3.38.337-6.5 1.194-9.98 1.194-4.52 0-9.14.491-13.18-1.819m-9.31-44.82c2.18.477 6.02 3.977 8.31 1.931l1.5-1.5c0-.646 1.36-1.833 1.95-2.144 3.49-1.846 8.94-1.265 12.66-.811 5.97.728 12.77 6.173 16.14 11.04 1.9 2.749 4.07 5.086 5.22 8.292.75 2.083.52 4.616.45 6.804-.05 1.632-.56 3.463-1.03 5.025-.46 1.515-1.26 2.898-1.71 4.303-.84 2.61-.52 4.6.94 6.714.89 1.282 2.13 2.681 2.62 4.146m-701.406 91.142c-8.236-4.903-15.628-11.102-23.921-15.802-7.556-4.281-13.166-4.123-20.52.604-13.977 8.985-7.765 28.808-8.943 42.356-.137 1.575-11.49 30.012-5.816 30.012 2.591 0 6.871-4.211 9.272-5.267 3.881-1.707 8.094-3.27 11.193-6.255 4.204-4.048 10.597-6.145 16.515-6.145 3.371 0 6.612-1.805 9.93-2.469 3.667-.733 6.987-.169 10.37-2.03 7.267-3.997 14.072-6.997 19.916-13.058 5.403-5.603 16.472-23.921.768-23.921-3.842 0-8.594-.779-12.344.055-4.091.909-7.222 3.157-11.138 4.663-3.354 1.29-8.928 5.087-11.522 7.681-5.868 5.868-12.959 10.593-19.313 16.241" stroke="#4A5759" stroke-width="3" stroke-linecap="round" stroke-linejoin="round"/><path d="M361.675 597.846c-3.715 5.857-9.005 10.728-12.658 16.648-3.378 5.475-5.626 11.966-6.859 18.27-1.01 5.16-1.667 9.884 2.681 12.783m-73.507 11.815c-10.525 2.294-20.138 1.727-30.492-.997-4.442-1.17-9.308-1.945-13.842-.811-9.679 2.42-15.284 9.315-22.697 15.246-1.816 1.452-3.101 3.313-4.864 4.801-2.822 2.381-6.116 4.125-8.948 6.485-4.601 3.834-8.838 6.026-12.315 11.068-1.829 2.652-3.69 5.046-4.926 7.981-1.756 4.171 6.348 1.06 7.451.561 10.971-4.954 22.831-8.419 34.514-10.974 8.863-1.939 16.662-2.125 24.567-7.109 4.094-2.58 7.391-6.018 10.788-9.415 3.172-3.173 6.975-5.751 9.821-9.229 2.416-2.952 5.561-6.121 9.259-7.046" stroke="#4A5759" stroke-width="3" stroke-linecap="round" stroke-linejoin="round"/><path d="M343 645.346c-22 2.154-22.648-3.236-37.174-2.43-7.87.436-13.461.303-20.036 2.43-8.502 2.75-17.348 13.546-18.345 21.524-.614 4.917-.613 10.857.131 15.737.466 3.058.754 6.749 2.949 9.258 2.514 2.875 5.937 4.05 8.586 6.789 3.487 3.604 8.691 4.105 13.271 6.249 2.709 1.268 8.422 4.574 9.368 7.097m-1.33 2.605c-5.871 3.413-12.313 4.448-18.644 6.609-4.604 1.573-10.538 2.817-10.538 8.668 0 2.672-.676 6.308.25 8.854 1.124 3.091 5.693 5.566 8.044 7.732 2.701 2.49 6.602 2.917 9.415 5.3 1.797 1.522 2.918 3.769 5.3 4.365" stroke="#4A5759" stroke-width="3" stroke-linecap="round" stroke-linejoin="round"/><path d="M304.192 716.5c-2.533 2.944-6.722 5.95-9.383 8.767-2.162 2.29-2.245 5.382-2.245 8.387 0 5.962 5.051 9.641 5.051 15.745 0 3.291-.978 6.976-1.964 10.132-1.242 3.975-.135 8.824 1.122 12.596 1.253 3.758 2.028 7.697 3.212 11.38.886 2.758 3.549 5.065 4.364 7.919 1.003 3.508 2.806-.898 2.806-2.308 0-5.107-.344-10.566.686-15.588 2.612-12.734 9.753-23.792 11.068-36.945.342-3.414.212-6.015-2.213-8.512-1.096-1.128-2.277-2.386-2.931-3.803-.573-1.242-2.931-2.931-2.931-2.931s-2.572-2.259-3.554-3.928c-1.262-2.146-3.054-3.778-5.588-4.411m33.291-64.738c3.943-2.191 10.125-.683 14.517-.683 1.936.484 3.428 1.554 4.71 3.156.297.371-.559 3.64-.559 4.507 0 4.481 2.552 8.719 7.18 6.662 3.733-1.659.667-12.703 1.796-16.315.807-2.584 3.641-11.38 7.898-9.015 1.662.924 5.281.684 7.22 1.037 2.372.431 4.423.962 6.781 1.636 6.271 1.791 12.356 6.692 16.355 11.727 1.271 1.601 3.3 1.998 4.468 3.75.716 1.074 1.445 2.59 1.994 3.749.893 1.886.16 5.451.16 7.54 0 6.555-1.969 12.785-5.346 18.309-4.621 7.562-4.677 17.213-8.297 25.131-1.987 4.348-1.023 12.13.359 16.554 1.554 4.97-.247 11.845-5.385 6.422-3.462-3.655-6.62-7.7-10.611-10.77-3.396-2.612-6.134-8.114-8.935-11.488-3.581-4.314-10.102-11.103-15.357-13.244-11.569-4.713-26.481-9.364-27.525-24.492-.444-6.445 1.983-20.51 8.577-24.173z" stroke="#4A5759" stroke-width="3" stroke-linecap="round" stroke-linejoin="round"/><path d="M345.397 645.578c4.527 2.176 8.827 4.165 13.189 1.856 1.86-.985 3.022-2.845 4.396-4.494m29.454.44c5.712 1.523 10.474-1.47 16.119-2.222 1.622-.217 3.405-.855 5.006-.855 1.731 0 3.37.439 5.056.439 11.336 0 14.568 14.333 19.782 21.981 5.791 8.493 13.402 14.067 23.935 14.067 10.049 0 16.8-9.924 23.166-16.29m30.026-3.932c-4.883.766-8.119.495-12.309-2.198-2.268-1.458-5.373-2.574-8.108-2.1-4.844.838-8.086 5.426-10.136 9.525-3.26 6.519-2.34 13.099-2.002 20.197.345 7.248-1.367 14.59-2.272 21.712-.457 3.603-1.155 7.504-1.221 11.137-.041 2.235.764 4.273.879 6.35.142 2.547 3.062-.825 3.615-1.417 2.946-3.157 5.467-6.737 8.523-9.793 3.296-3.296 7.066-6.895 10.991-9.427 2.416-1.56 5.581-2.089 8.328-2.858 2.53-.708 4.729-1.226 7.229-2.198 3.075-1.196 5.659-2.564 8.255-4.64 2.382-1.906 4.887-3.534 7.376-5.276 2.285-1.6 4.089-5.305 5.031-7.815 1.276-3.403 1.758-7.223 1.758-10.844 0-1.816.292-3.927-.244-5.69-.349-1.148-1.263-2.051-1.734-3.151C538.11 654.874 533.789 651 530 651c-4.078 0-6.518 1.539-10.078 3.37-4.02 2.068-11.911 4.316-13.628 9.037-1.456 4.005-5.117 7.138-6.374 11.161-1.032 3.3-2.264 6.827-4.176 9.696m37.807 4.835c2.845 3.816 6.709 8.158 11.43 9.574 5.088 1.527 10.467.083 15.288-1.563 6.045-2.064 11.474-6.252 18.098-6.252 2.82 0 5.328 1.06 7.571 2.662 1.738 1.241 3.621 1.772 5.617 2.418 1.768.572 3.177 1.897 4.762 2.833 2.895 1.708 4.741 4.454 7.669 6.154 3.26 1.893 4.205 4.303 6.716 6.814 3.155 3.155 4.478 7.621 6.594 11.43.715 1.286-.137 1.834-1.367 1.246-2.933-1.403-4.964-5.507-7.547-7.62-.992-.812-2.101-1.707-2.979-2.638-.733-.775-.632-1.884-1.27-2.735-1.512-2.016-2.901-3.447-3.762-5.813-1.382-3.801-6.136-7.594-9.231-9.915" stroke="#4A5759" stroke-width="3" stroke-linecap="round" stroke-linejoin="round"/><path d="M549.747 661.408c6.982 2.665 12.894 5.44 19.018 9.768 2.129 1.504 6.654 3.454 7.823 5.792" stroke="#579C8F" stroke-width="3" stroke-linecap="round" stroke-linejoin="round"/><path d="M540 657.82c5.36 2.284 13.387 5.689 19.084 2.334 2.133-1.257 3.78-3.023 5.813-4.344 1.793-1.165 5.312-1.052 7.326-.951 2.461.123 5.549 2.095 7.867 2.961 2.488.929 4.632 2.168 6.527 4.063 3.099 3.099 5.426 6.513 6.894 10.589 1.023 2.843 2.654 5.841 3.306 8.775.622 2.799 1.943 6.482 3.501 8.86 1.515 2.312 3.175 5.4 3.89 8.083.665 2.492 2.644 6.72 3.292 9.31" stroke="#4A5759" stroke-width="3" stroke-linecap="round" stroke-linejoin="round"/><path d="M550 740.5c.129 6.559.458 15.139 6.789 19.209 4.916 3.16 7.877 8.977 9.244 14.443" stroke="#579C8F" stroke-width="3" stroke-linecap="round" stroke-linejoin="round"/><path d="M539.784 745.822c5.651 0 8.179-1.101 10.741-6.224-.525-2.098.316-2.197.389-3.502.048-.865 2.766-2.176 3.522-2.506 1.592-.697 4.807-1.124 6.376-.411.922.419 2.719.572 3.688.821 1.064.274 3 .5 3 .5 3.706.084 6.564 1.637 9.65 3.714 3.246 2.185 4.403 5.321 5.079 8.969.418 2.26.383 4.543.67 6.808.394 3.113 1.469 5.95 1.469 9.141 0 3.635.272 7.381-.086 11.001-.299 3.015-1.663 5.777-2.248 8.731l-.022.113c-.729 3.679-1.408 7.109-1.555 10.865-.105 2.664-.995 6.033-2.615 8.213-2.192 2.947-5.021-.811-6.095-2.529-1.403-2.245-3.432-3.981-5.273-5.857-2.279-2.322-4.126-4.605-7.369-5.619-3.348-1.046-6.284-2.654-9.747-3.414-3.68-.808-6.847-1.907-10.114-3.804-3.53-2.049-6.774-3.659-9.315-7.002-2.386-3.139-4.167-6.036-4.992-9.941-1.002-4.742-.988-12.071 2.269-16.079 3.098-3.813 8.198-1.988 12.578-1.988z" stroke="#4A5759" stroke-width="3" stroke-linecap="round" stroke-linejoin="round"/><path d="M533.798 690.194c2.746 8.349 2.694 16.756 2.031 25.458-.402 5.284-.323 12.325 3.437 16.554 1.818 2.046 3.421 4.686 6.008 5.836.747.332 1.536.968 2.334 1.145.891.198 2.077 1.328 1.75.022m33.454 13.615c3.292 1.077 6.642 2.286 10.028 3.025 3.08.673 6.297.436 9.423.778 3.069.337 6.469.476 9.552.476 2.282 0 4.344-.071 6.57-.368 1.938-.258 3.229-1.182 2.55 1.535" stroke="#4A5759" stroke-width="3" stroke-linecap="round" stroke-linejoin="round"/><path d="M618.99 757.103c3.792 4.289 7.974 7.868 12.189 11.713 3.349 3.055 7.131 6.167 11.303 8.04 5.287 2.374 14.225 2.731 19.515.086 6.067-3.033 10.205-9.763 14.177-14.998 1.572-2.072 3.476-4.029 5.835-5.208 2.552-1.276 4.902-3.031 7.78-3.437 3.672-.517 7.17-1.253 10.871-1.253 4.249 0 1.025-1.998-1.146-3.112-3.483-1.789-7.358-.653-10.87-1.751-1.185-.37-2.431-.769-3.523-1.361-1.271-.69-1.359-2.139-2.377-2.939-5.275-4.145-14.187-2.966-20.228-1.319-7.119 1.942-12.539 6.659-19.58 8.537-4.628 1.234-9.67.125-14.221 1.75-2.51.897-6.262 3.365-7.78 5.641m-69.63-118.911c-4.373 2.274-9.679 5.698-13.226 9.245-2.077 2.077-3.981 3.174-7.079 3.174M409.09 435.536c-.203 8.518-4.5 16.54-6.693 24.662-2.876 10.653-3.983 21.976 1.128 31.974 6.472 12.664 19.315 23.999 19.315 39.249 0 4.294.728 9.178-.982 13.168-.812 1.895-1.081 3.664-2.583 5.166-1.485 1.485-1.448 4.282-2.983 5.456-3.2 2.447-7.318 7.789-11.792 7.789m629.64-138.416c-5.48-.865-10.56-3.986-14.49 2.187-1.08 1.705-.76 5.745-.76 7.763 0 2.947.04 6.776 1.99 9.211 2.18 2.72 3.86 5.778 5.85 8.638 1.2 1.722 1.76 3.949 3.09 5.549 2 2.404 4.59 4.944 6.29 7.489m-2.96-100.863c-3.92 5.65-6.78 13.361-8.36 20.009-1.87 7.862-1.93 17.108 1.48 24.655 1.22 2.706 2.77 5.291 4.04 7.982.78 1.637 1.41 3.721 2.46 5.193 1.05 1.471 2.29 2.401 3.83 3.171" stroke="#4A5759" stroke-width="3" stroke-linecap="round" stroke-linejoin="round"/><path d="M1083.2 238.388c1.93-4.226 5.63-2.409 9.31-.918 3.08.686 5.94 2.127 7.35 4.679 1.16 2.106 5.01 2.603 6.81.967 2.44-2.207-2.3-5.803-2.3-5.803s-3.96-1.833-4.97-4.399c-.68-1.74-1.98-3.047-.73-4.681.67-.872 1.69-2.733 2.94-2.983 3.26-.656 7.27.104 10.4.833 5.57 1.3 10.87 2.551 16 4.944 3.32 1.548 4.69 4.586 6.14 7.468.62 1.249.29 2.851.92 4.138.84 1.711 1.56 3.42 2.01 5.265 1.29 5.247 3.83 10.301 4.24 15.744.24 3.102 2.3 5.51 2.38 8.606.01.587.67 2.763 0 3.009-.23.082-.46.743-2.11.743-3.21-1.66-4.89-4.904-8.78-5.91-6.07-1.574-12.36-5.572-18.79-5.696-6.72-.13-13.36-1.067-20.06-1.424-3.68-.196-7.58-2.113-10.64-4.003-2.85-1.761-3.32-7.024-3.32-9.806 0-3.748 1.63-7.333 3.2-10.767v-.006z" fill="#B1C9AB"/><path d="M360.735 463.667c6.965 3.135 12.313 8.895 19.401 11.903 2.248 3.714 1.834 1.36 1.834 5.047 0 2.421-2.823 2.186-4.155 2.98-4.867 2.902-11.744 3.785-17.309 4.183-5.834.417-11.352 3.839-17.051 4.951-4.366.852-8.553 3.232-12.45 5.446l-.159.09c-2.918 1.659-4.933 5.049-7.192 7.474-2.417 2.594-5.02 5.138-7.079 8.027-3.276 4.599-2.513-5.021-2.464-6.95.073-2.908 2.47-6.216 3.868-8.551 1.477-2.464 4.131-4.979 6.334-6.643 1.586-1.198 2.402-3.129 3.954-4.398 1.842-1.506 2.568-2.353 2.837-4.951.533-5.147-1.37-10.065 3.611-13.072 4.004-2.417 8.61-3.549 12.523-5.935 3.58-2.184 9.919-1.211 13.497.399z" fill="#B1C9AB" stroke="#4A5759" stroke-width="3" stroke-linecap="round" stroke-linejoin="round"/><path d="M1093.83 255.438c-9.52-3.658-20.95 3.672-24.87 12.269" stroke="#B1C9AB" stroke-width="3" stroke-linecap="round" stroke-linejoin="round"/><path d="M382 481.417c4.804-.352 8.322.769 12.572 2.679 1.462.658 6.66 3.44 6.66 3.44" stroke="#4A5759" stroke-width="3" stroke-linecap="round" stroke-linejoin="round"/><path fill="#EFEDEA" d="M408 193h625v447H408z"/><rect x="407" y="161" width="626" height="31" rx="5" fill="#C8BFB6"/><rect x="408.5" y="162.5" width="623" height="476" rx="3.5" stroke="#4A5759" stroke-width="3" stroke-linecap="round" stroke-linejoin="round"/><path d="M677.2 183v-1.696h1.12v-5.12h-1.12v-1.68h3.048l.464 1.912c.304-.731.691-1.275 1.16-1.632.475-.357 1.053-.536 1.736-.536.288 0 .544.024.768.072.224.043.435.104.632.184l-.472 3.552h-1.584v-1.568c-.48.085-.901.347-1.264.784-.363.432-.643.965-.84 1.6v2.432h1.68V183H677.2zm11.706-3.512c.085.693.312 1.192.68 1.496.368.299.821.448 1.36.448.389 0 .765-.064 1.128-.192a5.182 5.182 0 001.048-.512l1.016 1.376a4.97 4.97 0 01-1.456.84c-.566.219-1.211.328-1.936.328-.971 0-1.784-.192-2.44-.576a3.723 3.723 0 01-1.48-1.6c-.331-.677-.496-1.456-.496-2.336 0-.837.16-1.597.48-2.28a3.88 3.88 0 011.4-1.64c.618-.411 1.373-.616 2.264-.616.81 0 1.512.173 2.104.52a3.49 3.49 0 011.384 1.496c.33.651.496 1.432.496 2.344 0 .144-.006.299-.016.464a5.108 5.108 0 01-.032.44h-5.504zm1.568-3.568c-.454 0-.819.163-1.096.488-.278.325-.446.845-.504 1.56h3.12c-.006-.619-.126-1.115-.36-1.488-.235-.373-.622-.56-1.16-.56zm10.338 5.36c.346 0 .672-.067.976-.2.309-.139.616-.315.92-.528l1.128 1.6c-.374.32-.83.587-1.368.8a4.798 4.798 0 01-1.792.32c-.912 0-1.696-.187-2.352-.56a3.855 3.855 0 01-1.512-1.568c-.352-.672-.528-1.451-.528-2.336 0-.885.178-1.672.536-2.36a4.04 4.04 0 011.536-1.632c.666-.395 1.456-.592 2.368-.592.645 0 1.218.091 1.72.272.506.176.97.44 1.392.792l-1.096 1.52a3.697 3.697 0 00-.912-.472 3.008 3.008 0 00-1-.168c-.571 0-1.032.203-1.384.608-.347.4-.52 1.077-.52 2.032 0 .624.082 1.117.248 1.48.165.357.389.613.672.768.288.149.61.224.968.224zm12.241-.728c0 .32.043.552.128.696a.843.843 0 00.432.328l-.52 1.664c-.501-.048-.925-.157-1.272-.328a1.932 1.932 0 01-.808-.792c-.325.389-.741.68-1.248.872a4.446 4.446 0 01-1.552.28c-.874 0-1.573-.248-2.096-.744-.517-.501-.776-1.144-.776-1.928 0-.923.36-1.635 1.08-2.136.726-.501 1.744-.752 3.056-.752h1.144v-.32c0-.869-.56-1.304-1.68-1.304-.272 0-.621.04-1.048.12a8.751 8.751 0 00-1.28.328l-.584-1.68a9.706 9.706 0 011.712-.472 9.184 9.184 0 011.6-.16c1.264 0 2.198.259 2.8.776.608.512.912 1.253.912 2.224v3.328zm-3.968.912c.272 0 .558-.08.856-.24.299-.165.526-.397.68-.696v-1.376h-.624c-.704 0-1.221.109-1.552.328-.33.213-.496.528-.496.944 0 .325.099.581.296.768.203.181.483.272.84.272zm11.114-7.24c1.109 0 1.904.405 2.384 1.216.48.811.72 1.907.72 3.288 0 .875-.128 1.656-.384 2.344-.256.683-.627 1.221-1.112 1.616-.485.389-1.075.584-1.768.584-.827 0-1.499-.296-2.016-.888v3.896l-2.528.264v-12.04h2.24l.112.952c.347-.443.725-.757 1.136-.944a2.856 2.856 0 011.216-.288zm-.784 1.864c-.293 0-.552.088-.776.264a2.7 2.7 0 00-.616.72v3.584c.176.261.36.453.552.576.197.123.429.184.696.184.448 0 .797-.203 1.048-.608.251-.411.376-1.093.376-2.048 0-.704-.051-1.248-.152-1.632-.101-.389-.248-.659-.44-.808a1.06 1.06 0 00-.688-.232zm7.57 5.4c0-.325.08-.621.24-.888.16-.272.376-.488.648-.648.272-.165.57-.248.896-.248.33 0 .629.083.896.248.272.16.488.376.648.648.16.267.24.563.24.888 0 .32-.08.616-.24.888-.16.272-.376.488-.648.648a1.671 1.671 0 01-.896.248c-.326 0-.624-.083-.896-.248a1.797 1.797 0 01-.648-.648 1.72 1.72 0 01-.24-.888zm13.978-7.264c.602 0 1.048.197 1.336.592.293.389.44 1.021.44 1.896V183h-2.168v-6c0-.299-.03-.509-.088-.632-.054-.123-.166-.184-.336-.184a.855.855 0 00-.416.12c-.139.075-.294.219-.464.432V183h-1.776v-6c0-.299-.03-.509-.088-.632-.054-.123-.166-.184-.336-.184a.855.855 0 00-.416.12c-.139.075-.294.219-.464.432V183h-2.2v-8.496h1.856l.168.824c.266-.363.536-.637.808-.824.272-.187.594-.28.967-.28.32 0 .593.083.817.248.229.16.392.413.488.76.256-.299.538-.541.848-.728.309-.187.65-.28 1.024-.28zm8.017 0c1.11 0 1.904.405 2.384 1.216.48.811.72 1.907.72 3.288 0 .875-.128 1.656-.384 2.344-.256.683-.626 1.221-1.112 1.616-.485.389-1.074.584-1.768.584-.826 0-1.498-.296-2.016-.888v3.896l-2.528.264v-12.04h2.24l.112.952c.347-.443.726-.757 1.136-.944a2.856 2.856 0 011.216-.288zm-.784 1.864c-.293 0-.552.088-.776.264a2.7 2.7 0 00-.616.72v3.584c.176.261.36.453.552.576.198.123.43.184.696.184.448 0 .798-.203 1.048-.608.251-.411.376-1.093.376-2.048 0-.704-.05-1.248-.152-1.632-.101-.389-.248-.659-.44-.808a1.06 1.06 0 00-.688-.232zm12.298.016v2.672h1.112v1.896h-1.112V183h-2.424l-.016-2.328h-4.592v-1.68l3.08-7.36 2.152.792-2.624 6.352h1.992l.296-2.672h2.136z" fill="#192825"/><path stroke="#4A5759" stroke-width="3" d="M407 192.5h626"/><path d="M1006.5 176c.5 3 2.76 5.321 4.05 6.007.9-1.346 2.75-2.164 3.85-3.208.76-.714 1.61-1.268 1.61-2.406 0-1.18-.51-2.393-2.01-1.893-3 1-3.5 4.05-3.5 1 0-1.682.09-3.95-2-3-1.64.743-2 1.5-2 3.5z" fill="#4A9D63" stroke="#4A5759" stroke-width="2" stroke-linecap="round" stroke-linejoin="round"/><path d="M994.022 171l-.118.152c-.789 1.303.826 5.823 1.288 6.746.33.66 1.73 2.084.434 2.084-1.189 0-2.177.776-2.727 1.765-.626 1.127-.604 2.704-1.283.802-.294-.825-.097-1.843-.424-3.151-.447-1.787-3.442-2.84-4.075-2.845-.074.033-.117.05-.117.043 0-.029.042-.044.117-.043.51-.229 2.511-1.259 2.592-1.311 1.657-1.065 2.993-2.546 4.195-4.09a.821.821 0 01.118-.152z" fill="#F8CD5E" stroke="#4A5759" stroke-width="2" stroke-linecap="round" stroke-linejoin="round"/><path d="M972 173c2.237-1.006 3.5.001 4.5.5 1.905.952 2.265 3.667 2.5 5 .142.808-.93 4.356-3.103 4.356-3.094 0-6.897-.763-6.897-4.651 0-1.196.763-4.199 3-5.205z" fill="#9E483E" stroke="#4A5759" stroke-width="2" stroke-linecap="round" stroke-linejoin="round"/><path stroke="#C4C4C4" stroke-width="12" stroke-linecap="round" stroke-linejoin="round" d="M1014 217v228"/><path d="M1141.07 580.667l7-1.667-2 15h-5v-13.333z" fill="#D39264"/><path d="M1153.5 575.5c3.96-7.975 14-18 14-18l4.5-3 17-5 19 1.5s14.31 5.093 20.5 12c4.61 5.14 8.5 15.5 8.5 15.5l6 22 2.5 24.5v18.5s-4.01 9.711-8.5 14.5c-5.86 6.255-19 11-19 11l-21 4-27-4s-15.24-7.451-21-16c-5.56-8.251-6.44-14.565-7-24.5-.62-11.126 5.5-28 5.5-28s1.53-16.009 6-25z" fill="#818181"/><path d="M1154.14 678.805l9.12-12.805 18.24 6.146-3.55 14.854-5.07-2.561v-5.634l-3.04 5.634h-6.58l2.53-7.683-5.57 5.122-6.08-3.073zm54.72 8.195l-2.54-14.854 17.32-4.146 6.5 6.195v4.61l-4.06 4.61-5.43 2.561-5.21-7.171-2.02 8.195h-4.56zm-25.77-89l8-4.5 9 4.5-9 9-8-9zm-21.24 57.082c1.11 3.555 2.68 6.074 4.99 9.034 1.96 1.902 1.03 1.797 5.94 3.906 3.89 1.666 7.32 3.134 11.58 3.798 4.08.637 9.47 1.828 13.59.738 1.49-.395 3.07.075 4.57-.234 2.19-.453 4.48-.773 6.63-1.386 2.93-.84 4.93-2.62 7.49-3.978 4.06-4.27 6.85-8.538 7.89-13.823.29-1.436.53-5.212.61-6.614.09-1.632-10.06 3.136-10.06 1.427 0-2.605 7.48-10.937 8.48-13.314-.77-1.789-.74-2.336-1.33-4.196-.71-2.217-1.78-3.306-3.21-5.058-2.25-2.756-4.25-4.961-6.93-7.388-3.2-2.893-5.78-2.413-9.57-4.28-6.87-3.381-18.62-1.103-25.34 1.211-3.25 1.121-5.83 3.7-8.38 5.814-2.04 1.691-4 3.689-5.44 5.903a22.004 22.004 0 00-3.19 7.994c-.61 3.252 7.2 5.706 3.19 13.314.1.737-3.12-1.678-3.02-.951.37 2.72.67 5.414 1.51 8.083z" fill="#E5CEB1"/><path d="M1165 648v-28.5l26-3 22 1 2 13h9l-9 16-28.5 2.5-21.5-1z" fill="#F2F2F2"/><path d="M1164.39 667.108c-2.62 2.118-4.6 4.257-6.33 7.148-.76 1.262-3.1 3.876-3.1 5.35 0 1.01 4.76 3.207 5.42 2.573.79-.754 5.69-9.128 5.22-4.827-.18 1.583-3.55 7.635-.3 7.786 1.44.068 2.44.905 3.8 1.207 1.83.407 2.44-3.303 2.85-4.462.2-.571.71-3.237 1.77-3.119.26.028-.32 5.28-.32 5.691 0 2.355 2.77 2.891 4.92 2.277 1.8-.514 2.42-6.629 2.46-8.059.05-1.529 0-4.643 0-6.173" stroke="#9F4100" stroke-width="2" stroke-linecap="round" stroke-linejoin="round"/><path d="M1195.69 548.935c.46-4.581-.69-9.325-.69-13.935" stroke="#D66C22" stroke-width="2" stroke-linecap="round" stroke-linejoin="round"/><path d="M1206.13 673.122c0 3.758.91 7.388 1.27 11.131.13 1.347.26 3.019 1.74 3.619.77.31 4.31.03 4.92-.55.9-.869.24-4.486.24-5.726 0-.501-.32-2.742.43-2.702 2.18.117 2.24 3.724 3.86 4.626.96.531 1.76 2.552 2.79 2.771 1.73.369 3.3-1.189 4.9-1.626 1.38-.379-.21-3.89-.82-4.534-.37-.406-.62-.947-.85-1.443-.08-.154-1.08-.985-.65-.985.55 0 1.45 2.79 1.93 3.252.74.705 2 .878 3.01.825 6.15-.328-2.13-11.393-4.29-12.78" stroke="#9F4100" stroke-width="2" stroke-linecap="round" stroke-linejoin="round"/><path d="M1165.5 559.824c2.59-2.42 5.11-4.702 8.73-5.876 3.14-1.153 5.4-2.562 8.77-3.124 3.34-.556 7.61-1.5 11-1.5 12.13 0 19.88 2.222 30 9 5.52 3.699 11.52 12.43 13 16.5 1.55 7.339 5.77 14.487 5.77 22.036 0 2.689 1.3 5 1.3 7.689 0 1.579 1.17 5.102 1.17 6.784 0 3.034-.11 3.31 0 5.427.2 3.917 1.2 6.037 1.48 9.95.26 3.701.47 5.814 0 9.497-1.26 9.779-5.36 16.418-11.51 22.894-6.23 6.562-14.48 10.054-23.53 12.184-5.22 1.231-9.98 1.714-15.39 1.484-4.82-.206-12.19.456-16.49-1.484-4.99-2.247-8.36-2.575-13.14-5.177-6.48-3.531-12.09-7.39-16.37-13.167-4.02-5.421-7.06-13.578-7.06-20.11 0-5.592.17-10.065 1.4-17.331 1.08-2.537 1.17-5.328 1.56-7.999.38-2.613 1.4-5.003 1.57-7.67.18-2.742 1.26-5.45 1.53-8.213.29-2.977.17-5.889 1-8.819 1.63-5.77 5.18-11.709 9.21-16.475l.11-.127c2.07-2.456 3.48-4.13 5.89-6.373z" stroke="#282E2F" stroke-width="3" stroke-linecap="round" stroke-linejoin="round"/><path d="M1170.25 588.133c-2.53.439-3.57.693-4.5 2.98-.56 1.402.56 2.521 1.75 3.253 2.45 1.514 5.5.192 5.5-2.644 0-2.499-1.52-4.722-4.41-4.722-1.5 0-1.81.035-2.66 1.217-.65.906-1.72 2.183 0 2.183" stroke="#282E2F" stroke-width="2" stroke-linecap="round" stroke-linejoin="round"/><path d="M1169.26 590.207c-6.26 3.173 2.7 3.286.5-.155-.67-1.064-2.43 1.189-2.61 2.022-.23 1.085.94 2.389 1.74 1.763.53-.413 2.01.035 2.01-.634 0-.785-.61-.714 0-.714 1.05 0 1.75-5.421.18-2.748" stroke="#282E2F" stroke-width="2" stroke-linecap="round" stroke-linejoin="round"/><path d="M1169.71 587.668c-2.55-.408-3.63-.662-5 1.507-.43.694 0 3.017 0 3.825 0 2.405 5.25 2.03 6.59 1.787 2.08-.379 2.91-4.795 1.42-6.068-.62-.537-.34-.927-1.21-1.071-.32-.054-.97-.35-1.27-.515-1.28-.714-3.31-.041-4.46.535m47.66-.716c-2.81 1.228-5.47 4.528-2.94 6.918 1.27 1.2 4.03 1.714 5.3.173 2.32-2.82-.66-8.368-4.56-6.323-.45.232-2.33 1.603-.82.615.95-.62 2.65-1.584 3.83-.884 1.45.86 2.85 2.168 2.85 3.825 0 2.294 1.44-.879.92-2.249-.48-1.269-.52-1.468-2-1.903-.69-.203-2.23-.486-2.58.173" stroke="#282E2F" stroke-width="2" stroke-linecap="round" stroke-linejoin="round"/><path d="M1216.37 589.027c-.99 0-2.98-.503-3.3.711-.26.978-.68 1.99.55 2.537 1.08.483 1.6-.436 1.02-1.326-.59-.894-3.13-1.391-3.92-.481-1.9 2.208 5.83 3.252 4.83-.595-.44-1.729-5.75.412-1.75.884" stroke="#282E2F" stroke-width="2" stroke-linecap="round" stroke-linejoin="round"/><path d="M1213.33 587.122c-2.19.092-4.05 1.011-4.05 3.113 0 1.202.8 3.398 2.39 3.711 2.08.409 4.89.762 5.96-.946.65-1.028.28-4.18-.71-5.154-1.54-1.519-2.95-.894-5.07-.894" stroke="#282E2F" stroke-width="2" stroke-linecap="round" stroke-linejoin="round"/><path fill-rule="evenodd" clip-rule="evenodd" d="M1219.63 608c-11.32 0-20.5-9.178-20.5-20.5s9.18-20.5 20.5-20.5 20.5 9.178 20.5 20.5-9.18 20.5-20.5 20.5zm0-4c-9.11 0-16.5-7.387-16.5-16.5s7.39-16.5 16.5-16.5c9.12 0 16.5 7.387 16.5 16.5s-7.38 16.5-16.5 16.5zm-55.06 4c-10.81 0-19.57-9.178-19.57-20.5s8.76-20.5 19.57-20.5c10.8 0 19.56 9.178 19.56 20.5s-8.76 20.5-19.56 20.5zm0-4c-8.7 0-15.75-7.387-15.75-16.5s7.05-16.5 15.75-16.5c8.69 0 15.74 7.387 15.74 16.5s-7.05 16.5-15.74 16.5z" fill="#CECECE"/><path d="M1240.13 594v-14h6v14h-6z" fill="#D49264"/><path d="M1191.59 593.324c-1.61 1.274-5.75 2.884-7.56 3.84-1.32.693-.39 2.372.7 3.336 1.93 2.663 3 3 5.88 6.451m.73-.366c2.36-1.989 4.74-4.009 6.92-6.192.62-.624 1.43-1.318 1.83-2.069.23-.431-.53-.617-.79-.774-1.86-1.099-5.21-2.726-7.71-4.226" stroke="#9F4100" stroke-width="2" stroke-linecap="round" stroke-linejoin="round"/><path d="M1191.12 528.189c-2.16 2.934.35 5.262 2.88 6.311 4.47 0 7.21-2.978 4.2-7.335-1.59-2.293-5.67-.904-7.08 1.024z" fill="#F1BD69" stroke="#D66C22" stroke-width="2" stroke-linecap="round" stroke-linejoin="round"/><path d="M1194.28 518.992c-4.64.956-7.74 1.729-10.22 5.919-1.77 2.358-3.69-.525-3.69-2.459 0-1.931 2.33-4.095 3.78-5.1 1.32-.914 2.33-1.799 3.73-2.686 1.03-.647 2.22-.999 3.35-1.434 2.42-.93 6.81-.324 9.22.296 2.8.72 8.61 3.611 8.61 6.898 0 1.129-.42 7.122-2.96 4.576-1.45-1.451-3.03-3.069-4.65-4.394-1.84-1.504-4.91-2.082-7.17-1.616zm8.58-13.136c-8.3-3.398-20.25-1.549-25.36 5.942-2.5 0-3.37-3.155-2.5-4.798.46-.881.79-1.234 1.5-1.941.63-.63 2.66-1.792 3-2.559 0 0 6.36-2.446 8.25-2.905 4.11-1 8.55-.527 12.68-.114 3.84.385 10.94 1.761 12.93 5.578 1.18 2.268 2.3 3.481-.57 5.236-1.1.674-1.67.103-2.39-.612l-.02-.025c-1.86-1.854-5.14-2.831-7.52-3.802z" fill="#F1BD69" stroke="#D66C22" stroke-width="2" stroke-linecap="round" stroke-linejoin="round"/><path d="M1144.72 630.227c4.64 6.827 9.36 12.323 16.53 16.551.61.358 1.97 1.577 2.52.592.67-1.178 1.03-2.687 1.03-4.03 0-4.227-3.19-8.225-4.94-11.907-1.21-2.537-2.23-5.369-3.67-7.763" stroke="#536264" stroke-width="2" stroke-linecap="round" stroke-linejoin="round"/><path d="M1164.8 618.753c.04 6.596-.23 13.292.02 19.874.09 2.417-.32 6.959-.32 9.373m.5-29.5c7.5-1 16.27-.829 24.25-1.387 5.65-.395 11.28-.409 16.94-.409 2.9 0 7.72-1.332 7.78 2.732.13 7.835.82 31.33.82 23.494m-51.63 5.737c5.73 0 11.44.954 17.17.797 7.4-.203 17.31.021 24.67-.797 3.6-.4 13.12-1.667 9.5-1.667" stroke="#536264" stroke-width="2" stroke-linecap="round" stroke-linejoin="round"/><path d="M1230.37 624.899c-3.68 4.232-6.74 8.824-10.16 13.25-1.19 1.55-3.66 3.56-3.78 5.601-.05.903-1.17 1.484-1.23 2.458-.11 1.968 1.72 1.77 3.26 1.412 4.77-1.113 9.46-3.292 13.93-5.305 2.43-1.093 6.43-3.117 7.4-5.532" stroke="#536264" stroke-width="2" stroke-linecap="round" stroke-linejoin="round"/><path d="M1146.5 579c-1.8-.064-4.04-.584-5.51.974-.98 1.041-.44 5.961-.49 7.463-.07 1.985-.11 3.687.19 5.592.33 2.054 3.21 1.143 4.19.81m95.32-14.426c1.35 0 6.97-.846 6.97 1.73v8.515c0 2.705.35 4.917-2.87 4.917" stroke="#FEFEFE" stroke-width="2" stroke-linecap="round" stroke-linejoin="round"/><path d="M1186.81 591.506c-2.35-.235-1.14-3.143-.99-4.629 2.54.255 6.02.191 8.57.446 1.18.118 3.21-.344 4.24.036.84.312.41 2.931.35 3.513-.23 2.325-3.86 1.054-5.96.844-2.09-.209-4.14-.002-6.21-.21z" fill="#536264" stroke="#536264" stroke-width="2" stroke-linecap="round" stroke-linejoin="round"/><circle cx="1219.63" cy="587.5" r="20.5" stroke="#FEFEFE" stroke-width="2" stroke-linecap="round" stroke-linejoin="round"/><circle cx="1219.63" cy="587.5" r="16.5" stroke="#FEFEFE" stroke-width="2" stroke-linecap="round" stroke-linejoin="round"/><ellipse cx="1165.07" cy="587.5" rx="20.067" ry="20.5" stroke="#FEFEFE" stroke-width="2" stroke-linecap="round" stroke-linejoin="round"/><ellipse cx="1165.07" cy="587.5" rx="16.152" ry="16.5" stroke="#FEFEFE" stroke-width="2" stroke-linecap="round" stroke-linejoin="round"/><path d="M1238.8 593.982c.99.211 5.2 0 7.2 0" stroke="#FEFEFE" stroke-width="2" stroke-linecap="round" stroke-linejoin="round"/><path d="M1214.72 645.774c2.26-4.065 5.25-7.743 7.47-11.78.58-1.063 1.74-1.894 2.23-2.945.38-.809-2.99-.497-3.32-.491-1.81.034-5.4.491-5.4.491" stroke="#536264" stroke-width="2" stroke-linecap="round" stroke-linejoin="round"/><path d="M1191.03 627l-.12.152c-.79 1.303.82 5.823 1.29 6.746.33.66 1.73 2.084.43 2.084-1.19 0-2.18.776-2.73 1.765-.62 1.127-.6 2.704-1.28.802-.29-.825-.1-1.843-.42-3.151-.45-1.787-3.45-2.84-4.08-2.845-.07.033-.12.05-.12.043 0-.029.05-.044.12-.043.51-.229 2.51-1.259 2.59-1.311 1.66-1.065 3-2.546 4.2-4.09a.53.53 0 01.12-.152z" fill="#F9D372" stroke="#536264" stroke-width="2" stroke-linecap="round" stroke-linejoin="round"/><path d="M1417.57 176.858c12.39-2.692 20.43-7.328 26.68-18.489l-2.57-120.121c-.62-4.328-2.96-11.66-6.25-14.687-3.47-3.182-6.84-8.794-11.66-10.157-3.74-1.06-6.82-5.062-10.49-6.464-1.52-.582-3.6-.917-4.88-1.673-2.55-1.5-4.44-1.127-.97.918 3.37 1.98 4.41 7.745 7.77 9.723 3.49 2.052 4.59 7.498 5.1 11.063l.85 5.934c.34 2.377-.26 4.114-.63 6.962-.44 3.374-3.39 6.163-5.82 9.34-1.06 1.393-3.03 2.109-4.06 2.915-1.43 1.11-5.04 1.267-6.85.983-4.63-.729-7.25-2.918-9.89-6.728-1-1.44-.94-3.56-1.56-5.195-.89-2.363-2.47-5.016-2.96-7.544-.43-2.223-1.44-4.287-2.23-6.375-.63-1.667-1.2-4.29-2.2-5.74-2.47-3.568-6.31-5.615-10.57-6.822-1.31-.37-3.07-.555-5.05-.819-2.32-.31-3.62-.494-5.96-.596-2.31-.1-3.61-.108-5.91.068-2.33.179-3.95.567-5.93.851-2.14.307 1.64 1.848 2.51 2.19 2.05.811 3.19 3.434 4.86 4.757 1.33 1.06 2.86 2.843 3.93 4.182 1.31 1.636 3 2.22 4.28 4.167 1.2 1.825 1.71 3.119 2.08 5.195.52 2.934 1.05 5.644-.24 7.644-1.81 2.801-6.15 4.052-9.47 2.702-2.18-.887-4.23-3.27-6.15-5.386-1.82-2.014-2.67-3.724-3.32-5.187-3.44-7.68-8.58-13.078-17.35-11.82-4.38.628-7.5 4.902-11.92 5.536-3.73.535-7.99.509-11.37.993l-6.25.896c-2.13.307.13 3.982.41 5.042.99 3.84 4.21 5.787 5.89 9.992 2.19 5.444 2.03 8.944 2.76 14.764.7 5.641 1.59 10.43.95 14.526-.66 4.156-.18 8.624.42 12.831.75 5.224 4.75 2.602 8.1 3.084 9.97 1.432 12.85-10.159 21.74-13.863 4.05-1.688 9.64-5.196 12.39-1.777 2.35 2.935-.96 6.068-2.8 9.354-2.56 4.587-7.9 8.15-11.9 10.661-1.49.936-2.9 2.386-4.85 3.632-1.81 1.157-3.19 1.612-5.04 2.715-1.55.923-2.59 1.02-4.14 1.934-2.02 1.193-3.65 1.394-5.08 2.036-1.52.679-2.69 1.165-4.39 1.409-2.92.419-4.06-1.631-3.66 1.125 1 7.009 8.07 17.232 13.58 21.359 2.94 2.202 5.87 4.224 9.35 5.21 3.32.938 7.79-2.602 10.21-4.369 2.98-2.169 5.01-6.671 6.36-9.979 1.43-3.477 4.37-7.477 6.64-10.515 1.6-2.132 2.41-4.303 4.46-6.661l.05-.046c1.61-1.846 2.56-2.934 4.61-4.305 3.69-2.47 6.97-4.174 10.88-3.317 1.68.367 3.5 1.529 4.51 2.936 1.11 1.555 1.14 3.834 1.2 5.647.2 5.703-1.18 7.335-3.63 12.141-2.45 4.82-5.45 8.855-8.86 12.393-3.06 3.167-5.75 7.816-9.35 10.62-2.85 2.218-5.96 6.236-9.11 7.646-1.03.464-4.86 1.328-5.43 2.091-.14.179 2.24.743 2.38.791 1.19.43 2.46.649 3.64 1.178 3.66 1.654 8.49-.297 12.34-.849 4.4-.631 10.12-1.372 13.75-4.134 4.52-3.436 17.11-11.698 23.78-5.728 3.75 3.346 4.42 8.329 1.83 12.721-2.17 3.687-4.91 6.909-9.77 9.908-4.45 2.746-5.97 4.117-10.75 6.24-2.39 1.063-7.1.52-9.23 1.324-2.61.987.58 1.386 2.41 2.24 6.69 3.122 13.07 4.439 21.78 5.163 6.24.519 9.91.943 16.02-.386z" fill="#B0C9AB"/><path d="M1438.74 159.369c-6.25 11.161-14.29 15.797-26.67 18.489-6.12 1.329-9.79.905-16.03.386-8.71-.724-15.09-2.041-21.78-5.163-1.83-.854-5.02-1.253-2.41-2.24 2.13-.804 6.84-.261 9.23-1.324 4.79-2.123 6.3-3.494 10.75-6.24 4.86-2.999 7.6-6.221 9.77-9.908 2.59-4.392 1.92-9.375-1.82-12.721-6.68-5.97-19.26 2.292-23.79 5.728-3.63 2.762-9.35 3.503-13.75 4.134-3.85.552-8.68 2.503-12.34.849-1.18-.529-2.45-.748-3.64-1.178-.14-.048-2.52-.612-2.38-.791.57-.763 4.4-1.627 5.43-2.091 3.16-1.41 6.26-5.428 9.11-7.646 3.6-2.804 6.29-7.453 9.35-10.62 3.41-3.538 6.41-7.573 8.86-12.393 2.45-4.806 3.83-6.438 3.63-12.141-.06-1.813-.09-4.092-1.2-5.647-1.01-1.407-2.83-2.57-4.5-2.936-3.91-.857-7.2.847-10.89 3.317-2.07 1.382-3.02 2.477-4.65 4.351-2.06 2.358-2.87 4.529-4.47 6.661-2.27 3.038-5.21 7.038-6.63 10.515-1.36 3.308-3.39 7.81-6.37 9.979-2.42 1.767-6.89 5.307-10.21 4.369-3.48-.986-6.41-3.008-9.35-5.21-5.51-4.127-12.58-14.35-13.58-21.359-.4-2.756.74-.706 3.66-1.125 1.7-.244 2.87-.73 4.39-1.409 1.44-.642 3.06-.843 5.08-2.036 1.55-.914 2.59-1.011 4.14-1.934 1.85-1.103 3.23-1.558 5.04-2.715 1.95-1.246 3.36-2.696 4.85-3.632 4-2.51 9.34-6.074 11.91-10.66 1.83-3.287 5.15-6.42 2.79-9.355-2.75-3.42-8.34.09-12.39 1.777-8.89 3.704-11.77 15.295-21.74 13.863-3.35-.482-7.35 2.14-8.1-3.084-.6-4.207-1.07-8.675-.42-12.831.64-4.096-.25-8.885-.95-14.526-.73-5.82-.57-9.32-2.76-14.764-1.68-4.205-4.9-6.153-5.89-9.992-.28-1.06-2.54-4.735-.41-5.042 2.09-.298 4.17-.597 6.25-.896 3.38-.484 7.64-.458 11.37-.993 4.42-.634 7.54-4.908 11.92-5.535 8.78-1.26 13.91 4.138 17.35 11.82.65 1.462 1.5 3.172 3.33 5.186 1.91 2.115 3.96 4.5 6.14 5.386 3.32 1.35 7.66.1 9.47-2.702 1.3-2 .76-4.71.24-7.644-.37-2.076-.88-3.37-2.08-5.195-1.28-1.948-2.97-2.531-4.28-4.167-1.07-1.339-2.6-3.122-3.93-4.182-1.66-1.323-2.81-3.946-4.86-4.757-.87-.342-4.65-1.883-2.51-2.19 1.98-.284 3.6-.672 5.93-.851 2.3-.176 3.6-.169 5.91-.068 2.34.102 3.64.287 5.96.596 1.98.264 3.74.449 5.05.819 4.27 1.207 8.1 3.254 10.57 6.822 1.01 1.45 1.57 4.073 2.2 5.74.79 2.088 1.8 4.152 2.23 6.375.49 2.528 2.07 5.18 2.96 7.544.62 1.635.56 3.755 1.56 5.195 2.64 3.81 5.26 6 9.89 6.728 1.81.284 5.42.127 6.85-.983 1.03-.806 3-1.522 4.06-2.915 2.43-3.177 5.38-5.966 5.82-9.34.37-2.848.97-4.585.63-6.962-.28-1.978-.57-3.956-.85-5.934-.51-3.565-1.61-9.01-5.09-11.063-3.36-1.979-4.41-7.743-7.77-9.723-3.48-2.045-1.59-2.418.96-.918 1.29.756 3.36 1.091 4.88 1.673 3.67 1.402 6.75 5.404 10.49 6.464 4.82 1.363 8.19 6.975 11.66 10.157 3.3 3.026 5.63 10.359 6.25 14.687" stroke="#619482" stroke-width="4" stroke-linecap="round" stroke-linejoin="round"/><path d="M1421.3 98.401c6.42 7.952 16.5 24.495 16.5 24.495l.13 4.011s-5.6-9.095-11.59-17.589c-17.47.938-26.95 5.126-43.25 19.188 0 0 7.7-10.421 15.72-15.239 10.72-6.434 24.32-8.384 24.32-8.384a104.87 104.87 0 00-3.83-4.851c-8.26-9.75-10.99-14.21-21.45-21.546-3.83-2.69-11.09-5.572-15.23-6.321 0 0-2.92.336-5.51 2.134-6.52 4.516-6.68 4.42-12.53 9.408-4.14 3.53-9.32 10.325-13.59 14.485-6.59 6.412-13.16 11.288-13.16 11.288s5.97-5.843 12.84-13.481c4.4-4.887 9.05-11.25 13.09-14.861 6.41-5.728 14.54-10.975 14.54-10.975-10.04-2.368-20.3-3.192-31.22-8.569a338.14 338.14 0 01-5.79-2.923c-9.99 2.81-12.51 5.9-17.58 11.648 2.26-5.32 7.93-10.263 13.22-13.94-5.04-2.7-10.25-5.672-14.17-8.307-7.38-4.952-10.41-7.013-10.16-8.392.19-1.071 8.85 6.7 24.72 15-4.55-8.063-6.5-12.46-9.81-20.273 4.17 5.775 7.6 16.95 16.97 23.806.62.451 1.18.542 1.78.812 12.25 5.499 23.24 6.243 33.98 9.002 1.19-4.197-1.58-20.735-5.66-33.21 4.81 8.801 6.87 15.917 8.92 34.12 5.61 1.696 11.18 4.136 16.86 8.294 7.86 5.751 11.99 10.206 17.37 16.759 0 0-2.24-10.538.18-19.276 2.41-8.74 7.06-22.503 7.06-22.503l2.83.938s-4.48 11.07-6.89 20.685c-3.78 15.095.39 24.567.39 24.567z" fill="#619482"/></svg>