<svg width="2069" height="926" viewBox="0 0 2069 926" fill="none" xmlns="http://www.w3.org/2000/svg">
<path opacity="0.4" d="M231.202 315.845C195.159 350.27 127.49 428.258 99.6302 472.456C92.9465 482.963 140.44 496.973 193.983 491.469C236.817 487.066 333.717 485.965 376.812 485.965C501.659 508.381 651.274 497.473 710.476 485.965C720.814 485.965 750.502 484.736 786.546 479.818C831.6 473.672 897.223 478.317 939.339 474.815C973.032 472.013 1006.48 463.64 1019 459.804V157.091C996.277 134.275 934.006 96.8825 905.711 81.038C866.272 72.2318 776.751 58.689 736.921 53.0183C712.63 37.8076 681.528 29.7635 669.013 27.6427C638.653 19.2421 572.048 95.6905 523.729 111.201C477.18 126.144 413.378 222.28 376.812 241.793C340.247 261.307 276.256 272.815 231.202 315.845Z" fill="url(#paint0_linear_5683_5908)"/>
<path opacity="0.4" d="M1742.71 288.721C1778.74 323.131 2037.16 494.676 2065 538.855C2105.5 550 1789.04 579.366 1735.54 573.864C1692.73 569.463 1613.83 573.864 1570.77 573.864C1446 596.27 1296.48 561.503 1237.31 550C1226.98 550 1197.31 548.771 1161.29 543.856C1116.26 537.712 1050.68 542.356 1008.59 538.855C974.918 536.054 544.079 559.336 531.572 555.502L903.202 288.721C1035.02 214.701 1040.35 69.8524 1068.62 54.0148C1108.04 45.2124 1197.5 31.6753 1237.31 26.0071C1261.59 10.803 1292.67 2.76226 1305.18 0.642436C1335.52 -7.7546 1402.08 68.661 1450.37 84.1652C1496.89 99.1013 1560.65 195.196 1597.19 214.701C1633.74 234.206 1697.69 245.709 1742.71 288.721Z" fill="url(#paint1_linear_5683_5908)"/>
<path d="M1564.91 911.5C1557.71 907.9 1569.91 861.667 1576.91 839L1643.41 190.5C1699.08 170.167 1814.91 128.3 1832.91 123.5C1850.91 118.7 1907.41 108.833 1933.41 104.5C1929.91 106 1914.41 131 1911.41 143C1908.41 155 1914.41 153.5 1914.41 158.5C1914.41 163.5 1913.41 172.5 1909.91 190.5C1907.11 204.9 1908.74 270.5 1909.91 301.5C1904.41 304.5 1873.91 310.5 1871.91 313.5C1870.31 315.9 1897.58 317.833 1911.41 318.5C1903.41 384.5 1903.08 457.667 1903.91 486C1900.41 489.5 1850.41 506 1869.91 502.5C1885.51 499.7 1901.41 496 1907.41 494.5C1903.41 507.5 1903.41 632 1903.91 636.5C1904.41 641 1916.41 641.5 1924.41 645.5C1930.81 648.7 1930.41 672.167 1929.41 683.5C1923.91 706 1924.41 788.5 1924.41 794C1924.41 799.5 1908.91 803 1907.41 806.5C1905.91 810 1923.91 816.5 1924.41 822C1924.81 826.4 1921.24 847.5 1919.41 857.5C1867.91 867 1846.91 890.5 1840.91 895C1834.91 899.5 1824.91 904 1801.91 915.5C1778.91 927 1737.41 923.5 1723.91 923.5C1710.41 923.5 1701.91 927 1666.41 923.5C1630.91 920 1573.91 916 1564.91 911.5Z" fill="#B8A384"/>
<path d="M1563.05 893.185C1566.35 877.983 1570.62 838.845 1572.34 821.176C1648.95 808.841 1802.47 789.872 1803.71 812.675C1805.26 841.179 1798.03 860.181 1765.5 870.182C1732.96 880.184 1719.02 865.682 1654.46 877.683C1602.81 887.285 1574.75 902.353 1567.18 908.687C1564.42 909.854 1559.74 908.387 1563.05 893.185Z" fill="#998363"/>
<path d="M804.657 96C794.257 93.2 771.99 82.5 762.157 77.5C728.324 328.333 655.699 830.1 660.499 846.5C665.299 862.9 705.99 870.333 722.657 870C774.657 863 812.499 865.5 830.499 864.5C848.499 863.5 916.499 864 928.499 864.5C940.499 865 1030.02 864.5 1074 864.5C1120 864.5 1107 864 1201.5 868C1296 872 1252.5 870.5 1367 868C1481.5 865.5 1472.5 869 1516.5 864.5C1560.5 860 1579 847.5 1640 846.5C1701 845.5 1737.66 822.5 1765.66 813.5C1788.06 806.3 1799.83 810.5 1804 813.5C1807.67 764 1817.66 662.3 1819.66 651.5C1822.16 638 1817.16 559.5 1814.66 525.5C1812.16 491.5 1813.66 469 1814.66 455.5C1815.66 442 1819.16 337.5 1819.66 321C1820.16 304.5 1820.16 289.5 1836.66 212.5C1849.86 150.9 1847.49 108.5 1844.66 95C1838.26 79.8 1817.66 74.6667 1808.16 74C1752.66 64.5 1755.66 77.5 1723.66 78.5C1691.66 79.5 1710.16 83 1681.16 83.5C1652.16 84 1574.16 73 1533.66 74C1493.16 75 1417.16 57 1369.16 57C1321.16 57 1268.66 69 1233.66 72.5C1198.66 76 1101.66 98.5 1076.16 103.5C1050.66 108.5 995.657 108 964.657 103.5C933.657 99 910.157 104 894.157 103.5C878.157 103 817.657 99.5 804.657 96Z" fill="#ECDDC7"/>
<path d="M660.409 843C657.209 831.8 669.5 727.5 673 706C699.5 636.5 764.909 706.5 765.909 726C766.909 745.5 757.909 769 710.409 792.5C672.409 811.3 661.242 834 660.409 843Z" fill="#927C5A"/>
<path d="M2.23805 77.8512C6.32227 71.0568 28.3832 62.697 38.9032 59.3664C544.875 124.813 772.126 15.9021 784.193 77.8514C790.227 108.826 793.476 197.253 784.193 228.227C774.911 259.202 769.342 331.142 767.949 361.118C766.557 391.093 763.772 428.562 759.595 501.502C756.254 559.854 768.114 670.436 773.684 721.228C773.529 720.395 769.647 753.333 763.772 747.394C701.89 684.84 92.7595 759.281 50.5058 763.819C12.9124 767.857 14.7688 702.835 14.7688 702.835C14.7688 702.835 42.656 692.15 0.381261 647.882C-3.46903 643.85 23.1229 606.916 22.6588 605.417C22.1947 603.918 14.7688 607.915 12.9124 606.916C11.0559 605.917 14.7688 602.919 14.7688 571.445C14.7688 539.971 35.1899 539.971 38.9032 534.975C42.6165 529.979 29.6206 527.481 21.7306 525.483C15.4186 523.884 46.6381 515.491 63.0368 511.494C45.7099 513.326 11.7985 515.89 14.7688 511.494C18.4818 505.999 18.0177 475.024 18.0177 457.539C18.0177 440.053 25.4435 429.062 29.6205 421.568C33.7976 414.074 18.0176 423.566 14.7688 421.568C11.52 419.57 14.7688 413.075 14.7688 405.082C14.7688 397.088 11.0559 406.58 6.87888 405.082C2.70184 403.583 6.41476 397.588 14.7688 362.117C23.1229 326.646 14.7688 283.182 18.0177 277.187C21.2665 271.192 47.2569 272.191 50.5058 264.198C53.7546 256.204 25.4435 258.702 21.7306 255.705C18.0177 252.707 18.4818 149.792 18.0177 139.301C17.5535 128.809 25.4435 128.809 25.4435 124.813C25.4435 120.816 11.9841 120.316 14.7688 116.819C16.9966 114.021 54.0642 102.664 72.3195 97.3352C67.6783 86.3442 -2.86722 86.3442 2.23805 77.8512Z" fill="#E1D0B6"/>
<path d="M1305.37 358C1309.77 354.4 1324.2 350.167 1330.87 348.5L1375.37 354C1381.87 354.333 1395.37 355 1397.37 355C1399.37 355 1405.2 359.333 1407.87 361.5C1397.37 376 1379.37 384.5 1375.37 385.5C1372.17 386.3 1351.04 385.167 1340.87 384.5C1307.87 385.5 1290.87 381.5 1292.37 378.5C1293.57 376.1 1300.54 368.833 1303.87 365.5L1305.37 358Z" fill="#594632"/>
<path d="M1305.37 350C1309.77 346.4 1324.2 342.167 1330.87 340.5L1375.37 346C1381.87 346.333 1395.37 347 1397.37 347C1399.37 347 1405.2 351.333 1407.87 353.5C1397.37 368 1379.37 376.5 1375.37 377.5C1372.17 378.3 1351.04 377.167 1340.87 376.5C1307.87 377.5 1290.87 373.5 1292.37 370.5C1293.57 368.1 1300.54 360.833 1303.87 357.5L1305.37 350Z" fill="#D0B8A1"/>
<path d="M1198.87 326C1202.07 322.8 1215.87 317 1222.37 314.5L1264.37 313L1280.37 316C1282.37 320.8 1278.87 324.667 1276.87 326C1281.27 329.2 1283.7 335.333 1284.37 338C1278.77 344.8 1266.37 346.5 1260.87 346.5L1225.37 345L1217.37 335C1209.87 333.333 1195.67 329.2 1198.87 326Z" fill="#594632"/>
<path d="M1198.87 318C1202.07 314.8 1215.87 309 1222.37 306.5L1264.37 305L1280.37 308C1282.37 312.8 1278.87 316.667 1276.87 318C1281.27 321.2 1283.7 327.333 1284.37 330C1278.77 336.8 1266.37 338.5 1260.87 338.5L1225.37 337L1217.37 327C1209.87 325.333 1195.67 321.2 1198.87 318Z" fill="#D0B8A1"/>
<path d="M1206.37 240.5C1211.57 236.1 1226.54 231 1233.37 229L1274.37 240C1284.2 242.833 1304.67 249.4 1307.87 253C1311.07 256.6 1309.2 259.833 1307.87 261C1312.37 263 1315.37 275.5 1311.37 280C1308.17 283.6 1295.37 278.5 1289.37 275.5C1285.37 274.833 1276.37 272.7 1272.37 269.5C1268.37 266.3 1248.7 268.167 1239.37 269.5C1229.87 269.667 1210.77 269.4 1210.37 267C1209.97 264.6 1213.54 253.667 1215.37 248.5C1210.2 247.667 1201.17 244.9 1206.37 240.5Z" fill="#594632"/>
<path d="M1206.37 232.5C1211.57 228.1 1226.54 223 1233.37 221L1274.37 232C1284.2 234.833 1304.67 241.4 1307.87 245C1311.07 248.6 1309.2 251.833 1307.87 253C1312.37 255 1315.37 267.5 1311.37 272C1308.17 275.6 1295.37 270.5 1289.37 267.5C1285.37 266.833 1276.37 264.7 1272.37 261.5C1268.37 258.3 1248.7 260.167 1239.37 261.5C1229.87 261.667 1210.77 261.4 1210.37 259C1209.97 256.6 1213.54 245.667 1215.37 240.5C1210.2 239.667 1201.17 236.9 1206.37 232.5Z" fill="#D0B8A1"/>
<path d="M1650.11 615.58V628.64L1639.87 617.76L1639.49 617.24L1639.55 617.88V626.42H1640.99V628H1636.15V626.42H1637.89V615.58H1636.15V614H1638.47L1648.13 624.46L1648.51 624.98L1648.45 624.34V615.58H1647.01V614H1651.85V615.58H1650.11Z" fill="#594632"/>
<path d="M1730.01 711H1719.99V709.42H1721.11V698.58H1719.99V697H1729.73V700.08H1728.15V698.58H1722.77V703.16H1728.95V704.74H1722.77V709.42H1728.43V707.92H1730.01V711Z" fill="#594632"/>
<path d="M1647.19 794.12C1646.8 794.453 1646.35 794.713 1645.85 794.9C1645.34 795.073 1644.81 795.16 1644.25 795.16C1643.74 795.16 1643.25 795.107 1642.77 795C1642.29 794.88 1641.85 794.727 1641.45 794.54C1641.05 794.353 1640.69 794.14 1640.37 793.9C1640.06 793.66 1639.82 793.407 1639.65 793.14V790.82H1641.23V792.6C1641.57 792.867 1641.99 793.1 1642.47 793.3C1642.95 793.487 1643.49 793.58 1644.09 793.58C1644.43 793.58 1644.77 793.533 1645.09 793.44C1645.41 793.333 1645.69 793.187 1645.95 793C1646.19 792.8 1646.38 792.553 1646.53 792.26C1646.67 791.967 1646.75 791.627 1646.75 791.24C1646.75 791 1646.73 790.76 1646.69 790.52C1646.66 790.28 1646.59 790.073 1646.49 789.9C1646.31 789.62 1646.11 789.4 1645.87 789.24C1645.64 789.067 1645.37 788.907 1645.07 788.76C1644.59 788.56 1644.07 788.387 1643.51 788.24C1642.95 788.093 1642.43 787.893 1641.95 787.64C1641.45 787.387 1641.04 787.033 1640.71 786.58C1640.39 786.127 1640.22 785.487 1640.21 784.66C1640.19 784.22 1640.25 783.78 1640.39 783.34C1640.52 782.9 1640.74 782.5 1641.05 782.14C1641.35 781.78 1641.76 781.487 1642.27 781.26C1642.77 781.033 1643.39 780.92 1644.13 780.92C1644.37 780.92 1644.63 780.933 1644.91 780.96C1645.19 780.987 1645.48 781.04 1645.79 781.12C1646.09 781.2 1646.41 781.32 1646.73 781.48C1647.06 781.64 1647.39 781.853 1647.71 782.12V784.08H1646.13V782.9C1645.87 782.793 1645.58 782.7 1645.25 782.62C1644.91 782.54 1644.55 782.5 1644.15 782.5C1643.75 782.5 1643.4 782.567 1643.11 782.7C1642.81 782.82 1642.57 782.987 1642.39 783.2C1642.21 783.4 1642.08 783.633 1641.99 783.9C1641.91 784.153 1641.87 784.427 1641.87 784.72C1641.87 785.12 1641.96 785.447 1642.15 785.7C1642.33 785.94 1642.58 786.147 1642.89 786.32C1643.37 786.573 1643.94 786.8 1644.61 787C1645.27 787.187 1645.91 787.427 1646.53 787.72C1647.09 787.987 1647.54 788.4 1647.89 788.96C1648.23 789.52 1648.41 790.287 1648.41 791.26C1648.41 791.86 1648.29 792.4 1648.07 792.88C1647.85 793.36 1647.56 793.773 1647.19 794.12Z" fill="#594632"/>
<path d="M1558.14 707.16C1557.8 707.92 1557.46 708.68 1557.14 709.44C1556.82 710.187 1556.51 710.92 1556.2 711.64C1555.28 709.44 1554.36 707.267 1553.42 705.12C1552.5 702.96 1551.58 700.78 1550.66 698.58H1548.92V697H1553.76V698.58H1552.32C1552.95 700.033 1553.56 701.487 1554.16 702.94C1554.78 704.393 1555.4 705.847 1556.02 707.3L1556.2 707.96C1556.36 707.493 1556.58 706.933 1556.84 706.28C1557.11 705.613 1557.38 704.98 1557.64 704.38C1557.9 703.793 1558.14 703.207 1558.38 702.62C1558.62 702.033 1558.86 701.453 1559.1 700.88C1558.94 700.493 1558.78 700.113 1558.6 699.74C1558.44 699.353 1558.28 698.967 1558.12 698.58H1556.28V697H1561.12V698.58H1559.78C1560.41 700.033 1561.02 701.487 1561.62 702.94C1562.24 704.393 1562.86 705.847 1563.48 707.3L1563.66 707.96L1563.84 707.3C1564.47 705.847 1565.08 704.4 1565.68 702.96C1566.3 701.507 1566.91 700.047 1567.52 698.58H1566.24V697H1571.08V698.58H1569.2C1568.28 700.78 1567.36 702.96 1566.42 705.12C1565.5 707.267 1564.58 709.44 1563.66 711.64L1560.12 703.3L1559.92 702.6C1559.74 703.213 1559.48 703.94 1559.14 704.78C1558.82 705.607 1558.49 706.4 1558.14 707.16Z" fill="#594632"/>
<circle cx="1643.5" cy="706.5" r="43.572" stroke="#715941" stroke-width="3.85593"/>
<circle cx="1641.5" cy="707.5" r="33" stroke="#715941"/>
<path d="M1644 706V634L1628 693.5L1644 706Z" fill="#594632"/>
<path d="M1644 706V634L1659.5 693.5L1644 706Z" fill="#DAC3A1"/>
<path d="M1644 706L1716 706L1656.5 690L1644 706Z" fill="#594632"/>
<path d="M1644 706L1716 706L1656.5 721.5L1644 706Z" fill="#DAC3A1"/>
<path d="M1644 706.5L1572 706.5L1631.5 722.5L1644 706.5Z" fill="#594632"/>
<path d="M1644 706.5L1572 706.5L1631.5 691L1644 706.5Z" fill="#DAC3A1"/>
<path d="M1643.5 706V778L1659.5 718.5L1643.5 706Z" fill="#594632"/>
<path d="M1643.5 706V778L1628 718.5L1643.5 706Z" fill="#DAC3A1"/>
<path d="M1073 554.5C1076.6 550.1 1103.5 540.333 1116.5 536C1139.5 542.167 1189.6 553.6 1206 550C1222.4 546.4 1255.83 541.167 1270.5 539C1283.5 549.5 1310.1 571.6 1312.5 576C1314.9 580.4 1313.5 593.5 1312.5 599.5L1327 608V627C1345.33 640 1382.7 666.5 1385.5 668.5C1389 671 1396.5 694.5 1393 697.5C1389.5 700.5 1370.5 700.5 1364.5 700.5C1359.7 700.5 1330.5 720.167 1316.5 730L1327 741C1325.83 746 1322.9 756 1320.5 756H1262L1195 776L1100 787C1089.17 784.833 1065.8 779.6 1059 776C1050.5 771.5 1014.5 777 1008.5 776C1002.5 775 956.5 746 954.5 741C952.9 737 958.167 718.333 961 709.5C957.5 706.667 950 700.9 948 700.5C946 700.1 943.167 689.333 942 684L973.5 645.5L1033 616.5C1030.17 609.5 1025.4 594.4 1029 590C1032.6 585.6 1056.17 575.167 1067.5 570.5C1067.83 567 1069.4 558.9 1073 554.5Z" fill="#715941" fill-opacity="0.67"/>
<path d="M1073 539.5C1076.6 535.1 1103.5 525.333 1116.5 521C1139.5 527.167 1189.6 538.6 1206 535C1222.4 531.4 1255.83 526.167 1270.5 524C1283.5 534.5 1310.1 556.6 1312.5 561C1314.9 565.4 1313.5 578.5 1312.5 584.5L1327 593V612C1345.33 625 1382.7 651.5 1385.5 653.5C1389 656 1396.5 679.5 1393 682.5C1389.5 685.5 1370.5 685.5 1364.5 685.5C1359.7 685.5 1330.5 705.167 1316.5 715L1327 726C1325.83 731 1322.9 741 1320.5 741H1262L1195 761L1100 772C1089.17 769.833 1065.8 764.6 1059 761C1050.5 756.5 1014.5 762 1008.5 761C1002.5 760 956.5 731 954.5 726C952.9 722 958.167 703.333 961 694.5C957.5 691.667 950 685.9 948 685.5C946 685.1 943.167 674.333 942 669L973.5 630.5L1033 601.5C1030.17 594.5 1025.4 579.4 1029 575C1032.6 570.6 1056.17 560.167 1067.5 555.5C1067.83 552 1069.4 543.9 1073 539.5Z" fill="#D0B8A1"/>
<path d="M1014.8 699.592C1020.18 696.006 1023.77 696.604 1024.89 697.351C1030.12 699.592 1029.75 702.955 1029.75 704.822C1029.75 706.69 1026.01 710.8 1023.4 711.547C1020.78 712.294 1008.08 704.075 1014.8 699.592Z" fill="#B1927A"/>
<path d="M1019.43 691.708C1020.86 690.804 1021.81 690.955 1022.11 691.143C1023.49 691.708 1023.39 692.556 1023.39 693.028C1023.39 693.499 1022.4 694.535 1021.71 694.724C1021.02 694.912 1017.64 692.839 1019.43 691.708Z" fill="#B1927A"/>
<path d="M1026.15 693.202C1027.58 692.298 1028.53 692.449 1028.83 692.637C1030.22 693.202 1030.12 694.051 1030.12 694.522C1030.12 694.993 1029.13 696.029 1028.43 696.218C1027.74 696.406 1024.37 694.333 1026.15 693.202Z" fill="#B1927A"/>
<path d="M1031.38 697.685C1032.81 696.781 1033.76 696.932 1034.06 697.12C1035.45 697.685 1035.35 698.533 1035.35 699.005C1035.35 699.476 1034.36 700.512 1033.66 700.701C1032.97 700.889 1029.6 698.816 1031.38 697.685Z" fill="#B1927A"/>
<path d="M1032.13 703.663C1033.56 702.758 1034.51 702.909 1034.81 703.098C1036.2 703.663 1036.1 704.511 1036.1 704.982C1036.1 705.453 1035.1 706.49 1034.41 706.678C1033.72 706.867 1030.35 704.794 1032.13 703.663Z" fill="#B1927A"/>
<path d="M1265.8 555.592C1271.18 552.006 1274.77 552.604 1275.89 553.351C1281.12 555.592 1280.75 558.955 1280.75 560.822C1280.75 562.69 1277.01 566.8 1274.4 567.547C1271.78 568.294 1259.08 560.075 1265.8 555.592Z" fill="#B1927A"/>
<path d="M1270.43 547.708C1271.86 546.804 1272.81 546.955 1273.11 547.143C1274.49 547.708 1274.39 548.556 1274.39 549.028C1274.39 549.499 1273.4 550.535 1272.71 550.724C1272.02 550.912 1268.64 548.839 1270.43 547.708Z" fill="#B1927A"/>
<path d="M1277.15 549.202C1278.58 548.298 1279.53 548.449 1279.83 548.637C1281.22 549.202 1281.12 550.051 1281.12 550.522C1281.12 550.993 1280.13 552.029 1279.43 552.218C1278.74 552.406 1275.37 550.333 1277.15 549.202Z" fill="#B1927A"/>
<path d="M1282.38 553.685C1283.81 552.781 1284.76 552.932 1285.06 553.12C1286.45 553.685 1286.35 554.533 1286.35 555.005C1286.35 555.476 1285.36 556.512 1284.66 556.701C1283.97 556.889 1280.6 554.816 1282.38 553.685Z" fill="#B1927A"/>
<path d="M1283.13 559.663C1284.56 558.758 1285.51 558.909 1285.81 559.098C1287.2 559.663 1287.1 560.511 1287.1 560.982C1287.1 561.453 1286.1 562.49 1285.41 562.678C1284.72 562.867 1281.35 560.794 1283.13 559.663Z" fill="#B1927A"/>
<path d="M978.349 703.592C983.729 700.006 987.315 700.604 988.436 701.351C993.666 703.592 993.292 706.955 993.292 708.822C993.292 710.69 989.557 714.8 986.941 715.547C984.326 716.294 971.625 708.075 978.349 703.592Z" fill="#B1927A"/>
<path d="M982.974 695.708C984.401 694.804 985.353 694.955 985.651 695.143C987.039 695.708 986.94 696.556 986.94 697.028C986.94 697.499 985.948 698.535 985.254 698.724C984.56 698.912 981.189 696.839 982.974 695.708Z" fill="#B1927A"/>
<path d="M989.698 697.202C991.126 696.298 992.078 696.449 992.375 696.637C993.764 697.202 993.664 698.051 993.664 698.522C993.664 698.993 992.673 700.029 991.979 700.218C991.285 700.406 987.913 698.333 989.698 697.202Z" fill="#B1927A"/>
<path d="M994.928 701.685C996.356 700.781 997.308 700.932 997.605 701.12C998.994 701.685 998.894 702.533 998.894 703.005C998.894 703.476 997.903 704.512 997.209 704.701C996.515 704.889 993.143 702.816 994.928 701.685Z" fill="#B1927A"/>
<path d="M995.675 707.663C997.103 706.758 998.055 706.909 998.352 707.098C999.741 707.663 999.641 708.511 999.641 708.982C999.641 709.453 998.65 710.49 997.956 710.678C997.262 710.867 993.89 708.794 995.675 707.663Z" fill="#B1927A"/>
<path d="M1229.35 559.592C1234.73 556.006 1238.32 556.604 1239.44 557.351C1244.67 559.592 1244.29 562.955 1244.29 564.822C1244.29 566.69 1240.56 570.8 1237.94 571.547C1235.33 572.294 1222.62 564.075 1229.35 559.592Z" fill="#B1927A"/>
<path d="M1233.97 551.708C1235.4 550.804 1236.35 550.955 1236.65 551.143C1238.04 551.708 1237.94 552.556 1237.94 553.028C1237.94 553.499 1236.95 554.535 1236.25 554.724C1235.56 554.912 1232.19 552.839 1233.97 551.708Z" fill="#B1927A"/>
<path d="M1240.7 553.202C1242.13 552.298 1243.08 552.449 1243.38 552.637C1244.76 553.202 1244.66 554.051 1244.66 554.522C1244.66 554.993 1243.67 556.029 1242.98 556.218C1242.28 556.406 1238.91 554.333 1240.7 553.202Z" fill="#B1927A"/>
<path d="M1245.93 557.685C1247.36 556.781 1248.31 556.932 1248.61 557.12C1249.99 557.685 1249.89 558.533 1249.89 559.005C1249.89 559.476 1248.9 560.512 1248.21 560.701C1247.51 560.889 1244.14 558.816 1245.93 557.685Z" fill="#B1927A"/>
<path d="M1246.68 563.663C1248.1 562.758 1249.05 562.909 1249.35 563.098C1250.74 563.663 1250.64 564.511 1250.64 564.982C1250.64 565.453 1249.65 566.49 1248.96 566.678C1248.26 566.867 1244.89 564.794 1246.68 563.663Z" fill="#B1927A"/>
<path d="M996.349 731.592C1001.73 728.006 1005.32 728.604 1006.44 729.351C1011.67 731.592 1011.29 734.955 1011.29 736.822C1011.29 738.69 1007.56 742.8 1004.94 743.547C1002.33 744.294 989.625 736.075 996.349 731.592Z" fill="#B1927A"/>
<path d="M1000.97 723.708C1002.4 722.804 1003.35 722.955 1003.65 723.143C1005.04 723.708 1004.94 724.556 1004.94 725.028C1004.94 725.499 1003.95 726.535 1003.25 726.724C1002.56 726.912 999.189 724.839 1000.97 723.708Z" fill="#B1927A"/>
<path d="M1007.7 725.202C1009.13 724.298 1010.08 724.449 1010.38 724.637C1011.76 725.202 1011.66 726.051 1011.66 726.522C1011.66 726.993 1010.67 728.029 1009.98 728.218C1009.28 728.406 1005.91 726.333 1007.7 725.202Z" fill="#B1927A"/>
<path d="M1012.93 729.685C1014.36 728.781 1015.31 728.932 1015.61 729.12C1016.99 729.685 1016.89 730.533 1016.89 731.005C1016.89 731.476 1015.9 732.512 1015.21 732.701C1014.51 732.889 1011.14 730.816 1012.93 729.685Z" fill="#B1927A"/>
<path d="M1013.68 735.663C1015.1 734.758 1016.05 734.909 1016.35 735.098C1017.74 735.663 1017.64 736.511 1017.64 736.982C1017.64 737.453 1016.65 738.49 1015.96 738.678C1015.26 738.867 1011.89 736.794 1013.68 735.663Z" fill="#B1927A"/>
<path d="M1247.35 587.592C1252.73 584.006 1256.32 584.604 1257.44 585.351C1262.67 587.592 1262.29 590.955 1262.29 592.822C1262.29 594.69 1258.56 598.8 1255.94 599.547C1253.33 600.294 1240.62 592.075 1247.35 587.592Z" fill="#B1927A"/>
<path d="M1251.97 579.708C1253.4 578.804 1254.35 578.955 1254.65 579.143C1256.04 579.708 1255.94 580.556 1255.94 581.028C1255.94 581.499 1254.95 582.535 1254.25 582.724C1253.56 582.912 1250.19 580.839 1251.97 579.708Z" fill="#B1927A"/>
<path d="M1258.7 581.202C1260.13 580.298 1261.08 580.449 1261.38 580.637C1262.76 581.202 1262.66 582.051 1262.66 582.522C1262.66 582.993 1261.67 584.029 1260.98 584.218C1260.28 584.406 1256.91 582.333 1258.7 581.202Z" fill="#B1927A"/>
<path d="M1263.93 585.685C1265.36 584.781 1266.31 584.932 1266.61 585.12C1267.99 585.685 1267.89 586.533 1267.89 587.005C1267.89 587.476 1266.9 588.512 1266.21 588.701C1265.51 588.889 1262.14 586.816 1263.93 585.685Z" fill="#B1927A"/>
<path d="M1264.68 591.663C1266.1 590.758 1267.05 590.909 1267.35 591.098C1268.74 591.663 1268.64 592.511 1268.64 592.982C1268.64 593.453 1267.65 594.49 1266.96 594.678C1266.26 594.867 1262.89 592.794 1264.68 591.663Z" fill="#B1927A"/>
<path d="M823.98 249.015C818.624 247.954 812.989 242.44 804.836 235.693C804.652 235.556 804.483 235.416 804.328 235.274L805.116 234.673L804.575 234.19L802.999 234.633L819.4 249.853C840.344 252.218 851.337 252.273 869.441 249.853L888.059 234.436L886.098 233.989L885.392 234.673L885.842 235.274C876.528 243.39 871.329 247.9 866.092 249.015C850.632 250.383 841.388 250.362 823.98 249.015Z" fill="#362520"/>
<path d="M804.836 235.693C812.989 242.44 818.624 247.954 823.98 249.015C841.388 250.362 850.632 250.383 866.092 249.015C871.329 247.9 876.528 243.39 885.842 235.274C875.431 243.119 815.596 243.727 804.836 235.693Z" fill="#3A2D1F"/>
<path d="M804.328 235.274C804.499 235.414 804.668 235.554 804.836 235.693C815.596 243.727 875.431 243.119 885.842 235.274L885.392 234.673C881.889 236.271 876.649 237.506 870.475 238.385C870.214 238.422 869.952 238.459 869.687 238.494C867.716 238.762 865.656 238.995 863.531 239.192C863.204 239.223 862.875 239.252 862.546 239.281C859.772 239.523 856.897 239.706 853.976 239.832C853.68 239.844 853.385 239.856 853.089 239.868C849.929 239.991 846.722 240.046 843.534 240.036C843.205 240.035 842.877 240.033 842.549 240.031C840.059 240.012 837.585 239.952 835.161 239.853C834.898 239.842 834.635 239.831 834.373 239.819C831.275 239.68 828.264 239.475 825.409 239.205C825.178 239.183 824.948 239.161 824.719 239.138C821.739 238.842 818.937 238.474 816.395 238.034C816.197 238 816 237.965 815.804 237.93C811.144 237.09 807.407 236.003 805.116 234.673L804.328 235.274Z" fill="#362520"/>
<path d="M885.842 234.237C881.203 235.496 876.014 236.499 870.475 237.238C870.213 237.273 869.951 237.307 869.687 237.341C867.676 237.599 865.621 237.823 863.531 238.012C863.203 238.042 862.875 238.07 862.546 238.098C859.741 238.336 856.877 238.513 853.976 238.627C853.68 238.638 853.385 238.649 853.089 238.659C849.936 238.769 846.742 238.806 843.534 238.769C843.206 238.765 842.877 238.76 842.549 238.755C840.154 238.716 837.753 238.635 835.358 238.513C835.095 238.5 834.832 238.486 834.57 238.471C831.613 238.309 828.666 238.084 825.753 237.794C825.54 237.773 825.326 237.751 825.113 237.729C822.299 237.44 819.518 237.09 816.789 236.679C816.592 236.65 816.395 236.62 816.198 236.589C812.264 235.983 808.443 235.249 804.796 234.387L805.116 234.673C807.407 236.003 811.144 237.09 815.804 237.93C816 237.965 816.197 238 816.395 238.034C818.937 238.474 821.739 238.842 824.719 239.138C824.948 239.161 825.178 239.183 825.409 239.205C828.264 239.475 831.275 239.68 834.373 239.819C834.635 239.831 834.898 239.842 835.161 239.853C837.585 239.952 840.059 240.012 842.549 240.031C842.877 240.033 843.205 240.035 843.534 240.036C846.722 240.046 849.929 239.991 853.089 239.868C853.385 239.856 853.68 239.844 853.976 239.832C856.897 239.706 859.772 239.523 862.546 239.281C862.875 239.252 863.204 239.223 863.531 239.192C865.656 238.995 867.716 238.762 869.687 238.494C869.952 238.459 870.214 238.422 870.475 238.385C876.649 237.506 881.889 236.271 885.392 234.673L885.842 234.237Z" fill="#715941"/>
<path d="M804.796 234.387C808.443 235.249 812.264 235.983 816.198 236.589C816.395 236.62 816.592 236.65 816.789 236.679C819.518 237.09 822.299 237.44 825.113 237.729C825.326 237.751 825.54 237.773 825.753 237.794C828.666 238.084 831.613 238.309 834.57 238.471C834.832 238.486 835.095 238.5 835.358 238.513C837.753 238.635 840.154 238.716 842.549 238.755C842.877 238.76 843.206 238.765 843.534 238.769C846.742 238.806 849.936 238.769 853.089 238.659C853.385 238.649 853.68 238.638 853.976 238.627C856.877 238.513 859.741 238.336 862.546 238.098C862.875 238.07 863.203 238.042 863.531 238.012C865.621 237.823 867.676 237.599 869.687 237.341C869.951 237.307 870.213 237.273 870.475 237.238C876.014 236.499 881.203 235.496 885.842 234.237L886.089 233.993C863.432 239.46 830.679 239.529 804.575 234.19L804.796 234.387Z" fill="#362520"/>
<path d="M874.218 244.435C860.132 251.379 828.216 250.739 816.1 244.435" stroke="black" stroke-opacity="0.2" stroke-width="0.545876"/>
<path d="M812.947 242.021C826.344 249.458 861.412 248.473 877.272 242.021" stroke="black" stroke-opacity="0.2" stroke-width="0.545876"/>
<path d="M808.663 238.426C821.912 246.356 861.166 246.11 882.05 238.426" stroke="black" stroke-opacity="0.2" stroke-width="0.545876"/>
<path d="M848.922 237.618C848.715 237.648 848.464 238.596 848.065 238.919H849.336V237.855C849.336 237.707 849.129 237.589 848.922 237.618Z" fill="#594632"/>
<path d="M850.666 237.594C850.873 237.623 851.124 238.572 851.523 238.894H850.252V237.83C850.252 237.682 850.459 237.564 850.666 237.594Z" fill="#594632"/>
<path d="M815.83 237.933C816.025 237.969 816.222 238.003 816.421 238.038L816.815 236.682C816.617 236.653 816.42 236.623 816.224 236.592L815.83 237.933Z" fill="#362520" fill-opacity="0.2"/>
<path d="M825.779 237.797C825.565 237.776 825.352 237.754 825.138 237.732L824.744 239.141C824.973 239.164 825.203 239.186 825.434 239.208L825.779 237.797Z" fill="#362520" fill-opacity="0.2"/>
<path d="M835.383 238.516C835.12 238.503 834.858 238.489 834.595 238.475L834.398 239.822C834.66 239.834 834.923 239.845 835.186 239.856L835.383 238.516Z" fill="#362520" fill-opacity="0.2"/>
<path d="M843.559 238.772C843.231 238.768 842.903 238.763 842.574 238.758V240.034C842.902 240.036 843.231 240.038 843.559 240.039V238.772Z" fill="#362520" fill-opacity="0.2"/>
<path d="M854.001 238.63C853.706 238.641 853.41 238.652 853.114 238.663V239.871C853.41 239.86 853.706 239.848 854.001 239.835V238.63Z" fill="#362520" fill-opacity="0.2"/>
<path d="M863.556 238.015C863.228 238.045 862.9 238.074 862.571 238.102V239.284C862.901 239.256 863.229 239.226 863.556 239.196V238.015Z" fill="#362520" fill-opacity="0.2"/>
<path fill-rule="evenodd" clip-rule="evenodd" d="M870.501 237.241C876.04 236.502 881.228 235.499 885.868 234.24L885.417 234.677C881.914 236.275 876.674 237.509 870.501 238.388V237.241ZM869.713 237.344C867.702 237.602 865.646 237.826 863.556 238.015V239.196C865.681 238.998 867.741 238.765 869.713 238.498V237.344ZM862.571 238.102V239.284C859.797 239.526 856.923 239.709 854.001 239.835V238.63C856.903 238.516 859.767 238.339 862.571 238.102ZM853.114 238.663C849.961 238.773 846.767 238.809 843.559 238.772V240.039C846.747 240.05 849.955 239.994 853.114 239.871V238.663ZM842.574 238.758V240.034C840.084 240.015 837.61 239.956 835.186 239.856L835.383 238.516C837.778 238.638 840.179 238.719 842.574 238.758ZM834.595 238.475C831.638 238.313 828.692 238.087 825.779 237.797L825.434 239.208C828.289 239.478 831.3 239.683 834.398 239.822L834.595 238.475ZM825.138 237.732L824.744 239.141C821.764 238.845 818.962 238.477 816.421 238.038L816.815 236.682C819.543 237.093 822.325 237.443 825.138 237.732ZM816.224 236.592C812.289 235.986 808.468 235.253 804.821 234.39L805.142 234.677C807.432 236.006 811.169 237.093 815.83 237.933L816.224 236.592Z" fill="#715941"/>
<path d="M870.501 237.241C870.239 237.276 869.976 237.311 869.713 237.344V238.498C869.977 238.462 870.24 238.425 870.501 238.388V237.241Z" fill="#362520" fill-opacity="0.2"/>
<path d="M845.553 239.215C845.209 239.264 844.79 240.845 844.125 241.382H846.243V239.609C846.243 239.362 845.898 239.165 845.553 239.215Z" fill="#594632"/>
<path d="M848.459 239.172C848.804 239.222 849.223 240.803 849.888 241.34H847.77V239.566C847.77 239.32 848.115 239.123 848.459 239.172Z" fill="#594632"/>
<path d="M855.767 247.545L855.608 182.227L856.826 182.314L857.129 247.31L855.767 247.545Z" fill="#362520"/>
<path fill-rule="evenodd" clip-rule="evenodd" d="M855.585 185.168C849.331 205.005 844.942 218.382 835.263 235.71C840.609 234.611 844.38 234.196 848.723 234.428C853.131 217.953 854.039 206.217 855.585 185.168Z" fill="#F1F3F2"/>
<path d="M855.671 235.215C854.191 217.006 854.443 203.793 855.585 185.168C854.039 206.217 853.131 217.953 848.723 234.428C850.824 234.54 853.059 234.804 855.671 235.215Z" fill="#A4BFD6"/>
<path d="M850.481 243.616C859.715 221.764 860.328 207.903 856.83 185.211C864.446 192.072 873.374 211.062 883.981 233.428C870.546 232.762 863.298 236.139 850.481 243.616Z" fill="#F1F3F2"/>
<path d="M847.439 185.006C851.315 184.78 852.123 183.989 855.616 182.229L855.612 187.41C851.58 186.996 850.776 186.107 847.439 185.006Z" fill="#E23234"/>
<path d="M847.409 392.517C851.409 386.117 863.409 366.517 868.909 357.517L874.909 331.517C883.409 327.017 900.009 317.417 898.409 315.017C896.409 312.017 905.409 280.017 905.909 277.017C906.309 274.617 915.075 272.017 919.409 271.017C924.409 267.017 935.209 258.317 938.409 255.517C942.409 252.017 944.909 248.017 956.409 247.517C967.909 247.017 989.909 237.517 993.909 237.517C997.909 237.517 1012.91 226.517 1016.91 227.017C1020.11 227.417 1029.24 231.183 1033.41 233.017C1047.91 234.017 1077.21 236.317 1078.41 237.517C1079.61 238.717 1084.24 248.35 1086.41 253.017L1107.41 259.017C1121.91 267.85 1150.91 286.217 1150.91 289.017C1150.91 292.517 1148.41 310.517 1148.41 313.017C1148.41 315.517 1156.41 327.517 1155.91 331.517C1155.41 335.517 1147.91 370.517 1148.41 372.517C1148.91 374.517 1176.41 384.017 1180.91 389.017C1185.41 394.017 1191.41 429.017 1185.41 424.517C1180.61 420.917 1170.08 420.017 1165.41 420.017C1164.61 423.617 1157.41 431.517 1153.91 435.017L1137.41 433.517C1134.41 433.517 1128.91 449.017 1122.91 449.017C1116.91 449.017 1109.91 450.517 1100.91 449.017C1091.91 447.517 1071.41 441.517 1067.41 441.517C1063.41 441.517 1041.91 441.017 1039.41 441.517C1037.41 441.917 1034.58 454.017 1033.41 460.017C1025.91 461.517 1009.91 464.417 1005.91 464.017C1001.91 463.617 979.575 457.517 968.909 454.517C954.075 455.517 923.409 456.917 919.409 454.517C914.409 451.517 905.409 437.017 900.409 433.517C896.409 430.717 884.742 426.35 879.409 424.517C871.809 426.917 863.909 428.517 860.909 429.017C852.909 426.517 854.409 411.017 851.909 407.017C849.909 403.817 848.075 396.017 847.409 392.517Z" fill="#715941" fill-opacity="0.67"/>
<path d="M847.409 379.517C851.409 373.117 863.409 353.517 868.909 344.517L874.909 318.517C883.409 314.017 900.009 304.417 898.409 302.017C896.409 299.017 905.409 267.017 905.909 264.017C906.309 261.617 915.075 259.017 919.409 258.017C924.409 254.017 935.209 245.317 938.409 242.517C942.409 239.017 944.909 235.017 956.409 234.517C967.909 234.017 989.909 224.517 993.909 224.517C997.909 224.517 1012.91 213.517 1016.91 214.017C1020.11 214.417 1029.24 218.183 1033.41 220.017C1047.91 221.017 1077.21 223.317 1078.41 224.517C1079.61 225.717 1084.24 235.35 1086.41 240.017L1107.41 246.017C1121.91 254.85 1150.91 273.217 1150.91 276.017C1150.91 279.517 1148.41 297.517 1148.41 300.017C1148.41 302.517 1156.41 314.517 1155.91 318.517C1155.41 322.517 1147.91 357.517 1148.41 359.517C1148.91 361.517 1176.41 371.017 1180.91 376.017C1185.41 381.017 1191.41 416.017 1185.41 411.517C1180.61 407.917 1170.08 407.017 1165.41 407.017C1164.61 410.617 1157.41 418.517 1153.91 422.017L1137.41 420.517C1134.41 420.517 1128.91 436.017 1122.91 436.017C1116.91 436.017 1109.91 437.517 1100.91 436.017C1091.91 434.517 1071.41 428.517 1067.41 428.517C1063.41 428.517 1041.91 428.017 1039.41 428.517C1037.41 428.917 1034.58 441.017 1033.41 447.017C1025.91 448.517 1009.91 451.417 1005.91 451.017C1001.91 450.617 979.575 444.517 968.909 441.517C954.075 442.517 923.409 443.917 919.409 441.517C914.409 438.517 905.409 424.017 900.409 420.517C896.409 417.717 884.742 413.35 879.409 411.517C871.809 413.917 863.909 415.517 860.909 416.017C852.909 413.517 854.409 398.017 851.909 394.017C849.909 390.817 848.075 383.017 847.409 379.517Z" fill="#D0B8A1"/>
<path d="M1080.4 211.928C1085.57 224.598 1086.58 258.691 1086.88 273.597L1096.43 273.445C1092.44 237.262 1094.79 217.065 1096.47 211.489L1080.4 211.928Z" fill="#B69175"/>
<path d="M1058.37 178.921C1078.23 178.921 1085.56 187.924 1088.07 194.168C1094.45 178.992 1111.71 176.228 1118.21 175C1110.06 177.788 1105.95 186.617 1104.91 190.683C1114.49 189.638 1121.61 194.894 1123.98 197.653C1116.88 196.259 1105.65 198.234 1100.92 199.396C1115.46 200.79 1125.31 209.851 1128.41 214.208C1123.8 210.374 1109.64 209.997 1103.14 210.287C1109.17 213.424 1111.86 217.403 1112.45 219C1106.42 215.515 1095.46 216.677 1090.73 217.693C1085.05 215.253 1070.04 217.548 1063.24 219C1065.73 216.56 1073.14 212.175 1076.54 210.287C1069.45 207.15 1050.83 211.594 1042.41 214.208C1049.5 203.404 1063.39 199.832 1069.45 199.396C1063.78 194.517 1051.13 193.878 1045.51 194.168C1055.09 188.941 1067.23 190.538 1072.11 191.99C1066.79 183.974 1060.73 179.937 1058.37 178.921Z" fill="#594632"/>
<ellipse cx="1079.41" cy="217.5" rx="7" ry="8.5" transform="rotate(4.14281 1079.41 217.5)" fill="#DDB88C"/>
<ellipse cx="1088.91" cy="219.5" rx="8.5" ry="10.5" fill="#BF9769"/>
<ellipse cx="1098.37" cy="217.02" rx="7" ry="8.5" transform="rotate(-14.9691 1098.37 217.02)" fill="#DDB88C"/>
<path d="M1112.52 230.002C1116.1 243.208 1112.94 277.17 1111.41 292L1120.91 293.017C1121.37 256.618 1126.18 236.86 1128.52 231.53L1112.52 230.002Z" fill="#B69175"/>
<path d="M1154.32 202.367C1134.58 200.25 1126.33 208.42 1123.17 214.361C1118.44 198.591 1101.57 194.002 1095.24 192.088C1103.05 195.73 1106.19 204.946 1106.79 209.099C1097.38 207.039 1089.74 211.506 1087.09 213.998C1094.29 213.368 1105.25 216.529 1109.83 218.188C1095.22 218.024 1084.47 225.984 1080.92 229.985C1085.91 226.665 1100.03 227.799 1106.46 228.781C1100.13 231.257 1097.03 234.926 1096.28 236.451C1102.64 233.629 1113.42 235.953 1118.01 237.468C1123.92 235.647 1138.6 239.529 1145.2 241.698C1142.99 239.007 1136.09 233.856 1132.91 231.617C1140.29 229.254 1158.33 235.658 1166.43 239.155C1160.53 227.656 1147.1 222.623 1141.12 221.544C1147.28 217.298 1159.93 218.011 1165.48 218.898C1156.52 212.679 1144.27 212.973 1139.27 213.897C1145.41 206.494 1151.86 203.126 1154.32 202.367Z" fill="#715941"/>
<ellipse cx="1115" cy="237.5" rx="7" ry="8.5" transform="rotate(4.14281 1115 237.5)" fill="#DDB88C"/>
<ellipse cx="1125.37" cy="237.02" rx="7" ry="8.5" transform="rotate(-14.9691 1125.37 237.02)" fill="#BF9769"/>
<path d="M884.498 335.002C880.921 348.208 884.081 382.17 885.608 397L876.11 398.017C875.645 361.618 870.843 341.86 868.5 336.53L884.498 335.002Z" fill="#B69175"/>
<path d="M842.695 307.367C862.441 305.249 870.689 313.42 873.852 319.36C878.581 303.59 895.447 299.001 901.781 297.087C893.968 300.729 890.825 309.946 890.23 314.099C899.639 312.038 907.281 316.506 909.926 318.997C902.725 318.367 891.769 321.528 887.192 323.188C901.798 323.023 912.549 330.984 916.099 334.984C911.106 331.664 896.991 332.798 890.557 333.78C896.886 336.256 899.984 339.926 900.742 341.451C894.376 338.628 883.598 340.952 879.005 342.467C873.103 340.647 858.42 344.529 851.816 346.697C854.025 344.007 860.933 338.856 864.111 336.616C856.724 334.254 838.685 340.657 830.589 344.154C836.49 332.655 849.92 327.623 855.897 326.543C849.735 322.297 837.09 323.01 831.538 323.898C840.501 317.679 852.749 317.972 857.752 318.896C851.608 311.493 845.154 308.125 842.695 307.367Z" fill="#715941"/>
<ellipse cx="7" cy="8.5" rx="7" ry="8.5" transform="matrix(-0.997387 0.0722427 0.0722427 0.997387 888.382 333.517)" fill="#DDB88C"/>
<ellipse cx="7" cy="8.5" rx="7" ry="8.5" transform="matrix(-0.966065 -0.258298 -0.258298 0.966065 880.61 335.616)" fill="#BF9769"/>
<path d="M1109.41 289C1106.61 288.6 1105.91 291.5 1105.91 293C1104.41 296.59 1119.91 295.5 1122.41 296C1124.91 296.5 1123.91 295 1124.41 292C1124.91 289 1122.91 290.5 1119.91 289C1116.91 287.5 1116.41 292 1115.41 290.5C1114.41 289 1112.91 289.5 1109.41 289Z" fill="#C5AD96"/>
<path d="M875.011 394.311C872.211 393.911 871.511 396.811 871.511 398.311C870.011 401.9 885.511 400.811 888.011 401.311C890.511 401.811 889.511 400.311 890.011 397.311C890.511 394.311 888.511 395.811 885.511 394.311C882.511 392.811 882.011 397.311 881.011 395.811C880.011 394.311 878.511 394.811 875.011 394.311Z" fill="#C5AD96"/>
<path d="M1085.01 269.311C1082.21 268.911 1081.51 271.811 1081.51 273.311C1080.01 276.9 1095.51 275.811 1098.01 276.311C1100.51 276.811 1099.51 275.311 1100.01 272.311C1100.51 269.311 1098.51 270.811 1095.51 269.311C1092.51 267.811 1092.01 272.311 1091.01 270.811C1090.01 269.311 1088.51 269.811 1085.01 269.311Z" fill="#C5AD96"/>
<path fill-rule="evenodd" clip-rule="evenodd" d="M932.52 552.422C933.243 554.651 933.656 560.197 929.516 564.544C927.724 566.425 928.873 566.15 930.991 564.632C937.624 558.47 940.81 554.727 940.104 548.875C937.509 548.754 934.726 549.912 932.52 552.422Z" fill="#594632"/>
<path d="M930.991 564.632C934.992 561.765 942.453 554.463 940.104 548.875C940.81 554.727 937.624 558.47 930.991 564.632Z" fill="#C2A28A"/>
<path d="M926.469 560.667C943.373 554.505 949.835 550.913 955.521 547.785C960.403 545.1 961.207 543.133 960.949 541.324C957.847 542.702 955.779 543.133 953.195 543.65C952.463 543.796 950.917 543.732 949.452 543.671C948.229 543.62 947.063 543.571 946.475 543.65C942.339 548.527 934.669 555.069 918.356 561.042C903.397 566.519 888.56 571.952 886.646 576.812C890.951 571.071 915.323 564.73 926.469 560.667Z" fill="#CBB7A7"/>
<path d="M919.853 535.896C915.976 536.93 912.357 538.298 906.378 542.011C903.364 543.884 894.245 551.8 885.994 560.22C904.364 544.506 914.425 539.773 920.628 537.188C922.986 536.304 924.251 535.672 925.622 534.987C926.656 534.471 927.749 533.925 929.416 533.218C925.588 534.186 922.129 534.997 919.853 535.896Z" fill="#C2A28A"/>
<path fill-rule="evenodd" clip-rule="evenodd" d="M949.071 537.347C942.479 531.606 935.32 531.726 929.416 533.218C927.749 533.925 926.656 534.471 925.622 534.987C924.251 535.672 922.986 536.304 920.628 537.188C914.425 539.773 904.364 544.506 885.994 560.22C880.189 566.144 874.814 572.317 872.295 576.812H886.646C888.56 571.952 903.397 566.519 918.356 561.042C934.669 555.069 942.339 548.527 946.475 543.65C947.063 543.571 948.229 543.62 949.452 543.671C950.917 543.732 952.463 543.796 953.195 543.65C955.779 543.133 957.847 542.702 960.949 541.324C960.69 539.514 955.521 537.347 949.071 537.347Z" fill="#B1927A"/>
<path d="M899.92 527.302C905.374 531.607 906.498 538.902 906.378 542.011C912.357 538.298 915.976 536.93 919.853 535.896C915.548 525.851 893.104 521.92 899.92 527.302Z" fill="#594632"/>
<circle cx="946.474" cy="543.391" r="1.29232" fill="#36291C"/>
<path d="M947.442 543.367C947.335 543.462 947 543.259 946.905 543.153C946.81 543.046 946.82 542.883 946.926 542.788C947.033 542.693 947.196 542.702 947.291 542.809C947.386 542.916 947.548 543.272 947.442 543.367Z" fill="white"/>
<path fill-rule="evenodd" clip-rule="evenodd" d="M919.08 560.693C919.803 562.922 920.216 568.468 916.076 572.815C914.284 574.696 915.433 574.421 917.551 572.903C924.184 566.741 927.37 562.998 926.664 557.146C924.069 557.025 921.286 558.183 919.08 560.693Z" fill="#594632"/>
<path d="M917.551 572.903C921.553 570.036 929.013 562.734 926.664 557.146C927.37 562.998 924.184 566.741 917.551 572.903Z" fill="#C2A28A"/>
<path d="M861.905 618.882C865.485 615.918 875.536 607.102 887.094 595.545C891.357 591.281 896.408 585.517 896.074 583.954C893.348 586.542 887.588 590.321 883.41 590.69C870.637 599.496 865.363 606.18 856.012 618.151C858.341 618.379 860.374 618.642 861.905 618.882Z" fill="#CBB7A7"/>
<path d="M836.886 610.334L833.526 618.882C835.542 618.344 836.238 618 838.695 617.8C842.238 604.613 852.394 591.574 857.563 585.914C851.635 589.314 844.898 595.084 842.055 599.22C841.538 599.995 840.246 602.838 839.212 604.906C838.511 606.308 837.75 608.39 836.886 610.334Z" fill="#C2A28A"/>
<path fill-rule="evenodd" clip-rule="evenodd" d="M885.638 583.954C875.991 578.614 865.794 581.193 857.563 585.914C852.394 591.574 842.238 604.613 838.695 617.8C844.44 617.332 850.931 617.656 856.012 618.151C865.363 606.18 870.637 599.496 883.41 590.69C887.588 590.321 893.348 586.542 896.074 583.954C895.503 581.282 889.69 582.941 885.638 583.954Z" fill="#B1927A"/>
<path d="M819.676 611.473C827.677 608.51 834.293 609.346 836.886 610.334C837.75 608.39 838.511 606.308 839.212 604.906C840.246 602.838 841.538 599.995 842.055 599.22C826.497 598.479 809.674 615.178 819.676 611.473Z" fill="#594632"/>
<path d="M862.359 629.371C863.537 621.507 860.418 616.238 858.711 614.587L865.68 606.082C876.265 617.048 860.887 639.201 862.359 629.371Z" fill="#594632"/>
<circle cx="883.151" cy="590.174" r="1.63124" transform="rotate(-18.705 883.151 590.174)" fill="#36291C"/>
<path d="M884.298 589.753C884.209 589.91 883.726 589.804 883.569 589.715C883.413 589.626 883.358 589.426 883.447 589.27C883.536 589.113 883.735 589.058 883.892 589.147C884.048 589.236 884.387 589.597 884.298 589.753Z" fill="white"/>
<path d="M859.363 522.433C865.498 519.258 875.449 515.404 879.657 513.874C888.579 509.274 889.099 507.096 888.837 505.461C884.85 507.623 882.519 508.231 878.24 508.499C851.882 520.951 843.164 529.839 839.604 549.466C841.951 539.779 851.695 526.402 859.363 522.433Z" fill="#CBB7A7"/>
<path d="M846.22 509.651C841.119 514.501 837.869 521.512 835.866 528.659C841.688 511.396 861.44 499.711 863.149 499.401C863.638 499.128 864.103 498.867 864.542 498.619C861.395 499.296 859.114 500.745 857.144 501.775C851.801 504.419 849.859 506.24 846.592 509.303L846.59 509.305C846.469 509.418 846.345 509.534 846.22 509.651Z" fill="#C2A28A"/>
<path fill-rule="evenodd" clip-rule="evenodd" d="M881.437 503.091C875.707 498.05 869.477 497.556 864.542 498.619C864.103 498.867 863.638 499.128 863.149 499.401C861.44 499.711 841.688 511.396 835.866 528.659C833.336 537.686 832.794 546.931 833.023 552.316C831.386 553.627 828.29 557.072 828.998 560.372C829.706 563.673 828.453 567.46 827.738 568.941C833.22 566.437 837.249 558.602 838.578 554.998C839.261 556.533 842.394 558.346 843.875 559.061C843.593 558.606 843.131 557.141 843.542 554.928C843.952 552.716 841.088 550.365 839.604 549.466C843.164 529.839 851.882 520.951 878.24 508.499C882.519 508.231 884.85 507.623 888.837 505.461C888.527 503.516 884.682 502.996 881.437 503.091Z" fill="#B1927A"/>
<path d="M837.59 503.979C841.773 503.258 845.086 507.46 846.22 509.651C846.345 509.534 846.469 509.418 846.59 509.305L846.592 509.303C849.859 506.24 851.801 504.419 857.144 501.775C844.637 495.053 832.361 504.879 837.59 503.979Z" fill="#594632"/>
<path fill-rule="evenodd" clip-rule="evenodd" d="M855.487 521.383C856.528 523.484 857.744 528.91 854.281 533.813C852.783 535.935 853.879 535.496 855.754 533.686C861.418 526.624 864.025 522.456 862.474 516.77C859.889 517.028 857.305 518.579 855.487 521.383Z" fill="#594632"/>
<path d="M855.754 533.686C859.295 530.266 865.612 521.956 862.474 516.77C864.025 522.456 861.418 526.624 855.754 533.686Z" fill="#C2A28A"/>
<circle cx="878.24" cy="507.206" r="1.29232" fill="#36291C"/>
<path d="M879.207 507.182C879.1 507.277 878.765 507.075 878.67 506.968C878.575 506.861 878.585 506.698 878.691 506.603C878.798 506.508 878.961 506.518 879.056 506.624C879.151 506.731 879.314 507.087 879.207 507.182Z" fill="white"/>
<path d="M778.409 651C784.409 651 797.109 648.4 801.909 640C803.575 643.333 810.409 651 824.409 651" stroke="#C2A28A" stroke-opacity="0.64" stroke-width="5"/>
<path d="M824.409 651C830.409 651 843.109 648.4 847.909 640C849.575 643.333 856.409 651 870.409 651" stroke="#C2A28A" stroke-opacity="0.64" stroke-width="5"/>
<path d="M870.409 651C876.409 651 889.109 648.4 893.909 640C895.575 643.333 902.409 651 916.409 651" stroke="#C2A28A" stroke-opacity="0.64" stroke-width="5"/>
<path d="M1364.41 287C1370.41 287 1383.11 284.4 1387.91 276C1389.58 279.333 1396.41 287 1410.41 287" stroke="#C2A28A" stroke-opacity="0.64" stroke-width="5"/>
<path d="M1410.41 287C1416.41 287 1429.11 284.4 1433.91 276C1435.58 279.333 1442.41 287 1456.41 287" stroke="#C2A28A" stroke-opacity="0.64" stroke-width="5"/>
<path d="M1456.41 287C1462.41 287 1475.11 284.4 1479.91 276C1481.58 279.333 1488.41 287 1502.41 287" stroke="#C2A28A" stroke-opacity="0.64" stroke-width="5"/>
<path d="M808.999 802C814.999 802 827.699 799.4 832.499 791C834.165 794.333 840.999 802 854.999 802" stroke="#C2A28A" stroke-opacity="0.64" stroke-width="5"/>
<path d="M854.999 802C860.999 802 873.699 799.4 878.499 791C880.165 794.333 886.999 802 900.999 802" stroke="#C2A28A" stroke-opacity="0.64" stroke-width="5"/>
<path d="M1232.41 432C1238.41 432 1251.11 429.4 1255.91 421C1257.58 424.333 1264.41 432 1278.41 432" stroke="#C2A28A" stroke-opacity="0.64" stroke-width="5"/>
<path d="M1278.41 432C1284.41 432 1297.11 429.4 1301.91 421C1303.58 424.333 1310.41 432 1324.41 432" stroke="#C2A28A" stroke-opacity="0.64" stroke-width="5"/>
<path d="M1699.41 591C1705.41 591 1718.11 588.4 1722.91 580C1724.58 583.333 1731.41 591 1745.41 591" stroke="#C2A28A" stroke-opacity="0.64" stroke-width="5"/>
<path d="M1745.41 591C1751.41 591 1764.11 588.4 1768.91 580C1770.58 583.333 1777.41 591 1791.41 591" stroke="#C2A28A" stroke-opacity="0.64" stroke-width="5"/>
<path d="M1731.41 329C1737.41 329 1750.11 326.4 1754.91 318C1756.58 321.333 1763.41 329 1777.41 329" stroke="#C2A28A" stroke-opacity="0.64" stroke-width="5"/>
<path d="M1513.41 634C1519.41 634 1532.11 631.4 1536.91 623C1538.58 626.333 1545.41 634 1559.41 634" stroke="#C2A28A" stroke-opacity="0.64" stroke-width="5"/>
<path d="M953.409 191C959.409 191 972.109 188.4 976.909 180C978.575 183.333 985.409 191 999.409 191" stroke="#C2A28A" stroke-opacity="0.64" stroke-width="5"/>
<path d="M1348.41 565C1354.41 565 1367.11 562.4 1371.91 554C1373.58 557.333 1380.41 565 1394.41 565" stroke="#C2A28A" stroke-opacity="0.64" stroke-width="5"/>
<path d="M1394.41 565C1400.41 565 1413.11 562.4 1417.91 554C1419.58 557.333 1426.41 565 1440.41 565" stroke="#C2A28A" stroke-opacity="0.64" stroke-width="5"/>
<path d="M999.409 505C1005.41 505 1018.11 502.4 1022.91 494C1024.58 497.333 1031.41 505 1045.41 505" stroke="#C2A28A" stroke-opacity="0.64" stroke-width="5"/>
<path d="M1045.41 505C1051.41 505 1064.11 502.4 1068.91 494C1070.58 497.333 1077.41 505 1091.41 505" stroke="#C2A28A" stroke-opacity="0.64" stroke-width="5"/>
<path d="M1492 772C1498 772 1510.7 769.4 1515.5 761C1517.17 764.333 1524 772 1538 772" stroke="#C2A28A" stroke-opacity="0.64" stroke-width="5"/>
<path d="M1538 772C1544 772 1556.7 769.4 1561.5 761C1563.17 764.333 1570 772 1584 772" stroke="#C2A28A" stroke-opacity="0.64" stroke-width="5"/>
<path d="M1577.5 225L1599.5 203L1609.5 211.5L1634.5 229L1649.5 249L1654 286.5C1669 294.333 1699 310.9 1699 314.5C1699 318.1 1693 328.667 1690 333.5L1699 363L1721.5 371C1721 386.667 1719.5 419.4 1717.5 425C1715.5 430.6 1698.33 439.667 1690 443.5C1697.67 446 1713 451.8 1713 455C1713 458.2 1705.67 470 1702 475.5L1707 483V527L1681.5 551.5L1591.5 563L1595.5 576L1568.5 582C1553 579.5 1521.4 573.8 1519 571C1516.6 568.2 1498.67 543.5 1490 531.5C1467.6 525.5 1442 512 1432 506L1473.5 451C1464.33 444.167 1446.2 429.4 1447 425C1447.8 420.6 1476 391.833 1490 378L1496 351L1522 338.5L1528.5 320L1545 267.5L1557.5 262.5L1577.5 225Z" fill="#715941" fill-opacity="0.67"/>
<path d="M1577.5 208L1599.5 186L1609.5 194.5L1634.5 212L1649.5 232L1654 269.5C1669 277.333 1699 293.9 1699 297.5C1699 301.1 1693 311.667 1690 316.5L1699 346L1721.5 354C1721 369.667 1719.5 402.4 1717.5 408C1715.5 413.6 1698.33 422.667 1690 426.5C1697.67 429 1713 434.8 1713 438C1713 441.2 1705.67 453 1702 458.5L1707 466V510L1681.5 534.5L1591.5 546L1595.5 559L1568.5 565C1553 562.5 1521.4 556.8 1519 554C1516.6 551.2 1498.67 526.5 1490 514.5C1467.6 508.5 1442 495 1432 489L1473.5 434C1464.33 427.167 1446.2 412.4 1447 408C1447.8 403.6 1476 374.833 1490 361L1496 334L1522 321.5L1528.5 303L1545 250.5L1557.5 245.5L1577.5 208Z" fill="#D0B8A1"/>
<path d="M1575.91 521.5C1592.31 493.5 1621.74 475.5 1634.41 470C1636.99 468.8 1639.48 468.833 1640.41 469L1639.41 469.5C1644.74 470.833 1651.71 475.8 1636.91 485C1622.11 494.2 1596.08 519.5 1584.91 531L1586.91 527.5L1580.91 532L1586.91 525C1586.19 525.723 1584.16 526.707 1583.28 527.197C1583.11 527.388 1582.99 527.5 1582.91 527.5C1582.77 527.5 1582.94 527.385 1583.28 527.197C1583.96 526.397 1585.24 524.21 1585.91 523L1577.91 531L1582.91 523.5L1578.41 528C1579.74 525.833 1582.31 521.5 1581.91 521.5C1581.51 521.5 1580.08 522.833 1579.41 523.5L1580.41 520C1580.01 520.4 1577.24 525.167 1575.91 527.5C1576.71 525.5 1579.24 519.333 1580.41 516.5C1579.21 517.3 1576.91 520.167 1575.91 521.5Z" fill="#AA4245"/>
<path d="M1650.41 523.37C1634.93 497.909 1603.16 478.283 1589.21 471.652C1586.37 470.238 1583.82 469.295 1582.9 469L1583.35 469.884C1581.1 468.558 1565.46 474.292 1589.21 487.123C1608.41 497.5 1634.36 518.507 1644.11 530C1643.75 528.232 1644.26 523.075 1644.56 520.717L1646.81 523.37L1645.46 519.833L1648.16 522.486C1647.41 521.159 1646.09 518.684 1646.81 519.391C1647.53 520.099 1649.51 522.338 1650.41 523.37Z" fill="#AA4245"/>
<path d="M1520.41 484.5L1478.41 472.5L1481.41 490L1524.91 502.5L1520.41 484.5Z" fill="#715941"/>
<path d="M1520.41 484.5L1478.41 472.5L1501.41 463L1542.91 474L1520.41 484.5Z" fill="#473828"/>
<path d="M1529.91 453.5L1490.91 443.5L1501.41 463L1542.91 474L1529.91 453.5Z" fill="#594632"/>
<path d="M1529.91 453.5L1547.91 447.5L1558.91 466.5L1542.91 474L1529.91 453.5Z" fill="#92775C"/>
<path d="M1529.91 453.5L1490.91 443.5L1511.41 438L1547.91 447.5L1529.91 453.5Z" fill="#715941"/>
<path d="M1520.41 484.5L1524.91 502.5L1542.91 495V474L1520.41 484.5Z" fill="#92775C"/>
<g filter="url(#filter0_f_5683_5908)">
<path d="M1478.91 474.5L1459.41 440.5L1493.41 423L1553.91 438L1543.41 476L1520.91 486.5L1478.91 474.5Z" fill="#F1DEBA" fill-opacity="0.5"/>
</g>
<path d="M1478.41 465.5C1476.81 467.9 1478.08 471.167 1478.91 472.5L1520.41 484.5L1539.41 476L1539.91 474.5C1540.08 474 1540.31 472.9 1539.91 472.5C1539.41 472 1539.91 471 1539.41 470C1538.91 469 1537.41 468.5 1536.91 467C1536.41 465.5 1533.41 464 1531.91 463C1530.41 462 1528.41 461.5 1527.91 460.5C1527.41 459.5 1522.41 460 1521.41 459.5C1520.41 459 1517.91 459 1515.41 457.5C1512.91 456 1512.91 457 1510.91 455.5C1508.91 454 1505.41 455.5 1502.91 455C1500.41 454.5 1498.91 455.5 1496.41 455.5C1493.91 455.5 1491.91 456 1489.91 457.5C1487.91 459 1488.41 458.5 1484.41 459.5C1480.41 460.5 1480.41 462.5 1478.41 465.5Z" fill="#E4D292"/>
<path d="M1485.05 468.64C1483.72 470.58 1484.77 473.221 1485.46 474.299L1520 484L1535.81 477.128L1536.22 475.916C1536.36 475.511 1536.56 474.622 1536.22 474.299C1535.81 473.895 1536.22 473.086 1535.81 472.278C1535.39 471.469 1534.14 471.065 1533.73 469.852C1533.31 468.64 1530.82 467.427 1529.57 466.619C1528.32 465.81 1526.66 465.406 1526.24 464.598C1525.82 463.789 1521.66 464.193 1520.83 463.789C1520 463.385 1517.92 463.385 1515.84 462.172C1513.76 460.96 1513.76 461.768 1512.09 460.555C1510.43 459.343 1507.52 460.555 1505.44 460.151C1503.36 459.747 1502.11 460.555 1500.03 460.555C1497.95 460.555 1496.28 460.96 1494.62 462.172C1492.95 463.385 1493.37 462.981 1490.04 463.789C1486.71 464.598 1486.71 466.214 1485.05 468.64Z" fill="#D5C282"/>
<path d="M1479.99 467.28C1478.78 469.139 1479.74 471.67 1480.36 472.703L1511.58 482L1525.87 475.415L1526.24 474.252C1526.37 473.865 1526.54 473.013 1526.24 472.703C1525.87 472.316 1526.24 471.541 1525.87 470.766C1525.49 469.991 1524.36 469.604 1523.99 468.442C1523.61 467.28 1521.35 466.118 1520.23 465.343C1519.1 464.568 1517.59 464.181 1517.22 463.406C1516.84 462.631 1513.08 463.019 1512.33 462.631C1511.58 462.244 1509.7 462.244 1507.82 461.082C1505.93 459.92 1505.93 460.694 1504.43 459.532C1502.93 458.37 1500.29 459.532 1498.41 459.145C1496.53 458.757 1495.41 459.532 1493.52 459.532C1491.64 459.532 1490.14 459.92 1488.64 461.082C1487.13 462.244 1487.51 461.856 1484.5 462.631C1481.49 463.406 1481.49 464.955 1479.99 467.28Z" fill="#F2DF9A"/>
<path d="M1497.83 474.12C1496.96 475.494 1497.65 477.365 1498.1 478.128L1520.68 485L1531.02 480.133L1531.29 479.274C1531.38 478.987 1531.51 478.357 1531.29 478.128C1531.02 477.842 1531.29 477.269 1531.02 476.697C1530.74 476.124 1529.93 475.838 1529.66 474.979C1529.38 474.12 1527.75 473.261 1526.94 472.688C1526.12 472.116 1525.03 471.829 1524.76 471.257C1524.49 470.684 1521.77 470.97 1521.22 470.684C1520.68 470.398 1519.32 470.398 1517.96 469.539C1516.6 468.68 1516.6 469.252 1515.51 468.393C1514.42 467.534 1512.52 468.393 1511.16 468.107C1509.8 467.821 1508.98 468.393 1507.62 468.393C1506.26 468.393 1505.17 468.68 1504.08 469.539C1503 470.398 1503.27 470.111 1501.09 470.684C1498.91 471.257 1498.91 472.402 1497.83 474.12Z" fill="#E4D292"/>
<path d="M1576.42 264.605C1576.82 265.405 1577.92 265.272 1578.42 265.105C1591.25 265.105 1617.22 265.505 1618.42 265.105C1619.92 264.605 1601.92 225.605 1599.92 223.105C1597.92 220.605 1575.92 263.605 1576.42 264.605Z" fill="#B1927A"/>
<path d="M1595.91 232.5L1592.41 233C1597.91 224 1599.41 223 1599.91 223C1600.31 223 1603.41 229.333 1604.91 232.5L1603.91 235L1600.41 232.5L1598.41 234L1595.91 232.5Z" fill="#E9D4C4"/>
<path d="M1512.41 361.406C1512.69 361.952 1513.44 361.861 1513.78 361.748C1522.54 361.748 1540.27 362.021 1541.09 361.748C1542.11 361.406 1529.82 334.779 1528.46 333.072C1527.09 331.365 1512.07 360.723 1512.41 361.406Z" fill="#B1927A"/>
<path d="M1525.72 339.486L1523.33 339.828C1527.09 333.683 1528.11 333 1528.45 333C1528.73 333 1530.84 337.324 1531.87 339.486L1531.18 341.193L1528.79 339.486L1527.43 340.51L1525.72 339.486Z" fill="#E9D4C4"/>
<path d="M1592.42 267.765C1592.82 268.376 1593.92 268.274 1594.42 268.147C1607.25 268.147 1633.22 268.452 1634.42 268.147C1635.92 267.765 1617.92 237.989 1615.92 236.08C1613.92 234.171 1591.92 267.002 1592.42 267.765Z" fill="#C29F83"/>
<path d="M1611.91 243.253L1608.41 243.635C1613.91 236.763 1615.41 236 1615.91 236C1616.31 236 1619.41 240.835 1620.91 243.253L1619.91 245.162L1616.41 243.253L1614.41 244.398L1611.91 243.253Z" fill="#E9D4C4"/>
<path d="M1502.41 364.929C1502.69 365.346 1503.44 365.277 1503.78 365.19C1512.54 365.19 1530.27 365.398 1531.09 365.19C1532.11 364.929 1519.82 344.599 1518.46 343.296C1517.09 341.993 1502.07 364.408 1502.41 364.929Z" fill="#C29F83"/>
<path d="M1515.72 348.193L1513.33 348.454C1517.09 343.762 1518.11 343.241 1518.45 343.241C1518.73 343.241 1520.84 346.543 1521.87 348.193L1521.18 349.497L1518.79 348.193L1517.43 348.975L1515.72 348.193Z" fill="#E9D4C4"/>
<path d="M1674.27 264.442L1674.35 273.394" stroke="#B1927A" stroke-width="0.468401"/>
<path d="M1690.12 264.446L1690.12 273.596" stroke="#B1927A" stroke-width="0.468401"/>
<path d="M1687.01 264.084L1687.01 273.916" stroke="#7F7F7F" stroke-width="0.468401"/>
<path d="M1682.63 263.896L1682.63 272.808" stroke="#7F7F7F" stroke-width="0.468401"/>
<path d="M1678.57 264.026L1678.57 273.889" stroke="#7F7F7F" stroke-width="0.468401"/>
<path d="M1674.12 264.833C1680.65 264.1 1684.14 264.178 1690.2 264.833" stroke="#B1927A" stroke-width="0.468401"/>
<path d="M1674.27 271.078C1680.62 270.479 1684.07 270.417 1690.04 271.078" stroke="#B1927A" stroke-width="0.468401"/>
<path d="M1674.27 269.764C1680.76 268.957 1684.22 268.961 1690.04 269.764" stroke="#B1927A" stroke-width="0.468401"/>
<path d="M1673.81 272.991C1680.75 273.742 1684.53 273.847 1690.51 273.085" stroke="#B1927A" stroke-width="1.24907"/>
<g filter="url(#filter1_f_5683_5908)">
<circle cx="1682.16" cy="265.535" r="4.44981" fill="#E3C525"/>
</g>
<g filter="url(#filter2_f_5683_5908)">
<circle cx="1682.32" cy="264.286" r="6.32342" fill="#D8C76B"/>
</g>
<circle cx="1682.24" cy="266.082" r="2.96654" fill="#E3C525"/>
<circle cx="1682.24" cy="266.238" r="2.34201" fill="#FFE55C"/>
<circle cx="1682.32" cy="266.16" r="1.63941" fill="#FFF3B3"/>
<rect x="1676.93" y="259.836" width="10.7732" height="9.52416" fill="#D9D9D9" fill-opacity="0.6"/>
<path d="M1676.62 277.011V268.268H1688.17V277.011H1676.62Z" fill="#715941"/>
<line x1="1676.93" y1="268.268" x2="1676.93" y2="260.461" stroke="#715941" stroke-width="0.624535"/>
<line x1="1680.21" y1="268.268" x2="1680.21" y2="260.461" stroke="#715941" stroke-width="0.624535"/>
<line x1="1683.96" y1="268.268" x2="1683.96" y2="260.461" stroke="#715941" stroke-width="0.624535"/>
<line x1="1687.86" y1="268.268" x2="1687.86" y2="260.461" stroke="#715941" stroke-width="0.624535"/>
<path d="M1676.3 260.587V259.056H1688.48V260.587C1685.11 261.49 1678.96 260.963 1676.3 260.587Z" fill="#715941"/>
<path d="M1681.37 251.43L1682.68 250L1683.9 251.43L1683.33 253.258V254.291L1688.64 259.138C1685.31 259.837 1678.92 259.429 1676.15 259.138L1681.94 254.291V253.258L1681.37 251.43Z" fill="#715941"/>
<path d="M1674.27 264.599L1674.27 273.449" stroke="#C2A28A" stroke-width="0.468401"/>
<path d="M1690.12 264.521L1690.12 273.596" stroke="#C2A28A" stroke-width="0.468401"/>
<path d="M1687.01 264.833L1687.01 273.916" stroke="#C2A28A" stroke-width="0.468401"/>
<path d="M1682.63 264.989L1682.63 274.129" stroke="#C2A28A" stroke-width="0.468401"/>
<path d="M1678.57 264.866L1678.57 273.889" stroke="#C2A28A" stroke-width="0.468401"/>
<path d="M1674.12 264.924C1680.83 265.546 1684.36 265.599 1690.2 264.924" stroke="#C2A28A" stroke-width="0.468401"/>
<path d="M1674.27 271.078C1680.77 271.793 1684.23 271.796 1690.04 271.078" stroke="#C2A28A" stroke-width="0.468401"/>
<path d="M1674.27 269.764C1680.72 270.548 1684.18 270.552 1690.04 269.764" stroke="#C2A28A" stroke-width="0.468401"/>
<path d="M1673.81 272.991C1679.66 273.888 1686.06 273.888 1690.51 273.085" stroke="#C2A28A" stroke-width="1.24907"/>
<path d="M1693.48 276.699H1671.15V278.26H1673.28H1691.21H1693.48V276.699Z" fill="#594632"/>
<path d="M1672.56 280.134V278.26H1692.37V280.134H1672.56Z" fill="#634E38"/>
<path d="M1675.21 282.554L1673.65 280.134H1691.61L1689.97 282.554L1704.41 365.071H1662.41L1675.21 282.554Z" fill="#B1927A"/>
<path d="M1675.21 282.554L1673.65 280.134H1679.51L1679.9 282.554L1675.6 365.071H1662.41L1675.21 282.554Z" fill="#A68B75"/>
<path d="M1685.75 282.554L1685.83 280.134H1691.55L1689.91 282.554L1704.41 365.227L1692.57 365.071L1685.75 282.554Z" fill="#C2A28A"/>
<mask id="mask0_5683_5908" style="mask-type:alpha" maskUnits="userSpaceOnUse" x="1673" y="280" width="19" height="3">
<path d="M1675.21 282.554L1673.65 280.134H1691.61L1689.97 282.554H1675.21Z" fill="#C64545"/>
</mask>
<g mask="url(#mask0_5683_5908)">
<path d="M1675.21 282.554L1673.65 280.134H1691.61L1689.97 282.554H1675.21Z" fill="#7A6147"/>
<path d="M1675.21 282.554L1673.65 280.134H1679.51L1679.9 282.554L1675.6 365.071H1662.41L1675.21 282.554Z" fill="#655444"/>
<path d="M1685.91 283.1V280.134H1691.61L1689.97 282.554L1704.41 365.071H1692.54L1685.91 283.1Z" fill="#896E5A"/>
</g>
<mask id="mask1_5683_5908" style="mask-type:alpha" maskUnits="userSpaceOnUse" x="1665" y="322" width="36" height="24">
<path d="M1677.11 328.379L1667.96 329.472L1665.84 343.134L1676.48 345.632H1690.96L1700.58 343.134L1697.06 322.992L1689.42 326.818L1677.11 328.379Z" fill="#C64545"/>
</mask>
<g mask="url(#mask1_5683_5908)">
<path d="M1677.11 328.379L1667.96 329.472L1665.84 343.134L1676.48 345.632H1690.96L1700.58 343.134L1697.06 322.992L1689.39 326.271L1677.11 328.379Z" fill="#715941"/>
<path d="M1675.21 282.554L1673.65 280.134H1679.51L1679.9 282.554L1675.6 365.071H1662.41L1675.21 282.554Z" fill="#604D3A"/>
<path d="M1685.83 283.1V280.134H1691.53L1689.89 282.554L1704.33 365.071H1692.57L1685.83 283.1Z" fill="#7A6351"/>
</g>
<mask id="mask2_5683_5908" style="mask-type:alpha" maskUnits="userSpaceOnUse" x="1672" y="282" width="22" height="21">
<path d="M1678.49 302.383L1672.25 301.524L1675.21 282.476H1689.97L1693.32 301.68L1687.39 302.383H1678.49Z" fill="#C64545"/>
</mask>
<g mask="url(#mask2_5683_5908)">
<path d="M1678.49 302.383L1672.25 301.524L1675.21 282.476H1689.97L1693.32 301.68L1687.47 302.383H1678.49Z" fill="#715941"/>
<path d="M1675.21 282.476L1673.65 280.056H1679.51L1679.9 282.476L1675.6 364.992H1662.41L1675.21 282.476Z" fill="#604D3A"/>
<path d="M1685.83 283.022L1685.91 280.056H1691.61L1689.97 282.476L1704.41 364.992L1692.46 365.071L1685.83 283.022Z" fill="#7A6351"/>
</g>
<path d="M1659.44 361.594C1657.03 362.354 1656.88 365.218 1656.85 367.051C1657.28 371.059 1708.81 369.423 1709.31 369.431C1709.81 369.439 1710.33 368.448 1710.34 367.948C1710.35 367.448 1709.87 365.94 1709.89 364.94C1709.91 363.94 1709.42 363.432 1708.92 362.924C1708.43 362.415 1706.42 362.882 1705.44 361.865C1704.46 360.848 1703.47 360.332 1702.47 359.815C1701.48 359.298 1699.48 359.765 1697.48 359.231C1695.49 358.698 1693.42 363.164 1692.93 362.155C1692.45 361.147 1689.44 361.597 1688.96 360.589C1688.48 359.58 1684.45 361.013 1684.47 360.013C1684.49 359.013 1683.49 358.497 1682.5 357.98L1682.5 357.98C1681.51 357.463 1680 357.938 1679.51 357.43C1679.02 356.921 1676.45 360.879 1675.96 360.371C1675.47 359.862 1673.49 358.829 1671.99 358.804C1670.49 358.779 1669.97 359.77 1668.47 359.745C1666.97 359.72 1667.44 361.728 1665.46 360.695C1663.47 359.661 1662.46 360.644 1659.44 361.594Z" fill="#9A8472"/>
<path d="M1316.41 265.5C1324.24 268.666 1336.11 279.1 1320.91 295.5C1305.71 311.9 1291.91 320.666 1286.91 323" stroke="#AA4245" stroke-width="6" stroke-linecap="square" stroke-dasharray="15 15"/>
<path d="M1216.91 342.5C1210.24 346.166 1199.51 355.6 1209.91 364C1222.91 374.5 1250.41 356.5 1266.91 357.5C1280.11 358.3 1287.41 362.166 1289.41 364" stroke="#AA4245" stroke-width="6" stroke-linecap="square" stroke-dasharray="15 15"/>
<path d="M1107.41 358C1121.24 358 1151.91 354.4 1163.91 340C1178.91 322 1158.91 294.5 1171.91 270C1182.31 250.4 1199.91 246.167 1207.41 246.5" stroke="#AA4245" stroke-width="6" stroke-linecap="square" stroke-dasharray="15 15"/>
<path d="M902.909 219.5C912.999 218 930.285 220.859 943.499 229.5C951.909 235 958.909 241.426 951.909 264.426C944.909 287.426 914.409 307.926 902.909 326.426C891.409 344.926 906.409 359.926 917.909 361.426" stroke="#AA4245" stroke-width="6" stroke-linecap="square" stroke-dasharray="15 15"/>
<path d="M1401.41 381C1414.91 393.666 1407.41 435.4 1351.41 463C1281.41 497.5 1201.5 472.5 1173.5 505.5C1151.1 531.9 1149.17 558.833 1151 569" stroke="#AA4245" stroke-width="6" stroke-linecap="square" stroke-dasharray="15 15"/>
<path d="M1177 716.5C1183.83 737 1222.03 767.257 1280.5 780C1397.5 805.5 1454.5 757.5 1469.5 712C1487.03 658.815 1421.5 645.5 1463.5 592.5C1505.5 539.5 1539.5 528 1559.5 514" stroke="#AA4245" stroke-width="6" stroke-linecap="square" stroke-dasharray="15 15"/>
<defs>
<filter id="filter0_f_5683_5908" x="1449.41" y="413" width="114.5" height="83.5" filterUnits="userSpaceOnUse" color-interpolation-filters="sRGB">
<feFlood flood-opacity="0" result="BackgroundImageFix"/>
<feBlend mode="normal" in="SourceGraphic" in2="BackgroundImageFix" result="shape"/>
<feGaussianBlur stdDeviation="5" result="effect1_foregroundBlur_5683_5908"/>
</filter>
<filter id="filter1_f_5683_5908" x="1677.09" y="260.461" width="10.1487" height="10.1487" filterUnits="userSpaceOnUse" color-interpolation-filters="sRGB">
<feFlood flood-opacity="0" result="BackgroundImageFix"/>
<feBlend mode="normal" in="SourceGraphic" in2="BackgroundImageFix" result="shape"/>
<feGaussianBlur stdDeviation="0.312268" result="effect1_foregroundBlur_5683_5908"/>
</filter>
<filter id="filter2_f_5683_5908" x="1674.12" y="256.089" width="16.3939" height="16.3939" filterUnits="userSpaceOnUse" color-interpolation-filters="sRGB">
<feFlood flood-opacity="0" result="BackgroundImageFix"/>
<feBlend mode="normal" in="SourceGraphic" in2="BackgroundImageFix" result="shape"/>
<feGaussianBlur stdDeviation="0.936803" result="effect1_foregroundBlur_5683_5908"/>
</filter>
<linearGradient id="paint0_linear_5683_5908" x1="559" y1="27" x2="559" y2="499" gradientUnits="userSpaceOnUse">
<stop stop-color="#3BB8C5"/>
<stop offset="1" stop-color="#72ACB3" stop-opacity="0"/>
</linearGradient>
<linearGradient id="paint1_linear_5683_5908" x1="1415.12" y1="-7.69004e-08" x2="1414.5" y2="515" gradientUnits="userSpaceOnUse">
<stop stop-color="#2AB2C0"/>
<stop offset="1" stop-color="#72ACB3" stop-opacity="0"/>
</linearGradient>
</defs>
</svg>
