<svg width="372" height="578" viewBox="0 0 372 578" fill="none" xmlns="http://www.w3.org/2000/svg">
<path d="M282.947 0.830493C233.517 2.93347 174 12.5 87 48C60.5586 58.7893 43.8219 62.2383 18.8555 73.3564C9.11003 100.314 6.21232 115.405 12.0468 142.227C18.7575 130.766 22.9049 126.414 31.6217 125.758C28.7283 143.282 25.5754 151.377 16.3022 161.69L18.15 175.776L29.0685 161.69H40.1325L60.5586 130.249L92.3042 134.08C134 33 239.864 5.92809 282.947 0.830493Z" fill="url(#paint0_linear_6077_1053)"/>
<path d="M331.203 61.3789C336.579 44.5149 341.425 37.1935 352.48 26.9437L282.947 0.830493C298.088 8.31872 310.625 28.2209 331.203 61.3789Z" fill="url(#paint1_linear_6077_1053)"/>
<path d="M352.48 26.9437C341.425 37.1935 336.579 44.5149 331.203 61.3789C310.625 28.2209 298.088 8.31872 282.947 0.830493L276.734 1.75635C274.624 10.8618 273.956 13.8383 276.734 19.4578C269.645 12.553 284.254 11.6316 282.947 0.830493C239.864 5.92809 134 33 92.3042 134.08L60.5586 130.249L40.1325 161.69H29.0685C25.6855 176.074 23.2961 178.62 18.8555 181.154L18.15 175.776L16.3022 178.159L24.813 206.606L18.0044 212.595V253.019L29.9195 273.979L18.0044 291.945L26.5152 312.906L18.0044 335.364V362.313L28.2174 372.793L18.0044 386.268V422.2L22.2598 446.155L18.0044 453.641V485.828V494.065L20.5576 504.546L18.0044 510.534V531.495L25.6641 559.941L18.0044 556.947C18.0044 556.947 13.749 570.345 18.0044 574.913C22.2598 579.482 356.736 579.482 356.736 571.487C356.736 563.492 352.48 549.461 352.48 549.461L354.182 527.003L356.376 465.27L356.736 455.138L352.48 417.709L356.736 339.855L352.48 312.906L350.778 305.42L356.736 273.979V199.12L350.778 185.645L356.736 182.651V142.227L352.48 136.238V98.8085L356.736 88.3282L350.778 70.362L356.736 58.3846V29.938L352.48 26.9437Z" fill="#ECDDC7"/>
<path d="M18.0044 574.913C13.749 570.345 18.0044 556.947 18.0044 556.947L25.6641 559.941L18.0044 531.495V510.534L20.5576 504.546L18.0044 494.065V485.828C9.58819 488.289 3.84809 497.054 3.96057 499.533C4.07304 502.013 9.01889 505.913 9.04867 508.67C9.07845 511.427 -0.933245 516.807 0.568499 521.234C2.07024 525.66 9.71383 528.051 9.89669 531.495C10.0795 534.939 -2.82357 532.225 0.568499 534.939C3.96057 537.653 1.65148 548.738 3.11255 550.929C4.57363 553.119 12.4407 554.355 12.4407 554.355C12.4407 554.355 7.62869 556.677 7.35264 559.941C7.07658 563.206 12.4373 572.098 18.0044 574.913Z" fill="#E1D0B6"/>
<path d="M354.182 527.003L352.48 549.461C352.48 549.461 356.736 563.492 356.736 571.487C359.424 566.709 362.866 557.826 363.52 553.213C364.174 548.599 361.824 549.461 361.824 549.461C361.824 549.461 372 536.98 372 530.37C372 523.761 362.866 520.842 362.866 520.842C362.866 520.842 370.498 515.462 370.498 510.954C370.498 506.447 363.52 495.961 361.824 491.253C360.128 486.546 361.824 481.259 361.824 481.259C361.751 475.172 361.208 471.721 356.376 465.27L354.182 527.003Z" fill="#E1D0B6"/>
<path d="M108.5 130.5C114.5 86.9 223 26 276.5 1C212.9 5.4 101 44.1667 53 63L26 173.5L35 157.5L46.5 161.5L70 122.5L108.5 130.5Z" fill="url(#paint2_linear_6077_1053)"/>
<path d="M352 59.5L283.5 1L352 27L356.5 30V55.5L352 59.5Z" fill="url(#paint3_linear_6077_1053)"/>
<path d="M58.3069 195.378C54.6544 194.654 50.8122 190.894 45.2529 186.293C45.1277 186.2 45.0122 186.105 44.9068 186.008L45.4441 185.598L45.0747 185.269L44 185.571L55.1836 195.948C69.4647 197.561 76.9605 197.599 89.3052 195.948L102 185.437L100.663 185.131L100.182 185.598L100.489 186.008C94.1377 191.542 90.5928 194.617 87.0214 195.378C76.4796 196.31 70.1763 196.296 58.3069 195.378Z" fill="#362520"/>
<path d="M45.2529 186.293C50.8122 190.894 54.6544 194.654 58.3069 195.378C70.1763 196.296 76.4796 196.31 87.0214 195.378C90.5928 194.617 94.1377 191.542 100.489 186.008C93.3893 191.357 52.5897 191.771 45.2529 186.293Z" fill="#3A2D1F"/>
<path d="M44.9068 186.008C45.0229 186.103 45.1383 186.198 45.2529 186.293C52.5897 191.771 93.3893 191.357 100.489 186.008L100.182 185.598C97.7928 186.688 94.2202 187.529 90.0104 188.129C89.8324 188.154 89.6533 188.179 89.4731 188.204C88.1291 188.386 86.724 188.545 85.275 188.68C85.0522 188.7 84.8283 188.72 84.6034 188.74C82.7122 188.905 80.7519 189.03 78.7597 189.115C78.5585 189.124 78.357 189.132 78.1552 189.14C76.0008 189.224 73.8135 189.262 71.6398 189.255C71.4158 189.254 71.1919 189.253 70.9682 189.251C69.2703 189.238 67.5836 189.198 65.9305 189.13C65.751 189.122 65.5719 189.115 65.3932 189.107C63.2808 189.012 61.2277 188.872 59.2808 188.688C59.1234 188.673 58.9667 188.658 58.8107 188.642C56.7783 188.441 54.8681 188.19 53.1349 187.89C52.9995 187.867 52.8651 187.843 52.7319 187.819C49.5539 187.246 47.0059 186.505 45.4441 185.598L44.9068 186.008Z" fill="#362520"/>
<path d="M100.489 185.3C97.3252 186.159 93.7873 186.843 90.0104 187.347C89.8318 187.371 89.6527 187.394 89.4731 187.417C88.1019 187.593 86.7004 187.746 85.275 187.875C85.0517 187.895 84.8278 187.915 84.6034 187.934C82.6912 188.096 80.7383 188.216 78.7597 188.294C78.5585 188.302 78.3569 188.309 78.1552 188.316C76.0053 188.391 73.8271 188.416 71.6398 188.391C71.416 188.388 71.1921 188.385 70.9682 188.381C69.335 188.355 67.6979 188.3 66.0649 188.216C65.8857 188.207 65.7066 188.198 65.5275 188.188C63.5111 188.078 61.5022 187.924 59.5159 187.726C59.3703 187.712 59.2247 187.697 59.0793 187.682C57.1606 187.484 55.2641 187.246 53.4036 186.966C53.2691 186.946 53.1347 186.925 53.0006 186.905C50.3178 186.491 47.7123 185.991 45.2253 185.403L45.4441 185.598C47.0059 186.505 49.5539 187.246 52.7319 187.819C52.8651 187.843 52.9995 187.867 53.1349 187.89C54.8681 188.19 56.7783 188.441 58.8107 188.642C58.9667 188.658 59.1234 188.673 59.2808 188.688C61.2277 188.872 63.2808 189.012 65.3932 189.107C65.5719 189.115 65.751 189.122 65.9305 189.13C67.5836 189.198 69.2703 189.238 70.9682 189.251C71.1919 189.253 71.4158 189.254 71.6398 189.255C73.8135 189.262 76.0008 189.224 78.1552 189.14C78.357 189.132 78.5585 189.124 78.7597 189.115C80.7519 189.03 82.7122 188.905 84.6034 188.74C84.8283 188.72 85.0522 188.7 85.275 188.68C86.724 188.545 88.1291 188.386 89.4731 188.204C89.6533 188.179 89.8324 188.154 90.0104 188.129C94.2202 187.529 97.7928 186.688 100.182 185.598L100.489 185.3Z" fill="#715941"/>
<path d="M45.2253 185.403C47.7123 185.991 50.3178 186.491 53.0006 186.905C53.1347 186.925 53.2691 186.946 53.4036 186.966C55.2641 187.246 57.1606 187.484 59.0793 187.682C59.2247 187.697 59.3703 187.712 59.5159 187.726C61.5022 187.924 63.5111 188.078 65.5275 188.188C65.7066 188.198 65.8857 188.207 66.0649 188.216C67.6979 188.3 69.335 188.355 70.9682 188.381C71.1921 188.385 71.416 188.388 71.6398 188.391C73.8271 188.416 76.0053 188.391 78.1552 188.316C78.3569 188.309 78.5585 188.302 78.7597 188.294C80.7383 188.216 82.6912 188.096 84.6034 187.934C84.8278 187.915 85.0517 187.895 85.275 187.875C86.7004 187.746 88.1019 187.593 89.4731 187.417C89.6527 187.394 89.8318 187.371 90.0104 187.347C93.7873 186.843 97.3252 186.159 100.489 185.3L100.657 185.134C85.2079 188.862 62.8743 188.909 45.0747 185.269L45.2253 185.403Z" fill="#362520"/>
<path d="M92.563 192.254C82.9579 196.989 61.1953 196.553 52.9336 192.254" stroke="black" stroke-opacity="0.2" stroke-width="0.372216"/>
<path d="M50.7837 190.608C59.9186 195.68 83.8306 195.008 94.6447 190.608" stroke="black" stroke-opacity="0.2" stroke-width="0.372216"/>
<path d="M47.8618 188.157C56.896 193.564 83.6626 193.396 97.9024 188.157" stroke="black" stroke-opacity="0.2" stroke-width="0.372216"/>
<path d="M75.3139 187.606C75.1728 187.626 75.0015 188.273 74.7295 188.493H75.596V187.767C75.596 187.667 75.4549 187.586 75.3139 187.606Z" fill="#594632"/>
<path d="M76.503 187.589C76.6441 187.61 76.8154 188.256 77.0874 188.476H76.2209V187.751C76.2209 187.65 76.362 187.569 76.503 187.589Z" fill="#594632"/>
<path d="M52.7488 187.821C52.882 187.845 53.0163 187.869 53.1518 187.892L53.4204 186.968C53.2859 186.948 53.1516 186.927 53.0174 186.907L52.7488 187.821Z" fill="#362520" fill-opacity="0.2"/>
<path d="M59.5328 187.728C59.3871 187.714 59.2416 187.699 59.0962 187.684L58.8275 188.645C58.9835 188.66 59.1403 188.675 59.2977 188.69L59.5328 187.728Z" fill="#362520" fill-opacity="0.2"/>
<path d="M66.0817 188.219C65.9025 188.209 65.7234 188.2 65.5444 188.19L65.41 189.109C65.5887 189.117 65.7678 189.125 65.9474 189.132L66.0817 188.219Z" fill="#362520" fill-opacity="0.2"/>
<path d="M71.6567 188.393C71.4329 188.39 71.209 188.387 70.985 188.383V189.253C71.2087 189.255 71.4326 189.256 71.6567 189.257V188.393Z" fill="#362520" fill-opacity="0.2"/>
<path d="M78.7766 188.296C78.5753 188.304 78.3738 188.311 78.172 188.318V189.142C78.3738 189.135 78.5754 189.126 78.7766 189.118V188.296Z" fill="#362520" fill-opacity="0.2"/>
<path d="M85.2919 187.877C85.0686 187.897 84.8447 187.917 84.6202 187.936V188.742C84.8451 188.723 85.069 188.702 85.2919 188.682V187.877Z" fill="#362520" fill-opacity="0.2"/>
<path fill-rule="evenodd" clip-rule="evenodd" d="M90.0273 187.349C93.8041 186.845 97.3421 186.161 100.506 185.302L100.199 185.6C97.8096 186.69 94.237 187.532 90.0273 188.131V187.349ZM89.4899 187.42C88.1187 187.595 86.7173 187.748 85.2919 187.877V188.682C86.7409 188.547 88.1459 188.388 89.4899 188.206V187.42ZM84.6202 187.936V188.742C82.729 188.907 80.7688 189.032 78.7766 189.118V188.296C80.7552 188.218 82.7081 188.098 84.6202 187.936ZM78.172 188.318C76.0222 188.393 73.844 188.418 71.6567 188.393V189.257C73.8303 189.264 76.0176 189.226 78.172 189.142V188.318ZM70.985 188.383V189.253C69.2871 189.24 67.6005 189.2 65.9474 189.132L66.0817 188.219C67.7147 188.302 69.3518 188.357 70.985 188.383ZM65.5444 188.19C63.5279 188.08 61.519 187.926 59.5328 187.728L59.2977 188.69C61.2446 188.874 63.2977 189.014 65.41 189.109L65.5444 188.19ZM59.0962 187.684L58.8275 188.645C56.7952 188.443 54.8849 188.192 53.1518 187.892L53.4204 186.968C55.281 187.248 57.1774 187.487 59.0962 187.684ZM53.0174 186.907C50.3347 186.493 47.7291 185.993 45.2422 185.405L45.461 185.6C47.0228 186.507 49.5707 187.248 52.7488 187.821L53.0174 186.907Z" fill="#715941"/>
<path d="M90.0273 187.349C89.8487 187.373 89.6696 187.396 89.4899 187.42V188.206C89.6702 188.181 89.8493 188.156 90.0273 188.131V187.349Z" fill="#362520" fill-opacity="0.2"/>
<path d="M73.0164 188.695C72.7813 188.728 72.4958 189.806 72.0425 190.172H73.4866V188.963C73.4866 188.795 73.2515 188.661 73.0164 188.695Z" fill="#594632"/>
<path d="M74.9982 188.666C75.2333 188.7 75.5189 189.778 75.9722 190.144H74.528V188.935C74.528 188.767 74.7631 188.632 74.9982 188.666Z" fill="#594632"/>
<path d="M79.9813 194.375L79.873 149.837L80.7035 149.896L80.91 194.215L79.9813 194.375Z" fill="#362520"/>
<path fill-rule="evenodd" clip-rule="evenodd" d="M79.8572 151.842C75.5928 165.369 72.5998 174.49 66.0002 186.305C69.6457 185.556 72.2166 185.273 75.1779 185.431C78.1835 174.197 78.8026 166.195 79.8572 151.842Z" fill="#F1F3F2"/>
<path d="M79.9155 185.968C78.9064 173.551 79.0782 164.542 79.8572 151.842C78.8026 166.195 78.1835 174.197 75.1779 185.431C76.6105 185.508 78.1344 185.688 79.9155 185.968Z" fill="#A4BFD6"/>
<path d="M76.3768 191.696C82.6736 176.796 83.0917 167.344 80.7059 151.871C85.899 156.55 91.987 169.498 99.2196 184.749C90.0586 184.295 85.1163 186.597 76.3768 191.696Z" fill="#F1F3F2"/>
<path d="M74.3028 151.731C76.946 151.577 77.4968 151.038 79.8787 149.838L79.8761 153.371C77.1263 153.088 76.5781 152.482 74.3028 151.731Z" fill="#E23234"/>
<path d="M262.515 329.709C264.705 327.917 271.887 325.811 275.205 324.981L297.35 327.718C300.585 327.884 307.303 328.216 308.298 328.216C309.294 328.216 312.197 330.372 313.524 331.451C308.298 338.666 299.341 342.896 297.35 343.394C295.758 343.792 285.241 343.228 280.181 342.896C263.759 343.394 255.299 341.403 256.045 339.911C256.643 338.716 260.11 335.1 261.768 333.441L262.515 329.709Z" fill="#594632"/>
<path d="M262.515 325.728C264.705 323.936 271.887 321.829 275.205 321L297.35 323.737C300.585 323.903 307.303 324.235 308.298 324.235C309.294 324.235 312.197 326.391 313.524 327.469C308.298 334.685 299.341 338.915 297.35 339.413C295.758 339.811 285.241 339.247 280.181 338.915C263.759 339.413 255.299 337.422 256.045 335.929C256.643 334.735 260.11 331.119 261.768 329.46L262.515 325.728Z" fill="#D0B8A1"/>
<path d="M182.23 327.451C183.822 325.858 190.69 322.972 193.925 321.728L214.826 320.981L222.788 322.474C223.784 324.863 222.042 326.787 221.047 327.451C223.236 329.043 224.447 332.095 224.779 333.422C221.992 336.806 215.821 337.652 213.084 337.652L195.418 336.906L191.436 331.929C187.704 331.1 180.638 329.043 182.23 327.451Z" fill="#594632"/>
<path d="M182.23 323.469C183.822 321.877 190.69 318.991 193.925 317.746L214.826 317L222.788 318.493C223.784 320.882 222.042 322.806 221.047 323.469C223.236 325.062 224.447 328.114 224.779 329.441C221.992 332.825 215.821 333.671 213.084 333.671L195.418 332.925L191.436 327.948C187.704 327.119 180.638 325.062 182.23 323.469Z" fill="#D0B8A1"/>
<path d="M214.963 289.704C217.55 287.514 224.999 284.976 228.399 283.981L248.803 289.455C253.696 290.865 263.881 294.133 265.474 295.925C267.066 297.716 266.137 299.325 265.474 299.906C267.713 300.901 269.206 307.122 267.216 309.361C265.623 311.153 259.253 308.615 256.267 307.122C254.277 306.79 249.798 305.728 247.807 304.136C245.817 302.543 236.03 303.472 231.385 304.136C226.657 304.219 217.152 304.086 216.953 302.892C216.754 301.697 218.529 296.256 219.441 293.685C216.87 293.271 212.375 291.894 214.963 289.704Z" fill="#594632"/>
<path d="M214.963 285.723C217.55 283.533 224.999 280.995 228.399 280L248.803 285.474C253.696 286.884 263.881 290.152 265.474 291.944C267.066 293.735 266.137 295.344 265.474 295.925C267.713 296.92 269.206 303.141 267.216 305.38C265.623 307.172 259.253 304.634 256.267 303.141C254.277 302.809 249.798 301.747 247.807 300.155C245.817 298.562 236.03 299.491 231.385 300.155C226.657 300.238 217.152 300.105 216.953 298.911C216.754 297.716 218.529 292.275 219.441 289.704C216.87 289.289 212.375 287.913 214.963 285.723Z" fill="#D0B8A1"/>
<path d="M68.5413 487.592V493.279L64.0824 488.541L63.9169 488.315L63.9431 488.593V492.312H64.5701V493H62.4626V492.312H63.2202V487.592H62.4626V486.904H63.4728L67.6791 491.459L67.8446 491.685L67.8185 491.406V487.592H67.1914V486.904H69.299V487.592H68.5413Z" fill="#594632"/>
<path d="M103.14 529.141H98.7772V528.453H99.2648V523.733H98.7772V523.045H103.018V524.386H102.33V523.733H99.9877V525.728H102.679V526.416H99.9877V528.453H102.452V527.8H103.14V529.141Z" fill="#594632"/>
<path d="M67.5112 565.335C67.3428 565.48 67.1483 565.593 66.9277 565.675C66.7071 565.75 66.4749 565.788 66.231 565.788C66.0104 565.788 65.7956 565.765 65.5866 565.718C65.3776 565.666 65.186 565.599 65.0118 565.518C64.8376 565.437 64.6809 565.344 64.5415 565.239C64.408 565.135 64.3035 565.024 64.228 564.908V563.898H64.916V564.673C65.067 564.789 65.2469 564.891 65.4559 564.978C65.665 565.059 65.9001 565.1 66.1614 565.1C66.3123 565.1 66.4575 565.08 66.5968 565.039C66.7361 564.993 66.861 564.929 66.9713 564.847C67.0758 564.76 67.16 564.653 67.2238 564.525C67.2877 564.397 67.3196 564.249 67.3196 564.081C67.3196 563.977 67.3109 563.872 67.2935 563.768C67.2819 563.663 67.2529 563.573 67.2064 563.498C67.1309 563.376 67.0409 563.28 66.9364 563.21C66.8377 563.135 66.7216 563.065 66.5881 563.001C66.3791 562.914 66.1526 562.839 65.9088 562.775C65.665 562.711 65.4385 562.624 65.2295 562.513C65.0147 562.403 64.8347 562.249 64.6896 562.052C64.5502 561.854 64.4777 561.576 64.4719 561.216C64.466 561.024 64.4922 560.833 64.5502 560.641C64.6083 560.449 64.7041 560.275 64.8376 560.119C64.9712 559.962 65.1482 559.834 65.3689 559.735C65.5895 559.637 65.8594 559.587 66.1788 559.587C66.2833 559.587 66.3965 559.593 66.5184 559.605C66.6403 559.616 66.7681 559.64 66.9016 559.674C67.0351 559.709 67.1716 559.761 67.3109 559.831C67.4561 559.901 67.5983 559.994 67.7376 560.11V560.963H67.0496V560.449C66.9393 560.403 66.8116 560.362 66.6665 560.328C66.5213 560.293 66.3617 560.275 66.1875 560.275C66.0133 560.275 65.8624 560.304 65.7346 560.362C65.6069 560.415 65.5024 560.487 65.4211 560.58C65.3456 560.667 65.2876 560.769 65.2469 560.885C65.2121 560.995 65.1947 561.114 65.1947 561.242C65.1947 561.416 65.2353 561.558 65.3166 561.669C65.3979 561.773 65.5053 561.863 65.6388 561.939C65.8478 562.049 66.0975 562.148 66.3878 562.235C66.6781 562.316 66.9568 562.421 67.2238 562.548C67.4677 562.664 67.6651 562.844 67.816 563.088C67.967 563.332 68.0424 563.666 68.0424 564.09C68.0424 564.351 67.9931 564.586 67.8944 564.795C67.8015 565.004 67.6738 565.184 67.5112 565.335Z" fill="#594632"/>
<path d="M28.6912 527.469C28.5403 527.8 28.3951 528.131 28.2558 528.462C28.1165 528.787 27.98 529.107 27.8465 529.42C27.4459 528.462 27.0424 527.516 26.636 526.581C26.2354 525.641 25.8348 524.691 25.4342 523.733H24.6765V523.045H26.784V523.733H26.157C26.4299 524.366 26.6969 524.999 26.9582 525.632C27.2253 526.265 27.4952 526.897 27.7681 527.53L27.8465 527.818C27.9162 527.615 28.0091 527.371 28.1252 527.086C28.2413 526.796 28.3574 526.52 28.4735 526.259C28.5838 526.003 28.6912 525.748 28.7957 525.492C28.9003 525.237 29.0048 524.984 29.1093 524.735C29.0396 524.566 28.967 524.401 28.8915 524.238C28.8219 524.07 28.7522 523.902 28.6825 523.733H27.8813V523.045H29.9888V523.733H29.4054C29.6782 524.366 29.9453 524.999 30.2066 525.632C30.4736 526.265 30.7436 526.897 31.0165 527.53L31.0949 527.818L31.1732 527.53C31.4461 526.897 31.7132 526.268 31.9744 525.641C32.2415 525.008 32.5086 524.372 32.7757 523.733H32.2183V523.045H34.3258V523.733H33.5072C33.1066 524.691 32.7031 525.641 32.2967 526.581C31.8961 527.516 31.4955 528.462 31.0949 529.42L29.5534 525.789L29.4663 525.484C29.385 525.751 29.2718 526.067 29.1267 526.433C28.9873 526.793 28.8422 527.138 28.6912 527.469Z" fill="#594632"/>
<circle cx="65.5849" cy="526.714" r="18.9729" stroke="#715941" stroke-width="1.67902"/>
<circle cx="64.7132" cy="527.149" r="14.3695" stroke="#715941" stroke-width="0.435439"/>
<path d="M65.8025 526.496V495.144L58.8354 521.053L65.8025 526.496Z" fill="#594632"/>
<path d="M65.802 526.496V495.144L72.5513 521.053L65.802 526.496Z" fill="#DAC3A1"/>
<path d="M65.8022 526.496L97.1538 526.496L71.2452 519.529L65.8022 526.496Z" fill="#594632"/>
<path d="M65.8022 526.496L97.1538 526.496L71.2452 533.245L65.8022 526.496Z" fill="#DAC3A1"/>
<path d="M65.8018 526.714L34.4502 526.714L60.3588 533.681L65.8018 526.714Z" fill="#594632"/>
<path d="M65.8018 526.714L34.4502 526.714L60.3588 519.964L65.8018 526.714Z" fill="#DAC3A1"/>
<path d="M65.5843 526.496V557.847L72.5513 531.939L65.5843 526.496Z" fill="#594632"/>
<path d="M65.5847 526.496V557.847L58.8354 531.939L65.5847 526.496Z" fill="#DAC3A1"/>
<path d="M95.9872 344.039C97.3884 342.326 107.858 338.525 112.918 336.838C121.87 339.238 141.37 343.688 147.753 342.287C154.136 340.886 167.149 338.849 172.857 338.006C177.917 342.093 188.27 350.694 189.204 352.407C190.139 354.119 189.594 359.218 189.204 361.553L194.848 364.862V372.257C201.984 377.317 216.527 387.631 217.617 388.409C218.979 389.382 221.899 398.529 220.536 399.697C219.174 400.864 211.779 400.864 209.444 400.864C207.575 400.864 196.21 408.519 190.761 412.346L194.848 416.627C194.394 418.573 193.252 422.466 192.318 422.466H169.549L143.472 430.25L106.496 434.531C102.28 433.688 93.1849 431.651 90.5382 430.25C87.2299 428.498 73.2181 430.639 70.8828 430.25C68.5475 429.861 50.6436 418.573 49.8652 416.627C49.2425 415.071 51.2923 407.805 52.3951 404.367C51.0328 403.264 48.1137 401.02 47.3353 400.864C46.5569 400.708 45.4541 396.518 45 394.442L57.2603 379.457L80.4186 368.17C79.3158 365.446 77.4606 359.568 78.8617 357.856C80.2629 356.143 89.4354 352.082 93.8465 350.266C93.9763 348.904 94.586 345.751 95.9872 344.039Z" fill="#715941" fill-opacity="0.67"/>
<path d="M95.9872 338.2C97.3884 336.488 107.858 332.687 112.918 331C121.87 333.4 141.37 337.85 147.753 336.449C154.136 335.048 167.149 333.011 172.857 332.168C177.917 336.254 188.27 344.856 189.204 346.569C190.139 348.281 189.594 353.38 189.204 355.715L194.848 359.023V366.419C201.984 371.478 216.527 381.793 217.617 382.571C218.979 383.544 221.899 392.691 220.536 393.858C219.174 395.026 211.779 395.026 209.444 395.026C207.575 395.026 196.21 402.681 190.761 406.508L194.848 410.789C194.394 412.735 193.252 416.627 192.318 416.627H169.549L143.472 424.412L106.496 428.693C102.28 427.85 93.1849 425.813 90.5382 424.412C87.2299 422.66 73.2181 424.801 70.8828 424.412C68.5475 424.023 50.6436 412.735 49.8652 410.789C49.2425 409.232 51.2923 401.967 52.3951 398.529C51.0328 397.426 48.1137 395.182 47.3353 395.026C46.5569 394.87 45.4541 390.68 45 388.604L57.2603 373.619L80.4186 362.332C79.3158 359.607 77.4606 353.73 78.8617 352.018C80.2629 350.305 89.4354 346.244 93.8465 344.428C93.9763 343.066 94.586 339.913 95.9872 338.2Z" fill="#D0B8A1"/>
<path d="M73.3359 400.511C75.4296 399.115 76.8255 399.348 77.2617 399.639C79.2973 400.511 79.1519 401.82 79.1519 402.547C79.1519 403.274 77.6979 404.873 76.6801 405.164C75.6623 405.455 70.7187 402.256 73.3359 400.511Z" fill="#B1927A"/>
<path d="M75.1355 397.442C75.6913 397.09 76.0618 397.149 76.1775 397.222C76.7178 397.442 76.6793 397.772 76.6793 397.956C76.6793 398.139 76.2933 398.543 76.0232 398.616C75.753 398.689 74.4409 397.882 75.1355 397.442Z" fill="#B1927A"/>
<path d="M77.7527 398.024C78.3085 397.672 78.679 397.73 78.7947 397.804C79.335 398.024 79.2965 398.354 79.2965 398.537C79.2965 398.721 78.9105 399.124 78.6404 399.197C78.3702 399.271 77.0581 398.464 77.7527 398.024Z" fill="#B1927A"/>
<path d="M79.7889 399.769C80.3446 399.417 80.7151 399.475 80.8309 399.549C81.3712 399.769 81.3326 400.099 81.3326 400.282C81.3326 400.466 80.9466 400.869 80.6765 400.942C80.4063 401.016 79.0942 400.209 79.7889 399.769Z" fill="#B1927A"/>
<path d="M80.0799 402.095C80.6356 401.743 81.0061 401.802 81.1219 401.875C81.6622 402.095 81.6236 402.425 81.6236 402.609C81.6236 402.792 81.2377 403.196 80.9675 403.269C80.6974 403.342 79.3852 402.535 80.0799 402.095Z" fill="#B1927A"/>
<path d="M171.029 344.464C173.123 343.068 174.519 343.301 174.955 343.591C176.991 344.464 176.845 345.772 176.845 346.499C176.845 347.226 175.391 348.826 174.373 349.117C173.356 349.407 168.412 346.209 171.029 344.464Z" fill="#B1927A"/>
<path d="M172.829 341.395C173.385 341.043 173.756 341.102 173.871 341.175C174.412 341.395 174.373 341.725 174.373 341.909C174.373 342.092 173.987 342.496 173.717 342.569C173.447 342.642 172.135 341.835 172.829 341.395Z" fill="#B1927A"/>
<path d="M175.446 341.977C176.002 341.625 176.372 341.683 176.488 341.757C177.028 341.977 176.99 342.307 176.99 342.49C176.99 342.674 176.604 343.077 176.334 343.15C176.064 343.224 174.751 342.417 175.446 341.977Z" fill="#B1927A"/>
<path d="M177.483 343.722C178.038 343.37 178.409 343.428 178.525 343.502C179.065 343.722 179.026 344.052 179.026 344.235C179.026 344.418 178.64 344.822 178.37 344.895C178.1 344.969 176.788 344.162 177.483 343.722Z" fill="#B1927A"/>
<path d="M177.773 346.048C178.329 345.696 178.699 345.755 178.815 345.828C179.356 346.048 179.317 346.378 179.317 346.562C179.317 346.745 178.931 347.149 178.661 347.222C178.391 347.295 177.079 346.488 177.773 346.048Z" fill="#B1927A"/>
<path d="M59.1469 402.068C61.2407 400.672 62.6365 400.905 63.0727 401.195C65.1083 402.068 64.963 403.376 64.963 404.103C64.963 404.83 63.5089 406.43 62.4911 406.721C61.4733 407.011 56.5297 403.813 59.1469 402.068Z" fill="#B1927A"/>
<path d="M60.9466 398.999C61.5023 398.647 61.8728 398.706 61.9886 398.779C62.5289 398.999 62.4903 399.329 62.4903 399.513C62.4903 399.696 62.1044 400.099 61.8342 400.173C61.5641 400.246 60.2519 399.439 60.9466 398.999Z" fill="#B1927A"/>
<path d="M63.5638 399.581C64.1195 399.229 64.49 399.287 64.6058 399.361C65.1461 399.581 65.1075 399.911 65.1075 400.094C65.1075 400.278 64.7216 400.681 64.4514 400.754C64.1812 400.828 62.8691 400.021 63.5638 399.581Z" fill="#B1927A"/>
<path d="M65.5999 401.326C66.1556 400.973 66.5261 401.032 66.6419 401.105C67.1822 401.326 67.1436 401.656 67.1436 401.839C67.1436 402.022 66.7577 402.426 66.4875 402.499C66.2174 402.573 64.9052 401.766 65.5999 401.326Z" fill="#B1927A"/>
<path d="M65.8909 403.652C66.4466 403.3 66.8171 403.359 66.9329 403.432C67.4732 403.652 67.4346 403.982 67.4346 404.166C67.4346 404.349 67.0487 404.752 66.7785 404.826C66.5084 404.899 65.1962 404.092 65.8909 403.652Z" fill="#B1927A"/>
<path d="M156.84 346.021C158.934 344.625 160.33 344.858 160.766 345.148C162.802 346.021 162.656 347.329 162.656 348.056C162.656 348.783 161.202 350.383 160.184 350.674C159.167 350.964 154.223 347.766 156.84 346.021Z" fill="#B1927A"/>
<path d="M158.64 342.952C159.196 342.6 159.567 342.659 159.682 342.732C160.223 342.952 160.184 343.282 160.184 343.466C160.184 343.649 159.798 344.052 159.528 344.126C159.258 344.199 157.946 343.392 158.64 342.952Z" fill="#B1927A"/>
<path d="M161.257 343.534C161.813 343.182 162.183 343.24 162.299 343.314C162.839 343.534 162.801 343.864 162.801 344.047C162.801 344.231 162.415 344.634 162.145 344.707C161.875 344.781 160.562 343.974 161.257 343.534Z" fill="#B1927A"/>
<path d="M163.294 345.279C163.849 344.926 164.22 344.985 164.336 345.058C164.876 345.279 164.837 345.609 164.837 345.792C164.837 345.975 164.452 346.379 164.181 346.452C163.911 346.525 162.599 345.719 163.294 345.279Z" fill="#B1927A"/>
<path d="M163.584 347.605C164.14 347.253 164.511 347.312 164.626 347.385C165.167 347.605 165.128 347.935 165.128 348.119C165.128 348.302 164.742 348.705 164.472 348.779C164.202 348.852 162.89 348.045 163.584 347.605Z" fill="#B1927A"/>
<path d="M66.1528 412.966C68.2465 411.57 69.6424 411.803 70.0786 412.093C72.1142 412.966 71.9688 414.274 71.9688 415.001C71.9688 415.728 70.5148 417.328 69.497 417.619C68.4792 417.909 63.5356 414.711 66.1528 412.966Z" fill="#B1927A"/>
<path d="M67.9529 409.897C68.5087 409.545 68.8792 409.604 68.9949 409.677C69.5352 409.897 69.4966 410.227 69.4966 410.411C69.4966 410.594 69.1107 410.997 68.8406 411.071C68.5704 411.144 67.2582 410.337 67.9529 409.897Z" fill="#B1927A"/>
<path d="M70.5696 410.479C71.1254 410.127 71.4959 410.185 71.6116 410.259C72.1519 410.479 72.1133 410.809 72.1133 410.992C72.1133 411.176 71.7274 411.579 71.4573 411.652C71.1871 411.726 69.8749 410.919 70.5696 410.479Z" fill="#B1927A"/>
<path d="M72.6062 412.224C73.162 411.871 73.5325 411.93 73.6483 412.004C74.1886 412.224 74.15 412.554 74.15 412.737C74.15 412.92 73.764 413.324 73.4939 413.397C73.2237 413.471 71.9116 412.664 72.6062 412.224Z" fill="#B1927A"/>
<path d="M72.8968 414.55C73.4525 414.198 73.823 414.257 73.9388 414.33C74.4791 414.55 74.4405 414.88 74.4405 415.064C74.4405 415.247 74.0546 415.65 73.7844 415.724C73.5143 415.797 72.2021 414.99 72.8968 414.55Z" fill="#B1927A"/>
<path d="M163.846 356.919C165.939 355.523 167.335 355.756 167.771 356.046C169.807 356.919 169.662 358.227 169.662 358.954C169.662 359.681 168.208 361.281 167.19 361.572C166.172 361.862 161.228 358.664 163.846 356.919Z" fill="#B1927A"/>
<path d="M165.645 353.85C166.201 353.498 166.572 353.557 166.687 353.63C167.228 353.85 167.189 354.18 167.189 354.364C167.189 354.547 166.803 354.95 166.533 355.024C166.263 355.097 164.951 354.29 165.645 353.85Z" fill="#B1927A"/>
<path d="M168.262 354.432C168.818 354.08 169.189 354.138 169.305 354.212C169.845 354.432 169.806 354.762 169.806 354.945C169.806 355.129 169.42 355.532 169.15 355.605C168.88 355.679 167.568 354.872 168.262 354.432Z" fill="#B1927A"/>
<path d="M170.299 356.177C170.854 355.824 171.225 355.883 171.341 355.956C171.881 356.177 171.842 356.507 171.842 356.69C171.842 356.873 171.456 357.277 171.186 357.35C170.916 357.424 169.604 356.617 170.299 356.177Z" fill="#B1927A"/>
<path d="M170.59 358.503C171.145 358.151 171.516 358.21 171.632 358.283C172.172 358.503 172.133 358.833 172.133 359.017C172.133 359.2 171.747 359.603 171.477 359.677C171.207 359.75 169.895 358.943 170.59 358.503Z" fill="#B1927A"/>
<path d="M152.174 235.661C153.731 233.17 158.401 225.541 160.542 222.038L162.877 211.919C166.186 210.167 172.647 206.431 172.024 205.497C171.245 204.329 174.748 191.874 174.943 190.707C175.099 189.772 178.511 188.76 180.197 188.371C182.143 186.814 186.347 183.428 187.592 182.338C189.149 180.976 190.122 179.419 194.598 179.225C199.074 179.03 207.637 175.332 209.194 175.332C210.751 175.332 216.589 171.051 218.146 171.246C219.391 171.401 222.946 172.867 224.568 173.581C230.212 173.97 241.616 174.865 242.083 175.332C242.55 175.8 244.353 179.549 245.196 181.365L253.37 183.701C259.014 187.139 270.301 194.287 270.301 195.377C270.301 196.739 269.328 203.745 269.328 204.718C269.328 205.691 272.441 210.362 272.247 211.919C272.052 213.476 269.133 227.098 269.328 227.877C269.522 228.655 280.226 232.353 281.977 234.299C283.729 236.245 286.064 249.867 283.729 248.116C281.86 246.715 277.761 246.364 275.944 246.364C275.633 247.765 272.831 250.84 271.468 252.203L265.046 251.619C263.879 251.619 261.738 257.652 259.403 257.652C257.067 257.652 254.343 258.235 250.84 257.652C247.337 257.068 239.358 254.732 237.801 254.732C236.244 254.732 227.876 254.538 226.903 254.732C226.125 254.888 225.022 259.598 224.568 261.933C221.649 262.517 215.421 263.645 213.865 263.49C212.308 263.334 203.615 260.96 199.464 259.792C193.69 260.181 181.754 260.726 180.197 259.792C178.251 258.625 174.748 252.981 172.802 251.619C171.245 250.529 166.705 248.829 164.629 248.116C161.671 249.05 158.596 249.673 157.428 249.867C154.315 248.894 154.898 242.861 153.925 241.305C153.147 240.059 152.433 237.023 152.174 235.661Z" fill="#715941" fill-opacity="0.67"/>
<path d="M152.174 230.601C153.731 228.11 158.401 220.481 160.542 216.979L162.877 206.859C166.186 205.107 172.647 201.371 172.024 200.437C171.245 199.269 174.748 186.814 174.943 185.647C175.099 184.713 178.511 183.701 180.197 183.311C182.143 181.755 186.347 178.368 187.592 177.279C189.149 175.916 190.122 174.359 194.598 174.165C199.074 173.97 207.637 170.273 209.194 170.273C210.751 170.273 216.589 165.991 218.146 166.186C219.391 166.342 222.946 167.808 224.568 168.521C230.212 168.91 241.616 169.806 242.083 170.273C242.55 170.74 244.353 174.489 245.196 176.305L253.37 178.641C259.014 182.079 270.301 189.227 270.301 190.317C270.301 191.68 269.328 198.685 269.328 199.658C269.328 200.631 272.441 205.302 272.247 206.859C272.052 208.416 269.133 222.038 269.328 222.817C269.522 223.595 280.226 227.293 281.977 229.239C283.729 231.185 286.064 244.807 283.729 243.056C281.86 241.655 277.761 241.305 275.944 241.305C275.633 242.706 272.831 245.78 271.468 247.143L265.046 246.559C263.879 246.559 261.738 252.592 259.403 252.592C257.067 252.592 254.343 253.176 250.84 252.592C247.337 252.008 239.358 249.673 237.801 249.673C236.244 249.673 227.876 249.478 226.903 249.673C226.125 249.828 225.022 254.538 224.568 256.873C221.649 257.457 215.421 258.586 213.865 258.43C212.308 258.274 203.615 255.9 199.464 254.732C193.69 255.122 181.754 255.667 180.197 254.732C178.251 253.565 174.748 247.921 172.802 246.559C171.245 245.469 166.705 243.77 164.629 243.056C161.671 243.99 158.596 244.613 157.428 244.807C154.315 243.834 154.898 237.802 153.925 236.245C153.147 234.999 152.433 231.963 152.174 230.601Z" fill="#D0B8A1"/>
<path d="M242.858 165.373C244.868 170.304 245.264 183.574 245.38 189.375L249.097 189.316C247.545 175.233 248.459 167.372 249.11 165.202L242.858 165.373Z" fill="#B69175"/>
<path d="M234.282 152.526C242.012 152.526 244.865 156.03 245.842 158.461C248.327 152.554 255.044 151.478 257.575 151C254.4 152.085 252.801 155.522 252.399 157.104C256.126 156.697 258.898 158.743 259.818 159.817C257.057 159.274 252.686 160.043 250.846 160.495C256.505 161.038 260.336 164.565 261.543 166.26C259.749 164.768 254.239 164.621 251.709 164.734C254.055 165.955 255.102 167.504 255.332 168.125C252.985 166.769 248.718 167.221 246.878 167.617C244.669 166.667 238.826 167.56 236.18 168.125C237.146 167.176 240.033 165.469 241.356 164.734C238.596 163.513 231.349 165.243 228.071 166.26C230.831 162.055 236.238 160.665 238.596 160.495C236.387 158.596 231.464 158.348 229.279 158.461C233.005 156.426 237.733 157.048 239.631 157.613C237.56 154.493 235.202 152.922 234.282 152.526Z" fill="#594632"/>
<ellipse cx="242.472" cy="167.542" rx="2.72451" ry="3.30833" transform="rotate(4.14281 242.472 167.542)" fill="#DDB88C"/>
<ellipse cx="246.17" cy="168.32" rx="3.30833" ry="4.08676" fill="#BF9769"/>
<ellipse cx="249.85" cy="167.355" rx="2.72451" ry="3.30833" transform="rotate(-14.9691 249.85 167.355)" fill="#DDB88C"/>
<path d="M255.359 172.408C256.751 177.548 255.521 190.766 254.927 196.538L258.624 196.934C258.805 182.767 260.674 175.077 261.586 173.003L255.359 172.408Z" fill="#B69175"/>
<path d="M271.629 161.652C263.943 160.828 260.733 164.008 259.502 166.32C257.662 160.182 251.097 158.396 248.632 157.651C251.673 159.068 252.896 162.656 253.128 164.272C249.465 163.47 246.491 165.209 245.461 166.179C248.264 165.933 252.528 167.164 254.31 167.81C248.625 167.746 244.441 170.844 243.059 172.401C245.002 171.109 250.496 171.55 253 171.932C250.537 172.896 249.331 174.324 249.036 174.918C251.514 173.819 255.709 174.724 257.496 175.314C259.794 174.605 265.508 176.116 268.079 176.96C267.219 175.913 264.531 173.908 263.294 173.036C266.169 172.117 273.19 174.609 276.341 175.97C274.044 171.495 268.817 169.536 266.49 169.116C268.889 167.463 273.81 167.741 275.971 168.086C272.483 165.666 267.716 165.78 265.768 166.139C268.16 163.258 270.672 161.947 271.629 161.652Z" fill="#715941"/>
<ellipse cx="256.325" cy="175.326" rx="2.72451" ry="3.30833" transform="rotate(4.14281 256.325 175.326)" fill="#DDB88C"/>
<ellipse cx="260.359" cy="175.139" rx="2.72451" ry="3.30833" transform="rotate(-14.9691 260.359 175.139)" fill="#BF9769"/>
<path d="M166.609 213.275C165.217 218.415 166.447 231.634 167.041 237.406L163.345 237.802C163.164 223.635 161.295 215.944 160.383 213.87L166.609 213.275Z" fill="#B69175"/>
<path d="M150.339 202.519C158.024 201.695 161.234 204.875 162.466 207.187C164.306 201.049 170.871 199.263 173.336 198.518C170.295 199.936 169.072 203.523 168.84 205.139C172.502 204.337 175.477 206.076 176.506 207.046C173.704 206.801 169.439 208.031 167.658 208.677C173.343 208.613 177.527 211.711 178.909 213.268C176.966 211.976 171.472 212.418 168.967 212.8C171.431 213.763 172.637 215.192 172.932 215.785C170.454 214.687 166.259 215.591 164.471 216.181C162.174 215.472 156.459 216.983 153.889 217.827C154.749 216.78 157.437 214.775 158.674 213.904C155.799 212.984 148.778 215.476 145.627 216.837C147.924 212.362 153.151 210.403 155.477 209.983C153.079 208.33 148.157 208.608 145.996 208.953C149.485 206.533 154.252 206.647 156.199 207.007C153.808 204.125 151.296 202.814 150.339 202.519Z" fill="#715941"/>
<ellipse cx="2.72451" cy="3.30833" rx="2.72451" ry="3.30833" transform="matrix(-0.997387 0.0722427 0.0722427 0.997387 168.121 212.697)" fill="#DDB88C"/>
<ellipse cx="2.72451" cy="3.30833" rx="2.72451" ry="3.30833" transform="matrix(-0.966065 -0.258298 -0.258298 0.966065 165.096 213.514)" fill="#BF9769"/>
<path d="M254.149 195.371C253.059 195.215 252.786 196.344 252.786 196.928C252.202 198.325 258.235 197.901 259.208 198.095C260.181 198.29 259.792 197.706 259.987 196.538C260.181 195.371 259.403 195.954 258.235 195.371C257.068 194.787 256.873 196.538 256.484 195.954C256.095 195.371 255.511 195.565 254.149 195.371Z" fill="#C5AD96"/>
<path d="M162.917 236.359C161.827 236.204 161.554 237.332 161.554 237.916C160.971 239.313 167.003 238.889 167.976 239.084C168.949 239.278 168.56 238.694 168.755 237.527C168.949 236.359 168.171 236.943 167.003 236.359C165.836 235.775 165.641 237.527 165.252 236.943C164.863 236.359 164.279 236.554 162.917 236.359Z" fill="#C5AD96"/>
<path d="M244.652 187.707C243.562 187.552 243.29 188.68 243.29 189.264C242.706 190.661 248.739 190.237 249.712 190.432C250.685 190.626 250.296 190.043 250.49 188.875C250.685 187.707 249.906 188.291 248.739 187.707C247.571 187.123 247.376 188.875 246.987 188.291C246.598 187.707 246.014 187.902 244.652 187.707Z" fill="#C5AD96"/>
<path d="M252.631 415.179L261.194 406.617L265.086 409.925L274.816 416.736L280.654 424.521L282.406 439.116C288.244 442.165 299.921 448.613 299.921 450.014C299.921 451.415 297.585 455.528 296.418 457.409L299.921 468.891L308.678 472.005C308.483 478.103 307.9 490.843 307.121 493.022C306.343 495.202 299.661 498.731 296.418 500.223C299.402 501.196 305.37 503.453 305.37 504.699C305.37 505.944 302.515 510.537 301.088 512.678L303.034 515.597V532.722L293.109 542.258L258.08 546.734L259.637 551.794L249.128 554.129C243.095 553.156 230.796 550.938 229.862 549.848C228.928 548.758 221.948 539.145 218.575 534.474C209.856 532.139 199.892 526.884 196 524.549L212.152 503.142C208.585 500.482 201.527 494.735 201.838 493.022C202.15 491.31 213.125 480.114 218.575 474.729L220.91 464.221L231.029 459.355L233.559 452.155L239.981 431.721L244.847 429.775L252.631 415.179Z" fill="#715941" fill-opacity="0.67"/>
<path d="M252.631 408.563L261.194 400L265.086 403.308L274.816 410.12L280.654 417.904L282.406 432.499C288.244 435.548 299.921 441.996 299.921 443.398C299.921 444.799 297.585 448.911 296.418 450.793L299.921 462.274L308.678 465.388C308.483 471.486 307.9 484.226 307.121 486.406C306.343 488.585 299.661 492.114 296.418 493.606C299.402 494.579 305.37 496.837 305.37 498.082C305.37 499.328 302.515 503.921 301.088 506.061L303.034 508.98V526.106L293.109 535.642L258.08 540.118L259.637 545.177L249.128 547.513C243.095 546.54 230.796 544.321 229.862 543.231C228.928 542.142 221.948 532.528 218.575 527.857C209.856 525.522 199.892 520.268 196 517.932L212.152 496.525C208.585 493.866 201.527 488.118 201.838 486.406C202.15 484.693 213.125 473.497 218.575 468.113L220.91 457.604L231.029 452.739L233.559 445.538L239.981 425.104L244.847 423.158L252.631 408.563Z" fill="#D0B8A1"/>
<path d="M223 523.467C229.383 512.569 240.839 505.563 245.769 503.422C246.774 502.955 247.745 502.968 248.104 503.033L247.715 503.227C249.791 503.746 252.503 505.68 246.742 509.26C240.982 512.841 230.849 522.688 226.503 527.164L227.281 525.802L224.946 527.553L227.281 524.829C227 525.11 226.211 525.493 225.868 525.684C225.805 525.758 225.755 525.802 225.725 525.802C225.671 525.802 225.736 525.757 225.868 525.684C226.132 525.373 226.63 524.522 226.892 524.051L223.778 527.164L225.725 524.245L223.973 525.997C224.492 525.153 225.491 523.467 225.335 523.467C225.18 523.467 224.622 523.986 224.362 524.245L224.751 522.883C224.596 523.039 223.519 524.894 223 525.802C223.311 525.024 224.297 522.623 224.751 521.521C224.284 521.832 223.389 522.948 223 523.467Z" fill="#AA4245"/>
<path d="M251.997 524.194C245.971 514.285 233.605 506.646 228.176 504.065C227.073 503.515 226.081 503.148 225.723 503.033L225.899 503.377C225.023 502.861 218.933 505.092 228.176 510.087C235.65 514.126 245.75 522.302 249.545 526.775C249.405 526.087 249.603 524.08 249.72 523.162L250.596 524.194L250.07 522.818L251.121 523.85C250.829 523.334 250.315 522.371 250.596 522.646C250.876 522.921 251.647 523.793 251.997 524.194Z" fill="#AA4245"/>
<path d="M277.742 524.937L261.395 520.266L262.563 527.077L279.494 531.943L277.742 524.937Z" fill="#715941"/>
<path d="M277.742 524.937L261.395 520.266L270.347 516.569L286.499 520.85L277.742 524.937Z" fill="#473828"/>
<path d="M281.44 512.871L266.26 508.979L270.347 516.569L286.499 520.85L281.44 512.871Z" fill="#594632"/>
<path d="M281.44 512.871L288.446 510.536L292.727 517.931L286.5 520.85L281.44 512.871Z" fill="#92775C"/>
<path d="M281.44 512.871L266.26 508.979L274.239 506.838L288.446 510.536L281.44 512.871Z" fill="#715941"/>
<path d="M277.743 524.937L279.494 531.943L286.5 529.024V520.85L277.743 524.937Z" fill="#92775C"/>
<g filter="url(#filter0_f_6077_1053)">
<path d="M261.59 521.045L254 507.811L267.233 501L290.781 506.838L286.694 521.628L277.937 525.715L261.59 521.045Z" fill="#F1DEBA" fill-opacity="0.5"/>
</g>
<path d="M261.396 517.542C260.773 518.476 261.266 519.747 261.59 520.266L277.743 524.937L285.138 521.628L285.332 521.045C285.397 520.85 285.488 520.422 285.332 520.266C285.138 520.072 285.332 519.682 285.138 519.293C284.943 518.904 284.359 518.709 284.165 518.125C283.97 517.542 282.802 516.958 282.219 516.569C281.635 516.179 280.856 515.985 280.662 515.596C280.467 515.206 278.521 515.401 278.132 515.206C277.743 515.012 276.77 515.012 275.797 514.428C274.824 513.844 274.824 514.233 274.045 513.649C273.267 513.066 271.904 513.649 270.931 513.455C269.958 513.26 269.375 513.649 268.402 513.649C267.428 513.649 266.65 513.844 265.872 514.428C265.093 515.012 265.288 514.817 263.731 515.206C262.174 515.596 262.174 516.374 261.396 517.542Z" fill="#E4D292"/>
<path d="M263.979 518.764C263.461 519.519 263.871 520.547 264.141 520.966L277.582 524.742L283.736 522.068L283.898 521.596C283.952 521.438 284.028 521.092 283.898 520.966C283.736 520.809 283.898 520.494 283.736 520.18C283.574 519.865 283.088 519.708 282.926 519.236C282.765 518.764 281.793 518.292 281.307 517.977C280.821 517.662 280.173 517.505 280.012 517.19C279.85 516.876 278.23 517.033 277.906 516.876C277.582 516.718 276.773 516.718 275.963 516.246C275.153 515.774 275.153 516.089 274.505 515.617C273.858 515.145 272.724 515.617 271.914 515.46C271.105 515.302 270.619 515.617 269.809 515.617C268.999 515.617 268.352 515.774 267.704 516.246C267.056 516.718 267.218 516.561 265.923 516.876C264.627 517.19 264.627 517.82 263.979 518.764Z" fill="#D5C282"/>
<path d="M262.009 518.234C261.541 518.958 261.912 519.943 262.156 520.345L274.305 523.964L279.867 521.401L280.013 520.948C280.062 520.797 280.13 520.466 280.013 520.345C279.867 520.194 280.013 519.893 279.867 519.591C279.72 519.29 279.281 519.139 279.135 518.687C278.989 518.234 278.11 517.782 277.671 517.48C277.232 517.179 276.647 517.028 276.5 516.727C276.354 516.425 274.89 516.576 274.597 516.425C274.305 516.274 273.573 516.274 272.841 515.822C272.109 515.37 272.109 515.671 271.524 515.219C270.938 514.767 269.914 515.219 269.182 515.068C268.45 514.917 268.011 515.219 267.279 515.219C266.547 515.219 265.962 515.37 265.376 515.822C264.791 516.274 264.937 516.124 263.766 516.425C262.595 516.727 262.595 517.33 262.009 518.234Z" fill="#F2DF9A"/>
<path d="M268.953 520.897C268.614 521.432 268.883 522.16 269.059 522.457L277.848 525.131L281.871 523.237L281.977 522.903C282.012 522.791 282.062 522.546 281.977 522.457C281.871 522.345 281.977 522.122 281.871 521.9C281.765 521.677 281.448 521.565 281.342 521.231C281.236 520.897 280.601 520.562 280.283 520.339C279.965 520.117 279.542 520.005 279.436 519.782C279.33 519.559 278.271 519.671 278.059 519.559C277.848 519.448 277.318 519.448 276.789 519.114C276.259 518.779 276.259 519.002 275.836 518.668C275.412 518.333 274.671 518.668 274.142 518.556C273.612 518.445 273.294 518.668 272.765 518.668C272.236 518.668 271.812 518.779 271.389 519.114C270.965 519.448 271.071 519.336 270.224 519.559C269.377 519.782 269.377 520.228 268.953 520.897Z" fill="#E4D292"/>
<path d="M252.208 430.594C252.364 430.906 252.792 430.854 252.987 430.789C257.982 430.789 268.088 430.945 268.555 430.789C269.139 430.594 262.133 415.415 261.355 414.442C260.576 413.469 252.014 430.205 252.208 430.594Z" fill="#B1927A"/>
<path d="M259.795 418.098L258.433 418.293C260.574 414.79 261.158 414.401 261.352 414.401C261.508 414.401 262.714 416.866 263.298 418.098L262.909 419.072L261.547 418.098L260.768 418.682L259.795 418.098Z" fill="#E9D4C4"/>
<path d="M227.298 468.271C227.404 468.483 227.697 468.448 227.83 468.404C231.24 468.404 238.14 468.51 238.459 468.404C238.858 468.271 234.075 457.907 233.543 457.243C233.012 456.578 227.165 468.005 227.298 468.271Z" fill="#B1927A"/>
<path d="M232.478 459.739L231.548 459.872C233.009 457.48 233.408 457.215 233.541 457.215C233.647 457.215 234.471 458.898 234.87 459.739L234.604 460.404L233.674 459.739L233.142 460.138L232.478 459.739Z" fill="#E9D4C4"/>
<path d="M258.436 431.824C258.592 432.062 259.02 432.022 259.215 431.973C264.21 431.973 274.316 432.092 274.783 431.973C275.367 431.824 268.361 420.235 267.583 419.492C266.805 418.749 258.242 431.527 258.436 431.824Z" fill="#C29F83"/>
<path d="M266.023 422.284L264.661 422.432C266.801 419.758 267.385 419.461 267.58 419.461C267.735 419.461 268.942 421.343 269.526 422.284L269.137 423.027L267.774 422.284L266.996 422.73L266.023 422.284Z" fill="#E9D4C4"/>
<path d="M223.406 469.642C223.512 469.804 223.805 469.777 223.938 469.743C227.348 469.743 234.248 469.825 234.567 469.743C234.966 469.642 230.182 461.729 229.651 461.222C229.119 460.715 223.273 469.439 223.406 469.642Z" fill="#C29F83"/>
<path d="M228.586 463.128L227.656 463.23C229.117 461.404 229.516 461.201 229.649 461.201C229.755 461.201 230.579 462.486 230.978 463.128L230.712 463.635L229.782 463.128L229.25 463.433L228.586 463.128Z" fill="#E9D4C4"/>
<path d="M290.296 430.531L290.327 434.015" stroke="#B1927A" stroke-width="0.182309"/>
<path d="M296.465 430.532L296.465 434.094" stroke="#B1927A" stroke-width="0.182309"/>
<path d="M295.253 430.391L295.252 434.218" stroke="#7F7F7F" stroke-width="0.182309"/>
<path d="M293.548 430.318L293.549 433.787" stroke="#7F7F7F" stroke-width="0.182309"/>
<path d="M291.969 430.369L291.968 434.208" stroke="#7F7F7F" stroke-width="0.182309"/>
<path d="M290.235 430.683C292.777 430.398 294.134 430.428 296.495 430.683" stroke="#B1927A" stroke-width="0.182309"/>
<path d="M290.296 433.114C292.766 432.881 294.111 432.856 296.434 433.114" stroke="#B1927A" stroke-width="0.182309"/>
<path d="M290.296 432.602C292.82 432.288 294.167 432.29 296.434 432.602" stroke="#B1927A" stroke-width="0.182309"/>
<path d="M290.114 433.858C292.816 434.15 294.286 434.191 296.616 433.895" stroke="#B1927A" stroke-width="0.486158"/>
<g filter="url(#filter1_f_6077_1053)">
<circle cx="293.365" cy="430.956" r="1.73194" fill="#E3C525"/>
</g>
<g filter="url(#filter2_f_6077_1053)">
<circle cx="293.427" cy="430.47" r="2.46117" fill="#D8C76B"/>
</g>
<circle cx="293.396" cy="431.169" r="1.15462" fill="#E3C525"/>
<circle cx="293.396" cy="431.23" r="0.911546" fill="#FFE55C"/>
<circle cx="293.427" cy="431.199" r="0.638082" fill="#FFF3B3"/>
<rect x="291.329" y="428.738" width="4.19311" height="3.70695" fill="#D9D9D9" fill-opacity="0.6"/>
<path d="M291.208 435.423V432.02H295.704V435.423H291.208Z" fill="#715941"/>
<line x1="291.329" y1="432.02" x2="291.329" y2="428.981" stroke="#715941" stroke-width="0.243079"/>
<line x1="292.606" y1="432.02" x2="292.605" y2="428.981" stroke="#715941" stroke-width="0.243079"/>
<line x1="294.064" y1="432.02" x2="294.064" y2="428.981" stroke="#715941" stroke-width="0.243079"/>
<line x1="295.584" y1="432.02" x2="295.584" y2="428.981" stroke="#715941" stroke-width="0.243079"/>
<path d="M291.086 429.03V428.434H295.826V429.03C294.512 429.382 292.119 429.177 291.086 429.03Z" fill="#715941"/>
<path d="M293.059 425.466L293.567 424.91L294.044 425.466L293.821 426.178V426.58L295.886 428.466C294.59 428.739 292.105 428.58 291.025 428.466L293.281 426.58V426.178L293.059 425.466Z" fill="#715941"/>
<path d="M290.296 430.592L290.296 434.037" stroke="#C2A28A" stroke-width="0.182309"/>
<path d="M296.464 430.561L296.464 434.094" stroke="#C2A28A" stroke-width="0.182309"/>
<path d="M295.251 430.683L295.251 434.218" stroke="#C2A28A" stroke-width="0.182309"/>
<path d="M293.548 430.744L293.548 434.301" stroke="#C2A28A" stroke-width="0.182309"/>
<path d="M291.969 430.696L291.967 434.208" stroke="#C2A28A" stroke-width="0.182309"/>
<path d="M290.235 430.718C292.846 430.961 294.221 430.981 296.495 430.718" stroke="#C2A28A" stroke-width="0.182309"/>
<path d="M290.296 433.114C292.823 433.392 294.17 433.393 296.434 433.114" stroke="#C2A28A" stroke-width="0.182309"/>
<path d="M290.296 432.602C292.806 432.907 294.153 432.909 296.434 432.602" stroke="#C2A28A" stroke-width="0.182309"/>
<path d="M290.114 433.858C292.393 434.208 294.884 434.208 296.616 433.895" stroke="#C2A28A" stroke-width="0.486158"/>
<path d="M297.771 435.301H289.081V435.909H289.909H296.888H297.771V435.301Z" fill="#594632"/>
<path d="M289.628 436.638V435.909H297.34V436.638H289.628Z" fill="#634E38"/>
<path d="M290.661 437.58L290.054 436.638H297.042L296.404 437.58L302.025 469.697H285.678L290.661 437.58Z" fill="#B1927A"/>
<path d="M290.661 437.58L290.054 436.638H292.333L292.484 437.58L290.813 469.697H285.678L290.661 437.58Z" fill="#A68B75"/>
<path d="M294.763 437.58L294.794 436.638H297.021L296.38 437.58L302.025 469.758L297.418 469.697L294.763 437.58Z" fill="#C2A28A"/>
<mask id="mask0_6077_1053" style="mask-type:alpha" maskUnits="userSpaceOnUse" x="290" y="436" width="8" height="2">
<path d="M290.661 437.58L290.053 436.638H297.042L296.404 437.58H290.661Z" fill="#C64545"/>
</mask>
<g mask="url(#mask0_6077_1053)">
<path d="M290.661 437.58L290.053 436.638H297.042L296.404 437.58H290.661Z" fill="#7A6147"/>
<path d="M290.66 437.58L290.053 436.638H292.332L292.483 437.58L290.812 469.697H285.677L290.66 437.58Z" fill="#655444"/>
<path d="M294.823 437.793V436.638H297.041L296.403 437.58L302.024 469.697H297.406L294.823 437.793Z" fill="#896E5A"/>
</g>
<mask id="mask1_6077_1053" style="mask-type:alpha" maskUnits="userSpaceOnUse" x="287" y="453" width="14" height="10">
<path d="M291.4 455.416L287.837 455.842L287.015 461.159L291.157 462.131H296.791L300.536 461.159L299.166 453.32L296.191 454.808L291.4 455.416Z" fill="#C64545"/>
</mask>
<g mask="url(#mask1_6077_1053)">
<path d="M291.4 455.416L287.837 455.842L287.015 461.159L291.157 462.131H296.791L300.536 461.159L299.166 453.32L296.182 454.596L291.4 455.416Z" fill="#715941"/>
<path d="M290.661 437.58L290.054 436.638H292.333L292.484 437.58L290.813 469.697H285.678L290.661 437.58Z" fill="#604D3A"/>
<path d="M294.794 437.793V436.638H297.012L296.374 437.58L301.995 469.697H297.418L294.794 437.793Z" fill="#7A6351"/>
</g>
<mask id="mask2_6077_1053" style="mask-type:alpha" maskUnits="userSpaceOnUse" x="289" y="437" width="9" height="9">
<path d="M291.938 445.298L289.507 444.964L290.661 437.55H296.404L297.711 445.025L295.401 445.298H291.938Z" fill="#C64545"/>
</mask>
<g mask="url(#mask2_6077_1053)">
<path d="M291.938 445.298L289.507 444.964L290.661 437.55H296.404L297.711 445.025L295.432 445.298H291.938Z" fill="#715941"/>
<path d="M290.661 437.55L290.054 436.608H292.333L292.484 437.55L290.813 469.667H285.678L290.661 437.55Z" fill="#604D3A"/>
<path d="M294.794 437.763L294.824 436.608H297.042L296.404 437.55L302.026 469.667L297.377 469.697L294.794 437.763Z" fill="#7A6351"/>
</g>
<path d="M284.522 468.344C283.583 468.639 283.526 469.754 283.514 470.468C283.682 472.028 303.74 471.391 303.935 471.394C304.129 471.397 304.33 471.012 304.334 470.817C304.337 470.622 304.152 470.035 304.159 469.646C304.165 469.257 303.974 469.059 303.783 468.861C303.591 468.664 302.81 468.845 302.427 468.449C302.044 468.054 301.658 467.853 301.273 467.651C300.887 467.45 300.105 467.632 299.33 467.424C298.555 467.217 297.747 468.955 297.559 468.562C297.371 468.17 296.2 468.345 296.012 467.953C295.824 467.56 294.258 468.118 294.264 467.729C294.271 467.339 293.885 467.138 293.499 466.937L293.499 466.937C293.113 466.736 292.526 466.921 292.335 466.723C292.144 466.525 291.145 468.066 290.953 467.868C290.762 467.67 289.99 467.268 289.406 467.258C288.823 467.248 288.622 467.634 288.038 467.624C287.454 467.614 287.636 468.396 286.864 467.994C286.092 467.592 285.696 467.974 284.522 468.344Z" fill="#9A8472"/>
<path fill-rule="evenodd" clip-rule="evenodd" d="M75.7876 301.04C76.0311 301.79 76.1699 303.656 74.777 305.119C74.1742 305.752 74.5606 305.659 75.2734 305.148C77.5052 303.075 78.577 301.816 78.3395 299.847C77.4665 299.806 76.5301 300.196 75.7876 301.04Z" fill="#594632"/>
<path d="M75.2734 305.148C76.6197 304.184 79.13 301.727 78.3395 299.847C78.577 301.816 77.5052 303.075 75.2734 305.148Z" fill="#C2A28A"/>
<path d="M73.7519 303.814C79.4394 301.741 81.6135 300.532 83.5267 299.48C85.1694 298.577 85.4399 297.915 85.3529 297.306C84.3094 297.77 83.6137 297.915 82.744 298.089C82.4979 298.138 81.9776 298.116 81.4848 298.096C81.0733 298.079 80.6808 298.062 80.483 298.089C79.0916 299.73 76.5109 301.931 71.0222 303.941C65.989 305.784 60.9967 307.611 60.3529 309.246C61.8014 307.315 70.0017 305.181 73.7519 303.814Z" fill="#CBB7A7"/>
<path d="M71.5257 295.48C70.2213 295.828 69.0038 296.288 66.992 297.537C65.9778 298.167 62.9097 300.831 60.1335 303.664C66.3143 298.377 69.6995 296.784 71.7866 295.915C72.5799 295.617 73.0057 295.405 73.4669 295.174C73.8147 295 74.1826 294.817 74.7434 294.579C73.4553 294.905 72.2915 295.177 71.5257 295.48Z" fill="#C2A28A"/>
<path fill-rule="evenodd" clip-rule="evenodd" d="M81.3567 295.968C79.1385 294.037 76.7298 294.077 74.7434 294.579C74.1826 294.817 73.8147 295 73.4669 295.174C73.0057 295.405 72.5799 295.617 71.7866 295.915C69.6995 296.784 66.3143 298.377 60.1335 303.664C58.1805 305.657 56.3719 307.734 55.5244 309.246H60.3529C60.9967 307.611 65.989 305.784 71.0222 303.941C76.5109 301.931 79.0916 299.73 80.483 298.089C80.6808 298.062 81.0733 298.079 81.4848 298.096C81.9776 298.116 82.4979 298.138 82.744 298.089C83.6137 297.915 84.3094 297.77 85.3529 297.306C85.266 296.697 83.5267 295.968 81.3567 295.968Z" fill="#B1927A"/>
<path d="M64.8192 292.588C66.654 294.037 67.0323 296.491 66.992 297.537C69.0038 296.288 70.2213 295.828 71.5257 295.48C70.0772 292.1 62.5257 290.778 64.8192 292.588Z" fill="#594632"/>
<circle cx="80.4822" cy="298.002" r="0.434818" fill="#36291C"/>
<path d="M80.8078 297.994C80.7719 298.026 80.6591 297.957 80.6272 297.922C80.5952 297.886 80.5984 297.831 80.6343 297.799C80.6701 297.767 80.7251 297.77 80.7571 297.806C80.789 297.842 80.8437 297.962 80.8078 297.994Z" fill="white"/>
<path fill-rule="evenodd" clip-rule="evenodd" d="M71.2656 303.823C71.5091 304.573 71.6479 306.439 70.255 307.902C69.6522 308.534 70.0387 308.442 70.7515 307.931C72.9832 305.858 74.0551 304.598 73.8175 302.63C72.9445 302.589 72.0081 302.979 71.2656 303.823Z" fill="#594632"/>
<path d="M70.7515 307.931C72.0977 306.967 74.608 304.51 73.8175 302.63C74.0551 304.598 72.9832 305.858 70.7515 307.931Z" fill="#C2A28A"/>
<path d="M52.0281 323.402C53.2329 322.404 56.6147 319.438 60.5033 315.549C61.9379 314.115 63.6373 312.175 63.525 311.65C62.6076 312.52 60.6695 313.792 59.2637 313.916C54.9662 316.879 53.1918 319.128 50.0456 323.156C50.8292 323.232 51.5133 323.321 52.0281 323.402Z" fill="#CBB7A7"/>
<path d="M43.6103 320.525L42.4798 323.402C43.1582 323.221 43.3921 323.105 44.219 323.037C45.4109 318.6 48.8281 314.213 50.5674 312.309C48.5727 313.453 46.3062 315.394 45.3496 316.786C45.1756 317.047 44.7408 318.003 44.393 318.699C44.1571 319.171 43.9009 319.871 43.6103 320.525Z" fill="#C2A28A"/>
<path fill-rule="evenodd" clip-rule="evenodd" d="M60.0136 311.65C56.7678 309.853 53.3367 310.721 50.5674 312.309C48.8281 314.213 45.4109 318.6 44.219 323.037C46.1521 322.88 48.3357 322.989 50.0456 323.156C53.1918 319.128 54.9662 316.879 59.2637 313.916C60.6695 313.792 62.6076 312.52 63.525 311.65C63.3328 310.75 61.377 311.309 60.0136 311.65Z" fill="#B1927A"/>
<path d="M37.8197 320.909C40.5118 319.912 42.7378 320.193 43.6103 320.525C43.9009 319.871 44.1571 319.171 44.393 318.699C44.7408 318.003 45.1756 317.047 45.3496 316.786C40.1149 316.537 34.4545 322.155 37.8197 320.909Z" fill="#594632"/>
<path d="M52.1812 326.931C52.5774 324.285 51.5278 322.512 50.9535 321.956L53.2983 319.095C56.86 322.785 51.6859 330.238 52.1812 326.931Z" fill="#594632"/>
<circle cx="59.1763" cy="313.742" r="0.548853" transform="rotate(-18.705 59.1763 313.742)" fill="#36291C"/>
<path d="M59.5622 313.601C59.5322 313.654 59.3698 313.618 59.317 313.588C59.2643 313.558 59.2459 313.491 59.2758 313.438C59.3058 313.385 59.3728 313.367 59.4255 313.397C59.4782 313.427 59.5921 313.548 59.5622 313.601Z" fill="white"/>
<path d="M51.1726 290.95C53.2367 289.882 56.5846 288.585 58.0006 288.07C61.0025 286.523 61.1774 285.79 61.0894 285.239C59.7477 285.967 58.9636 286.172 57.5239 286.262C48.6554 290.452 45.7219 293.442 44.5242 300.046C45.314 296.786 48.5925 292.285 51.1726 290.95Z" fill="#CBB7A7"/>
<path d="M46.7503 286.649C45.0341 288.281 43.9406 290.64 43.2666 293.045C45.2256 287.236 51.8713 283.305 52.4462 283.201C52.6108 283.109 52.7673 283.021 52.9148 282.937C51.8562 283.165 51.0886 283.653 50.4259 283.999C48.628 284.889 47.9745 285.502 46.8754 286.532L46.8748 286.533C46.8339 286.571 46.7925 286.61 46.7503 286.649Z" fill="#C2A28A"/>
<path fill-rule="evenodd" clip-rule="evenodd" d="M58.5996 284.442C56.6715 282.746 54.5755 282.58 52.9148 282.937C52.7673 283.021 52.6108 283.109 52.4462 283.201C51.8713 283.305 45.2256 287.236 43.2666 293.045C42.4153 296.082 42.233 299.193 42.3101 301.005C41.7593 301.446 40.7175 302.605 40.9557 303.715C41.194 304.826 40.7724 306.1 40.5319 306.598C42.3764 305.756 43.7318 303.12 44.1789 301.907C44.4089 302.423 45.4631 303.034 45.9614 303.274C45.8665 303.121 45.7111 302.628 45.8492 301.883C45.9873 301.139 45.0234 300.348 44.5242 300.046C45.7219 293.442 48.6554 290.452 57.5239 286.262C58.9636 286.172 59.7477 285.967 61.0894 285.239C60.9849 284.585 59.6914 284.41 58.5996 284.442Z" fill="#B1927A"/>
<path d="M43.8465 284.741C45.2539 284.499 46.3688 285.912 46.7503 286.649C46.7925 286.61 46.8339 286.571 46.8748 286.533L46.8754 286.532C47.9745 285.502 48.628 284.889 50.4259 283.999C46.2176 281.738 42.0873 285.044 43.8465 284.741Z" fill="#594632"/>
<path fill-rule="evenodd" clip-rule="evenodd" d="M49.8685 290.597C50.2186 291.304 50.6278 293.129 49.4628 294.779C48.9586 295.493 49.3275 295.345 49.9583 294.736C51.8642 292.36 52.7411 290.958 52.2193 289.044C51.3497 289.131 50.48 289.653 49.8685 290.597Z" fill="#594632"/>
<path d="M49.9583 294.736C51.1496 293.586 53.2752 290.79 52.2193 289.044C52.7411 290.958 51.8642 292.36 49.9583 294.736Z" fill="#C2A28A"/>
<circle cx="57.5237" cy="285.827" r="0.434818" fill="#36291C"/>
<path d="M57.8488 285.819C57.8129 285.851 57.7001 285.782 57.6682 285.747C57.6362 285.711 57.6394 285.656 57.6753 285.624C57.7112 285.592 57.7661 285.595 57.7981 285.631C57.83 285.667 57.8847 285.787 57.8488 285.819Z" fill="white"/>
<path d="M96.5 173.268C101.757 172.486 120.5 165.5 130.199 173.268C134.285 176.541 138.227 179.481 134.58 191.464C130.933 203.447 109.052 212.417 109.052 223.765C109.052 244 163.509 231.219 169.5 232" stroke="#AA4245" stroke-width="3.12594" stroke-linecap="square" stroke-dasharray="7.81 7.81"/>
<path d="M263.5 222.5C272.458 215.93 280 217 289 225C298 233 296 240.5 303.5 249.5C311 258.5 326.5 249 330 262C333.5 275 319 275 298 268.5C277 262 255.5 285.5 255.5 285.5" stroke="#AA4245" stroke-width="3.13" stroke-linecap="square" stroke-dasharray="7.81 7.81"/>
<path d="M240.5 305C237.198 310.982 264.348 315.876 264.5 322M217.5 339.5C217 349.5 226.5 340.5 238.5 355C250.5 369.5 272.5 346 272.5 346" stroke="#AA4245" stroke-width="3.13" stroke-linecap="square" stroke-dasharray="7.81 7.81"/>
<path d="M200.5 316.5C200.5 316.5 167 318 157.5 303.5C148 289 138.5 280.99 128 284.745C117.499 288.5 131.501 294.49 102.5 312.245C73.4991 330 112.999 343.5 122.499 342.5C132 341.5 133.499 352 133.499 352" stroke="#AA4245" stroke-width="3.13" stroke-linecap="square" stroke-dasharray="7.81 7.81"/>
<path d="M130.999 407.5C130.999 407.5 147.104 426.139 108.999 457.5C70.8935 488.861 111.062 504.72 154.5 499.5C197.938 494.28 164.5 521 175.5 537C193.746 563.539 213.711 559.26 236 526" stroke="#AA4245" stroke-width="3.13" stroke-linecap="square" stroke-dasharray="7.81 7.81"/>
<path d="M311 498C313.727 498 319.5 496.818 321.682 493C322.439 494.515 325.545 498 331.909 498" stroke="#C2A28A" stroke-opacity="0.64" stroke-width="2.27273"/>
<path d="M331.909 498C334.636 498 340.409 496.818 342.591 493C343.349 494.515 346.455 498 352.818 498" stroke="#C2A28A" stroke-opacity="0.64" stroke-width="2.27273"/>
<path d="M146 165.022C148.739 165.022 154.537 163.835 156.728 160C157.489 161.522 160.609 165.022 167 165.022" stroke="#C2A28A" stroke-opacity="0.64" stroke-width="2.28261"/>
<path d="M301 406.022C303.739 406.022 309.537 404.835 311.728 401C312.489 402.522 315.609 406.022 322 406.022" stroke="#C2A28A" stroke-opacity="0.64" stroke-width="2.28261"/>
<path d="M321 337.022C323.739 337.022 329.537 335.835 331.728 332C332.489 333.522 335.609 337.022 342 337.022" stroke="#C2A28A" stroke-opacity="0.64" stroke-width="2.28261"/>
<path d="M39 457.022C41.7391 457.022 47.537 455.835 49.7283 452C50.4891 453.522 53.6087 457.022 60 457.022" stroke="#C2A28A" stroke-opacity="0.64" stroke-width="2.28261"/>
<path d="M137 480.022C139.739 480.022 145.537 478.835 147.728 475C148.489 476.522 151.609 480.022 158 480.022" stroke="#C2A28A" stroke-opacity="0.64" stroke-width="2.28261"/>
<path d="M73 264.022C75.7391 264.022 81.537 262.835 83.7283 259C84.4891 260.522 87.6087 264.022 94 264.022" stroke="#C2A28A" stroke-opacity="0.64" stroke-width="2.28261"/>
<path d="M286 562.022C288.739 562.022 294.537 560.835 296.728 557C297.489 558.522 300.609 562.022 307 562.022" stroke="#C2A28A" stroke-opacity="0.64" stroke-width="2.28261"/>
<path d="M117 558.022C119.739 558.022 125.537 556.835 127.728 553C128.489 554.522 131.609 558.022 138 558.022" stroke="#C2A28A" stroke-opacity="0.64" stroke-width="2.28261"/>
<path d="M285 174C287.727 174 293.5 172.818 295.682 169C296.439 170.515 299.545 174 305.909 174" stroke="#C2A28A" stroke-opacity="0.64" stroke-width="2.27273"/>
<path d="M305.91 174C308.637 174 314.41 172.818 316.591 169C317.349 170.515 320.455 174 326.819 174" stroke="#C2A28A" stroke-opacity="0.64" stroke-width="2.27273"/>
<path d="M326.818 174C329.546 174 335.318 172.818 337.5 169C338.258 170.515 341.364 174 347.727 174" stroke="#C2A28A" stroke-opacity="0.64" stroke-width="2.27273"/>
<path d="M145 448C147.727 448 153.5 446.818 155.682 443C156.439 444.515 159.545 448 165.909 448" stroke="#C2A28A" stroke-opacity="0.64" stroke-width="2.27273"/>
<path d="M165.91 448C168.637 448 174.41 446.818 176.591 443C177.349 444.515 180.455 448 186.819 448" stroke="#C2A28A" stroke-opacity="0.64" stroke-width="2.27273"/>
<path d="M186.818 448C189.546 448 195.318 446.818 197.5 443C198.258 444.515 201.364 448 207.727 448" stroke="#C2A28A" stroke-opacity="0.64" stroke-width="2.27273"/>
<path d="M238 384C240.727 384 246.5 382.818 248.682 379C249.439 380.515 252.545 384 258.909 384" stroke="#C2A28A" stroke-opacity="0.64" stroke-width="2.27273"/>
<path d="M258.909 384C261.636 384 267.409 382.818 269.591 379C270.349 380.515 273.455 384 279.818 384" stroke="#C2A28A" stroke-opacity="0.64" stroke-width="2.27273"/>
<path d="M27 331C29.7273 331 35.5 329.818 37.6818 326C38.4394 327.515 41.5455 331 47.9091 331" stroke="#C2A28A" stroke-opacity="0.64" stroke-width="2.27273"/>
<path d="M47.9092 331C50.6365 331 56.4092 329.818 58.591 326C59.3486 327.515 62.4546 331 68.8183 331" stroke="#C2A28A" stroke-opacity="0.64" stroke-width="2.27273"/>
<path d="M144 275C146.727 275 152.5 273.818 154.682 270C155.439 271.515 158.545 275 164.909 275" stroke="#C2A28A" stroke-opacity="0.64" stroke-width="2.27273"/>
<path d="M164.909 275C167.636 275 173.409 273.818 175.591 270C176.349 271.515 179.455 275 185.818 275" stroke="#C2A28A" stroke-opacity="0.64" stroke-width="2.27273"/>
<path d="M294 300C296.727 300 302.5 298.818 304.682 295C305.439 296.515 308.545 300 314.909 300" stroke="#C2A28A" stroke-opacity="0.64" stroke-width="2.27273"/>
<path d="M314.909 300C317.636 300 323.409 298.818 325.591 295C326.349 296.515 329.455 300 335.818 300" stroke="#C2A28A" stroke-opacity="0.64" stroke-width="2.27273"/>
<path d="M94 517C96.7273 517 102.5 515.818 104.682 512C105.439 513.515 108.545 517 114.909 517" stroke="#C2A28A" stroke-opacity="0.64" stroke-width="2.27273"/>
<path d="M114.909 517C117.636 517 123.409 515.818 125.591 512C126.349 513.515 129.455 517 135.818 517" stroke="#C2A28A" stroke-opacity="0.64" stroke-width="2.27273"/>
<path d="M178 568C180.727 568 186.5 566.818 188.682 563C189.439 564.515 192.545 568 198.909 568" stroke="#C2A28A" stroke-opacity="0.64" stroke-width="2.27273"/>
<path d="M198.909 568C201.636 568 207.409 566.818 209.591 563C210.349 564.515 213.455 568 219.818 568" stroke="#C2A28A" stroke-opacity="0.64" stroke-width="2.27273"/>
<path d="M37 219C39.7273 219 45.5 217.818 47.6818 214C48.4394 215.515 51.5455 219 57.9091 219" stroke="#C2A28A" stroke-opacity="0.64" stroke-width="2.27273"/>
<path d="M57.9092 219C60.6365 219 66.4092 217.818 68.591 214C69.3486 215.515 72.4546 219 78.8183 219" stroke="#C2A28A" stroke-opacity="0.64" stroke-width="2.27273"/>
<defs>
<filter id="filter0_f_6077_1053" x="250.108" y="497.108" width="44.5651" height="32.4995" filterUnits="userSpaceOnUse" color-interpolation-filters="sRGB">
<feFlood flood-opacity="0" result="BackgroundImageFix"/>
<feBlend mode="normal" in="SourceGraphic" in2="BackgroundImageFix" result="shape"/>
<feGaussianBlur stdDeviation="1.94608" result="effect1_foregroundBlur_6077_1053"/>
</filter>
<filter id="filter1_f_6077_1053" x="291.39" y="428.981" width="3.95003" height="3.95003" filterUnits="userSpaceOnUse" color-interpolation-filters="sRGB">
<feFlood flood-opacity="0" result="BackgroundImageFix"/>
<feBlend mode="normal" in="SourceGraphic" in2="BackgroundImageFix" result="shape"/>
<feGaussianBlur stdDeviation="0.121539" result="effect1_foregroundBlur_6077_1053"/>
</filter>
<filter id="filter2_f_6077_1053" x="290.236" y="427.28" width="6.38084" height="6.38084" filterUnits="userSpaceOnUse" color-interpolation-filters="sRGB">
<feFlood flood-opacity="0" result="BackgroundImageFix"/>
<feBlend mode="normal" in="SourceGraphic" in2="BackgroundImageFix" result="shape"/>
<feGaussianBlur stdDeviation="0.364618" result="effect1_foregroundBlur_6077_1053"/>
</filter>
<linearGradient id="paint0_linear_6077_1053" x1="186" y1="0.591492" x2="186" y2="578" gradientUnits="userSpaceOnUse">
<stop stop-color="#B8A384"/>
<stop offset="1" stop-color="#B8A384"/>
</linearGradient>
<linearGradient id="paint1_linear_6077_1053" x1="186" y1="0.591492" x2="186" y2="578" gradientUnits="userSpaceOnUse">
<stop stop-color="#B8A384"/>
<stop offset="1" stop-color="#B8A384"/>
</linearGradient>
<linearGradient id="paint2_linear_6077_1053" x1="57.5" y1="-12" x2="151" y2="186.5" gradientUnits="userSpaceOnUse">
<stop offset="0.0441125" stop-color="#B8A384"/>
<stop offset="0.754483" stop-color="#B8A384" stop-opacity="0"/>
<stop offset="1" stop-color="#B8A384" stop-opacity="0"/>
</linearGradient>
<linearGradient id="paint3_linear_6077_1053" x1="320" y1="1" x2="320" y2="59.5" gradientUnits="userSpaceOnUse">
<stop offset="0.109095" stop-color="#B8A384"/>
<stop offset="1" stop-color="#B8A384" stop-opacity="0"/>
</linearGradient>
</defs>
</svg>
