<svg width="428" height="660" viewBox="0 0 428 660" fill="none" xmlns="http://www.w3.org/2000/svg">
<g clip-path="url(#clip0_38_3651)">
<g opacity="0.9" filter="url(#filter0_f_38_3651)">
<path d="M327.176 122.38C328.733 112.607 327.176 105.582 335.702 100.333C344.227 95.0837 351.421 100.333 351.421 100.333C351.421 100.333 358.86 106.033 361.812 111.181C367.434 106.15 369.805 111.181 380.728 111.181C391.652 111.181 398.579 122.38 398.579 122.38C398.579 122.38 399.645 118.18 413.233 122.38C426.821 126.579 419.627 130.778 419.627 130.778C426.455 127.603 435.49 132.924 450 140.227H300L311.456 130.778C311.456 130.778 306.661 127.979 311.456 122.38C316.252 116.78 322.562 118.378 327.176 122.38Z" fill="white"/>
<path d="M327.176 122.38C328.733 112.607 327.176 105.582 335.702 100.333C344.227 95.0837 351.421 100.333 351.421 100.333C351.421 100.333 358.86 106.033 361.812 111.181C367.434 106.15 369.805 111.181 380.728 111.181C391.652 111.181 398.579 122.38 398.579 122.38C398.579 122.38 399.645 118.18 413.233 122.38C426.821 126.579 419.627 130.778 419.627 130.778C426.455 127.603 435.49 132.924 450 140.227H300L311.456 130.778C311.456 130.778 306.661 127.979 311.456 122.38C316.252 116.78 322.562 118.378 327.176 122.38Z" stroke="white" stroke-width="3"/>
</g>
<g filter="url(#filter1_f_38_3651)">
<path d="M88.5 81.0367C100.488 78.0367 98 81.0367 93.093 83.7454H96.814L98.4884 81.8879H103.326C108.871 73.9962 113.008 75.0947 121.5 79.0367C112.254 77.1868 108.464 79.9874 108.907 85.0457L112.628 87.6463L129 92.6617L110.953 89.8754C104.901 91.7777 102.953 91.1757 99.9767 87.6463C88.7681 91.3992 82.9168 92.9581 75.2326 106.037C76.1628 96.1916 79.6852 91.7122 94.5814 85.603L90 84.0367C80.912 86.1942 76.3208 84.8348 72.5 87.0367C74.6754 84.6515 81 83.7454 88.5 81.0367Z" fill="#046C6B"/>
</g>
<g filter="url(#filter2_f_38_3651)">
<path d="M42.8106 135.566C49.8073 132.69 50.5152 132.795 47.9934 136.35H50.5847L51.7508 135.043H55.1196C60.4733 131.768 62.6948 133.22 67.5581 134.39C62.3754 134.782 60.1153 135.616 59.0066 137.265L61.598 139.095L73 142.625L60.4319 140.664C56.2169 142.002 54.8605 141.579 52.7874 139.095C44.8987 143.041 40.7375 145.501 35.5548 152.037C36.2027 145.109 38.6558 141.956 49.0299 137.657H46.309C39.9799 139.176 36.6609 140.029 34 141.579C35.515 139.9 37.074 139.636 42.8106 135.566Z" fill="#046C6B"/>
</g>
<g filter="url(#filter3_f_38_3651)">
<path d="M-80.7742 459.724C-101.621 461.913 -129 483.278 -129 483.278V618H503V492.524C503 492.524 455.317 482.743 424.606 477.335C399.125 472.847 384.515 472.125 359.203 466.768C347.449 464.281 339.833 465.42 329.255 459.724C323.41 456.576 322.189 450.428 315.602 449.598C309.53 448.832 306.917 454.093 300.848 454.881C297.181 455.357 295.032 454.308 291.379 454.881C286.268 455.683 284.088 458.559 279.047 459.724C263.319 463.36 254.602 445.569 238.969 449.598C227.604 452.527 225.806 464.421 214.306 466.768C208.492 467.955 205.007 466.091 199.112 466.768C187.112 468.146 182.096 476.526 170.044 477.335C157.638 478.168 150.929 473.779 138.994 470.29C122.899 465.586 115.685 454.796 98.9164 454.881C89.6907 454.928 84.2586 456.055 75.7944 459.724C68.8353 462.741 66.5464 467.486 59.499 470.29C52.5098 473.072 47.8 471.767 40.561 473.813C21.1714 479.292 15.7541 496.381 -4.14146 499.568C-37.4495 504.903 -47.2259 456.202 -80.7742 459.724Z" fill="url(#paint0_linear_38_3651)" fill-opacity="0.37"/>
</g>
</g>
<defs>
<filter id="filter0_f_38_3651" x="291.824" y="92.5002" width="162.851" height="53.2266" filterUnits="userSpaceOnUse" color-interpolation-filters="sRGB">
<feFlood flood-opacity="0" result="BackgroundImageFix"/>
<feBlend mode="normal" in="SourceGraphic" in2="BackgroundImageFix" result="shape"/>
<feGaussianBlur stdDeviation="2" result="effect1_foregroundBlur_38_3651"/>
</filter>
<filter id="filter1_f_38_3651" x="68.5" y="72" width="64.5" height="38.0366" filterUnits="userSpaceOnUse" color-interpolation-filters="sRGB">
<feFlood flood-opacity="0" result="BackgroundImageFix"/>
<feBlend mode="normal" in="SourceGraphic" in2="BackgroundImageFix" result="shape"/>
<feGaussianBlur stdDeviation="2" result="effect1_foregroundBlur_38_3651"/>
</filter>
<filter id="filter2_f_38_3651" x="30" y="129.037" width="47" height="27" filterUnits="userSpaceOnUse" color-interpolation-filters="sRGB">
<feFlood flood-opacity="0" result="BackgroundImageFix"/>
<feBlend mode="normal" in="SourceGraphic" in2="BackgroundImageFix" result="shape"/>
<feGaussianBlur stdDeviation="2" result="effect1_foregroundBlur_38_3651"/>
</filter>
<filter id="filter3_f_38_3651" x="-133" y="445" width="640" height="177" filterUnits="userSpaceOnUse" color-interpolation-filters="sRGB">
<feFlood flood-opacity="0" result="BackgroundImageFix"/>
<feBlend mode="normal" in="SourceGraphic" in2="BackgroundImageFix" result="shape"/>
<feGaussianBlur stdDeviation="2" result="effect1_foregroundBlur_38_3651"/>
</filter>
<linearGradient id="paint0_linear_38_3651" x1="187" y1="449" x2="187" y2="618" gradientUnits="userSpaceOnUse">
<stop stop-color="#667AA3"/>
<stop offset="1" stop-color="#324367" stop-opacity="0"/>
</linearGradient>
<clipPath id="clip0_38_3651">
<rect width="428" height="660" fill="white"/>
</clipPath>
</defs>
</svg>
