<svg width="428" height="860" viewBox="0 0 428 860" fill="none" xmlns="http://www.w3.org/2000/svg">
<g clip-path="url(#clip0_38_3700)">
<g filter="url(#filter0_f_38_3700)">
<path d="M125.929 127.425C146.035 118.165 153.491 112.219 136.822 95.6817L-28.9515 38.7955C-47.5664 38.4769 -52.5136 45.9816 -51.3571 73.3923C-78.568 83.2728 -73.2902 92.7284 -63.9502 109.462L-63.8166 109.701C-74.465 129.809 -77.5987 140.183 -51.5686 148.656C-46.3857 160.917 -43.4666 167.777 -26.4955 166.98C-8.75578 180.028 1.35426 184.768 21.2378 163.919C32.9089 169.207 39.4797 172.598 49.2693 148.507C66.9307 157.106 76.2251 158.529 89.7759 144.181C111.402 148.09 121.856 147.957 125.929 127.425Z" fill="#11693C"/>
</g>
<g filter="url(#filter1_f_38_3700)">
<path d="M213.996 138.513C192.989 131.539 184.919 126.455 199.652 108.173L358.101 33.2652C376.565 30.8855 382.314 37.7957 384.202 65.1657C412.341 71.9698 408.143 81.952 400.715 99.6172L400.609 99.8699C413.42 118.674 417.684 128.637 392.754 139.942C388.961 152.702 386.821 159.844 369.866 160.933C353.681 175.866 344.159 181.697 322.087 163.18C311.074 169.729 304.92 173.828 292.52 150.97C275.921 161.473 266.841 163.917 251.784 151.159C230.725 157.441 220.319 158.468 213.996 138.513Z" fill="#11693C"/>
</g>
<g filter="url(#filter2_d_38_3700)">
<path d="M388 -27.4042C355.458 -28.0422 335.14 -67.2627 301.5 -33.3226C284.641 -37.3251 277.492 -35.4838 259.687 -20C244.457 -31.5373 201.057 -99.1407 205.5 -26.5387C186.839 -26.9012 192.341 -53.8222 188.684 -42C181.415 -54.6032 174.056 -25.5351 157 -20C157 -83.1059 138.494 -37.4374 142 -26.5387C131.758 -32.0409 116.222 -52.0752 106.5 -33.3226C98.7847 -47.5959 70.4868 -41.8372 50.0541 -33.3226C26.8501 -53.5232 52.8747 -144.689 27 -50.9999C42.8747 -205.189 -27.3246 -192.136 -16.9998 -71.5C-84.4344 -226.136 -23.621 -57.4395 -27.2372 -51C-43.8848 -75.3977 -13.3922 18.0161 -38.1321 22.7791C-55.3128 15.2933 -65.6202 13.6444 -81.2096 23.1436C-88.7442 8.52247 -96.389 6.3768 -113.632 8.93483C-127.669 -2.89887 -132.894 -13.0296 -160.949 -6.33594C-176.494 -15.135 -182.761 -15.0364 -190.102 -6.96584C-187.782 -23.6191 -191.297 -29.8534 -211.154 -32.2166C-224.251 -33.4404 -230.703 -32.5977 -239.553 -26.5387L-262.339 -33.3226L-279.611 -27.4042L-283.563 155.519C-279.421 171.787 -276.207 179.424 -256.486 169.798C-241.574 172.576 -238.741 168.966 -234.711 161.571C-238.348 181.56 -228.96 177.33 -215.618 174.382C-196.059 173.184 -187.007 170.897 -181.638 157.722C-160.662 164.767 -148.906 169.347 -127.753 147.228C-93.264 144.919 -84.0462 138.665 -74.4858 124.138C-46.7207 133.637 -38.1951 128.095 -27.2371 111.651C-7.65158 115.831 2.17932 113.341 18.9777 105.803C26.6014 112.314 33.753 112.902 50.0541 110.175C55.3801 127.872 64.0468 131.398 88.4173 127.658C95.7916 142.161 102.29 140.489 114.291 135.804C113.488 142.554 113.622 146.134 128.962 147.223C137.34 154.371 142.099 153.062 150.709 140.291C160.226 151.846 169.608 150.87 188.684 144.813C205.616 154.772 211.857 148.299 224.371 141.883C234.811 139.424 240.46 137.917 233.649 124.689C243.277 129.917 248.844 131.285 259.687 125.252C270.256 117.533 273.346 113.704 272.068 108.68C273.299 113.518 276.122 112.479 286.032 111.573C298.041 125.12 303.203 119.753 313.48 119.012C328.845 124.329 332.543 120.652 338.108 112.698C341.752 132.346 351.232 136.014 372.512 138.237C382.432 143.81 387.842 142.359 397.31 134.332C400.496 146.805 405.333 149.345 419.321 146.095C435.822 150.603 443.55 151.078 448.4 139.877C453.59 149.581 458.015 149.948 466.946 147.124C475.541 151.49 480.356 153.779 488.612 143.891C515.086 145.185 516.849 138.076 516.664 123.402C537.397 116.88 540.314 110.502 535.071 95.8585C554.583 85.1926 552.365 80.5417 545.148 72.5756C540.684 59.4052 547.087 51.0099 524.256 39.9264C522.654 30.2457 526.377 22.4861 497.83 26.4023C499.444 12.7092 498.21 6.63942 480.426 7.52182C462.287 -0.0622532 467.948 -34.4494 448.4 -20C424.654 -24.3917 395.747 -45.0066 388 -27.4042Z" fill="#014C58"/>
</g>
<g filter="url(#filter3_d_38_3700)">
<g filter="url(#filter4_d_38_3700)">
<path d="M121.986 636.596L35 682.733H251.183L277.017 617.897C277.462 616.777 277.81 615.622 278.056 614.442L293.277 541.382L300.032 480.589L300.033 480.579C300.054 480.389 303.247 451.633 311.985 435.888C314.439 431.467 318.319 426.29 321.594 422.209C325.294 417.598 330.954 415.102 336.866 415.102H356.157C365.022 412.43 364.008 399.566 354.835 398.315L348.362 397.433L346.106 395.831C337.469 389.702 326.313 388.376 316.48 392.309L306.776 396.191C304.709 397.017 302.708 397.999 300.912 399.314C295.676 403.148 284.234 412.815 277.687 428.093C268.146 450.355 247.484 550.86 242.438 575.788C241.687 579.5 240.279 583.041 238.268 586.249L226.77 604.591C222.127 611.997 214.588 617.115 205.991 618.696L136.936 631.396C131.717 632.356 126.675 634.109 121.986 636.596Z" fill="#872E87"/>
</g>
<path d="M218.49 629.978C197.856 645.947 190.901 636.214 163.359 639.6C154.813 640.65 135.267 644.223 131.185 651.804C119.134 674.186 178.148 660.964 201.86 651.804C213.39 647.35 220.04 644.282 229.403 636.214C238.599 628.289 248.631 611.789 248.631 611.789C248.631 611.789 258.245 582.559 248.631 585.806C241.664 588.158 239.796 602.435 239.796 602.435C239.796 602.435 229.244 621.654 218.49 629.978Z" fill="#AC5EAC"/>
<path fill-rule="evenodd" clip-rule="evenodd" d="M341.023 399.85C340.751 399.052 340.032 398.42 339.163 398.003C338.227 397.554 337.074 397.331 335.976 397.417C334.877 397.503 333.808 397.901 333.079 398.724C332.346 399.55 331.993 400.765 332.245 402.412C332.267 402.56 332.411 402.663 332.566 402.644C332.721 402.624 332.829 402.488 332.806 402.34C332.571 400.805 332.91 399.757 333.515 399.075C334.123 398.388 335.036 398.033 336.029 397.955C336.746 397.899 337.491 397.989 338.166 398.195C336.846 398.291 335.747 399.261 335.596 400.56C335.423 402.041 336.546 403.388 338.104 403.57C339.661 403.752 341.064 402.698 341.237 401.218C341.293 400.736 341.212 400.268 341.023 399.85Z" fill="black"/>
</g>
<g filter="url(#filter5_d_38_3700)">
<path d="M32.6277 688.146C45.3724 611.62 51.4731 610.768 65.3 604.017C58.1594 602.07 38.6185 611.726 28.7259 687.197L32.6277 688.146Z" fill="#6CB236"/>
<path d="M44.749 588.306C58.3369 586.818 61.9074 591.014 66.2739 600.987C65.3905 594.574 65.6789 591.483 71.0852 589.122C75.8281 586.744 78.4208 588.063 83.034 590.865C88.3984 593.204 88.5728 594.032 90.0005 595.699C79.2275 592.611 78.8657 593.943 78.2294 596.284L78.2129 596.345C81.872 595.107 85.7985 595.527 96.3565 598.416C101.597 602.448 101.971 604.828 102.63 609.03L102.643 609.108C82.7015 598.796 82.5063 600.127 81.352 601.979C87.5 603.425 92.2361 605.383 103.598 611.488C106.315 616.147 105.83 618.197 104.428 621.704C87.2302 605.545 83.1557 604.042 81.0328 608.34C91.3295 611.527 96.4471 616.036 105.023 626.367C105.188 630.127 104.698 631.691 103.292 633.98C87.393 612.976 84.6327 611.869 82.9687 615.548C93.7989 622.566 97.9422 627.655 101.167 639.221C100.741 642.058 99.7823 642.67 98.0062 643.671C96.204 635.956 94.217 633.066 89.4002 629.783L89.4495 629.855C93.5501 635.849 95.8643 639.231 95.9607 645.929C94.9516 648.302 94.3727 649.614 92.5998 650.873C89.8793 650.811 88.4843 650.507 86.4847 648.955C81.6604 643.273 82.8422 639.52 82.2434 633.22C80.4964 639.024 78.5807 641.83 83.2835 650.719C81.4217 651.718 79.2485 651.292 76.615 649.609C72.3591 639.205 80.9565 622.461 76.9118 620.732C71.9692 622.332 72.9875 637.04 75.4676 649.931C72.1242 649.631 70.3654 649.008 67.5706 646.555C62.8167 634.314 73.5159 615.452 71.3568 613.253C69.1976 611.054 62.8531 619.342 62.3856 641.786C58.7129 638.486 56.2985 636.277 53.9651 631.342C53.6064 616.549 60.4355 612.877 64.7673 607.768C69.099 602.658 48.5984 608.629 44.8233 624.07C42.0841 619.342 40.9157 616.397 41.9141 608.673C45.031 603.439 49.2511 602.959 58.7791 600.8C53.6825 596.649 49.1432 596.511 41.183 605.46C40.2755 602.912 39.436 602.246 40.5301 595.087C42.4733 592.651 44.783 592.244 51.7077 593.716C50.2591 591.75 49.3794 590.685 41.6928 592.22C41.2612 591.172 41.252 590.516 44.749 588.306Z" fill="#27844C"/>
<path d="M91.126 644.663C84.1685 623.955 78.5962 612.353 66.5913 601.227L67.1137 604.119C75.7901 611.424 81.1891 622.082 91.126 644.663Z" fill="#6CB236"/>
</g>
<g filter="url(#filter6_d_38_3700)">
<path d="M3.49484 657.799C-10.7381 578.241 -8.06213 565.553 -5.81201 516.636C-2.4876 573.311 -1.9907 605.308 8.14761 660.879L3.49484 657.799Z" fill="#6CB236"/>
<path d="M40.7289 477.487C-2.97099 454.138 -16.1682 497.216 -3.85122 514.905C-23.8848 499.018 -28.5545 503.994 -34.8557 517.16C-35.9596 522.943 -33.8013 527.358 -26.0505 536.87C-12.1134 553.654 -5.69027 554.813 6.11159 558.929C-4.4828 540.113 -5.14137 533.469 4.8778 529.906C0.448892 541.163 2.97143 548.296 13.5777 562.021C23.5362 566.701 30.2013 567.458 44.9538 563.841C33.0841 562.729 27.65 561.398 25.8408 554.433C21.3107 537.512 21.4586 532.91 29.4088 538.672C30.9004 554.189 38.0556 558.777 55.2788 564.057C58.7438 564.185 61.7994 564.238 64.6459 564.094C53.356 549.702 49.555 543.323 58.6777 542.569C60.4449 551.25 64.1498 555.562 75.3917 562.175C79.2041 560.897 83.1371 558.871 87.7906 555.732C86.7773 550.44 88.7538 539.63 82.7311 531.248C56.0245 532.937 51.1228 533.985 54.6657 530.863C58.2085 527.741 68.5413 523.478 82.5915 522.616L82.5519 522.538C80.3014 518.098 79.0275 515.584 66.8822 515.662C24.0101 523.49 23.3706 521.701 33.075 516.299C48.4653 510.747 61.202 504.433 70.3501 504.674C70.3501 504.674 69.859 501.167 65.3023 498.341C62.1942 495.254 41.8309 499.565 22.0349 508.184C33.0554 497.493 36.7789 489.632 59.7068 487.996C60.5421 482.39 57.3926 480.487 45.2727 479.529C31.953 482.568 25.1607 485.859 14.484 495.125C19.928 483.429 24.0888 478.022 40.7289 477.487Z" fill="#27844C"/>
<path d="M82.2312 552.669C63.082 538.398 43.7229 530.697 4.69001 515.787C1.05829 514.366 -0.232175 514.692 -1.98947 516.095C33.2409 529.025 50.6916 535.229 82.2312 552.669Z" fill="#6CB236"/>
</g>
<path d="M-25.9607 687.578C42.1675 679.212 30.0625 578.136 21.1545 573.573C12.2464 569.011 -56.2895 648.726 -25.9607 687.578Z" fill="#11693C"/>
<path d="M399.621 553.564L426.177 626.467L434.543 630.719L430.137 619.092C429.587 617.64 429.627 616.03 430.25 614.607L437.214 598.686L443.203 588.164L449.191 577.643L456.705 560.331L458.395 554.284C458.996 552.135 456.411 550.537 454.758 552.037L447.696 558.1L442.381 562.665C441.222 563.66 440.196 564.8 439.327 566.057L435.695 571.316C434.46 573.105 433.476 575.054 432.77 577.11L430.418 583.967C430.206 584.585 430.045 585.221 429.937 585.866L426.98 603.58C426.777 604.797 425.083 604.936 424.684 603.768L419.613 588.924C419.202 587.721 419.188 586.417 419.573 585.205L421.548 578.986L433.442 548.509L436.688 536.342C437.305 534.032 434.508 532.361 432.765 533.998L428.409 538.091C428.154 538.331 427.92 538.593 427.711 538.874L424.31 543.444C422.485 545.898 421.15 548.68 420.379 551.64L419.386 555.452L416.285 572.576C416.063 573.804 414.34 573.903 413.979 572.708L412.059 566.36C411.993 566.141 411.992 565.909 412.054 565.69L417.873 545.292L424.125 525.494C424.452 524.461 424.635 523.389 424.671 522.306L424.693 521.631C424.77 519.271 421.732 518.255 420.374 520.186L415.411 527.242C413.767 529.58 412.558 532.196 411.842 534.963L409.706 543.226C409.546 543.841 409.437 544.469 409.378 545.102L408.226 557.516C408.122 558.629 406.679 558.996 406.056 558.068L402.072 552.132L399.159 531.087L396.088 518.843C395.986 518.436 395.841 518.041 395.656 517.665L393.285 512.849C392.147 510.536 388.656 511.438 388.78 514.013L389.249 523.723C389.325 525.309 389.561 526.884 389.951 528.424L393.1 540.825C393.345 541.793 393.712 542.725 394.19 543.601L399.547 553.4C399.576 553.453 399.601 553.508 399.621 553.564Z" fill="#C56593"/>
<path d="M405.135 604.557L421.115 612.678L417.95 603.244L399.934 590.697L390.152 585.726C387.58 584.419 384.791 583.591 381.922 583.283L361.289 581.068C358.752 580.796 357.627 584.168 359.82 585.473L377.442 595.962C379.426 597.143 381.571 598.029 383.81 598.591L400.155 602.694C401.879 603.126 403.55 603.752 405.135 604.557Z" fill="#C56593"/>
<path d="M403.5 581.292L412.015 585.619L406.54 572.141L400.101 566.827C398.373 565.4 396.451 564.224 394.393 563.336L384.467 559.051C381.804 557.901 378.954 557.249 376.056 557.126L368.497 556.805C366.164 556.706 365.102 559.679 366.971 561.08L384.92 574.538C387.551 576.511 390.562 577.916 393.764 578.664L400.822 580.315C401.75 580.532 402.649 580.86 403.5 581.292Z" fill="#C56593"/>
<path d="M374.128 541.032L404.954 567.683L402.585 560.218L396.2 553.582L387.05 546.324L375.535 539.126C374.291 538.349 373.019 540.073 374.128 541.032Z" fill="#C56593"/>
<g filter="url(#filter7_d_38_3700)">
<path d="M367.51 606.566L406.074 652.504L405.471 659.507L399.471 652.168C398.658 651.174 397.5 650.523 396.229 650.343L382.524 648.411L372.849 648.008L363.173 647.605L348.233 645.458L343.373 644.107C341.745 643.655 341.762 641.341 343.396 640.912L350.482 638.855L355.774 637.319C356.966 636.973 358.195 636.774 359.435 636.724L364.49 636.522C366.239 636.452 367.99 636.608 369.7 636.984L375.327 638.224C375.844 638.338 376.352 638.492 376.846 638.684L389.739 643.719C390.735 644.108 391.584 642.9 390.88 642.095L383.305 633.432C382.611 632.638 381.689 632.079 380.665 631.83L375.654 630.613L349.909 625.987L341.222 623.467C339.213 622.885 339.273 620.017 341.306 619.52L344.907 618.639C345.184 618.571 345.465 618.527 345.749 618.506L350.249 618.177C352.707 617.997 355.178 618.264 357.541 618.963L360.522 619.846L373.055 624.554C374.068 624.934 374.9 623.686 374.159 622.898L371.032 619.568C370.903 619.43 370.738 619.331 370.556 619.282L354.231 614.831L338.073 610.879C337.266 610.681 336.488 610.38 335.758 609.983C334.048 609.052 334.642 606.462 336.586 606.369L342.934 606.065C345.235 605.954 347.539 606.234 349.747 606.892L356.226 608.822C356.722 608.97 357.206 609.155 357.673 609.376L366.369 613.485C367.241 613.898 368.146 612.983 367.725 612.115L365.503 607.542L352.381 597.292L345.36 590.494C345.1 590.242 344.868 589.964 344.666 589.663L343.053 587.249C341.818 585.402 344.003 583.189 345.865 584.4L351.404 588C352.523 588.728 353.568 589.563 354.524 590.494L361.459 597.247C362.077 597.85 362.617 598.528 363.064 599.265L367.419 606.439C367.446 606.484 367.476 606.526 367.51 606.566Z" fill="#27844C"/>
<path d="M399.908 630.862L398.795 643.79L393.69 638.016L392.77 623.089C392.709 622.086 392.721 621.08 392.807 620.079L393.321 614.115C393.547 611.489 394.279 608.932 395.476 606.584L402.028 593.737C403.011 591.809 405.923 592.532 405.891 594.695L405.685 608.835C405.654 610.953 405.294 613.052 404.618 615.059L400.902 626.093C400.381 627.637 400.048 629.238 399.908 630.862Z" fill="#27844C"/>
<path d="M384.756 620.329L384.163 627.216L377.269 618.363L376.424 612.715C376.12 610.682 376.125 608.614 376.438 606.582L377.476 599.842C377.877 597.234 378.781 594.728 380.135 592.463L382.542 588.439C383.553 586.749 386.135 587.326 386.329 589.286L387.865 604.777C388.163 607.778 387.792 610.808 386.781 613.649L385.31 617.778C385.017 618.601 384.831 619.458 384.756 620.329Z" fill="#27844C"/>
<path d="M369.779 586.242L374.894 615.578L370.799 611.095L369.334 605.796C369.077 604.865 368.886 603.916 368.763 602.958L367.83 595.698L367.75 586.426C367.74 585.171 369.563 585.005 369.779 586.242Z" fill="#27844C"/>
<path d="M364.937 683.14L368.929 682.687L386.364 679.714L403.8 676.742L402.697 689.552L389.705 690.29C388.734 690.345 387.761 690.331 386.793 690.247L371.424 688.924C369.428 688.752 367.468 688.287 365.607 687.545L364.411 687.068C362.437 686.281 362.826 683.379 364.937 683.14Z" fill="#27844C"/>
</g>
<path d="M684.247 618.952C639.49 619.041 614.701 589.1 569.461 636.759C546.164 631.758 533.178 626.137 509.16 647.953C487.88 632.544 463.995 627.8 458.96 644.646C433.294 644.702 422.62 647.618 417.943 663.98C407.575 646.869 397.456 645.688 374.171 653.804C353.011 649.792 343.315 649.101 348.459 663.98C334.215 656.72 326.372 655.973 313.564 682.042L313.452 681.846C302.492 662.574 296.312 651.709 268.568 663.98C236.068 636.898 227.953 643.591 216.838 654.567C200.959 651.06 192.374 649.033 184.698 651.75C177.212 654.399 171.86 651.712 167.08 660.673C143.468 627.625 125.345 622.608 91.4738 629.891C67.6317 620.11 53.4121 618.149 32.2621 631.671C21.4693 611.794 10.8956 609.072 -12.734 613.1C-32.3833 597.249 -39.8675 583.476 -78.2386 593.512C-99.8712 581.877 -108.484 582.198 -118.337 593.512C-115.642 570.548 -120.66 562.082 -148.029 559.423C-166.071 558.129 -174.916 559.479 -186.903 568.072L-218.431 559.423L-242 568.072V819.671C-235.822 841.913 -231.176 852.316 -204.35 838.497C-183.766 841.873 -179.979 836.826 -174.659 826.54C-179.065 854.129 -166.283 848.034 -148.029 843.585C-121.175 841.357 -108.799 837.944 -101.808 819.671C-72.7618 828.734 -56.4635 834.681 -28.0388 803.644C19.307 799.445 31.7938 790.573 44.5059 770.318C82.9593 782.553 94.5156 774.68 109.092 751.747C136.142 756.913 149.584 753.197 172.454 742.334C183.128 751.059 192.978 751.656 215.307 747.422C223.155 771.593 235.175 776.184 268.568 770.318C279.137 790.038 288.021 787.546 304.381 780.748C303.478 790.053 303.768 794.971 324.89 796.012C336.62 805.59 343.124 803.65 354.581 785.836C368.009 801.438 380.878 799.818 406.924 790.924C430.497 804.113 438.885 795.029 455.899 785.836C470.179 782.146 477.9 779.906 468.143 761.923C481.535 768.824 489.229 770.539 503.956 761.923C518.257 750.997 522.392 745.641 520.485 738.773C522.322 745.387 526.171 743.874 539.769 742.334C556.682 760.602 563.619 753.071 577.725 751.747C599.007 758.6 603.982 753.435 611.396 742.334C616.99 769.238 630.132 773.999 659.453 776.424C673.257 783.791 680.651 781.635 693.43 770.318C698.18 787.371 704.906 790.719 724.039 785.836C746.858 791.543 757.497 791.966 763.832 776.424C771.255 789.611 777.349 789.984 789.544 785.836C801.49 791.583 808.177 794.587 819.235 780.748C855.669 781.74 857.882 771.915 857.191 751.747C885.501 742.164 889.323 733.309 881.679 713.333C908.187 698.09 904.999 691.762 894.841 681.025C888.313 663.051 896.867 651.319 865.149 636.759C862.659 623.498 867.547 612.72 828.418 618.952C830.229 600.079 828.353 591.77 803.93 593.512C778.767 583.624 764.871 573.066 738.426 593.512C705.649 588.179 694.374 594.522 684.247 618.952Z" fill="#005158"/>
<path d="M-6.58704 695.27C-52.8463 648.598 -76.9827 679.068 -121.731 679.946C-132.384 655.74 -143.793 649.643 -176.447 655.682C-203.328 635.813 -216.993 646.668 -241.936 657.097C-266.39 655.884 -268.087 664.23 -265.868 683.06C-305.123 677.675 -300.003 688.345 -302.207 701.657C-333.602 716.898 -324.797 728.443 -330.935 746.553C-340.859 757.508 -343.91 763.903 -317.078 778.57C-324.289 798.706 -320.277 807.477 -291.766 816.446C-292.022 836.624 -289.597 846.399 -253.193 844.621C-241.839 858.218 -235.218 855.07 -223.398 849.066C-211.117 852.949 -205.033 852.444 -197.896 839.1C-191.227 854.502 -180.6 853.849 -157.909 847.651C-138.675 852.12 -132.023 848.627 -127.642 831.475C-114.622 842.514 -107.183 844.509 -93.5414 836.845C-64.2794 833.788 -51.2431 828.744 -46.2318 801.726C-38.5801 812.664 -33.4949 817.72 -12.3658 810.409C1.76618 811.428 -23.1012 934.628 -6.58705 916C6.49286 917.196 48.6632 909.788 53.5311 903.309C53.6681 903.282 53.8076 903.026 53.9416 902.5C53.8735 902.767 53.735 903.037 53.5311 903.309C51.8694 903.639 50.5733 870.439 63.9997 880.245C78.9093 888.541 77.2594 876.121 90.4996 868.932C81.1335 887.122 126.831 918.631 112.5 880.245C129.709 889.068 142.216 882.627 165.5 868.932C191.731 877.262 209.912 918.388 223 902.5C234.839 920.061 261.979 890.073 273.5 880.245C294.594 878.747 285.807 953.401 297.12 886.548C313.623 892.99 339.734 922.444 349.874 902.5C383.386 907.643 388.893 910.883 396.217 886.548C418.633 890.298 445.674 889.198 456.158 880.245C479.258 890.611 429.226 806.035 456.158 800.286C465.361 814.096 473.316 822.315 486.812 823.645L487.435 852.472C483.909 866.317 603.914 878.734 689.459 883.048C696.162 885.008 704.549 885.896 715.202 886.548C728.567 889.501 739.046 893.39 741.82 884.66C765.018 884.72 777.808 883.372 771.401 880.245C750.895 884.065 746.999 879.101 741.458 868.932C742.816 876.397 742.854 881.405 741.82 884.66C727.601 884.623 709.473 884.057 689.459 883.048C679.24 880.06 672.935 874.579 668.476 863.639C639.633 873.327 623.466 879.624 594.378 849.209C546.952 846.033 534.277 837.434 521.13 817.458C506.268 822.542 495.414 824.493 486.812 823.645L483.561 673.176C500.345 667.473 512.965 667.969 530.376 678.579C540.737 658.473 551.25 655.523 574.961 659.04C594.263 642.767 601.448 628.837 640.027 638.041C661.403 625.942 670.021 626.077 680.116 637.175C676.925 614.275 681.759 605.702 709.064 602.452C727.074 600.769 735.947 601.928 748.116 610.26L779.45 600.931L482 600.932L483.561 673.176C479.68 674.494 475.577 676.144 471.14 678.078C437.12 671.528 419.109 676.936 396.217 710.485C391.244 701.63 385.951 704.432 378.41 701.945C370.676 699.395 362.137 701.606 346.338 705.456C334.988 694.723 326.731 688.206 294.823 715.984C266.821 704.315 260.877 715.312 250.335 734.815L250.228 735.014C236.86 709.227 229.035 710.144 214.951 717.71C219.772 702.723 210.094 703.624 189.025 708.092C165.57 700.48 155.479 701.88 145.483 719.211C140.454 702.954 129.719 700.269 104.058 700.767C98.6607 684.034 74.8838 689.293 53.9416 705.158C29.4577 683.866 16.5963 689.766 -6.58704 695.27Z" fill="#002F4D"/>
</g>
<defs>
<filter id="filter0_f_38_3700" x="-75.665" y="34.7859" width="225.668" height="147.383" filterUnits="userSpaceOnUse" color-interpolation-filters="sRGB">
<feFlood flood-opacity="0" result="BackgroundImageFix"/>
<feBlend mode="normal" in="SourceGraphic" in2="BackgroundImageFix" result="shape"/>
<feGaussianBlur stdDeviation="2" result="effect1_foregroundBlur_38_3700"/>
</filter>
<filter id="filter1_f_38_3700" x="188.139" y="28.8291" width="226.728" height="149.951" filterUnits="userSpaceOnUse" color-interpolation-filters="sRGB">
<feFlood flood-opacity="0" result="BackgroundImageFix"/>
<feBlend mode="normal" in="SourceGraphic" in2="BackgroundImageFix" result="shape"/>
<feGaussianBlur stdDeviation="2" result="effect1_foregroundBlur_38_3700"/>
</filter>
<filter id="filter2_d_38_3700" x="-287.563" y="-164.328" width="841.92" height="349.232" filterUnits="userSpaceOnUse" color-interpolation-filters="sRGB">
<feFlood flood-opacity="0" result="BackgroundImageFix"/>
<feColorMatrix in="SourceAlpha" type="matrix" values="0 0 0 0 0 0 0 0 0 0 0 0 0 0 0 0 0 0 127 0" result="hardAlpha"/>
<feOffset dy="4"/>
<feGaussianBlur stdDeviation="2"/>
<feComposite in2="hardAlpha" operator="out"/>
<feColorMatrix type="matrix" values="0 0 0 0 0 0 0 0 0 0 0 0 0 0 0 0 0 0 0.25 0"/>
<feBlend mode="normal" in2="BackgroundImageFix" result="effect1_dropShadow_38_3700"/>
<feBlend mode="normal" in="SourceGraphic" in2="effect1_dropShadow_38_3700" result="shape"/>
</filter>
<filter id="filter3_d_38_3700" x="33.2504" y="390.079" width="330.788" height="296.153" filterUnits="userSpaceOnUse" color-interpolation-filters="sRGB">
<feFlood flood-opacity="0" result="BackgroundImageFix"/>
<feColorMatrix in="SourceAlpha" type="matrix" values="0 0 0 0 0 0 0 0 0 0 0 0 0 0 0 0 0 0 127 0" result="hardAlpha"/>
<feOffset dy="1.74956"/>
<feGaussianBlur stdDeviation="0.874781"/>
<feComposite in2="hardAlpha" operator="out"/>
<feColorMatrix type="matrix" values="0 0 0 0 0.533333 0 0 0 0 0.733333 0 0 0 0 0.760784 0 0 0 1 0"/>
<feBlend mode="normal" in2="BackgroundImageFix" result="effect1_dropShadow_38_3700"/>
<feBlend mode="normal" in="SourceGraphic" in2="effect1_dropShadow_38_3700" result="shape"/>
</filter>
<filter id="filter4_d_38_3700" x="30.6261" y="390.079" width="336.036" height="301.402" filterUnits="userSpaceOnUse" color-interpolation-filters="sRGB">
<feFlood flood-opacity="0" result="BackgroundImageFix"/>
<feColorMatrix in="SourceAlpha" type="matrix" values="0 0 0 0 0 0 0 0 0 0 0 0 0 0 0 0 0 0 127 0" result="hardAlpha"/>
<feOffset dy="4.3739"/>
<feGaussianBlur stdDeviation="2.18695"/>
<feComposite in2="hardAlpha" operator="out"/>
<feColorMatrix type="matrix" values="0 0 0 0 0 0 0 0 0 0 0 0 0 0 0 0 0 0 0.25 0"/>
<feBlend mode="normal" in2="BackgroundImageFix" result="effect1_dropShadow_38_3700"/>
<feBlend mode="normal" in="SourceGraphic" in2="effect1_dropShadow_38_3700" result="shape"/>
</filter>
<filter id="filter5_d_38_3700" x="25.2953" y="587.888" width="83.6955" height="107.12" filterUnits="userSpaceOnUse" color-interpolation-filters="sRGB">
<feFlood flood-opacity="0" result="BackgroundImageFix"/>
<feColorMatrix in="SourceAlpha" type="matrix" values="0 0 0 0 0 0 0 0 0 0 0 0 0 0 0 0 0 0 127 0" result="hardAlpha"/>
<feOffset dy="3.43077"/>
<feGaussianBlur stdDeviation="1.71539"/>
<feComposite in2="hardAlpha" operator="out"/>
<feColorMatrix type="matrix" values="0 0 0 0 0 0 0 0 0 0 0 0 0 0 0 0 0 0 0.25 0"/>
<feBlend mode="normal" in2="BackgroundImageFix" result="effect1_dropShadow_38_3700"/>
<feBlend mode="normal" in="SourceGraphic" in2="effect1_dropShadow_38_3700" result="shape"/>
</filter>
<filter id="filter6_d_38_3700" x="-38.5563" y="470.711" width="129.778" height="197.03" filterUnits="userSpaceOnUse" color-interpolation-filters="sRGB">
<feFlood flood-opacity="0" result="BackgroundImageFix"/>
<feColorMatrix in="SourceAlpha" type="matrix" values="0 0 0 0 0 0 0 0 0 0 0 0 0 0 0 0 0 0 127 0" result="hardAlpha"/>
<feOffset dy="3.43077"/>
<feGaussianBlur stdDeviation="1.71539"/>
<feComposite in2="hardAlpha" operator="out"/>
<feColorMatrix type="matrix" values="0 0 0 0 0 0 0 0 0 0 0 0 0 0 0 0 0 0 0.25 0"/>
<feBlend mode="normal" in2="BackgroundImageFix" result="effect1_dropShadow_38_3700"/>
<feBlend mode="normal" in="SourceGraphic" in2="effect1_dropShadow_38_3700" result="shape"/>
</filter>
<filter id="filter7_d_38_3700" x="330.664" y="584.054" width="79.4971" height="114.443" filterUnits="userSpaceOnUse" color-interpolation-filters="sRGB">
<feFlood flood-opacity="0" result="BackgroundImageFix"/>
<feColorMatrix in="SourceAlpha" type="matrix" values="0 0 0 0 0 0 0 0 0 0 0 0 0 0 0 0 0 0 127 0" result="hardAlpha"/>
<feOffset dy="4.08692"/>
<feGaussianBlur stdDeviation="2.04346"/>
<feComposite in2="hardAlpha" operator="out"/>
<feColorMatrix type="matrix" values="0 0 0 0 0 0 0 0 0 0 0 0 0 0 0 0 0 0 0.25 0"/>
<feBlend mode="normal" in2="BackgroundImageFix" result="effect1_dropShadow_38_3700"/>
<feBlend mode="normal" in="SourceGraphic" in2="effect1_dropShadow_38_3700" result="shape"/>
</filter>
<clipPath id="clip0_38_3700">
<rect width="428" height="860" fill="white"/>
</clipPath>
</defs>
</svg>
