<svg width="375" height="717" viewBox="0 0 375 717" fill="none" xmlns="http://www.w3.org/2000/svg">
<path d="M147.179 8.87326C126.55 14.1868 100.838 31.0953 96.8149 39.2197C95.4834 41.909 95.1561 42.7522 98.3634 43.8628C101.451 44.9321 104.561 45.0199 108.658 45.9254C112.297 46.7294 114.469 46.9004 118.182 47.2171C122.176 47.5579 124.73 47.9276 128.734 47.7301C131.308 47.6032 134.964 47.2957 139.287 46.6988C144.22 46.0177 147.184 45.9968 152.05 44.9321C156.538 43.9499 158.99 43.1266 163.455 42.0442C168.219 40.8894 170.872 40.1497 175.684 39.2197C178.249 38.7241 179.698 38.5086 182.274 38.0772C184.722 37.6673 186.088 37.3927 188.547 37.0616C191.1 36.7181 192.545 36.644 195.106 36.3634C197.098 36.1451 198.213 36.0042 200.207 35.7922C205.001 35.2821 207.682 34.8525 212.499 34.6497C216.504 34.4811 218.756 34.5834 222.764 34.6497C231.349 34.7918 236.163 35.0924 244.72 35.7922C249.292 36.1661 251.886 36.1804 256.411 36.9347C258.426 37.2707 259.534 37.5797 261.543 37.9502C264.549 38.5045 266.217 39.4267 269.267 39.2197C271.43 39.0728 275.449 43.206 272.707 39.773C270.813 37.4022 266.535 34.5535 263.931 32.1421C261.193 29.606 260.744 31.0187 257.813 28.7082C256.138 27.3879 254.652 26.1822 253.536 25.3125C251.954 24.0801 250.083 22.964 247.802 21.5676C243.022 18.642 240.165 17.2947 235.129 14.8396C230.737 12.6987 223.723 9.69839 223.723 9.69839C223.723 9.69839 206.88 3.95747 195.653 2.74822C190.554 2.19911 187.663 2.20715 182.536 2.14524C179.975 2.11432 178.527 1.9252 175.978 2.17697C174.067 2.36574 173.038 2.7849 171.131 3.00211C169.136 3.22919 167.987 3.01707 165.998 3.28773C163.785 3.58882 162.586 4.0038 160.422 4.55717C155.152 5.90487 151.694 7.71019 147.179 8.87326Z" fill="#E0BEA2"/>
<circle cx="145.924" cy="29.4084" r="2.2421" fill="#C4631F"/>
<circle cx="155.889" cy="21.9348" r="2.2421" fill="#C4631F"/>
<circle cx="164.858" cy="15.4576" r="2.2421" fill="#C4631F"/>
<circle cx="163.861" cy="29.4084" r="2.2421" fill="#C4631F"/>
<circle cx="173.826" cy="21.9348" r="2.2421" fill="#C4631F"/>
<circle cx="191.265" cy="21.9348" r="2.2421" fill="#C4631F"/>
<circle cx="199.236" cy="15.4576" r="2.2421" fill="#C4631F"/>
<circle cx="242.085" cy="35.8856" r="2.2421" fill="#C4631F"/>
<circle cx="253.545" cy="38.3768" r="2.2421" fill="#C4631F"/>
<circle cx="262.513" cy="39.8716" r="2.2421" fill="#C4631F"/>
<circle cx="181.299" cy="29.4084" r="2.2421" fill="#C4631F"/>
<circle cx="198.738" cy="29.4084" r="2.2421" fill="#C4631F"/>
<circle cx="208.703" cy="21.9348" r="2.2421" fill="#C4631F"/>
<circle cx="226.64" cy="21.9348" r="2.2421" fill="#C4631F"/>
<circle cx="234.113" cy="29.4084" r="2.2421" fill="#C4631F"/>
<circle cx="244.078" cy="22.433" r="2.2421" fill="#C4631F"/>
<circle cx="252.548" cy="28.9102" r="2.2421" fill="#C4631F"/>
<circle cx="227.138" cy="34.8891" r="2.2421" fill="#C4631F"/>
<circle cx="216.675" cy="28.9102" r="2.2421" fill="#C4631F"/>
<circle cx="207.706" cy="35.3873" r="2.2421" fill="#C4631F"/>
<circle cx="189.271" cy="36.882" r="2.2421" fill="#C4631F"/>
<circle cx="171.334" cy="38.3768" r="2.2421" fill="#C4631F"/>
<circle cx="154.394" cy="36.882" r="2.2421" fill="#C4631F"/>
<circle cx="145.924" cy="44.3557" r="2.2421" fill="#C4631F"/>
<circle cx="127.489" cy="46.3487" r="2.2421" fill="#C4631F"/>
<circle cx="118.52" cy="37.3803" r="2.2421" fill="#C4631F"/>
<circle cx="110.549" cy="29.4084" r="2.2421" fill="#C4631F"/>
<circle cx="111.546" cy="44.3557" r="2.2421" fill="#C4631F"/>
<circle cx="100.584" cy="41.3662" r="2.2421" fill="#C4631F"/>
<circle cx="136.458" cy="37.3803" r="2.2421" fill="#C4631F"/>
<circle cx="128.486" cy="29.4084" r="2.2421" fill="#C4631F"/>
<circle cx="137.953" cy="21.9348" r="2.2421" fill="#C4631F"/>
<circle cx="120.514" cy="21.9348" r="2.2421" fill="#C4631F"/>
<ellipse cx="181.798" cy="14.9593" rx="2.2421" ry="1.74385" fill="#C4631F"/>
<ellipse cx="147.419" cy="15.4576" rx="2.2421" ry="1.74385" fill="#C4631F"/>
<ellipse cx="159.875" cy="10.9734" rx="1.74385" ry="1.24561" fill="#C4631F"/>
<ellipse cx="168.345" cy="7.98395" rx="1.74385" ry="1.24561" fill="#C4631F"/>
<ellipse cx="173.826" cy="10.4752" rx="1.74385" ry="1.24561" fill="#C4631F"/>
<ellipse cx="176.815" cy="5.49268" rx="1.74385" ry="1.24561" fill="#C4631F"/>
<ellipse cx="188.773" cy="5.99097" rx="1.74385" ry="1.24561" fill="#C4631F"/>
<ellipse cx="182.047" cy="8.23307" rx="1.99298" ry="1.49473" fill="#C4631F"/>
<ellipse cx="188.026" cy="10.7243" rx="1.99298" ry="1.49473" fill="#C4631F"/>
<ellipse cx="195.998" cy="8.23307" rx="1.99298" ry="1.49473" fill="#C4631F"/>
<ellipse cx="204.468" cy="10.7243" rx="1.99298" ry="1.49473" fill="#C4631F"/>
<ellipse cx="215.928" cy="15.7068" rx="1.99298" ry="1.49473" fill="#C4631F"/>
<ellipse cx="213.934" cy="10.7243" rx="1.99298" ry="1.49473" fill="#C4631F"/>
<path d="M96.7155 47.3236C96.2426 47.3889 95.7926 47.4007 95.2891 47.0223L96.7155 47.3236C97.3634 47.234 98.0543 47.044 98.9848 47.6193C99.1603 47.7278 99.3277 47.8237 99.4889 47.9093L105.972 49.2787L125.431 52.1251L150.231 50.0756L181.518 42.5857L207.463 38.7703L231.5 39.5333L258.972 41.8226L273.089 44.4934C272.025 47.6591 270.141 45.3014 267.55 46.6545C265.854 47.5396 263.834 48.0483 262.026 48.7384C260.318 49.3899 259.629 49.7762 257.498 50.0756C255.708 50.327 254.139 50.1602 252.333 50.0756C250.549 49.9921 249.351 49.5286 247.426 49.2787C245.717 49.0569 244.711 49.0455 243.035 48.8349C241.088 48.5901 240.339 48.4965 238.387 48.2946C236.328 48.0818 234.424 47.8829 232.963 47.6193C231.278 47.3154 229.537 47.6193 227.811 47.6193H216.937C212.766 47.6193 208.668 48.3139 204.527 48.3139C202.179 48.3139 199.931 48.6612 197.564 48.6612C195.519 48.6612 192.909 48.7236 190.951 49.2787C189.318 49.7413 187.433 49.4503 185.193 49.7032C182.61 49.9948 181.183 50.3197 178.618 50.7451C172.829 51.7057 169.555 52.1368 163.835 53.4465C161.471 53.9878 159.712 54.4713 157.809 54.9432C154.809 55.6872 151.961 56.8348 148.858 56.9968C147.088 57.0892 145.457 57.0364 143.346 57.249C140.988 57.4865 139.516 57.0927 137.148 56.9968C127.19 56.5936 122.06 55.2751 112.613 52.1251C109.059 50.9401 106.776 50.7094 103.315 49.2787C101.735 48.6253 100.824 48.6185 99.4889 47.9093L96.7155 47.3236Z" fill="#E0BEA2"/>
<path d="M252.486 53.1271L270.8 44.7331" stroke="#B29172" stroke-width="2.5"/>
<path d="M256.301 53.1271L274.615 44.7331" stroke="#B29172" stroke-width="2.5"/>
<path d="M246.38 51.6009L264.695 43.2069" stroke="#B29172" stroke-width="2.5"/>
<path d="M249.433 52.3639L267.747 43.97" stroke="#B29172" stroke-width="2.5"/>
<path d="M242.947 51.2194L261.643 42.4438" stroke="#B29172" stroke-width="2.5"/>
<path d="M239.513 51.2193L257.446 42.0622" stroke="#B29172" stroke-width="2.5"/>
<path d="M237.224 50.8377L253.249 41.2991" stroke="#B29172" stroke-width="2.5"/>
<path d="M235.316 50.4562L249.433 40.5361" stroke="#B29172" stroke-width="2.5"/>
<path d="M232.645 50.0747L245.618 40.5361" stroke="#B29172" stroke-width="2.5"/>
<path d="M230.737 50.0747L242.184 40.5361" stroke="#B29172" stroke-width="2.5"/>
<path d="M228.83 50.4562L239.131 39.7729" stroke="#B29172" stroke-width="2.5"/>
<path d="M227.303 50.0747L235.697 40.1545" stroke="#B29172" stroke-width="2.5"/>
<path d="M225.396 50.0747L232.645 40.1545" stroke="#B29172" stroke-width="2.5"/>
<path d="M223.488 50.0747L229.975 40.1545" stroke="#B29172" stroke-width="2.5"/>
<path d="M221.962 50.0747L226.922 40.1545" stroke="#B29172" stroke-width="2.5"/>
<path d="M220.436 50.0747L224.251 40.1545" stroke="#B29172" stroke-width="2.5"/>
<path d="M218.91 50.0747L221.58 40.1545" stroke="#B29172" stroke-width="2.5"/>
<path d="M217.383 50.0747L218.909 40.1545" stroke="#B29172" stroke-width="2.5"/>
<path d="M215.857 50.0747L216.62 40.1545" stroke="#B29172" stroke-width="2.5"/>
<path d="M213.95 50.0747L214.331 40.1545" stroke="#B29172" stroke-width="2.5"/>
<path d="M212.042 50.0747L212.423 40.1545" stroke="#B29172" stroke-width="2.5"/>
<path d="M241.635 58.3515C247.97 56.698 250.772 54.8592 256.301 53.8901L241.039 51.2193L222.725 50.8378L195.254 52.3639L176.558 54.2717L157.481 58.3515L146.163 60.8642C143.747 60.8642 150.475 61.5352 154.421 61.9855C156.403 62.2117 158.662 62.1526 161.348 62.5344C162.252 62.6629 163.102 62.7459 163.656 62.9117C164.527 63.1728 165.582 62.9428 166.403 63.3062C167.947 63.9894 169.983 63.679 171.652 63.7692C173.359 63.8616 175.12 63.7692 176.869 63.7692H190.286C193.842 63.7692 197.875 62.9117 201.382 62.9117C202.988 62.9117 205.021 63.0633 206.542 62.5344C208.483 61.8595 210.308 62.0756 212.735 61.9855C214.491 61.9203 215.484 62.1292 217.235 61.9855C218.881 61.8504 220.052 61.4488 221.409 61.3166C224.811 60.9853 227.703 60.278 231.748 59.6872C235.603 59.1242 238.435 59.1866 241.635 58.3515Z" fill="#C8BFB6"/>
<path d="M210.516 50.0747V40.1545" stroke="#B29172" stroke-width="2.5"/>
<path d="M208.989 50.0747L208.608 40.1545" stroke="#B29172" stroke-width="2.5"/>
<path d="M207.082 50.8378L206.7 40.9176" stroke="#B29172" stroke-width="2.5"/>
<path d="M204.792 50.8378L204.41 40.9176" stroke="#B29172" stroke-width="2.5"/>
<path d="M202.503 50.8378L202.121 40.9176" stroke="#B29172" stroke-width="2.5"/>
<path d="M200.214 50.8378L199.832 40.9176" stroke="#B29172" stroke-width="2.5"/>
<path d="M197.925 50.8378L197.543 40.9176" stroke="#B29172" stroke-width="2.5"/>
<path d="M195.635 51.6008L195.254 41.6807" stroke="#B29172" stroke-width="2.5"/>
<path d="M193.346 51.6008L192.965 41.6807" stroke="#B29172" stroke-width="2.5"/>
<path d="M191.057 52.364L190.675 42.4438" stroke="#B29172" stroke-width="2.5"/>
<path d="M188.768 52.364L188.386 42.4438" stroke="#B29172" stroke-width="2.5"/>
<path d="M186.478 52.364L186.096 42.4438" stroke="#B29172" stroke-width="2.5"/>
<path d="M184.189 52.364L183.426 42.4438" stroke="#B29172" stroke-width="2.5"/>
<path d="M182.281 53.1271L181.137 43.2069" stroke="#B29172" stroke-width="2.5"/>
<path d="M180.374 53.8901L178.847 43.97" stroke="#B29172" stroke-width="2.5"/>
<path d="M177.703 53.8901L176.176 43.97" stroke="#B29172" stroke-width="2.5"/>
<path d="M175.414 53.8902L173.887 44.7331" stroke="#B29172" stroke-width="2.5"/>
<path d="M173.124 54.6532L171.598 45.4962" stroke="#B29172" stroke-width="2.5"/>
<path d="M170.835 55.4163L168.927 46.2593" stroke="#B29172" stroke-width="2.5"/>
<path d="M168.927 55.4163L166.638 47.0223" stroke="#B29172" stroke-width="2.5"/>
<path d="M166.638 55.7978L163.967 47.7854" stroke="#B29172" stroke-width="2.5"/>
<path d="M164.349 56.1794L161.296 48.1669" stroke="#B29172" stroke-width="2.5"/>
<path d="M162.441 56.5609L159.007 48.9301" stroke="#B29172" stroke-width="2.5"/>
<path d="M159.771 56.9425L156.337 49.3116" stroke="#B29172" stroke-width="2.5"/>
<path d="M158.244 57.7055L153.665 50.0746" stroke="#B29172" stroke-width="2.5"/>
<path d="M155.573 58.4687L150.995 50.8378" stroke="#B29172" stroke-width="2.5"/>
<path d="M152.902 58.8503L148.324 51.2194" stroke="#B29172" stroke-width="2.5"/>
<path d="M148.058 8.82522C127.429 14.1387 97.3338 34.5313 93.3112 42.6557C91.9797 45.3451 95.1567 47.3307 98.3639 48.4413C101.452 49.5107 104.561 49.5985 108.659 50.5039C112.298 51.3079 114.469 51.4789 118.182 51.7957C122.176 52.1364 124.731 52.5061 128.735 52.3086C131.309 52.1817 134.964 51.8743 139.288 51.2774C144.221 50.5962 147.185 50.5754 152.05 49.5107C156.539 48.5285 158.99 47.7052 163.456 46.6227C168.219 45.4679 170.873 44.7282 175.685 43.7982C178.25 43.3026 179.699 43.0871 182.275 42.6557C184.723 42.2458 186.089 41.9712 188.548 41.6402C191.101 41.2966 192.546 41.2225 195.106 40.942C197.099 40.7237 198.214 40.5828 200.207 40.3707C205.001 39.8607 207.683 39.431 212.5 39.2282C216.505 39.0596 218.757 39.1619 222.765 39.2282C231.35 39.3703 236.163 39.6709 244.721 40.3707C249.293 40.7446 251.887 40.7589 256.411 41.5132C258.427 41.8492 259.535 42.1583 261.544 42.5288C264.55 43.0831 266.218 44.0052 269.268 43.7982C271.431 43.6514 277.414 45.9618 274.673 42.5288C272.779 40.1579 268.837 36.9428 266.233 34.5313C263.494 31.9952 261.623 30.9707 258.693 28.6602C257.018 27.3398 255.532 26.1342 254.416 25.2644C252.834 24.032 250.962 22.916 248.681 21.5196C243.902 18.5939 241.045 17.2467 236.008 14.7916C231.616 12.6507 224.602 9.65035 224.602 9.65035C224.602 9.65035 207.759 3.90943 196.532 2.70019C191.434 2.15108 188.543 2.15911 183.416 2.0972C180.855 2.06628 179.406 1.87716 176.857 2.12894C174.946 2.3177 173.918 2.73687 172.01 2.95407C170.015 3.18115 168.867 2.96904 166.877 3.2397C164.665 3.54078 163.465 3.95576 161.301 4.50913C156.032 5.85684 152.574 7.66216 148.058 8.82522Z" stroke="#C4631F" stroke-width="2.5" stroke-linecap="round" stroke-linejoin="round"/>
<path d="M257.064 53.8901C251.535 54.8591 248.734 56.698 242.398 58.3515C239.198 59.1865 236.366 59.1242 232.511 59.6872C228.466 60.278 225.574 60.9853 222.172 61.3166C220.815 61.4487 219.644 61.8504 217.998 61.9855C216.247 62.1291 215.254 61.9203 213.498 61.9855C211.072 62.0755 209.246 61.8595 207.306 62.5343C205.785 63.0632 203.751 62.9116 202.145 62.9116C198.638 62.9116 194.605 63.7692 191.05 63.7692C186.4 63.7692 182.282 63.7692 177.632 63.7692C175.884 63.7692 174.122 63.8615 172.415 63.7692C170.746 63.6789 168.71 63.9894 167.166 63.3061C166.345 62.9427 165.29 63.1727 164.419 62.9116C163.865 62.7458 163.015 62.6628 162.111 62.5343C159.426 62.1526 157.166 62.2117 155.184 61.9855C151.238 61.5351 144.511 60.8641 146.927 60.8641" stroke="#C4631F" stroke-width="2.5" stroke-linecap="round" stroke-linejoin="round"/>
<path d="M170.034 75.6698C170.583 68.2059 169.587 62.8827 169.587 56.5118L196.526 53.1271C196.526 56.2745 196.124 59.3581 196.124 62.4849C196.124 66.1203 195.994 69.1339 196.124 73.3912C196.179 75.1977 196.325 76.4942 196.325 78.0148C196.325 79.2555 196.549 80.2015 196.727 81.5986C196.994 83.6872 196.965 84.901 197.532 86.9301C197.871 88.1456 198.196 88.7851 198.626 89.9719C199.076 91.2129 199.37 91.8945 199.788 93.1465C200.529 95.3673 200.616 96.7128 201.396 98.9204C202.129 100.992 202.685 102.101 203.608 104.097C204.591 106.223 205.321 107.331 206.294 109.462C207.051 111.118 207.565 112.668 208.113 113.754C208.704 114.923 209.131 117.52 209.673 118.727C210.107 119.696 208.682 119.499 207.594 119.499C206.823 119.499 205.765 119.242 204.995 119.242C204.539 119.242 202.754 118.662 202.558 118.322C202.4 118.049 202.098 117.913 201.91 117.68C201.717 117.441 201.731 117.137 201.597 116.84C201.093 115.717 200.775 117.009 200.447 117.724C200.152 118.367 198.42 118.034 197.777 118.034C196.186 118.034 194.466 118.45 193.31 117.238C192.801 116.704 192.802 115.875 192.104 116.74C191.544 117.432 190.719 117.437 189.847 117.437C189.429 117.437 187.882 117.664 187.882 117.138C187.882 116.363 187.462 115.168 187.234 114.406C186.959 113.486 186.968 112.686 185.961 113.256C184.617 114.016 185.154 116.74 183.425 116.74C182.722 116.74 181.27 116.411 180.567 116.411C179.881 116.411 180.23 114.588 179.639 114.296C179.077 114.017 178.384 116.47 177.539 116.231C176.891 116.048 176.097 115.833 175.462 115.446C175.103 115.227 174.695 115.364 174.602 114.948C174.516 114.567 174.391 114.032 174.111 113.754C173.265 112.916 173.088 113.418 172.251 114.296C171.318 115.274 169.653 114.321 168.381 114.251C167.91 114.225 167.336 113.118 167.085 113.366C166.341 114.103 166.275 114.251 165.164 114.251C164.75 114.251 164.58 114.24 164.248 114.052C164.001 113.912 163.904 113.131 163.746 113.366C163.353 113.95 163.151 114.295 162.35 114.251C161.658 114.213 160.856 113.798 160.25 113.455C159.866 113.238 160.714 111.76 160.987 110.667C161.259 109.582 161.329 108.953 161.646 107.88C162.069 106.446 162.494 105.705 162.997 104.296C164.229 100.846 164.699 98.8395 165.767 95.3366C166.32 93.5234 166.636 92.5085 167.175 90.6909C167.92 88.1744 168.486 86.7981 169.029 84.2312C169.725 80.9366 169.787 79.0269 170.034 75.6698Z" fill="#F9F6EF"/>
<path d="M170.35 55.7486C170.35 62.1195 171.346 67.4427 170.797 74.9066C170.55 78.2636 170.488 80.1734 169.791 83.4679C169.249 86.0349 168.683 87.4111 167.937 89.9277C167.399 91.7452 167.083 92.7602 166.53 94.5734C165.462 98.0763 164.992 100.083 163.76 103.533C163.257 104.941 162.832 105.683 162.409 107.117C162.092 108.19 162.021 108.819 161.75 109.904C161.476 110.996 160.629 112.474 161.013 112.692C161.619 113.035 162.421 113.45 163.112 113.488C163.914 113.532 164.116 113.186 164.508 112.603C164.667 112.368 164.763 113.149 165.011 113.289C165.342 113.476 165.513 113.488 165.927 113.488C167.037 113.488 167.104 113.34 167.848 112.603C168.099 112.355 168.673 113.462 169.144 113.488C170.415 113.558 172.081 114.511 173.014 113.532C173.85 112.655 174.028 112.153 174.873 112.99C175.154 113.268 175.279 113.804 175.365 114.185C175.458 114.601 175.865 114.464 176.225 114.683C176.86 115.07 177.654 115.285 178.302 115.468C179.146 115.707 179.839 113.254 180.402 113.532C180.993 113.825 180.643 115.648 181.329 115.648C182.033 115.648 183.484 115.977 184.188 115.977C185.916 115.977 185.38 113.253 186.723 112.493C187.731 111.922 187.721 112.723 187.997 113.643C188.224 114.404 188.644 115.599 188.644 116.375C188.644 116.901 190.192 116.674 190.61 116.674C191.482 116.674 192.307 116.669 192.866 115.977C193.565 115.112 193.564 115.941 194.072 116.475C195.228 117.687 196.949 117.271 198.54 117.271C199.182 117.271 200.915 117.604 201.209 116.961C201.538 116.246 201.856 114.953 202.36 116.076C202.493 116.374 202.48 116.678 202.673 116.917C202.861 117.15 203.163 117.286 203.32 117.559C203.517 117.899 205.302 118.479 205.758 118.479C206.528 118.479 207.586 118.736 208.356 118.736C209.444 118.736 210.87 118.933 210.435 117.964C209.894 116.757 209.466 114.159 208.876 112.99C208.328 111.905 207.814 110.355 207.057 108.699C206.083 106.568 205.353 105.46 204.37 103.334C203.447 101.338 202.891 100.229 202.159 98.1572C201.378 95.9495 201.292 94.6041 200.55 92.3833C200.132 91.1313 199.839 90.4497 199.389 89.2087C198.958 88.0219 198.634 87.3824 198.294 86.1669C197.728 84.1378 197.757 82.9239 197.49 80.8354C197.312 79.4383 197.088 78.4923 197.088 77.2515C197.088 75.731 196.942 74.4344 196.887 72.628C196.757 68.3707 196.887 65.3571 196.887 61.7216C196.887 58.5949 197.289 55.5113 197.289 52.3638" stroke="#B29172" stroke-width="2.5" stroke-linecap="round" stroke-linejoin="round"/>
<path d="M96.0522 47.9273C97.2457 48.8242 98.1384 50.0579 99.748 51.0532C101.377 52.0601 102.307 51.9803 104.079 52.7126C107.54 54.1432 109.822 54.374 113.376 55.559C122.823 58.709 127.953 60.0275 137.911 60.4307C140.279 60.5266 141.751 60.9203 144.109 60.6829C146.22 60.4703 147.852 60.5231 149.621 60.4307C152.724 60.2687 155.572 59.1211 158.572 58.3771C160.475 57.9051 162.235 57.4217 164.599 56.8804C170.318 55.5707 173.592 55.1396 179.382 54.179C181.946 53.7536 183.373 53.4287 185.956 53.1371C188.196 52.8842 190.082 53.1751 191.714 52.7126C193.672 52.1575 196.282 52.0951 198.327 52.0951C200.694 52.0951 202.942 51.7478 205.291 51.7478C209.431 51.7478 213.53 51.0532 217.701 51.0532C221.325 51.0532 224.949 51.0532 228.574 51.0532C230.3 51.0532 232.041 50.7493 233.726 51.0532C235.188 51.3168 237.091 51.5157 239.15 51.7285C241.102 51.9303 241.851 52.024 243.798 52.2688C245.474 52.4794 246.48 52.4908 248.189 52.7126C250.114 52.9625 251.312 53.426 253.096 53.5095C254.902 53.594 256.471 53.7609 258.261 53.5095C260.392 53.2101 261.081 52.8238 262.789 52.1723C264.598 51.4821 266.618 50.9735 268.313 50.0884C270.905 48.7353 273.551 48.6618 274.615 45.4961" stroke="#C4631F" stroke-width="2.5" stroke-linecap="round" stroke-linejoin="round"/>
<path d="M170.072 114.174C170.072 120.196 170.436 125.965 171.387 131.87C171.881 134.936 172.118 137.997 172.118 141.109C172.118 144.755 172.859 148.51 172.994 152.169C173.043 153.479 173.797 154.7 173.871 156.04C173.961 157.668 174.491 159.472 174.813 161.082C175.558 164.816 176.698 168.393 177.378 172.142C178.177 176.544 179.556 180.863 180.755 185.154C181.264 186.975 181.837 189.15 182.509 190.88C182.908 191.909 183.067 192.954 183.288 194.035C183.347 194.326 183.807 196.578 183.807 195.564" stroke="#B29172" stroke-width="2.5" stroke-linecap="round" stroke-linejoin="round"/>
<path d="M199.832 117.226C199.832 121.159 200.777 124.794 200.918 128.647C201.101 133.638 202.96 138.598 203.452 143.562C203.666 145.731 204.537 147.813 204.92 149.943C205.29 152.003 206.042 154.99 207.072 156.812C209.272 160.703 209.594 165.941 211.415 170.081C214.212 176.441 216.886 183.009 220.646 188.919C222.352 191.601 223.531 194.61 224.809 197.515C225.476 199.032 226.323 200.595 227.061 202.087C227.665 203.307 227.498 204.596 228.066 205.745" stroke="#B29172" stroke-width="2.5" stroke-linecap="round" stroke-linejoin="round"/>
<path d="M239.464 165.324C239.464 168.207 239.505 171.139 238.735 173.932C238.349 175.33 238.113 176.717 237.508 178.061C236.869 179.482 236.265 180.848 235.742 182.302C234.515 185.711 232.154 188.401 230.057 191.261C229.202 192.426 228.292 193.443 227.253 194.443C226.625 195.048 225.861 195.973 225.08 196.364" stroke="#B29172" stroke-width="2.5" stroke-linecap="round" stroke-linejoin="round"/>
<path d="M258.608 165.847C258.608 169.382 258.191 172.679 257.891 176.128C257.798 177.197 257.596 178.26 257.336 179.296C257.003 180.629 256.529 182.243 256.428 183.604C256.368 184.427 256.021 185.298 255.874 186.106C255.628 187.455 255.314 188.77 254.794 190.041C252.755 195.025 251.209 200.849 247.268 204.791C246.382 205.676 245.772 206.831 244.897 207.707C244.071 208.532 243.527 209.807 242.586 210.521C240.934 211.778 239.917 215.243 237.36 215.243" stroke="#B29172" stroke-width="2.5" stroke-linecap="round" stroke-linejoin="round"/>
<path d="M246.939 165.408C238.501 165.324 232.47 165.396 225.33 165.396L225.33 161.477C225.33 158.364 225.114 158.263 226.753 155.452C228.44 152.558 228.627 150.199 231.281 148.156C232.438 147.265 233.025 146.723 234.251 145.928C235.136 145.355 236.108 144.761 237.035 144.258C241.34 141.924 244.655 142.064 248.932 142.064C251.27 142.064 253.053 142.83 255.631 143.565C256.984 143.951 257.807 144.026 259.064 144.658C260.046 145.151 260.519 145.569 261.405 146.218C263.601 147.826 264.848 148.796 266.544 150.924C268.04 152.804 268.703 154.022 269.677 156.219C270.885 158.942 271.497 160.596 271.73 163.566C271.829 164.828 271.489 164.421 271.272 165.396C271.172 165.849 270.936 165.613 269.677 165.828C265.915 166.473 263.721 165.686 259.905 165.612L259.863 165.612C254.826 165.514 251.989 165.459 246.939 165.408Z" fill="#E0BEA2"/>
<path d="M248.389 165.135C239.951 165.05 233.92 165.123 226.78 165.123C225.334 165.135 225.705 160.704 225.705 159.326C225.705 156.213 227.036 155.27 228.675 152.458C230.362 149.564 231.218 148.191 233.872 146.147C235.029 145.256 235.616 144.714 236.842 143.92C237.727 143.347 238.699 142.752 239.626 142.25C243.93 139.916 247.246 140.056 251.523 140.056C253.861 140.056 255.644 140.821 258.222 141.557C259.575 141.943 260.398 142.018 261.655 142.649C262.637 143.142 263.11 143.561 263.996 144.21C266.191 145.818 267.439 146.787 269.134 148.916C270.631 150.795 271.293 152.014 272.268 154.21C273.476 156.933 274.087 158.587 274.321 161.557C274.42 162.819 274.525 163.823 274.309 164.799C274.208 165.252 272.386 165.34 271.127 165.555C267.365 166.199 265.171 165.413 261.355 165.339L261.314 165.338C256.276 165.241 253.439 165.186 248.389 165.135Z" stroke="#C4631F" stroke-width="2.5" stroke-linecap="round" stroke-linejoin="round"/>
<circle cx="246.679" cy="155.799" r="1.29928" fill="#C4631F"/>
<circle cx="250.019" cy="159.883" r="1.29928" fill="#C4631F"/>
<circle cx="267.838" cy="159.883" r="1.29928" fill="#C4631F"/>
<circle cx="240.739" cy="155.799" r="1.29928" fill="#C4631F"/>
<circle cx="244.08" cy="159.883" r="1.29928" fill="#C4631F"/>
<circle cx="261.899" cy="159.883" r="1.29928" fill="#C4631F"/>
<circle cx="234.8" cy="155.799" r="1.29928" fill="#C4631F"/>
<circle cx="229.726" cy="155.412" r="1.29928" fill="#C4631F"/>
<circle cx="252.247" cy="155.799" r="1.29928" fill="#C4631F"/>
<circle cx="255.588" cy="159.883" r="1.29928" fill="#C4631F"/>
<circle cx="273.407" cy="159.883" r="1.29928" fill="#C4631F"/>
<circle cx="258.186" cy="155.799" r="1.29928" fill="#C4631F"/>
<circle cx="264.126" cy="155.799" r="1.29928" fill="#C4631F"/>
<circle cx="270.066" cy="155.799" r="1.29928" fill="#C4631F"/>
<circle cx="244.823" cy="150.973" r="1.29928" fill="#C4631F"/>
<circle cx="238.883" cy="150.973" r="1.29928" fill="#C4631F"/>
<circle cx="232.943" cy="150.973" r="1.29928" fill="#C4631F"/>
<circle cx="232.572" cy="159.883" r="1.29928" fill="#C4631F"/>
<circle cx="227.048" cy="160.099" r="1.29928" fill="#C4631F"/>
<circle cx="238.141" cy="159.883" r="1.29928" fill="#C4631F"/>
<ellipse cx="240.368" cy="163.595" rx="1.29928" ry="0.556833" fill="#C4631F"/>
<ellipse cx="247.421" cy="163.595" rx="1.29928" ry="0.556833" fill="#C4631F"/>
<ellipse cx="254.103" cy="163.595" rx="1.29928" ry="0.556833" fill="#C4631F"/>
<ellipse cx="260.785" cy="163.595" rx="1.29928" ry="0.556833" fill="#C4631F"/>
<ellipse cx="267.467" cy="163.595" rx="1.29928" ry="0.556833" fill="#C4631F"/>
<ellipse cx="273.778" cy="163.595" rx="1.29928" ry="0.556833" fill="#C4631F"/>
<ellipse cx="233.686" cy="163.595" rx="1.29928" ry="0.556833" fill="#C4631F"/>
<ellipse cx="227.718" cy="164.042" rx="1.29928" ry="0.556833" fill="#C4631F"/>
<circle cx="250.391" cy="150.973" r="1.29928" fill="#C4631F"/>
<circle cx="256.331" cy="150.973" r="1.29928" fill="#C4631F"/>
<ellipse cx="254.103" cy="146.89" rx="1.29928" ry="0.928055" fill="#C4631F"/>
<ellipse cx="260.042" cy="146.89" rx="1.29928" ry="0.928055" fill="#C4631F"/>
<ellipse cx="257.63" cy="143.735" rx="1.11367" ry="0.742444" fill="#C4631F"/>
<ellipse cx="251.69" cy="143.735" rx="1.11367" ry="0.742444" fill="#C4631F"/>
<ellipse cx="245.75" cy="143.735" rx="1.11367" ry="0.742444" fill="#C4631F"/>
<ellipse cx="240.183" cy="143.735" rx="1.11367" ry="0.742444" fill="#C4631F"/>
<ellipse cx="249.092" cy="141.136" rx="1.11367" ry="0.742444" fill="#C4631F"/>
<ellipse cx="254.66" cy="141.136" rx="1.11367" ry="0.742444" fill="#C4631F"/>
<ellipse cx="265.982" cy="146.89" rx="1.29928" ry="0.928055" fill="#C4631F"/>
<ellipse cx="248.164" cy="146.89" rx="1.29928" ry="0.928055" fill="#C4631F"/>
<ellipse cx="242.224" cy="146.89" rx="1.29928" ry="0.928055" fill="#C4631F"/>
<ellipse cx="236.285" cy="146.89" rx="1.29928" ry="0.928055" fill="#C4631F"/>
<circle cx="262.27" cy="150.973" r="1.29928" fill="#C4631F"/>
<circle cx="268.209" cy="150.973" r="1.29928" fill="#C4631F"/>
<rect x="32" y="191" width="311" height="362" rx="5" fill="#EFEDEA"/>
<path d="M32 196C32 193.239 34.2386 191 37 191H338C340.761 191 343 193.239 343 196V223H32V196Z" fill="#C8BFB6"/>
<path d="M154.186 200.674C154.569 200.674 154.881 200.793 155.124 201.031C155.367 201.269 155.488 201.565 155.488 201.92C155.488 202.275 155.367 202.573 155.124 202.816C154.881 203.054 154.569 203.173 154.186 203.173C153.799 203.173 153.481 203.054 153.234 202.816C152.991 202.573 152.87 202.275 152.87 201.92C152.87 201.565 152.991 201.269 153.234 201.031C153.481 200.793 153.799 200.674 154.186 200.674ZM155.523 204.566V210.488H157.413V212H151.204V210.488H153.311V206.078H151.274V204.566H155.523ZM159.375 212V204.566H161.307L161.461 205.427C161.792 205.054 162.142 204.776 162.511 204.594C162.879 204.412 163.299 204.321 163.771 204.321C164.405 204.321 164.905 204.515 165.269 204.902C165.633 205.289 165.815 205.835 165.815 206.54V212H163.603V207.177C163.603 206.72 163.551 206.402 163.449 206.225C163.351 206.043 163.164 205.952 162.889 205.952C162.655 205.952 162.431 206.027 162.217 206.176C162.007 206.325 161.797 206.533 161.587 206.799V212H159.375ZM174.461 211.566C174.172 211.753 173.822 211.911 173.411 212.042C173 212.173 172.538 212.238 172.025 212.238C171.054 212.238 170.333 211.991 169.862 211.496C169.391 210.997 169.155 210.32 169.155 209.466V206.092H167.594V204.566H169.155V202.956L171.367 202.69V204.566H173.761L173.544 206.092H171.367V209.466C171.367 209.835 171.451 210.098 171.619 210.257C171.787 210.416 172.055 210.495 172.424 210.495C172.685 210.495 172.923 210.465 173.138 210.404C173.357 210.339 173.553 210.257 173.726 210.159L174.461 211.566ZM176.234 212V210.516H177.214V206.036H176.234V204.566H178.901L179.307 206.239C179.573 205.6 179.911 205.124 180.322 204.811C180.737 204.498 181.243 204.342 181.841 204.342C182.093 204.342 182.317 204.363 182.513 204.405C182.709 204.442 182.893 204.496 183.066 204.566L182.653 207.674H181.267V206.302C180.847 206.377 180.478 206.605 180.161 206.988C179.843 207.366 179.598 207.833 179.426 208.388V210.516H180.896V212H176.234ZM187.778 204.321C188.543 204.321 189.194 204.484 189.731 204.811C190.268 205.138 190.678 205.597 190.963 206.19C191.248 206.778 191.39 207.469 191.39 208.262C191.39 209.503 191.073 210.476 190.438 211.181C189.803 211.886 188.917 212.238 187.778 212.238C186.639 212.238 185.753 211.89 185.118 211.195C184.483 210.5 184.166 209.527 184.166 208.276C184.166 207.487 184.308 206.797 184.593 206.204C184.882 205.611 185.295 205.149 185.832 204.818C186.373 204.487 187.022 204.321 187.778 204.321ZM187.778 205.952C187.325 205.952 186.989 206.139 186.77 206.512C186.555 206.881 186.448 207.469 186.448 208.276C186.448 209.097 186.555 209.692 186.77 210.061C186.989 210.43 187.325 210.614 187.778 210.614C188.231 210.614 188.564 210.43 188.779 210.061C188.998 209.692 189.108 209.093 189.108 208.262C189.108 207.459 188.998 206.874 188.779 206.505C188.564 206.136 188.231 205.952 187.778 205.952ZM194.612 210.677C194.612 210.392 194.682 210.133 194.822 209.9C194.962 209.662 195.151 209.473 195.389 209.333C195.627 209.188 195.888 209.116 196.173 209.116C196.462 209.116 196.723 209.188 196.957 209.333C197.195 209.473 197.384 209.662 197.524 209.9C197.664 210.133 197.734 210.392 197.734 210.677C197.734 210.957 197.664 211.216 197.524 211.454C197.384 211.692 197.195 211.881 196.957 212.021C196.723 212.166 196.462 212.238 196.173 212.238C195.888 212.238 195.627 212.166 195.389 212.021C195.151 211.881 194.962 211.692 194.822 211.454C194.682 211.216 194.612 210.957 194.612 210.677ZM205.547 200.674C205.93 200.674 206.243 200.793 206.485 201.031C206.728 201.269 206.849 201.565 206.849 201.92C206.849 202.275 206.728 202.573 206.485 202.816C206.243 203.054 205.93 203.173 205.547 203.173C205.16 203.173 204.843 203.054 204.595 202.816C204.353 202.573 204.231 202.275 204.231 201.92C204.231 201.565 204.353 201.269 204.595 201.031C204.843 200.793 205.16 200.674 205.547 200.674ZM206.982 204.566V209.844C206.982 210.917 206.782 211.799 206.38 212.49C205.984 213.185 205.391 213.736 204.602 214.142C203.818 214.553 202.848 214.872 201.69 215.101L201.34 213.414C202.092 213.241 202.722 213.027 203.23 212.77C203.739 212.513 204.122 212.166 204.378 211.727C204.64 211.284 204.77 210.703 204.77 209.984V206.078H202.096V204.566H206.982ZM213.858 204.321C214.828 204.321 215.524 204.676 215.944 205.385C216.364 206.094 216.574 207.053 216.574 208.262C216.574 209.027 216.462 209.711 216.238 210.313C216.014 210.91 215.689 211.382 215.265 211.727C214.84 212.068 214.324 212.238 213.718 212.238C212.994 212.238 212.406 211.979 211.954 211.461V214.87L209.742 215.101V204.566H211.702L211.8 205.399C212.103 205.012 212.434 204.736 212.794 204.573C213.153 204.405 213.508 204.321 213.858 204.321ZM213.172 205.952C212.915 205.952 212.689 206.029 212.493 206.183C212.297 206.337 212.117 206.547 211.954 206.813V209.949C212.108 210.178 212.269 210.346 212.437 210.453C212.609 210.56 212.812 210.614 213.046 210.614C213.438 210.614 213.743 210.437 213.963 210.082C214.182 209.723 214.292 209.125 214.292 208.29C214.292 207.674 214.247 207.198 214.159 206.862C214.07 206.521 213.942 206.286 213.774 206.155C213.606 206.02 213.405 205.952 213.172 205.952ZM224.737 203.376L225.255 205C224.994 205.103 224.688 205.177 224.338 205.224C223.988 205.271 223.58 205.294 223.113 205.294C223.58 205.495 223.935 205.744 224.177 206.043C224.425 206.337 224.548 206.724 224.548 207.205C224.548 207.686 224.42 208.115 224.163 208.493C223.907 208.866 223.543 209.16 223.071 209.375C222.6 209.59 222.042 209.697 221.398 209.697C221.09 209.697 220.803 209.669 220.537 209.613C220.374 209.697 220.292 209.839 220.292 210.04C220.292 210.157 220.339 210.262 220.432 210.355C220.53 210.448 220.757 210.495 221.111 210.495H222.329C223.193 210.495 223.881 210.698 224.394 211.104C224.908 211.51 225.164 212.023 225.164 212.644C225.164 213.405 224.831 214.004 224.163 214.443C223.496 214.882 222.504 215.101 221.188 215.101C220.236 215.101 219.499 215.003 218.976 214.807C218.458 214.616 218.097 214.34 217.891 213.981C217.691 213.626 217.59 213.204 217.59 212.714H219.55C219.55 212.929 219.592 213.104 219.676 213.239C219.765 213.379 219.931 213.482 220.173 213.547C220.421 213.612 220.778 213.645 221.244 213.645C221.716 213.645 222.075 213.608 222.322 213.533C222.57 213.458 222.738 213.356 222.826 213.225C222.92 213.099 222.966 212.957 222.966 212.798C222.966 212.579 222.88 212.401 222.707 212.266C222.535 212.131 222.262 212.063 221.888 212.063H220.705C219.903 212.063 219.319 211.916 218.955 211.622C218.591 211.323 218.409 210.976 218.409 210.579C218.409 210.304 218.482 210.042 218.626 209.795C218.776 209.548 218.983 209.34 219.249 209.172C218.773 208.92 218.433 208.624 218.227 208.283C218.022 207.938 217.919 207.525 217.919 207.044C217.919 206.484 218.062 206.003 218.346 205.602C218.631 205.196 219.023 204.883 219.522 204.664C220.026 204.445 220.6 204.335 221.244 204.335C221.8 204.344 222.283 204.307 222.693 204.223C223.104 204.134 223.473 204.015 223.799 203.866C224.126 203.712 224.439 203.549 224.737 203.376ZM221.3 205.77C220.95 205.77 220.673 205.882 220.467 206.106C220.262 206.325 220.159 206.629 220.159 207.016C220.159 207.427 220.264 207.742 220.474 207.961C220.684 208.18 220.96 208.29 221.3 208.29C222.056 208.29 222.434 207.856 222.434 206.988C222.434 206.176 222.056 205.77 221.3 205.77Z" fill="#192825"/>
<rect x="33" y="192" width="309" height="360" rx="4" stroke="#4A5759" stroke-width="2"/>
<path d="M32 223H343" stroke="#4A5759" stroke-width="2"/>
<path d="M318.5 206C319 209 321.26 211.321 322.552 212.007C323.449 210.661 325.296 209.843 326.401 208.799C327.156 208.085 328.005 207.531 328.005 206.393C328.005 205.213 327.5 204 326 204.5C323 205.5 322.5 208.55 322.5 205.5C322.5 203.818 322.59 201.55 320.5 202.5C318.864 203.243 318.5 204 318.5 206Z" fill="#4A9D63" stroke="#4A5759" stroke-width="2" stroke-linecap="round" stroke-linejoin="round"/>
<path d="M306.022 201C305.983 201.051 305.943 201.102 305.904 201.152C305.115 202.455 306.73 206.975 307.192 207.898C307.522 208.558 308.922 209.982 307.626 209.982C306.437 209.982 305.449 210.758 304.899 211.747C304.273 212.874 304.295 214.451 303.616 212.549C303.322 211.724 303.519 210.706 303.192 209.398C302.745 207.611 299.75 206.558 299.117 206.553C299.043 206.586 299 206.603 299 206.596C299 206.567 299.042 206.552 299.117 206.553C299.627 206.324 301.628 205.294 301.709 205.242C303.366 204.177 304.702 202.696 305.904 201.152C305.939 201.095 305.978 201.044 306.022 201Z" fill="#F8CD5E" stroke="#4A5759" stroke-width="2" stroke-linecap="round" stroke-linejoin="round"/>
<path d="M284 203C286.237 201.994 287.5 203.001 288.5 203.5C290.405 204.452 290.765 207.167 291 208.5C291.142 209.308 290.07 212.856 287.897 212.856C284.803 212.856 281 212.094 281 208.205C281 207.01 281.763 204.006 284 203Z" fill="#9E483E" stroke="#4A5759" stroke-width="2" stroke-linecap="round" stroke-linejoin="round"/>
<path d="M145.192 272.23L142.291 276.29V285.766L142.027 297.136L142.819 305.799L144.072 310.386L148.089 314.885L154.481 321.071L161.46 329.129L164.902 331.558L169.638 331.005L183.152 328.193L197.031 324.257L210.544 322.008L221.136 318.446L227.162 316.759L231.545 312.448L232.458 305.138L231.91 292.767L232.458 278.708L231.728 273.46L225.702 268.961L218.397 263.338L211.823 258.464L207.257 256.215L202.509 256.028L195.935 258.277L184.613 260.339L174.021 262.963L165.803 265.212L158.864 267.274L149.94 269.793L145.192 272.23Z" fill="white"/>
<path d="M230.267 273.825C230.634 274.255 231.085 274.802 231.355 275.734C231.487 276.526 231.532 278.436 231.492 281.464L233.099 281.6C233.129 278.976 233.129 277.456 233.099 277.042C233.023 275.946 232.894 274.366 232.347 273.297C231.981 272.584 231.496 271.979 230.89 271.483C230.573 270.958 212.786 258.204 212.353 257.763C211.599 256.999 209.566 256.016 208.565 255.611C207.557 255.207 206.479 254.998 205.389 255C205.389 255 205.389 255 205.386 255H205.351C204.581 255.002 203.815 255.095 203.067 255.277L150.304 267.918C150.28 267.923 150.259 267.928 150.236 267.935C148.925 268.258 147.684 268.811 146.57 269.564C145.473 270.305 144.498 271.209 143.681 272.243C142.856 273.275 142.201 274.427 141.735 275.659C141.256 276.907 141.007 278.229 141 279.565C141 279.568 141 279.57 141 279.572V279.598L141.002 279.7L141.296 305.709C141.301 306.836 141.515 307.953 141.921 309.006C142.318 310.015 142.912 310.933 143.674 311.711C144.428 312.473 145.039 313.124 145.753 313.739C145.809 313.762 146.885 314.834 148.019 315.984C151.168 319.177 157.347 325.767 159.704 328.202C160.262 328.778 161.738 330.14 161.777 330.15C162.417 330.71 164.039 331.742 165.661 331.936C166.824 332.072 166.478 332.02 167.558 332.072V330.208C165.334 330.357 163.139 329.079 160.968 326.372L154.817 319.88C154.089 319.149 146.336 311.188 145.943 310.79C145.405 310.24 144.395 308.886 144.115 308.17C143.808 307.38 143.65 306.54 143.645 305.695C143.645 305.693 143.645 305.69 143.645 305.686L143.352 279.659L143.349 279.57C143.357 278.513 143.554 277.467 143.935 276.477C144.315 275.469 144.853 274.523 145.527 273.679C146.197 272.831 146.996 272.09 147.896 271.483C148.746 270.907 149.691 270.479 150.687 270.219L203.624 257.535C203.624 257.535 203.627 257.535 203.629 257.533C204.193 257.396 204.773 257.326 205.356 257.324H205.391C206.176 257.324 206.953 257.473 207.682 257.763C208.23 257.986 210.858 259.44 211.305 259.825L222.615 268.079L225.548 270.219L229.727 273.297L230.267 273.825Z" fill="#2E2E2E"/>
<path fill-rule="evenodd" clip-rule="evenodd" d="M229.422 276.37C228.296 275.103 226.47 274.472 224.284 275.005L169.099 288.463C165.317 289.386 162.214 293.394 162.258 297.327L162.567 325.001C162.589 326.919 163.35 328.373 164.465 329.245C165.579 330.117 167.16 330.5 169.004 330.05L224.189 316.592C227.971 315.669 231.073 311.661 231.029 307.728L230.721 280.054C230.703 278.498 230.197 277.249 229.422 276.37ZM223.698 272.601C226.684 271.873 229.479 272.708 231.273 274.729L231.275 274.731C232.482 276.098 233.171 277.936 233.195 280.027L233.503 307.701C233.56 312.774 229.686 317.798 224.775 318.996L169.59 332.454C167.087 333.065 164.71 332.58 162.94 331.194C161.17 329.808 160.122 327.613 160.093 325.029L159.784 297.354C159.728 292.281 163.602 287.257 168.513 286.059L206.098 276.893L223.698 272.601Z" fill="#2E2E2E"/>
<path fill-rule="evenodd" clip-rule="evenodd" d="M230.349 275.55C231.34 276.673 231.938 278.217 231.958 280.04L232.267 307.715C232.317 312.218 228.829 316.734 224.482 317.794L196.89 324.523L169.297 331.252C164.951 332.312 161.381 329.517 161.331 325.015L161.022 297.34C160.972 292.838 164.46 288.321 168.807 287.261L206.391 278.095L223.992 273.803C226.578 273.172 228.888 273.906 230.349 275.55ZM167.264 296.5C167.264 294.941 168.558 293.307 170.129 292.884C171.7 292.46 172.994 293.396 172.994 294.956V295.904L174.904 295.389V294.441C174.904 292.882 176.198 291.248 177.769 290.825C179.341 290.401 180.635 291.337 180.635 292.897C180.635 294.456 179.341 296.09 177.769 296.513L176.814 296.771V298.667L177.769 298.409C179.341 297.986 180.635 298.922 180.635 300.481C180.635 302.041 179.341 303.674 177.769 304.097C176.198 304.521 174.904 303.585 174.904 302.026V301.078L172.994 301.592V302.54C172.994 304.1 171.7 305.733 170.129 306.157C168.558 306.58 167.264 305.644 167.264 304.084C167.264 302.525 168.558 300.892 170.129 300.468L171.084 300.211V298.315L170.129 298.572C168.558 298.995 167.264 298.06 167.264 296.5ZM171.084 295.471C171.084 294.935 170.668 294.635 170.129 294.78C169.589 294.925 169.174 295.45 169.174 295.985C169.174 296.521 169.589 296.821 170.129 296.676L171.084 296.419V295.471ZM177.769 292.721C178.309 292.576 178.724 292.876 178.724 293.412C178.724 293.947 178.309 294.472 177.769 294.617L176.814 294.874V293.926C176.814 293.391 177.23 292.866 177.769 292.721ZM174.904 297.285L172.994 297.8V299.696L174.904 299.181V297.285ZM170.129 302.364L171.084 302.107V303.055C171.084 303.591 170.668 304.115 170.129 304.26C169.589 304.406 169.174 304.105 169.174 303.57C169.174 303.034 169.589 302.51 170.129 302.364ZM177.769 300.305L176.814 300.563V301.511C176.814 302.046 177.23 302.347 177.769 302.201C178.309 302.056 178.724 301.532 178.724 300.996C178.724 300.46 178.309 300.16 177.769 300.305ZM184.75 316.851L182.967 316.918C182.743 318.316 182.076 319.141 180.967 319.392C179.448 319.736 178.688 318.944 178.688 317.016C178.688 315.035 179.428 313.877 180.907 313.542C181.449 313.419 181.964 313.421 182.452 313.548L182.749 314.947L184.453 314.383L184.096 311.968C183.581 311.781 183.06 311.681 182.531 311.668C182.003 311.656 181.475 311.71 180.947 311.829C179.613 312.131 178.533 312.812 177.708 313.871C176.883 314.929 176.47 316.178 176.47 317.617C176.47 319.083 176.869 320.109 177.668 320.693C178.467 321.279 179.501 321.428 180.768 321.14C182.115 320.835 183.093 320.247 183.7 319.377C184.308 318.506 184.658 317.665 184.75 316.851ZM202.222 316.083V314.459L200.914 314.755V310.496C200.914 309.4 200.61 308.663 200.003 308.285C199.395 307.908 198.689 307.811 197.883 307.993C197.157 308.157 196.543 308.478 196.041 308.955C195.539 309.432 195.156 310.004 194.892 310.671C194.681 310.032 194.311 309.611 193.783 309.407C193.255 309.204 192.661 309.176 192 309.326C191.34 309.475 190.779 309.754 190.316 310.163C189.854 310.571 189.484 311.051 189.207 311.603V310.137L185.78 310.913V312.557L187.088 312.261V317.886L185.76 318.187V319.812L190.871 318.654V317.029L189.207 317.407V313.92C189.22 313.309 189.392 312.732 189.722 312.189C190.052 311.645 190.561 311.296 191.247 311.14C191.776 311.021 192.188 311.102 192.485 311.385C192.782 311.667 192.931 312.231 192.931 313.077V316.563L192.456 316.671V318.295L196.378 317.407V315.782L195.051 316.083V312.616C195.064 312.006 195.232 311.426 195.556 310.878C195.879 310.329 196.391 309.975 197.091 309.817C197.632 309.694 198.051 309.774 198.349 310.057C198.646 310.34 198.794 310.903 198.794 311.748V315.235L198.299 315.347V316.971L202.222 316.083ZM213.295 313.575V311.95L211.987 312.246V300.242L207.946 301.158V302.782L209.868 302.347V306.844C209.604 306.428 209.23 306.133 208.749 305.958C208.267 305.783 207.676 305.775 206.975 305.934C205.602 306.245 204.595 306.958 203.955 308.074C203.314 309.19 202.994 310.381 202.994 311.649C202.994 313.036 203.334 314.048 204.014 314.686C204.694 315.325 205.615 315.512 206.778 315.249C207.583 315.067 208.234 314.731 208.729 314.243C209.224 313.754 209.604 313.222 209.868 312.648V314.351L213.295 313.575ZM209.868 309.399V310.072C209.854 310.736 209.63 311.413 209.194 312.107C208.758 312.8 208.177 313.228 207.451 313.393C206.83 313.533 206.299 313.41 205.856 313.021C205.414 312.633 205.193 311.97 205.193 311.032C205.193 310.108 205.414 309.328 205.856 308.693C206.299 308.058 206.877 307.66 207.589 307.498C208.223 307.354 208.758 307.451 209.194 307.789C209.63 308.126 209.854 308.662 209.868 309.399ZM214.285 307.843V309.626L218.96 308.567V306.785L214.285 307.843ZM226.111 296.994C225.688 296.99 225.272 297.035 224.863 297.128C223.82 297.364 222.994 297.888 222.387 298.699C221.779 299.51 221.476 300.398 221.476 301.362V302.828L220.307 303.092V304.657L221.476 304.392V310.098L220.148 310.398V312.022L225.259 310.865V309.241L223.576 309.622V303.917L225.814 303.41V301.845L223.576 302.352V300.589C223.576 299.559 223.985 298.951 224.804 298.766C225.081 298.703 225.351 298.688 225.616 298.72L226.032 300.072L227.695 299.497L227.319 297.304C226.936 297.101 226.534 296.997 226.111 296.994Z" fill="#2E2E2E"/>
<path d="M-34.3976 485.936C-32.9925 486.653 37.4724 505.938 49.7584 518.112C59.5873 527.85 55.9408 535.554 52.8889 538.189C50.4583 541.534 40.3498 545.78 19.36 536.001C-3.88537 525.172 -42.9841 504.24 -60.8368 509.652C-67.8984 515.771 -71.748 518.731 -66.5951 513.128C-65.0804 511.481 -63.1346 510.348 -60.8368 509.652C-53.3346 503.151 -42.2071 493.085 -34.3976 485.936Z" fill="#4A5759"/>
<path d="M57.3121 522.373L51.1968 520.912L52.4139 523.821L57.3121 522.373Z" fill="#C4C4C4"/>
<ellipse cx="46.7827" cy="523.856" rx="2.22191" ry="2.40707" transform="rotate(27.0583 46.7827 523.856)" fill="#E0BEA2"/>
<ellipse cx="35.4983" cy="526.408" rx="7.40638" ry="8.33218" transform="rotate(27.0583 35.4983 526.408)" fill="#E0BEA2"/>
<ellipse cx="48.0146" cy="531.122" rx="2.98096" ry="3.33166" transform="rotate(27.0583 48.0146 531.122)" fill="#E0BEA2"/>
<ellipse cx="42.6026" cy="536.963" rx="2.98096" ry="2.27956" transform="rotate(27.0583 42.6026 536.963)" fill="#E0BEA2"/>
<path d="M86.1667 596.468C85.9927 596.254 106.338 545.644 106.338 545.644L113.973 613.1L89.9901 616.296L86.1667 596.468Z" fill="#83A096"/>
<path d="M59.9107 590.034L46.0935 553.771C46.0935 553.771 55.8132 566.13 55.88 564.681C55.9467 563.233 51.9324 551.82 51.9324 551.82C51.9324 551.82 69.2463 571.682 98.4613 589.97C127.676 608.258 100.544 618.151 100.544 618.151L79.1695 626.869L16.8247 581.175L51.4135 581.214L59.9107 590.034Z" fill="#83A096"/>
<path d="M85.0521 587.592L107.035 615.047L100.018 625.973L82.3329 600.574L85.0521 587.592Z" fill="#83A096"/>
<path d="M98.0222 612.318L63.407 546.362C63.407 546.362 78.5044 618.417 89.7781 624.305C101.052 630.193 101.627 623.284 101.627 623.284L98.0222 612.318Z" fill="#B7C2B4"/>
<path d="M88.9608 595.041L74.2001 578.487L93.6648 604.078L78.0163 588.445L96.3082 609.11L83.7216 601.459L98.022 612.318C98.022 612.318 97.127 606.87 97.045 606.08C96.9855 605.331 88.9608 595.041 88.9608 595.041Z" fill="#83A096"/>
<path d="M41.2354 610.702L68.0407 633.49L79.1245 626.79L54.3167 608.355L41.2354 610.702Z" fill="#83A096"/>
<path d="M51.0221 604.476L9.56299 561.729C9.56299 561.729 74.7473 595.574 84.6223 615.577C94.4974 635.58 78.8837 629.958 78.8837 629.958L51.0221 604.476Z" fill="#B7C2B4"/>
<path d="M103.899 524.666C101.174 527.412 100.199 534.443 100.382 543.795C100.418 544.872 100.454 545.948 100.473 547.087C100.504 547.696 100.536 548.305 100.568 548.914C100.738 552.161 101.02 555.606 101.391 559.21C101.593 561.133 101.84 563.135 102.025 565.12C102.415 568.295 102.85 571.549 103.324 574.78C103.582 576.619 103.864 578.497 104.162 580.313C105.012 585.683 105.924 591.069 106.888 596.27C106.893 596.371 106.899 596.473 106.966 596.591C109.529 610.603 112.35 623.319 114.184 631.161C115.29 635.968 116.075 638.919 116.169 639.178L115.58 638.415C91.131 612.045 82.7336 589.951 82.0244 572.485C82.0256 572.119 81.9873 571.775 82.0109 571.448C81.9444 569.396 82.0017 567.378 82.1657 565.456C82.2236 565.006 82.2195 564.538 82.2773 564.087C82.7671 559.055 83.9317 554.477 85.4271 550.39C85.4613 550.266 85.5351 550.12 85.6088 549.974C86.2855 548.127 87.0688 546.377 87.8971 544.706C88.1354 544.206 88.3566 543.767 88.6173 543.305C89.281 541.989 90.0513 540.769 90.7427 539.593C91.2865 538.71 91.8528 537.867 92.402 537.085C92.668 536.726 92.9116 536.326 93.1777 535.967C93.3871 535.691 93.5965 535.416 93.8059 535.14C98.9962 528.176 103.899 524.666 103.899 524.666Z" fill="#B7C2B4"/>
<path d="M76.0538 618.239L56.691 606.278L64.6158 609.205L42.2144 592.436L50.7289 597.694L21.6665 570.646L46.8794 590.994L39.9252 582.501L57.4015 599.241L57.6979 594.789L64.9073 606.219C64.9073 606.219 66.4941 603.491 65.1424 599.816C63.7907 596.142 71.2012 609.861 71.2012 609.861L72.2554 606.286L81.5818 616.569L76.0538 618.239Z" fill="#83A096"/>
<path d="M94.8152 574.692L105.444 614.173C103.896 627.379 102.921 639.478 102.395 646.933L89.6522 621.503L94.3878 614.013C94.6603 613.388 90.9842 596.768 88.935 587.533C89.0206 587.223 89.1061 586.914 89.1916 586.604L93.3528 599.657L91.0635 581.154C91.2056 580.76 91.3874 580.344 91.569 579.928L96.7855 601.108C96.7855 601.108 101.677 628.532 102.882 635.634C101.455 625.837 94.9419 575.56 94.8152 574.692Z" fill="#83A096"/>
<path d="M90.5799 556.717L105.35 582.409C105.797 587.067 106.368 591.758 106.928 596.247L90.4153 557.072C90.4719 556.987 90.5061 556.863 90.5799 556.717Z" fill="#83A096"/>
<path d="M93.5636 550.742L104.272 569.175C104.438 571.955 104.665 574.751 104.915 577.588L92.8552 551.979C93.0988 551.58 93.32 551.141 93.5636 550.742Z" fill="#83A096"/>
<path d="M97.2335 545.057L103.817 555.014C103.802 557.843 103.837 560.853 104.001 563.999L95.665 547.356C96.1522 546.558 96.7014 545.776 97.2335 545.057Z" fill="#83A096"/>
<path d="M98.5638 543.258L103.91 550.572C103.857 551.491 103.848 552.489 103.816 553.447L97.9527 544.023C98.1845 543.787 98.394 543.511 98.5638 543.258Z" fill="#83A096"/>
<path d="M119.042 612.003C119.042 612.003 119.093 612.183 119.148 612.465C119.153 612.567 119.22 612.685 119.248 612.826C119.253 612.928 119.298 613.007 119.281 613.069C119.447 613.915 119.719 615.224 120.047 616.815C120.213 617.661 120.446 618.625 120.623 619.675C120.651 619.816 120.679 619.957 120.706 620.098C120.945 621.164 121.167 622.292 121.434 623.499C121.461 623.64 121.467 623.742 121.494 623.883C121.733 624.949 121.955 626.077 122.199 627.245C122.204 627.347 122.227 627.386 122.232 627.488C122.582 629.118 122.914 630.81 123.269 632.542C123.347 632.864 123.402 633.146 123.48 633.467C123.624 634.274 123.83 635.098 123.974 635.904C124.024 636.085 124.057 636.327 124.107 636.508C124.346 637.574 124.545 638.663 124.784 639.729C124.817 639.972 124.89 640.192 124.923 640.434C125.106 641.218 125.25 642.025 125.411 642.77C125.466 643.052 125.522 643.334 125.577 643.616C125.743 644.462 125.91 645.308 126.116 646.132C126.193 646.453 126.271 646.775 126.31 647.119C126.476 647.965 126.642 648.811 126.826 649.595C126.909 650.019 126.969 650.402 127.092 650.803C127.203 651.367 127.314 651.931 127.442 652.433C127.52 652.755 127.558 653.099 127.636 653.42C127.769 654.024 127.88 654.588 127.968 655.113C128.001 655.355 128.051 655.536 128.102 655.716C128.185 656.139 128.285 656.5 128.323 656.844C128.434 657.409 128.517 657.832 128.573 658.114C128.628 658.396 128.678 658.576 128.678 658.576C128.35 658.919 127.943 659.306 127.474 659.677C119.79 666.017 98.5123 674.263 98.5123 674.263C98.5123 674.263 97.9509 673.641 97.019 672.549C96.8898 672.414 96.7382 672.238 96.6091 672.103C96.4127 671.848 96.1543 671.577 95.8736 671.266C95.6772 671.011 95.4637 670.819 95.2673 670.564C94.9417 670.174 94.5318 669.727 94.1443 669.32C93.9479 669.066 93.7344 668.873 93.538 668.619C93.0833 668.093 92.5442 667.51 92.0671 666.945C91.7639 666.594 91.4608 666.244 91.1352 665.853C90.7029 665.367 90.2481 664.841 89.7934 664.315C89.4903 663.965 89.1871 663.614 88.8616 663.224C88.4741 662.816 88.1261 662.387 87.7386 661.979C87.413 661.589 87.1099 661.239 86.7448 660.871C86.4416 660.52 86.116 660.13 85.7905 659.74C85.3357 659.214 84.8586 658.649 84.4039 658.123C84.0164 657.715 83.646 657.246 83.2585 656.839C82.9105 656.409 82.5455 656.041 82.1975 655.612C81.7204 655.046 81.2656 654.52 80.749 653.977C80.0135 653.14 79.278 652.303 78.565 651.506C78.2842 651.195 77.981 650.844 77.7003 650.533C77.2007 649.928 76.6841 649.385 76.2069 648.819C75.7746 648.333 75.3423 647.846 74.91 647.36C74.3485 646.738 73.849 646.133 73.3718 645.567C72.9619 645.121 72.5915 644.651 72.204 644.244C71.7269 643.679 71.2945 643.192 70.9466 642.763C70.3851 642.14 69.9304 641.614 69.6048 641.224C69.2793 640.834 69.0828 640.58 69.0604 640.54L90.9914 620.274L119.042 612.003Z" fill="#E0BEA2"/>
<path d="M65.5518 624.4L0.714355 587.85C0.714355 587.85 72.2757 605.125 77.8171 616.56C83.3586 627.996 76.4204 628.376 76.4204 628.376L65.5518 624.4Z" fill="#B7C2B4"/>
<path d="M118.403 598.991C118.47 599.109 118.521 599.29 118.588 599.408C118.772 599.826 118.957 600.244 119.142 600.662C119.438 601.277 119.673 601.876 119.97 602.491C120.177 602.949 120.384 603.406 120.591 603.863C120.775 604.281 120.96 604.699 121.144 605.117C121.284 605.456 121.446 605.834 121.626 606.15C121.833 606.608 122.017 607.025 122.224 607.483C122.292 607.601 122.342 607.782 122.409 607.901C122.454 607.98 122.499 608.059 122.481 608.121C122.599 608.42 122.637 608.764 122.675 609.108C122.668 609.739 122.519 610.398 122.14 610.926C121.84 611.41 121.393 611.82 120.795 612.054C120.259 612.306 119.723 612.558 119.147 612.832C117.2 613.726 115.275 614.66 113.35 615.595C98.1731 622.995 83.5219 631.508 69.5324 641.004C69.2386 641.223 68.962 641.38 68.6682 641.599C67.2337 642.568 65.2625 642.223 64.2528 640.81C62.3625 638.12 60.5342 635.446 58.644 632.756C57.6342 631.343 58.0578 629.327 59.5714 628.312C75.1258 617.616 91.5383 608.157 108.589 600.008C110.395 599.141 112.201 598.274 114.03 597.447C114.566 597.195 115.13 597.084 115.642 597.16C116.256 597.229 116.836 597.423 117.342 597.763C117.888 598.081 118.213 598.471 118.403 598.991Z" fill="#E0BEA2"/>
<path d="M71.1696 642.4L71.0732 642.472C72.8015 645.065 74.1525 646.423 75.9369 649C76.8973 650.387 77.5967 651.387 78.817 653.032C80.0435 654.686 81.0325 655.805 82.273 657.448C83.5785 659.177 84.4691 660.102 85.7291 661.864C86.9133 663.521 87.5773 664.461 88.8011 666.088C90.9513 668.947 91.6812 670.313 94.3517 673.404C95.3543 674.565 96.4889 675.579 97.5808 675.64C98.1563 675.672 98.6502 675.754 99.3195 675.64C99.9243 675.536 100.81 675.143 100.81 675.143C100.81 675.143 103.1 674.316 104.536 673.708C106.64 672.817 107.764 672.192 109.807 671.169C114.853 668.642 118.494 666.97 122.475 664.214C124.79 662.611 126.735 661.869 127.01 658.984C127.394 654.952 126.051 650.18 124.898 645.736C124.529 644.314 124.31 641.782 123.938 640.36C123.596 639.056 123.337 636.706 123.17 635.368C122.978 633.832 122.018 631.336 121.634 630.184C120.84 627.802 120.584 627.465 119.714 625.11C119.368 624.174 119.049 623.825 118.708 622.888C118.426 622.116 118.221 621.261 117.986 620.2C117.602 618.472 117.41 617.512 117.152 615.749C117.083 615.275 116.835 614.521 116.642 614.632C116.128 614.925 114.93 615.47 113.836 616.013C111.995 616.925 111.005 617.527 109.131 618.372C108.217 618.784 107.676 618.948 106.771 619.38C105.676 619.902 105.092 620.254 104.039 620.856C101.637 622.23 100.51 623.362 98.0914 624.706C96.2396 625.735 95.0544 626.033 93.2202 627.093C91.0835 628.328 90.0915 629.343 88.0178 630.681C87.0089 631.332 86.4152 631.653 85.4097 632.31C83.9251 633.279 83.1596 633.921 81.6839 634.904C79.6367 636.267 78.4454 636.967 76.4719 638.435C74.4441 639.944 72.684 641.264 71.1696 642.4Z" stroke="#B29172" stroke-width="1.92003" stroke-linecap="round" stroke-linejoin="round"/>
<path d="M81.837 640.12C81.837 640.12 88.2095 650.718 86.8019 657.263L106.944 649.87C106.944 649.87 102.777 631.647 100.214 629.704L81.837 640.12Z" fill="#EFEDEA"/>
<path d="M90.9341 642.905C90.4204 643.196 90.8686 643.987 91.3824 643.695C91.8961 643.404 91.4479 642.613 90.9341 642.905Z" fill="#45846C"/>
<path d="M94.8746 640.828C94.3608 641.119 94.8091 641.91 95.3228 641.619C95.8365 641.328 95.3883 640.537 94.8746 640.828Z" fill="#45846C"/>
<path d="M97.6603 641.966C97.4916 641.853 97.1082 641.913 97.0174 642.121C95.9668 644.598 93.2411 645.777 90.6913 644.871C90.1115 644.677 89.872 645.544 90.4518 645.738C93.3336 646.769 96.6179 645.378 97.7936 642.57C97.9239 642.339 97.8909 642.096 97.6603 641.966Z" fill="#45846C"/>
<path d="M60.7829 625.957C59.4466 623.483 57.4945 622.305 55.2456 620.104C54.0342 618.918 53.3904 618.21 52.0814 617.133C50.4548 615.795 49.3931 615.241 47.6515 614.057C46.2992 613.137 45.5208 612.651 44.1709 611.727C42.6171 610.664 41.851 609.907 40.2245 608.959C39.0972 608.302 38.1818 608.049 37.2449 607.447C36.1917 606.77 35.3365 606.253 34.0983 605.513C31.5821 604.01 30.1555 603.19 27.559 601.83C25.1232 600.555 23.6898 599.975 21.2306 598.745C19.5843 597.922 18.648 597.485 17.0293 596.61C15.6569 595.867 14.8971 595.432 13.5574 594.632C12.402 593.942 11.7544 593.553 10.6306 592.813C9.37333 591.984 8.63311 591.56 7.47517 590.598C6.4147 589.716 5.16348 589.918 4.51159 588.711C4.32478 588.365 4.12756 587.751 4.16157 587.767C4.19557 587.784 4.59289 588.131 4.89559 588.327C5.63682 588.807 6.18655 588.812 6.99176 589.174C8.52988 589.865 9.24899 590.543 10.7888 591.23C12.1838 591.854 13.0145 592.088 14.4627 592.575C16.0272 593.101 16.9152 593.365 18.5059 593.806C21.7251 594.697 23.5975 594.925 26.8558 595.66C29.8992 596.347 31.608 596.722 34.6432 597.445C36.9741 597.999 38.2948 598.259 40.6024 598.904C42.0039 599.295 42.76 599.62 44.1709 599.976C45.3955 600.285 46.0902 600.431 47.3351 600.644" stroke="#45846C" stroke-width="1.92003" stroke-linecap="round" stroke-linejoin="round"/>
<path d="M41.3762 599.079C38.0926 598.707 16.4386 581.855 14.7441 580.235C19.6714 579.813 22.4331 579.913 27.36 580.839" stroke="#45846C" stroke-width="1.92003" stroke-linecap="round" stroke-linejoin="round"/>
<path d="M11.106 561.781C13.0871 564.505 14.4734 567.007 17.03 570.045C18.5347 571.834 19.4485 572.778 21.0879 574.444C22.7783 576.161 23.7798 577.071 25.5606 578.694C27.3266 580.304 28.34 581.182 30.1665 582.723C31.7594 584.066 32.7339 584.723 34.2985 586.099C36.0829 587.669 36.9844 588.658 38.6971 590.306C40.3153 591.862 41.3745 592.594 42.8291 594.304C44.0342 595.722 44.4289 596.735 45.6134 598.17C47.0223 599.876 47.6993 601.034 49.5529 602.242C51.3543 603.417 52.7009 603.407 54.7068 604.183C56.7383 604.968 57.8772 605.41 59.8903 606.241C63.7862 607.851 65.9891 608.729 69.7538 610.625C71.4915 611.5 72.3704 612.184 74.1524 612.965C75.5251 613.567 76.3178 613.86 77.7512 614.298" stroke="#45846C" stroke-width="1.92003" stroke-linecap="round" stroke-linejoin="round"/>
<path d="M10.3062 561.248C12.2665 561.616 13.4629 562.619 15.1046 563.44C17.0504 564.413 18.9818 565.261 20.8213 566.432C23.4174 568.084 25.7466 569.253 28.9076 571.052C31.7911 572.694 33.9944 573.649 36.2978 575.244C37.8534 576.321 39.5544 577.413 41.2296 578.25C42.5961 578.933 44.1876 580.137 45.6282 580.457C46.3064 580.608 46.6475 580.975 47.3609 580.975C48.2278 580.975 49.1016 580.943 49.9675 580.975C51.3062 581.025 53.6399 581.859 54.6771 582.708C56.7346 584.391 58.3782 586.624 59.6829 588.973C60.4152 590.291 62.0442 591.137 63.2225 592.053C64.7725 593.259 66.4717 594.221 67.8877 595.637C69.117 596.866 71.0743 597.254 72.2715 598.451C73.4142 599.594 74.4768 600.69 75.6185 601.769C76.9075 602.986 78.3492 603.805 79.2174 605.367C79.875 606.551 80.796 607.704 81.2167 608.966" stroke="#45846C" stroke-width="1.92003" stroke-linecap="round" stroke-linejoin="round"/>
<path d="M58.1889 586.962C57.0578 583.635 54.6199 581.225 53.194 578.057C52.2561 575.972 50.8144 574.245 50.0433 572.054C49.0586 569.255 47.8459 566.389 47.3111 563.447C46.8518 560.922 46.6622 558.485 46.6622 555.925C46.6622 555.669 46.6003 553.956 47.0379 554.081C47.111 554.102 47.2784 554.527 47.3538 554.619C47.6769 555.014 47.888 555.341 48.2759 555.695C49.0596 556.41 49.6555 557.244 50.5044 557.881C51.3859 558.542 52.1498 559.253 52.9293 560.032C53.5697 560.673 54.0572 561.443 54.6882 562.098C55.0466 562.471 55.576 563.444 55.3029 562.525C54.453 559.666 53.9916 556.64 53.2708 553.757C53.0844 553.011 52.8122 552.214 52.5792 551.468C52.4187 550.955 52.4727 550.366 52.3572 549.846C52.3177 549.668 52.6517 550.687 52.9634 550.999C53.8091 551.844 54.8596 552.632 55.8494 553.304C56.4408 553.705 56.9924 554.188 57.5058 554.687C58.1054 555.27 58.9247 555.736 59.4184 556.412C59.904 557.076 60.5983 557.582 61.1175 558.231C61.8067 559.092 62.5569 559.977 63.3375 560.758C64.4088 561.829 65.141 563.261 66.1039 564.438C67.0734 565.623 67.6318 567.043 68.3665 568.366C68.5787 568.748 68.8527 569.094 69.135 569.407C69.4022 569.704 69.49 570.179 69.7156 570.517" stroke="#45846C" stroke-width="1.92003" stroke-linecap="round" stroke-linejoin="round"/>
<path d="M63.6482 544.743C62.6584 547.13 62.4957 549.607 63.1024 552.638C63.4974 554.611 64.1574 555.598 64.9651 557.441C65.9287 559.639 66.672 560.776 67.7192 562.936C69.5583 566.729 70.6438 568.838 72.2029 572.755C73.0322 574.838 73.4863 576.013 74.1853 578.143C74.8065 580.036 75.0839 581.121 75.6222 583.039C76.6394 586.665 77.0335 588.744 78.017 592.379C78.4494 593.977 78.7377 594.86 79.1479 596.464C79.5528 598.046 79.7501 598.941 80.1059 600.535C80.4275 601.976 80.636 602.779 80.8908 604.234C81.12 605.541 81.2537 606.277 81.3698 607.6C81.4739 608.786 81.4733 609.456 81.4896 610.646C81.4982 611.28 81.4896 612.27 81.4896 612.27" stroke="#45846C" stroke-width="1.92003" stroke-linecap="round" stroke-linejoin="round"/>
<path d="M63.7681 544.735C65.9332 547.757 67.0082 549.576 68.611 552.931C70.2596 556.381 70.3433 558.673 72.017 562.111C72.927 563.98 73.5564 564.968 74.5981 566.767C75.5276 568.373 75.9966 569.309 77.0462 570.839C77.9645 572.177 78.6043 572.837 79.5741 574.138C80.6234 575.547 81.1925 576.768 82.2084 577.784" stroke="#45846C" stroke-width="1.92003" stroke-linecap="round" stroke-linejoin="round"/>
<path d="M105.034 525.385C104.119 525.92 103.202 526.387 102.259 526.834C101.289 527.293 100.537 527.721 99.4844 528.375C97.8211 529.41 96.9175 530.058 95.4455 531.351C92.0202 534.359 90.4017 536.558 88.3851 540.646C87.4207 542.602 87.076 543.79 86.3811 545.857C85.4323 548.678 85.0245 550.305 84.377 553.21C83.2545 558.247 82.8573 561.147 82.558 566.298C82.347 569.928 82.2434 571.985 82.5426 575.609C82.9238 580.228 83.7715 582.74 84.7778 587.264C85.2858 589.547 85.5569 590.832 86.1652 593.091C86.7982 595.441 87.1147 596.777 87.9689 599.057C88.5897 600.713 88.9062 601.663 89.5686 603.303C90.0252 604.434 90.3366 605.223 90.8825 606.132" stroke="#45846C" stroke-width="1.92003" stroke-linecap="round" stroke-linejoin="round"/>
<path d="M104.929 525.35C104.097 527.482 102.958 529.431 102.044 531.489C101.507 532.697 100.949 534.14 100.595 535.929C99.8881 539.494 99.5555 541.895 101.011 545.225C101.624 546.628 101.977 547.506 103.107 548.539C103.408 548.814 103.924 549.187 103.924 549.187C103.924 549.187 104.119 548.711 104.264 548.416C104.77 547.381 105.066 546.745 105.928 545.98C106.31 545.642 106.992 545.225 106.992 545.225C106.992 545.225 107.414 546.794 107.617 547.815C107.957 549.52 107.94 550.51 108.193 552.231C108.786 556.26 109.435 558.465 110.105 562.482C110.858 567 111.401 569.526 111.785 574.09C112.173 578.705 112.355 581.323 112.063 585.945C111.932 588.01 111.822 589.169 111.523 591.217C111.26 593.016 111.074 594.021 110.675 595.796" stroke="#45846C" stroke-width="1.92003" stroke-linecap="round" stroke-linejoin="round"/>
<path d="M61.3447 631.912C60.1646 630.608 60.0006 630.184 58.8486 628.84C60.3847 627.688 61.0031 626.835 62.7349 625.584C66.1967 623.082 68.2603 621.913 71.9048 619.624C76.722 616.597 79.425 615.058 84.385 611.944C86.4124 610.67 90.1451 608.488 90.1451 608.488C90.1451 608.488 93.7098 606.403 95.5212 605.415L110.305 597.735C111.838 597.139 113.237 596.029 114.913 596.199C116.735 596.385 117.302 597.487 118.178 598.887C119.138 600.423 119.982 601.921 120.482 602.919L122.402 606.76C122.978 607.912 122.947 609.079 122.21 609.448C119.906 610.6 117.113 611.58 114.145 613.096C109.361 615.539 106.539 616.725 101.896 619.427C96.9558 622.301 94.0751 623.719 89.1384 626.599C85.1722 628.913 82.8916 630.125 79.0594 632.654C75.8112 634.798 73.7853 636.736 70.9448 638.44C70.739 638.563 68.2568 640.36 68.2568 640.36C68.2568 640.36 67.1543 638.889 66.7207 638.44C65.1939 636.859 64.447 635.739 63.0727 634.024C62.4364 633.23 62.0275 632.666 61.3447 631.912Z" stroke="#B29172" stroke-width="1.92003" stroke-linecap="round" stroke-linejoin="round"/>
<path d="M396.354 570.155C397.447 568.835 397.639 569.069 396.416 568.665C395.881 568.488 394.085 568.956 393.042 569.438C392.026 569.908 392.816 571.473 391.609 572.014C390.902 572.331 390.51 572.224 389.752 572.064C389.172 571.941 388.132 571.752 387.574 571.892C386.453 572.174 385.862 572.608 385.062 573.442C384.108 574.436 384.026 576.478 383.044 577.444C381.941 578.527 380.929 578.645 379.754 578.699C376.845 578.833 375.759 576.737 373.284 577.553C370.719 578.399 370.502 581.042 370.025 583.282C369.52 585.648 367.314 586.373 364.723 587.054C361.924 587.789 358.767 587.695 358.492 590.575C358.345 592.116 357.691 590.876 358.492 592.2C358.877 592.837 358.315 593.344 358.761 593.94C359.305 594.669 359.609 594.924 360.282 595.535C361.03 596.214 361.555 596.528 362.517 596.836C363.266 597.075 363.724 597.107 364.51 597.118C365.916 597.139 366.807 597.051 368.03 596.356C369.213 595.683 369.449 595.185 370.141 594.013C370.736 593.004 371.007 592.252 371.043 591.059C371.104 589.051 373.555 587.612 375.481 587.671C377.886 587.743 382.259 587.722 382.364 584.236C382.406 582.863 382.778 581.502 383.484 580.318C383.75 579.87 383.864 579.268 384.387 578.839C384.855 578.457 385.24 578.424 385.82 578.256C386.952 577.928 387.86 577.994 388.829 578.024C390.145 578.063 390.708 577.87 391.367 576.645C391.573 576.263 391.727 575.45 391.739 575.029C391.757 574.451 391.98 574.142 392.135 573.656C392.37 572.918 393.547 572.062 394.206 571.677C394.928 571.256 395.802 570.823 396.354 570.155Z" fill="#C8BFB6"/>
<path d="M397.516 570.842C398.568 569.489 397.65 568.49 396.415 568.123C395.875 567.962 394.806 568.096 393.778 568.61C392.777 569.11 392.458 570.796 391.268 571.374C390.572 571.712 390.176 571.616 389.414 571.479C388.83 571.374 387.785 571.217 387.232 571.374C386.119 571.689 385.542 572.141 384.767 572.999C383.844 574.021 384.637 575.525 383.684 576.52C382.615 577.636 381.606 577.785 380.433 577.875C377.531 578.096 376.144 576.225 373.694 577.116C371.156 578.039 370.922 580.944 370.512 583.198C370.079 585.578 367.292 585.784 364.722 586.543C361.948 587.362 358.409 587.719 358.221 590.606C358.121 592.151 358.464 592.828 359.305 594.127C359.709 594.752 360.196 595.17 360.659 595.753C361.225 596.465 361.537 596.71 362.228 597.301C362.996 597.957 363.53 598.255 364.501 598.533C365.257 598.75 365.716 598.768 366.501 598.756C367.908 598.733 368.796 598.619 369.997 597.887C371.159 597.179 371.38 596.674 372.036 595.482C372.601 594.455 372.849 593.695 372.849 592.502C372.849 590.492 375.255 588.981 377.183 588.981C379.588 588.981 383.959 588.828 383.959 585.34C383.959 583.966 384.29 582.594 384.959 581.389C385.212 580.934 385.307 580.328 385.817 579.884C386.273 579.488 386.657 579.443 387.232 579.258C388.353 578.896 389.263 578.935 390.232 578.935C391.549 578.935 392.105 578.724 392.728 577.48C392.922 577.092 393.051 576.275 393.051 575.853C393.051 575.275 393.264 574.959 393.404 574.469C393.617 573.725 394.768 572.833 395.415 572.428C396.124 571.986 396.984 571.526 397.516 570.842Z" stroke="#B29172" stroke-width="1.62528" stroke-linecap="round" stroke-linejoin="round"/>
<path d="M353.616 604.15C363.623 593.555 382.33 580.313 382.33 580.313C382.33 580.313 363.368 591.96 348.199 607.942C336.025 620.769 312.172 647.762 312.172 647.762V653.721C312.172 653.721 324.639 637.213 333.3 626.904C340.873 617.89 349.011 609.026 353.616 604.15Z" fill="#E7DDC8"/>
<circle r="0.812638" transform="matrix(-1 0 0 1 373.39 593.044)" fill="#C5DF86"/>
<circle r="0.812638" transform="matrix(-1 0 0 1 371.765 602.796)" fill="#C5DF86"/>
<circle r="0.812638" transform="matrix(-1 0 0 1 370.14 599.545)" fill="#C5DF86"/>
<circle r="0.812638" transform="matrix(-1 0 0 1 360.93 596.836)" fill="#C5DF86"/>
<circle r="0.812638" transform="matrix(-1 0 0 1 362.556 588.71)" fill="#C5DF86"/>
<circle r="0.812638" transform="matrix(-1 0 0 1 357.68 587.085)" fill="#C5DF86"/>
<circle r="0.812638" transform="matrix(-1 0 0 1 360.389 583.834)" fill="#B29172"/>
<circle r="0.812638" transform="matrix(-1 0 0 1 364.723 582.209)" fill="#C5DF86"/>
<circle r="0.812638" transform="matrix(-1 0 0 1 368.515 586.543)" fill="#C5DF86"/>
<circle r="0.812638" transform="matrix(-1 0 0 1 372.307 585.459)" fill="#C5DF86"/>
<circle r="0.541759" transform="matrix(-1 0 0 1 373.661 599.816)" fill="#619482"/>
<circle r="0.541759" transform="matrix(-1 0 0 1 368.786 592.231)" fill="#C5DF86"/>
<circle r="0.541759" transform="matrix(-1 0 0 1 366.619 588.981)" fill="#C5DF86"/>
<circle r="0.541759" transform="matrix(-1 0 0 1 366.619 595.482)" fill="#619482"/>
<circle r="0.541759" transform="matrix(-1 0 0 1 362.284 591.69)" fill="#C5DF86"/>
<circle r="0.541759" transform="matrix(-1 0 0 1 364.993 585.188)" fill="#619482"/>
<circle r="0.541759" transform="matrix(-1 0 0 1 355.242 590.606)" fill="#619482"/>
<circle r="0.541759" transform="matrix(-1 0 0 1 356.867 594.94)" fill="#B29172"/>
<circle r="0.541759" transform="matrix(-1 0 0 1 360.117 599.274)" fill="#C5DF86"/>
<circle r="0.541759" transform="matrix(-1 0 0 1 362.826 601.983)" fill="#B29172"/>
<circle r="0.541759" transform="matrix(-1 0 0 1 366.077 599.816)" fill="#C5DF86"/>
<circle r="0.541759" transform="matrix(-1 0 0 1 367.702 602.525)" fill="#619482"/>
<path d="M360.633 525.192C361.297 523.612 361 523.55 361.925 524.447C362.33 524.839 362.747 526.648 362.802 527.796C362.856 528.913 361.104 528.938 361.183 530.259C361.229 531.032 361.506 531.33 361.999 531.927C362.377 532.384 363.025 533.219 363.159 533.778C363.429 534.903 363.318 535.627 362.949 536.723C362.51 538.028 360.738 539.047 360.337 540.364C359.888 541.843 360.252 542.795 360.748 543.862C361.977 546.501 364.337 546.493 364.76 549.065C365.198 551.73 362.956 553.146 361.192 554.607C359.329 556.15 359.708 558.44 360.305 561.053C360.949 563.873 362.495 566.628 360.069 568.206C358.771 569.049 360.174 569.055 358.629 568.958C357.886 568.912 357.697 569.644 356.963 569.526C356.065 569.381 355.698 569.23 354.844 568.916C353.897 568.568 353.375 568.248 352.657 567.538C352.098 566.985 351.857 566.594 351.483 565.903C350.814 564.665 350.479 563.835 350.529 562.43C350.577 561.07 350.909 560.63 351.628 559.474C352.246 558.479 352.787 557.891 353.828 557.306C355.58 556.322 355.719 553.484 354.775 551.803C353.598 549.706 351.591 545.82 354.632 544.112C355.829 543.439 356.864 542.479 357.586 541.306C357.86 540.862 358.341 540.482 358.478 539.82C358.601 539.228 358.451 538.872 358.332 538.28C358.098 537.125 357.619 536.351 357.144 535.505C356.499 534.357 356.41 533.769 357.191 532.617C357.434 532.258 358.083 531.745 358.45 531.539C358.955 531.256 359.125 530.915 359.484 530.553C360.029 530.003 360.243 528.563 360.279 527.801C360.318 526.966 360.297 525.991 360.633 525.192Z" fill="#C8BFB6"/>
<path d="M359.486 524.48C360.197 522.921 361.508 523.271 362.406 524.196C362.798 524.6 363.175 525.61 363.196 526.759C363.216 527.878 361.869 528.941 361.908 530.263C361.931 531.037 362.199 531.344 362.674 531.955C363.037 532.424 363.661 533.278 363.778 533.841C364.013 534.973 363.88 535.693 363.479 536.778C363 538.069 361.3 538.064 360.859 539.369C360.365 540.833 360.701 541.796 361.164 542.877C362.312 545.552 364.613 545.915 364.958 548.498C365.315 551.176 362.849 552.729 361.041 554.135C359.132 555.622 360.241 558.187 360.758 560.816C361.316 563.655 362.639 566.957 360.167 568.46C358.845 569.264 358.086 569.273 356.545 569.13C355.803 569.061 355.208 568.823 354.477 568.683C353.584 568.511 353.222 568.348 352.378 568.009C351.441 567.632 350.929 567.296 350.233 566.565C349.691 565.996 349.463 565.598 349.11 564.895C348.478 563.638 348.168 562.798 348.261 561.395C348.35 560.037 348.695 559.607 349.448 558.474C350.096 557.498 350.655 556.926 351.713 556.374C353.494 555.443 353.719 552.61 352.827 550.902C351.713 548.77 349.824 544.825 352.916 543.21C354.133 542.574 355.196 541.645 355.953 540.494C356.24 540.058 356.733 539.694 356.89 539.036C357.03 538.448 356.892 538.088 356.79 537.492C356.592 536.33 356.136 535.542 355.687 534.683C355.077 533.516 355.006 532.925 355.821 531.798C356.075 531.446 356.739 530.953 357.113 530.758C357.625 530.49 357.806 530.155 358.175 529.804C358.737 529.27 358.994 527.838 359.053 527.077C359.117 526.244 359.126 525.268 359.486 524.48Z" stroke="#B29172" stroke-width="1.62528" stroke-linecap="round" stroke-linejoin="round"/>
<path d="M351.449 579.771C356.205 565.995 358.125 542.326 358.125 542.326C358.125 542.326 358.047 565.426 350.907 586.272C345.177 603.002 337.363 621.757 337.363 621.757L331.945 626.362C331.945 626.362 335.488 619.851 340.614 607.401C345.095 596.514 349.26 586.11 351.449 579.771Z" fill="#E7DDC8"/>
<circle cx="361.327" cy="518.037" r="1.62528" transform="rotate(62.4116 361.327 518.037)" fill="#C5DF86"/>
<circle cx="350.982" cy="556.145" r="0.812638" transform="rotate(62.4116 350.982 556.145)" fill="#C5DF86"/>
<circle cx="347.785" cy="553.536" r="0.812638" transform="rotate(62.4116 347.785 553.536)" fill="#B29172"/>
<circle cx="343.092" cy="562.101" r="0.812638" transform="rotate(62.4116 343.092 562.101)" fill="#C5DF86"/>
<circle cx="346.725" cy="562.036" r="0.812638" transform="rotate(62.4116 346.725 562.036)" fill="#C5DF86"/>
<circle cx="353.391" cy="568.944" r="0.812638" transform="rotate(62.4116 353.391 568.944)" fill="#C5DF86"/>
<circle cx="359.841" cy="563.74" r="0.812638" transform="rotate(62.4116 359.841 563.74)" fill="#C5DF86"/>
<circle cx="363.54" cy="567.309" r="0.812638" transform="rotate(62.4116 363.54 567.309)" fill="#C5DF86"/>
<circle cx="365.166" cy="563.403" r="0.812638" transform="rotate(62.4116 365.166 563.403)" fill="#B29172"/>
<circle cx="364.599" cy="558.809" r="0.812638" transform="rotate(62.4116 364.599 558.809)" fill="#C5DF86"/>
<circle cx="359.002" cy="557.455" r="0.812638" transform="rotate(62.4116 359.002 557.455)" fill="#C5DF86"/>
<circle cx="358.206" cy="553.592" r="0.812638" transform="rotate(62.4116 358.206 553.592)" fill="#C5DF86"/>
<circle cx="344.855" cy="559.041" r="0.541759" transform="rotate(62.4116 344.855 559.041)" fill="#619482"/>
<circle cx="353.835" cy="559.849" r="0.541759" transform="rotate(62.4116 353.835 559.849)" fill="#C5DF86"/>
<circle cx="357.719" cy="560.265" r="0.541759" transform="rotate(62.4116 357.719 560.265)" fill="#C5DF86"/>
<circle cx="351.957" cy="563.276" r="0.541759" transform="rotate(62.4116 351.957 563.276)" fill="#619482"/>
<circle cx="357.326" cy="565.36" r="0.541759" transform="rotate(62.4116 357.326 565.36)" fill="#C5DF86"/>
<circle cx="361.833" cy="559.949" r="0.541759" transform="rotate(62.4116 361.833 559.949)" fill="#619482"/>
<circle cx="361.548" cy="571.101" r="0.541759" transform="rotate(62.4116 361.548 571.101)" fill="#619482"/>
<circle cx="356.954" cy="571.667" r="0.541759" transform="rotate(62.4116 356.954 571.667)" fill="#B29172"/>
<circle cx="351.607" cy="570.794" r="0.541759" transform="rotate(62.4116 351.607 570.794)" fill="#C5DF86"/>
<circle cx="347.952" cy="569.647" r="0.541759" transform="rotate(62.4116 347.952 569.647)" fill="#B29172"/>
<circle cx="348.367" cy="565.763" r="0.541759" transform="rotate(62.4116 348.367 565.763)" fill="#C5DF86"/>
<circle cx="345.214" cy="565.577" r="0.541759" transform="rotate(62.4116 345.214 565.577)" fill="#619482"/>
<circle cx="345.041" cy="555.887" r="0.541759" transform="rotate(62.4116 345.041 555.887)" fill="#C5DF86"/>
<path d="M327.691 675.924H174.369C163.358 675.924 154.909 666.223 156.294 655.345L165.505 584.392C166.682 575.315 174.438 568.525 183.579 568.525H315.087C323.951 568.525 331.499 574.83 333.023 583.561L345.627 654.513C347.635 665.669 339.048 675.924 327.691 675.924Z" fill="#4A5759"/>
<path d="M342.693 636.557L342.687 636.507L342.642 636.152L342.478 634.832L341.92 630.358L340.491 618.892C340.195 616.509 339.983 614.463 339.782 612.516C339.406 608.882 339.066 605.591 338.272 601.094C337.681 597.751 337.067 595.519 336.433 593.217C336.392 593.067 336.351 592.917 336.31 592.767C335.637 590.318 334.934 587.673 334.181 583.359C332.559 574.062 324.519 567.349 315.087 567.349C313.335 567.349 310.96 567.572 308.187 567.832C307.22 567.923 306.204 568.018 305.149 568.11C301.019 568.47 296.167 568.795 290.917 568.664C286.54 568.555 281.877 568.079 277.071 567.589C276.508 567.531 275.943 567.474 275.377 567.416C269.999 566.873 264.48 566.365 259.145 566.409C252.792 566.398 247.707 566.665 242.765 566.925C242.288 566.951 241.812 566.976 241.336 567C235.935 567.281 230.562 567.52 223.678 567.35C220.606 567.274 216.671 567.156 213.502 567.058C211.918 567.008 210.527 566.964 209.531 566.932C209.033 566.916 208.634 566.903 208.36 566.894L208.045 566.883L207.963 566.881L207.943 566.88L207.938 566.88L207.936 566.88L207.936 566.88C207.936 566.88 207.936 566.88 207.897 568.055L207.936 566.88L207.905 566.879L207.874 566.879L183.568 567.349C179.494 567.349 175.554 567.403 171.483 570.28C166.364 573.898 165.002 579.13 164.339 584.241C164.051 586.464 163.916 588.465 163.783 590.446C163.763 590.744 163.743 591.041 163.723 591.339C163.566 593.622 163.379 595.947 162.933 598.7C162.408 601.942 161.679 604.413 160.934 606.94L160.911 607.017C160.157 609.573 159.389 612.192 158.854 615.635C158.335 618.97 158.165 621.599 158.051 624.208C158.027 624.753 158.006 625.295 157.984 625.842C157.902 627.916 157.818 630.054 157.587 632.639C156.801 641.463 155.839 649.612 155.128 655.196C154.403 660.894 154.641 667.323 159.674 672.28C163.353 675.904 167.127 676.471 171.545 677.136C172.394 677.263 173.266 677.395 174.167 677.552C178.068 678.233 181.123 677.905 184.106 677.402C184.708 677.301 185.303 677.193 185.898 677.085C188.261 676.659 190.64 676.229 193.563 676.158C197.242 676.07 200.109 676.303 203.001 676.619C203.666 676.691 204.334 676.768 205.015 676.847C207.296 677.11 209.723 677.39 212.628 677.567C213.69 677.632 214.685 677.693 215.631 677.752C221.381 678.108 225.34 678.353 231.836 678.509C235.643 678.601 238.602 678.432 241.538 678.207C242.169 678.159 242.797 678.108 243.431 678.057C245.751 677.87 248.152 677.676 251.073 677.569C254.745 677.434 257.61 677.619 260.509 677.864C260.992 677.904 261.477 677.947 261.967 677.99C264.42 678.205 267.008 678.432 270.166 678.509C273.708 678.596 276.522 678.54 279.268 678.486C279.446 678.482 279.624 678.479 279.802 678.475C282.718 678.418 285.612 678.373 289.317 678.509C294.207 678.688 297.715 678.635 301.613 678.575C303.712 678.543 305.924 678.51 308.526 678.51C312.334 678.51 317.17 678.153 321.03 677.8C322.965 677.622 324.664 677.445 325.879 677.313C326.487 677.246 326.974 677.191 327.31 677.152C327.478 677.133 327.608 677.117 327.696 677.107L327.762 677.099C333.593 677.082 339.322 674.969 342.898 670.797C346.579 666.502 347.85 660.23 346.784 654.305C346.268 651.44 345.237 646.975 344.342 643.25C343.894 641.382 343.477 639.691 343.172 638.468C343.02 637.856 342.896 637.361 342.809 637.018L342.71 636.624L342.693 636.557Z" stroke="#83A096" stroke-width="2.35102"/>
<path d="M313.633 641.972H189.258C185.034 641.972 181.641 638.577 181.641 634.35V591.391C181.641 587.164 185.034 583.769 189.258 583.769H313.633C317.857 583.769 321.251 587.164 321.251 591.391V634.35C321.181 638.577 317.788 641.972 313.633 641.972Z" fill="#B7C2B4"/>
<path d="M232.263 648.485C246.044 648.485 259.756 648.485 273.537 648.485C274.853 648.485 274.853 646.406 273.537 646.406C259.756 646.406 246.044 646.406 232.263 646.406C230.878 646.406 230.878 648.485 232.263 648.485Z" fill="#F9F6EF"/>
<path d="M231.57 653.751C232.886 653.751 232.886 651.672 231.57 651.672C230.185 651.672 230.185 653.751 231.57 653.751Z" fill="#F9F6EF"/>
<path d="M237.11 653.751C249.922 653.751 262.803 653.751 275.614 653.751C276.93 653.751 276.93 651.672 275.614 651.672C262.803 651.672 249.922 651.672 237.11 651.672C235.795 651.672 235.795 653.751 237.11 653.751Z" fill="#F9F6EF"/>
<path d="M290.457 640.36C290.457 640.36 305.646 663.449 304.302 677.477L343.268 662.221C343.268 662.221 330.825 622.825 325.216 618.5L290.457 640.36Z" fill="#EFEDEA"/>
<path d="M306.581 633.463C308.976 635.743 310.787 638.548 311.78 641.705C312.131 642.757 313.825 642.289 313.474 641.237C312.364 637.789 310.436 634.691 307.808 632.236C306.99 631.417 305.763 632.645 306.581 633.463Z" fill="#83A096"/>
<path d="M307.458 634.34C307.633 633.989 307.633 633.697 307.574 633.346C307.574 633.171 307.516 633.054 307.458 632.879C307.458 632.937 307.458 633.054 307.516 633.112C307.516 633.054 307.516 632.996 307.516 632.937C307.516 632.996 307.516 633.112 307.458 633.171C307.458 633.112 307.458 633.054 307.516 632.996C307.458 633.054 307.458 633.112 307.399 633.229C307.399 633.171 307.458 633.113 307.516 633.054C307.458 633.113 307.399 633.171 307.399 633.229C307.458 633.171 307.516 633.112 307.516 633.112C307.458 633.171 307.399 633.229 307.341 633.229C307.399 633.171 307.458 633.112 307.574 633.112C307.516 633.171 307.458 633.171 307.341 633.229C307.458 633.171 307.516 633.171 307.633 633.171C307.574 633.171 307.458 633.171 307.399 633.229C307.516 633.229 307.574 633.229 307.691 633.229C307.633 633.229 307.516 633.229 307.458 633.171C307.633 633.171 307.75 633.229 307.867 633.288C307.808 633.229 307.75 633.229 307.633 633.171C307.866 633.288 308.1 633.405 308.275 633.522C308.684 633.755 309.269 633.639 309.502 633.229C309.736 632.82 309.619 632.294 309.21 632.002C308.86 631.768 308.509 631.534 308.1 631.476C307.867 631.417 307.691 631.359 307.458 631.417C307.165 631.417 306.932 631.476 306.698 631.593C306.289 631.768 305.997 632.177 305.822 632.586C305.705 632.879 305.763 633.112 305.822 633.405C305.822 633.58 305.88 633.697 305.939 633.872C305.939 633.814 305.939 633.697 305.88 633.639C305.88 633.697 305.88 633.755 305.88 633.814C305.88 633.755 305.88 633.639 305.939 633.58C305.939 633.639 305.939 633.639 305.939 633.697C305.997 633.639 305.997 633.58 306.056 633.463C306.056 633.463 306.056 633.522 305.997 633.522C305.88 633.697 305.822 633.989 305.88 634.223C305.939 634.398 306.114 634.632 306.289 634.749C306.698 634.866 307.224 634.808 307.458 634.34Z" fill="#83A096"/>
<path d="M309.619 650.59C310.379 651.642 311.196 652.635 311.956 653.687C312.248 654.038 312.715 654.272 313.183 653.98C313.65 653.746 313.708 653.22 313.475 652.752C313.533 652.869 313.475 652.694 313.416 652.635C313.416 652.577 313.358 652.46 313.358 652.402C313.299 652.285 313.299 652.109 313.241 651.992C313.241 651.992 313.183 651.759 313.241 651.875C313.241 651.817 313.241 651.759 313.241 651.7C313.241 651.583 313.241 651.408 313.241 651.291C313.241 650.823 313.416 650.239 313.592 649.83C313.65 649.713 313.708 649.596 313.825 649.479C313.884 649.362 313.884 649.479 313.825 649.479C313.592 649.654 313.358 649.654 313.183 649.537C313.183 649.537 313.183 649.537 313.241 649.596C313.475 649.888 313.825 650.122 314.059 650.356C314.585 650.823 315.169 651.349 315.695 651.817C316.045 652.109 316.571 652.168 316.921 651.817C317.272 651.466 317.272 650.882 316.921 650.59C316.22 649.947 315.519 649.362 314.818 648.719C314.409 648.368 314 647.901 313.416 647.901C312.832 647.901 312.423 648.31 312.19 648.778C311.255 650.239 311.255 652.109 311.897 653.629C312.423 653.337 312.891 653.044 313.416 652.752C312.657 651.7 311.839 650.706 311.08 649.654C310.787 649.304 310.32 649.07 309.853 649.362C309.561 649.596 309.327 650.239 309.619 650.59Z" fill="#83A096"/>
<path d="M316.805 648.251C317.389 647.608 317.973 646.965 318.557 646.322C318.732 646.147 318.791 645.913 318.791 645.679C318.791 645.446 318.674 645.212 318.557 645.036C318.382 644.861 318.148 644.744 317.914 644.803C317.681 644.803 317.447 644.861 317.272 645.036C316.688 645.679 316.103 646.322 315.519 646.965C315.344 647.141 315.286 647.375 315.286 647.608C315.286 647.842 315.402 648.076 315.519 648.251C315.695 648.427 315.928 648.544 316.162 648.485C316.454 648.544 316.688 648.427 316.805 648.251Z" fill="#83A096"/>
<path d="M315.052 644.569C316.045 646.264 317.096 647.959 318.265 649.596C318.498 649.946 319.024 650.18 319.492 649.888C319.842 649.654 320.076 649.07 319.784 648.66C318.674 647.024 317.622 645.329 316.571 643.634C316.337 643.225 315.753 643.049 315.344 643.341C314.935 643.634 314.818 644.16 315.052 644.569Z" fill="#83A096"/>
<path d="M319.317 645.796C319.725 646.381 320.193 646.965 320.602 647.608C320.719 647.784 320.894 647.959 321.128 648.017C321.361 648.076 321.595 648.076 321.829 647.901C322.004 647.784 322.179 647.608 322.237 647.375C322.296 647.141 322.296 646.907 322.121 646.673C321.712 646.089 321.244 645.504 320.835 644.861C320.719 644.686 320.543 644.51 320.31 644.452C320.076 644.394 319.842 644.393 319.609 644.569C319.433 644.686 319.258 644.861 319.2 645.095C319.2 645.329 319.2 645.621 319.317 645.796Z" fill="#83A096"/>
<path d="M318.79 643.634C319.9 643.634 319.9 641.88 318.79 641.88C317.681 641.88 317.681 643.634 318.79 643.634Z" fill="#83A096"/>
<path d="M320.777 640.244C322.179 642.056 323.581 643.809 324.924 645.68C325.216 646.089 325.684 646.264 326.151 645.972C326.502 645.738 326.735 645.154 326.443 644.744C324.983 642.815 323.522 640.828 322.003 638.958C321.711 638.607 321.069 638.665 320.777 638.958C320.426 639.367 320.485 639.893 320.777 640.244Z" fill="#83A096"/>
<path d="M303.076 652.635C303.777 653.512 304.478 654.33 305.238 655.149C305.588 655.558 305.997 655.909 306.348 656.318C306.698 656.668 307.107 657.078 307.516 657.37C308.451 658.013 309.736 657.662 310.262 656.668C310.788 655.616 310.379 654.506 309.911 653.512C309.327 652.343 308.801 651.174 308.217 650.063C307.984 649.654 307.399 649.537 306.99 649.771C306.581 650.005 306.465 650.531 306.698 650.999C307.224 652.109 307.808 653.22 308.334 654.33C308.509 654.74 308.743 655.149 308.743 655.558C308.743 655.675 308.743 655.792 308.626 655.967C308.685 655.85 308.568 656.025 308.568 656.025C308.626 655.967 308.626 655.967 308.568 656.025C308.626 655.967 308.626 655.967 308.568 656.025C308.626 656.025 308.626 656.025 308.685 656.025C308.568 655.967 308.568 655.967 308.626 656.025C308.568 655.967 308.451 655.909 308.392 655.85C308.451 655.85 308.217 655.675 308.217 655.675C308.1 655.558 307.984 655.441 307.867 655.382C307.458 654.973 307.107 654.564 306.698 654.155C305.88 653.278 305.121 652.343 304.362 651.466C304.069 651.116 303.427 651.174 303.135 651.466C302.667 651.759 302.784 652.285 303.076 652.635Z" fill="#83A096"/>
<path d="M313.007 660.76C312.189 660.585 311.313 660.877 310.787 661.52C310.261 662.221 310.086 662.981 310.203 663.858C310.319 664.559 310.67 665.202 311.196 665.67C311.605 665.962 312.014 666.196 312.539 666.196C312.89 666.196 313.299 666.137 313.649 666.021C314.117 665.845 314.526 665.67 314.876 665.319C315.285 664.968 315.46 664.442 315.519 663.916C315.519 663.449 315.11 663.04 314.642 663.04C314.175 663.04 313.766 663.449 313.766 663.916C313.766 664.033 313.766 663.975 313.766 663.858C313.766 663.916 313.766 663.916 313.766 663.975C313.825 663.858 313.825 663.858 313.766 663.916C313.766 663.975 313.708 663.975 313.708 664.033C313.766 663.916 313.825 663.916 313.766 663.975L313.708 664.033C313.649 664.092 313.649 664.092 313.766 664.033C313.708 664.033 313.708 664.092 313.649 664.092C313.591 664.15 313.532 664.15 313.416 664.209H313.357C313.24 664.267 313.299 664.267 313.416 664.209C313.299 664.325 313.065 664.325 312.948 664.384C312.89 664.384 312.89 664.384 312.831 664.384C312.715 664.384 312.773 664.384 312.89 664.384H312.656C312.773 664.384 312.773 664.384 312.715 664.384C312.656 664.384 312.656 664.384 312.598 664.384C312.481 664.325 312.539 664.384 312.656 664.384C312.598 664.384 312.598 664.326 312.539 664.326C312.481 664.326 312.481 664.267 312.422 664.267C312.364 664.209 312.364 664.209 312.481 664.326C312.481 664.326 312.306 664.209 312.306 664.15L312.247 664.092C312.306 664.209 312.364 664.209 312.306 664.15C312.247 664.092 312.247 664.033 312.189 663.975L312.072 663.799C312.13 663.916 312.13 663.916 312.072 663.858C312.072 663.799 312.072 663.799 312.014 663.741C312.014 663.683 311.955 663.566 311.955 663.507C311.955 663.449 311.955 663.449 311.955 663.39C311.955 663.507 311.955 663.566 311.955 663.449C311.955 663.39 311.955 663.273 311.955 663.215C311.955 663.156 311.955 663.04 311.955 663.04C311.955 663.156 311.955 663.215 311.955 663.098C311.955 663.04 311.955 663.04 311.955 662.981L312.014 662.747C311.955 662.864 311.955 662.864 312.014 662.806C312.014 662.747 312.072 662.747 312.072 662.689C312.072 662.63 312.13 662.63 312.13 662.572C312.189 662.514 312.189 662.513 312.072 662.63L312.189 662.514L312.247 662.455C312.13 662.513 312.13 662.572 312.189 662.514L312.364 662.397C312.247 662.455 312.247 662.455 312.306 662.397C312.364 662.397 312.364 662.397 312.422 662.338C312.539 662.338 312.481 662.338 312.364 662.338C312.422 662.338 312.422 662.338 312.481 662.338C312.539 662.338 312.539 662.338 312.598 662.338C312.481 662.338 312.422 662.338 312.539 662.338C313.007 662.455 313.532 662.221 313.591 661.754C313.708 661.403 313.474 660.818 313.007 660.76Z" fill="#83A096"/>
<path d="M314.058 660.292C314.759 661.344 315.402 662.455 316.103 663.507C316.687 664.442 318.206 663.566 317.622 662.63C317.213 661.987 316.921 661.286 316.746 660.468C316.629 659.942 316.454 659.006 317.038 658.656C317.505 658.305 317.972 659.006 318.264 659.299C318.79 659.883 319.199 660.468 319.608 661.169C320.192 662.163 321.653 661.286 321.127 660.292C320.777 659.649 320.543 658.889 320.426 658.13C320.368 657.72 320.251 657.37 320.192 656.961C320.192 656.785 320.075 656.61 320.192 656.493C320.543 656.201 321.185 656.844 321.419 657.077C321.945 657.604 322.354 658.246 322.704 658.948C322.938 659.357 323.522 659.474 323.931 659.24C324.34 659.006 324.457 658.48 324.223 658.013C323.464 656.434 321.361 653.687 319.316 654.973C318.148 655.675 318.381 656.844 318.615 657.954C318.79 659.065 319.082 660.117 319.608 661.111C320.134 660.818 320.601 660.526 321.127 660.234C320.192 658.656 318.206 655.616 316.103 657.136C314.058 658.597 315.11 661.695 316.161 663.449C316.687 663.156 317.155 662.864 317.68 662.572C316.979 661.52 316.337 660.409 315.636 659.357C314.935 658.48 313.416 659.357 314.058 660.292Z" fill="#83A096"/>
<path d="M323.698 648.894C325.042 650.882 327.028 652.577 327.904 654.915C328.43 654.681 328.956 654.447 329.481 654.213C328.78 653.278 328.079 652.343 327.145 651.7C326.152 651.057 324.749 650.706 323.815 651.583C322.822 652.46 323.114 653.921 323.64 654.973C324.165 656.025 324.983 657.253 326.327 657.253C327.904 657.194 328.547 655.616 328.722 654.272C328.78 653.804 328.605 653.337 328.138 653.22C327.729 653.103 327.145 653.337 327.086 653.804C327.028 654.213 326.911 655.675 326.21 655.499C325.801 655.382 325.567 654.798 325.392 654.506C325.158 654.155 324.925 653.746 324.925 653.278C324.925 653.103 324.983 652.869 325.158 652.81C325.509 652.694 325.976 652.986 326.21 653.161C326.969 653.629 327.554 654.389 328.021 655.149C328.255 655.499 328.664 655.675 329.131 655.499C329.481 655.324 329.774 654.856 329.657 654.447C328.664 651.992 326.736 650.18 325.275 648.017C324.983 647.608 324.516 647.433 324.048 647.725C323.581 647.901 323.406 648.485 323.698 648.894Z" fill="#83A096"/>
<path d="M329.481 651.817C329.832 651.583 330.065 651.349 330.357 650.999C330.533 650.765 330.766 650.472 331 650.297C330.942 650.356 330.883 650.414 330.825 650.414C330.942 650.356 331.058 650.297 331.175 650.239C331.35 650.18 331.526 649.888 331.584 649.713C331.643 649.479 331.643 649.245 331.467 649.011C331.35 648.836 331.175 648.66 330.942 648.602C330.883 648.602 330.766 648.602 330.708 648.544C330.533 648.544 330.416 648.602 330.241 648.66C329.832 648.836 329.539 649.128 329.247 649.479C329.014 649.771 328.78 650.063 328.488 650.297C328.546 650.239 328.605 650.18 328.663 650.18C328.605 650.239 328.605 650.239 328.546 650.297C328.371 650.414 328.196 650.589 328.137 650.823C328.079 651.057 328.079 651.291 328.254 651.525C328.371 651.7 328.546 651.875 328.78 651.934C329.072 651.992 329.306 651.992 329.481 651.817Z" fill="#83A096"/>
<path d="M332.519 641.588C331.526 641.939 330.708 642.757 330.474 643.809C330.241 644.978 330.708 646.03 331.526 646.848C331.993 647.316 335.557 650.472 334.447 651.174C333.512 651.758 334.388 653.278 335.323 652.694C336.199 652.168 336.55 651.115 336.258 650.122C335.966 649.07 335.148 648.193 334.447 647.375C334.096 646.965 333.746 646.615 333.337 646.205C332.986 645.855 332.636 645.563 332.344 645.212C331.876 644.51 332.11 643.575 332.928 643.341C334.038 642.874 333.57 641.179 332.519 641.588Z" fill="#83A096"/>
<path d="M333.161 648.31C333.629 647.901 334.155 647.492 334.622 647.024C334.797 646.907 334.856 646.615 334.856 646.381C334.856 646.147 334.739 645.913 334.622 645.738C334.447 645.563 334.213 645.446 333.979 645.504C333.921 645.504 333.804 645.504 333.746 645.563C333.57 645.621 333.454 645.68 333.337 645.796C332.869 646.206 332.344 646.615 331.876 647.082C331.701 647.199 331.643 647.492 331.643 647.725C331.643 647.959 331.759 648.193 331.876 648.368C332.051 648.544 332.285 648.661 332.519 648.602C332.577 648.602 332.694 648.602 332.753 648.544C332.928 648.485 333.045 648.427 333.161 648.31Z" fill="#83A096"/>
<path d="M282.955 561.201C282.483 563.485 281.483 565.144 281.264 567.126C281.833 568.263 284.423 567.544 286.459 567.681C290.8 567.974 293.253 567.694 297.599 567.496C301.607 567.314 304.412 566.756 307.845 566.756C308.787 566.756 313.882 566.729 313.862 566.643C313.654 565.708 313.819 564.873 313.667 563.752C313.46 562.224 313.278 561.083 312.782 559.905C312.402 559.002 311.064 559.164 311.064 559.164H302.742H290.534H284.817C284.194 559.164 283.316 558.852 283.316 559.627C283.316 560.22 283.083 560.584 282.955 561.201Z" stroke="#83A096" stroke-width="2.35102" stroke-linecap="round" stroke-linejoin="round"/>
</svg>
