<svg width="50" height="15" viewBox="0 0 50 15" fill="none" xmlns="http://www.w3.org/2000/svg">
<path d="M38.4998 6C38.9998 9 41.2598 11.3214 42.5513 12.0067C43.4488 10.6605 45.2954 9.8428 46.4009 8.79872C47.1562 8.08542 48.0049 7.53149 48.0049 6.39271C48.0049 5.21292 47.4997 4 45.9997 4.5C42.9997 5.5 42.4997 8.54999 42.4997 5.5C42.4997 3.81783 42.5896 1.54996 40.4997 2.4999C38.8641 3.24338 38.4998 4 38.4998 6Z" fill="#4A9D63" stroke="#4A5759" stroke-width="2" stroke-linecap="round" stroke-linejoin="round"/>
<path d="M26.0217 1C25.9825 1.05086 25.9431 1.10166 25.9036 1.15239C25.1148 2.45489 26.7302 6.97496 27.1917 7.89795C27.5218 8.55816 28.9213 9.98244 27.6257 9.98244C26.4367 9.98244 25.4486 10.7575 24.8989 11.7468C24.2726 12.8742 24.295 14.4508 23.6157 12.5488C23.3213 11.7245 23.5186 10.7056 23.1917 9.39795C22.7449 7.61085 19.7496 6.55802 19.117 6.5529C19.0424 6.58636 18.9998 6.60265 18.9998 6.5962C18.9998 6.56654 19.0416 6.55228 19.117 6.5529C19.6265 6.32424 21.6274 5.29399 21.7087 5.24171C23.3657 4.17654 24.7013 2.69611 25.9036 1.15239C25.9383 1.0952 25.9775 1.04421 26.0217 1Z" fill="#F8CD5E"/>
<path d="M26.0217 1C24.7887 2.59835 23.4201 4.14154 21.7087 5.24171C21.6155 5.30164 18.9998 6.64673 18.9998 6.5962C18.9998 6.3176 22.6917 7.39795 23.1917 9.39795C23.5186 10.7056 23.3213 11.7245 23.6157 12.5488C24.295 14.4508 24.2726 12.8742 24.8989 11.7468C25.4486 10.7575 26.4367 9.98244 27.6257 9.98244C28.9213 9.98244 27.5218 8.55816 27.1917 7.89795C26.7099 6.93444 24.9707 2.05099 26.0217 1Z" stroke="#4A5759" stroke-width="2" stroke-linecap="round" stroke-linejoin="round"/>
<path d="M3.99976 3.00025C6.23706 1.99422 7.49976 3.00085 8.49976 3.50039C10.4051 4.45223 10.7646 7.16678 10.9998 8.50039C11.1422 9.3079 10.0693 12.8565 7.89698 12.8565C4.80304 12.8565 0.999756 12.0936 0.999756 8.20483C0.999756 7.00962 1.76245 4.00628 3.99976 3.00025Z" fill="#9E483E" stroke="#4A5759" stroke-width="2" stroke-linecap="round" stroke-linejoin="round"/>
</svg>
