<svg width="96" height="275" viewBox="0 0 96 275" fill="none" xmlns="http://www.w3.org/2000/svg">
<path d="M48.5833 222.752C52.1168 222.794 56.9472 220.843 58.5092 225.432C54.9464 226.27 53.6719 227.34 49.9729 227.119C46.0366 226.885 41.7321 225.774 38.645 223.161C37.3832 222.094 36.205 220.78 35.2578 219.427C34.8937 218.907 34.9124 218.911 35.3322 219.179C36.4064 219.864 38.3399 219.826 39.5259 219.402C43.0409 218.147 45.2668 222.713 48.5833 222.752Z" fill="#B7C2B4"/>
<path d="M59.7996 226.892C60.2114 226.795 60.5632 226.529 60.7682 226.159C60.9732 225.789 61.0123 225.349 60.876 224.949C60.3926 223.529 59.6056 222.491 58.5483 221.818C57.5198 221.163 56.3715 220.942 55.3064 220.889C54.2499 220.837 53.1545 220.948 52.1909 221.052C52.1217 221.059 52.0532 221.067 51.9854 221.074C51.0621 221.174 50.2674 221.261 49.5479 221.252C49.0698 221.246 48.5639 221.079 47.95 220.731C47.4693 220.458 47.0206 220.137 46.5026 219.765C46.3238 219.637 46.1368 219.503 45.9373 219.363C44.5358 218.38 42.5081 217.082 39.9682 217.989C39.5765 218.129 38.9866 218.225 38.3791 218.207C37.7501 218.188 37.3039 218.053 37.086 217.914C37.0823 217.912 37.0784 217.909 37.0745 217.907C36.9869 217.851 36.8624 217.771 36.755 217.713C36.754 217.713 36.753 217.712 36.7519 217.711C36.7096 217.688 36.5614 217.608 36.3722 217.556C36.2891 217.533 36.0265 217.465 35.695 217.523C35.256 217.601 34.7642 217.901 34.5462 218.473C34.3855 218.894 34.4621 219.255 34.4863 219.36C34.5197 219.505 34.5673 219.616 34.592 219.67C34.6434 219.783 34.7013 219.878 34.7317 219.926C34.7991 220.034 34.8897 220.164 34.9757 220.287C35.9917 221.738 37.2558 223.15 38.6228 224.307C42.0547 227.21 46.7264 228.372 50.8304 228.617C52.8677 228.738 54.279 228.501 55.6447 228.117C56.1988 227.961 56.6768 227.806 57.1569 227.651C57.9253 227.402 58.6991 227.151 59.7996 226.892ZM37.2754 218.336C37.2709 218.328 37.2715 218.329 37.2758 218.336C37.2756 218.336 37.2755 218.336 37.2754 218.336Z" stroke="#2D433F" stroke-width="3" stroke-linecap="round" stroke-linejoin="round"/>
<path d="M42 222C45.2495 223.315 48.3777 224.288 52 224.66C53.7263 224.838 55.2642 225 57 225" stroke="#2D433F" stroke-linecap="round" stroke-linejoin="round"/>
<path d="M65.0883 196.656C63.4246 200.028 61.6822 203.256 59 205.628C63.0318 206.511 67.7664 206.817 71.597 205.164C73.629 204.286 75.2027 202.869 76.5174 200.86C77.2036 199.811 77.4695 198.539 78.059 197.457C79.1043 195.537 82.0663 195.859 83.6412 194.881C86.5066 193.102 87.0772 188.481 88.8108 185.673C89.5198 184.525 90.1256 183.321 90.9596 182.288C91.2546 181.923 91.5749 181.587 91.8705 181.223C91.9201 181.162 92.05 181.023 91.9795 181.005C91.5784 180.905 90.3476 182.314 90.0175 182.561C89.2228 183.156 88.3208 183.54 87.4327 183.899C85.7064 184.596 84.0523 184.099 82.2787 184.208C80.597 184.311 78.8382 184.196 77.7631 185.955C76.177 188.55 74.5737 192.752 71.2233 192.124C69.5711 191.815 68.3977 191.458 67.0347 193.034C66.1884 194.013 65.6746 195.467 65.0883 196.656Z" fill="#B7C2B4"/>
<path d="M59.0065 202.504C58.5833 202.878 58.4062 203.458 58.5482 204.005C58.6901 204.551 59.1272 204.972 59.6789 205.093C63.8158 205.999 68.9278 206.381 73.1915 204.541C75.5354 203.529 77.3239 201.895 78.7726 199.681C79.2108 199.011 79.4967 198.298 79.7235 197.712C79.7524 197.637 79.7803 197.565 79.8074 197.494C80.0093 196.969 80.1682 196.556 80.3763 196.174C80.5738 195.811 80.9991 195.539 82.0339 195.266C82.2761 195.202 82.5256 195.144 82.7986 195.081L82.8008 195.08C83.0652 195.019 83.3539 194.951 83.6375 194.876C84.1923 194.728 84.8462 194.52 85.4324 194.156C87.3024 192.995 88.3099 190.987 89.0358 189.238C89.2461 188.732 89.4637 188.164 89.67 187.626C89.8097 187.262 89.9441 186.912 90.0675 186.603C90.4014 185.767 90.7238 185.05 91.0871 184.461C91.3418 184.048 91.5641 183.667 91.773 183.308C92.2226 182.536 92.6105 181.87 93.1268 181.23C93.2514 181.076 93.3848 180.923 93.5412 180.746L93.5576 180.727C93.7037 180.561 93.8711 180.371 94.0345 180.17C93.9852 180.23 94.1361 180.053 94.2178 179.93C94.2187 179.929 94.2198 179.928 94.2211 179.926C94.2546 179.876 94.4138 179.639 94.4745 179.309C94.5098 179.117 94.5442 178.717 94.3109 178.293C94.0548 177.828 93.6395 177.624 93.3439 177.55C92.8343 177.422 92.4096 177.57 92.231 177.642C92.0158 177.73 91.8321 177.844 91.6994 177.936C91.4299 178.121 91.1637 178.356 90.9511 178.554C90.7612 178.73 90.573 178.915 90.4225 179.064C90.3991 179.087 90.3766 179.109 90.3551 179.13C90.2377 179.246 90.1707 179.309 90.1387 179.34C90.1153 179.362 90.1106 179.366 90.1185 179.36C89.4972 179.826 88.7624 180.148 87.8712 180.508C87.2881 180.743 86.6836 180.796 85.9147 180.774C85.7208 180.769 85.4929 180.757 85.2438 180.743C84.6255 180.709 83.8759 180.668 83.1866 180.711C83.0564 180.719 82.9122 180.725 82.7573 180.733C82.0819 180.764 81.205 180.804 80.4159 181.009C79.3215 181.294 78.2565 181.908 77.4832 183.173C77.2059 183.627 76.9158 184.149 76.6356 184.653C76.5003 184.896 76.3673 185.136 76.2392 185.361C75.822 186.095 75.4127 186.765 74.975 187.322C74.0919 188.447 73.3559 188.811 72.4996 188.65C72.409 188.633 72.3133 188.614 72.2134 188.595C71.5467 188.464 70.6896 188.295 69.8667 188.38C68.7542 188.495 67.7873 189.027 66.8999 190.053C66.3467 190.693 65.9387 191.443 65.6142 192.112C65.4575 192.435 65.3099 192.763 65.1738 193.064L65.1535 193.109C65.0084 193.431 64.8765 193.722 64.7431 193.992C63.0764 197.37 61.4437 200.349 59.0065 202.504ZM93.4246 180.391C93.4246 180.391 93.4237 180.392 93.4218 180.393C93.4237 180.392 93.4247 180.391 93.4246 180.391ZM92.6224 179.022L92.6948 179.081L92.6224 179.022Z" stroke="#2D433F" stroke-width="3" stroke-linecap="round" stroke-linejoin="round"/>
<path d="M70 198.968C73.0595 195.233 76.4464 192.512 80.983 191" stroke="#2D433F" stroke-width="1.5" stroke-linecap="round" stroke-linejoin="round"/>
<path d="M28.0505 181.949C29.9335 184.337 31.8444 187.702 34.3661 189.416C37.2523 191.378 40.1383 193.646 43.3599 194.918C46.3383 196.094 49.3568 197.021 52.2876 198.348C55.4782 199.793 56.8134 201.603 58.9999 204.457" stroke="#2D433F" stroke-width="2" stroke-linecap="round" stroke-linejoin="round"/>
<path d="M18.7107 176.128C19.5121 180.013 24.3083 181.834 28.2723 182.16C28.5061 181.018 28.9259 179.955 28.4925 178.813C28.0795 177.723 27.4911 176.67 26.9242 175.655C25.798 173.64 23.9251 172.087 22.3008 170.48C20.804 168.999 18.8317 166.861 17.66 165.074C17.3162 164.55 17.6832 165.223 17.7628 165.953C18.1328 169.346 18.0192 172.777 18.7107 176.128Z" fill="#CB906D"/>
<mask id="path-9-inside-1" fill="white">
<path d="M23.8191 174.882H25.8191L28.8191 178.882L27.8191 182.882L21.8191 181.882L18.8191 177.882L19.8191 175.882L22.8191 176.882L23.8191 174.882Z"/>
</mask>
<path d="M25.8191 174.882L32.2191 170.082L29.8191 166.882H25.8191V174.882ZM23.8191 174.882V166.882H18.8748L16.6637 171.305L23.8191 174.882ZM22.8191 176.882L20.2893 184.472L26.8716 186.666L29.9745 180.46L22.8191 176.882ZM19.8191 175.882L22.3489 168.293L15.7666 166.099L12.6637 172.305L19.8191 175.882ZM18.8191 177.882L11.6637 174.305L9.45253 178.727L12.4191 182.682L18.8191 177.882ZM21.8191 181.882L15.4191 186.682L17.3422 189.247L20.5039 189.773L21.8191 181.882ZM27.8191 182.882L26.5039 190.773L33.789 191.988L35.5802 184.823L27.8191 182.882ZM28.8191 178.882L36.5802 180.823L37.5037 177.129L35.2191 174.082L28.8191 178.882ZM25.8191 166.882H23.8191V182.882H25.8191V166.882ZM16.6637 171.305L15.6637 173.305L29.9745 180.46L30.9745 178.46L16.6637 171.305ZM25.3489 169.293L22.3489 168.293L17.2893 183.472L20.2893 184.472L25.3489 169.293ZM12.6637 172.305L11.6637 174.305L25.9745 181.46L26.9745 179.46L12.6637 172.305ZM12.4191 182.682L15.4191 186.682L28.2191 177.082L25.2191 173.082L12.4191 182.682ZM20.5039 189.773L26.5039 190.773L29.1343 174.991L23.1343 173.991L20.5039 189.773ZM35.5802 184.823L36.5802 180.823L21.058 176.942L20.058 180.942L35.5802 184.823ZM35.2191 174.082L32.2191 170.082L19.4191 179.682L22.4191 183.682L35.2191 174.082Z" fill="#83A096" mask="url(#path-9-inside-1)"/>
<path d="M27.6958 182.622C28.0741 182.653 28.416 182.397 28.4921 182.025C28.5339 181.82 28.5812 181.622 28.6313 181.413C28.6478 181.344 28.6645 181.274 28.6814 181.202C28.7478 180.92 28.815 180.618 28.8599 180.309C28.951 179.681 28.9557 178.991 28.6789 178.261C28.2458 177.119 27.6343 176.025 27.0754 175.024L27.064 175.004C26.1003 173.279 24.6113 171.861 23.2553 170.57C22.9307 170.26 22.6137 169.958 22.3134 169.661C20.8257 168.189 18.8994 166.096 17.7723 164.377C17.7289 164.311 17.6859 164.247 17.6479 164.196C17.631 164.174 17.5987 164.131 17.5571 164.089C17.5377 164.069 17.4949 164.026 17.4331 163.984C17.4328 163.984 17.4325 163.984 17.4322 163.984C17.3951 163.958 17.2164 163.837 16.9567 163.853C16.8006 163.864 16.6433 163.923 16.5137 164.034C16.3939 164.137 16.3329 164.255 16.3022 164.334C16.247 164.476 16.25 164.599 16.2508 164.633C16.2531 164.718 16.2694 164.789 16.2742 164.81C16.2743 164.81 16.2744 164.811 16.2745 164.811C16.2875 164.868 16.3069 164.932 16.3198 164.975L16.3199 164.975C16.323 164.985 16.3261 164.995 16.3294 165.006C16.3916 165.211 16.473 165.48 16.5024 165.749C16.6387 167 16.7079 168.249 16.7783 169.52C16.8021 169.949 16.826 170.381 16.8527 170.817C16.9575 172.525 17.1043 174.264 17.4612 175.994C17.922 178.227 19.5223 179.807 21.4308 180.851C23.3393 181.895 25.6371 182.452 27.6958 182.622Z" stroke="#2D433F" stroke-width="1.5" stroke-linecap="round" stroke-linejoin="round"/>
<path d="M19.8191 176.188C20.3254 176.338 22.124 177.146 22.702 176.794C23.0241 176.598 23.0622 175.953 23.1524 175.666C23.4781 174.632 24.6201 174.919 25.8191 174.919" stroke="#2D433F" stroke-linecap="round" stroke-linejoin="round"/>
<path d="M34.0488 173C33.954 170.269 33.9285 168.287 34.6367 165.696C35.4477 162.727 36.1427 158.497 37.7335 156.087C39.4699 153.457 41.3685 150.607 43.4653 148.522C46.0043 145.997 49.1371 144.641 52 143" stroke="#2D433F" stroke-width="3" stroke-linecap="round" stroke-linejoin="round"/>
<path d="M54.4912 136.016C52.6317 137.819 51.1277 141.74 50 144C53.1408 144.335 56.9783 145.263 60.1508 144.886C64.2102 144.404 68.3804 143.085 72.2915 141.9C75.1233 141.043 78.3602 136.941 80.5 135C78.1736 133.776 75.299 132.073 72.726 131.447C70.3091 130.86 67.33 129.66 64.7986 130.092C61.4154 130.668 56.9402 133.642 54.4912 136.016Z" fill="#EFEDEA"/>
<path d="M50.5 143C51.6277 140.74 52.6317 137.819 54.4912 136.016C56.9402 133.642 61.4154 130.668 64.7986 130.092C67.33 129.66 70.3091 130.86 72.726 131.447C75.299 132.073 77.1736 133.084 79.5 134.308M50.5 144.274C53.6408 144.609 56.9783 145.263 60.1508 144.886C64.2102 144.404 68.3804 143.085 72.2915 141.9C75.1233 141.043 77.3602 137.941 79.5 136" stroke="#2D433F" stroke-width="2" stroke-linecap="round" stroke-linejoin="round"/>
<circle cx="61" cy="137" r="5" fill="#83A096"/>
<path d="M58.5218 135.85C56.2497 138.026 55.892 139.831 58.5 142.5C60.4926 144.539 64.4827 142.928 66 141C68.0311 138.42 66.5 135.5 64.4326 134.143C60.9068 133.562 59.2619 134.78 56.666 137.279" stroke="#2D433F" stroke-width="2" stroke-linecap="round" stroke-linejoin="round"/>
<path d="M51.5 141C52.7291 138.59 53.7169 136.246 53.4586 133.476C53.3316 132.113 53.0538 131.15 52.3461 130" stroke="#2D433F" stroke-linecap="round" stroke-linejoin="round"/>
<path d="M55.5 135C57.8415 132.32 58.787 129.365 58.4251 126" stroke="#2D433F" stroke-width="2" stroke-linecap="round" stroke-linejoin="round"/>
<path d="M63.5 131C65.4133 129.274 67.2475 127.636 67.5 125" stroke="#2D433F" stroke-width="2" stroke-linecap="round" stroke-linejoin="round"/>
<path d="M77.5 133C78.5069 132.339 79.5059 131.672 80.5 131" stroke="#2D433F" stroke-width="2" stroke-linecap="round" stroke-linejoin="round"/>
<path d="M72.5 131C74.3545 129.801 75.5056 129.083 76.5 127" stroke="#2D433F" stroke-width="2" stroke-linecap="round" stroke-linejoin="round"/>
<mask id="path-23-outside-2" maskUnits="userSpaceOnUse" x="60" y="133" width="6" height="6" fill="black">
<rect fill="white" x="60" y="133" width="6" height="6"/>
<path d="M62.5833 135.829C62.2742 135.625 62.4803 135.293 62.6179 135.034C62.6048 135.042 62.5917 135.053 62.5785 135.07C62.3791 135.325 62.3055 135.721 62.3252 136.096C62.3299 136.187 62.3512 136.398 62.4152 136.508C62.4778 136.457 62.5263 136.427 62.5403 136.441C62.5721 136.472 62.4933 136.585 62.459 136.56C62.4426 136.548 62.428 136.53 62.4152 136.508C62.3512 136.398 62.3299 136.187 62.3252 136.096C62.3055 135.721 62.3791 135.325 62.5785 135.07C62.5917 135.053 62.6048 135.042 62.6179 135.034C62.7611 134.953 62.8965 135.398 62.9656 135.576C63.1172 135.966 62.7269 135.924 62.5833 135.829Z"/>
</mask>
<path d="M60.4744 134.975C60.114 135.393 60.161 136.025 60.5795 136.385C60.9979 136.746 61.6294 136.698 61.9898 136.28L60.4744 134.975ZM63.2377 134.136L62.5655 134.876L62.5655 134.876L63.2377 134.136ZM63.8801 135.156L62.9283 135.462L62.9283 135.462L63.8801 135.156ZM63.1986 137.575L62.6403 136.746H62.6403L63.1986 137.575ZM61.1986 137.575L60.3572 138.116L60.3572 138.116L61.1986 137.575ZM62.2977 136.18C62.7542 135.869 62.8723 135.247 62.5614 134.791C62.2506 134.334 61.6285 134.216 61.172 134.527L62.2977 136.18ZM63.5242 135.459C63.7778 134.969 63.5856 134.365 63.095 134.112C62.6044 133.858 62.0011 134.05 61.7475 134.541L63.5242 135.459ZM62.6179 135.034L63.1113 135.904C63.2767 135.81 63.4118 135.671 63.501 135.503L62.6179 135.034ZM62.5785 135.07L61.7913 134.454L61.7913 134.454L62.5785 135.07ZM62.3252 136.096L63.3238 136.044V136.044L62.3252 136.096ZM62.4152 136.508L63.0512 137.28C63.4293 136.968 63.5259 136.429 63.2795 136.005L62.4152 136.508ZM63.1669 137.431C63.6015 137.091 63.6775 136.462 63.3367 136.027C62.9959 135.593 62.3673 135.517 61.9327 135.858L63.1669 137.431ZM61.9898 136.28C62.1302 136.117 62.3067 135.869 62.438 135.691C62.5914 135.484 62.736 135.297 62.8742 135.151C63.0291 134.986 63.0929 134.963 63.0646 134.974C63.0345 134.986 62.9481 135.012 62.8275 134.994C62.6996 134.974 62.6098 134.917 62.5655 134.876L63.9099 133.396C63.6982 133.204 63.4337 133.063 63.1266 133.016C62.8268 132.971 62.5567 133.026 62.341 133.11C61.9416 133.265 61.6272 133.558 61.4184 133.779C61.1931 134.019 60.989 134.287 60.8303 134.502C60.6496 134.746 60.5506 134.886 60.4744 134.975L61.9898 136.28ZM62.5655 134.876C62.7028 135.001 62.8473 135.211 62.9283 135.462L64.832 134.849C64.6478 134.277 64.3162 133.765 63.9099 133.396L62.5655 134.876ZM62.9283 135.462C63.132 136.095 62.8676 136.593 62.6403 136.746L63.7569 138.405C64.8291 137.683 65.2678 136.202 64.832 134.849L62.9283 135.462ZM62.6403 136.746C62.5536 136.804 62.4465 136.864 62.3341 136.912C62.2197 136.961 62.122 136.987 62.0496 136.996C61.9768 137.006 61.964 136.993 61.9874 137.002C62.0255 137.016 62.0448 137.042 62.0399 137.035L60.3572 138.116C60.8654 138.907 61.674 139.06 62.3006 138.981C62.8827 138.907 63.4123 138.637 63.7569 138.405L62.6403 136.746ZM62.0399 137.035C62.0092 136.987 61.9667 136.854 62.0412 136.612C62.0755 136.5 62.1276 136.395 62.1854 136.31C62.2138 136.268 62.2404 136.236 62.2625 136.213C62.2852 136.189 62.2981 136.18 62.2977 136.18L61.172 134.527C60.675 134.865 60.3073 135.447 60.1297 136.024C59.9481 136.614 59.9039 137.41 60.3572 138.116L62.0399 137.035ZM61.7475 134.541C61.7439 134.548 61.7397 134.556 61.7347 134.565L63.501 135.503C63.5083 135.49 63.5162 135.475 63.5242 135.459L61.7475 134.541ZM62.1244 134.164C61.9676 134.253 61.8602 134.366 61.7913 134.454L63.3656 135.687C63.3231 135.741 63.242 135.83 63.1113 135.904L62.1244 134.164ZM61.7913 134.454C61.3801 134.978 61.3009 135.658 61.3266 136.149L63.3238 136.044C63.3181 135.935 63.3271 135.837 63.3443 135.762C63.3624 135.683 63.3808 135.668 63.3656 135.687L61.7913 134.454ZM61.3266 136.149C61.3305 136.224 61.3406 136.342 61.3635 136.471C61.3817 136.572 61.4266 136.797 61.5509 137.011L63.2795 136.005C63.2997 136.04 63.3123 136.068 63.3192 136.085C63.3264 136.103 63.3304 136.115 63.3322 136.121C63.3341 136.127 63.3346 136.13 63.3343 136.129C63.3341 136.128 63.3334 136.125 63.3324 136.119C63.3303 136.108 63.3283 136.093 63.3266 136.077C63.3249 136.061 63.3241 136.049 63.3238 136.044L61.3266 136.149ZM61.7792 135.736C61.6635 135.832 61.5424 135.952 61.4454 136.057C61.371 136.138 61.222 136.304 61.1281 136.482C61.1054 136.525 61.04 136.652 61.0127 136.824C60.9886 136.977 60.9564 137.528 61.484 137.851C61.8668 138.085 62.2405 137.977 62.2853 137.965C62.3981 137.935 62.4873 137.892 62.5343 137.868C62.7114 137.777 62.9289 137.618 63.1669 137.431L61.9327 135.858C61.6839 136.053 61.6061 136.096 61.623 136.088C61.63 136.084 61.6876 136.054 61.7764 136.031C61.8216 136.019 61.9079 136 62.0197 136C62.1288 136 62.3237 136.02 62.5272 136.144C63.0451 136.461 63.0097 137.001 62.9881 137.137C62.9635 137.292 62.9065 137.398 62.8971 137.416C62.8563 137.493 62.8389 137.496 62.9176 137.411C62.9736 137.35 63.0273 137.3 63.0512 137.28L61.7792 135.736ZM62.6179 135.034L61.6309 133.295C61.3003 133.482 61.03 133.76 60.8516 134.096L62.6179 135.034ZM62.5833 135.829L61.4796 137.497H61.4796L62.5833 135.829ZM62.9656 135.576L64.8298 134.852L64.8298 134.852L62.9656 135.576ZM62.4152 136.508L61.1432 134.965C60.3871 135.588 60.1938 136.667 60.6866 137.514L62.4152 136.508ZM62.459 136.56L61.2743 138.172L61.2743 138.172L62.459 136.56ZM62.5403 136.441L63.9403 135.013L63.9403 135.013L62.5403 136.441ZM60.8516 134.096C60.8436 134.111 60.7649 134.254 60.7069 134.376C60.6442 134.507 60.5398 134.741 60.4772 135.034C60.413 135.335 60.3719 135.795 60.5479 136.306C60.7338 136.846 61.0917 137.241 61.4796 137.497L63.6869 134.161C63.9203 134.316 64.188 134.592 64.3301 135.004C64.4621 135.388 64.4231 135.71 64.389 135.87C64.3713 135.953 64.3505 136.014 64.3379 136.047C64.3251 136.081 64.3155 136.101 64.315 136.102C64.3145 136.103 64.3179 136.096 64.3304 136.073C64.3366 136.061 64.3432 136.049 64.3525 136.032C64.361 136.016 64.3725 135.994 64.3841 135.973L60.8516 134.096ZM61.4796 137.497C61.7697 137.689 62.0711 137.792 62.3214 137.844C62.5651 137.894 62.9615 137.937 63.4118 137.814C63.92 137.675 64.5851 137.28 64.8751 136.462C65.123 135.763 64.9458 135.15 64.8298 134.852L61.1014 136.301C61.0612 136.197 60.8921 135.726 61.105 135.126C61.3599 134.406 61.9469 134.068 62.3585 133.955C62.7122 133.859 62.9935 133.898 63.1285 133.926C63.2699 133.955 63.4686 134.017 63.6869 134.161L61.4796 137.497ZM64.8298 134.852C64.858 134.924 64.7243 134.55 64.616 134.329C64.5651 134.225 64.4105 133.912 64.12 133.629C63.9661 133.478 63.6599 133.223 63.1936 133.096C62.6566 132.951 62.0974 133.03 61.6309 133.295L63.6048 136.774C63.1742 137.018 62.6505 137.093 62.1486 136.957C61.7174 136.841 61.4458 136.608 61.3258 136.491C61.1961 136.364 61.1194 136.25 61.0874 136.2C61.0509 136.143 61.03 136.101 61.023 136.087C61.0109 136.062 61.0123 136.062 61.0304 136.11C61.0384 136.131 61.0461 136.152 61.0579 136.184C61.0671 136.21 61.084 136.256 61.1014 136.301L64.8298 134.852ZM60.6866 137.514C60.7814 137.677 60.9622 137.942 61.2743 138.172L63.6437 134.949C63.9229 135.154 64.0746 135.383 64.1438 135.502L60.6866 137.514ZM61.2743 138.172C62.3373 138.953 63.3811 138.363 63.5772 138.236C63.8808 138.039 64.0696 137.804 64.1725 137.655C64.28 137.498 64.4171 137.255 64.4925 136.935C64.5411 136.729 64.7249 135.782 63.9403 135.013L61.1402 137.869C60.3715 137.115 60.5575 136.194 60.5991 136.018C60.6677 135.726 60.7889 135.516 60.8763 135.389C60.9593 135.268 61.1239 135.059 61.4041 134.877C61.5768 134.766 62.5978 134.18 63.6437 134.949L61.2743 138.172ZM63.9403 135.013C63.1983 134.285 62.3095 134.438 62.0942 134.485C61.8059 134.548 61.5976 134.661 61.521 134.704C61.3414 134.804 61.2041 134.915 61.1432 134.965L63.6872 138.051C63.6788 138.058 63.6594 138.074 63.6308 138.095C63.6058 138.113 63.5501 138.152 63.4709 138.196C63.4161 138.227 63.2264 138.331 62.9531 138.392C62.7527 138.436 61.8752 138.589 61.1402 137.869L63.9403 135.013Z" fill="#2D433F" mask="url(#path-23-outside-2)"/>
<path d="M54.5 145C55.5668 145.323 55.728 146.603 55.2296 148" stroke="#2D433F" stroke-width="2" stroke-linecap="round" stroke-linejoin="round"/>
<path d="M58.5 145C59.2441 145.66 59.7028 145.871 59.4113 147" stroke="#2D433F" stroke-width="2" stroke-linecap="round" stroke-linejoin="round"/>
<path d="M63 145C63.4739 145.116 64.0977 146.299 64.5 146.5" stroke="#2D433F" stroke-width="2" stroke-linecap="round" stroke-linejoin="round"/>
<path d="M68 144C68.4026 144.664 68.6977 145.275 69 146" stroke="#2D433F" stroke-width="2" stroke-linecap="round" stroke-linejoin="round"/>
<path d="M72 143C72.6019 143.312 72.6639 143.522 73 144" stroke="#2D433F" stroke-width="2" stroke-linecap="round" stroke-linejoin="round"/>
<path d="M74.5 141C74.8333 141.333 75.1667 141.667 75.5 142" stroke="#2D433F" stroke-width="2" stroke-linecap="round" stroke-linejoin="round"/>
<path d="M76.5 140C77.1882 140 77.8307 140 78.5 140" stroke="#2D433F" stroke-width="2" stroke-linecap="round" stroke-linejoin="round"/>
<path d="M78.5 138C79.2622 138 79.8358 138 80.5 138" stroke="#2D433F" stroke-width="2" stroke-linecap="round" stroke-linejoin="round"/>
<path d="M62.6857 134.148C58.0847 136.271 53.721 140.101 50.5 144C50.5276 143.53 50.7838 142.449 50.9711 142.021C51.084 141.763 51.1474 141.493 51.2823 141.243C51.3836 141.055 51.4607 140.849 51.5692 140.665C51.7065 140.433 51.8807 140.217 52.0273 139.989C52.2891 139.584 52.6148 139.193 52.8312 138.76C53.0022 138.418 53.1439 138.051 53.3515 137.732C53.6304 137.303 53.8478 136.841 54.107 136.402C54.3285 136.028 54.593 135.695 54.8607 135.353C55.1329 135.005 55.5592 134.667 55.9498 134.466C56.5627 134.151 57.1373 133.776 57.7373 133.441C58.0552 133.264 58.3452 133.032 58.6397 132.819C58.9347 132.605 59.3087 132.45 59.6371 132.29C59.9267 132.149 60.1799 131.943 60.4583 131.778C60.7184 131.624 61.0177 131.506 61.2978 131.394L61.3019 131.393C61.9669 131.128 62.5666 130.785 63.2743 130.625C64.0703 130.445 64.8786 130.41 65.6893 130.335C65.8932 130.316 66.124 130.356 66.3324 130.359C66.7807 130.364 67.2474 130.367 67.6877 130.452C68.1213 130.536 68.5425 130.605 68.9704 130.715C69.2864 130.796 69.6038 130.875 69.9212 130.95C70.271 131.033 70.6335 131.024 70.9792 131.137C71.2096 131.212 71.4269 131.245 71.662 131.292C71.8832 131.337 72.277 132 72.5 132C69.3078 132.589 65.6573 132.777 62.6857 134.148Z" fill="#ECA589"/>
<path d="M50.5 144C53.721 140.101 58.0847 136.271 62.6857 134.148C65.6573 132.777 69.3078 132.589 72.5 132M50.5355 143.397C50.5631 142.927 50.7838 142.449 50.9711 142.021C51.084 141.763 51.1474 141.493 51.2823 141.243C51.3836 141.055 51.4607 140.849 51.5692 140.665C51.7065 140.433 51.8807 140.217 52.0273 139.989C52.2891 139.584 52.6148 139.193 52.8312 138.76C53.0022 138.418 53.1439 138.051 53.3515 137.732C53.6304 137.303 53.8478 136.841 54.107 136.402C54.3285 136.028 54.593 135.695 54.8607 135.353C55.1329 135.005 55.5592 134.667 55.9498 134.466C56.5627 134.151 57.1373 133.776 57.7373 133.441C58.0552 133.264 58.3452 133.032 58.6397 132.819C58.9347 132.605 59.3087 132.45 59.6371 132.29C59.9267 132.149 60.1799 131.943 60.4583 131.778C60.7184 131.624 61.0177 131.506 61.2978 131.394L61.3019 131.393C61.9669 131.128 62.5666 130.785 63.2743 130.625C64.0703 130.445 64.8786 130.41 65.6893 130.335C65.8932 130.316 66.124 130.356 66.3324 130.359C66.7807 130.364 67.2474 130.367 67.6877 130.452C68.1213 130.536 68.5425 130.605 68.9704 130.715C69.2864 130.796 69.6038 130.875 69.9212 130.95C70.271 131.033 70.6335 131.024 70.9792 131.137C71.2096 131.212 71.4269 131.245 71.662 131.292C71.8832 131.337 72.1253 131.448 72.3483 131.448" stroke="#2D433F" stroke-width="2" stroke-linecap="round" stroke-linejoin="round"/>
<path d="M26.9135 123C22.3647 132.867 19.7754 159.86 45.8084 188.889C60.2346 204.976 62.6635 219.631 60.1159 231C56.7545 246 48.7 264.5 31.5 272.5" stroke="#2D433F" stroke-width="4" stroke-linecap="round"/>
<path d="M3.84056 90.0878C4.05902 89.2925 4.09995 88.3604 4.22754 87.5386C4.21257 87.0159 4.08854 86.3136 4.28038 85.7742C4.42636 85.3637 4.42608 84.9407 4.61738 84.5351C4.80054 84.1468 4.92929 83.681 5.07434 83.2732C5.53287 81.9839 6.09262 80.7367 6.63942 79.4815C6.86279 78.9688 7.10529 78.4184 7.41625 77.95C7.66506 77.5752 8.05783 77.1237 8.21593 76.7109C8.36759 76.315 8.5841 75.8513 8.80997 75.4949C9.14756 74.9621 9.22644 74.4046 9.62108 73.9002C10.546 72.718 11.571 71.7572 12.637 70.7223C13.802 69.5914 15.0506 68.3975 16.3612 67.4469C16.7798 67.1433 17.1445 66.7926 17.5436 66.4661C17.852 66.2137 18.0556 65.8445 18.4404 65.7203C19.4305 65.4007 20.395 64.964 21.3763 64.6075C22.2998 64.2721 23.3747 64.2978 24.3408 64.2978C25.7091 64.2978 27.0816 64.0866 28.4477 64.2461C31.9267 64.6524 35.2485 65.5495 38.6722 66.2595C40.3662 66.6109 42.2236 66.9651 43.7558 67.8141C44.7727 68.3775 45.8988 68.9861 46.8403 69.6669C48.4519 70.8322 49.7527 72.5613 50.9479 74.1502L51.0101 74.2329C52.1722 75.7776 53.3574 77.752 53.729 79.6708C54.1495 81.843 54.2471 84.1013 53.9117 86.2904C53.6548 87.9673 53.6833 89.6507 53.6833 91.3498L53.6833 91.4585C53.6836 93.4033 53.684 95.8172 52.7579 97.5678C51.7679 99.4392 50.9237 101.375 49.782 103.166C48.8803 104.581 48.0933 106.042 47.2059 107.457C46.6532 108.339 46.2566 109.329 45.6579 110.193C45.166 110.903 44.5473 111.524 44.0186 112.207C43.0108 113.508 41.9575 115.104 40.6257 116.107C39.0324 117.307 36.8726 118.089 34.9251 118.402C33.1349 118.689 31.3441 118.987 29.5216 119.021C28.7471 119.036 27.9873 119.173 27.2025 119.119C26.0892 119.042 25.0415 118.815 23.9124 118.815C21.8305 118.815 19.5933 117.739 17.7207 116.933C16.0349 116.208 14.5303 114.966 12.9683 114.008C11.6064 113.172 10.6645 112.119 9.70104 110.864C9.29193 110.332 8.72425 109.913 8.393 109.321C8.19871 108.974 7.8391 108.83 7.54192 108.593C7.18205 108.305 6.95597 107.927 6.69654 107.555C6.24401 106.905 5.66296 106.106 5.35994 105.369C5.06868 104.661 4.94585 103.863 4.7659 103.12C4.45495 101.837 4.24357 100.438 4.12044 99.1395C4.05573 98.4572 3.92052 97.7738 3.92052 97.086C3.92052 96.5799 3.94993 96.0773 3.84056 95.5831C3.59137 94.457 3.92052 93.2212 3.92052 92.1241C3.92052 91.4737 3.66542 90.7254 3.84056 90.0878Z" fill="#192825"/>
<path d="M4.4956 87.3963C4.367 88.2161 4.32662 89.1473 4.10756 89.9414C3.93258 90.5757 4.18745 91.3202 4.18745 91.9672C4.18745 93.0586 3.85861 94.288 4.10756 95.4082C4.21682 95.8999 4.18745 96.3998 4.18745 96.9033C4.18745 97.5875 4.32252 98.2674 4.38717 98.9462C4.51018 100.238 4.72136 101.629 5.03201 102.907C5.21179 103.646 5.3345 104.439 5.62548 105.144C5.92822 105.876 6.5087 106.672 6.9608 107.318C7.21999 107.688 7.44585 108.065 7.80537 108.351C8.10226 108.587 8.46153 108.73 8.65563 109.075C8.98656 109.664 9.5537 110.081 9.96242 110.61C10.9249 111.858 11.8659 112.906 13.2265 113.737C14.787 114.691 16.2902 115.926 17.9743 116.648C19.8452 117.45 22.0802 118.52 24.1602 118.52C25.2882 118.52 26.3349 118.745 27.4471 118.822C28.2311 118.876 28.9902 118.739 29.764 118.725C31.5847 118.691 33.3738 118.395 35.1623 118.109C37.1079 117.797 39.2656 117.02 40.8574 115.826C42.188 114.828 43.2403 113.24 44.2471 111.946C44.7752 111.267 45.3933 110.649 45.8848 109.943C46.4829 109.083 46.8792 108.098 47.4313 107.221C48.3178 105.813 49.1041 104.36 50.0049 102.952C51.1455 101.17 51.989 99.2444 52.978 97.3827C53.9205 95.6085 53.9025 93.1496 53.9025 91.1968C53.9025 89.5065 53.8741 87.8319 54.1307 86.1637C54.4658 83.9859 54.3683 81.7394 53.9481 79.5784C53.5769 77.6696 52.3929 75.7053 51.2318 74.1686C50.0207 72.5656 48.7041 70.8057 47.0661 69.6263C46.1254 68.949 45.0004 68.3435 43.9846 67.7831C42.4538 66.9385 40.5982 66.5861 38.9058 66.2366C35.4854 65.5302 32.1667 64.6378 28.6911 64.2336C27.3263 64.0749 25.9551 64.285 24.5882 64.285C23.623 64.285 22.5491 64.2594 21.6265 64.5931C20.6461 64.9477 19.6826 65.3822 18.6934 65.7002C18.309 65.8237 18.1055 66.191 17.7974 66.442C17.3987 66.7669 17.0344 67.1158 16.6162 67.4178C15.3068 68.3635 14.0594 69.5512 12.8956 70.6763C11.8306 71.7058 10.8066 72.6616 9.88253 73.8377C9.48828 74.3394 9.40947 74.8941 9.07221 75.4241C8.84655 75.7787 8.63024 76.2399 8.47873 76.6338C8.32079 77.0445 7.92839 77.4936 7.67982 77.8664C7.36916 78.3324 7.12689 78.88 6.90374 79.3901C6.35746 80.6387 5.79824 81.8794 5.34016 83.1621C5.19525 83.5678 5.06662 84.0312 4.88364 84.4175C4.69252 84.821 4.6928 85.2417 4.54696 85.6501C4.34355 86.2197 4.4956 86.9717 4.4956 87.499" stroke="#192825" stroke-width="2" stroke-linecap="round" stroke-linejoin="round"/>
<path d="M19.9436 77.8823C16.2783 79.8507 13.2512 82.7499 11.8074 86.7314C11.4871 87.2118 11.2822 87.8277 11.1803 88.3983C11.0549 89.1005 11.2336 89.8392 11.1803 90.5529C11.1339 91.1746 11.1612 91.7402 11.2071 92.3592C11.3025 93.6471 11.0145 94.9335 11.1856 96.229C11.3907 97.7818 11.4944 99.3521 12.3219 100.731C13.7975 103.191 16.0104 105.151 18.207 106.949C19.2261 107.783 20.404 108.388 21.5784 108.964C22.8446 109.585 23.996 110.561 25.4 110.904C26.7154 111.226 28.2079 110.92 29.5538 110.995C30.8404 111.068 32.1024 111.013 33.3861 110.904C34.1725 110.838 34.7837 110.47 35.5301 110.272C36.6281 109.981 37.8674 109.969 38.821 109.253C39.7316 108.57 40.645 107.929 41.4902 107.163C42.1119 106.6 42.8789 106.208 43.5162 105.652C43.9085 105.309 44.2898 104.992 44.6686 104.633C45.2595 104.074 45.5737 103.713 45.9496 102.961C46.213 102.434 46.5374 101.995 46.9036 101.535C47.2538 101.096 47.403 100.569 47.6969 100.099C47.9131 99.7529 48.128 99.3608 48.2275 98.9625C48.4178 98.2016 48.447 97.5387 48.3776 96.7757C48.3327 96.2819 48.2106 95.6969 48.3186 95.2106C48.5705 94.0771 48.8412 93.1295 48.6617 91.9626C48.507 90.9573 48.2912 89.8758 47.9863 88.9075C47.7174 88.0532 47.6423 87.2121 47.4503 86.3347C47.3607 85.9248 47.2244 85.5521 47.0162 85.1877C46.7686 84.7544 46.6422 84.2489 46.3677 83.8371C46.027 83.3261 45.5683 83.1731 45.3225 82.5721C44.6466 80.9199 42.7523 80.0648 41.6671 78.7291C41.4175 78.4219 40.8935 77.9883 40.5415 77.8233C40.0033 77.571 39.3954 77.5603 38.8746 77.2337C38.2038 76.813 37.4803 76.3758 36.7735 76.0224C35.8214 75.5463 34.5 75.2824 33.4504 75.1755C32.228 75.051 31.1309 75.1021 29.9079 75.159L29.8969 75.1595C26.4831 75.3182 22.9397 76.2733 19.9436 77.8823Z" fill="#192825" style="mix-blend-mode:exclusion"/>
<path d="M11.9039 86.7314C13.3477 82.7499 16.2783 79.8507 19.9436 77.8823C22.9397 76.2733 26.4831 75.3182 29.8969 75.1595C31.1243 75.1024 32.2243 75.0507 33.4504 75.1755C34.5 75.2824 35.8214 75.5463 36.7735 76.0224C37.4803 76.3758 38.2038 76.813 38.8746 77.2337C39.3954 77.5603 40.0033 77.571 40.5415 77.8233C40.8935 77.9883 41.4175 78.4219 41.6671 78.7291C42.7523 80.0648 44.6466 80.9199 45.3225 82.5721C45.5683 83.1731 46.027 83.3261 46.3677 83.8371C46.6422 84.2489 46.7686 84.7544 47.0162 85.1877C47.2244 85.5521 47.3607 85.9248 47.4503 86.3347C47.6423 87.2121 47.7174 88.0532 47.9863 88.9075C48.2912 89.8758 48.507 90.9573 48.6617 91.9626C48.8412 93.1295 48.5705 94.0771 48.3186 95.2106C48.2106 95.6969 48.3327 96.2819 48.3776 96.7757C48.447 97.5387 48.4178 98.2016 48.2275 98.9625C48.128 99.3608 47.9131 99.7529 47.6969 100.099C47.403 100.569 47.2538 101.096 46.9036 101.535C46.5374 101.995 46.213 102.434 45.9496 102.961C45.5737 103.713 45.2595 104.074 44.6686 104.633C44.2898 104.992 43.9085 105.309 43.5162 105.652C42.8789 106.208 42.1119 106.6 41.4902 107.163C40.645 107.929 39.7316 108.57 38.821 109.253C37.8674 109.969 36.6281 109.981 35.5301 110.272C34.7837 110.47 34.1725 110.838 33.3861 110.904C32.1024 111.013 30.8404 111.068 29.5538 110.995C28.2079 110.92 26.7154 111.226 25.4 110.904C23.996 110.561 22.8446 109.585 21.5784 108.964C20.404 108.388 19.2261 107.783 18.207 106.949C16.0104 105.151 13.7975 103.191 12.3219 100.731C11.4944 99.3521 11.3907 97.7818 11.1856 96.229C11.0145 94.9335 11.3025 93.6471 11.2071 92.3592C11.1612 91.7402 11.1339 91.1746 11.1803 90.5529C11.2336 89.8392 11.0549 89.1005 11.1803 88.3983C11.2822 87.8277 11.4871 87.2118 11.8074 86.7314" stroke="#192825" stroke-width="2" stroke-linecap="round" stroke-linejoin="round"/>
<path d="M7.11477 81.4881C6.20154 83.2547 4.88587 84.9817 4.58094 86.9807C3.55226 86.2949 2.4563 85.6172 2.4563 84.2895C2.4563 83.2214 2.74841 81.8793 3.17238 80.8901C4.6378 77.4707 6.37824 74.3235 8.79874 71.4629C10.3336 69.6491 12.0451 67.9018 13.7248 66.2222L16.0383 63.9087C16.8461 63.1008 17.18 61.8612 17.675 60.8476C18.2491 59.6721 18.6807 58.5011 18.997 57.2357C19.1313 56.6985 19.1179 56.2188 19.178 55.6777C19.2565 54.9709 19.6195 55.1111 20.1616 55.1111C21.4371 55.1111 22.6898 55.536 23.986 55.536C24.9628 55.536 26.1479 55.7166 27.1021 55.5045C28.3467 55.228 29.8909 55.1697 31.1468 55.3629C32.5943 55.5856 34.155 55.3718 35.6007 55.2606C36.2323 55.212 36.8217 55.2804 37.4421 55.1426C37.8705 55.0474 38.6445 54.9995 38.9214 55.4022C39.6352 56.4404 39.1818 57.8803 39.9129 58.9984C41.0237 60.6972 42.0198 62.3592 43.3832 63.8929C44.6147 65.2784 45.966 65.8725 47.4987 66.836C49.1824 67.8943 50.3406 69.4598 51.8896 70.6603C53.0134 71.5313 54.0161 73.1034 54.6516 74.3745C55.3672 75.8056 55.8388 77.3433 56.2018 78.8992C56.4889 80.1293 56.2115 81.3791 56.4536 82.5898C57.2242 86.4423 56.5434 90.1377 54.7933 93.6379C54.1765 94.8715 53.7065 96.1678 53.1487 97.4308C53.0217 97.7183 52.4582 99.1078 52.1414 99.2092C51.5489 99.3988 52.2555 97.8529 52.3303 97.7141C52.8714 96.7091 53.1784 95.4393 53.3611 94.3225C53.6163 92.7632 53.731 91.1559 53.731 89.5775C53.731 87.8395 54.2517 86.0057 53.9356 84.2895C53.7226 83.1336 53.1159 82.2096 52.5978 81.1733C52.211 80.3996 51.8702 79.5714 51.4017 78.8441C50.746 77.826 50.0686 76.7482 49.3322 75.7909C48.471 74.6714 47.2214 74.0164 46.1452 73.1312C44.7815 72.0094 43.3432 71.2806 41.8251 70.4242C40.743 69.8138 39.9042 69.0154 38.6145 68.7403C31.4975 67.222 23.8658 67.4498 17.313 70.8964C15.4003 71.9024 13.522 72.922 11.8362 74.2801C10.9099 75.0262 10.4063 76.0999 9.7509 77.0657C8.78199 78.4936 7.90811 79.9534 7.11477 81.4881Z" fill="#4A5759"/>
<path d="M4.58094 86.8391C4.88587 84.8401 6.20154 83.2547 7.11477 81.4881C7.90811 79.9535 8.78199 78.4936 9.7509 77.0657C10.4063 76.0999 10.9099 75.0262 11.8362 74.2801C13.5221 72.922 15.4003 71.9024 17.313 70.8964C23.8658 67.4498 31.4975 67.222 38.6145 68.7403C39.9042 69.0154 40.743 69.8138 41.8251 70.4242C43.3432 71.2806 44.7815 72.0094 46.1452 73.1312C47.2214 74.0164 48.471 74.6714 49.3322 75.7909C50.0686 76.7482 50.746 77.826 51.4017 78.8441C51.8702 79.5714 52.211 80.3996 52.5978 81.1733C53.1159 82.2096 53.7226 83.1336 53.9356 84.2895C54.2517 86.0057 53.731 87.8395 53.731 89.5775C53.731 91.1559 53.6163 92.7632 53.3611 94.3225C53.1784 95.4393 52.8714 96.7091 52.3303 97.7141C52.2555 97.8529 51.5489 99.3988 52.1414 99.2092C52.4582 99.1078 53.0217 97.7183 53.1487 97.4308C53.7065 96.1678 54.1765 94.8715 54.7933 93.6379C56.5434 90.1377 57.2242 86.4423 56.4537 82.5898C56.2115 81.3791 56.4889 80.1293 56.2018 78.8992C55.8388 77.3433 55.3672 75.8056 54.6516 74.3745C54.0161 73.1034 53.0134 71.5313 51.8896 70.6603C50.3406 69.4598 49.1824 67.8943 47.4987 66.836C45.966 65.8725 44.6147 65.2784 43.3832 63.8929C42.0198 62.3592 41.0237 60.6972 39.9129 58.9984C39.1818 57.8803 39.6352 56.4404 38.9214 55.4022C38.6445 54.9995 37.8705 55.0474 37.4421 55.1426C36.8217 55.2804 36.2323 55.212 35.6007 55.2606C34.155 55.3718 32.5943 55.5856 31.1468 55.3629C29.8909 55.1697 28.3467 55.228 27.1021 55.5045C26.1479 55.7166 24.9628 55.536 23.986 55.536C22.6898 55.536 21.4371 55.1111 20.1616 55.1111C19.6195 55.1111 19.2565 54.9709 19.178 55.6777C19.1179 56.2188 19.1313 56.6985 18.997 57.2357C18.6807 58.5011 18.2491 59.6721 17.675 60.8476C17.18 61.8612 16.8461 63.1008 16.0383 63.9087C15.2671 64.6798 14.4959 65.451 13.7248 66.2222C12.0451 67.9018 10.3336 69.6491 8.79874 71.4629C6.37824 74.3235 4.63781 77.4707 3.17238 80.8901C2.74841 81.8793 2.4563 83.2214 2.4563 84.2895C2.4563 85.6172 3.55226 86.2949 4.58094 86.9807" stroke="#192825" stroke-width="2" stroke-linecap="round" stroke-linejoin="round"/>
<path d="M6.70557 73.8078C8.44074 69.67 11.1977 66.6592 14.2598 63.4914C15.0085 62.7169 15.8595 61.9874 16.9038 61.6973C18.0495 61.3791 16.4271 63.3474 16.2271 63.6095C15.1107 65.0724 13.7988 66.148 12.5129 67.4338C11.5904 68.3563 10.5461 69.1596 9.75089 70.1959C8.85535 71.3628 7.82958 72.4329 6.84721 73.5245" stroke="#192825" stroke-linecap="round" stroke-linejoin="round"/>
<path d="M14.2598 63.4914C11.1977 66.6592 8.44074 69.67 6.70557 73.8078C7.68794 72.7162 8.85535 71.3628 9.75089 70.1959C10.5461 69.1596 11.5904 68.3563 12.5129 67.4338C13.7988 66.148 15.1107 65.0724 16.2271 63.6095C16.4271 63.3474 18.0495 61.3791 16.9038 61.6973C15.8595 61.9874 15.0085 62.7169 14.2598 63.4914Z" fill="#192825" stroke="#192825" stroke-linecap="round" stroke-linejoin="round"/>
<path d="M45.5472 62.6183C44.2873 60.9675 43.0155 60.6749 40.9832 60.3521C41.3364 61.4118 42.3135 62.6739 43.1078 63.4682C43.7663 64.1267 44.5579 65.1633 45.3741 65.5928C46.4261 66.1465 47.3937 66.5321 48.3486 67.2217C49.1222 67.7804 49.7174 68.597 50.4653 69.2047C50.5995 69.3137 51.2575 70.2637 51.15 69.4959C51.0717 68.9369 50.7605 68.4148 50.5047 67.9221C50.0003 66.9507 48.9589 66.0616 48.1912 65.2938C47.2897 64.3923 46.325 63.6375 45.5472 62.6183Z" fill="#192825"/>
<path d="M40.9832 60.3521C43.0155 60.6749 44.2873 60.9675 45.5472 62.6183C46.325 63.6375 47.2897 64.3923 48.1912 65.2938C48.9589 66.0616 50.0003 66.9507 50.5047 67.9221C50.7605 68.4148 51.0717 68.9369 51.15 69.4959C51.2575 70.2637 50.5995 69.3137 50.4653 69.2047C49.7174 68.597 49.1222 67.7804 48.3486 67.2217C47.3937 66.5321 46.4261 66.1465 45.3741 65.5928C44.5579 65.1633 43.7663 64.1267 43.1078 63.4682C42.3135 62.6739 41.6197 61.695 41.2664 60.6353" stroke="#192825" stroke-linecap="round" stroke-linejoin="round"/>
<path d="M52.4237 100.227C52.1046 98.7911 51.3621 99.9445 50.9805 100.678C50.4561 101.727 50.0697 102.849 49.539 103.911C49.087 104.814 48.7412 105.772 48.2784 106.664C47.652 107.872 46.5523 108.84 45.8026 109.987C45.1827 110.935 44.3376 111.637 43.6112 112.495C42.0003 114.399 39.6064 115.58 37.5478 116.904C35.5553 118.185 33.3619 119.237 30.9672 118.946C29.9068 118.946 29.3827 118.963 28.3281 119.059C27.4055 119.143 26.3112 119.006 25.3816 118.955C24.6347 118.914 23.9652 118.678 23.2363 118.561C22.7704 118.486 22.2681 118.473 21.8147 118.335C21.1044 118.119 20.4367 117.846 19.7728 117.514C16.7533 116.005 13.8205 115.469 11.0732 112.263C9.69961 110.432 8.78386 110.432 7.47099 108.247C7.18164 106.945 5.77142 106.112 5.3128 104.861C4.77886 103.405 4.43204 101.967 4.04631 100.467C3.39839 97.9472 3.7495 95.1014 3.87185 92.532C3.93758 91.1516 4.08783 89.691 4.38232 88.3448C4.47327 87.9291 4.5921 87.3241 4.09801 87.1688C3.45106 86.9655 3.04609 86.2829 2.68156 85.7563C1.98058 87.1583 1.41039 88.6711 1.36999 90.2872C1.34418 91.3198 1.31461 92.3307 1.25738 93.3608C1.18599 94.6459 0.856809 95.9254 1.07191 97.216C1.24848 98.2754 1.07132 99.356 1.25076 100.422C1.47604 101.761 2.03752 103.002 2.44309 104.291C3.08814 106.34 3.46962 108.453 4.82776 110.199C7.38144 113.483 10.0988 116.889 13.8895 118.784C14.4829 119.081 15.0649 119.314 15.678 119.552C16.2184 119.763 17.0132 120.145 17.5857 120.208C18.945 120.359 19.315 120.963 20.6886 120.963C22.2614 121.338 21.6043 120.963 22.8275 121.29C23.1598 121.43 23.6532 121.338 24.0123 121.338H26.1545C26.9258 121.338 27.711 121.54 28.4763 121.422C29.3305 121.29 30.1994 121.123 31.0613 121.123C31.9563 121.123 33.0827 120.868 33.9096 120.53C34.6888 120.211 35.4412 119.671 36.2792 119.519C37.9725 119.211 39.2007 118.525 40.5996 117.514C41.4228 116.92 42.1646 116.209 42.9692 115.605C43.2995 115.358 43.505 114.948 43.8368 114.72C44.1882 114.478 44.5087 114.25 44.7763 113.906C45.5193 112.951 46.4678 112.123 47.1938 111.13L47.2722 111.022C47.9692 110.069 48.6814 109.094 49.2822 108.078C50.3297 106.305 51.3847 104.375 51.933 102.381C52.1124 101.729 52.5794 100.928 52.4237 100.227Z" fill="#4A5759"/>
<path d="M50.9397 100.765C51.3213 100.032 52.1046 98.7911 52.4237 100.227C52.5794 100.928 52.1124 101.729 51.933 102.381C51.3847 104.375 50.3297 106.305 49.2822 108.078C48.6589 109.133 47.9156 110.142 47.1938 111.13C46.4678 112.123 45.5193 112.951 44.7763 113.906C44.5087 114.25 44.1882 114.478 43.8368 114.72C43.505 114.948 43.2995 115.358 42.9692 115.605C42.1646 116.209 41.4228 116.92 40.5996 117.514C39.2007 118.525 37.9725 119.211 36.2792 119.519C35.4412 119.671 34.6888 120.211 33.9096 120.53C33.0827 120.868 31.9563 121.123 31.0613 121.123C30.1994 121.123 29.3305 121.29 28.4763 121.422C27.711 121.54 26.9258 121.338 26.1545 121.338H24.0123C23.6532 121.338 23.1598 121.43 22.8275 121.29C21.9916 120.938 20.9079 121.817 20.4579 120.692M21.5205 121.049C20.1527 121.049 18.945 120.359 17.5857 120.208C17.0132 120.145 16.2184 119.763 15.678 119.552C15.0649 119.314 14.4829 119.081 13.8895 118.784C10.0988 116.889 7.38144 113.483 4.82776 110.199C3.46962 108.453 3.08814 106.34 2.44309 104.291C2.03752 103.002 1.47604 101.761 1.25076 100.422C1.07132 99.356 1.24848 98.2754 1.07191 97.216C0.856809 95.9254 1.18599 94.6459 1.25738 93.3608C1.31461 92.3307 1.34418 91.3198 1.36999 90.2872C1.41039 88.6711 1.98058 87.1583 2.68156 85.7563M2.70229 85.7989C3.06682 86.3255 3.45106 86.9655 4.09801 87.1688C4.5921 87.3241 4.47327 87.9291 4.38232 88.3448C4.08783 89.691 3.93758 91.1516 3.87185 92.532C3.7495 95.1014 3.39839 97.9472 4.04631 100.467C4.43204 101.967 4.77886 103.405 5.3128 104.861C5.77142 106.112 7.18164 106.945 7.47099 108.247C7.96979 110.491 10.5794 110.818 11.5311 112.721C13.8895 115.469 16.9015 116.009 19.921 117.519C20.5849 117.851 21.2526 118.124 21.9629 118.34C22.4163 118.477 22.9186 118.491 23.3845 118.566C24.1134 118.683 24.7829 118.919 25.5298 118.96C26.4594 119.011 27.5537 119.147 28.4763 119.063C29.5309 118.967 30.2541 119.063 31.3145 119.063M30.9672 118.946C33.3619 119.237 35.5553 118.185 37.5478 116.904C39.6064 115.58 42.0003 114.399 43.6112 112.495C44.3376 111.637 45.1827 110.935 45.8026 109.987C46.5523 108.84 47.652 107.872 48.2784 106.664C48.7412 105.772 49.087 104.814 49.539 103.911C50.0697 102.849 50.4561 101.727 50.9805 100.678" stroke="#192825" stroke-width="2" stroke-linecap="round" stroke-linejoin="round"/>
<path d="M21.1496 18.7466C21.1496 16.0896 20.8692 13.5323 21.3265 10.9032C21.5417 10.3142 21.8132 9.65048 22.5335 9.80937C23.3016 9.9788 23.8751 9.89601 24.6501 9.8839C25.4912 9.87076 26.2922 10.0238 27.1244 10.1224C27.7437 10.1957 28.3159 10.0407 28.928 10.018C30.5668 9.95735 32.228 9.61043 33.8766 9.51126C35.3062 9.42527 36.6023 9.20689 37.9079 9.85968C38.5613 11.6293 38.7778 13.2294 38.7966 15.1072C38.8142 16.8674 38.9018 18.6261 38.9235 20.3829C38.9611 23.4286 38.7966 26.4747 38.7966 29.5237C38.7966 32.8259 39.47 36.1544 38.9235 39.4333C38.5277 41.808 38.6273 44.0527 38.9235 46.4229C38.9235 47.4849 39.183 48.0999 39.0221 49.1454C38.8394 50.333 38.6382 51.2483 39.1773 52.3898C39.5764 53.235 39.3078 54.6325 38.2886 54.9007C37.1525 55.1997 35.8534 55.0623 34.7339 55.3733C33.7448 55.648 32.4155 55.3459 31.435 55.123L31.4189 55.1194C30.228 54.8487 28.833 55.3098 27.6243 55.3098C26.1923 55.3098 24.8167 55.3698 23.3643 55.1546C22.4364 55.0172 21.3237 54.832 20.3879 54.936C19.6903 55.0135 19.6595 54.9866 19.8518 54.2941C20.0077 53.733 20.2824 53.238 20.3879 52.6578C20.5461 51.7874 20.8184 51.0283 20.7405 50.1328C20.6474 49.0618 20.5833 47.9972 20.7053 46.9237C20.9938 44.3846 20.8737 41.7482 21.0156 39.1935C21.1078 37.5329 21.2766 35.9017 21.2766 34.2351C21.2766 31.1276 21.1496 28.0073 21.1496 24.8898V18.7466Z" fill="#4A5759"/>
<path d="M21.4035 10.4944C20.8394 13.2679 21.1496 15.9521 21.1496 18.7466V24.8898C21.1496 28.0073 21.2766 31.1276 21.2766 34.2351C21.2766 35.9017 21.1078 37.5329 21.0156 39.1935C20.8737 41.7482 20.9938 44.3846 20.7053 46.9237C20.5833 47.9972 20.6474 49.0618 20.7405 50.1328C20.8184 51.0283 20.5461 51.7874 20.3879 52.6578C20.2824 53.238 20.0077 53.733 19.8518 54.2941C19.6595 54.9866 19.6903 55.0135 20.3879 54.936C21.3237 54.832 22.4364 55.0172 23.3643 55.1546C24.8167 55.3698 26.1923 55.3098 27.6243 55.3098C28.833 55.3098 30.228 54.8487 31.4189 55.1194L31.435 55.123C32.4155 55.3459 33.7448 55.648 34.7339 55.3733C35.8534 55.0623 37.1525 55.1997 38.2886 54.9007C39.3078 54.6325 39.5764 53.235 39.1773 52.3898C38.6382 51.2483 38.8394 50.333 39.0221 49.1454C39.183 48.0999 38.9235 47.4849 38.9235 46.4229C38.6273 44.0527 38.5277 41.808 38.9235 39.4333C39.47 36.1544 38.7966 32.8259 38.7966 29.5237C38.7966 26.4747 38.9611 23.4286 38.9235 20.3829C38.9018 18.6261 38.8142 16.8674 38.7966 15.1072C38.7778 13.2294 38.5613 11.6293 37.9079 9.85968C36.6023 9.20689 35.3062 9.42527 33.8766 9.51126C32.228 9.61043 30.5668 9.95735 28.928 10.018C28.3159 10.0407 27.7437 10.1957 27.1244 10.1224C26.2922 10.0238 25.4912 9.87076 24.6501 9.8839C23.8751 9.89601 23.3016 9.9788 22.5335 9.80937C21.676 9.62022 21.4545 10.5968 21.2069 11.2254" stroke="#192825" stroke-width="2" stroke-linecap="round" stroke-linejoin="round"/>
<path d="M21.4035 10.4942C20.8394 13.2677 21.1496 15.9519 21.1496 18.7463V24.8896C21.1496 28.007 21.2766 31.1274 21.2766 34.2349C21.2766 35.9015 21.1078 37.5327 21.0156 39.1932C20.8737 41.748 20.9938 44.3843 20.7053 46.9234C20.5833 47.9969 20.6474 49.0616 20.7405 50.1326C20.8184 51.028 20.5461 51.7872 20.3879 52.6576C20.2824 53.2378 20.0077 53.7328 19.8518 54.2939C19.6595 54.9863 19.6903 55.0132 20.3879 54.9357C21.3237 54.8317 22.4364 55.0169 23.3643 55.1544C24.8167 55.3695 26.1923 55.3095 27.6243 55.3095C28.833 55.3095 30.228 54.8484 31.4189 55.1191L31.435 55.1228C32.4155 55.3456 33.7448 55.6478 34.7339 55.373C35.8534 55.062 37.1525 55.1994 38.2886 54.9005C39.3078 54.6323 39.5764 53.2348 39.1773 52.3896C38.6382 51.248 38.8394 50.3327 39.0221 49.1451C39.183 48.0997 38.9234 46.9768 38.9234 45.9148M37.9079 9.85944C38.5613 11.629 38.7778 13.2292 38.7966 15.1069C38.8142 16.8671 38.9018 18.6258 38.9235 20.3827C38.9611 23.4284 38.7966 26.4744 38.7966 29.5235C38.7966 32.8257 39.47 36.1542 38.9235 39.4331C38.5277 41.8077 38.6273 44.0525 38.9235 46.4227M21.2069 11.2252C21.4545 10.5966 21.676 9.61998 22.5335 9.80913C23.3016 9.97856 23.8751 9.89577 24.6501 9.88366C25.4912 9.87052 26.2922 10.0236 27.1244 10.1221C27.7437 10.1955 28.3159 10.0405 28.928 10.0178C30.5668 9.95711 32.228 9.61019 33.8766 9.51102C35.3062 9.42503 36.9384 9.23087 38.244 9.88366" stroke="#192825" stroke-width="2" stroke-linecap="round" stroke-linejoin="round"/>
<path d="M22.5483 2.10332C22.3527 4.52478 22.5483 6.92347 22.5483 9.34742M22.5482 2.50559C23.72 1.12705 26.1255 1.75416 27.7502 1.50692C29.8486 1.18761 32.0016 1.40341 34.0851 1.09702C35.8936 0.831062 36.7458 1.01502 36.9693 2.89313C37.1788 4.65228 37.0364 6.49045 37.0364 8.25913C37.0364 8.63584 37.1792 9.33826 36.7681 9.55592C36.4181 9.74124 35.7539 9.61554 35.367 9.61554C34.7306 9.61554 34.1266 9.47039 33.4889 9.48139C32.6499 9.49585 31.8275 9.61554 30.9848 9.61554C29.3585 9.61554 27.7466 9.88384 26.1106 9.88384C25.3348 9.88384 24.586 10.018 23.8152 10.018C22.9283 10.018 22.5936 9.97669 22.4141 9.07894" stroke="#192825" stroke-width="2" stroke-linecap="round" stroke-linejoin="round"/>
<path d="M22.5481 9.07894C22.5481 6.65499 22.3524 4.92705 22.5481 2.50559C23.7198 1.12705 26.1254 1.75416 27.7502 1.50692C29.8485 1.18761 32.0016 1.40341 34.085 1.09702C35.8935 0.831062 36.7457 1.01502 36.9693 2.89313C37.1787 4.65228 37.0363 6.49045 37.0363 8.25913C37.0363 8.63584 37.1792 9.33826 36.768 9.55592C36.418 9.74124 35.7539 9.61554 35.3669 9.61554C34.7305 9.61554 34.1265 9.47039 33.4888 9.48139C32.6498 9.49585 31.8274 9.61554 30.9847 9.61554C29.3584 9.61554 27.7465 9.88384 26.1106 9.88384C25.3347 9.88384 24.5859 10.018 23.8151 10.018C22.9282 10.018 22.7277 9.97669 22.5481 9.07894Z" fill="#4A5759" stroke="#192825" stroke-width="2" stroke-linecap="round" stroke-linejoin="round"/>
<path d="M36.7141 2.10303C38.0229 3.47727 37.0885 4.91874 37.5488 6.52998C37.6191 6.77607 37.8554 6.86383 37.9736 7.07403C38.1379 7.36614 38.122 7.83171 38.16 8.15468C38.2388 8.82519 38.1942 9.51553 38.1901 10.1913C38.1928 10.2213 38.1928 10.2529 38.1898 10.2862C38.1898 10.2546 38.1899 10.223 38.1901 10.1913C38.1403 9.65432 37.1934 9.63629 36.7141 9.69954V2.10303Z" fill="#192825"/>
<path d="M38.1898 10.2862C38.1898 9.58025 38.2425 8.8566 38.16 8.15468C38.122 7.83171 38.1379 7.36614 37.9736 7.07403C37.8554 6.86383 37.6191 6.77607 37.5488 6.52998C37.0885 4.91874 38.0229 3.47727 36.7141 2.10303V9.69954C37.2201 9.63276 38.2177 9.65659 38.16 10.2862" stroke="#192825" stroke-linecap="round" stroke-linejoin="round"/>
<path d="M20.4987 4.6371C20.7234 3.31478 21.2885 2.95554 22.3768 2.2373L22.5687 9.69967C22.0712 9.78386 21.8746 9.94222 21.5718 10.2862C21.5718 9.4592 21.4854 8.65909 21.4451 7.83428C21.4378 7.68519 21.462 7.25349 21.4683 6.7561C21.4321 7.16455 21.1206 7.46475 20.5751 7.60362C19.9252 7.04821 20.3709 5.38885 20.4987 4.6371Z" fill="#192825"/>
<path d="M20.5751 7.60362C19.9252 7.04821 20.3709 5.38885 20.4987 4.6371C20.7234 3.31478 21.2885 2.95554 22.3768 2.2373L22.5687 9.69967C22.0712 9.78386 21.8746 9.94222 21.5718 10.2862C21.5718 9.4592 21.4854 8.65909 21.4451 7.83428C21.4378 7.68519 21.462 7.25349 21.4683 6.7561M20.5751 7.60362C20.5683 7.60535 20.6397 7.60193 20.6328 7.60362M20.5751 7.60362C21.1206 7.46475 21.4321 7.16455 21.4683 6.7561M20.6328 4.92024C20.677 4.87438 20.7189 4.83606 20.7587 4.80478M20.7587 4.80478C21.3675 4.32613 21.4697 5.49657 21.4698 6.53062M20.7587 4.80478C21.3714 4.90379 21.2037 5.39301 21.3706 5.99382C21.4239 6.18577 21.4589 6.36543 21.4698 6.53062M20.7587 4.80478C20.6842 4.79274 20.5982 4.78647 20.4986 4.78647M21.4698 6.53062C21.4698 6.60676 21.4692 6.68215 21.4683 6.7561M21.4698 6.53062C21.475 6.60912 21.4747 6.68436 21.4683 6.7561" stroke="#192825" stroke-width="2" stroke-linecap="round" stroke-linejoin="round"/>
<path d="M27.9356 100.262C27.8819 101.675 27.8705 103.088 27.9356 104.48M27.5566 100.093C27.6422 100.173 32.4818 104.666 32.6194 104.217C32.8597 103.433 32.4826 102.278 32.4826 101.443M30.5882 99.2501C31.5079 99.4889 32.125 99.3286 33.0511 99.2501M32.1037 98.0693V100.431" stroke="#B7C2B4" stroke-width="1.2" stroke-linecap="round" stroke-linejoin="round"/>
<path d="M22.43 58.431C23.0445 57.9496 23.6834 57.7969 24.463 57.7784C24.9111 57.8494 24.8777 58.1758 24.4395 58.2965C23.9538 58.4303 23.5132 58.4471 23.0515 58.6641C22.6499 58.8529 22.7404 59.3181 22.9168 59.6236C23.1451 60.0188 23.7528 59.9337 24.1702 60.0002C24.3432 60.0278 24.7772 60.0746 24.8072 60.2827C24.8287 60.4316 24.6961 60.5127 24.5431 60.5203C24.1541 60.5396 23.7794 60.4716 23.4037 60.3903C22.9481 60.2917 22.4635 60.1817 22.2332 59.7895C21.9732 59.3468 21.9879 58.7772 22.43 58.431Z" fill="#B7C2B4"/>
<path d="M24.6363 57.7764C23.7769 57.7764 23.0895 57.9144 22.43 58.431C21.9879 58.7772 21.9732 59.3468 22.2332 59.7895C22.4635 60.1817 22.9481 60.2917 23.4037 60.3903C23.7794 60.4716 24.1541 60.5396 24.5431 60.5203C24.6961 60.5127 24.8287 60.4316 24.8072 60.2827C24.7772 60.0746 24.3432 60.0278 24.1702 60.0002C23.7528 59.9337 23.1451 60.0188 22.9168 59.6236C22.7404 59.3181 22.6499 58.8529 23.0515 58.6641C23.5132 58.4471 23.9538 58.4303 24.4395 58.2965C24.882 58.1746 24.9117 57.843 24.4498 57.7764" stroke="#B7C2B4" stroke-width="0.2" stroke-linecap="round" stroke-linejoin="round"/>
<path d="M25.7892 59.8999V57.8001C26.0211 57.7634 26.2101 57.7339 26.3657 57.9966C26.5925 58.3792 26.8097 58.7711 27.042 59.1496C27.3042 59.577 27.4621 58.0833 27.7111 58.0135C28.1397 57.8934 28.4382 59.8729 28.4656 60.167C28.5387 60.9513 27.9952 59.9757 27.9317 59.7092C27.9166 59.6459 27.8939 58.9647 27.7467 59.1242C27.5595 59.3269 27.5563 61.1186 27.0989 60.3196C26.9184 60.0043 26.775 59.6964 26.6576 59.3404C26.6303 59.2576 26.4322 58.5679 26.2768 58.8147C26.0389 59.1924 26.2851 59.998 25.9742 60.3153C25.7642 60.5298 25.7892 60.0016 25.7892 59.8999Z" fill="#B7C2B4"/>
<path d="M25.7892 57.8864C25.7892 58.5576 25.7892 59.2287 25.7892 59.8999C25.7892 60.0016 25.7642 60.5298 25.9742 60.3153C26.2851 59.998 26.0389 59.1924 26.2768 58.8147C26.4322 58.5679 26.6303 59.2576 26.6576 59.3404C26.775 59.6964 26.9184 60.0043 27.0989 60.3196C27.5563 61.1186 27.5595 59.3269 27.7467 59.1242C27.8939 58.9647 27.9166 59.6459 27.9317 59.7092C27.9952 59.9757 28.5387 60.9513 28.4656 60.167C28.4382 59.8729 28.1397 57.8934 27.7111 58.0135C27.4621 58.0833 27.3042 59.577 27.042 59.1496C26.8097 58.7711 26.5925 58.3792 26.3657 57.9966C26.196 57.7101 25.9866 57.7711 25.7251 57.8101" stroke="#B7C2B4" stroke-width="0.2" stroke-linecap="round" stroke-linejoin="round"/>
<path d="M29.5437 58.9217C29.5241 58.7461 29.4886 58.428 29.4287 57.8913C29.8575 57.9622 30.5213 57.6288 30.9248 57.858C31.3646 58.1079 31.2004 58.7287 31.1343 59.2361C31.0408 59.9532 30.652 60.4628 30.129 60.52C29.9845 60.5357 29.8456 60.5047 29.745 60.3415C29.6442 60.1778 29.6387 59.7982 29.6193 59.6227C29.4869 58.4196 29.5165 58.6796 29.5437 58.9217Z" fill="#B7C2B4"/>
<path d="M29.3882 57.9481C29.7343 60.8769 29.3086 57.2655 29.5875 59.6564C29.6072 59.8253 29.6128 60.1907 29.7157 60.3483C29.8183 60.5054 29.9599 60.5353 30.1073 60.5201C30.6407 60.4651 31.0372 59.9745 31.1326 59.2842C31.2001 58.7958 31.3675 58.1982 30.919 57.9577C30.4942 57.73 30.0795 57.8735 29.6445 57.7764" stroke="#B7C2B4" stroke-width="0.2" stroke-linecap="round" stroke-linejoin="round"/>
<path d="M30.5783 59.4791C30.3348 59.9742 30.3094 58.8998 30.304 58.6937C30.3904 58.7018 30.7101 58.6505 30.7523 58.8204C30.8013 59.0178 30.6498 59.3335 30.5783 59.4791Z" fill="#545657" stroke="#B7C2B4" stroke-width="0.2" stroke-linecap="round" stroke-linejoin="round"/>
<path d="M33.9023 58.7117C33.5269 58.577 32.5112 59.1896 32.1355 59.2215C32.4301 59.5388 33.2664 59.7708 33.7042 59.4644C33.8092 59.3909 34.0938 58.7805 33.9023 58.7117Z" fill="#B7C2B4"/>
<path d="M32.2346 58.9135C32.6102 58.8821 33.5269 58.5946 33.9023 58.7271C34.0938 58.7946 33.8092 59.3946 33.7042 59.4669C33.2664 59.7681 32.4301 59.5399 32.1355 59.228" stroke="#B7C2B4" stroke-width="0.2" stroke-linecap="round" stroke-linejoin="round"/>
<path d="M36.0667 58.1164C36.8124 57.5807 35.0848 57.832 34.9188 57.8565C34.9188 58.4319 34.8378 59.2322 34.9188 59.8016C34.9374 59.9325 34.9619 60.5881 35.1739 60.5184C35.2931 60.4793 35.3592 60.3311 35.3652 60.1957C35.3816 59.828 35.2413 59.4236 35.6699 59.4579C35.9565 59.4808 36.5563 59.5396 36.6902 59.1435C36.9564 58.3561 34.9241 59.4033 35.2093 58.5356C35.3446 58.1241 35.7983 58.3093 36.0667 58.1164Z" fill="#B7C2B4"/>
<path d="M34.9471 57.8565C35.1105 57.832 36.8109 57.5807 36.0769 58.1164C35.8127 58.3093 35.3661 58.1241 35.233 58.5356C34.9523 59.4033 36.9526 58.3561 36.6906 59.1435C36.5588 59.5396 35.9684 59.4808 35.6863 59.4579C35.2645 59.4236 35.4025 59.828 35.3864 60.1957C35.3805 60.3311 35.3154 60.4793 35.1981 60.5184C34.9895 60.5881 34.9654 59.9325 34.9471 59.8016C34.8674 59.2322 34.8843 58.6582 34.8843 58.0829" stroke="#B7C2B4" stroke-width="0.2" stroke-linecap="round" stroke-linejoin="round"/>
<path d="M21.3596 6.19421C21.3596 6.95284 20.9415 7.41047 20.6887 7.41047C20.4358 7.41047 20.4439 6.95284 20.4439 6.19421C20.4439 5.43558 20.4358 5.12109 20.6887 5.12109C20.9415 5.12109 21.3596 5.43558 21.3596 6.19421Z" fill="#31403D"/>
</svg>
