<svg width="1440" height="990" viewBox="0 0 1440 990" fill="none" xmlns="http://www.w3.org/2000/svg">
<g clip-path="url(#clip0)">
<g opacity="0.8">
<path d="M77.5172 671.561C74.8598 669.435 74.0306 666.264 71.5998 664.77C73.0518 664.24 76.1339 664.827 78.7228 665.943C80.1951 666.578 81.3219 667.017 82.2342 668.07C83.1466 669.124 84.1779 669.964 83.7643 671.295C83.3976 672.475 82.4155 672.931 81.199 673.147C79.6576 673.421 78.7398 672.539 77.5172 671.561Z" fill="#B7C2B4"/>
<path d="M65.6579 679.806C61.4108 675.748 60.4364 672.041 56.377 669.57C58.0018 669.909 59.9323 670.766 61.7872 670.95C64.1212 671.182 65.8644 671.697 68.3597 672.706C70.5316 673.584 72.1388 674.828 73.695 675.854C75.0245 676.73 74.7157 677.265 74.0774 679.487C73.3764 681.927 72.6936 682.383 70.3194 682.335C68.302 682.294 67.1552 681.237 65.6579 679.806Z" fill="#B7C2B4"/>
<path d="M43.8077 680.668C42.7468 679.198 41.4491 677.414 40.0941 676.192C41.4853 674.968 43.0179 677.808 44.8012 678.004C46.7916 678.221 48.8111 678.363 50.6586 678.833C52.4414 679.286 54.4794 681.037 56.0656 681.96C57.5912 682.848 59.8658 685.355 59.2341 687.336C57.982 691.264 54.9138 689.654 51.6576 687.758C49.5316 686.52 47.8218 685.28 46.3766 683.278C45.699 682.34 44.5161 681.649 43.8077 680.668Z" fill="#B7C2B4"/>
<path d="M24.604 683.822C25.1969 684.167 25.7223 684.556 26.2003 684.978C26.5161 685.414 26.878 685.861 27.3414 686.134C29.1782 688.24 30.4158 690.833 32.847 693.003C35.5882 695.451 37.3311 697.287 40.155 698.931C41.928 699.964 43.7407 700.669 45.7863 699.794C46.2513 699.595 46.5311 699.483 46.9073 699.146C47.3455 697.958 47.346 697.151 47.0975 695.911C46.4417 692.637 43.1248 692.486 40.241 690.803C37.7372 689.342 36.2475 688.617 33.4966 687.702C31.4124 687.009 30.2061 686.681 28.0306 686.378C27.7772 686.343 27.5491 686.256 27.3414 686.134C26.9875 685.728 26.6114 685.341 26.2003 684.978C25.6264 684.185 25.2049 683.428 24.604 683.822Z" fill="#B7C2B4"/>
<path d="M21.3217 708.838C14.2759 703.505 12.8316 695.982 6.02321 692.018C10.7099 692.995 13.955 696.036 18.7314 697.148C21.4787 697.788 23.7238 699.023 26.1979 700.463C29.2189 702.222 34.4217 705.475 32.9216 709.665C31.9654 712.335 31.6585 711.614 28.5466 711.929C26.9678 712.089 26.0241 711.732 24.5686 711.1C23.1511 710.484 22.554 709.771 21.3217 708.838Z" fill="#B7C2B4"/>
<path d="M-7.05173 708.593C-8.61502 706.817 -9.66033 706.248 -11.7512 705.031C-9.98188 705.143 -7.93048 705.422 -6.15219 705.771C-3.34042 706.324 -3.79058 707.219 -0.382567 707.851C4.14801 708.69 6.86585 709.27 10.7585 711.735C14.5032 714.107 18.474 716.826 18.7889 719.757C19.1655 723.261 18.9243 724.667 15.7718 724.938C13.4679 725.137 11.4634 725.428 9.16101 725.013C7.72428 724.754 6.52462 723.85 5.25156 723.108C1.14319 720.716 -1.12551 716.873 -3.85441 713.139C-4.94579 711.646 -5.83307 709.977 -7.05173 708.593Z" fill="#B7C2B4"/>
<path d="M67.1774 655.899C67.2446 658.282 67.6742 660.077 67.7257 661.98C69.7206 661.003 71.3024 657.973 72.9846 655.005C73.3871 654.295 71.6286 656.878 71.9408 656.124C72.3514 655.132 72.4806 654.32 72.6773 653.476C73.044 651.901 72.556 651.464 71.2234 650.688C68.7187 649.23 68.2502 649.03 67.2407 651.64C66.6408 653.192 67.1305 654.236 67.1774 655.899Z" fill="#B7C2B4"/>
<path d="M55.4649 657.996C55.8094 660.103 55.5553 661.889 55.467 663.738C58.1437 661.985 60.3041 659.261 61.9819 656.379C62.3428 655.76 62.4603 655.809 62.4867 655.989C62.5245 656.247 62.3763 656.771 62.4867 655.989C62.4993 655.9 62.5153 655.793 62.5354 655.668C62.82 653.881 63.2334 652.565 62.2542 651.043C60.5825 648.446 56.3868 649.651 54.2667 652.073C54.3139 650.834 52.9594 654.128 53.569 653.049C53.7618 652.708 53.9975 652.38 54.2667 652.073C54.2667 652.073 54.2667 652.073 54.2667 652.073C54.2199 653.299 54.5509 653.968 54.7972 655.17C55.0248 656.281 55.282 656.877 55.4649 657.996Z" fill="#B7C2B4"/>
<path d="M35.821 663.294C36.1601 667.37 37.5717 664.977 38.4207 668.392C42.9297 664.423 50.4348 660.631 46.3488 653.419C45.2534 651.485 41.6197 650.011 39.5608 650.847C37.2911 651.769 36.522 653.665 35.774 655.998C34.904 658.711 35.5848 660.455 35.821 663.294Z" fill="#B7C2B4"/>
<path d="M-1.30282 676.787C0.673998 680.913 1.72332 683.712 3.93162 687.269C3.79124 684.961 4.37934 682.186 4.80179 679.887C5.33908 676.963 6.08701 674.343 6.08701 674.343C6.08701 674.343 8.73965 668.189 6.63346 665.389C5.73229 664.191 3.13017 662.481 0.521441 662.656C-2.17805 662.837 -3.99676 664.041 -5.30014 666.412C-6.48791 668.573 -5.24051 667.041 -4.66556 669.439C-4.30242 670.953 -3.69795 671.668 -3.05037 673.084C-2.38553 674.538 -1.99355 675.345 -1.30282 676.787Z" fill="#B7C2B4"/>
<path d="M-22.7124 705.98C-20.258 701.765 -15.0422 699.732 -11.012 697.092C-6.74165 694.295 -0.982947 693.074 3.00091 690.003C5.41147 688.145 9.67335 686.214 12.6108 685.261C15.4682 684.334 17.8476 682.206 20.7462 681.276C26.6901 679.367 32.2785 675.377 38.0719 673.047C42.6575 671.202 47.661 668.737 52.5627 668.077C54.4686 667.821 56.12 666.024 57.9907 665.746C59.884 665.465 61.7282 664.575 63.614 664.077C67.9651 662.929 72.4382 661.596 76.512 659.957C80.5706 658.325 86.1405 658.86 89.8867 656.406" stroke="#B29172" stroke-width="3" stroke-linecap="round" stroke-linejoin="round"/>
<path d="M-0.841809 676.27C1.13501 680.397 2.18433 683.196 4.39263 686.753C4.25225 684.444 4.84035 681.67 5.2628 679.371C5.80009 676.446 7.52822 670.55 7.52822 670.55C7.52822 670.55 10.1809 664.395 8.07467 661.595C7.17349 660.397 4.57137 658.687 1.96265 658.862C-0.736847 659.044 -2.55556 660.247 -3.85894 662.618C-5.04671 664.779 -4.7795 666.525 -4.20455 668.922C-3.84141 670.437 -3.23693 671.152 -2.58936 672.568C-1.92451 674.022 -1.53254 674.829 -0.841809 676.27Z" stroke="#192825" stroke-width="3" stroke-linecap="round" stroke-linejoin="round"/>
<path d="M18.3 672.293C18.9878 674.555 19.266 676.238 20.4437 678.188C22.5024 674.652 24.3168 670.897 26.3444 667.415C27.6809 665.12 25.9418 665.907 26.741 663.4C27.649 660.551 26.3419 658.256 24.0069 656.604C21.7782 655.026 19.4453 654.815 17.0334 656.095C14.6815 657.344 15.8393 655.905 15.6001 658.557C15.4761 659.932 15.8514 660.698 16.0808 662.059C16.4064 663.99 16.7133 665.05 17.1279 666.964C17.5789 669.047 17.797 670.639 18.3 672.293Z" fill="#B7C2B4"/>
<path d="M18.8212 671.549C19.509 673.811 19.7872 675.493 20.9649 677.444C23.0236 673.908 24.838 670.153 26.8656 666.671C28.2021 664.376 28.5218 661.769 29.321 659.262C30.229 656.413 28.9219 654.118 26.5869 652.465C24.3583 650.888 22.0253 650.677 19.6134 651.957C17.2616 653.205 16.3605 655.161 16.1213 657.813C15.9973 659.188 16.3726 659.953 16.602 661.315C16.9276 663.246 17.2346 664.305 17.6491 666.22C18.1002 668.302 18.3182 669.894 18.8212 671.549Z" stroke="#192825" stroke-width="3" stroke-linecap="round" stroke-linejoin="round"/>
<path d="M36.6386 658.505C36.9777 662.58 37.7981 665.366 38.6471 668.782C43.1562 664.813 51.2523 655.841 47.1664 648.629C46.0709 646.695 42.4372 645.221 40.3784 646.058C38.1086 646.98 37.3396 648.875 36.5916 651.208C35.7215 653.922 36.4023 655.665 36.6386 658.505Z" stroke="#192825" stroke-width="3" stroke-linecap="round" stroke-linejoin="round"/>
<path d="M55.2213 658.193C55.5658 660.3 55.3118 662.086 55.2234 663.936C57.9001 662.182 60.0605 659.459 61.7383 656.577C62.6739 654.97 63.4512 653.81 63.7694 651.812C64.054 650.025 64.4674 648.709 63.4882 647.187C61.6042 644.26 56.5147 646.162 54.803 649.193C54.1933 650.273 54.0704 651.032 54.0231 652.271C53.9763 653.497 54.3073 654.165 54.5536 655.367C54.7812 656.478 55.0384 657.074 55.2213 658.193Z" stroke="#192825" stroke-width="3" stroke-linecap="round" stroke-linejoin="round"/>
<path d="M67.6454 655.37C67.7126 657.753 68.1422 659.548 68.1937 661.451C70.1886 660.474 71.7704 657.444 73.4526 654.476C73.855 653.766 74.1139 653.381 74.4261 652.627C74.8367 651.635 74.966 650.823 75.1627 649.978C75.5293 648.404 75.0413 647.967 73.7087 647.191C71.2041 645.732 68.7182 648.501 67.7087 651.111C67.1088 652.662 67.5985 653.707 67.6454 655.37Z" stroke="#192825" stroke-width="3" stroke-linecap="round" stroke-linejoin="round"/>
<path d="M82.1523 648.472C79.6375 650.965 80.1344 655.277 80.1448 656.886C82.0303 656.771 84.1303 656.298 85.6849 654.535C87.2949 652.71 88.9866 650.246 87.2803 648.511C85.8764 647.083 83.817 646.822 82.1523 648.472Z" fill="#B7C2B4"/>
<path d="M96.4097 653.531C94.1407 653.3 93.048 654.341 91.2668 656.299C91.0383 657.395 93.8717 658.448 94.8501 658.302C96.611 658.041 97.219 657.285 98.0235 656.147C98.4918 655.484 98.841 654.534 98.571 654.253C98.136 653.8 97.2949 653.622 96.4097 653.531Z" fill="#B7C2B4"/>
<path d="M-7.58902 708.111C-9.15231 706.335 -10.1976 705.766 -12.2885 704.549C-10.5192 704.662 -8.46777 704.94 -6.68948 705.29C-3.87771 705.842 -1.24316 705.27 2.16485 705.902C6.69542 706.741 9.41326 707.321 13.3059 709.786C17.0506 712.158 21.0214 714.877 21.3364 717.808C21.7129 721.312 18.387 724.185 15.2345 724.457C12.9306 724.655 10.9262 724.947 8.62372 724.532C7.18699 724.272 5.98733 723.368 4.71427 722.627C0.605904 720.235 -1.6628 716.392 -4.3917 712.658C-5.48308 711.164 -6.37036 709.496 -7.58902 708.111Z" stroke="#192825" stroke-width="3" stroke-linecap="round" stroke-linejoin="round"/>
<path d="M21.6225 708.322C14.5767 702.989 13.1323 695.467 6.32399 691.502C11.0107 692.479 15.568 693.267 20.3444 694.379C23.0917 695.019 25.3368 696.253 27.811 697.694C30.8319 699.453 36.0347 702.705 34.5346 706.895C33.5784 709.566 31.9593 711.098 28.8473 711.414C27.2686 711.574 26.3249 711.217 24.8694 710.584C23.4519 709.969 22.8547 709.255 21.6225 708.322Z" stroke="#192825" stroke-width="3" stroke-linecap="round" stroke-linejoin="round"/>
<path d="M24.2996 683.847C28.0497 686.03 29.1908 689.156 32.6348 692.231C35.376 694.679 37.119 696.515 39.9429 698.159C41.7158 699.192 43.5286 699.897 45.5742 699.022C46.0392 698.823 46.319 698.711 46.6952 698.374C47.2551 697.871 47.4044 697.414 47.665 696.708C48.1032 695.521 48.1036 694.714 47.8551 693.473C47.1994 690.199 43.8825 690.048 40.9986 688.366C38.4948 686.905 37.0052 686.179 34.2543 685.265C32.1701 684.572 30.9637 684.243 28.7883 683.941C26.942 683.684 25.1019 682.978 24.022 683.685" stroke="#192825" stroke-width="3" stroke-linecap="round" stroke-linejoin="round"/>
<path d="M40.8965 676.411C42.2516 677.632 43.2717 679.255 44.3326 680.724C45.0409 681.705 46.2238 682.396 46.9015 683.335C48.3466 685.337 50.0565 686.576 52.1824 687.814C55.4387 689.71 60.0425 688.683 61.2946 684.756C61.9263 682.774 59.6517 680.268 58.1261 679.38C56.5399 678.456 54.5019 676.705 52.7191 676.252C50.8716 675.782 48.8521 675.641 46.8617 675.423C45.0784 675.228 42.0102 675.024 40.6189 676.249" stroke="#192825" stroke-width="3" stroke-linecap="round" stroke-linejoin="round"/>
<path d="M65.7795 679.004C61.5324 674.945 60.558 671.239 56.4986 668.767C58.1234 669.106 59.41 668.839 61.2649 669.023C63.5989 669.255 65.5255 669.647 67.1976 669.958C69.0534 670.304 71.2935 670.943 72.8497 671.968C74.1793 672.845 75.6317 675.641 74.9934 677.863C74.2925 680.303 72.8151 681.58 70.441 681.532C68.4236 681.491 67.2767 680.434 65.7795 679.004Z" stroke="#192825" stroke-width="3" stroke-linecap="round" stroke-linejoin="round"/>
<path d="M77.6283 671.777C74.9709 669.651 74.1417 666.479 71.7109 664.986C73.1628 664.456 76.245 665.043 78.8339 666.159C80.3062 666.794 81.4329 667.232 82.3453 668.286C83.2577 669.34 84.289 670.18 83.8754 671.511C83.5087 672.691 82.5266 673.146 81.3101 673.363C79.7687 673.637 78.8509 672.754 77.6283 671.777Z" stroke="#192825" stroke-width="3" stroke-linecap="round" stroke-linejoin="round"/>
<path d="M87.2915 666.602C84.5605 665.907 82.9668 662.972 81.4662 661C82.9126 661.092 84.3697 660.624 86.517 660.494C88.368 660.381 90.145 661.068 90.5143 662.84C90.9088 664.734 89.4615 667.154 87.2915 666.602Z" fill="#B7C2B4"/>
</g>
<path d="M176.857 750.454C168.004 744.804 165.013 738.64 157.038 735.708C160.005 735.741 163.687 736.577 167.005 736.259C171.179 735.859 174.415 736.158 179.14 737.065C183.254 737.855 186.503 739.48 189.587 740.741C192.222 741.819 191.866 742.865 191.514 746.983C191.129 751.505 190.088 752.54 185.907 753.277C182.355 753.903 179.978 752.446 176.857 750.454Z" fill="#B7C2B4"/>
<path d="M84.565 770.673C82.0357 768.647 78.9484 766.192 76.0308 764.735C77.8434 761.961 81.8397 766.124 85.0052 765.609C88.5387 765.035 92.0856 764.314 95.4928 764.242C98.7808 764.172 103.128 766.216 106.301 767.05C109.354 767.853 114.469 771.086 114.326 774.801C114.043 782.166 107.988 780.855 101.473 779.143C97.2196 778.024 93.6821 776.705 90.2369 773.945C88.6215 772.652 86.2536 772.025 84.565 770.673Z" fill="#B7C2B4"/>
<path d="M126.679 754.019C124.225 751.903 121.228 749.337 118.366 747.775C120.278 745.068 124.12 749.374 127.302 748.974C130.854 748.529 134.425 747.938 137.833 747.989C141.121 748.039 145.391 750.239 148.532 751.188C151.553 752.101 156.548 755.517 156.27 759.225C155.72 766.575 149.717 765.045 143.268 763.097C139.058 761.825 135.571 760.378 132.228 757.495C130.661 756.144 128.317 755.432 126.679 754.019Z" fill="#B7C2B4"/>
<path d="M44.3818 791.126C45.592 791.325 46.7171 791.641 47.7842 792.041C48.5895 792.569 49.4788 793.086 50.4264 793.247C54.835 795.596 58.5528 799.141 63.9959 801.221C70.1331 803.565 74.2135 805.524 79.9777 806.474C83.5967 807.071 87.074 807.095 89.935 804.332C90.5854 803.704 90.9818 803.34 91.3953 802.536C91.3719 800.273 90.8593 798.925 89.6545 797.01C86.4758 791.957 80.8381 793.816 74.9493 792.84C69.8364 791.992 66.886 791.728 61.7081 791.95C57.7852 792.119 55.5604 792.337 51.7335 793.217C51.2876 793.319 50.8512 793.319 50.4264 793.247C49.5771 792.794 48.7021 792.386 47.7842 792.041C46.321 791.082 45.1353 790.086 44.3818 791.126Z" fill="#B7C2B4"/>
<path d="M53.7607 837.874C39.5577 830.956 34.423 818.26 21.11 813.661C29.6685 813.754 36.4122 817.967 45.1749 818.266C50.2149 818.438 54.5797 819.827 59.4177 821.498C65.3249 823.539 75.5756 827.445 74.3932 835.313C73.6396 840.328 72.8518 839.169 67.5023 840.798C64.7884 841.625 63.0098 841.325 60.2381 840.719C57.5389 840.129 56.2446 839.084 53.7607 837.874Z" fill="#B7C2B4"/>
<path d="M5.51687 844.751C2.16064 842.176 0.130385 841.54 -3.95812 840.128C-0.815629 839.714 2.87888 839.492 6.11891 839.49C11.2419 839.487 10.7619 841.213 16.9582 841.143C25.1955 841.049 30.163 841.126 37.8435 844.104C45.2319 846.97 53.137 850.365 54.703 855.397C56.5753 861.413 56.6384 863.963 51.2026 865.529C47.2302 866.674 43.8151 867.879 39.6329 867.946C37.0231 867.989 34.6063 866.818 32.1169 865.958C24.0835 863.182 18.7751 857.226 12.6973 851.62C10.2665 849.378 8.13321 846.758 5.51687 844.751Z" fill="#B7C2B4"/>
<path d="M198.903 709.794C197.356 713.766 196.815 717.02 195.576 720.191C199.541 719.969 204.254 716.079 209.089 712.362C210.245 711.472 205.553 714.503 206.591 713.478C207.957 712.13 208.735 710.883 209.646 709.629C211.346 707.29 210.846 706.231 209.191 704.026C206.08 699.882 205.448 699.227 201.969 702.824C199.902 704.962 199.982 707.023 198.903 709.794Z" fill="#B7C2B4"/>
<path d="M228.225 707.203C226.989 709.965 226.492 712.252 225.502 714.456C228.321 714.438 231.797 711.846 235.355 709.38C236.206 708.79 232.773 710.774 233.545 710.084C234.561 709.176 235.156 708.32 235.846 707.463C237.132 705.865 236.815 705.096 235.719 703.475C233.66 700.429 233.234 699.943 230.643 702.371C229.103 703.813 229.087 705.277 228.225 707.203Z" fill="#B7C2B4"/>
<path d="M246.36 713.212C244.131 714.283 242.613 715.448 240.832 716.301C242.6 717.777 246.138 717.995 249.66 718.335C250.502 718.416 247.313 717.842 248.159 717.819C249.272 717.789 250.095 717.568 250.979 717.398C252.625 717.08 252.833 716.433 253.005 714.843C253.328 711.854 253.319 711.326 250.42 711.473C248.697 711.56 247.915 712.465 246.36 713.212Z" fill="#B7C2B4"/>
<path d="M230.953 720.689C227.988 720.091 225.647 720.111 223.279 719.631C223.918 722.376 227.212 725.196 230.401 728.123C231.164 728.823 228.473 725.912 229.316 726.513C230.425 727.304 231.391 727.695 232.38 728.179C234.222 729.082 234.901 728.604 236.241 727.178C238.759 724.497 239.139 723.975 236.2 721.982C234.454 720.798 233.022 721.105 230.953 720.689Z" fill="#B7C2B4"/>
<path d="M204.718 723.784C201.694 723.885 199.42 724.442 197.006 724.52C198.259 727.045 202.114 729.031 205.89 731.146C206.794 731.652 203.505 729.438 204.464 729.829C205.725 730.343 206.756 730.502 207.829 730.746C209.829 731.2 210.381 730.578 211.356 728.882C213.19 725.695 213.44 725.099 210.121 723.836C208.149 723.085 206.827 723.713 204.718 723.784Z" fill="#B7C2B4"/>
<path d="M165.215 718.64C164.232 722.328 162.508 725.054 161.008 728.004C166.658 727.108 172.178 724.251 177.026 720.782C178.069 720.036 178.224 720.203 178.135 720.516C178.008 720.964 177.382 721.71 178.135 720.516C178.221 720.38 178.326 720.218 178.451 720.027C180.225 717.322 181.864 715.479 181.382 712.28C180.561 706.819 172.836 705.708 167.603 708.104C168.588 706.119 163.965 710.497 165.75 709.184C166.315 708.768 166.939 708.408 167.603 708.104C167.603 708.104 167.603 708.104 167.603 708.104C166.628 710.069 166.677 711.402 166.198 713.543C165.755 715.521 165.737 716.681 165.215 718.64Z" fill="#B7C2B4"/>
<path d="M123.308 728.427C120.958 735.35 124.979 732.433 123.936 738.638C134.158 735.345 149.166 734.478 147.608 719.74C147.191 715.789 142.284 710.782 138.312 710.686C133.934 710.579 131.322 713.139 128.432 716.43C125.071 720.259 124.945 723.603 123.308 728.427Z" fill="#B7C2B4"/>
<path d="M45.8899 760.101C46.568 768.253 46.5412 773.596 47.9682 780.944C49.202 776.998 51.9495 772.736 54.1178 769.163C56.8755 764.619 59.7911 760.719 59.7911 760.719C59.7911 760.719 68.1381 752.123 66.3998 746.105C65.6561 743.531 62.3959 739.019 57.9259 737.652C53.3003 736.237 49.4958 737.092 45.81 740.224C42.4511 743.079 45.5097 741.313 44.9453 745.684C44.5888 748.446 45.1438 750.025 45.3249 752.803C45.5109 755.656 45.653 757.252 45.8899 760.101Z" fill="#B7C2B4"/>
<path d="M-33.9783 865.515C-24.9996 861.502 3.80272 824.792 9.95906 818.768C16.4821 812.386 27.1047 804.087 37.7992 794.354C44.9915 787.808 48.7264 783.813 56.0068 777.365C61.7571 772.272 64.7106 769.045 70.9959 764.629C80.2265 758.144 86.2974 755.831 96.6545 751.36C104.818 747.835 109.727 746.698 118.023 743.497C122.209 741.882 124.468 740.742 128.708 739.277C134.441 737.295 140.525 736.6 143.661 735.074C150.895 731.555 152.098 732.674 157.544 731.286C184.58 724.391 224.813 716.223 237.613 716.279" stroke="#B29172" stroke-width="3" stroke-linecap="round" stroke-linejoin="round"/>
<path d="M14.3099 786.496C17.3026 793.257 19.6058 798.814 20.7327 806.103C23.7581 797.129 19.518 788.192 23.6092 779.23L23.6261 779.192C25.2674 775.597 28.1483 769.287 25.5827 763.806C23.0573 758.411 19.3798 753.361 13.4401 752.908C8.74582 752.55 10.617 751.841 7.58005 755.862C4.03337 760.557 4.27699 764.524 5.0616 770.154C5.94026 776.458 11.8677 780.98 14.3099 786.496Z" fill="#B7C2B4"/>
<path d="M14.9416 785.198C17.9344 791.958 20.2375 797.516 21.3645 804.805C24.3898 795.831 26.3679 783.569 30.4591 774.607L30.476 774.57C32.1172 770.975 34.9982 764.664 32.4326 759.183C29.9072 753.788 26.2297 748.739 20.29 748.286C15.5957 747.928 11.2488 750.543 8.21177 754.563C4.66509 759.259 4.90872 763.226 5.69332 768.856C6.57198 775.16 12.4995 779.682 14.9416 785.198Z" stroke="#619482" stroke-width="3" stroke-linecap="round" stroke-linejoin="round"/>
<path d="M-17.3618 815.896C-13.0555 821.905 -9.66922 826.878 -7.08203 833.784C-5.94686 824.383 -11.9177 816.495 -9.73658 806.888L-9.72756 806.848C-8.85256 802.994 -7.31666 796.229 -10.9442 791.386C-14.5151 786.618 -19.1436 782.423 -25.0511 783.188C-29.72 783.793 -28.0323 782.718 -30.1872 787.273C-32.7037 792.592 -31.6576 796.426 -29.7434 801.778C-27.5997 807.772 -20.8758 810.992 -17.3618 815.896Z" fill="#B7C2B4"/>
<path d="M-17.0081 814.496C-12.7018 820.505 -9.31549 825.478 -6.7283 832.384C-5.59313 822.983 -6.15274 810.575 -3.97165 800.968L-3.96264 800.928C-3.08764 797.074 -1.55174 790.309 -5.17932 785.465C-8.75021 780.697 -13.3786 776.502 -19.2862 777.268C-23.9551 777.873 -27.6786 781.318 -29.8335 785.873C-32.35 791.192 -31.3039 795.026 -29.3896 800.378C-27.2459 806.372 -20.5221 809.592 -17.0081 814.496Z" stroke="#619482" stroke-width="3" stroke-linecap="round" stroke-linejoin="round"/>
<path d="M46.9896 759.534C47.6677 767.686 47.6409 773.029 49.0678 780.377C50.3017 776.431 53.0491 772.169 55.2174 768.596C57.9752 764.052 64.6133 755.299 64.6133 755.299C64.6133 755.299 72.9604 746.702 71.2221 740.685C70.4783 738.11 67.2182 733.598 62.7481 732.232C58.1225 730.817 54.318 731.672 50.6322 734.804C47.2734 737.659 46.6093 740.746 46.0449 745.117C45.6885 747.878 46.2435 749.458 46.4246 752.236C46.6106 755.088 46.7526 756.685 46.9896 759.534Z" stroke="#619482" stroke-width="3" stroke-linecap="round" stroke-linejoin="round"/>
<path d="M81.8308 744.684C81.7705 748.911 81.3285 751.927 82.2723 755.889C87.7028 750.989 92.8366 745.583 98.1852 740.756C101.711 737.575 98.3208 737.969 101.046 734.135C104.143 729.778 103.167 725.159 100.09 721.073C97.154 717.173 93.2959 715.544 88.4918 716.411C83.8073 717.256 86.5618 715.437 84.7109 719.823C83.7514 722.096 83.9736 723.605 83.6233 726.048C83.1261 729.514 83.0722 731.485 82.736 734.971C82.3703 738.763 81.8749 741.592 81.8308 744.684Z" fill="#B7C2B4"/>
<path d="M83.1224 743.7C83.0621 747.927 82.62 750.943 83.5638 754.906C88.9943 750.005 94.1282 744.599 99.4767 739.773C103.002 736.592 104.966 732.326 107.692 728.492C110.788 724.136 109.812 719.517 106.735 715.431C103.799 711.531 99.941 709.902 95.1369 710.769C90.4524 711.614 87.8533 714.454 86.0024 718.84C85.0429 721.113 85.2651 722.621 84.9148 725.064C84.4177 728.531 84.3637 730.502 84.0276 733.987C83.6619 737.779 83.1665 740.609 83.1224 743.7Z" stroke="#619482" stroke-width="3" stroke-linecap="round" stroke-linejoin="round"/>
<path d="M128.062 721.156C125.713 728.079 125.072 733.232 124.029 739.437C134.251 736.144 153.921 727.206 152.363 712.469C151.946 708.518 147.039 703.51 143.067 703.414C138.688 703.308 136.076 705.867 133.187 709.159C129.826 712.988 129.699 716.331 128.062 721.156Z" stroke="#619482" stroke-width="3" stroke-linecap="round" stroke-linejoin="round"/>
<path d="M164.672 718.783C163.689 722.472 161.966 725.198 160.466 728.148C166.116 727.252 171.635 724.394 176.484 720.926C179.187 718.992 181.306 717.669 183.289 714.645C185.063 711.94 186.702 710.097 186.221 706.898C185.295 700.744 175.602 700.114 170.588 703.802C168.803 705.115 168.046 706.262 167.061 708.248C166.085 710.213 166.135 711.546 165.655 713.686C165.212 715.664 165.195 716.825 164.672 718.783Z" stroke="#619482" stroke-width="3" stroke-linecap="round" stroke-linejoin="round"/>
<path d="M200.042 709.247C198.495 713.219 197.954 716.473 196.715 719.643C200.681 719.421 205.393 715.532 210.228 711.814C211.385 710.925 212.079 710.47 213.118 709.445C214.484 708.098 215.261 706.851 216.173 705.596C217.872 703.258 217.372 702.198 215.717 699.994C212.607 695.85 206.587 698.68 203.109 702.277C201.042 704.415 201.121 706.476 200.042 709.247Z" stroke="#619482" stroke-width="3" stroke-linecap="round" stroke-linejoin="round"/>
<path d="M229.052 706.854C227.816 709.615 227.319 711.903 226.33 714.107C229.148 714.088 232.625 711.496 236.182 709.031C237.033 708.441 237.541 708.143 238.313 707.453C239.329 706.546 239.924 705.689 240.614 704.832C241.9 703.234 241.583 702.465 240.487 700.845C238.428 697.798 234.062 699.593 231.47 702.021C229.93 703.464 229.914 704.928 229.052 706.854Z" stroke="#619482" stroke-width="3" stroke-linecap="round" stroke-linejoin="round"/>
<path d="M245.015 713.491C242.785 714.561 241.267 715.727 239.487 716.579C241.255 718.056 244.793 718.274 248.314 718.613C249.157 718.695 249.631 718.777 250.477 718.754C251.59 718.724 252.414 718.503 253.297 718.333C254.943 718.015 255.151 717.368 255.323 715.778C255.646 712.79 251.974 711.605 249.075 711.752C247.352 711.839 246.569 712.744 245.015 713.491Z" stroke="#619482" stroke-width="3" stroke-linecap="round" stroke-linejoin="round"/>
<path d="M231.475 721.417C228.51 720.82 226.169 720.839 223.801 720.36C224.44 723.105 227.734 725.925 230.923 728.852C231.686 729.552 232.088 729.982 232.931 730.583C234.04 731.374 235.007 731.765 235.995 732.249C237.837 733.152 238.517 732.673 239.856 731.247C242.374 728.567 239.661 724.704 236.722 722.711C234.975 721.527 233.544 721.834 231.475 721.417Z" stroke="#619482" stroke-width="3" stroke-linecap="round" stroke-linejoin="round"/>
<path d="M205.394 724.375C202.37 724.476 200.096 725.033 197.682 725.111C198.935 727.635 202.79 729.622 206.567 731.736C207.47 732.242 207.961 732.568 208.919 732.959C210.181 733.473 211.211 733.632 212.284 733.876C214.285 734.331 214.836 733.708 215.812 732.013C217.645 728.825 214.116 725.69 210.797 724.426C208.825 723.676 207.503 724.304 205.394 724.375Z" stroke="#619482" stroke-width="3" stroke-linecap="round" stroke-linejoin="round"/>
<path d="M4.40734 844.092C1.05111 841.518 -0.979146 840.881 -5.06765 839.469C-1.92516 839.055 1.76935 838.834 5.00938 838.832C10.1324 838.828 14.5556 836.914 20.7519 836.843C28.9892 836.75 33.9567 836.826 41.6372 839.805C49.0256 842.67 56.9307 846.065 58.4967 851.097C60.369 857.114 55.5289 863.304 50.0931 864.87C46.1206 866.015 42.7055 867.22 38.5233 867.288C35.9136 867.33 33.4967 866.159 31.0074 865.299C22.9739 862.524 17.6656 856.567 11.5877 850.961C9.15699 848.719 7.02368 846.099 4.40734 844.092Z" stroke="#619482" stroke-width="3" stroke-linecap="round" stroke-linejoin="round"/>
<path d="M54.1093 836.866C39.9064 829.948 34.7716 817.253 21.4587 812.654C30.0171 812.747 38.2832 812.552 47.0459 812.851C52.0859 813.023 56.4507 814.412 61.2887 816.084C67.1959 818.124 77.4466 822.03 76.2642 829.899C75.5106 834.914 73.2004 838.161 67.851 839.791C65.137 840.617 63.3584 840.317 60.5867 839.712C57.8875 839.122 56.5932 838.076 54.1093 836.866Z" stroke="#619482" stroke-width="3" stroke-linecap="round" stroke-linejoin="round"/>
<path d="M43.8891 791.361C51.5438 792.622 55.4394 797.119 63.1502 800.065C69.2874 802.41 73.3678 804.369 79.132 805.319C82.751 805.916 86.2283 805.94 89.0893 803.177C89.7397 802.549 90.1361 802.184 90.5496 801.38C91.1651 800.184 91.124 799.326 91.1101 797.98C91.0866 795.718 90.574 794.37 89.3692 792.455C86.1905 787.402 80.5528 789.261 74.664 788.284C69.5511 787.437 66.6007 787.173 61.4228 787.395C57.4999 787.564 55.2751 787.782 51.4482 788.661C48.2003 789.408 44.6765 789.398 43.3224 791.267" stroke="#619482" stroke-width="3" stroke-linecap="round" stroke-linejoin="round"/>
<path d="M77.5181 764.729C80.4357 766.187 82.9676 768.496 85.4968 770.521C87.1854 771.874 89.5533 772.5 91.1688 773.794C94.614 776.553 98.1514 777.873 102.405 778.991C108.92 780.703 116.362 776.737 116.645 769.373C116.788 765.657 111.673 762.424 108.62 761.622C105.447 760.788 101.1 758.744 97.8119 758.814C94.4047 758.886 90.8578 759.606 87.3243 760.181C84.1588 760.695 78.7753 761.809 76.9626 764.583" stroke="#619482" stroke-width="3" stroke-linecap="round" stroke-linejoin="round"/>
<path d="M119.852 747.822C122.715 749.384 125.161 751.784 127.615 753.9C129.254 755.313 131.597 756.025 133.165 757.376C136.507 760.259 139.995 761.706 144.205 762.978C150.654 764.926 158.235 761.233 158.785 753.883C159.062 750.175 154.068 746.759 151.047 745.846C147.906 744.897 143.636 742.697 140.347 742.647C136.94 742.596 133.369 743.187 129.817 743.632C126.635 744.032 121.215 744.949 119.302 747.656" stroke="#619482" stroke-width="3" stroke-linecap="round" stroke-linejoin="round"/>
<path d="M176.793 749.004C167.94 743.354 164.949 737.19 156.974 734.259C159.941 734.291 162.106 733.377 165.423 733.059C169.597 732.659 173.112 732.68 176.153 732.648C179.527 732.613 183.677 732.958 186.762 734.219C189.397 735.296 192.912 739.699 192.56 743.818C192.175 748.34 190.025 751.09 185.844 751.827C182.291 752.453 179.914 750.996 176.793 749.004Z" stroke="#619482" stroke-width="3" stroke-linecap="round" stroke-linejoin="round"/>
<g opacity="0.9">
<g opacity="0.9">
<path d="M1279.84 522.622C1280.15 528.86 1283.02 533.127 1286.38 537.972C1286.46 537.415 1286.61 536.837 1286.69 536.324C1286.05 534.132 1285.7 532.497 1285.66 530.335C1285.6 527.304 1285.59 524.026 1284 521.313C1282.53 518.818 1281.93 516.771 1280.29 514.401C1280.04 514.038 1279.62 512.96 1279.26 513.609C1278.97 514.135 1278.8 514.664 1278.71 515.257C1278.34 517.662 1279.72 520.189 1279.84 522.622Z" fill="#CB906D"/>
<path d="M1291.08 546.464C1289.98 544.88 1289.47 542.912 1288.92 541.001C1289.43 541.148 1290.19 541.244 1290.61 541.331C1291.48 541.514 1292.17 541.966 1292.98 542.302C1295.72 543.443 1298.19 545.463 1300.46 547.342C1302.61 549.118 1304.58 551.742 1305.28 554.474C1305.51 555.375 1305.88 556.274 1305.96 557.205C1305.97 557.323 1303.94 554.133 1303.87 556.054C1301.42 555.918 1300.65 555.764 1298.43 554.547C1294.77 552.54 1293.4 549.823 1291.08 546.464Z" fill="#CB906D"/>
<path d="M1270.43 557.246C1268.24 553.659 1267.14 550.224 1266.23 546.102C1267.14 545.971 1266.3 546.202 1267.25 546.355C1268.35 546.533 1269.3 546.358 1270.39 546.845C1271.51 547.345 1272.69 547.734 1273.71 548.419C1276.75 550.447 1278.61 553.541 1280.17 556.779C1281.54 559.593 1281.56 562.11 1281.73 565.09C1281.76 565.542 1281.92 569.871 1281.67 569.668C1281.3 569.363 1280.69 569.16 1280.25 568.892C1279.29 568.307 1278.91 567.617 1278.02 566.928C1276.46 565.725 1275.84 563.78 1274.73 562.178C1273.49 560.392 1271.56 559.094 1270.43 557.246Z" fill="#CB906D"/>
<path d="M1263.92 544.041L1263.99 544.138C1263.92 543.644 1263.97 543.79 1264.07 543.246C1264.27 542.155 1264.58 541.026 1264.61 539.916C1264.65 537.764 1264.68 535.607 1264.85 533.451C1265.1 530.311 1264.41 526.697 1263.56 523.692C1262.88 521.316 1263.02 520.35 1261.64 518.346C1261.22 517.737 1260.95 518.782 1260.74 519.154C1260.32 519.927 1259.77 520.62 1259.44 521.444C1258.49 523.766 1259.27 525.756 1259.1 528.198C1258.85 531.876 1259.7 534.939 1260.88 538.383C1261.75 540.906 1262.42 541.874 1263.92 544.041Z" fill="#CB906D"/>
<path d="M1230.38 569.174C1229.72 563.203 1230.56 556.75 1229.69 552.959C1231.2 554.092 1231.85 553.998 1232.94 555.567C1233.94 557.005 1234.21 559.076 1234.18 560.776C1234.13 563.264 1234.62 565.77 1234.47 568.269C1234.27 571.618 1234.01 575.089 1232.77 578.222C1232.33 579.329 1234.14 579.875 1233.63 580.943C1233.4 581.437 1233.23 580.906 1232.98 580.547C1231.91 579.006 1231.69 577.487 1231.05 575.738C1230.27 573.629 1230.62 571.422 1230.38 569.174Z" fill="#CB906D"/>
<path d="M1234.23 534.994C1233.28 538.752 1232.02 543.257 1233.48 547.019C1236.78 544.732 1240.31 542.44 1242.37 538.872C1244.11 535.864 1245.81 532.868 1246.79 529.516C1247.27 527.857 1247.32 525.863 1247.48 524.14C1247.51 523.748 1247.54 523.506 1247.56 523.363C1247.62 522.99 1247.62 523.287 1247.56 523.363C1247.51 523.429 1247.41 523.321 1247.25 522.414C1246.99 520.913 1246.27 518.943 1246.33 517.429C1246.33 517.399 1245.95 517.664 1245.88 517.713C1245.24 518.159 1244.56 518.576 1244.01 519.139C1241.43 521.794 1240.51 521.148 1239 524.547C1237.33 528.305 1235.25 530.991 1234.23 534.994Z" fill="#CB906D"/>
<path d="M1211.37 561.567C1211.95 559.397 1212.56 554.227 1214.31 552.772C1216.11 555.374 1217.04 557.693 1217.57 560.841C1218.1 564.072 1218.65 567.707 1217.86 570.933C1217.15 573.792 1216.41 577.202 1214.48 579.517C1213.38 580.839 1213.88 581.605 1212.38 582.514C1211.97 582.765 1210.73 578.099 1210.69 577.536C1210.42 573.449 1210.08 570.641 1210.1 566.528C1210.1 564.672 1210.9 563.327 1211.37 561.567Z" fill="#CB906D"/>
<path d="M1214.25 552.23C1214.54 553.354 1215.01 552.061 1215.67 553.007C1216.34 552.539 1213.63 551.241 1214.18 550.648C1215.64 549.073 1216.51 546.701 1217.62 544.865C1218.73 543.031 1219.47 540.86 1220.17 538.843C1220.95 536.639 1221.78 534.293 1222.2 531.993C1222.66 529.431 1223.09 526.84 1223.2 524.233C1223.85 523.58 1224.57 523 1225.31 522.533C1225.49 522.42 1223.22 523.568 1223.21 523.989C1223.2 524.07 1223.2 524.152 1223.2 524.233C1222.23 525.198 1221.4 526.321 1220.82 527.473C1219.2 530.748 1217.09 533.042 1215.57 536.38C1214.83 538.018 1214.52 540.068 1214.07 541.816C1214.07 543.403 1213.9 545.036 1213.75 546.429C1213.6 547.767 1213.91 550.918 1214.25 552.23Z" fill="#CB906D"/>
<path d="M1193.51 557.806C1194.09 555.685 1194.47 555.385 1193.56 554.263L1195.13 553.173C1197.57 556.696 1197.74 560.923 1197.4 565.097C1197.02 569.827 1195.94 575.893 1190.95 577.847C1189.99 578.223 1189.96 578.123 1190.27 576.435C1190.51 575.079 1190.7 574.276 1190.78 572.88C1190.95 569.702 1191.03 566.814 1191.41 563.653C1191.65 561.703 1193.01 559.678 1193.51 557.806Z" fill="#CB906D"/>
<path d="M1197.44 530.491C1194.87 537.057 1191.27 544.424 1193.85 550.676C1194.69 549.545 1195.36 548.38 1196.19 547.239C1197.6 545.318 1198.04 543.054 1199.21 541.008C1200.76 538.284 1201.18 534.871 1202.11 531.908C1203.12 528.714 1202.78 525.644 1202.52 522.354C1202.41 520.989 1204.31 521.388 1203.47 520.168C1203.19 519.772 1201.76 521.27 1201.68 521.401C1199.83 524.483 1198.75 527.144 1197.44 530.491Z" fill="#CB906D"/>
<path d="M1173.42 565.574C1175.26 561.288 1175.47 557.124 1177.96 552.769L1181.35 553.041C1181.5 554.114 1181.34 555.569 1181.2 556.704C1181.03 558.052 1181.44 559.665 1181.07 560.965C1180.75 562.137 1180.5 563.369 1180.29 564.57C1179.67 567.962 1179.45 571.774 1177.17 574.559C1175.55 576.533 1172.23 578.383 1169.75 578.776C1168.89 578.913 1169.37 578.823 1168.59 578.805C1168.02 578.792 1168.84 578.406 1169.03 578.273C1170.05 577.571 1170.86 577.27 1171 576.035C1171.18 574.454 1171.51 572.553 1171.91 571.01C1172.43 569.019 1172.61 567.455 1173.42 565.574Z" fill="#CB906D"/>
<path d="M1174.56 539.31C1175.71 542.982 1176.96 546.453 1179.14 549.599C1178.73 546.757 1181.02 543.643 1181.01 540.713C1181 536.942 1180.63 533.256 1179.94 529.572C1179.48 527.07 1178.05 525.312 1176.61 523.239C1176.6 523.218 1176.58 523.197 1176.57 523.179C1176.6 523.128 1176.63 523.084 1176.65 523.045C1177 523.253 1177.75 523.877 1177.32 523.265C1176.99 522.792 1176.87 522.726 1176.65 523.045C1176.49 522.949 1176.42 522.94 1176.57 523.179C1176.54 523.223 1176.52 523.271 1176.49 523.324C1175.44 525.229 1174.35 526.173 1173.96 528.303C1173.6 530.296 1173.89 532.505 1173.87 534.515C1173.85 536.603 1173.93 537.333 1174.56 539.31Z" fill="#CB906D"/>
<path d="M1153.41 555.711C1155.07 553.985 1156.72 551.826 1158.68 550.471L1162.21 550.94C1162.24 552.444 1161.86 553.905 1161.79 555.376C1161.74 556.358 1161.11 557.163 1161.03 558.164C1160.95 559.066 1160.54 560.343 1160.21 561.19C1158.22 566.35 1154.7 570.975 1149.53 573.343C1146.96 574.522 1147.24 573.318 1144.51 573.298C1143.03 573.287 1145.09 569.089 1145.42 568.273C1146.72 565.071 1148.16 562.896 1150.49 560.37C1151.79 558.956 1152.07 557.101 1153.41 555.711Z" fill="#CB906D"/>
<path d="M1153.59 543.288C1157.25 546.156 1159.23 544.347 1162.68 547.534C1163.4 543.6 1165.04 544.529 1164.46 540.503C1164.13 538.179 1161.98 534.923 1160.23 533.367C1159 532.274 1157.59 531.268 1156.14 530.501C1154.93 529.859 1153.18 528.856 1151.79 528.744C1150.41 528.634 1149.07 528.603 1147.69 528.507C1145.94 528.386 1144.07 528.894 1142.37 528.649C1139.82 528.284 1143.97 531.926 1144.59 532.829C1147.28 536.715 1149.87 540.37 1153.59 543.288Z" fill="#CB906D"/>
<path d="M1138.41 545.985C1136.21 547.507 1133.68 550.48 1131.71 552.289C1129.93 553.931 1130.08 555.99 1128.61 557.953C1127.24 559.779 1125.92 560.922 1125.09 563.024C1124.98 563.315 1124.84 563.539 1124.7 563.71C1124.52 563.766 1124.33 563.818 1124.15 563.866C1123.21 564.117 1124.01 564.528 1124.7 563.71C1129.3 562.305 1133.69 558.668 1135.68 554.344C1136.89 551.713 1138.84 549.041 1138.41 545.985Z" fill="#CB906D"/>
<path d="M1133.06 539.861C1135.08 540.864 1137.19 541.977 1139.08 543.238C1138.55 539.91 1137.23 536.494 1135.95 533.3C1135.35 531.82 1134.11 530.456 1133.2 529.149C1132.43 528.041 1131.73 526.649 1130.63 525.851C1128.54 524.349 1125.97 523.771 1123.58 522.783C1122.03 522.141 1123.62 523.31 1121.98 523.012C1121.5 522.924 1120.43 522.279 1120.87 523.164C1121.25 523.916 1121.14 524.794 1121.66 525.534L1123.78 528.597C1126.42 532.421 1126.23 533.949 1129.33 537.432C1130.44 538.685 1131.62 539.145 1133.06 539.861Z" fill="#CB906D"/>
<path d="M1126.94 546.221C1129.39 545.258 1129.41 546.151 1131.37 544.889C1130.91 544.724 1130.23 544.59 1129.83 544.505C1129.05 544.34 1128.34 543.891 1127.56 543.748C1125.25 543.329 1123.04 542.36 1120.8 541.565C1117.57 540.418 1114.67 539.598 1111.25 539.228C1108.63 538.945 1107.38 538.229 1104.8 538.84C1104.43 538.926 1102.6 538.974 1102.43 539.184C1102.19 539.486 1103.82 541.419 1104.02 541.71C1104.39 542.24 1106.96 543.52 1109.13 545.089C1111.94 546.733 1116.42 548.612 1119.83 547.952C1122.22 547.489 1124.65 547.114 1126.94 546.221Z" fill="#CB906D"/>
<path d="M1134.87 545.439C1141.62 547.373 1148.81 546.702 1155.39 548.614C1157.12 549.116 1159.06 548.875 1160.84 549.111C1162.79 549.37 1164.74 550.127 1166.7 550.156C1170.57 550.212 1174.41 551.359 1178.25 551.701C1185.36 552.336 1192.48 553.716 1199.6 553.925C1203.75 554.047 1207.96 553.833 1212.12 553.795C1216.16 553.759 1220.07 554.409 1224.1 554.039C1239.07 552.67 1253.9 548.708 1268.18 544.13C1277.99 540.985 1289.51 539.833 1298.05 533.924C1298.05 533.924 1316.04 523.932 1328.37 519.435C1357.68 508.746 1377.83 518.952 1407.67 509.881C1421.93 505.548 1443.14 495.783 1443.14 495.783" stroke="#C4631F" stroke-width="3" stroke-linecap="round" stroke-linejoin="round"/>
<path d="M1134.24 545.459C1131.96 547.038 1129.87 548.249 1127.28 549.262C1125 550.156 1122.57 550.53 1120.18 550.993C1116.76 551.653 1111.81 549.394 1109.1 547.432C1106.93 545.863 1105.41 544.624 1103.9 542.443C1103.7 542.152 1102.06 540.218 1102.31 539.917C1102.48 539.707 1104.31 539.659 1104.68 539.573C1107.25 538.962 1110.46 539.211 1113.09 539.494C1116.51 539.864 1120.12 541.206 1123.35 542.353C1125.59 543.148 1127.8 544.117 1130.11 544.536C1130.9 544.68 1131.6 545.128 1132.38 545.293C1132.87 545.398 1133.78 545.575 1134.18 545.793" stroke="#C4631F" stroke-width="3" stroke-linecap="round" stroke-linejoin="round"/>
<path d="M1139.57 546.428C1137.37 547.95 1135.1 549.375 1133.12 551.184C1131.34 552.826 1130.25 555.583 1128.78 557.546C1127.41 559.371 1126.19 561.438 1125.35 563.541C1124.69 565.223 1125.9 564.582 1127.05 564.278C1131.84 563.002 1136.51 559.251 1138.58 554.756C1139.79 552.126 1141.74 549.454 1141.3 546.397" stroke="#C4631F" stroke-width="3" stroke-linecap="round" stroke-linejoin="round"/>
<path d="M1142.62 545.776C1140.54 544.308 1138.15 543.035 1135.87 541.902C1134.43 541.186 1133.25 540.727 1132.14 539.474C1129.04 535.991 1126.3 532.31 1123.65 528.486C1122.95 527.466 1122.24 526.445 1121.53 525.424C1121.02 524.684 1121.12 523.806 1120.75 523.054C1120.31 522.169 1121.37 522.814 1121.86 522.901C1123.5 523.2 1125.16 523.41 1126.71 524.052C1129.1 525.04 1131.35 526.39 1133.44 527.893C1134.54 528.69 1135.24 530.082 1136.01 531.19C1136.92 532.498 1138.16 533.862 1138.76 535.341C1140.08 538.656 1141.46 542.209 1141.95 545.655" stroke="#C4631F" stroke-width="3" stroke-linecap="round" stroke-linejoin="round"/>
<path d="M1161.88 549.62C1159.93 550.975 1157.45 552.238 1155.8 553.964C1154.46 555.354 1153.27 556.884 1151.97 558.298C1149.64 560.823 1147.48 563.701 1146.18 566.903C1145.85 567.719 1143.64 573.45 1145.12 573.461C1147.86 573.482 1150.16 573.671 1152.74 572.492C1157.9 570.124 1161.42 565.5 1163.42 560.339C1163.74 559.492 1164.16 558.215 1164.23 557.314C1164.32 556.313 1164.94 555.508 1164.99 554.525C1165.06 553.054 1165.44 551.594 1165.41 550.089" stroke="#C4631F" stroke-width="3" stroke-linecap="round" stroke-linejoin="round"/>
<path d="M1180.33 552.283C1176.43 555.205 1175.43 560.549 1173.58 564.835C1172.77 566.715 1172.45 569.055 1171.93 571.046C1171.53 572.588 1171.42 574.167 1171.24 575.748C1171.1 576.984 1170.52 578.011 1169.5 578.713C1169.31 578.845 1168.49 579.231 1169.06 579.245C1169.84 579.263 1171.26 578.427 1172.12 578.29C1174.61 577.897 1177.93 576.047 1179.55 574.073C1181.83 571.288 1182.04 567.476 1182.66 564.084C1182.88 562.883 1183.12 561.651 1183.45 560.479C1183.81 559.179 1183.4 557.566 1183.57 556.218C1183.72 555.083 1183.88 553.628 1183.72 552.555" stroke="#C4631F" stroke-width="3" stroke-linecap="round" stroke-linejoin="round"/>
<path d="M1164.06 548.984C1160.61 545.797 1156.29 544.268 1152.63 541.399C1148.91 538.482 1145.51 534.392 1142.82 530.505C1142.19 529.602 1139.29 525.209 1141.83 525.574C1143.53 525.819 1145.4 525.311 1147.15 525.432C1148.54 525.528 1149.87 525.559 1151.25 525.67C1152.64 525.781 1154.39 526.784 1155.61 527.427C1157.06 528.193 1158.47 529.199 1159.69 530.292C1161.44 531.848 1163.59 535.104 1163.92 537.428C1164.5 541.454 1163.97 544.731 1163.26 548.666" stroke="#C4631F" stroke-width="3" stroke-linecap="round" stroke-linejoin="round"/>
<path d="M1181.65 551.662C1179.47 548.515 1176.85 545.474 1175.69 541.803C1175.07 539.825 1174.36 537.878 1174.38 535.789C1174.39 533.78 1173.92 531.665 1174.28 529.672C1174.67 527.542 1175.01 524.88 1176.05 522.976C1176.39 522.369 1176.48 522.335 1176.89 522.917C1177.52 523.832 1178.49 524.396 1179.12 525.302C1180.56 527.374 1181.99 529.132 1182.45 531.634C1183.14 535.318 1183.51 539.004 1183.52 542.775C1183.53 545.706 1181.63 548.546 1182.04 551.389" stroke="#C4631F" stroke-width="3" stroke-linecap="round" stroke-linejoin="round"/>
<path d="M1195.78 554.401C1193.94 555.72 1193.79 556.672 1193.22 558.793C1192.71 560.665 1192.06 562.326 1191.82 564.276C1191.44 567.437 1190.69 570.535 1190.51 573.713C1190.43 575.109 1190.78 576.357 1190.53 577.713C1190.22 579.401 1192.21 578.361 1193.18 577.984C1198.17 576.031 1199.24 569.964 1199.62 565.234C1199.96 561.06 1199.79 556.833 1197.35 553.31" stroke="#C4631F" stroke-width="3" stroke-linecap="round" stroke-linejoin="round"/>
<path d="M1195.88 552.871C1191.42 546.426 1194.92 537.355 1197.49 530.789C1198.8 527.442 1200.36 524.328 1202.22 521.247C1202.3 521.116 1203.45 519.26 1203.72 519.656C1204.57 520.876 1204.45 523.185 1204.56 524.549C1204.82 527.839 1205.15 530.909 1204.15 534.103C1203.22 537.067 1202.8 540.48 1201.24 543.203C1200.08 545.249 1199.63 547.513 1198.23 549.434C1197.39 550.576 1196.87 551.938 1196.02 553.068" stroke="#C4631F" stroke-width="3" stroke-linecap="round" stroke-linejoin="round"/>
<path d="M1215.03 553.595C1213.28 555.05 1212.64 558.286 1212.06 560.456C1211.59 562.216 1210.93 563.901 1210.92 565.757C1210.91 569.87 1211.02 573.879 1211.29 577.966C1211.32 578.529 1212.68 583.44 1213.09 583.189C1214.59 582.28 1215.55 581.238 1216.65 579.916C1218.58 577.6 1219.33 574.19 1220.03 571.331C1220.82 568.105 1220.27 564.471 1219.74 561.239C1219.22 558.092 1218.28 555.772 1216.48 553.171" stroke="#C4631F" stroke-width="3" stroke-linecap="round" stroke-linejoin="round"/>
<path d="M1216.29 552.785C1215.64 551.84 1214.41 550.621 1214.12 549.498C1213.79 548.186 1213.75 546.454 1213.9 545.117C1214.06 543.724 1214.5 542.408 1214.84 541.06C1215.3 539.311 1215.76 537.323 1216.5 535.685C1218.02 532.347 1219.9 529.197 1221.53 525.922C1222.49 523.991 1224.08 522.097 1225.91 520.939C1226.09 520.827 1226.01 524.763 1226 525.184C1225.91 527.873 1225.47 530.546 1224.99 533.188C1224.57 535.488 1223.74 537.834 1222.96 540.038C1222.26 542.056 1221.52 544.227 1220.41 546.06C1219.29 547.896 1218.43 550.268 1216.97 551.843C1216.42 552.436 1216.21 553.325 1215.54 553.793" stroke="#C4631F" stroke-width="3" stroke-linecap="round" stroke-linejoin="round"/>
<path d="M1231.6 553.564C1230.29 559.409 1229.64 565.638 1230.3 571.609C1230.54 573.857 1231.19 575.766 1231.97 577.875C1232.62 579.624 1233.1 581.607 1234.17 583.148C1234.42 583.507 1234.59 584.038 1234.82 583.544C1235.33 582.476 1235.7 581.32 1236.13 580.213C1237.38 577.08 1237.63 573.609 1237.84 570.261C1237.99 567.762 1237.5 565.255 1237.55 562.767C1237.58 561.068 1237.3 558.996 1236.31 557.558C1235.22 555.989 1234.15 553.74 1232.64 552.606" stroke="#C4631F" stroke-width="3" stroke-linecap="round" stroke-linejoin="round"/>
<path d="M1232.84 551.498C1231.37 547.736 1232.86 543.559 1233.82 539.8C1234.83 535.798 1235.92 531.866 1237.59 528.108C1239.1 524.71 1241.27 521.466 1243.86 518.811C1244.41 518.248 1245.08 517.831 1245.73 517.385C1245.8 517.336 1246.18 517.071 1246.18 517.101C1246.12 518.616 1246.84 520.585 1247.1 522.086C1247.51 524.408 1247.27 526.63 1247.06 528.947C1246.9 530.669 1246.86 532.663 1246.37 534.322C1245.39 537.674 1243.69 540.671 1241.95 543.679C1239.89 547.247 1236.37 549.539 1233.06 551.826" stroke="#C4631F" stroke-width="3" stroke-linecap="round" stroke-linejoin="round"/>
<path d="M1264.69 544.694C1263.15 542.459 1261.82 540.595 1260.94 538.035C1259.76 534.59 1258.93 530.646 1259.19 526.968C1259.35 524.526 1259.45 522.261 1260.4 519.939C1260.74 519.115 1261.28 518.422 1261.71 517.649C1261.91 517.277 1262.18 516.232 1262.6 516.841C1263.99 518.845 1265.44 520.748 1266.12 523.124C1266.97 526.129 1267.66 529.743 1267.41 532.882C1267.24 535.039 1267.21 537.196 1267.17 539.348C1267.15 540.458 1266.83 541.587 1266.63 542.678C1266.54 543.222 1266.06 544.175 1266.13 544.669" stroke="#C4631F" stroke-width="3" stroke-linecap="round" stroke-linejoin="round"/>
<path d="M1266.19 545.109C1267.1 549.232 1268.9 553.509 1271.09 557.096C1272.22 558.944 1273.38 560.736 1274.62 562.522C1275.73 564.124 1276.85 565.935 1278.41 567.137C1279.3 567.826 1280.07 568.755 1281.04 569.34C1281.48 569.608 1281.95 569.825 1282.32 570.13C1282.57 570.333 1283.53 564.811 1283.51 564.359C1283.34 561.379 1283.31 558.862 1281.95 556.048C1280.38 552.81 1278.52 549.716 1275.49 547.688C1274.46 547.003 1273.28 546.614 1272.16 546.114C1271.07 545.627 1270.13 545.802 1269.02 545.624C1268.08 545.471 1266.99 544.815 1266.08 544.946" stroke="#C4631F" stroke-width="3" stroke-linecap="round" stroke-linejoin="round"/>
<path d="M1287.5 538.105C1283.9 532.906 1279.43 527.863 1279.11 521.271C1278.99 518.837 1279.08 516.297 1279.45 513.892C1279.54 513.299 1279.71 512.77 1280 512.244C1280.36 511.595 1280.78 512.673 1281.03 513.035C1282.67 515.406 1284.81 517.44 1286.28 519.935C1287.88 522.647 1287.89 525.926 1287.94 528.957C1287.98 531.119 1287.56 533.484 1287.23 535.624C1287.1 536.46 1286.78 537.469 1286.89 538.281" stroke="#C4631F" stroke-width="3" stroke-linecap="round" stroke-linejoin="round"/>
<path d="M1287.99 537.765C1289.16 540.402 1289.72 543.41 1291.39 545.823C1293.71 549.183 1295.97 552.15 1299.64 554.158C1301.86 555.374 1303.51 556.052 1305.95 556.188C1306.17 556.2 1307.53 555.947 1307.52 555.828C1307.44 554.898 1307.07 553.999 1306.84 553.098C1306.14 550.366 1304.17 547.741 1302.02 545.966C1299.75 544.087 1297.28 542.067 1294.54 540.926C1293.73 540.59 1293.04 540.138 1292.17 539.955C1291.65 539.847 1290.61 539.726 1290.17 539.512C1289.32 539.107 1288.28 539.248 1287.51 538.823" stroke="#C4631F" stroke-width="3" stroke-linecap="round" stroke-linejoin="round"/>
</g>
<g opacity="0.9">
<path d="M1390.6 455.726C1396.06 458.768 1401.2 458.59 1407.09 458.308C1406.66 457.945 1406.25 457.509 1405.86 457.17C1403.66 456.552 1402.08 455.987 1400.23 454.874C1397.63 453.314 1394.84 451.587 1391.7 451.503C1388.8 451.427 1386.75 450.848 1383.87 450.985C1383.43 451.006 1382.29 450.796 1382.65 451.441C1382.95 451.965 1383.3 452.393 1383.76 452.784C1385.6 454.372 1388.48 454.539 1390.6 455.726Z" fill="#CB906D"/>
<path d="M1416.78 458.82C1414.86 458.912 1412.92 458.301 1411 457.757C1411.4 457.401 1411.88 456.807 1412.18 456.499C1412.79 455.858 1413.54 455.513 1414.26 455.005C1416.68 453.279 1419.7 452.257 1422.5 451.324C1425.14 450.444 1428.41 450.164 1431.1 451.015C1431.99 451.296 1432.94 451.46 1433.77 451.885C1433.88 451.939 1430.1 451.975 1431.69 453.051C1430.28 455.053 1429.74 455.625 1427.53 456.863C1423.89 458.906 1420.86 458.626 1416.78 458.82Z" fill="#CB906D"/>
<path d="M1414.99 482.042C1410.79 482.002 1407.29 481.119 1403.31 479.705C1403.69 478.859 1403.44 479.694 1404.07 478.972C1404.8 478.131 1405.16 477.235 1406.15 476.57C1407.16 475.888 1408.12 475.092 1409.24 474.585C1412.57 473.082 1416.18 473.146 1419.76 473.531C1422.86 473.867 1425.01 475.178 1427.63 476.612C1428.03 476.829 1431.78 478.987 1431.48 479.089C1431.02 479.244 1430.53 479.648 1430.07 479.879C1429.07 480.385 1428.28 480.345 1427.22 480.738C1425.38 481.423 1423.4 480.92 1421.45 481.012C1419.28 481.115 1417.16 482.063 1414.99 482.042Z" fill="#CB906D"/>
<path d="M1400.34 480.57L1400.46 480.564C1400 480.362 1400.16 480.393 1399.75 480.021C1398.93 479.275 1398.14 478.411 1397.21 477.805C1395.4 476.629 1393.59 475.462 1391.85 474.173C1389.32 472.296 1385.89 470.967 1382.89 470.103C1380.51 469.42 1379.77 468.783 1377.34 468.899C1376.6 468.934 1377.34 469.715 1377.55 470.085C1377.98 470.854 1378.28 471.683 1378.8 472.406C1380.27 474.442 1382.37 474.832 1384.35 476.269C1387.34 478.432 1390.38 479.332 1393.93 480.151C1396.53 480.751 1397.71 480.695 1400.34 480.57Z" fill="#CB906D"/>
<path d="M1403.89 522.336C1398.48 519.729 1393.45 515.602 1389.77 514.33C1391.54 513.648 1391.8 513.045 1393.71 512.955C1395.46 512.872 1397.36 513.734 1398.78 514.663C1400.87 516.022 1403.26 516.93 1405.29 518.384C1408.03 520.331 1410.83 522.389 1412.83 525.101C1413.54 526.059 1414.96 524.809 1415.6 525.807C1415.89 526.269 1415.36 526.129 1414.92 526.15C1413.05 526.239 1411.64 525.623 1409.81 525.245C1407.61 524.789 1405.93 523.317 1403.89 522.336Z" fill="#CB906D"/>
<path d="M1376.94 500.959C1379.63 503.759 1382.78 507.216 1386.74 507.968C1386.55 503.955 1386.48 499.75 1384.54 496.113C1382.91 493.047 1381.27 490.014 1378.95 487.41C1377.8 486.12 1376.13 485.022 1374.75 483.977C1374.44 483.739 1374.25 483.586 1374.14 483.492C1373.85 483.248 1374.11 483.403 1374.14 483.492C1374.17 483.572 1374.02 483.601 1373.17 483.255C1371.76 482.683 1369.71 482.248 1368.45 481.397C1368.43 481.38 1368.45 481.843 1368.45 481.929C1368.49 482.71 1368.49 483.502 1368.68 484.266C1369.56 487.868 1368.53 488.3 1370.61 491.382C1372.91 494.789 1374.09 497.977 1376.94 500.959Z" fill="#CB906D"/>
<path d="M1376.99 524.138C1378.1 524.488 1379.81 524.054 1380.96 524C1380.78 523.662 1380.59 523.327 1380.49 522.964C1379.92 520.894 1378.37 518.903 1377.4 516.988C1376.44 515.073 1374.98 513.299 1373.65 511.629L1373.57 511.531C1372.13 509.735 1370.61 507.829 1368.91 506.285C1366.92 504.478 1364.89 502.688 1362.66 501.189C1362.31 500.955 1359.01 498.805 1359.01 499.015C1359.02 501.182 1359.79 503.532 1360.92 505.369C1362.83 508.483 1364.51 511.746 1366.54 514.802C1367.53 516.301 1368.97 517.746 1370.21 519.057C1371.17 520.068 1372.06 521.138 1373.16 522.006C1374.21 522.84 1375.7 523.73 1376.99 524.138Z" fill="#F9F6EF"/>
<path d="M1387.37 534.428C1385.84 532.79 1381.78 529.529 1381.47 527.277C1384.63 527.127 1387.09 527.563 1390.04 528.787C1393.06 530.044 1396.44 531.506 1398.75 533.887C1400.81 535.997 1403.3 538.437 1404.25 541.298C1404.78 542.931 1405.7 542.917 1405.68 544.665C1405.67 545.147 1401.06 543.729 1400.56 543.462C1396.95 541.524 1394.39 540.328 1390.91 538.136C1389.34 537.147 1388.62 535.756 1387.37 534.428Z" fill="#CB906D"/>
<path d="M1380.98 527.04C1382.09 527.39 1381.24 526.304 1382.39 526.25C1382.35 525.43 1379.81 527.038 1379.6 526.259C1379.04 524.189 1377.48 522.198 1376.52 520.282C1375.55 518.368 1374.1 516.594 1372.76 514.924C1371.3 513.1 1369.75 511.152 1368.02 509.579C1366.1 507.828 1364.13 506.092 1361.97 504.621C1361.76 503.72 1361.65 502.804 1361.65 501.93C1361.65 501.72 1361.42 504.249 1361.77 504.484C1361.84 504.529 1361.9 504.575 1361.97 504.621C1362.28 505.953 1362.79 507.255 1363.46 508.351C1365.38 511.465 1366.21 514.467 1368.24 517.523C1369.23 519.022 1370.81 520.37 1372.05 521.68C1373.39 522.52 1374.69 523.526 1375.79 524.394C1376.85 525.228 1379.69 526.631 1380.98 527.04Z" fill="#CB906D"/>
<path d="M1374.73 547.581C1373.23 545.971 1373.18 545.486 1371.74 545.67L1371.65 543.756C1375.93 543.553 1379.61 545.652 1382.97 548.146C1386.78 550.973 1391.35 555.101 1390.37 560.367C1390.18 561.384 1390.08 561.356 1388.81 560.202C1387.79 559.274 1387.2 558.693 1386.06 557.888C1383.46 556.055 1381.05 554.46 1378.57 552.46C1377.04 551.226 1376.04 549.002 1374.73 547.581Z" fill="#CB906D"/>
<path d="M1353.63 529.785C1357.84 535.442 1362.19 542.393 1368.85 543.522C1368.34 542.205 1367.71 541.026 1367.18 539.713C1366.3 537.503 1364.61 535.93 1363.49 533.855C1362.01 531.092 1359.33 528.929 1357.31 526.57C1355.13 524.028 1352.35 522.685 1349.42 521.165C1348.21 520.534 1349.55 519.134 1348.07 519.204C1347.59 519.227 1348.1 521.232 1348.17 521.369C1349.8 524.575 1351.49 526.901 1353.63 529.785Z" fill="#CB906D"/>
<path d="M1370.67 568.742C1368.01 564.907 1364.59 562.524 1362.21 558.111L1364.24 555.377C1365.23 555.816 1366.38 556.722 1367.27 557.444C1368.32 558.302 1369.91 558.808 1370.82 559.806C1371.64 560.706 1372.55 561.563 1373.46 562.384C1376.01 564.704 1379.13 566.905 1380.28 570.318C1381.1 572.736 1380.91 576.533 1379.93 578.845C1379.58 579.65 1379.76 579.191 1379.34 579.841C1379.02 580.319 1379.13 579.418 1379.12 579.186C1379.06 577.955 1379.23 577.108 1378.26 576.334C1377.02 575.345 1375.58 574.055 1374.48 572.899C1373.07 571.407 1371.84 570.424 1370.67 568.742Z" fill="#CB906D"/>
<path d="M1349 553.865C1352.72 554.827 1356.33 555.611 1360.15 555.429C1357.52 554.268 1356.09 550.678 1353.6 549.134C1350.4 547.148 1347.07 545.509 1343.59 544.136C1341.22 543.203 1338.97 543.49 1336.45 543.609C1336.43 543.611 1336.4 543.611 1336.38 543.612C1336.35 543.56 1336.33 543.513 1336.31 543.47C1336.67 543.284 1337.59 542.985 1336.85 543.02C1336.28 543.048 1336.15 543.119 1336.31 543.47C1336.14 543.556 1336.09 543.617 1336.38 543.612C1336.4 543.657 1336.43 543.706 1336.46 543.758C1337.52 545.653 1337.74 547.084 1339.34 548.54C1340.84 549.903 1342.87 550.829 1344.56 551.907C1346.33 553.028 1346.99 553.348 1349 553.865Z" fill="#CB906D"/>
<path d="M1351.71 580.488C1351.12 578.167 1350.17 575.62 1350.05 573.243L1352.32 570.498C1353.61 571.272 1354.65 572.365 1355.86 573.207C1356.67 573.769 1357.02 574.723 1357.82 575.324C1358.55 575.866 1359.41 576.894 1359.96 577.62C1363.28 582.046 1365.34 587.478 1364.61 593.115C1364.25 595.921 1363.38 595.045 1361.91 597.356C1361.12 598.603 1358.65 594.634 1358.13 593.92C1356.1 591.122 1355.02 588.745 1354.11 585.435C1353.6 583.581 1352.18 582.357 1351.71 580.488Z" fill="#CB906D"/>
<path d="M1341.26 573.754C1345.64 572.17 1345.15 569.536 1349.68 568.293C1346.72 565.603 1348.38 564.704 1344.66 563.06C1342.51 562.111 1338.61 562.212 1336.37 562.868C1334.79 563.329 1333.19 563.993 1331.77 564.818C1330.58 565.508 1328.8 566.46 1327.97 567.582C1327.15 568.692 1326.41 569.809 1325.6 570.931C1324.57 572.354 1324.01 574.207 1322.9 575.521C1321.25 577.485 1326.53 575.901 1327.63 575.848C1332.35 575.624 1336.82 575.365 1341.26 573.754Z" fill="#CB906D"/>
<path d="M1335.51 588.064C1335.64 590.734 1336.82 594.449 1337.31 597.079C1337.76 599.465 1339.59 600.424 1340.47 602.713C1341.29 604.84 1341.57 606.561 1342.91 608.381C1343.1 608.633 1343.21 608.868 1343.28 609.08C1343.23 609.263 1343.18 609.444 1343.13 609.624C1342.84 610.558 1343.61 610.093 1343.28 609.08C1344.53 604.434 1343.77 598.78 1341.16 594.801C1339.57 592.381 1338.33 589.312 1335.51 588.064Z" fill="#CB906D"/>
<path d="M1327.49 589.351C1329.41 588.169 1331.47 586.972 1333.54 586.033C1330.43 584.724 1326.84 584.036 1323.45 583.429C1321.88 583.148 1320.06 583.484 1318.47 583.559C1317.13 583.623 1315.57 583.481 1314.31 583.997C1311.93 584.968 1310.08 586.847 1307.98 588.351C1306.61 589.327 1308.45 588.592 1307.32 589.828C1306.99 590.19 1305.88 590.755 1306.87 590.848C1307.7 590.928 1308.39 591.482 1309.29 591.439L1313.01 591.262C1317.66 591.041 1318.85 592.014 1323.45 591.234C1325.1 590.954 1326.11 590.194 1327.49 589.351Z" fill="#CB906D"/>
<path d="M1329.63 597.917C1330.12 595.323 1330.89 595.777 1330.85 593.454C1330.47 593.751 1330 594.257 1329.71 594.555C1329.16 595.13 1328.4 595.488 1327.86 596.082C1326.29 597.815 1324.3 599.176 1322.43 600.655C1319.75 602.788 1317.52 604.814 1315.39 607.52C1313.77 609.593 1312.5 610.275 1311.65 612.783C1311.53 613.14 1310.6 614.716 1310.69 614.973C1310.81 615.343 1313.32 614.982 1313.67 614.965C1314.31 614.934 1316.76 613.429 1319.24 612.423C1322.12 610.909 1326.09 608.101 1327.34 604.858C1328.21 602.586 1329.18 600.327 1329.63 597.917Z" fill="#CB906D"/>
<path d="M1333.18 590.769C1338.39 586.075 1341.63 579.619 1346.73 575.05C1348.08 573.851 1348.9 572.074 1350.04 570.692C1351.3 569.172 1352.97 567.923 1354.03 566.274C1356.13 563.024 1359.14 560.374 1361.46 557.299C1365.77 551.603 1370.71 546.293 1374.66 540.362C1376.96 536.906 1379.01 533.226 1381.18 529.673C1383.29 526.231 1385.91 523.261 1387.73 519.641C1394.5 506.22 1398.99 491.542 1402.67 477.003C1405.2 467.018 1410.33 456.634 1409.84 446.266C1409.84 446.266 1410.89 425.712 1413.61 412.873C1420.06 382.354 1439.39 370.666 1447.51 340.546C1451.39 326.156 1454.33 303 1454.33 303" stroke="#C4631F" stroke-width="3" stroke-linecap="round" stroke-linejoin="round"/>
<path d="M1332.86 591.317C1332.99 594.087 1332.91 596.506 1332.39 599.237C1331.94 601.647 1330.97 603.906 1330.1 606.179C1328.85 609.422 1324.31 612.428 1321.21 613.687C1318.74 614.693 1316.88 615.331 1314.23 615.457C1313.87 615.474 1311.37 615.835 1311.24 615.466C1311.16 615.208 1312.08 613.632 1312.2 613.276C1313.05 610.767 1314.96 608.175 1316.59 606.101C1318.72 603.396 1321.77 601.041 1324.45 598.909C1326.32 597.429 1328.31 596.069 1329.88 594.335C1330.42 593.742 1331.18 593.384 1331.73 592.809C1332.08 592.444 1332.71 591.766 1333.11 591.545" stroke="#C4631F" stroke-width="3" stroke-linecap="round" stroke-linejoin="round"/>
<path d="M1336.5 587.308C1336.63 589.979 1336.63 592.667 1337.12 595.297C1337.57 597.683 1339.33 600.067 1340.21 602.355C1341.04 604.483 1342.14 606.613 1343.49 608.433C1344.56 609.889 1344.66 608.517 1345.01 607.388C1346.47 602.646 1345.76 596.701 1343.04 592.565C1341.45 590.145 1340.22 587.076 1337.39 585.828" stroke="#C4631F" stroke-width="3" stroke-linecap="round" stroke-linejoin="round"/>
<path d="M1337.56 584.381C1335.22 585.361 1332.87 586.715 1330.7 588.05C1329.33 588.893 1328.32 589.653 1326.67 589.933C1322.07 590.713 1317.5 591.088 1312.85 591.309C1311.61 591.368 1310.37 591.427 1309.13 591.486C1308.23 591.528 1307.54 590.974 1306.71 590.895C1305.72 590.802 1306.83 590.237 1307.16 589.874C1308.29 588.639 1309.35 587.339 1310.71 586.363C1312.82 584.859 1315.15 583.667 1317.53 582.696C1318.79 582.18 1320.35 582.322 1321.69 582.258C1323.28 582.183 1325.1 581.847 1326.67 582.128C1330.18 582.758 1333.92 583.475 1337.11 584.882" stroke="#C4631F" stroke-width="3" stroke-linecap="round" stroke-linejoin="round"/>
<path d="M1351.03 570.076C1351.14 572.453 1350.9 575.218 1351.49 577.539C1351.96 579.408 1352.63 581.227 1353.14 583.081C1354.05 586.392 1355.34 589.751 1357.37 592.55C1357.89 593.263 1361.58 598.167 1362.37 596.92C1363.84 594.609 1365.22 592.754 1365.58 589.948C1366.31 584.312 1364.25 578.879 1360.93 574.453C1360.39 573.727 1359.52 572.699 1358.8 572.157C1357.99 571.556 1357.64 570.602 1356.83 570.04C1355.62 569.198 1354.58 568.106 1353.29 567.331" stroke="#C4631F" stroke-width="3" stroke-linecap="round" stroke-linejoin="round"/>
<path d="M1363.06 555.839C1363.47 560.69 1367.47 564.374 1370.13 568.209C1371.3 569.891 1373.11 571.409 1374.52 572.901C1375.62 574.058 1376.9 574.989 1378.14 575.979C1379.12 576.753 1379.68 577.789 1379.74 579.02C1379.75 579.252 1379.64 580.153 1379.96 579.675C1380.39 579.026 1380.43 577.379 1380.77 576.574C1381.75 574.262 1381.94 570.464 1381.12 568.046C1379.97 564.633 1376.85 562.432 1374.3 560.113C1373.4 559.291 1372.48 558.434 1371.66 557.534C1370.75 556.536 1369.17 556.03 1368.11 555.173C1367.23 554.45 1366.08 553.544 1365.08 553.106" stroke="#C4631F" stroke-width="3" stroke-linecap="round" stroke-linejoin="round"/>
<path d="M1351.64 567.89C1347.11 569.132 1343.52 571.987 1339.15 573.571C1334.71 575.182 1329.44 575.897 1324.72 576.122C1323.62 576.174 1318.35 576.312 1320.01 574.347C1321.12 573.033 1321.68 571.18 1322.71 569.757C1323.52 568.635 1324.26 567.518 1325.08 566.408C1325.91 565.286 1327.69 564.334 1328.88 563.644C1330.3 562.82 1331.9 562.155 1333.47 561.694C1335.72 561.038 1339.62 560.937 1341.77 561.886C1345.49 563.53 1347.99 565.712 1350.95 568.402" stroke="#C4631F" stroke-width="3" stroke-linecap="round" stroke-linejoin="round"/>
<path d="M1363.23 554.393C1359.4 554.574 1355.44 555.182 1351.71 554.221C1349.7 553.703 1347.68 553.273 1345.91 552.152C1344.22 551.074 1342.17 550.355 1340.68 548.992C1339.07 547.536 1337 545.837 1335.93 543.943C1335.6 543.339 1335.62 543.239 1336.32 543.205C1337.44 543.152 1338.43 542.625 1339.53 542.573C1342.05 542.453 1344.3 542.167 1346.67 543.1C1350.15 544.473 1353.48 546.111 1356.68 548.098C1359.17 549.641 1360.58 552.754 1363.2 553.914" stroke="#C4631F" stroke-width="3" stroke-linecap="round" stroke-linejoin="round"/>
<path d="M1373.04 543.858C1373.18 546.115 1373.91 546.744 1375.41 548.354C1376.73 549.775 1377.79 551.209 1379.32 552.443C1381.8 554.443 1384.02 556.723 1386.63 558.555C1387.77 559.36 1389.01 559.73 1390.03 560.658C1391.3 561.812 1391.47 559.572 1391.66 558.556C1392.65 553.289 1388.07 549.162 1384.26 546.335C1380.9 543.84 1377.23 541.741 1372.94 541.944" stroke="#C4631F" stroke-width="3" stroke-linecap="round" stroke-linejoin="round"/>
<path d="M1371.79 542.958C1363.96 543.33 1358.12 535.559 1353.91 529.903C1351.77 527.019 1349.96 524.039 1348.33 520.832C1348.26 520.695 1347.29 518.737 1347.77 518.714C1349.26 518.643 1351.15 519.97 1352.37 520.6C1355.3 522.12 1358.08 523.464 1360.25 526.005C1362.28 528.364 1364.95 530.528 1366.43 533.29C1367.55 535.365 1369.24 536.938 1370.12 539.148C1370.65 540.462 1371.52 541.629 1372.03 542.946" stroke="#C4631F" stroke-width="3" stroke-linecap="round" stroke-linejoin="round"/>
<path d="M1382.55 527.104C1382.86 529.356 1385.26 531.617 1386.8 533.255C1388.04 534.583 1389.12 536.036 1390.69 537.025C1394.17 539.217 1397.63 541.245 1401.24 543.184C1401.74 543.451 1406.62 544.902 1406.63 544.419C1406.65 542.672 1406.27 541.3 1405.73 539.667C1404.79 536.806 1402.29 534.366 1400.24 532.256C1397.92 529.876 1394.55 528.413 1391.53 527.156C1388.58 525.933 1386.12 525.496 1382.96 525.646" stroke="#C4631F" stroke-width="3" stroke-linecap="round" stroke-linejoin="round"/>
<path d="M1382.53 525.602C1381.38 525.656 1379.7 526.05 1378.59 525.7C1377.3 525.292 1375.82 524.402 1374.76 523.568C1373.66 522.7 1372.78 521.63 1371.82 520.619C1370.58 519.308 1369.13 517.863 1368.14 516.364C1366.11 513.308 1364.44 510.045 1362.52 506.931C1361.39 505.094 1360.63 502.744 1360.61 500.577C1360.61 500.367 1363.91 502.517 1364.26 502.751C1366.49 504.25 1368.53 506.04 1370.51 507.847C1372.24 509.419 1373.79 511.367 1375.25 513.191C1376.59 514.861 1378.04 516.635 1379.01 518.55C1379.97 520.465 1381.53 522.456 1382.09 524.526C1382.3 525.305 1382.95 525.956 1382.99 526.776" stroke="#C4631F" stroke-width="3" stroke-linecap="round" stroke-linejoin="round"/>
<path d="M1391.3 513.027C1395.56 517.236 1400.5 521.086 1405.92 523.693C1407.95 524.675 1409.92 525.135 1412.12 525.591C1413.94 525.969 1415.88 526.608 1417.75 526.519C1418.19 526.498 1418.73 526.638 1418.44 526.177C1417.8 525.178 1417.01 524.257 1416.31 523.299C1414.31 520.587 1411.5 518.529 1408.77 516.582C1406.73 515.128 1404.34 514.22 1402.26 512.86C1400.83 511.932 1398.93 511.07 1397.18 511.153C1395.27 511.243 1392.8 510.962 1391.04 511.644" stroke="#C4631F" stroke-width="3" stroke-linecap="round" stroke-linejoin="round"/>
<path d="M1390.2 510.886C1386.24 510.135 1383.48 506.658 1380.8 503.858C1377.94 500.877 1375.18 497.876 1372.88 494.468C1370.8 491.387 1369.2 487.823 1368.32 484.221C1368.13 483.457 1368.13 482.665 1368.1 481.884C1368.09 481.798 1368.07 481.335 1368.09 481.352C1369.35 482.203 1371.4 482.638 1372.81 483.21C1375 484.095 1376.76 485.47 1378.61 486.877C1379.99 487.922 1381.65 489.02 1382.8 490.309C1385.13 492.914 1386.77 495.947 1388.4 499.013C1390.33 502.649 1390.41 506.854 1390.6 510.867" stroke="#C4631F" stroke-width="3" stroke-linecap="round" stroke-linejoin="round"/>
<path d="M1401.31 480.261C1398.59 480.391 1396.31 480.524 1393.67 479.916C1390.12 479.097 1386.34 477.709 1383.35 475.545C1381.37 474.108 1379.5 472.829 1378.03 470.792C1377.51 470.07 1377.21 469.241 1376.78 468.471C1376.58 468.101 1375.83 467.321 1376.57 467.285C1379.01 467.17 1381.39 466.947 1383.76 467.63C1386.77 468.494 1390.2 469.823 1392.73 471.7C1394.46 472.989 1396.28 474.156 1398.08 475.332C1399.01 475.939 1399.8 476.802 1400.62 477.548C1401.03 477.92 1401.59 478.829 1402.04 479.03" stroke="#C4631F" stroke-width="3" stroke-linecap="round" stroke-linejoin="round"/>
<path d="M1402.45 479.21C1406.43 480.624 1411.01 481.365 1415.21 481.405C1417.38 481.426 1419.51 481.389 1421.68 481.286C1423.63 481.194 1425.76 481.203 1427.61 480.518C1428.66 480.125 1429.86 479.96 1430.87 479.455C1431.33 479.223 1431.76 478.936 1432.22 478.781C1432.52 478.679 1428.35 474.938 1427.95 474.721C1425.33 473.287 1423.18 471.976 1420.07 471.64C1416.5 471.254 1412.89 471.191 1409.56 472.694C1408.44 473.201 1407.48 473.997 1406.47 474.679C1405.48 475.343 1405.12 476.24 1404.39 477.081C1403.76 477.803 1402.63 478.374 1402.25 479.22" stroke="#C4631F" stroke-width="3" stroke-linecap="round" stroke-linejoin="round"/>
<path d="M1407.79 457.43C1401.48 457.73 1394.84 458.844 1389.07 455.629C1386.94 454.442 1384.84 453.021 1382.99 451.433C1382.54 451.041 1382.18 450.613 1381.89 450.09C1381.53 449.445 1382.67 449.655 1383.11 449.634C1385.99 449.497 1388.85 448.759 1391.74 448.836C1394.88 448.919 1397.67 450.647 1400.27 452.207C1402.12 453.319 1403.91 454.928 1405.55 456.341C1406.19 456.893 1406.87 457.704 1407.62 458.036" stroke="#C4631F" stroke-width="3" stroke-linecap="round" stroke-linejoin="round"/>
<path d="M1407.77 456.833C1410.63 457.233 1413.47 458.356 1416.4 458.217C1420.48 458.023 1424.2 457.678 1427.84 455.636C1430.05 454.398 1431.5 453.355 1432.91 451.353C1433.04 451.172 1433.54 449.887 1433.43 449.833C1432.6 449.409 1431.64 449.245 1430.76 448.964C1428.07 448.113 1424.8 448.392 1422.16 449.273C1419.36 450.205 1416.34 451.228 1413.92 452.953C1413.2 453.461 1412.45 453.806 1411.84 454.447C1411.47 454.827 1410.82 455.645 1410.4 455.911C1409.61 456.415 1409.18 457.367 1408.41 457.799" stroke="#C4631F" stroke-width="3" stroke-linecap="round" stroke-linejoin="round"/>
</g>
</g>
</g>
<defs>
<clipPath id="clip0">
<rect width="1440" height="990" fill="white"/>
</clipPath>
</defs>
</svg>
