<svg width="52" height="15" viewBox="0 0 52 15" fill="none" xmlns="http://www.w3.org/2000/svg">
<path d="M40.8528 6C41.3842 9 43.786 11.3214 45.1585 12.0067C46.1123 10.6605 48.0748 9.8428 49.2497 8.79872C50.0523 8.08542 50.9544 7.53149 50.9544 6.39271C50.9544 5.21292 50.4175 4 48.8234 4.5C45.6351 5.5 45.1037 8.54999 45.1037 5.5C45.1037 3.81783 45.1993 1.54996 42.9783 2.4999C41.24 3.24338 40.8528 4 40.8528 6Z" fill="#4A9D63" stroke="#4A5759" stroke-width="2" stroke-linecap="round" stroke-linejoin="round"/>
<path d="M27.592 1C27.5503 1.05086 27.5084 1.10166 27.4664 1.15239C26.6282 2.45489 28.3448 6.97496 28.8353 7.89795C29.1861 8.55816 30.6735 9.98244 29.2966 9.98244C28.033 9.98244 26.9828 10.7575 26.3987 11.7468C25.7331 12.8742 25.7569 14.4508 25.035 12.5488C24.7221 11.7245 24.9317 10.7056 24.5843 9.39795C24.1095 7.61085 20.9263 6.55802 20.2539 6.5529C20.1747 6.58636 20.1294 6.60265 20.1294 6.5962C20.1294 6.56654 20.1739 6.55228 20.2539 6.5529C20.7955 6.32424 22.9219 5.29399 23.0084 5.24171C24.7692 4.17654 26.1887 2.69611 27.4664 1.15239C27.5033 1.0952 27.545 1.04421 27.592 1Z" fill="#F8CD5E" stroke="#4A5759" stroke-width="2" stroke-linecap="round" stroke-linejoin="round"/>
<path d="M4.18823 3.00025C6.56592 1.99422 7.90784 3.00085 8.97059 3.50039C10.9955 4.45223 11.3775 7.16678 11.6274 8.50039C11.7789 9.3079 10.6386 12.8565 8.32999 12.8565C5.04192 12.8565 1 12.0936 1 8.20483C1 7.00962 1.81055 4.00628 4.18823 3.00025Z" fill="#9E483E" stroke="#4A5759" stroke-width="2" stroke-linecap="round" stroke-linejoin="round"/>
</svg>
