<svg width="78" height="107" viewBox="0 0 78 107" fill="none" xmlns="http://www.w3.org/2000/svg">
<path d="M11.2729 43.995L15.044 43.0972L13.9665 51.1779H11.2729V43.995Z" fill="#D39264"/>
<path d="M17.9706 41.2117C20.1057 36.9156 25.5126 31.5148 25.5126 31.5148L27.9368 29.8987L37.095 27.2051L47.3306 28.0132C47.3306 28.0132 55.0385 30.7567 58.3743 34.4778C60.8569 37.2469 62.9534 42.8279 62.9534 42.8279L66.1857 54.6796L67.5325 67.8782V77.8445C67.5325 77.8445 65.3717 83.0761 62.9534 85.6559C59.7946 89.0256 52.7178 91.5817 52.7178 91.5817L41.4048 93.7366L26.8594 91.5817C26.8594 91.5817 18.6509 87.5679 15.5463 82.9623C12.55 78.5172 12.0742 75.116 11.7753 69.7637C11.4406 63.7698 14.7383 54.6796 14.7383 54.6796C14.7383 54.6796 15.5633 46.0554 17.9706 41.2117Z" fill="#818181"/>
<path d="M18.3125 96.864L23.2256 89.9658L33.0518 93.277L31.1411 101.279L28.4116 99.8992V96.864L26.7739 99.8992H23.2256L24.5903 95.7603L21.5879 98.5196L18.3125 96.864Z" fill="#E5CEB1"/>
<path d="M47.7911 101.279L46.4263 93.277L55.7533 91.0433L59.255 94.3807V96.864L57.0714 99.3474L54.1425 100.727L51.3394 96.864L50.2476 101.279H47.7911Z" fill="#E5CEB1"/>
<path d="M33.9126 53.3329L38.2223 50.9087L43.0708 53.3329L38.2223 58.1814L33.9126 53.3329Z" fill="#E5CEB1"/>
<path d="M22.4674 84.084C23.0678 85.9994 23.9123 87.3561 25.1542 88.951C26.2129 89.9756 25.7098 89.9186 28.3589 91.0552C30.4507 91.9526 32.2999 92.7434 34.5933 93.1012C36.7916 93.4441 39.6989 94.0858 41.9159 93.4987C42.7194 93.2859 43.5706 93.5389 44.3771 93.3727C45.5604 93.1287 46.7922 92.9563 47.9469 92.626C49.5301 92.1732 50.6037 91.2145 51.9845 90.4831C54.1713 88.1825 55.6723 85.8834 56.2357 83.0363C56.3888 82.2625 56.5182 80.2286 56.5612 79.4732C56.6112 78.5941 51.1437 81.1627 51.1437 80.2416C51.1437 78.8383 55.1738 74.35 55.7112 73.0692C55.2965 72.1056 55.3147 71.8107 54.995 70.8091C54.6136 69.6145 54.0359 69.0282 53.266 68.0844C52.0546 66.5994 50.9755 65.4116 49.5316 64.1038C47.8112 62.5456 46.4207 62.804 44.3771 61.7984C40.6752 59.9768 34.3495 61.2041 30.7286 62.4508C28.9738 63.0549 27.5877 64.4439 26.2129 65.5827C25.1131 66.4938 24.0558 67.5704 23.2839 68.7631C22.3846 70.1527 21.8435 71.5858 21.5636 73.0692C21.2329 74.8213 25.44 76.1431 23.2836 80.2416C23.3332 80.6387 21.6035 79.3378 21.6567 79.7293C21.8556 81.1947 22.0167 82.6461 22.4674 84.084Z" fill="#E5CEB1"/>
<path d="M24.1655 80.2689V64.9155L38.1722 63.2993L50.0239 63.838L51.1014 70.8414H55.9498L51.1014 79.4608L35.7479 80.8076L24.1655 80.2689Z" fill="#F2F2F2"/>
<path d="M23.8363 90.5625C22.4264 91.7038 21.3612 92.8561 20.4268 94.4135C20.019 95.0931 18.7588 96.5014 18.7588 97.2957C18.7588 97.8397 21.3228 99.0234 21.6777 98.6816C22.0993 98.2756 24.7438 93.764 24.4863 96.0815C24.3916 96.934 22.5748 100.194 24.3269 100.276C25.1045 100.312 25.643 100.763 26.375 100.926C27.3612 101.145 27.6895 99.1467 27.9081 98.5221C28.0158 98.2144 28.2933 96.7784 28.8647 96.8419C29.002 96.8572 28.693 99.6865 28.693 99.908C28.693 101.177 30.1839 101.465 31.3421 101.134C32.3113 100.858 32.6434 97.5631 32.6667 96.7928C32.6917 95.969 32.6667 94.2918 32.6667 93.4674" stroke="#9F4100" stroke-width="1.07743" stroke-linecap="round" stroke-linejoin="round"/>
<path d="M46.3242 93.8029C46.3242 95.8273 46.8147 97.7829 47.0057 99.7991C47.0744 100.525 47.1443 101.425 47.9442 101.748C48.3588 101.916 50.2673 101.765 50.5928 101.452C51.0808 100.984 50.7214 99.0357 50.7214 98.3679C50.7214 98.0979 50.554 96.8907 50.9529 96.912C52.1326 96.9749 52.1612 98.9184 53.0357 99.4042C53.5507 99.6903 53.9856 100.779 54.54 100.897C55.4715 101.096 56.3174 100.256 57.1758 100.021C57.9218 99.8166 57.0623 97.9254 56.7386 97.5782C56.5349 97.3597 56.3997 97.0685 56.2758 96.801C56.2375 96.7182 55.6939 96.2704 55.9286 96.2704C56.2246 96.2704 56.7106 97.7734 56.9701 98.0224C57.3661 98.4024 58.0469 98.4955 58.5901 98.4666C61.9023 98.29 57.4434 92.329 56.2758 91.582" stroke="#9F4100" stroke-width="1.07743" stroke-linecap="round" stroke-linejoin="round"/>
<path d="M24.4335 32.7669C25.8321 31.4627 27.1882 30.2333 29.1363 29.6013C30.8289 28.98 32.0468 28.2211 33.861 27.9184C35.659 27.6184 37.9628 27.1104 39.7869 27.1104C46.3242 27.1104 50.4955 28.3071 55.9484 31.9588C58.9241 33.9515 62.1553 38.6548 62.9517 40.8476C63.7856 44.8011 66.0631 48.6518 66.0631 52.7187C66.0631 54.1673 66.76 55.412 66.76 56.8606C66.76 57.7115 67.3906 59.6095 67.3906 60.5153C67.3906 62.15 67.3315 62.2985 67.3906 63.439C67.4999 65.5492 68.0355 66.6911 68.187 68.7991C68.3303 70.7929 68.4413 71.9312 68.187 73.9157C67.5121 79.1835 65.2988 82.7599 61.9877 86.2487C58.6326 89.7839 54.1852 91.6648 49.3148 92.8124C46.4988 93.476 43.9358 93.7362 41.0216 93.6118C38.4247 93.5009 34.4543 93.8576 32.1359 92.8124C29.4507 91.6019 27.6352 91.4253 25.0609 90.0234C21.5679 88.1212 18.5459 86.0423 16.2401 82.9305C14.076 80.0099 12.437 75.6154 12.437 72.0966C12.437 69.0845 12.5305 66.6746 13.193 62.7602C13.7721 61.3937 13.82 59.8902 14.0319 58.4512C14.2391 57.0436 14.7863 55.7561 14.8784 54.3193C14.9731 52.8417 15.5544 51.383 15.7003 49.8947C15.8576 48.2906 15.7929 46.7221 16.2401 45.1436C17.1207 42.0355 19.033 38.836 21.2012 36.2685L21.2594 36.1996C22.3765 34.8767 23.1378 33.9751 24.4335 32.7669Z" stroke="#282E2F" stroke-width="1.61615" stroke-linecap="round" stroke-linejoin="round"/>
<path d="M26.993 48.0173C25.6292 48.2533 25.0695 48.3904 24.5711 49.6227C24.2657 50.378 24.8733 50.9805 25.5116 51.3752C26.8301 52.1903 28.4743 51.4785 28.4743 49.9506C28.4743 48.6044 27.6579 47.4067 26.0995 47.4067C25.2904 47.4067 25.1235 47.4258 24.6652 48.0625C24.3137 48.5507 23.7406 49.2383 24.6652 49.2383" stroke="#282E2F" stroke-width="1.07743" stroke-linecap="round" stroke-linejoin="round"/>
<path d="M26.4597 49.1348C23.0878 50.844 27.9169 50.9049 26.7324 49.051C26.3665 48.4782 25.4201 49.6918 25.3254 50.1405C25.202 50.7251 25.8329 51.4272 26.2634 51.0903C26.548 50.8675 27.3432 51.1088 27.3432 50.7483C27.3432 50.3256 27.0132 50.364 27.3432 50.364C27.9112 50.364 28.2847 47.4434 27.4414 48.8834" stroke="#282E2F" stroke-width="1.07743" stroke-linecap="round" stroke-linejoin="round"/>
<path d="M26.7023 47.767C25.3282 47.5471 24.7461 47.4104 24.0104 48.5788C23.775 48.9528 24.0104 50.2041 24.0104 50.6394C24.0104 51.935 26.8356 51.7329 27.5568 51.6018C28.679 51.3978 29.1257 49.0187 28.3259 48.3331C27.9887 48.044 28.1403 47.834 27.6743 47.7563C27.4988 47.7271 27.1512 47.5677 26.9907 47.4786C26.2982 47.0939 25.2075 47.4568 24.5872 47.767" stroke="#282E2F" stroke-width="1.07743" stroke-linecap="round" stroke-linejoin="round"/>
<path d="M50.2585 47.381C48.745 48.0426 47.3126 49.8203 48.6779 51.1082C49.3631 51.7546 50.8477 52.0312 51.5319 51.2014C52.7846 49.6822 51.1755 46.6932 49.0731 47.795C48.8341 47.9202 47.8186 48.6588 48.634 48.1263C49.1456 47.7923 50.063 47.2731 50.6977 47.65C51.4782 48.1136 52.2344 48.818 52.2344 49.7105C52.2344 50.9464 53.0078 49.2373 52.7283 48.4991C52.4695 47.8154 52.4483 47.7085 51.6526 47.474C51.2808 47.3644 50.4467 47.2122 50.2586 47.5672" stroke="#282E2F" stroke-width="1.07743" stroke-linecap="round" stroke-linejoin="round"/>
<path d="M51.8388 48.4989C51.3054 48.4989 50.2338 48.2282 50.0606 48.882C49.921 49.4086 49.6973 49.954 50.3569 50.2487C50.9395 50.509 51.2206 50.014 50.9058 49.5343C50.5897 49.0527 49.2206 48.7852 48.7982 49.2755C47.7739 50.4647 51.9342 51.0272 51.3997 48.9545C51.1596 48.0235 48.3015 49.1768 50.4557 49.4308" stroke="#282E2F" stroke-width="1.07743" stroke-linecap="round" stroke-linejoin="round"/>
<path d="M50.2006 47.4728C49.0238 47.5225 48.021 48.0172 48.021 49.15C48.021 49.7973 48.4521 50.9804 49.309 51.149C50.4283 51.3694 51.9424 51.5597 52.5196 50.6394C52.8669 50.0857 52.6711 48.3875 52.1381 47.8629C51.3067 47.0446 50.5458 47.381 49.405 47.381" stroke="#282E2F" stroke-width="1.07743" stroke-linecap="round" stroke-linejoin="round"/>
<path fill-rule="evenodd" clip-rule="evenodd" d="M53.5969 58.7202C47.4977 58.7202 42.5532 53.7758 42.5532 47.6765C42.5532 41.5772 47.4977 36.6328 53.5969 36.6328C59.6962 36.6328 64.6406 41.5772 64.6406 47.6765C64.6406 53.7758 59.6962 58.7202 53.5969 58.7202ZM53.5967 56.5652C48.6875 56.5652 44.7079 52.5856 44.7079 47.6764C44.7079 42.7672 48.6875 38.7876 53.5967 38.7876C58.5059 38.7876 62.4855 42.7672 62.4855 47.6764C62.4855 52.5856 58.5059 56.5652 53.5967 56.5652Z" fill="#CECECE"/>
<path fill-rule="evenodd" clip-rule="evenodd" d="M23.9309 58.7202C18.1091 58.7202 13.3896 53.7758 13.3896 47.6765C13.3896 41.5772 18.1091 36.6328 23.9309 36.6328C29.7527 36.6328 34.4722 41.5772 34.4722 47.6765C34.4722 53.7758 29.7527 58.7202 23.9309 58.7202ZM23.9308 56.5652C19.245 56.5652 15.4464 52.5856 15.4464 47.6764C15.4464 42.7672 19.245 38.7876 23.9308 38.7876C28.6166 38.7876 32.4152 42.7672 32.4152 47.6764C32.4152 52.5856 28.6166 56.5652 23.9308 56.5652Z" fill="#CECECE"/>
<path d="M64.6406 51.1783V43.6362H67.8729V51.1783H64.6406Z" fill="#D49264"/>
<path d="M38.49 50.814C37.6222 51.5001 35.3941 52.3676 34.4156 52.8826C33.7062 53.256 34.2078 54.1605 34.7918 54.6795C35.8337 56.1142 36.4077 56.2957 37.9595 58.1548" stroke="#9F4100" stroke-width="1.07743" stroke-linecap="round" stroke-linejoin="round"/>
<path d="M38.3535 57.9579C39.6246 56.8862 40.9073 55.7979 42.0834 54.6218C42.4195 54.2857 42.8555 53.9116 43.0694 53.5075C43.1925 53.275 42.7843 53.175 42.6413 53.0904C41.6388 52.4981 39.8371 51.622 38.4903 50.814" stroke="#9F4100" stroke-width="1.07743" stroke-linecap="round" stroke-linejoin="round"/>
<path d="M13.2397 70.6938C15.7408 74.3718 18.2822 77.3327 22.1437 79.6101C22.4713 79.8032 23.2064 80.46 23.5051 79.9289C23.8621 79.2943 24.057 78.4817 24.057 77.7581C24.057 75.4811 22.34 73.3271 21.3956 71.3438C20.7448 69.977 20.1948 68.4512 19.421 67.1616" stroke="#536264" stroke-width="1.07743" stroke-linecap="round" stroke-linejoin="round"/>
<path d="M24.0571 64.5127C24.0803 68.066 23.9355 71.6734 24.0693 75.2196C24.1185 76.5216 23.895 78.9684 23.895 80.2687" stroke="#536264" stroke-width="1.07743" stroke-linecap="round" stroke-linejoin="round"/>
<path d="M24.1646 64.3766C28.2049 63.8379 32.9328 63.9301 37.2289 63.6296C40.2732 63.4166 43.3047 63.4088 46.3537 63.4088C47.9182 63.4088 50.5128 62.6915 50.5481 64.8806C50.6162 69.1016 50.9897 81.759 50.9897 77.5375" stroke="#536264" stroke-width="1.07743" stroke-linecap="round" stroke-linejoin="round"/>
<path d="M23.1738 80.6281C26.2622 80.6281 29.3389 81.1419 32.4212 81.0574C36.4097 80.9481 41.747 81.0688 45.7131 80.6281C47.6544 80.4125 52.7841 79.73 50.8309 79.73" stroke="#536264" stroke-width="1.07743" stroke-linecap="round" stroke-linejoin="round"/>
<path d="M59.3787 67.8242C57.3962 70.104 55.7498 72.5777 53.9087 74.9621C53.2642 75.7968 51.9339 76.8796 51.8728 77.9792C51.8458 78.466 51.2397 78.779 51.2105 79.3038C51.1516 80.3635 52.1376 80.2571 52.9643 80.0642C55.5349 79.4644 58.0607 78.2908 60.4702 77.2065C61.7787 76.6177 63.9358 75.5271 64.4561 74.2263" stroke="#536264" stroke-width="1.07743" stroke-linecap="round" stroke-linejoin="round"/>
<path d="M14.1986 43.0973C13.2268 43.0629 12.0227 42.7827 11.2324 43.6219C10.7041 44.1831 10.996 46.8334 10.9674 47.6427C10.9296 48.712 10.9069 49.6286 11.0694 50.6549C11.2447 51.7613 12.7988 51.2707 13.3259 51.0914" stroke="#FEFEFE" stroke-width="1.07743" stroke-linecap="round" stroke-linejoin="round"/>
<path d="M64.6768 43.3201C65.4035 43.3201 68.4297 42.8646 68.4297 44.2522C68.4297 45.7811 68.4297 47.3101 68.4297 48.8391C68.4297 50.2967 68.6193 51.4882 66.8844 51.4882" stroke="#FEFEFE" stroke-width="1.07743" stroke-linecap="round" stroke-linejoin="round"/>
<path d="M35.9152 49.8346C34.6505 49.708 35.2999 48.1412 35.3801 47.3405C36.7511 47.4778 38.6264 47.4437 39.9975 47.5809C40.6332 47.6446 41.7294 47.3955 42.2824 47.6002C42.7373 47.7685 42.5032 49.1793 42.4718 49.4927C42.3464 50.7452 40.389 50.0606 39.2598 49.9476C38.1362 49.8351 37.0296 49.9462 35.9152 49.8346Z" fill="#536264" stroke="#536264" stroke-width="1.07743" stroke-linecap="round" stroke-linejoin="round"/>
<circle cx="53.5969" cy="47.6765" r="11.0437" stroke="#FEFEFE" stroke-width="1.07743" stroke-linecap="round" stroke-linejoin="round"/>
<circle cx="53.5968" cy="47.6764" r="8.88883" stroke="#FEFEFE" stroke-width="1.07743" stroke-linecap="round" stroke-linejoin="round"/>
<ellipse cx="24.2003" cy="47.6765" rx="10.8106" ry="11.0437" stroke="#FEFEFE" stroke-width="1.07743" stroke-linecap="round" stroke-linejoin="round"/>
<ellipse cx="24.2003" cy="47.6764" rx="8.70125" ry="8.88883" stroke="#FEFEFE" stroke-width="1.07743" stroke-linecap="round" stroke-linejoin="round"/>
<path d="M63.9229 51.1685C64.4536 51.2822 66.7232 51.1685 67.8007 51.1685" stroke="#FEFEFE" stroke-width="1.07743" stroke-linecap="round" stroke-linejoin="round"/>
<path d="M50.9478 79.0696C52.1696 76.8796 53.7769 74.8979 54.9729 72.7235C55.2879 72.1508 55.9112 71.7028 56.1775 71.1369C56.3826 70.7011 54.5668 70.8691 54.3853 70.8725C53.4119 70.8905 51.4766 71.1369 51.4766 71.1369" stroke="#536264" stroke-width="1.07743" stroke-linecap="round" stroke-linejoin="round"/>
<path d="M38.1857 68.9556C38.1646 68.983 38.1433 69.0103 38.1221 69.0377C37.6971 69.7393 38.5673 72.1744 38.8159 72.6716C38.9938 73.0273 39.7477 73.7946 39.0498 73.7946C38.4092 73.7946 37.8769 74.2121 37.5808 74.7451C37.2434 75.3524 37.2555 76.2017 36.8895 75.1771C36.7309 74.733 36.8372 74.1842 36.6611 73.4797C36.4204 72.5169 34.8068 71.9498 34.466 71.947C34.4258 71.965 34.4028 71.9738 34.4028 71.9703C34.4028 71.9544 34.4254 71.9467 34.466 71.947C34.7405 71.8238 35.8184 71.2688 35.8622 71.2406C36.7548 70.6668 37.4743 69.8693 38.1221 69.0377C38.1407 69.0069 38.1619 68.9794 38.1857 68.9556Z" fill="#F9D372" stroke="#536264" stroke-width="1.07743" stroke-linecap="round" stroke-linejoin="round"/>
<path d="M1.60244 99.5251C3.68993 99.392 5.7266 99.5777 7.81456 99.5777C8.23148 99.6628 8.63823 99.7892 9.03148 99.9527C9.37784 100.097 9.61713 100.263 9.88231 100.528C10.2184 100.864 10.5151 101.246 10.7982 101.629C10.9936 101.893 11.2024 102.178 11.3505 102.474C11.505 102.782 11.6131 103.115 11.7128 103.445C11.7975 103.726 11.8836 104.015 11.9194 104.308C11.9368 104.45 11.9322 104.653 11.9883 104.782C12.0065 104.823 12.0404 104.911 12.0164 104.899L8.65422 105.107C7.54323 105.107 6.47878 104.991 5.38365 104.809C4.39875 104.645 3.50746 104.437 2.8061 103.65C2.30788 103.091 -0.104885 99.6341 1.60244 99.5251Z" fill="#BAC3C5"/>
<path d="M7.92005 99.5331C5.81502 99.5331 3.71192 99.4043 1.60736 99.5372C-0.113917 99.6459 2.31858 103.096 2.82087 103.653C3.52796 104.439 4.42654 104.646 5.41949 104.809C6.52357 104.992 7.59673 105.107 8.7168 105.107H12.2593M7.87027 99.5896C8.2906 99.6746 8.70068 99.8007 9.09714 99.9639C9.44633 100.108 9.68758 100.274 9.95492 100.538C10.2938 100.873 10.5928 101.255 10.8783 101.636C11.0753 101.9 11.2858 102.185 11.4351 102.48C11.5908 102.787 11.6999 103.119 11.8004 103.449C11.8858 103.729 11.9726 104.017 12.0087 104.309C12.0262 104.451 12.0215 104.654 12.0782 104.782C12.0965 104.824 12.1307 104.911 12.1064 104.899" stroke="#909798" stroke-width="1.07743" stroke-linecap="round" stroke-linejoin="round"/>
<path d="M70.4412 99.7448C72.4324 99.7448 74.4239 99.762 76.3898 100.101C76.6353 100.144 77.0845 100.201 76.9862 100.574C76.8298 101.168 76.2341 101.822 75.8534 102.257C75.1707 103.036 74.1357 103.616 73.2194 104.052C72.1386 104.566 70.8997 105.006 69.6967 105.043C68.7471 105.072 67.7961 105.085 66.8465 105.122C66.2381 105.145 65.6441 105.342 65.0371 105.342M70.5775 99.7594C70.2783 99.7594 69.9812 99.7516 69.6838 99.7178C69.5176 99.699 69.3619 99.7252 69.2093 99.7958C68.7344 100.016 68.1898 100.085 67.6867 100.216C66.7157 100.467 66.1374 101.517 65.8328 102.428C65.7016 102.821 65.6115 103.219 65.4939 103.615C65.4516 103.757 65.4145 103.899 65.3709 104.041C65.3337 104.163 65.3431 104.308 65.3182 104.434C65.3009 104.521 65.2889 104.609 65.268 104.695C65.2518 104.762 65.1866 104.811 65.155 104.871C65.0992 104.977 65.1098 105.065 65.1098 105.188" stroke="black" stroke-width="1.07743" stroke-linecap="round" stroke-linejoin="round"/>
<path d="M76.3898 100.092C74.4239 99.7609 72.4324 99.7441 70.4412 99.7441C70.1421 99.7441 69.9812 99.7507 69.6838 99.7177C69.5176 99.6993 69.3619 99.7249 69.2093 99.7939C68.7344 100.009 68.1898 100.077 67.6867 100.204C66.7157 100.45 66.1374 101.475 65.8328 102.366C65.7016 102.749 65.6115 103.138 65.4939 103.525C65.4516 103.664 65.4145 103.803 65.3709 103.942C65.3337 104.06 65.3431 104.202 65.3182 104.325C65.3009 104.411 65.2889 104.496 65.268 104.58C65.2518 104.646 65.1866 104.693 65.155 104.752C65.1133 104.829 65.068 105.053 65.0479 105.212C65.6511 105.21 66.2417 105.02 66.8465 104.997C67.7961 104.962 68.7471 104.949 69.6967 104.92C70.8997 104.884 72.1386 104.455 73.2194 103.952C74.1357 103.526 75.1707 102.96 75.8534 102.198C76.2341 101.774 76.8298 101.134 76.9862 100.554C77.0845 100.19 76.6353 100.134 76.3898 100.092Z" fill="#BAC3C5"/>
<path d="M65.0371 105.212C65.6441 105.212 66.2381 105.02 66.8465 104.997C67.7961 104.962 68.7471 104.949 69.6967 104.92C70.8997 104.884 72.1386 104.455 73.2194 103.952C74.1357 103.526 75.1707 102.96 75.8534 102.198C76.2341 101.774 76.8298 101.134 76.9862 100.554C77.0845 100.19 76.6353 100.134 76.3898 100.092C74.4239 99.7609 72.4324 99.7441 70.4412 99.7441C70.1421 99.7441 69.9812 99.7507 69.6838 99.7177C69.5176 99.6993 69.3619 99.7249 69.2093 99.7939C68.7344 100.009 68.1898 100.077 67.6867 100.204C66.7157 100.45 66.1374 101.475 65.8328 102.366C65.7016 102.749 65.6115 103.138 65.4939 103.525C65.4516 103.664 65.4145 103.803 65.3709 103.942C65.3337 104.06 65.3431 104.202 65.3182 104.325C65.3009 104.411 65.2889 104.496 65.268 104.58C65.2518 104.646 65.1866 104.693 65.155 104.752C65.0992 104.855 65.0371 105.221 65.0371 105.342" stroke="#909798" stroke-width="1.07743" stroke-linecap="round" stroke-linejoin="round"/>
<path d="M3.97155 65.3131C4.13336 64.3059 4.5043 63.5891 5.03156 62.8594C5.67577 62.0741 6.10223 61.278 7.14461 61.0297C7.76816 60.8812 8.55276 60.8647 9.19721 60.7983C10.7759 60.6356 12.4862 60.8883 14.077 60.8883C17.6333 60.8883 21.1945 61.004 24.7531 61.004C26.5794 61.004 28.3802 61.2528 30.2138 61.2355L30.2529 61.2351C32.1434 61.2172 34.0759 61.1988 35.9649 61.1133C39.2617 60.9641 42.5569 61.3721 45.86 61.229C46.7405 61.1909 47.5838 60.9299 48.4677 60.8947C49.6182 60.8489 50.7238 60.7045 51.8674 60.5551L51.8758 60.554C53.5309 60.3378 55.206 60.4254 56.8717 60.4254C58.4219 60.4254 59.967 60.2738 61.5191 60.3097C62.8798 60.3412 64.2139 60.5411 65.5792 60.5411C67.737 60.5411 69.8631 60.568 71.9758 61.094C73.5727 61.4917 75.4065 62.111 75.087 64.1798C74.7439 66.401 74.845 68.624 74.6416 70.8529C74.3568 73.9726 73.8871 77.0642 73.6282 80.1875C73.3587 83.4388 72.6146 86.6045 72.3243 89.8564C72.0405 93.037 71.2598 96.0944 70.5235 99.191C69.9879 101.443 69.4266 103.785 66.9798 104.54C66.4099 104.715 65.9602 104.991 65.3532 105.093C64.5669 105.224 63.7742 105.3 62.9779 105.324C61.8179 105.358 60.6645 105.668 59.5053 105.761C58.3551 105.854 57.1794 105.787 56.0262 105.787C53.623 105.787 51.1878 105.89 48.7969 105.613C46.9598 105.401 45.0737 105.597 43.2265 105.465C41.2176 105.323 39.8445 105.674 37.8297 105.423C35.5303 105.28 33.2317 105.39 30.9299 105.419C29.5533 105.436 28.1781 105.351 26.8013 105.351C25.595 105.351 24.3808 105.448 23.1762 105.407C21.3072 105.343 19.434 105.253 17.5653 105.21C16.8271 105.193 16.1169 105.022 15.3822 104.977C13.9705 104.892 12.5608 104.782 11.1488 104.701C9.528 104.79 9.49041 104.193 8.87072 102.727C8.33151 101.452 8.23193 99.9122 7.93509 98.567C6.98069 94.2419 6.58778 89.7194 6.1817 85.3154C5.8482 81.6985 5.47598 78.0187 4.75247 74.4558C4.37473 72.5955 3.88381 70.5583 3.83157 68.6591C3.80106 67.5497 3.79493 66.4126 3.97155 65.3131Z" fill="#BAC3C5"/>
<path d="M5.68073 62.0259C4.80855 63.0969 4.19343 63.9319 3.97155 65.3131C3.79493 66.4126 3.80106 67.5497 3.83157 68.6591C3.88381 70.5583 4.37473 72.5955 4.75247 74.4558C5.47598 78.0187 5.8482 81.6985 6.1817 85.3154C6.58778 89.7194 6.98069 94.2419 7.93509 98.567C8.23193 99.9122 8.33151 101.452 8.87072 102.727C9.49041 104.193 9.528 104.79 11.1488 104.701C12.5608 104.782 13.9705 104.892 15.3822 104.977C16.1169 105.022 16.8271 105.193 17.5653 105.21C19.434 105.253 21.3072 105.343 23.1762 105.407C24.3808 105.448 25.595 105.351 26.8013 105.351C28.1781 105.351 29.5533 105.436 30.9299 105.419C33.2317 105.39 35.5303 105.28 37.8297 105.423C39.8445 105.674 41.2176 105.323 43.2265 105.465C45.0737 105.597 46.9598 105.401 48.7969 105.613C51.1878 105.89 53.623 105.787 56.0262 105.787C57.1794 105.787 58.3551 105.854 59.5053 105.761C60.6645 105.668 61.8179 105.358 62.9779 105.324C63.7742 105.3 64.5669 105.224 65.3532 105.093C65.9602 104.991 66.4099 104.715 66.9798 104.54C69.4266 103.785 69.9879 101.443 70.5235 99.191C71.2598 96.0944 72.0405 93.037 72.3243 89.8564C72.6146 86.6045 73.3587 83.4388 73.6282 80.1875C73.8871 77.0642 74.3568 73.9726 74.6416 70.8529C74.845 68.624 74.7439 66.401 75.087 64.1798C75.4065 62.111 73.5727 61.4917 71.9758 61.094C69.8631 60.568 67.737 60.5411 65.5792 60.5411C64.2139 60.5411 62.8798 60.3412 61.5191 60.3097C59.967 60.2738 58.4219 60.4254 56.8717 60.4254C55.206 60.4254 53.5309 60.3378 51.8758 60.554L51.8674 60.5551C50.7238 60.7045 49.6182 60.8489 48.4677 60.8947C47.5838 60.9299 46.7405 61.1909 45.86 61.229C42.5569 61.3721 39.2617 60.9641 35.9649 61.1133C34.0759 61.1988 32.1434 61.2172 30.2529 61.2351L30.2138 61.2355C28.3802 61.2528 26.5794 61.004 24.7531 61.004C21.1945 61.004 17.6333 60.8883 14.077 60.8883C12.4862 60.8883 10.7759 60.6356 9.19721 60.7983C8.55276 60.8647 7.76816 60.8812 7.14461 61.0297C6.10223 61.278 5.67577 62.0741 5.03156 62.8594" stroke="#909798" stroke-width="1.07743" stroke-linecap="round" stroke-linejoin="round"/>
<path d="M34.6076 80.649C34.9016 79.1362 36.1022 78.2233 37.4177 77.6218C37.757 77.5158 38.1135 77.4277 38.4669 77.4277C38.8635 77.4277 39.2545 77.5906 39.6516 77.6189C40.837 77.7035 41.4062 78.0709 42.0901 79.0058C42.5112 79.5815 42.9347 80.0233 43.0997 80.7425C43.2087 81.2176 43.2264 81.7254 43.2218 82.2108C43.2114 83.3057 42.7551 84.4029 41.8947 85.1147C40.4041 86.348 37.3312 86.5383 35.9633 85.0741C34.9826 84.0243 34.3304 82.0755 34.6076 80.649Z" fill="#192825"/>
<path d="M37.4329 77.6148C36.1114 78.2163 34.9028 79.1304 34.6076 80.649C34.3304 82.0755 34.9826 84.0243 35.9633 85.0741C37.3312 86.5383 40.4041 86.348 41.8947 85.1147C42.7551 84.4029 43.2114 83.3057 43.2218 82.2108C43.2264 81.7254 43.2087 81.2176 43.0997 80.7425C42.9347 80.0233 42.5112 79.5815 42.0901 79.0058C41.4062 78.0709 40.837 77.7035 39.6516 77.6189C39.2545 77.5906 38.8635 77.4277 38.4669 77.4277C38.0416 77.4277 37.6119 77.5552 37.2131 77.688" stroke="black" stroke-width="0.538717" stroke-linecap="round" stroke-linejoin="round"/>
<path d="M41.0977 79.5122C40.4173 79.3242 39.5438 79.8137 38.9345 80.0764C38.9433 80.1214 38.9672 80.182 38.9912 80.2228C39.0216 80.2746 39.0434 80.3377 39.0686 80.3925C39.0983 80.4571 39.1209 80.5214 39.1422 80.5891C39.1609 80.6485 39.172 80.7086 39.184 80.7696C39.193 80.8154 39.222 80.8545 39.2391 80.8972C39.2515 80.9281 39.2664 80.9681 39.2958 80.9867C39.3135 80.9979 39.3776 81.0007 39.3974 80.9982C39.4954 80.9861 39.5638 80.9245 39.6503 80.8821C39.7282 80.8438 39.7885 80.8018 39.8758 80.7846C39.9879 80.7626 40.0988 80.7452 40.2131 80.7404C40.3101 80.7362 40.401 80.7394 40.4965 80.7507C40.5599 80.7582 40.6221 80.779 40.6851 80.7891C40.7354 80.7972 40.7779 80.8153 40.8251 80.8294C40.838 80.8333 40.85 80.8387 40.8616 80.8449C41.2111 80.5426 41.7512 79.6927 41.0977 79.5122Z" fill="#B1C9AB"/>
<path d="M40.5309 80.0561C40.3816 80.1853 40.2323 80.3144 40.083 80.4436" stroke="#2D433F" stroke-width="0.538717" stroke-linecap="round" stroke-linejoin="round"/>
<path d="M39.0053 79.907C39.6145 79.6443 40.4213 79.3402 41.1016 79.5282C41.7551 79.7088 41.3832 80.4037 41.0337 80.706M40.9478 80.9053C40.9054 80.8891 40.8717 80.8582 40.8291 80.8455C40.7818 80.8314 40.7394 80.8133 40.689 80.8052C40.626 80.7951 40.5638 80.7743 40.5004 80.7668C40.405 80.7555 40.3141 80.7523 40.217 80.7564C40.1027 80.7613 39.9918 80.7787 39.8797 80.8007C39.7924 80.8179 39.7322 80.8599 39.6542 80.8982C39.5677 80.9406 39.4993 81.0022 39.4013 81.0143C39.3815 81.0167 39.3175 81.0139 39.2998 81.0028C39.2703 80.9842 39.2554 80.9442 39.243 80.9133C39.2259 80.8706 39.1969 80.8314 39.1879 80.7857C39.1759 80.7247 39.1648 80.6645 39.1461 80.6052C39.1248 80.5375 39.1022 80.4731 39.0725 80.4085C39.0473 80.3538 39.0255 80.2906 38.9951 80.2389C38.9712 80.198 38.9472 80.1374 38.9384 80.0924" stroke="#2D433F" stroke-width="0.538717" stroke-linecap="round" stroke-linejoin="round"/>
<path d="M35.925 79.1809C35.8349 79.5187 36.3332 80.2301 36.463 80.4801C36.5455 80.4507 36.6222 80.4111 36.7026 80.3771C36.7594 80.353 36.8265 80.347 36.8872 80.338C37.0009 80.3211 37.1139 80.3147 37.2283 80.327C37.3624 80.3414 37.4961 80.3634 37.6298 80.3817C37.7225 80.3945 37.8011 80.4121 37.8848 80.4545C37.9577 80.4915 38.0279 80.521 38.0959 80.5668C38.1507 80.6037 38.2008 80.6448 38.2531 80.6847C38.3252 80.7396 38.3837 80.8224 38.4426 80.8903C38.499 80.9551 38.5642 81.0132 38.6309 81.0674C38.6887 81.1143 38.8129 81.1314 38.8828 81.1145L38.8834 81.1144C38.9537 81.0974 39.0258 81.0801 39.0853 81.0366C39.1116 81.0174 39.1435 81.0066 39.1695 80.9869C39.1903 80.9711 39.3771 80.8597 39.3094 80.9015C39.1324 79.9578 38.0793 79.4286 37.2407 79.1678C37.022 79.0998 36.0285 78.7926 35.925 79.1809Z" fill="#B1C9AB"/>
<path d="M36.4103 80.4182C36.2805 80.1682 35.8366 79.5075 35.9267 79.1697C36.0303 78.7814 37.0237 79.0886 37.2424 79.1566C38.081 79.4174 39.1341 79.9466 39.3111 80.8903M36.4647 80.4689C36.5472 80.4395 36.6239 80.3999 36.7043 80.3659C36.7611 80.3418 36.8283 80.3358 36.8889 80.3268C37.0026 80.3099 37.1156 80.3035 37.23 80.3158C37.3642 80.3302 37.4978 80.3522 37.6315 80.3705C37.7242 80.3833 37.8028 80.4009 37.8865 80.4433C37.9594 80.4803 38.0296 80.5098 38.0976 80.5556C38.1524 80.5925 38.2025 80.6336 38.2548 80.6735C38.3269 80.7284 38.3854 80.8112 38.4443 80.8791C38.5007 80.9439 38.5659 81.002 38.6326 81.0562C38.6904 81.1031 38.8146 81.1202 38.8845 81.1033L38.8851 81.1032C38.9554 81.0862 39.0275 81.0689 39.0871 81.0254C39.1133 81.0063 39.1452 80.9954 39.1713 80.9757C39.1921 80.9599 39.2194 80.9423 39.2434 80.932" stroke="#2D433F" stroke-width="0.538717" stroke-linecap="round" stroke-linejoin="round"/>
<path d="M37.1191 79.6445C37.1995 79.7791 37.2799 79.9137 37.3603 80.0483" stroke="#2D433F" stroke-width="0.538717" stroke-linecap="round" stroke-linejoin="round"/>
<path d="M38.5135 80.4631C38.8199 80.6648 39.0262 80.9342 39.1619 81.239C39.4782 80.3719 40.2332 80.6157 40.9291 80.8631C41.625 81.1105 41.9138 82.0707 41.7847 82.7354C41.4689 84.3614 40.1312 84.9995 38.6483 85.1622C37.7671 84.7181 36.9674 84.2811 36.4829 83.3705C35.9846 82.4342 36.1573 81.6151 36.663 80.7352C36.9963 80.1554 37.9902 80.1184 38.5135 80.4631Z" fill="#E0BEA2"/>
<path d="M39.3979 82.3889C39.3875 81.6509 39.2061 80.887 38.5135 80.4526C37.9902 80.1243 36.9963 80.1596 36.663 80.7118C36.1573 81.5498 35.9846 82.3298 36.4829 83.2215C36.9698 84.093 37.7748 84.5089 38.6609 84.934M39.1768 81.1164C39.493 80.2905 40.2332 80.598 40.9291 80.8336C41.625 81.0692 41.9138 81.9837 41.7847 82.6167C41.4646 84.1865 40.0944 84.7894 38.5872 84.934" stroke="#CB906D" stroke-width="0.538717" stroke-linecap="round" stroke-linejoin="round"/>
<path d="M10.0259 91.8091L10.8595 102.438" stroke="#4A5759" stroke-width="0.538717"/>
<path d="M9.24326 92.2891C9.15122 90.8256 8.83607 89.4001 8.5938 87.9566C8.56477 87.6675 8.60344 87.4281 8.94232 87.2681C9.22396 87.1351 9.64633 87.2501 9.94019 87.3235C10.6258 87.4949 11.3669 87.4153 12.0468 87.6245C12.4972 87.7631 12.978 87.6613 13.4407 87.767C13.9634 87.8865 14.4874 87.9931 15.0087 88.1234C16.1054 88.3976 17.0981 88.9053 18.034 89.5173C18.8607 90.0578 19.5148 89.8796 20.4257 89.6519C21.5037 89.3824 22.5485 89.1726 23.6649 89.1926C26.2107 89.238 25.8607 92.1503 26.5832 93.8176C26.9443 94.6508 27.5238 95.4215 27.9335 96.241C28.354 97.082 28.4682 98.1586 28.5394 99.0841C28.6262 100.213 28.0339 101.249 28.1196 102.363C28.1509 102.77 28.4046 103.221 28.282 103.642C28.2 103.923 27.5349 103.804 27.3237 103.804C26.8536 103.804 26.3834 103.741 25.918 103.741C25.1413 103.741 24.3233 104.028 23.554 103.943C23.0825 103.89 22.6125 103.775 22.1403 103.733C21.4267 103.67 20.6977 103.719 19.9902 103.626C18.4559 103.424 16.8689 103.59 15.3216 103.59C14.5904 103.59 13.8523 103.559 13.1239 103.626C12.5004 103.684 11.2466 103.678 10.7242 103.305C10.0263 102.544 9.97946 101.569 9.88475 100.565C9.77549 99.4069 9.73267 98.2469 9.63924 97.0884C9.51023 95.4886 9.34399 93.8907 9.24326 92.2891Z" fill="white"/>
<path d="M8.58594 87.9096C8.8292 89.3692 9.15022 90.8097 9.24326 92.2891C9.34399 93.8907 9.51023 95.4886 9.63924 97.0884C9.73267 98.2469 9.77549 99.4069 9.88475 100.565C9.97946 101.569 10.0263 102.544 10.7242 103.305M8.65721 88.4085C8.59775 87.918 8.43929 87.5056 8.94232 87.2681C9.22396 87.1351 9.64633 87.2501 9.94019 87.3235C10.6258 87.4949 11.3669 87.4153 12.0468 87.6245C12.4972 87.7631 12.978 87.6613 13.4407 87.767C13.9634 87.8865 14.4874 87.9931 15.0087 88.1234C16.1054 88.3976 17.0981 88.9053 18.034 89.5173C18.8607 90.0578 19.5148 89.8796 20.4257 89.6519C21.5037 89.3824 22.5485 89.1726 23.6649 89.1926C26.2107 89.238 25.8607 92.1503 26.5832 93.8176C26.9443 94.6508 27.5238 95.4215 27.9335 96.241C28.354 97.082 28.4682 98.1586 28.5394 99.0841C28.6262 100.213 28.0339 101.249 28.1196 102.363C28.1509 102.77 28.4046 103.221 28.282 103.642C28.2 103.923 27.5349 103.804 27.3237 103.804C26.8536 103.804 26.3834 103.741 25.918 103.741C25.1413 103.741 24.3233 104.028 23.554 103.943C23.0825 103.89 22.6125 103.775 22.1403 103.733C21.4267 103.67 20.6977 103.719 19.9902 103.626C18.4559 103.424 16.8689 103.59 15.3216 103.59C14.5904 103.59 13.8523 103.559 13.1239 103.626C12.5004 103.684 11.6742 103.75 11.1519 103.377" stroke="#C4C4C4" stroke-width="0.538717" stroke-linecap="round" stroke-linejoin="round"/>
<path d="M10.8166 92.0542C10.5266 91.9722 10.2139 91.906 9.97559 91.8257C10.1083 93.0536 10.2544 94.2798 10.3774 95.5088C10.5017 96.7523 10.6656 98.0005 10.7331 99.2486C10.7924 100.346 10.9028 101.474 11.2061 102.533C11.3722 102.994 11.8923 102.944 12.3172 102.944C12.9758 102.944 13.6488 102.902 14.3047 102.96C15.5667 103.073 16.8344 103.008 18.0941 102.865C18.6838 102.798 19.3047 102.817 19.8976 102.817C20.9717 102.817 22.0489 102.824 23.1223 102.849C23.9767 102.868 24.8284 102.851 25.6832 102.849C26.4423 102.09 27.6261 99.5767 27.6261 98.5107C27.6261 97.8506 27.4794 97.1733 27.1985 96.5784C26.7988 95.7319 26.2944 95.345 25.4879 94.8677C25.4879 93.5681 25.1084 91.8906 24.6326 90.6941C24.3632 90.0168 23.9952 89.9384 23.2862 90.0051C22.2051 90.1069 21.0737 90.7014 20.0025 90.8763C19.7363 90.7587 19.4619 90.6559 19.1759 90.5714C18.3621 90.3309 17.3982 90.445 16.5743 90.5199C15.5531 90.6127 14.4896 90.6406 13.4897 90.8763C12.5893 91.0885 11.5433 91.4403 10.8166 92.0542Z" fill="#9AD5AF"/>
<path d="M18.7784 94.8551C17.328 93.9688 16.494 92.288 15.9751 90.7419C16.0824 90.6882 16.2174 90.6794 16.3358 90.665C16.4269 90.6539 16.5186 90.6436 16.6092 90.6285C16.6991 90.6135 16.7913 90.5941 16.8826 90.591C17.0044 90.5868 17.1258 90.5856 17.2478 90.5848C17.3802 90.584 17.5121 90.5674 17.6446 90.5674H18.0667C18.2138 90.5674 18.3605 90.5848 18.5075 90.5848C18.6292 90.5848 18.7557 90.5953 18.8766 90.6081C19.0325 90.6246 19.1926 90.6542 19.3459 90.6863C19.4992 90.7185 19.6515 90.7506 19.8025 90.791C19.9647 90.8345 20.141 90.8881 20.2637 91.0108C20.3133 91.0604 20.3669 91.1058 20.4169 91.1549C20.4374 91.175 20.4584 91.1943 20.4789 91.2144C20.5025 91.2375 20.5279 91.2516 20.5529 91.2716C20.6037 91.3122 20.664 91.3531 20.6929 91.4109C20.6929 92.2518 20.4394 93.1809 19.9664 93.881C19.7606 94.1855 19.2522 95.1446 18.7784 94.8551Z" fill="#59946E"/>
<path d="M15.9985 90.832C16.5174 92.3782 17.3279 93.9688 18.7783 94.8552C19.2521 95.1447 19.7605 94.1856 19.9663 93.8811C20.4393 93.1809 20.7028 92.3858 20.7028 91.5448" stroke="#4A5759" stroke-width="0.538717" stroke-linecap="round" stroke-linejoin="round"/>
<path d="M14.9128 101.416C14.4577 101.852 14.2427 102.39 13.9854 102.993H17.9848C18.0142 102.756 18.2963 102.05 18.0599 101.896C17.8748 101.775 17.5182 101.977 17.301 101.93C16.7653 101.815 17.4131 100.712 16.4387 101.142C16.3157 101.197 15.6636 101.681 15.644 101.322C15.6396 101.242 15.6962 100.881 15.5645 100.911C15.3358 100.964 15.0789 101.257 14.9128 101.416Z" fill="#9AD5AF"/>
<path d="M14.1571 93.6869C14.5269 93.1693 14.9537 93.0018 15.5708 92.8989C15.8614 93.1896 16.7466 94.0342 16.5251 94.5264C16.3611 94.8908 15.2141 94.6936 14.9135 94.665C14.3497 94.6113 13.6922 94.3379 14.1571 93.6869Z" fill="#59946E"/>
<path d="M15.5708 92.8989C14.9537 93.0018 14.5269 93.1693 14.1571 93.6869C13.6922 94.3379 14.3497 94.6113 14.9135 94.665C15.2141 94.6936 16.3611 94.8908 16.5251 94.5264C16.7466 94.0342 15.9327 93.2609 15.6421 92.9702" stroke="#4A5759" stroke-width="0.538717" stroke-linecap="round" stroke-linejoin="round"/>
<path d="M17.1392 99.2426C18.3441 99.8219 19.9758 99.8985 20.9168 98.9575" stroke="#4A5759" stroke-width="0.538717" stroke-linecap="round" stroke-linejoin="round"/>
<path d="M13.9316 102.664C14.1881 102.106 14.4601 101.8 14.9137 101.397C15.0792 101.25 15.3352 100.978 15.5631 100.929C15.6943 100.901 15.6379 101.236 15.6423 101.31C15.6618 101.642 16.3117 101.193 16.4342 101.143C17.4052 100.745 16.7597 101.765 17.2935 101.872C17.51 101.915 17.8654 101.728 18.0498 101.84C18.2853 101.983 18.0237 102.8 17.9944 103.02" stroke="#4A5759" stroke-width="0.538717" stroke-linecap="round" stroke-linejoin="round"/>
<path d="M22.7661 102.062C22.8816 102.308 22.9399 102.761 22.969 103.024C24.3844 103.024 25.7991 103.001 27.2111 103C26.9462 102.501 26.7327 102.047 26.227 101.741C25.9074 101.548 25.5809 101.371 25.2648 101.171C25.0214 101.018 24.6558 100.823 24.354 100.89C24.1868 100.927 24.3878 101.151 24.2273 101.151C24.0252 101.151 23.1717 100.802 23.1027 101.104C23.0652 101.268 23.2232 101.599 23.0631 101.722C23.0034 101.767 22.6196 101.801 22.6196 101.88C22.6196 101.923 22.7497 102.027 22.7661 102.062Z" fill="#9AD5AF"/>
<path d="M22.9127 102.878C22.8835 102.615 22.8816 102.308 22.7661 102.062C22.7497 102.027 22.6196 101.923 22.6196 101.88C22.6196 101.801 23.0034 101.767 23.0631 101.722C23.2232 101.599 23.0652 101.268 23.1027 101.104C23.1717 100.802 24.0252 101.151 24.2273 101.151C24.3878 101.151 24.1868 100.927 24.354 100.89C24.6558 100.823 25.0214 101.018 25.2648 101.171C25.5809 101.371 25.9074 101.548 26.227 101.741C26.7637 102.066 26.9713 102.558 27.2605 103.092" stroke="#4A5759" stroke-width="0.538717" stroke-linecap="round" stroke-linejoin="round"/>
<path d="M13.5062 90.7442C12.6125 89.8505 10.6993 89.546 9.62305 88.9497C9.62698 89.7168 9.74219 90.621 9.90575 91.3751C9.98347 91.7335 9.92542 91.774 10.2531 91.8614C10.4282 91.9081 11.0048 91.9161 11.1382 91.8107C11.3803 91.6196 11.6261 91.443 11.9032 91.3045C12.1658 91.1732 12.4419 91.0931 12.719 91.0013C12.9768 90.916 13.2788 90.8806 13.5062 90.7442Z" fill="#9FDB82"/>
<path d="M9.64556 87.92C9.72003 87.9486 9.78685 87.9957 9.85463 88.0407C10.0854 88.1561 10.3484 88.1937 10.5846 88.3118C10.7492 88.3941 10.9543 88.4139 11.131 88.4634C11.3255 88.5178 11.5296 88.5504 11.7206 88.6166C11.8982 88.678 12.0929 88.696 12.274 88.7413C12.4719 88.7907 12.6906 88.7595 12.8913 88.7967C13.071 88.83 13.2562 88.8309 13.4378 88.8529C13.5694 88.8687 13.6955 88.9112 13.8257 88.9275C13.9807 88.9469 14.1246 89.0146 14.2775 89.0391C14.4916 89.0734 14.707 89.1222 14.9241 89.1222C15.0278 89.1222 15.1199 89.1522 15.2227 89.1669C15.3163 89.1803 15.4044 89.198 15.4921 89.2331C15.5721 89.2651 15.6544 89.2904 15.7353 89.3193C15.8094 89.3457 15.8842 89.389 15.9601 89.4101C16.0826 89.4442 16.1666 89.5497 16.2679 89.621C16.3877 89.7053 16.4868 89.8158 16.6081 89.8981C16.6555 89.9302 16.6894 89.9862 16.7359 90.012C16.7706 90.0313 16.8236 90.0707 16.8467 90.1028C16.9066 90.1859 17.0285 90.329 16.9129 90.4215C16.8839 90.4447 16.7722 90.4504 16.7359 90.4523C16.6741 90.4554 16.6139 90.4756 16.5527 90.48C16.3894 90.4916 16.2246 90.554 16.0624 90.5846C15.7575 90.6423 15.4391 90.6869 15.1288 90.7024C14.9656 90.7106 14.7736 90.7221 14.6154 90.764C14.4797 90.7999 14.3367 90.8008 14.1998 90.8333C14.0523 90.8682 13.8747 90.9132 13.7226 90.8887C13.6381 90.8751 13.5023 90.8766 13.4324 90.8194C13.3689 90.7675 13.3164 90.7259 13.2646 90.6601C13.1797 90.552 13.0232 90.4698 12.9121 90.3899C12.7026 90.2393 12.4865 90.1409 12.2556 90.0305C12.0875 89.9501 11.9047 89.8988 11.7414 89.808C11.6455 89.7548 11.5384 89.731 11.4366 89.6903C11.2808 89.6279 11.1189 89.5745 10.9671 89.5032C10.7055 89.3804 10.4435 89.2438 10.172 89.1469C10.1257 89.1303 10.0894 89.1024 10.0412 89.0915C9.95074 89.0709 9.85025 89.0422 9.76717 89.0006C9.55639 88.8952 9.57321 88.7189 9.57321 88.505C9.57321 88.3248 9.62645 88.0974 9.5455 87.9308C9.53191 87.9028 9.47578 87.8251 9.53472 87.8723C9.55836 87.8912 9.6156 87.9085 9.64556 87.92Z" fill="#9FDB82"/>
<path d="M10.2251 88.1948C11.4521 88.7934 12.8059 88.7305 14.1295 88.9432C15.0629 89.0932 16.4339 89.4181 16.9964 90.2618" stroke="#4A5759" stroke-width="0.538717" stroke-linecap="round" stroke-linejoin="round"/>
<path d="M10.0112 89.0498C11.0875 89.6461 12.5388 89.7242 13.4325 90.6179" stroke="#4A5759" stroke-width="0.538717" stroke-linecap="round" stroke-linejoin="round"/>
<path d="M10.2251 91.8303C10.6102 91.9599 11.0014 92.0758 11.3655 92.2579M11.1517 91.8302C11.8783 91.2163 12.651 91.1158 13.5513 90.9036C14.5513 90.6679 15.6148 90.6401 16.636 90.5472C17.4599 90.4723 18.4238 90.3583 19.2376 90.5987C20.1391 90.8651 20.9264 91.3141 21.7006 91.8302M20.1325 90.476C21.2036 90.3011 22.2668 90.1342 23.3479 90.0325C24.0569 89.9657 24.4248 90.0441 24.6942 90.7215C25.1701 91.9179 25.6208 93.2391 25.6208 94.5387M25.5495 94.8951C26.356 95.3724 26.8604 95.7592 27.2601 96.6057C27.5411 97.2006 27.6878 97.8779 27.6878 98.5381C27.6878 99.6041 27.3066 100.907 26.5474 101.666" stroke="#4A5759" stroke-width="0.538717" stroke-linecap="round" stroke-linejoin="round"/>
<path d="M12.2449 95.6074C10.9864 96.2367 10.9536 98.0506 11.7222 99.0287C12.7054 99.5203 13.9712 99.9039 15.0088 99.3851C15.997 98.891 16.0239 97.5451 15.6028 96.6687C15.0117 95.4385 13.4614 94.9992 12.2449 95.6074Z" fill="#4A5759"/>
<path d="M11.7222 99.0287C10.9536 98.0506 10.9864 96.2367 12.2449 95.6074C13.4614 94.9992 15.0117 95.4385 15.6028 96.6687C16.0239 97.5451 15.997 98.891 15.0088 99.3851C13.9712 99.9039 12.7767 99.6629 11.7935 99.1713" stroke="#4A5759" stroke-width="0.538717" stroke-linecap="round" stroke-linejoin="round"/>
<path d="M13.1952 97.2783C12.9182 96.7986 13.2015 96.5116 13.5977 96.3013C14.5351 95.5413 15.4346 97.5218 14.6999 97.8326C14.2603 98.0186 13.4256 97.6772 13.1952 97.2783Z" fill="white"/>
<path d="M13.6463 96.2487C13.2501 96.459 12.9179 96.7986 13.1949 97.2783C13.4253 97.6772 14.26 98.0186 14.6996 97.8326C15.4401 97.5193 14.5204 95.5096 13.575 96.32" stroke="#4A5759" stroke-width="0.538717" stroke-linecap="round" stroke-linejoin="round"/>
<path d="M11.2707 99.734C11.1717 99.1401 11.5854 99.1063 12.0213 99.2092C12.5014 99.1622 12.9896 99.2647 13.4248 99.4885C14.0535 99.8118 13.5424 100.033 13.0843 100.13C12.5669 100.239 11.3945 100.477 11.2707 99.734Z" fill="#42D2F2"/>
<path d="M11.5131 99.5854C11.4517 99.2827 11.7085 99.2655 11.9791 99.3179C12.2771 99.294 12.5802 99.3462 12.8504 99.4603C13.2407 99.625 12.9234 99.7378 12.639 99.7872C12.3178 99.8429 11.59 99.9641 11.5131 99.5854Z" fill="white"/>
<path d="M12.0588 99.3352C11.7619 99.2648 11.4456 99.253 11.5131 99.5854C11.59 99.9641 12.3178 99.8429 12.639 99.7872C12.9234 99.7378 13.2407 99.625 12.8504 99.4603C12.5373 99.3281 12.18 99.2789 11.8376 99.3352" stroke="#4A5759" stroke-width="0.538717" stroke-linecap="round" stroke-linejoin="round"/>
<path d="M12.1497 99.243C11.6714 99.105 11.162 99.0819 11.2707 99.734C11.3945 100.477 12.5669 100.239 13.0843 100.13C13.5424 100.033 14.0535 99.8118 13.4248 99.4885C12.9205 99.2291 12.345 99.1327 11.7934 99.243" stroke="#4A5759" stroke-width="0.538717" stroke-linecap="round" stroke-linejoin="round"/>
<path d="M12.023 98.213C12.0603 98.4852 12.4206 98.7166 12.6151 98.8779C13.0207 98.6076 12.9665 98.2889 12.6011 98.0071C12.3615 97.8222 11.9698 97.8259 12.023 98.213Z" fill="white"/>
<path d="M12.5061 98.8149C12.3115 98.6535 12.0603 98.4852 12.023 98.213C11.9698 97.8259 12.3615 97.8222 12.6011 98.0071C12.9665 98.2889 13.1254 98.6871 12.7199 98.9574" stroke="#4A5759" stroke-width="0.538717" stroke-linecap="round" stroke-linejoin="round"/>
<path d="M13.8405 99.108C13.7269 99.0228 13.8992 98.6607 13.9337 98.6022C14.169 98.6092 14.7189 98.66 14.4622 99.0129C14.3709 99.1385 13.9647 99.2011 13.8405 99.108Z" fill="white"/>
<path d="M13.935 98.6001C13.9037 98.6513 13.7254 99.0217 13.8405 99.108C13.9647 99.2011 14.3709 99.1385 14.4622 99.0129C14.7523 98.614 14.012 98.6011 13.8603 98.6011" stroke="#4A5759" stroke-width="0.538717" stroke-linecap="round" stroke-linejoin="round"/>
<path d="M21.4198 97.4255C20.6283 95.9743 21.7851 95.0527 22.984 94.5388C24.1531 94.22 24.9198 94.9351 25.2886 96.0079C25.5703 96.8275 25.5014 98.1279 24.5204 98.4432C23.3973 98.8042 22.0226 98.5306 21.4198 97.4255Z" fill="#4A5759"/>
<path d="M22.984 94.5384C21.7851 95.0522 20.6283 95.9739 21.4198 97.4251C22.0226 98.5301 23.3973 98.8037 24.5204 98.4427C25.5014 98.1274 25.5703 96.827 25.2886 96.0075C24.9198 94.9346 24.2243 94.2908 23.0552 94.6096" stroke="#4A5759" stroke-width="0.538717" stroke-linecap="round" stroke-linejoin="round"/>
<path d="M24.7656 98.1894C24.8498 97.7577 25.1928 97.6387 25.5787 97.5335C26.1356 97.4263 26.7542 97.4031 27.2603 97.6746C27.5697 97.8406 27.5522 98.6112 27.2603 98.7834C26.6682 99.1326 25.725 99.0589 25.1141 98.8309C24.8156 98.7194 24.7047 98.5024 24.7656 98.1894Z" fill="#42D2F2"/>
<path d="M25.5787 97.5335C25.1928 97.6387 24.8498 97.7577 24.7656 98.1894C24.7047 98.5024 24.8156 98.7194 25.1141 98.8309C25.725 99.0589 26.6682 99.1326 27.2603 98.7834C27.5522 98.6112 27.5697 97.8406 27.2603 97.6746C26.6566 97.3507 25.8927 97.4463 25.2646 97.6033" stroke="#4A5759" stroke-width="0.538717" stroke-linecap="round" stroke-linejoin="round"/>
<path d="M25.1697 97.9594C25.2937 97.6405 25.782 97.6794 26.0488 97.6743C26.2933 97.7151 26.6883 97.8635 26.6982 98.1614C26.7103 98.5235 26.0405 98.427 25.8429 98.4029C25.6663 98.3814 25.061 98.239 25.1697 97.9594Z" fill="white" stroke="#4A5759" stroke-width="0.538717" stroke-linecap="round" stroke-linejoin="round"/>
<path d="M22.849 96.1704C22.4787 95.5532 23.7303 95.1865 24.0776 95.3353C24.5639 95.5437 24.8551 96.7734 24.0924 96.7881C23.6518 96.7966 23.079 96.5536 22.849 96.1704Z" fill="white"/>
<path d="M23.8392 95.3226C23.435 95.2777 22.4789 95.5528 22.8492 96.17C23.0792 96.5533 23.652 96.7962 24.0926 96.7877C24.8553 96.773 24.5339 95.6786 24.2668 95.3226" stroke="#4A5759" stroke-width="0.538717" stroke-linecap="round" stroke-linejoin="round"/>
<path d="M21.9583 97.5594C21.7178 97.3189 21.7853 96.7936 22.2021 96.7241C22.4105 96.7241 22.6718 96.7914 22.7542 97.0248C22.8252 97.2261 22.8318 97.5685 22.6195 97.694C22.3971 97.8254 22.1235 97.7246 21.9583 97.5594Z" fill="white"/>
<path d="M21.9147 96.8193C21.8219 97.1095 21.7179 97.3194 21.9583 97.5598C22.1235 97.725 22.3972 97.8259 22.6196 97.6944C22.8319 97.569 22.8253 97.2265 22.7542 97.0252C22.6718 96.7918 22.4083 96.7897 22.1998 96.748" stroke="#4A5759" stroke-width="0.538717" stroke-linecap="round" stroke-linejoin="round"/>
<path d="M24.1243 97.4604C23.5347 97.4604 23.5248 98.2438 24.1956 98.1693C24.6809 98.1153 24.4252 97.4884 24.1243 97.4604Z" fill="white"/>
<path d="M24.124 97.4604C23.4847 97.6395 23.5245 98.2438 24.1953 98.1693C24.6806 98.1153 24.4351 97.703 24.1953 97.5317" stroke="#4A5759" stroke-width="0.538717" stroke-linecap="round" stroke-linejoin="round"/>
</svg>
