<svg width="97" height="88" viewBox="0 0 97 88" fill="none" xmlns="http://www.w3.org/2000/svg">
<path d="M13.4081 23.352V32.16H25.0721V37.8H13.4081V51H5.51213V17.736H27.3761L26.5601 23.352H13.4081ZM48.3094 43.824H38.5654L36.8134 51H28.5814L38.7574 17.736H48.3094L58.4854 51H50.0614L48.3094 43.824ZM39.8134 38.112H47.0134L43.4134 23.4L39.8134 38.112ZM85.4666 34.344C85.4666 37.624 84.9546 40.568 83.9306 43.176C82.9226 45.784 81.0986 47.76 78.4586 49.104C80.2026 49.392 81.6906 49.824 82.9226 50.4C84.1706 50.96 85.2266 51.768 86.0906 52.824C86.9706 53.896 87.7146 55.328 88.3226 57.12L81.8906 59.304C81.1866 57.64 80.4266 56.24 79.6106 55.104C78.7946 53.968 77.7706 53.112 76.5386 52.536C75.3226 51.96 73.7466 51.672 71.8106 51.672C67.6506 51.672 64.5466 50.136 62.4986 47.064C60.4666 43.976 59.4506 39.736 59.4506 34.344C59.4506 30.824 59.9226 27.76 60.8666 25.152C61.8266 22.544 63.2666 20.52 65.1866 19.08C67.1226 17.624 69.5386 16.896 72.4346 16.896C76.7866 16.896 80.0426 18.456 82.2026 21.576C84.3786 24.696 85.4666 28.952 85.4666 34.344ZM77.2586 34.344C77.2586 30.28 76.9306 27.32 76.2746 25.464C75.6186 23.608 74.3386 22.68 72.4346 22.68C70.5626 22.68 69.2826 23.616 68.5946 25.488C67.9226 27.344 67.5866 30.296 67.5866 34.344C67.5866 38.408 67.9306 41.376 68.6186 43.248C69.3226 45.12 70.5946 46.056 72.4346 46.056C74.3546 46.056 75.6346 45.12 76.2746 43.248C76.9306 41.36 77.2586 38.392 77.2586 34.344Z" fill="#2F4246"/>
<path d="M43.6813 14.1721C42.3532 13.3182 35.6678 11.8809 35.1248 14.4677C34.1607 19.06 40.7909 16.2591 43.6813 14.1721Z" fill="white"/>
<path d="M45.4644 13.4921C44.7129 14.995 41.6072 24.1727 45.7144 23.8133C49.0002 23.5257 48.3846 15.2351 45.4644 13.4921Z" fill="white"/>
<path d="M51.407 18.8778C52.1668 16.0998 47.8595 14.2232 45.2244 14.8192C45.8575 16.3456 46.4125 20.056 46.919 21.2772C47.5522 22.8036 50.4572 22.3503 51.407 18.8778Z" fill="#F8F8F8"/>
<path d="M35.4105 19.9703C32.8406 17.9778 39.2436 15.3707 42.7663 14.3162C42.905 14.4729 42.9289 14.7529 42.8772 15.1011C43.3275 14.6157 43.8057 14.2125 44.2933 13.9302C45.0196 16.6979 44.1014 25.4327 41.174 24.2052C39.7974 23.6279 39.6908 21.7351 40.3002 19.697C39.0493 20.6949 37.2291 21.3804 35.4105 19.9703Z" fill="#F8F8F8"/>
<path d="M46.3328 12.5094C45.2122 10.8921 42.8038 12.6766 42.1313 14.3367C42.0722 15.5932 44.5292 15.858 45.765 15.8333C46.6823 15.7763 48.0801 15.0316 46.3328 12.5094Z" fill="#ECCA73"/>
<path d="M41.4934 13.6334C40.6651 12.8745 39.7933 12.3241 38.852 11.7346C38.1878 11.3187 37.9666 11.0496 37.2154 11.2343C36.2938 11.4608 35.3691 11.9799 34.4399 12.0944C34.2234 12.121 33.8739 12.3654 33.6582 12.3193C33.3106 12.2452 32.5566 12.3867 32.5655 12.8532C32.5738 13.2884 32.4209 13.9373 32.6065 14.3533C33.0046 15.2459 34.1239 15.4982 34.997 15.8267C35.7881 16.1244 36.8594 16.6381 37.7125 16.396C38.9565 16.043 39.78 14.6573 40.9319 14.1616" stroke="#4A5759" stroke-width="1.5" stroke-linecap="round" stroke-linejoin="round"/>
<path d="M41.0737 14.4249C39.9285 15.4865 38.5094 16.305 37.0547 16.8025C36.5658 16.9697 35.9782 16.9974 35.5132 17.2241C34.5004 17.7179 33.7891 17.8365 33.3068 18.9865C33.1835 19.2803 33.1046 19.9646 33.1274 20.2936C33.1505 20.6271 33.0567 20.441 33.2036 20.3272C33.3934 20.1802 33.6514 20.1212 33.8849 20.1323C34.0879 20.1419 34.5697 20.6071 34.7233 20.7119C35.0853 20.959 35.4472 21.4431 35.874 21.5342C36.4431 21.6557 36.8642 21.7404 37.4094 21.5057C39.7855 20.4832 40.8966 18.3911 41.7093 15.9205" stroke="#4A5759" stroke-width="1.5" stroke-linecap="round" stroke-linejoin="round"/>
<path d="M42.3042 16.0708C41.6737 17.212 40.7678 18.1567 40.133 19.3C39.6072 20.2469 38.8618 21.2144 38.5499 22.2708C38.0589 23.934 39.3633 24.867 40.5308 25.6947C41.0411 26.0565 41.0754 26.171 41.4113 25.6027C41.9978 24.6103 42.6947 24.0229 43.573 23.3577C44.3489 22.77 44.5846 21.6199 44.8572 20.7147C45.1435 19.7641 45.192 18.6133 45.0063 17.6332C44.906 17.1038 44.5968 16.918 44.228 16.5801" stroke="#4A5759" stroke-width="1.5" stroke-linecap="round" stroke-linejoin="round"/>
<path d="M45.487 16.8894C46.4728 17.5466 47.316 18.4348 48.1942 19.2394C48.4639 19.4865 48.7662 19.7741 48.7324 20.1955C48.6897 20.729 48.7063 21.2925 48.6797 21.8325C48.6669 22.0914 48.502 22.8363 48.3689 23.0452C48.2897 23.1694 48.4402 24.0219 48.3653 23.9533C47.9946 23.6137 47.5203 23.3917 47.1971 23.006C46.6809 22.3902 46.1517 21.755 45.6962 21.0885C45.5204 20.8311 45.548 20.6204 45.4276 20.3505C45.1791 19.7935 44.9702 18.803 45.0449 18.177" stroke="#4A5759" stroke-width="1.5" stroke-linecap="round" stroke-linejoin="round"/>
<path d="M46.9504 14.8179C47.9905 14.7591 48.8862 15.0053 49.8793 15.302C50.3895 15.4544 50.6267 15.5557 50.9477 15.9769C51.2545 16.3797 51.718 16.6294 52.0411 17.0149C52.1703 17.169 52.5111 17.7804 52.7621 17.7333C53.0476 17.6797 53.6336 18.0463 53.936 18.1216C54.0853 18.1588 54.4171 18.0551 54.2292 18.3613C53.8702 18.9465 53.4998 19.5341 52.9111 19.8882C51.3015 20.8563 49.175 19.58 47.9933 18.3777C47.6436 18.0219 47.324 17.369 47.1607 16.8987C47.0925 16.7022 47.0187 16.4908 47.0147 16.2802C47.011 16.0882 47.1409 15.8738 47.079 15.717" stroke="#4A5759" stroke-width="1.5" stroke-linecap="round" stroke-linejoin="round"/>
<path d="M42.913 15.9245C42.4524 15.5025 41.8149 14.7484 41.6712 14.0998C41.6181 13.9653 41.6608 13.1221 41.7551 13.0081C42.0809 12.614 42.8296 11.9438 43.3034 11.8533C44.5402 11.617 46.2346 11.5674 46.7289 13.0457C46.9398 13.6766 46.5442 14.6268 46.4375 14.9901C46.2405 15.6611 46.0985 15.8329 45.8288 16.159C45.674 16.3462 45.1353 16.5831 44.9124 16.625C44.6174 16.6803 44.2908 16.5001 44.0297 16.5404C43.8468 16.5309 43.1813 16.1704 42.913 15.9245Z" stroke="#4A5759" stroke-width="1.5" stroke-linecap="round" stroke-linejoin="round"/>
</svg>
