<svg width="448" height="82" viewBox="0 0 448 82" fill="none" xmlns="http://www.w3.org/2000/svg">
<path d="M151.578 45.0264C152.04 43.0356 152.39 41.0502 152.929 39.0714C153.213 38.2579 154.086 37.252 154.623 36.5961C156.428 34.3913 158.729 32.6301 161.592 32.1477C163.983 31.7448 166.151 32.2109 168.401 33.0044C170.314 33.679 171.661 35.358 172.843 36.9259C173.395 37.659 173.725 38.507 174.07 39.3513C174.519 40.4495 174.969 41.5328 175.277 42.6816C175.763 44.4925 175.911 46.5089 175.561 48.3568C175.356 49.4403 175.058 50.5559 174.61 51.5624C174.273 52.3178 173.596 53.3798 173.77 54.2572C173.906 54.9415 174.492 55.0255 175.11 55.1581C175.847 55.3163 176.614 55.3702 177.32 55.6569C178.25 56.0343 179.125 56.2706 180.103 56.5136C180.966 56.7279 181.749 57.2592 182.622 57.4145C183.672 57.6014 184.723 57.7218 185.784 57.8087C186.822 57.8937 187.773 57.5861 188.667 57.0646C189.095 56.8152 189.57 56.585 189.942 56.2522C190.325 55.9102 190.665 55.5203 191.05 55.1783C191.547 54.7363 192.295 54.3411 192.977 54.4784C194.037 54.6918 194.427 55.6531 194.788 56.544L194.808 56.594C195.084 57.2749 195.547 57.8446 195.744 58.5689C195.972 59.4112 196.059 60.3922 195.96 61.2597C195.776 62.8647 195.181 64.4018 195.016 66.0138C194.934 66.8132 194.672 67.5628 194.532 68.3507C194.376 69.2327 194.209 70.1397 193.932 70.9932C193.241 73.1267 191.89 74.7256 190.146 76.1093C187.114 78.5153 183.315 78.3071 179.703 78.9127C177.606 79.2643 175.433 79.3922 173.314 79.5361C172.229 79.6099 171.145 79.5201 170.064 79.4275C168.79 79.3185 167.521 79.5338 166.25 79.5643C163.947 79.6194 161.693 79.3459 159.401 79.2224C157.496 79.1197 155.616 78.9266 153.72 78.6995C151.79 78.4684 149.612 78.7233 147.911 77.6216C145.764 76.2323 144.235 74.5251 143.641 71.9987C143.387 70.921 143.243 69.8341 143.297 68.7247C143.356 67.5046 143.378 66.2145 143.921 65.0927C144.431 64.0366 145.246 62.87 146.04 62.0158C147.036 60.9422 148.228 60.1131 149.302 59.128C149.941 58.5419 150.487 57.8688 151.125 57.2778L151.128 57.2747C151.661 56.7813 151.643 56.7501 151.915 55.7858C152.53 54.6389 151.954 54.0885 151.331 53.105C150.819 52.2972 151.026 51.0344 151.136 50.1336C151.343 48.4442 151.19 46.6948 151.578 45.0264Z" fill="#93BB94"/>
<path d="M171.46 38.1945C170.67 36.6141 169.656 35.2586 168.545 33.9008C168.852 33.9008 169.501 33.727 169.77 33.8766C170.027 34.0192 170.505 34.3141 170.683 34.5575C171.24 35.3205 172.142 35.7015 172.574 36.5641C172.747 36.9118 172.86 37.2304 173.11 37.542C173.384 37.8851 173.441 38.2842 173.551 38.7011C173.71 39.2989 173.897 39.8781 174.059 40.4758C174.188 40.9547 174.375 41.4371 174.529 41.9101C174.711 42.4655 174.797 43.0421 174.953 43.6052C175.105 44.1521 175.125 44.7981 175.214 45.3655C175.364 46.3234 174.97 47.2943 174.823 48.2341C174.75 48.6983 174.534 49.1393 174.468 49.6032C174.424 49.9075 174.301 50.39 174.171 50.6753C174.047 50.9471 174.047 51.328 174.004 51.6242C173.958 51.9507 173.9 52.3219 173.78 52.6348C173.675 52.9065 173.634 53.2317 173.519 53.4859C173.45 53.6385 173.478 53.7606 173.385 53.9133C173.166 54.272 172.773 54.473 172.481 54.773C171.62 55.2035 170.665 55.8611 169.618 55.9657C168.386 56.0889 167.376 56.6813 166.1 56.6813C165.465 56.6813 164.693 56.5742 164.072 56.4361C163.687 56.3506 163.237 55.9657 162.88 55.9657C162.631 55.9657 162.575 55.8464 162.88 55.8464H163.708C164.122 55.8464 164.709 55.6825 165.086 55.5151C166.153 55.041 167.052 54.6658 167.949 53.8188C169.3 52.5429 170.504 51.0803 171.341 49.4059C172.402 47.2838 172.989 44.7418 172.66 42.3689C172.447 40.8368 172.15 39.5738 171.46 38.1945Z" fill="#6F9570"/>
<path d="M145.135 65.9541C145.171 65.7004 145.22 65.4587 145.279 65.2267C144.835 66.3719 144.572 67.5831 144.572 68.9298C144.572 70.1405 144.702 71.4059 145.027 72.5612C145.193 73.1493 145.438 73.6883 145.627 74.2634C145.814 74.8305 146.204 75.1978 146.515 75.6882C147.217 76.7939 148.254 76.9354 149.323 77.4408C149.811 77.6714 150.402 77.7136 150.919 77.8948C151.53 78.1088 152.143 78.3581 152.779 78.5252C153.791 78.7911 154.972 79.0975 156.018 79.1178C157.118 79.1392 158.194 79.4334 159.282 79.4583C161.212 79.5024 163.128 79.5718 165.065 79.5718H170.897C171.9 79.5718 172.907 79.4752 173.92 79.4583C174.559 79.4476 175.514 79.3903 176.128 79.2061C176.907 78.9723 177.763 78.9555 178.564 78.8026C179.284 78.665 180.126 78.4784 180.855 78.4369C181.778 78.3846 182.777 78.1278 183.687 77.9578C184.761 77.7572 185.828 77.5364 186.903 77.3274C188.426 77.031 189.992 76.4604 191.306 75.6252C192.282 75.0049 192.795 74.065 193.25 72.9899C193.749 71.8106 193.66 70.3475 194.054 69.1063C194.525 67.6228 194.924 64.6649 195.188 63.1395C195.499 63.6286 195.31 57.9347 195.188 58.3825C195.038 58.9362 194.92 59.9106 194.678 60.4193C194.013 61.817 192.424 70.109 191.306 71.1994C190.352 72.1308 189.167 72.7968 188.091 73.551C186.944 74.3542 185.546 74.6378 184.257 75.0893C183.337 75.4115 182.402 75.5406 181.461 75.7639C180.511 75.9893 179.575 76.2563 178.612 76.4195C178.298 76.4728 178.006 76.6265 177.7 76.7095C177.03 76.8911 176.177 76.8173 175.492 76.8482C173.811 76.9242 172.104 77.1682 170.429 77.1887C168.238 77.2154 166.03 77.116 163.847 76.968C161.885 76.835 159.915 76.7643 157.962 76.5078C155.156 76.1391 152.272 76.0864 149.539 75.3478C148.454 75.0545 147.402 74.1489 146.629 73.3366C145.917 72.5878 145.381 71.499 145.225 70.4366C145.011 68.9706 144.927 67.4348 145.135 65.9541Z" fill="#6F9570"/>
<path d="M150.292 45.0264C150.754 43.0356 151.104 41.0502 151.643 39.0714C151.927 38.2579 152.801 37.252 153.338 36.5961C155.143 34.3913 157.444 32.6301 160.306 32.1477C162.697 31.7448 164.865 32.2109 167.115 33.0044C169.028 33.679 170.375 35.358 171.557 36.9259C172.11 37.659 172.439 38.507 172.784 39.3513C173.233 40.4495 173.684 41.5328 173.992 42.6816C174.478 44.4925 174.625 46.5089 174.276 48.3568C174.071 49.4403 173.773 50.5559 173.324 51.5624C172.988 52.3178 172.31 53.3798 172.485 54.2572C172.621 54.9415 173.206 55.0255 173.824 55.1581C174.561 55.3163 175.329 55.3702 176.035 55.6569C176.965 56.0343 177.839 56.2706 178.817 56.5136C179.68 56.7279 180.463 57.2592 181.336 57.4145C182.386 57.6014 183.437 57.7218 184.499 57.8087C185.536 57.8937 186.487 57.5861 187.381 57.0646C187.809 56.8152 188.285 56.585 188.657 56.2522C189.039 55.9102 189.38 55.5203 189.764 55.1783C190.261 54.7363 191.009 54.3411 191.691 54.4784C192.752 54.6918 193.141 55.6531 193.502 56.544L193.522 56.594C193.799 57.2749 194.262 57.8446 194.458 58.5689C194.686 59.4112 194.773 60.3922 194.674 61.2597C194.49 62.8647 193.895 64.4018 193.73 66.0138C193.649 66.8132 193.386 67.5628 193.247 68.3507C193.09 69.2327 192.923 70.1397 192.647 70.9932C191.955 73.1267 190.604 74.7256 188.861 76.1093C185.828 78.5153 182.03 78.3071 178.418 78.9127C176.32 79.2643 174.148 79.3922 172.029 79.5361C170.943 79.6099 169.86 79.5201 168.778 79.4275C167.505 79.3185 166.236 79.5338 164.964 79.5643C162.661 79.6194 160.408 79.3459 158.115 79.2224C156.211 79.1197 154.33 78.9266 152.434 78.6995C150.504 78.4684 148.327 78.7233 146.625 77.6216C144.479 76.2323 142.95 74.5251 142.355 71.9987C142.101 70.921 141.957 69.8341 142.011 68.7247C142.07 67.5046 142.093 66.2146 142.635 65.0927C143.145 64.0366 143.961 62.87 144.754 62.0158C145.751 60.9422 146.942 60.1131 148.016 59.128C148.655 58.5419 149.201 57.8688 149.839 57.2778L149.843 57.2747C150.376 56.7813 150.357 56.7501 150.63 55.7858C151.245 54.6389 150.668 54.0885 150.045 53.105C149.533 52.2972 149.74 51.0344 149.85 50.1336C150.057 48.4442 149.905 46.6948 150.292 45.0264Z" stroke="#83A984" stroke-width="2" stroke-linecap="round" stroke-linejoin="round"/>
<path d="M156.777 38.7082C157.148 38.1683 157.557 37.5908 158.127 37.2044C158.533 37.0977 158.924 37.1017 159.22 37.4505C159.472 37.7465 159.323 38.2015 159.201 38.5193C158.838 39.4588 158.095 40.4361 157.104 40.9305C156.898 41.0337 156.475 41.1602 156.297 40.9404C156.027 40.6063 156.172 40.1217 156.279 39.7629L156.282 39.7554C156.396 39.3727 156.544 39.0456 156.777 38.7082Z" fill="#2E2E2E"/>
<path d="M150.126 41.4352C151.058 41.5244 151.823 41.2523 152.729 41.0149C152.979 41.2989 152.953 41.5765 153.004 41.9273C153.078 42.4364 153.227 42.9175 153.353 43.4149C153.634 44.5267 153.395 45.6719 153.86 46.7549C154.187 47.518 154.658 48.2093 154.812 49.0249C154.985 49.9364 154.645 50.9475 154.065 51.671C153.745 52.0695 153.415 52.4115 153.039 52.7659C152.664 53.1197 152.252 53.3733 151.835 53.6783C151.164 54.1688 150.936 53.5367 150.46 53.1475C149.752 52.5676 148.742 52.1731 147.814 52.0636C147.186 51.9896 146.635 51.9565 146.108 51.5908C145.732 51.3293 145.523 51.1699 145.314 50.7641C144.92 49.9969 146.369 49.1964 146.97 49.083C147.467 48.9893 149.281 48.8828 148.931 48.1816C148.64 47.6008 148.045 47.0688 147.544 46.6471C146.605 45.8558 146.32 44.7523 145.842 43.708C145.626 43.2365 145.374 42.6859 145.273 42.1817C145.177 41.7005 145.217 41.1489 145.264 40.6637C145.287 40.4345 145.275 39.7961 145.607 39.7264C145.9 39.6652 146.209 39.8528 146.469 39.9366C146.822 40.0505 147.031 40.2186 147.295 40.4674C147.588 40.7434 147.98 40.9498 148.365 41.0923C148.904 41.2922 149.553 41.3803 150.126 41.4352Z" fill="#FE674A"/>
<path d="M150.5 50.5379C150.932 50.7944 151.29 50.9273 151.643 51.3005C151.503 51.596 151.443 52.0835 151.222 52.3174C150.866 52.6936 150.419 52.5971 149.959 52.381C149.392 52.1147 148.751 51.8833 148.155 51.696C147.732 51.5631 147.343 51.2903 146.906 51.1875C146.427 51.0751 145.952 50.973 145.476 50.8521C144.854 50.6944 144.259 49.9464 144.757 49.302C145.232 48.6885 145.988 48.6576 146.678 48.7583C147.452 48.871 148.178 49.1652 148.853 49.588C149.388 49.9228 149.957 50.2148 150.5 50.5379Z" fill="#E3473B"/>
<path d="M148.84 40.7921C149.772 40.8813 150.537 40.6093 151.443 40.3718C151.694 40.6559 151.667 40.9334 151.718 41.2843C151.792 41.7934 151.941 42.2744 152.067 42.7718C152.348 43.8836 152.11 45.0288 152.574 46.1119C152.901 46.8749 153.372 47.5663 153.526 48.3819C153.699 49.2934 153.359 50.3044 152.779 51.0279C152.46 51.4264 152.129 51.7685 151.753 52.1228C151.378 52.4766 150.966 52.7302 150.549 53.0353C149.878 53.5257 149.65 52.8936 149.174 52.5044C148.466 51.9245 147.456 51.53 146.528 51.4206C145.9 51.3465 145.349 51.3134 144.822 50.9477C144.446 50.6863 144.237 50.5268 144.028 50.121C143.634 49.3539 145.083 48.5533 145.684 48.4399C146.181 48.3462 147.996 48.2397 147.645 47.5386C147.354 46.9578 146.759 46.4257 146.258 46.004C145.319 45.2127 145.034 44.1092 144.556 43.0649C144.34 42.5934 144.088 42.0428 143.987 41.5386C143.891 41.0574 143.931 40.5059 143.978 40.0207C144.001 39.7915 143.989 39.1531 144.321 39.0834C144.614 39.0221 144.923 39.2097 145.183 39.2935C145.536 39.4075 145.746 39.5755 146.009 39.8244C146.302 40.1003 146.694 40.3067 147.079 40.4492C147.618 40.6491 148.267 40.7373 148.84 40.7921Z" stroke="#E3473B" stroke-width="2" stroke-linecap="round" stroke-linejoin="round"/>
<path d="M159.179 66.5947C158.267 68.7754 157.382 71.5631 158.865 73.6837C159.056 73.9477 159.323 74.0235 159.585 74.2154C160.096 74.5907 160.553 75.0373 161.094 75.3674C162.557 76.2589 164.144 76.9382 165.83 77.2356C168.835 77.7657 172.062 77.9611 174.903 76.667C176.6 75.8936 178.304 74.9544 179.646 73.6025C180.224 73.019 180.672 72.2973 181.184 71.653C181.723 70.9731 182.311 70.3345 182.864 69.6666C183.835 68.4954 184.698 67.1887 185.279 65.7603C185.54 65.1158 186.093 63.4819 185.314 62.9616C184.935 62.7087 184.102 62.9853 183.69 63.0502C183.15 63.1355 182.604 63.1969 182.06 63.2496C180.626 63.3882 179.204 63.5696 177.765 63.6484C175.859 63.7528 173.982 63.4464 172.083 63.3456C170.27 63.2494 168.485 63.1907 166.67 63.2348C165.206 63.2705 163.849 63.418 162.44 63.8477C161.742 64.0607 161.177 64.2774 160.574 64.7117C159.86 65.2266 159.526 65.7642 159.179 66.5947Z" fill="#5F8260"/>
<path d="M159.179 64.0239C158.267 66.2046 157.382 68.9923 158.865 71.1129C159.056 71.3769 159.323 71.4527 159.585 71.6446C160.096 72.0199 160.553 72.4665 161.094 72.7966C162.557 73.6881 164.144 74.3674 165.83 74.6648C168.835 75.1949 172.062 75.3903 174.903 74.0962C176.6 73.3228 178.304 72.3836 179.646 71.0317C180.224 70.4482 180.672 69.7265 181.184 69.0822C181.723 68.4023 182.311 67.7637 182.864 67.0958C183.835 65.9246 184.698 64.6179 185.279 63.1895C185.54 62.545 186.093 60.9111 185.314 60.3908C184.935 60.1379 184.102 60.4145 183.69 60.4794C183.15 60.5647 182.604 60.6261 182.06 60.6788C180.626 60.8174 179.204 60.9988 177.765 61.0776C175.859 61.182 173.982 60.8756 172.083 60.7748C170.27 60.6786 168.485 60.6199 166.67 60.664C165.206 60.6997 163.849 60.8472 162.44 61.2769C161.742 61.4899 161.177 61.7066 160.574 62.1409C159.86 62.6558 159.526 63.1934 159.179 64.0239Z" fill="#6F9570" stroke="#83A984" stroke-linecap="round" stroke-linejoin="round"/>
<path d="M417.562 55.9255C417.879 54.5614 418.119 53.201 418.488 51.8452C418.683 51.2878 419.281 50.5986 419.649 50.1492C420.886 48.6385 422.463 47.4317 424.424 47.1012C426.062 46.8251 427.548 47.1445 429.089 47.6882C430.4 48.1504 431.323 49.3008 432.133 50.3752C432.511 50.8774 432.737 51.4585 432.974 52.037C433.281 52.7895 433.59 53.5317 433.801 54.3188C434.134 55.5597 434.235 56.9412 433.996 58.2074C433.855 58.9498 433.651 59.7142 433.344 60.4038C433.113 60.9214 432.649 61.649 432.768 62.2503C432.862 62.7191 433.263 62.7767 433.686 62.8676C434.191 62.976 434.717 63.0129 435.201 63.2093C435.838 63.4679 436.437 63.6298 437.108 63.7963C437.699 63.9431 438.235 64.3072 438.833 64.4136C439.553 64.5416 440.273 64.6241 441 64.6837C441.711 64.7419 442.363 64.5312 442.975 64.1739C443.269 64.003 443.594 63.8452 443.849 63.6172C444.111 63.3829 444.345 63.1157 444.608 62.8814C444.949 62.5786 445.461 62.3078 445.928 62.4018C446.655 62.548 446.922 63.2067 447.169 63.8171L447.183 63.8514C447.372 64.3179 447.69 64.7083 447.824 65.2046C447.981 65.7817 448.04 66.4539 447.972 67.0482C447.846 68.148 447.438 69.2012 447.326 70.3057C447.27 70.8534 447.09 71.367 446.994 71.9069C446.887 72.5112 446.773 73.1327 446.583 73.7175C446.109 75.1793 445.184 76.2749 443.989 77.2229C441.911 78.8715 439.309 78.7288 436.834 79.1438C435.397 79.3847 433.908 79.4723 432.456 79.571C431.712 79.6215 430.97 79.56 430.229 79.4965C429.356 79.4218 428.487 79.5694 427.616 79.5902C426.037 79.628 424.493 79.4406 422.923 79.356C421.618 79.2857 420.33 79.1533 419.03 78.9977C417.708 78.8393 416.216 79.014 415.05 78.2592C413.579 77.3072 412.532 76.1375 412.124 74.4064C411.95 73.668 411.852 72.9233 411.889 72.1632C411.929 71.3271 411.944 70.4432 412.316 69.6746C412.666 68.9509 413.224 68.1516 413.768 67.5663C414.451 66.8307 415.267 66.2626 416.003 65.5876C416.441 65.1861 416.815 64.7248 417.252 64.3199L417.255 64.3178C417.62 63.9798 417.607 63.9583 417.794 63.2976C418.215 62.5118 417.82 62.1347 417.393 61.4608C417.042 60.9073 417.184 60.0421 417.26 59.4248C417.402 58.2673 417.297 57.0687 417.562 55.9255Z" fill="#93BB94"/>
<path d="M431.186 51.2443C430.644 50.1614 429.949 49.2326 429.188 48.3023C429.398 48.3023 429.843 48.1832 430.028 48.2857C430.203 48.3834 430.531 48.5855 430.653 48.7523C431.035 49.2751 431.653 49.5361 431.948 50.1271C432.068 50.3654 432.145 50.5837 432.316 50.7972C432.504 51.0323 432.543 51.3057 432.619 51.5914C432.727 52.001 432.855 52.3979 432.966 52.8074C433.055 53.1355 433.183 53.4661 433.289 53.7902C433.413 54.1707 433.472 54.5658 433.579 54.9516C433.683 55.3263 433.697 55.7689 433.758 56.1577C433.86 56.8141 433.59 57.4793 433.49 58.1232C433.44 58.4413 433.292 58.7434 433.246 59.0613C433.217 59.2698 433.132 59.6004 433.043 59.7959C432.958 59.9821 432.958 60.2431 432.929 60.4461C432.897 60.6698 432.857 60.9241 432.775 61.1385C432.703 61.3247 432.675 61.5475 432.596 61.7217C432.549 61.8262 432.568 61.9099 432.504 62.0146C432.354 62.2603 432.085 62.398 431.885 62.6036C431.295 62.8985 430.641 63.3491 429.924 63.4208C429.079 63.5052 428.387 63.9111 427.513 63.9111C427.078 63.9111 426.549 63.8377 426.124 63.7431C425.86 63.6845 425.551 63.4208 425.306 63.4208C425.136 63.4208 425.097 63.3391 425.306 63.3391H425.874C426.158 63.3391 426.56 63.2268 426.818 63.1121C427.549 62.7872 428.165 62.5302 428.779 61.9498C429.705 61.0756 430.53 60.0734 431.104 58.9261C431.831 57.4721 432.233 55.7304 432.007 54.1045C431.862 53.0547 431.658 52.1893 431.186 51.2443Z" fill="#6F9570"/>
<path d="M413.148 70.2647C413.173 70.0908 413.206 69.9252 413.247 69.7663C412.943 70.551 412.762 71.3809 412.762 72.3036C412.762 73.1331 412.851 74.0002 413.074 74.7917C413.188 75.1947 413.356 75.564 413.485 75.9581C413.613 76.3466 413.881 76.5983 414.094 76.9343C414.574 77.6919 415.285 77.7889 416.018 78.1352C416.352 78.2932 416.757 78.3221 417.111 78.4462C417.53 78.5929 417.95 78.7637 418.385 78.8782C419.079 79.0604 419.888 79.2703 420.605 79.2843C421.359 79.2989 422.096 79.5005 422.841 79.5175C424.164 79.5477 425.476 79.5953 426.804 79.5953H430.799C431.487 79.5953 432.177 79.5291 432.871 79.5175C433.309 79.5102 433.963 79.471 434.384 79.3447C434.917 79.1846 435.504 79.173 436.053 79.0683C436.546 78.974 437.123 78.8461 437.623 78.8177C438.255 78.7818 438.94 78.6059 439.563 78.4894C440.299 78.352 441.031 78.2007 441.767 78.0575C442.81 77.8544 443.883 77.4634 444.784 76.8911C445.453 76.4662 445.804 75.8221 446.116 75.0855C446.457 74.2774 446.397 73.275 446.666 72.4245C446.989 71.408 447.263 69.3814 447.444 68.3362C447.656 68.6713 447.527 64.77 447.444 65.0768C447.341 65.4561 447.26 66.1238 447.094 66.4723C446.638 67.43 445.549 73.1116 444.784 73.8587C444.13 74.4969 443.318 74.9532 442.581 75.4699C441.795 76.0203 440.837 76.2146 439.954 76.524C439.324 76.7447 438.683 76.8332 438.038 76.9862C437.387 77.1406 436.746 77.3236 436.086 77.4354C435.871 77.4719 435.671 77.5773 435.461 77.6341C435.002 77.7586 434.417 77.708 433.948 77.7292C432.796 77.7812 431.627 77.9484 430.479 77.9624C428.978 77.9808 427.465 77.9126 425.969 77.8112C424.625 77.7201 423.275 77.6717 421.937 77.4959C420.014 77.2433 418.038 77.2072 416.166 76.7011C415.422 76.5001 414.702 75.8796 414.172 75.3231C413.684 74.81 413.317 74.0639 413.21 73.336C413.063 72.3315 413.005 71.2792 413.148 70.2647Z" fill="#6F9570"/>
<path d="M416.681 55.926C416.998 54.5619 417.238 53.2015 417.607 51.8457C417.802 51.2883 418.401 50.5991 418.768 50.1497C420.005 48.639 421.582 47.4322 423.543 47.1017C425.181 46.8256 426.667 47.145 428.208 47.6887C429.519 48.1509 430.442 49.3013 431.252 50.3757C431.631 50.8779 431.857 51.459 432.093 52.0375C432.4 52.79 432.709 53.5322 432.92 54.3193C433.253 55.5601 433.354 56.9417 433.115 58.2079C432.974 58.9503 432.77 59.7147 432.463 60.4043C432.232 60.9219 431.768 61.6495 431.887 62.2507C431.981 62.7196 432.382 62.7772 432.805 62.8681C433.31 62.9765 433.836 63.0134 434.32 63.2098C434.957 63.4684 435.556 63.6303 436.227 63.7968C436.818 63.9436 437.354 64.3076 437.953 64.4141C438.672 64.5421 439.392 64.6246 440.119 64.6842C440.83 64.7424 441.482 64.5317 442.095 64.1743C442.388 64.0035 442.713 63.8457 442.968 63.6177C443.23 63.3834 443.464 63.1162 443.727 62.8818C444.068 62.579 444.58 62.3082 445.048 62.4023C445.774 62.5485 446.041 63.2072 446.288 63.8176L446.302 63.8519C446.491 64.3184 446.809 64.7088 446.943 65.205C447.1 65.7822 447.159 66.4544 447.091 67.0487C446.966 68.1485 446.558 69.2017 446.445 70.3062C446.389 70.8539 446.209 71.3675 446.113 71.9073C446.006 72.5117 445.892 73.1332 445.702 73.718C445.229 75.1798 444.303 76.2754 443.108 77.2234C441.031 78.872 438.428 78.7293 435.953 79.1443C434.516 79.3852 433.027 79.4728 431.575 79.5714C430.831 79.622 430.089 79.5605 429.348 79.497C428.475 79.4223 427.606 79.5699 426.735 79.5907C425.157 79.6285 423.613 79.4411 422.042 79.3565C420.737 79.2861 419.449 79.1538 418.149 78.9982C416.827 78.8398 415.335 79.0145 414.169 78.2596C412.698 77.3077 411.651 76.138 411.243 74.4069C411.069 73.6685 410.971 72.9238 411.008 72.1636C411.048 71.3276 411.064 70.4437 411.435 69.6751C411.785 68.9514 412.343 68.1521 412.887 67.5668C413.57 66.8312 414.386 66.2631 415.122 65.5881C415.56 65.1866 415.934 64.7253 416.371 64.3204L416.374 64.3183C416.739 63.9803 416.726 63.9588 416.913 63.2981C417.334 62.5123 416.939 62.1352 416.512 61.4613C416.162 60.9078 416.303 60.0425 416.379 59.4253C416.521 58.2678 416.416 57.0691 416.681 55.926Z" stroke="#83A984" stroke-width="1.37037" stroke-linecap="round" stroke-linejoin="round"/>
<path d="M421.125 51.5964C421.379 51.2264 421.659 50.8307 422.05 50.566C422.328 50.4929 422.596 50.4956 422.799 50.7346C422.971 50.9374 422.87 51.2492 422.786 51.4669C422.537 52.1106 422.028 52.7803 421.349 53.119C421.208 53.1897 420.918 53.2764 420.796 53.1258C420.611 52.8969 420.711 52.5648 420.784 52.319L420.786 52.3139C420.864 52.0516 420.966 51.8275 421.125 51.5964Z" fill="#2E2E2E"/>
<path d="M416.568 53.4647C417.206 53.5258 417.73 53.3394 418.351 53.1768C418.523 53.3714 418.505 53.5615 418.54 53.8019C418.59 54.1508 418.692 54.4804 418.779 54.8212C418.972 55.583 418.808 56.3676 419.126 57.1097C419.35 57.6326 419.673 58.1063 419.779 58.6651C419.897 59.2896 419.664 59.9824 419.267 60.4781C419.048 60.7512 418.821 60.9855 418.564 61.2284C418.307 61.4707 418.024 61.6445 417.739 61.8535C417.279 62.1896 417.123 61.7565 416.797 61.4898C416.311 61.0925 415.62 60.8222 414.984 60.7472C414.554 60.6964 414.176 60.6738 413.815 60.4232C413.557 60.244 413.414 60.1348 413.271 59.8567C413 59.3311 413.994 58.7826 414.405 58.7049C414.746 58.6407 415.989 58.5677 415.749 58.0873C415.549 57.6893 415.142 57.3248 414.799 57.0358C414.155 56.4936 413.96 55.7376 413.632 55.022C413.484 54.6989 413.312 54.3217 413.243 53.9762C413.177 53.6465 413.204 53.2686 413.237 52.9362C413.252 52.7791 413.244 52.3417 413.472 52.2939C413.672 52.2519 413.884 52.3805 414.062 52.4379C414.304 52.516 414.447 52.6311 414.628 52.8016C414.829 52.9907 415.098 53.1321 415.361 53.2298C415.731 53.3668 416.175 53.4271 416.568 53.4647Z" fill="#FE674A"/>
<path d="M416.824 59.7021C417.12 59.8779 417.365 59.9689 417.607 60.2246C417.511 60.4271 417.47 60.7611 417.319 60.9214C417.075 61.1792 416.769 61.113 416.453 60.965C416.065 60.7825 415.626 60.6239 415.217 60.4956C414.928 60.4045 414.661 60.2176 414.361 60.1472C414.033 60.0702 413.708 60.0002 413.382 59.9174C412.956 59.8093 412.548 59.2968 412.889 58.8553C413.215 58.4349 413.733 58.4138 414.206 58.4827C414.736 58.56 415.233 58.7615 415.696 59.0513C416.062 59.2807 416.452 59.4807 416.824 59.7021Z" fill="#E3473B"/>
<path d="M415.687 53.0243C416.325 53.0854 416.849 52.899 417.47 52.7363C417.642 52.9309 417.624 53.1211 417.659 53.3615C417.709 53.7103 417.811 54.04 417.898 54.3807C418.09 55.1425 417.927 55.9272 418.245 56.6693C418.469 57.1922 418.792 57.6658 418.898 58.2247C419.016 58.8492 418.783 59.542 418.386 60.0377C418.167 60.3108 417.94 60.5451 417.683 60.7879C417.426 61.0303 417.143 61.2041 416.857 61.4131C416.398 61.7492 416.242 61.3161 415.916 61.0494C415.43 60.652 414.739 60.3817 414.103 60.3067C413.672 60.256 413.295 60.2333 412.934 59.9828C412.676 59.8036 412.533 59.6944 412.39 59.4163C412.119 58.8907 413.113 58.3421 413.524 58.2645C413.864 58.2002 415.108 58.1273 414.868 57.6469C414.668 57.2489 414.261 56.8844 413.918 56.5954C413.274 56.0532 413.079 55.2971 412.751 54.5816C412.603 54.2585 412.43 53.8813 412.362 53.5358C412.296 53.2061 412.323 52.8282 412.356 52.4957C412.371 52.3387 412.363 51.9012 412.59 51.8535C412.791 51.8115 413.003 51.9401 413.181 51.9975C413.423 52.0756 413.566 52.1907 413.747 52.3612C413.948 52.5503 414.216 52.6917 414.48 52.7894C414.85 52.9263 415.294 52.9867 415.687 53.0243Z" stroke="#E3473B" stroke-width="1.37037" stroke-linecap="round" stroke-linejoin="round"/>
<path d="M422.771 70.7037C422.146 72.1978 421.539 74.1079 422.556 75.5609C422.687 75.7418 422.869 75.7937 423.049 75.9252C423.399 76.1824 423.712 76.4884 424.083 76.7145C425.085 77.3254 426.173 77.7909 427.328 77.9946C429.387 78.3578 431.598 78.4917 433.544 77.605C434.707 77.0751 435.875 76.4316 436.794 75.5053C437.191 75.1055 437.498 74.6109 437.848 74.1695C438.218 73.7036 438.62 73.2661 439 72.8085C439.664 72.006 440.256 71.1106 440.654 70.1319C440.833 69.6903 441.212 68.5708 440.678 68.2143C440.419 68.041 439.848 68.2305 439.566 68.275C439.195 68.3334 438.821 68.3755 438.448 68.4116C437.466 68.5066 436.492 68.6309 435.506 68.6848C434.199 68.7564 432.914 68.5465 431.612 68.4774C430.37 68.4115 429.147 68.3713 427.904 68.4015C426.9 68.4259 425.971 68.527 425.005 68.8215C424.527 68.9674 424.14 69.1159 423.727 69.4134C423.237 69.7662 423.008 70.1346 422.771 70.7037Z" fill="#5F8260"/>
<path d="M422.771 68.9424C422.146 70.4366 421.539 72.3467 422.556 73.7997C422.687 73.9806 422.869 74.0325 423.049 74.164C423.399 74.4211 423.712 74.7271 424.083 74.9533C425.085 75.5641 426.173 76.0296 427.328 76.2334C429.387 76.5966 431.598 76.7305 433.544 75.8438C434.707 75.3138 435.875 74.6704 436.794 73.744C437.191 73.3442 437.498 72.8497 437.848 72.4083C438.218 71.9424 438.62 71.5049 439 71.0472C439.664 70.2448 440.256 69.3494 440.654 68.3707C440.833 67.9291 441.212 66.8096 440.678 66.4531C440.419 66.2798 439.848 66.4693 439.566 66.5138C439.195 66.5722 438.821 66.6143 438.448 66.6504C437.466 66.7454 436.492 66.8696 435.506 66.9236C434.199 66.9952 432.914 66.7853 431.612 66.7162C430.37 66.6502 429.147 66.61 427.904 66.6403C426.9 66.6647 425.971 66.7658 425.005 67.0602C424.527 67.2062 424.14 67.3546 423.727 67.6522C423.237 68.005 423.008 68.3734 422.771 68.9424Z" fill="#6F9570" stroke="#83A984" stroke-width="0.685183" stroke-linecap="round" stroke-linejoin="round"/>
<path d="M17.608 23.2282C18.3613 19.9839 18.9316 16.7484 19.8095 13.5238C20.2725 12.1981 21.6965 10.5589 22.5715 9.48999C25.5128 5.89696 29.2627 3.02685 33.9278 2.24068C37.8238 1.58413 41.3566 2.34377 45.0235 3.63679C48.1411 4.73611 50.336 7.47225 52.2621 10.0275C53.1626 11.222 53.7001 12.604 54.2623 13.9798C54.9937 15.7696 55.7278 17.5349 56.23 19.407C57.0216 22.3581 57.262 25.6441 56.6926 28.6555C56.3587 30.4212 55.8728 32.2392 55.1419 33.8794C54.5934 35.1104 53.4894 36.8411 53.7737 38.271C53.9954 39.3862 54.9494 39.5231 55.9563 39.7392C57.1575 39.997 58.4086 40.0848 59.5593 40.5519C61.0746 41.167 62.5 41.5521 64.094 41.948C65.4997 42.2972 66.776 43.163 68.1987 43.4163C69.9093 43.7207 71.6226 43.917 73.3524 44.0586C75.0434 44.1971 76.5923 43.6959 78.05 42.846C78.7471 42.4396 79.5218 42.0644 80.1284 41.522C80.7515 40.9648 81.3065 40.3294 81.9332 39.7719C82.7428 39.0518 83.9615 38.4077 85.0736 38.6315C86.8016 38.9791 87.4363 40.5458 88.0245 41.9975L88.0576 42.0791C88.5076 43.1886 89.2622 44.1171 89.5822 45.2974C89.9543 46.67 90.0955 48.2688 89.934 49.6824C89.6352 52.298 88.6648 54.8029 88.3964 57.4299C88.2633 58.7325 87.8359 59.9542 87.608 61.238C87.3529 62.6755 87.0816 64.1535 86.6307 65.5444C85.5037 69.0212 83.3024 71.6269 80.4607 73.8817C75.5193 77.8026 69.3287 77.4633 63.4425 78.4502C60.0248 79.0233 56.484 79.2317 53.0309 79.4662C51.2618 79.5864 49.4964 79.4401 47.7339 79.2892C45.6586 79.1115 43.5905 79.4625 41.5183 79.5121C37.7648 79.602 34.0926 79.1563 30.3574 78.9549C27.2533 78.7877 24.1893 78.473 21.0991 78.1029C17.9535 77.7261 14.4055 78.1415 11.6322 76.3462C8.13475 74.0822 5.64308 71.3001 4.6738 67.183C4.26034 65.4268 4.02582 63.6555 4.11348 61.8476C4.2099 59.8593 4.24652 57.757 5.12988 55.9289C5.96153 54.2078 7.29051 52.3066 8.58303 50.9146C10.2076 49.1651 12.1494 47.8139 13.8996 46.2085C14.9408 45.2535 15.83 44.1565 16.8706 43.1934L16.8761 43.1883C17.7447 42.3844 17.7143 42.3334 18.1584 40.762C19.1606 38.8929 18.2215 37.9961 17.2058 36.3933C16.3715 35.0769 16.7083 33.019 16.8883 31.551C17.2257 28.798 16.9767 25.9471 17.608 23.2282Z" fill="#93BB94"/>
<path d="M50.0094 12.0949C48.7217 9.51952 47.0686 7.31048 45.2582 5.09776C45.7581 5.09776 46.8162 4.81461 47.255 5.05834C47.6733 5.29076 48.4524 5.77125 48.7424 6.16801C49.651 7.41145 51.1206 8.03231 51.8235 9.43797C52.1068 10.0046 52.2907 10.5238 52.697 11.0316C53.1443 11.5908 53.2367 12.2411 53.4171 12.9204C53.6759 13.8946 53.9802 14.8386 54.2435 15.8126C54.4544 16.5931 54.7588 17.3792 55.0108 18.15C55.3067 19.0551 55.4465 19.9947 55.7014 20.9124C55.9489 21.8035 55.9819 22.8563 56.1264 23.781C56.3703 25.342 55.7282 26.9243 55.4889 28.4557C55.3707 29.2123 55.0185 29.9308 54.9105 30.6869C54.8396 31.1827 54.6378 31.9691 54.4265 32.434C54.2251 32.8769 54.2239 33.4976 54.1549 33.9804C54.0789 34.5124 53.9851 35.1174 53.789 35.6272C53.6187 36.07 53.5524 36.5999 53.364 37.0143C53.251 37.2629 53.2977 37.4619 53.1456 37.7108C52.7884 38.2953 52.148 38.6228 51.6723 39.1117C50.2692 39.8133 48.7128 40.8848 47.0075 41.0554C44.999 41.2562 43.353 42.2216 41.2737 42.2216C40.2391 42.2216 38.9817 42.047 37.9695 41.822C37.342 41.6826 36.6085 41.0554 36.0259 41.0554C35.6216 41.0554 35.5289 40.861 36.0259 40.861H37.3756C38.0513 40.861 39.0079 40.5939 39.6216 40.3211C41.3601 39.5485 42.8249 38.9371 44.2864 37.5568C46.488 35.4775 48.4507 33.094 49.815 30.3653C51.5441 26.9072 52.5009 22.7646 51.9638 18.8977C51.6171 16.4009 51.1333 14.3427 50.0094 12.0949Z" fill="#6F9570"/>
<path d="M7.1097 57.3329C7.16799 56.9194 7.24686 56.5255 7.3442 56.1475C6.62076 58.0138 6.19067 59.9876 6.19067 62.1822C6.19067 64.1551 6.40286 66.2173 6.9337 68.1C7.20391 69.0583 7.60266 69.9368 7.91137 70.8739C8.21579 71.7981 8.85131 72.3967 9.35831 73.1958C10.5014 74.9978 12.1919 75.2283 13.9338 76.052C14.7284 76.4278 15.6917 76.4966 16.5344 76.7917C17.5302 77.1405 18.5289 77.5469 19.5651 77.8191C21.2142 78.2524 23.1391 78.7517 24.8445 78.7849C26.6368 78.8198 28.3899 79.2992 30.163 79.3397C33.3083 79.4115 36.4306 79.5246 39.5877 79.5246H49.0907C50.7262 79.5246 52.3678 79.3672 54.0181 79.3397C55.0589 79.3223 56.616 79.2289 57.6159 78.9287C58.8847 78.5478 60.281 78.5204 61.5852 78.2712C62.7586 78.047 64.1316 77.7428 65.3199 77.6753C66.8227 77.5899 68.4518 77.1715 69.9345 76.8945C71.6845 76.5675 73.4242 76.2078 75.1748 75.8671C77.6564 75.3841 80.2087 74.4543 82.3509 73.0931C83.9416 72.0823 84.7775 70.5506 85.5185 68.7986C86.3313 66.8768 86.187 64.4925 86.8286 62.4699C87.5955 60.0522 88.247 55.232 88.6771 52.7462C89.1827 53.5432 88.8755 44.2643 88.6771 44.9941C88.4318 45.8963 88.2398 47.4843 87.8454 48.3132C86.7616 50.591 84.1719 64.1038 82.3509 65.8808C80.7954 67.3987 78.865 68.4839 77.1106 69.713C75.2421 71.022 72.9636 71.4841 70.8633 72.2198C69.3643 72.7449 67.8409 72.9552 66.3074 73.3191C64.7591 73.6865 63.2332 74.1216 61.6635 74.3876C61.1517 74.4744 60.6762 74.725 60.1774 74.8602C59.0862 75.1562 57.6955 75.0358 56.5796 75.0863C53.8399 75.2101 51.0588 75.6077 48.3281 75.6411C44.7576 75.6847 41.1593 75.5226 37.6031 75.2815C34.4054 75.0647 31.195 74.9495 28.0122 74.5315C23.4387 73.9307 18.7402 73.8448 14.2858 72.6411C12.5173 72.1632 10.8036 70.6873 9.54409 69.3637C8.38276 68.1433 7.50981 66.369 7.25635 64.6377C6.90659 62.2486 6.76952 59.7459 7.1097 57.3329Z" fill="#6F9570"/>
<path d="M15.5128 23.2282C16.2661 19.9839 16.8364 16.7484 17.7143 13.5238C18.1773 12.1981 19.6013 10.5589 20.4763 9.48999C23.4176 5.89696 27.1675 3.02685 31.8326 2.24068C35.7286 1.58413 39.2614 2.34377 42.9283 3.63679C46.0459 4.73611 48.2408 7.47225 50.1669 10.0275C51.0674 11.222 51.6049 12.604 52.1671 13.9798C52.8985 15.7696 53.6326 17.5349 54.1348 19.407C54.9263 22.3581 55.1668 25.6441 54.5974 28.6554C54.2635 30.4212 53.7776 32.2392 53.0467 33.8794C52.4982 35.1104 51.3942 36.8411 51.6785 38.271C51.9002 39.3862 52.8542 39.5231 53.8611 39.7392C55.0623 39.997 56.3134 40.0848 57.4641 40.5519C58.9794 41.167 60.4047 41.5521 61.9988 41.948C63.4045 42.2972 64.6808 43.163 66.1035 43.4163C67.8141 43.7207 69.5274 43.917 71.2572 44.0586C72.9482 44.1971 74.4971 43.6959 75.9548 42.846C76.6519 42.4396 77.4266 42.0644 78.0332 41.522C78.6563 40.9648 79.2113 40.3294 79.8379 39.7719C80.6475 39.0518 81.8663 38.4077 82.9783 38.6315C84.7063 38.9791 85.3411 40.5458 85.9293 41.9975L85.9624 42.0791C86.4124 43.1886 87.167 44.1171 87.487 45.2974C87.8591 46.67 88.0003 48.2688 87.8388 49.6824C87.54 52.298 86.5696 54.8029 86.3012 57.4299C86.1681 58.7325 85.7407 59.9542 85.5128 61.238C85.2577 62.6755 84.9863 64.1535 84.5355 65.5444C83.4085 69.0212 81.2072 71.6269 78.3654 73.8817C73.4241 77.8026 67.2335 77.4633 61.3473 78.4503C57.9296 79.0233 54.3888 79.2317 50.9357 79.4662C49.1666 79.5864 47.4012 79.4401 45.6387 79.2892C43.5634 79.1115 41.4953 79.4625 39.423 79.5121C35.6696 79.602 31.9974 79.1562 28.2622 78.9549C25.1581 78.7877 22.0941 78.473 19.0039 78.1029C15.8583 77.7261 12.3103 78.1415 9.53701 76.3462C6.03953 74.0822 3.54787 71.3001 2.57859 67.183C2.16513 65.4268 1.9306 63.6555 2.01827 61.8476C2.11468 59.8593 2.15131 57.757 3.03467 55.9289C3.86632 54.2078 5.19529 52.3066 6.48782 50.9146C8.11241 49.1651 10.0541 47.8139 11.8044 46.2085C12.8456 45.2535 13.7348 44.1565 14.7754 43.1934L14.7809 43.1883C15.6495 42.3844 15.6191 42.3334 16.0632 40.762C17.0654 38.8929 16.1263 37.9961 15.1106 36.3933C14.2763 35.0769 14.6131 33.019 14.793 31.551C15.1305 28.798 14.8815 25.9471 15.5128 23.2282Z" stroke="#83A984" stroke-width="3.25926" stroke-linecap="round" stroke-linejoin="round"/>
<path d="M26.0806 12.932C26.6864 12.052 27.3521 11.111 28.2815 10.4813C28.942 10.3075 29.5803 10.314 30.063 10.8823C30.4727 11.3648 30.2306 12.1063 30.0307 12.6241C29.4397 14.1551 28.2291 15.7478 26.6147 16.5535C26.2779 16.7216 25.5886 16.9278 25.2992 16.5695C24.8593 16.0251 25.0955 15.2354 25.2704 14.6506L25.2741 14.6385C25.4606 14.0148 25.7021 13.4818 26.0806 12.932Z" fill="#2E2E2E"/>
<path d="M15.2428 17.3761C16.7613 17.5214 18.0073 17.0781 19.4837 16.6912C19.8926 17.154 19.85 17.6064 19.9326 18.1781C20.0526 19.0077 20.2958 19.7917 20.501 20.6022C20.9596 22.4141 20.5705 24.2803 21.3272 26.0453C21.8603 27.2888 22.6277 28.4154 22.8793 29.7446C23.1604 31.23 22.6068 32.8776 21.6615 34.0567C21.1408 34.7061 20.602 35.2635 19.99 35.841C19.379 36.4174 18.707 36.8308 18.0271 37.3279C16.934 38.1271 16.5621 37.0971 15.7873 36.4628C14.6329 35.5178 12.9875 34.8749 11.4747 34.6965C10.4518 34.5758 9.5536 34.5219 8.6952 33.926C8.08144 33.4999 7.74111 33.24 7.40096 32.5787C6.75792 31.3286 9.12009 30.024 10.0993 29.8392C10.9086 29.6865 13.8662 29.5129 13.2943 28.3703C12.8206 27.4238 11.8512 26.5568 11.0353 25.8696C9.50451 24.58 9.04006 22.7818 8.26061 21.0799C7.90872 20.3115 7.4978 19.4143 7.3341 18.5926C7.17787 17.8085 7.24218 16.9096 7.31977 16.1189C7.35643 15.7454 7.33684 14.705 7.87854 14.5915C8.35487 14.4916 8.85972 14.7974 9.28263 14.9339C9.85797 15.1196 10.1995 15.3935 10.6294 15.799C11.1061 16.2487 11.7458 16.585 12.3726 16.8173C13.2514 17.1431 14.3091 17.2867 15.2428 17.3761Z" fill="#FE674A"/>
<path d="M15.8525 32.2104C16.5559 32.6285 17.139 32.845 17.7145 33.4533C17.4867 33.9348 17.3892 34.7293 17.0285 35.1105C16.4485 35.7235 15.7204 35.5662 14.9706 35.214C14.0468 34.7801 13.0019 34.4029 12.0306 34.0977C11.3413 33.8811 10.7075 33.4366 9.99442 33.2691C9.21402 33.0859 8.44095 32.9195 7.66424 32.7225C6.65106 32.4655 5.6808 31.2465 6.49371 30.1965C7.26776 29.1966 8.4992 29.1463 9.6242 29.3103C10.8849 29.4941 12.0682 29.9734 13.1685 30.6625C14.0396 31.2081 14.967 31.6839 15.8525 32.2104Z" fill="#E3473B"/>
<path d="M13.1471 16.3282C14.6656 16.4736 15.9116 16.0303 17.388 15.6433C17.7968 16.1062 17.7543 16.5585 17.8369 17.1303C17.9569 17.9599 18.2001 18.7439 18.4053 19.5544C18.8639 21.3662 18.4748 23.2324 19.2315 24.9974C19.7646 26.241 20.532 27.3676 20.7836 28.6967C21.0647 30.1821 20.511 31.8298 19.5658 33.0088C19.0451 33.6582 18.5063 34.2156 17.8943 34.7931C17.2833 35.3696 16.6112 35.7829 15.9314 36.28C14.8383 37.0793 14.4664 36.0492 13.6916 35.4149C12.5372 34.4699 10.8917 33.827 9.37901 33.6486C8.35605 33.528 7.4579 33.4741 6.5995 32.8781C5.98574 32.452 5.64541 32.1922 5.30526 31.5309C4.66221 30.2807 7.02438 28.9761 8.00358 28.7913C8.8129 28.6386 11.7705 28.465 11.1986 27.3224C10.7249 26.376 9.75546 25.5089 8.93964 24.8217C7.40881 23.5322 6.94436 21.7339 6.1649 20.032C5.81301 19.2637 5.4021 18.3665 5.2384 17.5448C5.08217 16.7606 5.14648 15.8617 5.22407 15.0711C5.26073 14.6976 5.24113 13.6572 5.78284 13.5436C6.25917 13.4437 6.76402 13.7496 7.18692 13.8861C7.76227 14.0718 8.10383 14.3456 8.5337 14.7512C9.01035 15.2009 9.65007 15.5372 10.2769 15.7695C11.1557 16.0952 12.2134 16.2388 13.1471 16.3282Z" stroke="#E3473B" stroke-width="3.25926" stroke-linecap="round" stroke-linejoin="round"/>
<path d="M29.9949 58.3769C28.5098 61.9306 27.0665 66.4735 29.4843 69.9293C29.7955 70.3595 30.23 70.483 30.6564 70.7957C31.4905 71.4073 32.2343 72.1352 33.1167 72.673C35.5004 74.1258 38.0871 75.2329 40.8342 75.7175C45.7308 76.5814 50.9907 76.8998 55.6192 74.7909C58.3855 73.5305 61.1628 72.0001 63.3482 69.7969C64.2914 68.8461 65.0215 67.6699 65.8549 66.62C66.7346 65.512 67.692 64.4714 68.5938 63.3829C70.175 61.4743 71.5819 59.3448 72.5279 57.017C72.9548 55.9668 73.8559 53.3041 72.586 52.4562C71.9686 52.0441 70.6112 52.4948 69.94 52.6006C69.0586 52.7396 68.1702 52.8397 67.2824 52.9255C64.9466 53.1514 62.6294 53.4469 60.2845 53.5754C57.1772 53.7456 54.1187 53.2463 51.0235 53.082C48.0701 52.9252 45.1607 52.8295 42.2036 52.9015C39.817 52.9595 37.6063 53.2 35.3101 53.9003C34.172 54.2474 33.252 54.6005 32.2695 55.3082C31.1048 56.1473 30.5605 57.0234 29.9949 58.3769Z" fill="#5F8260"/>
<path d="M29.9949 54.1874C28.5098 57.7411 27.0665 62.2841 29.4843 65.7398C29.7955 66.1701 30.23 66.2936 30.6564 66.6063C31.4905 67.2179 32.2343 67.9457 33.1167 68.4835C35.5004 69.9364 38.0871 71.0435 40.8342 71.5281C45.7308 72.3919 50.9907 72.7103 55.6192 70.6015C58.3855 69.3411 61.1628 67.8106 63.3482 65.6075C64.2914 64.6566 65.0215 63.4804 65.8549 62.4305C66.7346 61.3225 67.692 60.2819 68.5938 59.1935C70.175 57.2849 71.5819 55.1553 72.5279 52.8276C72.9548 51.7774 73.8559 49.1146 72.586 48.2668C71.9686 47.8546 70.6112 48.3054 69.94 48.4112C69.0586 48.5501 68.1702 48.6502 67.2824 48.7361C64.9466 48.962 62.6294 49.2575 60.2845 49.3859C57.1772 49.5561 54.1187 49.0569 51.0235 48.8925C48.0701 48.7357 45.1607 48.6401 42.2036 48.712C39.817 48.7701 37.6063 49.0105 35.3101 49.7108C34.172 50.0579 33.252 50.411 32.2695 51.1188C31.1048 51.9579 30.5605 52.8339 29.9949 54.1874Z" fill="#6F9570" stroke="#83A984" stroke-width="1.62963" stroke-linecap="round" stroke-linejoin="round"/>
<path d="M249.731 45.1222C251.224 43.6292 253.77 43.0479 255.829 43V49.3348C255.795 49.3533 255.764 49.3685 255.735 49.38C255.319 49.5464 255.006 49.972 254.613 50.1926C254.193 50.4289 253.635 50.5468 253.17 50.6762C251.893 51.0307 249.52 50.762 248.603 49.7427C247.195 48.1779 248.539 46.3146 249.731 45.1222Z" fill="#E0BEA2"/>
<path d="M255.829 43C253.77 43.0479 251.224 43.6292 249.731 45.1222C248.539 46.3146 247.195 48.1779 248.603 49.7427C249.52 50.762 251.893 51.0307 253.17 50.6762C253.635 50.5468 254.193 50.4289 254.613 50.1926C255.006 49.972 255.319 49.5464 255.735 49.38C256.118 49.2267 256.993 48.4095 257.159 48.0772" stroke="#D09462" stroke-width="2" stroke-linecap="round" stroke-linejoin="round"/>
<path d="M294.257 72.214C292.035 70.6211 290.083 68.7355 288.26 66.7131C289.766 64.9926 291.727 62.3123 293.663 60.9194C295.231 59.7921 296.834 58.6734 298.53 57.7458C298.956 57.5124 299.424 57.2896 299.913 57.225C300.948 57.0883 302.514 58.925 303.168 59.5035C304.692 60.8511 306.185 62.6492 306.756 64.6381C307.303 66.542 307.602 69.3382 306.911 71.27C306.545 72.2923 305.86 73.5241 304.901 74.11C303.722 74.8306 301.951 74.7828 300.629 74.8098C299.905 74.8246 298.984 74.9208 298.31 74.5738C296.932 73.8647 295.518 73.1176 294.257 72.214Z" fill="#C16E3E" stroke="#D09462" stroke-width="2" stroke-linecap="round" stroke-linejoin="round"/>
<circle cx="281.613" cy="43.5913" r="25.5913" fill="#E0BEA2" stroke="#D09462" stroke-width="2"/>
<path d="M267.961 76.079C263.644 74.5857 259.409 72.8657 255.124 71.2819C254.232 69.2058 254.852 67.4446 256.006 65.6151C257.767 62.8246 260.471 61.3459 263.541 60.2816C266.885 59.1225 271.072 60.0272 274.041 61.8178C276.196 63.117 279.098 64.6521 279.62 67.3834C280.226 70.5599 279.707 78.2886 274.847 77.9709C272.588 77.8232 270.101 76.8195 267.961 76.079Z" fill="#C16E3E" stroke="#D09462" stroke-width="2" stroke-linecap="round" stroke-linejoin="round"/>
<path d="M295.941 50.5724C294.812 49.6621 294.122 48.3859 293.107 47.3724C290.104 42.4905 293.916 42.6669 296.198 43.3654C296.514 43.5189 297.312 43.4427 297.537 43.716C297.647 43.8497 298.208 43.8871 298.384 43.9442C298.816 44.0842 299.256 44.2604 299.695 44.3671C300.723 44.6169 301.743 45.4287 302.585 46.02C303.678 46.787 304.917 47.8801 305.419 49.1254C305.821 50.1245 306.367 51.9206 305.653 52.882C305.275 53.3917 305.111 53.5629 304.543 53.8392C304.066 54.0712 303.504 53.9839 302.975 53.9839C301.587 53.9839 300.162 53.064 298.98 52.4813C297.895 51.9466 296.878 51.3282 295.941 50.5724Z" fill="#E0BEA2"/>
<path d="M292.094 47.1362C293.284 48.3592 294.094 49.8992 295.419 50.9978C296.519 51.9098 297.712 52.6561 298.985 53.3013C300.372 54.0045 302.045 55.1145 303.673 55.1145C304.293 55.1145 304.953 55.2199 305.513 54.9399C306.18 54.6065 306.371 54.3999 306.816 53.7848C307.653 52.6246 307.012 50.4573 306.54 49.2516C305.952 47.7488 304.497 46.4297 303.216 45.5042C302.228 44.7906 301.03 43.811 299.824 43.5096C299.309 43.3808 298.793 43.1681 298.286 42.9992C298.08 42.9303 297.422 42.8852 297.293 42.7239C297.029 42.394 296.092 42.486 295.721 42.3008" stroke="#D09462" stroke-width="2" stroke-linecap="round" stroke-linejoin="round"/>
<ellipse cx="265.328" cy="37.7749" rx="2.99119" ry="7.47799" fill="black"/>
<ellipse cx="265.162" cy="35.7807" rx="2.16031" ry="3.48973" fill="white"/>
<path d="M263.356 40.6684C263.318 40.47 263.341 40.2532 263.341 40.0527C263.572 40.2594 264.614 40.3252 264.919 40.4093C265.457 40.5573 266.009 40.4329 266.481 40.1914C266.608 40.1263 266.729 40.0594 266.85 39.9841C267.012 39.8838 266.988 39.9467 266.988 40.1014C266.988 40.3388 266.936 40.5768 266.927 40.8147C266.918 41.0614 266.856 41.3474 266.798 41.5889C266.735 41.8489 266.669 42.1146 266.559 42.3631C266.375 42.7795 266.078 43.232 265.626 43.4528C265.466 43.5309 265.321 43.5915 265.136 43.5915C264.993 43.5915 264.871 43.5071 264.735 43.4802C264.577 43.4487 264.414 43.2418 264.345 43.1251C264.167 42.8213 263.973 42.5454 263.838 42.2198C263.703 41.8955 263.569 41.5644 263.487 41.2262C263.441 41.0366 263.393 40.8592 263.356 40.6684Z" fill="#444392"/>
<ellipse cx="271.643" cy="46.4167" rx="4.32061" ry="2.16031" fill="#D58151"/>
<ellipse cx="260.283" cy="53.7712" rx="1.3951" ry="2.7902" transform="rotate(-20.4683 260.283 53.7712)" fill="#D75F5F"/>
</svg>
