<svg width="17" height="16" viewBox="0 0 17 16" fill="none" xmlns="http://www.w3.org/2000/svg">
<path d="M11.7327 2.35317C10.1263 1.38295 6.08652 4.47216 4.9112 5.26054C4.57606 4.91305 2.61434 1.86205 1.67587 3.21134C0.997207 4.18709 1.43117 6.31624 1.83179 7.32701C1.91723 7.54257 2.84558 8.68951 2.72833 8.71058C2.24243 8.79791 1.83165 8.72823 1.442 9.07837C0.931125 9.53743 0.87693 10.7357 1.20812 11.2851C1.79394 12.2569 4.72068 11.3936 5.63233 11.2676C8.64574 10.851 5.85388 14.4369 8.14653 14.9629C9.67035 15.3125 10.8071 13.0892 10.9141 12.1082C10.9748 11.552 10.3018 10.2353 10.9531 9.81393C12.4172 8.86668 14.5114 10.4839 14.6367 7.78236C14.7323 5.72068 11.1426 5.75002 11.148 5.73328C11.396 4.96912 12.815 3.00687 11.7327 2.35317Z" fill="#4A5759"/>
<path d="M7.37646 6.50249C11.0168 8.71203 7.73007 8.85638 8.38736 7.48354C10.0074 4.09989 8.6962 10.7336 7.7747 7.65416C7.37432 6.31618 9.85268 6.52504 9.45952 7.65416C8.8764 9.32879 7.54588 7.59407 7.37646 6.88638" stroke="#CB906D" stroke-linecap="round" stroke-linejoin="round"/>
<path d="M7.56304 2.77734C8.8452 1.92577 10.9559 0.291626 12.7084 1.33962C13.8891 2.04571 12.3411 4.16526 12.0705 4.99067C12.0646 5.00874 15.9807 4.97705 15.8764 7.204C15.7397 10.1221 13.4551 8.37523 11.8579 9.39841C11.1475 9.85354 11.8816 11.2758 11.8154 11.8766C11.6986 12.9362 10.4586 15.3377 8.79622 14.9601C6.29515 14.392 9.34081 10.5186 6.05345 10.9686C5.05892 11.1047 1.86611 12.0372 1.22704 10.9875C0.865741 10.394 0.924863 9.09975 1.48218 8.60388C1.90725 8.22568 2.35537 8.30094 2.88545 8.20662C3.01335 8.18386 2.00062 6.94498 1.90741 6.71215C1.47036 5.62035 0.996953 3.32053 1.73732 2.26657C2.7611 0.809132 4.90116 4.10455 5.26677 4.4799" stroke="#192825" stroke-linecap="round" stroke-linejoin="round"/>
</svg>
