<svg width="155" height="505" viewBox="0 0 155 505" fill="none" xmlns="http://www.w3.org/2000/svg">
<path d="M46.2021 202.998V207.086C46.4915 206.704 46.8461 206.414 47.2661 206.218C47.6908 206.022 48.1201 205.924 48.5541 205.924C49.2728 205.924 49.7978 206.116 50.1291 206.498C50.4605 206.881 50.6261 207.413 50.6261 208.094V213.449H49.4501V208.122C49.4501 207.679 49.3475 207.357 49.1421 207.156C48.9368 206.951 48.6148 206.848 48.1761 206.848C47.8961 206.848 47.6301 206.911 47.3781 207.037C47.1261 207.163 46.8998 207.32 46.6991 207.506C46.4985 207.693 46.3328 207.884 46.2021 208.08V213.449H45.0261V203.124L46.2021 202.998ZM54.3447 210.18C54.3773 211.034 54.6013 211.657 55.0167 212.049C55.4367 212.437 55.9313 212.63 56.5007 212.63C56.8787 212.63 57.2193 212.574 57.5227 212.462C57.826 212.35 58.141 212.185 58.4677 211.965L59.0207 212.742C58.68 213.013 58.288 213.225 57.8447 213.379C57.4013 213.533 56.9487 213.61 56.4867 213.61C55.768 213.61 55.1567 213.449 54.6527 213.127C54.1533 212.805 53.7707 212.357 53.5047 211.783C53.2433 211.205 53.1127 210.535 53.1127 209.774C53.1127 209.028 53.2433 208.365 53.5047 207.786C53.7707 207.208 54.144 206.753 54.6247 206.421C55.11 206.09 55.6793 205.924 56.3327 205.924C57.2613 205.924 57.9917 206.246 58.5237 206.89C59.0603 207.534 59.3287 208.416 59.3287 209.536C59.3287 209.662 59.324 209.781 59.3147 209.893C59.31 210.005 59.3053 210.101 59.3007 210.18H54.3447ZM56.3467 206.89C55.8007 206.89 55.3433 207.084 54.9747 207.471C54.606 207.859 54.3983 208.458 54.3517 209.27H58.1947C58.1807 208.482 58.008 207.889 57.6767 207.492C57.3453 207.091 56.902 206.89 56.3467 206.89ZM65.1472 212.595C65.5159 212.595 65.8589 212.537 66.1762 212.42C66.4982 212.299 66.7945 212.143 67.0652 211.951L67.6392 212.721C67.3172 212.997 66.9299 213.214 66.4772 213.372C66.0245 213.531 65.5812 213.61 65.1472 213.61C64.4145 213.61 63.7892 213.454 63.2712 213.141C62.7579 212.824 62.3659 212.381 62.0952 211.811C61.8245 211.237 61.6892 210.565 61.6892 209.795C61.6892 209.058 61.8245 208.398 62.0952 207.814C62.3659 207.231 62.7602 206.771 63.2782 206.435C63.7962 206.095 64.4239 205.924 65.1612 205.924C66.0992 205.924 66.9205 206.209 67.6252 206.778L67.0512 207.562C66.4119 207.124 65.7772 206.904 65.1472 206.904C64.5125 206.904 63.9899 207.145 63.5792 207.625C63.1685 208.101 62.9632 208.825 62.9632 209.795C62.9632 210.78 63.1685 211.494 63.5792 211.937C63.9899 212.376 64.5125 212.595 65.1472 212.595ZM73.5417 212.595C73.9104 212.595 74.2534 212.537 74.5707 212.42C74.8927 212.299 75.1891 212.143 75.4597 211.951L76.0337 212.721C75.7117 212.997 75.3244 213.214 74.8717 213.372C74.4191 213.531 73.9757 213.61 73.5417 213.61C72.8091 213.61 72.1837 213.454 71.6657 213.141C71.1524 212.824 70.7604 212.381 70.4897 211.811C70.2191 211.237 70.0837 210.565 70.0837 209.795C70.0837 209.058 70.2191 208.398 70.4897 207.814C70.7604 207.231 71.1547 206.771 71.6727 206.435C72.1907 206.095 72.8184 205.924 73.5557 205.924C74.4937 205.924 75.3151 206.209 76.0197 206.778L75.4457 207.562C74.8064 207.124 74.1717 206.904 73.5417 206.904C72.9071 206.904 72.3844 207.145 71.9737 207.625C71.5631 208.101 71.3577 208.825 71.3577 209.795C71.3577 210.78 71.5631 211.494 71.9737 211.937C72.3844 212.376 72.9071 212.595 73.5417 212.595ZM83.8823 211.839C83.8823 212.138 83.9313 212.355 84.0293 212.49C84.1273 212.626 84.2789 212.724 84.4843 212.784L84.1973 213.61C83.8799 213.568 83.6023 213.468 83.3643 213.309C83.1263 213.146 82.9536 212.901 82.8463 212.574C82.5803 212.915 82.2466 213.174 81.8453 213.351C81.4486 213.524 81.0123 213.61 80.5363 213.61C79.7989 213.61 79.2179 213.403 78.7933 212.987C78.3686 212.572 78.1563 212.021 78.1563 211.335C78.1563 210.575 78.4526 209.991 79.0453 209.585C79.6379 209.179 80.4943 208.976 81.6143 208.976H82.6993V208.36C82.6993 207.828 82.5429 207.453 82.2303 207.233C81.9223 207.009 81.4929 206.897 80.9423 206.897C80.6996 206.897 80.4149 206.928 80.0883 206.988C79.7616 207.044 79.4069 207.14 79.0243 207.275L78.7163 206.386C79.1643 206.218 79.5866 206.099 79.9833 206.029C80.3846 205.959 80.7649 205.924 81.1243 205.924C82.0389 205.924 82.7273 206.139 83.1893 206.568C83.6513 206.998 83.8823 207.576 83.8823 208.304V211.839ZM80.8373 212.714C81.2013 212.714 81.5466 212.623 81.8733 212.441C82.2046 212.255 82.4799 211.998 82.6993 211.671V209.774H81.6353C80.8233 209.774 80.2493 209.914 79.9133 210.194C79.5819 210.474 79.4163 210.85 79.4163 211.321C79.4163 212.25 79.8899 212.714 80.8373 212.714ZM91.8568 205.924C92.0901 205.924 92.3165 205.976 92.5358 206.078C92.7551 206.181 92.9348 206.379 93.0748 206.673C93.2148 206.967 93.2848 207.397 93.2848 207.961V213.449H92.1928V208.15C92.1928 207.688 92.1648 207.355 92.1088 207.149C92.0528 206.944 91.8918 206.841 91.6258 206.841C91.4065 206.841 91.1871 206.911 90.9678 207.051C90.7485 207.187 90.5385 207.411 90.3378 207.723V213.449H89.2388V208.15C89.2388 207.688 89.2108 207.355 89.1548 207.149C89.0988 206.944 88.9378 206.841 88.6718 206.841C88.4431 206.841 88.2215 206.911 88.0068 207.051C87.7921 207.187 87.5845 207.411 87.3838 207.723V213.449H86.2988V206.078H87.2228L87.2928 206.932C87.4935 206.648 87.7175 206.41 87.9648 206.218C88.2168 206.022 88.5271 205.924 88.8958 205.924C89.1758 205.924 89.4395 205.992 89.6868 206.127C89.9341 206.258 90.1161 206.515 90.2328 206.897C90.4335 206.608 90.6598 206.375 90.9118 206.197C91.1638 206.015 91.4788 205.924 91.8568 205.924ZM98.6903 205.924C99.3437 205.924 99.864 206.083 100.251 206.4C100.643 206.718 100.926 207.166 101.098 207.744C101.271 208.318 101.357 208.99 101.357 209.76C101.357 210.502 101.252 211.165 101.042 211.748C100.837 212.327 100.524 212.782 100.104 213.113C99.6843 213.445 99.1547 213.61 98.5153 213.61C97.708 213.61 97.0593 213.326 96.5693 212.756V216.27L95.3933 216.417V206.078H96.3943L96.4923 207.107C96.763 206.729 97.085 206.438 97.4583 206.232C97.8317 206.027 98.2423 205.924 98.6903 205.924ZM98.4103 206.869C98.0043 206.869 97.645 206.993 97.3323 207.24C97.0197 207.483 96.7653 207.754 96.5693 208.052V211.706C96.7607 211.991 97.001 212.217 97.2903 212.385C97.5843 212.549 97.9063 212.63 98.2563 212.63C98.8677 212.63 99.3273 212.397 99.6353 211.93C99.9433 211.464 100.097 210.738 100.097 209.753C100.097 207.831 99.535 206.869 98.4103 206.869Z" fill="black"/>
<path d="M56.7527 92.5952C57.1213 92.5952 57.4643 92.5369 57.7817 92.4202C58.1037 92.2989 58.4 92.1426 58.6707 91.9512L59.2447 92.7212C58.9227 92.9966 58.5353 93.2136 58.0827 93.3722C57.63 93.5309 57.1867 93.6102 56.7527 93.6102C56.02 93.6102 55.3947 93.4539 54.8767 93.1412C54.3633 92.8239 53.9713 92.3806 53.7007 91.8112C53.43 91.2372 53.2947 90.5652 53.2947 89.7952C53.2947 89.0579 53.43 88.3976 53.7007 87.8142C53.9713 87.2309 54.3657 86.7712 54.8837 86.4352C55.4017 86.0946 56.0293 85.9242 56.7667 85.9242C57.7047 85.9242 58.526 86.2089 59.2307 86.7782L58.6567 87.5622C58.0173 87.1236 57.3827 86.9042 56.7527 86.9042C56.118 86.9042 55.5953 87.1446 55.1847 87.6252C54.774 88.1012 54.5687 88.8246 54.5687 89.7952C54.5687 90.7799 54.774 91.4939 55.1847 91.9372C55.5953 92.3759 56.118 92.5952 56.7527 92.5952ZM66.6732 85.9242C66.9065 85.9242 67.1329 85.9756 67.3522 86.0782C67.5715 86.1809 67.7512 86.3792 67.8912 86.6732C68.0312 86.9672 68.1012 87.3966 68.1012 87.9612V93.4492H67.0092V88.1502C67.0092 87.6882 66.9812 87.3546 66.9252 87.1492C66.8692 86.9439 66.7082 86.8412 66.4422 86.8412C66.2229 86.8412 66.0035 86.9112 65.7842 87.0512C65.5649 87.1866 65.3549 87.4106 65.1542 87.7232V93.4492H64.0552V88.1502C64.0552 87.6882 64.0272 87.3546 63.9712 87.1492C63.9152 86.9439 63.7542 86.8412 63.4882 86.8412C63.2595 86.8412 63.0379 86.9112 62.8232 87.0512C62.6085 87.1866 62.4009 87.4106 62.2002 87.7232V93.4492H61.1152V86.0782H62.0392L62.1092 86.9322C62.3099 86.6476 62.5339 86.4096 62.7812 86.2182C63.0332 86.0222 63.3435 85.9242 63.7122 85.9242C63.9922 85.9242 64.2559 85.9919 64.5032 86.1272C64.7505 86.2579 64.9325 86.5146 65.0492 86.8972C65.2499 86.6079 65.4762 86.3746 65.7282 86.1972C65.9802 86.0152 66.2952 85.9242 66.6732 85.9242ZM74.6197 82.9632L75.7957 83.1102V93.4492H74.7667L74.6547 92.4762C74.3794 92.8682 74.0621 93.1552 73.7027 93.3372C73.3481 93.5192 72.9677 93.6102 72.5617 93.6102C71.9224 93.6102 71.3951 93.4492 70.9797 93.1272C70.5644 92.8052 70.2564 92.3572 70.0557 91.7832C69.8551 91.2046 69.7547 90.5349 69.7547 89.7742C69.7547 89.0369 69.8691 88.3789 70.0977 87.8002C70.3264 87.2169 70.6554 86.7596 71.0847 86.4282C71.5187 86.0922 72.0391 85.9242 72.6457 85.9242C73.4624 85.9242 74.1204 86.2136 74.6197 86.7922V82.9632ZM72.9537 86.8692C72.3377 86.8692 71.8641 87.1096 71.5327 87.5902C71.2014 88.0709 71.0357 88.7989 71.0357 89.7742C71.0357 91.6969 71.6261 92.6582 72.8067 92.6582C73.2221 92.6582 73.5791 92.5416 73.8777 92.3082C74.1764 92.0702 74.4237 91.7996 74.6197 91.4962V87.8142C74.4191 87.5156 74.1764 87.2846 73.8917 87.1212C73.6071 86.9532 73.2944 86.8692 72.9537 86.8692ZM78.5903 90.1382V89.1162H84.2043V90.1382H78.5903ZM91.3528 82.9632C91.7495 82.9632 92.1088 82.9982 92.4308 83.0682C92.7528 83.1382 93.0585 83.2362 93.3478 83.3622L92.9698 84.2372C92.7318 84.1346 92.4775 84.0576 92.2068 84.0062C91.9408 83.9549 91.6678 83.9292 91.3878 83.9292C90.3565 83.9292 89.8408 84.3376 89.8408 85.1542V86.6522H92.3398L92.2138 87.5762H89.8408V93.4492H88.6648V87.5762H86.9078V86.6522H88.6648V85.1822C88.6648 84.7249 88.7815 84.3306 89.0148 83.9992C89.2528 83.6679 89.5748 83.4136 89.9808 83.2362C90.3868 83.0542 90.8441 82.9632 91.3528 82.9632Z" fill="black"/>
<path d="M51.0261 346.449V339.078H52.0271L52.1181 340.1C52.4168 339.722 52.7901 339.433 53.2381 339.232C53.6861 339.027 54.1248 338.924 54.5541 338.924C55.2775 338.924 55.8025 339.116 56.1291 339.498C56.4605 339.881 56.6261 340.413 56.6261 341.094V346.449H55.4501V341.962C55.4501 341.458 55.4221 341.052 55.3661 340.744C55.3101 340.436 55.1911 340.21 55.0091 340.065C54.8318 339.921 54.5588 339.848 54.1901 339.848C53.9008 339.848 53.6278 339.911 53.3711 340.037C53.1191 340.163 52.8928 340.322 52.6921 340.513C52.4961 340.7 52.3328 340.889 52.2021 341.08V346.449H51.0261ZM64.8807 346.449H63.2147L62.2627 341.038L61.2267 346.449H59.6027L58.2587 339.078H59.4627L60.4007 345.721L61.5767 340.016H62.9697L64.0827 345.721L65.0207 339.078H66.1687L64.8807 346.449ZM72.4282 346.449V341.878H68.7882V346.449H67.5772V336.81H68.7882V340.884H72.4282V336.81H73.6392V346.449H72.4282ZM77.1337 343.18C77.1664 344.034 77.3904 344.657 77.8057 345.049C78.2257 345.437 78.7204 345.63 79.2897 345.63C79.6677 345.63 80.0084 345.574 80.3117 345.462C80.6151 345.35 80.9301 345.185 81.2567 344.965L81.8097 345.742C81.4691 346.013 81.0771 346.225 80.6337 346.379C80.1904 346.533 79.7377 346.61 79.2757 346.61C78.5571 346.61 77.9457 346.449 77.4417 346.127C76.9424 345.805 76.5597 345.357 76.2937 344.783C76.0324 344.205 75.9017 343.535 75.9017 342.774C75.9017 342.028 76.0324 341.365 76.2937 340.786C76.5597 340.208 76.9331 339.753 77.4137 339.421C77.8991 339.09 78.4684 338.924 79.1217 338.924C80.0504 338.924 80.7807 339.246 81.3127 339.89C81.8494 340.534 82.1177 341.416 82.1177 342.536C82.1177 342.662 82.1131 342.781 82.1037 342.893C82.0991 343.005 82.0944 343.101 82.0897 343.18H77.1337ZM79.1357 339.89C78.5897 339.89 78.1324 340.084 77.7637 340.471C77.3951 340.859 77.1874 341.458 77.1407 342.27H80.9837C80.9697 341.482 80.7971 340.889 80.4657 340.492C80.1344 340.091 79.6911 339.89 79.1357 339.89ZM87.9363 345.595C88.3049 345.595 88.6479 345.537 88.9653 345.42C89.2873 345.299 89.5836 345.143 89.8543 344.951L90.4283 345.721C90.1063 345.997 89.7189 346.214 89.2663 346.372C88.8136 346.531 88.3703 346.61 87.9363 346.61C87.2036 346.61 86.5783 346.454 86.0603 346.141C85.5469 345.824 85.1549 345.381 84.8843 344.811C84.6136 344.237 84.4783 343.565 84.4783 342.795C84.4783 342.058 84.6136 341.398 84.8843 340.814C85.1549 340.231 85.5493 339.771 86.0673 339.435C86.5853 339.095 87.2129 338.924 87.9503 338.924C88.8883 338.924 89.7096 339.209 90.4143 339.778L89.8403 340.562C89.2009 340.124 88.5663 339.904 87.9363 339.904C87.3016 339.904 86.7789 340.145 86.3683 340.625C85.9576 341.101 85.7523 341.825 85.7523 342.795C85.7523 343.78 85.9576 344.494 86.3683 344.937C86.7789 345.376 87.3016 345.595 87.9363 345.595ZM96.3308 345.595C96.6995 345.595 97.0425 345.537 97.3598 345.42C97.6818 345.299 97.9781 345.143 98.2488 344.951L98.8228 345.721C98.5008 345.997 98.1135 346.214 97.6608 346.372C97.2081 346.531 96.7648 346.61 96.3308 346.61C95.5981 346.61 94.9728 346.454 94.4548 346.141C93.9415 345.824 93.5495 345.381 93.2788 344.811C93.0081 344.237 92.8728 343.565 92.8728 342.795C92.8728 342.058 93.0081 341.398 93.2788 340.814C93.5495 340.231 93.9438 339.771 94.4618 339.435C94.9798 339.095 95.6075 338.924 96.3448 338.924C97.2828 338.924 98.1041 339.209 98.8088 339.778L98.2348 340.562C97.5955 340.124 96.9608 339.904 96.3308 339.904C95.6961 339.904 95.1735 340.145 94.7628 340.625C94.3521 341.101 94.1468 341.825 94.1468 342.795C94.1468 343.78 94.3521 344.494 94.7628 344.937C95.1735 345.376 95.6961 345.595 96.3308 345.595ZM103.899 345.637C104.469 345.637 104.917 345.532 105.243 345.322C105.57 345.112 105.733 344.828 105.733 344.468C105.733 344.249 105.691 344.058 105.607 343.894C105.528 343.731 105.362 343.584 105.11 343.453C104.858 343.318 104.471 343.185 103.948 343.054C103.44 342.928 102.996 342.784 102.618 342.62C102.245 342.452 101.953 342.235 101.743 341.969C101.538 341.703 101.435 341.358 101.435 340.933C101.435 340.313 101.694 339.823 102.212 339.463C102.73 339.104 103.405 338.924 104.235 338.924C104.828 338.924 105.344 339.004 105.782 339.162C106.226 339.321 106.601 339.512 106.909 339.736L106.391 340.534C106.116 340.343 105.808 340.187 105.467 340.065C105.131 339.939 104.725 339.876 104.249 339.876C103.671 339.876 103.26 339.967 103.017 340.149C102.775 340.327 102.653 340.558 102.653 340.842C102.653 341.062 102.712 341.244 102.828 341.388C102.95 341.528 103.153 341.654 103.437 341.766C103.722 341.878 104.114 342.002 104.613 342.137C105.094 342.268 105.514 342.422 105.873 342.599C106.233 342.777 106.51 343.01 106.706 343.299C106.907 343.584 107.007 343.955 107.007 344.412C107.007 344.935 106.858 345.36 106.559 345.686C106.261 346.008 105.873 346.244 105.397 346.393C104.926 346.538 104.427 346.61 103.899 346.61C103.232 346.61 102.663 346.515 102.191 346.323C101.725 346.127 101.333 345.892 101.015 345.616L101.687 344.839C101.977 345.077 102.308 345.271 102.681 345.42C103.059 345.565 103.465 345.637 103.899 345.637Z" fill="black"/>
<path d="M49.8989 485.449V484.546H51.0469V478.981H49.8989V478.078H51.9429L52.1599 479.821C52.4445 479.215 52.7899 478.746 53.1959 478.414C53.6019 478.083 54.1385 477.917 54.8059 477.917C55.0112 477.917 55.1932 477.934 55.3519 477.966C55.5152 477.994 55.6809 478.032 55.8489 478.078L55.6809 480.57H54.7149V479.002C54.6962 479.002 54.6752 479.002 54.6519 479.002C53.5225 479.002 52.7129 479.81 52.2229 481.424V484.546H53.7209V485.449H49.8989ZM59.1474 482.18C59.1801 483.034 59.4041 483.657 59.8194 484.049C60.2394 484.437 60.7341 484.63 61.3034 484.63C61.6814 484.63 62.0221 484.574 62.3254 484.462C62.6287 484.35 62.9437 484.185 63.2704 483.965L63.8234 484.742C63.4827 485.013 63.0907 485.225 62.6474 485.379C62.2041 485.533 61.7514 485.61 61.2894 485.61C60.5707 485.61 59.9594 485.449 59.4554 485.127C58.9561 484.805 58.5734 484.357 58.3074 483.783C58.0461 483.205 57.9154 482.535 57.9154 481.774C57.9154 481.028 58.0461 480.365 58.3074 479.786C58.5734 479.208 58.9467 478.753 59.4274 478.421C59.9127 478.09 60.4821 477.924 61.1354 477.924C62.0641 477.924 62.7944 478.246 63.3264 478.89C63.8631 479.534 64.1314 480.416 64.1314 481.536C64.1314 481.662 64.1267 481.781 64.1174 481.893C64.1127 482.005 64.1081 482.101 64.1034 482.18H59.1474ZM61.1494 478.89C60.6034 478.89 60.1461 479.084 59.7774 479.471C59.4087 479.859 59.2011 480.458 59.1544 481.27H62.9974C62.9834 480.482 62.8107 479.889 62.4794 479.492C62.1481 479.091 61.7047 478.89 61.1494 478.89ZM71.0279 474.963L72.2039 475.11V485.449H71.1749L71.0629 484.476C70.7876 484.868 70.4703 485.155 70.1109 485.337C69.7563 485.519 69.3759 485.61 68.9699 485.61C68.3306 485.61 67.8033 485.449 67.3879 485.127C66.9726 484.805 66.6646 484.357 66.4639 483.783C66.2633 483.205 66.1629 482.535 66.1629 481.774C66.1629 481.037 66.2773 480.379 66.5059 479.8C66.7346 479.217 67.0636 478.76 67.4929 478.428C67.9269 478.092 68.4473 477.924 69.0539 477.924C69.8706 477.924 70.5286 478.214 71.0279 478.792V474.963ZM69.3619 478.869C68.7459 478.869 68.2723 479.11 67.9409 479.59C67.6096 480.071 67.4439 480.799 67.4439 481.774C67.4439 483.697 68.0343 484.658 69.2149 484.658C69.6303 484.658 69.9873 484.542 70.2859 484.308C70.5846 484.07 70.8319 483.8 71.0279 483.496V479.814C70.8273 479.516 70.5846 479.285 70.2999 479.121C70.0153 478.953 69.7026 478.869 69.3619 478.869ZM80.2905 483.839C80.2905 484.138 80.3395 484.355 80.4375 484.49C80.5355 484.626 80.6871 484.724 80.8925 484.784L80.6055 485.61C80.2881 485.568 80.0105 485.468 79.7725 485.309C79.5345 485.146 79.3618 484.901 79.2545 484.574C78.9885 484.915 78.6548 485.174 78.2535 485.351C77.8568 485.524 77.4205 485.61 76.9445 485.61C76.2071 485.61 75.6261 485.403 75.2015 484.987C74.7768 484.572 74.5645 484.021 74.5645 483.335C74.5645 482.575 74.8608 481.991 75.4535 481.585C76.0461 481.179 76.9025 480.976 78.0225 480.976H79.1075V480.36C79.1075 479.828 78.9511 479.453 78.6385 479.233C78.3305 479.009 77.9011 478.897 77.3505 478.897C77.1078 478.897 76.8231 478.928 76.4965 478.988C76.1698 479.044 75.8151 479.14 75.4325 479.275L75.1245 478.386C75.5725 478.218 75.9948 478.099 76.3915 478.029C76.7928 477.959 77.1731 477.924 77.5325 477.924C78.4471 477.924 79.1355 478.139 79.5975 478.568C80.0595 478.998 80.2905 479.576 80.2905 480.304V483.839ZM77.2455 484.714C77.6095 484.714 77.9548 484.623 78.2815 484.441C78.6128 484.255 78.8881 483.998 79.1075 483.671V481.774H78.0435C77.2315 481.774 76.6575 481.914 76.3215 482.194C75.9901 482.474 75.8245 482.85 75.8245 483.321C75.8245 484.25 76.2981 484.714 77.2455 484.714ZM86.739 484.595C87.1077 484.595 87.4507 484.537 87.768 484.42C88.09 484.299 88.3863 484.143 88.657 483.951L89.231 484.721C88.909 484.997 88.5217 485.214 88.069 485.372C87.6163 485.531 87.173 485.61 86.739 485.61C86.0063 485.61 85.381 485.454 84.863 485.141C84.3497 484.824 83.9577 484.381 83.687 483.811C83.4163 483.237 83.281 482.565 83.281 481.795C83.281 481.058 83.4163 480.398 83.687 479.814C83.9577 479.231 84.352 478.771 84.87 478.435C85.388 478.095 86.0157 477.924 86.753 477.924C87.691 477.924 88.5123 478.209 89.217 478.778L88.643 479.562C88.0037 479.124 87.369 478.904 86.739 478.904C86.1043 478.904 85.5817 479.145 85.171 479.625C84.7603 480.101 84.555 480.825 84.555 481.795C84.555 482.78 84.7603 483.494 85.171 483.937C85.5817 484.376 86.1043 484.595 86.739 484.595ZM97.6535 485.078C97.4015 485.246 97.0959 485.377 96.7365 485.47C96.3772 485.564 96.0249 485.61 95.6795 485.61C94.8862 485.61 94.2749 485.403 93.8455 484.987C93.4162 484.572 93.2015 484.038 93.2015 483.384V478.988H91.5075V478.078H93.2015V476.405L94.3775 476.265V478.078H96.9255L96.7855 478.988H94.3775V483.37C94.3775 483.781 94.4849 484.094 94.6995 484.308C94.9189 484.523 95.2805 484.63 95.7845 484.63C96.0599 484.63 96.3142 484.598 96.5475 484.532C96.7809 484.467 96.9979 484.383 97.1985 484.28L97.6535 485.078ZM101.12 482.18C101.153 483.034 101.377 483.657 101.792 484.049C102.212 484.437 102.707 484.63 103.276 484.63C103.654 484.63 103.995 484.574 104.298 484.462C104.601 484.35 104.916 484.185 105.243 483.965L105.796 484.742C105.455 485.013 105.063 485.225 104.62 485.379C104.177 485.533 103.724 485.61 103.262 485.61C102.543 485.61 101.932 485.449 101.428 485.127C100.929 484.805 100.546 484.357 100.28 483.783C100.019 483.205 99.8881 482.535 99.8881 481.774C99.8881 481.028 100.019 480.365 100.28 479.786C100.546 479.208 100.919 478.753 101.4 478.421C101.885 478.09 102.455 477.924 103.108 477.924C104.037 477.924 104.767 478.246 105.299 478.89C105.836 479.534 106.104 480.416 106.104 481.536C106.104 481.662 106.099 481.781 106.09 481.893C106.085 482.005 106.081 482.101 106.076 482.18H101.12ZM103.122 478.89C102.576 478.89 102.119 479.084 101.75 479.471C101.381 479.859 101.174 480.458 101.127 481.27H104.97C104.956 480.482 104.783 479.889 104.452 479.492C104.121 479.091 103.677 478.89 103.122 478.89ZM113.001 474.963L114.177 475.11V485.449H113.148L113.036 484.476C112.76 484.868 112.443 485.155 112.084 485.337C111.729 485.519 111.349 485.61 110.943 485.61C110.303 485.61 109.776 485.449 109.361 485.127C108.945 484.805 108.637 484.357 108.437 483.783C108.236 483.205 108.136 482.535 108.136 481.774C108.136 481.037 108.25 480.379 108.479 479.8C108.707 479.217 109.036 478.76 109.466 478.428C109.9 478.092 110.42 477.924 111.027 477.924C111.843 477.924 112.501 478.214 113.001 478.792V474.963ZM111.335 478.869C110.719 478.869 110.245 479.11 109.914 479.59C109.582 480.071 109.417 480.799 109.417 481.774C109.417 483.697 110.007 484.658 111.188 484.658C111.603 484.658 111.96 484.542 112.259 484.308C112.557 484.07 112.805 483.8 113.001 483.496V479.814C112.8 479.516 112.557 479.285 112.273 479.121C111.988 478.953 111.675 478.869 111.335 478.869ZM63.5967 493.998V498.086C63.886 497.704 64.2407 497.414 64.6607 497.218C65.0853 497.022 65.5147 496.924 65.9487 496.924C66.6673 496.924 67.1923 497.116 67.5237 497.498C67.855 497.881 68.0207 498.413 68.0207 499.094V504.449H66.8447V499.122C66.8447 498.679 66.742 498.357 66.5367 498.156C66.3313 497.951 66.0093 497.848 65.5707 497.848C65.2907 497.848 65.0247 497.911 64.7727 498.037C64.5207 498.163 64.2943 498.32 64.0937 498.506C63.893 498.693 63.7273 498.884 63.5967 499.08V504.449H62.4207V494.124L63.5967 493.998ZM71.7392 501.18C71.7719 502.034 71.9959 502.657 72.4112 503.049C72.8312 503.437 73.3259 503.63 73.8952 503.63C74.2732 503.63 74.6139 503.574 74.9172 503.462C75.2205 503.35 75.5355 503.185 75.8622 502.965L76.4152 503.742C76.0745 504.013 75.6825 504.225 75.2392 504.379C74.7959 504.533 74.3432 504.61 73.8812 504.61C73.1625 504.61 72.5512 504.449 72.0472 504.127C71.5479 503.805 71.1652 503.357 70.8992 502.783C70.6379 502.205 70.5072 501.535 70.5072 500.774C70.5072 500.028 70.6379 499.365 70.8992 498.786C71.1652 498.208 71.5385 497.753 72.0192 497.421C72.5045 497.09 73.0739 496.924 73.7272 496.924C74.6559 496.924 75.3862 497.246 75.9182 497.89C76.4549 498.534 76.7232 499.416 76.7232 500.536C76.7232 500.662 76.7185 500.781 76.7092 500.893C76.7045 501.005 76.6999 501.101 76.6952 501.18H71.7392ZM73.7412 497.89C73.1952 497.89 72.7379 498.084 72.3692 498.471C72.0005 498.859 71.7929 499.458 71.7462 500.27H75.5892C75.5752 499.482 75.4025 498.889 75.0712 498.492C74.7399 498.091 74.2965 497.89 73.7412 497.89ZM82.5417 503.595C82.9104 503.595 83.2534 503.537 83.5707 503.42C83.8927 503.299 84.1891 503.143 84.4597 502.951L85.0337 503.721C84.7117 503.997 84.3244 504.214 83.8717 504.372C83.4191 504.531 82.9757 504.61 82.5417 504.61C81.8091 504.61 81.1837 504.454 80.6657 504.141C80.1524 503.824 79.7604 503.381 79.4897 502.811C79.2191 502.237 79.0837 501.565 79.0837 500.795C79.0837 500.058 79.2191 499.398 79.4897 498.814C79.7604 498.231 80.1547 497.771 80.6727 497.435C81.1907 497.095 81.8184 496.924 82.5557 496.924C83.4937 496.924 84.3151 497.209 85.0197 497.778L84.4457 498.562C83.8064 498.124 83.1717 497.904 82.5417 497.904C81.9071 497.904 81.3844 498.145 80.9737 498.625C80.5631 499.101 80.3577 499.825 80.3577 500.795C80.3577 501.78 80.5631 502.494 80.9737 502.937C81.3844 503.376 81.9071 503.595 82.5417 503.595ZM90.9363 503.595C91.3049 503.595 91.6479 503.537 91.9653 503.42C92.2873 503.299 92.5836 503.143 92.8543 502.951L93.4283 503.721C93.1063 503.997 92.7189 504.214 92.2663 504.372C91.8136 504.531 91.3703 504.61 90.9363 504.61C90.2036 504.61 89.5783 504.454 89.0603 504.141C88.5469 503.824 88.1549 503.381 87.8843 502.811C87.6136 502.237 87.4783 501.565 87.4783 500.795C87.4783 500.058 87.6136 499.398 87.8843 498.814C88.1549 498.231 88.5493 497.771 89.0673 497.435C89.5853 497.095 90.2129 496.924 90.9503 496.924C91.8883 496.924 92.7096 497.209 93.4143 497.778L92.8403 498.562C92.2009 498.124 91.5663 497.904 90.9363 497.904C90.3016 497.904 89.7789 498.145 89.3683 498.625C88.9576 499.101 88.7523 499.825 88.7523 500.795C88.7523 501.78 88.9576 502.494 89.3683 502.937C89.7789 503.376 90.3016 503.595 90.9363 503.595ZM98.5048 503.637C99.0741 503.637 99.5221 503.532 99.8488 503.322C100.175 503.112 100.339 502.828 100.339 502.468C100.339 502.249 100.297 502.058 100.213 501.894C100.133 501.731 99.9678 501.584 99.7158 501.453C99.4638 501.318 99.0765 501.185 98.5538 501.054C98.0451 500.928 97.6018 500.784 97.2238 500.62C96.8505 500.452 96.5588 500.235 96.3488 499.969C96.1435 499.703 96.0408 499.358 96.0408 498.933C96.0408 498.313 96.2998 497.823 96.8178 497.463C97.3358 497.104 98.0101 496.924 98.8408 496.924C99.4335 496.924 99.9491 497.004 100.388 497.162C100.831 497.321 101.207 497.512 101.515 497.736L100.997 498.534C100.721 498.343 100.413 498.187 100.073 498.065C99.7368 497.939 99.3308 497.876 98.8548 497.876C98.2761 497.876 97.8655 497.967 97.6228 498.149C97.3801 498.327 97.2588 498.558 97.2588 498.842C97.2588 499.062 97.3171 499.244 97.4338 499.388C97.5551 499.528 97.7581 499.654 98.0428 499.766C98.3275 499.878 98.7195 500.002 99.2188 500.137C99.6995 500.268 100.119 500.422 100.479 500.599C100.838 500.777 101.116 501.01 101.312 501.299C101.512 501.584 101.613 501.955 101.613 502.412C101.613 502.935 101.463 503.36 101.165 503.686C100.866 504.008 100.479 504.244 100.003 504.393C99.5315 504.538 99.0321 504.61 98.5048 504.61C97.8375 504.61 97.2681 504.515 96.7968 504.323C96.3301 504.127 95.9381 503.892 95.6208 503.616L96.2928 502.839C96.5821 503.077 96.9135 503.271 97.2868 503.42C97.6648 503.565 98.0708 503.637 98.5048 503.637Z" fill="black"/>
<path d="M97.189 133.938V120.618L107.511 127.278L97.189 133.938Z" fill="#CD7047"/>
<path d="M86.222 186.476H68.8037L78.8676 167.977L86.222 186.476Z" fill="#CD7047"/>
<path d="M26.8708 186.475L69.9444 142.077L83.2911 151.697L95.4245 142.077L118.478 186.475H83.2911L78.4378 170.936L69.9444 186.475H26.8708Z" fill="#F5BF9C" stroke="#F5BF9C"/>
<path d="M24.2902 184.997C32.5239 177.31 41.8768 171.403 49.4141 162.757C56.3644 154.785 64.1189 147.689 72.3159 141.421C75.6812 138.848 80.58 150.015 83.6413 151.575C85.6256 152.587 87.2368 147.727 88.3005 146.396C90.2762 143.923 92.6892 141.171 95.2893 139.53C97.9938 137.824 98.2857 140.435 99.16 142.942C101.243 148.916 104.694 153.691 107.762 159.016C110.9 164.465 113.325 170.55 117.152 175.378C118.704 177.336 119.836 179.668 121.381 181.626C123.486 184.295 122.642 184.112 119.768 184.627C110.824 186.23 101.654 185.737 92.6372 185.737C90.5465 185.737 88.4558 185.737 86.3652 185.737C84.6059 185.737 85.253 184.707 84.6448 183.189C82.9629 178.99 80.25 174.132 79.7706 169.458C79.7605 169.36 73.6738 176.487 72.961 177.433C69.5998 181.893 69.1309 183.517 63.7143 183.517C58.3722 183.517 53.1963 184.092 47.873 184.257C44.3798 184.366 39.6798 184.265 36.2608 185.162C32.0717 186.26 27.2173 187.35 23 185.737" stroke="#CD7047" stroke-linecap="round" stroke-linejoin="round"/>
<path d="M97.1888 134.678C97.1888 131.239 97.1888 127.799 97.1888 124.36C97.1888 121.244 96.6544 119.459 99.5184 121.03C102.487 122.658 105.43 125.2 108.443 126.456C109.796 127.021 103.293 129.376 101.848 129.498C100.185 129.64 97.9346 130.921 96.5437 131.718" stroke="#B15F3A" stroke-linecap="round" stroke-linejoin="round"/>
<path d="M50.5265 289.407L51.4225 293.609L47.8385 297.286C32.6065 292.646 1.96334 283.051 1.24654 281.79C0.52974 280.53 1.54521 277.413 2.14254 276.012L50.5265 289.407Z" fill="#655DA4"/>
<path d="M65.4674 299.389L66.3634 303.591L62.7794 307.268C47.5474 302.628 16.9043 293.033 16.1875 291.772C15.4707 290.511 16.4861 287.395 17.0835 285.994L65.4674 299.389Z" fill="#655DA4"/>
<path d="M69.41 306.741L70.306 310.943L66.7221 314.62C51.4901 309.98 20.8469 300.385 20.1301 299.125C19.4133 297.864 20.4288 294.747 21.0261 293.347L69.41 306.741Z" fill="#655DA4"/>
<path d="M105.364 294.125L104.466 299.313L108.058 303.852C123.323 298.124 154.035 286.278 154.753 284.722C155.471 283.165 154.454 279.318 153.855 277.588L105.364 294.125Z" fill="#655DA4"/>
<path d="M91.3861 303.58L90.4881 308.768L94.08 313.307C109.346 307.579 140.057 295.733 140.775 294.177C141.494 292.62 140.476 288.773 139.877 287.043L91.3861 303.58Z" fill="#655DA4"/>
<path d="M86.7267 311.986L85.8287 317.174L92.2799 315.672C107.546 309.944 135.398 304.139 136.116 302.583C136.834 301.026 135.817 297.179 135.218 295.449L86.7267 311.986Z" fill="#655DA4"/>
<path d="M84.2163 261.831L77.5859 279.428L84.2163 289.145C86.9641 289.933 92.6746 290.038 93.5347 284.155C94.3949 278.272 87.6809 266.821 84.2163 261.831Z" fill="#FCEDD9"/>
<path d="M78.1237 262.882L73.6437 282.579L69.5221 292.034L59.3077 287.832C58.4715 286.081 57.8024 280.216 61.8165 270.761C65.8306 261.306 74.3605 261.568 78.1237 262.882Z" fill="#FCEDD9"/>
<path d="M21.8545 315.67L68.2672 282.841L73.8224 285.205L80.4528 276.012L130.45 308.842L124.178 320.398H23.1089L21.8545 315.67Z" fill="#372F6F"/>
<path d="M66.4753 284.156L68.8049 282.055L73.4641 284.156L80.6321 275.751L90.1297 282.055L82.4241 287.57H78.6609L75.6145 290.722L66.4753 284.156Z" fill="#938BD1"/>
<path d="M30.8144 308.054C32.7714 306.879 34.6338 305.652 36.5388 304.275C39.353 302.242 42.3167 300.737 45.1503 298.774C47.8754 296.887 50.7034 295.17 53.3637 293.099C55.0562 291.781 57.2356 291.345 58.7596 289.67C59.5511 288.8 60.4214 288.119 61.2385 287.306C63.0591 285.495 65.2425 285.058 67.2317 283.775C67.8202 283.395 68.3975 282.345 69.0835 282.345C70.1688 282.345 71.1918 282.956 72.1697 283.571C72.5775 283.827 72.9659 284.083 73.4042 284.169C74.5896 284.401 75.405 282.531 76.2017 281.455C77.1827 280.13 78.1618 278.95 79.0589 277.53C79.4194 276.96 79.8166 275.604 80.4527 275.604C81.3048 275.604 82.2732 276.6 82.9615 277.194C85.5239 279.408 88.0937 281.672 90.7467 283.644C93.6045 285.767 96.6516 287.274 99.5873 289.144C102.08 290.733 104.533 292.456 107.034 294.018C110.642 296.271 114.298 298.145 117.985 300.044C121.673 301.943 125 304.848 128.478 307.398C129.425 308.091 129.906 309.203 130.718 310.155C131.236 310.763 127.406 316.211 127.005 316.78C126.206 317.911 125.403 319.004 124.805 320.369C124.232 321.674 122.93 321.255 122.027 321.128C117.471 320.484 112.84 320.879 108.268 320.923C105.915 320.946 103.564 321.241 101.21 321.303C96.4419 321.428 91.6752 321.113 86.9139 320.792C75.2854 320.01 63.743 321.449 52.1292 321.449C45.8636 321.449 39.5775 321.169 33.3431 320.194C30.283 319.716 27.2055 319.549 24.2039 318.414C23.6484 318.204 22.3053 318.528 22.2227 317.378C22.1475 316.33 21.9849 315.312 21.8942 314.27C21.8305 313.539 23.2339 312.815 23.6065 312.577C25.4144 311.424 27.5478 310.794 29.2016 309.236C29.9206 308.559 30.5102 307.992 31.352 307.529" stroke="#372F6F" stroke-linecap="round" stroke-linejoin="round"/>
<path d="M66.4753 283.892C67.9878 285.504 69.6176 286.367 71.2839 287.539C72.2832 288.242 73.8073 289.932 74.8977 289.932C75.795 289.932 77.0439 288.861 77.755 288.079C78.5025 287.257 78.9731 286.424 79.8755 287.306C80.5695 287.984 81.4851 288.619 82.3345 288.619C83.1805 288.619 83.7651 288.069 84.5745 287.773C85.9297 287.276 87.1152 286.496 88.3974 285.745C89.0576 285.358 89.5538 284.68 90.3089 284.68" stroke="#373170" stroke-linecap="round" stroke-linejoin="round"/>
<path d="M105.899 293.608C108.583 292.379 111.422 291.796 114.162 290.865C117.387 289.77 120.578 288.562 123.749 287.174C127.66 285.462 131.616 283.923 135.567 282.432C137.718 281.62 140.039 280.787 142.257 280.491C144.977 280.129 147.634 279.163 150.341 278.58C151.159 278.404 151.966 277.978 152.78 277.719C153.81 277.391 153.925 277.792 153.925 279.163C153.925 280.379 154.065 281.536 153.885 282.753C153.485 285.451 151.285 286.974 149.694 287.83C144.441 290.658 138.854 292.027 133.337 293.229C130.274 293.896 127 294.451 124.028 295.695C122.535 296.32 121.025 296.962 119.479 297.227C117.646 297.541 115.805 297.811 113.963 297.811" stroke="#372F6F" stroke-linecap="round" stroke-linejoin="round"/>
<path d="M141.56 291.245C141.497 295.212 138.891 295.57 136.622 296.235C133.87 297.042 131.13 298.038 128.379 298.803C125.603 299.575 122.841 300.642 120.056 301.225" stroke="#372F6F" stroke-linecap="round" stroke-linejoin="round"/>
<path d="M136.363 297.549C136.363 299.564 136.518 300.845 135.288 302.014C134.25 303 132.765 303.84 131.525 304.1C130.892 304.233 130.262 304.496 129.623 304.771C128.731 305.156 127.748 304.997 126.866 305.428" stroke="#372F6F" stroke-linecap="round" stroke-linejoin="round"/>
<path d="M51.7808 294.135C51.6514 292.973 51.3281 291.757 51.2532 290.604C51.1874 289.591 50.6989 289.933 50.0685 289.933C48.6499 289.933 47.2915 289.382 45.8872 289.203C43.6242 288.915 41.3578 288.707 39.0975 288.357C35.5817 287.813 32.2934 286.017 28.8532 285.089C26.1445 284.357 23.3588 283.926 20.6797 282.958C18.8768 282.307 17.1315 281.541 15.3635 280.711C14.0825 280.11 12.7596 280.305 11.4609 279.836C10.4535 279.472 9.4777 278.926 8.48418 278.493C7.40149 278.022 6.24139 277.689 5.19885 277.078C4.25947 276.527 2.98206 275.663 1.9633 275.75C1.1159 275.823 1.4048 279.855 1.4257 280.682C1.45571 281.87 2.10452 282.385 2.71992 282.871C5.20215 284.83 8.56489 285.455 11.3016 286.197C13.3265 286.747 15.2743 287.893 17.3048 288.488C20.1612 289.326 23.0265 290.074 25.8865 290.867C30.9655 292.275 36.0958 293.838 41.2081 294.908C42.3754 295.153 44.082 295.219 45.1505 295.915C45.6564 296.245 46.8588 295.728 47.1217 296.499" stroke="#372F6F" stroke-linecap="round" stroke-linejoin="round"/>
<path d="M15.4033 287.833C15.6995 290.058 15.7892 291.012 17.2152 292.385C18.9721 294.076 21.4871 294.431 23.527 294.865C26.2653 295.448 28.9716 296.191 31.7005 296.762C34.1044 297.265 36.4365 298.666 38.8685 299.111C39.4339 299.215 40.0202 299.651 40.5908 299.651C41.0988 299.651 42.612 299.914 42.1041 299.914" stroke="#372F6F" stroke-linecap="round" stroke-linejoin="round"/>
<path d="M19.8835 294.396C19.9949 295.273 19.9524 297.767 20.3515 298.481C20.719 299.14 21.5105 299.712 22.0339 300.116C23.8105 301.486 26.282 301.21 28.2064 301.881C29.9383 302.486 32.002 301.79 33.6819 302.669C34.7053 303.205 35.9484 302.885 36.9075 303.588" stroke="#372F6F" stroke-linecap="round" stroke-linejoin="round"/>
<path d="M74.5395 281.528C75.8016 275.652 75.6157 268.759 78.2131 263.683C78.6691 262.792 78.8073 262.592 77.8646 262.341C75.4259 261.691 73.0116 261.567 70.5075 261.567C68.2631 261.567 66.7404 261.744 65.0817 264.135C64.0987 265.553 63.3773 266.956 62.6625 268.702C62.0418 270.219 61.2772 271.456 60.9203 273.182C60.1826 276.75 58.7426 279.932 58.7699 283.775C58.7819 285.454 59.1283 287.007 59.1283 288.619" stroke="#FFBD66" stroke-linecap="round" stroke-linejoin="round"/>
<path d="M77.4065 277.851C78.9544 272.703 80.65 267.566 82.8422 262.939C83.4629 261.63 83.4716 260.985 84.4749 261.831C86.1651 263.255 88.2131 265.809 89.3731 268.075C91.2802 271.802 93.1761 274.466 93.1761 279.281C93.1761 280.797 93.4536 283.079 92.9969 284.417" stroke="#FFBD66" stroke-linecap="round" stroke-linejoin="round"/>
<path fill-rule="evenodd" clip-rule="evenodd" d="M55.4069 426.096C54.5643 423.823 54.1057 421.368 54.1057 418.801V403.376C54.1057 402.933 54.463 402.574 54.9056 402.574H74.712C75.1546 402.574 75.5119 402.933 75.5119 403.376V413.592C75.5119 414.383 75.6879 415.138 76.0026 415.806H74.968C72.8082 415.806 70.6697 416.095 68.6058 416.673C66.606 417.229 64.6808 418.052 62.889 419.111C59.9186 420.876 57.3641 423.262 55.4069 426.096Z" fill="#71A2FE"/>
<path fill-rule="evenodd" clip-rule="evenodd" d="M107.853 439.944V455.355C107.853 455.797 107.496 456.154 107.055 456.154H87.2964C86.8549 456.154 86.4984 455.797 86.4984 455.355V445.131C86.4984 444.3 86.3016 443.517 85.9558 442.819L89.4244 442.702C90.7597 442.569 92.0844 442.324 93.3771 441.967C95.3721 441.419 97.2873 440.604 99.0695 439.555C102.027 437.813 104.581 435.444 106.533 432.632C107.385 434.906 107.853 437.371 107.853 439.944Z" fill="#71A2FE"/>
<path fill-rule="evenodd" clip-rule="evenodd" d="M107.853 403.378V418.838C107.853 422.66 106.823 426.241 105.024 429.323C101.377 435.574 94.5721 439.782 86.7762 439.782C86.593 439.782 86.4098 439.782 86.2267 439.776V439.782H80.9791C80.7259 439.782 80.4781 439.798 80.2356 439.835C77.6873 440.194 75.7262 442.371 75.7262 445.003V455.349C75.7262 455.793 75.3652 456.153 74.9181 456.153H54.9139C54.4667 456.153 54.1057 455.793 54.1057 455.349V439.782C54.1057 435.97 55.1294 432.395 56.9127 429.312C60.5547 423.025 67.37 418.79 75.1821 418.79H80.9791C83.8777 418.79 86.2267 416.453 86.2267 413.569V403.378C86.2267 402.933 86.5876 402.574 87.0348 402.574H107.044C107.486 402.574 107.853 402.933 107.853 403.378Z" fill="#71A2FE"/>
<path fill-rule="evenodd" clip-rule="evenodd" d="M83.9649 391.367C83.9649 390.701 83.3479 390.161 82.5868 390.161H79.3712C78.61 390.161 77.993 390.701 77.993 391.367V395.388H73.9609C73.2561 395.388 72.6848 395.928 72.6848 396.594V399.409C72.6848 400.075 73.2561 400.615 73.9609 400.615H77.993V404.636C77.993 405.302 78.61 405.842 79.3712 405.842L82.5868 405.842C83.3479 405.842 83.9649 405.302 83.9649 404.636V400.615H87.9973C88.702 400.615 89.2733 400.075 89.2733 399.409V396.594C89.2733 395.928 88.702 395.388 87.9973 395.388H83.9649V391.367Z" fill="#71A2FE"/>
<path d="M86.7621 403.768C87.8648 407.214 87.9962 410.899 87.7637 414.502C87.5297 418.129 84.2058 418.735 81.1115 418.735C76.7637 418.735 72.1449 419.111 68.1284 420.852C63.7396 422.753 61.9615 425.582 60.1533 429.696C58.5521 433.339 57.5075 437.197 57.5075 441.186C57.5075 444.303 56.8546 447.086 55.9956 450.031C55.6536 451.203 55.0728 454.046 55.8067 454.963C56.3738 455.672 59.8631 455.473 60.6824 455.473C62.5721 455.473 64.4398 455.814 66.3519 455.814C68.0147 455.814 69.6191 456.203 71.3033 456.154C72.2673 456.125 72.624 450.953 72.7396 450.333C73.3978 446.805 73.6635 443.327 76.746 441.073C79.7893 438.848 81.601 438.759 85.0613 438.049C91.3902 436.751 97.6895 435.849 102.391 430.943C106.909 426.228 108.883 419.248 109.194 412.858C109.326 410.156 109.213 407.418 109.213 404.712C109.213 402.614 108.325 402.539 106.303 402.823C104.061 403.137 101.837 403.087 99.5752 403.087C98.5272 403.087 86.7621 402.949 86.7621 403.427" stroke="#2A6DEB" stroke-linecap="round" stroke-linejoin="round"/>
<path d="M73.1554 403.768C73.8076 406.811 74.3389 411.146 72.9853 414.124C72.4426 415.318 72.0305 414.967 70.5852 414.993C68.2084 415.036 65.8401 415.48 63.5928 416.203C59.43 417.541 54.8522 419.711 53.4255 424.348C52.7043 426.692 52.6828 423.177 52.5751 422.25C52.2309 419.29 52.6947 416.273 52.2349 413.33C51.8899 411.122 52.0117 408.721 52.0649 406.489C52.087 405.56 51.9003 401.866 52.8019 401.235C53.5164 400.735 55.2137 401.046 56.0146 401.046C57.6966 401.046 59.3785 401.046 61.0605 401.046C64.1724 401.046 67.583 400.616 70.623 401.311C71.4731 401.505 72.8152 400.916 72.8152 402.067C72.8152 402.932 72.6725 403.724 73.1554 404.448" stroke="#2A6DEB" stroke-linecap="round" stroke-linejoin="round"/>
<path d="M86.7622 444.928C86.7622 448.025 87.1024 451.079 87.1024 454.188C87.1024 455.039 86.2155 457.466 87.5181 457.514C89.5848 457.591 91.6677 457.514 93.7357 457.514C97.7135 457.514 101.628 457.961 105.472 457.25C107.452 456.883 107.486 455.83 107.513 453.848C107.551 450.966 107.172 448.131 107.172 445.249C107.172 441.806 106.492 438.414 106.492 434.95C106.492 434.84 106.193 435.603 106.133 435.743C105.782 436.563 104.602 437.353 103.941 437.917C102.302 439.313 99.0037 440.144 96.9673 440.77C94.8627 441.418 92.2552 443.227 89.9938 443.227C88.5873 443.227 86.9363 443.31 85.7417 443.907" stroke="#2A6DEB" stroke-linecap="round" stroke-linejoin="round"/>
<path d="M77.2374 393.903C77.6445 391.816 77.1205 388.079 80.3178 388.479C81.8336 388.668 81.8183 388.966 82.4155 390.161C82.7027 390.735 82.4151 393.368 82.9258 393.525C84.2593 393.935 86.3044 392.916 87.3669 393.978C87.91 394.521 88.2442 395.414 88.6331 396.114C90.2292 398.987 84.583 398.498 84.0408 399.175C83.3059 400.094 82.6801 400.623 82.6801 401.897C82.6801 403.149 82.7258 403.638 81.395 404.032C77.5462 405.173 77.5776 402.329 77.5776 399.345C77.5776 397.573 72.8152 399.971 72.8152 396.511C72.8152 394.566 74.936 392.255 76.8972 393.563" stroke="#2A6DEB" stroke-linecap="round" stroke-linejoin="round"/>
<path d="M39.7857 15.7351L37.2321 19.6176V28.677L37 39.5482L37.6964 47.831L38.7995 52.2165L42.3354 56.5175L47.961 62.4316L54.1035 70.1364L57.1329 72.4587L61.3013 71.93L73.1953 69.2417L85.4106 65.4782L97.3044 63.3277L106.627 59.9226L111.931 58.3097L115.788 54.1878L116.592 47.1984L116.11 35.3704L116.592 21.9294L115.949 16.9114L110.645 12.6103L104.216 7.23386L98.4295 2.57437L94.4114 0.423711L90.2324 0.244629L84.4462 2.39516L74.4811 4.36648L65.1589 6.87544L57.9261 9.02597L51.8184 10.9974L43.9642 13.4055L39.7857 15.7351Z" fill="white"/>
<path fill-rule="evenodd" clip-rule="evenodd" d="M117.152 23.3375C117.134 21.5481 116.605 20.0337 115.726 18.9322C114.433 17.3191 112.385 16.5991 110.094 17.2179L96.1316 20.9888L88.0617 23.1683L61.2045 30.4216C57.3538 31.4616 54.2635 35.8924 54.3081 40.31L54.5816 67.4604C54.6262 71.8778 57.7886 74.62 61.6395 73.58L110.529 60.3762C114.38 59.3363 117.47 54.9054 117.426 50.488L117.152 23.3375ZM59.308 38.8466C59.308 37.3278 60.4383 35.7372 61.8105 35.3248C63.1828 34.9126 64.313 35.8239 64.313 37.3427V38.266L65.9814 37.7646V36.8415C65.9814 35.3226 67.1117 33.7321 68.4839 33.3197C69.8562 32.9074 70.9865 33.8188 70.9865 35.3375C70.9865 36.8563 69.8562 38.4469 68.4839 38.8593L67.6497 39.1099V40.9564L68.4839 40.7058C69.8562 40.2935 70.9865 41.2049 70.9865 42.7236C70.9865 44.2423 69.8562 45.833 68.4839 46.2452C67.1117 46.6576 65.9814 45.7462 65.9814 44.2275V43.3042L64.313 43.8054V44.7287C64.313 46.2476 63.1828 47.8381 61.8105 48.2505C60.4383 48.6627 59.308 47.7514 59.308 46.2326C59.308 44.7139 60.4383 43.1233 61.8105 42.7109L62.6447 42.4602V40.6137L61.8105 40.8644C60.4383 41.2767 59.308 40.3653 59.308 38.8466Z" fill="#2E2E2E"/>
<path d="M61.8098 37.4706C62.281 37.3291 62.6439 37.6216 62.6439 38.1432V39.0665L61.8098 39.3172C61.3385 39.4587 60.9756 39.1662 60.9756 38.6446C60.9756 38.123 61.3385 37.6123 61.8098 37.4706Z" fill="#2E2E2E"/>
<path d="M68.4833 35.3642C68.9546 35.2226 69.3175 35.5152 69.3175 36.0369C69.3175 36.5585 68.9546 37.0692 68.4833 37.2107L67.6492 37.4614V36.5381C67.6492 36.0165 68.012 35.5058 68.4833 35.3642Z" fill="#2E2E2E"/>
<path d="M64.3252 40.2249L65.9935 39.7236V41.5702L64.3252 42.0714V40.2249Z" fill="#2E2E2E"/>
<path d="M61.8098 44.5578L62.6439 44.3071V45.2304C62.6439 45.752 62.281 46.2626 61.8098 46.4042C61.3385 46.5459 60.9756 46.2533 60.9756 45.7317C60.9756 45.21 61.3385 44.6994 61.8098 44.5578Z" fill="#2E2E2E"/>
<path d="M67.6492 42.8033L68.4833 42.5527C68.9546 42.4111 69.3175 42.7036 69.3175 43.2252C69.3175 43.7469 68.9546 44.2575 68.4833 44.3992C68.012 44.5407 67.6492 44.2483 67.6492 43.7266V42.8033Z" fill="#2E2E2E"/>
<path d="M116.426 21.4995C115.855 18.4697 114.333 14.7463 111.376 12.8894C108.766 11.2506 105.725 9.97343 103.237 8.25053C98.6383 5.06695 95.2422 2.94628 89.709 3.00053C80.7116 3.08874 71.9051 6.83884 63.1813 8.50053C59.3246 9.23513 55.665 10.877 51.7924 11.4728C49.2756 11.8599 46.3051 12.5135 43.9868 13.6116C37.8946 16.4974 37.4868 22.3235 37.4868 28.695C37.4868 33.0283 37.4868 37.3616 37.4868 41.695C37.4868 43.4212 37.1998 45.3952 37.8757 47.0005C39.6953 51.3222 44.4446 53.8956 47.0146 57.7505C48.7951 60.4213 53.0962 66.1919 54.5 68.9995" stroke="#A8A8A8" stroke-linecap="round" stroke-linejoin="round"/>
<path d="M67.4262 40.7496C67.4262 39.647 67.2994 38.9996 68.6137 38.9996C69.0913 38.9996 69.6603 38.6405 69.9887 38.3121C70.7006 37.6002 70.8465 37.2888 70.9193 36.2704C71.0222 34.829 69.9669 33.87 68.5234 34.1524C67.8728 34.2797 67.0631 34.5205 66.8012 35.2079C66.6113 35.7064 66.8139 36.2437 66.6484 36.7218C66.3129 37.6912 65.3367 37.9996 64.3637 37.9996C63.8391 37.9996 64.0358 37.2047 63.8498 36.8121C63.5932 36.2704 63.232 35.826 62.5929 35.8816C60.9388 36.0254 59.0512 36.3817 59.0512 38.4302C59.0512 39.5612 59.9878 39.9996 61.0512 39.9996C61.5298 39.9996 61.9801 40.1246 62.454 40.1246C63.1304 40.1246 63.272 40.3445 63.079 40.9718C62.9748 41.3105 62.9612 41.7304 62.6762 41.9996C62.4422 42.2206 61.9161 42.3314 61.6206 42.451C60.9022 42.7418 60.0645 42.8719 59.3984 43.2774C58.2853 43.9549 57.3964 46.5422 59.1276 47.0691C60.8506 47.5934 63.3268 47.8928 63.1068 45.326C63.0206 44.3205 63.548 42.1037 65.0512 42.8746C65.467 43.0878 66.0177 43.355 66.3498 43.6871C66.5324 43.8697 66.4181 44.2861 66.5512 44.5274C66.928 45.2104 67.6411 45.3036 68.4262 45.4718C69.2281 45.6437 70.1415 44.5093 70.4818 43.9163C70.9116 43.167 71.1106 42.6581 70.6068 41.9024C70.1212 41.1741 68.3475 41.6246 67.6762 41.6246" stroke="#A8A8A8" stroke-linecap="round" stroke-linejoin="round"/>
<path d="M55 40.6591C55 51.0773 55.4986 61.327 55.4986 71.7748C61.6082 71.7748 67.475 72.7304 73.3375 70.7007C81.9332 67.7247 90.8346 66.9075 99.3203 63.1819C103.921 61.162 108.641 59.66 113.226 57.7442C116.31 56.4554 117.325 55.3981 117.325 51.7023C117.325 41.946 119.587 31.3365 115.83 22.2314C114.774 19.6737 112.62 17.1021 110.04 18.3042C106.494 19.9568 102.08 19.7795 98.3508 20.721C93.3037 21.9951 87.5912 21.3847 82.6725 23.1377C76.8041 25.2292 70.1896 24.9645 64.4458 27.4006C58.3554 29.9836 55 32.3496 55 40.6591Z" stroke="#1A1919" stroke-linecap="round" stroke-linejoin="round"/>
</svg>
