<svg width="1440" height="495" viewBox="0 0 1440 495" fill="none" xmlns="http://www.w3.org/2000/svg">
<mask id="mask0" mask-type="alpha" maskUnits="userSpaceOnUse" x="0" y="0" width="1440" height="495">
<rect width="1440" height="495" fill="#C4C4C4"/>
</mask>
<g mask="url(#mask0)">
<path d="M295.098 477.523C292.955 485.292 292.915 493.117 292.483 501.146C294.408 500.007 298.834 501.878 301.024 501.996C305.643 502.244 310.092 501.703 314.708 501.951L329.301 502.737C333.505 502.963 337.24 500.508 341.454 500.734C342.786 500.806 345.501 501.673 345.592 499.981C345.687 498.23 346.018 499.928 346.112 498.177L346.405 492.729C346.588 489.324 347.544 486.067 347.726 482.674L348.612 466.221C349.069 457.71 350.022 448.88 349.025 440.398C348.267 433.95 349.86 427.183 348.542 420.771C345.862 407.735 337.966 397.306 326.521 390.792C322.836 388.695 317.161 390.282 313.59 391.744C308.444 393.851 304.013 398.187 303.198 403.956C302.218 410.88 302.392 418.236 303.775 425.063C305.474 433.448 303.712 442.5 302.993 450.888C302.606 455.395 300.771 460.031 299.536 464.362C298.268 468.807 296.331 473.051 295.098 477.523Z" fill="#D3DFD0"/>
<path d="M279.79 501.517C279.466 501.666 279.104 501.794 278.7 501.897C279.076 501.637 279.436 501.527 279.79 501.517C283.113 499.988 282.495 496.171 283.247 492.549C284.191 488.002 282.965 485.693 284.191 478.907C285.469 471.838 289.549 461.602 289.614 457.079C289.733 448.661 291.433 439.799 290.523 429.795C289.864 422.543 283.832 416.068 285.066 407.967C285.791 403.21 285.903 399.147 288.704 395.234C291.344 391.547 297.878 388.35 301.702 390.179C313.583 395.861 322.201 405.701 325.803 418.513C327.574 424.814 326.468 431.677 327.683 438.055C329.282 446.445 328.96 455.321 329.11 463.843L329.399 480.317C329.459 483.714 328.737 487.031 328.797 490.44L328.893 495.895L328.985 501.155C329.015 502.85 326.245 502.178 324.911 502.201C320.692 502.275 316.66 501.567 312.45 501.641L297.837 501.897C293.216 501.978 288.816 502.835 284.191 502.916C282.447 502.947 281.167 501.478 279.79 501.517Z" fill="#B1C9AB"/>
<path d="M211.245 467.118C214.034 475.522 215.805 484.393 217.025 493.489L217.026 493.531C217.033 494.376 217.062 497.732 216.648 498.208C215.933 499.031 216.12 501.032 216.815 501.438C221.83 501.308 226.968 501.265 231.704 501.225L231.706 501.225C236.524 501.184 241.582 501.215 246.39 501.101C249.898 501.017 253.579 500.818 257.032 499.919C259.176 499.36 261.573 499.222 263.755 499.011C265.416 498.849 267.076 498.702 268.737 498.532C269.648 498.438 270.392 498.351 269.729 497.17C267.781 493.697 266.033 489.143 264.611 485.226C262.626 479.759 260.215 474.361 258.006 469.081C256.459 465.383 255.445 461.117 254.231 457.192C252.79 452.53 251.405 447.66 250.082 442.926C248.834 438.461 247.289 434.028 245.725 429.797C244.379 426.154 243.208 422.31 241.466 419.003C237.863 412.162 235.483 404.19 231.713 397.47C228.632 391.978 224.828 386.627 220.826 382.453C214.176 375.517 205.164 368.062 196.984 374.401C193.817 376.856 191.999 382.244 191.69 387.219C191.152 395.855 192.21 404.377 194.941 412.104C196.272 415.87 197.407 419.709 198.665 423.491C200.813 429.949 201.975 436.886 204.22 443.313C206.916 451.028 208.661 459.333 211.245 467.118Z" fill="#D3DFD0"/>
<path d="M161.949 467.278C165.792 475.705 168.192 484.591 169.809 493.696L169.809 493.738C169.809 494.584 169.81 497.94 169.219 498.412C168.197 499.23 168.437 501.232 169.416 501.644C176.51 501.556 183.778 501.556 190.476 501.556L190.479 501.556C197.294 501.556 204.447 501.63 211.248 501.556C216.21 501.502 221.419 501.335 226.313 500.465C229.353 499.924 232.744 499.806 235.832 499.613C238.184 499.466 240.533 499.333 242.884 499.176C244.173 499.09 245.227 499.01 244.303 497.823C241.589 494.334 239.172 489.766 237.207 485.836C234.465 480.352 231.12 474.934 228.059 469.636C225.915 465.925 224.532 461.651 222.863 457.715C220.88 453.042 218.979 448.16 217.165 443.415C215.454 438.94 213.321 434.493 211.16 430.249C209.3 426.595 207.689 422.741 205.265 419.42C200.251 412.549 196.98 404.557 191.729 397.805C187.437 392.287 182.121 386.904 176.511 382.697C167.189 375.705 154.532 368.174 142.888 374.444C138.38 376.872 135.744 382.244 135.247 387.216C134.384 395.847 135.778 404.378 139.548 412.128C141.386 415.905 142.945 419.754 144.679 423.547C147.639 430.022 149.199 436.968 152.298 443.415C156.018 451.152 158.388 459.472 161.949 467.278Z" fill="#B1C9AB"/>
<path d="M177.084 494.103C175.467 484.997 173.068 476.111 169.224 467.684C165.664 459.878 163.294 451.558 159.574 443.821C156.475 437.374 154.915 430.428 151.954 423.953C150.221 420.16 148.661 416.312 146.824 412.534C143.054 404.784 141.659 396.253 142.523 387.622C143.02 382.65 145.655 377.278 150.164 374.85C161.808 368.58 174.465 376.111 183.787 383.103C189.397 387.31 194.713 392.693 199.005 398.212C204.256 404.963 207.527 412.955 212.541 419.826C214.965 423.148 216.576 427.002 218.436 430.656C220.597 434.899 222.73 439.346 224.44 443.821C226.255 448.567 228.156 453.448 230.139 458.122C231.808 462.057 233.191 466.331 235.335 470.042C238.396 475.341 241.741 480.759 244.483 486.243C246.448 490.172 248.865 494.74 251.579 498.229C252.503 499.416 251.449 499.497 250.16 499.583C247.809 499.739 245.46 499.872 243.108 500.019C240.02 500.212 236.628 500.33 233.588 500.871C228.694 501.741 223.486 501.909 218.524 501.962C211.723 502.036 204.57 501.962 197.755 501.962C191.055 501.962 183.787 501.962 176.691 502.05C175.713 501.638 175.473 499.636 176.495 498.819C177.096 498.338 176.691 495.657 176.691 494.889" stroke="#619482" stroke-width="4" stroke-linecap="round" stroke-linejoin="round"/>
<path d="M205.461 497.327C204.649 492.547 201.402 488.658 198.823 484.686C196.007 480.351 192.708 476.379 189.766 472.131C188.379 470.127 186.786 468.371 185.228 466.51C183.601 464.567 182.141 462.469 180.35 460.678C179.654 459.982 177.63 457.866 178.176 458.684C178.482 459.144 179.109 459.331 179.501 459.723" stroke="#619482" stroke-width="4" stroke-linecap="round" stroke-linejoin="round"/>
<path d="M196.98 480.64C196.98 470.795 195.03 461.423 191.552 452.187C189.397 446.461 187.692 440.532 185.377 434.872C184.368 432.405 183.031 430.088 182.058 427.606C180.981 424.858 180.028 422.062 178.888 419.338C176.841 414.445 173.945 409.886 171.143 405.403C168.813 401.675 166.561 397.864 163.862 394.383C163.305 393.666 157.861 385.684 156.879 386.175" stroke="#619482" stroke-width="4" stroke-linecap="round" stroke-linejoin="round"/>
<path d="M160.917 410.397C164.734 411.245 167.596 414.393 171.413 415.241C172.377 415.455 178.047 418.393 178.47 417.334C180.043 413.401 182.355 409.724 184.062 405.821C184.816 404.097 185.681 402.43 186.275 400.648C186.539 399.857 186.943 399.124 187.232 398.346C187.45 397.756 187.725 397.49 187.022 398.017" stroke="#619482" stroke-width="4" stroke-linecap="round" stroke-linejoin="round"/>
<path d="M167.375 431.927C170.447 431.927 173.128 431.878 175.973 433.123C178.192 434.094 180.426 434.807 182.596 435.964C184.983 437.237 187.69 439.452 188.906 441.885" stroke="#619482" stroke-width="4" stroke-linecap="round" stroke-linejoin="round"/>
<path d="M191.867 452.92C191.867 449.85 191.42 446.286 192.001 443.261C192.757 439.331 195.039 435.506 197.519 432.406C199.112 430.414 200.408 428.5 202.213 426.695C202.531 426.377 204.686 424.548 203.709 425.199" stroke="#619482" stroke-width="4" stroke-linecap="round" stroke-linejoin="round"/>
<path d="M197.788 474.181C200.035 471.87 202.654 469.49 204.621 466.944C205.298 466.069 206.022 465.14 206.804 464.357C207.63 463.531 207.989 462.451 208.763 461.591C210.24 459.95 211.562 457.578 212.321 455.491C212.447 455.144 213.962 452.637 213.398 452.919" stroke="#619482" stroke-width="4" stroke-linecap="round" stroke-linejoin="round"/>
<path d="M213.216 499.824C213.216 494.278 215.613 488.407 218.927 483.946C219.833 482.726 220.895 481.38 221.963 480.312C222.763 479.512 223.432 478.387 224.519 478.025" stroke="#619482" stroke-width="4" stroke-linecap="round" stroke-linejoin="round"/>
<path d="M279.089 500.864C279.089 492.824 278.709 485.008 280.431 477.134C281.422 472.603 283.128 468.261 284.155 463.754C285.155 459.363 286.74 454.635 286.883 450.114C287.15 441.699 288.424 432.566 286.277 424.284C284.529 417.541 283.961 410.206 284.566 403.239C285.071 397.435 289.262 392.867 294.288 390.486C297.775 388.835 303.357 386.945 307.149 388.841C318.928 394.731 327.372 404.721 330.748 417.594C332.409 423.925 331.182 430.768 332.286 437.166C333.737 445.583 333.26 454.451 333.26 462.975C333.26 468.467 333.26 473.959 333.26 479.451C333.26 482.849 332.48 486.153 332.48 489.562C332.48 491.381 332.48 493.2 332.48 495.018C332.48 496.772 332.48 498.526 332.48 500.28C332.48 501.974 329.723 501.254 328.388 501.254C324.169 501.254 320.15 500.474 315.939 500.474C311.067 500.474 306.196 500.474 301.324 500.474C296.702 500.474 292.288 501.254 287.663 501.254C285.469 501.254 280.56 500.403 278.699 501.644" stroke="#619482" stroke-width="4" stroke-linecap="round" stroke-linejoin="round"/>
<path d="M306.302 498.464C306.302 493.523 306.063 488.525 306.609 483.61C307.126 478.952 307.705 474.229 308.058 469.551C308.776 460.041 311.319 450.495 311.319 440.944C311.319 436.336 311.403 431.732 310.566 427.177C309.715 422.543 307.886 418.015 306.679 413.452C305.503 409.011 303.012 405.367 300.534 401.65" stroke="#619482" stroke-width="4" stroke-linecap="round" stroke-linejoin="round"/>
<path d="M294.013 412.686C297.65 414.835 301.63 416.341 304.798 419.221C306.253 420.544 307.844 421.523 309.187 422.969C309.729 423.553 310.393 424.638 311.068 424.976" stroke="#619482" stroke-width="4" stroke-linecap="round" stroke-linejoin="round"/>
<path d="M310.819 425.478C310.819 423.053 310.819 420.629 310.819 418.204C310.819 415.637 311.632 412.838 312.073 410.303C312.38 408.536 313.203 406.594 313.327 404.855C313.376 404.17 313.738 402.197 314.33 401.901" stroke="#619482" stroke-width="4" stroke-linecap="round" stroke-linejoin="round"/>
<path d="M298.025 437.516C299.154 438.888 300.412 440.594 301.843 441.64C302.518 442.133 303.629 443.411 304.031 444.149C304.945 445.824 306.649 447.026 307.542 448.663C308.027 449.552 308.915 450.943 309.688 451.561C310.14 451.923 310.064 452.541 310.064 451.561C310.064 450.751 310.382 450.03 310.705 449.29C311.377 447.755 312.424 446.386 313.325 444.985C314.348 443.393 315.865 441.583 316.53 439.829C317.261 437.9 318.886 436.022 320.292 434.562C321.277 433.539 321.791 432.154 323.107 431.497" stroke="#619482" stroke-width="4" stroke-linecap="round" stroke-linejoin="round"/>
<path d="M294.766 463.35C296.823 466.184 299.226 468.71 301.482 471.376C302.499 472.578 303.578 473.942 304.854 474.887C305.596 475.437 306.045 476.475 306.805 476.949C307.004 477.074 307.251 477.436 307.362 477.646C307.678 478.242 307.584 477.62 307.947 477.256C310.915 474.289 314.615 472.093 317.59 469.118C318.425 468.283 319.54 467.476 320.474 466.75C320.858 466.451 321.638 465.858 322.104 465.858" stroke="#619482" stroke-width="4" stroke-linecap="round" stroke-linejoin="round"/>
<path d="M290 491.692C292.172 491.837 294.339 493.411 296.27 494.395C297.823 495.186 299.34 495.838 301.036 496.262C301.886 496.475 302.745 497.144 303.6 497.21C304.791 497.301 304.348 497.233 305.313 496.569C308.95 494.069 312.438 492.068 316.461 490.298C318.778 489.279 321.755 488.831 323.86 487.428" stroke="#619482" stroke-width="4" stroke-linecap="round" stroke-linejoin="round"/>
<path d="M31.5429 36.75C17.5082 35.4039 7.88458 38.7474 -3.94885 43.3653L-6.80573 319.713C-6.80573 319.713 4.9249 329.654 14.1669 331.111C26.1861 333.007 35.8846 334.257 41.431 329.014C45.9129 324.777 35.9697 324.711 31.9933 322.723C28.0169 320.734 22.0971 315.86 17.3127 313.285C10.8204 309.79 7.31358 303.252 2.63206 297.556C-0.606659 293.615 -0.526413 289.628 -2.61104 284.972C-4.86281 279.943 -3.0038 276.908 -3.0038 271.121C-3.0038 260.564 -3.94885 250.508 -3.94885 239.935V218.724C-3.94885 215.971 -3.20233 214.02 -1.84874 211.583C-0.539307 209.226 1.86455 212.48 4.08405 213.474C13.595 217.73 14.3105 226.143 20.2023 234.737C27.038 244.708 29.3109 251.312 36.2681 261.198C39.8646 266.309 41.8112 269.255 45.9286 273.956C50.2652 278.908 52.1395 282.68 57.9516 285.77C67.2404 290.708 76.9051 292.449 84.8854 286.242C92.8055 280.082 97.8833 274.955 104.348 267.282C108.248 262.653 109.066 260.703 112.292 255.581C114.697 251.761 115.809 249.468 117.752 245.395C118.93 242.926 115.874 245.024 116.932 243.027C118.026 240.96 116.299 241.766 114.834 239.935C112.571 237.106 108.112 238.813 103.299 236.736C91.4139 231.605 84.5112 230.574 73.9381 223.104C70.6297 220.766 67.7509 219.229 64.5005 216.812C61.612 214.663 61.0228 211.717 58.2088 209.472C53.2099 205.483 52.1017 204.831 47.7226 200.17C45.3085 197.601 43.3639 195.036 41.4309 193.103C39.0395 190.711 39.7551 186.774 37.4231 184.305C35.5939 182.368 35.3813 171.389 37.4231 166.956C38.2847 165.086 38.6942 163.697 40.4683 162.651C42.5362 161.432 44.2138 162.321 46.6111 162.441C52.6116 162.742 55.9036 164.169 61.4693 166.431C76.1425 172.396 83.3518 184.429 92.0258 193.103C98.9296 200.006 114.977 208.416 123.223 200.17C130.949 192.445 127.413 182.309 127.413 171.892V157.716C127.413 152.646 129.303 147.273 129.303 142.123C129.303 132.219 131.07 125.952 135.708 117.604C138.524 112.534 140.778 107.387 143.898 102.483C146.487 98.415 149.595 98.4903 151.536 94.1233C152.308 92.386 150.767 90.8027 148.39 87.8316C146.205 85.0999 130.543 84.6857 127.413 84.6857C117.676 84.6857 112.699 81.9847 104.348 77.3454C96.6628 73.0759 95.1572 74.4994 85.4728 76.2968C74.8284 78.2723 73.7983 77.6746 65.549 84.6857C58.3776 90.7809 57.2788 95.7241 49.8197 101.464C46.5333 103.993 39.0937 113.848 35.1391 115.096C30.4072 116.589 24.5762 113.244 20.2023 110.901C15.6043 108.438 16.8065 98.589 15.8971 93.4527C15.4789 91.0906 15.8971 89.3575 15.8971 87.3099C15.8971 85.2623 16.8995 83.5148 17.7872 81.1671C21.2554 71.9948 27.218 65.0456 32.1729 60.5861C35.2393 57.8264 38.0623 54.5982 42.3584 51.3982C45.6928 48.9145 48.5253 47.8618 51.3363 45.6754C52.5542 44.7282 57.1287 43.97 54.1715 43.3128C52.5694 42.9568 50.4855 41.4787 48.0287 40.5302C41.8668 38.1511 38.1179 37.3806 31.5429 36.75Z" fill="#B7C2B4"/>
<path d="M149.439 90.9775C116.932 129.776 35.1394 153.895 -10.9999 165.43" stroke="#4A5759" stroke-width="4"/>
<path d="M-3.94866 51.7545C7.88477 47.1365 17.5084 43.7931 31.5431 45.1391C38.1181 45.7698 41.867 46.5403 48.0289 48.9193C50.4857 49.8679 52.5696 51.3459 54.1717 51.702C57.129 52.3591 52.5544 53.1174 51.3365 54.0646C48.5255 56.2509 45.693 57.3036 42.3586 59.7873C38.0625 62.9874 35.2395 66.2155 32.1731 68.9753C27.2182 73.4347 21.2556 80.3839 17.7874 89.5563C16.8997 91.904 15.8973 93.6515 15.8973 95.6991C15.8973 97.7467 15.4791 99.4797 15.8973 101.842C16.8067 106.978 18.4396 110.667 23.0377 113.13C27.4116 115.473 31.0114 114.676 35.7433 113.182C39.6979 111.934 41.4347 110.041 44.7212 107.512C52.1803 101.773 53.143 95.2314 60.3145 89.1363C68.5637 82.1251 73.7687 77.4086 84.4131 75.4331C94.0975 73.6357 101.772 74.1562 109.457 78.4258C117.808 83.065 127.127 86.7212 136.863 86.7212C139.993 86.7212 146.963 85.407 149.149 88.1387C151.526 91.1098 152.962 95.1528 151.249 99.0067C149.308 103.374 146.487 106.804 143.899 110.872C140.778 115.776 138.524 120.924 135.708 125.993C131.07 134.341 130.999 140.762 129.303 150.512C128.252 156.555 127.763 159.981 127.413 166.105C127.096 171.632 127.413 175.555 127.413 180.281C127.413 190.698 130.949 200.834 123.223 208.559C114.977 216.806 98.9299 208.396 92.026 201.492C83.352 192.818 76.1427 180.786 61.4695 174.82C55.9038 172.558 52.6119 171.131 46.6113 170.83C44.214 170.71 42.5364 169.821 40.4685 171.04C38.6944 172.086 38.2849 173.475 37.4234 175.345C35.3815 179.778 35.8041 185.904 37.6334 187.841C39.9653 190.31 41.3848 193.483 43.7762 195.874C45.7092 197.807 47.5048 199.92 49.919 202.489C54.2981 207.15 56.2606 210.314 61.2595 214.302C64.0735 216.547 65.9839 217.352 68.8724 219.5C72.1228 221.918 73.5968 223.725 76.9053 226.063C87.4783 233.533 95.6812 233.533 107.567 238.663C112.38 240.741 117.589 241.242 119.852 244.071C121.317 245.902 121.682 245.311 120.587 247.379C119.53 249.376 118.93 251.315 117.752 253.784C115.809 257.858 114.697 260.151 112.292 263.97C109.067 269.092 108.248 271.042 104.348 275.671C97.8835 283.344 92.8057 288.471 84.8856 294.631C76.9053 300.838 67.2407 299.097 57.9518 294.159C52.1397 291.069 50.2654 287.298 45.9288 282.346C41.8114 277.644 39.8648 274.698 36.2683 269.587C29.3111 259.701 27.0382 253.097 20.2025 243.126C14.3107 234.532 13.5952 226.119 4.08424 221.863C1.86475 220.869 -0.539105 217.616 -1.84855 219.973C-3.20214 222.409 -3.94866 224.36 -3.94866 227.113C-3.94866 234.183 -3.94866 241.254 -3.94866 248.324C-3.94866 258.897 -3.00361 268.953 -3.00361 279.51C-3.00361 285.297 -1.89521 288.185 0.356566 293.214C2.44118 297.869 4.36318 300.141 7.60191 304.082C12.2834 309.778 15.0752 313.292 21.5676 316.787C26.3519 319.363 32.2919 322.968 36.2683 324.956C40.2447 326.944 50.4107 329.108 45.9288 333.345C40.3824 338.588 27.2347 339.435 15.2155 337.54C5.97351 336.082 -6.80553 328.102 -6.80553 328.102" stroke="#4A5759" stroke-width="4" stroke-linecap="round" stroke-linejoin="round"/>
<path d="M1335.65 505.333C1333.75 506.272 1329.1 507.811 1328.08 509.695C1330.82 510.869 1333.14 511.295 1336.14 511.186C1339.22 511.075 1342.68 510.896 1345.5 509.559C1348.01 508.375 1351.01 507.046 1352.79 504.834C1353.8 503.571 1354.6 503.884 1355.16 502.336C1355.31 501.909 1350.78 501.639 1350.25 501.711C1346.43 502.231 1343.77 502.441 1339.98 503.227C1338.27 503.582 1337.18 504.572 1335.65 505.333Z" fill="#CB906D"/>
<path d="M1328.83 489.566C1326.98 490.494 1326.77 490.905 1325.57 490.27L1324.86 491.927C1328.56 493.517 1332.49 492.876 1336.28 491.784C1340.57 490.546 1345.97 488.414 1346.83 483.444C1347 482.486 1346.9 482.477 1345.4 483.076C1344.2 483.558 1343.49 483.879 1342.22 484.212C1339.32 484.971 1336.67 485.584 1333.83 486.532C1332.07 487.116 1330.46 488.748 1328.83 489.566Z" fill="#CB906D"/>
<path d="M1304.36 498.312C1309.94 494.711 1316.06 490.011 1322.31 491.212C1321.43 492.206 1320.48 493.035 1319.58 494.02C1318.07 495.678 1316.07 496.509 1314.4 497.971C1312.18 499.917 1309.11 500.945 1306.55 502.359C1303.79 503.883 1300.89 504.152 1297.81 504.527C1296.53 504.683 1297.26 506.361 1295.97 505.81C1295.55 505.632 1296.67 504.033 1296.77 503.936C1299.27 501.645 1301.52 500.149 1304.36 498.312Z" fill="#CB906D"/>
<path d="M1332.22 469.57C1328.61 472.077 1324.81 473.051 1321.26 476.159L1322.15 479.238C1323.17 479.178 1324.48 478.758 1325.5 478.413C1326.71 478.003 1328.28 478.08 1329.41 477.499C1330.43 476.976 1331.52 476.522 1332.58 476.095C1335.6 474.89 1339.07 473.976 1341.21 471.347C1342.73 469.483 1343.82 466.072 1343.71 463.71C1343.68 462.887 1343.68 463.352 1343.52 462.638C1343.4 462.113 1343.2 462.943 1343.11 463.144C1342.66 464.21 1342.53 465.014 1341.42 465.376C1339.99 465.838 1338.3 466.502 1336.95 467.161C1335.21 468.01 1333.8 468.471 1332.22 469.57Z" fill="#CB906D"/>
<path d="M1308.21 475.548C1311.81 475.929 1315.25 476.424 1318.56 477.844C1315.86 478.003 1313.42 480.698 1310.71 481.239C1307.23 481.935 1303.76 482.285 1300.23 482.348C1297.84 482.39 1295.95 481.396 1293.77 480.461C1293.74 480.451 1293.72 480.442 1293.7 480.434C1293.66 480.471 1293.62 480.505 1293.59 480.536C1293.85 480.82 1294.57 481.387 1293.92 481.111C1293.42 480.898 1293.34 480.794 1293.59 480.536C1293.47 480.406 1293.45 480.336 1293.7 480.434C1293.74 480.402 1293.78 480.368 1293.82 480.332C1295.38 479.011 1296.05 477.821 1297.94 477.065C1299.71 476.357 1301.8 476.208 1303.65 475.816C1305.58 475.408 1306.26 475.343 1308.21 475.548Z" fill="#CB906D"/>
<path d="M1319.37 452.963C1318.09 454.817 1316.41 456.748 1315.52 458.807L1316.62 461.975C1318.01 461.717 1319.29 461.096 1320.63 460.752C1321.53 460.522 1322.15 459.797 1323.06 459.532C1323.88 459.293 1324.98 458.671 1325.7 458.21C1330.08 455.401 1333.69 451.289 1334.91 446.078C1335.51 443.484 1334.45 443.97 1333.92 441.448C1333.63 440.088 1330.15 442.774 1329.46 443.233C1326.75 445.033 1325.01 446.773 1323.12 449.392C1322.06 450.859 1320.4 451.47 1319.37 452.963Z" fill="#CB906D"/>
<path d="M1307.94 455.461C1311.27 458.298 1309.98 460.46 1313.56 463.05C1310.07 464.448 1311.23 465.786 1307.41 466.011C1305.2 466.14 1301.8 464.765 1300.03 463.448C1298.8 462.522 1297.6 461.408 1296.62 460.214C1295.8 459.214 1294.55 457.789 1294.19 456.525C1293.82 455.275 1293.55 454.048 1293.2 452.79C1292.76 451.196 1292.87 449.378 1292.33 447.853C1291.52 445.575 1295.65 448.713 1296.6 449.121C1300.69 450.874 1304.55 452.576 1307.94 455.461Z" fill="#CB906D"/>
<path d="M1307.58 440.946C1308.57 438.633 1310.84 435.747 1312.14 433.589C1313.32 431.632 1315.25 431.388 1316.78 429.662C1318.21 428.057 1319.02 426.629 1320.8 425.467C1321.05 425.306 1321.23 425.137 1321.36 424.973C1321.38 424.795 1321.39 424.618 1321.4 424.442C1321.46 423.524 1321.98 424.189 1321.36 424.973C1320.93 429.48 1318.4 434.217 1314.78 436.865C1312.58 438.476 1310.48 440.776 1307.58 440.946Z" fill="#CB906D"/>
<path d="M1300.93 437.167C1302.23 438.841 1303.65 440.576 1305.17 442.087C1302 442.218 1298.6 441.639 1295.42 441.058C1293.94 440.789 1292.45 439.895 1291.07 439.305C1289.9 438.805 1288.49 438.419 1287.55 437.548C1285.77 435.908 1284.75 433.64 1283.39 431.621C1282.51 430.31 1283.89 431.563 1283.3 430.103C1283.13 429.675 1282.34 428.81 1283.24 429.053C1284 429.258 1284.79 428.997 1285.57 429.331L1288.79 430.713C1292.82 432.438 1294.19 431.974 1297.99 434.175C1299.35 434.967 1300 435.971 1300.93 437.167Z" fill="#CB906D"/>
<path d="M1305.64 430.32C1305.22 432.768 1306.05 432.62 1305.25 434.656C1305.01 434.27 1304.76 433.667 1304.6 433.309C1304.31 432.62 1303.76 432.057 1303.48 431.355C1302.66 429.307 1301.35 427.451 1300.2 425.533C1298.53 422.768 1297.23 420.246 1296.25 417.16C1295.5 414.795 1294.6 413.775 1294.68 411.284C1294.69 410.93 1294.39 409.234 1294.56 409.035C1294.79 408.751 1296.88 409.895 1297.18 410.026C1297.74 410.265 1299.41 412.399 1301.26 414.104C1303.3 416.388 1305.88 420.172 1305.91 423.443C1305.93 425.734 1306.04 428.046 1305.64 430.32Z" fill="#CB906D"/>
<path d="M1306.41 437.791C1309.46 443.648 1310.19 450.408 1313.19 456.12C1313.98 457.62 1314.12 459.459 1314.67 461.053C1315.28 462.807 1316.34 464.46 1316.74 466.265C1317.51 469.821 1319.29 473.149 1320.33 476.626C1322.25 483.068 1324.86 489.379 1326.39 495.911C1327.28 499.718 1327.87 503.637 1328.62 507.486C1329.34 511.216 1330.67 514.699 1331.09 518.492C1332.64 532.557 1331.76 546.983 1330.22 561.017C1329.16 570.656 1330.26 581.502 1326.41 590.482" stroke="#C4631F" stroke-width="4" stroke-linecap="round" stroke-linejoin="round"/>
<path d="M1306.31 437.204C1307.34 434.804 1308.07 432.643 1308.51 430.067C1308.91 427.793 1308.8 425.481 1308.78 423.189C1308.75 419.919 1305.73 415.771 1303.42 413.641C1301.56 411.936 1300.13 410.761 1297.84 409.777C1297.53 409.646 1295.44 408.502 1295.21 408.786C1295.05 408.985 1295.35 410.681 1295.33 411.035C1295.25 413.526 1296.09 416.442 1296.84 418.807C1297.82 421.893 1299.74 424.975 1301.4 427.74C1302.56 429.658 1303.87 431.514 1304.69 433.563C1304.97 434.264 1305.51 434.827 1305.81 435.516C1306 435.955 1306.33 436.76 1306.61 437.085" stroke="#C4631F" stroke-width="4" stroke-linecap="round" stroke-linejoin="round"/>
<path d="M1308.21 441.941C1309.2 439.627 1310.09 437.257 1311.39 435.1C1312.56 433.142 1314.9 431.62 1316.44 429.894C1317.86 428.289 1319.54 426.775 1321.33 425.612C1322.75 424.682 1322.39 425.925 1322.32 427.035C1322.05 431.697 1319.46 436.706 1315.7 439.458C1313.5 441.069 1311.4 443.369 1308.5 443.539" stroke="#C4631F" stroke-width="4" stroke-linecap="round" stroke-linejoin="round"/>
<path d="M1308.18 444.87C1306.43 443.234 1304.81 441.267 1303.34 439.375C1302.41 438.18 1301.76 437.175 1300.4 436.383C1296.6 434.183 1292.69 432.345 1288.67 430.619C1287.59 430.159 1286.52 429.698 1285.45 429.238C1284.67 428.903 1283.88 429.165 1283.11 428.959C1282.21 428.717 1283.01 429.582 1283.18 430.01C1283.76 431.47 1284.27 432.965 1285.15 434.276C1286.51 436.295 1288.18 438.117 1289.96 439.757C1290.9 440.628 1292.32 441.013 1293.48 441.513C1294.86 442.103 1296.35 442.998 1297.83 443.267C1301.13 443.87 1304.67 444.47 1307.94 444.278" stroke="#C4631F" stroke-width="4" stroke-linecap="round" stroke-linejoin="round"/>
<path d="M1315.34 461.922C1316.22 459.863 1316.92 457.346 1318.2 455.493C1319.24 454 1320.42 452.615 1321.48 451.148C1323.38 448.529 1325.63 445.992 1328.34 444.193C1329.03 443.734 1333.9 440.626 1334.19 441.987C1334.72 444.508 1335.33 446.599 1334.72 449.193C1333.51 454.404 1329.9 458.516 1325.51 461.325C1324.8 461.786 1323.69 462.408 1322.88 462.647C1321.97 462.912 1321.34 463.637 1320.45 463.867C1319.1 464.211 1317.83 464.832 1316.43 465.09" stroke="#C4631F" stroke-width="4" stroke-linecap="round" stroke-linejoin="round"/>
<path d="M1321.26 478.44C1323.22 474.298 1327.96 472.368 1331.57 469.862C1333.15 468.762 1335.25 468.02 1336.99 467.17C1338.34 466.512 1339.77 466.112 1341.2 465.65C1342.31 465.288 1343.15 464.56 1343.61 463.494C1343.69 463.292 1343.9 462.463 1344.02 462.988C1344.18 463.701 1343.67 465.168 1343.71 465.99C1343.81 468.353 1342.73 471.764 1341.21 473.627C1339.07 476.257 1335.59 477.171 1332.58 478.375C1331.51 478.802 1330.42 479.256 1329.4 479.779C1328.27 480.36 1326.71 480.284 1325.5 480.693C1324.48 481.038 1323.16 481.459 1322.14 481.518" stroke="#C4631F" stroke-width="4" stroke-linecap="round" stroke-linejoin="round"/>
<path d="M1315.16 464.053C1311.57 461.464 1309.35 457.765 1306.02 454.928C1302.63 452.043 1298.22 449.676 1294.13 447.922C1293.18 447.515 1288.58 445.658 1289.39 447.937C1289.94 449.461 1289.82 451.279 1290.26 452.874C1290.61 454.131 1290.89 455.358 1291.25 456.608C1291.61 457.872 1292.87 459.297 1293.69 460.297C1294.67 461.492 1295.86 462.605 1297.1 463.531C1298.86 464.849 1302.27 466.224 1304.47 466.094C1308.3 465.87 1311.22 464.77 1314.72 463.372" stroke="#C4631F" stroke-width="4" stroke-linecap="round" stroke-linejoin="round"/>
<path d="M1320.93 479.772C1317.62 478.353 1314.32 476.511 1310.72 476.13C1308.78 475.925 1306.85 475.636 1304.92 476.044C1303.07 476.436 1301.03 476.397 1299.26 477.105C1297.37 477.862 1294.98 478.675 1293.42 479.996C1292.92 480.417 1292.91 480.513 1293.52 480.775C1294.48 481.188 1295.19 481.98 1296.14 482.389C1298.32 483.324 1300.21 484.319 1302.61 484.276C1306.13 484.213 1309.6 483.863 1313.08 483.167C1315.79 482.627 1318.05 480.345 1320.75 480.187" stroke="#C4631F" stroke-width="4" stroke-linecap="round" stroke-linejoin="round"/>
<path d="M1326.11 492.295C1326.98 490.352 1327.83 490.039 1329.68 489.111C1331.31 488.293 1332.72 487.378 1334.48 486.793C1337.32 485.846 1340.04 484.57 1342.94 483.811C1344.21 483.478 1345.43 483.56 1346.63 483.078C1348.13 482.479 1347.54 484.511 1347.38 485.47C1346.51 490.439 1341.12 492.572 1336.82 493.809C1333.04 494.901 1329.11 495.542 1325.4 493.952" stroke="#C4631F" stroke-width="4" stroke-linecap="round" stroke-linejoin="round"/>
<path d="M1324.72 492.679C1317.94 489.77 1310.22 494.698 1304.65 498.3C1301.8 500.136 1299.23 502.168 1296.73 504.459C1296.63 504.557 1295.13 505.966 1295.55 506.145C1296.83 506.695 1298.94 506.15 1300.22 505.994C1303.3 505.619 1306.2 505.35 1308.96 503.826C1311.51 502.412 1314.58 501.384 1316.81 499.438C1318.47 497.976 1320.48 497.145 1321.99 495.487C1322.88 494.502 1324.04 493.761 1324.93 492.767" stroke="#C4631F" stroke-width="4" stroke-linecap="round" stroke-linejoin="round"/>
<path d="M1328.98 510.204C1329.99 508.319 1332.86 507.117 1334.75 506.179C1336.29 505.417 1337.72 504.491 1339.43 504.137C1343.22 503.351 1346.94 502.702 1350.76 502.181C1351.29 502.11 1356.07 502.439 1355.92 502.866C1355.36 504.414 1354.58 505.5 1353.56 506.763C1351.79 508.975 1348.78 510.304 1346.28 511.489C1343.45 512.825 1340 513.004 1336.91 513.115C1333.91 513.224 1331.6 512.798 1328.86 511.624" stroke="#C4631F" stroke-width="4" stroke-linecap="round" stroke-linejoin="round"/>
<g opacity="0.2">
<path d="M1339.34 478.376C1345.44 480.206 1348.97 484.097 1352.96 488.61C1352.38 488.553 1351.77 488.564 1351.25 488.517C1349.23 487.348 1347.7 486.597 1345.56 486.031C1342.57 485.237 1339.32 484.426 1337.02 482.181C1334.91 480.116 1333.02 479.025 1331.07 476.819C1330.77 476.481 1329.81 475.796 1330.54 475.602C1331.13 475.445 1331.7 475.401 1332.31 475.455C1334.78 475.676 1336.95 477.662 1339.34 478.376Z" fill="#CB906D"/>
<path d="M1360.23 495.342C1358.93 493.868 1357.1 492.882 1355.34 491.868C1355.36 492.411 1355.27 493.189 1355.25 493.625C1355.22 494.531 1355.5 495.325 1355.64 496.209C1356.1 499.211 1357.5 502.151 1358.81 504.863C1360.04 507.425 1362.16 510.017 1364.7 511.381C1365.54 511.831 1366.34 512.415 1367.24 512.722C1367.36 512.761 1364.69 509.964 1366.61 510.366C1367.08 507.909 1367.11 507.106 1366.45 504.609C1365.35 500.488 1362.99 498.469 1360.23 495.342Z" fill="#CB906D"/>
<path d="M1375.96 477.509C1372.94 474.459 1369.8 472.525 1365.94 470.619C1365.59 471.494 1366.02 470.718 1365.94 471.694C1365.85 472.831 1365.44 473.727 1365.66 474.925C1365.88 476.154 1365.98 477.42 1366.41 478.604C1367.68 482.113 1370.29 484.709 1373.12 487.053C1375.58 489.091 1378.07 489.732 1380.98 490.629C1381.42 490.765 1385.67 491.98 1385.53 491.685C1385.32 491.241 1385.27 490.593 1385.11 490.092C1384.76 488.996 1384.17 488.446 1383.71 487.393C1382.9 485.553 1381.12 484.462 1379.8 482.971C1378.33 481.308 1377.52 479.08 1375.96 477.509Z" fill="#CB906D"/>
<path d="M1364.46 467.827L1364.54 467.918C1364.07 467.727 1364.2 467.817 1363.63 467.782C1362.5 467.712 1361.31 467.747 1360.2 467.498C1358.06 467.014 1355.91 466.516 1353.73 466.161C1350.56 465.644 1347.14 464.078 1344.37 462.493C1342.18 461.24 1341.19 461.15 1339.54 459.285C1339.04 458.718 1340.14 458.708 1340.56 458.596C1341.43 458.365 1342.25 457.994 1343.15 457.86C1345.68 457.485 1347.47 458.747 1349.93 459.176C1353.64 459.822 1356.47 461.415 1359.59 463.432C1361.88 464.909 1362.68 465.81 1364.46 467.827Z" fill="#CB906D"/>
<path d="M1372.66 454.119C1374.92 454.526 1377.23 454.893 1379.41 455.617C1381.31 456.249 1383.14 457.022 1385.02 457.693C1386.66 458.279 1388.37 458.929 1389.86 459.841C1391.22 460.677 1392.56 461.74 1394.04 462.357C1395.19 462.837 1396.55 463.511 1397.92 464.06C1397.92 464.06 1397.92 464.06 1397.92 464.06C1398.49 463.881 1398.91 464.159 1399.28 464.551C1400.03 464.786 1400.76 464.952 1401.46 464.995C1402.75 465.075 1402.26 465.521 1401.4 465.863C1400.43 466.246 1399.92 465.228 1399.28 464.551C1398.83 464.409 1398.37 464.241 1397.92 464.06C1395.01 464.963 1391.84 464.524 1388.85 464.554C1385.06 464.593 1381.37 463.258 1378.13 461.482C1376.36 460.509 1374.83 459.126 1373.5 457.619C1373.24 457.325 1372.78 456.495 1372.76 456.101C1372.75 455.965 1372.28 455.017 1372.46 455.218L1372.66 454.119Z" fill="#CB906D"/>
<path d="M1397.57 440.705C1391.81 438.597 1385.21 437.85 1381.66 436.063C1382.42 437.839 1382.16 438.462 1383.45 439.922C1384.64 441.262 1386.62 442.042 1388.32 442.424C1390.79 442.983 1393.16 444.085 1395.67 444.544C1399.04 445.158 1402.55 445.75 1405.96 445.284C1407.16 445.12 1407.26 447.054 1408.44 446.809C1408.99 446.695 1408.51 446.4 1408.21 446.066C1406.94 444.632 1405.49 444.04 1403.92 442.972C1402.02 441.684 1399.74 441.499 1397.57 440.705Z" fill="#CB906D"/>
<path d="M1362.74 436.182C1366.7 436.154 1371.47 436.002 1374.85 438.372C1371.77 441.088 1368.64 444.025 1364.6 445.195C1361.19 446.182 1357.8 447.14 1354.24 447.291C1352.48 447.365 1350.49 446.927 1348.74 446.662C1348.35 446.602 1348.1 446.571 1347.95 446.557C1347.57 446.521 1347.86 446.597 1347.95 446.557C1348.03 446.522 1347.95 446.394 1347.09 446.015C1345.66 445.388 1343.89 444.196 1342.37 443.883C1342.34 443.877 1342.7 443.565 1342.76 443.507C1343.36 442.978 1343.94 442.414 1344.63 442.007C1347.9 440.087 1347.48 439.025 1351.22 438.357C1355.35 437.619 1358.52 436.212 1362.74 436.182Z" fill="#CB906D"/>
<path d="M1394.67 420.003C1392.38 420.045 1387.1 419.393 1385.23 420.77C1387.37 423.191 1389.44 424.683 1392.44 425.97C1395.51 427.291 1398.98 428.719 1402.37 428.722C1405.38 428.724 1408.94 428.816 1411.71 427.471C1413.29 426.703 1413.93 427.381 1415.19 426.123C1415.54 425.776 1411.22 423.405 1410.67 423.231C1406.68 421.968 1403.98 420.941 1399.9 419.952C1398.06 419.505 1396.53 419.97 1394.67 420.003Z" fill="#CB906D"/>
<path d="M1384.71 420.578C1385.75 421.139 1384.36 421.291 1385.13 422.171C1384.51 422.726 1383.88 419.726 1383.16 420.124C1381.24 421.184 1378.68 421.463 1376.59 422.118C1374.5 422.772 1372.16 422.972 1369.99 423.182L1369.86 423.194C1367.52 423.42 1365.04 423.66 1362.7 423.515C1360.05 423.351 1357.38 423.143 1354.77 422.611C1353.96 423.101 1353.21 423.67 1352.56 424.289C1352.41 424.438 1354.1 422.471 1354.52 422.56C1354.6 422.578 1354.68 422.595 1354.77 422.611C1355.96 421.887 1357.28 421.334 1358.56 421.049C1362.2 420.236 1364.99 418.708 1368.67 418.018C1370.48 417.679 1372.59 417.874 1374.43 417.852C1376 418.24 1377.66 418.474 1379.08 418.662C1380.44 418.842 1383.49 419.923 1384.71 420.578Z" fill="#CB906D"/>
<path d="M1395.3 401.38C1393.06 401.431 1392.67 401.74 1391.78 400.556L1390.31 401.851C1393.21 405.131 1397.36 406.327 1401.58 407.015C1406.37 407.794 1412.64 408.207 1415.8 403.737C1416.41 402.875 1416.31 402.82 1414.57 402.712C1413.16 402.625 1412.32 402.611 1410.92 402.347C1407.72 401.746 1404.84 401.117 1401.61 400.726C1399.62 400.485 1397.28 401.336 1395.3 401.38Z" fill="#CB906D"/>
<path d="M1367.26 398.6C1374.4 397.657 1382.58 395.892 1388.15 399.969C1386.82 400.534 1385.51 400.906 1384.17 401.455C1381.92 402.38 1379.57 402.264 1377.26 402.923C1374.18 403.801 1370.69 403.383 1367.53 403.581C1364.11 403.795 1361.15 402.715 1357.95 401.651C1356.63 401.21 1356.56 403.191 1355.55 402.055C1355.23 401.687 1357.06 400.637 1357.21 400.591C1360.72 399.502 1363.62 399.081 1367.26 398.6Z" fill="#CB906D"/>
<path d="M1407.91 383.353C1403.21 384.136 1399.03 383.326 1394.11 384.724L1393.55 388.154C1394.58 388.569 1396.06 388.766 1397.22 388.901C1398.6 389.062 1400.1 389.864 1401.47 389.819C1402.72 389.779 1404 389.841 1405.24 389.918C1408.75 390.135 1412.59 390.853 1415.91 389.269C1418.26 388.146 1420.9 385.305 1421.9 382.942C1422.24 382.119 1422.04 382.577 1422.21 381.802C1422.34 381.232 1421.75 381.952 1421.57 382.109C1420.63 382.942 1420.13 383.672 1418.88 383.51C1417.26 383.302 1415.3 383.168 1413.67 383.187C1411.57 383.213 1409.98 383.01 1407.91 383.353Z" fill="#CB906D"/>
<path d="M1381.6 378.065C1384.95 380.112 1388.09 382.192 1390.68 385.12C1387.96 384.023 1384.31 385.532 1381.41 384.807C1377.67 383.873 1374.11 382.605 1370.62 381.03C1368.26 379.96 1366.86 378.107 1365.16 376.178C1365.14 376.158 1365.12 376.139 1365.11 376.123C1365.05 376.14 1365 376.156 1364.96 376.173C1365.08 376.571 1365.51 377.459 1365.01 376.889C1364.62 376.448 1364.59 376.308 1364.96 376.173C1364.9 375.99 1364.91 375.911 1365.11 376.123C1365.16 376.108 1365.21 376.093 1365.27 376.077C1367.42 375.507 1368.62 374.65 1370.83 374.786C1372.89 374.914 1375.01 375.74 1377.01 376.214C1379.08 376.707 1379.79 376.963 1381.6 378.065Z" fill="#CB906D"/>
<path d="M1403.02 361.107C1400.9 362.33 1398.36 363.443 1396.54 365.052L1396.14 368.665C1397.63 369.059 1399.17 369.043 1400.64 369.329C1401.63 369.52 1402.58 369.1 1403.59 369.261C1404.5 369.407 1405.87 369.308 1406.79 369.19C1412.4 368.472 1417.84 366.115 1421.45 361.57C1423.25 359.308 1421.98 359.294 1422.63 356.574C1422.98 355.107 1418.32 356.123 1417.43 356.252C1413.94 356.758 1411.43 357.659 1408.35 359.348C1406.63 360.294 1404.73 360.123 1403.02 361.107Z" fill="#CB906D"/>
<path d="M1390.66 358.252C1392.61 362.58 1390.33 364.097 1392.65 368.302C1388.57 368.049 1389.09 369.903 1385.24 368.348C1383.02 367.451 1380.32 364.522 1379.2 362.411C1378.42 360.929 1377.76 359.284 1377.36 357.658C1377.02 356.297 1376.45 354.318 1376.68 352.91C1376.91 351.518 1377.2 350.185 1377.45 348.79C1377.75 347.023 1378.71 345.295 1378.89 343.548C1379.15 340.936 1381.74 345.933 1382.49 346.774C1385.68 350.392 1388.68 353.85 1390.66 358.252Z" fill="#CB906D"/>
<path d="M1397.04 343.854C1399.09 342.046 1402.65 340.27 1404.93 338.759C1406.99 337.387 1409 338.043 1411.3 337.063C1413.45 336.152 1414.9 335.127 1417.19 334.815C1417.5 334.772 1417.76 334.691 1417.97 334.591C1418.06 334.425 1418.16 334.257 1418.25 334.089C1418.73 333.215 1418.94 334.113 1417.97 334.591C1415.45 338.808 1410.77 342.278 1406 343.195C1403.09 343.753 1399.97 345.034 1397.04 343.854Z" fill="#CB906D"/>
<path d="M1392.28 337.063C1392.78 339.31 1393.37 341.671 1394.15 343.857C1390.98 342.513 1387.92 340.369 1385.07 338.32C1383.74 337.37 1382.7 335.801 1381.62 334.584C1380.71 333.552 1379.5 332.517 1378.98 331.225C1378 328.793 1378.06 326.098 1377.66 323.487C1377.4 321.792 1378.17 323.66 1378.28 321.958C1378.31 321.458 1377.93 320.242 1378.7 320.897C1379.35 321.453 1380.25 321.563 1380.86 322.253L1383.38 325.103C1386.52 328.663 1388.08 328.846 1390.78 332.764C1391.75 334.174 1391.92 335.458 1392.28 337.063Z" fill="#CB906D"/>
<path d="M1400.08 332.54C1398.52 334.741 1399.4 334.98 1397.68 336.606C1397.62 336.118 1397.66 335.41 1397.67 334.987C1397.7 334.173 1397.42 333.368 1397.47 332.55C1397.62 330.162 1397.2 327.735 1396.96 325.319C1396.61 321.836 1396.51 318.76 1396.98 315.278C1397.34 312.61 1396.93 311.194 1398.17 308.789C1398.34 308.448 1398.84 306.646 1399.09 306.527C1399.45 306.355 1400.96 308.447 1401.2 308.717C1401.64 309.21 1402.28 312.075 1403.31 314.607C1404.25 317.795 1405.02 322.699 1403.53 325.92C1402.49 328.177 1401.52 330.494 1400.08 332.54Z" fill="#CB906D"/>
<path d="M1397.36 340.22C1397.63 347.377 1395.21 354.343 1395.5 361.335C1395.58 363.17 1394.86 365.039 1394.66 366.858C1394.44 368.859 1394.72 370.973 1394.27 372.925C1393.38 376.772 1393.58 380.86 1392.98 384.75C1391.87 391.957 1391.5 399.355 1389.97 406.469C1389.08 410.614 1387.84 414.73 1386.78 418.851C1385.76 422.843 1385.45 426.876 1384.1 430.788C1379.08 445.294 1371.53 459.031 1363.51 472.073C1357.99 481.03 1354.04 492.172 1346.09 499.189" stroke="#C4631F" stroke-width="4" stroke-linecap="round" stroke-linejoin="round"/>
<path d="M1397.54 339.598C1399.66 337.723 1401.37 335.941 1403.01 333.623C1404.45 331.578 1405.42 329.26 1406.46 327.004C1407.95 323.783 1406.92 318.318 1405.63 315.153C1404.61 312.621 1403.75 310.806 1401.96 308.776C1401.72 308.505 1400.2 306.414 1399.84 306.585C1399.59 306.705 1399.1 308.506 1398.92 308.848C1397.69 311.253 1397.15 314.498 1396.79 317.166C1396.32 320.648 1396.77 324.559 1397.12 328.042C1397.36 330.458 1397.78 332.885 1397.63 335.273C1397.58 336.091 1397.86 336.896 1397.83 337.71C1397.81 338.228 1397.76 339.173 1397.88 339.619" stroke="#C4631F" stroke-width="4" stroke-linecap="round" stroke-linejoin="round"/>
<path d="M1397.2 345.119C1399.24 343.312 1401.21 341.4 1403.49 339.888C1405.55 338.517 1408.55 338.11 1410.86 337.13C1413 336.219 1415.35 335.514 1417.64 335.201C1419.47 334.952 1418.53 336.002 1417.95 337.059C1415.52 341.501 1410.66 345.212 1405.7 346.165C1402.79 346.723 1399.67 348.004 1396.74 346.824" stroke="#C4631F" stroke-width="4" stroke-linecap="round" stroke-linejoin="round"/>
<path d="M1395.81 347.978C1394.86 345.566 1394.18 342.883 1393.61 340.345C1393.26 338.741 1393.09 337.456 1392.12 336.047C1389.42 332.129 1386.44 328.512 1383.3 324.952C1382.46 324.002 1381.62 323.052 1380.78 322.102C1380.17 321.412 1379.27 321.302 1378.62 320.746C1377.85 320.091 1378.23 321.308 1378.2 321.807C1378.09 323.509 1377.89 325.21 1378.15 326.905C1378.55 329.515 1379.34 332.075 1380.32 334.508C1380.84 335.8 1382.05 336.835 1382.96 337.867C1384.03 339.084 1385.08 340.653 1386.4 341.602C1389.37 343.728 1392.55 345.958 1395.85 347.288" stroke="#C4631F" stroke-width="4" stroke-linecap="round" stroke-linejoin="round"/>
<path d="M1394.91 368.019C1396.73 366.41 1398.59 364.268 1400.71 363.046C1402.41 362.061 1404.22 361.255 1405.94 360.309C1409.01 358.62 1412.39 357.177 1415.88 356.671C1416.77 356.542 1422.99 355.757 1422.64 357.224C1422 359.944 1421.62 362.275 1419.82 364.537C1416.21 369.082 1410.77 371.439 1405.17 372.157C1404.25 372.275 1402.88 372.374 1401.97 372.228C1400.95 372.067 1400 372.487 1399.02 372.296C1397.54 372.01 1396 372.026 1394.52 371.632" stroke="#C4631F" stroke-width="4" stroke-linecap="round" stroke-linejoin="round"/>
<path d="M1393.05 386.96C1396.9 383.811 1402.44 384.12 1407.14 383.338C1409.2 382.994 1411.6 383.24 1413.7 383.214C1415.33 383.195 1416.92 383.469 1418.53 383.677C1419.79 383.84 1420.95 383.515 1421.9 382.682C1422.07 382.525 1422.66 381.805 1422.53 382.375C1422.36 383.15 1421.18 384.354 1420.84 385.177C1419.84 387.54 1417.2 390.382 1414.84 391.504C1411.52 393.088 1407.69 392.37 1404.18 392.153C1402.93 392.076 1401.65 392.014 1400.41 392.054C1399.03 392.099 1397.53 391.297 1396.16 391.136C1395 391.001 1393.51 390.804 1392.49 390.39" stroke="#C4631F" stroke-width="4" stroke-linecap="round" stroke-linejoin="round"/>
<path d="M1393.75 370.025C1391.43 365.821 1390.97 361.164 1389.02 356.836C1387.04 352.435 1383.81 348.067 1380.62 344.449C1379.87 343.608 1376.23 339.654 1375.97 342.265C1375.8 344.013 1374.84 345.741 1374.53 347.508C1374.28 348.903 1373.99 350.235 1373.76 351.628C1373.53 353.036 1374.1 355.015 1374.44 356.376C1374.85 358.002 1375.5 359.647 1376.28 361.129C1377.4 363.239 1380.1 366.169 1382.33 367.066C1386.18 368.62 1389.55 368.899 1393.63 369.152" stroke="#C4631F" stroke-width="4" stroke-linecap="round" stroke-linejoin="round"/>
<path d="M1392.11 388.114C1389.52 385.185 1387.15 381.849 1383.79 379.803C1381.98 378.701 1380.22 377.521 1378.15 377.028C1376.15 376.554 1374.17 375.57 1372.11 375.442C1369.9 375.305 1367.18 374.992 1365.03 375.562C1364.35 375.744 1364.29 375.832 1364.77 376.374C1365.52 377.225 1365.85 378.328 1366.59 379.171C1368.3 381.1 1369.69 382.954 1372.06 384.023C1375.54 385.599 1379.11 386.866 1382.84 387.8C1385.74 388.525 1389.02 387.34 1391.74 388.437" stroke="#C4631F" stroke-width="4" stroke-linecap="round" stroke-linejoin="round"/>
<path d="M1391.37 402.793C1393.13 401.293 1394.11 401.381 1396.35 401.33C1398.33 401.286 1400.14 401.043 1402.13 401.284C1405.36 401.675 1408.62 401.686 1411.81 402.287C1413.21 402.552 1414.37 403.196 1415.77 403.283C1417.52 403.391 1416 405.111 1415.39 405.974C1412.24 410.444 1405.96 410.031 1401.18 409.251C1396.96 408.564 1392.81 407.368 1389.91 404.088" stroke="#C4631F" stroke-width="4" stroke-linecap="round" stroke-linejoin="round"/>
<path d="M1389.83 402.525C1384.53 396.526 1374.68 397.777 1367.55 398.72C1363.91 399.201 1360.44 399.996 1356.93 401.085C1356.78 401.131 1354.66 401.818 1354.98 402.186C1355.99 403.322 1358.31 403.765 1359.63 404.207C1362.83 405.27 1365.79 406.35 1369.2 406.137C1372.37 405.939 1375.86 406.356 1378.94 405.479C1381.25 404.82 1383.6 404.936 1385.85 404.011C1387.19 403.461 1388.67 403.272 1389.99 402.708" stroke="#C4631F" stroke-width="4" stroke-linecap="round" stroke-linejoin="round"/>
<path d="M1385.87 421.682C1387.74 420.305 1391.11 420.457 1393.4 420.416C1395.26 420.382 1397.09 420.139 1398.93 420.585C1403.02 421.574 1406.96 422.664 1410.95 423.927C1411.5 424.101 1416.04 426.645 1415.69 426.993C1414.42 428.251 1413.15 428.953 1411.57 429.721C1408.81 431.066 1405.24 430.974 1402.24 430.972C1398.85 430.97 1395.37 429.541 1392.3 428.22C1389.31 426.933 1387.24 425.441 1385.1 423.02" stroke="#C4631F" stroke-width="4" stroke-linecap="round" stroke-linejoin="round"/>
<path d="M1384.76 422.738C1383.98 421.858 1383.08 420.345 1382.03 419.784C1380.81 419.129 1379.1 418.675 1377.74 418.494C1376.32 418.307 1374.91 418.422 1373.49 418.439C1371.65 418.461 1369.56 418.433 1367.76 418.772C1364.07 419.463 1360.49 420.557 1356.85 421.37C1354.7 421.849 1352.43 422.962 1350.84 424.494C1350.68 424.643 1354.6 425.529 1355.03 425.618C1357.71 426.187 1360.47 426.403 1363.21 426.572C1365.59 426.72 1368.12 426.469 1370.49 426.239C1372.67 426.029 1375 425.829 1377.09 425.175C1379.18 424.521 1381.74 424.242 1383.66 423.182C1384.38 422.783 1385.32 422.79 1385.94 422.235" stroke="#C4631F" stroke-width="4" stroke-linecap="round" stroke-linejoin="round"/>
<path d="M1381.79 438.11C1387.91 438.237 1394.24 439.114 1400 441.222C1402.17 442.015 1403.91 443.126 1405.81 444.414C1407.38 445.482 1409.23 446.446 1410.5 447.881C1410.79 448.215 1411.28 448.51 1410.73 448.623C1409.55 448.869 1408.31 448.947 1407.11 449.111C1403.7 449.576 1400.2 448.985 1396.83 448.37C1394.31 447.912 1391.95 446.809 1389.47 446.251C1387.77 445.869 1385.79 445.088 1384.61 443.749C1383.31 442.289 1381.35 440.675 1380.59 438.9" stroke="#C4631F" stroke-width="4" stroke-linecap="round" stroke-linejoin="round"/>
<path d="M1379.45 438.828C1376.07 436.458 1371.57 436.915 1367.61 436.943C1363.39 436.972 1359.23 437.086 1355.09 437.824C1351.36 438.492 1347.61 439.856 1344.34 441.776C1343.65 442.183 1343.07 442.747 1342.47 443.276C1342.41 443.335 1342.05 443.646 1342.08 443.652C1343.6 443.965 1345.38 445.158 1346.8 445.785C1349 446.755 1351.26 447.066 1353.61 447.423C1355.36 447.688 1357.35 448.126 1359.11 448.051C1362.67 447.9 1366.06 446.942 1369.47 445.956C1373.51 444.785 1376.64 441.848 1379.71 439.133" stroke="#C4631F" stroke-width="4" stroke-linecap="round" stroke-linejoin="round"/>
<path d="M1374.15 454.632C1376.41 455.039 1378.72 455.406 1380.89 456.13C1382.79 456.762 1384.63 457.534 1386.51 458.206C1388.15 458.792 1389.86 459.442 1391.35 460.354C1392.71 461.189 1394.05 462.253 1395.53 462.869C1397.69 463.771 1399.94 464.727 1402.32 464.874C1403.61 464.954 1403.12 465.4 1402.26 465.742C1400.73 466.348 1399.2 466.899 1397.63 467.384C1394.72 468.288 1391.56 467.848 1388.56 467.879C1384.78 467.918 1381.08 466.583 1377.84 464.807C1376.07 463.834 1374.54 462.451 1373.21 460.943C1372.95 460.65 1372.49 459.82 1372.47 459.425C1372.47 459.29 1372 458.342 1372.18 458.543" stroke="#C4631F" stroke-width="4" stroke-linecap="round" stroke-linejoin="round"/>
<path d="M1364.92 468.751C1363.08 466.67 1361.55 464.905 1359.23 463.406C1356.11 461.389 1352.4 459.607 1348.69 458.961C1346.23 458.532 1343.96 458.071 1341.42 458.447C1340.52 458.58 1339.7 458.951 1338.83 459.183C1338.41 459.294 1337.31 459.304 1337.81 459.872C1339.46 461.737 1340.99 463.64 1343.18 464.893C1345.95 466.478 1349.37 468.044 1352.54 468.561C1354.72 468.916 1356.87 469.414 1359.01 469.898C1360.12 470.147 1361.32 470.112 1362.44 470.182C1363.01 470.217 1364.07 469.978 1364.54 470.168" stroke="#C4631F" stroke-width="4" stroke-linecap="round" stroke-linejoin="round"/>
<path d="M1364.96 470.338C1368.83 472.245 1372.63 475.071 1375.65 478.121C1377.21 479.692 1378.7 481.283 1380.17 482.946C1381.49 484.437 1383.01 485.989 1383.82 487.829C1384.29 488.882 1385.02 489.877 1385.36 490.973C1385.52 491.474 1385.62 491.998 1385.83 492.442C1385.97 492.737 1380.26 492.342 1379.82 492.206C1376.91 491.309 1374.42 490.669 1371.96 488.631C1369.13 486.286 1366.52 483.69 1365.25 480.182C1364.82 478.998 1364.73 477.731 1364.5 476.503C1364.28 475.305 1364.69 474.408 1364.78 473.271C1364.86 472.296 1364.48 471.061 1364.83 470.186" stroke="#C4631F" stroke-width="4" stroke-linecap="round" stroke-linejoin="round"/>
<path d="M1352.82 489.751C1348.54 484.911 1344.63 479.256 1338.17 477.322C1335.79 476.608 1333.25 476.076 1330.78 475.855C1330.16 475.801 1329.6 475.845 1329.01 476.002C1328.28 476.196 1329.24 476.881 1329.54 477.219C1331.49 479.425 1332.98 482.044 1335.1 484.109C1337.4 486.353 1340.64 487.164 1343.64 487.958C1345.77 488.524 1348.22 488.686 1350.42 488.882C1351.28 488.959 1352.36 488.881 1353.14 489.194" stroke="#C4631F" stroke-width="4" stroke-linecap="round" stroke-linejoin="round"/>
<path d="M1352.36 490.155C1354.69 491.964 1357.53 493.248 1359.52 495.495C1362.28 498.622 1364.67 501.587 1365.77 505.708C1366.43 508.205 1366.7 510.009 1366.24 512.466C1366.19 512.689 1365.61 513.972 1365.5 513.933C1364.59 513.626 1363.79 513.041 1362.96 512.591C1360.42 511.228 1358.3 508.635 1357.06 506.073C1355.75 503.361 1354.35 500.421 1353.89 497.419C1353.76 496.535 1353.48 495.742 1353.51 494.835C1353.53 494.297 1353.66 493.237 1353.56 492.742C1353.36 491.802 1353.76 490.811 1353.52 489.939" stroke="#C4631F" stroke-width="4" stroke-linecap="round" stroke-linejoin="round"/>
</g>
<path d="M1430.11 302.805C1435.21 305.151 1442.12 304.097 1447.6 304.043C1447.62 309.944 1448.01 312.711 1448.01 318.825C1448.01 322.659 1437.6 322.178 1434.97 322.178C1428.61 322.178 1422.79 322.409 1416.61 320.865C1410.34 319.296 1404.72 317.036 1398.93 314.066C1395.97 312.543 1393.61 311.067 1390.78 309.306C1388.45 307.865 1385.69 306.577 1383.3 305.227C1381.49 304.207 1379.62 302.245 1377.86 301.148C1371.3 297.071 1371.69 292.942 1366.3 287.55C1364.68 285.927 1361.35 282.027 1357.46 279.391C1354.02 277.059 1350.28 276.318 1347.94 274.632C1341.79 270.189 1334.6 269.176 1329.3 263.876C1326.21 260.779 1324.1 257.545 1319.41 257.052C1317.98 256.901 1311.03 255.122 1312.91 253.433C1316.26 250.415 1322.02 250.107 1326.1 248.899C1333.54 246.694 1338.99 248.316 1345.9 250.835C1351.68 252.941 1361.82 256.555 1366.3 261.034C1369.96 264.692 1374.84 268.959 1378.54 272.592C1389.38 283.234 1401.44 292.871 1416.14 297.95C1420.69 299.524 1425.75 300.805 1430.11 302.805Z" fill="#B7C2B4"/>
<path d="M1437.01 207.323C1440.14 210.698 1442.67 214.604 1445.52 218.201C1445.12 219.314 1444.79 223.285 1445.45 224.74C1445.92 225.789 1445.52 227.817 1445.52 228.968V233.683V242.463V246.691C1445.52 243.357 1442.94 242.488 1442.45 241.998C1439.02 238.592 1435.54 235.291 1431.57 232.479C1426.59 228.946 1423.55 225.303 1418.65 221.601C1414.51 218.469 1410.49 214.602 1407.09 210.722C1404.49 207.753 1401.32 205.726 1398.93 202.564C1394.88 197.193 1386.53 188.005 1381.56 183.424C1379.71 181.717 1378.06 179.381 1376.5 177.407C1375.03 175.557 1372.4 174.302 1370.27 173.342C1367.3 172.002 1363.03 170.465 1360.84 168.049C1359.18 166.221 1361.41 162.773 1363.54 162.773C1368.18 162.773 1372.16 164.593 1376.62 165.7C1381.34 166.871 1384.87 171.163 1388.66 173.866C1393.96 177.653 1401.9 186.889 1408.49 188.571C1414.92 190.212 1422.52 192.871 1427.49 197.804C1430.67 200.956 1433.97 204.042 1437.01 207.323Z" fill="#B7C2B4"/>
<path d="M1415.42 248.831C1424.66 254.989 1435.84 259.286 1447.03 259.65V276.492C1447.03 277.799 1447.38 279.697 1447.01 280.962C1446.9 281.361 1443.73 281.27 1443.28 281.142C1439.81 280.15 1435.16 280.284 1431.87 278.288C1430.24 277.301 1428.26 276.717 1426.44 276.18L1426.28 276.133C1423.88 275.426 1421.7 274.207 1419.39 273.259C1415.24 271.548 1411.28 269.346 1407.36 267.152C1399.22 262.596 1392.38 255.692 1385.05 249.988C1383.55 248.827 1382.34 247.311 1381.14 245.877C1379.95 244.466 1378.28 243.506 1376.92 242.285C1373.56 239.26 1369.43 237.215 1366.05 234.282C1360.64 229.596 1354.25 228.156 1347.91 225.301C1339.17 221.369 1332.28 216.237 1325.71 209.661C1323.97 207.928 1321.87 206.003 1320.44 204.033C1319.26 202.419 1317.75 200.842 1316.67 199.164C1315.92 198.005 1313.26 197.524 1315.05 196.729C1316.58 196.049 1318.48 197.106 1319.88 197.447C1322.39 198.058 1323.8 198.21 1325.65 200.062C1328.48 202.898 1331.87 204.433 1334.97 206.887C1339.6 210.561 1347.1 209.813 1352.64 211.75C1356.86 213.229 1361.06 215.591 1365.41 216.58C1367.58 217.072 1369.73 218.041 1371.88 218.655C1374.14 219.302 1376.49 219.355 1378.6 220.451C1380.71 221.547 1382.89 222.339 1384.89 223.685C1387.24 225.267 1389.29 227.258 1391.65 228.854C1395.9 231.728 1400.52 234.733 1404.21 238.333C1407.94 241.98 1411.03 245.905 1415.42 248.831Z" fill="#B7C2B4"/>
<path d="M1447.13 216.989C1444.05 213.072 1441.13 208.82 1437.75 205.145C1434.46 201.571 1431.44 197.756 1428.01 194.323C1422.64 188.951 1413.71 188.241 1406.76 186.453C1399.64 184.621 1395.37 178.654 1389.64 174.53C1385.55 171.586 1381.74 166.912 1376.64 165.637C1371.81 164.43 1367.51 162.449 1362.49 162.449C1360.19 162.449 1357.79 166.204 1359.58 168.194C1361.95 170.826 1366.56 172.5 1369.77 173.959C1372.07 175.005 1374.91 176.371 1376.5 178.386C1378.19 180.536 1379.97 183.08 1381.97 184.938C1387.34 189.928 1391.32 196.463 1395.7 202.311C1398.28 205.755 1401.45 208.62 1404.26 211.854C1407.93 216.079 1411.65 220.287 1416.12 223.699C1421.42 227.731 1426.08 232.62 1431.47 236.468C1435.76 239.53 1439.53 243.384 1443.24 247.093C1443.77 247.626 1446.78 250.288 1446.78 249.749C1446.78 248.214 1446.78 246.679 1446.78 245.145C1446.78 241.957 1446.78 238.77 1446.78 235.582C1446.78 233.871 1446.78 232.159 1446.78 230.447C1446.78 229.194 1447.21 226.986 1446.7 225.843C1446 224.259 1447.41 217.661 1446.07 216.989" stroke="#4A5759" stroke-width="4" stroke-linecap="round" stroke-linejoin="round"/>
<path d="M1358.82 165.064C1361.35 165.064 1363.72 164.996 1366.14 165.854C1368.16 166.574 1370.18 167.13 1372.19 167.961C1378.64 170.622 1383.6 176.066 1388.37 180.924C1390.36 182.943 1391.54 184.972 1392.85 187.449C1394.36 190.312 1397.39 193.033 1399.64 195.35C1402.91 198.717 1407.91 200.515 1412.28 201.729C1416.59 202.926 1420.64 206.646 1423.34 210.039C1424.99 212.114 1426.67 214.113 1428.49 216.038C1430.16 217.796 1432.26 219.625 1433.61 221.627C1434.81 223.389 1436.69 224.215 1438.03 225.782C1438.95 226.855 1440.2 227.825 1441.19 228.855C1442.11 229.807 1443.16 230.549 1444.15 231.43C1444.61 231.842 1445.3 232.795 1445.73 233.01" stroke="#4A5759" stroke-width="4" stroke-linecap="round" stroke-linejoin="round"/>
<path d="M1447.21 262.394C1435.5 262.394 1423.72 257.989 1414.06 251.55C1409.67 248.624 1406.58 244.699 1402.85 241.053C1399.16 237.453 1394.54 234.448 1390.29 231.573C1387.93 229.977 1385.88 227.986 1383.53 226.404C1381.53 225.058 1379.35 224.266 1377.24 223.171C1375.13 222.074 1372.78 222.022 1370.52 221.375C1368.37 220.76 1366.22 219.791 1364.05 219.299C1359.7 218.31 1355.5 215.948 1351.28 214.469C1345.74 212.532 1339.1 210.499 1334.47 206.826C1331.38 204.372 1327.99 202.836 1325.15 200C1323.3 198.148 1321.9 197.997 1319.38 197.386C1317.98 197.044 1316.08 195.987 1314.55 196.667C1312.76 197.463 1315.43 197.944 1316.17 199.102C1317.25 200.781 1318.77 202.358 1319.94 203.972C1321.38 205.941 1323.48 207.867 1325.21 209.6C1331.79 216.175 1337.81 224.088 1346.55 228.02C1352.89 230.875 1359.28 232.316 1364.69 237.001C1368.07 239.934 1372.2 241.979 1375.56 245.004C1376.92 246.225 1378.59 247.186 1379.78 248.597C1380.98 250.031 1382.19 251.547 1383.69 252.708C1391.02 258.411 1397.86 265.315 1406 269.871C1409.92 272.065 1413.88 274.268 1418.03 275.978C1420.34 276.927 1422.52 278.145 1424.92 278.852C1426.79 279.403 1428.83 279.992 1430.51 281.007C1433.8 283.004 1438.45 282.87 1441.92 283.861C1442.37 283.99 1445.54 284.081 1445.66 283.682C1446.02 282.417 1445.68 280.519 1445.68 279.211C1445.68 273.583 1445.68 267.955 1445.68 262.327" stroke="#4A5759" stroke-width="4" stroke-linecap="round" stroke-linejoin="round"/>
<path d="M1315.82 198.063C1323.37 202.961 1329.2 210.067 1336.75 214.871C1339.82 216.827 1342.33 219.436 1345.68 220.94C1348.4 222.158 1351.04 223.535 1353.74 224.764C1355.65 225.63 1357.87 226.075 1359.88 226.687C1362.03 227.346 1363.96 228.505 1366.11 229.161C1369.49 230.195 1372.99 231.616 1376 233.511C1382.85 237.825 1389.67 242.064 1396.29 246.793C1401.1 250.23 1405.35 253.812 1410.62 256.594C1415.55 259.194 1419.92 263.411 1425.23 265.25C1430.42 267.048 1435.07 270.188 1440.21 272.166C1442.24 272.948 1443.71 274.318 1446.07 274.318" stroke="#4A5759" stroke-width="4" stroke-linecap="round" stroke-linejoin="round"/>
<path d="M1446.65 300.674C1441.11 300.674 1433.98 301.843 1428.75 299.438C1424.39 297.437 1419.33 296.157 1414.78 294.583C1400.09 289.504 1388.66 278.936 1377.82 268.294C1374.12 264.661 1370.25 261.143 1366.6 257.486C1362.12 253.007 1354.83 250.844 1349.06 248.738C1342.15 246.219 1332.18 243.327 1324.74 245.532C1320.66 246.74 1314.9 247.048 1311.55 250.066C1309.67 251.754 1316.62 253.534 1318.05 253.684C1322.74 254.178 1324.85 257.412 1327.94 260.508C1333.24 265.809 1337.87 271.408 1344.02 275.851C1346.35 277.538 1349.45 278.655 1352.17 279.561C1354.38 280.296 1356.32 282.243 1357.94 283.866C1363.33 289.258 1368.7 295.452 1375.25 299.529C1377.02 300.626 1378.69 301.922 1380.5 302.941C1382.89 304.292 1385.48 305.415 1387.8 306.857C1390.64 308.617 1393.4 310.693 1396.37 312.216C1402.15 315.186 1408.64 318.158 1414.91 319.727C1421.09 321.271 1426.69 322.108 1433.05 322.108C1435.68 322.108 1447.07 322.644 1447.07 318.811C1447.07 312.555 1446.24 306.45 1446.24 300.262" stroke="#4A5759" stroke-width="4" stroke-linecap="round" stroke-linejoin="round"/>
<path d="M1312.69 248.739C1324.69 250.703 1334.35 257.444 1345.28 262.181C1358.93 268.099 1370.12 279.081 1381.62 288.081C1387.77 292.896 1393.93 297.246 1400.49 301.5C1403.35 303.354 1406.91 304.733 1410.06 306.034C1413.58 307.488 1417.52 308.408 1420.89 310.156C1428.73 314.222 1438.85 313.866 1447.48 313.866" stroke="#4A5759" stroke-width="4" stroke-linecap="round" stroke-linejoin="round"/>
<path d="M1388.74 491.519C1393.73 488.415 1398.57 488.352 1404.12 488.354C1403.73 488.715 1403.37 489.143 1403.01 489.479C1400.97 490.159 1399.52 490.76 1397.82 491.89C1395.45 493.473 1392.91 495.222 1389.95 495.44C1387.23 495.642 1385.33 496.278 1382.62 496.278C1382.2 496.278 1381.14 496.526 1381.45 495.903C1381.7 495.398 1382.02 494.98 1382.43 494.591C1384.09 493.015 1386.79 492.73 1388.74 491.519Z" fill="#CB906D"/>
<path d="M1413.21 487.44C1411.4 487.44 1409.6 488.101 1407.83 488.698C1408.22 489.015 1408.7 489.553 1408.99 489.829C1409.6 490.404 1410.32 490.695 1411.01 491.141C1413.36 492.655 1416.25 493.482 1418.92 494.234C1421.45 494.943 1424.53 495.06 1427.02 494.14C1427.85 493.836 1428.74 493.639 1429.5 493.203C1429.6 493.147 1426.04 493.282 1427.49 492.199C1426.07 490.38 1425.54 489.865 1423.41 488.8C1419.89 487.042 1417.06 487.44 1413.21 487.44Z" fill="#CB906D"/>
<path d="M1410.49 465.683C1406.54 465.908 1403.29 466.895 1399.61 468.402C1400 469.181 1399.73 468.407 1400.36 469.058C1401.09 469.816 1401.46 470.643 1402.42 471.224C1403.4 471.819 1404.34 472.525 1405.42 472.952C1408.62 474.217 1412.01 473.995 1415.35 473.473C1418.26 473.018 1420.22 471.689 1422.62 470.224C1422.98 470.002 1426.42 467.805 1426.13 467.722C1425.69 467.598 1425.21 467.239 1424.77 467.042C1423.8 466.612 1423.06 466.684 1422.05 466.362C1420.28 465.8 1418.45 466.362 1416.61 466.362C1414.57 466.362 1412.53 465.566 1410.49 465.683Z" fill="#CB906D"/>
<path d="M1396.78 467.723L1396.89 467.723C1396.47 467.933 1396.62 467.897 1396.25 468.265C1395.51 469.003 1394.8 469.851 1393.96 470.463C1392.31 471.649 1390.66 472.827 1389.08 474.117C1386.79 475.995 1383.62 477.399 1380.84 478.345C1378.63 479.093 1377.97 479.726 1375.67 479.726C1374.97 479.726 1375.64 478.958 1375.82 478.601C1376.19 477.858 1376.43 477.065 1376.89 476.362C1378.18 474.382 1380.14 473.922 1381.94 472.482C1384.65 470.314 1387.47 469.331 1390.78 468.403C1393.19 467.722 1394.3 467.723 1396.78 467.723Z" fill="#CB906D"/>
<path d="M1392.32 453.688C1393.98 452.375 1395.64 451.001 1397.47 449.94C1399.07 449.013 1400.72 448.215 1402.33 447.326C1403.74 446.55 1405.23 445.766 1406.77 445.296C1408.18 444.865 1409.73 444.587 1411.06 443.942C1412.09 443.439 1413.39 442.917 1414.6 442.303C1414.6 442.303 1414.6 442.303 1414.6 442.302C1414.83 441.796 1415.28 441.678 1415.77 441.661C1416.39 441.288 1416.96 440.881 1417.41 440.428C1418.25 439.584 1418.26 440.197 1417.97 441.001C1417.65 441.901 1416.63 441.632 1415.77 441.661C1415.4 441.887 1415.01 442.1 1414.6 442.303C1413.45 444.867 1411.21 446.784 1409.41 448.873C1407.12 451.51 1403.95 453.249 1400.74 454.402C1398.99 455.034 1397.1 455.246 1395.25 455.246C1394.88 455.246 1394.03 455.057 1393.75 454.829C1393.65 454.751 1392.71 454.496 1392.95 454.496L1392.32 453.688Z" fill="#CB906D"/>
<path d="M1398.25 428.288C1393.28 430.982 1388.74 435.087 1385.34 436.447C1387.02 437.009 1387.3 437.565 1389.1 437.565C1390.74 437.565 1392.5 436.669 1393.79 435.732C1395.69 434.36 1397.9 433.4 1399.75 431.942C1402.23 429.988 1404.78 427.928 1406.54 425.288C1407.16 424.356 1408.56 425.468 1409.11 424.5C1409.36 424.053 1408.86 424.209 1408.45 424.209C1406.69 424.209 1405.39 424.851 1403.69 425.288C1401.64 425.815 1400.13 427.274 1398.25 428.288Z" fill="#CB906D"/>
<path d="M1373.87 449.595C1376.27 446.843 1379.07 443.45 1382.77 442.566C1382.77 446.348 1382.89 450.306 1381.23 453.812C1379.83 456.768 1378.43 459.693 1376.36 462.247C1375.33 463.51 1373.82 464.617 1372.57 465.662C1372.28 465.9 1372.11 466.052 1372.01 466.145C1371.75 466.388 1371.98 466.231 1372.01 466.145C1372.03 466.069 1371.9 466.048 1371.11 466.412C1369.81 467.013 1367.9 467.513 1366.76 468.369C1366.73 468.387 1366.74 467.951 1366.74 467.87C1366.74 467.133 1366.7 466.389 1366.84 465.662C1367.51 462.235 1366.52 461.875 1368.34 458.884C1370.35 455.577 1371.31 452.527 1373.87 449.595Z" fill="#CB906D"/>
<path d="M1382.18 417.656C1380.81 419.265 1377.14 422.513 1376.95 424.645C1379.93 424.645 1382.22 424.124 1384.94 422.841C1387.73 421.524 1390.83 419.998 1392.9 417.656C1394.74 415.58 1396.98 413.174 1397.74 410.442C1398.17 408.882 1399.03 408.854 1398.93 407.212C1398.91 406.759 1394.63 408.298 1394.17 408.572C1390.87 410.555 1388.51 411.795 1385.34 414.011C1383.9 415.011 1383.29 416.351 1382.18 417.656Z" fill="#CB906D"/>
<path d="M1376.5 424.888C1377.52 424.51 1376.77 425.568 1377.86 425.568C1377.86 426.341 1375.4 424.942 1375.24 425.684C1374.8 427.656 1373.43 429.598 1372.6 431.442C1371.78 433.286 1370.49 435.019 1369.31 436.649C1368.02 438.429 1366.65 440.331 1365.09 441.886C1363.36 443.62 1361.58 445.34 1359.62 446.819C1359.47 447.676 1359.41 448.542 1359.44 449.365C1359.45 449.562 1359.12 447.194 1359.44 446.957C1359.5 446.912 1359.56 446.866 1359.62 446.819C1359.85 445.553 1360.27 444.306 1360.86 443.246C1362.52 440.232 1363.17 437.372 1364.94 434.407C1365.81 432.953 1367.23 431.615 1368.34 430.328C1369.57 429.477 1370.74 428.474 1371.74 427.608C1372.69 426.777 1375.3 425.331 1376.5 424.888Z" fill="#CB906D"/>
<path d="M1369.7 405.852C1368.36 407.433 1368.34 407.892 1366.98 407.783V409.587C1371.01 409.587 1374.37 407.449 1377.42 404.953C1380.88 402.124 1385 398.038 1383.84 393.13C1383.61 392.183 1383.52 392.213 1382.38 393.355C1381.46 394.273 1380.94 394.846 1379.9 395.654C1377.53 397.493 1375.34 399.101 1373.1 401.093C1371.72 402.321 1370.88 404.457 1369.7 405.852Z" fill="#CB906D"/>
<path d="M1350.66 423.53C1354.37 418.022 1358.14 411.291 1364.36 409.932C1363.94 411.193 1363.39 412.33 1362.95 413.589C1362.22 415.707 1360.71 417.261 1359.75 419.262C1358.47 421.926 1356.06 424.08 1354.26 426.389C1352.33 428.876 1349.77 430.264 1347.09 431.824C1345.97 432.471 1347.3 433.728 1345.9 433.728C1345.45 433.728 1345.84 431.82 1345.9 431.688C1347.29 428.6 1348.77 426.337 1350.66 423.53Z" fill="#CB906D"/>
<path d="M1364.94 386.134C1362.61 389.86 1359.5 392.253 1357.46 396.509L1359.49 398.989C1360.4 398.533 1361.44 397.629 1362.24 396.91C1363.2 396.057 1364.67 395.51 1365.48 394.53C1366.21 393.648 1367.03 392.801 1367.84 391.988C1370.14 389.693 1372.97 387.484 1373.9 384.223C1374.56 381.912 1374.22 378.35 1373.19 376.22C1372.83 375.478 1373.02 375.902 1372.59 375.31C1372.28 374.874 1372.42 375.717 1372.42 375.936C1372.42 377.096 1372.62 377.884 1371.74 378.655C1370.61 379.642 1369.32 380.919 1368.34 382.055C1367.07 383.521 1365.96 384.5 1364.94 386.134Z" fill="#CB906D"/>
<path d="M1345.22 401.093C1348.69 400.022 1352.04 399.124 1355.64 399.124C1353.22 400.333 1352.04 403.773 1349.77 405.336C1346.84 407.347 1343.79 409.036 1340.57 410.484C1338.39 411.467 1336.26 411.298 1333.89 411.298C1333.86 411.298 1333.84 411.298 1333.82 411.299C1333.79 411.348 1333.77 411.394 1333.76 411.435C1334.11 411.594 1334.99 411.834 1334.29 411.834C1333.74 411.834 1333.63 411.772 1333.76 411.435C1333.6 411.362 1333.55 411.306 1333.82 411.299C1333.84 411.255 1333.86 411.208 1333.89 411.157C1334.8 409.329 1334.94 407.973 1336.38 406.532C1337.73 405.183 1339.6 404.222 1341.14 403.133C1342.75 401.999 1343.36 401.669 1345.22 401.093Z" fill="#CB906D"/>
<path d="M1346.58 375.936C1346.13 378.145 1345.35 380.582 1345.35 382.823L1347.6 385.303C1348.78 384.517 1349.71 383.443 1350.81 382.597C1351.55 382.033 1351.83 381.119 1352.56 380.518C1353.22 379.977 1353.99 378.971 1354.47 378.264C1357.39 373.954 1359.09 368.753 1358.15 363.485C1357.68 360.863 1356.9 361.726 1355.42 359.618C1354.62 358.481 1352.48 362.324 1352.02 363.018C1350.24 365.74 1349.33 368.023 1348.62 371.176C1348.23 372.943 1346.94 374.157 1346.58 375.936Z" fill="#CB906D"/>
<path d="M1337.06 382.736C1341.24 384.03 1340.9 386.529 1345.22 387.495C1342.56 390.157 1344.16 390.928 1340.73 392.64C1338.76 393.629 1335.08 393.708 1332.94 393.192C1331.44 392.829 1329.91 392.275 1328.53 391.563C1327.39 390.967 1325.67 390.151 1324.84 389.134C1324.02 388.127 1323.28 387.109 1322.46 386.09C1321.43 384.799 1320.82 383.081 1319.72 381.895C1318.07 380.122 1323.11 381.376 1324.15 381.376C1328.6 381.376 1332.81 381.419 1337.06 382.736Z" fill="#CB906D"/>
<path d="M1331.01 369.537C1331.01 367.02 1331.96 363.474 1332.3 360.979C1332.62 358.716 1334.29 357.731 1335.02 355.54C1335.7 353.502 1335.88 351.872 1337.06 350.101C1337.23 349.856 1337.33 349.629 1337.38 349.427C1337.33 349.257 1337.27 349.088 1337.21 348.922C1336.9 348.057 1337.65 348.46 1337.38 349.427C1338.76 353.74 1338.3 359.091 1336.02 362.949C1334.63 365.296 1333.61 368.237 1331.01 369.537Z" fill="#CB906D"/>
<path d="M1323.41 368.685C1325.27 369.71 1327.26 370.744 1329.25 371.534C1326.39 372.904 1323.04 373.711 1319.88 374.433C1318.41 374.768 1316.69 374.533 1315.19 374.533C1313.92 374.533 1312.47 374.737 1311.26 374.308C1308.98 373.501 1307.15 371.817 1305.11 370.497C1303.78 369.64 1305.54 370.249 1304.43 369.137C1304.1 368.811 1303.03 368.33 1303.95 368.198C1304.74 368.086 1305.36 367.534 1306.21 367.534H1309.71C1314.09 367.534 1315.17 366.566 1319.53 367.094C1321.09 367.284 1322.08 367.953 1323.41 368.685Z" fill="#CB906D"/>
<path d="M1325.05 360.534C1325.62 362.951 1326.32 362.49 1326.39 364.676C1326.02 364.414 1325.55 363.959 1325.27 363.691C1324.72 363.175 1324 362.873 1323.47 362.338C1321.91 360.779 1319.97 359.588 1318.15 358.281C1315.54 356.395 1313.35 354.589 1311.23 352.14C1309.6 350.263 1308.38 349.678 1307.47 347.357C1307.34 347.028 1306.4 345.587 1306.47 345.341C1306.57 344.988 1308.94 345.216 1309.27 345.216C1309.88 345.216 1312.25 346.521 1314.63 347.357C1317.41 348.652 1321.26 351.115 1322.58 354.109C1323.5 356.206 1324.51 358.288 1325.05 360.534Z" fill="#CB906D"/>
<path d="M1328.7 367.097C1333.81 371.278 1337.14 377.204 1342.15 381.272C1343.46 382.34 1344.32 383.974 1345.45 385.223C1346.7 386.595 1348.33 387.696 1349.4 389.199C1351.52 392.161 1354.47 394.519 1356.79 397.306C1361.09 402.47 1365.98 407.243 1369.96 412.644C1372.28 415.791 1374.36 419.16 1376.57 422.404C1378.7 425.546 1381.3 428.222 1383.18 431.544C1390.14 443.862 1395.02 457.465 1399.13 470.972C1401.96 480.248 1407.24 489.783 1407.24 499.555" stroke="#C4631F" stroke-width="3" stroke-linecap="round" stroke-linejoin="round"/>
<path d="M1328.37 366.596C1328.37 363.985 1328.19 361.714 1327.58 359.169C1327.05 356.923 1326.04 354.842 1325.12 352.744C1323.8 349.75 1319.39 347.126 1316.43 346.081C1314.05 345.245 1312.27 344.728 1309.77 344.728C1309.44 344.728 1307.07 344.501 1306.97 344.854C1306.9 345.099 1307.84 346.541 1307.97 346.87C1308.88 349.191 1310.79 351.543 1312.42 353.42C1314.54 355.87 1317.51 357.947 1320.13 359.833C1321.95 361.141 1323.88 362.331 1325.44 363.891C1325.98 364.425 1326.7 364.728 1327.25 365.243C1327.59 365.571 1328.22 366.18 1328.6 366.37" stroke="#C4631F" stroke-width="3" stroke-linecap="round" stroke-linejoin="round"/>
<path d="M1331.98 370.203C1331.98 367.686 1331.86 365.158 1332.21 362.663C1332.52 360.4 1334.07 358.079 1334.8 355.888C1335.48 353.85 1336.42 351.797 1337.6 350.026C1338.55 348.609 1338.7 349.894 1339.08 350.94C1340.66 355.335 1340.26 360.957 1337.89 364.968C1336.5 367.314 1335.48 370.255 1332.88 371.555" stroke="#C4631F" stroke-width="3" stroke-linecap="round" stroke-linejoin="round"/>
<path d="M1333.11 372.909C1330.86 372.092 1328.59 370.923 1326.49 369.765C1325.17 369.033 1324.18 368.364 1322.61 368.174C1318.26 367.647 1313.94 367.498 1309.56 367.498C1308.39 367.498 1307.22 367.498 1306.05 367.498C1305.21 367.498 1304.58 368.05 1303.8 368.162C1302.88 368.294 1303.95 368.775 1304.28 369.101C1305.39 370.213 1306.44 371.388 1307.77 372.245C1309.82 373.564 1312.07 374.581 1314.35 375.388C1315.56 375.817 1317.01 375.614 1318.28 375.614C1319.78 375.614 1321.5 375.848 1322.96 375.514C1326.24 374.765 1329.73 373.923 1332.66 372.458" stroke="#C4631F" stroke-width="3" stroke-linecap="round" stroke-linejoin="round"/>
<path d="M1346.41 385.758C1346.41 383.517 1346.06 380.928 1346.51 378.72C1346.87 376.941 1347.41 375.201 1347.81 373.434C1348.52 370.281 1349.59 367.064 1351.37 364.342C1351.82 363.648 1355.08 358.871 1355.88 360.008C1357.36 362.116 1358.74 363.798 1359.21 366.421C1360.14 371.689 1358.45 376.889 1355.53 381.199C1355.05 381.907 1354.28 382.912 1353.62 383.454C1352.89 384.055 1352.6 384.968 1351.87 385.533C1350.77 386.378 1349.84 387.452 1348.66 388.238" stroke="#C4631F" stroke-width="3" stroke-linecap="round" stroke-linejoin="round"/>
<path d="M1358.36 398.609C1358.53 394.028 1362.13 390.386 1364.46 386.66C1365.48 385.026 1367.11 383.518 1368.38 382.051C1369.36 380.915 1370.52 379.982 1371.64 378.995C1372.53 378.224 1373.01 377.225 1373.01 376.065C1373.01 375.845 1372.87 375.003 1373.19 375.439C1373.62 376.031 1373.73 377.577 1374.09 378.319C1375.11 380.449 1375.46 384.012 1374.8 386.322C1373.87 389.583 1371.03 391.792 1368.74 394.087C1367.93 394.9 1367.1 395.747 1366.37 396.63C1365.56 397.609 1364.09 398.156 1363.14 399.009C1362.34 399.728 1361.3 400.632 1360.39 401.088" stroke="#C4631F" stroke-width="3" stroke-linecap="round" stroke-linejoin="round"/>
<path d="M1347.08 387.788C1342.77 386.822 1339.27 384.298 1335.09 383.003C1330.83 381.687 1325.85 381.25 1321.4 381.25C1320.36 381.25 1315.4 381.356 1317.05 383.129C1318.15 384.315 1318.76 386.033 1319.79 387.324C1320.61 388.343 1321.35 389.361 1322.17 390.368C1323.01 391.385 1324.72 392.201 1325.87 392.797C1327.24 393.509 1328.77 394.063 1330.28 394.426C1332.42 394.942 1336.09 394.863 1338.07 393.875C1341.49 392.162 1343.75 389.999 1346.41 387.337" stroke="#C4631F" stroke-width="3" stroke-linecap="round" stroke-linejoin="round"/>
<path d="M1358.58 399.961C1354.98 399.961 1351.22 399.566 1347.76 400.637C1345.9 401.213 1344.01 401.708 1342.4 402.841C1340.85 403.931 1338.97 404.699 1337.62 406.047C1336.18 407.488 1334.3 409.178 1333.38 411.007C1333.09 411.59 1333.12 411.683 1333.78 411.683C1334.83 411.683 1335.79 412.134 1336.83 412.134C1339.2 412.134 1341.33 412.303 1343.52 411.32C1346.73 409.873 1349.78 408.184 1352.71 406.173C1354.98 404.61 1356.16 401.62 1358.58 400.411" stroke="#C4631F" stroke-width="3" stroke-linecap="round" stroke-linejoin="round"/>
<path d="M1368.28 409.429C1368.31 407.299 1368.97 406.676 1370.3 405.095C1371.48 403.7 1372.42 402.303 1373.8 401.075C1376.04 399.083 1378.03 396.84 1380.4 395.001C1381.44 394.193 1382.59 393.789 1383.51 392.872C1384.65 391.73 1384.91 393.828 1385.13 394.775C1386.3 399.684 1382.18 403.769 1378.72 406.598C1375.67 409.094 1372.31 411.232 1368.28 411.232" stroke="#C4631F" stroke-width="3" stroke-linecap="round" stroke-linejoin="round"/>
<path d="M1367.15 410.331C1359.77 410.331 1354.62 417.899 1350.92 423.406C1349.03 426.214 1347.46 429.098 1346.07 432.186C1346.01 432.318 1345.19 434.202 1345.64 434.202C1347.04 434.202 1348.76 432.871 1349.88 432.224C1352.56 430.663 1355.12 429.275 1357.05 426.788C1358.85 424.48 1361.27 422.326 1362.54 419.662C1363.5 417.661 1365.01 416.106 1365.75 413.988C1366.18 412.73 1366.95 411.593 1367.37 410.331" stroke="#C4631F" stroke-width="3" stroke-linecap="round" stroke-linejoin="round"/>
<path d="M1377.97 424.759C1378.16 422.628 1380.32 420.394 1381.69 418.785C1382.8 417.48 1383.75 416.066 1385.18 415.065C1388.36 412.849 1391.52 410.787 1394.83 408.803C1395.28 408.53 1399.81 406.947 1399.84 407.4C1399.93 409.043 1399.64 410.349 1399.21 411.909C1398.45 414.641 1396.21 417.047 1394.38 419.123C1392.3 421.466 1389.2 422.992 1386.41 424.308C1383.69 425.591 1381.4 426.112 1378.42 426.112" stroke="#C4631F" stroke-width="3" stroke-linecap="round" stroke-linejoin="round"/>
<path d="M1378.02 426.172C1376.94 426.172 1375.34 425.877 1374.31 426.256C1373.12 426.698 1371.76 427.601 1370.81 428.432C1369.81 429.298 1369.03 430.344 1368.17 431.337C1367.06 432.625 1365.77 434.048 1364.9 435.502C1363.13 438.467 1361.7 441.61 1360.04 444.624C1359.06 446.401 1358.44 448.646 1358.53 450.684C1358.54 450.882 1361.54 448.713 1361.86 448.477C1363.89 446.967 1365.73 445.193 1367.51 443.406C1369.07 441.85 1370.44 439.949 1371.73 438.168C1372.91 436.538 1374.2 434.805 1375.02 432.962C1375.85 431.117 1377.22 429.176 1377.66 427.203C1377.82 426.461 1378.4 425.821 1378.4 425.048" stroke="#C4631F" stroke-width="3" stroke-linecap="round" stroke-linejoin="round"/>
<path d="M1386.83 437.605C1390.65 433.457 1395.12 429.615 1400.1 426.922C1401.97 425.908 1403.79 425.387 1405.84 424.86C1407.54 424.423 1409.34 423.735 1411.1 423.735C1411.51 423.735 1412.01 423.58 1411.76 424.027C1411.21 424.994 1410.51 425.895 1409.88 426.828C1408.12 429.468 1405.58 431.528 1403.1 433.482C1401.24 434.94 1399.04 435.9 1397.14 437.272C1395.84 438.209 1394.09 439.105 1392.44 439.105C1390.65 439.105 1388.33 439.48 1386.64 438.917" stroke="#C4631F" stroke-width="3" stroke-linecap="round" stroke-linejoin="round"/>
<path d="M1385.89 439.667C1382.2 440.551 1379.76 443.943 1377.37 446.696C1374.81 449.627 1372.35 452.573 1370.34 455.88C1368.52 458.871 1367.17 462.293 1366.5 465.72C1366.36 466.447 1366.4 467.191 1366.4 467.927C1366.4 468.008 1366.4 468.444 1366.42 468.427C1367.56 467.571 1369.47 467.071 1370.77 466.47C1372.79 465.539 1374.38 464.168 1376.06 462.763C1377.31 461.718 1378.83 460.611 1379.85 459.347C1381.92 456.794 1383.33 453.869 1384.73 450.913C1386.38 447.407 1386.27 443.449 1386.27 439.667" stroke="#C4631F" stroke-width="3" stroke-linecap="round" stroke-linejoin="round"/>
<path d="M1393.58 452.974C1395.24 451.661 1396.9 450.287 1398.73 449.225C1400.33 448.299 1401.98 447.501 1403.6 446.612C1405 445.836 1406.49 445.051 1408.03 444.581C1409.44 444.151 1410.99 443.872 1412.32 443.228C1414.26 442.284 1416.3 441.314 1417.85 439.76C1418.69 438.916 1418.7 439.529 1418.41 440.333C1417.9 441.756 1417.35 443.151 1416.73 444.529C1415.57 447.093 1413.34 449.01 1411.53 451.1C1409.25 453.737 1406.07 455.475 1402.87 456.629C1401.11 457.261 1399.22 457.472 1397.37 457.472C1397.01 457.472 1396.15 457.283 1395.87 457.056C1395.77 456.978 1394.83 456.723 1395.08 456.723" stroke="#C4631F" stroke-width="3" stroke-linecap="round" stroke-linejoin="round"/>
<path d="M1397.7 467.969C1395.14 467.969 1392.99 467.945 1390.54 468.635C1387.24 469.564 1383.74 471.038 1381.03 473.206C1379.23 474.646 1377.53 475.933 1376.24 477.913C1375.78 478.616 1375.54 479.409 1375.17 480.152C1374.99 480.509 1374.32 481.276 1375.02 481.276C1377.32 481.276 1379.57 481.379 1381.77 480.631C1384.56 479.685 1387.72 478.281 1390.02 476.403C1391.59 475.113 1393.25 473.935 1394.89 472.748C1395.74 472.136 1396.44 471.289 1397.18 470.551C1397.55 470.183 1398.03 469.304 1398.45 469.093" stroke="#C4631F" stroke-width="3" stroke-linecap="round" stroke-linejoin="round"/>
<path d="M1398.83 468.906C1402.5 467.399 1406.78 466.497 1410.73 466.272C1412.76 466.155 1414.77 466.094 1416.82 466.094C1418.65 466.094 1420.65 465.991 1422.42 466.553C1423.43 466.875 1424.57 466.976 1425.53 467.407C1425.98 467.603 1426.4 467.855 1426.84 467.979C1427.13 468.062 1423.37 471.766 1423 471.988C1420.61 473.453 1418.64 474.783 1415.74 475.237C1412.39 475.76 1409 475.981 1405.8 474.716C1404.72 474.29 1403.79 473.583 1402.8 472.988C1401.84 472.407 1401.47 471.58 1400.74 470.822C1400.12 470.171 1399.03 469.685 1398.64 468.906" stroke="#C4631F" stroke-width="3" stroke-linecap="round" stroke-linejoin="round"/>
<path d="M1404.82 489.148C1398.87 489.148 1392.58 488.398 1387.3 491.679C1385.35 492.89 1383.43 494.32 1381.77 495.896C1381.36 496.284 1381.04 496.703 1380.79 497.208C1380.48 497.831 1381.54 497.583 1381.96 497.583C1384.67 497.583 1387.39 498.148 1390.11 497.947C1393.06 497.728 1395.61 495.979 1397.98 494.396C1399.68 493.267 1401.28 491.675 1402.76 490.273C1403.34 489.725 1403.95 488.931 1404.64 488.586" stroke="#C4631F" stroke-width="3" stroke-linecap="round" stroke-linejoin="round"/>
<path d="M1404.82 489.711C1407.49 489.207 1410.12 488.024 1412.88 488.024C1416.73 488.024 1420.24 488.182 1423.75 489.94C1425.89 491.006 1427.3 491.921 1428.71 493.741C1428.84 493.906 1429.37 495.091 1429.27 495.147C1428.51 495.583 1427.62 495.78 1426.79 496.084C1424.3 497.004 1421.22 496.888 1418.69 496.178C1416.02 495.426 1413.14 494.599 1410.78 493.085C1410.09 492.639 1409.37 492.348 1408.76 491.773C1408.4 491.432 1407.75 490.693 1407.34 490.461C1406.58 490.022 1406.13 489.146 1405.39 488.774" stroke="#C4631F" stroke-width="3" stroke-linecap="round" stroke-linejoin="round"/>
</g>
</svg>
