<svg width="898" height="122" viewBox="0 0 898 122" fill="none" xmlns="http://www.w3.org/2000/svg">
<path d="M833 39.4492H54L0 103.949H897.5L833 39.4492Z" fill="#CB906D"/>
<path d="M0 121.449V102.449H898V121.449H0Z" fill="#AF7C5E"/>
<circle cx="444.335" cy="35.7556" r="34.7556" fill="white"/>
<circle cx="443.545" cy="34.9652" r="30.8061" fill="#6075BC"/>
<path d="M459.343 23.1165C455.552 20.5888 436.7 24.1696 427.747 26.276L424.588 46.8142L433.277 49.1839L438.016 46.8142H452.234L453.814 49.1839L464.873 45.2344C464.609 38.9149 463.135 25.6441 459.343 23.1165Z" fill="white"/>
<path d="M444.68 5.73926C439.742 5.85286 435.693 6.89876 431.44 9.69346C427.855 12.0498 424.46 14.5265 420.793 16.801C415.178 20.2848 415.933 29.4646 415.933 35.4458C415.933 38.8473 415.768 43.3377 417.46 46.3324C419.783 50.4414 423.425 53.1796 426.881 56.0928C432.287 60.6506 437.672 62.7206 444.402 63.851C453.485 65.3766 461.927 61.6963 468.335 54.4911C472.172 50.1757 473.718 43.9033 474.167 38.1237C474.463 34.3263 474.671 29.9508 472.57 26.6865C468.721 20.7035 464.414 16.3844 458.683 12.4964C456.058 10.7159 453.87 8.90216 450.929 7.76641C447.905 6.59861 444.51 6.22784 441.347 5.73926" stroke="#566EBE" stroke-linecap="round" stroke-linejoin="round"/>
<path d="M433.321 1C424.195 2.54735 416.046 8.20506 410.776 16.4864C407.542 21.5684 407.746 29.6331 408.378 35.595C409.143 42.8178 410.733 48.9367 415.597 54.1262C420.118 58.9503 425.255 62.6267 430.922 65.7279C434.137 67.4872 437.428 68.5627 441.019 68.5627C444.48 68.5627 447.945 69.317 451.356 68.6676C456.493 67.6899 462.118 66.3781 466.274 62.6568C470.212 59.131 474.993 53.4077 476.827 48.2466C478.18 44.4395 478.793 39.4604 479.057 35.4113C479.354 30.8681 477.598 27.4536 476.923 23.2059C475.592 14.8295 468.234 11.9189 462.677 7.71952C454.015 1.174 442.607 1 432.457 1" stroke="#CACACA" stroke-linecap="round" stroke-linejoin="round"/>
<path d="M443.46 22.5151C439.545 22.5151 435.865 23.5367 432.019 24.3058C426.23 24.3058 424.856 32.0378 424.856 36.7413V45.5953C424.856 48.002 428.019 48.8311 429.88 49.4752C432.426 50.3566 434.027 50.7362 435.799 48.4804C437.496 46.3209 437.466 46.1046 440.077 46.242C443.169 46.4047 445.649 46.678 448.732 46.2669C449.604 46.1506 452.164 45.3804 452.164 46.4658C452.164 51.7123 461.074 47.6205 463.555 46.2669C466.39 44.7209 465.523 42.0269 464.6 39.6263C463.666 37.1992 462.635 34.781 462.013 32.1402C461.428 29.6509 461.252 26.5642 460.123 24.3058C459.191 22.4408 455.648 22.896 453.955 22.2913C452.704 21.8443 450.241 22.5151 448.832 22.5151H443.46Z" stroke="#CACACA" stroke-linecap="round" stroke-linejoin="round"/>
<circle cx="451.444" cy="38.1253" r="3.9495" fill="#6075BC"/>
<circle cx="438.806" cy="38.1253" r="3.9495" fill="#6075BC"/>
<path d="M434.705 36.1692C434.705 34.2858 438.475 34.4003 439.629 34.6023C441.159 35.3671 442.763 35.684 442.763 37.8355C442.763 41.6755 440.253 41.9006 437.192 41.3175C434.327 40.7718 434.705 38.6381 434.705 36.1692Z" stroke="#CACACA" stroke-linecap="round" stroke-linejoin="round"/>
<path d="M451.049 35.2999C448.315 36.4337 447.069 37.0673 447.624 40.0463C448.078 42.4788 451.146 42.0447 453.002 42.0447C457.228 42.0447 455.4 34.1758 451.049 34.1758" stroke="#CACACA" stroke-linecap="round" stroke-linejoin="round"/>
<rect x="180.883" y="6.44141" width="62.1856" height="60.5491" rx="3" fill="#5FCEF7"/>
<rect x="183.767" y="9.32422" width="54.7825" height="53.3409" rx="3" fill="#0D2731"/>
<path d="M192.798 8.95312C191.564 9.12631 189.108 9.09415 188.112 10.1945C186.394 12.0934 185.637 16.2455 185.309 18.8044C184.546 24.7536 183.94 31.0138 184.688 37.0051C185.141 40.6246 184.869 44.4283 184.869 48.0778C184.869 50.4672 184.869 52.8566 184.869 55.246C184.869 56.7834 184.287 59.6609 185.049 61.0326C186.207 63.118 189.303 62.7757 191.376 63.0349C196.184 63.6358 201.274 64.0961 206.133 64.0961C208.768 64.0961 211.35 64.4565 213.982 64.4565C216.304 64.4565 218.577 64.0961 220.89 64.0961C224.888 64.0961 228.886 64.0961 232.883 64.0961C238.412 64.0961 239.651 55.979 239.651 51.7019C239.651 44.0643 239.785 36.4123 239.651 28.7758C239.615 26.6838 239.07 24.8107 238.57 22.8089C237.858 19.9623 238.092 17.2884 237.829 14.3993C237.654 12.4709 237.631 11.0264 235.446 10.7352C231.01 10.1436 226.733 9.76879 222.231 9.39363C219.482 9.16455 216.566 9.67395 213.782 9.67395C210.344 9.67395 206.961 9.88485 203.53 10.0143C198.968 10.1865 194.427 9.67395 189.914 9.67395" stroke="#165167" stroke-linecap="round" stroke-linejoin="round"/>
<path d="M195.321 6.06966C191.653 5.3711 187.191 5.7032 183.507 6.14975C181.245 6.424 179.197 7.80084 178.762 10.1944C177.736 15.8335 178.574 21.8415 178.101 27.5742C177.714 32.2687 178.532 37.0129 179.022 41.6703C179.361 44.8953 179.267 48.1871 179.482 51.4214C179.642 53.818 179.911 56.278 180.544 58.6096C180.901 59.9275 181.209 63.6926 182.546 64.4563C184.51 65.5785 185.845 66.2105 188.192 66.6188C190.053 66.9423 191.907 66.9229 193.759 67.2595C199.102 68.231 204.634 67.9989 210.017 68.7011C215.931 69.4725 221.89 68.0604 227.758 68.0604C231.328 68.0604 236.199 67.352 239.471 65.898C242.119 64.7209 242.132 61.6331 242.815 59.3305C243.665 56.4624 243.435 52.5743 243.435 49.8396C242.815 47.5285 242.815 46.8077 242.815 43.9244C243.279 41.3229 243.435 38.8787 243.435 35.9954C244.698 29.8313 245.835 21.8668 244.156 15.5721C243.149 11.7942 243.713 7.8995 239.631 7.49129C234.459 6.9741 229.325 5.88797 224.133 5.36886C214.174 4.37292 203.688 5.70925 193.879 5.70925" stroke="#33A6D0" stroke-linecap="round" stroke-linejoin="round"/>
<path d="M194.579 50.4128L195.3 20.8591C207.554 20.1383 214.041 25.9048 214.041 31.6714C214.041 36.2847 204.911 38.3991 200.345 38.8796L199.625 51.1336L194.579 50.4128Z" fill="white"/>
<path d="M228.458 33.1124L229.178 28.7874C227.737 27.3458 218.366 28.7874 216.204 28.7874C214.474 28.7874 215.002 32.6318 215.483 34.554C216.684 35.0346 219.808 36.5725 222.691 38.8796C225.574 41.1868 224.373 44.1655 223.412 45.3664L215.483 46.0872L216.204 49.6913C219.808 49.451 227.304 48.8263 228.458 48.2497C229.899 47.5288 229.178 43.2039 228.458 41.0414C227.737 38.879 221.249 34.554 219.808 33.1124C218.654 31.9591 225.094 32.6318 228.458 33.1124Z" fill="white"/>
<path d="M195.321 21.2066C195.321 28.2317 194.698 35.2743 194.6 42.3107C194.565 44.8321 193.555 48.8768 195.341 50.9605C195.951 51.6727 199.343 51.9107 199.626 50.9205C200.12 49.1913 200.006 47.4367 200.006 45.6345C200.006 43.9652 200.367 42.4041 200.367 40.7489C200.367 39.7045 200.039 38.8667 201.288 38.8667C204.906 38.8667 207.565 38.3939 210.078 35.4629C210.819 34.5985 212.061 34.2573 212.821 33.2804C213.578 32.3071 213.742 30.6472 213.702 29.416C213.607 26.4921 212.821 25.1314 210.418 23.5292C208.896 22.5142 206.925 21.0978 205.072 20.8662C203.534 20.6739 195.979 19.5295 195.321 20.8462" stroke="#A4B5BD" stroke-linecap="round" stroke-linejoin="round"/>
<path d="M200.346 35.2741L199.625 25.9034C207.554 24.4618 208.275 31.67 208.275 33.1117C208.275 34.265 202.989 35.0339 200.346 35.2741Z" fill="#0D2731"/>
<path d="M199.646 25.1719C199.646 27.9604 198.963 31.9049 199.726 34.7028C200.504 37.5549 205.414 35.2892 206.774 34.1822C208.905 32.4472 208.471 30.055 207.295 28.0552C205.789 25.4958 201.852 25.5323 199.285 25.5323" stroke="#A4B5BD" stroke-linecap="round" stroke-linejoin="round"/>
<path d="M227.758 32.3799C226.251 32.1775 224.088 31.3334 222.532 31.6791C221.797 31.8424 221.108 32.2358 220.37 32.3999C218.377 32.8427 220.988 35.7382 221.972 35.984C225.022 36.7468 229.615 41.5312 229.18 45.0143C228.529 50.2196 220.873 49.3193 217.126 49.3193C216.063 49.3193 215.656 49.5377 215.484 48.4182C215.361 47.6205 214.925 46.7508 215.164 45.9154C215.328 45.339 219.864 45.7151 220.37 45.7151C221.858 45.7151 223.67 45.4623 224.234 43.833C225.114 41.2907 222.662 39.0758 220.63 37.8662C217.866 36.2212 215.504 35.7173 215.504 32.0195C215.504 30.5618 215.636 29.6076 216.946 29.0561C218.806 28.273 221.002 28.4154 222.993 28.4154C224.212 28.4154 227.722 28.2732 228.759 29.2163C229.515 29.9034 229.192 32.3838 228.479 32.7403" stroke="#A4B5BD" stroke-linecap="round" stroke-linejoin="round"/>
<rect x="299" y="8.56543" width="56.355" height="56.355" rx="5" fill="white"/>
<ellipse cx="329.526" cy="35.1777" rx="10.1752" ry="9.39249" fill="#568CED"/>
<path d="M317.002 35.9599C318.881 22.8104 338.657 21.6103 348.311 22.6539C335.161 6.37324 315.176 14.3052 306.827 20.3062L317.002 35.9599Z" fill="#CD5547"/>
<path d="M317.002 35.9598L306.827 20.3057C298.687 45.9785 317.002 56.5711 327.177 58.6583L337.352 43.0042C327.96 50.5182 319.872 41.4388 317.002 35.9598Z" fill="#4A9D63"/>
<path d="M348.311 23.4365L333.439 24.2192C344.71 34.8641 334.483 51.614 327.96 58.6584C354.259 59.2845 355.355 29.6982 348.311 23.4365Z" fill="#F8CD5E"/>
<path d="M306.693 21.0889C309.961 25.1491 312.394 29.7085 314.715 34.3514C314.981 34.8833 316.125 37.963 316.563 37.1344C317.269 35.8023 317.685 34.0739 318.216 32.6338C320.318 26.9266 325.129 24.2285 331 23.524C335.608 22.971 340.36 23.0456 345.002 23.0456C346.985 23.0456 349.588 22.5774 351.307 23.437" stroke="#9B473D" stroke-linecap="round" stroke-linejoin="round"/>
<path d="M317.259 38.3086C320.224 42.1859 323.81 45.65 329 45.7443C330.62 45.7738 332.251 45.4183 333.783 44.8746C334.046 44.7811 338.349 42.7351 338.349 42.8744C338.349 44.253 336.151 46.0367 335.457 47.1575C334.143 49.2805 332.798 51.4125 331.174 53.3322C330.007 54.7111 327.987 57 327.434 58.659" stroke="#346D46" stroke-linecap="round" stroke-linejoin="round"/>
<path d="M337.61 42.222C340.028 37.8895 338.964 32.2596 336.631 28.1115C334.926 25.0803 333.873 24.2197 330.565 24.2197" stroke="#BE9D48" stroke-linecap="round" stroke-linejoin="round"/>
<path d="M305.518 8.17406C311.836 6.99869 317.968 7.792 324.303 7.36961C329.55 7.01982 334.87 7 340.175 7C345.895 7 353.803 8.23275 356.199 14.0879C358.198 18.9739 356.394 26.0822 356.394 31.177C356.394 36.0961 356.786 40.9876 356.786 45.918C356.786 49.7694 357.747 55.4155 355.307 58.5283C350.607 64.525 343.762 66.4858 336.392 66.4858C327.673 66.4858 318.955 66.4858 310.236 66.4858C305.952 66.4858 303.427 65.6522 302.083 61.4852C300.439 56.3887 299.678 51.0013 299.344 45.6571C298.712 35.5425 298.96 25.1784 300.018 15.1315C300.185 13.5379 300.065 11.7742 300.822 10.3048C301.675 8.64953 303.525 8.95677 305.127 8.95677" stroke="#DADADA" stroke-linecap="round" stroke-linejoin="round"/>
<path d="M306.24 20.8928C308.713 18.9377 311.2 17.2845 314.198 16.2618C316.909 15.3366 319.646 14.508 322.372 13.6528C325.656 12.6227 330.026 12.167 333.287 13.5441C335.65 14.5416 337.87 15.9539 340.244 16.9793C342.212 17.829 344.358 18.3934 346.202 19.5231C346.942 19.9769 347.818 20.2627 348.615 20.5993C349.196 20.8444 350.255 20.9888 350.702 21.4364C351.125 21.8593 351.076 22.7648 351.637 23.0453" stroke="#9B473D" stroke-linecap="round" stroke-linejoin="round"/>
<path d="M351.441 23.6328C352.142 27.4841 351.833 31.6034 351.833 35.5039C351.833 37.322 351.711 39.1448 351.626 40.9611C351.48 44.1018 350.726 46.465 349.115 49.223C346.62 53.4951 341.619 55.3771 336.95 56.3109C334.925 56.716 332.968 57.4258 330.917 57.7676C329.937 57.9309 328.752 58.2676 327.764 58.2676" stroke="#BE9D48" stroke-linecap="round" stroke-linejoin="round"/>
<path d="M327.764 57.8764C325.036 57.5853 322.569 57.2914 320.253 55.637C317.734 53.8379 314.701 52.7283 312.023 51.1581C310.265 50.1269 308.235 48.8878 307.501 46.8859C306.799 44.972 305.978 43.1763 305.653 41.1351C304.975 36.8787 304.488 32.9371 304.914 28.6335C304.952 28.2463 306.336 21.7242 305.849 21.4805" stroke="#346D46" stroke-linecap="round" stroke-linejoin="round"/>
<rect x="74" y="9.49219" width="57.6349" height="56.1182" rx="6" fill="#56C0F5"/>
<path d="M98.2673 41.341C95.8405 32.8474 102.059 16.0641 105.851 9.49171C107.62 8.98614 115.861 9.49013 122.534 9.49013C129.208 9.49013 131.635 14.0419 132.393 16.3169C132.393 28.1978 133.098 53.0365 132.393 57.268C131.635 61.8181 126.832 64.5971 124.051 65.6083H108.884C108.126 57.5192 106.154 41.6443 104.334 42.8577C102.513 44.071 99.531 42.3521 98.2673 41.341Z" fill="#ECEEF0"/>
<path d="M87.7095 26.1592C87.7095 26.5235 87.9549 32.1477 88.7627 30.3301C89.625 28.3901 89.3197 27.6118 87.7095 26.5384" stroke="black" stroke-linecap="round" stroke-linejoin="round"/>
<path d="M115.768 25.7793C115.742 25.9151 115.185 31.9837 116.148 30.6243C116.648 29.9175 117.401 29.2097 116.99 28.4335C116.625 27.744 116.148 27.4084 116.148 26.5377" stroke="black" stroke-linecap="round" stroke-linejoin="round"/>
<path d="M86.1929 48.1514C91.5447 52.0865 97.5724 52.9037 103.993 53.4388C108.763 53.8363 116.011 52.3386 118.802 48.1514" stroke="black" stroke-linecap="round" stroke-linejoin="round"/>
<path d="M105.437 9.49219C105.336 13.8387 102.118 16.8989 100.592 20.7832C99.3037 24.063 98.6121 27.1621 98.6121 30.7261C98.6121 33.316 97.3854 40.1994 99.56 41.8907C101.311 43.2524 103.354 41.7643 105.227 41.7643C106.641 41.7643 106.076 47.7066 106.217 48.758C106.89 53.8086 109.229 59.0392 109.229 64.0936" stroke="#E0E0E0" stroke-linecap="round" stroke-linejoin="round"/>
<path d="M105.093 9.87012C98.9314 9.87012 92.7058 10.5088 86.5656 10.0702C85.137 9.9682 83.6694 10.0597 82.2367 10.0597C80.9099 10.0597 79.2963 10.0237 78.0868 10.6285C76.4253 11.4592 76.3958 12.6708 75.9908 14.336C75.5599 16.1074 75.0805 17.9215 74.9586 19.7498C74.7152 23.4002 74.9593 27.1489 75.2219 30.788C75.5212 34.936 75.3504 39.1559 75.1482 43.3009C74.9496 47.3711 74.948 51.5952 74.948 55.6662C74.948 57.5994 74.856 59.5405 75.1271 61.4382C75.495 64.0134 78.0319 65.047 80.404 65.3984C83.4721 65.853 86.6284 66.0757 89.7149 65.8408C92.5153 65.6277 95.4815 65.9883 98.3095 65.9883C100.592 65.9883 102.852 65.7987 105.135 65.7987C105.926 65.7987 108.684 66.2 109.074 65.4195" stroke="#438BAF" stroke-linecap="round" stroke-linejoin="round"/>
<path d="M109.263 65.7999C113.998 65.1686 118.824 65.8007 123.525 65.0837C124.835 64.8837 126.006 64.6096 127.127 63.904C128.998 62.7262 130.127 62.1626 130.508 59.8174C131.342 54.6703 132.393 49.5337 132.393 44.2922C132.393 41.0744 132.583 37.8537 132.583 34.6442C132.583 31.6272 132.204 28.6222 132.204 25.5967C132.204 23.2263 132.583 20.859 132.583 18.4976C132.583 17.1308 132.268 16.2936 131.824 15.0745C130.707 12.0005 128.023 11.4663 125.189 10.4823C122.647 9.59967 119.824 9.73633 117.184 9.45006C115.334 9.24947 113.37 9.55793 111.549 9.2078C109.45 8.80407 107.045 9.11301 104.903 9.11301" stroke="#E0E0E0" stroke-linecap="round" stroke-linejoin="round"/>
<circle cx="562" cy="34" r="32" fill="#F9F9F9"/>
<path d="M561.22 21.5127C561.74 17.3501 560.595 9.96145 551.854 13.7078C551.073 16.83 551.854 22.762 561.22 21.5127Z" fill="#65C4EC"/>
<path d="M552.082 34.9502C552.603 39.1128 551.458 46.5014 542.717 42.7551C541.936 39.6329 542.717 33.7009 552.082 34.9502Z" fill="#CF375C"/>
<path d="M573.813 32.6865C573.293 28.5239 574.437 21.1353 583.179 24.8816C583.959 28.0038 583.179 33.9358 573.813 32.6865Z" fill="#5BB381"/>
<path d="M564.447 45.877C563.927 50.0396 565.072 57.4282 573.813 53.6819C574.594 50.5597 573.813 44.6277 564.447 45.877Z" fill="#E4B34C"/>
<rect x="542.488" y="23.8535" width="18.7317" height="7.80488" rx="3.90244" fill="#65C4EC"/>
<rect x="564.342" y="34.7803" width="18.7317" height="7.80488" rx="3.90244" fill="#E4B34C"/>
<rect x="572.146" y="12.9268" width="18.7317" height="7.80488" rx="3.90244" transform="rotate(90 572.146 12.9268)" fill="#5BB381"/>
<rect x="561.219" y="36.3418" width="18.7317" height="7.80488" rx="3.90244" transform="rotate(90 561.219 36.3418)" fill="#CF375C"/>
<path d="M566.488 2.19512C561.415 2.19512 556.05 2.67706 551.269 4.53659C548.142 5.75245 545.968 7.81435 543.28 9.69648C538.697 12.904 535.802 17.3664 533.99 22.5962C533.22 24.8167 532.54 26.8722 532.038 29.1653C531.547 31.4102 531.561 33.8079 531.561 36.103C531.561 38.4753 531.542 40.9165 531.767 43.2791C531.855 44.1987 532.285 45.326 532.776 46.0976C533.562 47.3337 534.071 48.8006 534.781 50.0976C536.867 53.9103 539.221 57.494 543.009 59.7995C545.939 61.5834 548.967 62.0981 552.136 63.0732C554.734 63.8727 557.519 63.7158 560.147 64.3415C561.829 64.742 564.081 64.5543 565.784 64.4282C567.733 64.2838 570.179 64.4672 572.028 63.7561C574.047 62.9792 575.902 62.1054 577.87 61.2087C580.001 60.2377 581.835 58.4669 583.637 56.981C585.442 55.4927 586.93 54.0824 588.353 52.2331C589.833 50.3089 590.603 47.8855 591.16 45.5556C591.607 43.6889 592.158 41.9588 592.743 40.1355C593.335 38.2901 593.144 36.2471 593.372 34.3469C593.796 30.8106 593.681 27.2458 593.61 23.7019C593.538 20.0956 592.335 17.1687 589.99 14.4878C588.295 12.5508 586.606 10.4001 584.461 8.93767C583.223 8.09361 581.849 7.42642 580.635 6.58537C580.135 6.23981 579.438 6.20535 578.868 6C578.054 5.70724 577.419 5.16486 576.57 4.97019C574.775 4.55894 573.026 3.94943 571.215 3.60434C569.124 3.20611 566.955 2.67589 564.927 2" stroke="#D8D8D8" stroke-linecap="round" stroke-linejoin="round"/>
<path d="M561.22 21.1227C561.162 18.7017 561.011 16.1428 560.049 13.9791C559.14 11.9328 555.168 12.2061 553.61 13.2745C553.07 13.6447 552.677 13.5095 552.635 14.2934C552.575 15.4003 552.635 16.4216 552.635 17.5238C552.635 18.775 552.798 20.4552 553.903 21.2203C555.787 22.5248 559.312 21.5129 561.415 21.5129" stroke="#57A8CA" stroke-linecap="round" stroke-linejoin="round"/>
<path d="M560.635 26.7805C559.43 24.8054 556.915 24.2851 554.694 24.244C552.132 24.1965 549.564 24.0488 546.987 24.0488C544.987 24.0488 542.488 25.6959 542.488 27.7561C542.488 29.143 542.286 31.1727 543.67 31.9513C544.747 32.5573 546.349 32.6342 547.55 32.6342C549.449 32.6342 551.311 32.6488 553.198 32.4391C555.449 32.189 557.713 32.3432 559.897 31.6152C560.44 31.4344 560.865 31.3195 561.263 30.9215C561.632 30.5529 561.487 29.6934 561.708 29.2087C562.405 27.6753 560.777 26.8375 559.659 26.3903" stroke="#57A8CA" stroke-linecap="round" stroke-linejoin="round"/>
<path d="M550.098 35.3662C547.53 35.4246 544.617 35.969 542.727 37.8594C540.774 39.8126 542.284 41.4937 544.136 42.6724C545.294 43.4092 549.383 43.3007 550.391 42.293C551.79 40.8937 551.269 38.0031 551.269 36.1467" stroke="#B02E4E" stroke-linecap="round" stroke-linejoin="round"/>
<path d="M558.294 35.5605C556.62 35.5605 554.553 35.7576 553.459 37.2299C551.884 39.3498 553.416 42.9741 553.416 45.3925C553.416 47.1623 554.128 49.198 554.684 50.8668C555.073 52.0337 555.859 54.2923 557.362 54.2923C563.171 54.2923 562.001 47.1987 562.001 43.3437C562.001 41.9191 561.913 40.5489 561.763 39.1378C561.712 38.6585 561.653 37.0996 561.307 36.6554C560.62 35.7711 558.749 35.5605 557.708 35.5605" stroke="#B02E4E" stroke-linecap="round" stroke-linejoin="round"/>
<path d="M564.147 21.1228C564.147 23.9912 564.342 26.8318 564.342 29.7082C563.873 29.9429 564.812 30.8026 565.079 30.9873C565.938 31.5817 566.724 32.0496 567.822 32.0496C570.464 32.0496 572.671 30.8235 573.426 28.2339C574.415 24.8444 573.318 20.9709 573.318 17.5022C573.318 16.047 573.038 13.8008 571.28 13.3613C569.895 13.0151 568.521 13.3179 567.171 13.3179C565.893 13.3179 565.351 14.0534 564.841 15.074C563.968 16.8204 564.147 19.2433 564.147 21.1228Z" stroke="#4C936A" stroke-linecap="round" stroke-linejoin="round"/>
<path d="M575.074 31.4631C575.074 29.0402 575.294 26.1723 577.329 24.5688C578.543 23.6124 580.654 24.375 581.209 25.8046C581.905 27.5921 582.745 29.7069 580.938 31.062C579.522 32.1246 576.793 32.0485 575.074 32.0485" stroke="#4C936A" stroke-linecap="round" stroke-linejoin="round"/>
<path d="M571.757 35.56C569.88 35.56 566.916 35.1324 565.415 36.6332C564.633 37.4158 564.637 40.242 565.708 40.8717C566.817 41.5239 567.796 42.1942 569.144 42.1942C571.191 42.1942 573.298 42.3893 575.377 42.3893C576.592 42.3893 577.774 42.1942 578.976 42.1942C579.839 42.1942 580.645 42.2439 581.318 41.6088C582.42 40.5675 581.708 38.3482 581.708 37.0343C581.708 35.697 578.795 35.7552 577.914 35.7552C576.871 35.7552 575.798 35.8347 574.759 35.7443C574.256 35.7005 572.62 35.1995 572.342 35.7552" stroke="#BE953F" stroke-linecap="round" stroke-linejoin="round"/>
<path d="M565.902 45.8914C568.647 45.3923 570.433 45.8671 572.19 47.7993C573.256 48.9727 572.739 51.8909 571.604 52.764C570.87 53.3291 569.155 53.282 568.244 53.0676C567.045 52.7856 566.831 52.8339 566.336 51.6584C566.012 50.8881 566.097 49.6483 566.097 48.8182C566.097 48.0384 565.902 47.2859 565.902 46.4768" stroke="#BE953F" stroke-linecap="round" stroke-linejoin="round"/>
<path d="M637 47.1659L646.457 37.709L655.914 44.3845L643.119 52.1726L637 47.1659Z" fill="#2E6DAC"/>
<path d="M655.914 29.3642L683.172 6L684.285 23.8013L665.927 37.7086L655.914 29.3642Z" fill="#3378B4"/>
<path d="M638.113 26.5824L642.563 19.3506L684.285 50.5029V67.7479L659.252 48.2777L638.113 26.5824Z" fill="#3A86CC"/>
<path d="M684.285 66.6361L683.729 6.55664L699.305 14.3447V58.2917L684.285 66.6361Z" fill="#53A9EC"/>
<path d="M699.444 15.5957C697.254 13.4655 694.349 12.1603 691.81 10.4964C690.434 9.59431 688.828 8.06216 687.097 7.94674C686.361 7.89765 685.66 7.46161 684.911 7.38272C684.311 7.31958 683.759 7.1123 683.141 7.1123C682.442 7.1123 682.184 7.43913 681.627 7.87721C680.872 8.46997 679.947 8.75141 679.162 9.30657C677.108 10.7592 675.271 12.338 673.684 14.2823C672.201 16.1 670.289 17.6795 668.639 19.3507C666.501 21.5162 663.8 22.8642 661.747 25.1222C660.722 26.25 659.506 27.3227 658.209 28.1123C657.45 28.5738 657.104 29.5338 656.331 29.9203" stroke="#2868A8" stroke-linecap="round" stroke-linejoin="round"/>
<path d="M683.867 23.9404C682.044 25.3584 680.69 27.2466 678.845 28.6225C677.752 29.4382 676.862 30.4653 675.724 31.2495C674.66 31.9832 673.536 32.6784 672.51 33.4592C671 34.608 669.39 35.5984 667.766 36.5652C667.266 36.863 666.598 37.3921 666.066 37.5696" stroke="#2868A8" stroke-linecap="round" stroke-linejoin="round"/>
<path d="M699.305 15.7354C699.305 20.7401 699.37 25.7377 699.552 30.7398C699.675 34.1312 700 37.4996 700 40.8921C700 42.8185 700 44.7449 700 46.6713C700 48.6947 699.722 50.6776 699.722 52.6978C699.722 53.456 699.637 54.266 699.753 55.0157C699.827 55.4977 700.008 56.2234 699.791 56.7C699.635 57.0448 699.742 57.5036 699.722 57.8744C699.689 58.4704 698.721 59.0983 698.323 59.3965C696.125 61.0453 693.579 62.1694 691.022 63.1283C690.277 63.4076 689.719 63.7618 689.083 64.2022C688.669 64.4884 688.264 64.9007 687.792 65.0753C686.998 65.3694 686.387 65.9227 685.784 66.466C684.908 67.254 683.945 67.0532 682.894 67.0532" stroke="#2868A8" stroke-linecap="round" stroke-linejoin="round"/>
<path d="M684.007 7.80762C684.007 15.608 684.563 23.3695 684.563 31.1641C684.563 34.2451 684.285 37.3123 684.285 40.397C684.285 43.3124 684.285 46.2278 684.285 49.1432C684.285 53.0865 684.146 57.0673 684.146 60.9798C684.146 62.0888 683.924 63.2081 683.868 64.2712C683.812 65.3191 683.311 66.3063 683.311 67.3308" stroke="#2868A8" stroke-linecap="round" stroke-linejoin="round"/>
<path d="M644.649 21.0195C646.842 22.9348 649.218 24.5836 651.61 26.2425C652.89 27.1299 654.303 27.8612 655.528 28.8076C656.649 29.6741 657.617 30.7124 658.757 31.5813C659.481 32.1332 660.089 33.0594 660.689 33.7524C661.119 34.2495 661.567 34.7394 662.033 35.205C663.452 36.6235 664.87 37.3955 666.684 38.2955C667.695 38.797 668.683 39.3598 669.613 40.003C670.468 40.5949 671.245 41.3271 672.17 41.8032C673.788 42.6362 675.173 43.6033 676.543 44.7778C677.532 45.6258 678.519 46.3779 679.479 47.2734C680.214 47.959 681.004 48.5009 681.843 49.035C682.398 49.388 683.089 49.5715 683.589 49.9467" stroke="#2868A8" stroke-linecap="round" stroke-linejoin="round"/>
<path d="M645.066 20.8809C644.247 20.6133 643.381 20.3113 642.501 20.4714C641.604 20.6344 641.214 21.2861 640.685 21.9316C640.323 22.3744 639.77 23.4694 639.65 24.01C639.508 24.6485 639.05 25.1184 638.738 25.6789C637.598 27.7318 639.685 28.557 640.979 29.8511C641.719 30.5908 642.388 31.382 643.081 32.1767C643.929 33.1498 644.454 34.3505 645.352 35.2826C646.22 36.1844 647.22 36.9734 648.118 37.8477C649.311 39.0092 650.459 40.2543 651.85 41.1855C652.315 41.4967 652.836 41.7359 653.271 42.0895C655.114 43.5861 656.686 45.3852 658.51 46.9184C660.094 48.2505 661.584 49.639 663.084 51.0597C665.251 53.1128 667.732 54.8113 669.852 56.9316C671.49 58.5692 673.14 60.0538 674.905 61.5365C675.665 62.1752 676.497 62.7338 677.223 63.4062C678.767 64.8356 680.639 65.9769 682.616 66.6358" stroke="#2868A8" stroke-linecap="round" stroke-linejoin="round"/>
<path d="M646.874 37.709C646.021 38.3551 645.333 39.0055 644.417 39.5787C643.674 40.0441 642.613 40.7603 642.084 41.4949C641.726 41.9927 640.932 42.7068 640.415 42.9938C639.798 43.3368 639.315 43.9116 638.731 44.2454C637.472 44.9648 637.481 46.5971 637.564 47.8381C637.649 49.108 639.676 50.1659 640.585 50.7818C641.229 51.2179 641.894 51.7543 642.563 52.1417C643.073 52.4367 643.233 52.4347 643.815 52.2807C645.29 51.8903 646.499 50.9897 647.639 50.0247C649.13 48.763 651.009 48.0497 652.514 46.8183C653.187 46.2682 653.841 45.6976 654.516 45.1494C654.92 44.8211 655.689 44.2788 655.914 43.8282" stroke="#2868A8" stroke-linecap="round" stroke-linejoin="round"/>
<rect x="753.327" y="9.82422" width="65.0509" height="56.0161" fill="#090909"/>
<path d="M752.536 13.8889C752.536 13.1896 752.344 12.0339 752.775 11.442C753.35 10.6509 754.63 10.0791 755.586 9.96127C759.659 9.45904 763.811 9.49158 767.908 9.37776C771.747 9.27114 775.556 9.14562 779.403 9.14562C785.655 9.14562 791.898 9.03268 798.15 9.03268C802.471 9.03268 806.832 8.88963 811.144 9.20209C812.267 9.28347 813.389 9.23411 814.513 9.25855C814.87 9.26631 816.34 9.24827 816.458 9.48443" stroke="#565656" stroke-linecap="round" stroke-linejoin="round"/>
<path d="M816.458 9.48535C817.299 10.6423 817.036 12.2603 817.023 13.6012C817.006 15.2286 816.896 16.8507 816.91 18.4826C816.917 19.336 816.862 20.4626 817.079 21.2871C817.61 23.3046 817.325 25.5534 817.468 27.6241C817.534 28.585 817.398 29.5233 817.368 30.4788C817.309 32.324 817.361 34.179 817.361 36.0252C817.361 38.5652 817.295 41.116 817.387 43.6547C817.44 45.1438 817.813 46.6066 817.813 48.0843C817.813 49.0881 817.813 50.092 817.813 51.0959C817.813 52.6136 818.133 54.047 818.252 55.5443C818.447 57.9807 818.378 60.4513 818.378 62.9039" stroke="#565656" stroke-linecap="round" stroke-linejoin="round"/>
<path d="M818.378 62.791C817.714 64.3919 815.851 64.3171 814.388 64.9117C812.298 65.7605 809.985 65.9048 807.762 65.9783C797.979 66.302 788.199 65.8403 778.418 65.8403C775.598 65.8403 772.839 65.9739 770.029 66.154C768.882 66.2275 767.711 66.2054 766.566 66.1163C764.308 65.9408 762.042 65.8717 759.789 65.6395C759.16 65.5746 758.466 65.5987 757.851 65.445C756.982 65.2279 755.961 65.2887 755.134 64.9933C754.593 64.8 754.061 65.049 753.779 64.4851" stroke="#565656" stroke-linecap="round" stroke-linejoin="round"/>
<path d="M752.424 13.6641C752.424 16.405 752.561 19.1233 752.449 21.8707C752.297 25.5775 752.424 29.3172 752.424 33.0263C752.424 36.7676 752.363 40.5431 752.198 44.2822C752.078 46.9852 751.814 49.6909 752.21 52.3822C752.527 54.5338 752.794 56.7359 752.982 58.8948C753.04 59.5608 752.781 60.197 752.9 60.8586C753.036 61.6134 753.072 62.2237 752.995 62.9981C752.962 63.3222 752.909 63.7966 753.045 64.0961C753.098 64.2128 753.366 65.3109 753.666 64.711" stroke="#565656" stroke-linecap="round" stroke-linejoin="round"/>
<path d="M762.023 18.5205C763.17 19.1655 764.429 19.276 765.631 19.7565C766.038 19.9196 766.545 20.1532 766.986 20.2083C767.832 20.314 768.087 20.8117 768.674 21.3063C769.127 21.6884 769.556 21.8486 768.849 22.0843C767.799 22.4343 766.829 23.1379 765.831 23.6152C764.455 24.2732 762.948 24.5957 761.596 25.2716C761.438 25.3508 760.856 25.5225 760.894 25.5225" stroke="white" stroke-linecap="round" stroke-linejoin="round"/>
<path d="M770.832 28.0071C773.658 28.0071 776.473 27.7812 779.302 27.7812" stroke="white" stroke-linecap="round" stroke-linejoin="round"/>
</svg>
