<svg width="2679" height="921" viewBox="0 0 2679 921" fill="none" xmlns="http://www.w3.org/2000/svg">
<mask id="mask0" mask-type="alpha" maskUnits="userSpaceOnUse" x="0" y="0" width="2679" height="921">
<rect width="2679" height="920.906" fill="#C4C4C4"/>
</mask>
<g mask="url(#mask0)">
<path d="M549.006 888.391C545.019 902.846 544.944 917.403 544.14 932.34C547.722 930.221 555.955 933.702 560.029 933.921C568.623 934.383 576.9 933.377 585.487 933.839L612.637 935.299C620.459 935.72 627.408 931.152 635.246 931.574C637.725 931.708 642.776 933.321 642.946 930.173C643.121 926.915 643.737 930.075 643.912 926.817L644.457 916.681C644.798 910.347 646.576 904.287 646.916 897.975L648.563 867.366C649.415 851.532 651.187 835.104 649.332 819.324C647.922 807.327 650.885 794.738 648.433 782.81C643.447 758.558 628.758 739.155 607.465 727.036C600.61 723.135 590.052 726.087 583.408 728.807C573.834 732.727 565.592 740.794 564.074 751.527C562.252 764.409 562.575 778.092 565.148 790.793C568.309 806.395 565.03 823.233 563.693 838.839C562.974 847.224 559.559 855.849 557.261 863.906C554.903 872.177 551.3 880.073 549.006 888.391Z" fill="#D3DFD0"/>
<path d="M520.526 933.03C519.923 933.308 519.25 933.545 518.498 933.737C519.197 933.253 519.868 933.049 520.526 933.03C526.709 930.185 525.559 923.084 526.958 916.347C528.714 907.886 526.433 903.592 528.714 890.966C531.091 877.816 538.683 858.773 538.802 850.358C539.024 834.696 542.186 818.209 540.494 799.597C539.268 786.106 528.045 774.059 530.342 758.988C531.69 750.138 531.898 742.579 537.11 735.3C542.022 728.44 554.177 722.492 561.291 725.895C583.394 736.465 599.428 754.773 606.129 778.608C609.425 790.332 607.366 803.1 609.627 814.966C612.601 830.574 612.004 847.086 612.282 862.94L612.82 893.589C612.931 899.909 611.589 906.08 611.7 912.422L611.878 922.571L612.05 932.358C612.105 935.51 606.951 934.26 604.47 934.304C596.621 934.442 589.119 933.123 581.287 933.26L554.102 933.737C545.503 933.888 537.319 935.482 528.714 935.633C525.469 935.69 523.087 932.958 520.526 933.03Z" fill="#B1C9AB"/>
<path d="M393.004 869.035C398.192 884.669 401.488 901.173 403.758 918.095L403.758 918.173C403.772 919.746 403.826 925.989 403.056 926.875C401.725 928.407 402.073 932.129 403.366 932.884C412.696 932.643 422.255 932.562 431.066 932.487L431.069 932.487C440.034 932.411 449.444 932.469 458.388 932.256C464.914 932.101 471.762 931.731 478.186 930.058C482.176 929.019 486.635 928.761 490.694 928.368C493.785 928.068 496.873 927.795 499.963 927.477C501.657 927.303 503.041 927.142 501.808 924.943C498.183 918.482 494.932 910.011 492.286 902.723C488.593 892.552 484.108 882.509 479.999 872.687C477.12 865.807 475.234 857.87 472.976 850.568C470.295 841.896 467.717 832.835 465.256 824.027C462.935 815.722 460.06 807.473 457.151 799.601C454.647 792.825 452.468 785.673 449.227 779.521C442.524 766.793 438.096 751.963 431.082 739.46C425.35 729.242 418.274 719.287 410.828 711.522C398.456 698.619 381.69 684.749 366.473 696.543C360.581 701.11 357.198 711.133 356.623 720.389C355.623 736.455 357.591 752.31 362.672 766.685C365.149 773.693 367.26 780.835 369.6 787.871C373.596 799.885 375.757 812.79 379.935 824.748C384.95 839.1 388.197 854.552 393.004 869.035Z" fill="#D3DFD0"/>
<path d="M301.292 869.333C308.443 885.009 312.906 901.541 315.915 918.481L315.915 918.56C315.915 920.132 315.916 926.376 314.818 927.255C312.917 928.776 313.364 932.5 315.183 933.267C328.383 933.104 341.903 933.104 354.365 933.104L354.37 933.104C367.049 933.104 380.357 933.242 393.009 933.104C402.241 933.004 411.931 932.692 421.036 931.073C426.691 930.068 433 929.848 438.745 929.489C443.121 929.216 447.492 928.968 451.865 928.677C454.264 928.517 456.224 928.367 454.506 926.158C449.457 919.667 444.959 911.169 441.304 903.859C436.203 893.656 429.98 883.576 424.285 873.72C420.296 866.816 417.724 858.863 414.618 851.542C410.929 842.847 407.392 833.766 404.016 824.937C400.834 816.612 396.866 808.339 392.846 800.443C389.386 793.646 386.388 786.476 381.879 780.297C372.551 767.513 366.466 752.645 356.696 740.084C348.711 729.818 338.821 719.804 328.385 711.976C311.041 698.968 287.494 684.958 265.832 696.622C257.444 701.139 252.54 711.134 251.615 720.384C250.009 736.441 252.603 752.312 259.617 766.73C263.036 773.758 265.937 780.918 269.162 787.974C274.67 800.021 277.572 812.943 283.338 824.937C290.259 839.331 294.667 854.809 301.292 869.333Z" fill="#B1C9AB"/>
<path d="M329.451 919.237C326.443 902.297 321.979 885.765 314.828 870.089C308.203 855.565 303.795 840.087 296.875 825.692C291.109 813.699 288.206 800.777 282.699 788.729C279.473 781.674 276.572 774.514 273.153 767.486C266.139 753.068 263.546 737.197 265.151 721.14C266.076 711.89 270.98 701.895 279.368 697.378C301.031 685.713 324.577 699.724 341.921 712.732C352.358 720.56 362.247 730.574 370.232 740.84C380.002 753.401 386.087 768.269 395.415 781.052C399.925 787.232 402.922 794.402 406.382 801.199C410.402 809.095 414.37 817.368 417.553 825.692C420.928 834.521 424.466 843.603 428.154 852.298C431.26 859.619 433.832 867.572 437.821 874.475C443.516 884.332 449.739 894.412 454.841 904.615C458.496 911.924 462.993 920.423 468.042 926.914C469.76 929.123 467.8 929.273 465.401 929.433C461.028 929.724 456.657 929.971 452.282 930.245C446.536 930.604 440.227 930.824 434.572 931.829C425.467 933.448 415.777 933.76 406.545 933.86C393.893 933.997 380.585 933.86 367.906 933.86C355.443 933.86 341.921 933.86 328.72 934.022C326.9 933.256 326.453 929.532 328.354 928.011C329.472 927.117 328.72 922.129 328.72 920.7" stroke="#619482" stroke-width="4" stroke-linecap="round" stroke-linejoin="round"/>
<path d="M382.244 925.236C380.733 916.343 374.692 909.108 369.893 901.719C364.654 893.653 358.517 886.265 353.045 878.36C350.464 874.632 347.499 871.366 344.601 867.904C341.574 864.289 338.859 860.386 335.525 857.053C334.232 855.76 330.466 851.822 331.481 853.344C332.051 854.199 333.217 854.548 333.947 855.278" stroke="#619482" stroke-width="4" stroke-linecap="round" stroke-linejoin="round"/>
<path d="M366.464 894.19C366.464 875.875 362.836 858.44 356.367 841.256C352.356 830.604 349.186 819.573 344.878 809.044C343 804.454 340.513 800.143 338.703 795.526C336.7 790.414 334.926 785.212 332.806 780.143C328.998 771.041 323.611 762.56 318.397 754.218C314.062 747.282 309.873 740.193 304.851 733.718C303.816 732.383 293.687 717.533 291.86 718.446" stroke="#619482" stroke-width="4" stroke-linecap="round" stroke-linejoin="round"/>
<path d="M299.372 763.508C306.474 765.087 311.798 770.943 318.899 772.521C320.693 772.92 331.241 778.384 332.029 776.415C334.955 769.099 339.256 762.257 342.432 754.997C343.835 751.789 345.444 748.687 346.549 745.372C347.039 743.9 347.793 742.537 348.329 741.088C348.735 739.992 349.246 739.497 347.94 740.476" stroke="#619482" stroke-width="4" stroke-linecap="round" stroke-linejoin="round"/>
<path d="M311.388 803.564C317.103 803.564 322.09 803.474 327.383 805.789C331.512 807.596 335.668 808.921 339.705 811.075C344.146 813.443 349.181 817.565 351.444 822.09" stroke="#619482" stroke-width="4" stroke-linecap="round" stroke-linejoin="round"/>
<path d="M356.952 842.62C356.952 836.908 356.12 830.278 357.203 824.651C358.609 817.34 362.854 810.222 367.467 804.456C370.432 800.75 372.843 797.189 376.201 793.83C376.792 793.239 380.801 789.836 378.983 791.048" stroke="#619482" stroke-width="4" stroke-linecap="round" stroke-linejoin="round"/>
<path d="M367.969 882.174C372.148 877.876 377.021 873.447 380.681 868.711C381.939 867.082 383.287 865.354 384.742 863.898C386.279 862.362 386.946 860.352 388.386 858.752C391.135 855.698 393.594 851.286 395.006 847.403C395.241 846.758 398.058 842.094 397.009 842.619" stroke="#619482" stroke-width="4" stroke-linecap="round" stroke-linejoin="round"/>
<path d="M396.67 929.882C396.67 919.563 401.13 908.641 407.296 900.341C408.982 898.072 410.957 895.567 412.943 893.581C414.432 892.092 415.677 890 417.7 889.326" stroke="#619482" stroke-width="4" stroke-linecap="round" stroke-linejoin="round"/>
<path d="M519.221 931.817C519.221 916.858 518.514 902.318 521.719 887.669C523.562 879.24 526.736 871.162 528.647 862.776C530.508 854.608 533.455 845.812 533.722 837.4C534.219 821.745 536.589 804.754 532.594 789.345C529.342 776.801 528.285 763.155 529.412 750.193C530.351 739.395 538.148 730.897 547.498 726.468C553.986 723.395 564.37 719.88 571.424 723.407C593.338 734.364 609.048 752.95 615.33 776.899C618.419 788.679 616.137 801.409 618.19 813.312C620.889 828.97 620.002 845.469 620.002 861.326C620.002 871.544 620.002 881.762 620.002 891.979C620.002 898.3 618.552 904.447 618.552 910.79C618.552 914.174 618.552 917.557 618.552 920.941C618.552 924.204 618.552 927.466 618.552 930.729C618.552 933.881 613.421 932.542 610.939 932.542C603.089 932.542 595.611 931.091 587.778 931.091C578.715 931.091 569.652 931.091 560.589 931.091C551.989 931.091 543.778 932.542 535.172 932.542C531.092 932.542 521.958 930.958 518.496 933.267" stroke="#619482" stroke-width="4" stroke-linecap="round" stroke-linejoin="round"/>
<path d="M569.85 927.351C569.85 918.158 569.404 908.86 570.42 899.717C571.383 891.051 572.459 882.263 573.116 873.56C574.451 855.867 579.182 838.108 579.182 820.34C579.182 811.766 579.339 803.202 577.782 794.728C576.199 786.107 572.797 777.682 570.55 769.194C568.363 760.931 563.728 754.152 559.118 747.237" stroke="#619482" stroke-width="4" stroke-linecap="round" stroke-linejoin="round"/>
<path d="M546.986 767.768C553.753 771.766 561.158 774.569 567.051 779.926C569.758 782.386 572.719 784.209 575.217 786.899C576.225 787.985 577.461 790.004 578.716 790.632" stroke="#619482" stroke-width="4" stroke-linecap="round" stroke-linejoin="round"/>
<path d="M578.252 791.565C578.252 787.055 578.252 782.544 578.252 778.034C578.252 773.258 579.765 768.05 580.585 763.335C581.157 760.046 582.687 756.435 582.918 753.199C583.009 751.925 583.683 748.254 584.785 747.704" stroke="#619482" stroke-width="4" stroke-linecap="round" stroke-linejoin="round"/>
<path d="M554.451 813.963C556.551 816.516 558.89 819.689 561.554 821.636C562.809 822.553 564.876 824.93 565.624 826.302C567.324 829.419 570.495 831.655 572.157 834.701C573.058 836.354 574.711 838.943 576.149 840.093C576.99 840.766 576.849 841.916 576.849 840.093C576.849 838.585 577.439 837.244 578.041 835.868C579.291 833.012 581.239 830.464 582.915 827.857C584.818 824.897 587.639 821.528 588.877 818.266C590.238 814.677 593.26 811.183 595.876 808.467C597.709 806.563 598.666 803.987 601.113 802.764" stroke="#619482" stroke-width="4" stroke-linecap="round" stroke-linejoin="round"/>
<path d="M548.387 862.024C552.214 867.297 556.685 871.996 560.882 876.955C562.775 879.192 564.782 881.729 567.156 883.488C568.536 884.511 569.371 886.441 570.785 887.325C571.154 887.556 571.615 888.23 571.822 888.621C572.409 889.73 572.234 888.572 572.91 887.895C578.431 882.374 585.315 878.29 590.849 872.756C592.403 871.202 594.477 869.7 596.215 868.349C596.929 867.794 598.381 866.69 599.248 866.69" stroke="#619482" stroke-width="4" stroke-linecap="round" stroke-linejoin="round"/>
<path d="M539.521 914.752C543.563 915.021 547.593 917.951 551.186 919.781C554.076 921.253 556.897 922.466 560.052 923.255C561.633 923.65 563.231 924.895 564.822 925.017C567.038 925.188 566.213 925.061 568.01 923.825C574.775 919.174 581.264 915.453 588.749 912.16C593.061 910.262 598.598 909.43 602.514 906.819" stroke="#619482" stroke-width="4" stroke-linecap="round" stroke-linejoin="round"/>
<path d="M58.6831 68.3701C32.5727 65.8658 14.6688 72.0861 -7.34628 80.6773L-12.6613 594.799C-12.6613 594.799 9.16257 613.293 26.3565 616.005C48.7173 619.532 66.7606 621.858 77.0792 612.103C85.4174 604.221 66.9188 604.097 59.5211 600.398C52.1234 596.699 41.11 587.632 32.2091 582.84C20.1307 576.338 13.6065 564.175 4.89697 553.577C-1.12842 546.246 -0.979126 538.828 -4.85739 530.167C-9.04663 520.811 -5.5881 515.164 -5.5881 504.398C-5.5881 484.757 -7.34628 466.05 -7.34628 446.379V406.917C-7.34628 401.796 -5.95746 398.166 -3.43921 393.633C-1.00311 389.248 3.46906 395.302 7.59824 397.15C25.2926 405.069 26.6237 420.719 37.5849 436.709C50.3022 455.259 54.5307 467.544 67.474 485.938C74.165 495.446 77.7865 500.926 85.4465 509.673C93.5145 518.886 97.0015 525.902 107.814 531.65C125.095 540.838 143.076 544.076 157.923 532.529C172.657 521.07 182.104 511.53 194.131 497.255C201.387 488.643 202.909 485.016 208.91 475.486C213.384 468.381 215.453 464.115 219.068 456.537C221.259 451.944 215.575 455.847 217.542 452.132C219.578 448.285 216.365 449.785 213.64 446.379C209.429 441.115 201.134 444.292 192.18 440.427C170.068 430.881 157.226 428.963 137.556 415.065C131.401 410.717 126.045 407.858 119.998 403.36C114.624 399.363 113.528 393.881 108.293 389.704C98.9928 382.284 96.9311 381.07 88.7841 372.4C84.2929 367.62 80.6751 362.847 77.0789 359.251C72.6299 354.802 73.9613 347.477 69.6229 342.883C66.2197 339.28 65.8242 318.855 69.6229 310.608C71.2257 307.128 71.9875 304.544 75.2881 302.599C79.1352 300.331 82.2563 301.984 86.7163 302.208C97.8798 302.768 104.004 305.422 114.359 309.631C141.657 320.729 155.069 343.114 171.207 359.251C184.051 372.095 213.905 387.741 229.247 372.4C243.619 358.027 237.041 339.17 237.041 319.79V293.417C237.041 283.984 240.557 273.99 240.557 264.407C240.557 245.981 243.845 234.324 252.473 218.792C257.713 209.361 261.905 199.785 267.711 190.661C272.527 183.093 278.309 183.233 281.92 175.108C283.357 171.876 280.489 168.931 276.067 163.403C272.002 158.321 242.864 157.551 237.041 157.551C218.928 157.551 209.667 152.526 194.131 143.894C179.833 135.951 177.032 138.6 159.015 141.944C139.212 145.619 137.296 144.507 121.949 157.551C108.607 168.89 106.563 178.086 92.6857 188.765C86.5715 193.469 72.7307 211.804 65.3735 214.126C56.5703 216.904 45.7222 210.681 37.5849 206.322C29.0307 201.74 31.2672 183.416 29.5755 173.861C28.7974 169.466 29.5755 166.242 29.5755 162.433C29.5755 158.623 31.4403 155.372 33.0918 151.004C39.5442 133.94 50.637 121.012 59.8552 112.715C65.56 107.581 70.8119 101.575 78.8045 95.6219C85.0079 91.0011 90.2774 89.0427 95.5072 84.9751C97.7729 83.2129 106.283 81.8023 100.782 80.5797C97.8012 79.9173 93.9242 77.1675 89.3535 75.4028C77.8899 70.9767 70.9154 69.5433 58.6831 68.3701Z" fill="#B7C2B4"/>
<path d="M278.019 169.256C217.542 241.438 65.3737 286.308 -20.4646 307.768" stroke="#4A5759" stroke-width="4"/>
<path d="M-7.34629 96.2848C14.6688 87.6935 32.5727 81.4732 58.6831 83.9775C70.9154 85.1507 77.8899 86.5842 89.3536 91.0102C93.9242 92.7749 97.8012 95.5248 100.782 96.1871C106.284 97.4097 97.7729 98.8203 95.5072 100.583C90.2775 104.65 85.008 106.609 78.8045 111.229C70.812 117.183 65.56 123.188 59.8552 128.323C50.637 136.619 39.5442 149.547 33.0918 166.612C31.4404 170.98 29.5755 174.231 29.5755 178.04C29.5755 181.849 28.7974 185.074 29.5755 189.468C31.2673 199.024 34.3052 205.887 42.8595 210.469C50.9968 214.828 57.694 213.344 66.4972 210.566C73.8544 208.245 77.0857 204.722 83.1999 200.017C97.077 189.339 98.8679 177.17 112.21 165.83C127.557 152.787 137.24 144.012 157.043 140.337C175.06 136.993 189.338 137.961 203.635 145.904C219.171 154.535 236.509 161.337 254.622 161.337C260.446 161.337 273.413 158.893 277.479 163.975C281.901 169.502 284.572 177.024 281.386 184.194C277.775 192.318 272.527 198.7 267.711 206.269C261.905 215.392 257.713 224.968 252.473 234.399C243.845 249.931 243.712 261.875 240.557 280.014C238.601 291.258 237.693 297.631 237.041 309.024C236.452 319.307 237.041 326.606 237.041 335.397C237.041 354.777 243.619 373.635 229.247 388.007C213.905 403.349 184.051 387.702 171.207 374.858C155.069 358.721 141.657 336.336 114.359 325.239C104.004 321.029 97.8798 318.375 86.7163 317.815C82.2563 317.592 79.1352 315.939 75.2881 318.206C71.9875 320.151 71.2257 322.736 69.6229 326.215C65.8243 334.462 66.6104 345.859 70.0136 349.462C74.352 354.056 76.9928 359.958 81.4418 364.407C85.0379 368.003 88.3786 371.934 92.8699 376.714C101.017 385.385 104.668 391.271 113.968 398.691C119.203 402.868 122.757 404.365 128.131 408.361C134.178 412.859 136.921 416.222 143.076 420.571C162.746 434.469 178.007 434.468 200.119 444.013C209.073 447.879 218.764 448.81 222.975 454.074C225.7 457.48 226.379 456.381 224.343 460.228C222.376 463.942 221.259 467.551 219.068 472.144C215.453 479.722 213.384 483.988 208.91 491.094C202.909 500.623 201.387 504.251 194.131 512.863C182.104 527.138 172.657 536.677 157.923 548.137C143.076 559.684 125.095 556.445 107.814 547.258C97.0015 541.509 93.5145 534.493 85.4465 525.28C77.7865 516.534 74.165 511.053 67.474 501.545C54.5307 483.151 50.3022 470.866 37.585 452.316C26.6237 436.327 25.2926 420.676 7.59825 412.757C3.46907 410.909 -1.0031 404.856 -3.43922 409.241C-5.95746 413.773 -7.34629 417.403 -7.34629 422.525C-7.34629 435.678 -7.34629 448.832 -7.34629 461.986C-7.34629 481.657 -5.5881 500.364 -5.5881 520.006C-5.5881 530.772 -3.52603 536.144 0.66322 545.499C4.54148 554.161 8.11719 558.387 14.1426 565.718C22.8522 576.316 28.0461 582.854 40.1246 589.356C49.0255 594.148 60.0763 600.855 67.474 604.554C74.8717 608.252 93.7847 612.278 85.4465 620.161C75.1279 629.915 50.6678 631.491 28.307 627.964C11.1131 625.252 -12.6613 610.406 -12.6613 610.406" stroke="#4A5759" stroke-width="4" stroke-linecap="round" stroke-linejoin="round"/>
<path d="M2484.86 940.13C2481.33 941.877 2472.68 944.739 2470.79 948.245C2475.88 950.428 2480.19 951.221 2485.77 951.019C2491.51 950.811 2497.94 950.478 2503.2 947.992C2507.86 945.789 2513.45 943.316 2516.75 939.201C2518.64 936.851 2520.12 937.434 2521.16 934.554C2521.45 933.76 2513.01 933.257 2512.03 933.39C2504.92 934.358 2499.98 934.749 2492.93 936.211C2489.74 936.871 2487.71 938.714 2484.86 940.13Z" fill="#CB906D"/>
<path d="M2472.17 910.797C2468.73 912.522 2468.35 913.288 2466.1 912.105L2464.78 915.189C2471.68 918.146 2478.99 916.954 2486.04 914.922C2494.03 912.62 2504.06 908.652 2505.67 899.407C2505.98 897.623 2505.8 897.607 2503.01 898.723C2500.77 899.619 2499.45 900.215 2497.08 900.835C2491.69 902.247 2486.76 903.388 2481.47 905.151C2478.21 906.239 2475.21 909.274 2472.17 910.797Z" fill="#CB906D"/>
<path d="M2426.66 927.069C2437.03 920.368 2448.42 911.625 2460.05 913.858C2458.4 915.707 2456.64 917.25 2454.97 919.083C2452.16 922.167 2448.43 923.714 2445.33 926.434C2441.2 930.055 2435.48 931.967 2430.72 934.598C2425.59 937.433 2420.21 937.933 2414.47 938.631C2412.09 938.92 2413.43 942.042 2411.05 941.018C2410.27 940.686 2412.34 937.712 2412.54 937.53C2417.18 933.268 2421.37 930.485 2426.66 927.069Z" fill="#CB906D"/>
<path d="M2478.49 873.597C2471.77 878.26 2464.7 880.072 2458.09 885.854L2459.74 891.582C2461.64 891.471 2464.08 890.688 2465.98 890.047C2468.23 889.285 2471.15 889.427 2473.25 888.347C2475.15 887.373 2477.18 886.529 2479.16 885.735C2484.77 883.493 2491.23 881.794 2495.22 876.901C2498.04 873.434 2500.06 867.088 2499.86 862.693C2499.8 861.163 2499.81 862.027 2499.51 860.699C2499.29 859.722 2498.91 861.266 2498.75 861.641C2497.9 863.625 2497.67 865.121 2495.6 865.793C2492.94 866.653 2489.8 867.889 2487.29 869.113C2484.05 870.694 2481.43 871.551 2478.49 873.597Z" fill="#CB906D"/>
<path d="M2433.81 884.718C2440.51 885.427 2446.9 886.348 2453.06 888.989C2448.04 889.284 2443.5 894.299 2438.47 895.305C2431.99 896.6 2425.53 897.251 2418.97 897.368C2414.52 897.447 2411 895.597 2406.94 893.857C2406.9 893.839 2406.86 893.822 2406.82 893.808C2406.75 893.876 2406.68 893.939 2406.62 893.998C2407.1 894.526 2408.43 895.581 2407.23 895.067C2406.31 894.67 2406.15 894.478 2406.62 893.998C2406.4 893.756 2406.36 893.625 2406.82 893.808C2406.89 893.749 2406.96 893.685 2407.04 893.617C2409.95 891.16 2411.19 888.947 2414.71 887.539C2418 886.222 2421.89 885.946 2425.34 885.215C2428.92 884.456 2430.19 884.337 2433.81 884.718Z" fill="#CB906D"/>
<path d="M2454.57 842.699C2452.19 846.148 2449.06 849.741 2447.42 853.573L2449.46 859.466C2452.05 858.986 2454.42 857.83 2456.92 857.19C2458.59 856.763 2459.76 855.414 2461.44 854.921C2462.97 854.477 2465.01 853.319 2466.35 852.462C2474.51 847.236 2481.22 839.585 2483.48 829.891C2484.61 825.065 2482.64 825.969 2481.65 821.278C2481.11 818.746 2474.63 823.745 2473.34 824.598C2468.3 827.947 2465.07 831.184 2461.55 836.057C2459.58 838.786 2456.49 839.923 2454.57 842.699Z" fill="#CB906D"/>
<path d="M2433.31 847.347C2439.51 852.625 2437.1 856.648 2443.78 861.466C2437.27 864.066 2439.44 866.557 2432.33 866.974C2428.22 867.215 2421.88 864.657 2418.6 862.206C2416.3 860.484 2414.08 858.412 2412.26 856.19C2410.73 854.329 2408.4 851.677 2407.72 849.327C2407.05 847.001 2406.53 844.719 2405.89 842.378C2405.07 839.413 2405.29 836.03 2404.27 833.194C2402.76 828.955 2410.45 834.794 2412.22 835.552C2419.83 838.814 2427.01 841.98 2433.31 847.347Z" fill="#CB906D"/>
<path d="M2432.64 820.342C2434.49 816.039 2438.71 810.67 2441.13 806.656C2443.32 803.015 2446.91 802.561 2449.76 799.349C2452.42 796.363 2453.92 793.707 2457.24 791.544C2457.7 791.245 2458.03 790.931 2458.28 790.626C2458.31 790.296 2458.34 789.966 2458.36 789.637C2458.46 787.93 2459.44 789.167 2458.28 790.626C2457.47 799.011 2452.76 807.824 2446.04 812.75C2441.95 815.746 2438.04 820.025 2432.64 820.342Z" fill="#CB906D"/>
<path d="M2420.27 813.312C2422.69 816.428 2425.34 819.655 2428.17 822.466C2422.27 822.709 2415.94 821.633 2410.01 820.552C2407.27 820.051 2404.49 818.387 2401.93 817.29C2399.76 816.359 2397.13 815.642 2395.37 814.021C2392.07 810.97 2390.18 806.75 2387.65 802.995C2386 800.555 2388.57 802.886 2387.48 800.171C2387.16 799.374 2385.68 797.765 2387.36 798.216C2388.78 798.599 2390.25 798.112 2391.7 798.734L2397.69 801.305C2405.18 804.515 2407.74 803.652 2414.79 807.746C2417.33 809.219 2418.54 811.088 2420.27 813.312Z" fill="#CB906D"/>
<path d="M2429.04 800.574C2428.25 805.128 2429.79 804.853 2428.3 808.641C2427.86 807.923 2427.4 806.801 2427.11 806.135C2426.55 804.853 2425.54 803.805 2425.02 802.5C2423.49 798.69 2421.06 795.237 2418.91 791.669C2415.81 786.525 2413.39 781.832 2411.57 776.091C2410.16 771.69 2408.5 769.793 2408.65 765.158C2408.67 764.501 2408.11 761.345 2408.41 760.976C2408.84 760.447 2412.73 762.575 2413.3 762.819C2414.34 763.263 2417.43 767.234 2420.88 770.405C2424.69 774.656 2429.48 781.694 2429.53 787.779C2429.57 792.043 2429.78 796.344 2429.04 800.574Z" fill="#CB906D"/>
<path d="M2430.47 814.474C2436.15 825.369 2437.5 837.947 2443.08 848.574C2444.55 851.363 2444.81 854.785 2445.84 857.751C2446.97 861.014 2448.94 864.09 2449.68 867.447C2451.12 874.063 2454.43 880.254 2456.36 886.723C2459.93 898.708 2464.79 910.449 2467.63 922.602C2469.29 929.683 2470.39 936.974 2471.78 944.136C2473.13 951.075 2475.61 957.554 2476.38 964.611C2479.26 990.778 2477.64 1017.62 2474.76 1043.73C2472.79 1061.66 2474.84 1081.84 2467.67 1098.54" stroke="#C4631F" stroke-width="4" stroke-linecap="round" stroke-linejoin="round"/>
<path d="M2430.29 813.381C2432.2 808.917 2433.55 804.897 2434.38 800.103C2435.12 795.873 2434.91 791.572 2434.87 787.309C2434.82 781.224 2429.21 773.507 2424.9 769.544C2421.45 766.372 2418.79 764.187 2414.52 762.356C2413.95 762.112 2410.06 759.984 2409.63 760.513C2409.33 760.882 2409.88 764.038 2409.86 764.696C2409.71 769.33 2411.26 774.755 2412.66 779.155C2414.49 784.897 2418.06 790.631 2421.15 795.776C2423.3 799.343 2425.73 802.797 2427.26 806.607C2427.78 807.912 2428.8 808.96 2429.35 810.242C2429.7 811.057 2430.33 812.556 2430.84 813.161" stroke="#C4631F" stroke-width="4" stroke-linecap="round" stroke-linejoin="round"/>
<path d="M2433.81 822.194C2435.66 817.89 2437.31 813.481 2439.72 809.467C2441.92 805.825 2446.27 802.993 2449.12 799.782C2451.78 796.796 2454.9 793.979 2458.22 791.816C2460.87 790.085 2460.2 792.398 2460.07 794.463C2459.56 803.136 2454.75 812.455 2447.76 817.576C2443.66 820.572 2439.76 824.851 2434.36 825.167" stroke="#C4631F" stroke-width="4" stroke-linecap="round" stroke-linejoin="round"/>
<path d="M2433.75 827.644C2430.51 824.6 2427.49 820.94 2424.75 817.421C2423.02 815.197 2421.82 813.328 2419.28 811.855C2412.22 807.761 2404.95 804.341 2397.46 801.131C2395.46 800.274 2393.46 799.418 2391.46 798.561C2390.01 797.939 2388.54 798.426 2387.12 798.043C2385.45 797.592 2386.93 799.201 2387.25 799.998C2388.33 802.713 2389.27 805.495 2390.92 807.935C2393.45 811.69 2396.55 815.079 2399.86 818.13C2401.61 819.751 2404.25 820.468 2406.42 821.399C2408.98 822.496 2411.75 824.161 2414.5 824.661C2420.65 825.783 2427.23 826.9 2433.31 826.542" stroke="#C4631F" stroke-width="4" stroke-linecap="round" stroke-linejoin="round"/>
<path d="M2447.08 859.367C2448.72 855.536 2450.02 850.854 2452.41 847.405C2454.33 844.628 2456.54 842.052 2458.51 839.323C2462.03 834.45 2466.22 829.731 2471.26 826.383C2472.54 825.529 2481.61 819.747 2482.14 822.278C2483.14 826.97 2484.27 830.86 2483.14 835.685C2480.88 845.38 2474.17 853.03 2466.01 858.256C2464.67 859.114 2462.62 860.271 2461.1 860.715C2459.41 861.208 2458.25 862.557 2456.58 862.985C2454.08 863.625 2451.71 864.78 2449.11 865.26" stroke="#C4631F" stroke-width="4" stroke-linecap="round" stroke-linejoin="round"/>
<path d="M2458.09 890.097C2461.74 882.392 2470.56 878.802 2477.28 874.138C2480.22 872.093 2484.12 870.712 2487.36 869.131C2489.87 867.906 2492.54 867.163 2495.19 866.302C2497.26 865.63 2498.82 864.276 2499.67 862.292C2499.83 861.917 2500.21 860.373 2500.43 861.35C2500.73 862.678 2499.79 865.406 2499.86 866.936C2500.05 871.331 2498.04 877.677 2495.21 881.144C2491.23 886.037 2484.76 887.736 2479.16 889.978C2477.17 890.772 2475.14 891.616 2473.24 892.59C2471.14 893.67 2468.23 893.528 2465.97 894.29C2464.08 894.931 2461.63 895.714 2459.74 895.825" stroke="#C4631F" stroke-width="4" stroke-linecap="round" stroke-linejoin="round"/>
<path d="M2446.75 863.332C2440.07 858.514 2435.94 851.633 2429.74 846.355C2423.43 840.988 2415.23 836.584 2407.62 833.322C2405.85 832.564 2397.29 829.11 2398.81 833.348C2399.82 836.185 2399.6 839.567 2400.42 842.533C2401.07 844.873 2401.59 847.156 2402.26 849.481C2402.94 851.832 2405.27 854.484 2406.8 856.345C2408.62 858.566 2410.84 860.638 2413.14 862.36C2416.42 864.812 2422.76 867.37 2426.86 867.129C2433.98 866.712 2439.42 864.665 2445.92 862.065" stroke="#C4631F" stroke-width="4" stroke-linecap="round" stroke-linejoin="round"/>
<path d="M2457.48 892.577C2451.32 889.935 2445.19 886.509 2438.48 885.8C2434.87 885.419 2431.28 884.881 2427.7 885.64C2424.26 886.37 2420.46 886.297 2417.17 887.615C2413.65 889.022 2409.2 890.535 2406.3 892.992C2405.37 893.775 2405.35 893.954 2406.49 894.442C2408.28 895.21 2409.59 896.684 2411.36 897.444C2415.42 899.184 2418.94 901.034 2423.39 900.955C2429.95 900.838 2436.41 900.187 2442.88 898.892C2447.92 897.887 2452.13 893.642 2457.15 893.348" stroke="#C4631F" stroke-width="4" stroke-linecap="round" stroke-linejoin="round"/>
<path d="M2467.12 915.873C2468.74 912.259 2470.32 911.676 2473.76 909.951C2476.8 908.428 2479.42 906.725 2482.68 905.638C2487.98 903.875 2493.03 901.502 2498.42 900.09C2500.79 899.47 2503.05 899.623 2505.29 898.727C2508.08 897.611 2506.99 901.391 2506.68 903.175C2505.07 912.42 2495.04 916.388 2487.05 918.69C2480 920.722 2472.69 921.914 2465.79 918.957" stroke="#C4631F" stroke-width="4" stroke-linecap="round" stroke-linejoin="round"/>
<path d="M2464.53 916.587C2451.91 911.177 2437.56 920.344 2427.19 927.045C2421.9 930.461 2417.1 934.242 2412.46 938.504C2412.27 938.686 2409.48 941.308 2410.26 941.64C2412.65 942.664 2416.57 941.649 2418.95 941.359C2424.69 940.661 2430.07 940.161 2435.2 937.326C2439.96 934.695 2445.67 932.783 2449.81 929.162C2452.91 926.442 2456.64 924.896 2459.45 921.812C2461.12 919.979 2463.27 918.601 2464.91 916.752" stroke="#C4631F" stroke-width="4" stroke-linecap="round" stroke-linejoin="round"/>
<path d="M2472.45 949.191C2474.34 945.686 2479.67 943.45 2483.19 941.703C2486.05 940.287 2488.71 938.564 2491.89 937.904C2498.95 936.442 2505.87 935.235 2512.97 934.266C2513.95 934.133 2522.86 934.746 2522.57 935.54C2521.53 938.42 2520.08 940.441 2518.19 942.791C2514.89 946.906 2509.3 949.379 2504.64 951.582C2499.38 954.068 2492.95 954.401 2487.22 954.609C2481.63 954.811 2477.33 954.018 2472.23 951.835" stroke="#C4631F" stroke-width="4" stroke-linecap="round" stroke-linejoin="round"/>
<g opacity="0.2">
<path d="M2491.72 889.978C2503.09 893.383 2509.65 900.623 2517.06 909.018C2516 908.913 2514.86 908.934 2513.88 908.846C2510.13 906.67 2507.28 905.273 2503.3 904.22C2497.74 902.744 2491.7 901.234 2487.42 897.059C2483.48 893.217 2479.98 891.187 2476.35 887.082C2475.8 886.454 2474 885.179 2475.36 884.818C2476.46 884.525 2477.52 884.444 2478.65 884.545C2483.26 884.956 2487.29 888.65 2491.72 889.978Z" fill="#CB906D"/>
<path d="M2530.59 921.542C2528.17 918.8 2524.77 916.967 2521.5 915.079C2521.53 916.09 2521.37 917.537 2521.34 918.347C2521.28 920.034 2521.8 921.511 2522.05 923.155C2522.91 928.74 2525.51 934.209 2527.95 939.255C2530.25 944.021 2534.19 948.844 2538.91 951.381C2540.47 952.219 2541.96 953.306 2543.64 953.877C2543.85 953.95 2538.89 948.746 2542.47 949.493C2543.33 944.921 2543.4 943.428 2542.16 938.782C2540.12 931.116 2535.73 927.36 2530.59 921.542Z" fill="#CB906D"/>
<path d="M2559.86 888.365C2554.24 882.69 2548.41 879.094 2541.22 875.546C2540.56 877.175 2541.37 875.732 2541.22 877.547C2541.05 879.662 2540.29 881.33 2540.7 883.558C2541.11 885.844 2541.29 888.2 2542.09 890.403C2544.45 896.93 2549.31 901.761 2554.57 906.122C2559.15 909.913 2563.78 911.105 2569.2 912.773C2570.02 913.026 2577.93 915.288 2577.67 914.739C2577.28 913.913 2577.18 912.707 2576.88 911.774C2576.24 909.736 2575.14 908.713 2574.28 906.753C2572.77 903.33 2569.46 901.301 2567.01 898.527C2564.28 895.434 2562.76 891.288 2559.86 888.365Z" fill="#CB906D"/>
<path d="M2538.46 870.354L2538.61 870.522C2537.73 870.167 2537.98 870.335 2536.93 870.27C2534.83 870.14 2532.6 870.205 2530.54 869.741C2526.55 868.841 2522.56 867.915 2518.51 867.254C2512.6 866.292 2506.25 863.379 2501.09 860.43C2497.02 858.098 2495.17 857.932 2492.1 854.462C2491.17 853.406 2493.22 853.387 2494 853.18C2495.62 852.749 2497.15 852.059 2498.82 851.811C2503.53 851.112 2506.85 853.461 2511.43 854.259C2518.33 855.461 2523.59 858.424 2529.41 862.176C2533.67 864.925 2535.15 866.601 2538.46 870.354Z" fill="#CB906D"/>
<path d="M2553.72 844.851C2557.92 845.608 2562.23 846.291 2566.27 847.638C2569.81 848.814 2573.23 850.251 2576.72 851.501C2579.78 852.59 2582.96 853.8 2585.72 855.496C2588.25 857.05 2590.75 859.03 2593.5 860.176C2595.64 861.069 2598.16 862.325 2600.71 863.345C2600.71 863.345 2600.71 863.344 2600.71 863.344C2601.78 863.013 2602.56 863.529 2603.25 864.259C2604.64 864.696 2606.01 865.004 2607.3 865.084C2609.7 865.233 2608.78 866.063 2607.18 866.699C2605.39 867.412 2604.44 865.518 2603.25 864.259C2602.41 863.994 2601.56 863.682 2600.71 863.345C2595.29 865.025 2589.41 864.207 2583.83 864.264C2576.8 864.336 2569.92 861.854 2563.9 858.549C2560.6 856.738 2557.76 854.166 2555.28 851.361C2554.8 850.815 2553.94 849.271 2553.9 848.537C2553.89 848.286 2553.02 846.521 2553.35 846.895L2553.72 844.851Z" fill="#CB906D"/>
<path d="M2600.06 819.895C2589.35 815.974 2577.07 814.584 2570.47 811.259C2571.87 814.563 2571.4 815.722 2573.8 818.439C2576 820.93 2579.7 822.383 2582.85 823.093C2587.46 824.133 2591.86 826.184 2596.54 827.037C2602.81 828.18 2609.33 829.28 2615.67 828.415C2617.91 828.109 2618.09 831.707 2620.29 831.251C2621.31 831.04 2620.41 830.491 2619.86 829.869C2617.5 827.2 2614.8 826.1 2611.87 824.113C2608.33 821.717 2604.1 821.372 2600.06 819.895Z" fill="#CB906D"/>
<path d="M2535.26 811.481C2542.63 811.429 2551.51 811.146 2557.79 815.555C2552.07 820.608 2546.24 826.071 2538.72 828.249C2532.38 830.085 2526.08 831.867 2519.45 832.147C2516.17 832.286 2512.47 831.471 2509.23 830.978C2508.49 830.866 2508.03 830.809 2507.75 830.782C2507.04 830.715 2507.59 830.857 2507.75 830.782C2507.9 830.716 2507.75 830.48 2506.14 829.775C2503.5 828.608 2500.19 826.39 2497.37 825.808C2497.31 825.796 2497.97 825.217 2498.1 825.108C2499.21 824.124 2500.29 823.074 2501.57 822.317C2507.65 818.746 2506.87 816.77 2513.83 815.528C2521.52 814.154 2527.42 811.536 2535.26 811.481Z" fill="#CB906D"/>
<path d="M2594.67 781.382C2590.4 781.458 2580.59 780.246 2577.11 782.807C2581.09 787.312 2584.95 790.088 2590.51 792.482C2596.23 794.94 2602.69 797.597 2609 797.601C2614.59 797.605 2621.22 797.777 2626.37 795.274C2629.3 793.845 2630.49 795.107 2632.85 792.767C2633.5 792.121 2625.46 787.71 2624.43 787.386C2617.02 785.036 2611.99 783.126 2604.4 781.286C2600.97 780.455 2598.13 781.319 2594.67 781.382Z" fill="#CB906D"/>
<path d="M2576.14 782.45C2578.08 783.494 2575.48 783.778 2576.93 785.415C2575.76 786.447 2574.59 780.864 2573.25 781.606C2569.68 783.579 2564.91 784.097 2561.02 785.315C2557.13 786.532 2552.8 786.904 2548.75 787.295L2548.51 787.318C2544.17 787.738 2539.55 788.184 2535.2 787.914C2530.26 787.609 2525.29 787.222 2520.43 786.233C2518.93 787.145 2517.53 788.204 2516.33 789.354C2516.05 789.631 2519.19 785.973 2519.97 786.138C2520.13 786.171 2520.28 786.202 2520.43 786.233C2522.65 784.885 2525.1 783.858 2527.48 783.326C2534.26 781.814 2539.45 778.972 2546.3 777.687C2549.66 777.057 2553.58 777.42 2557.01 777.378C2559.94 778.1 2563.03 778.537 2565.67 778.886C2568.2 779.221 2573.87 781.232 2576.14 782.45Z" fill="#CB906D"/>
<path d="M2595.85 746.735C2591.67 746.829 2590.94 747.403 2589.29 745.201L2586.57 747.611C2591.95 753.712 2599.68 755.938 2607.53 757.217C2616.43 758.666 2628.11 759.435 2633.98 751.119C2635.11 749.514 2634.94 749.414 2631.68 749.212C2629.07 749.05 2627.5 749.025 2624.89 748.533C2618.95 747.414 2613.59 746.245 2607.59 745.517C2603.88 745.069 2599.53 746.651 2595.85 746.735Z" fill="#CB906D"/>
<path d="M2543.68 741.563C2556.96 739.808 2572.18 736.523 2582.54 744.109C2580.07 745.159 2577.62 745.851 2575.14 746.874C2570.95 748.595 2566.58 748.379 2562.27 749.605C2556.54 751.237 2550.06 750.461 2544.17 750.829C2537.82 751.227 2532.31 749.217 2526.36 747.238C2523.89 746.417 2523.76 750.103 2521.9 747.99C2521.29 747.305 2524.7 745.351 2524.98 745.265C2531.51 743.241 2536.91 742.457 2543.68 741.563Z" fill="#CB906D"/>
<path d="M2619.31 713.197C2610.56 714.653 2602.79 713.147 2593.62 715.748L2592.58 722.129C2594.49 722.9 2597.25 723.266 2599.41 723.519C2601.97 723.818 2604.76 725.309 2607.33 725.226C2609.64 725.152 2612.02 725.266 2614.33 725.409C2620.87 725.814 2628 727.15 2634.17 724.203C2638.55 722.114 2643.47 716.828 2645.32 712.431C2645.97 710.9 2645.58 711.754 2645.9 710.311C2646.14 709.251 2645.05 710.59 2644.72 710.883C2642.97 712.433 2642.04 713.79 2639.7 713.488C2636.7 713.101 2633.04 712.852 2630.02 712.889C2626.11 712.936 2623.14 712.559 2619.31 713.197Z" fill="#CB906D"/>
<path d="M2570.34 703.358C2576.59 707.166 2582.43 711.035 2587.24 716.484C2582.18 714.443 2575.4 717.25 2570 715.9C2563.05 714.163 2556.42 711.805 2549.93 708.875C2545.53 706.884 2542.94 703.437 2539.77 699.848C2539.73 699.81 2539.7 699.776 2539.67 699.745C2539.57 699.777 2539.47 699.807 2539.39 699.838C2539.61 700.578 2540.43 702.23 2539.49 701.17C2538.77 700.35 2538.7 700.089 2539.39 699.838C2539.28 699.498 2539.3 699.35 2539.67 699.745C2539.77 699.718 2539.87 699.69 2539.98 699.66C2543.96 698.6 2546.21 697.004 2550.31 697.258C2554.15 697.496 2558.1 699.032 2561.81 699.914C2565.67 700.831 2566.98 701.307 2570.34 703.358Z" fill="#CB906D"/>
<path d="M2610.2 671.81C2606.27 674.084 2601.53 676.155 2598.14 679.149L2597.41 685.871C2600.17 686.604 2603.03 686.573 2605.78 687.106C2607.61 687.461 2609.38 686.679 2611.27 686.98C2612.96 687.251 2615.51 687.066 2617.22 686.847C2627.64 685.512 2637.77 681.126 2644.49 672.671C2647.83 668.463 2645.48 668.436 2646.69 663.377C2647.34 660.647 2638.66 662.537 2637.01 662.777C2630.51 663.719 2625.84 665.394 2620.13 668.536C2616.93 670.296 2613.37 669.979 2610.2 671.81Z" fill="#CB906D"/>
<path d="M2587.21 666.497C2590.83 674.549 2586.6 677.373 2590.91 685.194C2583.33 684.725 2584.3 688.173 2577.13 685.281C2572.99 683.612 2567.97 678.162 2565.89 674.236C2564.43 671.479 2563.22 668.417 2562.46 665.394C2561.83 662.861 2560.77 659.179 2561.2 656.56C2561.62 653.969 2562.17 651.49 2562.62 648.895C2563.2 645.607 2564.98 642.393 2565.3 639.142C2565.79 634.283 2570.62 643.58 2572 645.144C2577.95 651.875 2583.52 658.308 2587.21 666.497Z" fill="#CB906D"/>
<path d="M2599.08 639.711C2602.89 636.349 2609.52 633.045 2613.75 630.232C2617.59 627.681 2621.32 628.902 2625.61 627.079C2629.6 625.384 2632.3 623.477 2636.56 622.896C2637.15 622.816 2637.63 622.664 2638.01 622.479C2638.19 622.17 2638.37 621.858 2638.54 621.545C2639.43 619.918 2639.82 621.589 2638.01 622.479C2633.32 630.324 2624.62 636.78 2615.74 638.486C2610.34 639.524 2604.52 641.906 2599.08 639.711Z" fill="#CB906D"/>
<path d="M2590.21 627.077C2591.15 631.257 2592.24 635.65 2593.71 639.717C2587.81 637.217 2582.11 633.227 2576.8 629.415C2574.34 627.649 2572.39 624.73 2570.39 622.465C2568.7 620.546 2566.45 618.62 2565.48 616.217C2563.65 611.691 2563.76 606.677 2563.02 601.821C2562.54 598.667 2563.97 602.142 2564.17 598.976C2564.23 598.046 2563.52 595.783 2564.96 597.001C2566.17 598.037 2567.84 598.242 2568.97 599.524L2573.66 604.828C2579.51 611.45 2582.41 611.791 2587.43 619.08C2589.24 621.702 2589.55 624.092 2590.21 627.077Z" fill="#CB906D"/>
<path d="M2604.73 618.662C2601.84 622.759 2603.47 623.203 2600.26 626.228C2600.16 625.319 2600.22 624.003 2600.25 623.216C2600.3 621.702 2599.79 620.203 2599.89 618.682C2600.16 614.239 2599.38 609.723 2598.93 605.229C2598.28 598.749 2598.09 593.026 2598.96 586.548C2599.63 581.584 2598.88 578.951 2601.17 574.477C2601.5 573.841 2602.42 570.49 2602.88 570.267C2603.55 569.949 2606.38 573.84 2606.82 574.343C2607.63 575.26 2608.82 580.59 2610.73 585.3C2612.49 591.232 2613.92 600.355 2611.15 606.347C2609.21 610.546 2607.41 614.857 2604.73 618.662Z" fill="#CB906D"/>
<path d="M2599.68 632.95C2600.18 646.265 2595.68 659.225 2596.21 672.233C2596.35 675.647 2595.03 679.125 2594.65 682.509C2594.25 686.231 2594.76 690.164 2593.92 693.796C2592.27 700.953 2592.64 708.558 2591.52 715.795C2589.46 729.203 2588.77 742.967 2585.92 756.201C2584.26 763.913 2581.95 771.571 2579.99 779.237C2578.09 786.664 2577.51 794.167 2575 801.445C2565.67 828.431 2551.62 853.989 2536.69 878.252C2526.43 894.915 2519.07 915.645 2504.29 928.7" stroke="#C4631F" stroke-width="4" stroke-linecap="round" stroke-linejoin="round"/>
<path d="M2600 631.793C2603.95 628.306 2607.14 624.99 2610.18 620.678C2612.87 616.873 2614.66 612.561 2616.6 608.363C2619.37 602.371 2617.45 592.203 2615.07 586.316C2613.16 581.606 2611.56 578.229 2608.23 574.451C2607.78 573.948 2604.96 570.057 2604.29 570.376C2603.82 570.598 2602.91 573.95 2602.58 574.585C2600.28 579.06 2599.28 585.096 2598.61 590.06C2597.74 596.538 2598.58 603.815 2599.22 610.295C2599.67 614.789 2600.45 619.304 2600.18 623.747C2600.09 625.269 2600.59 626.767 2600.54 628.282C2600.51 629.245 2600.43 631.003 2600.65 631.833" stroke="#C4631F" stroke-width="4" stroke-linecap="round" stroke-linejoin="round"/>
<path d="M2599.37 642.066C2603.18 638.704 2606.84 635.147 2611.07 632.334C2614.91 629.783 2620.49 629.026 2624.78 627.203C2628.77 625.508 2633.14 624.195 2637.4 623.615C2640.8 623.15 2639.07 625.104 2637.99 627.071C2633.46 635.334 2624.41 642.238 2615.18 644.012C2609.78 645.05 2603.97 647.432 2598.53 645.237" stroke="#C4631F" stroke-width="4" stroke-linecap="round" stroke-linejoin="round"/>
<path d="M2596.78 647.384C2595.02 642.896 2593.75 637.905 2592.7 633.183C2592.04 630.199 2591.73 627.809 2589.92 625.187C2584.9 617.898 2579.36 611.169 2573.51 604.547C2571.95 602.779 2570.38 601.011 2568.82 599.243C2567.69 597.961 2566.02 597.756 2564.81 596.721C2563.38 595.502 2564.08 597.766 2564.02 598.695C2563.83 601.861 2563.46 605.025 2563.94 608.18C2564.67 613.036 2566.14 617.798 2567.97 622.323C2568.94 624.727 2571.18 626.653 2572.88 628.572C2574.88 630.836 2576.83 633.756 2579.29 635.522C2584.8 639.478 2590.73 643.625 2596.86 646.1" stroke="#C4631F" stroke-width="4" stroke-linecap="round" stroke-linejoin="round"/>
<path d="M2595.12 684.669C2598.51 681.675 2601.96 677.691 2605.9 675.417C2609.07 673.585 2612.43 672.086 2615.63 670.325C2621.35 667.183 2627.64 664.499 2634.13 663.557C2635.79 663.317 2647.36 661.856 2646.71 664.586C2645.51 669.646 2644.81 673.983 2641.46 678.191C2634.75 686.646 2624.62 691.032 2614.19 692.367C2612.48 692.586 2609.94 692.771 2608.24 692.5C2606.36 692.199 2604.59 692.982 2602.76 692.626C2600.01 692.093 2597.14 692.124 2594.38 691.391" stroke="#C4631F" stroke-width="4" stroke-linecap="round" stroke-linejoin="round"/>
<path d="M2591.65 719.906C2598.81 714.049 2609.12 714.623 2617.87 713.167C2621.7 712.528 2626.17 712.985 2630.07 712.938C2633.1 712.901 2636.07 713.412 2639.06 713.799C2641.41 714.101 2643.56 713.498 2645.32 711.948C2645.65 711.655 2646.74 710.316 2646.5 711.377C2646.18 712.819 2643.99 715.058 2643.35 716.589C2641.5 720.986 2636.58 726.272 2632.2 728.361C2626.02 731.308 2618.89 729.972 2612.36 729.567C2610.04 729.424 2607.66 729.31 2605.35 729.384C2602.79 729.467 2600 727.976 2597.43 727.676C2595.27 727.424 2592.52 727.058 2590.61 726.287" stroke="#C4631F" stroke-width="4" stroke-linecap="round" stroke-linejoin="round"/>
<path d="M2592.95 688.401C2588.64 680.579 2587.79 671.916 2584.16 663.864C2580.47 655.675 2574.47 647.549 2568.52 640.819C2567.14 639.255 2560.36 631.898 2559.88 636.756C2559.55 640.008 2557.77 643.222 2557.19 646.51C2556.74 649.104 2556.19 651.583 2555.77 654.174C2555.34 656.793 2556.4 660.475 2557.03 663.008C2557.79 666.032 2559 669.093 2560.46 671.85C2562.54 675.776 2567.57 681.227 2571.7 682.895C2578.87 685.787 2585.15 686.306 2592.73 686.776" stroke="#C4631F" stroke-width="4" stroke-linecap="round" stroke-linejoin="round"/>
<path d="M2589.9 722.053C2585.09 716.604 2580.67 710.399 2574.42 706.591C2571.06 704.54 2567.79 702.347 2563.93 701.43C2560.22 700.547 2556.53 698.715 2552.69 698.478C2548.58 698.224 2543.52 697.641 2539.53 698.702C2538.26 699.04 2538.15 699.203 2539.04 700.211C2540.44 701.796 2541.04 703.848 2542.43 705.416C2545.6 709.005 2548.19 712.453 2552.59 714.443C2559.08 717.374 2565.71 719.732 2572.66 721.469C2578.06 722.819 2584.16 720.614 2589.22 722.655" stroke="#C4631F" stroke-width="4" stroke-linecap="round" stroke-linejoin="round"/>
<path d="M2588.54 749.363C2591.8 746.573 2593.63 746.737 2597.8 746.642C2601.48 746.558 2604.84 746.107 2608.55 746.555C2614.56 747.283 2620.61 747.303 2626.55 748.422C2629.16 748.914 2631.31 750.113 2633.92 750.275C2637.17 750.476 2634.35 753.676 2633.22 755.281C2627.35 763.596 2615.67 762.828 2606.77 761.378C2598.92 760.099 2591.2 757.874 2585.81 751.772" stroke="#C4631F" stroke-width="4" stroke-linecap="round" stroke-linejoin="round"/>
<path d="M2585.67 748.864C2575.81 737.703 2557.49 740.03 2544.21 741.785C2537.44 742.679 2530.98 744.16 2524.45 746.184C2524.18 746.27 2520.23 747.549 2520.84 748.234C2522.7 750.347 2527.02 751.172 2529.48 751.992C2535.43 753.972 2540.95 755.981 2547.29 755.584C2553.18 755.215 2559.67 755.991 2565.4 754.359C2569.7 753.133 2574.08 753.349 2578.26 751.628C2580.75 750.606 2583.5 750.254 2585.97 749.205" stroke="#C4631F" stroke-width="4" stroke-linecap="round" stroke-linejoin="round"/>
<path d="M2578.3 784.505C2581.78 781.944 2588.04 782.225 2592.31 782.149C2595.77 782.086 2599.17 781.633 2602.6 782.464C2610.19 784.304 2617.54 786.332 2624.96 788.682C2625.98 789.006 2634.42 793.738 2633.77 794.384C2631.41 796.725 2629.05 798.032 2626.11 799.461C2620.97 801.963 2614.34 801.791 2608.75 801.788C2602.44 801.783 2595.98 799.126 2590.26 796.668C2584.69 794.274 2580.84 791.498 2576.86 786.994" stroke="#C4631F" stroke-width="4" stroke-linecap="round" stroke-linejoin="round"/>
<path d="M2576.23 786.468C2574.79 784.831 2573.1 782.017 2571.16 780.974C2568.89 779.755 2565.71 778.909 2563.18 778.574C2560.54 778.225 2557.91 778.439 2555.26 778.471C2551.83 778.513 2547.95 778.461 2544.6 779.091C2537.75 780.376 2531.08 782.411 2524.3 783.923C2520.31 784.815 2516.09 786.885 2513.12 789.736C2512.83 790.013 2520.13 791.661 2520.91 791.826C2525.91 792.885 2531.04 793.287 2536.13 793.602C2540.57 793.877 2545.27 793.409 2549.69 792.983C2553.73 792.592 2558.07 792.22 2561.96 791.003C2565.85 789.785 2570.62 789.267 2574.19 787.294C2575.53 786.552 2577.27 786.565 2578.44 785.533" stroke="#C4631F" stroke-width="4" stroke-linecap="round" stroke-linejoin="round"/>
<path d="M2570.71 815.067C2582.09 815.304 2593.88 816.935 2604.59 820.857C2608.63 822.333 2611.85 824.399 2615.39 826.795C2618.32 828.782 2621.76 830.576 2624.12 833.245C2624.66 833.867 2625.57 834.416 2624.55 834.627C2622.35 835.083 2620.05 835.229 2617.81 835.534C2611.47 836.4 2604.95 835.299 2598.68 834.156C2594 833.303 2589.6 831.252 2584.99 830.212C2581.84 829.502 2578.14 828.05 2575.94 825.558C2573.54 822.842 2569.88 819.84 2568.48 816.537" stroke="#C4631F" stroke-width="4" stroke-linecap="round" stroke-linejoin="round"/>
<path d="M2566.34 816.402C2560.07 811.993 2551.69 812.843 2544.32 812.895C2536.47 812.95 2528.73 813.161 2521.04 814.535C2514.08 815.778 2507.11 818.316 2501.04 821.887C2499.75 822.644 2498.68 823.694 2497.56 824.678C2497.44 824.787 2496.78 825.366 2496.83 825.378C2499.65 825.96 2502.96 828.178 2505.61 829.345C2509.71 831.15 2513.91 831.728 2518.28 832.392C2521.53 832.885 2525.23 833.7 2528.51 833.561C2535.14 833.281 2541.44 831.499 2547.78 829.663C2555.29 827.485 2561.12 822.022 2566.84 816.969" stroke="#C4631F" stroke-width="4" stroke-linecap="round" stroke-linejoin="round"/>
<path d="M2556.48 845.805C2560.69 846.562 2564.99 847.245 2569.04 848.592C2572.57 849.767 2575.99 851.205 2579.49 852.454C2582.54 853.544 2585.72 854.754 2588.49 856.45C2591.02 858.004 2593.52 859.983 2596.26 861.13C2600.29 862.808 2604.47 864.585 2608.9 864.859C2611.3 865.008 2610.38 865.838 2608.78 866.475C2605.94 867.601 2603.09 868.626 2600.18 869.53C2594.76 871.21 2588.88 870.393 2583.3 870.45C2576.26 870.522 2569.39 868.039 2563.37 864.735C2560.06 862.924 2557.22 860.352 2554.74 857.547C2554.26 857.001 2553.41 855.457 2553.37 854.723C2553.36 854.471 2552.49 852.707 2552.82 853.081" stroke="#C4631F" stroke-width="4" stroke-linecap="round" stroke-linejoin="round"/>
<path d="M2539.32 872.072C2535.9 868.201 2533.06 864.917 2528.74 862.128C2522.92 858.376 2516.02 855.06 2509.12 853.858C2504.54 853.06 2500.32 852.203 2495.61 852.902C2493.93 853.15 2492.41 853.84 2490.79 854.271C2490.01 854.478 2487.96 854.497 2488.89 855.553C2491.96 859.023 2494.81 862.563 2498.88 864.895C2504.04 867.844 2510.39 870.757 2516.29 871.719C2520.35 872.38 2524.34 873.306 2528.33 874.206C2530.39 874.67 2532.61 874.605 2534.72 874.735C2535.76 874.8 2537.74 874.354 2538.62 874.709" stroke="#C4631F" stroke-width="4" stroke-linecap="round" stroke-linejoin="round"/>
<path d="M2539.4 875.024C2546.59 878.572 2553.67 883.83 2559.29 889.504C2562.18 892.428 2564.96 895.387 2567.69 898.48C2570.14 901.254 2572.97 904.142 2574.48 907.564C2575.35 909.524 2576.71 911.375 2577.35 913.414C2577.65 914.347 2577.83 915.321 2578.22 916.147C2578.49 916.696 2567.86 915.961 2567.04 915.708C2561.62 914.039 2556.99 912.848 2552.42 909.057C2547.16 904.695 2542.3 899.865 2539.94 893.338C2539.14 891.135 2538.96 888.779 2538.54 886.493C2538.14 884.265 2538.89 882.597 2539.06 880.482C2539.21 878.666 2538.49 876.37 2539.15 874.741" stroke="#C4631F" stroke-width="4" stroke-linecap="round" stroke-linejoin="round"/>
<path d="M2516.8 911.14C2508.85 902.137 2501.57 891.616 2489.56 888.017C2485.13 886.689 2480.4 885.7 2475.8 885.289C2474.66 885.188 2473.61 885.269 2472.5 885.562C2471.15 885.923 2472.94 887.198 2473.5 887.826C2477.12 891.931 2479.9 896.802 2483.84 900.644C2488.12 904.819 2494.16 906.329 2499.72 907.805C2503.69 908.858 2508.25 909.159 2512.35 909.524C2513.95 909.667 2515.95 909.522 2517.4 910.105" stroke="#C4631F" stroke-width="4" stroke-linecap="round" stroke-linejoin="round"/>
<path d="M2515.95 911.892C2520.28 915.259 2525.58 917.647 2529.27 921.827C2534.41 927.645 2538.86 933.161 2540.89 940.828C2542.13 945.474 2542.63 948.829 2541.77 953.401C2541.69 953.815 2540.61 956.202 2540.39 956.13C2538.71 955.558 2537.22 954.471 2535.67 953.634C2530.95 951.096 2527 946.273 2524.7 941.507C2522.27 936.461 2519.66 930.993 2518.81 925.407C2518.55 923.763 2518.03 922.286 2518.09 920.599C2518.13 919.599 2518.37 917.627 2518.18 916.705C2517.82 914.957 2518.55 913.114 2518.12 911.491" stroke="#C4631F" stroke-width="4" stroke-linecap="round" stroke-linejoin="round"/>
</g>
<path d="M2660.59 563.343C2670.1 567.708 2682.94 565.746 2693.14 565.647C2693.18 576.624 2693.91 581.772 2693.91 593.147C2693.91 600.279 2674.53 599.385 2669.64 599.385C2657.8 599.385 2646.98 599.815 2635.49 596.942C2623.81 594.023 2613.36 589.819 2602.6 584.293C2597.08 581.459 2592.7 578.713 2587.42 575.439C2583.1 572.756 2577.95 570.361 2573.51 567.849C2570.15 565.952 2566.67 562.301 2563.39 560.26C2551.2 552.675 2551.92 544.993 2541.89 534.962C2538.87 531.942 2532.68 524.688 2525.44 519.783C2519.04 515.444 2512.08 514.067 2507.73 510.929C2496.29 502.663 2482.92 500.779 2473.06 490.918C2467.29 485.157 2463.38 479.141 2454.65 478.223C2451.99 477.943 2439.06 474.632 2442.55 471.491C2448.79 465.876 2459.51 465.303 2467.09 463.056C2480.94 458.954 2491.09 461.972 2503.94 466.658C2514.69 470.576 2533.55 477.298 2541.89 485.631C2548.69 492.436 2557.77 500.375 2564.65 507.134C2584.83 526.933 2607.27 544.862 2634.61 554.311C2643.08 557.239 2652.49 559.622 2660.59 563.343Z" fill="#B7C2B4"/>
<path d="M2673.43 385.707C2679.25 391.985 2683.97 399.253 2689.27 405.945C2688.52 408.015 2687.92 415.403 2689.13 418.11C2690.01 420.062 2689.27 423.834 2689.27 425.975V434.748V451.083V458.948C2689.27 452.746 2684.47 451.128 2683.55 450.216C2677.17 443.881 2670.69 437.738 2663.32 432.508C2654.04 425.935 2648.39 419.158 2639.28 412.27C2631.58 406.442 2624.1 399.25 2617.78 392.031C2612.94 386.507 2607.05 382.736 2602.6 376.853C2595.05 366.862 2579.52 349.768 2570.27 341.244C2566.83 338.07 2563.77 333.724 2560.86 330.052C2558.13 326.609 2553.23 324.275 2549.28 322.489C2543.75 319.996 2535.81 317.136 2531.73 312.641C2528.65 309.241 2532.78 302.826 2536.75 302.826C2545.39 302.826 2552.79 306.211 2561.1 308.271C2569.88 310.449 2576.44 318.434 2583.48 323.464C2593.34 330.508 2608.12 347.69 2620.38 350.819C2632.35 353.873 2646.48 358.82 2655.73 367.998C2661.63 373.862 2667.78 379.603 2673.43 385.707Z" fill="#B7C2B4"/>
<path d="M2633.28 462.928C2650.46 474.385 2671.26 482.38 2692.09 483.056V514.389C2692.09 516.822 2692.72 520.353 2692.05 522.706C2691.84 523.448 2685.94 523.279 2685.11 523.041C2678.65 521.195 2669.99 521.445 2663.87 517.731C2660.84 515.895 2657.16 514.808 2653.77 513.808L2653.47 513.721C2649.02 512.406 2644.95 510.139 2640.66 508.375C2632.94 505.192 2625.56 501.095 2618.28 497.013C2603.14 488.537 2590.41 475.693 2576.76 465.082C2573.99 462.922 2571.73 460.101 2569.49 457.433C2567.28 454.809 2564.18 453.021 2561.65 450.75C2555.4 445.122 2547.71 441.317 2541.42 435.861C2531.36 427.144 2519.47 424.464 2507.67 419.153C2491.41 411.838 2478.6 402.289 2466.37 390.057C2463.14 386.832 2459.23 383.251 2456.57 379.586C2454.38 376.584 2451.56 373.65 2449.55 370.527C2448.16 368.371 2443.21 367.477 2446.54 365.997C2449.39 364.732 2452.91 366.698 2455.53 367.333C2460.2 368.47 2462.81 368.752 2466.26 372.197C2471.53 377.473 2477.84 380.331 2483.6 384.896C2492.21 391.73 2506.17 390.338 2516.47 393.942C2524.33 396.694 2532.14 401.088 2540.23 402.928C2544.26 403.844 2548.26 405.646 2552.26 406.789C2556.47 407.993 2560.84 408.09 2564.77 410.131C2568.7 412.168 2572.75 413.642 2576.47 416.146C2580.84 419.089 2584.67 422.793 2589.05 425.762C2596.96 431.11 2605.56 436.701 2612.41 443.398C2619.35 450.183 2625.11 457.484 2633.28 462.928Z" fill="#B7C2B4"/>
<path d="M2692.27 403.69C2686.54 396.402 2681.1 388.491 2674.81 381.654C2668.69 375.006 2663.08 367.908 2656.69 361.522C2646.7 351.527 2630.09 350.205 2617.16 346.88C2603.91 343.472 2595.97 332.37 2585.31 324.698C2577.71 319.221 2570.61 310.525 2561.12 308.153C2552.14 305.909 2544.14 302.223 2534.8 302.223C2530.52 302.223 2526.05 309.208 2529.38 312.911C2533.79 317.807 2542.37 320.921 2548.34 323.636C2552.62 325.581 2557.91 328.123 2560.86 331.872C2564 335.871 2567.31 340.605 2571.04 344.061C2581.03 353.344 2588.43 365.503 2596.59 376.383C2601.39 382.79 2607.28 388.12 2612.51 394.136C2619.35 401.997 2626.25 409.826 2634.58 416.172C2644.43 423.673 2653.11 432.77 2663.13 439.928C2671.11 445.624 2678.12 452.795 2685.02 459.695C2686.02 460.688 2691.61 465.64 2691.61 464.636C2691.61 461.781 2691.61 458.926 2691.61 456.071C2691.61 450.141 2691.61 444.211 2691.61 438.281C2691.61 435.096 2691.61 431.912 2691.61 428.727C2691.61 426.396 2692.41 422.288 2691.47 420.162C2690.16 417.214 2692.79 404.939 2690.29 403.69" stroke="#4A5759" stroke-width="4" stroke-linecap="round" stroke-linejoin="round"/>
<path d="M2527.97 307.086C2532.67 307.086 2537.1 306.961 2541.58 308.556C2545.35 309.896 2549.11 310.931 2552.85 312.476C2564.84 317.427 2574.07 327.555 2582.96 336.593C2586.65 340.348 2588.85 344.123 2591.29 348.733C2594.1 354.058 2599.73 359.122 2603.92 363.431C2610.01 369.695 2619.3 373.04 2627.43 375.299C2635.45 377.526 2642.99 384.447 2648.01 390.76C2651.08 394.619 2654.19 398.338 2657.59 401.92C2660.69 405.19 2664.59 408.593 2667.12 412.318C2669.34 415.595 2672.84 417.133 2675.34 420.048C2677.05 422.044 2679.38 423.848 2681.22 425.765C2682.92 427.536 2684.89 428.916 2686.72 430.555C2687.57 431.321 2688.86 433.094 2689.66 433.495" stroke="#4A5759" stroke-width="4" stroke-linecap="round" stroke-linejoin="round"/>
<path d="M2692.41 488.161C2670.64 488.161 2648.71 479.966 2630.75 467.988C2622.58 462.544 2616.82 455.242 2609.88 448.458C2603.03 441.76 2594.43 436.17 2586.53 430.821C2582.14 427.853 2578.31 424.148 2573.94 421.205C2570.22 418.702 2566.17 417.228 2562.24 415.19C2558.31 413.15 2553.94 413.052 2549.73 411.848C2545.73 410.706 2541.73 408.903 2537.7 407.987C2529.61 406.148 2521.8 401.753 2513.94 399.002C2503.64 395.398 2491.29 391.616 2482.67 384.781C2476.92 380.216 2470.61 377.359 2465.34 372.083C2461.89 368.638 2459.28 368.356 2454.61 367.219C2451.99 366.584 2448.47 364.617 2445.62 365.883C2442.29 367.363 2447.24 368.257 2448.63 370.412C2450.63 373.535 2453.46 376.469 2455.64 379.472C2458.31 383.136 2462.22 386.718 2465.45 389.942C2477.68 402.175 2488.88 416.897 2505.14 424.212C2516.94 429.523 2528.83 432.203 2538.89 440.921C2545.18 446.376 2552.87 450.182 2559.12 455.809C2561.65 458.08 2564.75 459.868 2566.96 462.493C2569.2 465.161 2571.46 467.981 2574.24 470.141C2587.88 480.752 2600.61 493.597 2615.75 502.072C2623.03 506.154 2630.41 510.252 2638.13 513.434C2642.42 515.198 2646.49 517.466 2650.94 518.78C2654.42 519.805 2658.23 520.9 2661.34 522.79C2667.46 526.504 2676.12 526.255 2682.58 528.1C2683.41 528.338 2689.31 528.508 2689.52 527.766C2690.19 525.412 2689.56 521.881 2689.56 519.449C2689.56 508.978 2689.56 498.508 2689.56 488.038" stroke="#4A5759" stroke-width="4" stroke-linecap="round" stroke-linejoin="round"/>
<path d="M2447.97 368.479C2462.02 377.592 2472.86 390.812 2486.91 399.75C2492.62 403.388 2497.28 408.243 2503.52 411.04C2508.58 413.306 2513.49 415.868 2518.52 418.154C2522.07 419.766 2526.21 420.593 2529.94 421.733C2533.95 422.958 2537.53 425.115 2541.52 426.334C2547.82 428.258 2554.33 430.902 2559.93 434.428C2572.67 442.453 2585.36 450.339 2597.68 459.138C2606.63 465.532 2614.54 472.196 2624.34 477.372C2633.51 482.208 2641.64 490.053 2651.52 493.476C2661.19 496.82 2669.82 502.662 2679.39 506.342C2683.17 507.796 2685.91 510.347 2690.29 510.347" stroke="#4A5759" stroke-width="4" stroke-linecap="round" stroke-linejoin="round"/>
<path d="M2691.38 559.379C2681.06 559.379 2667.8 561.554 2658.06 557.078C2649.96 553.357 2640.55 550.975 2632.08 548.047C2604.74 538.598 2583.49 518.937 2563.32 499.139C2556.43 492.379 2549.24 485.835 2542.44 479.03C2534.11 470.698 2520.55 466.674 2509.81 462.756C2496.95 458.07 2478.41 452.689 2464.56 456.792C2456.98 459.039 2446.26 459.611 2440.02 465.227C2436.53 468.368 2449.46 471.678 2452.12 471.958C2460.85 472.877 2464.77 478.892 2470.53 484.654C2480.39 494.515 2488.99 504.932 2500.43 513.198C2504.78 516.335 2510.55 518.414 2515.6 520.099C2519.7 521.467 2523.32 525.089 2526.34 528.109C2536.37 538.14 2546.35 549.664 2558.54 557.249C2561.82 559.29 2564.94 561.7 2568.3 563.597C2572.74 566.109 2577.57 568.2 2581.89 570.882C2587.17 574.156 2592.31 578.017 2597.82 580.851C2608.58 586.377 2620.66 591.906 2632.33 594.824C2643.82 597.698 2654.23 599.255 2666.07 599.255C2670.96 599.255 2692.15 600.253 2692.15 593.12C2692.15 581.482 2690.61 570.125 2690.61 558.612" stroke="#4A5759" stroke-width="4" stroke-linecap="round" stroke-linejoin="round"/>
<path d="M2442.15 462.758C2464.48 466.411 2482.44 478.952 2502.78 487.766C2528.18 498.774 2548.99 519.207 2570.39 535.949C2581.83 544.908 2593.28 553.001 2605.49 560.914C2610.81 564.364 2617.44 566.93 2623.3 569.35C2629.85 572.055 2637.18 573.767 2643.45 577.018C2658.04 584.584 2676.86 583.92 2692.91 583.92" stroke="#4A5759" stroke-width="4" stroke-linecap="round" stroke-linejoin="round"/>
<path d="M2583.63 914.429C2592.92 908.654 2601.93 908.537 2612.25 908.541C2611.53 909.213 2610.85 910.009 2610.19 910.634C2606.39 911.899 2603.69 913.019 2600.54 915.12C2596.12 918.065 2591.39 921.318 2585.89 921.725C2580.83 922.1 2577.29 923.283 2572.24 923.283C2571.47 923.283 2569.49 923.745 2570.07 922.586C2570.54 921.646 2571.13 920.868 2571.89 920.145C2574.99 917.214 2580 916.682 2583.63 914.429Z" fill="#CB906D"/>
<path d="M2629.16 906.842C2625.79 906.842 2622.45 908.071 2619.15 909.182C2619.87 909.772 2620.76 910.772 2621.31 911.286C2622.44 912.356 2623.78 912.897 2625.07 913.727C2629.45 916.544 2634.82 918.082 2639.79 919.48C2644.48 920.801 2650.23 921.018 2654.86 919.306C2656.39 918.741 2658.05 918.374 2659.47 917.562C2659.65 917.459 2653.03 917.71 2655.73 915.696C2653.09 912.31 2652.1 911.354 2648.14 909.371C2641.59 906.101 2636.32 906.842 2629.16 906.842Z" fill="#CB906D"/>
<path d="M2624.1 866.363C2616.75 866.783 2610.71 868.619 2603.87 871.423C2604.59 872.872 2604.08 871.432 2605.25 872.643C2606.6 874.053 2607.3 875.592 2609.08 876.672C2610.92 877.78 2612.66 879.094 2614.66 879.888C2620.61 882.241 2626.92 881.829 2633.14 880.856C2638.56 880.011 2642.21 877.538 2646.67 874.812C2647.34 874.399 2653.74 870.312 2653.2 870.158C2652.38 869.926 2651.49 869.259 2650.67 868.893C2648.87 868.093 2647.49 868.227 2645.61 867.628C2642.32 866.583 2638.9 867.628 2635.49 867.628C2631.68 867.628 2627.89 866.147 2624.1 866.363Z" fill="#CB906D"/>
<path d="M2598.6 870.159L2598.81 870.159C2598.02 870.55 2598.29 870.484 2597.6 871.169C2596.23 872.542 2594.92 874.118 2593.34 875.257C2590.29 877.464 2587.21 879.656 2584.28 882.056C2580.01 885.549 2574.12 888.161 2568.93 889.921C2564.83 891.313 2563.59 892.49 2559.32 892.49C2558.02 892.49 2559.26 891.062 2559.59 890.397C2560.29 889.015 2560.74 887.54 2561.59 886.232C2563.98 882.549 2567.63 881.692 2570.98 879.013C2576.02 874.98 2581.28 873.152 2587.42 871.424C2591.92 870.159 2593.98 870.159 2598.6 870.159Z" fill="#CB906D"/>
<path d="M2590.29 844.049C2593.38 841.606 2596.48 839.05 2599.88 837.075C2602.85 835.351 2605.93 833.867 2608.92 832.213C2611.54 830.77 2614.32 829.31 2617.18 828.435C2619.8 827.634 2622.69 827.116 2625.16 825.917C2627.08 824.982 2629.49 824.009 2631.75 822.868C2631.75 822.867 2631.75 822.867 2631.75 822.867C2632.17 821.925 2633 821.706 2633.93 821.674C2635.08 820.98 2636.13 820.222 2636.97 819.38C2638.54 817.808 2638.56 818.949 2638.02 820.445C2637.41 822.121 2635.53 821.619 2633.93 821.674C2633.23 822.093 2632.5 822.49 2631.75 822.868C2629.6 827.637 2625.45 831.204 2622.08 835.091C2617.84 839.997 2611.93 843.231 2605.97 845.377C2602.7 846.553 2599.19 846.946 2595.74 846.946C2595.07 846.946 2593.48 846.595 2592.95 846.171C2592.77 846.026 2591.02 845.551 2591.48 845.551L2590.29 844.049Z" fill="#CB906D"/>
<path d="M2601.34 796.794C2592.08 801.805 2583.63 809.443 2577.3 811.973C2580.44 813.02 2580.96 814.052 2584.3 814.052C2587.36 814.052 2590.62 812.386 2593.03 810.643C2596.57 808.091 2600.67 806.304 2604.12 803.591C2608.73 799.957 2613.47 796.124 2616.75 791.213C2617.9 789.478 2620.5 791.548 2621.53 789.747C2622 788.915 2621.07 789.205 2620.31 789.205C2617.03 789.205 2614.62 790.399 2611.45 791.213C2607.64 792.193 2604.82 794.908 2601.34 796.794Z" fill="#CB906D"/>
<path d="M2555.97 836.434C2560.43 831.313 2565.65 825.002 2572.53 823.357C2572.53 830.393 2572.75 837.756 2569.66 844.279C2567.06 849.779 2564.45 855.221 2560.6 859.971C2558.69 862.322 2555.87 864.381 2553.55 866.325C2553.02 866.767 2552.7 867.05 2552.51 867.224C2552.03 867.675 2552.46 867.383 2552.51 867.224C2552.56 867.082 2552.3 867.044 2550.83 867.72C2548.41 868.838 2544.86 869.769 2542.74 871.362C2542.69 871.394 2542.7 870.583 2542.7 870.432C2542.7 869.061 2542.63 867.677 2542.89 866.325C2544.13 859.949 2542.29 859.279 2545.68 853.715C2549.42 847.562 2551.22 841.888 2555.97 836.434Z" fill="#CB906D"/>
<path d="M2571.43 777.014C2568.88 780.008 2562.05 786.051 2561.7 790.016C2567.24 790.016 2571.51 789.047 2576.56 786.661C2581.75 784.211 2587.53 781.372 2591.38 777.014C2594.8 773.152 2598.96 768.676 2600.38 763.593C2601.18 760.691 2602.78 760.64 2602.6 757.584C2602.55 756.741 2594.59 759.605 2593.75 760.114C2587.59 763.804 2583.21 766.11 2577.3 770.233C2574.64 772.094 2573.5 774.587 2571.43 777.014Z" fill="#CB906D"/>
<path d="M2560.86 790.47C2562.76 789.765 2561.37 791.735 2563.39 791.735C2563.39 793.172 2558.82 790.569 2558.51 791.95C2557.7 795.619 2555.15 799.231 2553.61 802.663C2552.08 806.092 2549.69 809.317 2547.49 812.349C2545.09 815.662 2542.54 819.198 2539.64 822.093C2536.42 825.318 2533.12 828.519 2529.47 831.27C2529.18 832.865 2529.06 834.475 2529.13 836.006C2529.14 836.373 2528.53 831.966 2529.13 831.527C2529.24 831.442 2529.35 831.356 2529.47 831.27C2529.89 828.914 2530.68 826.594 2531.77 824.622C2534.86 819.014 2536.06 813.694 2539.36 808.178C2540.97 805.473 2543.61 802.984 2545.68 800.589C2547.96 799.007 2550.15 797.14 2552 795.529C2553.78 793.983 2558.63 791.292 2560.86 790.47Z" fill="#CB906D"/>
<path d="M2548.21 755.054C2545.73 757.995 2545.68 758.849 2543.15 758.646V762.002C2550.66 762.002 2556.91 758.024 2562.58 753.381C2569.02 748.118 2576.68 740.516 2574.51 731.385C2574.1 729.623 2573.92 729.68 2571.8 731.804C2570.09 733.512 2569.12 734.578 2567.18 736.081C2562.78 739.503 2558.7 742.494 2554.53 746.2C2551.96 748.485 2550.4 752.458 2548.21 755.054Z" fill="#CB906D"/>
<path d="M2512.79 787.941C2519.69 777.696 2526.71 765.173 2538.27 762.644C2537.49 764.991 2536.47 767.106 2535.66 769.447C2534.3 773.388 2531.48 776.28 2529.7 780.002C2527.33 784.958 2522.83 788.966 2519.49 793.26C2515.89 797.888 2511.14 800.47 2506.14 803.373C2504.07 804.576 2506.54 806.915 2503.94 806.915C2503.1 806.915 2503.83 803.365 2503.94 803.12C2506.52 797.374 2509.28 793.165 2512.79 787.941Z" fill="#CB906D"/>
<path d="M2539.36 718.37C2535.02 725.301 2529.24 729.754 2525.44 737.672L2529.22 742.286C2530.92 741.436 2532.85 739.756 2534.34 738.418C2536.11 736.83 2538.85 735.813 2540.35 733.991C2541.71 732.349 2543.25 730.773 2544.76 729.261C2549.03 724.991 2554.3 720.881 2556.04 714.814C2557.26 710.516 2556.62 703.889 2554.71 699.925C2554.04 698.545 2554.4 699.333 2553.6 698.232C2553.01 697.422 2553.27 698.989 2553.27 699.397C2553.27 701.555 2553.64 703.022 2552 704.456C2549.91 706.291 2547.5 708.667 2545.68 710.781C2543.33 713.509 2541.26 715.33 2539.36 718.37Z" fill="#CB906D"/>
<path d="M2502.67 746.2C2509.12 744.209 2515.35 742.537 2522.06 742.537C2517.56 744.786 2515.36 751.187 2511.13 754.094C2505.69 757.836 2500.01 760.978 2494.03 763.671C2489.96 765.5 2486 765.185 2481.58 765.185C2481.54 765.185 2481.49 765.186 2481.46 765.187C2481.41 765.28 2481.38 765.364 2481.35 765.441C2482 765.736 2483.63 766.182 2482.33 766.182C2481.32 766.182 2481.1 766.068 2481.35 765.441C2481.05 765.305 2480.96 765.201 2481.46 765.187C2481.49 765.106 2481.54 765.018 2481.58 764.924C2483.28 761.522 2483.55 758.999 2486.23 756.319C2488.74 753.81 2492.21 752.022 2495.08 749.995C2498.07 747.887 2499.2 747.273 2502.67 746.2Z" fill="#CB906D"/>
<path d="M2505.2 699.397C2504.37 703.506 2502.91 708.041 2502.91 712.209L2507.11 716.823C2509.3 715.361 2511.03 713.363 2513.07 711.79C2514.44 710.739 2514.98 709.04 2516.33 707.922C2517.56 706.914 2518.98 705.044 2519.88 703.728C2525.32 695.71 2528.47 686.034 2526.73 676.233C2525.86 671.355 2524.41 672.961 2521.65 669.039C2520.16 666.923 2516.17 674.073 2515.32 675.364C2512.01 680.428 2510.32 684.676 2509 690.542C2508.26 693.829 2505.87 696.088 2505.2 699.397Z" fill="#CB906D"/>
<path d="M2487.49 712.047C2495.27 714.455 2494.64 719.104 2502.67 720.902C2497.72 725.854 2500.7 727.289 2494.32 730.475C2490.65 732.313 2483.81 732.461 2479.83 731.5C2477.03 730.825 2474.18 729.795 2471.63 728.471C2469.49 727.362 2466.3 725.844 2464.76 723.951C2463.22 722.078 2461.84 720.185 2460.33 718.289C2458.41 715.886 2457.28 712.69 2455.23 710.483C2452.16 707.185 2461.54 709.518 2463.46 709.518C2471.74 709.518 2479.58 709.599 2487.49 712.047Z" fill="#CB906D"/>
<path d="M2476.24 687.492C2476.24 682.81 2478 676.213 2478.64 671.571C2479.22 667.36 2482.34 665.529 2483.7 661.452C2484.96 657.661 2485.3 654.628 2487.5 651.333C2487.8 650.877 2487.99 650.455 2488.09 650.079C2487.99 649.763 2487.88 649.45 2487.77 649.14C2487.19 647.53 2488.58 648.28 2488.09 650.079C2490.65 658.103 2489.8 668.058 2485.56 675.236C2482.98 679.602 2481.07 685.074 2476.24 687.492Z" fill="#CB906D"/>
<path d="M2462.09 685.906C2465.55 687.814 2469.25 689.738 2472.96 691.208C2467.63 693.756 2461.4 695.258 2455.52 696.601C2452.8 697.223 2449.59 696.788 2446.81 696.788C2444.45 696.788 2441.74 697.166 2439.49 696.368C2435.25 694.866 2431.85 691.733 2428.05 689.278C2425.57 687.684 2428.85 688.816 2426.78 686.749C2426.17 686.141 2424.18 685.246 2425.89 685.001C2427.35 684.793 2428.51 683.766 2430.09 683.766H2436.61C2444.76 683.766 2446.77 681.965 2454.87 682.947C2457.78 683.3 2459.62 684.545 2462.09 685.906Z" fill="#CB906D"/>
<path d="M2465.14 670.742C2466.2 675.24 2467.51 674.381 2467.64 678.448C2466.95 677.961 2466.08 677.115 2465.55 676.616C2464.54 675.657 2463.19 675.094 2462.2 674.1C2459.3 671.198 2455.7 668.984 2452.32 666.551C2447.45 663.043 2443.37 659.683 2439.43 655.127C2436.41 651.635 2434.13 650.547 2432.44 646.229C2432.2 645.616 2430.44 642.935 2430.57 642.478C2430.76 641.821 2435.18 642.245 2435.79 642.245C2436.92 642.245 2441.33 644.674 2445.75 646.229C2450.92 648.638 2458.1 653.219 2460.55 658.789C2462.27 662.692 2464.15 666.564 2465.14 670.742Z" fill="#CB906D"/>
<path d="M2471.93 682.953C2481.44 690.732 2487.64 701.756 2496.96 709.325C2499.4 711.312 2500.99 714.353 2503.11 716.675C2505.43 719.229 2508.46 721.276 2510.46 724.072C2514.39 729.583 2519.87 733.97 2524.19 739.156C2532.2 748.763 2541.29 757.642 2548.69 767.69C2553.01 773.545 2556.89 779.812 2560.99 785.847C2564.96 791.694 2569.79 796.672 2573.29 802.852C2586.24 825.769 2595.33 851.075 2602.97 876.204C2608.23 893.463 2618.06 911.201 2618.06 929.38" stroke="#C4631F" stroke-width="3" stroke-linecap="round" stroke-linejoin="round"/>
<path d="M2471.33 682.021C2471.33 677.164 2470.98 672.939 2469.86 668.204C2468.87 664.025 2466.99 660.153 2465.27 656.251C2462.82 650.681 2454.62 645.799 2449.1 643.855C2444.68 642.3 2441.37 641.338 2436.73 641.338C2436.11 641.338 2431.7 640.915 2431.51 641.571C2431.38 642.028 2433.13 644.71 2433.37 645.323C2435.06 649.641 2438.62 654.017 2441.64 657.509C2445.59 662.066 2451.12 665.931 2456 669.439C2459.38 671.872 2462.97 674.086 2465.88 676.988C2466.87 677.982 2468.22 678.545 2469.23 679.505C2469.88 680.115 2471.04 681.247 2471.75 681.602" stroke="#C4631F" stroke-width="3" stroke-linecap="round" stroke-linejoin="round"/>
<path d="M2478.04 688.731C2478.04 684.049 2477.82 679.346 2478.46 674.704C2479.04 670.494 2481.92 666.176 2483.28 662.099C2484.54 658.308 2486.3 654.49 2488.5 651.194C2490.26 648.558 2490.55 650.949 2491.25 652.895C2494.19 661.07 2493.44 671.531 2489.04 678.992C2486.46 683.358 2484.55 688.829 2479.72 691.248" stroke="#C4631F" stroke-width="3" stroke-linecap="round" stroke-linejoin="round"/>
<path d="M2480.14 693.765C2475.96 692.245 2471.74 690.071 2467.83 687.917C2465.36 686.555 2463.52 685.311 2460.61 684.957C2452.51 683.976 2444.48 683.699 2436.33 683.699C2434.16 683.699 2431.98 683.699 2429.81 683.699C2428.23 683.699 2427.07 684.726 2425.61 684.934C2423.9 685.179 2425.89 686.074 2426.5 686.682C2428.57 688.749 2430.53 690.935 2433 692.53C2436.8 694.985 2440.99 696.877 2445.23 698.379C2447.48 699.176 2450.19 698.798 2452.55 698.798C2455.33 698.798 2458.54 699.234 2461.26 698.612C2467.36 697.218 2473.84 695.653 2479.3 692.926" stroke="#C4631F" stroke-width="3" stroke-linecap="round" stroke-linejoin="round"/>
<path d="M2504.88 717.671C2504.88 713.503 2504.24 708.686 2505.07 704.576C2505.74 701.268 2506.75 698.03 2507.49 694.744C2508.81 688.877 2510.79 682.892 2514.11 677.827C2514.95 676.537 2521.01 667.65 2522.5 669.765C2525.26 673.687 2527.83 676.817 2528.69 681.695C2530.44 691.496 2527.28 701.172 2521.84 709.19C2520.95 710.506 2519.53 712.376 2518.3 713.384C2516.94 714.502 2516.41 716.201 2515.04 717.252C2513 718.824 2511.27 720.823 2509.08 722.285" stroke="#C4631F" stroke-width="3" stroke-linecap="round" stroke-linejoin="round"/>
<path d="M2527.11 741.578C2527.43 733.056 2534.12 726.28 2538.46 719.349C2540.36 716.309 2543.4 713.503 2545.75 710.775C2547.57 708.661 2549.73 706.924 2551.83 705.089C2553.47 703.655 2554.37 701.796 2554.37 699.637C2554.37 699.229 2554.11 697.662 2554.7 698.472C2555.5 699.574 2555.71 702.451 2556.37 703.831C2558.28 707.794 2558.93 714.422 2557.7 718.72C2555.97 724.787 2550.7 728.897 2546.43 733.167C2544.91 734.679 2543.38 736.255 2542.02 737.897C2540.51 739.719 2537.78 740.736 2536.01 742.324C2534.52 743.661 2532.58 745.342 2530.88 746.191" stroke="#C4631F" stroke-width="3" stroke-linecap="round" stroke-linejoin="round"/>
<path d="M2506.14 721.447C2498.1 719.65 2491.6 714.954 2483.82 712.546C2475.91 710.098 2466.63 709.284 2458.35 709.284C2456.43 709.284 2447.2 709.481 2450.26 712.779C2452.31 714.987 2453.44 718.182 2455.37 720.585C2456.88 722.481 2458.26 724.374 2459.79 726.247C2461.34 728.14 2464.53 729.658 2466.67 730.767C2469.22 732.091 2472.07 733.121 2474.87 733.796C2478.85 734.757 2485.69 734.61 2489.36 732.771C2495.73 729.585 2499.93 725.56 2504.88 720.608" stroke="#C4631F" stroke-width="3" stroke-linecap="round" stroke-linejoin="round"/>
<path d="M2527.53 744.093C2520.83 744.093 2513.84 743.36 2507.4 745.351C2503.93 746.424 2500.42 747.344 2497.42 749.452C2494.55 751.479 2491.03 752.908 2488.52 755.417C2485.84 758.097 2482.35 761.241 2480.65 764.644C2480.11 765.729 2480.15 765.902 2481.39 765.902C2483.34 765.902 2485.13 766.741 2487.06 766.741C2491.47 766.741 2495.43 767.055 2499.5 765.226C2505.48 762.534 2511.16 759.392 2516.6 755.65C2520.83 752.742 2523.03 747.181 2527.53 744.932" stroke="#C4631F" stroke-width="3" stroke-linecap="round" stroke-linejoin="round"/>
<path d="M2545.56 761.708C2545.63 757.747 2546.86 756.587 2549.34 753.646C2551.53 751.05 2553.27 748.452 2555.84 746.167C2560.01 742.461 2563.72 738.288 2568.12 734.866C2570.05 733.363 2572.19 732.612 2573.9 730.905C2576.02 728.781 2576.51 732.685 2576.93 734.447C2579.09 743.578 2571.43 751.179 2565 756.442C2559.32 761.086 2553.07 765.063 2545.56 765.063" stroke="#C4631F" stroke-width="3" stroke-linecap="round" stroke-linejoin="round"/>
<path d="M2543.47 763.387C2529.74 763.387 2520.16 777.467 2513.27 787.712C2509.75 792.936 2506.84 798.3 2504.25 804.046C2504.14 804.291 2502.62 807.797 2503.46 807.797C2506.06 807.797 2509.26 805.32 2511.33 804.116C2516.33 801.213 2521.09 798.631 2524.69 794.004C2528.03 789.709 2532.52 785.702 2534.89 780.746C2536.67 777.023 2539.49 774.131 2540.86 770.19C2541.67 767.849 2543.1 765.734 2543.89 763.387" stroke="#C4631F" stroke-width="3" stroke-linecap="round" stroke-linejoin="round"/>
<path d="M2563.6 790.229C2563.95 786.263 2567.97 782.108 2570.52 779.114C2572.59 776.687 2574.35 774.055 2577.02 772.194C2582.92 768.071 2588.81 764.234 2594.96 760.544C2595.81 760.035 2604.23 757.091 2604.28 757.934C2604.46 760.99 2603.92 763.42 2603.12 766.322C2601.7 771.405 2597.54 775.881 2594.12 779.743C2590.27 784.101 2584.49 786.94 2579.3 789.39C2574.25 791.776 2569.98 792.745 2564.44 792.745" stroke="#C4631F" stroke-width="3" stroke-linecap="round" stroke-linejoin="round"/>
<path d="M2563.69 792.858C2561.68 792.858 2558.7 792.308 2556.8 793.013C2554.57 793.835 2552.05 795.516 2550.27 797.062C2548.42 798.673 2546.96 800.618 2545.37 802.466C2543.3 804.862 2540.9 807.51 2539.28 810.215C2535.99 815.731 2533.33 821.578 2530.24 827.185C2528.41 830.492 2527.27 834.668 2527.43 838.46C2527.44 838.827 2533.04 834.792 2533.63 834.353C2537.41 831.545 2540.82 828.245 2544.15 824.919C2547.04 822.024 2549.59 818.487 2551.99 815.175C2554.19 812.143 2556.58 808.917 2558.11 805.488C2559.65 802.057 2562.2 798.445 2563.02 794.776C2563.32 793.395 2564.39 792.203 2564.39 790.766" stroke="#C4631F" stroke-width="3" stroke-linecap="round" stroke-linejoin="round"/>
<path d="M2580.08 814.128C2587.19 806.41 2595.51 799.263 2604.76 794.252C2608.25 792.366 2611.64 791.397 2615.46 790.416C2618.62 789.603 2621.96 788.324 2625.24 788.324C2626 788.324 2626.93 788.035 2626.46 788.867C2625.43 790.667 2624.13 792.343 2622.97 794.078C2619.7 798.989 2614.96 802.822 2610.34 806.457C2606.9 809.169 2602.79 810.956 2599.26 813.508C2596.85 815.251 2593.59 816.917 2590.52 816.917C2587.18 816.917 2582.87 817.615 2579.73 816.569" stroke="#C4631F" stroke-width="3" stroke-linecap="round" stroke-linejoin="round"/>
<path d="M2578.34 817.964C2571.46 819.608 2566.93 825.919 2562.47 831.04C2557.72 836.494 2553.14 841.974 2549.4 848.126C2546.01 853.691 2543.51 860.057 2542.27 866.433C2542 867.785 2542.07 869.169 2542.07 870.54C2542.07 870.691 2542.07 871.502 2542.11 871.47C2544.24 869.877 2547.79 868.946 2550.21 867.828C2553.96 866.097 2556.93 863.546 2560.05 860.931C2562.38 858.988 2565.2 856.929 2567.1 854.577C2570.95 849.827 2573.57 844.385 2576.17 838.886C2579.25 832.363 2579.04 825 2579.04 817.964" stroke="#C4631F" stroke-width="3" stroke-linecap="round" stroke-linejoin="round"/>
<path d="M2592.64 842.72C2595.73 840.277 2598.82 837.721 2602.23 835.746C2605.19 834.022 2608.27 832.538 2611.27 830.883C2613.89 829.44 2616.67 827.981 2619.52 827.106C2622.14 826.305 2625.04 825.787 2627.51 824.587C2631.12 822.831 2634.9 821.028 2637.79 818.137C2639.36 816.565 2639.38 817.706 2638.84 819.202C2637.89 821.849 2636.85 824.445 2635.7 827.009C2633.55 831.779 2629.4 835.346 2626.03 839.233C2621.79 844.139 2615.88 847.374 2609.92 849.519C2606.65 850.695 2603.14 851.089 2599.69 851.089C2599.02 851.089 2597.43 850.737 2596.9 850.314C2596.72 850.169 2594.97 849.694 2595.43 849.694" stroke="#C4631F" stroke-width="3" stroke-linecap="round" stroke-linejoin="round"/>
<path d="M2600.31 870.617C2595.54 870.617 2591.54 870.573 2586.98 871.857C2580.84 873.585 2574.33 876.328 2569.29 880.362C2565.94 883.04 2562.78 885.434 2560.38 889.118C2559.53 890.425 2559.08 891.901 2558.39 893.283C2558.05 893.947 2556.82 895.375 2558.11 895.375C2562.38 895.375 2566.57 895.566 2570.67 894.174C2575.85 892.414 2581.74 889.802 2586.01 886.309C2588.94 883.909 2592.02 881.717 2595.08 879.509C2596.65 878.371 2597.97 876.794 2599.34 875.422C2600.02 874.736 2600.92 873.1 2601.7 872.71" stroke="#C4631F" stroke-width="3" stroke-linecap="round" stroke-linejoin="round"/>
<path d="M2602.4 872.36C2609.24 869.556 2617.19 867.879 2624.54 867.459C2628.33 867.242 2632.07 867.129 2635.87 867.129C2639.29 867.129 2643.01 866.936 2646.3 867.982C2648.18 868.581 2650.29 868.77 2652.09 869.57C2652.91 869.937 2653.7 870.404 2654.51 870.636C2655.05 870.79 2648.06 877.681 2647.38 878.094C2642.92 880.82 2639.27 883.293 2633.86 884.138C2627.64 885.111 2621.33 885.522 2615.38 883.169C2613.37 882.375 2611.63 881.062 2609.8 879.954C2608.01 878.873 2607.32 877.335 2605.96 875.924C2604.8 874.714 2602.77 873.808 2602.05 872.36" stroke="#C4631F" stroke-width="3" stroke-linecap="round" stroke-linejoin="round"/>
<path d="M2613.56 910.02C2602.48 910.02 2590.77 908.624 2580.95 914.727C2577.33 916.98 2573.76 919.642 2570.67 922.573C2569.9 923.296 2569.32 924.074 2568.85 925.014C2568.27 926.173 2570.24 925.711 2571.02 925.711C2576.07 925.711 2581.13 926.764 2586.18 926.389C2591.68 925.982 2596.41 922.729 2600.83 919.783C2603.98 917.682 2606.97 914.72 2609.72 912.112C2610.8 911.093 2611.92 909.616 2613.21 908.974" stroke="#C4631F" stroke-width="3" stroke-linecap="round" stroke-linejoin="round"/>
<path d="M2613.56 911.067C2618.53 910.129 2623.41 907.929 2628.55 907.929C2635.71 907.929 2642.23 908.222 2648.78 911.493C2652.74 913.476 2655.36 915.178 2658 918.564C2658.24 918.871 2659.22 921.076 2659.04 921.179C2657.62 921.991 2655.96 922.358 2654.43 922.923C2649.8 924.635 2644.06 924.418 2639.36 923.097C2634.39 921.699 2629.02 920.161 2624.64 917.344C2623.35 916.514 2622.01 915.973 2620.88 914.903C2620.21 914.268 2619 912.892 2618.25 912.462C2616.82 911.645 2615.99 910.016 2614.6 909.324" stroke="#C4631F" stroke-width="3" stroke-linecap="round" stroke-linejoin="round"/>
</g>
</svg>
