<svg width="40" height="29" viewBox="0 0 40 29" fill="none" xmlns="http://www.w3.org/2000/svg">
<g id="medium_icon">
<g id="Group">
<path id="Vector" d="M39.0952 4.14325H36.9739C36.4216 4.14325 34.9762 4.74682 34.9762 5.26064V23.9198C34.9762 24.4349 36.4216 24.8572 36.9739 24.8572H39.0952V29H25.3652V24.8572H28.1119V5.5235H27.6339L21.0246 28.9999H15.9073L9.3835 5.5235H8.88939V24.8572H11.6349V28.9999H0.651367V24.8572H2.17471C2.77275 24.8572 3.39692 24.4349 3.39692 23.9197V5.26064C3.39692 4.74674 2.77283 4.14325 2.17471 4.14325H0.651367V1.29269e-07H14.8857L19.5333 16.5712H19.6584L24.3519 1.29269e-07H39.0952V4.14325Z" fill="#B95D1D"/>
</g>
</g>
</svg>
