<svg width="348" height="213" viewBox="0 0 348 213" fill="none" xmlns="http://www.w3.org/2000/svg">
<path d="M298.31 142.276C297.173 142.329 296.681 142.59 295.396 142.276C294.377 142.026 293.854 141.722 292.897 141.292C290.519 140.221 289.163 139.536 287.174 137.847C286.329 137.13 286.003 136.564 285.141 135.866C284.43 135.29 283.87 135.17 283.212 134.533C281.812 133.176 281.308 131.961 281.063 130.027C280.753 127.583 281.633 126.13 282.811 123.967C283.782 122.183 285.523 121.676 286.074 119.914C286.372 118.961 286.177 117.754 285.776 116.872C285.482 116.226 284.922 115.9 284.779 115.111C284.422 113.15 285.04 111.692 285.872 109.726L285.905 109.647C287.224 106.529 291.301 106.445 291.551 103.069C291.673 101.415 290.278 100.549 290.618 98.9256C290.953 97.3309 292.07 96.8364 293.066 95.5462C294.073 94.2405 295.154 93.8225 295.746 92.2833C296.318 90.7941 295.07 89.5157 295.979 88.2046C296.763 87.0742 297.787 86.9595 299.077 86.5721C298.935 86.5563 298.788 86.5398 298.637 86.5214C296.867 86.3064 300.942 85.9867 299.242 86.5214C299.186 86.5389 299.131 86.5557 299.077 86.5721C300.263 86.7044 301.134 86.7899 302.146 87.5701C303.958 88.968 303.283 90.958 303.894 93.1637C304.456 95.1955 304.286 96.6284 305.175 98.4076C305.942 99.9414 307.204 101.206 307.61 103.302C307.969 105.161 306.862 106.323 307.377 108.145C307.893 109.972 309.324 110.435 310.122 112.158C311.586 115.322 309.89 118.325 311.235 121.015C311.915 122.375 313.821 123.162 314.369 124.394C314.675 125.084 315.315 125.614 315.586 126.427C315.915 127.414 315.971 128.311 316 129.535L316.003 129.64C316.059 131.986 316.098 133.576 314.835 135.581C313.758 137.291 312.613 137.882 310.873 138.909C307.732 140.762 304.874 140.604 301.783 141.046C299.061 141.434 301.734 142.115 298.31 142.276Z" fill="#B7C2B4"/>
<path d="M290.19 142.351C291.475 142.665 291.967 142.404 293.103 142.351C296.528 142.19 299.004 141.095 301.726 140.706C304.817 140.265 307.675 140.422 310.816 138.57C312.556 137.543 313.701 136.952 314.778 135.242C316.041 133.237 316.003 131.647 315.946 129.3L315.943 129.195C315.914 127.971 315.858 127.075 315.529 126.088C315.258 125.275 314.618 124.744 314.312 124.055C313.764 122.822 311.858 122.035 311.178 120.676C309.833 117.986 311.53 114.982 310.065 111.819C309.267 110.096 307.836 109.633 307.32 107.805C306.805 105.983 307.913 104.822 307.553 102.963C307.148 100.867 305.886 99.6021 305.119 98.0683C304.229 96.2891 304.399 94.8562 303.837 92.8244C303.226 90.6187 303.901 88.6286 302.089 87.2308C300.956 86.3573 300 86.3545 298.58 86.182C296.811 85.9671 295.735 86.0617 294.035 86.5964C292.667 87.0265 291.589 87.1013 290.772 88.2796C289.863 89.5907 291.112 90.8691 290.539 92.3582C289.948 93.8975 288.866 94.3154 287.859 95.6211C286.864 96.9114 285.746 97.4058 285.412 99.0006C285.071 100.624 286.466 101.49 286.344 103.144C286.095 106.52 282.018 106.604 280.699 109.722L280.665 109.801C279.833 111.767 279.216 113.225 279.572 115.186C279.716 115.975 280.276 116.301 280.569 116.947C280.97 117.829 281.165 119.036 280.867 119.989C280.317 121.751 278.576 122.258 277.604 124.042C276.426 126.205 275.546 127.658 275.856 130.102C276.102 132.036 276.605 133.251 278.006 134.608C278.663 135.245 279.223 135.365 279.935 135.941C280.796 136.639 281.123 137.205 281.968 137.922C283.956 139.61 285.312 140.296 287.691 141.367C288.647 141.797 289.171 142.101 290.19 142.351Z" stroke="#B29172" stroke-width="3" stroke-linecap="round" stroke-linejoin="round"/>
<path d="M295.706 145.345C295.125 140.698 295.29 135.948 295.29 131.23C295.29 134.064 294.435 138.817 294.435 141.65C294.435 144.838 293.806 147.973 293.806 151.15C293.806 152.431 293.628 153.586 293.628 155.15C293.628 156.714 293.776 157.587 293.806 159.15C293.829 160.321 293.834 160.979 293.806 162.15C293.774 163.518 293.628 164.893 293.628 165.65C293.628 167.307 293.804 168.178 293.806 169.8C293.809 171.679 293.567 172.728 293.581 174.608C293.586 175.294 293.542 176.397 293.806 176.397C294.613 176.397 296.617 176.757 296.688 176.15C296.799 175.204 296.798 174.268 296.688 173.15C296.569 171.946 296.688 171.311 296.688 170.15C296.688 165.15 296.07 162.822 296.188 158.15C296.247 155.817 295.859 154.079 296.37 152.29C296.548 151.669 297.136 150.533 297.688 149.65C298.213 148.809 298.698 148.512 299.188 147.65C299.545 147.021 299.941 146.721 300.186 146.15C300.271 145.953 299.532 146.256 299.136 146.402C298.388 146.678 298.126 147.134 297.427 147.518C297.186 147.65 296.159 148.463 296.145 148.111C296.131 147.759 295.824 146.288 295.706 145.345Z" stroke="#B29172" stroke-width="3" stroke-linecap="round" stroke-linejoin="round"/>
<path d="M258.31 134.276C257.173 134.329 256.681 134.59 255.396 134.276C254.377 134.026 253.854 133.722 252.897 133.292C250.519 132.221 249.163 131.535 247.174 129.847C246.329 129.13 246.003 128.564 245.141 127.866C244.43 127.29 243.87 127.17 243.212 126.533C241.812 125.176 241.308 123.961 241.063 122.027C240.753 119.583 241.633 118.13 242.811 115.967C243.782 114.183 245.523 113.676 246.074 111.914C246.372 110.961 246.177 109.754 245.776 108.872C245.482 108.226 244.922 107.9 244.779 107.111C244.422 105.15 245.04 103.692 245.872 101.726L245.905 101.647C247.224 98.5291 251.301 98.4448 251.551 95.069C251.673 93.4149 250.278 92.5488 250.618 90.9256C250.953 89.3308 252.07 88.8364 253.066 87.5461C254.073 86.2404 255.154 85.8225 255.746 84.2832C256.318 82.7941 255.07 81.5157 255.979 80.2046C256.796 79.0263 257.874 78.9515 259.242 78.5214C259.798 78.3463 259.701 78.2043 259.38 78.1001C259.049 78.0572 258.696 78.0228 258.31 77.9758C257.12 77.8313 258.721 77.886 259.38 78.1001C260.264 78.2145 260.995 78.3891 261.818 79.0246C263.631 80.4224 262.956 82.4125 263.566 84.6182C264.129 86.65 263.959 88.0829 264.848 89.8621C265.615 91.3959 266.877 92.6606 267.283 94.7565C267.642 96.6153 266.535 97.777 267.049 99.599C267.566 101.427 268.997 101.89 269.794 103.613C271.259 106.776 269.563 109.779 270.908 112.469C271.588 113.829 273.493 114.616 274.041 115.849C274.348 116.538 274.987 117.068 275.259 117.882C275.588 118.869 275.643 119.765 275.673 120.989L275.675 121.094C275.732 123.441 275.77 125.031 274.508 127.036C273.431 128.746 272.286 129.337 270.545 130.364C267.405 132.216 264.546 132.058 261.456 132.5C258.734 132.889 261.734 134.115 258.31 134.276Z" fill="#E0BEA2"/>
<path d="M250.19 134.351C251.475 134.665 251.967 134.404 253.103 134.351C256.528 134.19 259.004 133.095 261.726 132.706C264.817 132.265 267.675 132.422 270.816 130.57C272.556 129.543 273.701 128.952 274.778 127.242C276.041 125.237 276.003 123.647 275.946 121.3L275.943 121.195C275.914 119.971 275.858 119.075 275.529 118.088C275.258 117.275 274.618 116.744 274.312 116.055C273.764 114.822 271.858 114.035 271.178 112.676C269.833 109.986 271.53 106.982 270.065 103.819C269.267 102.096 267.836 101.633 267.32 99.8052C266.805 97.9832 267.913 96.8215 267.553 94.9626C267.148 92.8668 265.886 91.602 265.119 90.0683C264.229 88.289 264.399 86.8561 263.837 84.8243C263.226 82.6186 263.901 80.6286 262.089 79.2308C260.956 78.3572 260 78.3545 258.58 78.182C256.811 77.967 255.735 78.0616 254.035 78.5963C252.667 79.0265 251.589 79.1013 250.772 80.2795C249.863 81.5906 251.112 82.869 250.539 84.3582C249.948 85.8974 248.866 86.3154 247.859 87.6211C246.864 88.9113 245.746 89.4058 245.412 91.0005C245.071 92.6238 246.466 93.4899 246.344 95.1439C246.095 98.5198 242.018 98.604 240.699 101.721L240.665 101.801C239.833 103.767 239.216 105.225 239.572 107.186C239.716 107.975 240.276 108.301 240.569 108.946C240.97 109.828 241.165 111.036 240.867 111.989C240.317 113.751 238.576 114.258 237.604 116.042C236.426 118.205 235.546 119.658 235.856 122.102C236.102 124.036 236.605 125.251 238.006 126.608C238.663 127.245 239.223 127.365 239.935 127.941C240.796 128.639 241.123 129.205 241.968 129.922C243.956 131.61 245.312 132.296 247.691 133.366C248.647 133.797 249.171 134.101 250.19 134.351Z" stroke="#C4631F" stroke-width="3" stroke-linecap="round" stroke-linejoin="round"/>
<path d="M255.281 136.19C255.862 131.543 255.696 126.793 255.696 122.075C255.696 124.908 256.551 129.661 256.551 132.495V135.867C256.551 135.867 258.021 134.887 258.793 134.075C259.764 133.054 260.793 131.075 260.793 131.075C260.793 131.075 259.635 133.708 258.793 135.075C258.072 136.247 256.793 137.575 256.793 137.575L257.18 141.995C257.18 143.275 257.358 144.431 257.358 145.995C257.358 147.558 257.21 148.431 257.18 149.995C257.158 151.166 257.153 151.823 257.18 152.995C257.212 154.363 257.358 155.737 257.358 156.495C257.358 158.152 257.182 159.022 257.18 160.644C257.178 162.524 257.419 163.573 257.406 165.452C257.401 166.139 257.444 167.241 257.18 167.241C256.373 167.241 254.37 167.602 254.298 166.995C254.187 166.049 254.188 165.112 254.298 163.995C254.417 162.791 254.298 162.156 254.298 160.995C254.298 155.995 254.916 153.666 254.798 148.995C254.74 146.662 255.127 144.923 254.616 143.134C254.439 142.514 253.85 141.378 253.298 140.495C252.773 139.654 252.288 139.357 251.798 138.495C251.441 137.865 251.045 137.566 250.8 136.995C250.716 136.798 251.454 137.1 251.85 137.246C252.598 137.522 252.861 137.978 253.559 138.362C253.8 138.495 254.828 139.308 254.841 138.956C254.855 138.604 255.163 137.133 255.281 136.19Z" stroke="#B29172" stroke-width="3" stroke-linecap="round" stroke-linejoin="round"/>
<path d="M20.3962 58.2756C21.6812 58.5898 22.1731 58.3289 23.3095 58.2756C26.7341 58.115 25.5607 56.8889 28.2831 56.5C31.3736 56.0585 34.2319 56.2162 37.3726 54.3636C39.113 53.3369 40.2578 52.7457 41.3347 51.0359C42.5976 49.0309 42.5592 47.4405 42.5025 45.0943L42.5 44.9892C42.4706 43.7652 42.4147 42.8687 42.0857 41.8817C41.8146 41.0684 41.175 40.5383 40.8685 39.8488C40.3206 38.616 38.415 37.8292 37.7351 36.4694C36.3901 33.7794 38.0862 30.7762 36.6216 27.6129C35.8237 25.8897 34.3929 25.4265 33.8766 23.599C33.3618 21.777 34.4693 20.6153 34.1097 18.7565C33.7042 16.6606 32.4423 15.3959 31.6754 13.8621C30.7858 12.0829 30.9559 10.65 30.3936 8.61817C29.7831 6.4125 30.4577 4.42245 28.6456 3.02462C27.5132 2.15107 30.2063 2.27952 28.7865 2.10702C27.0174 1.89206 25.9419 1.98664 24.2418 2.52135C22.874 2.95154 21.7959 3.02631 20.9789 4.2046C20.0698 5.51568 21.3183 6.79406 20.7458 8.28323C20.1541 9.82245 19.0727 10.2404 18.0656 11.5461C17.0704 12.8363 15.9528 13.3308 15.6184 14.9256C15.278 16.5488 16.6729 17.4149 16.5507 19.0689C16.3011 22.4448 12.2245 22.5291 10.9053 25.6465L10.8718 25.7258C10.0396 27.692 9.42239 29.1502 9.77884 31.1106C9.92233 31.8998 10.4823 32.2259 10.7758 32.8715C11.1767 33.7535 11.3715 34.961 11.0736 35.9143C10.5232 37.6757 8.78244 38.1826 7.81073 39.9671C6.6329 42.1301 5.75256 43.5834 6.06275 46.0267C6.30829 47.9608 6.81172 49.1762 8.21212 50.5327C8.87002 51.1699 9.42958 51.2899 10.1414 51.8663C11.0028 52.5639 11.3292 53.13 12.1742 53.8474C14.1628 55.5355 15.5185 56.2211 17.8973 57.2915C18.8537 57.7219 19.3774 58.0264 20.3962 58.2756Z" fill="#E0BEA2"/>
<path d="M16.3962 58.2756C17.6812 58.5898 18.1731 58.3289 19.3095 58.2756C22.7341 58.115 25.2105 57.0201 27.9329 56.6312C31.0234 56.1897 33.8818 56.3474 37.0224 54.4948C38.7628 53.4681 39.9076 52.8768 40.9845 51.1671C42.2475 49.1621 42.2091 47.5717 42.1524 45.2255L42.1499 45.1204C42.1205 43.8964 42.0645 42.9999 41.7355 42.0129C41.4644 41.1996 40.8248 40.6695 40.5184 39.98C39.9705 38.7472 38.0649 37.9604 37.385 36.6006C36.04 33.9106 37.7361 30.9074 36.2715 27.7441C35.4736 26.0209 34.0428 25.5577 33.5265 23.7302C33.0117 21.9082 34.1192 20.7465 33.7595 18.8877C33.354 16.7918 32.0922 15.5271 31.3253 13.9933C30.4357 12.2141 30.6058 10.7812 30.0434 8.74936C29.433 6.54369 30.1076 4.55363 28.2955 3.15581C27.163 2.28226 26.2063 2.27952 24.7865 2.10702C23.0174 1.89206 21.9419 1.98664 20.2418 2.52135C18.874 2.95154 17.7959 3.02631 16.9789 4.2046C16.0698 5.51568 17.3183 6.79406 16.7458 8.28323C16.1541 9.82245 15.0727 10.2404 14.0656 11.5461C13.0704 12.8363 11.9528 13.3308 11.6184 14.9256C11.278 16.5488 12.6729 17.4149 12.5507 19.0689C12.3011 22.4448 8.22446 22.5291 6.90531 25.6465L6.87176 25.7258C6.03957 27.692 5.42239 29.1502 5.77884 31.1106C5.92233 31.8998 6.48234 32.2259 6.77583 32.8715C7.17673 33.7535 7.37155 34.961 7.07364 35.9143C6.52321 37.6757 4.78244 38.1826 3.81073 39.9671C2.6329 42.1301 1.75256 43.5834 2.06275 46.0267C2.30829 47.9608 2.81172 49.1762 4.21212 50.5327C4.87002 51.1699 5.42958 51.2899 6.14138 51.8663C7.00285 52.5639 7.32916 53.13 8.17422 53.8474C10.1628 55.5355 11.5185 56.2211 13.8973 57.2915C14.8537 57.7219 15.3774 58.0264 16.3962 58.2756Z" stroke="#CB906D" stroke-width="3" stroke-linecap="round" stroke-linejoin="round"/>
<path d="M20.2739 62.2701C20.8548 57.6232 20.6894 52.8728 20.6894 48.1553C20.6894 50.9885 21.5441 55.7417 21.5441 58.575C21.5441 61.7626 22.1733 64.8979 22.1733 68.075C22.1733 69.3557 22.3513 70.5113 22.3513 72.075C22.3513 73.6386 22.2031 74.5116 22.1733 76.075C22.151 77.2463 22.1458 77.9037 22.1733 79.075C22.2054 80.4432 22.3513 81.8178 22.3513 82.575C22.3513 84.232 22.1754 85.1027 22.1733 86.7247C22.1708 88.6044 22.4125 89.653 22.3988 91.5326C22.3938 92.2189 22.4376 93.3216 22.1733 93.3216C21.366 93.3216 19.3629 93.6819 19.2915 93.075C19.1802 92.129 19.181 91.1927 19.2915 90.075C19.4105 88.8708 19.2915 88.2359 19.2915 87.075C19.2915 82.075 19.9092 79.7465 19.7915 75.075C19.7328 72.7421 20.1202 71.0037 19.6091 69.2147C19.4318 68.5943 18.8432 67.4581 18.2915 66.575C17.7663 65.7342 17.281 65.4369 16.7915 64.575C16.4342 63.9458 16.0381 63.6462 15.7933 63.075C15.7089 62.878 16.4476 63.1807 16.8431 63.3266C17.5911 63.6026 17.8539 64.0585 18.5526 64.4425C18.7935 64.575 19.8207 65.3883 19.8347 65.0361C19.8486 64.6839 20.156 63.2134 20.2739 62.2701Z" stroke="#B29172" stroke-width="3" stroke-linecap="round" stroke-linejoin="round"/>
<path d="M328.31 68.2756C327.173 68.3289 326.681 68.5898 325.396 68.2756C324.377 68.0265 323.854 67.7219 322.897 67.2915C320.519 66.2211 319.163 65.5355 317.174 63.8474C316.329 63.13 316.003 62.5639 315.141 61.8663C314.43 61.2899 313.87 61.1699 313.212 60.5327C311.812 59.1763 311.308 57.9608 311.063 56.0268C310.753 53.5834 311.633 52.1301 312.811 49.9671C313.782 48.1826 315.523 47.6757 316.074 45.9143C316.372 44.961 316.177 43.7535 315.776 42.8715C315.482 42.2259 314.922 41.8998 314.779 41.1106C314.422 39.1502 315.04 37.692 315.872 35.7258L315.905 35.6465C317.224 32.5291 321.301 32.4448 321.551 29.0689C321.673 27.4149 320.278 26.5488 320.618 24.9256C320.953 23.3308 322.07 22.8363 323.066 21.5461C324.073 20.2404 325.154 19.8225 325.746 18.2832C326.318 16.7941 325.07 15.5157 325.979 14.2046C326.755 13.0851 327.767 12.9617 329.039 12.5832C328.809 12.5569 328.567 12.5313 328.31 12.5C326.54 12.285 330.942 11.9866 329.242 12.5214C329.174 12.5428 329.106 12.5634 329.039 12.5832C330.082 12.7021 330.891 12.8335 331.818 13.5488C333.631 14.9466 332.956 16.9367 333.566 19.1423C334.129 21.1741 333.959 22.6071 334.848 24.3863C335.615 25.92 336.877 27.1848 337.283 29.2806C337.642 31.1395 336.535 32.3012 337.049 34.1232C337.566 35.9507 338.997 36.4138 339.794 38.1371C341.259 41.3004 339.563 44.3036 340.908 46.9936C341.588 48.3533 343.493 49.1402 344.041 50.373C344.348 51.0625 344.987 51.5926 345.259 52.4058C345.588 53.3929 345.643 54.2894 345.673 55.5134L345.675 55.6185C345.732 57.9647 345.77 59.5551 344.508 61.5601C343.431 63.2698 342.286 63.8611 340.545 64.8877C337.405 66.7404 334.546 66.5827 331.456 67.0242C328.734 67.4131 331.734 68.115 328.31 68.2756Z" fill="#B7C2B4"/>
<path d="M320.19 68.3505C321.475 68.6648 321.967 68.4038 323.103 68.3505C326.528 68.19 329.004 67.095 331.726 66.7061C334.817 66.2646 337.675 66.4224 340.816 64.5697C342.556 63.5431 343.701 62.9518 344.778 61.2421C346.041 59.237 346.003 57.6467 345.946 55.3004L345.943 55.1953C345.914 53.9714 345.858 53.0749 345.529 52.0878C345.258 51.2746 344.618 50.7444 344.312 50.055C343.764 48.8222 341.858 48.0353 341.178 46.6755C339.833 43.9855 341.53 40.9823 340.065 37.8191C339.267 36.0958 337.836 35.6327 337.32 33.8052C336.805 31.9832 337.913 30.8215 337.553 28.9626C337.148 26.8668 335.886 25.602 335.119 24.0683C334.229 22.289 334.399 20.8561 333.837 18.8243C333.226 16.6186 333.901 14.6286 332.089 13.2308C330.956 12.3572 330 12.3545 328.58 12.182C326.811 11.967 325.735 12.0616 324.035 12.5963C322.667 13.0265 321.589 13.1013 320.772 14.2795C319.863 15.5906 321.112 16.869 320.539 18.3582C319.948 19.8974 318.866 20.3154 317.859 21.6211C316.864 22.9113 315.746 23.4058 315.412 25.0005C315.071 26.6238 316.466 27.4899 316.344 29.1439C316.095 32.5198 312.018 32.604 310.699 35.7215L310.665 35.8008C309.833 37.767 309.216 39.2251 309.572 41.1856C309.716 41.9748 310.276 42.3008 310.569 42.9465C310.97 43.8285 311.165 45.036 310.867 45.9893C310.317 47.7506 308.576 48.2575 307.604 50.042C306.426 52.2051 305.546 53.6584 305.856 56.1017C306.102 58.0358 306.605 59.2512 308.006 60.6076C308.663 61.2448 309.223 61.3649 309.935 61.9413C310.796 62.6389 311.123 63.2049 311.968 63.9223C313.956 65.6104 315.312 66.2961 317.691 67.3665C318.647 67.7969 319.171 68.1014 320.19 68.3505Z" stroke="#4A5759" stroke-width="3" stroke-linecap="round" stroke-linejoin="round"/>
<path d="M325.281 74.7814C325.862 68.6229 325.696 62.3272 325.696 56.075C325.696 59.8299 326.551 66.1293 326.551 69.8842V74.353C326.551 74.353 328.021 73.0554 328.793 71.9786C329.764 70.6261 330.793 68.0027 330.793 68.0027C330.793 68.0027 329.635 71.4925 328.793 73.304C328.072 74.8566 326.793 76.6172 326.793 76.6172L327.18 82.4747C327.18 84.172 327.358 85.7036 327.358 87.7759C327.358 89.8482 327.21 91.0052 327.18 93.0771C327.158 94.6295 327.153 95.5008 327.18 97.053C327.212 98.8664 327.358 100.688 327.358 101.692C327.358 103.888 327.182 105.042 327.18 107.191C327.178 109.682 327.419 111.072 327.406 113.563C327.401 114.473 327.444 115.934 327.18 115.934C326.373 115.934 324.37 116.412 324.298 115.607C324.187 114.354 324.188 113.113 324.298 111.631C324.417 110.036 324.298 109.194 324.298 107.656C324.298 101.029 324.916 97.9431 324.798 91.7518C324.74 88.6601 325.127 86.3561 324.616 83.9852C324.439 83.1629 323.85 81.6571 323.298 80.4867C322.773 79.3725 322.288 78.9785 321.798 77.8361C321.441 77.0023 321.045 76.6052 320.8 75.8481C320.716 75.5871 321.454 75.9883 321.85 76.1817C322.598 76.5474 322.861 77.1516 323.559 77.6606C323.8 77.8361 324.828 78.9141 324.841 78.4472C324.855 77.9804 325.163 76.0315 325.281 74.7814Z" stroke="#B29172" stroke-width="3" stroke-linecap="round" stroke-linejoin="round"/>
<path d="M42.3962 116.276C43.6812 116.59 44.1731 116.329 45.3095 116.276C48.7341 116.115 46.6658 115.434 49.3882 115.046C52.4787 114.604 55.337 114.762 58.4777 112.909C60.2181 111.882 61.3629 111.291 62.4398 109.581C63.7027 107.576 63.6643 105.986 63.6076 103.64L63.6051 103.535C63.5757 102.311 63.5198 101.414 63.1908 100.427C62.9197 99.614 62.2801 99.0838 61.9736 98.3944C61.4257 97.1615 59.5201 96.3747 58.8402 95.0149C57.4952 92.3249 59.1913 89.3217 57.7267 86.1585C56.9288 84.4352 55.498 83.972 54.9817 82.1446C54.4669 80.3226 55.5744 79.1609 55.2148 77.302C54.8093 75.2062 53.5474 73.9414 52.7805 72.4076C51.8909 70.6284 52.061 69.1955 51.4987 67.1637C50.8882 64.958 51.5628 62.968 49.7507 61.5701C48.6183 60.6966 47.6616 60.6939 46.2418 60.5214C44.874 60.9516 43.7959 61.0263 42.9789 62.2046C42.0698 63.5157 43.3183 64.7941 42.7458 66.2833C42.1541 67.8225 41.0727 68.2404 40.0656 69.5462C39.0704 70.8364 37.9528 71.3308 37.6184 72.9256C37.278 74.5488 38.6729 75.4149 38.5507 77.069C38.3011 80.4448 34.2245 80.5291 32.9053 83.6466L32.8718 83.7259C32.0396 85.692 31.4224 87.1502 31.7788 89.1106C31.9223 89.8999 32.4823 90.2259 32.7758 90.8716C33.1767 91.7535 33.3715 92.9611 33.0736 93.9144C32.5232 95.6757 30.7824 96.1826 29.8107 97.9671C28.6329 100.13 27.7526 101.583 28.0628 104.027C28.3083 105.961 28.8117 107.176 30.2121 108.533C30.87 109.17 31.4296 109.29 32.1414 109.866C33.0028 110.564 33.3292 111.13 34.1742 111.847C36.1628 113.536 37.5185 114.221 39.8973 115.292C40.8537 115.722 41.3774 116.026 42.3962 116.276Z" fill="#B7C2B4"/>
<path d="M37.1897 116.351C38.4747 116.665 38.9665 116.404 40.103 116.351C43.5276 116.19 46.004 115.095 48.7264 114.706C51.8169 114.265 54.6752 114.422 57.8159 112.57C59.5563 111.543 60.7011 110.952 61.778 109.242C63.0409 107.237 63.0025 105.647 62.9459 103.3L62.9433 103.195C62.9139 101.971 62.858 101.075 62.529 100.088C62.2579 99.2746 61.6183 98.7444 61.3119 98.055C60.764 96.8222 58.8583 96.0353 58.1784 94.6755C56.8335 91.9855 58.5295 88.9823 57.0649 85.8191C56.267 84.0958 54.8363 83.6327 54.3199 81.8052C53.8051 79.9832 54.9126 78.8215 54.553 76.9626C54.1475 74.8668 52.8856 73.602 52.1188 72.0683C51.2291 70.289 51.3993 68.8561 50.8369 66.8243C50.2264 64.6186 50.901 62.6286 49.0889 61.2308C47.9565 60.3572 46.9998 60.3545 45.58 60.182C43.8108 59.967 42.7353 60.0616 41.0352 60.5963C39.6675 61.0265 38.5893 61.1013 37.7723 62.2795C36.8633 63.5906 38.1117 64.869 37.5393 66.3582C36.9476 67.8974 35.8662 68.3154 34.859 69.6211C33.8638 70.9113 32.7463 71.4058 32.4119 73.0005C32.0715 74.6238 33.4664 75.4899 33.3441 77.1439C33.0946 80.5198 29.0179 80.604 27.6988 83.7215L27.6652 83.8008C26.833 85.767 26.2158 87.2251 26.5723 89.1856C26.7158 89.9748 27.2758 90.3008 27.5693 90.9465C27.9702 91.8285 28.165 93.036 27.8671 93.9893C27.3167 95.7506 25.5759 96.2575 24.6042 98.042C23.4264 100.205 22.546 101.658 22.8562 104.102C23.1017 106.036 23.6052 107.251 25.0056 108.608C25.6635 109.245 26.223 109.365 26.9348 109.941C27.7963 110.639 28.1226 111.205 28.9677 111.922C30.9563 113.61 32.312 114.296 34.6907 115.366C35.6472 115.797 36.1709 116.101 37.1897 116.351Z" stroke="#4A5759" stroke-width="3" stroke-linecap="round" stroke-linejoin="round"/>
<path d="M42.2807 118.19C42.8616 113.543 42.6962 108.793 42.6962 104.075C42.6962 106.908 43.5509 111.661 43.5509 114.495V117.867C43.5509 117.867 45.0212 116.887 45.7935 116.075C46.7635 115.054 47.7935 113.075 47.7935 113.075C47.7935 113.075 46.6346 115.708 45.7935 117.075C45.0725 118.247 43.7935 119.575 43.7935 119.575L44.1801 123.995C44.1801 125.275 44.3582 126.431 44.3582 127.995C44.3582 129.558 44.2099 130.431 44.1801 131.995C44.1578 133.166 44.1527 133.823 44.1801 134.995C44.2122 136.363 44.3582 137.737 44.3582 138.495C44.3582 140.152 44.1822 141.022 44.1801 142.644C44.1777 144.524 44.4193 145.573 44.4057 147.452C44.4007 148.139 44.4445 149.241 44.1801 149.241C43.3729 149.241 41.3698 149.602 41.2983 148.995C41.1871 148.049 41.1878 147.112 41.2983 145.995C41.4174 144.791 41.2983 144.156 41.2983 142.995C41.2983 137.995 41.916 135.666 41.7983 130.995C41.7396 128.662 42.1271 126.923 41.6159 125.134C41.4387 124.514 40.85 123.378 40.2983 122.495C39.7732 121.654 39.2879 121.357 38.7983 120.495C38.4411 119.865 38.0449 119.566 37.8001 118.995C37.7157 118.798 38.4544 119.1 38.85 119.246C39.5979 119.522 39.8608 119.978 40.5594 120.362C40.8003 120.495 41.8275 121.308 41.8415 120.956C41.8555 120.604 42.1628 119.133 42.2807 118.19Z" stroke="#B29172" stroke-width="3" stroke-linecap="round" stroke-linejoin="round"/>
<path d="M104.396 147.276C105.681 147.59 106.173 147.329 107.31 147.276C110.734 147.115 108.666 146.434 111.388 146.046C114.479 145.604 117.337 145.762 120.478 143.909C122.218 142.882 123.363 142.291 124.44 140.581C125.703 138.576 125.664 136.986 125.608 134.64L125.605 134.535C125.576 133.311 125.52 132.414 125.191 131.427C124.92 130.614 124.28 130.084 123.974 129.394C123.426 128.162 121.52 127.375 120.84 126.015C119.495 123.325 121.191 120.322 119.727 117.158C118.929 115.435 117.498 114.972 116.982 113.145C116.467 111.323 117.574 110.161 117.215 108.302C116.809 106.206 115.547 104.941 114.781 103.408C113.891 101.628 114.061 100.195 113.499 98.1637C112.888 95.958 113.563 93.968 111.751 92.5701C110.618 91.6966 109.662 91.6938 108.242 91.5213C106.874 91.9515 105.796 92.0263 104.979 93.2046C104.07 94.5157 105.318 95.794 104.746 97.2832C104.154 98.8224 103.073 99.2404 102.066 100.546C101.07 101.836 99.9528 102.331 99.6184 103.926C99.278 105.549 100.673 106.415 100.551 108.069C100.301 111.445 96.2245 111.529 94.9053 114.647L94.8718 114.726C94.0396 116.692 93.4224 118.15 93.7788 120.111C93.9223 120.9 94.4823 121.226 94.7758 121.872C95.1767 122.753 95.3715 123.961 95.0736 124.914C94.5232 126.676 92.7824 127.183 91.8107 128.967C90.6329 131.13 89.7526 132.583 90.0628 135.027C90.3083 136.961 90.8117 138.176 92.2121 139.533C92.87 140.17 93.4296 140.29 94.1414 140.866C95.0028 141.564 95.3292 142.13 96.1742 142.847C98.1628 144.535 99.5185 145.221 101.897 146.292C102.854 146.722 103.377 147.026 104.396 147.276Z" fill="#E0BEA2"/>
<path d="M100.19 148.351C101.475 148.665 101.967 148.404 103.103 148.351C106.528 148.19 109.004 147.095 111.726 146.706C114.817 146.265 117.675 146.422 120.816 144.57C122.556 143.543 123.701 142.952 124.778 141.242C126.041 139.237 126.003 137.647 125.946 135.3L125.943 135.195C125.914 133.971 125.858 133.075 125.529 132.088C125.258 131.275 124.618 130.744 124.312 130.055C123.764 128.822 121.858 128.035 121.178 126.676C119.833 123.986 121.53 120.982 120.065 117.819C119.267 116.096 117.836 115.633 117.32 113.805C116.805 111.983 117.913 110.821 117.553 108.963C117.148 106.867 115.886 105.602 115.119 104.068C114.229 102.289 114.399 100.856 113.837 98.8243C113.226 96.6186 113.901 94.6286 112.089 93.2308C110.956 92.3572 110 92.3545 108.58 92.182C106.811 91.967 105.735 92.0616 104.035 92.5963C102.667 93.0265 101.589 93.1013 100.772 94.2795C99.8633 95.5906 101.112 96.869 100.539 98.3582C99.9476 99.8974 98.8662 100.315 97.859 101.621C96.8638 102.911 95.7463 103.406 95.4119 105.001C95.0715 106.624 96.4664 107.49 96.3441 109.144C96.0946 112.52 92.0179 112.604 90.6988 115.721L90.6652 115.801C89.833 117.767 89.2158 119.225 89.5723 121.186C89.7158 121.975 90.2758 122.301 90.5693 122.946C90.9702 123.828 91.165 125.036 90.8671 125.989C90.3167 127.751 88.5759 128.258 87.6042 130.042C86.4264 132.205 85.546 133.658 85.8562 136.102C86.1017 138.036 86.6052 139.251 88.0056 140.608C88.6635 141.245 89.223 141.365 89.9348 141.941C90.7963 142.639 91.1226 143.205 91.9677 143.922C93.9563 145.61 95.312 146.296 97.6907 147.366C98.6472 147.797 99.1709 148.101 100.19 148.351Z" stroke="#C4631F" stroke-width="3" stroke-linecap="round" stroke-linejoin="round"/>
<path d="M105.281 150.19C105.862 145.543 105.696 140.793 105.696 136.075C105.696 138.908 106.551 143.661 106.551 146.495V149.867L107.18 155.995C107.18 157.275 107.358 158.431 107.358 159.995C107.358 161.558 107.21 162.431 107.18 163.995C107.158 165.166 107.153 165.823 107.18 166.995C107.212 168.363 107.358 169.737 107.358 170.495C107.358 172.152 107.183 173.022 107.18 174.644C107.178 176.524 107.42 177.573 107.406 179.452C107.401 180.139 107.445 181.241 107.18 181.241C106.373 181.241 104.37 181.602 104.299 180.995C104.187 180.049 104.188 179.112 104.299 177.995C104.418 176.791 104.299 176.156 104.299 174.995C104.299 169.995 104.916 167.666 104.799 162.995C104.74 160.662 105.127 158.923 104.616 157.134C104.439 156.514 103.85 155.378 103.299 154.495C102.773 153.654 102.283 152.437 101.793 151.575C101.436 150.946 99.5398 142.646 99.295 142.075C99.2106 141.878 101.293 146.075 102.794 149.575C103.108 150.308 102.704 151.626 103.56 152.362C103.978 152.722 104.828 153.308 104.842 152.956C104.856 152.604 105.163 151.133 105.281 150.19Z" stroke="#B29172" stroke-width="3" stroke-linecap="round" stroke-linejoin="round"/>
<path d="M131.19 171.346C132.475 171.66 132.967 171.399 134.103 171.346C137.528 171.185 140.004 170.09 142.726 169.701C145.817 169.26 148.675 169.417 151.816 167.565C153.556 166.538 154.701 165.947 155.778 164.237C157.041 162.232 157.003 160.642 156.946 158.295L156.943 158.19C156.914 156.966 156.858 156.07 156.529 155.083C156.258 154.27 155.618 153.739 155.312 153.05C154.764 151.817 152.858 151.03 152.178 149.671C150.833 146.981 152.53 143.977 151.065 140.814C150.267 139.091 148.836 138.628 148.32 136.8C147.805 134.978 148.913 133.817 148.553 131.958C148.148 129.862 146.886 128.597 146.119 127.063C145.229 125.284 145.399 123.851 144.837 121.819C144.226 119.614 144.901 117.624 143.089 116.226C141.956 115.352 141 115.35 139.58 115.177C137.811 114.962 136.735 115.057 135.035 115.591C133.667 116.022 132.589 116.096 131.772 117.275C130.863 118.586 132.112 119.864 131.539 121.353C130.948 122.892 129.866 123.31 128.859 124.616C127.864 125.906 126.746 126.401 126.412 127.996C126.071 129.619 127.466 130.485 127.344 132.139C127.095 135.515 123.018 135.599 121.699 138.717L121.665 138.796C120.833 140.762 120.216 142.22 120.572 144.181C120.716 144.97 121.276 145.296 121.569 145.942C121.97 146.824 122.165 148.031 121.867 148.984C121.317 150.746 119.576 151.253 118.604 153.037C117.426 155.2 116.546 156.653 116.856 159.097C117.102 161.031 117.605 162.246 119.006 163.603C119.663 164.24 120.223 164.36 120.935 164.936C121.796 165.634 122.123 166.2 122.968 166.917C124.956 168.605 126.312 169.291 128.691 170.362C129.647 170.792 130.171 171.096 131.19 171.346Z" fill="#F9F6EF" stroke="#4A5759" stroke-width="3" stroke-linecap="round" stroke-linejoin="round"/>
<path d="M139.31 172.276C138.173 172.329 137.681 172.59 136.396 172.276C135.377 172.026 134.854 171.722 133.897 171.292C131.519 170.221 130.163 169.535 128.174 167.847C127.329 167.13 127.003 166.564 126.141 165.866C125.43 165.29 124.87 165.17 124.212 164.533C122.812 163.176 122.308 161.961 122.063 160.027C121.753 157.583 122.633 156.13 123.811 153.967C124.782 152.183 126.523 151.676 127.074 149.914C127.372 148.961 127.177 147.754 126.776 146.872C126.482 146.226 125.922 145.9 125.779 145.111C125.422 143.15 126.04 141.692 126.872 139.726L126.905 139.647C128.224 136.529 132.301 136.445 132.551 133.069C132.673 131.415 131.278 130.549 131.618 128.926C131.953 127.331 133.07 126.836 134.066 125.546C135.073 124.24 136.154 123.822 136.746 122.283C137.318 120.794 136.07 119.516 136.979 118.205C137.796 117.026 138.874 116.952 140.242 116.521C140.798 116.346 140.701 116.204 140.38 116.1C140.049 116.057 139.696 116.023 139.31 115.976C138.12 115.831 139.721 115.886 140.38 116.1C141.264 116.215 141.995 116.389 142.818 117.025C144.631 118.422 143.956 120.413 144.566 122.618C145.129 124.65 144.959 126.083 145.848 127.862C146.615 129.396 147.877 130.661 148.283 132.756C148.642 134.615 147.535 135.777 148.049 137.599C148.566 139.427 149.997 139.89 150.794 141.613C152.259 144.776 150.563 147.779 151.908 150.469C152.588 151.829 154.493 152.616 155.041 153.849C155.348 154.538 155.987 155.068 156.259 155.882C156.588 156.869 156.643 157.765 156.673 158.989L156.675 159.094C156.732 161.441 156.77 163.031 155.508 165.036C154.431 166.746 153.286 167.337 151.545 168.364C148.405 170.216 145.546 170.058 142.456 170.5C139.734 170.889 142.734 172.115 139.31 172.276Z" fill="#B7C2B4"/>
<path d="M131.19 171.351C132.475 171.665 132.967 171.404 134.103 171.351C137.528 171.19 140.004 170.095 142.726 169.706C145.817 169.265 148.675 169.422 151.816 167.57C153.556 166.543 154.701 165.952 155.778 164.242C157.041 162.237 157.003 160.647 156.946 158.3L156.943 158.195C156.914 156.971 156.858 156.075 156.529 155.088C156.258 154.275 155.618 153.744 155.312 153.055C154.764 151.822 152.858 151.035 152.178 149.676C150.833 146.986 152.53 143.982 151.065 140.819C150.267 139.096 148.836 138.633 148.32 136.805C147.805 134.983 148.913 133.821 148.553 131.963C148.148 129.867 146.886 128.602 146.119 127.068C145.229 125.289 145.399 123.856 144.837 121.824C144.226 119.619 144.901 117.629 143.089 116.231C141.956 115.357 141 115.354 139.58 115.182C137.811 114.967 136.735 115.062 135.035 115.596C133.667 116.026 132.589 116.101 131.772 117.28C130.863 118.591 132.112 119.869 131.539 121.358C130.948 122.897 129.866 123.315 128.859 124.621C127.864 125.911 126.746 126.406 126.412 128.001C126.071 129.624 127.466 130.49 127.344 132.144C127.095 135.52 123.018 135.604 121.699 138.721L121.665 138.801C120.833 140.767 120.216 142.225 120.572 144.186C120.716 144.975 121.276 145.301 121.569 145.946C121.97 146.828 122.165 148.036 121.867 148.989C121.317 150.751 119.576 151.258 118.604 153.042C117.426 155.205 116.546 156.658 116.856 159.102C117.102 161.036 117.605 162.251 119.006 163.608C119.663 164.245 120.223 164.365 120.935 164.941C121.796 165.639 122.123 166.205 122.968 166.922C124.956 168.61 126.312 169.296 128.691 170.366C129.647 170.797 130.171 171.101 131.19 171.351Z" stroke="#4A5759" stroke-width="3" stroke-linecap="round" stroke-linejoin="round"/>
<path d="M136.281 173.19C136.862 168.543 136.696 163.793 136.696 159.075C136.696 161.908 137.551 166.661 137.551 169.495V172.867C137.551 172.867 139.021 171.887 139.793 171.075C140.764 170.054 141.793 168.075 141.793 168.075C141.793 168.075 140.635 170.708 139.793 172.075C139.072 173.247 137.793 174.575 137.793 174.575L138.18 178.995C138.18 180.275 138.358 181.431 138.358 182.995C138.358 184.558 138.21 185.431 138.18 186.995C138.158 188.166 138.153 188.823 138.18 189.995C138.212 191.363 138.358 192.737 138.358 193.495C138.358 195.152 138.182 196.022 138.18 197.644C138.178 199.524 138.419 200.573 138.406 202.452C138.401 203.139 138.444 204.241 138.18 204.241C137.373 204.241 135.37 204.602 135.298 203.995C135.187 203.049 135.188 202.112 135.298 200.995C135.417 199.791 135.298 199.156 135.298 197.995C135.298 192.995 135.916 190.666 135.798 185.995C135.74 183.662 136.127 181.923 135.616 180.134C135.439 179.514 134.85 178.378 134.298 177.495C133.773 176.654 133.288 176.357 132.798 175.495C132.441 174.865 132.045 174.566 131.8 173.995C131.716 173.798 132.454 174.1 132.85 174.246C133.598 174.522 133.861 174.978 134.559 175.362C134.8 175.495 135.828 176.308 135.841 175.956C135.855 175.604 136.163 174.133 136.281 173.19Z" stroke="#B29172" stroke-width="3" stroke-linecap="round" stroke-linejoin="round"/>
<path d="M233.19 181.346C234.475 181.66 234.967 181.399 236.103 181.346C239.528 181.185 242.004 180.09 244.726 179.701C247.817 179.26 250.675 179.417 253.816 177.565C255.556 176.538 256.701 175.947 257.778 174.237C259.041 172.232 259.003 170.642 258.946 168.295L258.943 168.19C258.914 166.966 258.858 166.07 258.529 165.083C258.258 164.27 257.618 163.739 257.312 163.05C256.764 161.817 254.858 161.03 254.178 159.671C252.833 156.981 254.53 153.977 253.065 150.814C252.267 149.091 250.836 148.628 250.32 146.8C249.805 144.978 250.913 143.817 250.553 141.958C250.148 139.862 248.886 138.597 248.119 137.063C247.229 135.284 247.399 133.851 246.837 131.819C246.226 129.614 246.901 127.624 245.089 126.226C243.956 125.352 243 125.35 241.58 125.177C239.811 124.962 238.735 125.057 237.035 125.591C235.667 126.022 234.589 126.096 233.772 127.275C232.863 128.586 234.112 129.864 233.539 131.353C232.948 132.892 231.866 133.31 230.859 134.616C229.864 135.906 228.746 136.401 228.412 137.996C228.071 139.619 229.466 140.485 229.344 142.139C229.095 145.515 225.018 145.599 223.699 148.717L223.665 148.796C222.833 150.762 222.216 152.22 222.572 154.181C222.716 154.97 223.276 155.296 223.569 155.942C223.97 156.824 224.165 158.031 223.867 158.984C223.317 160.746 221.576 161.253 220.604 163.037C219.426 165.2 218.546 166.653 218.856 169.097C219.102 171.031 219.605 172.246 221.006 173.603C221.663 174.24 222.223 174.36 222.935 174.936C223.796 175.634 224.123 176.2 224.968 176.917C226.956 178.605 228.312 179.291 230.691 180.362C231.647 180.792 232.171 181.096 233.19 181.346Z" fill="#F9F6EF" stroke="#CB906D" stroke-width="3" stroke-linecap="round" stroke-linejoin="round"/>
<path d="M237.396 181.276C238.681 181.59 239.173 181.329 240.31 181.276C243.734 181.115 241.666 180.434 244.388 180.046C247.479 179.604 250.337 179.762 253.478 177.909C255.218 176.883 256.363 176.291 257.44 174.582C258.703 172.576 258.664 170.986 258.608 168.64L258.605 168.535C258.576 167.311 258.52 166.414 258.191 165.427C257.92 164.614 257.28 164.084 256.974 163.394C256.426 162.162 254.52 161.375 253.84 160.015C252.495 157.325 254.191 154.322 252.727 151.159C251.929 149.435 250.498 148.972 249.982 147.145C249.467 145.323 250.574 144.161 250.215 142.302C249.809 140.206 248.547 138.941 247.781 137.408C246.891 135.628 247.061 134.196 246.499 132.164C245.888 129.958 246.563 127.968 244.751 126.57C243.618 125.697 242.662 125.694 241.242 125.521C239.874 125.952 238.796 126.026 237.979 127.205C237.07 128.516 238.318 129.794 237.746 131.283C237.154 132.822 236.073 133.24 235.066 134.546C234.07 135.836 232.953 136.331 232.618 137.926C232.278 139.549 233.673 140.415 233.551 142.069C233.301 145.445 229.224 145.529 227.905 148.647L227.872 148.726C227.04 150.692 226.422 152.15 226.779 154.111C226.922 154.9 227.482 155.226 227.776 155.872C228.177 156.754 228.372 157.961 228.074 158.914C227.523 160.676 225.782 161.183 224.811 162.967C223.633 165.13 222.753 166.583 223.063 169.027C223.308 170.961 223.812 172.176 225.212 173.533C225.87 174.17 226.43 174.29 227.141 174.866C228.003 175.564 228.329 176.13 229.174 176.847C231.163 178.536 232.519 179.221 234.897 180.292C235.854 180.722 236.377 181.026 237.396 181.276Z" fill="#C8BFB6"/>
<path d="M233.19 181.351C234.475 181.665 234.967 181.404 236.103 181.351C239.528 181.19 242.004 180.095 244.726 179.706C247.817 179.265 250.675 179.422 253.816 177.57C255.556 176.543 256.701 175.952 257.778 174.242C259.041 172.237 259.003 170.647 258.946 168.3L258.943 168.195C258.914 166.971 258.858 166.075 258.529 165.088C258.258 164.275 257.618 163.744 257.312 163.055C256.764 161.822 254.858 161.035 254.178 159.676C252.833 156.986 254.53 153.982 253.065 150.819C252.267 149.096 250.836 148.633 250.32 146.805C249.805 144.983 250.913 143.821 250.553 141.963C250.148 139.867 248.886 138.602 248.119 137.068C247.229 135.289 247.399 133.856 246.837 131.824C246.226 129.619 246.901 127.629 245.089 126.231C243.956 125.357 243 125.354 241.58 125.182C239.811 124.967 238.735 125.062 237.035 125.596C235.667 126.026 234.589 126.101 233.772 127.28C232.863 128.591 234.112 129.869 233.539 131.358C232.948 132.897 231.866 133.315 230.859 134.621C229.864 135.911 228.746 136.406 228.412 138.001C228.071 139.624 229.466 140.49 229.344 142.144C229.095 145.52 225.018 145.604 223.699 148.721L223.665 148.801C222.833 150.767 222.216 152.225 222.572 154.186C222.716 154.975 223.276 155.301 223.569 155.946C223.97 156.828 224.165 158.036 223.867 158.989C223.317 160.751 221.576 161.258 220.604 163.042C219.426 165.205 218.546 166.658 218.856 169.102C219.102 171.036 219.605 172.251 221.006 173.608C221.663 174.245 222.223 174.365 222.935 174.941C223.796 175.639 224.123 176.205 224.968 176.922C226.956 178.61 228.312 179.296 230.691 180.366C231.647 180.797 232.171 181.101 233.19 181.351Z" stroke="#CB906D" stroke-width="3" stroke-linecap="round" stroke-linejoin="round"/>
<path d="M236.865 183.546C237.392 179.44 237.242 175.243 237.242 171.075C237.242 173.578 238.017 177.778 238.017 180.281C238.017 183.098 238.588 185.868 238.588 188.675C238.588 189.806 238.75 190.827 238.75 192.209C238.75 193.59 238.615 194.362 238.588 195.743C238.568 196.778 238.563 197.359 238.588 198.394C238.617 199.603 238.75 200.817 238.75 201.486C238.75 202.95 238.59 203.719 238.588 205.153C238.586 206.813 238.805 207.74 238.793 209.4C238.788 210.007 238.828 210.981 238.588 210.981C237.856 210.981 236.038 211.3 235.974 210.763C235.873 209.927 235.873 209.1 235.974 208.113C236.082 207.049 235.974 206.488 235.974 205.462C235.974 201.044 236.534 198.987 236.427 194.86C236.374 192.798 236.725 191.262 236.262 189.682C236.101 189.134 235.567 188.13 235.066 187.349C234.59 186.607 234.149 186.344 233.705 185.582C233.381 185.026 233.022 184.762 232.799 184.257C232.723 184.083 233.393 184.35 233.752 184.479C234.431 184.723 234.669 185.126 235.303 185.465C235.522 185.582 236.454 186.301 236.466 185.99C236.479 185.679 236.758 184.379 236.865 183.546Z" stroke="#B29172" stroke-width="3" stroke-linecap="round" stroke-linejoin="round"/>
</svg>
