<svg width="178" height="150" viewBox="0 0 178 150" fill="none" xmlns="http://www.w3.org/2000/svg">
<g clip-path="url(#clip0)">
<path d="M8.02415 33.4963L2.47109 41.2686V59.4044L1.96631 81.1672L3.48064 97.7484L5.87947 106.527L13.5689 115.138L25.8024 126.977L39.1601 142.401L45.7479 147.05L54.8128 145.991L80.6778 140.61L107.242 133.076L133.106 128.771L153.379 121.954L164.913 118.725L173.302 110.474L175.049 96.482L174.001 72.8037L175.049 45.8966L173.651 35.8511L162.117 27.2409L148.136 16.4779L135.553 7.15018L126.815 2.84483L117.727 2.48633L105.144 6.79143L83.4739 10.7378L63.2015 15.7604L47.4729 20.0655L34.1908 24.0121L17.1109 28.8327L8.02415 33.4963Z" fill="white"/>
<path d="M170.855 36.5492C171.558 37.3727 172.42 38.4194 172.938 40.2044C173.19 41.7205 173.277 45.3757 173.199 51.1701L176.276 51.4311C176.332 46.4086 176.332 43.5004 176.276 42.7067C176.13 40.6086 175.884 37.5855 174.835 35.5388C174.135 34.1742 173.207 33.0172 172.047 32.0677C171.442 31.062 137.396 6.65201 136.568 5.80791C135.125 4.34453 131.234 2.4631 129.318 1.68924C127.389 0.91512 125.326 0.514885 123.239 0.519324C123.239 0.519324 123.239 0.519324 123.234 0.519324H123.167C121.692 0.523762 120.226 0.701849 118.796 1.04857L17.8073 25.2447C17.7622 25.2536 17.7219 25.2625 17.6769 25.2758C15.1679 25.894 12.7934 26.9528 10.6618 28.3937C8.5618 29.8127 6.69584 31.5429 5.13084 33.5222C3.55257 35.4968 2.2979 37.703 1.40749 40.0604C0.490251 42.4487 0.0135385 44.9798 0 47.5371C0 47.5415 0 47.5459 0 47.5503V47.5994L0.0046878 47.795L0.566541 97.575C0.575653 99.7322 0.98492 101.871 1.76287 103.886C2.52285 105.817 3.66035 107.574 5.1173 109.064C6.56097 110.522 7.73101 111.767 9.09711 112.944C9.20515 112.988 11.2633 115.041 13.4341 117.242C19.4616 123.353 31.2875 135.965 35.7982 140.626C36.8662 141.729 39.6928 144.335 39.7665 144.355C40.9914 145.427 44.0957 147.402 47.2012 147.772C49.4262 148.033 48.7649 147.935 50.8316 148.033V144.466C46.5748 144.75 42.3727 142.306 38.2174 137.124L26.4454 124.698C25.0515 123.3 10.2135 108.062 9.46081 107.301C8.4311 106.247 6.49797 103.655 5.96268 102.285C5.37375 100.773 5.07251 99.1667 5.0634 97.5482C5.0634 97.5437 5.0634 97.5392 5.0634 97.5304L4.5013 47.7151L4.49687 47.5459C4.51041 45.5222 4.88818 43.5207 5.61666 41.6261C6.34513 39.6956 7.37484 37.8855 8.66542 36.2709C9.94686 34.6475 11.476 33.2285 13.1983 32.0677C14.8259 30.9646 16.6337 30.1461 18.5402 29.648L119.862 5.37186C119.862 5.37186 119.866 5.3719 119.871 5.36746C120.95 5.10507 122.061 4.9716 123.176 4.96716H123.243C124.746 4.96716 126.233 5.25181 127.628 5.80791C128.676 6.23375 133.708 9.01745 134.562 9.75398L156.21 25.5517L161.824 29.648L169.822 35.5388L170.855 36.5492Z" fill="#2E2E2E"/>
<path fill-rule="evenodd" clip-rule="evenodd" d="M169.238 41.4217C167.083 38.9966 163.588 37.7875 159.404 38.8079L53.7812 64.5672C46.5419 66.3327 40.6044 74.0043 40.6884 81.5314L41.2795 134.499C41.3205 138.17 42.7785 140.953 44.9118 142.623C47.0432 144.292 50.0698 145.025 53.5986 144.164L159.222 118.405C166.461 116.639 172.398 108.968 172.315 101.44L171.724 48.4729C171.69 45.4945 170.722 43.1038 169.238 41.4217ZM158.282 34.2071C163.997 32.8133 169.347 34.4122 172.782 38.2796L172.786 38.2848C175.095 40.9004 176.414 44.4179 176.459 48.4199L177.05 101.388C177.158 111.097 169.743 120.714 160.344 123.006L54.7206 148.765C49.9302 149.933 45.381 149.006 41.9924 146.353C38.6057 143.7 36.5994 139.499 36.5441 134.552L35.9531 81.5842C35.8447 71.875 43.2596 62.2587 52.6592 59.9665L124.596 42.4225L158.282 34.2071Z" fill="#2E2E2E"/>
<path fill-rule="evenodd" clip-rule="evenodd" d="M171.011 39.8518C172.908 42.0007 174.053 44.9553 174.091 48.4463L174.683 101.414C174.778 110.033 168.103 118.677 159.783 120.706L106.971 133.585L54.1598 146.465C45.8408 148.493 39.0083 143.144 38.9121 134.526L38.3211 81.5578C38.2249 72.9396 44.9011 64.2956 53.2205 62.2667L125.157 44.7228L158.844 36.5074C163.793 35.3002 168.216 36.7048 171.011 39.8518ZM50.2672 79.9498C50.2672 76.965 52.744 73.8387 55.7512 73.0283C58.7582 72.2179 61.2354 74.0091 61.2354 76.9942V78.8086L64.8912 77.8235V76.0089C64.8912 73.0238 67.3683 69.8978 70.3754 69.0875C73.3826 68.277 75.8595 70.0683 75.8595 73.0532C75.8595 76.0381 73.3826 79.1645 70.3754 79.9746L68.5473 80.4673V84.0963L70.3754 83.6038C73.3826 82.7934 75.8595 84.5846 75.8595 87.5697C75.8595 90.5545 73.3826 93.6807 70.3754 94.4908C67.3683 95.3013 64.8912 93.5101 64.8912 90.5253V88.7108L61.2354 89.6958V91.5106C61.2354 94.4954 58.7582 97.6216 55.7512 98.432C52.744 99.2425 50.2672 97.4509 50.2672 94.4661C50.2672 91.4813 52.744 88.355 55.7512 87.5446L57.5793 87.0521V83.4229L55.7512 83.9157C52.744 84.7258 50.2672 82.9346 50.2672 79.9498ZM57.5793 77.9792C57.5793 76.954 56.7841 76.379 55.7513 76.6575C54.7185 76.9357 53.9232 77.9393 53.9232 78.9644C53.9232 79.9896 54.7185 80.5648 55.7513 80.2864L57.5793 79.7939V77.9792ZM70.375 72.7164C71.4077 72.4381 72.203 73.0131 72.203 74.0383C72.203 75.0636 71.4077 76.0673 70.375 76.3456L68.5469 76.8381V75.0236C68.5469 73.9984 69.3422 72.9948 70.375 72.7164ZM64.8914 81.4526L61.2356 82.4377V86.0668L64.8914 85.0815V81.4526ZM55.7513 91.1738L57.5793 90.681V92.4956C57.5793 93.5208 56.7841 94.5246 55.7513 94.8028C54.7185 95.081 53.9232 94.5061 53.9232 93.4809C53.9232 92.4556 54.7185 91.4521 55.7513 91.1738ZM70.375 87.2327L68.5469 87.7255V89.5399C68.5469 90.5651 69.3422 91.1401 70.375 90.8619C71.4077 90.5836 72.203 89.5799 72.203 88.5547C72.203 87.5295 71.4077 86.9545 70.375 87.2327ZM83.7361 118.901L80.3237 119.029C79.8941 121.705 78.6177 123.283 76.4946 123.764C73.5877 124.422 72.1343 122.907 72.1343 119.216C72.1343 115.425 73.5499 113.208 76.3807 112.567C77.4172 112.333 78.4029 112.337 79.3379 112.58L79.9066 115.257L83.1674 114.177L82.4848 109.555C81.4991 109.197 80.5007 109.006 79.4895 108.981C78.4786 108.958 77.4676 109.061 76.4565 109.289C73.9037 109.867 71.8374 111.169 70.2577 113.196C68.678 115.222 67.8881 117.613 67.8881 120.367C67.8881 123.173 68.6527 125.136 70.1818 126.255C71.711 127.375 73.6889 127.661 76.1153 127.111C78.6935 126.527 80.5639 125.402 81.7266 123.736C82.8892 122.069 83.5591 120.458 83.7361 118.901ZM117.176 117.431V114.322L114.673 114.889V106.737C114.673 104.639 114.092 103.229 112.93 102.506C111.766 101.785 110.414 101.598 108.873 101.947C107.483 102.262 106.307 102.875 105.347 103.788C104.387 104.7 103.653 105.796 103.148 107.072C102.743 105.85 102.035 105.044 101.024 104.653C100.013 104.264 98.8766 104.212 97.6124 104.498C96.3486 104.784 95.2744 105.318 94.3898 106.1C93.5052 106.882 92.7975 107.8 92.2666 108.855V106.05L85.7073 107.536V110.683L88.2099 110.115V120.883L85.6695 121.458V124.568L95.4513 122.352V119.242L92.2666 119.964V113.292C92.2918 112.122 92.6204 111.018 93.2524 109.978C93.8841 108.937 94.8572 108.268 96.1717 107.97C97.1827 107.742 97.9726 107.898 98.5412 108.438C99.1097 108.979 99.3939 110.059 99.3939 111.677V118.349L98.4842 118.556V121.665L105.992 119.964V116.856L103.451 117.431V110.796C103.476 109.627 103.799 108.518 104.418 107.468C105.037 106.418 106.016 105.741 107.357 105.437C108.392 105.202 109.195 105.355 109.764 105.897C110.333 106.438 110.617 107.517 110.617 109.135V115.807L109.669 116.022V119.131L117.176 117.431ZM138.37 112.63V109.521L135.867 110.088V87.1124L128.133 88.8643V91.9733L131.811 91.1402V99.747C131.305 98.9514 130.591 98.3862 129.669 98.0517C128.746 97.7173 127.615 97.7018 126.275 98.0053C123.646 98.6007 121.72 99.9663 120.493 102.101C119.267 104.237 118.654 106.518 118.654 108.944C118.654 111.598 119.305 113.537 120.607 114.758C121.908 115.979 123.672 116.338 125.896 115.835C127.438 115.486 128.683 114.844 129.63 113.908C130.578 112.973 131.305 111.955 131.811 110.856V114.116L138.37 112.63ZM131.811 104.638V105.927C131.785 107.196 131.355 108.494 130.521 109.82C129.687 111.147 128.575 111.967 127.185 112.283C125.997 112.551 124.98 112.314 124.133 111.571C123.286 110.827 122.863 109.559 122.863 107.764C122.863 105.995 123.286 104.502 124.133 103.286C124.98 102.071 126.086 101.309 127.45 101C128.664 100.724 129.687 100.91 130.521 101.555C131.355 102.201 131.785 103.227 131.811 104.638ZM140.265 101.661V105.073L149.213 103.046V99.6339L140.265 101.661ZM162.9 80.8946C162.091 80.8882 161.295 80.9738 160.512 81.1512C158.514 81.6036 156.935 82.6059 155.772 84.1582C154.609 85.7106 154.028 87.4094 154.028 89.2547V92.0602L151.791 92.5668V95.562L154.028 95.0554V105.975L151.488 106.55V109.659L161.27 107.443V104.335L158.047 105.064V94.1451L162.331 93.1746V90.1794L158.047 91.1498V87.7756C158.047 85.804 158.83 84.6408 160.398 84.2858C160.928 84.1656 161.446 84.1367 161.953 84.1991L162.748 86.7867L165.932 85.686L165.213 81.4892C164.48 81.099 163.709 80.9009 162.9 80.8946Z" fill="#2E2E2E"/>
</g>
<defs>
<clipPath id="clip0">
<rect width="178" height="149.481" fill="white" transform="translate(0 0.519287)"/>
</clipPath>
</defs>
</svg>
