<svg width="375" height="670" viewBox="0 0 375 670" fill="none" xmlns="http://www.w3.org/2000/svg">
<path d="M42.3354 19.1604C44.3185 15.9795 45.1311 14.9706 48.3292 12.6786C50.0834 12.1227 51.8822 11.0541 53.5432 10.3062C55.0386 9.6328 57.4194 9.76883 59.0504 9.68269C60.9966 9.5799 66.3776 11.7817 66.3776 11.7817C66.3776 11.7817 69.4278 13.9612 69.4278 14.9301C69.4278 15.899 71.1928 17.4118 71.9927 19.1604C73.2251 21.8545 73.8437 25.2023 73.8437 26.4744C73.8437 31.3392 74.506 31.7924 74.506 36.7594C74.506 38.1142 73.573 40.1155 73.1736 41.4442C73.0478 41.8627 72.2867 40.1473 71.9927 40.1309C70.0033 40.0196 68.2434 40.8001 66.3776 40.8934C59.5971 41.2327 51.2251 40.1309 44.3185 40.1309C42.1566 40.1309 42.3354 39.5321 42.3354 38.0189C42.3354 35.2824 42.2282 34.9511 41.395 32.3769L41.3868 32.3517C40.2538 28.8511 41.9308 22.6222 42.3354 19.1604Z" fill="#E6E4BA"/>
<path d="M88.1758 10.0054C88.2202 7.51778 87.1926 1.77227 90.2401 1.28168C90.1706 1.02951 90.3677 0.810663 90.4359 1.25794C90.4476 1.33451 90.4555 1.43061 90.4576 1.54941C90.6069 1.63335 90.8415 1.67484 91.1979 1.61544C91.7587 1.52198 93.6006 1.02537 94.1907 1.61544C95.2134 2.63814 95.2173 4.46937 96.4942 5.49092C97.3551 6.17964 98.8443 12.1921 97.9601 12.1921C98.1091 14.8739 98.4255 17.145 98.4255 19.8958C98.4255 22.3496 99.2074 23.7416 99.2074 26.1724C99.2074 27.6617 99.0175 29.2282 99.5033 30.6315C100.011 32.0975 101.159 31.6882 102.546 31.6882C104.942 31.6882 104.245 24.672 104.452 23.1714C104.583 22.2175 105.7 17.7188 107.174 17.6369C108.221 16.5898 109.943 18.7546 109.943 19.8958C110.747 21.2617 111 21.4711 111 23.1714C111 24.8691 109.943 26.6192 109.943 28.3169C109.943 29.5585 108.985 30.4845 108.717 31.6882C108.459 32.8505 107.665 33.5312 107.174 34.3899C106.235 36.0335 102.277 36.8797 103.614 39.8879C103.195 40.2534 99.251 40.215 97.5413 40.044C94.7446 39.7644 94.634 40.044 91.8871 40.044C90.1961 40.044 88.9155 39.8879 88.9155 39.8879C88.3831 36.9595 88.1758 33.6589 88.1758 30.6315C88.1758 26.658 87.7954 22.6795 87.7954 18.7546C87.7954 15.8198 88.1237 12.9231 88.1758 10.0054Z" fill="#C6D0A9"/>
<path d="M87.5003 40.8129C87.5003 38.3577 87.791 32.6206 87.791 28.472C87.791 24.3385 88.1069 20.0482 87.5003 15.9534C87.0078 12.6295 85.9298 3.67152 90.117 1.78727C99.9106 -2.61985 98.383 24.476 98.5489 28.9566C98.5993 30.3162 99.1444 32.5733 100.875 32.381C102.369 32.215 102.554 24.4572 102.636 23.3192C102.735 21.9225 102.716 19.6356 103.556 18.4249C104.228 17.4581 105.124 16.7929 105.947 15.9696C108.525 13.3912 110.191 20.3617 110.405 21.6878C110.91 24.818 110.859 27.3752 109.888 30.3458C109.334 32.0422 108.337 34.492 106.545 35.2886C105.247 35.8655 104.245 37.0865 103.782 38.3577C103.533 39.044 103.08 41.5042 102.619 40.8129" stroke="#376C36" stroke-width="2" stroke-linecap="round" stroke-linejoin="round"/>
<path d="M91.3939 7.58521C91.3939 12.5711 91.3702 17.5577 91.3939 22.5436C91.4111 26.1658 91.6963 29.6521 91.1599 33.2538C90.7941 35.7096 90.4219 37.9966 90.4219 40.472" stroke="#7C9F6B" stroke-width="1.5" stroke-linecap="round" stroke-linejoin="round"/>
<path d="M94.7959 12.2832C95.6403 17.5524 95.3486 22.8291 95.5699 28.1416C95.6814 30.8172 95.6059 33.5099 95.6059 36.1878C95.6059 37.6622 95.7679 39.2118 95.7679 40.6339" stroke="#7C9F6B" stroke-width="1.5" stroke-linecap="round" stroke-linejoin="round"/>
<path d="M107.27 22.6514C107.62 25.688 107.797 28.8166 106.172 31.5616C105.116 33.3451 103.717 34.6845 102.428 36.2597C101.731 37.1108 101.236 38.1134 101.105 39.1668C101.056 39.5576 100.952 40.7575 100.952 39.6618" stroke="#7C9F6B" stroke-width="1.5" stroke-linecap="round" stroke-linejoin="round"/>
<path d="M58.0619 8.59448C54.8699 10.2231 52.1112 12.1151 50.541 15.4998C48.7037 19.4603 47.5524 24.0844 47.7173 28.4539C47.8127 30.9816 48.0414 34.0077 48.7745 36.4165C49.0195 37.2215 49.1492 38.5809 49.1492 39.4275" stroke="#C4CF81" stroke-width="1.5" stroke-linecap="round" stroke-linejoin="round"/>
<path d="M59.7483 8.59448C59.7483 12.3708 56.5145 14.637 56.135 18.3369C55.7672 21.9228 55.2437 25.7821 55.8406 29.3639C56.2428 31.7772 56.0348 34.2691 56.7372 36.6573C56.998 37.544 56.8577 40.3517 56.8577 39.4275" stroke="#C4CF81" stroke-width="1.5" stroke-linecap="round" stroke-linejoin="round"/>
<path d="M61.916 8.59448C65.4736 10.7569 65.4321 16.1445 65.275 19.8357C65.1252 23.3561 64.1303 26.7546 64.084 30.2739C64.0438 33.3249 64.084 42.4787 64.084 39.4275" stroke="#C4CF81" stroke-width="1.5" stroke-linecap="round" stroke-linejoin="round"/>
<path d="M67.1772 9.67944C72.622 14.7053 71.6224 18.7148 71.6224 22.663C71.6224 25.638 71.3237 29.2439 70.8287 32.2143C70.3881 34.8576 69.6243 37.4778 69.6243 40.1501" stroke="#C4CF81" stroke-width="1.5" stroke-linecap="round" stroke-linejoin="round"/>
<path d="M44.7191 40.4087C44.7191 40.4087 44.0369 36.9632 43.8416 34.834C43.5926 32.12 43.5112 29.4787 43.5112 26.7507C43.5112 24.8197 44.2952 22.8016 44.7191 20.9179C45.2005 18.7781 46.192 17.1978 47.4548 15.4257C50.2488 11.5052 54.7157 8.44384 59.6366 8.25086C61.8981 8.16218 63.6397 7.9938 65.7482 8.90125C66.6183 9.27575 68.261 10.0198 69.0616 10.5167C69.8623 11.0136 70.3143 11.7112 71.0958 12.6177C73.8977 15.868 75.6824 19.983 76.2575 24.2008C76.687 27.3499 76.8099 30.7961 76.8099 33.9709C76.8099 35.3961 76.2575 38.3686 76.2575 38.3686C76.2575 38.8491 75.7628 40.4087 75.7628 40.4087" stroke="#728736" stroke-width="2" stroke-linecap="round" stroke-linejoin="round"/>
<path d="M52.8688 12.2152C52.1155 11.3004 50.7934 10.1045 50.2725 9.0625" stroke="#728736" stroke-width="1.5" stroke-linecap="round" stroke-linejoin="round"/>
<path d="M62.3271 9.80439C62.5818 8.58795 63.069 7.13627 63.069 5.90991" stroke="#728736" stroke-width="1.5" stroke-linecap="round" stroke-linejoin="round"/>
<path d="M73.2686 15.3679C73.8448 14.6209 74.4843 13.8394 75.1643 13.1837C75.3892 12.9668 75.8141 12.957 75.3085 12.957" stroke="#728736" stroke-width="1.5" stroke-linecap="round" stroke-linejoin="round"/>
<path d="M48.0471 20.7459C46.9193 19.9498 46.072 18.6509 44.7502 18.1702C44.4238 18.0515 43.9292 17.8881 43.7817 17.5933" stroke="#728736" stroke-width="1.5" stroke-linecap="round" stroke-linejoin="round"/>
<path d="M46.9344 30.9458C44.9459 31.1813 43.0097 31.8731 41 31.8731" stroke="#728736" stroke-width="1.5" stroke-linecap="round" stroke-linejoin="round"/>
<path d="M77.1631 25.7531C77.8437 25.6265 79.0877 25.683 79.574 25.1968" stroke="#728736" stroke-width="1.5" stroke-linecap="round" stroke-linejoin="round"/>
<path d="M61.0008 19.9725C60.5977 18.3364 60.3171 16.3119 59.3652 14.884" stroke="#728736" stroke-width="1.5" stroke-linecap="round" stroke-linejoin="round"/>
<path d="M68.8154 23.425C70.1707 22.5934 71.4256 21.6459 72.7125 20.7193C73.1195 20.4262 73.6366 20.3732 73.9039 19.9722" stroke="#728736" stroke-width="1.5" stroke-linecap="round" stroke-linejoin="round"/>
<path d="M68.0889 32.3301C69.7411 32.3301 71.2226 32.3979 72.8139 32.8753" stroke="#728736" stroke-width="1.5" stroke-linecap="round" stroke-linejoin="round"/>
<path d="M56.5634 28.4332C55.1975 27.1931 53.8461 26.0192 52.4355 24.8438" stroke="#728736" stroke-width="1.5" stroke-linecap="round" stroke-linejoin="round"/>
<path d="M369.503 48.2509C365.788 49.2601 362.83 55.7112 361.975 59.1624C356.355 62.5828 358.303 62.3383 364.662 61.1169C367.582 60.556 371.565 60.7013 374.299 59.651C377.38 58.4674 379.23 55.8861 381.891 53.5859C384.492 51.338 387.137 50.033 389.928 48.059C392.086 46.533 399.274 44.2593 393.48 44.2593C390.002 44.2593 386.891 44.9501 383.49 44.9501C380.166 44.9501 377.588 44.6156 374.299 44.9501C372.722 45.1104 371.41 47.733 369.503 48.2509Z" fill="#B1C9AB"/>
<path d="M335.5 170.5C335.5 164.776 339.5 166.5 342.635 163.973C344.384 168.37 350.98 164.898 358.31 168.37C362.952 170.569 362.838 174.827 364.662 176.677C366.055 178.09 361.143 181.92 362.952 183.029C364.194 183.791 364.176 186.169 365.395 186.938C366.94 187.913 377.122 190.255 377.122 191.824C368.082 191.824 350.536 190.792 348.327 187.742C347.403 186.467 344.601 186.762 343.041 185.778C341.966 185.099 335.5 171.571 335.5 170.5Z" fill="#93BB94"/>
<path d="M342.29 43.873C343.281 43.1145 344.142 42.1874 345.186 41.4977C346.232 40.807 347.592 40.5303 348.791 40.2216C351.097 39.6281 353.551 40.2714 355.451 41.6188C357.294 42.9257 359.598 44.3491 360.528 46.5183C361.197 48.0806 360.989 50.2671 360.891 51.9302C360.772 53.9559 359.726 55.9463 359.093 57.845C358.454 59.7627 357.951 61.3236 356.783 63.0054C355.801 64.4198 354.804 65.7592 353.728 67.1039C353.245 67.7072 352.968 68.4571 352.526 69.0972C352.117 69.6913 351.583 70.239 351.26 70.8856C349.637 74.1303 349.331 77.1043 349.331 80.6847C349.331 84.5302 351.423 87.5299 354.986 88.9841C357.606 90.0538 360.543 90.5278 363.266 91.3221C364.402 91.6534 365.467 92.165 366.498 92.738C367.555 93.3248 368.713 93.6606 369.675 94.4146C371.307 95.6941 373.254 96.9299 374.276 98.8112C374.758 99.6987 374.737 100.662 374.91 101.624C375.073 102.534 375.413 103.39 375.571 104.307C375.911 106.277 375.339 108.961 374.481 110.771C373.498 112.847 372.054 114.44 370.662 116.23C369.989 117.095 369.084 117.917 368.268 118.652C367.249 119.569 366.05 120.015 364.924 120.794C362.327 122.592 358.949 122.806 356.113 124.147C353.68 125.297 351.21 126.246 349.108 127.966C347.754 129.074 346.6 130.441 345.68 131.897C344.347 134.008 343.062 135.951 342.29 138.268" stroke="#4A5759" stroke-width="2" stroke-linecap="round" stroke-linejoin="round"/>
<path d="M361.539 121.545C363.725 116.627 370.099 110.957 376.633 122.684C378.672 124.043 377.611 116.332 385.436 119.453C388.377 119.453 393.935 127.371 392.758 128.547L384.94 136.365C383.425 137.881 380.481 141.925 379.809 143.939C378.892 146.691 378.547 149.435 377.611 152.246C376.172 156.561 371.258 147.739 371.258 145.894C371.258 144.408 368.732 142.179 368.327 141.007C367.906 139.791 365.305 138.04 364.662 136.882C363.708 135.166 361.565 133.61 360.509 131.968C358.57 128.952 359.462 126.217 361.539 121.545Z" fill="#93BB94"/>
<path d="M374.766 99.2705C377.682 99.3199 380.495 99.7885 383.289 100.574C385.159 101.1 386.114 101.494 387.587 102.699C389.169 103.994 391.137 104.55 392.368 106.273C393.487 107.84 395.1 108.881 396.279 110.401C397.241 111.641 398.234 113.079 398.935 114.482C400.429 117.47 402.047 119.913 404.754 121.882C405.696 122.567 406.587 123.56 407.712 123.934C409.004 124.365 410.367 124.478 411.72 124.478C414.227 124.478 417.55 123.467 419.531 121.846C421.519 120.219 423.475 118.586 424.879 116.425C425.472 115.513 426.612 115.023 427.462 114.373C428.312 113.723 429.091 113.7 429.961 113.178" stroke="#4A5759" stroke-width="2" stroke-linecap="round" stroke-linejoin="round"/>
<path d="M342.439 66.4917C344.12 68.2064 346.142 72.0104 348.147 73.3551C349.793 74.4591 351.555 75.2344 352.501 77.0559C353.073 78.1582 353.775 78.9046 354.025 80.152C354.211 81.0851 354.194 81.9847 354.194 82.9337C354.194 87.6039 347.632 88.4584 347.216 92.8268C347.146 93.5641 346.793 94.2663 346.793 95.0158C346.793 95.8479 346.841 96.6867 346.684 97.5072C346.424 98.8586 345.866 100.189 345.148 101.317C344.452 102.41 343.829 103.463 343.201 104.594C342.951 105.044 342.224 106.945 341.941 106.803" stroke="#4A5759" stroke-width="2" stroke-linecap="round" stroke-linejoin="round"/>
<path d="M357.76 62.401C359.473 62.0228 361.174 61.7892 362.91 61.5633C364.883 61.3068 366.945 60.9738 368.922 60.8575C371.496 60.7061 374.373 59.6814 376.383 58.073C377.909 56.8521 378.901 55.2027 380.129 53.714C381.304 52.2895 382.712 51.0856 384.139 49.9212C385.19 49.0636 386.145 48.0148 387.389 47.4314C388.573 46.8765 389.602 46.3772 390.825 45.9267C391.657 45.6201 392.524 45.6969 393.361 45.4303C394.257 45.1454 395.011 44.5503 395.874 44.2514C396.624 43.992 398.389 43.1538 397.72 42.0176C397.444 41.547 395.054 41.3567 394.587 41.4902C393.52 41.7951 392.074 41.878 390.957 41.878C389.349 41.878 387.78 41.4591 386.156 41.4591C384.16 41.4591 382.501 41.7286 380.587 42.3666C376.375 43.7705 372.425 45.4604 369.123 48.5173C367.634 49.8961 366.465 51.4688 365.268 53.109C364.784 53.7728 364.377 54.494 363.895 55.1567C363.476 55.7334 363.233 56.5691 362.755 57.0647C361.894 57.9593 361.022 58.8602 360.134 59.7484C359.383 60.4995 358.87 61.3414 357.76 61.5633" stroke="#4A5759" stroke-width="2" stroke-linecap="round" stroke-linejoin="round"/>
<path d="M374.37 119.606C376.131 121.438 376.721 124.279 378.466 120.07C378.832 119.508 379.075 118.55 379.987 118.55H382.078C383.533 118.55 384.819 119.411 386.238 119.669C389.749 120.307 394.577 124.51 392.615 128.433C391.815 130.034 390.253 131.294 389.279 132.825C387.876 135.029 385.285 136.474 383.64 138.485C382.39 140.012 380.274 141.826 379.966 143.828C379.8 144.903 379.349 146.008 379.142 147.143C378.922 148.357 378.804 150.142 378.255 151.24C377.23 153.29 376.107 154.034 374.454 152.38C373.288 151.215 371.292 148.353 371.244 146.679C371.191 144.821 369.947 144.103 369.048 142.582C367.83 140.52 366.787 139.194 364.782 137.746C361.502 135.377 358.188 130.75 359.672 126.511C361.19 122.173 363.543 113.674 370.019 115.593C372.341 116.281 372.815 117.989 374.37 119.606Z" stroke="#4A5759" stroke-width="2" stroke-linecap="round" stroke-linejoin="round"/>
<path d="M345.083 166.902C346.529 168.053 348.323 168.759 349.554 170.144C350.601 171.323 351.704 172.558 352.6 173.857C353.307 174.882 354.195 176.077 354.6 177.256C355.033 178.514 355.211 179.824 355.673 181.074C356.257 182.655 356.404 184.462 356.862 186.068C356.987 186.505 357.084 188.184 357.084 186.905" stroke="#579C8F" stroke-width="2" stroke-linecap="round" stroke-linejoin="round"/>
<path d="M342.873 184.054C344.926 186.7 347.855 187.365 350.524 189.217C352.824 190.813 354.889 191.011 357.603 191.342C361.724 191.844 366.042 191.782 370.198 191.782C371.883 191.782 373.53 192.284 375.174 192.619C375.936 192.774 376.86 193.544 377.64 193.544C378.214 193.544 377.18 191.967 377.155 191.936C376.026 190.525 374.691 189.842 373.082 189.052C368.592 186.848 363.009 186.947 358.142 187.434C356.494 187.598 354.97 188.017 353.265 188.017C351.061 188.017 348.803 188.257 346.827 187.128" stroke="#4A5759" stroke-width="2" stroke-linecap="round" stroke-linejoin="round"/>
<path d="M342.278 165.228C343.341 165.461 345.221 167.171 346.339 166.171L347.072 165.438C347.072 165.123 347.738 164.543 348.025 164.391C349.729 163.489 352.393 163.773 354.212 163.995C357.128 164.35 360.452 167.011 362.095 169.389C363.023 170.732 364.087 171.874 364.649 173.441C365.014 174.458 364.904 175.696 364.869 176.765C364.844 177.563 364.595 178.457 364.363 179.22C364.138 179.961 363.747 180.637 363.526 181.323C363.116 182.599 363.273 183.571 363.989 184.604C364.422 185.23 365.027 185.914 365.266 186.63" stroke="#4A5759" stroke-width="2" stroke-linecap="round" stroke-linejoin="round"/>
<path d="M343.474 165.724C340.797 165.301 338.315 163.776 336.395 166.792C335.865 167.626 336.022 169.6 336.022 170.586C336.022 172.026 336.044 173.897 336.997 175.087C338.059 176.415 338.883 177.91 339.855 179.307C340.44 180.149 340.713 181.237 341.364 182.018C342.343 183.193 343.607 184.434 344.436 185.678" stroke="#4A5759" stroke-width="2" stroke-linecap="round" stroke-linejoin="round"/>
<path d="M342.993 136.394C341.076 139.155 339.68 142.922 338.906 146.171C337.992 150.012 337.964 154.53 339.628 158.218C340.224 159.54 340.983 160.803 341.604 162.118C341.982 162.918 342.292 163.936 342.806 164.656C343.32 165.374 343.923 165.828 344.676 166.205" stroke="#4A5759" stroke-width="2" stroke-linecap="round" stroke-linejoin="round"/>
<path d="M367.447 74.7436C368.388 72.6789 370.2 73.5664 371.997 74.2949C373.499 74.6302 374.898 75.3343 375.586 76.5814C376.154 77.6105 378.035 77.8533 378.917 77.054C380.106 75.9755 377.792 74.2185 377.792 74.2185C377.792 74.2185 375.857 73.3226 375.363 72.0687C375.028 71.2186 374.397 70.5801 375.007 69.7814C375.332 69.3554 375.834 68.4464 376.44 68.3243C378.033 68.0035 379.995 68.375 381.523 68.7312C384.248 69.3662 386.836 69.9778 389.344 71.1467C390.967 71.9034 391.635 73.3874 392.341 74.7961C392.647 75.4062 392.482 76.189 392.79 76.8177C393.2 77.6538 393.554 78.4887 393.775 79.3906C394.403 81.9545 395.643 84.424 395.846 87.0833C395.961 88.5991 396.972 89.7755 397.007 91.2883C397.014 91.5752 397.337 92.6388 397.007 92.7586C396.896 92.7988 396.786 93.1218 395.976 93.1218C394.41 92.3106 393.588 90.7256 391.69 90.2338C388.721 89.4649 385.651 87.5114 382.508 87.4508C379.223 87.3875 375.979 86.9297 372.704 86.7551C370.904 86.6591 368.999 85.7225 367.505 84.7991C366.113 83.9385 365.883 81.3671 365.883 80.0076C365.883 78.176 366.681 76.4247 367.446 74.7465L367.447 74.7436Z" fill="#B1C9AB"/>
<path d="M372.642 83.0748C367.988 81.2876 362.403 84.869 360.488 89.0697" stroke="#B1C9AB" stroke-width="2" stroke-linecap="round" stroke-linejoin="round"/>
<g opacity="0.5">
<path d="M239.469 582.974C236.917 580.119 234.448 576.756 230.644 578.698C229.948 579.588 230.013 578.662 229.811 579.764C229.614 580.839 229.26 581.337 228.617 582.16C227.833 583.163 228.482 583.797 227.698 584.8C227.045 585.637 224.609 585.555 223.914 586.444C222.945 587.685 221.956 589.262 222.038 591.112C222.075 591.945 223.063 593.873 221.473 593.69C220.916 593.627 219.288 598.247 218.804 598.725C214.337 599.57 212.449 604.005 213.915 609.247C214.311 610.662 215.051 611.758 215.742 612.96C216.59 614.435 216.975 615.472 217.403 617.246C217.73 618.605 218.276 619.996 218.692 621.334C218.938 622.124 219.19 622.875 219.35 623.697C219.404 623.974 219.4 624.718 219.559 624.515C219.825 624.175 219.171 622.281 219.424 621.675C219.66 621.108 219.646 618.979 219.646 618.28C219.646 617.681 220.203 617.481 220.175 616.832C220.15 616.268 219.858 615.881 220.02 615.294C220.663 612.966 220.306 611.457 221.783 609.566C222.658 608.446 225.082 608.584 226.045 607.583C227.21 606.371 228.648 605.986 229.733 604.598C230.257 603.926 230.754 602.474 230.809 601.484C230.846 600.834 229.392 598.144 230.066 597.859C231.411 597.29 232.687 598.235 234.029 597.363C235.277 596.552 236.538 595.896 237.681 594.833C238.837 593.759 240.737 593.602 242.198 593.03C243.786 592.408 247.457 592.737 249.127 592.973C249.223 593.049 249.325 593.097 249.434 593.108C250.349 593.2 250.031 593.1 249.127 592.973C248.33 592.338 247.943 589.713 247.038 589.486C243.999 588.723 241.68 585.446 239.469 582.974Z" fill="#D3DFD0"/>
<path d="M229.165 639.942C229.244 638.77 227.997 640.334 227.758 640.538C226.748 641.83 227.504 642.598 226.528 643.847C225.904 644.646 224.912 644.181 224.288 644.98C223.613 645.844 223.001 645.929 222.126 646.445C220.308 647.517 218.061 647.743 216.552 649.674C215.624 650.862 208.427 658.309 209.765 659.974C210.392 660.755 212.592 658.42 213.157 657.926C213.866 657.303 215.996 656.612 216.753 656.36C217.55 656.096 221.013 657.236 221.838 657.222C222.864 657.204 223.405 656.703 224.391 656.776C226.464 656.93 228.048 652.826 228.637 650.695C229.08 649.09 228.58 646.188 228.526 644.52C228.474 642.901 229.06 641.506 229.165 639.942Z" fill="#D3DFD0"/>
<path d="M243.213 614.809C242.283 615.265 241.432 617.12 240.746 617.966C235.66 615.103 233.419 618.92 233.771 622.859C233.86 623.86 234.567 624.627 234.845 625.521C235.078 626.272 235.045 626.993 235.389 627.736C235.702 628.414 236.108 629.046 236.477 629.683C237.29 631.086 238.409 631.893 239.456 633.015C240.613 634.254 241.848 635.527 243.048 636.723C244.295 637.965 246.244 639.25 247.871 639.373C249.025 639.461 248.357 638.54 248.123 637.675C247.421 635.072 247.817 631.761 248.216 629.143C248.351 628.259 248.185 627.336 248.314 626.428C248.464 625.371 248.832 624.259 249.155 623.262C249.481 622.253 249.115 621.137 248.999 620.085C248.898 619.17 248.937 618.507 248.491 617.699C247.797 616.443 246.825 614.381 245.446 614.327C244.402 614.286 244.192 614.329 243.213 614.809Z" fill="#D3DFD0"/>
<path d="M226.838 585.375C228.052 584.253 228.674 583.304 228.927 581.46C229.064 580.461 229.459 579.326 230.15 578.709C231.373 577.617 233.14 577.945 234.539 578.469C236.763 579.301 238.118 581.282 239.717 583.242C241.35 585.244 243.441 586.712 245.309 588.342C246.254 589.166 247.319 590.004 248.189 590.942C248.723 591.519 249.033 592.274 249.497 592.852C250.067 593.561 248.655 593.465 248.398 593.459C247.031 593.427 245.655 593.167 244.288 593.191C242.814 593.217 241.169 593.292 239.742 593.689C238.863 593.934 238.068 594.652 237.305 595.195C236.603 595.694 236.015 596.154 235.257 596.576C234.324 597.094 233.455 597.435 232.417 597.592C231.463 597.736 230.55 597.986 229.613 598.203C228.752 598.401 227.498 597.915 226.708 597.509C225.637 596.959 224.635 596.085 223.783 595.131C223.355 594.653 222.797 594.177 222.495 593.567C222.299 593.171 222.28 592.685 222.121 592.268C221.657 591.051 221.66 588.86 222.462 587.833C223.326 586.727 224.205 586.471 225.39 585.988C226.728 585.443 228.928 583.895 230.403 584.673C231.654 585.332 233.167 585.165 234.38 585.883C235.375 586.472 236.466 587.066 237.547 587.303" stroke="#6B9A78" stroke-width="2" stroke-linecap="round" stroke-linejoin="round"/>
<path d="M230.678 598.824C230.974 600.6 231.178 602.79 230.511 604.442C229.793 606.223 228.314 607.302 226.906 608.175C225.14 609.27 223.004 609.64 221.602 611.435C221.004 612.2 220.723 613.159 220.625 614.188C220.549 614.986 220.275 615.636 220.004 616.347C219.765 616.977 219.778 617.708 219.663 618.384C219.452 619.618 219.707 620.841 219.487 622.083C219.243 623.465 219.61 624.355 219.669 625.697C219.744 627.382 220.515 628.916 220.963 630.493C221.114 631.025 221.424 630.938 221.546 630.45C221.837 629.286 221.301 627.655 221.35 626.399C221.369 625.916 221.393 625.38 221.361 624.897C221.333 624.494 221.051 624.23 220.986 623.832C220.831 622.892 220.788 622.139 220.414 621.283C219.812 619.908 219.926 617.621 220.035 616.17" stroke="#6B9A78" stroke-width="2" stroke-linecap="round" stroke-linejoin="round"/>
<path d="M221.95 592.338C221.353 594.393 220.454 597.465 218.458 598.126C217.711 598.373 216.946 598.355 216.205 598.558C215.551 598.737 214.832 599.721 214.429 600.294C213.937 600.993 213.748 602.349 213.46 603.206C213.152 604.125 212.99 605.032 213.035 606.044C213.108 607.7 213.419 609.23 214.067 610.7C214.52 611.726 214.88 612.957 215.432 613.906C215.96 614.812 216.547 616.139 216.777 617.188C217 618.207 217.375 619.469 217.855 620.37C218.301 621.206 218.877 622.855 219.35 623.712" stroke="#6B9A78" stroke-width="2" stroke-linecap="round" stroke-linejoin="round"/>
<path d="M220.73 595.925C219.879 598.519 219.281 600.852 219.002 603.652C218.906 604.625 218.406 606.365 218.709 607.297" stroke="#6B9A78" stroke-width="2" stroke-linecap="round" stroke-linejoin="round"/>
<path d="M242.71 615.444C241.514 616.976 240.719 617.372 238.971 616.717C238.588 616.023 238.386 616.225 238.064 615.901C237.85 615.686 236.966 616.078 236.728 616.196C236.227 616.444 235.446 617.203 235.281 617.816C235.185 618.177 234.84 618.704 234.693 619.032C234.533 619.393 234.176 619.977 234.176 619.977C233.411 621.004 233.171 622.187 233.007 623.571C232.834 625.025 233.327 626.165 234.042 627.308C234.486 628.016 235.031 628.608 235.503 629.282C236.152 630.208 236.592 631.246 237.343 632.086C238.199 633.043 239.023 634.103 239.951 634.958C240.724 635.671 241.663 636.028 242.482 636.647L242.514 636.671C243.534 637.442 244.485 638.161 245.401 639.109C246.05 639.782 247.031 640.428 247.887 640.562C249.045 640.744 248.76 638.988 248.583 638.245C248.352 637.273 248.373 636.266 248.321 635.274C248.257 634.045 248.111 632.943 248.559 631.797C249.021 630.614 249.265 629.395 249.819 628.256C250.408 627.046 250.82 625.898 251.066 624.513C251.331 623.017 251.639 621.714 251.39 620.145C251.156 618.672 250.852 617.427 250.107 616.175C249.203 614.655 247.475 612.73 245.842 612.558C244.289 612.394 243.638 614.257 242.71 615.444Z" stroke="#6B9A78" stroke-width="2" stroke-linecap="round" stroke-linejoin="round"/>
<path d="M230.884 599.179C232.267 602.121 234.257 604.32 236.446 606.431C237.775 607.713 239.416 609.587 239.615 611.72C239.712 612.751 239.994 613.88 239.716 614.884C239.636 615.174 239.619 615.555 239.492 615.818C239.349 616.112 239.364 616.731 239.126 616.299" stroke="#6B9A78" stroke-width="2" stroke-linecap="round" stroke-linejoin="round"/>
<path d="M235.247 628.951C234.803 630.127 234.378 631.353 233.835 632.466C233.341 633.478 232.604 634.287 232.023 635.224C231.452 636.145 230.765 637.103 230.112 637.939C229.629 638.558 229.175 639.098 228.634 639.623C228.163 640.081 227.672 640.187 228.455 640.718" stroke="#6B9A78" stroke-width="2" stroke-linecap="round" stroke-linejoin="round"/>
<path d="M228.592 639.884C228.799 642.041 228.756 644.117 228.768 646.271C228.778 647.983 228.71 649.827 228.267 651.451C227.706 653.509 225.898 656.026 224.155 656.764C222.156 657.61 219.696 656.961 217.622 656.659C216.802 656.54 215.938 656.541 215.16 656.87C214.32 657.226 213.409 657.401 212.704 658.074C211.805 658.934 210.891 659.688 210.107 660.691C209.207 661.843 209.42 660.443 209.617 659.561C209.934 658.146 211.022 657.395 211.507 656.154C211.671 655.735 211.841 655.293 211.932 654.841C212.039 654.315 211.717 653.909 211.744 653.423C211.885 650.902 214.05 648.796 215.717 647.592C217.682 646.174 219.94 645.946 221.873 644.532C223.144 643.602 223.95 641.944 225.297 641.138C226.039 640.693 227.415 640.326 228.272 640.514" stroke="#6B9A78" stroke-width="2" stroke-linecap="round" stroke-linejoin="round"/>
<path d="M239.294 616.812C240.811 618.574 242.761 620.921 242.378 623.709C242.081 625.873 242.823 628.207 243.821 630.016" stroke="#6B9A78" stroke-width="2" stroke-linecap="round" stroke-linejoin="round"/>
<path d="M212.837 590.336C215.463 590.472 218.418 589.215 220.005 589.187C220.933 589.171 221.594 588.944 222.251 588.104" stroke="#6B9A78" stroke-width="2" stroke-linecap="round" stroke-linejoin="round"/>
</g>
<g opacity="0.6">
<path d="M132.273 520.313C131.345 520.532 131.848 519.711 131.146 520.313C130.063 520.477 126.523 519.043 125.813 519.987C122.583 520.313 124.29 521.951 123.552 522.735C122.84 523.492 126.635 528.247 127.266 528.918C128.252 529.967 131.687 531.42 132.919 532.181C134.31 533.041 136.249 532.768 137.603 533.727C138.472 534.344 140.963 533.797 141.802 534.242C142.888 534.82 144.169 535.799 145.193 536.475C146.229 537.159 147.102 537.149 147.873 538.193C148.358 538.849 151.653 540.63 151.653 539.567C151.653 536.45 149.928 533.776 149.069 530.807C148.597 529.175 149.069 524.479 149.069 522.735C149.069 521.234 148.495 518.893 146.97 517.239C145.725 515.89 143.633 515.05 142.932 515.006C141.926 514.943 140.655 515.006 139.541 515.006C138.46 515.006 136.755 517.438 135.772 517.903C135.216 518.165 132.864 520.173 132.273 520.313Z" fill="#B1C9AB"/>
<path d="M180.427 556.58C178.8 557.901 176.8 560.567 175.16 561.898C175.693 562.472 177.969 562.241 178.525 562.773C179.267 563.482 180.205 563.819 181.055 564.171C181.946 564.541 183.156 565.081 184.07 565.503C185.245 566.046 187.264 565.536 188.486 565.018C191.024 563.943 192.672 563.227 195.277 562.553C197.421 561.998 199.533 561.538 201.608 560.502C201.908 560.352 204.58 559.209 204.316 558.878C203.961 558.432 203.801 558.772 203.48 558.563C202.725 558.07 201.659 558.072 200.838 557.731C199.672 557.247 198.569 556.628 197.462 555.927C196.336 555.214 194.508 554.31 193.333 554.206C192.883 554.166 192.311 553.491 191.834 553.326L191.784 553.309C190.895 553.001 189.98 552.685 189.077 552.498C188.012 552.278 187.038 552.972 186.018 553.084C185.112 553.184 184.196 553.338 183.295 553.508C182.236 553.707 181.351 555.83 180.427 556.58Z" fill="#D3DFD0"/>
<path d="M181.154 593.806C181.154 590.013 174.207 589.066 171.563 588.172C169.106 588.822 167.828 585.414 165.859 587.277C163.7 589.319 160.775 594.851 161.931 599.004C162.013 602.854 163.548 605.845 165.169 611.083C165.338 614.377 164.759 619.91 165.169 623.191C165.345 624.598 167.841 622.852 168.031 621.349C168.271 619.44 170.3 617.295 170.3 615.373V608.871C171.462 605.713 177.045 602.577 178.799 599.899C180.681 597.023 181.154 597.718 181.154 593.806Z" fill="#D3DFD0"/>
<path d="M132.1 520.431C134.75 518.761 137.127 516.651 139.795 515.05C142.225 513.593 144.03 513.646 146.396 515.256C150.892 518.315 148.894 525.065 149.272 529.679C149.317 530.215 152.968 539.898 151.143 539.898C150.31 539.898 148.933 538.464 148.161 538.104C146.912 537.523 145.557 536.991 144.56 535.975C143.208 534.596 141.151 533.882 139.248 533.882C138.163 533.882 137.121 533.267 136.054 533.041C134.874 532.792 133.806 532.984 132.718 532.35C130.38 530.989 128.191 529.968 126.311 527.904C124.573 525.996 121.013 519.758 126.064 519.758C127.3 519.758 128.829 519.493 130.035 519.777C131.351 520.087 132.358 520.852 133.618 521.365C134.697 521.804 136.49 523.097 137.324 523.981C139.212 525.979 141.493 527.587 143.537 529.511" stroke="#568267" stroke-width="2" stroke-linecap="round" stroke-linejoin="round"/>
<path d="M145.214 536.629C146.93 539.491 149.375 541.871 151.063 544.764C152.624 547.439 153.663 550.611 154.233 553.691C154.7 556.212 155.003 558.521 152.994 559.937" stroke="#568267" stroke-width="2" stroke-linecap="round" stroke-linejoin="round"/>
<path d="M173.707 561.949C176.813 560.612 179.275 558.321 181.628 555.004C182.637 553.581 183.814 552.225 185.173 551.708C188.073 550.604 190.528 552.173 193.325 552.965C194.01 553.16 194.613 553.632 195.289 553.852C196.371 554.203 197.488 554.197 198.57 554.538C200.327 555.092 201.757 555.064 203.388 556.344C204.246 557.018 205.076 557.581 205.817 558.495C206.87 559.795 204.288 560.283 203.926 560.32C200.326 560.683 196.702 561.835 193.252 563.315C190.635 564.438 188.547 566.037 185.754 565.73C184.308 565.571 182.951 564.896 181.573 564.26C180.286 563.666 178.917 563.445 177.674 562.658C176.618 561.99 175.34 561.391 174.231 561.813" stroke="#568267" stroke-width="2" stroke-linecap="round" stroke-linejoin="round"/>
<path d="M149.569 561.864C148.593 561.339 146.586 561.79 145.47 561.733C144.286 555.392 139.826 555.888 137.008 558.75C136.292 559.477 136.171 560.598 135.663 561.422C135.237 562.114 134.656 562.551 134.31 563.336C133.995 564.052 133.776 564.819 133.529 565.558C132.986 567.184 131.718 568.735 131.549 570.385C131.362 572.208 130.98 573.002 130.856 574.835C130.727 576.739 131.946 574.047 132.94 575.563C133.644 576.637 135.149 574.656 135.663 573.89C137.212 571.584 138.958 573.925 141.254 572.581C142.03 572.127 143.237 572.622 144.027 572.147C144.948 571.595 145.118 571.287 146.106 570.926C147.107 570.56 148.613 571.169 149.351 570.385C149.994 569.704 150.534 569.308 150.861 568.391C151.371 566.965 152.319 564.773 151.438 563.521C150.77 562.573 150.596 562.417 149.569 561.864Z" fill="#D3DFD0"/>
<path d="M154.425 554.312C158.049 554.312 161.306 559.35 164.866 560.074C167.123 560.533 169.338 560.194 171.523 561.034C174.347 562.12 177.286 566.384 177.617 569.535C177.821 571.477 177.821 573.823 177.574 575.75C177.419 576.958 177.323 578.415 176.594 579.406C175.759 580.542 174.622 581.006 173.741 582.087C172.583 583.511 170.854 583.709 169.333 584.555C168.433 585.056 166.535 586.362 166.22 587.358" stroke="#568267" stroke-width="2" stroke-linecap="round" stroke-linejoin="round"/>
<path d="M168.296 587.084C171.009 588.752 173.986 589.257 176.911 590.314C179.039 591.082 181.781 591.69 181.781 594.549C181.781 595.854 182.094 597.631 181.666 598.875C181.147 600.386 179.035 601.595 177.949 602.653C176.7 603.87 174.898 604.078 173.598 605.243C172.767 605.987 172.249 607.085 171.148 607.376" stroke="#568267" stroke-width="2" stroke-linecap="round" stroke-linejoin="round"/>
<path d="M166.552 588.01C167.723 589.449 169.659 590.918 170.888 592.294C171.888 593.413 171.926 594.924 171.926 596.392C171.926 599.305 169.592 601.103 169.592 604.085C169.592 605.693 170.044 607.494 170.499 609.036C171.073 610.979 170.562 613.348 169.981 615.191C169.402 617.027 169.044 618.952 168.497 620.751C168.087 622.099 166.856 623.226 166.48 624.621C166.016 626.335 165.183 624.182 165.183 623.494C165.183 620.998 165.342 618.33 164.866 615.877C163.659 609.654 160.359 604.251 159.751 597.824C159.593 596.156 159.653 594.885 160.774 593.665C161.28 593.114 161.826 592.499 162.128 591.807C162.393 591.2 163.483 590.375 163.483 590.375C163.483 590.375 164.671 589.271 165.125 588.455C165.709 587.407 166.537 586.61 167.707 586.3" stroke="#568267" stroke-width="2" stroke-linecap="round" stroke-linejoin="round"/>
<path d="M122.77 458.053C122.864 462.215 125.381 465.402 126.395 469.371C127.724 474.576 128.235 480.109 125.873 484.994C122.882 491.182 116.947 496.721 116.947 504.172C116.947 506.27 116.611 508.657 117.401 510.606C117.776 511.532 117.901 512.397 118.595 513.13C119.281 513.856 119.264 515.223 119.973 515.796C121.452 516.992 123.355 519.602 125.423 519.602" stroke="#568267" stroke-width="2" stroke-linecap="round" stroke-linejoin="round"/>
<path d="M142.732 474.487C140.508 475.527 138.8 477.439 136.535 478.437C135.817 479.67 135.95 478.889 135.95 480.112C135.95 480.916 136.851 480.838 137.277 481.101C138.831 482.064 141.028 482.357 142.805 482.49C144.669 482.628 146.431 483.764 148.252 484.133C149.646 484.416 150.984 485.205 152.228 485.94L152.279 485.97C153.211 486.521 153.855 487.646 154.577 488.451C155.349 489.312 156.18 490.156 156.838 491.115C157.884 492.641 157.64 489.449 157.625 488.808C157.601 487.843 156.836 486.745 156.389 485.97C155.918 485.153 155.07 484.318 154.366 483.766C153.859 483.368 153.599 482.727 153.103 482.306C152.515 481.806 152.283 481.525 152.197 480.662C152.027 478.954 152.634 477.322 151.043 476.324C149.765 475.522 148.293 475.146 147.043 474.354C145.9 473.629 143.875 473.952 142.732 474.487Z" fill="#D3DFD0" stroke="#568267" stroke-width="2" stroke-linecap="round" stroke-linejoin="round"/>
<path d="M62.1385 489.145C64.363 490.186 64.7725 489.257 68.7006 490.058C69.4187 491.291 75.4015 477.598 78.4054 498.792C78.4054 499.595 67.594 496.41 67.594 495.76C66.0395 496.723 63.8427 497.016 62.0653 497.148C60.2017 497.287 58.4394 498.423 56.619 498.792C55.2244 499.075 53.887 499.864 52.6423 500.599L52.5915 500.629C51.6594 501.179 51.0157 502.305 50.294 503.11C49.522 503.971 46.0206 506.445 45.3631 507.404C44.3165 508.931 45.8097 504.624 45.8252 503.984C45.8486 503.019 46.534 501.404 46.9808 500.629C47.4522 499.811 46.9701 498.428 47.6737 497.876C48.1804 497.478 47.8712 496.587 48.3669 496.166C48.9551 495.666 49.6674 495.318 49.7533 494.456C49.9235 492.747 52.2364 491.981 53.8273 490.983C55.1061 490.181 56.5774 489.805 57.8273 489.013C58.9709 488.288 60.9956 488.611 62.1385 489.145Z" fill="#B1C9AB"/>
<path d="M135.82 479.739C133.6 479.567 131.974 480.115 130.011 481.048C129.335 481.369 126.933 482.729 126.933 482.729" stroke="#568267" stroke-width="2" stroke-linecap="round" stroke-linejoin="round"/>
<path d="M122.106 491.562C119.466 492.306 117.265 490.844 114.657 490.476C113.907 490.37 113.083 490.058 112.343 490.058C111.543 490.058 110.786 490.273 110.007 490.273C104.768 490.273 103.274 497.276 100.865 501.013C98.1885 505.163 94.6711 507.887 89.8039 507.887C85.1596 507.887 82.0401 503.038 79.0979 499.927" stroke="#568267" stroke-width="2" stroke-linecap="round" stroke-linejoin="round"/>
<path d="M78.9293 500.064C77.7152 499.544 76.5534 498.58 75.3007 498.215C74.2392 497.905 73.1321 497.984 72.0437 497.984C70.144 497.984 68.686 496.617 66.732 496.366C65.0707 496.152 63.2904 496.035 61.617 496.123C59.5973 496.23 58.7293 497.123 57.0703 498.076C55.6255 498.906 53.576 499.228 52.3925 500.48C51.7123 501.199 50.9404 501.884 50.3159 502.664C49.5396 503.634 48.8719 504.754 48.0425 505.68C47.0158 506.826 45.7564 507.68 44.8183 508.893C44.2616 509.612 44.6834 508.264 44.6981 507.853C44.7374 506.751 45.0978 505.803 45.485 504.802C46.8973 501.152 47.2746 497.417 49.8131 494.286C51.8565 491.765 54.2837 489.501 56.9938 487.803C58.666 486.755 62.0793 485.748 63.9777 486.751C65.0925 487.341 65.4855 488.832 66.8303 489.051C67.5494 489.168 68.3817 489.514 69.0709 489.028C69.6746 488.602 70.1372 487.803 70.8633 487.583C72.0551 487.223 74.0714 486.194 75.3007 486.844C75.9024 487.162 76.6511 489.074 76.7652 489.767C76.9262 490.746 77.1587 491.687 77.1587 492.68C77.1587 494.276 77.0789 495.693 77.7489 497.152C78.1836 498.098 79.0957 498.96 79.5195 499.856" stroke="#568267" stroke-width="2" stroke-linecap="round" stroke-linejoin="round"/>
<path d="M68.8963 489.455C67.3096 490.621 65.6303 491.78 63.7922 492.46C62.0162 493.117 60.1123 493.606 58.5679 494.736C57.5409 495.488 56.6837 496.372 55.759 497.313C55.1156 497.969 53.9351 498.628 53.5513 499.44" stroke="#568267" stroke-width="2" stroke-linecap="round" stroke-linejoin="round"/>
<path d="M152.155 560.195C150.871 559.937 149.033 559.368 147.684 559.775C146.485 560.137 146.288 561.658 145.201 560.195C144.324 559.015 143.395 557.359 141.898 557.359C140.338 557.359 138.601 557.816 137.651 559.276C136.633 560.842 135.306 561.971 134.273 563.53C133.264 565.055 133.024 567.04 132.237 568.703C131.523 570.213 128.626 576.482 132.485 575.741C134.398 575.373 135.98 573.631 137.949 573.43C140.047 573.215 142.031 572.365 144.009 571.644C146.271 570.819 150.354 569.849 152.155 568.231C153.842 566.714 155.284 565.585 155.284 563.031C155.284 562.166 152.846 559.966 152.155 559.723" stroke="#568267" stroke-width="2" stroke-linecap="round" stroke-linejoin="round"/>
<path d="M145.449 561.141C143.208 562.574 141.307 563.749 139.638 565.867" stroke="#568267" stroke-width="2" stroke-linecap="round" stroke-linejoin="round"/>
<path d="M173.193 562.167C176.085 564.563 181.596 569.448 185.209 570.511C187.979 571.326 191.229 570.216 194.084 570.324C199.399 570.524 204.237 573.437 207.174 578.033C208.768 580.528 207.255 586.855 204.491 588.079C201.732 589.302 200.132 588.612 197.586 587.51C193.572 584.98 194.935 581.012 196.552 579.961C199.155 578.269 203.139 580.012 204.845 582.245C206.118 583.912 206.634 586.371 207.947 587.958C209.196 589.468 210.43 589.637 212.196 590.402" stroke="#568267" stroke-width="2" stroke-linecap="round" stroke-linejoin="round"/>
</g>
<path d="M16.4347 359.814C17.8384 360.126 17.0772 358.959 18.1401 359.814C19.7786 360.048 25.1331 358.008 26.2073 359.351C31.0935 359.814 28.5118 362.144 29.6277 363.26C30.7052 364.337 24.9634 371.1 24.0085 372.055C22.517 373.547 17.3217 375.613 15.4575 376.697C13.3533 377.92 10.4194 377.531 8.37242 378.896C7.05668 379.773 3.28842 378.995 2.02028 379.629C0.376331 380.451 -1.56021 381.843 -3.11029 382.805C-4.6766 383.777 -5.99782 383.763 -7.16449 385.248C-7.898 386.181 -12.8828 388.715 -12.8828 387.202C-12.8828 382.769 -10.2729 378.964 -8.9738 374.742C-8.25947 372.421 -8.9738 365.74 -8.9738 363.26C-8.9738 361.125 -8.10572 357.794 -5.79774 355.442C-3.91485 353.523 -0.749831 352.328 0.31009 352.266C1.83264 352.176 3.75565 352.266 5.44066 352.266C7.07528 352.266 9.6547 355.725 11.1424 356.386C11.9827 356.759 15.5404 359.615 16.4347 359.814Z" fill="#A3BF9B"/>
<path d="M2.50952 405.282C4.73234 406.147 4.53783 409.856 6.17412 410.168C4.79081 411.09 13.7652 417.211 11.5491 402.307C12.0377 400.395 12.4733 398.371 14.3825 399.219C15.5997 399.76 17.1549 397.99 18.1384 399.219C18.6476 399.856 21.0458 398.726 21.566 399.662C22.0186 400.477 24.0381 401.526 24.4977 402.307C25.5437 404.085 27.6728 407.235 29.1397 408.702C30.0102 409.573 29.2079 412.292 29.1397 413.588C28.8376 419.327 26.9409 420.04 26.9409 425.804C26.9409 427.477 25.2013 433.808 24.4977 435.332C23.5956 437.287 25.7037 443.784 24.4977 445.593C23.3689 447.287 22.4947 445.603 21.8108 444.372C21.1993 443.271 18.9754 441.3 18.1384 440.463C17.0791 439.403 16.555 438.99 15.7025 437.759C13.7594 434.952 11.729 432.58 9.3503 430.202C6.93532 427.787 5.6785 427.905 3.11089 425.804C1.85504 424.776 -3.75096 425.076 -4.08723 423.361C-4.45323 421.494 -7.01898 420.409 -7.01898 418.475C-7.01898 416.852 -7.69034 412.881 -7.01904 411.389C-6.57317 410.399 -4.64852 406.97 -3.59831 406.503C-2.60423 406.061 0.242642 404.399 2.50952 405.282Z" fill="#B1C9AB"/>
<path d="M68.4672 419.918C68.4672 414.619 67.8876 408.972 73.8488 406.439C75.4528 406.439 74.4925 405.708 75.7703 406.439C77.0167 407.151 77.8771 407.19 79.3593 407.19C81.1677 407.19 81.08 408.458 82.8884 408.458C84.3971 408.458 86.9379 405.688 88.5403 405.688C90.7774 405.688 93.3589 405.957 95.0505 407.649C95.813 408.411 96.604 411.174 98.1387 409.256C98.6769 408.583 104.874 410.779 105.854 410.656C111.473 406.439 117.771 408.185 121.237 414.347C122.173 416.009 122.431 417.778 122.844 419.584C123.351 421.8 123.934 423.125 125.181 425.135C126.136 426.673 126.887 428.482 127.727 430.101C128.223 431.057 128.673 431.987 129.292 432.876C129.5 433.176 130.22 433.815 129.855 433.815C129.241 433.815 128.122 431.451 127.268 431.207C126.468 430.978 124.434 429.12 123.762 428.515C123.186 427.996 122.394 428.441 121.801 427.847C121.284 427.331 121.225 426.673 120.486 426.345C117.555 425.042 116.488 423.34 113.079 423.34C111.061 423.34 108.586 426.145 106.587 426.345C104.167 426.587 102.249 427.847 99.7462 427.847C98.5362 427.847 96.6044 427.14 95.5925 426.345C94.9282 425.823 93.9043 421.884 92.9051 422.383C90.9103 423.381 90.4459 425.613 88.1648 426.345C86.042 427.026 84.0539 427.855 81.8006 428.202C79.5245 428.552 77.3285 430.522 75.2069 431.645C72.8991 432.867 69.2667 437.219 67.6969 439.273C67.6672 439.445 67.6035 439.599 67.4965 439.73C66.6019 440.823 66.8475 440.384 67.6969 439.273C67.9434 437.841 65.8346 435.139 66.5893 433.94C69.1254 429.912 68.4672 424.506 68.4672 419.918Z" fill="#93BB94"/>
<path d="M134.362 457.811C133.15 456.884 135.995 456.856 136.449 456.768C138.779 456.768 138.704 458.27 140.956 458.27C142.396 458.27 143.016 456.768 144.456 456.768C146.013 456.768 146.753 456.164 148.191 455.641C151.178 454.555 153.813 452.261 157.294 452.261C159.435 452.261 174.343 450.732 174.506 453.656C174.582 455.027 169.969 455.444 168.887 455.641C167.524 455.889 164.567 457.649 163.512 458.27C162.399 458.925 159.771 463.749 158.87 464.65C157.748 465.771 156.684 465.937 155.694 467.093C153.612 469.522 147.958 467.725 145.275 466.533C143.255 465.635 141.001 462.569 139.454 461.066C137.951 459.607 135.98 459.048 134.362 457.811Z" fill="#B1C9AB"/>
<path d="M95.0692 451.621C96.5081 450.985 99.2076 451.648 100.76 451.621C103.477 443.506 109.561 444.328 112.972 448.126C113.839 449.092 113.816 450.539 114.377 451.621C114.85 452.53 115.579 453.116 115.923 454.141C116.238 455.075 116.411 456.071 116.626 457.032C117.101 459.147 116.673 461.085 116.626 463.216C116.575 465.57 116.47 468.041 116.33 470.406C116.184 472.862 115.323 476.133 113.69 478.043C112.533 479.397 112.366 477.86 111.785 476.853C110.036 473.821 106.425 471.395 103.477 469.571C102.482 468.955 101.772 467.972 100.76 467.329C99.5805 466.58 98.1152 466.026 96.809 465.52C95.4869 465.008 94.8075 463.636 93.92 462.598C93.1476 461.694 92.468 461.163 92.1709 459.969C91.7089 458.113 90.7702 455.252 92.2022 453.677C93.2864 452.484 93.5539 452.29 95.0692 451.621Z" fill="#B1C9AB"/>
<path d="M16.8429 360.089C12.8182 357.693 9.20667 354.664 5.15426 352.368C1.4625 350.276 -1.27907 350.353 -4.87226 352.663C-11.7016 357.053 -8.66645 366.739 -9.24211 373.359C-9.309 374.129 -14.8564 388.024 -12.0838 388.024C-10.8181 388.024 -8.72629 385.966 -7.55315 385.45C-5.65707 384.616 -3.5985 383.852 -2.08414 382.394C-0.0300961 380.416 3.09408 379.391 5.98533 379.391C7.63279 379.391 9.21613 378.509 10.8377 378.185C12.6295 377.827 14.2516 378.102 15.9046 377.193C19.4554 375.24 22.7806 373.774 25.6362 370.813C28.2763 368.075 33.6846 359.124 26.0116 359.124C24.1342 359.124 21.8122 358.743 19.9796 359.151C17.9809 359.595 16.4509 360.693 14.5374 361.429C12.8985 362.06 10.175 363.915 8.9075 365.183C6.04023 368.05 2.57546 370.358 -0.529223 373.118" stroke="#4A5759" stroke-width="2" stroke-linecap="round" stroke-linejoin="round"/>
<path d="M9.19136 379.309C7.37637 382.171 4.79124 384.551 3.00634 387.444C1.35569 390.119 0.257526 393.291 -0.345142 396.371C-0.838386 398.892 -1.1596 401.201 0.964985 402.617" stroke="#4A5759" stroke-width="2" stroke-linecap="round" stroke-linejoin="round"/>
<path d="M0.0662426 402.519C-10.6835 403.571 -11.0001 400.938 -18.0979 401.331C-21.9433 401.545 -24.6755 401.48 -27.888 402.519C-32.0426 403.862 -36.3647 409.138 -36.8517 413.036C-37.1518 415.438 -37.1516 418.341 -36.7881 420.726C-36.5603 422.22 -36.4193 424.023 -35.3471 425.249C-34.1185 426.654 -32.4461 427.228 -31.1514 428.566C-29.4478 430.327 -26.9049 430.572 -24.667 431.62C-23.3435 432.239 -20.5519 433.855 -20.0898 435.088" stroke="#4A5759" stroke-width="2" stroke-linecap="round" stroke-linejoin="round"/>
<path d="M-3.85086 403.944C-1.92417 402.873 1.09681 403.61 3.24261 403.61C4.18846 403.847 4.91773 404.369 5.54392 405.152C5.68919 405.334 5.27104 406.931 5.27104 407.355C5.27104 409.544 6.51773 411.615 8.77947 410.61C10.603 409.799 9.10498 404.403 9.65658 402.638C10.0512 401.375 11.4358 397.077 13.5158 398.233C14.3283 398.684 16.0963 398.567 17.0438 398.739C18.2027 398.95 19.2052 399.209 20.3573 399.539C23.4213 400.414 26.3948 402.808 28.3487 405.269C28.9698 406.051 29.9611 406.245 30.5317 407.101C30.8816 407.626 31.238 408.367 31.5063 408.933C31.9428 409.855 31.5842 411.596 31.5842 412.617C31.5842 415.82 30.6221 418.864 28.9724 421.564C26.7144 425.259 26.6869 429.974 24.9182 433.843C23.947 435.968 24.4181 439.77 25.0936 441.932C25.8526 444.361 24.9727 447.72 22.4623 445.07C20.7704 443.284 19.2277 441.308 17.2777 439.807C15.6181 438.531 14.2802 435.842 12.9116 434.194C11.1617 432.086 7.97523 428.769 5.40748 427.723C-0.245049 425.42 -7.53169 423.147 -8.04148 415.755C-8.25866 412.606 -7.07278 405.733 -3.85086 403.944Z" stroke="#4A5759" stroke-width="2" stroke-linecap="round" stroke-linejoin="round"/>
<path d="M1.23779 402.632C3.44938 403.695 5.55064 404.667 7.68194 403.539C8.59103 403.058 9.15853 402.149 9.82999 401.343" stroke="#4A5759" stroke-width="2" stroke-linecap="round" stroke-linejoin="round"/>
<path d="M24.2217 401.558C27.0127 402.302 29.3397 400.84 32.0979 400.472C32.8904 400.366 33.7619 400.054 34.5442 400.054C35.39 400.054 36.1906 400.269 37.0145 400.269C42.5538 400.269 44.1329 407.273 46.6807 411.009C49.5104 415.16 53.2294 417.883 58.3756 417.883C63.2862 417.883 66.5846 413.034 69.6954 409.923" stroke="#4A5759" stroke-width="2" stroke-linecap="round" stroke-linejoin="round"/>
<path d="M84.3672 408.002C81.9814 408.377 80.3998 408.244 78.3526 406.928C77.2446 406.216 75.7273 405.671 74.3907 405.902C72.024 406.312 70.4397 408.553 69.4382 410.556C67.8455 413.742 68.2945 416.957 68.4597 420.425C68.6283 423.967 67.7918 427.554 67.3498 431.034C67.1263 432.794 66.7854 434.701 66.7532 436.476C66.7333 437.568 67.1264 438.564 67.1828 439.579C67.2519 440.823 68.679 439.176 68.949 438.886C70.3887 437.344 71.6202 435.595 73.1138 434.101C74.724 432.491 76.566 430.732 78.4839 429.495C79.6648 428.733 81.2109 428.474 82.5533 428.098C83.7897 427.752 84.864 427.499 86.0856 427.024C87.5884 426.44 88.8508 425.772 90.1192 424.757C91.2833 423.826 92.5072 423.031 93.7231 422.179C94.8401 421.397 95.7216 419.587 96.1814 418.361C96.8049 416.698 97.0406 414.831 97.0406 413.062C97.0406 412.175 97.1835 411.143 96.9213 410.282C96.7507 409.721 96.3044 409.28 96.074 408.742C95.4023 407.175 93.2911 405.281 91.4395 405.281C89.4467 405.281 88.2548 406.034 86.5152 406.928C84.5507 407.939 80.6951 409.037 79.8563 411.344C79.1446 413.301 77.3558 414.832 76.7416 416.797C76.2376 418.41 75.6354 420.133 74.7009 421.535" stroke="#4A5759" stroke-width="2" stroke-linecap="round" stroke-linejoin="round"/>
<path d="M93.1743 423.898C94.5647 425.762 96.4525 427.884 98.7592 428.576C101.245 429.322 103.874 428.616 106.23 427.812C109.183 426.803 111.836 424.757 115.072 424.757C116.451 424.757 117.676 425.275 118.772 426.058C119.621 426.664 120.541 426.924 121.517 427.239C122.381 427.519 123.069 428.166 123.844 428.623C125.258 429.458 126.16 430.8 127.591 431.631C129.184 432.556 129.645 433.733 130.873 434.96C132.414 436.502 133.06 438.684 134.095 440.545C134.444 441.173 134.027 441.441 133.426 441.154C131.993 440.468 131.001 438.463 129.739 437.43C129.254 437.034 128.712 436.596 128.283 436.142C127.925 435.763 127.975 435.221 127.662 434.805C126.924 433.82 126.245 433.121 125.825 431.965C125.149 430.107 122.826 428.254 121.314 427.12" stroke="#4A5759" stroke-width="2" stroke-linecap="round" stroke-linejoin="round"/>
<path d="M101.088 410.367C104.5 411.669 107.389 413.025 110.381 415.14C111.421 415.875 113.633 416.828 114.204 417.97" stroke="#579C8F" stroke-width="2" stroke-linecap="round" stroke-linejoin="round"/>
<path d="M96.3257 408.614C98.9446 409.73 102.867 411.394 105.65 409.754C106.693 409.14 107.498 408.277 108.491 407.632C109.367 407.062 111.087 407.118 112.071 407.167C113.273 407.227 114.782 408.191 115.915 408.614C117.131 409.068 118.178 409.673 119.104 410.599C120.618 412.114 121.755 413.782 122.472 415.774C122.972 417.162 123.77 418.627 124.088 420.061C124.392 421.429 125.037 423.228 125.799 424.39C126.539 425.52 127.35 427.029 127.7 428.34C128.024 429.557 128.992 431.623 129.308 432.889" stroke="#4A5759" stroke-width="2" stroke-linecap="round" stroke-linejoin="round"/>
<path d="M101.212 449.013C101.275 452.218 101.435 456.411 104.529 458.4C106.931 459.944 108.378 462.786 109.046 465.457" stroke="#579C8F" stroke-width="2" stroke-linecap="round" stroke-linejoin="round"/>
<path d="M96.2204 451.614C98.9816 451.614 100.217 451.076 101.469 448.573C101.212 447.548 101.623 447.499 101.659 446.862C101.682 446.439 103.011 445.799 103.38 445.637C104.157 445.297 105.728 445.088 106.495 445.436C106.946 445.641 107.824 445.716 108.297 445.838C108.817 445.971 109.763 446.082 109.763 446.082C111.574 446.123 112.971 446.882 114.478 447.897C116.064 448.964 116.63 450.496 116.96 452.279C117.164 453.383 117.147 454.499 117.287 455.606C117.48 457.127 118.005 458.513 118.005 460.072C118.005 461.849 118.138 463.679 117.963 465.447C117.817 466.921 117.151 468.27 116.865 469.714L116.854 469.769C116.498 471.567 116.166 473.243 116.094 475.078C116.043 476.38 115.608 478.026 114.816 479.091C113.745 480.531 112.363 478.695 111.838 477.855C111.153 476.759 110.162 475.91 109.262 474.994C108.148 473.859 107.246 472.743 105.661 472.248C104.025 471.737 102.591 470.951 100.898 470.579C99.1003 470.185 97.553 469.648 95.9564 468.721C94.2318 467.72 92.6465 466.933 91.405 465.3C90.2392 463.766 89.3691 462.35 88.9657 460.442C88.476 458.125 88.4832 454.544 90.0745 452.585C91.588 450.723 94.0801 451.614 96.2204 451.614Z" stroke="#4A5759" stroke-width="2" stroke-linecap="round" stroke-linejoin="round"/>
<path d="M93.2954 424.433C94.6374 428.512 94.612 432.62 94.288 436.872C94.0913 439.454 94.1299 442.894 95.9671 444.961C96.8555 445.961 97.6389 447.251 98.9027 447.812C99.2681 447.975 99.6534 448.285 100.043 448.372C100.479 448.469 101.058 449.021 100.899 448.382" stroke="#4A5759" stroke-width="2" stroke-linecap="round" stroke-linejoin="round"/>
<path d="M117.245 455.035C118.853 455.561 120.491 456.152 122.145 456.514C123.65 456.842 125.222 456.726 126.749 456.894C128.249 457.058 129.91 457.126 131.416 457.126C132.532 457.126 133.539 457.092 134.627 456.946C135.574 456.82 136.205 456.369 135.873 457.696" stroke="#4A5759" stroke-width="2" stroke-linecap="round" stroke-linejoin="round"/>
<path d="M134.922 457.126C136.775 459.222 138.819 460.971 140.878 462.85C142.514 464.342 144.362 465.863 146.401 466.778C148.985 467.938 153.352 468.112 155.937 466.82C158.901 465.338 160.923 462.05 162.864 459.492C163.632 458.479 164.562 457.523 165.715 456.947C166.962 456.323 168.11 455.466 169.517 455.268C171.311 455.015 173.02 454.655 174.828 454.655C176.905 454.655 175.329 453.679 174.269 453.134C172.566 452.26 170.673 452.815 168.957 452.279C168.378 452.098 167.769 451.903 167.236 451.614C166.615 451.277 166.572 450.569 166.074 450.178C163.497 448.153 159.142 448.729 156.19 449.534C152.712 450.482 150.063 452.787 146.623 453.705C144.361 454.308 141.898 453.766 139.674 454.56C138.448 454.998 136.614 456.204 135.873 457.316" stroke="#4A5759" stroke-width="2" stroke-linecap="round" stroke-linejoin="round"/>
<path d="M101.85 399.213C99.7128 400.324 97.1202 401.997 95.3871 403.731C94.3724 404.745 93.4422 405.281 91.9282 405.281" stroke="#4A5759" stroke-width="2" stroke-linecap="round" stroke-linejoin="round"/>
<path d="M32.3597 300C32.2606 304.162 30.1608 308.082 29.0893 312.051C27.6839 317.256 27.1432 322.789 29.6403 327.674C32.8029 333.862 39.0783 339.401 39.0783 346.852C39.0783 348.95 39.4339 351.337 38.5984 353.286C38.2017 354.212 38.0701 355.077 37.3364 355.81C36.6105 356.536 36.629 357.903 35.8789 358.476C34.3152 359.672 32.303 362.282 30.1169 362.282" stroke="#4A5759" stroke-width="2" stroke-linecap="round" stroke-linejoin="round"/>
<path d="M8.73261 313.746C12.1356 315.277 14.7486 318.092 18.2123 319.562C19.3107 321.377 19.1084 320.226 19.1084 322.028C19.1084 323.211 17.7289 323.096 17.0781 323.484C14.7002 324.902 11.3395 325.333 8.62059 325.528C5.76969 325.732 3.07388 327.404 0.289138 327.947C-1.84437 328.364 -3.89021 329.526 -5.79436 330.608L-5.87194 330.652C-7.29789 331.463 -8.28256 333.119 -9.38655 334.304C-10.5675 335.572 -11.8394 336.815 -12.8452 338.226C-14.4462 340.474 -14.0731 335.773 -14.0494 334.83C-14.0136 333.409 -12.8424 331.793 -12.159 330.652C-11.4378 329.448 -10.1409 328.219 -9.0645 327.406C-8.28938 326.821 -7.89056 325.877 -7.13216 325.257C-6.23237 324.522 -5.87737 324.108 -5.74592 322.838C-5.48555 320.323 -6.41527 317.92 -3.98161 316.451C-2.02525 315.27 0.225469 314.716 2.13746 313.551C3.88695 312.484 6.98416 312.959 8.73261 313.746Z" fill="#B1C9AB" stroke="#4A5759" stroke-width="2" stroke-linecap="round" stroke-linejoin="round"/>
<path d="M19.123 322.419C21.4705 322.247 23.1894 322.794 25.2658 323.728C25.9803 324.049 28.5202 325.409 28.5202 325.409" stroke="#4A5759" stroke-width="2" stroke-linecap="round" stroke-linejoin="round"/>
<rect x="32" y="38" width="311" height="362" rx="5" fill="#EFEDEA"/>
<path d="M32 43C32 40.2386 34.2386 38 37 38H338C340.761 38 343 40.2386 343 43V70H32V43Z" fill="#C8BFB6"/>
<path d="M151.275 59V57.516H152.255V53.036H151.275V51.566H153.942L154.348 53.239C154.614 52.5997 154.952 52.1237 155.363 51.811C155.778 51.4983 156.284 51.342 156.882 51.342C157.134 51.342 157.358 51.363 157.554 51.405C157.75 51.4423 157.934 51.496 158.107 51.566L157.694 54.674H156.308V53.302C155.888 53.3767 155.519 53.6053 155.202 53.988C154.884 54.366 154.639 54.8327 154.467 55.388V57.516H155.937V59H151.275ZM161.517 55.927C161.592 56.5337 161.79 56.97 162.112 57.236C162.434 57.4973 162.831 57.628 163.302 57.628C163.643 57.628 163.972 57.572 164.289 57.46C164.606 57.348 164.912 57.1987 165.206 57.012L166.095 58.216C165.745 58.5147 165.32 58.7597 164.821 58.951C164.326 59.1423 163.762 59.238 163.127 59.238C162.278 59.238 161.566 59.07 160.992 58.734C160.418 58.3933 159.986 57.9267 159.697 57.334C159.408 56.7413 159.263 56.06 159.263 55.29C159.263 54.5573 159.403 53.8923 159.683 53.295C159.963 52.693 160.371 52.2147 160.908 51.86C161.449 51.5007 162.11 51.321 162.889 51.321C163.598 51.321 164.212 51.4727 164.73 51.776C165.253 52.0793 165.656 52.5157 165.941 53.085C166.23 53.6543 166.375 54.338 166.375 55.136C166.375 55.262 166.37 55.3973 166.361 55.542C166.356 55.6867 166.347 55.815 166.333 55.927H161.517ZM162.889 52.805C162.492 52.805 162.173 52.9473 161.93 53.232C161.687 53.5167 161.54 53.9717 161.489 54.597H164.219C164.214 54.0557 164.109 53.6217 163.904 53.295C163.699 52.9683 163.36 52.805 162.889 52.805ZM171.935 57.495C172.238 57.495 172.523 57.4367 172.789 57.32C173.059 57.1987 173.328 57.0447 173.594 56.858L174.581 58.258C174.254 58.538 173.855 58.7713 173.384 58.958C172.917 59.1447 172.394 59.238 171.816 59.238C171.018 59.238 170.332 59.0747 169.758 58.748C169.184 58.4167 168.743 57.9593 168.435 57.376C168.127 56.788 167.973 56.1067 167.973 55.332C167.973 54.5573 168.129 53.869 168.442 53.267C168.759 52.6603 169.207 52.1843 169.786 51.839C170.369 51.4937 171.06 51.321 171.858 51.321C172.422 51.321 172.924 51.4003 173.363 51.559C173.806 51.713 174.212 51.944 174.581 52.252L173.622 53.582C173.37 53.4047 173.104 53.267 172.824 53.169C172.544 53.071 172.252 53.022 171.949 53.022C171.449 53.022 171.046 53.1993 170.738 53.554C170.434 53.904 170.283 54.4967 170.283 55.332C170.283 55.878 170.355 56.3097 170.5 56.627C170.644 56.9397 170.84 57.1637 171.088 57.299C171.34 57.4297 171.622 57.495 171.935 57.495ZM182.646 56.858C182.646 57.138 182.684 57.341 182.758 57.467C182.838 57.593 182.964 57.6887 183.136 57.754L182.681 59.21C182.243 59.168 181.872 59.0723 181.568 58.923C181.27 58.769 181.034 58.538 180.861 58.23C180.577 58.5707 180.213 58.825 179.769 58.993C179.326 59.1563 178.873 59.238 178.411 59.238C177.646 59.238 177.035 59.021 176.577 58.587C176.125 58.1483 175.898 57.586 175.898 56.9C175.898 56.0927 176.213 55.4697 176.843 55.031C177.478 54.5923 178.369 54.373 179.517 54.373H180.518V54.093C180.518 53.3323 180.028 52.952 179.048 52.952C178.81 52.952 178.505 52.987 178.131 53.057C177.758 53.1223 177.385 53.218 177.011 53.344L176.5 51.874C176.981 51.692 177.48 51.5543 177.998 51.461C178.521 51.3677 178.988 51.321 179.398 51.321C180.504 51.321 181.321 51.5473 181.848 52C182.38 52.448 182.646 53.0967 182.646 53.946V56.858ZM179.174 57.656C179.412 57.656 179.662 57.586 179.923 57.446C180.185 57.3013 180.383 57.0983 180.518 56.837V55.633H179.972C179.356 55.633 178.904 55.7287 178.614 55.92C178.325 56.1067 178.18 56.382 178.18 56.746C178.18 57.0307 178.267 57.2547 178.439 57.418C178.617 57.5767 178.862 57.656 179.174 57.656ZM188.899 51.321C189.869 51.321 190.565 51.6757 190.985 52.385C191.405 53.0943 191.615 54.0533 191.615 55.262C191.615 56.0273 191.503 56.711 191.279 57.313C191.055 57.9103 190.73 58.3817 190.306 58.727C189.881 59.0677 189.365 59.238 188.759 59.238C188.035 59.238 187.447 58.979 186.995 58.461V61.87L184.783 62.101V51.566H186.743L186.841 52.399C187.144 52.0117 187.475 51.7363 187.835 51.573C188.194 51.405 188.549 51.321 188.899 51.321ZM188.213 52.952C187.956 52.952 187.73 53.029 187.534 53.183C187.338 53.337 187.158 53.547 186.995 53.813V56.949C187.149 57.1777 187.31 57.3457 187.478 57.453C187.65 57.5603 187.853 57.614 188.087 57.614C188.479 57.614 188.784 57.4367 189.004 57.082C189.223 56.7227 189.333 56.1253 189.333 55.29C189.333 54.674 189.288 54.198 189.2 53.862C189.111 53.5213 188.983 53.2857 188.815 53.155C188.647 53.0197 188.446 52.952 188.213 52.952ZM194.836 57.677C194.836 57.3923 194.906 57.1333 195.046 56.9C195.186 56.662 195.375 56.473 195.613 56.333C195.851 56.1883 196.113 56.116 196.397 56.116C196.687 56.116 196.948 56.1883 197.181 56.333C197.419 56.473 197.608 56.662 197.748 56.9C197.888 57.1333 197.958 57.3923 197.958 57.677C197.958 57.957 197.888 58.216 197.748 58.454C197.608 58.692 197.419 58.881 197.181 59.021C196.948 59.1657 196.687 59.238 196.397 59.238C196.113 59.238 195.851 59.1657 195.613 59.021C195.375 58.881 195.186 58.692 195.046 58.454C194.906 58.216 194.836 57.957 194.836 57.677ZM207.067 51.321C207.594 51.321 207.984 51.4937 208.236 51.839C208.492 52.1797 208.621 52.7327 208.621 53.498V59H206.724V53.75C206.724 53.4887 206.698 53.3043 206.647 53.197C206.6 53.0897 206.502 53.036 206.353 53.036C206.236 53.036 206.115 53.071 205.989 53.141C205.867 53.2063 205.732 53.3323 205.583 53.519V59H204.029V53.75C204.029 53.4887 204.003 53.3043 203.952 53.197C203.905 53.0897 203.807 53.036 203.658 53.036C203.541 53.036 203.42 53.071 203.294 53.141C203.172 53.2063 203.037 53.3323 202.888 53.519V59H200.963V51.566H202.587L202.734 52.287C202.967 51.9697 203.203 51.7293 203.441 51.566C203.679 51.4027 203.961 51.321 204.288 51.321C204.568 51.321 204.806 51.3933 205.002 51.538C205.202 51.678 205.345 51.8997 205.429 52.203C205.653 51.9417 205.9 51.7293 206.171 51.566C206.441 51.4027 206.74 51.321 207.067 51.321ZM214.082 51.321C215.053 51.321 215.748 51.6757 216.168 52.385C216.588 53.0943 216.798 54.0533 216.798 55.262C216.798 56.0273 216.686 56.711 216.462 57.313C216.238 57.9103 215.914 58.3817 215.489 58.727C215.065 59.0677 214.549 59.238 213.942 59.238C213.219 59.238 212.631 58.979 212.178 58.461V61.87L209.966 62.101V51.566H211.926L212.024 52.399C212.328 52.0117 212.659 51.7363 213.018 51.573C213.378 51.405 213.732 51.321 214.082 51.321ZM213.396 52.952C213.14 52.952 212.913 53.029 212.717 53.183C212.521 53.337 212.342 53.547 212.178 53.813V56.949C212.332 57.1777 212.493 57.3457 212.661 57.453C212.834 57.5603 213.037 57.614 213.27 57.614C213.662 57.614 213.968 57.4367 214.187 57.082C214.407 56.7227 214.516 56.1253 214.516 55.29C214.516 54.674 214.472 54.198 214.383 53.862C214.295 53.5213 214.166 53.2857 213.998 53.155C213.83 53.0197 213.63 52.952 213.396 52.952ZM224.157 52.966V55.304H225.13V56.963H224.157V59H222.036L222.022 56.963H218.004V55.493L220.699 49.053L222.582 49.746L220.286 55.304H222.029L222.288 52.966H224.157Z" fill="#192825"/>
<rect x="33" y="39" width="309" height="360" rx="4" stroke="#4A5759" stroke-width="2"/>
<path d="M32 70H343" stroke="#4A5759" stroke-width="2"/>
<path d="M318.5 53C319 56 321.26 58.3214 322.552 59.0067C323.449 57.6605 325.296 56.8428 326.401 55.7987C327.156 55.0854 328.005 54.5315 328.005 53.3927C328.005 52.2129 327.5 51 326 51.5C323 52.5 322.5 55.55 322.5 52.5C322.5 50.8178 322.59 48.55 320.5 49.4999C318.864 50.2434 318.5 51 318.5 53Z" fill="#4A9D63" stroke="#4A5759" stroke-width="2" stroke-linecap="round" stroke-linejoin="round"/>
<path d="M306.022 48C305.983 48.0509 305.943 48.1017 305.904 48.1524C305.115 49.4549 306.73 53.975 307.192 54.8979C307.522 55.5582 308.922 56.9824 307.626 56.9824C306.437 56.9824 305.449 57.7575 304.899 58.7468C304.273 59.8742 304.295 61.4508 303.616 59.5488C303.322 58.7245 303.519 57.7056 303.192 56.3979C302.745 54.6108 299.75 53.558 299.117 53.5529C299.043 53.5864 299 53.6027 299 53.5962C299 53.5665 299.042 53.5523 299.117 53.5529C299.627 53.3242 301.628 52.294 301.709 52.2417C303.366 51.1765 304.702 49.6961 305.904 48.1524C305.939 48.0952 305.978 48.0442 306.022 48Z" fill="#F8CD5E" stroke="#4A5759" stroke-width="2" stroke-linecap="round" stroke-linejoin="round"/>
<path d="M284 50.0002C286.237 48.9942 287.5 50.0008 288.5 50.5004C290.405 51.4522 290.765 54.1668 291 55.5004C291.142 56.3079 290.07 59.8565 287.897 59.8565C284.803 59.8565 281 59.0936 281 55.2048C281 54.0096 281.763 51.0063 284 50.0002Z" fill="#9E483E" stroke="#4A5759" stroke-width="2" stroke-linecap="round" stroke-linejoin="round"/>
<path d="M414.109 583.327C414.523 578.406 413.496 575.032 412.078 570.882L327.233 569.881C327.233 569.881 324.181 573.994 323.733 577.235C323.151 581.449 322.768 584.85 324.377 586.794C325.678 588.366 325.699 584.879 326.309 583.485C326.919 582.091 328.416 580.015 329.207 578.338C330.28 576.061 332.287 574.831 334.036 573.19C335.246 572.054 336.47 572.082 337.899 571.352C339.443 570.562 340.375 571.214 342.152 571.214C345.393 571.214 348.48 570.882 351.727 570.882H358.239C359.084 570.882 359.683 571.144 360.431 571.619C361.155 572.078 360.156 572.921 359.851 573.699C358.544 577.034 355.961 577.285 353.323 579.351C350.261 581.748 348.234 582.545 345.198 584.984C343.629 586.245 342.725 586.928 341.281 588.371C339.761 589.892 338.603 590.549 337.654 592.587C336.138 595.844 335.604 599.233 337.509 602.031C339.401 604.808 340.975 606.589 343.331 608.856C344.752 610.223 345.351 610.51 346.923 611.641C348.096 612.484 348.8 612.874 350.05 613.556C350.808 613.969 350.164 612.897 350.777 613.268C351.412 613.652 351.165 613.046 351.727 612.533C352.595 611.739 352.071 610.176 352.709 608.488C354.284 604.32 354.601 601.9 356.894 598.193C357.612 597.033 358.084 596.023 358.826 594.884C359.486 593.871 360.39 593.664 361.08 592.677C362.304 590.925 362.505 590.536 363.935 589.001C364.724 588.154 365.512 587.472 366.105 586.794C366.84 585.956 368.048 586.207 368.807 585.389C369.401 584.748 372.772 584.673 374.133 585.389C374.707 585.691 375.134 585.835 375.455 586.457C375.829 587.182 375.556 587.77 375.519 588.611C375.427 590.715 374.989 591.869 374.294 593.821C372.463 598.966 368.769 601.494 366.105 604.535C363.986 606.956 361.404 612.583 363.935 615.474C366.307 618.183 369.419 616.943 372.618 616.943H376.97C378.527 616.943 380.176 617.606 381.757 617.606C384.798 617.606 386.722 618.225 389.285 619.852C390.842 620.839 392.422 621.629 393.928 622.724C395.177 623.631 395.154 624.721 396.494 625.402C397.028 625.673 397.514 625.132 398.426 624.299C399.265 623.532 399.392 618.041 399.392 616.943C399.392 613.529 400.221 611.784 401.646 608.856C402.956 606.161 402.519 605.633 401.968 602.237C401.361 598.505 401.544 598.144 399.392 595.251C397.521 592.737 396.003 592.351 394.241 589.736C393.464 588.583 390.438 585.975 390.055 584.588C389.597 582.929 390.624 580.884 391.343 579.351C392.099 577.739 395.123 578.16 396.7 577.841C397.425 577.695 397.958 577.841 398.586 577.841C399.215 577.841 399.751 578.193 400.472 578.504C403.288 579.72 405.422 581.811 406.791 583.548C407.638 584.623 408.629 585.613 409.612 587.12C410.375 588.289 410.698 589.282 411.369 590.268C411.66 590.695 411.893 592.299 412.094 591.262C412.204 590.7 412.657 589.969 412.949 589.108C413.679 586.947 413.916 585.633 414.109 583.327Z" fill="#B7C2B4"/>
<path d="M397.46 624.666C385.548 613.268 378.143 584.588 374.602 568.41" stroke="#4A5759" stroke-width="2"/>
<path d="M409.503 570.882C410.92 575.032 411.947 578.406 411.534 583.327C411.34 585.633 411.103 586.947 410.373 589.108C410.082 589.969 409.628 590.7 409.519 591.262C409.317 592.299 409.084 590.695 408.793 590.268C408.122 589.282 407.799 588.289 407.036 587.12C406.054 585.613 405.063 584.623 404.215 583.548C402.846 581.811 400.713 579.72 397.897 578.504C397.176 578.193 396.639 577.841 396.011 577.841C395.382 577.841 394.85 577.695 394.125 577.841C392.548 578.16 391.415 578.733 390.659 580.345C389.94 581.879 390.184 583.141 390.643 584.8C391.026 586.187 391.607 586.796 392.384 587.948C394.146 590.564 396.154 590.901 398.025 593.416C400.178 596.308 401.626 598.133 402.233 601.866C402.785 605.261 402.625 607.952 401.314 610.647C399.889 613.575 398.767 616.843 398.767 620.257C398.767 621.354 399.17 623.798 398.332 624.565C397.42 625.398 396.178 625.902 394.995 625.301C393.654 624.621 392.601 623.631 391.352 622.724C389.846 621.629 388.266 620.839 386.71 619.852C384.146 618.226 382.175 618.201 379.182 617.606C377.326 617.237 376.274 617.066 374.394 616.943C372.697 616.832 371.493 616.943 370.042 616.943C366.844 616.943 363.732 618.183 361.36 615.474C358.828 612.583 361.41 606.956 363.53 604.535C366.193 601.494 369.887 598.966 371.718 593.821C372.413 591.869 372.851 590.715 372.944 588.611C372.98 587.77 373.253 587.182 372.879 586.457C372.558 585.835 372.132 585.691 371.557 585.389C370.196 584.673 368.315 584.821 367.721 585.463C366.963 586.281 365.989 586.778 365.254 587.617C364.661 588.295 364.012 588.924 363.223 589.771C361.793 591.306 360.821 591.994 359.597 593.747C358.907 594.734 358.66 595.404 358.001 596.417C357.258 597.556 356.703 598.073 355.986 599.233C353.692 602.941 353.692 605.817 352.117 609.984C351.479 611.672 351.325 613.499 350.457 614.292C349.895 614.806 350.076 614.934 349.441 614.55C348.828 614.179 348.233 613.969 347.475 613.556C346.224 612.874 345.52 612.484 344.347 611.641C342.775 610.51 342.176 610.223 340.755 608.856C338.399 606.589 336.825 604.809 334.934 602.031C333.028 599.233 333.563 595.844 335.079 592.587C336.027 590.549 337.185 589.892 338.706 588.372C340.149 586.928 341.054 586.245 342.623 584.984C345.658 582.545 347.686 581.748 350.747 579.351C353.386 577.285 355.968 577.034 357.275 573.699C357.58 572.921 358.579 572.078 357.856 571.619C357.108 571.144 356.509 570.882 355.663 570.882C353.493 570.882 351.322 570.882 349.151 570.882C345.905 570.882 342.818 571.214 339.576 571.214C337.799 571.214 336.913 571.603 335.369 572.392C333.94 573.123 333.242 573.797 332.032 574.933C330.283 576.574 329.204 577.553 328.131 579.83C327.34 581.507 326.234 583.59 325.623 584.984C325.013 586.378 324.348 589.943 323.048 588.372C321.438 586.427 321.178 581.817 321.76 577.602C322.207 574.362 324.657 569.881 324.657 569.881" stroke="#4A5759" stroke-width="2" stroke-linecap="round" stroke-linejoin="round"/>
<path d="M246.67 473.174C245.3 476.157 245.916 480.191 245.947 483.393C242.501 483.403 240.885 483.633 237.314 483.633C235.075 483.633 235.356 477.55 235.356 476.014C235.356 472.298 235.221 468.901 236.123 465.293C237.039 461.628 238.359 458.347 240.094 454.969C240.983 453.237 241.845 451.861 242.873 450.204C243.715 448.848 244.467 447.232 245.256 445.837C245.851 444.783 246.997 443.69 247.638 442.66C250.019 438.833 252.431 439.059 255.58 435.91C256.528 434.962 258.805 433.018 260.345 430.748C261.707 428.739 262.139 426.552 263.124 425.189C265.719 421.596 266.311 417.398 269.406 414.302C271.215 412.494 273.103 411.265 273.391 408.525C273.479 407.691 274.519 403.631 275.505 404.727C277.267 406.685 277.447 410.049 278.153 412.43C279.44 416.776 278.493 419.962 277.022 423.997C275.792 427.371 273.682 433.294 271.066 435.91C268.929 438.046 266.437 440.895 264.315 443.057C258.1 449.389 252.472 456.436 249.506 465.016C248.587 467.675 247.839 470.632 246.67 473.174Z" fill="#B7C2B4"/>
<path d="M302.435 477.206C300.464 479.033 298.182 480.513 296.081 482.176C295.432 481.942 293.112 481.753 292.263 482.134C291.65 482.408 290.466 482.176 289.794 482.176H287.04H281.912H279.443C281.39 482.176 281.897 480.671 282.184 480.382C284.172 478.378 286.101 476.345 287.743 474.029C289.806 471.118 291.934 469.344 294.096 466.485C295.925 464.065 298.183 461.72 300.449 459.734C302.183 458.215 303.367 456.365 305.214 454.969C308.35 452.599 313.717 447.725 316.392 444.821C317.389 443.74 318.753 442.778 319.906 441.866C320.987 441.01 321.72 439.472 322.28 438.23C323.063 436.495 323.96 434.002 325.372 432.722C326.439 431.754 328.453 433.052 328.453 434.296C328.453 437.01 327.39 439.333 326.743 441.94C326.06 444.696 323.553 446.758 321.974 448.968C319.763 452.063 314.369 456.702 313.386 460.551C312.428 464.307 310.875 468.743 307.994 471.647C306.153 473.501 304.351 475.429 302.435 477.206Z" fill="#B7C2B4"/>
<path d="M278.193 464.599C274.597 469.993 272.087 476.524 271.875 483.061H262.038C261.275 483.061 260.166 483.261 259.427 483.05C259.194 482.983 259.248 481.132 259.322 480.87C259.902 478.843 259.823 476.123 260.989 474.203C261.566 473.254 261.907 472.097 262.221 471.032L262.248 470.94C262.661 469.541 263.373 468.264 263.926 466.918C264.925 464.492 266.212 462.178 267.493 459.89C270.154 455.139 274.186 451.142 277.517 446.859C278.195 445.987 279.08 445.279 279.918 444.574C280.742 443.882 281.303 442.907 282.016 442.115C283.783 440.152 284.977 437.739 286.69 435.763C289.427 432.605 290.268 428.873 291.935 425.168C294.231 420.065 297.229 416.043 301.069 412.203C302.081 411.191 303.206 409.963 304.356 409.126C305.298 408.441 306.22 407.553 307.2 406.923C307.877 406.488 308.157 404.934 308.622 405.979C309.019 406.873 308.402 407.98 308.202 408.8C307.846 410.266 307.757 411.087 306.675 412.168C305.019 413.824 304.122 415.804 302.689 417.611C300.544 420.316 300.981 424.698 299.849 427.93C298.985 430.398 297.606 432.849 297.029 435.39C296.741 436.655 296.175 437.91 295.816 439.166C295.438 440.489 295.408 441.859 294.767 443.094C294.128 444.328 293.665 445.598 292.879 446.766C291.955 448.139 290.792 449.339 289.86 450.717C288.181 453.199 286.426 455.898 284.324 458.048C282.194 460.227 279.902 462.035 278.193 464.599Z" fill="#B7C2B4"/>
<path d="M296.789 483.118C299.077 481.321 301.56 479.612 303.707 477.637C305.794 475.717 308.022 473.954 310.027 471.949C313.165 468.811 313.579 463.598 314.623 459.539C315.693 455.379 319.178 452.887 321.587 449.542C323.306 447.154 326.036 444.925 326.781 441.946C327.485 439.129 328.642 436.618 328.642 433.684C328.642 432.34 326.449 430.938 325.287 431.984C323.75 433.367 322.772 436.061 321.92 437.936C321.309 439.279 320.512 440.941 319.334 441.866C318.079 442.852 316.593 443.892 315.508 445.06C312.594 448.199 308.777 450.519 305.362 453.081C303.35 454.59 301.677 456.437 299.788 458.08C297.321 460.226 294.863 462.394 292.871 465.009C290.516 468.099 287.66 470.826 285.413 473.972C283.625 476.475 281.374 478.677 279.208 480.843C278.896 481.155 277.342 482.911 277.657 482.911C278.553 482.911 279.45 482.911 280.346 482.911C282.207 482.911 284.069 482.911 285.93 482.911C286.93 482.911 287.93 482.911 288.93 482.911C289.661 482.911 290.951 483.162 291.618 482.865C292.544 482.454 296.397 483.282 296.789 482.498" stroke="#4A5759" stroke-width="2" stroke-linecap="round" stroke-linejoin="round"/>
<path d="M327.115 431.542C327.115 433.016 327.154 434.406 326.654 435.814C326.233 436.997 325.908 438.177 325.423 439.352C323.869 443.114 320.69 446.012 317.852 448.802C316.673 449.962 315.488 450.653 314.041 451.417C312.37 452.3 310.78 454.067 309.427 455.382C307.461 457.294 306.411 460.212 305.702 462.765C305.002 465.281 302.83 467.648 300.848 469.225C299.637 470.188 298.469 471.166 297.345 472.232C296.318 473.206 295.25 474.43 294.08 475.223C293.052 475.921 292.569 477.019 291.654 477.804C291.027 478.341 290.461 479.071 289.859 479.649C289.303 480.184 288.87 480.8 288.355 481.376C288.115 481.644 287.558 482.047 287.433 482.298" stroke="#4A5759" stroke-width="2" stroke-linecap="round" stroke-linejoin="round"/>
<path d="M270.271 483.162C270.271 476.327 272.844 469.445 276.604 463.805C278.313 461.241 280.605 459.432 282.735 457.254C284.837 455.104 286.592 452.405 288.271 449.923C289.203 448.545 290.366 447.345 291.29 445.972C292.076 444.803 292.539 443.534 293.178 442.3C293.819 441.065 293.849 439.695 294.227 438.372C294.586 437.116 295.152 435.861 295.44 434.596C296.017 432.055 297.396 429.604 298.26 427.136C299.392 423.903 300.579 420.027 302.724 417.322C304.157 415.515 305.054 413.535 306.711 411.879C307.792 410.797 307.881 409.977 308.237 408.51C308.437 407.69 309.054 406.583 308.657 405.69C308.192 404.644 307.912 406.199 307.235 406.634C306.255 407.264 305.334 408.151 304.391 408.837C303.241 409.673 302.116 410.902 301.104 411.914C297.264 415.754 292.642 419.271 290.346 424.374C288.679 428.078 287.838 431.811 285.101 434.969C283.388 436.945 282.194 439.358 280.427 441.321C279.714 442.113 279.153 443.087 278.329 443.78C277.491 444.485 276.606 445.193 275.928 446.065C272.597 450.347 268.565 454.345 265.904 459.096C264.623 461.384 263.336 463.698 262.338 466.124C261.784 467.469 261.072 468.747 260.659 470.145C260.337 471.236 259.994 472.432 259.4 473.409C258.234 475.329 258.313 478.049 257.734 480.076C257.659 480.338 257.606 482.189 257.838 482.256C258.577 482.467 259.686 482.267 260.449 482.267C263.736 482.267 267.023 482.267 270.31 482.267" stroke="#4A5759" stroke-width="2" stroke-linecap="round" stroke-linejoin="round"/>
<path d="M307.843 406.427C304.982 410.837 300.832 414.242 298.026 418.651C296.884 420.445 295.36 421.908 294.482 423.867C293.771 425.454 292.966 426.996 292.249 428.574C291.743 429.688 291.483 430.987 291.125 432.158C290.741 433.417 290.064 434.544 289.681 435.796C289.077 437.773 288.247 439.815 287.14 441.574C284.621 445.575 282.145 449.556 279.383 453.423C277.376 456.233 275.284 458.717 273.659 461.795C272.141 464.672 269.678 467.224 268.604 470.328C267.554 473.36 265.72 476.071 264.565 479.074C264.108 480.261 263.308 481.121 263.308 482.498" stroke="#4A5759" stroke-width="2" stroke-linecap="round" stroke-linejoin="round"/>
<path d="M247.915 482.839C247.915 479.601 247.232 475.438 248.637 472.38C249.805 469.838 250.554 466.881 251.473 464.222C254.439 455.641 260.611 448.969 266.826 442.637C268.948 440.475 271.002 438.22 273.138 436.083C275.754 433.468 277.017 429.213 278.247 425.839C279.718 421.804 281.407 415.982 280.12 411.636C279.414 409.255 279.234 405.891 277.472 403.933C276.486 402.837 275.446 406.896 275.358 407.731C275.07 410.47 273.182 411.7 271.373 413.508C268.278 416.604 265.007 419.304 262.412 422.897C261.427 424.261 260.775 426.071 260.246 427.658C259.817 428.946 258.68 430.08 257.732 431.028C254.583 434.177 250.965 437.312 248.584 441.139C247.943 442.169 247.187 443.148 246.591 444.201C245.803 445.597 245.146 447.111 244.304 448.468C243.276 450.124 242.064 451.737 241.175 453.47C239.44 456.848 237.704 460.637 236.788 464.302C235.886 467.91 235.397 471.178 235.397 474.895C235.397 476.43 235.084 483.079 237.323 483.079C240.977 483.079 244.542 482.598 248.156 482.598" stroke="#4A5759" stroke-width="2" stroke-linecap="round" stroke-linejoin="round"/>
<path d="M278.247 404.601C277.1 411.609 273.163 417.248 270.396 423.632C266.94 431.608 260.526 438.141 255.27 444.857C252.458 448.45 249.917 452.044 247.433 455.877C246.35 457.548 245.545 459.628 244.785 461.467C243.936 463.523 243.398 465.825 242.378 467.793C240.003 472.373 240.211 478.28 240.211 483.32" stroke="#4A5759" stroke-width="2" stroke-linecap="round" stroke-linejoin="round"/>
<path d="M419.261 475.185H135.533C134.134 475.185 133 476.319 133 477.718V568.19C133 569.447 133.921 570.514 135.165 570.697L140.105 571.423C140.227 571.441 140.35 571.45 140.473 571.45H419.261C420.66 571.45 421.795 570.316 421.795 568.917V477.718C421.795 476.319 420.66 475.185 419.261 475.185Z" fill="#4A5759"/>
<path d="M133 477.718C133 476.319 134.134 475.185 135.533 475.185H418.755C420.154 475.185 421.288 476.319 421.288 477.718V491.398H133V477.718Z" fill="#C8BFB6"/>
<path d="M135.533 476.185H419.261C420.108 476.185 420.795 476.872 420.795 477.718V568.917C420.795 569.763 420.108 570.45 419.261 570.45H134.072C134.032 570.45 134 570.418 134 570.378V477.718C134 476.872 134.686 476.185 135.533 476.185Z" stroke="#4A5759" stroke-width="2"/>
<path d="M133 491.905L421.288 491.905" stroke="#4A5759" stroke-width="2"/>
<rect x="157.319" y="508.625" width="48.4942" height="4.07895" rx="2.03947" fill="#93BB94"/>
<rect x="168.65" y="519.049" width="48.4942" height="4.07895" rx="2.03947" fill="#B7C2B4"/>
<rect x="317.758" y="529.472" width="28.5526" height="4.07895" rx="2.03947" fill="#BAC3C5"/>
<rect x="168.65" y="550.321" width="39.4298" height="4.07895" rx="2.03947" fill="#B7C2B4"/>
<rect x="210.799" y="550.321" width="128.714" height="4.07895" rx="2.03947" fill="#BAC3C5"/>
<rect x="181.793" y="529.472" width="133.246" height="4.07895" rx="2.03947" fill="#B1C9AB"/>
<rect x="182.247" y="539.896" width="198.509" height="4.07895" rx="2.03947" fill="#B1C9AB"/>
<path d="M296.628 424.004L300.743 423.025L299.567 431.842H296.628V424.004Z" fill="#D39264"/>
<path d="M303.937 420.968C306.266 416.28 312.166 410.387 312.166 410.387L314.811 408.624L324.804 405.685L335.972 406.566C335.972 406.566 344.383 409.56 348.023 413.62C350.731 416.642 353.019 422.731 353.019 422.731L356.546 435.663L358.015 450.064V460.939C358.015 460.939 355.658 466.647 353.019 469.462C349.572 473.139 341.851 475.928 341.851 475.928L329.507 478.279L313.636 475.928C313.636 475.928 304.679 471.548 301.292 466.523C298.022 461.673 297.503 457.962 297.177 452.122C296.812 445.581 300.41 435.663 300.41 435.663C300.41 435.663 301.31 426.253 303.937 420.968Z" fill="#818181"/>
<path d="M304.31 481.691L309.67 474.165L320.392 477.777L318.307 486.509L315.329 485.003V481.691L313.542 485.003H309.67L311.16 480.487L307.883 483.498L304.31 481.691Z" fill="#E5CEB1"/>
<path d="M336.475 486.509L334.985 477.777L345.162 475.34L348.983 478.982V481.691L346.601 484.401L343.405 485.906L340.346 481.691L339.155 486.509H336.475Z" fill="#E5CEB1"/>
<path d="M321.331 434.193L326.034 431.548L331.324 434.193L326.034 439.484L321.331 434.193Z" fill="#E5CEB1"/>
<path d="M308.843 467.747C309.498 469.837 310.419 471.317 311.774 473.057C312.929 474.175 312.38 474.113 315.271 475.353C317.553 476.332 319.571 477.195 322.073 477.586C324.472 477.96 327.644 478.66 330.063 478.019C330.94 477.787 331.869 478.063 332.749 477.882C334.04 477.616 335.384 477.428 336.644 477.067C338.371 476.573 339.543 475.527 341.05 474.729C343.436 472.219 345.073 469.71 345.688 466.603C345.855 465.759 345.996 463.54 346.043 462.716C346.098 461.756 340.132 464.559 340.132 463.554C340.132 462.023 344.529 457.126 345.116 455.728C344.663 454.677 344.683 454.355 344.334 453.262C343.918 451.959 343.288 451.319 342.448 450.289C341.126 448.669 339.949 447.373 338.373 445.946C336.496 444.245 334.979 444.527 332.749 443.43C328.71 441.443 321.807 442.782 317.857 444.142C315.942 444.801 314.429 446.317 312.929 447.559C311.729 448.553 310.576 449.728 309.733 451.03C308.752 452.546 308.162 454.11 307.856 455.728C307.495 457.64 312.086 459.082 309.733 463.554C309.787 463.987 307.9 462.568 307.958 462.995C308.175 464.594 308.351 466.178 308.843 467.747Z" fill="#E5CEB1"/>
<path d="M310.696 463.584V446.831L325.979 445.068L338.911 445.656L340.087 453.297H345.377L340.087 462.702L323.334 464.172L310.696 463.584Z" fill="#F2F2F2"/>
<path d="M310.336 474.815C308.798 476.061 307.635 477.318 306.616 479.017C306.171 479.759 304.796 481.296 304.796 482.162C304.796 482.756 307.594 484.047 307.981 483.674C308.441 483.231 311.326 478.309 311.045 480.837C310.942 481.768 308.96 485.325 310.871 485.414C311.72 485.454 312.307 485.946 313.106 486.123C314.182 486.362 314.54 484.182 314.779 483.5C314.896 483.165 315.199 481.598 315.823 481.667C315.973 481.684 315.635 484.771 315.635 485.013C315.635 486.397 317.262 486.712 318.526 486.351C319.583 486.049 319.946 482.454 319.971 481.614C319.998 480.715 319.971 478.885 319.971 477.985" stroke="#9F4100" stroke-width="1.17562" stroke-linecap="round" stroke-linejoin="round"/>
<path d="M328.737 405.352C329.004 402.66 328.329 399.871 328.329 397.161" stroke="#D66C22" stroke-width="1.17562" stroke-linecap="round" stroke-linejoin="round"/>
<path d="M334.874 478.351C334.874 480.56 335.409 482.694 335.618 484.894C335.693 485.685 335.769 486.668 336.642 487.021C337.094 487.203 339.176 487.038 339.532 486.698C340.064 486.187 339.672 484.061 339.672 483.332C339.672 483.037 339.489 481.72 339.924 481.743C341.212 481.812 341.243 483.933 342.197 484.463C342.759 484.775 343.234 485.963 343.839 486.092C344.855 486.308 345.778 485.393 346.715 485.136C347.528 484.913 346.591 482.849 346.238 482.47C346.015 482.232 345.868 481.914 345.732 481.622C345.691 481.532 345.098 481.043 345.354 481.043C345.677 481.043 346.207 482.683 346.49 482.955C346.922 483.37 347.665 483.471 348.258 483.44C351.872 483.247 347.006 476.743 345.732 475.928" stroke="#9F4100" stroke-width="1.17562" stroke-linecap="round" stroke-linejoin="round"/>
<path d="M310.988 411.753C312.514 410.33 313.994 408.989 316.12 408.299C317.966 407.621 319.295 406.793 321.275 406.463C323.237 406.136 325.75 405.581 327.741 405.581C334.874 405.581 339.425 406.887 345.375 410.872C348.622 413.046 352.148 418.178 353.017 420.57C353.926 424.884 356.412 429.086 356.412 433.523C356.412 435.104 357.172 436.462 357.172 438.043C357.172 438.971 357.86 441.042 357.86 442.03C357.86 443.814 357.795 443.976 357.86 445.221C357.979 447.523 358.564 448.769 358.729 451.069C358.885 453.245 359.006 454.487 358.729 456.652C357.993 462.4 355.578 466.302 351.965 470.109C348.304 473.966 343.451 476.019 338.137 477.271C335.064 477.995 332.268 478.279 329.088 478.143C326.254 478.022 321.922 478.411 319.393 477.271C316.463 475.95 314.482 475.757 311.673 474.228C307.861 472.152 304.564 469.884 302.048 466.488C299.687 463.302 297.898 458.507 297.898 454.667C297.898 451.381 298 448.751 298.723 444.48C299.355 442.989 299.407 441.348 299.639 439.778C299.865 438.242 300.462 436.838 300.562 435.27C300.666 433.658 301.3 432.066 301.459 430.442C301.631 428.692 301.56 426.98 302.048 425.258C303.009 421.867 305.096 418.376 307.461 415.574L307.525 415.499C308.744 414.055 309.574 413.072 310.988 411.753Z" stroke="#282E2F" stroke-width="1.76343" stroke-linecap="round" stroke-linejoin="round"/>
<path d="M313.782 428.394C312.294 428.651 311.683 428.801 311.139 430.145C310.806 430.97 311.469 431.627 312.166 432.058C313.604 432.947 315.398 432.17 315.398 430.503C315.398 429.034 314.507 427.728 312.807 427.728C311.924 427.728 311.742 427.748 311.242 428.443C310.859 428.976 310.233 429.726 311.242 429.726" stroke="#282E2F" stroke-width="1.17562" stroke-linecap="round" stroke-linejoin="round"/>
<path d="M313.199 429.613C309.519 431.478 314.789 431.544 313.496 429.521C313.097 428.896 312.064 430.22 311.961 430.71C311.826 431.348 312.515 432.114 312.984 431.746C313.295 431.503 314.163 431.766 314.163 431.373C314.163 430.912 313.802 430.954 314.163 430.954C314.782 430.954 315.19 427.767 314.27 429.338" stroke="#282E2F" stroke-width="1.17562" stroke-linecap="round" stroke-linejoin="round"/>
<path d="M313.464 428.12C311.965 427.88 311.329 427.731 310.527 429.006C310.27 429.414 310.527 430.779 310.527 431.254C310.527 432.668 313.609 432.447 314.396 432.304C315.621 432.082 316.108 429.486 315.236 428.738C314.868 428.422 315.033 428.193 314.525 428.108C314.333 428.076 313.954 427.903 313.779 427.805C313.023 427.385 311.833 427.782 311.156 428.12" stroke="#282E2F" stroke-width="1.17562" stroke-linecap="round" stroke-linejoin="round"/>
<path d="M339.166 427.699C337.515 428.421 335.952 430.361 337.442 431.766C338.189 432.471 339.809 432.773 340.556 431.868C341.923 430.21 340.167 426.948 337.873 428.151C337.612 428.287 336.504 429.093 337.394 428.512C337.952 428.148 338.953 427.581 339.646 427.992C340.497 428.498 341.322 429.267 341.322 430.241C341.322 431.589 342.166 429.724 341.861 428.919C341.579 428.173 341.556 428.056 340.688 427.8C340.282 427.681 339.372 427.515 339.166 427.902" stroke="#282E2F" stroke-width="1.17562" stroke-linecap="round" stroke-linejoin="round"/>
<path d="M340.89 428.919C340.309 428.919 339.139 428.624 338.95 429.337C338.798 429.912 338.554 430.507 339.274 430.828C339.909 431.112 340.216 430.572 339.872 430.049C339.528 429.523 338.034 429.231 337.573 429.766C336.455 431.064 340.995 431.678 340.411 429.416C340.149 428.4 337.031 429.659 339.381 429.936" stroke="#282E2F" stroke-width="1.17562" stroke-linecap="round" stroke-linejoin="round"/>
<path d="M339.103 427.799C337.819 427.853 336.725 428.393 336.725 429.629C336.725 430.335 337.195 431.626 338.13 431.81C339.352 432.051 341.004 432.258 341.634 431.254C342.013 430.65 341.799 428.797 341.217 428.225C340.31 427.332 339.48 427.699 338.235 427.699" stroke="#282E2F" stroke-width="1.17562" stroke-linecap="round" stroke-linejoin="round"/>
<path fill-rule="evenodd" clip-rule="evenodd" d="M342.81 440.071C336.155 440.071 330.76 434.676 330.76 428.021C330.76 421.366 336.155 415.971 342.81 415.971C349.465 415.971 354.86 421.366 354.86 428.021C354.86 434.676 349.465 440.071 342.81 440.071ZM342.81 437.72C337.453 437.72 333.111 433.378 333.111 428.021C333.111 422.664 337.453 418.322 342.81 418.322C348.166 418.322 352.509 422.664 352.509 428.021C352.509 433.378 348.166 437.72 342.81 437.72Z" fill="#CECECE"/>
<path fill-rule="evenodd" clip-rule="evenodd" d="M310.44 440.071C304.088 440.071 298.939 434.676 298.939 428.021C298.939 421.366 304.088 415.971 310.44 415.971C316.793 415.971 321.942 421.366 321.942 428.021C321.942 434.676 316.793 440.071 310.44 440.071ZM310.44 437.72C305.328 437.72 301.183 433.378 301.183 428.021C301.183 422.664 305.328 418.322 310.44 418.322C315.553 418.322 319.698 422.664 319.698 428.021C319.698 433.378 315.553 437.72 310.44 437.72Z" fill="#CECECE"/>
<path d="M354.86 431.842V423.613H358.387V431.842H354.86Z" fill="#D49264"/>
<path d="M326.326 431.445C325.379 432.194 322.948 433.14 321.88 433.702C321.106 434.109 321.654 435.096 322.291 435.663C323.428 437.228 324.054 437.426 325.747 439.455" stroke="#9F4100" stroke-width="1.17562" stroke-linecap="round" stroke-linejoin="round"/>
<path d="M326.177 439.24C327.564 438.07 328.963 436.883 330.247 435.6C330.613 435.233 331.089 434.825 331.322 434.384C331.457 434.13 331.011 434.021 330.855 433.929C329.761 433.282 327.796 432.327 326.326 431.445" stroke="#9F4100" stroke-width="1.17562" stroke-linecap="round" stroke-linejoin="round"/>
<path d="M326.047 393.158C324.779 394.882 326.254 396.251 327.741 396.867C330.369 396.867 331.982 395.117 330.209 392.556C329.276 391.208 326.88 392.024 326.047 393.158Z" fill="#F1BD69" stroke="#D66C22" stroke-width="1.17562" stroke-linecap="round" stroke-linejoin="round"/>
<path d="M327.907 387.751C325.178 388.313 323.36 388.768 321.899 391.231C320.859 392.617 319.731 390.922 319.731 389.785C319.731 388.65 321.099 387.379 321.952 386.788C322.729 386.251 323.319 385.73 324.147 385.209C324.751 384.829 325.449 384.622 326.114 384.366C327.535 383.819 330.116 384.175 331.534 384.54C333.179 384.963 336.592 386.662 336.592 388.594C336.592 389.258 336.35 392.781 334.853 391.284C334 390.432 333.075 389.481 332.123 388.702C331.042 387.817 329.238 387.477 327.907 387.751Z" fill="#F1BD69" stroke="#D66C22" stroke-width="1.17562" stroke-linecap="round" stroke-linejoin="round"/>
<path d="M332.952 380.03C328.071 378.033 321.047 379.12 318.045 383.523C316.571 383.523 316.061 381.668 316.573 380.702C316.847 380.184 317.039 379.977 317.454 379.561C317.825 379.191 319.017 378.508 319.218 378.057C319.218 378.057 322.958 376.619 324.067 376.35C326.483 375.762 329.094 376.04 331.521 376.283C333.781 376.509 337.955 377.318 339.122 379.561C339.815 380.895 340.475 381.608 338.787 382.639C338.139 383.035 337.804 382.7 337.383 382.279L337.369 382.265C336.279 381.175 334.348 380.601 332.952 380.03Z" fill="#F1BD69" stroke="#D66C22" stroke-width="1.17562" stroke-linecap="round" stroke-linejoin="round"/>
<path d="M298.774 453.137C301.503 457.15 304.276 460.38 308.49 462.865C308.847 463.076 309.649 463.793 309.975 463.213C310.365 462.521 310.577 461.634 310.577 460.845C310.577 458.36 308.704 456.01 307.674 453.846C306.963 452.354 306.363 450.69 305.519 449.282" stroke="#536264" stroke-width="1.17562" stroke-linecap="round" stroke-linejoin="round"/>
<path d="M310.577 446.392C310.603 450.269 310.445 454.205 310.591 458.075C310.644 459.495 310.4 462.165 310.4 463.584" stroke="#536264" stroke-width="1.17562" stroke-linecap="round" stroke-linejoin="round"/>
<path d="M310.694 446.243C315.103 445.656 320.262 445.756 324.949 445.428C328.271 445.196 331.579 445.187 334.906 445.187C336.613 445.187 339.444 444.405 339.482 446.793C339.557 451.399 339.964 465.21 339.964 460.604" stroke="#536264" stroke-width="1.17562" stroke-linecap="round" stroke-linejoin="round"/>
<path d="M309.613 463.976C312.983 463.976 316.34 464.537 319.703 464.444C324.055 464.325 329.879 464.457 334.207 463.976C336.325 463.741 341.922 462.996 339.791 462.996" stroke="#536264" stroke-width="1.17562" stroke-linecap="round" stroke-linejoin="round"/>
<path d="M349.118 450.005C346.955 452.493 345.159 455.192 343.15 457.794C342.447 458.704 340.995 459.886 340.929 461.086C340.899 461.617 340.238 461.958 340.206 462.531C340.142 463.687 341.217 463.571 342.12 463.361C344.924 462.706 347.68 461.426 350.309 460.242C351.737 459.6 354.091 458.41 354.659 456.991" stroke="#536264" stroke-width="1.17562" stroke-linecap="round" stroke-linejoin="round"/>
<path d="M299.82 423.025C298.76 422.987 297.446 422.682 296.584 423.597C296.007 424.21 296.326 427.102 296.295 427.985C296.253 429.151 296.229 430.151 296.406 431.271C296.597 432.478 298.293 431.943 298.868 431.748" stroke="#FEFEFE" stroke-width="1.17562" stroke-linecap="round" stroke-linejoin="round"/>
<path d="M354.898 423.268C355.691 423.268 358.993 422.771 358.993 424.285C358.993 425.953 358.993 427.621 358.993 429.29C358.993 430.88 359.2 432.18 357.307 432.18" stroke="#FEFEFE" stroke-width="1.17562" stroke-linecap="round" stroke-linejoin="round"/>
<path d="M323.517 430.376C322.137 430.238 322.845 428.529 322.933 427.655C324.429 427.805 326.475 427.768 327.971 427.917C328.664 427.987 329.861 427.715 330.464 427.938C330.96 428.122 330.705 429.661 330.671 430.003C330.534 431.37 328.398 430.623 327.166 430.5C325.94 430.377 324.732 430.498 323.517 430.376Z" fill="#536264" stroke="#536264" stroke-width="1.17562" stroke-linecap="round" stroke-linejoin="round"/>
<circle cx="342.81" cy="428.021" r="12.0501" stroke="#FEFEFE" stroke-width="1.17562" stroke-linecap="round" stroke-linejoin="round"/>
<circle cx="342.81" cy="428.021" r="9.69888" stroke="#FEFEFE" stroke-width="1.17562" stroke-linecap="round" stroke-linejoin="round"/>
<ellipse cx="310.734" cy="428.021" rx="11.7958" ry="12.0501" stroke="#FEFEFE" stroke-width="1.17562" stroke-linecap="round" stroke-linejoin="round"/>
<ellipse cx="310.734" cy="428.021" rx="9.4942" ry="9.69888" stroke="#FEFEFE" stroke-width="1.17562" stroke-linecap="round" stroke-linejoin="round"/>
<path d="M354.076 431.831C354.655 431.955 357.131 431.831 358.307 431.831" stroke="#FEFEFE" stroke-width="1.17562" stroke-linecap="round" stroke-linejoin="round"/>
<path d="M339.918 462.276C341.252 459.886 343.005 457.724 344.31 455.351C344.654 454.726 345.334 454.238 345.625 453.62C345.849 453.145 343.867 453.328 343.669 453.332C342.607 453.351 340.495 453.62 340.495 453.62" stroke="#536264" stroke-width="1.17562" stroke-linecap="round" stroke-linejoin="round"/>
<path d="M325.994 451.24C325.971 451.27 325.948 451.3 325.924 451.329C325.461 452.095 326.41 454.752 326.681 455.294C326.876 455.683 327.698 456.52 326.937 456.52C326.238 456.52 325.657 456.975 325.334 457.557C324.966 458.22 324.979 459.146 324.58 458.028C324.406 457.544 324.522 456.945 324.33 456.176C324.068 455.126 322.307 454.507 321.935 454.504C321.891 454.523 321.866 454.533 321.866 454.529C321.866 454.512 321.891 454.503 321.935 454.504C322.235 454.369 323.411 453.764 323.459 453.733C324.433 453.107 325.218 452.237 325.924 451.329C325.945 451.296 325.968 451.266 325.994 451.24Z" fill="#F9D372" stroke="#536264" stroke-width="1.17562" stroke-linecap="round" stroke-linejoin="round"/>
</svg>
