<svg width="427" height="141" viewBox="0 0 427 141" fill="none" xmlns="http://www.w3.org/2000/svg">
<g filter="url(#filter0_d_1_1285)">
<path d="M183.136 74.1188C183.136 93.2415 167.676 107.333 148.704 107.333C129.732 107.333 114.272 93.2415 114.272 74.1188C114.272 54.8613 129.732 40.9048 148.704 40.9048C167.676 40.9048 183.136 54.8613 183.136 74.1188ZM168.063 74.1188C168.063 62.1689 159.103 53.9927 148.704 53.9927C138.305 53.9927 129.345 62.1689 129.345 74.1188C129.345 85.9488 138.305 94.2448 148.704 94.2448C159.103 94.2448 168.063 85.9339 168.063 74.1188Z" fill="white"/>
</g>
<g filter="url(#filter1_d_1_1285)">
<path d="M257.851 74.1188C257.851 93.2415 242.391 107.333 223.419 107.333C204.446 107.333 188.987 93.2415 188.987 74.1188C188.987 54.8762 204.446 40.9048 223.419 40.9048C242.391 40.9048 257.851 54.8613 257.851 74.1188ZM242.778 74.1188C242.778 62.1689 233.818 53.9927 223.419 53.9927C213.02 53.9927 204.06 62.1689 204.06 74.1188C204.06 85.9488 213.02 94.2448 223.419 94.2448C233.818 94.2448 242.778 85.9339 242.778 74.1188Z" fill="white"/>
</g>
<g filter="url(#filter2_d_1_1285)">
<path d="M329.415 42.9156V102.671C329.415 127.251 314.384 137.29 296.613 137.29C279.886 137.29 269.818 126.501 266.022 117.677L279.217 112.38C281.566 117.797 287.324 124.19 296.598 124.19C307.973 124.19 315.022 117.422 315.022 104.682V99.8947H314.492C311.1 103.931 304.565 107.458 296.318 107.458C279.061 107.458 263.252 92.9618 263.252 74.3089C263.252 55.521 279.061 40.9048 296.318 40.9048C304.549 40.9048 311.085 44.4313 314.492 48.3479H315.022V42.9306H329.415V42.9156ZM316.095 74.3089C316.095 62.5889 307.988 54.0203 297.672 54.0203C287.215 54.0203 278.454 62.5889 278.454 74.3089C278.454 85.9088 287.215 94.3574 297.672 94.3574C307.988 94.3574 316.095 85.9088 316.095 74.3089Z" fill="white"/>
</g>
<g filter="url(#filter3_d_1_1285)">
<path d="M353.27 7.90771V105.162H338.417V7.90771H353.27Z" fill="white"/>
</g>
<g filter="url(#filter4_d_1_1285)">
<path d="M410.655 85.0653L422.382 92.6126C418.597 98.0185 409.476 107.333 393.715 107.333C374.169 107.333 359.571 92.7474 359.571 74.1188C359.571 54.3671 374.293 40.9048 392.024 40.9048C409.879 40.9048 418.613 54.6217 421.467 62.0342L423.034 65.8078L377.039 84.1968C380.56 90.8606 386.036 94.2598 393.715 94.2598C401.409 94.2598 406.745 90.606 410.655 85.0653ZM374.557 73.1155L405.303 60.7913C403.612 56.6432 398.524 53.7531 392.536 53.7531C384.857 53.7531 374.169 60.2971 374.557 73.1155Z" fill="white"/>
</g>
<g filter="url(#filter5_d_1_1285)">
<path d="M58.3499 65.4174V51.3007H107.69C108.172 53.761 108.421 56.6713 108.421 59.8217C108.421 70.413 105.418 83.5096 95.7398 92.8407C86.3262 102.292 74.2985 107.332 58.3655 107.332C28.8332 107.332 4 84.1397 4 55.6662C4 27.1928 28.8332 4 58.3655 4C74.7031 4 86.3417 10.1807 95.0863 18.2367L84.7546 28.1979C78.4841 22.5272 69.9885 18.1167 58.3499 18.1167C36.7842 18.1167 19.9175 34.8737 19.9175 55.6662C19.9175 76.4587 36.7842 93.2157 58.3499 93.2157C72.338 93.2157 80.3046 87.8001 85.4081 82.8795C89.547 78.889 92.2699 73.1883 93.3436 65.4024L58.3499 65.4174Z" fill="white"/>
</g>
<defs>
<filter id="filter0_d_1_1285" x="110.881" y="37.5132" width="75.647" height="73.2112" filterUnits="userSpaceOnUse" color-interpolation-filters="sRGB">
<feFlood flood-opacity="0" result="BackgroundImageFix"/>
<feColorMatrix in="SourceAlpha" type="matrix" values="0 0 0 0 0 0 0 0 0 0 0 0 0 0 0 0 0 0 127 0" result="hardAlpha"/>
<feOffset/>
<feGaussianBlur stdDeviation="1.69581"/>
<feComposite in2="hardAlpha" operator="out"/>
<feColorMatrix type="matrix" values="0 0 0 0 1 0 0 0 0 1 0 0 0 0 1 0 0 0 0.5 0"/>
<feBlend mode="normal" in2="BackgroundImageFix" result="effect1_dropShadow_1_1285"/>
<feBlend mode="normal" in="SourceGraphic" in2="effect1_dropShadow_1_1285" result="shape"/>
</filter>
<filter id="filter1_d_1_1285" x="185.595" y="37.5132" width="75.647" height="73.2112" filterUnits="userSpaceOnUse" color-interpolation-filters="sRGB">
<feFlood flood-opacity="0" result="BackgroundImageFix"/>
<feColorMatrix in="SourceAlpha" type="matrix" values="0 0 0 0 0 0 0 0 0 0 0 0 0 0 0 0 0 0 127 0" result="hardAlpha"/>
<feOffset/>
<feGaussianBlur stdDeviation="1.69581"/>
<feComposite in2="hardAlpha" operator="out"/>
<feColorMatrix type="matrix" values="0 0 0 0 1 0 0 0 0 1 0 0 0 0 1 0 0 0 0.5 0"/>
<feBlend mode="normal" in2="BackgroundImageFix" result="effect1_dropShadow_1_1285"/>
<feBlend mode="normal" in="SourceGraphic" in2="effect1_dropShadow_1_1285" result="shape"/>
</filter>
<filter id="filter2_d_1_1285" x="259.86" y="37.5132" width="72.9465" height="103.169" filterUnits="userSpaceOnUse" color-interpolation-filters="sRGB">
<feFlood flood-opacity="0" result="BackgroundImageFix"/>
<feColorMatrix in="SourceAlpha" type="matrix" values="0 0 0 0 0 0 0 0 0 0 0 0 0 0 0 0 0 0 127 0" result="hardAlpha"/>
<feOffset/>
<feGaussianBlur stdDeviation="1.69581"/>
<feComposite in2="hardAlpha" operator="out"/>
<feColorMatrix type="matrix" values="0 0 0 0 1 0 0 0 0 1 0 0 0 0 1 0 0 0 0.5 0"/>
<feBlend mode="normal" in2="BackgroundImageFix" result="effect1_dropShadow_1_1285"/>
<feBlend mode="normal" in="SourceGraphic" in2="effect1_dropShadow_1_1285" result="shape"/>
</filter>
<filter id="filter3_d_1_1285" x="335.025" y="4.5161" width="21.6362" height="104.037" filterUnits="userSpaceOnUse" color-interpolation-filters="sRGB">
<feFlood flood-opacity="0" result="BackgroundImageFix"/>
<feColorMatrix in="SourceAlpha" type="matrix" values="0 0 0 0 0 0 0 0 0 0 0 0 0 0 0 0 0 0 127 0" result="hardAlpha"/>
<feOffset/>
<feGaussianBlur stdDeviation="1.69581"/>
<feComposite in2="hardAlpha" operator="out"/>
<feColorMatrix type="matrix" values="0 0 0 0 1 0 0 0 0 1 0 0 0 0 1 0 0 0 0.5 0"/>
<feBlend mode="normal" in2="BackgroundImageFix" result="effect1_dropShadow_1_1285"/>
<feBlend mode="normal" in="SourceGraphic" in2="effect1_dropShadow_1_1285" result="shape"/>
</filter>
<filter id="filter4_d_1_1285" x="356.18" y="37.5132" width="70.2459" height="73.2112" filterUnits="userSpaceOnUse" color-interpolation-filters="sRGB">
<feFlood flood-opacity="0" result="BackgroundImageFix"/>
<feColorMatrix in="SourceAlpha" type="matrix" values="0 0 0 0 0 0 0 0 0 0 0 0 0 0 0 0 0 0 127 0" result="hardAlpha"/>
<feOffset/>
<feGaussianBlur stdDeviation="1.69581"/>
<feComposite in2="hardAlpha" operator="out"/>
<feColorMatrix type="matrix" values="0 0 0 0 1 0 0 0 0 1 0 0 0 0 1 0 0 0 0.5 0"/>
<feBlend mode="normal" in2="BackgroundImageFix" result="effect1_dropShadow_1_1285"/>
<feBlend mode="normal" in="SourceGraphic" in2="effect1_dropShadow_1_1285" result="shape"/>
</filter>
<filter id="filter5_d_1_1285" x="0.608386" y="0.608386" width="111.204" height="110.116" filterUnits="userSpaceOnUse" color-interpolation-filters="sRGB">
<feFlood flood-opacity="0" result="BackgroundImageFix"/>
<feColorMatrix in="SourceAlpha" type="matrix" values="0 0 0 0 0 0 0 0 0 0 0 0 0 0 0 0 0 0 127 0" result="hardAlpha"/>
<feOffset/>
<feGaussianBlur stdDeviation="1.69581"/>
<feComposite in2="hardAlpha" operator="out"/>
<feColorMatrix type="matrix" values="0 0 0 0 1 0 0 0 0 1 0 0 0 0 1 0 0 0 0.5 0"/>
<feBlend mode="normal" in2="BackgroundImageFix" result="effect1_dropShadow_1_1285"/>
<feBlend mode="normal" in="SourceGraphic" in2="effect1_dropShadow_1_1285" result="shape"/>
</filter>
</defs>
</svg>
