<svg width="1495" height="790" viewBox="0 0 1495 790" fill="none" xmlns="http://www.w3.org/2000/svg">
<g id="fairy lights 1">
<g id="dot light">
<path id="Vector 3302" d="M1103.69 119.483C1134.26 392.442 1394.96 431.802 1449.99 119.483" stroke="#4D6092" stroke-width="7.08796"/>
<path id="Vector 3303" d="M962.942 123.533C974.83 229.195 1076.22 244.431 1097.61 123.533" stroke="#4D6092" stroke-width="7.08796"/>
<g id="Layer_1" clip-path="url(#clip0_13622_286)">
<g id="Group" filter="url(#filter0_d_13622_286)">
<path id="Vector" d="M1114.24 173.928C1111.8 174.546 1109.84 176.116 1108.67 178.181C1108.08 179.214 1107.68 180.368 1107.53 181.583C1107.39 182.788 1107.5 184.054 1107.85 185.31C1108.57 187.821 1110.21 189.805 1112.25 190.96C1114.29 192.114 1116.83 192.418 1119.22 191.669C1121.64 190.909 1123.45 189.279 1124.59 187.223C1125.71 185.168 1126.08 182.738 1125.39 180.358C1125.04 179.163 1124.48 178.1 1123.73 177.189C1123.01 176.267 1122.13 175.498 1121.13 174.911C1119.14 173.746 1116.68 173.311 1114.24 173.928Z" fill="#FFE9B1"/>
<path id="Vector_2" d="M1125.21 209.095C1122.87 209.976 1121.04 211.768 1120.14 213.935C1119.24 216.112 1119.18 218.694 1120.15 221.124C1120.65 222.339 1121.33 223.403 1122.21 224.263C1123.09 225.124 1124.12 225.792 1125.22 226.238C1127.42 227.139 1129.92 227.159 1132.21 226.126C1134.51 225.094 1136.17 223.23 1137.02 221.084C1137.45 220.01 1137.67 218.866 1137.66 217.702C1137.66 216.537 1137.48 215.343 1137.01 214.198C1136.09 211.91 1134.31 210.219 1132.16 209.297C1130 208.386 1127.56 208.204 1125.2 209.095H1125.21Z" fill="#FFE9B1"/>
<path id="Vector_3" d="M1140.31 242.671C1138.1 243.855 1136.57 245.84 1135.93 248.139C1135.6 249.283 1135.5 250.508 1135.65 251.733C1135.82 252.948 1136.23 254.153 1136.9 255.297C1138.24 257.576 1140.3 259.125 1142.6 259.722C1144.93 260.299 1147.42 259.965 1149.55 258.619C1151.67 257.272 1153.05 255.196 1153.58 252.968C1154.13 250.721 1153.91 248.27 1152.67 246.164C1152.05 245.111 1151.23 244.23 1150.3 243.531C1149.4 242.812 1148.35 242.286 1147.25 241.972C1145.03 241.334 1142.54 241.496 1140.31 242.681V242.671Z" fill="#FFE9B1"/>
<path id="Vector_4" d="M1159.98 273.798C1157.96 275.306 1156.77 277.504 1156.5 279.873C1156.37 281.058 1156.47 282.283 1156.8 283.488C1157.13 284.683 1157.77 285.797 1158.61 286.829C1160.32 288.865 1162.6 290.09 1165 290.282C1167.4 290.475 1169.79 289.715 1171.66 288.034C1173.53 286.354 1174.54 284.065 1174.7 281.787C1174.85 279.509 1174.26 277.119 1172.7 275.266C1171.93 274.324 1170.97 273.615 1169.97 273.069C1168.97 272.512 1167.86 272.157 1166.72 272.026C1164.43 271.752 1161.99 272.299 1159.98 273.808V273.798Z" fill="#FFE9B1"/>
<path id="Vector_5" d="M1184.65 301.096C1182.95 302.959 1182.19 305.348 1182.38 307.748C1182.56 310.148 1183.8 312.447 1185.85 314.178C1187.87 315.94 1190.51 316.547 1192.87 316.284C1195.24 316.011 1197.42 314.796 1198.9 312.76C1200.38 310.725 1200.91 308.265 1200.62 305.986C1200.35 303.688 1199.19 301.643 1197.38 300.063C1195.55 298.514 1193.18 297.937 1190.9 298.088C1188.63 298.24 1186.34 299.233 1184.64 301.096H1184.65Z" fill="#FFE9B1"/>
<path id="Vector_6" d="M1214.41 322.684C1213.19 324.881 1213 327.372 1213.76 329.65C1214.15 330.795 1214.76 331.878 1215.58 332.84C1216.41 333.772 1217.48 334.541 1218.71 335.118C1219.93 335.695 1221.21 336.009 1222.45 336.09C1223.7 336.171 1224.95 335.908 1226.08 335.493C1228.33 334.632 1230.14 332.901 1231.06 330.562C1231.98 328.223 1231.87 325.712 1231.04 323.605C1230.62 322.532 1230.01 321.611 1229.26 320.75C1228.51 319.889 1227.6 319.17 1226.51 318.664C1225.44 318.158 1224.29 317.925 1223.16 317.864C1222.04 317.783 1220.9 317.935 1219.82 318.279C1217.64 318.988 1215.65 320.497 1214.41 322.694V322.684Z" fill="#FFE9B1"/>
<path id="Vector_7" d="M1248.62 336.061C1248.04 338.511 1248.55 340.951 1249.92 342.936C1250.61 343.928 1251.51 344.809 1252.58 345.508C1253.65 346.156 1254.91 346.601 1256.25 346.814C1257.61 347.027 1258.94 346.976 1260.15 346.693C1261.39 346.358 1262.51 345.791 1263.47 345.052C1265.4 343.574 1266.61 341.407 1266.8 338.896C1267 336.385 1266.17 334.015 1264.77 332.233C1264.07 331.332 1263.22 330.593 1262.26 330.036C1261.31 329.418 1260.23 328.993 1259.07 328.811C1257.9 328.628 1256.76 328.72 1255.66 329.003C1254.57 329.236 1253.53 329.692 1252.59 330.33C1250.7 331.605 1249.19 333.61 1248.62 336.061Z" fill="#FFE9B1"/>
<path id="Vector_8" d="M1285.21 338.885C1285.4 341.396 1286.63 343.573 1288.55 345.061C1290.48 346.611 1293.06 347.208 1295.77 346.813C1298.5 346.469 1300.73 344.879 1302.1 342.925C1303.48 340.95 1303.98 338.51 1303.4 336.07C1302.81 333.619 1301.29 331.615 1299.41 330.329C1297.51 329.033 1295.27 328.536 1292.94 328.82C1290.62 329.154 1288.66 330.531 1287.25 332.252C1285.85 334.024 1285.02 336.384 1285.21 338.895V338.885Z" fill="#FFE9B1"/>
<path id="Vector_9" d="M1320.93 330.451C1321.87 332.79 1323.69 334.512 1325.96 335.362C1328.25 336.274 1330.87 336.081 1333.33 334.927C1334.54 334.329 1335.64 333.59 1336.44 332.608C1337.25 331.636 1337.85 330.553 1338.23 329.408C1338.98 327.12 1338.77 324.639 1337.52 322.452C1336.28 320.265 1334.25 318.776 1332.07 318.088C1330.98 317.744 1329.85 317.602 1328.72 317.693C1327.61 317.804 1326.45 317.997 1325.39 318.523C1323.24 319.526 1321.76 321.439 1320.91 323.505C1320.09 325.621 1320 328.112 1320.93 330.451Z" fill="#FFE9B1"/>
<path id="Vector_10" d="M1352.91 312.356C1354.41 314.371 1356.61 315.556 1358.99 315.799C1360.17 315.921 1361.41 315.799 1362.61 315.445C1363.21 315.273 1363.81 315.03 1364.38 314.736C1364.94 314.422 1365.48 314.037 1365.98 313.602C1368.02 311.85 1369.18 309.491 1369.38 307.132C1369.54 304.732 1368.73 302.332 1367.02 300.499C1365.29 298.656 1363.01 297.705 1360.73 297.583C1358.4 297.411 1356.09 298.059 1354.27 299.639C1353.81 300.034 1353.41 300.469 1353.05 300.935C1352.68 301.38 1352.36 301.846 1352.09 302.352C1351.55 303.355 1351.22 304.458 1351.1 305.603C1350.84 307.891 1351.41 310.341 1352.91 312.356Z" fill="#FFE9B1"/>
<path id="Vector_11" d="M1379.81 287.265C1381.69 288.925 1384.09 289.644 1386.47 289.411C1387.65 289.3 1388.84 288.946 1389.95 288.379C1391.05 287.791 1392.01 286.951 1392.84 285.918C1394.48 283.832 1395.18 281.331 1394.91 278.982C1394.6 276.602 1393.38 274.405 1391.35 272.917C1389.32 271.428 1386.88 270.902 1384.63 271.216C1382.32 271.509 1380.14 272.593 1378.63 274.506C1377.87 275.458 1377.37 276.542 1377.04 277.645C1376.71 278.739 1376.59 279.893 1376.69 281.037C1376.88 283.326 1377.92 285.604 1379.82 287.265H1379.81Z" fill="#FFE9B1"/>
<path id="Vector_12" d="M1401.71 257.668C1405.95 260.361 1411.64 258.883 1414.36 254.337C1416.92 249.719 1415.39 244.069 1410.93 241.72C1406.48 239.371 1400.95 240.94 1398.58 245.224C1396.07 249.405 1397.45 254.975 1401.71 257.668Z" fill="#FFE9B1"/>
<path id="Vector_13" d="M1419.08 225.204C1421.37 226.257 1423.87 226.268 1426.09 225.397C1427.19 224.961 1428.25 224.313 1429.12 223.463C1429.98 222.612 1430.7 221.559 1431.2 220.354C1433.25 215.524 1431.07 210.107 1426.34 208.264C1421.69 206.452 1416.36 208.659 1414.43 213.195C1413.96 214.34 1413.74 215.524 1413.74 216.699C1413.74 217.873 1413.92 219.018 1414.33 220.091C1415.15 222.248 1416.79 224.131 1419.08 225.184V225.204Z" fill="#FFE9B1"/>
<path id="Vector_14" d="M1432.67 190.96C1437.4 192.6 1442.75 189.957 1444.24 184.955C1445.77 179.973 1443.13 174.809 1438.26 173.402C1433.46 172.025 1428.32 174.718 1426.86 179.457C1425.44 184.216 1427.89 189.299 1432.67 190.96Z" fill="#FFE9B1"/>
</g>
<g id="Group_2" filter="url(#filter1_d_13622_286)">
<path id="Vector_15" d="M977.283 173.481C975.137 174.757 973.648 176.843 973.223 179.192C973.01 180.367 973 181.633 973.294 182.878C973.598 184.103 974.134 185.349 974.955 186.463C975.805 187.566 976.787 188.478 977.911 189.116C979.035 189.743 980.24 190.138 981.425 190.28C983.865 190.523 986.245 189.733 988.077 188.012C989.91 186.29 990.913 184.012 991.156 181.815C991.297 180.691 991.237 179.587 990.973 178.554C990.72 177.512 990.295 176.499 989.606 175.618C988.938 174.717 988.138 173.978 987.186 173.441C986.245 172.894 985.222 172.489 984.108 172.297C981.87 171.912 979.46 172.185 977.273 173.481H977.283Z" fill="#FFE9B1"/>
<path id="Vector_16" d="M1003.57 201.166C1002.28 203.293 1001.95 205.855 1002.81 208.153C1003.22 209.307 1003.89 210.452 1004.84 211.373C1005.31 211.849 1005.83 212.294 1006.41 212.689C1007 213.074 1007.65 213.398 1008.32 213.672C1011.06 214.785 1013.98 214.563 1016.18 213.429C1018.41 212.274 1019.89 210.229 1020.36 207.768C1020.84 205.287 1020.32 202.878 1019.36 200.944C1018.38 198.969 1016.94 197.501 1015.04 196.721C1014.56 196.529 1014.07 196.407 1013.57 196.326C1013.07 196.225 1012.57 196.185 1012.06 196.205C1011.03 196.255 1009.98 196.428 1008.95 196.812C1006.88 197.612 1004.89 198.989 1003.57 201.156V201.166Z" fill="#FFE9B1"/>
<path id="Vector_17" d="M1040.42 207.769C1040.9 210.219 1042.4 212.305 1044.63 213.419C1046.82 214.543 1049.77 214.755 1052.51 213.621C1055.28 212.528 1057.21 210.371 1058.01 208.042C1058.84 205.733 1058.49 203.172 1057.18 201.066C1055.84 198.909 1053.84 197.552 1051.76 196.772C1049.69 196.033 1047.59 195.972 1045.7 196.722C1043.82 197.511 1042.39 198.98 1041.42 200.944C1040.46 202.908 1039.95 205.288 1040.43 207.769H1040.42Z" fill="#FFE9B1"/>
<path id="Vector_18" d="M1071 188.408C1072.85 190.109 1075.23 190.859 1077.65 190.575C1078.88 190.453 1080.04 190.028 1081.15 189.38C1081.69 189.056 1082.23 188.671 1082.74 188.236C1083.21 187.78 1083.67 187.274 1084.07 186.717C1084.48 186.16 1084.82 185.573 1085.11 184.976C1085.37 184.368 1085.56 183.75 1085.7 183.133C1085.97 181.887 1086.02 180.662 1085.76 179.467C1085.28 177.098 1083.85 175.052 1081.68 173.766C1079.52 172.491 1077.04 172.177 1074.85 172.612C1073.77 172.845 1072.68 173.199 1071.75 173.777C1071.28 174.06 1070.85 174.394 1070.45 174.769C1070.04 175.133 1069.66 175.538 1069.34 175.994C1069.01 176.45 1068.74 176.936 1068.52 177.432C1068.29 177.918 1068.12 178.424 1067.99 178.951C1067.74 179.994 1067.73 181.128 1067.84 182.221C1068.12 184.419 1069.15 186.697 1071.01 188.398L1071 188.408Z" fill="#FFE9B1"/>
</g>
</g>
</g>
<g id="dot light_2">
<path id="Vector 3300" d="M441.471 131.633C487.592 492.643 880.937 544.701 963.955 131.633" stroke="#4D6092" stroke-width="7.08796"/>
<g id="Layer_1_2" clip-path="url(#clip1_13622_286)">
<g id="Group 74" filter="url(#filter2_d_13622_286)">
<path id="Vector_19" d="M451.172 185.097C446.281 186.272 443.324 191.253 444.57 196.215C445.157 198.696 446.858 200.63 448.883 201.784C450.929 202.938 453.409 203.283 455.819 202.584C458.239 201.885 460.143 200.285 461.287 198.291C462.452 196.286 462.735 193.916 462.178 191.537C460.993 186.808 456.062 183.922 451.161 185.097H451.172Z" fill="#FFE9B1"/>
<path id="Vector_20" d="M461.197 219.859C458.807 220.659 456.964 222.35 455.932 224.466C455.415 225.519 455.091 226.683 455.01 227.888C454.959 229.073 455.142 230.308 455.587 231.503C457.369 236.313 462.614 238.733 467.303 236.9C471.991 235.067 474.421 229.893 472.73 225.326C472.305 224.182 471.657 223.18 470.857 222.339C470.077 221.489 469.156 220.79 468.123 220.294C466.057 219.302 463.587 219.069 461.197 219.859Z" fill="#FFE9B1"/>
<path id="Vector_21" d="M474.186 253.638C469.569 255.642 467.564 261.07 469.711 265.738C470.247 266.902 470.987 267.905 471.857 268.705C472.759 269.504 473.822 270.092 474.936 270.477C477.173 271.236 479.664 271.125 481.912 270.001C484.16 268.877 485.74 266.953 486.499 264.796C486.884 263.713 487.036 262.579 486.985 261.424C486.955 260.26 486.702 259.095 486.195 257.992C484.17 253.577 478.793 251.633 474.176 253.648L474.186 253.638Z" fill="#FFE9B1"/>
<path id="Vector_22" d="M490.429 285.969C486.054 288.419 484.444 294.12 487.198 298.484C489.892 302.878 495.481 304.245 499.734 301.491C503.936 298.767 505.334 293.198 502.802 289.067C500.22 284.976 494.833 283.488 490.429 285.969Z" fill="#FFE9B1"/>
<path id="Vector_23" d="M509.962 316.407C507.927 317.885 506.681 320.042 506.337 322.371C506.013 324.679 506.509 327.231 508.119 329.236C511.339 333.286 517.101 333.965 520.979 330.755C524.857 327.545 525.566 321.885 522.558 318.118C521.04 316.224 519.004 315.019 516.706 314.716C514.438 314.402 511.997 314.928 509.952 316.397L509.962 316.407Z" fill="#FFE9B1"/>
<path id="Vector_24" d="M532.875 344.394C529.169 347.796 529.048 353.608 532.622 357.375C536.348 361 542.171 360.929 545.603 357.254C549.046 353.578 549.026 347.897 545.573 344.556C542.272 341.063 536.581 341.002 532.865 344.404L532.875 344.394Z" fill="#FFE9B1"/>
<path id="Vector_25" d="M559.162 369.243C555.932 373.1 556.611 378.882 560.661 382.143C564.863 385.221 570.625 384.37 573.51 380.259C576.406 376.138 575.617 370.508 571.759 367.683C568.032 364.676 562.382 365.375 559.162 369.243Z" fill="#FFE9B1"/>
<path id="Vector_26" d="M588.638 390.182C587.332 392.328 587.029 394.809 587.636 397.088C587.94 398.232 588.466 399.315 589.206 400.287C589.935 401.269 590.876 402.12 592.031 402.707C596.648 405.168 602.207 403.497 604.435 398.991C606.672 394.485 605.072 389.007 600.87 386.77C599.797 386.223 598.693 385.868 597.569 385.727C596.445 385.595 595.301 385.686 594.197 385.99C591.99 386.597 589.945 388.035 588.649 390.182H588.638Z" fill="#FFE9B1"/>
<path id="Vector_27" d="M620.917 406.455C619.966 408.783 620.047 411.284 621.009 413.461C621.94 415.679 623.813 417.41 626.274 418.281C628.724 419.152 631.286 418.98 633.392 417.967C635.519 416.914 637.189 415.011 637.939 412.621C638.698 410.211 638.415 407.771 637.412 405.725C636.43 403.629 634.719 401.938 632.471 401.139C630.213 400.349 627.813 400.592 625.747 401.473C623.672 402.404 621.89 404.126 620.938 406.455H620.917Z" fill="#FFE9B1"/>
<path id="Vector_28" d="M655.394 417.329C654.848 419.769 655.334 422.291 656.66 424.194C657.976 426.128 660.103 427.566 662.675 428.052C663.961 428.285 665.216 428.295 666.401 428.002C667.586 427.698 668.689 427.181 669.651 426.473C671.565 425.065 672.881 422.949 673.215 420.458C673.55 417.967 672.851 415.567 671.525 413.724C670.856 412.803 670.026 412.013 669.074 411.426C668.122 410.818 667.049 410.322 665.874 410.109C663.525 409.664 661.217 410.261 659.313 411.578C657.409 412.924 655.951 414.848 655.394 417.319V417.329Z" fill="#FFE9B1"/>
<path id="Vector_29" d="M691.231 422.089C691.119 424.6 692.041 426.908 693.681 428.609C695.311 430.29 697.671 431.445 700.283 431.435C705.548 431.323 709.599 427.141 709.325 422.119C709.052 417.097 705.001 413.097 700.273 413.208C697.893 413.218 695.716 414.11 694.076 415.73C692.446 417.329 691.342 419.577 691.22 422.089H691.231Z" fill="#FFE9B1"/>
<path id="Vector_30" d="M727.338 420.448C727.966 425.409 732.735 429.054 737.899 428.001C740.471 427.525 742.608 426.108 743.914 424.164C745.21 422.159 745.706 419.698 745.149 417.238C744.592 414.777 743.114 412.793 741.23 411.557C739.327 410.251 737.008 409.623 734.659 410.069C730.021 411.021 726.71 415.425 727.348 420.448H727.338Z" fill="#FFE9B1"/>
<path id="Vector_31" d="M762.596 412.499C764.115 417.369 769.35 419.83 774.291 418.068C775.516 417.622 776.61 416.995 777.481 416.144C778.351 415.283 779.04 414.271 779.506 413.187C780.447 411.01 780.518 408.509 779.546 406.19C778.574 403.872 776.772 402.15 774.686 401.229C773.643 400.773 772.529 400.51 771.405 400.48C770.271 400.429 769.096 400.55 767.973 400.955C763.507 402.545 761.107 407.75 762.586 412.489L762.596 412.499Z" fill="#FFE9B1"/>
<path id="Vector_32" d="M795.969 398.577C798.247 403.062 803.837 404.672 808.434 402.171C809.588 401.574 810.499 400.683 811.228 399.7C811.947 398.718 812.464 397.625 812.757 396.481C813.334 394.192 813.01 391.721 811.674 389.585C810.337 387.448 808.282 386.041 806.074 385.464C804.971 385.17 803.816 385.089 802.692 385.241C801.568 385.383 800.475 385.788 799.412 386.335C795.23 388.603 793.691 394.091 795.969 398.577Z" fill="#FFE9B1"/>
<path id="Vector_33" d="M826.662 379.459C829.609 383.54 835.37 384.299 839.522 381.14C841.577 379.56 842.681 377.201 842.934 374.882C843.167 372.533 842.479 370.144 840.848 368.23C839.218 366.316 836.97 365.223 834.702 364.98C832.404 364.716 830.146 365.385 828.232 366.853C824.414 369.739 823.716 375.389 826.672 379.469L826.662 379.459Z" fill="#FFE9B1"/>
<path id="Vector_34" d="M854.264 356.089C857.747 359.714 863.539 359.674 867.184 355.978C868.085 355.056 868.784 354.024 869.199 352.879C869.614 351.735 869.796 350.54 869.746 349.356C869.655 346.996 868.652 344.708 866.789 343.017C864.926 341.326 862.567 340.546 860.278 340.617C859.134 340.648 858.01 340.901 856.967 341.367C855.924 341.832 854.912 342.45 854.061 343.311C850.679 346.723 850.77 352.444 854.253 356.069L854.264 356.089Z" fill="#FFE9B1"/>
<path id="Vector_35" d="M878.554 329.287C880.518 330.866 882.938 331.504 885.297 331.231C887.606 330.927 889.813 329.692 891.363 327.636C892.912 325.581 893.499 323.12 893.165 320.812C892.861 318.523 891.535 316.326 889.5 314.868C887.444 313.389 885.065 312.934 882.746 313.227C880.447 313.541 878.301 314.686 876.843 316.62C875.374 318.554 874.868 320.933 875.192 323.242C875.465 325.5 876.6 327.697 878.564 329.277L878.554 329.287Z" fill="#FFE9B1"/>
<path id="Vector_36" d="M899.606 299.862C903.828 302.596 909.489 301.279 912.233 296.925C914.825 292.49 913.346 286.861 908.972 284.38C904.588 281.889 899.089 283.296 896.639 287.488C894.047 291.589 895.373 297.128 899.606 299.862Z" fill="#FFE9B1"/>
<path id="Vector_37" d="M917.619 268.482C919.857 269.636 922.358 269.778 924.606 269.049C926.874 268.33 928.727 266.669 929.851 264.381C932.069 259.763 930.145 254.316 925.568 252.23C920.991 250.144 915.574 252.007 913.468 256.402C912.395 258.599 912.405 261.08 913.103 263.237C913.822 265.403 915.382 267.337 917.619 268.492V268.482Z" fill="#FFE9B1"/>
<path id="Vector_38" d="M932.84 235.655C937.487 237.599 942.763 235.311 944.636 230.562C946.519 225.813 944.18 220.547 939.421 218.796C934.733 217.074 929.468 219.363 927.665 223.909C925.873 228.455 928.192 233.711 932.84 235.655Z" fill="#FFE9B1"/>
<path id="Vector_39" d="M945.393 201.714C950.163 203.314 955.286 200.661 956.825 195.81C957.595 193.39 957.311 190.889 956.238 188.844C955.124 186.778 953.2 185.158 950.79 184.449C948.37 183.741 945.92 184.065 943.895 185.148C941.829 186.221 940.179 188.034 939.439 190.383C937.961 195.051 940.634 200.134 945.403 201.724L945.393 201.714Z" fill="#FFE9B1"/>
</g>
</g>
</g>
<g id="dot light_3">
<path id="Vector 3224" d="M45.5573 115.432C80.9971 276.936 383.248 300.225 447.04 115.432" stroke="#4D6092" stroke-width="7.08796"/>
<g id="Layer_1_3" clip-path="url(#clip2_13622_286)">
<g id="Group 73" filter="url(#filter3_d_13622_286)">
<path id="Vector_40" d="M67.6544 164.207C65.5686 165.615 64.2725 167.721 63.8978 170.04C63.5333 172.338 64.0193 174.92 65.6597 176.935C67.2798 178.96 69.4872 180.226 71.8566 180.398C74.2159 180.601 76.5954 179.862 78.4889 178.211C80.3824 176.561 81.4659 174.323 81.719 172.105C81.9519 169.898 81.5266 167.579 80.0786 165.797C78.6104 164.025 76.6663 162.891 74.4083 162.607C72.1705 162.314 69.7201 162.8 67.6443 164.207H67.6544Z" fill="#FFE9B1"/>
<path id="Vector_41" d="M90.8307 190.919C89.1195 192.772 88.2993 195.151 88.4714 197.46C88.6334 199.779 89.7068 202.108 91.6914 203.768C93.7064 205.378 96.1669 206.036 98.4756 205.763C100.784 205.49 102.992 204.224 104.48 202.209C105.989 200.184 106.536 197.814 106.333 195.546C106.131 193.278 105.128 191.172 103.316 189.724C101.544 188.235 99.3261 187.618 97.058 187.841C94.7898 188.073 92.542 189.066 90.8408 190.919H90.8307Z" fill="#FFE9B1"/>
<path id="Vector_42" d="M119.155 212.112C117.838 214.259 117.504 216.729 118.081 219.018C118.659 221.296 120.188 223.28 122.415 224.546C124.633 225.832 127.194 225.933 129.412 225.235C131.64 224.526 133.543 222.936 134.657 220.688C135.771 218.43 135.913 215.949 135.285 213.772C134.657 211.575 133.229 209.773 131.214 208.588C129.189 207.434 126.82 207.322 124.653 207.93C122.496 208.538 120.471 209.965 119.155 212.112Z" fill="#FFE9B1"/>
<path id="Vector_43" d="M150.826 227.919C149.885 230.258 149.976 232.728 150.918 234.865C151.869 236.971 153.641 238.834 156.051 239.634C158.451 240.464 160.962 240.262 163.028 239.219C165.114 238.135 166.754 236.262 167.514 233.862C168.273 231.463 168.01 229.002 167.038 226.967C166.066 224.901 164.395 223.23 162.177 222.461C159.94 221.722 157.631 221.843 155.575 222.846C153.53 223.828 151.768 225.59 150.826 227.919Z" fill="#FFE9B1"/>
<path id="Vector_44" d="M184.595 238.57C184.007 241.021 184.453 243.471 185.688 245.456C186.913 247.461 188.959 248.878 191.439 249.405C193.92 249.942 196.371 249.334 198.274 247.977C200.178 246.631 201.545 244.555 201.95 242.074C202.365 239.593 201.768 237.173 200.512 235.28C199.256 233.396 197.343 232.029 195.034 231.533C192.725 231.037 190.417 231.655 188.533 232.88C186.65 234.125 185.162 236.11 184.584 238.56L184.595 238.57Z" fill="#FFE9B1"/>
<path id="Vector_45" d="M219.519 244.413C218.993 249.456 222.689 253.83 227.762 254.235C232.845 254.499 237.067 250.62 237.199 245.568C237.33 240.555 233.624 236.282 228.936 236.05C224.258 235.675 220.036 239.452 219.519 244.413Z" fill="#FFE9B1"/>
<path id="Vector_46" d="M254.919 245.526C255 248.037 256.083 250.275 257.794 251.845C259.505 253.404 261.855 254.376 264.386 254.153C266.907 253.961 269.125 252.776 270.603 251.004C272.092 249.192 272.851 246.812 272.588 244.311C272.325 241.81 271.12 239.643 269.418 238.175C267.707 236.656 265.5 235.796 263.141 235.978C260.791 236.19 258.706 237.243 257.217 238.975C255.729 240.696 254.827 243.015 254.908 245.526H254.919Z" fill="#FFE9B1"/>
<path id="Vector_47" d="M290.146 241.902C290.966 246.853 295.725 250.255 300.717 249.162C301.962 248.909 303.086 248.413 304.058 247.734C305.03 247.046 305.83 246.144 306.448 245.152C307.673 243.157 308.098 240.707 307.491 238.267C306.883 235.826 305.385 233.842 303.491 232.606C302.539 231.989 301.497 231.563 300.403 231.341C299.299 231.098 298.145 231.077 296.991 231.31C292.414 232.313 289.325 236.91 290.156 241.892L290.146 241.902Z" fill="#FFE9B1"/>
<path id="Vector_48" d="M324.513 233.406C325.293 235.786 326.964 237.689 329.049 238.692C331.135 239.704 333.646 239.887 336.046 239.036C338.446 238.175 340.198 236.312 341.119 234.196C342.041 232.06 342.091 229.579 341.119 227.26C340.147 224.941 338.365 223.2 336.299 222.238C334.224 221.266 331.915 221.154 329.708 221.944C327.5 222.734 325.84 224.405 324.898 226.49C323.966 228.576 323.723 230.996 324.503 233.406H324.513Z" fill="#FFE9B1"/>
<path id="Vector_49" d="M357.187 219.777C358.342 222.015 360.276 223.564 362.503 224.233C363.617 224.567 364.812 224.688 366.007 224.567C367.202 224.455 368.396 224.091 369.49 223.433C371.697 222.137 373.176 220.081 373.733 217.833C374.269 215.545 373.885 213.064 372.548 210.948C371.201 208.821 369.166 207.434 366.989 206.857C364.782 206.239 362.442 206.432 360.438 207.616C359.435 208.224 358.585 208.983 357.906 209.854C357.228 210.735 356.742 211.758 356.448 212.851C355.861 215.038 356.043 217.529 357.197 219.767L357.187 219.777Z" fill="#FFE9B1"/>
<path id="Vector_50" d="M387.059 200.802C390.077 204.802 395.929 205.591 399.838 202.189C400.82 201.359 401.59 200.377 402.126 199.313C402.653 198.23 402.926 197.045 402.987 195.881C403.098 193.532 402.288 191.183 400.567 189.35C398.846 187.517 396.567 186.515 394.329 186.332C393.206 186.241 392.092 186.373 391.039 186.707C389.955 187.011 388.943 187.527 388.062 188.287C384.589 191.314 384.011 196.772 387.059 200.802Z" fill="#FFE9B1"/>
<path id="Vector_51" d="M412.92 176.662C414.793 178.312 417.223 179.112 419.532 178.9C421.84 178.687 424.108 177.533 425.749 175.548C427.379 173.553 427.906 171.012 427.592 168.723C427.257 166.405 426.012 164.278 423.967 162.81C421.921 161.342 419.481 160.805 417.233 161.058C414.965 161.301 412.96 162.405 411.492 164.197C410.013 165.99 409.477 168.258 409.74 170.526C410.024 172.794 411.026 174.991 412.93 176.662H412.92Z" fill="#FFE9B1"/>
</g>
</g>
</g>
<g id="star lights">
<g id="Group 1223">
<g id="Group 76">
<line id="Line 16" x1="612.579" y1="4.06507" x2="611.597" y2="272.395" stroke="#4D6092" stroke-width="8.10053" stroke-linecap="round"/>
</g>
<g id="glowy star">
<g id="Ellipse 993" opacity="0.34" filter="url(#filter4_f_13622_286)" style="mix-blend-mode:lighten">
<ellipse cx="610.063" cy="292.632" rx="28.8581" ry="28.3519"/>
</g>
<g id="Ellipse 1193" opacity="0.8" style="mix-blend-mode:soft-light">
<path d="M635.883 292.126C635.883 306.386 624.55 317.946 610.569 317.946C596.589 317.946 585.255 306.386 585.255 292.126C585.255 277.865 596.589 266.305 610.569 266.305C624.55 266.305 635.883 277.865 635.883 292.126Z" fill="url(#paint0_linear_13622_286)"/>
</g>
<path id="Vector 3311" d="M627.888 285.323L619.07 283.198C617.953 282.929 617.076 282.065 616.79 280.952L614.216 270.925C613.547 268.317 610.103 267.739 608.618 269.985L601.442 280.841C600.841 281.751 599.806 282.279 598.717 282.231L592.836 281.976C589.864 281.846 588.429 285.567 590.718 287.467L598.133 293.621C598.981 294.325 599.393 295.427 599.214 296.514L597.674 305.883C597.173 308.931 600.946 310.762 603.03 308.481L606.507 304.677C607.43 303.667 608.904 303.38 610.138 303.969L621.847 309.562C624.378 310.771 627.088 308.27 626.086 305.651L623.097 297.837C622.587 296.505 623.05 294.997 624.22 294.181L628.938 290.888C631.133 289.356 630.491 285.95 627.888 285.323Z" fill="#FFF186"/>
</g>
</g>
<g id="Group 1224">
<g id="Group 76_2">
<line id="Line 16_2" x1="47.5676" y1="136.712" x2="46.5847" y2="405.042" stroke="#4D6092" stroke-width="8.10053" stroke-linecap="round"/>
</g>
<g id="glowy star_2">
<g id="Ellipse 993_2" opacity="0.34" filter="url(#filter5_f_13622_286)" style="mix-blend-mode:lighten">
<ellipse cx="45.051" cy="425.278" rx="28.8581" ry="28.3519"/>
</g>
<g id="Ellipse 1193_2" opacity="0.8" style="mix-blend-mode:soft-light">
<path d="M70.8715 424.772C70.8715 439.032 59.5379 450.592 45.5573 450.592C31.5767 450.592 20.2432 439.032 20.2432 424.772C20.2432 410.511 31.5767 398.951 45.5573 398.951C59.5379 398.951 70.8715 410.511 70.8715 424.772Z" fill="url(#paint1_linear_13622_286)"/>
</g>
<path id="Vector 3311_2" d="M62.8765 417.97L54.0586 415.845C52.9413 415.576 52.0641 414.711 51.7784 413.598L49.2043 403.571C48.5349 400.964 45.0909 400.385 43.6063 402.631L36.4301 413.488C35.8288 414.397 34.7943 414.925 33.7049 414.878L27.8243 414.622C24.8522 414.493 23.4171 418.214 25.7063 420.114L33.1212 426.268C33.9695 426.972 34.3809 428.073 34.2021 429.161L32.6623 438.529C32.1613 441.578 35.9345 443.408 38.0184 441.128L41.4956 437.323C42.418 436.314 43.8921 436.027 45.126 436.616L56.8354 442.208C59.3663 443.417 62.0759 440.917 61.0738 438.297L58.0847 430.484C57.5751 429.152 58.0383 427.644 59.2077 426.828L63.9262 423.535C66.1213 422.003 65.4789 418.597 62.8765 417.97Z" fill="#FFF186"/>
</g>
</g>
<g id="Group 1225">
<g id="Group 76_3">
<line id="Line 16_3" x1="274.382" y1="53.6808" x2="273.399" y2="322.011" stroke="#4D6092" stroke-width="8.10053" stroke-linecap="round"/>
</g>
<g id="glowy star_3">
<g id="Ellipse 993_3" opacity="0.34" filter="url(#filter6_f_13622_286)" style="mix-blend-mode:lighten">
<ellipse cx="271.866" cy="342.247" rx="28.8581" ry="28.3519"/>
</g>
<g id="Ellipse 1193_3" opacity="0.8" style="mix-blend-mode:soft-light">
<path d="M297.686 341.741C297.686 356.001 286.353 367.561 272.372 367.561C258.391 367.561 247.058 356.001 247.058 341.741C247.058 327.481 258.391 315.92 272.372 315.92C286.353 315.92 297.686 327.481 297.686 341.741Z" fill="url(#paint2_linear_13622_286)"/>
</g>
<path id="Vector 3311_3" d="M289.691 334.939L280.873 332.814C279.756 332.545 278.879 331.681 278.593 330.568L276.019 320.54C275.35 317.933 271.906 317.354 270.421 319.6L263.245 330.457C262.644 331.367 261.609 331.894 260.52 331.847L254.639 331.591C251.667 331.462 250.232 335.183 252.521 337.083L259.936 343.237C260.784 343.941 261.196 345.042 261.017 346.13L259.477 355.499C258.976 358.547 262.749 360.377 264.833 358.097L268.31 354.292C269.233 353.283 270.707 352.996 271.941 353.585L283.65 359.178C286.181 360.387 288.891 357.886 287.889 355.266L284.899 347.453C284.39 346.121 284.853 344.613 286.023 343.797L290.741 340.504C292.936 338.972 292.294 335.566 289.691 334.939Z" fill="#FFF186"/>
</g>
</g>
<g id="Group 1218">
<g id="Group 76_4">
<line id="Line 16_4" x1="1452" y1="78.9952" x2="1451.01" y2="347.325" stroke="#4D6092" stroke-width="8.10053" stroke-linecap="round"/>
</g>
<g id="glowy star_4">
<g id="Ellipse 993_4" opacity="0.34" filter="url(#filter7_f_13622_286)" style="mix-blend-mode:lighten">
<ellipse cx="1449.48" cy="367.561" rx="28.8581" ry="28.3519"/>
</g>
<g id="Ellipse 1193_4" opacity="0.8" style="mix-blend-mode:soft-light">
<path d="M1475.3 365.03C1475.3 379.29 1463.97 390.85 1449.99 390.85C1436.01 390.85 1424.67 379.29 1424.67 365.03C1424.67 350.77 1436.01 339.209 1449.99 339.209C1463.97 339.209 1475.3 350.77 1475.3 365.03Z" fill="url(#paint3_linear_13622_286)"/>
</g>
<path id="Vector 3311_4" d="M1467.31 360.253L1458.49 358.129C1457.37 357.859 1456.49 356.995 1456.21 355.882L1453.63 345.855C1452.96 343.247 1449.52 342.669 1448.04 344.915L1440.86 355.771C1440.26 356.681 1439.22 357.209 1438.13 357.161L1432.25 356.906C1429.28 356.777 1427.85 360.497 1430.14 362.397L1437.55 368.552C1438.4 369.256 1438.81 370.357 1438.63 371.445L1437.09 380.813C1436.59 383.861 1440.36 385.692 1442.45 383.411L1445.92 379.607C1446.85 378.597 1448.32 378.31 1449.56 378.9L1461.26 384.492C1463.8 385.701 1466.51 383.2 1465.5 380.581L1462.51 372.767C1462 371.435 1462.47 369.928 1463.64 369.111L1468.36 365.818C1470.55 364.286 1469.91 360.88 1467.31 360.253Z" fill="#FFF186"/>
</g>
</g>
</g>
<g id="bulb lights">
<g id="light">
<line id="Line 12" x1="414.515" y1="165.048" x2="414.515" y2="434.504" stroke="#4D6092" stroke-width="8.10053" stroke-linecap="round"/>
<g id="Group 75">
<g id="Ellipse 991" opacity="0.43" filter="url(#filter8_f_13622_286)" style="mix-blend-mode:lighten">
<ellipse cx="414.402" cy="482.817" rx="71.3464" ry="69.8703"/>
</g>
<path id="Union" d="M424.04 431.503C446.445 434.727 463.618 453.139 463.618 475.369C463.618 499.872 442.754 519.735 417.018 519.735C391.281 519.735 370.417 499.872 370.417 475.369C370.417 454.424 385.663 436.871 406.165 432.215V422.703H424.04V431.503Z" fill="url(#paint4_radial_13622_286)"/>
</g>
<g id="Ellipse 1188" opacity="0.24" filter="url(#filter9_f_13622_286)" style="mix-blend-mode:screen">
<path d="M558.571 627.341C558.571 710.225 495.486 799.557 413.418 799.557C331.35 799.557 266.297 710.225 266.297 627.341C266.297 544.458 331.35 471.855 413.418 471.855C495.486 471.855 558.571 544.458 558.571 627.341Z" fill="url(#paint5_radial_13622_286)"/>
</g>
<g id="Ellipse 1193_5" opacity="0.67" style="mix-blend-mode:soft-light">
<path d="M476.4 475.928C476.4 507.995 449.744 533.99 416.862 533.99C383.981 533.99 357.325 507.995 357.325 475.928C357.325 443.862 383.981 417.867 416.862 417.867C449.744 417.867 476.4 443.862 476.4 475.928Z" fill="url(#paint6_linear_13622_286)"/>
</g>
</g>
<g id="light_2">
<line id="Line 12_2" x1="965.351" y1="117.457" x2="965.351" y2="386.914" stroke="#4D6092" stroke-width="8.10053" stroke-linecap="round"/>
<g id="Group 75_2">
<g id="Ellipse 991_2" opacity="0.43" filter="url(#filter10_f_13622_286)" style="mix-blend-mode:lighten">
<ellipse cx="965.238" cy="435.227" rx="71.3464" ry="69.8703"/>
</g>
<path id="Union_2" d="M974.875 383.912C997.281 387.136 1014.45 405.548 1014.45 427.778C1014.45 452.281 993.59 472.145 967.854 472.145C942.117 472.144 921.253 452.281 921.253 427.778C921.253 406.833 936.499 389.28 957.001 384.624V375.112H974.875V383.912Z" fill="url(#paint7_radial_13622_286)"/>
</g>
<g id="Ellipse 1193_6" opacity="0.67" style="mix-blend-mode:soft-light">
<path d="M1027.24 428.338C1027.24 460.404 1000.58 486.399 967.698 486.399C934.817 486.399 908.161 460.404 908.161 428.338C908.161 396.271 934.817 370.276 967.698 370.276C1000.58 370.276 1027.24 396.271 1027.24 428.338Z" fill="url(#paint8_linear_13622_286)"/>
</g>
<g id="Ellipse 1188_2" opacity="0.24" filter="url(#filter11_f_13622_286)" style="mix-blend-mode:screen">
<path d="M1106.37 577.726C1106.37 660.61 1043.28 749.942 961.216 749.942C879.148 749.942 814.095 660.61 814.095 577.726C814.095 494.843 879.148 422.24 961.216 422.24C1043.28 422.24 1106.37 494.843 1106.37 577.726Z" fill="url(#paint9_radial_13622_286)"/>
</g>
</g>
<g id="light_3">
<line id="Line 12_3" x1="1255.96" y1="200.488" x2="1255.96" y2="469.944" stroke="#4D6092" stroke-width="8.10053" stroke-linecap="round"/>
<g id="Group 75_3">
<g id="Ellipse 991_3" opacity="0.43" filter="url(#filter12_f_13622_286)" style="mix-blend-mode:lighten">
<ellipse cx="1255.84" cy="518.257" rx="71.3464" ry="69.8703"/>
</g>
<path id="Union_3" d="M1265.48 466.942C1287.89 470.166 1305.06 488.578 1305.06 510.809C1305.06 535.311 1284.2 555.175 1258.46 555.175C1232.72 555.175 1211.86 535.311 1211.86 510.809C1211.86 489.863 1227.11 472.311 1247.61 467.654V458.143H1265.48V466.942Z" fill="url(#paint10_radial_13622_286)"/>
</g>
<g id="Ellipse 1188_3" opacity="0.24" filter="url(#filter13_f_13622_286)" style="mix-blend-mode:screen">
<path d="M1402.04 663.794C1402.04 746.677 1338.95 836.01 1256.89 836.01C1174.82 836.01 1109.76 746.677 1109.76 663.794C1109.76 580.911 1174.82 508.308 1256.89 508.308C1338.95 508.308 1402.04 580.911 1402.04 663.794Z" fill="url(#paint11_radial_13622_286)"/>
</g>
<g id="Ellipse 1193_7" opacity="0.67" style="mix-blend-mode:soft-light">
<path d="M1317.84 511.368C1317.84 543.435 1291.19 569.43 1258.3 569.43C1225.42 569.43 1198.77 543.435 1198.77 511.368C1198.77 479.302 1225.42 453.307 1258.3 453.307C1291.19 453.307 1317.84 479.302 1317.84 511.368Z" fill="url(#paint12_linear_13622_286)"/>
</g>
</g>
</g>
</g>
<defs>
<filter id="filter0_d_13622_286" x="1087.62" y="153.196" width="376.896" height="213.595" filterUnits="userSpaceOnUse" color-interpolation-filters="sRGB">
<feFlood flood-opacity="0" result="BackgroundImageFix"/>
<feColorMatrix in="SourceAlpha" type="matrix" values="0 0 0 0 0 0 0 0 0 0 0 0 0 0 0 0 0 0 127 0" result="hardAlpha"/>
<feOffset/>
<feGaussianBlur stdDeviation="9.92315"/>
<feComposite in2="hardAlpha" operator="out"/>
<feColorMatrix type="matrix" values="0 0 0 0 1 0 0 0 0 0.60468 0 0 0 0 0.20936 0 0 0 1 0"/>
<feBlend mode="normal" in2="BackgroundImageFix" result="effect1_dropShadow_13622_286"/>
<feBlend mode="normal" in="SourceGraphic" in2="effect1_dropShadow_13622_286" result="shape"/>
</filter>
<filter id="filter1_d_13622_286" x="953.222" y="152.29" width="152.555" height="81.9582" filterUnits="userSpaceOnUse" color-interpolation-filters="sRGB">
<feFlood flood-opacity="0" result="BackgroundImageFix"/>
<feColorMatrix in="SourceAlpha" type="matrix" values="0 0 0 0 0 0 0 0 0 0 0 0 0 0 0 0 0 0 127 0" result="hardAlpha"/>
<feOffset/>
<feGaussianBlur stdDeviation="9.92315"/>
<feComposite in2="hardAlpha" operator="out"/>
<feColorMatrix type="matrix" values="0 0 0 0 1 0 0 0 0 0.60468 0 0 0 0 0.20936 0 0 0 1 0"/>
<feBlend mode="normal" in2="BackgroundImageFix" result="effect1_dropShadow_13622_286"/>
<feBlend mode="normal" in="SourceGraphic" in2="effect1_dropShadow_13622_286" result="shape"/>
</filter>
<filter id="filter2_d_13622_286" x="424.439" y="164.226" width="552.668" height="287.054" filterUnits="userSpaceOnUse" color-interpolation-filters="sRGB">
<feFlood flood-opacity="0" result="BackgroundImageFix"/>
<feColorMatrix in="SourceAlpha" type="matrix" values="0 0 0 0 0 0 0 0 0 0 0 0 0 0 0 0 0 0 127 0" result="hardAlpha"/>
<feOffset/>
<feGaussianBlur stdDeviation="9.92315"/>
<feComposite in2="hardAlpha" operator="out"/>
<feColorMatrix type="matrix" values="0 0 0 0 1 0 0 0 0 0.60468 0 0 0 0 0.20936 0 0 0 1 0"/>
<feBlend mode="normal" in2="BackgroundImageFix" result="effect1_dropShadow_13622_286"/>
<feBlend mode="normal" in="SourceGraphic" in2="effect1_dropShadow_13622_286" result="shape"/>
</filter>
<filter id="filter3_d_13622_286" x="43.9372" y="141.152" width="403.587" height="132.943" filterUnits="userSpaceOnUse" color-interpolation-filters="sRGB">
<feFlood flood-opacity="0" result="BackgroundImageFix"/>
<feColorMatrix in="SourceAlpha" type="matrix" values="0 0 0 0 0 0 0 0 0 0 0 0 0 0 0 0 0 0 127 0" result="hardAlpha"/>
<feOffset/>
<feGaussianBlur stdDeviation="9.92315"/>
<feComposite in2="hardAlpha" operator="out"/>
<feColorMatrix type="matrix" values="0 0 0 0 1 0 0 0 0 0.60468 0 0 0 0 0.20936 0 0 0 1 0"/>
<feBlend mode="normal" in2="BackgroundImageFix" result="effect1_dropShadow_13622_286"/>
<feBlend mode="normal" in="SourceGraphic" in2="effect1_dropShadow_13622_286" result="shape"/>
</filter>
<filter id="filter4_f_13622_286" x="565.012" y="248.087" width="90.102" height="89.0894" filterUnits="userSpaceOnUse" color-interpolation-filters="sRGB">
<feFlood flood-opacity="0" result="BackgroundImageFix"/>
<feBlend mode="normal" in="SourceGraphic" in2="BackgroundImageFix" result="shape"/>
<feGaussianBlur stdDeviation="8.09644" result="effect1_foregroundBlur_13622_286"/>
</filter>
<filter id="filter5_f_13622_286" x="0" y="380.733" width="90.102" height="89.0894" filterUnits="userSpaceOnUse" color-interpolation-filters="sRGB">
<feFlood flood-opacity="0" result="BackgroundImageFix"/>
<feBlend mode="normal" in="SourceGraphic" in2="BackgroundImageFix" result="shape"/>
<feGaussianBlur stdDeviation="8.09644" result="effect1_foregroundBlur_13622_286"/>
</filter>
<filter id="filter6_f_13622_286" x="226.815" y="297.703" width="90.102" height="89.0894" filterUnits="userSpaceOnUse" color-interpolation-filters="sRGB">
<feFlood flood-opacity="0" result="BackgroundImageFix"/>
<feBlend mode="normal" in="SourceGraphic" in2="BackgroundImageFix" result="shape"/>
<feGaussianBlur stdDeviation="8.09644" result="effect1_foregroundBlur_13622_286"/>
</filter>
<filter id="filter7_f_13622_286" x="1404.43" y="323.017" width="90.1021" height="89.0894" filterUnits="userSpaceOnUse" color-interpolation-filters="sRGB">
<feFlood flood-opacity="0" result="BackgroundImageFix"/>
<feBlend mode="normal" in="SourceGraphic" in2="BackgroundImageFix" result="shape"/>
<feGaussianBlur stdDeviation="8.09644" result="effect1_foregroundBlur_13622_286"/>
</filter>
<filter id="filter8_f_13622_286" x="306.513" y="376.404" width="215.779" height="212.827" filterUnits="userSpaceOnUse" color-interpolation-filters="sRGB">
<feFlood flood-opacity="0" result="BackgroundImageFix"/>
<feBlend mode="normal" in="SourceGraphic" in2="BackgroundImageFix" result="shape"/>
<feGaussianBlur stdDeviation="18.2715" result="effect1_foregroundBlur_13622_286"/>
</filter>
<filter id="filter9_f_13622_286" x="214.14" y="419.699" width="396.588" height="432.015" filterUnits="userSpaceOnUse" color-interpolation-filters="sRGB">
<feFlood flood-opacity="0" result="BackgroundImageFix"/>
<feBlend mode="normal" in="SourceGraphic" in2="BackgroundImageFix" result="shape"/>
<feGaussianBlur stdDeviation="26.0784" result="effect1_foregroundBlur_13622_286"/>
</filter>
<filter id="filter10_f_13622_286" x="857.349" y="328.813" width="215.779" height="212.827" filterUnits="userSpaceOnUse" color-interpolation-filters="sRGB">
<feFlood flood-opacity="0" result="BackgroundImageFix"/>
<feBlend mode="normal" in="SourceGraphic" in2="BackgroundImageFix" result="shape"/>
<feGaussianBlur stdDeviation="18.2715" result="effect1_foregroundBlur_13622_286"/>
</filter>
<filter id="filter11_f_13622_286" x="761.938" y="370.084" width="396.588" height="432.015" filterUnits="userSpaceOnUse" color-interpolation-filters="sRGB">
<feFlood flood-opacity="0" result="BackgroundImageFix"/>
<feBlend mode="normal" in="SourceGraphic" in2="BackgroundImageFix" result="shape"/>
<feGaussianBlur stdDeviation="26.0784" result="effect1_foregroundBlur_13622_286"/>
</filter>
<filter id="filter12_f_13622_286" x="1147.96" y="411.844" width="215.779" height="212.827" filterUnits="userSpaceOnUse" color-interpolation-filters="sRGB">
<feFlood flood-opacity="0" result="BackgroundImageFix"/>
<feBlend mode="normal" in="SourceGraphic" in2="BackgroundImageFix" result="shape"/>
<feGaussianBlur stdDeviation="18.2715" result="effect1_foregroundBlur_13622_286"/>
</filter>
<filter id="filter13_f_13622_286" x="1057.61" y="456.151" width="396.588" height="432.015" filterUnits="userSpaceOnUse" color-interpolation-filters="sRGB">
<feFlood flood-opacity="0" result="BackgroundImageFix"/>
<feBlend mode="normal" in="SourceGraphic" in2="BackgroundImageFix" result="shape"/>
<feGaussianBlur stdDeviation="26.0784" result="effect1_foregroundBlur_13622_286"/>
</filter>
<linearGradient id="paint0_linear_13622_286" x1="610.569" y1="266.305" x2="610.569" y2="340.012" gradientUnits="userSpaceOnUse">
<stop stop-color="#FFE9B0" stop-opacity="0"/>
<stop offset="0.5" stop-color="#FFE9B0"/>
<stop offset="1" stop-color="#FFE9B0" stop-opacity="0"/>
</linearGradient>
<linearGradient id="paint1_linear_13622_286" x1="45.5573" y1="398.951" x2="45.5573" y2="472.658" gradientUnits="userSpaceOnUse">
<stop stop-color="#FFE9B0" stop-opacity="0"/>
<stop offset="0.5" stop-color="#FFE9B0"/>
<stop offset="1" stop-color="#FFE9B0" stop-opacity="0"/>
</linearGradient>
<linearGradient id="paint2_linear_13622_286" x1="272.372" y1="315.92" x2="272.372" y2="389.628" gradientUnits="userSpaceOnUse">
<stop stop-color="#FFE9B0" stop-opacity="0"/>
<stop offset="0.5" stop-color="#FFE9B0"/>
<stop offset="1" stop-color="#FFE9B0" stop-opacity="0"/>
</linearGradient>
<linearGradient id="paint3_linear_13622_286" x1="1449.99" y1="339.209" x2="1449.99" y2="412.917" gradientUnits="userSpaceOnUse">
<stop stop-color="#FFE9B0" stop-opacity="0"/>
<stop offset="0.5" stop-color="#FFE9B0"/>
<stop offset="1" stop-color="#FFE9B0" stop-opacity="0"/>
</linearGradient>
<radialGradient id="paint4_radial_13622_286" cx="0" cy="0" r="1" gradientUnits="userSpaceOnUse" gradientTransform="translate(416.863 498.07) rotate(-90) scale(57.0769 47.2363)">
<stop stop-color="#FFE5B5"/>
<stop offset="1" stop-color="#FFCB6B"/>
</radialGradient>
<radialGradient id="paint5_radial_13622_286" cx="0" cy="0" r="1" gradientUnits="userSpaceOnUse" gradientTransform="translate(413.418 561.9) rotate(90) scale(150.074 148.597)">
<stop stop-color="#FFD255"/>
<stop offset="1" stop-color="#FFBE55" stop-opacity="0"/>
</radialGradient>
<linearGradient id="paint6_linear_13622_286" x1="416.862" y1="417.867" x2="416.862" y2="583.609" gradientUnits="userSpaceOnUse">
<stop stop-color="#FFE9B0" stop-opacity="0"/>
<stop offset="0.5" stop-color="#FFE9B0"/>
<stop offset="1" stop-color="#FFE9B0" stop-opacity="0"/>
</linearGradient>
<radialGradient id="paint7_radial_13622_286" cx="0" cy="0" r="1" gradientUnits="userSpaceOnUse" gradientTransform="translate(967.699 450.479) rotate(-90) scale(57.0769 47.2363)">
<stop stop-color="#FFE5B5"/>
<stop offset="1" stop-color="#FFCB6B"/>
</radialGradient>
<linearGradient id="paint8_linear_13622_286" x1="967.698" y1="370.276" x2="967.698" y2="536.019" gradientUnits="userSpaceOnUse">
<stop stop-color="#FFE9B0" stop-opacity="0"/>
<stop offset="0.5" stop-color="#FFE9B0"/>
<stop offset="1" stop-color="#FFE9B0" stop-opacity="0"/>
</linearGradient>
<radialGradient id="paint9_radial_13622_286" cx="0" cy="0" r="1" gradientUnits="userSpaceOnUse" gradientTransform="translate(961.216 512.284) rotate(90) scale(150.074 148.597)">
<stop stop-color="#FFD255"/>
<stop offset="1" stop-color="#FFBE55" stop-opacity="0"/>
</radialGradient>
<radialGradient id="paint10_radial_13622_286" cx="0" cy="0" r="1" gradientUnits="userSpaceOnUse" gradientTransform="translate(1258.31 533.51) rotate(-90) scale(57.0769 47.2363)">
<stop stop-color="#FFE5B5"/>
<stop offset="1" stop-color="#FFCB6B"/>
</radialGradient>
<radialGradient id="paint11_radial_13622_286" cx="0" cy="0" r="1" gradientUnits="userSpaceOnUse" gradientTransform="translate(1256.89 598.352) rotate(90) scale(150.074 148.597)">
<stop stop-color="#FFD255"/>
<stop offset="1" stop-color="#FFBE55" stop-opacity="0"/>
</radialGradient>
<linearGradient id="paint12_linear_13622_286" x1="1258.3" y1="453.307" x2="1258.3" y2="619.049" gradientUnits="userSpaceOnUse">
<stop stop-color="#FFE9B0" stop-opacity="0"/>
<stop offset="0.5" stop-color="#FFE9B0"/>
<stop offset="1" stop-color="#FFE9B0" stop-opacity="0"/>
</linearGradient>
<clipPath id="clip0_13622_286">
<rect width="494.416" height="227.463" fill="white" transform="translate(959.905 119.483)"/>
</clipPath>
<clipPath id="clip1_13622_286">
<rect width="530.534" height="299.801" fill="white" transform="translate(436.408 131.633)"/>
</clipPath>
<clipPath id="clip2_13622_286">
<rect width="402.941" height="138.711" fill="white" transform="translate(44.5447 122.521)"/>
</clipPath>
</defs>
</svg>
