<svg width="428" height="926" viewBox="0 0 428 926" fill="none" xmlns="http://www.w3.org/2000/svg">
<g clip-path="url(#clip0_38_3353)">
<g filter="url(#filter0_f_38_3353)">
<circle cx="213.5" cy="430.5" r="23.5" fill="#FFF4D1"/>
</g>
<mask id="mask0_38_3353" style="mask-type:alpha" maskUnits="userSpaceOnUse" x="0" y="432" width="428" height="494">
<rect y="432" width="428" height="494" fill="url(#paint0_radial_38_3353)"/>
</mask>
<g mask="url(#mask0_38_3353)">
<rect x="-12.2837" y="431" width="440.284" height="494" fill="url(#paint1_radial_38_3353)"/>
<g style="mix-blend-mode:color-burn" opacity="0.5">
<path d="M212.028 781.067C245.394 783.444 398.422 803.8 451.921 794.65V714C371.957 714.849 209.3 718.584 198.389 726.734C184.75 736.921 305.306 726.734 274.863 736.638C244.419 746.543 45.198 750.222 120.21 754.183C195.223 758.145 240.279 748.524 204.721 759.277C169.163 770.03 132.631 775.408 212.028 781.067Z" fill="url(#paint2_linear_38_3353)"/>
</g>
<g style="mix-blend-mode:color-burn" opacity="0.5">
<path d="M166.157 565.924C140.529 569.218 22.989 597.421 -18.103 584.744V473C43.3168 474.176 168.252 479.352 176.632 490.644C187.108 504.759 94.5105 490.644 117.894 504.367C141.277 518.09 294.297 523.187 236.68 528.676C179.064 534.165 144.457 520.834 171.769 535.733C199.08 550.632 227.14 558.084 166.157 565.924Z" fill="url(#paint3_linear_38_3353)"/>
</g>
<path d="M333.302 517.758C448.861 459.841 332.397 436.454 259.72 432H176.26C261.531 434.348 415.478 448.423 363.921 485.933C299.474 532.821 259.72 517.758 238.978 527.476C218.237 537.194 39.9599 523.832 -9.42439 550.313C-58.8086 576.793 -43.7464 626.353 -18.5605 659.879C6.62549 693.405 128.605 679.315 151.074 694.377C173.544 709.439 259.72 716.485 325.154 718.185C377.501 719.546 393.716 774.629 395.28 802H538C533.062 784.314 513.226 758.19 503.925 747.338C490.295 724.016 420.383 702.313 387.131 694.377L193.298 670.569L74.7757 647.489C-89.7726 583.936 36.1737 556.224 119.715 550.313C182.187 548.936 312.363 540.498 333.302 517.758Z" fill="#B5DAB1"/>
<g style="mix-blend-mode:soft-light" opacity="0.75" filter="url(#filter1_f_38_3353)">
<path d="M216.923 432H240.872L493 926H-65L216.923 432Z" fill="url(#paint4_linear_38_3353)"/>
</g>
<g style="mix-blend-mode:color-burn">
<path d="M193.005 472.506C194.853 475.77 201.752 480.268 210.658 480.369C216.839 480.44 226.696 482.322 235.893 476.397C243.512 471.487 188.271 464.146 193.005 472.506Z" fill="url(#paint5_linear_38_3353)"/>
</g>
<g style="mix-blend-mode:color-burn">
<path d="M362.897 515.615C365.37 518.593 374.344 522.092 385.736 520.952C393.641 520.161 406.31 520.654 417.87 513.499C427.447 507.571 356.56 507.986 362.897 515.615Z" fill="url(#paint6_linear_38_3353)"/>
</g>
</g>
<g opacity="0.75" filter="url(#filter2_f_38_3353)">
<mask id="mask1_38_3353" style="mask-type:alpha" maskUnits="userSpaceOnUse" x="117" y="82" width="382" height="95">
<path d="M425.24 134.483C441.384 131.635 467.017 149.991 471.653 158.748C476.289 167.505 495.797 161.003 498.39 164.943C499.72 166.964 497.35 172.704 492.337 176.301H117C117 176.301 132.639 161.329 140.711 161.846C148.783 162.362 150.801 161.329 153.827 159.264C156.854 157.199 160.386 151.52 160.386 147.39C160.386 143.26 155.845 138.097 160.386 133.451C164.926 128.804 171.989 118.995 171.989 118.995C190.498 110.431 194.557 116.593 203.772 124.158C206.366 109.77 214.081 108.542 244.13 124.158C252.165 123.507 253.211 125.19 258.76 117.446C264.31 109.702 248.671 106.088 258.76 99.8928C268.85 93.6975 255.733 90.0836 268.85 84.9209C281.967 79.7581 293.328 84.1209 310.722 102.99C321.718 93.2789 327.345 99.2651 336.955 118.995C349.508 130.044 350.569 135.48 349.568 144.809C361.179 146.188 361.86 150.078 363.693 156.683C365.64 152.605 380.366 155.528 383.872 158.748C387.379 161.968 392.953 151.52 397.494 151.004C402.034 150.488 411.115 151.52 412.628 144.809C414.142 138.097 409.097 137.332 425.24 134.483Z" fill="url(#paint7_linear_38_3353)"/>
</mask>
<g mask="url(#mask1_38_3353)">
<path d="M425.24 134.483C441.384 131.635 467.017 149.991 471.653 158.748C476.289 167.505 495.797 161.003 498.39 164.943C499.72 166.964 497.35 172.704 492.337 176.301H117C117 176.301 132.639 161.329 140.711 161.846C148.783 162.362 150.801 161.329 153.827 159.264C156.854 157.199 160.386 151.52 160.386 147.39C160.386 143.26 155.845 138.097 160.386 133.451C164.926 128.804 171.989 118.995 171.989 118.995C190.498 110.431 194.557 116.593 203.772 124.158C206.366 109.77 214.081 108.542 244.13 124.158C252.165 123.507 253.211 125.19 258.76 117.446C264.31 109.702 248.671 106.088 258.76 99.8928C268.85 93.6975 255.733 90.0836 268.85 84.9209C281.967 79.7581 293.328 84.1209 310.722 102.99C321.718 93.2789 327.345 99.2651 336.955 118.995C349.508 130.044 350.569 135.48 349.568 144.809C361.179 146.188 361.86 150.078 363.693 156.683C365.64 152.605 380.366 155.528 383.872 158.748C387.379 161.968 392.953 151.52 397.494 151.004C402.034 150.488 411.115 151.52 412.628 144.809C414.142 138.097 409.097 137.332 425.24 134.483Z" fill="url(#paint8_linear_38_3353)"/>
<path d="M398.863 155.87C415.007 153.022 440.64 171.378 445.276 180.135C449.912 188.892 469.42 182.39 472.014 186.33C473.343 188.351 470.973 194.091 465.96 197.688H90.6232C90.6232 197.688 106.262 182.716 114.334 183.233C122.406 183.749 124.424 182.716 127.451 180.651C130.477 178.586 134.009 172.907 134.009 168.777C134.009 164.647 129.468 159.484 134.009 154.838C138.549 150.191 145.612 140.382 145.612 140.382C164.121 131.818 168.18 137.98 177.395 145.545C179.989 131.157 187.704 129.929 217.753 145.545C225.788 144.894 226.834 146.577 232.383 138.833C237.933 131.089 222.294 127.475 232.383 121.28C242.473 115.084 229.356 111.471 242.473 106.308C255.59 101.145 266.951 105.508 284.345 124.377C295.341 114.666 300.968 120.652 310.578 140.382C323.131 151.431 324.192 156.867 323.191 166.196C334.802 167.575 335.483 171.465 337.316 178.07C339.263 173.992 353.989 176.915 357.495 180.135C361.002 183.355 366.576 172.907 371.117 172.391C375.657 171.875 384.738 172.907 386.251 166.196C387.765 159.484 382.72 158.719 398.863 155.87Z" fill="url(#paint9_linear_38_3353)" fill-opacity="0.5"/>
</g>
</g>
<path d="M173.714 88.7959C181.429 85.6174 182.209 85.733 179.429 89.6623H182.286L183.571 88.2175H187.286C193.189 84.5976 195.638 86.2032 201 87.4956C195.286 87.9286 192.794 88.8513 191.571 90.6736L194.429 92.6963L207 96.5972L193.143 94.4301C188.496 95.9096 187 95.4414 184.714 92.6963C176.017 97.0572 171.429 99.7761 165.714 107C166.429 99.3427 169.133 95.8587 180.571 91.1071H177.571C170.593 92.7851 166.934 93.7288 164 95.4414C165.67 93.5862 167.389 93.2935 173.714 88.7959Z" fill="#046C6B"/>
<g opacity="0.75" filter="url(#filter3_f_38_3353)">
<mask id="mask2_38_3353" style="mask-type:alpha" maskUnits="userSpaceOnUse" x="226" y="373" width="226" height="46">
<path d="M269.414 397.899C259.88 396.523 244.743 405.386 242.005 409.614C239.267 413.842 227.747 410.702 226.215 412.605C225.43 413.581 226.83 416.352 229.791 418.089H451.443C451.443 418.089 442.207 410.86 437.441 411.109C432.674 411.359 431.482 410.86 429.695 409.863C427.907 408.866 425.822 406.124 425.822 404.13C425.822 402.136 428.503 399.643 425.822 397.4C423.14 395.157 418.97 390.421 418.97 390.421C408.039 386.286 405.642 389.261 400.201 392.913C398.668 385.967 394.113 385.374 376.367 392.913C371.622 392.599 371.004 393.412 367.727 389.673C364.45 385.934 373.686 384.189 367.727 381.198C361.769 378.207 369.515 376.462 361.769 373.97C354.023 371.477 347.314 373.584 337.042 382.694C330.548 378.005 327.225 380.895 321.55 390.421C314.137 395.756 313.51 398.38 314.102 402.884C307.245 403.55 306.843 405.428 305.76 408.617C304.61 406.648 295.914 408.059 293.843 409.614C291.772 411.168 288.481 406.124 285.799 405.875C283.118 405.626 277.756 406.124 276.862 402.884C275.968 399.643 278.947 399.274 269.414 397.899Z" fill="url(#paint10_linear_38_3353)"/>
</mask>
<g mask="url(#mask2_38_3353)">
<path d="M269.414 397.899C259.88 396.523 244.743 405.386 242.005 409.614C239.267 413.842 227.747 410.702 226.215 412.605C225.43 413.581 226.83 416.352 229.791 418.089H451.443C451.443 418.089 442.207 410.86 437.441 411.109C432.674 411.359 431.482 410.86 429.695 409.863C427.907 408.866 425.822 406.124 425.822 404.13C425.822 402.136 428.503 399.643 425.822 397.4C423.14 395.157 418.97 390.421 418.97 390.421C408.039 386.286 405.642 389.261 400.201 392.913C398.668 385.967 394.113 385.374 376.367 392.913C371.622 392.599 371.004 393.412 367.727 389.673C364.45 385.934 373.686 384.189 367.727 381.198C361.769 378.207 369.515 376.462 361.769 373.97C354.023 371.477 347.314 373.584 337.042 382.694C330.548 378.005 327.225 380.895 321.55 390.421C314.137 395.756 313.51 398.38 314.102 402.884C307.245 403.55 306.843 405.428 305.76 408.617C304.61 406.648 295.914 408.059 293.843 409.614C291.772 411.168 288.481 406.124 285.799 405.875C283.118 405.626 277.756 406.124 276.862 402.884C275.968 399.643 278.947 399.274 269.414 397.899Z" fill="url(#paint11_linear_38_3353)"/>
<path d="M284.991 408.224C275.458 406.849 260.32 415.711 257.582 419.939C254.845 424.167 243.324 421.028 241.793 422.93C241.007 423.906 242.407 426.677 245.368 428.414H467.02C467.02 428.414 457.784 421.185 453.018 421.435C448.251 421.684 447.059 421.185 445.272 420.188C443.484 419.191 441.399 416.45 441.399 414.455C441.399 412.461 444.08 409.969 441.399 407.726C438.718 405.482 434.547 400.746 434.547 400.746C423.616 396.612 421.219 399.587 415.778 403.239C414.245 396.293 409.69 395.7 391.944 403.239C387.199 402.925 386.582 403.737 383.305 399.999C380.027 396.26 389.263 394.515 383.305 391.524C377.346 388.533 385.092 386.788 377.346 384.295C369.6 381.803 362.891 383.909 352.619 393.019C346.125 388.331 342.803 391.221 337.127 400.746C329.714 406.081 329.088 408.706 329.679 413.209C322.822 413.875 322.42 415.753 321.337 418.942C320.187 416.973 311.491 418.385 309.42 419.939C307.35 421.494 304.058 416.45 301.377 416.2C298.695 415.951 293.333 416.45 292.439 413.209C291.545 409.969 294.524 409.599 284.991 408.224Z" fill="url(#paint12_linear_38_3353)" fill-opacity="0.5"/>
</g>
</g>
</g>
<defs>
<filter id="filter0_f_38_3353" x="186" y="403" width="55" height="55" filterUnits="userSpaceOnUse" color-interpolation-filters="sRGB">
<feFlood flood-opacity="0" result="BackgroundImageFix"/>
<feBlend mode="normal" in="SourceGraphic" in2="BackgroundImageFix" result="shape"/>
<feGaussianBlur stdDeviation="2" result="effect1_foregroundBlur_38_3353"/>
</filter>
<filter id="filter1_f_38_3353" x="-115" y="382" width="658" height="594" filterUnits="userSpaceOnUse" color-interpolation-filters="sRGB">
<feFlood flood-opacity="0" result="BackgroundImageFix"/>
<feBlend mode="normal" in="SourceGraphic" in2="BackgroundImageFix" result="shape"/>
<feGaussianBlur stdDeviation="25" result="effect1_foregroundBlur_38_3353"/>
</filter>
<filter id="filter2_f_38_3353" x="114.023" y="79.935" width="387.71" height="99.3434" filterUnits="userSpaceOnUse" color-interpolation-filters="sRGB">
<feFlood flood-opacity="0" result="BackgroundImageFix"/>
<feBlend mode="normal" in="SourceGraphic" in2="BackgroundImageFix" result="shape"/>
<feGaussianBlur stdDeviation="1.48855" result="effect1_foregroundBlur_38_3353"/>
</filter>
<filter id="filter3_f_38_3353" x="223.023" y="370.023" width="231.397" height="51.0428" filterUnits="userSpaceOnUse" color-interpolation-filters="sRGB">
<feFlood flood-opacity="0" result="BackgroundImageFix"/>
<feBlend mode="normal" in="SourceGraphic" in2="BackgroundImageFix" result="shape"/>
<feGaussianBlur stdDeviation="1.48855" result="effect1_foregroundBlur_38_3353"/>
</filter>
<radialGradient id="paint0_radial_38_3353" cx="0" cy="0" r="1" gradientUnits="userSpaceOnUse" gradientTransform="translate(219.932 249.327) rotate(90) scale(457.3 396.204)">
<stop stop-color="#FFE24E"/>
<stop offset="1" stop-color="#8EC374"/>
</radialGradient>
<radialGradient id="paint1_radial_38_3353" cx="0" cy="0" r="1" gradientUnits="userSpaceOnUse" gradientTransform="translate(213.961 248.327) rotate(90) scale(457.3 407.575)">
<stop stop-color="#FFE24E"/>
<stop offset="1" stop-color="#8EC374"/>
</radialGradient>
<linearGradient id="paint2_linear_38_3353" x1="277.683" y1="797" x2="277.683" y2="714" gradientUnits="userSpaceOnUse">
<stop stop-color="#E8CE9C"/>
<stop offset="1" stop-color="#DAAA84"/>
</linearGradient>
<linearGradient id="paint3_linear_38_3353" x1="115.728" y1="588" x2="115.728" y2="473" gradientUnits="userSpaceOnUse">
<stop stop-color="#E8CE9C"/>
<stop offset="1" stop-color="#DAAA84"/>
</linearGradient>
<linearGradient id="paint4_linear_38_3353" x1="222.015" y1="432" x2="222.015" y2="926" gradientUnits="userSpaceOnUse">
<stop stop-color="#FFF4D1"/>
<stop offset="1" stop-color="#FFF4D1" stop-opacity="0"/>
</linearGradient>
<linearGradient id="paint5_linear_38_3353" x1="214.831" y1="481.016" x2="214.152" y2="468.059" gradientUnits="userSpaceOnUse">
<stop stop-color="#E8CE9C"/>
<stop offset="1" stop-color="#DAAA84"/>
</linearGradient>
<linearGradient id="paint6_linear_38_3353" x1="391.094" y1="521.012" x2="389.198" y2="508.349" gradientUnits="userSpaceOnUse">
<stop stop-color="#E8CE9C"/>
<stop offset="1" stop-color="#DAAA84"/>
</linearGradient>
<linearGradient id="paint7_linear_38_3353" x1="307.7" y1="129.607" x2="307.7" y2="226.56" gradientUnits="userSpaceOnUse">
<stop stop-color="white"/>
<stop offset="1" stop-color="white" stop-opacity="0"/>
</linearGradient>
<linearGradient id="paint8_linear_38_3353" x1="307.7" y1="129.607" x2="307.7" y2="226.56" gradientUnits="userSpaceOnUse">
<stop stop-color="white"/>
<stop offset="1" stop-color="white" stop-opacity="0"/>
</linearGradient>
<linearGradient id="paint9_linear_38_3353" x1="281.323" y1="150.994" x2="281.323" y2="247.947" gradientUnits="userSpaceOnUse">
<stop stop-color="#AFFFF6"/>
<stop offset="1" stop-color="white" stop-opacity="0"/>
</linearGradient>
<linearGradient id="paint10_linear_38_3353" x1="338.827" y1="395.544" x2="338.827" y2="442.354" gradientUnits="userSpaceOnUse">
<stop stop-color="white"/>
<stop offset="1" stop-color="white" stop-opacity="0"/>
</linearGradient>
<linearGradient id="paint11_linear_38_3353" x1="338.827" y1="395.544" x2="338.827" y2="442.354" gradientUnits="userSpaceOnUse">
<stop stop-color="white"/>
<stop offset="1" stop-color="white" stop-opacity="0"/>
</linearGradient>
<linearGradient id="paint12_linear_38_3353" x1="354.404" y1="405.87" x2="354.404" y2="452.679" gradientUnits="userSpaceOnUse">
<stop stop-color="#AFFFF6"/>
<stop offset="1" stop-color="white" stop-opacity="0"/>
</linearGradient>
<clipPath id="clip0_38_3353">
<rect width="428" height="926" fill="white"/>
</clipPath>
</defs>
</svg>
