<svg width="428" height="926" viewBox="0 0 428 926" fill="none" xmlns="http://www.w3.org/2000/svg">
<g clip-path="url(#clip0_38_3551)">
<path d="M434.998 620.101C460.108 596.857 464.692 610.833 466 655.295V871.404C463.824 879.842 462.054 883.839 449.115 878.002C444.654 892.623 440.45 899.525 409.809 894.224C387.411 893.573 386.301 888.476 387.665 878.002C359.906 889.753 347.432 893.807 344.206 885.426C316.346 883.44 295.54 886.112 291.89 866.455C270.239 862.735 262.531 859.643 271.961 848.858C264.701 841.368 266.219 838.269 288.015 826.862C277.257 821.741 274.767 816.087 280.818 804.866C283.487 797.382 289.066 794.709 307.391 793.044C297.987 773.068 299.038 760.594 315.419 746.028C337.078 716.572 353.15 712.537 384.066 712.484C366.677 700.649 366.474 692.789 384.066 676.466C372.301 666.475 374.822 659.891 409.809 644.847C405.84 628.528 410.815 622.861 434.998 620.101Z" fill="#014C58"/>
<path d="M396.646 610.903C408.31 564.995 446.857 582.39 451.331 602.256C453.056 577.978 459.523 577.732 472.756 581.421C477.503 584.235 479.206 588.537 480.89 600.028C483.693 620.491 480.391 625.822 475.711 636.854C469.347 617.522 465.127 612.906 456.223 617.872C466.924 621.714 470.292 627.972 473.091 644.138C469.985 654.2 466.247 659.453 454.275 667.78C461.098 658.572 463.646 653.844 459.939 648.203C451.017 634.403 447.707 631.639 446.643 640.935C456.529 651.681 455.154 659.674 447.816 675.322C445.687 677.887 443.768 680.112 441.845 682.064C439.018 664.991 436.994 658.287 430.627 664.361C435.561 671.042 436.201 676.388 433.625 688.576C430.291 690.514 426.357 692.072 421.185 693.453C418.136 689.426 409.318 684.103 407.318 674.556C425.596 656.451 429.466 653.589 425.017 654.183C420.567 654.778 410.974 659.532 401.376 669.073L401.347 668.996C399.685 664.613 398.745 662.132 406.575 653.468C439.491 627.595 438.651 626.021 428.664 629.614C414.932 637.192 402.366 642.392 396.677 649.104C396.677 649.104 394.542 646.565 395.484 641.534C395.317 637.38 411.366 625.46 430.062 616.634C415.537 617.873 407.661 615.642 391.839 631.069C387.388 628.173 388.074 624.727 395.164 615.435C405.815 607.776 412.463 604.956 425.772 603.075C414.115 599.686 407.673 599.3 396.646 610.903Z" fill="#2FB5A6"/>
<path d="M422.604 687.554C424.893 664.919 431.906 646.23 446.479 608.933C447.811 605.442 448.865 604.72 450.97 604.333C437.449 637.669 430.611 654.055 422.604 687.554Z" fill="#D4B131"/>
<path d="M445.949 873.14C453.275 742.883 443.336 739.135 422.622 722.743C435.361 722.309 464.593 745.663 452.868 873.091L445.949 873.14Z" fill="#6CB236"/>
<path d="M463.085 704.939C440.794 697.26 433.213 702.755 422.123 717.404C426.018 707.241 426.695 702.067 418.491 696.114C411.409 690.39 406.553 691.55 397.743 694.359C387.843 696.121 387.239 697.409 384.211 699.589C403.487 698.688 403.595 701.009 403.786 705.089L403.79 705.195C398.103 701.755 391.342 700.928 372.502 701.586C362.174 706.168 360.652 709.922 357.963 716.551L357.913 716.673C395.321 707.478 395.149 709.733 396.394 713.212C385.513 713.208 376.813 714.588 355.412 720.204C349.092 726.786 349.138 730.331 350.178 736.616C385.17 716.784 392.586 715.894 394.541 723.753C376.028 725 365.728 730.41 347.425 744.023C345.734 750.118 345.971 752.868 347.475 757.16C382.103 728.893 387.161 728.144 388.577 734.812C367.727 742.129 358.847 748.865 349.079 766.563C348.728 771.375 350.111 772.746 352.722 775.071C358.651 763.131 363.079 759.165 372.412 755.645L372.303 755.744C363.154 763.979 357.992 768.627 355.313 779.559C356.118 783.836 356.599 786.207 359.107 788.953C363.705 789.901 366.165 789.942 370.111 788.171C380.358 780.726 379.782 774.123 383.156 764.037C383.912 774.216 386.08 779.551 374.831 792.296C377.586 794.651 381.401 794.79 386.462 793.05C397.528 777.651 389.363 746.911 396.814 745.64C404.525 750.167 397.285 773.864 388.271 794.02C394.005 794.819 397.197 794.477 402.819 791.538C415.413 773.323 404.509 738.302 408.966 735.533C413.423 732.764 420.978 748.788 413.33 785.728C420.746 781.74 425.636 779.052 431.415 771.871C437.577 747.781 427.473 739.131 422.108 729.092C416.744 719.052 448.974 736.741 449.52 763.487C455.903 756.8 458.975 752.427 460.198 739.391C456.924 729.617 450.007 727.203 434.797 719.989C444.927 715.157 452.612 716.683 462.635 734.411C465.119 730.588 466.781 729.821 467.631 717.674C465.279 712.934 461.547 711.377 449.35 711.116C452.525 708.454 454.404 707.05 466.753 712.529C467.873 710.979 468.135 709.909 463.085 704.939Z" fill="#27844C"/>
<path d="M363.918 779.35C383.4 748.119 397.13 731.266 421.499 717.675L419.533 722.21C402.198 730.827 389.114 746.2 363.918 779.35Z" fill="#6CB236"/>
<mask id="mask0_38_3551" style="mask-type:alpha" maskUnits="userSpaceOnUse" x="220" y="768" width="112" height="84">
<path d="M233.994 851.761C238.612 851.084 253.857 848.39 268.168 846.753L308.23 840.882C308.23 840.882 316.043 824.987 321.722 821.897C327.402 818.807 330.309 810.197 331.003 797.51C331.003 797.51 325.331 799.846 321.369 801.781C317.407 803.716 310.096 808.55 310.096 808.55C310.096 808.55 318.273 802.385 319.842 795.383C321.41 788.38 323.104 773.382 323.104 773.382C323.104 773.382 316.506 780.67 306.598 784.681C296.69 788.691 292.826 799.342 292.826 799.342C292.826 799.342 291.891 788.943 289.253 783.009C286.614 777.074 281.235 768.531 281.235 768.531C281.235 768.531 272.952 785.247 274.485 795.708C276.019 806.169 281.354 816.826 281.354 816.826C281.354 816.826 272.635 805.612 268.134 801.455C263.633 797.299 257.11 797.05 251.741 799.041C246.372 801.032 239.215 799.673 239.215 799.673C239.215 799.673 243.845 807.122 246.924 810.433C250.004 813.744 259.267 819.009 262.145 821.748C265.023 824.487 275.025 838.824 275.025 838.824C275.025 838.824 262.879 826.758 256.472 826.493C250.065 826.228 239.528 830.782 232.606 838.268C225.684 845.754 220.494 850.579 220.494 850.579C220.494 850.579 229.376 852.438 233.994 851.761Z" fill="#D9D9D9"/>
</mask>
<g mask="url(#mask0_38_3551)">
<path d="M233.994 851.761C238.612 851.084 253.857 848.39 268.168 846.753L308.23 840.882C308.23 840.882 316.043 824.987 321.722 821.897C327.402 818.807 330.309 810.197 331.003 797.51C331.003 797.51 325.331 799.846 321.369 801.781C317.407 803.716 310.096 808.55 310.096 808.55C310.096 808.55 318.273 802.385 319.842 795.383C321.41 788.38 323.104 773.382 323.104 773.382C323.104 773.382 316.506 780.67 306.598 784.681C296.69 788.691 292.826 799.342 292.826 799.342C292.826 799.342 291.891 788.943 289.253 783.009C286.614 777.074 281.235 768.531 281.235 768.531C281.235 768.531 272.952 785.247 274.485 795.708C276.019 806.169 281.354 816.826 281.354 816.826C281.354 816.826 272.635 805.612 268.134 801.455C263.633 797.299 257.11 797.05 251.741 799.041C246.372 801.032 239.215 799.673 239.215 799.673C239.215 799.673 243.845 807.122 246.924 810.433C250.004 813.744 259.267 819.009 262.145 821.748C265.023 824.487 275.025 838.824 275.025 838.824C275.025 838.824 262.879 826.758 256.472 826.493C250.065 826.228 239.528 830.782 232.606 838.268C225.684 845.754 220.494 850.579 220.494 850.579C220.494 850.579 229.376 852.438 233.994 851.761Z" fill="#E0939E"/>
<path d="M310.547 818.869C313.595 811.944 316.981 807.827 323.18 800.462C350.285 783.742 333.62 817.443 329.421 843.044L222.165 858.762L220.243 845.648C230.688 837.725 237.978 834.943 252.956 832.276C246.403 835.904 244.308 838.166 242.179 842.434C263.239 827.608 270.842 835.223 286.704 846.896C280.801 832.81 277.283 825.431 267.643 820.641C272.575 821.336 275.528 822.554 281.321 827.065C274.767 813.728 267.986 798.714 254.698 803.123C259.911 803.853 261.178 808.177 263.497 813.272C257.749 807.041 249.357 802.974 239.489 799.934C253.134 794.447 260.989 795.226 275.219 800.718C280.78 812.734 284.033 818.111 290.154 824.567C284.559 808.08 283.252 809.878 282.076 795.198C284.888 805.022 286.854 810.732 291.728 821.627C291.229 796.211 288.922 784.62 281.35 768.514L298.595 787.208C294.118 801.062 293.98 809.806 298.84 827.508C304.563 803.792 315.589 803.379 317.636 789.986C314.084 793.795 311.714 794.883 307.2 796.031C315.16 789.59 317.546 783.058 323.414 772.283C322.619 804.009 317.747 802.011 310.096 808.55C306.214 813.616 301.659 823.721 297.225 843.849L303.575 842.918C308.066 830.421 309.701 822.924 319.02 813.112C316.46 813.289 314.588 814.604 310.547 818.869Z" fill="#C56593"/>
</g>
<path d="M17.6638 677.079C-9.60194 662.257 -14.5792 671.169 -16 699.519V837.317C-13.6373 842.697 -11.715 845.246 2.33475 841.524C7.17867 850.847 11.7434 855.247 45.0157 851.868C69.3364 851.452 70.5416 848.202 69.0613 841.524C99.2026 849.017 112.748 851.601 116.251 846.258C146.503 844.991 169.096 846.695 173.058 834.161C196.569 831.789 204.939 829.818 194.699 822.941C202.583 818.165 200.934 816.189 177.266 808.916C188.948 805.65 191.652 802.045 185.081 794.89C182.183 790.118 176.125 788.414 156.226 787.352C166.438 774.615 165.298 766.661 147.51 757.373C123.991 738.591 106.539 736.018 72.9687 735.985C91.8508 728.438 92.0712 723.426 72.9687 713.018C85.7442 706.648 83.0065 702.45 45.0157 692.857C49.3247 682.452 43.9228 678.838 17.6638 677.079Z" fill="#014C58"/>
<mask id="mask1_38_3551" style="mask-type:alpha" maskUnits="userSpaceOnUse" x="7" y="767" width="127" height="78">
<path d="M6.99976 814.947L131.73 844.438C139.154 813.039 120.071 776.953 114.566 778.675C109.06 780.397 106.747 790.181 106.747 790.181L103.3 776.011C90.5477 768.852 71.7401 763.945 54.5744 771.858L52.2028 781.889C52.2028 781.889 49.0243 773.77 45.0938 774.222C41.1632 774.674 19.995 797.141 6.99976 814.947Z" fill="#27844C"/>
</mask>
<g mask="url(#mask1_38_3551)">
<path d="M6.99976 814.947L131.73 844.438C139.154 813.039 120.071 776.953 114.566 778.675C109.06 780.397 106.747 790.181 106.747 790.181L103.3 776.011C90.5477 768.852 71.7401 763.945 54.5744 771.858L52.2028 781.889C52.2028 781.889 49.0243 773.77 45.0938 774.222C41.1632 774.674 19.995 797.141 6.99976 814.947Z" fill="#185E8B"/>
<rect width="2.44536" height="50.4755" transform="matrix(0.978156 -0.207873 0.149813 0.988714 30.4971 776.659)" fill="#2FB5A6"/>
<rect width="2.412" height="72.6518" transform="matrix(0.978203 0.207652 -0.210997 0.977487 79.3765 760.395)" fill="#2FB5A6"/>
<rect width="2.4139" height="72.603" transform="matrix(0.943491 0.331397 -0.31662 0.948552 97.938 763.873)" fill="#2FB5A6"/>
<rect width="2.45949" height="71.4115" transform="matrix(0.721762 0.692141 -0.641846 0.766833 143.056 788.288)" fill="#2FB5A6"/>
</g>
<g filter="url(#filter0_d_38_3551)">
<path d="M393.997 806.832C361.455 806.195 343.91 783.682 310.258 818.186C293.4 814.125 284.048 809.768 266.238 825.51C251.012 813.79 233.722 809.91 229.793 822.278C211.132 821.916 203.325 823.903 199.663 835.919C192.398 823.113 185.06 822.081 168.002 827.713C152.681 824.416 145.643 823.753 149.145 834.827C138.905 829.239 133.215 828.564 123.487 847.625L123.409 847.478C115.747 833.067 111.428 824.941 91.0612 833.572C67.8642 813.051 61.8578 817.87 53.6014 825.805C42.1129 822.964 35.9037 821.332 30.2791 823.218C24.7945 825.058 20.946 822.989 17.3274 829.534L-17 754.596L-21.0166 940.497C-16.88 957.028 -2.43404 947.713 17.2899 937.923C25.6656 945.184 139.323 952.384 147.937 939.402C157.451 951.141 170.547 935.705 189.625 929.542C206.554 939.657 297.702 938.374 310.218 931.849C325.582 937.247 428.176 942.305 433.743 934.22L433.793 788.886C410.048 784.431 401.75 788.94 393.997 806.832Z" fill="#014C58"/>
</g>
<mask id="mask2_38_3551" style="mask-type:alpha" maskUnits="userSpaceOnUse" x="-21" y="619" width="84" height="128">
<path d="M-20.0003 633.323C-20.0003 638.393 -19.5056 655.203 -20.0003 670.842L-20.0003 714.826C-20.0003 714.826 -4.14729 725.727 -1.72081 732.318C0.705665 738.909 9.50225 743.39 23.0293 746.134C23.0293 746.134 21.4116 739.67 19.9557 735.107C18.4998 730.544 14.4557 721.924 14.4557 721.924C14.4557 721.924 19.7939 731.684 27.0734 734.473C34.3528 737.262 50.2058 741.444 50.2058 741.444C50.2058 741.444 43.4117 733.205 40.6617 721.924C37.9116 710.643 27.0734 704.812 27.0734 704.812C27.0734 704.812 38.3969 705.446 45.1911 703.545C51.9852 701.644 62.0146 697.207 62.0146 697.207C62.0146 697.207 45.3528 685.673 33.8675 685.673C22.3822 685.673 10.088 689.729 10.088 689.729C10.088 689.729 23.5145 682.124 28.691 677.941C33.8675 673.758 35.1616 666.786 33.8675 660.702C32.5734 654.618 35.1616 647.139 35.1616 647.139C35.1616 647.139 26.4263 650.942 22.3822 653.731C18.3381 656.519 11.2204 665.646 7.82333 668.307C4.42626 670.969 -12.5591 679.462 -12.5591 679.462C-12.5591 679.462 2.32331 668.307 3.61743 661.463C4.91155 654.618 1.67625 642.576 -5.27965 633.957C-12.2355 625.338 -16.6032 619 -16.6032 619C-16.6032 619 -20.0003 628.253 -20.0003 633.323Z" fill="#D9D9D9"/>
</mask>
<g mask="url(#mask2_38_3551)">
<path d="M-20.0003 633.323C-20.0003 638.393 -19.5056 655.203 -20.0003 670.842L-20.0003 714.826C-20.0003 714.826 -4.14729 725.727 -1.72081 732.318C0.705665 738.909 9.50225 743.39 23.0293 746.134C23.0293 746.134 21.4116 739.67 19.9557 735.107C18.4998 730.544 14.4557 721.924 14.4557 721.924C14.4557 721.924 19.7939 731.684 27.0734 734.473C34.3528 737.262 50.2058 741.444 50.2058 741.444C50.2058 741.444 43.4117 733.205 40.6617 721.924C37.9116 710.643 27.0734 704.812 27.0734 704.812C27.0734 704.812 38.3969 705.446 45.1911 703.545C51.9852 701.644 62.0146 697.207 62.0146 697.207C62.0146 697.207 45.3528 685.673 33.8675 685.673C22.3822 685.673 10.088 689.729 10.088 689.729C10.088 689.729 23.5145 682.124 28.691 677.941C33.8675 673.758 35.1616 666.786 33.8675 660.702C32.5734 654.618 35.1616 647.139 35.1616 647.139C35.1616 647.139 26.4263 650.942 22.3822 653.731C18.3381 656.519 11.2204 665.646 7.82333 668.307C4.42626 670.969 -12.5591 679.462 -12.5591 679.462C-12.5591 679.462 2.32331 668.307 3.61743 661.463C4.91155 654.618 1.67625 642.576 -5.27965 633.957C-12.2355 625.338 -16.6032 619 -16.6032 619C-16.6032 619 -20.0003 628.253 -20.0003 633.323Z" fill="#2FB5A6"/>
<path d="M3.29391 720.783C10.257 725.151 14.1485 729.438 21.0881 737.262C34.7894 769.027 1.19269 745.807 -25.662 737.262L-25.662 619.507L-11.265 619.507C-4.39377 631.981 -2.55214 640.255 -2.04434 656.773C-4.91172 649.158 -7.01338 646.55 -11.265 643.59C1.35273 668.561 -8.02965 675.532 -23.0738 690.743C-7.0042 686.617 1.4805 683.998 8.14686 674.392C6.62393 679.583 4.84934 682.565 -0.911983 688.081C14.4557 683.138 31.6598 678.214 29.0146 663.237C27.4086 668.725 22.5616 669.406 16.7204 671.096C24.3234 665.899 30.0158 657.521 34.8381 647.393C38.5864 662.923 36.5111 671.243 28.3675 685.673C14.5767 689.757 8.28439 692.406 0.382139 697.968C18.9832 694.551 17.2563 692.863 33.2205 693.912C22.2181 695.386 15.7712 696.6 3.29391 700.123C30.6894 703.589 43.5105 702.936 62.0146 697.334L39.2058 712.925C25.0202 705.931 15.6447 704.405 -4.14729 706.841C20.441 716.727 19.1488 728.642 33.2205 732.952C29.6869 728.535 28.8903 725.816 28.3675 720.783C34.0364 730.354 40.681 733.947 51.3382 741.951C17.3642 736.1 20.2792 731.177 14.4557 721.924C9.62272 716.954 -0.520559 710.467 -21.4562 702.531L-21.4562 709.502C-8.73178 716.298 -0.930658 719.236 8.14686 730.797C8.3605 728.018 7.24189 725.799 3.29391 720.783Z" fill="#2C8C4A"/>
</g>
<path d="M-42.4177 749.315C-34.267 766.979 -28.7444 775.407 -16.6578 786.976L-25.0347 796.046C-36.4727 780.062 -39.0821 767.797 -42.4177 749.315Z" fill="#2C8C4A"/>
<path d="M-5.43357 774.182L-13.4503 782.609C-29.0615 752.012 -25.8674 742.817 -22.0131 730.688C-19.3491 750.209 -16.4299 760.204 -5.43357 774.182Z" fill="#2C8C4A"/>
<path d="M-28.0135 800.456L-34.4724 809.419C-51.3295 794.746 -59.6379 777.327 -57.2644 755.012C-49.513 773.882 -45.2365 787.904 -28.0135 800.456Z" fill="#2C8C4A"/>
<path d="M8.33156 759.265L0.840335 764.947C-11.174 750.625 -11.0677 740.458 -4.13396 721.54C-4.2587 739.195 -2.21042 747.855 8.33156 759.265Z" fill="#2C8C4A"/>
<path d="M20.841 747.192L15.0291 751.534C7.32903 744.551 8.22577 735.476 14.495 714.669L14.4876 714.795C13.5515 730.712 13.0243 739.675 20.841 747.192Z" fill="#2C8C4A"/>
<path d="M35.2685 735.011L30.5031 738.842C26.3798 725.018 31.7982 717.938 40.9611 705.267C36.4955 717.944 33.523 725.274 35.2685 735.011Z" fill="#2C8C4A"/>
<path d="M51.8087 724.183L46.2596 727.153C44.6264 714.658 50.3577 711.287 59.7806 704.837C53.4723 711.888 49.3383 715.747 51.8087 724.183Z" fill="#2C8C4A"/>
<path d="M82.8267 718.26C72.2383 721.165 66.3542 723.137 55.221 722.464L49.0051 727.678C60.3038 729.366 71.6846 723.797 82.8267 718.26Z" fill="#2C8C4A"/>
<path d="M79.8928 733.59C63.0224 736.28 53.7087 737.393 38.9632 734.295L33.0199 739.324C51.7696 741.638 61.9622 739.663 79.8928 733.59Z" fill="#2C8C4A"/>
<path d="M61.6054 748.59C46.7668 748.746 35.0054 750.895 23.3578 747.673L15.4188 754.455C28.8838 757.587 53.9729 753.77 61.6054 748.59Z" fill="#2C8C4A"/>
<path d="M56.7338 761.651C28.9431 765.582 18.9212 763.985 5.29916 762.717L-1.59325 768.988C24.1769 769.753 48.5134 767.442 56.7338 761.651Z" fill="#2C8C4A"/>
<path d="M46.1423 773.617C23.3914 779.048 12.1196 779.21 -7.82337 777.994L-14.8811 786.367C19.3453 787.653 39.2696 782.263 46.1423 773.617Z" fill="#2C8C4A"/>
<path d="M33.4773 788.982C8.46221 794.387 -2.94147 794.834 -20.0844 792.487L-27.3271 800.588C-5.78104 804.618 9.12031 797.255 33.4773 788.982Z" fill="#2C8C4A"/>
<path d="M16.7236 807.121C1.05205 810.141 -14.7987 809.868 -29.741 807.004L-34.1506 815.173C-18.1569 819.046 -0.00245926 814.446 16.7236 807.121Z" fill="#2C8C4A"/>
<path d="M58.5358 720.015C64.3892 714.201 68.6201 711.783 76.7116 708.077C70.3733 714.941 66.2453 717.128 58.5358 720.015Z" fill="#2C8C4A"/>
<path d="M63.3107 717.371C28.0521 736.479 8.44553 746.703 -43.8184 817.355L-37.884 822.285C-15.7205 783.405 9.37643 755.668 63.3107 717.371Z" fill="#6CB236"/>
<path d="M453.664 164.803C465.755 163.794 472.43 163.097 480.274 156.652C491.225 160.911 495.21 158.98 500.743 152.383V45.8437C499.343 35.0797 496.171 31.3923 485.96 29.3486C470.528 26.8713 461.953 25.823 449.57 37.111C441 29.9813 435.105 26.9801 416.136 29.3486C404.781 26.0655 404.899 22.2206 389.299 33.8124C389.635 30.7921 382.437 30.0718 379.291 29.3486C366.734 29.17 370.776 29.0306 370.649 37.111C359.171 38.7925 355.882 40.6418 362.688 45.8437C362.961 49.6674 363.486 50.6341 370.649 52.0541L370.417 52.0653C360.972 52.5262 350.349 53.0445 353.136 61.563C346.809 64.6438 355.183 67.5789 357.912 68.9373C347.15 71.9465 350.482 73.6045 355.41 77.8641C350.676 81.5987 360.632 85.2569 377.244 89.5077C360.274 90.1171 349.381 89.3025 353.136 93.1944C346.049 97.5892 335.355 99.4738 343.584 103.868C329.728 104.087 319.213 107.069 320.385 115.706C319.851 120.182 340.76 128.426 379.291 127.155L379.178 127.293C374.083 133.487 371.192 137.002 383.385 140.739C381.891 146.386 383.659 147.949 392.938 146.949C387.908 152.29 391.328 154.231 403.627 156.652C420.326 162.351 427.865 167.159 453.664 164.803Z" fill="#2C8C4A"/>
<path d="M393.028 168.469C401.917 168.813 406.588 169.285 407.497 176.789C418.37 176.283 418.809 177.094 414.419 179.541C423.84 181.571 424.979 184.218 422.753 190.494C428.447 197.124 424.726 198.239 413.904 198.651C406.061 203.774 401.742 206.38 396.797 201.688C389.159 203.015 386.061 201.613 381.277 197.772C384.371 203.202 379.23 203.808 367.351 203.926C347.69 202.576 334.626 202.106 343.522 196.754C329.74 192.053 325.372 189.379 335.226 184.402C336.774 178.259 338.145 175.149 349.001 175.212C359.147 172.978 361.617 174.539 365.012 178.209C367.554 173.115 367.733 169.124 378.031 171.097C383.109 165.924 386.552 166.196 393.028 168.469Z" fill="#2C8C4A"/>
<path d="M498.501 107.61C523.36 106.739 530.824 105.297 521.51 99.387C523.614 95.3219 527.113 94.2807 516.825 95.5053C526.155 93.5316 526.674 92.1907 519.527 83.6983C515.066 79.3181 512.527 80.3886 507.967 85.16C508.519 81.4671 506.725 81.4691 501.838 83.1384C507.006 79.7609 508.259 77.8629 497.662 74.4383C491.761 72.7277 489.51 75.9078 485.352 81.0283C489.795 73.2393 491.353 69.081 481.853 64.4126C478.258 58.6752 476.124 55.6272 464.197 61.8913C460.709 54.3579 458.597 51.7586 453.969 56.1935C450.426 50.3442 447.408 50.2696 437.6 63.856C436.029 58.9019 433.002 59.2589 423.562 65.6309C418.956 62.5479 415.99 62.7761 409.152 71.0883C398.42 64.6578 391.601 59.3882 388.053 67.8836C376.557 70.6352 371.245 72.3708 375.61 77.8461L375.384 78.0304C369.262 83.014 365.759 85.8657 384.33 87.0904C379.176 90.2083 383.093 93.9079 401.872 90.5786C392.776 97.2932 402.572 103.634 409.152 103.634C398.198 107.766 404.204 109.696 413.063 112.26C414.695 114.359 401.366 118.089 423.562 118.089C418.867 123.249 426.794 119.681 435.145 120.092C444.172 123.956 443.122 126.253 457.825 121.819C448.394 127.521 479.757 129.746 485.352 121.819C515.41 120.092 536.473 115.234 520.769 110.635C523.575 108.791 507.232 109.204 498.501 107.61Z" fill="#016751"/>
<path d="M445.49 148.63C442.926 155.391 460.758 168.796 468.104 183.134C469.627 186.106 468.997 189.484 470.902 192.226C472.849 195.029 471.551 193.065 474.166 195.257C479.44 199.678 489.786 203.417 489.786 203.417V229.062C489.786 229.062 481.041 219.999 474.166 216.006C469.937 213.55 467.493 212.036 462.742 210.877C456.551 209.367 452.773 211.421 446.423 210.877C438.097 210.165 437.899 211.562 429.87 209.245C423.45 207.393 420.403 204.33 413.784 203.417C409.455 202.82 402.493 201.447 398.164 200.852C390.274 199.769 387.176 194.187 379.28 193.159C374.674 192.559 377.862 192.199 373.218 192.226C371.215 192.238 364.255 193.205 362.261 193.392C359.183 193.68 354.567 195.257 354.567 195.257L350.138 193.392L355.966 193.159L361.561 190.361L351.769 184.066L354.567 181.269C354.567 181.269 357.428 183.982 359.463 185.465C363.05 188.081 366.224 190.827 369.488 190.827C372.752 190.827 373.808 188.102 375.549 185.465L378.114 181.269L380.212 185.465L378.114 188.962C378.114 190.361 388.389 193.596 395.366 195.257C401.266 196.661 409.587 199.453 410.753 197.355C411.919 195.257 398.164 186.631 398.164 186.631C398.164 186.631 400.665 185.325 402.36 185.465C404.776 185.665 405.567 187.485 407.489 188.962C411.879 192.336 412.799 196.085 417.514 198.987C423.89 202.911 428.687 203.769 436.165 203.417C442.411 203.122 447.068 203.346 451.552 198.987C454.183 196.429 455.551 194.437 456.215 190.827C457.208 185.418 459.826 186.304 457.613 181.269C452.238 169.039 438.263 157.489 438.263 153.059C438.263 148.63 436.815 143.759 436.165 139.771C435.49 135.636 432.901 134.175 428.938 131.844C424.974 129.513 409.354 126.016 409.354 126.016C409.354 126.016 414.334 125.81 417.514 126.016C424.285 126.454 432.901 130.911 434.533 129.513C436.165 128.114 427.072 119.021 427.072 119.021C427.072 119.021 426.427 116.026 422.643 116.69C409.354 119.021 377.516 134.818 366.69 132.776C361.265 131.753 358.281 130.7 353.13 128.882L352.935 128.813C347.625 126.939 339.646 123.218 339.646 123.218L350.138 121.586C350.138 121.586 354.861 125.537 358.297 127.414C372.04 134.923 421.011 111.328 421.011 111.328C421.011 111.328 412.423 108.453 407.489 105.5C402.267 102.374 395.366 95.7078 395.366 95.7078L394.2 90.3457L399.329 93.6096C399.329 93.6096 404.134 97.8145 407.489 100.137C416.199 106.168 431.036 114.592 432.201 111.328C433.367 108.064 434.533 97.8061 434.533 97.8061L437.797 100.137C437.797 100.137 434.074 110.117 434.533 116.69C435.163 125.711 444.325 137.672 444.325 137.672C456.773 131.326 459.983 127.851 465.635 121.736L465.773 121.586C465.773 121.586 466.239 125.549 465.773 128.114C465.307 130.678 448.055 141.869 445.49 148.63Z" fill="#5B0F3E"/>
<path d="M375.127 183.109C391.179 180.516 395.596 179.021 388.067 176.201C392.911 172.997 393.292 171.359 384.898 169.026C387.18 166.042 386.884 164.968 380.409 165.306C377.475 162.838 375.862 164.118 373.014 169.026L373.032 168.945C374.481 162.251 375.299 158.473 358.753 158.132C355.054 155.132 353.079 154.46 350.038 158.132C346.434 159.692 346.194 161.359 347.926 165.306C342.851 162.284 341.302 163.861 338.947 167.698C333.064 174.004 335.53 174.619 343.172 174.075C331.422 180.724 334.886 181.7 350.038 180.984C344.573 183.709 341.785 185.219 362.451 186.298C368.742 188.537 372.468 190.307 375.127 183.109Z" fill="#6CB236"/>
<path d="M388.227 94.758C388.227 94.758 396.042 99.093 389.41 102.596C391.03 105.067 390.981 105.403 383.479 104.588C390.302 105.849 390.709 106.663 385.709 111.742C382.567 114.356 380.699 113.69 377.278 110.774C377.763 113.009 376.459 112.995 372.872 111.951C376.702 114.029 377.655 115.185 370.035 117.177C365.787 118.167 364.079 116.229 360.943 113.105C364.346 117.844 365.572 120.368 358.777 123.119C356.295 126.559 354.814 128.385 346.007 124.513C343.644 129.04 342.168 130.595 338.706 127.881C336.264 131.39 334.074 131.413 326.641 123.132C325.612 126.114 323.405 125.876 316.404 121.957C313.127 123.786 310.967 123.627 305.812 118.554C298.161 122.361 293.327 125.495 290.557 120.336C282.143 118.59 278.245 117.502 281.293 114.226L281.124 114.113C276.564 111.057 273.954 109.309 287.418 108.704C283.603 106.783 286.365 104.576 300.083 106.725C293.323 102.601 300.296 98.8416 305.076 98.8897C297.025 96.3134 301.344 95.1911 307.722 93.7063C308.86 92.4504 299.093 90.0992 315.217 90.2614C311.69 87.1091 317.529 89.3227 323.586 89.1358C330.057 86.8667 326.633 83.3758 337.415 86.1622C330.435 82.648 360.989 73.0295 365.233 77.8597C383.837 73.4935 402.519 82.2121 391.214 84.8758C393.294 86.0107 394.533 93.8584 388.227 94.758Z" fill="#6CB236"/>
<path d="M16.4209 141.015C5.44384 140.099 -0.616982 139.467 -7.73773 133.615C-17.68 137.482 -21.2981 135.729 -26.3213 129.739V33.0155C-25.0502 23.2432 -22.1707 19.8955 -12.8998 18.0401C1.10976 15.791 8.8954 14.8393 20.1376 25.0873C27.9182 18.6145 33.2698 15.8898 50.4907 18.0401C60.8002 15.0595 60.6925 11.5688 74.8558 22.0927C74.5502 19.3506 81.0854 18.6966 83.9411 18.0401C95.3418 17.8779 91.6717 17.7514 91.7875 25.0873C102.208 26.6139 105.194 28.2929 99.0145 33.0155C98.7666 36.4869 98.2908 37.3646 91.7875 38.6537L91.9976 38.6639C100.572 39.0823 110.217 39.5529 107.687 47.2866C113.431 50.0836 105.828 52.7482 103.351 53.9815C113.121 56.7135 110.097 58.2187 105.622 62.0858C109.92 65.4764 100.882 68.7975 85.7995 72.6568C101.206 73.21 111.096 72.4704 107.687 76.0038C114.121 79.9937 123.829 81.7046 116.359 85.6941C128.938 85.8929 138.485 88.6005 137.42 96.4412C137.906 100.505 118.923 107.989 83.9411 106.836L84.0442 106.961C88.6698 112.584 91.2947 115.775 80.2244 119.168C81.5815 124.295 79.9763 125.714 71.5521 124.806C76.1183 129.655 73.0134 131.417 61.8474 133.615C46.6872 138.789 39.8426 143.154 16.4209 141.015Z" fill="#2C8C4A"/>
<path d="M71.4701 144.344C63.4004 144.656 59.1596 145.084 58.3344 151.897C48.4626 151.438 48.0643 152.173 52.0498 154.395C43.4968 156.239 42.4625 158.642 44.4837 164.339C39.3142 170.358 42.6929 171.37 52.5175 171.745C59.6383 176.396 63.5592 178.762 68.0485 174.502C74.9829 175.707 77.7952 174.434 82.1388 170.946C79.3297 175.876 83.9969 176.427 94.7818 176.534C112.631 175.308 124.492 174.881 116.415 170.022C128.928 165.754 132.893 163.327 123.947 158.809C122.541 153.231 121.297 150.408 111.441 150.465C102.23 148.437 99.9869 149.854 96.9048 153.186C94.5974 148.561 94.4351 144.938 85.0854 146.729C80.4757 142.033 77.3501 142.28 71.4701 144.344Z" fill="#2C8C4A"/>
<path d="M-8.21885 119.993C-30.7876 119.203 -37.564 117.894 -29.1084 112.528C-31.0186 108.837 -34.1949 107.892 -24.8547 109.004C-33.3256 107.212 -33.7965 105.995 -27.3075 98.2847C-23.2579 94.3081 -20.9526 95.28 -16.8124 99.6117C-17.3144 96.2591 -15.6851 96.2609 -11.2489 97.7764C-15.9406 94.71 -17.078 92.9869 -7.45758 89.8778C-2.10022 88.3249 -0.0558967 91.212 3.7182 95.8607C-0.314632 88.7893 -1.72946 85.0141 6.89494 80.7758C10.1587 75.567 12.0962 72.7998 22.9248 78.4868C26.0917 71.6474 28.0087 69.2876 32.2107 73.3139C35.427 68.0035 38.1669 67.9358 47.0715 80.2705C48.4977 75.7728 51.2459 76.0969 59.8155 81.8819C63.9975 79.0829 66.6905 79.29 72.8984 86.8365C82.642 80.9984 88.832 76.2143 92.0532 83.927C102.49 86.4252 107.313 88.0009 103.35 92.9717C109.032 97.5998 112.5 100.239 95.4337 101.364C100.113 104.195 96.5568 107.554 79.5073 104.531C87.7658 110.627 78.8723 116.384 72.8984 116.384C82.8432 120.135 77.3907 121.887 69.3477 124.215C67.8661 126.12 79.9669 129.507 59.8155 129.507C64.0781 134.192 56.8813 130.953 49.3001 131.325C41.1047 134.834 42.0583 136.919 28.7095 132.893C37.2716 138.07 8.79798 140.09 3.7182 132.893C-23.5699 131.325 -42.6926 126.915 -28.4352 122.74C-30.9828 121.066 -16.1452 121.441 -8.21885 119.993Z" fill="#016751"/>
<path d="M23.8414 126.332C26.1696 132.47 9.98061 144.64 3.3106 157.657C1.92823 160.355 2.50049 163.422 0.770714 165.912C-0.997219 168.456 0.181868 166.673 -2.19249 168.663C-6.98075 172.677 -16.3735 176.071 -16.3735 176.071V199.354C-16.3735 199.354 -8.43369 191.126 -2.19249 187.501C1.64654 185.271 3.86542 183.896 8.17872 182.844C13.8 181.474 17.2298 183.338 22.9947 182.844C30.5536 182.198 30.7332 183.466 38.0224 181.363C43.8509 179.681 46.6175 176.9 52.6268 176.071C56.5571 175.529 62.8771 174.283 66.8078 173.743C73.9702 172.76 76.783 167.692 83.9521 166.758C88.1331 166.214 85.2389 165.887 89.4552 165.912C91.2736 165.923 97.5925 166.8 99.4031 166.97C102.198 167.232 106.388 168.663 106.388 168.663L110.409 166.97L105.118 166.758L100.038 164.218L108.928 158.504L106.388 155.964C106.388 155.964 103.79 158.427 101.943 159.774C98.6861 162.149 95.8049 164.642 92.8417 164.642C89.8785 164.642 88.9199 162.168 87.3386 159.774L85.0104 155.964L83.1054 159.774L85.0104 162.949C85.0104 164.218 75.6818 167.156 69.3477 168.663C63.9915 169.938 56.4366 172.473 55.3783 170.568C54.32 168.663 66.8078 160.832 66.8078 160.832C66.8078 160.832 64.5369 159.646 62.998 159.774C60.8046 159.955 60.0866 161.607 58.3415 162.949C54.3561 166.012 53.521 169.415 49.2403 172.05C43.452 175.612 39.0966 176.391 32.3077 176.071C26.637 175.804 22.4088 176.007 18.3383 172.05C15.9491 169.727 14.7072 167.919 14.1051 164.642C13.2029 159.731 10.8261 160.535 12.8352 155.964C17.7154 144.861 30.4028 134.375 30.4028 130.353C30.4028 126.332 31.7171 121.91 32.3077 118.289C32.9199 114.535 35.2709 113.209 38.869 111.092C42.4672 108.976 56.6483 105.801 56.6483 105.801C56.6483 105.801 52.1272 105.614 49.2403 105.801C43.0931 106.199 35.2709 110.246 33.7893 108.976C32.3077 107.706 40.5623 99.4513 40.5623 99.4513C40.5623 99.4513 41.1504 97.951 44.5838 97.3348C54.4281 95.568 65.0225 99.188 74.8508 97.3348C79.7764 96.406 82.4853 95.4498 87.1619 93.799L87.3386 93.7366C92.1592 92.0351 99.4031 88.6568 99.4031 88.6568L89.8785 87.1752C89.8785 87.1752 85.5904 90.762 82.4705 92.4666C69.9942 99.2834 46.0654 92.4666 46.0654 92.4666C46.0654 92.4666 53.862 89.8562 58.3415 87.1752C63.0824 84.3379 69.3477 78.2856 69.3477 78.2856L70.406 73.4175L65.7495 76.3807C65.7495 76.3807 61.3876 80.1981 58.3415 82.3071C50.4338 87.7821 36.9641 95.4298 35.9058 92.4666C34.8476 89.5034 33.7893 80.1905 33.7893 80.1905L30.8261 82.3071C30.8261 82.3071 34.2062 91.3676 33.7893 97.3348C33.2171 105.524 24.8997 116.384 24.8997 116.384C13.5985 110.622 10.6837 107.468 5.55297 101.916L5.42718 101.78C5.42718 101.78 5.00386 105.378 5.42718 107.706C5.85049 110.034 21.5131 120.194 23.8414 126.332Z" fill="#5B0F3E"/>
<path d="M-14.2968 107.261C-28.8702 104.906 -32.8799 103.549 -26.045 100.988C-30.4422 98.0798 -30.7884 96.5923 -23.1679 94.4748C-25.2394 91.7654 -24.9708 90.7907 -19.092 91.0975C-16.4289 88.8567 -14.9642 90.0186 -12.3787 94.4748L-12.3947 94.4011C-13.7106 88.3239 -14.4534 84.8935 0.568304 84.584C3.92713 81.8609 5.71984 81.2508 8.48037 84.584C11.7522 86.0001 11.9706 87.514 10.3985 91.0975C15.006 88.3535 16.4118 89.7852 18.5503 93.2686C23.8908 98.9938 21.6519 99.5519 14.7141 99.0584C25.3815 105.095 22.237 105.981 8.48037 105.331C13.4422 107.805 15.9737 109.176 -2.78833 110.155C-8.49998 112.188 -11.8824 113.795 -14.2968 107.261Z" fill="#6CB236"/>
<path d="M-11.1769 56.2576C-11.1769 56.2576 -18.2727 60.1932 -12.2515 63.3733C-13.7225 65.6172 -13.6773 65.922 -6.86691 65.1819C-13.0612 66.3265 -13.4308 67.0655 -8.89117 71.6766C-6.03924 74.0497 -4.34255 73.4456 -1.23696 70.7981C-1.67744 72.8275 -0.493817 72.8145 2.76316 71.8663C-0.714449 73.7534 -1.57968 74.8028 5.33879 76.611C9.19556 77.5102 10.746 75.7509 13.5928 72.9145C10.5032 77.2165 9.39005 79.5079 15.5594 82.0057C17.8126 85.1291 19.1576 86.7869 27.1526 83.2717C29.2986 87.3809 30.6378 88.7927 33.7815 86.3293C35.9978 89.5144 37.9867 89.5353 44.7344 82.0175C45.6688 84.7246 47.6726 84.5087 54.0288 80.9507C57.0036 82.6114 58.9646 82.4665 63.645 77.8615C70.5913 81.3178 74.9799 84.1631 77.4943 79.4795C85.133 77.8938 88.6722 76.9065 85.9052 73.932L86.0582 73.8295C90.1983 71.0551 92.5673 69.4676 80.3444 68.919C83.8078 67.1745 81.3003 65.1711 68.8462 67.1219C74.9835 63.3783 68.653 59.9649 64.3132 60.0086C71.6224 57.6697 67.7011 56.6507 61.9109 55.3027C60.8776 54.1626 69.7449 52.028 55.1058 52.1752C58.3084 49.3133 53.007 51.323 47.508 51.1534C41.6337 49.0933 44.7418 45.924 34.9534 48.4537C41.2905 45.2633 13.5513 36.5309 9.69835 40.9161C-7.19143 36.9521 -24.1522 44.8675 -13.8892 47.2858C-15.7778 48.3161 -16.9023 55.4408 -11.1769 56.2576Z" fill="#6CB236"/>
</g>
<defs>
<filter id="filter0_d_38_3551" x="-25.0166" y="754.596" width="462.81" height="202.957" filterUnits="userSpaceOnUse" color-interpolation-filters="sRGB">
<feFlood flood-opacity="0" result="BackgroundImageFix"/>
<feColorMatrix in="SourceAlpha" type="matrix" values="0 0 0 0 0 0 0 0 0 0 0 0 0 0 0 0 0 0 127 0" result="hardAlpha"/>
<feOffset dy="4"/>
<feGaussianBlur stdDeviation="2"/>
<feComposite in2="hardAlpha" operator="out"/>
<feColorMatrix type="matrix" values="0 0 0 0 0 0 0 0 0 0 0 0 0 0 0 0 0 0 0.25 0"/>
<feBlend mode="normal" in2="BackgroundImageFix" result="effect1_dropShadow_38_3551"/>
<feBlend mode="normal" in="SourceGraphic" in2="effect1_dropShadow_38_3551" result="shape"/>
</filter>
<clipPath id="clip0_38_3551">
<rect width="428" height="926" fill="white"/>
</clipPath>
</defs>
</svg>
