<svg width="428" height="926" viewBox="0 0 428 926" fill="none" xmlns="http://www.w3.org/2000/svg">
<g clip-path="url(#clip0_38_3452)">
<g filter="url(#filter0_i_38_3452)">
<path d="M36.3221 734.952C25.5465 735.557 6.81744 750.831 -1.20012 758.392L-64.8917 770.641H-118V843L-1.20012 933.5H202.767H420.973L532 843V761.719L458.303 758.089L420.973 749.016C397.497 742.816 381.334 720.284 357.666 713.176C353.151 711.82 341.888 710.656 337.654 710.454C330.919 707.178 316.988 699.718 315.141 696.088C312.832 691.552 271.846 677.034 255.875 674.464C239.904 671.893 230.86 674.01 202.767 673.405C180.292 672.921 169.798 678.446 167.361 681.269C165.886 682.68 160.434 687.62 150.428 696.088C140.422 704.557 123.553 710.101 116.369 711.815C114.125 712.017 106.941 712.299 96.1652 711.815C85.3896 711.331 63.197 723.107 53.4476 729.055C52.2289 730.768 47.0977 734.347 36.3221 734.952Z" fill="#505152"/>
</g>
<g style="mix-blend-mode:soft-light" opacity="0.5">
<path d="M264.032 802.098C265.058 804.871 266.242 807.781 266.674 808.51C268.003 809.461 270.485 810.922 276.956 810.438C282.718 810.006 284.842 807.411 286.024 805.966C286.169 805.789 286.3 805.628 286.422 805.491C286.659 804.799 287.17 802.567 287.639 800.198C288.259 800.546 288.868 800.653 289.345 800.39C290.561 799.718 291.541 797.93 290.841 795.64C290.397 794.593 289.831 793.412 289.172 792.497C290.241 789.656 291.909 784.424 291.801 783.335C291.801 783.335 291.759 783.364 291.678 783.418C291.511 782.195 290.594 781.14 289.121 780.307C289.162 780.055 289.202 779.804 289.243 779.553C289.527 777.795 289.809 776.048 290.055 774.274C290.196 774.651 290.345 775.006 290.499 775.329C290.691 775.559 290.895 775.827 291.11 776.108C292.044 777.331 293.175 778.812 294.341 778.577L296.258 778.192C297.579 777.927 298.911 777.207 299.965 776.01C300.9 774.948 301.694 773.654 302.49 772.359C302.793 771.866 303.096 771.372 303.407 770.89C304.481 769.23 304.799 766.759 304.892 764.397C305.246 755.386 301.333 747.08 296.971 741.255C296.836 741.074 296.7 740.892 296.565 740.711L296.563 740.707C295.329 739.05 294.09 737.385 292.629 736.271C291.99 735.784 290.925 735.227 290.045 735.325C289.712 733.985 289.245 732.748 288.578 731.798C287.254 729.91 286.071 728.421 284.553 727.098C284.278 726.859 284.002 726.628 283.725 726.404C283.691 718.961 283.036 709.421 279.075 708.92C275.788 708.505 275.662 716.375 275.708 722.329C272.982 721.715 270.189 721.177 267.489 721.377C266.486 715.586 265.404 710.876 262.274 711.858C258.946 712.903 258.983 718.07 259.905 724.248C258.725 725.21 257.825 726.959 257.033 728.672C256.025 730.851 255.201 732.984 254.824 735.82C254.329 739.534 254.048 743.248 254.403 747.212C254.501 748.303 254.57 749.403 254.64 750.505C254.71 751.612 254.781 752.723 254.88 753.83C254.983 754.976 255.113 756.11 255.243 757.245C255.352 758.188 255.46 759.131 255.553 760.082C254.574 760.157 253.456 760.762 252.724 761.439C252.357 761.778 251.949 762.084 251.534 762.395C250.515 763.158 249.453 763.954 248.852 765.347C248.78 765.514 248.704 765.678 248.628 765.843C248.292 766.57 247.952 767.305 247.953 768.273C247.955 769.445 248.055 770.351 248.243 771.507C248.596 773.678 249.595 774.711 251.097 774.855C252.513 774.99 253.275 774.572 254.491 773.74C255.431 773.095 256.16 772.433 256.892 771.632C257.135 773.148 257.414 774.643 257.737 776.094C257.884 776.751 258.009 777.448 258.135 778.152C258.372 779.479 258.614 780.829 259.014 781.985C259.196 782.513 259.369 783.186 259.519 783.829C258.141 785.057 257.412 786.38 257.541 787.682C257.608 788.36 257.902 788.988 258.394 789.556C259.122 791.21 260.259 793.454 261.225 795.208C260.82 795.994 260.329 796.998 260.365 798.059C260.456 800.697 261.956 802.736 263.557 802.304C263.714 802.262 263.873 802.192 264.032 802.098Z" fill="url(#paint0_linear_38_3452)"/>
</g>
<g filter="url(#filter1_i_38_3452)">
<path d="M255.951 655.045C256.726 653.239 257.648 651.339 258.014 650.855C259.255 650.181 261.601 649.12 268.103 649.06C273.891 649.007 276.242 650.523 277.551 651.366C277.712 651.47 277.857 651.564 277.991 651.643C278.29 652.066 278.998 653.444 279.678 654.91C280.266 654.656 280.864 654.554 281.363 654.693C282.637 655.048 283.775 656.119 283.281 657.601C282.931 658.286 282.472 659.062 281.896 659.676C283.217 661.406 285.348 664.608 285.338 665.301C285.338 665.301 285.294 665.285 285.208 665.255C285.15 666.036 284.33 666.752 282.934 667.36C282.997 667.517 283.06 667.673 283.123 667.829C283.563 668.92 284.001 670.005 284.405 671.109C284.512 670.864 284.629 670.631 284.754 670.419C284.925 670.263 285.105 670.083 285.294 669.894C286.117 669.07 287.113 668.074 288.297 668.156L290.245 668.29C291.587 668.383 292.981 668.762 294.139 669.456C295.167 670.073 296.075 670.843 296.985 671.614C297.331 671.908 297.678 672.202 298.031 672.488C299.251 673.474 299.789 675.013 300.093 676.496C301.252 682.154 298.089 687.608 294.256 691.525C294.137 691.646 294.018 691.768 293.9 691.891L293.897 691.893C292.815 693.007 291.727 694.126 290.368 694.91C289.774 695.253 288.761 695.664 287.874 695.652C287.661 696.515 287.306 697.321 286.725 697.957C285.573 699.221 284.525 700.227 283.128 701.146C282.876 701.312 282.621 701.473 282.364 701.63C282.995 706.322 283.003 710.511 279.096 711.05C275.853 711.497 275.214 708.404 274.728 704.65C272.062 705.19 269.323 705.687 266.611 705.713C266.127 709.418 265.469 712.448 262.257 712.005C258.843 711.535 258.418 708.277 258.786 704.332C257.522 703.792 256.469 702.741 255.525 701.706C254.325 700.39 253.312 699.092 252.682 697.327C251.857 695.014 251.244 692.69 251.244 690.172C251.244 689.479 251.215 688.782 251.187 688.084C251.158 687.382 251.129 686.678 251.129 685.975C251.129 685.247 251.158 684.525 251.186 683.803C251.21 683.203 251.234 682.602 251.242 681.998C250.258 682.006 249.088 681.687 248.297 681.302C247.902 681.109 247.467 680.94 247.024 680.767C245.94 680.344 244.809 679.902 244.085 679.058C243.998 678.957 243.908 678.858 243.817 678.758C243.417 678.319 243.012 677.875 242.927 677.265C242.823 676.526 242.842 675.95 242.927 675.211C243.085 673.823 243.99 673.116 245.475 672.941C246.876 672.775 247.675 672.995 248.962 673.452C249.958 673.805 250.745 674.181 251.547 674.644C251.654 673.675 251.798 672.718 251.992 671.785C252.079 671.363 252.141 670.916 252.204 670.466C252.323 669.617 252.443 668.752 252.739 668.001C252.874 667.658 252.986 667.224 253.078 666.81C251.594 666.114 250.748 665.322 250.76 664.494C250.766 664.063 251.005 663.651 251.444 663.265C252.023 662.182 252.957 660.704 253.764 659.544C253.291 659.072 252.71 658.467 252.652 657.796C252.507 656.129 253.822 654.76 255.458 654.941C255.619 654.959 255.784 654.994 255.951 655.045Z" fill="#002F4D"/>
</g>
<g style="mix-blend-mode:soft-light" opacity="0.5">
<path d="M160.437 816.487C160.251 815.127 160.327 811.465 160.388 809.425C157.795 810.752 154.812 811.507 151.639 811.507C148.465 811.507 145.481 810.751 142.887 809.425C142.95 811.464 143.028 815.127 142.838 816.487C142.568 818.415 142.03 821.307 140.548 820.729C139.824 820.446 139.807 818.877 139.791 817.39C139.774 815.831 139.758 814.362 138.931 814.56C137.924 814.8 137.073 818.185 136.347 821.075C135.908 822.823 135.514 824.389 135.159 824.97C134.216 826.512 131.093 823.583 132.33 820.729C132.723 819.821 133.667 817.99 134.747 815.895C135.265 814.889 135.815 813.823 136.349 812.769C135.942 812.931 135.493 813.002 134.997 812.953C132.785 812.731 131.494 813.431 130.524 813.956C129.862 814.314 129.349 814.592 128.796 814.441C127.432 814.069 126.564 811.713 127.432 806.876C128.109 803.105 133.007 801.973 135.133 801.657C134.105 799.555 133.533 797.221 133.533 794.765C133.533 789.548 136.112 784.889 140.157 781.819C139.944 781.212 139.743 780.594 139.552 779.967C131.572 774.822 127.588 771.157 122.983 762.834L123.018 762.815C121.552 761.695 120.328 757.61 120.738 757.27C121.166 756.916 122.69 757.074 123.955 757.415C124.029 756.421 124.166 755.584 124.891 755.415C125.616 755.247 129.488 759.314 129.488 759.314L129.455 759.353C130.837 761.37 132.181 763.085 133.463 764.722C134.791 766.417 136.053 768.028 137.223 769.802C137.126 769.284 137.031 768.771 136.937 768.264L136.937 768.263C136.227 764.424 135.585 760.952 134.667 758.558C133.055 754.359 136.72 749.671 140.513 747.5C139.876 744.804 140.696 740.345 141.744 734.638C141.965 733.437 141.885 732.819 142.172 731.098C142.459 729.377 144.097 724.13 144.697 724.215C145.334 724.305 146.421 724.641 147.109 725.647C147.891 724.929 148.617 724.389 149.386 724.881C150.154 725.373 150.453 731.977 150.453 731.977C150.376 732.001 150.529 731.954 150.453 731.977C150.32 738.03 150.31 741.931 150.439 747.209C151.113 747.228 151.515 747.267 151.515 747.267C151.515 747.267 152.298 747.218 153.894 747.267C153.877 746.015 153.926 746.03 153.894 744.58C153.819 744.557 153.972 743.136 153.894 743.112C153.894 743.112 154.329 713.901 155.098 713.408C155.866 712.916 156.593 713.456 157.375 714.174C158.062 713.169 159.15 712.832 159.786 712.742C160.387 712.657 163.112 727.943 163.578 730.204C164.045 732.465 164.039 732.766 164.259 733.966C164.403 734.749 164.543 735.509 164.675 736.244C168.083 738.604 169.587 754.723 168.115 758.558C167.196 760.952 166.554 764.424 165.844 768.263C165.338 771.001 164.797 773.927 164.096 776.781C169.357 777.761 172.363 779.065 175.549 782.21L175.515 782.229C176.812 782.526 177.667 784.574 177.257 784.865C176.83 785.168 175.409 785.435 174.244 785.537C174.103 786.123 173.913 786.634 173.219 786.901C172.526 787.167 169.18 785.751 169.18 785.751L169.214 785.721C168.061 784.891 166.922 784.226 165.834 783.591C165.13 783.18 164.448 782.781 163.798 782.359C167.451 785.422 169.745 789.846 169.745 794.765C169.745 797.26 169.154 799.628 168.095 801.756C170.425 802.183 174.582 803.424 175.201 806.876C176.069 811.713 175.201 814.069 173.837 814.441C173.284 814.592 172.771 814.314 172.11 813.956C171.139 813.431 169.848 812.731 167.636 812.953C167.363 812.98 167.103 812.97 166.857 812.929C167.354 813.931 167.863 814.94 168.344 815.895C169.399 817.989 170.321 819.821 170.706 820.729C171.914 823.583 168.862 826.512 167.941 824.97C167.594 824.389 167.209 822.823 166.78 821.075C166.07 818.185 165.239 814.8 164.255 814.56C163.446 814.362 163.431 815.831 163.414 817.39C163.398 818.877 163.382 820.446 162.675 820.729C161.227 821.307 160.7 818.415 160.437 816.487Z" fill="url(#paint1_linear_38_3452)"/>
</g>
<g filter="url(#filter2_i_38_3452)">
<path d="M160.437 634.446C160.251 635.806 160.327 639.469 160.388 641.508C157.795 640.182 154.812 639.427 151.639 639.427C148.465 639.427 145.481 640.182 142.887 641.509C142.95 639.47 143.028 635.807 142.838 634.446C142.568 632.518 142.03 629.627 140.548 630.205C139.824 630.487 139.807 632.057 139.791 633.544C139.774 635.103 139.758 636.571 138.931 636.374C137.924 636.134 137.073 632.749 136.347 629.859C135.908 628.111 135.514 626.545 135.159 625.964C134.216 624.421 131.093 627.351 132.33 630.205C132.723 631.112 133.667 632.944 134.747 635.039C135.265 636.044 135.815 637.111 136.349 638.165C135.942 638.003 135.493 637.931 134.997 637.981C132.785 638.202 131.494 637.503 130.524 636.978C129.862 636.619 129.349 636.342 128.796 636.493C127.432 636.865 126.564 639.221 127.432 644.058C128.109 647.829 133.007 648.961 135.133 649.277C134.105 651.379 133.533 653.712 133.533 656.169C133.533 661.385 136.112 666.044 140.157 669.115C139.944 669.722 139.743 670.34 139.552 670.967C131.572 676.112 127.588 679.777 122.983 688.1L123.018 688.119C121.552 689.239 120.328 693.324 120.738 693.664C121.166 694.017 122.69 693.86 123.955 693.519C124.029 694.512 124.166 695.35 124.891 695.518C125.616 695.687 129.488 691.62 129.488 691.62L129.455 691.581C130.837 689.564 132.181 687.849 133.463 686.211C134.791 684.517 136.053 682.906 137.223 681.132C137.126 681.649 137.031 682.163 136.937 682.669L136.937 682.67C136.227 686.51 135.585 689.982 134.667 692.375C133.055 696.575 136.72 701.263 140.513 703.433C139.876 706.129 140.696 710.589 141.744 716.296C141.965 717.497 142.196 718.753 142.425 720.059C142.042 722.283 144.097 726.804 144.697 726.719C145.334 726.629 146.421 726.292 147.109 725.287C147.891 726.005 148.617 726.545 149.386 726.053C150.154 725.56 150.682 719.026 150.682 719.026C150.605 719.002 150.529 718.979 150.453 718.957C150.32 712.904 150.31 709.003 150.439 703.725C151.113 703.705 151.515 703.667 151.515 703.667C151.515 703.667 152.601 703.772 154.198 703.723C154.181 704.975 154.156 706.302 154.124 707.752C154.048 707.775 153.972 707.798 153.894 707.822C153.894 707.822 154.422 714.356 155.191 714.848C155.959 715.34 156.686 714.8 157.468 714.083C158.155 715.088 159.243 715.425 159.879 715.514C160.48 715.599 162.535 711.078 162.151 708.855C162.381 707.548 162.612 706.293 162.832 705.092C162.976 704.309 163.116 703.549 163.248 702.814C166.656 700.454 169.587 696.211 168.115 692.375C167.196 689.982 166.554 686.51 165.844 682.671C165.338 679.933 164.797 677.007 164.096 674.153C169.357 673.173 172.363 671.869 175.549 668.723L175.515 668.705C176.812 668.408 177.667 666.359 177.257 666.069C176.83 665.766 175.409 665.498 174.244 665.396C174.103 664.811 173.913 664.299 173.219 664.033C172.526 663.767 169.18 665.183 169.18 665.183L169.214 665.213C168.061 666.042 166.922 666.708 165.834 667.343C165.13 667.754 164.448 668.152 163.798 668.574C167.451 665.511 169.745 661.088 169.745 656.169C169.745 653.674 169.154 651.306 168.095 649.178C170.425 648.75 174.582 647.509 175.201 644.058C176.069 639.221 175.201 636.865 173.837 636.493C173.284 636.342 172.771 636.619 172.11 636.978C171.139 637.503 169.848 638.202 167.636 637.981C167.363 637.954 167.103 637.963 166.857 638.004C167.354 637.003 167.863 635.994 168.344 635.039C169.399 632.944 170.321 631.113 170.706 630.205C171.914 627.351 168.862 624.421 167.941 625.964C167.594 626.545 167.209 628.111 166.78 629.858C166.07 632.749 165.239 636.134 164.255 636.374C163.446 636.571 163.431 635.103 163.414 633.544C163.398 632.057 163.382 630.487 162.675 630.205C161.227 629.627 160.7 632.518 160.437 634.446Z" fill="#002F4D"/>
</g>
<g style="mix-blend-mode:soft-light" opacity="0.5">
<path d="M213.947 831.49C208.226 831.622 202.981 829.201 199.013 826.034C194.258 828.315 188.477 821.92 190.954 814.437C188.077 812.566 186.389 810.287 186.358 807.798C186.331 805.556 187.649 803.424 189.976 801.561C189.034 798.225 188.521 794.758 188.521 791.332C188.521 780.757 189.949 774.685 197.163 771.767C196.744 771.506 196.459 771.181 196.424 770.773C196.342 770.965 196.259 771.156 196.173 771.347L193.805 769.869C193.873 769.524 193.939 769.18 194.005 768.838C190.335 765.423 185.95 758.831 183.458 749.574C180.278 740.069 179.258 727.808 185.143 725.08C189.85 725.053 191.134 727.865 192.815 733.379C193.168 724.656 194.895 718.089 197.876 713.519C197.932 712.242 198.547 710.391 198.681 709.584C198.815 708.777 199.542 707.003 200.402 705.677C202.905 700.982 208.428 702.331 211.253 703.022C211.471 703.075 211.674 703.124 211.858 703.167C213.612 703.572 215.397 705.439 215.397 705.439C216.494 705.473 217.569 705.548 218.615 705.677C220.006 700.481 221.686 695.449 222.946 695.591C223.131 695.612 223.337 695.633 223.558 695.655C226.421 695.941 232.017 696.5 233.584 701.893C235.091 707.076 234.503 712.943 233.634 718.784C235.275 724.464 235.785 732.47 234.747 743.7C234.203 749.591 233.469 754.705 232.54 759.107C236.959 759.173 243.099 761.195 248.844 766.631C255.46 771.925 261.471 781.164 257.807 787.997C253.562 792.087 251.275 790.072 246.805 786.134C245.364 784.865 243.697 783.396 241.665 781.868C240.059 780.148 238.467 778.56 236.948 777.081C238.669 780.459 238.985 785.118 238.985 791.332C238.985 794.409 238.571 797.52 237.804 800.539C240.114 802.278 241.447 804.321 241.474 806.531L241.474 806.535C241.507 809.314 239.469 811.925 236.006 814.064C238.824 821.76 232.828 828.446 227.976 825.984C224.185 829.028 219.302 831.367 213.947 831.49Z" fill="url(#paint2_linear_38_3452)"/>
</g>
<g filter="url(#filter3_i_38_3452)">
<path d="M213.858 598.004C208.153 597.907 202.922 599.682 198.964 602.003C194.222 600.331 188.457 605.018 190.927 610.504C188.058 611.875 186.375 613.545 186.344 615.37C186.316 617.013 187.631 618.576 189.952 619.942C189.012 622.387 188.501 624.928 188.501 627.44C188.501 635.191 189.925 639.641 197.119 641.78C196.702 641.972 196.417 642.21 196.383 642.509C196.301 642.368 196.217 642.228 196.132 642.088L193.771 643.172C193.838 643.425 193.904 643.677 193.97 643.927C190.31 646.431 185.937 651.263 183.451 658.048C180.279 665.015 179.263 674.002 185.131 676.002C189.826 676.022 191.106 673.96 192.783 669.919C193.136 676.313 194.857 681.126 197.83 684.476C197.886 685.412 197.925 686.364 197.964 687.321C198.17 692.402 198.383 697.633 201.183 701.494C203.68 704.935 209.188 703.946 212.005 703.44L212.006 703.44C212.224 703.401 212.425 703.365 212.609 703.334C214.358 703.037 215.045 695.253 215.304 690.399C216.398 690.374 217.47 690.319 218.514 690.224C219.901 694.033 221.577 697.721 222.833 697.617C223.018 697.601 223.223 697.586 223.444 697.57C226.299 697.361 231.88 696.951 233.443 692.998C234.945 689.199 234.359 684.898 233.493 680.617C235.129 676.453 235.638 670.585 234.603 662.353C234.06 658.035 233.328 654.287 232.402 651.06C236.808 651.012 242.932 649.529 248.661 645.545C255.26 641.665 261.255 634.893 257.601 629.884C253.367 626.886 251.086 628.363 246.628 631.249C245.192 632.18 243.529 633.256 241.502 634.377C239.9 635.637 238.312 636.801 236.798 637.886C238.514 635.41 238.829 631.994 238.829 627.44C238.829 625.184 238.416 622.904 237.652 620.691C239.956 619.416 241.285 617.919 241.312 616.299L241.312 616.296C241.344 614.259 239.312 612.345 235.859 610.777C238.669 605.136 232.689 600.235 227.85 602.04C224.069 599.808 219.199 598.094 213.858 598.004Z" fill="#002F4D"/>
</g>
</g>
<defs>
<filter id="filter0_i_38_3452" x="-118" y="673.155" width="650" height="268.345" filterUnits="userSpaceOnUse" color-interpolation-filters="sRGB">
<feFlood flood-opacity="0" result="BackgroundImageFix"/>
<feBlend mode="normal" in="SourceGraphic" in2="BackgroundImageFix" result="shape"/>
<feColorMatrix in="SourceAlpha" type="matrix" values="0 0 0 0 0 0 0 0 0 0 0 0 0 0 0 0 0 0 127 0" result="hardAlpha"/>
<feOffset dy="8"/>
<feGaussianBlur stdDeviation="4"/>
<feComposite in2="hardAlpha" operator="arithmetic" k2="-1" k3="1"/>
<feColorMatrix type="matrix" values="0 0 0 0 1 0 0 0 0 0.846667 0 0 0 0 0.0416667 0 0 0 0.27 0"/>
<feBlend mode="normal" in2="shape" result="effect1_innerShadow_38_3452"/>
</filter>
<filter id="filter1_i_38_3452" x="242.856" y="649.059" width="57.48" height="70.9893" filterUnits="userSpaceOnUse" color-interpolation-filters="sRGB">
<feFlood flood-opacity="0" result="BackgroundImageFix"/>
<feBlend mode="normal" in="SourceGraphic" in2="BackgroundImageFix" result="shape"/>
<feColorMatrix in="SourceAlpha" type="matrix" values="0 0 0 0 0 0 0 0 0 0 0 0 0 0 0 0 0 0 127 0" result="hardAlpha"/>
<feOffset dy="8"/>
<feGaussianBlur stdDeviation="4"/>
<feComposite in2="hardAlpha" operator="arithmetic" k2="-1" k3="1"/>
<feColorMatrix type="matrix" values="0 0 0 0 1 0 0 0 0 0.846667 0 0 0 0 0.0416667 0 0 0 0.27 0"/>
<feBlend mode="normal" in2="shape" result="effect1_innerShadow_38_3452"/>
</filter>
<filter id="filter2_i_38_3452" x="120.658" y="625.538" width="56.7026" height="109.183" filterUnits="userSpaceOnUse" color-interpolation-filters="sRGB">
<feFlood flood-opacity="0" result="BackgroundImageFix"/>
<feBlend mode="normal" in="SourceGraphic" in2="BackgroundImageFix" result="shape"/>
<feColorMatrix in="SourceAlpha" type="matrix" values="0 0 0 0 0 0 0 0 0 0 0 0 0 0 0 0 0 0 127 0" result="hardAlpha"/>
<feOffset dy="8"/>
<feGaussianBlur stdDeviation="4"/>
<feComposite in2="hardAlpha" operator="arithmetic" k2="-1" k3="1"/>
<feColorMatrix type="matrix" values="0 0 0 0 1 0 0 0 0 0.846667 0 0 0 0 0.0416667 0 0 0 0.27 0"/>
<feBlend mode="normal" in2="shape" result="effect1_innerShadow_38_3452"/>
</filter>
<filter id="filter3_i_38_3452" x="180.896" y="598" width="77.8135" height="113.97" filterUnits="userSpaceOnUse" color-interpolation-filters="sRGB">
<feFlood flood-opacity="0" result="BackgroundImageFix"/>
<feBlend mode="normal" in="SourceGraphic" in2="BackgroundImageFix" result="shape"/>
<feColorMatrix in="SourceAlpha" type="matrix" values="0 0 0 0 0 0 0 0 0 0 0 0 0 0 0 0 0 0 127 0" result="hardAlpha"/>
<feOffset dy="8"/>
<feGaussianBlur stdDeviation="4"/>
<feComposite in2="hardAlpha" operator="arithmetic" k2="-1" k3="1"/>
<feColorMatrix type="matrix" values="0 0 0 0 1 0 0 0 0 0.846667 0 0 0 0 0.0416667 0 0 0 0.27 0"/>
<feBlend mode="normal" in2="shape" result="effect1_innerShadow_38_3452"/>
</filter>
<linearGradient id="paint0_linear_38_3452" x1="271.427" y1="709.56" x2="280.429" y2="810.129" gradientUnits="userSpaceOnUse">
<stop stop-color="#002F4D"/>
<stop offset="1" stop-color="#002F4D" stop-opacity="0"/>
</linearGradient>
<linearGradient id="paint1_linear_38_3452" x1="149.009" y1="712.742" x2="149.009" y2="825.396" gradientUnits="userSpaceOnUse">
<stop stop-color="#002F4D"/>
<stop offset="1" stop-color="#002F4D" stop-opacity="0"/>
</linearGradient>
<linearGradient id="paint2_linear_38_3452" x1="219.908" y1="831.495" x2="219.908" y2="686.923" gradientUnits="userSpaceOnUse">
<stop stop-color="#002F4D" stop-opacity="0"/>
<stop offset="1" stop-color="#002F4D"/>
</linearGradient>
<clipPath id="clip0_38_3452">
<rect width="428" height="926" fill="white"/>
</clipPath>
</defs>
</svg>
