<svg width="567" height="279" viewBox="0 0 567 279" fill="none" xmlns="http://www.w3.org/2000/svg">
<g opacity="0.7">
<path d="M395.933 5.46692C414.421 -0.0688772 459.729 -4.87259 488.395 20.6905C542.591 27.6101 568.698 106 531.394 139.872C563.64 156.479 602.624 248.053 503.198 267.428C423.658 282.928 406.509 273.887 421.198 267.428C387.877 281.268 278.348 279.768 276.198 277C274.049 274.232 278.234 266.044 297.045 267.428C315.855 268.812 376.586 263.276 382.497 261.892C388.409 260.508 407.198 255.5 407.198 252C407.198 248.5 400.4 246.831 388.198 249.5C360.9 253.331 121.698 277 93.1985 267.428C21.1454 243.229 -20.3015 193 30.6985 129.5C-48.3015 104 43.0658 26.521 104.092 25.1032C108.778 24.9944 211.233 20.229 243.3 20.6904C243.3 20.6904 234.057 17.6457 237.926 5.46692C242.763 -9.75652 372.823 12.3867 395.933 5.46692Z" fill="url(#paint0_linear_5683_5285)"/>
<path d="M395.933 5.46692C414.421 -0.0688772 459.729 -4.87259 488.395 20.6905C542.591 27.6101 568.698 106 531.394 139.872C563.64 156.479 602.624 248.053 503.198 267.428C423.658 282.928 406.509 273.887 421.198 267.428C387.877 281.268 278.348 279.768 276.198 277C274.049 274.232 278.234 266.044 297.045 267.428C315.855 268.812 376.586 263.276 382.497 261.892C388.409 260.508 407.198 255.5 407.198 252C407.198 248.5 400.4 246.831 388.198 249.5C360.9 253.331 121.698 277 93.1985 267.428C21.1454 243.229 -20.3015 193 30.6985 129.5C-48.3015 104 43.0658 26.521 104.092 25.1032C108.778 24.9944 211.233 20.229 243.3 20.6904C243.3 20.6904 234.057 17.6457 237.926 5.46692C242.763 -9.75652 372.823 12.3867 395.933 5.46692Z" fill="url(#paint1_linear_5683_5285)" fill-opacity="0.1"/>
</g>
<defs>
<linearGradient id="paint0_linear_5683_5285" x1="365.765" y1="-12.5243" x2="371.923" y2="249.472" gradientUnits="userSpaceOnUse">
<stop stop-color="#EEF0ED"/>
<stop offset="1" stop-color="#EEF0ED" stop-opacity="0.3"/>
</linearGradient>
<linearGradient id="paint1_linear_5683_5285" x1="447.057" y1="-12.5243" x2="374.576" y2="-4.80159" gradientUnits="userSpaceOnUse">
<stop stop-color="#F8D574"/>
<stop offset="1" stop-color="#FDBA00" stop-opacity="0"/>
</linearGradient>
</defs>
</svg>
