<svg width="549" height="331" viewBox="0 0 549 331" fill="none" xmlns="http://www.w3.org/2000/svg">
<path opacity="0.8" d="M293.3 24.1732C279.547 22.5739 243.857 20.0418 227.731 18.9756C156.084 18.9756 154.431 27.2384 162.561 31.3699C138.572 36.1676 161.761 38.5665 235.727 44.1639C294.9 48.6419 287.836 46.0298 276.908 44.1639C301.696 48.1621 367.266 46.9627 368.865 46.163C370.465 45.3634 375.662 39.766 361.669 40.1658C347.675 40.5656 302.496 38.9664 298.098 38.5665C293.7 38.1667 285.704 37.7669 288.103 35.368C290.022 33.4489 295.566 33.7688 298.098 34.1686C316.09 37.7669 466.021 34.1686 472.817 34.1686C479.614 34.1686 477.615 32.9691 478.015 30.5702C478.335 28.6511 430.704 28.4379 406.848 28.5712C406.848 28.5712 413.725 27.6916 410.846 24.1732C407.248 19.7752 310.492 26.1723 293.3 24.1732Z" fill="url(#paint0_linear_5683_6692)"/>
<path d="M28.4967 253.104C34.9623 238.556 56.6179 243.233 69.5158 243.233C92.1786 243.233 114.647 250.875 135.87 242.136C154.456 234.483 174.411 231.503 194.109 228.317C252.337 218.897 315.289 221.07 374.088 224.588C405.697 226.479 424.631 235.015 456 238.5C461.759 239.14 472.096 244 477.5 244C484.366 244 487.595 240.144 491.113 241.149C496.464 242.678 506.943 244.302 509.539 250.142C512.053 255.8 516.634 250.328 520.507 254.201C523.929 257.623 537 258.142 548 277C551 287 538.607 305.42 519.629 305.42C516.168 305.42 498.5 310 474.5 307.5C468.025 311.662 453.457 309.273 446 310C436.113 310.965 409.472 299.451 405 307.5C399.807 316.847 399.15 319.645 389.333 322.2C364.597 328.638 340.105 328.123 314.753 328.123C285.922 328.123 257.309 332.589 228.328 329.658C222.841 329.103 203.674 319.075 199.812 320.665C186.423 326.178 170.653 324.37 156.38 324.174C142.618 323.986 125.09 320.131 113.387 312.329C104.889 306.664 103.9 305.461 92.7673 308.381C76.2171 312.722 57.3328 310.355 40.3418 310.355C29.4307 310.355 16.438 310.513 6.78075 304.432C-2.33663 298.692 -2.18355 278.822 6.78075 272.846C15.4212 267.085 21.9823 264.013 31.5677 260.562C33.8222 259.75 26.0063 258.707 28.4967 253.104Z" fill="#49BDC6"/>
<path d="M48.7357 257.023C73.5889 226.707 126.004 219.356 149.105 219.47C225.576 201.135 373.057 211.959 393.541 219.47C425.174 234.127 489.347 264.549 492.971 268.971C500.216 277.278 420.461 279.896 340.625 268.971C284.765 261.328 262.105 279.896 198.607 288.431C135.108 296.965 142.618 279.896 118.721 279.896C94.8234 279.896 17.6691 294.917 48.7357 257.023Z" fill="url(#paint1_radial_5683_6692)"/>
<path d="M59 248.5C87.5 223.327 116.504 189.713 137.471 189.827C206.878 171.59 320.879 177.356 339.471 184.827C358.062 192.297 440.471 177.327 447.971 223.327C453.532 257.438 462.182 239.576 464.971 262.327C466.303 273.193 401.451 267.461 328.99 256.595C278.29 248.992 257.723 267.461 200.09 275.95C142.458 284.439 149.274 267.461 127.585 267.461C105.895 267.461 23.7204 279.662 59 248.5Z" fill="url(#paint2_linear_5683_6692)"/>
<path d="M398.862 236.095C340.339 223.495 225.869 249.099 171.301 236.095C100.478 223.515 169.626 160.28 218.471 66.3267C303.471 -97.1732 354.123 93.518 385.471 127.327C416.819 161.136 497.471 257.327 398.862 236.095Z" fill="#163E1B"/>
<path d="M73.0001 235.5V220L147 235.5V251L73.0001 235.5Z" fill="#BDA072"/>
<path d="M72.4363 220.004L127.836 208.227L203.301 223.93L147.901 235.708L72.4363 220.004Z" fill="#DABD91"/>
<path d="M147 251V235.323L213 222.5V239.677L147 251Z" fill="#A1814F"/>
<path d="M339.971 290.221C339.971 296.513 309.518 304.327 267.269 304.327C225.019 304.327 187.971 298.826 187.971 290.326C210.971 273.432 221.221 278.827 263.471 278.827C305.72 278.827 331.971 278.827 339.971 290.221Z" fill="url(#paint3_radial_5683_6692)"/>
<path d="M320.683 294.924C295.942 301.672 236.9 297.736 210.472 294.924C176.172 292.204 210.472 279.742 219.469 265.122C228.466 250.502 290.881 265.122 306.063 272.432C321.246 279.742 351.61 286.49 320.683 294.924Z" fill="#064F23"/>
<path d="M367.971 239.976C367.971 243.349 363.664 250.042 316.42 247.191C292.7 247.191 277.152 247.191 273.471 241.083C273.471 237.71 292.7 234.976 316.42 234.976C340.14 234.976 367.971 236.602 367.971 239.976Z" fill="url(#paint4_linear_5683_6692)"/>
<path d="M84.0001 218.5V203L156 218.5V234L84.0001 218.5Z" fill="#BDA072"/>
<path d="M82.9055 204.864L138.305 193.087L213 207L158.371 220.568L82.9055 204.864Z" fill="#DABD91"/>
<path d="M156 234V218.323L213 207V222.678L156 234Z" fill="#A1814F"/>
<path d="M85.6895 201.057C88.6769 200.138 89.83 199.005 93.0234 199.005C94.9807 199.005 97.1844 198.188 98.978 197.424C101.936 196.163 105.462 196.365 108.633 196.734C114.317 197.395 120.139 197.663 125.723 199.072C131.654 200.568 137.38 200.776 143.52 200.821C148.485 200.858 153.437 201.124 158.406 201.124C171.785 201.124 185.269 200.453 198.557 201.797C200.893 202.033 203.206 202.033 205.549 202.032L205.807 202.032C206.627 202.032 208.117 201.761 208.751 202.268C209.224 202.646 214.775 204.637 213.763 205.901C212.565 207.399 210.663 208.088 208.835 208.088C203.622 208.088 200.362 211.814 195.883 213.639C194.531 214.19 192.41 213.986 192.031 215.691C191.319 218.894 190.41 222.077 189.676 225.279C189.357 226.671 188.971 227.679 188.229 228.845C187.379 230.181 186.52 232.122 185.067 232.848C184.673 233.045 183.856 232.364 183.856 232.613C183.856 233.403 184.159 234.206 184.159 235.035C184.159 236.126 184.656 237.592 183.402 235.641C181.3 232.371 181.583 227.666 181.131 224.001C180.803 221.339 180.646 218.624 180.223 215.977C180.143 215.482 179.862 215.789 179.55 215.893C178.964 216.088 178.258 216.566 177.649 216.566C174.988 216.566 173.337 219.896 170.534 219.896C169.611 219.896 168.709 220.031 167.943 219.593C167.007 219.059 165.246 218.382 164.176 218.382C161.36 218.382 158.464 218.554 156.909 221.276C155.801 223.214 153.837 224.158 152.973 226.103C152.212 227.816 150.135 231.519 148.061 229.652C146.923 228.628 147.523 225.204 147.523 223.664C147.523 221.836 146.784 218.779 145.252 217.928C144.371 217.438 142.388 217.474 141.4 217.474C140.142 217.474 138.793 217.334 137.683 216.717C137.174 216.434 134.806 214.791 134.806 216.078C134.806 216.093 134.256 214.031 134.134 213.908C133.434 213.208 130.115 215.721 129.642 215.943C127.854 216.785 124.307 217.538 122.628 216.027C121.026 214.586 119.222 211.803 116.791 212.344C114.81 212.784 112.819 218.776 110.13 215.489C109.236 214.396 108.991 212.414 107.119 212.949C106.003 213.268 105.134 213.75 105.134 215.119C105.134 217.21 105.828 220.799 103.621 221.78C100.666 223.093 99.5274 224.511 99.0621 227.768C98.7472 229.972 97.781 231.549 95.4456 231.805C94.3651 231.924 94.8567 227.301 94.5373 226.423C94.3163 225.815 93.9317 225.946 93.9317 225.195V223.075C93.9317 221.846 94.2345 220.567 94.2345 219.291C94.2345 218.023 94.3093 216.857 93.4944 215.809C92.6016 214.661 91.1244 215.052 89.6928 215.052C86.6645 215.052 88.87 212.109 89.3901 210.678C90.6706 207.157 88.2621 206.576 85.3026 205.666C81.5595 204.514 82.886 201.919 85.6895 201.057Z" fill="#264D25"/>
<path d="M86.7588 200.528C88.2951 199.931 90.1396 198.882 91.8052 198.882C91.8052 198.243 91.1524 196.588 91.8268 196.5C93.8165 196.239 95.8241 196.477 97.8045 196.11C107.061 194.396 116.758 195.06 126.112 195.525C130.215 195.729 134.092 196.455 138.132 197.128C145.829 198.411 153.256 200.968 161.004 201.958C170.465 203.167 180.219 203.561 189.755 203.561C191.456 203.561 193.023 203.787 194.704 203.94C195.859 204.045 197.152 204.113 198.213 204.644C199.367 205.221 199.453 206.449 198.126 206.69C195.922 207.091 193.605 206.752 191.412 207.362C188.928 208.052 187.495 209.34 185.716 211.119C184.813 212.022 182.787 214.886 181.276 214.13C180.823 213.903 180.501 213.549 180.258 213.112C179.869 212.412 178.979 212.527 178.309 212.527C176.078 212.527 173.893 212.917 171.638 212.917C169.694 212.917 167.783 212.855 165.877 213.307C164.071 213.734 162.532 214.439 160.83 215.148C158.667 216.049 156.8 217.074 154.376 216.805C153.079 216.661 151.648 216.036 150.38 216.036C149.952 216.036 147.605 215.153 148.041 215.938C148.562 216.877 147.738 217.247 147.077 216.621C145.417 215.048 144.307 214.087 141.901 214.087C140.781 214.087 139.321 214.352 138.241 214.043C137.602 213.861 137.027 213.412 136.443 213.112C134.639 212.184 132.849 211.358 130.79 211.358C127.541 211.358 124.381 212.137 121.152 212.137C119.984 212.137 119.018 209.909 118.402 209.116C117.782 208.32 116.965 207.669 116.268 206.972C115.806 206.51 114.89 206.649 114.287 206.69C111.755 206.865 109.556 208.353 107.226 209.192C105.727 209.731 104.466 209.818 103.262 208.78C102.124 207.799 99.9377 207.681 98.7792 208.629C97.5614 209.625 95.6799 212.17 93.7544 211.314L93.7356 211.306C93.3819 211.149 92.975 210.968 92.5849 210.968C92.0913 210.968 92.1638 210.637 91.8052 210.426C91.0111 209.959 90.8306 209.219 90.8306 208.325C90.8306 207.297 90.9903 206.371 89.9534 205.813C89.2576 205.438 88.4247 205.43 87.7118 205.131C86.4755 204.612 83.545 204.174 84.1057 202.38C84.5652 200.91 85.468 201.03 86.7588 200.528Z" fill="#306B2E"/>
<path d="M226.924 50.7807C224.902 53.3082 220.604 58.8326 220.225 62.2415C219.398 64.7229 214.521 65.1053 214.414 67.8913C214.344 69.7174 207.101 86.7725 208 88.3917C210.96 93.7189 220.802 74.5138 224.018 72.411C226.642 70.6955 233.345 69.8324 236.206 71.1197C237.783 71.8297 237.664 76.6887 238.062 76.6887C239.575 76.6887 243.543 69.3978 244.599 68.0527C247.391 64.5003 251.708 56.4076 256.867 56.5918C266.644 56.941 254.706 69.4022 253.639 73.1374C251.95 79.0479 248.148 84.708 247.868 91.0148C247.746 93.7577 245.808 111.126 251.298 109.296C254.817 108.123 257.034 103.934 258.648 100.883L258.724 100.74C260.785 96.8459 260.903 101.68 260.903 103.283C260.903 111.634 255.764 119.431 257.311 127.94C257.836 130.827 260.674 129.551 261.992 127.94C265.662 123.454 267.558 114.278 268.328 108.731C269.007 103.841 269.62 99.1371 269.62 94.2028C269.62 91.1671 269.294 88.0574 270.346 85.1633C271.765 81.2606 274.226 135.082 277.206 132.102C278.213 131.096 283.421 140.5 283.421 125.887C283.604 122.766 280.114 117.673 281.968 115.355C285.485 110.959 302.382 111.931 308.118 112.974C310.621 113.429 319.014 116.029 319.014 119.35C319.014 122.443 321.212 126.405 322.606 129.075C323.285 130.378 328.109 134.537 329.5 132.102C330.999 129.478 330.814 128.404 332.816 126.614C337.849 122.11 343.06 131.634 345.729 135.33C347.939 138.39 349.971 142.135 351.702 145.5C371.5 145.5 355.455 92.1958 356.787 94.5257C358.67 97.8215 366.241 98.2604 363.486 92.75C359.606 84.9912 355.666 77.4341 351.702 69.5055C345.205 56.5108 341.942 42.5741 333.542 30.4417C326.737 20.6122 316.784 14.4617 307.755 7.43923C294.296 -3.02911 271.234 -2.56857 259.087 9.57805L258.973 9.6917C252.902 15.7626 247.85 20.8146 242.743 28.2625C239.929 32.3657 236.656 36.1864 233.623 40.0866C231.04 43.4073 229.571 47.4715 226.924 50.7807Z" fill="#156813"/>
<path d="M58.7234 291.134C46.1057 291.134 26.0109 289.156 26.0109 276.774C28.485 271.755 23.4844 273.454 21.5008 275.428C19.8834 277.037 15.6283 280.131 18.3688 282.857C20.0734 284.553 21.003 288.371 22.6284 290.636C24.5451 293.305 26.0109 296.968 32.1497 296.968C40.4761 301.954 60.823 297.616 69.6718 297.616C83.2421 297.616 92.5244 296.783 106.065 297.417C110.718 297.634 117.016 304.482 121.851 306.192C128.695 308.613 139.559 304.905 146.092 303.749L146.505 303.676C154.78 302.211 166.981 300.052 175.345 301.954C182.652 303.615 189.89 310.176 197.395 310.879C200.453 311.165 205.328 312.992 208.169 314.02C213.778 316.05 220.693 315.366 226.711 315.366C230.436 315.366 233.155 314.35 236.357 313.621C242.246 312.282 234.017 310.071 233.476 309.533C231.979 308.043 220.316 308.864 217.69 308.386C213.112 307.553 207.616 308.382 203.596 305.893C189.061 301.954 184.369 301.954 178.227 295.422C169.547 291.967 152.635 296.415 144.151 297.616C138.209 298.457 128.405 299.941 123.542 296.07C120.849 293.927 119.953 291.134 115.649 291.134C110.451 291.134 104.988 289.737 99.9102 290.636C82.7944 290.636 70.547 291.134 58.7234 291.134Z" fill="#BFECFF"/>
<path d="M351.148 287.454C351.148 291.842 346.712 297.527 340.913 297.527C340.276 298.579 333.76 299.477 337.763 299.477C340.422 299.477 343.231 298.554 345.637 297.672C348.239 296.717 350.307 296.029 352.722 294.783C354.465 293.884 356.103 291.776 357.621 290.523C359.446 289.017 359.132 286.974 358.409 285.034C357.108 281.546 358.306 281.929 362.17 281.929C367.937 281.929 373.879 285.179 379.841 285.179C386.664 285.179 393.593 287.779 400.399 287.779C410.613 287.779 420.755 288.428 431.061 288.428H451.488C456.113 288.428 463.618 287.745 467.672 285.973C472.651 283.797 483.609 283.875 488.5 281.5C490.119 280.714 495.159 279.129 492.5 279C490.666 278.911 483.071 277.986 481.844 279C476.832 283.137 464.952 281.919 458.049 283.085C446.717 284.998 434.307 283.879 422.751 283.879C406.414 283.879 391.556 281.83 375.555 279.943C370.105 279.301 364.53 277.921 359.021 277.416C354.712 277.021 349.693 274.427 345.287 275.466C344.016 275.766 348.032 279.119 348.392 279.654C349.976 282.008 351.148 284.785 351.148 287.454Z" fill="#BFECFF"/>
<path d="M371.148 300.454C371.148 304.842 364.27 309.477 358.471 309.477C357.834 310.529 343.467 310.672 347.471 310.672C350.13 310.672 363.231 311.554 365.637 310.672C368.24 309.717 370.307 309.03 372.723 307.783C374.465 306.885 376.103 304.776 377.622 303.523C379.446 302.017 379.132 299.974 378.409 298.035C377.109 294.546 378.306 294.929 382.171 294.929C387.937 294.929 393.879 298.179 399.842 298.179C406.664 298.179 413.593 300.779 420.4 300.779C430.613 300.779 440.755 301.429 451.061 301.429H471.488C476.114 301.429 483.618 300.745 487.672 298.973C492.652 296.797 507.971 287.477 511.471 282.477C513.971 276.477 504.129 273.106 501.471 272.977C499.637 272.888 507.971 276.477 506.471 281.477C501.46 285.614 484.952 294.919 478.049 296.085C466.717 297.998 454.307 296.879 442.751 296.879C426.415 296.879 411.556 294.83 395.555 292.944C390.106 292.301 384.53 290.921 379.021 290.416C374.712 290.021 369.694 287.427 365.287 288.466C364.017 288.766 368.032 292.119 368.392 292.655C369.977 295.009 371.148 297.786 371.148 300.454Z" fill="#5DC9D1"/>
<rect x="295.471" y="123.327" width="40" height="120" fill="url(#paint5_linear_5683_6692)"/>
<rect x="289.471" y="121.976" width="42" height="120" fill="url(#paint6_linear_5683_6692)"/>
<rect x="299.471" y="121.976" width="42" height="120" fill="url(#paint7_linear_5683_6692)"/>
<rect x="325.471" y="121.976" width="1" height="120" fill="url(#paint8_linear_5683_6692)"/>
<rect x="314.471" y="121.976" width="1" height="120" fill="url(#paint9_linear_5683_6692)"/>
<rect x="309.471" y="121.976" width="1" height="120" fill="url(#paint10_linear_5683_6692)"/>
<rect x="301.471" y="121.976" width="1" height="120" fill="url(#paint11_linear_5683_6692)"/>
<path d="M294.852 239.131C293.391 237.575 291.403 237.912 289.448 237.912C289.448 236.306 286.966 236.712 285.549 236.969C284.957 237.077 285.381 238.057 285.433 238.389C285.485 238.733 285.678 238.866 285.634 238.866C284.465 238.866 284.409 239.355 284.5 240.498C284.59 241.619 285.501 242.086 285.825 242.977C286.461 244.728 289.085 244.032 290.36 243.486C291.034 243.196 291.829 242.864 292.352 242.341C292.621 242.072 292.423 242.391 292.627 242.595C294.182 244.151 297.002 244.209 299.016 244.174C302.626 244.112 306.052 243.192 309.538 242.384C310.975 242.051 312.033 242.394 313.331 242.15C314.515 241.928 315.644 241.391 316.637 242.203C318.096 243.398 319.806 242.235 321.257 241.769C321.609 241.656 321.942 242.334 322.295 242.447C322.921 242.648 323.922 242.519 324.541 242.384C325.182 242.243 326.046 241.734 326.724 241.928C327.042 242.019 327.374 242.618 327.794 242.765C328.749 243.099 330.216 242.929 331.196 242.776C331.403 242.743 332.298 242.511 332.509 242.723C332.917 243.131 333.02 243.951 333.548 244.397C334.351 245.075 335.206 245.413 336.26 245.34C337.408 245.261 338.339 244.713 339.132 243.92C339.59 243.462 340.222 242.528 340.944 242.49C342.377 242.414 348.427 242.335 346.559 239.618C346.177 239.062 345.391 238.834 345.065 238.378C344.989 238.271 345.14 237.705 345.14 237.531C345.14 236.659 344.538 236.172 343.709 235.92C341.87 235.36 339.262 236.34 338.189 237.902C337.718 238.587 335.265 238.066 334.353 238.294C333.907 238.405 332.805 239.261 332.361 239.014C331.834 238.721 331.728 238.179 331.005 238.114C329.819 238.006 328.387 237.969 327.222 238.209C327.084 238.237 325.775 238.865 325.728 238.823C325.391 238.524 325.461 237.216 325.262 236.768C325.022 236.229 324.452 235.731 323.927 235.475C322.365 234.713 319.72 234.944 318.099 235.369C317.401 235.553 316.861 236.097 316.351 236.577C316.144 236.771 314.872 238.461 314.815 238.389C314.508 238.006 313.662 238.103 313.246 238.103C312.281 238.103 311.354 238.484 310.428 238.484C310.033 238.484 309.778 237.969 309.548 237.721C307.962 236.013 305.244 238.693 304.06 239.512C303.614 239.821 303.521 239.35 303.17 239.152C302.192 238.602 301.202 238.704 300.129 238.823C298.634 238.99 297.372 239.486 295.975 239.968C295.418 240.16 295.165 239.463 294.852 239.131Z" fill="url(#paint12_linear_5683_6692)"/>
<path opacity="0.8" d="M416 47C432.126 48.0662 440.733 50.0306 441.096 52.1732C442 57.5 325.447 55.794 331 57C339.416 58.8278 324.884 59.251 316.179 59.3451C341.178 59.2779 381.819 59.5948 381.524 61.368C381.244 63.0477 382.14 64.1394 380.369 64.6429C394.314 63.9067 436.125 62.1686 445.894 62.1686C458.288 62.1686 475.419 63.0472 473.5 64.9663C471.294 67.1725 446.062 66.6938 445.457 66.5847C437.84 66.7308 370.508 67.717 320.144 68.9099C333.808 70.797 354.874 72.1639 383.523 72.1639C416 72.1639 421.5 67.1366 424.704 72.1639C421.5 77.5 270.775 77.7604 272.374 76.9608C273.973 76.1611 241 74.5 265.177 70.9635C269.803 70.2869 292.399 69.567 320.144 68.9099C298.428 65.9108 295.407 61.5976 310.356 59.3689C271 54.5 344.353 47 416 47Z" fill="url(#paint13_linear_5683_6692)"/>
<path d="M446.161 219.476C447.206 218.169 444.407 216.347 446.161 216.347C446.161 213.148 444.709 211.255 443.89 208.183C442.767 203.971 439.792 198.733 438.39 194.683C435.381 185.989 426.149 173.923 419.89 167.183C415.633 162.598 410.994 157.201 407.89 151.683C405.194 146.889 398.777 141.07 394.89 137.183C389.026 131.319 389.07 132.384 383.998 125.903C381.785 123.074 379.89 119.784 376.998 117.534C374.995 115.976 375.502 118.087 375.598 118.903C375.962 121.994 378.524 125.87 379.798 128.672C380.793 130.86 380.638 133.076 380.638 135.424C380.638 136.904 381.578 138.819 381.883 140.308C384.374 152.489 389.513 164.428 401.079 170.425C403.196 171.523 408.269 173.216 409.199 175.777C410.156 178.407 410.753 180.888 410.88 183.741C411.228 191.589 418.438 189.372 424.04 190.617C426.897 191.252 429.653 194.69 431.6 196.746C435.694 201.067 438.63 208.214 439.472 214.107C439.583 214.885 445.588 220.192 446.161 219.476Z" fill="#195020"/>
<path d="M199.383 213.757C200.145 185.861 195.891 171.809 193.668 168.27C193.668 167.292 194.158 165.577 196.117 166.544C198.567 167.752 203.805 188.381 203.805 213.757C203.805 234.057 207.616 246.44 209.521 250.094H203.805C202.014 249.605 198.621 241.653 199.383 213.757Z" fill="#4E371E"/>
<path d="M210.993 219.928C210.266 193.322 214.324 179.92 216.444 176.545C216.444 175.612 215.977 173.977 214.108 174.899C211.772 176.051 206.775 195.726 206.775 219.928C206.775 239.29 203.141 251.1 201.324 254.585H206.775C208.484 254.118 211.72 246.534 210.993 219.928Z" fill="#48321D"/>
<path d="M212.592 239.263C211.871 227.95 215.897 222.251 218 220.816C218 220.419 217.536 219.724 215.682 220.116C213.365 220.606 208.408 228.972 208.408 239.263C208.408 247.496 204.803 252.518 203 254H208.408C210.103 253.802 213.313 250.577 212.592 239.263Z" fill="#48321D"/>
<path d="M221.07 178.662C220.67 181.462 213.904 176.496 210.57 173.662C208.07 167.662 214.57 176.76 215.07 169.163C215.57 161.565 229.07 176.662 228.57 173.662C228.07 170.662 246.07 175.162 250.07 185.662C254.07 196.162 240.07 176.662 239.57 183.162C239.07 189.662 221.57 175.162 221.07 178.662Z" fill="#3C9A03"/>
<path d="M221.514 224.41C221.278 225.949 217.297 223.219 215.336 221.662C213.865 218.364 217.689 223.364 217.983 219.189C218.278 215.013 226.221 223.311 225.927 221.662C225.633 220.013 236.224 222.486 238.578 228.257C240.931 234.029 232.694 223.311 232.399 226.883C232.105 230.456 221.808 222.486 221.514 224.41Z" fill="#357E08"/>
<path d="M189.718 173.662C190.118 176.462 196.884 171.496 200.218 168.662C202.718 162.662 196.218 171.76 195.718 164.163C195.218 156.565 181.718 171.662 182.218 168.662C182.718 165.662 164.718 170.162 160.718 180.662C156.718 191.162 170.718 171.662 171.218 178.162C171.718 184.662 189.218 170.162 189.718 173.662Z" fill="#B5AE03"/>
<mask id="mask0_5683_6692" style="mask-type:alpha" maskUnits="userSpaceOnUse" x="164" y="241" width="102" height="25">
<path d="M261.773 241.798L175.009 255L164.124 262.468L177.483 265.637L263.773 251.91L265.395 249.488L265.619 244.994L261.773 241.798Z" fill="#E9BB47"/>
</mask>
<g mask="url(#mask0_5683_6692)">
<path d="M261.773 241.798L175.009 255L164.124 262.468L177.483 265.637L263.773 251.91L265.395 249.488L265.619 244.994L261.773 241.798Z" fill="#E9BB47"/>
<path d="M265.634 244.981L179.134 258.481L179.134 263.481L265.634 249.481L265.634 244.981Z" fill="#C4992A"/>
<path d="M175.484 255.525L175.009 255.001L164.124 262.469L177.483 265.637L179.106 263.214L179.33 258.72L175.484 255.525Z" fill="#987C34"/>
<path d="M168.814 259.593L168.597 259.38L163.684 262.376L169.634 263.981L170.473 262.714L170.564 260.896L168.814 259.593Z" fill="#251F10"/>
<path d="M177.134 265.981L179.134 262.981L265.634 249.481L264.134 251.981L177.134 265.981Z" fill="#AC851F"/>
</g>
<path d="M290.625 273.529C290.875 264.387 289.481 259.782 288.752 258.623C288.752 258.302 288.913 257.74 289.555 258.057C290.358 258.453 292.074 265.213 292.074 273.529C292.074 280.182 293.323 284.24 293.947 285.437H292.074C291.487 285.277 290.375 282.671 290.625 273.529Z" fill="#4E371E"/>
<path d="M294.43 275.551C294.192 266.832 295.521 262.44 296.216 261.334C296.216 261.028 296.063 260.493 295.451 260.795C294.685 261.172 293.048 267.62 293.048 275.551C293.048 281.896 291.857 285.767 291.261 286.909H293.048C293.608 286.756 294.668 284.27 294.43 275.551Z" fill="#48321D"/>
<path d="M299.236 263.431C299.058 264.68 296.04 262.465 294.554 261.201C293.439 258.525 296.338 262.583 296.561 259.194C296.784 255.806 302.804 262.539 302.581 261.201C302.358 259.863 310.386 261.87 312.17 266.553C313.954 271.236 307.71 262.539 307.487 265.438C307.264 268.337 299.459 261.87 299.236 263.431Z" fill="#3C9A03"/>
<path d="M291.704 262.866C291.817 263.656 293.728 262.254 294.669 261.454C295.375 259.76 293.539 262.328 293.398 260.183C293.257 258.038 289.445 262.301 289.587 261.454C289.728 260.607 284.645 261.877 283.516 264.842C282.387 267.807 286.34 262.301 286.481 264.136C286.622 265.971 291.563 261.877 291.704 262.866Z" fill="#357E09"/>
<path d="M285.254 261.201C285.432 262.45 288.45 260.235 289.937 258.971C291.052 256.295 288.153 260.353 287.93 256.964C287.707 253.576 281.686 260.309 281.909 258.971C282.132 257.633 274.104 259.64 272.32 264.323C270.536 269.006 276.78 260.309 277.003 263.208C277.226 266.107 285.031 259.64 285.254 261.201Z" fill="#3C9A03"/>
<path d="M382.5 266.5L356 261.5C372.5 261.5 394.5 248.5 401.5 254.5C414 244 429.5 255.5 438.5 249.5L448 253L465 258C445.5 263.5 430.5 254.5 423 261.5C407.8 257.5 397 266.5 382.5 266.5Z" fill="#715941"/>
<path d="M382.5 265L356 260C372.5 260 394.5 247 401.5 253C414 242.5 429.5 254 438.5 248L448 251.5L465 256.5C445.5 262 430.5 253 423 260C407.8 256 397 265 382.5 265Z" fill="#F3EDE6"/>
<path d="M423 257C407.8 253 400 264 385.5 264H382.5L356 259H360C376.5 259 385.5 242 401.5 250C414 239.5 429.5 251 438.5 245L448 248.5L463.5 255C444 260.5 430.5 250 423 257Z" fill="#F3EDE6"/>
<path d="M423 256C407.8 252 400 263 385.5 263H382.5L356 258H360C365.818 258 371.5 253.5 375.293 253.5C377.5 250.5 391.142 243.821 401.5 249C407.651 243.833 416 243.638 419 244C423.664 244.563 431.095 244.141 433 244C434.905 243.859 437.12 244.92 438.5 244L448 247.5L463.5 254C444 259.5 430.5 249 423 256Z" fill="#52A251"/>
<path d="M402.5 248L424.5 255L423 256L401 248.926L402.5 248Z" fill="#2D652C"/>
<path d="M268.706 237.057C271.106 240.257 272.373 244.057 272.706 245.557C273.706 246.5 277.706 249 279.206 248.057C280.476 247.259 280.206 243.557 280.206 241.057C280.206 238.557 277.706 249.557 277.706 245.557C277.706 242.357 278.706 238.557 279.206 237.057C277.706 237.057 275.706 245.557 274.706 243.557C273.706 241.557 275.706 235.057 274.706 237.057C273.706 239.057 274.206 245.557 273.706 243.557C273.206 241.557 265.706 233.057 268.706 237.057Z" fill="#114210"/>
<path d="M353.706 225.057C356.106 228.257 357.373 232.057 357.706 233.557C358.706 234.5 362.706 237 364.206 236.057C365.476 235.259 365.206 231.557 365.206 229.057C365.206 226.557 362.706 237.557 362.706 233.557C362.706 230.357 363.706 226.557 364.206 225.057C362.706 225.057 360.706 233.557 359.706 231.557C358.706 229.557 360.706 223.057 359.706 225.057C358.706 227.057 359.206 233.557 358.706 231.557C358.206 229.557 350.706 221.057 353.706 225.057Z" fill="#093908"/>
<path d="M203.706 253.057C206.106 256.257 207.373 260.057 207.706 261.557C211.706 261.557 214.206 265.557 214.206 264.057C214.206 262.557 215.206 259.557 215.206 257.057C215.206 254.557 212.706 265.557 212.706 261.557C212.706 258.357 213.706 254.557 214.206 253.057C212.706 253.057 210.706 261.557 209.706 259.557C208.706 257.557 210.706 251.057 209.706 253.057C208.706 255.057 209.206 261.557 208.706 259.557C208.206 257.557 200.706 249.057 203.706 253.057Z" fill="#114210"/>
<path d="M181.505 241.384C183.905 244.584 182.672 245.327 183.005 246.827C187.005 248.827 190.505 247.827 190.505 246.327C190.505 244.827 190.711 243.884 190.711 241.384C190.711 238.884 188.211 249.884 188.211 245.884C188.211 242.684 189.211 238.884 189.711 237.384C188.211 237.384 187.505 247.327 186.505 245.327C185.505 243.327 185.211 235.148 185.211 237.384C185.211 240.827 184.711 245.884 184.211 243.884C183.711 241.884 179.587 238.827 181.505 241.384Z" fill="#114210"/>
<path d="M82.5053 214.384C84.9053 217.584 83.672 218.327 84.0053 219.827C88.0053 221.827 91.5053 220.827 91.5053 219.327C91.5053 217.827 91.7113 216.884 91.7113 214.384C91.7113 211.884 89.2113 222.884 89.2113 218.884C89.2113 215.684 90.2113 211.884 90.7113 210.384C89.2113 210.384 88.5053 220.327 87.5053 218.327C86.5053 216.327 86.2113 208.148 86.2113 210.384C86.2113 213.827 85.7113 218.884 85.2113 216.884C84.7113 214.884 80.5875 211.827 82.5053 214.384Z" fill="#114210"/>
<path d="M282.885 282.803C287.086 284.85 284.927 285.325 285.51 286.284C292.512 287.563 298.639 286.923 298.639 285.964C298.639 285.005 299 284.402 299 282.803C299 281.205 294.624 288.239 294.624 285.681C294.624 283.634 296.374 281.205 297.249 280.245C294.624 280.245 293.388 286.603 291.637 285.325C289.887 284.046 289.372 278.816 289.372 280.245C289.372 282.447 288.497 285.681 287.621 284.402C286.746 283.123 279.527 281.168 282.885 282.803Z" fill="#114210"/>
<path d="M87.5053 197.384C89.9053 200.584 88.672 201.327 89.0053 202.827C93.0053 204.827 96.5053 203.827 96.5053 202.327C96.5053 200.827 96.7113 199.884 96.7113 197.384C96.7113 194.884 94.2113 205.884 94.2113 201.884C94.2113 198.684 95.2113 194.884 95.7113 193.384C94.2113 193.384 93.5053 203.327 92.5053 201.327C91.5053 199.327 91.2113 191.148 91.2113 193.384C91.2113 196.827 90.7113 201.884 90.2113 199.884C89.7113 197.884 85.5875 194.827 87.5053 197.384Z" fill="#114210"/>
<path d="M88.0244 201.69V119.038C91.9411 121.379 96.9379 124.805 103.23 124.805C111.435 124.805 127.873 135.784 139.973 129.842C142.03 139.486 158.184 135.784 169.039 135.784C175.587 135.784 180.789 134.884 184.5 133.083V226C184.5 222.398 180.542 218.977 164.71 218.977C148.878 218.977 137.499 212.134 133.788 208.713C113.38 211.414 116.472 204.391 106.577 201.69C98.6614 199.529 90.9104 200.79 88.0244 201.69Z" fill="#594632"/>
<path d="M108.473 129C125.671 139.906 134.165 137.389 137.311 132.67C133.116 135.292 130.495 134.767 125.251 134.243C116.888 133.407 113.192 126.378 103.754 125.854C96.2038 125.434 90.4712 122.533 88.5486 121.135L87.5 122.184C88.5486 123.407 91.8198 124.837 95.8892 125.854C102.181 127.427 106.026 127.951 108.473 129Z" fill="#CEC3C3"/>
<path d="M87.5 202.405V122.184C101.132 129 99.3175 124.805 110.57 130.048C117.617 133.332 127.349 140.535 137.311 132.67C144.127 143.681 155.662 140.535 166.733 138.438C170.657 137.694 172.965 135.816 181.354 135.816V226C181.354 222.504 177.611 219.184 162.64 219.184C147.668 219.184 138.722 212.018 135.214 208.697C115.914 211.319 117.023 205.027 107.666 202.405C100.181 200.308 90.2292 201.531 87.5 202.405Z" fill="#FAF5F0"/>
<path d="M136.262 209.221L137.311 132.67L136.262 133.719L134.165 208.697L136.262 209.221Z" fill="#D9D9D9"/>
<path d="M138.359 132.67H137.311C142.554 145.254 160.905 141.059 167.197 138.962C172.231 137.284 178.732 136.165 181.354 135.816C178.208 135.292 169.19 134.977 158.284 137.913C147.378 140.849 140.457 135.641 138.359 132.67Z" fill="#D9D9D9"/>
<path d="M138.825 133.956C138.867 132.669 138.996 130.19 139.978 130.028C139.964 130.871 140.362 131.618 140.477 132.396C140.69 133.828 142.291 135.506 142.462 137C142.925 141.03 143.723 145.9 144 150C144.165 152.435 143.803 154.585 144 157C144.235 159.881 144.049 162.559 144 165.5C143.933 169.521 144.067 173.967 144 178C143.957 180.566 143.523 183.5 143.5 184.5C143.454 186.5 143.04 187.501 143.046 189C143.048 189.537 142.982 190.37 142.99 190.904C142.996 191.288 143.163 192.702 143.046 193.004C143.015 193.083 142.143 190.567 142.086 190.378L142.08 190.358C141.624 188.855 141.205 187.476 140.633 186.145C140.435 185.687 140.309 186.265 140.231 186.692C140.141 187.184 139.929 187.663 139.825 188.2C139.748 188.598 139.189 190.842 139.209 189.589L139.53 170.244C139.597 166.167 139.693 162.095 139.629 158.028C139.601 156.191 139.663 154.41 139.544 152.576C139.397 150.283 139.157 148.007 139.06 145.707C138.893 141.757 138.695 137.936 138.825 133.956Z" fill="#E23234"/>
<path d="M74.1288 201.505C74.1288 200.705 75.7955 205.171 76.6288 207.505L75.6284 211.005C75.4618 211.338 74.5284 212.305 72.1284 213.505C69.1284 215.005 69.1284 212.505 68.1284 212.505C67.3284 212.505 70.4617 210.505 72.1284 209.505C71.6285 209.338 70.5286 208.405 70.1286 206.005C69.6286 203.005 73.1288 205.505 72.6288 203.505C72.1288 201.505 74.1288 202.505 74.1288 201.505Z" fill="#D07E43"/>
<path d="M74.7585 201.1C74.7585 200.3 78.1284 204.505 77.2585 207.1L76.2581 210.6C76.0915 210.933 75.1581 211.9 72.7581 213.1C69.7581 214.6 70.6284 213.005 69.6284 213.005C68.8284 213.005 71.0914 210.1 72.7581 209.1C72.2582 208.933 71.1583 208 70.7583 205.6C70.2583 202.6 73.7585 205.1 73.2585 203.1C72.7585 201.1 74.7585 202.1 74.7585 201.1Z" fill="#FF985F"/>
<path d="M77.9031 206.33C77.0284 207.537 75.1489 210.741 74.6284 213.898C75.6115 212.033 77.6428 207.909 77.9031 206.33Z" fill="#513C1D"/>
<path d="M77.6741 207.066C77.8061 205.729 77.9726 203.032 77.5825 202.944" stroke="#513C1D" stroke-width="0.1"/>
<path d="M77.6499 207.086C78.0724 205.811 78.827 203.217 78.4658 203.045" stroke="#513C1D" stroke-width="0.1"/>
<ellipse cx="75.4999" cy="205.5" rx="0.5" ry="1.5" transform="rotate(-24.1899 75.4999 205.5)" fill="white"/>
<ellipse cx="74.2311" cy="207.378" rx="1.29367" ry="2.00096" transform="rotate(-36.5671 74.2311 207.378)" fill="white"/>
<ellipse cx="73.3615" cy="211.004" rx="0.626399" ry="1.22108" transform="rotate(54.9278 73.3615 211.004)" fill="white"/>
<path d="M391.186 239.869C391.486 228.91 389.814 223.389 388.941 221.999C388.941 221.615 389.133 220.941 389.903 221.321C390.865 221.796 392.924 229.9 392.924 239.869C392.924 247.844 394.42 252.709 395.169 254.144H392.924C392.22 253.952 390.887 250.828 391.186 239.869Z" fill="#4E371E"/>
<path d="M395.747 242.293C395.462 231.841 397.056 226.576 397.889 225.25C397.889 224.883 397.705 224.241 396.971 224.603C396.053 225.056 394.09 232.785 394.09 242.293C394.09 249.899 392.663 254.539 391.949 255.908H394.09C394.761 255.725 396.033 252.745 395.747 242.293Z" fill="#48321D"/>
<path d="M399.655 225.726C399.494 226.857 396.762 224.852 395.416 223.708C394.407 221.285 397.031 224.958 397.233 221.891C397.435 218.824 402.885 224.919 402.683 223.708C402.481 222.497 409.748 224.313 411.363 228.552C412.978 232.791 407.326 224.919 407.124 227.543C406.922 230.167 399.857 224.313 399.655 225.726Z" fill="#3C9A03"/>
<path d="M386.998 223.708C387.159 224.839 389.891 222.834 391.237 221.69C392.246 219.267 389.622 222.94 389.42 219.873C389.218 216.806 383.768 222.901 383.97 221.69C384.172 220.479 376.905 222.295 375.29 226.534C373.675 230.773 379.327 222.901 379.529 225.525C379.731 228.149 386.796 222.295 386.998 223.708Z" fill="#3C9A03"/>
<path d="M387.661 248.738C390.803 252.927 389.188 253.899 389.625 255.863C394.86 258.481 399.442 257.171 399.442 255.208C399.442 253.245 399.711 252.01 399.711 248.738C399.711 245.466 396.439 259.864 396.439 254.628C396.439 250.439 397.748 245.466 398.402 243.502C396.439 243.502 395.515 256.517 394.206 253.899C392.897 251.281 392.512 240.576 392.512 243.502C392.512 248.009 391.858 254.628 391.203 252.01C390.549 249.392 385.151 245.391 387.661 248.738Z" fill="#114210"/>
<path d="M432.28 225.438C432.699 210.085 430.357 202.352 429.134 200.404C429.134 199.866 429.404 198.922 430.482 199.454C431.83 200.119 434.714 211.472 434.714 225.438C434.714 236.611 436.81 243.426 437.859 245.437H434.714C433.727 245.168 431.86 240.791 432.28 225.438Z" fill="#4E371E"/>
<path d="M438.669 228.835C438.269 214.192 440.502 206.816 441.669 204.959C441.669 204.445 441.412 203.545 440.383 204.053C439.098 204.687 436.348 215.515 436.348 228.835C436.348 239.491 434.348 245.991 433.348 247.909H436.348C437.288 247.652 439.069 243.478 438.669 228.835Z" fill="#48321D"/>
<path d="M446.741 208.48C446.442 210.577 441.374 206.857 438.877 204.735C437.005 200.241 441.873 207.055 442.247 201.365C442.622 195.674 452.733 206.982 452.359 204.735C451.984 202.488 465.466 205.859 468.462 213.723C471.458 221.588 460.972 206.982 460.598 211.851C460.223 216.719 447.116 205.859 446.741 208.48Z" fill="#3C9A03"/>
<path d="M434.092 207.53C434.281 208.858 437.49 206.503 439.07 205.159C440.256 202.314 437.174 206.628 436.937 203.025C436.7 199.423 430.298 206.582 430.535 205.159C430.772 203.737 422.237 205.87 420.34 210.849C418.444 215.828 425.082 206.582 425.319 209.664C425.556 212.746 433.855 205.87 434.092 207.53Z" fill="#C9A422"/>
<path d="M423.259 204.735C423.558 206.832 428.626 203.112 431.123 200.99C432.995 196.496 428.127 203.31 427.753 197.62C427.378 191.929 417.267 203.237 417.641 200.99C418.016 198.743 404.534 202.114 401.538 209.978C398.542 217.843 409.028 203.237 409.402 208.106C409.777 212.974 422.884 202.114 423.259 204.735Z" fill="#3C9A03"/>
<path d="M425.885 244.803C430.086 246.85 427.927 247.325 428.51 248.284C435.512 249.563 441.639 248.923 441.639 247.964C441.639 247.005 442 246.402 442 244.803C442 243.205 437.624 250.239 437.624 247.681C437.624 245.634 439.374 243.205 440.249 242.245C437.624 242.245 436.388 248.603 434.637 247.325C432.887 246.046 432.372 240.816 432.372 242.245C432.372 244.447 431.497 247.681 430.621 246.402C429.746 245.123 422.527 243.168 425.885 244.803Z" fill="#114210"/>
<defs>
<linearGradient id="paint0_linear_5683_6692" x1="315.744" y1="18.9756" x2="315.744" y2="46.9756" gradientUnits="userSpaceOnUse">
<stop stop-color="#EEF0ED"/>
<stop offset="1" stop-color="#EDEEF0" stop-opacity="0.3"/>
</linearGradient>
<radialGradient id="paint1_radial_5683_6692" cx="0" cy="0" r="1" gradientUnits="userSpaceOnUse" gradientTransform="translate(267 264) rotate(89.9999) scale(61.5 548.897)">
<stop offset="0.112518" stop-color="#DABD91"/>
<stop offset="0.759566" stop-color="#EAD2AE" stop-opacity="0.1"/>
</radialGradient>
<linearGradient id="paint2_linear_5683_6692" x1="304.5" y1="222.5" x2="303.5" y2="290" gradientUnits="userSpaceOnUse">
<stop stop-color="#163E1B"/>
<stop offset="0.485013" stop-color="#026200"/>
<stop offset="1" stop-color="#026200" stop-opacity="0"/>
</linearGradient>
<radialGradient id="paint3_radial_5683_6692" cx="0" cy="0" r="1" gradientUnits="userSpaceOnUse" gradientTransform="translate(264 291) rotate(90) scale(21.5 441.583)">
<stop stop-color="#D9BD92"/>
<stop offset="1" stop-color="#D9BD92" stop-opacity="0"/>
</radialGradient>
<linearGradient id="paint4_linear_5683_6692" x1="320.721" y1="234.976" x2="320.721" y2="247.881" gradientUnits="userSpaceOnUse">
<stop stop-color="#10A6E6"/>
<stop offset="1" stop-color="#13CEC2"/>
</linearGradient>
<linearGradient id="paint5_linear_5683_6692" x1="315.471" y1="123.327" x2="315.471" y2="243.327" gradientUnits="userSpaceOnUse">
<stop stop-color="#00F0FF" stop-opacity="0"/>
<stop offset="1" stop-color="#0DC2FB"/>
</linearGradient>
<linearGradient id="paint6_linear_5683_6692" x1="310.471" y1="121.976" x2="310.471" y2="241.976" gradientUnits="userSpaceOnUse">
<stop stop-color="#00F0FF" stop-opacity="0"/>
<stop offset="1" stop-color="#0DC2FB"/>
</linearGradient>
<linearGradient id="paint7_linear_5683_6692" x1="320.471" y1="121.976" x2="320.471" y2="241.976" gradientUnits="userSpaceOnUse">
<stop stop-color="#00F0FF" stop-opacity="0"/>
<stop offset="1" stop-color="#0DC2FB"/>
</linearGradient>
<linearGradient id="paint8_linear_5683_6692" x1="325.971" y1="121.976" x2="325.971" y2="241.976" gradientUnits="userSpaceOnUse">
<stop stop-color="#00F0FF" stop-opacity="0"/>
<stop offset="1" stop-color="#63D9FF"/>
</linearGradient>
<linearGradient id="paint9_linear_5683_6692" x1="314.971" y1="121.976" x2="314.971" y2="241.976" gradientUnits="userSpaceOnUse">
<stop stop-color="#00F0FF" stop-opacity="0"/>
<stop offset="1" stop-color="#63D9FF"/>
</linearGradient>
<linearGradient id="paint10_linear_5683_6692" x1="309.971" y1="121.976" x2="309.971" y2="241.976" gradientUnits="userSpaceOnUse">
<stop stop-color="#00F0FF" stop-opacity="0"/>
<stop offset="1" stop-color="#63D9FF"/>
</linearGradient>
<linearGradient id="paint11_linear_5683_6692" x1="301.971" y1="121.976" x2="301.971" y2="241.976" gradientUnits="userSpaceOnUse">
<stop stop-color="#00F0FF" stop-opacity="0"/>
<stop offset="1" stop-color="#63D9FF"/>
</linearGradient>
<linearGradient id="paint12_linear_5683_6692" x1="315.692" y1="234.976" x2="315.692" y2="245.35" gradientUnits="userSpaceOnUse">
<stop stop-color="#0CC7FB"/>
<stop offset="1" stop-color="#EAF9FD"/>
</linearGradient>
<linearGradient id="paint13_linear_5683_6692" x1="463.537" y1="46.9746" x2="463.537" y2="74.9746" gradientUnits="userSpaceOnUse">
<stop stop-color="#EEF0ED"/>
<stop offset="1" stop-color="#EDEEF0" stop-opacity="0.3"/>
</linearGradient>
</defs>
</svg>
