<svg width="500" height="336" viewBox="0 0 500 336" fill="none" xmlns="http://www.w3.org/2000/svg">
<path d="M49.5098 237.207C56.0731 235.519 64.1791 236.841 70.9469 236.841C84.7932 246.072 103.867 238.49 120.417 238.49C160.635 238.49 200.447 240.495 240.794 238.856C280.343 237.25 319.637 236.526 359.156 233.909C379.599 232.555 399.781 229.327 420.169 227.313C434.82 225.866 449.974 226.947 464.693 226.947C470.351 226.947 477.26 227.83 481.549 231.894C485.184 235.338 487.332 237.845 491.443 240.505C495.475 243.114 492.84 255.643 493.092 259.927C493.219 262.086 496.207 261.803 496.207 264.049C496.207 268.215 490.404 274.114 487.82 276.741L487.779 276.783C479.346 285.356 472.124 288.163 461.395 291.624C453.501 294.171 446.534 296.205 438.125 296.205C435.592 296.205 431.189 295.367 428.781 296.571C424.541 298.691 422.086 302.184 417.055 303.442C408.843 305.495 399.619 304.45 391.22 304.45C382.99 304.45 376.138 307.748 368.134 307.748C361.06 307.748 347.881 301.739 341.384 304.816C334.867 307.903 333.427 309.614 329.841 314.71C321.545 326.499 302.358 328.952 289.348 332.117C276.937 335.135 265.79 337.001 252.337 335.048C240.363 333.31 228.968 324.238 217.342 324.238C208.64 324.238 200.634 323.44 192.24 320.94C188.495 319.824 178.831 314.887 174.834 316.359C162.908 320.753 139.371 316.648 129.945 309.397C121.95 303.247 100.125 307.815 90.7349 307.748C78.0183 307.657 65.9548 304.45 53.3575 304.45C39.5996 304.45 5.74436 307.079 0.406144 289.609C-1.38686 283.741 3.33771 281.629 3.33771 276.417C3.33771 268.188 12.0794 263.988 19.4613 263.225C21.9735 262.965 37.0679 258.458 37.6004 256.812C39.9257 249.625 40.3774 239.556 49.5098 237.207Z" fill="#51BCCC"/>
<path d="M72.3225 231.818C101.17 205.301 133.104 203.854 152.532 202.03C198.411 196.375 298.27 188.458 330.668 202.03C371.166 218.995 410.569 228.299 458.729 236.781C506.888 245.264 460.644 261.408 444.5 261.408C428.355 261.408 452.982 268.797 428.629 285.762C404.276 302.727 225.045 289.593 254.324 280.016C283.603 270.438 221.214 269.891 164.846 274.543C108.477 279.195 128.999 264.966 116.686 261.408C104.372 257.851 25.8444 274.543 72.3225 231.818Z" fill="url(#paint0_radial_5683_6401)"/>
<path d="M79.7339 224.616C104.608 196.476 141.949 183.054 159.204 181.223C199.951 175.547 288.64 167.601 317.414 181.223C353.382 198.251 390.574 200.117 431.15 216.102C516.971 249.911 456.196 254.002 441.857 254.002C427.519 254.002 443.749 261.394 422.12 278.421C400.49 295.449 244.245 286.937 270.249 277.325C296.252 267.713 223.816 254.826 173.753 259.495C123.689 264.163 146.858 257.572 135.922 254.002C124.986 250.432 31.2022 279.518 79.7339 224.616Z" fill="url(#paint1_radial_5683_6401)"/>
<path d="M407.439 242.255C440 245.5 344.5 268 330 264C303.082 264 295.423 248.51 309.962 242.255C324.5 236 325.082 245.5 352 245.5C378.918 245.5 379.5 234 407.439 242.255Z" fill="url(#paint2_linear_5683_6401)"/>
<path d="M414.781 264.166C403.807 267.146 365.507 265.407 353.784 264.166C338.569 262.964 367.65 252.324 374.486 248.985C390.311 241.255 401.562 251.003 408.296 254.231C415.031 257.46 428.5 260.44 414.781 264.166Z" fill="#123821"/>
<path d="M422.906 232.915C374.193 221.401 236.039 234.956 201.952 226.884C157.712 219.075 157.542 126.002 251.297 92.0094C313.364 69.5058 360.011 111.047 379.592 132.033C399.174 153.019 488.056 248.314 422.906 232.915Z" fill="#123821"/>
<path d="M348.617 198.171L381.439 165.342C381.439 165.342 386.978 161.771 391.843 167.702C396.707 173.633 393.218 178.381 393.218 178.381L360.396 211.211C360.396 211.211 355.363 213.475 350.893 209.054C346.423 204.634 348.617 198.171 348.617 198.171Z" fill="#AC7D59"/>
<path d="M368.521 199.453L367.826 199.355L360.361 190.259L373.294 176.389L374.327 176.535L382.487 185.729L368.521 199.453Z" fill="#90633F"/>
<rect width="12.2126" height="19.7089" transform="matrix(-0.668177 -0.752886 0.708584 -0.696324 367.525 199.312)" fill="#A0714C"/>
<ellipse cx="0.528682" cy="0.503328" rx="0.528682" ry="0.503328" transform="matrix(-0.126616 0.991952 -0.990159 -0.139946 358.37 205.858)" fill="#C2A289"/>
<ellipse cx="0.528682" cy="0.503328" rx="0.528682" ry="0.503328" transform="matrix(-0.126616 0.991952 -0.990159 -0.139946 362.357 206.422)" fill="#C2A289"/>
<ellipse cx="0.528682" cy="0.503328" rx="0.528682" ry="0.503328" transform="matrix(-0.126616 0.991952 -0.990159 -0.139946 354.591 195.714)" fill="#C2A289"/>
<ellipse cx="0.528682" cy="0.503328" rx="0.528682" ry="0.503328" transform="matrix(-0.126616 0.991952 -0.990159 -0.139946 358.043 200.473)" fill="#C2A289"/>
<ellipse cx="0.528682" cy="0.503328" rx="0.528682" ry="0.503328" transform="matrix(-0.126616 0.991952 -0.990159 -0.139946 353.119 207.251)" fill="#C2A289"/>
<ellipse cx="0.528682" cy="0.503328" rx="0.528682" ry="0.503328" transform="matrix(-0.126616 0.991952 -0.990159 -0.139946 364.023 201.318)" fill="#C2A289"/>
<ellipse cx="0.528682" cy="0.503328" rx="0.528682" ry="0.503328" transform="matrix(-0.126616 0.991952 -0.990159 -0.139946 359.843 194.321)" fill="#C2A289"/>
<ellipse cx="0.528682" cy="0.503328" rx="0.528682" ry="0.503328" transform="matrix(-0.126616 0.991952 -0.990159 -0.139946 352.925 200.817)" fill="#C2A289"/>
<ellipse cx="0.528682" cy="0.503328" rx="0.528682" ry="0.503328" transform="matrix(-0.126616 0.991952 -0.990159 -0.139946 384.047 179.589)" fill="#C2A289"/>
<ellipse cx="0.528682" cy="0.503328" rx="0.528682" ry="0.503328" transform="matrix(-0.126616 0.991952 -0.990159 -0.139946 384.851 173.296)" fill="#C2A289"/>
<ellipse cx="0.528682" cy="0.503328" rx="0.528682" ry="0.503328" transform="matrix(-0.126616 0.991952 -0.990159 -0.139946 389.641 167.567)" fill="#C2A289"/>
<ellipse cx="0.528682" cy="0.503328" rx="0.528682" ry="0.503328" transform="matrix(-0.126616 0.991952 -0.990159 -0.139946 390.831 174.141)" fill="#C2A289"/>
<ellipse cx="0.528682" cy="0.503328" rx="0.528682" ry="0.503328" transform="matrix(-0.126616 0.991952 -0.990159 -0.139946 390.162 179.386)" fill="#C2A289"/>
<ellipse cx="0.528682" cy="0.503328" rx="0.528682" ry="0.503328" transform="matrix(-0.126616 0.991952 -0.990159 -0.139946 380.402 168.396)" fill="#C2A289"/>
<ellipse cx="0.528682" cy="0.503328" rx="0.528682" ry="0.503328" transform="matrix(-0.126616 0.991952 -0.990159 -0.139946 384.657 166.862)" fill="#C2A289"/>
<ellipse cx="0.528682" cy="0.503328" rx="0.528682" ry="0.503328" transform="matrix(-0.126616 0.991952 -0.990159 -0.139946 378.736 173.5)" fill="#C2A289"/>
<path d="M311.406 206.638L344.228 173.808C344.228 173.808 349.767 170.238 354.632 176.169C359.497 182.099 356.007 186.848 356.007 186.848L323.185 219.678C323.185 219.678 318.152 221.941 313.682 217.521C309.212 213.101 311.406 206.638 311.406 206.638Z" fill="#533823"/>
<path d="M331.31 207.919L330.615 207.821L323.15 198.725L336.083 184.855L337.116 185.001L345.276 194.196L331.31 207.919Z" fill="#2F1F12"/>
<rect width="12.2126" height="19.7089" transform="matrix(-0.668177 -0.752886 0.708584 -0.696324 330.314 207.778)" fill="#432D1B"/>
<ellipse cx="0.528682" cy="0.503328" rx="0.528682" ry="0.503328" transform="matrix(-0.126616 0.991952 -0.990159 -0.139946 321.159 214.324)" fill="#835A39"/>
<ellipse cx="0.528682" cy="0.503328" rx="0.528682" ry="0.503328" transform="matrix(-0.126616 0.991952 -0.990159 -0.139946 325.146 214.888)" fill="#835A39"/>
<ellipse cx="0.528682" cy="0.503328" rx="0.528682" ry="0.503328" transform="matrix(-0.126616 0.991952 -0.990159 -0.139946 317.381 204.18)" fill="#835A39"/>
<ellipse cx="0.528682" cy="0.503328" rx="0.528682" ry="0.503328" transform="matrix(-0.126616 0.991952 -0.990159 -0.139946 320.832 208.939)" fill="#835A39"/>
<ellipse cx="0.528682" cy="0.503328" rx="0.528682" ry="0.503328" transform="matrix(-0.126616 0.991952 -0.990159 -0.139946 315.908 215.718)" fill="#835A39"/>
<ellipse cx="0.528682" cy="0.503328" rx="0.528682" ry="0.503328" transform="matrix(-0.126616 0.991952 -0.990159 -0.139946 326.813 209.784)" fill="#835A39"/>
<ellipse cx="0.528682" cy="0.503328" rx="0.528682" ry="0.503328" transform="matrix(-0.126616 0.991952 -0.990159 -0.139946 322.632 202.787)" fill="#835A39"/>
<ellipse cx="0.528682" cy="0.503328" rx="0.528682" ry="0.503328" transform="matrix(-0.126616 0.991952 -0.990159 -0.139946 315.714 209.284)" fill="#835A39"/>
<ellipse cx="0.528682" cy="0.503328" rx="0.528682" ry="0.503328" transform="matrix(-0.126616 0.991952 -0.990159 -0.139946 346.837 188.056)" fill="#835A39"/>
<ellipse cx="0.528682" cy="0.503328" rx="0.528682" ry="0.503328" transform="matrix(-0.126616 0.991952 -0.990159 -0.139946 347.64 181.762)" fill="#835A39"/>
<ellipse cx="0.528682" cy="0.503328" rx="0.528682" ry="0.503328" transform="matrix(-0.126616 0.991952 -0.990159 -0.139946 352.43 176.033)" fill="#835A39"/>
<ellipse cx="0.528682" cy="0.503328" rx="0.528682" ry="0.503328" transform="matrix(-0.126616 0.991952 -0.990159 -0.139946 353.62 182.608)" fill="#835A39"/>
<ellipse cx="0.528682" cy="0.503328" rx="0.528682" ry="0.503328" transform="matrix(-0.126616 0.991952 -0.990159 -0.139946 352.951 187.852)" fill="#835A39"/>
<ellipse cx="0.528682" cy="0.503328" rx="0.528682" ry="0.503328" transform="matrix(-0.126616 0.991952 -0.990159 -0.139946 343.192 176.863)" fill="#835A39"/>
<ellipse cx="0.528682" cy="0.503328" rx="0.528682" ry="0.503328" transform="matrix(-0.126616 0.991952 -0.990159 -0.139946 347.446 175.329)" fill="#835A39"/>
<ellipse cx="0.528682" cy="0.503328" rx="0.528682" ry="0.503328" transform="matrix(-0.126616 0.991952 -0.990159 -0.139946 341.525 181.966)" fill="#835A39"/>
<path d="M380.26 148.751C384.396 150.743 389.382 153.5 393.834 153.5C397.057 155.526 396.164 149.149 393.834 145.421C391.415 141.55 387.807 138.871 384.436 135.5C381.287 132.351 375.72 128.649 371.936 126.029C365.882 121.838 364.982 117.527 358.549 114.141C350.864 110.096 347.847 104.318 337.436 99.3014C332.905 94.7705 323.725 89.2681 316.814 89.2681C299.158 89.2681 302.888 86 284.985 86C275.399 86 239.872 95.8783 231.436 101C223.119 106.05 218.561 107.401 212.936 115.5C209.86 119.93 209.812 119.886 213.656 117.724C215.486 116.695 218.926 113.462 218.926 116.923C218.926 126.651 221.135 139.757 233.386 136.694C239.88 135.071 245.474 131.009 251.176 127.589C254.662 125.497 260.15 121.401 264.455 123.246C266.911 124.299 271.485 124.712 273.392 126.619C274.511 127.738 274.159 130.736 274.699 132.141C276.658 137.235 275.576 148.975 282.077 150.564C283.973 151.028 289.81 150.43 287.979 153.178C285.748 156.524 284.527 159.425 284.985 163.548C285.405 167.329 308.561 181.03 310 177C313.047 168.469 303.77 148.608 303.197 139.73C302.784 133.331 302.491 126.149 303.197 119.79C303.5 117.061 311.98 130.959 312.851 132.184C314.223 134.112 316.175 133.173 316.055 131.003C315.96 129.296 314.537 127.858 314.537 126.029V117.808C314.537 117.236 315.573 118.295 316.097 118.525C317.314 119.057 318.562 119.661 319.68 120.38C320.176 120.698 329 148.77 332 147.5C334.5 147.5 332.598 125.691 329 123.246C325.961 119.339 319.162 109.486 319.09 104.444C319.055 102.009 317.805 98.2009 320.776 99.3014L320.779 99.3022C325.802 101.163 331.427 103.246 336.164 105.667C344.189 109.769 351.092 115.509 356.61 122.572C358.563 125.073 360.203 128.27 362.512 130.413C367.048 134.625 372.571 136.515 375.622 142.006C377.05 144.576 376.883 147.126 380.26 148.751Z" fill="#0F4B27"/>
<path d="M197.664 142.854C193.644 144.595 188.799 147.005 184.473 147.005C181.341 148.776 182.209 143.202 184.473 139.943C186.824 136.559 190.33 134.217 193.605 131.27C196.665 128.518 202.075 125.281 205.752 122.991C211.635 119.328 212.509 115.559 218.761 112.599C226.228 109.064 229.16 104.013 239.277 99.6274C243.68 95.6668 252.6 90.8568 259.317 90.8568C276.473 90.8568 272.849 88 290.245 88C299.561 88 334.084 96.6351 342.281 101.112C350.364 105.527 354.438 109 360.258 113.787C363.248 117.66 363.294 117.622 359.559 115.731C357.781 114.832 354.438 112.006 354.438 115.031C354.438 123.535 352.291 134.992 340.387 132.315C334.077 130.895 328.64 127.345 323.1 124.355C319.712 122.526 314.379 118.946 310.196 120.559C307.809 121.479 303.364 121.84 301.511 123.507C300.424 124.485 300.766 127.106 300.241 128.335C298.337 132.787 299.389 143.05 293.072 144.439C291.229 144.844 285.557 144.322 287.337 146.723C289.504 149.648 296 165 287.337 168.5C278.674 172 274.889 161.891 273.491 158.368C270.53 150.911 271.992 142.729 272.548 134.968C272.95 129.374 273.235 123.096 272.548 117.537C272.254 115.152 264.013 127.301 263.167 128.371C261.834 130.058 259.937 129.236 260.054 127.34C260.146 125.848 261.529 124.59 261.529 122.991V115.805C261.529 115.305 260.522 116.231 260.013 116.432C258.831 116.897 257.617 117.425 256.531 118.053C256.049 118.332 247.6 124.508 247.6 120.375C247.6 118.927 251.056 116.425 251.943 115.4C254.896 111.984 257.034 108.53 257.104 104.123C257.138 101.994 258.353 98.6654 255.466 99.6274L255.464 99.6282C250.583 101.254 245.117 103.075 240.513 105.192C232.715 108.778 226.007 113.795 220.645 119.969C218.747 122.155 217.153 124.95 214.91 126.824C210.502 130.506 205.135 132.157 202.17 136.958C200.783 139.204 200.945 141.433 197.664 142.854Z" fill="#185A32"/>
<path d="M88.2126 223.956L102.581 228.182C103.952 228.586 105.403 228.628 106.794 228.304L265.686 191.398C270.29 190.329 273.068 185.631 271.788 181.082L240.909 71.3305C240.181 68.742 238.242 66.6677 235.708 65.7669L223.594 61.4598C221.973 60.8834 220.213 60.8259 218.558 61.2953L64.9882 104.839C60.7529 106.04 58.1958 110.343 59.1654 114.637L82.4675 217.832C83.1297 220.764 85.3283 223.108 88.2126 223.956Z" fill="#A82020"/>
<path d="M75.9746 116.921L100.128 224.94C100.792 227.911 103.741 229.78 106.712 229.113L271.677 192.068C274.791 191.368 276.662 188.176 275.749 185.117L241.46 70.1471C240.598 67.258 237.574 65.598 234.674 66.4221L79.8453 110.419C77.0354 111.218 75.3372 114.07 75.9746 116.921Z" fill="url(#paint3_linear_5683_6401)"/>
<path d="M108.34 99.5221L100.218 71.3574C99.5452 69.0252 100.885 66.5882 103.214 65.9061L173.909 45.2052C176.201 44.5343 178.609 45.8096 179.343 48.0815L188.723 77.1475" stroke="#360A0A" stroke-width="6.0604"/>
<path d="M91.5 224.5L66.757 115.535C66.0518 112.429 67.8956 109.314 70.9573 108.438L228 63.4995" stroke="#831314"/>
<path d="M176.148 76.8934L196.491 71.0678L202.475 73.8463L182.132 79.6719L176.148 76.8934Z" fill="#360A0A"/>
<path d="M95.9785 99.805L116.321 93.9794L122.305 96.7579L101.962 102.584L95.9785 99.805Z" fill="#360A0A"/>
<path d="M76 105.367L86.5161 102.588L92.5 105.367L81.9839 108.145L76 105.367Z" fill="#FAE5E5"/>
<path d="M203 68.8667L213.516 66.0881L219.5 68.8667L208.984 71.6453L203 68.8667Z" fill="#FAE5E5"/>
<path d="M265 186L238 91.4998L235 80.9998L113 222.5L265 186Z" fill="url(#paint4_linear_5683_6401)"/>
<path d="M154.423 130.023L157.696 140.618C157.967 141.494 157.459 142.42 156.574 142.662L144.067 146.085C143.202 146.322 142.693 147.216 142.931 148.081L146.759 162.001C146.997 162.868 147.895 163.376 148.762 163.133L161.785 159.484C162.639 159.245 163.526 159.734 163.779 160.584L167.475 173.002C167.724 173.841 168.594 174.33 169.44 174.109L186.939 169.54C187.825 169.309 188.344 168.39 188.085 167.511L184.492 155.324C184.236 154.454 184.742 153.543 185.616 153.301L197.799 149.928C198.667 149.688 199.174 148.786 198.928 147.92L194.967 133.982C194.725 133.128 193.84 132.627 192.983 132.859L180.229 136.306C179.399 136.53 178.538 136.068 178.266 135.252L174.552 124.111C174.276 123.285 173.398 122.823 172.562 123.065L155.523 127.985C154.651 128.237 154.155 129.156 154.423 130.023Z" fill="#FEE9E9"/>
<circle cx="171.5" cy="149.5" r="40.4509" stroke="#FCEFF0" stroke-width="6.09813"/>
<path d="M427.981 200.87C428.886 167.754 423.835 151.073 421.196 146.872C421.196 145.71 421.778 143.675 424.104 144.822C427.012 146.257 433.231 170.746 433.231 200.87C433.231 224.97 437.754 239.67 440.016 244.008H433.231C431.104 243.427 427.076 233.987 427.981 200.87Z" fill="#493309"/>
<path d="M437.224 133.262C439.869 136.464 432.501 140.282 428.487 141.791C430.617 142.733 434.452 145.306 432.748 148.067C430.618 151.518 428.332 152.143 416.719 154.417C405.105 156.691 394.417 145.532 388.158 144.955C380.137 144.217 361.329 145.497 368.863 144.668C376.397 143.839 395.666 132.642 406.582 130.64C417.499 128.638 433.919 129.259 437.224 133.262Z" fill="#277739"/>
<path d="M426 140.709C418.875 138.789 401.081 136.909 379 143C389.5 142.139 413.6 140.476 426 140.709Z" fill="#0F4B27"/>
<path d="M443.714 212.407C443.222 186.58 445.972 173.571 447.409 170.295C447.409 169.389 447.092 167.801 445.826 168.696C444.242 169.815 440.855 188.914 440.855 212.407C440.855 231.202 438.392 242.666 437.161 246.049H440.855C442.014 245.596 444.207 238.234 443.714 212.407Z" fill="#493309"/>
<path d="M438.681 159.681C437.241 162.178 441.253 165.156 443.439 166.333C442.279 167.067 440.191 169.074 441.118 171.227C442.278 173.918 443.523 174.406 449.847 176.179C456.172 177.953 461.992 169.25 465.4 168.8C469.768 168.224 480.011 169.223 475.908 168.576C471.805 167.93 461.312 159.198 455.367 157.636C449.422 156.075 440.481 156.559 438.681 159.681Z" fill="#277739"/>
<path d="M444.979 165.896C448.393 164.971 456.919 164.066 467.5 167C462.469 166.585 450.921 165.784 444.979 165.896Z" fill="#0F4B27"/>
<path d="M411.252 230.434C411.909 206.4 408.243 194.293 406.328 191.244C406.328 190.402 406.75 188.924 408.438 189.757C410.549 190.798 415.062 208.571 415.062 230.434C415.062 247.925 418.345 258.593 419.986 261.741H415.062C413.519 261.32 410.596 254.469 411.252 230.434Z" fill="#493309"/>
<path d="M421.255 235.751C420.629 212.828 424.125 201.282 425.951 198.374C425.951 197.57 425.549 196.161 423.938 196.955C421.926 197.948 417.621 214.899 417.621 235.751C417.621 252.432 414.49 262.608 412.925 265.61H417.621C419.093 265.208 421.881 258.674 421.255 235.751Z" fill="#493309"/>
<path d="M417.96 181.367C419.88 183.691 414.533 186.462 411.619 187.557C413.165 188.241 415.948 190.108 414.712 192.112C413.166 194.617 411.507 195.07 403.079 196.721C394.65 198.371 386.893 190.272 382.351 189.854C376.529 189.318 362.879 190.247 368.347 189.645C373.815 189.043 387.799 180.917 395.722 179.464C403.645 178.011 415.562 178.462 417.96 181.367Z" fill="#155824"/>
<path d="M413.146 187.896C407.06 186.971 391.861 186.066 373 189C381.969 188.585 402.554 187.784 413.146 187.896Z" fill="#09341A"/>
<path d="M414.857 188.954C413.027 191.17 418.126 193.813 420.905 194.858C419.43 195.509 416.776 197.291 417.955 199.202C419.43 201.59 421.012 202.023 429.05 203.597C437.089 205.171 444.487 197.447 448.82 197.048C454.372 196.537 467.391 197.423 462.176 196.849C456.96 196.275 443.623 188.525 436.067 187.139C428.51 185.753 417.145 186.183 414.857 188.954Z" fill="#155824"/>
<path d="M453.277 195.206C448.134 194.027 435.219 192.484 418.994 194.622C426.661 194.585 444.252 194.649 453.277 195.206Z" fill="#0B391C"/>
<path d="M75.9319 274.967C67.5751 274.967 42.4365 274.222 49.3074 262.304C48.4715 260.854 42.4365 264.949 42.4365 267.145C42.4365 270.533 44.6544 271.605 46.54 274.222C48.5004 276.943 53.8757 278.319 57.4379 278.319C63.9971 278.319 67.8038 278.691 74.4051 278.691C81.5604 278.691 88.5092 279.436 95.6856 279.436C99.4083 279.436 105.856 279.067 107.9 282.416C111.926 289.011 118.454 289.12 126.604 289.12H160.291C166.394 289.12 172.678 288.375 178.565 288.375C183.639 288.375 188.485 286.885 193.595 286.885C199.114 286.885 204.037 284.651 209.484 284.651C213.743 284.651 213.804 287.028 215.258 289.865C216.684 292.648 220.187 294.137 222.844 295.866C227.135 298.657 234.168 302.168 239.783 302.528C243.242 302.751 246.743 303.674 250.232 303.977C253.069 304.223 256.143 303.546 258.868 304.391C262.108 305.394 271.679 307.145 274.519 304.929C278.317 301.963 278.976 299.549 273.04 299.549C267.839 299.549 263.574 298.976 258.678 297.314C239.783 295.866 240.421 290.808 231.337 289.824C226.162 289.262 223.655 287.404 223.655 283.161C223.655 278.579 222.607 277.947 217.166 277.947C211.777 277.947 206.553 278.517 201.134 278.691C194.713 278.898 188.311 280.91 181.953 281.671C168.947 283.227 156.285 283.161 143.114 283.161C135.887 283.161 123.484 283.885 118.493 278.319C115.885 275.411 117.387 272.732 112.004 272.732C107.246 272.732 102.496 272.896 97.8328 273.519C94.6014 273.95 92.2094 274.967 88.8148 274.967H75.9319Z" fill="#BFECFF"/>
<path d="M50.9319 287.967C42.5751 287.967 17.4365 287.222 24.3074 275.304C23.4715 273.854 17.4365 277.949 17.4365 280.145C17.4365 283.533 19.6544 284.605 21.54 287.222C23.5004 289.943 28.8757 291.319 32.4379 291.319C38.9971 291.319 42.8038 291.691 49.4051 291.691C56.5604 291.691 63.5092 292.436 70.6856 292.436C74.4083 292.436 80.8561 292.067 82.9005 295.416C86.9259 302.011 93.4536 302.12 101.604 302.12H135.291C141.394 302.12 147.678 301.375 153.565 301.375C158.639 301.375 163.485 299.885 168.595 299.885C174.114 299.885 179.037 297.651 184.484 297.651C188.743 297.651 188.804 300.028 190.258 302.865C191.684 305.648 195.187 307.137 197.844 308.866C202.135 311.657 209.168 315.168 214.783 315.528C218.242 315.751 221.743 316.674 225.232 316.977C228.069 317.223 231.143 316.546 233.868 317.391C237.108 318.394 246.679 320.145 249.519 317.929C253.318 314.963 253.976 312.549 248.04 312.549C242.839 312.549 238.574 311.976 233.678 310.314C214.783 308.866 215.421 303.808 206.337 302.824C201.162 302.262 198.655 300.404 198.655 296.161C198.655 291.579 197.607 290.947 192.166 290.947C186.777 290.947 181.553 291.517 176.134 291.691C169.713 291.898 163.311 293.91 156.953 294.671C143.947 296.227 131.285 296.161 118.114 296.161C110.887 296.161 98.4844 296.885 93.4931 291.319C90.8853 288.411 92.3872 285.732 87.0039 285.732C82.2457 285.732 77.4958 285.896 72.8328 286.519C69.6014 286.95 67.2094 287.967 63.8148 287.967H50.9319Z" fill="#51BBC2"/>
<path d="M462.948 262.076C471.42 258.947 488.902 256 492.402 249C495.304 249 488.689 242.614 486.5 242.5C484.362 242.389 478.94 240.71 480 240.584C483.688 240.146 490.164 241.567 492.402 243.947C500.783 252.861 478.358 259.322 471.253 263.472C468.429 265.121 464.464 266.519 461.041 266.926C459.047 267.163 457.199 267.411 455.914 268.673C453.143 271.396 456.395 275.172 453.279 278.233C445.858 285.525 438.022 290.588 427.07 294.506C423.039 295.948 414.745 298.957 410.406 299.472C407.676 299.797 405.632 299.641 403 299.072C399.961 298.415 406.226 296.004 406.653 295.757C408.54 294.667 414.917 293.678 417.204 293.126C420.312 292.376 427.764 291.081 432.562 286.769C439.788 282.1 437.895 282.46 441.25 279.165C443.586 276.87 444.475 274.13 446.543 271.85C448.083 270.151 446.042 268.399 446.94 266.681C447.758 265.118 451.632 265.91 453.197 265.155C456.108 263.752 459.807 263.236 462.948 262.076Z" fill="#BFECFF"/>
<path d="M358.437 76.2825C351.237 69.8825 345.437 70.2825 343.437 71.2825C351.937 76.2825 353.77 77.9493 356.437 81.2827C358.437 78.2827 368.937 73.2827 366.937 73.2827C365.337 73.2827 360.437 75.1159 358.437 76.2825Z" fill="#187A78"/>
<path d="M434.437 32.7827C422.437 30.7827 416.437 31.9493 414.937 32.7827C414.603 33.7827 417.437 33.7827 422.437 33.7827C428.164 33.7827 433.27 35.4494 435.937 36.7827C439.937 35.7827 434.437 34.7827 443.437 32.7827C450.637 31.1826 453.103 30.4494 453.437 30.2829C446.637 27.0829 437.937 30.6161 434.437 32.7827Z" fill="#187A78"/>
<path d="M427.437 47.2825C434.637 40.8825 440.437 41.2825 442.437 42.2825C433.937 47.2825 432.103 48.9493 429.437 52.2827C427.437 49.2827 416.937 44.2827 418.937 44.2827C420.537 44.2827 425.437 46.1159 427.437 47.2825Z" fill="#093C3B"/>
<!-- <path d="M351.437 3.78267C363.437 1.78267 369.437 2.94933 370.937 3.78267C371.27 4.78268 368.437 4.78271 363.437 4.78271C357.709 4.78271 352.603 6.44938 349.937 7.78271C345.937 6.78271 351.437 5.78271 342.437 3.78267C335.237 2.18263 332.77 1.44945 332.437 1.28286C339.237 -1.91714 347.937 1.61606 351.437 3.78267Z" fill="#093C3B"/> -->
<path d="M281.436 108.5C288.436 94 299.136 70.4996 315.936 82.4997" stroke="#7E7E7E" stroke-width="2"/>
<path d="M340.371 164.326C350.936 157 375.449 141.372 361.169 126.462" stroke="#7E7E7E" stroke-width="2"/>
<path d="M272.597 176.935C241.985 212.529 155.721 233.607 110.527 220.79C71.4469 209.708 92.5314 175.535 104.055 165.804" stroke="black" stroke-width="5"/>
<circle cx="317.33" cy="84.3453" r="3.36896" transform="rotate(44.4911 317.33 84.3453)" fill="#8B8B8B"/>
<circle cx="359.628" cy="125.898" r="3.36896" transform="rotate(44.4911 359.628 125.898)" fill="#8B8B8B"/>
<circle cx="110.59" cy="155.379" r="14.7198" transform="rotate(44.4911 110.59 155.379)" fill="#8B8B8B"/>
<circle cx="110.59" cy="155.379" r="9.53675" transform="rotate(44.4911 110.59 155.379)" fill="#616161"/>
<path d="M281.936 107.5C270.745 122.589 257.111 158.779 270.159 174.889C283.206 191 330.879 175.152 341.436 163" stroke="black" stroke-width="5" stroke-linecap="round"/>
<circle cx="320.247" cy="90.8301" r="6.67672" transform="rotate(44.4911 320.247 90.8301)" fill="#655F5F"/>
<circle cx="353.019" cy="123.025" r="6.67672" transform="rotate(44.4911 353.019 123.025)" fill="#655F5F"/>
<path d="M274.861 237.766C250.737 244.345 166.548 240.507 140.779 237.766C107.335 235.114 168 200.5 186.286 204.253C224.241 212.043 265.697 175.872 280.5 183C295.304 190.127 305.016 229.542 274.861 237.766Z" fill="#072412"/>
<path d="M302.706 254.057C305.106 257.257 306.373 261.057 306.706 262.557C310.706 262.557 313.206 266.557 313.206 265.057C313.206 263.557 314.206 260.557 314.206 258.057C314.206 255.557 311.706 266.557 311.706 262.557C311.706 259.357 312.706 255.557 313.206 254.057C311.706 254.057 309.706 262.557 308.706 260.557C307.706 258.557 309.706 252.057 308.706 254.057C307.706 256.057 308.206 262.557 307.706 260.557C307.206 258.557 299.706 250.057 302.706 254.057Z" fill="#286227"/>
<path d="M398.706 230.057C401.106 233.257 402.373 237.057 402.706 238.557C406.706 238.557 409.206 242.557 409.206 241.057C409.206 239.557 410.206 236.557 410.206 234.057C410.206 231.557 407.706 242.557 407.706 238.557C407.706 235.357 408.706 231.557 409.206 230.057C407.706 230.057 405.706 238.557 404.706 236.557C403.706 234.557 405.706 228.057 404.706 230.057C403.706 232.057 404.206 238.557 403.706 236.557C403.206 234.557 395.706 226.057 398.706 230.057Z" fill="#286227"/>
<path d="M342.505 238.384C344.905 241.584 343.672 242.327 344.005 243.827C348.005 245.827 351.505 244.827 351.505 243.327C351.505 241.827 351.711 240.884 351.711 238.384C351.711 235.884 349.211 246.884 349.211 242.884C349.211 239.684 350.211 235.884 350.711 234.384C349.211 234.384 348.505 244.327 347.505 242.327C346.505 240.327 346.211 232.148 346.211 234.384C346.211 237.827 345.711 242.884 345.211 240.884C344.711 238.884 340.587 235.827 342.505 238.384Z" fill="#286227"/>
<path d="M338.505 237.384C340.905 240.584 339.672 241.327 340.005 242.827C344.005 244.827 347.505 243.827 347.505 242.327C347.505 240.827 347.711 239.884 347.711 237.384C347.711 234.884 345.211 245.884 345.211 241.884C345.211 238.684 346.211 234.884 346.711 233.384C345.211 233.384 344.505 243.327 343.505 241.327C342.505 239.327 342.211 231.148 342.211 233.384C342.211 236.827 341.711 241.884 341.211 239.884C340.711 237.884 336.587 234.827 338.505 237.384Z" fill="#10520F"/>
<path d="M406.505 261.384C408.905 264.584 407.672 265.327 408.005 266.827C412.005 268.827 415.505 267.827 415.505 266.327C415.505 264.827 415.711 263.884 415.711 261.384C415.711 258.884 413.211 269.884 413.211 265.884C413.211 262.684 414.211 258.884 414.711 257.384C413.211 257.384 412.505 267.327 411.505 265.327C410.505 263.327 410.211 255.148 410.211 257.384C410.211 260.827 409.711 265.884 409.211 263.884C408.711 261.884 404.587 258.827 406.505 261.384Z" fill="#286227"/>
<path d="M429.661 239.357C432.803 243.545 431.188 244.518 431.625 246.481C436.86 249.099 441.442 247.79 441.442 245.826C441.442 243.863 441.711 242.629 441.711 239.357C441.711 236.085 438.439 250.482 438.439 245.246C438.439 241.058 439.748 236.084 440.402 234.121C438.439 234.121 437.515 247.135 436.206 244.517C434.897 241.9 434.512 231.194 434.512 234.121C434.512 238.627 433.858 245.246 433.203 242.629C432.549 240.011 427.151 236.01 429.661 239.357Z" fill="#286227"/>
<path d="M104.706 241.057C107.106 244.257 108.373 248.057 108.706 249.557C112.706 249.557 115.206 253.557 115.206 252.057C115.206 250.557 116.206 247.557 116.206 245.057C116.206 242.557 113.706 253.557 113.706 249.557C113.706 246.357 114.706 242.557 115.206 241.057C113.706 241.057 111.706 249.557 110.706 247.557C109.706 245.557 111.706 239.057 110.706 241.057C109.706 243.057 110.206 249.557 109.706 247.557C109.206 245.557 101.706 237.057 104.706 241.057Z" fill="#1E521D"/>
<path d="M131.706 231.057C134.106 234.257 135.373 238.057 135.706 239.557C139.706 239.557 142.206 243.557 142.206 242.057C142.206 240.557 143.206 237.557 143.206 235.057C143.206 232.557 140.706 243.557 140.706 239.557C140.706 236.357 141.706 232.557 142.206 231.057C140.706 231.057 138.706 239.557 137.706 237.557C136.706 235.557 138.706 229.057 137.706 231.057C136.706 233.057 137.206 239.557 136.706 237.557C136.206 235.557 128.706 227.057 131.706 231.057Z" fill="#286227"/>
<path d="M92.5053 224.384C94.9053 227.584 93.672 228.327 94.0053 229.827C98.0053 231.827 101.505 230.827 101.505 229.327C101.505 227.827 101.711 226.884 101.711 224.384C101.711 221.884 99.2113 232.884 99.2113 228.884C99.2113 225.684 100.211 221.884 100.711 220.384C99.2113 220.384 98.5053 230.327 97.5053 228.327C96.5053 226.327 96.2113 218.148 96.2113 220.384C96.2113 223.827 95.7113 228.884 95.2113 226.884C94.7113 224.884 90.5875 221.827 92.5053 224.384Z" fill="#286227"/>
<path d="M123.505 222.384C125.905 225.584 124.672 226.327 125.005 227.827C129.005 229.827 132.505 228.827 132.505 227.327C132.505 225.827 132.711 224.884 132.711 222.384C132.711 219.884 130.211 230.884 130.211 226.884C130.211 223.684 131.211 219.884 131.711 218.384C130.211 218.384 129.505 228.327 128.505 226.327C127.505 224.327 127.211 216.148 127.211 218.384C127.211 221.827 126.711 226.884 126.211 224.884C125.711 222.884 121.587 219.827 123.505 222.384Z" fill="#1E521D"/>
<path d="M143.661 231.738C146.803 235.927 145.188 236.899 145.625 238.863C150.86 241.481 155.442 240.171 155.442 238.208C155.442 236.245 155.711 235.01 155.711 231.738C155.711 228.466 152.439 242.864 152.439 237.628C152.439 233.439 153.748 228.466 154.402 226.502C152.439 226.502 151.515 239.517 150.206 236.899C148.897 234.281 148.512 223.576 148.512 226.502C148.512 231.009 147.858 237.628 147.203 235.01C146.549 232.392 141.151 228.391 143.661 231.738Z" fill="#286227"/>
<path d="M375.636 252.571C374.843 254.83 374.876 257.509 374.992 258.566C374.067 260.597 372.435 263.569 373.307 259.21C374.179 254.85 372.746 252.604 371.92 252.026L370.335 250.788L367.263 253.859L370.335 248.41L372.862 250.788C372.019 249.235 370.018 245.942 368.75 245.189C367.164 244.248 362.061 250.788 363.151 249.4C368.106 241.077 369.344 242.564 370.335 242.564C371.128 242.564 372.647 244.743 373.307 245.833C373.453 245.367 373.8 244.277 374.395 243.732C376.856 241.476 382.171 241.919 383.363 242.019L383.364 242.019C384.316 242.098 385.247 243.009 385.594 243.455C383.447 243.455 378.658 243.703 376.676 244.694C374.695 245.685 374.298 248.773 374.348 250.193C374.942 249.516 376.191 248.043 376.429 247.567C376.666 247.092 378.344 246.973 379.153 246.973C378.906 246.973 377.954 247.339 376.131 248.806C373.852 250.639 374.645 255.098 374.645 253.562C374.645 252.026 376.874 250.441 377.816 249.4C378.569 248.568 382.819 247.435 384.851 246.973L389.755 246.131L383.761 248.806C381.383 249.12 376.429 250.312 375.636 252.571Z" fill="url(#paint5_linear_5683_6401)"/>
<path fill-rule="evenodd" clip-rule="evenodd" d="M371.997 235.251C372.736 233.858 373.946 232.011 374.576 232.62C375.238 233.26 373.699 234.925 372.623 235.883C372.879 236.136 373.15 236.392 373.431 236.646C374.219 235.28 375.654 233.21 376.273 233.865C376.912 234.541 375.117 236.26 374.007 237.146C374.406 237.48 374.823 237.8 375.25 238.088C375.822 236.613 376.845 234.537 377.546 235.073C378.266 235.624 376.928 237.459 375.972 238.536C376.049 238.58 376.128 238.623 376.206 238.664C376.266 238.696 376.327 238.728 376.387 238.761C377.499 237.668 379.383 236.046 379.737 236.651C380.078 237.235 378.262 238.414 376.999 239.104C377.393 239.334 377.772 239.572 378.138 239.819C379.038 239.186 380.147 238.509 380.285 238.817C380.416 239.11 379.455 239.678 378.567 240.116C383.856 243.882 385.951 249.285 384.776 253.045L383.83 252.75C384.859 249.456 382.96 244.262 377.603 240.652C376.819 241.406 375.473 242.605 375.319 242.359C375.162 242.109 376.56 241.076 377.392 240.511C377.055 240.291 376.705 240.076 376.342 239.869C375.495 241.002 374.165 242.586 373.838 242.208C373.512 241.83 374.9 240.475 375.891 239.619C375.842 239.593 375.793 239.566 375.743 239.54C375.535 239.43 375.328 239.311 375.123 239.185C373.771 240.628 371.556 242.609 370.982 241.624C370.436 240.685 372.539 239.323 374.138 238.511C373.926 238.353 373.717 238.189 373.512 238.021C372.188 238.912 369.926 240.179 369.475 239.423C369.068 238.741 371.154 237.909 372.8 237.409C372.465 237.11 372.147 236.807 371.849 236.513C370.951 237.162 369.483 237.971 369.056 237.232C368.676 236.573 370.016 236.083 371.169 235.822C371.012 235.659 370.865 235.502 370.726 235.353C370.046 235.819 368.971 236.402 368.704 235.947C368.461 235.532 369.472 235.141 370.32 234.914L370.268 234.858C370.094 234.669 369.944 234.506 369.82 234.377L369.855 234.344C369.146 233.864 368.468 233.213 368.98 232.824C369.489 232.437 370.107 233.058 370.536 233.694L370.537 233.693C370.672 233.834 370.829 234.004 371.006 234.196C371.406 233.379 372.083 232.292 372.496 232.687C372.934 233.106 372.018 234.079 371.392 234.613C371.579 234.813 371.781 235.028 371.997 235.251Z" fill="url(#paint6_linear_5683_6401)"/>
<path fill-rule="evenodd" clip-rule="evenodd" d="M382.915 229.799C382.277 228.719 381.624 227.171 382.602 227.012C383.674 226.837 383.941 228.677 383.946 229.79C383.969 229.867 383.993 229.946 384.018 230.028C385.007 229.292 386.629 228.315 386.881 229.08C387.146 229.885 385.302 230.477 384.228 230.7C384.343 231.059 384.47 231.446 384.608 231.855C386.374 230.656 389.035 229.183 389.404 230.32C389.788 231.504 386.888 232.514 384.997 232.973C385.159 233.428 385.332 233.898 385.514 234.375C387.324 233.249 390.316 231.714 390.637 232.881C390.968 234.083 387.786 234.99 385.895 235.347C386.11 235.883 386.335 236.421 386.569 236.951C388.361 235.786 391.172 234.29 391.517 235.443C391.869 236.617 388.942 237.564 387.042 237.983C387.16 238.23 387.279 238.474 387.4 238.712C387.423 238.758 387.446 238.804 387.468 238.85C389.463 238.245 392.961 237.423 393 238.401C393.039 239.378 389.699 239.599 387.785 239.589C387.996 240.149 388.146 240.716 388.246 241.279C389.783 241.044 392.316 240.786 392.279 241.331C392.241 241.891 389.736 241.839 388.317 241.733C388.431 242.59 388.438 243.431 388.377 244.215C388.246 245.92 387.796 247.393 387.409 248.247L386.507 247.838C386.846 247.088 387.267 245.728 387.389 244.139C387.443 243.444 387.439 242.713 387.349 241.974C385.948 242.348 384.134 242.746 384.11 242.404C384.085 242.049 385.933 241.735 387.291 241.569C387.208 241.072 387.085 240.573 386.911 240.083C385.182 240.897 382.59 241.943 382.44 241.285C382.287 240.61 384.939 239.853 386.665 239.471C386.618 239.366 386.568 239.263 386.516 239.16C386.391 238.914 386.268 238.662 386.146 238.406C383.634 239.289 379.467 240.367 379.406 238.775C379.347 237.227 383.113 236.99 385.543 237.078C385.394 236.734 385.248 236.387 385.106 236.04C383.031 236.292 379.066 236.46 379.004 235.194C378.949 234.052 382.382 234.506 384.69 234.994C384.45 234.373 384.226 233.763 384.019 233.18C382.572 233.423 379.938 233.56 379.896 232.316C379.858 231.215 382.052 231.599 383.634 232.067C383.453 231.53 383.292 231.031 383.154 230.588C382.048 230.715 380.37 230.733 380.341 230.016C380.315 229.368 381.764 229.542 382.918 229.808L382.915 229.799Z" fill="url(#paint7_linear_5683_6401)"/>
<defs>
<radialGradient id="paint0_radial_5683_6401" cx="0" cy="0" r="1" gradientUnits="userSpaceOnUse" gradientTransform="translate(269 266) rotate(90) scale(56 529.263)">
<stop stop-color="#DABD91"/>
<stop offset="1" stop-color="#F5E4CB" stop-opacity="0"/>
</radialGradient>
<radialGradient id="paint1_radial_5683_6401" cx="0" cy="0" r="1" gradientUnits="userSpaceOnUse" gradientTransform="translate(271 215.5) rotate(93.9909) scale(86.2091 308.955)">
<stop offset="0.480202" stop-color="#123821"/>
<stop offset="0.701765" stop-color="#437E42"/>
<stop offset="1" stop-color="#437E42" stop-opacity="0"/>
</radialGradient>
<linearGradient id="paint2_linear_5683_6401" x1="325.313" y1="226.884" x2="399.33" y2="260.877" gradientUnits="userSpaceOnUse">
<stop stop-color="#2AE7F3"/>
<stop offset="1" stop-color="#2E88F1"/>
</linearGradient>
<linearGradient id="paint3_linear_5683_6401" x1="176.138" y1="64.9355" x2="163.616" y2="226.508" gradientUnits="userSpaceOnUse">
<stop stop-color="#FD4F4F"/>
<stop offset="1" stop-color="#C63737"/>
</linearGradient>
<linearGradient id="paint4_linear_5683_6401" x1="189" y1="80.9998" x2="147" y2="215" gradientUnits="userSpaceOnUse">
<stop stop-color="#9E2727" stop-opacity="0"/>
<stop offset="0.959991" stop-color="#C73131"/>
</linearGradient>
<linearGradient id="paint5_linear_5683_6401" x1="376.378" y1="241.917" x2="376.378" y2="261.457" gradientUnits="userSpaceOnUse">
<stop stop-color="#1F593A"/>
<stop offset="1" stop-color="#252C16"/>
</linearGradient>
<linearGradient id="paint6_linear_5683_6401" x1="387.028" y1="249.826" x2="369.639" y2="232.536" gradientUnits="userSpaceOnUse">
<stop stop-color="#374412"/>
<stop offset="1" stop-color="#687A33"/>
</linearGradient>
<linearGradient id="paint7_linear_5683_6401" x1="384.402" y1="230.059" x2="389.505" y2="247.151" gradientUnits="userSpaceOnUse">
<stop stop-color="#F2B25D"/>
<stop offset="0.895833" stop-color="#864C44"/>
</linearGradient>
</defs>
</svg>
